<?xml version="1.0" encoding="UTF-8"?>
<!DOCTYPE xmeml>
<xmeml version="4">
	<project>
		<name>Eye Candy 8:21:23</name>
		<children>
			<bin>
				<name>1_Raw Footage</name>
				<labels>
					<label2>Mango</label2>
				</labels>
				<children>
					<clip id="masterclip-1" explodedTracks="true">
						<uuid>ab34d0f6-2665-40e2-92dd-4f019cb42231</uuid>
						<masterclipid>masterclip-1</masterclipid>
						<ismasterclip>TRUE</ismasterclip>
						<duration>3866</duration>
						<rate>
							<timebase>30</timebase>
							<ntsc>FALSE</ntsc>
						</rate>
						<in>3662</in>
						<out>3814</out>
						<name>(Candid Treat)_Jamun Yogurt Popsicle _ Healthy Popsicle Recipe _ Java Plum Yogurt Popsicle _ Ice cream Recipe_sB5KCyHq9WI_YT.mp4</name>
						<media>
							<video>
								<track>
									<clipitem id="clipitem-1">
										<masterclipid>masterclip-1</masterclipid>
										<name>(Candid Treat)_Jamun Yogurt Popsicle _ Healthy Popsicle Recipe _ Java Plum Yogurt Popsicle _ Ice cream Recipe_sB5KCyHq9WI_YT.mp4</name>
										<rate>
											<timebase>30</timebase>
											<ntsc>FALSE</ntsc>
										</rate>
										<alphatype>none</alphatype>
										<pixelaspectratio>square</pixelaspectratio>
										<anamorphic>FALSE</anamorphic>
										<file id="file-1">
											<name>(Candid Treat)_Jamun Yogurt Popsicle _ Healthy Popsicle Recipe _ Java Plum Yogurt Popsicle _ Ice cream Recipe_sB5KCyHq9WI_YT.mp4</name>
											<pathurl>file://localhost/Volumes/ATM%201/EYE%20CANDY/8%3a21%3a23/3_Raw%20Files/(Candid%20Treat)_Jamun%20Yogurt%20Popsicle%20_%20Healthy%20Popsicle%20Recipe%20_%20Java%20Plum%20Yogurt%20Popsicle%20_%20Ice%20cream%20Recipe_sB5KCyHq9WI_YT.mp4</pathurl>
											<rate>
												<timebase>30</timebase>
												<ntsc>FALSE</ntsc>
											</rate>
											<duration>3866</duration>
											<timecode>
												<rate>
													<timebase>30</timebase>
													<ntsc>FALSE</ntsc>
												</rate>
												<string>00:00:00:00</string>
												<frame>0</frame>
												<displayformat>NDF</displayformat>
											</timecode>
											<media>
												<video>
													<samplecharacteristics>
														<rate>
															<timebase>30</timebase>
															<ntsc>FALSE</ntsc>
														</rate>
														<width>1920</width>
														<height>1080</height>
														<anamorphic>FALSE</anamorphic>
														<pixelaspectratio>square</pixelaspectratio>
														<fielddominance>none</fielddominance>
													</samplecharacteristics>
												</video>
												<audio>
													<samplecharacteristics>
														<depth>16</depth>
														<samplerate>44100</samplerate>
													</samplecharacteristics>
													<channelcount>2</channelcount>
												</audio>
											</media>
										</file>
										<link>
											<linkclipref>clipitem-1</linkclipref>
											<mediatype>video</mediatype>
											<trackindex>1</trackindex>
											<clipindex>1</clipindex>
										</link>
										<link>
											<linkclipref>clipitem-2</linkclipref>
											<mediatype>audio</mediatype>
											<trackindex>1</trackindex>
											<clipindex>1</clipindex>
											<groupindex>1</groupindex>
										</link>
										<link>
											<linkclipref>clipitem-3</linkclipref>
											<mediatype>audio</mediatype>
											<trackindex>2</trackindex>
											<clipindex>1</clipindex>
											<groupindex>1</groupindex>
										</link>
									</clipitem>
								</track>
							</video>
							<audio>
								<track>
									<clipitem id="clipitem-2">
										<masterclipid>masterclip-1</masterclipid>
										<name>(Candid Treat)_Jamun Yogurt Popsicle _ Healthy Popsicle Recipe _ Java Plum Yogurt Popsicle _ Ice cream Recipe_sB5KCyHq9WI_YT.mp4</name>
										<rate>
											<timebase>30</timebase>
											<ntsc>FALSE</ntsc>
										</rate>
										<file id="file-1"/>
										<sourcetrack>
											<mediatype>audio</mediatype>
											<trackindex>1</trackindex>
										</sourcetrack>
										<link>
											<linkclipref>clipitem-1</linkclipref>
											<mediatype>video</mediatype>
											<trackindex>1</trackindex>
											<clipindex>1</clipindex>
										</link>
										<link>
											<linkclipref>clipitem-2</linkclipref>
											<mediatype>audio</mediatype>
											<trackindex>1</trackindex>
											<clipindex>1</clipindex>
											<groupindex>1</groupindex>
										</link>
										<link>
											<linkclipref>clipitem-3</linkclipref>
											<mediatype>audio</mediatype>
											<trackindex>2</trackindex>
											<clipindex>1</clipindex>
											<groupindex>1</groupindex>
										</link>
									</clipitem>
								</track>
								<track>
									<clipitem id="clipitem-3">
										<masterclipid>masterclip-1</masterclipid>
										<name>(Candid Treat)_Jamun Yogurt Popsicle _ Healthy Popsicle Recipe _ Java Plum Yogurt Popsicle _ Ice cream Recipe_sB5KCyHq9WI_YT.mp4</name>
										<rate>
											<timebase>30</timebase>
											<ntsc>FALSE</ntsc>
										</rate>
										<file id="file-1"/>
										<sourcetrack>
											<mediatype>audio</mediatype>
											<trackindex>2</trackindex>
										</sourcetrack>
										<link>
											<linkclipref>clipitem-1</linkclipref>
											<mediatype>video</mediatype>
											<trackindex>1</trackindex>
											<clipindex>1</clipindex>
										</link>
										<link>
											<linkclipref>clipitem-2</linkclipref>
											<mediatype>audio</mediatype>
											<trackindex>1</trackindex>
											<clipindex>1</clipindex>
											<groupindex>1</groupindex>
										</link>
										<link>
											<linkclipref>clipitem-3</linkclipref>
											<mediatype>audio</mediatype>
											<trackindex>2</trackindex>
											<clipindex>1</clipindex>
											<groupindex>1</groupindex>
										</link>
									</clipitem>
								</track>
							</audio>
						</media>
						<logginginfo>
							<description>Jamun Yogurt Popsicle | Healthy Popsicle Recipe | Java Plum Yogurt Popsicle | Ice cream Recipe</description>
							<scene></scene>
							<shottake></shottake>
							<lognote>https://www.youtube.com/watch?v=sB5KCyHq9WI</lognote>
							<good></good>
							<originalvideofilename></originalvideofilename>
							<originalaudiofilename></originalaudiofilename>
						</logginginfo>
						<colorinfo>
							<lut></lut>
							<lut1></lut1>
							<asc_sop></asc_sop>
							<asc_sat></asc_sat>
							<lut2></lut2>
						</colorinfo>
						<labels>
						</labels>
					</clip>
					<bin>
						<name>Dig In</name>
						<children>
							<clip id="masterclip-2" explodedTracks="true">
								<uuid>2bbcf758-f050-43a5-b432-8360012f6543</uuid>
								<masterclipid>masterclip-2</masterclipid>
								<ismasterclip>TRUE</ismasterclip>
								<duration>1786</duration>
								<rate>
									<timebase>30</timebase>
									<ntsc>FALSE</ntsc>
								</rate>
								<in>1125</in>
								<out>1184</out>
								<name>(_sophieskitchen)_BbPPUONjzx9_IG.mp4</name>
								<media>
									<video>
										<track>
											<clipitem id="clipitem-4">
												<masterclipid>masterclip-2</masterclipid>
												<name>(_sophieskitchen)_BbPPUONjzx9_IG.mp4</name>
												<rate>
													<timebase>30</timebase>
													<ntsc>FALSE</ntsc>
												</rate>
												<alphatype>none</alphatype>
												<pixelaspectratio>square</pixelaspectratio>
												<anamorphic>FALSE</anamorphic>
												<file id="file-2">
													<name>(_sophieskitchen)_BbPPUONjzx9_IG.mp4</name>
													<pathurl>file://localhost/Volumes/ATM%201/EYE%20CANDY/8%3a21%3a23/3_Raw%20Files/Dig%20In/(_sophieskitchen)_BbPPUONjzx9_IG.mp4</pathurl>
													<rate>
														<timebase>30</timebase>
														<ntsc>FALSE</ntsc>
													</rate>
													<duration>1786</duration>
													<timecode>
														<rate>
															<timebase>30</timebase>
															<ntsc>FALSE</ntsc>
														</rate>
														<string>00:00:00:00</string>
														<frame>0</frame>
														<displayformat>NDF</displayformat>
													</timecode>
													<media>
														<video>
															<samplecharacteristics>
																<rate>
																	<timebase>30</timebase>
																	<ntsc>FALSE</ntsc>
																</rate>
																<width>640</width>
																<height>640</height>
																<anamorphic>FALSE</anamorphic>
																<pixelaspectratio>square</pixelaspectratio>
																<fielddominance>none</fielddominance>
															</samplecharacteristics>
														</video>
													</media>
												</file>
											</clipitem>
										</track>
									</video>
								</media>
								<logginginfo>
									<description></description>
									<scene></scene>
									<shottake></shottake>
									<lognote></lognote>
									<good></good>
									<originalvideofilename></originalvideofilename>
									<originalaudiofilename></originalaudiofilename>
								</logginginfo>
								<colorinfo>
									<lut></lut>
									<lut1></lut1>
									<asc_sop></asc_sop>
									<asc_sat></asc_sat>
									<lut2></lut2>
								</colorinfo>
								<labels>
								</labels>
							</clip>
							<clip id="masterclip-3" explodedTracks="true">
								<uuid>f5842d81-b2ca-4cd2-b355-13d3a4dc91d8</uuid>
								<masterclipid>masterclip-3</masterclipid>
								<ismasterclip>TRUE</ismasterclip>
								<duration>918</duration>
								<rate>
									<timebase>30</timebase>
									<ntsc>FALSE</ntsc>
								</rate>
								<in>790</in>
								<out>865</out>
								<name>(_sophieskitchen)_BbR7JsxjaMx_IG.mp4</name>
								<media>
									<video>
										<track>
											<clipitem id="clipitem-5">
												<masterclipid>masterclip-3</masterclipid>
												<name>(_sophieskitchen)_BbR7JsxjaMx_IG.mp4</name>
												<rate>
													<timebase>30</timebase>
													<ntsc>FALSE</ntsc>
												</rate>
												<alphatype>none</alphatype>
												<pixelaspectratio>square</pixelaspectratio>
												<anamorphic>FALSE</anamorphic>
												<file id="file-3">
													<name>(_sophieskitchen)_BbR7JsxjaMx_IG.mp4</name>
													<pathurl>file://localhost/Volumes/ATM%201/EYE%20CANDY/8%3a21%3a23/3_Raw%20Files/Dig%20In/(_sophieskitchen)_BbR7JsxjaMx_IG.mp4</pathurl>
													<rate>
														<timebase>30</timebase>
														<ntsc>FALSE</ntsc>
													</rate>
													<duration>918</duration>
													<timecode>
														<rate>
															<timebase>30</timebase>
															<ntsc>FALSE</ntsc>
														</rate>
														<string>00:00:00:00</string>
														<frame>0</frame>
														<displayformat>NDF</displayformat>
													</timecode>
													<media>
														<video>
															<samplecharacteristics>
																<rate>
																	<timebase>30</timebase>
																	<ntsc>FALSE</ntsc>
																</rate>
																<width>640</width>
																<height>640</height>
																<anamorphic>FALSE</anamorphic>
																<pixelaspectratio>square</pixelaspectratio>
																<fielddominance>none</fielddominance>
															</samplecharacteristics>
														</video>
													</media>
												</file>
											</clipitem>
										</track>
									</video>
								</media>
								<logginginfo>
									<description></description>
									<scene></scene>
									<shottake></shottake>
									<lognote></lognote>
									<good></good>
									<originalvideofilename></originalvideofilename>
									<originalaudiofilename></originalaudiofilename>
								</logginginfo>
								<colorinfo>
									<lut></lut>
									<lut1></lut1>
									<asc_sop></asc_sop>
									<asc_sat></asc_sat>
									<lut2></lut2>
								</colorinfo>
								<labels>
								</labels>
							</clip>
							<clip id="masterclip-4" explodedTracks="true">
								<uuid>c3c7af78-711c-4a2e-ba43-93c23ecf110a</uuid>
								<masterclipid>masterclip-4</masterclipid>
								<ismasterclip>TRUE</ismasterclip>
								<duration>1779</duration>
								<rate>
									<timebase>30</timebase>
									<ntsc>FALSE</ntsc>
								</rate>
								<in>1455</in>
								<out>1577</out>
								<name>(_sophieskitchen)_BbZf49UDkbO_IG.mp4</name>
								<media>
									<video>
										<track>
											<clipitem id="clipitem-6">
												<masterclipid>masterclip-4</masterclipid>
												<name>(_sophieskitchen)_BbZf49UDkbO_IG.mp4</name>
												<rate>
													<timebase>30</timebase>
													<ntsc>FALSE</ntsc>
												</rate>
												<alphatype>none</alphatype>
												<pixelaspectratio>square</pixelaspectratio>
												<anamorphic>FALSE</anamorphic>
												<file id="file-4">
													<name>(_sophieskitchen)_BbZf49UDkbO_IG.mp4</name>
													<pathurl>file://localhost/Volumes/ATM%201/EYE%20CANDY/8%3a21%3a23/3_Raw%20Files/Dig%20In/(_sophieskitchen)_BbZf49UDkbO_IG.mp4</pathurl>
													<rate>
														<timebase>30</timebase>
														<ntsc>FALSE</ntsc>
													</rate>
													<duration>1779</duration>
													<timecode>
														<rate>
															<timebase>30</timebase>
															<ntsc>FALSE</ntsc>
														</rate>
														<string>00:00:00:00</string>
														<frame>0</frame>
														<displayformat>NDF</displayformat>
													</timecode>
													<media>
														<video>
															<samplecharacteristics>
																<rate>
																	<timebase>30</timebase>
																	<ntsc>FALSE</ntsc>
																</rate>
																<width>640</width>
																<height>640</height>
																<anamorphic>FALSE</anamorphic>
																<pixelaspectratio>square</pixelaspectratio>
																<fielddominance>none</fielddominance>
															</samplecharacteristics>
														</video>
													</media>
												</file>
											</clipitem>
										</track>
									</video>
								</media>
								<logginginfo>
									<description></description>
									<scene></scene>
									<shottake></shottake>
									<lognote></lognote>
									<good></good>
									<originalvideofilename></originalvideofilename>
									<originalaudiofilename></originalaudiofilename>
								</logginginfo>
								<colorinfo>
									<lut></lut>
									<lut1></lut1>
									<asc_sop></asc_sop>
									<asc_sat></asc_sat>
									<lut2></lut2>
								</colorinfo>
								<labels>
								</labels>
							</clip>
							<clip id="masterclip-5" explodedTracks="true">
								<uuid>69635124-9d02-4230-9d50-2b8e508fa759</uuid>
								<masterclipid>masterclip-5</masterclipid>
								<ismasterclip>TRUE</ismasterclip>
								<duration>1363</duration>
								<rate>
									<timebase>30</timebase>
									<ntsc>FALSE</ntsc>
								</rate>
								<in>894</in>
								<out>993</out>
								<name>(_sophieskitchen)_BbkF3L_DAOH_IG (1).mp4</name>
								<media>
									<video>
										<track>
											<clipitem id="clipitem-7">
												<masterclipid>masterclip-5</masterclipid>
												<name>(_sophieskitchen)_BbkF3L_DAOH_IG (1).mp4</name>
												<rate>
													<timebase>30</timebase>
													<ntsc>FALSE</ntsc>
												</rate>
												<alphatype>none</alphatype>
												<pixelaspectratio>square</pixelaspectratio>
												<anamorphic>FALSE</anamorphic>
												<file id="file-5">
													<name>(_sophieskitchen)_BbkF3L_DAOH_IG (1).mp4</name>
													<pathurl>file://localhost/Volumes/ATM%201/EYE%20CANDY/8%3a21%3a23/3_Raw%20Files/Dig%20In/(_sophieskitchen)_BbkF3L_DAOH_IG%20(1).mp4</pathurl>
													<rate>
														<timebase>30</timebase>
														<ntsc>FALSE</ntsc>
													</rate>
													<duration>1363</duration>
													<timecode>
														<rate>
															<timebase>30</timebase>
															<ntsc>FALSE</ntsc>
														</rate>
														<string>00:00:00:00</string>
														<frame>0</frame>
														<displayformat>NDF</displayformat>
													</timecode>
													<media>
														<video>
															<samplecharacteristics>
																<rate>
																	<timebase>30</timebase>
																	<ntsc>FALSE</ntsc>
																</rate>
																<width>640</width>
																<height>640</height>
																<anamorphic>FALSE</anamorphic>
																<pixelaspectratio>square</pixelaspectratio>
																<fielddominance>none</fielddominance>
															</samplecharacteristics>
														</video>
													</media>
												</file>
											</clipitem>
										</track>
									</video>
								</media>
								<logginginfo>
									<description></description>
									<scene></scene>
									<shottake></shottake>
									<lognote></lognote>
									<good></good>
									<originalvideofilename></originalvideofilename>
									<originalaudiofilename></originalaudiofilename>
								</logginginfo>
								<colorinfo>
									<lut></lut>
									<lut1></lut1>
									<asc_sop></asc_sop>
									<asc_sat></asc_sat>
									<lut2></lut2>
								</colorinfo>
								<labels>
								</labels>
							</clip>
							<clip id="masterclip-6" explodedTracks="true">
								<uuid>a9dd94d8-909a-4951-b350-7a5c5adb882f</uuid>
								<masterclipid>masterclip-6</masterclipid>
								<ismasterclip>TRUE</ismasterclip>
								<duration>1737</duration>
								<rate>
									<timebase>30</timebase>
									<ntsc>FALSE</ntsc>
								</rate>
								<in>1463</in>
								<out>1604</out>
								<name>(_sophieskitchen)_BbmwlaWDu50_IG.mp4</name>
								<media>
									<video>
										<track>
											<clipitem id="clipitem-8">
												<masterclipid>masterclip-6</masterclipid>
												<name>(_sophieskitchen)_BbmwlaWDu50_IG.mp4</name>
												<rate>
													<timebase>30</timebase>
													<ntsc>FALSE</ntsc>
												</rate>
												<alphatype>none</alphatype>
												<pixelaspectratio>square</pixelaspectratio>
												<anamorphic>FALSE</anamorphic>
												<file id="file-6">
													<name>(_sophieskitchen)_BbmwlaWDu50_IG.mp4</name>
													<pathurl>file://localhost/Volumes/ATM%201/EYE%20CANDY/8%3a21%3a23/3_Raw%20Files/Dig%20In/(_sophieskitchen)_BbmwlaWDu50_IG.mp4</pathurl>
													<rate>
														<timebase>30</timebase>
														<ntsc>FALSE</ntsc>
													</rate>
													<duration>1737</duration>
													<timecode>
														<rate>
															<timebase>30</timebase>
															<ntsc>FALSE</ntsc>
														</rate>
														<string>00:00:00:00</string>
														<frame>0</frame>
														<displayformat>NDF</displayformat>
													</timecode>
													<media>
														<video>
															<samplecharacteristics>
																<rate>
																	<timebase>30</timebase>
																	<ntsc>FALSE</ntsc>
																</rate>
																<width>640</width>
																<height>640</height>
																<anamorphic>FALSE</anamorphic>
																<pixelaspectratio>square</pixelaspectratio>
																<fielddominance>none</fielddominance>
															</samplecharacteristics>
														</video>
													</media>
												</file>
											</clipitem>
										</track>
									</video>
								</media>
								<logginginfo>
									<description></description>
									<scene></scene>
									<shottake></shottake>
									<lognote></lognote>
									<good></good>
									<originalvideofilename></originalvideofilename>
									<originalaudiofilename></originalaudiofilename>
								</logginginfo>
								<colorinfo>
									<lut></lut>
									<lut1></lut1>
									<asc_sop></asc_sop>
									<asc_sat></asc_sat>
									<lut2></lut2>
								</colorinfo>
								<labels>
								</labels>
							</clip>
							<clip id="masterclip-7" explodedTracks="true">
								<uuid>778585da-d117-41b9-b25a-b079e811cc09</uuid>
								<masterclipid>masterclip-7</masterclipid>
								<ismasterclip>TRUE</ismasterclip>
								<duration>1698</duration>
								<rate>
									<timebase>30</timebase>
									<ntsc>FALSE</ntsc>
								</rate>
								<in>1181</in>
								<out>1289</out>
								<name>(_sophieskitchen)_BbpIb6gjh_s_IG.mp4</name>
								<media>
									<video>
										<track>
											<clipitem id="clipitem-9">
												<masterclipid>masterclip-7</masterclipid>
												<name>(_sophieskitchen)_BbpIb6gjh_s_IG.mp4</name>
												<rate>
													<timebase>30</timebase>
													<ntsc>FALSE</ntsc>
												</rate>
												<alphatype>none</alphatype>
												<pixelaspectratio>square</pixelaspectratio>
												<anamorphic>FALSE</anamorphic>
												<file id="file-7">
													<name>(_sophieskitchen)_BbpIb6gjh_s_IG.mp4</name>
													<pathurl>file://localhost/Volumes/ATM%201/EYE%20CANDY/8%3a21%3a23/3_Raw%20Files/Dig%20In/(_sophieskitchen)_BbpIb6gjh_s_IG.mp4</pathurl>
													<rate>
														<timebase>30</timebase>
														<ntsc>FALSE</ntsc>
													</rate>
													<duration>1698</duration>
													<timecode>
														<rate>
															<timebase>30</timebase>
															<ntsc>FALSE</ntsc>
														</rate>
														<string>00:00:00:00</string>
														<frame>0</frame>
														<displayformat>NDF</displayformat>
													</timecode>
													<media>
														<video>
															<samplecharacteristics>
																<rate>
																	<timebase>30</timebase>
																	<ntsc>FALSE</ntsc>
																</rate>
																<width>640</width>
																<height>640</height>
																<anamorphic>FALSE</anamorphic>
																<pixelaspectratio>square</pixelaspectratio>
																<fielddominance>none</fielddominance>
															</samplecharacteristics>
														</video>
													</media>
												</file>
											</clipitem>
										</track>
									</video>
								</media>
								<logginginfo>
									<description></description>
									<scene></scene>
									<shottake></shottake>
									<lognote></lognote>
									<good></good>
									<originalvideofilename></originalvideofilename>
									<originalaudiofilename></originalaudiofilename>
								</logginginfo>
								<colorinfo>
									<lut></lut>
									<lut1></lut1>
									<asc_sop></asc_sop>
									<asc_sat></asc_sat>
									<lut2></lut2>
								</colorinfo>
								<labels>
								</labels>
							</clip>
							<clip id="masterclip-8" explodedTracks="true">
								<uuid>7176898b-db02-49ff-bbc3-37f47f1da7ab</uuid>
								<masterclipid>masterclip-8</masterclipid>
								<ismasterclip>TRUE</ismasterclip>
								<duration>1733</duration>
								<rate>
									<timebase>30</timebase>
									<ntsc>FALSE</ntsc>
								</rate>
								<in>1437</in>
								<out>1525</out>
								<name>(_sophieskitchen)_Bbw42fPDllC_IG.mp4</name>
								<media>
									<video>
										<track>
											<clipitem id="clipitem-10">
												<masterclipid>masterclip-8</masterclipid>
												<name>(_sophieskitchen)_Bbw42fPDllC_IG.mp4</name>
												<rate>
													<timebase>30</timebase>
													<ntsc>FALSE</ntsc>
												</rate>
												<alphatype>none</alphatype>
												<pixelaspectratio>square</pixelaspectratio>
												<anamorphic>FALSE</anamorphic>
												<file id="file-8">
													<name>(_sophieskitchen)_Bbw42fPDllC_IG.mp4</name>
													<pathurl>file://localhost/Volumes/ATM%201/EYE%20CANDY/8%3a21%3a23/3_Raw%20Files/Dig%20In/(_sophieskitchen)_Bbw42fPDllC_IG.mp4</pathurl>
													<rate>
														<timebase>30</timebase>
														<ntsc>FALSE</ntsc>
													</rate>
													<duration>1733</duration>
													<timecode>
														<rate>
															<timebase>30</timebase>
															<ntsc>FALSE</ntsc>
														</rate>
														<string>00:00:00:00</string>
														<frame>0</frame>
														<displayformat>NDF</displayformat>
													</timecode>
													<media>
														<video>
															<samplecharacteristics>
																<rate>
																	<timebase>30</timebase>
																	<ntsc>FALSE</ntsc>
																</rate>
																<width>640</width>
																<height>640</height>
																<anamorphic>FALSE</anamorphic>
																<pixelaspectratio>square</pixelaspectratio>
																<fielddominance>none</fielddominance>
															</samplecharacteristics>
														</video>
													</media>
												</file>
											</clipitem>
										</track>
									</video>
								</media>
								<logginginfo>
									<description></description>
									<scene></scene>
									<shottake></shottake>
									<lognote></lognote>
									<good></good>
									<originalvideofilename></originalvideofilename>
									<originalaudiofilename></originalaudiofilename>
								</logginginfo>
								<colorinfo>
									<lut></lut>
									<lut1></lut1>
									<asc_sop></asc_sop>
									<asc_sat></asc_sat>
									<lut2></lut2>
								</colorinfo>
								<labels>
								</labels>
							</clip>
							<clip id="masterclip-9" explodedTracks="true">
								<uuid>0ae8adca-2ac1-41ac-b0f9-b266e6a77c00</uuid>
								<masterclipid>masterclip-9</masterclipid>
								<ismasterclip>TRUE</ismasterclip>
								<duration>1012</duration>
								<rate>
									<timebase>30</timebase>
									<ntsc>FALSE</ntsc>
								</rate>
								<in>665</in>
								<out>776</out>
								<name>(_sophieskitchen)_BcAZRyWjfoH_IG.mp4</name>
								<media>
									<video>
										<track>
											<clipitem id="clipitem-11">
												<masterclipid>masterclip-9</masterclipid>
												<name>(_sophieskitchen)_BcAZRyWjfoH_IG.mp4</name>
												<rate>
													<timebase>30</timebase>
													<ntsc>FALSE</ntsc>
												</rate>
												<alphatype>none</alphatype>
												<pixelaspectratio>square</pixelaspectratio>
												<anamorphic>FALSE</anamorphic>
												<file id="file-9">
													<name>(_sophieskitchen)_BcAZRyWjfoH_IG.mp4</name>
													<pathurl>file://localhost/Volumes/ATM%201/EYE%20CANDY/8%3a21%3a23/3_Raw%20Files/Dig%20In/(_sophieskitchen)_BcAZRyWjfoH_IG.mp4</pathurl>
													<rate>
														<timebase>30</timebase>
														<ntsc>FALSE</ntsc>
													</rate>
													<duration>1012</duration>
													<timecode>
														<rate>
															<timebase>30</timebase>
															<ntsc>FALSE</ntsc>
														</rate>
														<string>00:00:00:00</string>
														<frame>0</frame>
														<displayformat>NDF</displayformat>
													</timecode>
													<media>
														<video>
															<samplecharacteristics>
																<rate>
																	<timebase>30</timebase>
																	<ntsc>FALSE</ntsc>
																</rate>
																<width>640</width>
																<height>640</height>
																<anamorphic>FALSE</anamorphic>
																<pixelaspectratio>square</pixelaspectratio>
																<fielddominance>none</fielddominance>
															</samplecharacteristics>
														</video>
													</media>
												</file>
											</clipitem>
										</track>
									</video>
								</media>
								<logginginfo>
									<description></description>
									<scene></scene>
									<shottake></shottake>
									<lognote></lognote>
									<good></good>
									<originalvideofilename></originalvideofilename>
									<originalaudiofilename></originalaudiofilename>
								</logginginfo>
								<colorinfo>
									<lut></lut>
									<lut1></lut1>
									<asc_sop></asc_sop>
									<asc_sat></asc_sat>
									<lut2></lut2>
								</colorinfo>
								<labels>
								</labels>
							</clip>
							<clip id="masterclip-10" explodedTracks="true">
								<uuid>15313ac9-328a-4d7e-b624-82e5fa9307ec</uuid>
								<masterclipid>masterclip-10</masterclipid>
								<ismasterclip>TRUE</ismasterclip>
								<duration>1418</duration>
								<rate>
									<timebase>30</timebase>
									<ntsc>FALSE</ntsc>
								</rate>
								<in>795</in>
								<out>955</out>
								<name>(_sophieskitchen)_BcPu2i3DFLY_IG.mp4</name>
								<media>
									<video>
										<track>
											<clipitem id="clipitem-12">
												<masterclipid>masterclip-10</masterclipid>
												<name>(_sophieskitchen)_BcPu2i3DFLY_IG.mp4</name>
												<rate>
													<timebase>30</timebase>
													<ntsc>FALSE</ntsc>
												</rate>
												<alphatype>none</alphatype>
												<pixelaspectratio>square</pixelaspectratio>
												<anamorphic>FALSE</anamorphic>
												<file id="file-10">
													<name>(_sophieskitchen)_BcPu2i3DFLY_IG.mp4</name>
													<pathurl>file://localhost/Volumes/ATM%201/EYE%20CANDY/8%3a21%3a23/3_Raw%20Files/Dig%20In/(_sophieskitchen)_BcPu2i3DFLY_IG.mp4</pathurl>
													<rate>
														<timebase>30</timebase>
														<ntsc>FALSE</ntsc>
													</rate>
													<duration>1418</duration>
													<timecode>
														<rate>
															<timebase>30</timebase>
															<ntsc>FALSE</ntsc>
														</rate>
														<string>00:00:00:00</string>
														<frame>0</frame>
														<displayformat>NDF</displayformat>
													</timecode>
													<media>
														<video>
															<samplecharacteristics>
																<rate>
																	<timebase>30</timebase>
																	<ntsc>FALSE</ntsc>
																</rate>
																<width>640</width>
																<height>640</height>
																<anamorphic>FALSE</anamorphic>
																<pixelaspectratio>square</pixelaspectratio>
																<fielddominance>none</fielddominance>
															</samplecharacteristics>
														</video>
													</media>
												</file>
											</clipitem>
										</track>
									</video>
								</media>
								<logginginfo>
									<description></description>
									<scene></scene>
									<shottake></shottake>
									<lognote></lognote>
									<good></good>
									<originalvideofilename></originalvideofilename>
									<originalaudiofilename></originalaudiofilename>
								</logginginfo>
								<colorinfo>
									<lut></lut>
									<lut1></lut1>
									<asc_sop></asc_sop>
									<asc_sat></asc_sat>
									<lut2></lut2>
								</colorinfo>
								<labels>
								</labels>
							</clip>
							<clip id="masterclip-11" explodedTracks="true">
								<uuid>83fa95cb-8dbb-4bfa-bcba-4ac24b94645f</uuid>
								<masterclipid>masterclip-11</masterclipid>
								<ismasterclip>TRUE</ismasterclip>
								<duration>1537</duration>
								<rate>
									<timebase>30</timebase>
									<ntsc>FALSE</ntsc>
								</rate>
								<in>1030</in>
								<out>1112</out>
								<name>(_sophieskitchen)_BcXijgvDeS5_IG.mp4</name>
								<media>
									<video>
										<track>
											<clipitem id="clipitem-13">
												<masterclipid>masterclip-11</masterclipid>
												<name>(_sophieskitchen)_BcXijgvDeS5_IG.mp4</name>
												<rate>
													<timebase>30</timebase>
													<ntsc>FALSE</ntsc>
												</rate>
												<alphatype>none</alphatype>
												<pixelaspectratio>square</pixelaspectratio>
												<anamorphic>FALSE</anamorphic>
												<file id="file-11">
													<name>(_sophieskitchen)_BcXijgvDeS5_IG.mp4</name>
													<pathurl>file://localhost/Volumes/ATM%201/EYE%20CANDY/8%3a21%3a23/3_Raw%20Files/Dig%20In/(_sophieskitchen)_BcXijgvDeS5_IG.mp4</pathurl>
													<rate>
														<timebase>30</timebase>
														<ntsc>FALSE</ntsc>
													</rate>
													<duration>1537</duration>
													<timecode>
														<rate>
															<timebase>30</timebase>
															<ntsc>FALSE</ntsc>
														</rate>
														<string>00:00:00:00</string>
														<frame>0</frame>
														<displayformat>NDF</displayformat>
													</timecode>
													<media>
														<video>
															<samplecharacteristics>
																<rate>
																	<timebase>30</timebase>
																	<ntsc>FALSE</ntsc>
																</rate>
																<width>640</width>
																<height>640</height>
																<anamorphic>FALSE</anamorphic>
																<pixelaspectratio>square</pixelaspectratio>
																<fielddominance>none</fielddominance>
															</samplecharacteristics>
														</video>
													</media>
												</file>
											</clipitem>
										</track>
									</video>
								</media>
								<logginginfo>
									<description></description>
									<scene></scene>
									<shottake></shottake>
									<lognote></lognote>
									<good></good>
									<originalvideofilename></originalvideofilename>
									<originalaudiofilename></originalaudiofilename>
								</logginginfo>
								<colorinfo>
									<lut></lut>
									<lut1></lut1>
									<asc_sop></asc_sop>
									<asc_sat></asc_sat>
									<lut2></lut2>
								</colorinfo>
								<labels>
								</labels>
							</clip>
							<clip id="masterclip-12" explodedTracks="true">
								<uuid>242fa4c2-a592-4caf-9748-ded3fe1d6a15</uuid>
								<masterclipid>masterclip-12</masterclipid>
								<ismasterclip>TRUE</ismasterclip>
								<duration>767</duration>
								<rate>
									<timebase>30</timebase>
									<ntsc>FALSE</ntsc>
								</rate>
								<in>712</in>
								<name>(_sophieskitchen)_Bd0HSzxDkjg_IG.mp4</name>
								<media>
									<video>
										<track>
											<clipitem id="clipitem-14">
												<masterclipid>masterclip-12</masterclipid>
												<name>(_sophieskitchen)_Bd0HSzxDkjg_IG.mp4</name>
												<rate>
													<timebase>30</timebase>
													<ntsc>FALSE</ntsc>
												</rate>
												<alphatype>none</alphatype>
												<pixelaspectratio>square</pixelaspectratio>
												<anamorphic>FALSE</anamorphic>
												<file id="file-12">
													<name>(_sophieskitchen)_Bd0HSzxDkjg_IG.mp4</name>
													<pathurl>file://localhost/Volumes/ATM%201/EYE%20CANDY/8%3a21%3a23/3_Raw%20Files/Dig%20In/(_sophieskitchen)_Bd0HSzxDkjg_IG.mp4</pathurl>
													<rate>
														<timebase>30</timebase>
														<ntsc>FALSE</ntsc>
													</rate>
													<duration>767</duration>
													<timecode>
														<rate>
															<timebase>30</timebase>
															<ntsc>FALSE</ntsc>
														</rate>
														<string>00:00:00:00</string>
														<frame>0</frame>
														<displayformat>NDF</displayformat>
													</timecode>
													<media>
														<video>
															<samplecharacteristics>
																<rate>
																	<timebase>30</timebase>
																	<ntsc>FALSE</ntsc>
																</rate>
																<width>640</width>
																<height>640</height>
																<anamorphic>FALSE</anamorphic>
																<pixelaspectratio>square</pixelaspectratio>
																<fielddominance>none</fielddominance>
															</samplecharacteristics>
														</video>
													</media>
												</file>
											</clipitem>
										</track>
									</video>
								</media>
								<logginginfo>
									<description></description>
									<scene></scene>
									<shottake></shottake>
									<lognote></lognote>
									<good></good>
									<originalvideofilename></originalvideofilename>
									<originalaudiofilename></originalaudiofilename>
								</logginginfo>
								<colorinfo>
									<lut></lut>
									<lut1></lut1>
									<asc_sop></asc_sop>
									<asc_sat></asc_sat>
									<lut2></lut2>
								</colorinfo>
								<labels>
								</labels>
							</clip>
							<clip id="masterclip-13" explodedTracks="true">
								<uuid>2c1861a4-73f5-49d3-8882-a0763789f241</uuid>
								<masterclipid>masterclip-13</masterclipid>
								<ismasterclip>TRUE</ismasterclip>
								<duration>1503</duration>
								<rate>
									<timebase>30</timebase>
									<ntsc>FALSE</ntsc>
								</rate>
								<in>1283</in>
								<out>1382</out>
								<name>(_sophieskitchen)_Bbe1D3qjLvW_IG.mp4</name>
								<media>
									<video>
										<track>
											<clipitem id="clipitem-15">
												<masterclipid>masterclip-13</masterclipid>
												<name>(_sophieskitchen)_Bbe1D3qjLvW_IG.mp4</name>
												<rate>
													<timebase>30</timebase>
													<ntsc>FALSE</ntsc>
												</rate>
												<alphatype>none</alphatype>
												<pixelaspectratio>square</pixelaspectratio>
												<anamorphic>FALSE</anamorphic>
												<file id="file-13">
													<name>(_sophieskitchen)_Bbe1D3qjLvW_IG.mp4</name>
													<pathurl>file://localhost/Volumes/ATM%201/EYE%20CANDY/8%3a21%3a23/3_Raw%20Files/Dig%20In/(_sophieskitchen)_Bbe1D3qjLvW_IG.mp4</pathurl>
													<rate>
														<timebase>30</timebase>
														<ntsc>FALSE</ntsc>
													</rate>
													<duration>1503</duration>
													<timecode>
														<rate>
															<timebase>30</timebase>
															<ntsc>FALSE</ntsc>
														</rate>
														<string>00:00:00:00</string>
														<frame>0</frame>
														<displayformat>NDF</displayformat>
													</timecode>
													<media>
														<video>
															<samplecharacteristics>
																<rate>
																	<timebase>30</timebase>
																	<ntsc>FALSE</ntsc>
																</rate>
																<width>640</width>
																<height>640</height>
																<anamorphic>FALSE</anamorphic>
																<pixelaspectratio>square</pixelaspectratio>
																<fielddominance>none</fielddominance>
															</samplecharacteristics>
														</video>
													</media>
												</file>
											</clipitem>
										</track>
									</video>
								</media>
								<logginginfo>
									<description></description>
									<scene></scene>
									<shottake></shottake>
									<lognote></lognote>
									<good></good>
									<originalvideofilename></originalvideofilename>
									<originalaudiofilename></originalaudiofilename>
								</logginginfo>
								<colorinfo>
									<lut></lut>
									<lut1></lut1>
									<asc_sop></asc_sop>
									<asc_sat></asc_sat>
									<lut2></lut2>
								</colorinfo>
								<labels>
								</labels>
							</clip>
							<clip id="masterclip-14" explodedTracks="true">
								<uuid>8d8fb956-17df-48c3-ac5f-8d5fbf69234e</uuid>
								<masterclipid>masterclip-14</masterclipid>
								<ismasterclip>TRUE</ismasterclip>
								<duration>1768</duration>
								<rate>
									<timebase>30</timebase>
									<ntsc>FALSE</ntsc>
								</rate>
								<in>1296</in>
								<out>1413</out>
								<name>(_sophieskitchen)_BbHt-F2DlVI_IG.mp4</name>
								<media>
									<video>
										<track>
											<clipitem id="clipitem-16">
												<masterclipid>masterclip-14</masterclipid>
												<name>(_sophieskitchen)_BbHt-F2DlVI_IG.mp4</name>
												<rate>
													<timebase>30</timebase>
													<ntsc>FALSE</ntsc>
												</rate>
												<alphatype>none</alphatype>
												<pixelaspectratio>square</pixelaspectratio>
												<anamorphic>FALSE</anamorphic>
												<file id="file-14">
													<name>(_sophieskitchen)_BbHt-F2DlVI_IG.mp4</name>
													<pathurl>file://localhost/Volumes/ATM%201/EYE%20CANDY/8%3a21%3a23/3_Raw%20Files/Dig%20In/(_sophieskitchen)_BbHt-F2DlVI_IG.mp4</pathurl>
													<rate>
														<timebase>30</timebase>
														<ntsc>FALSE</ntsc>
													</rate>
													<duration>1768</duration>
													<timecode>
														<rate>
															<timebase>30</timebase>
															<ntsc>FALSE</ntsc>
														</rate>
														<string>00:00:00:00</string>
														<frame>0</frame>
														<displayformat>NDF</displayformat>
													</timecode>
													<media>
														<video>
															<samplecharacteristics>
																<rate>
																	<timebase>30</timebase>
																	<ntsc>FALSE</ntsc>
																</rate>
																<width>640</width>
																<height>640</height>
																<anamorphic>FALSE</anamorphic>
																<pixelaspectratio>square</pixelaspectratio>
																<fielddominance>none</fielddominance>
															</samplecharacteristics>
														</video>
													</media>
												</file>
											</clipitem>
										</track>
									</video>
								</media>
								<logginginfo>
									<description></description>
									<scene></scene>
									<shottake></shottake>
									<lognote></lognote>
									<good></good>
									<originalvideofilename></originalvideofilename>
									<originalaudiofilename></originalaudiofilename>
								</logginginfo>
								<colorinfo>
									<lut></lut>
									<lut1></lut1>
									<asc_sop></asc_sop>
									<asc_sat></asc_sat>
									<lut2></lut2>
								</colorinfo>
								<labels>
								</labels>
							</clip>
						</children>
					</bin>
					<bin>
						<name>conveyer belt</name>
						<children>
							<clip id="masterclip-15" explodedTracks="true">
								<uuid>46791b30-a870-4495-857f-80f91e2d0487</uuid>
								<masterclipid>masterclip-15</masterclipid>
								<ismasterclip>TRUE</ismasterclip>
								<duration>1398</duration>
								<rate>
									<timebase>30</timebase>
									<ntsc>FALSE</ntsc>
								</rate>
								<in>188</in>
								<out>1398</out>
								<name>(krissharv3y)_B8xDWA1JBi-_IG.mp4</name>
								<media>
									<video>
										<track>
											<clipitem id="clipitem-17">
												<masterclipid>masterclip-15</masterclipid>
												<name>(krissharv3y)_B8xDWA1JBi-_IG.mp4</name>
												<rate>
													<timebase>30</timebase>
													<ntsc>FALSE</ntsc>
												</rate>
												<alphatype>none</alphatype>
												<pixelaspectratio>square</pixelaspectratio>
												<anamorphic>FALSE</anamorphic>
												<file id="file-15">
													<name>(krissharv3y)_B8xDWA1JBi-_IG.mp4</name>
													<pathurl>file://localhost/Volumes/ATM%201/EYE%20CANDY/8%3a21%3a23/3_Raw%20Files/conveyer%20belt/(krissharv3y)_B8xDWA1JBi-_IG.mp4</pathurl>
													<rate>
														<timebase>30</timebase>
														<ntsc>FALSE</ntsc>
													</rate>
													<duration>1398</duration>
													<timecode>
														<rate>
															<timebase>30</timebase>
															<ntsc>FALSE</ntsc>
														</rate>
														<string>00:00:00:00</string>
														<frame>0</frame>
														<displayformat>NDF</displayformat>
													</timecode>
													<media>
														<video>
															<samplecharacteristics>
																<rate>
																	<timebase>30</timebase>
																	<ntsc>FALSE</ntsc>
																</rate>
																<width>720</width>
																<height>720</height>
																<anamorphic>FALSE</anamorphic>
																<pixelaspectratio>square</pixelaspectratio>
																<fielddominance>none</fielddominance>
															</samplecharacteristics>
														</video>
														<audio>
															<samplecharacteristics>
																<depth>16</depth>
																<samplerate>44100</samplerate>
															</samplecharacteristics>
															<channelcount>1</channelcount>
															<audiochannel>
																<sourcechannel>1</sourcechannel>
															</audiochannel>
														</audio>
													</media>
												</file>
												<link>
													<linkclipref>clipitem-17</linkclipref>
													<mediatype>video</mediatype>
													<trackindex>1</trackindex>
													<clipindex>1</clipindex>
												</link>
												<link>
													<linkclipref>clipitem-18</linkclipref>
													<mediatype>audio</mediatype>
													<trackindex>1</trackindex>
													<clipindex>1</clipindex>
												</link>
											</clipitem>
										</track>
									</video>
									<audio>
										<track>
											<clipitem id="clipitem-18">
												<masterclipid>masterclip-15</masterclipid>
												<name>(krissharv3y)_B8xDWA1JBi-_IG.mp4</name>
												<rate>
													<timebase>30</timebase>
													<ntsc>FALSE</ntsc>
												</rate>
												<file id="file-15"/>
												<sourcetrack>
													<mediatype>audio</mediatype>
													<trackindex>1</trackindex>
												</sourcetrack>
												<link>
													<linkclipref>clipitem-17</linkclipref>
													<mediatype>video</mediatype>
													<trackindex>1</trackindex>
													<clipindex>1</clipindex>
												</link>
												<link>
													<linkclipref>clipitem-18</linkclipref>
													<mediatype>audio</mediatype>
													<trackindex>1</trackindex>
													<clipindex>1</clipindex>
												</link>
											</clipitem>
										</track>
									</audio>
								</media>
								<logginginfo>
									<description></description>
									<scene></scene>
									<shottake></shottake>
									<lognote></lognote>
									<good></good>
									<originalvideofilename></originalvideofilename>
									<originalaudiofilename></originalaudiofilename>
								</logginginfo>
								<colorinfo>
									<lut></lut>
									<lut1></lut1>
									<asc_sop></asc_sop>
									<asc_sat></asc_sat>
									<lut2></lut2>
								</colorinfo>
								<labels>
								</labels>
							</clip>
							<clip id="masterclip-16" explodedTracks="true">
								<uuid>7d6139d5-a5a6-4785-aa5c-53b4e32b63ad</uuid>
								<masterclipid>masterclip-16</masterclipid>
								<ismasterclip>TRUE</ismasterclip>
								<duration>860</duration>
								<rate>
									<timebase>30</timebase>
									<ntsc>FALSE</ntsc>
								</rate>
								<out>345</out>
								<name>(krissharv3y)_BVC4yaIAVXR_IG.mp4</name>
								<media>
									<video>
										<track>
											<clipitem id="clipitem-19">
												<masterclipid>masterclip-16</masterclipid>
												<name>(krissharv3y)_BVC4yaIAVXR_IG.mp4</name>
												<rate>
													<timebase>30</timebase>
													<ntsc>FALSE</ntsc>
												</rate>
												<alphatype>none</alphatype>
												<pixelaspectratio>square</pixelaspectratio>
												<anamorphic>FALSE</anamorphic>
												<file id="file-16">
													<name>(krissharv3y)_BVC4yaIAVXR_IG.mp4</name>
													<pathurl>file://localhost/Volumes/ATM%201/EYE%20CANDY/8%3a21%3a23/3_Raw%20Files/conveyer%20belt/(krissharv3y)_BVC4yaIAVXR_IG.mp4</pathurl>
													<rate>
														<timebase>30</timebase>
														<ntsc>FALSE</ntsc>
													</rate>
													<duration>860</duration>
													<timecode>
														<rate>
															<timebase>30</timebase>
															<ntsc>FALSE</ntsc>
														</rate>
														<string>00:00:00:00</string>
														<frame>0</frame>
														<displayformat>NDF</displayformat>
													</timecode>
													<media>
														<video>
															<samplecharacteristics>
																<rate>
																	<timebase>30</timebase>
																	<ntsc>FALSE</ntsc>
																</rate>
																<width>720</width>
																<height>720</height>
																<anamorphic>FALSE</anamorphic>
																<pixelaspectratio>square</pixelaspectratio>
																<fielddominance>none</fielddominance>
															</samplecharacteristics>
														</video>
														<audio>
															<samplecharacteristics>
																<depth>16</depth>
																<samplerate>44100</samplerate>
															</samplecharacteristics>
															<channelcount>1</channelcount>
															<audiochannel>
																<sourcechannel>1</sourcechannel>
															</audiochannel>
														</audio>
													</media>
												</file>
												<link>
													<linkclipref>clipitem-19</linkclipref>
													<mediatype>video</mediatype>
													<trackindex>1</trackindex>
													<clipindex>1</clipindex>
												</link>
												<link>
													<linkclipref>clipitem-20</linkclipref>
													<mediatype>audio</mediatype>
													<trackindex>1</trackindex>
													<clipindex>1</clipindex>
												</link>
											</clipitem>
										</track>
									</video>
									<audio>
										<track>
											<clipitem id="clipitem-20">
												<masterclipid>masterclip-16</masterclipid>
												<name>(krissharv3y)_BVC4yaIAVXR_IG.mp4</name>
												<rate>
													<timebase>30</timebase>
													<ntsc>FALSE</ntsc>
												</rate>
												<file id="file-16"/>
												<sourcetrack>
													<mediatype>audio</mediatype>
													<trackindex>1</trackindex>
												</sourcetrack>
												<link>
													<linkclipref>clipitem-19</linkclipref>
													<mediatype>video</mediatype>
													<trackindex>1</trackindex>
													<clipindex>1</clipindex>
												</link>
												<link>
													<linkclipref>clipitem-20</linkclipref>
													<mediatype>audio</mediatype>
													<trackindex>1</trackindex>
													<clipindex>1</clipindex>
												</link>
											</clipitem>
										</track>
									</audio>
								</media>
								<logginginfo>
									<description></description>
									<scene></scene>
									<shottake></shottake>
									<lognote></lognote>
									<good></good>
									<originalvideofilename></originalvideofilename>
									<originalaudiofilename></originalaudiofilename>
								</logginginfo>
								<colorinfo>
									<lut></lut>
									<lut1></lut1>
									<asc_sop></asc_sop>
									<asc_sat></asc_sat>
									<lut2></lut2>
								</colorinfo>
								<labels>
								</labels>
							</clip>
							<clip id="masterclip-17" explodedTracks="true">
								<uuid>c3eb548d-2ec8-4a02-bb3e-c48685028bce</uuid>
								<masterclipid>masterclip-17</masterclipid>
								<ismasterclip>TRUE</ismasterclip>
								<duration>1439</duration>
								<rate>
									<timebase>30</timebase>
									<ntsc>FALSE</ntsc>
								</rate>
								<in>497</in>
								<out>978</out>
								<name>(krissharv3y)_BklONb0l49j_IG.mp4</name>
								<media>
									<video>
										<track>
											<clipitem id="clipitem-21">
												<masterclipid>masterclip-17</masterclipid>
												<name>(krissharv3y)_BklONb0l49j_IG.mp4</name>
												<rate>
													<timebase>30</timebase>
													<ntsc>FALSE</ntsc>
												</rate>
												<alphatype>none</alphatype>
												<pixelaspectratio>square</pixelaspectratio>
												<anamorphic>FALSE</anamorphic>
												<file id="file-17">
													<name>(krissharv3y)_BklONb0l49j_IG.mp4</name>
													<pathurl>file://localhost/Volumes/ATM%201/EYE%20CANDY/8%3a21%3a23/3_Raw%20Files/conveyer%20belt/(krissharv3y)_BklONb0l49j_IG.mp4</pathurl>
													<rate>
														<timebase>30</timebase>
														<ntsc>FALSE</ntsc>
													</rate>
													<duration>1439</duration>
													<timecode>
														<rate>
															<timebase>30</timebase>
															<ntsc>FALSE</ntsc>
														</rate>
														<string>00:00:00:00</string>
														<frame>0</frame>
														<displayformat>NDF</displayformat>
													</timecode>
													<media>
														<video>
															<samplecharacteristics>
																<rate>
																	<timebase>30</timebase>
																	<ntsc>FALSE</ntsc>
																</rate>
																<width>640</width>
																<height>640</height>
																<anamorphic>FALSE</anamorphic>
																<pixelaspectratio>square</pixelaspectratio>
																<fielddominance>none</fielddominance>
															</samplecharacteristics>
														</video>
														<audio>
															<samplecharacteristics>
																<depth>16</depth>
																<samplerate>44100</samplerate>
															</samplecharacteristics>
															<channelcount>1</channelcount>
															<audiochannel>
																<sourcechannel>1</sourcechannel>
															</audiochannel>
														</audio>
													</media>
												</file>
												<link>
													<linkclipref>clipitem-21</linkclipref>
													<mediatype>video</mediatype>
													<trackindex>1</trackindex>
													<clipindex>1</clipindex>
												</link>
												<link>
													<linkclipref>clipitem-22</linkclipref>
													<mediatype>audio</mediatype>
													<trackindex>1</trackindex>
													<clipindex>1</clipindex>
												</link>
											</clipitem>
										</track>
									</video>
									<audio>
										<track>
											<clipitem id="clipitem-22">
												<masterclipid>masterclip-17</masterclipid>
												<name>(krissharv3y)_BklONb0l49j_IG.mp4</name>
												<rate>
													<timebase>30</timebase>
													<ntsc>FALSE</ntsc>
												</rate>
												<file id="file-17"/>
												<sourcetrack>
													<mediatype>audio</mediatype>
													<trackindex>1</trackindex>
												</sourcetrack>
												<link>
													<linkclipref>clipitem-21</linkclipref>
													<mediatype>video</mediatype>
													<trackindex>1</trackindex>
													<clipindex>1</clipindex>
												</link>
												<link>
													<linkclipref>clipitem-22</linkclipref>
													<mediatype>audio</mediatype>
													<trackindex>1</trackindex>
													<clipindex>1</clipindex>
												</link>
											</clipitem>
										</track>
									</audio>
								</media>
								<logginginfo>
									<description></description>
									<scene></scene>
									<shottake></shottake>
									<lognote></lognote>
									<good></good>
									<originalvideofilename></originalvideofilename>
									<originalaudiofilename></originalaudiofilename>
								</logginginfo>
								<colorinfo>
									<lut></lut>
									<lut1></lut1>
									<asc_sop></asc_sop>
									<asc_sat></asc_sat>
									<lut2></lut2>
								</colorinfo>
								<labels>
								</labels>
							</clip>
							<clip id="masterclip-18" explodedTracks="true">
								<uuid>25917227-9553-4142-b528-83274cb8153d</uuid>
								<masterclipid>masterclip-18</masterclipid>
								<ismasterclip>TRUE</ismasterclip>
								<duration>1313</duration>
								<rate>
									<timebase>30</timebase>
									<ntsc>FALSE</ntsc>
								</rate>
								<in>707</in>
								<out>1006</out>
								<name>(krissharv3y)_BosK899gPWg_IG.mp4</name>
								<media>
									<video>
										<track>
											<clipitem id="clipitem-23">
												<masterclipid>masterclip-18</masterclipid>
												<name>(krissharv3y)_BosK899gPWg_IG.mp4</name>
												<rate>
													<timebase>30</timebase>
													<ntsc>FALSE</ntsc>
												</rate>
												<alphatype>none</alphatype>
												<pixelaspectratio>square</pixelaspectratio>
												<anamorphic>FALSE</anamorphic>
												<file id="file-18">
													<name>(krissharv3y)_BosK899gPWg_IG.mp4</name>
													<pathurl>file://localhost/Volumes/ATM%201/EYE%20CANDY/8%3a21%3a23/3_Raw%20Files/conveyer%20belt/(krissharv3y)_BosK899gPWg_IG.mp4</pathurl>
													<rate>
														<timebase>30</timebase>
														<ntsc>FALSE</ntsc>
													</rate>
													<duration>1313</duration>
													<timecode>
														<rate>
															<timebase>30</timebase>
															<ntsc>FALSE</ntsc>
														</rate>
														<string>00:00:00:00</string>
														<frame>0</frame>
														<displayformat>NDF</displayformat>
													</timecode>
													<media>
														<video>
															<samplecharacteristics>
																<rate>
																	<timebase>30</timebase>
																	<ntsc>FALSE</ntsc>
																</rate>
																<width>640</width>
																<height>640</height>
																<anamorphic>FALSE</anamorphic>
																<pixelaspectratio>square</pixelaspectratio>
																<fielddominance>none</fielddominance>
															</samplecharacteristics>
														</video>
														<audio>
															<samplecharacteristics>
																<depth>16</depth>
																<samplerate>44100</samplerate>
															</samplecharacteristics>
															<channelcount>1</channelcount>
															<audiochannel>
																<sourcechannel>1</sourcechannel>
															</audiochannel>
														</audio>
													</media>
												</file>
												<link>
													<linkclipref>clipitem-23</linkclipref>
													<mediatype>video</mediatype>
													<trackindex>1</trackindex>
													<clipindex>1</clipindex>
												</link>
												<link>
													<linkclipref>clipitem-24</linkclipref>
													<mediatype>audio</mediatype>
													<trackindex>1</trackindex>
													<clipindex>1</clipindex>
												</link>
											</clipitem>
										</track>
									</video>
									<audio>
										<track>
											<clipitem id="clipitem-24">
												<masterclipid>masterclip-18</masterclipid>
												<name>(krissharv3y)_BosK899gPWg_IG.mp4</name>
												<rate>
													<timebase>30</timebase>
													<ntsc>FALSE</ntsc>
												</rate>
												<file id="file-18"/>
												<sourcetrack>
													<mediatype>audio</mediatype>
													<trackindex>1</trackindex>
												</sourcetrack>
												<link>
													<linkclipref>clipitem-23</linkclipref>
													<mediatype>video</mediatype>
													<trackindex>1</trackindex>
													<clipindex>1</clipindex>
												</link>
												<link>
													<linkclipref>clipitem-24</linkclipref>
													<mediatype>audio</mediatype>
													<trackindex>1</trackindex>
													<clipindex>1</clipindex>
												</link>
											</clipitem>
										</track>
									</audio>
								</media>
								<logginginfo>
									<description></description>
									<scene></scene>
									<shottake></shottake>
									<lognote></lognote>
									<good></good>
									<originalvideofilename></originalvideofilename>
									<originalaudiofilename></originalaudiofilename>
								</logginginfo>
								<colorinfo>
									<lut></lut>
									<lut1></lut1>
									<asc_sop></asc_sop>
									<asc_sat></asc_sat>
									<lut2></lut2>
								</colorinfo>
								<labels>
								</labels>
							</clip>
							<clip id="masterclip-19" explodedTracks="true">
								<uuid>606a3313-968e-4a5d-85c9-81e87cd37a07</uuid>
								<masterclipid>masterclip-19</masterclipid>
								<ismasterclip>TRUE</ismasterclip>
								<duration>1113</duration>
								<rate>
									<timebase>30</timebase>
									<ntsc>FALSE</ntsc>
								</rate>
								<in>697</in>
								<out>1011</out>
								<name>(krissharv3y)_BqqkGrNgh_0_IG.mp4</name>
								<media>
									<video>
										<track>
											<clipitem id="clipitem-25">
												<masterclipid>masterclip-19</masterclipid>
												<name>(krissharv3y)_BqqkGrNgh_0_IG.mp4</name>
												<rate>
													<timebase>30</timebase>
													<ntsc>FALSE</ntsc>
												</rate>
												<alphatype>none</alphatype>
												<pixelaspectratio>square</pixelaspectratio>
												<anamorphic>FALSE</anamorphic>
												<file id="file-19">
													<name>(krissharv3y)_BqqkGrNgh_0_IG.mp4</name>
													<pathurl>file://localhost/Volumes/ATM%201/EYE%20CANDY/8%3a21%3a23/3_Raw%20Files/conveyer%20belt/(krissharv3y)_BqqkGrNgh_0_IG.mp4</pathurl>
													<rate>
														<timebase>30</timebase>
														<ntsc>FALSE</ntsc>
													</rate>
													<duration>1113</duration>
													<timecode>
														<rate>
															<timebase>30</timebase>
															<ntsc>FALSE</ntsc>
														</rate>
														<string>00:00:00:00</string>
														<frame>0</frame>
														<displayformat>NDF</displayformat>
													</timecode>
													<media>
														<video>
															<samplecharacteristics>
																<rate>
																	<timebase>30</timebase>
																	<ntsc>FALSE</ntsc>
																</rate>
																<width>720</width>
																<height>720</height>
																<anamorphic>FALSE</anamorphic>
																<pixelaspectratio>square</pixelaspectratio>
																<fielddominance>none</fielddominance>
															</samplecharacteristics>
														</video>
														<audio>
															<samplecharacteristics>
																<depth>16</depth>
																<samplerate>44100</samplerate>
															</samplecharacteristics>
															<channelcount>1</channelcount>
															<audiochannel>
																<sourcechannel>1</sourcechannel>
															</audiochannel>
														</audio>
													</media>
												</file>
												<link>
													<linkclipref>clipitem-25</linkclipref>
													<mediatype>video</mediatype>
													<trackindex>1</trackindex>
													<clipindex>1</clipindex>
												</link>
												<link>
													<linkclipref>clipitem-26</linkclipref>
													<mediatype>audio</mediatype>
													<trackindex>1</trackindex>
													<clipindex>1</clipindex>
												</link>
											</clipitem>
										</track>
									</video>
									<audio>
										<track>
											<clipitem id="clipitem-26">
												<masterclipid>masterclip-19</masterclipid>
												<name>(krissharv3y)_BqqkGrNgh_0_IG.mp4</name>
												<rate>
													<timebase>30</timebase>
													<ntsc>FALSE</ntsc>
												</rate>
												<file id="file-19"/>
												<sourcetrack>
													<mediatype>audio</mediatype>
													<trackindex>1</trackindex>
												</sourcetrack>
												<link>
													<linkclipref>clipitem-25</linkclipref>
													<mediatype>video</mediatype>
													<trackindex>1</trackindex>
													<clipindex>1</clipindex>
												</link>
												<link>
													<linkclipref>clipitem-26</linkclipref>
													<mediatype>audio</mediatype>
													<trackindex>1</trackindex>
													<clipindex>1</clipindex>
												</link>
											</clipitem>
										</track>
									</audio>
								</media>
								<logginginfo>
									<description></description>
									<scene></scene>
									<shottake></shottake>
									<lognote></lognote>
									<good></good>
									<originalvideofilename></originalvideofilename>
									<originalaudiofilename></originalaudiofilename>
								</logginginfo>
								<colorinfo>
									<lut></lut>
									<lut1></lut1>
									<asc_sop></asc_sop>
									<asc_sat></asc_sat>
									<lut2></lut2>
								</colorinfo>
								<labels>
								</labels>
							</clip>
							<clip id="masterclip-20" explodedTracks="true">
								<uuid>34892f5a-2d6e-40ec-a0a4-b317632f6c6a</uuid>
								<masterclipid>masterclip-20</masterclipid>
								<ismasterclip>TRUE</ismasterclip>
								<duration>1083</duration>
								<rate>
									<timebase>30</timebase>
									<ntsc>FALSE</ntsc>
								</rate>
								<in>121</in>
								<out>554</out>
								<name>(krissharv3y)_Brqx9YTlmqX_IG.mp4</name>
								<media>
									<video>
										<track>
											<clipitem id="clipitem-27">
												<masterclipid>masterclip-20</masterclipid>
												<name>(krissharv3y)_Brqx9YTlmqX_IG.mp4</name>
												<rate>
													<timebase>30</timebase>
													<ntsc>FALSE</ntsc>
												</rate>
												<alphatype>none</alphatype>
												<pixelaspectratio>square</pixelaspectratio>
												<anamorphic>FALSE</anamorphic>
												<file id="file-20">
													<name>(krissharv3y)_Brqx9YTlmqX_IG.mp4</name>
													<pathurl>file://localhost/Volumes/ATM%201/EYE%20CANDY/8%3a21%3a23/3_Raw%20Files/conveyer%20belt/(krissharv3y)_Brqx9YTlmqX_IG.mp4</pathurl>
													<rate>
														<timebase>30</timebase>
														<ntsc>FALSE</ntsc>
													</rate>
													<duration>1083</duration>
													<timecode>
														<rate>
															<timebase>30</timebase>
															<ntsc>FALSE</ntsc>
														</rate>
														<string>00:00:00:00</string>
														<frame>0</frame>
														<displayformat>NDF</displayformat>
													</timecode>
													<media>
														<video>
															<samplecharacteristics>
																<rate>
																	<timebase>30</timebase>
																	<ntsc>FALSE</ntsc>
																</rate>
																<width>720</width>
																<height>720</height>
																<anamorphic>FALSE</anamorphic>
																<pixelaspectratio>square</pixelaspectratio>
																<fielddominance>none</fielddominance>
															</samplecharacteristics>
														</video>
														<audio>
															<samplecharacteristics>
																<depth>16</depth>
																<samplerate>44100</samplerate>
															</samplecharacteristics>
															<channelcount>1</channelcount>
															<audiochannel>
																<sourcechannel>1</sourcechannel>
															</audiochannel>
														</audio>
													</media>
												</file>
												<link>
													<linkclipref>clipitem-27</linkclipref>
													<mediatype>video</mediatype>
													<trackindex>1</trackindex>
													<clipindex>1</clipindex>
												</link>
												<link>
													<linkclipref>clipitem-28</linkclipref>
													<mediatype>audio</mediatype>
													<trackindex>1</trackindex>
													<clipindex>1</clipindex>
												</link>
											</clipitem>
										</track>
									</video>
									<audio>
										<track>
											<clipitem id="clipitem-28">
												<masterclipid>masterclip-20</masterclipid>
												<name>(krissharv3y)_Brqx9YTlmqX_IG.mp4</name>
												<rate>
													<timebase>30</timebase>
													<ntsc>FALSE</ntsc>
												</rate>
												<file id="file-20"/>
												<sourcetrack>
													<mediatype>audio</mediatype>
													<trackindex>1</trackindex>
												</sourcetrack>
												<link>
													<linkclipref>clipitem-27</linkclipref>
													<mediatype>video</mediatype>
													<trackindex>1</trackindex>
													<clipindex>1</clipindex>
												</link>
												<link>
													<linkclipref>clipitem-28</linkclipref>
													<mediatype>audio</mediatype>
													<trackindex>1</trackindex>
													<clipindex>1</clipindex>
												</link>
											</clipitem>
										</track>
									</audio>
								</media>
								<logginginfo>
									<description></description>
									<scene></scene>
									<shottake></shottake>
									<lognote></lognote>
									<good></good>
									<originalvideofilename></originalvideofilename>
									<originalaudiofilename></originalaudiofilename>
								</logginginfo>
								<colorinfo>
									<lut></lut>
									<lut1></lut1>
									<asc_sop></asc_sop>
									<asc_sat></asc_sat>
									<lut2></lut2>
								</colorinfo>
								<labels>
								</labels>
							</clip>
							<clip id="masterclip-21" explodedTracks="true">
								<uuid>8cfcf395-9524-4a49-84d7-bc817222f5b5</uuid>
								<masterclipid>masterclip-21</masterclipid>
								<ismasterclip>TRUE</ismasterclip>
								<duration>1708</duration>
								<rate>
									<timebase>30</timebase>
									<ntsc>FALSE</ntsc>
								</rate>
								<in>527</in>
								<out>752</out>
								<name>(krissharv3y)_BuepdmolEHP_IG.mp4</name>
								<media>
									<video>
										<track>
											<clipitem id="clipitem-29">
												<masterclipid>masterclip-21</masterclipid>
												<name>(krissharv3y)_BuepdmolEHP_IG.mp4</name>
												<rate>
													<timebase>30</timebase>
													<ntsc>FALSE</ntsc>
												</rate>
												<alphatype>none</alphatype>
												<pixelaspectratio>square</pixelaspectratio>
												<anamorphic>FALSE</anamorphic>
												<file id="file-21">
													<name>(krissharv3y)_BuepdmolEHP_IG.mp4</name>
													<pathurl>file://localhost/Volumes/ATM%201/EYE%20CANDY/8%3a21%3a23/3_Raw%20Files/conveyer%20belt/(krissharv3y)_BuepdmolEHP_IG.mp4</pathurl>
													<rate>
														<timebase>30</timebase>
														<ntsc>FALSE</ntsc>
													</rate>
													<duration>1708</duration>
													<timecode>
														<rate>
															<timebase>30</timebase>
															<ntsc>FALSE</ntsc>
														</rate>
														<string>00:00:00:00</string>
														<frame>0</frame>
														<displayformat>NDF</displayformat>
													</timecode>
													<media>
														<video>
															<samplecharacteristics>
																<rate>
																	<timebase>30</timebase>
																	<ntsc>FALSE</ntsc>
																</rate>
																<width>720</width>
																<height>720</height>
																<anamorphic>FALSE</anamorphic>
																<pixelaspectratio>square</pixelaspectratio>
																<fielddominance>none</fielddominance>
															</samplecharacteristics>
														</video>
														<audio>
															<samplecharacteristics>
																<depth>16</depth>
																<samplerate>44100</samplerate>
															</samplecharacteristics>
															<channelcount>1</channelcount>
															<audiochannel>
																<sourcechannel>1</sourcechannel>
															</audiochannel>
														</audio>
													</media>
												</file>
												<link>
													<linkclipref>clipitem-29</linkclipref>
													<mediatype>video</mediatype>
													<trackindex>1</trackindex>
													<clipindex>1</clipindex>
												</link>
												<link>
													<linkclipref>clipitem-30</linkclipref>
													<mediatype>audio</mediatype>
													<trackindex>1</trackindex>
													<clipindex>1</clipindex>
												</link>
											</clipitem>
										</track>
									</video>
									<audio>
										<track>
											<clipitem id="clipitem-30">
												<masterclipid>masterclip-21</masterclipid>
												<name>(krissharv3y)_BuepdmolEHP_IG.mp4</name>
												<rate>
													<timebase>30</timebase>
													<ntsc>FALSE</ntsc>
												</rate>
												<file id="file-21"/>
												<sourcetrack>
													<mediatype>audio</mediatype>
													<trackindex>1</trackindex>
												</sourcetrack>
												<link>
													<linkclipref>clipitem-29</linkclipref>
													<mediatype>video</mediatype>
													<trackindex>1</trackindex>
													<clipindex>1</clipindex>
												</link>
												<link>
													<linkclipref>clipitem-30</linkclipref>
													<mediatype>audio</mediatype>
													<trackindex>1</trackindex>
													<clipindex>1</clipindex>
												</link>
											</clipitem>
										</track>
									</audio>
								</media>
								<logginginfo>
									<description></description>
									<scene></scene>
									<shottake></shottake>
									<lognote></lognote>
									<good></good>
									<originalvideofilename></originalvideofilename>
									<originalaudiofilename></originalaudiofilename>
								</logginginfo>
								<colorinfo>
									<lut></lut>
									<lut1></lut1>
									<asc_sop></asc_sop>
									<asc_sat></asc_sat>
									<lut2></lut2>
								</colorinfo>
								<labels>
								</labels>
							</clip>
							<clip id="masterclip-22" explodedTracks="true">
								<uuid>f2c2f17f-1179-4187-b6bd-0a8c64d68546</uuid>
								<masterclipid>masterclip-22</masterclipid>
								<ismasterclip>TRUE</ismasterclip>
								<duration>1765</duration>
								<rate>
									<timebase>30</timebase>
									<ntsc>FALSE</ntsc>
								</rate>
								<in>1231</in>
								<out>1523</out>
								<name>(krissharv3y)_BwU9t6TF1kz_IG.mp4</name>
								<media>
									<video>
										<track>
											<clipitem id="clipitem-31">
												<masterclipid>masterclip-22</masterclipid>
												<name>(krissharv3y)_BwU9t6TF1kz_IG.mp4</name>
												<rate>
													<timebase>30</timebase>
													<ntsc>FALSE</ntsc>
												</rate>
												<alphatype>none</alphatype>
												<pixelaspectratio>square</pixelaspectratio>
												<anamorphic>FALSE</anamorphic>
												<file id="file-22">
													<name>(krissharv3y)_BwU9t6TF1kz_IG.mp4</name>
													<pathurl>file://localhost/Volumes/ATM%201/EYE%20CANDY/8%3a21%3a23/3_Raw%20Files/conveyer%20belt/(krissharv3y)_BwU9t6TF1kz_IG.mp4</pathurl>
													<rate>
														<timebase>30</timebase>
														<ntsc>FALSE</ntsc>
													</rate>
													<duration>1765</duration>
													<timecode>
														<rate>
															<timebase>30</timebase>
															<ntsc>FALSE</ntsc>
														</rate>
														<string>00:00:00:00</string>
														<frame>0</frame>
														<displayformat>NDF</displayformat>
													</timecode>
													<media>
														<video>
															<samplecharacteristics>
																<rate>
																	<timebase>30</timebase>
																	<ntsc>FALSE</ntsc>
																</rate>
																<width>720</width>
																<height>720</height>
																<anamorphic>FALSE</anamorphic>
																<pixelaspectratio>square</pixelaspectratio>
																<fielddominance>none</fielddominance>
															</samplecharacteristics>
														</video>
													</media>
												</file>
											</clipitem>
										</track>
									</video>
								</media>
								<logginginfo>
									<description></description>
									<scene></scene>
									<shottake></shottake>
									<lognote></lognote>
									<good></good>
									<originalvideofilename></originalvideofilename>
									<originalaudiofilename></originalaudiofilename>
								</logginginfo>
								<colorinfo>
									<lut></lut>
									<lut1></lut1>
									<asc_sop></asc_sop>
									<asc_sat></asc_sat>
									<lut2></lut2>
								</colorinfo>
								<labels>
								</labels>
							</clip>
						</children>
					</bin>
					<bin>
						<name>cookie monster</name>
						<children>
							<clip id="masterclip-23" explodedTracks="true">
								<uuid>47524ea7-499d-4d0c-a670-59cae4accad9</uuid>
								<masterclipid>masterclip-23</masterclipid>
								<ismasterclip>TRUE</ismasterclip>
								<duration>687</duration>
								<rate>
									<timebase>60</timebase>
									<ntsc>FALSE</ntsc>
								</rate>
								<in>643</in>
								<name>(milkytreatsicecream)_6781875890625285382_TT.mp4</name>
								<media>
									<video>
										<track>
											<clipitem id="clipitem-32">
												<masterclipid>masterclip-23</masterclipid>
												<name>(milkytreatsicecream)_6781875890625285382_TT.mp4</name>
												<rate>
													<timebase>60</timebase>
													<ntsc>FALSE</ntsc>
												</rate>
												<alphatype>none</alphatype>
												<pixelaspectratio>square</pixelaspectratio>
												<anamorphic>FALSE</anamorphic>
												<file id="file-23">
													<name>(milkytreatsicecream)_6781875890625285382_TT.mp4</name>
													<pathurl>file://localhost/Volumes/ATM%201/EYE%20CANDY/8%3a21%3a23/3_Raw%20Files/cookie%20monster/(milkytreatsicecream)_6781875890625285382_TT.mp4</pathurl>
													<rate>
														<timebase>60</timebase>
														<ntsc>FALSE</ntsc>
													</rate>
													<duration>687</duration>
													<timecode>
														<rate>
															<timebase>60</timebase>
															<ntsc>FALSE</ntsc>
														</rate>
														<string>00:00:00:00</string>
														<frame>0</frame>
														<displayformat>NDF</displayformat>
													</timecode>
													<media>
														<video>
															<samplecharacteristics>
																<rate>
																	<timebase>60</timebase>
																	<ntsc>FALSE</ntsc>
																</rate>
																<width>576</width>
																<height>1024</height>
																<anamorphic>FALSE</anamorphic>
																<pixelaspectratio>square</pixelaspectratio>
																<fielddominance>none</fielddominance>
															</samplecharacteristics>
														</video>
														<audio>
															<samplecharacteristics>
																<depth>16</depth>
																<samplerate>44100</samplerate>
															</samplecharacteristics>
															<channelcount>2</channelcount>
														</audio>
													</media>
												</file>
												<link>
													<linkclipref>clipitem-32</linkclipref>
													<mediatype>video</mediatype>
													<trackindex>1</trackindex>
													<clipindex>1</clipindex>
												</link>
												<link>
													<linkclipref>clipitem-33</linkclipref>
													<mediatype>audio</mediatype>
													<trackindex>1</trackindex>
													<clipindex>1</clipindex>
													<groupindex>1</groupindex>
												</link>
												<link>
													<linkclipref>clipitem-34</linkclipref>
													<mediatype>audio</mediatype>
													<trackindex>2</trackindex>
													<clipindex>1</clipindex>
													<groupindex>1</groupindex>
												</link>
											</clipitem>
										</track>
									</video>
									<audio>
										<track>
											<clipitem id="clipitem-33">
												<masterclipid>masterclip-23</masterclipid>
												<name>(milkytreatsicecream)_6781875890625285382_TT.mp4</name>
												<rate>
													<timebase>60</timebase>
													<ntsc>FALSE</ntsc>
												</rate>
												<file id="file-23"/>
												<sourcetrack>
													<mediatype>audio</mediatype>
													<trackindex>1</trackindex>
												</sourcetrack>
												<link>
													<linkclipref>clipitem-32</linkclipref>
													<mediatype>video</mediatype>
													<trackindex>1</trackindex>
													<clipindex>1</clipindex>
												</link>
												<link>
													<linkclipref>clipitem-33</linkclipref>
													<mediatype>audio</mediatype>
													<trackindex>1</trackindex>
													<clipindex>1</clipindex>
													<groupindex>1</groupindex>
												</link>
												<link>
													<linkclipref>clipitem-34</linkclipref>
													<mediatype>audio</mediatype>
													<trackindex>2</trackindex>
													<clipindex>1</clipindex>
													<groupindex>1</groupindex>
												</link>
											</clipitem>
										</track>
										<track>
											<clipitem id="clipitem-34">
												<masterclipid>masterclip-23</masterclipid>
												<name>(milkytreatsicecream)_6781875890625285382_TT.mp4</name>
												<rate>
													<timebase>60</timebase>
													<ntsc>FALSE</ntsc>
												</rate>
												<file id="file-23"/>
												<sourcetrack>
													<mediatype>audio</mediatype>
													<trackindex>2</trackindex>
												</sourcetrack>
												<link>
													<linkclipref>clipitem-32</linkclipref>
													<mediatype>video</mediatype>
													<trackindex>1</trackindex>
													<clipindex>1</clipindex>
												</link>
												<link>
													<linkclipref>clipitem-33</linkclipref>
													<mediatype>audio</mediatype>
													<trackindex>1</trackindex>
													<clipindex>1</clipindex>
													<groupindex>1</groupindex>
												</link>
												<link>
													<linkclipref>clipitem-34</linkclipref>
													<mediatype>audio</mediatype>
													<trackindex>2</trackindex>
													<clipindex>1</clipindex>
													<groupindex>1</groupindex>
												</link>
											</clipitem>
										</track>
									</audio>
								</media>
								<logginginfo>
									<description></description>
									<scene></scene>
									<shottake></shottake>
									<lognote></lognote>
									<good></good>
									<originalvideofilename></originalvideofilename>
									<originalaudiofilename></originalaudiofilename>
								</logginginfo>
								<colorinfo>
									<lut></lut>
									<lut1></lut1>
									<asc_sop></asc_sop>
									<asc_sat></asc_sat>
									<lut2></lut2>
								</colorinfo>
								<labels>
								</labels>
							</clip>
							<clip id="masterclip-24" explodedTracks="true">
								<uuid>3a0850cc-7b75-42e7-8ade-d53bbc2e0acc</uuid>
								<masterclipid>masterclip-24</masterclipid>
								<ismasterclip>TRUE</ismasterclip>
								<duration>601</duration>
								<rate>
									<timebase>30</timebase>
									<ntsc>FALSE</ntsc>
								</rate>
								<in>509</in>
								<out>538</out>
								<name>(milkytreatsicecream)_6798462382529187078_TT.mp4</name>
								<media>
									<video>
										<track>
											<clipitem id="clipitem-35">
												<masterclipid>masterclip-24</masterclipid>
												<name>(milkytreatsicecream)_6798462382529187078_TT.mp4</name>
												<rate>
													<timebase>30</timebase>
													<ntsc>FALSE</ntsc>
												</rate>
												<alphatype>none</alphatype>
												<pixelaspectratio>square</pixelaspectratio>
												<anamorphic>FALSE</anamorphic>
												<file id="file-24">
													<name>(milkytreatsicecream)_6798462382529187078_TT.mp4</name>
													<pathurl>file://localhost/Volumes/ATM%201/EYE%20CANDY/8%3a21%3a23/3_Raw%20Files/cookie%20monster/(milkytreatsicecream)_6798462382529187078_TT.mp4</pathurl>
													<rate>
														<timebase>30</timebase>
														<ntsc>FALSE</ntsc>
													</rate>
													<duration>601</duration>
													<timecode>
														<rate>
															<timebase>30</timebase>
															<ntsc>FALSE</ntsc>
														</rate>
														<string>00:00:00:00</string>
														<frame>0</frame>
														<displayformat>NDF</displayformat>
													</timecode>
													<media>
														<video>
															<samplecharacteristics>
																<rate>
																	<timebase>30</timebase>
																	<ntsc>FALSE</ntsc>
																</rate>
																<width>576</width>
																<height>1024</height>
																<anamorphic>FALSE</anamorphic>
																<pixelaspectratio>square</pixelaspectratio>
																<fielddominance>none</fielddominance>
															</samplecharacteristics>
														</video>
														<audio>
															<samplecharacteristics>
																<depth>16</depth>
																<samplerate>44100</samplerate>
															</samplecharacteristics>
															<channelcount>2</channelcount>
														</audio>
													</media>
												</file>
												<link>
													<linkclipref>clipitem-35</linkclipref>
													<mediatype>video</mediatype>
													<trackindex>1</trackindex>
													<clipindex>1</clipindex>
												</link>
												<link>
													<linkclipref>clipitem-36</linkclipref>
													<mediatype>audio</mediatype>
													<trackindex>1</trackindex>
													<clipindex>1</clipindex>
													<groupindex>1</groupindex>
												</link>
												<link>
													<linkclipref>clipitem-37</linkclipref>
													<mediatype>audio</mediatype>
													<trackindex>2</trackindex>
													<clipindex>1</clipindex>
													<groupindex>1</groupindex>
												</link>
											</clipitem>
										</track>
									</video>
									<audio>
										<track>
											<clipitem id="clipitem-36">
												<masterclipid>masterclip-24</masterclipid>
												<name>(milkytreatsicecream)_6798462382529187078_TT.mp4</name>
												<rate>
													<timebase>30</timebase>
													<ntsc>FALSE</ntsc>
												</rate>
												<file id="file-24"/>
												<sourcetrack>
													<mediatype>audio</mediatype>
													<trackindex>1</trackindex>
												</sourcetrack>
												<link>
													<linkclipref>clipitem-35</linkclipref>
													<mediatype>video</mediatype>
													<trackindex>1</trackindex>
													<clipindex>1</clipindex>
												</link>
												<link>
													<linkclipref>clipitem-36</linkclipref>
													<mediatype>audio</mediatype>
													<trackindex>1</trackindex>
													<clipindex>1</clipindex>
													<groupindex>1</groupindex>
												</link>
												<link>
													<linkclipref>clipitem-37</linkclipref>
													<mediatype>audio</mediatype>
													<trackindex>2</trackindex>
													<clipindex>1</clipindex>
													<groupindex>1</groupindex>
												</link>
											</clipitem>
										</track>
										<track>
											<clipitem id="clipitem-37">
												<masterclipid>masterclip-24</masterclipid>
												<name>(milkytreatsicecream)_6798462382529187078_TT.mp4</name>
												<rate>
													<timebase>30</timebase>
													<ntsc>FALSE</ntsc>
												</rate>
												<file id="file-24"/>
												<sourcetrack>
													<mediatype>audio</mediatype>
													<trackindex>2</trackindex>
												</sourcetrack>
												<link>
													<linkclipref>clipitem-35</linkclipref>
													<mediatype>video</mediatype>
													<trackindex>1</trackindex>
													<clipindex>1</clipindex>
												</link>
												<link>
													<linkclipref>clipitem-36</linkclipref>
													<mediatype>audio</mediatype>
													<trackindex>1</trackindex>
													<clipindex>1</clipindex>
													<groupindex>1</groupindex>
												</link>
												<link>
													<linkclipref>clipitem-37</linkclipref>
													<mediatype>audio</mediatype>
													<trackindex>2</trackindex>
													<clipindex>1</clipindex>
													<groupindex>1</groupindex>
												</link>
											</clipitem>
										</track>
									</audio>
								</media>
								<logginginfo>
									<description></description>
									<scene></scene>
									<shottake></shottake>
									<lognote></lognote>
									<good></good>
									<originalvideofilename></originalvideofilename>
									<originalaudiofilename></originalaudiofilename>
								</logginginfo>
								<colorinfo>
									<lut></lut>
									<lut1></lut1>
									<asc_sop></asc_sop>
									<asc_sat></asc_sat>
									<lut2></lut2>
								</colorinfo>
								<labels>
								</labels>
							</clip>
							<clip id="masterclip-25" explodedTracks="true">
								<uuid>01df3fc4-59e4-4743-b7dc-eaac92de9452</uuid>
								<masterclipid>masterclip-25</masterclipid>
								<ismasterclip>TRUE</ismasterclip>
								<duration>450</duration>
								<rate>
									<timebase>30</timebase>
									<ntsc>FALSE</ntsc>
								</rate>
								<name>(milkytreatsicecream)_6866908067045330181_TT.mp4</name>
								<media>
									<video>
										<track>
											<clipitem id="clipitem-38">
												<masterclipid>masterclip-25</masterclipid>
												<name>(milkytreatsicecream)_6866908067045330181_TT.mp4</name>
												<rate>
													<timebase>30</timebase>
													<ntsc>FALSE</ntsc>
												</rate>
												<alphatype>none</alphatype>
												<pixelaspectratio>square</pixelaspectratio>
												<anamorphic>FALSE</anamorphic>
												<file id="file-25">
													<name>(milkytreatsicecream)_6866908067045330181_TT.mp4</name>
													<pathurl>file://localhost/Volumes/ATM%201/EYE%20CANDY/8%3a21%3a23/3_Raw%20Files/cookie%20monster/(milkytreatsicecream)_6866908067045330181_TT.mp4</pathurl>
													<rate>
														<timebase>30</timebase>
														<ntsc>FALSE</ntsc>
													</rate>
													<duration>450</duration>
													<timecode>
														<rate>
															<timebase>30</timebase>
															<ntsc>FALSE</ntsc>
														</rate>
														<string>00:00:00:00</string>
														<frame>0</frame>
														<displayformat>NDF</displayformat>
													</timecode>
													<media>
														<video>
															<samplecharacteristics>
																<rate>
																	<timebase>30</timebase>
																	<ntsc>FALSE</ntsc>
																</rate>
																<width>576</width>
																<height>1024</height>
																<anamorphic>FALSE</anamorphic>
																<pixelaspectratio>square</pixelaspectratio>
																<fielddominance>none</fielddominance>
															</samplecharacteristics>
														</video>
														<audio>
															<samplecharacteristics>
																<depth>16</depth>
																<samplerate>44100</samplerate>
															</samplecharacteristics>
															<channelcount>2</channelcount>
														</audio>
													</media>
												</file>
												<link>
													<linkclipref>clipitem-38</linkclipref>
													<mediatype>video</mediatype>
													<trackindex>1</trackindex>
													<clipindex>1</clipindex>
												</link>
												<link>
													<linkclipref>clipitem-39</linkclipref>
													<mediatype>audio</mediatype>
													<trackindex>1</trackindex>
													<clipindex>1</clipindex>
													<groupindex>1</groupindex>
												</link>
												<link>
													<linkclipref>clipitem-40</linkclipref>
													<mediatype>audio</mediatype>
													<trackindex>2</trackindex>
													<clipindex>1</clipindex>
													<groupindex>1</groupindex>
												</link>
											</clipitem>
										</track>
									</video>
									<audio>
										<track>
											<clipitem id="clipitem-39">
												<masterclipid>masterclip-25</masterclipid>
												<name>(milkytreatsicecream)_6866908067045330181_TT.mp4</name>
												<rate>
													<timebase>30</timebase>
													<ntsc>FALSE</ntsc>
												</rate>
												<file id="file-25"/>
												<sourcetrack>
													<mediatype>audio</mediatype>
													<trackindex>1</trackindex>
												</sourcetrack>
												<link>
													<linkclipref>clipitem-38</linkclipref>
													<mediatype>video</mediatype>
													<trackindex>1</trackindex>
													<clipindex>1</clipindex>
												</link>
												<link>
													<linkclipref>clipitem-39</linkclipref>
													<mediatype>audio</mediatype>
													<trackindex>1</trackindex>
													<clipindex>1</clipindex>
													<groupindex>1</groupindex>
												</link>
												<link>
													<linkclipref>clipitem-40</linkclipref>
													<mediatype>audio</mediatype>
													<trackindex>2</trackindex>
													<clipindex>1</clipindex>
													<groupindex>1</groupindex>
												</link>
											</clipitem>
										</track>
										<track>
											<clipitem id="clipitem-40">
												<masterclipid>masterclip-25</masterclipid>
												<name>(milkytreatsicecream)_6866908067045330181_TT.mp4</name>
												<rate>
													<timebase>30</timebase>
													<ntsc>FALSE</ntsc>
												</rate>
												<file id="file-25"/>
												<sourcetrack>
													<mediatype>audio</mediatype>
													<trackindex>2</trackindex>
												</sourcetrack>
												<link>
													<linkclipref>clipitem-38</linkclipref>
													<mediatype>video</mediatype>
													<trackindex>1</trackindex>
													<clipindex>1</clipindex>
												</link>
												<link>
													<linkclipref>clipitem-39</linkclipref>
													<mediatype>audio</mediatype>
													<trackindex>1</trackindex>
													<clipindex>1</clipindex>
													<groupindex>1</groupindex>
												</link>
												<link>
													<linkclipref>clipitem-40</linkclipref>
													<mediatype>audio</mediatype>
													<trackindex>2</trackindex>
													<clipindex>1</clipindex>
													<groupindex>1</groupindex>
												</link>
											</clipitem>
										</track>
									</audio>
								</media>
								<logginginfo>
									<description></description>
									<scene></scene>
									<shottake></shottake>
									<lognote></lognote>
									<good></good>
									<originalvideofilename></originalvideofilename>
									<originalaudiofilename></originalaudiofilename>
								</logginginfo>
								<colorinfo>
									<lut></lut>
									<lut1></lut1>
									<asc_sop></asc_sop>
									<asc_sat></asc_sat>
									<lut2></lut2>
								</colorinfo>
								<labels>
								</labels>
							</clip>
							<clip id="masterclip-26" explodedTracks="true">
								<uuid>fc3ee3d2-be7e-46d2-93e9-26cee728dbe9</uuid>
								<masterclipid>masterclip-26</masterclipid>
								<ismasterclip>TRUE</ismasterclip>
								<duration>397</duration>
								<rate>
									<timebase>30</timebase>
									<ntsc>FALSE</ntsc>
								</rate>
								<out>86</out>
								<name>(thesugarhobby)_Cftm0nSAHR__IG.mp4</name>
								<media>
									<video>
										<track>
											<clipitem id="clipitem-41">
												<masterclipid>masterclip-26</masterclipid>
												<name>(thesugarhobby)_Cftm0nSAHR__IG.mp4</name>
												<rate>
													<timebase>30</timebase>
													<ntsc>FALSE</ntsc>
												</rate>
												<alphatype>none</alphatype>
												<pixelaspectratio>square</pixelaspectratio>
												<anamorphic>FALSE</anamorphic>
												<file id="file-26">
													<name>(thesugarhobby)_Cftm0nSAHR__IG.mp4</name>
													<pathurl>file://localhost/Volumes/ATM%201/EYE%20CANDY/8%3a21%3a23/3_Raw%20Files/cookie%20monster/(thesugarhobby)_Cftm0nSAHR__IG.mp4</pathurl>
													<rate>
														<timebase>30</timebase>
														<ntsc>FALSE</ntsc>
													</rate>
													<duration>397</duration>
													<timecode>
														<rate>
															<timebase>30</timebase>
															<ntsc>FALSE</ntsc>
														</rate>
														<string>00:00:00:00</string>
														<frame>0</frame>
														<displayformat>NDF</displayformat>
													</timecode>
													<media>
														<video>
															<samplecharacteristics>
																<rate>
																	<timebase>30</timebase>
																	<ntsc>FALSE</ntsc>
																</rate>
																<width>720</width>
																<height>1280</height>
																<anamorphic>FALSE</anamorphic>
																<pixelaspectratio>square</pixelaspectratio>
																<fielddominance>none</fielddominance>
															</samplecharacteristics>
														</video>
														<audio>
															<samplecharacteristics>
																<depth>16</depth>
																<samplerate>44100</samplerate>
															</samplecharacteristics>
															<channelcount>2</channelcount>
														</audio>
													</media>
												</file>
												<link>
													<linkclipref>clipitem-41</linkclipref>
													<mediatype>video</mediatype>
													<trackindex>1</trackindex>
													<clipindex>1</clipindex>
												</link>
												<link>
													<linkclipref>clipitem-42</linkclipref>
													<mediatype>audio</mediatype>
													<trackindex>1</trackindex>
													<clipindex>1</clipindex>
													<groupindex>1</groupindex>
												</link>
												<link>
													<linkclipref>clipitem-43</linkclipref>
													<mediatype>audio</mediatype>
													<trackindex>2</trackindex>
													<clipindex>1</clipindex>
													<groupindex>1</groupindex>
												</link>
											</clipitem>
										</track>
									</video>
									<audio>
										<track>
											<clipitem id="clipitem-42">
												<masterclipid>masterclip-26</masterclipid>
												<name>(thesugarhobby)_Cftm0nSAHR__IG.mp4</name>
												<rate>
													<timebase>30</timebase>
													<ntsc>FALSE</ntsc>
												</rate>
												<file id="file-26"/>
												<sourcetrack>
													<mediatype>audio</mediatype>
													<trackindex>1</trackindex>
												</sourcetrack>
												<link>
													<linkclipref>clipitem-41</linkclipref>
													<mediatype>video</mediatype>
													<trackindex>1</trackindex>
													<clipindex>1</clipindex>
												</link>
												<link>
													<linkclipref>clipitem-42</linkclipref>
													<mediatype>audio</mediatype>
													<trackindex>1</trackindex>
													<clipindex>1</clipindex>
													<groupindex>1</groupindex>
												</link>
												<link>
													<linkclipref>clipitem-43</linkclipref>
													<mediatype>audio</mediatype>
													<trackindex>2</trackindex>
													<clipindex>1</clipindex>
													<groupindex>1</groupindex>
												</link>
											</clipitem>
										</track>
										<track>
											<clipitem id="clipitem-43">
												<masterclipid>masterclip-26</masterclipid>
												<name>(thesugarhobby)_Cftm0nSAHR__IG.mp4</name>
												<rate>
													<timebase>30</timebase>
													<ntsc>FALSE</ntsc>
												</rate>
												<file id="file-26"/>
												<sourcetrack>
													<mediatype>audio</mediatype>
													<trackindex>2</trackindex>
												</sourcetrack>
												<link>
													<linkclipref>clipitem-41</linkclipref>
													<mediatype>video</mediatype>
													<trackindex>1</trackindex>
													<clipindex>1</clipindex>
												</link>
												<link>
													<linkclipref>clipitem-42</linkclipref>
													<mediatype>audio</mediatype>
													<trackindex>1</trackindex>
													<clipindex>1</clipindex>
													<groupindex>1</groupindex>
												</link>
												<link>
													<linkclipref>clipitem-43</linkclipref>
													<mediatype>audio</mediatype>
													<trackindex>2</trackindex>
													<clipindex>1</clipindex>
													<groupindex>1</groupindex>
												</link>
											</clipitem>
										</track>
									</audio>
								</media>
								<logginginfo>
									<description></description>
									<scene></scene>
									<shottake></shottake>
									<lognote></lognote>
									<good></good>
									<originalvideofilename></originalvideofilename>
									<originalaudiofilename></originalaudiofilename>
								</logginginfo>
								<colorinfo>
									<lut></lut>
									<lut1></lut1>
									<asc_sop></asc_sop>
									<asc_sat></asc_sat>
									<lut2></lut2>
								</colorinfo>
								<labels>
								</labels>
							</clip>
							<clip id="masterclip-27" explodedTracks="true">
								<uuid>4288e9b6-c72d-4056-a451-b82f07c0b9c2</uuid>
								<masterclipid>masterclip-27</masterclipid>
								<ismasterclip>TRUE</ismasterclip>
								<duration>398</duration>
								<rate>
									<timebase>30</timebase>
									<ntsc>FALSE</ntsc>
								</rate>
								<in>60</in>
								<name>(thesugarhobby)_CsQ1pRaAQt__IG.mp4</name>
								<media>
									<video>
										<track>
											<clipitem id="clipitem-44">
												<masterclipid>masterclip-27</masterclipid>
												<name>(thesugarhobby)_CsQ1pRaAQt__IG.mp4</name>
												<rate>
													<timebase>30</timebase>
													<ntsc>FALSE</ntsc>
												</rate>
												<alphatype>none</alphatype>
												<pixelaspectratio>square</pixelaspectratio>
												<anamorphic>FALSE</anamorphic>
												<file id="file-27">
													<name>(thesugarhobby)_CsQ1pRaAQt__IG.mp4</name>
													<pathurl>file://localhost/Volumes/ATM%201/EYE%20CANDY/8%3a21%3a23/3_Raw%20Files/cookie%20monster/(thesugarhobby)_CsQ1pRaAQt__IG.mp4</pathurl>
													<rate>
														<timebase>30</timebase>
														<ntsc>FALSE</ntsc>
													</rate>
													<duration>398</duration>
													<timecode>
														<rate>
															<timebase>30</timebase>
															<ntsc>FALSE</ntsc>
														</rate>
														<string>00:00:00:00</string>
														<frame>0</frame>
														<displayformat>NDF</displayformat>
													</timecode>
													<media>
														<video>
															<samplecharacteristics>
																<rate>
																	<timebase>30</timebase>
																	<ntsc>FALSE</ntsc>
																</rate>
																<width>1080</width>
																<height>1920</height>
																<anamorphic>FALSE</anamorphic>
																<pixelaspectratio>square</pixelaspectratio>
																<fielddominance>none</fielddominance>
															</samplecharacteristics>
														</video>
														<audio>
															<samplecharacteristics>
																<depth>16</depth>
																<samplerate>44100</samplerate>
															</samplecharacteristics>
															<channelcount>2</channelcount>
														</audio>
													</media>
												</file>
												<link>
													<linkclipref>clipitem-44</linkclipref>
													<mediatype>video</mediatype>
													<trackindex>1</trackindex>
													<clipindex>1</clipindex>
												</link>
												<link>
													<linkclipref>clipitem-45</linkclipref>
													<mediatype>audio</mediatype>
													<trackindex>1</trackindex>
													<clipindex>1</clipindex>
													<groupindex>1</groupindex>
												</link>
												<link>
													<linkclipref>clipitem-46</linkclipref>
													<mediatype>audio</mediatype>
													<trackindex>2</trackindex>
													<clipindex>1</clipindex>
													<groupindex>1</groupindex>
												</link>
											</clipitem>
										</track>
									</video>
									<audio>
										<track>
											<clipitem id="clipitem-45">
												<masterclipid>masterclip-27</masterclipid>
												<name>(thesugarhobby)_CsQ1pRaAQt__IG.mp4</name>
												<rate>
													<timebase>30</timebase>
													<ntsc>FALSE</ntsc>
												</rate>
												<file id="file-27"/>
												<sourcetrack>
													<mediatype>audio</mediatype>
													<trackindex>1</trackindex>
												</sourcetrack>
												<link>
													<linkclipref>clipitem-44</linkclipref>
													<mediatype>video</mediatype>
													<trackindex>1</trackindex>
													<clipindex>1</clipindex>
												</link>
												<link>
													<linkclipref>clipitem-45</linkclipref>
													<mediatype>audio</mediatype>
													<trackindex>1</trackindex>
													<clipindex>1</clipindex>
													<groupindex>1</groupindex>
												</link>
												<link>
													<linkclipref>clipitem-46</linkclipref>
													<mediatype>audio</mediatype>
													<trackindex>2</trackindex>
													<clipindex>1</clipindex>
													<groupindex>1</groupindex>
												</link>
											</clipitem>
										</track>
										<track>
											<clipitem id="clipitem-46">
												<masterclipid>masterclip-27</masterclipid>
												<name>(thesugarhobby)_CsQ1pRaAQt__IG.mp4</name>
												<rate>
													<timebase>30</timebase>
													<ntsc>FALSE</ntsc>
												</rate>
												<file id="file-27"/>
												<sourcetrack>
													<mediatype>audio</mediatype>
													<trackindex>2</trackindex>
												</sourcetrack>
												<link>
													<linkclipref>clipitem-44</linkclipref>
													<mediatype>video</mediatype>
													<trackindex>1</trackindex>
													<clipindex>1</clipindex>
												</link>
												<link>
													<linkclipref>clipitem-45</linkclipref>
													<mediatype>audio</mediatype>
													<trackindex>1</trackindex>
													<clipindex>1</clipindex>
													<groupindex>1</groupindex>
												</link>
												<link>
													<linkclipref>clipitem-46</linkclipref>
													<mediatype>audio</mediatype>
													<trackindex>2</trackindex>
													<clipindex>1</clipindex>
													<groupindex>1</groupindex>
												</link>
											</clipitem>
										</track>
									</audio>
								</media>
								<logginginfo>
									<description></description>
									<scene></scene>
									<shottake></shottake>
									<lognote></lognote>
									<good></good>
									<originalvideofilename></originalvideofilename>
									<originalaudiofilename></originalaudiofilename>
								</logginginfo>
								<colorinfo>
									<lut></lut>
									<lut1></lut1>
									<asc_sop></asc_sop>
									<asc_sat></asc_sat>
									<lut2></lut2>
								</colorinfo>
								<labels>
								</labels>
							</clip>
						</children>
					</bin>
					<bin>
						<name>apples</name>
						<children>
							<clip id="masterclip-28" explodedTracks="true">
								<uuid>47faf7c1-f7c1-4e46-8108-01d8bee14be3</uuid>
								<masterclipid>masterclip-28</masterclipid>
								<ismasterclip>TRUE</ismasterclip>
								<duration>449</duration>
								<rate>
									<timebase>29</timebase>
									<ntsc>FALSE</ntsc>
								</rate>
								<name>(AL DANTE)_15 Second Easy Yummy Apple Buns_r-VzsJBaMBU_YT.mp4</name>
								<media>
									<video>
										<track>
											<clipitem id="clipitem-47">
												<masterclipid>masterclip-28</masterclipid>
												<name>(AL DANTE)_15 Second Easy Yummy Apple Buns_r-VzsJBaMBU_YT.mp4</name>
												<rate>
													<timebase>29</timebase>
													<ntsc>FALSE</ntsc>
												</rate>
												<alphatype>none</alphatype>
												<pixelaspectratio>square</pixelaspectratio>
												<anamorphic>FALSE</anamorphic>
												<file id="file-28">
													<name>(AL DANTE)_15 Second Easy Yummy Apple Buns_r-VzsJBaMBU_YT.mp4</name>
													<pathurl>file://localhost/Volumes/ATM%201/EYE%20CANDY/8%3a21%3a23/3_Raw%20Files/apples/(AL%20DANTE)_15%20Second%20Easy%20Yummy%20Apple%20Buns_r-VzsJBaMBU_YT.mp4</pathurl>
													<rate>
														<timebase>29</timebase>
														<ntsc>FALSE</ntsc>
													</rate>
													<duration>449</duration>
													<timecode>
														<rate>
															<timebase>29</timebase>
															<ntsc>FALSE</ntsc>
														</rate>
														<string>00:00:00:00</string>
														<frame>0</frame>
														<displayformat>NDF</displayformat>
													</timecode>
													<media>
														<video>
															<samplecharacteristics>
																<rate>
																	<timebase>29</timebase>
																	<ntsc>FALSE</ntsc>
																</rate>
																<width>720</width>
																<height>1280</height>
																<anamorphic>FALSE</anamorphic>
																<pixelaspectratio>square</pixelaspectratio>
																<fielddominance>none</fielddominance>
															</samplecharacteristics>
														</video>
														<audio>
															<samplecharacteristics>
																<depth>16</depth>
																<samplerate>44100</samplerate>
															</samplecharacteristics>
															<channelcount>2</channelcount>
														</audio>
													</media>
												</file>
												<link>
													<linkclipref>clipitem-47</linkclipref>
													<mediatype>video</mediatype>
													<trackindex>1</trackindex>
													<clipindex>1</clipindex>
												</link>
												<link>
													<linkclipref>clipitem-48</linkclipref>
													<mediatype>audio</mediatype>
													<trackindex>1</trackindex>
													<clipindex>1</clipindex>
													<groupindex>1</groupindex>
												</link>
												<link>
													<linkclipref>clipitem-49</linkclipref>
													<mediatype>audio</mediatype>
													<trackindex>2</trackindex>
													<clipindex>1</clipindex>
													<groupindex>1</groupindex>
												</link>
											</clipitem>
										</track>
									</video>
									<audio>
										<track>
											<clipitem id="clipitem-48">
												<masterclipid>masterclip-28</masterclipid>
												<name>(AL DANTE)_15 Second Easy Yummy Apple Buns_r-VzsJBaMBU_YT.mp4</name>
												<rate>
													<timebase>29</timebase>
													<ntsc>FALSE</ntsc>
												</rate>
												<file id="file-28"/>
												<sourcetrack>
													<mediatype>audio</mediatype>
													<trackindex>1</trackindex>
												</sourcetrack>
												<link>
													<linkclipref>clipitem-47</linkclipref>
													<mediatype>video</mediatype>
													<trackindex>1</trackindex>
													<clipindex>1</clipindex>
												</link>
												<link>
													<linkclipref>clipitem-48</linkclipref>
													<mediatype>audio</mediatype>
													<trackindex>1</trackindex>
													<clipindex>1</clipindex>
													<groupindex>1</groupindex>
												</link>
												<link>
													<linkclipref>clipitem-49</linkclipref>
													<mediatype>audio</mediatype>
													<trackindex>2</trackindex>
													<clipindex>1</clipindex>
													<groupindex>1</groupindex>
												</link>
											</clipitem>
										</track>
										<track>
											<clipitem id="clipitem-49">
												<masterclipid>masterclip-28</masterclipid>
												<name>(AL DANTE)_15 Second Easy Yummy Apple Buns_r-VzsJBaMBU_YT.mp4</name>
												<rate>
													<timebase>29</timebase>
													<ntsc>FALSE</ntsc>
												</rate>
												<file id="file-28"/>
												<sourcetrack>
													<mediatype>audio</mediatype>
													<trackindex>2</trackindex>
												</sourcetrack>
												<link>
													<linkclipref>clipitem-47</linkclipref>
													<mediatype>video</mediatype>
													<trackindex>1</trackindex>
													<clipindex>1</clipindex>
												</link>
												<link>
													<linkclipref>clipitem-48</linkclipref>
													<mediatype>audio</mediatype>
													<trackindex>1</trackindex>
													<clipindex>1</clipindex>
													<groupindex>1</groupindex>
												</link>
												<link>
													<linkclipref>clipitem-49</linkclipref>
													<mediatype>audio</mediatype>
													<trackindex>2</trackindex>
													<clipindex>1</clipindex>
													<groupindex>1</groupindex>
												</link>
											</clipitem>
										</track>
									</audio>
								</media>
								<logginginfo>
									<description></description>
									<scene></scene>
									<shottake></shottake>
									<lognote></lognote>
									<good></good>
									<originalvideofilename></originalvideofilename>
									<originalaudiofilename></originalaudiofilename>
								</logginginfo>
								<colorinfo>
									<lut></lut>
									<lut1></lut1>
									<asc_sop></asc_sop>
									<asc_sat></asc_sat>
									<lut2></lut2>
								</colorinfo>
								<labels>
								</labels>
							</clip>
							<clip id="masterclip-29" explodedTracks="true">
								<uuid>c8a2608c-a97c-42b5-a35a-2ee8a3c3801b</uuid>
								<masterclipid>masterclip-29</masterclipid>
								<ismasterclip>TRUE</ismasterclip>
								<duration>835</duration>
								<rate>
									<timebase>30</timebase>
									<ntsc>FALSE</ntsc>
								</rate>
								<name>(candidtreatofficial)_CVFb7KbAfjj_IG.mp4</name>
								<media>
									<video>
										<track>
											<clipitem id="clipitem-50">
												<masterclipid>masterclip-29</masterclipid>
												<name>(candidtreatofficial)_CVFb7KbAfjj_IG.mp4</name>
												<rate>
													<timebase>30</timebase>
													<ntsc>FALSE</ntsc>
												</rate>
												<alphatype>none</alphatype>
												<pixelaspectratio>square</pixelaspectratio>
												<anamorphic>FALSE</anamorphic>
												<file id="file-29">
													<name>(candidtreatofficial)_CVFb7KbAfjj_IG.mp4</name>
													<pathurl>file://localhost/Volumes/ATM%201/EYE%20CANDY/8%3a21%3a23/3_Raw%20Files/apples/(candidtreatofficial)_CVFb7KbAfjj_IG.mp4</pathurl>
													<rate>
														<timebase>30</timebase>
														<ntsc>FALSE</ntsc>
													</rate>
													<duration>835</duration>
													<timecode>
														<rate>
															<timebase>30</timebase>
															<ntsc>FALSE</ntsc>
														</rate>
														<string>00:00:00:00</string>
														<frame>0</frame>
														<displayformat>NDF</displayformat>
													</timecode>
													<media>
														<video>
															<samplecharacteristics>
																<rate>
																	<timebase>30</timebase>
																	<ntsc>FALSE</ntsc>
																</rate>
																<width>720</width>
																<height>1280</height>
																<anamorphic>FALSE</anamorphic>
																<pixelaspectratio>square</pixelaspectratio>
																<fielddominance>none</fielddominance>
															</samplecharacteristics>
														</video>
														<audio>
															<samplecharacteristics>
																<depth>16</depth>
																<samplerate>48000</samplerate>
															</samplecharacteristics>
															<channelcount>2</channelcount>
														</audio>
													</media>
												</file>
												<link>
													<linkclipref>clipitem-50</linkclipref>
													<mediatype>video</mediatype>
													<trackindex>1</trackindex>
													<clipindex>1</clipindex>
												</link>
												<link>
													<linkclipref>clipitem-51</linkclipref>
													<mediatype>audio</mediatype>
													<trackindex>1</trackindex>
													<clipindex>1</clipindex>
													<groupindex>1</groupindex>
												</link>
												<link>
													<linkclipref>clipitem-52</linkclipref>
													<mediatype>audio</mediatype>
													<trackindex>2</trackindex>
													<clipindex>1</clipindex>
													<groupindex>1</groupindex>
												</link>
											</clipitem>
										</track>
									</video>
									<audio>
										<track>
											<clipitem id="clipitem-51">
												<masterclipid>masterclip-29</masterclipid>
												<name>(candidtreatofficial)_CVFb7KbAfjj_IG.mp4</name>
												<rate>
													<timebase>30</timebase>
													<ntsc>FALSE</ntsc>
												</rate>
												<file id="file-29"/>
												<sourcetrack>
													<mediatype>audio</mediatype>
													<trackindex>1</trackindex>
												</sourcetrack>
												<link>
													<linkclipref>clipitem-50</linkclipref>
													<mediatype>video</mediatype>
													<trackindex>1</trackindex>
													<clipindex>1</clipindex>
												</link>
												<link>
													<linkclipref>clipitem-51</linkclipref>
													<mediatype>audio</mediatype>
													<trackindex>1</trackindex>
													<clipindex>1</clipindex>
													<groupindex>1</groupindex>
												</link>
												<link>
													<linkclipref>clipitem-52</linkclipref>
													<mediatype>audio</mediatype>
													<trackindex>2</trackindex>
													<clipindex>1</clipindex>
													<groupindex>1</groupindex>
												</link>
											</clipitem>
										</track>
										<track>
											<clipitem id="clipitem-52">
												<masterclipid>masterclip-29</masterclipid>
												<name>(candidtreatofficial)_CVFb7KbAfjj_IG.mp4</name>
												<rate>
													<timebase>30</timebase>
													<ntsc>FALSE</ntsc>
												</rate>
												<file id="file-29"/>
												<sourcetrack>
													<mediatype>audio</mediatype>
													<trackindex>2</trackindex>
												</sourcetrack>
												<link>
													<linkclipref>clipitem-50</linkclipref>
													<mediatype>video</mediatype>
													<trackindex>1</trackindex>
													<clipindex>1</clipindex>
												</link>
												<link>
													<linkclipref>clipitem-51</linkclipref>
													<mediatype>audio</mediatype>
													<trackindex>1</trackindex>
													<clipindex>1</clipindex>
													<groupindex>1</groupindex>
												</link>
												<link>
													<linkclipref>clipitem-52</linkclipref>
													<mediatype>audio</mediatype>
													<trackindex>2</trackindex>
													<clipindex>1</clipindex>
													<groupindex>1</groupindex>
												</link>
											</clipitem>
										</track>
									</audio>
								</media>
								<logginginfo>
									<description></description>
									<scene></scene>
									<shottake></shottake>
									<lognote></lognote>
									<good></good>
									<originalvideofilename></originalvideofilename>
									<originalaudiofilename></originalaudiofilename>
								</logginginfo>
								<colorinfo>
									<lut></lut>
									<lut1></lut1>
									<asc_sop></asc_sop>
									<asc_sat></asc_sat>
									<lut2></lut2>
								</colorinfo>
								<labels>
								</labels>
							</clip>
							<clip id="masterclip-30" explodedTracks="true">
								<uuid>b0293989-4787-4391-a3f8-bccf9076d5be</uuid>
								<masterclipid>masterclip-30</masterclipid>
								<ismasterclip>TRUE</ismasterclip>
								<duration>532</duration>
								<rate>
									<timebase>30</timebase>
									<ntsc>FALSE</ntsc>
								</rate>
								<name>(join_jules)_CWOl_19DqZg_IG.mp4</name>
								<media>
									<video>
										<track>
											<clipitem id="clipitem-53">
												<masterclipid>masterclip-30</masterclipid>
												<name>(join_jules)_CWOl_19DqZg_IG.mp4</name>
												<rate>
													<timebase>30</timebase>
													<ntsc>FALSE</ntsc>
												</rate>
												<alphatype>none</alphatype>
												<pixelaspectratio>square</pixelaspectratio>
												<anamorphic>FALSE</anamorphic>
												<file id="file-30">
													<name>(join_jules)_CWOl_19DqZg_IG.mp4</name>
													<pathurl>file://localhost/Volumes/ATM%201/EYE%20CANDY/8%3a21%3a23/3_Raw%20Files/apples/(join_jules)_CWOl_19DqZg_IG.mp4</pathurl>
													<rate>
														<timebase>30</timebase>
														<ntsc>FALSE</ntsc>
													</rate>
													<duration>532</duration>
													<timecode>
														<rate>
															<timebase>30</timebase>
															<ntsc>FALSE</ntsc>
														</rate>
														<string>00:00:00:00</string>
														<frame>0</frame>
														<displayformat>NDF</displayformat>
													</timecode>
													<media>
														<video>
															<samplecharacteristics>
																<rate>
																	<timebase>30</timebase>
																	<ntsc>FALSE</ntsc>
																</rate>
																<width>720</width>
																<height>1280</height>
																<anamorphic>FALSE</anamorphic>
																<pixelaspectratio>square</pixelaspectratio>
																<fielddominance>none</fielddominance>
															</samplecharacteristics>
														</video>
														<audio>
															<samplecharacteristics>
																<depth>16</depth>
																<samplerate>44100</samplerate>
															</samplecharacteristics>
															<channelcount>2</channelcount>
														</audio>
													</media>
												</file>
												<link>
													<linkclipref>clipitem-53</linkclipref>
													<mediatype>video</mediatype>
													<trackindex>1</trackindex>
													<clipindex>1</clipindex>
												</link>
												<link>
													<linkclipref>clipitem-54</linkclipref>
													<mediatype>audio</mediatype>
													<trackindex>1</trackindex>
													<clipindex>1</clipindex>
													<groupindex>1</groupindex>
												</link>
												<link>
													<linkclipref>clipitem-55</linkclipref>
													<mediatype>audio</mediatype>
													<trackindex>2</trackindex>
													<clipindex>1</clipindex>
													<groupindex>1</groupindex>
												</link>
											</clipitem>
										</track>
									</video>
									<audio>
										<track>
											<clipitem id="clipitem-54">
												<masterclipid>masterclip-30</masterclipid>
												<name>(join_jules)_CWOl_19DqZg_IG.mp4</name>
												<rate>
													<timebase>30</timebase>
													<ntsc>FALSE</ntsc>
												</rate>
												<file id="file-30"/>
												<sourcetrack>
													<mediatype>audio</mediatype>
													<trackindex>1</trackindex>
												</sourcetrack>
												<link>
													<linkclipref>clipitem-53</linkclipref>
													<mediatype>video</mediatype>
													<trackindex>1</trackindex>
													<clipindex>1</clipindex>
												</link>
												<link>
													<linkclipref>clipitem-54</linkclipref>
													<mediatype>audio</mediatype>
													<trackindex>1</trackindex>
													<clipindex>1</clipindex>
													<groupindex>1</groupindex>
												</link>
												<link>
													<linkclipref>clipitem-55</linkclipref>
													<mediatype>audio</mediatype>
													<trackindex>2</trackindex>
													<clipindex>1</clipindex>
													<groupindex>1</groupindex>
												</link>
											</clipitem>
										</track>
										<track>
											<clipitem id="clipitem-55">
												<masterclipid>masterclip-30</masterclipid>
												<name>(join_jules)_CWOl_19DqZg_IG.mp4</name>
												<rate>
													<timebase>30</timebase>
													<ntsc>FALSE</ntsc>
												</rate>
												<file id="file-30"/>
												<sourcetrack>
													<mediatype>audio</mediatype>
													<trackindex>2</trackindex>
												</sourcetrack>
												<link>
													<linkclipref>clipitem-53</linkclipref>
													<mediatype>video</mediatype>
													<trackindex>1</trackindex>
													<clipindex>1</clipindex>
												</link>
												<link>
													<linkclipref>clipitem-54</linkclipref>
													<mediatype>audio</mediatype>
													<trackindex>1</trackindex>
													<clipindex>1</clipindex>
													<groupindex>1</groupindex>
												</link>
												<link>
													<linkclipref>clipitem-55</linkclipref>
													<mediatype>audio</mediatype>
													<trackindex>2</trackindex>
													<clipindex>1</clipindex>
													<groupindex>1</groupindex>
												</link>
											</clipitem>
										</track>
									</audio>
								</media>
								<logginginfo>
									<description></description>
									<scene></scene>
									<shottake></shottake>
									<lognote></lognote>
									<good></good>
									<originalvideofilename></originalvideofilename>
									<originalaudiofilename></originalaudiofilename>
								</logginginfo>
								<colorinfo>
									<lut></lut>
									<lut1></lut1>
									<asc_sop></asc_sop>
									<asc_sat></asc_sat>
									<lut2></lut2>
								</colorinfo>
								<labels>
								</labels>
							</clip>
							<clip id="masterclip-31" explodedTracks="true">
								<uuid>f40d7f75-8a94-42e9-8738-41615e38d0c5</uuid>
								<masterclipid>masterclip-31</masterclipid>
								<ismasterclip>TRUE</ismasterclip>
								<duration>1270</duration>
								<rate>
									<timebase>30</timebase>
									<ntsc>FALSE</ntsc>
								</rate>
								<name>(sophiabakessometimes)_7099649825385221382_TT.mp4</name>
								<media>
									<video>
										<track>
											<clipitem id="clipitem-56">
												<masterclipid>masterclip-31</masterclipid>
												<name>(sophiabakessometimes)_7099649825385221382_TT.mp4</name>
												<rate>
													<timebase>30</timebase>
													<ntsc>FALSE</ntsc>
												</rate>
												<alphatype>none</alphatype>
												<pixelaspectratio>square</pixelaspectratio>
												<anamorphic>FALSE</anamorphic>
												<file id="file-31">
													<name>(sophiabakessometimes)_7099649825385221382_TT.mp4</name>
													<pathurl>file://localhost/Volumes/ATM%201/EYE%20CANDY/8%3a21%3a23/3_Raw%20Files/apples/(sophiabakessometimes)_7099649825385221382_TT.mp4</pathurl>
													<rate>
														<timebase>30</timebase>
														<ntsc>FALSE</ntsc>
													</rate>
													<duration>1270</duration>
													<timecode>
														<rate>
															<timebase>30</timebase>
															<ntsc>FALSE</ntsc>
														</rate>
														<string>00:00:00:00</string>
														<frame>0</frame>
														<displayformat>NDF</displayformat>
													</timecode>
													<media>
														<video>
															<samplecharacteristics>
																<rate>
																	<timebase>30</timebase>
																	<ntsc>FALSE</ntsc>
																</rate>
																<width>576</width>
																<height>1024</height>
																<anamorphic>FALSE</anamorphic>
																<pixelaspectratio>square</pixelaspectratio>
																<fielddominance>none</fielddominance>
															</samplecharacteristics>
														</video>
														<audio>
															<samplecharacteristics>
																<depth>16</depth>
																<samplerate>44100</samplerate>
															</samplecharacteristics>
															<channelcount>2</channelcount>
														</audio>
													</media>
												</file>
												<link>
													<linkclipref>clipitem-56</linkclipref>
													<mediatype>video</mediatype>
													<trackindex>1</trackindex>
													<clipindex>1</clipindex>
												</link>
												<link>
													<linkclipref>clipitem-57</linkclipref>
													<mediatype>audio</mediatype>
													<trackindex>1</trackindex>
													<clipindex>1</clipindex>
													<groupindex>1</groupindex>
												</link>
												<link>
													<linkclipref>clipitem-58</linkclipref>
													<mediatype>audio</mediatype>
													<trackindex>2</trackindex>
													<clipindex>1</clipindex>
													<groupindex>1</groupindex>
												</link>
											</clipitem>
										</track>
									</video>
									<audio>
										<track>
											<clipitem id="clipitem-57">
												<masterclipid>masterclip-31</masterclipid>
												<name>(sophiabakessometimes)_7099649825385221382_TT.mp4</name>
												<rate>
													<timebase>30</timebase>
													<ntsc>FALSE</ntsc>
												</rate>
												<file id="file-31"/>
												<sourcetrack>
													<mediatype>audio</mediatype>
													<trackindex>1</trackindex>
												</sourcetrack>
												<link>
													<linkclipref>clipitem-56</linkclipref>
													<mediatype>video</mediatype>
													<trackindex>1</trackindex>
													<clipindex>1</clipindex>
												</link>
												<link>
													<linkclipref>clipitem-57</linkclipref>
													<mediatype>audio</mediatype>
													<trackindex>1</trackindex>
													<clipindex>1</clipindex>
													<groupindex>1</groupindex>
												</link>
												<link>
													<linkclipref>clipitem-58</linkclipref>
													<mediatype>audio</mediatype>
													<trackindex>2</trackindex>
													<clipindex>1</clipindex>
													<groupindex>1</groupindex>
												</link>
											</clipitem>
										</track>
										<track>
											<clipitem id="clipitem-58">
												<masterclipid>masterclip-31</masterclipid>
												<name>(sophiabakessometimes)_7099649825385221382_TT.mp4</name>
												<rate>
													<timebase>30</timebase>
													<ntsc>FALSE</ntsc>
												</rate>
												<file id="file-31"/>
												<sourcetrack>
													<mediatype>audio</mediatype>
													<trackindex>2</trackindex>
												</sourcetrack>
												<link>
													<linkclipref>clipitem-56</linkclipref>
													<mediatype>video</mediatype>
													<trackindex>1</trackindex>
													<clipindex>1</clipindex>
												</link>
												<link>
													<linkclipref>clipitem-57</linkclipref>
													<mediatype>audio</mediatype>
													<trackindex>1</trackindex>
													<clipindex>1</clipindex>
													<groupindex>1</groupindex>
												</link>
												<link>
													<linkclipref>clipitem-58</linkclipref>
													<mediatype>audio</mediatype>
													<trackindex>2</trackindex>
													<clipindex>1</clipindex>
													<groupindex>1</groupindex>
												</link>
											</clipitem>
										</track>
									</audio>
								</media>
								<logginginfo>
									<description></description>
									<scene></scene>
									<shottake></shottake>
									<lognote></lognote>
									<good></good>
									<originalvideofilename></originalvideofilename>
									<originalaudiofilename></originalaudiofilename>
								</logginginfo>
								<colorinfo>
									<lut></lut>
									<lut1></lut1>
									<asc_sop></asc_sop>
									<asc_sat></asc_sat>
									<lut2></lut2>
								</colorinfo>
								<labels>
								</labels>
							</clip>
							<clip id="masterclip-32" explodedTracks="true">
								<uuid>233c24f9-5a4d-43a5-95d5-96d3f39226ea</uuid>
								<masterclipid>masterclip-32</masterclipid>
								<ismasterclip>TRUE</ismasterclip>
								<duration>1521</duration>
								<rate>
									<timebase>30</timebase>
									<ntsc>FALSE</ntsc>
								</rate>
								<out>51</out>
								<name>(whynotdiy.me)_CWTB946gPjV_IG.mp4</name>
								<media>
									<video>
										<track>
											<clipitem id="clipitem-59">
												<masterclipid>masterclip-32</masterclipid>
												<name>(whynotdiy.me)_CWTB946gPjV_IG.mp4</name>
												<rate>
													<timebase>30</timebase>
													<ntsc>FALSE</ntsc>
												</rate>
												<alphatype>none</alphatype>
												<pixelaspectratio>square</pixelaspectratio>
												<anamorphic>FALSE</anamorphic>
												<file id="file-32">
													<name>(whynotdiy.me)_CWTB946gPjV_IG.mp4</name>
													<pathurl>file://localhost/Volumes/ATM%201/EYE%20CANDY/8%3a21%3a23/3_Raw%20Files/apples/(whynotdiy.me)_CWTB946gPjV_IG.mp4</pathurl>
													<rate>
														<timebase>30</timebase>
														<ntsc>FALSE</ntsc>
													</rate>
													<duration>1521</duration>
													<timecode>
														<rate>
															<timebase>30</timebase>
															<ntsc>FALSE</ntsc>
														</rate>
														<string>00:00:00:00</string>
														<frame>0</frame>
														<displayformat>NDF</displayformat>
													</timecode>
													<media>
														<video>
															<samplecharacteristics>
																<rate>
																	<timebase>30</timebase>
																	<ntsc>FALSE</ntsc>
																</rate>
																<width>720</width>
																<height>1280</height>
																<anamorphic>FALSE</anamorphic>
																<pixelaspectratio>square</pixelaspectratio>
																<fielddominance>none</fielddominance>
															</samplecharacteristics>
														</video>
														<audio>
															<samplecharacteristics>
																<depth>16</depth>
																<samplerate>44100</samplerate>
															</samplecharacteristics>
															<channelcount>2</channelcount>
														</audio>
													</media>
												</file>
												<link>
													<linkclipref>clipitem-59</linkclipref>
													<mediatype>video</mediatype>
													<trackindex>1</trackindex>
													<clipindex>1</clipindex>
												</link>
												<link>
													<linkclipref>clipitem-60</linkclipref>
													<mediatype>audio</mediatype>
													<trackindex>1</trackindex>
													<clipindex>1</clipindex>
													<groupindex>1</groupindex>
												</link>
												<link>
													<linkclipref>clipitem-61</linkclipref>
													<mediatype>audio</mediatype>
													<trackindex>2</trackindex>
													<clipindex>1</clipindex>
													<groupindex>1</groupindex>
												</link>
											</clipitem>
										</track>
									</video>
									<audio>
										<track>
											<clipitem id="clipitem-60">
												<masterclipid>masterclip-32</masterclipid>
												<name>(whynotdiy.me)_CWTB946gPjV_IG.mp4</name>
												<rate>
													<timebase>30</timebase>
													<ntsc>FALSE</ntsc>
												</rate>
												<file id="file-32"/>
												<sourcetrack>
													<mediatype>audio</mediatype>
													<trackindex>1</trackindex>
												</sourcetrack>
												<link>
													<linkclipref>clipitem-59</linkclipref>
													<mediatype>video</mediatype>
													<trackindex>1</trackindex>
													<clipindex>1</clipindex>
												</link>
												<link>
													<linkclipref>clipitem-60</linkclipref>
													<mediatype>audio</mediatype>
													<trackindex>1</trackindex>
													<clipindex>1</clipindex>
													<groupindex>1</groupindex>
												</link>
												<link>
													<linkclipref>clipitem-61</linkclipref>
													<mediatype>audio</mediatype>
													<trackindex>2</trackindex>
													<clipindex>1</clipindex>
													<groupindex>1</groupindex>
												</link>
											</clipitem>
										</track>
										<track>
											<clipitem id="clipitem-61">
												<masterclipid>masterclip-32</masterclipid>
												<name>(whynotdiy.me)_CWTB946gPjV_IG.mp4</name>
												<rate>
													<timebase>30</timebase>
													<ntsc>FALSE</ntsc>
												</rate>
												<file id="file-32"/>
												<sourcetrack>
													<mediatype>audio</mediatype>
													<trackindex>2</trackindex>
												</sourcetrack>
												<link>
													<linkclipref>clipitem-59</linkclipref>
													<mediatype>video</mediatype>
													<trackindex>1</trackindex>
													<clipindex>1</clipindex>
												</link>
												<link>
													<linkclipref>clipitem-60</linkclipref>
													<mediatype>audio</mediatype>
													<trackindex>1</trackindex>
													<clipindex>1</clipindex>
													<groupindex>1</groupindex>
												</link>
												<link>
													<linkclipref>clipitem-61</linkclipref>
													<mediatype>audio</mediatype>
													<trackindex>2</trackindex>
													<clipindex>1</clipindex>
													<groupindex>1</groupindex>
												</link>
											</clipitem>
										</track>
									</audio>
								</media>
								<logginginfo>
									<description>IG: whynotdiy.me&#10;TT: whynotdiy_me&#10;YT: Why not DIY ME</description>
									<scene></scene>
									<shottake></shottake>
									<lognote></lognote>
									<good></good>
									<originalvideofilename></originalvideofilename>
									<originalaudiofilename></originalaudiofilename>
								</logginginfo>
								<colorinfo>
									<lut></lut>
									<lut1></lut1>
									<asc_sop></asc_sop>
									<asc_sat></asc_sat>
									<lut2></lut2>
								</colorinfo>
								<labels>
								</labels>
							</clip>
						</children>
					</bin>
					<bin>
						<name>Artlist - Cherries</name>
						<children>
							<clip id="masterclip-33" explodedTracks="true">
								<uuid>a3b72d2f-a4bd-4490-8b8f-f524acdbace8</uuid>
								<masterclipid>masterclip-33</masterclipid>
								<ismasterclip>TRUE</ismasterclip>
								<duration>252</duration>
								<rate>
									<timebase>30</timebase>
									<ntsc>FALSE</ntsc>
								</rate>
								<name>517279_Leaves Cherrys Branches Sun Light_By_Igor_Tichonow_Artlist_HD.mp4</name>
								<media>
									<video>
										<track>
											<clipitem id="clipitem-62">
												<masterclipid>masterclip-33</masterclipid>
												<name>517279_Leaves Cherrys Branches Sun Light_By_Igor_Tichonow_Artlist_HD.mp4</name>
												<rate>
													<timebase>30</timebase>
													<ntsc>FALSE</ntsc>
												</rate>
												<alphatype>none</alphatype>
												<pixelaspectratio>PAL-601</pixelaspectratio>
												<anamorphic>FALSE</anamorphic>
												<file id="file-33">
													<name>517279_Leaves Cherrys Branches Sun Light_By_Igor_Tichonow_Artlist_HD.mp4</name>
													<pathurl>file://localhost/Volumes/ATM%201/EYE%20CANDY/8%3a21%3a23/3_Raw%20Files/Artlist%20-%20Cherries/517279_Leaves%20Cherrys%20Branches%20Sun%20Light_By_Igor_Tichonow_Artlist_HD.mp4</pathurl>
													<rate>
														<timebase>30</timebase>
														<ntsc>FALSE</ntsc>
													</rate>
													<duration>252</duration>
													<timecode>
														<rate>
															<timebase>30</timebase>
															<ntsc>FALSE</ntsc>
														</rate>
														<string>19:38:24:11</string>
														<frame>2121131</frame>
														<displayformat>NDF</displayformat>
													</timecode>
													<media>
														<video>
															<samplecharacteristics>
																<rate>
																	<timebase>30</timebase>
																	<ntsc>FALSE</ntsc>
																</rate>
																<width>1920</width>
																<height>1080</height>
																<anamorphic>FALSE</anamorphic>
																<pixelaspectratio>PAL-601</pixelaspectratio>
																<fielddominance>none</fielddominance>
															</samplecharacteristics>
														</video>
													</media>
												</file>
											</clipitem>
										</track>
									</video>
								</media>
								<logginginfo>
									<description></description>
									<scene></scene>
									<shottake></shottake>
									<lognote></lognote>
									<good></good>
									<originalvideofilename></originalvideofilename>
									<originalaudiofilename></originalaudiofilename>
								</logginginfo>
								<colorinfo>
									<lut></lut>
									<lut1></lut1>
									<asc_sop></asc_sop>
									<asc_sat></asc_sat>
									<lut2></lut2>
								</colorinfo>
								<labels>
								</labels>
							</clip>
							<clip id="masterclip-34" explodedTracks="true">
								<uuid>3de3bb41-8d2a-4a89-b0a9-1a746fc843f9</uuid>
								<masterclipid>masterclip-34</masterclipid>
								<ismasterclip>TRUE</ismasterclip>
								<duration>198</duration>
								<rate>
									<timebase>30</timebase>
									<ntsc>FALSE</ntsc>
								</rate>
								<out>131</out>
								<name>517281_Leaves Cherrys Branch_By_Igor_Tichonow_Artlist_HD.mp4</name>
								<media>
									<video>
										<track>
											<clipitem id="clipitem-63">
												<masterclipid>masterclip-34</masterclipid>
												<name>517281_Leaves Cherrys Branch_By_Igor_Tichonow_Artlist_HD.mp4</name>
												<rate>
													<timebase>30</timebase>
													<ntsc>FALSE</ntsc>
												</rate>
												<alphatype>none</alphatype>
												<pixelaspectratio>PAL-601</pixelaspectratio>
												<anamorphic>FALSE</anamorphic>
												<file id="file-34">
													<name>517281_Leaves Cherrys Branch_By_Igor_Tichonow_Artlist_HD.mp4</name>
													<pathurl>file://localhost/Volumes/ATM%201/EYE%20CANDY/8%3a21%3a23/3_Raw%20Files/Artlist%20-%20Cherries/517281_Leaves%20Cherrys%20Branch_By_Igor_Tichonow_Artlist_HD.mp4</pathurl>
													<rate>
														<timebase>30</timebase>
														<ntsc>FALSE</ntsc>
													</rate>
													<duration>198</duration>
													<timecode>
														<rate>
															<timebase>30</timebase>
															<ntsc>FALSE</ntsc>
														</rate>
														<string>19:38:56:26</string>
														<frame>2122106</frame>
														<displayformat>NDF</displayformat>
													</timecode>
													<media>
														<video>
															<samplecharacteristics>
																<rate>
																	<timebase>30</timebase>
																	<ntsc>FALSE</ntsc>
																</rate>
																<width>1920</width>
																<height>1080</height>
																<anamorphic>FALSE</anamorphic>
																<pixelaspectratio>PAL-601</pixelaspectratio>
																<fielddominance>none</fielddominance>
															</samplecharacteristics>
														</video>
													</media>
												</file>
											</clipitem>
										</track>
									</video>
								</media>
								<logginginfo>
									<description></description>
									<scene></scene>
									<shottake></shottake>
									<lognote></lognote>
									<good></good>
									<originalvideofilename></originalvideofilename>
									<originalaudiofilename></originalaudiofilename>
								</logginginfo>
								<colorinfo>
									<lut></lut>
									<lut1></lut1>
									<asc_sop></asc_sop>
									<asc_sat></asc_sat>
									<lut2></lut2>
								</colorinfo>
								<labels>
								</labels>
							</clip>
							<clip id="masterclip-35" explodedTracks="true">
								<uuid>c4d46176-f3ca-45f6-9a8d-e2176bf838f7</uuid>
								<masterclipid>masterclip-35</masterclipid>
								<ismasterclip>TRUE</ismasterclip>
								<duration>487</duration>
								<rate>
									<timebase>30</timebase>
									<ntsc>FALSE</ntsc>
								</rate>
								<in>94</in>
								<out>334</out>
								<name>517284_Basket Hands Harvesting Cherrys_By_Igor_Tichonow_Artlist_HD.mp4</name>
								<media>
									<video>
										<track>
											<clipitem id="clipitem-64">
												<masterclipid>masterclip-35</masterclipid>
												<name>517284_Basket Hands Harvesting Cherrys_By_Igor_Tichonow_Artlist_HD.mp4</name>
												<rate>
													<timebase>30</timebase>
													<ntsc>FALSE</ntsc>
												</rate>
												<alphatype>none</alphatype>
												<pixelaspectratio>PAL-601</pixelaspectratio>
												<anamorphic>FALSE</anamorphic>
												<file id="file-35">
													<name>517284_Basket Hands Harvesting Cherrys_By_Igor_Tichonow_Artlist_HD.mp4</name>
													<pathurl>file://localhost/Volumes/ATM%201/EYE%20CANDY/8%3a21%3a23/3_Raw%20Files/Artlist%20-%20Cherries/517284_Basket%20Hands%20Harvesting%20Cherrys_By_Igor_Tichonow_Artlist_HD.mp4</pathurl>
													<rate>
														<timebase>30</timebase>
														<ntsc>FALSE</ntsc>
													</rate>
													<duration>487</duration>
													<timecode>
														<rate>
															<timebase>30</timebase>
															<ntsc>FALSE</ntsc>
														</rate>
														<string>19:40:36:06</string>
														<frame>2125086</frame>
														<displayformat>NDF</displayformat>
													</timecode>
													<media>
														<video>
															<samplecharacteristics>
																<rate>
																	<timebase>30</timebase>
																	<ntsc>FALSE</ntsc>
																</rate>
																<width>1920</width>
																<height>1080</height>
																<anamorphic>FALSE</anamorphic>
																<pixelaspectratio>PAL-601</pixelaspectratio>
																<fielddominance>none</fielddominance>
															</samplecharacteristics>
														</video>
													</media>
												</file>
											</clipitem>
										</track>
									</video>
								</media>
								<logginginfo>
									<description></description>
									<scene></scene>
									<shottake></shottake>
									<lognote></lognote>
									<good></good>
									<originalvideofilename></originalvideofilename>
									<originalaudiofilename></originalaudiofilename>
								</logginginfo>
								<colorinfo>
									<lut></lut>
									<lut1></lut1>
									<asc_sop></asc_sop>
									<asc_sat></asc_sat>
									<lut2></lut2>
								</colorinfo>
								<labels>
								</labels>
							</clip>
							<clip id="masterclip-36" explodedTracks="true">
								<uuid>2139d8e5-9194-48cb-a38d-65d5a7c88d47</uuid>
								<masterclipid>masterclip-36</masterclipid>
								<ismasterclip>TRUE</ismasterclip>
								<duration>287</duration>
								<rate>
									<timebase>30</timebase>
									<ntsc>FALSE</ntsc>
								</rate>
								<out>109</out>
								<name>517289_Cherrys Leaves Branches Green_By_Igor_Tichonow_Artlist_HD.mp4</name>
								<media>
									<video>
										<track>
											<clipitem id="clipitem-65">
												<masterclipid>masterclip-36</masterclipid>
												<name>517289_Cherrys Leaves Branches Green_By_Igor_Tichonow_Artlist_HD.mp4</name>
												<rate>
													<timebase>30</timebase>
													<ntsc>FALSE</ntsc>
												</rate>
												<alphatype>none</alphatype>
												<pixelaspectratio>PAL-601</pixelaspectratio>
												<anamorphic>FALSE</anamorphic>
												<file id="file-36">
													<name>517289_Cherrys Leaves Branches Green_By_Igor_Tichonow_Artlist_HD.mp4</name>
													<pathurl>file://localhost/Volumes/ATM%201/EYE%20CANDY/8%3a21%3a23/3_Raw%20Files/Artlist%20-%20Cherries/517289_Cherrys%20Leaves%20Branches%20Green_By_Igor_Tichonow_Artlist_HD.mp4</pathurl>
													<rate>
														<timebase>30</timebase>
														<ntsc>FALSE</ntsc>
													</rate>
													<duration>287</duration>
													<timecode>
														<rate>
															<timebase>30</timebase>
															<ntsc>FALSE</ntsc>
														</rate>
														<string>19:43:10:23</string>
														<frame>2129723</frame>
														<displayformat>NDF</displayformat>
													</timecode>
													<media>
														<video>
															<samplecharacteristics>
																<rate>
																	<timebase>30</timebase>
																	<ntsc>FALSE</ntsc>
																</rate>
																<width>1920</width>
																<height>1080</height>
																<anamorphic>FALSE</anamorphic>
																<pixelaspectratio>PAL-601</pixelaspectratio>
																<fielddominance>none</fielddominance>
															</samplecharacteristics>
														</video>
													</media>
												</file>
											</clipitem>
										</track>
									</video>
								</media>
								<logginginfo>
									<description></description>
									<scene></scene>
									<shottake></shottake>
									<lognote></lognote>
									<good></good>
									<originalvideofilename></originalvideofilename>
									<originalaudiofilename></originalaudiofilename>
								</logginginfo>
								<colorinfo>
									<lut></lut>
									<lut1></lut1>
									<asc_sop></asc_sop>
									<asc_sat></asc_sat>
									<lut2></lut2>
								</colorinfo>
								<labels>
								</labels>
							</clip>
							<clip id="masterclip-37" explodedTracks="true">
								<uuid>40d6011a-84a4-4b62-8389-2e768e292d06</uuid>
								<masterclipid>masterclip-37</masterclipid>
								<ismasterclip>TRUE</ismasterclip>
								<duration>428</duration>
								<rate>
									<timebase>30</timebase>
									<ntsc>FALSE</ntsc>
								</rate>
								<in>161</in>
								<out>254</out>
								<name>517290_Cherrys Leaves Branches Green_By_Igor_Tichonow_Artlist_HD.mp4</name>
								<media>
									<video>
										<track>
											<clipitem id="clipitem-66">
												<masterclipid>masterclip-37</masterclipid>
												<name>517290_Cherrys Leaves Branches Green_By_Igor_Tichonow_Artlist_HD.mp4</name>
												<rate>
													<timebase>30</timebase>
													<ntsc>FALSE</ntsc>
												</rate>
												<alphatype>none</alphatype>
												<pixelaspectratio>PAL-601</pixelaspectratio>
												<anamorphic>FALSE</anamorphic>
												<file id="file-37">
													<name>517290_Cherrys Leaves Branches Green_By_Igor_Tichonow_Artlist_HD.mp4</name>
													<pathurl>file://localhost/Volumes/ATM%201/EYE%20CANDY/8%3a21%3a23/3_Raw%20Files/Artlist%20-%20Cherries/517290_Cherrys%20Leaves%20Branches%20Green_By_Igor_Tichonow_Artlist_HD.mp4</pathurl>
													<rate>
														<timebase>30</timebase>
														<ntsc>FALSE</ntsc>
													</rate>
													<duration>428</duration>
													<timecode>
														<rate>
															<timebase>30</timebase>
															<ntsc>FALSE</ntsc>
														</rate>
														<string>19:43:43:21</string>
														<frame>2130711</frame>
														<displayformat>NDF</displayformat>
													</timecode>
													<media>
														<video>
															<samplecharacteristics>
																<rate>
																	<timebase>30</timebase>
																	<ntsc>FALSE</ntsc>
																</rate>
																<width>1920</width>
																<height>1080</height>
																<anamorphic>FALSE</anamorphic>
																<pixelaspectratio>PAL-601</pixelaspectratio>
																<fielddominance>none</fielddominance>
															</samplecharacteristics>
														</video>
													</media>
												</file>
											</clipitem>
										</track>
									</video>
								</media>
								<logginginfo>
									<description></description>
									<scene></scene>
									<shottake></shottake>
									<lognote></lognote>
									<good></good>
									<originalvideofilename></originalvideofilename>
									<originalaudiofilename></originalaudiofilename>
								</logginginfo>
								<colorinfo>
									<lut></lut>
									<lut1></lut1>
									<asc_sop></asc_sop>
									<asc_sat></asc_sat>
									<lut2></lut2>
								</colorinfo>
								<labels>
								</labels>
							</clip>
							<clip id="masterclip-38" explodedTracks="true">
								<uuid>8fe41b28-adb5-4959-96f9-682a7b9ccfbd</uuid>
								<masterclipid>masterclip-38</masterclipid>
								<ismasterclip>TRUE</ismasterclip>
								<duration>307</duration>
								<rate>
									<timebase>30</timebase>
									<ntsc>FALSE</ntsc>
								</rate>
								<in>91</in>
								<out>261</out>
								<name>517296_Basket Cherrys Grass People_By_Igor_Tichonow_Artlist_HD.mp4</name>
								<media>
									<video>
										<track>
											<clipitem id="clipitem-67">
												<masterclipid>masterclip-38</masterclipid>
												<name>517296_Basket Cherrys Grass People_By_Igor_Tichonow_Artlist_HD.mp4</name>
												<rate>
													<timebase>30</timebase>
													<ntsc>FALSE</ntsc>
												</rate>
												<alphatype>none</alphatype>
												<pixelaspectratio>PAL-601</pixelaspectratio>
												<anamorphic>FALSE</anamorphic>
												<file id="file-38">
													<name>517296_Basket Cherrys Grass People_By_Igor_Tichonow_Artlist_HD.mp4</name>
													<pathurl>file://localhost/Volumes/ATM%201/EYE%20CANDY/8%3a21%3a23/3_Raw%20Files/Artlist%20-%20Cherries/517296_Basket%20Cherrys%20Grass%20People_By_Igor_Tichonow_Artlist_HD.mp4</pathurl>
													<rate>
														<timebase>30</timebase>
														<ntsc>FALSE</ntsc>
													</rate>
													<duration>307</duration>
													<timecode>
														<rate>
															<timebase>30</timebase>
															<ntsc>FALSE</ntsc>
														</rate>
														<string>19:47:59:03</string>
														<frame>2138373</frame>
														<displayformat>NDF</displayformat>
													</timecode>
													<media>
														<video>
															<samplecharacteristics>
																<rate>
																	<timebase>30</timebase>
																	<ntsc>FALSE</ntsc>
																</rate>
																<width>1920</width>
																<height>1080</height>
																<anamorphic>FALSE</anamorphic>
																<pixelaspectratio>PAL-601</pixelaspectratio>
																<fielddominance>none</fielddominance>
															</samplecharacteristics>
														</video>
													</media>
												</file>
											</clipitem>
										</track>
									</video>
								</media>
								<logginginfo>
									<description></description>
									<scene></scene>
									<shottake></shottake>
									<lognote></lognote>
									<good></good>
									<originalvideofilename></originalvideofilename>
									<originalaudiofilename></originalaudiofilename>
								</logginginfo>
								<colorinfo>
									<lut></lut>
									<lut1></lut1>
									<asc_sop></asc_sop>
									<asc_sat></asc_sat>
									<lut2></lut2>
								</colorinfo>
								<labels>
								</labels>
							</clip>
							<clip id="masterclip-39" explodedTracks="true">
								<uuid>f379fb49-bc65-4442-8394-c5d119b7a693</uuid>
								<masterclipid>masterclip-39</masterclipid>
								<ismasterclip>TRUE</ismasterclip>
								<duration>355</duration>
								<rate>
									<timebase>30</timebase>
									<ntsc>FALSE</ntsc>
								</rate>
								<out>168</out>
								<name>517297_Hand Harvesting Cherrys Leaves_By_Igor_Tichonow_Artlist_HD.mp4</name>
								<media>
									<video>
										<track>
											<clipitem id="clipitem-68">
												<masterclipid>masterclip-39</masterclipid>
												<name>517297_Hand Harvesting Cherrys Leaves_By_Igor_Tichonow_Artlist_HD.mp4</name>
												<rate>
													<timebase>30</timebase>
													<ntsc>FALSE</ntsc>
												</rate>
												<alphatype>none</alphatype>
												<pixelaspectratio>PAL-601</pixelaspectratio>
												<anamorphic>FALSE</anamorphic>
												<file id="file-39">
													<name>517297_Hand Harvesting Cherrys Leaves_By_Igor_Tichonow_Artlist_HD.mp4</name>
													<pathurl>file://localhost/Volumes/ATM%201/EYE%20CANDY/8%3a21%3a23/3_Raw%20Files/Artlist%20-%20Cherries/517297_Hand%20Harvesting%20Cherrys%20Leaves_By_Igor_Tichonow_Artlist_HD.mp4</pathurl>
													<rate>
														<timebase>30</timebase>
														<ntsc>FALSE</ntsc>
													</rate>
													<duration>355</duration>
													<timecode>
														<rate>
															<timebase>30</timebase>
															<ntsc>FALSE</ntsc>
														</rate>
														<string>19:53:02:14</string>
														<frame>2147474</frame>
														<displayformat>NDF</displayformat>
													</timecode>
													<media>
														<video>
															<samplecharacteristics>
																<rate>
																	<timebase>30</timebase>
																	<ntsc>FALSE</ntsc>
																</rate>
																<width>1920</width>
																<height>1080</height>
																<anamorphic>FALSE</anamorphic>
																<pixelaspectratio>PAL-601</pixelaspectratio>
																<fielddominance>none</fielddominance>
															</samplecharacteristics>
														</video>
													</media>
												</file>
											</clipitem>
										</track>
									</video>
								</media>
								<logginginfo>
									<description></description>
									<scene></scene>
									<shottake></shottake>
									<lognote></lognote>
									<good></good>
									<originalvideofilename></originalvideofilename>
									<originalaudiofilename></originalaudiofilename>
								</logginginfo>
								<colorinfo>
									<lut></lut>
									<lut1></lut1>
									<asc_sop></asc_sop>
									<asc_sat></asc_sat>
									<lut2></lut2>
								</colorinfo>
								<labels>
								</labels>
							</clip>
							<clip id="masterclip-40" explodedTracks="true">
								<uuid>35fbc38e-bf6d-43db-a9ca-e1a084d1341b</uuid>
								<masterclipid>masterclip-40</masterclipid>
								<ismasterclip>TRUE</ismasterclip>
								<duration>230</duration>
								<rate>
									<timebase>30</timebase>
									<ntsc>FALSE</ntsc>
								</rate>
								<out>142</out>
								<name>517322_Cherrys Leaves Branches_By_Igor_Tichonow_Artlist_HD.mp4</name>
								<media>
									<video>
										<track>
											<clipitem id="clipitem-69">
												<masterclipid>masterclip-40</masterclipid>
												<name>517322_Cherrys Leaves Branches_By_Igor_Tichonow_Artlist_HD.mp4</name>
												<rate>
													<timebase>30</timebase>
													<ntsc>FALSE</ntsc>
												</rate>
												<alphatype>none</alphatype>
												<pixelaspectratio>PAL-601</pixelaspectratio>
												<anamorphic>FALSE</anamorphic>
												<file id="file-40">
													<name>517322_Cherrys Leaves Branches_By_Igor_Tichonow_Artlist_HD.mp4</name>
													<pathurl>file://localhost/Volumes/ATM%201/EYE%20CANDY/8%3a21%3a23/3_Raw%20Files/Artlist%20-%20Cherries/517322_Cherrys%20Leaves%20Branches_By_Igor_Tichonow_Artlist_HD.mp4</pathurl>
													<rate>
														<timebase>30</timebase>
														<ntsc>FALSE</ntsc>
													</rate>
													<duration>230</duration>
													<timecode>
														<rate>
															<timebase>30</timebase>
															<ntsc>FALSE</ntsc>
														</rate>
														<string>21:14:19:19</string>
														<frame>2293789</frame>
														<displayformat>NDF</displayformat>
													</timecode>
													<media>
														<video>
															<samplecharacteristics>
																<rate>
																	<timebase>30</timebase>
																	<ntsc>FALSE</ntsc>
																</rate>
																<width>1920</width>
																<height>1080</height>
																<anamorphic>FALSE</anamorphic>
																<pixelaspectratio>PAL-601</pixelaspectratio>
																<fielddominance>none</fielddominance>
															</samplecharacteristics>
														</video>
													</media>
												</file>
											</clipitem>
										</track>
									</video>
								</media>
								<logginginfo>
									<description></description>
									<scene></scene>
									<shottake></shottake>
									<lognote></lognote>
									<good></good>
									<originalvideofilename></originalvideofilename>
									<originalaudiofilename></originalaudiofilename>
								</logginginfo>
								<colorinfo>
									<lut></lut>
									<lut1></lut1>
									<asc_sop></asc_sop>
									<asc_sat></asc_sat>
									<lut2></lut2>
								</colorinfo>
								<labels>
								</labels>
							</clip>
							<clip id="masterclip-41" explodedTracks="true">
								<uuid>f0df3d56-c1e7-4d5c-aa4f-ac595f7dd4d9</uuid>
								<masterclipid>masterclip-41</masterclipid>
								<ismasterclip>TRUE</ismasterclip>
								<duration>444</duration>
								<rate>
									<timebase>30</timebase>
									<ntsc>FALSE</ntsc>
								</rate>
								<out>117</out>
								<name>517323_Cherrys Leaves Branches_By_Igor_Tichonow_Artlist_HD.mp4</name>
								<media>
									<video>
										<track>
											<clipitem id="clipitem-70">
												<masterclipid>masterclip-41</masterclipid>
												<name>517323_Cherrys Leaves Branches_By_Igor_Tichonow_Artlist_HD.mp4</name>
												<rate>
													<timebase>30</timebase>
													<ntsc>FALSE</ntsc>
												</rate>
												<alphatype>none</alphatype>
												<pixelaspectratio>PAL-601</pixelaspectratio>
												<anamorphic>FALSE</anamorphic>
												<file id="file-41">
													<name>517323_Cherrys Leaves Branches_By_Igor_Tichonow_Artlist_HD.mp4</name>
													<pathurl>file://localhost/Volumes/ATM%201/EYE%20CANDY/8%3a21%3a23/3_Raw%20Files/Artlist%20-%20Cherries/517323_Cherrys%20Leaves%20Branches_By_Igor_Tichonow_Artlist_HD.mp4</pathurl>
													<rate>
														<timebase>30</timebase>
														<ntsc>FALSE</ntsc>
													</rate>
													<duration>444</duration>
													<timecode>
														<rate>
															<timebase>30</timebase>
															<ntsc>FALSE</ntsc>
														</rate>
														<string>21:14:58:06</string>
														<frame>2294946</frame>
														<displayformat>NDF</displayformat>
													</timecode>
													<media>
														<video>
															<samplecharacteristics>
																<rate>
																	<timebase>30</timebase>
																	<ntsc>FALSE</ntsc>
																</rate>
																<width>1920</width>
																<height>1080</height>
																<anamorphic>FALSE</anamorphic>
																<pixelaspectratio>PAL-601</pixelaspectratio>
																<fielddominance>none</fielddominance>
															</samplecharacteristics>
														</video>
													</media>
												</file>
											</clipitem>
										</track>
									</video>
								</media>
								<logginginfo>
									<description></description>
									<scene></scene>
									<shottake></shottake>
									<lognote></lognote>
									<good></good>
									<originalvideofilename></originalvideofilename>
									<originalaudiofilename></originalaudiofilename>
								</logginginfo>
								<colorinfo>
									<lut></lut>
									<lut1></lut1>
									<asc_sop></asc_sop>
									<asc_sat></asc_sat>
									<lut2></lut2>
								</colorinfo>
								<labels>
								</labels>
							</clip>
							<clip id="masterclip-42" explodedTracks="true">
								<uuid>c443c418-7b2d-46b0-a619-c71def7b72c8</uuid>
								<masterclipid>masterclip-42</masterclipid>
								<ismasterclip>TRUE</ismasterclip>
								<duration>324</duration>
								<rate>
									<timebase>30</timebase>
									<ntsc>FALSE</ntsc>
								</rate>
								<out>127</out>
								<name>517324_Cherrys Leaves Branches_By_Igor_Tichonow_Artlist_HD.mp4</name>
								<media>
									<video>
										<track>
											<clipitem id="clipitem-71">
												<masterclipid>masterclip-42</masterclipid>
												<name>517324_Cherrys Leaves Branches_By_Igor_Tichonow_Artlist_HD.mp4</name>
												<rate>
													<timebase>30</timebase>
													<ntsc>FALSE</ntsc>
												</rate>
												<alphatype>none</alphatype>
												<pixelaspectratio>PAL-601</pixelaspectratio>
												<anamorphic>FALSE</anamorphic>
												<file id="file-42">
													<name>517324_Cherrys Leaves Branches_By_Igor_Tichonow_Artlist_HD.mp4</name>
													<pathurl>file://localhost/Volumes/ATM%201/EYE%20CANDY/8%3a21%3a23/3_Raw%20Files/Artlist%20-%20Cherries/517324_Cherrys%20Leaves%20Branches_By_Igor_Tichonow_Artlist_HD.mp4</pathurl>
													<rate>
														<timebase>30</timebase>
														<ntsc>FALSE</ntsc>
													</rate>
													<duration>324</duration>
													<timecode>
														<rate>
															<timebase>30</timebase>
															<ntsc>FALSE</ntsc>
														</rate>
														<string>21:15:24:27</string>
														<frame>2295747</frame>
														<displayformat>NDF</displayformat>
													</timecode>
													<media>
														<video>
															<samplecharacteristics>
																<rate>
																	<timebase>30</timebase>
																	<ntsc>FALSE</ntsc>
																</rate>
																<width>1920</width>
																<height>1080</height>
																<anamorphic>FALSE</anamorphic>
																<pixelaspectratio>PAL-601</pixelaspectratio>
																<fielddominance>none</fielddominance>
															</samplecharacteristics>
														</video>
													</media>
												</file>
											</clipitem>
										</track>
									</video>
								</media>
								<logginginfo>
									<description></description>
									<scene></scene>
									<shottake></shottake>
									<lognote></lognote>
									<good></good>
									<originalvideofilename></originalvideofilename>
									<originalaudiofilename></originalaudiofilename>
								</logginginfo>
								<colorinfo>
									<lut></lut>
									<lut1></lut1>
									<asc_sop></asc_sop>
									<asc_sat></asc_sat>
									<lut2></lut2>
								</colorinfo>
								<labels>
								</labels>
							</clip>
							<clip id="masterclip-43" explodedTracks="true">
								<uuid>b5c66483-60ad-408c-9ec1-729bae72a37e</uuid>
								<masterclipid>masterclip-43</masterclipid>
								<ismasterclip>TRUE</ismasterclip>
								<duration>324</duration>
								<rate>
									<timebase>30</timebase>
									<ntsc>FALSE</ntsc>
								</rate>
								<out>149</out>
								<name>517325_Cherrys Leaves Branches_By_Igor_Tichonow_Artlist_HD.mp4</name>
								<media>
									<video>
										<track>
											<clipitem id="clipitem-72">
												<masterclipid>masterclip-43</masterclipid>
												<name>517325_Cherrys Leaves Branches_By_Igor_Tichonow_Artlist_HD.mp4</name>
												<rate>
													<timebase>30</timebase>
													<ntsc>FALSE</ntsc>
												</rate>
												<alphatype>none</alphatype>
												<pixelaspectratio>PAL-601</pixelaspectratio>
												<anamorphic>FALSE</anamorphic>
												<file id="file-43">
													<name>517325_Cherrys Leaves Branches_By_Igor_Tichonow_Artlist_HD.mp4</name>
													<pathurl>file://localhost/Volumes/ATM%201/EYE%20CANDY/8%3a21%3a23/3_Raw%20Files/Artlist%20-%20Cherries/517325_Cherrys%20Leaves%20Branches_By_Igor_Tichonow_Artlist_HD.mp4</pathurl>
													<rate>
														<timebase>30</timebase>
														<ntsc>FALSE</ntsc>
													</rate>
													<duration>324</duration>
													<timecode>
														<rate>
															<timebase>30</timebase>
															<ntsc>FALSE</ntsc>
														</rate>
														<string>21:15:50:17</string>
														<frame>2296517</frame>
														<displayformat>NDF</displayformat>
													</timecode>
													<media>
														<video>
															<samplecharacteristics>
																<rate>
																	<timebase>30</timebase>
																	<ntsc>FALSE</ntsc>
																</rate>
																<width>1920</width>
																<height>1080</height>
																<anamorphic>FALSE</anamorphic>
																<pixelaspectratio>PAL-601</pixelaspectratio>
																<fielddominance>none</fielddominance>
															</samplecharacteristics>
														</video>
													</media>
												</file>
											</clipitem>
										</track>
									</video>
								</media>
								<logginginfo>
									<description></description>
									<scene></scene>
									<shottake></shottake>
									<lognote></lognote>
									<good></good>
									<originalvideofilename></originalvideofilename>
									<originalaudiofilename></originalaudiofilename>
								</logginginfo>
								<colorinfo>
									<lut></lut>
									<lut1></lut1>
									<asc_sop></asc_sop>
									<asc_sat></asc_sat>
									<lut2></lut2>
								</colorinfo>
								<labels>
								</labels>
							</clip>
							<clip id="masterclip-44" explodedTracks="true">
								<uuid>34c4a66e-2cd8-44b3-8af5-61cf2a983429</uuid>
								<masterclipid>masterclip-44</masterclipid>
								<ismasterclip>TRUE</ismasterclip>
								<duration>322</duration>
								<rate>
									<timebase>30</timebase>
									<ntsc>FALSE</ntsc>
								</rate>
								<out>124</out>
								<name>517327_Cherrys Leaves Branches_By_Igor_Tichonow_Artlist_HD.mp4</name>
								<media>
									<video>
										<track>
											<clipitem id="clipitem-73">
												<masterclipid>masterclip-44</masterclipid>
												<name>517327_Cherrys Leaves Branches_By_Igor_Tichonow_Artlist_HD.mp4</name>
												<rate>
													<timebase>30</timebase>
													<ntsc>FALSE</ntsc>
												</rate>
												<alphatype>none</alphatype>
												<pixelaspectratio>PAL-601</pixelaspectratio>
												<anamorphic>FALSE</anamorphic>
												<file id="file-44">
													<name>517327_Cherrys Leaves Branches_By_Igor_Tichonow_Artlist_HD.mp4</name>
													<pathurl>file://localhost/Volumes/ATM%201/EYE%20CANDY/8%3a21%3a23/3_Raw%20Files/Artlist%20-%20Cherries/517327_Cherrys%20Leaves%20Branches_By_Igor_Tichonow_Artlist_HD.mp4</pathurl>
													<rate>
														<timebase>30</timebase>
														<ntsc>FALSE</ntsc>
													</rate>
													<duration>322</duration>
													<timecode>
														<rate>
															<timebase>30</timebase>
															<ntsc>FALSE</ntsc>
														</rate>
														<string>21:16:57:28</string>
														<frame>2298538</frame>
														<displayformat>NDF</displayformat>
													</timecode>
													<media>
														<video>
															<samplecharacteristics>
																<rate>
																	<timebase>30</timebase>
																	<ntsc>FALSE</ntsc>
																</rate>
																<width>1920</width>
																<height>1080</height>
																<anamorphic>FALSE</anamorphic>
																<pixelaspectratio>PAL-601</pixelaspectratio>
																<fielddominance>none</fielddominance>
															</samplecharacteristics>
														</video>
													</media>
												</file>
											</clipitem>
										</track>
									</video>
								</media>
								<logginginfo>
									<description></description>
									<scene></scene>
									<shottake></shottake>
									<lognote></lognote>
									<good></good>
									<originalvideofilename></originalvideofilename>
									<originalaudiofilename></originalaudiofilename>
								</logginginfo>
								<colorinfo>
									<lut></lut>
									<lut1></lut1>
									<asc_sop></asc_sop>
									<asc_sat></asc_sat>
									<lut2></lut2>
								</colorinfo>
								<labels>
								</labels>
							</clip>
							<clip id="masterclip-45" explodedTracks="true">
								<uuid>83f64381-9609-430f-8a8d-e8fad7fc3f60</uuid>
								<masterclipid>masterclip-45</masterclipid>
								<ismasterclip>TRUE</ismasterclip>
								<duration>283</duration>
								<rate>
									<timebase>30</timebase>
									<ntsc>FALSE</ntsc>
								</rate>
								<out>122</out>
								<name>517328_Cherrys Leaves Branches_By_Igor_Tichonow_Artlist_HD.mp4</name>
								<media>
									<video>
										<track>
											<clipitem id="clipitem-74">
												<masterclipid>masterclip-45</masterclipid>
												<name>517328_Cherrys Leaves Branches_By_Igor_Tichonow_Artlist_HD.mp4</name>
												<rate>
													<timebase>30</timebase>
													<ntsc>FALSE</ntsc>
												</rate>
												<alphatype>none</alphatype>
												<pixelaspectratio>PAL-601</pixelaspectratio>
												<anamorphic>FALSE</anamorphic>
												<file id="file-45">
													<name>517328_Cherrys Leaves Branches_By_Igor_Tichonow_Artlist_HD.mp4</name>
													<pathurl>file://localhost/Volumes/ATM%201/EYE%20CANDY/8%3a21%3a23/3_Raw%20Files/Artlist%20-%20Cherries/517328_Cherrys%20Leaves%20Branches_By_Igor_Tichonow_Artlist_HD.mp4</pathurl>
													<rate>
														<timebase>30</timebase>
														<ntsc>FALSE</ntsc>
													</rate>
													<duration>283</duration>
													<timecode>
														<rate>
															<timebase>30</timebase>
															<ntsc>FALSE</ntsc>
														</rate>
														<string>21:18:43:04</string>
														<frame>2301694</frame>
														<displayformat>NDF</displayformat>
													</timecode>
													<media>
														<video>
															<samplecharacteristics>
																<rate>
																	<timebase>30</timebase>
																	<ntsc>FALSE</ntsc>
																</rate>
																<width>1920</width>
																<height>1080</height>
																<anamorphic>FALSE</anamorphic>
																<pixelaspectratio>PAL-601</pixelaspectratio>
																<fielddominance>none</fielddominance>
															</samplecharacteristics>
														</video>
													</media>
												</file>
											</clipitem>
										</track>
									</video>
								</media>
								<logginginfo>
									<description></description>
									<scene></scene>
									<shottake></shottake>
									<lognote></lognote>
									<good></good>
									<originalvideofilename></originalvideofilename>
									<originalaudiofilename></originalaudiofilename>
								</logginginfo>
								<colorinfo>
									<lut></lut>
									<lut1></lut1>
									<asc_sop></asc_sop>
									<asc_sat></asc_sat>
									<lut2></lut2>
								</colorinfo>
								<labels>
								</labels>
							</clip>
							<clip id="masterclip-46" explodedTracks="true">
								<uuid>9f2f404d-ca0d-4cc9-9524-8af38d33b9ee</uuid>
								<masterclipid>masterclip-46</masterclipid>
								<ismasterclip>TRUE</ismasterclip>
								<duration>362</duration>
								<rate>
									<timebase>30</timebase>
									<ntsc>FALSE</ntsc>
								</rate>
								<out>115</out>
								<name>517330_Cherrys Trees Leaves Branches_By_Igor_Tichonow_Artlist_HD.mp4</name>
								<media>
									<video>
										<track>
											<clipitem id="clipitem-75">
												<masterclipid>masterclip-46</masterclipid>
												<name>517330_Cherrys Trees Leaves Branches_By_Igor_Tichonow_Artlist_HD.mp4</name>
												<rate>
													<timebase>30</timebase>
													<ntsc>FALSE</ntsc>
												</rate>
												<alphatype>none</alphatype>
												<pixelaspectratio>PAL-601</pixelaspectratio>
												<anamorphic>FALSE</anamorphic>
												<file id="file-46">
													<name>517330_Cherrys Trees Leaves Branches_By_Igor_Tichonow_Artlist_HD.mp4</name>
													<pathurl>file://localhost/Volumes/ATM%201/EYE%20CANDY/8%3a21%3a23/3_Raw%20Files/Artlist%20-%20Cherries/517330_Cherrys%20Trees%20Leaves%20Branches_By_Igor_Tichonow_Artlist_HD.mp4</pathurl>
													<rate>
														<timebase>30</timebase>
														<ntsc>FALSE</ntsc>
													</rate>
													<duration>362</duration>
													<timecode>
														<rate>
															<timebase>30</timebase>
															<ntsc>FALSE</ntsc>
														</rate>
														<string>21:22:13:14</string>
														<frame>2308004</frame>
														<displayformat>NDF</displayformat>
													</timecode>
													<media>
														<video>
															<samplecharacteristics>
																<rate>
																	<timebase>30</timebase>
																	<ntsc>FALSE</ntsc>
																</rate>
																<width>1920</width>
																<height>1080</height>
																<anamorphic>FALSE</anamorphic>
																<pixelaspectratio>PAL-601</pixelaspectratio>
																<fielddominance>none</fielddominance>
															</samplecharacteristics>
														</video>
													</media>
												</file>
											</clipitem>
										</track>
									</video>
								</media>
								<logginginfo>
									<description></description>
									<scene></scene>
									<shottake></shottake>
									<lognote></lognote>
									<good></good>
									<originalvideofilename></originalvideofilename>
									<originalaudiofilename></originalaudiofilename>
								</logginginfo>
								<colorinfo>
									<lut></lut>
									<lut1></lut1>
									<asc_sop></asc_sop>
									<asc_sat></asc_sat>
									<lut2></lut2>
								</colorinfo>
								<labels>
								</labels>
							</clip>
						</children>
					</bin>
					<bin>
						<name>Artlist - Chocolate Bars</name>
						<children>
							<clip id="masterclip-47" explodedTracks="true">
								<uuid>337adad3-3f8a-4526-a321-e8557f89d020</uuid>
								<masterclipid>masterclip-47</masterclipid>
								<ismasterclip>TRUE</ismasterclip>
								<duration>367</duration>
								<rate>
									<timebase>24</timebase>
									<ntsc>FALSE</ntsc>
								</rate>
								<in>83</in>
								<name>227036_Chocolate Whipped Cream Pot Confectioner_By_Anton_Katliar_Artlist_HD.mp4</name>
								<media>
									<video>
										<track>
											<clipitem id="clipitem-76">
												<masterclipid>masterclip-47</masterclipid>
												<name>227036_Chocolate Whipped Cream Pot Confectioner_By_Anton_Katliar_Artlist_HD.mp4</name>
												<rate>
													<timebase>24</timebase>
													<ntsc>FALSE</ntsc>
												</rate>
												<alphatype>none</alphatype>
												<pixelaspectratio>PAL-601</pixelaspectratio>
												<anamorphic>FALSE</anamorphic>
												<file id="file-47">
													<name>227036_Chocolate Whipped Cream Pot Confectioner_By_Anton_Katliar_Artlist_HD.mp4</name>
													<pathurl>file://localhost/Volumes/ATM%201/EYE%20CANDY/8%3a21%3a23/3_Raw%20Files/Artlist%20-%20Chocolate%20Bars/227036_Chocolate%20Whipped%20Cream%20Pot%20Confectioner_By_Anton_Katliar_Artlist_HD.mp4</pathurl>
													<rate>
														<timebase>24</timebase>
														<ntsc>FALSE</ntsc>
													</rate>
													<duration>367</duration>
													<timecode>
														<rate>
															<timebase>24</timebase>
															<ntsc>FALSE</ntsc>
														</rate>
														<string>00:00:18:13</string>
														<frame>445</frame>
														<displayformat>NDF</displayformat>
													</timecode>
													<media>
														<video>
															<samplecharacteristics>
																<rate>
																	<timebase>24</timebase>
																	<ntsc>FALSE</ntsc>
																</rate>
																<width>1920</width>
																<height>1080</height>
																<anamorphic>FALSE</anamorphic>
																<pixelaspectratio>PAL-601</pixelaspectratio>
																<fielddominance>none</fielddominance>
															</samplecharacteristics>
														</video>
													</media>
												</file>
											</clipitem>
										</track>
									</video>
								</media>
								<logginginfo>
									<description></description>
									<scene></scene>
									<shottake></shottake>
									<lognote></lognote>
									<good></good>
									<originalvideofilename></originalvideofilename>
									<originalaudiofilename></originalaudiofilename>
								</logginginfo>
								<colorinfo>
									<lut></lut>
									<lut1></lut1>
									<asc_sop></asc_sop>
									<asc_sat></asc_sat>
									<lut2></lut2>
								</colorinfo>
								<labels>
								</labels>
							</clip>
							<clip id="masterclip-48" explodedTracks="true">
								<uuid>a6b7b3bc-d12b-4901-97bd-74e3ead27945</uuid>
								<masterclipid>masterclip-48</masterclipid>
								<ismasterclip>TRUE</ismasterclip>
								<duration>873</duration>
								<rate>
									<timebase>24</timebase>
									<ntsc>FALSE</ntsc>
								</rate>
								<out>198</out>
								<name>227037_Chocolate Pouring Mold Chocolatier_By_Anton_Katliar_Artlist_HD.mp4</name>
								<media>
									<video>
										<track>
											<clipitem id="clipitem-77">
												<masterclipid>masterclip-48</masterclipid>
												<name>227037_Chocolate Pouring Mold Chocolatier_By_Anton_Katliar_Artlist_HD.mp4</name>
												<rate>
													<timebase>24</timebase>
													<ntsc>FALSE</ntsc>
												</rate>
												<alphatype>none</alphatype>
												<pixelaspectratio>PAL-601</pixelaspectratio>
												<anamorphic>FALSE</anamorphic>
												<file id="file-48">
													<name>227037_Chocolate Pouring Mold Chocolatier_By_Anton_Katliar_Artlist_HD.mp4</name>
													<pathurl>file://localhost/Volumes/ATM%201/EYE%20CANDY/8%3a21%3a23/3_Raw%20Files/Artlist%20-%20Chocolate%20Bars/227037_Chocolate%20Pouring%20Mold%20Chocolatier_By_Anton_Katliar_Artlist_HD.mp4</pathurl>
													<rate>
														<timebase>24</timebase>
														<ntsc>FALSE</ntsc>
													</rate>
													<duration>873</duration>
													<timecode>
														<rate>
															<timebase>24</timebase>
															<ntsc>FALSE</ntsc>
														</rate>
														<string>00:03:04:17</string>
														<frame>4433</frame>
														<displayformat>NDF</displayformat>
													</timecode>
													<media>
														<video>
															<samplecharacteristics>
																<rate>
																	<timebase>24</timebase>
																	<ntsc>FALSE</ntsc>
																</rate>
																<width>1920</width>
																<height>1080</height>
																<anamorphic>FALSE</anamorphic>
																<pixelaspectratio>PAL-601</pixelaspectratio>
																<fielddominance>none</fielddominance>
															</samplecharacteristics>
														</video>
													</media>
												</file>
											</clipitem>
										</track>
									</video>
								</media>
								<logginginfo>
									<description></description>
									<scene></scene>
									<shottake></shottake>
									<lognote></lognote>
									<good></good>
									<originalvideofilename></originalvideofilename>
									<originalaudiofilename></originalaudiofilename>
								</logginginfo>
								<colorinfo>
									<lut></lut>
									<lut1></lut1>
									<asc_sop></asc_sop>
									<asc_sat></asc_sat>
									<lut2></lut2>
								</colorinfo>
								<labels>
								</labels>
							</clip>
							<clip id="masterclip-49" explodedTracks="true">
								<uuid>43d47c32-7988-4d81-b7a3-312b1a6623be</uuid>
								<masterclipid>masterclip-49</masterclipid>
								<ismasterclip>TRUE</ismasterclip>
								<duration>691</duration>
								<rate>
									<timebase>24</timebase>
									<ntsc>FALSE</ntsc>
								</rate>
								<in>443</in>
								<out>506</out>
								<name>227038_Chocolate Almonds Chocolatier Confectioner_By_Anton_Katliar_Artlist_HD.mp4</name>
								<media>
									<video>
										<track>
											<clipitem id="clipitem-78">
												<masterclipid>masterclip-49</masterclipid>
												<name>227038_Chocolate Almonds Chocolatier Confectioner_By_Anton_Katliar_Artlist_HD.mp4</name>
												<rate>
													<timebase>24</timebase>
													<ntsc>FALSE</ntsc>
												</rate>
												<alphatype>none</alphatype>
												<pixelaspectratio>PAL-601</pixelaspectratio>
												<anamorphic>FALSE</anamorphic>
												<file id="file-49">
													<name>227038_Chocolate Almonds Chocolatier Confectioner_By_Anton_Katliar_Artlist_HD.mp4</name>
													<pathurl>file://localhost/Volumes/ATM%201/EYE%20CANDY/8%3a21%3a23/3_Raw%20Files/Artlist%20-%20Chocolate%20Bars/227038_Chocolate%20Almonds%20Chocolatier%20Confectioner_By_Anton_Katliar_Artlist_HD.mp4</pathurl>
													<rate>
														<timebase>24</timebase>
														<ntsc>FALSE</ntsc>
													</rate>
													<duration>691</duration>
													<timecode>
														<rate>
															<timebase>24</timebase>
															<ntsc>FALSE</ntsc>
														</rate>
														<string>00:03:58:04</string>
														<frame>5716</frame>
														<displayformat>NDF</displayformat>
													</timecode>
													<media>
														<video>
															<samplecharacteristics>
																<rate>
																	<timebase>24</timebase>
																	<ntsc>FALSE</ntsc>
																</rate>
																<width>1920</width>
																<height>1080</height>
																<anamorphic>FALSE</anamorphic>
																<pixelaspectratio>PAL-601</pixelaspectratio>
																<fielddominance>none</fielddominance>
															</samplecharacteristics>
														</video>
													</media>
												</file>
											</clipitem>
										</track>
									</video>
								</media>
								<logginginfo>
									<description></description>
									<scene></scene>
									<shottake></shottake>
									<lognote></lognote>
									<good></good>
									<originalvideofilename></originalvideofilename>
									<originalaudiofilename></originalaudiofilename>
								</logginginfo>
								<colorinfo>
									<lut></lut>
									<lut1></lut1>
									<asc_sop></asc_sop>
									<asc_sat></asc_sat>
									<lut2></lut2>
								</colorinfo>
								<labels>
								</labels>
							</clip>
							<clip id="masterclip-50" explodedTracks="true">
								<uuid>23b2ec7a-4b32-4c71-b79f-740053dc1d9f</uuid>
								<masterclipid>masterclip-50</masterclipid>
								<ismasterclip>TRUE</ismasterclip>
								<duration>840</duration>
								<rate>
									<timebase>24</timebase>
									<ntsc>FALSE</ntsc>
								</rate>
								<name>227040_Chocolate Mold Chocolatier Confectioner_By_Anton_Katliar_Artlist_HD.mp4</name>
								<media>
									<video>
										<track>
											<clipitem id="clipitem-79">
												<masterclipid>masterclip-50</masterclipid>
												<name>227040_Chocolate Mold Chocolatier Confectioner_By_Anton_Katliar_Artlist_HD.mp4</name>
												<rate>
													<timebase>24</timebase>
													<ntsc>FALSE</ntsc>
												</rate>
												<alphatype>none</alphatype>
												<pixelaspectratio>PAL-601</pixelaspectratio>
												<anamorphic>FALSE</anamorphic>
												<file id="file-50">
													<name>227040_Chocolate Mold Chocolatier Confectioner_By_Anton_Katliar_Artlist_HD.mp4</name>
													<pathurl>file://localhost/Volumes/ATM%201/EYE%20CANDY/8%3a21%3a23/3_Raw%20Files/Artlist%20-%20Chocolate%20Bars/227040_Chocolate%20Mold%20Chocolatier%20Confectioner_By_Anton_Katliar_Artlist_HD.mp4</pathurl>
													<rate>
														<timebase>24</timebase>
														<ntsc>FALSE</ntsc>
													</rate>
													<duration>840</duration>
													<timecode>
														<rate>
															<timebase>24</timebase>
															<ntsc>FALSE</ntsc>
														</rate>
														<string>00:03:58:15</string>
														<frame>5727</frame>
														<displayformat>NDF</displayformat>
													</timecode>
													<media>
														<video>
															<samplecharacteristics>
																<rate>
																	<timebase>24</timebase>
																	<ntsc>FALSE</ntsc>
																</rate>
																<width>1920</width>
																<height>1080</height>
																<anamorphic>FALSE</anamorphic>
																<pixelaspectratio>PAL-601</pixelaspectratio>
																<fielddominance>none</fielddominance>
															</samplecharacteristics>
														</video>
													</media>
												</file>
											</clipitem>
										</track>
									</video>
								</media>
								<logginginfo>
									<description></description>
									<scene></scene>
									<shottake></shottake>
									<lognote></lognote>
									<good></good>
									<originalvideofilename></originalvideofilename>
									<originalaudiofilename></originalaudiofilename>
								</logginginfo>
								<colorinfo>
									<lut></lut>
									<lut1></lut1>
									<asc_sop></asc_sop>
									<asc_sat></asc_sat>
									<lut2></lut2>
								</colorinfo>
								<labels>
								</labels>
							</clip>
							<clip id="masterclip-51" explodedTracks="true">
								<uuid>2becd3d5-94d6-4a3e-a78d-88f9c2acc2d3</uuid>
								<masterclipid>masterclip-51</masterclipid>
								<ismasterclip>TRUE</ismasterclip>
								<duration>904</duration>
								<rate>
									<timebase>24</timebase>
									<ntsc>FALSE</ntsc>
								</rate>
								<in>221</in>
								<out>353</out>
								<name>227041_Chocolate Mold Almonds Chocolatier_By_Anton_Katliar_Artlist_HD.mp4</name>
								<media>
									<video>
										<track>
											<clipitem id="clipitem-80">
												<masterclipid>masterclip-51</masterclipid>
												<name>227041_Chocolate Mold Almonds Chocolatier_By_Anton_Katliar_Artlist_HD.mp4</name>
												<rate>
													<timebase>24</timebase>
													<ntsc>FALSE</ntsc>
												</rate>
												<alphatype>none</alphatype>
												<pixelaspectratio>PAL-601</pixelaspectratio>
												<anamorphic>FALSE</anamorphic>
												<file id="file-51">
													<name>227041_Chocolate Mold Almonds Chocolatier_By_Anton_Katliar_Artlist_HD.mp4</name>
													<pathurl>file://localhost/Volumes/ATM%201/EYE%20CANDY/8%3a21%3a23/3_Raw%20Files/Artlist%20-%20Chocolate%20Bars/227041_Chocolate%20Mold%20Almonds%20Chocolatier_By_Anton_Katliar_Artlist_HD.mp4</pathurl>
													<rate>
														<timebase>24</timebase>
														<ntsc>FALSE</ntsc>
													</rate>
													<duration>904</duration>
													<timecode>
														<rate>
															<timebase>24</timebase>
															<ntsc>FALSE</ntsc>
														</rate>
														<string>00:04:33:15</string>
														<frame>6567</frame>
														<displayformat>NDF</displayformat>
													</timecode>
													<media>
														<video>
															<samplecharacteristics>
																<rate>
																	<timebase>24</timebase>
																	<ntsc>FALSE</ntsc>
																</rate>
																<width>1920</width>
																<height>1080</height>
																<anamorphic>FALSE</anamorphic>
																<pixelaspectratio>PAL-601</pixelaspectratio>
																<fielddominance>none</fielddominance>
															</samplecharacteristics>
														</video>
													</media>
												</file>
											</clipitem>
										</track>
									</video>
								</media>
								<logginginfo>
									<description></description>
									<scene></scene>
									<shottake></shottake>
									<lognote></lognote>
									<good></good>
									<originalvideofilename></originalvideofilename>
									<originalaudiofilename></originalaudiofilename>
								</logginginfo>
								<colorinfo>
									<lut></lut>
									<lut1></lut1>
									<asc_sop></asc_sop>
									<asc_sat></asc_sat>
									<lut2></lut2>
								</colorinfo>
								<labels>
								</labels>
							</clip>
							<clip id="masterclip-52" explodedTracks="true">
								<uuid>a68f81d1-e724-43fe-a813-d735a9559bdb</uuid>
								<masterclipid>masterclip-52</masterclipid>
								<ismasterclip>TRUE</ismasterclip>
								<duration>768</duration>
								<rate>
									<timebase>24</timebase>
									<ntsc>FALSE</ntsc>
								</rate>
								<in>519</in>
								<out>581</out>
								<name>227044_Chocolate Nuts Almonds Bakery_By_Anton_Katliar_Artlist_HD.mp4</name>
								<media>
									<video>
										<track>
											<clipitem id="clipitem-81">
												<masterclipid>masterclip-52</masterclipid>
												<name>227044_Chocolate Nuts Almonds Bakery_By_Anton_Katliar_Artlist_HD.mp4</name>
												<rate>
													<timebase>24</timebase>
													<ntsc>FALSE</ntsc>
												</rate>
												<alphatype>none</alphatype>
												<pixelaspectratio>PAL-601</pixelaspectratio>
												<anamorphic>FALSE</anamorphic>
												<file id="file-52">
													<name>227044_Chocolate Nuts Almonds Bakery_By_Anton_Katliar_Artlist_HD.mp4</name>
													<pathurl>file://localhost/Volumes/ATM%201/EYE%20CANDY/8%3a21%3a23/3_Raw%20Files/Artlist%20-%20Chocolate%20Bars/227044_Chocolate%20Nuts%20Almonds%20Bakery_By_Anton_Katliar_Artlist_HD.mp4</pathurl>
													<rate>
														<timebase>24</timebase>
														<ntsc>FALSE</ntsc>
													</rate>
													<duration>768</duration>
													<timecode>
														<rate>
															<timebase>24</timebase>
															<ntsc>FALSE</ntsc>
														</rate>
														<string>00:05:11:07</string>
														<frame>7471</frame>
														<displayformat>NDF</displayformat>
													</timecode>
													<media>
														<video>
															<samplecharacteristics>
																<rate>
																	<timebase>24</timebase>
																	<ntsc>FALSE</ntsc>
																</rate>
																<width>1920</width>
																<height>1080</height>
																<anamorphic>FALSE</anamorphic>
																<pixelaspectratio>PAL-601</pixelaspectratio>
																<fielddominance>none</fielddominance>
															</samplecharacteristics>
														</video>
													</media>
												</file>
											</clipitem>
										</track>
									</video>
								</media>
								<logginginfo>
									<description></description>
									<scene></scene>
									<shottake></shottake>
									<lognote></lognote>
									<good></good>
									<originalvideofilename></originalvideofilename>
									<originalaudiofilename></originalaudiofilename>
								</logginginfo>
								<colorinfo>
									<lut></lut>
									<lut1></lut1>
									<asc_sop></asc_sop>
									<asc_sat></asc_sat>
									<lut2></lut2>
								</colorinfo>
								<labels>
								</labels>
							</clip>
							<clip id="masterclip-53" explodedTracks="true">
								<uuid>8759cd7a-a909-4099-8eeb-ebf4865678d0</uuid>
								<masterclipid>masterclip-53</masterclipid>
								<ismasterclip>TRUE</ismasterclip>
								<duration>745</duration>
								<rate>
									<timebase>24</timebase>
									<ntsc>FALSE</ntsc>
								</rate>
								<in>410</in>
								<out>472</out>
								<name>227045_Chocolate Nuts Almonds Chocolatier_By_Anton_Katliar_Artlist_HD.mp4</name>
								<media>
									<video>
										<track>
											<clipitem id="clipitem-82">
												<masterclipid>masterclip-53</masterclipid>
												<name>227045_Chocolate Nuts Almonds Chocolatier_By_Anton_Katliar_Artlist_HD.mp4</name>
												<rate>
													<timebase>24</timebase>
													<ntsc>FALSE</ntsc>
												</rate>
												<alphatype>none</alphatype>
												<pixelaspectratio>PAL-601</pixelaspectratio>
												<anamorphic>FALSE</anamorphic>
												<file id="file-53">
													<name>227045_Chocolate Nuts Almonds Chocolatier_By_Anton_Katliar_Artlist_HD.mp4</name>
													<pathurl>file://localhost/Volumes/ATM%201/EYE%20CANDY/8%3a21%3a23/3_Raw%20Files/Artlist%20-%20Chocolate%20Bars/227045_Chocolate%20Nuts%20Almonds%20Chocolatier_By_Anton_Katliar_Artlist_HD.mp4</pathurl>
													<rate>
														<timebase>24</timebase>
														<ntsc>FALSE</ntsc>
													</rate>
													<duration>745</duration>
													<timecode>
														<rate>
															<timebase>24</timebase>
															<ntsc>FALSE</ntsc>
														</rate>
														<string>00:05:43:07</string>
														<frame>8239</frame>
														<displayformat>NDF</displayformat>
													</timecode>
													<media>
														<video>
															<samplecharacteristics>
																<rate>
																	<timebase>24</timebase>
																	<ntsc>FALSE</ntsc>
																</rate>
																<width>1920</width>
																<height>1080</height>
																<anamorphic>FALSE</anamorphic>
																<pixelaspectratio>PAL-601</pixelaspectratio>
																<fielddominance>none</fielddominance>
															</samplecharacteristics>
														</video>
													</media>
												</file>
											</clipitem>
										</track>
									</video>
								</media>
								<logginginfo>
									<description></description>
									<scene></scene>
									<shottake></shottake>
									<lognote></lognote>
									<good></good>
									<originalvideofilename></originalvideofilename>
									<originalaudiofilename></originalaudiofilename>
								</logginginfo>
								<colorinfo>
									<lut></lut>
									<lut1></lut1>
									<asc_sop></asc_sop>
									<asc_sat></asc_sat>
									<lut2></lut2>
								</colorinfo>
								<labels>
								</labels>
							</clip>
							<clip id="masterclip-54" explodedTracks="true">
								<uuid>5f2e7f1f-1e7e-4109-90dc-b6693c91c3ca</uuid>
								<masterclipid>masterclip-54</masterclipid>
								<ismasterclip>TRUE</ismasterclip>
								<duration>655</duration>
								<rate>
									<timebase>24</timebase>
									<ntsc>FALSE</ntsc>
								</rate>
								<name>227046_Chocolate Nuts Almonds Confectioner_By_Anton_Katliar_Artlist_HD.mp4</name>
								<media>
									<video>
										<track>
											<clipitem id="clipitem-83">
												<masterclipid>masterclip-54</masterclipid>
												<name>227046_Chocolate Nuts Almonds Confectioner_By_Anton_Katliar_Artlist_HD.mp4</name>
												<rate>
													<timebase>24</timebase>
													<ntsc>FALSE</ntsc>
												</rate>
												<alphatype>none</alphatype>
												<pixelaspectratio>PAL-601</pixelaspectratio>
												<anamorphic>FALSE</anamorphic>
												<file id="file-54">
													<name>227046_Chocolate Nuts Almonds Confectioner_By_Anton_Katliar_Artlist_HD.mp4</name>
													<pathurl>file://localhost/Volumes/ATM%201/EYE%20CANDY/8%3a21%3a23/3_Raw%20Files/Artlist%20-%20Chocolate%20Bars/227046_Chocolate%20Nuts%20Almonds%20Confectioner_By_Anton_Katliar_Artlist_HD.mp4</pathurl>
													<rate>
														<timebase>24</timebase>
														<ntsc>FALSE</ntsc>
													</rate>
													<duration>655</duration>
													<timecode>
														<rate>
															<timebase>24</timebase>
															<ntsc>FALSE</ntsc>
														</rate>
														<string>00:03:08:22</string>
														<frame>4534</frame>
														<displayformat>NDF</displayformat>
													</timecode>
													<media>
														<video>
															<samplecharacteristics>
																<rate>
																	<timebase>24</timebase>
																	<ntsc>FALSE</ntsc>
																</rate>
																<width>1920</width>
																<height>1080</height>
																<anamorphic>FALSE</anamorphic>
																<pixelaspectratio>PAL-601</pixelaspectratio>
																<fielddominance>none</fielddominance>
															</samplecharacteristics>
														</video>
													</media>
												</file>
											</clipitem>
										</track>
									</video>
								</media>
								<logginginfo>
									<description></description>
									<scene></scene>
									<shottake></shottake>
									<lognote></lognote>
									<good></good>
									<originalvideofilename></originalvideofilename>
									<originalaudiofilename></originalaudiofilename>
								</logginginfo>
								<colorinfo>
									<lut></lut>
									<lut1></lut1>
									<asc_sop></asc_sop>
									<asc_sat></asc_sat>
									<lut2></lut2>
								</colorinfo>
								<labels>
								</labels>
							</clip>
							<clip id="masterclip-55" explodedTracks="true">
								<uuid>294a6841-9282-4a7b-bf0e-fa8b835e0a44</uuid>
								<masterclipid>masterclip-55</masterclipid>
								<ismasterclip>TRUE</ismasterclip>
								<duration>566</duration>
								<rate>
									<timebase>24</timebase>
									<ntsc>FALSE</ntsc>
								</rate>
								<out>354</out>
								<name>227056_Chocolate Bakery Kitchen Chocolatier_By_Anton_Katliar_Artlist_HD.mp4</name>
								<media>
									<video>
										<track>
											<clipitem id="clipitem-84">
												<masterclipid>masterclip-55</masterclipid>
												<name>227056_Chocolate Bakery Kitchen Chocolatier_By_Anton_Katliar_Artlist_HD.mp4</name>
												<rate>
													<timebase>24</timebase>
													<ntsc>FALSE</ntsc>
												</rate>
												<alphatype>none</alphatype>
												<pixelaspectratio>PAL-601</pixelaspectratio>
												<anamorphic>FALSE</anamorphic>
												<file id="file-55">
													<name>227056_Chocolate Bakery Kitchen Chocolatier_By_Anton_Katliar_Artlist_HD.mp4</name>
													<pathurl>file://localhost/Volumes/ATM%201/EYE%20CANDY/8%3a21%3a23/3_Raw%20Files/Artlist%20-%20Chocolate%20Bars/227056_Chocolate%20Bakery%20Kitchen%20Chocolatier_By_Anton_Katliar_Artlist_HD.mp4</pathurl>
													<rate>
														<timebase>24</timebase>
														<ntsc>FALSE</ntsc>
													</rate>
													<duration>566</duration>
													<timecode>
														<rate>
															<timebase>24</timebase>
															<ntsc>FALSE</ntsc>
														</rate>
														<string>00:00:00:00</string>
														<frame>0</frame>
														<displayformat>NDF</displayformat>
													</timecode>
													<media>
														<video>
															<samplecharacteristics>
																<rate>
																	<timebase>24</timebase>
																	<ntsc>FALSE</ntsc>
																</rate>
																<width>1920</width>
																<height>1080</height>
																<anamorphic>FALSE</anamorphic>
																<pixelaspectratio>PAL-601</pixelaspectratio>
																<fielddominance>none</fielddominance>
															</samplecharacteristics>
														</video>
													</media>
												</file>
											</clipitem>
										</track>
									</video>
								</media>
								<logginginfo>
									<description></description>
									<scene></scene>
									<shottake></shottake>
									<lognote></lognote>
									<good></good>
									<originalvideofilename></originalvideofilename>
									<originalaudiofilename></originalaudiofilename>
								</logginginfo>
								<colorinfo>
									<lut></lut>
									<lut1></lut1>
									<asc_sop></asc_sop>
									<asc_sat></asc_sat>
									<lut2></lut2>
								</colorinfo>
								<labels>
								</labels>
							</clip>
							<clip id="masterclip-56" explodedTracks="true">
								<uuid>61c2c887-38a4-48bc-a04f-b0d1d3783ae2</uuid>
								<masterclipid>masterclip-56</masterclipid>
								<ismasterclip>TRUE</ismasterclip>
								<duration>427</duration>
								<rate>
									<timebase>24</timebase>
									<ntsc>FALSE</ntsc>
								</rate>
								<out>148</out>
								<name>227058_Bakery Kitchen Sweets Cocoa_By_Anton_Katliar_Artlist_HD.mp4</name>
								<media>
									<video>
										<track>
											<clipitem id="clipitem-85">
												<masterclipid>masterclip-56</masterclipid>
												<name>227058_Bakery Kitchen Sweets Cocoa_By_Anton_Katliar_Artlist_HD.mp4</name>
												<rate>
													<timebase>24</timebase>
													<ntsc>FALSE</ntsc>
												</rate>
												<alphatype>none</alphatype>
												<pixelaspectratio>PAL-601</pixelaspectratio>
												<anamorphic>FALSE</anamorphic>
												<file id="file-56">
													<name>227058_Bakery Kitchen Sweets Cocoa_By_Anton_Katliar_Artlist_HD.mp4</name>
													<pathurl>file://localhost/Volumes/ATM%201/EYE%20CANDY/8%3a21%3a23/3_Raw%20Files/Artlist%20-%20Chocolate%20Bars/227058_Bakery%20Kitchen%20Sweets%20Cocoa_By_Anton_Katliar_Artlist_HD.mp4</pathurl>
													<rate>
														<timebase>24</timebase>
														<ntsc>FALSE</ntsc>
													</rate>
													<duration>427</duration>
													<timecode>
														<rate>
															<timebase>24</timebase>
															<ntsc>FALSE</ntsc>
														</rate>
														<string>00:00:34:20</string>
														<frame>836</frame>
														<displayformat>NDF</displayformat>
													</timecode>
													<media>
														<video>
															<samplecharacteristics>
																<rate>
																	<timebase>24</timebase>
																	<ntsc>FALSE</ntsc>
																</rate>
																<width>1920</width>
																<height>1080</height>
																<anamorphic>FALSE</anamorphic>
																<pixelaspectratio>PAL-601</pixelaspectratio>
																<fielddominance>none</fielddominance>
															</samplecharacteristics>
														</video>
													</media>
												</file>
											</clipitem>
										</track>
									</video>
								</media>
								<logginginfo>
									<description></description>
									<scene></scene>
									<shottake></shottake>
									<lognote></lognote>
									<good></good>
									<originalvideofilename></originalvideofilename>
									<originalaudiofilename></originalaudiofilename>
								</logginginfo>
								<colorinfo>
									<lut></lut>
									<lut1></lut1>
									<asc_sop></asc_sop>
									<asc_sat></asc_sat>
									<lut2></lut2>
								</colorinfo>
								<labels>
								</labels>
							</clip>
						</children>
					</bin>
					<bin>
						<name>Artlist - Honeycomb</name>
						<children>
							<clip id="masterclip-57" explodedTracks="true">
								<uuid>94c3dd9e-1b5b-4a4d-b745-240cdb7900dc</uuid>
								<masterclipid>masterclip-57</masterclipid>
								<ismasterclip>TRUE</ismasterclip>
								<duration>316</duration>
								<rate>
									<timebase>24</timebase>
									<ntsc>FALSE</ntsc>
								</rate>
								<out>229</out>
								<name>523987_Honeycomb Bees Beekeeper Beehive_By_Dmitrii_Borovikov__Artlist_HD.mp4</name>
								<media>
									<video>
										<track>
											<clipitem id="clipitem-86">
												<masterclipid>masterclip-57</masterclipid>
												<name>523987_Honeycomb Bees Beekeeper Beehive_By_Dmitrii_Borovikov__Artlist_HD.mp4</name>
												<rate>
													<timebase>24</timebase>
													<ntsc>FALSE</ntsc>
												</rate>
												<alphatype>none</alphatype>
												<pixelaspectratio>square</pixelaspectratio>
												<anamorphic>FALSE</anamorphic>
												<file id="file-57">
													<name>523987_Honeycomb Bees Beekeeper Beehive_By_Dmitrii_Borovikov__Artlist_HD.mp4</name>
													<pathurl>file://localhost/Volumes/ATM%201/EYE%20CANDY/8%3a21%3a23/3_Raw%20Files/Artlist%20-%20Honeycomb/523987_Honeycomb%20Bees%20Beekeeper%20Beehive_By_Dmitrii_Borovikov__Artlist_HD.mp4</pathurl>
													<rate>
														<timebase>24</timebase>
														<ntsc>FALSE</ntsc>
													</rate>
													<duration>316</duration>
													<timecode>
														<rate>
															<timebase>24</timebase>
															<ntsc>FALSE</ntsc>
														</rate>
														<string>00:00:00:00</string>
														<frame>0</frame>
														<displayformat>NDF</displayformat>
													</timecode>
													<media>
														<video>
															<samplecharacteristics>
																<rate>
																	<timebase>24</timebase>
																	<ntsc>FALSE</ntsc>
																</rate>
																<width>1920</width>
																<height>1080</height>
																<anamorphic>FALSE</anamorphic>
																<pixelaspectratio>square</pixelaspectratio>
																<fielddominance>none</fielddominance>
															</samplecharacteristics>
														</video>
													</media>
												</file>
											</clipitem>
										</track>
									</video>
								</media>
								<logginginfo>
									<description></description>
									<scene></scene>
									<shottake></shottake>
									<lognote></lognote>
									<good></good>
									<originalvideofilename></originalvideofilename>
									<originalaudiofilename></originalaudiofilename>
								</logginginfo>
								<colorinfo>
									<lut></lut>
									<lut1></lut1>
									<asc_sop></asc_sop>
									<asc_sat></asc_sat>
									<lut2></lut2>
								</colorinfo>
								<labels>
								</labels>
							</clip>
							<clip id="masterclip-58" explodedTracks="true">
								<uuid>a53a59f2-19f3-4018-94d8-f8a1d37c8e02</uuid>
								<masterclipid>masterclip-58</masterclipid>
								<ismasterclip>TRUE</ismasterclip>
								<duration>341</duration>
								<rate>
									<timebase>24</timebase>
									<ntsc>FALSE</ntsc>
								</rate>
								<out>165</out>
								<name>523997_Beekeeper Honeycomb Beehive Safety Suit_By_Dmitrii_Borovikov__Artlist_HD.mp4</name>
								<media>
									<video>
										<track>
											<clipitem id="clipitem-87">
												<masterclipid>masterclip-58</masterclipid>
												<name>523997_Beekeeper Honeycomb Beehive Safety Suit_By_Dmitrii_Borovikov__Artlist_HD.mp4</name>
												<rate>
													<timebase>24</timebase>
													<ntsc>FALSE</ntsc>
												</rate>
												<alphatype>none</alphatype>
												<pixelaspectratio>square</pixelaspectratio>
												<anamorphic>FALSE</anamorphic>
												<file id="file-58">
													<name>523997_Beekeeper Honeycomb Beehive Safety Suit_By_Dmitrii_Borovikov__Artlist_HD.mp4</name>
													<pathurl>file://localhost/Volumes/ATM%201/EYE%20CANDY/8%3a21%3a23/3_Raw%20Files/Artlist%20-%20Honeycomb/523997_Beekeeper%20Honeycomb%20Beehive%20Safety%20Suit_By_Dmitrii_Borovikov__Artlist_HD.mp4</pathurl>
													<rate>
														<timebase>24</timebase>
														<ntsc>FALSE</ntsc>
													</rate>
													<duration>341</duration>
													<timecode>
														<rate>
															<timebase>24</timebase>
															<ntsc>FALSE</ntsc>
														</rate>
														<string>08:07:05:06</string>
														<frame>701406</frame>
														<displayformat>NDF</displayformat>
													</timecode>
													<media>
														<video>
															<samplecharacteristics>
																<rate>
																	<timebase>24</timebase>
																	<ntsc>FALSE</ntsc>
																</rate>
																<width>1920</width>
																<height>1080</height>
																<anamorphic>FALSE</anamorphic>
																<pixelaspectratio>square</pixelaspectratio>
																<fielddominance>none</fielddominance>
															</samplecharacteristics>
														</video>
													</media>
												</file>
											</clipitem>
										</track>
									</video>
								</media>
								<logginginfo>
									<description></description>
									<scene></scene>
									<shottake></shottake>
									<lognote></lognote>
									<good></good>
									<originalvideofilename></originalvideofilename>
									<originalaudiofilename></originalaudiofilename>
								</logginginfo>
								<colorinfo>
									<lut></lut>
									<lut1></lut1>
									<asc_sop></asc_sop>
									<asc_sat></asc_sat>
									<lut2></lut2>
								</colorinfo>
								<labels>
								</labels>
							</clip>
							<clip id="masterclip-59" explodedTracks="true">
								<uuid>f9ef1e7a-8cdc-4b8f-b4ea-5c6eaa6e4cf8</uuid>
								<masterclipid>masterclip-59</masterclipid>
								<ismasterclip>TRUE</ismasterclip>
								<duration>337</duration>
								<rate>
									<timebase>24</timebase>
									<ntsc>FALSE</ntsc>
								</rate>
								<out>200</out>
								<name>524000_Honeycomb Honey Production Sticky Beehive_By_Dmitrii_Borovikov__Artlist_HD.mp4</name>
								<media>
									<video>
										<track>
											<clipitem id="clipitem-88">
												<masterclipid>masterclip-59</masterclipid>
												<name>524000_Honeycomb Honey Production Sticky Beehive_By_Dmitrii_Borovikov__Artlist_HD.mp4</name>
												<rate>
													<timebase>24</timebase>
													<ntsc>FALSE</ntsc>
												</rate>
												<alphatype>none</alphatype>
												<pixelaspectratio>square</pixelaspectratio>
												<anamorphic>FALSE</anamorphic>
												<file id="file-59">
													<name>524000_Honeycomb Honey Production Sticky Beehive_By_Dmitrii_Borovikov__Artlist_HD.mp4</name>
													<pathurl>file://localhost/Volumes/ATM%201/EYE%20CANDY/8%3a21%3a23/3_Raw%20Files/Artlist%20-%20Honeycomb/524000_Honeycomb%20Honey%20Production%20Sticky%20Beehive_By_Dmitrii_Borovikov__Artlist_HD.mp4</pathurl>
													<rate>
														<timebase>24</timebase>
														<ntsc>FALSE</ntsc>
													</rate>
													<duration>337</duration>
													<timecode>
														<rate>
															<timebase>24</timebase>
															<ntsc>FALSE</ntsc>
														</rate>
														<string>08:21:22:18</string>
														<frame>721986</frame>
														<displayformat>NDF</displayformat>
													</timecode>
													<media>
														<video>
															<samplecharacteristics>
																<rate>
																	<timebase>24</timebase>
																	<ntsc>FALSE</ntsc>
																</rate>
																<width>1920</width>
																<height>1080</height>
																<anamorphic>FALSE</anamorphic>
																<pixelaspectratio>square</pixelaspectratio>
																<fielddominance>none</fielddominance>
															</samplecharacteristics>
														</video>
													</media>
												</file>
											</clipitem>
										</track>
									</video>
								</media>
								<logginginfo>
									<description></description>
									<scene></scene>
									<shottake></shottake>
									<lognote></lognote>
									<good></good>
									<originalvideofilename></originalvideofilename>
									<originalaudiofilename></originalaudiofilename>
								</logginginfo>
								<colorinfo>
									<lut></lut>
									<lut1></lut1>
									<asc_sop></asc_sop>
									<asc_sat></asc_sat>
									<lut2></lut2>
								</colorinfo>
								<labels>
								</labels>
							</clip>
							<clip id="masterclip-60" explodedTracks="true">
								<uuid>e9c85e9b-bc85-4cf6-93a2-a5c2d789dd0a</uuid>
								<masterclipid>masterclip-60</masterclipid>
								<ismasterclip>TRUE</ismasterclip>
								<duration>267</duration>
								<rate>
									<timebase>24</timebase>
									<ntsc>FALSE</ntsc>
								</rate>
								<name>524001_Honeycomb Honey Production Beehive Knife_By_Dmitrii_Borovikov__Artlist_HD.mp4</name>
								<media>
									<video>
										<track>
											<clipitem id="clipitem-89">
												<masterclipid>masterclip-60</masterclipid>
												<name>524001_Honeycomb Honey Production Beehive Knife_By_Dmitrii_Borovikov__Artlist_HD.mp4</name>
												<rate>
													<timebase>24</timebase>
													<ntsc>FALSE</ntsc>
												</rate>
												<alphatype>none</alphatype>
												<pixelaspectratio>square</pixelaspectratio>
												<anamorphic>FALSE</anamorphic>
												<file id="file-60">
													<name>524001_Honeycomb Honey Production Beehive Knife_By_Dmitrii_Borovikov__Artlist_HD.mp4</name>
													<pathurl>file://localhost/Volumes/ATM%201/EYE%20CANDY/8%3a21%3a23/3_Raw%20Files/Artlist%20-%20Honeycomb/524001_Honeycomb%20Honey%20Production%20Beehive%20Knife_By_Dmitrii_Borovikov__Artlist_HD.mp4</pathurl>
													<rate>
														<timebase>24</timebase>
														<ntsc>FALSE</ntsc>
													</rate>
													<duration>267</duration>
													<timecode>
														<rate>
															<timebase>24</timebase>
															<ntsc>FALSE</ntsc>
														</rate>
														<string>08:21:49:05</string>
														<frame>722621</frame>
														<displayformat>NDF</displayformat>
													</timecode>
													<media>
														<video>
															<samplecharacteristics>
																<rate>
																	<timebase>24</timebase>
																	<ntsc>FALSE</ntsc>
																</rate>
																<width>1920</width>
																<height>1080</height>
																<anamorphic>FALSE</anamorphic>
																<pixelaspectratio>square</pixelaspectratio>
																<fielddominance>none</fielddominance>
															</samplecharacteristics>
														</video>
													</media>
												</file>
											</clipitem>
										</track>
									</video>
								</media>
								<logginginfo>
									<description></description>
									<scene></scene>
									<shottake></shottake>
									<lognote></lognote>
									<good></good>
									<originalvideofilename></originalvideofilename>
									<originalaudiofilename></originalaudiofilename>
								</logginginfo>
								<colorinfo>
									<lut></lut>
									<lut1></lut1>
									<asc_sop></asc_sop>
									<asc_sat></asc_sat>
									<lut2></lut2>
								</colorinfo>
								<labels>
								</labels>
							</clip>
							<clip id="masterclip-61" explodedTracks="true">
								<uuid>f90eb213-8cbb-4aba-baec-c6194d6ebc8b</uuid>
								<masterclipid>masterclip-61</masterclipid>
								<ismasterclip>TRUE</ismasterclip>
								<duration>344</duration>
								<rate>
									<timebase>24</timebase>
									<ntsc>FALSE</ntsc>
								</rate>
								<in>51</in>
								<out>292</out>
								<name>524002_Honeycomb Honey Production Knife Sticky_By_Dmitrii_Borovikov__Artlist_HD.mp4</name>
								<media>
									<video>
										<track>
											<clipitem id="clipitem-90">
												<masterclipid>masterclip-61</masterclipid>
												<name>524002_Honeycomb Honey Production Knife Sticky_By_Dmitrii_Borovikov__Artlist_HD.mp4</name>
												<rate>
													<timebase>24</timebase>
													<ntsc>FALSE</ntsc>
												</rate>
												<alphatype>none</alphatype>
												<pixelaspectratio>square</pixelaspectratio>
												<anamorphic>FALSE</anamorphic>
												<file id="file-61">
													<name>524002_Honeycomb Honey Production Knife Sticky_By_Dmitrii_Borovikov__Artlist_HD.mp4</name>
													<pathurl>file://localhost/Volumes/ATM%201/EYE%20CANDY/8%3a21%3a23/3_Raw%20Files/Artlist%20-%20Honeycomb/524002_Honeycomb%20Honey%20Production%20Knife%20Sticky_By_Dmitrii_Borovikov__Artlist_HD.mp4</pathurl>
													<rate>
														<timebase>24</timebase>
														<ntsc>FALSE</ntsc>
													</rate>
													<duration>344</duration>
													<timecode>
														<rate>
															<timebase>24</timebase>
															<ntsc>FALSE</ntsc>
														</rate>
														<string>08:32:33:22</string>
														<frame>738094</frame>
														<displayformat>NDF</displayformat>
													</timecode>
													<media>
														<video>
															<samplecharacteristics>
																<rate>
																	<timebase>24</timebase>
																	<ntsc>FALSE</ntsc>
																</rate>
																<width>1920</width>
																<height>1080</height>
																<anamorphic>FALSE</anamorphic>
																<pixelaspectratio>square</pixelaspectratio>
																<fielddominance>none</fielddominance>
															</samplecharacteristics>
														</video>
													</media>
												</file>
											</clipitem>
										</track>
									</video>
								</media>
								<logginginfo>
									<description></description>
									<scene></scene>
									<shottake></shottake>
									<lognote></lognote>
									<good></good>
									<originalvideofilename></originalvideofilename>
									<originalaudiofilename></originalaudiofilename>
								</logginginfo>
								<colorinfo>
									<lut></lut>
									<lut1></lut1>
									<asc_sop></asc_sop>
									<asc_sat></asc_sat>
									<lut2></lut2>
								</colorinfo>
								<labels>
								</labels>
							</clip>
							<clip id="masterclip-62" explodedTracks="true">
								<uuid>978f15ee-1242-4970-a11c-4aa49e2bd9e6</uuid>
								<masterclipid>masterclip-62</masterclipid>
								<ismasterclip>TRUE</ismasterclip>
								<duration>401</duration>
								<rate>
									<timebase>24</timebase>
									<ntsc>FALSE</ntsc>
								</rate>
								<in>119</in>
								<out>343</out>
								<name>524003_Honeycomb Honey Production Sweet Dripping_By_Dmitrii_Borovikov__Artlist_HD.mp4</name>
								<media>
									<video>
										<track>
											<clipitem id="clipitem-91">
												<masterclipid>masterclip-62</masterclipid>
												<name>524003_Honeycomb Honey Production Sweet Dripping_By_Dmitrii_Borovikov__Artlist_HD.mp4</name>
												<rate>
													<timebase>24</timebase>
													<ntsc>FALSE</ntsc>
												</rate>
												<alphatype>none</alphatype>
												<pixelaspectratio>square</pixelaspectratio>
												<anamorphic>FALSE</anamorphic>
												<file id="file-62">
													<name>524003_Honeycomb Honey Production Sweet Dripping_By_Dmitrii_Borovikov__Artlist_HD.mp4</name>
													<pathurl>file://localhost/Volumes/ATM%201/EYE%20CANDY/8%3a21%3a23/3_Raw%20Files/Artlist%20-%20Honeycomb/524003_Honeycomb%20Honey%20Production%20Sweet%20Dripping_By_Dmitrii_Borovikov__Artlist_HD.mp4</pathurl>
													<rate>
														<timebase>24</timebase>
														<ntsc>FALSE</ntsc>
													</rate>
													<duration>401</duration>
													<timecode>
														<rate>
															<timebase>24</timebase>
															<ntsc>FALSE</ntsc>
														</rate>
														<string>08:36:13:19</string>
														<frame>743371</frame>
														<displayformat>NDF</displayformat>
													</timecode>
													<media>
														<video>
															<samplecharacteristics>
																<rate>
																	<timebase>24</timebase>
																	<ntsc>FALSE</ntsc>
																</rate>
																<width>1920</width>
																<height>1080</height>
																<anamorphic>FALSE</anamorphic>
																<pixelaspectratio>square</pixelaspectratio>
																<fielddominance>none</fielddominance>
															</samplecharacteristics>
														</video>
													</media>
												</file>
											</clipitem>
										</track>
									</video>
								</media>
								<logginginfo>
									<description></description>
									<scene></scene>
									<shottake></shottake>
									<lognote></lognote>
									<good></good>
									<originalvideofilename></originalvideofilename>
									<originalaudiofilename></originalaudiofilename>
								</logginginfo>
								<colorinfo>
									<lut></lut>
									<lut1></lut1>
									<asc_sop></asc_sop>
									<asc_sat></asc_sat>
									<lut2></lut2>
								</colorinfo>
								<labels>
								</labels>
							</clip>
							<clip id="masterclip-63" explodedTracks="true">
								<uuid>9a48348e-c1b5-4e35-8173-1a0de759816a</uuid>
								<masterclipid>masterclip-63</masterclipid>
								<ismasterclip>TRUE</ismasterclip>
								<duration>452</duration>
								<rate>
									<timebase>24</timebase>
									<ntsc>FALSE</ntsc>
								</rate>
								<in>24</in>
								<out>256</out>
								<name>524004_Honey Production Honeycomb Hands Dripping_By_Dmitrii_Borovikov__Artlist_HD.mp4</name>
								<media>
									<video>
										<track>
											<clipitem id="clipitem-92">
												<masterclipid>masterclip-63</masterclipid>
												<name>524004_Honey Production Honeycomb Hands Dripping_By_Dmitrii_Borovikov__Artlist_HD.mp4</name>
												<rate>
													<timebase>24</timebase>
													<ntsc>FALSE</ntsc>
												</rate>
												<alphatype>none</alphatype>
												<pixelaspectratio>square</pixelaspectratio>
												<anamorphic>FALSE</anamorphic>
												<file id="file-63">
													<name>524004_Honey Production Honeycomb Hands Dripping_By_Dmitrii_Borovikov__Artlist_HD.mp4</name>
													<pathurl>file://localhost/Volumes/ATM%201/EYE%20CANDY/8%3a21%3a23/3_Raw%20Files/Artlist%20-%20Honeycomb/524004_Honey%20Production%20Honeycomb%20Hands%20Dripping_By_Dmitrii_Borovikov__Artlist_HD.mp4</pathurl>
													<rate>
														<timebase>24</timebase>
														<ntsc>FALSE</ntsc>
													</rate>
													<duration>452</duration>
													<timecode>
														<rate>
															<timebase>24</timebase>
															<ntsc>FALSE</ntsc>
														</rate>
														<string>08:37:04:14</string>
														<frame>744590</frame>
														<displayformat>NDF</displayformat>
													</timecode>
													<media>
														<video>
															<samplecharacteristics>
																<rate>
																	<timebase>24</timebase>
																	<ntsc>FALSE</ntsc>
																</rate>
																<width>1920</width>
																<height>1080</height>
																<anamorphic>FALSE</anamorphic>
																<pixelaspectratio>square</pixelaspectratio>
																<fielddominance>none</fielddominance>
															</samplecharacteristics>
														</video>
													</media>
												</file>
											</clipitem>
										</track>
									</video>
								</media>
								<logginginfo>
									<description></description>
									<scene></scene>
									<shottake></shottake>
									<lognote></lognote>
									<good></good>
									<originalvideofilename></originalvideofilename>
									<originalaudiofilename></originalaudiofilename>
								</logginginfo>
								<colorinfo>
									<lut></lut>
									<lut1></lut1>
									<asc_sop></asc_sop>
									<asc_sat></asc_sat>
									<lut2></lut2>
								</colorinfo>
								<labels>
								</labels>
							</clip>
						</children>
					</bin>
					<bin>
						<name>Artlist - Purple Smoothie</name>
						<children>
							<clip id="masterclip-64" explodedTracks="true">
								<uuid>26606929-0dd3-4413-a242-1edaa0051aec</uuid>
								<masterclipid>masterclip-64</masterclipid>
								<ismasterclip>TRUE</ismasterclip>
								<duration>129</duration>
								<rate>
									<timebase>25</timebase>
									<ntsc>FALSE</ntsc>
								</rate>
								<out>109</out>
								<name>561511_Blender Top Shot Milkshake Fruits_By_Stockbusters_Artlist_HD.mp4</name>
								<media>
									<video>
										<track>
											<clipitem id="clipitem-93">
												<masterclipid>masterclip-64</masterclipid>
												<name>561511_Blender Top Shot Milkshake Fruits_By_Stockbusters_Artlist_HD.mp4</name>
												<rate>
													<timebase>25</timebase>
													<ntsc>FALSE</ntsc>
												</rate>
												<alphatype>none</alphatype>
												<pixelaspectratio>square</pixelaspectratio>
												<anamorphic>FALSE</anamorphic>
												<file id="file-64">
													<name>561511_Blender Top Shot Milkshake Fruits_By_Stockbusters_Artlist_HD.mp4</name>
													<pathurl>file://localhost/Volumes/ATM%201/EYE%20CANDY/8%3a21%3a23/3_Raw%20Files/Artlist%20-%20Purple%20Smoothie/561511_Blender%20Top%20Shot%20Milkshake%20Fruits_By_Stockbusters_Artlist_HD.mp4</pathurl>
													<rate>
														<timebase>25</timebase>
														<ntsc>FALSE</ntsc>
													</rate>
													<duration>129</duration>
													<timecode>
														<rate>
															<timebase>25</timebase>
															<ntsc>FALSE</ntsc>
														</rate>
														<string>00:00:00:01</string>
														<frame>1</frame>
														<displayformat>NDF</displayformat>
													</timecode>
													<media>
														<video>
															<samplecharacteristics>
																<rate>
																	<timebase>25</timebase>
																	<ntsc>FALSE</ntsc>
																</rate>
																<width>1920</width>
																<height>1080</height>
																<anamorphic>FALSE</anamorphic>
																<pixelaspectratio>square</pixelaspectratio>
																<fielddominance>none</fielddominance>
															</samplecharacteristics>
														</video>
													</media>
												</file>
											</clipitem>
										</track>
									</video>
								</media>
								<logginginfo>
									<description></description>
									<scene></scene>
									<shottake></shottake>
									<lognote></lognote>
									<good></good>
									<originalvideofilename></originalvideofilename>
									<originalaudiofilename></originalaudiofilename>
								</logginginfo>
								<colorinfo>
									<lut></lut>
									<lut1></lut1>
									<asc_sop></asc_sop>
									<asc_sat></asc_sat>
									<lut2></lut2>
								</colorinfo>
								<labels>
								</labels>
							</clip>
							<clip id="masterclip-65" explodedTracks="true">
								<uuid>9044d045-dfdd-4d1a-8470-621645e83d61</uuid>
								<masterclipid>masterclip-65</masterclipid>
								<ismasterclip>TRUE</ismasterclip>
								<duration>342</duration>
								<rate>
									<timebase>25</timebase>
									<ntsc>FALSE</ntsc>
								</rate>
								<name>561513_Blender Milkshake Fruits Top Shot_By_Stockbusters_Artlist_HD.mp4</name>
								<media>
									<video>
										<track>
											<clipitem id="clipitem-94">
												<masterclipid>masterclip-65</masterclipid>
												<name>561513_Blender Milkshake Fruits Top Shot_By_Stockbusters_Artlist_HD.mp4</name>
												<rate>
													<timebase>25</timebase>
													<ntsc>FALSE</ntsc>
												</rate>
												<alphatype>none</alphatype>
												<pixelaspectratio>square</pixelaspectratio>
												<anamorphic>FALSE</anamorphic>
												<file id="file-65">
													<name>561513_Blender Milkshake Fruits Top Shot_By_Stockbusters_Artlist_HD.mp4</name>
													<pathurl>file://localhost/Volumes/ATM%201/EYE%20CANDY/8%3a21%3a23/3_Raw%20Files/Artlist%20-%20Purple%20Smoothie/561513_Blender%20Milkshake%20Fruits%20Top%20Shot_By_Stockbusters_Artlist_HD.mp4</pathurl>
													<rate>
														<timebase>25</timebase>
														<ntsc>FALSE</ntsc>
													</rate>
													<duration>342</duration>
													<timecode>
														<rate>
															<timebase>25</timebase>
															<ntsc>FALSE</ntsc>
														</rate>
														<string>00:00:00:01</string>
														<frame>1</frame>
														<displayformat>NDF</displayformat>
													</timecode>
													<media>
														<video>
															<samplecharacteristics>
																<rate>
																	<timebase>25</timebase>
																	<ntsc>FALSE</ntsc>
																</rate>
																<width>1920</width>
																<height>1080</height>
																<anamorphic>FALSE</anamorphic>
																<pixelaspectratio>square</pixelaspectratio>
																<fielddominance>none</fielddominance>
															</samplecharacteristics>
														</video>
													</media>
												</file>
											</clipitem>
										</track>
									</video>
								</media>
								<logginginfo>
									<description></description>
									<scene></scene>
									<shottake></shottake>
									<lognote></lognote>
									<good></good>
									<originalvideofilename></originalvideofilename>
									<originalaudiofilename></originalaudiofilename>
								</logginginfo>
								<colorinfo>
									<lut></lut>
									<lut1></lut1>
									<asc_sop></asc_sop>
									<asc_sat></asc_sat>
									<lut2></lut2>
								</colorinfo>
								<labels>
								</labels>
							</clip>
							<clip id="masterclip-66" explodedTracks="true">
								<uuid>eab8f08b-2574-46ba-bbe2-7d7fe1ff6aaf</uuid>
								<masterclipid>masterclip-66</masterclipid>
								<ismasterclip>TRUE</ismasterclip>
								<duration>168</duration>
								<rate>
									<timebase>25</timebase>
									<ntsc>FALSE</ntsc>
								</rate>
								<name>561518_Milkshake Blender Top Shot Spinning_By_Stockbusters_Artlist_HD.mp4</name>
								<media>
									<video>
										<track>
											<clipitem id="clipitem-95">
												<masterclipid>masterclip-66</masterclipid>
												<name>561518_Milkshake Blender Top Shot Spinning_By_Stockbusters_Artlist_HD.mp4</name>
												<rate>
													<timebase>25</timebase>
													<ntsc>FALSE</ntsc>
												</rate>
												<alphatype>none</alphatype>
												<pixelaspectratio>square</pixelaspectratio>
												<anamorphic>FALSE</anamorphic>
												<file id="file-66">
													<name>561518_Milkshake Blender Top Shot Spinning_By_Stockbusters_Artlist_HD.mp4</name>
													<pathurl>file://localhost/Volumes/ATM%201/EYE%20CANDY/8%3a21%3a23/3_Raw%20Files/Artlist%20-%20Purple%20Smoothie/561518_Milkshake%20Blender%20Top%20Shot%20Spinning_By_Stockbusters_Artlist_HD.mp4</pathurl>
													<rate>
														<timebase>25</timebase>
														<ntsc>FALSE</ntsc>
													</rate>
													<duration>168</duration>
													<timecode>
														<rate>
															<timebase>25</timebase>
															<ntsc>FALSE</ntsc>
														</rate>
														<string>00:00:00:01</string>
														<frame>1</frame>
														<displayformat>NDF</displayformat>
													</timecode>
													<media>
														<video>
															<samplecharacteristics>
																<rate>
																	<timebase>25</timebase>
																	<ntsc>FALSE</ntsc>
																</rate>
																<width>1920</width>
																<height>1080</height>
																<anamorphic>FALSE</anamorphic>
																<pixelaspectratio>square</pixelaspectratio>
																<fielddominance>none</fielddominance>
															</samplecharacteristics>
														</video>
													</media>
												</file>
											</clipitem>
										</track>
									</video>
								</media>
								<logginginfo>
									<description></description>
									<scene></scene>
									<shottake></shottake>
									<lognote></lognote>
									<good></good>
									<originalvideofilename></originalvideofilename>
									<originalaudiofilename></originalaudiofilename>
								</logginginfo>
								<colorinfo>
									<lut></lut>
									<lut1></lut1>
									<asc_sop></asc_sop>
									<asc_sat></asc_sat>
									<lut2></lut2>
								</colorinfo>
								<labels>
								</labels>
							</clip>
							<clip id="masterclip-67" explodedTracks="true">
								<uuid>b75fde66-f7d7-4eef-8677-1ee26ecbb94e</uuid>
								<masterclipid>masterclip-67</masterclipid>
								<ismasterclip>TRUE</ismasterclip>
								<duration>212</duration>
								<rate>
									<timebase>25</timebase>
									<ntsc>FALSE</ntsc>
								</rate>
								<out>121</out>
								<name>561519_Milkshake Spinning Blend Top Shot_By_Stockbusters_Artlist_HD.mp4</name>
								<media>
									<video>
										<track>
											<clipitem id="clipitem-96">
												<masterclipid>masterclip-67</masterclipid>
												<name>561519_Milkshake Spinning Blend Top Shot_By_Stockbusters_Artlist_HD.mp4</name>
												<rate>
													<timebase>25</timebase>
													<ntsc>FALSE</ntsc>
												</rate>
												<alphatype>none</alphatype>
												<pixelaspectratio>square</pixelaspectratio>
												<anamorphic>FALSE</anamorphic>
												<file id="file-67">
													<name>561519_Milkshake Spinning Blend Top Shot_By_Stockbusters_Artlist_HD.mp4</name>
													<pathurl>file://localhost/Volumes/ATM%201/EYE%20CANDY/8%3a21%3a23/3_Raw%20Files/Artlist%20-%20Purple%20Smoothie/561519_Milkshake%20Spinning%20Blend%20Top%20Shot_By_Stockbusters_Artlist_HD.mp4</pathurl>
													<rate>
														<timebase>25</timebase>
														<ntsc>FALSE</ntsc>
													</rate>
													<duration>212</duration>
													<timecode>
														<rate>
															<timebase>25</timebase>
															<ntsc>FALSE</ntsc>
														</rate>
														<string>00:00:00:01</string>
														<frame>1</frame>
														<displayformat>NDF</displayformat>
													</timecode>
													<media>
														<video>
															<samplecharacteristics>
																<rate>
																	<timebase>25</timebase>
																	<ntsc>FALSE</ntsc>
																</rate>
																<width>1920</width>
																<height>1080</height>
																<anamorphic>FALSE</anamorphic>
																<pixelaspectratio>square</pixelaspectratio>
																<fielddominance>none</fielddominance>
															</samplecharacteristics>
														</video>
													</media>
												</file>
											</clipitem>
										</track>
									</video>
								</media>
								<logginginfo>
									<description></description>
									<scene></scene>
									<shottake></shottake>
									<lognote></lognote>
									<good></good>
									<originalvideofilename></originalvideofilename>
									<originalaudiofilename></originalaudiofilename>
								</logginginfo>
								<colorinfo>
									<lut></lut>
									<lut1></lut1>
									<asc_sop></asc_sop>
									<asc_sat></asc_sat>
									<lut2></lut2>
								</colorinfo>
								<labels>
								</labels>
							</clip>
							<clip id="masterclip-68" explodedTracks="true">
								<uuid>0180e9f5-4b24-4f57-8ab2-f64e7b2f6d03</uuid>
								<masterclipid>masterclip-68</masterclipid>
								<ismasterclip>TRUE</ismasterclip>
								<duration>202</duration>
								<rate>
									<timebase>25</timebase>
									<ntsc>FALSE</ntsc>
								</rate>
								<name>561520_Milkshake Bubbles Blender Top Shot_By_Stockbusters_Artlist_HD.mp4</name>
								<media>
									<video>
										<track>
											<clipitem id="clipitem-97">
												<masterclipid>masterclip-68</masterclipid>
												<name>561520_Milkshake Bubbles Blender Top Shot_By_Stockbusters_Artlist_HD.mp4</name>
												<rate>
													<timebase>25</timebase>
													<ntsc>FALSE</ntsc>
												</rate>
												<alphatype>none</alphatype>
												<pixelaspectratio>square</pixelaspectratio>
												<anamorphic>FALSE</anamorphic>
												<file id="file-68">
													<name>561520_Milkshake Bubbles Blender Top Shot_By_Stockbusters_Artlist_HD.mp4</name>
													<pathurl>file://localhost/Volumes/ATM%201/EYE%20CANDY/8%3a21%3a23/3_Raw%20Files/Artlist%20-%20Purple%20Smoothie/561520_Milkshake%20Bubbles%20Blender%20Top%20Shot_By_Stockbusters_Artlist_HD.mp4</pathurl>
													<rate>
														<timebase>25</timebase>
														<ntsc>FALSE</ntsc>
													</rate>
													<duration>202</duration>
													<timecode>
														<rate>
															<timebase>25</timebase>
															<ntsc>FALSE</ntsc>
														</rate>
														<string>00:00:00:01</string>
														<frame>1</frame>
														<displayformat>NDF</displayformat>
													</timecode>
													<media>
														<video>
															<samplecharacteristics>
																<rate>
																	<timebase>25</timebase>
																	<ntsc>FALSE</ntsc>
																</rate>
																<width>1920</width>
																<height>1080</height>
																<anamorphic>FALSE</anamorphic>
																<pixelaspectratio>square</pixelaspectratio>
																<fielddominance>none</fielddominance>
															</samplecharacteristics>
														</video>
													</media>
												</file>
											</clipitem>
										</track>
									</video>
								</media>
								<logginginfo>
									<description></description>
									<scene></scene>
									<shottake></shottake>
									<lognote></lognote>
									<good></good>
									<originalvideofilename></originalvideofilename>
									<originalaudiofilename></originalaudiofilename>
								</logginginfo>
								<colorinfo>
									<lut></lut>
									<lut1></lut1>
									<asc_sop></asc_sop>
									<asc_sat></asc_sat>
									<lut2></lut2>
								</colorinfo>
								<labels>
								</labels>
							</clip>
							<clip id="masterclip-69" explodedTracks="true">
								<uuid>627c9919-3374-41e5-92b9-79d2353752b7</uuid>
								<masterclipid>masterclip-69</masterclipid>
								<ismasterclip>TRUE</ismasterclip>
								<duration>157</duration>
								<rate>
									<timebase>25</timebase>
									<ntsc>FALSE</ntsc>
								</rate>
								<out>141</out>
								<name>561525_Milkshake Fruits Blender Top Shot_By_Stockbusters_Artlist_HD.mp4</name>
								<media>
									<video>
										<track>
											<clipitem id="clipitem-98">
												<masterclipid>masterclip-69</masterclipid>
												<name>561525_Milkshake Fruits Blender Top Shot_By_Stockbusters_Artlist_HD.mp4</name>
												<rate>
													<timebase>25</timebase>
													<ntsc>FALSE</ntsc>
												</rate>
												<alphatype>none</alphatype>
												<pixelaspectratio>square</pixelaspectratio>
												<anamorphic>FALSE</anamorphic>
												<file id="file-69">
													<name>561525_Milkshake Fruits Blender Top Shot_By_Stockbusters_Artlist_HD.mp4</name>
													<pathurl>file://localhost/Volumes/ATM%201/EYE%20CANDY/8%3a21%3a23/3_Raw%20Files/Artlist%20-%20Purple%20Smoothie/561525_Milkshake%20Fruits%20Blender%20Top%20Shot_By_Stockbusters_Artlist_HD.mp4</pathurl>
													<rate>
														<timebase>25</timebase>
														<ntsc>FALSE</ntsc>
													</rate>
													<duration>157</duration>
													<timecode>
														<rate>
															<timebase>25</timebase>
															<ntsc>FALSE</ntsc>
														</rate>
														<string>00:00:00:01</string>
														<frame>1</frame>
														<displayformat>NDF</displayformat>
													</timecode>
													<media>
														<video>
															<samplecharacteristics>
																<rate>
																	<timebase>25</timebase>
																	<ntsc>FALSE</ntsc>
																</rate>
																<width>1920</width>
																<height>1080</height>
																<anamorphic>FALSE</anamorphic>
																<pixelaspectratio>square</pixelaspectratio>
																<fielddominance>none</fielddominance>
															</samplecharacteristics>
														</video>
													</media>
												</file>
											</clipitem>
										</track>
									</video>
								</media>
								<logginginfo>
									<description></description>
									<scene></scene>
									<shottake></shottake>
									<lognote></lognote>
									<good></good>
									<originalvideofilename></originalvideofilename>
									<originalaudiofilename></originalaudiofilename>
								</logginginfo>
								<colorinfo>
									<lut></lut>
									<lut1></lut1>
									<asc_sop></asc_sop>
									<asc_sat></asc_sat>
									<lut2></lut2>
								</colorinfo>
								<labels>
								</labels>
							</clip>
							<clip id="masterclip-70" explodedTracks="true">
								<uuid>38a87636-7483-4dd2-bae5-9b9f3ef7f6ed</uuid>
								<masterclipid>masterclip-70</masterclipid>
								<ismasterclip>TRUE</ismasterclip>
								<duration>230</duration>
								<rate>
									<timebase>25</timebase>
									<ntsc>FALSE</ntsc>
								</rate>
								<out>148</out>
								<name>561527_Top Shot Pink Liquid Bubbles_By_Stockbusters_Artlist_HD.mp4</name>
								<media>
									<video>
										<track>
											<clipitem id="clipitem-99">
												<masterclipid>masterclip-70</masterclipid>
												<name>561527_Top Shot Pink Liquid Bubbles_By_Stockbusters_Artlist_HD.mp4</name>
												<rate>
													<timebase>25</timebase>
													<ntsc>FALSE</ntsc>
												</rate>
												<alphatype>none</alphatype>
												<pixelaspectratio>square</pixelaspectratio>
												<anamorphic>FALSE</anamorphic>
												<file id="file-70">
													<name>561527_Top Shot Pink Liquid Bubbles_By_Stockbusters_Artlist_HD.mp4</name>
													<pathurl>file://localhost/Volumes/ATM%201/EYE%20CANDY/8%3a21%3a23/3_Raw%20Files/Artlist%20-%20Purple%20Smoothie/561527_Top%20Shot%20Pink%20Liquid%20Bubbles_By_Stockbusters_Artlist_HD.mp4</pathurl>
													<rate>
														<timebase>25</timebase>
														<ntsc>FALSE</ntsc>
													</rate>
													<duration>230</duration>
													<timecode>
														<rate>
															<timebase>25</timebase>
															<ntsc>FALSE</ntsc>
														</rate>
														<string>00:00:00:01</string>
														<frame>1</frame>
														<displayformat>NDF</displayformat>
													</timecode>
													<media>
														<video>
															<samplecharacteristics>
																<rate>
																	<timebase>25</timebase>
																	<ntsc>FALSE</ntsc>
																</rate>
																<width>1920</width>
																<height>1080</height>
																<anamorphic>FALSE</anamorphic>
																<pixelaspectratio>square</pixelaspectratio>
																<fielddominance>none</fielddominance>
															</samplecharacteristics>
														</video>
													</media>
												</file>
											</clipitem>
										</track>
									</video>
								</media>
								<logginginfo>
									<description></description>
									<scene></scene>
									<shottake></shottake>
									<lognote></lognote>
									<good></good>
									<originalvideofilename></originalvideofilename>
									<originalaudiofilename></originalaudiofilename>
								</logginginfo>
								<colorinfo>
									<lut></lut>
									<lut1></lut1>
									<asc_sop></asc_sop>
									<asc_sat></asc_sat>
									<lut2></lut2>
								</colorinfo>
								<labels>
								</labels>
							</clip>
							<clip id="masterclip-71" explodedTracks="true">
								<uuid>be5e77c4-5690-4886-8fbf-949badc979b7</uuid>
								<masterclipid>masterclip-71</masterclipid>
								<ismasterclip>TRUE</ismasterclip>
								<duration>141</duration>
								<rate>
									<timebase>25</timebase>
									<ntsc>FALSE</ntsc>
								</rate>
								<out>133</out>
								<name>561528_Milkshake Blender Top Shot Milk_By_Stockbusters_Artlist_HD.mp4</name>
								<media>
									<video>
										<track>
											<clipitem id="clipitem-100">
												<masterclipid>masterclip-71</masterclipid>
												<name>561528_Milkshake Blender Top Shot Milk_By_Stockbusters_Artlist_HD.mp4</name>
												<rate>
													<timebase>25</timebase>
													<ntsc>FALSE</ntsc>
												</rate>
												<alphatype>none</alphatype>
												<pixelaspectratio>square</pixelaspectratio>
												<anamorphic>FALSE</anamorphic>
												<file id="file-71">
													<name>561528_Milkshake Blender Top Shot Milk_By_Stockbusters_Artlist_HD.mp4</name>
													<pathurl>file://localhost/Volumes/ATM%201/EYE%20CANDY/8%3a21%3a23/3_Raw%20Files/Artlist%20-%20Purple%20Smoothie/561528_Milkshake%20Blender%20Top%20Shot%20Milk_By_Stockbusters_Artlist_HD.mp4</pathurl>
													<rate>
														<timebase>25</timebase>
														<ntsc>FALSE</ntsc>
													</rate>
													<duration>141</duration>
													<timecode>
														<rate>
															<timebase>25</timebase>
															<ntsc>FALSE</ntsc>
														</rate>
														<string>00:00:00:01</string>
														<frame>1</frame>
														<displayformat>NDF</displayformat>
													</timecode>
													<media>
														<video>
															<samplecharacteristics>
																<rate>
																	<timebase>25</timebase>
																	<ntsc>FALSE</ntsc>
																</rate>
																<width>1920</width>
																<height>1080</height>
																<anamorphic>FALSE</anamorphic>
																<pixelaspectratio>square</pixelaspectratio>
																<fielddominance>none</fielddominance>
															</samplecharacteristics>
														</video>
													</media>
												</file>
											</clipitem>
										</track>
									</video>
								</media>
								<logginginfo>
									<description></description>
									<scene></scene>
									<shottake></shottake>
									<lognote></lognote>
									<good></good>
									<originalvideofilename></originalvideofilename>
									<originalaudiofilename></originalaudiofilename>
								</logginginfo>
								<colorinfo>
									<lut></lut>
									<lut1></lut1>
									<asc_sop></asc_sop>
									<asc_sat></asc_sat>
									<lut2></lut2>
								</colorinfo>
								<labels>
								</labels>
							</clip>
							<clip id="masterclip-72" explodedTracks="true">
								<uuid>c33743d0-b6dd-4994-88bd-d3703b768419</uuid>
								<masterclipid>masterclip-72</masterclipid>
								<ismasterclip>TRUE</ismasterclip>
								<duration>211</duration>
								<rate>
									<timebase>25</timebase>
									<ntsc>FALSE</ntsc>
								</rate>
								<out>126</out>
								<name>561537_Blender Milkshake Fruits Milk_By_Stockbusters_Artlist_HD.mp4</name>
								<media>
									<video>
										<track>
											<clipitem id="clipitem-101">
												<masterclipid>masterclip-72</masterclipid>
												<name>561537_Blender Milkshake Fruits Milk_By_Stockbusters_Artlist_HD.mp4</name>
												<rate>
													<timebase>25</timebase>
													<ntsc>FALSE</ntsc>
												</rate>
												<alphatype>none</alphatype>
												<pixelaspectratio>square</pixelaspectratio>
												<anamorphic>FALSE</anamorphic>
												<file id="file-72">
													<name>561537_Blender Milkshake Fruits Milk_By_Stockbusters_Artlist_HD.mp4</name>
													<pathurl>file://localhost/Volumes/ATM%201/EYE%20CANDY/8%3a21%3a23/3_Raw%20Files/Artlist%20-%20Purple%20Smoothie/561537_Blender%20Milkshake%20Fruits%20Milk_By_Stockbusters_Artlist_HD.mp4</pathurl>
													<rate>
														<timebase>25</timebase>
														<ntsc>FALSE</ntsc>
													</rate>
													<duration>211</duration>
													<timecode>
														<rate>
															<timebase>25</timebase>
															<ntsc>FALSE</ntsc>
														</rate>
														<string>00:00:00:01</string>
														<frame>1</frame>
														<displayformat>NDF</displayformat>
													</timecode>
													<media>
														<video>
															<samplecharacteristics>
																<rate>
																	<timebase>25</timebase>
																	<ntsc>FALSE</ntsc>
																</rate>
																<width>1920</width>
																<height>1080</height>
																<anamorphic>FALSE</anamorphic>
																<pixelaspectratio>square</pixelaspectratio>
																<fielddominance>none</fielddominance>
															</samplecharacteristics>
														</video>
													</media>
												</file>
											</clipitem>
										</track>
									</video>
								</media>
								<logginginfo>
									<description></description>
									<scene></scene>
									<shottake></shottake>
									<lognote></lognote>
									<good></good>
									<originalvideofilename></originalvideofilename>
									<originalaudiofilename></originalaudiofilename>
								</logginginfo>
								<colorinfo>
									<lut></lut>
									<lut1></lut1>
									<asc_sop></asc_sop>
									<asc_sat></asc_sat>
									<lut2></lut2>
								</colorinfo>
								<labels>
								</labels>
							</clip>
						</children>
					</bin>
					<bin>
						<name>Artlist - Peanuts</name>
						<children>
							<clip id="masterclip-73" explodedTracks="true">
								<uuid>0bce93ce-d0bb-4298-92ac-8c1754f134bd</uuid>
								<masterclipid>masterclip-73</masterclipid>
								<ismasterclip>TRUE</ismasterclip>
								<duration>523</duration>
								<rate>
									<timebase>24</timebase>
									<ntsc>TRUE</ntsc>
								</rate>
								<out>197</out>
								<name>100428_Peanuts thrown up in the air and falling back down _By_Via_Films_Artlist_HD.mp4</name>
								<media>
									<video>
										<track>
											<clipitem id="clipitem-102">
												<masterclipid>masterclip-73</masterclipid>
												<name>100428_Peanuts thrown up in the air and falling back down _By_Via_Films_Artlist_HD.mp4</name>
												<rate>
													<timebase>24</timebase>
													<ntsc>TRUE</ntsc>
												</rate>
												<alphatype>none</alphatype>
												<pixelaspectratio>square</pixelaspectratio>
												<anamorphic>FALSE</anamorphic>
												<file id="file-73">
													<name>100428_Peanuts thrown up in the air and falling back down _By_Via_Films_Artlist_HD.mp4</name>
													<pathurl>file://localhost/Volumes/ATM%201/EYE%20CANDY/8%3a21%3a23/3_Raw%20Files/Artlist%20-%20Peanuts/100428_Peanuts%20thrown%20up%20in%20the%20air%20and%20falling%20back%20down%20_By_Via_Films_Artlist_HD.mp4</pathurl>
													<rate>
														<timebase>24</timebase>
														<ntsc>TRUE</ntsc>
													</rate>
													<duration>523</duration>
													<timecode>
														<rate>
															<timebase>24</timebase>
															<ntsc>TRUE</ntsc>
														</rate>
														<string>13:54:38:01</string>
														<frame>1201873</frame>
														<displayformat>NDF</displayformat>
													</timecode>
													<media>
														<video>
															<samplecharacteristics>
																<rate>
																	<timebase>24</timebase>
																	<ntsc>TRUE</ntsc>
																</rate>
																<width>1920</width>
																<height>1080</height>
																<anamorphic>FALSE</anamorphic>
																<pixelaspectratio>square</pixelaspectratio>
																<fielddominance>none</fielddominance>
															</samplecharacteristics>
														</video>
													</media>
												</file>
											</clipitem>
										</track>
									</video>
								</media>
								<logginginfo>
									<description></description>
									<scene></scene>
									<shottake></shottake>
									<lognote></lognote>
									<good></good>
									<originalvideofilename></originalvideofilename>
									<originalaudiofilename></originalaudiofilename>
								</logginginfo>
								<colorinfo>
									<lut></lut>
									<lut1></lut1>
									<asc_sop></asc_sop>
									<asc_sat></asc_sat>
									<lut2></lut2>
								</colorinfo>
								<labels>
								</labels>
							</clip>
							<clip id="masterclip-74" explodedTracks="true">
								<uuid>dcc6bbb3-19f4-41cf-b353-4e29b1675e62</uuid>
								<masterclipid>masterclip-74</masterclipid>
								<ismasterclip>TRUE</ismasterclip>
								<duration>405</duration>
								<rate>
									<timebase>24</timebase>
									<ntsc>TRUE</ntsc>
								</rate>
								<in>183</in>
								<out>355</out>
								<name>100429_Peanuts flying up in the air and falling back down _By_Via_Films_Artlist_HD.mp4</name>
								<media>
									<video>
										<track>
											<clipitem id="clipitem-103">
												<masterclipid>masterclip-74</masterclipid>
												<name>100429_Peanuts flying up in the air and falling back down _By_Via_Films_Artlist_HD.mp4</name>
												<rate>
													<timebase>24</timebase>
													<ntsc>TRUE</ntsc>
												</rate>
												<alphatype>none</alphatype>
												<pixelaspectratio>square</pixelaspectratio>
												<anamorphic>FALSE</anamorphic>
												<file id="file-74">
													<name>100429_Peanuts flying up in the air and falling back down _By_Via_Films_Artlist_HD.mp4</name>
													<pathurl>file://localhost/Volumes/ATM%201/EYE%20CANDY/8%3a21%3a23/3_Raw%20Files/Artlist%20-%20Peanuts/100429_Peanuts%20flying%20up%20in%20the%20air%20and%20falling%20back%20down%20_By_Via_Films_Artlist_HD.mp4</pathurl>
													<rate>
														<timebase>24</timebase>
														<ntsc>TRUE</ntsc>
													</rate>
													<duration>405</duration>
													<timecode>
														<rate>
															<timebase>24</timebase>
															<ntsc>TRUE</ntsc>
														</rate>
														<string>04:16:25:11</string>
														<frame>369251</frame>
														<displayformat>NDF</displayformat>
													</timecode>
													<media>
														<video>
															<samplecharacteristics>
																<rate>
																	<timebase>24</timebase>
																	<ntsc>TRUE</ntsc>
																</rate>
																<width>1920</width>
																<height>1080</height>
																<anamorphic>FALSE</anamorphic>
																<pixelaspectratio>square</pixelaspectratio>
																<fielddominance>none</fielddominance>
															</samplecharacteristics>
														</video>
													</media>
												</file>
											</clipitem>
										</track>
									</video>
								</media>
								<logginginfo>
									<description></description>
									<scene></scene>
									<shottake></shottake>
									<lognote></lognote>
									<good></good>
									<originalvideofilename></originalvideofilename>
									<originalaudiofilename></originalaudiofilename>
								</logginginfo>
								<colorinfo>
									<lut></lut>
									<lut1></lut1>
									<asc_sop></asc_sop>
									<asc_sat></asc_sat>
									<lut2></lut2>
								</colorinfo>
								<labels>
								</labels>
							</clip>
							<clip id="masterclip-75" explodedTracks="true">
								<uuid>f425b139-62a7-46e9-9a56-1329ed91f84d</uuid>
								<masterclipid>masterclip-75</masterclipid>
								<ismasterclip>TRUE</ismasterclip>
								<duration>498</duration>
								<rate>
									<timebase>24</timebase>
									<ntsc>TRUE</ntsc>
								</rate>
								<in>38</in>
								<out>277</out>
								<name>100437_Peanuts flying up and falling back down _By_Via_Films_Artlist_HD.mp4</name>
								<media>
									<video>
										<track>
											<clipitem id="clipitem-104">
												<masterclipid>masterclip-75</masterclipid>
												<name>100437_Peanuts flying up and falling back down _By_Via_Films_Artlist_HD.mp4</name>
												<rate>
													<timebase>24</timebase>
													<ntsc>TRUE</ntsc>
												</rate>
												<alphatype>none</alphatype>
												<pixelaspectratio>square</pixelaspectratio>
												<anamorphic>FALSE</anamorphic>
												<file id="file-75">
													<name>100437_Peanuts flying up and falling back down _By_Via_Films_Artlist_HD.mp4</name>
													<pathurl>file://localhost/Volumes/ATM%201/EYE%20CANDY/8%3a21%3a23/3_Raw%20Files/Artlist%20-%20Peanuts/100437_Peanuts%20flying%20up%20and%20falling%20back%20down%20_By_Via_Films_Artlist_HD.mp4</pathurl>
													<rate>
														<timebase>24</timebase>
														<ntsc>TRUE</ntsc>
													</rate>
													<duration>498</duration>
													<timecode>
														<rate>
															<timebase>24</timebase>
															<ntsc>TRUE</ntsc>
														</rate>
														<string>14:23:47:10</string>
														<frame>1243858</frame>
														<displayformat>NDF</displayformat>
													</timecode>
													<media>
														<video>
															<samplecharacteristics>
																<rate>
																	<timebase>24</timebase>
																	<ntsc>TRUE</ntsc>
																</rate>
																<width>1920</width>
																<height>1080</height>
																<anamorphic>FALSE</anamorphic>
																<pixelaspectratio>square</pixelaspectratio>
																<fielddominance>none</fielddominance>
															</samplecharacteristics>
														</video>
													</media>
												</file>
											</clipitem>
										</track>
									</video>
								</media>
								<logginginfo>
									<description></description>
									<scene></scene>
									<shottake></shottake>
									<lognote></lognote>
									<good></good>
									<originalvideofilename></originalvideofilename>
									<originalaudiofilename></originalaudiofilename>
								</logginginfo>
								<colorinfo>
									<lut></lut>
									<lut1></lut1>
									<asc_sop></asc_sop>
									<asc_sat></asc_sat>
									<lut2></lut2>
								</colorinfo>
								<labels>
								</labels>
							</clip>
							<clip id="masterclip-76" explodedTracks="true">
								<uuid>65daf281-65f6-4780-a96a-106df50f7d70</uuid>
								<masterclipid>masterclip-76</masterclipid>
								<ismasterclip>TRUE</ismasterclip>
								<duration>571</duration>
								<rate>
									<timebase>24</timebase>
									<ntsc>TRUE</ntsc>
								</rate>
								<out>242</out>
								<name>100453_Peanuts falling onto a wooden surface _By_Via_Films_Artlist_HD.mp4</name>
								<media>
									<video>
										<track>
											<clipitem id="clipitem-105">
												<masterclipid>masterclip-76</masterclipid>
												<name>100453_Peanuts falling onto a wooden surface _By_Via_Films_Artlist_HD.mp4</name>
												<rate>
													<timebase>24</timebase>
													<ntsc>TRUE</ntsc>
												</rate>
												<alphatype>none</alphatype>
												<pixelaspectratio>square</pixelaspectratio>
												<anamorphic>FALSE</anamorphic>
												<file id="file-76">
													<name>100453_Peanuts falling onto a wooden surface _By_Via_Films_Artlist_HD.mp4</name>
													<pathurl>file://localhost/Volumes/ATM%201/EYE%20CANDY/8%3a21%3a23/3_Raw%20Files/Artlist%20-%20Peanuts/100453_Peanuts%20falling%20onto%20a%20wooden%20surface%20_By_Via_Films_Artlist_HD.mp4</pathurl>
													<rate>
														<timebase>24</timebase>
														<ntsc>TRUE</ntsc>
													</rate>
													<duration>571</duration>
													<timecode>
														<rate>
															<timebase>24</timebase>
															<ntsc>TRUE</ntsc>
														</rate>
														<string>00:06:10:00</string>
														<frame>8880</frame>
														<displayformat>NDF</displayformat>
													</timecode>
													<media>
														<video>
															<samplecharacteristics>
																<rate>
																	<timebase>24</timebase>
																	<ntsc>TRUE</ntsc>
																</rate>
																<width>1920</width>
																<height>1080</height>
																<anamorphic>FALSE</anamorphic>
																<pixelaspectratio>square</pixelaspectratio>
																<fielddominance>none</fielddominance>
															</samplecharacteristics>
														</video>
													</media>
												</file>
											</clipitem>
										</track>
									</video>
								</media>
								<logginginfo>
									<description></description>
									<scene></scene>
									<shottake></shottake>
									<lognote></lognote>
									<good></good>
									<originalvideofilename></originalvideofilename>
									<originalaudiofilename></originalaudiofilename>
								</logginginfo>
								<colorinfo>
									<lut></lut>
									<lut1></lut1>
									<asc_sop></asc_sop>
									<asc_sat></asc_sat>
									<lut2></lut2>
								</colorinfo>
								<labels>
								</labels>
							</clip>
							<clip id="masterclip-77" explodedTracks="true">
								<uuid>a1447107-da45-419e-b16a-052cc189d039</uuid>
								<masterclipid>masterclip-77</masterclipid>
								<ismasterclip>TRUE</ismasterclip>
								<duration>311</duration>
								<rate>
									<timebase>25</timebase>
									<ntsc>FALSE</ntsc>
								</rate>
								<name>113104_Salted Peanuts Peanuts Food_By_Up_North_Studio_Artlist_HD.mp4</name>
								<media>
									<video>
										<track>
											<clipitem id="clipitem-106">
												<masterclipid>masterclip-77</masterclipid>
												<name>113104_Salted Peanuts Peanuts Food_By_Up_North_Studio_Artlist_HD.mp4</name>
												<rate>
													<timebase>25</timebase>
													<ntsc>FALSE</ntsc>
												</rate>
												<alphatype>none</alphatype>
												<pixelaspectratio>square</pixelaspectratio>
												<anamorphic>FALSE</anamorphic>
												<file id="file-77">
													<name>113104_Salted Peanuts Peanuts Food_By_Up_North_Studio_Artlist_HD.mp4</name>
													<pathurl>file://localhost/Volumes/ATM%201/EYE%20CANDY/8%3a21%3a23/3_Raw%20Files/Artlist%20-%20Peanuts/113104_Salted%20Peanuts%20Peanuts%20Food_By_Up_North_Studio_Artlist_HD.mp4</pathurl>
													<rate>
														<timebase>25</timebase>
														<ntsc>FALSE</ntsc>
													</rate>
													<duration>311</duration>
													<timecode>
														<rate>
															<timebase>25</timebase>
															<ntsc>FALSE</ntsc>
														</rate>
														<string>00:40:59:22</string>
														<frame>61497</frame>
														<displayformat>NDF</displayformat>
													</timecode>
													<media>
														<video>
															<samplecharacteristics>
																<rate>
																	<timebase>25</timebase>
																	<ntsc>FALSE</ntsc>
																</rate>
																<width>1920</width>
																<height>1080</height>
																<anamorphic>FALSE</anamorphic>
																<pixelaspectratio>square</pixelaspectratio>
																<fielddominance>none</fielddominance>
															</samplecharacteristics>
														</video>
													</media>
												</file>
											</clipitem>
										</track>
									</video>
								</media>
								<logginginfo>
									<description></description>
									<scene></scene>
									<shottake></shottake>
									<lognote></lognote>
									<good></good>
									<originalvideofilename></originalvideofilename>
									<originalaudiofilename></originalaudiofilename>
								</logginginfo>
								<colorinfo>
									<lut></lut>
									<lut1></lut1>
									<asc_sop></asc_sop>
									<asc_sat></asc_sat>
									<lut2></lut2>
								</colorinfo>
								<labels>
								</labels>
							</clip>
							<clip id="masterclip-78" explodedTracks="true">
								<uuid>3bf96831-b0d9-45f6-b116-d1ffe8bd4456</uuid>
								<masterclipid>masterclip-78</masterclipid>
								<ismasterclip>TRUE</ismasterclip>
								<duration>277</duration>
								<rate>
									<timebase>30</timebase>
									<ntsc>FALSE</ntsc>
								</rate>
								<in>33</in>
								<out>226</out>
								<name>423857_Peanuts Nutshell Black Background Flying_By_Phantom_Gravity_Artlist_HD.mp4</name>
								<media>
									<video>
										<track>
											<clipitem id="clipitem-107">
												<masterclipid>masterclip-78</masterclipid>
												<name>423857_Peanuts Nutshell Black Background Flying_By_Phantom_Gravity_Artlist_HD.mp4</name>
												<rate>
													<timebase>30</timebase>
													<ntsc>FALSE</ntsc>
												</rate>
												<alphatype>none</alphatype>
												<pixelaspectratio>square</pixelaspectratio>
												<anamorphic>FALSE</anamorphic>
												<file id="file-78">
													<name>423857_Peanuts Nutshell Black Background Flying_By_Phantom_Gravity_Artlist_HD.mp4</name>
													<pathurl>file://localhost/Volumes/ATM%201/EYE%20CANDY/8%3a21%3a23/3_Raw%20Files/Artlist%20-%20Peanuts/423857_Peanuts%20Nutshell%20Black%20Background%20Flying_By_Phantom_Gravity_Artlist_HD.mp4</pathurl>
													<rate>
														<timebase>30</timebase>
														<ntsc>FALSE</ntsc>
													</rate>
													<duration>277</duration>
													<timecode>
														<rate>
															<timebase>30</timebase>
															<ntsc>FALSE</ntsc>
														</rate>
														<string>04:43:35:17</string>
														<frame>510467</frame>
														<displayformat>NDF</displayformat>
													</timecode>
													<media>
														<video>
															<samplecharacteristics>
																<rate>
																	<timebase>30</timebase>
																	<ntsc>FALSE</ntsc>
																</rate>
																<width>1920</width>
																<height>1080</height>
																<anamorphic>FALSE</anamorphic>
																<pixelaspectratio>square</pixelaspectratio>
																<fielddominance>none</fielddominance>
															</samplecharacteristics>
														</video>
													</media>
												</file>
											</clipitem>
										</track>
									</video>
								</media>
								<logginginfo>
									<description></description>
									<scene></scene>
									<shottake></shottake>
									<lognote></lognote>
									<good></good>
									<originalvideofilename></originalvideofilename>
									<originalaudiofilename></originalaudiofilename>
								</logginginfo>
								<colorinfo>
									<lut></lut>
									<lut1></lut1>
									<asc_sop></asc_sop>
									<asc_sat></asc_sat>
									<lut2></lut2>
								</colorinfo>
								<labels>
								</labels>
							</clip>
							<clip id="masterclip-79" explodedTracks="true">
								<uuid>ac8cbf2d-3c58-48f2-a507-478a45c45405</uuid>
								<masterclipid>masterclip-79</masterclipid>
								<ismasterclip>TRUE</ismasterclip>
								<duration>255</duration>
								<rate>
									<timebase>30</timebase>
									<ntsc>FALSE</ntsc>
								</rate>
								<name>423858_Groundnut Peanuts Black Background Flying_By_Phantom_Gravity_Artlist_HD.mp4</name>
								<media>
									<video>
										<track>
											<clipitem id="clipitem-108">
												<masterclipid>masterclip-79</masterclipid>
												<name>423858_Groundnut Peanuts Black Background Flying_By_Phantom_Gravity_Artlist_HD.mp4</name>
												<rate>
													<timebase>30</timebase>
													<ntsc>FALSE</ntsc>
												</rate>
												<alphatype>none</alphatype>
												<pixelaspectratio>square</pixelaspectratio>
												<anamorphic>FALSE</anamorphic>
												<file id="file-79">
													<name>423858_Groundnut Peanuts Black Background Flying_By_Phantom_Gravity_Artlist_HD.mp4</name>
													<pathurl>file://localhost/Volumes/ATM%201/EYE%20CANDY/8%3a21%3a23/3_Raw%20Files/Artlist%20-%20Peanuts/423858_Groundnut%20Peanuts%20Black%20Background%20Flying_By_Phantom_Gravity_Artlist_HD.mp4</pathurl>
													<rate>
														<timebase>30</timebase>
														<ntsc>FALSE</ntsc>
													</rate>
													<duration>255</duration>
													<timecode>
														<rate>
															<timebase>30</timebase>
															<ntsc>FALSE</ntsc>
														</rate>
														<string>05:18:25:29</string>
														<frame>573179</frame>
														<displayformat>NDF</displayformat>
													</timecode>
													<media>
														<video>
															<samplecharacteristics>
																<rate>
																	<timebase>30</timebase>
																	<ntsc>FALSE</ntsc>
																</rate>
																<width>1920</width>
																<height>1080</height>
																<anamorphic>FALSE</anamorphic>
																<pixelaspectratio>square</pixelaspectratio>
																<fielddominance>none</fielddominance>
															</samplecharacteristics>
														</video>
													</media>
												</file>
											</clipitem>
										</track>
									</video>
								</media>
								<logginginfo>
									<description></description>
									<scene></scene>
									<shottake></shottake>
									<lognote></lognote>
									<good></good>
									<originalvideofilename></originalvideofilename>
									<originalaudiofilename></originalaudiofilename>
								</logginginfo>
								<colorinfo>
									<lut></lut>
									<lut1></lut1>
									<asc_sop></asc_sop>
									<asc_sat></asc_sat>
									<lut2></lut2>
								</colorinfo>
								<labels>
								</labels>
							</clip>
							<clip id="masterclip-80" explodedTracks="true">
								<uuid>ae8c9ce8-2ab2-44c2-9b32-98f8f81dac45</uuid>
								<masterclipid>masterclip-80</masterclipid>
								<ismasterclip>TRUE</ismasterclip>
								<duration>814</duration>
								<rate>
									<timebase>30</timebase>
									<ntsc>FALSE</ntsc>
								</rate>
								<name>461159_Salted Peanuts Falling Pile Bowl_By_Soraphotography_Artlist_HD.mp4</name>
								<media>
									<video>
										<track>
											<clipitem id="clipitem-109">
												<masterclipid>masterclip-80</masterclipid>
												<name>461159_Salted Peanuts Falling Pile Bowl_By_Soraphotography_Artlist_HD.mp4</name>
												<rate>
													<timebase>30</timebase>
													<ntsc>FALSE</ntsc>
												</rate>
												<alphatype>none</alphatype>
												<pixelaspectratio>square</pixelaspectratio>
												<anamorphic>FALSE</anamorphic>
												<file id="file-80">
													<name>461159_Salted Peanuts Falling Pile Bowl_By_Soraphotography_Artlist_HD.mp4</name>
													<pathurl>file://localhost/Volumes/ATM%201/EYE%20CANDY/8%3a21%3a23/3_Raw%20Files/Artlist%20-%20Peanuts/461159_Salted%20Peanuts%20Falling%20Pile%20Bowl_By_Soraphotography_Artlist_HD.mp4</pathurl>
													<rate>
														<timebase>30</timebase>
														<ntsc>FALSE</ntsc>
													</rate>
													<duration>814</duration>
													<timecode>
														<rate>
															<timebase>30</timebase>
															<ntsc>FALSE</ntsc>
														</rate>
														<string>00:00:00:00</string>
														<frame>0</frame>
														<displayformat>NDF</displayformat>
													</timecode>
													<media>
														<video>
															<samplecharacteristics>
																<rate>
																	<timebase>30</timebase>
																	<ntsc>FALSE</ntsc>
																</rate>
																<width>1920</width>
																<height>1080</height>
																<anamorphic>FALSE</anamorphic>
																<pixelaspectratio>square</pixelaspectratio>
																<fielddominance>none</fielddominance>
															</samplecharacteristics>
														</video>
													</media>
												</file>
											</clipitem>
										</track>
									</video>
								</media>
								<logginginfo>
									<description></description>
									<scene></scene>
									<shottake></shottake>
									<lognote></lognote>
									<good></good>
									<originalvideofilename></originalvideofilename>
									<originalaudiofilename></originalaudiofilename>
								</logginginfo>
								<colorinfo>
									<lut></lut>
									<lut1></lut1>
									<asc_sop></asc_sop>
									<asc_sat></asc_sat>
									<lut2></lut2>
								</colorinfo>
								<labels>
								</labels>
							</clip>
							<clip id="masterclip-81" explodedTracks="true">
								<uuid>55465dac-f508-4183-811c-70c17a862a34</uuid>
								<masterclipid>masterclip-81</masterclipid>
								<ismasterclip>TRUE</ismasterclip>
								<duration>1049</duration>
								<rate>
									<timebase>30</timebase>
									<ntsc>FALSE</ntsc>
								</rate>
								<name>462130_Peanuts Falling Bowl Phantom_By_Soraphotography_Artlist_HD.mp4</name>
								<media>
									<video>
										<track>
											<clipitem id="clipitem-110">
												<masterclipid>masterclip-81</masterclipid>
												<name>462130_Peanuts Falling Bowl Phantom_By_Soraphotography_Artlist_HD.mp4</name>
												<rate>
													<timebase>30</timebase>
													<ntsc>FALSE</ntsc>
												</rate>
												<alphatype>none</alphatype>
												<pixelaspectratio>square</pixelaspectratio>
												<anamorphic>FALSE</anamorphic>
												<file id="file-81">
													<name>462130_Peanuts Falling Bowl Phantom_By_Soraphotography_Artlist_HD.mp4</name>
													<pathurl>file://localhost/Volumes/ATM%201/EYE%20CANDY/8%3a21%3a23/3_Raw%20Files/Artlist%20-%20Peanuts/462130_Peanuts%20Falling%20Bowl%20Phantom_By_Soraphotography_Artlist_HD.mp4</pathurl>
													<rate>
														<timebase>30</timebase>
														<ntsc>FALSE</ntsc>
													</rate>
													<duration>1049</duration>
													<timecode>
														<rate>
															<timebase>30</timebase>
															<ntsc>FALSE</ntsc>
														</rate>
														<string>00:00:00:00</string>
														<frame>0</frame>
														<displayformat>NDF</displayformat>
													</timecode>
													<media>
														<video>
															<samplecharacteristics>
																<rate>
																	<timebase>30</timebase>
																	<ntsc>FALSE</ntsc>
																</rate>
																<width>1920</width>
																<height>1080</height>
																<anamorphic>FALSE</anamorphic>
																<pixelaspectratio>square</pixelaspectratio>
																<fielddominance>none</fielddominance>
															</samplecharacteristics>
														</video>
													</media>
												</file>
											</clipitem>
										</track>
									</video>
								</media>
								<logginginfo>
									<description></description>
									<scene></scene>
									<shottake></shottake>
									<lognote></lognote>
									<good></good>
									<originalvideofilename></originalvideofilename>
									<originalaudiofilename></originalaudiofilename>
								</logginginfo>
								<colorinfo>
									<lut></lut>
									<lut1></lut1>
									<asc_sop></asc_sop>
									<asc_sat></asc_sat>
									<lut2></lut2>
								</colorinfo>
								<labels>
								</labels>
							</clip>
							<clip id="masterclip-82" explodedTracks="true">
								<uuid>6c8fb92f-2908-4f61-b2a4-62e892e0167f</uuid>
								<masterclipid>masterclip-82</masterclipid>
								<ismasterclip>TRUE</ismasterclip>
								<duration>585</duration>
								<rate>
									<timebase>30</timebase>
									<ntsc>FALSE</ntsc>
								</rate>
								<name>462137_Pouring Peanuts Chocolate Syrup Phantom_By_Soraphotography_Artlist_HD.mp4</name>
								<media>
									<video>
										<track>
											<clipitem id="clipitem-111">
												<masterclipid>masterclip-82</masterclipid>
												<name>462137_Pouring Peanuts Chocolate Syrup Phantom_By_Soraphotography_Artlist_HD.mp4</name>
												<rate>
													<timebase>30</timebase>
													<ntsc>FALSE</ntsc>
												</rate>
												<alphatype>none</alphatype>
												<pixelaspectratio>square</pixelaspectratio>
												<anamorphic>FALSE</anamorphic>
												<file id="file-82">
													<name>462137_Pouring Peanuts Chocolate Syrup Phantom_By_Soraphotography_Artlist_HD.mp4</name>
													<pathurl>file://localhost/Volumes/ATM%201/EYE%20CANDY/8%3a21%3a23/3_Raw%20Files/Artlist%20-%20Peanuts/462137_Pouring%20Peanuts%20Chocolate%20Syrup%20Phantom_By_Soraphotography_Artlist_HD.mp4</pathurl>
													<rate>
														<timebase>30</timebase>
														<ntsc>FALSE</ntsc>
													</rate>
													<duration>585</duration>
													<timecode>
														<rate>
															<timebase>30</timebase>
															<ntsc>FALSE</ntsc>
														</rate>
														<string>00:00:00:00</string>
														<frame>0</frame>
														<displayformat>NDF</displayformat>
													</timecode>
													<media>
														<video>
															<samplecharacteristics>
																<rate>
																	<timebase>30</timebase>
																	<ntsc>FALSE</ntsc>
																</rate>
																<width>1920</width>
																<height>1080</height>
																<anamorphic>FALSE</anamorphic>
																<pixelaspectratio>square</pixelaspectratio>
																<fielddominance>none</fielddominance>
															</samplecharacteristics>
														</video>
													</media>
												</file>
											</clipitem>
										</track>
									</video>
								</media>
								<logginginfo>
									<description></description>
									<scene></scene>
									<shottake></shottake>
									<lognote></lognote>
									<good></good>
									<originalvideofilename></originalvideofilename>
									<originalaudiofilename></originalaudiofilename>
								</logginginfo>
								<colorinfo>
									<lut></lut>
									<lut1></lut1>
									<asc_sop></asc_sop>
									<asc_sat></asc_sat>
									<lut2></lut2>
								</colorinfo>
								<labels>
								</labels>
							</clip>
							<clip id="masterclip-83" explodedTracks="true">
								<uuid>eafd4bad-2c7f-43d5-aa7b-9d4967aff105</uuid>
								<masterclipid>masterclip-83</masterclipid>
								<ismasterclip>TRUE</ismasterclip>
								<duration>585</duration>
								<rate>
									<timebase>30</timebase>
									<ntsc>FALSE</ntsc>
								</rate>
								<in>166</in>
								<out>403</out>
								<name>462138_Peanuts Chocolate Syrup Pouring Phantom_By_Soraphotography_Artlist_HD.mp4</name>
								<media>
									<video>
										<track>
											<clipitem id="clipitem-112">
												<masterclipid>masterclip-83</masterclipid>
												<name>462138_Peanuts Chocolate Syrup Pouring Phantom_By_Soraphotography_Artlist_HD.mp4</name>
												<rate>
													<timebase>30</timebase>
													<ntsc>FALSE</ntsc>
												</rate>
												<alphatype>none</alphatype>
												<pixelaspectratio>square</pixelaspectratio>
												<anamorphic>FALSE</anamorphic>
												<file id="file-83">
													<name>462138_Peanuts Chocolate Syrup Pouring Phantom_By_Soraphotography_Artlist_HD.mp4</name>
													<pathurl>file://localhost/Volumes/ATM%201/EYE%20CANDY/8%3a21%3a23/3_Raw%20Files/Artlist%20-%20Peanuts/462138_Peanuts%20Chocolate%20Syrup%20Pouring%20Phantom_By_Soraphotography_Artlist_HD.mp4</pathurl>
													<rate>
														<timebase>30</timebase>
														<ntsc>FALSE</ntsc>
													</rate>
													<duration>585</duration>
													<timecode>
														<rate>
															<timebase>30</timebase>
															<ntsc>FALSE</ntsc>
														</rate>
														<string>00:00:00:00</string>
														<frame>0</frame>
														<displayformat>NDF</displayformat>
													</timecode>
													<media>
														<video>
															<samplecharacteristics>
																<rate>
																	<timebase>30</timebase>
																	<ntsc>FALSE</ntsc>
																</rate>
																<width>1920</width>
																<height>1080</height>
																<anamorphic>FALSE</anamorphic>
																<pixelaspectratio>square</pixelaspectratio>
																<fielddominance>none</fielddominance>
															</samplecharacteristics>
														</video>
													</media>
												</file>
											</clipitem>
										</track>
									</video>
								</media>
								<logginginfo>
									<description></description>
									<scene></scene>
									<shottake></shottake>
									<lognote></lognote>
									<good></good>
									<originalvideofilename></originalvideofilename>
									<originalaudiofilename></originalaudiofilename>
								</logginginfo>
								<colorinfo>
									<lut></lut>
									<lut1></lut1>
									<asc_sop></asc_sop>
									<asc_sat></asc_sat>
									<lut2></lut2>
								</colorinfo>
								<labels>
								</labels>
							</clip>
							<clip id="masterclip-84" explodedTracks="true">
								<uuid>5ec4779d-dd69-4edd-a977-30db7d62b8bb</uuid>
								<masterclipid>masterclip-84</masterclipid>
								<ismasterclip>TRUE</ismasterclip>
								<duration>523</duration>
								<rate>
									<timebase>24</timebase>
									<ntsc>TRUE</ntsc>
								</rate>
								<name>97276_Peanuts Kitchen Shell Chef_By_Via_Films_Artlist_HD.mp4</name>
								<media>
									<video>
										<track>
											<clipitem id="clipitem-113">
												<masterclipid>masterclip-84</masterclipid>
												<name>97276_Peanuts Kitchen Shell Chef_By_Via_Films_Artlist_HD.mp4</name>
												<rate>
													<timebase>24</timebase>
													<ntsc>TRUE</ntsc>
												</rate>
												<alphatype>none</alphatype>
												<pixelaspectratio>square</pixelaspectratio>
												<anamorphic>FALSE</anamorphic>
												<file id="file-84">
													<name>97276_Peanuts Kitchen Shell Chef_By_Via_Films_Artlist_HD.mp4</name>
													<pathurl>file://localhost/Volumes/ATM%201/EYE%20CANDY/8%3a21%3a23/3_Raw%20Files/Artlist%20-%20Peanuts/97276_Peanuts%20Kitchen%20Shell%20Chef_By_Via_Films_Artlist_HD.mp4</pathurl>
													<rate>
														<timebase>24</timebase>
														<ntsc>TRUE</ntsc>
													</rate>
													<duration>523</duration>
													<timecode>
														<rate>
															<timebase>24</timebase>
															<ntsc>TRUE</ntsc>
														</rate>
														<string>13:54:38:01</string>
														<frame>1201873</frame>
														<displayformat>NDF</displayformat>
													</timecode>
													<media>
														<video>
															<samplecharacteristics>
																<rate>
																	<timebase>24</timebase>
																	<ntsc>TRUE</ntsc>
																</rate>
																<width>1920</width>
																<height>1080</height>
																<anamorphic>FALSE</anamorphic>
																<pixelaspectratio>square</pixelaspectratio>
																<fielddominance>none</fielddominance>
															</samplecharacteristics>
														</video>
													</media>
												</file>
											</clipitem>
										</track>
									</video>
								</media>
								<logginginfo>
									<description></description>
									<scene></scene>
									<shottake></shottake>
									<lognote></lognote>
									<good></good>
									<originalvideofilename></originalvideofilename>
									<originalaudiofilename></originalaudiofilename>
								</logginginfo>
								<colorinfo>
									<lut></lut>
									<lut1></lut1>
									<asc_sop></asc_sop>
									<asc_sat></asc_sat>
									<lut2></lut2>
								</colorinfo>
								<labels>
								</labels>
							</clip>
						</children>
					</bin>
					<bin>
						<name>Artlist - Pancakes</name>
						<children>
							<clip id="masterclip-85" explodedTracks="true">
								<uuid>9feaca6a-b702-4015-ba64-1152dda68a3b</uuid>
								<masterclipid>masterclip-85</masterclipid>
								<ismasterclip>TRUE</ismasterclip>
								<duration>236</duration>
								<rate>
									<timebase>30</timebase>
									<ntsc>TRUE</ntsc>
								</rate>
								<out>223</out>
								<name>571286_Grilling Pancakes Waffle Cooking_By_Jordan_Hatfield_Artlist_HD.mp4</name>
								<media>
									<video>
										<track>
											<clipitem id="clipitem-114">
												<masterclipid>masterclip-85</masterclipid>
												<name>571286_Grilling Pancakes Waffle Cooking_By_Jordan_Hatfield_Artlist_HD.mp4</name>
												<rate>
													<timebase>30</timebase>
													<ntsc>TRUE</ntsc>
												</rate>
												<alphatype>none</alphatype>
												<pixelaspectratio>square</pixelaspectratio>
												<anamorphic>FALSE</anamorphic>
												<file id="file-85">
													<name>571286_Grilling Pancakes Waffle Cooking_By_Jordan_Hatfield_Artlist_HD.mp4</name>
													<pathurl>file://localhost/Volumes/ATM%201/EYE%20CANDY/8%3a21%3a23/3_Raw%20Files/Artlist%20-%20Pancakes/571286_Grilling%20Pancakes%20Waffle%20Cooking_By_Jordan_Hatfield_Artlist_HD.mp4</pathurl>
													<rate>
														<timebase>30</timebase>
														<ntsc>TRUE</ntsc>
													</rate>
													<duration>236</duration>
													<timecode>
														<rate>
															<timebase>30</timebase>
															<ntsc>TRUE</ntsc>
														</rate>
														<string>00:00:00:00</string>
														<frame>0</frame>
														<displayformat>NDF</displayformat>
													</timecode>
													<media>
														<video>
															<samplecharacteristics>
																<rate>
																	<timebase>30</timebase>
																	<ntsc>TRUE</ntsc>
																</rate>
																<width>1920</width>
																<height>1080</height>
																<anamorphic>FALSE</anamorphic>
																<pixelaspectratio>square</pixelaspectratio>
																<fielddominance>none</fielddominance>
															</samplecharacteristics>
														</video>
														<audio>
															<samplecharacteristics>
																<depth>16</depth>
																<samplerate>48000</samplerate>
															</samplecharacteristics>
															<channelcount>2</channelcount>
														</audio>
													</media>
												</file>
												<link>
													<linkclipref>clipitem-114</linkclipref>
													<mediatype>video</mediatype>
													<trackindex>1</trackindex>
													<clipindex>1</clipindex>
												</link>
												<link>
													<linkclipref>clipitem-115</linkclipref>
													<mediatype>audio</mediatype>
													<trackindex>1</trackindex>
													<clipindex>1</clipindex>
													<groupindex>1</groupindex>
												</link>
												<link>
													<linkclipref>clipitem-116</linkclipref>
													<mediatype>audio</mediatype>
													<trackindex>2</trackindex>
													<clipindex>1</clipindex>
													<groupindex>1</groupindex>
												</link>
											</clipitem>
										</track>
									</video>
									<audio>
										<track>
											<clipitem id="clipitem-115">
												<masterclipid>masterclip-85</masterclipid>
												<name>571286_Grilling Pancakes Waffle Cooking_By_Jordan_Hatfield_Artlist_HD.mp4</name>
												<rate>
													<timebase>30</timebase>
													<ntsc>TRUE</ntsc>
												</rate>
												<file id="file-85"/>
												<sourcetrack>
													<mediatype>audio</mediatype>
													<trackindex>1</trackindex>
												</sourcetrack>
												<link>
													<linkclipref>clipitem-114</linkclipref>
													<mediatype>video</mediatype>
													<trackindex>1</trackindex>
													<clipindex>1</clipindex>
												</link>
												<link>
													<linkclipref>clipitem-115</linkclipref>
													<mediatype>audio</mediatype>
													<trackindex>1</trackindex>
													<clipindex>1</clipindex>
													<groupindex>1</groupindex>
												</link>
												<link>
													<linkclipref>clipitem-116</linkclipref>
													<mediatype>audio</mediatype>
													<trackindex>2</trackindex>
													<clipindex>1</clipindex>
													<groupindex>1</groupindex>
												</link>
											</clipitem>
										</track>
										<track>
											<clipitem id="clipitem-116">
												<masterclipid>masterclip-85</masterclipid>
												<name>571286_Grilling Pancakes Waffle Cooking_By_Jordan_Hatfield_Artlist_HD.mp4</name>
												<rate>
													<timebase>30</timebase>
													<ntsc>TRUE</ntsc>
												</rate>
												<file id="file-85"/>
												<sourcetrack>
													<mediatype>audio</mediatype>
													<trackindex>2</trackindex>
												</sourcetrack>
												<link>
													<linkclipref>clipitem-114</linkclipref>
													<mediatype>video</mediatype>
													<trackindex>1</trackindex>
													<clipindex>1</clipindex>
												</link>
												<link>
													<linkclipref>clipitem-115</linkclipref>
													<mediatype>audio</mediatype>
													<trackindex>1</trackindex>
													<clipindex>1</clipindex>
													<groupindex>1</groupindex>
												</link>
												<link>
													<linkclipref>clipitem-116</linkclipref>
													<mediatype>audio</mediatype>
													<trackindex>2</trackindex>
													<clipindex>1</clipindex>
													<groupindex>1</groupindex>
												</link>
											</clipitem>
										</track>
									</audio>
								</media>
								<logginginfo>
									<description></description>
									<scene></scene>
									<shottake></shottake>
									<lognote></lognote>
									<good></good>
									<originalvideofilename></originalvideofilename>
									<originalaudiofilename></originalaudiofilename>
								</logginginfo>
								<colorinfo>
									<lut></lut>
									<lut1></lut1>
									<asc_sop></asc_sop>
									<asc_sat></asc_sat>
									<lut2></lut2>
								</colorinfo>
								<labels>
								</labels>
							</clip>
							<clip id="masterclip-86" explodedTracks="true">
								<uuid>a9d147c6-886d-4f5d-9d7c-e9919275f1d9</uuid>
								<masterclipid>masterclip-86</masterclipid>
								<ismasterclip>TRUE</ismasterclip>
								<duration>450</duration>
								<rate>
									<timebase>30</timebase>
									<ntsc>TRUE</ntsc>
								</rate>
								<out>163</out>
								<name>571287_Butter Grill Melting Bubbling_By_Jordan_Hatfield_Artlist_HD.mp4</name>
								<media>
									<video>
										<track>
											<clipitem id="clipitem-117">
												<masterclipid>masterclip-86</masterclipid>
												<name>571287_Butter Grill Melting Bubbling_By_Jordan_Hatfield_Artlist_HD.mp4</name>
												<rate>
													<timebase>30</timebase>
													<ntsc>TRUE</ntsc>
												</rate>
												<alphatype>none</alphatype>
												<pixelaspectratio>square</pixelaspectratio>
												<anamorphic>FALSE</anamorphic>
												<file id="file-86">
													<name>571287_Butter Grill Melting Bubbling_By_Jordan_Hatfield_Artlist_HD.mp4</name>
													<pathurl>file://localhost/Volumes/ATM%201/EYE%20CANDY/8%3a21%3a23/3_Raw%20Files/Artlist%20-%20Pancakes/571287_Butter%20Grill%20Melting%20Bubbling_By_Jordan_Hatfield_Artlist_HD.mp4</pathurl>
													<rate>
														<timebase>30</timebase>
														<ntsc>TRUE</ntsc>
													</rate>
													<duration>450</duration>
													<timecode>
														<rate>
															<timebase>30</timebase>
															<ntsc>TRUE</ntsc>
														</rate>
														<string>00:00:00:00</string>
														<frame>0</frame>
														<displayformat>NDF</displayformat>
													</timecode>
													<media>
														<video>
															<samplecharacteristics>
																<rate>
																	<timebase>30</timebase>
																	<ntsc>TRUE</ntsc>
																</rate>
																<width>1920</width>
																<height>1080</height>
																<anamorphic>FALSE</anamorphic>
																<pixelaspectratio>square</pixelaspectratio>
																<fielddominance>none</fielddominance>
															</samplecharacteristics>
														</video>
														<audio>
															<samplecharacteristics>
																<depth>16</depth>
																<samplerate>48000</samplerate>
															</samplecharacteristics>
															<channelcount>2</channelcount>
														</audio>
													</media>
												</file>
												<link>
													<linkclipref>clipitem-117</linkclipref>
													<mediatype>video</mediatype>
													<trackindex>1</trackindex>
													<clipindex>1</clipindex>
												</link>
												<link>
													<linkclipref>clipitem-118</linkclipref>
													<mediatype>audio</mediatype>
													<trackindex>1</trackindex>
													<clipindex>1</clipindex>
													<groupindex>1</groupindex>
												</link>
												<link>
													<linkclipref>clipitem-119</linkclipref>
													<mediatype>audio</mediatype>
													<trackindex>2</trackindex>
													<clipindex>1</clipindex>
													<groupindex>1</groupindex>
												</link>
											</clipitem>
										</track>
									</video>
									<audio>
										<track>
											<clipitem id="clipitem-118">
												<masterclipid>masterclip-86</masterclipid>
												<name>571287_Butter Grill Melting Bubbling_By_Jordan_Hatfield_Artlist_HD.mp4</name>
												<rate>
													<timebase>30</timebase>
													<ntsc>TRUE</ntsc>
												</rate>
												<file id="file-86"/>
												<sourcetrack>
													<mediatype>audio</mediatype>
													<trackindex>1</trackindex>
												</sourcetrack>
												<link>
													<linkclipref>clipitem-117</linkclipref>
													<mediatype>video</mediatype>
													<trackindex>1</trackindex>
													<clipindex>1</clipindex>
												</link>
												<link>
													<linkclipref>clipitem-118</linkclipref>
													<mediatype>audio</mediatype>
													<trackindex>1</trackindex>
													<clipindex>1</clipindex>
													<groupindex>1</groupindex>
												</link>
												<link>
													<linkclipref>clipitem-119</linkclipref>
													<mediatype>audio</mediatype>
													<trackindex>2</trackindex>
													<clipindex>1</clipindex>
													<groupindex>1</groupindex>
												</link>
											</clipitem>
										</track>
										<track>
											<clipitem id="clipitem-119">
												<masterclipid>masterclip-86</masterclipid>
												<name>571287_Butter Grill Melting Bubbling_By_Jordan_Hatfield_Artlist_HD.mp4</name>
												<rate>
													<timebase>30</timebase>
													<ntsc>TRUE</ntsc>
												</rate>
												<file id="file-86"/>
												<sourcetrack>
													<mediatype>audio</mediatype>
													<trackindex>2</trackindex>
												</sourcetrack>
												<link>
													<linkclipref>clipitem-117</linkclipref>
													<mediatype>video</mediatype>
													<trackindex>1</trackindex>
													<clipindex>1</clipindex>
												</link>
												<link>
													<linkclipref>clipitem-118</linkclipref>
													<mediatype>audio</mediatype>
													<trackindex>1</trackindex>
													<clipindex>1</clipindex>
													<groupindex>1</groupindex>
												</link>
												<link>
													<linkclipref>clipitem-119</linkclipref>
													<mediatype>audio</mediatype>
													<trackindex>2</trackindex>
													<clipindex>1</clipindex>
													<groupindex>1</groupindex>
												</link>
											</clipitem>
										</track>
									</audio>
								</media>
								<logginginfo>
									<description></description>
									<scene></scene>
									<shottake></shottake>
									<lognote></lognote>
									<good></good>
									<originalvideofilename></originalvideofilename>
									<originalaudiofilename></originalaudiofilename>
								</logginginfo>
								<colorinfo>
									<lut></lut>
									<lut1></lut1>
									<asc_sop></asc_sop>
									<asc_sat></asc_sat>
									<lut2></lut2>
								</colorinfo>
								<labels>
								</labels>
							</clip>
							<clip id="masterclip-87" explodedTracks="true">
								<uuid>373c606c-e083-4785-96c3-520b614a8072</uuid>
								<masterclipid>masterclip-87</masterclipid>
								<ismasterclip>TRUE</ismasterclip>
								<duration>528</duration>
								<rate>
									<timebase>30</timebase>
									<ntsc>TRUE</ntsc>
								</rate>
								<in>337</in>
								<out>457</out>
								<name>571288_Butter Grill Melting Bubbling_By_Jordan_Hatfield_Artlist_HD.mp4</name>
								<media>
									<video>
										<track>
											<clipitem id="clipitem-120">
												<masterclipid>masterclip-87</masterclipid>
												<name>571288_Butter Grill Melting Bubbling_By_Jordan_Hatfield_Artlist_HD.mp4</name>
												<rate>
													<timebase>30</timebase>
													<ntsc>TRUE</ntsc>
												</rate>
												<alphatype>none</alphatype>
												<pixelaspectratio>square</pixelaspectratio>
												<anamorphic>FALSE</anamorphic>
												<file id="file-87">
													<name>571288_Butter Grill Melting Bubbling_By_Jordan_Hatfield_Artlist_HD.mp4</name>
													<pathurl>file://localhost/Volumes/ATM%201/EYE%20CANDY/8%3a21%3a23/3_Raw%20Files/Artlist%20-%20Pancakes/571288_Butter%20Grill%20Melting%20Bubbling_By_Jordan_Hatfield_Artlist_HD.mp4</pathurl>
													<rate>
														<timebase>30</timebase>
														<ntsc>TRUE</ntsc>
													</rate>
													<duration>528</duration>
													<timecode>
														<rate>
															<timebase>30</timebase>
															<ntsc>TRUE</ntsc>
														</rate>
														<string>00:00:00:00</string>
														<frame>0</frame>
														<displayformat>NDF</displayformat>
													</timecode>
													<media>
														<video>
															<samplecharacteristics>
																<rate>
																	<timebase>30</timebase>
																	<ntsc>TRUE</ntsc>
																</rate>
																<width>1920</width>
																<height>1080</height>
																<anamorphic>FALSE</anamorphic>
																<pixelaspectratio>square</pixelaspectratio>
																<fielddominance>none</fielddominance>
															</samplecharacteristics>
														</video>
														<audio>
															<samplecharacteristics>
																<depth>16</depth>
																<samplerate>48000</samplerate>
															</samplecharacteristics>
															<channelcount>2</channelcount>
														</audio>
													</media>
												</file>
												<link>
													<linkclipref>clipitem-120</linkclipref>
													<mediatype>video</mediatype>
													<trackindex>1</trackindex>
													<clipindex>1</clipindex>
												</link>
												<link>
													<linkclipref>clipitem-121</linkclipref>
													<mediatype>audio</mediatype>
													<trackindex>1</trackindex>
													<clipindex>1</clipindex>
													<groupindex>1</groupindex>
												</link>
												<link>
													<linkclipref>clipitem-122</linkclipref>
													<mediatype>audio</mediatype>
													<trackindex>2</trackindex>
													<clipindex>1</clipindex>
													<groupindex>1</groupindex>
												</link>
											</clipitem>
										</track>
									</video>
									<audio>
										<track>
											<clipitem id="clipitem-121">
												<masterclipid>masterclip-87</masterclipid>
												<name>571288_Butter Grill Melting Bubbling_By_Jordan_Hatfield_Artlist_HD.mp4</name>
												<rate>
													<timebase>30</timebase>
													<ntsc>TRUE</ntsc>
												</rate>
												<file id="file-87"/>
												<sourcetrack>
													<mediatype>audio</mediatype>
													<trackindex>1</trackindex>
												</sourcetrack>
												<link>
													<linkclipref>clipitem-120</linkclipref>
													<mediatype>video</mediatype>
													<trackindex>1</trackindex>
													<clipindex>1</clipindex>
												</link>
												<link>
													<linkclipref>clipitem-121</linkclipref>
													<mediatype>audio</mediatype>
													<trackindex>1</trackindex>
													<clipindex>1</clipindex>
													<groupindex>1</groupindex>
												</link>
												<link>
													<linkclipref>clipitem-122</linkclipref>
													<mediatype>audio</mediatype>
													<trackindex>2</trackindex>
													<clipindex>1</clipindex>
													<groupindex>1</groupindex>
												</link>
											</clipitem>
										</track>
										<track>
											<clipitem id="clipitem-122">
												<masterclipid>masterclip-87</masterclipid>
												<name>571288_Butter Grill Melting Bubbling_By_Jordan_Hatfield_Artlist_HD.mp4</name>
												<rate>
													<timebase>30</timebase>
													<ntsc>TRUE</ntsc>
												</rate>
												<file id="file-87"/>
												<sourcetrack>
													<mediatype>audio</mediatype>
													<trackindex>2</trackindex>
												</sourcetrack>
												<link>
													<linkclipref>clipitem-120</linkclipref>
													<mediatype>video</mediatype>
													<trackindex>1</trackindex>
													<clipindex>1</clipindex>
												</link>
												<link>
													<linkclipref>clipitem-121</linkclipref>
													<mediatype>audio</mediatype>
													<trackindex>1</trackindex>
													<clipindex>1</clipindex>
													<groupindex>1</groupindex>
												</link>
												<link>
													<linkclipref>clipitem-122</linkclipref>
													<mediatype>audio</mediatype>
													<trackindex>2</trackindex>
													<clipindex>1</clipindex>
													<groupindex>1</groupindex>
												</link>
											</clipitem>
										</track>
									</audio>
								</media>
								<logginginfo>
									<description></description>
									<scene></scene>
									<shottake></shottake>
									<lognote></lognote>
									<good></good>
									<originalvideofilename></originalvideofilename>
									<originalaudiofilename></originalaudiofilename>
								</logginginfo>
								<colorinfo>
									<lut></lut>
									<lut1></lut1>
									<asc_sop></asc_sop>
									<asc_sat></asc_sat>
									<lut2></lut2>
								</colorinfo>
								<labels>
								</labels>
							</clip>
							<clip id="masterclip-88" explodedTracks="true">
								<uuid>20ac9b17-efc1-4a2e-9230-bfded3d81c57</uuid>
								<masterclipid>masterclip-88</masterclipid>
								<ismasterclip>TRUE</ismasterclip>
								<duration>376</duration>
								<rate>
									<timebase>30</timebase>
									<ntsc>TRUE</ntsc>
								</rate>
								<out>161</out>
								<name>571290_Grilling Pancakes Waffle Cooking_By_Jordan_Hatfield_Artlist_HD.mp4</name>
								<media>
									<video>
										<track>
											<clipitem id="clipitem-123">
												<masterclipid>masterclip-88</masterclipid>
												<name>571290_Grilling Pancakes Waffle Cooking_By_Jordan_Hatfield_Artlist_HD.mp4</name>
												<rate>
													<timebase>30</timebase>
													<ntsc>TRUE</ntsc>
												</rate>
												<alphatype>none</alphatype>
												<pixelaspectratio>square</pixelaspectratio>
												<anamorphic>FALSE</anamorphic>
												<file id="file-88">
													<name>571290_Grilling Pancakes Waffle Cooking_By_Jordan_Hatfield_Artlist_HD.mp4</name>
													<pathurl>file://localhost/Volumes/ATM%201/EYE%20CANDY/8%3a21%3a23/3_Raw%20Files/Artlist%20-%20Pancakes/571290_Grilling%20Pancakes%20Waffle%20Cooking_By_Jordan_Hatfield_Artlist_HD.mp4</pathurl>
													<rate>
														<timebase>30</timebase>
														<ntsc>TRUE</ntsc>
													</rate>
													<duration>376</duration>
													<timecode>
														<rate>
															<timebase>30</timebase>
															<ntsc>TRUE</ntsc>
														</rate>
														<string>00:00:00:00</string>
														<frame>0</frame>
														<displayformat>NDF</displayformat>
													</timecode>
													<media>
														<video>
															<samplecharacteristics>
																<rate>
																	<timebase>30</timebase>
																	<ntsc>TRUE</ntsc>
																</rate>
																<width>1920</width>
																<height>1080</height>
																<anamorphic>FALSE</anamorphic>
																<pixelaspectratio>square</pixelaspectratio>
																<fielddominance>none</fielddominance>
															</samplecharacteristics>
														</video>
														<audio>
															<samplecharacteristics>
																<depth>16</depth>
																<samplerate>48000</samplerate>
															</samplecharacteristics>
															<channelcount>2</channelcount>
														</audio>
													</media>
												</file>
												<link>
													<linkclipref>clipitem-123</linkclipref>
													<mediatype>video</mediatype>
													<trackindex>1</trackindex>
													<clipindex>1</clipindex>
												</link>
												<link>
													<linkclipref>clipitem-124</linkclipref>
													<mediatype>audio</mediatype>
													<trackindex>1</trackindex>
													<clipindex>1</clipindex>
													<groupindex>1</groupindex>
												</link>
												<link>
													<linkclipref>clipitem-125</linkclipref>
													<mediatype>audio</mediatype>
													<trackindex>2</trackindex>
													<clipindex>1</clipindex>
													<groupindex>1</groupindex>
												</link>
											</clipitem>
										</track>
									</video>
									<audio>
										<track>
											<clipitem id="clipitem-124">
												<masterclipid>masterclip-88</masterclipid>
												<name>571290_Grilling Pancakes Waffle Cooking_By_Jordan_Hatfield_Artlist_HD.mp4</name>
												<rate>
													<timebase>30</timebase>
													<ntsc>TRUE</ntsc>
												</rate>
												<file id="file-88"/>
												<sourcetrack>
													<mediatype>audio</mediatype>
													<trackindex>1</trackindex>
												</sourcetrack>
												<link>
													<linkclipref>clipitem-123</linkclipref>
													<mediatype>video</mediatype>
													<trackindex>1</trackindex>
													<clipindex>1</clipindex>
												</link>
												<link>
													<linkclipref>clipitem-124</linkclipref>
													<mediatype>audio</mediatype>
													<trackindex>1</trackindex>
													<clipindex>1</clipindex>
													<groupindex>1</groupindex>
												</link>
												<link>
													<linkclipref>clipitem-125</linkclipref>
													<mediatype>audio</mediatype>
													<trackindex>2</trackindex>
													<clipindex>1</clipindex>
													<groupindex>1</groupindex>
												</link>
											</clipitem>
										</track>
										<track>
											<clipitem id="clipitem-125">
												<masterclipid>masterclip-88</masterclipid>
												<name>571290_Grilling Pancakes Waffle Cooking_By_Jordan_Hatfield_Artlist_HD.mp4</name>
												<rate>
													<timebase>30</timebase>
													<ntsc>TRUE</ntsc>
												</rate>
												<file id="file-88"/>
												<sourcetrack>
													<mediatype>audio</mediatype>
													<trackindex>2</trackindex>
												</sourcetrack>
												<link>
													<linkclipref>clipitem-123</linkclipref>
													<mediatype>video</mediatype>
													<trackindex>1</trackindex>
													<clipindex>1</clipindex>
												</link>
												<link>
													<linkclipref>clipitem-124</linkclipref>
													<mediatype>audio</mediatype>
													<trackindex>1</trackindex>
													<clipindex>1</clipindex>
													<groupindex>1</groupindex>
												</link>
												<link>
													<linkclipref>clipitem-125</linkclipref>
													<mediatype>audio</mediatype>
													<trackindex>2</trackindex>
													<clipindex>1</clipindex>
													<groupindex>1</groupindex>
												</link>
											</clipitem>
										</track>
									</audio>
								</media>
								<logginginfo>
									<description></description>
									<scene></scene>
									<shottake></shottake>
									<lognote></lognote>
									<good></good>
									<originalvideofilename></originalvideofilename>
									<originalaudiofilename></originalaudiofilename>
								</logginginfo>
								<colorinfo>
									<lut></lut>
									<lut1></lut1>
									<asc_sop></asc_sop>
									<asc_sat></asc_sat>
									<lut2></lut2>
								</colorinfo>
								<labels>
								</labels>
							</clip>
							<clip id="masterclip-89" explodedTracks="true">
								<uuid>287ef9cf-0564-451a-9590-bb42e84fd5fb</uuid>
								<masterclipid>masterclip-89</masterclipid>
								<ismasterclip>TRUE</ismasterclip>
								<duration>244</duration>
								<rate>
									<timebase>30</timebase>
									<ntsc>TRUE</ntsc>
								</rate>
								<out>130</out>
								<name>571305_Grilling Pancakes Waffle Cooking_By_Jordan_Hatfield_Artlist_HD.mp4</name>
								<media>
									<video>
										<track>
											<clipitem id="clipitem-126">
												<masterclipid>masterclip-89</masterclipid>
												<name>571305_Grilling Pancakes Waffle Cooking_By_Jordan_Hatfield_Artlist_HD.mp4</name>
												<rate>
													<timebase>30</timebase>
													<ntsc>TRUE</ntsc>
												</rate>
												<alphatype>none</alphatype>
												<pixelaspectratio>square</pixelaspectratio>
												<anamorphic>FALSE</anamorphic>
												<file id="file-89">
													<name>571305_Grilling Pancakes Waffle Cooking_By_Jordan_Hatfield_Artlist_HD.mp4</name>
													<pathurl>file://localhost/Volumes/ATM%201/EYE%20CANDY/8%3a21%3a23/3_Raw%20Files/Artlist%20-%20Pancakes/571305_Grilling%20Pancakes%20Waffle%20Cooking_By_Jordan_Hatfield_Artlist_HD.mp4</pathurl>
													<rate>
														<timebase>30</timebase>
														<ntsc>TRUE</ntsc>
													</rate>
													<duration>244</duration>
													<timecode>
														<rate>
															<timebase>30</timebase>
															<ntsc>TRUE</ntsc>
														</rate>
														<string>00:00:00:00</string>
														<frame>0</frame>
														<displayformat>NDF</displayformat>
													</timecode>
													<media>
														<video>
															<samplecharacteristics>
																<rate>
																	<timebase>30</timebase>
																	<ntsc>TRUE</ntsc>
																</rate>
																<width>1920</width>
																<height>1080</height>
																<anamorphic>FALSE</anamorphic>
																<pixelaspectratio>square</pixelaspectratio>
																<fielddominance>none</fielddominance>
															</samplecharacteristics>
														</video>
														<audio>
															<samplecharacteristics>
																<depth>16</depth>
																<samplerate>48000</samplerate>
															</samplecharacteristics>
															<channelcount>2</channelcount>
														</audio>
													</media>
												</file>
												<link>
													<linkclipref>clipitem-126</linkclipref>
													<mediatype>video</mediatype>
													<trackindex>1</trackindex>
													<clipindex>1</clipindex>
												</link>
												<link>
													<linkclipref>clipitem-127</linkclipref>
													<mediatype>audio</mediatype>
													<trackindex>1</trackindex>
													<clipindex>1</clipindex>
													<groupindex>1</groupindex>
												</link>
												<link>
													<linkclipref>clipitem-128</linkclipref>
													<mediatype>audio</mediatype>
													<trackindex>2</trackindex>
													<clipindex>1</clipindex>
													<groupindex>1</groupindex>
												</link>
											</clipitem>
										</track>
									</video>
									<audio>
										<track>
											<clipitem id="clipitem-127">
												<masterclipid>masterclip-89</masterclipid>
												<name>571305_Grilling Pancakes Waffle Cooking_By_Jordan_Hatfield_Artlist_HD.mp4</name>
												<rate>
													<timebase>30</timebase>
													<ntsc>TRUE</ntsc>
												</rate>
												<file id="file-89"/>
												<sourcetrack>
													<mediatype>audio</mediatype>
													<trackindex>1</trackindex>
												</sourcetrack>
												<link>
													<linkclipref>clipitem-126</linkclipref>
													<mediatype>video</mediatype>
													<trackindex>1</trackindex>
													<clipindex>1</clipindex>
												</link>
												<link>
													<linkclipref>clipitem-127</linkclipref>
													<mediatype>audio</mediatype>
													<trackindex>1</trackindex>
													<clipindex>1</clipindex>
													<groupindex>1</groupindex>
												</link>
												<link>
													<linkclipref>clipitem-128</linkclipref>
													<mediatype>audio</mediatype>
													<trackindex>2</trackindex>
													<clipindex>1</clipindex>
													<groupindex>1</groupindex>
												</link>
											</clipitem>
										</track>
										<track>
											<clipitem id="clipitem-128">
												<masterclipid>masterclip-89</masterclipid>
												<name>571305_Grilling Pancakes Waffle Cooking_By_Jordan_Hatfield_Artlist_HD.mp4</name>
												<rate>
													<timebase>30</timebase>
													<ntsc>TRUE</ntsc>
												</rate>
												<file id="file-89"/>
												<sourcetrack>
													<mediatype>audio</mediatype>
													<trackindex>2</trackindex>
												</sourcetrack>
												<link>
													<linkclipref>clipitem-126</linkclipref>
													<mediatype>video</mediatype>
													<trackindex>1</trackindex>
													<clipindex>1</clipindex>
												</link>
												<link>
													<linkclipref>clipitem-127</linkclipref>
													<mediatype>audio</mediatype>
													<trackindex>1</trackindex>
													<clipindex>1</clipindex>
													<groupindex>1</groupindex>
												</link>
												<link>
													<linkclipref>clipitem-128</linkclipref>
													<mediatype>audio</mediatype>
													<trackindex>2</trackindex>
													<clipindex>1</clipindex>
													<groupindex>1</groupindex>
												</link>
											</clipitem>
										</track>
									</audio>
								</media>
								<logginginfo>
									<description></description>
									<scene></scene>
									<shottake></shottake>
									<lognote></lognote>
									<good></good>
									<originalvideofilename></originalvideofilename>
									<originalaudiofilename></originalaudiofilename>
								</logginginfo>
								<colorinfo>
									<lut></lut>
									<lut1></lut1>
									<asc_sop></asc_sop>
									<asc_sat></asc_sat>
									<lut2></lut2>
								</colorinfo>
								<labels>
								</labels>
							</clip>
							<clip id="masterclip-90" explodedTracks="true">
								<uuid>8ff8708c-366d-43fc-8c9f-bbb34d42f575</uuid>
								<masterclipid>masterclip-90</masterclipid>
								<ismasterclip>TRUE</ismasterclip>
								<duration>391</duration>
								<rate>
									<timebase>30</timebase>
									<ntsc>TRUE</ntsc>
								</rate>
								<out>245</out>
								<name>571306_Grilling Pancakes Waffle Cooking_By_Jordan_Hatfield_Artlist_HD.mp4</name>
								<media>
									<video>
										<track>
											<clipitem id="clipitem-129">
												<masterclipid>masterclip-90</masterclipid>
												<name>571306_Grilling Pancakes Waffle Cooking_By_Jordan_Hatfield_Artlist_HD.mp4</name>
												<rate>
													<timebase>30</timebase>
													<ntsc>TRUE</ntsc>
												</rate>
												<alphatype>none</alphatype>
												<pixelaspectratio>square</pixelaspectratio>
												<anamorphic>FALSE</anamorphic>
												<file id="file-90">
													<name>571306_Grilling Pancakes Waffle Cooking_By_Jordan_Hatfield_Artlist_HD.mp4</name>
													<pathurl>file://localhost/Volumes/ATM%201/EYE%20CANDY/8%3a21%3a23/3_Raw%20Files/Artlist%20-%20Pancakes/571306_Grilling%20Pancakes%20Waffle%20Cooking_By_Jordan_Hatfield_Artlist_HD.mp4</pathurl>
													<rate>
														<timebase>30</timebase>
														<ntsc>TRUE</ntsc>
													</rate>
													<duration>391</duration>
													<timecode>
														<rate>
															<timebase>30</timebase>
															<ntsc>TRUE</ntsc>
														</rate>
														<string>00:00:00:00</string>
														<frame>0</frame>
														<displayformat>NDF</displayformat>
													</timecode>
													<media>
														<video>
															<samplecharacteristics>
																<rate>
																	<timebase>30</timebase>
																	<ntsc>TRUE</ntsc>
																</rate>
																<width>1920</width>
																<height>1080</height>
																<anamorphic>FALSE</anamorphic>
																<pixelaspectratio>square</pixelaspectratio>
																<fielddominance>none</fielddominance>
															</samplecharacteristics>
														</video>
														<audio>
															<samplecharacteristics>
																<depth>16</depth>
																<samplerate>48000</samplerate>
															</samplecharacteristics>
															<channelcount>2</channelcount>
														</audio>
													</media>
												</file>
												<link>
													<linkclipref>clipitem-129</linkclipref>
													<mediatype>video</mediatype>
													<trackindex>1</trackindex>
													<clipindex>1</clipindex>
												</link>
												<link>
													<linkclipref>clipitem-130</linkclipref>
													<mediatype>audio</mediatype>
													<trackindex>1</trackindex>
													<clipindex>1</clipindex>
													<groupindex>1</groupindex>
												</link>
												<link>
													<linkclipref>clipitem-131</linkclipref>
													<mediatype>audio</mediatype>
													<trackindex>2</trackindex>
													<clipindex>1</clipindex>
													<groupindex>1</groupindex>
												</link>
											</clipitem>
										</track>
									</video>
									<audio>
										<track>
											<clipitem id="clipitem-130">
												<masterclipid>masterclip-90</masterclipid>
												<name>571306_Grilling Pancakes Waffle Cooking_By_Jordan_Hatfield_Artlist_HD.mp4</name>
												<rate>
													<timebase>30</timebase>
													<ntsc>TRUE</ntsc>
												</rate>
												<file id="file-90"/>
												<sourcetrack>
													<mediatype>audio</mediatype>
													<trackindex>1</trackindex>
												</sourcetrack>
												<link>
													<linkclipref>clipitem-129</linkclipref>
													<mediatype>video</mediatype>
													<trackindex>1</trackindex>
													<clipindex>1</clipindex>
												</link>
												<link>
													<linkclipref>clipitem-130</linkclipref>
													<mediatype>audio</mediatype>
													<trackindex>1</trackindex>
													<clipindex>1</clipindex>
													<groupindex>1</groupindex>
												</link>
												<link>
													<linkclipref>clipitem-131</linkclipref>
													<mediatype>audio</mediatype>
													<trackindex>2</trackindex>
													<clipindex>1</clipindex>
													<groupindex>1</groupindex>
												</link>
											</clipitem>
										</track>
										<track>
											<clipitem id="clipitem-131">
												<masterclipid>masterclip-90</masterclipid>
												<name>571306_Grilling Pancakes Waffle Cooking_By_Jordan_Hatfield_Artlist_HD.mp4</name>
												<rate>
													<timebase>30</timebase>
													<ntsc>TRUE</ntsc>
												</rate>
												<file id="file-90"/>
												<sourcetrack>
													<mediatype>audio</mediatype>
													<trackindex>2</trackindex>
												</sourcetrack>
												<link>
													<linkclipref>clipitem-129</linkclipref>
													<mediatype>video</mediatype>
													<trackindex>1</trackindex>
													<clipindex>1</clipindex>
												</link>
												<link>
													<linkclipref>clipitem-130</linkclipref>
													<mediatype>audio</mediatype>
													<trackindex>1</trackindex>
													<clipindex>1</clipindex>
													<groupindex>1</groupindex>
												</link>
												<link>
													<linkclipref>clipitem-131</linkclipref>
													<mediatype>audio</mediatype>
													<trackindex>2</trackindex>
													<clipindex>1</clipindex>
													<groupindex>1</groupindex>
												</link>
											</clipitem>
										</track>
									</audio>
								</media>
								<logginginfo>
									<description></description>
									<scene></scene>
									<shottake></shottake>
									<lognote></lognote>
									<good></good>
									<originalvideofilename></originalvideofilename>
									<originalaudiofilename></originalaudiofilename>
								</logginginfo>
								<colorinfo>
									<lut></lut>
									<lut1></lut1>
									<asc_sop></asc_sop>
									<asc_sat></asc_sat>
									<lut2></lut2>
								</colorinfo>
								<labels>
								</labels>
							</clip>
							<clip id="masterclip-91" explodedTracks="true">
								<uuid>dc098b49-868e-4ba6-9b64-6baf6bda235a</uuid>
								<masterclipid>masterclip-91</masterclipid>
								<ismasterclip>TRUE</ismasterclip>
								<duration>506</duration>
								<rate>
									<timebase>30</timebase>
									<ntsc>TRUE</ntsc>
								</rate>
								<out>275</out>
								<name>571310_Cooking Pancake Pouring Batter_By_Jordan_Hatfield_Artlist_HD.mp4</name>
								<media>
									<video>
										<track>
											<clipitem id="clipitem-132">
												<masterclipid>masterclip-91</masterclipid>
												<name>571310_Cooking Pancake Pouring Batter_By_Jordan_Hatfield_Artlist_HD.mp4</name>
												<rate>
													<timebase>30</timebase>
													<ntsc>TRUE</ntsc>
												</rate>
												<alphatype>none</alphatype>
												<pixelaspectratio>square</pixelaspectratio>
												<anamorphic>FALSE</anamorphic>
												<file id="file-91">
													<name>571310_Cooking Pancake Pouring Batter_By_Jordan_Hatfield_Artlist_HD.mp4</name>
													<pathurl>file://localhost/Volumes/ATM%201/EYE%20CANDY/8%3a21%3a23/3_Raw%20Files/Artlist%20-%20Pancakes/571310_Cooking%20Pancake%20Pouring%20Batter_By_Jordan_Hatfield_Artlist_HD.mp4</pathurl>
													<rate>
														<timebase>30</timebase>
														<ntsc>TRUE</ntsc>
													</rate>
													<duration>506</duration>
													<timecode>
														<rate>
															<timebase>30</timebase>
															<ntsc>TRUE</ntsc>
														</rate>
														<string>00:00:00:00</string>
														<frame>0</frame>
														<displayformat>NDF</displayformat>
													</timecode>
													<media>
														<video>
															<samplecharacteristics>
																<rate>
																	<timebase>30</timebase>
																	<ntsc>TRUE</ntsc>
																</rate>
																<width>1920</width>
																<height>1080</height>
																<anamorphic>FALSE</anamorphic>
																<pixelaspectratio>square</pixelaspectratio>
																<fielddominance>none</fielddominance>
															</samplecharacteristics>
														</video>
														<audio>
															<samplecharacteristics>
																<depth>16</depth>
																<samplerate>48000</samplerate>
															</samplecharacteristics>
															<channelcount>2</channelcount>
														</audio>
													</media>
												</file>
												<link>
													<linkclipref>clipitem-132</linkclipref>
													<mediatype>video</mediatype>
													<trackindex>1</trackindex>
													<clipindex>1</clipindex>
												</link>
												<link>
													<linkclipref>clipitem-133</linkclipref>
													<mediatype>audio</mediatype>
													<trackindex>1</trackindex>
													<clipindex>1</clipindex>
													<groupindex>1</groupindex>
												</link>
												<link>
													<linkclipref>clipitem-134</linkclipref>
													<mediatype>audio</mediatype>
													<trackindex>2</trackindex>
													<clipindex>1</clipindex>
													<groupindex>1</groupindex>
												</link>
											</clipitem>
										</track>
									</video>
									<audio>
										<track>
											<clipitem id="clipitem-133">
												<masterclipid>masterclip-91</masterclipid>
												<name>571310_Cooking Pancake Pouring Batter_By_Jordan_Hatfield_Artlist_HD.mp4</name>
												<rate>
													<timebase>30</timebase>
													<ntsc>TRUE</ntsc>
												</rate>
												<file id="file-91"/>
												<sourcetrack>
													<mediatype>audio</mediatype>
													<trackindex>1</trackindex>
												</sourcetrack>
												<link>
													<linkclipref>clipitem-132</linkclipref>
													<mediatype>video</mediatype>
													<trackindex>1</trackindex>
													<clipindex>1</clipindex>
												</link>
												<link>
													<linkclipref>clipitem-133</linkclipref>
													<mediatype>audio</mediatype>
													<trackindex>1</trackindex>
													<clipindex>1</clipindex>
													<groupindex>1</groupindex>
												</link>
												<link>
													<linkclipref>clipitem-134</linkclipref>
													<mediatype>audio</mediatype>
													<trackindex>2</trackindex>
													<clipindex>1</clipindex>
													<groupindex>1</groupindex>
												</link>
											</clipitem>
										</track>
										<track>
											<clipitem id="clipitem-134">
												<masterclipid>masterclip-91</masterclipid>
												<name>571310_Cooking Pancake Pouring Batter_By_Jordan_Hatfield_Artlist_HD.mp4</name>
												<rate>
													<timebase>30</timebase>
													<ntsc>TRUE</ntsc>
												</rate>
												<file id="file-91"/>
												<sourcetrack>
													<mediatype>audio</mediatype>
													<trackindex>2</trackindex>
												</sourcetrack>
												<link>
													<linkclipref>clipitem-132</linkclipref>
													<mediatype>video</mediatype>
													<trackindex>1</trackindex>
													<clipindex>1</clipindex>
												</link>
												<link>
													<linkclipref>clipitem-133</linkclipref>
													<mediatype>audio</mediatype>
													<trackindex>1</trackindex>
													<clipindex>1</clipindex>
													<groupindex>1</groupindex>
												</link>
												<link>
													<linkclipref>clipitem-134</linkclipref>
													<mediatype>audio</mediatype>
													<trackindex>2</trackindex>
													<clipindex>1</clipindex>
													<groupindex>1</groupindex>
												</link>
											</clipitem>
										</track>
									</audio>
								</media>
								<logginginfo>
									<description></description>
									<scene></scene>
									<shottake></shottake>
									<lognote></lognote>
									<good></good>
									<originalvideofilename></originalvideofilename>
									<originalaudiofilename></originalaudiofilename>
								</logginginfo>
								<colorinfo>
									<lut></lut>
									<lut1></lut1>
									<asc_sop></asc_sop>
									<asc_sat></asc_sat>
									<lut2></lut2>
								</colorinfo>
								<labels>
								</labels>
							</clip>
							<clip id="masterclip-92" explodedTracks="true">
								<uuid>d4737aa3-cbb6-409a-817c-0cd9380667f2</uuid>
								<masterclipid>masterclip-92</masterclipid>
								<ismasterclip>TRUE</ismasterclip>
								<duration>343</duration>
								<rate>
									<timebase>30</timebase>
									<ntsc>TRUE</ntsc>
								</rate>
								<in>126</in>
								<out>295</out>
								<name>571311_Grilling Pancakes Waffle Cooking_By_Jordan_Hatfield_Artlist_HD.mp4</name>
								<media>
									<video>
										<track>
											<clipitem id="clipitem-135">
												<masterclipid>masterclip-92</masterclipid>
												<name>571311_Grilling Pancakes Waffle Cooking_By_Jordan_Hatfield_Artlist_HD.mp4</name>
												<rate>
													<timebase>30</timebase>
													<ntsc>TRUE</ntsc>
												</rate>
												<alphatype>none</alphatype>
												<pixelaspectratio>square</pixelaspectratio>
												<anamorphic>FALSE</anamorphic>
												<file id="file-92">
													<name>571311_Grilling Pancakes Waffle Cooking_By_Jordan_Hatfield_Artlist_HD.mp4</name>
													<pathurl>file://localhost/Volumes/ATM%201/EYE%20CANDY/8%3a21%3a23/3_Raw%20Files/Artlist%20-%20Pancakes/571311_Grilling%20Pancakes%20Waffle%20Cooking_By_Jordan_Hatfield_Artlist_HD.mp4</pathurl>
													<rate>
														<timebase>30</timebase>
														<ntsc>TRUE</ntsc>
													</rate>
													<duration>343</duration>
													<timecode>
														<rate>
															<timebase>30</timebase>
															<ntsc>TRUE</ntsc>
														</rate>
														<string>00:00:00:00</string>
														<frame>0</frame>
														<displayformat>NDF</displayformat>
													</timecode>
													<media>
														<video>
															<samplecharacteristics>
																<rate>
																	<timebase>30</timebase>
																	<ntsc>TRUE</ntsc>
																</rate>
																<width>1920</width>
																<height>1080</height>
																<anamorphic>FALSE</anamorphic>
																<pixelaspectratio>square</pixelaspectratio>
																<fielddominance>none</fielddominance>
															</samplecharacteristics>
														</video>
														<audio>
															<samplecharacteristics>
																<depth>16</depth>
																<samplerate>48000</samplerate>
															</samplecharacteristics>
															<channelcount>2</channelcount>
														</audio>
													</media>
												</file>
												<link>
													<linkclipref>clipitem-135</linkclipref>
													<mediatype>video</mediatype>
													<trackindex>1</trackindex>
													<clipindex>1</clipindex>
												</link>
												<link>
													<linkclipref>clipitem-136</linkclipref>
													<mediatype>audio</mediatype>
													<trackindex>1</trackindex>
													<clipindex>1</clipindex>
													<groupindex>1</groupindex>
												</link>
												<link>
													<linkclipref>clipitem-137</linkclipref>
													<mediatype>audio</mediatype>
													<trackindex>2</trackindex>
													<clipindex>1</clipindex>
													<groupindex>1</groupindex>
												</link>
											</clipitem>
										</track>
									</video>
									<audio>
										<track>
											<clipitem id="clipitem-136">
												<masterclipid>masterclip-92</masterclipid>
												<name>571311_Grilling Pancakes Waffle Cooking_By_Jordan_Hatfield_Artlist_HD.mp4</name>
												<rate>
													<timebase>30</timebase>
													<ntsc>TRUE</ntsc>
												</rate>
												<file id="file-92"/>
												<sourcetrack>
													<mediatype>audio</mediatype>
													<trackindex>1</trackindex>
												</sourcetrack>
												<link>
													<linkclipref>clipitem-135</linkclipref>
													<mediatype>video</mediatype>
													<trackindex>1</trackindex>
													<clipindex>1</clipindex>
												</link>
												<link>
													<linkclipref>clipitem-136</linkclipref>
													<mediatype>audio</mediatype>
													<trackindex>1</trackindex>
													<clipindex>1</clipindex>
													<groupindex>1</groupindex>
												</link>
												<link>
													<linkclipref>clipitem-137</linkclipref>
													<mediatype>audio</mediatype>
													<trackindex>2</trackindex>
													<clipindex>1</clipindex>
													<groupindex>1</groupindex>
												</link>
											</clipitem>
										</track>
										<track>
											<clipitem id="clipitem-137">
												<masterclipid>masterclip-92</masterclipid>
												<name>571311_Grilling Pancakes Waffle Cooking_By_Jordan_Hatfield_Artlist_HD.mp4</name>
												<rate>
													<timebase>30</timebase>
													<ntsc>TRUE</ntsc>
												</rate>
												<file id="file-92"/>
												<sourcetrack>
													<mediatype>audio</mediatype>
													<trackindex>2</trackindex>
												</sourcetrack>
												<link>
													<linkclipref>clipitem-135</linkclipref>
													<mediatype>video</mediatype>
													<trackindex>1</trackindex>
													<clipindex>1</clipindex>
												</link>
												<link>
													<linkclipref>clipitem-136</linkclipref>
													<mediatype>audio</mediatype>
													<trackindex>1</trackindex>
													<clipindex>1</clipindex>
													<groupindex>1</groupindex>
												</link>
												<link>
													<linkclipref>clipitem-137</linkclipref>
													<mediatype>audio</mediatype>
													<trackindex>2</trackindex>
													<clipindex>1</clipindex>
													<groupindex>1</groupindex>
												</link>
											</clipitem>
										</track>
									</audio>
								</media>
								<logginginfo>
									<description></description>
									<scene></scene>
									<shottake></shottake>
									<lognote></lognote>
									<good></good>
									<originalvideofilename></originalvideofilename>
									<originalaudiofilename></originalaudiofilename>
								</logginginfo>
								<colorinfo>
									<lut></lut>
									<lut1></lut1>
									<asc_sop></asc_sop>
									<asc_sat></asc_sat>
									<lut2></lut2>
								</colorinfo>
								<labels>
								</labels>
							</clip>
							<clip id="masterclip-93" explodedTracks="true">
								<uuid>9b3fc842-bb25-4cbc-b561-9e92d31fa921</uuid>
								<masterclipid>masterclip-93</masterclipid>
								<ismasterclip>TRUE</ismasterclip>
								<duration>421</duration>
								<rate>
									<timebase>30</timebase>
									<ntsc>TRUE</ntsc>
								</rate>
								<out>178</out>
								<name>571312_Crepes  Pancakes Waffle Cooking_By_Jordan_Hatfield_Artlist_HD.mp4</name>
								<media>
									<video>
										<track>
											<clipitem id="clipitem-138">
												<masterclipid>masterclip-93</masterclipid>
												<name>571312_Crepes  Pancakes Waffle Cooking_By_Jordan_Hatfield_Artlist_HD.mp4</name>
												<rate>
													<timebase>30</timebase>
													<ntsc>TRUE</ntsc>
												</rate>
												<alphatype>none</alphatype>
												<pixelaspectratio>square</pixelaspectratio>
												<anamorphic>FALSE</anamorphic>
												<file id="file-93">
													<name>571312_Crepes  Pancakes Waffle Cooking_By_Jordan_Hatfield_Artlist_HD.mp4</name>
													<pathurl>file://localhost/Volumes/ATM%201/EYE%20CANDY/8%3a21%3a23/3_Raw%20Files/Artlist%20-%20Pancakes/571312_Crepes%20%20Pancakes%20Waffle%20Cooking_By_Jordan_Hatfield_Artlist_HD.mp4</pathurl>
													<rate>
														<timebase>30</timebase>
														<ntsc>TRUE</ntsc>
													</rate>
													<duration>421</duration>
													<timecode>
														<rate>
															<timebase>30</timebase>
															<ntsc>TRUE</ntsc>
														</rate>
														<string>00:00:00:00</string>
														<frame>0</frame>
														<displayformat>NDF</displayformat>
													</timecode>
													<media>
														<video>
															<samplecharacteristics>
																<rate>
																	<timebase>30</timebase>
																	<ntsc>TRUE</ntsc>
																</rate>
																<width>1920</width>
																<height>1080</height>
																<anamorphic>FALSE</anamorphic>
																<pixelaspectratio>square</pixelaspectratio>
																<fielddominance>none</fielddominance>
															</samplecharacteristics>
														</video>
														<audio>
															<samplecharacteristics>
																<depth>16</depth>
																<samplerate>48000</samplerate>
															</samplecharacteristics>
															<channelcount>2</channelcount>
														</audio>
													</media>
												</file>
												<link>
													<linkclipref>clipitem-138</linkclipref>
													<mediatype>video</mediatype>
													<trackindex>1</trackindex>
													<clipindex>1</clipindex>
												</link>
												<link>
													<linkclipref>clipitem-139</linkclipref>
													<mediatype>audio</mediatype>
													<trackindex>1</trackindex>
													<clipindex>1</clipindex>
													<groupindex>1</groupindex>
												</link>
												<link>
													<linkclipref>clipitem-140</linkclipref>
													<mediatype>audio</mediatype>
													<trackindex>2</trackindex>
													<clipindex>1</clipindex>
													<groupindex>1</groupindex>
												</link>
											</clipitem>
										</track>
									</video>
									<audio>
										<track>
											<clipitem id="clipitem-139">
												<masterclipid>masterclip-93</masterclipid>
												<name>571312_Crepes  Pancakes Waffle Cooking_By_Jordan_Hatfield_Artlist_HD.mp4</name>
												<rate>
													<timebase>30</timebase>
													<ntsc>TRUE</ntsc>
												</rate>
												<file id="file-93"/>
												<sourcetrack>
													<mediatype>audio</mediatype>
													<trackindex>1</trackindex>
												</sourcetrack>
												<link>
													<linkclipref>clipitem-138</linkclipref>
													<mediatype>video</mediatype>
													<trackindex>1</trackindex>
													<clipindex>1</clipindex>
												</link>
												<link>
													<linkclipref>clipitem-139</linkclipref>
													<mediatype>audio</mediatype>
													<trackindex>1</trackindex>
													<clipindex>1</clipindex>
													<groupindex>1</groupindex>
												</link>
												<link>
													<linkclipref>clipitem-140</linkclipref>
													<mediatype>audio</mediatype>
													<trackindex>2</trackindex>
													<clipindex>1</clipindex>
													<groupindex>1</groupindex>
												</link>
											</clipitem>
										</track>
										<track>
											<clipitem id="clipitem-140">
												<masterclipid>masterclip-93</masterclipid>
												<name>571312_Crepes  Pancakes Waffle Cooking_By_Jordan_Hatfield_Artlist_HD.mp4</name>
												<rate>
													<timebase>30</timebase>
													<ntsc>TRUE</ntsc>
												</rate>
												<file id="file-93"/>
												<sourcetrack>
													<mediatype>audio</mediatype>
													<trackindex>2</trackindex>
												</sourcetrack>
												<link>
													<linkclipref>clipitem-138</linkclipref>
													<mediatype>video</mediatype>
													<trackindex>1</trackindex>
													<clipindex>1</clipindex>
												</link>
												<link>
													<linkclipref>clipitem-139</linkclipref>
													<mediatype>audio</mediatype>
													<trackindex>1</trackindex>
													<clipindex>1</clipindex>
													<groupindex>1</groupindex>
												</link>
												<link>
													<linkclipref>clipitem-140</linkclipref>
													<mediatype>audio</mediatype>
													<trackindex>2</trackindex>
													<clipindex>1</clipindex>
													<groupindex>1</groupindex>
												</link>
											</clipitem>
										</track>
									</audio>
								</media>
								<logginginfo>
									<description></description>
									<scene></scene>
									<shottake></shottake>
									<lognote></lognote>
									<good></good>
									<originalvideofilename></originalvideofilename>
									<originalaudiofilename></originalaudiofilename>
								</logginginfo>
								<colorinfo>
									<lut></lut>
									<lut1></lut1>
									<asc_sop></asc_sop>
									<asc_sat></asc_sat>
									<lut2></lut2>
								</colorinfo>
								<labels>
								</labels>
							</clip>
							<clip id="masterclip-94" explodedTracks="true">
								<uuid>486e0852-cef3-4db7-9c65-d7b269b70f6e</uuid>
								<masterclipid>masterclip-94</masterclipid>
								<ismasterclip>TRUE</ismasterclip>
								<duration>389</duration>
								<rate>
									<timebase>30</timebase>
									<ntsc>TRUE</ntsc>
								</rate>
								<out>235</out>
								<name>571313_Cooking Pancake Pouring Batter_By_Jordan_Hatfield_Artlist_HD.mp4</name>
								<media>
									<video>
										<track>
											<clipitem id="clipitem-141">
												<masterclipid>masterclip-94</masterclipid>
												<name>571313_Cooking Pancake Pouring Batter_By_Jordan_Hatfield_Artlist_HD.mp4</name>
												<rate>
													<timebase>30</timebase>
													<ntsc>TRUE</ntsc>
												</rate>
												<alphatype>none</alphatype>
												<pixelaspectratio>square</pixelaspectratio>
												<anamorphic>FALSE</anamorphic>
												<file id="file-94">
													<name>571313_Cooking Pancake Pouring Batter_By_Jordan_Hatfield_Artlist_HD.mp4</name>
													<pathurl>file://localhost/Volumes/ATM%201/EYE%20CANDY/8%3a21%3a23/3_Raw%20Files/Artlist%20-%20Pancakes/571313_Cooking%20Pancake%20Pouring%20Batter_By_Jordan_Hatfield_Artlist_HD.mp4</pathurl>
													<rate>
														<timebase>30</timebase>
														<ntsc>TRUE</ntsc>
													</rate>
													<duration>389</duration>
													<timecode>
														<rate>
															<timebase>30</timebase>
															<ntsc>TRUE</ntsc>
														</rate>
														<string>00:00:00:00</string>
														<frame>0</frame>
														<displayformat>NDF</displayformat>
													</timecode>
													<media>
														<video>
															<samplecharacteristics>
																<rate>
																	<timebase>30</timebase>
																	<ntsc>TRUE</ntsc>
																</rate>
																<width>1920</width>
																<height>1080</height>
																<anamorphic>FALSE</anamorphic>
																<pixelaspectratio>square</pixelaspectratio>
																<fielddominance>none</fielddominance>
															</samplecharacteristics>
														</video>
														<audio>
															<samplecharacteristics>
																<depth>16</depth>
																<samplerate>48000</samplerate>
															</samplecharacteristics>
															<channelcount>2</channelcount>
														</audio>
													</media>
												</file>
												<link>
													<linkclipref>clipitem-141</linkclipref>
													<mediatype>video</mediatype>
													<trackindex>1</trackindex>
													<clipindex>1</clipindex>
												</link>
												<link>
													<linkclipref>clipitem-142</linkclipref>
													<mediatype>audio</mediatype>
													<trackindex>1</trackindex>
													<clipindex>1</clipindex>
													<groupindex>1</groupindex>
												</link>
												<link>
													<linkclipref>clipitem-143</linkclipref>
													<mediatype>audio</mediatype>
													<trackindex>2</trackindex>
													<clipindex>1</clipindex>
													<groupindex>1</groupindex>
												</link>
											</clipitem>
										</track>
									</video>
									<audio>
										<track>
											<clipitem id="clipitem-142">
												<masterclipid>masterclip-94</masterclipid>
												<name>571313_Cooking Pancake Pouring Batter_By_Jordan_Hatfield_Artlist_HD.mp4</name>
												<rate>
													<timebase>30</timebase>
													<ntsc>TRUE</ntsc>
												</rate>
												<file id="file-94"/>
												<sourcetrack>
													<mediatype>audio</mediatype>
													<trackindex>1</trackindex>
												</sourcetrack>
												<link>
													<linkclipref>clipitem-141</linkclipref>
													<mediatype>video</mediatype>
													<trackindex>1</trackindex>
													<clipindex>1</clipindex>
												</link>
												<link>
													<linkclipref>clipitem-142</linkclipref>
													<mediatype>audio</mediatype>
													<trackindex>1</trackindex>
													<clipindex>1</clipindex>
													<groupindex>1</groupindex>
												</link>
												<link>
													<linkclipref>clipitem-143</linkclipref>
													<mediatype>audio</mediatype>
													<trackindex>2</trackindex>
													<clipindex>1</clipindex>
													<groupindex>1</groupindex>
												</link>
											</clipitem>
										</track>
										<track>
											<clipitem id="clipitem-143">
												<masterclipid>masterclip-94</masterclipid>
												<name>571313_Cooking Pancake Pouring Batter_By_Jordan_Hatfield_Artlist_HD.mp4</name>
												<rate>
													<timebase>30</timebase>
													<ntsc>TRUE</ntsc>
												</rate>
												<file id="file-94"/>
												<sourcetrack>
													<mediatype>audio</mediatype>
													<trackindex>2</trackindex>
												</sourcetrack>
												<link>
													<linkclipref>clipitem-141</linkclipref>
													<mediatype>video</mediatype>
													<trackindex>1</trackindex>
													<clipindex>1</clipindex>
												</link>
												<link>
													<linkclipref>clipitem-142</linkclipref>
													<mediatype>audio</mediatype>
													<trackindex>1</trackindex>
													<clipindex>1</clipindex>
													<groupindex>1</groupindex>
												</link>
												<link>
													<linkclipref>clipitem-143</linkclipref>
													<mediatype>audio</mediatype>
													<trackindex>2</trackindex>
													<clipindex>1</clipindex>
													<groupindex>1</groupindex>
												</link>
											</clipitem>
										</track>
									</audio>
								</media>
								<logginginfo>
									<description></description>
									<scene></scene>
									<shottake></shottake>
									<lognote></lognote>
									<good></good>
									<originalvideofilename></originalvideofilename>
									<originalaudiofilename></originalaudiofilename>
								</logginginfo>
								<colorinfo>
									<lut></lut>
									<lut1></lut1>
									<asc_sop></asc_sop>
									<asc_sat></asc_sat>
									<lut2></lut2>
								</colorinfo>
								<labels>
								</labels>
							</clip>
							<clip id="masterclip-95" explodedTracks="true">
								<uuid>22c0c807-3c6b-4f9f-8f49-4d3708ab056d</uuid>
								<masterclipid>masterclip-95</masterclipid>
								<ismasterclip>TRUE</ismasterclip>
								<duration>341</duration>
								<rate>
									<timebase>30</timebase>
									<ntsc>TRUE</ntsc>
								</rate>
								<out>194</out>
								<name>571314_Cooking Pancake Pouring Batter_By_Jordan_Hatfield_Artlist_HD.mp4</name>
								<media>
									<video>
										<track>
											<clipitem id="clipitem-144">
												<masterclipid>masterclip-95</masterclipid>
												<name>571314_Cooking Pancake Pouring Batter_By_Jordan_Hatfield_Artlist_HD.mp4</name>
												<rate>
													<timebase>30</timebase>
													<ntsc>TRUE</ntsc>
												</rate>
												<alphatype>none</alphatype>
												<pixelaspectratio>square</pixelaspectratio>
												<anamorphic>FALSE</anamorphic>
												<file id="file-95">
													<name>571314_Cooking Pancake Pouring Batter_By_Jordan_Hatfield_Artlist_HD.mp4</name>
													<pathurl>file://localhost/Volumes/ATM%201/EYE%20CANDY/8%3a21%3a23/3_Raw%20Files/Artlist%20-%20Pancakes/571314_Cooking%20Pancake%20Pouring%20Batter_By_Jordan_Hatfield_Artlist_HD.mp4</pathurl>
													<rate>
														<timebase>30</timebase>
														<ntsc>TRUE</ntsc>
													</rate>
													<duration>341</duration>
													<timecode>
														<rate>
															<timebase>30</timebase>
															<ntsc>TRUE</ntsc>
														</rate>
														<string>00:00:00:00</string>
														<frame>0</frame>
														<displayformat>NDF</displayformat>
													</timecode>
													<media>
														<video>
															<samplecharacteristics>
																<rate>
																	<timebase>30</timebase>
																	<ntsc>TRUE</ntsc>
																</rate>
																<width>1920</width>
																<height>1080</height>
																<anamorphic>FALSE</anamorphic>
																<pixelaspectratio>square</pixelaspectratio>
																<fielddominance>none</fielddominance>
															</samplecharacteristics>
														</video>
														<audio>
															<samplecharacteristics>
																<depth>16</depth>
																<samplerate>48000</samplerate>
															</samplecharacteristics>
															<channelcount>2</channelcount>
														</audio>
													</media>
												</file>
												<link>
													<linkclipref>clipitem-144</linkclipref>
													<mediatype>video</mediatype>
													<trackindex>1</trackindex>
													<clipindex>1</clipindex>
												</link>
												<link>
													<linkclipref>clipitem-145</linkclipref>
													<mediatype>audio</mediatype>
													<trackindex>1</trackindex>
													<clipindex>1</clipindex>
													<groupindex>1</groupindex>
												</link>
												<link>
													<linkclipref>clipitem-146</linkclipref>
													<mediatype>audio</mediatype>
													<trackindex>2</trackindex>
													<clipindex>1</clipindex>
													<groupindex>1</groupindex>
												</link>
											</clipitem>
										</track>
									</video>
									<audio>
										<track>
											<clipitem id="clipitem-145">
												<masterclipid>masterclip-95</masterclipid>
												<name>571314_Cooking Pancake Pouring Batter_By_Jordan_Hatfield_Artlist_HD.mp4</name>
												<rate>
													<timebase>30</timebase>
													<ntsc>TRUE</ntsc>
												</rate>
												<file id="file-95"/>
												<sourcetrack>
													<mediatype>audio</mediatype>
													<trackindex>1</trackindex>
												</sourcetrack>
												<link>
													<linkclipref>clipitem-144</linkclipref>
													<mediatype>video</mediatype>
													<trackindex>1</trackindex>
													<clipindex>1</clipindex>
												</link>
												<link>
													<linkclipref>clipitem-145</linkclipref>
													<mediatype>audio</mediatype>
													<trackindex>1</trackindex>
													<clipindex>1</clipindex>
													<groupindex>1</groupindex>
												</link>
												<link>
													<linkclipref>clipitem-146</linkclipref>
													<mediatype>audio</mediatype>
													<trackindex>2</trackindex>
													<clipindex>1</clipindex>
													<groupindex>1</groupindex>
												</link>
											</clipitem>
										</track>
										<track>
											<clipitem id="clipitem-146">
												<masterclipid>masterclip-95</masterclipid>
												<name>571314_Cooking Pancake Pouring Batter_By_Jordan_Hatfield_Artlist_HD.mp4</name>
												<rate>
													<timebase>30</timebase>
													<ntsc>TRUE</ntsc>
												</rate>
												<file id="file-95"/>
												<sourcetrack>
													<mediatype>audio</mediatype>
													<trackindex>2</trackindex>
												</sourcetrack>
												<link>
													<linkclipref>clipitem-144</linkclipref>
													<mediatype>video</mediatype>
													<trackindex>1</trackindex>
													<clipindex>1</clipindex>
												</link>
												<link>
													<linkclipref>clipitem-145</linkclipref>
													<mediatype>audio</mediatype>
													<trackindex>1</trackindex>
													<clipindex>1</clipindex>
													<groupindex>1</groupindex>
												</link>
												<link>
													<linkclipref>clipitem-146</linkclipref>
													<mediatype>audio</mediatype>
													<trackindex>2</trackindex>
													<clipindex>1</clipindex>
													<groupindex>1</groupindex>
												</link>
											</clipitem>
										</track>
									</audio>
								</media>
								<logginginfo>
									<description></description>
									<scene></scene>
									<shottake></shottake>
									<lognote></lognote>
									<good></good>
									<originalvideofilename></originalvideofilename>
									<originalaudiofilename></originalaudiofilename>
								</logginginfo>
								<colorinfo>
									<lut></lut>
									<lut1></lut1>
									<asc_sop></asc_sop>
									<asc_sat></asc_sat>
									<lut2></lut2>
								</colorinfo>
								<labels>
								</labels>
							</clip>
							<clip id="masterclip-96" explodedTracks="true">
								<uuid>f1c0eb99-ab30-4857-a940-8b7a0162243e</uuid>
								<masterclipid>masterclip-96</masterclipid>
								<ismasterclip>TRUE</ismasterclip>
								<duration>211</duration>
								<rate>
									<timebase>30</timebase>
									<ntsc>TRUE</ntsc>
								</rate>
								<out>132</out>
								<name>571315_Crepes  Pancakes Waffle Cooking_By_Jordan_Hatfield_Artlist_HD.mp4</name>
								<media>
									<video>
										<track>
											<clipitem id="clipitem-147">
												<masterclipid>masterclip-96</masterclipid>
												<name>571315_Crepes  Pancakes Waffle Cooking_By_Jordan_Hatfield_Artlist_HD.mp4</name>
												<rate>
													<timebase>30</timebase>
													<ntsc>TRUE</ntsc>
												</rate>
												<alphatype>none</alphatype>
												<pixelaspectratio>square</pixelaspectratio>
												<anamorphic>FALSE</anamorphic>
												<file id="file-96">
													<name>571315_Crepes  Pancakes Waffle Cooking_By_Jordan_Hatfield_Artlist_HD.mp4</name>
													<pathurl>file://localhost/Volumes/ATM%201/EYE%20CANDY/8%3a21%3a23/3_Raw%20Files/Artlist%20-%20Pancakes/571315_Crepes%20%20Pancakes%20Waffle%20Cooking_By_Jordan_Hatfield_Artlist_HD.mp4</pathurl>
													<rate>
														<timebase>30</timebase>
														<ntsc>TRUE</ntsc>
													</rate>
													<duration>211</duration>
													<timecode>
														<rate>
															<timebase>30</timebase>
															<ntsc>TRUE</ntsc>
														</rate>
														<string>00:00:00:00</string>
														<frame>0</frame>
														<displayformat>NDF</displayformat>
													</timecode>
													<media>
														<video>
															<samplecharacteristics>
																<rate>
																	<timebase>30</timebase>
																	<ntsc>TRUE</ntsc>
																</rate>
																<width>1920</width>
																<height>1080</height>
																<anamorphic>FALSE</anamorphic>
																<pixelaspectratio>square</pixelaspectratio>
																<fielddominance>none</fielddominance>
															</samplecharacteristics>
														</video>
														<audio>
															<samplecharacteristics>
																<depth>16</depth>
																<samplerate>48000</samplerate>
															</samplecharacteristics>
															<channelcount>2</channelcount>
														</audio>
													</media>
												</file>
												<link>
													<linkclipref>clipitem-147</linkclipref>
													<mediatype>video</mediatype>
													<trackindex>1</trackindex>
													<clipindex>1</clipindex>
												</link>
												<link>
													<linkclipref>clipitem-148</linkclipref>
													<mediatype>audio</mediatype>
													<trackindex>1</trackindex>
													<clipindex>1</clipindex>
													<groupindex>1</groupindex>
												</link>
												<link>
													<linkclipref>clipitem-149</linkclipref>
													<mediatype>audio</mediatype>
													<trackindex>2</trackindex>
													<clipindex>1</clipindex>
													<groupindex>1</groupindex>
												</link>
											</clipitem>
										</track>
									</video>
									<audio>
										<track>
											<clipitem id="clipitem-148">
												<masterclipid>masterclip-96</masterclipid>
												<name>571315_Crepes  Pancakes Waffle Cooking_By_Jordan_Hatfield_Artlist_HD.mp4</name>
												<rate>
													<timebase>30</timebase>
													<ntsc>TRUE</ntsc>
												</rate>
												<file id="file-96"/>
												<sourcetrack>
													<mediatype>audio</mediatype>
													<trackindex>1</trackindex>
												</sourcetrack>
												<link>
													<linkclipref>clipitem-147</linkclipref>
													<mediatype>video</mediatype>
													<trackindex>1</trackindex>
													<clipindex>1</clipindex>
												</link>
												<link>
													<linkclipref>clipitem-148</linkclipref>
													<mediatype>audio</mediatype>
													<trackindex>1</trackindex>
													<clipindex>1</clipindex>
													<groupindex>1</groupindex>
												</link>
												<link>
													<linkclipref>clipitem-149</linkclipref>
													<mediatype>audio</mediatype>
													<trackindex>2</trackindex>
													<clipindex>1</clipindex>
													<groupindex>1</groupindex>
												</link>
											</clipitem>
										</track>
										<track>
											<clipitem id="clipitem-149">
												<masterclipid>masterclip-96</masterclipid>
												<name>571315_Crepes  Pancakes Waffle Cooking_By_Jordan_Hatfield_Artlist_HD.mp4</name>
												<rate>
													<timebase>30</timebase>
													<ntsc>TRUE</ntsc>
												</rate>
												<file id="file-96"/>
												<sourcetrack>
													<mediatype>audio</mediatype>
													<trackindex>2</trackindex>
												</sourcetrack>
												<link>
													<linkclipref>clipitem-147</linkclipref>
													<mediatype>video</mediatype>
													<trackindex>1</trackindex>
													<clipindex>1</clipindex>
												</link>
												<link>
													<linkclipref>clipitem-148</linkclipref>
													<mediatype>audio</mediatype>
													<trackindex>1</trackindex>
													<clipindex>1</clipindex>
													<groupindex>1</groupindex>
												</link>
												<link>
													<linkclipref>clipitem-149</linkclipref>
													<mediatype>audio</mediatype>
													<trackindex>2</trackindex>
													<clipindex>1</clipindex>
													<groupindex>1</groupindex>
												</link>
											</clipitem>
										</track>
									</audio>
								</media>
								<logginginfo>
									<description></description>
									<scene></scene>
									<shottake></shottake>
									<lognote></lognote>
									<good></good>
									<originalvideofilename></originalvideofilename>
									<originalaudiofilename></originalaudiofilename>
								</logginginfo>
								<colorinfo>
									<lut></lut>
									<lut1></lut1>
									<asc_sop></asc_sop>
									<asc_sat></asc_sat>
									<lut2></lut2>
								</colorinfo>
								<labels>
								</labels>
							</clip>
							<clip id="masterclip-97" explodedTracks="true">
								<uuid>cc34730f-bd2b-4cec-969b-11b7dd0567d7</uuid>
								<masterclipid>masterclip-97</masterclipid>
								<ismasterclip>TRUE</ismasterclip>
								<duration>232</duration>
								<rate>
									<timebase>30</timebase>
									<ntsc>TRUE</ntsc>
								</rate>
								<out>136</out>
								<name>571317_Grilling Pancakes Waffle Cooking_By_Jordan_Hatfield_Artlist_HD.mp4</name>
								<media>
									<video>
										<track>
											<clipitem id="clipitem-150">
												<masterclipid>masterclip-97</masterclipid>
												<name>571317_Grilling Pancakes Waffle Cooking_By_Jordan_Hatfield_Artlist_HD.mp4</name>
												<rate>
													<timebase>30</timebase>
													<ntsc>TRUE</ntsc>
												</rate>
												<alphatype>none</alphatype>
												<pixelaspectratio>square</pixelaspectratio>
												<anamorphic>FALSE</anamorphic>
												<file id="file-97">
													<name>571317_Grilling Pancakes Waffle Cooking_By_Jordan_Hatfield_Artlist_HD.mp4</name>
													<pathurl>file://localhost/Volumes/ATM%201/EYE%20CANDY/8%3a21%3a23/3_Raw%20Files/Artlist%20-%20Pancakes/571317_Grilling%20Pancakes%20Waffle%20Cooking_By_Jordan_Hatfield_Artlist_HD.mp4</pathurl>
													<rate>
														<timebase>30</timebase>
														<ntsc>TRUE</ntsc>
													</rate>
													<duration>232</duration>
													<timecode>
														<rate>
															<timebase>30</timebase>
															<ntsc>TRUE</ntsc>
														</rate>
														<string>00:00:00:00</string>
														<frame>0</frame>
														<displayformat>NDF</displayformat>
													</timecode>
													<media>
														<video>
															<samplecharacteristics>
																<rate>
																	<timebase>30</timebase>
																	<ntsc>TRUE</ntsc>
																</rate>
																<width>1920</width>
																<height>1080</height>
																<anamorphic>FALSE</anamorphic>
																<pixelaspectratio>square</pixelaspectratio>
																<fielddominance>none</fielddominance>
															</samplecharacteristics>
														</video>
														<audio>
															<samplecharacteristics>
																<depth>16</depth>
																<samplerate>48000</samplerate>
															</samplecharacteristics>
															<channelcount>2</channelcount>
														</audio>
													</media>
												</file>
												<link>
													<linkclipref>clipitem-150</linkclipref>
													<mediatype>video</mediatype>
													<trackindex>1</trackindex>
													<clipindex>1</clipindex>
												</link>
												<link>
													<linkclipref>clipitem-151</linkclipref>
													<mediatype>audio</mediatype>
													<trackindex>1</trackindex>
													<clipindex>1</clipindex>
													<groupindex>1</groupindex>
												</link>
												<link>
													<linkclipref>clipitem-152</linkclipref>
													<mediatype>audio</mediatype>
													<trackindex>2</trackindex>
													<clipindex>1</clipindex>
													<groupindex>1</groupindex>
												</link>
											</clipitem>
										</track>
									</video>
									<audio>
										<track>
											<clipitem id="clipitem-151">
												<masterclipid>masterclip-97</masterclipid>
												<name>571317_Grilling Pancakes Waffle Cooking_By_Jordan_Hatfield_Artlist_HD.mp4</name>
												<rate>
													<timebase>30</timebase>
													<ntsc>TRUE</ntsc>
												</rate>
												<file id="file-97"/>
												<sourcetrack>
													<mediatype>audio</mediatype>
													<trackindex>1</trackindex>
												</sourcetrack>
												<link>
													<linkclipref>clipitem-150</linkclipref>
													<mediatype>video</mediatype>
													<trackindex>1</trackindex>
													<clipindex>1</clipindex>
												</link>
												<link>
													<linkclipref>clipitem-151</linkclipref>
													<mediatype>audio</mediatype>
													<trackindex>1</trackindex>
													<clipindex>1</clipindex>
													<groupindex>1</groupindex>
												</link>
												<link>
													<linkclipref>clipitem-152</linkclipref>
													<mediatype>audio</mediatype>
													<trackindex>2</trackindex>
													<clipindex>1</clipindex>
													<groupindex>1</groupindex>
												</link>
											</clipitem>
										</track>
										<track>
											<clipitem id="clipitem-152">
												<masterclipid>masterclip-97</masterclipid>
												<name>571317_Grilling Pancakes Waffle Cooking_By_Jordan_Hatfield_Artlist_HD.mp4</name>
												<rate>
													<timebase>30</timebase>
													<ntsc>TRUE</ntsc>
												</rate>
												<file id="file-97"/>
												<sourcetrack>
													<mediatype>audio</mediatype>
													<trackindex>2</trackindex>
												</sourcetrack>
												<link>
													<linkclipref>clipitem-150</linkclipref>
													<mediatype>video</mediatype>
													<trackindex>1</trackindex>
													<clipindex>1</clipindex>
												</link>
												<link>
													<linkclipref>clipitem-151</linkclipref>
													<mediatype>audio</mediatype>
													<trackindex>1</trackindex>
													<clipindex>1</clipindex>
													<groupindex>1</groupindex>
												</link>
												<link>
													<linkclipref>clipitem-152</linkclipref>
													<mediatype>audio</mediatype>
													<trackindex>2</trackindex>
													<clipindex>1</clipindex>
													<groupindex>1</groupindex>
												</link>
											</clipitem>
										</track>
									</audio>
								</media>
								<logginginfo>
									<description></description>
									<scene></scene>
									<shottake></shottake>
									<lognote></lognote>
									<good></good>
									<originalvideofilename></originalvideofilename>
									<originalaudiofilename></originalaudiofilename>
								</logginginfo>
								<colorinfo>
									<lut></lut>
									<lut1></lut1>
									<asc_sop></asc_sop>
									<asc_sat></asc_sat>
									<lut2></lut2>
								</colorinfo>
								<labels>
								</labels>
							</clip>
							<clip id="masterclip-98" explodedTracks="true">
								<uuid>362bf537-4c78-4cef-8c7d-e06c91f2cc9b</uuid>
								<masterclipid>masterclip-98</masterclipid>
								<ismasterclip>TRUE</ismasterclip>
								<duration>337</duration>
								<rate>
									<timebase>30</timebase>
									<ntsc>TRUE</ntsc>
								</rate>
								<out>152</out>
								<name>571318_Grilling Pancakes Waffle Cooking_By_Jordan_Hatfield_Artlist_HD.mp4</name>
								<media>
									<video>
										<track>
											<clipitem id="clipitem-153">
												<masterclipid>masterclip-98</masterclipid>
												<name>571318_Grilling Pancakes Waffle Cooking_By_Jordan_Hatfield_Artlist_HD.mp4</name>
												<rate>
													<timebase>30</timebase>
													<ntsc>TRUE</ntsc>
												</rate>
												<alphatype>none</alphatype>
												<pixelaspectratio>square</pixelaspectratio>
												<anamorphic>FALSE</anamorphic>
												<file id="file-98">
													<name>571318_Grilling Pancakes Waffle Cooking_By_Jordan_Hatfield_Artlist_HD.mp4</name>
													<pathurl>file://localhost/Volumes/ATM%201/EYE%20CANDY/8%3a21%3a23/3_Raw%20Files/Artlist%20-%20Pancakes/571318_Grilling%20Pancakes%20Waffle%20Cooking_By_Jordan_Hatfield_Artlist_HD.mp4</pathurl>
													<rate>
														<timebase>30</timebase>
														<ntsc>TRUE</ntsc>
													</rate>
													<duration>337</duration>
													<timecode>
														<rate>
															<timebase>30</timebase>
															<ntsc>TRUE</ntsc>
														</rate>
														<string>00:00:00:00</string>
														<frame>0</frame>
														<displayformat>NDF</displayformat>
													</timecode>
													<media>
														<video>
															<samplecharacteristics>
																<rate>
																	<timebase>30</timebase>
																	<ntsc>TRUE</ntsc>
																</rate>
																<width>1920</width>
																<height>1080</height>
																<anamorphic>FALSE</anamorphic>
																<pixelaspectratio>square</pixelaspectratio>
																<fielddominance>none</fielddominance>
															</samplecharacteristics>
														</video>
														<audio>
															<samplecharacteristics>
																<depth>16</depth>
																<samplerate>48000</samplerate>
															</samplecharacteristics>
															<channelcount>2</channelcount>
														</audio>
													</media>
												</file>
												<link>
													<linkclipref>clipitem-153</linkclipref>
													<mediatype>video</mediatype>
													<trackindex>1</trackindex>
													<clipindex>1</clipindex>
												</link>
												<link>
													<linkclipref>clipitem-154</linkclipref>
													<mediatype>audio</mediatype>
													<trackindex>1</trackindex>
													<clipindex>1</clipindex>
													<groupindex>1</groupindex>
												</link>
												<link>
													<linkclipref>clipitem-155</linkclipref>
													<mediatype>audio</mediatype>
													<trackindex>2</trackindex>
													<clipindex>1</clipindex>
													<groupindex>1</groupindex>
												</link>
											</clipitem>
										</track>
									</video>
									<audio>
										<track>
											<clipitem id="clipitem-154">
												<masterclipid>masterclip-98</masterclipid>
												<name>571318_Grilling Pancakes Waffle Cooking_By_Jordan_Hatfield_Artlist_HD.mp4</name>
												<rate>
													<timebase>30</timebase>
													<ntsc>TRUE</ntsc>
												</rate>
												<file id="file-98"/>
												<sourcetrack>
													<mediatype>audio</mediatype>
													<trackindex>1</trackindex>
												</sourcetrack>
												<link>
													<linkclipref>clipitem-153</linkclipref>
													<mediatype>video</mediatype>
													<trackindex>1</trackindex>
													<clipindex>1</clipindex>
												</link>
												<link>
													<linkclipref>clipitem-154</linkclipref>
													<mediatype>audio</mediatype>
													<trackindex>1</trackindex>
													<clipindex>1</clipindex>
													<groupindex>1</groupindex>
												</link>
												<link>
													<linkclipref>clipitem-155</linkclipref>
													<mediatype>audio</mediatype>
													<trackindex>2</trackindex>
													<clipindex>1</clipindex>
													<groupindex>1</groupindex>
												</link>
											</clipitem>
										</track>
										<track>
											<clipitem id="clipitem-155">
												<masterclipid>masterclip-98</masterclipid>
												<name>571318_Grilling Pancakes Waffle Cooking_By_Jordan_Hatfield_Artlist_HD.mp4</name>
												<rate>
													<timebase>30</timebase>
													<ntsc>TRUE</ntsc>
												</rate>
												<file id="file-98"/>
												<sourcetrack>
													<mediatype>audio</mediatype>
													<trackindex>2</trackindex>
												</sourcetrack>
												<link>
													<linkclipref>clipitem-153</linkclipref>
													<mediatype>video</mediatype>
													<trackindex>1</trackindex>
													<clipindex>1</clipindex>
												</link>
												<link>
													<linkclipref>clipitem-154</linkclipref>
													<mediatype>audio</mediatype>
													<trackindex>1</trackindex>
													<clipindex>1</clipindex>
													<groupindex>1</groupindex>
												</link>
												<link>
													<linkclipref>clipitem-155</linkclipref>
													<mediatype>audio</mediatype>
													<trackindex>2</trackindex>
													<clipindex>1</clipindex>
													<groupindex>1</groupindex>
												</link>
											</clipitem>
										</track>
									</audio>
								</media>
								<logginginfo>
									<description></description>
									<scene></scene>
									<shottake></shottake>
									<lognote></lognote>
									<good></good>
									<originalvideofilename></originalvideofilename>
									<originalaudiofilename></originalaudiofilename>
								</logginginfo>
								<colorinfo>
									<lut></lut>
									<lut1></lut1>
									<asc_sop></asc_sop>
									<asc_sat></asc_sat>
									<lut2></lut2>
								</colorinfo>
								<labels>
								</labels>
							</clip>
							<clip id="masterclip-99" explodedTracks="true">
								<uuid>2260ec63-6aad-48b6-b2de-d70b66156d78</uuid>
								<masterclipid>masterclip-99</masterclipid>
								<ismasterclip>TRUE</ismasterclip>
								<duration>592</duration>
								<rate>
									<timebase>30</timebase>
									<ntsc>TRUE</ntsc>
								</rate>
								<in>207</in>
								<out>575</out>
								<name>571319_Grilling Pancakes Waffle Cooking_By_Jordan_Hatfield_Artlist_HD.mp4</name>
								<media>
									<video>
										<track>
											<clipitem id="clipitem-156">
												<masterclipid>masterclip-99</masterclipid>
												<name>571319_Grilling Pancakes Waffle Cooking_By_Jordan_Hatfield_Artlist_HD.mp4</name>
												<rate>
													<timebase>30</timebase>
													<ntsc>TRUE</ntsc>
												</rate>
												<alphatype>none</alphatype>
												<pixelaspectratio>square</pixelaspectratio>
												<anamorphic>FALSE</anamorphic>
												<file id="file-99">
													<name>571319_Grilling Pancakes Waffle Cooking_By_Jordan_Hatfield_Artlist_HD.mp4</name>
													<pathurl>file://localhost/Volumes/ATM%201/EYE%20CANDY/8%3a21%3a23/3_Raw%20Files/Artlist%20-%20Pancakes/571319_Grilling%20Pancakes%20Waffle%20Cooking_By_Jordan_Hatfield_Artlist_HD.mp4</pathurl>
													<rate>
														<timebase>30</timebase>
														<ntsc>TRUE</ntsc>
													</rate>
													<duration>592</duration>
													<timecode>
														<rate>
															<timebase>30</timebase>
															<ntsc>TRUE</ntsc>
														</rate>
														<string>00:00:00:00</string>
														<frame>0</frame>
														<displayformat>NDF</displayformat>
													</timecode>
													<media>
														<video>
															<samplecharacteristics>
																<rate>
																	<timebase>30</timebase>
																	<ntsc>TRUE</ntsc>
																</rate>
																<width>1920</width>
																<height>1080</height>
																<anamorphic>FALSE</anamorphic>
																<pixelaspectratio>square</pixelaspectratio>
																<fielddominance>none</fielddominance>
															</samplecharacteristics>
														</video>
														<audio>
															<samplecharacteristics>
																<depth>16</depth>
																<samplerate>48000</samplerate>
															</samplecharacteristics>
															<channelcount>2</channelcount>
														</audio>
													</media>
												</file>
												<link>
													<linkclipref>clipitem-156</linkclipref>
													<mediatype>video</mediatype>
													<trackindex>1</trackindex>
													<clipindex>1</clipindex>
												</link>
												<link>
													<linkclipref>clipitem-157</linkclipref>
													<mediatype>audio</mediatype>
													<trackindex>1</trackindex>
													<clipindex>1</clipindex>
													<groupindex>1</groupindex>
												</link>
												<link>
													<linkclipref>clipitem-158</linkclipref>
													<mediatype>audio</mediatype>
													<trackindex>2</trackindex>
													<clipindex>1</clipindex>
													<groupindex>1</groupindex>
												</link>
											</clipitem>
										</track>
									</video>
									<audio>
										<track>
											<clipitem id="clipitem-157">
												<masterclipid>masterclip-99</masterclipid>
												<name>571319_Grilling Pancakes Waffle Cooking_By_Jordan_Hatfield_Artlist_HD.mp4</name>
												<rate>
													<timebase>30</timebase>
													<ntsc>TRUE</ntsc>
												</rate>
												<file id="file-99"/>
												<sourcetrack>
													<mediatype>audio</mediatype>
													<trackindex>1</trackindex>
												</sourcetrack>
												<link>
													<linkclipref>clipitem-156</linkclipref>
													<mediatype>video</mediatype>
													<trackindex>1</trackindex>
													<clipindex>1</clipindex>
												</link>
												<link>
													<linkclipref>clipitem-157</linkclipref>
													<mediatype>audio</mediatype>
													<trackindex>1</trackindex>
													<clipindex>1</clipindex>
													<groupindex>1</groupindex>
												</link>
												<link>
													<linkclipref>clipitem-158</linkclipref>
													<mediatype>audio</mediatype>
													<trackindex>2</trackindex>
													<clipindex>1</clipindex>
													<groupindex>1</groupindex>
												</link>
											</clipitem>
										</track>
										<track>
											<clipitem id="clipitem-158">
												<masterclipid>masterclip-99</masterclipid>
												<name>571319_Grilling Pancakes Waffle Cooking_By_Jordan_Hatfield_Artlist_HD.mp4</name>
												<rate>
													<timebase>30</timebase>
													<ntsc>TRUE</ntsc>
												</rate>
												<file id="file-99"/>
												<sourcetrack>
													<mediatype>audio</mediatype>
													<trackindex>2</trackindex>
												</sourcetrack>
												<link>
													<linkclipref>clipitem-156</linkclipref>
													<mediatype>video</mediatype>
													<trackindex>1</trackindex>
													<clipindex>1</clipindex>
												</link>
												<link>
													<linkclipref>clipitem-157</linkclipref>
													<mediatype>audio</mediatype>
													<trackindex>1</trackindex>
													<clipindex>1</clipindex>
													<groupindex>1</groupindex>
												</link>
												<link>
													<linkclipref>clipitem-158</linkclipref>
													<mediatype>audio</mediatype>
													<trackindex>2</trackindex>
													<clipindex>1</clipindex>
													<groupindex>1</groupindex>
												</link>
											</clipitem>
										</track>
									</audio>
								</media>
								<logginginfo>
									<description></description>
									<scene></scene>
									<shottake></shottake>
									<lognote></lognote>
									<good></good>
									<originalvideofilename></originalvideofilename>
									<originalaudiofilename></originalaudiofilename>
								</logginginfo>
								<colorinfo>
									<lut></lut>
									<lut1></lut1>
									<asc_sop></asc_sop>
									<asc_sat></asc_sat>
									<lut2></lut2>
								</colorinfo>
								<labels>
								</labels>
							</clip>
							<clip id="masterclip-100" explodedTracks="true">
								<uuid>ac272c1e-381f-435c-b2eb-fdccee69c6f5</uuid>
								<masterclipid>masterclip-100</masterclipid>
								<ismasterclip>TRUE</ismasterclip>
								<duration>313</duration>
								<rate>
									<timebase>30</timebase>
									<ntsc>TRUE</ntsc>
								</rate>
								<name>571320_Grilling Pancakes Waffle Cooking_By_Jordan_Hatfield_Artlist_HD.mp4</name>
								<media>
									<video>
										<track>
											<clipitem id="clipitem-159">
												<masterclipid>masterclip-100</masterclipid>
												<name>571320_Grilling Pancakes Waffle Cooking_By_Jordan_Hatfield_Artlist_HD.mp4</name>
												<rate>
													<timebase>30</timebase>
													<ntsc>TRUE</ntsc>
												</rate>
												<alphatype>none</alphatype>
												<pixelaspectratio>square</pixelaspectratio>
												<anamorphic>FALSE</anamorphic>
												<file id="file-100">
													<name>571320_Grilling Pancakes Waffle Cooking_By_Jordan_Hatfield_Artlist_HD.mp4</name>
													<pathurl>file://localhost/Volumes/ATM%201/EYE%20CANDY/8%3a21%3a23/3_Raw%20Files/Artlist%20-%20Pancakes/571320_Grilling%20Pancakes%20Waffle%20Cooking_By_Jordan_Hatfield_Artlist_HD.mp4</pathurl>
													<rate>
														<timebase>30</timebase>
														<ntsc>TRUE</ntsc>
													</rate>
													<duration>313</duration>
													<timecode>
														<rate>
															<timebase>30</timebase>
															<ntsc>TRUE</ntsc>
														</rate>
														<string>00:00:00:00</string>
														<frame>0</frame>
														<displayformat>NDF</displayformat>
													</timecode>
													<media>
														<video>
															<samplecharacteristics>
																<rate>
																	<timebase>30</timebase>
																	<ntsc>TRUE</ntsc>
																</rate>
																<width>1920</width>
																<height>1080</height>
																<anamorphic>FALSE</anamorphic>
																<pixelaspectratio>square</pixelaspectratio>
																<fielddominance>none</fielddominance>
															</samplecharacteristics>
														</video>
														<audio>
															<samplecharacteristics>
																<depth>16</depth>
																<samplerate>48000</samplerate>
															</samplecharacteristics>
															<channelcount>2</channelcount>
														</audio>
													</media>
												</file>
												<link>
													<linkclipref>clipitem-159</linkclipref>
													<mediatype>video</mediatype>
													<trackindex>1</trackindex>
													<clipindex>1</clipindex>
												</link>
												<link>
													<linkclipref>clipitem-160</linkclipref>
													<mediatype>audio</mediatype>
													<trackindex>1</trackindex>
													<clipindex>1</clipindex>
													<groupindex>1</groupindex>
												</link>
												<link>
													<linkclipref>clipitem-161</linkclipref>
													<mediatype>audio</mediatype>
													<trackindex>2</trackindex>
													<clipindex>1</clipindex>
													<groupindex>1</groupindex>
												</link>
											</clipitem>
										</track>
									</video>
									<audio>
										<track>
											<clipitem id="clipitem-160">
												<masterclipid>masterclip-100</masterclipid>
												<name>571320_Grilling Pancakes Waffle Cooking_By_Jordan_Hatfield_Artlist_HD.mp4</name>
												<rate>
													<timebase>30</timebase>
													<ntsc>TRUE</ntsc>
												</rate>
												<file id="file-100"/>
												<sourcetrack>
													<mediatype>audio</mediatype>
													<trackindex>1</trackindex>
												</sourcetrack>
												<link>
													<linkclipref>clipitem-159</linkclipref>
													<mediatype>video</mediatype>
													<trackindex>1</trackindex>
													<clipindex>1</clipindex>
												</link>
												<link>
													<linkclipref>clipitem-160</linkclipref>
													<mediatype>audio</mediatype>
													<trackindex>1</trackindex>
													<clipindex>1</clipindex>
													<groupindex>1</groupindex>
												</link>
												<link>
													<linkclipref>clipitem-161</linkclipref>
													<mediatype>audio</mediatype>
													<trackindex>2</trackindex>
													<clipindex>1</clipindex>
													<groupindex>1</groupindex>
												</link>
											</clipitem>
										</track>
										<track>
											<clipitem id="clipitem-161">
												<masterclipid>masterclip-100</masterclipid>
												<name>571320_Grilling Pancakes Waffle Cooking_By_Jordan_Hatfield_Artlist_HD.mp4</name>
												<rate>
													<timebase>30</timebase>
													<ntsc>TRUE</ntsc>
												</rate>
												<file id="file-100"/>
												<sourcetrack>
													<mediatype>audio</mediatype>
													<trackindex>2</trackindex>
												</sourcetrack>
												<link>
													<linkclipref>clipitem-159</linkclipref>
													<mediatype>video</mediatype>
													<trackindex>1</trackindex>
													<clipindex>1</clipindex>
												</link>
												<link>
													<linkclipref>clipitem-160</linkclipref>
													<mediatype>audio</mediatype>
													<trackindex>1</trackindex>
													<clipindex>1</clipindex>
													<groupindex>1</groupindex>
												</link>
												<link>
													<linkclipref>clipitem-161</linkclipref>
													<mediatype>audio</mediatype>
													<trackindex>2</trackindex>
													<clipindex>1</clipindex>
													<groupindex>1</groupindex>
												</link>
											</clipitem>
										</track>
									</audio>
								</media>
								<logginginfo>
									<description></description>
									<scene></scene>
									<shottake></shottake>
									<lognote></lognote>
									<good></good>
									<originalvideofilename></originalvideofilename>
									<originalaudiofilename></originalaudiofilename>
								</logginginfo>
								<colorinfo>
									<lut></lut>
									<lut1></lut1>
									<asc_sop></asc_sop>
									<asc_sat></asc_sat>
									<lut2></lut2>
								</colorinfo>
								<labels>
								</labels>
							</clip>
							<clip id="masterclip-101" explodedTracks="true">
								<uuid>3cb83979-6c49-4b9a-a96f-96bf0aecb9dc</uuid>
								<masterclipid>masterclip-101</masterclipid>
								<ismasterclip>TRUE</ismasterclip>
								<duration>213</duration>
								<rate>
									<timebase>30</timebase>
									<ntsc>TRUE</ntsc>
								</rate>
								<out>176</out>
								<name>571322_Grilling Pancakes Waffle Cooking_By_Jordan_Hatfield_Artlist_HD.mp4</name>
								<media>
									<video>
										<track>
											<clipitem id="clipitem-162">
												<masterclipid>masterclip-101</masterclipid>
												<name>571322_Grilling Pancakes Waffle Cooking_By_Jordan_Hatfield_Artlist_HD.mp4</name>
												<rate>
													<timebase>30</timebase>
													<ntsc>TRUE</ntsc>
												</rate>
												<alphatype>none</alphatype>
												<pixelaspectratio>square</pixelaspectratio>
												<anamorphic>FALSE</anamorphic>
												<file id="file-101">
													<name>571322_Grilling Pancakes Waffle Cooking_By_Jordan_Hatfield_Artlist_HD.mp4</name>
													<pathurl>file://localhost/Volumes/ATM%201/EYE%20CANDY/8%3a21%3a23/3_Raw%20Files/Artlist%20-%20Pancakes/571322_Grilling%20Pancakes%20Waffle%20Cooking_By_Jordan_Hatfield_Artlist_HD.mp4</pathurl>
													<rate>
														<timebase>30</timebase>
														<ntsc>TRUE</ntsc>
													</rate>
													<duration>213</duration>
													<timecode>
														<rate>
															<timebase>30</timebase>
															<ntsc>TRUE</ntsc>
														</rate>
														<string>00:00:00:00</string>
														<frame>0</frame>
														<displayformat>NDF</displayformat>
													</timecode>
													<media>
														<video>
															<samplecharacteristics>
																<rate>
																	<timebase>30</timebase>
																	<ntsc>TRUE</ntsc>
																</rate>
																<width>1920</width>
																<height>1080</height>
																<anamorphic>FALSE</anamorphic>
																<pixelaspectratio>square</pixelaspectratio>
																<fielddominance>none</fielddominance>
															</samplecharacteristics>
														</video>
														<audio>
															<samplecharacteristics>
																<depth>16</depth>
																<samplerate>48000</samplerate>
															</samplecharacteristics>
															<channelcount>2</channelcount>
														</audio>
													</media>
												</file>
												<link>
													<linkclipref>clipitem-162</linkclipref>
													<mediatype>video</mediatype>
													<trackindex>1</trackindex>
													<clipindex>1</clipindex>
												</link>
												<link>
													<linkclipref>clipitem-163</linkclipref>
													<mediatype>audio</mediatype>
													<trackindex>1</trackindex>
													<clipindex>1</clipindex>
													<groupindex>1</groupindex>
												</link>
												<link>
													<linkclipref>clipitem-164</linkclipref>
													<mediatype>audio</mediatype>
													<trackindex>2</trackindex>
													<clipindex>1</clipindex>
													<groupindex>1</groupindex>
												</link>
											</clipitem>
										</track>
									</video>
									<audio>
										<track>
											<clipitem id="clipitem-163">
												<masterclipid>masterclip-101</masterclipid>
												<name>571322_Grilling Pancakes Waffle Cooking_By_Jordan_Hatfield_Artlist_HD.mp4</name>
												<rate>
													<timebase>30</timebase>
													<ntsc>TRUE</ntsc>
												</rate>
												<file id="file-101"/>
												<sourcetrack>
													<mediatype>audio</mediatype>
													<trackindex>1</trackindex>
												</sourcetrack>
												<link>
													<linkclipref>clipitem-162</linkclipref>
													<mediatype>video</mediatype>
													<trackindex>1</trackindex>
													<clipindex>1</clipindex>
												</link>
												<link>
													<linkclipref>clipitem-163</linkclipref>
													<mediatype>audio</mediatype>
													<trackindex>1</trackindex>
													<clipindex>1</clipindex>
													<groupindex>1</groupindex>
												</link>
												<link>
													<linkclipref>clipitem-164</linkclipref>
													<mediatype>audio</mediatype>
													<trackindex>2</trackindex>
													<clipindex>1</clipindex>
													<groupindex>1</groupindex>
												</link>
											</clipitem>
										</track>
										<track>
											<clipitem id="clipitem-164">
												<masterclipid>masterclip-101</masterclipid>
												<name>571322_Grilling Pancakes Waffle Cooking_By_Jordan_Hatfield_Artlist_HD.mp4</name>
												<rate>
													<timebase>30</timebase>
													<ntsc>TRUE</ntsc>
												</rate>
												<file id="file-101"/>
												<sourcetrack>
													<mediatype>audio</mediatype>
													<trackindex>2</trackindex>
												</sourcetrack>
												<link>
													<linkclipref>clipitem-162</linkclipref>
													<mediatype>video</mediatype>
													<trackindex>1</trackindex>
													<clipindex>1</clipindex>
												</link>
												<link>
													<linkclipref>clipitem-163</linkclipref>
													<mediatype>audio</mediatype>
													<trackindex>1</trackindex>
													<clipindex>1</clipindex>
													<groupindex>1</groupindex>
												</link>
												<link>
													<linkclipref>clipitem-164</linkclipref>
													<mediatype>audio</mediatype>
													<trackindex>2</trackindex>
													<clipindex>1</clipindex>
													<groupindex>1</groupindex>
												</link>
											</clipitem>
										</track>
									</audio>
								</media>
								<logginginfo>
									<description></description>
									<scene></scene>
									<shottake></shottake>
									<lognote></lognote>
									<good></good>
									<originalvideofilename></originalvideofilename>
									<originalaudiofilename></originalaudiofilename>
								</logginginfo>
								<colorinfo>
									<lut></lut>
									<lut1></lut1>
									<asc_sop></asc_sop>
									<asc_sat></asc_sat>
									<lut2></lut2>
								</colorinfo>
								<labels>
								</labels>
							</clip>
							<clip id="masterclip-102" explodedTracks="true">
								<uuid>da55af77-9b9c-40a0-9b86-772a7c6dfc8a</uuid>
								<masterclipid>masterclip-102</masterclipid>
								<ismasterclip>TRUE</ismasterclip>
								<duration>252</duration>
								<rate>
									<timebase>30</timebase>
									<ntsc>TRUE</ntsc>
								</rate>
								<name>571323_Pouring Batter Grill Cooking_By_Jordan_Hatfield_Artlist_HD.mp4</name>
								<media>
									<video>
										<track>
											<clipitem id="clipitem-165">
												<masterclipid>masterclip-102</masterclipid>
												<name>571323_Pouring Batter Grill Cooking_By_Jordan_Hatfield_Artlist_HD.mp4</name>
												<rate>
													<timebase>30</timebase>
													<ntsc>TRUE</ntsc>
												</rate>
												<alphatype>none</alphatype>
												<pixelaspectratio>square</pixelaspectratio>
												<anamorphic>FALSE</anamorphic>
												<file id="file-102">
													<name>571323_Pouring Batter Grill Cooking_By_Jordan_Hatfield_Artlist_HD.mp4</name>
													<pathurl>file://localhost/Volumes/ATM%201/EYE%20CANDY/8%3a21%3a23/3_Raw%20Files/Artlist%20-%20Pancakes/571323_Pouring%20Batter%20Grill%20Cooking_By_Jordan_Hatfield_Artlist_HD.mp4</pathurl>
													<rate>
														<timebase>30</timebase>
														<ntsc>TRUE</ntsc>
													</rate>
													<duration>252</duration>
													<timecode>
														<rate>
															<timebase>30</timebase>
															<ntsc>TRUE</ntsc>
														</rate>
														<string>00:00:00:00</string>
														<frame>0</frame>
														<displayformat>NDF</displayformat>
													</timecode>
													<media>
														<video>
															<samplecharacteristics>
																<rate>
																	<timebase>30</timebase>
																	<ntsc>TRUE</ntsc>
																</rate>
																<width>1920</width>
																<height>1080</height>
																<anamorphic>FALSE</anamorphic>
																<pixelaspectratio>square</pixelaspectratio>
																<fielddominance>none</fielddominance>
															</samplecharacteristics>
														</video>
														<audio>
															<samplecharacteristics>
																<depth>16</depth>
																<samplerate>48000</samplerate>
															</samplecharacteristics>
															<channelcount>2</channelcount>
														</audio>
													</media>
												</file>
												<link>
													<linkclipref>clipitem-165</linkclipref>
													<mediatype>video</mediatype>
													<trackindex>1</trackindex>
													<clipindex>1</clipindex>
												</link>
												<link>
													<linkclipref>clipitem-166</linkclipref>
													<mediatype>audio</mediatype>
													<trackindex>1</trackindex>
													<clipindex>1</clipindex>
													<groupindex>1</groupindex>
												</link>
												<link>
													<linkclipref>clipitem-167</linkclipref>
													<mediatype>audio</mediatype>
													<trackindex>2</trackindex>
													<clipindex>1</clipindex>
													<groupindex>1</groupindex>
												</link>
											</clipitem>
										</track>
									</video>
									<audio>
										<track>
											<clipitem id="clipitem-166">
												<masterclipid>masterclip-102</masterclipid>
												<name>571323_Pouring Batter Grill Cooking_By_Jordan_Hatfield_Artlist_HD.mp4</name>
												<rate>
													<timebase>30</timebase>
													<ntsc>TRUE</ntsc>
												</rate>
												<file id="file-102"/>
												<sourcetrack>
													<mediatype>audio</mediatype>
													<trackindex>1</trackindex>
												</sourcetrack>
												<link>
													<linkclipref>clipitem-165</linkclipref>
													<mediatype>video</mediatype>
													<trackindex>1</trackindex>
													<clipindex>1</clipindex>
												</link>
												<link>
													<linkclipref>clipitem-166</linkclipref>
													<mediatype>audio</mediatype>
													<trackindex>1</trackindex>
													<clipindex>1</clipindex>
													<groupindex>1</groupindex>
												</link>
												<link>
													<linkclipref>clipitem-167</linkclipref>
													<mediatype>audio</mediatype>
													<trackindex>2</trackindex>
													<clipindex>1</clipindex>
													<groupindex>1</groupindex>
												</link>
											</clipitem>
										</track>
										<track>
											<clipitem id="clipitem-167">
												<masterclipid>masterclip-102</masterclipid>
												<name>571323_Pouring Batter Grill Cooking_By_Jordan_Hatfield_Artlist_HD.mp4</name>
												<rate>
													<timebase>30</timebase>
													<ntsc>TRUE</ntsc>
												</rate>
												<file id="file-102"/>
												<sourcetrack>
													<mediatype>audio</mediatype>
													<trackindex>2</trackindex>
												</sourcetrack>
												<link>
													<linkclipref>clipitem-165</linkclipref>
													<mediatype>video</mediatype>
													<trackindex>1</trackindex>
													<clipindex>1</clipindex>
												</link>
												<link>
													<linkclipref>clipitem-166</linkclipref>
													<mediatype>audio</mediatype>
													<trackindex>1</trackindex>
													<clipindex>1</clipindex>
													<groupindex>1</groupindex>
												</link>
												<link>
													<linkclipref>clipitem-167</linkclipref>
													<mediatype>audio</mediatype>
													<trackindex>2</trackindex>
													<clipindex>1</clipindex>
													<groupindex>1</groupindex>
												</link>
											</clipitem>
										</track>
									</audio>
								</media>
								<logginginfo>
									<description></description>
									<scene></scene>
									<shottake></shottake>
									<lognote></lognote>
									<good></good>
									<originalvideofilename></originalvideofilename>
									<originalaudiofilename></originalaudiofilename>
								</logginginfo>
								<colorinfo>
									<lut></lut>
									<lut1></lut1>
									<asc_sop></asc_sop>
									<asc_sat></asc_sat>
									<lut2></lut2>
								</colorinfo>
								<labels>
								</labels>
							</clip>
							<clip id="masterclip-103" explodedTracks="true">
								<uuid>9654a357-c094-4381-be78-d5ce48b7428b</uuid>
								<masterclipid>masterclip-103</masterclipid>
								<ismasterclip>TRUE</ismasterclip>
								<duration>421</duration>
								<rate>
									<timebase>30</timebase>
									<ntsc>TRUE</ntsc>
								</rate>
								<out>139</out>
								<name>571325_Butter Grill Melting Bubbling_By_Jordan_Hatfield_Artlist_HD.mp4</name>
								<media>
									<video>
										<track>
											<clipitem id="clipitem-168">
												<masterclipid>masterclip-103</masterclipid>
												<name>571325_Butter Grill Melting Bubbling_By_Jordan_Hatfield_Artlist_HD.mp4</name>
												<rate>
													<timebase>30</timebase>
													<ntsc>TRUE</ntsc>
												</rate>
												<alphatype>none</alphatype>
												<pixelaspectratio>square</pixelaspectratio>
												<anamorphic>FALSE</anamorphic>
												<file id="file-103">
													<name>571325_Butter Grill Melting Bubbling_By_Jordan_Hatfield_Artlist_HD.mp4</name>
													<pathurl>file://localhost/Volumes/ATM%201/EYE%20CANDY/8%3a21%3a23/3_Raw%20Files/Artlist%20-%20Pancakes/571325_Butter%20Grill%20Melting%20Bubbling_By_Jordan_Hatfield_Artlist_HD.mp4</pathurl>
													<rate>
														<timebase>30</timebase>
														<ntsc>TRUE</ntsc>
													</rate>
													<duration>421</duration>
													<timecode>
														<rate>
															<timebase>30</timebase>
															<ntsc>TRUE</ntsc>
														</rate>
														<string>00:00:00:00</string>
														<frame>0</frame>
														<displayformat>NDF</displayformat>
													</timecode>
													<media>
														<video>
															<samplecharacteristics>
																<rate>
																	<timebase>30</timebase>
																	<ntsc>TRUE</ntsc>
																</rate>
																<width>1920</width>
																<height>1080</height>
																<anamorphic>FALSE</anamorphic>
																<pixelaspectratio>square</pixelaspectratio>
																<fielddominance>none</fielddominance>
															</samplecharacteristics>
														</video>
														<audio>
															<samplecharacteristics>
																<depth>16</depth>
																<samplerate>48000</samplerate>
															</samplecharacteristics>
															<channelcount>2</channelcount>
														</audio>
													</media>
												</file>
												<link>
													<linkclipref>clipitem-168</linkclipref>
													<mediatype>video</mediatype>
													<trackindex>1</trackindex>
													<clipindex>1</clipindex>
												</link>
												<link>
													<linkclipref>clipitem-169</linkclipref>
													<mediatype>audio</mediatype>
													<trackindex>1</trackindex>
													<clipindex>1</clipindex>
													<groupindex>1</groupindex>
												</link>
												<link>
													<linkclipref>clipitem-170</linkclipref>
													<mediatype>audio</mediatype>
													<trackindex>2</trackindex>
													<clipindex>1</clipindex>
													<groupindex>1</groupindex>
												</link>
											</clipitem>
										</track>
									</video>
									<audio>
										<track>
											<clipitem id="clipitem-169">
												<masterclipid>masterclip-103</masterclipid>
												<name>571325_Butter Grill Melting Bubbling_By_Jordan_Hatfield_Artlist_HD.mp4</name>
												<rate>
													<timebase>30</timebase>
													<ntsc>TRUE</ntsc>
												</rate>
												<file id="file-103"/>
												<sourcetrack>
													<mediatype>audio</mediatype>
													<trackindex>1</trackindex>
												</sourcetrack>
												<link>
													<linkclipref>clipitem-168</linkclipref>
													<mediatype>video</mediatype>
													<trackindex>1</trackindex>
													<clipindex>1</clipindex>
												</link>
												<link>
													<linkclipref>clipitem-169</linkclipref>
													<mediatype>audio</mediatype>
													<trackindex>1</trackindex>
													<clipindex>1</clipindex>
													<groupindex>1</groupindex>
												</link>
												<link>
													<linkclipref>clipitem-170</linkclipref>
													<mediatype>audio</mediatype>
													<trackindex>2</trackindex>
													<clipindex>1</clipindex>
													<groupindex>1</groupindex>
												</link>
											</clipitem>
										</track>
										<track>
											<clipitem id="clipitem-170">
												<masterclipid>masterclip-103</masterclipid>
												<name>571325_Butter Grill Melting Bubbling_By_Jordan_Hatfield_Artlist_HD.mp4</name>
												<rate>
													<timebase>30</timebase>
													<ntsc>TRUE</ntsc>
												</rate>
												<file id="file-103"/>
												<sourcetrack>
													<mediatype>audio</mediatype>
													<trackindex>2</trackindex>
												</sourcetrack>
												<link>
													<linkclipref>clipitem-168</linkclipref>
													<mediatype>video</mediatype>
													<trackindex>1</trackindex>
													<clipindex>1</clipindex>
												</link>
												<link>
													<linkclipref>clipitem-169</linkclipref>
													<mediatype>audio</mediatype>
													<trackindex>1</trackindex>
													<clipindex>1</clipindex>
													<groupindex>1</groupindex>
												</link>
												<link>
													<linkclipref>clipitem-170</linkclipref>
													<mediatype>audio</mediatype>
													<trackindex>2</trackindex>
													<clipindex>1</clipindex>
													<groupindex>1</groupindex>
												</link>
											</clipitem>
										</track>
									</audio>
								</media>
								<logginginfo>
									<description></description>
									<scene></scene>
									<shottake></shottake>
									<lognote></lognote>
									<good></good>
									<originalvideofilename></originalvideofilename>
									<originalaudiofilename></originalaudiofilename>
								</logginginfo>
								<colorinfo>
									<lut></lut>
									<lut1></lut1>
									<asc_sop></asc_sop>
									<asc_sat></asc_sat>
									<lut2></lut2>
								</colorinfo>
								<labels>
								</labels>
							</clip>
							<clip id="masterclip-104" explodedTracks="true">
								<uuid>4f6fc0d8-39c9-45d7-b721-085656326e5b</uuid>
								<masterclipid>masterclip-104</masterclipid>
								<ismasterclip>TRUE</ismasterclip>
								<duration>581</duration>
								<rate>
									<timebase>30</timebase>
									<ntsc>TRUE</ntsc>
								</rate>
								<in>246</in>
								<out>485</out>
								<name>571329_Grilling Pancakes Waffle Cooking_By_Jordan_Hatfield_Artlist_HD.mp4</name>
								<media>
									<video>
										<track>
											<clipitem id="clipitem-171">
												<masterclipid>masterclip-104</masterclipid>
												<name>571329_Grilling Pancakes Waffle Cooking_By_Jordan_Hatfield_Artlist_HD.mp4</name>
												<rate>
													<timebase>30</timebase>
													<ntsc>TRUE</ntsc>
												</rate>
												<alphatype>none</alphatype>
												<pixelaspectratio>square</pixelaspectratio>
												<anamorphic>FALSE</anamorphic>
												<file id="file-104">
													<name>571329_Grilling Pancakes Waffle Cooking_By_Jordan_Hatfield_Artlist_HD.mp4</name>
													<pathurl>file://localhost/Volumes/ATM%201/EYE%20CANDY/8%3a21%3a23/3_Raw%20Files/Artlist%20-%20Pancakes/571329_Grilling%20Pancakes%20Waffle%20Cooking_By_Jordan_Hatfield_Artlist_HD.mp4</pathurl>
													<rate>
														<timebase>30</timebase>
														<ntsc>TRUE</ntsc>
													</rate>
													<duration>581</duration>
													<timecode>
														<rate>
															<timebase>30</timebase>
															<ntsc>TRUE</ntsc>
														</rate>
														<string>00:00:00:00</string>
														<frame>0</frame>
														<displayformat>NDF</displayformat>
													</timecode>
													<media>
														<video>
															<samplecharacteristics>
																<rate>
																	<timebase>30</timebase>
																	<ntsc>TRUE</ntsc>
																</rate>
																<width>1920</width>
																<height>1080</height>
																<anamorphic>FALSE</anamorphic>
																<pixelaspectratio>square</pixelaspectratio>
																<fielddominance>none</fielddominance>
															</samplecharacteristics>
														</video>
														<audio>
															<samplecharacteristics>
																<depth>16</depth>
																<samplerate>48000</samplerate>
															</samplecharacteristics>
															<channelcount>2</channelcount>
														</audio>
													</media>
												</file>
												<link>
													<linkclipref>clipitem-171</linkclipref>
													<mediatype>video</mediatype>
													<trackindex>1</trackindex>
													<clipindex>1</clipindex>
												</link>
												<link>
													<linkclipref>clipitem-172</linkclipref>
													<mediatype>audio</mediatype>
													<trackindex>1</trackindex>
													<clipindex>1</clipindex>
													<groupindex>1</groupindex>
												</link>
												<link>
													<linkclipref>clipitem-173</linkclipref>
													<mediatype>audio</mediatype>
													<trackindex>2</trackindex>
													<clipindex>1</clipindex>
													<groupindex>1</groupindex>
												</link>
											</clipitem>
										</track>
									</video>
									<audio>
										<track>
											<clipitem id="clipitem-172">
												<masterclipid>masterclip-104</masterclipid>
												<name>571329_Grilling Pancakes Waffle Cooking_By_Jordan_Hatfield_Artlist_HD.mp4</name>
												<rate>
													<timebase>30</timebase>
													<ntsc>TRUE</ntsc>
												</rate>
												<file id="file-104"/>
												<sourcetrack>
													<mediatype>audio</mediatype>
													<trackindex>1</trackindex>
												</sourcetrack>
												<link>
													<linkclipref>clipitem-171</linkclipref>
													<mediatype>video</mediatype>
													<trackindex>1</trackindex>
													<clipindex>1</clipindex>
												</link>
												<link>
													<linkclipref>clipitem-172</linkclipref>
													<mediatype>audio</mediatype>
													<trackindex>1</trackindex>
													<clipindex>1</clipindex>
													<groupindex>1</groupindex>
												</link>
												<link>
													<linkclipref>clipitem-173</linkclipref>
													<mediatype>audio</mediatype>
													<trackindex>2</trackindex>
													<clipindex>1</clipindex>
													<groupindex>1</groupindex>
												</link>
											</clipitem>
										</track>
										<track>
											<clipitem id="clipitem-173">
												<masterclipid>masterclip-104</masterclipid>
												<name>571329_Grilling Pancakes Waffle Cooking_By_Jordan_Hatfield_Artlist_HD.mp4</name>
												<rate>
													<timebase>30</timebase>
													<ntsc>TRUE</ntsc>
												</rate>
												<file id="file-104"/>
												<sourcetrack>
													<mediatype>audio</mediatype>
													<trackindex>2</trackindex>
												</sourcetrack>
												<link>
													<linkclipref>clipitem-171</linkclipref>
													<mediatype>video</mediatype>
													<trackindex>1</trackindex>
													<clipindex>1</clipindex>
												</link>
												<link>
													<linkclipref>clipitem-172</linkclipref>
													<mediatype>audio</mediatype>
													<trackindex>1</trackindex>
													<clipindex>1</clipindex>
													<groupindex>1</groupindex>
												</link>
												<link>
													<linkclipref>clipitem-173</linkclipref>
													<mediatype>audio</mediatype>
													<trackindex>2</trackindex>
													<clipindex>1</clipindex>
													<groupindex>1</groupindex>
												</link>
											</clipitem>
										</track>
									</audio>
								</media>
								<logginginfo>
									<description></description>
									<scene></scene>
									<shottake></shottake>
									<lognote></lognote>
									<good></good>
									<originalvideofilename></originalvideofilename>
									<originalaudiofilename></originalaudiofilename>
								</logginginfo>
								<colorinfo>
									<lut></lut>
									<lut1></lut1>
									<asc_sop></asc_sop>
									<asc_sat></asc_sat>
									<lut2></lut2>
								</colorinfo>
								<labels>
								</labels>
							</clip>
						</children>
					</bin>
					<bin>
						<name>Artlist- Cake</name>
						<children>
							<clip id="masterclip-105" explodedTracks="true">
								<uuid>7dfdcb1e-7258-4235-9638-be1358dadee2</uuid>
								<masterclipid>masterclip-105</masterclipid>
								<ismasterclip>TRUE</ismasterclip>
								<duration>282</duration>
								<rate>
									<timebase>25</timebase>
									<ntsc>FALSE</ntsc>
								</rate>
								<out>82</out>
								<name>124561_Glazed fruit and icing sugar on a cake_By_FORVISION_Artlist_HD.mp4</name>
								<media>
									<video>
										<track>
											<clipitem id="clipitem-174">
												<masterclipid>masterclip-105</masterclipid>
												<name>124561_Glazed fruit and icing sugar on a cake_By_FORVISION_Artlist_HD.mp4</name>
												<rate>
													<timebase>25</timebase>
													<ntsc>FALSE</ntsc>
												</rate>
												<alphatype>none</alphatype>
												<pixelaspectratio>PAL-601</pixelaspectratio>
												<anamorphic>FALSE</anamorphic>
												<file id="file-105">
													<name>124561_Glazed fruit and icing sugar on a cake_By_FORVISION_Artlist_HD.mp4</name>
													<pathurl>file://localhost/Volumes/ATM%201/EYE%20CANDY/8%3a21%3a23/3_Raw%20Files/Artlist-%20Cake/124561_Glazed%20fruit%20and%20icing%20sugar%20on%20a%20cake_By_FORVISION_Artlist_HD.mp4</pathurl>
													<rate>
														<timebase>25</timebase>
														<ntsc>FALSE</ntsc>
													</rate>
													<duration>282</duration>
													<timecode>
														<rate>
															<timebase>25</timebase>
															<ntsc>FALSE</ntsc>
														</rate>
														<string>00:00:00:00</string>
														<frame>0</frame>
														<displayformat>NDF</displayformat>
													</timecode>
													<media>
														<video>
															<samplecharacteristics>
																<rate>
																	<timebase>25</timebase>
																	<ntsc>FALSE</ntsc>
																</rate>
																<width>1920</width>
																<height>1080</height>
																<anamorphic>FALSE</anamorphic>
																<pixelaspectratio>PAL-601</pixelaspectratio>
																<fielddominance>none</fielddominance>
															</samplecharacteristics>
														</video>
													</media>
												</file>
											</clipitem>
										</track>
									</video>
								</media>
								<logginginfo>
									<description></description>
									<scene></scene>
									<shottake></shottake>
									<lognote></lognote>
									<good></good>
									<originalvideofilename></originalvideofilename>
									<originalaudiofilename></originalaudiofilename>
								</logginginfo>
								<colorinfo>
									<lut></lut>
									<lut1></lut1>
									<asc_sop></asc_sop>
									<asc_sat></asc_sat>
									<lut2></lut2>
								</colorinfo>
								<labels>
								</labels>
							</clip>
							<clip id="masterclip-106" explodedTracks="true">
								<uuid>224eceed-e65b-4f2c-b6f0-91aba61636fe</uuid>
								<masterclipid>masterclip-106</masterclipid>
								<ismasterclip>TRUE</ismasterclip>
								<duration>274</duration>
								<rate>
									<timebase>25</timebase>
									<ntsc>FALSE</ntsc>
								</rate>
								<in>67</in>
								<name>124562_Icing sugar and glazed fruit decorating a cake_By_FORVISION_Artlist_HD.mp4</name>
								<media>
									<video>
										<track>
											<clipitem id="clipitem-175">
												<masterclipid>masterclip-106</masterclipid>
												<name>124562_Icing sugar and glazed fruit decorating a cake_By_FORVISION_Artlist_HD.mp4</name>
												<rate>
													<timebase>25</timebase>
													<ntsc>FALSE</ntsc>
												</rate>
												<alphatype>none</alphatype>
												<pixelaspectratio>PAL-601</pixelaspectratio>
												<anamorphic>FALSE</anamorphic>
												<file id="file-106">
													<name>124562_Icing sugar and glazed fruit decorating a cake_By_FORVISION_Artlist_HD.mp4</name>
													<pathurl>file://localhost/Volumes/ATM%201/EYE%20CANDY/8%3a21%3a23/3_Raw%20Files/Artlist-%20Cake/124562_Icing%20sugar%20and%20glazed%20fruit%20decorating%20a%20cake_By_FORVISION_Artlist_HD.mp4</pathurl>
													<rate>
														<timebase>25</timebase>
														<ntsc>FALSE</ntsc>
													</rate>
													<duration>274</duration>
													<timecode>
														<rate>
															<timebase>25</timebase>
															<ntsc>FALSE</ntsc>
														</rate>
														<string>00:00:00:00</string>
														<frame>0</frame>
														<displayformat>NDF</displayformat>
													</timecode>
													<media>
														<video>
															<samplecharacteristics>
																<rate>
																	<timebase>25</timebase>
																	<ntsc>FALSE</ntsc>
																</rate>
																<width>1920</width>
																<height>1080</height>
																<anamorphic>FALSE</anamorphic>
																<pixelaspectratio>PAL-601</pixelaspectratio>
																<fielddominance>none</fielddominance>
															</samplecharacteristics>
														</video>
													</media>
												</file>
											</clipitem>
										</track>
									</video>
								</media>
								<logginginfo>
									<description></description>
									<scene></scene>
									<shottake></shottake>
									<lognote></lognote>
									<good></good>
									<originalvideofilename></originalvideofilename>
									<originalaudiofilename></originalaudiofilename>
								</logginginfo>
								<colorinfo>
									<lut></lut>
									<lut1></lut1>
									<asc_sop></asc_sop>
									<asc_sat></asc_sat>
									<lut2></lut2>
								</colorinfo>
								<labels>
								</labels>
							</clip>
							<clip id="masterclip-107" explodedTracks="true">
								<uuid>e6af7b30-f2c4-4c87-8e85-3b2d598e9cf5</uuid>
								<masterclipid>masterclip-107</masterclipid>
								<ismasterclip>TRUE</ismasterclip>
								<duration>284</duration>
								<rate>
									<timebase>25</timebase>
									<ntsc>FALSE</ntsc>
								</rate>
								<out>124</out>
								<name>124563_Icing sugar and candies on top of a cake_By_FORVISION_Artlist_HD.mp4</name>
								<media>
									<video>
										<track>
											<clipitem id="clipitem-176">
												<masterclipid>masterclip-107</masterclipid>
												<name>124563_Icing sugar and candies on top of a cake_By_FORVISION_Artlist_HD.mp4</name>
												<rate>
													<timebase>25</timebase>
													<ntsc>FALSE</ntsc>
												</rate>
												<alphatype>none</alphatype>
												<pixelaspectratio>PAL-601</pixelaspectratio>
												<anamorphic>FALSE</anamorphic>
												<file id="file-107">
													<name>124563_Icing sugar and candies on top of a cake_By_FORVISION_Artlist_HD.mp4</name>
													<pathurl>file://localhost/Volumes/ATM%201/EYE%20CANDY/8%3a21%3a23/3_Raw%20Files/Artlist-%20Cake/124563_Icing%20sugar%20and%20candies%20on%20top%20of%20a%20cake_By_FORVISION_Artlist_HD.mp4</pathurl>
													<rate>
														<timebase>25</timebase>
														<ntsc>FALSE</ntsc>
													</rate>
													<duration>284</duration>
													<timecode>
														<rate>
															<timebase>25</timebase>
															<ntsc>FALSE</ntsc>
														</rate>
														<string>00:00:00:00</string>
														<frame>0</frame>
														<displayformat>NDF</displayformat>
													</timecode>
													<media>
														<video>
															<samplecharacteristics>
																<rate>
																	<timebase>25</timebase>
																	<ntsc>FALSE</ntsc>
																</rate>
																<width>1920</width>
																<height>1080</height>
																<anamorphic>FALSE</anamorphic>
																<pixelaspectratio>PAL-601</pixelaspectratio>
																<fielddominance>none</fielddominance>
															</samplecharacteristics>
														</video>
													</media>
												</file>
											</clipitem>
										</track>
									</video>
								</media>
								<logginginfo>
									<description></description>
									<scene></scene>
									<shottake></shottake>
									<lognote></lognote>
									<good></good>
									<originalvideofilename></originalvideofilename>
									<originalaudiofilename></originalaudiofilename>
								</logginginfo>
								<colorinfo>
									<lut></lut>
									<lut1></lut1>
									<asc_sop></asc_sop>
									<asc_sat></asc_sat>
									<lut2></lut2>
								</colorinfo>
								<labels>
								</labels>
							</clip>
							<clip id="masterclip-108" explodedTracks="true">
								<uuid>d13a0920-26f1-4085-a68a-c7fbd0de03e4</uuid>
								<masterclipid>masterclip-108</masterclipid>
								<ismasterclip>TRUE</ismasterclip>
								<duration>271</duration>
								<rate>
									<timebase>25</timebase>
									<ntsc>FALSE</ntsc>
								</rate>
								<out>110</out>
								<name>124564_Pieces of glazed fruit and icing sugar on a cake_By_FORVISION_Artlist_HD.mp4</name>
								<media>
									<video>
										<track>
											<clipitem id="clipitem-177">
												<masterclipid>masterclip-108</masterclipid>
												<name>124564_Pieces of glazed fruit and icing sugar on a cake_By_FORVISION_Artlist_HD.mp4</name>
												<rate>
													<timebase>25</timebase>
													<ntsc>FALSE</ntsc>
												</rate>
												<alphatype>none</alphatype>
												<pixelaspectratio>PAL-601</pixelaspectratio>
												<anamorphic>FALSE</anamorphic>
												<file id="file-108">
													<name>124564_Pieces of glazed fruit and icing sugar on a cake_By_FORVISION_Artlist_HD.mp4</name>
													<pathurl>file://localhost/Volumes/ATM%201/EYE%20CANDY/8%3a21%3a23/3_Raw%20Files/Artlist-%20Cake/124564_Pieces%20of%20glazed%20fruit%20and%20icing%20sugar%20on%20a%20cake_By_FORVISION_Artlist_HD.mp4</pathurl>
													<rate>
														<timebase>25</timebase>
														<ntsc>FALSE</ntsc>
													</rate>
													<duration>271</duration>
													<timecode>
														<rate>
															<timebase>25</timebase>
															<ntsc>FALSE</ntsc>
														</rate>
														<string>00:00:00:00</string>
														<frame>0</frame>
														<displayformat>NDF</displayformat>
													</timecode>
													<media>
														<video>
															<samplecharacteristics>
																<rate>
																	<timebase>25</timebase>
																	<ntsc>FALSE</ntsc>
																</rate>
																<width>1920</width>
																<height>1080</height>
																<anamorphic>FALSE</anamorphic>
																<pixelaspectratio>PAL-601</pixelaspectratio>
																<fielddominance>none</fielddominance>
															</samplecharacteristics>
														</video>
													</media>
												</file>
											</clipitem>
										</track>
									</video>
								</media>
								<logginginfo>
									<description></description>
									<scene></scene>
									<shottake></shottake>
									<lognote></lognote>
									<good></good>
									<originalvideofilename></originalvideofilename>
									<originalaudiofilename></originalaudiofilename>
								</logginginfo>
								<colorinfo>
									<lut></lut>
									<lut1></lut1>
									<asc_sop></asc_sop>
									<asc_sat></asc_sat>
									<lut2></lut2>
								</colorinfo>
								<labels>
								</labels>
							</clip>
							<clip id="masterclip-109" explodedTracks="true">
								<uuid>81e4496d-b5b2-416e-b169-eec25d9dfb59</uuid>
								<masterclipid>masterclip-109</masterclipid>
								<ismasterclip>TRUE</ismasterclip>
								<duration>274</duration>
								<rate>
									<timebase>25</timebase>
									<ntsc>FALSE</ntsc>
								</rate>
								<out>123</out>
								<name>124565_Icing sugar on a fruit cake_By_FORVISION_Artlist_HD.mp4</name>
								<media>
									<video>
										<track>
											<clipitem id="clipitem-178">
												<masterclipid>masterclip-109</masterclipid>
												<name>124565_Icing sugar on a fruit cake_By_FORVISION_Artlist_HD.mp4</name>
												<rate>
													<timebase>25</timebase>
													<ntsc>FALSE</ntsc>
												</rate>
												<alphatype>none</alphatype>
												<pixelaspectratio>PAL-601</pixelaspectratio>
												<anamorphic>FALSE</anamorphic>
												<file id="file-109">
													<name>124565_Icing sugar on a fruit cake_By_FORVISION_Artlist_HD.mp4</name>
													<pathurl>file://localhost/Volumes/ATM%201/EYE%20CANDY/8%3a21%3a23/3_Raw%20Files/Artlist-%20Cake/124565_Icing%20sugar%20on%20a%20fruit%20cake_By_FORVISION_Artlist_HD.mp4</pathurl>
													<rate>
														<timebase>25</timebase>
														<ntsc>FALSE</ntsc>
													</rate>
													<duration>274</duration>
													<timecode>
														<rate>
															<timebase>25</timebase>
															<ntsc>FALSE</ntsc>
														</rate>
														<string>00:00:00:00</string>
														<frame>0</frame>
														<displayformat>NDF</displayformat>
													</timecode>
													<media>
														<video>
															<samplecharacteristics>
																<rate>
																	<timebase>25</timebase>
																	<ntsc>FALSE</ntsc>
																</rate>
																<width>1920</width>
																<height>1080</height>
																<anamorphic>FALSE</anamorphic>
																<pixelaspectratio>PAL-601</pixelaspectratio>
																<fielddominance>none</fielddominance>
															</samplecharacteristics>
														</video>
													</media>
												</file>
											</clipitem>
										</track>
									</video>
								</media>
								<logginginfo>
									<description></description>
									<scene></scene>
									<shottake></shottake>
									<lognote></lognote>
									<good></good>
									<originalvideofilename></originalvideofilename>
									<originalaudiofilename></originalaudiofilename>
								</logginginfo>
								<colorinfo>
									<lut></lut>
									<lut1></lut1>
									<asc_sop></asc_sop>
									<asc_sat></asc_sat>
									<lut2></lut2>
								</colorinfo>
								<labels>
								</labels>
							</clip>
							<clip id="masterclip-110" explodedTracks="true">
								<uuid>597f69ac-1ae3-4898-853a-d812c0f90678</uuid>
								<masterclipid>masterclip-110</masterclipid>
								<ismasterclip>TRUE</ismasterclip>
								<duration>321</duration>
								<rate>
									<timebase>25</timebase>
									<ntsc>FALSE</ntsc>
								</rate>
								<name>124566_Candies and sugar powder on top of  a cake_By_FORVISION_Artlist_HD.mp4</name>
								<media>
									<video>
										<track>
											<clipitem id="clipitem-179">
												<masterclipid>masterclip-110</masterclipid>
												<name>124566_Candies and sugar powder on top of  a cake_By_FORVISION_Artlist_HD.mp4</name>
												<rate>
													<timebase>25</timebase>
													<ntsc>FALSE</ntsc>
												</rate>
												<alphatype>none</alphatype>
												<pixelaspectratio>PAL-601</pixelaspectratio>
												<anamorphic>FALSE</anamorphic>
												<file id="file-110">
													<name>124566_Candies and sugar powder on top of  a cake_By_FORVISION_Artlist_HD.mp4</name>
													<pathurl>file://localhost/Volumes/ATM%201/EYE%20CANDY/8%3a21%3a23/3_Raw%20Files/Artlist-%20Cake/124566_Candies%20and%20sugar%20powder%20on%20top%20of%c2%a0%20a%20cake_By_FORVISION_Artlist_HD.mp4</pathurl>
													<rate>
														<timebase>25</timebase>
														<ntsc>FALSE</ntsc>
													</rate>
													<duration>321</duration>
													<timecode>
														<rate>
															<timebase>25</timebase>
															<ntsc>FALSE</ntsc>
														</rate>
														<string>00:00:00:00</string>
														<frame>0</frame>
														<displayformat>NDF</displayformat>
													</timecode>
													<media>
														<video>
															<samplecharacteristics>
																<rate>
																	<timebase>25</timebase>
																	<ntsc>FALSE</ntsc>
																</rate>
																<width>1920</width>
																<height>1080</height>
																<anamorphic>FALSE</anamorphic>
																<pixelaspectratio>PAL-601</pixelaspectratio>
																<fielddominance>none</fielddominance>
															</samplecharacteristics>
														</video>
													</media>
												</file>
											</clipitem>
										</track>
									</video>
								</media>
								<logginginfo>
									<description></description>
									<scene></scene>
									<shottake></shottake>
									<lognote></lognote>
									<good></good>
									<originalvideofilename></originalvideofilename>
									<originalaudiofilename></originalaudiofilename>
								</logginginfo>
								<colorinfo>
									<lut></lut>
									<lut1></lut1>
									<asc_sop></asc_sop>
									<asc_sat></asc_sat>
									<lut2></lut2>
								</colorinfo>
								<labels>
								</labels>
							</clip>
							<clip id="masterclip-111" explodedTracks="true">
								<uuid>39c27bfe-97f7-4bb5-9b6e-c641bd4c7dee</uuid>
								<masterclipid>masterclip-111</masterclipid>
								<ismasterclip>TRUE</ismasterclip>
								<duration>317</duration>
								<rate>
									<timebase>25</timebase>
									<ntsc>FALSE</ntsc>
								</rate>
								<out>125</out>
								<name>124567_Sugar powder and sticky candies on top of a cake_By_FORVISION_Artlist_HD.mp4</name>
								<media>
									<video>
										<track>
											<clipitem id="clipitem-180">
												<masterclipid>masterclip-111</masterclipid>
												<name>124567_Sugar powder and sticky candies on top of a cake_By_FORVISION_Artlist_HD.mp4</name>
												<rate>
													<timebase>25</timebase>
													<ntsc>FALSE</ntsc>
												</rate>
												<alphatype>none</alphatype>
												<pixelaspectratio>PAL-601</pixelaspectratio>
												<anamorphic>FALSE</anamorphic>
												<file id="file-111">
													<name>124567_Sugar powder and sticky candies on top of a cake_By_FORVISION_Artlist_HD.mp4</name>
													<pathurl>file://localhost/Volumes/ATM%201/EYE%20CANDY/8%3a21%3a23/3_Raw%20Files/Artlist-%20Cake/124567_Sugar%20powder%20and%20sticky%20candies%20on%20top%20of%20a%20cake_By_FORVISION_Artlist_HD.mp4</pathurl>
													<rate>
														<timebase>25</timebase>
														<ntsc>FALSE</ntsc>
													</rate>
													<duration>317</duration>
													<timecode>
														<rate>
															<timebase>25</timebase>
															<ntsc>FALSE</ntsc>
														</rate>
														<string>00:00:00:00</string>
														<frame>0</frame>
														<displayformat>NDF</displayformat>
													</timecode>
													<media>
														<video>
															<samplecharacteristics>
																<rate>
																	<timebase>25</timebase>
																	<ntsc>FALSE</ntsc>
																</rate>
																<width>1920</width>
																<height>1080</height>
																<anamorphic>FALSE</anamorphic>
																<pixelaspectratio>PAL-601</pixelaspectratio>
																<fielddominance>none</fielddominance>
															</samplecharacteristics>
														</video>
													</media>
												</file>
											</clipitem>
										</track>
									</video>
								</media>
								<logginginfo>
									<description></description>
									<scene></scene>
									<shottake></shottake>
									<lognote></lognote>
									<good></good>
									<originalvideofilename></originalvideofilename>
									<originalaudiofilename></originalaudiofilename>
								</logginginfo>
								<colorinfo>
									<lut></lut>
									<lut1></lut1>
									<asc_sop></asc_sop>
									<asc_sat></asc_sat>
									<lut2></lut2>
								</colorinfo>
								<labels>
								</labels>
							</clip>
							<clip id="masterclip-112" explodedTracks="true">
								<uuid>d4d9ca25-3a52-4184-8b29-d36e3b42f8aa</uuid>
								<masterclipid>masterclip-112</masterclipid>
								<ismasterclip>TRUE</ismasterclip>
								<duration>234</duration>
								<rate>
									<timebase>25</timebase>
									<ntsc>FALSE</ntsc>
								</rate>
								<out>117</out>
								<name>124568_Glazed candies and sugar powder on top of a cake_By_FORVISION_Artlist_HD.mp4</name>
								<media>
									<video>
										<track>
											<clipitem id="clipitem-181">
												<masterclipid>masterclip-112</masterclipid>
												<name>124568_Glazed candies and sugar powder on top of a cake_By_FORVISION_Artlist_HD.mp4</name>
												<rate>
													<timebase>25</timebase>
													<ntsc>FALSE</ntsc>
												</rate>
												<alphatype>none</alphatype>
												<pixelaspectratio>PAL-601</pixelaspectratio>
												<anamorphic>FALSE</anamorphic>
												<file id="file-112">
													<name>124568_Glazed candies and sugar powder on top of a cake_By_FORVISION_Artlist_HD.mp4</name>
													<pathurl>file://localhost/Volumes/ATM%201/EYE%20CANDY/8%3a21%3a23/3_Raw%20Files/Artlist-%20Cake/124568_Glazed%20candies%20and%20sugar%20powder%20on%20top%20of%20a%20cake_By_FORVISION_Artlist_HD.mp4</pathurl>
													<rate>
														<timebase>25</timebase>
														<ntsc>FALSE</ntsc>
													</rate>
													<duration>234</duration>
													<timecode>
														<rate>
															<timebase>25</timebase>
															<ntsc>FALSE</ntsc>
														</rate>
														<string>00:00:00:00</string>
														<frame>0</frame>
														<displayformat>NDF</displayformat>
													</timecode>
													<media>
														<video>
															<samplecharacteristics>
																<rate>
																	<timebase>25</timebase>
																	<ntsc>FALSE</ntsc>
																</rate>
																<width>1920</width>
																<height>1080</height>
																<anamorphic>FALSE</anamorphic>
																<pixelaspectratio>PAL-601</pixelaspectratio>
																<fielddominance>none</fielddominance>
															</samplecharacteristics>
														</video>
													</media>
												</file>
											</clipitem>
										</track>
									</video>
								</media>
								<logginginfo>
									<description></description>
									<scene></scene>
									<shottake></shottake>
									<lognote></lognote>
									<good></good>
									<originalvideofilename></originalvideofilename>
									<originalaudiofilename></originalaudiofilename>
								</logginginfo>
								<colorinfo>
									<lut></lut>
									<lut1></lut1>
									<asc_sop></asc_sop>
									<asc_sat></asc_sat>
									<lut2></lut2>
								</colorinfo>
								<labels>
								</labels>
							</clip>
							<clip id="masterclip-113" explodedTracks="true">
								<uuid>7fadb436-8971-45c9-8129-3aab62592d7e</uuid>
								<masterclipid>masterclip-113</masterclipid>
								<ismasterclip>TRUE</ismasterclip>
								<duration>534</duration>
								<rate>
									<timebase>25</timebase>
									<ntsc>FALSE</ntsc>
								</rate>
								<in>209</in>
								<out>498</out>
								<name>124569_Fruit cake decorated with candy and sugar powder_By_FORVISION_Artlist_HD.mp4</name>
								<media>
									<video>
										<track>
											<clipitem id="clipitem-182">
												<masterclipid>masterclip-113</masterclipid>
												<name>124569_Fruit cake decorated with candy and sugar powder_By_FORVISION_Artlist_HD.mp4</name>
												<rate>
													<timebase>25</timebase>
													<ntsc>FALSE</ntsc>
												</rate>
												<alphatype>none</alphatype>
												<pixelaspectratio>PAL-601</pixelaspectratio>
												<anamorphic>FALSE</anamorphic>
												<file id="file-113">
													<name>124569_Fruit cake decorated with candy and sugar powder_By_FORVISION_Artlist_HD.mp4</name>
													<pathurl>file://localhost/Volumes/ATM%201/EYE%20CANDY/8%3a21%3a23/3_Raw%20Files/Artlist-%20Cake/124569_Fruit%20cake%20decorated%20with%20candy%20and%20sugar%20powder_By_FORVISION_Artlist_HD.mp4</pathurl>
													<rate>
														<timebase>25</timebase>
														<ntsc>FALSE</ntsc>
													</rate>
													<duration>534</duration>
													<timecode>
														<rate>
															<timebase>25</timebase>
															<ntsc>FALSE</ntsc>
														</rate>
														<string>00:00:00:00</string>
														<frame>0</frame>
														<displayformat>NDF</displayformat>
													</timecode>
													<media>
														<video>
															<samplecharacteristics>
																<rate>
																	<timebase>25</timebase>
																	<ntsc>FALSE</ntsc>
																</rate>
																<width>1920</width>
																<height>1080</height>
																<anamorphic>FALSE</anamorphic>
																<pixelaspectratio>PAL-601</pixelaspectratio>
																<fielddominance>none</fielddominance>
															</samplecharacteristics>
														</video>
													</media>
												</file>
											</clipitem>
										</track>
									</video>
								</media>
								<logginginfo>
									<description></description>
									<scene></scene>
									<shottake></shottake>
									<lognote></lognote>
									<good></good>
									<originalvideofilename></originalvideofilename>
									<originalaudiofilename></originalaudiofilename>
								</logginginfo>
								<colorinfo>
									<lut></lut>
									<lut1></lut1>
									<asc_sop></asc_sop>
									<asc_sat></asc_sat>
									<lut2></lut2>
								</colorinfo>
								<labels>
								</labels>
							</clip>
							<clip id="masterclip-114" explodedTracks="true">
								<uuid>ab1fd2f3-9f1c-456b-9702-c7c1b00dfa0f</uuid>
								<masterclipid>masterclip-114</masterclipid>
								<ismasterclip>TRUE</ismasterclip>
								<duration>529</duration>
								<rate>
									<timebase>25</timebase>
									<ntsc>FALSE</ntsc>
								</rate>
								<in>186</in>
								<out>435</out>
								<name>124570_A slice of fruit cake decorated with sugar powder next to a fork on a plate_By_FORVISION_Artlist_HD.mp4</name>
								<media>
									<video>
										<track>
											<clipitem id="clipitem-183">
												<masterclipid>masterclip-114</masterclipid>
												<name>124570_A slice of fruit cake decorated with sugar powder next to a fork on a plate_By_FORVISION_Artlist_HD.mp4</name>
												<rate>
													<timebase>25</timebase>
													<ntsc>FALSE</ntsc>
												</rate>
												<alphatype>none</alphatype>
												<pixelaspectratio>PAL-601</pixelaspectratio>
												<anamorphic>FALSE</anamorphic>
												<file id="file-114">
													<name>124570_A slice of fruit cake decorated with sugar powder next to a fork on a plate_By_FORVISION_Artlist_HD.mp4</name>
													<pathurl>file://localhost/Volumes/ATM%201/EYE%20CANDY/8%3a21%3a23/3_Raw%20Files/Artlist-%20Cake/124570_A%20slice%20of%20fruit%20cake%20decorated%20with%20sugar%20powder%20next%20to%20a%20fork%20on%20a%20plate_By_FORVISION_Artlist_HD.mp4</pathurl>
													<rate>
														<timebase>25</timebase>
														<ntsc>FALSE</ntsc>
													</rate>
													<duration>529</duration>
													<timecode>
														<rate>
															<timebase>25</timebase>
															<ntsc>FALSE</ntsc>
														</rate>
														<string>00:00:00:00</string>
														<frame>0</frame>
														<displayformat>NDF</displayformat>
													</timecode>
													<media>
														<video>
															<samplecharacteristics>
																<rate>
																	<timebase>25</timebase>
																	<ntsc>FALSE</ntsc>
																</rate>
																<width>1920</width>
																<height>1080</height>
																<anamorphic>FALSE</anamorphic>
																<pixelaspectratio>PAL-601</pixelaspectratio>
																<fielddominance>none</fielddominance>
															</samplecharacteristics>
														</video>
													</media>
												</file>
											</clipitem>
										</track>
									</video>
								</media>
								<logginginfo>
									<description></description>
									<scene></scene>
									<shottake></shottake>
									<lognote></lognote>
									<good></good>
									<originalvideofilename></originalvideofilename>
									<originalaudiofilename></originalaudiofilename>
								</logginginfo>
								<colorinfo>
									<lut></lut>
									<lut1></lut1>
									<asc_sop></asc_sop>
									<asc_sat></asc_sat>
									<lut2></lut2>
								</colorinfo>
								<labels>
								</labels>
							</clip>
							<clip id="masterclip-115" explodedTracks="true">
								<uuid>09204ad5-bb70-488a-94a8-f0287ec6ac0c</uuid>
								<masterclipid>masterclip-115</masterclipid>
								<ismasterclip>TRUE</ismasterclip>
								<duration>559</duration>
								<rate>
									<timebase>25</timebase>
									<ntsc>FALSE</ntsc>
								</rate>
								<in>93</in>
								<out>242</out>
								<name>124571_Pieces of glazed fruit and icing sugar decorating a slice of cake_By_FORVISION_Artlist_HD.mp4</name>
								<media>
									<video>
										<track>
											<clipitem id="clipitem-184">
												<masterclipid>masterclip-115</masterclipid>
												<name>124571_Pieces of glazed fruit and icing sugar decorating a slice of cake_By_FORVISION_Artlist_HD.mp4</name>
												<rate>
													<timebase>25</timebase>
													<ntsc>FALSE</ntsc>
												</rate>
												<alphatype>none</alphatype>
												<pixelaspectratio>PAL-601</pixelaspectratio>
												<anamorphic>FALSE</anamorphic>
												<file id="file-115">
													<name>124571_Pieces of glazed fruit and icing sugar decorating a slice of cake_By_FORVISION_Artlist_HD.mp4</name>
													<pathurl>file://localhost/Volumes/ATM%201/EYE%20CANDY/8%3a21%3a23/3_Raw%20Files/Artlist-%20Cake/124571_Pieces%20of%20glazed%20fruit%20and%20icing%20sugar%20decorating%20a%20slice%20of%20cake_By_FORVISION_Artlist_HD.mp4</pathurl>
													<rate>
														<timebase>25</timebase>
														<ntsc>FALSE</ntsc>
													</rate>
													<duration>559</duration>
													<timecode>
														<rate>
															<timebase>25</timebase>
															<ntsc>FALSE</ntsc>
														</rate>
														<string>00:00:00:00</string>
														<frame>0</frame>
														<displayformat>NDF</displayformat>
													</timecode>
													<media>
														<video>
															<samplecharacteristics>
																<rate>
																	<timebase>25</timebase>
																	<ntsc>FALSE</ntsc>
																</rate>
																<width>1920</width>
																<height>1080</height>
																<anamorphic>FALSE</anamorphic>
																<pixelaspectratio>PAL-601</pixelaspectratio>
																<fielddominance>none</fielddominance>
															</samplecharacteristics>
														</video>
													</media>
												</file>
											</clipitem>
										</track>
									</video>
								</media>
								<logginginfo>
									<description></description>
									<scene></scene>
									<shottake></shottake>
									<lognote></lognote>
									<good></good>
									<originalvideofilename></originalvideofilename>
									<originalaudiofilename></originalaudiofilename>
								</logginginfo>
								<colorinfo>
									<lut></lut>
									<lut1></lut1>
									<asc_sop></asc_sop>
									<asc_sat></asc_sat>
									<lut2></lut2>
								</colorinfo>
								<labels>
								</labels>
							</clip>
							<clip id="masterclip-116" explodedTracks="true">
								<uuid>5d9f6c8e-9962-46bd-b5f1-00e8b2225299</uuid>
								<masterclipid>masterclip-116</masterclipid>
								<ismasterclip>TRUE</ismasterclip>
								<duration>242</duration>
								<rate>
									<timebase>25</timebase>
									<ntsc>FALSE</ntsc>
								</rate>
								<in>86</in>
								<out>209</out>
								<name>124572_Slice of fruit cake topped with fruit and sugar powder_By_FORVISION_Artlist_HD.mp4</name>
								<media>
									<video>
										<track>
											<clipitem id="clipitem-185">
												<masterclipid>masterclip-116</masterclipid>
												<name>124572_Slice of fruit cake topped with fruit and sugar powder_By_FORVISION_Artlist_HD.mp4</name>
												<rate>
													<timebase>25</timebase>
													<ntsc>FALSE</ntsc>
												</rate>
												<alphatype>none</alphatype>
												<pixelaspectratio>PAL-601</pixelaspectratio>
												<anamorphic>FALSE</anamorphic>
												<file id="file-116">
													<name>124572_Slice of fruit cake topped with fruit and sugar powder_By_FORVISION_Artlist_HD.mp4</name>
													<pathurl>file://localhost/Volumes/ATM%201/EYE%20CANDY/8%3a21%3a23/3_Raw%20Files/Artlist-%20Cake/124572_Slice%20of%20fruit%20cake%20topped%20with%20fruit%20and%20sugar%20powder_By_FORVISION_Artlist_HD.mp4</pathurl>
													<rate>
														<timebase>25</timebase>
														<ntsc>FALSE</ntsc>
													</rate>
													<duration>242</duration>
													<timecode>
														<rate>
															<timebase>25</timebase>
															<ntsc>FALSE</ntsc>
														</rate>
														<string>00:00:00:00</string>
														<frame>0</frame>
														<displayformat>NDF</displayformat>
													</timecode>
													<media>
														<video>
															<samplecharacteristics>
																<rate>
																	<timebase>25</timebase>
																	<ntsc>FALSE</ntsc>
																</rate>
																<width>1920</width>
																<height>1080</height>
																<anamorphic>FALSE</anamorphic>
																<pixelaspectratio>PAL-601</pixelaspectratio>
																<fielddominance>none</fielddominance>
															</samplecharacteristics>
														</video>
													</media>
												</file>
											</clipitem>
										</track>
									</video>
								</media>
								<logginginfo>
									<description></description>
									<scene></scene>
									<shottake></shottake>
									<lognote></lognote>
									<good></good>
									<originalvideofilename></originalvideofilename>
									<originalaudiofilename></originalaudiofilename>
								</logginginfo>
								<colorinfo>
									<lut></lut>
									<lut1></lut1>
									<asc_sop></asc_sop>
									<asc_sat></asc_sat>
									<lut2></lut2>
								</colorinfo>
								<labels>
								</labels>
							</clip>
						</children>
					</bin>
					<bin>
						<name>mint chocolate chip</name>
						<children>
							<clip id="masterclip-117" explodedTracks="true">
								<uuid>3727e01c-0869-415d-87eb-1765db7ff0ad</uuid>
								<masterclipid>masterclip-117</masterclipid>
								<ismasterclip>TRUE</ismasterclip>
								<duration>9729</duration>
								<rate>
									<timebase>30</timebase>
									<ntsc>TRUE</ntsc>
								</rate>
								<in>8513</in>
								<out>8589</out>
								<name>(Baking With Ryan)_How To Make a MINT CHOCOLATE CHIP CAKE  _  (Baking With Ryan) Episode 55_FzpNQYQfmKc_YT.mp4</name>
								<media>
									<video>
										<track>
											<clipitem id="clipitem-186">
												<masterclipid>masterclip-117</masterclipid>
												<name>(Baking With Ryan)_How To Make a MINT CHOCOLATE CHIP CAKE  _  (Baking With Ryan) Episode 55_FzpNQYQfmKc_YT.mp4</name>
												<rate>
													<timebase>30</timebase>
													<ntsc>TRUE</ntsc>
												</rate>
												<alphatype>none</alphatype>
												<pixelaspectratio>square</pixelaspectratio>
												<anamorphic>FALSE</anamorphic>
												<file id="file-117">
													<name>(Baking With Ryan)_How To Make a MINT CHOCOLATE CHIP CAKE  _  (Baking With Ryan) Episode 55_FzpNQYQfmKc_YT.mp4</name>
													<pathurl>file://localhost/Volumes/ATM%201/EYE%20CANDY/8%3a21%3a23/3_Raw%20Files/mint%20chocolate%20chip/(Baking%20With%20Ryan)_How%20To%20Make%20a%20MINT%20CHOCOLATE%20CHIP%20CAKE%20%20_%20%20(Baking%20With%20Ryan)%20Episode%2055_FzpNQYQfmKc_YT.mp4</pathurl>
													<rate>
														<timebase>30</timebase>
														<ntsc>TRUE</ntsc>
													</rate>
													<duration>9729</duration>
													<timecode>
														<rate>
															<timebase>30</timebase>
															<ntsc>TRUE</ntsc>
														</rate>
														<string>00:00:00:00</string>
														<frame>0</frame>
														<displayformat>NDF</displayformat>
													</timecode>
													<media>
														<video>
															<samplecharacteristics>
																<rate>
																	<timebase>30</timebase>
																	<ntsc>TRUE</ntsc>
																</rate>
																<width>1920</width>
																<height>1080</height>
																<anamorphic>FALSE</anamorphic>
																<pixelaspectratio>square</pixelaspectratio>
																<fielddominance>none</fielddominance>
															</samplecharacteristics>
														</video>
														<audio>
															<samplecharacteristics>
																<depth>16</depth>
																<samplerate>44100</samplerate>
															</samplecharacteristics>
															<channelcount>2</channelcount>
														</audio>
													</media>
												</file>
												<link>
													<linkclipref>clipitem-186</linkclipref>
													<mediatype>video</mediatype>
													<trackindex>1</trackindex>
													<clipindex>1</clipindex>
												</link>
												<link>
													<linkclipref>clipitem-187</linkclipref>
													<mediatype>audio</mediatype>
													<trackindex>1</trackindex>
													<clipindex>1</clipindex>
													<groupindex>1</groupindex>
												</link>
												<link>
													<linkclipref>clipitem-188</linkclipref>
													<mediatype>audio</mediatype>
													<trackindex>2</trackindex>
													<clipindex>1</clipindex>
													<groupindex>1</groupindex>
												</link>
											</clipitem>
										</track>
									</video>
									<audio>
										<track>
											<clipitem id="clipitem-187">
												<masterclipid>masterclip-117</masterclipid>
												<name>(Baking With Ryan)_How To Make a MINT CHOCOLATE CHIP CAKE  _  (Baking With Ryan) Episode 55_FzpNQYQfmKc_YT.mp4</name>
												<rate>
													<timebase>30</timebase>
													<ntsc>TRUE</ntsc>
												</rate>
												<file id="file-117"/>
												<sourcetrack>
													<mediatype>audio</mediatype>
													<trackindex>1</trackindex>
												</sourcetrack>
												<link>
													<linkclipref>clipitem-186</linkclipref>
													<mediatype>video</mediatype>
													<trackindex>1</trackindex>
													<clipindex>1</clipindex>
												</link>
												<link>
													<linkclipref>clipitem-187</linkclipref>
													<mediatype>audio</mediatype>
													<trackindex>1</trackindex>
													<clipindex>1</clipindex>
													<groupindex>1</groupindex>
												</link>
												<link>
													<linkclipref>clipitem-188</linkclipref>
													<mediatype>audio</mediatype>
													<trackindex>2</trackindex>
													<clipindex>1</clipindex>
													<groupindex>1</groupindex>
												</link>
											</clipitem>
										</track>
										<track>
											<clipitem id="clipitem-188">
												<masterclipid>masterclip-117</masterclipid>
												<name>(Baking With Ryan)_How To Make a MINT CHOCOLATE CHIP CAKE  _  (Baking With Ryan) Episode 55_FzpNQYQfmKc_YT.mp4</name>
												<rate>
													<timebase>30</timebase>
													<ntsc>TRUE</ntsc>
												</rate>
												<file id="file-117"/>
												<sourcetrack>
													<mediatype>audio</mediatype>
													<trackindex>2</trackindex>
												</sourcetrack>
												<link>
													<linkclipref>clipitem-186</linkclipref>
													<mediatype>video</mediatype>
													<trackindex>1</trackindex>
													<clipindex>1</clipindex>
												</link>
												<link>
													<linkclipref>clipitem-187</linkclipref>
													<mediatype>audio</mediatype>
													<trackindex>1</trackindex>
													<clipindex>1</clipindex>
													<groupindex>1</groupindex>
												</link>
												<link>
													<linkclipref>clipitem-188</linkclipref>
													<mediatype>audio</mediatype>
													<trackindex>2</trackindex>
													<clipindex>1</clipindex>
													<groupindex>1</groupindex>
												</link>
											</clipitem>
										</track>
									</audio>
								</media>
								<logginginfo>
									<description>How To Make a MINT CHOCOLATE CHIP CAKE  |  Baking with Ryan Episode 55</description>
									<scene></scene>
									<shottake></shottake>
									<lognote>https://www.youtube.com/watch?v=FzpNQYQfmKc</lognote>
									<good></good>
									<originalvideofilename></originalvideofilename>
									<originalaudiofilename></originalaudiofilename>
								</logginginfo>
								<colorinfo>
									<lut></lut>
									<lut1></lut1>
									<asc_sop></asc_sop>
									<asc_sat></asc_sat>
									<lut2></lut2>
								</colorinfo>
								<labels>
								</labels>
							</clip>
							<clip id="masterclip-118" explodedTracks="true">
								<uuid>f4a25d8a-5735-4cde-9c76-67d5ac14502a</uuid>
								<masterclipid>masterclip-118</masterclipid>
								<ismasterclip>TRUE</ismasterclip>
								<duration>828</duration>
								<rate>
									<timebase>30</timebase>
									<ntsc>FALSE</ntsc>
								</rate>
								<in>95</in>
								<out>745</out>
								<name>(sugarandsparrowco)_CpsaOYtjlox_IG.mp4</name>
								<media>
									<video>
										<track>
											<clipitem id="clipitem-189">
												<masterclipid>masterclip-118</masterclipid>
												<name>(sugarandsparrowco)_CpsaOYtjlox_IG.mp4</name>
												<rate>
													<timebase>30</timebase>
													<ntsc>FALSE</ntsc>
												</rate>
												<alphatype>none</alphatype>
												<pixelaspectratio>square</pixelaspectratio>
												<anamorphic>FALSE</anamorphic>
												<file id="file-118">
													<name>(sugarandsparrowco)_CpsaOYtjlox_IG.mp4</name>
													<pathurl>file://localhost/Volumes/ATM%201/EYE%20CANDY/8%3a21%3a23/3_Raw%20Files/mint%20chocolate%20chip/(sugarandsparrowco)_CpsaOYtjlox_IG.mp4</pathurl>
													<rate>
														<timebase>30</timebase>
														<ntsc>FALSE</ntsc>
													</rate>
													<duration>828</duration>
													<timecode>
														<rate>
															<timebase>30</timebase>
															<ntsc>FALSE</ntsc>
														</rate>
														<string>00:00:00:00</string>
														<frame>0</frame>
														<displayformat>NDF</displayformat>
													</timecode>
													<media>
														<video>
															<samplecharacteristics>
																<rate>
																	<timebase>30</timebase>
																	<ntsc>FALSE</ntsc>
																</rate>
																<width>720</width>
																<height>1280</height>
																<anamorphic>FALSE</anamorphic>
																<pixelaspectratio>square</pixelaspectratio>
																<fielddominance>none</fielddominance>
															</samplecharacteristics>
														</video>
														<audio>
															<samplecharacteristics>
																<depth>16</depth>
																<samplerate>44100</samplerate>
															</samplecharacteristics>
															<channelcount>2</channelcount>
														</audio>
													</media>
												</file>
												<link>
													<linkclipref>clipitem-189</linkclipref>
													<mediatype>video</mediatype>
													<trackindex>1</trackindex>
													<clipindex>1</clipindex>
												</link>
												<link>
													<linkclipref>clipitem-190</linkclipref>
													<mediatype>audio</mediatype>
													<trackindex>1</trackindex>
													<clipindex>1</clipindex>
													<groupindex>1</groupindex>
												</link>
												<link>
													<linkclipref>clipitem-191</linkclipref>
													<mediatype>audio</mediatype>
													<trackindex>2</trackindex>
													<clipindex>1</clipindex>
													<groupindex>1</groupindex>
												</link>
											</clipitem>
										</track>
									</video>
									<audio>
										<track>
											<clipitem id="clipitem-190">
												<masterclipid>masterclip-118</masterclipid>
												<name>(sugarandsparrowco)_CpsaOYtjlox_IG.mp4</name>
												<rate>
													<timebase>30</timebase>
													<ntsc>FALSE</ntsc>
												</rate>
												<file id="file-118"/>
												<sourcetrack>
													<mediatype>audio</mediatype>
													<trackindex>1</trackindex>
												</sourcetrack>
												<link>
													<linkclipref>clipitem-189</linkclipref>
													<mediatype>video</mediatype>
													<trackindex>1</trackindex>
													<clipindex>1</clipindex>
												</link>
												<link>
													<linkclipref>clipitem-190</linkclipref>
													<mediatype>audio</mediatype>
													<trackindex>1</trackindex>
													<clipindex>1</clipindex>
													<groupindex>1</groupindex>
												</link>
												<link>
													<linkclipref>clipitem-191</linkclipref>
													<mediatype>audio</mediatype>
													<trackindex>2</trackindex>
													<clipindex>1</clipindex>
													<groupindex>1</groupindex>
												</link>
											</clipitem>
										</track>
										<track>
											<clipitem id="clipitem-191">
												<masterclipid>masterclip-118</masterclipid>
												<name>(sugarandsparrowco)_CpsaOYtjlox_IG.mp4</name>
												<rate>
													<timebase>30</timebase>
													<ntsc>FALSE</ntsc>
												</rate>
												<file id="file-118"/>
												<sourcetrack>
													<mediatype>audio</mediatype>
													<trackindex>2</trackindex>
												</sourcetrack>
												<link>
													<linkclipref>clipitem-189</linkclipref>
													<mediatype>video</mediatype>
													<trackindex>1</trackindex>
													<clipindex>1</clipindex>
												</link>
												<link>
													<linkclipref>clipitem-190</linkclipref>
													<mediatype>audio</mediatype>
													<trackindex>1</trackindex>
													<clipindex>1</clipindex>
													<groupindex>1</groupindex>
												</link>
												<link>
													<linkclipref>clipitem-191</linkclipref>
													<mediatype>audio</mediatype>
													<trackindex>2</trackindex>
													<clipindex>1</clipindex>
													<groupindex>1</groupindex>
												</link>
											</clipitem>
										</track>
									</audio>
								</media>
								<logginginfo>
									<description></description>
									<scene></scene>
									<shottake></shottake>
									<lognote></lognote>
									<good></good>
									<originalvideofilename></originalvideofilename>
									<originalaudiofilename></originalaudiofilename>
								</logginginfo>
								<colorinfo>
									<lut></lut>
									<lut1></lut1>
									<asc_sop></asc_sop>
									<asc_sat></asc_sat>
									<lut2></lut2>
								</colorinfo>
								<labels>
								</labels>
							</clip>
							<clip id="masterclip-119" explodedTracks="true">
								<uuid>4d97f44d-50fd-4729-a440-6b8cd8678a83</uuid>
								<masterclipid>masterclip-119</masterclipid>
								<ismasterclip>TRUE</ismasterclip>
								<duration>322</duration>
								<rate>
									<timebase>30</timebase>
									<ntsc>FALSE</ntsc>
								</rate>
								<name>(thesugarhobby)_ChU43tLtOj8_IG.mp4</name>
								<media>
									<video>
										<track>
											<clipitem id="clipitem-192">
												<masterclipid>masterclip-119</masterclipid>
												<name>(thesugarhobby)_ChU43tLtOj8_IG.mp4</name>
												<rate>
													<timebase>30</timebase>
													<ntsc>FALSE</ntsc>
												</rate>
												<alphatype>none</alphatype>
												<pixelaspectratio>square</pixelaspectratio>
												<anamorphic>FALSE</anamorphic>
												<file id="file-119">
													<name>(thesugarhobby)_ChU43tLtOj8_IG.mp4</name>
													<pathurl>file://localhost/Volumes/ATM%201/EYE%20CANDY/8%3a21%3a23/3_Raw%20Files/mint%20chocolate%20chip/(thesugarhobby)_ChU43tLtOj8_IG.mp4</pathurl>
													<rate>
														<timebase>30</timebase>
														<ntsc>FALSE</ntsc>
													</rate>
													<duration>322</duration>
													<timecode>
														<rate>
															<timebase>30</timebase>
															<ntsc>FALSE</ntsc>
														</rate>
														<string>00:00:00:00</string>
														<frame>0</frame>
														<displayformat>NDF</displayformat>
													</timecode>
													<media>
														<video>
															<samplecharacteristics>
																<rate>
																	<timebase>30</timebase>
																	<ntsc>FALSE</ntsc>
																</rate>
																<width>720</width>
																<height>1280</height>
																<anamorphic>FALSE</anamorphic>
																<pixelaspectratio>square</pixelaspectratio>
																<fielddominance>none</fielddominance>
															</samplecharacteristics>
														</video>
														<audio>
															<samplecharacteristics>
																<depth>16</depth>
																<samplerate>44100</samplerate>
															</samplecharacteristics>
															<channelcount>2</channelcount>
														</audio>
													</media>
												</file>
												<link>
													<linkclipref>clipitem-192</linkclipref>
													<mediatype>video</mediatype>
													<trackindex>1</trackindex>
													<clipindex>1</clipindex>
												</link>
												<link>
													<linkclipref>clipitem-193</linkclipref>
													<mediatype>audio</mediatype>
													<trackindex>1</trackindex>
													<clipindex>1</clipindex>
													<groupindex>1</groupindex>
												</link>
												<link>
													<linkclipref>clipitem-194</linkclipref>
													<mediatype>audio</mediatype>
													<trackindex>2</trackindex>
													<clipindex>1</clipindex>
													<groupindex>1</groupindex>
												</link>
											</clipitem>
										</track>
									</video>
									<audio>
										<track>
											<clipitem id="clipitem-193">
												<masterclipid>masterclip-119</masterclipid>
												<name>(thesugarhobby)_ChU43tLtOj8_IG.mp4</name>
												<rate>
													<timebase>30</timebase>
													<ntsc>FALSE</ntsc>
												</rate>
												<file id="file-119"/>
												<sourcetrack>
													<mediatype>audio</mediatype>
													<trackindex>1</trackindex>
												</sourcetrack>
												<link>
													<linkclipref>clipitem-192</linkclipref>
													<mediatype>video</mediatype>
													<trackindex>1</trackindex>
													<clipindex>1</clipindex>
												</link>
												<link>
													<linkclipref>clipitem-193</linkclipref>
													<mediatype>audio</mediatype>
													<trackindex>1</trackindex>
													<clipindex>1</clipindex>
													<groupindex>1</groupindex>
												</link>
												<link>
													<linkclipref>clipitem-194</linkclipref>
													<mediatype>audio</mediatype>
													<trackindex>2</trackindex>
													<clipindex>1</clipindex>
													<groupindex>1</groupindex>
												</link>
											</clipitem>
										</track>
										<track>
											<clipitem id="clipitem-194">
												<masterclipid>masterclip-119</masterclipid>
												<name>(thesugarhobby)_ChU43tLtOj8_IG.mp4</name>
												<rate>
													<timebase>30</timebase>
													<ntsc>FALSE</ntsc>
												</rate>
												<file id="file-119"/>
												<sourcetrack>
													<mediatype>audio</mediatype>
													<trackindex>2</trackindex>
												</sourcetrack>
												<link>
													<linkclipref>clipitem-192</linkclipref>
													<mediatype>video</mediatype>
													<trackindex>1</trackindex>
													<clipindex>1</clipindex>
												</link>
												<link>
													<linkclipref>clipitem-193</linkclipref>
													<mediatype>audio</mediatype>
													<trackindex>1</trackindex>
													<clipindex>1</clipindex>
													<groupindex>1</groupindex>
												</link>
												<link>
													<linkclipref>clipitem-194</linkclipref>
													<mediatype>audio</mediatype>
													<trackindex>2</trackindex>
													<clipindex>1</clipindex>
													<groupindex>1</groupindex>
												</link>
											</clipitem>
										</track>
									</audio>
								</media>
								<logginginfo>
									<description></description>
									<scene></scene>
									<shottake></shottake>
									<lognote></lognote>
									<good></good>
									<originalvideofilename></originalvideofilename>
									<originalaudiofilename></originalaudiofilename>
								</logginginfo>
								<colorinfo>
									<lut></lut>
									<lut1></lut1>
									<asc_sop></asc_sop>
									<asc_sat></asc_sat>
									<lut2></lut2>
								</colorinfo>
								<labels>
								</labels>
							</clip>
							<clip id="masterclip-120" explodedTracks="true">
								<uuid>0e5a5fe4-386a-4869-bfe5-da130d868ea8</uuid>
								<masterclipid>masterclip-120</masterclipid>
								<ismasterclip>TRUE</ismasterclip>
								<duration>516</duration>
								<rate>
									<timebase>30</timebase>
									<ntsc>FALSE</ntsc>
								</rate>
								<out>182</out>
								<name>(thesugarhobby)_Cs6Bw30gXPW_IG.mp4</name>
								<media>
									<video>
										<track>
											<clipitem id="clipitem-195">
												<masterclipid>masterclip-120</masterclipid>
												<name>(thesugarhobby)_Cs6Bw30gXPW_IG.mp4</name>
												<rate>
													<timebase>30</timebase>
													<ntsc>FALSE</ntsc>
												</rate>
												<alphatype>none</alphatype>
												<pixelaspectratio>square</pixelaspectratio>
												<anamorphic>FALSE</anamorphic>
												<file id="file-120">
													<name>(thesugarhobby)_Cs6Bw30gXPW_IG.mp4</name>
													<pathurl>file://localhost/Volumes/ATM%201/EYE%20CANDY/8%3a21%3a23/3_Raw%20Files/mint%20chocolate%20chip/(thesugarhobby)_Cs6Bw30gXPW_IG.mp4</pathurl>
													<rate>
														<timebase>30</timebase>
														<ntsc>FALSE</ntsc>
													</rate>
													<duration>516</duration>
													<timecode>
														<rate>
															<timebase>30</timebase>
															<ntsc>FALSE</ntsc>
														</rate>
														<string>00:00:00:00</string>
														<frame>0</frame>
														<displayformat>NDF</displayformat>
													</timecode>
													<media>
														<video>
															<samplecharacteristics>
																<rate>
																	<timebase>30</timebase>
																	<ntsc>FALSE</ntsc>
																</rate>
																<width>1080</width>
																<height>1920</height>
																<anamorphic>FALSE</anamorphic>
																<pixelaspectratio>square</pixelaspectratio>
																<fielddominance>none</fielddominance>
															</samplecharacteristics>
														</video>
														<audio>
															<samplecharacteristics>
																<depth>16</depth>
																<samplerate>44100</samplerate>
															</samplecharacteristics>
															<channelcount>2</channelcount>
														</audio>
													</media>
												</file>
												<link>
													<linkclipref>clipitem-195</linkclipref>
													<mediatype>video</mediatype>
													<trackindex>1</trackindex>
													<clipindex>1</clipindex>
												</link>
												<link>
													<linkclipref>clipitem-196</linkclipref>
													<mediatype>audio</mediatype>
													<trackindex>1</trackindex>
													<clipindex>1</clipindex>
													<groupindex>1</groupindex>
												</link>
												<link>
													<linkclipref>clipitem-197</linkclipref>
													<mediatype>audio</mediatype>
													<trackindex>2</trackindex>
													<clipindex>1</clipindex>
													<groupindex>1</groupindex>
												</link>
											</clipitem>
										</track>
									</video>
									<audio>
										<track>
											<clipitem id="clipitem-196">
												<masterclipid>masterclip-120</masterclipid>
												<name>(thesugarhobby)_Cs6Bw30gXPW_IG.mp4</name>
												<rate>
													<timebase>30</timebase>
													<ntsc>FALSE</ntsc>
												</rate>
												<file id="file-120"/>
												<sourcetrack>
													<mediatype>audio</mediatype>
													<trackindex>1</trackindex>
												</sourcetrack>
												<link>
													<linkclipref>clipitem-195</linkclipref>
													<mediatype>video</mediatype>
													<trackindex>1</trackindex>
													<clipindex>1</clipindex>
												</link>
												<link>
													<linkclipref>clipitem-196</linkclipref>
													<mediatype>audio</mediatype>
													<trackindex>1</trackindex>
													<clipindex>1</clipindex>
													<groupindex>1</groupindex>
												</link>
												<link>
													<linkclipref>clipitem-197</linkclipref>
													<mediatype>audio</mediatype>
													<trackindex>2</trackindex>
													<clipindex>1</clipindex>
													<groupindex>1</groupindex>
												</link>
											</clipitem>
										</track>
										<track>
											<clipitem id="clipitem-197">
												<masterclipid>masterclip-120</masterclipid>
												<name>(thesugarhobby)_Cs6Bw30gXPW_IG.mp4</name>
												<rate>
													<timebase>30</timebase>
													<ntsc>FALSE</ntsc>
												</rate>
												<file id="file-120"/>
												<sourcetrack>
													<mediatype>audio</mediatype>
													<trackindex>2</trackindex>
												</sourcetrack>
												<link>
													<linkclipref>clipitem-195</linkclipref>
													<mediatype>video</mediatype>
													<trackindex>1</trackindex>
													<clipindex>1</clipindex>
												</link>
												<link>
													<linkclipref>clipitem-196</linkclipref>
													<mediatype>audio</mediatype>
													<trackindex>1</trackindex>
													<clipindex>1</clipindex>
													<groupindex>1</groupindex>
												</link>
												<link>
													<linkclipref>clipitem-197</linkclipref>
													<mediatype>audio</mediatype>
													<trackindex>2</trackindex>
													<clipindex>1</clipindex>
													<groupindex>1</groupindex>
												</link>
											</clipitem>
										</track>
									</audio>
								</media>
								<logginginfo>
									<description></description>
									<scene></scene>
									<shottake></shottake>
									<lognote></lognote>
									<good></good>
									<originalvideofilename></originalvideofilename>
									<originalaudiofilename></originalaudiofilename>
								</logginginfo>
								<colorinfo>
									<lut></lut>
									<lut1></lut1>
									<asc_sop></asc_sop>
									<asc_sat></asc_sat>
									<lut2></lut2>
								</colorinfo>
								<labels>
								</labels>
							</clip>
							<clip id="masterclip-121" explodedTracks="true">
								<uuid>a9f289e7-f316-4cfa-86e4-f291662b6143</uuid>
								<masterclipid>masterclip-121</masterclipid>
								<ismasterclip>TRUE</ismasterclip>
								<duration>1391</duration>
								<rate>
									<timebase>60</timebase>
									<ntsc>FALSE</ntsc>
								</rate>
								<out>1195</out>
								<name>(thethriftwitch)_7105181666460667182_TT.mp4</name>
								<media>
									<video>
										<track>
											<clipitem id="clipitem-198">
												<masterclipid>masterclip-121</masterclipid>
												<name>(thethriftwitch)_7105181666460667182_TT.mp4</name>
												<rate>
													<timebase>60</timebase>
													<ntsc>FALSE</ntsc>
												</rate>
												<alphatype>none</alphatype>
												<pixelaspectratio>square</pixelaspectratio>
												<anamorphic>FALSE</anamorphic>
												<file id="file-121">
													<name>(thethriftwitch)_7105181666460667182_TT.mp4</name>
													<pathurl>file://localhost/Volumes/ATM%201/EYE%20CANDY/8%3a21%3a23/3_Raw%20Files/mint%20chocolate%20chip/(thethriftwitch)_7105181666460667182_TT.mp4</pathurl>
													<rate>
														<timebase>60</timebase>
														<ntsc>FALSE</ntsc>
													</rate>
													<duration>1391</duration>
													<timecode>
														<rate>
															<timebase>60</timebase>
															<ntsc>FALSE</ntsc>
														</rate>
														<string>00:00:00:00</string>
														<frame>0</frame>
														<displayformat>NDF</displayformat>
													</timecode>
													<media>
														<video>
															<samplecharacteristics>
																<rate>
																	<timebase>60</timebase>
																	<ntsc>FALSE</ntsc>
																</rate>
																<width>576</width>
																<height>1024</height>
																<anamorphic>FALSE</anamorphic>
																<pixelaspectratio>square</pixelaspectratio>
																<fielddominance>none</fielddominance>
															</samplecharacteristics>
														</video>
														<audio>
															<samplecharacteristics>
																<depth>16</depth>
																<samplerate>44100</samplerate>
															</samplecharacteristics>
															<channelcount>2</channelcount>
														</audio>
													</media>
												</file>
												<link>
													<linkclipref>clipitem-198</linkclipref>
													<mediatype>video</mediatype>
													<trackindex>1</trackindex>
													<clipindex>1</clipindex>
												</link>
												<link>
													<linkclipref>clipitem-199</linkclipref>
													<mediatype>audio</mediatype>
													<trackindex>1</trackindex>
													<clipindex>1</clipindex>
													<groupindex>1</groupindex>
												</link>
												<link>
													<linkclipref>clipitem-200</linkclipref>
													<mediatype>audio</mediatype>
													<trackindex>2</trackindex>
													<clipindex>1</clipindex>
													<groupindex>1</groupindex>
												</link>
											</clipitem>
										</track>
									</video>
									<audio>
										<track>
											<clipitem id="clipitem-199">
												<masterclipid>masterclip-121</masterclipid>
												<name>(thethriftwitch)_7105181666460667182_TT.mp4</name>
												<rate>
													<timebase>60</timebase>
													<ntsc>FALSE</ntsc>
												</rate>
												<file id="file-121"/>
												<sourcetrack>
													<mediatype>audio</mediatype>
													<trackindex>1</trackindex>
												</sourcetrack>
												<link>
													<linkclipref>clipitem-198</linkclipref>
													<mediatype>video</mediatype>
													<trackindex>1</trackindex>
													<clipindex>1</clipindex>
												</link>
												<link>
													<linkclipref>clipitem-199</linkclipref>
													<mediatype>audio</mediatype>
													<trackindex>1</trackindex>
													<clipindex>1</clipindex>
													<groupindex>1</groupindex>
												</link>
												<link>
													<linkclipref>clipitem-200</linkclipref>
													<mediatype>audio</mediatype>
													<trackindex>2</trackindex>
													<clipindex>1</clipindex>
													<groupindex>1</groupindex>
												</link>
											</clipitem>
										</track>
										<track>
											<clipitem id="clipitem-200">
												<masterclipid>masterclip-121</masterclipid>
												<name>(thethriftwitch)_7105181666460667182_TT.mp4</name>
												<rate>
													<timebase>60</timebase>
													<ntsc>FALSE</ntsc>
												</rate>
												<file id="file-121"/>
												<sourcetrack>
													<mediatype>audio</mediatype>
													<trackindex>2</trackindex>
												</sourcetrack>
												<link>
													<linkclipref>clipitem-198</linkclipref>
													<mediatype>video</mediatype>
													<trackindex>1</trackindex>
													<clipindex>1</clipindex>
												</link>
												<link>
													<linkclipref>clipitem-199</linkclipref>
													<mediatype>audio</mediatype>
													<trackindex>1</trackindex>
													<clipindex>1</clipindex>
													<groupindex>1</groupindex>
												</link>
												<link>
													<linkclipref>clipitem-200</linkclipref>
													<mediatype>audio</mediatype>
													<trackindex>2</trackindex>
													<clipindex>1</clipindex>
													<groupindex>1</groupindex>
												</link>
											</clipitem>
										</track>
									</audio>
								</media>
								<logginginfo>
									<description></description>
									<scene></scene>
									<shottake></shottake>
									<lognote></lognote>
									<good></good>
									<originalvideofilename></originalvideofilename>
									<originalaudiofilename></originalaudiofilename>
								</logginginfo>
								<colorinfo>
									<lut></lut>
									<lut1></lut1>
									<asc_sop></asc_sop>
									<asc_sat></asc_sat>
									<lut2></lut2>
								</colorinfo>
								<labels>
								</labels>
							</clip>
						</children>
					</bin>
					<bin>
						<name>strawberry</name>
						<children>
							<clip id="masterclip-122" explodedTracks="true">
								<uuid>7a04945c-4bdf-4136-82d0-67776ff3d95d</uuid>
								<masterclipid>masterclip-122</masterclipid>
								<ismasterclip>TRUE</ismasterclip>
								<duration>1035</duration>
								<rate>
									<timebase>30</timebase>
									<ntsc>FALSE</ntsc>
								</rate>
								<out>823</out>
								<name>(_sophieskitchen)_CfUUFUxlHmy_IG.mp4</name>
								<media>
									<video>
										<track>
											<clipitem id="clipitem-201">
												<masterclipid>masterclip-122</masterclipid>
												<name>(_sophieskitchen)_CfUUFUxlHmy_IG.mp4</name>
												<rate>
													<timebase>30</timebase>
													<ntsc>FALSE</ntsc>
												</rate>
												<alphatype>none</alphatype>
												<pixelaspectratio>square</pixelaspectratio>
												<anamorphic>FALSE</anamorphic>
												<file id="file-122">
													<name>(_sophieskitchen)_CfUUFUxlHmy_IG.mp4</name>
													<pathurl>file://localhost/Volumes/ATM%201/EYE%20CANDY/8%3a21%3a23/3_Raw%20Files/strawberry/(_sophieskitchen)_CfUUFUxlHmy_IG.mp4</pathurl>
													<rate>
														<timebase>30</timebase>
														<ntsc>FALSE</ntsc>
													</rate>
													<duration>1035</duration>
													<timecode>
														<rate>
															<timebase>30</timebase>
															<ntsc>FALSE</ntsc>
														</rate>
														<string>00:00:00:00</string>
														<frame>0</frame>
														<displayformat>NDF</displayformat>
													</timecode>
													<media>
														<video>
															<samplecharacteristics>
																<rate>
																	<timebase>30</timebase>
																	<ntsc>FALSE</ntsc>
																</rate>
																<width>720</width>
																<height>1280</height>
																<anamorphic>FALSE</anamorphic>
																<pixelaspectratio>square</pixelaspectratio>
																<fielddominance>none</fielddominance>
															</samplecharacteristics>
														</video>
														<audio>
															<samplecharacteristics>
																<depth>16</depth>
																<samplerate>44100</samplerate>
															</samplecharacteristics>
															<channelcount>2</channelcount>
														</audio>
													</media>
												</file>
												<link>
													<linkclipref>clipitem-201</linkclipref>
													<mediatype>video</mediatype>
													<trackindex>1</trackindex>
													<clipindex>1</clipindex>
												</link>
												<link>
													<linkclipref>clipitem-202</linkclipref>
													<mediatype>audio</mediatype>
													<trackindex>1</trackindex>
													<clipindex>1</clipindex>
													<groupindex>1</groupindex>
												</link>
												<link>
													<linkclipref>clipitem-203</linkclipref>
													<mediatype>audio</mediatype>
													<trackindex>2</trackindex>
													<clipindex>1</clipindex>
													<groupindex>1</groupindex>
												</link>
											</clipitem>
										</track>
									</video>
									<audio>
										<track>
											<clipitem id="clipitem-202">
												<masterclipid>masterclip-122</masterclipid>
												<name>(_sophieskitchen)_CfUUFUxlHmy_IG.mp4</name>
												<rate>
													<timebase>30</timebase>
													<ntsc>FALSE</ntsc>
												</rate>
												<file id="file-122"/>
												<sourcetrack>
													<mediatype>audio</mediatype>
													<trackindex>1</trackindex>
												</sourcetrack>
												<link>
													<linkclipref>clipitem-201</linkclipref>
													<mediatype>video</mediatype>
													<trackindex>1</trackindex>
													<clipindex>1</clipindex>
												</link>
												<link>
													<linkclipref>clipitem-202</linkclipref>
													<mediatype>audio</mediatype>
													<trackindex>1</trackindex>
													<clipindex>1</clipindex>
													<groupindex>1</groupindex>
												</link>
												<link>
													<linkclipref>clipitem-203</linkclipref>
													<mediatype>audio</mediatype>
													<trackindex>2</trackindex>
													<clipindex>1</clipindex>
													<groupindex>1</groupindex>
												</link>
											</clipitem>
										</track>
										<track>
											<clipitem id="clipitem-203">
												<masterclipid>masterclip-122</masterclipid>
												<name>(_sophieskitchen)_CfUUFUxlHmy_IG.mp4</name>
												<rate>
													<timebase>30</timebase>
													<ntsc>FALSE</ntsc>
												</rate>
												<file id="file-122"/>
												<sourcetrack>
													<mediatype>audio</mediatype>
													<trackindex>2</trackindex>
												</sourcetrack>
												<link>
													<linkclipref>clipitem-201</linkclipref>
													<mediatype>video</mediatype>
													<trackindex>1</trackindex>
													<clipindex>1</clipindex>
												</link>
												<link>
													<linkclipref>clipitem-202</linkclipref>
													<mediatype>audio</mediatype>
													<trackindex>1</trackindex>
													<clipindex>1</clipindex>
													<groupindex>1</groupindex>
												</link>
												<link>
													<linkclipref>clipitem-203</linkclipref>
													<mediatype>audio</mediatype>
													<trackindex>2</trackindex>
													<clipindex>1</clipindex>
													<groupindex>1</groupindex>
												</link>
											</clipitem>
										</track>
									</audio>
								</media>
								<logginginfo>
									<description></description>
									<scene></scene>
									<shottake></shottake>
									<lognote></lognote>
									<good></good>
									<originalvideofilename></originalvideofilename>
									<originalaudiofilename></originalaudiofilename>
								</logginginfo>
								<colorinfo>
									<lut></lut>
									<lut1></lut1>
									<asc_sop></asc_sop>
									<asc_sat></asc_sat>
									<lut2></lut2>
								</colorinfo>
								<labels>
								</labels>
							</clip>
							<clip id="masterclip-123" explodedTracks="true">
								<uuid>d9840d9e-04b6-4f26-9554-ba2ef2cc470e</uuid>
								<masterclipid>masterclip-123</masterclipid>
								<ismasterclip>TRUE</ismasterclip>
								<duration>900</duration>
								<rate>
									<timebase>30</timebase>
									<ntsc>FALSE</ntsc>
								</rate>
								<out>853</out>
								<name>(baristahakan)_CRjY3wtB8dU_IG.mp4</name>
								<media>
									<video>
										<track>
											<clipitem id="clipitem-204">
												<masterclipid>masterclip-123</masterclipid>
												<name>(baristahakan)_CRjY3wtB8dU_IG.mp4</name>
												<rate>
													<timebase>30</timebase>
													<ntsc>FALSE</ntsc>
												</rate>
												<alphatype>none</alphatype>
												<pixelaspectratio>square</pixelaspectratio>
												<anamorphic>FALSE</anamorphic>
												<file id="file-123">
													<name>(baristahakan)_CRjY3wtB8dU_IG.mp4</name>
													<pathurl>file://localhost/Volumes/ATM%201/EYE%20CANDY/8%3a21%3a23/3_Raw%20Files/strawberry/(baristahakan)_CRjY3wtB8dU_IG.mp4</pathurl>
													<rate>
														<timebase>30</timebase>
														<ntsc>FALSE</ntsc>
													</rate>
													<duration>900</duration>
													<timecode>
														<rate>
															<timebase>30</timebase>
															<ntsc>FALSE</ntsc>
														</rate>
														<string>00:00:00:00</string>
														<frame>0</frame>
														<displayformat>NDF</displayformat>
													</timecode>
													<media>
														<video>
															<samplecharacteristics>
																<rate>
																	<timebase>30</timebase>
																	<ntsc>FALSE</ntsc>
																</rate>
																<width>720</width>
																<height>1280</height>
																<anamorphic>FALSE</anamorphic>
																<pixelaspectratio>square</pixelaspectratio>
																<fielddominance>none</fielddominance>
															</samplecharacteristics>
														</video>
														<audio>
															<samplecharacteristics>
																<depth>16</depth>
																<samplerate>44100</samplerate>
															</samplecharacteristics>
															<channelcount>1</channelcount>
															<audiochannel>
																<sourcechannel>1</sourcechannel>
															</audiochannel>
														</audio>
													</media>
												</file>
												<link>
													<linkclipref>clipitem-204</linkclipref>
													<mediatype>video</mediatype>
													<trackindex>1</trackindex>
													<clipindex>1</clipindex>
												</link>
												<link>
													<linkclipref>clipitem-205</linkclipref>
													<mediatype>audio</mediatype>
													<trackindex>1</trackindex>
													<clipindex>1</clipindex>
												</link>
											</clipitem>
										</track>
									</video>
									<audio>
										<track>
											<clipitem id="clipitem-205">
												<masterclipid>masterclip-123</masterclipid>
												<name>(baristahakan)_CRjY3wtB8dU_IG.mp4</name>
												<rate>
													<timebase>30</timebase>
													<ntsc>FALSE</ntsc>
												</rate>
												<file id="file-123"/>
												<sourcetrack>
													<mediatype>audio</mediatype>
													<trackindex>1</trackindex>
												</sourcetrack>
												<link>
													<linkclipref>clipitem-204</linkclipref>
													<mediatype>video</mediatype>
													<trackindex>1</trackindex>
													<clipindex>1</clipindex>
												</link>
												<link>
													<linkclipref>clipitem-205</linkclipref>
													<mediatype>audio</mediatype>
													<trackindex>1</trackindex>
													<clipindex>1</clipindex>
												</link>
											</clipitem>
										</track>
									</audio>
								</media>
								<logginginfo>
									<description></description>
									<scene></scene>
									<shottake></shottake>
									<lognote></lognote>
									<good></good>
									<originalvideofilename></originalvideofilename>
									<originalaudiofilename></originalaudiofilename>
								</logginginfo>
								<colorinfo>
									<lut></lut>
									<lut1></lut1>
									<asc_sop></asc_sop>
									<asc_sat></asc_sat>
									<lut2></lut2>
								</colorinfo>
								<labels>
								</labels>
							</clip>
							<clip id="masterclip-124" explodedTracks="true">
								<uuid>daeee6a8-146b-43f1-96a7-b0015d25a7f9</uuid>
								<masterclipid>masterclip-124</masterclipid>
								<ismasterclip>TRUE</ismasterclip>
								<duration>397</duration>
								<rate>
									<timebase>30</timebase>
									<ntsc>FALSE</ntsc>
								</rate>
								<out>42</out>
								<name>(join_jules)_CY4qnuVKW_O_IG.mp4</name>
								<media>
									<video>
										<track>
											<clipitem id="clipitem-206">
												<masterclipid>masterclip-124</masterclipid>
												<name>(join_jules)_CY4qnuVKW_O_IG.mp4</name>
												<rate>
													<timebase>30</timebase>
													<ntsc>FALSE</ntsc>
												</rate>
												<alphatype>none</alphatype>
												<pixelaspectratio>square</pixelaspectratio>
												<anamorphic>FALSE</anamorphic>
												<file id="file-124">
													<name>(join_jules)_CY4qnuVKW_O_IG.mp4</name>
													<pathurl>file://localhost/Volumes/ATM%201/EYE%20CANDY/8%3a21%3a23/3_Raw%20Files/strawberry/(join_jules)_CY4qnuVKW_O_IG.mp4</pathurl>
													<rate>
														<timebase>30</timebase>
														<ntsc>FALSE</ntsc>
													</rate>
													<duration>397</duration>
													<timecode>
														<rate>
															<timebase>30</timebase>
															<ntsc>FALSE</ntsc>
														</rate>
														<string>00:00:00:00</string>
														<frame>0</frame>
														<displayformat>NDF</displayformat>
													</timecode>
													<media>
														<video>
															<samplecharacteristics>
																<rate>
																	<timebase>30</timebase>
																	<ntsc>FALSE</ntsc>
																</rate>
																<width>720</width>
																<height>1280</height>
																<anamorphic>FALSE</anamorphic>
																<pixelaspectratio>square</pixelaspectratio>
																<fielddominance>none</fielddominance>
															</samplecharacteristics>
														</video>
														<audio>
															<samplecharacteristics>
																<depth>16</depth>
																<samplerate>44100</samplerate>
															</samplecharacteristics>
															<channelcount>2</channelcount>
														</audio>
													</media>
												</file>
												<link>
													<linkclipref>clipitem-206</linkclipref>
													<mediatype>video</mediatype>
													<trackindex>1</trackindex>
													<clipindex>1</clipindex>
												</link>
												<link>
													<linkclipref>clipitem-207</linkclipref>
													<mediatype>audio</mediatype>
													<trackindex>1</trackindex>
													<clipindex>1</clipindex>
													<groupindex>1</groupindex>
												</link>
												<link>
													<linkclipref>clipitem-208</linkclipref>
													<mediatype>audio</mediatype>
													<trackindex>2</trackindex>
													<clipindex>1</clipindex>
													<groupindex>1</groupindex>
												</link>
											</clipitem>
										</track>
									</video>
									<audio>
										<track>
											<clipitem id="clipitem-207">
												<masterclipid>masterclip-124</masterclipid>
												<name>(join_jules)_CY4qnuVKW_O_IG.mp4</name>
												<rate>
													<timebase>30</timebase>
													<ntsc>FALSE</ntsc>
												</rate>
												<file id="file-124"/>
												<sourcetrack>
													<mediatype>audio</mediatype>
													<trackindex>1</trackindex>
												</sourcetrack>
												<link>
													<linkclipref>clipitem-206</linkclipref>
													<mediatype>video</mediatype>
													<trackindex>1</trackindex>
													<clipindex>1</clipindex>
												</link>
												<link>
													<linkclipref>clipitem-207</linkclipref>
													<mediatype>audio</mediatype>
													<trackindex>1</trackindex>
													<clipindex>1</clipindex>
													<groupindex>1</groupindex>
												</link>
												<link>
													<linkclipref>clipitem-208</linkclipref>
													<mediatype>audio</mediatype>
													<trackindex>2</trackindex>
													<clipindex>1</clipindex>
													<groupindex>1</groupindex>
												</link>
											</clipitem>
										</track>
										<track>
											<clipitem id="clipitem-208">
												<masterclipid>masterclip-124</masterclipid>
												<name>(join_jules)_CY4qnuVKW_O_IG.mp4</name>
												<rate>
													<timebase>30</timebase>
													<ntsc>FALSE</ntsc>
												</rate>
												<file id="file-124"/>
												<sourcetrack>
													<mediatype>audio</mediatype>
													<trackindex>2</trackindex>
												</sourcetrack>
												<link>
													<linkclipref>clipitem-206</linkclipref>
													<mediatype>video</mediatype>
													<trackindex>1</trackindex>
													<clipindex>1</clipindex>
												</link>
												<link>
													<linkclipref>clipitem-207</linkclipref>
													<mediatype>audio</mediatype>
													<trackindex>1</trackindex>
													<clipindex>1</clipindex>
													<groupindex>1</groupindex>
												</link>
												<link>
													<linkclipref>clipitem-208</linkclipref>
													<mediatype>audio</mediatype>
													<trackindex>2</trackindex>
													<clipindex>1</clipindex>
													<groupindex>1</groupindex>
												</link>
											</clipitem>
										</track>
									</audio>
								</media>
								<logginginfo>
									<description></description>
									<scene></scene>
									<shottake></shottake>
									<lognote></lognote>
									<good></good>
									<originalvideofilename></originalvideofilename>
									<originalaudiofilename></originalaudiofilename>
								</logginginfo>
								<colorinfo>
									<lut></lut>
									<lut1></lut1>
									<asc_sop></asc_sop>
									<asc_sat></asc_sat>
									<lut2></lut2>
								</colorinfo>
								<labels>
								</labels>
							</clip>
							<clip id="masterclip-125" explodedTracks="true">
								<uuid>ce67685d-161a-4ee6-931f-f0c066abb5ca</uuid>
								<masterclipid>masterclip-125</masterclipid>
								<ismasterclip>TRUE</ismasterclip>
								<duration>890</duration>
								<rate>
									<timebase>30</timebase>
									<ntsc>FALSE</ntsc>
								</rate>
								<name>(sophiabakessometimes)_7089896903076252933_TT.mp4</name>
								<media>
									<video>
										<track>
											<clipitem id="clipitem-209">
												<masterclipid>masterclip-125</masterclipid>
												<name>(sophiabakessometimes)_7089896903076252933_TT.mp4</name>
												<rate>
													<timebase>30</timebase>
													<ntsc>FALSE</ntsc>
												</rate>
												<alphatype>none</alphatype>
												<pixelaspectratio>square</pixelaspectratio>
												<anamorphic>FALSE</anamorphic>
												<file id="file-125">
													<name>(sophiabakessometimes)_7089896903076252933_TT.mp4</name>
													<pathurl>file://localhost/Volumes/ATM%201/EYE%20CANDY/8%3a21%3a23/3_Raw%20Files/strawberry/(sophiabakessometimes)_7089896903076252933_TT.mp4</pathurl>
													<rate>
														<timebase>30</timebase>
														<ntsc>FALSE</ntsc>
													</rate>
													<duration>890</duration>
													<timecode>
														<rate>
															<timebase>30</timebase>
															<ntsc>FALSE</ntsc>
														</rate>
														<string>00:00:00:00</string>
														<frame>0</frame>
														<displayformat>NDF</displayformat>
													</timecode>
													<media>
														<video>
															<samplecharacteristics>
																<rate>
																	<timebase>30</timebase>
																	<ntsc>FALSE</ntsc>
																</rate>
																<width>576</width>
																<height>1024</height>
																<anamorphic>FALSE</anamorphic>
																<pixelaspectratio>square</pixelaspectratio>
																<fielddominance>none</fielddominance>
															</samplecharacteristics>
														</video>
														<audio>
															<samplecharacteristics>
																<depth>16</depth>
																<samplerate>44100</samplerate>
															</samplecharacteristics>
															<channelcount>2</channelcount>
														</audio>
													</media>
												</file>
												<link>
													<linkclipref>clipitem-209</linkclipref>
													<mediatype>video</mediatype>
													<trackindex>1</trackindex>
													<clipindex>1</clipindex>
												</link>
												<link>
													<linkclipref>clipitem-210</linkclipref>
													<mediatype>audio</mediatype>
													<trackindex>1</trackindex>
													<clipindex>1</clipindex>
													<groupindex>1</groupindex>
												</link>
												<link>
													<linkclipref>clipitem-211</linkclipref>
													<mediatype>audio</mediatype>
													<trackindex>2</trackindex>
													<clipindex>1</clipindex>
													<groupindex>1</groupindex>
												</link>
											</clipitem>
										</track>
									</video>
									<audio>
										<track>
											<clipitem id="clipitem-210">
												<masterclipid>masterclip-125</masterclipid>
												<name>(sophiabakessometimes)_7089896903076252933_TT.mp4</name>
												<rate>
													<timebase>30</timebase>
													<ntsc>FALSE</ntsc>
												</rate>
												<file id="file-125"/>
												<sourcetrack>
													<mediatype>audio</mediatype>
													<trackindex>1</trackindex>
												</sourcetrack>
												<link>
													<linkclipref>clipitem-209</linkclipref>
													<mediatype>video</mediatype>
													<trackindex>1</trackindex>
													<clipindex>1</clipindex>
												</link>
												<link>
													<linkclipref>clipitem-210</linkclipref>
													<mediatype>audio</mediatype>
													<trackindex>1</trackindex>
													<clipindex>1</clipindex>
													<groupindex>1</groupindex>
												</link>
												<link>
													<linkclipref>clipitem-211</linkclipref>
													<mediatype>audio</mediatype>
													<trackindex>2</trackindex>
													<clipindex>1</clipindex>
													<groupindex>1</groupindex>
												</link>
											</clipitem>
										</track>
										<track>
											<clipitem id="clipitem-211">
												<masterclipid>masterclip-125</masterclipid>
												<name>(sophiabakessometimes)_7089896903076252933_TT.mp4</name>
												<rate>
													<timebase>30</timebase>
													<ntsc>FALSE</ntsc>
												</rate>
												<file id="file-125"/>
												<sourcetrack>
													<mediatype>audio</mediatype>
													<trackindex>2</trackindex>
												</sourcetrack>
												<link>
													<linkclipref>clipitem-209</linkclipref>
													<mediatype>video</mediatype>
													<trackindex>1</trackindex>
													<clipindex>1</clipindex>
												</link>
												<link>
													<linkclipref>clipitem-210</linkclipref>
													<mediatype>audio</mediatype>
													<trackindex>1</trackindex>
													<clipindex>1</clipindex>
													<groupindex>1</groupindex>
												</link>
												<link>
													<linkclipref>clipitem-211</linkclipref>
													<mediatype>audio</mediatype>
													<trackindex>2</trackindex>
													<clipindex>1</clipindex>
													<groupindex>1</groupindex>
												</link>
											</clipitem>
										</track>
									</audio>
								</media>
								<logginginfo>
									<description></description>
									<scene></scene>
									<shottake></shottake>
									<lognote></lognote>
									<good></good>
									<originalvideofilename></originalvideofilename>
									<originalaudiofilename></originalaudiofilename>
								</logginginfo>
								<colorinfo>
									<lut></lut>
									<lut1></lut1>
									<asc_sop></asc_sop>
									<asc_sat></asc_sat>
									<lut2></lut2>
								</colorinfo>
								<labels>
								</labels>
							</clip>
							<clip id="masterclip-126" explodedTracks="true">
								<uuid>c265d855-df39-4449-a72c-867da6cea374</uuid>
								<masterclipid>masterclip-126</masterclipid>
								<ismasterclip>TRUE</ismasterclip>
								<duration>797</duration>
								<rate>
									<timebase>30</timebase>
									<ntsc>FALSE</ntsc>
								</rate>
								<in>94</in>
								<name>(sugarandsparrowco)_Cs39ltFJpnY_IG.mp4</name>
								<media>
									<video>
										<track>
											<clipitem id="clipitem-212">
												<masterclipid>masterclip-126</masterclipid>
												<name>(sugarandsparrowco)_Cs39ltFJpnY_IG.mp4</name>
												<rate>
													<timebase>30</timebase>
													<ntsc>FALSE</ntsc>
												</rate>
												<alphatype>none</alphatype>
												<pixelaspectratio>square</pixelaspectratio>
												<anamorphic>FALSE</anamorphic>
												<file id="file-126">
													<name>(sugarandsparrowco)_Cs39ltFJpnY_IG.mp4</name>
													<pathurl>file://localhost/Volumes/ATM%201/EYE%20CANDY/8%3a21%3a23/3_Raw%20Files/strawberry/(sugarandsparrowco)_Cs39ltFJpnY_IG.mp4</pathurl>
													<rate>
														<timebase>30</timebase>
														<ntsc>FALSE</ntsc>
													</rate>
													<duration>797</duration>
													<timecode>
														<rate>
															<timebase>30</timebase>
															<ntsc>FALSE</ntsc>
														</rate>
														<string>00:00:00:00</string>
														<frame>0</frame>
														<displayformat>NDF</displayformat>
													</timecode>
													<media>
														<video>
															<samplecharacteristics>
																<rate>
																	<timebase>30</timebase>
																	<ntsc>FALSE</ntsc>
																</rate>
																<width>1080</width>
																<height>1920</height>
																<anamorphic>FALSE</anamorphic>
																<pixelaspectratio>square</pixelaspectratio>
																<fielddominance>none</fielddominance>
															</samplecharacteristics>
														</video>
														<audio>
															<samplecharacteristics>
																<depth>16</depth>
																<samplerate>44100</samplerate>
															</samplecharacteristics>
															<channelcount>2</channelcount>
														</audio>
													</media>
												</file>
												<link>
													<linkclipref>clipitem-212</linkclipref>
													<mediatype>video</mediatype>
													<trackindex>1</trackindex>
													<clipindex>1</clipindex>
												</link>
												<link>
													<linkclipref>clipitem-213</linkclipref>
													<mediatype>audio</mediatype>
													<trackindex>1</trackindex>
													<clipindex>1</clipindex>
													<groupindex>1</groupindex>
												</link>
												<link>
													<linkclipref>clipitem-214</linkclipref>
													<mediatype>audio</mediatype>
													<trackindex>2</trackindex>
													<clipindex>1</clipindex>
													<groupindex>1</groupindex>
												</link>
											</clipitem>
										</track>
									</video>
									<audio>
										<track>
											<clipitem id="clipitem-213">
												<masterclipid>masterclip-126</masterclipid>
												<name>(sugarandsparrowco)_Cs39ltFJpnY_IG.mp4</name>
												<rate>
													<timebase>30</timebase>
													<ntsc>FALSE</ntsc>
												</rate>
												<file id="file-126"/>
												<sourcetrack>
													<mediatype>audio</mediatype>
													<trackindex>1</trackindex>
												</sourcetrack>
												<link>
													<linkclipref>clipitem-212</linkclipref>
													<mediatype>video</mediatype>
													<trackindex>1</trackindex>
													<clipindex>1</clipindex>
												</link>
												<link>
													<linkclipref>clipitem-213</linkclipref>
													<mediatype>audio</mediatype>
													<trackindex>1</trackindex>
													<clipindex>1</clipindex>
													<groupindex>1</groupindex>
												</link>
												<link>
													<linkclipref>clipitem-214</linkclipref>
													<mediatype>audio</mediatype>
													<trackindex>2</trackindex>
													<clipindex>1</clipindex>
													<groupindex>1</groupindex>
												</link>
											</clipitem>
										</track>
										<track>
											<clipitem id="clipitem-214">
												<masterclipid>masterclip-126</masterclipid>
												<name>(sugarandsparrowco)_Cs39ltFJpnY_IG.mp4</name>
												<rate>
													<timebase>30</timebase>
													<ntsc>FALSE</ntsc>
												</rate>
												<file id="file-126"/>
												<sourcetrack>
													<mediatype>audio</mediatype>
													<trackindex>2</trackindex>
												</sourcetrack>
												<link>
													<linkclipref>clipitem-212</linkclipref>
													<mediatype>video</mediatype>
													<trackindex>1</trackindex>
													<clipindex>1</clipindex>
												</link>
												<link>
													<linkclipref>clipitem-213</linkclipref>
													<mediatype>audio</mediatype>
													<trackindex>1</trackindex>
													<clipindex>1</clipindex>
													<groupindex>1</groupindex>
												</link>
												<link>
													<linkclipref>clipitem-214</linkclipref>
													<mediatype>audio</mediatype>
													<trackindex>2</trackindex>
													<clipindex>1</clipindex>
													<groupindex>1</groupindex>
												</link>
											</clipitem>
										</track>
									</audio>
								</media>
								<logginginfo>
									<description></description>
									<scene></scene>
									<shottake></shottake>
									<lognote></lognote>
									<good></good>
									<originalvideofilename></originalvideofilename>
									<originalaudiofilename></originalaudiofilename>
								</logginginfo>
								<colorinfo>
									<lut></lut>
									<lut1></lut1>
									<asc_sop></asc_sop>
									<asc_sat></asc_sat>
									<lut2></lut2>
								</colorinfo>
								<labels>
								</labels>
							</clip>
						</children>
					</bin>
					<bin>
						<name>pear</name>
						<children>
							<clip id="masterclip-127" explodedTracks="true">
								<uuid>e60c787c-6883-40f5-83c0-a0eb868c059b</uuid>
								<masterclipid>masterclip-127</masterclipid>
								<ismasterclip>TRUE</ismasterclip>
								<duration>1365</duration>
								<rate>
									<timebase>30</timebase>
									<ntsc>FALSE</ntsc>
								</rate>
								<in>708</in>
								<out>806</out>
								<name>(aquickspoonful)_CruEk8PO7Pu_IG.mp4</name>
								<media>
									<video>
										<track>
											<clipitem id="clipitem-215">
												<masterclipid>masterclip-127</masterclipid>
												<name>(aquickspoonful)_CruEk8PO7Pu_IG.mp4</name>
												<rate>
													<timebase>30</timebase>
													<ntsc>FALSE</ntsc>
												</rate>
												<alphatype>none</alphatype>
												<pixelaspectratio>square</pixelaspectratio>
												<anamorphic>FALSE</anamorphic>
												<file id="file-127">
													<name>(aquickspoonful)_CruEk8PO7Pu_IG.mp4</name>
													<pathurl>file://localhost/Volumes/ATM%201/EYE%20CANDY/8%3a21%3a23/3_Raw%20Files/pear/(aquickspoonful)_CruEk8PO7Pu_IG.mp4</pathurl>
													<rate>
														<timebase>30</timebase>
														<ntsc>FALSE</ntsc>
													</rate>
													<duration>1365</duration>
													<timecode>
														<rate>
															<timebase>30</timebase>
															<ntsc>FALSE</ntsc>
														</rate>
														<string>00:00:00:00</string>
														<frame>0</frame>
														<displayformat>NDF</displayformat>
													</timecode>
													<media>
														<video>
															<samplecharacteristics>
																<rate>
																	<timebase>30</timebase>
																	<ntsc>FALSE</ntsc>
																</rate>
																<width>576</width>
																<height>1024</height>
																<anamorphic>FALSE</anamorphic>
																<pixelaspectratio>square</pixelaspectratio>
																<fielddominance>none</fielddominance>
															</samplecharacteristics>
														</video>
														<audio>
															<samplecharacteristics>
																<depth>16</depth>
																<samplerate>44100</samplerate>
															</samplecharacteristics>
															<channelcount>1</channelcount>
															<audiochannel>
																<sourcechannel>1</sourcechannel>
															</audiochannel>
														</audio>
													</media>
												</file>
												<link>
													<linkclipref>clipitem-215</linkclipref>
													<mediatype>video</mediatype>
													<trackindex>1</trackindex>
													<clipindex>1</clipindex>
												</link>
												<link>
													<linkclipref>clipitem-216</linkclipref>
													<mediatype>audio</mediatype>
													<trackindex>1</trackindex>
													<clipindex>1</clipindex>
												</link>
											</clipitem>
										</track>
									</video>
									<audio>
										<track>
											<clipitem id="clipitem-216">
												<masterclipid>masterclip-127</masterclipid>
												<name>(aquickspoonful)_CruEk8PO7Pu_IG.mp4</name>
												<rate>
													<timebase>30</timebase>
													<ntsc>FALSE</ntsc>
												</rate>
												<file id="file-127"/>
												<sourcetrack>
													<mediatype>audio</mediatype>
													<trackindex>1</trackindex>
												</sourcetrack>
												<link>
													<linkclipref>clipitem-215</linkclipref>
													<mediatype>video</mediatype>
													<trackindex>1</trackindex>
													<clipindex>1</clipindex>
												</link>
												<link>
													<linkclipref>clipitem-216</linkclipref>
													<mediatype>audio</mediatype>
													<trackindex>1</trackindex>
													<clipindex>1</clipindex>
												</link>
											</clipitem>
										</track>
									</audio>
								</media>
								<logginginfo>
									<description></description>
									<scene></scene>
									<shottake></shottake>
									<lognote></lognote>
									<good></good>
									<originalvideofilename></originalvideofilename>
									<originalaudiofilename></originalaudiofilename>
								</logginginfo>
								<colorinfo>
									<lut></lut>
									<lut1></lut1>
									<asc_sop></asc_sop>
									<asc_sat></asc_sat>
									<lut2></lut2>
								</colorinfo>
								<labels>
								</labels>
							</clip>
							<clip id="masterclip-128" explodedTracks="true">
								<uuid>19fe36c8-3477-4f4f-8841-fe1f4acb34d4</uuid>
								<masterclipid>masterclip-128</masterclipid>
								<ismasterclip>TRUE</ismasterclip>
								<duration>1377</duration>
								<rate>
									<timebase>30</timebase>
									<ntsc>FALSE</ntsc>
								</rate>
								<in>701</in>
								<name>(sophiabakessometimes)_7029348799369809157_TT.mp4</name>
								<media>
									<video>
										<track>
											<clipitem id="clipitem-217">
												<masterclipid>masterclip-128</masterclipid>
												<name>(sophiabakessometimes)_7029348799369809157_TT.mp4</name>
												<rate>
													<timebase>30</timebase>
													<ntsc>FALSE</ntsc>
												</rate>
												<alphatype>none</alphatype>
												<pixelaspectratio>square</pixelaspectratio>
												<anamorphic>FALSE</anamorphic>
												<file id="file-128">
													<name>(sophiabakessometimes)_7029348799369809157_TT.mp4</name>
													<pathurl>file://localhost/Volumes/ATM%201/EYE%20CANDY/8%3a21%3a23/3_Raw%20Files/pear/(sophiabakessometimes)_7029348799369809157_TT.mp4</pathurl>
													<rate>
														<timebase>30</timebase>
														<ntsc>FALSE</ntsc>
													</rate>
													<duration>1377</duration>
													<timecode>
														<rate>
															<timebase>30</timebase>
															<ntsc>FALSE</ntsc>
														</rate>
														<string>00:00:00:00</string>
														<frame>0</frame>
														<displayformat>NDF</displayformat>
													</timecode>
													<media>
														<video>
															<samplecharacteristics>
																<rate>
																	<timebase>30</timebase>
																	<ntsc>FALSE</ntsc>
																</rate>
																<width>576</width>
																<height>1024</height>
																<anamorphic>FALSE</anamorphic>
																<pixelaspectratio>square</pixelaspectratio>
																<fielddominance>none</fielddominance>
															</samplecharacteristics>
														</video>
														<audio>
															<samplecharacteristics>
																<depth>16</depth>
																<samplerate>44100</samplerate>
															</samplecharacteristics>
															<channelcount>2</channelcount>
														</audio>
													</media>
												</file>
												<link>
													<linkclipref>clipitem-217</linkclipref>
													<mediatype>video</mediatype>
													<trackindex>1</trackindex>
													<clipindex>1</clipindex>
												</link>
												<link>
													<linkclipref>clipitem-218</linkclipref>
													<mediatype>audio</mediatype>
													<trackindex>1</trackindex>
													<clipindex>1</clipindex>
													<groupindex>1</groupindex>
												</link>
												<link>
													<linkclipref>clipitem-219</linkclipref>
													<mediatype>audio</mediatype>
													<trackindex>2</trackindex>
													<clipindex>1</clipindex>
													<groupindex>1</groupindex>
												</link>
											</clipitem>
										</track>
									</video>
									<audio>
										<track>
											<clipitem id="clipitem-218">
												<masterclipid>masterclip-128</masterclipid>
												<name>(sophiabakessometimes)_7029348799369809157_TT.mp4</name>
												<rate>
													<timebase>30</timebase>
													<ntsc>FALSE</ntsc>
												</rate>
												<file id="file-128"/>
												<sourcetrack>
													<mediatype>audio</mediatype>
													<trackindex>1</trackindex>
												</sourcetrack>
												<link>
													<linkclipref>clipitem-217</linkclipref>
													<mediatype>video</mediatype>
													<trackindex>1</trackindex>
													<clipindex>1</clipindex>
												</link>
												<link>
													<linkclipref>clipitem-218</linkclipref>
													<mediatype>audio</mediatype>
													<trackindex>1</trackindex>
													<clipindex>1</clipindex>
													<groupindex>1</groupindex>
												</link>
												<link>
													<linkclipref>clipitem-219</linkclipref>
													<mediatype>audio</mediatype>
													<trackindex>2</trackindex>
													<clipindex>1</clipindex>
													<groupindex>1</groupindex>
												</link>
											</clipitem>
										</track>
										<track>
											<clipitem id="clipitem-219">
												<masterclipid>masterclip-128</masterclipid>
												<name>(sophiabakessometimes)_7029348799369809157_TT.mp4</name>
												<rate>
													<timebase>30</timebase>
													<ntsc>FALSE</ntsc>
												</rate>
												<file id="file-128"/>
												<sourcetrack>
													<mediatype>audio</mediatype>
													<trackindex>2</trackindex>
												</sourcetrack>
												<link>
													<linkclipref>clipitem-217</linkclipref>
													<mediatype>video</mediatype>
													<trackindex>1</trackindex>
													<clipindex>1</clipindex>
												</link>
												<link>
													<linkclipref>clipitem-218</linkclipref>
													<mediatype>audio</mediatype>
													<trackindex>1</trackindex>
													<clipindex>1</clipindex>
													<groupindex>1</groupindex>
												</link>
												<link>
													<linkclipref>clipitem-219</linkclipref>
													<mediatype>audio</mediatype>
													<trackindex>2</trackindex>
													<clipindex>1</clipindex>
													<groupindex>1</groupindex>
												</link>
											</clipitem>
										</track>
									</audio>
								</media>
								<logginginfo>
									<description></description>
									<scene></scene>
									<shottake></shottake>
									<lognote></lognote>
									<good></good>
									<originalvideofilename></originalvideofilename>
									<originalaudiofilename></originalaudiofilename>
								</logginginfo>
								<colorinfo>
									<lut></lut>
									<lut1></lut1>
									<asc_sop></asc_sop>
									<asc_sat></asc_sat>
									<lut2></lut2>
								</colorinfo>
								<labels>
								</labels>
							</clip>
							<clip id="masterclip-129" explodedTracks="true">
								<uuid>e6e841e8-3503-4c15-8570-881a70d2d63c</uuid>
								<masterclipid>masterclip-129</masterclipid>
								<ismasterclip>TRUE</ismasterclip>
								<duration>752</duration>
								<rate>
									<timebase>30</timebase>
									<ntsc>FALSE</ntsc>
								</rate>
								<out>89</out>
								<name>(succulentbite)_CseGtY4M0wN_IG.mp4</name>
								<media>
									<video>
										<track>
											<clipitem id="clipitem-220">
												<masterclipid>masterclip-129</masterclipid>
												<name>(succulentbite)_CseGtY4M0wN_IG.mp4</name>
												<rate>
													<timebase>30</timebase>
													<ntsc>FALSE</ntsc>
												</rate>
												<alphatype>none</alphatype>
												<pixelaspectratio>square</pixelaspectratio>
												<anamorphic>FALSE</anamorphic>
												<file id="file-129">
													<name>(succulentbite)_CseGtY4M0wN_IG.mp4</name>
													<pathurl>file://localhost/Volumes/ATM%201/EYE%20CANDY/8%3a21%3a23/3_Raw%20Files/pear/(succulentbite)_CseGtY4M0wN_IG.mp4</pathurl>
													<rate>
														<timebase>30</timebase>
														<ntsc>FALSE</ntsc>
													</rate>
													<duration>752</duration>
													<timecode>
														<rate>
															<timebase>30</timebase>
															<ntsc>FALSE</ntsc>
														</rate>
														<string>00:00:00:00</string>
														<frame>0</frame>
														<displayformat>NDF</displayformat>
													</timecode>
													<media>
														<video>
															<samplecharacteristics>
																<rate>
																	<timebase>30</timebase>
																	<ntsc>FALSE</ntsc>
																</rate>
																<width>1080</width>
																<height>1920</height>
																<anamorphic>FALSE</anamorphic>
																<pixelaspectratio>square</pixelaspectratio>
																<fielddominance>none</fielddominance>
															</samplecharacteristics>
														</video>
														<audio>
															<samplecharacteristics>
																<depth>16</depth>
																<samplerate>44100</samplerate>
															</samplecharacteristics>
															<channelcount>2</channelcount>
														</audio>
													</media>
												</file>
												<link>
													<linkclipref>clipitem-220</linkclipref>
													<mediatype>video</mediatype>
													<trackindex>1</trackindex>
													<clipindex>1</clipindex>
												</link>
												<link>
													<linkclipref>clipitem-221</linkclipref>
													<mediatype>audio</mediatype>
													<trackindex>1</trackindex>
													<clipindex>1</clipindex>
													<groupindex>1</groupindex>
												</link>
												<link>
													<linkclipref>clipitem-222</linkclipref>
													<mediatype>audio</mediatype>
													<trackindex>2</trackindex>
													<clipindex>1</clipindex>
													<groupindex>1</groupindex>
												</link>
											</clipitem>
										</track>
									</video>
									<audio>
										<track>
											<clipitem id="clipitem-221">
												<masterclipid>masterclip-129</masterclipid>
												<name>(succulentbite)_CseGtY4M0wN_IG.mp4</name>
												<rate>
													<timebase>30</timebase>
													<ntsc>FALSE</ntsc>
												</rate>
												<file id="file-129"/>
												<sourcetrack>
													<mediatype>audio</mediatype>
													<trackindex>1</trackindex>
												</sourcetrack>
												<link>
													<linkclipref>clipitem-220</linkclipref>
													<mediatype>video</mediatype>
													<trackindex>1</trackindex>
													<clipindex>1</clipindex>
												</link>
												<link>
													<linkclipref>clipitem-221</linkclipref>
													<mediatype>audio</mediatype>
													<trackindex>1</trackindex>
													<clipindex>1</clipindex>
													<groupindex>1</groupindex>
												</link>
												<link>
													<linkclipref>clipitem-222</linkclipref>
													<mediatype>audio</mediatype>
													<trackindex>2</trackindex>
													<clipindex>1</clipindex>
													<groupindex>1</groupindex>
												</link>
											</clipitem>
										</track>
										<track>
											<clipitem id="clipitem-222">
												<masterclipid>masterclip-129</masterclipid>
												<name>(succulentbite)_CseGtY4M0wN_IG.mp4</name>
												<rate>
													<timebase>30</timebase>
													<ntsc>FALSE</ntsc>
												</rate>
												<file id="file-129"/>
												<sourcetrack>
													<mediatype>audio</mediatype>
													<trackindex>2</trackindex>
												</sourcetrack>
												<link>
													<linkclipref>clipitem-220</linkclipref>
													<mediatype>video</mediatype>
													<trackindex>1</trackindex>
													<clipindex>1</clipindex>
												</link>
												<link>
													<linkclipref>clipitem-221</linkclipref>
													<mediatype>audio</mediatype>
													<trackindex>1</trackindex>
													<clipindex>1</clipindex>
													<groupindex>1</groupindex>
												</link>
												<link>
													<linkclipref>clipitem-222</linkclipref>
													<mediatype>audio</mediatype>
													<trackindex>2</trackindex>
													<clipindex>1</clipindex>
													<groupindex>1</groupindex>
												</link>
											</clipitem>
										</track>
									</audio>
								</media>
								<logginginfo>
									<description></description>
									<scene></scene>
									<shottake></shottake>
									<lognote></lognote>
									<good></good>
									<originalvideofilename></originalvideofilename>
									<originalaudiofilename></originalaudiofilename>
								</logginginfo>
								<colorinfo>
									<lut></lut>
									<lut1></lut1>
									<asc_sop></asc_sop>
									<asc_sat></asc_sat>
									<lut2></lut2>
								</colorinfo>
								<labels>
								</labels>
							</clip>
							<clip id="masterclip-130" explodedTracks="true">
								<uuid>3fe53c75-5ca7-47ec-8065-bf9747af37e5</uuid>
								<masterclipid>masterclip-130</masterclipid>
								<ismasterclip>TRUE</ismasterclip>
								<duration>597</duration>
								<rate>
									<timebase>30</timebase>
									<ntsc>FALSE</ntsc>
								</rate>
								<in>548</in>
								<name>(thesugarhobby)_CjAjVX7gVsP_IG.mp4</name>
								<media>
									<video>
										<track>
											<clipitem id="clipitem-223">
												<masterclipid>masterclip-130</masterclipid>
												<name>(thesugarhobby)_CjAjVX7gVsP_IG.mp4</name>
												<rate>
													<timebase>30</timebase>
													<ntsc>FALSE</ntsc>
												</rate>
												<alphatype>none</alphatype>
												<pixelaspectratio>square</pixelaspectratio>
												<anamorphic>FALSE</anamorphic>
												<file id="file-130">
													<name>(thesugarhobby)_CjAjVX7gVsP_IG.mp4</name>
													<pathurl>file://localhost/Volumes/ATM%201/EYE%20CANDY/8%3a21%3a23/3_Raw%20Files/pear/(thesugarhobby)_CjAjVX7gVsP_IG.mp4</pathurl>
													<rate>
														<timebase>30</timebase>
														<ntsc>FALSE</ntsc>
													</rate>
													<duration>597</duration>
													<timecode>
														<rate>
															<timebase>30</timebase>
															<ntsc>FALSE</ntsc>
														</rate>
														<string>00:00:00:00</string>
														<frame>0</frame>
														<displayformat>NDF</displayformat>
													</timecode>
													<media>
														<video>
															<samplecharacteristics>
																<rate>
																	<timebase>30</timebase>
																	<ntsc>FALSE</ntsc>
																</rate>
																<width>720</width>
																<height>1280</height>
																<anamorphic>FALSE</anamorphic>
																<pixelaspectratio>square</pixelaspectratio>
																<fielddominance>none</fielddominance>
															</samplecharacteristics>
														</video>
														<audio>
															<samplecharacteristics>
																<depth>16</depth>
																<samplerate>44100</samplerate>
															</samplecharacteristics>
															<channelcount>2</channelcount>
														</audio>
													</media>
												</file>
												<link>
													<linkclipref>clipitem-223</linkclipref>
													<mediatype>video</mediatype>
													<trackindex>1</trackindex>
													<clipindex>1</clipindex>
												</link>
												<link>
													<linkclipref>clipitem-224</linkclipref>
													<mediatype>audio</mediatype>
													<trackindex>1</trackindex>
													<clipindex>1</clipindex>
													<groupindex>1</groupindex>
												</link>
												<link>
													<linkclipref>clipitem-225</linkclipref>
													<mediatype>audio</mediatype>
													<trackindex>2</trackindex>
													<clipindex>1</clipindex>
													<groupindex>1</groupindex>
												</link>
											</clipitem>
										</track>
									</video>
									<audio>
										<track>
											<clipitem id="clipitem-224">
												<masterclipid>masterclip-130</masterclipid>
												<name>(thesugarhobby)_CjAjVX7gVsP_IG.mp4</name>
												<rate>
													<timebase>30</timebase>
													<ntsc>FALSE</ntsc>
												</rate>
												<file id="file-130"/>
												<sourcetrack>
													<mediatype>audio</mediatype>
													<trackindex>1</trackindex>
												</sourcetrack>
												<link>
													<linkclipref>clipitem-223</linkclipref>
													<mediatype>video</mediatype>
													<trackindex>1</trackindex>
													<clipindex>1</clipindex>
												</link>
												<link>
													<linkclipref>clipitem-224</linkclipref>
													<mediatype>audio</mediatype>
													<trackindex>1</trackindex>
													<clipindex>1</clipindex>
													<groupindex>1</groupindex>
												</link>
												<link>
													<linkclipref>clipitem-225</linkclipref>
													<mediatype>audio</mediatype>
													<trackindex>2</trackindex>
													<clipindex>1</clipindex>
													<groupindex>1</groupindex>
												</link>
											</clipitem>
										</track>
										<track>
											<clipitem id="clipitem-225">
												<masterclipid>masterclip-130</masterclipid>
												<name>(thesugarhobby)_CjAjVX7gVsP_IG.mp4</name>
												<rate>
													<timebase>30</timebase>
													<ntsc>FALSE</ntsc>
												</rate>
												<file id="file-130"/>
												<sourcetrack>
													<mediatype>audio</mediatype>
													<trackindex>2</trackindex>
												</sourcetrack>
												<link>
													<linkclipref>clipitem-223</linkclipref>
													<mediatype>video</mediatype>
													<trackindex>1</trackindex>
													<clipindex>1</clipindex>
												</link>
												<link>
													<linkclipref>clipitem-224</linkclipref>
													<mediatype>audio</mediatype>
													<trackindex>1</trackindex>
													<clipindex>1</clipindex>
													<groupindex>1</groupindex>
												</link>
												<link>
													<linkclipref>clipitem-225</linkclipref>
													<mediatype>audio</mediatype>
													<trackindex>2</trackindex>
													<clipindex>1</clipindex>
													<groupindex>1</groupindex>
												</link>
											</clipitem>
										</track>
									</audio>
								</media>
								<logginginfo>
									<description></description>
									<scene></scene>
									<shottake></shottake>
									<lognote></lognote>
									<good></good>
									<originalvideofilename></originalvideofilename>
									<originalaudiofilename></originalaudiofilename>
								</logginginfo>
								<colorinfo>
									<lut></lut>
									<lut1></lut1>
									<asc_sop></asc_sop>
									<asc_sat></asc_sat>
									<lut2></lut2>
								</colorinfo>
								<labels>
								</labels>
							</clip>
						</children>
					</bin>
					<bin>
						<name>spider-man</name>
						<children>
							<clip id="masterclip-131" explodedTracks="true">
								<uuid>76af70c7-2d86-4f47-a8df-7c204f559b12</uuid>
								<masterclipid>masterclip-131</masterclipid>
								<ismasterclip>TRUE</ismasterclip>
								<duration>36458</duration>
								<rate>
									<timebase>50</timebase>
									<ntsc>FALSE</ntsc>
								</rate>
								<out>210</out>
								<name>(Tuba Geçkil)_Spider-Man Bust Cake Timelapse _ Spider-Man Büst Pastası_xy1auMCMQs4_YT.mp4</name>
								<media>
									<video>
										<track>
											<clipitem id="clipitem-226">
												<masterclipid>masterclip-131</masterclipid>
												<name>(Tuba Geçkil)_Spider-Man Bust Cake Timelapse _ Spider-Man Büst Pastası_xy1auMCMQs4_YT.mp4</name>
												<rate>
													<timebase>50</timebase>
													<ntsc>FALSE</ntsc>
												</rate>
												<alphatype>none</alphatype>
												<pixelaspectratio>square</pixelaspectratio>
												<anamorphic>FALSE</anamorphic>
												<file id="file-131">
													<name>(Tuba Geçkil)_Spider-Man Bust Cake Timelapse _ Spider-Man Büst Pastası_xy1auMCMQs4_YT.mp4</name>
													<pathurl>file://localhost/Volumes/ATM%201/EYE%20CANDY/8%3a21%3a23/3_Raw%20Files/spider-man/(Tuba%20Gec%cc%a7kil)_Spider-Man%20Bust%20Cake%20Timelapse%20_%20Spider-Man%20Bu%cc%88st%20Pastas%c4%b1_xy1auMCMQs4_YT.mp4</pathurl>
													<rate>
														<timebase>50</timebase>
														<ntsc>FALSE</ntsc>
													</rate>
													<duration>36458</duration>
													<timecode>
														<rate>
															<timebase>50</timebase>
															<ntsc>FALSE</ntsc>
														</rate>
														<string>00:00:00:00</string>
														<frame>0</frame>
														<displayformat>NDF</displayformat>
													</timecode>
													<media>
														<video>
															<samplecharacteristics>
																<rate>
																	<timebase>50</timebase>
																	<ntsc>FALSE</ntsc>
																</rate>
																<width>1920</width>
																<height>1080</height>
																<anamorphic>FALSE</anamorphic>
																<pixelaspectratio>square</pixelaspectratio>
																<fielddominance>none</fielddominance>
															</samplecharacteristics>
														</video>
														<audio>
															<samplecharacteristics>
																<depth>16</depth>
																<samplerate>44100</samplerate>
															</samplecharacteristics>
															<channelcount>2</channelcount>
														</audio>
													</media>
												</file>
												<link>
													<linkclipref>clipitem-226</linkclipref>
													<mediatype>video</mediatype>
													<trackindex>1</trackindex>
													<clipindex>1</clipindex>
												</link>
												<link>
													<linkclipref>clipitem-227</linkclipref>
													<mediatype>audio</mediatype>
													<trackindex>1</trackindex>
													<clipindex>1</clipindex>
													<groupindex>1</groupindex>
												</link>
												<link>
													<linkclipref>clipitem-228</linkclipref>
													<mediatype>audio</mediatype>
													<trackindex>2</trackindex>
													<clipindex>1</clipindex>
													<groupindex>1</groupindex>
												</link>
											</clipitem>
										</track>
									</video>
									<audio>
										<track>
											<clipitem id="clipitem-227">
												<masterclipid>masterclip-131</masterclipid>
												<name>(Tuba Geçkil)_Spider-Man Bust Cake Timelapse _ Spider-Man Büst Pastası_xy1auMCMQs4_YT.mp4</name>
												<rate>
													<timebase>50</timebase>
													<ntsc>FALSE</ntsc>
												</rate>
												<file id="file-131"/>
												<sourcetrack>
													<mediatype>audio</mediatype>
													<trackindex>1</trackindex>
												</sourcetrack>
												<link>
													<linkclipref>clipitem-226</linkclipref>
													<mediatype>video</mediatype>
													<trackindex>1</trackindex>
													<clipindex>1</clipindex>
												</link>
												<link>
													<linkclipref>clipitem-227</linkclipref>
													<mediatype>audio</mediatype>
													<trackindex>1</trackindex>
													<clipindex>1</clipindex>
													<groupindex>1</groupindex>
												</link>
												<link>
													<linkclipref>clipitem-228</linkclipref>
													<mediatype>audio</mediatype>
													<trackindex>2</trackindex>
													<clipindex>1</clipindex>
													<groupindex>1</groupindex>
												</link>
											</clipitem>
										</track>
										<track>
											<clipitem id="clipitem-228">
												<masterclipid>masterclip-131</masterclipid>
												<name>(Tuba Geçkil)_Spider-Man Bust Cake Timelapse _ Spider-Man Büst Pastası_xy1auMCMQs4_YT.mp4</name>
												<rate>
													<timebase>50</timebase>
													<ntsc>FALSE</ntsc>
												</rate>
												<file id="file-131"/>
												<sourcetrack>
													<mediatype>audio</mediatype>
													<trackindex>2</trackindex>
												</sourcetrack>
												<link>
													<linkclipref>clipitem-226</linkclipref>
													<mediatype>video</mediatype>
													<trackindex>1</trackindex>
													<clipindex>1</clipindex>
												</link>
												<link>
													<linkclipref>clipitem-227</linkclipref>
													<mediatype>audio</mediatype>
													<trackindex>1</trackindex>
													<clipindex>1</clipindex>
													<groupindex>1</groupindex>
												</link>
												<link>
													<linkclipref>clipitem-228</linkclipref>
													<mediatype>audio</mediatype>
													<trackindex>2</trackindex>
													<clipindex>1</clipindex>
													<groupindex>1</groupindex>
												</link>
											</clipitem>
										</track>
									</audio>
								</media>
								<logginginfo>
									<description>Spider-Man Bust Cake Timelapse | Spider-Man Büst Pastası</description>
									<scene></scene>
									<shottake></shottake>
									<lognote>https://www.youtube.com/watch?v=xy1auMCMQs4</lognote>
									<good></good>
									<originalvideofilename></originalvideofilename>
									<originalaudiofilename></originalaudiofilename>
								</logginginfo>
								<colorinfo>
									<lut></lut>
									<lut1></lut1>
									<asc_sop></asc_sop>
									<asc_sat></asc_sat>
									<lut2></lut2>
								</colorinfo>
								<labels>
								</labels>
							</clip>
							<clip id="masterclip-132" explodedTracks="true">
								<uuid>562ed15b-df16-402f-9c6d-d4fa0f46e26f</uuid>
								<masterclipid>masterclip-132</masterclipid>
								<ismasterclip>TRUE</ismasterclip>
								<duration>734</duration>
								<rate>
									<timebase>30</timebase>
									<ntsc>FALSE</ntsc>
								</rate>
								<name>(_glazart) - CUNs4MmJTus_IG.mp4</name>
								<media>
									<video>
										<track>
											<clipitem id="clipitem-229">
												<masterclipid>masterclip-132</masterclipid>
												<name>(_glazart) - CUNs4MmJTus_IG.mp4</name>
												<rate>
													<timebase>30</timebase>
													<ntsc>FALSE</ntsc>
												</rate>
												<alphatype>none</alphatype>
												<pixelaspectratio>square</pixelaspectratio>
												<anamorphic>FALSE</anamorphic>
												<file id="file-132">
													<name>(_glazart) - CUNs4MmJTus_IG.mp4</name>
													<pathurl>file://localhost/Volumes/ATM%201/EYE%20CANDY/8%3a21%3a23/3_Raw%20Files/spider-man/(_glazart)%20-%20CUNs4MmJTus_IG.mp4</pathurl>
													<rate>
														<timebase>30</timebase>
														<ntsc>FALSE</ntsc>
													</rate>
													<duration>734</duration>
													<timecode>
														<rate>
															<timebase>30</timebase>
															<ntsc>FALSE</ntsc>
														</rate>
														<string>00:00:00:00</string>
														<frame>0</frame>
														<displayformat>NDF</displayformat>
													</timecode>
													<media>
														<video>
															<samplecharacteristics>
																<rate>
																	<timebase>30</timebase>
																	<ntsc>FALSE</ntsc>
																</rate>
																<width>720</width>
																<height>1280</height>
																<anamorphic>FALSE</anamorphic>
																<pixelaspectratio>square</pixelaspectratio>
																<fielddominance>none</fielddominance>
															</samplecharacteristics>
														</video>
														<audio>
															<samplecharacteristics>
																<depth>16</depth>
																<samplerate>44100</samplerate>
															</samplecharacteristics>
															<channelcount>2</channelcount>
														</audio>
													</media>
												</file>
												<link>
													<linkclipref>clipitem-229</linkclipref>
													<mediatype>video</mediatype>
													<trackindex>1</trackindex>
													<clipindex>1</clipindex>
												</link>
												<link>
													<linkclipref>clipitem-230</linkclipref>
													<mediatype>audio</mediatype>
													<trackindex>1</trackindex>
													<clipindex>1</clipindex>
													<groupindex>1</groupindex>
												</link>
												<link>
													<linkclipref>clipitem-231</linkclipref>
													<mediatype>audio</mediatype>
													<trackindex>2</trackindex>
													<clipindex>1</clipindex>
													<groupindex>1</groupindex>
												</link>
											</clipitem>
										</track>
									</video>
									<audio>
										<track>
											<clipitem id="clipitem-230">
												<masterclipid>masterclip-132</masterclipid>
												<name>(_glazart) - CUNs4MmJTus_IG.mp4</name>
												<rate>
													<timebase>30</timebase>
													<ntsc>FALSE</ntsc>
												</rate>
												<file id="file-132"/>
												<sourcetrack>
													<mediatype>audio</mediatype>
													<trackindex>1</trackindex>
												</sourcetrack>
												<link>
													<linkclipref>clipitem-229</linkclipref>
													<mediatype>video</mediatype>
													<trackindex>1</trackindex>
													<clipindex>1</clipindex>
												</link>
												<link>
													<linkclipref>clipitem-230</linkclipref>
													<mediatype>audio</mediatype>
													<trackindex>1</trackindex>
													<clipindex>1</clipindex>
													<groupindex>1</groupindex>
												</link>
												<link>
													<linkclipref>clipitem-231</linkclipref>
													<mediatype>audio</mediatype>
													<trackindex>2</trackindex>
													<clipindex>1</clipindex>
													<groupindex>1</groupindex>
												</link>
											</clipitem>
										</track>
										<track>
											<clipitem id="clipitem-231">
												<masterclipid>masterclip-132</masterclipid>
												<name>(_glazart) - CUNs4MmJTus_IG.mp4</name>
												<rate>
													<timebase>30</timebase>
													<ntsc>FALSE</ntsc>
												</rate>
												<file id="file-132"/>
												<sourcetrack>
													<mediatype>audio</mediatype>
													<trackindex>2</trackindex>
												</sourcetrack>
												<link>
													<linkclipref>clipitem-229</linkclipref>
													<mediatype>video</mediatype>
													<trackindex>1</trackindex>
													<clipindex>1</clipindex>
												</link>
												<link>
													<linkclipref>clipitem-230</linkclipref>
													<mediatype>audio</mediatype>
													<trackindex>1</trackindex>
													<clipindex>1</clipindex>
													<groupindex>1</groupindex>
												</link>
												<link>
													<linkclipref>clipitem-231</linkclipref>
													<mediatype>audio</mediatype>
													<trackindex>2</trackindex>
													<clipindex>1</clipindex>
													<groupindex>1</groupindex>
												</link>
											</clipitem>
										</track>
									</audio>
								</media>
								<logginginfo>
									<description></description>
									<scene></scene>
									<shottake></shottake>
									<lognote></lognote>
									<good></good>
									<originalvideofilename></originalvideofilename>
									<originalaudiofilename></originalaudiofilename>
								</logginginfo>
								<colorinfo>
									<lut></lut>
									<lut1></lut1>
									<asc_sop></asc_sop>
									<asc_sat></asc_sat>
									<lut2></lut2>
								</colorinfo>
								<labels>
								</labels>
							</clip>
							<clip id="masterclip-133" explodedTracks="true">
								<uuid>bfda9734-2c31-419f-b46c-049495a81e01</uuid>
								<masterclipid>masterclip-133</masterclipid>
								<ismasterclip>TRUE</ismasterclip>
								<duration>1412</duration>
								<rate>
									<timebase>31</timebase>
									<ntsc>FALSE</ntsc>
								</rate>
								<in>674</in>
								<out>1369</out>
								<name>(allyoucansweet)_7060213686761458991_TT.mp4</name>
								<media>
									<video>
										<track>
											<clipitem id="clipitem-232">
												<masterclipid>masterclip-133</masterclipid>
												<name>(allyoucansweet)_7060213686761458991_TT.mp4</name>
												<rate>
													<timebase>31</timebase>
													<ntsc>FALSE</ntsc>
												</rate>
												<alphatype>none</alphatype>
												<pixelaspectratio>square</pixelaspectratio>
												<anamorphic>FALSE</anamorphic>
												<file id="file-133">
													<name>(allyoucansweet)_7060213686761458991_TT.mp4</name>
													<pathurl>file://localhost/Volumes/ATM%201/EYE%20CANDY/8%3a21%3a23/3_Raw%20Files/spider-man/(allyoucansweet)_7060213686761458991_TT.mp4</pathurl>
													<rate>
														<timebase>31</timebase>
														<ntsc>FALSE</ntsc>
													</rate>
													<duration>1412</duration>
													<timecode>
														<rate>
															<timebase>31</timebase>
															<ntsc>FALSE</ntsc>
														</rate>
														<string>00:00:00:00</string>
														<frame>0</frame>
														<displayformat>NDF</displayformat>
													</timecode>
													<media>
														<video>
															<samplecharacteristics>
																<rate>
																	<timebase>31</timebase>
																	<ntsc>FALSE</ntsc>
																</rate>
																<width>576</width>
																<height>1024</height>
																<anamorphic>FALSE</anamorphic>
																<pixelaspectratio>square</pixelaspectratio>
																<fielddominance>none</fielddominance>
															</samplecharacteristics>
														</video>
														<audio>
															<samplecharacteristics>
																<depth>16</depth>
																<samplerate>44100</samplerate>
															</samplecharacteristics>
															<channelcount>2</channelcount>
														</audio>
													</media>
												</file>
												<link>
													<linkclipref>clipitem-232</linkclipref>
													<mediatype>video</mediatype>
													<trackindex>1</trackindex>
													<clipindex>1</clipindex>
												</link>
												<link>
													<linkclipref>clipitem-233</linkclipref>
													<mediatype>audio</mediatype>
													<trackindex>1</trackindex>
													<clipindex>1</clipindex>
													<groupindex>1</groupindex>
												</link>
												<link>
													<linkclipref>clipitem-234</linkclipref>
													<mediatype>audio</mediatype>
													<trackindex>2</trackindex>
													<clipindex>1</clipindex>
													<groupindex>1</groupindex>
												</link>
											</clipitem>
										</track>
									</video>
									<audio>
										<track>
											<clipitem id="clipitem-233">
												<masterclipid>masterclip-133</masterclipid>
												<name>(allyoucansweet)_7060213686761458991_TT.mp4</name>
												<rate>
													<timebase>31</timebase>
													<ntsc>FALSE</ntsc>
												</rate>
												<file id="file-133"/>
												<sourcetrack>
													<mediatype>audio</mediatype>
													<trackindex>1</trackindex>
												</sourcetrack>
												<link>
													<linkclipref>clipitem-232</linkclipref>
													<mediatype>video</mediatype>
													<trackindex>1</trackindex>
													<clipindex>1</clipindex>
												</link>
												<link>
													<linkclipref>clipitem-233</linkclipref>
													<mediatype>audio</mediatype>
													<trackindex>1</trackindex>
													<clipindex>1</clipindex>
													<groupindex>1</groupindex>
												</link>
												<link>
													<linkclipref>clipitem-234</linkclipref>
													<mediatype>audio</mediatype>
													<trackindex>2</trackindex>
													<clipindex>1</clipindex>
													<groupindex>1</groupindex>
												</link>
											</clipitem>
										</track>
										<track>
											<clipitem id="clipitem-234">
												<masterclipid>masterclip-133</masterclipid>
												<name>(allyoucansweet)_7060213686761458991_TT.mp4</name>
												<rate>
													<timebase>31</timebase>
													<ntsc>FALSE</ntsc>
												</rate>
												<file id="file-133"/>
												<sourcetrack>
													<mediatype>audio</mediatype>
													<trackindex>2</trackindex>
												</sourcetrack>
												<link>
													<linkclipref>clipitem-232</linkclipref>
													<mediatype>video</mediatype>
													<trackindex>1</trackindex>
													<clipindex>1</clipindex>
												</link>
												<link>
													<linkclipref>clipitem-233</linkclipref>
													<mediatype>audio</mediatype>
													<trackindex>1</trackindex>
													<clipindex>1</clipindex>
													<groupindex>1</groupindex>
												</link>
												<link>
													<linkclipref>clipitem-234</linkclipref>
													<mediatype>audio</mediatype>
													<trackindex>2</trackindex>
													<clipindex>1</clipindex>
													<groupindex>1</groupindex>
												</link>
											</clipitem>
										</track>
									</audio>
								</media>
								<logginginfo>
									<description></description>
									<scene></scene>
									<shottake></shottake>
									<lognote></lognote>
									<good></good>
									<originalvideofilename></originalvideofilename>
									<originalaudiofilename></originalaudiofilename>
								</logginginfo>
								<colorinfo>
									<lut></lut>
									<lut1></lut1>
									<asc_sop></asc_sop>
									<asc_sat></asc_sat>
									<lut2></lut2>
								</colorinfo>
								<labels>
								</labels>
							</clip>
							<clip id="masterclip-134" explodedTracks="true">
								<uuid>97e478e2-78d5-4dfc-83c0-b74351c24eda</uuid>
								<masterclipid>masterclip-134</masterclipid>
								<ismasterclip>TRUE</ismasterclip>
								<duration>1799</duration>
								<rate>
									<timebase>29</timebase>
									<ntsc>FALSE</ntsc>
								</rate>
								<in>1715</in>
								<name>(the.cookieholic)_Br79kQkgwPw_IG.mp4</name>
								<media>
									<video>
										<track>
											<clipitem id="clipitem-235">
												<masterclipid>masterclip-134</masterclipid>
												<name>(the.cookieholic)_Br79kQkgwPw_IG.mp4</name>
												<rate>
													<timebase>29</timebase>
													<ntsc>FALSE</ntsc>
												</rate>
												<alphatype>none</alphatype>
												<pixelaspectratio>square</pixelaspectratio>
												<anamorphic>FALSE</anamorphic>
												<file id="file-134">
													<name>(the.cookieholic)_Br79kQkgwPw_IG.mp4</name>
													<pathurl>file://localhost/Volumes/ATM%201/EYE%20CANDY/8%3a21%3a23/3_Raw%20Files/spider-man/(the.cookieholic)_Br79kQkgwPw_IG.mp4</pathurl>
													<rate>
														<timebase>29</timebase>
														<ntsc>FALSE</ntsc>
													</rate>
													<duration>1799</duration>
													<timecode>
														<rate>
															<timebase>29</timebase>
															<ntsc>FALSE</ntsc>
														</rate>
														<string>00:00:00:00</string>
														<frame>0</frame>
														<displayformat>NDF</displayformat>
													</timecode>
													<media>
														<video>
															<samplecharacteristics>
																<rate>
																	<timebase>29</timebase>
																	<ntsc>FALSE</ntsc>
																</rate>
																<width>640</width>
																<height>640</height>
																<anamorphic>FALSE</anamorphic>
																<pixelaspectratio>square</pixelaspectratio>
																<fielddominance>none</fielddominance>
															</samplecharacteristics>
														</video>
														<audio>
															<samplecharacteristics>
																<depth>16</depth>
																<samplerate>44100</samplerate>
															</samplecharacteristics>
															<channelcount>2</channelcount>
														</audio>
													</media>
												</file>
												<link>
													<linkclipref>clipitem-235</linkclipref>
													<mediatype>video</mediatype>
													<trackindex>1</trackindex>
													<clipindex>1</clipindex>
												</link>
												<link>
													<linkclipref>clipitem-236</linkclipref>
													<mediatype>audio</mediatype>
													<trackindex>1</trackindex>
													<clipindex>1</clipindex>
													<groupindex>1</groupindex>
												</link>
												<link>
													<linkclipref>clipitem-237</linkclipref>
													<mediatype>audio</mediatype>
													<trackindex>2</trackindex>
													<clipindex>1</clipindex>
													<groupindex>1</groupindex>
												</link>
											</clipitem>
										</track>
									</video>
									<audio>
										<track>
											<clipitem id="clipitem-236">
												<masterclipid>masterclip-134</masterclipid>
												<name>(the.cookieholic)_Br79kQkgwPw_IG.mp4</name>
												<rate>
													<timebase>29</timebase>
													<ntsc>FALSE</ntsc>
												</rate>
												<file id="file-134"/>
												<sourcetrack>
													<mediatype>audio</mediatype>
													<trackindex>1</trackindex>
												</sourcetrack>
												<link>
													<linkclipref>clipitem-235</linkclipref>
													<mediatype>video</mediatype>
													<trackindex>1</trackindex>
													<clipindex>1</clipindex>
												</link>
												<link>
													<linkclipref>clipitem-236</linkclipref>
													<mediatype>audio</mediatype>
													<trackindex>1</trackindex>
													<clipindex>1</clipindex>
													<groupindex>1</groupindex>
												</link>
												<link>
													<linkclipref>clipitem-237</linkclipref>
													<mediatype>audio</mediatype>
													<trackindex>2</trackindex>
													<clipindex>1</clipindex>
													<groupindex>1</groupindex>
												</link>
											</clipitem>
										</track>
										<track>
											<clipitem id="clipitem-237">
												<masterclipid>masterclip-134</masterclipid>
												<name>(the.cookieholic)_Br79kQkgwPw_IG.mp4</name>
												<rate>
													<timebase>29</timebase>
													<ntsc>FALSE</ntsc>
												</rate>
												<file id="file-134"/>
												<sourcetrack>
													<mediatype>audio</mediatype>
													<trackindex>2</trackindex>
												</sourcetrack>
												<link>
													<linkclipref>clipitem-235</linkclipref>
													<mediatype>video</mediatype>
													<trackindex>1</trackindex>
													<clipindex>1</clipindex>
												</link>
												<link>
													<linkclipref>clipitem-236</linkclipref>
													<mediatype>audio</mediatype>
													<trackindex>1</trackindex>
													<clipindex>1</clipindex>
													<groupindex>1</groupindex>
												</link>
												<link>
													<linkclipref>clipitem-237</linkclipref>
													<mediatype>audio</mediatype>
													<trackindex>2</trackindex>
													<clipindex>1</clipindex>
													<groupindex>1</groupindex>
												</link>
											</clipitem>
										</track>
									</audio>
								</media>
								<logginginfo>
									<description></description>
									<scene></scene>
									<shottake></shottake>
									<lognote></lognote>
									<good></good>
									<originalvideofilename></originalvideofilename>
									<originalaudiofilename></originalaudiofilename>
								</logginginfo>
								<colorinfo>
									<lut></lut>
									<lut1></lut1>
									<asc_sop></asc_sop>
									<asc_sat></asc_sat>
									<lut2></lut2>
								</colorinfo>
								<labels>
								</labels>
							</clip>
						</children>
					</bin>
					<clip id="masterclip-135" explodedTracks="true">
						<uuid>8cda1865-a797-4bdf-8a22-62b35afbf246</uuid>
						<masterclipid>masterclip-135</masterclipid>
						<ismasterclip>TRUE</ismasterclip>
						<duration>8573</duration>
						<rate>
							<timebase>30</timebase>
							<ntsc>TRUE</ntsc>
						</rate>
						<in>7799</in>
						<out>7926</out>
						<name>(eatsbyrachel)_How to Make Berry &amp; Lemon Cookie Cups_2h61YhqQvUk_YT.mp4</name>
						<media>
							<video>
								<track>
									<clipitem id="clipitem-238">
										<masterclipid>masterclip-135</masterclipid>
										<name>(eatsbyrachel)_How to Make Berry &amp; Lemon Cookie Cups_2h61YhqQvUk_YT.mp4</name>
										<rate>
											<timebase>30</timebase>
											<ntsc>TRUE</ntsc>
										</rate>
										<alphatype>none</alphatype>
										<pixelaspectratio>square</pixelaspectratio>
										<anamorphic>FALSE</anamorphic>
										<file id="file-135">
											<name>(eatsbyrachel)_How to Make Berry &amp; Lemon Cookie Cups_2h61YhqQvUk_YT.mp4</name>
											<pathurl>file://localhost/Volumes/ATM%201/EYE%20CANDY/8%3a21%3a23/3_Raw%20Files/(eatsbyrachel)_How%20to%20Make%20Berry%20&amp;%20Lemon%20Cookie%20Cups_2h61YhqQvUk_YT.mp4</pathurl>
											<rate>
												<timebase>30</timebase>
												<ntsc>TRUE</ntsc>
											</rate>
											<duration>8573</duration>
											<timecode>
												<rate>
													<timebase>30</timebase>
													<ntsc>TRUE</ntsc>
												</rate>
												<string>00:00:00:00</string>
												<frame>0</frame>
												<displayformat>NDF</displayformat>
											</timecode>
											<media>
												<video>
													<samplecharacteristics>
														<rate>
															<timebase>30</timebase>
															<ntsc>TRUE</ntsc>
														</rate>
														<width>1920</width>
														<height>1080</height>
														<anamorphic>FALSE</anamorphic>
														<pixelaspectratio>square</pixelaspectratio>
														<fielddominance>none</fielddominance>
													</samplecharacteristics>
												</video>
												<audio>
													<samplecharacteristics>
														<depth>16</depth>
														<samplerate>44100</samplerate>
													</samplecharacteristics>
													<channelcount>2</channelcount>
												</audio>
											</media>
										</file>
										<link>
											<linkclipref>clipitem-238</linkclipref>
											<mediatype>video</mediatype>
											<trackindex>1</trackindex>
											<clipindex>1</clipindex>
										</link>
										<link>
											<linkclipref>clipitem-239</linkclipref>
											<mediatype>audio</mediatype>
											<trackindex>1</trackindex>
											<clipindex>1</clipindex>
											<groupindex>1</groupindex>
										</link>
										<link>
											<linkclipref>clipitem-240</linkclipref>
											<mediatype>audio</mediatype>
											<trackindex>2</trackindex>
											<clipindex>1</clipindex>
											<groupindex>1</groupindex>
										</link>
									</clipitem>
								</track>
							</video>
							<audio>
								<track>
									<clipitem id="clipitem-239">
										<masterclipid>masterclip-135</masterclipid>
										<name>(eatsbyrachel)_How to Make Berry &amp; Lemon Cookie Cups_2h61YhqQvUk_YT.mp4</name>
										<rate>
											<timebase>30</timebase>
											<ntsc>TRUE</ntsc>
										</rate>
										<file id="file-135"/>
										<sourcetrack>
											<mediatype>audio</mediatype>
											<trackindex>1</trackindex>
										</sourcetrack>
										<link>
											<linkclipref>clipitem-238</linkclipref>
											<mediatype>video</mediatype>
											<trackindex>1</trackindex>
											<clipindex>1</clipindex>
										</link>
										<link>
											<linkclipref>clipitem-239</linkclipref>
											<mediatype>audio</mediatype>
											<trackindex>1</trackindex>
											<clipindex>1</clipindex>
											<groupindex>1</groupindex>
										</link>
										<link>
											<linkclipref>clipitem-240</linkclipref>
											<mediatype>audio</mediatype>
											<trackindex>2</trackindex>
											<clipindex>1</clipindex>
											<groupindex>1</groupindex>
										</link>
									</clipitem>
								</track>
								<track>
									<clipitem id="clipitem-240">
										<masterclipid>masterclip-135</masterclipid>
										<name>(eatsbyrachel)_How to Make Berry &amp; Lemon Cookie Cups_2h61YhqQvUk_YT.mp4</name>
										<rate>
											<timebase>30</timebase>
											<ntsc>TRUE</ntsc>
										</rate>
										<file id="file-135"/>
										<sourcetrack>
											<mediatype>audio</mediatype>
											<trackindex>2</trackindex>
										</sourcetrack>
										<link>
											<linkclipref>clipitem-238</linkclipref>
											<mediatype>video</mediatype>
											<trackindex>1</trackindex>
											<clipindex>1</clipindex>
										</link>
										<link>
											<linkclipref>clipitem-239</linkclipref>
											<mediatype>audio</mediatype>
											<trackindex>1</trackindex>
											<clipindex>1</clipindex>
											<groupindex>1</groupindex>
										</link>
										<link>
											<linkclipref>clipitem-240</linkclipref>
											<mediatype>audio</mediatype>
											<trackindex>2</trackindex>
											<clipindex>1</clipindex>
											<groupindex>1</groupindex>
										</link>
									</clipitem>
								</track>
							</audio>
						</media>
						<logginginfo>
							<description>How to Make Berry &amp; Lemon Cookie Cups</description>
							<scene></scene>
							<shottake></shottake>
							<lognote>https://www.youtube.com/watch?v=2h61YhqQvUk</lognote>
							<good></good>
							<originalvideofilename></originalvideofilename>
							<originalaudiofilename></originalaudiofilename>
						</logginginfo>
						<colorinfo>
							<lut></lut>
							<lut1></lut1>
							<asc_sop></asc_sop>
							<asc_sat></asc_sat>
							<lut2></lut2>
						</colorinfo>
						<labels>
						</labels>
					</clip>
					<clip id="masterclip-136" explodedTracks="true">
						<uuid>0a5c7349-15ff-4f85-a3e2-7e7768db1f98</uuid>
						<masterclipid>masterclip-136</masterclipid>
						<ismasterclip>TRUE</ismasterclip>
						<duration>5916</duration>
						<rate>
							<timebase>30</timebase>
							<ntsc>FALSE</ntsc>
						</rate>
						<in>5396</in>
						<out>5670</out>
						<name>(loganscandies)_7114744018478779694_TT.mp4</name>
						<media>
							<video>
								<track>
									<clipitem id="clipitem-241">
										<masterclipid>masterclip-136</masterclipid>
										<name>(loganscandies)_7114744018478779694_TT.mp4</name>
										<rate>
											<timebase>30</timebase>
											<ntsc>FALSE</ntsc>
										</rate>
										<alphatype>none</alphatype>
										<pixelaspectratio>square</pixelaspectratio>
										<anamorphic>FALSE</anamorphic>
										<file id="file-136">
											<name>(loganscandies)_7114744018478779694_TT.mp4</name>
											<pathurl>file://localhost/Volumes/ATM%201/EYE%20CANDY/8%3a21%3a23/3_Raw%20Files/(loganscandies)_7114744018478779694_TT.mp4</pathurl>
											<rate>
												<timebase>30</timebase>
												<ntsc>FALSE</ntsc>
											</rate>
											<duration>5916</duration>
											<timecode>
												<rate>
													<timebase>30</timebase>
													<ntsc>FALSE</ntsc>
												</rate>
												<string>00:00:00:00</string>
												<frame>0</frame>
												<displayformat>NDF</displayformat>
											</timecode>
											<media>
												<video>
													<samplecharacteristics>
														<rate>
															<timebase>30</timebase>
															<ntsc>FALSE</ntsc>
														</rate>
														<width>576</width>
														<height>1024</height>
														<anamorphic>FALSE</anamorphic>
														<pixelaspectratio>square</pixelaspectratio>
														<fielddominance>none</fielddominance>
													</samplecharacteristics>
												</video>
												<audio>
													<samplecharacteristics>
														<depth>16</depth>
														<samplerate>44100</samplerate>
													</samplecharacteristics>
													<channelcount>2</channelcount>
												</audio>
											</media>
										</file>
										<link>
											<linkclipref>clipitem-241</linkclipref>
											<mediatype>video</mediatype>
											<trackindex>1</trackindex>
											<clipindex>1</clipindex>
										</link>
										<link>
											<linkclipref>clipitem-242</linkclipref>
											<mediatype>audio</mediatype>
											<trackindex>1</trackindex>
											<clipindex>1</clipindex>
											<groupindex>1</groupindex>
										</link>
										<link>
											<linkclipref>clipitem-243</linkclipref>
											<mediatype>audio</mediatype>
											<trackindex>2</trackindex>
											<clipindex>1</clipindex>
											<groupindex>1</groupindex>
										</link>
									</clipitem>
								</track>
							</video>
							<audio>
								<track>
									<clipitem id="clipitem-242">
										<masterclipid>masterclip-136</masterclipid>
										<name>(loganscandies)_7114744018478779694_TT.mp4</name>
										<rate>
											<timebase>30</timebase>
											<ntsc>FALSE</ntsc>
										</rate>
										<file id="file-136"/>
										<sourcetrack>
											<mediatype>audio</mediatype>
											<trackindex>1</trackindex>
										</sourcetrack>
										<link>
											<linkclipref>clipitem-241</linkclipref>
											<mediatype>video</mediatype>
											<trackindex>1</trackindex>
											<clipindex>1</clipindex>
										</link>
										<link>
											<linkclipref>clipitem-242</linkclipref>
											<mediatype>audio</mediatype>
											<trackindex>1</trackindex>
											<clipindex>1</clipindex>
											<groupindex>1</groupindex>
										</link>
										<link>
											<linkclipref>clipitem-243</linkclipref>
											<mediatype>audio</mediatype>
											<trackindex>2</trackindex>
											<clipindex>1</clipindex>
											<groupindex>1</groupindex>
										</link>
									</clipitem>
								</track>
								<track>
									<clipitem id="clipitem-243">
										<masterclipid>masterclip-136</masterclipid>
										<name>(loganscandies)_7114744018478779694_TT.mp4</name>
										<rate>
											<timebase>30</timebase>
											<ntsc>FALSE</ntsc>
										</rate>
										<file id="file-136"/>
										<sourcetrack>
											<mediatype>audio</mediatype>
											<trackindex>2</trackindex>
										</sourcetrack>
										<link>
											<linkclipref>clipitem-241</linkclipref>
											<mediatype>video</mediatype>
											<trackindex>1</trackindex>
											<clipindex>1</clipindex>
										</link>
										<link>
											<linkclipref>clipitem-242</linkclipref>
											<mediatype>audio</mediatype>
											<trackindex>1</trackindex>
											<clipindex>1</clipindex>
											<groupindex>1</groupindex>
										</link>
										<link>
											<linkclipref>clipitem-243</linkclipref>
											<mediatype>audio</mediatype>
											<trackindex>2</trackindex>
											<clipindex>1</clipindex>
											<groupindex>1</groupindex>
										</link>
									</clipitem>
								</track>
							</audio>
						</media>
						<logginginfo>
							<description></description>
							<scene></scene>
							<shottake></shottake>
							<lognote></lognote>
							<good></good>
							<originalvideofilename></originalvideofilename>
							<originalaudiofilename></originalaudiofilename>
						</logginginfo>
						<colorinfo>
							<lut></lut>
							<lut1></lut1>
							<asc_sop></asc_sop>
							<asc_sat></asc_sat>
							<lut2></lut2>
						</colorinfo>
						<labels>
						</labels>
					</clip>
					<bin>
						<name>blood orange</name>
						<children>
							<clip id="masterclip-137" explodedTracks="true">
								<uuid>c4d3993e-0349-49d1-b3ab-eb5069a276af</uuid>
								<masterclipid>masterclip-137</masterclipid>
								<ismasterclip>TRUE</ismasterclip>
								<duration>452</duration>
								<rate>
									<timebase>30</timebase>
									<ntsc>FALSE</ntsc>
								</rate>
								<name>(allthesugartx)_CdgVCBClERm_IG.mp4</name>
								<media>
									<video>
										<track>
											<clipitem id="clipitem-244">
												<masterclipid>masterclip-137</masterclipid>
												<name>(allthesugartx)_CdgVCBClERm_IG.mp4</name>
												<rate>
													<timebase>30</timebase>
													<ntsc>FALSE</ntsc>
												</rate>
												<alphatype>none</alphatype>
												<pixelaspectratio>square</pixelaspectratio>
												<anamorphic>FALSE</anamorphic>
												<file id="file-137">
													<name>(allthesugartx)_CdgVCBClERm_IG.mp4</name>
													<pathurl>file://localhost/Volumes/ATM%201/EYE%20CANDY/8%3a21%3a23/3_Raw%20Files/blood%20orange/(allthesugartx)_CdgVCBClERm_IG.mp4</pathurl>
													<rate>
														<timebase>30</timebase>
														<ntsc>FALSE</ntsc>
													</rate>
													<duration>452</duration>
													<timecode>
														<rate>
															<timebase>30</timebase>
															<ntsc>FALSE</ntsc>
														</rate>
														<string>00:00:00:00</string>
														<frame>0</frame>
														<displayformat>NDF</displayformat>
													</timecode>
													<media>
														<video>
															<samplecharacteristics>
																<rate>
																	<timebase>30</timebase>
																	<ntsc>FALSE</ntsc>
																</rate>
																<width>720</width>
																<height>1280</height>
																<anamorphic>FALSE</anamorphic>
																<pixelaspectratio>square</pixelaspectratio>
																<fielddominance>none</fielddominance>
															</samplecharacteristics>
														</video>
														<audio>
															<samplecharacteristics>
																<depth>16</depth>
																<samplerate>44100</samplerate>
															</samplecharacteristics>
															<channelcount>2</channelcount>
														</audio>
													</media>
												</file>
												<link>
													<linkclipref>clipitem-244</linkclipref>
													<mediatype>video</mediatype>
													<trackindex>1</trackindex>
													<clipindex>1</clipindex>
												</link>
												<link>
													<linkclipref>clipitem-245</linkclipref>
													<mediatype>audio</mediatype>
													<trackindex>1</trackindex>
													<clipindex>1</clipindex>
													<groupindex>1</groupindex>
												</link>
												<link>
													<linkclipref>clipitem-246</linkclipref>
													<mediatype>audio</mediatype>
													<trackindex>2</trackindex>
													<clipindex>1</clipindex>
													<groupindex>1</groupindex>
												</link>
											</clipitem>
										</track>
									</video>
									<audio>
										<track>
											<clipitem id="clipitem-245">
												<masterclipid>masterclip-137</masterclipid>
												<name>(allthesugartx)_CdgVCBClERm_IG.mp4</name>
												<rate>
													<timebase>30</timebase>
													<ntsc>FALSE</ntsc>
												</rate>
												<file id="file-137"/>
												<sourcetrack>
													<mediatype>audio</mediatype>
													<trackindex>1</trackindex>
												</sourcetrack>
												<link>
													<linkclipref>clipitem-244</linkclipref>
													<mediatype>video</mediatype>
													<trackindex>1</trackindex>
													<clipindex>1</clipindex>
												</link>
												<link>
													<linkclipref>clipitem-245</linkclipref>
													<mediatype>audio</mediatype>
													<trackindex>1</trackindex>
													<clipindex>1</clipindex>
													<groupindex>1</groupindex>
												</link>
												<link>
													<linkclipref>clipitem-246</linkclipref>
													<mediatype>audio</mediatype>
													<trackindex>2</trackindex>
													<clipindex>1</clipindex>
													<groupindex>1</groupindex>
												</link>
											</clipitem>
										</track>
										<track>
											<clipitem id="clipitem-246">
												<masterclipid>masterclip-137</masterclipid>
												<name>(allthesugartx)_CdgVCBClERm_IG.mp4</name>
												<rate>
													<timebase>30</timebase>
													<ntsc>FALSE</ntsc>
												</rate>
												<file id="file-137"/>
												<sourcetrack>
													<mediatype>audio</mediatype>
													<trackindex>2</trackindex>
												</sourcetrack>
												<link>
													<linkclipref>clipitem-244</linkclipref>
													<mediatype>video</mediatype>
													<trackindex>1</trackindex>
													<clipindex>1</clipindex>
												</link>
												<link>
													<linkclipref>clipitem-245</linkclipref>
													<mediatype>audio</mediatype>
													<trackindex>1</trackindex>
													<clipindex>1</clipindex>
													<groupindex>1</groupindex>
												</link>
												<link>
													<linkclipref>clipitem-246</linkclipref>
													<mediatype>audio</mediatype>
													<trackindex>2</trackindex>
													<clipindex>1</clipindex>
													<groupindex>1</groupindex>
												</link>
											</clipitem>
										</track>
									</audio>
								</media>
								<logginginfo>
									<description></description>
									<scene></scene>
									<shottake></shottake>
									<lognote></lognote>
									<good></good>
									<originalvideofilename></originalvideofilename>
									<originalaudiofilename></originalaudiofilename>
								</logginginfo>
								<colorinfo>
									<lut></lut>
									<lut1></lut1>
									<asc_sop></asc_sop>
									<asc_sat></asc_sat>
									<lut2></lut2>
								</colorinfo>
								<labels>
								</labels>
							</clip>
							<clip id="masterclip-138" explodedTracks="true">
								<uuid>30043468-40e9-48ca-9e5f-c73181bf023e</uuid>
								<masterclipid>masterclip-138</masterclipid>
								<ismasterclip>TRUE</ismasterclip>
								<duration>1110</duration>
								<rate>
									<timebase>30</timebase>
									<ntsc>FALSE</ntsc>
								</rate>
								<in>857</in>
								<out>1044</out>
								<name>(allyoucansweet)_7072790017701072174_TT.mp4</name>
								<media>
									<video>
										<track>
											<clipitem id="clipitem-247">
												<masterclipid>masterclip-138</masterclipid>
												<name>(allyoucansweet)_7072790017701072174_TT.mp4</name>
												<rate>
													<timebase>30</timebase>
													<ntsc>FALSE</ntsc>
												</rate>
												<alphatype>none</alphatype>
												<pixelaspectratio>square</pixelaspectratio>
												<anamorphic>FALSE</anamorphic>
												<file id="file-138">
													<name>(allyoucansweet)_7072790017701072174_TT.mp4</name>
													<pathurl>file://localhost/Volumes/ATM%201/EYE%20CANDY/8%3a21%3a23/3_Raw%20Files/blood%20orange/(allyoucansweet)_7072790017701072174_TT.mp4</pathurl>
													<rate>
														<timebase>30</timebase>
														<ntsc>FALSE</ntsc>
													</rate>
													<duration>1110</duration>
													<timecode>
														<rate>
															<timebase>30</timebase>
															<ntsc>FALSE</ntsc>
														</rate>
														<string>00:00:00:00</string>
														<frame>0</frame>
														<displayformat>NDF</displayformat>
													</timecode>
													<media>
														<video>
															<samplecharacteristics>
																<rate>
																	<timebase>30</timebase>
																	<ntsc>FALSE</ntsc>
																</rate>
																<width>576</width>
																<height>1024</height>
																<anamorphic>FALSE</anamorphic>
																<pixelaspectratio>square</pixelaspectratio>
																<fielddominance>none</fielddominance>
															</samplecharacteristics>
														</video>
														<audio>
															<samplecharacteristics>
																<depth>16</depth>
																<samplerate>44100</samplerate>
															</samplecharacteristics>
															<channelcount>2</channelcount>
														</audio>
													</media>
												</file>
												<link>
													<linkclipref>clipitem-247</linkclipref>
													<mediatype>video</mediatype>
													<trackindex>1</trackindex>
													<clipindex>1</clipindex>
												</link>
												<link>
													<linkclipref>clipitem-248</linkclipref>
													<mediatype>audio</mediatype>
													<trackindex>1</trackindex>
													<clipindex>1</clipindex>
													<groupindex>1</groupindex>
												</link>
												<link>
													<linkclipref>clipitem-249</linkclipref>
													<mediatype>audio</mediatype>
													<trackindex>2</trackindex>
													<clipindex>1</clipindex>
													<groupindex>1</groupindex>
												</link>
											</clipitem>
										</track>
									</video>
									<audio>
										<track>
											<clipitem id="clipitem-248">
												<masterclipid>masterclip-138</masterclipid>
												<name>(allyoucansweet)_7072790017701072174_TT.mp4</name>
												<rate>
													<timebase>30</timebase>
													<ntsc>FALSE</ntsc>
												</rate>
												<file id="file-138"/>
												<sourcetrack>
													<mediatype>audio</mediatype>
													<trackindex>1</trackindex>
												</sourcetrack>
												<link>
													<linkclipref>clipitem-247</linkclipref>
													<mediatype>video</mediatype>
													<trackindex>1</trackindex>
													<clipindex>1</clipindex>
												</link>
												<link>
													<linkclipref>clipitem-248</linkclipref>
													<mediatype>audio</mediatype>
													<trackindex>1</trackindex>
													<clipindex>1</clipindex>
													<groupindex>1</groupindex>
												</link>
												<link>
													<linkclipref>clipitem-249</linkclipref>
													<mediatype>audio</mediatype>
													<trackindex>2</trackindex>
													<clipindex>1</clipindex>
													<groupindex>1</groupindex>
												</link>
											</clipitem>
										</track>
										<track>
											<clipitem id="clipitem-249">
												<masterclipid>masterclip-138</masterclipid>
												<name>(allyoucansweet)_7072790017701072174_TT.mp4</name>
												<rate>
													<timebase>30</timebase>
													<ntsc>FALSE</ntsc>
												</rate>
												<file id="file-138"/>
												<sourcetrack>
													<mediatype>audio</mediatype>
													<trackindex>2</trackindex>
												</sourcetrack>
												<link>
													<linkclipref>clipitem-247</linkclipref>
													<mediatype>video</mediatype>
													<trackindex>1</trackindex>
													<clipindex>1</clipindex>
												</link>
												<link>
													<linkclipref>clipitem-248</linkclipref>
													<mediatype>audio</mediatype>
													<trackindex>1</trackindex>
													<clipindex>1</clipindex>
													<groupindex>1</groupindex>
												</link>
												<link>
													<linkclipref>clipitem-249</linkclipref>
													<mediatype>audio</mediatype>
													<trackindex>2</trackindex>
													<clipindex>1</clipindex>
													<groupindex>1</groupindex>
												</link>
											</clipitem>
										</track>
									</audio>
								</media>
								<logginginfo>
									<description></description>
									<scene></scene>
									<shottake></shottake>
									<lognote></lognote>
									<good></good>
									<originalvideofilename></originalvideofilename>
									<originalaudiofilename></originalaudiofilename>
								</logginginfo>
								<colorinfo>
									<lut></lut>
									<lut1></lut1>
									<asc_sop></asc_sop>
									<asc_sat></asc_sat>
									<lut2></lut2>
								</colorinfo>
								<labels>
								</labels>
							</clip>
							<clip id="masterclip-139" explodedTracks="true">
								<uuid>62b75c9f-804b-41f8-8a7c-9306ce2c4067</uuid>
								<masterclipid>masterclip-139</masterclipid>
								<ismasterclip>TRUE</ismasterclip>
								<duration>776</duration>
								<rate>
									<timebase>30</timebase>
									<ntsc>FALSE</ntsc>
								</rate>
								<in>0</in>
								<out>689</out>
								<name>(join_jules)_CXo3HPGD4M__IG.mp4</name>
								<media>
									<video>
										<track>
											<clipitem id="clipitem-250">
												<masterclipid>masterclip-139</masterclipid>
												<name>(join_jules)_CXo3HPGD4M__IG.mp4</name>
												<rate>
													<timebase>30</timebase>
													<ntsc>FALSE</ntsc>
												</rate>
												<alphatype>none</alphatype>
												<pixelaspectratio>square</pixelaspectratio>
												<anamorphic>FALSE</anamorphic>
												<file id="file-139">
													<name>(join_jules)_CXo3HPGD4M__IG.mp4</name>
													<pathurl>file://localhost/Volumes/ATM%201/EYE%20CANDY/8%3a21%3a23/3_Raw%20Files/blood%20orange/(join_jules)_CXo3HPGD4M__IG.mp4</pathurl>
													<rate>
														<timebase>30</timebase>
														<ntsc>FALSE</ntsc>
													</rate>
													<duration>776</duration>
													<timecode>
														<rate>
															<timebase>30</timebase>
															<ntsc>FALSE</ntsc>
														</rate>
														<string>00:00:00:00</string>
														<frame>0</frame>
														<displayformat>NDF</displayformat>
													</timecode>
													<media>
														<video>
															<samplecharacteristics>
																<rate>
																	<timebase>30</timebase>
																	<ntsc>FALSE</ntsc>
																</rate>
																<width>720</width>
																<height>1280</height>
																<anamorphic>FALSE</anamorphic>
																<pixelaspectratio>square</pixelaspectratio>
																<fielddominance>none</fielddominance>
															</samplecharacteristics>
														</video>
														<audio>
															<samplecharacteristics>
																<depth>16</depth>
																<samplerate>44100</samplerate>
															</samplecharacteristics>
															<channelcount>2</channelcount>
														</audio>
													</media>
												</file>
												<link>
													<linkclipref>clipitem-250</linkclipref>
													<mediatype>video</mediatype>
													<trackindex>1</trackindex>
													<clipindex>1</clipindex>
												</link>
												<link>
													<linkclipref>clipitem-251</linkclipref>
													<mediatype>audio</mediatype>
													<trackindex>1</trackindex>
													<clipindex>1</clipindex>
													<groupindex>1</groupindex>
												</link>
												<link>
													<linkclipref>clipitem-252</linkclipref>
													<mediatype>audio</mediatype>
													<trackindex>2</trackindex>
													<clipindex>1</clipindex>
													<groupindex>1</groupindex>
												</link>
											</clipitem>
										</track>
									</video>
									<audio>
										<track>
											<clipitem id="clipitem-251">
												<masterclipid>masterclip-139</masterclipid>
												<name>(join_jules)_CXo3HPGD4M__IG.mp4</name>
												<rate>
													<timebase>30</timebase>
													<ntsc>FALSE</ntsc>
												</rate>
												<file id="file-139"/>
												<sourcetrack>
													<mediatype>audio</mediatype>
													<trackindex>1</trackindex>
												</sourcetrack>
												<link>
													<linkclipref>clipitem-250</linkclipref>
													<mediatype>video</mediatype>
													<trackindex>1</trackindex>
													<clipindex>1</clipindex>
												</link>
												<link>
													<linkclipref>clipitem-251</linkclipref>
													<mediatype>audio</mediatype>
													<trackindex>1</trackindex>
													<clipindex>1</clipindex>
													<groupindex>1</groupindex>
												</link>
												<link>
													<linkclipref>clipitem-252</linkclipref>
													<mediatype>audio</mediatype>
													<trackindex>2</trackindex>
													<clipindex>1</clipindex>
													<groupindex>1</groupindex>
												</link>
											</clipitem>
										</track>
										<track>
											<clipitem id="clipitem-252">
												<masterclipid>masterclip-139</masterclipid>
												<name>(join_jules)_CXo3HPGD4M__IG.mp4</name>
												<rate>
													<timebase>30</timebase>
													<ntsc>FALSE</ntsc>
												</rate>
												<file id="file-139"/>
												<sourcetrack>
													<mediatype>audio</mediatype>
													<trackindex>2</trackindex>
												</sourcetrack>
												<link>
													<linkclipref>clipitem-250</linkclipref>
													<mediatype>video</mediatype>
													<trackindex>1</trackindex>
													<clipindex>1</clipindex>
												</link>
												<link>
													<linkclipref>clipitem-251</linkclipref>
													<mediatype>audio</mediatype>
													<trackindex>1</trackindex>
													<clipindex>1</clipindex>
													<groupindex>1</groupindex>
												</link>
												<link>
													<linkclipref>clipitem-252</linkclipref>
													<mediatype>audio</mediatype>
													<trackindex>2</trackindex>
													<clipindex>1</clipindex>
													<groupindex>1</groupindex>
												</link>
											</clipitem>
										</track>
									</audio>
								</media>
								<logginginfo>
									<description></description>
									<scene></scene>
									<shottake></shottake>
									<lognote></lognote>
									<good></good>
									<originalvideofilename></originalvideofilename>
									<originalaudiofilename></originalaudiofilename>
								</logginginfo>
								<colorinfo>
									<lut></lut>
									<lut1></lut1>
									<asc_sop></asc_sop>
									<asc_sat></asc_sat>
									<lut2></lut2>
								</colorinfo>
								<labels>
								</labels>
							</clip>
						</children>
					</bin>
					<bin>
						<name>nutella</name>
						<children>
							<clip id="masterclip-140" explodedTracks="true">
								<uuid>d111a0c0-e399-4d45-96dd-29737e376927</uuid>
								<masterclipid>masterclip-140</masterclipid>
								<ismasterclip>TRUE</ismasterclip>
								<duration>739</duration>
								<rate>
									<timebase>30</timebase>
									<ntsc>FALSE</ntsc>
								</rate>
								<in>569</in>
								<name>(aquickspoonful)_CsUse8uuije_IG.mp4</name>
								<media>
									<video>
										<track>
											<clipitem id="clipitem-253">
												<masterclipid>masterclip-140</masterclipid>
												<name>(aquickspoonful)_CsUse8uuije_IG.mp4</name>
												<rate>
													<timebase>30</timebase>
													<ntsc>FALSE</ntsc>
												</rate>
												<alphatype>none</alphatype>
												<pixelaspectratio>square</pixelaspectratio>
												<anamorphic>FALSE</anamorphic>
												<file id="file-140">
													<name>(aquickspoonful)_CsUse8uuije_IG.mp4</name>
													<pathurl>file://localhost/Volumes/ATM%201/EYE%20CANDY/8%3a21%3a23/3_Raw%20Files/nutella/(aquickspoonful)_CsUse8uuije_IG.mp4</pathurl>
													<rate>
														<timebase>30</timebase>
														<ntsc>FALSE</ntsc>
													</rate>
													<duration>739</duration>
													<timecode>
														<rate>
															<timebase>30</timebase>
															<ntsc>FALSE</ntsc>
														</rate>
														<string>00:00:00:00</string>
														<frame>0</frame>
														<displayformat>NDF</displayformat>
													</timecode>
													<media>
														<video>
															<samplecharacteristics>
																<rate>
																	<timebase>30</timebase>
																	<ntsc>FALSE</ntsc>
																</rate>
																<width>576</width>
																<height>1024</height>
																<anamorphic>FALSE</anamorphic>
																<pixelaspectratio>square</pixelaspectratio>
																<fielddominance>none</fielddominance>
															</samplecharacteristics>
														</video>
														<audio>
															<samplecharacteristics>
																<depth>16</depth>
																<samplerate>44100</samplerate>
															</samplecharacteristics>
															<channelcount>1</channelcount>
															<audiochannel>
																<sourcechannel>1</sourcechannel>
															</audiochannel>
														</audio>
													</media>
												</file>
												<link>
													<linkclipref>clipitem-253</linkclipref>
													<mediatype>video</mediatype>
													<trackindex>1</trackindex>
													<clipindex>1</clipindex>
												</link>
												<link>
													<linkclipref>clipitem-254</linkclipref>
													<mediatype>audio</mediatype>
													<trackindex>1</trackindex>
													<clipindex>1</clipindex>
												</link>
											</clipitem>
										</track>
									</video>
									<audio>
										<track>
											<clipitem id="clipitem-254">
												<masterclipid>masterclip-140</masterclipid>
												<name>(aquickspoonful)_CsUse8uuije_IG.mp4</name>
												<rate>
													<timebase>30</timebase>
													<ntsc>FALSE</ntsc>
												</rate>
												<file id="file-140"/>
												<sourcetrack>
													<mediatype>audio</mediatype>
													<trackindex>1</trackindex>
												</sourcetrack>
												<link>
													<linkclipref>clipitem-253</linkclipref>
													<mediatype>video</mediatype>
													<trackindex>1</trackindex>
													<clipindex>1</clipindex>
												</link>
												<link>
													<linkclipref>clipitem-254</linkclipref>
													<mediatype>audio</mediatype>
													<trackindex>1</trackindex>
													<clipindex>1</clipindex>
												</link>
											</clipitem>
										</track>
									</audio>
								</media>
								<logginginfo>
									<description></description>
									<scene></scene>
									<shottake></shottake>
									<lognote></lognote>
									<good></good>
									<originalvideofilename></originalvideofilename>
									<originalaudiofilename></originalaudiofilename>
								</logginginfo>
								<colorinfo>
									<lut></lut>
									<lut1></lut1>
									<asc_sop></asc_sop>
									<asc_sat></asc_sat>
									<lut2></lut2>
								</colorinfo>
								<labels>
								</labels>
							</clip>
							<clip id="masterclip-141" explodedTracks="true">
								<uuid>2faa1e72-ef9c-4b6a-a04f-72b4930edda7</uuid>
								<masterclipid>masterclip-141</masterclipid>
								<ismasterclip>TRUE</ismasterclip>
								<duration>1243</duration>
								<rate>
									<timebase>30</timebase>
									<ntsc>FALSE</ntsc>
								</rate>
								<in>1125</in>
								<out>1243</out>
								<name>(sophiabakessometimes)_7100257864551304453_TT.mp4</name>
								<media>
									<video>
										<track>
											<clipitem id="clipitem-255">
												<masterclipid>masterclip-141</masterclipid>
												<name>(sophiabakessometimes)_7100257864551304453_TT.mp4</name>
												<rate>
													<timebase>30</timebase>
													<ntsc>FALSE</ntsc>
												</rate>
												<alphatype>none</alphatype>
												<pixelaspectratio>square</pixelaspectratio>
												<anamorphic>FALSE</anamorphic>
												<file id="file-141">
													<name>(sophiabakessometimes)_7100257864551304453_TT.mp4</name>
													<pathurl>file://localhost/Volumes/ATM%201/EYE%20CANDY/8%3a21%3a23/3_Raw%20Files/nutella/(sophiabakessometimes)_7100257864551304453_TT.mp4</pathurl>
													<rate>
														<timebase>30</timebase>
														<ntsc>FALSE</ntsc>
													</rate>
													<duration>1243</duration>
													<timecode>
														<rate>
															<timebase>30</timebase>
															<ntsc>FALSE</ntsc>
														</rate>
														<string>00:00:00:00</string>
														<frame>0</frame>
														<displayformat>NDF</displayformat>
													</timecode>
													<media>
														<video>
															<samplecharacteristics>
																<rate>
																	<timebase>30</timebase>
																	<ntsc>FALSE</ntsc>
																</rate>
																<width>576</width>
																<height>1024</height>
																<anamorphic>FALSE</anamorphic>
																<pixelaspectratio>square</pixelaspectratio>
																<fielddominance>none</fielddominance>
															</samplecharacteristics>
														</video>
														<audio>
															<samplecharacteristics>
																<depth>16</depth>
																<samplerate>44100</samplerate>
															</samplecharacteristics>
															<channelcount>2</channelcount>
														</audio>
													</media>
												</file>
												<link>
													<linkclipref>clipitem-255</linkclipref>
													<mediatype>video</mediatype>
													<trackindex>1</trackindex>
													<clipindex>1</clipindex>
												</link>
												<link>
													<linkclipref>clipitem-256</linkclipref>
													<mediatype>audio</mediatype>
													<trackindex>1</trackindex>
													<clipindex>1</clipindex>
													<groupindex>1</groupindex>
												</link>
												<link>
													<linkclipref>clipitem-257</linkclipref>
													<mediatype>audio</mediatype>
													<trackindex>2</trackindex>
													<clipindex>1</clipindex>
													<groupindex>1</groupindex>
												</link>
											</clipitem>
										</track>
									</video>
									<audio>
										<track>
											<clipitem id="clipitem-256">
												<masterclipid>masterclip-141</masterclipid>
												<name>(sophiabakessometimes)_7100257864551304453_TT.mp4</name>
												<rate>
													<timebase>30</timebase>
													<ntsc>FALSE</ntsc>
												</rate>
												<file id="file-141"/>
												<sourcetrack>
													<mediatype>audio</mediatype>
													<trackindex>1</trackindex>
												</sourcetrack>
												<link>
													<linkclipref>clipitem-255</linkclipref>
													<mediatype>video</mediatype>
													<trackindex>1</trackindex>
													<clipindex>1</clipindex>
												</link>
												<link>
													<linkclipref>clipitem-256</linkclipref>
													<mediatype>audio</mediatype>
													<trackindex>1</trackindex>
													<clipindex>1</clipindex>
													<groupindex>1</groupindex>
												</link>
												<link>
													<linkclipref>clipitem-257</linkclipref>
													<mediatype>audio</mediatype>
													<trackindex>2</trackindex>
													<clipindex>1</clipindex>
													<groupindex>1</groupindex>
												</link>
											</clipitem>
										</track>
										<track>
											<clipitem id="clipitem-257">
												<masterclipid>masterclip-141</masterclipid>
												<name>(sophiabakessometimes)_7100257864551304453_TT.mp4</name>
												<rate>
													<timebase>30</timebase>
													<ntsc>FALSE</ntsc>
												</rate>
												<file id="file-141"/>
												<sourcetrack>
													<mediatype>audio</mediatype>
													<trackindex>2</trackindex>
												</sourcetrack>
												<link>
													<linkclipref>clipitem-255</linkclipref>
													<mediatype>video</mediatype>
													<trackindex>1</trackindex>
													<clipindex>1</clipindex>
												</link>
												<link>
													<linkclipref>clipitem-256</linkclipref>
													<mediatype>audio</mediatype>
													<trackindex>1</trackindex>
													<clipindex>1</clipindex>
													<groupindex>1</groupindex>
												</link>
												<link>
													<linkclipref>clipitem-257</linkclipref>
													<mediatype>audio</mediatype>
													<trackindex>2</trackindex>
													<clipindex>1</clipindex>
													<groupindex>1</groupindex>
												</link>
											</clipitem>
										</track>
									</audio>
								</media>
								<logginginfo>
									<description></description>
									<scene></scene>
									<shottake></shottake>
									<lognote></lognote>
									<good></good>
									<originalvideofilename></originalvideofilename>
									<originalaudiofilename></originalaudiofilename>
								</logginginfo>
								<colorinfo>
									<lut></lut>
									<lut1></lut1>
									<asc_sop></asc_sop>
									<asc_sat></asc_sat>
									<lut2></lut2>
								</colorinfo>
								<labels>
								</labels>
							</clip>
							<clip id="masterclip-142" explodedTracks="true">
								<uuid>15c18118-4011-47d0-820c-2b44fda184a0</uuid>
								<masterclipid>masterclip-142</masterclipid>
								<ismasterclip>TRUE</ismasterclip>
								<duration>508</duration>
								<rate>
									<timebase>30</timebase>
									<ntsc>FALSE</ntsc>
								</rate>
								<in>0</in>
								<out>32</out>
								<name>(succulentbite)_CVIrzZqlWdF_IG.mp4</name>
								<media>
									<video>
										<track>
											<clipitem id="clipitem-258">
												<masterclipid>masterclip-142</masterclipid>
												<name>(succulentbite)_CVIrzZqlWdF_IG.mp4</name>
												<rate>
													<timebase>30</timebase>
													<ntsc>FALSE</ntsc>
												</rate>
												<alphatype>none</alphatype>
												<pixelaspectratio>square</pixelaspectratio>
												<anamorphic>FALSE</anamorphic>
												<file id="file-142">
													<name>(succulentbite)_CVIrzZqlWdF_IG.mp4</name>
													<pathurl>file://localhost/Volumes/ATM%201/EYE%20CANDY/8%3a21%3a23/3_Raw%20Files/nutella/(succulentbite)_CVIrzZqlWdF_IG.mp4</pathurl>
													<rate>
														<timebase>30</timebase>
														<ntsc>FALSE</ntsc>
													</rate>
													<duration>508</duration>
													<timecode>
														<rate>
															<timebase>30</timebase>
															<ntsc>FALSE</ntsc>
														</rate>
														<string>00:00:00:00</string>
														<frame>0</frame>
														<displayformat>NDF</displayformat>
													</timecode>
													<media>
														<video>
															<samplecharacteristics>
																<rate>
																	<timebase>30</timebase>
																	<ntsc>FALSE</ntsc>
																</rate>
																<width>720</width>
																<height>1280</height>
																<anamorphic>FALSE</anamorphic>
																<pixelaspectratio>square</pixelaspectratio>
																<fielddominance>none</fielddominance>
															</samplecharacteristics>
														</video>
														<audio>
															<samplecharacteristics>
																<depth>16</depth>
																<samplerate>44100</samplerate>
															</samplecharacteristics>
															<channelcount>2</channelcount>
														</audio>
													</media>
												</file>
												<link>
													<linkclipref>clipitem-258</linkclipref>
													<mediatype>video</mediatype>
													<trackindex>1</trackindex>
													<clipindex>1</clipindex>
												</link>
												<link>
													<linkclipref>clipitem-259</linkclipref>
													<mediatype>audio</mediatype>
													<trackindex>1</trackindex>
													<clipindex>1</clipindex>
													<groupindex>1</groupindex>
												</link>
												<link>
													<linkclipref>clipitem-260</linkclipref>
													<mediatype>audio</mediatype>
													<trackindex>2</trackindex>
													<clipindex>1</clipindex>
													<groupindex>1</groupindex>
												</link>
											</clipitem>
										</track>
									</video>
									<audio>
										<track>
											<clipitem id="clipitem-259">
												<masterclipid>masterclip-142</masterclipid>
												<name>(succulentbite)_CVIrzZqlWdF_IG.mp4</name>
												<rate>
													<timebase>30</timebase>
													<ntsc>FALSE</ntsc>
												</rate>
												<file id="file-142"/>
												<sourcetrack>
													<mediatype>audio</mediatype>
													<trackindex>1</trackindex>
												</sourcetrack>
												<link>
													<linkclipref>clipitem-258</linkclipref>
													<mediatype>video</mediatype>
													<trackindex>1</trackindex>
													<clipindex>1</clipindex>
												</link>
												<link>
													<linkclipref>clipitem-259</linkclipref>
													<mediatype>audio</mediatype>
													<trackindex>1</trackindex>
													<clipindex>1</clipindex>
													<groupindex>1</groupindex>
												</link>
												<link>
													<linkclipref>clipitem-260</linkclipref>
													<mediatype>audio</mediatype>
													<trackindex>2</trackindex>
													<clipindex>1</clipindex>
													<groupindex>1</groupindex>
												</link>
											</clipitem>
										</track>
										<track>
											<clipitem id="clipitem-260">
												<masterclipid>masterclip-142</masterclipid>
												<name>(succulentbite)_CVIrzZqlWdF_IG.mp4</name>
												<rate>
													<timebase>30</timebase>
													<ntsc>FALSE</ntsc>
												</rate>
												<file id="file-142"/>
												<sourcetrack>
													<mediatype>audio</mediatype>
													<trackindex>2</trackindex>
												</sourcetrack>
												<link>
													<linkclipref>clipitem-258</linkclipref>
													<mediatype>video</mediatype>
													<trackindex>1</trackindex>
													<clipindex>1</clipindex>
												</link>
												<link>
													<linkclipref>clipitem-259</linkclipref>
													<mediatype>audio</mediatype>
													<trackindex>1</trackindex>
													<clipindex>1</clipindex>
													<groupindex>1</groupindex>
												</link>
												<link>
													<linkclipref>clipitem-260</linkclipref>
													<mediatype>audio</mediatype>
													<trackindex>2</trackindex>
													<clipindex>1</clipindex>
													<groupindex>1</groupindex>
												</link>
											</clipitem>
										</track>
									</audio>
								</media>
								<logginginfo>
									<description></description>
									<scene></scene>
									<shottake></shottake>
									<lognote></lognote>
									<good></good>
									<originalvideofilename></originalvideofilename>
									<originalaudiofilename></originalaudiofilename>
								</logginginfo>
								<colorinfo>
									<lut></lut>
									<lut1></lut1>
									<asc_sop></asc_sop>
									<asc_sat></asc_sat>
									<lut2></lut2>
								</colorinfo>
								<labels>
								</labels>
							</clip>
							<clip id="masterclip-143" explodedTracks="true">
								<uuid>a8024730-f05d-4450-aaee-8bdfadd0c7d6</uuid>
								<masterclipid>masterclip-143</masterclipid>
								<ismasterclip>TRUE</ismasterclip>
								<duration>869</duration>
								<rate>
									<timebase>30</timebase>
									<ntsc>FALSE</ntsc>
								</rate>
								<in>714</in>
								<name>(sugarandsparrowco)_Cm9hPVMIl6__IG.mp4</name>
								<media>
									<video>
										<track>
											<clipitem id="clipitem-261">
												<masterclipid>masterclip-143</masterclipid>
												<name>(sugarandsparrowco)_Cm9hPVMIl6__IG.mp4</name>
												<rate>
													<timebase>30</timebase>
													<ntsc>FALSE</ntsc>
												</rate>
												<alphatype>none</alphatype>
												<pixelaspectratio>square</pixelaspectratio>
												<anamorphic>FALSE</anamorphic>
												<file id="file-143">
													<name>(sugarandsparrowco)_Cm9hPVMIl6__IG.mp4</name>
													<pathurl>file://localhost/Volumes/ATM%201/EYE%20CANDY/8%3a21%3a23/3_Raw%20Files/nutella/(sugarandsparrowco)_Cm9hPVMIl6__IG.mp4</pathurl>
													<rate>
														<timebase>30</timebase>
														<ntsc>FALSE</ntsc>
													</rate>
													<duration>869</duration>
													<timecode>
														<rate>
															<timebase>30</timebase>
															<ntsc>FALSE</ntsc>
														</rate>
														<string>00:00:00:00</string>
														<frame>0</frame>
														<displayformat>NDF</displayformat>
													</timecode>
													<media>
														<video>
															<samplecharacteristics>
																<rate>
																	<timebase>30</timebase>
																	<ntsc>FALSE</ntsc>
																</rate>
																<width>720</width>
																<height>1280</height>
																<anamorphic>FALSE</anamorphic>
																<pixelaspectratio>square</pixelaspectratio>
																<fielddominance>none</fielddominance>
															</samplecharacteristics>
														</video>
														<audio>
															<samplecharacteristics>
																<depth>16</depth>
																<samplerate>44100</samplerate>
															</samplecharacteristics>
															<channelcount>2</channelcount>
														</audio>
													</media>
												</file>
												<link>
													<linkclipref>clipitem-261</linkclipref>
													<mediatype>video</mediatype>
													<trackindex>1</trackindex>
													<clipindex>1</clipindex>
												</link>
												<link>
													<linkclipref>clipitem-262</linkclipref>
													<mediatype>audio</mediatype>
													<trackindex>1</trackindex>
													<clipindex>1</clipindex>
													<groupindex>1</groupindex>
												</link>
												<link>
													<linkclipref>clipitem-263</linkclipref>
													<mediatype>audio</mediatype>
													<trackindex>2</trackindex>
													<clipindex>1</clipindex>
													<groupindex>1</groupindex>
												</link>
											</clipitem>
										</track>
									</video>
									<audio>
										<track>
											<clipitem id="clipitem-262">
												<masterclipid>masterclip-143</masterclipid>
												<name>(sugarandsparrowco)_Cm9hPVMIl6__IG.mp4</name>
												<rate>
													<timebase>30</timebase>
													<ntsc>FALSE</ntsc>
												</rate>
												<file id="file-143"/>
												<sourcetrack>
													<mediatype>audio</mediatype>
													<trackindex>1</trackindex>
												</sourcetrack>
												<link>
													<linkclipref>clipitem-261</linkclipref>
													<mediatype>video</mediatype>
													<trackindex>1</trackindex>
													<clipindex>1</clipindex>
												</link>
												<link>
													<linkclipref>clipitem-262</linkclipref>
													<mediatype>audio</mediatype>
													<trackindex>1</trackindex>
													<clipindex>1</clipindex>
													<groupindex>1</groupindex>
												</link>
												<link>
													<linkclipref>clipitem-263</linkclipref>
													<mediatype>audio</mediatype>
													<trackindex>2</trackindex>
													<clipindex>1</clipindex>
													<groupindex>1</groupindex>
												</link>
											</clipitem>
										</track>
										<track>
											<clipitem id="clipitem-263">
												<masterclipid>masterclip-143</masterclipid>
												<name>(sugarandsparrowco)_Cm9hPVMIl6__IG.mp4</name>
												<rate>
													<timebase>30</timebase>
													<ntsc>FALSE</ntsc>
												</rate>
												<file id="file-143"/>
												<sourcetrack>
													<mediatype>audio</mediatype>
													<trackindex>2</trackindex>
												</sourcetrack>
												<link>
													<linkclipref>clipitem-261</linkclipref>
													<mediatype>video</mediatype>
													<trackindex>1</trackindex>
													<clipindex>1</clipindex>
												</link>
												<link>
													<linkclipref>clipitem-262</linkclipref>
													<mediatype>audio</mediatype>
													<trackindex>1</trackindex>
													<clipindex>1</clipindex>
													<groupindex>1</groupindex>
												</link>
												<link>
													<linkclipref>clipitem-263</linkclipref>
													<mediatype>audio</mediatype>
													<trackindex>2</trackindex>
													<clipindex>1</clipindex>
													<groupindex>1</groupindex>
												</link>
											</clipitem>
										</track>
									</audio>
								</media>
								<logginginfo>
									<description></description>
									<scene></scene>
									<shottake></shottake>
									<lognote></lognote>
									<good></good>
									<originalvideofilename></originalvideofilename>
									<originalaudiofilename></originalaudiofilename>
								</logginginfo>
								<colorinfo>
									<lut></lut>
									<lut1></lut1>
									<asc_sop></asc_sop>
									<asc_sat></asc_sat>
									<lut2></lut2>
								</colorinfo>
								<labels>
								</labels>
							</clip>
							<clip id="masterclip-144" explodedTracks="true">
								<uuid>a00550b5-bd17-4f49-a364-e547fdb45010</uuid>
								<masterclipid>masterclip-144</masterclipid>
								<ismasterclip>TRUE</ismasterclip>
								<duration>1099</duration>
								<rate>
									<timebase>30</timebase>
									<ntsc>FALSE</ntsc>
								</rate>
								<in>33</in>
								<out>81</out>
								<name>(thesugarhobby)_Coe5MHqA1BV_IG.mp4</name>
								<media>
									<video>
										<track>
											<clipitem id="clipitem-264">
												<masterclipid>masterclip-144</masterclipid>
												<name>(thesugarhobby)_Coe5MHqA1BV_IG.mp4</name>
												<rate>
													<timebase>30</timebase>
													<ntsc>FALSE</ntsc>
												</rate>
												<alphatype>none</alphatype>
												<pixelaspectratio>square</pixelaspectratio>
												<anamorphic>FALSE</anamorphic>
												<file id="file-144">
													<name>(thesugarhobby)_Coe5MHqA1BV_IG.mp4</name>
													<pathurl>file://localhost/Volumes/ATM%201/EYE%20CANDY/8%3a21%3a23/3_Raw%20Files/nutella/(thesugarhobby)_Coe5MHqA1BV_IG.mp4</pathurl>
													<rate>
														<timebase>30</timebase>
														<ntsc>FALSE</ntsc>
													</rate>
													<duration>1099</duration>
													<timecode>
														<rate>
															<timebase>30</timebase>
															<ntsc>FALSE</ntsc>
														</rate>
														<string>00:00:00:00</string>
														<frame>0</frame>
														<displayformat>NDF</displayformat>
													</timecode>
													<media>
														<video>
															<samplecharacteristics>
																<rate>
																	<timebase>30</timebase>
																	<ntsc>FALSE</ntsc>
																</rate>
																<width>720</width>
																<height>1280</height>
																<anamorphic>FALSE</anamorphic>
																<pixelaspectratio>square</pixelaspectratio>
																<fielddominance>none</fielddominance>
															</samplecharacteristics>
														</video>
														<audio>
															<samplecharacteristics>
																<depth>16</depth>
																<samplerate>44100</samplerate>
															</samplecharacteristics>
															<channelcount>2</channelcount>
														</audio>
													</media>
												</file>
												<link>
													<linkclipref>clipitem-264</linkclipref>
													<mediatype>video</mediatype>
													<trackindex>1</trackindex>
													<clipindex>1</clipindex>
												</link>
												<link>
													<linkclipref>clipitem-265</linkclipref>
													<mediatype>audio</mediatype>
													<trackindex>1</trackindex>
													<clipindex>1</clipindex>
													<groupindex>1</groupindex>
												</link>
												<link>
													<linkclipref>clipitem-266</linkclipref>
													<mediatype>audio</mediatype>
													<trackindex>2</trackindex>
													<clipindex>1</clipindex>
													<groupindex>1</groupindex>
												</link>
											</clipitem>
										</track>
									</video>
									<audio>
										<track>
											<clipitem id="clipitem-265">
												<masterclipid>masterclip-144</masterclipid>
												<name>(thesugarhobby)_Coe5MHqA1BV_IG.mp4</name>
												<rate>
													<timebase>30</timebase>
													<ntsc>FALSE</ntsc>
												</rate>
												<file id="file-144"/>
												<sourcetrack>
													<mediatype>audio</mediatype>
													<trackindex>1</trackindex>
												</sourcetrack>
												<link>
													<linkclipref>clipitem-264</linkclipref>
													<mediatype>video</mediatype>
													<trackindex>1</trackindex>
													<clipindex>1</clipindex>
												</link>
												<link>
													<linkclipref>clipitem-265</linkclipref>
													<mediatype>audio</mediatype>
													<trackindex>1</trackindex>
													<clipindex>1</clipindex>
													<groupindex>1</groupindex>
												</link>
												<link>
													<linkclipref>clipitem-266</linkclipref>
													<mediatype>audio</mediatype>
													<trackindex>2</trackindex>
													<clipindex>1</clipindex>
													<groupindex>1</groupindex>
												</link>
											</clipitem>
										</track>
										<track>
											<clipitem id="clipitem-266">
												<masterclipid>masterclip-144</masterclipid>
												<name>(thesugarhobby)_Coe5MHqA1BV_IG.mp4</name>
												<rate>
													<timebase>30</timebase>
													<ntsc>FALSE</ntsc>
												</rate>
												<file id="file-144"/>
												<sourcetrack>
													<mediatype>audio</mediatype>
													<trackindex>2</trackindex>
												</sourcetrack>
												<link>
													<linkclipref>clipitem-264</linkclipref>
													<mediatype>video</mediatype>
													<trackindex>1</trackindex>
													<clipindex>1</clipindex>
												</link>
												<link>
													<linkclipref>clipitem-265</linkclipref>
													<mediatype>audio</mediatype>
													<trackindex>1</trackindex>
													<clipindex>1</clipindex>
													<groupindex>1</groupindex>
												</link>
												<link>
													<linkclipref>clipitem-266</linkclipref>
													<mediatype>audio</mediatype>
													<trackindex>2</trackindex>
													<clipindex>1</clipindex>
													<groupindex>1</groupindex>
												</link>
											</clipitem>
										</track>
									</audio>
								</media>
								<logginginfo>
									<description></description>
									<scene></scene>
									<shottake></shottake>
									<lognote></lognote>
									<good></good>
									<originalvideofilename></originalvideofilename>
									<originalaudiofilename></originalaudiofilename>
								</logginginfo>
								<colorinfo>
									<lut></lut>
									<lut1></lut1>
									<asc_sop></asc_sop>
									<asc_sat></asc_sat>
									<lut2></lut2>
								</colorinfo>
								<labels>
								</labels>
							</clip>
							<clip id="masterclip-145" explodedTracks="true">
								<uuid>a90f1116-dbf2-4558-b328-f22d5d30268d</uuid>
								<masterclipid>masterclip-145</masterclipid>
								<ismasterclip>TRUE</ismasterclip>
								<duration>4654</duration>
								<rate>
									<timebase>30</timebase>
									<ntsc>FALSE</ntsc>
								</rate>
								<in>3817</in>
								<out>4036</out>
								<name>(Mamagician)_5 Ingredients Easy Nutella Fudgy Brownies _ (Mamagician)_Sri_IWTgpNY_YT.mp4</name>
								<media>
									<video>
										<track>
											<clipitem id="clipitem-267">
												<masterclipid>masterclip-145</masterclipid>
												<name>(Mamagician)_5 Ingredients Easy Nutella Fudgy Brownies _ (Mamagician)_Sri_IWTgpNY_YT.mp4</name>
												<rate>
													<timebase>30</timebase>
													<ntsc>FALSE</ntsc>
												</rate>
												<alphatype>none</alphatype>
												<pixelaspectratio>square</pixelaspectratio>
												<anamorphic>FALSE</anamorphic>
												<file id="file-145">
													<name>(Mamagician)_5 Ingredients Easy Nutella Fudgy Brownies _ (Mamagician)_Sri_IWTgpNY_YT.mp4</name>
													<pathurl>file://localhost/Volumes/ATM%201/EYE%20CANDY/8%3a21%3a23/3_Raw%20Files/nutella/(Mamagician)_5%20Ingredients%20Easy%20Nutella%20Fudgy%20Brownies%20_%20(Mamagician)_Sri_IWTgpNY_YT.mp4</pathurl>
													<rate>
														<timebase>30</timebase>
														<ntsc>FALSE</ntsc>
													</rate>
													<duration>4654</duration>
													<timecode>
														<rate>
															<timebase>30</timebase>
															<ntsc>FALSE</ntsc>
														</rate>
														<string>00:00:00:00</string>
														<frame>0</frame>
														<displayformat>NDF</displayformat>
													</timecode>
													<media>
														<video>
															<samplecharacteristics>
																<rate>
																	<timebase>30</timebase>
																	<ntsc>FALSE</ntsc>
																</rate>
																<width>1920</width>
																<height>1080</height>
																<anamorphic>FALSE</anamorphic>
																<pixelaspectratio>square</pixelaspectratio>
																<fielddominance>none</fielddominance>
															</samplecharacteristics>
														</video>
														<audio>
															<samplecharacteristics>
																<depth>16</depth>
																<samplerate>44100</samplerate>
															</samplecharacteristics>
															<channelcount>2</channelcount>
														</audio>
													</media>
												</file>
												<link>
													<linkclipref>clipitem-267</linkclipref>
													<mediatype>video</mediatype>
													<trackindex>1</trackindex>
													<clipindex>1</clipindex>
												</link>
												<link>
													<linkclipref>clipitem-268</linkclipref>
													<mediatype>audio</mediatype>
													<trackindex>1</trackindex>
													<clipindex>1</clipindex>
													<groupindex>1</groupindex>
												</link>
												<link>
													<linkclipref>clipitem-269</linkclipref>
													<mediatype>audio</mediatype>
													<trackindex>2</trackindex>
													<clipindex>1</clipindex>
													<groupindex>1</groupindex>
												</link>
											</clipitem>
										</track>
									</video>
									<audio>
										<track>
											<clipitem id="clipitem-268">
												<masterclipid>masterclip-145</masterclipid>
												<name>(Mamagician)_5 Ingredients Easy Nutella Fudgy Brownies _ (Mamagician)_Sri_IWTgpNY_YT.mp4</name>
												<rate>
													<timebase>30</timebase>
													<ntsc>FALSE</ntsc>
												</rate>
												<file id="file-145"/>
												<sourcetrack>
													<mediatype>audio</mediatype>
													<trackindex>1</trackindex>
												</sourcetrack>
												<link>
													<linkclipref>clipitem-267</linkclipref>
													<mediatype>video</mediatype>
													<trackindex>1</trackindex>
													<clipindex>1</clipindex>
												</link>
												<link>
													<linkclipref>clipitem-268</linkclipref>
													<mediatype>audio</mediatype>
													<trackindex>1</trackindex>
													<clipindex>1</clipindex>
													<groupindex>1</groupindex>
												</link>
												<link>
													<linkclipref>clipitem-269</linkclipref>
													<mediatype>audio</mediatype>
													<trackindex>2</trackindex>
													<clipindex>1</clipindex>
													<groupindex>1</groupindex>
												</link>
											</clipitem>
										</track>
										<track>
											<clipitem id="clipitem-269">
												<masterclipid>masterclip-145</masterclipid>
												<name>(Mamagician)_5 Ingredients Easy Nutella Fudgy Brownies _ (Mamagician)_Sri_IWTgpNY_YT.mp4</name>
												<rate>
													<timebase>30</timebase>
													<ntsc>FALSE</ntsc>
												</rate>
												<file id="file-145"/>
												<sourcetrack>
													<mediatype>audio</mediatype>
													<trackindex>2</trackindex>
												</sourcetrack>
												<link>
													<linkclipref>clipitem-267</linkclipref>
													<mediatype>video</mediatype>
													<trackindex>1</trackindex>
													<clipindex>1</clipindex>
												</link>
												<link>
													<linkclipref>clipitem-268</linkclipref>
													<mediatype>audio</mediatype>
													<trackindex>1</trackindex>
													<clipindex>1</clipindex>
													<groupindex>1</groupindex>
												</link>
												<link>
													<linkclipref>clipitem-269</linkclipref>
													<mediatype>audio</mediatype>
													<trackindex>2</trackindex>
													<clipindex>1</clipindex>
													<groupindex>1</groupindex>
												</link>
											</clipitem>
										</track>
									</audio>
								</media>
								<logginginfo>
									<description>5 Ingredients Easy Nutella Fudgy Brownies | Mamagician</description>
									<scene></scene>
									<shottake></shottake>
									<lognote>https://www.youtube.com/watch?v=Sri_IWTgpNY</lognote>
									<good></good>
									<originalvideofilename></originalvideofilename>
									<originalaudiofilename></originalaudiofilename>
								</logginginfo>
								<colorinfo>
									<lut></lut>
									<lut1></lut1>
									<asc_sop></asc_sop>
									<asc_sat></asc_sat>
									<lut2></lut2>
								</colorinfo>
								<labels>
								</labels>
							</clip>
						</children>
					</bin>
					<clip id="masterclip-146" explodedTracks="true">
						<uuid>1128597f-57ff-4caa-a8fe-0a82df6142aa</uuid>
						<masterclipid>masterclip-146</masterclipid>
						<ismasterclip>TRUE</ismasterclip>
						<duration>2508</duration>
						<rate>
							<timebase>30</timebase>
							<ntsc>FALSE</ntsc>
						</rate>
						<in>2267</in>
						<out>2443</out>
						<name>(refined.and.dandy)_7044601598684794118_TT.mp4</name>
						<media>
							<video>
								<track>
									<clipitem id="clipitem-270">
										<masterclipid>masterclip-146</masterclipid>
										<name>(refined.and.dandy)_7044601598684794118_TT.mp4</name>
										<rate>
											<timebase>30</timebase>
											<ntsc>FALSE</ntsc>
										</rate>
										<alphatype>none</alphatype>
										<pixelaspectratio>square</pixelaspectratio>
										<anamorphic>FALSE</anamorphic>
										<file id="file-146">
											<name>(refined.and.dandy)_7044601598684794118_TT.mp4</name>
											<pathurl>file://localhost/Volumes/ATM%201/EYE%20CANDY/8%3a21%3a23/3_Raw%20Files/(refined.and.dandy)_7044601598684794118_TT.mp4</pathurl>
											<rate>
												<timebase>30</timebase>
												<ntsc>FALSE</ntsc>
											</rate>
											<duration>2508</duration>
											<timecode>
												<rate>
													<timebase>30</timebase>
													<ntsc>FALSE</ntsc>
												</rate>
												<string>00:00:00:00</string>
												<frame>0</frame>
												<displayformat>NDF</displayformat>
											</timecode>
											<media>
												<video>
													<samplecharacteristics>
														<rate>
															<timebase>30</timebase>
															<ntsc>FALSE</ntsc>
														</rate>
														<width>576</width>
														<height>1024</height>
														<anamorphic>FALSE</anamorphic>
														<pixelaspectratio>square</pixelaspectratio>
														<fielddominance>none</fielddominance>
													</samplecharacteristics>
												</video>
												<audio>
													<samplecharacteristics>
														<depth>16</depth>
														<samplerate>44100</samplerate>
													</samplecharacteristics>
													<channelcount>2</channelcount>
												</audio>
											</media>
										</file>
										<link>
											<linkclipref>clipitem-270</linkclipref>
											<mediatype>video</mediatype>
											<trackindex>1</trackindex>
											<clipindex>1</clipindex>
										</link>
										<link>
											<linkclipref>clipitem-271</linkclipref>
											<mediatype>audio</mediatype>
											<trackindex>1</trackindex>
											<clipindex>1</clipindex>
											<groupindex>1</groupindex>
										</link>
										<link>
											<linkclipref>clipitem-272</linkclipref>
											<mediatype>audio</mediatype>
											<trackindex>2</trackindex>
											<clipindex>1</clipindex>
											<groupindex>1</groupindex>
										</link>
									</clipitem>
								</track>
							</video>
							<audio>
								<track>
									<clipitem id="clipitem-271">
										<masterclipid>masterclip-146</masterclipid>
										<name>(refined.and.dandy)_7044601598684794118_TT.mp4</name>
										<rate>
											<timebase>30</timebase>
											<ntsc>FALSE</ntsc>
										</rate>
										<file id="file-146"/>
										<sourcetrack>
											<mediatype>audio</mediatype>
											<trackindex>1</trackindex>
										</sourcetrack>
										<link>
											<linkclipref>clipitem-270</linkclipref>
											<mediatype>video</mediatype>
											<trackindex>1</trackindex>
											<clipindex>1</clipindex>
										</link>
										<link>
											<linkclipref>clipitem-271</linkclipref>
											<mediatype>audio</mediatype>
											<trackindex>1</trackindex>
											<clipindex>1</clipindex>
											<groupindex>1</groupindex>
										</link>
										<link>
											<linkclipref>clipitem-272</linkclipref>
											<mediatype>audio</mediatype>
											<trackindex>2</trackindex>
											<clipindex>1</clipindex>
											<groupindex>1</groupindex>
										</link>
									</clipitem>
								</track>
								<track>
									<clipitem id="clipitem-272">
										<masterclipid>masterclip-146</masterclipid>
										<name>(refined.and.dandy)_7044601598684794118_TT.mp4</name>
										<rate>
											<timebase>30</timebase>
											<ntsc>FALSE</ntsc>
										</rate>
										<file id="file-146"/>
										<sourcetrack>
											<mediatype>audio</mediatype>
											<trackindex>2</trackindex>
										</sourcetrack>
										<link>
											<linkclipref>clipitem-270</linkclipref>
											<mediatype>video</mediatype>
											<trackindex>1</trackindex>
											<clipindex>1</clipindex>
										</link>
										<link>
											<linkclipref>clipitem-271</linkclipref>
											<mediatype>audio</mediatype>
											<trackindex>1</trackindex>
											<clipindex>1</clipindex>
											<groupindex>1</groupindex>
										</link>
										<link>
											<linkclipref>clipitem-272</linkclipref>
											<mediatype>audio</mediatype>
											<trackindex>2</trackindex>
											<clipindex>1</clipindex>
											<groupindex>1</groupindex>
										</link>
									</clipitem>
								</track>
							</audio>
						</media>
						<logginginfo>
							<description></description>
							<scene></scene>
							<shottake></shottake>
							<lognote></lognote>
							<good></good>
							<originalvideofilename></originalvideofilename>
							<originalaudiofilename></originalaudiofilename>
						</logginginfo>
						<colorinfo>
							<lut></lut>
							<lut1></lut1>
							<asc_sop></asc_sop>
							<asc_sat></asc_sat>
							<lut2></lut2>
						</colorinfo>
						<labels>
							<label2>Iris</label2>
						</labels>
					</clip>
				</children>
			</bin>
			<bin>
				<name>2_Lower Thirds</name>
				<labels>
					<label2>Mango</label2>
				</labels>
				<children>
					<clip id="masterclip-147" explodedTracks="true">
						<uuid>c6589ead-80c3-4b80-a73c-cec224e5a640</uuid>
						<masterclipid>masterclip-147</masterclipid>
						<ismasterclip>TRUE</ismasterclip>
						<duration>6300</duration>
						<rate>
							<timebase>30</timebase>
							<ntsc>FALSE</ntsc>
						</rate>
						<name>EYECANDY_L3RD_JL_V03/EYECANDY_L3rd_JL_V04.aep</name>
						<media>
							<video>
								<track>
									<clipitem id="clipitem-273">
										<masterclipid>masterclip-147</masterclipid>
										<name>EYECANDY_L3RD_JL_V03/EYECANDY_L3rd_JL_V04.aep</name>
										<rate>
											<timebase>30</timebase>
											<ntsc>FALSE</ntsc>
										</rate>
										<alphatype>straight</alphatype>
										<pixelaspectratio>square</pixelaspectratio>
										<anamorphic>FALSE</anamorphic>
										<file id="file-147">
											<name>EYECANDY_L3RD_JL_V03/EYECANDY_L3rd_JL_V04.aep</name>
											<pathurl>file://localhost/Volumes/ATM%201/EYE%20CANDY/Project%20Template/5_Assets/Eye%20Candy%20Mograph/EYECANDY_L3rd_JL_V04%20folder/EYECANDY_L3rd_JL_V04.aep</pathurl>
											<rate>
												<timebase>30</timebase>
												<ntsc>FALSE</ntsc>
											</rate>
											<duration>6300</duration>
											<timecode>
												<rate>
													<timebase>30</timebase>
													<ntsc>FALSE</ntsc>
												</rate>
												<string>00:00:00:00</string>
												<frame>0</frame>
												<displayformat>NDF</displayformat>
											</timecode>
											<media>
												<video>
													<samplecharacteristics>
														<rate>
															<timebase>30</timebase>
															<ntsc>FALSE</ntsc>
														</rate>
														<width>1920</width>
														<height>1080</height>
														<anamorphic>FALSE</anamorphic>
														<pixelaspectratio>square</pixelaspectratio>
														<fielddominance>lower</fielddominance>
													</samplecharacteristics>
												</video>
											</media>
										</file>
									</clipitem>
								</track>
							</video>
						</media>
						<logginginfo>
							<description></description>
							<scene></scene>
							<shottake></shottake>
							<lognote></lognote>
							<good></good>
							<originalvideofilename></originalvideofilename>
							<originalaudiofilename></originalaudiofilename>
						</logginginfo>
						<colorinfo>
							<lut></lut>
							<lut1></lut1>
							<asc_sop></asc_sop>
							<asc_sat></asc_sat>
							<lut2></lut2>
						</colorinfo>
						<labels>
						</labels>
					</clip>
					<clip id="masterclip-148" explodedTracks="true">
						<uuid>ab59e9fa-b3a4-4e54-8448-345444385ff6</uuid>
						<masterclipid>masterclip-148</masterclipid>
						<ismasterclip>TRUE</ismasterclip>
						<duration>6300</duration>
						<rate>
							<timebase>30</timebase>
							<ntsc>FALSE</ntsc>
						</rate>
						<out>166</out>
						<name>Bee Who You Wanna Bee</name>
						<media>
							<video>
								<track>
									<clipitem id="clipitem-274">
										<masterclipid>masterclip-148</masterclipid>
										<name>Bee Who You Wanna Bee</name>
										<rate>
											<timebase>30</timebase>
											<ntsc>FALSE</ntsc>
										</rate>
										<alphatype>straight</alphatype>
										<pixelaspectratio>square</pixelaspectratio>
										<anamorphic>FALSE</anamorphic>
										<file id="file-148">
											<name>EYECANDY_L3RD_JL_V03/EYECANDY_L3rd_JL_V04.aep</name>
											<pathurl>file://localhost/Volumes/ATM%201/EYE%20CANDY/Project%20Template/5_Assets/Eye%20Candy%20Mograph/EYECANDY_L3rd_JL_V04%20folder/EYECANDY_L3rd_JL_V04.aep</pathurl>
											<rate>
												<timebase>30</timebase>
												<ntsc>FALSE</ntsc>
											</rate>
											<duration>6300</duration>
											<timecode>
												<rate>
													<timebase>30</timebase>
													<ntsc>FALSE</ntsc>
												</rate>
												<string>00:00:00:00</string>
												<frame>0</frame>
												<displayformat>NDF</displayformat>
											</timecode>
											<media>
												<video>
													<samplecharacteristics>
														<rate>
															<timebase>30</timebase>
															<ntsc>FALSE</ntsc>
														</rate>
														<width>1920</width>
														<height>1080</height>
														<anamorphic>FALSE</anamorphic>
														<pixelaspectratio>square</pixelaspectratio>
														<fielddominance>lower</fielddominance>
													</samplecharacteristics>
												</video>
											</media>
										</file>
									</clipitem>
								</track>
							</video>
						</media>
						<logginginfo>
							<description></description>
							<scene></scene>
							<shottake></shottake>
							<lognote></lognote>
							<good></good>
							<originalvideofilename></originalvideofilename>
							<originalaudiofilename></originalaudiofilename>
						</logginginfo>
						<colorinfo>
							<lut></lut>
							<lut1></lut1>
							<asc_sop></asc_sop>
							<asc_sat></asc_sat>
							<lut2></lut2>
						</colorinfo>
						<labels>
						</labels>
					</clip>
					<clip id="masterclip-149" explodedTracks="true">
						<uuid>1ccbe36a-b8c4-4c36-aa84-bc386e3b1dbb</uuid>
						<masterclipid>masterclip-149</masterclipid>
						<ismasterclip>TRUE</ismasterclip>
						<duration>6300</duration>
						<rate>
							<timebase>30</timebase>
							<ntsc>FALSE</ntsc>
						</rate>
						<out>166</out>
						<name>Sweet As A Strawberry</name>
						<media>
							<video>
								<track>
									<clipitem id="clipitem-275">
										<masterclipid>masterclip-149</masterclipid>
										<name>Sweet As A Strawberry</name>
										<rate>
											<timebase>30</timebase>
											<ntsc>FALSE</ntsc>
										</rate>
										<alphatype>straight</alphatype>
										<pixelaspectratio>square</pixelaspectratio>
										<anamorphic>FALSE</anamorphic>
										<file id="file-149">
											<name>EYECANDY_L3RD_JL_V03/EYECANDY_L3rd_JL_V04.aep</name>
											<pathurl>file://localhost/Volumes/ATM%201/EYE%20CANDY/Project%20Template/5_Assets/Eye%20Candy%20Mograph/EYECANDY_L3rd_JL_V04%20folder/EYECANDY_L3rd_JL_V04.aep</pathurl>
											<rate>
												<timebase>30</timebase>
												<ntsc>FALSE</ntsc>
											</rate>
											<duration>6300</duration>
											<timecode>
												<rate>
													<timebase>30</timebase>
													<ntsc>FALSE</ntsc>
												</rate>
												<string>00:00:00:00</string>
												<frame>0</frame>
												<displayformat>NDF</displayformat>
											</timecode>
											<media>
												<video>
													<samplecharacteristics>
														<rate>
															<timebase>30</timebase>
															<ntsc>FALSE</ntsc>
														</rate>
														<width>1920</width>
														<height>1080</height>
														<anamorphic>FALSE</anamorphic>
														<pixelaspectratio>square</pixelaspectratio>
														<fielddominance>lower</fielddominance>
													</samplecharacteristics>
												</video>
											</media>
										</file>
									</clipitem>
								</track>
							</video>
						</media>
						<logginginfo>
							<description></description>
							<scene></scene>
							<shottake></shottake>
							<lognote></lognote>
							<good></good>
							<originalvideofilename></originalvideofilename>
							<originalaudiofilename></originalaudiofilename>
						</logginginfo>
						<colorinfo>
							<lut></lut>
							<lut1></lut1>
							<asc_sop></asc_sop>
							<asc_sat></asc_sat>
							<lut2></lut2>
						</colorinfo>
						<labels>
						</labels>
					</clip>
					<clip id="masterclip-150" explodedTracks="true">
						<uuid>21dd7d40-ef0d-49b8-a87e-2e952b476e1f</uuid>
						<masterclipid>masterclip-150</masterclipid>
						<ismasterclip>TRUE</ismasterclip>
						<duration>6300</duration>
						<rate>
							<timebase>30</timebase>
							<ntsc>FALSE</ntsc>
						</rate>
						<out>166</out>
						<name>I've Got Bars</name>
						<media>
							<video>
								<track>
									<clipitem id="clipitem-276">
										<masterclipid>masterclip-150</masterclipid>
										<name>I've Got Bars</name>
										<rate>
											<timebase>30</timebase>
											<ntsc>FALSE</ntsc>
										</rate>
										<alphatype>straight</alphatype>
										<pixelaspectratio>square</pixelaspectratio>
										<anamorphic>FALSE</anamorphic>
										<file id="file-150">
											<name>EYECANDY_L3RD_JL_V03/EYECANDY_L3rd_JL_V04.aep</name>
											<pathurl>file://localhost/Volumes/ATM%201/EYE%20CANDY/Project%20Template/5_Assets/Eye%20Candy%20Mograph/EYECANDY_L3rd_JL_V04%20folder/EYECANDY_L3rd_JL_V04.aep</pathurl>
											<rate>
												<timebase>30</timebase>
												<ntsc>FALSE</ntsc>
											</rate>
											<duration>6300</duration>
											<timecode>
												<rate>
													<timebase>30</timebase>
													<ntsc>FALSE</ntsc>
												</rate>
												<string>00:00:00:00</string>
												<frame>0</frame>
												<displayformat>NDF</displayformat>
											</timecode>
											<media>
												<video>
													<samplecharacteristics>
														<rate>
															<timebase>30</timebase>
															<ntsc>FALSE</ntsc>
														</rate>
														<width>1920</width>
														<height>1080</height>
														<anamorphic>FALSE</anamorphic>
														<pixelaspectratio>square</pixelaspectratio>
														<fielddominance>lower</fielddominance>
													</samplecharacteristics>
												</video>
											</media>
										</file>
									</clipitem>
								</track>
							</video>
						</media>
						<logginginfo>
							<description></description>
							<scene></scene>
							<shottake></shottake>
							<lognote></lognote>
							<good></good>
							<originalvideofilename></originalvideofilename>
							<originalaudiofilename></originalaudiofilename>
						</logginginfo>
						<colorinfo>
							<lut></lut>
							<lut1></lut1>
							<asc_sop></asc_sop>
							<asc_sat></asc_sat>
							<lut2></lut2>
						</colorinfo>
						<labels>
						</labels>
					</clip>
					<clip id="masterclip-151" explodedTracks="true">
						<uuid>dc8c2829-8169-4a01-9889-44219fb4f120</uuid>
						<masterclipid>masterclip-151</masterclipid>
						<ismasterclip>TRUE</ismasterclip>
						<duration>6300</duration>
						<rate>
							<timebase>30</timebase>
							<ntsc>FALSE</ntsc>
						</rate>
						<out>166</out>
						<name>Call Up Cookie Monster</name>
						<media>
							<video>
								<track>
									<clipitem id="clipitem-277">
										<masterclipid>masterclip-151</masterclipid>
										<name>Call Up Cookie Monster</name>
										<rate>
											<timebase>30</timebase>
											<ntsc>FALSE</ntsc>
										</rate>
										<alphatype>straight</alphatype>
										<pixelaspectratio>square</pixelaspectratio>
										<anamorphic>FALSE</anamorphic>
										<file id="file-151">
											<name>EYECANDY_L3RD_JL_V03/EYECANDY_L3rd_JL_V04.aep</name>
											<pathurl>file://localhost/Volumes/ATM%201/EYE%20CANDY/Project%20Template/5_Assets/Eye%20Candy%20Mograph/EYECANDY_L3rd_JL_V04%20folder/EYECANDY_L3rd_JL_V04.aep</pathurl>
											<rate>
												<timebase>30</timebase>
												<ntsc>FALSE</ntsc>
											</rate>
											<duration>6300</duration>
											<timecode>
												<rate>
													<timebase>30</timebase>
													<ntsc>FALSE</ntsc>
												</rate>
												<string>00:00:00:00</string>
												<frame>0</frame>
												<displayformat>NDF</displayformat>
											</timecode>
											<media>
												<video>
													<samplecharacteristics>
														<rate>
															<timebase>30</timebase>
															<ntsc>FALSE</ntsc>
														</rate>
														<width>1920</width>
														<height>1080</height>
														<anamorphic>FALSE</anamorphic>
														<pixelaspectratio>square</pixelaspectratio>
														<fielddominance>lower</fielddominance>
													</samplecharacteristics>
												</video>
											</media>
										</file>
									</clipitem>
								</track>
							</video>
						</media>
						<logginginfo>
							<description></description>
							<scene></scene>
							<shottake></shottake>
							<lognote></lognote>
							<good></good>
							<originalvideofilename></originalvideofilename>
							<originalaudiofilename></originalaudiofilename>
						</logginginfo>
						<colorinfo>
							<lut></lut>
							<lut1></lut1>
							<asc_sop></asc_sop>
							<asc_sat></asc_sat>
							<lut2></lut2>
						</colorinfo>
						<labels>
						</labels>
					</clip>
					<clip id="masterclip-152" explodedTracks="true">
						<uuid>2acebe52-5166-40d3-b58b-e1bea0146a3f</uuid>
						<masterclipid>masterclip-152</masterclipid>
						<ismasterclip>TRUE</ismasterclip>
						<duration>6300</duration>
						<rate>
							<timebase>30</timebase>
							<ntsc>FALSE</ntsc>
						</rate>
						<out>166</out>
						<name>Perfect Plum Popsicles</name>
						<media>
							<video>
								<track>
									<clipitem id="clipitem-278">
										<masterclipid>masterclip-152</masterclipid>
										<name>Perfect Plum Popsicles</name>
										<rate>
											<timebase>30</timebase>
											<ntsc>FALSE</ntsc>
										</rate>
										<alphatype>straight</alphatype>
										<pixelaspectratio>square</pixelaspectratio>
										<anamorphic>FALSE</anamorphic>
										<file id="file-152">
											<name>EYECANDY_L3RD_JL_V03/EYECANDY_L3rd_JL_V04.aep</name>
											<pathurl>file://localhost/Volumes/ATM%201/EYE%20CANDY/Project%20Template/5_Assets/Eye%20Candy%20Mograph/EYECANDY_L3rd_JL_V04%20folder/EYECANDY_L3rd_JL_V04.aep</pathurl>
											<rate>
												<timebase>30</timebase>
												<ntsc>FALSE</ntsc>
											</rate>
											<duration>6300</duration>
											<timecode>
												<rate>
													<timebase>30</timebase>
													<ntsc>FALSE</ntsc>
												</rate>
												<string>00:00:00:00</string>
												<frame>0</frame>
												<displayformat>NDF</displayformat>
											</timecode>
											<media>
												<video>
													<samplecharacteristics>
														<rate>
															<timebase>30</timebase>
															<ntsc>FALSE</ntsc>
														</rate>
														<width>1920</width>
														<height>1080</height>
														<anamorphic>FALSE</anamorphic>
														<pixelaspectratio>square</pixelaspectratio>
														<fielddominance>lower</fielddominance>
													</samplecharacteristics>
												</video>
											</media>
										</file>
									</clipitem>
								</track>
							</video>
						</media>
						<logginginfo>
							<description></description>
							<scene></scene>
							<shottake></shottake>
							<lognote></lognote>
							<good></good>
							<originalvideofilename></originalvideofilename>
							<originalaudiofilename></originalaudiofilename>
						</logginginfo>
						<colorinfo>
							<lut></lut>
							<lut1></lut1>
							<asc_sop></asc_sop>
							<asc_sat></asc_sat>
							<lut2></lut2>
						</colorinfo>
						<labels>
						</labels>
					</clip>
					<clip id="masterclip-153" explodedTracks="true">
						<uuid>af57ffd8-a95c-4d46-8931-c7761020337c</uuid>
						<masterclipid>masterclip-153</masterclipid>
						<ismasterclip>TRUE</ismasterclip>
						<duration>6300</duration>
						<rate>
							<timebase>30</timebase>
							<ntsc>FALSE</ntsc>
						</rate>
						<out>166</out>
						<name>You're the Apple of My Eye</name>
						<media>
							<video>
								<track>
									<clipitem id="clipitem-279">
										<masterclipid>masterclip-153</masterclipid>
										<name>You're the Apple of My Eye</name>
										<rate>
											<timebase>30</timebase>
											<ntsc>FALSE</ntsc>
										</rate>
										<alphatype>straight</alphatype>
										<pixelaspectratio>square</pixelaspectratio>
										<anamorphic>FALSE</anamorphic>
										<file id="file-153">
											<name>EYECANDY_L3RD_JL_V03/EYECANDY_L3rd_JL_V04.aep</name>
											<pathurl>file://localhost/Volumes/ATM%201/EYE%20CANDY/Project%20Template/5_Assets/Eye%20Candy%20Mograph/EYECANDY_L3rd_JL_V04%20folder/EYECANDY_L3rd_JL_V04.aep</pathurl>
											<rate>
												<timebase>30</timebase>
												<ntsc>FALSE</ntsc>
											</rate>
											<duration>6300</duration>
											<timecode>
												<rate>
													<timebase>30</timebase>
													<ntsc>FALSE</ntsc>
												</rate>
												<string>00:00:00:00</string>
												<frame>0</frame>
												<displayformat>NDF</displayformat>
											</timecode>
											<media>
												<video>
													<samplecharacteristics>
														<rate>
															<timebase>30</timebase>
															<ntsc>FALSE</ntsc>
														</rate>
														<width>1920</width>
														<height>1080</height>
														<anamorphic>FALSE</anamorphic>
														<pixelaspectratio>square</pixelaspectratio>
														<fielddominance>lower</fielddominance>
													</samplecharacteristics>
												</video>
											</media>
										</file>
									</clipitem>
								</track>
							</video>
						</media>
						<logginginfo>
							<description></description>
							<scene></scene>
							<shottake></shottake>
							<lognote></lognote>
							<good></good>
							<originalvideofilename></originalvideofilename>
							<originalaudiofilename></originalaudiofilename>
						</logginginfo>
						<colorinfo>
							<lut></lut>
							<lut1></lut1>
							<asc_sop></asc_sop>
							<asc_sat></asc_sat>
							<lut2></lut2>
						</colorinfo>
						<labels>
						</labels>
					</clip>
					<clip id="masterclip-154" explodedTracks="true">
						<uuid>42b54340-57f3-4749-8ee7-3b8a41efc645</uuid>
						<masterclipid>masterclip-154</masterclipid>
						<ismasterclip>TRUE</ismasterclip>
						<duration>6300</duration>
						<rate>
							<timebase>30</timebase>
							<ntsc>FALSE</ntsc>
						</rate>
						<out>166</out>
						<name>The Chocolate Factor</name>
						<media>
							<video>
								<track>
									<clipitem id="clipitem-280">
										<masterclipid>masterclip-154</masterclipid>
										<name>The Chocolate Factor</name>
										<rate>
											<timebase>30</timebase>
											<ntsc>FALSE</ntsc>
										</rate>
										<alphatype>straight</alphatype>
										<pixelaspectratio>square</pixelaspectratio>
										<anamorphic>FALSE</anamorphic>
										<file id="file-154">
											<name>EYECANDY_L3RD_JL_V03/EYECANDY_L3rd_JL_V04.aep</name>
											<pathurl>file://localhost/Volumes/ATM%201/EYE%20CANDY/Project%20Template/5_Assets/Eye%20Candy%20Mograph/EYECANDY_L3rd_JL_V04%20folder/EYECANDY_L3rd_JL_V04.aep</pathurl>
											<rate>
												<timebase>30</timebase>
												<ntsc>FALSE</ntsc>
											</rate>
											<duration>6300</duration>
											<timecode>
												<rate>
													<timebase>30</timebase>
													<ntsc>FALSE</ntsc>
												</rate>
												<string>00:00:00:00</string>
												<frame>0</frame>
												<displayformat>NDF</displayformat>
											</timecode>
											<media>
												<video>
													<samplecharacteristics>
														<rate>
															<timebase>30</timebase>
															<ntsc>FALSE</ntsc>
														</rate>
														<width>1920</width>
														<height>1080</height>
														<anamorphic>FALSE</anamorphic>
														<pixelaspectratio>square</pixelaspectratio>
														<fielddominance>lower</fielddominance>
													</samplecharacteristics>
												</video>
											</media>
										</file>
									</clipitem>
								</track>
							</video>
						</media>
						<logginginfo>
							<description></description>
							<scene></scene>
							<shottake></shottake>
							<lognote></lognote>
							<good></good>
							<originalvideofilename></originalvideofilename>
							<originalaudiofilename></originalaudiofilename>
						</logginginfo>
						<colorinfo>
							<lut></lut>
							<lut1></lut1>
							<asc_sop></asc_sop>
							<asc_sat></asc_sat>
							<lut2></lut2>
						</colorinfo>
						<labels>
						</labels>
					</clip>
					<clip id="masterclip-155" explodedTracks="true">
						<uuid>817b75c2-97bc-438f-a194-681caa5a2067</uuid>
						<masterclipid>masterclip-155</masterclipid>
						<ismasterclip>TRUE</ismasterclip>
						<duration>6300</duration>
						<rate>
							<timebase>30</timebase>
							<ntsc>FALSE</ntsc>
						</rate>
						<out>166</out>
						<name>Dig In</name>
						<media>
							<video>
								<track>
									<clipitem id="clipitem-281">
										<masterclipid>masterclip-155</masterclipid>
										<name>Dig In</name>
										<rate>
											<timebase>30</timebase>
											<ntsc>FALSE</ntsc>
										</rate>
										<alphatype>straight</alphatype>
										<pixelaspectratio>square</pixelaspectratio>
										<anamorphic>FALSE</anamorphic>
										<file id="file-155">
											<name>EYECANDY_L3RD_JL_V03/EYECANDY_L3rd_JL_V04.aep</name>
											<pathurl>file://localhost/Volumes/ATM%201/EYE%20CANDY/Project%20Template/5_Assets/Eye%20Candy%20Mograph/EYECANDY_L3rd_JL_V04%20folder/EYECANDY_L3rd_JL_V04.aep</pathurl>
											<rate>
												<timebase>30</timebase>
												<ntsc>FALSE</ntsc>
											</rate>
											<duration>6300</duration>
											<timecode>
												<rate>
													<timebase>30</timebase>
													<ntsc>FALSE</ntsc>
												</rate>
												<string>00:00:00:00</string>
												<frame>0</frame>
												<displayformat>NDF</displayformat>
											</timecode>
											<media>
												<video>
													<samplecharacteristics>
														<rate>
															<timebase>30</timebase>
															<ntsc>FALSE</ntsc>
														</rate>
														<width>1920</width>
														<height>1080</height>
														<anamorphic>FALSE</anamorphic>
														<pixelaspectratio>square</pixelaspectratio>
														<fielddominance>lower</fielddominance>
													</samplecharacteristics>
												</video>
											</media>
										</file>
									</clipitem>
								</track>
							</video>
						</media>
						<logginginfo>
							<description></description>
							<scene></scene>
							<shottake></shottake>
							<lognote></lognote>
							<good></good>
							<originalvideofilename></originalvideofilename>
							<originalaudiofilename></originalaudiofilename>
						</logginginfo>
						<colorinfo>
							<lut></lut>
							<lut1></lut1>
							<asc_sop></asc_sop>
							<asc_sat></asc_sat>
							<lut2></lut2>
						</colorinfo>
						<labels>
						</labels>
					</clip>
					<clip id="masterclip-156" explodedTracks="true">
						<uuid>a51aa051-66cd-4177-899b-9c65c478644e</uuid>
						<masterclipid>masterclip-156</masterclipid>
						<ismasterclip>TRUE</ismasterclip>
						<duration>6300</duration>
						<rate>
							<timebase>30</timebase>
							<ntsc>FALSE</ntsc>
						</rate>
						<out>166</out>
						<name>Cake A Scene</name>
						<media>
							<video>
								<track>
									<clipitem id="clipitem-282">
										<masterclipid>masterclip-156</masterclipid>
										<name>Cake A Scene</name>
										<rate>
											<timebase>30</timebase>
											<ntsc>FALSE</ntsc>
										</rate>
										<alphatype>straight</alphatype>
										<pixelaspectratio>square</pixelaspectratio>
										<anamorphic>FALSE</anamorphic>
										<file id="file-156">
											<name>EYECANDY_L3RD_JL_V03/EYECANDY_L3rd_JL_V04.aep</name>
											<pathurl>file://localhost/Volumes/ATM%201/EYE%20CANDY/Project%20Template/5_Assets/Eye%20Candy%20Mograph/EYECANDY_L3rd_JL_V04%20folder/EYECANDY_L3rd_JL_V04.aep</pathurl>
											<rate>
												<timebase>30</timebase>
												<ntsc>FALSE</ntsc>
											</rate>
											<duration>6300</duration>
											<timecode>
												<rate>
													<timebase>30</timebase>
													<ntsc>FALSE</ntsc>
												</rate>
												<string>00:00:00:00</string>
												<frame>0</frame>
												<displayformat>NDF</displayformat>
											</timecode>
											<media>
												<video>
													<samplecharacteristics>
														<rate>
															<timebase>30</timebase>
															<ntsc>FALSE</ntsc>
														</rate>
														<width>1920</width>
														<height>1080</height>
														<anamorphic>FALSE</anamorphic>
														<pixelaspectratio>square</pixelaspectratio>
														<fielddominance>lower</fielddominance>
													</samplecharacteristics>
												</video>
											</media>
										</file>
									</clipitem>
								</track>
							</video>
						</media>
						<logginginfo>
							<description></description>
							<scene></scene>
							<shottake></shottake>
							<lognote></lognote>
							<good></good>
							<originalvideofilename></originalvideofilename>
							<originalaudiofilename></originalaudiofilename>
						</logginginfo>
						<colorinfo>
							<lut></lut>
							<lut1></lut1>
							<asc_sop></asc_sop>
							<asc_sat></asc_sat>
							<lut2></lut2>
						</colorinfo>
						<labels>
						</labels>
					</clip>
					<clip id="masterclip-157" explodedTracks="true">
						<uuid>d0851baa-0ba6-44df-a541-fc555a07bed6</uuid>
						<masterclipid>masterclip-157</masterclipid>
						<ismasterclip>TRUE</ismasterclip>
						<duration>6300</duration>
						<rate>
							<timebase>30</timebase>
							<ntsc>FALSE</ntsc>
						</rate>
						<out>166</out>
						<name>Spider-Man: Treats From Home</name>
						<media>
							<video>
								<track>
									<clipitem id="clipitem-283">
										<masterclipid>masterclip-157</masterclipid>
										<name>Spider-Man: Treats From Home</name>
										<rate>
											<timebase>30</timebase>
											<ntsc>FALSE</ntsc>
										</rate>
										<alphatype>straight</alphatype>
										<pixelaspectratio>square</pixelaspectratio>
										<anamorphic>FALSE</anamorphic>
										<file id="file-157">
											<name>EYECANDY_L3RD_JL_V03/EYECANDY_L3rd_JL_V04.aep</name>
											<pathurl>file://localhost/Volumes/ATM%201/EYE%20CANDY/Project%20Template/5_Assets/Eye%20Candy%20Mograph/EYECANDY_L3rd_JL_V04%20folder/EYECANDY_L3rd_JL_V04.aep</pathurl>
											<rate>
												<timebase>30</timebase>
												<ntsc>FALSE</ntsc>
											</rate>
											<duration>6300</duration>
											<timecode>
												<rate>
													<timebase>30</timebase>
													<ntsc>FALSE</ntsc>
												</rate>
												<string>00:00:00:00</string>
												<frame>0</frame>
												<displayformat>NDF</displayformat>
											</timecode>
											<media>
												<video>
													<samplecharacteristics>
														<rate>
															<timebase>30</timebase>
															<ntsc>FALSE</ntsc>
														</rate>
														<width>1920</width>
														<height>1080</height>
														<anamorphic>FALSE</anamorphic>
														<pixelaspectratio>square</pixelaspectratio>
														<fielddominance>lower</fielddominance>
													</samplecharacteristics>
												</video>
											</media>
										</file>
									</clipitem>
								</track>
							</video>
						</media>
						<logginginfo>
							<description></description>
							<scene></scene>
							<shottake></shottake>
							<lognote></lognote>
							<good></good>
							<originalvideofilename></originalvideofilename>
							<originalaudiofilename></originalaudiofilename>
						</logginginfo>
						<colorinfo>
							<lut></lut>
							<lut1></lut1>
							<asc_sop></asc_sop>
							<asc_sat></asc_sat>
							<lut2></lut2>
						</colorinfo>
						<labels>
						</labels>
					</clip>
					<clip id="masterclip-158" explodedTracks="true">
						<uuid>27f7bf3e-d41c-48e7-9277-3b71904275e5</uuid>
						<masterclipid>masterclip-158</masterclipid>
						<ismasterclip>TRUE</ismasterclip>
						<duration>6300</duration>
						<rate>
							<timebase>30</timebase>
							<ntsc>FALSE</ntsc>
						</rate>
						<out>166</out>
						<name>A Delicious Pear-ing</name>
						<media>
							<video>
								<track>
									<clipitem id="clipitem-284">
										<masterclipid>masterclip-158</masterclipid>
										<name>A Delicious Pear-ing</name>
										<rate>
											<timebase>30</timebase>
											<ntsc>FALSE</ntsc>
										</rate>
										<alphatype>straight</alphatype>
										<pixelaspectratio>square</pixelaspectratio>
										<anamorphic>FALSE</anamorphic>
										<file id="file-158">
											<name>EYECANDY_L3RD_JL_V03/EYECANDY_L3rd_JL_V04.aep</name>
											<pathurl>file://localhost/Volumes/ATM%201/EYE%20CANDY/Project%20Template/5_Assets/Eye%20Candy%20Mograph/EYECANDY_L3rd_JL_V04%20folder/EYECANDY_L3rd_JL_V04.aep</pathurl>
											<rate>
												<timebase>30</timebase>
												<ntsc>FALSE</ntsc>
											</rate>
											<duration>6300</duration>
											<timecode>
												<rate>
													<timebase>30</timebase>
													<ntsc>FALSE</ntsc>
												</rate>
												<string>00:00:00:00</string>
												<frame>0</frame>
												<displayformat>NDF</displayformat>
											</timecode>
											<media>
												<video>
													<samplecharacteristics>
														<rate>
															<timebase>30</timebase>
															<ntsc>FALSE</ntsc>
														</rate>
														<width>1920</width>
														<height>1080</height>
														<anamorphic>FALSE</anamorphic>
														<pixelaspectratio>square</pixelaspectratio>
														<fielddominance>lower</fielddominance>
													</samplecharacteristics>
												</video>
											</media>
										</file>
									</clipitem>
								</track>
							</video>
						</media>
						<logginginfo>
							<description></description>
							<scene></scene>
							<shottake></shottake>
							<lognote></lognote>
							<good></good>
							<originalvideofilename></originalvideofilename>
							<originalaudiofilename></originalaudiofilename>
						</logginginfo>
						<colorinfo>
							<lut></lut>
							<lut1></lut1>
							<asc_sop></asc_sop>
							<asc_sat></asc_sat>
							<lut2></lut2>
						</colorinfo>
						<labels>
						</labels>
					</clip>
					<clip id="masterclip-159" explodedTracks="true">
						<uuid>fb15cf25-e647-435b-b056-46b85638d817</uuid>
						<masterclipid>masterclip-159</masterclipid>
						<ismasterclip>TRUE</ismasterclip>
						<duration>6300</duration>
						<rate>
							<timebase>30</timebase>
							<ntsc>FALSE</ntsc>
						</rate>
						<out>166</out>
						<name>Beautiful Brittle</name>
						<media>
							<video>
								<track>
									<clipitem id="clipitem-285">
										<masterclipid>masterclip-159</masterclipid>
										<name>Beautiful Brittle</name>
										<rate>
											<timebase>30</timebase>
											<ntsc>FALSE</ntsc>
										</rate>
										<alphatype>straight</alphatype>
										<pixelaspectratio>square</pixelaspectratio>
										<anamorphic>FALSE</anamorphic>
										<file id="file-159">
											<name>EYECANDY_L3RD_JL_V03/EYECANDY_L3rd_JL_V04.aep</name>
											<pathurl>file://localhost/Volumes/ATM%201/EYE%20CANDY/Project%20Template/5_Assets/Eye%20Candy%20Mograph/EYECANDY_L3rd_JL_V04%20folder/EYECANDY_L3rd_JL_V04.aep</pathurl>
											<rate>
												<timebase>30</timebase>
												<ntsc>FALSE</ntsc>
											</rate>
											<duration>6300</duration>
											<timecode>
												<rate>
													<timebase>30</timebase>
													<ntsc>FALSE</ntsc>
												</rate>
												<string>00:00:00:00</string>
												<frame>0</frame>
												<displayformat>NDF</displayformat>
											</timecode>
											<media>
												<video>
													<samplecharacteristics>
														<rate>
															<timebase>30</timebase>
															<ntsc>FALSE</ntsc>
														</rate>
														<width>1920</width>
														<height>1080</height>
														<anamorphic>FALSE</anamorphic>
														<pixelaspectratio>square</pixelaspectratio>
														<fielddominance>lower</fielddominance>
													</samplecharacteristics>
												</video>
											</media>
										</file>
									</clipitem>
								</track>
							</video>
						</media>
						<logginginfo>
							<description></description>
							<scene></scene>
							<shottake></shottake>
							<lognote></lognote>
							<good></good>
							<originalvideofilename></originalvideofilename>
							<originalaudiofilename></originalaudiofilename>
						</logginginfo>
						<colorinfo>
							<lut></lut>
							<lut1></lut1>
							<asc_sop></asc_sop>
							<asc_sat></asc_sat>
							<lut2></lut2>
						</colorinfo>
						<labels>
						</labels>
					</clip>
					<clip id="masterclip-160" explodedTracks="true">
						<uuid>275fd29a-b31c-4e3e-842b-f07636b17dc5</uuid>
						<masterclipid>masterclip-160</masterclipid>
						<ismasterclip>TRUE</ismasterclip>
						<duration>6300</duration>
						<rate>
							<timebase>30</timebase>
							<ntsc>FALSE</ntsc>
						</rate>
						<out>166</out>
						<name>Mint Chocolate Chip Bliss</name>
						<media>
							<video>
								<track>
									<clipitem id="clipitem-286">
										<masterclipid>masterclip-160</masterclipid>
										<name>Mint Chocolate Chip Bliss</name>
										<rate>
											<timebase>30</timebase>
											<ntsc>FALSE</ntsc>
										</rate>
										<alphatype>straight</alphatype>
										<pixelaspectratio>square</pixelaspectratio>
										<anamorphic>FALSE</anamorphic>
										<file id="file-160">
											<name>EYECANDY_L3RD_JL_V03/EYECANDY_L3rd_JL_V04.aep</name>
											<pathurl>file://localhost/Volumes/ATM%201/EYE%20CANDY/Project%20Template/5_Assets/Eye%20Candy%20Mograph/EYECANDY_L3rd_JL_V04%20folder/EYECANDY_L3rd_JL_V04.aep</pathurl>
											<rate>
												<timebase>30</timebase>
												<ntsc>FALSE</ntsc>
											</rate>
											<duration>6300</duration>
											<timecode>
												<rate>
													<timebase>30</timebase>
													<ntsc>FALSE</ntsc>
												</rate>
												<string>00:00:00:00</string>
												<frame>0</frame>
												<displayformat>NDF</displayformat>
											</timecode>
											<media>
												<video>
													<samplecharacteristics>
														<rate>
															<timebase>30</timebase>
															<ntsc>FALSE</ntsc>
														</rate>
														<width>1920</width>
														<height>1080</height>
														<anamorphic>FALSE</anamorphic>
														<pixelaspectratio>square</pixelaspectratio>
														<fielddominance>lower</fielddominance>
													</samplecharacteristics>
												</video>
											</media>
										</file>
									</clipitem>
								</track>
							</video>
						</media>
						<logginginfo>
							<description></description>
							<scene></scene>
							<shottake></shottake>
							<lognote></lognote>
							<good></good>
							<originalvideofilename></originalvideofilename>
							<originalaudiofilename></originalaudiofilename>
						</logginginfo>
						<colorinfo>
							<lut></lut>
							<lut1></lut1>
							<asc_sop></asc_sop>
							<asc_sat></asc_sat>
							<lut2></lut2>
						</colorinfo>
						<labels>
						</labels>
					</clip>
					<clip id="masterclip-161" explodedTracks="true">
						<uuid>db7fec7a-d322-4b87-b000-8e97a5d3c7d3</uuid>
						<masterclipid>masterclip-161</masterclipid>
						<ismasterclip>TRUE</ismasterclip>
						<duration>6300</duration>
						<rate>
							<timebase>30</timebase>
							<ntsc>FALSE</ntsc>
						</rate>
						<out>166</out>
						<name>Cookie Cups of Fun</name>
						<media>
							<video>
								<track>
									<clipitem id="clipitem-287">
										<masterclipid>masterclip-161</masterclipid>
										<name>Cookie Cups of Fun</name>
										<rate>
											<timebase>30</timebase>
											<ntsc>FALSE</ntsc>
										</rate>
										<alphatype>straight</alphatype>
										<pixelaspectratio>square</pixelaspectratio>
										<anamorphic>FALSE</anamorphic>
										<file id="file-161">
											<name>EYECANDY_L3RD_JL_V03/EYECANDY_L3rd_JL_V04.aep</name>
											<pathurl>file://localhost/Volumes/ATM%201/EYE%20CANDY/Project%20Template/5_Assets/Eye%20Candy%20Mograph/EYECANDY_L3rd_JL_V04%20folder/EYECANDY_L3rd_JL_V04.aep</pathurl>
											<rate>
												<timebase>30</timebase>
												<ntsc>FALSE</ntsc>
											</rate>
											<duration>6300</duration>
											<timecode>
												<rate>
													<timebase>30</timebase>
													<ntsc>FALSE</ntsc>
												</rate>
												<string>00:00:00:00</string>
												<frame>0</frame>
												<displayformat>NDF</displayformat>
											</timecode>
											<media>
												<video>
													<samplecharacteristics>
														<rate>
															<timebase>30</timebase>
															<ntsc>FALSE</ntsc>
														</rate>
														<width>1920</width>
														<height>1080</height>
														<anamorphic>FALSE</anamorphic>
														<pixelaspectratio>square</pixelaspectratio>
														<fielddominance>lower</fielddominance>
													</samplecharacteristics>
												</video>
											</media>
										</file>
									</clipitem>
								</track>
							</video>
						</media>
						<logginginfo>
							<description></description>
							<scene></scene>
							<shottake></shottake>
							<lognote></lognote>
							<good></good>
							<originalvideofilename></originalvideofilename>
							<originalaudiofilename></originalaudiofilename>
						</logginginfo>
						<colorinfo>
							<lut></lut>
							<lut1></lut1>
							<asc_sop></asc_sop>
							<asc_sat></asc_sat>
							<lut2></lut2>
						</colorinfo>
						<labels>
						</labels>
					</clip>
					<clip id="masterclip-162" explodedTracks="true">
						<uuid>be72b54b-c766-4d05-b9df-bcc7880c856c</uuid>
						<masterclipid>masterclip-162</masterclipid>
						<ismasterclip>TRUE</ismasterclip>
						<duration>6300</duration>
						<rate>
							<timebase>30</timebase>
							<ntsc>FALSE</ntsc>
						</rate>
						<out>166</out>
						<name>I'm Flipping Out</name>
						<media>
							<video>
								<track>
									<clipitem id="clipitem-288">
										<masterclipid>masterclip-162</masterclipid>
										<name>I'm Flipping Out</name>
										<rate>
											<timebase>30</timebase>
											<ntsc>FALSE</ntsc>
										</rate>
										<alphatype>straight</alphatype>
										<pixelaspectratio>square</pixelaspectratio>
										<anamorphic>FALSE</anamorphic>
										<file id="file-162">
											<name>EYECANDY_L3RD_JL_V03/EYECANDY_L3rd_JL_V04.aep</name>
											<pathurl>file://localhost/Volumes/ATM%201/EYE%20CANDY/Project%20Template/5_Assets/Eye%20Candy%20Mograph/EYECANDY_L3rd_JL_V04%20folder/EYECANDY_L3rd_JL_V04.aep</pathurl>
											<rate>
												<timebase>30</timebase>
												<ntsc>FALSE</ntsc>
											</rate>
											<duration>6300</duration>
											<timecode>
												<rate>
													<timebase>30</timebase>
													<ntsc>FALSE</ntsc>
												</rate>
												<string>00:00:00:00</string>
												<frame>0</frame>
												<displayformat>NDF</displayformat>
											</timecode>
											<media>
												<video>
													<samplecharacteristics>
														<rate>
															<timebase>30</timebase>
															<ntsc>FALSE</ntsc>
														</rate>
														<width>1920</width>
														<height>1080</height>
														<anamorphic>FALSE</anamorphic>
														<pixelaspectratio>square</pixelaspectratio>
														<fielddominance>lower</fielddominance>
													</samplecharacteristics>
												</video>
											</media>
										</file>
									</clipitem>
								</track>
							</video>
						</media>
						<logginginfo>
							<description></description>
							<scene></scene>
							<shottake></shottake>
							<lognote></lognote>
							<good></good>
							<originalvideofilename></originalvideofilename>
							<originalaudiofilename></originalaudiofilename>
						</logginginfo>
						<colorinfo>
							<lut></lut>
							<lut1></lut1>
							<asc_sop></asc_sop>
							<asc_sat></asc_sat>
							<lut2></lut2>
						</colorinfo>
						<labels>
						</labels>
					</clip>
					<clip id="masterclip-163" explodedTracks="true">
						<uuid>9121e2fa-529e-46ae-9fd8-3de555e0b941</uuid>
						<masterclipid>masterclip-163</masterclipid>
						<ismasterclip>TRUE</ismasterclip>
						<duration>6300</duration>
						<rate>
							<timebase>30</timebase>
							<ntsc>FALSE</ntsc>
						</rate>
						<out>166</out>
						<name>"Blood Orange"? It's Red.</name>
						<media>
							<video>
								<track>
									<clipitem id="clipitem-289">
										<masterclipid>masterclip-163</masterclipid>
										<name>"Blood Orange"? It's Red.</name>
										<rate>
											<timebase>30</timebase>
											<ntsc>FALSE</ntsc>
										</rate>
										<alphatype>straight</alphatype>
										<pixelaspectratio>square</pixelaspectratio>
										<anamorphic>FALSE</anamorphic>
										<file id="file-163">
											<name>EYECANDY_L3RD_JL_V03/EYECANDY_L3rd_JL_V04.aep</name>
											<pathurl>file://localhost/Volumes/ATM%201/EYE%20CANDY/Project%20Template/5_Assets/Eye%20Candy%20Mograph/EYECANDY_L3rd_JL_V04%20folder/EYECANDY_L3rd_JL_V04.aep</pathurl>
											<rate>
												<timebase>30</timebase>
												<ntsc>FALSE</ntsc>
											</rate>
											<duration>6300</duration>
											<timecode>
												<rate>
													<timebase>30</timebase>
													<ntsc>FALSE</ntsc>
												</rate>
												<string>00:00:00:00</string>
												<frame>0</frame>
												<displayformat>NDF</displayformat>
											</timecode>
											<media>
												<video>
													<samplecharacteristics>
														<rate>
															<timebase>30</timebase>
															<ntsc>FALSE</ntsc>
														</rate>
														<width>1920</width>
														<height>1080</height>
														<anamorphic>FALSE</anamorphic>
														<pixelaspectratio>square</pixelaspectratio>
														<fielddominance>lower</fielddominance>
													</samplecharacteristics>
												</video>
											</media>
										</file>
									</clipitem>
								</track>
							</video>
						</media>
						<logginginfo>
							<description></description>
							<scene></scene>
							<shottake></shottake>
							<lognote></lognote>
							<good></good>
							<originalvideofilename></originalvideofilename>
							<originalaudiofilename></originalaudiofilename>
						</logginginfo>
						<colorinfo>
							<lut></lut>
							<lut1></lut1>
							<asc_sop></asc_sop>
							<asc_sat></asc_sat>
							<lut2></lut2>
						</colorinfo>
						<labels>
						</labels>
					</clip>
					<clip id="masterclip-164" explodedTracks="true">
						<uuid>016506dd-cd48-4a50-8dbf-07ef26dde7d1</uuid>
						<masterclipid>masterclip-164</masterclipid>
						<ismasterclip>TRUE</ismasterclip>
						<duration>6300</duration>
						<rate>
							<timebase>30</timebase>
							<ntsc>FALSE</ntsc>
						</rate>
						<out>166</out>
						<name>Groovy Smoothie</name>
						<media>
							<video>
								<track>
									<clipitem id="clipitem-290">
										<masterclipid>masterclip-164</masterclipid>
										<name>Groovy Smoothie</name>
										<rate>
											<timebase>30</timebase>
											<ntsc>FALSE</ntsc>
										</rate>
										<alphatype>straight</alphatype>
										<pixelaspectratio>square</pixelaspectratio>
										<anamorphic>FALSE</anamorphic>
										<file id="file-164">
											<name>EYECANDY_L3RD_JL_V03/EYECANDY_L3rd_JL_V04.aep</name>
											<pathurl>file://localhost/Volumes/ATM%201/EYE%20CANDY/Project%20Template/5_Assets/Eye%20Candy%20Mograph/EYECANDY_L3rd_JL_V04%20folder/EYECANDY_L3rd_JL_V04.aep</pathurl>
											<rate>
												<timebase>30</timebase>
												<ntsc>FALSE</ntsc>
											</rate>
											<duration>6300</duration>
											<timecode>
												<rate>
													<timebase>30</timebase>
													<ntsc>FALSE</ntsc>
												</rate>
												<string>00:00:00:00</string>
												<frame>0</frame>
												<displayformat>NDF</displayformat>
											</timecode>
											<media>
												<video>
													<samplecharacteristics>
														<rate>
															<timebase>30</timebase>
															<ntsc>FALSE</ntsc>
														</rate>
														<width>1920</width>
														<height>1080</height>
														<anamorphic>FALSE</anamorphic>
														<pixelaspectratio>square</pixelaspectratio>
														<fielddominance>lower</fielddominance>
													</samplecharacteristics>
												</video>
											</media>
										</file>
									</clipitem>
								</track>
							</video>
						</media>
						<logginginfo>
							<description></description>
							<scene></scene>
							<shottake></shottake>
							<lognote></lognote>
							<good></good>
							<originalvideofilename></originalvideofilename>
							<originalaudiofilename></originalaudiofilename>
						</logginginfo>
						<colorinfo>
							<lut></lut>
							<lut1></lut1>
							<asc_sop></asc_sop>
							<asc_sat></asc_sat>
							<lut2></lut2>
						</colorinfo>
						<labels>
						</labels>
					</clip>
					<clip id="masterclip-165" explodedTracks="true">
						<uuid>1337f579-afff-45ed-9197-f970e36aeab0</uuid>
						<masterclipid>masterclip-165</masterclipid>
						<ismasterclip>TRUE</ismasterclip>
						<duration>6300</duration>
						<rate>
							<timebase>30</timebase>
							<ntsc>FALSE</ntsc>
						</rate>
						<out>166</out>
						<name>Mmmmm, Molasses</name>
						<media>
							<video>
								<track>
									<clipitem id="clipitem-291">
										<masterclipid>masterclip-165</masterclipid>
										<name>Mmmmm, Molasses</name>
										<rate>
											<timebase>30</timebase>
											<ntsc>FALSE</ntsc>
										</rate>
										<alphatype>straight</alphatype>
										<pixelaspectratio>square</pixelaspectratio>
										<anamorphic>FALSE</anamorphic>
										<file id="file-165">
											<name>EYECANDY_L3RD_JL_V03/EYECANDY_L3rd_JL_V04.aep</name>
											<pathurl>file://localhost/Volumes/ATM%201/EYE%20CANDY/Project%20Template/5_Assets/Eye%20Candy%20Mograph/EYECANDY_L3rd_JL_V04%20folder/EYECANDY_L3rd_JL_V04.aep</pathurl>
											<rate>
												<timebase>30</timebase>
												<ntsc>FALSE</ntsc>
											</rate>
											<duration>6300</duration>
											<timecode>
												<rate>
													<timebase>30</timebase>
													<ntsc>FALSE</ntsc>
												</rate>
												<string>00:00:00:00</string>
												<frame>0</frame>
												<displayformat>NDF</displayformat>
											</timecode>
											<media>
												<video>
													<samplecharacteristics>
														<rate>
															<timebase>30</timebase>
															<ntsc>FALSE</ntsc>
														</rate>
														<width>1920</width>
														<height>1080</height>
														<anamorphic>FALSE</anamorphic>
														<pixelaspectratio>square</pixelaspectratio>
														<fielddominance>lower</fielddominance>
													</samplecharacteristics>
												</video>
											</media>
										</file>
									</clipitem>
								</track>
							</video>
						</media>
						<logginginfo>
							<description></description>
							<scene></scene>
							<shottake></shottake>
							<lognote></lognote>
							<good></good>
							<originalvideofilename></originalvideofilename>
							<originalaudiofilename></originalaudiofilename>
						</logginginfo>
						<colorinfo>
							<lut></lut>
							<lut1></lut1>
							<asc_sop></asc_sop>
							<asc_sat></asc_sat>
							<lut2></lut2>
						</colorinfo>
						<labels>
						</labels>
					</clip>
					<clip id="masterclip-166" explodedTracks="true">
						<uuid>69fa7a80-4ff5-4e0f-a6ea-d0ded1dfbef1</uuid>
						<masterclipid>masterclip-166</masterclipid>
						<ismasterclip>TRUE</ismasterclip>
						<duration>6300</duration>
						<rate>
							<timebase>30</timebase>
							<ntsc>FALSE</ntsc>
						</rate>
						<out>166</out>
						<name>You're Driving Me Peanuts</name>
						<media>
							<video>
								<track>
									<clipitem id="clipitem-292">
										<masterclipid>masterclip-166</masterclipid>
										<name>You're Driving Me Peanuts</name>
										<rate>
											<timebase>30</timebase>
											<ntsc>FALSE</ntsc>
										</rate>
										<alphatype>straight</alphatype>
										<pixelaspectratio>square</pixelaspectratio>
										<anamorphic>FALSE</anamorphic>
										<file id="file-166">
											<name>EYECANDY_L3RD_JL_V03/EYECANDY_L3rd_JL_V04.aep</name>
											<pathurl>file://localhost/Volumes/ATM%201/EYE%20CANDY/Project%20Template/5_Assets/Eye%20Candy%20Mograph/EYECANDY_L3rd_JL_V04%20folder/EYECANDY_L3rd_JL_V04.aep</pathurl>
											<rate>
												<timebase>30</timebase>
												<ntsc>FALSE</ntsc>
											</rate>
											<duration>6300</duration>
											<timecode>
												<rate>
													<timebase>30</timebase>
													<ntsc>FALSE</ntsc>
												</rate>
												<string>00:00:00:00</string>
												<frame>0</frame>
												<displayformat>NDF</displayformat>
											</timecode>
											<media>
												<video>
													<samplecharacteristics>
														<rate>
															<timebase>30</timebase>
															<ntsc>FALSE</ntsc>
														</rate>
														<width>1920</width>
														<height>1080</height>
														<anamorphic>FALSE</anamorphic>
														<pixelaspectratio>square</pixelaspectratio>
														<fielddominance>lower</fielddominance>
													</samplecharacteristics>
												</video>
											</media>
										</file>
									</clipitem>
								</track>
							</video>
						</media>
						<logginginfo>
							<description></description>
							<scene></scene>
							<shottake></shottake>
							<lognote></lognote>
							<good></good>
							<originalvideofilename></originalvideofilename>
							<originalaudiofilename></originalaudiofilename>
						</logginginfo>
						<colorinfo>
							<lut></lut>
							<lut1></lut1>
							<asc_sop></asc_sop>
							<asc_sat></asc_sat>
							<lut2></lut2>
						</colorinfo>
						<labels>
						</labels>
					</clip>
					<clip id="masterclip-167" explodedTracks="true">
						<uuid>69f54d3e-01ba-47e5-84a1-ffbd5a3e4981</uuid>
						<masterclipid>masterclip-167</masterclipid>
						<ismasterclip>TRUE</ismasterclip>
						<duration>6300</duration>
						<rate>
							<timebase>30</timebase>
							<ntsc>FALSE</ntsc>
						</rate>
						<out>166</out>
						<name>Cherry Picked</name>
						<media>
							<video>
								<track>
									<clipitem id="clipitem-293">
										<masterclipid>masterclip-167</masterclipid>
										<name>Cherry Picked</name>
										<rate>
											<timebase>30</timebase>
											<ntsc>FALSE</ntsc>
										</rate>
										<alphatype>straight</alphatype>
										<pixelaspectratio>square</pixelaspectratio>
										<anamorphic>FALSE</anamorphic>
										<file id="file-167">
											<name>EYECANDY_L3RD_JL_V03/EYECANDY_L3rd_JL_V04.aep</name>
											<pathurl>file://localhost/Volumes/ATM%201/EYE%20CANDY/Project%20Template/5_Assets/Eye%20Candy%20Mograph/EYECANDY_L3rd_JL_V04%20folder/EYECANDY_L3rd_JL_V04.aep</pathurl>
											<rate>
												<timebase>30</timebase>
												<ntsc>FALSE</ntsc>
											</rate>
											<duration>6300</duration>
											<timecode>
												<rate>
													<timebase>30</timebase>
													<ntsc>FALSE</ntsc>
												</rate>
												<string>00:00:00:00</string>
												<frame>0</frame>
												<displayformat>NDF</displayformat>
											</timecode>
											<media>
												<video>
													<samplecharacteristics>
														<rate>
															<timebase>30</timebase>
															<ntsc>FALSE</ntsc>
														</rate>
														<width>1920</width>
														<height>1080</height>
														<anamorphic>FALSE</anamorphic>
														<pixelaspectratio>square</pixelaspectratio>
														<fielddominance>lower</fielddominance>
													</samplecharacteristics>
												</video>
											</media>
										</file>
									</clipitem>
								</track>
							</video>
						</media>
						<logginginfo>
							<description></description>
							<scene></scene>
							<shottake></shottake>
							<lognote></lognote>
							<good></good>
							<originalvideofilename></originalvideofilename>
							<originalaudiofilename></originalaudiofilename>
						</logginginfo>
						<colorinfo>
							<lut></lut>
							<lut1></lut1>
							<asc_sop></asc_sop>
							<asc_sat></asc_sat>
							<lut2></lut2>
						</colorinfo>
						<labels>
						</labels>
					</clip>
					<clip id="masterclip-168" explodedTracks="true">
						<uuid>15fc9124-be4e-437f-9737-4a49fe31cc98</uuid>
						<masterclipid>masterclip-168</masterclipid>
						<ismasterclip>TRUE</ismasterclip>
						<duration>6300</duration>
						<rate>
							<timebase>30</timebase>
							<ntsc>FALSE</ntsc>
						</rate>
						<out>166</out>
						<name>Ran Upstairs and Kissed Nutella</name>
						<media>
							<video>
								<track>
									<clipitem id="clipitem-294">
										<masterclipid>masterclip-168</masterclipid>
										<name>Ran Upstairs and Kissed Nutella</name>
										<rate>
											<timebase>30</timebase>
											<ntsc>FALSE</ntsc>
										</rate>
										<alphatype>straight</alphatype>
										<pixelaspectratio>square</pixelaspectratio>
										<anamorphic>FALSE</anamorphic>
										<file id="file-168">
											<name>EYECANDY_L3RD_JL_V03/EYECANDY_L3rd_JL_V04.aep</name>
											<pathurl>file://localhost/Volumes/ATM%201/EYE%20CANDY/Project%20Template/5_Assets/Eye%20Candy%20Mograph/EYECANDY_L3rd_JL_V04%20folder/EYECANDY_L3rd_JL_V04.aep</pathurl>
											<rate>
												<timebase>30</timebase>
												<ntsc>FALSE</ntsc>
											</rate>
											<duration>6300</duration>
											<timecode>
												<rate>
													<timebase>30</timebase>
													<ntsc>FALSE</ntsc>
												</rate>
												<string>00:00:00:00</string>
												<frame>0</frame>
												<displayformat>NDF</displayformat>
											</timecode>
											<media>
												<video>
													<samplecharacteristics>
														<rate>
															<timebase>30</timebase>
															<ntsc>FALSE</ntsc>
														</rate>
														<width>1920</width>
														<height>1080</height>
														<anamorphic>FALSE</anamorphic>
														<pixelaspectratio>square</pixelaspectratio>
														<fielddominance>lower</fielddominance>
													</samplecharacteristics>
												</video>
											</media>
										</file>
									</clipitem>
								</track>
							</video>
						</media>
						<logginginfo>
							<description></description>
							<scene></scene>
							<shottake></shottake>
							<lognote></lognote>
							<good></good>
							<originalvideofilename></originalvideofilename>
							<originalaudiofilename></originalaudiofilename>
						</logginginfo>
						<colorinfo>
							<lut></lut>
							<lut1></lut1>
							<asc_sop></asc_sop>
							<asc_sat></asc_sat>
							<lut2></lut2>
						</colorinfo>
						<labels>
						</labels>
					</clip>
				</children>
			</bin>
			<bin>
				<name>3_Nest Sequences</name>
				<labels>
					<label2>Mango</label2>
				</labels>
				<children>
					<sequence id="sequence-1" TL.SQAudioVisibleBase="0" TL.SQVideoVisibleBase="0" TL.SQVisibleBaseTime="0" TL.SQAVDividerPosition="0.5" TL.SQHideShyTracks="0" TL.SQHeaderWidth="236" TL.SQDataTrackViewControlState="0" Monitor.ProgramZoomOut="15171444288000" Monitor.ProgramZoomIn="0" TL.SQTimePerPixel="0.072184793070250677" AM.TrackVScrollPosition="0" AM.TrackScrollPosition="0" MZ.EditLine="6695777088000" MZ.Sequence.PreviewFrameSizeHeight="1080" MZ.Sequence.PreviewFrameSizeWidth="1920" MZ.Sequence.AudioTimeDisplayFormat="200" MZ.Sequence.PreviewRenderingClassID="1061109567" MZ.Sequence.PreviewRenderingPresetCodec="1634755443" MZ.Sequence.PreviewRenderingPresetPath="EncoderPresets/SequencePreview/35d109db-457b-43c1-9452-9cb7be9f121c/QuickTime.epr" MZ.Sequence.PreviewUseMaxRenderQuality="false" MZ.Sequence.PreviewUseMaxBitDepth="false" MZ.Sequence.EditingModeGUID="35d109db-457b-43c1-9452-9cb7be9f121c" MZ.Sequence.VideoTimeDisplayFormat="102" MZ.WorkOutPoint="1262874412800" MZ.WorkInPoint="0" explodedTracks="true">
						<uuid>f7d26d3e-6c74-4946-a335-8c503fa7c34a</uuid>
						<duration>1790</duration>
						<rate>
							<timebase>30</timebase>
							<ntsc>TRUE</ntsc>
						</rate>
						<out>1790</out>
						<name>FND_Perfect Plum Popsicles_1</name>
						<media>
							<video>
								<format>
									<samplecharacteristics>
										<rate>
											<timebase>30</timebase>
											<ntsc>TRUE</ntsc>
										</rate>
										<codec>
											<name>Apple ProRes 422</name>
											<appspecificdata>
												<appname>Final Cut Pro</appname>
												<appmanufacturer>Apple Inc.</appmanufacturer>
												<appversion>7.0</appversion>
												<data>
													<qtcodec>
														<codecname>Apple ProRes 422</codecname>
														<codectypename>Apple ProRes 422</codectypename>
														<codectypecode>apcn</codectypecode>
														<codecvendorcode>appl</codecvendorcode>
														<spatialquality>1024</spatialquality>
														<temporalquality>0</temporalquality>
														<keyframerate>0</keyframerate>
														<datarate>0</datarate>
													</qtcodec>
												</data>
											</appspecificdata>
										</codec>
										<width>1920</width>
										<height>1080</height>
										<anamorphic>FALSE</anamorphic>
										<pixelaspectratio>square</pixelaspectratio>
										<fielddominance>none</fielddominance>
										<colordepth>24</colordepth>
									</samplecharacteristics>
								</format>
								<track TL.SQTrackShy="0" TL.SQTrackExpandedHeight="25" TL.SQTrackExpanded="0" MZ.TrackTargeted="1">
									<clipitem id="clipitem-295">
										<masterclipid>masterclip-1</masterclipid>
										<name>(Candid Treat)_Jamun Yogurt Popsicle _ Healthy Popsicle Recipe _ Java Plum Yogurt Popsicle _ Ice cream Recipe_sB5KCyHq9WI_YT.mp4</name>
										<enabled>TRUE</enabled>
										<duration>3862</duration>
										<rate>
											<timebase>30</timebase>
											<ntsc>TRUE</ntsc>
										</rate>
										<start>0</start>
										<end>66</end>
										<in>285</in>
										<out>351</out>
										<pproTicksIn>2415565152000</pproTicksIn>
										<pproTicksOut>2974959187200</pproTicksOut>
										<alphatype>none</alphatype>
										<file id="file-1"/>
										<logginginfo>
											<description>Jamun Yogurt Popsicle | Healthy Popsicle Recipe | Java Plum Yogurt Popsicle | Ice cream Recipe</description>
											<scene></scene>
											<shottake></shottake>
											<lognote>https://www.youtube.com/watch?v=sB5KCyHq9WI</lognote>
											<good></good>
											<originalvideofilename></originalvideofilename>
											<originalaudiofilename></originalaudiofilename>
										</logginginfo>
										<colorinfo>
											<lut></lut>
											<lut1></lut1>
											<asc_sop></asc_sop>
											<asc_sat></asc_sat>
											<lut2></lut2>
										</colorinfo>
									</clipitem>
									<clipitem id="clipitem-296">
										<masterclipid>masterclip-1</masterclipid>
										<name>(Candid Treat)_Jamun Yogurt Popsicle _ Healthy Popsicle Recipe _ Java Plum Yogurt Popsicle _ Ice cream Recipe_sB5KCyHq9WI_YT.mp4</name>
										<enabled>TRUE</enabled>
										<duration>3862</duration>
										<rate>
											<timebase>30</timebase>
											<ntsc>TRUE</ntsc>
										</rate>
										<start>66</start>
										<end>233</end>
										<in>425</in>
										<out>592</out>
										<pproTicksIn>3602158560000</pproTicksIn>
										<pproTicksOut>5017594982400</pproTicksOut>
										<alphatype>none</alphatype>
										<file id="file-1"/>
										<filter>
											<effect>
												<name>Basic Motion</name>
												<effectid>basic</effectid>
												<effectcategory>motion</effectcategory>
												<effecttype>motion</effecttype>
												<mediatype>video</mediatype>
												<pproBypass>false</pproBypass>
												<parameter authoringApp="PremierePro">
													<parameterid>scale</parameterid>
													<name>Scale</name>
													<valuemin>0</valuemin>
													<valuemax>1000</valuemax>
													<value>169</value>
												</parameter>
												<parameter authoringApp="PremierePro">
													<parameterid>rotation</parameterid>
													<name>Rotation</name>
													<valuemin>-8640</valuemin>
													<valuemax>8640</valuemax>
													<value>0</value>
												</parameter>
												<parameter authoringApp="PremierePro">
													<parameterid>center</parameterid>
													<name>Center</name>
													<value>
														<horiz>0</horiz>
														<vert>0</vert>
													</value>
												</parameter>
												<parameter authoringApp="PremierePro">
													<parameterid>centerOffset</parameterid>
													<name>Anchor Point</name>
													<value>
														<horiz>0</horiz>
														<vert>0</vert>
													</value>
												</parameter>
												<parameter authoringApp="PremierePro">
													<parameterid>antiflicker</parameterid>
													<name>Anti-flicker Filter</name>
													<valuemin>0.0</valuemin>
													<valuemax>1.0</valuemax>
													<value>0</value>
												</parameter>
											</effect>
										</filter>
										<logginginfo>
											<description>Jamun Yogurt Popsicle | Healthy Popsicle Recipe | Java Plum Yogurt Popsicle | Ice cream Recipe</description>
											<scene></scene>
											<shottake></shottake>
											<lognote>https://www.youtube.com/watch?v=sB5KCyHq9WI</lognote>
											<good></good>
											<originalvideofilename></originalvideofilename>
											<originalaudiofilename></originalaudiofilename>
										</logginginfo>
										<colorinfo>
											<lut></lut>
											<lut1></lut1>
											<asc_sop></asc_sop>
											<asc_sat></asc_sat>
											<lut2></lut2>
										</colorinfo>
									</clipitem>
									<clipitem id="clipitem-297">
										<masterclipid>masterclip-1</masterclipid>
										<name>(Candid Treat)_Jamun Yogurt Popsicle _ Healthy Popsicle Recipe _ Java Plum Yogurt Popsicle _ Ice cream Recipe_sB5KCyHq9WI_YT.mp4</name>
										<enabled>TRUE</enabled>
										<duration>3862</duration>
										<rate>
											<timebase>30</timebase>
											<ntsc>TRUE</ntsc>
										</rate>
										<start>233</start>
										<end>310</end>
										<in>613</in>
										<out>690</out>
										<pproTicksIn>5195583993600</pproTicksIn>
										<pproTicksOut>5848210368000</pproTicksOut>
										<alphatype>none</alphatype>
										<file id="file-1"/>
										<logginginfo>
											<description>Jamun Yogurt Popsicle | Healthy Popsicle Recipe | Java Plum Yogurt Popsicle | Ice cream Recipe</description>
											<scene></scene>
											<shottake></shottake>
											<lognote>https://www.youtube.com/watch?v=sB5KCyHq9WI</lognote>
											<good></good>
											<originalvideofilename></originalvideofilename>
											<originalaudiofilename></originalaudiofilename>
										</logginginfo>
										<colorinfo>
											<lut></lut>
											<lut1></lut1>
											<asc_sop></asc_sop>
											<asc_sat></asc_sat>
											<lut2></lut2>
										</colorinfo>
									</clipitem>
									<clipitem id="clipitem-298">
										<masterclipid>masterclip-1</masterclipid>
										<name>(Candid Treat)_Jamun Yogurt Popsicle _ Healthy Popsicle Recipe _ Java Plum Yogurt Popsicle _ Ice cream Recipe_sB5KCyHq9WI_YT.mp4</name>
										<enabled>TRUE</enabled>
										<duration>3862</duration>
										<rate>
											<timebase>30</timebase>
											<ntsc>TRUE</ntsc>
										</rate>
										<start>310</start>
										<end>441</end>
										<in>706</in>
										<out>837</out>
										<pproTicksIn>5983821043200</pproTicksIn>
										<pproTicksOut>7094133446400</pproTicksOut>
										<alphatype>none</alphatype>
										<file id="file-1"/>
										<logginginfo>
											<description>Jamun Yogurt Popsicle | Healthy Popsicle Recipe | Java Plum Yogurt Popsicle | Ice cream Recipe</description>
											<scene></scene>
											<shottake></shottake>
											<lognote>https://www.youtube.com/watch?v=sB5KCyHq9WI</lognote>
											<good></good>
											<originalvideofilename></originalvideofilename>
											<originalaudiofilename></originalaudiofilename>
										</logginginfo>
										<colorinfo>
											<lut></lut>
											<lut1></lut1>
											<asc_sop></asc_sop>
											<asc_sat></asc_sat>
											<lut2></lut2>
										</colorinfo>
									</clipitem>
									<clipitem id="clipitem-299">
										<masterclipid>masterclip-1</masterclipid>
										<name>(Candid Treat)_Jamun Yogurt Popsicle _ Healthy Popsicle Recipe _ Java Plum Yogurt Popsicle _ Ice cream Recipe_sB5KCyHq9WI_YT.mp4</name>
										<enabled>TRUE</enabled>
										<duration>3862</duration>
										<rate>
											<timebase>30</timebase>
											<ntsc>TRUE</ntsc>
										</rate>
										<start>441</start>
										<end>508</end>
										<in>938</in>
										<out>1005</out>
										<pproTicksIn>7950175833600</pproTicksIn>
										<pproTicksOut>8518045536000</pproTicksOut>
										<alphatype>none</alphatype>
										<file id="file-1"/>
										<logginginfo>
											<description>Jamun Yogurt Popsicle | Healthy Popsicle Recipe | Java Plum Yogurt Popsicle | Ice cream Recipe</description>
											<scene></scene>
											<shottake></shottake>
											<lognote>https://www.youtube.com/watch?v=sB5KCyHq9WI</lognote>
											<good></good>
											<originalvideofilename></originalvideofilename>
											<originalaudiofilename></originalaudiofilename>
										</logginginfo>
										<colorinfo>
											<lut></lut>
											<lut1></lut1>
											<asc_sop></asc_sop>
											<asc_sat></asc_sat>
											<lut2></lut2>
										</colorinfo>
									</clipitem>
									<clipitem id="clipitem-300">
										<masterclipid>masterclip-1</masterclipid>
										<name>(Candid Treat)_Jamun Yogurt Popsicle _ Healthy Popsicle Recipe _ Java Plum Yogurt Popsicle _ Ice cream Recipe_sB5KCyHq9WI_YT.mp4</name>
										<enabled>TRUE</enabled>
										<duration>3862</duration>
										<rate>
											<timebase>30</timebase>
											<ntsc>TRUE</ntsc>
										</rate>
										<start>508</start>
										<end>637</end>
										<in>1103</in>
										<out>1232</out>
										<pproTicksIn>9348660921600</pproTicksIn>
										<pproTicksOut>10442021990400</pproTicksOut>
										<alphatype>none</alphatype>
										<file id="file-1"/>
										<logginginfo>
											<description>Jamun Yogurt Popsicle | Healthy Popsicle Recipe | Java Plum Yogurt Popsicle | Ice cream Recipe</description>
											<scene></scene>
											<shottake></shottake>
											<lognote>https://www.youtube.com/watch?v=sB5KCyHq9WI</lognote>
											<good></good>
											<originalvideofilename></originalvideofilename>
											<originalaudiofilename></originalaudiofilename>
										</logginginfo>
										<colorinfo>
											<lut></lut>
											<lut1></lut1>
											<asc_sop></asc_sop>
											<asc_sat></asc_sat>
											<lut2></lut2>
										</colorinfo>
									</clipitem>
									<clipitem id="clipitem-301">
										<masterclipid>masterclip-1</masterclipid>
										<name>(Candid Treat)_Jamun Yogurt Popsicle _ Healthy Popsicle Recipe _ Java Plum Yogurt Popsicle _ Ice cream Recipe_sB5KCyHq9WI_YT.mp4</name>
										<enabled>TRUE</enabled>
										<duration>3862</duration>
										<rate>
											<timebase>30</timebase>
											<ntsc>TRUE</ntsc>
										</rate>
										<start>637</start>
										<end>804</end>
										<in>1667</in>
										<out>1834</out>
										<pproTicksIn>14128937222400</pproTicksIn>
										<pproTicksOut>15544373644800</pproTicksOut>
										<alphatype>none</alphatype>
										<file id="file-1"/>
										<logginginfo>
											<description>Jamun Yogurt Popsicle | Healthy Popsicle Recipe | Java Plum Yogurt Popsicle | Ice cream Recipe</description>
											<scene></scene>
											<shottake></shottake>
											<lognote>https://www.youtube.com/watch?v=sB5KCyHq9WI</lognote>
											<good></good>
											<originalvideofilename></originalvideofilename>
											<originalaudiofilename></originalaudiofilename>
										</logginginfo>
										<colorinfo>
											<lut></lut>
											<lut1></lut1>
											<asc_sop></asc_sop>
											<asc_sat></asc_sat>
											<lut2></lut2>
										</colorinfo>
									</clipitem>
									<clipitem id="clipitem-302">
										<masterclipid>masterclip-1</masterclipid>
										<name>(Candid Treat)_Jamun Yogurt Popsicle _ Healthy Popsicle Recipe _ Java Plum Yogurt Popsicle _ Ice cream Recipe_sB5KCyHq9WI_YT.mp4</name>
										<enabled>TRUE</enabled>
										<duration>3862</duration>
										<rate>
											<timebase>30</timebase>
											<ntsc>TRUE</ntsc>
										</rate>
										<start>804</start>
										<end>915</end>
										<in>1863</in>
										<out>1974</out>
										<pproTicksIn>15790167993600</pproTicksIn>
										<pproTicksOut>16730967052800</pproTicksOut>
										<alphatype>none</alphatype>
										<file id="file-1"/>
										<logginginfo>
											<description>Jamun Yogurt Popsicle | Healthy Popsicle Recipe | Java Plum Yogurt Popsicle | Ice cream Recipe</description>
											<scene></scene>
											<shottake></shottake>
											<lognote>https://www.youtube.com/watch?v=sB5KCyHq9WI</lognote>
											<good></good>
											<originalvideofilename></originalvideofilename>
											<originalaudiofilename></originalaudiofilename>
										</logginginfo>
										<colorinfo>
											<lut></lut>
											<lut1></lut1>
											<asc_sop></asc_sop>
											<asc_sat></asc_sat>
											<lut2></lut2>
										</colorinfo>
									</clipitem>
									<clipitem id="clipitem-303">
										<masterclipid>masterclip-1</masterclipid>
										<name>(Candid Treat)_Jamun Yogurt Popsicle _ Healthy Popsicle Recipe _ Java Plum Yogurt Popsicle _ Ice cream Recipe_sB5KCyHq9WI_YT.mp4</name>
										<enabled>TRUE</enabled>
										<duration>3862</duration>
										<rate>
											<timebase>30</timebase>
											<ntsc>TRUE</ntsc>
										</rate>
										<start>915</start>
										<end>1040</end>
										<in>2144</in>
										<out>2269</out>
										<pproTicksIn>18171830476800</pproTicksIn>
										<pproTicksOut>19231288876800</pproTicksOut>
										<alphatype>none</alphatype>
										<file id="file-1"/>
										<logginginfo>
											<description>Jamun Yogurt Popsicle | Healthy Popsicle Recipe | Java Plum Yogurt Popsicle | Ice cream Recipe</description>
											<scene></scene>
											<shottake></shottake>
											<lognote>https://www.youtube.com/watch?v=sB5KCyHq9WI</lognote>
											<good></good>
											<originalvideofilename></originalvideofilename>
											<originalaudiofilename></originalaudiofilename>
										</logginginfo>
										<colorinfo>
											<lut></lut>
											<lut1></lut1>
											<asc_sop></asc_sop>
											<asc_sat></asc_sat>
											<lut2></lut2>
										</colorinfo>
									</clipitem>
									<clipitem id="clipitem-304">
										<masterclipid>masterclip-1</masterclipid>
										<name>(Candid Treat)_Jamun Yogurt Popsicle _ Healthy Popsicle Recipe _ Java Plum Yogurt Popsicle _ Ice cream Recipe_sB5KCyHq9WI_YT.mp4</name>
										<enabled>TRUE</enabled>
										<duration>3862</duration>
										<rate>
											<timebase>30</timebase>
											<ntsc>TRUE</ntsc>
										</rate>
										<start>1040</start>
										<end>1172</end>
										<in>2306</in>
										<out>2438</out>
										<pproTicksIn>19544888563200</pproTicksIn>
										<pproTicksOut>20663676633600</pproTicksOut>
										<alphatype>none</alphatype>
										<file id="file-1"/>
										<logginginfo>
											<description>Jamun Yogurt Popsicle | Healthy Popsicle Recipe | Java Plum Yogurt Popsicle | Ice cream Recipe</description>
											<scene></scene>
											<shottake></shottake>
											<lognote>https://www.youtube.com/watch?v=sB5KCyHq9WI</lognote>
											<good></good>
											<originalvideofilename></originalvideofilename>
											<originalaudiofilename></originalaudiofilename>
										</logginginfo>
										<colorinfo>
											<lut></lut>
											<lut1></lut1>
											<asc_sop></asc_sop>
											<asc_sat></asc_sat>
											<lut2></lut2>
										</colorinfo>
									</clipitem>
									<clipitem id="clipitem-305">
										<masterclipid>masterclip-1</masterclipid>
										<name>(Candid Treat)_Jamun Yogurt Popsicle _ Healthy Popsicle Recipe _ Java Plum Yogurt Popsicle _ Ice cream Recipe_sB5KCyHq9WI_YT.mp4</name>
										<enabled>TRUE</enabled>
										<duration>3862</duration>
										<rate>
											<timebase>30</timebase>
											<ntsc>TRUE</ntsc>
										</rate>
										<start>1172</start>
										<end>1263</end>
										<in>2704</in>
										<out>2795</out>
										<pproTicksIn>22918204108800</pproTicksIn>
										<pproTicksOut>23689489824000</pproTicksOut>
										<alphatype>none</alphatype>
										<file id="file-1"/>
										<logginginfo>
											<description>Jamun Yogurt Popsicle | Healthy Popsicle Recipe | Java Plum Yogurt Popsicle | Ice cream Recipe</description>
											<scene></scene>
											<shottake></shottake>
											<lognote>https://www.youtube.com/watch?v=sB5KCyHq9WI</lognote>
											<good></good>
											<originalvideofilename></originalvideofilename>
											<originalaudiofilename></originalaudiofilename>
										</logginginfo>
										<colorinfo>
											<lut></lut>
											<lut1></lut1>
											<asc_sop></asc_sop>
											<asc_sat></asc_sat>
											<lut2></lut2>
										</colorinfo>
									</clipitem>
									<clipitem id="clipitem-306">
										<masterclipid>masterclip-1</masterclipid>
										<name>(Candid Treat)_Jamun Yogurt Popsicle _ Healthy Popsicle Recipe _ Java Plum Yogurt Popsicle _ Ice cream Recipe_sB5KCyHq9WI_YT.mp4</name>
										<enabled>TRUE</enabled>
										<duration>3862</duration>
										<rate>
											<timebase>30</timebase>
											<ntsc>TRUE</ntsc>
										</rate>
										<start>1263</start>
										<end>1382</end>
										<in>2833</in>
										<out>2952</out>
										<pproTicksIn>24011565177600</pproTicksIn>
										<pproTicksOut>25020169574400</pproTicksOut>
										<alphatype>none</alphatype>
										<file id="file-1"/>
										<logginginfo>
											<description>Jamun Yogurt Popsicle | Healthy Popsicle Recipe | Java Plum Yogurt Popsicle | Ice cream Recipe</description>
											<scene></scene>
											<shottake></shottake>
											<lognote>https://www.youtube.com/watch?v=sB5KCyHq9WI</lognote>
											<good></good>
											<originalvideofilename></originalvideofilename>
											<originalaudiofilename></originalaudiofilename>
										</logginginfo>
										<colorinfo>
											<lut></lut>
											<lut1></lut1>
											<asc_sop></asc_sop>
											<asc_sat></asc_sat>
											<lut2></lut2>
										</colorinfo>
									</clipitem>
									<clipitem id="clipitem-307">
										<masterclipid>masterclip-1</masterclipid>
										<name>(Candid Treat)_Jamun Yogurt Popsicle _ Healthy Popsicle Recipe _ Java Plum Yogurt Popsicle _ Ice cream Recipe_sB5KCyHq9WI_YT.mp4</name>
										<enabled>TRUE</enabled>
										<duration>3862</duration>
										<rate>
											<timebase>30</timebase>
											<ntsc>TRUE</ntsc>
										</rate>
										<start>1382</start>
										<end>1452</end>
										<in>2980</in>
										<out>3050</out>
										<pproTicksIn>25257488256000</pproTicksIn>
										<pproTicksOut>25850784960000</pproTicksOut>
										<alphatype>none</alphatype>
										<file id="file-1"/>
										<logginginfo>
											<description>Jamun Yogurt Popsicle | Healthy Popsicle Recipe | Java Plum Yogurt Popsicle | Ice cream Recipe</description>
											<scene></scene>
											<shottake></shottake>
											<lognote>https://www.youtube.com/watch?v=sB5KCyHq9WI</lognote>
											<good></good>
											<originalvideofilename></originalvideofilename>
											<originalaudiofilename></originalaudiofilename>
										</logginginfo>
										<colorinfo>
											<lut></lut>
											<lut1></lut1>
											<asc_sop></asc_sop>
											<asc_sat></asc_sat>
											<lut2></lut2>
										</colorinfo>
									</clipitem>
									<clipitem id="clipitem-308">
										<masterclipid>masterclip-1</masterclipid>
										<name>(Candid Treat)_Jamun Yogurt Popsicle _ Healthy Popsicle Recipe _ Java Plum Yogurt Popsicle _ Ice cream Recipe_sB5KCyHq9WI_YT.mp4</name>
										<enabled>TRUE</enabled>
										<duration>3862</duration>
										<rate>
											<timebase>30</timebase>
											<ntsc>TRUE</ntsc>
										</rate>
										<start>1452</start>
										<end>1518</end>
										<in>3058</in>
										<out>3124</out>
										<pproTicksIn>25918590297600</pproTicksIn>
										<pproTicksOut>26477984332800</pproTicksOut>
										<alphatype>none</alphatype>
										<file id="file-1"/>
										<logginginfo>
											<description>Jamun Yogurt Popsicle | Healthy Popsicle Recipe | Java Plum Yogurt Popsicle | Ice cream Recipe</description>
											<scene></scene>
											<shottake></shottake>
											<lognote>https://www.youtube.com/watch?v=sB5KCyHq9WI</lognote>
											<good></good>
											<originalvideofilename></originalvideofilename>
											<originalaudiofilename></originalaudiofilename>
										</logginginfo>
										<colorinfo>
											<lut></lut>
											<lut1></lut1>
											<asc_sop></asc_sop>
											<asc_sat></asc_sat>
											<lut2></lut2>
										</colorinfo>
									</clipitem>
									<clipitem id="clipitem-309">
										<masterclipid>masterclip-1</masterclipid>
										<name>(Candid Treat)_Jamun Yogurt Popsicle _ Healthy Popsicle Recipe _ Java Plum Yogurt Popsicle _ Ice cream Recipe_sB5KCyHq9WI_YT.mp4</name>
										<enabled>TRUE</enabled>
										<duration>3862</duration>
										<rate>
											<timebase>30</timebase>
											<ntsc>TRUE</ntsc>
										</rate>
										<start>1518</start>
										<end>1568</end>
										<in>3144</in>
										<out>3194</out>
										<pproTicksIn>26647497676800</pproTicksIn>
										<pproTicksOut>27071281036800</pproTicksOut>
										<alphatype>none</alphatype>
										<file id="file-1"/>
										<logginginfo>
											<description>Jamun Yogurt Popsicle | Healthy Popsicle Recipe | Java Plum Yogurt Popsicle | Ice cream Recipe</description>
											<scene></scene>
											<shottake></shottake>
											<lognote>https://www.youtube.com/watch?v=sB5KCyHq9WI</lognote>
											<good></good>
											<originalvideofilename></originalvideofilename>
											<originalaudiofilename></originalaudiofilename>
										</logginginfo>
										<colorinfo>
											<lut></lut>
											<lut1></lut1>
											<asc_sop></asc_sop>
											<asc_sat></asc_sat>
											<lut2></lut2>
										</colorinfo>
									</clipitem>
									<clipitem id="clipitem-310">
										<masterclipid>masterclip-1</masterclipid>
										<name>(Candid Treat)_Jamun Yogurt Popsicle _ Healthy Popsicle Recipe _ Java Plum Yogurt Popsicle _ Ice cream Recipe_sB5KCyHq9WI_YT.mp4</name>
										<enabled>TRUE</enabled>
										<duration>3862</duration>
										<rate>
											<timebase>30</timebase>
											<ntsc>TRUE</ntsc>
										</rate>
										<start>1568</start>
										<end>1638</end>
										<in>3440</in>
										<out>3510</out>
										<pproTicksIn>29156295168000</pproTicksIn>
										<pproTicksOut>29749591872000</pproTicksOut>
										<alphatype>none</alphatype>
										<file id="file-1"/>
										<logginginfo>
											<description>Jamun Yogurt Popsicle | Healthy Popsicle Recipe | Java Plum Yogurt Popsicle | Ice cream Recipe</description>
											<scene></scene>
											<shottake></shottake>
											<lognote>https://www.youtube.com/watch?v=sB5KCyHq9WI</lognote>
											<good></good>
											<originalvideofilename></originalvideofilename>
											<originalaudiofilename></originalaudiofilename>
										</logginginfo>
										<colorinfo>
											<lut></lut>
											<lut1></lut1>
											<asc_sop></asc_sop>
											<asc_sat></asc_sat>
											<lut2></lut2>
										</colorinfo>
									</clipitem>
									<clipitem id="clipitem-311">
										<masterclipid>masterclip-1</masterclipid>
										<name>(Candid Treat)_Jamun Yogurt Popsicle _ Healthy Popsicle Recipe _ Java Plum Yogurt Popsicle _ Ice cream Recipe_sB5KCyHq9WI_YT.mp4</name>
										<enabled>TRUE</enabled>
										<duration>3862</duration>
										<rate>
											<timebase>30</timebase>
											<ntsc>TRUE</ntsc>
										</rate>
										<start>1638</start>
										<end>1790</end>
										<in>3658</in>
										<out>3810</out>
										<pproTicksIn>31003990617600</pproTicksIn>
										<pproTicksOut>32292292032000</pproTicksOut>
										<alphatype>none</alphatype>
										<file id="file-1"/>
										<logginginfo>
											<description>Jamun Yogurt Popsicle | Healthy Popsicle Recipe | Java Plum Yogurt Popsicle | Ice cream Recipe</description>
											<scene></scene>
											<shottake></shottake>
											<lognote>https://www.youtube.com/watch?v=sB5KCyHq9WI</lognote>
											<good></good>
											<originalvideofilename></originalvideofilename>
											<originalaudiofilename></originalaudiofilename>
										</logginginfo>
										<colorinfo>
											<lut></lut>
											<lut1></lut1>
											<asc_sop></asc_sop>
											<asc_sat></asc_sat>
											<lut2></lut2>
										</colorinfo>
									</clipitem>
									<enabled>TRUE</enabled>
									<locked>FALSE</locked>
								</track>
								<track TL.SQTrackShy="0" TL.SQTrackExpandedHeight="25" TL.SQTrackExpanded="0" MZ.TrackTargeted="0">
									<clipitem id="clipitem-312">
										<masterclipid>masterclip-169</masterclipid>
										<name>Candid Treat</name>
										<enabled>TRUE</enabled>
										<duration>5844</duration>
										<rate>
											<timebase>30</timebase>
											<ntsc>TRUE</ntsc>
										</rate>
										<start>0</start>
										<end>1790</end>
										<in>0</in>
										<out>1790</out>
										<pproTicksIn>0</pproTicksIn>
										<pproTicksOut>15171444288000</pproTicksOut>
										<alphatype>straight</alphatype>
										<pixelaspectratio>square</pixelaspectratio>
										<anamorphic>FALSE</anamorphic>
										<file id="file-169">
											<name>1080/AE Attribution.aep</name>
											<pathurl>file://localhost/Volumes/ATM%201/EYE%20CANDY/Project%20Template/5_Assets/AE%20Attribution.aep</pathurl>
											<rate>
												<timebase>30</timebase>
												<ntsc>TRUE</ntsc>
											</rate>
											<duration>5844</duration>
											<timecode>
												<rate>
													<timebase>30</timebase>
													<ntsc>TRUE</ntsc>
												</rate>
												<string>00;00;00;00</string>
												<frame>0</frame>
												<displayformat>DF</displayformat>
											</timecode>
											<media>
												<video>
													<samplecharacteristics>
														<rate>
															<timebase>30</timebase>
															<ntsc>TRUE</ntsc>
														</rate>
														<width>1920</width>
														<height>1080</height>
														<anamorphic>FALSE</anamorphic>
														<pixelaspectratio>square</pixelaspectratio>
														<fielddominance>lower</fielddominance>
													</samplecharacteristics>
												</video>
											</media>
										</file>
										<logginginfo>
											<description></description>
											<scene></scene>
											<shottake></shottake>
											<lognote></lognote>
											<good></good>
											<originalvideofilename></originalvideofilename>
											<originalaudiofilename></originalaudiofilename>
										</logginginfo>
										<colorinfo>
											<lut></lut>
											<lut1></lut1>
											<asc_sop></asc_sop>
											<asc_sat></asc_sat>
											<lut2></lut2>
										</colorinfo>
										<labels>
											<label2>Rose</label2>
										</labels>
									</clipitem>
									<enabled>TRUE</enabled>
									<locked>FALSE</locked>
								</track>
								<track TL.SQTrackShy="0" TL.SQTrackExpandedHeight="25" TL.SQTrackExpanded="0" MZ.TrackTargeted="0">
									<enabled>TRUE</enabled>
									<locked>FALSE</locked>
								</track>
								<track TL.SQTrackShy="0" TL.SQTrackExpandedHeight="25" TL.SQTrackExpanded="0" MZ.TrackTargeted="0">
									<enabled>TRUE</enabled>
									<locked>FALSE</locked>
								</track>
								<track TL.SQTrackShy="0" TL.SQTrackExpandedHeight="25" TL.SQTrackExpanded="0" MZ.TrackTargeted="0">
									<enabled>TRUE</enabled>
									<locked>FALSE</locked>
								</track>
								<track TL.SQTrackShy="0" TL.SQTrackExpandedHeight="25" TL.SQTrackExpanded="0" MZ.TrackTargeted="0">
									<enabled>TRUE</enabled>
									<locked>FALSE</locked>
								</track>
								<track TL.SQTrackShy="0" TL.SQTrackExpandedHeight="25" TL.SQTrackExpanded="0" MZ.TrackTargeted="0">
									<enabled>TRUE</enabled>
									<locked>FALSE</locked>
								</track>
								<track TL.SQTrackShy="0" TL.SQTrackExpandedHeight="25" TL.SQTrackExpanded="0" MZ.TrackTargeted="0">
									<enabled>TRUE</enabled>
									<locked>FALSE</locked>
								</track>
								<track TL.SQTrackShy="0" TL.SQTrackExpandedHeight="25" TL.SQTrackExpanded="0" MZ.TrackTargeted="0">
									<enabled>TRUE</enabled>
									<locked>FALSE</locked>
								</track>
								<track TL.SQTrackShy="0" TL.SQTrackExpandedHeight="25" TL.SQTrackExpanded="0" MZ.TrackTargeted="0">
									<enabled>TRUE</enabled>
									<locked>FALSE</locked>
								</track>
							</video>
							<audio>
								<numOutputChannels>2</numOutputChannels>
								<format>
									<samplecharacteristics>
										<depth>16</depth>
										<samplerate>48000</samplerate>
									</samplecharacteristics>
								</format>
								<outputs>
									<group>
										<index>1</index>
										<numchannels>1</numchannels>
										<downmix>0</downmix>
										<channel>
											<index>1</index>
										</channel>
									</group>
									<group>
										<index>2</index>
										<numchannels>1</numchannels>
										<downmix>0</downmix>
										<channel>
											<index>2</index>
										</channel>
									</group>
								</outputs>
								<track TL.SQTrackAudioKeyframeStyle="0" TL.SQTrackShy="0" TL.SQTrackExpandedHeight="25" TL.SQTrackExpanded="0" MZ.TrackTargeted="1" PannerCurrentValue="0.5" PannerIsInverted="true" PannerStartKeyframe="-91445760000000000,0.5,0,0,0,0,0,0" PannerName="Balance" currentExplodedTrackIndex="0" totalExplodedTrackCount="2" premiereTrackType="Stereo">
									<clipitem id="clipitem-313" premiereChannelType="stereo">
										<masterclipid>masterclip-170</masterclipid>
										<name>ES_Purple Sunset - Heyson.mp3</name>
										<enabled>TRUE</enabled>
										<duration>6952</duration>
										<rate>
											<timebase>30</timebase>
											<ntsc>TRUE</ntsc>
										</rate>
										<start>0</start>
										<end>1790</end>
										<in>0</in>
										<out>1790</out>
										<pproTicksIn>0</pproTicksIn>
										<pproTicksOut>15171444288000</pproTicksOut>
										<file id="file-170">
											<name>ES_Purple Sunset - Heyson.mp3</name>
											<pathurl>file://localhost/Volumes/ATM%201/EYE%20CANDY/8%3a21%3a23/5_Assets/Music/ES_Purple%20Sunset%20-%20Heyson.mp3</pathurl>
											<rate>
												<timebase>30</timebase>
												<ntsc>TRUE</ntsc>
											</rate>
											<duration>6952</duration>
											<timecode>
												<rate>
													<timebase>30</timebase>
													<ntsc>TRUE</ntsc>
												</rate>
												<string>00;00;00;00</string>
												<frame>0</frame>
												<displayformat>DF</displayformat>
											</timecode>
											<media>
												<audio>
													<samplecharacteristics>
														<depth>16</depth>
														<samplerate>48000</samplerate>
													</samplecharacteristics>
													<channelcount>2</channelcount>
												</audio>
											</media>
										</file>
										<sourcetrack>
											<mediatype>audio</mediatype>
											<trackindex>1</trackindex>
										</sourcetrack>
										<link>
											<linkclipref>clipitem-313</linkclipref>
											<mediatype>audio</mediatype>
											<trackindex>1</trackindex>
											<clipindex>1</clipindex>
											<groupindex>1</groupindex>
										</link>
										<link>
											<linkclipref>clipitem-314</linkclipref>
											<mediatype>audio</mediatype>
											<trackindex>2</trackindex>
											<clipindex>1</clipindex>
											<groupindex>1</groupindex>
										</link>
										<logginginfo>
											<description></description>
											<scene></scene>
											<shottake></shottake>
											<lognote></lognote>
											<good></good>
											<originalvideofilename></originalvideofilename>
											<originalaudiofilename></originalaudiofilename>
										</logginginfo>
										<colorinfo>
											<lut></lut>
											<lut1></lut1>
											<asc_sop></asc_sop>
											<asc_sat></asc_sat>
											<lut2></lut2>
										</colorinfo>
										<labels>
											<label2>Caribbean</label2>
										</labels>
									</clipitem>
									<enabled>TRUE</enabled>
									<locked>FALSE</locked>
									<filter>
										<effect>
											<name>Audio Levels</name>
											<effectid>audiolevels</effectid>
											<effectcategory>audiolevels</effectcategory>
											<effecttype>audiolevels</effecttype>
											<mediatype>audio</mediatype>
											<parameter authoringApp="PremierePro">
												<parameterid>level</parameterid>
												<name>Level</name>
												<valuemin>0</valuemin>
												<valuemax>3.98109</valuemax>
												<value>0.706272</value>
											</parameter>
										</effect>
									</filter>
									<outputchannelindex>1</outputchannelindex>
								</track>
								<track TL.SQTrackAudioKeyframeStyle="0" TL.SQTrackShy="0" TL.SQTrackExpandedHeight="25" TL.SQTrackExpanded="0" MZ.TrackTargeted="1" PannerCurrentValue="0.5" PannerIsInverted="true" PannerStartKeyframe="-91445760000000000,0.5,0,0,0,0,0,0" PannerName="Balance" currentExplodedTrackIndex="1" totalExplodedTrackCount="2" premiereTrackType="Stereo">
									<clipitem id="clipitem-314" premiereChannelType="stereo">
										<masterclipid>masterclip-170</masterclipid>
										<name>ES_Purple Sunset - Heyson.mp3</name>
										<enabled>TRUE</enabled>
										<duration>6952</duration>
										<rate>
											<timebase>30</timebase>
											<ntsc>TRUE</ntsc>
										</rate>
										<start>0</start>
										<end>1790</end>
										<in>0</in>
										<out>1790</out>
										<pproTicksIn>0</pproTicksIn>
										<pproTicksOut>15171444288000</pproTicksOut>
										<file id="file-170"/>
										<sourcetrack>
											<mediatype>audio</mediatype>
											<trackindex>2</trackindex>
										</sourcetrack>
										<link>
											<linkclipref>clipitem-313</linkclipref>
											<mediatype>audio</mediatype>
											<trackindex>1</trackindex>
											<clipindex>1</clipindex>
											<groupindex>1</groupindex>
										</link>
										<link>
											<linkclipref>clipitem-314</linkclipref>
											<mediatype>audio</mediatype>
											<trackindex>2</trackindex>
											<clipindex>1</clipindex>
											<groupindex>1</groupindex>
										</link>
										<logginginfo>
											<description></description>
											<scene></scene>
											<shottake></shottake>
											<lognote></lognote>
											<good></good>
											<originalvideofilename></originalvideofilename>
											<originalaudiofilename></originalaudiofilename>
										</logginginfo>
										<colorinfo>
											<lut></lut>
											<lut1></lut1>
											<asc_sop></asc_sop>
											<asc_sat></asc_sat>
											<lut2></lut2>
										</colorinfo>
										<labels>
											<label2>Caribbean</label2>
										</labels>
									</clipitem>
									<enabled>TRUE</enabled>
									<locked>FALSE</locked>
									<filter>
										<effect>
											<name>Audio Levels</name>
											<effectid>audiolevels</effectid>
											<effectcategory>audiolevels</effectcategory>
											<effecttype>audiolevels</effecttype>
											<mediatype>audio</mediatype>
											<parameter authoringApp="PremierePro">
												<parameterid>level</parameterid>
												<name>Level</name>
												<valuemin>0</valuemin>
												<valuemax>3.98109</valuemax>
												<value>0.706272</value>
											</parameter>
										</effect>
									</filter>
									<outputchannelindex>2</outputchannelindex>
								</track>
								<track TL.SQTrackAudioKeyframeStyle="0" TL.SQTrackShy="0" TL.SQTrackExpandedHeight="25" TL.SQTrackExpanded="0" MZ.TrackTargeted="0" PannerCurrentValue="0.5" PannerIsInverted="true" PannerStartKeyframe="-91445760000000000,0.5,0,0,0,0,0,0" PannerName="Balance" currentExplodedTrackIndex="0" totalExplodedTrackCount="2" premiereTrackType="Stereo">
									<enabled>TRUE</enabled>
									<locked>FALSE</locked>
									<outputchannelindex>1</outputchannelindex>
								</track>
								<track TL.SQTrackAudioKeyframeStyle="0" TL.SQTrackShy="0" TL.SQTrackExpandedHeight="25" TL.SQTrackExpanded="0" MZ.TrackTargeted="0" PannerCurrentValue="0.5" PannerIsInverted="true" PannerStartKeyframe="-91445760000000000,0.5,0,0,0,0,0,0" PannerName="Balance" currentExplodedTrackIndex="1" totalExplodedTrackCount="2" premiereTrackType="Stereo">
									<enabled>TRUE</enabled>
									<locked>FALSE</locked>
									<outputchannelindex>2</outputchannelindex>
								</track>
								<track TL.SQTrackAudioKeyframeStyle="0" TL.SQTrackShy="0" TL.SQTrackExpandedHeight="25" TL.SQTrackExpanded="0" MZ.TrackTargeted="0" PannerCurrentValue="0.5" PannerIsInverted="true" PannerStartKeyframe="-91445760000000000,0.5,0,0,0,0,0,0" PannerName="Balance" currentExplodedTrackIndex="0" totalExplodedTrackCount="2" premiereTrackType="Stereo">
									<enabled>TRUE</enabled>
									<locked>FALSE</locked>
									<outputchannelindex>1</outputchannelindex>
								</track>
								<track TL.SQTrackAudioKeyframeStyle="0" TL.SQTrackShy="0" TL.SQTrackExpandedHeight="25" TL.SQTrackExpanded="0" MZ.TrackTargeted="0" PannerCurrentValue="0.5" PannerIsInverted="true" PannerStartKeyframe="-91445760000000000,0.5,0,0,0,0,0,0" PannerName="Balance" currentExplodedTrackIndex="1" totalExplodedTrackCount="2" premiereTrackType="Stereo">
									<enabled>TRUE</enabled>
									<locked>FALSE</locked>
									<outputchannelindex>2</outputchannelindex>
								</track>
								<track TL.SQTrackAudioKeyframeStyle="0" TL.SQTrackShy="0" TL.SQTrackExpandedHeight="25" TL.SQTrackExpanded="0" MZ.TrackTargeted="0" PannerCurrentValue="0.5" PannerIsInverted="true" PannerStartKeyframe="-91445760000000000,0.5,0,0,0,0,0,0" PannerName="Balance" currentExplodedTrackIndex="0" totalExplodedTrackCount="2" premiereTrackType="Stereo">
									<enabled>TRUE</enabled>
									<locked>FALSE</locked>
									<outputchannelindex>1</outputchannelindex>
								</track>
								<track TL.SQTrackAudioKeyframeStyle="0" TL.SQTrackShy="0" TL.SQTrackExpandedHeight="25" TL.SQTrackExpanded="0" MZ.TrackTargeted="0" PannerCurrentValue="0.5" PannerIsInverted="true" PannerStartKeyframe="-91445760000000000,0.5,0,0,0,0,0,0" PannerName="Balance" currentExplodedTrackIndex="1" totalExplodedTrackCount="2" premiereTrackType="Stereo">
									<enabled>TRUE</enabled>
									<locked>FALSE</locked>
									<outputchannelindex>2</outputchannelindex>
								</track>
								<track TL.SQTrackAudioKeyframeStyle="0" TL.SQTrackShy="0" TL.SQTrackExpandedHeight="25" TL.SQTrackExpanded="0" MZ.TrackTargeted="0" PannerCurrentValue="0.5" PannerIsInverted="true" PannerStartKeyframe="-91445760000000000,0.5,0,0,0,0,0,0" PannerName="Balance" currentExplodedTrackIndex="0" totalExplodedTrackCount="2" premiereTrackType="Stereo">
									<enabled>TRUE</enabled>
									<locked>FALSE</locked>
									<outputchannelindex>1</outputchannelindex>
								</track>
								<track TL.SQTrackAudioKeyframeStyle="0" TL.SQTrackShy="0" TL.SQTrackExpandedHeight="25" TL.SQTrackExpanded="0" MZ.TrackTargeted="0" PannerCurrentValue="0.5" PannerIsInverted="true" PannerStartKeyframe="-91445760000000000,0.5,0,0,0,0,0,0" PannerName="Balance" currentExplodedTrackIndex="1" totalExplodedTrackCount="2" premiereTrackType="Stereo">
									<enabled>TRUE</enabled>
									<locked>FALSE</locked>
									<outputchannelindex>2</outputchannelindex>
								</track>
								<track TL.SQTrackAudioKeyframeStyle="0" TL.SQTrackShy="0" TL.SQTrackExpandedHeight="25" TL.SQTrackExpanded="0" MZ.TrackTargeted="0" PannerCurrentValue="0.5" PannerIsInverted="true" PannerStartKeyframe="-91445760000000000,0.5,0,0,0,0,0,0" PannerName="Balance" currentExplodedTrackIndex="0" totalExplodedTrackCount="2" premiereTrackType="Stereo">
									<enabled>TRUE</enabled>
									<locked>FALSE</locked>
									<outputchannelindex>1</outputchannelindex>
								</track>
								<track TL.SQTrackAudioKeyframeStyle="0" TL.SQTrackShy="0" TL.SQTrackExpandedHeight="25" TL.SQTrackExpanded="0" MZ.TrackTargeted="0" PannerCurrentValue="0.5" PannerIsInverted="true" PannerStartKeyframe="-91445760000000000,0.5,0,0,0,0,0,0" PannerName="Balance" currentExplodedTrackIndex="1" totalExplodedTrackCount="2" premiereTrackType="Stereo">
									<enabled>TRUE</enabled>
									<locked>FALSE</locked>
									<outputchannelindex>2</outputchannelindex>
								</track>
								<track TL.SQTrackAudioKeyframeStyle="0" TL.SQTrackShy="0" TL.SQTrackExpandedHeight="25" TL.SQTrackExpanded="0" MZ.TrackTargeted="0" PannerCurrentValue="0.5" PannerIsInverted="true" PannerStartKeyframe="-91445760000000000,0.5,0,0,0,0,0,0" PannerName="Balance" currentExplodedTrackIndex="0" totalExplodedTrackCount="2" premiereTrackType="Stereo">
									<enabled>TRUE</enabled>
									<locked>FALSE</locked>
									<outputchannelindex>1</outputchannelindex>
								</track>
								<track TL.SQTrackAudioKeyframeStyle="0" TL.SQTrackShy="0" TL.SQTrackExpandedHeight="25" TL.SQTrackExpanded="0" MZ.TrackTargeted="0" PannerCurrentValue="0.5" PannerIsInverted="true" PannerStartKeyframe="-91445760000000000,0.5,0,0,0,0,0,0" PannerName="Balance" currentExplodedTrackIndex="1" totalExplodedTrackCount="2" premiereTrackType="Stereo">
									<enabled>TRUE</enabled>
									<locked>FALSE</locked>
									<outputchannelindex>2</outputchannelindex>
								</track>
								<track TL.SQTrackAudioKeyframeStyle="0" TL.SQTrackShy="0" TL.SQTrackExpandedHeight="25" TL.SQTrackExpanded="0" MZ.TrackTargeted="0" PannerCurrentValue="0.5" PannerIsInverted="true" PannerStartKeyframe="-91445760000000000,0.5,0,0,0,0,0,0" PannerName="Balance" currentExplodedTrackIndex="0" totalExplodedTrackCount="2" premiereTrackType="Stereo">
									<enabled>TRUE</enabled>
									<locked>FALSE</locked>
									<outputchannelindex>1</outputchannelindex>
								</track>
								<track TL.SQTrackAudioKeyframeStyle="0" TL.SQTrackShy="0" TL.SQTrackExpandedHeight="25" TL.SQTrackExpanded="0" MZ.TrackTargeted="0" PannerCurrentValue="0.5" PannerIsInverted="true" PannerStartKeyframe="-91445760000000000,0.5,0,0,0,0,0,0" PannerName="Balance" currentExplodedTrackIndex="1" totalExplodedTrackCount="2" premiereTrackType="Stereo">
									<enabled>TRUE</enabled>
									<locked>FALSE</locked>
									<outputchannelindex>2</outputchannelindex>
								</track>
								<track TL.SQTrackAudioKeyframeStyle="0" TL.SQTrackShy="0" TL.SQTrackExpandedHeight="25" TL.SQTrackExpanded="0" MZ.TrackTargeted="0" PannerCurrentValue="0.5" PannerIsInverted="true" PannerStartKeyframe="-91445760000000000,0.5,0,0,0,0,0,0" PannerName="Balance" currentExplodedTrackIndex="0" totalExplodedTrackCount="2" premiereTrackType="Stereo">
									<enabled>TRUE</enabled>
									<locked>FALSE</locked>
									<outputchannelindex>1</outputchannelindex>
								</track>
								<track TL.SQTrackAudioKeyframeStyle="0" TL.SQTrackShy="0" TL.SQTrackExpandedHeight="25" TL.SQTrackExpanded="0" MZ.TrackTargeted="0" PannerCurrentValue="0.5" PannerIsInverted="true" PannerStartKeyframe="-91445760000000000,0.5,0,0,0,0,0,0" PannerName="Balance" currentExplodedTrackIndex="1" totalExplodedTrackCount="2" premiereTrackType="Stereo">
									<enabled>TRUE</enabled>
									<locked>FALSE</locked>
									<outputchannelindex>2</outputchannelindex>
								</track>
								<track TL.SQTrackAudioKeyframeStyle="0" TL.SQTrackShy="0" TL.SQTrackExpandedHeight="25" TL.SQTrackExpanded="0" MZ.TrackTargeted="0" PannerCurrentValue="0.5" PannerIsInverted="true" PannerStartKeyframe="-91445760000000000,0.5,0,0,0,0,0,0" PannerName="Balance" currentExplodedTrackIndex="0" totalExplodedTrackCount="2" premiereTrackType="Stereo">
									<enabled>TRUE</enabled>
									<locked>FALSE</locked>
									<outputchannelindex>1</outputchannelindex>
								</track>
								<track TL.SQTrackAudioKeyframeStyle="0" TL.SQTrackShy="0" TL.SQTrackExpandedHeight="25" TL.SQTrackExpanded="0" MZ.TrackTargeted="0" PannerCurrentValue="0.5" PannerIsInverted="true" PannerStartKeyframe="-91445760000000000,0.5,0,0,0,0,0,0" PannerName="Balance" currentExplodedTrackIndex="1" totalExplodedTrackCount="2" premiereTrackType="Stereo">
									<enabled>TRUE</enabled>
									<locked>FALSE</locked>
									<outputchannelindex>2</outputchannelindex>
								</track>
							</audio>
						</media>
						<timecode>
							<rate>
								<timebase>30</timebase>
								<ntsc>TRUE</ntsc>
							</rate>
							<string>00;00;00;00</string>
							<frame>0</frame>
							<displayformat>DF</displayformat>
						</timecode>
						<labels>
							<label2>Forest</label2>
						</labels>
						<logginginfo>
							<description></description>
							<scene></scene>
							<shottake></shottake>
							<lognote></lognote>
							<good></good>
							<originalvideofilename></originalvideofilename>
							<originalaudiofilename></originalaudiofilename>
						</logginginfo>
					</sequence>
					<sequence id="sequence-2" TL.SQAudioVisibleBase="0" TL.SQVideoVisibleBase="0" TL.SQVisibleBaseTime="0" TL.SQAVDividerPosition="0.5" TL.SQHideShyTracks="0" TL.SQHeaderWidth="236" TL.SQDataTrackViewControlState="0" Monitor.ProgramZoomOut="43369989062400" Monitor.ProgramZoomIn="0" TL.SQTimePerPixel="0.16892831946686701" AM.TrackVScrollPosition="0" AM.TrackScrollPosition="0" MZ.EditLine="0" MZ.Sequence.PreviewFrameSizeHeight="1080" MZ.Sequence.PreviewFrameSizeWidth="1920" MZ.Sequence.AudioTimeDisplayFormat="200" MZ.Sequence.PreviewRenderingClassID="1061109567" MZ.Sequence.PreviewRenderingPresetCodec="1634755443" MZ.Sequence.PreviewRenderingPresetPath="EncoderPresets/SequencePreview/35d109db-457b-43c1-9452-9cb7be9f121c/QuickTime.epr" MZ.Sequence.PreviewUseMaxRenderQuality="false" MZ.Sequence.PreviewUseMaxBitDepth="false" MZ.Sequence.EditingModeGUID="35d109db-457b-43c1-9452-9cb7be9f121c" MZ.Sequence.VideoTimeDisplayFormat="102" MZ.WorkOutPoint="1262874412800" MZ.WorkInPoint="0" explodedTracks="true">
						<uuid>7f124881-6982-433b-bba8-f81b301fa963</uuid>
						<duration>5117</duration>
						<rate>
							<timebase>30</timebase>
							<ntsc>TRUE</ntsc>
						</rate>
						<name>FND_Dig In_3</name>
						<media>
							<video>
								<format>
									<samplecharacteristics>
										<rate>
											<timebase>30</timebase>
											<ntsc>TRUE</ntsc>
										</rate>
										<codec>
											<name>Apple ProRes 422</name>
											<appspecificdata>
												<appname>Final Cut Pro</appname>
												<appmanufacturer>Apple Inc.</appmanufacturer>
												<appversion>7.0</appversion>
												<data>
													<qtcodec>
														<codecname>Apple ProRes 422</codecname>
														<codectypename>Apple ProRes 422</codectypename>
														<codectypecode>apcn</codectypecode>
														<codecvendorcode>appl</codecvendorcode>
														<spatialquality>1024</spatialquality>
														<temporalquality>0</temporalquality>
														<keyframerate>0</keyframerate>
														<datarate>0</datarate>
													</qtcodec>
												</data>
											</appspecificdata>
										</codec>
										<width>1920</width>
										<height>1080</height>
										<anamorphic>FALSE</anamorphic>
										<pixelaspectratio>square</pixelaspectratio>
										<fielddominance>none</fielddominance>
										<colordepth>24</colordepth>
									</samplecharacteristics>
								</format>
								<track TL.SQTrackShy="0" TL.SQTrackExpandedHeight="25" TL.SQTrackExpanded="0" MZ.TrackTargeted="1">
									<clipitem id="clipitem-315">
										<masterclipid>masterclip-171</masterclipid>
										<name>Nested Sequence 03</name>
										<enabled>TRUE</enabled>
										<duration>5117</duration>
										<rate>
											<timebase>30</timebase>
											<ntsc>TRUE</ntsc>
										</rate>
										<start>0</start>
										<end>5117</end>
										<in>0</in>
										<out>5117</out>
										<pproTicksIn>0</pproTicksIn>
										<pproTicksOut>43369989062400</pproTicksOut>
										<sequence id="sequence-3" TL.SQAudioVisibleBase="0" TL.SQVideoVisibleBase="0" TL.SQVisibleBaseTime="0" TL.SQAVDividerPosition="0.5" TL.SQHideShyTracks="0" TL.SQHeaderWidth="236" Monitor.ProgramZoomOut="43369989062400" Monitor.ProgramZoomIn="0" TL.SQTimePerPixel="0.16892831946686601" AM.TrackVScrollPosition="0" AM.TrackScrollPosition="0" MZ.EditLine="0" MZ.Sequence.PreviewFrameSizeHeight="1080" MZ.Sequence.PreviewFrameSizeWidth="1920" MZ.Sequence.AudioTimeDisplayFormat="200" MZ.Sequence.PreviewRenderingClassID="1061109567" MZ.Sequence.PreviewRenderingPresetCodec="1634755443" MZ.Sequence.PreviewRenderingPresetPath="EncoderPresets/SequencePreview/35d109db-457b-43c1-9452-9cb7be9f121c/QuickTime.epr" MZ.Sequence.PreviewUseMaxRenderQuality="false" MZ.Sequence.PreviewUseMaxBitDepth="false" MZ.Sequence.EditingModeGUID="35d109db-457b-43c1-9452-9cb7be9f121c" MZ.Sequence.VideoTimeDisplayFormat="102" MZ.WorkOutPoint="43369989062400" MZ.WorkInPoint="0">
											<duration>5117</duration>
											<rate>
												<timebase>30</timebase>
												<ntsc>TRUE</ntsc>
											</rate>
											<name>Nested Sequence 03</name>
											<media>
												<video>
													<format>
														<samplecharacteristics>
															<rate>
																<timebase>30</timebase>
																<ntsc>TRUE</ntsc>
															</rate>
															<codec>
																<name>Apple ProRes 422</name>
																<appspecificdata>
																	<appname>Final Cut Pro</appname>
																	<appmanufacturer>Apple Inc.</appmanufacturer>
																	<appversion>7.0</appversion>
																	<data>
																		<qtcodec>
																			<codecname>Apple ProRes 422</codecname>
																			<codectypename>Apple ProRes 422</codectypename>
																			<codectypecode>apcn</codectypecode>
																			<codecvendorcode>appl</codecvendorcode>
																			<spatialquality>1024</spatialquality>
																			<temporalquality>0</temporalquality>
																			<keyframerate>0</keyframerate>
																			<datarate>0</datarate>
																		</qtcodec>
																	</data>
																</appspecificdata>
															</codec>
															<width>1920</width>
															<height>1080</height>
															<anamorphic>FALSE</anamorphic>
															<pixelaspectratio>square</pixelaspectratio>
															<fielddominance>none</fielddominance>
															<colordepth>24</colordepth>
														</samplecharacteristics>
													</format>
													<track TL.SQTrackShy="0" TL.SQTrackExpandedHeight="25" TL.SQTrackExpanded="0" MZ.TrackTargeted="1">
														<clipitem id="clipitem-316">
															<masterclipid>masterclip-16</masterclipid>
															<name>(krissharv3y)_BVC4yaIAVXR_IG.mp4</name>
															<enabled>TRUE</enabled>
															<duration>859</duration>
															<rate>
																<timebase>30</timebase>
																<ntsc>TRUE</ntsc>
															</rate>
															<start>0</start>
															<end>276</end>
															<in>0</in>
															<out>276</out>
															<pproTicksIn>0</pproTicksIn>
															<pproTicksOut>2339284147200</pproTicksOut>
															<alphatype>none</alphatype>
															<file id="file-16"/>
															<filter>
																<effect>
																	<name>Basic Motion</name>
																	<effectid>basic</effectid>
																	<effectcategory>motion</effectcategory>
																	<effecttype>motion</effecttype>
																	<mediatype>video</mediatype>
																	<pproBypass>false</pproBypass>
																	<parameter authoringApp="PremierePro">
																		<parameterid>scale</parameterid>
																		<name>Scale</name>
																		<valuemin>0</valuemin>
																		<valuemax>1000</valuemax>
																		<value>150</value>
																	</parameter>
																	<parameter authoringApp="PremierePro">
																		<parameterid>rotation</parameterid>
																		<name>Rotation</name>
																		<valuemin>-8640</valuemin>
																		<valuemax>8640</valuemax>
																		<value>0</value>
																	</parameter>
																	<parameter authoringApp="PremierePro">
																		<parameterid>center</parameterid>
																		<name>Center</name>
																		<value>
																			<horiz>0</horiz>
																			<vert>0</vert>
																		</value>
																	</parameter>
																	<parameter authoringApp="PremierePro">
																		<parameterid>centerOffset</parameterid>
																		<name>Anchor Point</name>
																		<value>
																			<horiz>0</horiz>
																			<vert>0</vert>
																		</value>
																	</parameter>
																	<parameter authoringApp="PremierePro">
																		<parameterid>antiflicker</parameterid>
																		<name>Anti-flicker Filter</name>
																		<valuemin>0.0</valuemin>
																		<valuemax>1.0</valuemax>
																		<value>0</value>
																	</parameter>
																</effect>
															</filter>
															<logginginfo>
																<description></description>
																<scene></scene>
																<shottake></shottake>
																<lognote></lognote>
																<good></good>
																<originalvideofilename></originalvideofilename>
																<originalaudiofilename></originalaudiofilename>
															</logginginfo>
															<colorinfo>
																<lut></lut>
																<lut1></lut1>
																<asc_sop></asc_sop>
																<asc_sat></asc_sat>
																<lut2></lut2>
															</colorinfo>
														</clipitem>
														<clipitem id="clipitem-317">
															<masterclipid>masterclip-18</masterclipid>
															<name>(krissharv3y)_BosK899gPWg_IG.mp4</name>
															<enabled>TRUE</enabled>
															<duration>1311</duration>
															<rate>
																<timebase>30</timebase>
																<ntsc>TRUE</ntsc>
															</rate>
															<start>276</start>
															<end>532</end>
															<in>166</in>
															<out>422</out>
															<pproTicksIn>1406960755200</pproTicksIn>
															<pproTicksOut>3576731558400</pproTicksOut>
															<alphatype>none</alphatype>
															<file id="file-18"/>
															<filter>
																<effect>
																	<name>Basic Motion</name>
																	<effectid>basic</effectid>
																	<effectcategory>motion</effectcategory>
																	<effecttype>motion</effecttype>
																	<mediatype>video</mediatype>
																	<pproBypass>false</pproBypass>
																	<parameter authoringApp="PremierePro">
																		<parameterid>scale</parameterid>
																		<name>Scale</name>
																		<valuemin>0</valuemin>
																		<valuemax>1000</valuemax>
																		<value>168.75</value>
																	</parameter>
																	<parameter authoringApp="PremierePro">
																		<parameterid>rotation</parameterid>
																		<name>Rotation</name>
																		<valuemin>-8640</valuemin>
																		<valuemax>8640</valuemax>
																		<value>0</value>
																	</parameter>
																	<parameter authoringApp="PremierePro">
																		<parameterid>center</parameterid>
																		<name>Center</name>
																		<value>
																			<horiz>0</horiz>
																			<vert>0</vert>
																		</value>
																	</parameter>
																	<parameter authoringApp="PremierePro">
																		<parameterid>centerOffset</parameterid>
																		<name>Anchor Point</name>
																		<value>
																			<horiz>0</horiz>
																			<vert>0</vert>
																		</value>
																	</parameter>
																	<parameter authoringApp="PremierePro">
																		<parameterid>antiflicker</parameterid>
																		<name>Anti-flicker Filter</name>
																		<valuemin>0.0</valuemin>
																		<valuemax>1.0</valuemax>
																		<value>0</value>
																	</parameter>
																</effect>
															</filter>
															<logginginfo>
																<description></description>
																<scene></scene>
																<shottake></shottake>
																<lognote></lognote>
																<good></good>
																<originalvideofilename></originalvideofilename>
																<originalaudiofilename></originalaudiofilename>
															</logginginfo>
															<colorinfo>
																<lut></lut>
																<lut1></lut1>
																<asc_sop></asc_sop>
																<asc_sat></asc_sat>
																<lut2></lut2>
															</colorinfo>
														</clipitem>
														<clipitem id="clipitem-318">
															<masterclipid>masterclip-18</masterclipid>
															<name>(krissharv3y)_BosK899gPWg_IG.mp4</name>
															<enabled>TRUE</enabled>
															<duration>1311</duration>
															<rate>
																<timebase>30</timebase>
																<ntsc>TRUE</ntsc>
															</rate>
															<start>532</start>
															<end>830</end>
															<in>706</in>
															<out>1004</out>
															<pproTicksIn>5983821043200</pproTicksIn>
															<pproTicksOut>8509569868800</pproTicksOut>
															<alphatype>none</alphatype>
															<file id="file-18"/>
															<filter>
																<effect>
																	<name>Basic Motion</name>
																	<effectid>basic</effectid>
																	<effectcategory>motion</effectcategory>
																	<effecttype>motion</effecttype>
																	<mediatype>video</mediatype>
																	<pproBypass>false</pproBypass>
																	<parameter authoringApp="PremierePro">
																		<parameterid>scale</parameterid>
																		<name>Scale</name>
																		<valuemin>0</valuemin>
																		<valuemax>1000</valuemax>
																		<value>168.75</value>
																	</parameter>
																	<parameter authoringApp="PremierePro">
																		<parameterid>rotation</parameterid>
																		<name>Rotation</name>
																		<valuemin>-8640</valuemin>
																		<valuemax>8640</valuemax>
																		<value>0</value>
																	</parameter>
																	<parameter authoringApp="PremierePro">
																		<parameterid>center</parameterid>
																		<name>Center</name>
																		<value>
																			<horiz>0</horiz>
																			<vert>0</vert>
																		</value>
																	</parameter>
																	<parameter authoringApp="PremierePro">
																		<parameterid>centerOffset</parameterid>
																		<name>Anchor Point</name>
																		<value>
																			<horiz>0</horiz>
																			<vert>0</vert>
																		</value>
																	</parameter>
																	<parameter authoringApp="PremierePro">
																		<parameterid>antiflicker</parameterid>
																		<name>Anti-flicker Filter</name>
																		<valuemin>0.0</valuemin>
																		<valuemax>1.0</valuemax>
																		<value>0</value>
																	</parameter>
																</effect>
															</filter>
															<logginginfo>
																<description></description>
																<scene></scene>
																<shottake></shottake>
																<lognote></lognote>
																<good></good>
																<originalvideofilename></originalvideofilename>
																<originalaudiofilename></originalaudiofilename>
															</logginginfo>
															<colorinfo>
																<lut></lut>
																<lut1></lut1>
																<asc_sop></asc_sop>
																<asc_sat></asc_sat>
																<lut2></lut2>
															</colorinfo>
														</clipitem>
														<clipitem id="clipitem-319">
															<masterclipid>masterclip-20</masterclipid>
															<name>(krissharv3y)_Brqx9YTlmqX_IG.mp4</name>
															<enabled>TRUE</enabled>
															<duration>1081</duration>
															<rate>
																<timebase>30</timebase>
																<ntsc>TRUE</ntsc>
															</rate>
															<start>830</start>
															<end>1011</end>
															<in>120</in>
															<out>301</out>
															<pproTicksIn>1017080064000</pproTicksIn>
															<pproTicksOut>2551175827200</pproTicksOut>
															<alphatype>none</alphatype>
															<file id="file-20"/>
															<filter>
																<effect>
																	<name>Basic Motion</name>
																	<effectid>basic</effectid>
																	<effectcategory>motion</effectcategory>
																	<effecttype>motion</effecttype>
																	<mediatype>video</mediatype>
																	<pproBypass>false</pproBypass>
																	<parameter authoringApp="PremierePro">
																		<parameterid>scale</parameterid>
																		<name>Scale</name>
																		<valuemin>0</valuemin>
																		<valuemax>1000</valuemax>
																		<value>150</value>
																	</parameter>
																	<parameter authoringApp="PremierePro">
																		<parameterid>rotation</parameterid>
																		<name>Rotation</name>
																		<valuemin>-8640</valuemin>
																		<valuemax>8640</valuemax>
																		<value>0</value>
																	</parameter>
																	<parameter authoringApp="PremierePro">
																		<parameterid>center</parameterid>
																		<name>Center</name>
																		<value>
																			<horiz>0</horiz>
																			<vert>0</vert>
																		</value>
																	</parameter>
																	<parameter authoringApp="PremierePro">
																		<parameterid>centerOffset</parameterid>
																		<name>Anchor Point</name>
																		<value>
																			<horiz>0</horiz>
																			<vert>0</vert>
																		</value>
																	</parameter>
																	<parameter authoringApp="PremierePro">
																		<parameterid>antiflicker</parameterid>
																		<name>Anti-flicker Filter</name>
																		<valuemin>0.0</valuemin>
																		<valuemax>1.0</valuemax>
																		<value>0</value>
																	</parameter>
																</effect>
															</filter>
															<logginginfo>
																<description></description>
																<scene></scene>
																<shottake></shottake>
																<lognote></lognote>
																<good></good>
																<originalvideofilename></originalvideofilename>
																<originalaudiofilename></originalaudiofilename>
															</logginginfo>
															<colorinfo>
																<lut></lut>
																<lut1></lut1>
																<asc_sop></asc_sop>
																<asc_sat></asc_sat>
																<lut2></lut2>
															</colorinfo>
														</clipitem>
														<clipitem id="clipitem-320">
															<masterclipid>masterclip-20</masterclipid>
															<name>(krissharv3y)_Brqx9YTlmqX_IG.mp4</name>
															<enabled>TRUE</enabled>
															<duration>1081</duration>
															<rate>
																<timebase>30</timebase>
																<ntsc>TRUE</ntsc>
															</rate>
															<start>1011</start>
															<end>1147</end>
															<in>417</in>
															<out>553</out>
															<pproTicksIn>3534353222400</pproTicksIn>
															<pproTicksOut>4687043961600</pproTicksOut>
															<alphatype>none</alphatype>
															<file id="file-20"/>
															<filter>
																<effect>
																	<name>Basic Motion</name>
																	<effectid>basic</effectid>
																	<effectcategory>motion</effectcategory>
																	<effecttype>motion</effecttype>
																	<mediatype>video</mediatype>
																	<pproBypass>false</pproBypass>
																	<parameter authoringApp="PremierePro">
																		<parameterid>scale</parameterid>
																		<name>Scale</name>
																		<valuemin>0</valuemin>
																		<valuemax>1000</valuemax>
																		<value>150</value>
																	</parameter>
																	<parameter authoringApp="PremierePro">
																		<parameterid>rotation</parameterid>
																		<name>Rotation</name>
																		<valuemin>-8640</valuemin>
																		<valuemax>8640</valuemax>
																		<value>0</value>
																	</parameter>
																	<parameter authoringApp="PremierePro">
																		<parameterid>center</parameterid>
																		<name>Center</name>
																		<value>
																			<horiz>0</horiz>
																			<vert>0</vert>
																		</value>
																	</parameter>
																	<parameter authoringApp="PremierePro">
																		<parameterid>centerOffset</parameterid>
																		<name>Anchor Point</name>
																		<value>
																			<horiz>0</horiz>
																			<vert>0</vert>
																		</value>
																	</parameter>
																	<parameter authoringApp="PremierePro">
																		<parameterid>antiflicker</parameterid>
																		<name>Anti-flicker Filter</name>
																		<valuemin>0.0</valuemin>
																		<valuemax>1.0</valuemax>
																		<value>0</value>
																	</parameter>
																</effect>
															</filter>
															<logginginfo>
																<description></description>
																<scene></scene>
																<shottake></shottake>
																<lognote></lognote>
																<good></good>
																<originalvideofilename></originalvideofilename>
																<originalaudiofilename></originalaudiofilename>
															</logginginfo>
															<colorinfo>
																<lut></lut>
																<lut1></lut1>
																<asc_sop></asc_sop>
																<asc_sat></asc_sat>
																<lut2></lut2>
															</colorinfo>
														</clipitem>
														<clipitem id="clipitem-321">
															<masterclipid>masterclip-21</masterclipid>
															<name>(krissharv3y)_BuepdmolEHP_IG.mp4</name>
															<enabled>TRUE</enabled>
															<duration>1706</duration>
															<rate>
																<timebase>30</timebase>
																<ntsc>TRUE</ntsc>
															</rate>
															<start>1147</start>
															<end>1512</end>
															<in>0</in>
															<out>365</out>
															<pproTicksIn>0</pproTicksIn>
															<pproTicksOut>3093618528000</pproTicksOut>
															<alphatype>none</alphatype>
															<file id="file-21"/>
															<filter>
																<effect>
																	<name>Basic Motion</name>
																	<effectid>basic</effectid>
																	<effectcategory>motion</effectcategory>
																	<effecttype>motion</effecttype>
																	<mediatype>video</mediatype>
																	<pproBypass>false</pproBypass>
																	<parameter authoringApp="PremierePro">
																		<parameterid>scale</parameterid>
																		<name>Scale</name>
																		<valuemin>0</valuemin>
																		<valuemax>1000</valuemax>
																		<value>150</value>
																	</parameter>
																	<parameter authoringApp="PremierePro">
																		<parameterid>rotation</parameterid>
																		<name>Rotation</name>
																		<valuemin>-8640</valuemin>
																		<valuemax>8640</valuemax>
																		<value>0</value>
																	</parameter>
																	<parameter authoringApp="PremierePro">
																		<parameterid>center</parameterid>
																		<name>Center</name>
																		<value>
																			<horiz>0</horiz>
																			<vert>0</vert>
																		</value>
																	</parameter>
																	<parameter authoringApp="PremierePro">
																		<parameterid>centerOffset</parameterid>
																		<name>Anchor Point</name>
																		<value>
																			<horiz>0</horiz>
																			<vert>0</vert>
																		</value>
																	</parameter>
																	<parameter authoringApp="PremierePro">
																		<parameterid>antiflicker</parameterid>
																		<name>Anti-flicker Filter</name>
																		<valuemin>0.0</valuemin>
																		<valuemax>1.0</valuemax>
																		<value>0</value>
																	</parameter>
																</effect>
															</filter>
															<logginginfo>
																<description></description>
																<scene></scene>
																<shottake></shottake>
																<lognote></lognote>
																<good></good>
																<originalvideofilename></originalvideofilename>
																<originalaudiofilename></originalaudiofilename>
															</logginginfo>
															<colorinfo>
																<lut></lut>
																<lut1></lut1>
																<asc_sop></asc_sop>
																<asc_sat></asc_sat>
																<lut2></lut2>
															</colorinfo>
														</clipitem>
														<clipitem id="clipitem-322">
															<masterclipid>masterclip-21</masterclipid>
															<name>(krissharv3y)_BuepdmolEHP_IG.mp4</name>
															<enabled>TRUE</enabled>
															<duration>1706</duration>
															<rate>
																<timebase>30</timebase>
																<ntsc>TRUE</ntsc>
															</rate>
															<start>1512</start>
															<end>1686</end>
															<in>526</in>
															<out>700</out>
															<pproTicksIn>4458200947200</pproTicksIn>
															<pproTicksOut>5932967040000</pproTicksOut>
															<alphatype>none</alphatype>
															<file id="file-21"/>
															<filter>
																<effect>
																	<name>Basic Motion</name>
																	<effectid>basic</effectid>
																	<effectcategory>motion</effectcategory>
																	<effecttype>motion</effecttype>
																	<mediatype>video</mediatype>
																	<pproBypass>false</pproBypass>
																	<parameter authoringApp="PremierePro">
																		<parameterid>scale</parameterid>
																		<name>Scale</name>
																		<valuemin>0</valuemin>
																		<valuemax>1000</valuemax>
																		<value>150</value>
																	</parameter>
																	<parameter authoringApp="PremierePro">
																		<parameterid>rotation</parameterid>
																		<name>Rotation</name>
																		<valuemin>-8640</valuemin>
																		<valuemax>8640</valuemax>
																		<value>0</value>
																	</parameter>
																	<parameter authoringApp="PremierePro">
																		<parameterid>center</parameterid>
																		<name>Center</name>
																		<value>
																			<horiz>0</horiz>
																			<vert>0</vert>
																		</value>
																	</parameter>
																	<parameter authoringApp="PremierePro">
																		<parameterid>centerOffset</parameterid>
																		<name>Anchor Point</name>
																		<value>
																			<horiz>0</horiz>
																			<vert>0</vert>
																		</value>
																	</parameter>
																	<parameter authoringApp="PremierePro">
																		<parameterid>antiflicker</parameterid>
																		<name>Anti-flicker Filter</name>
																		<valuemin>0.0</valuemin>
																		<valuemax>1.0</valuemax>
																		<value>0</value>
																	</parameter>
																</effect>
															</filter>
															<logginginfo>
																<description></description>
																<scene></scene>
																<shottake></shottake>
																<lognote></lognote>
																<good></good>
																<originalvideofilename></originalvideofilename>
																<originalaudiofilename></originalaudiofilename>
															</logginginfo>
															<colorinfo>
																<lut></lut>
																<lut1></lut1>
																<asc_sop></asc_sop>
																<asc_sat></asc_sat>
																<lut2></lut2>
															</colorinfo>
														</clipitem>
														<clipitem id="clipitem-323">
															<masterclipid>masterclip-22</masterclipid>
															<name>(krissharv3y)_BwU9t6TF1kz_IG.mp4</name>
															<enabled>TRUE</enabled>
															<duration>1763</duration>
															<rate>
																<timebase>30</timebase>
																<ntsc>TRUE</ntsc>
															</rate>
															<start>1686</start>
															<end>1983</end>
															<in>779</in>
															<out>1076</out>
															<pproTicksIn>6602544748800</pproTicksIn>
															<pproTicksOut>9119817907200</pproTicksOut>
															<alphatype>none</alphatype>
															<file id="file-22"/>
															<filter>
																<effect>
																	<name>Basic Motion</name>
																	<effectid>basic</effectid>
																	<effectcategory>motion</effectcategory>
																	<effecttype>motion</effecttype>
																	<mediatype>video</mediatype>
																	<pproBypass>false</pproBypass>
																	<parameter authoringApp="PremierePro">
																		<parameterid>scale</parameterid>
																		<name>Scale</name>
																		<valuemin>0</valuemin>
																		<valuemax>1000</valuemax>
																		<value>150</value>
																	</parameter>
																	<parameter authoringApp="PremierePro">
																		<parameterid>rotation</parameterid>
																		<name>Rotation</name>
																		<valuemin>-8640</valuemin>
																		<valuemax>8640</valuemax>
																		<value>0</value>
																	</parameter>
																	<parameter authoringApp="PremierePro">
																		<parameterid>center</parameterid>
																		<name>Center</name>
																		<value>
																			<horiz>0</horiz>
																			<vert>0</vert>
																		</value>
																	</parameter>
																	<parameter authoringApp="PremierePro">
																		<parameterid>centerOffset</parameterid>
																		<name>Anchor Point</name>
																		<value>
																			<horiz>0</horiz>
																			<vert>0</vert>
																		</value>
																	</parameter>
																	<parameter authoringApp="PremierePro">
																		<parameterid>antiflicker</parameterid>
																		<name>Anti-flicker Filter</name>
																		<valuemin>0.0</valuemin>
																		<valuemax>1.0</valuemax>
																		<value>0</value>
																	</parameter>
																</effect>
															</filter>
															<logginginfo>
																<description></description>
																<scene></scene>
																<shottake></shottake>
																<lognote></lognote>
																<good></good>
																<originalvideofilename></originalvideofilename>
																<originalaudiofilename></originalaudiofilename>
															</logginginfo>
															<colorinfo>
																<lut></lut>
																<lut1></lut1>
																<asc_sop></asc_sop>
																<asc_sat></asc_sat>
																<lut2></lut2>
															</colorinfo>
														</clipitem>
														<clipitem id="clipitem-324">
															<masterclipid>masterclip-22</masterclipid>
															<name>(krissharv3y)_BwU9t6TF1kz_IG.mp4</name>
															<enabled>TRUE</enabled>
															<duration>1763</duration>
															<rate>
																<timebase>30</timebase>
																<ntsc>TRUE</ntsc>
															</rate>
															<start>1983</start>
															<end>2275</end>
															<in>1229</in>
															<out>1521</out>
															<pproTicksIn>10416594988800</pproTicksIn>
															<pproTicksOut>12891489811200</pproTicksOut>
															<alphatype>none</alphatype>
															<file id="file-22"/>
															<filter>
																<effect>
																	<name>Basic Motion</name>
																	<effectid>basic</effectid>
																	<effectcategory>motion</effectcategory>
																	<effecttype>motion</effecttype>
																	<mediatype>video</mediatype>
																	<pproBypass>false</pproBypass>
																	<parameter authoringApp="PremierePro">
																		<parameterid>scale</parameterid>
																		<name>Scale</name>
																		<valuemin>0</valuemin>
																		<valuemax>1000</valuemax>
																		<value>150</value>
																	</parameter>
																	<parameter authoringApp="PremierePro">
																		<parameterid>rotation</parameterid>
																		<name>Rotation</name>
																		<valuemin>-8640</valuemin>
																		<valuemax>8640</valuemax>
																		<value>0</value>
																	</parameter>
																	<parameter authoringApp="PremierePro">
																		<parameterid>center</parameterid>
																		<name>Center</name>
																		<value>
																			<horiz>0</horiz>
																			<vert>0</vert>
																		</value>
																	</parameter>
																	<parameter authoringApp="PremierePro">
																		<parameterid>centerOffset</parameterid>
																		<name>Anchor Point</name>
																		<value>
																			<horiz>0</horiz>
																			<vert>0</vert>
																		</value>
																	</parameter>
																	<parameter authoringApp="PremierePro">
																		<parameterid>antiflicker</parameterid>
																		<name>Anti-flicker Filter</name>
																		<valuemin>0.0</valuemin>
																		<valuemax>1.0</valuemax>
																		<value>0</value>
																	</parameter>
																</effect>
															</filter>
															<logginginfo>
																<description></description>
																<scene></scene>
																<shottake></shottake>
																<lognote></lognote>
																<good></good>
																<originalvideofilename></originalvideofilename>
																<originalaudiofilename></originalaudiofilename>
															</logginginfo>
															<colorinfo>
																<lut></lut>
																<lut1></lut1>
																<asc_sop></asc_sop>
																<asc_sat></asc_sat>
																<lut2></lut2>
															</colorinfo>
														</clipitem>
														<clipitem id="clipitem-325">
															<masterclipid>masterclip-17</masterclipid>
															<name>(krissharv3y)_BklONb0l49j_IG.mp4</name>
															<enabled>TRUE</enabled>
															<duration>1437</duration>
															<rate>
																<timebase>30</timebase>
																<ntsc>TRUE</ntsc>
															</rate>
															<start>2275</start>
															<end>2585</end>
															<in>644</in>
															<out>954</out>
															<pproTicksIn>5458329676800</pproTicksIn>
															<pproTicksOut>8085786508800</pproTicksOut>
															<alphatype>none</alphatype>
															<file id="file-17"/>
															<filter>
																<effect>
																	<name>Basic Motion</name>
																	<effectid>basic</effectid>
																	<effectcategory>motion</effectcategory>
																	<effecttype>motion</effecttype>
																	<mediatype>video</mediatype>
																	<pproBypass>false</pproBypass>
																	<parameter authoringApp="PremierePro">
																		<parameterid>scale</parameterid>
																		<name>Scale</name>
																		<valuemin>0</valuemin>
																		<valuemax>1000</valuemax>
																		<value>168.75</value>
																	</parameter>
																	<parameter authoringApp="PremierePro">
																		<parameterid>rotation</parameterid>
																		<name>Rotation</name>
																		<valuemin>-8640</valuemin>
																		<valuemax>8640</valuemax>
																		<value>0</value>
																	</parameter>
																	<parameter authoringApp="PremierePro">
																		<parameterid>center</parameterid>
																		<name>Center</name>
																		<value>
																			<horiz>0</horiz>
																			<vert>0</vert>
																		</value>
																	</parameter>
																	<parameter authoringApp="PremierePro">
																		<parameterid>centerOffset</parameterid>
																		<name>Anchor Point</name>
																		<value>
																			<horiz>0</horiz>
																			<vert>0</vert>
																		</value>
																	</parameter>
																	<parameter authoringApp="PremierePro">
																		<parameterid>antiflicker</parameterid>
																		<name>Anti-flicker Filter</name>
																		<valuemin>0.0</valuemin>
																		<valuemax>1.0</valuemax>
																		<value>0</value>
																	</parameter>
																</effect>
															</filter>
															<logginginfo>
																<description></description>
																<scene></scene>
																<shottake></shottake>
																<lognote></lognote>
																<good></good>
																<originalvideofilename></originalvideofilename>
																<originalaudiofilename></originalaudiofilename>
															</logginginfo>
															<colorinfo>
																<lut></lut>
																<lut1></lut1>
																<asc_sop></asc_sop>
																<asc_sat></asc_sat>
																<lut2></lut2>
															</colorinfo>
														</clipitem>
														<clipitem id="clipitem-326">
															<masterclipid>masterclip-9</masterclipid>
															<name>(_sophieskitchen)_BcAZRyWjfoH_IG.mp4</name>
															<enabled>TRUE</enabled>
															<duration>1010</duration>
															<rate>
																<timebase>30</timebase>
																<ntsc>TRUE</ntsc>
															</rate>
															<start>2585</start>
															<end>2605</end>
															<in>112</in>
															<out>132</out>
															<pproTicksIn>949274726400</pproTicksIn>
															<pproTicksOut>1118788070400</pproTicksOut>
															<alphatype>none</alphatype>
															<file id="file-9"/>
															<logginginfo>
																<description></description>
																<scene></scene>
																<shottake></shottake>
																<lognote></lognote>
																<good></good>
																<originalvideofilename></originalvideofilename>
																<originalaudiofilename></originalaudiofilename>
															</logginginfo>
															<colorinfo>
																<lut></lut>
																<lut1></lut1>
																<asc_sop></asc_sop>
																<asc_sat></asc_sat>
																<lut2></lut2>
															</colorinfo>
														</clipitem>
														<clipitem id="clipitem-327">
															<masterclipid>masterclip-9</masterclipid>
															<name>(_sophieskitchen)_BcAZRyWjfoH_IG.mp4</name>
															<enabled>TRUE</enabled>
															<duration>1010</duration>
															<rate>
																<timebase>30</timebase>
																<ntsc>TRUE</ntsc>
															</rate>
															<start>2605</start>
															<end>2759</end>
															<in>390</in>
															<out>544</out>
															<pproTicksIn>3305510208000</pproTicksIn>
															<pproTicksOut>4610762956800</pproTicksOut>
															<alphatype>none</alphatype>
															<file id="file-9"/>
															<logginginfo>
																<description></description>
																<scene></scene>
																<shottake></shottake>
																<lognote></lognote>
																<good></good>
																<originalvideofilename></originalvideofilename>
																<originalaudiofilename></originalaudiofilename>
															</logginginfo>
															<colorinfo>
																<lut></lut>
																<lut1></lut1>
																<asc_sop></asc_sop>
																<asc_sat></asc_sat>
																<lut2></lut2>
															</colorinfo>
														</clipitem>
														<clipitem id="clipitem-328">
															<masterclipid>masterclip-9</masterclipid>
															<name>(_sophieskitchen)_BcAZRyWjfoH_IG.mp4</name>
															<enabled>TRUE</enabled>
															<duration>1010</duration>
															<rate>
																<timebase>30</timebase>
																<ntsc>TRUE</ntsc>
															</rate>
															<start>2759</start>
															<end>2870</end>
															<in>664</in>
															<out>775</out>
															<pproTicksIn>5627843020800</pproTicksIn>
															<pproTicksOut>6568642080000</pproTicksOut>
															<alphatype>none</alphatype>
															<file id="file-9"/>
															<logginginfo>
																<description></description>
																<scene></scene>
																<shottake></shottake>
																<lognote></lognote>
																<good></good>
																<originalvideofilename></originalvideofilename>
																<originalaudiofilename></originalaudiofilename>
															</logginginfo>
															<colorinfo>
																<lut></lut>
																<lut1></lut1>
																<asc_sop></asc_sop>
																<asc_sat></asc_sat>
																<lut2></lut2>
															</colorinfo>
														</clipitem>
														<clipitem id="clipitem-329">
															<masterclipid>masterclip-10</masterclipid>
															<name>(_sophieskitchen)_BcPu2i3DFLY_IG.mp4</name>
															<enabled>TRUE</enabled>
															<duration>1416</duration>
															<rate>
																<timebase>30</timebase>
																<ntsc>TRUE</ntsc>
															</rate>
															<start>2870</start>
															<end>2984</end>
															<in>40</in>
															<out>154</out>
															<pproTicksIn>339026688000</pproTicksIn>
															<pproTicksOut>1305252748800</pproTicksOut>
															<alphatype>none</alphatype>
															<file id="file-10"/>
															<logginginfo>
																<description></description>
																<scene></scene>
																<shottake></shottake>
																<lognote></lognote>
																<good></good>
																<originalvideofilename></originalvideofilename>
																<originalaudiofilename></originalaudiofilename>
															</logginginfo>
															<colorinfo>
																<lut></lut>
																<lut1></lut1>
																<asc_sop></asc_sop>
																<asc_sat></asc_sat>
																<lut2></lut2>
															</colorinfo>
														</clipitem>
														<clipitem id="clipitem-330">
															<masterclipid>masterclip-10</masterclipid>
															<name>(_sophieskitchen)_BcPu2i3DFLY_IG.mp4</name>
															<enabled>TRUE</enabled>
															<duration>1416</duration>
															<rate>
																<timebase>30</timebase>
																<ntsc>TRUE</ntsc>
															</rate>
															<start>2984</start>
															<end>3105</end>
															<in>214</in>
															<out>335</out>
															<pproTicksIn>1813792780800</pproTicksIn>
															<pproTicksOut>2839348512000</pproTicksOut>
															<alphatype>none</alphatype>
															<file id="file-10"/>
															<logginginfo>
																<description></description>
																<scene></scene>
																<shottake></shottake>
																<lognote></lognote>
																<good></good>
																<originalvideofilename></originalvideofilename>
																<originalaudiofilename></originalaudiofilename>
															</logginginfo>
															<colorinfo>
																<lut></lut>
																<lut1></lut1>
																<asc_sop></asc_sop>
																<asc_sat></asc_sat>
																<lut2></lut2>
															</colorinfo>
														</clipitem>
														<clipitem id="clipitem-331">
															<masterclipid>masterclip-10</masterclipid>
															<name>(_sophieskitchen)_BcPu2i3DFLY_IG.mp4</name>
															<enabled>TRUE</enabled>
															<duration>1416</duration>
															<rate>
																<timebase>30</timebase>
																<ntsc>TRUE</ntsc>
															</rate>
															<start>3105</start>
															<end>3220</end>
															<in>507</in>
															<out>622</out>
															<pproTicksIn>4297163270400</pproTicksIn>
															<pproTicksOut>5271864998400</pproTicksOut>
															<alphatype>none</alphatype>
															<file id="file-10"/>
															<logginginfo>
																<description></description>
																<scene></scene>
																<shottake></shottake>
																<lognote></lognote>
																<good></good>
																<originalvideofilename></originalvideofilename>
																<originalaudiofilename></originalaudiofilename>
															</logginginfo>
															<colorinfo>
																<lut></lut>
																<lut1></lut1>
																<asc_sop></asc_sop>
																<asc_sat></asc_sat>
																<lut2></lut2>
															</colorinfo>
														</clipitem>
														<clipitem id="clipitem-332">
															<masterclipid>masterclip-10</masterclipid>
															<name>(_sophieskitchen)_BcPu2i3DFLY_IG.mp4</name>
															<enabled>TRUE</enabled>
															<duration>1416</duration>
															<rate>
																<timebase>30</timebase>
																<ntsc>TRUE</ntsc>
															</rate>
															<start>3220</start>
															<end>3380</end>
															<in>794</in>
															<out>954</out>
															<pproTicksIn>6729679756800</pproTicksIn>
															<pproTicksOut>8085786508800</pproTicksOut>
															<alphatype>none</alphatype>
															<file id="file-10"/>
															<logginginfo>
																<description></description>
																<scene></scene>
																<shottake></shottake>
																<lognote></lognote>
																<good></good>
																<originalvideofilename></originalvideofilename>
																<originalaudiofilename></originalaudiofilename>
															</logginginfo>
															<colorinfo>
																<lut></lut>
																<lut1></lut1>
																<asc_sop></asc_sop>
																<asc_sat></asc_sat>
																<lut2></lut2>
															</colorinfo>
														</clipitem>
														<clipitem id="clipitem-333">
															<masterclipid>masterclip-11</masterclipid>
															<name>(_sophieskitchen)_BcXijgvDeS5_IG.mp4</name>
															<enabled>TRUE</enabled>
															<duration>1535</duration>
															<rate>
																<timebase>30</timebase>
																<ntsc>TRUE</ntsc>
															</rate>
															<start>3380</start>
															<end>3462</end>
															<in>86</in>
															<out>168</out>
															<pproTicksIn>728907379200</pproTicksIn>
															<pproTicksOut>1423912089600</pproTicksOut>
															<alphatype>none</alphatype>
															<file id="file-11"/>
															<logginginfo>
																<description></description>
																<scene></scene>
																<shottake></shottake>
																<lognote></lognote>
																<good></good>
																<originalvideofilename></originalvideofilename>
																<originalaudiofilename></originalaudiofilename>
															</logginginfo>
															<colorinfo>
																<lut></lut>
																<lut1></lut1>
																<asc_sop></asc_sop>
																<asc_sat></asc_sat>
																<lut2></lut2>
															</colorinfo>
														</clipitem>
														<clipitem id="clipitem-334">
															<masterclipid>masterclip-11</masterclipid>
															<name>(_sophieskitchen)_BcXijgvDeS5_IG.mp4</name>
															<enabled>TRUE</enabled>
															<duration>1535</duration>
															<rate>
																<timebase>30</timebase>
																<ntsc>TRUE</ntsc>
															</rate>
															<start>3462</start>
															<end>3561</end>
															<in>272</in>
															<out>371</out>
															<pproTicksIn>2305381478400</pproTicksIn>
															<pproTicksOut>3144472531200</pproTicksOut>
															<alphatype>none</alphatype>
															<file id="file-11"/>
															<logginginfo>
																<description></description>
																<scene></scene>
																<shottake></shottake>
																<lognote></lognote>
																<good></good>
																<originalvideofilename></originalvideofilename>
																<originalaudiofilename></originalaudiofilename>
															</logginginfo>
															<colorinfo>
																<lut></lut>
																<lut1></lut1>
																<asc_sop></asc_sop>
																<asc_sat></asc_sat>
																<lut2></lut2>
															</colorinfo>
														</clipitem>
														<clipitem id="clipitem-335">
															<masterclipid>masterclip-11</masterclipid>
															<name>(_sophieskitchen)_BcXijgvDeS5_IG.mp4</name>
															<enabled>TRUE</enabled>
															<duration>1535</duration>
															<rate>
																<timebase>30</timebase>
																<ntsc>TRUE</ntsc>
															</rate>
															<start>3561</start>
															<end>3702</end>
															<in>447</in>
															<out>588</out>
															<pproTicksIn>3788623238400</pproTicksIn>
															<pproTicksOut>4983692313600</pproTicksOut>
															<alphatype>none</alphatype>
															<file id="file-11"/>
															<logginginfo>
																<description></description>
																<scene></scene>
																<shottake></shottake>
																<lognote></lognote>
																<good></good>
																<originalvideofilename></originalvideofilename>
																<originalaudiofilename></originalaudiofilename>
															</logginginfo>
															<colorinfo>
																<lut></lut>
																<lut1></lut1>
																<asc_sop></asc_sop>
																<asc_sat></asc_sat>
																<lut2></lut2>
															</colorinfo>
														</clipitem>
														<clipitem id="clipitem-336">
															<masterclipid>masterclip-11</masterclipid>
															<name>(_sophieskitchen)_BcXijgvDeS5_IG.mp4</name>
															<enabled>TRUE</enabled>
															<duration>1535</duration>
															<rate>
																<timebase>30</timebase>
																<ntsc>TRUE</ntsc>
															</rate>
															<start>3702</start>
															<end>3830</end>
															<in>693</in>
															<out>821</out>
															<pproTicksIn>5873637369600</pproTicksIn>
															<pproTicksOut>6958522771200</pproTicksOut>
															<alphatype>none</alphatype>
															<file id="file-11"/>
															<logginginfo>
																<description></description>
																<scene></scene>
																<shottake></shottake>
																<lognote></lognote>
																<good></good>
																<originalvideofilename></originalvideofilename>
																<originalaudiofilename></originalaudiofilename>
															</logginginfo>
															<colorinfo>
																<lut></lut>
																<lut1></lut1>
																<asc_sop></asc_sop>
																<asc_sat></asc_sat>
																<lut2></lut2>
															</colorinfo>
														</clipitem>
														<clipitem id="clipitem-337">
															<masterclipid>masterclip-12</masterclipid>
															<name>(_sophieskitchen)_Bd0HSzxDkjg_IG.mp4</name>
															<enabled>TRUE</enabled>
															<duration>766</duration>
															<rate>
																<timebase>30</timebase>
																<ntsc>TRUE</ntsc>
															</rate>
															<start>3830</start>
															<end>3980</end>
															<in>50</in>
															<out>200</out>
															<pproTicksIn>423783360000</pproTicksIn>
															<pproTicksOut>1695133440000</pproTicksOut>
															<alphatype>none</alphatype>
															<file id="file-12"/>
															<logginginfo>
																<description></description>
																<scene></scene>
																<shottake></shottake>
																<lognote></lognote>
																<good></good>
																<originalvideofilename></originalvideofilename>
																<originalaudiofilename></originalaudiofilename>
															</logginginfo>
															<colorinfo>
																<lut></lut>
																<lut1></lut1>
																<asc_sop></asc_sop>
																<asc_sat></asc_sat>
																<lut2></lut2>
															</colorinfo>
														</clipitem>
														<clipitem id="clipitem-338">
															<masterclipid>masterclip-12</masterclipid>
															<name>(_sophieskitchen)_Bd0HSzxDkjg_IG.mp4</name>
															<enabled>TRUE</enabled>
															<duration>766</duration>
															<rate>
																<timebase>30</timebase>
																<ntsc>TRUE</ntsc>
															</rate>
															<start>3980</start>
															<end>4191</end>
															<in>421</in>
															<out>632</out>
															<pproTicksIn>3568255891200</pproTicksIn>
															<pproTicksOut>5356621670400</pproTicksOut>
															<alphatype>none</alphatype>
															<file id="file-12"/>
															<logginginfo>
																<description></description>
																<scene></scene>
																<shottake></shottake>
																<lognote></lognote>
																<good></good>
																<originalvideofilename></originalvideofilename>
																<originalaudiofilename></originalaudiofilename>
															</logginginfo>
															<colorinfo>
																<lut></lut>
																<lut1></lut1>
																<asc_sop></asc_sop>
																<asc_sat></asc_sat>
																<lut2></lut2>
															</colorinfo>
														</clipitem>
														<clipitem id="clipitem-339">
															<masterclipid>masterclip-13</masterclipid>
															<name>(_sophieskitchen)_Bbe1D3qjLvW_IG.mp4</name>
															<enabled>TRUE</enabled>
															<duration>1501</duration>
															<rate>
																<timebase>30</timebase>
																<ntsc>TRUE</ntsc>
															</rate>
															<start>4191</start>
															<end>4278</end>
															<in>158</in>
															<out>245</out>
															<pproTicksIn>1339155417600</pproTicksIn>
															<pproTicksOut>2076538464000</pproTicksOut>
															<alphatype>none</alphatype>
															<file id="file-13"/>
															<logginginfo>
																<description></description>
																<scene></scene>
																<shottake></shottake>
																<lognote></lognote>
																<good></good>
																<originalvideofilename></originalvideofilename>
																<originalaudiofilename></originalaudiofilename>
															</logginginfo>
															<colorinfo>
																<lut></lut>
																<lut1></lut1>
																<asc_sop></asc_sop>
																<asc_sat></asc_sat>
																<lut2></lut2>
															</colorinfo>
														</clipitem>
														<clipitem id="clipitem-340">
															<masterclipid>masterclip-13</masterclipid>
															<name>(_sophieskitchen)_Bbe1D3qjLvW_IG.mp4</name>
															<enabled>TRUE</enabled>
															<duration>1501</duration>
															<rate>
																<timebase>30</timebase>
																<ntsc>TRUE</ntsc>
															</rate>
															<start>4278</start>
															<end>4349</end>
															<in>287</in>
															<out>358</out>
															<pproTicksIn>2432516486400</pproTicksIn>
															<pproTicksOut>3034288857600</pproTicksOut>
															<alphatype>none</alphatype>
															<file id="file-13"/>
															<logginginfo>
																<description></description>
																<scene></scene>
																<shottake></shottake>
																<lognote></lognote>
																<good></good>
																<originalvideofilename></originalvideofilename>
																<originalaudiofilename></originalaudiofilename>
															</logginginfo>
															<colorinfo>
																<lut></lut>
																<lut1></lut1>
																<asc_sop></asc_sop>
																<asc_sat></asc_sat>
																<lut2></lut2>
															</colorinfo>
														</clipitem>
														<clipitem id="clipitem-341">
															<masterclipid>masterclip-13</masterclipid>
															<name>(_sophieskitchen)_Bbe1D3qjLvW_IG.mp4</name>
															<enabled>TRUE</enabled>
															<duration>1501</duration>
															<rate>
																<timebase>30</timebase>
																<ntsc>TRUE</ntsc>
															</rate>
															<start>4349</start>
															<end>4473</end>
															<in>557</in>
															<out>681</out>
															<pproTicksIn>4720946630400</pproTicksIn>
															<pproTicksOut>5771929363200</pproTicksOut>
															<alphatype>none</alphatype>
															<file id="file-13"/>
															<logginginfo>
																<description></description>
																<scene></scene>
																<shottake></shottake>
																<lognote></lognote>
																<good></good>
																<originalvideofilename></originalvideofilename>
																<originalaudiofilename></originalaudiofilename>
															</logginginfo>
															<colorinfo>
																<lut></lut>
																<lut1></lut1>
																<asc_sop></asc_sop>
																<asc_sat></asc_sat>
																<lut2></lut2>
															</colorinfo>
														</clipitem>
														<clipitem id="clipitem-342">
															<masterclipid>masterclip-13</masterclipid>
															<name>(_sophieskitchen)_Bbe1D3qjLvW_IG.mp4</name>
															<enabled>TRUE</enabled>
															<duration>1501</duration>
															<rate>
																<timebase>30</timebase>
																<ntsc>TRUE</ntsc>
															</rate>
															<start>4473</start>
															<end>4580</end>
															<in>957</in>
															<out>1064</out>
															<pproTicksIn>8111213510400</pproTicksIn>
															<pproTicksOut>9018109900800</pproTicksOut>
															<alphatype>none</alphatype>
															<file id="file-13"/>
															<logginginfo>
																<description></description>
																<scene></scene>
																<shottake></shottake>
																<lognote></lognote>
																<good></good>
																<originalvideofilename></originalvideofilename>
																<originalaudiofilename></originalaudiofilename>
															</logginginfo>
															<colorinfo>
																<lut></lut>
																<lut1></lut1>
																<asc_sop></asc_sop>
																<asc_sat></asc_sat>
																<lut2></lut2>
															</colorinfo>
														</clipitem>
														<clipitem id="clipitem-343">
															<masterclipid>masterclip-13</masterclipid>
															<name>(_sophieskitchen)_Bbe1D3qjLvW_IG.mp4</name>
															<enabled>TRUE</enabled>
															<duration>1501</duration>
															<rate>
																<timebase>30</timebase>
																<ntsc>TRUE</ntsc>
															</rate>
															<start>4580</start>
															<end>4679</end>
															<in>1281</in>
															<out>1380</out>
															<pproTicksIn>10857329683200</pproTicksIn>
															<pproTicksOut>11696420736000</pproTicksOut>
															<alphatype>none</alphatype>
															<file id="file-13"/>
															<logginginfo>
																<description></description>
																<scene></scene>
																<shottake></shottake>
																<lognote></lognote>
																<good></good>
																<originalvideofilename></originalvideofilename>
																<originalaudiofilename></originalaudiofilename>
															</logginginfo>
															<colorinfo>
																<lut></lut>
																<lut1></lut1>
																<asc_sop></asc_sop>
																<asc_sat></asc_sat>
																<lut2></lut2>
															</colorinfo>
														</clipitem>
														<clipitem id="clipitem-344">
															<masterclipid>masterclip-14</masterclipid>
															<name>(_sophieskitchen)_BbHt-F2DlVI_IG.mp4</name>
															<enabled>TRUE</enabled>
															<duration>1766</duration>
															<rate>
																<timebase>30</timebase>
																<ntsc>TRUE</ntsc>
															</rate>
															<start>4679</start>
															<end>4843</end>
															<in>190</in>
															<out>354</out>
															<pproTicksIn>1610376768000</pproTicksIn>
															<pproTicksOut>3000386188800</pproTicksOut>
															<alphatype>none</alphatype>
															<file id="file-14"/>
															<logginginfo>
																<description></description>
																<scene></scene>
																<shottake></shottake>
																<lognote></lognote>
																<good></good>
																<originalvideofilename></originalvideofilename>
																<originalaudiofilename></originalaudiofilename>
															</logginginfo>
															<colorinfo>
																<lut></lut>
																<lut1></lut1>
																<asc_sop></asc_sop>
																<asc_sat></asc_sat>
																<lut2></lut2>
															</colorinfo>
														</clipitem>
														<clipitem id="clipitem-345">
															<masterclipid>masterclip-14</masterclipid>
															<name>(_sophieskitchen)_BbHt-F2DlVI_IG.mp4</name>
															<enabled>TRUE</enabled>
															<duration>1766</duration>
															<rate>
																<timebase>30</timebase>
																<ntsc>TRUE</ntsc>
															</rate>
															<start>4843</start>
															<end>4911</end>
															<in>441</in>
															<out>509</out>
															<pproTicksIn>3737769235200</pproTicksIn>
															<pproTicksOut>4314114604800</pproTicksOut>
															<alphatype>none</alphatype>
															<file id="file-14"/>
															<logginginfo>
																<description></description>
																<scene></scene>
																<shottake></shottake>
																<lognote></lognote>
																<good></good>
																<originalvideofilename></originalvideofilename>
																<originalaudiofilename></originalaudiofilename>
															</logginginfo>
															<colorinfo>
																<lut></lut>
																<lut1></lut1>
																<asc_sop></asc_sop>
																<asc_sat></asc_sat>
																<lut2></lut2>
															</colorinfo>
														</clipitem>
														<clipitem id="clipitem-346">
															<masterclipid>masterclip-14</masterclipid>
															<name>(_sophieskitchen)_BbHt-F2DlVI_IG.mp4</name>
															<enabled>TRUE</enabled>
															<duration>1766</duration>
															<rate>
																<timebase>30</timebase>
																<ntsc>TRUE</ntsc>
															</rate>
															<start>4911</start>
															<end>5001</end>
															<in>656</in>
															<out>746</out>
															<pproTicksIn>5560037683200</pproTicksIn>
															<pproTicksOut>6322847731200</pproTicksOut>
															<alphatype>none</alphatype>
															<file id="file-14"/>
															<logginginfo>
																<description></description>
																<scene></scene>
																<shottake></shottake>
																<lognote></lognote>
																<good></good>
																<originalvideofilename></originalvideofilename>
																<originalaudiofilename></originalaudiofilename>
															</logginginfo>
															<colorinfo>
																<lut></lut>
																<lut1></lut1>
																<asc_sop></asc_sop>
																<asc_sat></asc_sat>
																<lut2></lut2>
															</colorinfo>
														</clipitem>
														<clipitem id="clipitem-347">
															<masterclipid>masterclip-14</masterclipid>
															<name>(_sophieskitchen)_BbHt-F2DlVI_IG.mp4</name>
															<enabled>TRUE</enabled>
															<duration>1766</duration>
															<rate>
																<timebase>30</timebase>
																<ntsc>TRUE</ntsc>
															</rate>
															<start>5001</start>
															<end>5117</end>
															<in>1295</in>
															<out>1411</out>
															<pproTicksIn>10975989024000</pproTicksIn>
															<pproTicksOut>11959166419200</pproTicksOut>
															<alphatype>none</alphatype>
															<file id="file-14"/>
															<logginginfo>
																<description></description>
																<scene></scene>
																<shottake></shottake>
																<lognote></lognote>
																<good></good>
																<originalvideofilename></originalvideofilename>
																<originalaudiofilename></originalaudiofilename>
															</logginginfo>
															<colorinfo>
																<lut></lut>
																<lut1></lut1>
																<asc_sop></asc_sop>
																<asc_sat></asc_sat>
																<lut2></lut2>
															</colorinfo>
														</clipitem>
														<enabled>TRUE</enabled>
														<locked>FALSE</locked>
													</track>
												</video>
												<audio>
													<numOutputChannels>2</numOutputChannels>
													<format>
														<samplecharacteristics>
															<depth>16</depth>
															<samplerate>48000</samplerate>
														</samplecharacteristics>
													</format>
													<outputs>
														<group>
															<index>1</index>
															<numchannels>1</numchannels>
															<downmix>0</downmix>
															<channel>
																<index>1</index>
															</channel>
														</group>
														<group>
															<index>2</index>
															<numchannels>1</numchannels>
															<downmix>0</downmix>
															<channel>
																<index>2</index>
															</channel>
														</group>
													</outputs>
													<track TL.SQTrackAudioKeyframeStyle="0" TL.SQTrackShy="0" TL.SQTrackExpandedHeight="25" TL.SQTrackExpanded="0" MZ.TrackTargeted="1" PannerCurrentValue="0.5" PannerIsInverted="true" PannerStartKeyframe="-91445760000000000,0.5,0,0,0,0,0,0" PannerName="Balance" currentExplodedTrackIndex="0" totalExplodedTrackCount="2" premiereTrackType="Stereo">
														<enabled>TRUE</enabled>
														<locked>FALSE</locked>
														<outputchannelindex>1</outputchannelindex>
													</track>
													<track TL.SQTrackAudioKeyframeStyle="0" TL.SQTrackShy="0" TL.SQTrackExpandedHeight="25" TL.SQTrackExpanded="0" MZ.TrackTargeted="1" PannerCurrentValue="0.5" PannerIsInverted="true" PannerStartKeyframe="-91445760000000000,0.5,0,0,0,0,0,0" PannerName="Balance" currentExplodedTrackIndex="1" totalExplodedTrackCount="2" premiereTrackType="Stereo">
														<enabled>TRUE</enabled>
														<locked>FALSE</locked>
														<outputchannelindex>2</outputchannelindex>
													</track>
												</audio>
											</media>
											<timecode>
												<rate>
													<timebase>30</timebase>
													<ntsc>TRUE</ntsc>
												</rate>
												<string>00;00;00;00</string>
												<frame>0</frame>
												<displayformat>DF</displayformat>
											</timecode>
											<logginginfo>
												<description></description>
												<scene></scene>
												<shottake></shottake>
												<lognote></lognote>
												<good></good>
												<originalvideofilename></originalvideofilename>
												<originalaudiofilename></originalaudiofilename>
											</logginginfo>
										</sequence>
										<filter>
											<effect>
												<name>Basic Motion</name>
												<effectid>basic</effectid>
												<effectcategory>motion</effectcategory>
												<effecttype>motion</effecttype>
												<mediatype>video</mediatype>
												<pproBypass>false</pproBypass>
												<parameter authoringApp="PremierePro">
													<parameterid>scale</parameterid>
													<name>Scale</name>
													<valuemin>0</valuemin>
													<valuemax>1000</valuemax>
													<value>300</value>
												</parameter>
												<parameter authoringApp="PremierePro">
													<parameterid>rotation</parameterid>
													<name>Rotation</name>
													<valuemin>-8640</valuemin>
													<valuemax>8640</valuemax>
													<value>0</value>
												</parameter>
												<parameter authoringApp="PremierePro">
													<parameterid>center</parameterid>
													<name>Center</name>
													<value>
														<horiz>-0.5</horiz>
														<vert>-0.5</vert>
													</value>
												</parameter>
												<parameter authoringApp="PremierePro">
													<parameterid>centerOffset</parameterid>
													<name>Anchor Point</name>
													<value>
														<horiz>0</horiz>
														<vert>0</vert>
													</value>
												</parameter>
												<parameter authoringApp="PremierePro">
													<parameterid>antiflicker</parameterid>
													<name>Anti-flicker Filter</name>
													<valuemin>0.0</valuemin>
													<valuemax>1.0</valuemax>
													<value>0</value>
												</parameter>
											</effect>
										</filter>
										<filter>
											<effect>
												<name>Gaussian Blur</name>
												<effectid>Gaussian Blur</effectid>
												<effectcategory>Blur</effectcategory>
												<effecttype>motion</effecttype>
												<mediatype>video</mediatype>
												<pproBypass>false</pproBypass>
												<parameter authoringApp="PremierePro">
													<parameterid>radius</parameterid>
													<name>Radius</name>
													<valuemin>0</valuemin>
													<valuemax>100</valuemax>
													<value>150</value>
												</parameter>
											</effect>
										</filter>
										<labels>
											<label2>Forest</label2>
										</labels>
									</clipitem>
									<enabled>TRUE</enabled>
									<locked>FALSE</locked>
								</track>
								<track TL.SQTrackShy="0" TL.SQTrackExpandedHeight="25" TL.SQTrackExpanded="0" MZ.TrackTargeted="0">
									<clipitem id="clipitem-348">
										<masterclipid>masterclip-171</masterclipid>
										<name>Nested Sequence 03</name>
										<enabled>TRUE</enabled>
										<duration>5117</duration>
										<rate>
											<timebase>30</timebase>
											<ntsc>TRUE</ntsc>
										</rate>
										<start>0</start>
										<end>5117</end>
										<in>0</in>
										<out>5117</out>
										<pproTicksIn>0</pproTicksIn>
										<pproTicksOut>43369989062400</pproTicksOut>
										<sequence id="sequence-3"/>
										<labels>
											<label2>Forest</label2>
										</labels>
									</clipitem>
									<enabled>TRUE</enabled>
									<locked>FALSE</locked>
								</track>
								<track TL.SQTrackShy="0" TL.SQTrackExpandedHeight="25" TL.SQTrackExpanded="0" MZ.TrackTargeted="0">
									<clipitem id="clipitem-349">
										<masterclipid>masterclip-172</masterclipid>
										<name>_sophieskitchen</name>
										<enabled>TRUE</enabled>
										<duration>5844</duration>
										<rate>
											<timebase>30</timebase>
											<ntsc>TRUE</ntsc>
										</rate>
										<start>0</start>
										<end>5117</end>
										<in>0</in>
										<out>5117</out>
										<pproTicksIn>0</pproTicksIn>
										<pproTicksOut>43369989062400</pproTicksOut>
										<alphatype>straight</alphatype>
										<pixelaspectratio>square</pixelaspectratio>
										<anamorphic>FALSE</anamorphic>
										<file id="file-171">
											<name>1080/AE Attribution.aep</name>
											<pathurl>file://localhost/Volumes/ATM%201/EYE%20CANDY/Project%20Template/5_Assets/AE%20Attribution.aep</pathurl>
											<rate>
												<timebase>30</timebase>
												<ntsc>TRUE</ntsc>
											</rate>
											<duration>5844</duration>
											<timecode>
												<rate>
													<timebase>30</timebase>
													<ntsc>TRUE</ntsc>
												</rate>
												<string>00;00;00;00</string>
												<frame>0</frame>
												<displayformat>DF</displayformat>
											</timecode>
											<media>
												<video>
													<samplecharacteristics>
														<rate>
															<timebase>30</timebase>
															<ntsc>TRUE</ntsc>
														</rate>
														<width>1920</width>
														<height>1080</height>
														<anamorphic>FALSE</anamorphic>
														<pixelaspectratio>square</pixelaspectratio>
														<fielddominance>lower</fielddominance>
													</samplecharacteristics>
												</video>
											</media>
										</file>
										<logginginfo>
											<description></description>
											<scene></scene>
											<shottake></shottake>
											<lognote></lognote>
											<good></good>
											<originalvideofilename></originalvideofilename>
											<originalaudiofilename></originalaudiofilename>
										</logginginfo>
										<colorinfo>
											<lut></lut>
											<lut1></lut1>
											<asc_sop></asc_sop>
											<asc_sat></asc_sat>
											<lut2></lut2>
										</colorinfo>
										<labels>
											<label2>Rose</label2>
										</labels>
									</clipitem>
									<enabled>TRUE</enabled>
									<locked>FALSE</locked>
								</track>
								<track TL.SQTrackShy="0" TL.SQTrackExpandedHeight="25" TL.SQTrackExpanded="0" MZ.TrackTargeted="0">
									<enabled>TRUE</enabled>
									<locked>FALSE</locked>
								</track>
								<track TL.SQTrackShy="0" TL.SQTrackExpandedHeight="25" TL.SQTrackExpanded="0" MZ.TrackTargeted="0">
									<enabled>TRUE</enabled>
									<locked>FALSE</locked>
								</track>
								<track TL.SQTrackShy="0" TL.SQTrackExpandedHeight="25" TL.SQTrackExpanded="0" MZ.TrackTargeted="0">
									<enabled>TRUE</enabled>
									<locked>FALSE</locked>
								</track>
								<track TL.SQTrackShy="0" TL.SQTrackExpandedHeight="25" TL.SQTrackExpanded="0" MZ.TrackTargeted="0">
									<enabled>TRUE</enabled>
									<locked>FALSE</locked>
								</track>
								<track TL.SQTrackShy="0" TL.SQTrackExpandedHeight="25" TL.SQTrackExpanded="0" MZ.TrackTargeted="0">
									<enabled>TRUE</enabled>
									<locked>FALSE</locked>
								</track>
								<track TL.SQTrackShy="0" TL.SQTrackExpandedHeight="25" TL.SQTrackExpanded="0" MZ.TrackTargeted="0">
									<enabled>TRUE</enabled>
									<locked>FALSE</locked>
								</track>
								<track TL.SQTrackShy="0" TL.SQTrackExpandedHeight="25" TL.SQTrackExpanded="0" MZ.TrackTargeted="0">
									<enabled>TRUE</enabled>
									<locked>FALSE</locked>
								</track>
							</video>
							<audio>
								<numOutputChannels>2</numOutputChannels>
								<format>
									<samplecharacteristics>
										<depth>16</depth>
										<samplerate>48000</samplerate>
									</samplecharacteristics>
								</format>
								<outputs>
									<group>
										<index>1</index>
										<numchannels>1</numchannels>
										<downmix>0</downmix>
										<channel>
											<index>1</index>
										</channel>
									</group>
									<group>
										<index>2</index>
										<numchannels>1</numchannels>
										<downmix>0</downmix>
										<channel>
											<index>2</index>
										</channel>
									</group>
								</outputs>
								<track TL.SQTrackAudioKeyframeStyle="0" TL.SQTrackShy="0" TL.SQTrackExpandedHeight="25" TL.SQTrackExpanded="0" MZ.TrackTargeted="1" PannerCurrentValue="0.5" PannerIsInverted="true" PannerStartKeyframe="-91445760000000000,0.5,0,0,0,0,0,0" PannerName="Balance" currentExplodedTrackIndex="0" totalExplodedTrackCount="2" premiereTrackType="Stereo">
									<clipitem id="clipitem-350" premiereChannelType="stereo">
										<masterclipid>masterclip-173</masterclipid>
										<name>ES_Harmonies - Ben Elson.mp3</name>
										<enabled>TRUE</enabled>
										<duration>6022</duration>
										<rate>
											<timebase>30</timebase>
											<ntsc>TRUE</ntsc>
										</rate>
										<start>0</start>
										<end>5117</end>
										<in>0</in>
										<out>5117</out>
										<pproTicksIn>0</pproTicksIn>
										<pproTicksOut>43369989062400</pproTicksOut>
										<file id="file-172">
											<name>ES_Harmonies - Ben Elson.mp3</name>
											<pathurl>file://localhost/Volumes/ATM%201/EYE%20CANDY/8%3a21%3a23/5_Assets/Music/ES_Harmonies%20-%20Ben%20Elson.mp3</pathurl>
											<rate>
												<timebase>30</timebase>
												<ntsc>TRUE</ntsc>
											</rate>
											<duration>6022</duration>
											<timecode>
												<rate>
													<timebase>30</timebase>
													<ntsc>TRUE</ntsc>
												</rate>
												<string>00;00;00;00</string>
												<frame>0</frame>
												<displayformat>DF</displayformat>
											</timecode>
											<media>
												<audio>
													<samplecharacteristics>
														<depth>16</depth>
														<samplerate>48000</samplerate>
													</samplecharacteristics>
													<channelcount>2</channelcount>
												</audio>
											</media>
										</file>
										<sourcetrack>
											<mediatype>audio</mediatype>
											<trackindex>1</trackindex>
										</sourcetrack>
										<link>
											<linkclipref>clipitem-350</linkclipref>
											<mediatype>audio</mediatype>
											<trackindex>1</trackindex>
											<clipindex>1</clipindex>
											<groupindex>1</groupindex>
										</link>
										<link>
											<linkclipref>clipitem-351</linkclipref>
											<mediatype>audio</mediatype>
											<trackindex>2</trackindex>
											<clipindex>1</clipindex>
											<groupindex>1</groupindex>
										</link>
										<logginginfo>
											<description></description>
											<scene></scene>
											<shottake></shottake>
											<lognote></lognote>
											<good></good>
											<originalvideofilename></originalvideofilename>
											<originalaudiofilename></originalaudiofilename>
										</logginginfo>
										<colorinfo>
											<lut></lut>
											<lut1></lut1>
											<asc_sop></asc_sop>
											<asc_sat></asc_sat>
											<lut2></lut2>
										</colorinfo>
										<labels>
											<label2>Caribbean</label2>
										</labels>
									</clipitem>
									<enabled>TRUE</enabled>
									<locked>FALSE</locked>
									<filter>
										<effect>
											<name>Audio Levels</name>
											<effectid>audiolevels</effectid>
											<effectcategory>audiolevels</effectcategory>
											<effecttype>audiolevels</effecttype>
											<mediatype>audio</mediatype>
											<parameter authoringApp="PremierePro">
												<parameterid>level</parameterid>
												<name>Level</name>
												<valuemin>0</valuemin>
												<valuemax>3.98109</valuemax>
												<value>0.706272</value>
											</parameter>
										</effect>
									</filter>
									<outputchannelindex>1</outputchannelindex>
								</track>
								<track TL.SQTrackAudioKeyframeStyle="0" TL.SQTrackShy="0" TL.SQTrackExpandedHeight="25" TL.SQTrackExpanded="0" MZ.TrackTargeted="1" PannerCurrentValue="0.5" PannerIsInverted="true" PannerStartKeyframe="-91445760000000000,0.5,0,0,0,0,0,0" PannerName="Balance" currentExplodedTrackIndex="1" totalExplodedTrackCount="2" premiereTrackType="Stereo">
									<clipitem id="clipitem-351" premiereChannelType="stereo">
										<masterclipid>masterclip-173</masterclipid>
										<name>ES_Harmonies - Ben Elson.mp3</name>
										<enabled>TRUE</enabled>
										<duration>6022</duration>
										<rate>
											<timebase>30</timebase>
											<ntsc>TRUE</ntsc>
										</rate>
										<start>0</start>
										<end>5117</end>
										<in>0</in>
										<out>5117</out>
										<pproTicksIn>0</pproTicksIn>
										<pproTicksOut>43369989062400</pproTicksOut>
										<file id="file-172"/>
										<sourcetrack>
											<mediatype>audio</mediatype>
											<trackindex>2</trackindex>
										</sourcetrack>
										<link>
											<linkclipref>clipitem-350</linkclipref>
											<mediatype>audio</mediatype>
											<trackindex>1</trackindex>
											<clipindex>1</clipindex>
											<groupindex>1</groupindex>
										</link>
										<link>
											<linkclipref>clipitem-351</linkclipref>
											<mediatype>audio</mediatype>
											<trackindex>2</trackindex>
											<clipindex>1</clipindex>
											<groupindex>1</groupindex>
										</link>
										<logginginfo>
											<description></description>
											<scene></scene>
											<shottake></shottake>
											<lognote></lognote>
											<good></good>
											<originalvideofilename></originalvideofilename>
											<originalaudiofilename></originalaudiofilename>
										</logginginfo>
										<colorinfo>
											<lut></lut>
											<lut1></lut1>
											<asc_sop></asc_sop>
											<asc_sat></asc_sat>
											<lut2></lut2>
										</colorinfo>
										<labels>
											<label2>Caribbean</label2>
										</labels>
									</clipitem>
									<enabled>TRUE</enabled>
									<locked>FALSE</locked>
									<filter>
										<effect>
											<name>Audio Levels</name>
											<effectid>audiolevels</effectid>
											<effectcategory>audiolevels</effectcategory>
											<effecttype>audiolevels</effecttype>
											<mediatype>audio</mediatype>
											<parameter authoringApp="PremierePro">
												<parameterid>level</parameterid>
												<name>Level</name>
												<valuemin>0</valuemin>
												<valuemax>3.98109</valuemax>
												<value>0.706272</value>
											</parameter>
										</effect>
									</filter>
									<outputchannelindex>2</outputchannelindex>
								</track>
								<track TL.SQTrackAudioKeyframeStyle="0" TL.SQTrackShy="0" TL.SQTrackExpandedHeight="25" TL.SQTrackExpanded="0" MZ.TrackTargeted="0" PannerCurrentValue="0.5" PannerIsInverted="true" PannerStartKeyframe="-91445760000000000,0.5,0,0,0,0,0,0" PannerName="Balance" currentExplodedTrackIndex="0" totalExplodedTrackCount="2" premiereTrackType="Stereo">
									<enabled>TRUE</enabled>
									<locked>FALSE</locked>
									<outputchannelindex>1</outputchannelindex>
								</track>
								<track TL.SQTrackAudioKeyframeStyle="0" TL.SQTrackShy="0" TL.SQTrackExpandedHeight="25" TL.SQTrackExpanded="0" MZ.TrackTargeted="0" PannerCurrentValue="0.5" PannerIsInverted="true" PannerStartKeyframe="-91445760000000000,0.5,0,0,0,0,0,0" PannerName="Balance" currentExplodedTrackIndex="1" totalExplodedTrackCount="2" premiereTrackType="Stereo">
									<enabled>TRUE</enabled>
									<locked>FALSE</locked>
									<outputchannelindex>2</outputchannelindex>
								</track>
								<track TL.SQTrackAudioKeyframeStyle="0" TL.SQTrackShy="0" TL.SQTrackExpandedHeight="25" TL.SQTrackExpanded="0" MZ.TrackTargeted="0" PannerCurrentValue="0.5" PannerIsInverted="true" PannerStartKeyframe="-91445760000000000,0.5,0,0,0,0,0,0" PannerName="Balance" currentExplodedTrackIndex="0" totalExplodedTrackCount="2" premiereTrackType="Stereo">
									<enabled>TRUE</enabled>
									<locked>FALSE</locked>
									<outputchannelindex>1</outputchannelindex>
								</track>
								<track TL.SQTrackAudioKeyframeStyle="0" TL.SQTrackShy="0" TL.SQTrackExpandedHeight="25" TL.SQTrackExpanded="0" MZ.TrackTargeted="0" PannerCurrentValue="0.5" PannerIsInverted="true" PannerStartKeyframe="-91445760000000000,0.5,0,0,0,0,0,0" PannerName="Balance" currentExplodedTrackIndex="1" totalExplodedTrackCount="2" premiereTrackType="Stereo">
									<enabled>TRUE</enabled>
									<locked>FALSE</locked>
									<outputchannelindex>2</outputchannelindex>
								</track>
								<track TL.SQTrackAudioKeyframeStyle="0" TL.SQTrackShy="0" TL.SQTrackExpandedHeight="25" TL.SQTrackExpanded="0" MZ.TrackTargeted="0" PannerCurrentValue="0.5" PannerIsInverted="true" PannerStartKeyframe="-91445760000000000,0.5,0,0,0,0,0,0" PannerName="Balance" currentExplodedTrackIndex="0" totalExplodedTrackCount="2" premiereTrackType="Stereo">
									<enabled>TRUE</enabled>
									<locked>FALSE</locked>
									<outputchannelindex>1</outputchannelindex>
								</track>
								<track TL.SQTrackAudioKeyframeStyle="0" TL.SQTrackShy="0" TL.SQTrackExpandedHeight="25" TL.SQTrackExpanded="0" MZ.TrackTargeted="0" PannerCurrentValue="0.5" PannerIsInverted="true" PannerStartKeyframe="-91445760000000000,0.5,0,0,0,0,0,0" PannerName="Balance" currentExplodedTrackIndex="1" totalExplodedTrackCount="2" premiereTrackType="Stereo">
									<enabled>TRUE</enabled>
									<locked>FALSE</locked>
									<outputchannelindex>2</outputchannelindex>
								</track>
								<track TL.SQTrackAudioKeyframeStyle="0" TL.SQTrackShy="0" TL.SQTrackExpandedHeight="25" TL.SQTrackExpanded="0" MZ.TrackTargeted="0" PannerCurrentValue="0.5" PannerIsInverted="true" PannerStartKeyframe="-91445760000000000,0.5,0,0,0,0,0,0" PannerName="Balance" currentExplodedTrackIndex="0" totalExplodedTrackCount="2" premiereTrackType="Stereo">
									<enabled>TRUE</enabled>
									<locked>FALSE</locked>
									<outputchannelindex>1</outputchannelindex>
								</track>
								<track TL.SQTrackAudioKeyframeStyle="0" TL.SQTrackShy="0" TL.SQTrackExpandedHeight="25" TL.SQTrackExpanded="0" MZ.TrackTargeted="0" PannerCurrentValue="0.5" PannerIsInverted="true" PannerStartKeyframe="-91445760000000000,0.5,0,0,0,0,0,0" PannerName="Balance" currentExplodedTrackIndex="1" totalExplodedTrackCount="2" premiereTrackType="Stereo">
									<enabled>TRUE</enabled>
									<locked>FALSE</locked>
									<outputchannelindex>2</outputchannelindex>
								</track>
								<track TL.SQTrackAudioKeyframeStyle="0" TL.SQTrackShy="0" TL.SQTrackExpandedHeight="25" TL.SQTrackExpanded="0" MZ.TrackTargeted="0" PannerCurrentValue="0.5" PannerIsInverted="true" PannerStartKeyframe="-91445760000000000,0.5,0,0,0,0,0,0" PannerName="Balance" currentExplodedTrackIndex="0" totalExplodedTrackCount="2" premiereTrackType="Stereo">
									<enabled>TRUE</enabled>
									<locked>FALSE</locked>
									<outputchannelindex>1</outputchannelindex>
								</track>
								<track TL.SQTrackAudioKeyframeStyle="0" TL.SQTrackShy="0" TL.SQTrackExpandedHeight="25" TL.SQTrackExpanded="0" MZ.TrackTargeted="0" PannerCurrentValue="0.5" PannerIsInverted="true" PannerStartKeyframe="-91445760000000000,0.5,0,0,0,0,0,0" PannerName="Balance" currentExplodedTrackIndex="1" totalExplodedTrackCount="2" premiereTrackType="Stereo">
									<enabled>TRUE</enabled>
									<locked>FALSE</locked>
									<outputchannelindex>2</outputchannelindex>
								</track>
								<track TL.SQTrackAudioKeyframeStyle="0" TL.SQTrackShy="0" TL.SQTrackExpandedHeight="25" TL.SQTrackExpanded="0" MZ.TrackTargeted="0" PannerCurrentValue="0.5" PannerIsInverted="true" PannerStartKeyframe="-91445760000000000,0.5,0,0,0,0,0,0" PannerName="Balance" currentExplodedTrackIndex="0" totalExplodedTrackCount="2" premiereTrackType="Stereo">
									<enabled>TRUE</enabled>
									<locked>FALSE</locked>
									<outputchannelindex>1</outputchannelindex>
								</track>
								<track TL.SQTrackAudioKeyframeStyle="0" TL.SQTrackShy="0" TL.SQTrackExpandedHeight="25" TL.SQTrackExpanded="0" MZ.TrackTargeted="0" PannerCurrentValue="0.5" PannerIsInverted="true" PannerStartKeyframe="-91445760000000000,0.5,0,0,0,0,0,0" PannerName="Balance" currentExplodedTrackIndex="1" totalExplodedTrackCount="2" premiereTrackType="Stereo">
									<enabled>TRUE</enabled>
									<locked>FALSE</locked>
									<outputchannelindex>2</outputchannelindex>
								</track>
								<track TL.SQTrackAudioKeyframeStyle="0" TL.SQTrackShy="0" TL.SQTrackExpandedHeight="25" TL.SQTrackExpanded="0" MZ.TrackTargeted="0" PannerCurrentValue="0.5" PannerIsInverted="true" PannerStartKeyframe="-91445760000000000,0.5,0,0,0,0,0,0" PannerName="Balance" currentExplodedTrackIndex="0" totalExplodedTrackCount="2" premiereTrackType="Stereo">
									<enabled>TRUE</enabled>
									<locked>FALSE</locked>
									<outputchannelindex>1</outputchannelindex>
								</track>
								<track TL.SQTrackAudioKeyframeStyle="0" TL.SQTrackShy="0" TL.SQTrackExpandedHeight="25" TL.SQTrackExpanded="0" MZ.TrackTargeted="0" PannerCurrentValue="0.5" PannerIsInverted="true" PannerStartKeyframe="-91445760000000000,0.5,0,0,0,0,0,0" PannerName="Balance" currentExplodedTrackIndex="1" totalExplodedTrackCount="2" premiereTrackType="Stereo">
									<enabled>TRUE</enabled>
									<locked>FALSE</locked>
									<outputchannelindex>2</outputchannelindex>
								</track>
								<track TL.SQTrackAudioKeyframeStyle="0" TL.SQTrackShy="0" TL.SQTrackExpandedHeight="25" TL.SQTrackExpanded="0" MZ.TrackTargeted="0" PannerCurrentValue="0.5" PannerIsInverted="true" PannerStartKeyframe="-91445760000000000,0.5,0,0,0,0,0,0" PannerName="Balance" currentExplodedTrackIndex="0" totalExplodedTrackCount="2" premiereTrackType="Stereo">
									<enabled>TRUE</enabled>
									<locked>FALSE</locked>
									<outputchannelindex>1</outputchannelindex>
								</track>
								<track TL.SQTrackAudioKeyframeStyle="0" TL.SQTrackShy="0" TL.SQTrackExpandedHeight="25" TL.SQTrackExpanded="0" MZ.TrackTargeted="0" PannerCurrentValue="0.5" PannerIsInverted="true" PannerStartKeyframe="-91445760000000000,0.5,0,0,0,0,0,0" PannerName="Balance" currentExplodedTrackIndex="1" totalExplodedTrackCount="2" premiereTrackType="Stereo">
									<enabled>TRUE</enabled>
									<locked>FALSE</locked>
									<outputchannelindex>2</outputchannelindex>
								</track>
								<track TL.SQTrackAudioKeyframeStyle="0" TL.SQTrackShy="0" TL.SQTrackExpandedHeight="25" TL.SQTrackExpanded="0" MZ.TrackTargeted="0" PannerCurrentValue="0.5" PannerIsInverted="true" PannerStartKeyframe="-91445760000000000,0.5,0,0,0,0,0,0" PannerName="Balance" currentExplodedTrackIndex="0" totalExplodedTrackCount="2" premiereTrackType="Stereo">
									<enabled>TRUE</enabled>
									<locked>FALSE</locked>
									<outputchannelindex>1</outputchannelindex>
								</track>
								<track TL.SQTrackAudioKeyframeStyle="0" TL.SQTrackShy="0" TL.SQTrackExpandedHeight="25" TL.SQTrackExpanded="0" MZ.TrackTargeted="0" PannerCurrentValue="0.5" PannerIsInverted="true" PannerStartKeyframe="-91445760000000000,0.5,0,0,0,0,0,0" PannerName="Balance" currentExplodedTrackIndex="1" totalExplodedTrackCount="2" premiereTrackType="Stereo">
									<enabled>TRUE</enabled>
									<locked>FALSE</locked>
									<outputchannelindex>2</outputchannelindex>
								</track>
							</audio>
						</media>
						<timecode>
							<rate>
								<timebase>30</timebase>
								<ntsc>TRUE</ntsc>
							</rate>
							<string>00;00;00;00</string>
							<frame>0</frame>
							<displayformat>DF</displayformat>
						</timecode>
						<labels>
							<label2>Forest</label2>
						</labels>
						<logginginfo>
							<description></description>
							<scene></scene>
							<shottake></shottake>
							<lognote></lognote>
							<good></good>
							<originalvideofilename></originalvideofilename>
							<originalaudiofilename></originalaudiofilename>
						</logginginfo>
					</sequence>
					<sequence id="sequence-4" TL.SQAudioVisibleBase="0" TL.SQVideoVisibleBase="0" TL.SQVisibleBaseTime="0" TL.SQAVDividerPosition="0.5" TL.SQHideShyTracks="0" TL.SQHeaderWidth="236" TL.SQDataTrackViewControlState="0" Monitor.ProgramZoomOut="21909599712000" Monitor.ProgramZoomIn="0" TL.SQTimePerPixel="0.12098372189487057" AM.TrackVScrollPosition="0" AM.TrackScrollPosition="0" MZ.EditLine="6517788076800" MZ.Sequence.PreviewFrameSizeHeight="1080" MZ.Sequence.PreviewFrameSizeWidth="1920" MZ.Sequence.AudioTimeDisplayFormat="200" MZ.Sequence.PreviewRenderingClassID="1061109567" MZ.Sequence.PreviewRenderingPresetCodec="1634755443" MZ.Sequence.PreviewRenderingPresetPath="EncoderPresets/SequencePreview/35d109db-457b-43c1-9452-9cb7be9f121c/QuickTime.epr" MZ.Sequence.PreviewUseMaxRenderQuality="false" MZ.Sequence.PreviewUseMaxBitDepth="false" MZ.Sequence.EditingModeGUID="35d109db-457b-43c1-9452-9cb7be9f121c" MZ.Sequence.VideoTimeDisplayFormat="102" MZ.WorkOutPoint="1262874412800" MZ.WorkInPoint="0" explodedTracks="true">
						<uuid>351dc840-f623-4811-a648-bb04008abfee</uuid>
						<duration>2585</duration>
						<rate>
							<timebase>30</timebase>
							<ntsc>TRUE</ntsc>
						</rate>
						<name>FND_The Chocolate Factor_1.5</name>
						<media>
							<video>
								<format>
									<samplecharacteristics>
										<rate>
											<timebase>30</timebase>
											<ntsc>TRUE</ntsc>
										</rate>
										<codec>
											<name>Apple ProRes 422</name>
											<appspecificdata>
												<appname>Final Cut Pro</appname>
												<appmanufacturer>Apple Inc.</appmanufacturer>
												<appversion>7.0</appversion>
												<data>
													<qtcodec>
														<codecname>Apple ProRes 422</codecname>
														<codectypename>Apple ProRes 422</codectypename>
														<codectypecode>apcn</codectypecode>
														<codecvendorcode>appl</codecvendorcode>
														<spatialquality>1024</spatialquality>
														<temporalquality>0</temporalquality>
														<keyframerate>0</keyframerate>
														<datarate>0</datarate>
													</qtcodec>
												</data>
											</appspecificdata>
										</codec>
										<width>1920</width>
										<height>1080</height>
										<anamorphic>FALSE</anamorphic>
										<pixelaspectratio>square</pixelaspectratio>
										<fielddominance>none</fielddominance>
										<colordepth>24</colordepth>
									</samplecharacteristics>
								</format>
								<track TL.SQTrackShy="0" TL.SQTrackExpandedHeight="25" TL.SQTrackExpanded="0" MZ.TrackTargeted="1">
									<clipitem id="clipitem-352">
										<masterclipid>masterclip-174</masterclipid>
										<name>Nested Sequence 02</name>
										<enabled>TRUE</enabled>
										<duration>2585</duration>
										<rate>
											<timebase>30</timebase>
											<ntsc>TRUE</ntsc>
										</rate>
										<start>0</start>
										<end>2585</end>
										<in>0</in>
										<out>2585</out>
										<pproTicksIn>0</pproTicksIn>
										<pproTicksOut>21909599712000</pproTicksOut>
										<sequence id="sequence-5" TL.SQAudioVisibleBase="0" TL.SQVideoVisibleBase="0" TL.SQVisibleBaseTime="0" TL.SQAVDividerPosition="0.5" TL.SQHideShyTracks="0" TL.SQHeaderWidth="236" Monitor.ProgramZoomOut="21909599712000" Monitor.ProgramZoomIn="0" TL.SQTimePerPixel="0.12098372189487003" AM.TrackVScrollPosition="0" AM.TrackScrollPosition="0" MZ.EditLine="6517788076800" MZ.Sequence.PreviewFrameSizeHeight="1080" MZ.Sequence.PreviewFrameSizeWidth="1920" MZ.Sequence.AudioTimeDisplayFormat="200" MZ.Sequence.PreviewRenderingClassID="1061109567" MZ.Sequence.PreviewRenderingPresetCodec="1634755443" MZ.Sequence.PreviewRenderingPresetPath="EncoderPresets/SequencePreview/35d109db-457b-43c1-9452-9cb7be9f121c/QuickTime.epr" MZ.Sequence.PreviewUseMaxRenderQuality="false" MZ.Sequence.PreviewUseMaxBitDepth="false" MZ.Sequence.EditingModeGUID="35d109db-457b-43c1-9452-9cb7be9f121c" MZ.Sequence.VideoTimeDisplayFormat="102" MZ.WorkOutPoint="21909599712000" MZ.WorkInPoint="0">
											<duration>2585</duration>
											<rate>
												<timebase>30</timebase>
												<ntsc>TRUE</ntsc>
											</rate>
											<name>Nested Sequence 02</name>
											<media>
												<video>
													<format>
														<samplecharacteristics>
															<rate>
																<timebase>30</timebase>
																<ntsc>TRUE</ntsc>
															</rate>
															<codec>
																<name>Apple ProRes 422</name>
																<appspecificdata>
																	<appname>Final Cut Pro</appname>
																	<appmanufacturer>Apple Inc.</appmanufacturer>
																	<appversion>7.0</appversion>
																	<data>
																		<qtcodec>
																			<codecname>Apple ProRes 422</codecname>
																			<codectypename>Apple ProRes 422</codectypename>
																			<codectypecode>apcn</codectypecode>
																			<codecvendorcode>appl</codecvendorcode>
																			<spatialquality>1024</spatialquality>
																			<temporalquality>0</temporalquality>
																			<keyframerate>0</keyframerate>
																			<datarate>0</datarate>
																		</qtcodec>
																	</data>
																</appspecificdata>
															</codec>
															<width>1920</width>
															<height>1080</height>
															<anamorphic>FALSE</anamorphic>
															<pixelaspectratio>square</pixelaspectratio>
															<fielddominance>none</fielddominance>
															<colordepth>24</colordepth>
														</samplecharacteristics>
													</format>
													<track TL.SQTrackShy="0" TL.SQTrackExpandedHeight="25" TL.SQTrackExpanded="0" MZ.TrackTargeted="1">
														<clipitem id="clipitem-353">
															<masterclipid>masterclip-16</masterclipid>
															<name>(krissharv3y)_BVC4yaIAVXR_IG.mp4</name>
															<enabled>TRUE</enabled>
															<duration>859</duration>
															<rate>
																<timebase>30</timebase>
																<ntsc>TRUE</ntsc>
															</rate>
															<start>0</start>
															<end>276</end>
															<in>0</in>
															<out>276</out>
															<pproTicksIn>0</pproTicksIn>
															<pproTicksOut>2339284147200</pproTicksOut>
															<alphatype>none</alphatype>
															<file id="file-16"/>
															<filter>
																<effect>
																	<name>Basic Motion</name>
																	<effectid>basic</effectid>
																	<effectcategory>motion</effectcategory>
																	<effecttype>motion</effecttype>
																	<mediatype>video</mediatype>
																	<pproBypass>false</pproBypass>
																	<parameter authoringApp="PremierePro">
																		<parameterid>scale</parameterid>
																		<name>Scale</name>
																		<valuemin>0</valuemin>
																		<valuemax>1000</valuemax>
																		<value>150</value>
																	</parameter>
																	<parameter authoringApp="PremierePro">
																		<parameterid>rotation</parameterid>
																		<name>Rotation</name>
																		<valuemin>-8640</valuemin>
																		<valuemax>8640</valuemax>
																		<value>0</value>
																	</parameter>
																	<parameter authoringApp="PremierePro">
																		<parameterid>center</parameterid>
																		<name>Center</name>
																		<value>
																			<horiz>0</horiz>
																			<vert>0</vert>
																		</value>
																	</parameter>
																	<parameter authoringApp="PremierePro">
																		<parameterid>centerOffset</parameterid>
																		<name>Anchor Point</name>
																		<value>
																			<horiz>0</horiz>
																			<vert>0</vert>
																		</value>
																	</parameter>
																	<parameter authoringApp="PremierePro">
																		<parameterid>antiflicker</parameterid>
																		<name>Anti-flicker Filter</name>
																		<valuemin>0.0</valuemin>
																		<valuemax>1.0</valuemax>
																		<value>0</value>
																	</parameter>
																</effect>
															</filter>
															<logginginfo>
																<description></description>
																<scene></scene>
																<shottake></shottake>
																<lognote></lognote>
																<good></good>
																<originalvideofilename></originalvideofilename>
																<originalaudiofilename></originalaudiofilename>
															</logginginfo>
															<colorinfo>
																<lut></lut>
																<lut1></lut1>
																<asc_sop></asc_sop>
																<asc_sat></asc_sat>
																<lut2></lut2>
															</colorinfo>
														</clipitem>
														<clipitem id="clipitem-354">
															<masterclipid>masterclip-18</masterclipid>
															<name>(krissharv3y)_BosK899gPWg_IG.mp4</name>
															<enabled>TRUE</enabled>
															<duration>1311</duration>
															<rate>
																<timebase>30</timebase>
																<ntsc>TRUE</ntsc>
															</rate>
															<start>276</start>
															<end>532</end>
															<in>166</in>
															<out>422</out>
															<pproTicksIn>1406960755200</pproTicksIn>
															<pproTicksOut>3576731558400</pproTicksOut>
															<alphatype>none</alphatype>
															<file id="file-18"/>
															<filter>
																<effect>
																	<name>Basic Motion</name>
																	<effectid>basic</effectid>
																	<effectcategory>motion</effectcategory>
																	<effecttype>motion</effecttype>
																	<mediatype>video</mediatype>
																	<pproBypass>false</pproBypass>
																	<parameter authoringApp="PremierePro">
																		<parameterid>scale</parameterid>
																		<name>Scale</name>
																		<valuemin>0</valuemin>
																		<valuemax>1000</valuemax>
																		<value>168.75</value>
																	</parameter>
																	<parameter authoringApp="PremierePro">
																		<parameterid>rotation</parameterid>
																		<name>Rotation</name>
																		<valuemin>-8640</valuemin>
																		<valuemax>8640</valuemax>
																		<value>0</value>
																	</parameter>
																	<parameter authoringApp="PremierePro">
																		<parameterid>center</parameterid>
																		<name>Center</name>
																		<value>
																			<horiz>0</horiz>
																			<vert>0</vert>
																		</value>
																	</parameter>
																	<parameter authoringApp="PremierePro">
																		<parameterid>centerOffset</parameterid>
																		<name>Anchor Point</name>
																		<value>
																			<horiz>0</horiz>
																			<vert>0</vert>
																		</value>
																	</parameter>
																	<parameter authoringApp="PremierePro">
																		<parameterid>antiflicker</parameterid>
																		<name>Anti-flicker Filter</name>
																		<valuemin>0.0</valuemin>
																		<valuemax>1.0</valuemax>
																		<value>0</value>
																	</parameter>
																</effect>
															</filter>
															<logginginfo>
																<description></description>
																<scene></scene>
																<shottake></shottake>
																<lognote></lognote>
																<good></good>
																<originalvideofilename></originalvideofilename>
																<originalaudiofilename></originalaudiofilename>
															</logginginfo>
															<colorinfo>
																<lut></lut>
																<lut1></lut1>
																<asc_sop></asc_sop>
																<asc_sat></asc_sat>
																<lut2></lut2>
															</colorinfo>
														</clipitem>
														<clipitem id="clipitem-355">
															<masterclipid>masterclip-18</masterclipid>
															<name>(krissharv3y)_BosK899gPWg_IG.mp4</name>
															<enabled>TRUE</enabled>
															<duration>1311</duration>
															<rate>
																<timebase>30</timebase>
																<ntsc>TRUE</ntsc>
															</rate>
															<start>532</start>
															<end>830</end>
															<in>706</in>
															<out>1004</out>
															<pproTicksIn>5983821043200</pproTicksIn>
															<pproTicksOut>8509569868800</pproTicksOut>
															<alphatype>none</alphatype>
															<file id="file-18"/>
															<filter>
																<effect>
																	<name>Basic Motion</name>
																	<effectid>basic</effectid>
																	<effectcategory>motion</effectcategory>
																	<effecttype>motion</effecttype>
																	<mediatype>video</mediatype>
																	<pproBypass>false</pproBypass>
																	<parameter authoringApp="PremierePro">
																		<parameterid>scale</parameterid>
																		<name>Scale</name>
																		<valuemin>0</valuemin>
																		<valuemax>1000</valuemax>
																		<value>168.75</value>
																	</parameter>
																	<parameter authoringApp="PremierePro">
																		<parameterid>rotation</parameterid>
																		<name>Rotation</name>
																		<valuemin>-8640</valuemin>
																		<valuemax>8640</valuemax>
																		<value>0</value>
																	</parameter>
																	<parameter authoringApp="PremierePro">
																		<parameterid>center</parameterid>
																		<name>Center</name>
																		<value>
																			<horiz>0</horiz>
																			<vert>0</vert>
																		</value>
																	</parameter>
																	<parameter authoringApp="PremierePro">
																		<parameterid>centerOffset</parameterid>
																		<name>Anchor Point</name>
																		<value>
																			<horiz>0</horiz>
																			<vert>0</vert>
																		</value>
																	</parameter>
																	<parameter authoringApp="PremierePro">
																		<parameterid>antiflicker</parameterid>
																		<name>Anti-flicker Filter</name>
																		<valuemin>0.0</valuemin>
																		<valuemax>1.0</valuemax>
																		<value>0</value>
																	</parameter>
																</effect>
															</filter>
															<logginginfo>
																<description></description>
																<scene></scene>
																<shottake></shottake>
																<lognote></lognote>
																<good></good>
																<originalvideofilename></originalvideofilename>
																<originalaudiofilename></originalaudiofilename>
															</logginginfo>
															<colorinfo>
																<lut></lut>
																<lut1></lut1>
																<asc_sop></asc_sop>
																<asc_sat></asc_sat>
																<lut2></lut2>
															</colorinfo>
														</clipitem>
														<clipitem id="clipitem-356">
															<masterclipid>masterclip-20</masterclipid>
															<name>(krissharv3y)_Brqx9YTlmqX_IG.mp4</name>
															<enabled>TRUE</enabled>
															<duration>1081</duration>
															<rate>
																<timebase>30</timebase>
																<ntsc>TRUE</ntsc>
															</rate>
															<start>830</start>
															<end>1011</end>
															<in>120</in>
															<out>301</out>
															<pproTicksIn>1017080064000</pproTicksIn>
															<pproTicksOut>2551175827200</pproTicksOut>
															<alphatype>none</alphatype>
															<file id="file-20"/>
															<filter>
																<effect>
																	<name>Basic Motion</name>
																	<effectid>basic</effectid>
																	<effectcategory>motion</effectcategory>
																	<effecttype>motion</effecttype>
																	<mediatype>video</mediatype>
																	<pproBypass>false</pproBypass>
																	<parameter authoringApp="PremierePro">
																		<parameterid>scale</parameterid>
																		<name>Scale</name>
																		<valuemin>0</valuemin>
																		<valuemax>1000</valuemax>
																		<value>150</value>
																	</parameter>
																	<parameter authoringApp="PremierePro">
																		<parameterid>rotation</parameterid>
																		<name>Rotation</name>
																		<valuemin>-8640</valuemin>
																		<valuemax>8640</valuemax>
																		<value>0</value>
																	</parameter>
																	<parameter authoringApp="PremierePro">
																		<parameterid>center</parameterid>
																		<name>Center</name>
																		<value>
																			<horiz>0</horiz>
																			<vert>0</vert>
																		</value>
																	</parameter>
																	<parameter authoringApp="PremierePro">
																		<parameterid>centerOffset</parameterid>
																		<name>Anchor Point</name>
																		<value>
																			<horiz>0</horiz>
																			<vert>0</vert>
																		</value>
																	</parameter>
																	<parameter authoringApp="PremierePro">
																		<parameterid>antiflicker</parameterid>
																		<name>Anti-flicker Filter</name>
																		<valuemin>0.0</valuemin>
																		<valuemax>1.0</valuemax>
																		<value>0</value>
																	</parameter>
																</effect>
															</filter>
															<logginginfo>
																<description></description>
																<scene></scene>
																<shottake></shottake>
																<lognote></lognote>
																<good></good>
																<originalvideofilename></originalvideofilename>
																<originalaudiofilename></originalaudiofilename>
															</logginginfo>
															<colorinfo>
																<lut></lut>
																<lut1></lut1>
																<asc_sop></asc_sop>
																<asc_sat></asc_sat>
																<lut2></lut2>
															</colorinfo>
														</clipitem>
														<clipitem id="clipitem-357">
															<masterclipid>masterclip-20</masterclipid>
															<name>(krissharv3y)_Brqx9YTlmqX_IG.mp4</name>
															<enabled>TRUE</enabled>
															<duration>1081</duration>
															<rate>
																<timebase>30</timebase>
																<ntsc>TRUE</ntsc>
															</rate>
															<start>1011</start>
															<end>1147</end>
															<in>417</in>
															<out>553</out>
															<pproTicksIn>3534353222400</pproTicksIn>
															<pproTicksOut>4687043961600</pproTicksOut>
															<alphatype>none</alphatype>
															<file id="file-20"/>
															<filter>
																<effect>
																	<name>Basic Motion</name>
																	<effectid>basic</effectid>
																	<effectcategory>motion</effectcategory>
																	<effecttype>motion</effecttype>
																	<mediatype>video</mediatype>
																	<pproBypass>false</pproBypass>
																	<parameter authoringApp="PremierePro">
																		<parameterid>scale</parameterid>
																		<name>Scale</name>
																		<valuemin>0</valuemin>
																		<valuemax>1000</valuemax>
																		<value>150</value>
																	</parameter>
																	<parameter authoringApp="PremierePro">
																		<parameterid>rotation</parameterid>
																		<name>Rotation</name>
																		<valuemin>-8640</valuemin>
																		<valuemax>8640</valuemax>
																		<value>0</value>
																	</parameter>
																	<parameter authoringApp="PremierePro">
																		<parameterid>center</parameterid>
																		<name>Center</name>
																		<value>
																			<horiz>0</horiz>
																			<vert>0</vert>
																		</value>
																	</parameter>
																	<parameter authoringApp="PremierePro">
																		<parameterid>centerOffset</parameterid>
																		<name>Anchor Point</name>
																		<value>
																			<horiz>0</horiz>
																			<vert>0</vert>
																		</value>
																	</parameter>
																	<parameter authoringApp="PremierePro">
																		<parameterid>antiflicker</parameterid>
																		<name>Anti-flicker Filter</name>
																		<valuemin>0.0</valuemin>
																		<valuemax>1.0</valuemax>
																		<value>0</value>
																	</parameter>
																</effect>
															</filter>
															<logginginfo>
																<description></description>
																<scene></scene>
																<shottake></shottake>
																<lognote></lognote>
																<good></good>
																<originalvideofilename></originalvideofilename>
																<originalaudiofilename></originalaudiofilename>
															</logginginfo>
															<colorinfo>
																<lut></lut>
																<lut1></lut1>
																<asc_sop></asc_sop>
																<asc_sat></asc_sat>
																<lut2></lut2>
															</colorinfo>
														</clipitem>
														<clipitem id="clipitem-358">
															<masterclipid>masterclip-21</masterclipid>
															<name>(krissharv3y)_BuepdmolEHP_IG.mp4</name>
															<enabled>TRUE</enabled>
															<duration>1706</duration>
															<rate>
																<timebase>30</timebase>
																<ntsc>TRUE</ntsc>
															</rate>
															<start>1147</start>
															<end>1512</end>
															<in>0</in>
															<out>365</out>
															<pproTicksIn>0</pproTicksIn>
															<pproTicksOut>3093618528000</pproTicksOut>
															<alphatype>none</alphatype>
															<file id="file-21"/>
															<filter>
																<effect>
																	<name>Basic Motion</name>
																	<effectid>basic</effectid>
																	<effectcategory>motion</effectcategory>
																	<effecttype>motion</effecttype>
																	<mediatype>video</mediatype>
																	<pproBypass>false</pproBypass>
																	<parameter authoringApp="PremierePro">
																		<parameterid>scale</parameterid>
																		<name>Scale</name>
																		<valuemin>0</valuemin>
																		<valuemax>1000</valuemax>
																		<value>150</value>
																	</parameter>
																	<parameter authoringApp="PremierePro">
																		<parameterid>rotation</parameterid>
																		<name>Rotation</name>
																		<valuemin>-8640</valuemin>
																		<valuemax>8640</valuemax>
																		<value>0</value>
																	</parameter>
																	<parameter authoringApp="PremierePro">
																		<parameterid>center</parameterid>
																		<name>Center</name>
																		<value>
																			<horiz>0</horiz>
																			<vert>0</vert>
																		</value>
																	</parameter>
																	<parameter authoringApp="PremierePro">
																		<parameterid>centerOffset</parameterid>
																		<name>Anchor Point</name>
																		<value>
																			<horiz>0</horiz>
																			<vert>0</vert>
																		</value>
																	</parameter>
																	<parameter authoringApp="PremierePro">
																		<parameterid>antiflicker</parameterid>
																		<name>Anti-flicker Filter</name>
																		<valuemin>0.0</valuemin>
																		<valuemax>1.0</valuemax>
																		<value>0</value>
																	</parameter>
																</effect>
															</filter>
															<logginginfo>
																<description></description>
																<scene></scene>
																<shottake></shottake>
																<lognote></lognote>
																<good></good>
																<originalvideofilename></originalvideofilename>
																<originalaudiofilename></originalaudiofilename>
															</logginginfo>
															<colorinfo>
																<lut></lut>
																<lut1></lut1>
																<asc_sop></asc_sop>
																<asc_sat></asc_sat>
																<lut2></lut2>
															</colorinfo>
														</clipitem>
														<clipitem id="clipitem-359">
															<masterclipid>masterclip-21</masterclipid>
															<name>(krissharv3y)_BuepdmolEHP_IG.mp4</name>
															<enabled>TRUE</enabled>
															<duration>1706</duration>
															<rate>
																<timebase>30</timebase>
																<ntsc>TRUE</ntsc>
															</rate>
															<start>1512</start>
															<end>1686</end>
															<in>526</in>
															<out>700</out>
															<pproTicksIn>4458200947200</pproTicksIn>
															<pproTicksOut>5932967040000</pproTicksOut>
															<alphatype>none</alphatype>
															<file id="file-21"/>
															<filter>
																<effect>
																	<name>Basic Motion</name>
																	<effectid>basic</effectid>
																	<effectcategory>motion</effectcategory>
																	<effecttype>motion</effecttype>
																	<mediatype>video</mediatype>
																	<pproBypass>false</pproBypass>
																	<parameter authoringApp="PremierePro">
																		<parameterid>scale</parameterid>
																		<name>Scale</name>
																		<valuemin>0</valuemin>
																		<valuemax>1000</valuemax>
																		<value>150</value>
																	</parameter>
																	<parameter authoringApp="PremierePro">
																		<parameterid>rotation</parameterid>
																		<name>Rotation</name>
																		<valuemin>-8640</valuemin>
																		<valuemax>8640</valuemax>
																		<value>0</value>
																	</parameter>
																	<parameter authoringApp="PremierePro">
																		<parameterid>center</parameterid>
																		<name>Center</name>
																		<value>
																			<horiz>0</horiz>
																			<vert>0</vert>
																		</value>
																	</parameter>
																	<parameter authoringApp="PremierePro">
																		<parameterid>centerOffset</parameterid>
																		<name>Anchor Point</name>
																		<value>
																			<horiz>0</horiz>
																			<vert>0</vert>
																		</value>
																	</parameter>
																	<parameter authoringApp="PremierePro">
																		<parameterid>antiflicker</parameterid>
																		<name>Anti-flicker Filter</name>
																		<valuemin>0.0</valuemin>
																		<valuemax>1.0</valuemax>
																		<value>0</value>
																	</parameter>
																</effect>
															</filter>
															<logginginfo>
																<description></description>
																<scene></scene>
																<shottake></shottake>
																<lognote></lognote>
																<good></good>
																<originalvideofilename></originalvideofilename>
																<originalaudiofilename></originalaudiofilename>
															</logginginfo>
															<colorinfo>
																<lut></lut>
																<lut1></lut1>
																<asc_sop></asc_sop>
																<asc_sat></asc_sat>
																<lut2></lut2>
															</colorinfo>
														</clipitem>
														<clipitem id="clipitem-360">
															<masterclipid>masterclip-22</masterclipid>
															<name>(krissharv3y)_BwU9t6TF1kz_IG.mp4</name>
															<enabled>TRUE</enabled>
															<duration>1763</duration>
															<rate>
																<timebase>30</timebase>
																<ntsc>TRUE</ntsc>
															</rate>
															<start>1686</start>
															<end>1983</end>
															<in>779</in>
															<out>1076</out>
															<pproTicksIn>6602544748800</pproTicksIn>
															<pproTicksOut>9119817907200</pproTicksOut>
															<alphatype>none</alphatype>
															<file id="file-22"/>
															<filter>
																<effect>
																	<name>Basic Motion</name>
																	<effectid>basic</effectid>
																	<effectcategory>motion</effectcategory>
																	<effecttype>motion</effecttype>
																	<mediatype>video</mediatype>
																	<pproBypass>false</pproBypass>
																	<parameter authoringApp="PremierePro">
																		<parameterid>scale</parameterid>
																		<name>Scale</name>
																		<valuemin>0</valuemin>
																		<valuemax>1000</valuemax>
																		<value>150</value>
																	</parameter>
																	<parameter authoringApp="PremierePro">
																		<parameterid>rotation</parameterid>
																		<name>Rotation</name>
																		<valuemin>-8640</valuemin>
																		<valuemax>8640</valuemax>
																		<value>0</value>
																	</parameter>
																	<parameter authoringApp="PremierePro">
																		<parameterid>center</parameterid>
																		<name>Center</name>
																		<value>
																			<horiz>0</horiz>
																			<vert>0</vert>
																		</value>
																	</parameter>
																	<parameter authoringApp="PremierePro">
																		<parameterid>centerOffset</parameterid>
																		<name>Anchor Point</name>
																		<value>
																			<horiz>0</horiz>
																			<vert>0</vert>
																		</value>
																	</parameter>
																	<parameter authoringApp="PremierePro">
																		<parameterid>antiflicker</parameterid>
																		<name>Anti-flicker Filter</name>
																		<valuemin>0.0</valuemin>
																		<valuemax>1.0</valuemax>
																		<value>0</value>
																	</parameter>
																</effect>
															</filter>
															<logginginfo>
																<description></description>
																<scene></scene>
																<shottake></shottake>
																<lognote></lognote>
																<good></good>
																<originalvideofilename></originalvideofilename>
																<originalaudiofilename></originalaudiofilename>
															</logginginfo>
															<colorinfo>
																<lut></lut>
																<lut1></lut1>
																<asc_sop></asc_sop>
																<asc_sat></asc_sat>
																<lut2></lut2>
															</colorinfo>
														</clipitem>
														<clipitem id="clipitem-361">
															<masterclipid>masterclip-22</masterclipid>
															<name>(krissharv3y)_BwU9t6TF1kz_IG.mp4</name>
															<enabled>TRUE</enabled>
															<duration>1763</duration>
															<rate>
																<timebase>30</timebase>
																<ntsc>TRUE</ntsc>
															</rate>
															<start>1983</start>
															<end>2275</end>
															<in>1229</in>
															<out>1521</out>
															<pproTicksIn>10416594988800</pproTicksIn>
															<pproTicksOut>12891489811200</pproTicksOut>
															<alphatype>none</alphatype>
															<file id="file-22"/>
															<filter>
																<effect>
																	<name>Basic Motion</name>
																	<effectid>basic</effectid>
																	<effectcategory>motion</effectcategory>
																	<effecttype>motion</effecttype>
																	<mediatype>video</mediatype>
																	<pproBypass>false</pproBypass>
																	<parameter authoringApp="PremierePro">
																		<parameterid>scale</parameterid>
																		<name>Scale</name>
																		<valuemin>0</valuemin>
																		<valuemax>1000</valuemax>
																		<value>150</value>
																	</parameter>
																	<parameter authoringApp="PremierePro">
																		<parameterid>rotation</parameterid>
																		<name>Rotation</name>
																		<valuemin>-8640</valuemin>
																		<valuemax>8640</valuemax>
																		<value>0</value>
																	</parameter>
																	<parameter authoringApp="PremierePro">
																		<parameterid>center</parameterid>
																		<name>Center</name>
																		<value>
																			<horiz>0</horiz>
																			<vert>0</vert>
																		</value>
																	</parameter>
																	<parameter authoringApp="PremierePro">
																		<parameterid>centerOffset</parameterid>
																		<name>Anchor Point</name>
																		<value>
																			<horiz>0</horiz>
																			<vert>0</vert>
																		</value>
																	</parameter>
																	<parameter authoringApp="PremierePro">
																		<parameterid>antiflicker</parameterid>
																		<name>Anti-flicker Filter</name>
																		<valuemin>0.0</valuemin>
																		<valuemax>1.0</valuemax>
																		<value>0</value>
																	</parameter>
																</effect>
															</filter>
															<logginginfo>
																<description></description>
																<scene></scene>
																<shottake></shottake>
																<lognote></lognote>
																<good></good>
																<originalvideofilename></originalvideofilename>
																<originalaudiofilename></originalaudiofilename>
															</logginginfo>
															<colorinfo>
																<lut></lut>
																<lut1></lut1>
																<asc_sop></asc_sop>
																<asc_sat></asc_sat>
																<lut2></lut2>
															</colorinfo>
														</clipitem>
														<clipitem id="clipitem-362">
															<masterclipid>masterclip-17</masterclipid>
															<name>(krissharv3y)_BklONb0l49j_IG.mp4</name>
															<enabled>TRUE</enabled>
															<duration>1437</duration>
															<rate>
																<timebase>30</timebase>
																<ntsc>TRUE</ntsc>
															</rate>
															<start>2275</start>
															<end>2585</end>
															<in>644</in>
															<out>954</out>
															<pproTicksIn>5458329676800</pproTicksIn>
															<pproTicksOut>8085786508800</pproTicksOut>
															<alphatype>none</alphatype>
															<file id="file-17"/>
															<filter>
																<effect>
																	<name>Basic Motion</name>
																	<effectid>basic</effectid>
																	<effectcategory>motion</effectcategory>
																	<effecttype>motion</effecttype>
																	<mediatype>video</mediatype>
																	<pproBypass>false</pproBypass>
																	<parameter authoringApp="PremierePro">
																		<parameterid>scale</parameterid>
																		<name>Scale</name>
																		<valuemin>0</valuemin>
																		<valuemax>1000</valuemax>
																		<value>168.75</value>
																	</parameter>
																	<parameter authoringApp="PremierePro">
																		<parameterid>rotation</parameterid>
																		<name>Rotation</name>
																		<valuemin>-8640</valuemin>
																		<valuemax>8640</valuemax>
																		<value>0</value>
																	</parameter>
																	<parameter authoringApp="PremierePro">
																		<parameterid>center</parameterid>
																		<name>Center</name>
																		<value>
																			<horiz>0</horiz>
																			<vert>0</vert>
																		</value>
																	</parameter>
																	<parameter authoringApp="PremierePro">
																		<parameterid>centerOffset</parameterid>
																		<name>Anchor Point</name>
																		<value>
																			<horiz>0</horiz>
																			<vert>0</vert>
																		</value>
																	</parameter>
																	<parameter authoringApp="PremierePro">
																		<parameterid>antiflicker</parameterid>
																		<name>Anti-flicker Filter</name>
																		<valuemin>0.0</valuemin>
																		<valuemax>1.0</valuemax>
																		<value>0</value>
																	</parameter>
																</effect>
															</filter>
															<logginginfo>
																<description></description>
																<scene></scene>
																<shottake></shottake>
																<lognote></lognote>
																<good></good>
																<originalvideofilename></originalvideofilename>
																<originalaudiofilename></originalaudiofilename>
															</logginginfo>
															<colorinfo>
																<lut></lut>
																<lut1></lut1>
																<asc_sop></asc_sop>
																<asc_sat></asc_sat>
																<lut2></lut2>
															</colorinfo>
														</clipitem>
														<enabled>TRUE</enabled>
														<locked>FALSE</locked>
													</track>
												</video>
												<audio>
													<numOutputChannels>2</numOutputChannels>
													<format>
														<samplecharacteristics>
															<depth>16</depth>
															<samplerate>48000</samplerate>
														</samplecharacteristics>
													</format>
													<outputs>
														<group>
															<index>1</index>
															<numchannels>1</numchannels>
															<downmix>0</downmix>
															<channel>
																<index>1</index>
															</channel>
														</group>
														<group>
															<index>2</index>
															<numchannels>1</numchannels>
															<downmix>0</downmix>
															<channel>
																<index>2</index>
															</channel>
														</group>
													</outputs>
													<track TL.SQTrackAudioKeyframeStyle="0" TL.SQTrackShy="0" TL.SQTrackExpandedHeight="25" TL.SQTrackExpanded="0" MZ.TrackTargeted="1" PannerCurrentValue="0.5" PannerIsInverted="true" PannerStartKeyframe="-91445760000000000,0.5,0,0,0,0,0,0" PannerName="Balance" currentExplodedTrackIndex="0" totalExplodedTrackCount="2" premiereTrackType="Stereo">
														<enabled>TRUE</enabled>
														<locked>FALSE</locked>
														<outputchannelindex>1</outputchannelindex>
													</track>
													<track TL.SQTrackAudioKeyframeStyle="0" TL.SQTrackShy="0" TL.SQTrackExpandedHeight="25" TL.SQTrackExpanded="0" MZ.TrackTargeted="1" PannerCurrentValue="0.5" PannerIsInverted="true" PannerStartKeyframe="-91445760000000000,0.5,0,0,0,0,0,0" PannerName="Balance" currentExplodedTrackIndex="1" totalExplodedTrackCount="2" premiereTrackType="Stereo">
														<enabled>TRUE</enabled>
														<locked>FALSE</locked>
														<outputchannelindex>2</outputchannelindex>
													</track>
												</audio>
											</media>
											<timecode>
												<rate>
													<timebase>30</timebase>
													<ntsc>TRUE</ntsc>
												</rate>
												<string>00;00;00;00</string>
												<frame>0</frame>
												<displayformat>DF</displayformat>
											</timecode>
											<logginginfo>
												<description></description>
												<scene></scene>
												<shottake></shottake>
												<lognote></lognote>
												<good></good>
												<originalvideofilename></originalvideofilename>
												<originalaudiofilename></originalaudiofilename>
											</logginginfo>
										</sequence>
										<filter>
											<effect>
												<name>Basic Motion</name>
												<effectid>basic</effectid>
												<effectcategory>motion</effectcategory>
												<effecttype>motion</effecttype>
												<mediatype>video</mediatype>
												<pproBypass>false</pproBypass>
												<parameter authoringApp="PremierePro">
													<parameterid>scale</parameterid>
													<name>Scale</name>
													<valuemin>0</valuemin>
													<valuemax>1000</valuemax>
													<value>300</value>
												</parameter>
												<parameter authoringApp="PremierePro">
													<parameterid>rotation</parameterid>
													<name>Rotation</name>
													<valuemin>-8640</valuemin>
													<valuemax>8640</valuemax>
													<value>0</value>
												</parameter>
												<parameter authoringApp="PremierePro">
													<parameterid>center</parameterid>
													<name>Center</name>
													<value>
														<horiz>-0.5</horiz>
														<vert>-0.5</vert>
													</value>
												</parameter>
												<parameter authoringApp="PremierePro">
													<parameterid>centerOffset</parameterid>
													<name>Anchor Point</name>
													<value>
														<horiz>0</horiz>
														<vert>0</vert>
													</value>
												</parameter>
												<parameter authoringApp="PremierePro">
													<parameterid>antiflicker</parameterid>
													<name>Anti-flicker Filter</name>
													<valuemin>0.0</valuemin>
													<valuemax>1.0</valuemax>
													<value>0</value>
												</parameter>
											</effect>
										</filter>
										<filter>
											<effect>
												<name>Gaussian Blur</name>
												<effectid>Gaussian Blur</effectid>
												<effectcategory>Blur</effectcategory>
												<effecttype>motion</effecttype>
												<mediatype>video</mediatype>
												<pproBypass>false</pproBypass>
												<parameter authoringApp="PremierePro">
													<parameterid>radius</parameterid>
													<name>Radius</name>
													<valuemin>0</valuemin>
													<valuemax>100</valuemax>
													<value>150</value>
												</parameter>
											</effect>
										</filter>
										<labels>
											<label2>Forest</label2>
										</labels>
									</clipitem>
									<enabled>TRUE</enabled>
									<locked>FALSE</locked>
								</track>
								<track TL.SQTrackShy="0" TL.SQTrackExpandedHeight="25" TL.SQTrackExpanded="0" MZ.TrackTargeted="0">
									<clipitem id="clipitem-363">
										<masterclipid>masterclip-174</masterclipid>
										<name>Nested Sequence 02</name>
										<enabled>TRUE</enabled>
										<duration>2585</duration>
										<rate>
											<timebase>30</timebase>
											<ntsc>TRUE</ntsc>
										</rate>
										<start>0</start>
										<end>2585</end>
										<in>0</in>
										<out>2585</out>
										<pproTicksIn>0</pproTicksIn>
										<pproTicksOut>21909599712000</pproTicksOut>
										<sequence id="sequence-5"/>
										<labels>
											<label2>Forest</label2>
										</labels>
									</clipitem>
									<enabled>TRUE</enabled>
									<locked>FALSE</locked>
								</track>
								<track TL.SQTrackShy="0" TL.SQTrackExpandedHeight="25" TL.SQTrackExpanded="0" MZ.TrackTargeted="0">
									<clipitem id="clipitem-364">
										<masterclipid>masterclip-175</masterclipid>
										<name>krissharv3y</name>
										<enabled>TRUE</enabled>
										<duration>5844</duration>
										<rate>
											<timebase>30</timebase>
											<ntsc>TRUE</ntsc>
										</rate>
										<start>0</start>
										<end>2585</end>
										<in>0</in>
										<out>2585</out>
										<pproTicksIn>0</pproTicksIn>
										<pproTicksOut>21909599712000</pproTicksOut>
										<alphatype>straight</alphatype>
										<pixelaspectratio>square</pixelaspectratio>
										<anamorphic>FALSE</anamorphic>
										<file id="file-173">
											<name>1080/AE Attribution.aep</name>
											<pathurl>file://localhost/Volumes/ATM%201/EYE%20CANDY/Project%20Template/5_Assets/AE%20Attribution.aep</pathurl>
											<rate>
												<timebase>30</timebase>
												<ntsc>TRUE</ntsc>
											</rate>
											<duration>5844</duration>
											<timecode>
												<rate>
													<timebase>30</timebase>
													<ntsc>TRUE</ntsc>
												</rate>
												<string>00;00;00;00</string>
												<frame>0</frame>
												<displayformat>DF</displayformat>
											</timecode>
											<media>
												<video>
													<samplecharacteristics>
														<rate>
															<timebase>30</timebase>
															<ntsc>TRUE</ntsc>
														</rate>
														<width>1920</width>
														<height>1080</height>
														<anamorphic>FALSE</anamorphic>
														<pixelaspectratio>square</pixelaspectratio>
														<fielddominance>lower</fielddominance>
													</samplecharacteristics>
												</video>
											</media>
										</file>
										<logginginfo>
											<description></description>
											<scene></scene>
											<shottake></shottake>
											<lognote></lognote>
											<good></good>
											<originalvideofilename></originalvideofilename>
											<originalaudiofilename></originalaudiofilename>
										</logginginfo>
										<colorinfo>
											<lut></lut>
											<lut1></lut1>
											<asc_sop></asc_sop>
											<asc_sat></asc_sat>
											<lut2></lut2>
										</colorinfo>
										<labels>
											<label2>Rose</label2>
										</labels>
									</clipitem>
									<enabled>TRUE</enabled>
									<locked>FALSE</locked>
								</track>
								<track TL.SQTrackShy="0" TL.SQTrackExpandedHeight="25" TL.SQTrackExpanded="0" MZ.TrackTargeted="0">
									<enabled>TRUE</enabled>
									<locked>FALSE</locked>
								</track>
								<track TL.SQTrackShy="0" TL.SQTrackExpandedHeight="25" TL.SQTrackExpanded="0" MZ.TrackTargeted="0">
									<enabled>TRUE</enabled>
									<locked>FALSE</locked>
								</track>
								<track TL.SQTrackShy="0" TL.SQTrackExpandedHeight="25" TL.SQTrackExpanded="0" MZ.TrackTargeted="0">
									<enabled>TRUE</enabled>
									<locked>FALSE</locked>
								</track>
								<track TL.SQTrackShy="0" TL.SQTrackExpandedHeight="25" TL.SQTrackExpanded="0" MZ.TrackTargeted="0">
									<enabled>TRUE</enabled>
									<locked>FALSE</locked>
								</track>
								<track TL.SQTrackShy="0" TL.SQTrackExpandedHeight="25" TL.SQTrackExpanded="0" MZ.TrackTargeted="0">
									<enabled>TRUE</enabled>
									<locked>FALSE</locked>
								</track>
								<track TL.SQTrackShy="0" TL.SQTrackExpandedHeight="25" TL.SQTrackExpanded="0" MZ.TrackTargeted="0">
									<enabled>TRUE</enabled>
									<locked>FALSE</locked>
								</track>
								<track TL.SQTrackShy="0" TL.SQTrackExpandedHeight="25" TL.SQTrackExpanded="0" MZ.TrackTargeted="0">
									<enabled>TRUE</enabled>
									<locked>FALSE</locked>
								</track>
							</video>
							<audio>
								<numOutputChannels>2</numOutputChannels>
								<format>
									<samplecharacteristics>
										<depth>16</depth>
										<samplerate>48000</samplerate>
									</samplecharacteristics>
								</format>
								<outputs>
									<group>
										<index>1</index>
										<numchannels>1</numchannels>
										<downmix>0</downmix>
										<channel>
											<index>1</index>
										</channel>
									</group>
									<group>
										<index>2</index>
										<numchannels>1</numchannels>
										<downmix>0</downmix>
										<channel>
											<index>2</index>
										</channel>
									</group>
								</outputs>
								<track TL.SQTrackAudioKeyframeStyle="0" TL.SQTrackShy="0" TL.SQTrackExpandedHeight="25" TL.SQTrackExpanded="0" MZ.TrackTargeted="1" PannerCurrentValue="0.5" PannerIsInverted="true" PannerStartKeyframe="-91445760000000000,0.5,0,0,0,0,0,0" PannerName="Balance" currentExplodedTrackIndex="0" totalExplodedTrackCount="2" premiereTrackType="Stereo">
									<clipitem id="clipitem-365" premiereChannelType="stereo">
										<masterclipid>masterclip-176</masterclipid>
										<name>ES_Melt Away (Instrumental Version) - Adelyn Paik.mp3</name>
										<enabled>TRUE</enabled>
										<duration>5632</duration>
										<rate>
											<timebase>30</timebase>
											<ntsc>TRUE</ntsc>
										</rate>
										<start>0</start>
										<end>2585</end>
										<in>0</in>
										<out>2585</out>
										<pproTicksIn>0</pproTicksIn>
										<pproTicksOut>21909599712000</pproTicksOut>
										<file id="file-174">
											<name>ES_Melt Away (Instrumental Version) - Adelyn Paik.mp3</name>
											<pathurl>file://localhost/Volumes/ATM%201/EYE%20CANDY/8%3a21%3a23/5_Assets/Music/ES_Melt%20Away%20(Instrumental%20Version)%20-%20Adelyn%20Paik.mp3</pathurl>
											<rate>
												<timebase>30</timebase>
												<ntsc>TRUE</ntsc>
											</rate>
											<duration>5632</duration>
											<timecode>
												<rate>
													<timebase>30</timebase>
													<ntsc>TRUE</ntsc>
												</rate>
												<string>00;00;00;00</string>
												<frame>0</frame>
												<displayformat>DF</displayformat>
											</timecode>
											<media>
												<audio>
													<samplecharacteristics>
														<depth>16</depth>
														<samplerate>48000</samplerate>
													</samplecharacteristics>
													<channelcount>2</channelcount>
												</audio>
											</media>
										</file>
										<sourcetrack>
											<mediatype>audio</mediatype>
											<trackindex>1</trackindex>
										</sourcetrack>
										<link>
											<linkclipref>clipitem-365</linkclipref>
											<mediatype>audio</mediatype>
											<trackindex>1</trackindex>
											<clipindex>1</clipindex>
											<groupindex>1</groupindex>
										</link>
										<link>
											<linkclipref>clipitem-366</linkclipref>
											<mediatype>audio</mediatype>
											<trackindex>2</trackindex>
											<clipindex>1</clipindex>
											<groupindex>1</groupindex>
										</link>
										<logginginfo>
											<description></description>
											<scene></scene>
											<shottake></shottake>
											<lognote></lognote>
											<good></good>
											<originalvideofilename></originalvideofilename>
											<originalaudiofilename></originalaudiofilename>
										</logginginfo>
										<colorinfo>
											<lut></lut>
											<lut1></lut1>
											<asc_sop></asc_sop>
											<asc_sat></asc_sat>
											<lut2></lut2>
										</colorinfo>
										<labels>
											<label2>Caribbean</label2>
										</labels>
									</clipitem>
									<enabled>TRUE</enabled>
									<locked>FALSE</locked>
									<filter>
										<effect>
											<name>Audio Levels</name>
											<effectid>audiolevels</effectid>
											<effectcategory>audiolevels</effectcategory>
											<effecttype>audiolevels</effecttype>
											<mediatype>audio</mediatype>
											<parameter authoringApp="PremierePro">
												<parameterid>level</parameterid>
												<name>Level</name>
												<valuemin>0</valuemin>
												<valuemax>3.98109</valuemax>
												<value>0.706272</value>
											</parameter>
										</effect>
									</filter>
									<outputchannelindex>1</outputchannelindex>
								</track>
								<track TL.SQTrackAudioKeyframeStyle="0" TL.SQTrackShy="0" TL.SQTrackExpandedHeight="25" TL.SQTrackExpanded="0" MZ.TrackTargeted="1" PannerCurrentValue="0.5" PannerIsInverted="true" PannerStartKeyframe="-91445760000000000,0.5,0,0,0,0,0,0" PannerName="Balance" currentExplodedTrackIndex="1" totalExplodedTrackCount="2" premiereTrackType="Stereo">
									<clipitem id="clipitem-366" premiereChannelType="stereo">
										<masterclipid>masterclip-176</masterclipid>
										<name>ES_Melt Away (Instrumental Version) - Adelyn Paik.mp3</name>
										<enabled>TRUE</enabled>
										<duration>5632</duration>
										<rate>
											<timebase>30</timebase>
											<ntsc>TRUE</ntsc>
										</rate>
										<start>0</start>
										<end>2585</end>
										<in>0</in>
										<out>2585</out>
										<pproTicksIn>0</pproTicksIn>
										<pproTicksOut>21909599712000</pproTicksOut>
										<file id="file-174"/>
										<sourcetrack>
											<mediatype>audio</mediatype>
											<trackindex>2</trackindex>
										</sourcetrack>
										<link>
											<linkclipref>clipitem-365</linkclipref>
											<mediatype>audio</mediatype>
											<trackindex>1</trackindex>
											<clipindex>1</clipindex>
											<groupindex>1</groupindex>
										</link>
										<link>
											<linkclipref>clipitem-366</linkclipref>
											<mediatype>audio</mediatype>
											<trackindex>2</trackindex>
											<clipindex>1</clipindex>
											<groupindex>1</groupindex>
										</link>
										<logginginfo>
											<description></description>
											<scene></scene>
											<shottake></shottake>
											<lognote></lognote>
											<good></good>
											<originalvideofilename></originalvideofilename>
											<originalaudiofilename></originalaudiofilename>
										</logginginfo>
										<colorinfo>
											<lut></lut>
											<lut1></lut1>
											<asc_sop></asc_sop>
											<asc_sat></asc_sat>
											<lut2></lut2>
										</colorinfo>
										<labels>
											<label2>Caribbean</label2>
										</labels>
									</clipitem>
									<enabled>TRUE</enabled>
									<locked>FALSE</locked>
									<filter>
										<effect>
											<name>Audio Levels</name>
											<effectid>audiolevels</effectid>
											<effectcategory>audiolevels</effectcategory>
											<effecttype>audiolevels</effecttype>
											<mediatype>audio</mediatype>
											<parameter authoringApp="PremierePro">
												<parameterid>level</parameterid>
												<name>Level</name>
												<valuemin>0</valuemin>
												<valuemax>3.98109</valuemax>
												<value>0.706272</value>
											</parameter>
										</effect>
									</filter>
									<outputchannelindex>2</outputchannelindex>
								</track>
								<track TL.SQTrackAudioKeyframeStyle="0" TL.SQTrackShy="0" TL.SQTrackExpandedHeight="25" TL.SQTrackExpanded="0" MZ.TrackTargeted="0" PannerCurrentValue="0.5" PannerIsInverted="true" PannerStartKeyframe="-91445760000000000,0.5,0,0,0,0,0,0" PannerName="Balance" currentExplodedTrackIndex="0" totalExplodedTrackCount="2" premiereTrackType="Stereo">
									<enabled>TRUE</enabled>
									<locked>FALSE</locked>
									<outputchannelindex>1</outputchannelindex>
								</track>
								<track TL.SQTrackAudioKeyframeStyle="0" TL.SQTrackShy="0" TL.SQTrackExpandedHeight="25" TL.SQTrackExpanded="0" MZ.TrackTargeted="0" PannerCurrentValue="0.5" PannerIsInverted="true" PannerStartKeyframe="-91445760000000000,0.5,0,0,0,0,0,0" PannerName="Balance" currentExplodedTrackIndex="1" totalExplodedTrackCount="2" premiereTrackType="Stereo">
									<enabled>TRUE</enabled>
									<locked>FALSE</locked>
									<outputchannelindex>2</outputchannelindex>
								</track>
								<track TL.SQTrackAudioKeyframeStyle="0" TL.SQTrackShy="0" TL.SQTrackExpandedHeight="25" TL.SQTrackExpanded="0" MZ.TrackTargeted="0" PannerCurrentValue="0.5" PannerIsInverted="true" PannerStartKeyframe="-91445760000000000,0.5,0,0,0,0,0,0" PannerName="Balance" currentExplodedTrackIndex="0" totalExplodedTrackCount="2" premiereTrackType="Stereo">
									<enabled>TRUE</enabled>
									<locked>FALSE</locked>
									<outputchannelindex>1</outputchannelindex>
								</track>
								<track TL.SQTrackAudioKeyframeStyle="0" TL.SQTrackShy="0" TL.SQTrackExpandedHeight="25" TL.SQTrackExpanded="0" MZ.TrackTargeted="0" PannerCurrentValue="0.5" PannerIsInverted="true" PannerStartKeyframe="-91445760000000000,0.5,0,0,0,0,0,0" PannerName="Balance" currentExplodedTrackIndex="1" totalExplodedTrackCount="2" premiereTrackType="Stereo">
									<enabled>TRUE</enabled>
									<locked>FALSE</locked>
									<outputchannelindex>2</outputchannelindex>
								</track>
								<track TL.SQTrackAudioKeyframeStyle="0" TL.SQTrackShy="0" TL.SQTrackExpandedHeight="25" TL.SQTrackExpanded="0" MZ.TrackTargeted="0" PannerCurrentValue="0.5" PannerIsInverted="true" PannerStartKeyframe="-91445760000000000,0.5,0,0,0,0,0,0" PannerName="Balance" currentExplodedTrackIndex="0" totalExplodedTrackCount="2" premiereTrackType="Stereo">
									<enabled>TRUE</enabled>
									<locked>FALSE</locked>
									<outputchannelindex>1</outputchannelindex>
								</track>
								<track TL.SQTrackAudioKeyframeStyle="0" TL.SQTrackShy="0" TL.SQTrackExpandedHeight="25" TL.SQTrackExpanded="0" MZ.TrackTargeted="0" PannerCurrentValue="0.5" PannerIsInverted="true" PannerStartKeyframe="-91445760000000000,0.5,0,0,0,0,0,0" PannerName="Balance" currentExplodedTrackIndex="1" totalExplodedTrackCount="2" premiereTrackType="Stereo">
									<enabled>TRUE</enabled>
									<locked>FALSE</locked>
									<outputchannelindex>2</outputchannelindex>
								</track>
								<track TL.SQTrackAudioKeyframeStyle="0" TL.SQTrackShy="0" TL.SQTrackExpandedHeight="25" TL.SQTrackExpanded="0" MZ.TrackTargeted="0" PannerCurrentValue="0.5" PannerIsInverted="true" PannerStartKeyframe="-91445760000000000,0.5,0,0,0,0,0,0" PannerName="Balance" currentExplodedTrackIndex="0" totalExplodedTrackCount="2" premiereTrackType="Stereo">
									<enabled>TRUE</enabled>
									<locked>FALSE</locked>
									<outputchannelindex>1</outputchannelindex>
								</track>
								<track TL.SQTrackAudioKeyframeStyle="0" TL.SQTrackShy="0" TL.SQTrackExpandedHeight="25" TL.SQTrackExpanded="0" MZ.TrackTargeted="0" PannerCurrentValue="0.5" PannerIsInverted="true" PannerStartKeyframe="-91445760000000000,0.5,0,0,0,0,0,0" PannerName="Balance" currentExplodedTrackIndex="1" totalExplodedTrackCount="2" premiereTrackType="Stereo">
									<enabled>TRUE</enabled>
									<locked>FALSE</locked>
									<outputchannelindex>2</outputchannelindex>
								</track>
								<track TL.SQTrackAudioKeyframeStyle="0" TL.SQTrackShy="0" TL.SQTrackExpandedHeight="25" TL.SQTrackExpanded="0" MZ.TrackTargeted="0" PannerCurrentValue="0.5" PannerIsInverted="true" PannerStartKeyframe="-91445760000000000,0.5,0,0,0,0,0,0" PannerName="Balance" currentExplodedTrackIndex="0" totalExplodedTrackCount="2" premiereTrackType="Stereo">
									<enabled>TRUE</enabled>
									<locked>FALSE</locked>
									<outputchannelindex>1</outputchannelindex>
								</track>
								<track TL.SQTrackAudioKeyframeStyle="0" TL.SQTrackShy="0" TL.SQTrackExpandedHeight="25" TL.SQTrackExpanded="0" MZ.TrackTargeted="0" PannerCurrentValue="0.5" PannerIsInverted="true" PannerStartKeyframe="-91445760000000000,0.5,0,0,0,0,0,0" PannerName="Balance" currentExplodedTrackIndex="1" totalExplodedTrackCount="2" premiereTrackType="Stereo">
									<enabled>TRUE</enabled>
									<locked>FALSE</locked>
									<outputchannelindex>2</outputchannelindex>
								</track>
								<track TL.SQTrackAudioKeyframeStyle="0" TL.SQTrackShy="0" TL.SQTrackExpandedHeight="25" TL.SQTrackExpanded="0" MZ.TrackTargeted="0" PannerCurrentValue="0.5" PannerIsInverted="true" PannerStartKeyframe="-91445760000000000,0.5,0,0,0,0,0,0" PannerName="Balance" currentExplodedTrackIndex="0" totalExplodedTrackCount="2" premiereTrackType="Stereo">
									<enabled>TRUE</enabled>
									<locked>FALSE</locked>
									<outputchannelindex>1</outputchannelindex>
								</track>
								<track TL.SQTrackAudioKeyframeStyle="0" TL.SQTrackShy="0" TL.SQTrackExpandedHeight="25" TL.SQTrackExpanded="0" MZ.TrackTargeted="0" PannerCurrentValue="0.5" PannerIsInverted="true" PannerStartKeyframe="-91445760000000000,0.5,0,0,0,0,0,0" PannerName="Balance" currentExplodedTrackIndex="1" totalExplodedTrackCount="2" premiereTrackType="Stereo">
									<enabled>TRUE</enabled>
									<locked>FALSE</locked>
									<outputchannelindex>2</outputchannelindex>
								</track>
								<track TL.SQTrackAudioKeyframeStyle="0" TL.SQTrackShy="0" TL.SQTrackExpandedHeight="25" TL.SQTrackExpanded="0" MZ.TrackTargeted="0" PannerCurrentValue="0.5" PannerIsInverted="true" PannerStartKeyframe="-91445760000000000,0.5,0,0,0,0,0,0" PannerName="Balance" currentExplodedTrackIndex="0" totalExplodedTrackCount="2" premiereTrackType="Stereo">
									<enabled>TRUE</enabled>
									<locked>FALSE</locked>
									<outputchannelindex>1</outputchannelindex>
								</track>
								<track TL.SQTrackAudioKeyframeStyle="0" TL.SQTrackShy="0" TL.SQTrackExpandedHeight="25" TL.SQTrackExpanded="0" MZ.TrackTargeted="0" PannerCurrentValue="0.5" PannerIsInverted="true" PannerStartKeyframe="-91445760000000000,0.5,0,0,0,0,0,0" PannerName="Balance" currentExplodedTrackIndex="1" totalExplodedTrackCount="2" premiereTrackType="Stereo">
									<enabled>TRUE</enabled>
									<locked>FALSE</locked>
									<outputchannelindex>2</outputchannelindex>
								</track>
								<track TL.SQTrackAudioKeyframeStyle="0" TL.SQTrackShy="0" TL.SQTrackExpandedHeight="25" TL.SQTrackExpanded="0" MZ.TrackTargeted="0" PannerCurrentValue="0.5" PannerIsInverted="true" PannerStartKeyframe="-91445760000000000,0.5,0,0,0,0,0,0" PannerName="Balance" currentExplodedTrackIndex="0" totalExplodedTrackCount="2" premiereTrackType="Stereo">
									<enabled>TRUE</enabled>
									<locked>FALSE</locked>
									<outputchannelindex>1</outputchannelindex>
								</track>
								<track TL.SQTrackAudioKeyframeStyle="0" TL.SQTrackShy="0" TL.SQTrackExpandedHeight="25" TL.SQTrackExpanded="0" MZ.TrackTargeted="0" PannerCurrentValue="0.5" PannerIsInverted="true" PannerStartKeyframe="-91445760000000000,0.5,0,0,0,0,0,0" PannerName="Balance" currentExplodedTrackIndex="1" totalExplodedTrackCount="2" premiereTrackType="Stereo">
									<enabled>TRUE</enabled>
									<locked>FALSE</locked>
									<outputchannelindex>2</outputchannelindex>
								</track>
								<track TL.SQTrackAudioKeyframeStyle="0" TL.SQTrackShy="0" TL.SQTrackExpandedHeight="25" TL.SQTrackExpanded="0" MZ.TrackTargeted="0" PannerCurrentValue="0.5" PannerIsInverted="true" PannerStartKeyframe="-91445760000000000,0.5,0,0,0,0,0,0" PannerName="Balance" currentExplodedTrackIndex="0" totalExplodedTrackCount="2" premiereTrackType="Stereo">
									<enabled>TRUE</enabled>
									<locked>FALSE</locked>
									<outputchannelindex>1</outputchannelindex>
								</track>
								<track TL.SQTrackAudioKeyframeStyle="0" TL.SQTrackShy="0" TL.SQTrackExpandedHeight="25" TL.SQTrackExpanded="0" MZ.TrackTargeted="0" PannerCurrentValue="0.5" PannerIsInverted="true" PannerStartKeyframe="-91445760000000000,0.5,0,0,0,0,0,0" PannerName="Balance" currentExplodedTrackIndex="1" totalExplodedTrackCount="2" premiereTrackType="Stereo">
									<enabled>TRUE</enabled>
									<locked>FALSE</locked>
									<outputchannelindex>2</outputchannelindex>
								</track>
							</audio>
						</media>
						<timecode>
							<rate>
								<timebase>30</timebase>
								<ntsc>TRUE</ntsc>
							</rate>
							<string>00;00;00;00</string>
							<frame>0</frame>
							<displayformat>DF</displayformat>
						</timecode>
						<labels>
							<label2>Forest</label2>
						</labels>
						<logginginfo>
							<description></description>
							<scene></scene>
							<shottake></shottake>
							<lognote></lognote>
							<good></good>
							<originalvideofilename></originalvideofilename>
							<originalaudiofilename></originalaudiofilename>
						</logginginfo>
					</sequence>
					<sequence id="sequence-6" TL.SQAudioVisibleBase="0" TL.SQVideoVisibleBase="0" TL.SQVisibleBaseTime="912546835201" TL.SQAVDividerPosition="0.5" TL.SQHideShyTracks="0" TL.SQHeaderWidth="236" TL.SQDataTrackViewControlState="0" Monitor.ProgramZoomOut="15434189971200" Monitor.ProgramZoomIn="0" TL.SQTimePerPixel="0.071182222222222216" AM.TrackVScrollPosition="0" AM.TrackScrollPosition="0" MZ.EditLine="12026971756800" MZ.Sequence.PreviewFrameSizeHeight="1080" MZ.Sequence.PreviewFrameSizeWidth="1920" MZ.Sequence.AudioTimeDisplayFormat="200" MZ.Sequence.PreviewRenderingClassID="1061109567" MZ.Sequence.PreviewRenderingPresetCodec="1634755443" MZ.Sequence.PreviewRenderingPresetPath="EncoderPresets/SequencePreview/35d109db-457b-43c1-9452-9cb7be9f121c/QuickTime.epr" MZ.Sequence.PreviewUseMaxRenderQuality="false" MZ.Sequence.PreviewUseMaxBitDepth="false" MZ.Sequence.EditingModeGUID="35d109db-457b-43c1-9452-9cb7be9f121c" MZ.Sequence.VideoTimeDisplayFormat="102" MZ.WorkOutPoint="1262874412800" MZ.WorkInPoint="0" explodedTracks="true">
						<uuid>e415cab7-de2a-4233-9057-18c7862622a3</uuid>
						<duration>1821</duration>
						<rate>
							<timebase>30</timebase>
							<ntsc>TRUE</ntsc>
						</rate>
						<out>1821</out>
						<name>FND_Call Up Cookie Monster_1</name>
						<media>
							<video>
								<format>
									<samplecharacteristics>
										<rate>
											<timebase>30</timebase>
											<ntsc>TRUE</ntsc>
										</rate>
										<codec>
											<name>Apple ProRes 422</name>
											<appspecificdata>
												<appname>Final Cut Pro</appname>
												<appmanufacturer>Apple Inc.</appmanufacturer>
												<appversion>7.0</appversion>
												<data>
													<qtcodec>
														<codecname>Apple ProRes 422</codecname>
														<codectypename>Apple ProRes 422</codectypename>
														<codectypecode>apcn</codectypecode>
														<codecvendorcode>appl</codecvendorcode>
														<spatialquality>1024</spatialquality>
														<temporalquality>0</temporalquality>
														<keyframerate>0</keyframerate>
														<datarate>0</datarate>
													</qtcodec>
												</data>
											</appspecificdata>
										</codec>
										<width>1920</width>
										<height>1080</height>
										<anamorphic>FALSE</anamorphic>
										<pixelaspectratio>square</pixelaspectratio>
										<fielddominance>none</fielddominance>
										<colordepth>24</colordepth>
									</samplecharacteristics>
								</format>
								<track TL.SQTrackShy="0" TL.SQTrackExpandedHeight="25" TL.SQTrackExpanded="0" MZ.TrackTargeted="1">
									<clipitem id="clipitem-367">
										<masterclipid>masterclip-25</masterclipid>
										<name>(milkytreatsicecream)_6866908067045330181_TT.mp4</name>
										<enabled>TRUE</enabled>
										<duration>516</duration>
										<rate>
											<timebase>30</timebase>
											<ntsc>TRUE</ntsc>
										</rate>
										<start>0</start>
										<end>94</end>
										<in>26</in>
										<out>119</out>
										<pproTicksIn>186464678400</pproTicksIn>
										<pproTicksOut>878558553598</pproTicksOut>
										<alphatype>none</alphatype>
										<file id="file-25"/>
										<filter>
											<effect>
												<name>Basic Motion</name>
												<effectid>basic</effectid>
												<effectcategory>motion</effectcategory>
												<effecttype>motion</effecttype>
												<mediatype>video</mediatype>
												<pproBypass>false</pproBypass>
												<parameter authoringApp="PremierePro">
													<parameterid>scale</parameterid>
													<name>Scale</name>
													<valuemin>0</valuemin>
													<valuemax>1000</valuemax>
													<value>100</value>
												</parameter>
												<parameter authoringApp="PremierePro">
													<parameterid>rotation</parameterid>
													<name>Rotation</name>
													<valuemin>-8640</valuemin>
													<valuemax>8640</valuemax>
													<value>0</value>
												</parameter>
												<parameter authoringApp="PremierePro">
													<parameterid>center</parameterid>
													<name>Center</name>
													<value>
														<horiz>0.0243056</horiz>
														<vert>0</vert>
													</value>
												</parameter>
												<parameter authoringApp="PremierePro">
													<parameterid>centerOffset</parameterid>
													<name>Anchor Point</name>
													<value>
														<horiz>0</horiz>
														<vert>0</vert>
													</value>
												</parameter>
												<parameter authoringApp="PremierePro">
													<parameterid>antiflicker</parameterid>
													<name>Anti-flicker Filter</name>
													<valuemin>0.0</valuemin>
													<valuemax>1.0</valuemax>
													<value>0</value>
												</parameter>
											</effect>
										</filter>
										<filter>
											<effect>
												<name>Time Remap</name>
												<effectid>timeremap</effectid>
												<effectcategory>motion</effectcategory>
												<effecttype>motion</effecttype>
												<mediatype>video</mediatype>
												<parameter authoringApp="PremierePro">
													<parameterid>variablespeed</parameterid>
													<name>variablespeed</name>
													<valuemin>0</valuemin>
													<valuemax>1</valuemax>
													<value>0</value>
												</parameter>
												<parameter authoringApp="PremierePro">
													<parameterid>speed</parameterid>
													<name>speed</name>
													<valuemin>-100000</valuemin>
													<valuemax>100000</valuemax>
													<value>86.8687</value>
												</parameter>
												<parameter authoringApp="PremierePro">
													<parameterid>reverse</parameterid>
													<name>reverse</name>
													<value>FALSE</value>
												</parameter>
												<parameter authoringApp="PremierePro">
													<parameterid>frameblending</parameterid>
													<name>frameblending</name>
													<value>FALSE</value>
												</parameter>
												<parameter authoringApp="PremierePro">
													<parameterid>graphdict</parameterid>
													<name>graphdict</name>
													<valuemin>0</valuemin>
													<valuemax>448</valuemax>
													<value>0</value>
													<keyframe>
														<when>0</when>
														<value>0</value>
														<speedvirtualkf>TRUE</speedvirtualkf>
														<speedkfstart>TRUE</speedkfstart>
													</keyframe>
													<keyframe>
														<when>26</when>
														<value>22</value>
														<speedvirtualkf>TRUE</speedvirtualkf>
														<speedkfin>TRUE</speedkfin>
													</keyframe>
													<keyframe>
														<when>119</when>
														<value>103</value>
														<speedvirtualkf>TRUE</speedvirtualkf>
														<speedkfout>TRUE</speedkfout>
													</keyframe>
													<keyframe>
														<when>516</when>
														<value>448</value>
														<speedvirtualkf>TRUE</speedvirtualkf>
														<speedkfend>TRUE</speedkfend>
													</keyframe>
													<interpolation>
														<name>FCPCurve</name>
													</interpolation>
												</parameter>
											</effect>
										</filter>
										<logginginfo>
											<description></description>
											<scene></scene>
											<shottake></shottake>
											<lognote></lognote>
											<good></good>
											<originalvideofilename></originalvideofilename>
											<originalaudiofilename></originalaudiofilename>
										</logginginfo>
										<colorinfo>
											<lut></lut>
											<lut1></lut1>
											<asc_sop></asc_sop>
											<asc_sat></asc_sat>
											<lut2></lut2>
										</colorinfo>
										<labels>
											<label2>Caribbean</label2>
										</labels>
									</clipitem>
									<clipitem id="clipitem-368">
										<masterclipid>masterclip-25</masterclipid>
										<name>(milkytreatsicecream)_6866908067045330181_TT.mp4</name>
										<enabled>TRUE</enabled>
										<duration>449</duration>
										<rate>
											<timebase>30</timebase>
											<ntsc>TRUE</ntsc>
										</rate>
										<start>94</start>
										<end>314</end>
										<in>116</in>
										<out>336</out>
										<pproTicksIn>983177395200</pproTicksIn>
										<pproTicksOut>2847824179200</pproTicksOut>
										<alphatype>none</alphatype>
										<file id="file-25"/>
										<filter>
											<effect>
												<name>Basic Motion</name>
												<effectid>basic</effectid>
												<effectcategory>motion</effectcategory>
												<effecttype>motion</effecttype>
												<mediatype>video</mediatype>
												<pproBypass>false</pproBypass>
												<parameter authoringApp="PremierePro">
													<parameterid>scale</parameterid>
													<name>Scale</name>
													<valuemin>0</valuemin>
													<valuemax>1000</valuemax>
													<value>100</value>
												</parameter>
												<parameter authoringApp="PremierePro">
													<parameterid>rotation</parameterid>
													<name>Rotation</name>
													<valuemin>-8640</valuemin>
													<valuemax>8640</valuemax>
													<value>0</value>
												</parameter>
												<parameter authoringApp="PremierePro">
													<parameterid>center</parameterid>
													<name>Center</name>
													<value>
														<horiz>0.0243056</horiz>
														<vert>0</vert>
													</value>
												</parameter>
												<parameter authoringApp="PremierePro">
													<parameterid>centerOffset</parameterid>
													<name>Anchor Point</name>
													<value>
														<horiz>0</horiz>
														<vert>0</vert>
													</value>
												</parameter>
												<parameter authoringApp="PremierePro">
													<parameterid>antiflicker</parameterid>
													<name>Anti-flicker Filter</name>
													<valuemin>0.0</valuemin>
													<valuemax>1.0</valuemax>
													<value>0</value>
												</parameter>
											</effect>
										</filter>
										<logginginfo>
											<description></description>
											<scene></scene>
											<shottake></shottake>
											<lognote></lognote>
											<good></good>
											<originalvideofilename></originalvideofilename>
											<originalaudiofilename></originalaudiofilename>
										</logginginfo>
										<colorinfo>
											<lut></lut>
											<lut1></lut1>
											<asc_sop></asc_sop>
											<asc_sat></asc_sat>
											<lut2></lut2>
										</colorinfo>
										<labels>
											<label2>Caribbean</label2>
										</labels>
									</clipitem>
									<clipitem id="clipitem-369">
										<masterclipid>masterclip-25</masterclipid>
										<name>(milkytreatsicecream)_6866908067045330181_TT.mp4</name>
										<enabled>TRUE</enabled>
										<duration>478</duration>
										<rate>
											<timebase>30</timebase>
											<ntsc>TRUE</ntsc>
										</rate>
										<start>314</start>
										<end>427</end>
										<in>364</in>
										<out>476</out>
										<pproTicksIn>2890202515200</pproTicksIn>
										<pproTicksOut>3789655058754</pproTicksOut>
										<alphatype>none</alphatype>
										<file id="file-25"/>
										<filter>
											<effect>
												<name>Basic Motion</name>
												<effectid>basic</effectid>
												<effectcategory>motion</effectcategory>
												<effecttype>motion</effecttype>
												<mediatype>video</mediatype>
												<pproBypass>false</pproBypass>
												<parameter authoringApp="PremierePro">
													<parameterid>scale</parameterid>
													<name>Scale</name>
													<valuemin>0</valuemin>
													<valuemax>1000</valuemax>
													<value>100</value>
												</parameter>
												<parameter authoringApp="PremierePro">
													<parameterid>rotation</parameterid>
													<name>Rotation</name>
													<valuemin>-8640</valuemin>
													<valuemax>8640</valuemax>
													<value>0</value>
												</parameter>
												<parameter authoringApp="PremierePro">
													<parameterid>center</parameterid>
													<name>Center</name>
													<value>
														<horiz>0.0243056</horiz>
														<vert>0</vert>
													</value>
												</parameter>
												<parameter authoringApp="PremierePro">
													<parameterid>centerOffset</parameterid>
													<name>Anchor Point</name>
													<value>
														<horiz>0</horiz>
														<vert>0</vert>
													</value>
												</parameter>
												<parameter authoringApp="PremierePro">
													<parameterid>antiflicker</parameterid>
													<name>Anti-flicker Filter</name>
													<valuemin>0.0</valuemin>
													<valuemax>1.0</valuemax>
													<value>0</value>
												</parameter>
											</effect>
										</filter>
										<filter>
											<effect>
												<name>Time Remap</name>
												<effectid>timeremap</effectid>
												<effectcategory>motion</effectcategory>
												<effecttype>motion</effecttype>
												<mediatype>video</mediatype>
												<parameter authoringApp="PremierePro">
													<parameterid>variablespeed</parameterid>
													<name>variablespeed</name>
													<valuemin>0</valuemin>
													<valuemax>1</valuemax>
													<value>0</value>
												</parameter>
												<parameter authoringApp="PremierePro">
													<parameterid>speed</parameterid>
													<name>speed</name>
													<valuemin>-100000</valuemin>
													<valuemax>100000</valuemax>
													<value>93.913</value>
												</parameter>
												<parameter authoringApp="PremierePro">
													<parameterid>reverse</parameterid>
													<name>reverse</name>
													<value>FALSE</value>
												</parameter>
												<parameter authoringApp="PremierePro">
													<parameterid>frameblending</parameterid>
													<name>frameblending</name>
													<value>FALSE</value>
												</parameter>
												<parameter authoringApp="PremierePro">
													<parameterid>graphdict</parameterid>
													<name>graphdict</name>
													<valuemin>0</valuemin>
													<valuemax>448</valuemax>
													<value>0</value>
													<keyframe>
														<when>0</when>
														<value>0</value>
														<speedvirtualkf>TRUE</speedvirtualkf>
														<speedkfstart>TRUE</speedkfstart>
													</keyframe>
													<keyframe>
														<when>364</when>
														<value>341</value>
														<speedvirtualkf>TRUE</speedvirtualkf>
														<speedkfin>TRUE</speedkfin>
													</keyframe>
													<keyframe>
														<when>476</when>
														<value>447</value>
														<speedvirtualkf>TRUE</speedvirtualkf>
														<speedkfout>TRUE</speedkfout>
													</keyframe>
													<keyframe>
														<when>478</when>
														<value>448</value>
														<speedvirtualkf>TRUE</speedvirtualkf>
														<speedkfend>TRUE</speedkfend>
													</keyframe>
													<interpolation>
														<name>FCPCurve</name>
													</interpolation>
												</parameter>
											</effect>
										</filter>
										<logginginfo>
											<description></description>
											<scene></scene>
											<shottake></shottake>
											<lognote></lognote>
											<good></good>
											<originalvideofilename></originalvideofilename>
											<originalaudiofilename></originalaudiofilename>
										</logginginfo>
										<colorinfo>
											<lut></lut>
											<lut1></lut1>
											<asc_sop></asc_sop>
											<asc_sat></asc_sat>
											<lut2></lut2>
										</colorinfo>
										<labels>
											<label2>Caribbean</label2>
										</labels>
									</clipitem>
									<clipitem id="clipitem-370">
										<masterclipid>masterclip-27</masterclipid>
										<name>(thesugarhobby)_CsQ1pRaAQt__IG.mp4</name>
										<enabled>TRUE</enabled>
										<duration>397</duration>
										<rate>
											<timebase>30</timebase>
											<ntsc>TRUE</ntsc>
										</rate>
										<start>427</start>
										<end>765</end>
										<in>59</in>
										<out>397</out>
										<pproTicksIn>500064364800</pproTicksIn>
										<pproTicksOut>3364839878400</pproTicksOut>
										<alphatype>none</alphatype>
										<file id="file-27"/>
										<filter>
											<effect>
												<name>Basic Motion</name>
												<effectid>basic</effectid>
												<effectcategory>motion</effectcategory>
												<effecttype>motion</effecttype>
												<mediatype>video</mediatype>
												<pproBypass>false</pproBypass>
												<parameter authoringApp="PremierePro">
													<parameterid>scale</parameterid>
													<name>Scale</name>
													<valuemin>0</valuemin>
													<valuemax>1000</valuemax>
													<value>100</value>
												</parameter>
												<parameter authoringApp="PremierePro">
													<parameterid>rotation</parameterid>
													<name>Rotation</name>
													<valuemin>-8640</valuemin>
													<valuemax>8640</valuemax>
													<value>0</value>
												</parameter>
												<parameter authoringApp="PremierePro">
													<parameterid>center</parameterid>
													<name>Center</name>
													<value>
														<horiz>0.012963</horiz>
														<vert>0</vert>
													</value>
												</parameter>
												<parameter authoringApp="PremierePro">
													<parameterid>centerOffset</parameterid>
													<name>Anchor Point</name>
													<value>
														<horiz>0</horiz>
														<vert>0</vert>
													</value>
												</parameter>
												<parameter authoringApp="PremierePro">
													<parameterid>antiflicker</parameterid>
													<name>Anti-flicker Filter</name>
													<valuemin>0.0</valuemin>
													<valuemax>1.0</valuemax>
													<value>0</value>
												</parameter>
											</effect>
										</filter>
										<logginginfo>
											<description></description>
											<scene></scene>
											<shottake></shottake>
											<lognote></lognote>
											<good></good>
											<originalvideofilename></originalvideofilename>
											<originalaudiofilename></originalaudiofilename>
										</logginginfo>
										<colorinfo>
											<lut></lut>
											<lut1></lut1>
											<asc_sop></asc_sop>
											<asc_sat></asc_sat>
											<lut2></lut2>
										</colorinfo>
										<labels>
											<label2>Lavender</label2>
										</labels>
									</clipitem>
									<clipitem id="clipitem-371">
										<masterclipid>masterclip-23</masterclipid>
										<name>(milkytreatsicecream)_6781875890625285382_TT.mp4</name>
										<enabled>TRUE</enabled>
										<duration>457</duration>
										<rate>
											<timebase>30</timebase>
											<ntsc>TRUE</ntsc>
										</rate>
										<start>765</start>
										<end>977</end>
										<in>0</in>
										<out>212</out>
										<pproTicksIn>0</pproTicksIn>
										<pproTicksOut>1347631084800</pproTicksOut>
										<alphatype>none</alphatype>
										<file id="file-23"/>
										<filter>
											<effect>
												<name>Basic Motion</name>
												<effectid>basic</effectid>
												<effectcategory>motion</effectcategory>
												<effecttype>motion</effecttype>
												<mediatype>video</mediatype>
												<pproBypass>false</pproBypass>
												<parameter authoringApp="PremierePro">
													<parameterid>scale</parameterid>
													<name>Scale</name>
													<valuemin>0</valuemin>
													<valuemax>1000</valuemax>
													<value>100</value>
												</parameter>
												<parameter authoringApp="PremierePro">
													<parameterid>rotation</parameterid>
													<name>Rotation</name>
													<valuemin>-8640</valuemin>
													<valuemax>8640</valuemax>
													<value>0</value>
												</parameter>
												<parameter authoringApp="PremierePro">
													<parameterid>center</parameterid>
													<name>Center</name>
													<value>
														<horiz>0.0243056</horiz>
														<vert>0</vert>
													</value>
												</parameter>
												<parameter authoringApp="PremierePro">
													<parameterid>centerOffset</parameterid>
													<name>Anchor Point</name>
													<value>
														<horiz>0</horiz>
														<vert>0</vert>
													</value>
												</parameter>
												<parameter authoringApp="PremierePro">
													<parameterid>antiflicker</parameterid>
													<name>Anti-flicker Filter</name>
													<valuemin>0.0</valuemin>
													<valuemax>1.0</valuemax>
													<value>0</value>
												</parameter>
											</effect>
										</filter>
										<filter>
											<effect>
												<name>Time Remap</name>
												<effectid>timeremap</effectid>
												<effectcategory>motion</effectcategory>
												<effecttype>motion</effecttype>
												<mediatype>video</mediatype>
												<parameter authoringApp="PremierePro">
													<parameterid>variablespeed</parameterid>
													<name>variablespeed</name>
													<valuemin>0</valuemin>
													<valuemax>1</valuemax>
													<value>0</value>
												</parameter>
												<parameter authoringApp="PremierePro">
													<parameterid>speed</parameterid>
													<name>speed</name>
													<valuemin>-100000</valuemin>
													<valuemax>100000</valuemax>
													<value>75</value>
												</parameter>
												<parameter authoringApp="PremierePro">
													<parameterid>reverse</parameterid>
													<name>reverse</name>
													<value>FALSE</value>
												</parameter>
												<parameter authoringApp="PremierePro">
													<parameterid>frameblending</parameterid>
													<name>frameblending</name>
													<value>FALSE</value>
												</parameter>
												<parameter authoringApp="PremierePro">
													<parameterid>graphdict</parameterid>
													<name>graphdict</name>
													<valuemin>0</valuemin>
													<valuemax>342</valuemax>
													<value>0</value>
													<keyframe>
														<when>0</when>
														<value>0</value>
														<speedvirtualkf>TRUE</speedvirtualkf>
														<speedkfin>TRUE</speedkfin>
													</keyframe>
													<keyframe>
														<when>212</when>
														<value>159</value>
														<speedvirtualkf>TRUE</speedvirtualkf>
														<speedkfout>TRUE</speedkfout>
													</keyframe>
													<keyframe>
														<when>457</when>
														<value>342</value>
														<speedvirtualkf>TRUE</speedvirtualkf>
														<speedkfend>TRUE</speedkfend>
													</keyframe>
													<interpolation>
														<name>FCPCurve</name>
													</interpolation>
												</parameter>
											</effect>
										</filter>
										<logginginfo>
											<description></description>
											<scene></scene>
											<shottake></shottake>
											<lognote></lognote>
											<good></good>
											<originalvideofilename></originalvideofilename>
											<originalaudiofilename></originalaudiofilename>
										</logginginfo>
										<colorinfo>
											<lut></lut>
											<lut1></lut1>
											<asc_sop></asc_sop>
											<asc_sat></asc_sat>
											<lut2></lut2>
										</colorinfo>
										<labels>
											<label2>Violet</label2>
										</labels>
									</clipitem>
									<clipitem id="clipitem-372">
										<masterclipid>masterclip-23</masterclipid>
										<name>(milkytreatsicecream)_6781875890625285382_TT.mp4</name>
										<enabled>TRUE</enabled>
										<duration>457</duration>
										<rate>
											<timebase>30</timebase>
											<ntsc>TRUE</ntsc>
										</rate>
										<start>977</start>
										<end>1111</end>
										<in>244</in>
										<out>378</out>
										<pproTicksIn>1551047097600</pproTicksIn>
										<pproTicksOut>2402851651200</pproTicksOut>
										<alphatype>none</alphatype>
										<file id="file-23"/>
										<filter>
											<effect>
												<name>Basic Motion</name>
												<effectid>basic</effectid>
												<effectcategory>motion</effectcategory>
												<effecttype>motion</effecttype>
												<mediatype>video</mediatype>
												<pproBypass>false</pproBypass>
												<parameter authoringApp="PremierePro">
													<parameterid>scale</parameterid>
													<name>Scale</name>
													<valuemin>0</valuemin>
													<valuemax>1000</valuemax>
													<value>100</value>
												</parameter>
												<parameter authoringApp="PremierePro">
													<parameterid>rotation</parameterid>
													<name>Rotation</name>
													<valuemin>-8640</valuemin>
													<valuemax>8640</valuemax>
													<value>0</value>
												</parameter>
												<parameter authoringApp="PremierePro">
													<parameterid>center</parameterid>
													<name>Center</name>
													<value>
														<horiz>0.0243056</horiz>
														<vert>0</vert>
													</value>
												</parameter>
												<parameter authoringApp="PremierePro">
													<parameterid>centerOffset</parameterid>
													<name>Anchor Point</name>
													<value>
														<horiz>0</horiz>
														<vert>0</vert>
													</value>
												</parameter>
												<parameter authoringApp="PremierePro">
													<parameterid>antiflicker</parameterid>
													<name>Anti-flicker Filter</name>
													<valuemin>0.0</valuemin>
													<valuemax>1.0</valuemax>
													<value>0</value>
												</parameter>
											</effect>
										</filter>
										<filter>
											<effect>
												<name>Time Remap</name>
												<effectid>timeremap</effectid>
												<effectcategory>motion</effectcategory>
												<effecttype>motion</effecttype>
												<mediatype>video</mediatype>
												<parameter authoringApp="PremierePro">
													<parameterid>variablespeed</parameterid>
													<name>variablespeed</name>
													<valuemin>0</valuemin>
													<valuemax>1</valuemax>
													<value>0</value>
												</parameter>
												<parameter authoringApp="PremierePro">
													<parameterid>speed</parameterid>
													<name>speed</name>
													<valuemin>-100000</valuemin>
													<valuemax>100000</valuemax>
													<value>75</value>
												</parameter>
												<parameter authoringApp="PremierePro">
													<parameterid>reverse</parameterid>
													<name>reverse</name>
													<value>FALSE</value>
												</parameter>
												<parameter authoringApp="PremierePro">
													<parameterid>frameblending</parameterid>
													<name>frameblending</name>
													<value>FALSE</value>
												</parameter>
												<parameter authoringApp="PremierePro">
													<parameterid>graphdict</parameterid>
													<name>graphdict</name>
													<valuemin>0</valuemin>
													<valuemax>342</valuemax>
													<value>0</value>
													<keyframe>
														<when>0</when>
														<value>0</value>
														<speedvirtualkf>TRUE</speedvirtualkf>
														<speedkfstart>TRUE</speedkfstart>
													</keyframe>
													<keyframe>
														<when>244</when>
														<value>183</value>
														<speedvirtualkf>TRUE</speedvirtualkf>
														<speedkfin>TRUE</speedkfin>
													</keyframe>
													<keyframe>
														<when>378</when>
														<value>283</value>
														<speedvirtualkf>TRUE</speedvirtualkf>
														<speedkfout>TRUE</speedkfout>
													</keyframe>
													<keyframe>
														<when>457</when>
														<value>342</value>
														<speedvirtualkf>TRUE</speedvirtualkf>
														<speedkfend>TRUE</speedkfend>
													</keyframe>
													<interpolation>
														<name>FCPCurve</name>
													</interpolation>
												</parameter>
											</effect>
										</filter>
										<logginginfo>
											<description></description>
											<scene></scene>
											<shottake></shottake>
											<lognote></lognote>
											<good></good>
											<originalvideofilename></originalvideofilename>
											<originalaudiofilename></originalaudiofilename>
										</logginginfo>
										<colorinfo>
											<lut></lut>
											<lut1></lut1>
											<asc_sop></asc_sop>
											<asc_sat></asc_sat>
											<lut2></lut2>
										</colorinfo>
										<labels>
											<label2>Violet</label2>
										</labels>
									</clipitem>
									<clipitem id="clipitem-373">
										<masterclipid>masterclip-23</masterclipid>
										<name>(milkytreatsicecream)_6781875890625285382_TT.mp4</name>
										<enabled>TRUE</enabled>
										<duration>489</duration>
										<rate>
											<timebase>30</timebase>
											<ntsc>TRUE</ntsc>
										</rate>
										<start>1111</start>
										<end>1142</end>
										<in>459</in>
										<out>489</out>
										<pproTicksIn>2720689171200</pproTicksIn>
										<pproTicksOut>2904611149439</pproTicksOut>
										<alphatype>none</alphatype>
										<file id="file-23"/>
										<filter>
											<effect>
												<name>Basic Motion</name>
												<effectid>basic</effectid>
												<effectcategory>motion</effectcategory>
												<effecttype>motion</effecttype>
												<mediatype>video</mediatype>
												<pproBypass>false</pproBypass>
												<parameter authoringApp="PremierePro">
													<parameterid>scale</parameterid>
													<name>Scale</name>
													<valuemin>0</valuemin>
													<valuemax>1000</valuemax>
													<value>100</value>
												</parameter>
												<parameter authoringApp="PremierePro">
													<parameterid>rotation</parameterid>
													<name>Rotation</name>
													<valuemin>-8640</valuemin>
													<valuemax>8640</valuemax>
													<value>0</value>
												</parameter>
												<parameter authoringApp="PremierePro">
													<parameterid>center</parameterid>
													<name>Center</name>
													<value>
														<horiz>0.0243056</horiz>
														<vert>0</vert>
													</value>
												</parameter>
												<parameter authoringApp="PremierePro">
													<parameterid>centerOffset</parameterid>
													<name>Anchor Point</name>
													<value>
														<horiz>0</horiz>
														<vert>0</vert>
													</value>
												</parameter>
												<parameter authoringApp="PremierePro">
													<parameterid>antiflicker</parameterid>
													<name>Anti-flicker Filter</name>
													<valuemin>0.0</valuemin>
													<valuemax>1.0</valuemax>
													<value>0</value>
												</parameter>
											</effect>
										</filter>
										<filter>
											<effect>
												<name>Time Remap</name>
												<effectid>timeremap</effectid>
												<effectcategory>motion</effectcategory>
												<effecttype>motion</effecttype>
												<mediatype>video</mediatype>
												<parameter authoringApp="PremierePro">
													<parameterid>variablespeed</parameterid>
													<name>variablespeed</name>
													<valuemin>0</valuemin>
													<valuemax>1</valuemax>
													<value>0</value>
												</parameter>
												<parameter authoringApp="PremierePro">
													<parameterid>speed</parameterid>
													<name>speed</name>
													<valuemin>-100000</valuemin>
													<valuemax>100000</valuemax>
													<value>70</value>
												</parameter>
												<parameter authoringApp="PremierePro">
													<parameterid>reverse</parameterid>
													<name>reverse</name>
													<value>FALSE</value>
												</parameter>
												<parameter authoringApp="PremierePro">
													<parameterid>frameblending</parameterid>
													<name>frameblending</name>
													<value>FALSE</value>
												</parameter>
												<parameter authoringApp="PremierePro">
													<parameterid>graphdict</parameterid>
													<name>graphdict</name>
													<valuemin>0</valuemin>
													<valuemax>342</valuemax>
													<value>0</value>
													<keyframe>
														<when>0</when>
														<value>0</value>
														<speedvirtualkf>TRUE</speedvirtualkf>
														<speedkfstart>TRUE</speedkfstart>
													</keyframe>
													<keyframe>
														<when>459</when>
														<value>321</value>
														<speedvirtualkf>TRUE</speedvirtualkf>
														<speedkfin>TRUE</speedkfin>
													</keyframe>
													<keyframe>
														<when>489</when>
														<value>342</value>
														<speedvirtualkf>TRUE</speedvirtualkf>
														<speedkfout>TRUE</speedkfout>
													</keyframe>
													<interpolation>
														<name>FCPCurve</name>
													</interpolation>
												</parameter>
											</effect>
										</filter>
										<logginginfo>
											<description></description>
											<scene></scene>
											<shottake></shottake>
											<lognote></lognote>
											<good></good>
											<originalvideofilename></originalvideofilename>
											<originalaudiofilename></originalaudiofilename>
										</logginginfo>
										<colorinfo>
											<lut></lut>
											<lut1></lut1>
											<asc_sop></asc_sop>
											<asc_sat></asc_sat>
											<lut2></lut2>
										</colorinfo>
										<labels>
											<label2>Violet</label2>
										</labels>
									</clipitem>
									<clipitem id="clipitem-374">
										<masterclipid>masterclip-26</masterclipid>
										<name>(thesugarhobby)_Cftm0nSAHR__IG.mp4</name>
										<enabled>TRUE</enabled>
										<duration>396</duration>
										<rate>
											<timebase>30</timebase>
											<ntsc>TRUE</ntsc>
										</rate>
										<start>1142</start>
										<end>1423</end>
										<in>86</in>
										<out>367</out>
										<pproTicksIn>728907379200</pproTicksIn>
										<pproTicksOut>3110569862400</pproTicksOut>
										<alphatype>none</alphatype>
										<file id="file-26"/>
										<filter>
											<effect>
												<name>Basic Motion</name>
												<effectid>basic</effectid>
												<effectcategory>motion</effectcategory>
												<effecttype>motion</effecttype>
												<mediatype>video</mediatype>
												<pproBypass>false</pproBypass>
												<parameter authoringApp="PremierePro">
													<parameterid>scale</parameterid>
													<name>Scale</name>
													<valuemin>0</valuemin>
													<valuemax>1000</valuemax>
													<value>100</value>
												</parameter>
												<parameter authoringApp="PremierePro">
													<parameterid>rotation</parameterid>
													<name>Rotation</name>
													<valuemin>-8640</valuemin>
													<valuemax>8640</valuemax>
													<value>0</value>
												</parameter>
												<parameter authoringApp="PremierePro">
													<parameterid>center</parameterid>
													<name>Center</name>
													<value>
														<horiz>0.0194445</horiz>
														<vert>0</vert>
													</value>
												</parameter>
												<parameter authoringApp="PremierePro">
													<parameterid>centerOffset</parameterid>
													<name>Anchor Point</name>
													<value>
														<horiz>0</horiz>
														<vert>0</vert>
													</value>
												</parameter>
												<parameter authoringApp="PremierePro">
													<parameterid>antiflicker</parameterid>
													<name>Anti-flicker Filter</name>
													<valuemin>0.0</valuemin>
													<valuemax>1.0</valuemax>
													<value>0</value>
												</parameter>
											</effect>
										</filter>
										<logginginfo>
											<description></description>
											<scene></scene>
											<shottake></shottake>
											<lognote></lognote>
											<good></good>
											<originalvideofilename></originalvideofilename>
											<originalaudiofilename></originalaudiofilename>
										</logginginfo>
										<colorinfo>
											<lut></lut>
											<lut1></lut1>
											<asc_sop></asc_sop>
											<asc_sat></asc_sat>
											<lut2></lut2>
										</colorinfo>
										<labels>
											<label2>Forest</label2>
										</labels>
									</clipitem>
									<clipitem id="clipitem-375">
										<masterclipid>masterclip-26</masterclipid>
										<name>(thesugarhobby)_Cftm0nSAHR__IG.mp4</name>
										<enabled>TRUE</enabled>
										<duration>396</duration>
										<rate>
											<timebase>30</timebase>
											<ntsc>TRUE</ntsc>
										</rate>
										<start>1423</start>
										<end>1508</end>
										<in>0</in>
										<out>85</out>
										<pproTicksIn>0</pproTicksIn>
										<pproTicksOut>720431712000</pproTicksOut>
										<alphatype>none</alphatype>
										<file id="file-26"/>
										<filter>
											<effect>
												<name>Basic Motion</name>
												<effectid>basic</effectid>
												<effectcategory>motion</effectcategory>
												<effecttype>motion</effecttype>
												<mediatype>video</mediatype>
												<pproBypass>false</pproBypass>
												<parameter authoringApp="PremierePro">
													<parameterid>scale</parameterid>
													<name>Scale</name>
													<valuemin>0</valuemin>
													<valuemax>1000</valuemax>
													<value>100</value>
												</parameter>
												<parameter authoringApp="PremierePro">
													<parameterid>rotation</parameterid>
													<name>Rotation</name>
													<valuemin>-8640</valuemin>
													<valuemax>8640</valuemax>
													<value>0</value>
												</parameter>
												<parameter authoringApp="PremierePro">
													<parameterid>center</parameterid>
													<name>Center</name>
													<value>
														<horiz>0.0194445</horiz>
														<vert>0</vert>
													</value>
												</parameter>
												<parameter authoringApp="PremierePro">
													<parameterid>centerOffset</parameterid>
													<name>Anchor Point</name>
													<value>
														<horiz>0</horiz>
														<vert>0</vert>
													</value>
												</parameter>
												<parameter authoringApp="PremierePro">
													<parameterid>antiflicker</parameterid>
													<name>Anti-flicker Filter</name>
													<valuemin>0.0</valuemin>
													<valuemax>1.0</valuemax>
													<value>0</value>
												</parameter>
											</effect>
										</filter>
										<logginginfo>
											<description></description>
											<scene></scene>
											<shottake></shottake>
											<lognote></lognote>
											<good></good>
											<originalvideofilename></originalvideofilename>
											<originalaudiofilename></originalaudiofilename>
										</logginginfo>
										<colorinfo>
											<lut></lut>
											<lut1></lut1>
											<asc_sop></asc_sop>
											<asc_sat></asc_sat>
											<lut2></lut2>
										</colorinfo>
										<labels>
											<label2>Forest</label2>
										</labels>
									</clipitem>
									<clipitem id="clipitem-376">
										<masterclipid>masterclip-24</masterclipid>
										<name>(milkytreatsicecream)_6798462382529187078_TT.mp4</name>
										<enabled>TRUE</enabled>
										<duration>600</duration>
										<rate>
											<timebase>30</timebase>
											<ntsc>TRUE</ntsc>
										</rate>
										<start>1508</start>
										<end>1658</end>
										<in>126</in>
										<out>276</out>
										<pproTicksIn>1067934067200</pproTicksIn>
										<pproTicksOut>2339284147200</pproTicksOut>
										<alphatype>none</alphatype>
										<file id="file-24"/>
										<filter>
											<effect>
												<name>Basic Motion</name>
												<effectid>basic</effectid>
												<effectcategory>motion</effectcategory>
												<effecttype>motion</effecttype>
												<mediatype>video</mediatype>
												<pproBypass>false</pproBypass>
												<parameter authoringApp="PremierePro">
													<parameterid>scale</parameterid>
													<name>Scale</name>
													<valuemin>0</valuemin>
													<valuemax>1000</valuemax>
													<value>100</value>
												</parameter>
												<parameter authoringApp="PremierePro">
													<parameterid>rotation</parameterid>
													<name>Rotation</name>
													<valuemin>-8640</valuemin>
													<valuemax>8640</valuemax>
													<value>0</value>
												</parameter>
												<parameter authoringApp="PremierePro">
													<parameterid>center</parameterid>
													<name>Center</name>
													<value>
														<horiz>0.0243056</horiz>
														<vert>0</vert>
													</value>
												</parameter>
												<parameter authoringApp="PremierePro">
													<parameterid>centerOffset</parameterid>
													<name>Anchor Point</name>
													<value>
														<horiz>0</horiz>
														<vert>0</vert>
													</value>
												</parameter>
												<parameter authoringApp="PremierePro">
													<parameterid>antiflicker</parameterid>
													<name>Anti-flicker Filter</name>
													<valuemin>0.0</valuemin>
													<valuemax>1.0</valuemax>
													<value>0</value>
												</parameter>
											</effect>
										</filter>
										<logginginfo>
											<description></description>
											<scene></scene>
											<shottake></shottake>
											<lognote></lognote>
											<good></good>
											<originalvideofilename></originalvideofilename>
											<originalaudiofilename></originalaudiofilename>
										</logginginfo>
										<colorinfo>
											<lut></lut>
											<lut1></lut1>
											<asc_sop></asc_sop>
											<asc_sat></asc_sat>
											<lut2></lut2>
										</colorinfo>
									</clipitem>
									<clipitem id="clipitem-377">
										<masterclipid>masterclip-24</masterclipid>
										<name>(milkytreatsicecream)_6798462382529187078_TT.mp4</name>
										<enabled>TRUE</enabled>
										<duration>600</duration>
										<rate>
											<timebase>30</timebase>
											<ntsc>TRUE</ntsc>
										</rate>
										<start>1658</start>
										<end>1679</end>
										<in>307</in>
										<out>328</out>
										<pproTicksIn>2602029830400</pproTicksIn>
										<pproTicksOut>2780018841600</pproTicksOut>
										<alphatype>none</alphatype>
										<file id="file-24"/>
										<filter>
											<effect>
												<name>Basic Motion</name>
												<effectid>basic</effectid>
												<effectcategory>motion</effectcategory>
												<effecttype>motion</effecttype>
												<mediatype>video</mediatype>
												<pproBypass>false</pproBypass>
												<parameter authoringApp="PremierePro">
													<parameterid>scale</parameterid>
													<name>Scale</name>
													<valuemin>0</valuemin>
													<valuemax>1000</valuemax>
													<value>100</value>
												</parameter>
												<parameter authoringApp="PremierePro">
													<parameterid>rotation</parameterid>
													<name>Rotation</name>
													<valuemin>-8640</valuemin>
													<valuemax>8640</valuemax>
													<value>0</value>
												</parameter>
												<parameter authoringApp="PremierePro">
													<parameterid>center</parameterid>
													<name>Center</name>
													<value>
														<horiz>0.0243056</horiz>
														<vert>0</vert>
													</value>
												</parameter>
												<parameter authoringApp="PremierePro">
													<parameterid>centerOffset</parameterid>
													<name>Anchor Point</name>
													<value>
														<horiz>0</horiz>
														<vert>0</vert>
													</value>
												</parameter>
												<parameter authoringApp="PremierePro">
													<parameterid>antiflicker</parameterid>
													<name>Anti-flicker Filter</name>
													<valuemin>0.0</valuemin>
													<valuemax>1.0</valuemax>
													<value>0</value>
												</parameter>
											</effect>
										</filter>
										<logginginfo>
											<description></description>
											<scene></scene>
											<shottake></shottake>
											<lognote></lognote>
											<good></good>
											<originalvideofilename></originalvideofilename>
											<originalaudiofilename></originalaudiofilename>
										</logginginfo>
										<colorinfo>
											<lut></lut>
											<lut1></lut1>
											<asc_sop></asc_sop>
											<asc_sat></asc_sat>
											<lut2></lut2>
										</colorinfo>
									</clipitem>
									<clipitem id="clipitem-378">
										<masterclipid>masterclip-24</masterclipid>
										<name>(milkytreatsicecream)_6798462382529187078_TT.mp4</name>
										<enabled>TRUE</enabled>
										<duration>600</duration>
										<rate>
											<timebase>30</timebase>
											<ntsc>TRUE</ntsc>
										</rate>
										<start>1679</start>
										<end>1792</end>
										<in>364</in>
										<out>477</out>
										<pproTicksIn>3085142860800</pproTicksIn>
										<pproTicksOut>4042893254400</pproTicksOut>
										<alphatype>none</alphatype>
										<file id="file-24"/>
										<filter>
											<effect>
												<name>Basic Motion</name>
												<effectid>basic</effectid>
												<effectcategory>motion</effectcategory>
												<effecttype>motion</effecttype>
												<mediatype>video</mediatype>
												<pproBypass>false</pproBypass>
												<parameter authoringApp="PremierePro">
													<parameterid>scale</parameterid>
													<name>Scale</name>
													<valuemin>0</valuemin>
													<valuemax>1000</valuemax>
													<value>100</value>
												</parameter>
												<parameter authoringApp="PremierePro">
													<parameterid>rotation</parameterid>
													<name>Rotation</name>
													<valuemin>-8640</valuemin>
													<valuemax>8640</valuemax>
													<value>0</value>
												</parameter>
												<parameter authoringApp="PremierePro">
													<parameterid>center</parameterid>
													<name>Center</name>
													<value>
														<horiz>0.0243056</horiz>
														<vert>0</vert>
													</value>
												</parameter>
												<parameter authoringApp="PremierePro">
													<parameterid>centerOffset</parameterid>
													<name>Anchor Point</name>
													<value>
														<horiz>0</horiz>
														<vert>0</vert>
													</value>
												</parameter>
												<parameter authoringApp="PremierePro">
													<parameterid>antiflicker</parameterid>
													<name>Anti-flicker Filter</name>
													<valuemin>0.0</valuemin>
													<valuemax>1.0</valuemax>
													<value>0</value>
												</parameter>
											</effect>
										</filter>
										<logginginfo>
											<description></description>
											<scene></scene>
											<shottake></shottake>
											<lognote></lognote>
											<good></good>
											<originalvideofilename></originalvideofilename>
											<originalaudiofilename></originalaudiofilename>
										</logginginfo>
										<colorinfo>
											<lut></lut>
											<lut1></lut1>
											<asc_sop></asc_sop>
											<asc_sat></asc_sat>
											<lut2></lut2>
										</colorinfo>
									</clipitem>
									<clipitem id="clipitem-379">
										<masterclipid>masterclip-24</masterclipid>
										<name>(milkytreatsicecream)_6798462382529187078_TT.mp4</name>
										<enabled>TRUE</enabled>
										<duration>600</duration>
										<rate>
											<timebase>30</timebase>
											<ntsc>TRUE</ntsc>
										</rate>
										<start>1792</start>
										<end>1821</end>
										<in>508</in>
										<out>537</out>
										<pproTicksIn>4305638937600</pproTicksIn>
										<pproTicksOut>4551433286400</pproTicksOut>
										<alphatype>none</alphatype>
										<file id="file-24"/>
										<filter>
											<effect>
												<name>Basic Motion</name>
												<effectid>basic</effectid>
												<effectcategory>motion</effectcategory>
												<effecttype>motion</effecttype>
												<mediatype>video</mediatype>
												<pproBypass>false</pproBypass>
												<parameter authoringApp="PremierePro">
													<parameterid>scale</parameterid>
													<name>Scale</name>
													<valuemin>0</valuemin>
													<valuemax>1000</valuemax>
													<value>100</value>
												</parameter>
												<parameter authoringApp="PremierePro">
													<parameterid>rotation</parameterid>
													<name>Rotation</name>
													<valuemin>-8640</valuemin>
													<valuemax>8640</valuemax>
													<value>0</value>
												</parameter>
												<parameter authoringApp="PremierePro">
													<parameterid>center</parameterid>
													<name>Center</name>
													<value>
														<horiz>0.0243056</horiz>
														<vert>0</vert>
													</value>
												</parameter>
												<parameter authoringApp="PremierePro">
													<parameterid>centerOffset</parameterid>
													<name>Anchor Point</name>
													<value>
														<horiz>0</horiz>
														<vert>0</vert>
													</value>
												</parameter>
												<parameter authoringApp="PremierePro">
													<parameterid>antiflicker</parameterid>
													<name>Anti-flicker Filter</name>
													<valuemin>0.0</valuemin>
													<valuemax>1.0</valuemax>
													<value>0</value>
												</parameter>
											</effect>
										</filter>
										<logginginfo>
											<description></description>
											<scene></scene>
											<shottake></shottake>
											<lognote></lognote>
											<good></good>
											<originalvideofilename></originalvideofilename>
											<originalaudiofilename></originalaudiofilename>
										</logginginfo>
										<colorinfo>
											<lut></lut>
											<lut1></lut1>
											<asc_sop></asc_sop>
											<asc_sat></asc_sat>
											<lut2></lut2>
										</colorinfo>
									</clipitem>
									<enabled>TRUE</enabled>
									<locked>FALSE</locked>
								</track>
								<track TL.SQTrackShy="0" TL.SQTrackExpandedHeight="25" TL.SQTrackExpanded="0" MZ.TrackTargeted="0">
									<clipitem id="clipitem-380">
										<masterclipid>masterclip-177</masterclipid>
										<name>Eyecandy Vertical Video Frame 2</name>
										<enabled>TRUE</enabled>
										<duration>5700</duration>
										<rate>
											<timebase>30</timebase>
											<ntsc>TRUE</ntsc>
										</rate>
										<start>0</start>
										<end>427</end>
										<in>72</in>
										<out>499</out>
										<pproTicksIn>610248038400</pproTicksIn>
										<pproTicksOut>4229357932800</pproTicksOut>
										<alphatype>straight</alphatype>
										<pixelaspectratio>square</pixelaspectratio>
										<anamorphic>FALSE</anamorphic>
										<file id="file-175">
											<name>Eyecandy Vertical Video Frame 2/Eyecandy Vertical Video Frame 2.aegraphic</name>
											<pathurl>file://localhost/Volumes/ATM%201/EYE%20CANDY/8%3a21%3a23/4_Project%20Files/Motion%20Graphics%20Template%20Media/6e66e542-0241-4345-922f-b5dec8132f28/Eyecandy%20Vertical%20Video%20Frame%202.aegraphic</pathurl>
											<rate>
												<timebase>24</timebase>
												<ntsc>TRUE</ntsc>
											</rate>
											<duration>4560</duration>
											<timecode>
												<rate>
													<timebase>24</timebase>
													<ntsc>TRUE</ntsc>
												</rate>
												<string>00:00:00:00</string>
												<frame>0</frame>
												<displayformat>NDF</displayformat>
											</timecode>
											<media>
												<video>
													<samplecharacteristics>
														<rate>
															<timebase>24</timebase>
															<ntsc>TRUE</ntsc>
														</rate>
														<width>1920</width>
														<height>1080</height>
														<anamorphic>FALSE</anamorphic>
														<pixelaspectratio>square</pixelaspectratio>
														<fielddominance>lower</fielddominance>
													</samplecharacteristics>
												</video>
											</media>
										</file>
										<logginginfo>
											<description></description>
											<scene></scene>
											<shottake></shottake>
											<lognote></lognote>
											<good></good>
											<originalvideofilename></originalvideofilename>
											<originalaudiofilename></originalaudiofilename>
										</logginginfo>
										<colorinfo>
											<lut></lut>
											<lut1></lut1>
											<asc_sop></asc_sop>
											<asc_sat></asc_sat>
											<lut2></lut2>
										</colorinfo>
									</clipitem>
									<clipitem id="clipitem-381">
										<masterclipid>masterclip-177</masterclipid>
										<name>Eyecandy Vertical Video Frame 2</name>
										<enabled>TRUE</enabled>
										<duration>5700</duration>
										<rate>
											<timebase>30</timebase>
											<ntsc>TRUE</ntsc>
										</rate>
										<start>427</start>
										<end>765</end>
										<in>499</in>
										<out>837</out>
										<pproTicksIn>4229357932800</pproTicksIn>
										<pproTicksOut>7094133446400</pproTicksOut>
										<alphatype>straight</alphatype>
										<file id="file-175"/>
										<logginginfo>
											<description></description>
											<scene></scene>
											<shottake></shottake>
											<lognote></lognote>
											<good></good>
											<originalvideofilename></originalvideofilename>
											<originalaudiofilename></originalaudiofilename>
										</logginginfo>
										<colorinfo>
											<lut></lut>
											<lut1></lut1>
											<asc_sop></asc_sop>
											<asc_sat></asc_sat>
											<lut2></lut2>
										</colorinfo>
									</clipitem>
									<clipitem id="clipitem-382">
										<masterclipid>masterclip-177</masterclipid>
										<name>Eyecandy Vertical Video Frame 2</name>
										<enabled>TRUE</enabled>
										<duration>5700</duration>
										<rate>
											<timebase>30</timebase>
											<ntsc>TRUE</ntsc>
										</rate>
										<start>765</start>
										<end>1142</end>
										<in>837</in>
										<out>1214</out>
										<pproTicksIn>7094133446400</pproTicksIn>
										<pproTicksOut>10289459980800</pproTicksOut>
										<alphatype>straight</alphatype>
										<file id="file-175"/>
										<logginginfo>
											<description></description>
											<scene></scene>
											<shottake></shottake>
											<lognote></lognote>
											<good></good>
											<originalvideofilename></originalvideofilename>
											<originalaudiofilename></originalaudiofilename>
										</logginginfo>
										<colorinfo>
											<lut></lut>
											<lut1></lut1>
											<asc_sop></asc_sop>
											<asc_sat></asc_sat>
											<lut2></lut2>
										</colorinfo>
									</clipitem>
									<clipitem id="clipitem-383">
										<masterclipid>masterclip-177</masterclipid>
										<name>Eyecandy Vertical Video Frame 2</name>
										<enabled>TRUE</enabled>
										<duration>5700</duration>
										<rate>
											<timebase>30</timebase>
											<ntsc>TRUE</ntsc>
										</rate>
										<start>1142</start>
										<end>1508</end>
										<in>1214</in>
										<out>1580</out>
										<pproTicksIn>10289459980800</pproTicksIn>
										<pproTicksOut>13391554176000</pproTicksOut>
										<alphatype>straight</alphatype>
										<file id="file-175"/>
										<logginginfo>
											<description></description>
											<scene></scene>
											<shottake></shottake>
											<lognote></lognote>
											<good></good>
											<originalvideofilename></originalvideofilename>
											<originalaudiofilename></originalaudiofilename>
										</logginginfo>
										<colorinfo>
											<lut></lut>
											<lut1></lut1>
											<asc_sop></asc_sop>
											<asc_sat></asc_sat>
											<lut2></lut2>
										</colorinfo>
									</clipitem>
									<clipitem id="clipitem-384">
										<masterclipid>masterclip-177</masterclipid>
										<name>Eyecandy Vertical Video Frame 2</name>
										<enabled>TRUE</enabled>
										<duration>5700</duration>
										<rate>
											<timebase>30</timebase>
											<ntsc>TRUE</ntsc>
										</rate>
										<start>1508</start>
										<end>1821</end>
										<in>1580</in>
										<out>1893</out>
										<pproTicksIn>13391554176000</pproTicksIn>
										<pproTicksOut>16044438009600</pproTicksOut>
										<alphatype>straight</alphatype>
										<file id="file-175"/>
										<logginginfo>
											<description></description>
											<scene></scene>
											<shottake></shottake>
											<lognote></lognote>
											<good></good>
											<originalvideofilename></originalvideofilename>
											<originalaudiofilename></originalaudiofilename>
										</logginginfo>
										<colorinfo>
											<lut></lut>
											<lut1></lut1>
											<asc_sop></asc_sop>
											<asc_sat></asc_sat>
											<lut2></lut2>
										</colorinfo>
									</clipitem>
									<enabled>TRUE</enabled>
									<locked>FALSE</locked>
								</track>
								<track TL.SQTrackShy="0" TL.SQTrackExpandedHeight="25" TL.SQTrackExpanded="0" MZ.TrackTargeted="0">
									<enabled>TRUE</enabled>
									<locked>FALSE</locked>
								</track>
								<track TL.SQTrackShy="0" TL.SQTrackExpandedHeight="25" TL.SQTrackExpanded="0" MZ.TrackTargeted="0">
									<enabled>TRUE</enabled>
									<locked>FALSE</locked>
								</track>
								<track TL.SQTrackShy="0" TL.SQTrackExpandedHeight="25" TL.SQTrackExpanded="0" MZ.TrackTargeted="0">
									<enabled>TRUE</enabled>
									<locked>FALSE</locked>
								</track>
								<track TL.SQTrackShy="0" TL.SQTrackExpandedHeight="25" TL.SQTrackExpanded="0" MZ.TrackTargeted="0">
									<enabled>TRUE</enabled>
									<locked>FALSE</locked>
								</track>
								<track TL.SQTrackShy="0" TL.SQTrackExpandedHeight="25" TL.SQTrackExpanded="0" MZ.TrackTargeted="0">
									<enabled>TRUE</enabled>
									<locked>FALSE</locked>
								</track>
								<track TL.SQTrackShy="0" TL.SQTrackExpandedHeight="25" TL.SQTrackExpanded="0" MZ.TrackTargeted="0">
									<enabled>TRUE</enabled>
									<locked>FALSE</locked>
								</track>
								<track TL.SQTrackShy="0" TL.SQTrackExpandedHeight="25" TL.SQTrackExpanded="0" MZ.TrackTargeted="0">
									<enabled>TRUE</enabled>
									<locked>FALSE</locked>
								</track>
								<track TL.SQTrackShy="0" TL.SQTrackExpandedHeight="25" TL.SQTrackExpanded="0" MZ.TrackTargeted="0">
									<enabled>TRUE</enabled>
									<locked>FALSE</locked>
								</track>
							</video>
							<audio>
								<numOutputChannels>2</numOutputChannels>
								<format>
									<samplecharacteristics>
										<depth>16</depth>
										<samplerate>48000</samplerate>
									</samplecharacteristics>
								</format>
								<outputs>
									<group>
										<index>1</index>
										<numchannels>1</numchannels>
										<downmix>0</downmix>
										<channel>
											<index>1</index>
										</channel>
									</group>
									<group>
										<index>2</index>
										<numchannels>1</numchannels>
										<downmix>0</downmix>
										<channel>
											<index>2</index>
										</channel>
									</group>
								</outputs>
								<track TL.SQTrackAudioKeyframeStyle="0" TL.SQTrackShy="0" TL.SQTrackExpandedHeight="25" TL.SQTrackExpanded="0" MZ.TrackTargeted="1" PannerCurrentValue="0.5" PannerIsInverted="true" PannerStartKeyframe="-91445760000000000,0.5,0,0,0,0,0,0" PannerName="Balance" currentExplodedTrackIndex="0" totalExplodedTrackCount="2" premiereTrackType="Stereo">
									<clipitem id="clipitem-385" premiereChannelType="stereo">
										<masterclipid>masterclip-178</masterclipid>
										<name>ES_Fall4U - Ballpoint.mp3</name>
										<enabled>TRUE</enabled>
										<duration>5377</duration>
										<rate>
											<timebase>30</timebase>
											<ntsc>TRUE</ntsc>
										</rate>
										<start>0</start>
										<end>1821</end>
										<in>0</in>
										<out>1821</out>
										<pproTicksIn>0</pproTicksIn>
										<pproTicksOut>15434189971200</pproTicksOut>
										<file id="file-176">
											<name>ES_Fall4U - Ballpoint.mp3</name>
											<pathurl>file://localhost/Volumes/ATM%201/EYE%20CANDY/8%3a21%3a23/5_Assets/Music/ES_Fall4U%20-%20Ballpoint.mp3</pathurl>
											<rate>
												<timebase>30</timebase>
												<ntsc>TRUE</ntsc>
											</rate>
											<duration>5377</duration>
											<timecode>
												<rate>
													<timebase>30</timebase>
													<ntsc>TRUE</ntsc>
												</rate>
												<string>00;00;00;00</string>
												<frame>0</frame>
												<displayformat>DF</displayformat>
											</timecode>
											<media>
												<audio>
													<samplecharacteristics>
														<depth>16</depth>
														<samplerate>48000</samplerate>
													</samplecharacteristics>
													<channelcount>2</channelcount>
												</audio>
											</media>
										</file>
										<sourcetrack>
											<mediatype>audio</mediatype>
											<trackindex>1</trackindex>
										</sourcetrack>
										<link>
											<linkclipref>clipitem-385</linkclipref>
											<mediatype>audio</mediatype>
											<trackindex>1</trackindex>
											<clipindex>1</clipindex>
											<groupindex>1</groupindex>
										</link>
										<link>
											<linkclipref>clipitem-386</linkclipref>
											<mediatype>audio</mediatype>
											<trackindex>2</trackindex>
											<clipindex>1</clipindex>
											<groupindex>1</groupindex>
										</link>
										<logginginfo>
											<description></description>
											<scene></scene>
											<shottake></shottake>
											<lognote></lognote>
											<good></good>
											<originalvideofilename></originalvideofilename>
											<originalaudiofilename></originalaudiofilename>
										</logginginfo>
										<colorinfo>
											<lut></lut>
											<lut1></lut1>
											<asc_sop></asc_sop>
											<asc_sat></asc_sat>
											<lut2></lut2>
										</colorinfo>
										<labels>
											<label2>Caribbean</label2>
										</labels>
									</clipitem>
									<enabled>TRUE</enabled>
									<locked>FALSE</locked>
									<filter>
										<effect>
											<name>Audio Levels</name>
											<effectid>audiolevels</effectid>
											<effectcategory>audiolevels</effectcategory>
											<effecttype>audiolevels</effecttype>
											<mediatype>audio</mediatype>
											<parameter authoringApp="PremierePro">
												<parameterid>level</parameterid>
												<name>Level</name>
												<valuemin>0</valuemin>
												<valuemax>3.98109</valuemax>
												<value>0.706272</value>
											</parameter>
										</effect>
									</filter>
									<outputchannelindex>1</outputchannelindex>
								</track>
								<track TL.SQTrackAudioKeyframeStyle="0" TL.SQTrackShy="0" TL.SQTrackExpandedHeight="25" TL.SQTrackExpanded="0" MZ.TrackTargeted="1" PannerCurrentValue="0.5" PannerIsInverted="true" PannerStartKeyframe="-91445760000000000,0.5,0,0,0,0,0,0" PannerName="Balance" currentExplodedTrackIndex="1" totalExplodedTrackCount="2" premiereTrackType="Stereo">
									<clipitem id="clipitem-386" premiereChannelType="stereo">
										<masterclipid>masterclip-178</masterclipid>
										<name>ES_Fall4U - Ballpoint.mp3</name>
										<enabled>TRUE</enabled>
										<duration>5377</duration>
										<rate>
											<timebase>30</timebase>
											<ntsc>TRUE</ntsc>
										</rate>
										<start>0</start>
										<end>1821</end>
										<in>0</in>
										<out>1821</out>
										<pproTicksIn>0</pproTicksIn>
										<pproTicksOut>15434189971200</pproTicksOut>
										<file id="file-176"/>
										<sourcetrack>
											<mediatype>audio</mediatype>
											<trackindex>2</trackindex>
										</sourcetrack>
										<link>
											<linkclipref>clipitem-385</linkclipref>
											<mediatype>audio</mediatype>
											<trackindex>1</trackindex>
											<clipindex>1</clipindex>
											<groupindex>1</groupindex>
										</link>
										<link>
											<linkclipref>clipitem-386</linkclipref>
											<mediatype>audio</mediatype>
											<trackindex>2</trackindex>
											<clipindex>1</clipindex>
											<groupindex>1</groupindex>
										</link>
										<logginginfo>
											<description></description>
											<scene></scene>
											<shottake></shottake>
											<lognote></lognote>
											<good></good>
											<originalvideofilename></originalvideofilename>
											<originalaudiofilename></originalaudiofilename>
										</logginginfo>
										<colorinfo>
											<lut></lut>
											<lut1></lut1>
											<asc_sop></asc_sop>
											<asc_sat></asc_sat>
											<lut2></lut2>
										</colorinfo>
										<labels>
											<label2>Caribbean</label2>
										</labels>
									</clipitem>
									<enabled>TRUE</enabled>
									<locked>FALSE</locked>
									<filter>
										<effect>
											<name>Audio Levels</name>
											<effectid>audiolevels</effectid>
											<effectcategory>audiolevels</effectcategory>
											<effecttype>audiolevels</effecttype>
											<mediatype>audio</mediatype>
											<parameter authoringApp="PremierePro">
												<parameterid>level</parameterid>
												<name>Level</name>
												<valuemin>0</valuemin>
												<valuemax>3.98109</valuemax>
												<value>0.706272</value>
											</parameter>
										</effect>
									</filter>
									<outputchannelindex>2</outputchannelindex>
								</track>
								<track TL.SQTrackAudioKeyframeStyle="0" TL.SQTrackShy="0" TL.SQTrackExpandedHeight="25" TL.SQTrackExpanded="0" MZ.TrackTargeted="0" PannerCurrentValue="0.5" PannerIsInverted="true" PannerStartKeyframe="-91445760000000000,0.5,0,0,0,0,0,0" PannerName="Balance" currentExplodedTrackIndex="0" totalExplodedTrackCount="2" premiereTrackType="Stereo">
									<enabled>TRUE</enabled>
									<locked>FALSE</locked>
									<outputchannelindex>1</outputchannelindex>
								</track>
								<track TL.SQTrackAudioKeyframeStyle="0" TL.SQTrackShy="0" TL.SQTrackExpandedHeight="25" TL.SQTrackExpanded="0" MZ.TrackTargeted="0" PannerCurrentValue="0.5" PannerIsInverted="true" PannerStartKeyframe="-91445760000000000,0.5,0,0,0,0,0,0" PannerName="Balance" currentExplodedTrackIndex="1" totalExplodedTrackCount="2" premiereTrackType="Stereo">
									<enabled>TRUE</enabled>
									<locked>FALSE</locked>
									<outputchannelindex>2</outputchannelindex>
								</track>
								<track TL.SQTrackAudioKeyframeStyle="0" TL.SQTrackShy="0" TL.SQTrackExpandedHeight="25" TL.SQTrackExpanded="0" MZ.TrackTargeted="0" PannerCurrentValue="0.5" PannerIsInverted="true" PannerStartKeyframe="-91445760000000000,0.5,0,0,0,0,0,0" PannerName="Balance" currentExplodedTrackIndex="0" totalExplodedTrackCount="2" premiereTrackType="Stereo">
									<enabled>TRUE</enabled>
									<locked>FALSE</locked>
									<outputchannelindex>1</outputchannelindex>
								</track>
								<track TL.SQTrackAudioKeyframeStyle="0" TL.SQTrackShy="0" TL.SQTrackExpandedHeight="25" TL.SQTrackExpanded="0" MZ.TrackTargeted="0" PannerCurrentValue="0.5" PannerIsInverted="true" PannerStartKeyframe="-91445760000000000,0.5,0,0,0,0,0,0" PannerName="Balance" currentExplodedTrackIndex="1" totalExplodedTrackCount="2" premiereTrackType="Stereo">
									<enabled>TRUE</enabled>
									<locked>FALSE</locked>
									<outputchannelindex>2</outputchannelindex>
								</track>
								<track TL.SQTrackAudioKeyframeStyle="0" TL.SQTrackShy="0" TL.SQTrackExpandedHeight="25" TL.SQTrackExpanded="0" MZ.TrackTargeted="0" PannerCurrentValue="0.5" PannerIsInverted="true" PannerStartKeyframe="-91445760000000000,0.5,0,0,0,0,0,0" PannerName="Balance" currentExplodedTrackIndex="0" totalExplodedTrackCount="2" premiereTrackType="Stereo">
									<enabled>TRUE</enabled>
									<locked>FALSE</locked>
									<outputchannelindex>1</outputchannelindex>
								</track>
								<track TL.SQTrackAudioKeyframeStyle="0" TL.SQTrackShy="0" TL.SQTrackExpandedHeight="25" TL.SQTrackExpanded="0" MZ.TrackTargeted="0" PannerCurrentValue="0.5" PannerIsInverted="true" PannerStartKeyframe="-91445760000000000,0.5,0,0,0,0,0,0" PannerName="Balance" currentExplodedTrackIndex="1" totalExplodedTrackCount="2" premiereTrackType="Stereo">
									<enabled>TRUE</enabled>
									<locked>FALSE</locked>
									<outputchannelindex>2</outputchannelindex>
								</track>
								<track TL.SQTrackAudioKeyframeStyle="0" TL.SQTrackShy="0" TL.SQTrackExpandedHeight="25" TL.SQTrackExpanded="0" MZ.TrackTargeted="0" PannerCurrentValue="0.5" PannerIsInverted="true" PannerStartKeyframe="-91445760000000000,0.5,0,0,0,0,0,0" PannerName="Balance" currentExplodedTrackIndex="0" totalExplodedTrackCount="2" premiereTrackType="Stereo">
									<enabled>TRUE</enabled>
									<locked>FALSE</locked>
									<outputchannelindex>1</outputchannelindex>
								</track>
								<track TL.SQTrackAudioKeyframeStyle="0" TL.SQTrackShy="0" TL.SQTrackExpandedHeight="25" TL.SQTrackExpanded="0" MZ.TrackTargeted="0" PannerCurrentValue="0.5" PannerIsInverted="true" PannerStartKeyframe="-91445760000000000,0.5,0,0,0,0,0,0" PannerName="Balance" currentExplodedTrackIndex="1" totalExplodedTrackCount="2" premiereTrackType="Stereo">
									<enabled>TRUE</enabled>
									<locked>FALSE</locked>
									<outputchannelindex>2</outputchannelindex>
								</track>
								<track TL.SQTrackAudioKeyframeStyle="0" TL.SQTrackShy="0" TL.SQTrackExpandedHeight="25" TL.SQTrackExpanded="0" MZ.TrackTargeted="0" PannerCurrentValue="0.5" PannerIsInverted="true" PannerStartKeyframe="-91445760000000000,0.5,0,0,0,0,0,0" PannerName="Balance" currentExplodedTrackIndex="0" totalExplodedTrackCount="2" premiereTrackType="Stereo">
									<enabled>TRUE</enabled>
									<locked>FALSE</locked>
									<outputchannelindex>1</outputchannelindex>
								</track>
								<track TL.SQTrackAudioKeyframeStyle="0" TL.SQTrackShy="0" TL.SQTrackExpandedHeight="25" TL.SQTrackExpanded="0" MZ.TrackTargeted="0" PannerCurrentValue="0.5" PannerIsInverted="true" PannerStartKeyframe="-91445760000000000,0.5,0,0,0,0,0,0" PannerName="Balance" currentExplodedTrackIndex="1" totalExplodedTrackCount="2" premiereTrackType="Stereo">
									<enabled>TRUE</enabled>
									<locked>FALSE</locked>
									<outputchannelindex>2</outputchannelindex>
								</track>
								<track TL.SQTrackAudioKeyframeStyle="0" TL.SQTrackShy="0" TL.SQTrackExpandedHeight="25" TL.SQTrackExpanded="0" MZ.TrackTargeted="0" PannerCurrentValue="0.5" PannerIsInverted="true" PannerStartKeyframe="-91445760000000000,0.5,0,0,0,0,0,0" PannerName="Balance" currentExplodedTrackIndex="0" totalExplodedTrackCount="2" premiereTrackType="Stereo">
									<enabled>TRUE</enabled>
									<locked>FALSE</locked>
									<outputchannelindex>1</outputchannelindex>
								</track>
								<track TL.SQTrackAudioKeyframeStyle="0" TL.SQTrackShy="0" TL.SQTrackExpandedHeight="25" TL.SQTrackExpanded="0" MZ.TrackTargeted="0" PannerCurrentValue="0.5" PannerIsInverted="true" PannerStartKeyframe="-91445760000000000,0.5,0,0,0,0,0,0" PannerName="Balance" currentExplodedTrackIndex="1" totalExplodedTrackCount="2" premiereTrackType="Stereo">
									<enabled>TRUE</enabled>
									<locked>FALSE</locked>
									<outputchannelindex>2</outputchannelindex>
								</track>
								<track TL.SQTrackAudioKeyframeStyle="0" TL.SQTrackShy="0" TL.SQTrackExpandedHeight="25" TL.SQTrackExpanded="0" MZ.TrackTargeted="0" PannerCurrentValue="0.5" PannerIsInverted="true" PannerStartKeyframe="-91445760000000000,0.5,0,0,0,0,0,0" PannerName="Balance" currentExplodedTrackIndex="0" totalExplodedTrackCount="2" premiereTrackType="Stereo">
									<enabled>TRUE</enabled>
									<locked>FALSE</locked>
									<outputchannelindex>1</outputchannelindex>
								</track>
								<track TL.SQTrackAudioKeyframeStyle="0" TL.SQTrackShy="0" TL.SQTrackExpandedHeight="25" TL.SQTrackExpanded="0" MZ.TrackTargeted="0" PannerCurrentValue="0.5" PannerIsInverted="true" PannerStartKeyframe="-91445760000000000,0.5,0,0,0,0,0,0" PannerName="Balance" currentExplodedTrackIndex="1" totalExplodedTrackCount="2" premiereTrackType="Stereo">
									<enabled>TRUE</enabled>
									<locked>FALSE</locked>
									<outputchannelindex>2</outputchannelindex>
								</track>
								<track TL.SQTrackAudioKeyframeStyle="0" TL.SQTrackShy="0" TL.SQTrackExpandedHeight="25" TL.SQTrackExpanded="0" MZ.TrackTargeted="0" PannerCurrentValue="0.5" PannerIsInverted="true" PannerStartKeyframe="-91445760000000000,0.5,0,0,0,0,0,0" PannerName="Balance" currentExplodedTrackIndex="0" totalExplodedTrackCount="2" premiereTrackType="Stereo">
									<enabled>TRUE</enabled>
									<locked>FALSE</locked>
									<outputchannelindex>1</outputchannelindex>
								</track>
								<track TL.SQTrackAudioKeyframeStyle="0" TL.SQTrackShy="0" TL.SQTrackExpandedHeight="25" TL.SQTrackExpanded="0" MZ.TrackTargeted="0" PannerCurrentValue="0.5" PannerIsInverted="true" PannerStartKeyframe="-91445760000000000,0.5,0,0,0,0,0,0" PannerName="Balance" currentExplodedTrackIndex="1" totalExplodedTrackCount="2" premiereTrackType="Stereo">
									<enabled>TRUE</enabled>
									<locked>FALSE</locked>
									<outputchannelindex>2</outputchannelindex>
								</track>
								<track TL.SQTrackAudioKeyframeStyle="0" TL.SQTrackShy="0" TL.SQTrackExpandedHeight="25" TL.SQTrackExpanded="0" MZ.TrackTargeted="0" PannerCurrentValue="0.5" PannerIsInverted="true" PannerStartKeyframe="-91445760000000000,0.5,0,0,0,0,0,0" PannerName="Balance" currentExplodedTrackIndex="0" totalExplodedTrackCount="2" premiereTrackType="Stereo">
									<enabled>TRUE</enabled>
									<locked>FALSE</locked>
									<outputchannelindex>1</outputchannelindex>
								</track>
								<track TL.SQTrackAudioKeyframeStyle="0" TL.SQTrackShy="0" TL.SQTrackExpandedHeight="25" TL.SQTrackExpanded="0" MZ.TrackTargeted="0" PannerCurrentValue="0.5" PannerIsInverted="true" PannerStartKeyframe="-91445760000000000,0.5,0,0,0,0,0,0" PannerName="Balance" currentExplodedTrackIndex="1" totalExplodedTrackCount="2" premiereTrackType="Stereo">
									<enabled>TRUE</enabled>
									<locked>FALSE</locked>
									<outputchannelindex>2</outputchannelindex>
								</track>
							</audio>
						</media>
						<timecode>
							<rate>
								<timebase>30</timebase>
								<ntsc>TRUE</ntsc>
							</rate>
							<string>00;00;00;00</string>
							<frame>0</frame>
							<displayformat>DF</displayformat>
						</timecode>
						<labels>
							<label2>Forest</label2>
						</labels>
						<logginginfo>
							<description></description>
							<scene></scene>
							<shottake></shottake>
							<lognote></lognote>
							<good></good>
							<originalvideofilename></originalvideofilename>
							<originalaudiofilename></originalaudiofilename>
						</logginginfo>
					</sequence>
					<sequence id="sequence-7" TL.SQAudioVisibleBase="0" TL.SQVideoVisibleBase="0" TL.SQVisibleBaseTime="0" TL.SQAVDividerPosition="0.5" TL.SQHideShyTracks="0" TL.SQHeaderWidth="236" TL.SQDataTrackViewControlState="0" Monitor.ProgramZoomOut="23002960780800" Monitor.ProgramZoomIn="0" TL.SQTimePerPixel="0.14824249062462103" AM.TrackVScrollPosition="0" AM.TrackScrollPosition="0" MZ.EditLine="3466547884800" MZ.Sequence.PreviewFrameSizeHeight="1080" MZ.Sequence.PreviewFrameSizeWidth="1920" MZ.Sequence.AudioTimeDisplayFormat="200" MZ.Sequence.PreviewRenderingClassID="1061109567" MZ.Sequence.PreviewRenderingPresetCodec="1634755443" MZ.Sequence.PreviewRenderingPresetPath="EncoderPresets/SequencePreview/35d109db-457b-43c1-9452-9cb7be9f121c/QuickTime.epr" MZ.Sequence.PreviewUseMaxRenderQuality="false" MZ.Sequence.PreviewUseMaxBitDepth="false" MZ.Sequence.EditingModeGUID="35d109db-457b-43c1-9452-9cb7be9f121c" MZ.Sequence.VideoTimeDisplayFormat="102" MZ.WorkOutPoint="1262874412800" MZ.WorkInPoint="0" explodedTracks="true">
						<uuid>74087598-f8d0-471f-a77a-e67d3a189258</uuid>
						<duration>2714</duration>
						<rate>
							<timebase>30</timebase>
							<ntsc>TRUE</ntsc>
						</rate>
						<out>2714</out>
						<name>FND_You're the Apple of My Eye_1.5</name>
						<media>
							<video>
								<format>
									<samplecharacteristics>
										<rate>
											<timebase>30</timebase>
											<ntsc>TRUE</ntsc>
										</rate>
										<codec>
											<name>Apple ProRes 422</name>
											<appspecificdata>
												<appname>Final Cut Pro</appname>
												<appmanufacturer>Apple Inc.</appmanufacturer>
												<appversion>7.0</appversion>
												<data>
													<qtcodec>
														<codecname>Apple ProRes 422</codecname>
														<codectypename>Apple ProRes 422</codectypename>
														<codectypecode>apcn</codectypecode>
														<codecvendorcode>appl</codecvendorcode>
														<spatialquality>1024</spatialquality>
														<temporalquality>0</temporalquality>
														<keyframerate>0</keyframerate>
														<datarate>0</datarate>
													</qtcodec>
												</data>
											</appspecificdata>
										</codec>
										<width>1920</width>
										<height>1080</height>
										<anamorphic>FALSE</anamorphic>
										<pixelaspectratio>square</pixelaspectratio>
										<fielddominance>none</fielddominance>
										<colordepth>24</colordepth>
									</samplecharacteristics>
								</format>
								<track TL.SQTrackShy="0" TL.SQTrackExpandedHeight="25" TL.SQTrackExpanded="0" MZ.TrackTargeted="1">
									<clipitem id="clipitem-387">
										<masterclipid>masterclip-28</masterclipid>
										<name>(AL DANTE)_15 Second Easy Yummy Apple Buns_r-VzsJBaMBU_YT.mp4</name>
										<enabled>TRUE</enabled>
										<duration>561</duration>
										<rate>
											<timebase>30</timebase>
											<ntsc>TRUE</ntsc>
										</rate>
										<start>0</start>
										<end>561</end>
										<in>0</in>
										<out>561</out>
										<pproTicksIn>0</pproTicksIn>
										<pproTicksOut>3803879439360</pproTicksOut>
										<alphatype>none</alphatype>
										<file id="file-28"/>
										<filter>
											<effect>
												<name>Time Remap</name>
												<effectid>timeremap</effectid>
												<effectcategory>motion</effectcategory>
												<effecttype>motion</effecttype>
												<mediatype>video</mediatype>
												<parameter authoringApp="PremierePro">
													<parameterid>variablespeed</parameterid>
													<name>variablespeed</name>
													<valuemin>0</valuemin>
													<valuemax>1</valuemax>
													<value>0</value>
												</parameter>
												<parameter authoringApp="PremierePro">
													<parameterid>speed</parameterid>
													<name>speed</name>
													<valuemin>-100000</valuemin>
													<valuemax>100000</valuemax>
													<value>80</value>
												</parameter>
												<parameter authoringApp="PremierePro">
													<parameterid>reverse</parameterid>
													<name>reverse</name>
													<value>FALSE</value>
												</parameter>
												<parameter authoringApp="PremierePro">
													<parameterid>frameblending</parameterid>
													<name>frameblending</name>
													<value>FALSE</value>
												</parameter>
												<parameter authoringApp="PremierePro">
													<parameterid>graphdict</parameterid>
													<name>graphdict</name>
													<valuemin>0</valuemin>
													<valuemax>448</valuemax>
													<value>0</value>
													<keyframe>
														<when>0</when>
														<value>0</value>
														<speedvirtualkf>TRUE</speedvirtualkf>
														<speedkfin>TRUE</speedkfin>
													</keyframe>
													<keyframe>
														<when>561</when>
														<value>448</value>
														<speedvirtualkf>TRUE</speedvirtualkf>
														<speedkfout>TRUE</speedkfout>
													</keyframe>
													<interpolation>
														<name>FCPCurve</name>
													</interpolation>
												</parameter>
											</effect>
										</filter>
										<logginginfo>
											<description></description>
											<scene></scene>
											<shottake></shottake>
											<lognote></lognote>
											<good></good>
											<originalvideofilename></originalvideofilename>
											<originalaudiofilename></originalaudiofilename>
										</logginginfo>
										<colorinfo>
											<lut></lut>
											<lut1></lut1>
											<asc_sop></asc_sop>
											<asc_sat></asc_sat>
											<lut2></lut2>
										</colorinfo>
										<labels>
											<label2>Violet</label2>
										</labels>
									</clipitem>
									<clipitem id="clipitem-388">
										<masterclipid>masterclip-30</masterclipid>
										<name>(join_jules)_CWOl_19DqZg_IG.mp4</name>
										<enabled>TRUE</enabled>
										<duration>531</duration>
										<rate>
											<timebase>30</timebase>
											<ntsc>TRUE</ntsc>
										</rate>
										<start>561</start>
										<end>1047</end>
										<in>45</in>
										<out>531</out>
										<pproTicksIn>381405024000</pproTicksIn>
										<pproTicksOut>4500579283200</pproTicksOut>
										<alphatype>none</alphatype>
										<file id="file-30"/>
										<filter>
											<effect>
												<name>Basic Motion</name>
												<effectid>basic</effectid>
												<effectcategory>motion</effectcategory>
												<effecttype>motion</effecttype>
												<mediatype>video</mediatype>
												<pproBypass>false</pproBypass>
												<parameter authoringApp="PremierePro">
													<parameterid>scale</parameterid>
													<name>Scale</name>
													<valuemin>0</valuemin>
													<valuemax>1000</valuemax>
													<value>101</value>
												</parameter>
												<parameter authoringApp="PremierePro">
													<parameterid>rotation</parameterid>
													<name>Rotation</name>
													<valuemin>-8640</valuemin>
													<valuemax>8640</valuemax>
													<value>0</value>
												</parameter>
												<parameter authoringApp="PremierePro">
													<parameterid>center</parameterid>
													<name>Center</name>
													<value>
														<horiz>0</horiz>
														<vert>0</vert>
													</value>
												</parameter>
												<parameter authoringApp="PremierePro">
													<parameterid>centerOffset</parameterid>
													<name>Anchor Point</name>
													<value>
														<horiz>0</horiz>
														<vert>0</vert>
													</value>
												</parameter>
												<parameter authoringApp="PremierePro">
													<parameterid>antiflicker</parameterid>
													<name>Anti-flicker Filter</name>
													<valuemin>0.0</valuemin>
													<valuemax>1.0</valuemax>
													<value>0</value>
												</parameter>
											</effect>
										</filter>
										<logginginfo>
											<description></description>
											<scene></scene>
											<shottake></shottake>
											<lognote></lognote>
											<good></good>
											<originalvideofilename></originalvideofilename>
											<originalaudiofilename></originalaudiofilename>
										</logginginfo>
										<colorinfo>
											<lut></lut>
											<lut1></lut1>
											<asc_sop></asc_sop>
											<asc_sat></asc_sat>
											<lut2></lut2>
										</colorinfo>
										<labels>
											<label2>Lavender</label2>
										</labels>
									</clipitem>
									<clipitem id="clipitem-389">
										<masterclipid>masterclip-31</masterclipid>
										<name>(sophiabakessometimes)_7099649825385221382_TT.mp4</name>
										<enabled>TRUE</enabled>
										<duration>1268</duration>
										<rate>
											<timebase>30</timebase>
											<ntsc>TRUE</ntsc>
										</rate>
										<start>1047</start>
										<end>1229</end>
										<in>0</in>
										<out>182</out>
										<pproTicksIn>0</pproTicksIn>
										<pproTicksOut>1542571430400</pproTicksOut>
										<alphatype>none</alphatype>
										<file id="file-31"/>
										<logginginfo>
											<description></description>
											<scene></scene>
											<shottake></shottake>
											<lognote></lognote>
											<good></good>
											<originalvideofilename></originalvideofilename>
											<originalaudiofilename></originalaudiofilename>
										</logginginfo>
										<colorinfo>
											<lut></lut>
											<lut1></lut1>
											<asc_sop></asc_sop>
											<asc_sat></asc_sat>
											<lut2></lut2>
										</colorinfo>
										<labels>
											<label2>Forest</label2>
										</labels>
									</clipitem>
									<clipitem id="clipitem-390">
										<masterclipid>masterclip-31</masterclipid>
										<name>(sophiabakessometimes)_7099649825385221382_TT.mp4</name>
										<enabled>TRUE</enabled>
										<duration>1268</duration>
										<rate>
											<timebase>30</timebase>
											<ntsc>TRUE</ntsc>
										</rate>
										<start>1229</start>
										<end>1620</end>
										<in>756</in>
										<out>1147</out>
										<pproTicksIn>6407604403200</pproTicksIn>
										<pproTicksOut>9721590278400</pproTicksOut>
										<alphatype>none</alphatype>
										<file id="file-31"/>
										<logginginfo>
											<description></description>
											<scene></scene>
											<shottake></shottake>
											<lognote></lognote>
											<good></good>
											<originalvideofilename></originalvideofilename>
											<originalaudiofilename></originalaudiofilename>
										</logginginfo>
										<colorinfo>
											<lut></lut>
											<lut1></lut1>
											<asc_sop></asc_sop>
											<asc_sat></asc_sat>
											<lut2></lut2>
										</colorinfo>
										<labels>
											<label2>Forest</label2>
										</labels>
									</clipitem>
									<clipitem id="clipitem-391">
										<masterclipid>masterclip-32</masterclipid>
										<name>(whynotdiy.me)_CWTB946gPjV_IG.mp4</name>
										<enabled>TRUE</enabled>
										<duration>1519</duration>
										<rate>
											<timebase>30</timebase>
											<ntsc>TRUE</ntsc>
										</rate>
										<start>1620</start>
										<end>1688</end>
										<in>147</in>
										<out>215</out>
										<pproTicksIn>1245923078400</pproTicksIn>
										<pproTicksOut>1822268448000</pproTicksOut>
										<alphatype>none</alphatype>
										<file id="file-32"/>
										<logginginfo>
											<description>IG: whynotdiy.me&#10;TT: whynotdiy_me&#10;YT: Why not DIY ME</description>
											<scene></scene>
											<shottake></shottake>
											<lognote></lognote>
											<good></good>
											<originalvideofilename></originalvideofilename>
											<originalaudiofilename></originalaudiofilename>
										</logginginfo>
										<colorinfo>
											<lut></lut>
											<lut1></lut1>
											<asc_sop></asc_sop>
											<asc_sat></asc_sat>
											<lut2></lut2>
										</colorinfo>
									</clipitem>
									<clipitem id="clipitem-392">
										<masterclipid>masterclip-32</masterclipid>
										<name>(whynotdiy.me)_CWTB946gPjV_IG.mp4</name>
										<enabled>TRUE</enabled>
										<duration>1519</duration>
										<rate>
											<timebase>30</timebase>
											<ntsc>TRUE</ntsc>
										</rate>
										<start>1688</start>
										<end>1744</end>
										<in>234</in>
										<out>290</out>
										<pproTicksIn>1983306124800</pproTicksIn>
										<pproTicksOut>2457943488000</pproTicksOut>
										<alphatype>none</alphatype>
										<file id="file-32"/>
										<logginginfo>
											<description>IG: whynotdiy.me&#10;TT: whynotdiy_me&#10;YT: Why not DIY ME</description>
											<scene></scene>
											<shottake></shottake>
											<lognote></lognote>
											<good></good>
											<originalvideofilename></originalvideofilename>
											<originalaudiofilename></originalaudiofilename>
										</logginginfo>
										<colorinfo>
											<lut></lut>
											<lut1></lut1>
											<asc_sop></asc_sop>
											<asc_sat></asc_sat>
											<lut2></lut2>
										</colorinfo>
									</clipitem>
									<clipitem id="clipitem-393">
										<masterclipid>masterclip-32</masterclipid>
										<name>(whynotdiy.me)_CWTB946gPjV_IG.mp4</name>
										<enabled>TRUE</enabled>
										<duration>1519</duration>
										<rate>
											<timebase>30</timebase>
											<ntsc>TRUE</ntsc>
										</rate>
										<start>1744</start>
										<end>1800</end>
										<in>315</in>
										<out>371</out>
										<pproTicksIn>2669835168000</pproTicksIn>
										<pproTicksOut>3144472531200</pproTicksOut>
										<alphatype>none</alphatype>
										<file id="file-32"/>
										<logginginfo>
											<description>IG: whynotdiy.me&#10;TT: whynotdiy_me&#10;YT: Why not DIY ME</description>
											<scene></scene>
											<shottake></shottake>
											<lognote></lognote>
											<good></good>
											<originalvideofilename></originalvideofilename>
											<originalaudiofilename></originalaudiofilename>
										</logginginfo>
										<colorinfo>
											<lut></lut>
											<lut1></lut1>
											<asc_sop></asc_sop>
											<asc_sat></asc_sat>
											<lut2></lut2>
										</colorinfo>
									</clipitem>
									<clipitem id="clipitem-394">
										<masterclipid>masterclip-32</masterclipid>
										<name>(whynotdiy.me)_CWTB946gPjV_IG.mp4</name>
										<enabled>TRUE</enabled>
										<duration>1519</duration>
										<rate>
											<timebase>30</timebase>
											<ntsc>TRUE</ntsc>
										</rate>
										<start>1800</start>
										<end>1845</end>
										<in>781</in>
										<out>826</out>
										<pproTicksIn>6619496083200</pproTicksIn>
										<pproTicksOut>7000901107200</pproTicksOut>
										<alphatype>none</alphatype>
										<file id="file-32"/>
										<logginginfo>
											<description>IG: whynotdiy.me&#10;TT: whynotdiy_me&#10;YT: Why not DIY ME</description>
											<scene></scene>
											<shottake></shottake>
											<lognote></lognote>
											<good></good>
											<originalvideofilename></originalvideofilename>
											<originalaudiofilename></originalaudiofilename>
										</logginginfo>
										<colorinfo>
											<lut></lut>
											<lut1></lut1>
											<asc_sop></asc_sop>
											<asc_sat></asc_sat>
											<lut2></lut2>
										</colorinfo>
									</clipitem>
									<clipitem id="clipitem-395">
										<masterclipid>masterclip-32</masterclipid>
										<name>(whynotdiy.me)_CWTB946gPjV_IG.mp4</name>
										<enabled>TRUE</enabled>
										<duration>1519</duration>
										<rate>
											<timebase>30</timebase>
											<ntsc>TRUE</ntsc>
										</rate>
										<start>1845</start>
										<end>1862</end>
										<in>837</in>
										<out>854</out>
										<pproTicksIn>7094133446400</pproTicksIn>
										<pproTicksOut>7238219788800</pproTicksOut>
										<alphatype>none</alphatype>
										<file id="file-32"/>
										<logginginfo>
											<description>IG: whynotdiy.me&#10;TT: whynotdiy_me&#10;YT: Why not DIY ME</description>
											<scene></scene>
											<shottake></shottake>
											<lognote></lognote>
											<good></good>
											<originalvideofilename></originalvideofilename>
											<originalaudiofilename></originalaudiofilename>
										</logginginfo>
										<colorinfo>
											<lut></lut>
											<lut1></lut1>
											<asc_sop></asc_sop>
											<asc_sat></asc_sat>
											<lut2></lut2>
										</colorinfo>
									</clipitem>
									<clipitem id="clipitem-396">
										<masterclipid>masterclip-32</masterclipid>
										<name>(whynotdiy.me)_CWTB946gPjV_IG.mp4</name>
										<enabled>TRUE</enabled>
										<duration>1519</duration>
										<rate>
											<timebase>30</timebase>
											<ntsc>TRUE</ntsc>
										</rate>
										<start>1862</start>
										<end>1928</end>
										<in>919</in>
										<out>985</out>
										<pproTicksIn>7789138156800</pproTicksIn>
										<pproTicksOut>8348532192000</pproTicksOut>
										<alphatype>none</alphatype>
										<file id="file-32"/>
										<logginginfo>
											<description>IG: whynotdiy.me&#10;TT: whynotdiy_me&#10;YT: Why not DIY ME</description>
											<scene></scene>
											<shottake></shottake>
											<lognote></lognote>
											<good></good>
											<originalvideofilename></originalvideofilename>
											<originalaudiofilename></originalaudiofilename>
										</logginginfo>
										<colorinfo>
											<lut></lut>
											<lut1></lut1>
											<asc_sop></asc_sop>
											<asc_sat></asc_sat>
											<lut2></lut2>
										</colorinfo>
									</clipitem>
									<clipitem id="clipitem-397">
										<masterclipid>masterclip-32</masterclipid>
										<name>(whynotdiy.me)_CWTB946gPjV_IG.mp4</name>
										<enabled>TRUE</enabled>
										<duration>1519</duration>
										<rate>
											<timebase>30</timebase>
											<ntsc>TRUE</ntsc>
										</rate>
										<start>1928</start>
										<end>2065</end>
										<in>1158</in>
										<out>1295</out>
										<pproTicksIn>9814822617600</pproTicksIn>
										<pproTicksOut>10975989024000</pproTicksOut>
										<alphatype>none</alphatype>
										<file id="file-32"/>
										<logginginfo>
											<description>IG: whynotdiy.me&#10;TT: whynotdiy_me&#10;YT: Why not DIY ME</description>
											<scene></scene>
											<shottake></shottake>
											<lognote></lognote>
											<good></good>
											<originalvideofilename></originalvideofilename>
											<originalaudiofilename></originalaudiofilename>
										</logginginfo>
										<colorinfo>
											<lut></lut>
											<lut1></lut1>
											<asc_sop></asc_sop>
											<asc_sat></asc_sat>
											<lut2></lut2>
										</colorinfo>
									</clipitem>
									<clipitem id="clipitem-398">
										<masterclipid>masterclip-32</masterclipid>
										<name>(whynotdiy.me)_CWTB946gPjV_IG.mp4</name>
										<enabled>TRUE</enabled>
										<duration>1519</duration>
										<rate>
											<timebase>30</timebase>
											<ntsc>TRUE</ntsc>
										</rate>
										<start>2065</start>
										<end>2115</end>
										<in>0</in>
										<out>50</out>
										<pproTicksIn>0</pproTicksIn>
										<pproTicksOut>423783360000</pproTicksOut>
										<alphatype>none</alphatype>
										<file id="file-32"/>
										<filter>
											<effect>
												<name>Basic Motion</name>
												<effectid>basic</effectid>
												<effectcategory>motion</effectcategory>
												<effecttype>motion</effecttype>
												<mediatype>video</mediatype>
												<pproBypass>false</pproBypass>
												<parameter authoringApp="PremierePro">
													<parameterid>scale</parameterid>
													<name>Scale</name>
													<valuemin>0</valuemin>
													<valuemax>1000</valuemax>
													<value>100</value>
													<keyframe>
														<when>0</when>
														<value>111</value>
													</keyframe>
													<keyframe>
														<when>50</when>
														<value>100</value>
													</keyframe>
												</parameter>
												<parameter authoringApp="PremierePro">
													<parameterid>rotation</parameterid>
													<name>Rotation</name>
													<valuemin>-8640</valuemin>
													<valuemax>8640</valuemax>
													<value>0</value>
												</parameter>
												<parameter authoringApp="PremierePro">
													<parameterid>center</parameterid>
													<name>Center</name>
													<value>
														<horiz>0</horiz>
														<vert>0</vert>
													</value>
												</parameter>
												<parameter authoringApp="PremierePro">
													<parameterid>centerOffset</parameterid>
													<name>Anchor Point</name>
													<value>
														<horiz>0</horiz>
														<vert>0</vert>
													</value>
												</parameter>
												<parameter authoringApp="PremierePro">
													<parameterid>antiflicker</parameterid>
													<name>Anti-flicker Filter</name>
													<valuemin>0.0</valuemin>
													<valuemax>1.0</valuemax>
													<value>0</value>
												</parameter>
											</effect>
										</filter>
										<logginginfo>
											<description>IG: whynotdiy.me&#10;TT: whynotdiy_me&#10;YT: Why not DIY ME</description>
											<scene></scene>
											<shottake></shottake>
											<lognote></lognote>
											<good></good>
											<originalvideofilename></originalvideofilename>
											<originalaudiofilename></originalaudiofilename>
										</logginginfo>
										<colorinfo>
											<lut></lut>
											<lut1></lut1>
											<asc_sop></asc_sop>
											<asc_sat></asc_sat>
											<lut2></lut2>
										</colorinfo>
									</clipitem>
									<clipitem id="clipitem-399">
										<masterclipid>masterclip-29</masterclipid>
										<name>(candidtreatofficial)_CVFb7KbAfjj_IG.mp4</name>
										<enabled>TRUE</enabled>
										<duration>834</duration>
										<rate>
											<timebase>30</timebase>
											<ntsc>TRUE</ntsc>
										</rate>
										<start>2115</start>
										<end>2140</end>
										<in>0</in>
										<out>25</out>
										<pproTicksIn>0</pproTicksIn>
										<pproTicksOut>211891680000</pproTicksOut>
										<alphatype>none</alphatype>
										<file id="file-29"/>
										<logginginfo>
											<description></description>
											<scene></scene>
											<shottake></shottake>
											<lognote></lognote>
											<good></good>
											<originalvideofilename></originalvideofilename>
											<originalaudiofilename></originalaudiofilename>
										</logginginfo>
										<colorinfo>
											<lut></lut>
											<lut1></lut1>
											<asc_sop></asc_sop>
											<asc_sat></asc_sat>
											<lut2></lut2>
										</colorinfo>
										<labels>
											<label2>Caribbean</label2>
										</labels>
									</clipitem>
									<clipitem id="clipitem-400">
										<masterclipid>masterclip-29</masterclipid>
										<name>(candidtreatofficial)_CVFb7KbAfjj_IG.mp4</name>
										<enabled>TRUE</enabled>
										<duration>834</duration>
										<rate>
											<timebase>30</timebase>
											<ntsc>TRUE</ntsc>
										</rate>
										<start>2140</start>
										<end>2187</end>
										<in>62</in>
										<out>109</out>
										<pproTicksIn>525491366400</pproTicksIn>
										<pproTicksOut>923847724800</pproTicksOut>
										<alphatype>none</alphatype>
										<file id="file-29"/>
										<logginginfo>
											<description></description>
											<scene></scene>
											<shottake></shottake>
											<lognote></lognote>
											<good></good>
											<originalvideofilename></originalvideofilename>
											<originalaudiofilename></originalaudiofilename>
										</logginginfo>
										<colorinfo>
											<lut></lut>
											<lut1></lut1>
											<asc_sop></asc_sop>
											<asc_sat></asc_sat>
											<lut2></lut2>
										</colorinfo>
										<labels>
											<label2>Caribbean</label2>
										</labels>
									</clipitem>
									<clipitem id="clipitem-401">
										<masterclipid>masterclip-29</masterclipid>
										<name>(candidtreatofficial)_CVFb7KbAfjj_IG.mp4</name>
										<enabled>TRUE</enabled>
										<duration>834</duration>
										<rate>
											<timebase>30</timebase>
											<ntsc>TRUE</ntsc>
										</rate>
										<start>2187</start>
										<end>2237</end>
										<in>127</in>
										<out>177</out>
										<pproTicksIn>1076409734400</pproTicksIn>
										<pproTicksOut>1500193094400</pproTicksOut>
										<alphatype>none</alphatype>
										<file id="file-29"/>
										<logginginfo>
											<description></description>
											<scene></scene>
											<shottake></shottake>
											<lognote></lognote>
											<good></good>
											<originalvideofilename></originalvideofilename>
											<originalaudiofilename></originalaudiofilename>
										</logginginfo>
										<colorinfo>
											<lut></lut>
											<lut1></lut1>
											<asc_sop></asc_sop>
											<asc_sat></asc_sat>
											<lut2></lut2>
										</colorinfo>
										<labels>
											<label2>Caribbean</label2>
										</labels>
									</clipitem>
									<clipitem id="clipitem-402">
										<masterclipid>masterclip-29</masterclipid>
										<name>(candidtreatofficial)_CVFb7KbAfjj_IG.mp4</name>
										<enabled>TRUE</enabled>
										<duration>834</duration>
										<rate>
											<timebase>30</timebase>
											<ntsc>TRUE</ntsc>
										</rate>
										<start>2237</start>
										<end>2266</end>
										<in>199</in>
										<out>228</out>
										<pproTicksIn>1686657772800</pproTicksIn>
										<pproTicksOut>1932452121600</pproTicksOut>
										<alphatype>none</alphatype>
										<file id="file-29"/>
										<logginginfo>
											<description></description>
											<scene></scene>
											<shottake></shottake>
											<lognote></lognote>
											<good></good>
											<originalvideofilename></originalvideofilename>
											<originalaudiofilename></originalaudiofilename>
										</logginginfo>
										<colorinfo>
											<lut></lut>
											<lut1></lut1>
											<asc_sop></asc_sop>
											<asc_sat></asc_sat>
											<lut2></lut2>
										</colorinfo>
										<labels>
											<label2>Caribbean</label2>
										</labels>
									</clipitem>
									<clipitem id="clipitem-403">
										<masterclipid>masterclip-29</masterclipid>
										<name>(candidtreatofficial)_CVFb7KbAfjj_IG.mp4</name>
										<enabled>TRUE</enabled>
										<duration>834</duration>
										<rate>
											<timebase>30</timebase>
											<ntsc>TRUE</ntsc>
										</rate>
										<start>2266</start>
										<end>2355</end>
										<in>279</in>
										<out>368</out>
										<pproTicksIn>2364711148800</pproTicksIn>
										<pproTicksOut>3119045529600</pproTicksOut>
										<alphatype>none</alphatype>
										<file id="file-29"/>
										<logginginfo>
											<description></description>
											<scene></scene>
											<shottake></shottake>
											<lognote></lognote>
											<good></good>
											<originalvideofilename></originalvideofilename>
											<originalaudiofilename></originalaudiofilename>
										</logginginfo>
										<colorinfo>
											<lut></lut>
											<lut1></lut1>
											<asc_sop></asc_sop>
											<asc_sat></asc_sat>
											<lut2></lut2>
										</colorinfo>
										<labels>
											<label2>Caribbean</label2>
										</labels>
									</clipitem>
									<clipitem id="clipitem-404">
										<masterclipid>masterclip-29</masterclipid>
										<name>(candidtreatofficial)_CVFb7KbAfjj_IG.mp4</name>
										<enabled>TRUE</enabled>
										<duration>834</duration>
										<rate>
											<timebase>30</timebase>
											<ntsc>TRUE</ntsc>
										</rate>
										<start>2355</start>
										<end>2405</end>
										<in>388</in>
										<out>438</out>
										<pproTicksIn>3288558873600</pproTicksIn>
										<pproTicksOut>3712342233600</pproTicksOut>
										<alphatype>none</alphatype>
										<file id="file-29"/>
										<logginginfo>
											<description></description>
											<scene></scene>
											<shottake></shottake>
											<lognote></lognote>
											<good></good>
											<originalvideofilename></originalvideofilename>
											<originalaudiofilename></originalaudiofilename>
										</logginginfo>
										<colorinfo>
											<lut></lut>
											<lut1></lut1>
											<asc_sop></asc_sop>
											<asc_sat></asc_sat>
											<lut2></lut2>
										</colorinfo>
										<labels>
											<label2>Caribbean</label2>
										</labels>
									</clipitem>
									<clipitem id="clipitem-405">
										<masterclipid>masterclip-29</masterclipid>
										<name>(candidtreatofficial)_CVFb7KbAfjj_IG.mp4</name>
										<enabled>TRUE</enabled>
										<duration>834</duration>
										<rate>
											<timebase>30</timebase>
											<ntsc>TRUE</ntsc>
										</rate>
										<start>2405</start>
										<end>2467</end>
										<in>459</in>
										<out>521</out>
										<pproTicksIn>3890331244800</pproTicksIn>
										<pproTicksOut>4415822611200</pproTicksOut>
										<alphatype>none</alphatype>
										<file id="file-29"/>
										<logginginfo>
											<description></description>
											<scene></scene>
											<shottake></shottake>
											<lognote></lognote>
											<good></good>
											<originalvideofilename></originalvideofilename>
											<originalaudiofilename></originalaudiofilename>
										</logginginfo>
										<colorinfo>
											<lut></lut>
											<lut1></lut1>
											<asc_sop></asc_sop>
											<asc_sat></asc_sat>
											<lut2></lut2>
										</colorinfo>
										<labels>
											<label2>Caribbean</label2>
										</labels>
									</clipitem>
									<clipitem id="clipitem-406">
										<masterclipid>masterclip-29</masterclipid>
										<name>(candidtreatofficial)_CVFb7KbAfjj_IG.mp4</name>
										<enabled>TRUE</enabled>
										<duration>834</duration>
										<rate>
											<timebase>30</timebase>
											<ntsc>TRUE</ntsc>
										</rate>
										<start>2467</start>
										<end>2657</end>
										<in>535</in>
										<out>725</out>
										<pproTicksIn>4534481952000</pproTicksIn>
										<pproTicksOut>6144858720000</pproTicksOut>
										<alphatype>none</alphatype>
										<file id="file-29"/>
										<logginginfo>
											<description></description>
											<scene></scene>
											<shottake></shottake>
											<lognote></lognote>
											<good></good>
											<originalvideofilename></originalvideofilename>
											<originalaudiofilename></originalaudiofilename>
										</logginginfo>
										<colorinfo>
											<lut></lut>
											<lut1></lut1>
											<asc_sop></asc_sop>
											<asc_sat></asc_sat>
											<lut2></lut2>
										</colorinfo>
										<labels>
											<label2>Caribbean</label2>
										</labels>
									</clipitem>
									<clipitem id="clipitem-407">
										<masterclipid>masterclip-29</masterclipid>
										<name>(candidtreatofficial)_CVFb7KbAfjj_IG.mp4</name>
										<enabled>TRUE</enabled>
										<duration>834</duration>
										<rate>
											<timebase>30</timebase>
											<ntsc>TRUE</ntsc>
										</rate>
										<start>2657</start>
										<end>2714</end>
										<in>777</in>
										<out>834</out>
										<pproTicksIn>6585593414400</pproTicksIn>
										<pproTicksOut>7068706444800</pproTicksOut>
										<alphatype>none</alphatype>
										<file id="file-29"/>
										<logginginfo>
											<description></description>
											<scene></scene>
											<shottake></shottake>
											<lognote></lognote>
											<good></good>
											<originalvideofilename></originalvideofilename>
											<originalaudiofilename></originalaudiofilename>
										</logginginfo>
										<colorinfo>
											<lut></lut>
											<lut1></lut1>
											<asc_sop></asc_sop>
											<asc_sat></asc_sat>
											<lut2></lut2>
										</colorinfo>
										<labels>
											<label2>Caribbean</label2>
										</labels>
									</clipitem>
									<enabled>TRUE</enabled>
									<locked>FALSE</locked>
								</track>
								<track TL.SQTrackShy="0" TL.SQTrackExpandedHeight="25" TL.SQTrackExpanded="0" MZ.TrackTargeted="0">
									<clipitem id="clipitem-408">
										<masterclipid>masterclip-179</masterclipid>
										<name># Eyecandy Vertical Video Frame 3</name>
										<enabled>TRUE</enabled>
										<duration>5700</duration>
										<rate>
											<timebase>30</timebase>
											<ntsc>TRUE</ntsc>
										</rate>
										<start>0</start>
										<end>561</end>
										<in>113</in>
										<out>674</out>
										<pproTicksIn>957750393600</pproTicksIn>
										<pproTicksOut>5712599692800</pproTicksOut>
										<alphatype>straight</alphatype>
										<pixelaspectratio>square</pixelaspectratio>
										<anamorphic>FALSE</anamorphic>
										<file id="file-177">
											<name># Eyecandy Vertical Video Frame 3/# Eyecandy Vertical Video Frame 3.aegraphic</name>
											<pathurl>file://localhost/Volumes/ATM%201/EYE%20CANDY/8%3a21%3a23/4_Project%20Files/Motion%20Graphics%20Template%20Media/a986b071-94ef-42a8-9c31-87ffc7368644/#%20Eyecandy%20Vertical%20Video%20Frame%203.aegraphic</pathurl>
											<rate>
												<timebase>24</timebase>
												<ntsc>TRUE</ntsc>
											</rate>
											<duration>4560</duration>
											<timecode>
												<rate>
													<timebase>24</timebase>
													<ntsc>TRUE</ntsc>
												</rate>
												<string>00:00:00:00</string>
												<frame>0</frame>
												<displayformat>NDF</displayformat>
											</timecode>
											<media>
												<video>
													<samplecharacteristics>
														<rate>
															<timebase>24</timebase>
															<ntsc>TRUE</ntsc>
														</rate>
														<width>1920</width>
														<height>1080</height>
														<anamorphic>FALSE</anamorphic>
														<pixelaspectratio>square</pixelaspectratio>
														<fielddominance>lower</fielddominance>
													</samplecharacteristics>
												</video>
											</media>
										</file>
										<logginginfo>
											<description></description>
											<scene></scene>
											<shottake></shottake>
											<lognote></lognote>
											<good></good>
											<originalvideofilename></originalvideofilename>
											<originalaudiofilename></originalaudiofilename>
										</logginginfo>
										<colorinfo>
											<lut></lut>
											<lut1></lut1>
											<asc_sop></asc_sop>
											<asc_sat></asc_sat>
											<lut2></lut2>
										</colorinfo>
									</clipitem>
									<clipitem id="clipitem-409">
										<masterclipid>masterclip-179</masterclipid>
										<name># Eyecandy Vertical Video Frame 3</name>
										<enabled>TRUE</enabled>
										<duration>5700</duration>
										<rate>
											<timebase>30</timebase>
											<ntsc>TRUE</ntsc>
										</rate>
										<start>561</start>
										<end>1047</end>
										<in>674</in>
										<out>1160</out>
										<pproTicksIn>5712599692800</pproTicksIn>
										<pproTicksOut>9831773952000</pproTicksOut>
										<alphatype>straight</alphatype>
										<file id="file-177"/>
										<logginginfo>
											<description></description>
											<scene></scene>
											<shottake></shottake>
											<lognote></lognote>
											<good></good>
											<originalvideofilename></originalvideofilename>
											<originalaudiofilename></originalaudiofilename>
										</logginginfo>
										<colorinfo>
											<lut></lut>
											<lut1></lut1>
											<asc_sop></asc_sop>
											<asc_sat></asc_sat>
											<lut2></lut2>
										</colorinfo>
									</clipitem>
									<clipitem id="clipitem-410">
										<masterclipid>masterclip-179</masterclipid>
										<name># Eyecandy Vertical Video Frame 3</name>
										<enabled>TRUE</enabled>
										<duration>5700</duration>
										<rate>
											<timebase>30</timebase>
											<ntsc>TRUE</ntsc>
										</rate>
										<start>1047</start>
										<end>1620</end>
										<in>1160</in>
										<out>1733</out>
										<pproTicksIn>9831773952000</pproTicksIn>
										<pproTicksOut>14688331257600</pproTicksOut>
										<alphatype>straight</alphatype>
										<file id="file-177"/>
										<logginginfo>
											<description></description>
											<scene></scene>
											<shottake></shottake>
											<lognote></lognote>
											<good></good>
											<originalvideofilename></originalvideofilename>
											<originalaudiofilename></originalaudiofilename>
										</logginginfo>
										<colorinfo>
											<lut></lut>
											<lut1></lut1>
											<asc_sop></asc_sop>
											<asc_sat></asc_sat>
											<lut2></lut2>
										</colorinfo>
									</clipitem>
									<clipitem id="clipitem-411">
										<masterclipid>masterclip-179</masterclipid>
										<name># Eyecandy Vertical Video Frame 3</name>
										<enabled>TRUE</enabled>
										<duration>5700</duration>
										<rate>
											<timebase>30</timebase>
											<ntsc>TRUE</ntsc>
										</rate>
										<start>1620</start>
										<end>2115</end>
										<in>1733</in>
										<out>2228</out>
										<pproTicksIn>14688331257600</pproTicksIn>
										<pproTicksOut>18883786521600</pproTicksOut>
										<alphatype>straight</alphatype>
										<file id="file-177"/>
										<logginginfo>
											<description></description>
											<scene></scene>
											<shottake></shottake>
											<lognote></lognote>
											<good></good>
											<originalvideofilename></originalvideofilename>
											<originalaudiofilename></originalaudiofilename>
										</logginginfo>
										<colorinfo>
											<lut></lut>
											<lut1></lut1>
											<asc_sop></asc_sop>
											<asc_sat></asc_sat>
											<lut2></lut2>
										</colorinfo>
									</clipitem>
									<clipitem id="clipitem-412">
										<masterclipid>masterclip-179</masterclipid>
										<name># Eyecandy Vertical Video Frame 3</name>
										<enabled>TRUE</enabled>
										<duration>5700</duration>
										<rate>
											<timebase>30</timebase>
											<ntsc>TRUE</ntsc>
										</rate>
										<start>2115</start>
										<end>2714</end>
										<in>2228</in>
										<out>2827</out>
										<pproTicksIn>18883786521600</pproTicksIn>
										<pproTicksOut>23960711174400</pproTicksOut>
										<alphatype>straight</alphatype>
										<file id="file-177"/>
										<logginginfo>
											<description></description>
											<scene></scene>
											<shottake></shottake>
											<lognote></lognote>
											<good></good>
											<originalvideofilename></originalvideofilename>
											<originalaudiofilename></originalaudiofilename>
										</logginginfo>
										<colorinfo>
											<lut></lut>
											<lut1></lut1>
											<asc_sop></asc_sop>
											<asc_sat></asc_sat>
											<lut2></lut2>
										</colorinfo>
									</clipitem>
									<enabled>TRUE</enabled>
									<locked>FALSE</locked>
								</track>
								<track TL.SQTrackShy="0" TL.SQTrackExpandedHeight="25" TL.SQTrackExpanded="0" MZ.TrackTargeted="0">
									<enabled>TRUE</enabled>
									<locked>FALSE</locked>
								</track>
								<track TL.SQTrackShy="0" TL.SQTrackExpandedHeight="25" TL.SQTrackExpanded="0" MZ.TrackTargeted="0">
									<enabled>TRUE</enabled>
									<locked>FALSE</locked>
								</track>
								<track TL.SQTrackShy="0" TL.SQTrackExpandedHeight="25" TL.SQTrackExpanded="0" MZ.TrackTargeted="0">
									<enabled>TRUE</enabled>
									<locked>FALSE</locked>
								</track>
								<track TL.SQTrackShy="0" TL.SQTrackExpandedHeight="25" TL.SQTrackExpanded="0" MZ.TrackTargeted="0">
									<enabled>TRUE</enabled>
									<locked>FALSE</locked>
								</track>
								<track TL.SQTrackShy="0" TL.SQTrackExpandedHeight="25" TL.SQTrackExpanded="0" MZ.TrackTargeted="0">
									<enabled>TRUE</enabled>
									<locked>FALSE</locked>
								</track>
								<track TL.SQTrackShy="0" TL.SQTrackExpandedHeight="25" TL.SQTrackExpanded="0" MZ.TrackTargeted="0">
									<enabled>TRUE</enabled>
									<locked>FALSE</locked>
								</track>
								<track TL.SQTrackShy="0" TL.SQTrackExpandedHeight="25" TL.SQTrackExpanded="0" MZ.TrackTargeted="0">
									<enabled>TRUE</enabled>
									<locked>FALSE</locked>
								</track>
								<track TL.SQTrackShy="0" TL.SQTrackExpandedHeight="25" TL.SQTrackExpanded="0" MZ.TrackTargeted="0">
									<enabled>TRUE</enabled>
									<locked>FALSE</locked>
								</track>
							</video>
							<audio>
								<numOutputChannels>2</numOutputChannels>
								<format>
									<samplecharacteristics>
										<depth>16</depth>
										<samplerate>48000</samplerate>
									</samplecharacteristics>
								</format>
								<outputs>
									<group>
										<index>1</index>
										<numchannels>1</numchannels>
										<downmix>0</downmix>
										<channel>
											<index>1</index>
										</channel>
									</group>
									<group>
										<index>2</index>
										<numchannels>1</numchannels>
										<downmix>0</downmix>
										<channel>
											<index>2</index>
										</channel>
									</group>
								</outputs>
								<track TL.SQTrackAudioKeyframeStyle="0" TL.SQTrackShy="0" TL.SQTrackExpandedHeight="25" TL.SQTrackExpanded="0" MZ.TrackTargeted="1" PannerCurrentValue="0.5" PannerIsInverted="true" PannerStartKeyframe="-91445760000000000,0.5,0,0,0,0,0,0" PannerName="Balance" currentExplodedTrackIndex="0" totalExplodedTrackCount="2" premiereTrackType="Stereo">
									<transitionitem>
										<start>0</start>
										<end>30</end>
										<pproTicksIn>0</pproTicksIn>
										<pproTicksOut>254270016000</pproTicksOut>
										<alignment>start-black</alignment>
										<cutPointTicks>0</cutPointTicks>
										<rate>
											<timebase>30</timebase>
											<ntsc>TRUE</ntsc>
										</rate>
										<effect>
											<name>Cross Fade ( 0dB)</name>
											<effectid>KGAudioTransCrossFade0dB</effectid>
											<effecttype>transition</effecttype>
											<mediatype>audio</mediatype>
											<wipecode>0</wipecode>
											<wipeaccuracy>100</wipeaccuracy>
											<startratio>0</startratio>
											<endratio>1</endratio>
											<reverse>FALSE</reverse>
										</effect>
									</transitionitem>
									<clipitem id="clipitem-413" premiereChannelType="stereo">
										<masterclipid>masterclip-180</masterclipid>
										<name>ES_Chihuly - Heyson.mp3</name>
										<enabled>TRUE</enabled>
										<duration>6044</duration>
										<rate>
											<timebase>30</timebase>
											<ntsc>TRUE</ntsc>
										</rate>
										<start>-1</start>
										<end>2714</end>
										<in>409</in>
										<out>3123</out>
										<pproTicksIn>3466547884800</pproTicksIn>
										<pproTicksOut>26469508665600</pproTicksOut>
										<file id="file-178">
											<name>ES_Chihuly - Heyson.mp3</name>
											<pathurl>file://localhost/Volumes/ATM%201/EYE%20CANDY/8%3a21%3a23/5_Assets/Music/ES_Chihuly%20-%20Heyson.mp3</pathurl>
											<rate>
												<timebase>30</timebase>
												<ntsc>TRUE</ntsc>
											</rate>
											<duration>6044</duration>
											<timecode>
												<rate>
													<timebase>30</timebase>
													<ntsc>TRUE</ntsc>
												</rate>
												<string>00;00;00;00</string>
												<frame>0</frame>
												<displayformat>DF</displayformat>
											</timecode>
											<media>
												<audio>
													<samplecharacteristics>
														<depth>16</depth>
														<samplerate>48000</samplerate>
													</samplecharacteristics>
													<channelcount>2</channelcount>
												</audio>
											</media>
										</file>
										<sourcetrack>
											<mediatype>audio</mediatype>
											<trackindex>1</trackindex>
										</sourcetrack>
										<link>
											<linkclipref>clipitem-413</linkclipref>
											<mediatype>audio</mediatype>
											<trackindex>1</trackindex>
											<clipindex>2</clipindex>
											<groupindex>1</groupindex>
										</link>
										<link>
											<linkclipref>clipitem-414</linkclipref>
											<mediatype>audio</mediatype>
											<trackindex>2</trackindex>
											<clipindex>2</clipindex>
											<groupindex>1</groupindex>
										</link>
										<logginginfo>
											<description></description>
											<scene></scene>
											<shottake></shottake>
											<lognote></lognote>
											<good></good>
											<originalvideofilename></originalvideofilename>
											<originalaudiofilename></originalaudiofilename>
										</logginginfo>
										<colorinfo>
											<lut></lut>
											<lut1></lut1>
											<asc_sop></asc_sop>
											<asc_sat></asc_sat>
											<lut2></lut2>
										</colorinfo>
										<labels>
											<label2>Caribbean</label2>
										</labels>
									</clipitem>
									<enabled>TRUE</enabled>
									<locked>FALSE</locked>
									<filter>
										<effect>
											<name>Audio Levels</name>
											<effectid>audiolevels</effectid>
											<effectcategory>audiolevels</effectcategory>
											<effecttype>audiolevels</effecttype>
											<mediatype>audio</mediatype>
											<parameter authoringApp="PremierePro">
												<parameterid>level</parameterid>
												<name>Level</name>
												<valuemin>0</valuemin>
												<valuemax>3.98109</valuemax>
												<value>0.706272</value>
											</parameter>
										</effect>
									</filter>
									<outputchannelindex>1</outputchannelindex>
								</track>
								<track TL.SQTrackAudioKeyframeStyle="0" TL.SQTrackShy="0" TL.SQTrackExpandedHeight="25" TL.SQTrackExpanded="0" MZ.TrackTargeted="1" PannerCurrentValue="0.5" PannerIsInverted="true" PannerStartKeyframe="-91445760000000000,0.5,0,0,0,0,0,0" PannerName="Balance" currentExplodedTrackIndex="1" totalExplodedTrackCount="2" premiereTrackType="Stereo">
									<transitionitem>
										<start>0</start>
										<end>30</end>
										<pproTicksIn>0</pproTicksIn>
										<pproTicksOut>254270016000</pproTicksOut>
										<alignment>start-black</alignment>
										<cutPointTicks>0</cutPointTicks>
										<rate>
											<timebase>30</timebase>
											<ntsc>TRUE</ntsc>
										</rate>
										<effect>
											<name>Cross Fade ( 0dB)</name>
											<effectid>KGAudioTransCrossFade0dB</effectid>
											<effecttype>transition</effecttype>
											<mediatype>audio</mediatype>
											<wipecode>0</wipecode>
											<wipeaccuracy>100</wipeaccuracy>
											<startratio>0</startratio>
											<endratio>1</endratio>
											<reverse>FALSE</reverse>
										</effect>
									</transitionitem>
									<clipitem id="clipitem-414" premiereChannelType="stereo">
										<masterclipid>masterclip-180</masterclipid>
										<name>ES_Chihuly - Heyson.mp3</name>
										<enabled>TRUE</enabled>
										<duration>6044</duration>
										<rate>
											<timebase>30</timebase>
											<ntsc>TRUE</ntsc>
										</rate>
										<start>-1</start>
										<end>2714</end>
										<in>409</in>
										<out>3123</out>
										<pproTicksIn>3466547884800</pproTicksIn>
										<pproTicksOut>26469508665600</pproTicksOut>
										<file id="file-178"/>
										<sourcetrack>
											<mediatype>audio</mediatype>
											<trackindex>2</trackindex>
										</sourcetrack>
										<link>
											<linkclipref>clipitem-413</linkclipref>
											<mediatype>audio</mediatype>
											<trackindex>1</trackindex>
											<clipindex>2</clipindex>
											<groupindex>1</groupindex>
										</link>
										<link>
											<linkclipref>clipitem-414</linkclipref>
											<mediatype>audio</mediatype>
											<trackindex>2</trackindex>
											<clipindex>2</clipindex>
											<groupindex>1</groupindex>
										</link>
										<logginginfo>
											<description></description>
											<scene></scene>
											<shottake></shottake>
											<lognote></lognote>
											<good></good>
											<originalvideofilename></originalvideofilename>
											<originalaudiofilename></originalaudiofilename>
										</logginginfo>
										<colorinfo>
											<lut></lut>
											<lut1></lut1>
											<asc_sop></asc_sop>
											<asc_sat></asc_sat>
											<lut2></lut2>
										</colorinfo>
										<labels>
											<label2>Caribbean</label2>
										</labels>
									</clipitem>
									<enabled>TRUE</enabled>
									<locked>FALSE</locked>
									<filter>
										<effect>
											<name>Audio Levels</name>
											<effectid>audiolevels</effectid>
											<effectcategory>audiolevels</effectcategory>
											<effecttype>audiolevels</effecttype>
											<mediatype>audio</mediatype>
											<parameter authoringApp="PremierePro">
												<parameterid>level</parameterid>
												<name>Level</name>
												<valuemin>0</valuemin>
												<valuemax>3.98109</valuemax>
												<value>0.706272</value>
											</parameter>
										</effect>
									</filter>
									<outputchannelindex>2</outputchannelindex>
								</track>
								<track TL.SQTrackAudioKeyframeStyle="0" TL.SQTrackShy="0" TL.SQTrackExpandedHeight="25" TL.SQTrackExpanded="0" MZ.TrackTargeted="0" PannerCurrentValue="0.5" PannerIsInverted="true" PannerStartKeyframe="-91445760000000000,0.5,0,0,0,0,0,0" PannerName="Balance" currentExplodedTrackIndex="0" totalExplodedTrackCount="2" premiereTrackType="Stereo">
									<enabled>TRUE</enabled>
									<locked>FALSE</locked>
									<outputchannelindex>1</outputchannelindex>
								</track>
								<track TL.SQTrackAudioKeyframeStyle="0" TL.SQTrackShy="0" TL.SQTrackExpandedHeight="25" TL.SQTrackExpanded="0" MZ.TrackTargeted="0" PannerCurrentValue="0.5" PannerIsInverted="true" PannerStartKeyframe="-91445760000000000,0.5,0,0,0,0,0,0" PannerName="Balance" currentExplodedTrackIndex="1" totalExplodedTrackCount="2" premiereTrackType="Stereo">
									<enabled>TRUE</enabled>
									<locked>FALSE</locked>
									<outputchannelindex>2</outputchannelindex>
								</track>
								<track TL.SQTrackAudioKeyframeStyle="0" TL.SQTrackShy="0" TL.SQTrackExpandedHeight="25" TL.SQTrackExpanded="0" MZ.TrackTargeted="0" PannerCurrentValue="0.5" PannerIsInverted="true" PannerStartKeyframe="-91445760000000000,0.5,0,0,0,0,0,0" PannerName="Balance" currentExplodedTrackIndex="0" totalExplodedTrackCount="2" premiereTrackType="Stereo">
									<enabled>TRUE</enabled>
									<locked>FALSE</locked>
									<outputchannelindex>1</outputchannelindex>
								</track>
								<track TL.SQTrackAudioKeyframeStyle="0" TL.SQTrackShy="0" TL.SQTrackExpandedHeight="25" TL.SQTrackExpanded="0" MZ.TrackTargeted="0" PannerCurrentValue="0.5" PannerIsInverted="true" PannerStartKeyframe="-91445760000000000,0.5,0,0,0,0,0,0" PannerName="Balance" currentExplodedTrackIndex="1" totalExplodedTrackCount="2" premiereTrackType="Stereo">
									<enabled>TRUE</enabled>
									<locked>FALSE</locked>
									<outputchannelindex>2</outputchannelindex>
								</track>
								<track TL.SQTrackAudioKeyframeStyle="0" TL.SQTrackShy="0" TL.SQTrackExpandedHeight="25" TL.SQTrackExpanded="0" MZ.TrackTargeted="0" PannerCurrentValue="0.5" PannerIsInverted="true" PannerStartKeyframe="-91445760000000000,0.5,0,0,0,0,0,0" PannerName="Balance" currentExplodedTrackIndex="0" totalExplodedTrackCount="2" premiereTrackType="Stereo">
									<enabled>TRUE</enabled>
									<locked>FALSE</locked>
									<outputchannelindex>1</outputchannelindex>
								</track>
								<track TL.SQTrackAudioKeyframeStyle="0" TL.SQTrackShy="0" TL.SQTrackExpandedHeight="25" TL.SQTrackExpanded="0" MZ.TrackTargeted="0" PannerCurrentValue="0.5" PannerIsInverted="true" PannerStartKeyframe="-91445760000000000,0.5,0,0,0,0,0,0" PannerName="Balance" currentExplodedTrackIndex="1" totalExplodedTrackCount="2" premiereTrackType="Stereo">
									<enabled>TRUE</enabled>
									<locked>FALSE</locked>
									<outputchannelindex>2</outputchannelindex>
								</track>
								<track TL.SQTrackAudioKeyframeStyle="0" TL.SQTrackShy="0" TL.SQTrackExpandedHeight="25" TL.SQTrackExpanded="0" MZ.TrackTargeted="0" PannerCurrentValue="0.5" PannerIsInverted="true" PannerStartKeyframe="-91445760000000000,0.5,0,0,0,0,0,0" PannerName="Balance" currentExplodedTrackIndex="0" totalExplodedTrackCount="2" premiereTrackType="Stereo">
									<enabled>TRUE</enabled>
									<locked>FALSE</locked>
									<outputchannelindex>1</outputchannelindex>
								</track>
								<track TL.SQTrackAudioKeyframeStyle="0" TL.SQTrackShy="0" TL.SQTrackExpandedHeight="25" TL.SQTrackExpanded="0" MZ.TrackTargeted="0" PannerCurrentValue="0.5" PannerIsInverted="true" PannerStartKeyframe="-91445760000000000,0.5,0,0,0,0,0,0" PannerName="Balance" currentExplodedTrackIndex="1" totalExplodedTrackCount="2" premiereTrackType="Stereo">
									<enabled>TRUE</enabled>
									<locked>FALSE</locked>
									<outputchannelindex>2</outputchannelindex>
								</track>
								<track TL.SQTrackAudioKeyframeStyle="0" TL.SQTrackShy="0" TL.SQTrackExpandedHeight="25" TL.SQTrackExpanded="0" MZ.TrackTargeted="0" PannerCurrentValue="0.5" PannerIsInverted="true" PannerStartKeyframe="-91445760000000000,0.5,0,0,0,0,0,0" PannerName="Balance" currentExplodedTrackIndex="0" totalExplodedTrackCount="2" premiereTrackType="Stereo">
									<enabled>TRUE</enabled>
									<locked>FALSE</locked>
									<outputchannelindex>1</outputchannelindex>
								</track>
								<track TL.SQTrackAudioKeyframeStyle="0" TL.SQTrackShy="0" TL.SQTrackExpandedHeight="25" TL.SQTrackExpanded="0" MZ.TrackTargeted="0" PannerCurrentValue="0.5" PannerIsInverted="true" PannerStartKeyframe="-91445760000000000,0.5,0,0,0,0,0,0" PannerName="Balance" currentExplodedTrackIndex="1" totalExplodedTrackCount="2" premiereTrackType="Stereo">
									<enabled>TRUE</enabled>
									<locked>FALSE</locked>
									<outputchannelindex>2</outputchannelindex>
								</track>
								<track TL.SQTrackAudioKeyframeStyle="0" TL.SQTrackShy="0" TL.SQTrackExpandedHeight="25" TL.SQTrackExpanded="0" MZ.TrackTargeted="0" PannerCurrentValue="0.5" PannerIsInverted="true" PannerStartKeyframe="-91445760000000000,0.5,0,0,0,0,0,0" PannerName="Balance" currentExplodedTrackIndex="0" totalExplodedTrackCount="2" premiereTrackType="Stereo">
									<enabled>TRUE</enabled>
									<locked>FALSE</locked>
									<outputchannelindex>1</outputchannelindex>
								</track>
								<track TL.SQTrackAudioKeyframeStyle="0" TL.SQTrackShy="0" TL.SQTrackExpandedHeight="25" TL.SQTrackExpanded="0" MZ.TrackTargeted="0" PannerCurrentValue="0.5" PannerIsInverted="true" PannerStartKeyframe="-91445760000000000,0.5,0,0,0,0,0,0" PannerName="Balance" currentExplodedTrackIndex="1" totalExplodedTrackCount="2" premiereTrackType="Stereo">
									<enabled>TRUE</enabled>
									<locked>FALSE</locked>
									<outputchannelindex>2</outputchannelindex>
								</track>
								<track TL.SQTrackAudioKeyframeStyle="0" TL.SQTrackShy="0" TL.SQTrackExpandedHeight="25" TL.SQTrackExpanded="0" MZ.TrackTargeted="0" PannerCurrentValue="0.5" PannerIsInverted="true" PannerStartKeyframe="-91445760000000000,0.5,0,0,0,0,0,0" PannerName="Balance" currentExplodedTrackIndex="0" totalExplodedTrackCount="2" premiereTrackType="Stereo">
									<enabled>TRUE</enabled>
									<locked>FALSE</locked>
									<outputchannelindex>1</outputchannelindex>
								</track>
								<track TL.SQTrackAudioKeyframeStyle="0" TL.SQTrackShy="0" TL.SQTrackExpandedHeight="25" TL.SQTrackExpanded="0" MZ.TrackTargeted="0" PannerCurrentValue="0.5" PannerIsInverted="true" PannerStartKeyframe="-91445760000000000,0.5,0,0,0,0,0,0" PannerName="Balance" currentExplodedTrackIndex="1" totalExplodedTrackCount="2" premiereTrackType="Stereo">
									<enabled>TRUE</enabled>
									<locked>FALSE</locked>
									<outputchannelindex>2</outputchannelindex>
								</track>
								<track TL.SQTrackAudioKeyframeStyle="0" TL.SQTrackShy="0" TL.SQTrackExpandedHeight="25" TL.SQTrackExpanded="0" MZ.TrackTargeted="0" PannerCurrentValue="0.5" PannerIsInverted="true" PannerStartKeyframe="-91445760000000000,0.5,0,0,0,0,0,0" PannerName="Balance" currentExplodedTrackIndex="0" totalExplodedTrackCount="2" premiereTrackType="Stereo">
									<enabled>TRUE</enabled>
									<locked>FALSE</locked>
									<outputchannelindex>1</outputchannelindex>
								</track>
								<track TL.SQTrackAudioKeyframeStyle="0" TL.SQTrackShy="0" TL.SQTrackExpandedHeight="25" TL.SQTrackExpanded="0" MZ.TrackTargeted="0" PannerCurrentValue="0.5" PannerIsInverted="true" PannerStartKeyframe="-91445760000000000,0.5,0,0,0,0,0,0" PannerName="Balance" currentExplodedTrackIndex="1" totalExplodedTrackCount="2" premiereTrackType="Stereo">
									<enabled>TRUE</enabled>
									<locked>FALSE</locked>
									<outputchannelindex>2</outputchannelindex>
								</track>
								<track TL.SQTrackAudioKeyframeStyle="0" TL.SQTrackShy="0" TL.SQTrackExpandedHeight="25" TL.SQTrackExpanded="0" MZ.TrackTargeted="0" PannerCurrentValue="0.5" PannerIsInverted="true" PannerStartKeyframe="-91445760000000000,0.5,0,0,0,0,0,0" PannerName="Balance" currentExplodedTrackIndex="0" totalExplodedTrackCount="2" premiereTrackType="Stereo">
									<enabled>TRUE</enabled>
									<locked>FALSE</locked>
									<outputchannelindex>1</outputchannelindex>
								</track>
								<track TL.SQTrackAudioKeyframeStyle="0" TL.SQTrackShy="0" TL.SQTrackExpandedHeight="25" TL.SQTrackExpanded="0" MZ.TrackTargeted="0" PannerCurrentValue="0.5" PannerIsInverted="true" PannerStartKeyframe="-91445760000000000,0.5,0,0,0,0,0,0" PannerName="Balance" currentExplodedTrackIndex="1" totalExplodedTrackCount="2" premiereTrackType="Stereo">
									<enabled>TRUE</enabled>
									<locked>FALSE</locked>
									<outputchannelindex>2</outputchannelindex>
								</track>
							</audio>
						</media>
						<timecode>
							<rate>
								<timebase>30</timebase>
								<ntsc>TRUE</ntsc>
							</rate>
							<string>00;00;00;00</string>
							<frame>0</frame>
							<displayformat>DF</displayformat>
						</timecode>
						<labels>
							<label2>Forest</label2>
						</labels>
						<logginginfo>
							<description></description>
							<scene></scene>
							<shottake></shottake>
							<lognote></lognote>
							<good></good>
							<originalvideofilename></originalvideofilename>
							<originalaudiofilename></originalaudiofilename>
						</logginginfo>
					</sequence>
					<sequence id="sequence-8" TL.SQAudioVisibleBase="0" TL.SQVideoVisibleBase="0" TL.SQVisibleBaseTime="0" TL.SQAVDividerPosition="0.5" TL.SQHideShyTracks="0" TL.SQHeaderWidth="236" TL.SQDataTrackViewControlState="0" Monitor.ProgramZoomOut="15230773958400" Monitor.ProgramZoomIn="0" TL.SQTimePerPixel="0.090336800721352764" AM.TrackVScrollPosition="0" AM.TrackScrollPosition="0" MZ.EditLine="355978022400" MZ.Sequence.PreviewFrameSizeHeight="1080" MZ.Sequence.PreviewFrameSizeWidth="1920" MZ.Sequence.AudioTimeDisplayFormat="200" MZ.Sequence.PreviewRenderingClassID="1061109567" MZ.Sequence.PreviewRenderingPresetCodec="1634755443" MZ.Sequence.PreviewRenderingPresetPath="EncoderPresets/SequencePreview/35d109db-457b-43c1-9452-9cb7be9f121c/QuickTime.epr" MZ.Sequence.PreviewUseMaxRenderQuality="false" MZ.Sequence.PreviewUseMaxBitDepth="false" MZ.Sequence.EditingModeGUID="35d109db-457b-43c1-9452-9cb7be9f121c" MZ.Sequence.VideoTimeDisplayFormat="102" MZ.WorkOutPoint="1262874412800" MZ.WorkInPoint="0" explodedTracks="true">
						<uuid>3cf9d49e-5828-4b10-af09-02ca22256231</uuid>
						<duration>1797</duration>
						<rate>
							<timebase>30</timebase>
							<ntsc>TRUE</ntsc>
						</rate>
						<name>FND_Cherry Picked_1</name>
						<media>
							<video>
								<format>
									<samplecharacteristics>
										<rate>
											<timebase>30</timebase>
											<ntsc>TRUE</ntsc>
										</rate>
										<codec>
											<name>Apple ProRes 422</name>
											<appspecificdata>
												<appname>Final Cut Pro</appname>
												<appmanufacturer>Apple Inc.</appmanufacturer>
												<appversion>7.0</appversion>
												<data>
													<qtcodec>
														<codecname>Apple ProRes 422</codecname>
														<codectypename>Apple ProRes 422</codectypename>
														<codectypecode>apcn</codectypecode>
														<codecvendorcode>appl</codecvendorcode>
														<spatialquality>1024</spatialquality>
														<temporalquality>0</temporalquality>
														<keyframerate>0</keyframerate>
														<datarate>0</datarate>
													</qtcodec>
												</data>
											</appspecificdata>
										</codec>
										<width>1920</width>
										<height>1080</height>
										<anamorphic>FALSE</anamorphic>
										<pixelaspectratio>square</pixelaspectratio>
										<fielddominance>none</fielddominance>
										<colordepth>24</colordepth>
									</samplecharacteristics>
								</format>
								<track TL.SQTrackShy="0" TL.SQTrackExpandedHeight="25" TL.SQTrackExpanded="0" MZ.TrackTargeted="1">
									<clipitem id="clipitem-415">
										<masterclipid>masterclip-46</masterclipid>
										<name>517330_Cherrys Trees Leaves Branches_By_Igor_Tichonow_Artlist_HD.mp4</name>
										<enabled>TRUE</enabled>
										<duration>361</duration>
										<rate>
											<timebase>30</timebase>
											<ntsc>TRUE</ntsc>
										</rate>
										<start>0</start>
										<end>114</end>
										<in>0</in>
										<out>114</out>
										<pproTicksIn>0</pproTicksIn>
										<pproTicksOut>966226060800</pproTicksOut>
										<alphatype>none</alphatype>
										<file id="file-46"/>
										<filter>
											<effect>
												<name>Distort</name>
												<effectid>deformation</effectid>
												<effectcategory>motion</effectcategory>
												<effecttype>motion</effecttype>
												<mediatype>video</mediatype>
												<parameter authoringApp="PremierePro">
													<parameterid>aspect</parameterid>
													<name>Aspect</name>
													<valuemin>-10000</valuemin>
													<valuemax>10000</valuemax>
													<value>-9.40171</value>
												</parameter>
											</effect>
										</filter>
										<filter>
											<effect>
												<name>Basic Motion</name>
												<effectid>basic</effectid>
												<effectcategory>motion</effectcategory>
												<effecttype>motion</effecttype>
												<mediatype>video</mediatype>
												<parameter authoringApp="PremierePro">
													<parameterid>scale</parameterid>
													<name>Scale</name>
													<value>109.402</value>
												</parameter>
											</effect>
										</filter>
										<logginginfo>
											<description></description>
											<scene></scene>
											<shottake></shottake>
											<lognote></lognote>
											<good></good>
											<originalvideofilename></originalvideofilename>
											<originalaudiofilename></originalaudiofilename>
										</logginginfo>
										<colorinfo>
											<lut></lut>
											<lut1></lut1>
											<asc_sop></asc_sop>
											<asc_sat></asc_sat>
											<lut2></lut2>
										</colorinfo>
									</clipitem>
									<clipitem id="clipitem-416">
										<masterclipid>masterclip-45</masterclipid>
										<name>517328_Cherrys Leaves Branches_By_Igor_Tichonow_Artlist_HD.mp4</name>
										<enabled>TRUE</enabled>
										<duration>282</duration>
										<rate>
											<timebase>30</timebase>
											<ntsc>TRUE</ntsc>
										</rate>
										<start>114</start>
										<end>235</end>
										<in>0</in>
										<out>121</out>
										<pproTicksIn>0</pproTicksIn>
										<pproTicksOut>1025555731200</pproTicksOut>
										<alphatype>none</alphatype>
										<file id="file-45"/>
										<filter>
											<effect>
												<name>Distort</name>
												<effectid>deformation</effectid>
												<effectcategory>motion</effectcategory>
												<effecttype>motion</effecttype>
												<mediatype>video</mediatype>
												<parameter authoringApp="PremierePro">
													<parameterid>aspect</parameterid>
													<name>Aspect</name>
													<valuemin>-10000</valuemin>
													<valuemax>10000</valuemax>
													<value>-9.40171</value>
												</parameter>
											</effect>
										</filter>
										<filter>
											<effect>
												<name>Basic Motion</name>
												<effectid>basic</effectid>
												<effectcategory>motion</effectcategory>
												<effecttype>motion</effecttype>
												<mediatype>video</mediatype>
												<parameter authoringApp="PremierePro">
													<parameterid>scale</parameterid>
													<name>Scale</name>
													<value>109.402</value>
												</parameter>
											</effect>
										</filter>
										<logginginfo>
											<description></description>
											<scene></scene>
											<shottake></shottake>
											<lognote></lognote>
											<good></good>
											<originalvideofilename></originalvideofilename>
											<originalaudiofilename></originalaudiofilename>
										</logginginfo>
										<colorinfo>
											<lut></lut>
											<lut1></lut1>
											<asc_sop></asc_sop>
											<asc_sat></asc_sat>
											<lut2></lut2>
										</colorinfo>
									</clipitem>
									<clipitem id="clipitem-417">
										<masterclipid>masterclip-44</masterclipid>
										<name>517327_Cherrys Leaves Branches_By_Igor_Tichonow_Artlist_HD.mp4</name>
										<enabled>TRUE</enabled>
										<duration>321</duration>
										<rate>
											<timebase>30</timebase>
											<ntsc>TRUE</ntsc>
										</rate>
										<start>235</start>
										<end>358</end>
										<in>0</in>
										<out>123</out>
										<pproTicksIn>0</pproTicksIn>
										<pproTicksOut>1042507065600</pproTicksOut>
										<alphatype>none</alphatype>
										<file id="file-44"/>
										<filter>
											<effect>
												<name>Distort</name>
												<effectid>deformation</effectid>
												<effectcategory>motion</effectcategory>
												<effecttype>motion</effecttype>
												<mediatype>video</mediatype>
												<parameter authoringApp="PremierePro">
													<parameterid>aspect</parameterid>
													<name>Aspect</name>
													<valuemin>-10000</valuemin>
													<valuemax>10000</valuemax>
													<value>-9.40171</value>
												</parameter>
											</effect>
										</filter>
										<filter>
											<effect>
												<name>Basic Motion</name>
												<effectid>basic</effectid>
												<effectcategory>motion</effectcategory>
												<effecttype>motion</effecttype>
												<mediatype>video</mediatype>
												<parameter authoringApp="PremierePro">
													<parameterid>scale</parameterid>
													<name>Scale</name>
													<value>109.402</value>
												</parameter>
											</effect>
										</filter>
										<logginginfo>
											<description></description>
											<scene></scene>
											<shottake></shottake>
											<lognote></lognote>
											<good></good>
											<originalvideofilename></originalvideofilename>
											<originalaudiofilename></originalaudiofilename>
										</logginginfo>
										<colorinfo>
											<lut></lut>
											<lut1></lut1>
											<asc_sop></asc_sop>
											<asc_sat></asc_sat>
											<lut2></lut2>
										</colorinfo>
									</clipitem>
									<clipitem id="clipitem-418">
										<masterclipid>masterclip-42</masterclipid>
										<name>517324_Cherrys Leaves Branches_By_Igor_Tichonow_Artlist_HD.mp4</name>
										<enabled>TRUE</enabled>
										<duration>323</duration>
										<rate>
											<timebase>30</timebase>
											<ntsc>TRUE</ntsc>
										</rate>
										<start>358</start>
										<end>484</end>
										<in>0</in>
										<out>126</out>
										<pproTicksIn>0</pproTicksIn>
										<pproTicksOut>1067934067200</pproTicksOut>
										<alphatype>none</alphatype>
										<file id="file-42"/>
										<filter>
											<effect>
												<name>Distort</name>
												<effectid>deformation</effectid>
												<effectcategory>motion</effectcategory>
												<effecttype>motion</effecttype>
												<mediatype>video</mediatype>
												<parameter authoringApp="PremierePro">
													<parameterid>aspect</parameterid>
													<name>Aspect</name>
													<valuemin>-10000</valuemin>
													<valuemax>10000</valuemax>
													<value>-9.40171</value>
												</parameter>
											</effect>
										</filter>
										<filter>
											<effect>
												<name>Basic Motion</name>
												<effectid>basic</effectid>
												<effectcategory>motion</effectcategory>
												<effecttype>motion</effecttype>
												<mediatype>video</mediatype>
												<parameter authoringApp="PremierePro">
													<parameterid>scale</parameterid>
													<name>Scale</name>
													<value>109.402</value>
												</parameter>
											</effect>
										</filter>
										<logginginfo>
											<description></description>
											<scene></scene>
											<shottake></shottake>
											<lognote></lognote>
											<good></good>
											<originalvideofilename></originalvideofilename>
											<originalaudiofilename></originalaudiofilename>
										</logginginfo>
										<colorinfo>
											<lut></lut>
											<lut1></lut1>
											<asc_sop></asc_sop>
											<asc_sat></asc_sat>
											<lut2></lut2>
										</colorinfo>
									</clipitem>
									<clipitem id="clipitem-419">
										<masterclipid>masterclip-43</masterclipid>
										<name>517325_Cherrys Leaves Branches_By_Igor_Tichonow_Artlist_HD.mp4</name>
										<enabled>TRUE</enabled>
										<duration>323</duration>
										<rate>
											<timebase>30</timebase>
											<ntsc>TRUE</ntsc>
										</rate>
										<start>484</start>
										<end>632</end>
										<in>0</in>
										<out>148</out>
										<pproTicksIn>0</pproTicksIn>
										<pproTicksOut>1254398745600</pproTicksOut>
										<alphatype>none</alphatype>
										<file id="file-43"/>
										<filter>
											<effect>
												<name>Distort</name>
												<effectid>deformation</effectid>
												<effectcategory>motion</effectcategory>
												<effecttype>motion</effecttype>
												<mediatype>video</mediatype>
												<parameter authoringApp="PremierePro">
													<parameterid>aspect</parameterid>
													<name>Aspect</name>
													<valuemin>-10000</valuemin>
													<valuemax>10000</valuemax>
													<value>-9.40171</value>
												</parameter>
											</effect>
										</filter>
										<filter>
											<effect>
												<name>Basic Motion</name>
												<effectid>basic</effectid>
												<effectcategory>motion</effectcategory>
												<effecttype>motion</effecttype>
												<mediatype>video</mediatype>
												<parameter authoringApp="PremierePro">
													<parameterid>scale</parameterid>
													<name>Scale</name>
													<value>109.402</value>
												</parameter>
											</effect>
										</filter>
										<logginginfo>
											<description></description>
											<scene></scene>
											<shottake></shottake>
											<lognote></lognote>
											<good></good>
											<originalvideofilename></originalvideofilename>
											<originalaudiofilename></originalaudiofilename>
										</logginginfo>
										<colorinfo>
											<lut></lut>
											<lut1></lut1>
											<asc_sop></asc_sop>
											<asc_sat></asc_sat>
											<lut2></lut2>
										</colorinfo>
									</clipitem>
									<clipitem id="clipitem-420">
										<masterclipid>masterclip-41</masterclipid>
										<name>517323_Cherrys Leaves Branches_By_Igor_Tichonow_Artlist_HD.mp4</name>
										<enabled>TRUE</enabled>
										<duration>443</duration>
										<rate>
											<timebase>30</timebase>
											<ntsc>TRUE</ntsc>
										</rate>
										<start>632</start>
										<end>748</end>
										<in>0</in>
										<out>116</out>
										<pproTicksIn>0</pproTicksIn>
										<pproTicksOut>983177395200</pproTicksOut>
										<alphatype>none</alphatype>
										<file id="file-41"/>
										<filter>
											<effect>
												<name>Distort</name>
												<effectid>deformation</effectid>
												<effectcategory>motion</effectcategory>
												<effecttype>motion</effecttype>
												<mediatype>video</mediatype>
												<parameter authoringApp="PremierePro">
													<parameterid>aspect</parameterid>
													<name>Aspect</name>
													<valuemin>-10000</valuemin>
													<valuemax>10000</valuemax>
													<value>-9.40171</value>
												</parameter>
											</effect>
										</filter>
										<filter>
											<effect>
												<name>Basic Motion</name>
												<effectid>basic</effectid>
												<effectcategory>motion</effectcategory>
												<effecttype>motion</effecttype>
												<mediatype>video</mediatype>
												<parameter authoringApp="PremierePro">
													<parameterid>scale</parameterid>
													<name>Scale</name>
													<value>109.402</value>
												</parameter>
											</effect>
										</filter>
										<logginginfo>
											<description></description>
											<scene></scene>
											<shottake></shottake>
											<lognote></lognote>
											<good></good>
											<originalvideofilename></originalvideofilename>
											<originalaudiofilename></originalaudiofilename>
										</logginginfo>
										<colorinfo>
											<lut></lut>
											<lut1></lut1>
											<asc_sop></asc_sop>
											<asc_sat></asc_sat>
											<lut2></lut2>
										</colorinfo>
									</clipitem>
									<clipitem id="clipitem-421">
										<masterclipid>masterclip-36</masterclipid>
										<name>517289_Cherrys Leaves Branches Green_By_Igor_Tichonow_Artlist_HD.mp4</name>
										<enabled>TRUE</enabled>
										<duration>286</duration>
										<rate>
											<timebase>30</timebase>
											<ntsc>TRUE</ntsc>
										</rate>
										<start>748</start>
										<end>856</end>
										<in>0</in>
										<out>108</out>
										<pproTicksIn>0</pproTicksIn>
										<pproTicksOut>915372057600</pproTicksOut>
										<alphatype>none</alphatype>
										<file id="file-36"/>
										<filter>
											<effect>
												<name>Distort</name>
												<effectid>deformation</effectid>
												<effectcategory>motion</effectcategory>
												<effecttype>motion</effecttype>
												<mediatype>video</mediatype>
												<parameter authoringApp="PremierePro">
													<parameterid>aspect</parameterid>
													<name>Aspect</name>
													<valuemin>-10000</valuemin>
													<valuemax>10000</valuemax>
													<value>-9.40171</value>
												</parameter>
											</effect>
										</filter>
										<filter>
											<effect>
												<name>Basic Motion</name>
												<effectid>basic</effectid>
												<effectcategory>motion</effectcategory>
												<effecttype>motion</effecttype>
												<mediatype>video</mediatype>
												<parameter authoringApp="PremierePro">
													<parameterid>scale</parameterid>
													<name>Scale</name>
													<value>109.402</value>
												</parameter>
											</effect>
										</filter>
										<logginginfo>
											<description></description>
											<scene></scene>
											<shottake></shottake>
											<lognote></lognote>
											<good></good>
											<originalvideofilename></originalvideofilename>
											<originalaudiofilename></originalaudiofilename>
										</logginginfo>
										<colorinfo>
											<lut></lut>
											<lut1></lut1>
											<asc_sop></asc_sop>
											<asc_sat></asc_sat>
											<lut2></lut2>
										</colorinfo>
									</clipitem>
									<clipitem id="clipitem-422">
										<masterclipid>masterclip-40</masterclipid>
										<name>517322_Cherrys Leaves Branches_By_Igor_Tichonow_Artlist_HD.mp4</name>
										<enabled>TRUE</enabled>
										<duration>229</duration>
										<rate>
											<timebase>30</timebase>
											<ntsc>TRUE</ntsc>
										</rate>
										<start>856</start>
										<end>997</end>
										<in>0</in>
										<out>141</out>
										<pproTicksIn>0</pproTicksIn>
										<pproTicksOut>1195069075200</pproTicksOut>
										<alphatype>none</alphatype>
										<file id="file-40"/>
										<filter>
											<effect>
												<name>Distort</name>
												<effectid>deformation</effectid>
												<effectcategory>motion</effectcategory>
												<effecttype>motion</effecttype>
												<mediatype>video</mediatype>
												<parameter authoringApp="PremierePro">
													<parameterid>aspect</parameterid>
													<name>Aspect</name>
													<valuemin>-10000</valuemin>
													<valuemax>10000</valuemax>
													<value>-9.40171</value>
												</parameter>
											</effect>
										</filter>
										<filter>
											<effect>
												<name>Basic Motion</name>
												<effectid>basic</effectid>
												<effectcategory>motion</effectcategory>
												<effecttype>motion</effecttype>
												<mediatype>video</mediatype>
												<parameter authoringApp="PremierePro">
													<parameterid>scale</parameterid>
													<name>Scale</name>
													<value>109.402</value>
												</parameter>
											</effect>
										</filter>
										<logginginfo>
											<description></description>
											<scene></scene>
											<shottake></shottake>
											<lognote></lognote>
											<good></good>
											<originalvideofilename></originalvideofilename>
											<originalaudiofilename></originalaudiofilename>
										</logginginfo>
										<colorinfo>
											<lut></lut>
											<lut1></lut1>
											<asc_sop></asc_sop>
											<asc_sat></asc_sat>
											<lut2></lut2>
										</colorinfo>
									</clipitem>
									<clipitem id="clipitem-423">
										<masterclipid>masterclip-34</masterclipid>
										<name>517281_Leaves Cherrys Branch_By_Igor_Tichonow_Artlist_HD.mp4</name>
										<enabled>TRUE</enabled>
										<duration>197</duration>
										<rate>
											<timebase>30</timebase>
											<ntsc>TRUE</ntsc>
										</rate>
										<start>997</start>
										<end>1127</end>
										<in>0</in>
										<out>130</out>
										<pproTicksIn>0</pproTicksIn>
										<pproTicksOut>1101836736000</pproTicksOut>
										<alphatype>none</alphatype>
										<file id="file-34"/>
										<filter>
											<effect>
												<name>Distort</name>
												<effectid>deformation</effectid>
												<effectcategory>motion</effectcategory>
												<effecttype>motion</effecttype>
												<mediatype>video</mediatype>
												<parameter authoringApp="PremierePro">
													<parameterid>aspect</parameterid>
													<name>Aspect</name>
													<valuemin>-10000</valuemin>
													<valuemax>10000</valuemax>
													<value>-9.40171</value>
												</parameter>
											</effect>
										</filter>
										<filter>
											<effect>
												<name>Basic Motion</name>
												<effectid>basic</effectid>
												<effectcategory>motion</effectcategory>
												<effecttype>motion</effecttype>
												<mediatype>video</mediatype>
												<parameter authoringApp="PremierePro">
													<parameterid>scale</parameterid>
													<name>Scale</name>
													<value>109.402</value>
												</parameter>
											</effect>
										</filter>
										<logginginfo>
											<description></description>
											<scene></scene>
											<shottake></shottake>
											<lognote></lognote>
											<good></good>
											<originalvideofilename></originalvideofilename>
											<originalaudiofilename></originalaudiofilename>
										</logginginfo>
										<colorinfo>
											<lut></lut>
											<lut1></lut1>
											<asc_sop></asc_sop>
											<asc_sat></asc_sat>
											<lut2></lut2>
										</colorinfo>
									</clipitem>
									<clipitem id="clipitem-424">
										<masterclipid>masterclip-37</masterclipid>
										<name>517290_Cherrys Leaves Branches Green_By_Igor_Tichonow_Artlist_HD.mp4</name>
										<enabled>TRUE</enabled>
										<duration>427</duration>
										<rate>
											<timebase>30</timebase>
											<ntsc>TRUE</ntsc>
										</rate>
										<start>1127</start>
										<end>1220</end>
										<in>160</in>
										<out>253</out>
										<pproTicksIn>1356106752000</pproTicksIn>
										<pproTicksOut>2144343801600</pproTicksOut>
										<alphatype>none</alphatype>
										<file id="file-37"/>
										<filter>
											<effect>
												<name>Distort</name>
												<effectid>deformation</effectid>
												<effectcategory>motion</effectcategory>
												<effecttype>motion</effecttype>
												<mediatype>video</mediatype>
												<parameter authoringApp="PremierePro">
													<parameterid>aspect</parameterid>
													<name>Aspect</name>
													<valuemin>-10000</valuemin>
													<valuemax>10000</valuemax>
													<value>-9.40171</value>
												</parameter>
											</effect>
										</filter>
										<filter>
											<effect>
												<name>Basic Motion</name>
												<effectid>basic</effectid>
												<effectcategory>motion</effectcategory>
												<effecttype>motion</effecttype>
												<mediatype>video</mediatype>
												<parameter authoringApp="PremierePro">
													<parameterid>scale</parameterid>
													<name>Scale</name>
													<value>109.402</value>
												</parameter>
											</effect>
										</filter>
										<logginginfo>
											<description></description>
											<scene></scene>
											<shottake></shottake>
											<lognote></lognote>
											<good></good>
											<originalvideofilename></originalvideofilename>
											<originalaudiofilename></originalaudiofilename>
										</logginginfo>
										<colorinfo>
											<lut></lut>
											<lut1></lut1>
											<asc_sop></asc_sop>
											<asc_sat></asc_sat>
											<lut2></lut2>
										</colorinfo>
									</clipitem>
									<clipitem id="clipitem-425">
										<masterclipid>masterclip-39</masterclipid>
										<name>517297_Hand Harvesting Cherrys Leaves_By_Igor_Tichonow_Artlist_HD.mp4</name>
										<enabled>TRUE</enabled>
										<duration>354</duration>
										<rate>
											<timebase>30</timebase>
											<ntsc>TRUE</ntsc>
										</rate>
										<start>1220</start>
										<end>1387</end>
										<in>0</in>
										<out>167</out>
										<pproTicksIn>0</pproTicksIn>
										<pproTicksOut>1415436422400</pproTicksOut>
										<alphatype>none</alphatype>
										<file id="file-39"/>
										<filter>
											<effect>
												<name>Distort</name>
												<effectid>deformation</effectid>
												<effectcategory>motion</effectcategory>
												<effecttype>motion</effecttype>
												<mediatype>video</mediatype>
												<parameter authoringApp="PremierePro">
													<parameterid>aspect</parameterid>
													<name>Aspect</name>
													<valuemin>-10000</valuemin>
													<valuemax>10000</valuemax>
													<value>-9.40171</value>
												</parameter>
											</effect>
										</filter>
										<filter>
											<effect>
												<name>Basic Motion</name>
												<effectid>basic</effectid>
												<effectcategory>motion</effectcategory>
												<effecttype>motion</effecttype>
												<mediatype>video</mediatype>
												<parameter authoringApp="PremierePro">
													<parameterid>scale</parameterid>
													<name>Scale</name>
													<value>109.402</value>
												</parameter>
											</effect>
										</filter>
										<logginginfo>
											<description></description>
											<scene></scene>
											<shottake></shottake>
											<lognote></lognote>
											<good></good>
											<originalvideofilename></originalvideofilename>
											<originalaudiofilename></originalaudiofilename>
										</logginginfo>
										<colorinfo>
											<lut></lut>
											<lut1></lut1>
											<asc_sop></asc_sop>
											<asc_sat></asc_sat>
											<lut2></lut2>
										</colorinfo>
									</clipitem>
									<clipitem id="clipitem-426">
										<masterclipid>masterclip-35</masterclipid>
										<name>517284_Basket Hands Harvesting Cherrys_By_Igor_Tichonow_Artlist_HD.mp4</name>
										<enabled>TRUE</enabled>
										<duration>486</duration>
										<rate>
											<timebase>30</timebase>
											<ntsc>TRUE</ntsc>
										</rate>
										<start>1387</start>
										<end>1627</end>
										<in>93</in>
										<out>333</out>
										<pproTicksIn>788237049600</pproTicksIn>
										<pproTicksOut>2822397177600</pproTicksOut>
										<alphatype>none</alphatype>
										<file id="file-35"/>
										<filter>
											<effect>
												<name>Distort</name>
												<effectid>deformation</effectid>
												<effectcategory>motion</effectcategory>
												<effecttype>motion</effecttype>
												<mediatype>video</mediatype>
												<parameter authoringApp="PremierePro">
													<parameterid>aspect</parameterid>
													<name>Aspect</name>
													<valuemin>-10000</valuemin>
													<valuemax>10000</valuemax>
													<value>-9.40171</value>
												</parameter>
											</effect>
										</filter>
										<filter>
											<effect>
												<name>Basic Motion</name>
												<effectid>basic</effectid>
												<effectcategory>motion</effectcategory>
												<effecttype>motion</effecttype>
												<mediatype>video</mediatype>
												<parameter authoringApp="PremierePro">
													<parameterid>scale</parameterid>
													<name>Scale</name>
													<value>109.402</value>
												</parameter>
											</effect>
										</filter>
										<logginginfo>
											<description></description>
											<scene></scene>
											<shottake></shottake>
											<lognote></lognote>
											<good></good>
											<originalvideofilename></originalvideofilename>
											<originalaudiofilename></originalaudiofilename>
										</logginginfo>
										<colorinfo>
											<lut></lut>
											<lut1></lut1>
											<asc_sop></asc_sop>
											<asc_sat></asc_sat>
											<lut2></lut2>
										</colorinfo>
									</clipitem>
									<clipitem id="clipitem-427">
										<masterclipid>masterclip-38</masterclipid>
										<name>517296_Basket Cherrys Grass People_By_Igor_Tichonow_Artlist_HD.mp4</name>
										<enabled>TRUE</enabled>
										<duration>306</duration>
										<rate>
											<timebase>30</timebase>
											<ntsc>TRUE</ntsc>
										</rate>
										<start>1627</start>
										<end>1797</end>
										<in>90</in>
										<out>260</out>
										<pproTicksIn>762810048000</pproTicksIn>
										<pproTicksOut>2203673472000</pproTicksOut>
										<alphatype>none</alphatype>
										<file id="file-38"/>
										<filter>
											<effect>
												<name>Distort</name>
												<effectid>deformation</effectid>
												<effectcategory>motion</effectcategory>
												<effecttype>motion</effecttype>
												<mediatype>video</mediatype>
												<parameter authoringApp="PremierePro">
													<parameterid>aspect</parameterid>
													<name>Aspect</name>
													<valuemin>-10000</valuemin>
													<valuemax>10000</valuemax>
													<value>-9.40171</value>
												</parameter>
											</effect>
										</filter>
										<filter>
											<effect>
												<name>Basic Motion</name>
												<effectid>basic</effectid>
												<effectcategory>motion</effectcategory>
												<effecttype>motion</effecttype>
												<mediatype>video</mediatype>
												<parameter authoringApp="PremierePro">
													<parameterid>scale</parameterid>
													<name>Scale</name>
													<value>109.402</value>
												</parameter>
											</effect>
										</filter>
										<logginginfo>
											<description></description>
											<scene></scene>
											<shottake></shottake>
											<lognote></lognote>
											<good></good>
											<originalvideofilename></originalvideofilename>
											<originalaudiofilename></originalaudiofilename>
										</logginginfo>
										<colorinfo>
											<lut></lut>
											<lut1></lut1>
											<asc_sop></asc_sop>
											<asc_sat></asc_sat>
											<lut2></lut2>
										</colorinfo>
									</clipitem>
									<enabled>TRUE</enabled>
									<locked>FALSE</locked>
								</track>
								<track TL.SQTrackShy="0" TL.SQTrackExpandedHeight="25" TL.SQTrackExpanded="0" MZ.TrackTargeted="0">
									<enabled>TRUE</enabled>
									<locked>FALSE</locked>
								</track>
								<track TL.SQTrackShy="0" TL.SQTrackExpandedHeight="25" TL.SQTrackExpanded="0" MZ.TrackTargeted="0">
									<enabled>TRUE</enabled>
									<locked>FALSE</locked>
								</track>
								<track TL.SQTrackShy="0" TL.SQTrackExpandedHeight="25" TL.SQTrackExpanded="0" MZ.TrackTargeted="0">
									<enabled>TRUE</enabled>
									<locked>FALSE</locked>
								</track>
								<track TL.SQTrackShy="0" TL.SQTrackExpandedHeight="25" TL.SQTrackExpanded="0" MZ.TrackTargeted="0">
									<enabled>TRUE</enabled>
									<locked>FALSE</locked>
								</track>
								<track TL.SQTrackShy="0" TL.SQTrackExpandedHeight="25" TL.SQTrackExpanded="0" MZ.TrackTargeted="0">
									<enabled>TRUE</enabled>
									<locked>FALSE</locked>
								</track>
								<track TL.SQTrackShy="0" TL.SQTrackExpandedHeight="25" TL.SQTrackExpanded="0" MZ.TrackTargeted="0">
									<enabled>TRUE</enabled>
									<locked>FALSE</locked>
								</track>
								<track TL.SQTrackShy="0" TL.SQTrackExpandedHeight="25" TL.SQTrackExpanded="0" MZ.TrackTargeted="0">
									<enabled>TRUE</enabled>
									<locked>FALSE</locked>
								</track>
								<track TL.SQTrackShy="0" TL.SQTrackExpandedHeight="25" TL.SQTrackExpanded="0" MZ.TrackTargeted="0">
									<enabled>TRUE</enabled>
									<locked>FALSE</locked>
								</track>
								<track TL.SQTrackShy="0" TL.SQTrackExpandedHeight="25" TL.SQTrackExpanded="0" MZ.TrackTargeted="0">
									<enabled>TRUE</enabled>
									<locked>FALSE</locked>
								</track>
							</video>
							<audio>
								<numOutputChannels>2</numOutputChannels>
								<format>
									<samplecharacteristics>
										<depth>16</depth>
										<samplerate>48000</samplerate>
									</samplecharacteristics>
								</format>
								<outputs>
									<group>
										<index>1</index>
										<numchannels>1</numchannels>
										<downmix>0</downmix>
										<channel>
											<index>1</index>
										</channel>
									</group>
									<group>
										<index>2</index>
										<numchannels>1</numchannels>
										<downmix>0</downmix>
										<channel>
											<index>2</index>
										</channel>
									</group>
								</outputs>
								<track TL.SQTrackAudioKeyframeStyle="0" TL.SQTrackShy="0" TL.SQTrackExpandedHeight="25" TL.SQTrackExpanded="0" MZ.TrackTargeted="1" PannerCurrentValue="0.5" PannerIsInverted="true" PannerStartKeyframe="-91445760000000000,0.5,0,0,0,0,0,0" PannerName="Balance" currentExplodedTrackIndex="0" totalExplodedTrackCount="2" premiereTrackType="Stereo">
									<clipitem id="clipitem-428" premiereChannelType="stereo">
										<masterclipid>masterclip-181</masterclipid>
										<name>ES_Lonely Morning - Sven Lindvall.mp3</name>
										<enabled>TRUE</enabled>
										<duration>8973</duration>
										<rate>
											<timebase>30</timebase>
											<ntsc>TRUE</ntsc>
										</rate>
										<start>0</start>
										<end>1797</end>
										<in>0</in>
										<out>1797</out>
										<pproTicksIn>0</pproTicksIn>
										<pproTicksOut>15230773958400</pproTicksOut>
										<file id="file-179">
											<name>ES_Lonely Morning - Sven Lindvall.mp3</name>
											<pathurl>file://localhost/Volumes/ATM%201/EYE%20CANDY/8%3a21%3a23/5_Assets/Music/ES_Lonely%20Morning%20-%20Sven%20Lindvall.mp3</pathurl>
											<rate>
												<timebase>30</timebase>
												<ntsc>TRUE</ntsc>
											</rate>
											<duration>8973</duration>
											<timecode>
												<rate>
													<timebase>30</timebase>
													<ntsc>TRUE</ntsc>
												</rate>
												<string>00;00;00;00</string>
												<frame>0</frame>
												<displayformat>DF</displayformat>
											</timecode>
											<media>
												<audio>
													<samplecharacteristics>
														<depth>16</depth>
														<samplerate>48000</samplerate>
													</samplecharacteristics>
													<channelcount>2</channelcount>
												</audio>
											</media>
										</file>
										<sourcetrack>
											<mediatype>audio</mediatype>
											<trackindex>1</trackindex>
										</sourcetrack>
										<link>
											<linkclipref>clipitem-428</linkclipref>
											<mediatype>audio</mediatype>
											<trackindex>1</trackindex>
											<clipindex>1</clipindex>
											<groupindex>1</groupindex>
										</link>
										<link>
											<linkclipref>clipitem-429</linkclipref>
											<mediatype>audio</mediatype>
											<trackindex>2</trackindex>
											<clipindex>1</clipindex>
											<groupindex>1</groupindex>
										</link>
										<logginginfo>
											<description></description>
											<scene></scene>
											<shottake></shottake>
											<lognote></lognote>
											<good></good>
											<originalvideofilename></originalvideofilename>
											<originalaudiofilename></originalaudiofilename>
										</logginginfo>
										<colorinfo>
											<lut></lut>
											<lut1></lut1>
											<asc_sop></asc_sop>
											<asc_sat></asc_sat>
											<lut2></lut2>
										</colorinfo>
										<labels>
											<label2>Caribbean</label2>
										</labels>
									</clipitem>
									<enabled>TRUE</enabled>
									<locked>FALSE</locked>
									<filter>
										<effect>
											<name>Audio Levels</name>
											<effectid>audiolevels</effectid>
											<effectcategory>audiolevels</effectcategory>
											<effecttype>audiolevels</effecttype>
											<mediatype>audio</mediatype>
											<parameter authoringApp="PremierePro">
												<parameterid>level</parameterid>
												<name>Level</name>
												<valuemin>0</valuemin>
												<valuemax>3.98109</valuemax>
												<value>0.706272</value>
											</parameter>
										</effect>
									</filter>
									<outputchannelindex>1</outputchannelindex>
								</track>
								<track TL.SQTrackAudioKeyframeStyle="0" TL.SQTrackShy="0" TL.SQTrackExpandedHeight="25" TL.SQTrackExpanded="0" MZ.TrackTargeted="1" PannerCurrentValue="0.5" PannerIsInverted="true" PannerStartKeyframe="-91445760000000000,0.5,0,0,0,0,0,0" PannerName="Balance" currentExplodedTrackIndex="1" totalExplodedTrackCount="2" premiereTrackType="Stereo">
									<clipitem id="clipitem-429" premiereChannelType="stereo">
										<masterclipid>masterclip-181</masterclipid>
										<name>ES_Lonely Morning - Sven Lindvall.mp3</name>
										<enabled>TRUE</enabled>
										<duration>8973</duration>
										<rate>
											<timebase>30</timebase>
											<ntsc>TRUE</ntsc>
										</rate>
										<start>0</start>
										<end>1797</end>
										<in>0</in>
										<out>1797</out>
										<pproTicksIn>0</pproTicksIn>
										<pproTicksOut>15230773958400</pproTicksOut>
										<file id="file-179"/>
										<sourcetrack>
											<mediatype>audio</mediatype>
											<trackindex>2</trackindex>
										</sourcetrack>
										<link>
											<linkclipref>clipitem-428</linkclipref>
											<mediatype>audio</mediatype>
											<trackindex>1</trackindex>
											<clipindex>1</clipindex>
											<groupindex>1</groupindex>
										</link>
										<link>
											<linkclipref>clipitem-429</linkclipref>
											<mediatype>audio</mediatype>
											<trackindex>2</trackindex>
											<clipindex>1</clipindex>
											<groupindex>1</groupindex>
										</link>
										<logginginfo>
											<description></description>
											<scene></scene>
											<shottake></shottake>
											<lognote></lognote>
											<good></good>
											<originalvideofilename></originalvideofilename>
											<originalaudiofilename></originalaudiofilename>
										</logginginfo>
										<colorinfo>
											<lut></lut>
											<lut1></lut1>
											<asc_sop></asc_sop>
											<asc_sat></asc_sat>
											<lut2></lut2>
										</colorinfo>
										<labels>
											<label2>Caribbean</label2>
										</labels>
									</clipitem>
									<enabled>TRUE</enabled>
									<locked>FALSE</locked>
									<filter>
										<effect>
											<name>Audio Levels</name>
											<effectid>audiolevels</effectid>
											<effectcategory>audiolevels</effectcategory>
											<effecttype>audiolevels</effecttype>
											<mediatype>audio</mediatype>
											<parameter authoringApp="PremierePro">
												<parameterid>level</parameterid>
												<name>Level</name>
												<valuemin>0</valuemin>
												<valuemax>3.98109</valuemax>
												<value>0.706272</value>
											</parameter>
										</effect>
									</filter>
									<outputchannelindex>2</outputchannelindex>
								</track>
								<track TL.SQTrackAudioKeyframeStyle="0" TL.SQTrackShy="0" TL.SQTrackExpandedHeight="25" TL.SQTrackExpanded="0" MZ.TrackTargeted="0" PannerCurrentValue="0.5" PannerIsInverted="true" PannerStartKeyframe="-91445760000000000,0.5,0,0,0,0,0,0" PannerName="Balance" currentExplodedTrackIndex="0" totalExplodedTrackCount="2" premiereTrackType="Stereo">
									<enabled>TRUE</enabled>
									<locked>FALSE</locked>
									<outputchannelindex>1</outputchannelindex>
								</track>
								<track TL.SQTrackAudioKeyframeStyle="0" TL.SQTrackShy="0" TL.SQTrackExpandedHeight="25" TL.SQTrackExpanded="0" MZ.TrackTargeted="0" PannerCurrentValue="0.5" PannerIsInverted="true" PannerStartKeyframe="-91445760000000000,0.5,0,0,0,0,0,0" PannerName="Balance" currentExplodedTrackIndex="1" totalExplodedTrackCount="2" premiereTrackType="Stereo">
									<enabled>TRUE</enabled>
									<locked>FALSE</locked>
									<outputchannelindex>2</outputchannelindex>
								</track>
								<track TL.SQTrackAudioKeyframeStyle="0" TL.SQTrackShy="0" TL.SQTrackExpandedHeight="25" TL.SQTrackExpanded="0" MZ.TrackTargeted="0" PannerCurrentValue="0.5" PannerIsInverted="true" PannerStartKeyframe="-91445760000000000,0.5,0,0,0,0,0,0" PannerName="Balance" currentExplodedTrackIndex="0" totalExplodedTrackCount="2" premiereTrackType="Stereo">
									<enabled>TRUE</enabled>
									<locked>FALSE</locked>
									<outputchannelindex>1</outputchannelindex>
								</track>
								<track TL.SQTrackAudioKeyframeStyle="0" TL.SQTrackShy="0" TL.SQTrackExpandedHeight="25" TL.SQTrackExpanded="0" MZ.TrackTargeted="0" PannerCurrentValue="0.5" PannerIsInverted="true" PannerStartKeyframe="-91445760000000000,0.5,0,0,0,0,0,0" PannerName="Balance" currentExplodedTrackIndex="1" totalExplodedTrackCount="2" premiereTrackType="Stereo">
									<enabled>TRUE</enabled>
									<locked>FALSE</locked>
									<outputchannelindex>2</outputchannelindex>
								</track>
								<track TL.SQTrackAudioKeyframeStyle="0" TL.SQTrackShy="0" TL.SQTrackExpandedHeight="25" TL.SQTrackExpanded="0" MZ.TrackTargeted="0" PannerCurrentValue="0.5" PannerIsInverted="true" PannerStartKeyframe="-91445760000000000,0.5,0,0,0,0,0,0" PannerName="Balance" currentExplodedTrackIndex="0" totalExplodedTrackCount="2" premiereTrackType="Stereo">
									<enabled>TRUE</enabled>
									<locked>FALSE</locked>
									<outputchannelindex>1</outputchannelindex>
								</track>
								<track TL.SQTrackAudioKeyframeStyle="0" TL.SQTrackShy="0" TL.SQTrackExpandedHeight="25" TL.SQTrackExpanded="0" MZ.TrackTargeted="0" PannerCurrentValue="0.5" PannerIsInverted="true" PannerStartKeyframe="-91445760000000000,0.5,0,0,0,0,0,0" PannerName="Balance" currentExplodedTrackIndex="1" totalExplodedTrackCount="2" premiereTrackType="Stereo">
									<enabled>TRUE</enabled>
									<locked>FALSE</locked>
									<outputchannelindex>2</outputchannelindex>
								</track>
								<track TL.SQTrackAudioKeyframeStyle="0" TL.SQTrackShy="0" TL.SQTrackExpandedHeight="25" TL.SQTrackExpanded="0" MZ.TrackTargeted="0" PannerCurrentValue="0.5" PannerIsInverted="true" PannerStartKeyframe="-91445760000000000,0.5,0,0,0,0,0,0" PannerName="Balance" currentExplodedTrackIndex="0" totalExplodedTrackCount="2" premiereTrackType="Stereo">
									<enabled>TRUE</enabled>
									<locked>FALSE</locked>
									<outputchannelindex>1</outputchannelindex>
								</track>
								<track TL.SQTrackAudioKeyframeStyle="0" TL.SQTrackShy="0" TL.SQTrackExpandedHeight="25" TL.SQTrackExpanded="0" MZ.TrackTargeted="0" PannerCurrentValue="0.5" PannerIsInverted="true" PannerStartKeyframe="-91445760000000000,0.5,0,0,0,0,0,0" PannerName="Balance" currentExplodedTrackIndex="1" totalExplodedTrackCount="2" premiereTrackType="Stereo">
									<enabled>TRUE</enabled>
									<locked>FALSE</locked>
									<outputchannelindex>2</outputchannelindex>
								</track>
								<track TL.SQTrackAudioKeyframeStyle="0" TL.SQTrackShy="0" TL.SQTrackExpandedHeight="25" TL.SQTrackExpanded="0" MZ.TrackTargeted="0" PannerCurrentValue="0.5" PannerIsInverted="true" PannerStartKeyframe="-91445760000000000,0.5,0,0,0,0,0,0" PannerName="Balance" currentExplodedTrackIndex="0" totalExplodedTrackCount="2" premiereTrackType="Stereo">
									<enabled>TRUE</enabled>
									<locked>FALSE</locked>
									<outputchannelindex>1</outputchannelindex>
								</track>
								<track TL.SQTrackAudioKeyframeStyle="0" TL.SQTrackShy="0" TL.SQTrackExpandedHeight="25" TL.SQTrackExpanded="0" MZ.TrackTargeted="0" PannerCurrentValue="0.5" PannerIsInverted="true" PannerStartKeyframe="-91445760000000000,0.5,0,0,0,0,0,0" PannerName="Balance" currentExplodedTrackIndex="1" totalExplodedTrackCount="2" premiereTrackType="Stereo">
									<enabled>TRUE</enabled>
									<locked>FALSE</locked>
									<outputchannelindex>2</outputchannelindex>
								</track>
								<track TL.SQTrackAudioKeyframeStyle="0" TL.SQTrackShy="0" TL.SQTrackExpandedHeight="25" TL.SQTrackExpanded="0" MZ.TrackTargeted="0" PannerCurrentValue="0.5" PannerIsInverted="true" PannerStartKeyframe="-91445760000000000,0.5,0,0,0,0,0,0" PannerName="Balance" currentExplodedTrackIndex="0" totalExplodedTrackCount="2" premiereTrackType="Stereo">
									<enabled>TRUE</enabled>
									<locked>FALSE</locked>
									<outputchannelindex>1</outputchannelindex>
								</track>
								<track TL.SQTrackAudioKeyframeStyle="0" TL.SQTrackShy="0" TL.SQTrackExpandedHeight="25" TL.SQTrackExpanded="0" MZ.TrackTargeted="0" PannerCurrentValue="0.5" PannerIsInverted="true" PannerStartKeyframe="-91445760000000000,0.5,0,0,0,0,0,0" PannerName="Balance" currentExplodedTrackIndex="1" totalExplodedTrackCount="2" premiereTrackType="Stereo">
									<enabled>TRUE</enabled>
									<locked>FALSE</locked>
									<outputchannelindex>2</outputchannelindex>
								</track>
								<track TL.SQTrackAudioKeyframeStyle="0" TL.SQTrackShy="0" TL.SQTrackExpandedHeight="25" TL.SQTrackExpanded="0" MZ.TrackTargeted="0" PannerCurrentValue="0.5" PannerIsInverted="true" PannerStartKeyframe="-91445760000000000,0.5,0,0,0,0,0,0" PannerName="Balance" currentExplodedTrackIndex="0" totalExplodedTrackCount="2" premiereTrackType="Stereo">
									<enabled>TRUE</enabled>
									<locked>FALSE</locked>
									<outputchannelindex>1</outputchannelindex>
								</track>
								<track TL.SQTrackAudioKeyframeStyle="0" TL.SQTrackShy="0" TL.SQTrackExpandedHeight="25" TL.SQTrackExpanded="0" MZ.TrackTargeted="0" PannerCurrentValue="0.5" PannerIsInverted="true" PannerStartKeyframe="-91445760000000000,0.5,0,0,0,0,0,0" PannerName="Balance" currentExplodedTrackIndex="1" totalExplodedTrackCount="2" premiereTrackType="Stereo">
									<enabled>TRUE</enabled>
									<locked>FALSE</locked>
									<outputchannelindex>2</outputchannelindex>
								</track>
								<track TL.SQTrackAudioKeyframeStyle="0" TL.SQTrackShy="0" TL.SQTrackExpandedHeight="25" TL.SQTrackExpanded="0" MZ.TrackTargeted="0" PannerCurrentValue="0.5" PannerIsInverted="true" PannerStartKeyframe="-91445760000000000,0.5,0,0,0,0,0,0" PannerName="Balance" currentExplodedTrackIndex="0" totalExplodedTrackCount="2" premiereTrackType="Stereo">
									<enabled>TRUE</enabled>
									<locked>FALSE</locked>
									<outputchannelindex>1</outputchannelindex>
								</track>
								<track TL.SQTrackAudioKeyframeStyle="0" TL.SQTrackShy="0" TL.SQTrackExpandedHeight="25" TL.SQTrackExpanded="0" MZ.TrackTargeted="0" PannerCurrentValue="0.5" PannerIsInverted="true" PannerStartKeyframe="-91445760000000000,0.5,0,0,0,0,0,0" PannerName="Balance" currentExplodedTrackIndex="1" totalExplodedTrackCount="2" premiereTrackType="Stereo">
									<enabled>TRUE</enabled>
									<locked>FALSE</locked>
									<outputchannelindex>2</outputchannelindex>
								</track>
								<track TL.SQTrackAudioKeyframeStyle="0" TL.SQTrackShy="0" TL.SQTrackExpandedHeight="25" TL.SQTrackExpanded="0" MZ.TrackTargeted="0" PannerCurrentValue="0.5" PannerIsInverted="true" PannerStartKeyframe="-91445760000000000,0.5,0,0,0,0,0,0" PannerName="Balance" currentExplodedTrackIndex="0" totalExplodedTrackCount="2" premiereTrackType="Stereo">
									<enabled>TRUE</enabled>
									<locked>FALSE</locked>
									<outputchannelindex>1</outputchannelindex>
								</track>
								<track TL.SQTrackAudioKeyframeStyle="0" TL.SQTrackShy="0" TL.SQTrackExpandedHeight="25" TL.SQTrackExpanded="0" MZ.TrackTargeted="0" PannerCurrentValue="0.5" PannerIsInverted="true" PannerStartKeyframe="-91445760000000000,0.5,0,0,0,0,0,0" PannerName="Balance" currentExplodedTrackIndex="1" totalExplodedTrackCount="2" premiereTrackType="Stereo">
									<enabled>TRUE</enabled>
									<locked>FALSE</locked>
									<outputchannelindex>2</outputchannelindex>
								</track>
							</audio>
						</media>
						<timecode>
							<rate>
								<timebase>30</timebase>
								<ntsc>TRUE</ntsc>
							</rate>
							<string>00;00;00;00</string>
							<frame>0</frame>
							<displayformat>DF</displayformat>
						</timecode>
						<labels>
							<label2>Forest</label2>
						</labels>
						<logginginfo>
							<description></description>
							<scene></scene>
							<shottake></shottake>
							<lognote></lognote>
							<good></good>
							<originalvideofilename></originalvideofilename>
							<originalaudiofilename></originalaudiofilename>
						</logginginfo>
					</sequence>
					<sequence id="sequence-9" TL.SQAudioVisibleBase="0" TL.SQVideoVisibleBase="0" TL.SQVisibleBaseTime="0" TL.SQAVDividerPosition="0.5" TL.SQHideShyTracks="0" TL.SQHeaderWidth="236" TL.SQDataTrackViewControlState="0" Monitor.ProgramZoomOut="14866320268800" Monitor.ProgramZoomIn="0" TL.SQTimePerPixel="0.072184793070247569" AM.TrackVScrollPosition="0" AM.TrackScrollPosition="0" MZ.EditLine="12425328115200" MZ.Sequence.PreviewFrameSizeHeight="1080" MZ.Sequence.PreviewFrameSizeWidth="1920" MZ.Sequence.AudioTimeDisplayFormat="200" MZ.Sequence.PreviewRenderingClassID="1061109567" MZ.Sequence.PreviewRenderingPresetCodec="1634755443" MZ.Sequence.PreviewRenderingPresetPath="EncoderPresets/SequencePreview/35d109db-457b-43c1-9452-9cb7be9f121c/QuickTime.epr" MZ.Sequence.PreviewUseMaxRenderQuality="false" MZ.Sequence.PreviewUseMaxBitDepth="false" MZ.Sequence.EditingModeGUID="35d109db-457b-43c1-9452-9cb7be9f121c" MZ.Sequence.VideoTimeDisplayFormat="102" MZ.WorkOutPoint="1262874412800" MZ.WorkInPoint="0" explodedTracks="true">
						<uuid>423104c3-5392-40f7-97f0-61a11c272229</uuid>
						<duration>1754</duration>
						<rate>
							<timebase>30</timebase>
							<ntsc>TRUE</ntsc>
						</rate>
						<name>FND_I've Got Bars_1</name>
						<media>
							<video>
								<format>
									<samplecharacteristics>
										<rate>
											<timebase>30</timebase>
											<ntsc>TRUE</ntsc>
										</rate>
										<codec>
											<name>Apple ProRes 422</name>
											<appspecificdata>
												<appname>Final Cut Pro</appname>
												<appmanufacturer>Apple Inc.</appmanufacturer>
												<appversion>7.0</appversion>
												<data>
													<qtcodec>
														<codecname>Apple ProRes 422</codecname>
														<codectypename>Apple ProRes 422</codectypename>
														<codectypecode>apcn</codectypecode>
														<codecvendorcode>appl</codecvendorcode>
														<spatialquality>1024</spatialquality>
														<temporalquality>0</temporalquality>
														<keyframerate>0</keyframerate>
														<datarate>0</datarate>
													</qtcodec>
												</data>
											</appspecificdata>
										</codec>
										<width>1920</width>
										<height>1080</height>
										<anamorphic>FALSE</anamorphic>
										<pixelaspectratio>square</pixelaspectratio>
										<fielddominance>none</fielddominance>
										<colordepth>24</colordepth>
									</samplecharacteristics>
								</format>
								<track TL.SQTrackShy="0" TL.SQTrackExpandedHeight="25" TL.SQTrackExpanded="0" MZ.TrackTargeted="1">
									<clipitem id="clipitem-430">
										<masterclipid>masterclip-56</masterclipid>
										<name>227058_Bakery Kitchen Sweets Cocoa_By_Anton_Katliar_Artlist_HD.mp4</name>
										<enabled>TRUE</enabled>
										<duration>533</duration>
										<rate>
											<timebase>30</timebase>
											<ntsc>TRUE</ntsc>
										</rate>
										<start>0</start>
										<end>184</end>
										<in>0</in>
										<out>184</out>
										<pproTicksIn>0</pproTicksIn>
										<pproTicksOut>1559522764800</pproTicksOut>
										<alphatype>none</alphatype>
										<file id="file-56"/>
										<filter>
											<effect>
												<name>Distort</name>
												<effectid>deformation</effectid>
												<effectcategory>motion</effectcategory>
												<effecttype>motion</effecttype>
												<mediatype>video</mediatype>
												<parameter authoringApp="PremierePro">
													<parameterid>aspect</parameterid>
													<name>Aspect</name>
													<valuemin>-10000</valuemin>
													<valuemax>10000</valuemax>
													<value>-9.40171</value>
												</parameter>
											</effect>
										</filter>
										<filter>
											<effect>
												<name>Basic Motion</name>
												<effectid>basic</effectid>
												<effectcategory>motion</effectcategory>
												<effecttype>motion</effecttype>
												<mediatype>video</mediatype>
												<parameter authoringApp="PremierePro">
													<parameterid>scale</parameterid>
													<name>Scale</name>
													<value>109.402</value>
												</parameter>
											</effect>
										</filter>
										<logginginfo>
											<description></description>
											<scene></scene>
											<shottake></shottake>
											<lognote></lognote>
											<good></good>
											<originalvideofilename></originalvideofilename>
											<originalaudiofilename></originalaudiofilename>
										</logginginfo>
										<colorinfo>
											<lut></lut>
											<lut1></lut1>
											<asc_sop></asc_sop>
											<asc_sat></asc_sat>
											<lut2></lut2>
										</colorinfo>
									</clipitem>
									<clipitem id="clipitem-431">
										<masterclipid>masterclip-55</masterclipid>
										<name>227056_Chocolate Bakery Kitchen Chocolatier_By_Anton_Katliar_Artlist_HD.mp4</name>
										<enabled>TRUE</enabled>
										<duration>301</duration>
										<rate>
											<timebase>30</timebase>
											<ntsc>TRUE</ntsc>
										</rate>
										<start>184</start>
										<end>373</end>
										<in>0</in>
										<out>189</out>
										<pproTicksIn>0</pproTicksIn>
										<pproTicksOut>3746244902400</pproTicksOut>
										<alphatype>none</alphatype>
										<file id="file-55"/>
										<filter>
											<effect>
												<name>Time Remap</name>
												<effectid>timeremap</effectid>
												<effectcategory>motion</effectcategory>
												<effecttype>motion</effecttype>
												<mediatype>video</mediatype>
												<parameter authoringApp="PremierePro">
													<parameterid>variablespeed</parameterid>
													<name>variablespeed</name>
													<valuemin>0</valuemin>
													<valuemax>1</valuemax>
													<value>0</value>
												</parameter>
												<parameter authoringApp="PremierePro">
													<parameterid>speed</parameterid>
													<name>speed</name>
													<valuemin>-100000</valuemin>
													<valuemax>100000</valuemax>
													<value>233.862</value>
												</parameter>
												<parameter authoringApp="PremierePro">
													<parameterid>reverse</parameterid>
													<name>reverse</name>
													<value>FALSE</value>
												</parameter>
												<parameter authoringApp="PremierePro">
													<parameterid>frameblending</parameterid>
													<name>frameblending</name>
													<value>FALSE</value>
												</parameter>
												<parameter authoringApp="PremierePro">
													<parameterid>graphdict</parameterid>
													<name>graphdict</name>
													<valuemin>0</valuemin>
													<valuemax>703</valuemax>
													<value>0</value>
													<keyframe>
														<when>0</when>
														<value>0</value>
														<speedvirtualkf>TRUE</speedvirtualkf>
														<speedkfin>TRUE</speedkfin>
													</keyframe>
													<keyframe>
														<when>189</when>
														<value>442</value>
														<speedvirtualkf>TRUE</speedvirtualkf>
														<speedkfout>TRUE</speedkfout>
													</keyframe>
													<keyframe>
														<when>301</when>
														<value>703</value>
														<speedvirtualkf>TRUE</speedvirtualkf>
														<speedkfend>TRUE</speedkfend>
													</keyframe>
													<interpolation>
														<name>FCPCurve</name>
													</interpolation>
												</parameter>
											</effect>
										</filter>
										<filter>
											<effect>
												<name>Distort</name>
												<effectid>deformation</effectid>
												<effectcategory>motion</effectcategory>
												<effecttype>motion</effecttype>
												<mediatype>video</mediatype>
												<parameter authoringApp="PremierePro">
													<parameterid>aspect</parameterid>
													<name>Aspect</name>
													<valuemin>-10000</valuemin>
													<valuemax>10000</valuemax>
													<value>-9.40171</value>
												</parameter>
											</effect>
										</filter>
										<filter>
											<effect>
												<name>Basic Motion</name>
												<effectid>basic</effectid>
												<effectcategory>motion</effectcategory>
												<effecttype>motion</effecttype>
												<mediatype>video</mediatype>
												<parameter authoringApp="PremierePro">
													<parameterid>scale</parameterid>
													<name>Scale</name>
													<value>109.402</value>
												</parameter>
											</effect>
										</filter>
										<logginginfo>
											<description></description>
											<scene></scene>
											<shottake></shottake>
											<lognote></lognote>
											<good></good>
											<originalvideofilename></originalvideofilename>
											<originalaudiofilename></originalaudiofilename>
										</logginginfo>
										<colorinfo>
											<lut></lut>
											<lut1></lut1>
											<asc_sop></asc_sop>
											<asc_sat></asc_sat>
											<lut2></lut2>
										</colorinfo>
									</clipitem>
									<clipitem id="clipitem-432">
										<masterclipid>masterclip-47</masterclipid>
										<name>227036_Chocolate Whipped Cream Pot Confectioner_By_Anton_Katliar_Artlist_HD.mp4</name>
										<enabled>TRUE</enabled>
										<duration>290</duration>
										<rate>
											<timebase>30</timebase>
											<ntsc>TRUE</ntsc>
										</rate>
										<start>373</start>
										<end>555</end>
										<in>109</in>
										<out>290</out>
										<pproTicksIn>1448020654079</pproTicksIn>
										<pproTicksOut>3881855577600</pproTicksOut>
										<alphatype>none</alphatype>
										<file id="file-47"/>
										<filter>
											<effect>
												<name>Time Remap</name>
												<effectid>timeremap</effectid>
												<effectcategory>motion</effectcategory>
												<effecttype>motion</effecttype>
												<mediatype>video</mediatype>
												<parameter authoringApp="PremierePro">
													<parameterid>variablespeed</parameterid>
													<name>variablespeed</name>
													<valuemin>0</valuemin>
													<valuemax>1</valuemax>
													<value>0</value>
												</parameter>
												<parameter authoringApp="PremierePro">
													<parameterid>speed</parameterid>
													<name>speed</name>
													<valuemin>-100000</valuemin>
													<valuemax>100000</valuemax>
													<value>157.778</value>
												</parameter>
												<parameter authoringApp="PremierePro">
													<parameterid>reverse</parameterid>
													<name>reverse</name>
													<value>FALSE</value>
												</parameter>
												<parameter authoringApp="PremierePro">
													<parameterid>frameblending</parameterid>
													<name>frameblending</name>
													<value>FALSE</value>
												</parameter>
												<parameter authoringApp="PremierePro">
													<parameterid>graphdict</parameterid>
													<name>graphdict</name>
													<valuemin>0</valuemin>
													<valuemax>457</valuemax>
													<value>0</value>
													<keyframe>
														<when>0</when>
														<value>0</value>
														<speedvirtualkf>TRUE</speedvirtualkf>
														<speedkfstart>TRUE</speedkfstart>
													</keyframe>
													<keyframe>
														<when>109</when>
														<value>171</value>
														<speedvirtualkf>TRUE</speedvirtualkf>
														<speedkfin>TRUE</speedkfin>
													</keyframe>
													<keyframe>
														<when>290</when>
														<value>457</value>
														<speedvirtualkf>TRUE</speedvirtualkf>
														<speedkfout>TRUE</speedkfout>
													</keyframe>
													<interpolation>
														<name>FCPCurve</name>
													</interpolation>
												</parameter>
											</effect>
										</filter>
										<filter>
											<effect>
												<name>Distort</name>
												<effectid>deformation</effectid>
												<effectcategory>motion</effectcategory>
												<effecttype>motion</effecttype>
												<mediatype>video</mediatype>
												<parameter authoringApp="PremierePro">
													<parameterid>aspect</parameterid>
													<name>Aspect</name>
													<valuemin>-10000</valuemin>
													<valuemax>10000</valuemax>
													<value>-9.40171</value>
												</parameter>
											</effect>
										</filter>
										<filter>
											<effect>
												<name>Basic Motion</name>
												<effectid>basic</effectid>
												<effectcategory>motion</effectcategory>
												<effecttype>motion</effecttype>
												<mediatype>video</mediatype>
												<parameter authoringApp="PremierePro">
													<parameterid>scale</parameterid>
													<name>Scale</name>
													<value>109.402</value>
												</parameter>
											</effect>
										</filter>
										<logginginfo>
											<description></description>
											<scene></scene>
											<shottake></shottake>
											<lognote></lognote>
											<good></good>
											<originalvideofilename></originalvideofilename>
											<originalaudiofilename></originalaudiofilename>
										</logginginfo>
										<colorinfo>
											<lut></lut>
											<lut1></lut1>
											<asc_sop></asc_sop>
											<asc_sat></asc_sat>
											<lut2></lut2>
										</colorinfo>
									</clipitem>
									<clipitem id="clipitem-433">
										<masterclipid>masterclip-48</masterclipid>
										<name>227037_Chocolate Pouring Mold Chocolatier_By_Anton_Katliar_Artlist_HD.mp4</name>
										<enabled>TRUE</enabled>
										<duration>1090</duration>
										<rate>
											<timebase>30</timebase>
											<ntsc>TRUE</ntsc>
										</rate>
										<start>555</start>
										<end>802</end>
										<in>0</in>
										<out>247</out>
										<pproTicksIn>0</pproTicksIn>
										<pproTicksOut>2093489798400</pproTicksOut>
										<alphatype>none</alphatype>
										<file id="file-48"/>
										<filter>
											<effect>
												<name>Distort</name>
												<effectid>deformation</effectid>
												<effectcategory>motion</effectcategory>
												<effecttype>motion</effecttype>
												<mediatype>video</mediatype>
												<parameter authoringApp="PremierePro">
													<parameterid>aspect</parameterid>
													<name>Aspect</name>
													<valuemin>-10000</valuemin>
													<valuemax>10000</valuemax>
													<value>-9.40171</value>
												</parameter>
											</effect>
										</filter>
										<filter>
											<effect>
												<name>Basic Motion</name>
												<effectid>basic</effectid>
												<effectcategory>motion</effectcategory>
												<effecttype>motion</effecttype>
												<mediatype>video</mediatype>
												<parameter authoringApp="PremierePro">
													<parameterid>scale</parameterid>
													<name>Scale</name>
													<value>109.402</value>
												</parameter>
											</effect>
										</filter>
										<logginginfo>
											<description></description>
											<scene></scene>
											<shottake></shottake>
											<lognote></lognote>
											<good></good>
											<originalvideofilename></originalvideofilename>
											<originalaudiofilename></originalaudiofilename>
										</logginginfo>
										<colorinfo>
											<lut></lut>
											<lut1></lut1>
											<asc_sop></asc_sop>
											<asc_sat></asc_sat>
											<lut2></lut2>
										</colorinfo>
									</clipitem>
									<clipitem id="clipitem-434">
										<masterclipid>masterclip-49</masterclipid>
										<name>227038_Chocolate Almonds Chocolatier Confectioner_By_Anton_Katliar_Artlist_HD.mp4</name>
										<enabled>TRUE</enabled>
										<duration>862</duration>
										<rate>
											<timebase>30</timebase>
											<ntsc>TRUE</ntsc>
										</rate>
										<start>802</start>
										<end>841</end>
										<in>248</in>
										<out>287</out>
										<pproTicksIn>2101965465600</pproTicksIn>
										<pproTicksOut>2432516486400</pproTicksOut>
										<alphatype>none</alphatype>
										<file id="file-49"/>
										<filter>
											<effect>
												<name>Distort</name>
												<effectid>deformation</effectid>
												<effectcategory>motion</effectcategory>
												<effecttype>motion</effecttype>
												<mediatype>video</mediatype>
												<parameter authoringApp="PremierePro">
													<parameterid>aspect</parameterid>
													<name>Aspect</name>
													<valuemin>-10000</valuemin>
													<valuemax>10000</valuemax>
													<value>-9.40171</value>
												</parameter>
											</effect>
										</filter>
										<filter>
											<effect>
												<name>Basic Motion</name>
												<effectid>basic</effectid>
												<effectcategory>motion</effectcategory>
												<effecttype>motion</effecttype>
												<mediatype>video</mediatype>
												<parameter authoringApp="PremierePro">
													<parameterid>scale</parameterid>
													<name>Scale</name>
													<value>109.402</value>
												</parameter>
											</effect>
										</filter>
										<logginginfo>
											<description></description>
											<scene></scene>
											<shottake></shottake>
											<lognote></lognote>
											<good></good>
											<originalvideofilename></originalvideofilename>
											<originalaudiofilename></originalaudiofilename>
										</logginginfo>
										<colorinfo>
											<lut></lut>
											<lut1></lut1>
											<asc_sop></asc_sop>
											<asc_sat></asc_sat>
											<lut2></lut2>
										</colorinfo>
									</clipitem>
									<clipitem id="clipitem-435">
										<masterclipid>masterclip-49</masterclipid>
										<name>227038_Chocolate Almonds Chocolatier Confectioner_By_Anton_Katliar_Artlist_HD.mp4</name>
										<enabled>TRUE</enabled>
										<duration>862</duration>
										<rate>
											<timebase>30</timebase>
											<ntsc>TRUE</ntsc>
										</rate>
										<start>841</start>
										<end>919</end>
										<in>553</in>
										<out>631</out>
										<pproTicksIn>4687043961600</pproTicksIn>
										<pproTicksOut>5348146003200</pproTicksOut>
										<alphatype>none</alphatype>
										<file id="file-49"/>
										<filter>
											<effect>
												<name>Distort</name>
												<effectid>deformation</effectid>
												<effectcategory>motion</effectcategory>
												<effecttype>motion</effecttype>
												<mediatype>video</mediatype>
												<parameter authoringApp="PremierePro">
													<parameterid>aspect</parameterid>
													<name>Aspect</name>
													<valuemin>-10000</valuemin>
													<valuemax>10000</valuemax>
													<value>-9.40171</value>
												</parameter>
											</effect>
										</filter>
										<filter>
											<effect>
												<name>Basic Motion</name>
												<effectid>basic</effectid>
												<effectcategory>motion</effectcategory>
												<effecttype>motion</effecttype>
												<mediatype>video</mediatype>
												<parameter authoringApp="PremierePro">
													<parameterid>scale</parameterid>
													<name>Scale</name>
													<value>109.402</value>
												</parameter>
											</effect>
										</filter>
										<logginginfo>
											<description></description>
											<scene></scene>
											<shottake></shottake>
											<lognote></lognote>
											<good></good>
											<originalvideofilename></originalvideofilename>
											<originalaudiofilename></originalaudiofilename>
										</logginginfo>
										<colorinfo>
											<lut></lut>
											<lut1></lut1>
											<asc_sop></asc_sop>
											<asc_sat></asc_sat>
											<lut2></lut2>
										</colorinfo>
									</clipitem>
									<clipitem id="clipitem-436">
										<masterclipid>masterclip-51</masterclipid>
										<name>227041_Chocolate Mold Almonds Chocolatier_By_Anton_Katliar_Artlist_HD.mp4</name>
										<enabled>TRUE</enabled>
										<duration>1128</duration>
										<rate>
											<timebase>30</timebase>
											<ntsc>TRUE</ntsc>
										</rate>
										<start>919</start>
										<end>1084</end>
										<in>275</in>
										<out>440</out>
										<pproTicksIn>2330808480000</pproTicksIn>
										<pproTicksOut>3729293568000</pproTicksOut>
										<alphatype>none</alphatype>
										<file id="file-51"/>
										<filter>
											<effect>
												<name>Distort</name>
												<effectid>deformation</effectid>
												<effectcategory>motion</effectcategory>
												<effecttype>motion</effecttype>
												<mediatype>video</mediatype>
												<parameter authoringApp="PremierePro">
													<parameterid>aspect</parameterid>
													<name>Aspect</name>
													<valuemin>-10000</valuemin>
													<valuemax>10000</valuemax>
													<value>-9.40171</value>
												</parameter>
											</effect>
										</filter>
										<filter>
											<effect>
												<name>Basic Motion</name>
												<effectid>basic</effectid>
												<effectcategory>motion</effectcategory>
												<effecttype>motion</effecttype>
												<mediatype>video</mediatype>
												<parameter authoringApp="PremierePro">
													<parameterid>scale</parameterid>
													<name>Scale</name>
													<value>109.402</value>
												</parameter>
											</effect>
										</filter>
										<logginginfo>
											<description></description>
											<scene></scene>
											<shottake></shottake>
											<lognote></lognote>
											<good></good>
											<originalvideofilename></originalvideofilename>
											<originalaudiofilename></originalaudiofilename>
										</logginginfo>
										<colorinfo>
											<lut></lut>
											<lut1></lut1>
											<asc_sop></asc_sop>
											<asc_sat></asc_sat>
											<lut2></lut2>
										</colorinfo>
									</clipitem>
									<clipitem id="clipitem-437">
										<masterclipid>masterclip-52</masterclipid>
										<name>227044_Chocolate Nuts Almonds Bakery_By_Anton_Katliar_Artlist_HD.mp4</name>
										<enabled>TRUE</enabled>
										<duration>959</duration>
										<rate>
											<timebase>30</timebase>
											<ntsc>TRUE</ntsc>
										</rate>
										<start>1084</start>
										<end>1169</end>
										<in>429</in>
										<out>514</out>
										<pproTicksIn>3636061228800</pproTicksIn>
										<pproTicksOut>4356492940800</pproTicksOut>
										<alphatype>none</alphatype>
										<file id="file-52"/>
										<filter>
											<effect>
												<name>Distort</name>
												<effectid>deformation</effectid>
												<effectcategory>motion</effectcategory>
												<effecttype>motion</effecttype>
												<mediatype>video</mediatype>
												<parameter authoringApp="PremierePro">
													<parameterid>aspect</parameterid>
													<name>Aspect</name>
													<valuemin>-10000</valuemin>
													<valuemax>10000</valuemax>
													<value>-9.40171</value>
												</parameter>
											</effect>
										</filter>
										<filter>
											<effect>
												<name>Basic Motion</name>
												<effectid>basic</effectid>
												<effectcategory>motion</effectcategory>
												<effecttype>motion</effecttype>
												<mediatype>video</mediatype>
												<parameter authoringApp="PremierePro">
													<parameterid>scale</parameterid>
													<name>Scale</name>
													<value>109.402</value>
												</parameter>
											</effect>
										</filter>
										<logginginfo>
											<description></description>
											<scene></scene>
											<shottake></shottake>
											<lognote></lognote>
											<good></good>
											<originalvideofilename></originalvideofilename>
											<originalaudiofilename></originalaudiofilename>
										</logginginfo>
										<colorinfo>
											<lut></lut>
											<lut1></lut1>
											<asc_sop></asc_sop>
											<asc_sat></asc_sat>
											<lut2></lut2>
										</colorinfo>
									</clipitem>
									<clipitem id="clipitem-438">
										<masterclipid>masterclip-52</masterclipid>
										<name>227044_Chocolate Nuts Almonds Bakery_By_Anton_Katliar_Artlist_HD.mp4</name>
										<enabled>TRUE</enabled>
										<duration>959</duration>
										<rate>
											<timebase>30</timebase>
											<ntsc>TRUE</ntsc>
										</rate>
										<start>1169</start>
										<end>1246</end>
										<in>648</in>
										<out>725</out>
										<pproTicksIn>5492232345600</pproTicksIn>
										<pproTicksOut>6144858720000</pproTicksOut>
										<alphatype>none</alphatype>
										<file id="file-52"/>
										<filter>
											<effect>
												<name>Distort</name>
												<effectid>deformation</effectid>
												<effectcategory>motion</effectcategory>
												<effecttype>motion</effecttype>
												<mediatype>video</mediatype>
												<parameter authoringApp="PremierePro">
													<parameterid>aspect</parameterid>
													<name>Aspect</name>
													<valuemin>-10000</valuemin>
													<valuemax>10000</valuemax>
													<value>-9.40171</value>
												</parameter>
											</effect>
										</filter>
										<filter>
											<effect>
												<name>Basic Motion</name>
												<effectid>basic</effectid>
												<effectcategory>motion</effectcategory>
												<effecttype>motion</effecttype>
												<mediatype>video</mediatype>
												<parameter authoringApp="PremierePro">
													<parameterid>scale</parameterid>
													<name>Scale</name>
													<value>109.402</value>
												</parameter>
											</effect>
										</filter>
										<logginginfo>
											<description></description>
											<scene></scene>
											<shottake></shottake>
											<lognote></lognote>
											<good></good>
											<originalvideofilename></originalvideofilename>
											<originalaudiofilename></originalaudiofilename>
										</logginginfo>
										<colorinfo>
											<lut></lut>
											<lut1></lut1>
											<asc_sop></asc_sop>
											<asc_sat></asc_sat>
											<lut2></lut2>
										</colorinfo>
									</clipitem>
									<clipitem id="clipitem-439">
										<masterclipid>masterclip-53</masterclipid>
										<name>227045_Chocolate Nuts Almonds Chocolatier_By_Anton_Katliar_Artlist_HD.mp4</name>
										<enabled>TRUE</enabled>
										<duration>930</duration>
										<rate>
											<timebase>30</timebase>
											<ntsc>TRUE</ntsc>
										</rate>
										<start>1246</start>
										<end>1306</end>
										<in>324</in>
										<out>384</out>
										<pproTicksIn>2746116172800</pproTicksIn>
										<pproTicksOut>3254656204800</pproTicksOut>
										<alphatype>none</alphatype>
										<file id="file-53"/>
										<filter>
											<effect>
												<name>Distort</name>
												<effectid>deformation</effectid>
												<effectcategory>motion</effectcategory>
												<effecttype>motion</effecttype>
												<mediatype>video</mediatype>
												<parameter authoringApp="PremierePro">
													<parameterid>aspect</parameterid>
													<name>Aspect</name>
													<valuemin>-10000</valuemin>
													<valuemax>10000</valuemax>
													<value>-9.40171</value>
												</parameter>
											</effect>
										</filter>
										<filter>
											<effect>
												<name>Basic Motion</name>
												<effectid>basic</effectid>
												<effectcategory>motion</effectcategory>
												<effecttype>motion</effecttype>
												<mediatype>video</mediatype>
												<parameter authoringApp="PremierePro">
													<parameterid>scale</parameterid>
													<name>Scale</name>
													<value>109.402</value>
												</parameter>
											</effect>
										</filter>
										<logginginfo>
											<description></description>
											<scene></scene>
											<shottake></shottake>
											<lognote></lognote>
											<good></good>
											<originalvideofilename></originalvideofilename>
											<originalaudiofilename></originalaudiofilename>
										</logginginfo>
										<colorinfo>
											<lut></lut>
											<lut1></lut1>
											<asc_sop></asc_sop>
											<asc_sat></asc_sat>
											<lut2></lut2>
										</colorinfo>
									</clipitem>
									<clipitem id="clipitem-440">
										<masterclipid>masterclip-53</masterclipid>
										<name>227045_Chocolate Nuts Almonds Chocolatier_By_Anton_Katliar_Artlist_HD.mp4</name>
										<enabled>TRUE</enabled>
										<duration>930</duration>
										<rate>
											<timebase>30</timebase>
											<ntsc>TRUE</ntsc>
										</rate>
										<start>1306</start>
										<end>1384</end>
										<in>511</in>
										<out>589</out>
										<pproTicksIn>4331065939200</pproTicksIn>
										<pproTicksOut>4992167980800</pproTicksOut>
										<alphatype>none</alphatype>
										<file id="file-53"/>
										<filter>
											<effect>
												<name>Distort</name>
												<effectid>deformation</effectid>
												<effectcategory>motion</effectcategory>
												<effecttype>motion</effecttype>
												<mediatype>video</mediatype>
												<parameter authoringApp="PremierePro">
													<parameterid>aspect</parameterid>
													<name>Aspect</name>
													<valuemin>-10000</valuemin>
													<valuemax>10000</valuemax>
													<value>-9.40171</value>
												</parameter>
											</effect>
										</filter>
										<filter>
											<effect>
												<name>Basic Motion</name>
												<effectid>basic</effectid>
												<effectcategory>motion</effectcategory>
												<effecttype>motion</effecttype>
												<mediatype>video</mediatype>
												<parameter authoringApp="PremierePro">
													<parameterid>scale</parameterid>
													<name>Scale</name>
													<value>109.402</value>
												</parameter>
											</effect>
										</filter>
										<logginginfo>
											<description></description>
											<scene></scene>
											<shottake></shottake>
											<lognote></lognote>
											<good></good>
											<originalvideofilename></originalvideofilename>
											<originalaudiofilename></originalaudiofilename>
										</logginginfo>
										<colorinfo>
											<lut></lut>
											<lut1></lut1>
											<asc_sop></asc_sop>
											<asc_sat></asc_sat>
											<lut2></lut2>
										</colorinfo>
									</clipitem>
									<clipitem id="clipitem-441">
										<masterclipid>masterclip-54</masterclipid>
										<name>227046_Chocolate Nuts Almonds Confectioner_By_Anton_Katliar_Artlist_HD.mp4</name>
										<enabled>TRUE</enabled>
										<duration>422</duration>
										<rate>
											<timebase>30</timebase>
											<ntsc>TRUE</ntsc>
										</rate>
										<start>1384</start>
										<end>1754</end>
										<in>0</in>
										<out>369</out>
										<pproTicksIn>0</pproTicksIn>
										<pproTicksOut>6071349378881</pproTicksOut>
										<alphatype>none</alphatype>
										<file id="file-54"/>
										<filter>
											<effect>
												<name>Time Remap</name>
												<effectid>timeremap</effectid>
												<effectcategory>motion</effectcategory>
												<effecttype>motion</effecttype>
												<mediatype>video</mediatype>
												<parameter authoringApp="PremierePro">
													<parameterid>variablespeed</parameterid>
													<name>variablespeed</name>
													<valuemin>0</valuemin>
													<valuemax>1</valuemax>
													<value>0</value>
												</parameter>
												<parameter authoringApp="PremierePro">
													<parameterid>speed</parameterid>
													<name>speed</name>
													<valuemin>-100000</valuemin>
													<valuemax>100000</valuemax>
													<value>193.602</value>
												</parameter>
												<parameter authoringApp="PremierePro">
													<parameterid>reverse</parameterid>
													<name>reverse</name>
													<value>FALSE</value>
												</parameter>
												<parameter authoringApp="PremierePro">
													<parameterid>frameblending</parameterid>
													<name>frameblending</name>
													<value>FALSE</value>
												</parameter>
												<parameter authoringApp="PremierePro">
													<parameterid>graphdict</parameterid>
													<name>graphdict</name>
													<valuemin>0</valuemin>
													<valuemax>817</valuemax>
													<value>0</value>
													<keyframe>
														<when>0</when>
														<value>0</value>
														<speedvirtualkf>TRUE</speedvirtualkf>
														<speedkfin>TRUE</speedkfin>
													</keyframe>
													<keyframe>
														<when>369</when>
														<value>714</value>
														<speedvirtualkf>TRUE</speedvirtualkf>
														<speedkfout>TRUE</speedkfout>
													</keyframe>
													<keyframe>
														<when>422</when>
														<value>817</value>
														<speedvirtualkf>TRUE</speedvirtualkf>
														<speedkfend>TRUE</speedkfend>
													</keyframe>
													<interpolation>
														<name>FCPCurve</name>
													</interpolation>
												</parameter>
											</effect>
										</filter>
										<filter>
											<effect>
												<name>Distort</name>
												<effectid>deformation</effectid>
												<effectcategory>motion</effectcategory>
												<effecttype>motion</effecttype>
												<mediatype>video</mediatype>
												<parameter authoringApp="PremierePro">
													<parameterid>aspect</parameterid>
													<name>Aspect</name>
													<valuemin>-10000</valuemin>
													<valuemax>10000</valuemax>
													<value>-9.40171</value>
												</parameter>
											</effect>
										</filter>
										<filter>
											<effect>
												<name>Basic Motion</name>
												<effectid>basic</effectid>
												<effectcategory>motion</effectcategory>
												<effecttype>motion</effecttype>
												<mediatype>video</mediatype>
												<parameter authoringApp="PremierePro">
													<parameterid>scale</parameterid>
													<name>Scale</name>
													<value>109.402</value>
												</parameter>
											</effect>
										</filter>
										<logginginfo>
											<description></description>
											<scene></scene>
											<shottake></shottake>
											<lognote></lognote>
											<good></good>
											<originalvideofilename></originalvideofilename>
											<originalaudiofilename></originalaudiofilename>
										</logginginfo>
										<colorinfo>
											<lut></lut>
											<lut1></lut1>
											<asc_sop></asc_sop>
											<asc_sat></asc_sat>
											<lut2></lut2>
										</colorinfo>
									</clipitem>
									<enabled>TRUE</enabled>
									<locked>FALSE</locked>
								</track>
								<track TL.SQTrackShy="0" TL.SQTrackExpandedHeight="25" TL.SQTrackExpanded="0" MZ.TrackTargeted="0">
									<enabled>TRUE</enabled>
									<locked>FALSE</locked>
								</track>
								<track TL.SQTrackShy="0" TL.SQTrackExpandedHeight="25" TL.SQTrackExpanded="0" MZ.TrackTargeted="0">
									<enabled>TRUE</enabled>
									<locked>FALSE</locked>
								</track>
								<track TL.SQTrackShy="0" TL.SQTrackExpandedHeight="25" TL.SQTrackExpanded="0" MZ.TrackTargeted="0">
									<enabled>TRUE</enabled>
									<locked>FALSE</locked>
								</track>
								<track TL.SQTrackShy="0" TL.SQTrackExpandedHeight="25" TL.SQTrackExpanded="0" MZ.TrackTargeted="0">
									<enabled>TRUE</enabled>
									<locked>FALSE</locked>
								</track>
								<track TL.SQTrackShy="0" TL.SQTrackExpandedHeight="25" TL.SQTrackExpanded="0" MZ.TrackTargeted="0">
									<enabled>TRUE</enabled>
									<locked>FALSE</locked>
								</track>
								<track TL.SQTrackShy="0" TL.SQTrackExpandedHeight="25" TL.SQTrackExpanded="0" MZ.TrackTargeted="0">
									<enabled>TRUE</enabled>
									<locked>FALSE</locked>
								</track>
								<track TL.SQTrackShy="0" TL.SQTrackExpandedHeight="25" TL.SQTrackExpanded="0" MZ.TrackTargeted="0">
									<enabled>TRUE</enabled>
									<locked>FALSE</locked>
								</track>
								<track TL.SQTrackShy="0" TL.SQTrackExpandedHeight="25" TL.SQTrackExpanded="0" MZ.TrackTargeted="0">
									<enabled>TRUE</enabled>
									<locked>FALSE</locked>
								</track>
								<track TL.SQTrackShy="0" TL.SQTrackExpandedHeight="25" TL.SQTrackExpanded="0" MZ.TrackTargeted="0">
									<enabled>TRUE</enabled>
									<locked>FALSE</locked>
								</track>
							</video>
							<audio>
								<numOutputChannels>2</numOutputChannels>
								<format>
									<samplecharacteristics>
										<depth>16</depth>
										<samplerate>48000</samplerate>
									</samplecharacteristics>
								</format>
								<outputs>
									<group>
										<index>1</index>
										<numchannels>1</numchannels>
										<downmix>0</downmix>
										<channel>
											<index>1</index>
										</channel>
									</group>
									<group>
										<index>2</index>
										<numchannels>1</numchannels>
										<downmix>0</downmix>
										<channel>
											<index>2</index>
										</channel>
									</group>
								</outputs>
								<track TL.SQTrackAudioKeyframeStyle="0" TL.SQTrackShy="0" TL.SQTrackExpandedHeight="25" TL.SQTrackExpanded="0" MZ.TrackTargeted="1" PannerCurrentValue="0.5" PannerIsInverted="true" PannerStartKeyframe="-91445760000000000,0.5,0,0,0,0,0,0" PannerName="Balance" currentExplodedTrackIndex="0" totalExplodedTrackCount="2" premiereTrackType="Stereo">
									<clipitem id="clipitem-442" premiereChannelType="stereo">
										<masterclipid>masterclip-182</masterclipid>
										<name>ES_Time Out (Instrumental Version) - Adelyn Paik.mp3</name>
										<enabled>TRUE</enabled>
										<duration>5345</duration>
										<rate>
											<timebase>30</timebase>
											<ntsc>TRUE</ntsc>
										</rate>
										<start>0</start>
										<end>1754</end>
										<in>0</in>
										<out>1754</out>
										<pproTicksIn>0</pproTicksIn>
										<pproTicksOut>14866320268800</pproTicksOut>
										<file id="file-180">
											<name>ES_Time Out (Instrumental Version) - Adelyn Paik.mp3</name>
											<pathurl>file://localhost/Volumes/ATM%201/EYE%20CANDY/8%3a21%3a23/5_Assets/Music/ES_Time%20Out%20(Instrumental%20Version)%20-%20Adelyn%20Paik.mp3</pathurl>
											<rate>
												<timebase>30</timebase>
												<ntsc>TRUE</ntsc>
											</rate>
											<duration>5345</duration>
											<timecode>
												<rate>
													<timebase>30</timebase>
													<ntsc>TRUE</ntsc>
												</rate>
												<string>00;00;00;00</string>
												<frame>0</frame>
												<displayformat>DF</displayformat>
											</timecode>
											<media>
												<audio>
													<samplecharacteristics>
														<depth>16</depth>
														<samplerate>48000</samplerate>
													</samplecharacteristics>
													<channelcount>2</channelcount>
												</audio>
											</media>
										</file>
										<sourcetrack>
											<mediatype>audio</mediatype>
											<trackindex>1</trackindex>
										</sourcetrack>
										<link>
											<linkclipref>clipitem-442</linkclipref>
											<mediatype>audio</mediatype>
											<trackindex>1</trackindex>
											<clipindex>1</clipindex>
											<groupindex>1</groupindex>
										</link>
										<link>
											<linkclipref>clipitem-443</linkclipref>
											<mediatype>audio</mediatype>
											<trackindex>2</trackindex>
											<clipindex>1</clipindex>
											<groupindex>1</groupindex>
										</link>
										<logginginfo>
											<description></description>
											<scene></scene>
											<shottake></shottake>
											<lognote></lognote>
											<good></good>
											<originalvideofilename></originalvideofilename>
											<originalaudiofilename></originalaudiofilename>
										</logginginfo>
										<colorinfo>
											<lut></lut>
											<lut1></lut1>
											<asc_sop></asc_sop>
											<asc_sat></asc_sat>
											<lut2></lut2>
										</colorinfo>
										<labels>
											<label2>Caribbean</label2>
										</labels>
									</clipitem>
									<enabled>TRUE</enabled>
									<locked>FALSE</locked>
									<filter>
										<effect>
											<name>Audio Levels</name>
											<effectid>audiolevels</effectid>
											<effectcategory>audiolevels</effectcategory>
											<effecttype>audiolevels</effecttype>
											<mediatype>audio</mediatype>
											<parameter authoringApp="PremierePro">
												<parameterid>level</parameterid>
												<name>Level</name>
												<valuemin>0</valuemin>
												<valuemax>3.98109</valuemax>
												<value>0.706272</value>
											</parameter>
										</effect>
									</filter>
									<outputchannelindex>1</outputchannelindex>
								</track>
								<track TL.SQTrackAudioKeyframeStyle="0" TL.SQTrackShy="0" TL.SQTrackExpandedHeight="25" TL.SQTrackExpanded="0" MZ.TrackTargeted="1" PannerCurrentValue="0.5" PannerIsInverted="true" PannerStartKeyframe="-91445760000000000,0.5,0,0,0,0,0,0" PannerName="Balance" currentExplodedTrackIndex="1" totalExplodedTrackCount="2" premiereTrackType="Stereo">
									<clipitem id="clipitem-443" premiereChannelType="stereo">
										<masterclipid>masterclip-182</masterclipid>
										<name>ES_Time Out (Instrumental Version) - Adelyn Paik.mp3</name>
										<enabled>TRUE</enabled>
										<duration>5345</duration>
										<rate>
											<timebase>30</timebase>
											<ntsc>TRUE</ntsc>
										</rate>
										<start>0</start>
										<end>1754</end>
										<in>0</in>
										<out>1754</out>
										<pproTicksIn>0</pproTicksIn>
										<pproTicksOut>14866320268800</pproTicksOut>
										<file id="file-180"/>
										<sourcetrack>
											<mediatype>audio</mediatype>
											<trackindex>2</trackindex>
										</sourcetrack>
										<link>
											<linkclipref>clipitem-442</linkclipref>
											<mediatype>audio</mediatype>
											<trackindex>1</trackindex>
											<clipindex>1</clipindex>
											<groupindex>1</groupindex>
										</link>
										<link>
											<linkclipref>clipitem-443</linkclipref>
											<mediatype>audio</mediatype>
											<trackindex>2</trackindex>
											<clipindex>1</clipindex>
											<groupindex>1</groupindex>
										</link>
										<logginginfo>
											<description></description>
											<scene></scene>
											<shottake></shottake>
											<lognote></lognote>
											<good></good>
											<originalvideofilename></originalvideofilename>
											<originalaudiofilename></originalaudiofilename>
										</logginginfo>
										<colorinfo>
											<lut></lut>
											<lut1></lut1>
											<asc_sop></asc_sop>
											<asc_sat></asc_sat>
											<lut2></lut2>
										</colorinfo>
										<labels>
											<label2>Caribbean</label2>
										</labels>
									</clipitem>
									<enabled>TRUE</enabled>
									<locked>FALSE</locked>
									<filter>
										<effect>
											<name>Audio Levels</name>
											<effectid>audiolevels</effectid>
											<effectcategory>audiolevels</effectcategory>
											<effecttype>audiolevels</effecttype>
											<mediatype>audio</mediatype>
											<parameter authoringApp="PremierePro">
												<parameterid>level</parameterid>
												<name>Level</name>
												<valuemin>0</valuemin>
												<valuemax>3.98109</valuemax>
												<value>0.706272</value>
											</parameter>
										</effect>
									</filter>
									<outputchannelindex>2</outputchannelindex>
								</track>
								<track TL.SQTrackAudioKeyframeStyle="0" TL.SQTrackShy="0" TL.SQTrackExpandedHeight="25" TL.SQTrackExpanded="0" MZ.TrackTargeted="0" PannerCurrentValue="0.5" PannerIsInverted="true" PannerStartKeyframe="-91445760000000000,0.5,0,0,0,0,0,0" PannerName="Balance" currentExplodedTrackIndex="0" totalExplodedTrackCount="2" premiereTrackType="Stereo">
									<enabled>TRUE</enabled>
									<locked>FALSE</locked>
									<outputchannelindex>1</outputchannelindex>
								</track>
								<track TL.SQTrackAudioKeyframeStyle="0" TL.SQTrackShy="0" TL.SQTrackExpandedHeight="25" TL.SQTrackExpanded="0" MZ.TrackTargeted="0" PannerCurrentValue="0.5" PannerIsInverted="true" PannerStartKeyframe="-91445760000000000,0.5,0,0,0,0,0,0" PannerName="Balance" currentExplodedTrackIndex="1" totalExplodedTrackCount="2" premiereTrackType="Stereo">
									<enabled>TRUE</enabled>
									<locked>FALSE</locked>
									<outputchannelindex>2</outputchannelindex>
								</track>
								<track TL.SQTrackAudioKeyframeStyle="0" TL.SQTrackShy="0" TL.SQTrackExpandedHeight="25" TL.SQTrackExpanded="0" MZ.TrackTargeted="0" PannerCurrentValue="0.5" PannerIsInverted="true" PannerStartKeyframe="-91445760000000000,0.5,0,0,0,0,0,0" PannerName="Balance" currentExplodedTrackIndex="0" totalExplodedTrackCount="2" premiereTrackType="Stereo">
									<enabled>TRUE</enabled>
									<locked>FALSE</locked>
									<outputchannelindex>1</outputchannelindex>
								</track>
								<track TL.SQTrackAudioKeyframeStyle="0" TL.SQTrackShy="0" TL.SQTrackExpandedHeight="25" TL.SQTrackExpanded="0" MZ.TrackTargeted="0" PannerCurrentValue="0.5" PannerIsInverted="true" PannerStartKeyframe="-91445760000000000,0.5,0,0,0,0,0,0" PannerName="Balance" currentExplodedTrackIndex="1" totalExplodedTrackCount="2" premiereTrackType="Stereo">
									<enabled>TRUE</enabled>
									<locked>FALSE</locked>
									<outputchannelindex>2</outputchannelindex>
								</track>
								<track TL.SQTrackAudioKeyframeStyle="0" TL.SQTrackShy="0" TL.SQTrackExpandedHeight="25" TL.SQTrackExpanded="0" MZ.TrackTargeted="0" PannerCurrentValue="0.5" PannerIsInverted="true" PannerStartKeyframe="-91445760000000000,0.5,0,0,0,0,0,0" PannerName="Balance" currentExplodedTrackIndex="0" totalExplodedTrackCount="2" premiereTrackType="Stereo">
									<enabled>TRUE</enabled>
									<locked>FALSE</locked>
									<outputchannelindex>1</outputchannelindex>
								</track>
								<track TL.SQTrackAudioKeyframeStyle="0" TL.SQTrackShy="0" TL.SQTrackExpandedHeight="25" TL.SQTrackExpanded="0" MZ.TrackTargeted="0" PannerCurrentValue="0.5" PannerIsInverted="true" PannerStartKeyframe="-91445760000000000,0.5,0,0,0,0,0,0" PannerName="Balance" currentExplodedTrackIndex="1" totalExplodedTrackCount="2" premiereTrackType="Stereo">
									<enabled>TRUE</enabled>
									<locked>FALSE</locked>
									<outputchannelindex>2</outputchannelindex>
								</track>
								<track TL.SQTrackAudioKeyframeStyle="0" TL.SQTrackShy="0" TL.SQTrackExpandedHeight="25" TL.SQTrackExpanded="0" MZ.TrackTargeted="0" PannerCurrentValue="0.5" PannerIsInverted="true" PannerStartKeyframe="-91445760000000000,0.5,0,0,0,0,0,0" PannerName="Balance" currentExplodedTrackIndex="0" totalExplodedTrackCount="2" premiereTrackType="Stereo">
									<enabled>TRUE</enabled>
									<locked>FALSE</locked>
									<outputchannelindex>1</outputchannelindex>
								</track>
								<track TL.SQTrackAudioKeyframeStyle="0" TL.SQTrackShy="0" TL.SQTrackExpandedHeight="25" TL.SQTrackExpanded="0" MZ.TrackTargeted="0" PannerCurrentValue="0.5" PannerIsInverted="true" PannerStartKeyframe="-91445760000000000,0.5,0,0,0,0,0,0" PannerName="Balance" currentExplodedTrackIndex="1" totalExplodedTrackCount="2" premiereTrackType="Stereo">
									<enabled>TRUE</enabled>
									<locked>FALSE</locked>
									<outputchannelindex>2</outputchannelindex>
								</track>
								<track TL.SQTrackAudioKeyframeStyle="0" TL.SQTrackShy="0" TL.SQTrackExpandedHeight="25" TL.SQTrackExpanded="0" MZ.TrackTargeted="0" PannerCurrentValue="0.5" PannerIsInverted="true" PannerStartKeyframe="-91445760000000000,0.5,0,0,0,0,0,0" PannerName="Balance" currentExplodedTrackIndex="0" totalExplodedTrackCount="2" premiereTrackType="Stereo">
									<enabled>TRUE</enabled>
									<locked>FALSE</locked>
									<outputchannelindex>1</outputchannelindex>
								</track>
								<track TL.SQTrackAudioKeyframeStyle="0" TL.SQTrackShy="0" TL.SQTrackExpandedHeight="25" TL.SQTrackExpanded="0" MZ.TrackTargeted="0" PannerCurrentValue="0.5" PannerIsInverted="true" PannerStartKeyframe="-91445760000000000,0.5,0,0,0,0,0,0" PannerName="Balance" currentExplodedTrackIndex="1" totalExplodedTrackCount="2" premiereTrackType="Stereo">
									<enabled>TRUE</enabled>
									<locked>FALSE</locked>
									<outputchannelindex>2</outputchannelindex>
								</track>
								<track TL.SQTrackAudioKeyframeStyle="0" TL.SQTrackShy="0" TL.SQTrackExpandedHeight="25" TL.SQTrackExpanded="0" MZ.TrackTargeted="0" PannerCurrentValue="0.5" PannerIsInverted="true" PannerStartKeyframe="-91445760000000000,0.5,0,0,0,0,0,0" PannerName="Balance" currentExplodedTrackIndex="0" totalExplodedTrackCount="2" premiereTrackType="Stereo">
									<enabled>TRUE</enabled>
									<locked>FALSE</locked>
									<outputchannelindex>1</outputchannelindex>
								</track>
								<track TL.SQTrackAudioKeyframeStyle="0" TL.SQTrackShy="0" TL.SQTrackExpandedHeight="25" TL.SQTrackExpanded="0" MZ.TrackTargeted="0" PannerCurrentValue="0.5" PannerIsInverted="true" PannerStartKeyframe="-91445760000000000,0.5,0,0,0,0,0,0" PannerName="Balance" currentExplodedTrackIndex="1" totalExplodedTrackCount="2" premiereTrackType="Stereo">
									<enabled>TRUE</enabled>
									<locked>FALSE</locked>
									<outputchannelindex>2</outputchannelindex>
								</track>
								<track TL.SQTrackAudioKeyframeStyle="0" TL.SQTrackShy="0" TL.SQTrackExpandedHeight="25" TL.SQTrackExpanded="0" MZ.TrackTargeted="0" PannerCurrentValue="0.5" PannerIsInverted="true" PannerStartKeyframe="-91445760000000000,0.5,0,0,0,0,0,0" PannerName="Balance" currentExplodedTrackIndex="0" totalExplodedTrackCount="2" premiereTrackType="Stereo">
									<enabled>TRUE</enabled>
									<locked>FALSE</locked>
									<outputchannelindex>1</outputchannelindex>
								</track>
								<track TL.SQTrackAudioKeyframeStyle="0" TL.SQTrackShy="0" TL.SQTrackExpandedHeight="25" TL.SQTrackExpanded="0" MZ.TrackTargeted="0" PannerCurrentValue="0.5" PannerIsInverted="true" PannerStartKeyframe="-91445760000000000,0.5,0,0,0,0,0,0" PannerName="Balance" currentExplodedTrackIndex="1" totalExplodedTrackCount="2" premiereTrackType="Stereo">
									<enabled>TRUE</enabled>
									<locked>FALSE</locked>
									<outputchannelindex>2</outputchannelindex>
								</track>
								<track TL.SQTrackAudioKeyframeStyle="0" TL.SQTrackShy="0" TL.SQTrackExpandedHeight="25" TL.SQTrackExpanded="0" MZ.TrackTargeted="0" PannerCurrentValue="0.5" PannerIsInverted="true" PannerStartKeyframe="-91445760000000000,0.5,0,0,0,0,0,0" PannerName="Balance" currentExplodedTrackIndex="0" totalExplodedTrackCount="2" premiereTrackType="Stereo">
									<enabled>TRUE</enabled>
									<locked>FALSE</locked>
									<outputchannelindex>1</outputchannelindex>
								</track>
								<track TL.SQTrackAudioKeyframeStyle="0" TL.SQTrackShy="0" TL.SQTrackExpandedHeight="25" TL.SQTrackExpanded="0" MZ.TrackTargeted="0" PannerCurrentValue="0.5" PannerIsInverted="true" PannerStartKeyframe="-91445760000000000,0.5,0,0,0,0,0,0" PannerName="Balance" currentExplodedTrackIndex="1" totalExplodedTrackCount="2" premiereTrackType="Stereo">
									<enabled>TRUE</enabled>
									<locked>FALSE</locked>
									<outputchannelindex>2</outputchannelindex>
								</track>
								<track TL.SQTrackAudioKeyframeStyle="0" TL.SQTrackShy="0" TL.SQTrackExpandedHeight="25" TL.SQTrackExpanded="0" MZ.TrackTargeted="0" PannerCurrentValue="0.5" PannerIsInverted="true" PannerStartKeyframe="-91445760000000000,0.5,0,0,0,0,0,0" PannerName="Balance" currentExplodedTrackIndex="0" totalExplodedTrackCount="2" premiereTrackType="Stereo">
									<enabled>TRUE</enabled>
									<locked>FALSE</locked>
									<outputchannelindex>1</outputchannelindex>
								</track>
								<track TL.SQTrackAudioKeyframeStyle="0" TL.SQTrackShy="0" TL.SQTrackExpandedHeight="25" TL.SQTrackExpanded="0" MZ.TrackTargeted="0" PannerCurrentValue="0.5" PannerIsInverted="true" PannerStartKeyframe="-91445760000000000,0.5,0,0,0,0,0,0" PannerName="Balance" currentExplodedTrackIndex="1" totalExplodedTrackCount="2" premiereTrackType="Stereo">
									<enabled>TRUE</enabled>
									<locked>FALSE</locked>
									<outputchannelindex>2</outputchannelindex>
								</track>
							</audio>
						</media>
						<timecode>
							<rate>
								<timebase>30</timebase>
								<ntsc>TRUE</ntsc>
							</rate>
							<string>00;00;00;00</string>
							<frame>0</frame>
							<displayformat>DF</displayformat>
						</timecode>
						<labels>
							<label2>Forest</label2>
						</labels>
						<logginginfo>
							<description></description>
							<scene></scene>
							<shottake></shottake>
							<lognote></lognote>
							<good></good>
							<originalvideofilename></originalvideofilename>
							<originalaudiofilename></originalaudiofilename>
						</logginginfo>
					</sequence>
					<sequence id="sequence-10" TL.SQAudioVisibleBase="0" TL.SQVideoVisibleBase="0" TL.SQVisibleBaseTime="0" TL.SQAVDividerPosition="0.5" TL.SQHideShyTracks="0" TL.SQHeaderWidth="236" TL.SQDataTrackViewControlState="0" Monitor.ProgramZoomOut="11857458412800" Monitor.ProgramZoomIn="0" TL.SQTimePerPixel="0.072184793070247569" AM.TrackVScrollPosition="0" AM.TrackScrollPosition="0" MZ.EditLine="5865161702400" MZ.Sequence.PreviewFrameSizeHeight="1080" MZ.Sequence.PreviewFrameSizeWidth="1920" MZ.Sequence.AudioTimeDisplayFormat="200" MZ.Sequence.PreviewRenderingClassID="1061109567" MZ.Sequence.PreviewRenderingPresetCodec="1634755443" MZ.Sequence.PreviewRenderingPresetPath="EncoderPresets/SequencePreview/35d109db-457b-43c1-9452-9cb7be9f121c/QuickTime.epr" MZ.Sequence.PreviewUseMaxRenderQuality="false" MZ.Sequence.PreviewUseMaxBitDepth="false" MZ.Sequence.EditingModeGUID="35d109db-457b-43c1-9452-9cb7be9f121c" MZ.Sequence.VideoTimeDisplayFormat="102" MZ.WorkOutPoint="1262874412800" MZ.WorkInPoint="0" explodedTracks="true">
						<uuid>359e32d8-3ee1-49e6-9377-23d5fce75c0f</uuid>
						<duration>1399</duration>
						<rate>
							<timebase>30</timebase>
							<ntsc>TRUE</ntsc>
						</rate>
						<name>FND_Bee Who You Wanna Bee_1</name>
						<media>
							<video>
								<format>
									<samplecharacteristics>
										<rate>
											<timebase>30</timebase>
											<ntsc>TRUE</ntsc>
										</rate>
										<codec>
											<name>Apple ProRes 422</name>
											<appspecificdata>
												<appname>Final Cut Pro</appname>
												<appmanufacturer>Apple Inc.</appmanufacturer>
												<appversion>7.0</appversion>
												<data>
													<qtcodec>
														<codecname>Apple ProRes 422</codecname>
														<codectypename>Apple ProRes 422</codectypename>
														<codectypecode>apcn</codectypecode>
														<codecvendorcode>appl</codecvendorcode>
														<spatialquality>1024</spatialquality>
														<temporalquality>0</temporalquality>
														<keyframerate>0</keyframerate>
														<datarate>0</datarate>
													</qtcodec>
												</data>
											</appspecificdata>
										</codec>
										<width>1920</width>
										<height>1080</height>
										<anamorphic>FALSE</anamorphic>
										<pixelaspectratio>square</pixelaspectratio>
										<fielddominance>none</fielddominance>
										<colordepth>24</colordepth>
									</samplecharacteristics>
								</format>
								<track TL.SQTrackShy="0" TL.SQTrackExpandedHeight="25" TL.SQTrackExpanded="0" MZ.TrackTargeted="1">
									<clipitem id="clipitem-444">
										<masterclipid>masterclip-59</masterclipid>
										<name>524000_Honeycomb Honey Production Sticky Beehive_By_Dmitrii_Borovikov__Artlist_HD.mp4</name>
										<enabled>TRUE</enabled>
										<duration>420</duration>
										<rate>
											<timebase>30</timebase>
											<ntsc>TRUE</ntsc>
										</rate>
										<start>0</start>
										<end>249</end>
										<in>0</in>
										<out>249</out>
										<pproTicksIn>0</pproTicksIn>
										<pproTicksOut>2110441132800</pproTicksOut>
										<alphatype>none</alphatype>
										<file id="file-59"/>
										<logginginfo>
											<description></description>
											<scene></scene>
											<shottake></shottake>
											<lognote></lognote>
											<good></good>
											<originalvideofilename></originalvideofilename>
											<originalaudiofilename></originalaudiofilename>
										</logginginfo>
										<colorinfo>
											<lut></lut>
											<lut1></lut1>
											<asc_sop></asc_sop>
											<asc_sat></asc_sat>
											<lut2></lut2>
										</colorinfo>
									</clipitem>
									<clipitem id="clipitem-445">
										<masterclipid>masterclip-62</masterclipid>
										<name>524003_Honeycomb Honey Production Sweet Dripping_By_Dmitrii_Borovikov__Artlist_HD.mp4</name>
										<enabled>TRUE</enabled>
										<duration>500</duration>
										<rate>
											<timebase>30</timebase>
											<ntsc>TRUE</ntsc>
										</rate>
										<start>249</start>
										<end>509</end>
										<in>148</in>
										<out>408</out>
										<pproTicksIn>1254398745600</pproTicksIn>
										<pproTicksOut>3458072217600</pproTicksOut>
										<alphatype>none</alphatype>
										<file id="file-62"/>
										<logginginfo>
											<description></description>
											<scene></scene>
											<shottake></shottake>
											<lognote></lognote>
											<good></good>
											<originalvideofilename></originalvideofilename>
											<originalaudiofilename></originalaudiofilename>
										</logginginfo>
										<colorinfo>
											<lut></lut>
											<lut1></lut1>
											<asc_sop></asc_sop>
											<asc_sat></asc_sat>
											<lut2></lut2>
										</colorinfo>
									</clipitem>
									<clipitem id="clipitem-446">
										<masterclipid>masterclip-60</masterclipid>
										<name>524001_Honeycomb Honey Production Beehive Knife_By_Dmitrii_Borovikov__Artlist_HD.mp4</name>
										<enabled>TRUE</enabled>
										<duration>333</duration>
										<rate>
											<timebase>30</timebase>
											<ntsc>TRUE</ntsc>
										</rate>
										<start>509</start>
										<end>842</end>
										<in>0</in>
										<out>333</out>
										<pproTicksIn>0</pproTicksIn>
										<pproTicksOut>2822397177600</pproTicksOut>
										<alphatype>none</alphatype>
										<file id="file-60"/>
										<logginginfo>
											<description></description>
											<scene></scene>
											<shottake></shottake>
											<lognote></lognote>
											<good></good>
											<originalvideofilename></originalvideofilename>
											<originalaudiofilename></originalaudiofilename>
										</logginginfo>
										<colorinfo>
											<lut></lut>
											<lut1></lut1>
											<asc_sop></asc_sop>
											<asc_sat></asc_sat>
											<lut2></lut2>
										</colorinfo>
									</clipitem>
									<clipitem id="clipitem-447">
										<masterclipid>masterclip-61</masterclipid>
										<name>524002_Honeycomb Honey Production Knife Sticky_By_Dmitrii_Borovikov__Artlist_HD.mp4</name>
										<enabled>TRUE</enabled>
										<duration>429</duration>
										<rate>
											<timebase>30</timebase>
											<ntsc>TRUE</ntsc>
										</rate>
										<start>842</start>
										<end>1143</end>
										<in>63</in>
										<out>364</out>
										<pproTicksIn>533967033600</pproTicksIn>
										<pproTicksOut>3085142860800</pproTicksOut>
										<alphatype>none</alphatype>
										<file id="file-61"/>
										<logginginfo>
											<description></description>
											<scene></scene>
											<shottake></shottake>
											<lognote></lognote>
											<good></good>
											<originalvideofilename></originalvideofilename>
											<originalaudiofilename></originalaudiofilename>
										</logginginfo>
										<colorinfo>
											<lut></lut>
											<lut1></lut1>
											<asc_sop></asc_sop>
											<asc_sat></asc_sat>
											<lut2></lut2>
										</colorinfo>
									</clipitem>
									<clipitem id="clipitem-448">
										<masterclipid>masterclip-63</masterclipid>
										<name>524004_Honey Production Honeycomb Hands Dripping_By_Dmitrii_Borovikov__Artlist_HD.mp4</name>
										<enabled>TRUE</enabled>
										<duration>564</duration>
										<rate>
											<timebase>30</timebase>
											<ntsc>TRUE</ntsc>
										</rate>
										<start>1143</start>
										<end>1399</end>
										<in>29</in>
										<out>285</out>
										<pproTicksIn>245794348800</pproTicksIn>
										<pproTicksOut>2415565152000</pproTicksOut>
										<alphatype>none</alphatype>
										<file id="file-63"/>
										<logginginfo>
											<description></description>
											<scene></scene>
											<shottake></shottake>
											<lognote></lognote>
											<good></good>
											<originalvideofilename></originalvideofilename>
											<originalaudiofilename></originalaudiofilename>
										</logginginfo>
										<colorinfo>
											<lut></lut>
											<lut1></lut1>
											<asc_sop></asc_sop>
											<asc_sat></asc_sat>
											<lut2></lut2>
										</colorinfo>
									</clipitem>
									<enabled>TRUE</enabled>
									<locked>FALSE</locked>
								</track>
								<track TL.SQTrackShy="0" TL.SQTrackExpandedHeight="25" TL.SQTrackExpanded="0" MZ.TrackTargeted="0">
									<enabled>TRUE</enabled>
									<locked>FALSE</locked>
								</track>
								<track TL.SQTrackShy="0" TL.SQTrackExpandedHeight="25" TL.SQTrackExpanded="0" MZ.TrackTargeted="0">
									<enabled>TRUE</enabled>
									<locked>FALSE</locked>
								</track>
								<track TL.SQTrackShy="0" TL.SQTrackExpandedHeight="25" TL.SQTrackExpanded="0" MZ.TrackTargeted="0">
									<enabled>TRUE</enabled>
									<locked>FALSE</locked>
								</track>
								<track TL.SQTrackShy="0" TL.SQTrackExpandedHeight="25" TL.SQTrackExpanded="0" MZ.TrackTargeted="0">
									<enabled>TRUE</enabled>
									<locked>FALSE</locked>
								</track>
								<track TL.SQTrackShy="0" TL.SQTrackExpandedHeight="25" TL.SQTrackExpanded="0" MZ.TrackTargeted="0">
									<enabled>TRUE</enabled>
									<locked>FALSE</locked>
								</track>
								<track TL.SQTrackShy="0" TL.SQTrackExpandedHeight="25" TL.SQTrackExpanded="0" MZ.TrackTargeted="0">
									<enabled>TRUE</enabled>
									<locked>FALSE</locked>
								</track>
								<track TL.SQTrackShy="0" TL.SQTrackExpandedHeight="25" TL.SQTrackExpanded="0" MZ.TrackTargeted="0">
									<enabled>TRUE</enabled>
									<locked>FALSE</locked>
								</track>
								<track TL.SQTrackShy="0" TL.SQTrackExpandedHeight="25" TL.SQTrackExpanded="0" MZ.TrackTargeted="0">
									<enabled>TRUE</enabled>
									<locked>FALSE</locked>
								</track>
								<track TL.SQTrackShy="0" TL.SQTrackExpandedHeight="25" TL.SQTrackExpanded="0" MZ.TrackTargeted="0">
									<enabled>TRUE</enabled>
									<locked>FALSE</locked>
								</track>
							</video>
							<audio>
								<numOutputChannels>2</numOutputChannels>
								<format>
									<samplecharacteristics>
										<depth>16</depth>
										<samplerate>48000</samplerate>
									</samplecharacteristics>
								</format>
								<outputs>
									<group>
										<index>1</index>
										<numchannels>1</numchannels>
										<downmix>0</downmix>
										<channel>
											<index>1</index>
										</channel>
									</group>
									<group>
										<index>2</index>
										<numchannels>1</numchannels>
										<downmix>0</downmix>
										<channel>
											<index>2</index>
										</channel>
									</group>
								</outputs>
								<track TL.SQTrackAudioKeyframeStyle="0" TL.SQTrackShy="0" TL.SQTrackExpandedHeight="25" TL.SQTrackExpanded="0" MZ.TrackTargeted="1" PannerCurrentValue="0.5" PannerIsInverted="true" PannerStartKeyframe="-91445760000000000,0.5,0,0,0,0,0,0" PannerName="Balance" currentExplodedTrackIndex="0" totalExplodedTrackCount="2" premiereTrackType="Stereo">
									<clipitem id="clipitem-449" premiereChannelType="stereo">
										<masterclipid>masterclip-183</masterclipid>
										<name>ES_Malibu Crush - Dylan Sitts.mp3</name>
										<enabled>TRUE</enabled>
										<duration>3722</duration>
										<rate>
											<timebase>30</timebase>
											<ntsc>TRUE</ntsc>
										</rate>
										<start>0</start>
										<end>1399</end>
										<in>0</in>
										<out>1399</out>
										<pproTicksIn>0</pproTicksIn>
										<pproTicksOut>11857458412800</pproTicksOut>
										<file id="file-181">
											<name>ES_Malibu Crush - Dylan Sitts.mp3</name>
											<pathurl>file://localhost/Volumes/ATM%201/EYE%20CANDY/8%3a21%3a23/5_Assets/Music/ES_Malibu%20Crush%20-%20Dylan%20Sitts.mp3</pathurl>
											<rate>
												<timebase>30</timebase>
												<ntsc>TRUE</ntsc>
											</rate>
											<duration>3722</duration>
											<timecode>
												<rate>
													<timebase>30</timebase>
													<ntsc>TRUE</ntsc>
												</rate>
												<string>00;00;00;00</string>
												<frame>0</frame>
												<displayformat>DF</displayformat>
											</timecode>
											<media>
												<audio>
													<samplecharacteristics>
														<depth>16</depth>
														<samplerate>48000</samplerate>
													</samplecharacteristics>
													<channelcount>2</channelcount>
												</audio>
											</media>
										</file>
										<sourcetrack>
											<mediatype>audio</mediatype>
											<trackindex>1</trackindex>
										</sourcetrack>
										<link>
											<linkclipref>clipitem-449</linkclipref>
											<mediatype>audio</mediatype>
											<trackindex>1</trackindex>
											<clipindex>1</clipindex>
											<groupindex>1</groupindex>
										</link>
										<link>
											<linkclipref>clipitem-450</linkclipref>
											<mediatype>audio</mediatype>
											<trackindex>2</trackindex>
											<clipindex>1</clipindex>
											<groupindex>1</groupindex>
										</link>
										<logginginfo>
											<description></description>
											<scene></scene>
											<shottake></shottake>
											<lognote></lognote>
											<good></good>
											<originalvideofilename></originalvideofilename>
											<originalaudiofilename></originalaudiofilename>
										</logginginfo>
										<colorinfo>
											<lut></lut>
											<lut1></lut1>
											<asc_sop></asc_sop>
											<asc_sat></asc_sat>
											<lut2></lut2>
										</colorinfo>
										<labels>
											<label2>Caribbean</label2>
										</labels>
									</clipitem>
									<enabled>TRUE</enabled>
									<locked>FALSE</locked>
									<filter>
										<effect>
											<name>Audio Levels</name>
											<effectid>audiolevels</effectid>
											<effectcategory>audiolevels</effectcategory>
											<effecttype>audiolevels</effecttype>
											<mediatype>audio</mediatype>
											<parameter authoringApp="PremierePro">
												<parameterid>level</parameterid>
												<name>Level</name>
												<valuemin>0</valuemin>
												<valuemax>3.98109</valuemax>
												<value>0.706272</value>
											</parameter>
										</effect>
									</filter>
									<outputchannelindex>1</outputchannelindex>
								</track>
								<track TL.SQTrackAudioKeyframeStyle="0" TL.SQTrackShy="0" TL.SQTrackExpandedHeight="25" TL.SQTrackExpanded="0" MZ.TrackTargeted="1" PannerCurrentValue="0.5" PannerIsInverted="true" PannerStartKeyframe="-91445760000000000,0.5,0,0,0,0,0,0" PannerName="Balance" currentExplodedTrackIndex="1" totalExplodedTrackCount="2" premiereTrackType="Stereo">
									<clipitem id="clipitem-450" premiereChannelType="stereo">
										<masterclipid>masterclip-183</masterclipid>
										<name>ES_Malibu Crush - Dylan Sitts.mp3</name>
										<enabled>TRUE</enabled>
										<duration>3722</duration>
										<rate>
											<timebase>30</timebase>
											<ntsc>TRUE</ntsc>
										</rate>
										<start>0</start>
										<end>1399</end>
										<in>0</in>
										<out>1399</out>
										<pproTicksIn>0</pproTicksIn>
										<pproTicksOut>11857458412800</pproTicksOut>
										<file id="file-181"/>
										<sourcetrack>
											<mediatype>audio</mediatype>
											<trackindex>2</trackindex>
										</sourcetrack>
										<link>
											<linkclipref>clipitem-449</linkclipref>
											<mediatype>audio</mediatype>
											<trackindex>1</trackindex>
											<clipindex>1</clipindex>
											<groupindex>1</groupindex>
										</link>
										<link>
											<linkclipref>clipitem-450</linkclipref>
											<mediatype>audio</mediatype>
											<trackindex>2</trackindex>
											<clipindex>1</clipindex>
											<groupindex>1</groupindex>
										</link>
										<logginginfo>
											<description></description>
											<scene></scene>
											<shottake></shottake>
											<lognote></lognote>
											<good></good>
											<originalvideofilename></originalvideofilename>
											<originalaudiofilename></originalaudiofilename>
										</logginginfo>
										<colorinfo>
											<lut></lut>
											<lut1></lut1>
											<asc_sop></asc_sop>
											<asc_sat></asc_sat>
											<lut2></lut2>
										</colorinfo>
										<labels>
											<label2>Caribbean</label2>
										</labels>
									</clipitem>
									<enabled>TRUE</enabled>
									<locked>FALSE</locked>
									<filter>
										<effect>
											<name>Audio Levels</name>
											<effectid>audiolevels</effectid>
											<effectcategory>audiolevels</effectcategory>
											<effecttype>audiolevels</effecttype>
											<mediatype>audio</mediatype>
											<parameter authoringApp="PremierePro">
												<parameterid>level</parameterid>
												<name>Level</name>
												<valuemin>0</valuemin>
												<valuemax>3.98109</valuemax>
												<value>0.706272</value>
											</parameter>
										</effect>
									</filter>
									<outputchannelindex>2</outputchannelindex>
								</track>
								<track TL.SQTrackAudioKeyframeStyle="0" TL.SQTrackShy="0" TL.SQTrackExpandedHeight="25" TL.SQTrackExpanded="0" MZ.TrackTargeted="0" PannerCurrentValue="0.5" PannerIsInverted="true" PannerStartKeyframe="-91445760000000000,0.5,0,0,0,0,0,0" PannerName="Balance" currentExplodedTrackIndex="0" totalExplodedTrackCount="2" premiereTrackType="Stereo">
									<enabled>TRUE</enabled>
									<locked>FALSE</locked>
									<outputchannelindex>1</outputchannelindex>
								</track>
								<track TL.SQTrackAudioKeyframeStyle="0" TL.SQTrackShy="0" TL.SQTrackExpandedHeight="25" TL.SQTrackExpanded="0" MZ.TrackTargeted="0" PannerCurrentValue="0.5" PannerIsInverted="true" PannerStartKeyframe="-91445760000000000,0.5,0,0,0,0,0,0" PannerName="Balance" currentExplodedTrackIndex="1" totalExplodedTrackCount="2" premiereTrackType="Stereo">
									<enabled>TRUE</enabled>
									<locked>FALSE</locked>
									<outputchannelindex>2</outputchannelindex>
								</track>
								<track TL.SQTrackAudioKeyframeStyle="0" TL.SQTrackShy="0" TL.SQTrackExpandedHeight="25" TL.SQTrackExpanded="0" MZ.TrackTargeted="0" PannerCurrentValue="0.5" PannerIsInverted="true" PannerStartKeyframe="-91445760000000000,0.5,0,0,0,0,0,0" PannerName="Balance" currentExplodedTrackIndex="0" totalExplodedTrackCount="2" premiereTrackType="Stereo">
									<enabled>TRUE</enabled>
									<locked>FALSE</locked>
									<outputchannelindex>1</outputchannelindex>
								</track>
								<track TL.SQTrackAudioKeyframeStyle="0" TL.SQTrackShy="0" TL.SQTrackExpandedHeight="25" TL.SQTrackExpanded="0" MZ.TrackTargeted="0" PannerCurrentValue="0.5" PannerIsInverted="true" PannerStartKeyframe="-91445760000000000,0.5,0,0,0,0,0,0" PannerName="Balance" currentExplodedTrackIndex="1" totalExplodedTrackCount="2" premiereTrackType="Stereo">
									<enabled>TRUE</enabled>
									<locked>FALSE</locked>
									<outputchannelindex>2</outputchannelindex>
								</track>
								<track TL.SQTrackAudioKeyframeStyle="0" TL.SQTrackShy="0" TL.SQTrackExpandedHeight="25" TL.SQTrackExpanded="0" MZ.TrackTargeted="0" PannerCurrentValue="0.5" PannerIsInverted="true" PannerStartKeyframe="-91445760000000000,0.5,0,0,0,0,0,0" PannerName="Balance" currentExplodedTrackIndex="0" totalExplodedTrackCount="2" premiereTrackType="Stereo">
									<enabled>TRUE</enabled>
									<locked>FALSE</locked>
									<outputchannelindex>1</outputchannelindex>
								</track>
								<track TL.SQTrackAudioKeyframeStyle="0" TL.SQTrackShy="0" TL.SQTrackExpandedHeight="25" TL.SQTrackExpanded="0" MZ.TrackTargeted="0" PannerCurrentValue="0.5" PannerIsInverted="true" PannerStartKeyframe="-91445760000000000,0.5,0,0,0,0,0,0" PannerName="Balance" currentExplodedTrackIndex="1" totalExplodedTrackCount="2" premiereTrackType="Stereo">
									<enabled>TRUE</enabled>
									<locked>FALSE</locked>
									<outputchannelindex>2</outputchannelindex>
								</track>
								<track TL.SQTrackAudioKeyframeStyle="0" TL.SQTrackShy="0" TL.SQTrackExpandedHeight="25" TL.SQTrackExpanded="0" MZ.TrackTargeted="0" PannerCurrentValue="0.5" PannerIsInverted="true" PannerStartKeyframe="-91445760000000000,0.5,0,0,0,0,0,0" PannerName="Balance" currentExplodedTrackIndex="0" totalExplodedTrackCount="2" premiereTrackType="Stereo">
									<enabled>TRUE</enabled>
									<locked>FALSE</locked>
									<outputchannelindex>1</outputchannelindex>
								</track>
								<track TL.SQTrackAudioKeyframeStyle="0" TL.SQTrackShy="0" TL.SQTrackExpandedHeight="25" TL.SQTrackExpanded="0" MZ.TrackTargeted="0" PannerCurrentValue="0.5" PannerIsInverted="true" PannerStartKeyframe="-91445760000000000,0.5,0,0,0,0,0,0" PannerName="Balance" currentExplodedTrackIndex="1" totalExplodedTrackCount="2" premiereTrackType="Stereo">
									<enabled>TRUE</enabled>
									<locked>FALSE</locked>
									<outputchannelindex>2</outputchannelindex>
								</track>
								<track TL.SQTrackAudioKeyframeStyle="0" TL.SQTrackShy="0" TL.SQTrackExpandedHeight="25" TL.SQTrackExpanded="0" MZ.TrackTargeted="0" PannerCurrentValue="0.5" PannerIsInverted="true" PannerStartKeyframe="-91445760000000000,0.5,0,0,0,0,0,0" PannerName="Balance" currentExplodedTrackIndex="0" totalExplodedTrackCount="2" premiereTrackType="Stereo">
									<enabled>TRUE</enabled>
									<locked>FALSE</locked>
									<outputchannelindex>1</outputchannelindex>
								</track>
								<track TL.SQTrackAudioKeyframeStyle="0" TL.SQTrackShy="0" TL.SQTrackExpandedHeight="25" TL.SQTrackExpanded="0" MZ.TrackTargeted="0" PannerCurrentValue="0.5" PannerIsInverted="true" PannerStartKeyframe="-91445760000000000,0.5,0,0,0,0,0,0" PannerName="Balance" currentExplodedTrackIndex="1" totalExplodedTrackCount="2" premiereTrackType="Stereo">
									<enabled>TRUE</enabled>
									<locked>FALSE</locked>
									<outputchannelindex>2</outputchannelindex>
								</track>
								<track TL.SQTrackAudioKeyframeStyle="0" TL.SQTrackShy="0" TL.SQTrackExpandedHeight="25" TL.SQTrackExpanded="0" MZ.TrackTargeted="0" PannerCurrentValue="0.5" PannerIsInverted="true" PannerStartKeyframe="-91445760000000000,0.5,0,0,0,0,0,0" PannerName="Balance" currentExplodedTrackIndex="0" totalExplodedTrackCount="2" premiereTrackType="Stereo">
									<enabled>TRUE</enabled>
									<locked>FALSE</locked>
									<outputchannelindex>1</outputchannelindex>
								</track>
								<track TL.SQTrackAudioKeyframeStyle="0" TL.SQTrackShy="0" TL.SQTrackExpandedHeight="25" TL.SQTrackExpanded="0" MZ.TrackTargeted="0" PannerCurrentValue="0.5" PannerIsInverted="true" PannerStartKeyframe="-91445760000000000,0.5,0,0,0,0,0,0" PannerName="Balance" currentExplodedTrackIndex="1" totalExplodedTrackCount="2" premiereTrackType="Stereo">
									<enabled>TRUE</enabled>
									<locked>FALSE</locked>
									<outputchannelindex>2</outputchannelindex>
								</track>
								<track TL.SQTrackAudioKeyframeStyle="0" TL.SQTrackShy="0" TL.SQTrackExpandedHeight="25" TL.SQTrackExpanded="0" MZ.TrackTargeted="0" PannerCurrentValue="0.5" PannerIsInverted="true" PannerStartKeyframe="-91445760000000000,0.5,0,0,0,0,0,0" PannerName="Balance" currentExplodedTrackIndex="0" totalExplodedTrackCount="2" premiereTrackType="Stereo">
									<enabled>TRUE</enabled>
									<locked>FALSE</locked>
									<outputchannelindex>1</outputchannelindex>
								</track>
								<track TL.SQTrackAudioKeyframeStyle="0" TL.SQTrackShy="0" TL.SQTrackExpandedHeight="25" TL.SQTrackExpanded="0" MZ.TrackTargeted="0" PannerCurrentValue="0.5" PannerIsInverted="true" PannerStartKeyframe="-91445760000000000,0.5,0,0,0,0,0,0" PannerName="Balance" currentExplodedTrackIndex="1" totalExplodedTrackCount="2" premiereTrackType="Stereo">
									<enabled>TRUE</enabled>
									<locked>FALSE</locked>
									<outputchannelindex>2</outputchannelindex>
								</track>
								<track TL.SQTrackAudioKeyframeStyle="0" TL.SQTrackShy="0" TL.SQTrackExpandedHeight="25" TL.SQTrackExpanded="0" MZ.TrackTargeted="0" PannerCurrentValue="0.5" PannerIsInverted="true" PannerStartKeyframe="-91445760000000000,0.5,0,0,0,0,0,0" PannerName="Balance" currentExplodedTrackIndex="0" totalExplodedTrackCount="2" premiereTrackType="Stereo">
									<enabled>TRUE</enabled>
									<locked>FALSE</locked>
									<outputchannelindex>1</outputchannelindex>
								</track>
								<track TL.SQTrackAudioKeyframeStyle="0" TL.SQTrackShy="0" TL.SQTrackExpandedHeight="25" TL.SQTrackExpanded="0" MZ.TrackTargeted="0" PannerCurrentValue="0.5" PannerIsInverted="true" PannerStartKeyframe="-91445760000000000,0.5,0,0,0,0,0,0" PannerName="Balance" currentExplodedTrackIndex="1" totalExplodedTrackCount="2" premiereTrackType="Stereo">
									<enabled>TRUE</enabled>
									<locked>FALSE</locked>
									<outputchannelindex>2</outputchannelindex>
								</track>
								<track TL.SQTrackAudioKeyframeStyle="0" TL.SQTrackShy="0" TL.SQTrackExpandedHeight="25" TL.SQTrackExpanded="0" MZ.TrackTargeted="0" PannerCurrentValue="0.5" PannerIsInverted="true" PannerStartKeyframe="-91445760000000000,0.5,0,0,0,0,0,0" PannerName="Balance" currentExplodedTrackIndex="0" totalExplodedTrackCount="2" premiereTrackType="Stereo">
									<enabled>TRUE</enabled>
									<locked>FALSE</locked>
									<outputchannelindex>1</outputchannelindex>
								</track>
								<track TL.SQTrackAudioKeyframeStyle="0" TL.SQTrackShy="0" TL.SQTrackExpandedHeight="25" TL.SQTrackExpanded="0" MZ.TrackTargeted="0" PannerCurrentValue="0.5" PannerIsInverted="true" PannerStartKeyframe="-91445760000000000,0.5,0,0,0,0,0,0" PannerName="Balance" currentExplodedTrackIndex="1" totalExplodedTrackCount="2" premiereTrackType="Stereo">
									<enabled>TRUE</enabled>
									<locked>FALSE</locked>
									<outputchannelindex>2</outputchannelindex>
								</track>
							</audio>
						</media>
						<timecode>
							<rate>
								<timebase>30</timebase>
								<ntsc>TRUE</ntsc>
							</rate>
							<string>00;00;00;00</string>
							<frame>0</frame>
							<displayformat>DF</displayformat>
						</timecode>
						<labels>
							<label2>Forest</label2>
						</labels>
						<logginginfo>
							<description></description>
							<scene></scene>
							<shottake></shottake>
							<lognote></lognote>
							<good></good>
							<originalvideofilename></originalvideofilename>
							<originalaudiofilename></originalaudiofilename>
						</logginginfo>
					</sequence>
					<sequence id="sequence-11" TL.SQAudioVisibleBase="0" TL.SQVideoVisibleBase="0" TL.SQVisibleBaseTime="0" TL.SQAVDividerPosition="0.5" TL.SQHideShyTracks="0" TL.SQHeaderWidth="236" TL.SQDataTrackViewControlState="0" Monitor.ProgramZoomOut="13061003155200" Monitor.ProgramZoomIn="0" TL.SQTimePerPixel="0.072184793070247569" AM.TrackVScrollPosition="0" AM.TrackScrollPosition="0" MZ.EditLine="0" MZ.Sequence.PreviewFrameSizeHeight="1080" MZ.Sequence.PreviewFrameSizeWidth="1920" MZ.Sequence.AudioTimeDisplayFormat="200" MZ.Sequence.PreviewRenderingClassID="1061109567" MZ.Sequence.PreviewRenderingPresetCodec="1634755443" MZ.Sequence.PreviewRenderingPresetPath="EncoderPresets/SequencePreview/35d109db-457b-43c1-9452-9cb7be9f121c/QuickTime.epr" MZ.Sequence.PreviewUseMaxRenderQuality="false" MZ.Sequence.PreviewUseMaxBitDepth="false" MZ.Sequence.EditingModeGUID="35d109db-457b-43c1-9452-9cb7be9f121c" MZ.Sequence.VideoTimeDisplayFormat="102" MZ.WorkOutPoint="1262874412800" MZ.WorkInPoint="0" explodedTracks="true">
						<uuid>c6235250-961d-4370-bb6a-8451fa7b93c2</uuid>
						<duration>1541</duration>
						<rate>
							<timebase>30</timebase>
							<ntsc>TRUE</ntsc>
						</rate>
						<name>FND_Groovy Smoothie_1</name>
						<media>
							<video>
								<format>
									<samplecharacteristics>
										<rate>
											<timebase>30</timebase>
											<ntsc>TRUE</ntsc>
										</rate>
										<codec>
											<name>Apple ProRes 422</name>
											<appspecificdata>
												<appname>Final Cut Pro</appname>
												<appmanufacturer>Apple Inc.</appmanufacturer>
												<appversion>7.0</appversion>
												<data>
													<qtcodec>
														<codecname>Apple ProRes 422</codecname>
														<codectypename>Apple ProRes 422</codectypename>
														<codectypecode>apcn</codectypecode>
														<codecvendorcode>appl</codecvendorcode>
														<spatialquality>1024</spatialquality>
														<temporalquality>0</temporalquality>
														<keyframerate>0</keyframerate>
														<datarate>0</datarate>
													</qtcodec>
												</data>
											</appspecificdata>
										</codec>
										<width>1920</width>
										<height>1080</height>
										<anamorphic>FALSE</anamorphic>
										<pixelaspectratio>square</pixelaspectratio>
										<fielddominance>none</fielddominance>
										<colordepth>24</colordepth>
									</samplecharacteristics>
								</format>
								<track TL.SQTrackShy="0" TL.SQTrackExpandedHeight="25" TL.SQTrackExpanded="0" MZ.TrackTargeted="1">
									<clipitem id="clipitem-451">
										<masterclipid>masterclip-72</masterclipid>
										<name>561537_Blender Milkshake Fruits Milk_By_Stockbusters_Artlist_HD.mp4</name>
										<enabled>TRUE</enabled>
										<duration>252</duration>
										<rate>
											<timebase>30</timebase>
											<ntsc>TRUE</ntsc>
										</rate>
										<start>0</start>
										<end>151</end>
										<in>0</in>
										<out>151</out>
										<pproTicksIn>0</pproTicksIn>
										<pproTicksOut>1279825747200</pproTicksOut>
										<alphatype>none</alphatype>
										<file id="file-72"/>
										<filter>
											<effect>
												<name>Basic Motion</name>
												<effectid>basic</effectid>
												<effectcategory>motion</effectcategory>
												<effecttype>motion</effecttype>
												<mediatype>video</mediatype>
												<pproBypass>false</pproBypass>
												<parameter authoringApp="PremierePro">
													<parameterid>scale</parameterid>
													<name>Scale</name>
													<valuemin>0</valuemin>
													<valuemax>1000</valuemax>
													<value>100</value>
													<keyframe>
														<when>0</when>
														<value>108</value>
													</keyframe>
													<keyframe>
														<when>151</when>
														<value>100</value>
													</keyframe>
												</parameter>
												<parameter authoringApp="PremierePro">
													<parameterid>rotation</parameterid>
													<name>Rotation</name>
													<valuemin>-8640</valuemin>
													<valuemax>8640</valuemax>
													<value>0</value>
												</parameter>
												<parameter authoringApp="PremierePro">
													<parameterid>center</parameterid>
													<name>Center</name>
													<value>
														<horiz>0</horiz>
														<vert>0</vert>
													</value>
												</parameter>
												<parameter authoringApp="PremierePro">
													<parameterid>centerOffset</parameterid>
													<name>Anchor Point</name>
													<value>
														<horiz>0</horiz>
														<vert>0</vert>
													</value>
												</parameter>
												<parameter authoringApp="PremierePro">
													<parameterid>antiflicker</parameterid>
													<name>Anti-flicker Filter</name>
													<valuemin>0.0</valuemin>
													<valuemax>1.0</valuemax>
													<value>0</value>
												</parameter>
											</effect>
										</filter>
										<logginginfo>
											<description></description>
											<scene></scene>
											<shottake></shottake>
											<lognote></lognote>
											<good></good>
											<originalvideofilename></originalvideofilename>
											<originalaudiofilename></originalaudiofilename>
										</logginginfo>
										<colorinfo>
											<lut></lut>
											<lut1></lut1>
											<asc_sop></asc_sop>
											<asc_sat></asc_sat>
											<lut2></lut2>
										</colorinfo>
									</clipitem>
									<clipitem id="clipitem-452">
										<masterclipid>masterclip-64</masterclipid>
										<name>561511_Blender Top Shot Milkshake Fruits_By_Stockbusters_Artlist_HD.mp4</name>
										<enabled>TRUE</enabled>
										<duration>154</duration>
										<rate>
											<timebase>30</timebase>
											<ntsc>TRUE</ntsc>
										</rate>
										<start>151</start>
										<end>281</end>
										<in>0</in>
										<out>130</out>
										<pproTicksIn>0</pproTicksIn>
										<pproTicksOut>1101836736000</pproTicksOut>
										<alphatype>none</alphatype>
										<file id="file-64"/>
										<filter>
											<effect>
												<name>Basic Motion</name>
												<effectid>basic</effectid>
												<effectcategory>motion</effectcategory>
												<effecttype>motion</effecttype>
												<mediatype>video</mediatype>
												<pproBypass>false</pproBypass>
												<parameter authoringApp="PremierePro">
													<parameterid>scale</parameterid>
													<name>Scale</name>
													<valuemin>0</valuemin>
													<valuemax>1000</valuemax>
													<value>100</value>
													<keyframe>
														<when>0</when>
														<value>116</value>
													</keyframe>
													<keyframe>
														<when>130</when>
														<value>100</value>
													</keyframe>
												</parameter>
												<parameter authoringApp="PremierePro">
													<parameterid>rotation</parameterid>
													<name>Rotation</name>
													<valuemin>-8640</valuemin>
													<valuemax>8640</valuemax>
													<value>0</value>
												</parameter>
												<parameter authoringApp="PremierePro">
													<parameterid>center</parameterid>
													<name>Center</name>
													<value>
														<horiz>0</horiz>
														<vert>0</vert>
													</value>
												</parameter>
												<parameter authoringApp="PremierePro">
													<parameterid>centerOffset</parameterid>
													<name>Anchor Point</name>
													<value>
														<horiz>0</horiz>
														<vert>0</vert>
													</value>
												</parameter>
												<parameter authoringApp="PremierePro">
													<parameterid>antiflicker</parameterid>
													<name>Anti-flicker Filter</name>
													<valuemin>0.0</valuemin>
													<valuemax>1.0</valuemax>
													<value>0</value>
												</parameter>
											</effect>
										</filter>
										<logginginfo>
											<description></description>
											<scene></scene>
											<shottake></shottake>
											<lognote></lognote>
											<good></good>
											<originalvideofilename></originalvideofilename>
											<originalaudiofilename></originalaudiofilename>
										</logginginfo>
										<colorinfo>
											<lut></lut>
											<lut1></lut1>
											<asc_sop></asc_sop>
											<asc_sat></asc_sat>
											<lut2></lut2>
										</colorinfo>
									</clipitem>
									<clipitem id="clipitem-453">
										<masterclipid>masterclip-66</masterclipid>
										<name>561518_Milkshake Blender Top Shot Spinning_By_Stockbusters_Artlist_HD.mp4</name>
										<enabled>TRUE</enabled>
										<duration>201</duration>
										<rate>
											<timebase>30</timebase>
											<ntsc>TRUE</ntsc>
										</rate>
										<start>281</start>
										<end>482</end>
										<in>0</in>
										<out>201</out>
										<pproTicksIn>0</pproTicksIn>
										<pproTicksOut>1703609107200</pproTicksOut>
										<alphatype>none</alphatype>
										<file id="file-66"/>
										<filter>
											<effect>
												<name>Basic Motion</name>
												<effectid>basic</effectid>
												<effectcategory>motion</effectcategory>
												<effecttype>motion</effecttype>
												<mediatype>video</mediatype>
												<pproBypass>false</pproBypass>
												<parameter authoringApp="PremierePro">
													<parameterid>scale</parameterid>
													<name>Scale</name>
													<valuemin>0</valuemin>
													<valuemax>1000</valuemax>
													<value>100</value>
													<keyframe>
														<when>0</when>
														<value>112</value>
													</keyframe>
													<keyframe>
														<when>201</when>
														<value>100</value>
													</keyframe>
												</parameter>
												<parameter authoringApp="PremierePro">
													<parameterid>rotation</parameterid>
													<name>Rotation</name>
													<valuemin>-8640</valuemin>
													<valuemax>8640</valuemax>
													<value>0</value>
												</parameter>
												<parameter authoringApp="PremierePro">
													<parameterid>center</parameterid>
													<name>Center</name>
													<value>
														<horiz>0</horiz>
														<vert>0</vert>
													</value>
												</parameter>
												<parameter authoringApp="PremierePro">
													<parameterid>centerOffset</parameterid>
													<name>Anchor Point</name>
													<value>
														<horiz>0</horiz>
														<vert>0</vert>
													</value>
												</parameter>
												<parameter authoringApp="PremierePro">
													<parameterid>antiflicker</parameterid>
													<name>Anti-flicker Filter</name>
													<valuemin>0.0</valuemin>
													<valuemax>1.0</valuemax>
													<value>0</value>
												</parameter>
											</effect>
										</filter>
										<logginginfo>
											<description></description>
											<scene></scene>
											<shottake></shottake>
											<lognote></lognote>
											<good></good>
											<originalvideofilename></originalvideofilename>
											<originalaudiofilename></originalaudiofilename>
										</logginginfo>
										<colorinfo>
											<lut></lut>
											<lut1></lut1>
											<asc_sop></asc_sop>
											<asc_sat></asc_sat>
											<lut2></lut2>
										</colorinfo>
									</clipitem>
									<clipitem id="clipitem-454">
										<masterclipid>masterclip-65</masterclipid>
										<name>561513_Blender Milkshake Fruits Top Shot_By_Stockbusters_Artlist_HD.mp4</name>
										<enabled>TRUE</enabled>
										<duration>409</duration>
										<rate>
											<timebase>30</timebase>
											<ntsc>TRUE</ntsc>
										</rate>
										<start>482</start>
										<end>891</end>
										<in>0</in>
										<out>409</out>
										<pproTicksIn>0</pproTicksIn>
										<pproTicksOut>3466547884800</pproTicksOut>
										<alphatype>none</alphatype>
										<file id="file-65"/>
										<filter>
											<effect>
												<name>Basic Motion</name>
												<effectid>basic</effectid>
												<effectcategory>motion</effectcategory>
												<effecttype>motion</effecttype>
												<mediatype>video</mediatype>
												<pproBypass>false</pproBypass>
												<parameter authoringApp="PremierePro">
													<parameterid>scale</parameterid>
													<name>Scale</name>
													<valuemin>0</valuemin>
													<valuemax>1000</valuemax>
													<value>100</value>
													<keyframe>
														<when>0</when>
														<value>134</value>
													</keyframe>
													<keyframe>
														<when>409</when>
														<value>100</value>
													</keyframe>
												</parameter>
												<parameter authoringApp="PremierePro">
													<parameterid>rotation</parameterid>
													<name>Rotation</name>
													<valuemin>-8640</valuemin>
													<valuemax>8640</valuemax>
													<value>0</value>
												</parameter>
												<parameter authoringApp="PremierePro">
													<parameterid>center</parameterid>
													<name>Center</name>
													<value>
														<horiz>0</horiz>
														<vert>0</vert>
													</value>
												</parameter>
												<parameter authoringApp="PremierePro">
													<parameterid>centerOffset</parameterid>
													<name>Anchor Point</name>
													<value>
														<horiz>0</horiz>
														<vert>0</vert>
													</value>
												</parameter>
												<parameter authoringApp="PremierePro">
													<parameterid>antiflicker</parameterid>
													<name>Anti-flicker Filter</name>
													<valuemin>0.0</valuemin>
													<valuemax>1.0</valuemax>
													<value>0</value>
												</parameter>
											</effect>
										</filter>
										<logginginfo>
											<description></description>
											<scene></scene>
											<shottake></shottake>
											<lognote></lognote>
											<good></good>
											<originalvideofilename></originalvideofilename>
											<originalaudiofilename></originalaudiofilename>
										</logginginfo>
										<colorinfo>
											<lut></lut>
											<lut1></lut1>
											<asc_sop></asc_sop>
											<asc_sat></asc_sat>
											<lut2></lut2>
										</colorinfo>
									</clipitem>
									<clipitem id="clipitem-455">
										<masterclipid>masterclip-69</masterclipid>
										<name>561525_Milkshake Fruits Blender Top Shot_By_Stockbusters_Artlist_HD.mp4</name>
										<enabled>TRUE</enabled>
										<duration>188</duration>
										<rate>
											<timebase>30</timebase>
											<ntsc>TRUE</ntsc>
										</rate>
										<start>891</start>
										<end>1060</end>
										<in>0</in>
										<out>169</out>
										<pproTicksIn>0</pproTicksIn>
										<pproTicksOut>1432387756800</pproTicksOut>
										<alphatype>none</alphatype>
										<file id="file-69"/>
										<filter>
											<effect>
												<name>Basic Motion</name>
												<effectid>basic</effectid>
												<effectcategory>motion</effectcategory>
												<effecttype>motion</effecttype>
												<mediatype>video</mediatype>
												<pproBypass>false</pproBypass>
												<parameter authoringApp="PremierePro">
													<parameterid>scale</parameterid>
													<name>Scale</name>
													<valuemin>0</valuemin>
													<valuemax>1000</valuemax>
													<value>100</value>
													<keyframe>
														<when>0</when>
														<value>118</value>
													</keyframe>
													<keyframe>
														<when>169</when>
														<value>100</value>
													</keyframe>
												</parameter>
												<parameter authoringApp="PremierePro">
													<parameterid>rotation</parameterid>
													<name>Rotation</name>
													<valuemin>-8640</valuemin>
													<valuemax>8640</valuemax>
													<value>0</value>
												</parameter>
												<parameter authoringApp="PremierePro">
													<parameterid>center</parameterid>
													<name>Center</name>
													<value>
														<horiz>0</horiz>
														<vert>0</vert>
													</value>
												</parameter>
												<parameter authoringApp="PremierePro">
													<parameterid>centerOffset</parameterid>
													<name>Anchor Point</name>
													<value>
														<horiz>0</horiz>
														<vert>0</vert>
													</value>
												</parameter>
												<parameter authoringApp="PremierePro">
													<parameterid>antiflicker</parameterid>
													<name>Anti-flicker Filter</name>
													<valuemin>0.0</valuemin>
													<valuemax>1.0</valuemax>
													<value>0</value>
												</parameter>
											</effect>
										</filter>
										<logginginfo>
											<description></description>
											<scene></scene>
											<shottake></shottake>
											<lognote></lognote>
											<good></good>
											<originalvideofilename></originalvideofilename>
											<originalaudiofilename></originalaudiofilename>
										</logginginfo>
										<colorinfo>
											<lut></lut>
											<lut1></lut1>
											<asc_sop></asc_sop>
											<asc_sat></asc_sat>
											<lut2></lut2>
										</colorinfo>
									</clipitem>
									<clipitem id="clipitem-456">
										<masterclipid>masterclip-71</masterclipid>
										<name>561528_Milkshake Blender Top Shot Milk_By_Stockbusters_Artlist_HD.mp4</name>
										<enabled>TRUE</enabled>
										<duration>169</duration>
										<rate>
											<timebase>30</timebase>
											<ntsc>TRUE</ntsc>
										</rate>
										<start>1060</start>
										<end>1219</end>
										<in>0</in>
										<out>159</out>
										<pproTicksIn>0</pproTicksIn>
										<pproTicksOut>1347631084800</pproTicksOut>
										<alphatype>none</alphatype>
										<file id="file-71"/>
										<logginginfo>
											<description></description>
											<scene></scene>
											<shottake></shottake>
											<lognote></lognote>
											<good></good>
											<originalvideofilename></originalvideofilename>
											<originalaudiofilename></originalaudiofilename>
										</logginginfo>
										<colorinfo>
											<lut></lut>
											<lut1></lut1>
											<asc_sop></asc_sop>
											<asc_sat></asc_sat>
											<lut2></lut2>
										</colorinfo>
									</clipitem>
									<clipitem id="clipitem-457">
										<masterclipid>masterclip-67</masterclipid>
										<name>561519_Milkshake Spinning Blend Top Shot_By_Stockbusters_Artlist_HD.mp4</name>
										<enabled>TRUE</enabled>
										<duration>254</duration>
										<rate>
											<timebase>30</timebase>
											<ntsc>TRUE</ntsc>
										</rate>
										<start>1219</start>
										<end>1364</end>
										<in>0</in>
										<out>145</out>
										<pproTicksIn>0</pproTicksIn>
										<pproTicksOut>1228971744000</pproTicksOut>
										<alphatype>none</alphatype>
										<file id="file-67"/>
										<filter>
											<effect>
												<name>Basic Motion</name>
												<effectid>basic</effectid>
												<effectcategory>motion</effectcategory>
												<effecttype>motion</effecttype>
												<mediatype>video</mediatype>
												<pproBypass>false</pproBypass>
												<parameter authoringApp="PremierePro">
													<parameterid>scale</parameterid>
													<name>Scale</name>
													<valuemin>0</valuemin>
													<valuemax>1000</valuemax>
													<value>100</value>
													<keyframe>
														<when>0</when>
														<value>116</value>
													</keyframe>
													<keyframe>
														<when>145</when>
														<value>100</value>
													</keyframe>
												</parameter>
												<parameter authoringApp="PremierePro">
													<parameterid>rotation</parameterid>
													<name>Rotation</name>
													<valuemin>-8640</valuemin>
													<valuemax>8640</valuemax>
													<value>0</value>
												</parameter>
												<parameter authoringApp="PremierePro">
													<parameterid>center</parameterid>
													<name>Center</name>
													<value>
														<horiz>0</horiz>
														<vert>0</vert>
													</value>
												</parameter>
												<parameter authoringApp="PremierePro">
													<parameterid>centerOffset</parameterid>
													<name>Anchor Point</name>
													<value>
														<horiz>0</horiz>
														<vert>0</vert>
													</value>
												</parameter>
												<parameter authoringApp="PremierePro">
													<parameterid>antiflicker</parameterid>
													<name>Anti-flicker Filter</name>
													<valuemin>0.0</valuemin>
													<valuemax>1.0</valuemax>
													<value>0</value>
												</parameter>
											</effect>
										</filter>
										<logginginfo>
											<description></description>
											<scene></scene>
											<shottake></shottake>
											<lognote></lognote>
											<good></good>
											<originalvideofilename></originalvideofilename>
											<originalaudiofilename></originalaudiofilename>
										</logginginfo>
										<colorinfo>
											<lut></lut>
											<lut1></lut1>
											<asc_sop></asc_sop>
											<asc_sat></asc_sat>
											<lut2></lut2>
										</colorinfo>
									</clipitem>
									<clipitem id="clipitem-458">
										<masterclipid>masterclip-70</masterclipid>
										<name>561527_Top Shot Pink Liquid Bubbles_By_Stockbusters_Artlist_HD.mp4</name>
										<enabled>TRUE</enabled>
										<duration>275</duration>
										<rate>
											<timebase>30</timebase>
											<ntsc>TRUE</ntsc>
										</rate>
										<start>1364</start>
										<end>1541</end>
										<in>0</in>
										<out>177</out>
										<pproTicksIn>0</pproTicksIn>
										<pproTicksOut>1500193094400</pproTicksOut>
										<alphatype>none</alphatype>
										<file id="file-70"/>
										<filter>
											<effect>
												<name>Basic Motion</name>
												<effectid>basic</effectid>
												<effectcategory>motion</effectcategory>
												<effecttype>motion</effecttype>
												<mediatype>video</mediatype>
												<pproBypass>false</pproBypass>
												<parameter authoringApp="PremierePro">
													<parameterid>scale</parameterid>
													<name>Scale</name>
													<valuemin>0</valuemin>
													<valuemax>1000</valuemax>
													<value>100</value>
													<keyframe>
														<when>0</when>
														<value>114</value>
													</keyframe>
													<keyframe>
														<when>177</when>
														<value>100</value>
													</keyframe>
												</parameter>
												<parameter authoringApp="PremierePro">
													<parameterid>rotation</parameterid>
													<name>Rotation</name>
													<valuemin>-8640</valuemin>
													<valuemax>8640</valuemax>
													<value>0</value>
												</parameter>
												<parameter authoringApp="PremierePro">
													<parameterid>center</parameterid>
													<name>Center</name>
													<value>
														<horiz>0</horiz>
														<vert>0</vert>
													</value>
												</parameter>
												<parameter authoringApp="PremierePro">
													<parameterid>centerOffset</parameterid>
													<name>Anchor Point</name>
													<value>
														<horiz>0</horiz>
														<vert>0</vert>
													</value>
												</parameter>
												<parameter authoringApp="PremierePro">
													<parameterid>antiflicker</parameterid>
													<name>Anti-flicker Filter</name>
													<valuemin>0.0</valuemin>
													<valuemax>1.0</valuemax>
													<value>0</value>
												</parameter>
											</effect>
										</filter>
										<logginginfo>
											<description></description>
											<scene></scene>
											<shottake></shottake>
											<lognote></lognote>
											<good></good>
											<originalvideofilename></originalvideofilename>
											<originalaudiofilename></originalaudiofilename>
										</logginginfo>
										<colorinfo>
											<lut></lut>
											<lut1></lut1>
											<asc_sop></asc_sop>
											<asc_sat></asc_sat>
											<lut2></lut2>
										</colorinfo>
									</clipitem>
									<enabled>TRUE</enabled>
									<locked>FALSE</locked>
								</track>
								<track TL.SQTrackShy="0" TL.SQTrackExpandedHeight="25" TL.SQTrackExpanded="0" MZ.TrackTargeted="0">
									<enabled>TRUE</enabled>
									<locked>FALSE</locked>
								</track>
								<track TL.SQTrackShy="0" TL.SQTrackExpandedHeight="25" TL.SQTrackExpanded="0" MZ.TrackTargeted="0">
									<enabled>TRUE</enabled>
									<locked>FALSE</locked>
								</track>
								<track TL.SQTrackShy="0" TL.SQTrackExpandedHeight="25" TL.SQTrackExpanded="0" MZ.TrackTargeted="0">
									<enabled>TRUE</enabled>
									<locked>FALSE</locked>
								</track>
								<track TL.SQTrackShy="0" TL.SQTrackExpandedHeight="25" TL.SQTrackExpanded="0" MZ.TrackTargeted="0">
									<enabled>TRUE</enabled>
									<locked>FALSE</locked>
								</track>
								<track TL.SQTrackShy="0" TL.SQTrackExpandedHeight="25" TL.SQTrackExpanded="0" MZ.TrackTargeted="0">
									<enabled>TRUE</enabled>
									<locked>FALSE</locked>
								</track>
								<track TL.SQTrackShy="0" TL.SQTrackExpandedHeight="25" TL.SQTrackExpanded="0" MZ.TrackTargeted="0">
									<enabled>TRUE</enabled>
									<locked>FALSE</locked>
								</track>
								<track TL.SQTrackShy="0" TL.SQTrackExpandedHeight="25" TL.SQTrackExpanded="0" MZ.TrackTargeted="0">
									<enabled>TRUE</enabled>
									<locked>FALSE</locked>
								</track>
								<track TL.SQTrackShy="0" TL.SQTrackExpandedHeight="25" TL.SQTrackExpanded="0" MZ.TrackTargeted="0">
									<enabled>TRUE</enabled>
									<locked>FALSE</locked>
								</track>
								<track TL.SQTrackShy="0" TL.SQTrackExpandedHeight="25" TL.SQTrackExpanded="0" MZ.TrackTargeted="0">
									<enabled>TRUE</enabled>
									<locked>FALSE</locked>
								</track>
							</video>
							<audio>
								<numOutputChannels>2</numOutputChannels>
								<format>
									<samplecharacteristics>
										<depth>16</depth>
										<samplerate>48000</samplerate>
									</samplecharacteristics>
								</format>
								<outputs>
									<group>
										<index>1</index>
										<numchannels>1</numchannels>
										<downmix>0</downmix>
										<channel>
											<index>1</index>
										</channel>
									</group>
									<group>
										<index>2</index>
										<numchannels>1</numchannels>
										<downmix>0</downmix>
										<channel>
											<index>2</index>
										</channel>
									</group>
								</outputs>
								<track TL.SQTrackAudioKeyframeStyle="0" TL.SQTrackShy="0" TL.SQTrackExpandedHeight="25" TL.SQTrackExpanded="0" MZ.TrackTargeted="1" PannerCurrentValue="0.5" PannerIsInverted="true" PannerStartKeyframe="-91445760000000000,0.5,0,0,0,0,0,0" PannerName="Balance" currentExplodedTrackIndex="0" totalExplodedTrackCount="2" premiereTrackType="Stereo">
									<clipitem id="clipitem-459" premiereChannelType="stereo">
										<masterclipid>masterclip-184</masterclipid>
										<name>ES_Pool Sticker - Dylan Sitts.mp3</name>
										<enabled>TRUE</enabled>
										<duration>5098</duration>
										<rate>
											<timebase>30</timebase>
											<ntsc>TRUE</ntsc>
										</rate>
										<start>0</start>
										<end>1541</end>
										<in>0</in>
										<out>1541</out>
										<pproTicksIn>0</pproTicksIn>
										<pproTicksOut>13061003155200</pproTicksOut>
										<file id="file-182">
											<name>ES_Pool Sticker - Dylan Sitts.mp3</name>
											<pathurl>file://localhost/Volumes/ATM%201/EYE%20CANDY/8%3a21%3a23/5_Assets/Music/ES_Pool%20Sticker%20-%20Dylan%20Sitts.mp3</pathurl>
											<rate>
												<timebase>30</timebase>
												<ntsc>TRUE</ntsc>
											</rate>
											<duration>5098</duration>
											<timecode>
												<rate>
													<timebase>30</timebase>
													<ntsc>TRUE</ntsc>
												</rate>
												<string>00;00;00;00</string>
												<frame>0</frame>
												<displayformat>DF</displayformat>
											</timecode>
											<media>
												<audio>
													<samplecharacteristics>
														<depth>16</depth>
														<samplerate>48000</samplerate>
													</samplecharacteristics>
													<channelcount>2</channelcount>
												</audio>
											</media>
										</file>
										<sourcetrack>
											<mediatype>audio</mediatype>
											<trackindex>1</trackindex>
										</sourcetrack>
										<link>
											<linkclipref>clipitem-459</linkclipref>
											<mediatype>audio</mediatype>
											<trackindex>1</trackindex>
											<clipindex>1</clipindex>
											<groupindex>1</groupindex>
										</link>
										<link>
											<linkclipref>clipitem-460</linkclipref>
											<mediatype>audio</mediatype>
											<trackindex>2</trackindex>
											<clipindex>1</clipindex>
											<groupindex>1</groupindex>
										</link>
										<logginginfo>
											<description></description>
											<scene></scene>
											<shottake></shottake>
											<lognote></lognote>
											<good></good>
											<originalvideofilename></originalvideofilename>
											<originalaudiofilename></originalaudiofilename>
										</logginginfo>
										<colorinfo>
											<lut></lut>
											<lut1></lut1>
											<asc_sop></asc_sop>
											<asc_sat></asc_sat>
											<lut2></lut2>
										</colorinfo>
										<labels>
											<label2>Caribbean</label2>
										</labels>
									</clipitem>
									<enabled>TRUE</enabled>
									<locked>FALSE</locked>
									<filter>
										<effect>
											<name>Audio Levels</name>
											<effectid>audiolevels</effectid>
											<effectcategory>audiolevels</effectcategory>
											<effecttype>audiolevels</effecttype>
											<mediatype>audio</mediatype>
											<parameter authoringApp="PremierePro">
												<parameterid>level</parameterid>
												<name>Level</name>
												<valuemin>0</valuemin>
												<valuemax>3.98109</valuemax>
												<value>0.706272</value>
											</parameter>
										</effect>
									</filter>
									<outputchannelindex>1</outputchannelindex>
								</track>
								<track TL.SQTrackAudioKeyframeStyle="0" TL.SQTrackShy="0" TL.SQTrackExpandedHeight="25" TL.SQTrackExpanded="0" MZ.TrackTargeted="1" PannerCurrentValue="0.5" PannerIsInverted="true" PannerStartKeyframe="-91445760000000000,0.5,0,0,0,0,0,0" PannerName="Balance" currentExplodedTrackIndex="1" totalExplodedTrackCount="2" premiereTrackType="Stereo">
									<clipitem id="clipitem-460" premiereChannelType="stereo">
										<masterclipid>masterclip-184</masterclipid>
										<name>ES_Pool Sticker - Dylan Sitts.mp3</name>
										<enabled>TRUE</enabled>
										<duration>5098</duration>
										<rate>
											<timebase>30</timebase>
											<ntsc>TRUE</ntsc>
										</rate>
										<start>0</start>
										<end>1541</end>
										<in>0</in>
										<out>1541</out>
										<pproTicksIn>0</pproTicksIn>
										<pproTicksOut>13061003155200</pproTicksOut>
										<file id="file-182"/>
										<sourcetrack>
											<mediatype>audio</mediatype>
											<trackindex>2</trackindex>
										</sourcetrack>
										<link>
											<linkclipref>clipitem-459</linkclipref>
											<mediatype>audio</mediatype>
											<trackindex>1</trackindex>
											<clipindex>1</clipindex>
											<groupindex>1</groupindex>
										</link>
										<link>
											<linkclipref>clipitem-460</linkclipref>
											<mediatype>audio</mediatype>
											<trackindex>2</trackindex>
											<clipindex>1</clipindex>
											<groupindex>1</groupindex>
										</link>
										<logginginfo>
											<description></description>
											<scene></scene>
											<shottake></shottake>
											<lognote></lognote>
											<good></good>
											<originalvideofilename></originalvideofilename>
											<originalaudiofilename></originalaudiofilename>
										</logginginfo>
										<colorinfo>
											<lut></lut>
											<lut1></lut1>
											<asc_sop></asc_sop>
											<asc_sat></asc_sat>
											<lut2></lut2>
										</colorinfo>
										<labels>
											<label2>Caribbean</label2>
										</labels>
									</clipitem>
									<enabled>TRUE</enabled>
									<locked>FALSE</locked>
									<filter>
										<effect>
											<name>Audio Levels</name>
											<effectid>audiolevels</effectid>
											<effectcategory>audiolevels</effectcategory>
											<effecttype>audiolevels</effecttype>
											<mediatype>audio</mediatype>
											<parameter authoringApp="PremierePro">
												<parameterid>level</parameterid>
												<name>Level</name>
												<valuemin>0</valuemin>
												<valuemax>3.98109</valuemax>
												<value>0.706272</value>
											</parameter>
										</effect>
									</filter>
									<outputchannelindex>2</outputchannelindex>
								</track>
								<track TL.SQTrackAudioKeyframeStyle="0" TL.SQTrackShy="0" TL.SQTrackExpandedHeight="25" TL.SQTrackExpanded="0" MZ.TrackTargeted="0" PannerCurrentValue="0.5" PannerIsInverted="true" PannerStartKeyframe="-91445760000000000,0.5,0,0,0,0,0,0" PannerName="Balance" currentExplodedTrackIndex="0" totalExplodedTrackCount="2" premiereTrackType="Stereo">
									<enabled>TRUE</enabled>
									<locked>FALSE</locked>
									<outputchannelindex>1</outputchannelindex>
								</track>
								<track TL.SQTrackAudioKeyframeStyle="0" TL.SQTrackShy="0" TL.SQTrackExpandedHeight="25" TL.SQTrackExpanded="0" MZ.TrackTargeted="0" PannerCurrentValue="0.5" PannerIsInverted="true" PannerStartKeyframe="-91445760000000000,0.5,0,0,0,0,0,0" PannerName="Balance" currentExplodedTrackIndex="1" totalExplodedTrackCount="2" premiereTrackType="Stereo">
									<enabled>TRUE</enabled>
									<locked>FALSE</locked>
									<outputchannelindex>2</outputchannelindex>
								</track>
								<track TL.SQTrackAudioKeyframeStyle="0" TL.SQTrackShy="0" TL.SQTrackExpandedHeight="25" TL.SQTrackExpanded="0" MZ.TrackTargeted="0" PannerCurrentValue="0.5" PannerIsInverted="true" PannerStartKeyframe="-91445760000000000,0.5,0,0,0,0,0,0" PannerName="Balance" currentExplodedTrackIndex="0" totalExplodedTrackCount="2" premiereTrackType="Stereo">
									<enabled>TRUE</enabled>
									<locked>FALSE</locked>
									<outputchannelindex>1</outputchannelindex>
								</track>
								<track TL.SQTrackAudioKeyframeStyle="0" TL.SQTrackShy="0" TL.SQTrackExpandedHeight="25" TL.SQTrackExpanded="0" MZ.TrackTargeted="0" PannerCurrentValue="0.5" PannerIsInverted="true" PannerStartKeyframe="-91445760000000000,0.5,0,0,0,0,0,0" PannerName="Balance" currentExplodedTrackIndex="1" totalExplodedTrackCount="2" premiereTrackType="Stereo">
									<enabled>TRUE</enabled>
									<locked>FALSE</locked>
									<outputchannelindex>2</outputchannelindex>
								</track>
								<track TL.SQTrackAudioKeyframeStyle="0" TL.SQTrackShy="0" TL.SQTrackExpandedHeight="25" TL.SQTrackExpanded="0" MZ.TrackTargeted="0" PannerCurrentValue="0.5" PannerIsInverted="true" PannerStartKeyframe="-91445760000000000,0.5,0,0,0,0,0,0" PannerName="Balance" currentExplodedTrackIndex="0" totalExplodedTrackCount="2" premiereTrackType="Stereo">
									<enabled>TRUE</enabled>
									<locked>FALSE</locked>
									<outputchannelindex>1</outputchannelindex>
								</track>
								<track TL.SQTrackAudioKeyframeStyle="0" TL.SQTrackShy="0" TL.SQTrackExpandedHeight="25" TL.SQTrackExpanded="0" MZ.TrackTargeted="0" PannerCurrentValue="0.5" PannerIsInverted="true" PannerStartKeyframe="-91445760000000000,0.5,0,0,0,0,0,0" PannerName="Balance" currentExplodedTrackIndex="1" totalExplodedTrackCount="2" premiereTrackType="Stereo">
									<enabled>TRUE</enabled>
									<locked>FALSE</locked>
									<outputchannelindex>2</outputchannelindex>
								</track>
								<track TL.SQTrackAudioKeyframeStyle="0" TL.SQTrackShy="0" TL.SQTrackExpandedHeight="25" TL.SQTrackExpanded="0" MZ.TrackTargeted="0" PannerCurrentValue="0.5" PannerIsInverted="true" PannerStartKeyframe="-91445760000000000,0.5,0,0,0,0,0,0" PannerName="Balance" currentExplodedTrackIndex="0" totalExplodedTrackCount="2" premiereTrackType="Stereo">
									<enabled>TRUE</enabled>
									<locked>FALSE</locked>
									<outputchannelindex>1</outputchannelindex>
								</track>
								<track TL.SQTrackAudioKeyframeStyle="0" TL.SQTrackShy="0" TL.SQTrackExpandedHeight="25" TL.SQTrackExpanded="0" MZ.TrackTargeted="0" PannerCurrentValue="0.5" PannerIsInverted="true" PannerStartKeyframe="-91445760000000000,0.5,0,0,0,0,0,0" PannerName="Balance" currentExplodedTrackIndex="1" totalExplodedTrackCount="2" premiereTrackType="Stereo">
									<enabled>TRUE</enabled>
									<locked>FALSE</locked>
									<outputchannelindex>2</outputchannelindex>
								</track>
								<track TL.SQTrackAudioKeyframeStyle="0" TL.SQTrackShy="0" TL.SQTrackExpandedHeight="25" TL.SQTrackExpanded="0" MZ.TrackTargeted="0" PannerCurrentValue="0.5" PannerIsInverted="true" PannerStartKeyframe="-91445760000000000,0.5,0,0,0,0,0,0" PannerName="Balance" currentExplodedTrackIndex="0" totalExplodedTrackCount="2" premiereTrackType="Stereo">
									<enabled>TRUE</enabled>
									<locked>FALSE</locked>
									<outputchannelindex>1</outputchannelindex>
								</track>
								<track TL.SQTrackAudioKeyframeStyle="0" TL.SQTrackShy="0" TL.SQTrackExpandedHeight="25" TL.SQTrackExpanded="0" MZ.TrackTargeted="0" PannerCurrentValue="0.5" PannerIsInverted="true" PannerStartKeyframe="-91445760000000000,0.5,0,0,0,0,0,0" PannerName="Balance" currentExplodedTrackIndex="1" totalExplodedTrackCount="2" premiereTrackType="Stereo">
									<enabled>TRUE</enabled>
									<locked>FALSE</locked>
									<outputchannelindex>2</outputchannelindex>
								</track>
								<track TL.SQTrackAudioKeyframeStyle="0" TL.SQTrackShy="0" TL.SQTrackExpandedHeight="25" TL.SQTrackExpanded="0" MZ.TrackTargeted="0" PannerCurrentValue="0.5" PannerIsInverted="true" PannerStartKeyframe="-91445760000000000,0.5,0,0,0,0,0,0" PannerName="Balance" currentExplodedTrackIndex="0" totalExplodedTrackCount="2" premiereTrackType="Stereo">
									<enabled>TRUE</enabled>
									<locked>FALSE</locked>
									<outputchannelindex>1</outputchannelindex>
								</track>
								<track TL.SQTrackAudioKeyframeStyle="0" TL.SQTrackShy="0" TL.SQTrackExpandedHeight="25" TL.SQTrackExpanded="0" MZ.TrackTargeted="0" PannerCurrentValue="0.5" PannerIsInverted="true" PannerStartKeyframe="-91445760000000000,0.5,0,0,0,0,0,0" PannerName="Balance" currentExplodedTrackIndex="1" totalExplodedTrackCount="2" premiereTrackType="Stereo">
									<enabled>TRUE</enabled>
									<locked>FALSE</locked>
									<outputchannelindex>2</outputchannelindex>
								</track>
								<track TL.SQTrackAudioKeyframeStyle="0" TL.SQTrackShy="0" TL.SQTrackExpandedHeight="25" TL.SQTrackExpanded="0" MZ.TrackTargeted="0" PannerCurrentValue="0.5" PannerIsInverted="true" PannerStartKeyframe="-91445760000000000,0.5,0,0,0,0,0,0" PannerName="Balance" currentExplodedTrackIndex="0" totalExplodedTrackCount="2" premiereTrackType="Stereo">
									<enabled>TRUE</enabled>
									<locked>FALSE</locked>
									<outputchannelindex>1</outputchannelindex>
								</track>
								<track TL.SQTrackAudioKeyframeStyle="0" TL.SQTrackShy="0" TL.SQTrackExpandedHeight="25" TL.SQTrackExpanded="0" MZ.TrackTargeted="0" PannerCurrentValue="0.5" PannerIsInverted="true" PannerStartKeyframe="-91445760000000000,0.5,0,0,0,0,0,0" PannerName="Balance" currentExplodedTrackIndex="1" totalExplodedTrackCount="2" premiereTrackType="Stereo">
									<enabled>TRUE</enabled>
									<locked>FALSE</locked>
									<outputchannelindex>2</outputchannelindex>
								</track>
								<track TL.SQTrackAudioKeyframeStyle="0" TL.SQTrackShy="0" TL.SQTrackExpandedHeight="25" TL.SQTrackExpanded="0" MZ.TrackTargeted="0" PannerCurrentValue="0.5" PannerIsInverted="true" PannerStartKeyframe="-91445760000000000,0.5,0,0,0,0,0,0" PannerName="Balance" currentExplodedTrackIndex="0" totalExplodedTrackCount="2" premiereTrackType="Stereo">
									<enabled>TRUE</enabled>
									<locked>FALSE</locked>
									<outputchannelindex>1</outputchannelindex>
								</track>
								<track TL.SQTrackAudioKeyframeStyle="0" TL.SQTrackShy="0" TL.SQTrackExpandedHeight="25" TL.SQTrackExpanded="0" MZ.TrackTargeted="0" PannerCurrentValue="0.5" PannerIsInverted="true" PannerStartKeyframe="-91445760000000000,0.5,0,0,0,0,0,0" PannerName="Balance" currentExplodedTrackIndex="1" totalExplodedTrackCount="2" premiereTrackType="Stereo">
									<enabled>TRUE</enabled>
									<locked>FALSE</locked>
									<outputchannelindex>2</outputchannelindex>
								</track>
								<track TL.SQTrackAudioKeyframeStyle="0" TL.SQTrackShy="0" TL.SQTrackExpandedHeight="25" TL.SQTrackExpanded="0" MZ.TrackTargeted="0" PannerCurrentValue="0.5" PannerIsInverted="true" PannerStartKeyframe="-91445760000000000,0.5,0,0,0,0,0,0" PannerName="Balance" currentExplodedTrackIndex="0" totalExplodedTrackCount="2" premiereTrackType="Stereo">
									<enabled>TRUE</enabled>
									<locked>FALSE</locked>
									<outputchannelindex>1</outputchannelindex>
								</track>
								<track TL.SQTrackAudioKeyframeStyle="0" TL.SQTrackShy="0" TL.SQTrackExpandedHeight="25" TL.SQTrackExpanded="0" MZ.TrackTargeted="0" PannerCurrentValue="0.5" PannerIsInverted="true" PannerStartKeyframe="-91445760000000000,0.5,0,0,0,0,0,0" PannerName="Balance" currentExplodedTrackIndex="1" totalExplodedTrackCount="2" premiereTrackType="Stereo">
									<enabled>TRUE</enabled>
									<locked>FALSE</locked>
									<outputchannelindex>2</outputchannelindex>
								</track>
							</audio>
						</media>
						<timecode>
							<rate>
								<timebase>30</timebase>
								<ntsc>TRUE</ntsc>
							</rate>
							<string>00;00;00;00</string>
							<frame>0</frame>
							<displayformat>DF</displayformat>
						</timecode>
						<labels>
							<label2>Forest</label2>
						</labels>
						<logginginfo>
							<description></description>
							<scene></scene>
							<shottake></shottake>
							<lognote></lognote>
							<good></good>
							<originalvideofilename></originalvideofilename>
							<originalaudiofilename></originalaudiofilename>
						</logginginfo>
					</sequence>
					<sequence id="sequence-12" TL.SQAudioVisibleBase="0" TL.SQVideoVisibleBase="0" TL.SQVisibleBaseTime="0" TL.SQAVDividerPosition="0.5" TL.SQHideShyTracks="0" TL.SQHeaderWidth="236" TL.SQDataTrackViewControlState="0" Monitor.ProgramZoomOut="14739185260800" Monitor.ProgramZoomIn="0" TL.SQTimePerPixel="0.072184793070247569" AM.TrackVScrollPosition="0" AM.TrackScrollPosition="0" MZ.EditLine="0" MZ.Sequence.PreviewFrameSizeHeight="1080" MZ.Sequence.PreviewFrameSizeWidth="1920" MZ.Sequence.AudioTimeDisplayFormat="200" MZ.Sequence.PreviewRenderingClassID="1061109567" MZ.Sequence.PreviewRenderingPresetCodec="1634755443" MZ.Sequence.PreviewRenderingPresetPath="EncoderPresets/SequencePreview/35d109db-457b-43c1-9452-9cb7be9f121c/QuickTime.epr" MZ.Sequence.PreviewUseMaxRenderQuality="false" MZ.Sequence.PreviewUseMaxBitDepth="false" MZ.Sequence.EditingModeGUID="35d109db-457b-43c1-9452-9cb7be9f121c" MZ.Sequence.VideoTimeDisplayFormat="102" MZ.WorkOutPoint="10492875993600" MZ.WorkInPoint="0" explodedTracks="true">
						<uuid>9f2a0de7-a29f-4df5-9a0b-af3d7d6c054b</uuid>
						<duration>1739</duration>
						<rate>
							<timebase>30</timebase>
							<ntsc>TRUE</ntsc>
						</rate>
						<name>FND_You're Driving Me Peanuts_1</name>
						<media>
							<video>
								<format>
									<samplecharacteristics>
										<rate>
											<timebase>30</timebase>
											<ntsc>TRUE</ntsc>
										</rate>
										<codec>
											<name>Apple ProRes 422</name>
											<appspecificdata>
												<appname>Final Cut Pro</appname>
												<appmanufacturer>Apple Inc.</appmanufacturer>
												<appversion>7.0</appversion>
												<data>
													<qtcodec>
														<codecname>Apple ProRes 422</codecname>
														<codectypename>Apple ProRes 422</codectypename>
														<codectypecode>apcn</codectypecode>
														<codecvendorcode>appl</codecvendorcode>
														<spatialquality>1024</spatialquality>
														<temporalquality>0</temporalquality>
														<keyframerate>0</keyframerate>
														<datarate>0</datarate>
													</qtcodec>
												</data>
											</appspecificdata>
										</codec>
										<width>1920</width>
										<height>1080</height>
										<anamorphic>FALSE</anamorphic>
										<pixelaspectratio>square</pixelaspectratio>
										<fielddominance>none</fielddominance>
										<colordepth>24</colordepth>
									</samplecharacteristics>
								</format>
								<track TL.SQTrackShy="0" TL.SQTrackExpandedHeight="25" TL.SQTrackExpanded="0" MZ.TrackTargeted="1">
									<clipitem id="clipitem-461">
										<masterclipid>masterclip-79</masterclipid>
										<name>423858_Groundnut Peanuts Black Background Flying_By_Phantom_Gravity_Artlist_HD.mp4</name>
										<enabled>TRUE</enabled>
										<duration>254</duration>
										<rate>
											<timebase>30</timebase>
											<ntsc>TRUE</ntsc>
										</rate>
										<start>0</start>
										<end>254</end>
										<in>0</in>
										<out>254</out>
										<pproTicksIn>0</pproTicksIn>
										<pproTicksOut>2152819468800</pproTicksOut>
										<alphatype>none</alphatype>
										<file id="file-79"/>
										<logginginfo>
											<description></description>
											<scene></scene>
											<shottake></shottake>
											<lognote></lognote>
											<good></good>
											<originalvideofilename></originalvideofilename>
											<originalaudiofilename></originalaudiofilename>
										</logginginfo>
										<colorinfo>
											<lut></lut>
											<lut1></lut1>
											<asc_sop></asc_sop>
											<asc_sat></asc_sat>
											<lut2></lut2>
										</colorinfo>
									</clipitem>
									<clipitem id="clipitem-462">
										<masterclipid>masterclip-73</masterclipid>
										<name>100428_Peanuts thrown up in the air and falling back down _By_Via_Films_Artlist_HD.mp4</name>
										<enabled>TRUE</enabled>
										<duration>653</duration>
										<rate>
											<timebase>30</timebase>
											<ntsc>TRUE</ntsc>
										</rate>
										<start>254</start>
										<end>500</end>
										<in>0</in>
										<out>246</out>
										<pproTicksIn>0</pproTicksIn>
										<pproTicksOut>2085014131200</pproTicksOut>
										<alphatype>none</alphatype>
										<file id="file-73"/>
										<logginginfo>
											<description></description>
											<scene></scene>
											<shottake></shottake>
											<lognote></lognote>
											<good></good>
											<originalvideofilename></originalvideofilename>
											<originalaudiofilename></originalaudiofilename>
										</logginginfo>
										<colorinfo>
											<lut></lut>
											<lut1></lut1>
											<asc_sop></asc_sop>
											<asc_sat></asc_sat>
											<lut2></lut2>
										</colorinfo>
									</clipitem>
									<clipitem id="clipitem-463">
										<masterclipid>masterclip-76</masterclipid>
										<name>100453_Peanuts falling onto a wooden surface _By_Via_Films_Artlist_HD.mp4</name>
										<enabled>TRUE</enabled>
										<duration>713</duration>
										<rate>
											<timebase>30</timebase>
											<ntsc>TRUE</ntsc>
										</rate>
										<start>500</start>
										<end>767</end>
										<in>58</in>
										<out>325</out>
										<pproTicksIn>491588697600</pproTicksIn>
										<pproTicksOut>2754591840000</pproTicksOut>
										<alphatype>none</alphatype>
										<file id="file-76"/>
										<logginginfo>
											<description></description>
											<scene></scene>
											<shottake></shottake>
											<lognote></lognote>
											<good></good>
											<originalvideofilename></originalvideofilename>
											<originalaudiofilename></originalaudiofilename>
										</logginginfo>
										<colorinfo>
											<lut></lut>
											<lut1></lut1>
											<asc_sop></asc_sop>
											<asc_sat></asc_sat>
											<lut2></lut2>
										</colorinfo>
									</clipitem>
									<clipitem id="clipitem-464">
										<masterclipid>masterclip-78</masterclipid>
										<name>423857_Peanuts Nutshell Black Background Flying_By_Phantom_Gravity_Artlist_HD.mp4</name>
										<enabled>TRUE</enabled>
										<duration>276</duration>
										<rate>
											<timebase>30</timebase>
											<ntsc>TRUE</ntsc>
										</rate>
										<start>767</start>
										<end>988</end>
										<in>32</in>
										<out>253</out>
										<pproTicksIn>271221350400</pproTicksIn>
										<pproTicksOut>2144343801600</pproTicksOut>
										<alphatype>none</alphatype>
										<file id="file-78"/>
										<logginginfo>
											<description></description>
											<scene></scene>
											<shottake></shottake>
											<lognote></lognote>
											<good></good>
											<originalvideofilename></originalvideofilename>
											<originalaudiofilename></originalaudiofilename>
										</logginginfo>
										<colorinfo>
											<lut></lut>
											<lut1></lut1>
											<asc_sop></asc_sop>
											<asc_sat></asc_sat>
											<lut2></lut2>
										</colorinfo>
									</clipitem>
									<clipitem id="clipitem-465">
										<masterclipid>masterclip-74</masterclipid>
										<name>100429_Peanuts flying up in the air and falling back down _By_Via_Films_Artlist_HD.mp4</name>
										<enabled>TRUE</enabled>
										<duration>506</duration>
										<rate>
											<timebase>30</timebase>
											<ntsc>TRUE</ntsc>
										</rate>
										<start>988</start>
										<end>1203</end>
										<in>228</in>
										<out>443</out>
										<pproTicksIn>1932452121600</pproTicksIn>
										<pproTicksOut>3754720569600</pproTicksOut>
										<alphatype>none</alphatype>
										<file id="file-74"/>
										<logginginfo>
											<description></description>
											<scene></scene>
											<shottake></shottake>
											<lognote></lognote>
											<good></good>
											<originalvideofilename></originalvideofilename>
											<originalaudiofilename></originalaudiofilename>
										</logginginfo>
										<colorinfo>
											<lut></lut>
											<lut1></lut1>
											<asc_sop></asc_sop>
											<asc_sat></asc_sat>
											<lut2></lut2>
										</colorinfo>
									</clipitem>
									<clipitem id="clipitem-466">
										<masterclipid>masterclip-83</masterclipid>
										<name>462138_Peanuts Chocolate Syrup Pouring Phantom_By_Soraphotography_Artlist_HD.mp4</name>
										<enabled>TRUE</enabled>
										<duration>584</duration>
										<rate>
											<timebase>30</timebase>
											<ntsc>TRUE</ntsc>
										</rate>
										<start>1203</start>
										<end>1440</end>
										<in>165</in>
										<out>402</out>
										<pproTicksIn>1398485088000</pproTicksIn>
										<pproTicksOut>3407218214400</pproTicksOut>
										<alphatype>none</alphatype>
										<file id="file-83"/>
										<logginginfo>
											<description></description>
											<scene></scene>
											<shottake></shottake>
											<lognote></lognote>
											<good></good>
											<originalvideofilename></originalvideofilename>
											<originalaudiofilename></originalaudiofilename>
										</logginginfo>
										<colorinfo>
											<lut></lut>
											<lut1></lut1>
											<asc_sop></asc_sop>
											<asc_sat></asc_sat>
											<lut2></lut2>
										</colorinfo>
									</clipitem>
									<clipitem id="clipitem-467">
										<masterclipid>masterclip-75</masterclipid>
										<name>100437_Peanuts flying up and falling back down _By_Via_Films_Artlist_HD.mp4</name>
										<enabled>TRUE</enabled>
										<duration>622</duration>
										<rate>
											<timebase>30</timebase>
											<ntsc>TRUE</ntsc>
										</rate>
										<start>1440</start>
										<end>1739</end>
										<in>47</in>
										<out>346</out>
										<pproTicksIn>398356358400</pproTicksIn>
										<pproTicksOut>2932580851200</pproTicksOut>
										<alphatype>none</alphatype>
										<file id="file-75"/>
										<logginginfo>
											<description></description>
											<scene></scene>
											<shottake></shottake>
											<lognote></lognote>
											<good></good>
											<originalvideofilename></originalvideofilename>
											<originalaudiofilename></originalaudiofilename>
										</logginginfo>
										<colorinfo>
											<lut></lut>
											<lut1></lut1>
											<asc_sop></asc_sop>
											<asc_sat></asc_sat>
											<lut2></lut2>
										</colorinfo>
									</clipitem>
									<enabled>TRUE</enabled>
									<locked>FALSE</locked>
								</track>
								<track TL.SQTrackShy="0" TL.SQTrackExpandedHeight="25" TL.SQTrackExpanded="0" MZ.TrackTargeted="0">
									<enabled>TRUE</enabled>
									<locked>FALSE</locked>
								</track>
								<track TL.SQTrackShy="0" TL.SQTrackExpandedHeight="25" TL.SQTrackExpanded="0" MZ.TrackTargeted="0">
									<enabled>TRUE</enabled>
									<locked>FALSE</locked>
								</track>
								<track TL.SQTrackShy="0" TL.SQTrackExpandedHeight="25" TL.SQTrackExpanded="0" MZ.TrackTargeted="0">
									<enabled>TRUE</enabled>
									<locked>FALSE</locked>
								</track>
								<track TL.SQTrackShy="0" TL.SQTrackExpandedHeight="25" TL.SQTrackExpanded="0" MZ.TrackTargeted="0">
									<enabled>TRUE</enabled>
									<locked>FALSE</locked>
								</track>
								<track TL.SQTrackShy="0" TL.SQTrackExpandedHeight="25" TL.SQTrackExpanded="0" MZ.TrackTargeted="0">
									<enabled>TRUE</enabled>
									<locked>FALSE</locked>
								</track>
								<track TL.SQTrackShy="0" TL.SQTrackExpandedHeight="25" TL.SQTrackExpanded="0" MZ.TrackTargeted="0">
									<enabled>TRUE</enabled>
									<locked>FALSE</locked>
								</track>
								<track TL.SQTrackShy="0" TL.SQTrackExpandedHeight="25" TL.SQTrackExpanded="0" MZ.TrackTargeted="0">
									<enabled>TRUE</enabled>
									<locked>FALSE</locked>
								</track>
								<track TL.SQTrackShy="0" TL.SQTrackExpandedHeight="25" TL.SQTrackExpanded="0" MZ.TrackTargeted="0">
									<enabled>TRUE</enabled>
									<locked>FALSE</locked>
								</track>
								<track TL.SQTrackShy="0" TL.SQTrackExpandedHeight="25" TL.SQTrackExpanded="0" MZ.TrackTargeted="0">
									<enabled>TRUE</enabled>
									<locked>FALSE</locked>
								</track>
							</video>
							<audio>
								<numOutputChannels>2</numOutputChannels>
								<format>
									<samplecharacteristics>
										<depth>16</depth>
										<samplerate>48000</samplerate>
									</samplecharacteristics>
								</format>
								<outputs>
									<group>
										<index>1</index>
										<numchannels>1</numchannels>
										<downmix>0</downmix>
										<channel>
											<index>1</index>
										</channel>
									</group>
									<group>
										<index>2</index>
										<numchannels>1</numchannels>
										<downmix>0</downmix>
										<channel>
											<index>2</index>
										</channel>
									</group>
								</outputs>
								<track TL.SQTrackAudioKeyframeStyle="0" TL.SQTrackShy="0" TL.SQTrackExpandedHeight="25" TL.SQTrackExpanded="0" MZ.TrackTargeted="1" PannerCurrentValue="0.5" PannerIsInverted="true" PannerStartKeyframe="-91445760000000000,0.5,0,0,0,0,0,0" PannerName="Balance" currentExplodedTrackIndex="0" totalExplodedTrackCount="2" premiereTrackType="Stereo">
									<clipitem id="clipitem-468" premiereChannelType="stereo">
										<masterclipid>masterclip-185</masterclipid>
										<name>ES_fly on up - Gregory David.mp3</name>
										<enabled>TRUE</enabled>
										<duration>5465</duration>
										<rate>
											<timebase>30</timebase>
											<ntsc>TRUE</ntsc>
										</rate>
										<start>0</start>
										<end>1739</end>
										<in>0</in>
										<out>1739</out>
										<pproTicksIn>0</pproTicksIn>
										<pproTicksOut>14739185260800</pproTicksOut>
										<file id="file-183">
											<name>ES_fly on up - Gregory David.mp3</name>
											<pathurl>file://localhost/Volumes/ATM%201/EYE%20CANDY/8%3a21%3a23/5_Assets/Music/ES_fly%20on%20up%20-%20Gregory%20David.mp3</pathurl>
											<rate>
												<timebase>30</timebase>
												<ntsc>TRUE</ntsc>
											</rate>
											<duration>5465</duration>
											<timecode>
												<rate>
													<timebase>30</timebase>
													<ntsc>TRUE</ntsc>
												</rate>
												<string>00;00;00;00</string>
												<frame>0</frame>
												<displayformat>DF</displayformat>
											</timecode>
											<media>
												<audio>
													<samplecharacteristics>
														<depth>16</depth>
														<samplerate>48000</samplerate>
													</samplecharacteristics>
													<channelcount>2</channelcount>
												</audio>
											</media>
										</file>
										<sourcetrack>
											<mediatype>audio</mediatype>
											<trackindex>1</trackindex>
										</sourcetrack>
										<link>
											<linkclipref>clipitem-468</linkclipref>
											<mediatype>audio</mediatype>
											<trackindex>1</trackindex>
											<clipindex>1</clipindex>
											<groupindex>1</groupindex>
										</link>
										<link>
											<linkclipref>clipitem-469</linkclipref>
											<mediatype>audio</mediatype>
											<trackindex>2</trackindex>
											<clipindex>1</clipindex>
											<groupindex>1</groupindex>
										</link>
										<logginginfo>
											<description></description>
											<scene></scene>
											<shottake></shottake>
											<lognote></lognote>
											<good></good>
											<originalvideofilename></originalvideofilename>
											<originalaudiofilename></originalaudiofilename>
										</logginginfo>
										<colorinfo>
											<lut></lut>
											<lut1></lut1>
											<asc_sop></asc_sop>
											<asc_sat></asc_sat>
											<lut2></lut2>
										</colorinfo>
										<labels>
											<label2>Caribbean</label2>
										</labels>
									</clipitem>
									<enabled>TRUE</enabled>
									<locked>FALSE</locked>
									<filter>
										<effect>
											<name>Audio Levels</name>
											<effectid>audiolevels</effectid>
											<effectcategory>audiolevels</effectcategory>
											<effecttype>audiolevels</effecttype>
											<mediatype>audio</mediatype>
											<parameter authoringApp="PremierePro">
												<parameterid>level</parameterid>
												<name>Level</name>
												<valuemin>0</valuemin>
												<valuemax>3.98109</valuemax>
												<value>0.706272</value>
											</parameter>
										</effect>
									</filter>
									<outputchannelindex>1</outputchannelindex>
								</track>
								<track TL.SQTrackAudioKeyframeStyle="0" TL.SQTrackShy="0" TL.SQTrackExpandedHeight="25" TL.SQTrackExpanded="0" MZ.TrackTargeted="1" PannerCurrentValue="0.5" PannerIsInverted="true" PannerStartKeyframe="-91445760000000000,0.5,0,0,0,0,0,0" PannerName="Balance" currentExplodedTrackIndex="1" totalExplodedTrackCount="2" premiereTrackType="Stereo">
									<clipitem id="clipitem-469" premiereChannelType="stereo">
										<masterclipid>masterclip-185</masterclipid>
										<name>ES_fly on up - Gregory David.mp3</name>
										<enabled>TRUE</enabled>
										<duration>5465</duration>
										<rate>
											<timebase>30</timebase>
											<ntsc>TRUE</ntsc>
										</rate>
										<start>0</start>
										<end>1739</end>
										<in>0</in>
										<out>1739</out>
										<pproTicksIn>0</pproTicksIn>
										<pproTicksOut>14739185260800</pproTicksOut>
										<file id="file-183"/>
										<sourcetrack>
											<mediatype>audio</mediatype>
											<trackindex>2</trackindex>
										</sourcetrack>
										<link>
											<linkclipref>clipitem-468</linkclipref>
											<mediatype>audio</mediatype>
											<trackindex>1</trackindex>
											<clipindex>1</clipindex>
											<groupindex>1</groupindex>
										</link>
										<link>
											<linkclipref>clipitem-469</linkclipref>
											<mediatype>audio</mediatype>
											<trackindex>2</trackindex>
											<clipindex>1</clipindex>
											<groupindex>1</groupindex>
										</link>
										<logginginfo>
											<description></description>
											<scene></scene>
											<shottake></shottake>
											<lognote></lognote>
											<good></good>
											<originalvideofilename></originalvideofilename>
											<originalaudiofilename></originalaudiofilename>
										</logginginfo>
										<colorinfo>
											<lut></lut>
											<lut1></lut1>
											<asc_sop></asc_sop>
											<asc_sat></asc_sat>
											<lut2></lut2>
										</colorinfo>
										<labels>
											<label2>Caribbean</label2>
										</labels>
									</clipitem>
									<enabled>TRUE</enabled>
									<locked>FALSE</locked>
									<filter>
										<effect>
											<name>Audio Levels</name>
											<effectid>audiolevels</effectid>
											<effectcategory>audiolevels</effectcategory>
											<effecttype>audiolevels</effecttype>
											<mediatype>audio</mediatype>
											<parameter authoringApp="PremierePro">
												<parameterid>level</parameterid>
												<name>Level</name>
												<valuemin>0</valuemin>
												<valuemax>3.98109</valuemax>
												<value>0.706272</value>
											</parameter>
										</effect>
									</filter>
									<outputchannelindex>2</outputchannelindex>
								</track>
								<track TL.SQTrackAudioKeyframeStyle="0" TL.SQTrackShy="0" TL.SQTrackExpandedHeight="25" TL.SQTrackExpanded="0" MZ.TrackTargeted="0" PannerCurrentValue="0.5" PannerIsInverted="true" PannerStartKeyframe="-91445760000000000,0.5,0,0,0,0,0,0" PannerName="Balance" currentExplodedTrackIndex="0" totalExplodedTrackCount="2" premiereTrackType="Stereo">
									<enabled>TRUE</enabled>
									<locked>FALSE</locked>
									<outputchannelindex>1</outputchannelindex>
								</track>
								<track TL.SQTrackAudioKeyframeStyle="0" TL.SQTrackShy="0" TL.SQTrackExpandedHeight="25" TL.SQTrackExpanded="0" MZ.TrackTargeted="0" PannerCurrentValue="0.5" PannerIsInverted="true" PannerStartKeyframe="-91445760000000000,0.5,0,0,0,0,0,0" PannerName="Balance" currentExplodedTrackIndex="1" totalExplodedTrackCount="2" premiereTrackType="Stereo">
									<enabled>TRUE</enabled>
									<locked>FALSE</locked>
									<outputchannelindex>2</outputchannelindex>
								</track>
								<track TL.SQTrackAudioKeyframeStyle="0" TL.SQTrackShy="0" TL.SQTrackExpandedHeight="25" TL.SQTrackExpanded="0" MZ.TrackTargeted="0" PannerCurrentValue="0.5" PannerIsInverted="true" PannerStartKeyframe="-91445760000000000,0.5,0,0,0,0,0,0" PannerName="Balance" currentExplodedTrackIndex="0" totalExplodedTrackCount="2" premiereTrackType="Stereo">
									<enabled>TRUE</enabled>
									<locked>FALSE</locked>
									<outputchannelindex>1</outputchannelindex>
								</track>
								<track TL.SQTrackAudioKeyframeStyle="0" TL.SQTrackShy="0" TL.SQTrackExpandedHeight="25" TL.SQTrackExpanded="0" MZ.TrackTargeted="0" PannerCurrentValue="0.5" PannerIsInverted="true" PannerStartKeyframe="-91445760000000000,0.5,0,0,0,0,0,0" PannerName="Balance" currentExplodedTrackIndex="1" totalExplodedTrackCount="2" premiereTrackType="Stereo">
									<enabled>TRUE</enabled>
									<locked>FALSE</locked>
									<outputchannelindex>2</outputchannelindex>
								</track>
								<track TL.SQTrackAudioKeyframeStyle="0" TL.SQTrackShy="0" TL.SQTrackExpandedHeight="25" TL.SQTrackExpanded="0" MZ.TrackTargeted="0" PannerCurrentValue="0.5" PannerIsInverted="true" PannerStartKeyframe="-91445760000000000,0.5,0,0,0,0,0,0" PannerName="Balance" currentExplodedTrackIndex="0" totalExplodedTrackCount="2" premiereTrackType="Stereo">
									<enabled>TRUE</enabled>
									<locked>FALSE</locked>
									<outputchannelindex>1</outputchannelindex>
								</track>
								<track TL.SQTrackAudioKeyframeStyle="0" TL.SQTrackShy="0" TL.SQTrackExpandedHeight="25" TL.SQTrackExpanded="0" MZ.TrackTargeted="0" PannerCurrentValue="0.5" PannerIsInverted="true" PannerStartKeyframe="-91445760000000000,0.5,0,0,0,0,0,0" PannerName="Balance" currentExplodedTrackIndex="1" totalExplodedTrackCount="2" premiereTrackType="Stereo">
									<enabled>TRUE</enabled>
									<locked>FALSE</locked>
									<outputchannelindex>2</outputchannelindex>
								</track>
								<track TL.SQTrackAudioKeyframeStyle="0" TL.SQTrackShy="0" TL.SQTrackExpandedHeight="25" TL.SQTrackExpanded="0" MZ.TrackTargeted="0" PannerCurrentValue="0.5" PannerIsInverted="true" PannerStartKeyframe="-91445760000000000,0.5,0,0,0,0,0,0" PannerName="Balance" currentExplodedTrackIndex="0" totalExplodedTrackCount="2" premiereTrackType="Stereo">
									<enabled>TRUE</enabled>
									<locked>FALSE</locked>
									<outputchannelindex>1</outputchannelindex>
								</track>
								<track TL.SQTrackAudioKeyframeStyle="0" TL.SQTrackShy="0" TL.SQTrackExpandedHeight="25" TL.SQTrackExpanded="0" MZ.TrackTargeted="0" PannerCurrentValue="0.5" PannerIsInverted="true" PannerStartKeyframe="-91445760000000000,0.5,0,0,0,0,0,0" PannerName="Balance" currentExplodedTrackIndex="1" totalExplodedTrackCount="2" premiereTrackType="Stereo">
									<enabled>TRUE</enabled>
									<locked>FALSE</locked>
									<outputchannelindex>2</outputchannelindex>
								</track>
								<track TL.SQTrackAudioKeyframeStyle="0" TL.SQTrackShy="0" TL.SQTrackExpandedHeight="25" TL.SQTrackExpanded="0" MZ.TrackTargeted="0" PannerCurrentValue="0.5" PannerIsInverted="true" PannerStartKeyframe="-91445760000000000,0.5,0,0,0,0,0,0" PannerName="Balance" currentExplodedTrackIndex="0" totalExplodedTrackCount="2" premiereTrackType="Stereo">
									<enabled>TRUE</enabled>
									<locked>FALSE</locked>
									<outputchannelindex>1</outputchannelindex>
								</track>
								<track TL.SQTrackAudioKeyframeStyle="0" TL.SQTrackShy="0" TL.SQTrackExpandedHeight="25" TL.SQTrackExpanded="0" MZ.TrackTargeted="0" PannerCurrentValue="0.5" PannerIsInverted="true" PannerStartKeyframe="-91445760000000000,0.5,0,0,0,0,0,0" PannerName="Balance" currentExplodedTrackIndex="1" totalExplodedTrackCount="2" premiereTrackType="Stereo">
									<enabled>TRUE</enabled>
									<locked>FALSE</locked>
									<outputchannelindex>2</outputchannelindex>
								</track>
								<track TL.SQTrackAudioKeyframeStyle="0" TL.SQTrackShy="0" TL.SQTrackExpandedHeight="25" TL.SQTrackExpanded="0" MZ.TrackTargeted="0" PannerCurrentValue="0.5" PannerIsInverted="true" PannerStartKeyframe="-91445760000000000,0.5,0,0,0,0,0,0" PannerName="Balance" currentExplodedTrackIndex="0" totalExplodedTrackCount="2" premiereTrackType="Stereo">
									<enabled>TRUE</enabled>
									<locked>FALSE</locked>
									<outputchannelindex>1</outputchannelindex>
								</track>
								<track TL.SQTrackAudioKeyframeStyle="0" TL.SQTrackShy="0" TL.SQTrackExpandedHeight="25" TL.SQTrackExpanded="0" MZ.TrackTargeted="0" PannerCurrentValue="0.5" PannerIsInverted="true" PannerStartKeyframe="-91445760000000000,0.5,0,0,0,0,0,0" PannerName="Balance" currentExplodedTrackIndex="1" totalExplodedTrackCount="2" premiereTrackType="Stereo">
									<enabled>TRUE</enabled>
									<locked>FALSE</locked>
									<outputchannelindex>2</outputchannelindex>
								</track>
								<track TL.SQTrackAudioKeyframeStyle="0" TL.SQTrackShy="0" TL.SQTrackExpandedHeight="25" TL.SQTrackExpanded="0" MZ.TrackTargeted="0" PannerCurrentValue="0.5" PannerIsInverted="true" PannerStartKeyframe="-91445760000000000,0.5,0,0,0,0,0,0" PannerName="Balance" currentExplodedTrackIndex="0" totalExplodedTrackCount="2" premiereTrackType="Stereo">
									<enabled>TRUE</enabled>
									<locked>FALSE</locked>
									<outputchannelindex>1</outputchannelindex>
								</track>
								<track TL.SQTrackAudioKeyframeStyle="0" TL.SQTrackShy="0" TL.SQTrackExpandedHeight="25" TL.SQTrackExpanded="0" MZ.TrackTargeted="0" PannerCurrentValue="0.5" PannerIsInverted="true" PannerStartKeyframe="-91445760000000000,0.5,0,0,0,0,0,0" PannerName="Balance" currentExplodedTrackIndex="1" totalExplodedTrackCount="2" premiereTrackType="Stereo">
									<enabled>TRUE</enabled>
									<locked>FALSE</locked>
									<outputchannelindex>2</outputchannelindex>
								</track>
								<track TL.SQTrackAudioKeyframeStyle="0" TL.SQTrackShy="0" TL.SQTrackExpandedHeight="25" TL.SQTrackExpanded="0" MZ.TrackTargeted="0" PannerCurrentValue="0.5" PannerIsInverted="true" PannerStartKeyframe="-91445760000000000,0.5,0,0,0,0,0,0" PannerName="Balance" currentExplodedTrackIndex="0" totalExplodedTrackCount="2" premiereTrackType="Stereo">
									<enabled>TRUE</enabled>
									<locked>FALSE</locked>
									<outputchannelindex>1</outputchannelindex>
								</track>
								<track TL.SQTrackAudioKeyframeStyle="0" TL.SQTrackShy="0" TL.SQTrackExpandedHeight="25" TL.SQTrackExpanded="0" MZ.TrackTargeted="0" PannerCurrentValue="0.5" PannerIsInverted="true" PannerStartKeyframe="-91445760000000000,0.5,0,0,0,0,0,0" PannerName="Balance" currentExplodedTrackIndex="1" totalExplodedTrackCount="2" premiereTrackType="Stereo">
									<enabled>TRUE</enabled>
									<locked>FALSE</locked>
									<outputchannelindex>2</outputchannelindex>
								</track>
								<track TL.SQTrackAudioKeyframeStyle="0" TL.SQTrackShy="0" TL.SQTrackExpandedHeight="25" TL.SQTrackExpanded="0" MZ.TrackTargeted="0" PannerCurrentValue="0.5" PannerIsInverted="true" PannerStartKeyframe="-91445760000000000,0.5,0,0,0,0,0,0" PannerName="Balance" currentExplodedTrackIndex="0" totalExplodedTrackCount="2" premiereTrackType="Stereo">
									<enabled>TRUE</enabled>
									<locked>FALSE</locked>
									<outputchannelindex>1</outputchannelindex>
								</track>
								<track TL.SQTrackAudioKeyframeStyle="0" TL.SQTrackShy="0" TL.SQTrackExpandedHeight="25" TL.SQTrackExpanded="0" MZ.TrackTargeted="0" PannerCurrentValue="0.5" PannerIsInverted="true" PannerStartKeyframe="-91445760000000000,0.5,0,0,0,0,0,0" PannerName="Balance" currentExplodedTrackIndex="1" totalExplodedTrackCount="2" premiereTrackType="Stereo">
									<enabled>TRUE</enabled>
									<locked>FALSE</locked>
									<outputchannelindex>2</outputchannelindex>
								</track>
							</audio>
						</media>
						<timecode>
							<rate>
								<timebase>30</timebase>
								<ntsc>TRUE</ntsc>
							</rate>
							<string>00;00;00;00</string>
							<frame>0</frame>
							<displayformat>DF</displayformat>
						</timecode>
						<labels>
							<label2>Forest</label2>
						</labels>
						<logginginfo>
							<description></description>
							<scene></scene>
							<shottake></shottake>
							<lognote></lognote>
							<good></good>
							<originalvideofilename></originalvideofilename>
							<originalaudiofilename></originalaudiofilename>
						</logginginfo>
					</sequence>
					<sequence id="sequence-13" TL.SQAudioVisibleBase="0" TL.SQVideoVisibleBase="0" TL.SQVisibleBaseTime="0" TL.SQAVDividerPosition="0.5" TL.SQHideShyTracks="0" TL.SQHeaderWidth="236" TL.SQDataTrackViewControlState="0" Monitor.ProgramZoomOut="26096579308800" Monitor.ProgramZoomIn="0" TL.SQTimePerPixel="0.12095190136670254" AM.TrackVScrollPosition="0" AM.TrackScrollPosition="0" MZ.EditLine="21028130323200" MZ.Sequence.PreviewFrameSizeHeight="1080" MZ.Sequence.PreviewFrameSizeWidth="1920" MZ.Sequence.AudioTimeDisplayFormat="200" MZ.Sequence.PreviewRenderingClassID="1061109567" MZ.Sequence.PreviewRenderingPresetCodec="1634755443" MZ.Sequence.PreviewRenderingPresetPath="EncoderPresets/SequencePreview/35d109db-457b-43c1-9452-9cb7be9f121c/QuickTime.epr" MZ.Sequence.PreviewUseMaxRenderQuality="false" MZ.Sequence.PreviewUseMaxBitDepth="false" MZ.Sequence.EditingModeGUID="35d109db-457b-43c1-9452-9cb7be9f121c" MZ.Sequence.VideoTimeDisplayFormat="102" MZ.WorkOutPoint="1262874412800" MZ.WorkInPoint="0" explodedTracks="true">
						<uuid>45c84d83-c3c9-4022-b597-81bccafcb5a8</uuid>
						<duration>3079</duration>
						<rate>
							<timebase>30</timebase>
							<ntsc>TRUE</ntsc>
						</rate>
						<name>FND_I'm Flipping Out_2</name>
						<media>
							<video>
								<format>
									<samplecharacteristics>
										<rate>
											<timebase>30</timebase>
											<ntsc>TRUE</ntsc>
										</rate>
										<codec>
											<name>Apple ProRes 422</name>
											<appspecificdata>
												<appname>Final Cut Pro</appname>
												<appmanufacturer>Apple Inc.</appmanufacturer>
												<appversion>7.0</appversion>
												<data>
													<qtcodec>
														<codecname>Apple ProRes 422</codecname>
														<codectypename>Apple ProRes 422</codectypename>
														<codectypecode>apcn</codectypecode>
														<codecvendorcode>appl</codecvendorcode>
														<spatialquality>1024</spatialquality>
														<temporalquality>0</temporalquality>
														<keyframerate>0</keyframerate>
														<datarate>0</datarate>
													</qtcodec>
												</data>
											</appspecificdata>
										</codec>
										<width>1920</width>
										<height>1080</height>
										<anamorphic>FALSE</anamorphic>
										<pixelaspectratio>square</pixelaspectratio>
										<fielddominance>none</fielddominance>
										<colordepth>24</colordepth>
									</samplecharacteristics>
								</format>
								<track TL.SQTrackShy="0" TL.SQTrackExpandedHeight="25" TL.SQTrackExpanded="0" MZ.TrackTargeted="1">
									<clipitem id="clipitem-470">
										<masterclipid>masterclip-86</masterclipid>
										<name>571287_Butter Grill Melting Bubbling_By_Jordan_Hatfield_Artlist_HD.mp4</name>
										<enabled>TRUE</enabled>
										<duration>450</duration>
										<rate>
											<timebase>30</timebase>
											<ntsc>TRUE</ntsc>
										</rate>
										<start>0</start>
										<end>111</end>
										<in>0</in>
										<out>111</out>
										<pproTicksIn>0</pproTicksIn>
										<pproTicksOut>940799059200</pproTicksOut>
										<alphatype>none</alphatype>
										<file id="file-86"/>
										<logginginfo>
											<description></description>
											<scene></scene>
											<shottake></shottake>
											<lognote></lognote>
											<good></good>
											<originalvideofilename></originalvideofilename>
											<originalaudiofilename></originalaudiofilename>
										</logginginfo>
										<colorinfo>
											<lut></lut>
											<lut1></lut1>
											<asc_sop></asc_sop>
											<asc_sat></asc_sat>
											<lut2></lut2>
										</colorinfo>
									</clipitem>
									<clipitem id="clipitem-471">
										<masterclipid>masterclip-103</masterclipid>
										<name>571325_Butter Grill Melting Bubbling_By_Jordan_Hatfield_Artlist_HD.mp4</name>
										<enabled>TRUE</enabled>
										<duration>421</duration>
										<rate>
											<timebase>30</timebase>
											<ntsc>TRUE</ntsc>
										</rate>
										<start>111</start>
										<end>226</end>
										<in>0</in>
										<out>115</out>
										<pproTicksIn>0</pproTicksIn>
										<pproTicksOut>974701728000</pproTicksOut>
										<alphatype>none</alphatype>
										<file id="file-103"/>
										<logginginfo>
											<description></description>
											<scene></scene>
											<shottake></shottake>
											<lognote></lognote>
											<good></good>
											<originalvideofilename></originalvideofilename>
											<originalaudiofilename></originalaudiofilename>
										</logginginfo>
										<colorinfo>
											<lut></lut>
											<lut1></lut1>
											<asc_sop></asc_sop>
											<asc_sat></asc_sat>
											<lut2></lut2>
										</colorinfo>
									</clipitem>
									<clipitem id="clipitem-472">
										<masterclipid>masterclip-87</masterclipid>
										<name>571288_Butter Grill Melting Bubbling_By_Jordan_Hatfield_Artlist_HD.mp4</name>
										<enabled>TRUE</enabled>
										<duration>528</duration>
										<rate>
											<timebase>30</timebase>
											<ntsc>TRUE</ntsc>
										</rate>
										<start>226</start>
										<end>308</end>
										<in>337</in>
										<out>419</out>
										<pproTicksIn>2856299846400</pproTicksIn>
										<pproTicksOut>3551304556800</pproTicksOut>
										<alphatype>none</alphatype>
										<file id="file-87"/>
										<logginginfo>
											<description></description>
											<scene></scene>
											<shottake></shottake>
											<lognote></lognote>
											<good></good>
											<originalvideofilename></originalvideofilename>
											<originalaudiofilename></originalaudiofilename>
										</logginginfo>
										<colorinfo>
											<lut></lut>
											<lut1></lut1>
											<asc_sop></asc_sop>
											<asc_sat></asc_sat>
											<lut2></lut2>
										</colorinfo>
									</clipitem>
									<clipitem id="clipitem-473">
										<masterclipid>masterclip-102</masterclipid>
										<name>571323_Pouring Batter Grill Cooking_By_Jordan_Hatfield_Artlist_HD.mp4</name>
										<enabled>TRUE</enabled>
										<duration>252</duration>
										<rate>
											<timebase>30</timebase>
											<ntsc>TRUE</ntsc>
										</rate>
										<start>308</start>
										<end>480</end>
										<in>0</in>
										<out>172</out>
										<pproTicksIn>0</pproTicksIn>
										<pproTicksOut>1457814758400</pproTicksOut>
										<alphatype>none</alphatype>
										<file id="file-102"/>
										<logginginfo>
											<description></description>
											<scene></scene>
											<shottake></shottake>
											<lognote></lognote>
											<good></good>
											<originalvideofilename></originalvideofilename>
											<originalaudiofilename></originalaudiofilename>
										</logginginfo>
										<colorinfo>
											<lut></lut>
											<lut1></lut1>
											<asc_sop></asc_sop>
											<asc_sat></asc_sat>
											<lut2></lut2>
										</colorinfo>
									</clipitem>
									<clipitem id="clipitem-474">
										<masterclipid>masterclip-95</masterclipid>
										<name>571314_Cooking Pancake Pouring Batter_By_Jordan_Hatfield_Artlist_HD.mp4</name>
										<enabled>TRUE</enabled>
										<duration>341</duration>
										<rate>
											<timebase>30</timebase>
											<ntsc>TRUE</ntsc>
										</rate>
										<start>480</start>
										<end>635</end>
										<in>0</in>
										<out>155</out>
										<pproTicksIn>0</pproTicksIn>
										<pproTicksOut>1313728416000</pproTicksOut>
										<alphatype>none</alphatype>
										<file id="file-95"/>
										<logginginfo>
											<description></description>
											<scene></scene>
											<shottake></shottake>
											<lognote></lognote>
											<good></good>
											<originalvideofilename></originalvideofilename>
											<originalaudiofilename></originalaudiofilename>
										</logginginfo>
										<colorinfo>
											<lut></lut>
											<lut1></lut1>
											<asc_sop></asc_sop>
											<asc_sat></asc_sat>
											<lut2></lut2>
										</colorinfo>
									</clipitem>
									<clipitem id="clipitem-475">
										<masterclipid>masterclip-91</masterclipid>
										<name>571310_Cooking Pancake Pouring Batter_By_Jordan_Hatfield_Artlist_HD.mp4</name>
										<enabled>TRUE</enabled>
										<duration>506</duration>
										<rate>
											<timebase>30</timebase>
											<ntsc>TRUE</ntsc>
										</rate>
										<start>635</start>
										<end>832</end>
										<in>0</in>
										<out>197</out>
										<pproTicksIn>0</pproTicksIn>
										<pproTicksOut>1669706438400</pproTicksOut>
										<alphatype>none</alphatype>
										<file id="file-91"/>
										<logginginfo>
											<description></description>
											<scene></scene>
											<shottake></shottake>
											<lognote></lognote>
											<good></good>
											<originalvideofilename></originalvideofilename>
											<originalaudiofilename></originalaudiofilename>
										</logginginfo>
										<colorinfo>
											<lut></lut>
											<lut1></lut1>
											<asc_sop></asc_sop>
											<asc_sat></asc_sat>
											<lut2></lut2>
										</colorinfo>
									</clipitem>
									<clipitem id="clipitem-476">
										<masterclipid>masterclip-94</masterclipid>
										<name>571313_Cooking Pancake Pouring Batter_By_Jordan_Hatfield_Artlist_HD.mp4</name>
										<enabled>TRUE</enabled>
										<duration>389</duration>
										<rate>
											<timebase>30</timebase>
											<ntsc>TRUE</ntsc>
										</rate>
										<start>832</start>
										<end>1009</end>
										<in>26</in>
										<out>203</out>
										<pproTicksIn>220367347200</pproTicksIn>
										<pproTicksOut>1720560441600</pproTicksOut>
										<alphatype>none</alphatype>
										<file id="file-94"/>
										<logginginfo>
											<description></description>
											<scene></scene>
											<shottake></shottake>
											<lognote></lognote>
											<good></good>
											<originalvideofilename></originalvideofilename>
											<originalaudiofilename></originalaudiofilename>
										</logginginfo>
										<colorinfo>
											<lut></lut>
											<lut1></lut1>
											<asc_sop></asc_sop>
											<asc_sat></asc_sat>
											<lut2></lut2>
										</colorinfo>
									</clipitem>
									<clipitem id="clipitem-477">
										<masterclipid>masterclip-93</masterclipid>
										<name>571312_Crepes  Pancakes Waffle Cooking_By_Jordan_Hatfield_Artlist_HD.mp4</name>
										<enabled>TRUE</enabled>
										<duration>421</duration>
										<rate>
											<timebase>30</timebase>
											<ntsc>TRUE</ntsc>
										</rate>
										<start>1009</start>
										<end>1151</end>
										<in>0</in>
										<out>142</out>
										<pproTicksIn>0</pproTicksIn>
										<pproTicksOut>1203544742400</pproTicksOut>
										<alphatype>none</alphatype>
										<file id="file-93"/>
										<logginginfo>
											<description></description>
											<scene></scene>
											<shottake></shottake>
											<lognote></lognote>
											<good></good>
											<originalvideofilename></originalvideofilename>
											<originalaudiofilename></originalaudiofilename>
										</logginginfo>
										<colorinfo>
											<lut></lut>
											<lut1></lut1>
											<asc_sop></asc_sop>
											<asc_sat></asc_sat>
											<lut2></lut2>
										</colorinfo>
									</clipitem>
									<clipitem id="clipitem-478">
										<masterclipid>masterclip-96</masterclipid>
										<name>571315_Crepes  Pancakes Waffle Cooking_By_Jordan_Hatfield_Artlist_HD.mp4</name>
										<enabled>TRUE</enabled>
										<duration>211</duration>
										<rate>
											<timebase>30</timebase>
											<ntsc>TRUE</ntsc>
										</rate>
										<start>1151</start>
										<end>1257</end>
										<in>0</in>
										<out>106</out>
										<pproTicksIn>0</pproTicksIn>
										<pproTicksOut>898420723200</pproTicksOut>
										<alphatype>none</alphatype>
										<file id="file-96"/>
										<logginginfo>
											<description></description>
											<scene></scene>
											<shottake></shottake>
											<lognote></lognote>
											<good></good>
											<originalvideofilename></originalvideofilename>
											<originalaudiofilename></originalaudiofilename>
										</logginginfo>
										<colorinfo>
											<lut></lut>
											<lut1></lut1>
											<asc_sop></asc_sop>
											<asc_sat></asc_sat>
											<lut2></lut2>
										</colorinfo>
									</clipitem>
									<clipitem id="clipitem-479">
										<masterclipid>masterclip-92</masterclipid>
										<name>571311_Grilling Pancakes Waffle Cooking_By_Jordan_Hatfield_Artlist_HD.mp4</name>
										<enabled>TRUE</enabled>
										<duration>343</duration>
										<rate>
											<timebase>30</timebase>
											<ntsc>TRUE</ntsc>
										</rate>
										<start>1257</start>
										<end>1374</end>
										<in>126</in>
										<out>243</out>
										<pproTicksIn>1067934067200</pproTicksIn>
										<pproTicksOut>2059587129600</pproTicksOut>
										<alphatype>none</alphatype>
										<file id="file-92"/>
										<logginginfo>
											<description></description>
											<scene></scene>
											<shottake></shottake>
											<lognote></lognote>
											<good></good>
											<originalvideofilename></originalvideofilename>
											<originalaudiofilename></originalaudiofilename>
										</logginginfo>
										<colorinfo>
											<lut></lut>
											<lut1></lut1>
											<asc_sop></asc_sop>
											<asc_sat></asc_sat>
											<lut2></lut2>
										</colorinfo>
									</clipitem>
									<clipitem id="clipitem-480">
										<masterclipid>masterclip-89</masterclipid>
										<name>571305_Grilling Pancakes Waffle Cooking_By_Jordan_Hatfield_Artlist_HD.mp4</name>
										<enabled>TRUE</enabled>
										<duration>244</duration>
										<rate>
											<timebase>30</timebase>
											<ntsc>TRUE</ntsc>
										</rate>
										<start>1374</start>
										<end>1504</end>
										<in>0</in>
										<out>130</out>
										<pproTicksIn>0</pproTicksIn>
										<pproTicksOut>1101836736000</pproTicksOut>
										<alphatype>none</alphatype>
										<file id="file-89"/>
										<logginginfo>
											<description></description>
											<scene></scene>
											<shottake></shottake>
											<lognote></lognote>
											<good></good>
											<originalvideofilename></originalvideofilename>
											<originalaudiofilename></originalaudiofilename>
										</logginginfo>
										<colorinfo>
											<lut></lut>
											<lut1></lut1>
											<asc_sop></asc_sop>
											<asc_sat></asc_sat>
											<lut2></lut2>
										</colorinfo>
									</clipitem>
									<clipitem id="clipitem-481">
										<masterclipid>masterclip-85</masterclipid>
										<name>571286_Grilling Pancakes Waffle Cooking_By_Jordan_Hatfield_Artlist_HD.mp4</name>
										<enabled>TRUE</enabled>
										<duration>236</duration>
										<rate>
											<timebase>30</timebase>
											<ntsc>TRUE</ntsc>
										</rate>
										<start>1504</start>
										<end>1636</end>
										<in>39</in>
										<out>171</out>
										<pproTicksIn>330551020800</pproTicksIn>
										<pproTicksOut>1449339091200</pproTicksOut>
										<alphatype>none</alphatype>
										<file id="file-85"/>
										<logginginfo>
											<description></description>
											<scene></scene>
											<shottake></shottake>
											<lognote></lognote>
											<good></good>
											<originalvideofilename></originalvideofilename>
											<originalaudiofilename></originalaudiofilename>
										</logginginfo>
										<colorinfo>
											<lut></lut>
											<lut1></lut1>
											<asc_sop></asc_sop>
											<asc_sat></asc_sat>
											<lut2></lut2>
										</colorinfo>
									</clipitem>
									<clipitem id="clipitem-482">
										<masterclipid>masterclip-90</masterclipid>
										<name>571306_Grilling Pancakes Waffle Cooking_By_Jordan_Hatfield_Artlist_HD.mp4</name>
										<enabled>TRUE</enabled>
										<duration>391</duration>
										<rate>
											<timebase>30</timebase>
											<ntsc>TRUE</ntsc>
										</rate>
										<start>1636</start>
										<end>1856</end>
										<in>25</in>
										<out>245</out>
										<pproTicksIn>211891680000</pproTicksIn>
										<pproTicksOut>2076538464000</pproTicksOut>
										<alphatype>none</alphatype>
										<file id="file-90"/>
										<logginginfo>
											<description></description>
											<scene></scene>
											<shottake></shottake>
											<lognote></lognote>
											<good></good>
											<originalvideofilename></originalvideofilename>
											<originalaudiofilename></originalaudiofilename>
										</logginginfo>
										<colorinfo>
											<lut></lut>
											<lut1></lut1>
											<asc_sop></asc_sop>
											<asc_sat></asc_sat>
											<lut2></lut2>
										</colorinfo>
									</clipitem>
									<clipitem id="clipitem-483">
										<masterclipid>masterclip-104</masterclipid>
										<name>571329_Grilling Pancakes Waffle Cooking_By_Jordan_Hatfield_Artlist_HD.mp4</name>
										<enabled>TRUE</enabled>
										<duration>581</duration>
										<rate>
											<timebase>30</timebase>
											<ntsc>TRUE</ntsc>
										</rate>
										<start>1856</start>
										<end>2095</end>
										<in>246</in>
										<out>485</out>
										<pproTicksIn>2085014131200</pproTicksIn>
										<pproTicksOut>4110698592000</pproTicksOut>
										<alphatype>none</alphatype>
										<file id="file-104"/>
										<logginginfo>
											<description></description>
											<scene></scene>
											<shottake></shottake>
											<lognote></lognote>
											<good></good>
											<originalvideofilename></originalvideofilename>
											<originalaudiofilename></originalaudiofilename>
										</logginginfo>
										<colorinfo>
											<lut></lut>
											<lut1></lut1>
											<asc_sop></asc_sop>
											<asc_sat></asc_sat>
											<lut2></lut2>
										</colorinfo>
									</clipitem>
									<clipitem id="clipitem-484">
										<masterclipid>masterclip-88</masterclipid>
										<name>571290_Grilling Pancakes Waffle Cooking_By_Jordan_Hatfield_Artlist_HD.mp4</name>
										<enabled>TRUE</enabled>
										<duration>376</duration>
										<rate>
											<timebase>30</timebase>
											<ntsc>TRUE</ntsc>
										</rate>
										<start>2095</start>
										<end>2256</end>
										<in>0</in>
										<out>161</out>
										<pproTicksIn>0</pproTicksIn>
										<pproTicksOut>1364582419200</pproTicksOut>
										<alphatype>none</alphatype>
										<file id="file-88"/>
										<logginginfo>
											<description></description>
											<scene></scene>
											<shottake></shottake>
											<lognote></lognote>
											<good></good>
											<originalvideofilename></originalvideofilename>
											<originalaudiofilename></originalaudiofilename>
										</logginginfo>
										<colorinfo>
											<lut></lut>
											<lut1></lut1>
											<asc_sop></asc_sop>
											<asc_sat></asc_sat>
											<lut2></lut2>
										</colorinfo>
									</clipitem>
									<clipitem id="clipitem-485">
										<masterclipid>masterclip-101</masterclipid>
										<name>571322_Grilling Pancakes Waffle Cooking_By_Jordan_Hatfield_Artlist_HD.mp4</name>
										<enabled>TRUE</enabled>
										<duration>213</duration>
										<rate>
											<timebase>30</timebase>
											<ntsc>TRUE</ntsc>
										</rate>
										<start>2256</start>
										<end>2432</end>
										<in>0</in>
										<out>176</out>
										<pproTicksIn>0</pproTicksIn>
										<pproTicksOut>1491717427200</pproTicksOut>
										<alphatype>none</alphatype>
										<file id="file-101"/>
										<logginginfo>
											<description></description>
											<scene></scene>
											<shottake></shottake>
											<lognote></lognote>
											<good></good>
											<originalvideofilename></originalvideofilename>
											<originalaudiofilename></originalaudiofilename>
										</logginginfo>
										<colorinfo>
											<lut></lut>
											<lut1></lut1>
											<asc_sop></asc_sop>
											<asc_sat></asc_sat>
											<lut2></lut2>
										</colorinfo>
									</clipitem>
									<clipitem id="clipitem-486">
										<masterclipid>masterclip-97</masterclipid>
										<name>571317_Grilling Pancakes Waffle Cooking_By_Jordan_Hatfield_Artlist_HD.mp4</name>
										<enabled>TRUE</enabled>
										<duration>232</duration>
										<rate>
											<timebase>30</timebase>
											<ntsc>TRUE</ntsc>
										</rate>
										<start>2432</start>
										<end>2568</end>
										<in>0</in>
										<out>136</out>
										<pproTicksIn>0</pproTicksIn>
										<pproTicksOut>1152690739200</pproTicksOut>
										<alphatype>none</alphatype>
										<file id="file-97"/>
										<logginginfo>
											<description></description>
											<scene></scene>
											<shottake></shottake>
											<lognote></lognote>
											<good></good>
											<originalvideofilename></originalvideofilename>
											<originalaudiofilename></originalaudiofilename>
										</logginginfo>
										<colorinfo>
											<lut></lut>
											<lut1></lut1>
											<asc_sop></asc_sop>
											<asc_sat></asc_sat>
											<lut2></lut2>
										</colorinfo>
									</clipitem>
									<clipitem id="clipitem-487">
										<masterclipid>masterclip-98</masterclipid>
										<name>571318_Grilling Pancakes Waffle Cooking_By_Jordan_Hatfield_Artlist_HD.mp4</name>
										<enabled>TRUE</enabled>
										<duration>337</duration>
										<rate>
											<timebase>30</timebase>
											<ntsc>TRUE</ntsc>
										</rate>
										<start>2568</start>
										<end>2720</end>
										<in>0</in>
										<out>152</out>
										<pproTicksIn>0</pproTicksIn>
										<pproTicksOut>1288301414400</pproTicksOut>
										<alphatype>none</alphatype>
										<file id="file-98"/>
										<logginginfo>
											<description></description>
											<scene></scene>
											<shottake></shottake>
											<lognote></lognote>
											<good></good>
											<originalvideofilename></originalvideofilename>
											<originalaudiofilename></originalaudiofilename>
										</logginginfo>
										<colorinfo>
											<lut></lut>
											<lut1></lut1>
											<asc_sop></asc_sop>
											<asc_sat></asc_sat>
											<lut2></lut2>
										</colorinfo>
									</clipitem>
									<clipitem id="clipitem-488">
										<masterclipid>masterclip-99</masterclipid>
										<name>571319_Grilling Pancakes Waffle Cooking_By_Jordan_Hatfield_Artlist_HD.mp4</name>
										<enabled>TRUE</enabled>
										<duration>592</duration>
										<rate>
											<timebase>30</timebase>
											<ntsc>TRUE</ntsc>
										</rate>
										<start>2720</start>
										<end>3079</end>
										<in>216</in>
										<out>575</out>
										<pproTicksIn>1830744115200</pproTicksIn>
										<pproTicksOut>4873508640000</pproTicksOut>
										<alphatype>none</alphatype>
										<file id="file-99"/>
										<logginginfo>
											<description></description>
											<scene></scene>
											<shottake></shottake>
											<lognote></lognote>
											<good></good>
											<originalvideofilename></originalvideofilename>
											<originalaudiofilename></originalaudiofilename>
										</logginginfo>
										<colorinfo>
											<lut></lut>
											<lut1></lut1>
											<asc_sop></asc_sop>
											<asc_sat></asc_sat>
											<lut2></lut2>
										</colorinfo>
									</clipitem>
									<enabled>TRUE</enabled>
									<locked>FALSE</locked>
								</track>
								<track TL.SQTrackShy="0" TL.SQTrackExpandedHeight="25" TL.SQTrackExpanded="0" MZ.TrackTargeted="0">
									<enabled>TRUE</enabled>
									<locked>FALSE</locked>
								</track>
								<track TL.SQTrackShy="0" TL.SQTrackExpandedHeight="25" TL.SQTrackExpanded="0" MZ.TrackTargeted="0">
									<enabled>TRUE</enabled>
									<locked>FALSE</locked>
								</track>
								<track TL.SQTrackShy="0" TL.SQTrackExpandedHeight="25" TL.SQTrackExpanded="0" MZ.TrackTargeted="0">
									<enabled>TRUE</enabled>
									<locked>FALSE</locked>
								</track>
								<track TL.SQTrackShy="0" TL.SQTrackExpandedHeight="25" TL.SQTrackExpanded="0" MZ.TrackTargeted="0">
									<enabled>TRUE</enabled>
									<locked>FALSE</locked>
								</track>
								<track TL.SQTrackShy="0" TL.SQTrackExpandedHeight="25" TL.SQTrackExpanded="0" MZ.TrackTargeted="0">
									<enabled>TRUE</enabled>
									<locked>FALSE</locked>
								</track>
								<track TL.SQTrackShy="0" TL.SQTrackExpandedHeight="25" TL.SQTrackExpanded="0" MZ.TrackTargeted="0">
									<enabled>TRUE</enabled>
									<locked>FALSE</locked>
								</track>
								<track TL.SQTrackShy="0" TL.SQTrackExpandedHeight="25" TL.SQTrackExpanded="0" MZ.TrackTargeted="0">
									<enabled>TRUE</enabled>
									<locked>FALSE</locked>
								</track>
								<track TL.SQTrackShy="0" TL.SQTrackExpandedHeight="25" TL.SQTrackExpanded="0" MZ.TrackTargeted="0">
									<enabled>TRUE</enabled>
									<locked>FALSE</locked>
								</track>
								<track TL.SQTrackShy="0" TL.SQTrackExpandedHeight="25" TL.SQTrackExpanded="0" MZ.TrackTargeted="0">
									<enabled>TRUE</enabled>
									<locked>FALSE</locked>
								</track>
							</video>
							<audio>
								<numOutputChannels>2</numOutputChannels>
								<format>
									<samplecharacteristics>
										<depth>16</depth>
										<samplerate>48000</samplerate>
									</samplecharacteristics>
								</format>
								<outputs>
									<group>
										<index>1</index>
										<numchannels>1</numchannels>
										<downmix>0</downmix>
										<channel>
											<index>1</index>
										</channel>
									</group>
									<group>
										<index>2</index>
										<numchannels>1</numchannels>
										<downmix>0</downmix>
										<channel>
											<index>2</index>
										</channel>
									</group>
								</outputs>
								<track TL.SQTrackAudioKeyframeStyle="0" TL.SQTrackShy="0" TL.SQTrackExpandedHeight="25" TL.SQTrackExpanded="0" MZ.TrackTargeted="1" PannerCurrentValue="0.5" PannerIsInverted="true" PannerStartKeyframe="-91445760000000000,0.5,0,0,0,0,0,0" PannerName="Balance" currentExplodedTrackIndex="0" totalExplodedTrackCount="2" premiereTrackType="Stereo">
									<clipitem id="clipitem-489" premiereChannelType="stereo">
										<masterclipid>masterclip-186</masterclipid>
										<name>ES_Icecold - FLYIN.mp3</name>
										<enabled>TRUE</enabled>
										<duration>5754</duration>
										<rate>
											<timebase>30</timebase>
											<ntsc>TRUE</ntsc>
										</rate>
										<start>0</start>
										<end>3079</end>
										<in>0</in>
										<out>3079</out>
										<pproTicksIn>0</pproTicksIn>
										<pproTicksOut>26096579308800</pproTicksOut>
										<file id="file-184">
											<name>ES_Icecold - FLYIN.mp3</name>
											<pathurl>file://localhost/Volumes/ATM%201/EYE%20CANDY/8%3a21%3a23/5_Assets/Music/ES_Icecold%20-%20FLYIN.mp3</pathurl>
											<rate>
												<timebase>30</timebase>
												<ntsc>TRUE</ntsc>
											</rate>
											<duration>5754</duration>
											<timecode>
												<rate>
													<timebase>30</timebase>
													<ntsc>TRUE</ntsc>
												</rate>
												<string>00;00;00;00</string>
												<frame>0</frame>
												<displayformat>DF</displayformat>
											</timecode>
											<media>
												<audio>
													<samplecharacteristics>
														<depth>16</depth>
														<samplerate>48000</samplerate>
													</samplecharacteristics>
													<channelcount>2</channelcount>
												</audio>
											</media>
										</file>
										<sourcetrack>
											<mediatype>audio</mediatype>
											<trackindex>1</trackindex>
										</sourcetrack>
										<link>
											<linkclipref>clipitem-489</linkclipref>
											<mediatype>audio</mediatype>
											<trackindex>1</trackindex>
											<clipindex>1</clipindex>
											<groupindex>1</groupindex>
										</link>
										<link>
											<linkclipref>clipitem-490</linkclipref>
											<mediatype>audio</mediatype>
											<trackindex>2</trackindex>
											<clipindex>1</clipindex>
											<groupindex>1</groupindex>
										</link>
										<logginginfo>
											<description></description>
											<scene></scene>
											<shottake></shottake>
											<lognote></lognote>
											<good></good>
											<originalvideofilename></originalvideofilename>
											<originalaudiofilename></originalaudiofilename>
										</logginginfo>
										<colorinfo>
											<lut></lut>
											<lut1></lut1>
											<asc_sop></asc_sop>
											<asc_sat></asc_sat>
											<lut2></lut2>
										</colorinfo>
										<labels>
											<label2>Caribbean</label2>
										</labels>
									</clipitem>
									<enabled>TRUE</enabled>
									<locked>FALSE</locked>
									<filter>
										<effect>
											<name>Audio Levels</name>
											<effectid>audiolevels</effectid>
											<effectcategory>audiolevels</effectcategory>
											<effecttype>audiolevels</effecttype>
											<mediatype>audio</mediatype>
											<parameter authoringApp="PremierePro">
												<parameterid>level</parameterid>
												<name>Level</name>
												<valuemin>0</valuemin>
												<valuemax>3.98109</valuemax>
												<value>0.706272</value>
											</parameter>
										</effect>
									</filter>
									<outputchannelindex>1</outputchannelindex>
								</track>
								<track TL.SQTrackAudioKeyframeStyle="0" TL.SQTrackShy="0" TL.SQTrackExpandedHeight="25" TL.SQTrackExpanded="0" MZ.TrackTargeted="1" PannerCurrentValue="0.5" PannerIsInverted="true" PannerStartKeyframe="-91445760000000000,0.5,0,0,0,0,0,0" PannerName="Balance" currentExplodedTrackIndex="1" totalExplodedTrackCount="2" premiereTrackType="Stereo">
									<clipitem id="clipitem-490" premiereChannelType="stereo">
										<masterclipid>masterclip-186</masterclipid>
										<name>ES_Icecold - FLYIN.mp3</name>
										<enabled>TRUE</enabled>
										<duration>5754</duration>
										<rate>
											<timebase>30</timebase>
											<ntsc>TRUE</ntsc>
										</rate>
										<start>0</start>
										<end>3079</end>
										<in>0</in>
										<out>3079</out>
										<pproTicksIn>0</pproTicksIn>
										<pproTicksOut>26096579308800</pproTicksOut>
										<file id="file-184"/>
										<sourcetrack>
											<mediatype>audio</mediatype>
											<trackindex>2</trackindex>
										</sourcetrack>
										<link>
											<linkclipref>clipitem-489</linkclipref>
											<mediatype>audio</mediatype>
											<trackindex>1</trackindex>
											<clipindex>1</clipindex>
											<groupindex>1</groupindex>
										</link>
										<link>
											<linkclipref>clipitem-490</linkclipref>
											<mediatype>audio</mediatype>
											<trackindex>2</trackindex>
											<clipindex>1</clipindex>
											<groupindex>1</groupindex>
										</link>
										<logginginfo>
											<description></description>
											<scene></scene>
											<shottake></shottake>
											<lognote></lognote>
											<good></good>
											<originalvideofilename></originalvideofilename>
											<originalaudiofilename></originalaudiofilename>
										</logginginfo>
										<colorinfo>
											<lut></lut>
											<lut1></lut1>
											<asc_sop></asc_sop>
											<asc_sat></asc_sat>
											<lut2></lut2>
										</colorinfo>
										<labels>
											<label2>Caribbean</label2>
										</labels>
									</clipitem>
									<enabled>TRUE</enabled>
									<locked>FALSE</locked>
									<filter>
										<effect>
											<name>Audio Levels</name>
											<effectid>audiolevels</effectid>
											<effectcategory>audiolevels</effectcategory>
											<effecttype>audiolevels</effecttype>
											<mediatype>audio</mediatype>
											<parameter authoringApp="PremierePro">
												<parameterid>level</parameterid>
												<name>Level</name>
												<valuemin>0</valuemin>
												<valuemax>3.98109</valuemax>
												<value>0.706272</value>
											</parameter>
										</effect>
									</filter>
									<outputchannelindex>2</outputchannelindex>
								</track>
								<track TL.SQTrackAudioKeyframeStyle="0" TL.SQTrackShy="0" TL.SQTrackExpandedHeight="25" TL.SQTrackExpanded="0" MZ.TrackTargeted="0" PannerCurrentValue="0.5" PannerIsInverted="true" PannerStartKeyframe="-91445760000000000,0.5,0,0,0,0,0,0" PannerName="Balance" currentExplodedTrackIndex="0" totalExplodedTrackCount="2" premiereTrackType="Stereo">
									<enabled>TRUE</enabled>
									<locked>FALSE</locked>
									<outputchannelindex>1</outputchannelindex>
								</track>
								<track TL.SQTrackAudioKeyframeStyle="0" TL.SQTrackShy="0" TL.SQTrackExpandedHeight="25" TL.SQTrackExpanded="0" MZ.TrackTargeted="0" PannerCurrentValue="0.5" PannerIsInverted="true" PannerStartKeyframe="-91445760000000000,0.5,0,0,0,0,0,0" PannerName="Balance" currentExplodedTrackIndex="1" totalExplodedTrackCount="2" premiereTrackType="Stereo">
									<enabled>TRUE</enabled>
									<locked>FALSE</locked>
									<outputchannelindex>2</outputchannelindex>
								</track>
								<track TL.SQTrackAudioKeyframeStyle="0" TL.SQTrackShy="0" TL.SQTrackExpandedHeight="25" TL.SQTrackExpanded="0" MZ.TrackTargeted="0" PannerCurrentValue="0.5" PannerIsInverted="true" PannerStartKeyframe="-91445760000000000,0.5,0,0,0,0,0,0" PannerName="Balance" currentExplodedTrackIndex="0" totalExplodedTrackCount="2" premiereTrackType="Stereo">
									<enabled>TRUE</enabled>
									<locked>FALSE</locked>
									<outputchannelindex>1</outputchannelindex>
								</track>
								<track TL.SQTrackAudioKeyframeStyle="0" TL.SQTrackShy="0" TL.SQTrackExpandedHeight="25" TL.SQTrackExpanded="0" MZ.TrackTargeted="0" PannerCurrentValue="0.5" PannerIsInverted="true" PannerStartKeyframe="-91445760000000000,0.5,0,0,0,0,0,0" PannerName="Balance" currentExplodedTrackIndex="1" totalExplodedTrackCount="2" premiereTrackType="Stereo">
									<enabled>TRUE</enabled>
									<locked>FALSE</locked>
									<outputchannelindex>2</outputchannelindex>
								</track>
								<track TL.SQTrackAudioKeyframeStyle="0" TL.SQTrackShy="0" TL.SQTrackExpandedHeight="25" TL.SQTrackExpanded="0" MZ.TrackTargeted="0" PannerCurrentValue="0.5" PannerIsInverted="true" PannerStartKeyframe="-91445760000000000,0.5,0,0,0,0,0,0" PannerName="Balance" currentExplodedTrackIndex="0" totalExplodedTrackCount="2" premiereTrackType="Stereo">
									<enabled>TRUE</enabled>
									<locked>FALSE</locked>
									<outputchannelindex>1</outputchannelindex>
								</track>
								<track TL.SQTrackAudioKeyframeStyle="0" TL.SQTrackShy="0" TL.SQTrackExpandedHeight="25" TL.SQTrackExpanded="0" MZ.TrackTargeted="0" PannerCurrentValue="0.5" PannerIsInverted="true" PannerStartKeyframe="-91445760000000000,0.5,0,0,0,0,0,0" PannerName="Balance" currentExplodedTrackIndex="1" totalExplodedTrackCount="2" premiereTrackType="Stereo">
									<enabled>TRUE</enabled>
									<locked>FALSE</locked>
									<outputchannelindex>2</outputchannelindex>
								</track>
								<track TL.SQTrackAudioKeyframeStyle="0" TL.SQTrackShy="0" TL.SQTrackExpandedHeight="25" TL.SQTrackExpanded="0" MZ.TrackTargeted="0" PannerCurrentValue="0.5" PannerIsInverted="true" PannerStartKeyframe="-91445760000000000,0.5,0,0,0,0,0,0" PannerName="Balance" currentExplodedTrackIndex="0" totalExplodedTrackCount="2" premiereTrackType="Stereo">
									<enabled>TRUE</enabled>
									<locked>FALSE</locked>
									<outputchannelindex>1</outputchannelindex>
								</track>
								<track TL.SQTrackAudioKeyframeStyle="0" TL.SQTrackShy="0" TL.SQTrackExpandedHeight="25" TL.SQTrackExpanded="0" MZ.TrackTargeted="0" PannerCurrentValue="0.5" PannerIsInverted="true" PannerStartKeyframe="-91445760000000000,0.5,0,0,0,0,0,0" PannerName="Balance" currentExplodedTrackIndex="1" totalExplodedTrackCount="2" premiereTrackType="Stereo">
									<enabled>TRUE</enabled>
									<locked>FALSE</locked>
									<outputchannelindex>2</outputchannelindex>
								</track>
								<track TL.SQTrackAudioKeyframeStyle="0" TL.SQTrackShy="0" TL.SQTrackExpandedHeight="25" TL.SQTrackExpanded="0" MZ.TrackTargeted="0" PannerCurrentValue="0.5" PannerIsInverted="true" PannerStartKeyframe="-91445760000000000,0.5,0,0,0,0,0,0" PannerName="Balance" currentExplodedTrackIndex="0" totalExplodedTrackCount="2" premiereTrackType="Stereo">
									<enabled>TRUE</enabled>
									<locked>FALSE</locked>
									<outputchannelindex>1</outputchannelindex>
								</track>
								<track TL.SQTrackAudioKeyframeStyle="0" TL.SQTrackShy="0" TL.SQTrackExpandedHeight="25" TL.SQTrackExpanded="0" MZ.TrackTargeted="0" PannerCurrentValue="0.5" PannerIsInverted="true" PannerStartKeyframe="-91445760000000000,0.5,0,0,0,0,0,0" PannerName="Balance" currentExplodedTrackIndex="1" totalExplodedTrackCount="2" premiereTrackType="Stereo">
									<enabled>TRUE</enabled>
									<locked>FALSE</locked>
									<outputchannelindex>2</outputchannelindex>
								</track>
								<track TL.SQTrackAudioKeyframeStyle="0" TL.SQTrackShy="0" TL.SQTrackExpandedHeight="25" TL.SQTrackExpanded="0" MZ.TrackTargeted="0" PannerCurrentValue="0.5" PannerIsInverted="true" PannerStartKeyframe="-91445760000000000,0.5,0,0,0,0,0,0" PannerName="Balance" currentExplodedTrackIndex="0" totalExplodedTrackCount="2" premiereTrackType="Stereo">
									<enabled>TRUE</enabled>
									<locked>FALSE</locked>
									<outputchannelindex>1</outputchannelindex>
								</track>
								<track TL.SQTrackAudioKeyframeStyle="0" TL.SQTrackShy="0" TL.SQTrackExpandedHeight="25" TL.SQTrackExpanded="0" MZ.TrackTargeted="0" PannerCurrentValue="0.5" PannerIsInverted="true" PannerStartKeyframe="-91445760000000000,0.5,0,0,0,0,0,0" PannerName="Balance" currentExplodedTrackIndex="1" totalExplodedTrackCount="2" premiereTrackType="Stereo">
									<enabled>TRUE</enabled>
									<locked>FALSE</locked>
									<outputchannelindex>2</outputchannelindex>
								</track>
								<track TL.SQTrackAudioKeyframeStyle="0" TL.SQTrackShy="0" TL.SQTrackExpandedHeight="25" TL.SQTrackExpanded="0" MZ.TrackTargeted="0" PannerCurrentValue="0.5" PannerIsInverted="true" PannerStartKeyframe="-91445760000000000,0.5,0,0,0,0,0,0" PannerName="Balance" currentExplodedTrackIndex="0" totalExplodedTrackCount="2" premiereTrackType="Stereo">
									<enabled>TRUE</enabled>
									<locked>FALSE</locked>
									<outputchannelindex>1</outputchannelindex>
								</track>
								<track TL.SQTrackAudioKeyframeStyle="0" TL.SQTrackShy="0" TL.SQTrackExpandedHeight="25" TL.SQTrackExpanded="0" MZ.TrackTargeted="0" PannerCurrentValue="0.5" PannerIsInverted="true" PannerStartKeyframe="-91445760000000000,0.5,0,0,0,0,0,0" PannerName="Balance" currentExplodedTrackIndex="1" totalExplodedTrackCount="2" premiereTrackType="Stereo">
									<enabled>TRUE</enabled>
									<locked>FALSE</locked>
									<outputchannelindex>2</outputchannelindex>
								</track>
								<track TL.SQTrackAudioKeyframeStyle="0" TL.SQTrackShy="0" TL.SQTrackExpandedHeight="25" TL.SQTrackExpanded="0" MZ.TrackTargeted="0" PannerCurrentValue="0.5" PannerIsInverted="true" PannerStartKeyframe="-91445760000000000,0.5,0,0,0,0,0,0" PannerName="Balance" currentExplodedTrackIndex="0" totalExplodedTrackCount="2" premiereTrackType="Stereo">
									<enabled>TRUE</enabled>
									<locked>FALSE</locked>
									<outputchannelindex>1</outputchannelindex>
								</track>
								<track TL.SQTrackAudioKeyframeStyle="0" TL.SQTrackShy="0" TL.SQTrackExpandedHeight="25" TL.SQTrackExpanded="0" MZ.TrackTargeted="0" PannerCurrentValue="0.5" PannerIsInverted="true" PannerStartKeyframe="-91445760000000000,0.5,0,0,0,0,0,0" PannerName="Balance" currentExplodedTrackIndex="1" totalExplodedTrackCount="2" premiereTrackType="Stereo">
									<enabled>TRUE</enabled>
									<locked>FALSE</locked>
									<outputchannelindex>2</outputchannelindex>
								</track>
								<track TL.SQTrackAudioKeyframeStyle="0" TL.SQTrackShy="0" TL.SQTrackExpandedHeight="25" TL.SQTrackExpanded="0" MZ.TrackTargeted="0" PannerCurrentValue="0.5" PannerIsInverted="true" PannerStartKeyframe="-91445760000000000,0.5,0,0,0,0,0,0" PannerName="Balance" currentExplodedTrackIndex="0" totalExplodedTrackCount="2" premiereTrackType="Stereo">
									<enabled>TRUE</enabled>
									<locked>FALSE</locked>
									<outputchannelindex>1</outputchannelindex>
								</track>
								<track TL.SQTrackAudioKeyframeStyle="0" TL.SQTrackShy="0" TL.SQTrackExpandedHeight="25" TL.SQTrackExpanded="0" MZ.TrackTargeted="0" PannerCurrentValue="0.5" PannerIsInverted="true" PannerStartKeyframe="-91445760000000000,0.5,0,0,0,0,0,0" PannerName="Balance" currentExplodedTrackIndex="1" totalExplodedTrackCount="2" premiereTrackType="Stereo">
									<enabled>TRUE</enabled>
									<locked>FALSE</locked>
									<outputchannelindex>2</outputchannelindex>
								</track>
							</audio>
						</media>
						<timecode>
							<rate>
								<timebase>30</timebase>
								<ntsc>TRUE</ntsc>
							</rate>
							<string>00;00;00;00</string>
							<frame>0</frame>
							<displayformat>DF</displayformat>
						</timecode>
						<labels>
							<label2>Forest</label2>
						</labels>
						<logginginfo>
							<description></description>
							<scene></scene>
							<shottake></shottake>
							<lognote></lognote>
							<good></good>
							<originalvideofilename></originalvideofilename>
							<originalaudiofilename></originalaudiofilename>
						</logginginfo>
					</sequence>
					<sequence id="sequence-14" TL.SQAudioVisibleBase="0" TL.SQVideoVisibleBase="0" TL.SQVisibleBaseTime="0" TL.SQAVDividerPosition="0.5" TL.SQHideShyTracks="0" TL.SQHeaderWidth="236" TL.SQDataTrackViewControlState="0" Monitor.ProgramZoomOut="12018496089600" Monitor.ProgramZoomIn="0" TL.SQTimePerPixel="0.072184793070247569" AM.TrackVScrollPosition="0" AM.TrackScrollPosition="0" MZ.EditLine="2822397177600" MZ.Sequence.PreviewFrameSizeHeight="1080" MZ.Sequence.PreviewFrameSizeWidth="1920" MZ.Sequence.AudioTimeDisplayFormat="200" MZ.Sequence.PreviewRenderingClassID="1061109567" MZ.Sequence.PreviewRenderingPresetCodec="1634755443" MZ.Sequence.PreviewRenderingPresetPath="EncoderPresets/SequencePreview/35d109db-457b-43c1-9452-9cb7be9f121c/QuickTime.epr" MZ.Sequence.PreviewUseMaxRenderQuality="false" MZ.Sequence.PreviewUseMaxBitDepth="false" MZ.Sequence.EditingModeGUID="35d109db-457b-43c1-9452-9cb7be9f121c" MZ.Sequence.VideoTimeDisplayFormat="102" MZ.WorkOutPoint="1262874412800" MZ.WorkInPoint="0" explodedTracks="true">
						<uuid>dcffea77-91b6-4d10-b6ce-72bdc6f16279</uuid>
						<duration>1418</duration>
						<rate>
							<timebase>30</timebase>
							<ntsc>TRUE</ntsc>
						</rate>
						<name>FND_Cake A Scene_1</name>
						<media>
							<video>
								<format>
									<samplecharacteristics>
										<rate>
											<timebase>30</timebase>
											<ntsc>TRUE</ntsc>
										</rate>
										<codec>
											<name>Apple ProRes 422</name>
											<appspecificdata>
												<appname>Final Cut Pro</appname>
												<appmanufacturer>Apple Inc.</appmanufacturer>
												<appversion>7.0</appversion>
												<data>
													<qtcodec>
														<codecname>Apple ProRes 422</codecname>
														<codectypename>Apple ProRes 422</codectypename>
														<codectypecode>apcn</codectypecode>
														<codecvendorcode>appl</codecvendorcode>
														<spatialquality>1024</spatialquality>
														<temporalquality>0</temporalquality>
														<keyframerate>0</keyframerate>
														<datarate>0</datarate>
													</qtcodec>
												</data>
											</appspecificdata>
										</codec>
										<width>1920</width>
										<height>1080</height>
										<anamorphic>FALSE</anamorphic>
										<pixelaspectratio>square</pixelaspectratio>
										<fielddominance>none</fielddominance>
										<colordepth>24</colordepth>
									</samplecharacteristics>
								</format>
								<track TL.SQTrackShy="0" TL.SQTrackExpandedHeight="25" TL.SQTrackExpanded="0" MZ.TrackTargeted="1">
									<clipitem id="clipitem-491">
										<masterclipid>masterclip-106</masterclipid>
										<name>124562_Icing sugar and glazed fruit decorating a cake_By_FORVISION_Artlist_HD.mp4</name>
										<enabled>TRUE</enabled>
										<duration>328</duration>
										<rate>
											<timebase>30</timebase>
											<ntsc>TRUE</ntsc>
										</rate>
										<start>0</start>
										<end>108</end>
										<in>125</in>
										<out>233</out>
										<pproTicksIn>1059458400000</pproTicksIn>
										<pproTicksOut>1974830457600</pproTicksOut>
										<alphatype>none</alphatype>
										<file id="file-106"/>
										<filter>
											<effect>
												<name>Distort</name>
												<effectid>deformation</effectid>
												<effectcategory>motion</effectcategory>
												<effecttype>motion</effecttype>
												<mediatype>video</mediatype>
												<parameter authoringApp="PremierePro">
													<parameterid>aspect</parameterid>
													<name>Aspect</name>
													<valuemin>-10000</valuemin>
													<valuemax>10000</valuemax>
													<value>-9.40171</value>
												</parameter>
											</effect>
										</filter>
										<filter>
											<effect>
												<name>Basic Motion</name>
												<effectid>basic</effectid>
												<effectcategory>motion</effectcategory>
												<effecttype>motion</effecttype>
												<mediatype>video</mediatype>
												<parameter authoringApp="PremierePro">
													<parameterid>scale</parameterid>
													<name>Scale</name>
													<value>109.402</value>
												</parameter>
											</effect>
										</filter>
										<logginginfo>
											<description></description>
											<scene></scene>
											<shottake></shottake>
											<lognote></lognote>
											<good></good>
											<originalvideofilename></originalvideofilename>
											<originalaudiofilename></originalaudiofilename>
										</logginginfo>
										<colorinfo>
											<lut></lut>
											<lut1></lut1>
											<asc_sop></asc_sop>
											<asc_sat></asc_sat>
											<lut2></lut2>
										</colorinfo>
									</clipitem>
									<clipitem id="clipitem-492">
										<masterclipid>masterclip-107</masterclipid>
										<name>124563_Icing sugar and candies on top of a cake_By_FORVISION_Artlist_HD.mp4</name>
										<enabled>TRUE</enabled>
										<duration>340</duration>
										<rate>
											<timebase>30</timebase>
											<ntsc>TRUE</ntsc>
										</rate>
										<start>108</start>
										<end>179</end>
										<in>0</in>
										<out>71</out>
										<pproTicksIn>0</pproTicksIn>
										<pproTicksOut>601772371200</pproTicksOut>
										<alphatype>none</alphatype>
										<file id="file-107"/>
										<filter>
											<effect>
												<name>Distort</name>
												<effectid>deformation</effectid>
												<effectcategory>motion</effectcategory>
												<effecttype>motion</effecttype>
												<mediatype>video</mediatype>
												<parameter authoringApp="PremierePro">
													<parameterid>aspect</parameterid>
													<name>Aspect</name>
													<valuemin>-10000</valuemin>
													<valuemax>10000</valuemax>
													<value>-9.40171</value>
												</parameter>
											</effect>
										</filter>
										<filter>
											<effect>
												<name>Basic Motion</name>
												<effectid>basic</effectid>
												<effectcategory>motion</effectcategory>
												<effecttype>motion</effecttype>
												<mediatype>video</mediatype>
												<parameter authoringApp="PremierePro">
													<parameterid>scale</parameterid>
													<name>Scale</name>
													<value>109.402</value>
												</parameter>
											</effect>
										</filter>
										<logginginfo>
											<description></description>
											<scene></scene>
											<shottake></shottake>
											<lognote></lognote>
											<good></good>
											<originalvideofilename></originalvideofilename>
											<originalaudiofilename></originalaudiofilename>
										</logginginfo>
										<colorinfo>
											<lut></lut>
											<lut1></lut1>
											<asc_sop></asc_sop>
											<asc_sat></asc_sat>
											<lut2></lut2>
										</colorinfo>
									</clipitem>
									<clipitem id="clipitem-493">
										<masterclipid>masterclip-112</masterclipid>
										<name>124568_Glazed candies and sugar powder on top of a cake_By_FORVISION_Artlist_HD.mp4</name>
										<enabled>TRUE</enabled>
										<duration>280</duration>
										<rate>
											<timebase>30</timebase>
											<ntsc>TRUE</ntsc>
										</rate>
										<start>179</start>
										<end>258</end>
										<in>0</in>
										<out>79</out>
										<pproTicksIn>0</pproTicksIn>
										<pproTicksOut>669577708800</pproTicksOut>
										<alphatype>none</alphatype>
										<file id="file-112"/>
										<filter>
											<effect>
												<name>Distort</name>
												<effectid>deformation</effectid>
												<effectcategory>motion</effectcategory>
												<effecttype>motion</effecttype>
												<mediatype>video</mediatype>
												<parameter authoringApp="PremierePro">
													<parameterid>aspect</parameterid>
													<name>Aspect</name>
													<valuemin>-10000</valuemin>
													<valuemax>10000</valuemax>
													<value>-9.40171</value>
												</parameter>
											</effect>
										</filter>
										<filter>
											<effect>
												<name>Basic Motion</name>
												<effectid>basic</effectid>
												<effectcategory>motion</effectcategory>
												<effecttype>motion</effecttype>
												<mediatype>video</mediatype>
												<parameter authoringApp="PremierePro">
													<parameterid>scale</parameterid>
													<name>Scale</name>
													<value>109.402</value>
												</parameter>
											</effect>
										</filter>
										<logginginfo>
											<description></description>
											<scene></scene>
											<shottake></shottake>
											<lognote></lognote>
											<good></good>
											<originalvideofilename></originalvideofilename>
											<originalaudiofilename></originalaudiofilename>
										</logginginfo>
										<colorinfo>
											<lut></lut>
											<lut1></lut1>
											<asc_sop></asc_sop>
											<asc_sat></asc_sat>
											<lut2></lut2>
										</colorinfo>
									</clipitem>
									<clipitem id="clipitem-494">
										<masterclipid>masterclip-108</masterclipid>
										<name>124564_Pieces of glazed fruit and icing sugar on a cake_By_FORVISION_Artlist_HD.mp4</name>
										<enabled>TRUE</enabled>
										<duration>324</duration>
										<rate>
											<timebase>30</timebase>
											<ntsc>TRUE</ntsc>
										</rate>
										<start>258</start>
										<end>344</end>
										<in>0</in>
										<out>86</out>
										<pproTicksIn>0</pproTicksIn>
										<pproTicksOut>728907379200</pproTicksOut>
										<alphatype>none</alphatype>
										<file id="file-108"/>
										<filter>
											<effect>
												<name>Distort</name>
												<effectid>deformation</effectid>
												<effectcategory>motion</effectcategory>
												<effecttype>motion</effecttype>
												<mediatype>video</mediatype>
												<parameter authoringApp="PremierePro">
													<parameterid>aspect</parameterid>
													<name>Aspect</name>
													<valuemin>-10000</valuemin>
													<valuemax>10000</valuemax>
													<value>-9.40171</value>
												</parameter>
											</effect>
										</filter>
										<filter>
											<effect>
												<name>Basic Motion</name>
												<effectid>basic</effectid>
												<effectcategory>motion</effectcategory>
												<effecttype>motion</effecttype>
												<mediatype>video</mediatype>
												<parameter authoringApp="PremierePro">
													<parameterid>scale</parameterid>
													<name>Scale</name>
													<value>109.402</value>
												</parameter>
											</effect>
										</filter>
										<logginginfo>
											<description></description>
											<scene></scene>
											<shottake></shottake>
											<lognote></lognote>
											<good></good>
											<originalvideofilename></originalvideofilename>
											<originalaudiofilename></originalaudiofilename>
										</logginginfo>
										<colorinfo>
											<lut></lut>
											<lut1></lut1>
											<asc_sop></asc_sop>
											<asc_sat></asc_sat>
											<lut2></lut2>
										</colorinfo>
									</clipitem>
									<clipitem id="clipitem-495">
										<masterclipid>masterclip-109</masterclipid>
										<name>124565_Icing sugar on a fruit cake_By_FORVISION_Artlist_HD.mp4</name>
										<enabled>TRUE</enabled>
										<duration>328</duration>
										<rate>
											<timebase>30</timebase>
											<ntsc>TRUE</ntsc>
										</rate>
										<start>344</start>
										<end>467</end>
										<in>0</in>
										<out>123</out>
										<pproTicksIn>0</pproTicksIn>
										<pproTicksOut>1042507065600</pproTicksOut>
										<alphatype>none</alphatype>
										<file id="file-109"/>
										<filter>
											<effect>
												<name>Distort</name>
												<effectid>deformation</effectid>
												<effectcategory>motion</effectcategory>
												<effecttype>motion</effecttype>
												<mediatype>video</mediatype>
												<parameter authoringApp="PremierePro">
													<parameterid>aspect</parameterid>
													<name>Aspect</name>
													<valuemin>-10000</valuemin>
													<valuemax>10000</valuemax>
													<value>-9.40171</value>
												</parameter>
											</effect>
										</filter>
										<filter>
											<effect>
												<name>Basic Motion</name>
												<effectid>basic</effectid>
												<effectcategory>motion</effectcategory>
												<effecttype>motion</effecttype>
												<mediatype>video</mediatype>
												<parameter authoringApp="PremierePro">
													<parameterid>scale</parameterid>
													<name>Scale</name>
													<value>109.402</value>
												</parameter>
											</effect>
										</filter>
										<logginginfo>
											<description></description>
											<scene></scene>
											<shottake></shottake>
											<lognote></lognote>
											<good></good>
											<originalvideofilename></originalvideofilename>
											<originalaudiofilename></originalaudiofilename>
										</logginginfo>
										<colorinfo>
											<lut></lut>
											<lut1></lut1>
											<asc_sop></asc_sop>
											<asc_sat></asc_sat>
											<lut2></lut2>
										</colorinfo>
									</clipitem>
									<clipitem id="clipitem-496">
										<masterclipid>masterclip-105</masterclipid>
										<name>124561_Glazed fruit and icing sugar on a cake_By_FORVISION_Artlist_HD.mp4</name>
										<enabled>TRUE</enabled>
										<duration>338</duration>
										<rate>
											<timebase>30</timebase>
											<ntsc>TRUE</ntsc>
										</rate>
										<start>467</start>
										<end>565</end>
										<in>0</in>
										<out>98</out>
										<pproTicksIn>0</pproTicksIn>
										<pproTicksOut>830615385600</pproTicksOut>
										<alphatype>none</alphatype>
										<file id="file-105"/>
										<filter>
											<effect>
												<name>Distort</name>
												<effectid>deformation</effectid>
												<effectcategory>motion</effectcategory>
												<effecttype>motion</effecttype>
												<mediatype>video</mediatype>
												<parameter authoringApp="PremierePro">
													<parameterid>aspect</parameterid>
													<name>Aspect</name>
													<valuemin>-10000</valuemin>
													<valuemax>10000</valuemax>
													<value>-9.40171</value>
												</parameter>
											</effect>
										</filter>
										<filter>
											<effect>
												<name>Basic Motion</name>
												<effectid>basic</effectid>
												<effectcategory>motion</effectcategory>
												<effecttype>motion</effecttype>
												<mediatype>video</mediatype>
												<parameter authoringApp="PremierePro">
													<parameterid>scale</parameterid>
													<name>Scale</name>
													<value>109.402</value>
												</parameter>
											</effect>
										</filter>
										<logginginfo>
											<description></description>
											<scene></scene>
											<shottake></shottake>
											<lognote></lognote>
											<good></good>
											<originalvideofilename></originalvideofilename>
											<originalaudiofilename></originalaudiofilename>
										</logginginfo>
										<colorinfo>
											<lut></lut>
											<lut1></lut1>
											<asc_sop></asc_sop>
											<asc_sat></asc_sat>
											<lut2></lut2>
										</colorinfo>
									</clipitem>
									<clipitem id="clipitem-497">
										<masterclipid>masterclip-111</masterclipid>
										<name>124567_Sugar powder and sticky candies on top of a cake_By_FORVISION_Artlist_HD.mp4</name>
										<enabled>TRUE</enabled>
										<duration>380</duration>
										<rate>
											<timebase>30</timebase>
											<ntsc>TRUE</ntsc>
										</rate>
										<start>565</start>
										<end>679</end>
										<in>0</in>
										<out>114</out>
										<pproTicksIn>0</pproTicksIn>
										<pproTicksOut>966226060800</pproTicksOut>
										<alphatype>none</alphatype>
										<file id="file-111"/>
										<filter>
											<effect>
												<name>Distort</name>
												<effectid>deformation</effectid>
												<effectcategory>motion</effectcategory>
												<effecttype>motion</effecttype>
												<mediatype>video</mediatype>
												<parameter authoringApp="PremierePro">
													<parameterid>aspect</parameterid>
													<name>Aspect</name>
													<valuemin>-10000</valuemin>
													<valuemax>10000</valuemax>
													<value>-9.40171</value>
												</parameter>
											</effect>
										</filter>
										<filter>
											<effect>
												<name>Basic Motion</name>
												<effectid>basic</effectid>
												<effectcategory>motion</effectcategory>
												<effecttype>motion</effecttype>
												<mediatype>video</mediatype>
												<parameter authoringApp="PremierePro">
													<parameterid>scale</parameterid>
													<name>Scale</name>
													<value>109.402</value>
												</parameter>
											</effect>
										</filter>
										<logginginfo>
											<description></description>
											<scene></scene>
											<shottake></shottake>
											<lognote></lognote>
											<good></good>
											<originalvideofilename></originalvideofilename>
											<originalaudiofilename></originalaudiofilename>
										</logginginfo>
										<colorinfo>
											<lut></lut>
											<lut1></lut1>
											<asc_sop></asc_sop>
											<asc_sat></asc_sat>
											<lut2></lut2>
										</colorinfo>
									</clipitem>
									<clipitem id="clipitem-498">
										<masterclipid>masterclip-113</masterclipid>
										<name>124569_Fruit cake decorated with candy and sugar powder_By_FORVISION_Artlist_HD.mp4</name>
										<enabled>TRUE</enabled>
										<duration>640</duration>
										<rate>
											<timebase>30</timebase>
											<ntsc>TRUE</ntsc>
										</rate>
										<start>679</start>
										<end>899</end>
										<in>377</in>
										<out>597</out>
										<pproTicksIn>3195326534400</pproTicksIn>
										<pproTicksOut>5059973318400</pproTicksOut>
										<alphatype>none</alphatype>
										<file id="file-113"/>
										<filter>
											<effect>
												<name>Distort</name>
												<effectid>deformation</effectid>
												<effectcategory>motion</effectcategory>
												<effecttype>motion</effecttype>
												<mediatype>video</mediatype>
												<parameter authoringApp="PremierePro">
													<parameterid>aspect</parameterid>
													<name>Aspect</name>
													<valuemin>-10000</valuemin>
													<valuemax>10000</valuemax>
													<value>-9.40171</value>
												</parameter>
											</effect>
										</filter>
										<filter>
											<effect>
												<name>Basic Motion</name>
												<effectid>basic</effectid>
												<effectcategory>motion</effectcategory>
												<effecttype>motion</effecttype>
												<mediatype>video</mediatype>
												<parameter authoringApp="PremierePro">
													<parameterid>scale</parameterid>
													<name>Scale</name>
													<value>109.402</value>
												</parameter>
											</effect>
										</filter>
										<logginginfo>
											<description></description>
											<scene></scene>
											<shottake></shottake>
											<lognote></lognote>
											<good></good>
											<originalvideofilename></originalvideofilename>
											<originalaudiofilename></originalaudiofilename>
										</logginginfo>
										<colorinfo>
											<lut></lut>
											<lut1></lut1>
											<asc_sop></asc_sop>
											<asc_sat></asc_sat>
											<lut2></lut2>
										</colorinfo>
									</clipitem>
									<clipitem id="clipitem-499">
										<masterclipid>masterclip-115</masterclipid>
										<name>124571_Pieces of glazed fruit and icing sugar decorating a slice of cake_By_FORVISION_Artlist_HD.mp4</name>
										<enabled>TRUE</enabled>
										<duration>670</duration>
										<rate>
											<timebase>30</timebase>
											<ntsc>TRUE</ntsc>
										</rate>
										<start>899</start>
										<end>1042</end>
										<in>111</in>
										<out>254</out>
										<pproTicksIn>940799059200</pproTicksIn>
										<pproTicksOut>2152819468800</pproTicksOut>
										<alphatype>none</alphatype>
										<file id="file-115"/>
										<filter>
											<effect>
												<name>Distort</name>
												<effectid>deformation</effectid>
												<effectcategory>motion</effectcategory>
												<effecttype>motion</effecttype>
												<mediatype>video</mediatype>
												<parameter authoringApp="PremierePro">
													<parameterid>aspect</parameterid>
													<name>Aspect</name>
													<valuemin>-10000</valuemin>
													<valuemax>10000</valuemax>
													<value>-9.40171</value>
												</parameter>
											</effect>
										</filter>
										<filter>
											<effect>
												<name>Basic Motion</name>
												<effectid>basic</effectid>
												<effectcategory>motion</effectcategory>
												<effecttype>motion</effecttype>
												<mediatype>video</mediatype>
												<parameter authoringApp="PremierePro">
													<parameterid>scale</parameterid>
													<name>Scale</name>
													<value>109.402</value>
												</parameter>
											</effect>
										</filter>
										<logginginfo>
											<description></description>
											<scene></scene>
											<shottake></shottake>
											<lognote></lognote>
											<good></good>
											<originalvideofilename></originalvideofilename>
											<originalaudiofilename></originalaudiofilename>
										</logginginfo>
										<colorinfo>
											<lut></lut>
											<lut1></lut1>
											<asc_sop></asc_sop>
											<asc_sat></asc_sat>
											<lut2></lut2>
										</colorinfo>
									</clipitem>
									<clipitem id="clipitem-500">
										<masterclipid>masterclip-116</masterclipid>
										<name>124572_Slice of fruit cake topped with fruit and sugar powder_By_FORVISION_Artlist_HD.mp4</name>
										<enabled>TRUE</enabled>
										<duration>290</duration>
										<rate>
											<timebase>30</timebase>
											<ntsc>TRUE</ntsc>
										</rate>
										<start>1042</start>
										<end>1164</end>
										<in>103</in>
										<out>225</out>
										<pproTicksIn>872993721600</pproTicksIn>
										<pproTicksOut>1907025120000</pproTicksOut>
										<alphatype>none</alphatype>
										<file id="file-116"/>
										<filter>
											<effect>
												<name>Distort</name>
												<effectid>deformation</effectid>
												<effectcategory>motion</effectcategory>
												<effecttype>motion</effecttype>
												<mediatype>video</mediatype>
												<parameter authoringApp="PremierePro">
													<parameterid>aspect</parameterid>
													<name>Aspect</name>
													<valuemin>-10000</valuemin>
													<valuemax>10000</valuemax>
													<value>-9.40171</value>
												</parameter>
											</effect>
										</filter>
										<filter>
											<effect>
												<name>Basic Motion</name>
												<effectid>basic</effectid>
												<effectcategory>motion</effectcategory>
												<effecttype>motion</effecttype>
												<mediatype>video</mediatype>
												<parameter authoringApp="PremierePro">
													<parameterid>scale</parameterid>
													<name>Scale</name>
													<value>109.402</value>
												</parameter>
											</effect>
										</filter>
										<logginginfo>
											<description></description>
											<scene></scene>
											<shottake></shottake>
											<lognote></lognote>
											<good></good>
											<originalvideofilename></originalvideofilename>
											<originalaudiofilename></originalaudiofilename>
										</logginginfo>
										<colorinfo>
											<lut></lut>
											<lut1></lut1>
											<asc_sop></asc_sop>
											<asc_sat></asc_sat>
											<lut2></lut2>
										</colorinfo>
									</clipitem>
									<clipitem id="clipitem-501">
										<masterclipid>masterclip-114</masterclipid>
										<name>124570_A slice of fruit cake decorated with sugar powder next to a fork on a plate_By_FORVISION_Artlist_HD.mp4</name>
										<enabled>TRUE</enabled>
										<duration>634</duration>
										<rate>
											<timebase>30</timebase>
											<ntsc>TRUE</ntsc>
										</rate>
										<start>1164</start>
										<end>1418</end>
										<in>222</in>
										<out>476</out>
										<pproTicksIn>1881598118400</pproTicksIn>
										<pproTicksOut>4034417587200</pproTicksOut>
										<alphatype>none</alphatype>
										<file id="file-114"/>
										<filter>
											<effect>
												<name>Distort</name>
												<effectid>deformation</effectid>
												<effectcategory>motion</effectcategory>
												<effecttype>motion</effecttype>
												<mediatype>video</mediatype>
												<parameter authoringApp="PremierePro">
													<parameterid>aspect</parameterid>
													<name>Aspect</name>
													<valuemin>-10000</valuemin>
													<valuemax>10000</valuemax>
													<value>-9.40171</value>
												</parameter>
											</effect>
										</filter>
										<filter>
											<effect>
												<name>Basic Motion</name>
												<effectid>basic</effectid>
												<effectcategory>motion</effectcategory>
												<effecttype>motion</effecttype>
												<mediatype>video</mediatype>
												<parameter authoringApp="PremierePro">
													<parameterid>scale</parameterid>
													<name>Scale</name>
													<value>109.402</value>
												</parameter>
											</effect>
										</filter>
										<logginginfo>
											<description></description>
											<scene></scene>
											<shottake></shottake>
											<lognote></lognote>
											<good></good>
											<originalvideofilename></originalvideofilename>
											<originalaudiofilename></originalaudiofilename>
										</logginginfo>
										<colorinfo>
											<lut></lut>
											<lut1></lut1>
											<asc_sop></asc_sop>
											<asc_sat></asc_sat>
											<lut2></lut2>
										</colorinfo>
									</clipitem>
									<enabled>TRUE</enabled>
									<locked>FALSE</locked>
								</track>
								<track TL.SQTrackShy="0" TL.SQTrackExpandedHeight="25" TL.SQTrackExpanded="0" MZ.TrackTargeted="0">
									<enabled>TRUE</enabled>
									<locked>FALSE</locked>
								</track>
								<track TL.SQTrackShy="0" TL.SQTrackExpandedHeight="25" TL.SQTrackExpanded="0" MZ.TrackTargeted="0">
									<enabled>TRUE</enabled>
									<locked>FALSE</locked>
								</track>
								<track TL.SQTrackShy="0" TL.SQTrackExpandedHeight="25" TL.SQTrackExpanded="0" MZ.TrackTargeted="0">
									<enabled>TRUE</enabled>
									<locked>FALSE</locked>
								</track>
								<track TL.SQTrackShy="0" TL.SQTrackExpandedHeight="25" TL.SQTrackExpanded="0" MZ.TrackTargeted="0">
									<enabled>TRUE</enabled>
									<locked>FALSE</locked>
								</track>
								<track TL.SQTrackShy="0" TL.SQTrackExpandedHeight="25" TL.SQTrackExpanded="0" MZ.TrackTargeted="0">
									<enabled>TRUE</enabled>
									<locked>FALSE</locked>
								</track>
								<track TL.SQTrackShy="0" TL.SQTrackExpandedHeight="25" TL.SQTrackExpanded="0" MZ.TrackTargeted="0">
									<enabled>TRUE</enabled>
									<locked>FALSE</locked>
								</track>
								<track TL.SQTrackShy="0" TL.SQTrackExpandedHeight="25" TL.SQTrackExpanded="0" MZ.TrackTargeted="0">
									<enabled>TRUE</enabled>
									<locked>FALSE</locked>
								</track>
								<track TL.SQTrackShy="0" TL.SQTrackExpandedHeight="25" TL.SQTrackExpanded="0" MZ.TrackTargeted="0">
									<enabled>TRUE</enabled>
									<locked>FALSE</locked>
								</track>
								<track TL.SQTrackShy="0" TL.SQTrackExpandedHeight="25" TL.SQTrackExpanded="0" MZ.TrackTargeted="0">
									<enabled>TRUE</enabled>
									<locked>FALSE</locked>
								</track>
							</video>
							<audio>
								<numOutputChannels>2</numOutputChannels>
								<format>
									<samplecharacteristics>
										<depth>16</depth>
										<samplerate>48000</samplerate>
									</samplecharacteristics>
								</format>
								<outputs>
									<group>
										<index>1</index>
										<numchannels>1</numchannels>
										<downmix>0</downmix>
										<channel>
											<index>1</index>
										</channel>
									</group>
									<group>
										<index>2</index>
										<numchannels>1</numchannels>
										<downmix>0</downmix>
										<channel>
											<index>2</index>
										</channel>
									</group>
								</outputs>
								<track TL.SQTrackAudioKeyframeStyle="0" TL.SQTrackShy="0" TL.SQTrackExpandedHeight="25" TL.SQTrackExpanded="0" MZ.TrackTargeted="1" PannerCurrentValue="0.5" PannerIsInverted="true" PannerStartKeyframe="-91445760000000000,0.5,0,0,0,0,0,0" PannerName="Balance" currentExplodedTrackIndex="0" totalExplodedTrackCount="2" premiereTrackType="Stereo">
									<clipitem id="clipitem-502" premiereChannelType="stereo">
										<masterclipid>masterclip-187</masterclipid>
										<name>ES_Earlybird - HATAMITSUNAMI.mp3</name>
										<enabled>TRUE</enabled>
										<duration>3977</duration>
										<rate>
											<timebase>30</timebase>
											<ntsc>TRUE</ntsc>
										</rate>
										<start>0</start>
										<end>1418</end>
										<in>0</in>
										<out>1418</out>
										<pproTicksIn>0</pproTicksIn>
										<pproTicksOut>12018496089600</pproTicksOut>
										<file id="file-185">
											<name>ES_Earlybird - HATAMITSUNAMI.mp3</name>
											<pathurl>file://localhost/Volumes/ATM%201/EYE%20CANDY/8%3a21%3a23/5_Assets/Music/ES_Earlybird%20-%20HATAMITSUNAMI.mp3</pathurl>
											<rate>
												<timebase>30</timebase>
												<ntsc>TRUE</ntsc>
											</rate>
											<duration>3977</duration>
											<timecode>
												<rate>
													<timebase>30</timebase>
													<ntsc>TRUE</ntsc>
												</rate>
												<string>00;00;00;00</string>
												<frame>0</frame>
												<displayformat>DF</displayformat>
											</timecode>
											<media>
												<audio>
													<samplecharacteristics>
														<depth>16</depth>
														<samplerate>48000</samplerate>
													</samplecharacteristics>
													<channelcount>2</channelcount>
												</audio>
											</media>
										</file>
										<sourcetrack>
											<mediatype>audio</mediatype>
											<trackindex>1</trackindex>
										</sourcetrack>
										<link>
											<linkclipref>clipitem-502</linkclipref>
											<mediatype>audio</mediatype>
											<trackindex>1</trackindex>
											<clipindex>1</clipindex>
											<groupindex>1</groupindex>
										</link>
										<link>
											<linkclipref>clipitem-503</linkclipref>
											<mediatype>audio</mediatype>
											<trackindex>2</trackindex>
											<clipindex>1</clipindex>
											<groupindex>1</groupindex>
										</link>
										<logginginfo>
											<description></description>
											<scene></scene>
											<shottake></shottake>
											<lognote></lognote>
											<good></good>
											<originalvideofilename></originalvideofilename>
											<originalaudiofilename></originalaudiofilename>
										</logginginfo>
										<colorinfo>
											<lut></lut>
											<lut1></lut1>
											<asc_sop></asc_sop>
											<asc_sat></asc_sat>
											<lut2></lut2>
										</colorinfo>
										<labels>
											<label2>Caribbean</label2>
										</labels>
									</clipitem>
									<enabled>TRUE</enabled>
									<locked>FALSE</locked>
									<filter>
										<effect>
											<name>Audio Levels</name>
											<effectid>audiolevels</effectid>
											<effectcategory>audiolevels</effectcategory>
											<effecttype>audiolevels</effecttype>
											<mediatype>audio</mediatype>
											<parameter authoringApp="PremierePro">
												<parameterid>level</parameterid>
												<name>Level</name>
												<valuemin>0</valuemin>
												<valuemax>3.98109</valuemax>
												<value>0.706272</value>
											</parameter>
										</effect>
									</filter>
									<outputchannelindex>1</outputchannelindex>
								</track>
								<track TL.SQTrackAudioKeyframeStyle="0" TL.SQTrackShy="0" TL.SQTrackExpandedHeight="25" TL.SQTrackExpanded="0" MZ.TrackTargeted="1" PannerCurrentValue="0.5" PannerIsInverted="true" PannerStartKeyframe="-91445760000000000,0.5,0,0,0,0,0,0" PannerName="Balance" currentExplodedTrackIndex="1" totalExplodedTrackCount="2" premiereTrackType="Stereo">
									<clipitem id="clipitem-503" premiereChannelType="stereo">
										<masterclipid>masterclip-187</masterclipid>
										<name>ES_Earlybird - HATAMITSUNAMI.mp3</name>
										<enabled>TRUE</enabled>
										<duration>3977</duration>
										<rate>
											<timebase>30</timebase>
											<ntsc>TRUE</ntsc>
										</rate>
										<start>0</start>
										<end>1418</end>
										<in>0</in>
										<out>1418</out>
										<pproTicksIn>0</pproTicksIn>
										<pproTicksOut>12018496089600</pproTicksOut>
										<file id="file-185"/>
										<sourcetrack>
											<mediatype>audio</mediatype>
											<trackindex>2</trackindex>
										</sourcetrack>
										<link>
											<linkclipref>clipitem-502</linkclipref>
											<mediatype>audio</mediatype>
											<trackindex>1</trackindex>
											<clipindex>1</clipindex>
											<groupindex>1</groupindex>
										</link>
										<link>
											<linkclipref>clipitem-503</linkclipref>
											<mediatype>audio</mediatype>
											<trackindex>2</trackindex>
											<clipindex>1</clipindex>
											<groupindex>1</groupindex>
										</link>
										<logginginfo>
											<description></description>
											<scene></scene>
											<shottake></shottake>
											<lognote></lognote>
											<good></good>
											<originalvideofilename></originalvideofilename>
											<originalaudiofilename></originalaudiofilename>
										</logginginfo>
										<colorinfo>
											<lut></lut>
											<lut1></lut1>
											<asc_sop></asc_sop>
											<asc_sat></asc_sat>
											<lut2></lut2>
										</colorinfo>
										<labels>
											<label2>Caribbean</label2>
										</labels>
									</clipitem>
									<enabled>TRUE</enabled>
									<locked>FALSE</locked>
									<filter>
										<effect>
											<name>Audio Levels</name>
											<effectid>audiolevels</effectid>
											<effectcategory>audiolevels</effectcategory>
											<effecttype>audiolevels</effecttype>
											<mediatype>audio</mediatype>
											<parameter authoringApp="PremierePro">
												<parameterid>level</parameterid>
												<name>Level</name>
												<valuemin>0</valuemin>
												<valuemax>3.98109</valuemax>
												<value>0.706272</value>
											</parameter>
										</effect>
									</filter>
									<outputchannelindex>2</outputchannelindex>
								</track>
								<track TL.SQTrackAudioKeyframeStyle="0" TL.SQTrackShy="0" TL.SQTrackExpandedHeight="25" TL.SQTrackExpanded="0" MZ.TrackTargeted="0" PannerCurrentValue="0.5" PannerIsInverted="true" PannerStartKeyframe="-91445760000000000,0.5,0,0,0,0,0,0" PannerName="Balance" currentExplodedTrackIndex="0" totalExplodedTrackCount="2" premiereTrackType="Stereo">
									<enabled>TRUE</enabled>
									<locked>FALSE</locked>
									<outputchannelindex>1</outputchannelindex>
								</track>
								<track TL.SQTrackAudioKeyframeStyle="0" TL.SQTrackShy="0" TL.SQTrackExpandedHeight="25" TL.SQTrackExpanded="0" MZ.TrackTargeted="0" PannerCurrentValue="0.5" PannerIsInverted="true" PannerStartKeyframe="-91445760000000000,0.5,0,0,0,0,0,0" PannerName="Balance" currentExplodedTrackIndex="1" totalExplodedTrackCount="2" premiereTrackType="Stereo">
									<enabled>TRUE</enabled>
									<locked>FALSE</locked>
									<outputchannelindex>2</outputchannelindex>
								</track>
								<track TL.SQTrackAudioKeyframeStyle="0" TL.SQTrackShy="0" TL.SQTrackExpandedHeight="25" TL.SQTrackExpanded="0" MZ.TrackTargeted="0" PannerCurrentValue="0.5" PannerIsInverted="true" PannerStartKeyframe="-91445760000000000,0.5,0,0,0,0,0,0" PannerName="Balance" currentExplodedTrackIndex="0" totalExplodedTrackCount="2" premiereTrackType="Stereo">
									<enabled>TRUE</enabled>
									<locked>FALSE</locked>
									<outputchannelindex>1</outputchannelindex>
								</track>
								<track TL.SQTrackAudioKeyframeStyle="0" TL.SQTrackShy="0" TL.SQTrackExpandedHeight="25" TL.SQTrackExpanded="0" MZ.TrackTargeted="0" PannerCurrentValue="0.5" PannerIsInverted="true" PannerStartKeyframe="-91445760000000000,0.5,0,0,0,0,0,0" PannerName="Balance" currentExplodedTrackIndex="1" totalExplodedTrackCount="2" premiereTrackType="Stereo">
									<enabled>TRUE</enabled>
									<locked>FALSE</locked>
									<outputchannelindex>2</outputchannelindex>
								</track>
								<track TL.SQTrackAudioKeyframeStyle="0" TL.SQTrackShy="0" TL.SQTrackExpandedHeight="25" TL.SQTrackExpanded="0" MZ.TrackTargeted="0" PannerCurrentValue="0.5" PannerIsInverted="true" PannerStartKeyframe="-91445760000000000,0.5,0,0,0,0,0,0" PannerName="Balance" currentExplodedTrackIndex="0" totalExplodedTrackCount="2" premiereTrackType="Stereo">
									<enabled>TRUE</enabled>
									<locked>FALSE</locked>
									<outputchannelindex>1</outputchannelindex>
								</track>
								<track TL.SQTrackAudioKeyframeStyle="0" TL.SQTrackShy="0" TL.SQTrackExpandedHeight="25" TL.SQTrackExpanded="0" MZ.TrackTargeted="0" PannerCurrentValue="0.5" PannerIsInverted="true" PannerStartKeyframe="-91445760000000000,0.5,0,0,0,0,0,0" PannerName="Balance" currentExplodedTrackIndex="1" totalExplodedTrackCount="2" premiereTrackType="Stereo">
									<enabled>TRUE</enabled>
									<locked>FALSE</locked>
									<outputchannelindex>2</outputchannelindex>
								</track>
								<track TL.SQTrackAudioKeyframeStyle="0" TL.SQTrackShy="0" TL.SQTrackExpandedHeight="25" TL.SQTrackExpanded="0" MZ.TrackTargeted="0" PannerCurrentValue="0.5" PannerIsInverted="true" PannerStartKeyframe="-91445760000000000,0.5,0,0,0,0,0,0" PannerName="Balance" currentExplodedTrackIndex="0" totalExplodedTrackCount="2" premiereTrackType="Stereo">
									<enabled>TRUE</enabled>
									<locked>FALSE</locked>
									<outputchannelindex>1</outputchannelindex>
								</track>
								<track TL.SQTrackAudioKeyframeStyle="0" TL.SQTrackShy="0" TL.SQTrackExpandedHeight="25" TL.SQTrackExpanded="0" MZ.TrackTargeted="0" PannerCurrentValue="0.5" PannerIsInverted="true" PannerStartKeyframe="-91445760000000000,0.5,0,0,0,0,0,0" PannerName="Balance" currentExplodedTrackIndex="1" totalExplodedTrackCount="2" premiereTrackType="Stereo">
									<enabled>TRUE</enabled>
									<locked>FALSE</locked>
									<outputchannelindex>2</outputchannelindex>
								</track>
								<track TL.SQTrackAudioKeyframeStyle="0" TL.SQTrackShy="0" TL.SQTrackExpandedHeight="25" TL.SQTrackExpanded="0" MZ.TrackTargeted="0" PannerCurrentValue="0.5" PannerIsInverted="true" PannerStartKeyframe="-91445760000000000,0.5,0,0,0,0,0,0" PannerName="Balance" currentExplodedTrackIndex="0" totalExplodedTrackCount="2" premiereTrackType="Stereo">
									<enabled>TRUE</enabled>
									<locked>FALSE</locked>
									<outputchannelindex>1</outputchannelindex>
								</track>
								<track TL.SQTrackAudioKeyframeStyle="0" TL.SQTrackShy="0" TL.SQTrackExpandedHeight="25" TL.SQTrackExpanded="0" MZ.TrackTargeted="0" PannerCurrentValue="0.5" PannerIsInverted="true" PannerStartKeyframe="-91445760000000000,0.5,0,0,0,0,0,0" PannerName="Balance" currentExplodedTrackIndex="1" totalExplodedTrackCount="2" premiereTrackType="Stereo">
									<enabled>TRUE</enabled>
									<locked>FALSE</locked>
									<outputchannelindex>2</outputchannelindex>
								</track>
								<track TL.SQTrackAudioKeyframeStyle="0" TL.SQTrackShy="0" TL.SQTrackExpandedHeight="25" TL.SQTrackExpanded="0" MZ.TrackTargeted="0" PannerCurrentValue="0.5" PannerIsInverted="true" PannerStartKeyframe="-91445760000000000,0.5,0,0,0,0,0,0" PannerName="Balance" currentExplodedTrackIndex="0" totalExplodedTrackCount="2" premiereTrackType="Stereo">
									<enabled>TRUE</enabled>
									<locked>FALSE</locked>
									<outputchannelindex>1</outputchannelindex>
								</track>
								<track TL.SQTrackAudioKeyframeStyle="0" TL.SQTrackShy="0" TL.SQTrackExpandedHeight="25" TL.SQTrackExpanded="0" MZ.TrackTargeted="0" PannerCurrentValue="0.5" PannerIsInverted="true" PannerStartKeyframe="-91445760000000000,0.5,0,0,0,0,0,0" PannerName="Balance" currentExplodedTrackIndex="1" totalExplodedTrackCount="2" premiereTrackType="Stereo">
									<enabled>TRUE</enabled>
									<locked>FALSE</locked>
									<outputchannelindex>2</outputchannelindex>
								</track>
								<track TL.SQTrackAudioKeyframeStyle="0" TL.SQTrackShy="0" TL.SQTrackExpandedHeight="25" TL.SQTrackExpanded="0" MZ.TrackTargeted="0" PannerCurrentValue="0.5" PannerIsInverted="true" PannerStartKeyframe="-91445760000000000,0.5,0,0,0,0,0,0" PannerName="Balance" currentExplodedTrackIndex="0" totalExplodedTrackCount="2" premiereTrackType="Stereo">
									<enabled>TRUE</enabled>
									<locked>FALSE</locked>
									<outputchannelindex>1</outputchannelindex>
								</track>
								<track TL.SQTrackAudioKeyframeStyle="0" TL.SQTrackShy="0" TL.SQTrackExpandedHeight="25" TL.SQTrackExpanded="0" MZ.TrackTargeted="0" PannerCurrentValue="0.5" PannerIsInverted="true" PannerStartKeyframe="-91445760000000000,0.5,0,0,0,0,0,0" PannerName="Balance" currentExplodedTrackIndex="1" totalExplodedTrackCount="2" premiereTrackType="Stereo">
									<enabled>TRUE</enabled>
									<locked>FALSE</locked>
									<outputchannelindex>2</outputchannelindex>
								</track>
								<track TL.SQTrackAudioKeyframeStyle="0" TL.SQTrackShy="0" TL.SQTrackExpandedHeight="25" TL.SQTrackExpanded="0" MZ.TrackTargeted="0" PannerCurrentValue="0.5" PannerIsInverted="true" PannerStartKeyframe="-91445760000000000,0.5,0,0,0,0,0,0" PannerName="Balance" currentExplodedTrackIndex="0" totalExplodedTrackCount="2" premiereTrackType="Stereo">
									<enabled>TRUE</enabled>
									<locked>FALSE</locked>
									<outputchannelindex>1</outputchannelindex>
								</track>
								<track TL.SQTrackAudioKeyframeStyle="0" TL.SQTrackShy="0" TL.SQTrackExpandedHeight="25" TL.SQTrackExpanded="0" MZ.TrackTargeted="0" PannerCurrentValue="0.5" PannerIsInverted="true" PannerStartKeyframe="-91445760000000000,0.5,0,0,0,0,0,0" PannerName="Balance" currentExplodedTrackIndex="1" totalExplodedTrackCount="2" premiereTrackType="Stereo">
									<enabled>TRUE</enabled>
									<locked>FALSE</locked>
									<outputchannelindex>2</outputchannelindex>
								</track>
								<track TL.SQTrackAudioKeyframeStyle="0" TL.SQTrackShy="0" TL.SQTrackExpandedHeight="25" TL.SQTrackExpanded="0" MZ.TrackTargeted="0" PannerCurrentValue="0.5" PannerIsInverted="true" PannerStartKeyframe="-91445760000000000,0.5,0,0,0,0,0,0" PannerName="Balance" currentExplodedTrackIndex="0" totalExplodedTrackCount="2" premiereTrackType="Stereo">
									<enabled>TRUE</enabled>
									<locked>FALSE</locked>
									<outputchannelindex>1</outputchannelindex>
								</track>
								<track TL.SQTrackAudioKeyframeStyle="0" TL.SQTrackShy="0" TL.SQTrackExpandedHeight="25" TL.SQTrackExpanded="0" MZ.TrackTargeted="0" PannerCurrentValue="0.5" PannerIsInverted="true" PannerStartKeyframe="-91445760000000000,0.5,0,0,0,0,0,0" PannerName="Balance" currentExplodedTrackIndex="1" totalExplodedTrackCount="2" premiereTrackType="Stereo">
									<enabled>TRUE</enabled>
									<locked>FALSE</locked>
									<outputchannelindex>2</outputchannelindex>
								</track>
							</audio>
						</media>
						<timecode>
							<rate>
								<timebase>30</timebase>
								<ntsc>TRUE</ntsc>
							</rate>
							<string>00;00;00;00</string>
							<frame>0</frame>
							<displayformat>DF</displayformat>
						</timecode>
						<labels>
							<label2>Forest</label2>
						</labels>
						<logginginfo>
							<description></description>
							<scene></scene>
							<shottake></shottake>
							<lognote></lognote>
							<good></good>
							<originalvideofilename></originalvideofilename>
							<originalaudiofilename></originalaudiofilename>
						</logginginfo>
					</sequence>
					<sequence id="sequence-15" TL.SQAudioVisibleBase="0" TL.SQVideoVisibleBase="0" TL.SQVisibleBaseTime="0" TL.SQAVDividerPosition="0.5" TL.SQHideShyTracks="0" TL.SQHeaderWidth="236" TL.SQDataTrackViewControlState="0" Monitor.ProgramZoomOut="22155394060800" Monitor.ProgramZoomIn="0" TL.SQTimePerPixel="0.11260193087477269" AM.TrackVScrollPosition="0" AM.TrackScrollPosition="0" MZ.EditLine="17705668780800" MZ.Sequence.PreviewFrameSizeHeight="1080" MZ.Sequence.PreviewFrameSizeWidth="1920" MZ.Sequence.AudioTimeDisplayFormat="200" MZ.Sequence.PreviewRenderingClassID="1061109567" MZ.Sequence.PreviewRenderingPresetCodec="1634755443" MZ.Sequence.PreviewRenderingPresetPath="EncoderPresets/SequencePreview/35d109db-457b-43c1-9452-9cb7be9f121c/QuickTime.epr" MZ.Sequence.PreviewUseMaxRenderQuality="false" MZ.Sequence.PreviewUseMaxBitDepth="false" MZ.Sequence.EditingModeGUID="35d109db-457b-43c1-9452-9cb7be9f121c" MZ.Sequence.VideoTimeDisplayFormat="102" MZ.WorkOutPoint="1262874412800" MZ.WorkInPoint="0" explodedTracks="true">
						<uuid>58b01059-8a37-4ac8-93c2-eb8242a19e17</uuid>
						<duration>2614</duration>
						<rate>
							<timebase>30</timebase>
							<ntsc>TRUE</ntsc>
						</rate>
						<name>FND_Mint Chocolate Chip Bliss_1.5</name>
						<media>
							<video>
								<format>
									<samplecharacteristics>
										<rate>
											<timebase>30</timebase>
											<ntsc>TRUE</ntsc>
										</rate>
										<codec>
											<name>Apple ProRes 422</name>
											<appspecificdata>
												<appname>Final Cut Pro</appname>
												<appmanufacturer>Apple Inc.</appmanufacturer>
												<appversion>7.0</appversion>
												<data>
													<qtcodec>
														<codecname>Apple ProRes 422</codecname>
														<codectypename>Apple ProRes 422</codectypename>
														<codectypecode>apcn</codectypecode>
														<codecvendorcode>appl</codecvendorcode>
														<spatialquality>1024</spatialquality>
														<temporalquality>0</temporalquality>
														<keyframerate>0</keyframerate>
														<datarate>0</datarate>
													</qtcodec>
												</data>
											</appspecificdata>
										</codec>
										<width>1920</width>
										<height>1080</height>
										<anamorphic>FALSE</anamorphic>
										<pixelaspectratio>square</pixelaspectratio>
										<fielddominance>none</fielddominance>
										<colordepth>24</colordepth>
									</samplecharacteristics>
								</format>
								<track TL.SQTrackShy="0" TL.SQTrackExpandedHeight="25" TL.SQTrackExpanded="0" MZ.TrackTargeted="1">
									<clipitem id="clipitem-504">
										<masterclipid>masterclip-118</masterclipid>
										<name>(sugarandsparrowco)_CpsaOYtjlox_IG.mp4</name>
										<enabled>TRUE</enabled>
										<duration>827</duration>
										<rate>
											<timebase>30</timebase>
											<ntsc>TRUE</ntsc>
										</rate>
										<start>0</start>
										<end>650</end>
										<in>94</in>
										<out>744</out>
										<pproTicksIn>796712716800</pproTicksIn>
										<pproTicksOut>6305896396800</pproTicksOut>
										<alphatype>none</alphatype>
										<file id="file-118"/>
										<filter>
											<effect>
												<name>Basic Motion</name>
												<effectid>basic</effectid>
												<effectcategory>motion</effectcategory>
												<effecttype>motion</effecttype>
												<mediatype>video</mediatype>
												<pproBypass>false</pproBypass>
												<parameter authoringApp="PremierePro">
													<parameterid>scale</parameterid>
													<name>Scale</name>
													<valuemin>0</valuemin>
													<valuemax>1000</valuemax>
													<value>100</value>
												</parameter>
												<parameter authoringApp="PremierePro">
													<parameterid>rotation</parameterid>
													<name>Rotation</name>
													<valuemin>-8640</valuemin>
													<valuemax>8640</valuemax>
													<value>0</value>
												</parameter>
												<parameter authoringApp="PremierePro">
													<parameterid>center</parameterid>
													<name>Center</name>
													<value>
														<horiz>0.0194445</horiz>
														<vert>0</vert>
													</value>
												</parameter>
												<parameter authoringApp="PremierePro">
													<parameterid>centerOffset</parameterid>
													<name>Anchor Point</name>
													<value>
														<horiz>0</horiz>
														<vert>0</vert>
													</value>
												</parameter>
												<parameter authoringApp="PremierePro">
													<parameterid>antiflicker</parameterid>
													<name>Anti-flicker Filter</name>
													<valuemin>0.0</valuemin>
													<valuemax>1.0</valuemax>
													<value>0</value>
												</parameter>
											</effect>
										</filter>
										<logginginfo>
											<description></description>
											<scene></scene>
											<shottake></shottake>
											<lognote></lognote>
											<good></good>
											<originalvideofilename></originalvideofilename>
											<originalaudiofilename></originalaudiofilename>
										</logginginfo>
										<colorinfo>
											<lut></lut>
											<lut1></lut1>
											<asc_sop></asc_sop>
											<asc_sat></asc_sat>
											<lut2></lut2>
										</colorinfo>
										<labels>
											<label2>Violet</label2>
										</labels>
									</clipitem>
									<clipitem id="clipitem-505">
										<masterclipid>masterclip-119</masterclipid>
										<name>(thesugarhobby)_ChU43tLtOj8_IG.mp4</name>
										<enabled>TRUE</enabled>
										<duration>321</duration>
										<rate>
											<timebase>30</timebase>
											<ntsc>TRUE</ntsc>
										</rate>
										<start>650</start>
										<end>971</end>
										<in>0</in>
										<out>321</out>
										<pproTicksIn>0</pproTicksIn>
										<pproTicksOut>2720689171200</pproTicksOut>
										<alphatype>none</alphatype>
										<file id="file-119"/>
										<filter>
											<effect>
												<name>Basic Motion</name>
												<effectid>basic</effectid>
												<effectcategory>motion</effectcategory>
												<effecttype>motion</effecttype>
												<mediatype>video</mediatype>
												<pproBypass>false</pproBypass>
												<parameter authoringApp="PremierePro">
													<parameterid>scale</parameterid>
													<name>Scale</name>
													<valuemin>0</valuemin>
													<valuemax>1000</valuemax>
													<value>100</value>
												</parameter>
												<parameter authoringApp="PremierePro">
													<parameterid>rotation</parameterid>
													<name>Rotation</name>
													<valuemin>-8640</valuemin>
													<valuemax>8640</valuemax>
													<value>0</value>
												</parameter>
												<parameter authoringApp="PremierePro">
													<parameterid>center</parameterid>
													<name>Center</name>
													<value>
														<horiz>0.0194445</horiz>
														<vert>0</vert>
													</value>
												</parameter>
												<parameter authoringApp="PremierePro">
													<parameterid>centerOffset</parameterid>
													<name>Anchor Point</name>
													<value>
														<horiz>0</horiz>
														<vert>0</vert>
													</value>
												</parameter>
												<parameter authoringApp="PremierePro">
													<parameterid>antiflicker</parameterid>
													<name>Anti-flicker Filter</name>
													<valuemin>0.0</valuemin>
													<valuemax>1.0</valuemax>
													<value>0</value>
												</parameter>
											</effect>
										</filter>
										<logginginfo>
											<description></description>
											<scene></scene>
											<shottake></shottake>
											<lognote></lognote>
											<good></good>
											<originalvideofilename></originalvideofilename>
											<originalaudiofilename></originalaudiofilename>
										</logginginfo>
										<colorinfo>
											<lut></lut>
											<lut1></lut1>
											<asc_sop></asc_sop>
											<asc_sat></asc_sat>
											<lut2></lut2>
										</colorinfo>
										<labels>
											<label2>Lavender</label2>
										</labels>
									</clipitem>
									<clipitem id="clipitem-506">
										<masterclipid>masterclip-121</masterclipid>
										<name>(thethriftwitch)_7105181666460667182_TT.mp4</name>
										<enabled>TRUE</enabled>
										<duration>694</duration>
										<rate>
											<timebase>30</timebase>
											<ntsc>TRUE</ntsc>
										</rate>
										<start>971</start>
										<end>1567</end>
										<in>0</in>
										<out>596</out>
										<pproTicksIn>0</pproTicksIn>
										<pproTicksOut>5051497651200</pproTicksOut>
										<alphatype>none</alphatype>
										<file id="file-121"/>
										<filter>
											<effect>
												<name>Basic Motion</name>
												<effectid>basic</effectid>
												<effectcategory>motion</effectcategory>
												<effecttype>motion</effecttype>
												<mediatype>video</mediatype>
												<pproBypass>false</pproBypass>
												<parameter authoringApp="PremierePro">
													<parameterid>scale</parameterid>
													<name>Scale</name>
													<valuemin>0</valuemin>
													<valuemax>1000</valuemax>
													<value>100</value>
												</parameter>
												<parameter authoringApp="PremierePro">
													<parameterid>rotation</parameterid>
													<name>Rotation</name>
													<valuemin>-8640</valuemin>
													<valuemax>8640</valuemax>
													<value>0</value>
												</parameter>
												<parameter authoringApp="PremierePro">
													<parameterid>center</parameterid>
													<name>Center</name>
													<value>
														<horiz>0.0243056</horiz>
														<vert>0</vert>
													</value>
												</parameter>
												<parameter authoringApp="PremierePro">
													<parameterid>centerOffset</parameterid>
													<name>Anchor Point</name>
													<value>
														<horiz>0</horiz>
														<vert>0</vert>
													</value>
												</parameter>
												<parameter authoringApp="PremierePro">
													<parameterid>antiflicker</parameterid>
													<name>Anti-flicker Filter</name>
													<valuemin>0.0</valuemin>
													<valuemax>1.0</valuemax>
													<value>0</value>
												</parameter>
											</effect>
										</filter>
										<logginginfo>
											<description></description>
											<scene></scene>
											<shottake></shottake>
											<lognote></lognote>
											<good></good>
											<originalvideofilename></originalvideofilename>
											<originalaudiofilename></originalaudiofilename>
										</logginginfo>
										<colorinfo>
											<lut></lut>
											<lut1></lut1>
											<asc_sop></asc_sop>
											<asc_sat></asc_sat>
											<lut2></lut2>
										</colorinfo>
										<labels>
											<label2>Caribbean</label2>
										</labels>
									</clipitem>
									<clipitem id="clipitem-507">
										<masterclipid>masterclip-120</masterclipid>
										<name>(thesugarhobby)_Cs6Bw30gXPW_IG.mp4</name>
										<enabled>TRUE</enabled>
										<duration>515</duration>
										<rate>
											<timebase>30</timebase>
											<ntsc>TRUE</ntsc>
										</rate>
										<start>1567</start>
										<end>1801</end>
										<in>191</in>
										<out>425</out>
										<pproTicksIn>1618852435200</pproTicksIn>
										<pproTicksOut>3602158560000</pproTicksOut>
										<alphatype>none</alphatype>
										<file id="file-120"/>
										<filter>
											<effect>
												<name>Basic Motion</name>
												<effectid>basic</effectid>
												<effectcategory>motion</effectcategory>
												<effecttype>motion</effecttype>
												<mediatype>video</mediatype>
												<pproBypass>false</pproBypass>
												<parameter authoringApp="PremierePro">
													<parameterid>scale</parameterid>
													<name>Scale</name>
													<valuemin>0</valuemin>
													<valuemax>1000</valuemax>
													<value>100</value>
												</parameter>
												<parameter authoringApp="PremierePro">
													<parameterid>rotation</parameterid>
													<name>Rotation</name>
													<valuemin>-8640</valuemin>
													<valuemax>8640</valuemax>
													<value>0</value>
												</parameter>
												<parameter authoringApp="PremierePro">
													<parameterid>center</parameterid>
													<name>Center</name>
													<value>
														<horiz>0.012963</horiz>
														<vert>0</vert>
													</value>
												</parameter>
												<parameter authoringApp="PremierePro">
													<parameterid>centerOffset</parameterid>
													<name>Anchor Point</name>
													<value>
														<horiz>0</horiz>
														<vert>0</vert>
													</value>
												</parameter>
												<parameter authoringApp="PremierePro">
													<parameterid>antiflicker</parameterid>
													<name>Anti-flicker Filter</name>
													<valuemin>0.0</valuemin>
													<valuemax>1.0</valuemax>
													<value>0</value>
												</parameter>
											</effect>
										</filter>
										<logginginfo>
											<description></description>
											<scene></scene>
											<shottake></shottake>
											<lognote></lognote>
											<good></good>
											<originalvideofilename></originalvideofilename>
											<originalaudiofilename></originalaudiofilename>
										</logginginfo>
										<colorinfo>
											<lut></lut>
											<lut1></lut1>
											<asc_sop></asc_sop>
											<asc_sat></asc_sat>
											<lut2></lut2>
										</colorinfo>
										<labels>
											<label2>Cerulean</label2>
										</labels>
									</clipitem>
									<clipitem id="clipitem-508">
										<masterclipid>masterclip-120</masterclipid>
										<name>(thesugarhobby)_Cs6Bw30gXPW_IG.mp4</name>
										<enabled>TRUE</enabled>
										<duration>515</duration>
										<rate>
											<timebase>30</timebase>
											<ntsc>TRUE</ntsc>
										</rate>
										<start>1801</start>
										<end>1982</end>
										<in>0</in>
										<out>181</out>
										<pproTicksIn>0</pproTicksIn>
										<pproTicksOut>1534095763200</pproTicksOut>
										<alphatype>none</alphatype>
										<file id="file-120"/>
										<filter>
											<effect>
												<name>Basic Motion</name>
												<effectid>basic</effectid>
												<effectcategory>motion</effectcategory>
												<effecttype>motion</effecttype>
												<mediatype>video</mediatype>
												<pproBypass>false</pproBypass>
												<parameter authoringApp="PremierePro">
													<parameterid>scale</parameterid>
													<name>Scale</name>
													<valuemin>0</valuemin>
													<valuemax>1000</valuemax>
													<value>100</value>
												</parameter>
												<parameter authoringApp="PremierePro">
													<parameterid>rotation</parameterid>
													<name>Rotation</name>
													<valuemin>-8640</valuemin>
													<valuemax>8640</valuemax>
													<value>0</value>
												</parameter>
												<parameter authoringApp="PremierePro">
													<parameterid>center</parameterid>
													<name>Center</name>
													<value>
														<horiz>0.012963</horiz>
														<vert>0</vert>
													</value>
												</parameter>
												<parameter authoringApp="PremierePro">
													<parameterid>centerOffset</parameterid>
													<name>Anchor Point</name>
													<value>
														<horiz>0</horiz>
														<vert>0</vert>
													</value>
												</parameter>
												<parameter authoringApp="PremierePro">
													<parameterid>antiflicker</parameterid>
													<name>Anti-flicker Filter</name>
													<valuemin>0.0</valuemin>
													<valuemax>1.0</valuemax>
													<value>0</value>
												</parameter>
											</effect>
										</filter>
										<logginginfo>
											<description></description>
											<scene></scene>
											<shottake></shottake>
											<lognote></lognote>
											<good></good>
											<originalvideofilename></originalvideofilename>
											<originalaudiofilename></originalaudiofilename>
										</logginginfo>
										<colorinfo>
											<lut></lut>
											<lut1></lut1>
											<asc_sop></asc_sop>
											<asc_sat></asc_sat>
											<lut2></lut2>
										</colorinfo>
										<labels>
											<label2>Cerulean</label2>
										</labels>
									</clipitem>
									<clipitem id="clipitem-509">
										<masterclipid>masterclip-117</masterclipid>
										<name>(Baking With Ryan)_How To Make a MINT CHOCOLATE CHIP CAKE  _  (Baking With Ryan) Episode 55_FzpNQYQfmKc_YT.mp4</name>
										<enabled>TRUE</enabled>
										<duration>1621</duration>
										<rate>
											<timebase>30</timebase>
											<ntsc>TRUE</ntsc>
										</rate>
										<start>1982</start>
										<end>2193</end>
										<in>540</in>
										<out>750</out>
										<pproTicksIn>27444210393600</pproTicksIn>
										<pproTicksOut>38174405068800</pproTicksOut>
										<alphatype>none</alphatype>
										<file id="file-117"/>
										<filter>
											<effect>
												<name>Time Remap</name>
												<effectid>timeremap</effectid>
												<effectcategory>motion</effectcategory>
												<effecttype>motion</effecttype>
												<mediatype>video</mediatype>
												<parameter authoringApp="PremierePro">
													<parameterid>variablespeed</parameterid>
													<name>variablespeed</name>
													<valuemin>0</valuemin>
													<valuemax>1</valuemax>
													<value>0</value>
												</parameter>
												<parameter authoringApp="PremierePro">
													<parameterid>speed</parameterid>
													<name>speed</name>
													<valuemin>-100000</valuemin>
													<valuemax>100000</valuemax>
													<value>600</value>
												</parameter>
												<parameter authoringApp="PremierePro">
													<parameterid>reverse</parameterid>
													<name>reverse</name>
													<value>FALSE</value>
												</parameter>
												<parameter authoringApp="PremierePro">
													<parameterid>frameblending</parameterid>
													<name>frameblending</name>
													<value>FALSE</value>
												</parameter>
												<parameter authoringApp="PremierePro">
													<parameterid>graphdict</parameterid>
													<name>graphdict</name>
													<valuemin>0</valuemin>
													<valuemax>9726</valuemax>
													<value>0</value>
													<keyframe>
														<when>0</when>
														<value>0</value>
														<speedvirtualkf>TRUE</speedvirtualkf>
														<speedkfstart>TRUE</speedkfstart>
													</keyframe>
													<keyframe>
														<when>540</when>
														<value>3240</value>
														<speedvirtualkf>TRUE</speedvirtualkf>
														<speedkfin>TRUE</speedkfin>
													</keyframe>
													<keyframe>
														<when>750</when>
														<value>4500</value>
														<speedvirtualkf>TRUE</speedvirtualkf>
														<speedkfout>TRUE</speedkfout>
													</keyframe>
													<keyframe>
														<when>1621</when>
														<value>9726</value>
														<speedvirtualkf>TRUE</speedvirtualkf>
														<speedkfend>TRUE</speedkfend>
													</keyframe>
													<interpolation>
														<name>FCPCurve</name>
													</interpolation>
												</parameter>
											</effect>
										</filter>
										<logginginfo>
											<description>How To Make a MINT CHOCOLATE CHIP CAKE  |  Baking with Ryan Episode 55</description>
											<scene></scene>
											<shottake></shottake>
											<lognote>https://www.youtube.com/watch?v=FzpNQYQfmKc</lognote>
											<good></good>
											<originalvideofilename></originalvideofilename>
											<originalaudiofilename></originalaudiofilename>
										</logginginfo>
										<colorinfo>
											<lut></lut>
											<lut1></lut1>
											<asc_sop></asc_sop>
											<asc_sat></asc_sat>
											<lut2></lut2>
										</colorinfo>
									</clipitem>
									<clipitem id="clipitem-510">
										<masterclipid>masterclip-117</masterclipid>
										<name>(Baking With Ryan)_How To Make a MINT CHOCOLATE CHIP CAKE  _  (Baking With Ryan) Episode 55_FzpNQYQfmKc_YT.mp4</name>
										<enabled>TRUE</enabled>
										<duration>1621</duration>
										<rate>
											<timebase>30</timebase>
											<ntsc>TRUE</ntsc>
										</rate>
										<start>2193</start>
										<end>2287</end>
										<in>757</in>
										<out>850</out>
										<pproTicksIn>38479529088000</pproTicksIn>
										<pproTicksOut>43259805388800</pproTicksOut>
										<alphatype>none</alphatype>
										<file id="file-117"/>
										<filter>
											<effect>
												<name>Time Remap</name>
												<effectid>timeremap</effectid>
												<effectcategory>motion</effectcategory>
												<effecttype>motion</effecttype>
												<mediatype>video</mediatype>
												<parameter authoringApp="PremierePro">
													<parameterid>variablespeed</parameterid>
													<name>variablespeed</name>
													<valuemin>0</valuemin>
													<valuemax>1</valuemax>
													<value>0</value>
												</parameter>
												<parameter authoringApp="PremierePro">
													<parameterid>speed</parameterid>
													<name>speed</name>
													<valuemin>-100000</valuemin>
													<valuemax>100000</valuemax>
													<value>600</value>
												</parameter>
												<parameter authoringApp="PremierePro">
													<parameterid>reverse</parameterid>
													<name>reverse</name>
													<value>FALSE</value>
												</parameter>
												<parameter authoringApp="PremierePro">
													<parameterid>frameblending</parameterid>
													<name>frameblending</name>
													<value>FALSE</value>
												</parameter>
												<parameter authoringApp="PremierePro">
													<parameterid>graphdict</parameterid>
													<name>graphdict</name>
													<valuemin>0</valuemin>
													<valuemax>9726</valuemax>
													<value>0</value>
													<keyframe>
														<when>0</when>
														<value>0</value>
														<speedvirtualkf>TRUE</speedvirtualkf>
														<speedkfstart>TRUE</speedkfstart>
													</keyframe>
													<keyframe>
														<when>757</when>
														<value>4542</value>
														<speedvirtualkf>TRUE</speedvirtualkf>
														<speedkfin>TRUE</speedkfin>
													</keyframe>
													<keyframe>
														<when>850</when>
														<value>5100</value>
														<speedvirtualkf>TRUE</speedvirtualkf>
														<speedkfout>TRUE</speedkfout>
													</keyframe>
													<keyframe>
														<when>1621</when>
														<value>9726</value>
														<speedvirtualkf>TRUE</speedvirtualkf>
														<speedkfend>TRUE</speedkfend>
													</keyframe>
													<interpolation>
														<name>FCPCurve</name>
													</interpolation>
												</parameter>
											</effect>
										</filter>
										<logginginfo>
											<description>How To Make a MINT CHOCOLATE CHIP CAKE  |  Baking with Ryan Episode 55</description>
											<scene></scene>
											<shottake></shottake>
											<lognote>https://www.youtube.com/watch?v=FzpNQYQfmKc</lognote>
											<good></good>
											<originalvideofilename></originalvideofilename>
											<originalaudiofilename></originalaudiofilename>
										</logginginfo>
										<colorinfo>
											<lut></lut>
											<lut1></lut1>
											<asc_sop></asc_sop>
											<asc_sat></asc_sat>
											<lut2></lut2>
										</colorinfo>
									</clipitem>
									<clipitem id="clipitem-511">
										<masterclipid>masterclip-117</masterclipid>
										<name>(Baking With Ryan)_How To Make a MINT CHOCOLATE CHIP CAKE  _  (Baking With Ryan) Episode 55_FzpNQYQfmKc_YT.mp4</name>
										<enabled>TRUE</enabled>
										<duration>1621</duration>
										<rate>
											<timebase>30</timebase>
											<ntsc>TRUE</ntsc>
										</rate>
										<start>2287</start>
										<end>2389</end>
										<in>1124</in>
										<out>1225</out>
										<pproTicksIn>57151423929600</pproTicksIn>
										<pproTicksOut>62338532256000</pproTicksOut>
										<alphatype>none</alphatype>
										<file id="file-117"/>
										<filter>
											<effect>
												<name>Time Remap</name>
												<effectid>timeremap</effectid>
												<effectcategory>motion</effectcategory>
												<effecttype>motion</effecttype>
												<mediatype>video</mediatype>
												<parameter authoringApp="PremierePro">
													<parameterid>variablespeed</parameterid>
													<name>variablespeed</name>
													<valuemin>0</valuemin>
													<valuemax>1</valuemax>
													<value>0</value>
												</parameter>
												<parameter authoringApp="PremierePro">
													<parameterid>speed</parameterid>
													<name>speed</name>
													<valuemin>-100000</valuemin>
													<valuemax>100000</valuemax>
													<value>600</value>
												</parameter>
												<parameter authoringApp="PremierePro">
													<parameterid>reverse</parameterid>
													<name>reverse</name>
													<value>FALSE</value>
												</parameter>
												<parameter authoringApp="PremierePro">
													<parameterid>frameblending</parameterid>
													<name>frameblending</name>
													<value>FALSE</value>
												</parameter>
												<parameter authoringApp="PremierePro">
													<parameterid>graphdict</parameterid>
													<name>graphdict</name>
													<valuemin>0</valuemin>
													<valuemax>9726</valuemax>
													<value>0</value>
													<keyframe>
														<when>0</when>
														<value>0</value>
														<speedvirtualkf>TRUE</speedvirtualkf>
														<speedkfstart>TRUE</speedkfstart>
													</keyframe>
													<keyframe>
														<when>1124</when>
														<value>6744</value>
														<speedvirtualkf>TRUE</speedvirtualkf>
														<speedkfin>TRUE</speedkfin>
													</keyframe>
													<keyframe>
														<when>1225</when>
														<value>7350</value>
														<speedvirtualkf>TRUE</speedvirtualkf>
														<speedkfout>TRUE</speedkfout>
													</keyframe>
													<keyframe>
														<when>1621</when>
														<value>9726</value>
														<speedvirtualkf>TRUE</speedvirtualkf>
														<speedkfend>TRUE</speedkfend>
													</keyframe>
													<interpolation>
														<name>FCPCurve</name>
													</interpolation>
												</parameter>
											</effect>
										</filter>
										<logginginfo>
											<description>How To Make a MINT CHOCOLATE CHIP CAKE  |  Baking with Ryan Episode 55</description>
											<scene></scene>
											<shottake></shottake>
											<lognote>https://www.youtube.com/watch?v=FzpNQYQfmKc</lognote>
											<good></good>
											<originalvideofilename></originalvideofilename>
											<originalaudiofilename></originalaudiofilename>
										</logginginfo>
										<colorinfo>
											<lut></lut>
											<lut1></lut1>
											<asc_sop></asc_sop>
											<asc_sat></asc_sat>
											<lut2></lut2>
										</colorinfo>
									</clipitem>
									<clipitem id="clipitem-512">
										<masterclipid>masterclip-117</masterclipid>
										<name>(Baking With Ryan)_How To Make a MINT CHOCOLATE CHIP CAKE  _  (Baking With Ryan) Episode 55_FzpNQYQfmKc_YT.mp4</name>
										<enabled>TRUE</enabled>
										<duration>1621</duration>
										<rate>
											<timebase>30</timebase>
											<ntsc>TRUE</ntsc>
										</rate>
										<start>2389</start>
										<end>2538</end>
										<in>1263</in>
										<out>1411</out>
										<pproTicksIn>64203179040000</pproTicksIn>
										<pproTicksOut>71780425516800</pproTicksOut>
										<alphatype>none</alphatype>
										<file id="file-117"/>
										<filter>
											<effect>
												<name>Time Remap</name>
												<effectid>timeremap</effectid>
												<effectcategory>motion</effectcategory>
												<effecttype>motion</effecttype>
												<mediatype>video</mediatype>
												<parameter authoringApp="PremierePro">
													<parameterid>variablespeed</parameterid>
													<name>variablespeed</name>
													<valuemin>0</valuemin>
													<valuemax>1</valuemax>
													<value>0</value>
												</parameter>
												<parameter authoringApp="PremierePro">
													<parameterid>speed</parameterid>
													<name>speed</name>
													<valuemin>-100000</valuemin>
													<valuemax>100000</valuemax>
													<value>600</value>
												</parameter>
												<parameter authoringApp="PremierePro">
													<parameterid>reverse</parameterid>
													<name>reverse</name>
													<value>FALSE</value>
												</parameter>
												<parameter authoringApp="PremierePro">
													<parameterid>frameblending</parameterid>
													<name>frameblending</name>
													<value>FALSE</value>
												</parameter>
												<parameter authoringApp="PremierePro">
													<parameterid>graphdict</parameterid>
													<name>graphdict</name>
													<valuemin>0</valuemin>
													<valuemax>9726</valuemax>
													<value>0</value>
													<keyframe>
														<when>0</when>
														<value>0</value>
														<speedvirtualkf>TRUE</speedvirtualkf>
														<speedkfstart>TRUE</speedkfstart>
													</keyframe>
													<keyframe>
														<when>1263</when>
														<value>7578</value>
														<speedvirtualkf>TRUE</speedvirtualkf>
														<speedkfin>TRUE</speedkfin>
													</keyframe>
													<keyframe>
														<when>1411</when>
														<value>8466</value>
														<speedvirtualkf>TRUE</speedvirtualkf>
														<speedkfout>TRUE</speedkfout>
													</keyframe>
													<keyframe>
														<when>1621</when>
														<value>9726</value>
														<speedvirtualkf>TRUE</speedvirtualkf>
														<speedkfend>TRUE</speedkfend>
													</keyframe>
													<interpolation>
														<name>FCPCurve</name>
													</interpolation>
												</parameter>
											</effect>
										</filter>
										<logginginfo>
											<description>How To Make a MINT CHOCOLATE CHIP CAKE  |  Baking with Ryan Episode 55</description>
											<scene></scene>
											<shottake></shottake>
											<lognote>https://www.youtube.com/watch?v=FzpNQYQfmKc</lognote>
											<good></good>
											<originalvideofilename></originalvideofilename>
											<originalaudiofilename></originalaudiofilename>
										</logginginfo>
										<colorinfo>
											<lut></lut>
											<lut1></lut1>
											<asc_sop></asc_sop>
											<asc_sat></asc_sat>
											<lut2></lut2>
										</colorinfo>
									</clipitem>
									<clipitem id="clipitem-513">
										<masterclipid>masterclip-117</masterclipid>
										<name>(Baking With Ryan)_How To Make a MINT CHOCOLATE CHIP CAKE  _  (Baking With Ryan) Episode 55_FzpNQYQfmKc_YT.mp4</name>
										<enabled>TRUE</enabled>
										<duration>9729</duration>
										<rate>
											<timebase>30</timebase>
											<ntsc>TRUE</ntsc>
										</rate>
										<start>2538</start>
										<end>2614</end>
										<in>8513</in>
										<out>8589</out>
										<pproTicksIn>72153354873600</pproTicksIn>
										<pproTicksOut>72797505580800</pproTicksOut>
										<alphatype>none</alphatype>
										<file id="file-117"/>
										<logginginfo>
											<description>How To Make a MINT CHOCOLATE CHIP CAKE  |  Baking with Ryan Episode 55</description>
											<scene></scene>
											<shottake></shottake>
											<lognote>https://www.youtube.com/watch?v=FzpNQYQfmKc</lognote>
											<good></good>
											<originalvideofilename></originalvideofilename>
											<originalaudiofilename></originalaudiofilename>
										</logginginfo>
										<colorinfo>
											<lut></lut>
											<lut1></lut1>
											<asc_sop></asc_sop>
											<asc_sat></asc_sat>
											<lut2></lut2>
										</colorinfo>
									</clipitem>
									<enabled>TRUE</enabled>
									<locked>FALSE</locked>
								</track>
								<track TL.SQTrackShy="0" TL.SQTrackExpandedHeight="25" TL.SQTrackExpanded="0" MZ.TrackTargeted="0">
									<clipitem id="clipitem-514">
										<masterclipid>masterclip-177</masterclipid>
										<name>Eyecandy Vertical Video Frame 2</name>
										<enabled>TRUE</enabled>
										<duration>5700</duration>
										<rate>
											<timebase>30</timebase>
											<ntsc>TRUE</ntsc>
										</rate>
										<start>0</start>
										<end>650</end>
										<in>91</in>
										<out>741</out>
										<pproTicksIn>771285715200</pproTicksIn>
										<pproTicksOut>6280469395200</pproTicksOut>
										<alphatype>straight</alphatype>
										<file id="file-175"/>
										<logginginfo>
											<description></description>
											<scene></scene>
											<shottake></shottake>
											<lognote></lognote>
											<good></good>
											<originalvideofilename></originalvideofilename>
											<originalaudiofilename></originalaudiofilename>
										</logginginfo>
										<colorinfo>
											<lut></lut>
											<lut1></lut1>
											<asc_sop></asc_sop>
											<asc_sat></asc_sat>
											<lut2></lut2>
										</colorinfo>
									</clipitem>
									<clipitem id="clipitem-515">
										<masterclipid>masterclip-177</masterclipid>
										<name>Eyecandy Vertical Video Frame 2</name>
										<enabled>TRUE</enabled>
										<duration>5700</duration>
										<rate>
											<timebase>30</timebase>
											<ntsc>TRUE</ntsc>
										</rate>
										<start>650</start>
										<end>971</end>
										<in>741</in>
										<out>1062</out>
										<pproTicksIn>6280469395200</pproTicksIn>
										<pproTicksOut>9001158566400</pproTicksOut>
										<alphatype>straight</alphatype>
										<file id="file-175"/>
										<logginginfo>
											<description></description>
											<scene></scene>
											<shottake></shottake>
											<lognote></lognote>
											<good></good>
											<originalvideofilename></originalvideofilename>
											<originalaudiofilename></originalaudiofilename>
										</logginginfo>
										<colorinfo>
											<lut></lut>
											<lut1></lut1>
											<asc_sop></asc_sop>
											<asc_sat></asc_sat>
											<lut2></lut2>
										</colorinfo>
									</clipitem>
									<clipitem id="clipitem-516">
										<masterclipid>masterclip-177</masterclipid>
										<name>Eyecandy Vertical Video Frame 2</name>
										<enabled>TRUE</enabled>
										<duration>5700</duration>
										<rate>
											<timebase>30</timebase>
											<ntsc>TRUE</ntsc>
										</rate>
										<start>971</start>
										<end>1567</end>
										<in>1062</in>
										<out>1658</out>
										<pproTicksIn>9001158566400</pproTicksIn>
										<pproTicksOut>14052656217600</pproTicksOut>
										<alphatype>straight</alphatype>
										<file id="file-175"/>
										<logginginfo>
											<description></description>
											<scene></scene>
											<shottake></shottake>
											<lognote></lognote>
											<good></good>
											<originalvideofilename></originalvideofilename>
											<originalaudiofilename></originalaudiofilename>
										</logginginfo>
										<colorinfo>
											<lut></lut>
											<lut1></lut1>
											<asc_sop></asc_sop>
											<asc_sat></asc_sat>
											<lut2></lut2>
										</colorinfo>
									</clipitem>
									<clipitem id="clipitem-517">
										<masterclipid>masterclip-177</masterclipid>
										<name>Eyecandy Vertical Video Frame 2</name>
										<enabled>TRUE</enabled>
										<duration>5700</duration>
										<rate>
											<timebase>30</timebase>
											<ntsc>TRUE</ntsc>
										</rate>
										<start>1567</start>
										<end>1982</end>
										<in>1658</in>
										<out>2073</out>
										<pproTicksIn>14052656217600</pproTicksIn>
										<pproTicksOut>17570058105600</pproTicksOut>
										<alphatype>straight</alphatype>
										<file id="file-175"/>
										<logginginfo>
											<description></description>
											<scene></scene>
											<shottake></shottake>
											<lognote></lognote>
											<good></good>
											<originalvideofilename></originalvideofilename>
											<originalaudiofilename></originalaudiofilename>
										</logginginfo>
										<colorinfo>
											<lut></lut>
											<lut1></lut1>
											<asc_sop></asc_sop>
											<asc_sat></asc_sat>
											<lut2></lut2>
										</colorinfo>
									</clipitem>
									<clipitem id="clipitem-518">
										<masterclipid>masterclip-188</masterclipid>
										<name>Baking With Ryan</name>
										<enabled>TRUE</enabled>
										<duration>5844</duration>
										<rate>
											<timebase>30</timebase>
											<ntsc>TRUE</ntsc>
										</rate>
										<start>1982</start>
										<end>2614</end>
										<in>0</in>
										<out>632</out>
										<pproTicksIn>0</pproTicksIn>
										<pproTicksOut>5356621670400</pproTicksOut>
										<alphatype>straight</alphatype>
										<pixelaspectratio>square</pixelaspectratio>
										<anamorphic>FALSE</anamorphic>
										<file id="file-186">
											<name>1080/AE Attribution.aep</name>
											<pathurl>file://localhost/Volumes/ATM%201/EYE%20CANDY/Project%20Template/5_Assets/AE%20Attribution.aep</pathurl>
											<rate>
												<timebase>30</timebase>
												<ntsc>TRUE</ntsc>
											</rate>
											<duration>5844</duration>
											<timecode>
												<rate>
													<timebase>30</timebase>
													<ntsc>TRUE</ntsc>
												</rate>
												<string>00;00;00;00</string>
												<frame>0</frame>
												<displayformat>DF</displayformat>
											</timecode>
											<media>
												<video>
													<samplecharacteristics>
														<rate>
															<timebase>30</timebase>
															<ntsc>TRUE</ntsc>
														</rate>
														<width>1920</width>
														<height>1080</height>
														<anamorphic>FALSE</anamorphic>
														<pixelaspectratio>square</pixelaspectratio>
														<fielddominance>lower</fielddominance>
													</samplecharacteristics>
												</video>
											</media>
										</file>
										<logginginfo>
											<description></description>
											<scene></scene>
											<shottake></shottake>
											<lognote></lognote>
											<good></good>
											<originalvideofilename></originalvideofilename>
											<originalaudiofilename></originalaudiofilename>
										</logginginfo>
										<colorinfo>
											<lut></lut>
											<lut1></lut1>
											<asc_sop></asc_sop>
											<asc_sat></asc_sat>
											<lut2></lut2>
										</colorinfo>
										<labels>
											<label2>Rose</label2>
										</labels>
									</clipitem>
									<enabled>TRUE</enabled>
									<locked>FALSE</locked>
								</track>
								<track TL.SQTrackShy="0" TL.SQTrackExpandedHeight="25" TL.SQTrackExpanded="0" MZ.TrackTargeted="0">
									<enabled>TRUE</enabled>
									<locked>FALSE</locked>
								</track>
								<track TL.SQTrackShy="0" TL.SQTrackExpandedHeight="25" TL.SQTrackExpanded="0" MZ.TrackTargeted="0">
									<enabled>TRUE</enabled>
									<locked>FALSE</locked>
								</track>
								<track TL.SQTrackShy="0" TL.SQTrackExpandedHeight="25" TL.SQTrackExpanded="0" MZ.TrackTargeted="0">
									<enabled>TRUE</enabled>
									<locked>FALSE</locked>
								</track>
								<track TL.SQTrackShy="0" TL.SQTrackExpandedHeight="25" TL.SQTrackExpanded="0" MZ.TrackTargeted="0">
									<enabled>TRUE</enabled>
									<locked>FALSE</locked>
								</track>
								<track TL.SQTrackShy="0" TL.SQTrackExpandedHeight="25" TL.SQTrackExpanded="0" MZ.TrackTargeted="0">
									<enabled>TRUE</enabled>
									<locked>FALSE</locked>
								</track>
								<track TL.SQTrackShy="0" TL.SQTrackExpandedHeight="25" TL.SQTrackExpanded="0" MZ.TrackTargeted="0">
									<enabled>TRUE</enabled>
									<locked>FALSE</locked>
								</track>
								<track TL.SQTrackShy="0" TL.SQTrackExpandedHeight="25" TL.SQTrackExpanded="0" MZ.TrackTargeted="0">
									<enabled>TRUE</enabled>
									<locked>FALSE</locked>
								</track>
								<track TL.SQTrackShy="0" TL.SQTrackExpandedHeight="25" TL.SQTrackExpanded="0" MZ.TrackTargeted="0">
									<enabled>TRUE</enabled>
									<locked>FALSE</locked>
								</track>
							</video>
							<audio>
								<numOutputChannels>2</numOutputChannels>
								<format>
									<samplecharacteristics>
										<depth>16</depth>
										<samplerate>48000</samplerate>
									</samplecharacteristics>
								</format>
								<outputs>
									<group>
										<index>1</index>
										<numchannels>1</numchannels>
										<downmix>0</downmix>
										<channel>
											<index>1</index>
										</channel>
									</group>
									<group>
										<index>2</index>
										<numchannels>1</numchannels>
										<downmix>0</downmix>
										<channel>
											<index>2</index>
										</channel>
									</group>
								</outputs>
								<track TL.SQTrackAudioKeyframeStyle="0" TL.SQTrackShy="0" TL.SQTrackExpandedHeight="25" TL.SQTrackExpanded="0" MZ.TrackTargeted="1" PannerCurrentValue="0.5" PannerIsInverted="true" PannerStartKeyframe="-91445760000000000,0.5,0,0,0,0,0,0" PannerName="Balance" currentExplodedTrackIndex="0" totalExplodedTrackCount="2" premiereTrackType="Stereo">
									<clipitem id="clipitem-519" premiereChannelType="stereo">
										<masterclipid>masterclip-189</masterclipid>
										<name>ES_I Bleed (Instrumental Version) - Vicki Vox.mp3</name>
										<enabled>TRUE</enabled>
										<duration>6300</duration>
										<rate>
											<timebase>30</timebase>
											<ntsc>TRUE</ntsc>
										</rate>
										<start>0</start>
										<end>2614</end>
										<in>0</in>
										<out>2614</out>
										<pproTicksIn>0</pproTicksIn>
										<pproTicksOut>22155394060800</pproTicksOut>
										<file id="file-187">
											<name>ES_I Bleed (Instrumental Version) - Vicki Vox.mp3</name>
											<pathurl>file://localhost/Volumes/ATM%201/EYE%20CANDY/8%3a21%3a23/5_Assets/Music/ES_I%20Bleed%20(Instrumental%20Version)%20-%20Vicki%20Vox.mp3</pathurl>
											<rate>
												<timebase>30</timebase>
												<ntsc>TRUE</ntsc>
											</rate>
											<duration>6300</duration>
											<timecode>
												<rate>
													<timebase>30</timebase>
													<ntsc>TRUE</ntsc>
												</rate>
												<string>00;00;00;00</string>
												<frame>0</frame>
												<displayformat>DF</displayformat>
											</timecode>
											<media>
												<audio>
													<samplecharacteristics>
														<depth>16</depth>
														<samplerate>48000</samplerate>
													</samplecharacteristics>
													<channelcount>2</channelcount>
												</audio>
											</media>
										</file>
										<sourcetrack>
											<mediatype>audio</mediatype>
											<trackindex>1</trackindex>
										</sourcetrack>
										<link>
											<linkclipref>clipitem-519</linkclipref>
											<mediatype>audio</mediatype>
											<trackindex>1</trackindex>
											<clipindex>1</clipindex>
											<groupindex>1</groupindex>
										</link>
										<link>
											<linkclipref>clipitem-520</linkclipref>
											<mediatype>audio</mediatype>
											<trackindex>2</trackindex>
											<clipindex>1</clipindex>
											<groupindex>1</groupindex>
										</link>
										<logginginfo>
											<description></description>
											<scene></scene>
											<shottake></shottake>
											<lognote></lognote>
											<good></good>
											<originalvideofilename></originalvideofilename>
											<originalaudiofilename></originalaudiofilename>
										</logginginfo>
										<colorinfo>
											<lut></lut>
											<lut1></lut1>
											<asc_sop></asc_sop>
											<asc_sat></asc_sat>
											<lut2></lut2>
										</colorinfo>
										<labels>
											<label2>Caribbean</label2>
										</labels>
									</clipitem>
									<enabled>TRUE</enabled>
									<locked>FALSE</locked>
									<filter>
										<effect>
											<name>Audio Levels</name>
											<effectid>audiolevels</effectid>
											<effectcategory>audiolevels</effectcategory>
											<effecttype>audiolevels</effecttype>
											<mediatype>audio</mediatype>
											<parameter authoringApp="PremierePro">
												<parameterid>level</parameterid>
												<name>Level</name>
												<valuemin>0</valuemin>
												<valuemax>3.98109</valuemax>
												<value>0.706272</value>
											</parameter>
										</effect>
									</filter>
									<outputchannelindex>1</outputchannelindex>
								</track>
								<track TL.SQTrackAudioKeyframeStyle="0" TL.SQTrackShy="0" TL.SQTrackExpandedHeight="25" TL.SQTrackExpanded="0" MZ.TrackTargeted="1" PannerCurrentValue="0.5" PannerIsInverted="true" PannerStartKeyframe="-91445760000000000,0.5,0,0,0,0,0,0" PannerName="Balance" currentExplodedTrackIndex="1" totalExplodedTrackCount="2" premiereTrackType="Stereo">
									<clipitem id="clipitem-520" premiereChannelType="stereo">
										<masterclipid>masterclip-189</masterclipid>
										<name>ES_I Bleed (Instrumental Version) - Vicki Vox.mp3</name>
										<enabled>TRUE</enabled>
										<duration>6300</duration>
										<rate>
											<timebase>30</timebase>
											<ntsc>TRUE</ntsc>
										</rate>
										<start>0</start>
										<end>2614</end>
										<in>0</in>
										<out>2614</out>
										<pproTicksIn>0</pproTicksIn>
										<pproTicksOut>22155394060800</pproTicksOut>
										<file id="file-187"/>
										<sourcetrack>
											<mediatype>audio</mediatype>
											<trackindex>2</trackindex>
										</sourcetrack>
										<link>
											<linkclipref>clipitem-519</linkclipref>
											<mediatype>audio</mediatype>
											<trackindex>1</trackindex>
											<clipindex>1</clipindex>
											<groupindex>1</groupindex>
										</link>
										<link>
											<linkclipref>clipitem-520</linkclipref>
											<mediatype>audio</mediatype>
											<trackindex>2</trackindex>
											<clipindex>1</clipindex>
											<groupindex>1</groupindex>
										</link>
										<logginginfo>
											<description></description>
											<scene></scene>
											<shottake></shottake>
											<lognote></lognote>
											<good></good>
											<originalvideofilename></originalvideofilename>
											<originalaudiofilename></originalaudiofilename>
										</logginginfo>
										<colorinfo>
											<lut></lut>
											<lut1></lut1>
											<asc_sop></asc_sop>
											<asc_sat></asc_sat>
											<lut2></lut2>
										</colorinfo>
										<labels>
											<label2>Caribbean</label2>
										</labels>
									</clipitem>
									<enabled>TRUE</enabled>
									<locked>FALSE</locked>
									<filter>
										<effect>
											<name>Audio Levels</name>
											<effectid>audiolevels</effectid>
											<effectcategory>audiolevels</effectcategory>
											<effecttype>audiolevels</effecttype>
											<mediatype>audio</mediatype>
											<parameter authoringApp="PremierePro">
												<parameterid>level</parameterid>
												<name>Level</name>
												<valuemin>0</valuemin>
												<valuemax>3.98109</valuemax>
												<value>0.706272</value>
											</parameter>
										</effect>
									</filter>
									<outputchannelindex>2</outputchannelindex>
								</track>
								<track TL.SQTrackAudioKeyframeStyle="0" TL.SQTrackShy="0" TL.SQTrackExpandedHeight="25" TL.SQTrackExpanded="0" MZ.TrackTargeted="0" PannerCurrentValue="0.5" PannerIsInverted="true" PannerStartKeyframe="-91445760000000000,0.5,0,0,0,0,0,0" PannerName="Balance" currentExplodedTrackIndex="0" totalExplodedTrackCount="2" premiereTrackType="Stereo">
									<enabled>TRUE</enabled>
									<locked>FALSE</locked>
									<outputchannelindex>1</outputchannelindex>
								</track>
								<track TL.SQTrackAudioKeyframeStyle="0" TL.SQTrackShy="0" TL.SQTrackExpandedHeight="25" TL.SQTrackExpanded="0" MZ.TrackTargeted="0" PannerCurrentValue="0.5" PannerIsInverted="true" PannerStartKeyframe="-91445760000000000,0.5,0,0,0,0,0,0" PannerName="Balance" currentExplodedTrackIndex="1" totalExplodedTrackCount="2" premiereTrackType="Stereo">
									<enabled>TRUE</enabled>
									<locked>FALSE</locked>
									<outputchannelindex>2</outputchannelindex>
								</track>
								<track TL.SQTrackAudioKeyframeStyle="0" TL.SQTrackShy="0" TL.SQTrackExpandedHeight="25" TL.SQTrackExpanded="0" MZ.TrackTargeted="0" PannerCurrentValue="0.5" PannerIsInverted="true" PannerStartKeyframe="-91445760000000000,0.5,0,0,0,0,0,0" PannerName="Balance" currentExplodedTrackIndex="0" totalExplodedTrackCount="2" premiereTrackType="Stereo">
									<enabled>TRUE</enabled>
									<locked>FALSE</locked>
									<outputchannelindex>1</outputchannelindex>
								</track>
								<track TL.SQTrackAudioKeyframeStyle="0" TL.SQTrackShy="0" TL.SQTrackExpandedHeight="25" TL.SQTrackExpanded="0" MZ.TrackTargeted="0" PannerCurrentValue="0.5" PannerIsInverted="true" PannerStartKeyframe="-91445760000000000,0.5,0,0,0,0,0,0" PannerName="Balance" currentExplodedTrackIndex="1" totalExplodedTrackCount="2" premiereTrackType="Stereo">
									<enabled>TRUE</enabled>
									<locked>FALSE</locked>
									<outputchannelindex>2</outputchannelindex>
								</track>
								<track TL.SQTrackAudioKeyframeStyle="0" TL.SQTrackShy="0" TL.SQTrackExpandedHeight="25" TL.SQTrackExpanded="0" MZ.TrackTargeted="0" PannerCurrentValue="0.5" PannerIsInverted="true" PannerStartKeyframe="-91445760000000000,0.5,0,0,0,0,0,0" PannerName="Balance" currentExplodedTrackIndex="0" totalExplodedTrackCount="2" premiereTrackType="Stereo">
									<enabled>TRUE</enabled>
									<locked>FALSE</locked>
									<outputchannelindex>1</outputchannelindex>
								</track>
								<track TL.SQTrackAudioKeyframeStyle="0" TL.SQTrackShy="0" TL.SQTrackExpandedHeight="25" TL.SQTrackExpanded="0" MZ.TrackTargeted="0" PannerCurrentValue="0.5" PannerIsInverted="true" PannerStartKeyframe="-91445760000000000,0.5,0,0,0,0,0,0" PannerName="Balance" currentExplodedTrackIndex="1" totalExplodedTrackCount="2" premiereTrackType="Stereo">
									<enabled>TRUE</enabled>
									<locked>FALSE</locked>
									<outputchannelindex>2</outputchannelindex>
								</track>
								<track TL.SQTrackAudioKeyframeStyle="0" TL.SQTrackShy="0" TL.SQTrackExpandedHeight="25" TL.SQTrackExpanded="0" MZ.TrackTargeted="0" PannerCurrentValue="0.5" PannerIsInverted="true" PannerStartKeyframe="-91445760000000000,0.5,0,0,0,0,0,0" PannerName="Balance" currentExplodedTrackIndex="0" totalExplodedTrackCount="2" premiereTrackType="Stereo">
									<enabled>TRUE</enabled>
									<locked>FALSE</locked>
									<outputchannelindex>1</outputchannelindex>
								</track>
								<track TL.SQTrackAudioKeyframeStyle="0" TL.SQTrackShy="0" TL.SQTrackExpandedHeight="25" TL.SQTrackExpanded="0" MZ.TrackTargeted="0" PannerCurrentValue="0.5" PannerIsInverted="true" PannerStartKeyframe="-91445760000000000,0.5,0,0,0,0,0,0" PannerName="Balance" currentExplodedTrackIndex="1" totalExplodedTrackCount="2" premiereTrackType="Stereo">
									<enabled>TRUE</enabled>
									<locked>FALSE</locked>
									<outputchannelindex>2</outputchannelindex>
								</track>
								<track TL.SQTrackAudioKeyframeStyle="0" TL.SQTrackShy="0" TL.SQTrackExpandedHeight="25" TL.SQTrackExpanded="0" MZ.TrackTargeted="0" PannerCurrentValue="0.5" PannerIsInverted="true" PannerStartKeyframe="-91445760000000000,0.5,0,0,0,0,0,0" PannerName="Balance" currentExplodedTrackIndex="0" totalExplodedTrackCount="2" premiereTrackType="Stereo">
									<enabled>TRUE</enabled>
									<locked>FALSE</locked>
									<outputchannelindex>1</outputchannelindex>
								</track>
								<track TL.SQTrackAudioKeyframeStyle="0" TL.SQTrackShy="0" TL.SQTrackExpandedHeight="25" TL.SQTrackExpanded="0" MZ.TrackTargeted="0" PannerCurrentValue="0.5" PannerIsInverted="true" PannerStartKeyframe="-91445760000000000,0.5,0,0,0,0,0,0" PannerName="Balance" currentExplodedTrackIndex="1" totalExplodedTrackCount="2" premiereTrackType="Stereo">
									<enabled>TRUE</enabled>
									<locked>FALSE</locked>
									<outputchannelindex>2</outputchannelindex>
								</track>
								<track TL.SQTrackAudioKeyframeStyle="0" TL.SQTrackShy="0" TL.SQTrackExpandedHeight="25" TL.SQTrackExpanded="0" MZ.TrackTargeted="0" PannerCurrentValue="0.5" PannerIsInverted="true" PannerStartKeyframe="-91445760000000000,0.5,0,0,0,0,0,0" PannerName="Balance" currentExplodedTrackIndex="0" totalExplodedTrackCount="2" premiereTrackType="Stereo">
									<enabled>TRUE</enabled>
									<locked>FALSE</locked>
									<outputchannelindex>1</outputchannelindex>
								</track>
								<track TL.SQTrackAudioKeyframeStyle="0" TL.SQTrackShy="0" TL.SQTrackExpandedHeight="25" TL.SQTrackExpanded="0" MZ.TrackTargeted="0" PannerCurrentValue="0.5" PannerIsInverted="true" PannerStartKeyframe="-91445760000000000,0.5,0,0,0,0,0,0" PannerName="Balance" currentExplodedTrackIndex="1" totalExplodedTrackCount="2" premiereTrackType="Stereo">
									<enabled>TRUE</enabled>
									<locked>FALSE</locked>
									<outputchannelindex>2</outputchannelindex>
								</track>
								<track TL.SQTrackAudioKeyframeStyle="0" TL.SQTrackShy="0" TL.SQTrackExpandedHeight="25" TL.SQTrackExpanded="0" MZ.TrackTargeted="0" PannerCurrentValue="0.5" PannerIsInverted="true" PannerStartKeyframe="-91445760000000000,0.5,0,0,0,0,0,0" PannerName="Balance" currentExplodedTrackIndex="0" totalExplodedTrackCount="2" premiereTrackType="Stereo">
									<enabled>TRUE</enabled>
									<locked>FALSE</locked>
									<outputchannelindex>1</outputchannelindex>
								</track>
								<track TL.SQTrackAudioKeyframeStyle="0" TL.SQTrackShy="0" TL.SQTrackExpandedHeight="25" TL.SQTrackExpanded="0" MZ.TrackTargeted="0" PannerCurrentValue="0.5" PannerIsInverted="true" PannerStartKeyframe="-91445760000000000,0.5,0,0,0,0,0,0" PannerName="Balance" currentExplodedTrackIndex="1" totalExplodedTrackCount="2" premiereTrackType="Stereo">
									<enabled>TRUE</enabled>
									<locked>FALSE</locked>
									<outputchannelindex>2</outputchannelindex>
								</track>
								<track TL.SQTrackAudioKeyframeStyle="0" TL.SQTrackShy="0" TL.SQTrackExpandedHeight="25" TL.SQTrackExpanded="0" MZ.TrackTargeted="0" PannerCurrentValue="0.5" PannerIsInverted="true" PannerStartKeyframe="-91445760000000000,0.5,0,0,0,0,0,0" PannerName="Balance" currentExplodedTrackIndex="0" totalExplodedTrackCount="2" premiereTrackType="Stereo">
									<enabled>TRUE</enabled>
									<locked>FALSE</locked>
									<outputchannelindex>1</outputchannelindex>
								</track>
								<track TL.SQTrackAudioKeyframeStyle="0" TL.SQTrackShy="0" TL.SQTrackExpandedHeight="25" TL.SQTrackExpanded="0" MZ.TrackTargeted="0" PannerCurrentValue="0.5" PannerIsInverted="true" PannerStartKeyframe="-91445760000000000,0.5,0,0,0,0,0,0" PannerName="Balance" currentExplodedTrackIndex="1" totalExplodedTrackCount="2" premiereTrackType="Stereo">
									<enabled>TRUE</enabled>
									<locked>FALSE</locked>
									<outputchannelindex>2</outputchannelindex>
								</track>
								<track TL.SQTrackAudioKeyframeStyle="0" TL.SQTrackShy="0" TL.SQTrackExpandedHeight="25" TL.SQTrackExpanded="0" MZ.TrackTargeted="0" PannerCurrentValue="0.5" PannerIsInverted="true" PannerStartKeyframe="-91445760000000000,0.5,0,0,0,0,0,0" PannerName="Balance" currentExplodedTrackIndex="0" totalExplodedTrackCount="2" premiereTrackType="Stereo">
									<enabled>TRUE</enabled>
									<locked>FALSE</locked>
									<outputchannelindex>1</outputchannelindex>
								</track>
								<track TL.SQTrackAudioKeyframeStyle="0" TL.SQTrackShy="0" TL.SQTrackExpandedHeight="25" TL.SQTrackExpanded="0" MZ.TrackTargeted="0" PannerCurrentValue="0.5" PannerIsInverted="true" PannerStartKeyframe="-91445760000000000,0.5,0,0,0,0,0,0" PannerName="Balance" currentExplodedTrackIndex="1" totalExplodedTrackCount="2" premiereTrackType="Stereo">
									<enabled>TRUE</enabled>
									<locked>FALSE</locked>
									<outputchannelindex>2</outputchannelindex>
								</track>
							</audio>
						</media>
						<timecode>
							<rate>
								<timebase>30</timebase>
								<ntsc>TRUE</ntsc>
							</rate>
							<string>00;00;00;00</string>
							<frame>0</frame>
							<displayformat>DF</displayformat>
						</timecode>
						<labels>
							<label2>Forest</label2>
						</labels>
						<logginginfo>
							<description></description>
							<scene></scene>
							<shottake></shottake>
							<lognote></lognote>
							<good></good>
							<originalvideofilename></originalvideofilename>
							<originalaudiofilename></originalaudiofilename>
						</logginginfo>
					</sequence>
					<sequence id="sequence-16" TL.SQAudioVisibleBase="0" TL.SQVideoVisibleBase="0" TL.SQVisibleBaseTime="14523338269441" TL.SQAVDividerPosition="0.5" TL.SQHideShyTracks="0" TL.SQHeaderWidth="236" TL.SQDataTrackViewControlState="0" Monitor.ProgramZoomOut="29181722169600" Monitor.ProgramZoomIn="0" TL.SQTimePerPixel="0.071182222222222216" AM.TrackVScrollPosition="0" AM.TrackScrollPosition="0" MZ.EditLine="25842309292800" MZ.Sequence.PreviewFrameSizeHeight="1080" MZ.Sequence.PreviewFrameSizeWidth="1920" MZ.Sequence.AudioTimeDisplayFormat="200" MZ.Sequence.PreviewRenderingClassID="1061109567" MZ.Sequence.PreviewRenderingPresetCodec="1634755443" MZ.Sequence.PreviewRenderingPresetPath="EncoderPresets/SequencePreview/35d109db-457b-43c1-9452-9cb7be9f121c/QuickTime.epr" MZ.Sequence.PreviewUseMaxRenderQuality="false" MZ.Sequence.PreviewUseMaxBitDepth="false" MZ.Sequence.EditingModeGUID="35d109db-457b-43c1-9452-9cb7be9f121c" MZ.Sequence.VideoTimeDisplayFormat="102" MZ.WorkOutPoint="1262874412800" MZ.WorkInPoint="0" explodedTracks="true">
						<uuid>ea5924e1-6b07-4702-adca-f334fdeff8c5</uuid>
						<duration>3443</duration>
						<rate>
							<timebase>30</timebase>
							<ntsc>TRUE</ntsc>
						</rate>
						<out>3443</out>
						<name>FND_Sweet As A Strawberry_2</name>
						<media>
							<video>
								<format>
									<samplecharacteristics>
										<rate>
											<timebase>30</timebase>
											<ntsc>TRUE</ntsc>
										</rate>
										<codec>
											<name>Apple ProRes 422</name>
											<appspecificdata>
												<appname>Final Cut Pro</appname>
												<appmanufacturer>Apple Inc.</appmanufacturer>
												<appversion>7.0</appversion>
												<data>
													<qtcodec>
														<codecname>Apple ProRes 422</codecname>
														<codectypename>Apple ProRes 422</codectypename>
														<codectypecode>apcn</codectypecode>
														<codecvendorcode>appl</codecvendorcode>
														<spatialquality>1024</spatialquality>
														<temporalquality>0</temporalquality>
														<keyframerate>0</keyframerate>
														<datarate>0</datarate>
													</qtcodec>
												</data>
											</appspecificdata>
										</codec>
										<width>1920</width>
										<height>1080</height>
										<anamorphic>FALSE</anamorphic>
										<pixelaspectratio>square</pixelaspectratio>
										<fielddominance>none</fielddominance>
										<colordepth>24</colordepth>
									</samplecharacteristics>
								</format>
								<track TL.SQTrackShy="0" TL.SQTrackExpandedHeight="25" TL.SQTrackExpanded="0" MZ.TrackTargeted="1">
									<clipitem id="clipitem-521">
										<masterclipid>masterclip-123</masterclipid>
										<name>(baristahakan)_CRjY3wtB8dU_IG.mp4</name>
										<enabled>TRUE</enabled>
										<duration>899</duration>
										<rate>
											<timebase>30</timebase>
											<ntsc>TRUE</ntsc>
										</rate>
										<start>0</start>
										<end>549</end>
										<in>0</in>
										<out>549</out>
										<pproTicksIn>0</pproTicksIn>
										<pproTicksOut>4653141292800</pproTicksOut>
										<alphatype>none</alphatype>
										<file id="file-123"/>
										<logginginfo>
											<description></description>
											<scene></scene>
											<shottake></shottake>
											<lognote></lognote>
											<good></good>
											<originalvideofilename></originalvideofilename>
											<originalaudiofilename></originalaudiofilename>
										</logginginfo>
										<colorinfo>
											<lut></lut>
											<lut1></lut1>
											<asc_sop></asc_sop>
											<asc_sat></asc_sat>
											<lut2></lut2>
										</colorinfo>
										<labels>
											<label2>Violet</label2>
										</labels>
									</clipitem>
									<clipitem id="clipitem-522">
										<masterclipid>masterclip-123</masterclipid>
										<name>(baristahakan)_CRjY3wtB8dU_IG.mp4</name>
										<enabled>TRUE</enabled>
										<duration>899</duration>
										<rate>
											<timebase>30</timebase>
											<ntsc>TRUE</ntsc>
										</rate>
										<start>549</start>
										<end>652</end>
										<in>589</in>
										<out>692</out>
										<pproTicksIn>4992167980800</pproTicksIn>
										<pproTicksOut>5865161702400</pproTicksOut>
										<alphatype>none</alphatype>
										<file id="file-123"/>
										<logginginfo>
											<description></description>
											<scene></scene>
											<shottake></shottake>
											<lognote></lognote>
											<good></good>
											<originalvideofilename></originalvideofilename>
											<originalaudiofilename></originalaudiofilename>
										</logginginfo>
										<colorinfo>
											<lut></lut>
											<lut1></lut1>
											<asc_sop></asc_sop>
											<asc_sat></asc_sat>
											<lut2></lut2>
										</colorinfo>
										<labels>
											<label2>Violet</label2>
										</labels>
									</clipitem>
									<clipitem id="clipitem-523">
										<masterclipid>masterclip-123</masterclipid>
										<name>(baristahakan)_CRjY3wtB8dU_IG.mp4</name>
										<enabled>TRUE</enabled>
										<duration>899</duration>
										<rate>
											<timebase>30</timebase>
											<ntsc>TRUE</ntsc>
										</rate>
										<start>652</start>
										<end>750</end>
										<in>754</in>
										<out>852</out>
										<pproTicksIn>6390653068800</pproTicksIn>
										<pproTicksOut>7221268454400</pproTicksOut>
										<alphatype>none</alphatype>
										<file id="file-123"/>
										<logginginfo>
											<description></description>
											<scene></scene>
											<shottake></shottake>
											<lognote></lognote>
											<good></good>
											<originalvideofilename></originalvideofilename>
											<originalaudiofilename></originalaudiofilename>
										</logginginfo>
										<colorinfo>
											<lut></lut>
											<lut1></lut1>
											<asc_sop></asc_sop>
											<asc_sat></asc_sat>
											<lut2></lut2>
										</colorinfo>
										<labels>
											<label2>Violet</label2>
										</labels>
									</clipitem>
									<clipitem id="clipitem-524">
										<masterclipid>masterclip-125</masterclipid>
										<name>(sophiabakessometimes)_7089896903076252933_TT.mp4</name>
										<enabled>TRUE</enabled>
										<duration>773</duration>
										<rate>
											<timebase>30</timebase>
											<ntsc>TRUE</ntsc>
										</rate>
										<start>750</start>
										<end>1523</end>
										<in>0</in>
										<out>772</out>
										<pproTicksIn>0</pproTicksIn>
										<pproTicksOut>7534444357440</pproTicksOut>
										<alphatype>none</alphatype>
										<file id="file-125"/>
										<filter>
											<effect>
												<name>Time Remap</name>
												<effectid>timeremap</effectid>
												<effectcategory>motion</effectcategory>
												<effecttype>motion</effecttype>
												<mediatype>video</mediatype>
												<parameter authoringApp="PremierePro">
													<parameterid>variablespeed</parameterid>
													<name>variablespeed</name>
													<valuemin>0</valuemin>
													<valuemax>1</valuemax>
													<value>0</value>
												</parameter>
												<parameter authoringApp="PremierePro">
													<parameterid>speed</parameterid>
													<name>speed</name>
													<valuemin>-100000</valuemin>
													<valuemax>100000</valuemax>
													<value>115</value>
												</parameter>
												<parameter authoringApp="PremierePro">
													<parameterid>reverse</parameterid>
													<name>reverse</name>
													<value>FALSE</value>
												</parameter>
												<parameter authoringApp="PremierePro">
													<parameterid>frameblending</parameterid>
													<name>frameblending</name>
													<value>FALSE</value>
												</parameter>
												<parameter authoringApp="PremierePro">
													<parameterid>graphdict</parameterid>
													<name>graphdict</name>
													<valuemin>0</valuemin>
													<valuemax>888</valuemax>
													<value>0</value>
													<keyframe>
														<when>0</when>
														<value>0</value>
														<speedvirtualkf>TRUE</speedvirtualkf>
														<speedkfin>TRUE</speedkfin>
													</keyframe>
													<keyframe>
														<when>772</when>
														<value>887</value>
														<speedvirtualkf>TRUE</speedvirtualkf>
														<speedkfout>TRUE</speedkfout>
													</keyframe>
													<keyframe>
														<when>773</when>
														<value>888</value>
														<speedvirtualkf>TRUE</speedvirtualkf>
														<speedkfend>TRUE</speedkfend>
													</keyframe>
													<interpolation>
														<name>FCPCurve</name>
													</interpolation>
												</parameter>
											</effect>
										</filter>
										<logginginfo>
											<description></description>
											<scene></scene>
											<shottake></shottake>
											<lognote></lognote>
											<good></good>
											<originalvideofilename></originalvideofilename>
											<originalaudiofilename></originalaudiofilename>
										</logginginfo>
										<colorinfo>
											<lut></lut>
											<lut1></lut1>
											<asc_sop></asc_sop>
											<asc_sat></asc_sat>
											<lut2></lut2>
										</colorinfo>
										<labels>
											<label2>Caribbean</label2>
										</labels>
									</clipitem>
									<clipitem id="clipitem-525">
										<masterclipid>masterclip-126</masterclipid>
										<name>(sugarandsparrowco)_Cs39ltFJpnY_IG.mp4</name>
										<enabled>TRUE</enabled>
										<duration>796</duration>
										<rate>
											<timebase>30</timebase>
											<ntsc>TRUE</ntsc>
										</rate>
										<start>1523</start>
										<end>2226</end>
										<in>93</in>
										<out>796</out>
										<pproTicksIn>788237049600</pproTicksIn>
										<pproTicksOut>6746631091200</pproTicksOut>
										<alphatype>none</alphatype>
										<file id="file-126"/>
										<logginginfo>
											<description></description>
											<scene></scene>
											<shottake></shottake>
											<lognote></lognote>
											<good></good>
											<originalvideofilename></originalvideofilename>
											<originalaudiofilename></originalaudiofilename>
										</logginginfo>
										<colorinfo>
											<lut></lut>
											<lut1></lut1>
											<asc_sop></asc_sop>
											<asc_sat></asc_sat>
											<lut2></lut2>
										</colorinfo>
										<labels>
											<label2>Lavender</label2>
										</labels>
									</clipitem>
									<clipitem id="clipitem-526">
										<masterclipid>masterclip-122</masterclipid>
										<name>(_sophieskitchen)_CfUUFUxlHmy_IG.mp4</name>
										<enabled>TRUE</enabled>
										<duration>1033</duration>
										<rate>
											<timebase>30</timebase>
											<ntsc>TRUE</ntsc>
										</rate>
										<start>2226</start>
										<end>3048</end>
										<in>0</in>
										<out>822</out>
										<pproTicksIn>0</pproTicksIn>
										<pproTicksOut>6966998438400</pproTicksOut>
										<alphatype>none</alphatype>
										<file id="file-122"/>
										<logginginfo>
											<description></description>
											<scene></scene>
											<shottake></shottake>
											<lognote></lognote>
											<good></good>
											<originalvideofilename></originalvideofilename>
											<originalaudiofilename></originalaudiofilename>
										</logginginfo>
										<colorinfo>
											<lut></lut>
											<lut1></lut1>
											<asc_sop></asc_sop>
											<asc_sat></asc_sat>
											<lut2></lut2>
										</colorinfo>
										<labels>
											<label2>Cerulean</label2>
										</labels>
									</clipitem>
									<clipitem id="clipitem-527">
										<masterclipid>masterclip-124</masterclipid>
										<name>(join_jules)_CY4qnuVKW_O_IG.mp4</name>
										<enabled>TRUE</enabled>
										<duration>396</duration>
										<rate>
											<timebase>30</timebase>
											<ntsc>TRUE</ntsc>
										</rate>
										<start>3048</start>
										<end>3401</end>
										<in>43</in>
										<out>396</out>
										<pproTicksIn>364453689600</pproTicksIn>
										<pproTicksOut>3356364211200</pproTicksOut>
										<alphatype>none</alphatype>
										<file id="file-124"/>
										<logginginfo>
											<description></description>
											<scene></scene>
											<shottake></shottake>
											<lognote></lognote>
											<good></good>
											<originalvideofilename></originalvideofilename>
											<originalaudiofilename></originalaudiofilename>
										</logginginfo>
										<colorinfo>
											<lut></lut>
											<lut1></lut1>
											<asc_sop></asc_sop>
											<asc_sat></asc_sat>
											<lut2></lut2>
										</colorinfo>
									</clipitem>
									<clipitem id="clipitem-528">
										<masterclipid>masterclip-124</masterclipid>
										<name>(join_jules)_CY4qnuVKW_O_IG.mp4</name>
										<enabled>TRUE</enabled>
										<duration>396</duration>
										<rate>
											<timebase>30</timebase>
											<ntsc>TRUE</ntsc>
										</rate>
										<start>3401</start>
										<end>3442</end>
										<in>0</in>
										<out>41</out>
										<pproTicksIn>0</pproTicksIn>
										<pproTicksOut>347502355200</pproTicksOut>
										<alphatype>none</alphatype>
										<file id="file-124"/>
										<logginginfo>
											<description></description>
											<scene></scene>
											<shottake></shottake>
											<lognote></lognote>
											<good></good>
											<originalvideofilename></originalvideofilename>
											<originalaudiofilename></originalaudiofilename>
										</logginginfo>
										<colorinfo>
											<lut></lut>
											<lut1></lut1>
											<asc_sop></asc_sop>
											<asc_sat></asc_sat>
											<lut2></lut2>
										</colorinfo>
									</clipitem>
									<enabled>TRUE</enabled>
									<locked>FALSE</locked>
								</track>
								<track TL.SQTrackShy="0" TL.SQTrackExpandedHeight="25" TL.SQTrackExpanded="0" MZ.TrackTargeted="0">
									<clipitem id="clipitem-529">
										<masterclipid>masterclip-190</masterclipid>
										<name>Eyecandy Vertical Video Frame 1</name>
										<enabled>TRUE</enabled>
										<duration>5700</duration>
										<rate>
											<timebase>30</timebase>
											<ntsc>TRUE</ntsc>
										</rate>
										<start>0</start>
										<end>750</end>
										<in>59</in>
										<out>809</out>
										<pproTicksIn>500064364800</pproTicksIn>
										<pproTicksOut>6856814764800</pproTicksOut>
										<alphatype>straight</alphatype>
										<pixelaspectratio>square</pixelaspectratio>
										<anamorphic>FALSE</anamorphic>
										<file id="file-188">
											<name>Eyecandy Vertical Video Frame 1/Eyecandy Vertical Video Frame 1.aegraphic</name>
											<pathurl>file://localhost/Volumes/ATM%201/EYE%20CANDY/8%3a21%3a23/4_Project%20Files/Motion%20Graphics%20Template%20Media/72273a02-8198-4cbb-91db-e1c317cc4b82/Eyecandy%20Vertical%20Video%20Frame%201.aegraphic</pathurl>
											<rate>
												<timebase>24</timebase>
												<ntsc>TRUE</ntsc>
											</rate>
											<duration>4560</duration>
											<timecode>
												<rate>
													<timebase>24</timebase>
													<ntsc>TRUE</ntsc>
												</rate>
												<string>00:00:00:00</string>
												<frame>0</frame>
												<displayformat>NDF</displayformat>
											</timecode>
											<media>
												<video>
													<samplecharacteristics>
														<rate>
															<timebase>24</timebase>
															<ntsc>TRUE</ntsc>
														</rate>
														<width>1920</width>
														<height>1080</height>
														<anamorphic>FALSE</anamorphic>
														<pixelaspectratio>square</pixelaspectratio>
														<fielddominance>lower</fielddominance>
													</samplecharacteristics>
												</video>
											</media>
										</file>
										<logginginfo>
											<description></description>
											<scene></scene>
											<shottake></shottake>
											<lognote></lognote>
											<good></good>
											<originalvideofilename></originalvideofilename>
											<originalaudiofilename></originalaudiofilename>
										</logginginfo>
										<colorinfo>
											<lut></lut>
											<lut1></lut1>
											<asc_sop></asc_sop>
											<asc_sat></asc_sat>
											<lut2></lut2>
										</colorinfo>
									</clipitem>
									<clipitem id="clipitem-530">
										<masterclipid>masterclip-190</masterclipid>
										<name>Eyecandy Vertical Video Frame 1</name>
										<enabled>TRUE</enabled>
										<duration>5700</duration>
										<rate>
											<timebase>30</timebase>
											<ntsc>TRUE</ntsc>
										</rate>
										<start>750</start>
										<end>1523</end>
										<in>809</in>
										<out>1582</out>
										<pproTicksIn>6856814764800</pproTicksIn>
										<pproTicksOut>13408505510400</pproTicksOut>
										<alphatype>straight</alphatype>
										<file id="file-188"/>
										<logginginfo>
											<description></description>
											<scene></scene>
											<shottake></shottake>
											<lognote></lognote>
											<good></good>
											<originalvideofilename></originalvideofilename>
											<originalaudiofilename></originalaudiofilename>
										</logginginfo>
										<colorinfo>
											<lut></lut>
											<lut1></lut1>
											<asc_sop></asc_sop>
											<asc_sat></asc_sat>
											<lut2></lut2>
										</colorinfo>
									</clipitem>
									<clipitem id="clipitem-531">
										<masterclipid>masterclip-190</masterclipid>
										<name>Eyecandy Vertical Video Frame 1</name>
										<enabled>TRUE</enabled>
										<duration>5700</duration>
										<rate>
											<timebase>30</timebase>
											<ntsc>TRUE</ntsc>
										</rate>
										<start>1523</start>
										<end>2226</end>
										<in>1582</in>
										<out>2285</out>
										<pproTicksIn>13408505510400</pproTicksIn>
										<pproTicksOut>19366899552000</pproTicksOut>
										<alphatype>straight</alphatype>
										<file id="file-188"/>
										<logginginfo>
											<description></description>
											<scene></scene>
											<shottake></shottake>
											<lognote></lognote>
											<good></good>
											<originalvideofilename></originalvideofilename>
											<originalaudiofilename></originalaudiofilename>
										</logginginfo>
										<colorinfo>
											<lut></lut>
											<lut1></lut1>
											<asc_sop></asc_sop>
											<asc_sat></asc_sat>
											<lut2></lut2>
										</colorinfo>
									</clipitem>
									<clipitem id="clipitem-532">
										<masterclipid>masterclip-190</masterclipid>
										<name>Eyecandy Vertical Video Frame 1</name>
										<enabled>TRUE</enabled>
										<duration>5700</duration>
										<rate>
											<timebase>30</timebase>
											<ntsc>TRUE</ntsc>
										</rate>
										<start>2226</start>
										<end>3048</end>
										<in>2285</in>
										<out>3107</out>
										<pproTicksIn>19366899552000</pproTicksIn>
										<pproTicksOut>26333897990400</pproTicksOut>
										<alphatype>straight</alphatype>
										<file id="file-188"/>
										<logginginfo>
											<description></description>
											<scene></scene>
											<shottake></shottake>
											<lognote></lognote>
											<good></good>
											<originalvideofilename></originalvideofilename>
											<originalaudiofilename></originalaudiofilename>
										</logginginfo>
										<colorinfo>
											<lut></lut>
											<lut1></lut1>
											<asc_sop></asc_sop>
											<asc_sat></asc_sat>
											<lut2></lut2>
										</colorinfo>
									</clipitem>
									<clipitem id="clipitem-533">
										<masterclipid>masterclip-190</masterclipid>
										<name>Eyecandy Vertical Video Frame 1</name>
										<enabled>TRUE</enabled>
										<duration>5700</duration>
										<rate>
											<timebase>30</timebase>
											<ntsc>TRUE</ntsc>
										</rate>
										<start>3048</start>
										<end>3443</end>
										<in>3107</in>
										<out>3502</out>
										<pproTicksIn>26333897990400</pproTicksIn>
										<pproTicksOut>29681786534400</pproTicksOut>
										<alphatype>straight</alphatype>
										<file id="file-188"/>
										<logginginfo>
											<description></description>
											<scene></scene>
											<shottake></shottake>
											<lognote></lognote>
											<good></good>
											<originalvideofilename></originalvideofilename>
											<originalaudiofilename></originalaudiofilename>
										</logginginfo>
										<colorinfo>
											<lut></lut>
											<lut1></lut1>
											<asc_sop></asc_sop>
											<asc_sat></asc_sat>
											<lut2></lut2>
										</colorinfo>
									</clipitem>
									<enabled>TRUE</enabled>
									<locked>FALSE</locked>
								</track>
								<track TL.SQTrackShy="0" TL.SQTrackExpandedHeight="25" TL.SQTrackExpanded="0" MZ.TrackTargeted="0">
									<enabled>TRUE</enabled>
									<locked>FALSE</locked>
								</track>
								<track TL.SQTrackShy="0" TL.SQTrackExpandedHeight="25" TL.SQTrackExpanded="0" MZ.TrackTargeted="0">
									<enabled>TRUE</enabled>
									<locked>FALSE</locked>
								</track>
								<track TL.SQTrackShy="0" TL.SQTrackExpandedHeight="25" TL.SQTrackExpanded="0" MZ.TrackTargeted="0">
									<enabled>TRUE</enabled>
									<locked>FALSE</locked>
								</track>
								<track TL.SQTrackShy="0" TL.SQTrackExpandedHeight="25" TL.SQTrackExpanded="0" MZ.TrackTargeted="0">
									<enabled>TRUE</enabled>
									<locked>FALSE</locked>
								</track>
								<track TL.SQTrackShy="0" TL.SQTrackExpandedHeight="25" TL.SQTrackExpanded="0" MZ.TrackTargeted="0">
									<enabled>TRUE</enabled>
									<locked>FALSE</locked>
								</track>
								<track TL.SQTrackShy="0" TL.SQTrackExpandedHeight="25" TL.SQTrackExpanded="0" MZ.TrackTargeted="0">
									<enabled>TRUE</enabled>
									<locked>FALSE</locked>
								</track>
								<track TL.SQTrackShy="0" TL.SQTrackExpandedHeight="25" TL.SQTrackExpanded="0" MZ.TrackTargeted="0">
									<enabled>TRUE</enabled>
									<locked>FALSE</locked>
								</track>
								<track TL.SQTrackShy="0" TL.SQTrackExpandedHeight="25" TL.SQTrackExpanded="0" MZ.TrackTargeted="0">
									<enabled>TRUE</enabled>
									<locked>FALSE</locked>
								</track>
							</video>
							<audio>
								<numOutputChannels>2</numOutputChannels>
								<format>
									<samplecharacteristics>
										<depth>16</depth>
										<samplerate>48000</samplerate>
									</samplecharacteristics>
								</format>
								<outputs>
									<group>
										<index>1</index>
										<numchannels>1</numchannels>
										<downmix>0</downmix>
										<channel>
											<index>1</index>
										</channel>
									</group>
									<group>
										<index>2</index>
										<numchannels>1</numchannels>
										<downmix>0</downmix>
										<channel>
											<index>2</index>
										</channel>
									</group>
								</outputs>
								<track TL.SQTrackAudioKeyframeStyle="0" TL.SQTrackShy="0" TL.SQTrackExpandedHeight="25" TL.SQTrackExpanded="0" MZ.TrackTargeted="1" PannerCurrentValue="0.5" PannerIsInverted="true" PannerStartKeyframe="-91445760000000000,0.5,0,0,0,0,0,0" PannerName="Balance" currentExplodedTrackIndex="0" totalExplodedTrackCount="2" premiereTrackType="Stereo">
									<clipitem id="clipitem-534" premiereChannelType="stereo">
										<masterclipid>masterclip-191</masterclipid>
										<name>ES_goldentouch (Instrumental Version) - dasloe.mp3</name>
										<enabled>TRUE</enabled>
										<duration>5448</duration>
										<rate>
											<timebase>30</timebase>
											<ntsc>TRUE</ntsc>
										</rate>
										<start>0</start>
										<end>3443</end>
										<in>0</in>
										<out>3443</out>
										<pproTicksIn>0</pproTicksIn>
										<pproTicksOut>29181722169600</pproTicksOut>
										<file id="file-189">
											<name>ES_goldentouch (Instrumental Version) - dasloe.mp3</name>
											<pathurl>file://localhost/Volumes/ATM%201/EYE%20CANDY/8%3a21%3a23/5_Assets/Music/ES_goldentouch%20(Instrumental%20Version)%20-%20dasloe.mp3</pathurl>
											<rate>
												<timebase>30</timebase>
												<ntsc>TRUE</ntsc>
											</rate>
											<duration>5448</duration>
											<timecode>
												<rate>
													<timebase>30</timebase>
													<ntsc>TRUE</ntsc>
												</rate>
												<string>00;00;00;00</string>
												<frame>0</frame>
												<displayformat>DF</displayformat>
											</timecode>
											<media>
												<audio>
													<samplecharacteristics>
														<depth>16</depth>
														<samplerate>48000</samplerate>
													</samplecharacteristics>
													<channelcount>2</channelcount>
												</audio>
											</media>
										</file>
										<sourcetrack>
											<mediatype>audio</mediatype>
											<trackindex>1</trackindex>
										</sourcetrack>
										<link>
											<linkclipref>clipitem-534</linkclipref>
											<mediatype>audio</mediatype>
											<trackindex>1</trackindex>
											<clipindex>1</clipindex>
											<groupindex>1</groupindex>
										</link>
										<link>
											<linkclipref>clipitem-535</linkclipref>
											<mediatype>audio</mediatype>
											<trackindex>2</trackindex>
											<clipindex>1</clipindex>
											<groupindex>1</groupindex>
										</link>
										<logginginfo>
											<description></description>
											<scene></scene>
											<shottake></shottake>
											<lognote></lognote>
											<good></good>
											<originalvideofilename></originalvideofilename>
											<originalaudiofilename></originalaudiofilename>
										</logginginfo>
										<colorinfo>
											<lut></lut>
											<lut1></lut1>
											<asc_sop></asc_sop>
											<asc_sat></asc_sat>
											<lut2></lut2>
										</colorinfo>
										<labels>
											<label2>Caribbean</label2>
										</labels>
									</clipitem>
									<enabled>TRUE</enabled>
									<locked>FALSE</locked>
									<filter>
										<effect>
											<name>Audio Levels</name>
											<effectid>audiolevels</effectid>
											<effectcategory>audiolevels</effectcategory>
											<effecttype>audiolevels</effecttype>
											<mediatype>audio</mediatype>
											<parameter authoringApp="PremierePro">
												<parameterid>level</parameterid>
												<name>Level</name>
												<valuemin>0</valuemin>
												<valuemax>3.98109</valuemax>
												<value>0.706272</value>
											</parameter>
										</effect>
									</filter>
									<outputchannelindex>1</outputchannelindex>
								</track>
								<track TL.SQTrackAudioKeyframeStyle="0" TL.SQTrackShy="0" TL.SQTrackExpandedHeight="25" TL.SQTrackExpanded="0" MZ.TrackTargeted="1" PannerCurrentValue="0.5" PannerIsInverted="true" PannerStartKeyframe="-91445760000000000,0.5,0,0,0,0,0,0" PannerName="Balance" currentExplodedTrackIndex="1" totalExplodedTrackCount="2" premiereTrackType="Stereo">
									<clipitem id="clipitem-535" premiereChannelType="stereo">
										<masterclipid>masterclip-191</masterclipid>
										<name>ES_goldentouch (Instrumental Version) - dasloe.mp3</name>
										<enabled>TRUE</enabled>
										<duration>5448</duration>
										<rate>
											<timebase>30</timebase>
											<ntsc>TRUE</ntsc>
										</rate>
										<start>0</start>
										<end>3443</end>
										<in>0</in>
										<out>3443</out>
										<pproTicksIn>0</pproTicksIn>
										<pproTicksOut>29181722169600</pproTicksOut>
										<file id="file-189"/>
										<sourcetrack>
											<mediatype>audio</mediatype>
											<trackindex>2</trackindex>
										</sourcetrack>
										<link>
											<linkclipref>clipitem-534</linkclipref>
											<mediatype>audio</mediatype>
											<trackindex>1</trackindex>
											<clipindex>1</clipindex>
											<groupindex>1</groupindex>
										</link>
										<link>
											<linkclipref>clipitem-535</linkclipref>
											<mediatype>audio</mediatype>
											<trackindex>2</trackindex>
											<clipindex>1</clipindex>
											<groupindex>1</groupindex>
										</link>
										<logginginfo>
											<description></description>
											<scene></scene>
											<shottake></shottake>
											<lognote></lognote>
											<good></good>
											<originalvideofilename></originalvideofilename>
											<originalaudiofilename></originalaudiofilename>
										</logginginfo>
										<colorinfo>
											<lut></lut>
											<lut1></lut1>
											<asc_sop></asc_sop>
											<asc_sat></asc_sat>
											<lut2></lut2>
										</colorinfo>
										<labels>
											<label2>Caribbean</label2>
										</labels>
									</clipitem>
									<enabled>TRUE</enabled>
									<locked>FALSE</locked>
									<filter>
										<effect>
											<name>Audio Levels</name>
											<effectid>audiolevels</effectid>
											<effectcategory>audiolevels</effectcategory>
											<effecttype>audiolevels</effecttype>
											<mediatype>audio</mediatype>
											<parameter authoringApp="PremierePro">
												<parameterid>level</parameterid>
												<name>Level</name>
												<valuemin>0</valuemin>
												<valuemax>3.98109</valuemax>
												<value>0.706272</value>
											</parameter>
										</effect>
									</filter>
									<outputchannelindex>2</outputchannelindex>
								</track>
								<track TL.SQTrackAudioKeyframeStyle="0" TL.SQTrackShy="0" TL.SQTrackExpandedHeight="25" TL.SQTrackExpanded="0" MZ.TrackTargeted="0" PannerCurrentValue="0.5" PannerIsInverted="true" PannerStartKeyframe="-91445760000000000,0.5,0,0,0,0,0,0" PannerName="Balance" currentExplodedTrackIndex="0" totalExplodedTrackCount="2" premiereTrackType="Stereo">
									<enabled>TRUE</enabled>
									<locked>FALSE</locked>
									<outputchannelindex>1</outputchannelindex>
								</track>
								<track TL.SQTrackAudioKeyframeStyle="0" TL.SQTrackShy="0" TL.SQTrackExpandedHeight="25" TL.SQTrackExpanded="0" MZ.TrackTargeted="0" PannerCurrentValue="0.5" PannerIsInverted="true" PannerStartKeyframe="-91445760000000000,0.5,0,0,0,0,0,0" PannerName="Balance" currentExplodedTrackIndex="1" totalExplodedTrackCount="2" premiereTrackType="Stereo">
									<enabled>TRUE</enabled>
									<locked>FALSE</locked>
									<outputchannelindex>2</outputchannelindex>
								</track>
								<track TL.SQTrackAudioKeyframeStyle="0" TL.SQTrackShy="0" TL.SQTrackExpandedHeight="25" TL.SQTrackExpanded="0" MZ.TrackTargeted="0" PannerCurrentValue="0.5" PannerIsInverted="true" PannerStartKeyframe="-91445760000000000,0.5,0,0,0,0,0,0" PannerName="Balance" currentExplodedTrackIndex="0" totalExplodedTrackCount="2" premiereTrackType="Stereo">
									<enabled>TRUE</enabled>
									<locked>FALSE</locked>
									<outputchannelindex>1</outputchannelindex>
								</track>
								<track TL.SQTrackAudioKeyframeStyle="0" TL.SQTrackShy="0" TL.SQTrackExpandedHeight="25" TL.SQTrackExpanded="0" MZ.TrackTargeted="0" PannerCurrentValue="0.5" PannerIsInverted="true" PannerStartKeyframe="-91445760000000000,0.5,0,0,0,0,0,0" PannerName="Balance" currentExplodedTrackIndex="1" totalExplodedTrackCount="2" premiereTrackType="Stereo">
									<enabled>TRUE</enabled>
									<locked>FALSE</locked>
									<outputchannelindex>2</outputchannelindex>
								</track>
								<track TL.SQTrackAudioKeyframeStyle="0" TL.SQTrackShy="0" TL.SQTrackExpandedHeight="25" TL.SQTrackExpanded="0" MZ.TrackTargeted="0" PannerCurrentValue="0.5" PannerIsInverted="true" PannerStartKeyframe="-91445760000000000,0.5,0,0,0,0,0,0" PannerName="Balance" currentExplodedTrackIndex="0" totalExplodedTrackCount="2" premiereTrackType="Stereo">
									<enabled>TRUE</enabled>
									<locked>FALSE</locked>
									<outputchannelindex>1</outputchannelindex>
								</track>
								<track TL.SQTrackAudioKeyframeStyle="0" TL.SQTrackShy="0" TL.SQTrackExpandedHeight="25" TL.SQTrackExpanded="0" MZ.TrackTargeted="0" PannerCurrentValue="0.5" PannerIsInverted="true" PannerStartKeyframe="-91445760000000000,0.5,0,0,0,0,0,0" PannerName="Balance" currentExplodedTrackIndex="1" totalExplodedTrackCount="2" premiereTrackType="Stereo">
									<enabled>TRUE</enabled>
									<locked>FALSE</locked>
									<outputchannelindex>2</outputchannelindex>
								</track>
								<track TL.SQTrackAudioKeyframeStyle="0" TL.SQTrackShy="0" TL.SQTrackExpandedHeight="25" TL.SQTrackExpanded="0" MZ.TrackTargeted="0" PannerCurrentValue="0.5" PannerIsInverted="true" PannerStartKeyframe="-91445760000000000,0.5,0,0,0,0,0,0" PannerName="Balance" currentExplodedTrackIndex="0" totalExplodedTrackCount="2" premiereTrackType="Stereo">
									<enabled>TRUE</enabled>
									<locked>FALSE</locked>
									<outputchannelindex>1</outputchannelindex>
								</track>
								<track TL.SQTrackAudioKeyframeStyle="0" TL.SQTrackShy="0" TL.SQTrackExpandedHeight="25" TL.SQTrackExpanded="0" MZ.TrackTargeted="0" PannerCurrentValue="0.5" PannerIsInverted="true" PannerStartKeyframe="-91445760000000000,0.5,0,0,0,0,0,0" PannerName="Balance" currentExplodedTrackIndex="1" totalExplodedTrackCount="2" premiereTrackType="Stereo">
									<enabled>TRUE</enabled>
									<locked>FALSE</locked>
									<outputchannelindex>2</outputchannelindex>
								</track>
								<track TL.SQTrackAudioKeyframeStyle="0" TL.SQTrackShy="0" TL.SQTrackExpandedHeight="25" TL.SQTrackExpanded="0" MZ.TrackTargeted="0" PannerCurrentValue="0.5" PannerIsInverted="true" PannerStartKeyframe="-91445760000000000,0.5,0,0,0,0,0,0" PannerName="Balance" currentExplodedTrackIndex="0" totalExplodedTrackCount="2" premiereTrackType="Stereo">
									<enabled>TRUE</enabled>
									<locked>FALSE</locked>
									<outputchannelindex>1</outputchannelindex>
								</track>
								<track TL.SQTrackAudioKeyframeStyle="0" TL.SQTrackShy="0" TL.SQTrackExpandedHeight="25" TL.SQTrackExpanded="0" MZ.TrackTargeted="0" PannerCurrentValue="0.5" PannerIsInverted="true" PannerStartKeyframe="-91445760000000000,0.5,0,0,0,0,0,0" PannerName="Balance" currentExplodedTrackIndex="1" totalExplodedTrackCount="2" premiereTrackType="Stereo">
									<enabled>TRUE</enabled>
									<locked>FALSE</locked>
									<outputchannelindex>2</outputchannelindex>
								</track>
								<track TL.SQTrackAudioKeyframeStyle="0" TL.SQTrackShy="0" TL.SQTrackExpandedHeight="25" TL.SQTrackExpanded="0" MZ.TrackTargeted="0" PannerCurrentValue="0.5" PannerIsInverted="true" PannerStartKeyframe="-91445760000000000,0.5,0,0,0,0,0,0" PannerName="Balance" currentExplodedTrackIndex="0" totalExplodedTrackCount="2" premiereTrackType="Stereo">
									<enabled>TRUE</enabled>
									<locked>FALSE</locked>
									<outputchannelindex>1</outputchannelindex>
								</track>
								<track TL.SQTrackAudioKeyframeStyle="0" TL.SQTrackShy="0" TL.SQTrackExpandedHeight="25" TL.SQTrackExpanded="0" MZ.TrackTargeted="0" PannerCurrentValue="0.5" PannerIsInverted="true" PannerStartKeyframe="-91445760000000000,0.5,0,0,0,0,0,0" PannerName="Balance" currentExplodedTrackIndex="1" totalExplodedTrackCount="2" premiereTrackType="Stereo">
									<enabled>TRUE</enabled>
									<locked>FALSE</locked>
									<outputchannelindex>2</outputchannelindex>
								</track>
								<track TL.SQTrackAudioKeyframeStyle="0" TL.SQTrackShy="0" TL.SQTrackExpandedHeight="25" TL.SQTrackExpanded="0" MZ.TrackTargeted="0" PannerCurrentValue="0.5" PannerIsInverted="true" PannerStartKeyframe="-91445760000000000,0.5,0,0,0,0,0,0" PannerName="Balance" currentExplodedTrackIndex="0" totalExplodedTrackCount="2" premiereTrackType="Stereo">
									<enabled>TRUE</enabled>
									<locked>FALSE</locked>
									<outputchannelindex>1</outputchannelindex>
								</track>
								<track TL.SQTrackAudioKeyframeStyle="0" TL.SQTrackShy="0" TL.SQTrackExpandedHeight="25" TL.SQTrackExpanded="0" MZ.TrackTargeted="0" PannerCurrentValue="0.5" PannerIsInverted="true" PannerStartKeyframe="-91445760000000000,0.5,0,0,0,0,0,0" PannerName="Balance" currentExplodedTrackIndex="1" totalExplodedTrackCount="2" premiereTrackType="Stereo">
									<enabled>TRUE</enabled>
									<locked>FALSE</locked>
									<outputchannelindex>2</outputchannelindex>
								</track>
								<track TL.SQTrackAudioKeyframeStyle="0" TL.SQTrackShy="0" TL.SQTrackExpandedHeight="25" TL.SQTrackExpanded="0" MZ.TrackTargeted="0" PannerCurrentValue="0.5" PannerIsInverted="true" PannerStartKeyframe="-91445760000000000,0.5,0,0,0,0,0,0" PannerName="Balance" currentExplodedTrackIndex="0" totalExplodedTrackCount="2" premiereTrackType="Stereo">
									<enabled>TRUE</enabled>
									<locked>FALSE</locked>
									<outputchannelindex>1</outputchannelindex>
								</track>
								<track TL.SQTrackAudioKeyframeStyle="0" TL.SQTrackShy="0" TL.SQTrackExpandedHeight="25" TL.SQTrackExpanded="0" MZ.TrackTargeted="0" PannerCurrentValue="0.5" PannerIsInverted="true" PannerStartKeyframe="-91445760000000000,0.5,0,0,0,0,0,0" PannerName="Balance" currentExplodedTrackIndex="1" totalExplodedTrackCount="2" premiereTrackType="Stereo">
									<enabled>TRUE</enabled>
									<locked>FALSE</locked>
									<outputchannelindex>2</outputchannelindex>
								</track>
								<track TL.SQTrackAudioKeyframeStyle="0" TL.SQTrackShy="0" TL.SQTrackExpandedHeight="25" TL.SQTrackExpanded="0" MZ.TrackTargeted="0" PannerCurrentValue="0.5" PannerIsInverted="true" PannerStartKeyframe="-91445760000000000,0.5,0,0,0,0,0,0" PannerName="Balance" currentExplodedTrackIndex="0" totalExplodedTrackCount="2" premiereTrackType="Stereo">
									<enabled>TRUE</enabled>
									<locked>FALSE</locked>
									<outputchannelindex>1</outputchannelindex>
								</track>
								<track TL.SQTrackAudioKeyframeStyle="0" TL.SQTrackShy="0" TL.SQTrackExpandedHeight="25" TL.SQTrackExpanded="0" MZ.TrackTargeted="0" PannerCurrentValue="0.5" PannerIsInverted="true" PannerStartKeyframe="-91445760000000000,0.5,0,0,0,0,0,0" PannerName="Balance" currentExplodedTrackIndex="1" totalExplodedTrackCount="2" premiereTrackType="Stereo">
									<enabled>TRUE</enabled>
									<locked>FALSE</locked>
									<outputchannelindex>2</outputchannelindex>
								</track>
							</audio>
						</media>
						<timecode>
							<rate>
								<timebase>30</timebase>
								<ntsc>TRUE</ntsc>
							</rate>
							<string>00;00;00;00</string>
							<frame>0</frame>
							<displayformat>DF</displayformat>
						</timecode>
						<labels>
							<label2>Forest</label2>
						</labels>
						<logginginfo>
							<description></description>
							<scene></scene>
							<shottake></shottake>
							<lognote></lognote>
							<good></good>
							<originalvideofilename></originalvideofilename>
							<originalaudiofilename></originalaudiofilename>
						</logginginfo>
					</sequence>
					<sequence id="sequence-17" TL.SQAudioVisibleBase="0" TL.SQVideoVisibleBase="0" TL.SQVisibleBaseTime="0" TL.SQAVDividerPosition="0.5" TL.SQHideShyTracks="0" TL.SQHeaderWidth="236" TL.SQDataTrackViewControlState="0" Monitor.ProgramZoomOut="20383979616000" Monitor.ProgramZoomIn="0" TL.SQTimePerPixel="0.098639312947363084" AM.TrackVScrollPosition="0" AM.TrackScrollPosition="0" MZ.EditLine="8390910528000" MZ.Sequence.PreviewFrameSizeHeight="1080" MZ.Sequence.PreviewFrameSizeWidth="1920" MZ.Sequence.AudioTimeDisplayFormat="200" MZ.Sequence.PreviewRenderingClassID="1061109567" MZ.Sequence.PreviewRenderingPresetCodec="1634755443" MZ.Sequence.PreviewRenderingPresetPath="EncoderPresets/SequencePreview/35d109db-457b-43c1-9452-9cb7be9f121c/QuickTime.epr" MZ.Sequence.PreviewUseMaxRenderQuality="false" MZ.Sequence.PreviewUseMaxBitDepth="false" MZ.Sequence.EditingModeGUID="35d109db-457b-43c1-9452-9cb7be9f121c" MZ.Sequence.VideoTimeDisplayFormat="102" MZ.WorkOutPoint="1262874412800" MZ.WorkInPoint="0" explodedTracks="true">
						<uuid>1dacf874-c386-4558-a88f-236f57799f40</uuid>
						<duration>2405</duration>
						<rate>
							<timebase>30</timebase>
							<ntsc>TRUE</ntsc>
						</rate>
						<name>FND_A Delicious Pear-ing_1.5</name>
						<media>
							<video>
								<format>
									<samplecharacteristics>
										<rate>
											<timebase>30</timebase>
											<ntsc>TRUE</ntsc>
										</rate>
										<codec>
											<name>Apple ProRes 422</name>
											<appspecificdata>
												<appname>Final Cut Pro</appname>
												<appmanufacturer>Apple Inc.</appmanufacturer>
												<appversion>7.0</appversion>
												<data>
													<qtcodec>
														<codecname>Apple ProRes 422</codecname>
														<codectypename>Apple ProRes 422</codectypename>
														<codectypecode>apcn</codectypecode>
														<codecvendorcode>appl</codecvendorcode>
														<spatialquality>1024</spatialquality>
														<temporalquality>0</temporalquality>
														<keyframerate>0</keyframerate>
														<datarate>0</datarate>
													</qtcodec>
												</data>
											</appspecificdata>
										</codec>
										<width>1920</width>
										<height>1080</height>
										<anamorphic>FALSE</anamorphic>
										<pixelaspectratio>square</pixelaspectratio>
										<fielddominance>none</fielddominance>
										<colordepth>24</colordepth>
									</samplecharacteristics>
								</format>
								<track TL.SQTrackShy="0" TL.SQTrackExpandedHeight="25" TL.SQTrackExpanded="0" MZ.TrackTargeted="1">
									<clipitem id="clipitem-536">
										<masterclipid>masterclip-129</masterclipid>
										<name>(succulentbite)_CseGtY4M0wN_IG.mp4</name>
										<enabled>TRUE</enabled>
										<duration>751</duration>
										<rate>
											<timebase>30</timebase>
											<ntsc>TRUE</ntsc>
										</rate>
										<start>0</start>
										<end>556</end>
										<in>91</in>
										<out>647</out>
										<pproTicksIn>771285715200</pproTicksIn>
										<pproTicksOut>5483756678400</pproTicksOut>
										<alphatype>none</alphatype>
										<file id="file-129"/>
										<logginginfo>
											<description></description>
											<scene></scene>
											<shottake></shottake>
											<lognote></lognote>
											<good></good>
											<originalvideofilename></originalvideofilename>
											<originalaudiofilename></originalaudiofilename>
										</logginginfo>
										<colorinfo>
											<lut></lut>
											<lut1></lut1>
											<asc_sop></asc_sop>
											<asc_sat></asc_sat>
											<lut2></lut2>
										</colorinfo>
										<labels>
											<label2>Violet</label2>
										</labels>
									</clipitem>
									<clipitem id="clipitem-537">
										<masterclipid>masterclip-129</masterclipid>
										<name>(succulentbite)_CseGtY4M0wN_IG.mp4</name>
										<enabled>TRUE</enabled>
										<duration>751</duration>
										<rate>
											<timebase>30</timebase>
											<ntsc>TRUE</ntsc>
										</rate>
										<start>556</start>
										<end>625</end>
										<in>682</in>
										<out>751</out>
										<pproTicksIn>5780405030400</pproTicksIn>
										<pproTicksOut>6365226067200</pproTicksOut>
										<alphatype>none</alphatype>
										<file id="file-129"/>
										<logginginfo>
											<description></description>
											<scene></scene>
											<shottake></shottake>
											<lognote></lognote>
											<good></good>
											<originalvideofilename></originalvideofilename>
											<originalaudiofilename></originalaudiofilename>
										</logginginfo>
										<colorinfo>
											<lut></lut>
											<lut1></lut1>
											<asc_sop></asc_sop>
											<asc_sat></asc_sat>
											<lut2></lut2>
										</colorinfo>
										<labels>
											<label2>Violet</label2>
										</labels>
									</clipitem>
									<clipitem id="clipitem-538">
										<masterclipid>masterclip-129</masterclipid>
										<name>(succulentbite)_CseGtY4M0wN_IG.mp4</name>
										<enabled>TRUE</enabled>
										<duration>751</duration>
										<rate>
											<timebase>30</timebase>
											<ntsc>TRUE</ntsc>
										</rate>
										<start>625</start>
										<end>713</end>
										<in>0</in>
										<out>88</out>
										<pproTicksIn>0</pproTicksIn>
										<pproTicksOut>745858713600</pproTicksOut>
										<alphatype>none</alphatype>
										<file id="file-129"/>
										<logginginfo>
											<description></description>
											<scene></scene>
											<shottake></shottake>
											<lognote></lognote>
											<good></good>
											<originalvideofilename></originalvideofilename>
											<originalaudiofilename></originalaudiofilename>
										</logginginfo>
										<colorinfo>
											<lut></lut>
											<lut1></lut1>
											<asc_sop></asc_sop>
											<asc_sat></asc_sat>
											<lut2></lut2>
										</colorinfo>
										<labels>
											<label2>Violet</label2>
										</labels>
									</clipitem>
									<clipitem id="clipitem-539">
										<masterclipid>masterclip-128</masterclipid>
										<name>(sophiabakessometimes)_7029348799369809157_TT.mp4</name>
										<enabled>TRUE</enabled>
										<duration>1375</duration>
										<rate>
											<timebase>30</timebase>
											<ntsc>TRUE</ntsc>
										</rate>
										<start>713</start>
										<end>1388</end>
										<in>700</in>
										<out>1375</out>
										<pproTicksIn>5932967040000</pproTicksIn>
										<pproTicksOut>11654042400000</pproTicksOut>
										<alphatype>none</alphatype>
										<file id="file-128"/>
										<logginginfo>
											<description></description>
											<scene></scene>
											<shottake></shottake>
											<lognote></lognote>
											<good></good>
											<originalvideofilename></originalvideofilename>
											<originalaudiofilename></originalaudiofilename>
										</logginginfo>
										<colorinfo>
											<lut></lut>
											<lut1></lut1>
											<asc_sop></asc_sop>
											<asc_sat></asc_sat>
											<lut2></lut2>
										</colorinfo>
										<labels>
											<label2>Caribbean</label2>
										</labels>
									</clipitem>
									<clipitem id="clipitem-540">
										<masterclipid>masterclip-130</masterclipid>
										<name>(thesugarhobby)_CjAjVX7gVsP_IG.mp4</name>
										<enabled>TRUE</enabled>
										<duration>596</duration>
										<rate>
											<timebase>30</timebase>
											<ntsc>TRUE</ntsc>
										</rate>
										<start>1388</start>
										<end>1808</end>
										<in>122</in>
										<out>542</out>
										<pproTicksIn>1034031398400</pproTicksIn>
										<pproTicksOut>4593811622400</pproTicksOut>
										<alphatype>none</alphatype>
										<file id="file-130"/>
										<logginginfo>
											<description></description>
											<scene></scene>
											<shottake></shottake>
											<lognote></lognote>
											<good></good>
											<originalvideofilename></originalvideofilename>
											<originalaudiofilename></originalaudiofilename>
										</logginginfo>
										<colorinfo>
											<lut></lut>
											<lut1></lut1>
											<asc_sop></asc_sop>
											<asc_sat></asc_sat>
											<lut2></lut2>
										</colorinfo>
										<labels>
											<label2>Lavender</label2>
										</labels>
									</clipitem>
									<clipitem id="clipitem-541">
										<masterclipid>masterclip-130</masterclipid>
										<name>(thesugarhobby)_CjAjVX7gVsP_IG.mp4</name>
										<enabled>TRUE</enabled>
										<duration>596</duration>
										<rate>
											<timebase>30</timebase>
											<ntsc>TRUE</ntsc>
										</rate>
										<start>1808</start>
										<end>1927</end>
										<in>0</in>
										<out>119</out>
										<pproTicksIn>0</pproTicksIn>
										<pproTicksOut>1008604396800</pproTicksOut>
										<alphatype>none</alphatype>
										<file id="file-130"/>
										<logginginfo>
											<description></description>
											<scene></scene>
											<shottake></shottake>
											<lognote></lognote>
											<good></good>
											<originalvideofilename></originalvideofilename>
											<originalaudiofilename></originalaudiofilename>
										</logginginfo>
										<colorinfo>
											<lut></lut>
											<lut1></lut1>
											<asc_sop></asc_sop>
											<asc_sat></asc_sat>
											<lut2></lut2>
										</colorinfo>
										<labels>
											<label2>Lavender</label2>
										</labels>
									</clipitem>
									<clipitem id="clipitem-542">
										<masterclipid>masterclip-130</masterclipid>
										<name>(thesugarhobby)_CjAjVX7gVsP_IG.mp4</name>
										<enabled>TRUE</enabled>
										<duration>596</duration>
										<rate>
											<timebase>30</timebase>
											<ntsc>TRUE</ntsc>
										</rate>
										<start>1927</start>
										<end>1976</end>
										<in>547</in>
										<out>596</out>
										<pproTicksIn>4636189958400</pproTicksIn>
										<pproTicksOut>5051497651200</pproTicksOut>
										<alphatype>none</alphatype>
										<file id="file-130"/>
										<logginginfo>
											<description></description>
											<scene></scene>
											<shottake></shottake>
											<lognote></lognote>
											<good></good>
											<originalvideofilename></originalvideofilename>
											<originalaudiofilename></originalaudiofilename>
										</logginginfo>
										<colorinfo>
											<lut></lut>
											<lut1></lut1>
											<asc_sop></asc_sop>
											<asc_sat></asc_sat>
											<lut2></lut2>
										</colorinfo>
										<labels>
											<label2>Lavender</label2>
										</labels>
									</clipitem>
									<clipitem id="clipitem-543">
										<masterclipid>masterclip-127</masterclipid>
										<name>(aquickspoonful)_CruEk8PO7Pu_IG.mp4</name>
										<enabled>TRUE</enabled>
										<duration>1363</duration>
										<rate>
											<timebase>30</timebase>
											<ntsc>TRUE</ntsc>
										</rate>
										<start>1976</start>
										<end>2169</end>
										<in>0</in>
										<out>193</out>
										<pproTicksIn>0</pproTicksIn>
										<pproTicksOut>1635803769600</pproTicksOut>
										<alphatype>none</alphatype>
										<file id="file-127"/>
										<logginginfo>
											<description></description>
											<scene></scene>
											<shottake></shottake>
											<lognote></lognote>
											<good></good>
											<originalvideofilename></originalvideofilename>
											<originalaudiofilename></originalaudiofilename>
										</logginginfo>
										<colorinfo>
											<lut></lut>
											<lut1></lut1>
											<asc_sop></asc_sop>
											<asc_sat></asc_sat>
											<lut2></lut2>
										</colorinfo>
									</clipitem>
									<clipitem id="clipitem-544">
										<masterclipid>masterclip-127</masterclipid>
										<name>(aquickspoonful)_CruEk8PO7Pu_IG.mp4</name>
										<enabled>TRUE</enabled>
										<duration>1363</duration>
										<rate>
											<timebase>30</timebase>
											<ntsc>TRUE</ntsc>
										</rate>
										<start>2169</start>
										<end>2210</end>
										<in>194</in>
										<out>235</out>
										<pproTicksIn>1644279436800</pproTicksIn>
										<pproTicksOut>1991781792000</pproTicksOut>
										<alphatype>none</alphatype>
										<file id="file-127"/>
										<logginginfo>
											<description></description>
											<scene></scene>
											<shottake></shottake>
											<lognote></lognote>
											<good></good>
											<originalvideofilename></originalvideofilename>
											<originalaudiofilename></originalaudiofilename>
										</logginginfo>
										<colorinfo>
											<lut></lut>
											<lut1></lut1>
											<asc_sop></asc_sop>
											<asc_sat></asc_sat>
											<lut2></lut2>
										</colorinfo>
									</clipitem>
									<clipitem id="clipitem-545">
										<masterclipid>masterclip-127</masterclipid>
										<name>(aquickspoonful)_CruEk8PO7Pu_IG.mp4</name>
										<enabled>TRUE</enabled>
										<duration>1363</duration>
										<rate>
											<timebase>30</timebase>
											<ntsc>TRUE</ntsc>
										</rate>
										<start>2210</start>
										<end>2243</end>
										<in>292</in>
										<out>325</out>
										<pproTicksIn>2474894822400</pproTicksIn>
										<pproTicksOut>2754591840000</pproTicksOut>
										<alphatype>none</alphatype>
										<file id="file-127"/>
										<logginginfo>
											<description></description>
											<scene></scene>
											<shottake></shottake>
											<lognote></lognote>
											<good></good>
											<originalvideofilename></originalvideofilename>
											<originalaudiofilename></originalaudiofilename>
										</logginginfo>
										<colorinfo>
											<lut></lut>
											<lut1></lut1>
											<asc_sop></asc_sop>
											<asc_sat></asc_sat>
											<lut2></lut2>
										</colorinfo>
									</clipitem>
									<clipitem id="clipitem-546">
										<masterclipid>masterclip-127</masterclipid>
										<name>(aquickspoonful)_CruEk8PO7Pu_IG.mp4</name>
										<enabled>TRUE</enabled>
										<duration>1363</duration>
										<rate>
											<timebase>30</timebase>
											<ntsc>TRUE</ntsc>
										</rate>
										<start>2243</start>
										<end>2277</end>
										<in>403</in>
										<out>437</out>
										<pproTicksIn>3415693881600</pproTicksIn>
										<pproTicksOut>3703866566400</pproTicksOut>
										<alphatype>none</alphatype>
										<file id="file-127"/>
										<logginginfo>
											<description></description>
											<scene></scene>
											<shottake></shottake>
											<lognote></lognote>
											<good></good>
											<originalvideofilename></originalvideofilename>
											<originalaudiofilename></originalaudiofilename>
										</logginginfo>
										<colorinfo>
											<lut></lut>
											<lut1></lut1>
											<asc_sop></asc_sop>
											<asc_sat></asc_sat>
											<lut2></lut2>
										</colorinfo>
									</clipitem>
									<clipitem id="clipitem-547">
										<masterclipid>masterclip-127</masterclipid>
										<name>(aquickspoonful)_CruEk8PO7Pu_IG.mp4</name>
										<enabled>TRUE</enabled>
										<duration>1363</duration>
										<rate>
											<timebase>30</timebase>
											<ntsc>TRUE</ntsc>
										</rate>
										<start>2277</start>
										<end>2307</end>
										<in>544</in>
										<out>574</out>
										<pproTicksIn>4610762956800</pproTicksIn>
										<pproTicksOut>4865032972800</pproTicksOut>
										<alphatype>none</alphatype>
										<file id="file-127"/>
										<logginginfo>
											<description></description>
											<scene></scene>
											<shottake></shottake>
											<lognote></lognote>
											<good></good>
											<originalvideofilename></originalvideofilename>
											<originalaudiofilename></originalaudiofilename>
										</logginginfo>
										<colorinfo>
											<lut></lut>
											<lut1></lut1>
											<asc_sop></asc_sop>
											<asc_sat></asc_sat>
											<lut2></lut2>
										</colorinfo>
									</clipitem>
									<clipitem id="clipitem-548">
										<masterclipid>masterclip-127</masterclipid>
										<name>(aquickspoonful)_CruEk8PO7Pu_IG.mp4</name>
										<enabled>TRUE</enabled>
										<duration>1363</duration>
										<rate>
											<timebase>30</timebase>
											<ntsc>TRUE</ntsc>
										</rate>
										<start>2307</start>
										<end>2405</end>
										<in>707</in>
										<out>805</out>
										<pproTicksIn>5992296710400</pproTicksIn>
										<pproTicksOut>6822912096000</pproTicksOut>
										<alphatype>none</alphatype>
										<file id="file-127"/>
										<logginginfo>
											<description></description>
											<scene></scene>
											<shottake></shottake>
											<lognote></lognote>
											<good></good>
											<originalvideofilename></originalvideofilename>
											<originalaudiofilename></originalaudiofilename>
										</logginginfo>
										<colorinfo>
											<lut></lut>
											<lut1></lut1>
											<asc_sop></asc_sop>
											<asc_sat></asc_sat>
											<lut2></lut2>
										</colorinfo>
									</clipitem>
									<enabled>TRUE</enabled>
									<locked>FALSE</locked>
								</track>
								<track TL.SQTrackShy="0" TL.SQTrackExpandedHeight="25" TL.SQTrackExpanded="0" MZ.TrackTargeted="0">
									<clipitem id="clipitem-549">
										<masterclipid>masterclip-192</masterclipid>
										<name># Eyecandy Vertical Video Frame 4</name>
										<enabled>TRUE</enabled>
										<duration>5700</duration>
										<rate>
											<timebase>30</timebase>
											<ntsc>TRUE</ntsc>
										</rate>
										<start>0</start>
										<end>713</end>
										<in>86</in>
										<out>799</out>
										<pproTicksIn>728907379200</pproTicksIn>
										<pproTicksOut>6772058092800</pproTicksOut>
										<alphatype>straight</alphatype>
										<pixelaspectratio>square</pixelaspectratio>
										<anamorphic>FALSE</anamorphic>
										<file id="file-190">
											<name># Eyecandy Vertical Video Frame 4/# Eyecandy Vertical Video Frame 4.aegraphic</name>
											<pathurl>file://localhost/Volumes/ATM%201/EYE%20CANDY/8%3a21%3a23/4_Project%20Files/Motion%20Graphics%20Template%20Media/b13c644f-76b5-4292-babf-a96103efe14b/#%20Eyecandy%20Vertical%20Video%20Frame%204.aegraphic</pathurl>
											<rate>
												<timebase>24</timebase>
												<ntsc>TRUE</ntsc>
											</rate>
											<duration>4560</duration>
											<timecode>
												<rate>
													<timebase>24</timebase>
													<ntsc>TRUE</ntsc>
												</rate>
												<string>00:00:00:00</string>
												<frame>0</frame>
												<displayformat>NDF</displayformat>
											</timecode>
											<media>
												<video>
													<samplecharacteristics>
														<rate>
															<timebase>24</timebase>
															<ntsc>TRUE</ntsc>
														</rate>
														<width>1920</width>
														<height>1080</height>
														<anamorphic>FALSE</anamorphic>
														<pixelaspectratio>square</pixelaspectratio>
														<fielddominance>lower</fielddominance>
													</samplecharacteristics>
												</video>
											</media>
										</file>
										<logginginfo>
											<description></description>
											<scene></scene>
											<shottake></shottake>
											<lognote></lognote>
											<good></good>
											<originalvideofilename></originalvideofilename>
											<originalaudiofilename></originalaudiofilename>
										</logginginfo>
										<colorinfo>
											<lut></lut>
											<lut1></lut1>
											<asc_sop></asc_sop>
											<asc_sat></asc_sat>
											<lut2></lut2>
										</colorinfo>
									</clipitem>
									<clipitem id="clipitem-550">
										<masterclipid>masterclip-192</masterclipid>
										<name># Eyecandy Vertical Video Frame 4</name>
										<enabled>TRUE</enabled>
										<duration>5700</duration>
										<rate>
											<timebase>30</timebase>
											<ntsc>TRUE</ntsc>
										</rate>
										<start>713</start>
										<end>1388</end>
										<in>799</in>
										<out>1474</out>
										<pproTicksIn>6772058092800</pproTicksIn>
										<pproTicksOut>12493133452800</pproTicksOut>
										<alphatype>straight</alphatype>
										<file id="file-190"/>
										<logginginfo>
											<description></description>
											<scene></scene>
											<shottake></shottake>
											<lognote></lognote>
											<good></good>
											<originalvideofilename></originalvideofilename>
											<originalaudiofilename></originalaudiofilename>
										</logginginfo>
										<colorinfo>
											<lut></lut>
											<lut1></lut1>
											<asc_sop></asc_sop>
											<asc_sat></asc_sat>
											<lut2></lut2>
										</colorinfo>
									</clipitem>
									<clipitem id="clipitem-551">
										<masterclipid>masterclip-192</masterclipid>
										<name># Eyecandy Vertical Video Frame 4</name>
										<enabled>TRUE</enabled>
										<duration>5700</duration>
										<rate>
											<timebase>30</timebase>
											<ntsc>TRUE</ntsc>
										</rate>
										<start>1388</start>
										<end>1976</end>
										<in>1474</in>
										<out>2062</out>
										<pproTicksIn>12493133452800</pproTicksIn>
										<pproTicksOut>17476825766400</pproTicksOut>
										<alphatype>straight</alphatype>
										<file id="file-190"/>
										<logginginfo>
											<description></description>
											<scene></scene>
											<shottake></shottake>
											<lognote></lognote>
											<good></good>
											<originalvideofilename></originalvideofilename>
											<originalaudiofilename></originalaudiofilename>
										</logginginfo>
										<colorinfo>
											<lut></lut>
											<lut1></lut1>
											<asc_sop></asc_sop>
											<asc_sat></asc_sat>
											<lut2></lut2>
										</colorinfo>
									</clipitem>
									<clipitem id="clipitem-552">
										<masterclipid>masterclip-192</masterclipid>
										<name># Eyecandy Vertical Video Frame 4</name>
										<enabled>TRUE</enabled>
										<duration>5700</duration>
										<rate>
											<timebase>30</timebase>
											<ntsc>TRUE</ntsc>
										</rate>
										<start>1976</start>
										<end>2405</end>
										<in>2062</in>
										<out>2491</out>
										<pproTicksIn>17476825766400</pproTicksIn>
										<pproTicksOut>21112886995200</pproTicksOut>
										<alphatype>straight</alphatype>
										<file id="file-190"/>
										<logginginfo>
											<description></description>
											<scene></scene>
											<shottake></shottake>
											<lognote></lognote>
											<good></good>
											<originalvideofilename></originalvideofilename>
											<originalaudiofilename></originalaudiofilename>
										</logginginfo>
										<colorinfo>
											<lut></lut>
											<lut1></lut1>
											<asc_sop></asc_sop>
											<asc_sat></asc_sat>
											<lut2></lut2>
										</colorinfo>
									</clipitem>
									<enabled>TRUE</enabled>
									<locked>FALSE</locked>
								</track>
								<track TL.SQTrackShy="0" TL.SQTrackExpandedHeight="25" TL.SQTrackExpanded="0" MZ.TrackTargeted="0">
									<enabled>TRUE</enabled>
									<locked>FALSE</locked>
								</track>
								<track TL.SQTrackShy="0" TL.SQTrackExpandedHeight="25" TL.SQTrackExpanded="0" MZ.TrackTargeted="0">
									<enabled>TRUE</enabled>
									<locked>FALSE</locked>
								</track>
								<track TL.SQTrackShy="0" TL.SQTrackExpandedHeight="25" TL.SQTrackExpanded="0" MZ.TrackTargeted="0">
									<enabled>TRUE</enabled>
									<locked>FALSE</locked>
								</track>
								<track TL.SQTrackShy="0" TL.SQTrackExpandedHeight="25" TL.SQTrackExpanded="0" MZ.TrackTargeted="0">
									<enabled>TRUE</enabled>
									<locked>FALSE</locked>
								</track>
								<track TL.SQTrackShy="0" TL.SQTrackExpandedHeight="25" TL.SQTrackExpanded="0" MZ.TrackTargeted="0">
									<enabled>TRUE</enabled>
									<locked>FALSE</locked>
								</track>
								<track TL.SQTrackShy="0" TL.SQTrackExpandedHeight="25" TL.SQTrackExpanded="0" MZ.TrackTargeted="0">
									<enabled>TRUE</enabled>
									<locked>FALSE</locked>
								</track>
								<track TL.SQTrackShy="0" TL.SQTrackExpandedHeight="25" TL.SQTrackExpanded="0" MZ.TrackTargeted="0">
									<enabled>TRUE</enabled>
									<locked>FALSE</locked>
								</track>
								<track TL.SQTrackShy="0" TL.SQTrackExpandedHeight="25" TL.SQTrackExpanded="0" MZ.TrackTargeted="0">
									<enabled>TRUE</enabled>
									<locked>FALSE</locked>
								</track>
							</video>
							<audio>
								<numOutputChannels>2</numOutputChannels>
								<format>
									<samplecharacteristics>
										<depth>16</depth>
										<samplerate>48000</samplerate>
									</samplecharacteristics>
								</format>
								<outputs>
									<group>
										<index>1</index>
										<numchannels>1</numchannels>
										<downmix>0</downmix>
										<channel>
											<index>1</index>
										</channel>
									</group>
									<group>
										<index>2</index>
										<numchannels>1</numchannels>
										<downmix>0</downmix>
										<channel>
											<index>2</index>
										</channel>
									</group>
								</outputs>
								<track TL.SQTrackAudioKeyframeStyle="0" TL.SQTrackShy="0" TL.SQTrackExpandedHeight="25" TL.SQTrackExpanded="0" MZ.TrackTargeted="1" PannerCurrentValue="0.5" PannerIsInverted="true" PannerStartKeyframe="-91445760000000000,0.5,0,0,0,0,0,0" PannerName="Balance" currentExplodedTrackIndex="0" totalExplodedTrackCount="2" premiereTrackType="Stereo">
									<clipitem id="clipitem-553" premiereChannelType="stereo">
										<masterclipid>masterclip-193</masterclipid>
										<name>ES_Lose Control Now - FLYIN.mp3</name>
										<enabled>TRUE</enabled>
										<duration>6185</duration>
										<rate>
											<timebase>30</timebase>
											<ntsc>TRUE</ntsc>
										</rate>
										<start>0</start>
										<end>2405</end>
										<in>0</in>
										<out>2405</out>
										<pproTicksIn>0</pproTicksIn>
										<pproTicksOut>20383979616000</pproTicksOut>
										<file id="file-191">
											<name>ES_Lose Control Now - FLYIN.mp3</name>
											<pathurl>file://localhost/Volumes/ATM%201/EYE%20CANDY/8%3a21%3a23/5_Assets/Music/ES_Lose%20Control%20Now%20-%20FLYIN.mp3</pathurl>
											<rate>
												<timebase>30</timebase>
												<ntsc>TRUE</ntsc>
											</rate>
											<duration>6185</duration>
											<timecode>
												<rate>
													<timebase>30</timebase>
													<ntsc>TRUE</ntsc>
												</rate>
												<string>00;00;00;00</string>
												<frame>0</frame>
												<displayformat>DF</displayformat>
											</timecode>
											<media>
												<audio>
													<samplecharacteristics>
														<depth>16</depth>
														<samplerate>48000</samplerate>
													</samplecharacteristics>
													<channelcount>2</channelcount>
												</audio>
											</media>
										</file>
										<sourcetrack>
											<mediatype>audio</mediatype>
											<trackindex>1</trackindex>
										</sourcetrack>
										<link>
											<linkclipref>clipitem-553</linkclipref>
											<mediatype>audio</mediatype>
											<trackindex>1</trackindex>
											<clipindex>1</clipindex>
											<groupindex>1</groupindex>
										</link>
										<link>
											<linkclipref>clipitem-554</linkclipref>
											<mediatype>audio</mediatype>
											<trackindex>2</trackindex>
											<clipindex>1</clipindex>
											<groupindex>1</groupindex>
										</link>
										<logginginfo>
											<description></description>
											<scene></scene>
											<shottake></shottake>
											<lognote></lognote>
											<good></good>
											<originalvideofilename></originalvideofilename>
											<originalaudiofilename></originalaudiofilename>
										</logginginfo>
										<colorinfo>
											<lut></lut>
											<lut1></lut1>
											<asc_sop></asc_sop>
											<asc_sat></asc_sat>
											<lut2></lut2>
										</colorinfo>
										<labels>
											<label2>Caribbean</label2>
										</labels>
									</clipitem>
									<enabled>TRUE</enabled>
									<locked>FALSE</locked>
									<filter>
										<effect>
											<name>Audio Levels</name>
											<effectid>audiolevels</effectid>
											<effectcategory>audiolevels</effectcategory>
											<effecttype>audiolevels</effecttype>
											<mediatype>audio</mediatype>
											<parameter authoringApp="PremierePro">
												<parameterid>level</parameterid>
												<name>Level</name>
												<valuemin>0</valuemin>
												<valuemax>3.98109</valuemax>
												<value>0.706272</value>
											</parameter>
										</effect>
									</filter>
									<outputchannelindex>1</outputchannelindex>
								</track>
								<track TL.SQTrackAudioKeyframeStyle="0" TL.SQTrackShy="0" TL.SQTrackExpandedHeight="25" TL.SQTrackExpanded="0" MZ.TrackTargeted="1" PannerCurrentValue="0.5" PannerIsInverted="true" PannerStartKeyframe="-91445760000000000,0.5,0,0,0,0,0,0" PannerName="Balance" currentExplodedTrackIndex="1" totalExplodedTrackCount="2" premiereTrackType="Stereo">
									<clipitem id="clipitem-554" premiereChannelType="stereo">
										<masterclipid>masterclip-193</masterclipid>
										<name>ES_Lose Control Now - FLYIN.mp3</name>
										<enabled>TRUE</enabled>
										<duration>6185</duration>
										<rate>
											<timebase>30</timebase>
											<ntsc>TRUE</ntsc>
										</rate>
										<start>0</start>
										<end>2405</end>
										<in>0</in>
										<out>2405</out>
										<pproTicksIn>0</pproTicksIn>
										<pproTicksOut>20383979616000</pproTicksOut>
										<file id="file-191"/>
										<sourcetrack>
											<mediatype>audio</mediatype>
											<trackindex>2</trackindex>
										</sourcetrack>
										<link>
											<linkclipref>clipitem-553</linkclipref>
											<mediatype>audio</mediatype>
											<trackindex>1</trackindex>
											<clipindex>1</clipindex>
											<groupindex>1</groupindex>
										</link>
										<link>
											<linkclipref>clipitem-554</linkclipref>
											<mediatype>audio</mediatype>
											<trackindex>2</trackindex>
											<clipindex>1</clipindex>
											<groupindex>1</groupindex>
										</link>
										<logginginfo>
											<description></description>
											<scene></scene>
											<shottake></shottake>
											<lognote></lognote>
											<good></good>
											<originalvideofilename></originalvideofilename>
											<originalaudiofilename></originalaudiofilename>
										</logginginfo>
										<colorinfo>
											<lut></lut>
											<lut1></lut1>
											<asc_sop></asc_sop>
											<asc_sat></asc_sat>
											<lut2></lut2>
										</colorinfo>
										<labels>
											<label2>Caribbean</label2>
										</labels>
									</clipitem>
									<enabled>TRUE</enabled>
									<locked>FALSE</locked>
									<filter>
										<effect>
											<name>Audio Levels</name>
											<effectid>audiolevels</effectid>
											<effectcategory>audiolevels</effectcategory>
											<effecttype>audiolevels</effecttype>
											<mediatype>audio</mediatype>
											<parameter authoringApp="PremierePro">
												<parameterid>level</parameterid>
												<name>Level</name>
												<valuemin>0</valuemin>
												<valuemax>3.98109</valuemax>
												<value>0.706272</value>
											</parameter>
										</effect>
									</filter>
									<outputchannelindex>2</outputchannelindex>
								</track>
								<track TL.SQTrackAudioKeyframeStyle="0" TL.SQTrackShy="0" TL.SQTrackExpandedHeight="25" TL.SQTrackExpanded="0" MZ.TrackTargeted="0" PannerCurrentValue="0.5" PannerIsInverted="true" PannerStartKeyframe="-91445760000000000,0.5,0,0,0,0,0,0" PannerName="Balance" currentExplodedTrackIndex="0" totalExplodedTrackCount="2" premiereTrackType="Stereo">
									<enabled>TRUE</enabled>
									<locked>FALSE</locked>
									<outputchannelindex>1</outputchannelindex>
								</track>
								<track TL.SQTrackAudioKeyframeStyle="0" TL.SQTrackShy="0" TL.SQTrackExpandedHeight="25" TL.SQTrackExpanded="0" MZ.TrackTargeted="0" PannerCurrentValue="0.5" PannerIsInverted="true" PannerStartKeyframe="-91445760000000000,0.5,0,0,0,0,0,0" PannerName="Balance" currentExplodedTrackIndex="1" totalExplodedTrackCount="2" premiereTrackType="Stereo">
									<enabled>TRUE</enabled>
									<locked>FALSE</locked>
									<outputchannelindex>2</outputchannelindex>
								</track>
								<track TL.SQTrackAudioKeyframeStyle="0" TL.SQTrackShy="0" TL.SQTrackExpandedHeight="25" TL.SQTrackExpanded="0" MZ.TrackTargeted="0" PannerCurrentValue="0.5" PannerIsInverted="true" PannerStartKeyframe="-91445760000000000,0.5,0,0,0,0,0,0" PannerName="Balance" currentExplodedTrackIndex="0" totalExplodedTrackCount="2" premiereTrackType="Stereo">
									<enabled>TRUE</enabled>
									<locked>FALSE</locked>
									<outputchannelindex>1</outputchannelindex>
								</track>
								<track TL.SQTrackAudioKeyframeStyle="0" TL.SQTrackShy="0" TL.SQTrackExpandedHeight="25" TL.SQTrackExpanded="0" MZ.TrackTargeted="0" PannerCurrentValue="0.5" PannerIsInverted="true" PannerStartKeyframe="-91445760000000000,0.5,0,0,0,0,0,0" PannerName="Balance" currentExplodedTrackIndex="1" totalExplodedTrackCount="2" premiereTrackType="Stereo">
									<enabled>TRUE</enabled>
									<locked>FALSE</locked>
									<outputchannelindex>2</outputchannelindex>
								</track>
								<track TL.SQTrackAudioKeyframeStyle="0" TL.SQTrackShy="0" TL.SQTrackExpandedHeight="25" TL.SQTrackExpanded="0" MZ.TrackTargeted="0" PannerCurrentValue="0.5" PannerIsInverted="true" PannerStartKeyframe="-91445760000000000,0.5,0,0,0,0,0,0" PannerName="Balance" currentExplodedTrackIndex="0" totalExplodedTrackCount="2" premiereTrackType="Stereo">
									<enabled>TRUE</enabled>
									<locked>FALSE</locked>
									<outputchannelindex>1</outputchannelindex>
								</track>
								<track TL.SQTrackAudioKeyframeStyle="0" TL.SQTrackShy="0" TL.SQTrackExpandedHeight="25" TL.SQTrackExpanded="0" MZ.TrackTargeted="0" PannerCurrentValue="0.5" PannerIsInverted="true" PannerStartKeyframe="-91445760000000000,0.5,0,0,0,0,0,0" PannerName="Balance" currentExplodedTrackIndex="1" totalExplodedTrackCount="2" premiereTrackType="Stereo">
									<enabled>TRUE</enabled>
									<locked>FALSE</locked>
									<outputchannelindex>2</outputchannelindex>
								</track>
								<track TL.SQTrackAudioKeyframeStyle="0" TL.SQTrackShy="0" TL.SQTrackExpandedHeight="25" TL.SQTrackExpanded="0" MZ.TrackTargeted="0" PannerCurrentValue="0.5" PannerIsInverted="true" PannerStartKeyframe="-91445760000000000,0.5,0,0,0,0,0,0" PannerName="Balance" currentExplodedTrackIndex="0" totalExplodedTrackCount="2" premiereTrackType="Stereo">
									<enabled>TRUE</enabled>
									<locked>FALSE</locked>
									<outputchannelindex>1</outputchannelindex>
								</track>
								<track TL.SQTrackAudioKeyframeStyle="0" TL.SQTrackShy="0" TL.SQTrackExpandedHeight="25" TL.SQTrackExpanded="0" MZ.TrackTargeted="0" PannerCurrentValue="0.5" PannerIsInverted="true" PannerStartKeyframe="-91445760000000000,0.5,0,0,0,0,0,0" PannerName="Balance" currentExplodedTrackIndex="1" totalExplodedTrackCount="2" premiereTrackType="Stereo">
									<enabled>TRUE</enabled>
									<locked>FALSE</locked>
									<outputchannelindex>2</outputchannelindex>
								</track>
								<track TL.SQTrackAudioKeyframeStyle="0" TL.SQTrackShy="0" TL.SQTrackExpandedHeight="25" TL.SQTrackExpanded="0" MZ.TrackTargeted="0" PannerCurrentValue="0.5" PannerIsInverted="true" PannerStartKeyframe="-91445760000000000,0.5,0,0,0,0,0,0" PannerName="Balance" currentExplodedTrackIndex="0" totalExplodedTrackCount="2" premiereTrackType="Stereo">
									<enabled>TRUE</enabled>
									<locked>FALSE</locked>
									<outputchannelindex>1</outputchannelindex>
								</track>
								<track TL.SQTrackAudioKeyframeStyle="0" TL.SQTrackShy="0" TL.SQTrackExpandedHeight="25" TL.SQTrackExpanded="0" MZ.TrackTargeted="0" PannerCurrentValue="0.5" PannerIsInverted="true" PannerStartKeyframe="-91445760000000000,0.5,0,0,0,0,0,0" PannerName="Balance" currentExplodedTrackIndex="1" totalExplodedTrackCount="2" premiereTrackType="Stereo">
									<enabled>TRUE</enabled>
									<locked>FALSE</locked>
									<outputchannelindex>2</outputchannelindex>
								</track>
								<track TL.SQTrackAudioKeyframeStyle="0" TL.SQTrackShy="0" TL.SQTrackExpandedHeight="25" TL.SQTrackExpanded="0" MZ.TrackTargeted="0" PannerCurrentValue="0.5" PannerIsInverted="true" PannerStartKeyframe="-91445760000000000,0.5,0,0,0,0,0,0" PannerName="Balance" currentExplodedTrackIndex="0" totalExplodedTrackCount="2" premiereTrackType="Stereo">
									<enabled>TRUE</enabled>
									<locked>FALSE</locked>
									<outputchannelindex>1</outputchannelindex>
								</track>
								<track TL.SQTrackAudioKeyframeStyle="0" TL.SQTrackShy="0" TL.SQTrackExpandedHeight="25" TL.SQTrackExpanded="0" MZ.TrackTargeted="0" PannerCurrentValue="0.5" PannerIsInverted="true" PannerStartKeyframe="-91445760000000000,0.5,0,0,0,0,0,0" PannerName="Balance" currentExplodedTrackIndex="1" totalExplodedTrackCount="2" premiereTrackType="Stereo">
									<enabled>TRUE</enabled>
									<locked>FALSE</locked>
									<outputchannelindex>2</outputchannelindex>
								</track>
								<track TL.SQTrackAudioKeyframeStyle="0" TL.SQTrackShy="0" TL.SQTrackExpandedHeight="25" TL.SQTrackExpanded="0" MZ.TrackTargeted="0" PannerCurrentValue="0.5" PannerIsInverted="true" PannerStartKeyframe="-91445760000000000,0.5,0,0,0,0,0,0" PannerName="Balance" currentExplodedTrackIndex="0" totalExplodedTrackCount="2" premiereTrackType="Stereo">
									<enabled>TRUE</enabled>
									<locked>FALSE</locked>
									<outputchannelindex>1</outputchannelindex>
								</track>
								<track TL.SQTrackAudioKeyframeStyle="0" TL.SQTrackShy="0" TL.SQTrackExpandedHeight="25" TL.SQTrackExpanded="0" MZ.TrackTargeted="0" PannerCurrentValue="0.5" PannerIsInverted="true" PannerStartKeyframe="-91445760000000000,0.5,0,0,0,0,0,0" PannerName="Balance" currentExplodedTrackIndex="1" totalExplodedTrackCount="2" premiereTrackType="Stereo">
									<enabled>TRUE</enabled>
									<locked>FALSE</locked>
									<outputchannelindex>2</outputchannelindex>
								</track>
								<track TL.SQTrackAudioKeyframeStyle="0" TL.SQTrackShy="0" TL.SQTrackExpandedHeight="25" TL.SQTrackExpanded="0" MZ.TrackTargeted="0" PannerCurrentValue="0.5" PannerIsInverted="true" PannerStartKeyframe="-91445760000000000,0.5,0,0,0,0,0,0" PannerName="Balance" currentExplodedTrackIndex="0" totalExplodedTrackCount="2" premiereTrackType="Stereo">
									<enabled>TRUE</enabled>
									<locked>FALSE</locked>
									<outputchannelindex>1</outputchannelindex>
								</track>
								<track TL.SQTrackAudioKeyframeStyle="0" TL.SQTrackShy="0" TL.SQTrackExpandedHeight="25" TL.SQTrackExpanded="0" MZ.TrackTargeted="0" PannerCurrentValue="0.5" PannerIsInverted="true" PannerStartKeyframe="-91445760000000000,0.5,0,0,0,0,0,0" PannerName="Balance" currentExplodedTrackIndex="1" totalExplodedTrackCount="2" premiereTrackType="Stereo">
									<enabled>TRUE</enabled>
									<locked>FALSE</locked>
									<outputchannelindex>2</outputchannelindex>
								</track>
								<track TL.SQTrackAudioKeyframeStyle="0" TL.SQTrackShy="0" TL.SQTrackExpandedHeight="25" TL.SQTrackExpanded="0" MZ.TrackTargeted="0" PannerCurrentValue="0.5" PannerIsInverted="true" PannerStartKeyframe="-91445760000000000,0.5,0,0,0,0,0,0" PannerName="Balance" currentExplodedTrackIndex="0" totalExplodedTrackCount="2" premiereTrackType="Stereo">
									<enabled>TRUE</enabled>
									<locked>FALSE</locked>
									<outputchannelindex>1</outputchannelindex>
								</track>
								<track TL.SQTrackAudioKeyframeStyle="0" TL.SQTrackShy="0" TL.SQTrackExpandedHeight="25" TL.SQTrackExpanded="0" MZ.TrackTargeted="0" PannerCurrentValue="0.5" PannerIsInverted="true" PannerStartKeyframe="-91445760000000000,0.5,0,0,0,0,0,0" PannerName="Balance" currentExplodedTrackIndex="1" totalExplodedTrackCount="2" premiereTrackType="Stereo">
									<enabled>TRUE</enabled>
									<locked>FALSE</locked>
									<outputchannelindex>2</outputchannelindex>
								</track>
							</audio>
						</media>
						<timecode>
							<rate>
								<timebase>30</timebase>
								<ntsc>TRUE</ntsc>
							</rate>
							<string>00;00;00;00</string>
							<frame>0</frame>
							<displayformat>DF</displayformat>
						</timecode>
						<labels>
							<label2>Forest</label2>
						</labels>
						<logginginfo>
							<description></description>
							<scene></scene>
							<shottake></shottake>
							<lognote></lognote>
							<good></good>
							<originalvideofilename></originalvideofilename>
							<originalaudiofilename></originalaudiofilename>
						</logginginfo>
					</sequence>
					<sequence id="sequence-18" TL.SQAudioVisibleBase="0" TL.SQVideoVisibleBase="0" TL.SQVisibleBaseTime="0" TL.SQAVDividerPosition="0.5" TL.SQHideShyTracks="0" TL.SQHeaderWidth="236" TL.SQDataTrackViewControlState="0" Monitor.ProgramZoomOut="30529353254400" Monitor.ProgramZoomIn="0" TL.SQTimePerPixel="0.2907856449852409" AM.TrackVScrollPosition="0" AM.TrackScrollPosition="0" MZ.EditLine="0" MZ.Sequence.PreviewFrameSizeHeight="1080" MZ.Sequence.PreviewFrameSizeWidth="1920" MZ.Sequence.AudioTimeDisplayFormat="200" MZ.Sequence.PreviewRenderingClassID="1061109567" MZ.Sequence.PreviewRenderingPresetCodec="1634755443" MZ.Sequence.PreviewRenderingPresetPath="EncoderPresets/SequencePreview/35d109db-457b-43c1-9452-9cb7be9f121c/QuickTime.epr" MZ.Sequence.PreviewUseMaxRenderQuality="false" MZ.Sequence.PreviewUseMaxBitDepth="false" MZ.Sequence.EditingModeGUID="35d109db-457b-43c1-9452-9cb7be9f121c" MZ.Sequence.VideoTimeDisplayFormat="102" MZ.WorkOutPoint="1262874412800" MZ.WorkInPoint="0" explodedTracks="true">
						<uuid>e851deb0-8563-44e1-adf0-a76ed858c2c3</uuid>
						<duration>3602</duration>
						<rate>
							<timebase>30</timebase>
							<ntsc>TRUE</ntsc>
						</rate>
						<out>3602</out>
						<name>FND_Spider-Man: Treats From Home_2</name>
						<media>
							<video>
								<format>
									<samplecharacteristics>
										<rate>
											<timebase>30</timebase>
											<ntsc>TRUE</ntsc>
										</rate>
										<codec>
											<name>Apple ProRes 422</name>
											<appspecificdata>
												<appname>Final Cut Pro</appname>
												<appmanufacturer>Apple Inc.</appmanufacturer>
												<appversion>7.0</appversion>
												<data>
													<qtcodec>
														<codecname>Apple ProRes 422</codecname>
														<codectypename>Apple ProRes 422</codectypename>
														<codectypecode>apcn</codectypecode>
														<codecvendorcode>appl</codecvendorcode>
														<spatialquality>1024</spatialquality>
														<temporalquality>0</temporalquality>
														<keyframerate>0</keyframerate>
														<datarate>0</datarate>
													</qtcodec>
												</data>
											</appspecificdata>
										</codec>
										<width>1920</width>
										<height>1080</height>
										<anamorphic>FALSE</anamorphic>
										<pixelaspectratio>square</pixelaspectratio>
										<fielddominance>none</fielddominance>
										<colordepth>24</colordepth>
									</samplecharacteristics>
								</format>
								<track TL.SQTrackShy="0" TL.SQTrackExpandedHeight="25" TL.SQTrackExpanded="0" MZ.TrackTargeted="1">
									<clipitem id="clipitem-555">
										<masterclipid>masterclip-194</masterclipid>
										<name>Nested Sequence 04</name>
										<enabled>TRUE</enabled>
										<duration>2439</duration>
										<rate>
											<timebase>30</timebase>
											<ntsc>TRUE</ntsc>
										</rate>
										<start>0</start>
										<end>2439</end>
										<in>0</in>
										<out>2439</out>
										<pproTicksIn>0</pproTicksIn>
										<pproTicksOut>20672152300800</pproTicksOut>
										<sequence id="sequence-19" TL.SQAudioVisibleBase="0" TL.SQVideoVisibleBase="0" TL.SQVisibleBaseTime="0" TL.SQAVDividerPosition="0.5" TL.SQHideShyTracks="0" TL.SQHeaderWidth="236" TL.SQDataTrackViewControlState="0" Monitor.ProgramZoomOut="20672152300800" Monitor.ProgramZoomIn="0" TL.SQTimePerPixel="0.14539282249262372" AM.TrackVScrollPosition="0" AM.TrackScrollPosition="0" MZ.EditLine="14213693894400" MZ.Sequence.PreviewFrameSizeHeight="1920" MZ.Sequence.PreviewFrameSizeWidth="1920" MZ.Sequence.AudioTimeDisplayFormat="200" MZ.Sequence.PreviewRenderingClassID="1061109567" MZ.Sequence.PreviewRenderingPresetCodec="1634755443" MZ.Sequence.PreviewRenderingPresetPath="EncoderPresets/SequencePreview/35d109db-457b-43c1-9452-9cb7be9f121c/QuickTime.epr" MZ.Sequence.PreviewUseMaxRenderQuality="false" MZ.Sequence.PreviewUseMaxBitDepth="false" MZ.Sequence.EditingModeGUID="35d109db-457b-43c1-9452-9cb7be9f121c" MZ.Sequence.VideoTimeDisplayFormat="102" MZ.WorkOutPoint="20672152300800" MZ.WorkInPoint="0">
											<duration>2439</duration>
											<rate>
												<timebase>30</timebase>
												<ntsc>TRUE</ntsc>
											</rate>
											<name>Nested Sequence 04</name>
											<media>
												<video>
													<format>
														<samplecharacteristics>
															<rate>
																<timebase>30</timebase>
																<ntsc>TRUE</ntsc>
															</rate>
															<codec>
																<name>Apple ProRes 422</name>
																<appspecificdata>
																	<appname>Final Cut Pro</appname>
																	<appmanufacturer>Apple Inc.</appmanufacturer>
																	<appversion>7.0</appversion>
																	<data>
																		<qtcodec>
																			<codecname>Apple ProRes 422</codecname>
																			<codectypename>Apple ProRes 422</codectypename>
																			<codectypecode>apcn</codectypecode>
																			<codecvendorcode>appl</codecvendorcode>
																			<spatialquality>1024</spatialquality>
																			<temporalquality>0</temporalquality>
																			<keyframerate>0</keyframerate>
																			<datarate>0</datarate>
																		</qtcodec>
																	</data>
																</appspecificdata>
															</codec>
															<width>1920</width>
															<height>1920</height>
															<anamorphic>FALSE</anamorphic>
															<pixelaspectratio>square</pixelaspectratio>
															<fielddominance>none</fielddominance>
															<colordepth>24</colordepth>
														</samplecharacteristics>
													</format>
													<track TL.SQTrackShy="0" TL.SQTrackExpandedHeight="25" TL.SQTrackExpanded="0" MZ.TrackTargeted="1">
														<clipitem id="clipitem-556">
															<masterclipid>masterclip-134</masterclipid>
															<name>(the.cookieholic)_Br79kQkgwPw_IG.mp4</name>
															<enabled>TRUE</enabled>
															<duration>816</duration>
															<rate>
																<timebase>30</timebase>
																<ntsc>TRUE</ntsc>
															</rate>
															<start>0</start>
															<end>750</end>
															<in>0</in>
															<out>749</out>
															<pproTicksIn>0</pproTicksIn>
															<pproTicksOut>13984850880000</pproTicksOut>
															<alphatype>none</alphatype>
															<file id="file-134"/>
															<filter>
																<effect>
																	<name>Basic Motion</name>
																	<effectid>basic</effectid>
																	<effectcategory>motion</effectcategory>
																	<effecttype>motion</effecttype>
																	<mediatype>video</mediatype>
																	<pproBypass>false</pproBypass>
																	<parameter authoringApp="PremierePro">
																		<parameterid>scale</parameterid>
																		<name>Scale</name>
																		<valuemin>0</valuemin>
																		<valuemax>1000</valuemax>
																		<value>101</value>
																	</parameter>
																	<parameter authoringApp="PremierePro">
																		<parameterid>rotation</parameterid>
																		<name>Rotation</name>
																		<valuemin>-8640</valuemin>
																		<valuemax>8640</valuemax>
																		<value>0</value>
																	</parameter>
																	<parameter authoringApp="PremierePro">
																		<parameterid>center</parameterid>
																		<name>Center</name>
																		<value>
																			<horiz>0</horiz>
																			<vert>0</vert>
																		</value>
																	</parameter>
																	<parameter authoringApp="PremierePro">
																		<parameterid>centerOffset</parameterid>
																		<name>Anchor Point</name>
																		<value>
																			<horiz>0</horiz>
																			<vert>0</vert>
																		</value>
																	</parameter>
																	<parameter authoringApp="PremierePro">
																		<parameterid>antiflicker</parameterid>
																		<name>Anti-flicker Filter</name>
																		<valuemin>0.0</valuemin>
																		<valuemax>1.0</valuemax>
																		<value>0</value>
																	</parameter>
																</effect>
															</filter>
															<filter>
																<effect>
																	<name>Time Remap</name>
																	<effectid>timeremap</effectid>
																	<effectcategory>motion</effectcategory>
																	<effecttype>motion</effecttype>
																	<mediatype>video</mediatype>
																	<parameter authoringApp="PremierePro">
																		<parameterid>variablespeed</parameterid>
																		<name>variablespeed</name>
																		<valuemin>0</valuemin>
																		<valuemax>1</valuemax>
																		<value>0</value>
																	</parameter>
																	<parameter authoringApp="PremierePro">
																		<parameterid>speed</parameterid>
																		<name>speed</name>
																		<valuemin>-100000</valuemin>
																		<valuemax>100000</valuemax>
																		<value>220</value>
																	</parameter>
																	<parameter authoringApp="PremierePro">
																		<parameterid>reverse</parameterid>
																		<name>reverse</name>
																		<value>FALSE</value>
																	</parameter>
																	<parameter authoringApp="PremierePro">
																		<parameterid>frameblending</parameterid>
																		<name>frameblending</name>
																		<value>FALSE</value>
																	</parameter>
																	<parameter authoringApp="PremierePro">
																		<parameterid>graphdict</parameterid>
																		<name>graphdict</name>
																		<valuemin>0</valuemin>
																		<valuemax>1795</valuemax>
																		<value>0</value>
																		<keyframe>
																			<when>0</when>
																			<value>0</value>
																			<speedvirtualkf>TRUE</speedvirtualkf>
																			<speedkfin>TRUE</speedkfin>
																		</keyframe>
																		<keyframe>
																			<when>749</when>
																			<value>1647</value>
																			<speedvirtualkf>TRUE</speedvirtualkf>
																			<speedkfout>TRUE</speedkfout>
																		</keyframe>
																		<keyframe>
																			<when>816</when>
																			<value>1795</value>
																			<speedvirtualkf>TRUE</speedvirtualkf>
																			<speedkfend>TRUE</speedkfend>
																		</keyframe>
																		<interpolation>
																			<name>FCPCurve</name>
																		</interpolation>
																	</parameter>
																</effect>
															</filter>
															<logginginfo>
																<description></description>
																<scene></scene>
																<shottake></shottake>
																<lognote></lognote>
																<good></good>
																<originalvideofilename></originalvideofilename>
																<originalaudiofilename></originalaudiofilename>
															</logginginfo>
															<colorinfo>
																<lut></lut>
																<lut1></lut1>
																<asc_sop></asc_sop>
																<asc_sat></asc_sat>
																<lut2></lut2>
															</colorinfo>
															<labels>
																<label2>Violet</label2>
															</labels>
														</clipitem>
														<clipitem id="clipitem-557">
															<masterclipid>masterclip-134</masterclipid>
															<name>(the.cookieholic)_Br79kQkgwPw_IG.mp4</name>
															<enabled>TRUE</enabled>
															<duration>1797</duration>
															<rate>
																<timebase>30</timebase>
																<ntsc>TRUE</ntsc>
															</rate>
															<start>750</start>
															<end>834</end>
															<in>1713</in>
															<out>1797</out>
															<pproTicksIn>14518817913600</pproTicksIn>
															<pproTicksOut>15230773958400</pproTicksOut>
															<alphatype>none</alphatype>
															<file id="file-134"/>
															<filter>
																<effect>
																	<name>Basic Motion</name>
																	<effectid>basic</effectid>
																	<effectcategory>motion</effectcategory>
																	<effecttype>motion</effecttype>
																	<mediatype>video</mediatype>
																	<pproBypass>false</pproBypass>
																	<parameter authoringApp="PremierePro">
																		<parameterid>scale</parameterid>
																		<name>Scale</name>
																		<valuemin>0</valuemin>
																		<valuemax>1000</valuemax>
																		<value>101</value>
																	</parameter>
																	<parameter authoringApp="PremierePro">
																		<parameterid>rotation</parameterid>
																		<name>Rotation</name>
																		<valuemin>-8640</valuemin>
																		<valuemax>8640</valuemax>
																		<value>0</value>
																	</parameter>
																	<parameter authoringApp="PremierePro">
																		<parameterid>center</parameterid>
																		<name>Center</name>
																		<value>
																			<horiz>0</horiz>
																			<vert>0</vert>
																		</value>
																	</parameter>
																	<parameter authoringApp="PremierePro">
																		<parameterid>centerOffset</parameterid>
																		<name>Anchor Point</name>
																		<value>
																			<horiz>0</horiz>
																			<vert>0</vert>
																		</value>
																	</parameter>
																	<parameter authoringApp="PremierePro">
																		<parameterid>antiflicker</parameterid>
																		<name>Anti-flicker Filter</name>
																		<valuemin>0.0</valuemin>
																		<valuemax>1.0</valuemax>
																		<value>0</value>
																	</parameter>
																</effect>
															</filter>
															<logginginfo>
																<description></description>
																<scene></scene>
																<shottake></shottake>
																<lognote></lognote>
																<good></good>
																<originalvideofilename></originalvideofilename>
																<originalaudiofilename></originalaudiofilename>
															</logginginfo>
															<colorinfo>
																<lut></lut>
																<lut1></lut1>
																<asc_sop></asc_sop>
																<asc_sat></asc_sat>
																<lut2></lut2>
															</colorinfo>
															<labels>
																<label2>Violet</label2>
															</labels>
														</clipitem>
														<clipitem id="clipitem-558">
															<masterclipid>masterclip-133</masterclipid>
															<name>(allyoucansweet)_7060213686761458991_TT.mp4</name>
															<enabled>TRUE</enabled>
															<duration>1240</duration>
															<rate>
																<timebase>30</timebase>
																<ntsc>TRUE</ntsc>
															</rate>
															<start>834</start>
															<end>1090</end>
															<in>125</in>
															<out>380</out>
															<pproTicksIn>1161166406400</pproTicksIn>
															<pproTicksOut>3547914289918</pproTicksOut>
															<alphatype>none</alphatype>
															<file id="file-133"/>
															<filter>
																<effect>
																	<name>Basic Motion</name>
																	<effectid>basic</effectid>
																	<effectcategory>motion</effectcategory>
																	<effecttype>motion</effecttype>
																	<mediatype>video</mediatype>
																	<pproBypass>false</pproBypass>
																	<parameter authoringApp="PremierePro">
																		<parameterid>scale</parameterid>
																		<name>Scale</name>
																		<valuemin>0</valuemin>
																		<valuemax>1000</valuemax>
																		<value>179</value>
																	</parameter>
																	<parameter authoringApp="PremierePro">
																		<parameterid>rotation</parameterid>
																		<name>Rotation</name>
																		<valuemin>-8640</valuemin>
																		<valuemax>8640</valuemax>
																		<value>0</value>
																	</parameter>
																	<parameter authoringApp="PremierePro">
																		<parameterid>center</parameterid>
																		<name>Center</name>
																		<value>
																			<horiz>0</horiz>
																			<vert>-0.206055</vert>
																		</value>
																	</parameter>
																	<parameter authoringApp="PremierePro">
																		<parameterid>centerOffset</parameterid>
																		<name>Anchor Point</name>
																		<value>
																			<horiz>0</horiz>
																			<vert>0</vert>
																		</value>
																	</parameter>
																	<parameter authoringApp="PremierePro">
																		<parameterid>antiflicker</parameterid>
																		<name>Anti-flicker Filter</name>
																		<valuemin>0.0</valuemin>
																		<valuemax>1.0</valuemax>
																		<value>0</value>
																	</parameter>
																</effect>
															</filter>
															<filter>
																<effect>
																	<name>Time Remap</name>
																	<effectid>timeremap</effectid>
																	<effectcategory>motion</effectcategory>
																	<effecttype>motion</effecttype>
																	<mediatype>video</mediatype>
																	<parameter authoringApp="PremierePro">
																		<parameterid>variablespeed</parameterid>
																		<name>variablespeed</name>
																		<valuemin>0</valuemin>
																		<valuemax>1</valuemax>
																		<value>0</value>
																	</parameter>
																	<parameter authoringApp="PremierePro">
																		<parameterid>speed</parameterid>
																		<name>speed</name>
																		<valuemin>-100000</valuemin>
																		<valuemax>100000</valuemax>
																		<value>110</value>
																	</parameter>
																	<parameter authoringApp="PremierePro">
																		<parameterid>reverse</parameterid>
																		<name>reverse</name>
																		<value>FALSE</value>
																	</parameter>
																	<parameter authoringApp="PremierePro">
																		<parameterid>frameblending</parameterid>
																		<name>frameblending</name>
																		<value>FALSE</value>
																	</parameter>
																	<parameter authoringApp="PremierePro">
																		<parameterid>graphdict</parameterid>
																		<name>graphdict</name>
																		<valuemin>0</valuemin>
																		<valuemax>1364</valuemax>
																		<value>0</value>
																		<keyframe>
																			<when>0</when>
																			<value>0</value>
																			<speedvirtualkf>TRUE</speedvirtualkf>
																			<speedkfstart>TRUE</speedkfstart>
																		</keyframe>
																		<keyframe>
																			<when>125</when>
																			<value>137</value>
																			<speedvirtualkf>TRUE</speedvirtualkf>
																			<speedkfin>TRUE</speedkfin>
																		</keyframe>
																		<keyframe>
																			<when>380</when>
																			<value>418</value>
																			<speedvirtualkf>TRUE</speedvirtualkf>
																			<speedkfout>TRUE</speedkfout>
																		</keyframe>
																		<keyframe>
																			<when>1240</when>
																			<value>1364</value>
																			<speedvirtualkf>TRUE</speedvirtualkf>
																			<speedkfend>TRUE</speedkfend>
																		</keyframe>
																		<interpolation>
																			<name>FCPCurve</name>
																		</interpolation>
																	</parameter>
																</effect>
															</filter>
															<logginginfo>
																<description></description>
																<scene></scene>
																<shottake></shottake>
																<lognote></lognote>
																<good></good>
																<originalvideofilename></originalvideofilename>
																<originalaudiofilename></originalaudiofilename>
															</logginginfo>
															<colorinfo>
																<lut></lut>
																<lut1></lut1>
																<asc_sop></asc_sop>
																<asc_sat></asc_sat>
																<lut2></lut2>
															</colorinfo>
															<labels>
																<label2>Caribbean</label2>
															</labels>
														</clipitem>
														<clipitem id="clipitem-559">
															<masterclipid>masterclip-133</masterclipid>
															<name>(allyoucansweet)_7060213686761458991_TT.mp4</name>
															<enabled>TRUE</enabled>
															<duration>1240</duration>
															<rate>
																<timebase>30</timebase>
																<ntsc>TRUE</ntsc>
															</rate>
															<start>1090</start>
															<end>1650</end>
															<in>592</in>
															<out>1151</out>
															<pproTicksIn>5517659347200</pproTicksIn>
															<pproTicksOut>10738670342400</pproTicksOut>
															<alphatype>none</alphatype>
															<file id="file-133"/>
															<filter>
																<effect>
																	<name>Basic Motion</name>
																	<effectid>basic</effectid>
																	<effectcategory>motion</effectcategory>
																	<effecttype>motion</effecttype>
																	<mediatype>video</mediatype>
																	<pproBypass>false</pproBypass>
																	<parameter authoringApp="PremierePro">
																		<parameterid>scale</parameterid>
																		<name>Scale</name>
																		<valuemin>0</valuemin>
																		<valuemax>1000</valuemax>
																		<value>179</value>
																	</parameter>
																	<parameter authoringApp="PremierePro">
																		<parameterid>rotation</parameterid>
																		<name>Rotation</name>
																		<valuemin>-8640</valuemin>
																		<valuemax>8640</valuemax>
																		<value>0</value>
																	</parameter>
																	<parameter authoringApp="PremierePro">
																		<parameterid>center</parameterid>
																		<name>Center</name>
																		<value>
																			<horiz>0</horiz>
																			<vert>0</vert>
																		</value>
																	</parameter>
																	<parameter authoringApp="PremierePro">
																		<parameterid>centerOffset</parameterid>
																		<name>Anchor Point</name>
																		<value>
																			<horiz>0</horiz>
																			<vert>0</vert>
																		</value>
																	</parameter>
																	<parameter authoringApp="PremierePro">
																		<parameterid>antiflicker</parameterid>
																		<name>Anti-flicker Filter</name>
																		<valuemin>0.0</valuemin>
																		<valuemax>1.0</valuemax>
																		<value>0</value>
																	</parameter>
																</effect>
															</filter>
															<filter>
																<effect>
																	<name>Time Remap</name>
																	<effectid>timeremap</effectid>
																	<effectcategory>motion</effectcategory>
																	<effecttype>motion</effecttype>
																	<mediatype>video</mediatype>
																	<parameter authoringApp="PremierePro">
																		<parameterid>variablespeed</parameterid>
																		<name>variablespeed</name>
																		<valuemin>0</valuemin>
																		<valuemax>1</valuemax>
																		<value>0</value>
																	</parameter>
																	<parameter authoringApp="PremierePro">
																		<parameterid>speed</parameterid>
																		<name>speed</name>
																		<valuemin>-100000</valuemin>
																		<valuemax>100000</valuemax>
																		<value>110</value>
																	</parameter>
																	<parameter authoringApp="PremierePro">
																		<parameterid>reverse</parameterid>
																		<name>reverse</name>
																		<value>FALSE</value>
																	</parameter>
																	<parameter authoringApp="PremierePro">
																		<parameterid>frameblending</parameterid>
																		<name>frameblending</name>
																		<value>FALSE</value>
																	</parameter>
																	<parameter authoringApp="PremierePro">
																		<parameterid>graphdict</parameterid>
																		<name>graphdict</name>
																		<valuemin>0</valuemin>
																		<valuemax>1364</valuemax>
																		<value>0</value>
																		<keyframe>
																			<when>0</when>
																			<value>0</value>
																			<speedvirtualkf>TRUE</speedvirtualkf>
																			<speedkfstart>TRUE</speedkfstart>
																		</keyframe>
																		<keyframe>
																			<when>592</when>
																			<value>651</value>
																			<speedvirtualkf>TRUE</speedvirtualkf>
																			<speedkfin>TRUE</speedkfin>
																		</keyframe>
																		<keyframe>
																			<when>1151</when>
																			<value>1266</value>
																			<speedvirtualkf>TRUE</speedvirtualkf>
																			<speedkfout>TRUE</speedkfout>
																		</keyframe>
																		<keyframe>
																			<when>1240</when>
																			<value>1364</value>
																			<speedvirtualkf>TRUE</speedvirtualkf>
																			<speedkfend>TRUE</speedkfend>
																		</keyframe>
																		<interpolation>
																			<name>FCPCurve</name>
																		</interpolation>
																	</parameter>
																</effect>
															</filter>
															<logginginfo>
																<description></description>
																<scene></scene>
																<shottake></shottake>
																<lognote></lognote>
																<good></good>
																<originalvideofilename></originalvideofilename>
																<originalaudiofilename></originalaudiofilename>
															</logginginfo>
															<colorinfo>
																<lut></lut>
																<lut1></lut1>
																<asc_sop></asc_sop>
																<asc_sat></asc_sat>
																<lut2></lut2>
															</colorinfo>
															<labels>
																<label2>Caribbean</label2>
															</labels>
														</clipitem>
														<clipitem id="clipitem-560">
															<masterclipid>masterclip-133</masterclipid>
															<name>(allyoucansweet)_7060213686761458991_TT.mp4</name>
															<enabled>TRUE</enabled>
															<duration>1365</duration>
															<rate>
																<timebase>30</timebase>
																<ntsc>TRUE</ntsc>
															</rate>
															<start>1650</start>
															<end>1706</end>
															<in>1267</in>
															<out>1323</out>
															<pproTicksIn>10738670342400</pproTicksIn>
															<pproTicksOut>11213307705600</pproTicksOut>
															<alphatype>none</alphatype>
															<file id="file-133"/>
															<filter>
																<effect>
																	<name>Basic Motion</name>
																	<effectid>basic</effectid>
																	<effectcategory>motion</effectcategory>
																	<effecttype>motion</effecttype>
																	<mediatype>video</mediatype>
																	<pproBypass>false</pproBypass>
																	<parameter authoringApp="PremierePro">
																		<parameterid>scale</parameterid>
																		<name>Scale</name>
																		<valuemin>0</valuemin>
																		<valuemax>1000</valuemax>
																		<value>179</value>
																	</parameter>
																	<parameter authoringApp="PremierePro">
																		<parameterid>rotation</parameterid>
																		<name>Rotation</name>
																		<valuemin>-8640</valuemin>
																		<valuemax>8640</valuemax>
																		<value>0</value>
																	</parameter>
																	<parameter authoringApp="PremierePro">
																		<parameterid>center</parameterid>
																		<name>Center</name>
																		<value>
																			<horiz>0</horiz>
																			<vert>0</vert>
																		</value>
																	</parameter>
																	<parameter authoringApp="PremierePro">
																		<parameterid>centerOffset</parameterid>
																		<name>Anchor Point</name>
																		<value>
																			<horiz>0</horiz>
																			<vert>0</vert>
																		</value>
																	</parameter>
																	<parameter authoringApp="PremierePro">
																		<parameterid>antiflicker</parameterid>
																		<name>Anti-flicker Filter</name>
																		<valuemin>0.0</valuemin>
																		<valuemax>1.0</valuemax>
																		<value>0</value>
																	</parameter>
																</effect>
															</filter>
															<logginginfo>
																<description></description>
																<scene></scene>
																<shottake></shottake>
																<lognote></lognote>
																<good></good>
																<originalvideofilename></originalvideofilename>
																<originalaudiofilename></originalaudiofilename>
															</logginginfo>
															<colorinfo>
																<lut></lut>
																<lut1></lut1>
																<asc_sop></asc_sop>
																<asc_sat></asc_sat>
																<lut2></lut2>
															</colorinfo>
															<labels>
																<label2>Caribbean</label2>
															</labels>
														</clipitem>
														<clipitem id="clipitem-561">
															<masterclipid>masterclip-132</masterclipid>
															<name>(_glazart) - CUNs4MmJTus_IG.mp4</name>
															<enabled>TRUE</enabled>
															<duration>733</duration>
															<rate>
																<timebase>30</timebase>
																<ntsc>TRUE</ntsc>
															</rate>
															<start>1706</start>
															<end>2439</end>
															<in>0</in>
															<out>733</out>
															<pproTicksIn>0</pproTicksIn>
															<pproTicksOut>6212664057600</pproTicksOut>
															<alphatype>none</alphatype>
															<file id="file-132"/>
															<filter>
																<effect>
																	<name>Basic Motion</name>
																	<effectid>basic</effectid>
																	<effectcategory>motion</effectcategory>
																	<effecttype>motion</effecttype>
																	<mediatype>video</mediatype>
																	<pproBypass>false</pproBypass>
																	<parameter authoringApp="PremierePro">
																		<parameterid>scale</parameterid>
																		<name>Scale</name>
																		<valuemin>0</valuemin>
																		<valuemax>1000</valuemax>
																		<value>180</value>
																	</parameter>
																	<parameter authoringApp="PremierePro">
																		<parameterid>rotation</parameterid>
																		<name>Rotation</name>
																		<valuemin>-8640</valuemin>
																		<valuemax>8640</valuemax>
																		<value>0</value>
																	</parameter>
																	<parameter authoringApp="PremierePro">
																		<parameterid>center</parameterid>
																		<name>Center</name>
																		<value>
																			<horiz>0</horiz>
																			<vert>0</vert>
																		</value>
																	</parameter>
																	<parameter authoringApp="PremierePro">
																		<parameterid>centerOffset</parameterid>
																		<name>Anchor Point</name>
																		<value>
																			<horiz>0</horiz>
																			<vert>0</vert>
																		</value>
																	</parameter>
																	<parameter authoringApp="PremierePro">
																		<parameterid>antiflicker</parameterid>
																		<name>Anti-flicker Filter</name>
																		<valuemin>0.0</valuemin>
																		<valuemax>1.0</valuemax>
																		<value>0</value>
																	</parameter>
																</effect>
															</filter>
															<logginginfo>
																<description></description>
																<scene></scene>
																<shottake></shottake>
																<lognote></lognote>
																<good></good>
																<originalvideofilename></originalvideofilename>
																<originalaudiofilename></originalaudiofilename>
															</logginginfo>
															<colorinfo>
																<lut></lut>
																<lut1></lut1>
																<asc_sop></asc_sop>
																<asc_sat></asc_sat>
																<lut2></lut2>
															</colorinfo>
															<labels>
																<label2>Lavender</label2>
															</labels>
														</clipitem>
														<enabled>TRUE</enabled>
														<locked>FALSE</locked>
													</track>
													<track TL.SQTrackShy="0" TL.SQTrackExpandedHeight="25" TL.SQTrackExpanded="0" MZ.TrackTargeted="0">
														<enabled>TRUE</enabled>
														<locked>FALSE</locked>
													</track>
												</video>
												<audio>
													<numOutputChannels>2</numOutputChannels>
													<format>
														<samplecharacteristics>
															<depth>16</depth>
															<samplerate>48000</samplerate>
														</samplecharacteristics>
													</format>
													<outputs>
														<group>
															<index>1</index>
															<numchannels>1</numchannels>
															<downmix>0</downmix>
															<channel>
																<index>1</index>
															</channel>
														</group>
														<group>
															<index>2</index>
															<numchannels>1</numchannels>
															<downmix>0</downmix>
															<channel>
																<index>2</index>
															</channel>
														</group>
													</outputs>
													<track TL.SQTrackAudioKeyframeStyle="0" TL.SQTrackShy="0" TL.SQTrackExpandedHeight="25" TL.SQTrackExpanded="0" MZ.TrackTargeted="1" PannerCurrentValue="0.5" PannerIsInverted="true" PannerStartKeyframe="-91445760000000000,0.5,0,0,0,0,0,0" PannerName="Balance" currentExplodedTrackIndex="0" totalExplodedTrackCount="2" premiereTrackType="Stereo">
														<enabled>TRUE</enabled>
														<locked>FALSE</locked>
														<outputchannelindex>1</outputchannelindex>
													</track>
													<track TL.SQTrackAudioKeyframeStyle="0" TL.SQTrackShy="0" TL.SQTrackExpandedHeight="25" TL.SQTrackExpanded="0" MZ.TrackTargeted="1" PannerCurrentValue="0.5" PannerIsInverted="true" PannerStartKeyframe="-91445760000000000,0.5,0,0,0,0,0,0" PannerName="Balance" currentExplodedTrackIndex="1" totalExplodedTrackCount="2" premiereTrackType="Stereo">
														<enabled>TRUE</enabled>
														<locked>FALSE</locked>
														<outputchannelindex>2</outputchannelindex>
													</track>
												</audio>
											</media>
											<timecode>
												<rate>
													<timebase>30</timebase>
													<ntsc>TRUE</ntsc>
												</rate>
												<string>00;00;00;00</string>
												<frame>0</frame>
												<displayformat>DF</displayformat>
											</timecode>
											<logginginfo>
												<description></description>
												<scene></scene>
												<shottake></shottake>
												<lognote></lognote>
												<good></good>
												<originalvideofilename></originalvideofilename>
												<originalaudiofilename></originalaudiofilename>
											</logginginfo>
										</sequence>
										<filter>
											<effect>
												<name>Basic Motion</name>
												<effectid>basic</effectid>
												<effectcategory>motion</effectcategory>
												<effecttype>motion</effecttype>
												<mediatype>video</mediatype>
												<pproBypass>false</pproBypass>
												<parameter authoringApp="PremierePro">
													<parameterid>scale</parameterid>
													<name>Scale</name>
													<valuemin>0</valuemin>
													<valuemax>1000</valuemax>
													<value>300</value>
												</parameter>
												<parameter authoringApp="PremierePro">
													<parameterid>rotation</parameterid>
													<name>Rotation</name>
													<valuemin>-8640</valuemin>
													<valuemax>8640</valuemax>
													<value>0</value>
												</parameter>
												<parameter authoringApp="PremierePro">
													<parameterid>center</parameterid>
													<name>Center</name>
													<value>
														<horiz>-0.5</horiz>
														<vert>-0.5</vert>
													</value>
												</parameter>
												<parameter authoringApp="PremierePro">
													<parameterid>centerOffset</parameterid>
													<name>Anchor Point</name>
													<value>
														<horiz>0</horiz>
														<vert>0</vert>
													</value>
												</parameter>
												<parameter authoringApp="PremierePro">
													<parameterid>antiflicker</parameterid>
													<name>Anti-flicker Filter</name>
													<valuemin>0.0</valuemin>
													<valuemax>1.0</valuemax>
													<value>0</value>
												</parameter>
											</effect>
										</filter>
										<filter>
											<effect>
												<name>Gaussian Blur</name>
												<effectid>Gaussian Blur</effectid>
												<effectcategory>Blur</effectcategory>
												<effecttype>motion</effecttype>
												<mediatype>video</mediatype>
												<pproBypass>false</pproBypass>
												<parameter authoringApp="PremierePro">
													<parameterid>radius</parameterid>
													<name>Radius</name>
													<valuemin>0</valuemin>
													<valuemax>100</valuemax>
													<value>150</value>
												</parameter>
											</effect>
										</filter>
										<labels>
											<label2>Forest</label2>
										</labels>
									</clipitem>
									<clipitem id="clipitem-562">
										<masterclipid>masterclip-131</masterclipid>
										<name>(Tuba Geçkil)_Spider-Man Bust Cake Timelapse _ Spider-Man Büst Pastası_xy1auMCMQs4_YT.mp4</name>
										<enabled>TRUE</enabled>
										<duration>21852</duration>
										<rate>
											<timebase>30</timebase>
											<ntsc>TRUE</ntsc>
										</rate>
										<start>2439</start>
										<end>2510</end>
										<in>405</in>
										<out>476</out>
										<pproTicksIn>3432645216000</pproTicksIn>
										<pproTicksOut>4034417587200</pproTicksOut>
										<alphatype>none</alphatype>
										<file id="file-131"/>
										<filter>
											<effect>
												<name>Gaussian Blur</name>
												<effectid>Gaussian Blur</effectid>
												<effectcategory>Blur</effectcategory>
												<effecttype>motion</effecttype>
												<mediatype>video</mediatype>
												<pproBypass>false</pproBypass>
												<parameter authoringApp="PremierePro">
													<parameterid>radius</parameterid>
													<name>Radius</name>
													<valuemin>0</valuemin>
													<valuemax>100</valuemax>
													<value>44</value>
												</parameter>
											</effect>
										</filter>
										<logginginfo>
											<description>Spider-Man Bust Cake Timelapse | Spider-Man Büst Pastası</description>
											<scene></scene>
											<shottake></shottake>
											<lognote>https://www.youtube.com/watch?v=xy1auMCMQs4</lognote>
											<good></good>
											<originalvideofilename></originalvideofilename>
											<originalaudiofilename></originalaudiofilename>
										</logginginfo>
										<colorinfo>
											<lut></lut>
											<lut1></lut1>
											<asc_sop></asc_sop>
											<asc_sat></asc_sat>
											<lut2></lut2>
										</colorinfo>
									</clipitem>
									<clipitem id="clipitem-563">
										<masterclipid>masterclip-131</masterclipid>
										<name>(Tuba Geçkil)_Spider-Man Bust Cake Timelapse _ Spider-Man Büst Pastası_xy1auMCMQs4_YT.mp4</name>
										<enabled>TRUE</enabled>
										<duration>21852</duration>
										<rate>
											<timebase>30</timebase>
											<ntsc>TRUE</ntsc>
										</rate>
										<start>2510</start>
										<end>2567</end>
										<in>3968</in>
										<out>4025</out>
										<pproTicksIn>33631447449600</pproTicksIn>
										<pproTicksOut>34114560480000</pproTicksOut>
										<alphatype>none</alphatype>
										<file id="file-131"/>
										<filter>
											<effect>
												<name>Gaussian Blur</name>
												<effectid>Gaussian Blur</effectid>
												<effectcategory>Blur</effectcategory>
												<effecttype>motion</effecttype>
												<mediatype>video</mediatype>
												<pproBypass>false</pproBypass>
												<parameter authoringApp="PremierePro">
													<parameterid>radius</parameterid>
													<name>Radius</name>
													<valuemin>0</valuemin>
													<valuemax>100</valuemax>
													<value>44</value>
												</parameter>
											</effect>
										</filter>
										<logginginfo>
											<description>Spider-Man Bust Cake Timelapse | Spider-Man Büst Pastası</description>
											<scene></scene>
											<shottake></shottake>
											<lognote>https://www.youtube.com/watch?v=xy1auMCMQs4</lognote>
											<good></good>
											<originalvideofilename></originalvideofilename>
											<originalaudiofilename></originalaudiofilename>
										</logginginfo>
										<colorinfo>
											<lut></lut>
											<lut1></lut1>
											<asc_sop></asc_sop>
											<asc_sat></asc_sat>
											<lut2></lut2>
										</colorinfo>
									</clipitem>
									<clipitem id="clipitem-564">
										<masterclipid>masterclip-131</masterclipid>
										<name>(Tuba Geçkil)_Spider-Man Bust Cake Timelapse _ Spider-Man Büst Pastası_xy1auMCMQs4_YT.mp4</name>
										<enabled>TRUE</enabled>
										<duration>21852</duration>
										<rate>
											<timebase>30</timebase>
											<ntsc>TRUE</ntsc>
										</rate>
										<start>2567</start>
										<end>2613</end>
										<in>5647</in>
										<out>5693</out>
										<pproTicksIn>47862092678400</pproTicksIn>
										<pproTicksOut>48251973369600</pproTicksOut>
										<alphatype>none</alphatype>
										<file id="file-131"/>
										<filter>
											<effect>
												<name>Gaussian Blur</name>
												<effectid>Gaussian Blur</effectid>
												<effectcategory>Blur</effectcategory>
												<effecttype>motion</effecttype>
												<mediatype>video</mediatype>
												<pproBypass>false</pproBypass>
												<parameter authoringApp="PremierePro">
													<parameterid>radius</parameterid>
													<name>Radius</name>
													<valuemin>0</valuemin>
													<valuemax>100</valuemax>
													<value>44</value>
												</parameter>
											</effect>
										</filter>
										<logginginfo>
											<description>Spider-Man Bust Cake Timelapse | Spider-Man Büst Pastası</description>
											<scene></scene>
											<shottake></shottake>
											<lognote>https://www.youtube.com/watch?v=xy1auMCMQs4</lognote>
											<good></good>
											<originalvideofilename></originalvideofilename>
											<originalaudiofilename></originalaudiofilename>
										</logginginfo>
										<colorinfo>
											<lut></lut>
											<lut1></lut1>
											<asc_sop></asc_sop>
											<asc_sat></asc_sat>
											<lut2></lut2>
										</colorinfo>
									</clipitem>
									<clipitem id="clipitem-565">
										<masterclipid>masterclip-131</masterclipid>
										<name>(Tuba Geçkil)_Spider-Man Bust Cake Timelapse _ Spider-Man Büst Pastası_xy1auMCMQs4_YT.mp4</name>
										<enabled>TRUE</enabled>
										<duration>21852</duration>
										<rate>
											<timebase>30</timebase>
											<ntsc>TRUE</ntsc>
										</rate>
										<start>2613</start>
										<end>2688</end>
										<in>6016</in>
										<out>6091</out>
										<pproTicksIn>50989613875200</pproTicksIn>
										<pproTicksOut>51625288915200</pproTicksOut>
										<alphatype>none</alphatype>
										<file id="file-131"/>
										<filter>
											<effect>
												<name>Basic Motion</name>
												<effectid>basic</effectid>
												<effectcategory>motion</effectcategory>
												<effecttype>motion</effecttype>
												<mediatype>video</mediatype>
												<pproBypass>false</pproBypass>
												<parameter authoringApp="PremierePro">
													<parameterid>scale</parameterid>
													<name>Scale</name>
													<valuemin>0</valuemin>
													<valuemax>1000</valuemax>
													<value>130</value>
												</parameter>
												<parameter authoringApp="PremierePro">
													<parameterid>rotation</parameterid>
													<name>Rotation</name>
													<valuemin>-8640</valuemin>
													<valuemax>8640</valuemax>
													<value>0</value>
												</parameter>
												<parameter authoringApp="PremierePro">
													<parameterid>center</parameterid>
													<name>Center</name>
													<value>
														<horiz>0.0963542</horiz>
														<vert>0.0657408</vert>
													</value>
												</parameter>
												<parameter authoringApp="PremierePro">
													<parameterid>centerOffset</parameterid>
													<name>Anchor Point</name>
													<value>
														<horiz>0</horiz>
														<vert>0</vert>
													</value>
												</parameter>
												<parameter authoringApp="PremierePro">
													<parameterid>antiflicker</parameterid>
													<name>Anti-flicker Filter</name>
													<valuemin>0.0</valuemin>
													<valuemax>1.0</valuemax>
													<value>0</value>
												</parameter>
											</effect>
										</filter>
										<filter>
											<effect>
												<name>Gaussian Blur</name>
												<effectid>Gaussian Blur</effectid>
												<effectcategory>Blur</effectcategory>
												<effecttype>motion</effecttype>
												<mediatype>video</mediatype>
												<pproBypass>false</pproBypass>
												<parameter authoringApp="PremierePro">
													<parameterid>radius</parameterid>
													<name>Radius</name>
													<valuemin>0</valuemin>
													<valuemax>100</valuemax>
													<value>44</value>
												</parameter>
											</effect>
										</filter>
										<logginginfo>
											<description>Spider-Man Bust Cake Timelapse | Spider-Man Büst Pastası</description>
											<scene></scene>
											<shottake></shottake>
											<lognote>https://www.youtube.com/watch?v=xy1auMCMQs4</lognote>
											<good></good>
											<originalvideofilename></originalvideofilename>
											<originalaudiofilename></originalaudiofilename>
										</logginginfo>
										<colorinfo>
											<lut></lut>
											<lut1></lut1>
											<asc_sop></asc_sop>
											<asc_sat></asc_sat>
											<lut2></lut2>
										</colorinfo>
									</clipitem>
									<clipitem id="clipitem-566">
										<masterclipid>masterclip-131</masterclipid>
										<name>(Tuba Geçkil)_Spider-Man Bust Cake Timelapse _ Spider-Man Büst Pastası_xy1auMCMQs4_YT.mp4</name>
										<enabled>TRUE</enabled>
										<duration>21852</duration>
										<rate>
											<timebase>30</timebase>
											<ntsc>TRUE</ntsc>
										</rate>
										<start>2688</start>
										<end>2767</end>
										<in>6995</in>
										<out>7074</out>
										<pproTicksIn>59287292064000</pproTicksIn>
										<pproTicksOut>59956869772800</pproTicksOut>
										<alphatype>none</alphatype>
										<file id="file-131"/>
										<filter>
											<effect>
												<name>Gaussian Blur</name>
												<effectid>Gaussian Blur</effectid>
												<effectcategory>Blur</effectcategory>
												<effecttype>motion</effecttype>
												<mediatype>video</mediatype>
												<pproBypass>false</pproBypass>
												<parameter authoringApp="PremierePro">
													<parameterid>radius</parameterid>
													<name>Radius</name>
													<valuemin>0</valuemin>
													<valuemax>100</valuemax>
													<value>44</value>
												</parameter>
											</effect>
										</filter>
										<logginginfo>
											<description>Spider-Man Bust Cake Timelapse | Spider-Man Büst Pastası</description>
											<scene></scene>
											<shottake></shottake>
											<lognote>https://www.youtube.com/watch?v=xy1auMCMQs4</lognote>
											<good></good>
											<originalvideofilename></originalvideofilename>
											<originalaudiofilename></originalaudiofilename>
										</logginginfo>
										<colorinfo>
											<lut></lut>
											<lut1></lut1>
											<asc_sop></asc_sop>
											<asc_sat></asc_sat>
											<lut2></lut2>
										</colorinfo>
									</clipitem>
									<clipitem id="clipitem-567">
										<masterclipid>masterclip-131</masterclipid>
										<name>(Tuba Geçkil)_Spider-Man Bust Cake Timelapse _ Spider-Man Büst Pastası_xy1auMCMQs4_YT.mp4</name>
										<enabled>TRUE</enabled>
										<duration>21852</duration>
										<rate>
											<timebase>30</timebase>
											<ntsc>TRUE</ntsc>
										</rate>
										<start>2767</start>
										<end>2834</end>
										<in>7382</in>
										<out>7449</out>
										<pproTicksIn>62567375270400</pproTicksIn>
										<pproTicksOut>63135244972800</pproTicksOut>
										<alphatype>none</alphatype>
										<file id="file-131"/>
										<filter>
											<effect>
												<name>Gaussian Blur</name>
												<effectid>Gaussian Blur</effectid>
												<effectcategory>Blur</effectcategory>
												<effecttype>motion</effecttype>
												<mediatype>video</mediatype>
												<pproBypass>false</pproBypass>
												<parameter authoringApp="PremierePro">
													<parameterid>radius</parameterid>
													<name>Radius</name>
													<valuemin>0</valuemin>
													<valuemax>100</valuemax>
													<value>44</value>
												</parameter>
											</effect>
										</filter>
										<logginginfo>
											<description>Spider-Man Bust Cake Timelapse | Spider-Man Büst Pastası</description>
											<scene></scene>
											<shottake></shottake>
											<lognote>https://www.youtube.com/watch?v=xy1auMCMQs4</lognote>
											<good></good>
											<originalvideofilename></originalvideofilename>
											<originalaudiofilename></originalaudiofilename>
										</logginginfo>
										<colorinfo>
											<lut></lut>
											<lut1></lut1>
											<asc_sop></asc_sop>
											<asc_sat></asc_sat>
											<lut2></lut2>
										</colorinfo>
									</clipitem>
									<clipitem id="clipitem-568">
										<masterclipid>masterclip-131</masterclipid>
										<name>(Tuba Geçkil)_Spider-Man Bust Cake Timelapse _ Spider-Man Büst Pastası_xy1auMCMQs4_YT.mp4</name>
										<enabled>TRUE</enabled>
										<duration>21852</duration>
										<rate>
											<timebase>30</timebase>
											<ntsc>TRUE</ntsc>
										</rate>
										<start>2834</start>
										<end>2879</end>
										<in>8489</in>
										<out>8534</out>
										<pproTicksIn>71949938860800</pproTicksIn>
										<pproTicksOut>72331343884800</pproTicksOut>
										<alphatype>none</alphatype>
										<file id="file-131"/>
										<filter>
											<effect>
												<name>Gaussian Blur</name>
												<effectid>Gaussian Blur</effectid>
												<effectcategory>Blur</effectcategory>
												<effecttype>motion</effecttype>
												<mediatype>video</mediatype>
												<pproBypass>false</pproBypass>
												<parameter authoringApp="PremierePro">
													<parameterid>radius</parameterid>
													<name>Radius</name>
													<valuemin>0</valuemin>
													<valuemax>100</valuemax>
													<value>44</value>
												</parameter>
											</effect>
										</filter>
										<logginginfo>
											<description>Spider-Man Bust Cake Timelapse | Spider-Man Büst Pastası</description>
											<scene></scene>
											<shottake></shottake>
											<lognote>https://www.youtube.com/watch?v=xy1auMCMQs4</lognote>
											<good></good>
											<originalvideofilename></originalvideofilename>
											<originalaudiofilename></originalaudiofilename>
										</logginginfo>
										<colorinfo>
											<lut></lut>
											<lut1></lut1>
											<asc_sop></asc_sop>
											<asc_sat></asc_sat>
											<lut2></lut2>
										</colorinfo>
									</clipitem>
									<clipitem id="clipitem-569">
										<masterclipid>masterclip-131</masterclipid>
										<name>(Tuba Geçkil)_Spider-Man Bust Cake Timelapse _ Spider-Man Büst Pastası_xy1auMCMQs4_YT.mp4</name>
										<enabled>TRUE</enabled>
										<duration>21852</duration>
										<rate>
											<timebase>30</timebase>
											<ntsc>TRUE</ntsc>
										</rate>
										<start>2879</start>
										<end>2937</end>
										<in>10103</in>
										<out>10161</out>
										<pproTicksIn>85629665721600</pproTicksIn>
										<pproTicksOut>86121254419200</pproTicksOut>
										<alphatype>none</alphatype>
										<file id="file-131"/>
										<filter>
											<effect>
												<name>Gaussian Blur</name>
												<effectid>Gaussian Blur</effectid>
												<effectcategory>Blur</effectcategory>
												<effecttype>motion</effecttype>
												<mediatype>video</mediatype>
												<pproBypass>false</pproBypass>
												<parameter authoringApp="PremierePro">
													<parameterid>radius</parameterid>
													<name>Radius</name>
													<valuemin>0</valuemin>
													<valuemax>100</valuemax>
													<value>44</value>
												</parameter>
											</effect>
										</filter>
										<logginginfo>
											<description>Spider-Man Bust Cake Timelapse | Spider-Man Büst Pastası</description>
											<scene></scene>
											<shottake></shottake>
											<lognote>https://www.youtube.com/watch?v=xy1auMCMQs4</lognote>
											<good></good>
											<originalvideofilename></originalvideofilename>
											<originalaudiofilename></originalaudiofilename>
										</logginginfo>
										<colorinfo>
											<lut></lut>
											<lut1></lut1>
											<asc_sop></asc_sop>
											<asc_sat></asc_sat>
											<lut2></lut2>
										</colorinfo>
									</clipitem>
									<clipitem id="clipitem-570">
										<masterclipid>masterclip-131</masterclipid>
										<name>(Tuba Geçkil)_Spider-Man Bust Cake Timelapse _ Spider-Man Büst Pastası_xy1auMCMQs4_YT.mp4</name>
										<enabled>TRUE</enabled>
										<duration>21852</duration>
										<rate>
											<timebase>30</timebase>
											<ntsc>TRUE</ntsc>
										</rate>
										<start>2937</start>
										<end>2979</end>
										<in>10649</in>
										<out>10691</out>
										<pproTicksIn>90257380012800</pproTicksIn>
										<pproTicksOut>90613358035200</pproTicksOut>
										<alphatype>none</alphatype>
										<file id="file-131"/>
										<filter>
											<effect>
												<name>Gaussian Blur</name>
												<effectid>Gaussian Blur</effectid>
												<effectcategory>Blur</effectcategory>
												<effecttype>motion</effecttype>
												<mediatype>video</mediatype>
												<pproBypass>false</pproBypass>
												<parameter authoringApp="PremierePro">
													<parameterid>radius</parameterid>
													<name>Radius</name>
													<valuemin>0</valuemin>
													<valuemax>100</valuemax>
													<value>44</value>
												</parameter>
											</effect>
										</filter>
										<logginginfo>
											<description>Spider-Man Bust Cake Timelapse | Spider-Man Büst Pastası</description>
											<scene></scene>
											<shottake></shottake>
											<lognote>https://www.youtube.com/watch?v=xy1auMCMQs4</lognote>
											<good></good>
											<originalvideofilename></originalvideofilename>
											<originalaudiofilename></originalaudiofilename>
										</logginginfo>
										<colorinfo>
											<lut></lut>
											<lut1></lut1>
											<asc_sop></asc_sop>
											<asc_sat></asc_sat>
											<lut2></lut2>
										</colorinfo>
									</clipitem>
									<clipitem id="clipitem-571">
										<masterclipid>masterclip-131</masterclipid>
										<name>(Tuba Geçkil)_Spider-Man Bust Cake Timelapse _ Spider-Man Büst Pastası_xy1auMCMQs4_YT.mp4</name>
										<enabled>TRUE</enabled>
										<duration>21852</duration>
										<rate>
											<timebase>30</timebase>
											<ntsc>TRUE</ntsc>
										</rate>
										<start>2979</start>
										<end>3027</end>
										<in>12827</in>
										<out>12875</out>
										<pproTicksIn>108717383174400</pproTicksIn>
										<pproTicksOut>109124215200000</pproTicksOut>
										<alphatype>none</alphatype>
										<file id="file-131"/>
										<filter>
											<effect>
												<name>Gaussian Blur</name>
												<effectid>Gaussian Blur</effectid>
												<effectcategory>Blur</effectcategory>
												<effecttype>motion</effecttype>
												<mediatype>video</mediatype>
												<pproBypass>false</pproBypass>
												<parameter authoringApp="PremierePro">
													<parameterid>radius</parameterid>
													<name>Radius</name>
													<valuemin>0</valuemin>
													<valuemax>100</valuemax>
													<value>44</value>
												</parameter>
											</effect>
										</filter>
										<logginginfo>
											<description>Spider-Man Bust Cake Timelapse | Spider-Man Büst Pastası</description>
											<scene></scene>
											<shottake></shottake>
											<lognote>https://www.youtube.com/watch?v=xy1auMCMQs4</lognote>
											<good></good>
											<originalvideofilename></originalvideofilename>
											<originalaudiofilename></originalaudiofilename>
										</logginginfo>
										<colorinfo>
											<lut></lut>
											<lut1></lut1>
											<asc_sop></asc_sop>
											<asc_sat></asc_sat>
											<lut2></lut2>
										</colorinfo>
									</clipitem>
									<clipitem id="clipitem-572">
										<masterclipid>masterclip-131</masterclipid>
										<name>(Tuba Geçkil)_Spider-Man Bust Cake Timelapse _ Spider-Man Büst Pastası_xy1auMCMQs4_YT.mp4</name>
										<enabled>TRUE</enabled>
										<duration>21852</duration>
										<rate>
											<timebase>30</timebase>
											<ntsc>TRUE</ntsc>
										</rate>
										<start>3027</start>
										<end>3067</end>
										<in>14193</in>
										<out>14233</out>
										<pproTicksIn>120295144569600</pproTicksIn>
										<pproTicksOut>120634171257600</pproTicksOut>
										<alphatype>none</alphatype>
										<file id="file-131"/>
										<filter>
											<effect>
												<name>Gaussian Blur</name>
												<effectid>Gaussian Blur</effectid>
												<effectcategory>Blur</effectcategory>
												<effecttype>motion</effecttype>
												<mediatype>video</mediatype>
												<pproBypass>false</pproBypass>
												<parameter authoringApp="PremierePro">
													<parameterid>radius</parameterid>
													<name>Radius</name>
													<valuemin>0</valuemin>
													<valuemax>100</valuemax>
													<value>44</value>
												</parameter>
											</effect>
										</filter>
										<logginginfo>
											<description>Spider-Man Bust Cake Timelapse | Spider-Man Büst Pastası</description>
											<scene></scene>
											<shottake></shottake>
											<lognote>https://www.youtube.com/watch?v=xy1auMCMQs4</lognote>
											<good></good>
											<originalvideofilename></originalvideofilename>
											<originalaudiofilename></originalaudiofilename>
										</logginginfo>
										<colorinfo>
											<lut></lut>
											<lut1></lut1>
											<asc_sop></asc_sop>
											<asc_sat></asc_sat>
											<lut2></lut2>
										</colorinfo>
									</clipitem>
									<clipitem id="clipitem-573">
										<masterclipid>masterclip-131</masterclipid>
										<name>(Tuba Geçkil)_Spider-Man Bust Cake Timelapse _ Spider-Man Büst Pastası_xy1auMCMQs4_YT.mp4</name>
										<enabled>TRUE</enabled>
										<duration>21852</duration>
										<rate>
											<timebase>30</timebase>
											<ntsc>TRUE</ntsc>
										</rate>
										<start>3067</start>
										<end>3123</end>
										<in>14893</in>
										<out>14949</out>
										<pproTicksIn>126228111609600</pproTicksIn>
										<pproTicksOut>126702748972800</pproTicksOut>
										<alphatype>none</alphatype>
										<file id="file-131"/>
										<filter>
											<effect>
												<name>Basic Motion</name>
												<effectid>basic</effectid>
												<effectcategory>motion</effectcategory>
												<effecttype>motion</effecttype>
												<mediatype>video</mediatype>
												<pproBypass>false</pproBypass>
												<parameter authoringApp="PremierePro">
													<parameterid>scale</parameterid>
													<name>Scale</name>
													<valuemin>0</valuemin>
													<valuemax>1000</valuemax>
													<value>127</value>
												</parameter>
												<parameter authoringApp="PremierePro">
													<parameterid>rotation</parameterid>
													<name>Rotation</name>
													<valuemin>-8640</valuemin>
													<valuemax>8640</valuemax>
													<value>0</value>
												</parameter>
												<parameter authoringApp="PremierePro">
													<parameterid>center</parameterid>
													<name>Center</name>
													<value>
														<horiz>0</horiz>
														<vert>0.127778</vert>
													</value>
												</parameter>
												<parameter authoringApp="PremierePro">
													<parameterid>centerOffset</parameterid>
													<name>Anchor Point</name>
													<value>
														<horiz>0</horiz>
														<vert>0</vert>
													</value>
												</parameter>
												<parameter authoringApp="PremierePro">
													<parameterid>antiflicker</parameterid>
													<name>Anti-flicker Filter</name>
													<valuemin>0.0</valuemin>
													<valuemax>1.0</valuemax>
													<value>0</value>
												</parameter>
											</effect>
										</filter>
										<filter>
											<effect>
												<name>Gaussian Blur</name>
												<effectid>Gaussian Blur</effectid>
												<effectcategory>Blur</effectcategory>
												<effecttype>motion</effecttype>
												<mediatype>video</mediatype>
												<pproBypass>false</pproBypass>
												<parameter authoringApp="PremierePro">
													<parameterid>radius</parameterid>
													<name>Radius</name>
													<valuemin>0</valuemin>
													<valuemax>100</valuemax>
													<value>44</value>
												</parameter>
											</effect>
										</filter>
										<logginginfo>
											<description>Spider-Man Bust Cake Timelapse | Spider-Man Büst Pastası</description>
											<scene></scene>
											<shottake></shottake>
											<lognote>https://www.youtube.com/watch?v=xy1auMCMQs4</lognote>
											<good></good>
											<originalvideofilename></originalvideofilename>
											<originalaudiofilename></originalaudiofilename>
										</logginginfo>
										<colorinfo>
											<lut></lut>
											<lut1></lut1>
											<asc_sop></asc_sop>
											<asc_sat></asc_sat>
											<lut2></lut2>
										</colorinfo>
									</clipitem>
									<clipitem id="clipitem-574">
										<masterclipid>masterclip-131</masterclipid>
										<name>(Tuba Geçkil)_Spider-Man Bust Cake Timelapse _ Spider-Man Büst Pastası_xy1auMCMQs4_YT.mp4</name>
										<enabled>TRUE</enabled>
										<duration>21852</duration>
										<rate>
											<timebase>30</timebase>
											<ntsc>TRUE</ntsc>
										</rate>
										<start>3123</start>
										<end>3174</end>
										<in>15149</in>
										<out>15200</out>
										<pproTicksIn>128397882412800</pproTicksIn>
										<pproTicksOut>128830141440000</pproTicksOut>
										<alphatype>none</alphatype>
										<file id="file-131"/>
										<filter>
											<effect>
												<name>Gaussian Blur</name>
												<effectid>Gaussian Blur</effectid>
												<effectcategory>Blur</effectcategory>
												<effecttype>motion</effecttype>
												<mediatype>video</mediatype>
												<pproBypass>false</pproBypass>
												<parameter authoringApp="PremierePro">
													<parameterid>radius</parameterid>
													<name>Radius</name>
													<valuemin>0</valuemin>
													<valuemax>100</valuemax>
													<value>44</value>
												</parameter>
											</effect>
										</filter>
										<logginginfo>
											<description>Spider-Man Bust Cake Timelapse | Spider-Man Büst Pastası</description>
											<scene></scene>
											<shottake></shottake>
											<lognote>https://www.youtube.com/watch?v=xy1auMCMQs4</lognote>
											<good></good>
											<originalvideofilename></originalvideofilename>
											<originalaudiofilename></originalaudiofilename>
										</logginginfo>
										<colorinfo>
											<lut></lut>
											<lut1></lut1>
											<asc_sop></asc_sop>
											<asc_sat></asc_sat>
											<lut2></lut2>
										</colorinfo>
									</clipitem>
									<clipitem id="clipitem-575">
										<masterclipid>masterclip-131</masterclipid>
										<name>(Tuba Geçkil)_Spider-Man Bust Cake Timelapse _ Spider-Man Büst Pastası_xy1auMCMQs4_YT.mp4</name>
										<enabled>TRUE</enabled>
										<duration>21852</duration>
										<rate>
											<timebase>30</timebase>
											<ntsc>TRUE</ntsc>
										</rate>
										<start>3174</start>
										<end>3275</end>
										<in>16660</in>
										<out>16761</out>
										<pproTicksIn>141204615552000</pproTicksIn>
										<pproTicksOut>142060657939200</pproTicksOut>
										<alphatype>none</alphatype>
										<file id="file-131"/>
										<filter>
											<effect>
												<name>Gaussian Blur</name>
												<effectid>Gaussian Blur</effectid>
												<effectcategory>Blur</effectcategory>
												<effecttype>motion</effecttype>
												<mediatype>video</mediatype>
												<pproBypass>false</pproBypass>
												<parameter authoringApp="PremierePro">
													<parameterid>radius</parameterid>
													<name>Radius</name>
													<valuemin>0</valuemin>
													<valuemax>100</valuemax>
													<value>44</value>
												</parameter>
											</effect>
										</filter>
										<logginginfo>
											<description>Spider-Man Bust Cake Timelapse | Spider-Man Büst Pastası</description>
											<scene></scene>
											<shottake></shottake>
											<lognote>https://www.youtube.com/watch?v=xy1auMCMQs4</lognote>
											<good></good>
											<originalvideofilename></originalvideofilename>
											<originalaudiofilename></originalaudiofilename>
										</logginginfo>
										<colorinfo>
											<lut></lut>
											<lut1></lut1>
											<asc_sop></asc_sop>
											<asc_sat></asc_sat>
											<lut2></lut2>
										</colorinfo>
									</clipitem>
									<clipitem id="clipitem-576">
										<masterclipid>masterclip-131</masterclipid>
										<name>(Tuba Geçkil)_Spider-Man Bust Cake Timelapse _ Spider-Man Büst Pastası_xy1auMCMQs4_YT.mp4</name>
										<enabled>TRUE</enabled>
										<duration>21852</duration>
										<rate>
											<timebase>30</timebase>
											<ntsc>TRUE</ntsc>
										</rate>
										<start>3275</start>
										<end>3304</end>
										<in>17736</in>
										<out>17765</out>
										<pproTicksIn>150324433459200</pproTicksIn>
										<pproTicksOut>150570227808000</pproTicksOut>
										<alphatype>none</alphatype>
										<file id="file-131"/>
										<filter>
											<effect>
												<name>Gaussian Blur</name>
												<effectid>Gaussian Blur</effectid>
												<effectcategory>Blur</effectcategory>
												<effecttype>motion</effecttype>
												<mediatype>video</mediatype>
												<pproBypass>false</pproBypass>
												<parameter authoringApp="PremierePro">
													<parameterid>radius</parameterid>
													<name>Radius</name>
													<valuemin>0</valuemin>
													<valuemax>100</valuemax>
													<value>44</value>
												</parameter>
											</effect>
										</filter>
										<logginginfo>
											<description>Spider-Man Bust Cake Timelapse | Spider-Man Büst Pastası</description>
											<scene></scene>
											<shottake></shottake>
											<lognote>https://www.youtube.com/watch?v=xy1auMCMQs4</lognote>
											<good></good>
											<originalvideofilename></originalvideofilename>
											<originalaudiofilename></originalaudiofilename>
										</logginginfo>
										<colorinfo>
											<lut></lut>
											<lut1></lut1>
											<asc_sop></asc_sop>
											<asc_sat></asc_sat>
											<lut2></lut2>
										</colorinfo>
									</clipitem>
									<clipitem id="clipitem-577">
										<masterclipid>masterclip-131</masterclipid>
										<name>(Tuba Geçkil)_Spider-Man Bust Cake Timelapse _ Spider-Man Büst Pastası_xy1auMCMQs4_YT.mp4</name>
										<enabled>TRUE</enabled>
										<duration>21852</duration>
										<rate>
											<timebase>30</timebase>
											<ntsc>TRUE</ntsc>
										</rate>
										<start>3304</start>
										<end>3353</end>
										<in>18075</in>
										<out>18124</out>
										<pproTicksIn>153197684640000</pproTicksIn>
										<pproTicksOut>153612992332800</pproTicksOut>
										<alphatype>none</alphatype>
										<file id="file-131"/>
										<filter>
											<effect>
												<name>Gaussian Blur</name>
												<effectid>Gaussian Blur</effectid>
												<effectcategory>Blur</effectcategory>
												<effecttype>motion</effecttype>
												<mediatype>video</mediatype>
												<pproBypass>false</pproBypass>
												<parameter authoringApp="PremierePro">
													<parameterid>radius</parameterid>
													<name>Radius</name>
													<valuemin>0</valuemin>
													<valuemax>100</valuemax>
													<value>44</value>
												</parameter>
											</effect>
										</filter>
										<logginginfo>
											<description>Spider-Man Bust Cake Timelapse | Spider-Man Büst Pastası</description>
											<scene></scene>
											<shottake></shottake>
											<lognote>https://www.youtube.com/watch?v=xy1auMCMQs4</lognote>
											<good></good>
											<originalvideofilename></originalvideofilename>
											<originalaudiofilename></originalaudiofilename>
										</logginginfo>
										<colorinfo>
											<lut></lut>
											<lut1></lut1>
											<asc_sop></asc_sop>
											<asc_sat></asc_sat>
											<lut2></lut2>
										</colorinfo>
									</clipitem>
									<clipitem id="clipitem-578">
										<masterclipid>masterclip-131</masterclipid>
										<name>(Tuba Geçkil)_Spider-Man Bust Cake Timelapse _ Spider-Man Büst Pastası_xy1auMCMQs4_YT.mp4</name>
										<enabled>TRUE</enabled>
										<duration>21852</duration>
										<rate>
											<timebase>30</timebase>
											<ntsc>TRUE</ntsc>
										</rate>
										<start>3353</start>
										<end>3418</end>
										<in>19797</in>
										<out>19862</out>
										<pproTicksIn>167792783558400</pproTicksIn>
										<pproTicksOut>168343701926400</pproTicksOut>
										<alphatype>none</alphatype>
										<file id="file-131"/>
										<filter>
											<effect>
												<name>Gaussian Blur</name>
												<effectid>Gaussian Blur</effectid>
												<effectcategory>Blur</effectcategory>
												<effecttype>motion</effecttype>
												<mediatype>video</mediatype>
												<pproBypass>false</pproBypass>
												<parameter authoringApp="PremierePro">
													<parameterid>radius</parameterid>
													<name>Radius</name>
													<valuemin>0</valuemin>
													<valuemax>100</valuemax>
													<value>44</value>
												</parameter>
											</effect>
										</filter>
										<logginginfo>
											<description>Spider-Man Bust Cake Timelapse | Spider-Man Büst Pastası</description>
											<scene></scene>
											<shottake></shottake>
											<lognote>https://www.youtube.com/watch?v=xy1auMCMQs4</lognote>
											<good></good>
											<originalvideofilename></originalvideofilename>
											<originalaudiofilename></originalaudiofilename>
										</logginginfo>
										<colorinfo>
											<lut></lut>
											<lut1></lut1>
											<asc_sop></asc_sop>
											<asc_sat></asc_sat>
											<lut2></lut2>
										</colorinfo>
									</clipitem>
									<clipitem id="clipitem-579">
										<masterclipid>masterclip-131</masterclipid>
										<name>(Tuba Geçkil)_Spider-Man Bust Cake Timelapse _ Spider-Man Büst Pastası_xy1auMCMQs4_YT.mp4</name>
										<enabled>TRUE</enabled>
										<duration>21852</duration>
										<rate>
											<timebase>30</timebase>
											<ntsc>TRUE</ntsc>
										</rate>
										<start>3418</start>
										<end>3477</end>
										<in>21022</in>
										<out>21081</out>
										<pproTicksIn>178175475878400</pproTicksIn>
										<pproTicksOut>178675540243200</pproTicksOut>
										<alphatype>none</alphatype>
										<file id="file-131"/>
										<filter>
											<effect>
												<name>Gaussian Blur</name>
												<effectid>Gaussian Blur</effectid>
												<effectcategory>Blur</effectcategory>
												<effecttype>motion</effecttype>
												<mediatype>video</mediatype>
												<pproBypass>false</pproBypass>
												<parameter authoringApp="PremierePro">
													<parameterid>radius</parameterid>
													<name>Radius</name>
													<valuemin>0</valuemin>
													<valuemax>100</valuemax>
													<value>44</value>
												</parameter>
											</effect>
										</filter>
										<logginginfo>
											<description>Spider-Man Bust Cake Timelapse | Spider-Man Büst Pastası</description>
											<scene></scene>
											<shottake></shottake>
											<lognote>https://www.youtube.com/watch?v=xy1auMCMQs4</lognote>
											<good></good>
											<originalvideofilename></originalvideofilename>
											<originalaudiofilename></originalaudiofilename>
										</logginginfo>
										<colorinfo>
											<lut></lut>
											<lut1></lut1>
											<asc_sop></asc_sop>
											<asc_sat></asc_sat>
											<lut2></lut2>
										</colorinfo>
									</clipitem>
									<clipitem id="clipitem-580">
										<masterclipid>masterclip-131</masterclipid>
										<name>(Tuba Geçkil)_Spider-Man Bust Cake Timelapse _ Spider-Man Büst Pastası_xy1auMCMQs4_YT.mp4</name>
										<enabled>TRUE</enabled>
										<duration>21852</duration>
										<rate>
											<timebase>30</timebase>
											<ntsc>TRUE</ntsc>
										</rate>
										<start>3477</start>
										<end>3602</end>
										<in>0</in>
										<out>125</out>
										<pproTicksIn>0</pproTicksIn>
										<pproTicksOut>1059458400000</pproTicksOut>
										<alphatype>none</alphatype>
										<file id="file-131"/>
										<filter>
											<effect>
												<name>Gaussian Blur</name>
												<effectid>Gaussian Blur</effectid>
												<effectcategory>Blur</effectcategory>
												<effecttype>motion</effecttype>
												<mediatype>video</mediatype>
												<pproBypass>false</pproBypass>
												<parameter authoringApp="PremierePro">
													<parameterid>radius</parameterid>
													<name>Radius</name>
													<valuemin>0</valuemin>
													<valuemax>100</valuemax>
													<value>44</value>
												</parameter>
											</effect>
										</filter>
										<logginginfo>
											<description>Spider-Man Bust Cake Timelapse | Spider-Man Büst Pastası</description>
											<scene></scene>
											<shottake></shottake>
											<lognote>https://www.youtube.com/watch?v=xy1auMCMQs4</lognote>
											<good></good>
											<originalvideofilename></originalvideofilename>
											<originalaudiofilename></originalaudiofilename>
										</logginginfo>
										<colorinfo>
											<lut></lut>
											<lut1></lut1>
											<asc_sop></asc_sop>
											<asc_sat></asc_sat>
											<lut2></lut2>
										</colorinfo>
									</clipitem>
									<enabled>TRUE</enabled>
									<locked>FALSE</locked>
								</track>
								<track TL.SQTrackShy="0" TL.SQTrackExpandedHeight="25" TL.SQTrackExpanded="0" MZ.TrackTargeted="0">
									<clipitem id="clipitem-581">
										<masterclipid>masterclip-194</masterclipid>
										<name>Nested Sequence 04</name>
										<enabled>TRUE</enabled>
										<duration>2439</duration>
										<rate>
											<timebase>30</timebase>
											<ntsc>TRUE</ntsc>
										</rate>
										<start>0</start>
										<end>2439</end>
										<in>0</in>
										<out>2439</out>
										<pproTicksIn>0</pproTicksIn>
										<pproTicksOut>20672152300800</pproTicksOut>
										<sequence id="sequence-19"/>
										<labels>
											<label2>Forest</label2>
										</labels>
									</clipitem>
									<clipitem id="clipitem-582">
										<masterclipid>masterclip-195</masterclipid>
										<name>Tuba Geçkil</name>
										<enabled>TRUE</enabled>
										<duration>5844</duration>
										<rate>
											<timebase>30</timebase>
											<ntsc>TRUE</ntsc>
										</rate>
										<start>2439</start>
										<end>3602</end>
										<in>0</in>
										<out>1163</out>
										<pproTicksIn>0</pproTicksIn>
										<pproTicksOut>9857200953600</pproTicksOut>
										<alphatype>straight</alphatype>
										<pixelaspectratio>square</pixelaspectratio>
										<anamorphic>FALSE</anamorphic>
										<file id="file-192">
											<name>1080/AE Attribution.aep</name>
											<pathurl>file://localhost/Volumes/ATM%201/EYE%20CANDY/Project%20Template/5_Assets/AE%20Attribution.aep</pathurl>
											<rate>
												<timebase>30</timebase>
												<ntsc>TRUE</ntsc>
											</rate>
											<duration>5844</duration>
											<timecode>
												<rate>
													<timebase>30</timebase>
													<ntsc>TRUE</ntsc>
												</rate>
												<string>00;00;00;00</string>
												<frame>0</frame>
												<displayformat>DF</displayformat>
											</timecode>
											<media>
												<video>
													<samplecharacteristics>
														<rate>
															<timebase>30</timebase>
															<ntsc>TRUE</ntsc>
														</rate>
														<width>1920</width>
														<height>1080</height>
														<anamorphic>FALSE</anamorphic>
														<pixelaspectratio>square</pixelaspectratio>
														<fielddominance>lower</fielddominance>
													</samplecharacteristics>
												</video>
											</media>
										</file>
										<logginginfo>
											<description></description>
											<scene></scene>
											<shottake></shottake>
											<lognote></lognote>
											<good></good>
											<originalvideofilename></originalvideofilename>
											<originalaudiofilename></originalaudiofilename>
										</logginginfo>
										<colorinfo>
											<lut></lut>
											<lut1></lut1>
											<asc_sop></asc_sop>
											<asc_sat></asc_sat>
											<lut2></lut2>
										</colorinfo>
										<labels>
											<label2>Rose</label2>
										</labels>
									</clipitem>
									<enabled>TRUE</enabled>
									<locked>FALSE</locked>
								</track>
								<track TL.SQTrackShy="0" TL.SQTrackExpandedHeight="25" TL.SQTrackExpanded="0" MZ.TrackTargeted="0">
									<clipitem id="clipitem-583">
										<masterclipid>masterclip-196</masterclipid>
										<name>the.cookieholic</name>
										<enabled>TRUE</enabled>
										<duration>5844</duration>
										<rate>
											<timebase>30</timebase>
											<ntsc>TRUE</ntsc>
										</rate>
										<start>0</start>
										<end>834</end>
										<in>0</in>
										<out>834</out>
										<pproTicksIn>0</pproTicksIn>
										<pproTicksOut>7068706444800</pproTicksOut>
										<alphatype>straight</alphatype>
										<pixelaspectratio>square</pixelaspectratio>
										<anamorphic>FALSE</anamorphic>
										<file id="file-193">
											<name>1080/AE Attribution.aep</name>
											<pathurl>file://localhost/Volumes/ATM%201/EYE%20CANDY/Project%20Template/5_Assets/AE%20Attribution.aep</pathurl>
											<rate>
												<timebase>30</timebase>
												<ntsc>TRUE</ntsc>
											</rate>
											<duration>5844</duration>
											<timecode>
												<rate>
													<timebase>30</timebase>
													<ntsc>TRUE</ntsc>
												</rate>
												<string>00;00;00;00</string>
												<frame>0</frame>
												<displayformat>DF</displayformat>
											</timecode>
											<media>
												<video>
													<samplecharacteristics>
														<rate>
															<timebase>30</timebase>
															<ntsc>TRUE</ntsc>
														</rate>
														<width>1920</width>
														<height>1080</height>
														<anamorphic>FALSE</anamorphic>
														<pixelaspectratio>square</pixelaspectratio>
														<fielddominance>lower</fielddominance>
													</samplecharacteristics>
												</video>
											</media>
										</file>
										<logginginfo>
											<description></description>
											<scene></scene>
											<shottake></shottake>
											<lognote></lognote>
											<good></good>
											<originalvideofilename></originalvideofilename>
											<originalaudiofilename></originalaudiofilename>
										</logginginfo>
										<colorinfo>
											<lut></lut>
											<lut1></lut1>
											<asc_sop></asc_sop>
											<asc_sat></asc_sat>
											<lut2></lut2>
										</colorinfo>
										<labels>
											<label2>Rose</label2>
										</labels>
									</clipitem>
									<clipitem id="clipitem-584">
										<masterclipid>masterclip-197</masterclipid>
										<name>allyoucansweet</name>
										<enabled>TRUE</enabled>
										<duration>5844</duration>
										<rate>
											<timebase>30</timebase>
											<ntsc>TRUE</ntsc>
										</rate>
										<start>834</start>
										<end>1706</end>
										<in>0</in>
										<out>872</out>
										<pproTicksIn>0</pproTicksIn>
										<pproTicksOut>7390781798400</pproTicksOut>
										<alphatype>straight</alphatype>
										<pixelaspectratio>square</pixelaspectratio>
										<anamorphic>FALSE</anamorphic>
										<file id="file-194">
											<name>1080/AE Attribution.aep</name>
											<pathurl>file://localhost/Volumes/ATM%201/EYE%20CANDY/Project%20Template/5_Assets/AE%20Attribution.aep</pathurl>
											<rate>
												<timebase>30</timebase>
												<ntsc>TRUE</ntsc>
											</rate>
											<duration>5844</duration>
											<timecode>
												<rate>
													<timebase>30</timebase>
													<ntsc>TRUE</ntsc>
												</rate>
												<string>00;00;00;00</string>
												<frame>0</frame>
												<displayformat>DF</displayformat>
											</timecode>
											<media>
												<video>
													<samplecharacteristics>
														<rate>
															<timebase>30</timebase>
															<ntsc>TRUE</ntsc>
														</rate>
														<width>1920</width>
														<height>1080</height>
														<anamorphic>FALSE</anamorphic>
														<pixelaspectratio>square</pixelaspectratio>
														<fielddominance>lower</fielddominance>
													</samplecharacteristics>
												</video>
											</media>
										</file>
										<logginginfo>
											<description></description>
											<scene></scene>
											<shottake></shottake>
											<lognote></lognote>
											<good></good>
											<originalvideofilename></originalvideofilename>
											<originalaudiofilename></originalaudiofilename>
										</logginginfo>
										<colorinfo>
											<lut></lut>
											<lut1></lut1>
											<asc_sop></asc_sop>
											<asc_sat></asc_sat>
											<lut2></lut2>
										</colorinfo>
										<labels>
											<label2>Rose</label2>
										</labels>
									</clipitem>
									<clipitem id="clipitem-585">
										<masterclipid>masterclip-198</masterclipid>
										<name>_glazart</name>
										<enabled>TRUE</enabled>
										<duration>5844</duration>
										<rate>
											<timebase>30</timebase>
											<ntsc>TRUE</ntsc>
										</rate>
										<start>1706</start>
										<end>2439</end>
										<in>0</in>
										<out>733</out>
										<pproTicksIn>0</pproTicksIn>
										<pproTicksOut>6212664057600</pproTicksOut>
										<alphatype>straight</alphatype>
										<pixelaspectratio>square</pixelaspectratio>
										<anamorphic>FALSE</anamorphic>
										<file id="file-195">
											<name>1080/AE Attribution.aep</name>
											<pathurl>file://localhost/Volumes/ATM%201/EYE%20CANDY/Project%20Template/5_Assets/AE%20Attribution.aep</pathurl>
											<rate>
												<timebase>30</timebase>
												<ntsc>TRUE</ntsc>
											</rate>
											<duration>5844</duration>
											<timecode>
												<rate>
													<timebase>30</timebase>
													<ntsc>TRUE</ntsc>
												</rate>
												<string>00;00;00;00</string>
												<frame>0</frame>
												<displayformat>DF</displayformat>
											</timecode>
											<media>
												<video>
													<samplecharacteristics>
														<rate>
															<timebase>30</timebase>
															<ntsc>TRUE</ntsc>
														</rate>
														<width>1920</width>
														<height>1080</height>
														<anamorphic>FALSE</anamorphic>
														<pixelaspectratio>square</pixelaspectratio>
														<fielddominance>lower</fielddominance>
													</samplecharacteristics>
												</video>
											</media>
										</file>
										<logginginfo>
											<description></description>
											<scene></scene>
											<shottake></shottake>
											<lognote></lognote>
											<good></good>
											<originalvideofilename></originalvideofilename>
											<originalaudiofilename></originalaudiofilename>
										</logginginfo>
										<colorinfo>
											<lut></lut>
											<lut1></lut1>
											<asc_sop></asc_sop>
											<asc_sat></asc_sat>
											<lut2></lut2>
										</colorinfo>
										<labels>
											<label2>Rose</label2>
										</labels>
									</clipitem>
									<enabled>TRUE</enabled>
									<locked>FALSE</locked>
								</track>
								<track TL.SQTrackShy="0" TL.SQTrackExpandedHeight="25" TL.SQTrackExpanded="0" MZ.TrackTargeted="0">
									<enabled>TRUE</enabled>
									<locked>FALSE</locked>
								</track>
								<track TL.SQTrackShy="0" TL.SQTrackExpandedHeight="25" TL.SQTrackExpanded="0" MZ.TrackTargeted="0">
									<enabled>TRUE</enabled>
									<locked>FALSE</locked>
								</track>
								<track TL.SQTrackShy="0" TL.SQTrackExpandedHeight="25" TL.SQTrackExpanded="0" MZ.TrackTargeted="0">
									<enabled>TRUE</enabled>
									<locked>FALSE</locked>
								</track>
								<track TL.SQTrackShy="0" TL.SQTrackExpandedHeight="25" TL.SQTrackExpanded="0" MZ.TrackTargeted="0">
									<enabled>TRUE</enabled>
									<locked>FALSE</locked>
								</track>
								<track TL.SQTrackShy="0" TL.SQTrackExpandedHeight="25" TL.SQTrackExpanded="0" MZ.TrackTargeted="0">
									<enabled>TRUE</enabled>
									<locked>FALSE</locked>
								</track>
								<track TL.SQTrackShy="0" TL.SQTrackExpandedHeight="25" TL.SQTrackExpanded="0" MZ.TrackTargeted="0">
									<enabled>TRUE</enabled>
									<locked>FALSE</locked>
								</track>
								<track TL.SQTrackShy="0" TL.SQTrackExpandedHeight="25" TL.SQTrackExpanded="0" MZ.TrackTargeted="0">
									<enabled>TRUE</enabled>
									<locked>FALSE</locked>
								</track>
							</video>
							<audio>
								<numOutputChannels>2</numOutputChannels>
								<format>
									<samplecharacteristics>
										<depth>16</depth>
										<samplerate>48000</samplerate>
									</samplecharacteristics>
								</format>
								<outputs>
									<group>
										<index>1</index>
										<numchannels>1</numchannels>
										<downmix>0</downmix>
										<channel>
											<index>1</index>
										</channel>
									</group>
									<group>
										<index>2</index>
										<numchannels>1</numchannels>
										<downmix>0</downmix>
										<channel>
											<index>2</index>
										</channel>
									</group>
								</outputs>
								<track TL.SQTrackAudioKeyframeStyle="0" TL.SQTrackShy="0" TL.SQTrackExpandedHeight="25" TL.SQTrackExpanded="0" MZ.TrackTargeted="1" PannerCurrentValue="0.5" PannerIsInverted="true" PannerStartKeyframe="-91445760000000000,0.5,0,0,0,0,0,0" PannerName="Balance" currentExplodedTrackIndex="0" totalExplodedTrackCount="2" premiereTrackType="Stereo">
									<clipitem id="clipitem-586" premiereChannelType="stereo">
										<masterclipid>masterclip-199</masterclipid>
										<name>ES_Get in and Go - Dream Cave.mp3</name>
										<enabled>TRUE</enabled>
										<duration>3980</duration>
										<rate>
											<timebase>30</timebase>
											<ntsc>TRUE</ntsc>
										</rate>
										<start>0</start>
										<end>3602</end>
										<in>0</in>
										<out>3602</out>
										<pproTicksIn>0</pproTicksIn>
										<pproTicksOut>30529353254400</pproTicksOut>
										<file id="file-196">
											<name>ES_Get in and Go - Dream Cave.mp3</name>
											<pathurl>file://localhost/Volumes/ATM%201/EYE%20CANDY/8%3a21%3a23/5_Assets/Music/ES_Get%20in%20and%20Go%20-%20Dream%20Cave.mp3</pathurl>
											<rate>
												<timebase>30</timebase>
												<ntsc>TRUE</ntsc>
											</rate>
											<duration>3980</duration>
											<timecode>
												<rate>
													<timebase>30</timebase>
													<ntsc>TRUE</ntsc>
												</rate>
												<string>00;00;00;00</string>
												<frame>0</frame>
												<displayformat>DF</displayformat>
											</timecode>
											<media>
												<audio>
													<samplecharacteristics>
														<depth>16</depth>
														<samplerate>48000</samplerate>
													</samplecharacteristics>
													<channelcount>2</channelcount>
												</audio>
											</media>
										</file>
										<sourcetrack>
											<mediatype>audio</mediatype>
											<trackindex>1</trackindex>
										</sourcetrack>
										<link>
											<linkclipref>clipitem-586</linkclipref>
											<mediatype>audio</mediatype>
											<trackindex>1</trackindex>
											<clipindex>1</clipindex>
											<groupindex>1</groupindex>
										</link>
										<link>
											<linkclipref>clipitem-587</linkclipref>
											<mediatype>audio</mediatype>
											<trackindex>2</trackindex>
											<clipindex>1</clipindex>
											<groupindex>1</groupindex>
										</link>
										<logginginfo>
											<description></description>
											<scene></scene>
											<shottake></shottake>
											<lognote></lognote>
											<good></good>
											<originalvideofilename></originalvideofilename>
											<originalaudiofilename></originalaudiofilename>
										</logginginfo>
										<colorinfo>
											<lut></lut>
											<lut1></lut1>
											<asc_sop></asc_sop>
											<asc_sat></asc_sat>
											<lut2></lut2>
										</colorinfo>
										<labels>
											<label2>Caribbean</label2>
										</labels>
									</clipitem>
									<enabled>TRUE</enabled>
									<locked>FALSE</locked>
									<filter>
										<effect>
											<name>Audio Levels</name>
											<effectid>audiolevels</effectid>
											<effectcategory>audiolevels</effectcategory>
											<effecttype>audiolevels</effecttype>
											<mediatype>audio</mediatype>
											<parameter authoringApp="PremierePro">
												<parameterid>level</parameterid>
												<name>Level</name>
												<valuemin>0</valuemin>
												<valuemax>3.98109</valuemax>
												<value>0.706272</value>
											</parameter>
										</effect>
									</filter>
									<outputchannelindex>1</outputchannelindex>
								</track>
								<track TL.SQTrackAudioKeyframeStyle="0" TL.SQTrackShy="0" TL.SQTrackExpandedHeight="25" TL.SQTrackExpanded="0" MZ.TrackTargeted="1" PannerCurrentValue="0.5" PannerIsInverted="true" PannerStartKeyframe="-91445760000000000,0.5,0,0,0,0,0,0" PannerName="Balance" currentExplodedTrackIndex="1" totalExplodedTrackCount="2" premiereTrackType="Stereo">
									<clipitem id="clipitem-587" premiereChannelType="stereo">
										<masterclipid>masterclip-199</masterclipid>
										<name>ES_Get in and Go - Dream Cave.mp3</name>
										<enabled>TRUE</enabled>
										<duration>3980</duration>
										<rate>
											<timebase>30</timebase>
											<ntsc>TRUE</ntsc>
										</rate>
										<start>0</start>
										<end>3602</end>
										<in>0</in>
										<out>3602</out>
										<pproTicksIn>0</pproTicksIn>
										<pproTicksOut>30529353254400</pproTicksOut>
										<file id="file-196"/>
										<sourcetrack>
											<mediatype>audio</mediatype>
											<trackindex>2</trackindex>
										</sourcetrack>
										<link>
											<linkclipref>clipitem-586</linkclipref>
											<mediatype>audio</mediatype>
											<trackindex>1</trackindex>
											<clipindex>1</clipindex>
											<groupindex>1</groupindex>
										</link>
										<link>
											<linkclipref>clipitem-587</linkclipref>
											<mediatype>audio</mediatype>
											<trackindex>2</trackindex>
											<clipindex>1</clipindex>
											<groupindex>1</groupindex>
										</link>
										<logginginfo>
											<description></description>
											<scene></scene>
											<shottake></shottake>
											<lognote></lognote>
											<good></good>
											<originalvideofilename></originalvideofilename>
											<originalaudiofilename></originalaudiofilename>
										</logginginfo>
										<colorinfo>
											<lut></lut>
											<lut1></lut1>
											<asc_sop></asc_sop>
											<asc_sat></asc_sat>
											<lut2></lut2>
										</colorinfo>
										<labels>
											<label2>Caribbean</label2>
										</labels>
									</clipitem>
									<enabled>TRUE</enabled>
									<locked>FALSE</locked>
									<filter>
										<effect>
											<name>Audio Levels</name>
											<effectid>audiolevels</effectid>
											<effectcategory>audiolevels</effectcategory>
											<effecttype>audiolevels</effecttype>
											<mediatype>audio</mediatype>
											<parameter authoringApp="PremierePro">
												<parameterid>level</parameterid>
												<name>Level</name>
												<valuemin>0</valuemin>
												<valuemax>3.98109</valuemax>
												<value>0.706272</value>
											</parameter>
										</effect>
									</filter>
									<outputchannelindex>2</outputchannelindex>
								</track>
								<track TL.SQTrackAudioKeyframeStyle="0" TL.SQTrackShy="0" TL.SQTrackExpandedHeight="25" TL.SQTrackExpanded="0" MZ.TrackTargeted="0" PannerCurrentValue="0.5" PannerIsInverted="true" PannerStartKeyframe="-91445760000000000,0.5,0,0,0,0,0,0" PannerName="Balance" currentExplodedTrackIndex="0" totalExplodedTrackCount="2" premiereTrackType="Stereo">
									<enabled>TRUE</enabled>
									<locked>FALSE</locked>
									<outputchannelindex>1</outputchannelindex>
								</track>
								<track TL.SQTrackAudioKeyframeStyle="0" TL.SQTrackShy="0" TL.SQTrackExpandedHeight="25" TL.SQTrackExpanded="0" MZ.TrackTargeted="0" PannerCurrentValue="0.5" PannerIsInverted="true" PannerStartKeyframe="-91445760000000000,0.5,0,0,0,0,0,0" PannerName="Balance" currentExplodedTrackIndex="1" totalExplodedTrackCount="2" premiereTrackType="Stereo">
									<enabled>TRUE</enabled>
									<locked>FALSE</locked>
									<outputchannelindex>2</outputchannelindex>
								</track>
								<track TL.SQTrackAudioKeyframeStyle="0" TL.SQTrackShy="0" TL.SQTrackExpandedHeight="25" TL.SQTrackExpanded="0" MZ.TrackTargeted="0" PannerCurrentValue="0.5" PannerIsInverted="true" PannerStartKeyframe="-91445760000000000,0.5,0,0,0,0,0,0" PannerName="Balance" currentExplodedTrackIndex="0" totalExplodedTrackCount="2" premiereTrackType="Stereo">
									<enabled>TRUE</enabled>
									<locked>FALSE</locked>
									<outputchannelindex>1</outputchannelindex>
								</track>
								<track TL.SQTrackAudioKeyframeStyle="0" TL.SQTrackShy="0" TL.SQTrackExpandedHeight="25" TL.SQTrackExpanded="0" MZ.TrackTargeted="0" PannerCurrentValue="0.5" PannerIsInverted="true" PannerStartKeyframe="-91445760000000000,0.5,0,0,0,0,0,0" PannerName="Balance" currentExplodedTrackIndex="1" totalExplodedTrackCount="2" premiereTrackType="Stereo">
									<enabled>TRUE</enabled>
									<locked>FALSE</locked>
									<outputchannelindex>2</outputchannelindex>
								</track>
								<track TL.SQTrackAudioKeyframeStyle="0" TL.SQTrackShy="0" TL.SQTrackExpandedHeight="25" TL.SQTrackExpanded="0" MZ.TrackTargeted="0" PannerCurrentValue="0.5" PannerIsInverted="true" PannerStartKeyframe="-91445760000000000,0.5,0,0,0,0,0,0" PannerName="Balance" currentExplodedTrackIndex="0" totalExplodedTrackCount="2" premiereTrackType="Stereo">
									<enabled>TRUE</enabled>
									<locked>FALSE</locked>
									<outputchannelindex>1</outputchannelindex>
								</track>
								<track TL.SQTrackAudioKeyframeStyle="0" TL.SQTrackShy="0" TL.SQTrackExpandedHeight="25" TL.SQTrackExpanded="0" MZ.TrackTargeted="0" PannerCurrentValue="0.5" PannerIsInverted="true" PannerStartKeyframe="-91445760000000000,0.5,0,0,0,0,0,0" PannerName="Balance" currentExplodedTrackIndex="1" totalExplodedTrackCount="2" premiereTrackType="Stereo">
									<enabled>TRUE</enabled>
									<locked>FALSE</locked>
									<outputchannelindex>2</outputchannelindex>
								</track>
								<track TL.SQTrackAudioKeyframeStyle="0" TL.SQTrackShy="0" TL.SQTrackExpandedHeight="25" TL.SQTrackExpanded="0" MZ.TrackTargeted="0" PannerCurrentValue="0.5" PannerIsInverted="true" PannerStartKeyframe="-91445760000000000,0.5,0,0,0,0,0,0" PannerName="Balance" currentExplodedTrackIndex="0" totalExplodedTrackCount="2" premiereTrackType="Stereo">
									<enabled>TRUE</enabled>
									<locked>FALSE</locked>
									<outputchannelindex>1</outputchannelindex>
								</track>
								<track TL.SQTrackAudioKeyframeStyle="0" TL.SQTrackShy="0" TL.SQTrackExpandedHeight="25" TL.SQTrackExpanded="0" MZ.TrackTargeted="0" PannerCurrentValue="0.5" PannerIsInverted="true" PannerStartKeyframe="-91445760000000000,0.5,0,0,0,0,0,0" PannerName="Balance" currentExplodedTrackIndex="1" totalExplodedTrackCount="2" premiereTrackType="Stereo">
									<enabled>TRUE</enabled>
									<locked>FALSE</locked>
									<outputchannelindex>2</outputchannelindex>
								</track>
								<track TL.SQTrackAudioKeyframeStyle="0" TL.SQTrackShy="0" TL.SQTrackExpandedHeight="25" TL.SQTrackExpanded="0" MZ.TrackTargeted="0" PannerCurrentValue="0.5" PannerIsInverted="true" PannerStartKeyframe="-91445760000000000,0.5,0,0,0,0,0,0" PannerName="Balance" currentExplodedTrackIndex="0" totalExplodedTrackCount="2" premiereTrackType="Stereo">
									<enabled>TRUE</enabled>
									<locked>FALSE</locked>
									<outputchannelindex>1</outputchannelindex>
								</track>
								<track TL.SQTrackAudioKeyframeStyle="0" TL.SQTrackShy="0" TL.SQTrackExpandedHeight="25" TL.SQTrackExpanded="0" MZ.TrackTargeted="0" PannerCurrentValue="0.5" PannerIsInverted="true" PannerStartKeyframe="-91445760000000000,0.5,0,0,0,0,0,0" PannerName="Balance" currentExplodedTrackIndex="1" totalExplodedTrackCount="2" premiereTrackType="Stereo">
									<enabled>TRUE</enabled>
									<locked>FALSE</locked>
									<outputchannelindex>2</outputchannelindex>
								</track>
								<track TL.SQTrackAudioKeyframeStyle="0" TL.SQTrackShy="0" TL.SQTrackExpandedHeight="25" TL.SQTrackExpanded="0" MZ.TrackTargeted="0" PannerCurrentValue="0.5" PannerIsInverted="true" PannerStartKeyframe="-91445760000000000,0.5,0,0,0,0,0,0" PannerName="Balance" currentExplodedTrackIndex="0" totalExplodedTrackCount="2" premiereTrackType="Stereo">
									<enabled>TRUE</enabled>
									<locked>FALSE</locked>
									<outputchannelindex>1</outputchannelindex>
								</track>
								<track TL.SQTrackAudioKeyframeStyle="0" TL.SQTrackShy="0" TL.SQTrackExpandedHeight="25" TL.SQTrackExpanded="0" MZ.TrackTargeted="0" PannerCurrentValue="0.5" PannerIsInverted="true" PannerStartKeyframe="-91445760000000000,0.5,0,0,0,0,0,0" PannerName="Balance" currentExplodedTrackIndex="1" totalExplodedTrackCount="2" premiereTrackType="Stereo">
									<enabled>TRUE</enabled>
									<locked>FALSE</locked>
									<outputchannelindex>2</outputchannelindex>
								</track>
								<track TL.SQTrackAudioKeyframeStyle="0" TL.SQTrackShy="0" TL.SQTrackExpandedHeight="25" TL.SQTrackExpanded="0" MZ.TrackTargeted="0" PannerCurrentValue="0.5" PannerIsInverted="true" PannerStartKeyframe="-91445760000000000,0.5,0,0,0,0,0,0" PannerName="Balance" currentExplodedTrackIndex="0" totalExplodedTrackCount="2" premiereTrackType="Stereo">
									<enabled>TRUE</enabled>
									<locked>FALSE</locked>
									<outputchannelindex>1</outputchannelindex>
								</track>
								<track TL.SQTrackAudioKeyframeStyle="0" TL.SQTrackShy="0" TL.SQTrackExpandedHeight="25" TL.SQTrackExpanded="0" MZ.TrackTargeted="0" PannerCurrentValue="0.5" PannerIsInverted="true" PannerStartKeyframe="-91445760000000000,0.5,0,0,0,0,0,0" PannerName="Balance" currentExplodedTrackIndex="1" totalExplodedTrackCount="2" premiereTrackType="Stereo">
									<enabled>TRUE</enabled>
									<locked>FALSE</locked>
									<outputchannelindex>2</outputchannelindex>
								</track>
								<track TL.SQTrackAudioKeyframeStyle="0" TL.SQTrackShy="0" TL.SQTrackExpandedHeight="25" TL.SQTrackExpanded="0" MZ.TrackTargeted="0" PannerCurrentValue="0.5" PannerIsInverted="true" PannerStartKeyframe="-91445760000000000,0.5,0,0,0,0,0,0" PannerName="Balance" currentExplodedTrackIndex="0" totalExplodedTrackCount="2" premiereTrackType="Stereo">
									<enabled>TRUE</enabled>
									<locked>FALSE</locked>
									<outputchannelindex>1</outputchannelindex>
								</track>
								<track TL.SQTrackAudioKeyframeStyle="0" TL.SQTrackShy="0" TL.SQTrackExpandedHeight="25" TL.SQTrackExpanded="0" MZ.TrackTargeted="0" PannerCurrentValue="0.5" PannerIsInverted="true" PannerStartKeyframe="-91445760000000000,0.5,0,0,0,0,0,0" PannerName="Balance" currentExplodedTrackIndex="1" totalExplodedTrackCount="2" premiereTrackType="Stereo">
									<enabled>TRUE</enabled>
									<locked>FALSE</locked>
									<outputchannelindex>2</outputchannelindex>
								</track>
								<track TL.SQTrackAudioKeyframeStyle="0" TL.SQTrackShy="0" TL.SQTrackExpandedHeight="25" TL.SQTrackExpanded="0" MZ.TrackTargeted="0" PannerCurrentValue="0.5" PannerIsInverted="true" PannerStartKeyframe="-91445760000000000,0.5,0,0,0,0,0,0" PannerName="Balance" currentExplodedTrackIndex="0" totalExplodedTrackCount="2" premiereTrackType="Stereo">
									<enabled>TRUE</enabled>
									<locked>FALSE</locked>
									<outputchannelindex>1</outputchannelindex>
								</track>
								<track TL.SQTrackAudioKeyframeStyle="0" TL.SQTrackShy="0" TL.SQTrackExpandedHeight="25" TL.SQTrackExpanded="0" MZ.TrackTargeted="0" PannerCurrentValue="0.5" PannerIsInverted="true" PannerStartKeyframe="-91445760000000000,0.5,0,0,0,0,0,0" PannerName="Balance" currentExplodedTrackIndex="1" totalExplodedTrackCount="2" premiereTrackType="Stereo">
									<enabled>TRUE</enabled>
									<locked>FALSE</locked>
									<outputchannelindex>2</outputchannelindex>
								</track>
							</audio>
						</media>
						<timecode>
							<rate>
								<timebase>30</timebase>
								<ntsc>TRUE</ntsc>
							</rate>
							<string>00;00;00;00</string>
							<frame>0</frame>
							<displayformat>DF</displayformat>
						</timecode>
						<labels>
							<label2>Forest</label2>
						</labels>
						<logginginfo>
							<description></description>
							<scene></scene>
							<shottake></shottake>
							<lognote></lognote>
							<good></good>
							<originalvideofilename></originalvideofilename>
							<originalaudiofilename></originalaudiofilename>
						</logginginfo>
					</sequence>
					<sequence id="sequence-20" TL.SQAudioVisibleBase="0" TL.SQVideoVisibleBase="0" TL.SQVisibleBaseTime="0" TL.SQAVDividerPosition="0.5" TL.SQHideShyTracks="0" TL.SQHeaderWidth="236" TL.SQDataTrackViewControlState="0" Monitor.ProgramZoomOut="21740086368000" Monitor.ProgramZoomIn="0" TL.SQTimePerPixel="0.082744630261303506" AM.TrackVScrollPosition="0" AM.TrackScrollPosition="0" MZ.EditLine="18205733145600" MZ.Sequence.PreviewFrameSizeHeight="1080" MZ.Sequence.PreviewFrameSizeWidth="1920" MZ.Sequence.AudioTimeDisplayFormat="200" MZ.Sequence.PreviewRenderingClassID="1061109567" MZ.Sequence.PreviewRenderingPresetCodec="1634755443" MZ.Sequence.PreviewRenderingPresetPath="EncoderPresets/SequencePreview/35d109db-457b-43c1-9452-9cb7be9f121c/QuickTime.epr" MZ.Sequence.PreviewUseMaxRenderQuality="false" MZ.Sequence.PreviewUseMaxBitDepth="false" MZ.Sequence.EditingModeGUID="35d109db-457b-43c1-9452-9cb7be9f121c" MZ.Sequence.VideoTimeDisplayFormat="102" MZ.WorkOutPoint="1262874412800" MZ.WorkInPoint="0" explodedTracks="true">
						<uuid>50e0c16c-ad29-4b2f-baa7-73cdf01ed6db</uuid>
						<duration>2565</duration>
						<rate>
							<timebase>30</timebase>
							<ntsc>TRUE</ntsc>
						</rate>
						<name>FND_Cookie Cups of Fun_1.5</name>
						<media>
							<video>
								<format>
									<samplecharacteristics>
										<rate>
											<timebase>30</timebase>
											<ntsc>TRUE</ntsc>
										</rate>
										<codec>
											<name>Apple ProRes 422</name>
											<appspecificdata>
												<appname>Final Cut Pro</appname>
												<appmanufacturer>Apple Inc.</appmanufacturer>
												<appversion>7.0</appversion>
												<data>
													<qtcodec>
														<codecname>Apple ProRes 422</codecname>
														<codectypename>Apple ProRes 422</codectypename>
														<codectypecode>apcn</codectypecode>
														<codecvendorcode>appl</codecvendorcode>
														<spatialquality>1024</spatialquality>
														<temporalquality>0</temporalquality>
														<keyframerate>0</keyframerate>
														<datarate>0</datarate>
													</qtcodec>
												</data>
											</appspecificdata>
										</codec>
										<width>1920</width>
										<height>1080</height>
										<anamorphic>FALSE</anamorphic>
										<pixelaspectratio>square</pixelaspectratio>
										<fielddominance>none</fielddominance>
										<colordepth>24</colordepth>
									</samplecharacteristics>
								</format>
								<track TL.SQTrackShy="0" TL.SQTrackExpandedHeight="25" TL.SQTrackExpanded="0" MZ.TrackTargeted="1">
									<clipitem id="clipitem-588">
										<masterclipid>masterclip-135</masterclipid>
										<name>(eatsbyrachel)_How to Make Berry &amp; Lemon Cookie Cups_2h61YhqQvUk_YT.mp4</name>
										<enabled>TRUE</enabled>
										<duration>8573</duration>
										<rate>
											<timebase>30</timebase>
											<ntsc>TRUE</ntsc>
										</rate>
										<start>0</start>
										<end>134</end>
										<in>565</in>
										<out>699</out>
										<pproTicksIn>4788751968000</pproTicksIn>
										<pproTicksOut>5924491372800</pproTicksOut>
										<alphatype>none</alphatype>
										<file id="file-135"/>
										<logginginfo>
											<description>How to Make Berry &amp; Lemon Cookie Cups</description>
											<scene></scene>
											<shottake></shottake>
											<lognote>https://www.youtube.com/watch?v=2h61YhqQvUk</lognote>
											<good></good>
											<originalvideofilename></originalvideofilename>
											<originalaudiofilename></originalaudiofilename>
										</logginginfo>
										<colorinfo>
											<lut></lut>
											<lut1></lut1>
											<asc_sop></asc_sop>
											<asc_sat></asc_sat>
											<lut2></lut2>
										</colorinfo>
									</clipitem>
									<clipitem id="clipitem-589">
										<masterclipid>masterclip-135</masterclipid>
										<name>(eatsbyrachel)_How to Make Berry &amp; Lemon Cookie Cups_2h61YhqQvUk_YT.mp4</name>
										<enabled>TRUE</enabled>
										<duration>8573</duration>
										<rate>
											<timebase>30</timebase>
											<ntsc>TRUE</ntsc>
										</rate>
										<start>134</start>
										<end>197</end>
										<in>754</in>
										<out>817</out>
										<pproTicksIn>6390653068800</pproTicksIn>
										<pproTicksOut>6924620102400</pproTicksOut>
										<alphatype>none</alphatype>
										<file id="file-135"/>
										<logginginfo>
											<description>How to Make Berry &amp; Lemon Cookie Cups</description>
											<scene></scene>
											<shottake></shottake>
											<lognote>https://www.youtube.com/watch?v=2h61YhqQvUk</lognote>
											<good></good>
											<originalvideofilename></originalvideofilename>
											<originalaudiofilename></originalaudiofilename>
										</logginginfo>
										<colorinfo>
											<lut></lut>
											<lut1></lut1>
											<asc_sop></asc_sop>
											<asc_sat></asc_sat>
											<lut2></lut2>
										</colorinfo>
									</clipitem>
									<clipitem id="clipitem-590">
										<masterclipid>masterclip-135</masterclipid>
										<name>(eatsbyrachel)_How to Make Berry &amp; Lemon Cookie Cups_2h61YhqQvUk_YT.mp4</name>
										<enabled>TRUE</enabled>
										<duration>8573</duration>
										<rate>
											<timebase>30</timebase>
											<ntsc>TRUE</ntsc>
										</rate>
										<start>197</start>
										<end>219</end>
										<in>916</in>
										<out>938</out>
										<pproTicksIn>7763711155200</pproTicksIn>
										<pproTicksOut>7950175833600</pproTicksOut>
										<alphatype>none</alphatype>
										<file id="file-135"/>
										<logginginfo>
											<description>How to Make Berry &amp; Lemon Cookie Cups</description>
											<scene></scene>
											<shottake></shottake>
											<lognote>https://www.youtube.com/watch?v=2h61YhqQvUk</lognote>
											<good></good>
											<originalvideofilename></originalvideofilename>
											<originalaudiofilename></originalaudiofilename>
										</logginginfo>
										<colorinfo>
											<lut></lut>
											<lut1></lut1>
											<asc_sop></asc_sop>
											<asc_sat></asc_sat>
											<lut2></lut2>
										</colorinfo>
									</clipitem>
									<clipitem id="clipitem-591">
										<masterclipid>masterclip-135</masterclipid>
										<name>(eatsbyrachel)_How to Make Berry &amp; Lemon Cookie Cups_2h61YhqQvUk_YT.mp4</name>
										<enabled>TRUE</enabled>
										<duration>8573</duration>
										<rate>
											<timebase>30</timebase>
											<ntsc>TRUE</ntsc>
										</rate>
										<start>219</start>
										<end>243</end>
										<in>1013</in>
										<out>1037</out>
										<pproTicksIn>8585850873600</pproTicksIn>
										<pproTicksOut>8789266886400</pproTicksOut>
										<alphatype>none</alphatype>
										<file id="file-135"/>
										<logginginfo>
											<description>How to Make Berry &amp; Lemon Cookie Cups</description>
											<scene></scene>
											<shottake></shottake>
											<lognote>https://www.youtube.com/watch?v=2h61YhqQvUk</lognote>
											<good></good>
											<originalvideofilename></originalvideofilename>
											<originalaudiofilename></originalaudiofilename>
										</logginginfo>
										<colorinfo>
											<lut></lut>
											<lut1></lut1>
											<asc_sop></asc_sop>
											<asc_sat></asc_sat>
											<lut2></lut2>
										</colorinfo>
									</clipitem>
									<clipitem id="clipitem-592">
										<masterclipid>masterclip-135</masterclipid>
										<name>(eatsbyrachel)_How to Make Berry &amp; Lemon Cookie Cups_2h61YhqQvUk_YT.mp4</name>
										<enabled>TRUE</enabled>
										<duration>8573</duration>
										<rate>
											<timebase>30</timebase>
											<ntsc>TRUE</ntsc>
										</rate>
										<start>243</start>
										<end>310</end>
										<in>1095</in>
										<out>1162</out>
										<pproTicksIn>9280855584000</pproTicksIn>
										<pproTicksOut>9848725286400</pproTicksOut>
										<alphatype>none</alphatype>
										<file id="file-135"/>
										<logginginfo>
											<description>How to Make Berry &amp; Lemon Cookie Cups</description>
											<scene></scene>
											<shottake></shottake>
											<lognote>https://www.youtube.com/watch?v=2h61YhqQvUk</lognote>
											<good></good>
											<originalvideofilename></originalvideofilename>
											<originalaudiofilename></originalaudiofilename>
										</logginginfo>
										<colorinfo>
											<lut></lut>
											<lut1></lut1>
											<asc_sop></asc_sop>
											<asc_sat></asc_sat>
											<lut2></lut2>
										</colorinfo>
									</clipitem>
									<clipitem id="clipitem-593">
										<masterclipid>masterclip-135</masterclipid>
										<name>(eatsbyrachel)_How to Make Berry &amp; Lemon Cookie Cups_2h61YhqQvUk_YT.mp4</name>
										<enabled>TRUE</enabled>
										<duration>8573</duration>
										<rate>
											<timebase>30</timebase>
											<ntsc>TRUE</ntsc>
										</rate>
										<start>310</start>
										<end>351</end>
										<in>1250</in>
										<out>1291</out>
										<pproTicksIn>10594584000000</pproTicksIn>
										<pproTicksOut>10942086355200</pproTicksOut>
										<alphatype>none</alphatype>
										<file id="file-135"/>
										<logginginfo>
											<description>How to Make Berry &amp; Lemon Cookie Cups</description>
											<scene></scene>
											<shottake></shottake>
											<lognote>https://www.youtube.com/watch?v=2h61YhqQvUk</lognote>
											<good></good>
											<originalvideofilename></originalvideofilename>
											<originalaudiofilename></originalaudiofilename>
										</logginginfo>
										<colorinfo>
											<lut></lut>
											<lut1></lut1>
											<asc_sop></asc_sop>
											<asc_sat></asc_sat>
											<lut2></lut2>
										</colorinfo>
									</clipitem>
									<clipitem id="clipitem-594">
										<masterclipid>masterclip-135</masterclipid>
										<name>(eatsbyrachel)_How to Make Berry &amp; Lemon Cookie Cups_2h61YhqQvUk_YT.mp4</name>
										<enabled>TRUE</enabled>
										<duration>8573</duration>
										<rate>
											<timebase>30</timebase>
											<ntsc>TRUE</ntsc>
										</rate>
										<start>351</start>
										<end>382</end>
										<in>1320</in>
										<out>1351</out>
										<pproTicksIn>11187880704000</pproTicksIn>
										<pproTicksOut>11450626387200</pproTicksOut>
										<alphatype>none</alphatype>
										<file id="file-135"/>
										<logginginfo>
											<description>How to Make Berry &amp; Lemon Cookie Cups</description>
											<scene></scene>
											<shottake></shottake>
											<lognote>https://www.youtube.com/watch?v=2h61YhqQvUk</lognote>
											<good></good>
											<originalvideofilename></originalvideofilename>
											<originalaudiofilename></originalaudiofilename>
										</logginginfo>
										<colorinfo>
											<lut></lut>
											<lut1></lut1>
											<asc_sop></asc_sop>
											<asc_sat></asc_sat>
											<lut2></lut2>
										</colorinfo>
									</clipitem>
									<clipitem id="clipitem-595">
										<masterclipid>masterclip-135</masterclipid>
										<name>(eatsbyrachel)_How to Make Berry &amp; Lemon Cookie Cups_2h61YhqQvUk_YT.mp4</name>
										<enabled>TRUE</enabled>
										<duration>8573</duration>
										<rate>
											<timebase>30</timebase>
											<ntsc>TRUE</ntsc>
										</rate>
										<start>382</start>
										<end>526</end>
										<in>1387</in>
										<out>1531</out>
										<pproTicksIn>11755750406400</pproTicksIn>
										<pproTicksOut>12976246483200</pproTicksOut>
										<alphatype>none</alphatype>
										<file id="file-135"/>
										<logginginfo>
											<description>How to Make Berry &amp; Lemon Cookie Cups</description>
											<scene></scene>
											<shottake></shottake>
											<lognote>https://www.youtube.com/watch?v=2h61YhqQvUk</lognote>
											<good></good>
											<originalvideofilename></originalvideofilename>
											<originalaudiofilename></originalaudiofilename>
										</logginginfo>
										<colorinfo>
											<lut></lut>
											<lut1></lut1>
											<asc_sop></asc_sop>
											<asc_sat></asc_sat>
											<lut2></lut2>
										</colorinfo>
									</clipitem>
									<clipitem id="clipitem-596">
										<masterclipid>masterclip-135</masterclipid>
										<name>(eatsbyrachel)_How to Make Berry &amp; Lemon Cookie Cups_2h61YhqQvUk_YT.mp4</name>
										<enabled>TRUE</enabled>
										<duration>8573</duration>
										<rate>
											<timebase>30</timebase>
											<ntsc>TRUE</ntsc>
										</rate>
										<start>526</start>
										<end>558</end>
										<in>1568</in>
										<out>1600</out>
										<pproTicksIn>13289846169600</pproTicksIn>
										<pproTicksOut>13561067520000</pproTicksOut>
										<alphatype>none</alphatype>
										<file id="file-135"/>
										<logginginfo>
											<description>How to Make Berry &amp; Lemon Cookie Cups</description>
											<scene></scene>
											<shottake></shottake>
											<lognote>https://www.youtube.com/watch?v=2h61YhqQvUk</lognote>
											<good></good>
											<originalvideofilename></originalvideofilename>
											<originalaudiofilename></originalaudiofilename>
										</logginginfo>
										<colorinfo>
											<lut></lut>
											<lut1></lut1>
											<asc_sop></asc_sop>
											<asc_sat></asc_sat>
											<lut2></lut2>
										</colorinfo>
									</clipitem>
									<clipitem id="clipitem-597">
										<masterclipid>masterclip-135</masterclipid>
										<name>(eatsbyrachel)_How to Make Berry &amp; Lemon Cookie Cups_2h61YhqQvUk_YT.mp4</name>
										<enabled>TRUE</enabled>
										<duration>8573</duration>
										<rate>
											<timebase>30</timebase>
											<ntsc>TRUE</ntsc>
										</rate>
										<start>558</start>
										<end>595</end>
										<in>1623</in>
										<out>1660</out>
										<pproTicksIn>13756007865600</pproTicksIn>
										<pproTicksOut>14069607552000</pproTicksOut>
										<alphatype>none</alphatype>
										<file id="file-135"/>
										<logginginfo>
											<description>How to Make Berry &amp; Lemon Cookie Cups</description>
											<scene></scene>
											<shottake></shottake>
											<lognote>https://www.youtube.com/watch?v=2h61YhqQvUk</lognote>
											<good></good>
											<originalvideofilename></originalvideofilename>
											<originalaudiofilename></originalaudiofilename>
										</logginginfo>
										<colorinfo>
											<lut></lut>
											<lut1></lut1>
											<asc_sop></asc_sop>
											<asc_sat></asc_sat>
											<lut2></lut2>
										</colorinfo>
									</clipitem>
									<clipitem id="clipitem-598">
										<masterclipid>masterclip-135</masterclipid>
										<name>(eatsbyrachel)_How to Make Berry &amp; Lemon Cookie Cups_2h61YhqQvUk_YT.mp4</name>
										<enabled>TRUE</enabled>
										<duration>8573</duration>
										<rate>
											<timebase>30</timebase>
											<ntsc>TRUE</ntsc>
										</rate>
										<start>595</start>
										<end>625</end>
										<in>1687</in>
										<out>1717</out>
										<pproTicksIn>14298450566400</pproTicksIn>
										<pproTicksOut>14552720582400</pproTicksOut>
										<alphatype>none</alphatype>
										<file id="file-135"/>
										<logginginfo>
											<description>How to Make Berry &amp; Lemon Cookie Cups</description>
											<scene></scene>
											<shottake></shottake>
											<lognote>https://www.youtube.com/watch?v=2h61YhqQvUk</lognote>
											<good></good>
											<originalvideofilename></originalvideofilename>
											<originalaudiofilename></originalaudiofilename>
										</logginginfo>
										<colorinfo>
											<lut></lut>
											<lut1></lut1>
											<asc_sop></asc_sop>
											<asc_sat></asc_sat>
											<lut2></lut2>
										</colorinfo>
									</clipitem>
									<clipitem id="clipitem-599">
										<masterclipid>masterclip-135</masterclipid>
										<name>(eatsbyrachel)_How to Make Berry &amp; Lemon Cookie Cups_2h61YhqQvUk_YT.mp4</name>
										<enabled>TRUE</enabled>
										<duration>8573</duration>
										<rate>
											<timebase>30</timebase>
											<ntsc>TRUE</ntsc>
										</rate>
										<start>625</start>
										<end>746</end>
										<in>1759</in>
										<out>1880</out>
										<pproTicksIn>14908698604800</pproTicksIn>
										<pproTicksOut>15934254336000</pproTicksOut>
										<alphatype>none</alphatype>
										<file id="file-135"/>
										<logginginfo>
											<description>How to Make Berry &amp; Lemon Cookie Cups</description>
											<scene></scene>
											<shottake></shottake>
											<lognote>https://www.youtube.com/watch?v=2h61YhqQvUk</lognote>
											<good></good>
											<originalvideofilename></originalvideofilename>
											<originalaudiofilename></originalaudiofilename>
										</logginginfo>
										<colorinfo>
											<lut></lut>
											<lut1></lut1>
											<asc_sop></asc_sop>
											<asc_sat></asc_sat>
											<lut2></lut2>
										</colorinfo>
									</clipitem>
									<clipitem id="clipitem-600">
										<masterclipid>masterclip-135</masterclipid>
										<name>(eatsbyrachel)_How to Make Berry &amp; Lemon Cookie Cups_2h61YhqQvUk_YT.mp4</name>
										<enabled>TRUE</enabled>
										<duration>8573</duration>
										<rate>
											<timebase>30</timebase>
											<ntsc>TRUE</ntsc>
										</rate>
										<start>746</start>
										<end>801</end>
										<in>1952</in>
										<out>2007</out>
										<pproTicksIn>16544502374400</pproTicksIn>
										<pproTicksOut>17010664070400</pproTicksOut>
										<alphatype>none</alphatype>
										<file id="file-135"/>
										<logginginfo>
											<description>How to Make Berry &amp; Lemon Cookie Cups</description>
											<scene></scene>
											<shottake></shottake>
											<lognote>https://www.youtube.com/watch?v=2h61YhqQvUk</lognote>
											<good></good>
											<originalvideofilename></originalvideofilename>
											<originalaudiofilename></originalaudiofilename>
										</logginginfo>
										<colorinfo>
											<lut></lut>
											<lut1></lut1>
											<asc_sop></asc_sop>
											<asc_sat></asc_sat>
											<lut2></lut2>
										</colorinfo>
									</clipitem>
									<clipitem id="clipitem-601">
										<masterclipid>masterclip-135</masterclipid>
										<name>(eatsbyrachel)_How to Make Berry &amp; Lemon Cookie Cups_2h61YhqQvUk_YT.mp4</name>
										<enabled>TRUE</enabled>
										<duration>8573</duration>
										<rate>
											<timebase>30</timebase>
											<ntsc>TRUE</ntsc>
										</rate>
										<start>801</start>
										<end>883</end>
										<in>2048</in>
										<out>2130</out>
										<pproTicksIn>17358166425600</pproTicksIn>
										<pproTicksOut>18053171136000</pproTicksOut>
										<alphatype>none</alphatype>
										<file id="file-135"/>
										<logginginfo>
											<description>How to Make Berry &amp; Lemon Cookie Cups</description>
											<scene></scene>
											<shottake></shottake>
											<lognote>https://www.youtube.com/watch?v=2h61YhqQvUk</lognote>
											<good></good>
											<originalvideofilename></originalvideofilename>
											<originalaudiofilename></originalaudiofilename>
										</logginginfo>
										<colorinfo>
											<lut></lut>
											<lut1></lut1>
											<asc_sop></asc_sop>
											<asc_sat></asc_sat>
											<lut2></lut2>
										</colorinfo>
									</clipitem>
									<clipitem id="clipitem-602">
										<masterclipid>masterclip-135</masterclipid>
										<name>(eatsbyrachel)_How to Make Berry &amp; Lemon Cookie Cups_2h61YhqQvUk_YT.mp4</name>
										<enabled>TRUE</enabled>
										<duration>8573</duration>
										<rate>
											<timebase>30</timebase>
											<ntsc>TRUE</ntsc>
										</rate>
										<start>883</start>
										<end>1034</end>
										<in>2481</in>
										<out>2632</out>
										<pproTicksIn>21028130323200</pproTicksIn>
										<pproTicksOut>22307956070400</pproTicksOut>
										<alphatype>none</alphatype>
										<file id="file-135"/>
										<logginginfo>
											<description>How to Make Berry &amp; Lemon Cookie Cups</description>
											<scene></scene>
											<shottake></shottake>
											<lognote>https://www.youtube.com/watch?v=2h61YhqQvUk</lognote>
											<good></good>
											<originalvideofilename></originalvideofilename>
											<originalaudiofilename></originalaudiofilename>
										</logginginfo>
										<colorinfo>
											<lut></lut>
											<lut1></lut1>
											<asc_sop></asc_sop>
											<asc_sat></asc_sat>
											<lut2></lut2>
										</colorinfo>
									</clipitem>
									<clipitem id="clipitem-603">
										<masterclipid>masterclip-135</masterclipid>
										<name>(eatsbyrachel)_How to Make Berry &amp; Lemon Cookie Cups_2h61YhqQvUk_YT.mp4</name>
										<enabled>TRUE</enabled>
										<duration>8573</duration>
										<rate>
											<timebase>30</timebase>
											<ntsc>TRUE</ntsc>
										</rate>
										<start>1034</start>
										<end>1104</end>
										<in>2888</in>
										<out>2958</out>
										<pproTicksIn>24477726873600</pproTicksIn>
										<pproTicksOut>25071023577600</pproTicksOut>
										<alphatype>none</alphatype>
										<file id="file-135"/>
										<logginginfo>
											<description>How to Make Berry &amp; Lemon Cookie Cups</description>
											<scene></scene>
											<shottake></shottake>
											<lognote>https://www.youtube.com/watch?v=2h61YhqQvUk</lognote>
											<good></good>
											<originalvideofilename></originalvideofilename>
											<originalaudiofilename></originalaudiofilename>
										</logginginfo>
										<colorinfo>
											<lut></lut>
											<lut1></lut1>
											<asc_sop></asc_sop>
											<asc_sat></asc_sat>
											<lut2></lut2>
										</colorinfo>
									</clipitem>
									<clipitem id="clipitem-604">
										<masterclipid>masterclip-135</masterclipid>
										<name>(eatsbyrachel)_How to Make Berry &amp; Lemon Cookie Cups_2h61YhqQvUk_YT.mp4</name>
										<enabled>TRUE</enabled>
										<duration>8573</duration>
										<rate>
											<timebase>30</timebase>
											<ntsc>TRUE</ntsc>
										</rate>
										<start>1104</start>
										<end>1194</end>
										<in>3015</in>
										<out>3105</out>
										<pproTicksIn>25554136608000</pproTicksIn>
										<pproTicksOut>26316946656000</pproTicksOut>
										<alphatype>none</alphatype>
										<file id="file-135"/>
										<logginginfo>
											<description>How to Make Berry &amp; Lemon Cookie Cups</description>
											<scene></scene>
											<shottake></shottake>
											<lognote>https://www.youtube.com/watch?v=2h61YhqQvUk</lognote>
											<good></good>
											<originalvideofilename></originalvideofilename>
											<originalaudiofilename></originalaudiofilename>
										</logginginfo>
										<colorinfo>
											<lut></lut>
											<lut1></lut1>
											<asc_sop></asc_sop>
											<asc_sat></asc_sat>
											<lut2></lut2>
										</colorinfo>
									</clipitem>
									<clipitem id="clipitem-605">
										<masterclipid>masterclip-135</masterclipid>
										<name>(eatsbyrachel)_How to Make Berry &amp; Lemon Cookie Cups_2h61YhqQvUk_YT.mp4</name>
										<enabled>TRUE</enabled>
										<duration>8573</duration>
										<rate>
											<timebase>30</timebase>
											<ntsc>TRUE</ntsc>
										</rate>
										<start>1194</start>
										<end>1257</end>
										<in>3302</in>
										<out>3365</out>
										<pproTicksIn>27986653094400</pproTicksIn>
										<pproTicksOut>28520620128000</pproTicksOut>
										<alphatype>none</alphatype>
										<file id="file-135"/>
										<logginginfo>
											<description>How to Make Berry &amp; Lemon Cookie Cups</description>
											<scene></scene>
											<shottake></shottake>
											<lognote>https://www.youtube.com/watch?v=2h61YhqQvUk</lognote>
											<good></good>
											<originalvideofilename></originalvideofilename>
											<originalaudiofilename></originalaudiofilename>
										</logginginfo>
										<colorinfo>
											<lut></lut>
											<lut1></lut1>
											<asc_sop></asc_sop>
											<asc_sat></asc_sat>
											<lut2></lut2>
										</colorinfo>
									</clipitem>
									<clipitem id="clipitem-606">
										<masterclipid>masterclip-135</masterclipid>
										<name>(eatsbyrachel)_How to Make Berry &amp; Lemon Cookie Cups_2h61YhqQvUk_YT.mp4</name>
										<enabled>TRUE</enabled>
										<duration>8573</duration>
										<rate>
											<timebase>30</timebase>
											<ntsc>TRUE</ntsc>
										</rate>
										<start>1257</start>
										<end>1289</end>
										<in>3528</in>
										<out>3560</out>
										<pproTicksIn>29902153881600</pproTicksIn>
										<pproTicksOut>30173375232000</pproTicksOut>
										<alphatype>none</alphatype>
										<file id="file-135"/>
										<logginginfo>
											<description>How to Make Berry &amp; Lemon Cookie Cups</description>
											<scene></scene>
											<shottake></shottake>
											<lognote>https://www.youtube.com/watch?v=2h61YhqQvUk</lognote>
											<good></good>
											<originalvideofilename></originalvideofilename>
											<originalaudiofilename></originalaudiofilename>
										</logginginfo>
										<colorinfo>
											<lut></lut>
											<lut1></lut1>
											<asc_sop></asc_sop>
											<asc_sat></asc_sat>
											<lut2></lut2>
										</colorinfo>
									</clipitem>
									<clipitem id="clipitem-607">
										<masterclipid>masterclip-135</masterclipid>
										<name>(eatsbyrachel)_How to Make Berry &amp; Lemon Cookie Cups_2h61YhqQvUk_YT.mp4</name>
										<enabled>TRUE</enabled>
										<duration>8573</duration>
										<rate>
											<timebase>30</timebase>
											<ntsc>TRUE</ntsc>
										</rate>
										<start>1289</start>
										<end>1381</end>
										<in>3577</in>
										<out>3669</out>
										<pproTicksIn>30317461574400</pproTicksIn>
										<pproTicksOut>31097222956800</pproTicksOut>
										<alphatype>none</alphatype>
										<file id="file-135"/>
										<logginginfo>
											<description>How to Make Berry &amp; Lemon Cookie Cups</description>
											<scene></scene>
											<shottake></shottake>
											<lognote>https://www.youtube.com/watch?v=2h61YhqQvUk</lognote>
											<good></good>
											<originalvideofilename></originalvideofilename>
											<originalaudiofilename></originalaudiofilename>
										</logginginfo>
										<colorinfo>
											<lut></lut>
											<lut1></lut1>
											<asc_sop></asc_sop>
											<asc_sat></asc_sat>
											<lut2></lut2>
										</colorinfo>
									</clipitem>
									<clipitem id="clipitem-608">
										<masterclipid>masterclip-135</masterclipid>
										<name>(eatsbyrachel)_How to Make Berry &amp; Lemon Cookie Cups_2h61YhqQvUk_YT.mp4</name>
										<enabled>TRUE</enabled>
										<duration>8573</duration>
										<rate>
											<timebase>30</timebase>
											<ntsc>TRUE</ntsc>
										</rate>
										<start>1381</start>
										<end>1472</end>
										<in>3852</in>
										<out>3943</out>
										<pproTicksIn>32648270054400</pproTicksIn>
										<pproTicksOut>33419555769600</pproTicksOut>
										<alphatype>none</alphatype>
										<file id="file-135"/>
										<logginginfo>
											<description>How to Make Berry &amp; Lemon Cookie Cups</description>
											<scene></scene>
											<shottake></shottake>
											<lognote>https://www.youtube.com/watch?v=2h61YhqQvUk</lognote>
											<good></good>
											<originalvideofilename></originalvideofilename>
											<originalaudiofilename></originalaudiofilename>
										</logginginfo>
										<colorinfo>
											<lut></lut>
											<lut1></lut1>
											<asc_sop></asc_sop>
											<asc_sat></asc_sat>
											<lut2></lut2>
										</colorinfo>
									</clipitem>
									<clipitem id="clipitem-609">
										<masterclipid>masterclip-135</masterclipid>
										<name>(eatsbyrachel)_How to Make Berry &amp; Lemon Cookie Cups_2h61YhqQvUk_YT.mp4</name>
										<enabled>TRUE</enabled>
										<duration>8573</duration>
										<rate>
											<timebase>30</timebase>
											<ntsc>TRUE</ntsc>
										</rate>
										<start>1472</start>
										<end>1536</end>
										<in>4200</in>
										<out>4264</out>
										<pproTicksIn>35597802240000</pproTicksIn>
										<pproTicksOut>36140244940800</pproTicksOut>
										<alphatype>none</alphatype>
										<file id="file-135"/>
										<logginginfo>
											<description>How to Make Berry &amp; Lemon Cookie Cups</description>
											<scene></scene>
											<shottake></shottake>
											<lognote>https://www.youtube.com/watch?v=2h61YhqQvUk</lognote>
											<good></good>
											<originalvideofilename></originalvideofilename>
											<originalaudiofilename></originalaudiofilename>
										</logginginfo>
										<colorinfo>
											<lut></lut>
											<lut1></lut1>
											<asc_sop></asc_sop>
											<asc_sat></asc_sat>
											<lut2></lut2>
										</colorinfo>
									</clipitem>
									<clipitem id="clipitem-610">
										<masterclipid>masterclip-135</masterclipid>
										<name>(eatsbyrachel)_How to Make Berry &amp; Lemon Cookie Cups_2h61YhqQvUk_YT.mp4</name>
										<enabled>TRUE</enabled>
										<duration>8573</duration>
										<rate>
											<timebase>30</timebase>
											<ntsc>TRUE</ntsc>
										</rate>
										<start>1536</start>
										<end>1571</end>
										<in>4298</in>
										<out>4333</out>
										<pproTicksIn>36428417625600</pproTicksIn>
										<pproTicksOut>36725065977600</pproTicksOut>
										<alphatype>none</alphatype>
										<file id="file-135"/>
										<logginginfo>
											<description>How to Make Berry &amp; Lemon Cookie Cups</description>
											<scene></scene>
											<shottake></shottake>
											<lognote>https://www.youtube.com/watch?v=2h61YhqQvUk</lognote>
											<good></good>
											<originalvideofilename></originalvideofilename>
											<originalaudiofilename></originalaudiofilename>
										</logginginfo>
										<colorinfo>
											<lut></lut>
											<lut1></lut1>
											<asc_sop></asc_sop>
											<asc_sat></asc_sat>
											<lut2></lut2>
										</colorinfo>
									</clipitem>
									<clipitem id="clipitem-611">
										<masterclipid>masterclip-135</masterclipid>
										<name>(eatsbyrachel)_How to Make Berry &amp; Lemon Cookie Cups_2h61YhqQvUk_YT.mp4</name>
										<enabled>TRUE</enabled>
										<duration>8573</duration>
										<rate>
											<timebase>30</timebase>
											<ntsc>TRUE</ntsc>
										</rate>
										<start>1571</start>
										<end>1645</end>
										<in>4363</in>
										<out>4437</out>
										<pproTicksIn>36979335993600</pproTicksIn>
										<pproTicksOut>37606535366400</pproTicksOut>
										<alphatype>none</alphatype>
										<file id="file-135"/>
										<logginginfo>
											<description>How to Make Berry &amp; Lemon Cookie Cups</description>
											<scene></scene>
											<shottake></shottake>
											<lognote>https://www.youtube.com/watch?v=2h61YhqQvUk</lognote>
											<good></good>
											<originalvideofilename></originalvideofilename>
											<originalaudiofilename></originalaudiofilename>
										</logginginfo>
										<colorinfo>
											<lut></lut>
											<lut1></lut1>
											<asc_sop></asc_sop>
											<asc_sat></asc_sat>
											<lut2></lut2>
										</colorinfo>
									</clipitem>
									<clipitem id="clipitem-612">
										<masterclipid>masterclip-135</masterclipid>
										<name>(eatsbyrachel)_How to Make Berry &amp; Lemon Cookie Cups_2h61YhqQvUk_YT.mp4</name>
										<enabled>TRUE</enabled>
										<duration>8573</duration>
										<rate>
											<timebase>30</timebase>
											<ntsc>TRUE</ntsc>
										</rate>
										<start>1645</start>
										<end>1688</end>
										<in>4472</in>
										<out>4515</out>
										<pproTicksIn>37903183718400</pproTicksIn>
										<pproTicksOut>38267637408000</pproTicksOut>
										<alphatype>none</alphatype>
										<file id="file-135"/>
										<logginginfo>
											<description>How to Make Berry &amp; Lemon Cookie Cups</description>
											<scene></scene>
											<shottake></shottake>
											<lognote>https://www.youtube.com/watch?v=2h61YhqQvUk</lognote>
											<good></good>
											<originalvideofilename></originalvideofilename>
											<originalaudiofilename></originalaudiofilename>
										</logginginfo>
										<colorinfo>
											<lut></lut>
											<lut1></lut1>
											<asc_sop></asc_sop>
											<asc_sat></asc_sat>
											<lut2></lut2>
										</colorinfo>
									</clipitem>
									<clipitem id="clipitem-613">
										<masterclipid>masterclip-135</masterclipid>
										<name>(eatsbyrachel)_How to Make Berry &amp; Lemon Cookie Cups_2h61YhqQvUk_YT.mp4</name>
										<enabled>TRUE</enabled>
										<duration>8573</duration>
										<rate>
											<timebase>30</timebase>
											<ntsc>TRUE</ntsc>
										</rate>
										<start>1688</start>
										<end>1789</end>
										<in>4539</in>
										<out>4640</out>
										<pproTicksIn>38471053420800</pproTicksIn>
										<pproTicksOut>39327095808000</pproTicksOut>
										<alphatype>none</alphatype>
										<file id="file-135"/>
										<logginginfo>
											<description>How to Make Berry &amp; Lemon Cookie Cups</description>
											<scene></scene>
											<shottake></shottake>
											<lognote>https://www.youtube.com/watch?v=2h61YhqQvUk</lognote>
											<good></good>
											<originalvideofilename></originalvideofilename>
											<originalaudiofilename></originalaudiofilename>
										</logginginfo>
										<colorinfo>
											<lut></lut>
											<lut1></lut1>
											<asc_sop></asc_sop>
											<asc_sat></asc_sat>
											<lut2></lut2>
										</colorinfo>
									</clipitem>
									<clipitem id="clipitem-614">
										<masterclipid>masterclip-135</masterclipid>
										<name>(eatsbyrachel)_How to Make Berry &amp; Lemon Cookie Cups_2h61YhqQvUk_YT.mp4</name>
										<enabled>TRUE</enabled>
										<duration>8573</duration>
										<rate>
											<timebase>30</timebase>
											<ntsc>TRUE</ntsc>
										</rate>
										<start>1789</start>
										<end>1855</end>
										<in>4673</in>
										<out>4739</out>
										<pproTicksIn>39606792825600</pproTicksIn>
										<pproTicksOut>40166186860800</pproTicksOut>
										<alphatype>none</alphatype>
										<file id="file-135"/>
										<logginginfo>
											<description>How to Make Berry &amp; Lemon Cookie Cups</description>
											<scene></scene>
											<shottake></shottake>
											<lognote>https://www.youtube.com/watch?v=2h61YhqQvUk</lognote>
											<good></good>
											<originalvideofilename></originalvideofilename>
											<originalaudiofilename></originalaudiofilename>
										</logginginfo>
										<colorinfo>
											<lut></lut>
											<lut1></lut1>
											<asc_sop></asc_sop>
											<asc_sat></asc_sat>
											<lut2></lut2>
										</colorinfo>
									</clipitem>
									<clipitem id="clipitem-615">
										<masterclipid>masterclip-135</masterclipid>
										<name>(eatsbyrachel)_How to Make Berry &amp; Lemon Cookie Cups_2h61YhqQvUk_YT.mp4</name>
										<enabled>TRUE</enabled>
										<duration>8573</duration>
										<rate>
											<timebase>30</timebase>
											<ntsc>TRUE</ntsc>
										</rate>
										<start>1855</start>
										<end>1914</end>
										<in>4985</in>
										<out>5044</out>
										<pproTicksIn>42251200992000</pproTicksIn>
										<pproTicksOut>42751265356800</pproTicksOut>
										<alphatype>none</alphatype>
										<file id="file-135"/>
										<logginginfo>
											<description>How to Make Berry &amp; Lemon Cookie Cups</description>
											<scene></scene>
											<shottake></shottake>
											<lognote>https://www.youtube.com/watch?v=2h61YhqQvUk</lognote>
											<good></good>
											<originalvideofilename></originalvideofilename>
											<originalaudiofilename></originalaudiofilename>
										</logginginfo>
										<colorinfo>
											<lut></lut>
											<lut1></lut1>
											<asc_sop></asc_sop>
											<asc_sat></asc_sat>
											<lut2></lut2>
										</colorinfo>
									</clipitem>
									<clipitem id="clipitem-616">
										<masterclipid>masterclip-135</masterclipid>
										<name>(eatsbyrachel)_How to Make Berry &amp; Lemon Cookie Cups_2h61YhqQvUk_YT.mp4</name>
										<enabled>TRUE</enabled>
										<duration>8573</duration>
										<rate>
											<timebase>30</timebase>
											<ntsc>TRUE</ntsc>
										</rate>
										<start>1914</start>
										<end>2128</end>
										<in>5509</in>
										<out>5723</out>
										<pproTicksIn>46692450604800</pproTicksIn>
										<pproTicksOut>48506243385600</pproTicksOut>
										<alphatype>none</alphatype>
										<file id="file-135"/>
										<logginginfo>
											<description>How to Make Berry &amp; Lemon Cookie Cups</description>
											<scene></scene>
											<shottake></shottake>
											<lognote>https://www.youtube.com/watch?v=2h61YhqQvUk</lognote>
											<good></good>
											<originalvideofilename></originalvideofilename>
											<originalaudiofilename></originalaudiofilename>
										</logginginfo>
										<colorinfo>
											<lut></lut>
											<lut1></lut1>
											<asc_sop></asc_sop>
											<asc_sat></asc_sat>
											<lut2></lut2>
										</colorinfo>
									</clipitem>
									<clipitem id="clipitem-617">
										<masterclipid>masterclip-135</masterclipid>
										<name>(eatsbyrachel)_How to Make Berry &amp; Lemon Cookie Cups_2h61YhqQvUk_YT.mp4</name>
										<enabled>TRUE</enabled>
										<duration>8573</duration>
										<rate>
											<timebase>30</timebase>
											<ntsc>TRUE</ntsc>
										</rate>
										<start>2128</start>
										<end>2226</end>
										<in>5885</in>
										<out>5983</out>
										<pproTicksIn>49879301472000</pproTicksIn>
										<pproTicksOut>50709916857600</pproTicksOut>
										<alphatype>none</alphatype>
										<file id="file-135"/>
										<logginginfo>
											<description>How to Make Berry &amp; Lemon Cookie Cups</description>
											<scene></scene>
											<shottake></shottake>
											<lognote>https://www.youtube.com/watch?v=2h61YhqQvUk</lognote>
											<good></good>
											<originalvideofilename></originalvideofilename>
											<originalaudiofilename></originalaudiofilename>
										</logginginfo>
										<colorinfo>
											<lut></lut>
											<lut1></lut1>
											<asc_sop></asc_sop>
											<asc_sat></asc_sat>
											<lut2></lut2>
										</colorinfo>
									</clipitem>
									<clipitem id="clipitem-618">
										<masterclipid>masterclip-135</masterclipid>
										<name>(eatsbyrachel)_How to Make Berry &amp; Lemon Cookie Cups_2h61YhqQvUk_YT.mp4</name>
										<enabled>TRUE</enabled>
										<duration>8573</duration>
										<rate>
											<timebase>30</timebase>
											<ntsc>TRUE</ntsc>
										</rate>
										<start>2226</start>
										<end>2282</end>
										<in>6008</in>
										<out>6064</out>
										<pproTicksIn>50921808537600</pproTicksIn>
										<pproTicksOut>51396445900800</pproTicksOut>
										<alphatype>none</alphatype>
										<file id="file-135"/>
										<logginginfo>
											<description>How to Make Berry &amp; Lemon Cookie Cups</description>
											<scene></scene>
											<shottake></shottake>
											<lognote>https://www.youtube.com/watch?v=2h61YhqQvUk</lognote>
											<good></good>
											<originalvideofilename></originalvideofilename>
											<originalaudiofilename></originalaudiofilename>
										</logginginfo>
										<colorinfo>
											<lut></lut>
											<lut1></lut1>
											<asc_sop></asc_sop>
											<asc_sat></asc_sat>
											<lut2></lut2>
										</colorinfo>
									</clipitem>
									<clipitem id="clipitem-619">
										<masterclipid>masterclip-135</masterclipid>
										<name>(eatsbyrachel)_How to Make Berry &amp; Lemon Cookie Cups_2h61YhqQvUk_YT.mp4</name>
										<enabled>TRUE</enabled>
										<duration>8573</duration>
										<rate>
											<timebase>30</timebase>
											<ntsc>TRUE</ntsc>
										</rate>
										<start>2282</start>
										<end>2335</end>
										<in>6077</in>
										<out>6130</out>
										<pproTicksIn>51506629574400</pproTicksIn>
										<pproTicksOut>51955839936000</pproTicksOut>
										<alphatype>none</alphatype>
										<file id="file-135"/>
										<logginginfo>
											<description>How to Make Berry &amp; Lemon Cookie Cups</description>
											<scene></scene>
											<shottake></shottake>
											<lognote>https://www.youtube.com/watch?v=2h61YhqQvUk</lognote>
											<good></good>
											<originalvideofilename></originalvideofilename>
											<originalaudiofilename></originalaudiofilename>
										</logginginfo>
										<colorinfo>
											<lut></lut>
											<lut1></lut1>
											<asc_sop></asc_sop>
											<asc_sat></asc_sat>
											<lut2></lut2>
										</colorinfo>
									</clipitem>
									<clipitem id="clipitem-620">
										<masterclipid>masterclip-135</masterclipid>
										<name>(eatsbyrachel)_How to Make Berry &amp; Lemon Cookie Cups_2h61YhqQvUk_YT.mp4</name>
										<enabled>TRUE</enabled>
										<duration>8573</duration>
										<rate>
											<timebase>30</timebase>
											<ntsc>TRUE</ntsc>
										</rate>
										<start>2335</start>
										<end>2438</end>
										<in>7051</in>
										<out>7154</out>
										<pproTicksIn>59761929427200</pproTicksIn>
										<pproTicksOut>60634923148800</pproTicksOut>
										<alphatype>none</alphatype>
										<file id="file-135"/>
										<logginginfo>
											<description>How to Make Berry &amp; Lemon Cookie Cups</description>
											<scene></scene>
											<shottake></shottake>
											<lognote>https://www.youtube.com/watch?v=2h61YhqQvUk</lognote>
											<good></good>
											<originalvideofilename></originalvideofilename>
											<originalaudiofilename></originalaudiofilename>
										</logginginfo>
										<colorinfo>
											<lut></lut>
											<lut1></lut1>
											<asc_sop></asc_sop>
											<asc_sat></asc_sat>
											<lut2></lut2>
										</colorinfo>
									</clipitem>
									<clipitem id="clipitem-621">
										<masterclipid>masterclip-135</masterclipid>
										<name>(eatsbyrachel)_How to Make Berry &amp; Lemon Cookie Cups_2h61YhqQvUk_YT.mp4</name>
										<enabled>TRUE</enabled>
										<duration>8573</duration>
										<rate>
											<timebase>30</timebase>
											<ntsc>TRUE</ntsc>
										</rate>
										<start>2438</start>
										<end>2565</end>
										<in>7799</in>
										<out>7926</out>
										<pproTicksIn>66101728492800</pproTicksIn>
										<pproTicksOut>67178138227200</pproTicksOut>
										<alphatype>none</alphatype>
										<file id="file-135"/>
										<logginginfo>
											<description>How to Make Berry &amp; Lemon Cookie Cups</description>
											<scene></scene>
											<shottake></shottake>
											<lognote>https://www.youtube.com/watch?v=2h61YhqQvUk</lognote>
											<good></good>
											<originalvideofilename></originalvideofilename>
											<originalaudiofilename></originalaudiofilename>
										</logginginfo>
										<colorinfo>
											<lut></lut>
											<lut1></lut1>
											<asc_sop></asc_sop>
											<asc_sat></asc_sat>
											<lut2></lut2>
										</colorinfo>
									</clipitem>
									<enabled>TRUE</enabled>
									<locked>FALSE</locked>
								</track>
								<track TL.SQTrackShy="0" TL.SQTrackExpandedHeight="25" TL.SQTrackExpanded="0" MZ.TrackTargeted="0">
									<enabled>TRUE</enabled>
									<locked>FALSE</locked>
								</track>
								<track TL.SQTrackShy="0" TL.SQTrackExpandedHeight="25" TL.SQTrackExpanded="0" MZ.TrackTargeted="0">
									<enabled>TRUE</enabled>
									<locked>FALSE</locked>
								</track>
								<track TL.SQTrackShy="0" TL.SQTrackExpandedHeight="25" TL.SQTrackExpanded="0" MZ.TrackTargeted="0">
									<enabled>TRUE</enabled>
									<locked>FALSE</locked>
								</track>
								<track TL.SQTrackShy="0" TL.SQTrackExpandedHeight="25" TL.SQTrackExpanded="0" MZ.TrackTargeted="0">
									<enabled>TRUE</enabled>
									<locked>FALSE</locked>
								</track>
								<track TL.SQTrackShy="0" TL.SQTrackExpandedHeight="25" TL.SQTrackExpanded="0" MZ.TrackTargeted="0">
									<enabled>TRUE</enabled>
									<locked>FALSE</locked>
								</track>
								<track TL.SQTrackShy="0" TL.SQTrackExpandedHeight="25" TL.SQTrackExpanded="0" MZ.TrackTargeted="0">
									<enabled>TRUE</enabled>
									<locked>FALSE</locked>
								</track>
								<track TL.SQTrackShy="0" TL.SQTrackExpandedHeight="25" TL.SQTrackExpanded="0" MZ.TrackTargeted="0">
									<enabled>TRUE</enabled>
									<locked>FALSE</locked>
								</track>
								<track TL.SQTrackShy="0" TL.SQTrackExpandedHeight="25" TL.SQTrackExpanded="0" MZ.TrackTargeted="0">
									<enabled>TRUE</enabled>
									<locked>FALSE</locked>
								</track>
								<track TL.SQTrackShy="0" TL.SQTrackExpandedHeight="25" TL.SQTrackExpanded="0" MZ.TrackTargeted="0">
									<enabled>TRUE</enabled>
									<locked>FALSE</locked>
								</track>
							</video>
							<audio>
								<numOutputChannels>2</numOutputChannels>
								<format>
									<samplecharacteristics>
										<depth>16</depth>
										<samplerate>48000</samplerate>
									</samplecharacteristics>
								</format>
								<outputs>
									<group>
										<index>1</index>
										<numchannels>1</numchannels>
										<downmix>0</downmix>
										<channel>
											<index>1</index>
										</channel>
									</group>
									<group>
										<index>2</index>
										<numchannels>1</numchannels>
										<downmix>0</downmix>
										<channel>
											<index>2</index>
										</channel>
									</group>
								</outputs>
								<track TL.SQTrackAudioKeyframeStyle="0" TL.SQTrackShy="0" TL.SQTrackExpandedHeight="25" TL.SQTrackExpanded="0" MZ.TrackTargeted="1" PannerCurrentValue="0.5" PannerIsInverted="true" PannerStartKeyframe="-91445760000000000,0.5,0,0,0,0,0,0" PannerName="Balance" currentExplodedTrackIndex="0" totalExplodedTrackCount="2" premiereTrackType="Stereo">
									<clipitem id="clipitem-622" premiereChannelType="stereo">
										<masterclipid>masterclip-200</masterclipid>
										<name>ES_Morning Stretch - Timothy Infinite.mp3</name>
										<enabled>TRUE</enabled>
										<duration>4318</duration>
										<rate>
											<timebase>30</timebase>
											<ntsc>TRUE</ntsc>
										</rate>
										<start>0</start>
										<end>2565</end>
										<in>0</in>
										<out>2565</out>
										<pproTicksIn>0</pproTicksIn>
										<pproTicksOut>21740086368000</pproTicksOut>
										<file id="file-197">
											<name>ES_Morning Stretch - Timothy Infinite.mp3</name>
											<pathurl>file://localhost/Volumes/ATM%201/EYE%20CANDY/8%3a21%3a23/5_Assets/Music/ES_Morning%20Stretch%20-%20Timothy%20Infinite.mp3</pathurl>
											<rate>
												<timebase>30</timebase>
												<ntsc>TRUE</ntsc>
											</rate>
											<duration>4318</duration>
											<timecode>
												<rate>
													<timebase>30</timebase>
													<ntsc>TRUE</ntsc>
												</rate>
												<string>00;00;00;00</string>
												<frame>0</frame>
												<displayformat>DF</displayformat>
											</timecode>
											<media>
												<audio>
													<samplecharacteristics>
														<depth>16</depth>
														<samplerate>48000</samplerate>
													</samplecharacteristics>
													<channelcount>2</channelcount>
												</audio>
											</media>
										</file>
										<sourcetrack>
											<mediatype>audio</mediatype>
											<trackindex>1</trackindex>
										</sourcetrack>
										<link>
											<linkclipref>clipitem-622</linkclipref>
											<mediatype>audio</mediatype>
											<trackindex>1</trackindex>
											<clipindex>1</clipindex>
											<groupindex>1</groupindex>
										</link>
										<link>
											<linkclipref>clipitem-623</linkclipref>
											<mediatype>audio</mediatype>
											<trackindex>2</trackindex>
											<clipindex>1</clipindex>
											<groupindex>1</groupindex>
										</link>
										<logginginfo>
											<description></description>
											<scene></scene>
											<shottake></shottake>
											<lognote></lognote>
											<good></good>
											<originalvideofilename></originalvideofilename>
											<originalaudiofilename></originalaudiofilename>
										</logginginfo>
										<colorinfo>
											<lut></lut>
											<lut1></lut1>
											<asc_sop></asc_sop>
											<asc_sat></asc_sat>
											<lut2></lut2>
										</colorinfo>
										<labels>
											<label2>Caribbean</label2>
										</labels>
									</clipitem>
									<enabled>TRUE</enabled>
									<locked>FALSE</locked>
									<filter>
										<effect>
											<name>Audio Levels</name>
											<effectid>audiolevels</effectid>
											<effectcategory>audiolevels</effectcategory>
											<effecttype>audiolevels</effecttype>
											<mediatype>audio</mediatype>
											<parameter authoringApp="PremierePro">
												<parameterid>level</parameterid>
												<name>Level</name>
												<valuemin>0</valuemin>
												<valuemax>3.98109</valuemax>
												<value>0.706272</value>
											</parameter>
										</effect>
									</filter>
									<outputchannelindex>1</outputchannelindex>
								</track>
								<track TL.SQTrackAudioKeyframeStyle="0" TL.SQTrackShy="0" TL.SQTrackExpandedHeight="25" TL.SQTrackExpanded="0" MZ.TrackTargeted="1" PannerCurrentValue="0.5" PannerIsInverted="true" PannerStartKeyframe="-91445760000000000,0.5,0,0,0,0,0,0" PannerName="Balance" currentExplodedTrackIndex="1" totalExplodedTrackCount="2" premiereTrackType="Stereo">
									<clipitem id="clipitem-623" premiereChannelType="stereo">
										<masterclipid>masterclip-200</masterclipid>
										<name>ES_Morning Stretch - Timothy Infinite.mp3</name>
										<enabled>TRUE</enabled>
										<duration>4318</duration>
										<rate>
											<timebase>30</timebase>
											<ntsc>TRUE</ntsc>
										</rate>
										<start>0</start>
										<end>2565</end>
										<in>0</in>
										<out>2565</out>
										<pproTicksIn>0</pproTicksIn>
										<pproTicksOut>21740086368000</pproTicksOut>
										<file id="file-197"/>
										<sourcetrack>
											<mediatype>audio</mediatype>
											<trackindex>2</trackindex>
										</sourcetrack>
										<link>
											<linkclipref>clipitem-622</linkclipref>
											<mediatype>audio</mediatype>
											<trackindex>1</trackindex>
											<clipindex>1</clipindex>
											<groupindex>1</groupindex>
										</link>
										<link>
											<linkclipref>clipitem-623</linkclipref>
											<mediatype>audio</mediatype>
											<trackindex>2</trackindex>
											<clipindex>1</clipindex>
											<groupindex>1</groupindex>
										</link>
										<logginginfo>
											<description></description>
											<scene></scene>
											<shottake></shottake>
											<lognote></lognote>
											<good></good>
											<originalvideofilename></originalvideofilename>
											<originalaudiofilename></originalaudiofilename>
										</logginginfo>
										<colorinfo>
											<lut></lut>
											<lut1></lut1>
											<asc_sop></asc_sop>
											<asc_sat></asc_sat>
											<lut2></lut2>
										</colorinfo>
										<labels>
											<label2>Caribbean</label2>
										</labels>
									</clipitem>
									<enabled>TRUE</enabled>
									<locked>FALSE</locked>
									<filter>
										<effect>
											<name>Audio Levels</name>
											<effectid>audiolevels</effectid>
											<effectcategory>audiolevels</effectcategory>
											<effecttype>audiolevels</effecttype>
											<mediatype>audio</mediatype>
											<parameter authoringApp="PremierePro">
												<parameterid>level</parameterid>
												<name>Level</name>
												<valuemin>0</valuemin>
												<valuemax>3.98109</valuemax>
												<value>0.706272</value>
											</parameter>
										</effect>
									</filter>
									<outputchannelindex>2</outputchannelindex>
								</track>
								<track TL.SQTrackAudioKeyframeStyle="0" TL.SQTrackShy="0" TL.SQTrackExpandedHeight="25" TL.SQTrackExpanded="0" MZ.TrackTargeted="0" PannerCurrentValue="0.5" PannerIsInverted="true" PannerStartKeyframe="-91445760000000000,0.5,0,0,0,0,0,0" PannerName="Balance" currentExplodedTrackIndex="0" totalExplodedTrackCount="2" premiereTrackType="Stereo">
									<enabled>TRUE</enabled>
									<locked>FALSE</locked>
									<outputchannelindex>1</outputchannelindex>
								</track>
								<track TL.SQTrackAudioKeyframeStyle="0" TL.SQTrackShy="0" TL.SQTrackExpandedHeight="25" TL.SQTrackExpanded="0" MZ.TrackTargeted="0" PannerCurrentValue="0.5" PannerIsInverted="true" PannerStartKeyframe="-91445760000000000,0.5,0,0,0,0,0,0" PannerName="Balance" currentExplodedTrackIndex="1" totalExplodedTrackCount="2" premiereTrackType="Stereo">
									<enabled>TRUE</enabled>
									<locked>FALSE</locked>
									<outputchannelindex>2</outputchannelindex>
								</track>
								<track TL.SQTrackAudioKeyframeStyle="0" TL.SQTrackShy="0" TL.SQTrackExpandedHeight="25" TL.SQTrackExpanded="0" MZ.TrackTargeted="0" PannerCurrentValue="0.5" PannerIsInverted="true" PannerStartKeyframe="-91445760000000000,0.5,0,0,0,0,0,0" PannerName="Balance" currentExplodedTrackIndex="0" totalExplodedTrackCount="2" premiereTrackType="Stereo">
									<enabled>TRUE</enabled>
									<locked>FALSE</locked>
									<outputchannelindex>1</outputchannelindex>
								</track>
								<track TL.SQTrackAudioKeyframeStyle="0" TL.SQTrackShy="0" TL.SQTrackExpandedHeight="25" TL.SQTrackExpanded="0" MZ.TrackTargeted="0" PannerCurrentValue="0.5" PannerIsInverted="true" PannerStartKeyframe="-91445760000000000,0.5,0,0,0,0,0,0" PannerName="Balance" currentExplodedTrackIndex="1" totalExplodedTrackCount="2" premiereTrackType="Stereo">
									<enabled>TRUE</enabled>
									<locked>FALSE</locked>
									<outputchannelindex>2</outputchannelindex>
								</track>
								<track TL.SQTrackAudioKeyframeStyle="0" TL.SQTrackShy="0" TL.SQTrackExpandedHeight="25" TL.SQTrackExpanded="0" MZ.TrackTargeted="0" PannerCurrentValue="0.5" PannerIsInverted="true" PannerStartKeyframe="-91445760000000000,0.5,0,0,0,0,0,0" PannerName="Balance" currentExplodedTrackIndex="0" totalExplodedTrackCount="2" premiereTrackType="Stereo">
									<enabled>TRUE</enabled>
									<locked>FALSE</locked>
									<outputchannelindex>1</outputchannelindex>
								</track>
								<track TL.SQTrackAudioKeyframeStyle="0" TL.SQTrackShy="0" TL.SQTrackExpandedHeight="25" TL.SQTrackExpanded="0" MZ.TrackTargeted="0" PannerCurrentValue="0.5" PannerIsInverted="true" PannerStartKeyframe="-91445760000000000,0.5,0,0,0,0,0,0" PannerName="Balance" currentExplodedTrackIndex="1" totalExplodedTrackCount="2" premiereTrackType="Stereo">
									<enabled>TRUE</enabled>
									<locked>FALSE</locked>
									<outputchannelindex>2</outputchannelindex>
								</track>
								<track TL.SQTrackAudioKeyframeStyle="0" TL.SQTrackShy="0" TL.SQTrackExpandedHeight="25" TL.SQTrackExpanded="0" MZ.TrackTargeted="0" PannerCurrentValue="0.5" PannerIsInverted="true" PannerStartKeyframe="-91445760000000000,0.5,0,0,0,0,0,0" PannerName="Balance" currentExplodedTrackIndex="0" totalExplodedTrackCount="2" premiereTrackType="Stereo">
									<enabled>TRUE</enabled>
									<locked>FALSE</locked>
									<outputchannelindex>1</outputchannelindex>
								</track>
								<track TL.SQTrackAudioKeyframeStyle="0" TL.SQTrackShy="0" TL.SQTrackExpandedHeight="25" TL.SQTrackExpanded="0" MZ.TrackTargeted="0" PannerCurrentValue="0.5" PannerIsInverted="true" PannerStartKeyframe="-91445760000000000,0.5,0,0,0,0,0,0" PannerName="Balance" currentExplodedTrackIndex="1" totalExplodedTrackCount="2" premiereTrackType="Stereo">
									<enabled>TRUE</enabled>
									<locked>FALSE</locked>
									<outputchannelindex>2</outputchannelindex>
								</track>
								<track TL.SQTrackAudioKeyframeStyle="0" TL.SQTrackShy="0" TL.SQTrackExpandedHeight="25" TL.SQTrackExpanded="0" MZ.TrackTargeted="0" PannerCurrentValue="0.5" PannerIsInverted="true" PannerStartKeyframe="-91445760000000000,0.5,0,0,0,0,0,0" PannerName="Balance" currentExplodedTrackIndex="0" totalExplodedTrackCount="2" premiereTrackType="Stereo">
									<enabled>TRUE</enabled>
									<locked>FALSE</locked>
									<outputchannelindex>1</outputchannelindex>
								</track>
								<track TL.SQTrackAudioKeyframeStyle="0" TL.SQTrackShy="0" TL.SQTrackExpandedHeight="25" TL.SQTrackExpanded="0" MZ.TrackTargeted="0" PannerCurrentValue="0.5" PannerIsInverted="true" PannerStartKeyframe="-91445760000000000,0.5,0,0,0,0,0,0" PannerName="Balance" currentExplodedTrackIndex="1" totalExplodedTrackCount="2" premiereTrackType="Stereo">
									<enabled>TRUE</enabled>
									<locked>FALSE</locked>
									<outputchannelindex>2</outputchannelindex>
								</track>
								<track TL.SQTrackAudioKeyframeStyle="0" TL.SQTrackShy="0" TL.SQTrackExpandedHeight="25" TL.SQTrackExpanded="0" MZ.TrackTargeted="0" PannerCurrentValue="0.5" PannerIsInverted="true" PannerStartKeyframe="-91445760000000000,0.5,0,0,0,0,0,0" PannerName="Balance" currentExplodedTrackIndex="0" totalExplodedTrackCount="2" premiereTrackType="Stereo">
									<enabled>TRUE</enabled>
									<locked>FALSE</locked>
									<outputchannelindex>1</outputchannelindex>
								</track>
								<track TL.SQTrackAudioKeyframeStyle="0" TL.SQTrackShy="0" TL.SQTrackExpandedHeight="25" TL.SQTrackExpanded="0" MZ.TrackTargeted="0" PannerCurrentValue="0.5" PannerIsInverted="true" PannerStartKeyframe="-91445760000000000,0.5,0,0,0,0,0,0" PannerName="Balance" currentExplodedTrackIndex="1" totalExplodedTrackCount="2" premiereTrackType="Stereo">
									<enabled>TRUE</enabled>
									<locked>FALSE</locked>
									<outputchannelindex>2</outputchannelindex>
								</track>
								<track TL.SQTrackAudioKeyframeStyle="0" TL.SQTrackShy="0" TL.SQTrackExpandedHeight="25" TL.SQTrackExpanded="0" MZ.TrackTargeted="0" PannerCurrentValue="0.5" PannerIsInverted="true" PannerStartKeyframe="-91445760000000000,0.5,0,0,0,0,0,0" PannerName="Balance" currentExplodedTrackIndex="0" totalExplodedTrackCount="2" premiereTrackType="Stereo">
									<enabled>TRUE</enabled>
									<locked>FALSE</locked>
									<outputchannelindex>1</outputchannelindex>
								</track>
								<track TL.SQTrackAudioKeyframeStyle="0" TL.SQTrackShy="0" TL.SQTrackExpandedHeight="25" TL.SQTrackExpanded="0" MZ.TrackTargeted="0" PannerCurrentValue="0.5" PannerIsInverted="true" PannerStartKeyframe="-91445760000000000,0.5,0,0,0,0,0,0" PannerName="Balance" currentExplodedTrackIndex="1" totalExplodedTrackCount="2" premiereTrackType="Stereo">
									<enabled>TRUE</enabled>
									<locked>FALSE</locked>
									<outputchannelindex>2</outputchannelindex>
								</track>
								<track TL.SQTrackAudioKeyframeStyle="0" TL.SQTrackShy="0" TL.SQTrackExpandedHeight="25" TL.SQTrackExpanded="0" MZ.TrackTargeted="0" PannerCurrentValue="0.5" PannerIsInverted="true" PannerStartKeyframe="-91445760000000000,0.5,0,0,0,0,0,0" PannerName="Balance" currentExplodedTrackIndex="0" totalExplodedTrackCount="2" premiereTrackType="Stereo">
									<enabled>TRUE</enabled>
									<locked>FALSE</locked>
									<outputchannelindex>1</outputchannelindex>
								</track>
								<track TL.SQTrackAudioKeyframeStyle="0" TL.SQTrackShy="0" TL.SQTrackExpandedHeight="25" TL.SQTrackExpanded="0" MZ.TrackTargeted="0" PannerCurrentValue="0.5" PannerIsInverted="true" PannerStartKeyframe="-91445760000000000,0.5,0,0,0,0,0,0" PannerName="Balance" currentExplodedTrackIndex="1" totalExplodedTrackCount="2" premiereTrackType="Stereo">
									<enabled>TRUE</enabled>
									<locked>FALSE</locked>
									<outputchannelindex>2</outputchannelindex>
								</track>
								<track TL.SQTrackAudioKeyframeStyle="0" TL.SQTrackShy="0" TL.SQTrackExpandedHeight="25" TL.SQTrackExpanded="0" MZ.TrackTargeted="0" PannerCurrentValue="0.5" PannerIsInverted="true" PannerStartKeyframe="-91445760000000000,0.5,0,0,0,0,0,0" PannerName="Balance" currentExplodedTrackIndex="0" totalExplodedTrackCount="2" premiereTrackType="Stereo">
									<enabled>TRUE</enabled>
									<locked>FALSE</locked>
									<outputchannelindex>1</outputchannelindex>
								</track>
								<track TL.SQTrackAudioKeyframeStyle="0" TL.SQTrackShy="0" TL.SQTrackExpandedHeight="25" TL.SQTrackExpanded="0" MZ.TrackTargeted="0" PannerCurrentValue="0.5" PannerIsInverted="true" PannerStartKeyframe="-91445760000000000,0.5,0,0,0,0,0,0" PannerName="Balance" currentExplodedTrackIndex="1" totalExplodedTrackCount="2" premiereTrackType="Stereo">
									<enabled>TRUE</enabled>
									<locked>FALSE</locked>
									<outputchannelindex>2</outputchannelindex>
								</track>
							</audio>
						</media>
						<timecode>
							<rate>
								<timebase>30</timebase>
								<ntsc>TRUE</ntsc>
							</rate>
							<string>00;00;00;00</string>
							<frame>0</frame>
							<displayformat>DF</displayformat>
						</timecode>
						<labels>
							<label2>Forest</label2>
						</labels>
						<logginginfo>
							<description></description>
							<scene></scene>
							<shottake></shottake>
							<lognote></lognote>
							<good></good>
							<originalvideofilename></originalvideofilename>
							<originalaudiofilename></originalaudiofilename>
						</logginginfo>
					</sequence>
					<sequence id="sequence-21" TL.SQAudioVisibleBase="0" TL.SQVideoVisibleBase="0" TL.SQVisibleBaseTime="0" TL.SQAVDividerPosition="0.5" TL.SQHideShyTracks="0" TL.SQHeaderWidth="236" TL.SQDataTrackViewControlState="0" Monitor.ProgramZoomOut="23070766118400" Monitor.ProgramZoomIn="0" TL.SQTimePerPixel="0.11166629346307749" AM.TrackVScrollPosition="0" AM.TrackScrollPosition="0" MZ.EditLine="4695519628800" MZ.Sequence.PreviewFrameSizeHeight="1080" MZ.Sequence.PreviewFrameSizeWidth="1920" MZ.Sequence.AudioTimeDisplayFormat="200" MZ.Sequence.PreviewRenderingClassID="1061109567" MZ.Sequence.PreviewRenderingPresetCodec="1634755443" MZ.Sequence.PreviewRenderingPresetPath="EncoderPresets/SequencePreview/35d109db-457b-43c1-9452-9cb7be9f121c/QuickTime.epr" MZ.Sequence.PreviewUseMaxRenderQuality="false" MZ.Sequence.PreviewUseMaxBitDepth="false" MZ.Sequence.EditingModeGUID="35d109db-457b-43c1-9452-9cb7be9f121c" MZ.Sequence.VideoTimeDisplayFormat="102" MZ.WorkOutPoint="1262874412800" MZ.WorkInPoint="0" explodedTracks="true">
						<uuid>3d17317f-f5b4-404f-bb7a-8374a1722d51</uuid>
						<duration>2722</duration>
						<rate>
							<timebase>30</timebase>
							<ntsc>TRUE</ntsc>
						</rate>
						<name>FND_Beautiful Brittle_1.5</name>
						<media>
							<video>
								<format>
									<samplecharacteristics>
										<rate>
											<timebase>30</timebase>
											<ntsc>TRUE</ntsc>
										</rate>
										<codec>
											<name>Apple ProRes 422</name>
											<appspecificdata>
												<appname>Final Cut Pro</appname>
												<appmanufacturer>Apple Inc.</appmanufacturer>
												<appversion>7.0</appversion>
												<data>
													<qtcodec>
														<codecname>Apple ProRes 422</codecname>
														<codectypename>Apple ProRes 422</codectypename>
														<codectypecode>apcn</codectypecode>
														<codecvendorcode>appl</codecvendorcode>
														<spatialquality>1024</spatialquality>
														<temporalquality>0</temporalquality>
														<keyframerate>0</keyframerate>
														<datarate>0</datarate>
													</qtcodec>
												</data>
											</appspecificdata>
										</codec>
										<width>1920</width>
										<height>1080</height>
										<anamorphic>FALSE</anamorphic>
										<pixelaspectratio>square</pixelaspectratio>
										<fielddominance>none</fielddominance>
										<colordepth>24</colordepth>
									</samplecharacteristics>
								</format>
								<track TL.SQTrackShy="0" TL.SQTrackExpandedHeight="25" TL.SQTrackExpanded="0" MZ.TrackTargeted="1">
									<clipitem id="clipitem-624">
										<masterclipid>masterclip-136</masterclipid>
										<name>(loganscandies)_7114744018478779694_TT.mp4</name>
										<enabled>TRUE</enabled>
										<duration>5910</duration>
										<rate>
											<timebase>30</timebase>
											<ntsc>TRUE</ntsc>
										</rate>
										<start>0</start>
										<end>258</end>
										<in>0</in>
										<out>258</out>
										<pproTicksIn>0</pproTicksIn>
										<pproTicksOut>2186722137600</pproTicksOut>
										<alphatype>none</alphatype>
										<file id="file-136"/>
										<logginginfo>
											<description></description>
											<scene></scene>
											<shottake></shottake>
											<lognote></lognote>
											<good></good>
											<originalvideofilename></originalvideofilename>
											<originalaudiofilename></originalaudiofilename>
										</logginginfo>
										<colorinfo>
											<lut></lut>
											<lut1></lut1>
											<asc_sop></asc_sop>
											<asc_sat></asc_sat>
											<lut2></lut2>
										</colorinfo>
									</clipitem>
									<clipitem id="clipitem-625">
										<masterclipid>masterclip-136</masterclipid>
										<name>(loganscandies)_7114744018478779694_TT.mp4</name>
										<enabled>TRUE</enabled>
										<duration>5910</duration>
										<rate>
											<timebase>30</timebase>
											<ntsc>TRUE</ntsc>
										</rate>
										<start>258</start>
										<end>308</end>
										<in>353</in>
										<out>403</out>
										<pproTicksIn>2991910521600</pproTicksIn>
										<pproTicksOut>3415693881600</pproTicksOut>
										<alphatype>none</alphatype>
										<file id="file-136"/>
										<logginginfo>
											<description></description>
											<scene></scene>
											<shottake></shottake>
											<lognote></lognote>
											<good></good>
											<originalvideofilename></originalvideofilename>
											<originalaudiofilename></originalaudiofilename>
										</logginginfo>
										<colorinfo>
											<lut></lut>
											<lut1></lut1>
											<asc_sop></asc_sop>
											<asc_sat></asc_sat>
											<lut2></lut2>
										</colorinfo>
									</clipitem>
									<clipitem id="clipitem-626">
										<masterclipid>masterclip-136</masterclipid>
										<name>(loganscandies)_7114744018478779694_TT.mp4</name>
										<enabled>TRUE</enabled>
										<duration>5910</duration>
										<rate>
											<timebase>30</timebase>
											<ntsc>TRUE</ntsc>
										</rate>
										<start>308</start>
										<end>578</end>
										<in>619</in>
										<out>889</out>
										<pproTicksIn>5246437996800</pproTicksIn>
										<pproTicksOut>7534868140800</pproTicksOut>
										<alphatype>none</alphatype>
										<file id="file-136"/>
										<logginginfo>
											<description></description>
											<scene></scene>
											<shottake></shottake>
											<lognote></lognote>
											<good></good>
											<originalvideofilename></originalvideofilename>
											<originalaudiofilename></originalaudiofilename>
										</logginginfo>
										<colorinfo>
											<lut></lut>
											<lut1></lut1>
											<asc_sop></asc_sop>
											<asc_sat></asc_sat>
											<lut2></lut2>
										</colorinfo>
									</clipitem>
									<clipitem id="clipitem-627">
										<masterclipid>masterclip-136</masterclipid>
										<name>(loganscandies)_7114744018478779694_TT.mp4</name>
										<enabled>TRUE</enabled>
										<duration>5910</duration>
										<rate>
											<timebase>30</timebase>
											<ntsc>TRUE</ntsc>
										</rate>
										<start>578</start>
										<end>684</end>
										<in>1277</in>
										<out>1383</out>
										<pproTicksIn>10823427014400</pproTicksIn>
										<pproTicksOut>11721847737600</pproTicksOut>
										<alphatype>none</alphatype>
										<file id="file-136"/>
										<logginginfo>
											<description></description>
											<scene></scene>
											<shottake></shottake>
											<lognote></lognote>
											<good></good>
											<originalvideofilename></originalvideofilename>
											<originalaudiofilename></originalaudiofilename>
										</logginginfo>
										<colorinfo>
											<lut></lut>
											<lut1></lut1>
											<asc_sop></asc_sop>
											<asc_sat></asc_sat>
											<lut2></lut2>
										</colorinfo>
									</clipitem>
									<clipitem id="clipitem-628">
										<masterclipid>masterclip-136</masterclipid>
										<name>(loganscandies)_7114744018478779694_TT.mp4</name>
										<enabled>TRUE</enabled>
										<duration>5910</duration>
										<rate>
											<timebase>30</timebase>
											<ntsc>TRUE</ntsc>
										</rate>
										<start>684</start>
										<end>847</end>
										<in>1682</in>
										<out>1845</out>
										<pproTicksIn>14256072230400</pproTicksIn>
										<pproTicksOut>15637605984000</pproTicksOut>
										<alphatype>none</alphatype>
										<file id="file-136"/>
										<logginginfo>
											<description></description>
											<scene></scene>
											<shottake></shottake>
											<lognote></lognote>
											<good></good>
											<originalvideofilename></originalvideofilename>
											<originalaudiofilename></originalaudiofilename>
										</logginginfo>
										<colorinfo>
											<lut></lut>
											<lut1></lut1>
											<asc_sop></asc_sop>
											<asc_sat></asc_sat>
											<lut2></lut2>
										</colorinfo>
									</clipitem>
									<clipitem id="clipitem-629">
										<masterclipid>masterclip-136</masterclipid>
										<name>(loganscandies)_7114744018478779694_TT.mp4</name>
										<enabled>TRUE</enabled>
										<duration>5910</duration>
										<rate>
											<timebase>30</timebase>
											<ntsc>TRUE</ntsc>
										</rate>
										<start>847</start>
										<end>1022</end>
										<in>2211</in>
										<out>2386</out>
										<pproTicksIn>18739700179200</pproTicksIn>
										<pproTicksOut>20222941939200</pproTicksOut>
										<alphatype>none</alphatype>
										<file id="file-136"/>
										<logginginfo>
											<description></description>
											<scene></scene>
											<shottake></shottake>
											<lognote></lognote>
											<good></good>
											<originalvideofilename></originalvideofilename>
											<originalaudiofilename></originalaudiofilename>
										</logginginfo>
										<colorinfo>
											<lut></lut>
											<lut1></lut1>
											<asc_sop></asc_sop>
											<asc_sat></asc_sat>
											<lut2></lut2>
										</colorinfo>
									</clipitem>
									<clipitem id="clipitem-630">
										<masterclipid>masterclip-136</masterclipid>
										<name>(loganscandies)_7114744018478779694_TT.mp4</name>
										<enabled>TRUE</enabled>
										<duration>5910</duration>
										<rate>
											<timebase>30</timebase>
											<ntsc>TRUE</ntsc>
										</rate>
										<start>1022</start>
										<end>1365</end>
										<in>2515</in>
										<out>2858</out>
										<pproTicksIn>21316303008000</pproTicksIn>
										<pproTicksOut>24223456857600</pproTicksOut>
										<alphatype>none</alphatype>
										<file id="file-136"/>
										<logginginfo>
											<description></description>
											<scene></scene>
											<shottake></shottake>
											<lognote></lognote>
											<good></good>
											<originalvideofilename></originalvideofilename>
											<originalaudiofilename></originalaudiofilename>
										</logginginfo>
										<colorinfo>
											<lut></lut>
											<lut1></lut1>
											<asc_sop></asc_sop>
											<asc_sat></asc_sat>
											<lut2></lut2>
										</colorinfo>
									</clipitem>
									<clipitem id="clipitem-631">
										<masterclipid>masterclip-136</masterclipid>
										<name>(loganscandies)_7114744018478779694_TT.mp4</name>
										<enabled>TRUE</enabled>
										<duration>5910</duration>
										<rate>
											<timebase>30</timebase>
											<ntsc>TRUE</ntsc>
										</rate>
										<start>1365</start>
										<end>1424</end>
										<in>3172</in>
										<out>3231</out>
										<pproTicksIn>26884816358400</pproTicksIn>
										<pproTicksOut>27384880723200</pproTicksOut>
										<alphatype>none</alphatype>
										<file id="file-136"/>
										<logginginfo>
											<description></description>
											<scene></scene>
											<shottake></shottake>
											<lognote></lognote>
											<good></good>
											<originalvideofilename></originalvideofilename>
											<originalaudiofilename></originalaudiofilename>
										</logginginfo>
										<colorinfo>
											<lut></lut>
											<lut1></lut1>
											<asc_sop></asc_sop>
											<asc_sat></asc_sat>
											<lut2></lut2>
										</colorinfo>
									</clipitem>
									<clipitem id="clipitem-632">
										<masterclipid>masterclip-136</masterclipid>
										<name>(loganscandies)_7114744018478779694_TT.mp4</name>
										<enabled>TRUE</enabled>
										<duration>5910</duration>
										<rate>
											<timebase>30</timebase>
											<ntsc>TRUE</ntsc>
										</rate>
										<start>1424</start>
										<end>1647</end>
										<in>3442</in>
										<out>3665</out>
										<pproTicksIn>29173246502400</pproTicksIn>
										<pproTicksOut>31063320288000</pproTicksOut>
										<alphatype>none</alphatype>
										<file id="file-136"/>
										<logginginfo>
											<description></description>
											<scene></scene>
											<shottake></shottake>
											<lognote></lognote>
											<good></good>
											<originalvideofilename></originalvideofilename>
											<originalaudiofilename></originalaudiofilename>
										</logginginfo>
										<colorinfo>
											<lut></lut>
											<lut1></lut1>
											<asc_sop></asc_sop>
											<asc_sat></asc_sat>
											<lut2></lut2>
										</colorinfo>
									</clipitem>
									<clipitem id="clipitem-633">
										<masterclipid>masterclip-136</masterclipid>
										<name>(loganscandies)_7114744018478779694_TT.mp4</name>
										<enabled>TRUE</enabled>
										<duration>5910</duration>
										<rate>
											<timebase>30</timebase>
											<ntsc>TRUE</ntsc>
										</rate>
										<start>1647</start>
										<end>2156</end>
										<in>3774</in>
										<out>4283</out>
										<pproTicksIn>31987168012800</pproTicksIn>
										<pproTicksOut>36301282617600</pproTicksOut>
										<alphatype>none</alphatype>
										<file id="file-136"/>
										<logginginfo>
											<description></description>
											<scene></scene>
											<shottake></shottake>
											<lognote></lognote>
											<good></good>
											<originalvideofilename></originalvideofilename>
											<originalaudiofilename></originalaudiofilename>
										</logginginfo>
										<colorinfo>
											<lut></lut>
											<lut1></lut1>
											<asc_sop></asc_sop>
											<asc_sat></asc_sat>
											<lut2></lut2>
										</colorinfo>
									</clipitem>
									<clipitem id="clipitem-634">
										<masterclipid>masterclip-136</masterclipid>
										<name>(loganscandies)_7114744018478779694_TT.mp4</name>
										<enabled>TRUE</enabled>
										<duration>5910</duration>
										<rate>
											<timebase>30</timebase>
											<ntsc>TRUE</ntsc>
										</rate>
										<start>2156</start>
										<end>2249</end>
										<in>4488</in>
										<out>4581</out>
										<pproTicksIn>38038794393600</pproTicksIn>
										<pproTicksOut>38827031443200</pproTicksOut>
										<alphatype>none</alphatype>
										<file id="file-136"/>
										<logginginfo>
											<description></description>
											<scene></scene>
											<shottake></shottake>
											<lognote></lognote>
											<good></good>
											<originalvideofilename></originalvideofilename>
											<originalaudiofilename></originalaudiofilename>
										</logginginfo>
										<colorinfo>
											<lut></lut>
											<lut1></lut1>
											<asc_sop></asc_sop>
											<asc_sat></asc_sat>
											<lut2></lut2>
										</colorinfo>
									</clipitem>
									<clipitem id="clipitem-635">
										<masterclipid>masterclip-136</masterclipid>
										<name>(loganscandies)_7114744018478779694_TT.mp4</name>
										<enabled>TRUE</enabled>
										<duration>5910</duration>
										<rate>
											<timebase>30</timebase>
											<ntsc>TRUE</ntsc>
										</rate>
										<start>2249</start>
										<end>2368</end>
										<in>4638</in>
										<out>4757</out>
										<pproTicksIn>39310144473600</pproTicksIn>
										<pproTicksOut>40318748870400</pproTicksOut>
										<alphatype>none</alphatype>
										<file id="file-136"/>
										<logginginfo>
											<description></description>
											<scene></scene>
											<shottake></shottake>
											<lognote></lognote>
											<good></good>
											<originalvideofilename></originalvideofilename>
											<originalaudiofilename></originalaudiofilename>
										</logginginfo>
										<colorinfo>
											<lut></lut>
											<lut1></lut1>
											<asc_sop></asc_sop>
											<asc_sat></asc_sat>
											<lut2></lut2>
										</colorinfo>
									</clipitem>
									<clipitem id="clipitem-636">
										<masterclipid>masterclip-136</masterclipid>
										<name>(loganscandies)_7114744018478779694_TT.mp4</name>
										<enabled>TRUE</enabled>
										<duration>5910</duration>
										<rate>
											<timebase>30</timebase>
											<ntsc>TRUE</ntsc>
										</rate>
										<start>2368</start>
										<end>2448</end>
										<in>4891</in>
										<out>4971</out>
										<pproTicksIn>41454488275200</pproTicksIn>
										<pproTicksOut>42132541651200</pproTicksOut>
										<alphatype>none</alphatype>
										<file id="file-136"/>
										<logginginfo>
											<description></description>
											<scene></scene>
											<shottake></shottake>
											<lognote></lognote>
											<good></good>
											<originalvideofilename></originalvideofilename>
											<originalaudiofilename></originalaudiofilename>
										</logginginfo>
										<colorinfo>
											<lut></lut>
											<lut1></lut1>
											<asc_sop></asc_sop>
											<asc_sat></asc_sat>
											<lut2></lut2>
										</colorinfo>
									</clipitem>
									<clipitem id="clipitem-637">
										<masterclipid>masterclip-136</masterclipid>
										<name>(loganscandies)_7114744018478779694_TT.mp4</name>
										<enabled>TRUE</enabled>
										<duration>5910</duration>
										<rate>
											<timebase>30</timebase>
											<ntsc>TRUE</ntsc>
										</rate>
										<start>2448</start>
										<end>2722</end>
										<in>5390</in>
										<out>5664</out>
										<pproTicksIn>45683846208000</pproTicksIn>
										<pproTicksOut>48006179020800</pproTicksOut>
										<alphatype>none</alphatype>
										<file id="file-136"/>
										<logginginfo>
											<description></description>
											<scene></scene>
											<shottake></shottake>
											<lognote></lognote>
											<good></good>
											<originalvideofilename></originalvideofilename>
											<originalaudiofilename></originalaudiofilename>
										</logginginfo>
										<colorinfo>
											<lut></lut>
											<lut1></lut1>
											<asc_sop></asc_sop>
											<asc_sat></asc_sat>
											<lut2></lut2>
										</colorinfo>
									</clipitem>
									<enabled>TRUE</enabled>
									<locked>FALSE</locked>
								</track>
								<track TL.SQTrackShy="0" TL.SQTrackExpandedHeight="25" TL.SQTrackExpanded="0" MZ.TrackTargeted="0">
									<clipitem id="clipitem-638">
										<masterclipid>masterclip-190</masterclipid>
										<name>Eyecandy Vertical Video Frame 1</name>
										<enabled>TRUE</enabled>
										<duration>5700</duration>
										<rate>
											<timebase>30</timebase>
											<ntsc>TRUE</ntsc>
										</rate>
										<start>0</start>
										<end>2722</end>
										<in>182</in>
										<out>2904</out>
										<pproTicksIn>1542571430400</pproTicksIn>
										<pproTicksOut>24613337548800</pproTicksOut>
										<alphatype>straight</alphatype>
										<file id="file-188"/>
										<logginginfo>
											<description></description>
											<scene></scene>
											<shottake></shottake>
											<lognote></lognote>
											<good></good>
											<originalvideofilename></originalvideofilename>
											<originalaudiofilename></originalaudiofilename>
										</logginginfo>
										<colorinfo>
											<lut></lut>
											<lut1></lut1>
											<asc_sop></asc_sop>
											<asc_sat></asc_sat>
											<lut2></lut2>
										</colorinfo>
									</clipitem>
									<enabled>TRUE</enabled>
									<locked>FALSE</locked>
								</track>
								<track TL.SQTrackShy="0" TL.SQTrackExpandedHeight="25" TL.SQTrackExpanded="0" MZ.TrackTargeted="0">
									<enabled>TRUE</enabled>
									<locked>FALSE</locked>
								</track>
								<track TL.SQTrackShy="0" TL.SQTrackExpandedHeight="25" TL.SQTrackExpanded="0" MZ.TrackTargeted="0">
									<enabled>TRUE</enabled>
									<locked>FALSE</locked>
								</track>
								<track TL.SQTrackShy="0" TL.SQTrackExpandedHeight="25" TL.SQTrackExpanded="0" MZ.TrackTargeted="0">
									<enabled>TRUE</enabled>
									<locked>FALSE</locked>
								</track>
								<track TL.SQTrackShy="0" TL.SQTrackExpandedHeight="25" TL.SQTrackExpanded="0" MZ.TrackTargeted="0">
									<enabled>TRUE</enabled>
									<locked>FALSE</locked>
								</track>
								<track TL.SQTrackShy="0" TL.SQTrackExpandedHeight="25" TL.SQTrackExpanded="0" MZ.TrackTargeted="0">
									<enabled>TRUE</enabled>
									<locked>FALSE</locked>
								</track>
								<track TL.SQTrackShy="0" TL.SQTrackExpandedHeight="25" TL.SQTrackExpanded="0" MZ.TrackTargeted="0">
									<enabled>TRUE</enabled>
									<locked>FALSE</locked>
								</track>
								<track TL.SQTrackShy="0" TL.SQTrackExpandedHeight="25" TL.SQTrackExpanded="0" MZ.TrackTargeted="0">
									<enabled>TRUE</enabled>
									<locked>FALSE</locked>
								</track>
								<track TL.SQTrackShy="0" TL.SQTrackExpandedHeight="25" TL.SQTrackExpanded="0" MZ.TrackTargeted="0">
									<enabled>TRUE</enabled>
									<locked>FALSE</locked>
								</track>
							</video>
							<audio>
								<numOutputChannels>2</numOutputChannels>
								<format>
									<samplecharacteristics>
										<depth>16</depth>
										<samplerate>48000</samplerate>
									</samplecharacteristics>
								</format>
								<outputs>
									<group>
										<index>1</index>
										<numchannels>1</numchannels>
										<downmix>0</downmix>
										<channel>
											<index>1</index>
										</channel>
									</group>
									<group>
										<index>2</index>
										<numchannels>1</numchannels>
										<downmix>0</downmix>
										<channel>
											<index>2</index>
										</channel>
									</group>
								</outputs>
								<track TL.SQTrackAudioKeyframeStyle="0" TL.SQTrackShy="0" TL.SQTrackExpandedHeight="25" TL.SQTrackExpanded="0" MZ.TrackTargeted="1" PannerCurrentValue="0.5" PannerIsInverted="true" PannerStartKeyframe="-91445760000000000,0.5,0,0,0,0,0,0" PannerName="Balance" currentExplodedTrackIndex="0" totalExplodedTrackCount="2" premiereTrackType="Stereo">
									<clipitem id="clipitem-639" premiereChannelType="stereo">
										<masterclipid>masterclip-201</masterclipid>
										<name>ES_Grandmas Cookies - Henyao.mp3</name>
										<enabled>TRUE</enabled>
										<duration>6704</duration>
										<rate>
											<timebase>30</timebase>
											<ntsc>TRUE</ntsc>
										</rate>
										<start>0</start>
										<end>2722</end>
										<in>0</in>
										<out>2722</out>
										<pproTicksIn>0</pproTicksIn>
										<pproTicksOut>23070766118400</pproTicksOut>
										<file id="file-198">
											<name>ES_Grandmas Cookies - Henyao.mp3</name>
											<pathurl>file://localhost/Volumes/ATM%201/EYE%20CANDY/8%3a21%3a23/5_Assets/Music/ES_Grandmas%20Cookies%20-%20Henyao.mp3</pathurl>
											<rate>
												<timebase>30</timebase>
												<ntsc>TRUE</ntsc>
											</rate>
											<duration>6704</duration>
											<timecode>
												<rate>
													<timebase>30</timebase>
													<ntsc>TRUE</ntsc>
												</rate>
												<string>00;00;00;00</string>
												<frame>0</frame>
												<displayformat>DF</displayformat>
											</timecode>
											<media>
												<audio>
													<samplecharacteristics>
														<depth>16</depth>
														<samplerate>48000</samplerate>
													</samplecharacteristics>
													<channelcount>2</channelcount>
												</audio>
											</media>
										</file>
										<sourcetrack>
											<mediatype>audio</mediatype>
											<trackindex>1</trackindex>
										</sourcetrack>
										<link>
											<linkclipref>clipitem-639</linkclipref>
											<mediatype>audio</mediatype>
											<trackindex>1</trackindex>
											<clipindex>1</clipindex>
											<groupindex>1</groupindex>
										</link>
										<link>
											<linkclipref>clipitem-640</linkclipref>
											<mediatype>audio</mediatype>
											<trackindex>2</trackindex>
											<clipindex>1</clipindex>
											<groupindex>1</groupindex>
										</link>
										<logginginfo>
											<description></description>
											<scene></scene>
											<shottake></shottake>
											<lognote></lognote>
											<good></good>
											<originalvideofilename></originalvideofilename>
											<originalaudiofilename></originalaudiofilename>
										</logginginfo>
										<colorinfo>
											<lut></lut>
											<lut1></lut1>
											<asc_sop></asc_sop>
											<asc_sat></asc_sat>
											<lut2></lut2>
										</colorinfo>
										<labels>
											<label2>Caribbean</label2>
										</labels>
									</clipitem>
									<enabled>TRUE</enabled>
									<locked>FALSE</locked>
									<filter>
										<effect>
											<name>Audio Levels</name>
											<effectid>audiolevels</effectid>
											<effectcategory>audiolevels</effectcategory>
											<effecttype>audiolevels</effecttype>
											<mediatype>audio</mediatype>
											<parameter authoringApp="PremierePro">
												<parameterid>level</parameterid>
												<name>Level</name>
												<valuemin>0</valuemin>
												<valuemax>3.98109</valuemax>
												<value>0.706272</value>
											</parameter>
										</effect>
									</filter>
									<outputchannelindex>1</outputchannelindex>
								</track>
								<track TL.SQTrackAudioKeyframeStyle="0" TL.SQTrackShy="0" TL.SQTrackExpandedHeight="25" TL.SQTrackExpanded="0" MZ.TrackTargeted="1" PannerCurrentValue="0.5" PannerIsInverted="true" PannerStartKeyframe="-91445760000000000,0.5,0,0,0,0,0,0" PannerName="Balance" currentExplodedTrackIndex="1" totalExplodedTrackCount="2" premiereTrackType="Stereo">
									<clipitem id="clipitem-640" premiereChannelType="stereo">
										<masterclipid>masterclip-201</masterclipid>
										<name>ES_Grandmas Cookies - Henyao.mp3</name>
										<enabled>TRUE</enabled>
										<duration>6704</duration>
										<rate>
											<timebase>30</timebase>
											<ntsc>TRUE</ntsc>
										</rate>
										<start>0</start>
										<end>2722</end>
										<in>0</in>
										<out>2722</out>
										<pproTicksIn>0</pproTicksIn>
										<pproTicksOut>23070766118400</pproTicksOut>
										<file id="file-198"/>
										<sourcetrack>
											<mediatype>audio</mediatype>
											<trackindex>2</trackindex>
										</sourcetrack>
										<link>
											<linkclipref>clipitem-639</linkclipref>
											<mediatype>audio</mediatype>
											<trackindex>1</trackindex>
											<clipindex>1</clipindex>
											<groupindex>1</groupindex>
										</link>
										<link>
											<linkclipref>clipitem-640</linkclipref>
											<mediatype>audio</mediatype>
											<trackindex>2</trackindex>
											<clipindex>1</clipindex>
											<groupindex>1</groupindex>
										</link>
										<logginginfo>
											<description></description>
											<scene></scene>
											<shottake></shottake>
											<lognote></lognote>
											<good></good>
											<originalvideofilename></originalvideofilename>
											<originalaudiofilename></originalaudiofilename>
										</logginginfo>
										<colorinfo>
											<lut></lut>
											<lut1></lut1>
											<asc_sop></asc_sop>
											<asc_sat></asc_sat>
											<lut2></lut2>
										</colorinfo>
										<labels>
											<label2>Caribbean</label2>
										</labels>
									</clipitem>
									<enabled>TRUE</enabled>
									<locked>FALSE</locked>
									<filter>
										<effect>
											<name>Audio Levels</name>
											<effectid>audiolevels</effectid>
											<effectcategory>audiolevels</effectcategory>
											<effecttype>audiolevels</effecttype>
											<mediatype>audio</mediatype>
											<parameter authoringApp="PremierePro">
												<parameterid>level</parameterid>
												<name>Level</name>
												<valuemin>0</valuemin>
												<valuemax>3.98109</valuemax>
												<value>0.706272</value>
											</parameter>
										</effect>
									</filter>
									<outputchannelindex>2</outputchannelindex>
								</track>
								<track TL.SQTrackAudioKeyframeStyle="0" TL.SQTrackShy="0" TL.SQTrackExpandedHeight="25" TL.SQTrackExpanded="0" MZ.TrackTargeted="0" PannerCurrentValue="0.5" PannerIsInverted="true" PannerStartKeyframe="-91445760000000000,0.5,0,0,0,0,0,0" PannerName="Balance" currentExplodedTrackIndex="0" totalExplodedTrackCount="2" premiereTrackType="Stereo">
									<enabled>TRUE</enabled>
									<locked>FALSE</locked>
									<outputchannelindex>1</outputchannelindex>
								</track>
								<track TL.SQTrackAudioKeyframeStyle="0" TL.SQTrackShy="0" TL.SQTrackExpandedHeight="25" TL.SQTrackExpanded="0" MZ.TrackTargeted="0" PannerCurrentValue="0.5" PannerIsInverted="true" PannerStartKeyframe="-91445760000000000,0.5,0,0,0,0,0,0" PannerName="Balance" currentExplodedTrackIndex="1" totalExplodedTrackCount="2" premiereTrackType="Stereo">
									<enabled>TRUE</enabled>
									<locked>FALSE</locked>
									<outputchannelindex>2</outputchannelindex>
								</track>
								<track TL.SQTrackAudioKeyframeStyle="0" TL.SQTrackShy="0" TL.SQTrackExpandedHeight="25" TL.SQTrackExpanded="0" MZ.TrackTargeted="0" PannerCurrentValue="0.5" PannerIsInverted="true" PannerStartKeyframe="-91445760000000000,0.5,0,0,0,0,0,0" PannerName="Balance" currentExplodedTrackIndex="0" totalExplodedTrackCount="2" premiereTrackType="Stereo">
									<enabled>TRUE</enabled>
									<locked>FALSE</locked>
									<outputchannelindex>1</outputchannelindex>
								</track>
								<track TL.SQTrackAudioKeyframeStyle="0" TL.SQTrackShy="0" TL.SQTrackExpandedHeight="25" TL.SQTrackExpanded="0" MZ.TrackTargeted="0" PannerCurrentValue="0.5" PannerIsInverted="true" PannerStartKeyframe="-91445760000000000,0.5,0,0,0,0,0,0" PannerName="Balance" currentExplodedTrackIndex="1" totalExplodedTrackCount="2" premiereTrackType="Stereo">
									<enabled>TRUE</enabled>
									<locked>FALSE</locked>
									<outputchannelindex>2</outputchannelindex>
								</track>
								<track TL.SQTrackAudioKeyframeStyle="0" TL.SQTrackShy="0" TL.SQTrackExpandedHeight="25" TL.SQTrackExpanded="0" MZ.TrackTargeted="0" PannerCurrentValue="0.5" PannerIsInverted="true" PannerStartKeyframe="-91445760000000000,0.5,0,0,0,0,0,0" PannerName="Balance" currentExplodedTrackIndex="0" totalExplodedTrackCount="2" premiereTrackType="Stereo">
									<enabled>TRUE</enabled>
									<locked>FALSE</locked>
									<outputchannelindex>1</outputchannelindex>
								</track>
								<track TL.SQTrackAudioKeyframeStyle="0" TL.SQTrackShy="0" TL.SQTrackExpandedHeight="25" TL.SQTrackExpanded="0" MZ.TrackTargeted="0" PannerCurrentValue="0.5" PannerIsInverted="true" PannerStartKeyframe="-91445760000000000,0.5,0,0,0,0,0,0" PannerName="Balance" currentExplodedTrackIndex="1" totalExplodedTrackCount="2" premiereTrackType="Stereo">
									<enabled>TRUE</enabled>
									<locked>FALSE</locked>
									<outputchannelindex>2</outputchannelindex>
								</track>
								<track TL.SQTrackAudioKeyframeStyle="0" TL.SQTrackShy="0" TL.SQTrackExpandedHeight="25" TL.SQTrackExpanded="0" MZ.TrackTargeted="0" PannerCurrentValue="0.5" PannerIsInverted="true" PannerStartKeyframe="-91445760000000000,0.5,0,0,0,0,0,0" PannerName="Balance" currentExplodedTrackIndex="0" totalExplodedTrackCount="2" premiereTrackType="Stereo">
									<enabled>TRUE</enabled>
									<locked>FALSE</locked>
									<outputchannelindex>1</outputchannelindex>
								</track>
								<track TL.SQTrackAudioKeyframeStyle="0" TL.SQTrackShy="0" TL.SQTrackExpandedHeight="25" TL.SQTrackExpanded="0" MZ.TrackTargeted="0" PannerCurrentValue="0.5" PannerIsInverted="true" PannerStartKeyframe="-91445760000000000,0.5,0,0,0,0,0,0" PannerName="Balance" currentExplodedTrackIndex="1" totalExplodedTrackCount="2" premiereTrackType="Stereo">
									<enabled>TRUE</enabled>
									<locked>FALSE</locked>
									<outputchannelindex>2</outputchannelindex>
								</track>
								<track TL.SQTrackAudioKeyframeStyle="0" TL.SQTrackShy="0" TL.SQTrackExpandedHeight="25" TL.SQTrackExpanded="0" MZ.TrackTargeted="0" PannerCurrentValue="0.5" PannerIsInverted="true" PannerStartKeyframe="-91445760000000000,0.5,0,0,0,0,0,0" PannerName="Balance" currentExplodedTrackIndex="0" totalExplodedTrackCount="2" premiereTrackType="Stereo">
									<enabled>TRUE</enabled>
									<locked>FALSE</locked>
									<outputchannelindex>1</outputchannelindex>
								</track>
								<track TL.SQTrackAudioKeyframeStyle="0" TL.SQTrackShy="0" TL.SQTrackExpandedHeight="25" TL.SQTrackExpanded="0" MZ.TrackTargeted="0" PannerCurrentValue="0.5" PannerIsInverted="true" PannerStartKeyframe="-91445760000000000,0.5,0,0,0,0,0,0" PannerName="Balance" currentExplodedTrackIndex="1" totalExplodedTrackCount="2" premiereTrackType="Stereo">
									<enabled>TRUE</enabled>
									<locked>FALSE</locked>
									<outputchannelindex>2</outputchannelindex>
								</track>
								<track TL.SQTrackAudioKeyframeStyle="0" TL.SQTrackShy="0" TL.SQTrackExpandedHeight="25" TL.SQTrackExpanded="0" MZ.TrackTargeted="0" PannerCurrentValue="0.5" PannerIsInverted="true" PannerStartKeyframe="-91445760000000000,0.5,0,0,0,0,0,0" PannerName="Balance" currentExplodedTrackIndex="0" totalExplodedTrackCount="2" premiereTrackType="Stereo">
									<enabled>TRUE</enabled>
									<locked>FALSE</locked>
									<outputchannelindex>1</outputchannelindex>
								</track>
								<track TL.SQTrackAudioKeyframeStyle="0" TL.SQTrackShy="0" TL.SQTrackExpandedHeight="25" TL.SQTrackExpanded="0" MZ.TrackTargeted="0" PannerCurrentValue="0.5" PannerIsInverted="true" PannerStartKeyframe="-91445760000000000,0.5,0,0,0,0,0,0" PannerName="Balance" currentExplodedTrackIndex="1" totalExplodedTrackCount="2" premiereTrackType="Stereo">
									<enabled>TRUE</enabled>
									<locked>FALSE</locked>
									<outputchannelindex>2</outputchannelindex>
								</track>
								<track TL.SQTrackAudioKeyframeStyle="0" TL.SQTrackShy="0" TL.SQTrackExpandedHeight="25" TL.SQTrackExpanded="0" MZ.TrackTargeted="0" PannerCurrentValue="0.5" PannerIsInverted="true" PannerStartKeyframe="-91445760000000000,0.5,0,0,0,0,0,0" PannerName="Balance" currentExplodedTrackIndex="0" totalExplodedTrackCount="2" premiereTrackType="Stereo">
									<enabled>TRUE</enabled>
									<locked>FALSE</locked>
									<outputchannelindex>1</outputchannelindex>
								</track>
								<track TL.SQTrackAudioKeyframeStyle="0" TL.SQTrackShy="0" TL.SQTrackExpandedHeight="25" TL.SQTrackExpanded="0" MZ.TrackTargeted="0" PannerCurrentValue="0.5" PannerIsInverted="true" PannerStartKeyframe="-91445760000000000,0.5,0,0,0,0,0,0" PannerName="Balance" currentExplodedTrackIndex="1" totalExplodedTrackCount="2" premiereTrackType="Stereo">
									<enabled>TRUE</enabled>
									<locked>FALSE</locked>
									<outputchannelindex>2</outputchannelindex>
								</track>
								<track TL.SQTrackAudioKeyframeStyle="0" TL.SQTrackShy="0" TL.SQTrackExpandedHeight="25" TL.SQTrackExpanded="0" MZ.TrackTargeted="0" PannerCurrentValue="0.5" PannerIsInverted="true" PannerStartKeyframe="-91445760000000000,0.5,0,0,0,0,0,0" PannerName="Balance" currentExplodedTrackIndex="0" totalExplodedTrackCount="2" premiereTrackType="Stereo">
									<enabled>TRUE</enabled>
									<locked>FALSE</locked>
									<outputchannelindex>1</outputchannelindex>
								</track>
								<track TL.SQTrackAudioKeyframeStyle="0" TL.SQTrackShy="0" TL.SQTrackExpandedHeight="25" TL.SQTrackExpanded="0" MZ.TrackTargeted="0" PannerCurrentValue="0.5" PannerIsInverted="true" PannerStartKeyframe="-91445760000000000,0.5,0,0,0,0,0,0" PannerName="Balance" currentExplodedTrackIndex="1" totalExplodedTrackCount="2" premiereTrackType="Stereo">
									<enabled>TRUE</enabled>
									<locked>FALSE</locked>
									<outputchannelindex>2</outputchannelindex>
								</track>
								<track TL.SQTrackAudioKeyframeStyle="0" TL.SQTrackShy="0" TL.SQTrackExpandedHeight="25" TL.SQTrackExpanded="0" MZ.TrackTargeted="0" PannerCurrentValue="0.5" PannerIsInverted="true" PannerStartKeyframe="-91445760000000000,0.5,0,0,0,0,0,0" PannerName="Balance" currentExplodedTrackIndex="0" totalExplodedTrackCount="2" premiereTrackType="Stereo">
									<enabled>TRUE</enabled>
									<locked>FALSE</locked>
									<outputchannelindex>1</outputchannelindex>
								</track>
								<track TL.SQTrackAudioKeyframeStyle="0" TL.SQTrackShy="0" TL.SQTrackExpandedHeight="25" TL.SQTrackExpanded="0" MZ.TrackTargeted="0" PannerCurrentValue="0.5" PannerIsInverted="true" PannerStartKeyframe="-91445760000000000,0.5,0,0,0,0,0,0" PannerName="Balance" currentExplodedTrackIndex="1" totalExplodedTrackCount="2" premiereTrackType="Stereo">
									<enabled>TRUE</enabled>
									<locked>FALSE</locked>
									<outputchannelindex>2</outputchannelindex>
								</track>
							</audio>
						</media>
						<timecode>
							<rate>
								<timebase>30</timebase>
								<ntsc>TRUE</ntsc>
							</rate>
							<string>00;00;00;00</string>
							<frame>0</frame>
							<displayformat>DF</displayformat>
						</timecode>
						<labels>
							<label2>Forest</label2>
						</labels>
						<logginginfo>
							<description></description>
							<scene></scene>
							<shottake></shottake>
							<lognote></lognote>
							<good></good>
							<originalvideofilename></originalvideofilename>
							<originalaudiofilename></originalaudiofilename>
						</logginginfo>
					</sequence>
					<sequence id="sequence-22" TL.SQAudioVisibleBase="0" TL.SQVideoVisibleBase="0" TL.SQVisibleBaseTime="0" TL.SQAVDividerPosition="0.5" TL.SQHideShyTracks="0" TL.SQHeaderWidth="236" TL.SQDataTrackViewControlState="0" Monitor.ProgramZoomOut="15501995308800" Monitor.ProgramZoomIn="0" TL.SQTimePerPixel="0.071182222222215694" AM.TrackVScrollPosition="0" AM.TrackScrollPosition="0" MZ.EditLine="7416208800000" MZ.Sequence.PreviewFrameSizeHeight="1080" MZ.Sequence.PreviewFrameSizeWidth="1920" MZ.Sequence.AudioTimeDisplayFormat="200" MZ.Sequence.PreviewRenderingClassID="1061109567" MZ.Sequence.PreviewRenderingPresetCodec="1634755443" MZ.Sequence.PreviewRenderingPresetPath="EncoderPresets/SequencePreview/35d109db-457b-43c1-9452-9cb7be9f121c/QuickTime.epr" MZ.Sequence.PreviewUseMaxRenderQuality="false" MZ.Sequence.PreviewUseMaxBitDepth="false" MZ.Sequence.EditingModeGUID="35d109db-457b-43c1-9452-9cb7be9f121c" MZ.Sequence.VideoTimeDisplayFormat="102" MZ.WorkOutPoint="1262874412800" MZ.WorkInPoint="0" explodedTracks="true">
						<uuid>0dd1260b-e249-4171-8d7c-e0f9513ac107</uuid>
						<duration>1829</duration>
						<rate>
							<timebase>30</timebase>
							<ntsc>TRUE</ntsc>
						</rate>
						<name>FND_"Blood Orange"? It's Red._1</name>
						<media>
							<video>
								<format>
									<samplecharacteristics>
										<rate>
											<timebase>30</timebase>
											<ntsc>TRUE</ntsc>
										</rate>
										<codec>
											<name>Apple ProRes 422</name>
											<appspecificdata>
												<appname>Final Cut Pro</appname>
												<appmanufacturer>Apple Inc.</appmanufacturer>
												<appversion>7.0</appversion>
												<data>
													<qtcodec>
														<codecname>Apple ProRes 422</codecname>
														<codectypename>Apple ProRes 422</codectypename>
														<codectypecode>apcn</codectypecode>
														<codecvendorcode>appl</codecvendorcode>
														<spatialquality>1024</spatialquality>
														<temporalquality>0</temporalquality>
														<keyframerate>0</keyframerate>
														<datarate>0</datarate>
													</qtcodec>
												</data>
											</appspecificdata>
										</codec>
										<width>1920</width>
										<height>1080</height>
										<anamorphic>FALSE</anamorphic>
										<pixelaspectratio>square</pixelaspectratio>
										<fielddominance>none</fielddominance>
										<colordepth>24</colordepth>
									</samplecharacteristics>
								</format>
								<track TL.SQTrackShy="0" TL.SQTrackExpandedHeight="25" TL.SQTrackExpanded="0" MZ.TrackTargeted="1">
									<clipitem id="clipitem-641">
										<masterclipid>masterclip-138</masterclipid>
										<name>(allyoucansweet)_7072790017701072174_TT.mp4</name>
										<enabled>TRUE</enabled>
										<duration>852</duration>
										<rate>
											<timebase>30</timebase>
											<ntsc>TRUE</ntsc>
										</rate>
										<start>0</start>
										<end>504</end>
										<in>108</in>
										<out>611</out>
										<pproTicksIn>1180660440960</pproTicksIn>
										<pproTicksOut>6733917590400</pproTicksOut>
										<alphatype>none</alphatype>
										<file id="file-138"/>
										<filter>
											<effect>
												<name>Time Remap</name>
												<effectid>timeremap</effectid>
												<effectcategory>motion</effectcategory>
												<effecttype>motion</effecttype>
												<mediatype>video</mediatype>
												<parameter authoringApp="PremierePro">
													<parameterid>variablespeed</parameterid>
													<name>variablespeed</name>
													<valuemin>0</valuemin>
													<valuemax>1</valuemax>
													<value>0</value>
												</parameter>
												<parameter authoringApp="PremierePro">
													<parameterid>speed</parameterid>
													<name>speed</name>
													<valuemin>-100000</valuemin>
													<valuemax>100000</valuemax>
													<value>130</value>
												</parameter>
												<parameter authoringApp="PremierePro">
													<parameterid>reverse</parameterid>
													<name>reverse</name>
													<value>FALSE</value>
												</parameter>
												<parameter authoringApp="PremierePro">
													<parameterid>frameblending</parameterid>
													<name>frameblending</name>
													<value>FALSE</value>
												</parameter>
												<parameter authoringApp="PremierePro">
													<parameterid>graphdict</parameterid>
													<name>graphdict</name>
													<valuemin>0</valuemin>
													<valuemax>1107</valuemax>
													<value>0</value>
													<keyframe>
														<when>0</when>
														<value>0</value>
														<speedvirtualkf>TRUE</speedvirtualkf>
														<speedkfstart>TRUE</speedkfstart>
													</keyframe>
													<keyframe>
														<when>108</when>
														<value>140</value>
														<speedvirtualkf>TRUE</speedvirtualkf>
														<speedkfin>TRUE</speedkfin>
													</keyframe>
													<keyframe>
														<when>611</when>
														<value>794</value>
														<speedvirtualkf>TRUE</speedvirtualkf>
														<speedkfout>TRUE</speedkfout>
													</keyframe>
													<keyframe>
														<when>852</when>
														<value>1107</value>
														<speedvirtualkf>TRUE</speedvirtualkf>
														<speedkfend>TRUE</speedkfend>
													</keyframe>
													<interpolation>
														<name>FCPCurve</name>
													</interpolation>
												</parameter>
											</effect>
										</filter>
										<logginginfo>
											<description></description>
											<scene></scene>
											<shottake></shottake>
											<lognote></lognote>
											<good></good>
											<originalvideofilename></originalvideofilename>
											<originalaudiofilename></originalaudiofilename>
										</logginginfo>
										<colorinfo>
											<lut></lut>
											<lut1></lut1>
											<asc_sop></asc_sop>
											<asc_sat></asc_sat>
											<lut2></lut2>
										</colorinfo>
										<labels>
											<label2>Violet</label2>
										</labels>
									</clipitem>
									<clipitem id="clipitem-642">
										<masterclipid>masterclip-138</masterclipid>
										<name>(allyoucansweet)_7072790017701072174_TT.mp4</name>
										<enabled>TRUE</enabled>
										<duration>1108</duration>
										<rate>
											<timebase>30</timebase>
											<ntsc>TRUE</ntsc>
										</rate>
										<start>504</start>
										<end>690</end>
										<in>856</in>
										<out>1042</out>
										<pproTicksIn>7255171123200</pproTicksIn>
										<pproTicksOut>8831645222400</pproTicksOut>
										<alphatype>none</alphatype>
										<file id="file-138"/>
										<logginginfo>
											<description></description>
											<scene></scene>
											<shottake></shottake>
											<lognote></lognote>
											<good></good>
											<originalvideofilename></originalvideofilename>
											<originalaudiofilename></originalaudiofilename>
										</logginginfo>
										<colorinfo>
											<lut></lut>
											<lut1></lut1>
											<asc_sop></asc_sop>
											<asc_sat></asc_sat>
											<lut2></lut2>
										</colorinfo>
										<labels>
											<label2>Violet</label2>
										</labels>
									</clipitem>
									<clipitem id="clipitem-643">
										<masterclipid>masterclip-137</masterclipid>
										<name>(allthesugartx)_CdgVCBClERm_IG.mp4</name>
										<enabled>TRUE</enabled>
										<duration>451</duration>
										<rate>
											<timebase>30</timebase>
											<ntsc>TRUE</ntsc>
										</rate>
										<start>690</start>
										<end>1141</end>
										<in>0</in>
										<out>451</out>
										<pproTicksIn>0</pproTicksIn>
										<pproTicksOut>3822525907200</pproTicksOut>
										<alphatype>none</alphatype>
										<file id="file-137"/>
										<logginginfo>
											<description></description>
											<scene></scene>
											<shottake></shottake>
											<lognote></lognote>
											<good></good>
											<originalvideofilename></originalvideofilename>
											<originalaudiofilename></originalaudiofilename>
										</logginginfo>
										<colorinfo>
											<lut></lut>
											<lut1></lut1>
											<asc_sop></asc_sop>
											<asc_sat></asc_sat>
											<lut2></lut2>
										</colorinfo>
									</clipitem>
									<clipitem id="clipitem-644">
										<masterclipid>masterclip-139</masterclipid>
										<name>(join_jules)_CXo3HPGD4M__IG.mp4</name>
										<enabled>TRUE</enabled>
										<duration>775</duration>
										<rate>
											<timebase>30</timebase>
											<ntsc>TRUE</ntsc>
										</rate>
										<start>1141</start>
										<end>1829</end>
										<in>0</in>
										<out>688</out>
										<pproTicksIn>0</pproTicksIn>
										<pproTicksOut>5831259033600</pproTicksOut>
										<alphatype>none</alphatype>
										<file id="file-139"/>
										<logginginfo>
											<description></description>
											<scene></scene>
											<shottake></shottake>
											<lognote></lognote>
											<good></good>
											<originalvideofilename></originalvideofilename>
											<originalaudiofilename></originalaudiofilename>
										</logginginfo>
										<colorinfo>
											<lut></lut>
											<lut1></lut1>
											<asc_sop></asc_sop>
											<asc_sat></asc_sat>
											<lut2></lut2>
										</colorinfo>
										<labels>
											<label2>Caribbean</label2>
										</labels>
									</clipitem>
									<enabled>TRUE</enabled>
									<locked>FALSE</locked>
								</track>
								<track TL.SQTrackShy="0" TL.SQTrackExpandedHeight="25" TL.SQTrackExpanded="0" MZ.TrackTargeted="0">
									<clipitem id="clipitem-645">
										<masterclipid>masterclip-179</masterclipid>
										<name># Eyecandy Vertical Video Frame 3</name>
										<enabled>TRUE</enabled>
										<duration>5700</duration>
										<rate>
											<timebase>30</timebase>
											<ntsc>TRUE</ntsc>
										</rate>
										<start>0</start>
										<end>690</end>
										<in>119</in>
										<out>809</out>
										<pproTicksIn>1008604396800</pproTicksIn>
										<pproTicksOut>6856814764800</pproTicksOut>
										<alphatype>straight</alphatype>
										<file id="file-177"/>
										<logginginfo>
											<description></description>
											<scene></scene>
											<shottake></shottake>
											<lognote></lognote>
											<good></good>
											<originalvideofilename></originalvideofilename>
											<originalaudiofilename></originalaudiofilename>
										</logginginfo>
										<colorinfo>
											<lut></lut>
											<lut1></lut1>
											<asc_sop></asc_sop>
											<asc_sat></asc_sat>
											<lut2></lut2>
										</colorinfo>
									</clipitem>
									<clipitem id="clipitem-646">
										<masterclipid>masterclip-179</masterclipid>
										<name># Eyecandy Vertical Video Frame 3</name>
										<enabled>TRUE</enabled>
										<duration>5700</duration>
										<rate>
											<timebase>30</timebase>
											<ntsc>TRUE</ntsc>
										</rate>
										<start>690</start>
										<end>1141</end>
										<in>809</in>
										<out>1260</out>
										<pproTicksIn>6856814764800</pproTicksIn>
										<pproTicksOut>10679340672000</pproTicksOut>
										<alphatype>straight</alphatype>
										<file id="file-177"/>
										<logginginfo>
											<description></description>
											<scene></scene>
											<shottake></shottake>
											<lognote></lognote>
											<good></good>
											<originalvideofilename></originalvideofilename>
											<originalaudiofilename></originalaudiofilename>
										</logginginfo>
										<colorinfo>
											<lut></lut>
											<lut1></lut1>
											<asc_sop></asc_sop>
											<asc_sat></asc_sat>
											<lut2></lut2>
										</colorinfo>
									</clipitem>
									<clipitem id="clipitem-647">
										<masterclipid>masterclip-179</masterclipid>
										<name># Eyecandy Vertical Video Frame 3</name>
										<enabled>TRUE</enabled>
										<duration>5700</duration>
										<rate>
											<timebase>30</timebase>
											<ntsc>TRUE</ntsc>
										</rate>
										<start>1141</start>
										<end>1829</end>
										<in>1260</in>
										<out>1948</out>
										<pproTicksIn>10679340672000</pproTicksIn>
										<pproTicksOut>16510599705600</pproTicksOut>
										<alphatype>straight</alphatype>
										<file id="file-177"/>
										<logginginfo>
											<description></description>
											<scene></scene>
											<shottake></shottake>
											<lognote></lognote>
											<good></good>
											<originalvideofilename></originalvideofilename>
											<originalaudiofilename></originalaudiofilename>
										</logginginfo>
										<colorinfo>
											<lut></lut>
											<lut1></lut1>
											<asc_sop></asc_sop>
											<asc_sat></asc_sat>
											<lut2></lut2>
										</colorinfo>
									</clipitem>
									<enabled>TRUE</enabled>
									<locked>FALSE</locked>
								</track>
								<track TL.SQTrackShy="0" TL.SQTrackExpandedHeight="25" TL.SQTrackExpanded="0" MZ.TrackTargeted="0">
									<enabled>TRUE</enabled>
									<locked>FALSE</locked>
								</track>
								<track TL.SQTrackShy="0" TL.SQTrackExpandedHeight="25" TL.SQTrackExpanded="0" MZ.TrackTargeted="0">
									<enabled>TRUE</enabled>
									<locked>FALSE</locked>
								</track>
								<track TL.SQTrackShy="0" TL.SQTrackExpandedHeight="25" TL.SQTrackExpanded="0" MZ.TrackTargeted="0">
									<enabled>TRUE</enabled>
									<locked>FALSE</locked>
								</track>
								<track TL.SQTrackShy="0" TL.SQTrackExpandedHeight="25" TL.SQTrackExpanded="0" MZ.TrackTargeted="0">
									<enabled>TRUE</enabled>
									<locked>FALSE</locked>
								</track>
								<track TL.SQTrackShy="0" TL.SQTrackExpandedHeight="25" TL.SQTrackExpanded="0" MZ.TrackTargeted="0">
									<enabled>TRUE</enabled>
									<locked>FALSE</locked>
								</track>
								<track TL.SQTrackShy="0" TL.SQTrackExpandedHeight="25" TL.SQTrackExpanded="0" MZ.TrackTargeted="0">
									<enabled>TRUE</enabled>
									<locked>FALSE</locked>
								</track>
								<track TL.SQTrackShy="0" TL.SQTrackExpandedHeight="25" TL.SQTrackExpanded="0" MZ.TrackTargeted="0">
									<enabled>TRUE</enabled>
									<locked>FALSE</locked>
								</track>
								<track TL.SQTrackShy="0" TL.SQTrackExpandedHeight="25" TL.SQTrackExpanded="0" MZ.TrackTargeted="0">
									<enabled>TRUE</enabled>
									<locked>FALSE</locked>
								</track>
							</video>
							<audio>
								<numOutputChannels>2</numOutputChannels>
								<format>
									<samplecharacteristics>
										<depth>16</depth>
										<samplerate>48000</samplerate>
									</samplecharacteristics>
								</format>
								<outputs>
									<group>
										<index>1</index>
										<numchannels>1</numchannels>
										<downmix>0</downmix>
										<channel>
											<index>1</index>
										</channel>
									</group>
									<group>
										<index>2</index>
										<numchannels>1</numchannels>
										<downmix>0</downmix>
										<channel>
											<index>2</index>
										</channel>
									</group>
								</outputs>
								<track TL.SQTrackAudioKeyframeStyle="0" TL.SQTrackShy="0" TL.SQTrackExpandedHeight="25" TL.SQTrackExpanded="0" MZ.TrackTargeted="1" PannerCurrentValue="0.5" PannerIsInverted="true" PannerStartKeyframe="-91445760000000000,0.5,0,0,0,0,0,0" PannerName="Balance" currentExplodedTrackIndex="0" totalExplodedTrackCount="2" premiereTrackType="Stereo">
									<clipitem id="clipitem-648" premiereChannelType="stereo">
										<masterclipid>masterclip-202</masterclipid>
										<name>ES_Soulagement du Stress - Matt Large.mp3</name>
										<enabled>TRUE</enabled>
										<duration>6093</duration>
										<rate>
											<timebase>30</timebase>
											<ntsc>TRUE</ntsc>
										</rate>
										<start>0</start>
										<end>1829</end>
										<in>0</in>
										<out>1829</out>
										<pproTicksIn>0</pproTicksIn>
										<pproTicksOut>15501995308800</pproTicksOut>
										<file id="file-199">
											<name>ES_Soulagement du Stress - Matt Large.mp3</name>
											<pathurl>file://localhost/Volumes/ATM%201/EYE%20CANDY/8%3a21%3a23/5_Assets/Music/ES_Soulagement%20du%20Stress%20-%20Matt%20Large.mp3</pathurl>
											<rate>
												<timebase>30</timebase>
												<ntsc>TRUE</ntsc>
											</rate>
											<duration>6093</duration>
											<timecode>
												<rate>
													<timebase>30</timebase>
													<ntsc>TRUE</ntsc>
												</rate>
												<string>00;00;00;00</string>
												<frame>0</frame>
												<displayformat>DF</displayformat>
											</timecode>
											<media>
												<audio>
													<samplecharacteristics>
														<depth>16</depth>
														<samplerate>48000</samplerate>
													</samplecharacteristics>
													<channelcount>2</channelcount>
												</audio>
											</media>
										</file>
										<sourcetrack>
											<mediatype>audio</mediatype>
											<trackindex>1</trackindex>
										</sourcetrack>
										<link>
											<linkclipref>clipitem-648</linkclipref>
											<mediatype>audio</mediatype>
											<trackindex>1</trackindex>
											<clipindex>1</clipindex>
											<groupindex>1</groupindex>
										</link>
										<link>
											<linkclipref>clipitem-649</linkclipref>
											<mediatype>audio</mediatype>
											<trackindex>2</trackindex>
											<clipindex>1</clipindex>
											<groupindex>1</groupindex>
										</link>
										<logginginfo>
											<description></description>
											<scene></scene>
											<shottake></shottake>
											<lognote></lognote>
											<good></good>
											<originalvideofilename></originalvideofilename>
											<originalaudiofilename></originalaudiofilename>
										</logginginfo>
										<colorinfo>
											<lut></lut>
											<lut1></lut1>
											<asc_sop></asc_sop>
											<asc_sat></asc_sat>
											<lut2></lut2>
										</colorinfo>
										<labels>
											<label2>Caribbean</label2>
										</labels>
									</clipitem>
									<enabled>TRUE</enabled>
									<locked>FALSE</locked>
									<filter>
										<effect>
											<name>Audio Levels</name>
											<effectid>audiolevels</effectid>
											<effectcategory>audiolevels</effectcategory>
											<effecttype>audiolevels</effecttype>
											<mediatype>audio</mediatype>
											<parameter authoringApp="PremierePro">
												<parameterid>level</parameterid>
												<name>Level</name>
												<valuemin>0</valuemin>
												<valuemax>3.98109</valuemax>
												<value>0.706272</value>
											</parameter>
										</effect>
									</filter>
									<outputchannelindex>1</outputchannelindex>
								</track>
								<track TL.SQTrackAudioKeyframeStyle="0" TL.SQTrackShy="0" TL.SQTrackExpandedHeight="25" TL.SQTrackExpanded="0" MZ.TrackTargeted="1" PannerCurrentValue="0.5" PannerIsInverted="true" PannerStartKeyframe="-91445760000000000,0.5,0,0,0,0,0,0" PannerName="Balance" currentExplodedTrackIndex="1" totalExplodedTrackCount="2" premiereTrackType="Stereo">
									<clipitem id="clipitem-649" premiereChannelType="stereo">
										<masterclipid>masterclip-202</masterclipid>
										<name>ES_Soulagement du Stress - Matt Large.mp3</name>
										<enabled>TRUE</enabled>
										<duration>6093</duration>
										<rate>
											<timebase>30</timebase>
											<ntsc>TRUE</ntsc>
										</rate>
										<start>0</start>
										<end>1829</end>
										<in>0</in>
										<out>1829</out>
										<pproTicksIn>0</pproTicksIn>
										<pproTicksOut>15501995308800</pproTicksOut>
										<file id="file-199"/>
										<sourcetrack>
											<mediatype>audio</mediatype>
											<trackindex>2</trackindex>
										</sourcetrack>
										<link>
											<linkclipref>clipitem-648</linkclipref>
											<mediatype>audio</mediatype>
											<trackindex>1</trackindex>
											<clipindex>1</clipindex>
											<groupindex>1</groupindex>
										</link>
										<link>
											<linkclipref>clipitem-649</linkclipref>
											<mediatype>audio</mediatype>
											<trackindex>2</trackindex>
											<clipindex>1</clipindex>
											<groupindex>1</groupindex>
										</link>
										<logginginfo>
											<description></description>
											<scene></scene>
											<shottake></shottake>
											<lognote></lognote>
											<good></good>
											<originalvideofilename></originalvideofilename>
											<originalaudiofilename></originalaudiofilename>
										</logginginfo>
										<colorinfo>
											<lut></lut>
											<lut1></lut1>
											<asc_sop></asc_sop>
											<asc_sat></asc_sat>
											<lut2></lut2>
										</colorinfo>
										<labels>
											<label2>Caribbean</label2>
										</labels>
									</clipitem>
									<enabled>TRUE</enabled>
									<locked>FALSE</locked>
									<filter>
										<effect>
											<name>Audio Levels</name>
											<effectid>audiolevels</effectid>
											<effectcategory>audiolevels</effectcategory>
											<effecttype>audiolevels</effecttype>
											<mediatype>audio</mediatype>
											<parameter authoringApp="PremierePro">
												<parameterid>level</parameterid>
												<name>Level</name>
												<valuemin>0</valuemin>
												<valuemax>3.98109</valuemax>
												<value>0.706272</value>
											</parameter>
										</effect>
									</filter>
									<outputchannelindex>2</outputchannelindex>
								</track>
								<track TL.SQTrackAudioKeyframeStyle="0" TL.SQTrackShy="0" TL.SQTrackExpandedHeight="25" TL.SQTrackExpanded="0" MZ.TrackTargeted="0" PannerCurrentValue="0.5" PannerIsInverted="true" PannerStartKeyframe="-91445760000000000,0.5,0,0,0,0,0,0" PannerName="Balance" currentExplodedTrackIndex="0" totalExplodedTrackCount="2" premiereTrackType="Stereo">
									<enabled>TRUE</enabled>
									<locked>FALSE</locked>
									<outputchannelindex>1</outputchannelindex>
								</track>
								<track TL.SQTrackAudioKeyframeStyle="0" TL.SQTrackShy="0" TL.SQTrackExpandedHeight="25" TL.SQTrackExpanded="0" MZ.TrackTargeted="0" PannerCurrentValue="0.5" PannerIsInverted="true" PannerStartKeyframe="-91445760000000000,0.5,0,0,0,0,0,0" PannerName="Balance" currentExplodedTrackIndex="1" totalExplodedTrackCount="2" premiereTrackType="Stereo">
									<enabled>TRUE</enabled>
									<locked>FALSE</locked>
									<outputchannelindex>2</outputchannelindex>
								</track>
								<track TL.SQTrackAudioKeyframeStyle="0" TL.SQTrackShy="0" TL.SQTrackExpandedHeight="25" TL.SQTrackExpanded="0" MZ.TrackTargeted="0" PannerCurrentValue="0.5" PannerIsInverted="true" PannerStartKeyframe="-91445760000000000,0.5,0,0,0,0,0,0" PannerName="Balance" currentExplodedTrackIndex="0" totalExplodedTrackCount="2" premiereTrackType="Stereo">
									<enabled>TRUE</enabled>
									<locked>FALSE</locked>
									<outputchannelindex>1</outputchannelindex>
								</track>
								<track TL.SQTrackAudioKeyframeStyle="0" TL.SQTrackShy="0" TL.SQTrackExpandedHeight="25" TL.SQTrackExpanded="0" MZ.TrackTargeted="0" PannerCurrentValue="0.5" PannerIsInverted="true" PannerStartKeyframe="-91445760000000000,0.5,0,0,0,0,0,0" PannerName="Balance" currentExplodedTrackIndex="1" totalExplodedTrackCount="2" premiereTrackType="Stereo">
									<enabled>TRUE</enabled>
									<locked>FALSE</locked>
									<outputchannelindex>2</outputchannelindex>
								</track>
								<track TL.SQTrackAudioKeyframeStyle="0" TL.SQTrackShy="0" TL.SQTrackExpandedHeight="25" TL.SQTrackExpanded="0" MZ.TrackTargeted="0" PannerCurrentValue="0.5" PannerIsInverted="true" PannerStartKeyframe="-91445760000000000,0.5,0,0,0,0,0,0" PannerName="Balance" currentExplodedTrackIndex="0" totalExplodedTrackCount="2" premiereTrackType="Stereo">
									<enabled>TRUE</enabled>
									<locked>FALSE</locked>
									<outputchannelindex>1</outputchannelindex>
								</track>
								<track TL.SQTrackAudioKeyframeStyle="0" TL.SQTrackShy="0" TL.SQTrackExpandedHeight="25" TL.SQTrackExpanded="0" MZ.TrackTargeted="0" PannerCurrentValue="0.5" PannerIsInverted="true" PannerStartKeyframe="-91445760000000000,0.5,0,0,0,0,0,0" PannerName="Balance" currentExplodedTrackIndex="1" totalExplodedTrackCount="2" premiereTrackType="Stereo">
									<enabled>TRUE</enabled>
									<locked>FALSE</locked>
									<outputchannelindex>2</outputchannelindex>
								</track>
								<track TL.SQTrackAudioKeyframeStyle="0" TL.SQTrackShy="0" TL.SQTrackExpandedHeight="25" TL.SQTrackExpanded="0" MZ.TrackTargeted="0" PannerCurrentValue="0.5" PannerIsInverted="true" PannerStartKeyframe="-91445760000000000,0.5,0,0,0,0,0,0" PannerName="Balance" currentExplodedTrackIndex="0" totalExplodedTrackCount="2" premiereTrackType="Stereo">
									<enabled>TRUE</enabled>
									<locked>FALSE</locked>
									<outputchannelindex>1</outputchannelindex>
								</track>
								<track TL.SQTrackAudioKeyframeStyle="0" TL.SQTrackShy="0" TL.SQTrackExpandedHeight="25" TL.SQTrackExpanded="0" MZ.TrackTargeted="0" PannerCurrentValue="0.5" PannerIsInverted="true" PannerStartKeyframe="-91445760000000000,0.5,0,0,0,0,0,0" PannerName="Balance" currentExplodedTrackIndex="1" totalExplodedTrackCount="2" premiereTrackType="Stereo">
									<enabled>TRUE</enabled>
									<locked>FALSE</locked>
									<outputchannelindex>2</outputchannelindex>
								</track>
								<track TL.SQTrackAudioKeyframeStyle="0" TL.SQTrackShy="0" TL.SQTrackExpandedHeight="25" TL.SQTrackExpanded="0" MZ.TrackTargeted="0" PannerCurrentValue="0.5" PannerIsInverted="true" PannerStartKeyframe="-91445760000000000,0.5,0,0,0,0,0,0" PannerName="Balance" currentExplodedTrackIndex="0" totalExplodedTrackCount="2" premiereTrackType="Stereo">
									<enabled>TRUE</enabled>
									<locked>FALSE</locked>
									<outputchannelindex>1</outputchannelindex>
								</track>
								<track TL.SQTrackAudioKeyframeStyle="0" TL.SQTrackShy="0" TL.SQTrackExpandedHeight="25" TL.SQTrackExpanded="0" MZ.TrackTargeted="0" PannerCurrentValue="0.5" PannerIsInverted="true" PannerStartKeyframe="-91445760000000000,0.5,0,0,0,0,0,0" PannerName="Balance" currentExplodedTrackIndex="1" totalExplodedTrackCount="2" premiereTrackType="Stereo">
									<enabled>TRUE</enabled>
									<locked>FALSE</locked>
									<outputchannelindex>2</outputchannelindex>
								</track>
								<track TL.SQTrackAudioKeyframeStyle="0" TL.SQTrackShy="0" TL.SQTrackExpandedHeight="25" TL.SQTrackExpanded="0" MZ.TrackTargeted="0" PannerCurrentValue="0.5" PannerIsInverted="true" PannerStartKeyframe="-91445760000000000,0.5,0,0,0,0,0,0" PannerName="Balance" currentExplodedTrackIndex="0" totalExplodedTrackCount="2" premiereTrackType="Stereo">
									<enabled>TRUE</enabled>
									<locked>FALSE</locked>
									<outputchannelindex>1</outputchannelindex>
								</track>
								<track TL.SQTrackAudioKeyframeStyle="0" TL.SQTrackShy="0" TL.SQTrackExpandedHeight="25" TL.SQTrackExpanded="0" MZ.TrackTargeted="0" PannerCurrentValue="0.5" PannerIsInverted="true" PannerStartKeyframe="-91445760000000000,0.5,0,0,0,0,0,0" PannerName="Balance" currentExplodedTrackIndex="1" totalExplodedTrackCount="2" premiereTrackType="Stereo">
									<enabled>TRUE</enabled>
									<locked>FALSE</locked>
									<outputchannelindex>2</outputchannelindex>
								</track>
								<track TL.SQTrackAudioKeyframeStyle="0" TL.SQTrackShy="0" TL.SQTrackExpandedHeight="25" TL.SQTrackExpanded="0" MZ.TrackTargeted="0" PannerCurrentValue="0.5" PannerIsInverted="true" PannerStartKeyframe="-91445760000000000,0.5,0,0,0,0,0,0" PannerName="Balance" currentExplodedTrackIndex="0" totalExplodedTrackCount="2" premiereTrackType="Stereo">
									<enabled>TRUE</enabled>
									<locked>FALSE</locked>
									<outputchannelindex>1</outputchannelindex>
								</track>
								<track TL.SQTrackAudioKeyframeStyle="0" TL.SQTrackShy="0" TL.SQTrackExpandedHeight="25" TL.SQTrackExpanded="0" MZ.TrackTargeted="0" PannerCurrentValue="0.5" PannerIsInverted="true" PannerStartKeyframe="-91445760000000000,0.5,0,0,0,0,0,0" PannerName="Balance" currentExplodedTrackIndex="1" totalExplodedTrackCount="2" premiereTrackType="Stereo">
									<enabled>TRUE</enabled>
									<locked>FALSE</locked>
									<outputchannelindex>2</outputchannelindex>
								</track>
								<track TL.SQTrackAudioKeyframeStyle="0" TL.SQTrackShy="0" TL.SQTrackExpandedHeight="25" TL.SQTrackExpanded="0" MZ.TrackTargeted="0" PannerCurrentValue="0.5" PannerIsInverted="true" PannerStartKeyframe="-91445760000000000,0.5,0,0,0,0,0,0" PannerName="Balance" currentExplodedTrackIndex="0" totalExplodedTrackCount="2" premiereTrackType="Stereo">
									<enabled>TRUE</enabled>
									<locked>FALSE</locked>
									<outputchannelindex>1</outputchannelindex>
								</track>
								<track TL.SQTrackAudioKeyframeStyle="0" TL.SQTrackShy="0" TL.SQTrackExpandedHeight="25" TL.SQTrackExpanded="0" MZ.TrackTargeted="0" PannerCurrentValue="0.5" PannerIsInverted="true" PannerStartKeyframe="-91445760000000000,0.5,0,0,0,0,0,0" PannerName="Balance" currentExplodedTrackIndex="1" totalExplodedTrackCount="2" premiereTrackType="Stereo">
									<enabled>TRUE</enabled>
									<locked>FALSE</locked>
									<outputchannelindex>2</outputchannelindex>
								</track>
								<track TL.SQTrackAudioKeyframeStyle="0" TL.SQTrackShy="0" TL.SQTrackExpandedHeight="25" TL.SQTrackExpanded="0" MZ.TrackTargeted="0" PannerCurrentValue="0.5" PannerIsInverted="true" PannerStartKeyframe="-91445760000000000,0.5,0,0,0,0,0,0" PannerName="Balance" currentExplodedTrackIndex="0" totalExplodedTrackCount="2" premiereTrackType="Stereo">
									<enabled>TRUE</enabled>
									<locked>FALSE</locked>
									<outputchannelindex>1</outputchannelindex>
								</track>
								<track TL.SQTrackAudioKeyframeStyle="0" TL.SQTrackShy="0" TL.SQTrackExpandedHeight="25" TL.SQTrackExpanded="0" MZ.TrackTargeted="0" PannerCurrentValue="0.5" PannerIsInverted="true" PannerStartKeyframe="-91445760000000000,0.5,0,0,0,0,0,0" PannerName="Balance" currentExplodedTrackIndex="1" totalExplodedTrackCount="2" premiereTrackType="Stereo">
									<enabled>TRUE</enabled>
									<locked>FALSE</locked>
									<outputchannelindex>2</outputchannelindex>
								</track>
							</audio>
						</media>
						<timecode>
							<rate>
								<timebase>30</timebase>
								<ntsc>TRUE</ntsc>
							</rate>
							<string>00;00;00;00</string>
							<frame>0</frame>
							<displayformat>DF</displayformat>
						</timecode>
						<labels>
							<label2>Forest</label2>
						</labels>
						<logginginfo>
							<description></description>
							<scene></scene>
							<shottake></shottake>
							<lognote></lognote>
							<good></good>
							<originalvideofilename></originalvideofilename>
							<originalaudiofilename></originalaudiofilename>
						</logginginfo>
					</sequence>
					<sequence id="sequence-23" TL.SQAudioVisibleBase="0" TL.SQVideoVisibleBase="0" TL.SQVisibleBaseTime="26471486321280" TL.SQAVDividerPosition="0.5" TL.SQHideShyTracks="0" TL.SQHeaderWidth="236" TL.SQDataTrackViewControlState="0" Monitor.ProgramZoomOut="30470023584000" Monitor.ProgramZoomIn="0" TL.SQTimePerPixel="0.0011122222222222221" AM.TrackVScrollPosition="0" AM.TrackScrollPosition="0" MZ.EditLine="26622070675200" MZ.Sequence.PreviewFrameSizeHeight="1080" MZ.Sequence.PreviewFrameSizeWidth="1920" MZ.Sequence.AudioTimeDisplayFormat="200" MZ.Sequence.PreviewRenderingClassID="1061109567" MZ.Sequence.PreviewRenderingPresetCodec="1634755443" MZ.Sequence.PreviewRenderingPresetPath="EncoderPresets/SequencePreview/35d109db-457b-43c1-9452-9cb7be9f121c/QuickTime.epr" MZ.Sequence.PreviewUseMaxRenderQuality="false" MZ.Sequence.PreviewUseMaxBitDepth="false" MZ.Sequence.EditingModeGUID="35d109db-457b-43c1-9452-9cb7be9f121c" MZ.Sequence.VideoTimeDisplayFormat="102" MZ.WorkOutPoint="30470023584000" MZ.WorkInPoint="0" explodedTracks="true">
						<uuid>8a153911-b512-46bb-8082-d8aae6c10832</uuid>
						<duration>3595</duration>
						<rate>
							<timebase>30</timebase>
							<ntsc>TRUE</ntsc>
						</rate>
						<out>3595</out>
						<name>FND_Ran Upstairs and Kissed Nutella_2</name>
						<media>
							<video>
								<format>
									<samplecharacteristics>
										<rate>
											<timebase>30</timebase>
											<ntsc>TRUE</ntsc>
										</rate>
										<codec>
											<name>Apple ProRes 422</name>
											<appspecificdata>
												<appname>Final Cut Pro</appname>
												<appmanufacturer>Apple Inc.</appmanufacturer>
												<appversion>7.0</appversion>
												<data>
													<qtcodec>
														<codecname>Apple ProRes 422</codecname>
														<codectypename>Apple ProRes 422</codectypename>
														<codectypecode>apcn</codectypecode>
														<codecvendorcode>appl</codecvendorcode>
														<spatialquality>1024</spatialquality>
														<temporalquality>0</temporalquality>
														<keyframerate>0</keyframerate>
														<datarate>0</datarate>
													</qtcodec>
												</data>
											</appspecificdata>
										</codec>
										<width>1920</width>
										<height>1080</height>
										<anamorphic>FALSE</anamorphic>
										<pixelaspectratio>square</pixelaspectratio>
										<fielddominance>none</fielddominance>
										<colordepth>24</colordepth>
									</samplecharacteristics>
								</format>
								<track TL.SQTrackShy="0" TL.SQTrackExpandedHeight="25" TL.SQTrackExpanded="0" MZ.TrackTargeted="1">
									<clipitem id="clipitem-650">
										<masterclipid>masterclip-144</masterclipid>
										<name>(thesugarhobby)_Coe5MHqA1BV_IG.mp4</name>
										<enabled>TRUE</enabled>
										<duration>620</duration>
										<rate>
											<timebase>30</timebase>
											<ntsc>TRUE</ntsc>
										</rate>
										<start>0</start>
										<end>537</end>
										<in>46</in>
										<out>582</out>
										<pproTicksIn>686529043200</pproTicksIn>
										<pproTicksOut>8729937216000</pproTicksOut>
										<alphatype>none</alphatype>
										<file id="file-144"/>
										<filter>
											<effect>
												<name>Time Remap</name>
												<effectid>timeremap</effectid>
												<effectcategory>motion</effectcategory>
												<effecttype>motion</effecttype>
												<mediatype>video</mediatype>
												<parameter authoringApp="PremierePro">
													<parameterid>variablespeed</parameterid>
													<name>variablespeed</name>
													<valuemin>0</valuemin>
													<valuemax>1</valuemax>
													<value>0</value>
												</parameter>
												<parameter authoringApp="PremierePro">
													<parameterid>speed</parameterid>
													<name>speed</name>
													<valuemin>-100000</valuemin>
													<valuemax>100000</valuemax>
													<value>176.723</value>
												</parameter>
												<parameter authoringApp="PremierePro">
													<parameterid>reverse</parameterid>
													<name>reverse</name>
													<value>FALSE</value>
												</parameter>
												<parameter authoringApp="PremierePro">
													<parameterid>frameblending</parameterid>
													<name>frameblending</name>
													<value>FALSE</value>
												</parameter>
												<parameter authoringApp="PremierePro">
													<parameterid>graphdict</parameterid>
													<name>graphdict</name>
													<valuemin>0</valuemin>
													<valuemax>1095</valuemax>
													<value>0</value>
													<keyframe>
														<when>0</when>
														<value>0</value>
														<speedvirtualkf>TRUE</speedvirtualkf>
														<speedkfstart>TRUE</speedkfstart>
													</keyframe>
													<keyframe>
														<when>46</when>
														<value>81</value>
														<speedvirtualkf>TRUE</speedvirtualkf>
														<speedkfin>TRUE</speedkfin>
													</keyframe>
													<keyframe>
														<when>582</when>
														<value>1028</value>
														<speedvirtualkf>TRUE</speedvirtualkf>
														<speedkfout>TRUE</speedkfout>
													</keyframe>
													<keyframe>
														<when>620</when>
														<value>1095</value>
														<speedvirtualkf>TRUE</speedvirtualkf>
														<speedkfend>TRUE</speedkfend>
													</keyframe>
													<interpolation>
														<name>FCPCurve</name>
													</interpolation>
												</parameter>
											</effect>
										</filter>
										<logginginfo>
											<description></description>
											<scene></scene>
											<shottake></shottake>
											<lognote></lognote>
											<good></good>
											<originalvideofilename></originalvideofilename>
											<originalaudiofilename></originalaudiofilename>
										</logginginfo>
										<colorinfo>
											<lut></lut>
											<lut1></lut1>
											<asc_sop></asc_sop>
											<asc_sat></asc_sat>
											<lut2></lut2>
										</colorinfo>
										<labels>
											<label2>Caribbean</label2>
										</labels>
									</clipitem>
									<clipitem id="clipitem-651">
										<masterclipid>masterclip-144</masterclipid>
										<name>(thesugarhobby)_Coe5MHqA1BV_IG.mp4</name>
										<enabled>TRUE</enabled>
										<duration>1097</duration>
										<rate>
											<timebase>30</timebase>
											<ntsc>TRUE</ntsc>
										</rate>
										<start>537</start>
										<end>585</end>
										<in>32</in>
										<out>80</out>
										<pproTicksIn>271221350400</pproTicksIn>
										<pproTicksOut>678053376000</pproTicksOut>
										<alphatype>none</alphatype>
										<file id="file-144"/>
										<logginginfo>
											<description></description>
											<scene></scene>
											<shottake></shottake>
											<lognote></lognote>
											<good></good>
											<originalvideofilename></originalvideofilename>
											<originalaudiofilename></originalaudiofilename>
										</logginginfo>
										<colorinfo>
											<lut></lut>
											<lut1></lut1>
											<asc_sop></asc_sop>
											<asc_sat></asc_sat>
											<lut2></lut2>
										</colorinfo>
										<labels>
											<label2>Caribbean</label2>
										</labels>
									</clipitem>
									<clipitem id="clipitem-652">
										<masterclipid>masterclip-142</masterclipid>
										<name>(succulentbite)_CVIrzZqlWdF_IG.mp4</name>
										<enabled>TRUE</enabled>
										<duration>507</duration>
										<rate>
											<timebase>30</timebase>
											<ntsc>TRUE</ntsc>
										</rate>
										<start>585</start>
										<end>1059</end>
										<in>33</in>
										<out>507</out>
										<pproTicksIn>279697017600</pproTicksIn>
										<pproTicksOut>4297163270400</pproTicksOut>
										<alphatype>none</alphatype>
										<file id="file-142"/>
										<logginginfo>
											<description></description>
											<scene></scene>
											<shottake></shottake>
											<lognote></lognote>
											<good></good>
											<originalvideofilename></originalvideofilename>
											<originalaudiofilename></originalaudiofilename>
										</logginginfo>
										<colorinfo>
											<lut></lut>
											<lut1></lut1>
											<asc_sop></asc_sop>
											<asc_sat></asc_sat>
											<lut2></lut2>
										</colorinfo>
										<labels>
											<label2>Violet</label2>
										</labels>
									</clipitem>
									<clipitem id="clipitem-653">
										<masterclipid>masterclip-142</masterclipid>
										<name>(succulentbite)_CVIrzZqlWdF_IG.mp4</name>
										<enabled>TRUE</enabled>
										<duration>507</duration>
										<rate>
											<timebase>30</timebase>
											<ntsc>TRUE</ntsc>
										</rate>
										<start>1059</start>
										<end>1090</end>
										<in>0</in>
										<out>31</out>
										<pproTicksIn>0</pproTicksIn>
										<pproTicksOut>262745683200</pproTicksOut>
										<alphatype>none</alphatype>
										<file id="file-142"/>
										<logginginfo>
											<description></description>
											<scene></scene>
											<shottake></shottake>
											<lognote></lognote>
											<good></good>
											<originalvideofilename></originalvideofilename>
											<originalaudiofilename></originalaudiofilename>
										</logginginfo>
										<colorinfo>
											<lut></lut>
											<lut1></lut1>
											<asc_sop></asc_sop>
											<asc_sat></asc_sat>
											<lut2></lut2>
										</colorinfo>
										<labels>
											<label2>Violet</label2>
										</labels>
									</clipitem>
									<clipitem id="clipitem-654">
										<masterclipid>masterclip-140</masterclipid>
										<name>(aquickspoonful)_CsUse8uuije_IG.mp4</name>
										<enabled>TRUE</enabled>
										<duration>738</duration>
										<rate>
											<timebase>30</timebase>
											<ntsc>TRUE</ntsc>
										</rate>
										<start>1090</start>
										<end>1125</end>
										<in>28</in>
										<out>63</out>
										<pproTicksIn>237318681600</pproTicksIn>
										<pproTicksOut>533967033600</pproTicksOut>
										<alphatype>none</alphatype>
										<file id="file-140"/>
										<logginginfo>
											<description></description>
											<scene></scene>
											<shottake></shottake>
											<lognote></lognote>
											<good></good>
											<originalvideofilename></originalvideofilename>
											<originalaudiofilename></originalaudiofilename>
										</logginginfo>
										<colorinfo>
											<lut></lut>
											<lut1></lut1>
											<asc_sop></asc_sop>
											<asc_sat></asc_sat>
											<lut2></lut2>
										</colorinfo>
										<labels>
											<label2>Lavender</label2>
										</labels>
									</clipitem>
									<clipitem id="clipitem-655">
										<masterclipid>masterclip-140</masterclipid>
										<name>(aquickspoonful)_CsUse8uuije_IG.mp4</name>
										<enabled>TRUE</enabled>
										<duration>738</duration>
										<rate>
											<timebase>30</timebase>
											<ntsc>TRUE</ntsc>
										</rate>
										<start>1125</start>
										<end>1194</end>
										<in>88</in>
										<out>157</out>
										<pproTicksIn>745858713600</pproTicksIn>
										<pproTicksOut>1330679750400</pproTicksOut>
										<alphatype>none</alphatype>
										<file id="file-140"/>
										<logginginfo>
											<description></description>
											<scene></scene>
											<shottake></shottake>
											<lognote></lognote>
											<good></good>
											<originalvideofilename></originalvideofilename>
											<originalaudiofilename></originalaudiofilename>
										</logginginfo>
										<colorinfo>
											<lut></lut>
											<lut1></lut1>
											<asc_sop></asc_sop>
											<asc_sat></asc_sat>
											<lut2></lut2>
										</colorinfo>
										<labels>
											<label2>Lavender</label2>
										</labels>
									</clipitem>
									<clipitem id="clipitem-656">
										<masterclipid>masterclip-140</masterclipid>
										<name>(aquickspoonful)_CsUse8uuije_IG.mp4</name>
										<enabled>TRUE</enabled>
										<duration>738</duration>
										<rate>
											<timebase>30</timebase>
											<ntsc>TRUE</ntsc>
										</rate>
										<start>1194</start>
										<end>1349</end>
										<in>211</in>
										<out>366</out>
										<pproTicksIn>1788365779200</pproTicksIn>
										<pproTicksOut>3102094195200</pproTicksOut>
										<alphatype>none</alphatype>
										<file id="file-140"/>
										<logginginfo>
											<description></description>
											<scene></scene>
											<shottake></shottake>
											<lognote></lognote>
											<good></good>
											<originalvideofilename></originalvideofilename>
											<originalaudiofilename></originalaudiofilename>
										</logginginfo>
										<colorinfo>
											<lut></lut>
											<lut1></lut1>
											<asc_sop></asc_sop>
											<asc_sat></asc_sat>
											<lut2></lut2>
										</colorinfo>
										<labels>
											<label2>Lavender</label2>
										</labels>
									</clipitem>
									<clipitem id="clipitem-657">
										<masterclipid>masterclip-140</masterclipid>
										<name>(aquickspoonful)_CsUse8uuije_IG.mp4</name>
										<enabled>TRUE</enabled>
										<duration>738</duration>
										<rate>
											<timebase>30</timebase>
											<ntsc>TRUE</ntsc>
										</rate>
										<start>1349</start>
										<end>1383</end>
										<in>382</in>
										<out>416</out>
										<pproTicksIn>3237704870400</pproTicksIn>
										<pproTicksOut>3525877555200</pproTicksOut>
										<alphatype>none</alphatype>
										<file id="file-140"/>
										<logginginfo>
											<description></description>
											<scene></scene>
											<shottake></shottake>
											<lognote></lognote>
											<good></good>
											<originalvideofilename></originalvideofilename>
											<originalaudiofilename></originalaudiofilename>
										</logginginfo>
										<colorinfo>
											<lut></lut>
											<lut1></lut1>
											<asc_sop></asc_sop>
											<asc_sat></asc_sat>
											<lut2></lut2>
										</colorinfo>
										<labels>
											<label2>Lavender</label2>
										</labels>
									</clipitem>
									<clipitem id="clipitem-658">
										<masterclipid>masterclip-140</masterclipid>
										<name>(aquickspoonful)_CsUse8uuije_IG.mp4</name>
										<enabled>TRUE</enabled>
										<duration>738</duration>
										<rate>
											<timebase>30</timebase>
											<ntsc>TRUE</ntsc>
										</rate>
										<start>1383</start>
										<end>1553</end>
										<in>568</in>
										<out>738</out>
										<pproTicksIn>4814178969600</pproTicksIn>
										<pproTicksOut>6255042393600</pproTicksOut>
										<alphatype>none</alphatype>
										<file id="file-140"/>
										<logginginfo>
											<description></description>
											<scene></scene>
											<shottake></shottake>
											<lognote></lognote>
											<good></good>
											<originalvideofilename></originalvideofilename>
											<originalaudiofilename></originalaudiofilename>
										</logginginfo>
										<colorinfo>
											<lut></lut>
											<lut1></lut1>
											<asc_sop></asc_sop>
											<asc_sat></asc_sat>
											<lut2></lut2>
										</colorinfo>
										<labels>
											<label2>Lavender</label2>
										</labels>
									</clipitem>
									<clipitem id="clipitem-659">
										<masterclipid>masterclip-143</masterclipid>
										<name>(sugarandsparrowco)_Cm9hPVMIl6__IG.mp4</name>
										<enabled>TRUE</enabled>
										<duration>654</duration>
										<rate>
											<timebase>30</timebase>
											<ntsc>TRUE</ntsc>
										</rate>
										<start>1553</start>
										<end>2079</end>
										<in>0</in>
										<out>526</out>
										<pproTicksIn>0</pproTicksIn>
										<pproTicksOut>5916015705600</pproTicksOut>
										<alphatype>none</alphatype>
										<file id="file-143"/>
										<filter>
											<effect>
												<name>Time Remap</name>
												<effectid>timeremap</effectid>
												<effectcategory>motion</effectcategory>
												<effecttype>motion</effecttype>
												<mediatype>video</mediatype>
												<parameter authoringApp="PremierePro">
													<parameterid>variablespeed</parameterid>
													<name>variablespeed</name>
													<valuemin>0</valuemin>
													<valuemax>1</valuemax>
													<value>0</value>
												</parameter>
												<parameter authoringApp="PremierePro">
													<parameterid>speed</parameterid>
													<name>speed</name>
													<valuemin>-100000</valuemin>
													<valuemax>100000</valuemax>
													<value>132.7</value>
												</parameter>
												<parameter authoringApp="PremierePro">
													<parameterid>reverse</parameterid>
													<name>reverse</name>
													<value>FALSE</value>
												</parameter>
												<parameter authoringApp="PremierePro">
													<parameterid>frameblending</parameterid>
													<name>frameblending</name>
													<value>FALSE</value>
												</parameter>
												<parameter authoringApp="PremierePro">
													<parameterid>graphdict</parameterid>
													<name>graphdict</name>
													<valuemin>0</valuemin>
													<valuemax>867</valuemax>
													<value>0</value>
													<keyframe>
														<when>0</when>
														<value>0</value>
														<speedvirtualkf>TRUE</speedvirtualkf>
														<speedkfin>TRUE</speedkfin>
													</keyframe>
													<keyframe>
														<when>526</when>
														<value>698</value>
														<speedvirtualkf>TRUE</speedvirtualkf>
														<speedkfout>TRUE</speedkfout>
													</keyframe>
													<keyframe>
														<when>654</when>
														<value>867</value>
														<speedvirtualkf>TRUE</speedvirtualkf>
														<speedkfend>TRUE</speedkfend>
													</keyframe>
													<interpolation>
														<name>FCPCurve</name>
													</interpolation>
												</parameter>
											</effect>
										</filter>
										<logginginfo>
											<description></description>
											<scene></scene>
											<shottake></shottake>
											<lognote></lognote>
											<good></good>
											<originalvideofilename></originalvideofilename>
											<originalaudiofilename></originalaudiofilename>
										</logginginfo>
										<colorinfo>
											<lut></lut>
											<lut1></lut1>
											<asc_sop></asc_sop>
											<asc_sat></asc_sat>
											<lut2></lut2>
										</colorinfo>
										<labels>
											<label2>Cerulean</label2>
										</labels>
									</clipitem>
									<clipitem id="clipitem-660">
										<masterclipid>masterclip-143</masterclipid>
										<name>(sugarandsparrowco)_Cm9hPVMIl6__IG.mp4</name>
										<enabled>TRUE</enabled>
										<duration>868</duration>
										<rate>
											<timebase>30</timebase>
											<ntsc>TRUE</ntsc>
										</rate>
										<start>2079</start>
										<end>2234</end>
										<in>713</in>
										<out>868</out>
										<pproTicksIn>6043150713600</pproTicksIn>
										<pproTicksOut>7356879129600</pproTicksOut>
										<alphatype>none</alphatype>
										<file id="file-143"/>
										<logginginfo>
											<description></description>
											<scene></scene>
											<shottake></shottake>
											<lognote></lognote>
											<good></good>
											<originalvideofilename></originalvideofilename>
											<originalaudiofilename></originalaudiofilename>
										</logginginfo>
										<colorinfo>
											<lut></lut>
											<lut1></lut1>
											<asc_sop></asc_sop>
											<asc_sat></asc_sat>
											<lut2></lut2>
										</colorinfo>
										<labels>
											<label2>Cerulean</label2>
										</labels>
									</clipitem>
									<clipitem id="clipitem-661">
										<masterclipid>masterclip-141</masterclipid>
										<name>(sophiabakessometimes)_7100257864551304453_TT.mp4</name>
										<enabled>TRUE</enabled>
										<duration>595</duration>
										<rate>
											<timebase>30</timebase>
											<ntsc>TRUE</ntsc>
										</rate>
										<start>2234</start>
										<end>2767</end>
										<in>0</in>
										<out>532</out>
										<pproTicksIn>0</pproTicksIn>
										<pproTicksOut>9407990591999</pproTicksOut>
										<alphatype>none</alphatype>
										<file id="file-141"/>
										<filter>
											<effect>
												<name>Time Remap</name>
												<effectid>timeremap</effectid>
												<effectcategory>motion</effectcategory>
												<effecttype>motion</effecttype>
												<mediatype>video</mediatype>
												<parameter authoringApp="PremierePro">
													<parameterid>variablespeed</parameterid>
													<name>variablespeed</name>
													<valuemin>0</valuemin>
													<valuemax>1</valuemax>
													<value>0</value>
												</parameter>
												<parameter authoringApp="PremierePro">
													<parameterid>speed</parameterid>
													<name>speed</name>
													<valuemin>-100000</valuemin>
													<valuemax>100000</valuemax>
													<value>208.255</value>
												</parameter>
												<parameter authoringApp="PremierePro">
													<parameterid>reverse</parameterid>
													<name>reverse</name>
													<value>FALSE</value>
												</parameter>
												<parameter authoringApp="PremierePro">
													<parameterid>frameblending</parameterid>
													<name>frameblending</name>
													<value>FALSE</value>
												</parameter>
												<parameter authoringApp="PremierePro">
													<parameterid>graphdict</parameterid>
													<name>graphdict</name>
													<valuemin>0</valuemin>
													<valuemax>1239</valuemax>
													<value>0</value>
													<keyframe>
														<when>0</when>
														<value>0</value>
														<speedvirtualkf>TRUE</speedvirtualkf>
														<speedkfin>TRUE</speedkfin>
													</keyframe>
													<keyframe>
														<when>532</when>
														<value>1107</value>
														<speedvirtualkf>TRUE</speedvirtualkf>
														<speedkfout>TRUE</speedkfout>
													</keyframe>
													<keyframe>
														<when>595</when>
														<value>1239</value>
														<speedvirtualkf>TRUE</speedvirtualkf>
														<speedkfend>TRUE</speedkfend>
													</keyframe>
													<interpolation>
														<name>FCPCurve</name>
													</interpolation>
												</parameter>
											</effect>
										</filter>
										<logginginfo>
											<description></description>
											<scene></scene>
											<shottake></shottake>
											<lognote></lognote>
											<good></good>
											<originalvideofilename></originalvideofilename>
											<originalaudiofilename></originalaudiofilename>
										</logginginfo>
										<colorinfo>
											<lut></lut>
											<lut1></lut1>
											<asc_sop></asc_sop>
											<asc_sat></asc_sat>
											<lut2></lut2>
										</colorinfo>
										<labels>
											<label2>Forest</label2>
										</labels>
									</clipitem>
									<clipitem id="clipitem-662">
										<masterclipid>masterclip-141</masterclipid>
										<name>(sophiabakessometimes)_7100257864551304453_TT.mp4</name>
										<enabled>TRUE</enabled>
										<duration>1241</duration>
										<rate>
											<timebase>30</timebase>
											<ntsc>TRUE</ntsc>
										</rate>
										<start>2767</start>
										<end>2885</end>
										<in>1123</in>
										<out>1241</out>
										<pproTicksIn>9518174265600</pproTicksIn>
										<pproTicksOut>10518302995200</pproTicksOut>
										<alphatype>none</alphatype>
										<file id="file-141"/>
										<logginginfo>
											<description></description>
											<scene></scene>
											<shottake></shottake>
											<lognote></lognote>
											<good></good>
											<originalvideofilename></originalvideofilename>
											<originalaudiofilename></originalaudiofilename>
										</logginginfo>
										<colorinfo>
											<lut></lut>
											<lut1></lut1>
											<asc_sop></asc_sop>
											<asc_sat></asc_sat>
											<lut2></lut2>
										</colorinfo>
										<labels>
											<label2>Forest</label2>
										</labels>
									</clipitem>
									<clipitem id="clipitem-663">
										<masterclipid>masterclip-145</masterclipid>
										<name>(Mamagician)_5 Ingredients Easy Nutella Fudgy Brownies _ (Mamagician)_Sri_IWTgpNY_YT.mp4</name>
										<enabled>TRUE</enabled>
										<duration>4649</duration>
										<rate>
											<timebase>30</timebase>
											<ntsc>TRUE</ntsc>
										</rate>
										<start>2885</start>
										<end>3018</end>
										<in>1224</in>
										<out>1357</out>
										<pproTicksIn>10374216652800</pproTicksIn>
										<pproTicksOut>11501480390400</pproTicksOut>
										<alphatype>none</alphatype>
										<file id="file-145"/>
										<filter>
											<effect>
												<name>Basic Motion</name>
												<effectid>basic</effectid>
												<effectcategory>motion</effectcategory>
												<effecttype>motion</effecttype>
												<mediatype>video</mediatype>
												<pproBypass>false</pproBypass>
												<parameter authoringApp="PremierePro">
													<parameterid>scale</parameterid>
													<name>Scale</name>
													<valuemin>0</valuemin>
													<valuemax>1000</valuemax>
													<value>147</value>
												</parameter>
												<parameter authoringApp="PremierePro">
													<parameterid>rotation</parameterid>
													<name>Rotation</name>
													<valuemin>-8640</valuemin>
													<valuemax>8640</valuemax>
													<value>0</value>
												</parameter>
												<parameter authoringApp="PremierePro">
													<parameterid>center</parameterid>
													<name>Center</name>
													<value>
														<horiz>0</horiz>
														<vert>0.0842593</vert>
													</value>
												</parameter>
												<parameter authoringApp="PremierePro">
													<parameterid>centerOffset</parameterid>
													<name>Anchor Point</name>
													<value>
														<horiz>0</horiz>
														<vert>0</vert>
													</value>
												</parameter>
												<parameter authoringApp="PremierePro">
													<parameterid>antiflicker</parameterid>
													<name>Anti-flicker Filter</name>
													<valuemin>0.0</valuemin>
													<valuemax>1.0</valuemax>
													<value>0</value>
												</parameter>
											</effect>
										</filter>
										<logginginfo>
											<description>5 Ingredients Easy Nutella Fudgy Brownies | Mamagician</description>
											<scene></scene>
											<shottake></shottake>
											<lognote>https://www.youtube.com/watch?v=Sri_IWTgpNY</lognote>
											<good></good>
											<originalvideofilename></originalvideofilename>
											<originalaudiofilename></originalaudiofilename>
										</logginginfo>
										<colorinfo>
											<lut></lut>
											<lut1></lut1>
											<asc_sop></asc_sop>
											<asc_sat></asc_sat>
											<lut2></lut2>
										</colorinfo>
									</clipitem>
									<clipitem id="clipitem-664">
										<masterclipid>masterclip-145</masterclipid>
										<name>(Mamagician)_5 Ingredients Easy Nutella Fudgy Brownies _ (Mamagician)_Sri_IWTgpNY_YT.mp4</name>
										<enabled>TRUE</enabled>
										<duration>4649</duration>
										<rate>
											<timebase>30</timebase>
											<ntsc>TRUE</ntsc>
										</rate>
										<start>3018</start>
										<end>3140</end>
										<in>1709</in>
										<out>1831</out>
										<pproTicksIn>14484915244800</pproTicksIn>
										<pproTicksOut>15518946643200</pproTicksOut>
										<alphatype>none</alphatype>
										<file id="file-145"/>
										<filter>
											<effect>
												<name>Basic Motion</name>
												<effectid>basic</effectid>
												<effectcategory>motion</effectcategory>
												<effecttype>motion</effecttype>
												<mediatype>video</mediatype>
												<pproBypass>false</pproBypass>
												<parameter authoringApp="PremierePro">
													<parameterid>scale</parameterid>
													<name>Scale</name>
													<valuemin>0</valuemin>
													<valuemax>1000</valuemax>
													<value>127</value>
												</parameter>
												<parameter authoringApp="PremierePro">
													<parameterid>rotation</parameterid>
													<name>Rotation</name>
													<valuemin>-8640</valuemin>
													<valuemax>8640</valuemax>
													<value>0</value>
												</parameter>
												<parameter authoringApp="PremierePro">
													<parameterid>center</parameterid>
													<name>Center</name>
													<value>
														<horiz>0</horiz>
														<vert>0</vert>
													</value>
												</parameter>
												<parameter authoringApp="PremierePro">
													<parameterid>centerOffset</parameterid>
													<name>Anchor Point</name>
													<value>
														<horiz>0</horiz>
														<vert>0</vert>
													</value>
												</parameter>
												<parameter authoringApp="PremierePro">
													<parameterid>antiflicker</parameterid>
													<name>Anti-flicker Filter</name>
													<valuemin>0.0</valuemin>
													<valuemax>1.0</valuemax>
													<value>0</value>
												</parameter>
											</effect>
										</filter>
										<logginginfo>
											<description>5 Ingredients Easy Nutella Fudgy Brownies | Mamagician</description>
											<scene></scene>
											<shottake></shottake>
											<lognote>https://www.youtube.com/watch?v=Sri_IWTgpNY</lognote>
											<good></good>
											<originalvideofilename></originalvideofilename>
											<originalaudiofilename></originalaudiofilename>
										</logginginfo>
										<colorinfo>
											<lut></lut>
											<lut1></lut1>
											<asc_sop></asc_sop>
											<asc_sat></asc_sat>
											<lut2></lut2>
										</colorinfo>
									</clipitem>
									<clipitem id="clipitem-665">
										<masterclipid>masterclip-145</masterclipid>
										<name>(Mamagician)_5 Ingredients Easy Nutella Fudgy Brownies _ (Mamagician)_Sri_IWTgpNY_YT.mp4</name>
										<enabled>TRUE</enabled>
										<duration>4649</duration>
										<rate>
											<timebase>30</timebase>
											<ntsc>TRUE</ntsc>
										</rate>
										<start>3140</start>
										<end>3250</end>
										<in>2473</in>
										<out>2583</out>
										<pproTicksIn>20960324985600</pproTicksIn>
										<pproTicksOut>21892648377600</pproTicksOut>
										<alphatype>none</alphatype>
										<file id="file-145"/>
										<filter>
											<effect>
												<name>Basic Motion</name>
												<effectid>basic</effectid>
												<effectcategory>motion</effectcategory>
												<effecttype>motion</effecttype>
												<mediatype>video</mediatype>
												<pproBypass>false</pproBypass>
												<parameter authoringApp="PremierePro">
													<parameterid>scale</parameterid>
													<name>Scale</name>
													<valuemin>0</valuemin>
													<valuemax>1000</valuemax>
													<value>168</value>
												</parameter>
												<parameter authoringApp="PremierePro">
													<parameterid>rotation</parameterid>
													<name>Rotation</name>
													<valuemin>-8640</valuemin>
													<valuemax>8640</valuemax>
													<value>0</value>
												</parameter>
												<parameter authoringApp="PremierePro">
													<parameterid>center</parameterid>
													<name>Center</name>
													<value>
														<horiz>0.0244792</horiz>
														<vert>0.0685185</vert>
													</value>
												</parameter>
												<parameter authoringApp="PremierePro">
													<parameterid>centerOffset</parameterid>
													<name>Anchor Point</name>
													<value>
														<horiz>0</horiz>
														<vert>0</vert>
													</value>
												</parameter>
												<parameter authoringApp="PremierePro">
													<parameterid>antiflicker</parameterid>
													<name>Anti-flicker Filter</name>
													<valuemin>0.0</valuemin>
													<valuemax>1.0</valuemax>
													<value>0</value>
												</parameter>
											</effect>
										</filter>
										<logginginfo>
											<description>5 Ingredients Easy Nutella Fudgy Brownies | Mamagician</description>
											<scene></scene>
											<shottake></shottake>
											<lognote>https://www.youtube.com/watch?v=Sri_IWTgpNY</lognote>
											<good></good>
											<originalvideofilename></originalvideofilename>
											<originalaudiofilename></originalaudiofilename>
										</logginginfo>
										<colorinfo>
											<lut></lut>
											<lut1></lut1>
											<asc_sop></asc_sop>
											<asc_sat></asc_sat>
											<lut2></lut2>
										</colorinfo>
									</clipitem>
									<clipitem id="clipitem-666">
										<masterclipid>masterclip-145</masterclipid>
										<name>(Mamagician)_5 Ingredients Easy Nutella Fudgy Brownies _ (Mamagician)_Sri_IWTgpNY_YT.mp4</name>
										<enabled>TRUE</enabled>
										<duration>4649</duration>
										<rate>
											<timebase>30</timebase>
											<ntsc>TRUE</ntsc>
										</rate>
										<start>3250</start>
										<end>3313</end>
										<in>2993</in>
										<out>3056</out>
										<pproTicksIn>25367671929600</pproTicksIn>
										<pproTicksOut>25901638963200</pproTicksOut>
										<alphatype>none</alphatype>
										<file id="file-145"/>
										<filter>
											<effect>
												<name>Basic Motion</name>
												<effectid>basic</effectid>
												<effectcategory>motion</effectcategory>
												<effecttype>motion</effecttype>
												<mediatype>video</mediatype>
												<pproBypass>false</pproBypass>
												<parameter authoringApp="PremierePro">
													<parameterid>scale</parameterid>
													<name>Scale</name>
													<valuemin>0</valuemin>
													<valuemax>1000</valuemax>
													<value>127</value>
												</parameter>
												<parameter authoringApp="PremierePro">
													<parameterid>rotation</parameterid>
													<name>Rotation</name>
													<valuemin>-8640</valuemin>
													<valuemax>8640</valuemax>
													<value>0</value>
												</parameter>
												<parameter authoringApp="PremierePro">
													<parameterid>center</parameterid>
													<name>Center</name>
													<value>
														<horiz>0</horiz>
														<vert>0</vert>
													</value>
												</parameter>
												<parameter authoringApp="PremierePro">
													<parameterid>centerOffset</parameterid>
													<name>Anchor Point</name>
													<value>
														<horiz>0</horiz>
														<vert>0</vert>
													</value>
												</parameter>
												<parameter authoringApp="PremierePro">
													<parameterid>antiflicker</parameterid>
													<name>Anti-flicker Filter</name>
													<valuemin>0.0</valuemin>
													<valuemax>1.0</valuemax>
													<value>0</value>
												</parameter>
											</effect>
										</filter>
										<logginginfo>
											<description>5 Ingredients Easy Nutella Fudgy Brownies | Mamagician</description>
											<scene></scene>
											<shottake></shottake>
											<lognote>https://www.youtube.com/watch?v=Sri_IWTgpNY</lognote>
											<good></good>
											<originalvideofilename></originalvideofilename>
											<originalaudiofilename></originalaudiofilename>
										</logginginfo>
										<colorinfo>
											<lut></lut>
											<lut1></lut1>
											<asc_sop></asc_sop>
											<asc_sat></asc_sat>
											<lut2></lut2>
										</colorinfo>
									</clipitem>
									<clipitem id="clipitem-667">
										<masterclipid>masterclip-145</masterclipid>
										<name>(Mamagician)_5 Ingredients Easy Nutella Fudgy Brownies _ (Mamagician)_Sri_IWTgpNY_YT.mp4</name>
										<enabled>TRUE</enabled>
										<duration>4649</duration>
										<rate>
											<timebase>30</timebase>
											<ntsc>TRUE</ntsc>
										</rate>
										<start>3313</start>
										<end>3375</end>
										<in>3415</in>
										<out>3477</out>
										<pproTicksIn>28944403488000</pproTicksIn>
										<pproTicksOut>29469894854400</pproTicksOut>
										<alphatype>none</alphatype>
										<file id="file-145"/>
										<filter>
											<effect>
												<name>Basic Motion</name>
												<effectid>basic</effectid>
												<effectcategory>motion</effectcategory>
												<effecttype>motion</effecttype>
												<mediatype>video</mediatype>
												<pproBypass>false</pproBypass>
												<parameter authoringApp="PremierePro">
													<parameterid>scale</parameterid>
													<name>Scale</name>
													<valuemin>0</valuemin>
													<valuemax>1000</valuemax>
													<value>127</value>
												</parameter>
												<parameter authoringApp="PremierePro">
													<parameterid>rotation</parameterid>
													<name>Rotation</name>
													<valuemin>-8640</valuemin>
													<valuemax>8640</valuemax>
													<value>0</value>
												</parameter>
												<parameter authoringApp="PremierePro">
													<parameterid>center</parameterid>
													<name>Center</name>
													<value>
														<horiz>0</horiz>
														<vert>0</vert>
													</value>
												</parameter>
												<parameter authoringApp="PremierePro">
													<parameterid>centerOffset</parameterid>
													<name>Anchor Point</name>
													<value>
														<horiz>0</horiz>
														<vert>0</vert>
													</value>
												</parameter>
												<parameter authoringApp="PremierePro">
													<parameterid>antiflicker</parameterid>
													<name>Anti-flicker Filter</name>
													<valuemin>0.0</valuemin>
													<valuemax>1.0</valuemax>
													<value>0</value>
												</parameter>
											</effect>
										</filter>
										<logginginfo>
											<description>5 Ingredients Easy Nutella Fudgy Brownies | Mamagician</description>
											<scene></scene>
											<shottake></shottake>
											<lognote>https://www.youtube.com/watch?v=Sri_IWTgpNY</lognote>
											<good></good>
											<originalvideofilename></originalvideofilename>
											<originalaudiofilename></originalaudiofilename>
										</logginginfo>
										<colorinfo>
											<lut></lut>
											<lut1></lut1>
											<asc_sop></asc_sop>
											<asc_sat></asc_sat>
											<lut2></lut2>
										</colorinfo>
									</clipitem>
									<clipitem id="clipitem-668">
										<masterclipid>masterclip-145</masterclipid>
										<name>(Mamagician)_5 Ingredients Easy Nutella Fudgy Brownies _ (Mamagician)_Sri_IWTgpNY_YT.mp4</name>
										<enabled>TRUE</enabled>
										<duration>4649</duration>
										<rate>
											<timebase>30</timebase>
											<ntsc>TRUE</ntsc>
										</rate>
										<start>3375</start>
										<end>3593</end>
										<in>3813</in>
										<out>4031</out>
										<pproTicksIn>32317719033600</pproTicksIn>
										<pproTicksOut>34165414483200</pproTicksOut>
										<alphatype>none</alphatype>
										<file id="file-145"/>
										<filter>
											<effect>
												<name>Basic Motion</name>
												<effectid>basic</effectid>
												<effectcategory>motion</effectcategory>
												<effecttype>motion</effecttype>
												<mediatype>video</mediatype>
												<pproBypass>false</pproBypass>
												<parameter authoringApp="PremierePro">
													<parameterid>scale</parameterid>
													<name>Scale</name>
													<valuemin>0</valuemin>
													<valuemax>1000</valuemax>
													<value>127</value>
												</parameter>
												<parameter authoringApp="PremierePro">
													<parameterid>rotation</parameterid>
													<name>Rotation</name>
													<valuemin>-8640</valuemin>
													<valuemax>8640</valuemax>
													<value>0</value>
												</parameter>
												<parameter authoringApp="PremierePro">
													<parameterid>center</parameterid>
													<name>Center</name>
													<value>
														<horiz>0.025</horiz>
														<vert>-0.0685185</vert>
													</value>
												</parameter>
												<parameter authoringApp="PremierePro">
													<parameterid>centerOffset</parameterid>
													<name>Anchor Point</name>
													<value>
														<horiz>0</horiz>
														<vert>0</vert>
													</value>
												</parameter>
												<parameter authoringApp="PremierePro">
													<parameterid>antiflicker</parameterid>
													<name>Anti-flicker Filter</name>
													<valuemin>0.0</valuemin>
													<valuemax>1.0</valuemax>
													<value>0</value>
												</parameter>
											</effect>
										</filter>
										<logginginfo>
											<description>5 Ingredients Easy Nutella Fudgy Brownies | Mamagician</description>
											<scene></scene>
											<shottake></shottake>
											<lognote>https://www.youtube.com/watch?v=Sri_IWTgpNY</lognote>
											<good></good>
											<originalvideofilename></originalvideofilename>
											<originalaudiofilename></originalaudiofilename>
										</logginginfo>
										<colorinfo>
											<lut></lut>
											<lut1></lut1>
											<asc_sop></asc_sop>
											<asc_sat></asc_sat>
											<lut2></lut2>
										</colorinfo>
									</clipitem>
									<enabled>TRUE</enabled>
									<locked>FALSE</locked>
								</track>
								<track TL.SQTrackShy="0" TL.SQTrackExpandedHeight="25" TL.SQTrackExpanded="0" MZ.TrackTargeted="0">
									<clipitem id="clipitem-669">
										<masterclipid>masterclip-192</masterclipid>
										<name># Eyecandy Vertical Video Frame 4</name>
										<enabled>TRUE</enabled>
										<duration>5700</duration>
										<rate>
											<timebase>30</timebase>
											<ntsc>TRUE</ntsc>
										</rate>
										<start>0</start>
										<end>585</end>
										<in>211</in>
										<out>796</out>
										<pproTicksIn>1788365779200</pproTicksIn>
										<pproTicksOut>6746631091200</pproTicksOut>
										<alphatype>straight</alphatype>
										<file id="file-190"/>
										<logginginfo>
											<description></description>
											<scene></scene>
											<shottake></shottake>
											<lognote></lognote>
											<good></good>
											<originalvideofilename></originalvideofilename>
											<originalaudiofilename></originalaudiofilename>
										</logginginfo>
										<colorinfo>
											<lut></lut>
											<lut1></lut1>
											<asc_sop></asc_sop>
											<asc_sat></asc_sat>
											<lut2></lut2>
										</colorinfo>
									</clipitem>
									<clipitem id="clipitem-670">
										<masterclipid>masterclip-192</masterclipid>
										<name># Eyecandy Vertical Video Frame 4</name>
										<enabled>TRUE</enabled>
										<duration>5700</duration>
										<rate>
											<timebase>30</timebase>
											<ntsc>TRUE</ntsc>
										</rate>
										<start>585</start>
										<end>1090</end>
										<in>796</in>
										<out>1301</out>
										<pproTicksIn>6746631091200</pproTicksIn>
										<pproTicksOut>11026843027200</pproTicksOut>
										<alphatype>straight</alphatype>
										<file id="file-190"/>
										<logginginfo>
											<description></description>
											<scene></scene>
											<shottake></shottake>
											<lognote></lognote>
											<good></good>
											<originalvideofilename></originalvideofilename>
											<originalaudiofilename></originalaudiofilename>
										</logginginfo>
										<colorinfo>
											<lut></lut>
											<lut1></lut1>
											<asc_sop></asc_sop>
											<asc_sat></asc_sat>
											<lut2></lut2>
										</colorinfo>
									</clipitem>
									<clipitem id="clipitem-671">
										<masterclipid>masterclip-192</masterclipid>
										<name># Eyecandy Vertical Video Frame 4</name>
										<enabled>TRUE</enabled>
										<duration>5700</duration>
										<rate>
											<timebase>30</timebase>
											<ntsc>TRUE</ntsc>
										</rate>
										<start>1090</start>
										<end>1553</end>
										<in>1301</in>
										<out>1764</out>
										<pproTicksIn>11026843027200</pproTicksIn>
										<pproTicksOut>14951076940800</pproTicksOut>
										<alphatype>straight</alphatype>
										<file id="file-190"/>
										<logginginfo>
											<description></description>
											<scene></scene>
											<shottake></shottake>
											<lognote></lognote>
											<good></good>
											<originalvideofilename></originalvideofilename>
											<originalaudiofilename></originalaudiofilename>
										</logginginfo>
										<colorinfo>
											<lut></lut>
											<lut1></lut1>
											<asc_sop></asc_sop>
											<asc_sat></asc_sat>
											<lut2></lut2>
										</colorinfo>
									</clipitem>
									<clipitem id="clipitem-672">
										<masterclipid>masterclip-192</masterclipid>
										<name># Eyecandy Vertical Video Frame 4</name>
										<enabled>TRUE</enabled>
										<duration>5700</duration>
										<rate>
											<timebase>30</timebase>
											<ntsc>TRUE</ntsc>
										</rate>
										<start>1553</start>
										<end>2234</end>
										<in>1764</in>
										<out>2445</out>
										<pproTicksIn>14951076940800</pproTicksIn>
										<pproTicksOut>20723006304000</pproTicksOut>
										<alphatype>straight</alphatype>
										<file id="file-190"/>
										<logginginfo>
											<description></description>
											<scene></scene>
											<shottake></shottake>
											<lognote></lognote>
											<good></good>
											<originalvideofilename></originalvideofilename>
											<originalaudiofilename></originalaudiofilename>
										</logginginfo>
										<colorinfo>
											<lut></lut>
											<lut1></lut1>
											<asc_sop></asc_sop>
											<asc_sat></asc_sat>
											<lut2></lut2>
										</colorinfo>
									</clipitem>
									<clipitem id="clipitem-673">
										<masterclipid>masterclip-192</masterclipid>
										<name># Eyecandy Vertical Video Frame 4</name>
										<enabled>TRUE</enabled>
										<duration>5700</duration>
										<rate>
											<timebase>30</timebase>
											<ntsc>TRUE</ntsc>
										</rate>
										<start>2234</start>
										<end>2885</end>
										<in>2445</in>
										<out>3096</out>
										<pproTicksIn>20723006304000</pproTicksIn>
										<pproTicksOut>26240665651200</pproTicksOut>
										<alphatype>straight</alphatype>
										<file id="file-190"/>
										<logginginfo>
											<description></description>
											<scene></scene>
											<shottake></shottake>
											<lognote></lognote>
											<good></good>
											<originalvideofilename></originalvideofilename>
											<originalaudiofilename></originalaudiofilename>
										</logginginfo>
										<colorinfo>
											<lut></lut>
											<lut1></lut1>
											<asc_sop></asc_sop>
											<asc_sat></asc_sat>
											<lut2></lut2>
										</colorinfo>
									</clipitem>
									<clipitem id="clipitem-674">
										<masterclipid>masterclip-203</masterclipid>
										<name>Mamagician</name>
										<enabled>TRUE</enabled>
										<duration>5844</duration>
										<rate>
											<timebase>30</timebase>
											<ntsc>TRUE</ntsc>
										</rate>
										<start>2885</start>
										<end>3594</end>
										<in>0</in>
										<out>709</out>
										<pproTicksIn>0</pproTicksIn>
										<pproTicksOut>6009248044800</pproTicksOut>
										<alphatype>straight</alphatype>
										<pixelaspectratio>square</pixelaspectratio>
										<anamorphic>FALSE</anamorphic>
										<file id="file-200">
											<name>1080/AE Attribution.aep</name>
											<pathurl>file://localhost/Volumes/ATM%201/EYE%20CANDY/Project%20Template/5_Assets/AE%20Attribution.aep</pathurl>
											<rate>
												<timebase>30</timebase>
												<ntsc>TRUE</ntsc>
											</rate>
											<duration>5844</duration>
											<timecode>
												<rate>
													<timebase>30</timebase>
													<ntsc>TRUE</ntsc>
												</rate>
												<string>00;00;00;00</string>
												<frame>0</frame>
												<displayformat>DF</displayformat>
											</timecode>
											<media>
												<video>
													<samplecharacteristics>
														<rate>
															<timebase>30</timebase>
															<ntsc>TRUE</ntsc>
														</rate>
														<width>1920</width>
														<height>1080</height>
														<anamorphic>FALSE</anamorphic>
														<pixelaspectratio>square</pixelaspectratio>
														<fielddominance>lower</fielddominance>
													</samplecharacteristics>
												</video>
											</media>
										</file>
										<logginginfo>
											<description></description>
											<scene></scene>
											<shottake></shottake>
											<lognote></lognote>
											<good></good>
											<originalvideofilename></originalvideofilename>
											<originalaudiofilename></originalaudiofilename>
										</logginginfo>
										<colorinfo>
											<lut></lut>
											<lut1></lut1>
											<asc_sop></asc_sop>
											<asc_sat></asc_sat>
											<lut2></lut2>
										</colorinfo>
										<labels>
											<label2>Rose</label2>
										</labels>
									</clipitem>
									<enabled>TRUE</enabled>
									<locked>FALSE</locked>
								</track>
								<track TL.SQTrackShy="0" TL.SQTrackExpandedHeight="25" TL.SQTrackExpanded="0" MZ.TrackTargeted="0">
									<enabled>TRUE</enabled>
									<locked>FALSE</locked>
								</track>
								<track TL.SQTrackShy="0" TL.SQTrackExpandedHeight="25" TL.SQTrackExpanded="0" MZ.TrackTargeted="0">
									<enabled>TRUE</enabled>
									<locked>FALSE</locked>
								</track>
								<track TL.SQTrackShy="0" TL.SQTrackExpandedHeight="25" TL.SQTrackExpanded="0" MZ.TrackTargeted="0">
									<enabled>TRUE</enabled>
									<locked>FALSE</locked>
								</track>
								<track TL.SQTrackShy="0" TL.SQTrackExpandedHeight="25" TL.SQTrackExpanded="0" MZ.TrackTargeted="0">
									<enabled>TRUE</enabled>
									<locked>FALSE</locked>
								</track>
								<track TL.SQTrackShy="0" TL.SQTrackExpandedHeight="25" TL.SQTrackExpanded="0" MZ.TrackTargeted="0">
									<enabled>TRUE</enabled>
									<locked>FALSE</locked>
								</track>
								<track TL.SQTrackShy="0" TL.SQTrackExpandedHeight="25" TL.SQTrackExpanded="0" MZ.TrackTargeted="0">
									<enabled>TRUE</enabled>
									<locked>FALSE</locked>
								</track>
								<track TL.SQTrackShy="0" TL.SQTrackExpandedHeight="25" TL.SQTrackExpanded="0" MZ.TrackTargeted="0">
									<enabled>TRUE</enabled>
									<locked>FALSE</locked>
								</track>
								<track TL.SQTrackShy="0" TL.SQTrackExpandedHeight="25" TL.SQTrackExpanded="0" MZ.TrackTargeted="0">
									<enabled>TRUE</enabled>
									<locked>FALSE</locked>
								</track>
							</video>
							<audio>
								<numOutputChannels>2</numOutputChannels>
								<format>
									<samplecharacteristics>
										<depth>16</depth>
										<samplerate>48000</samplerate>
									</samplecharacteristics>
								</format>
								<outputs>
									<group>
										<index>1</index>
										<numchannels>1</numchannels>
										<downmix>0</downmix>
										<channel>
											<index>1</index>
										</channel>
									</group>
									<group>
										<index>2</index>
										<numchannels>1</numchannels>
										<downmix>0</downmix>
										<channel>
											<index>2</index>
										</channel>
									</group>
								</outputs>
								<track TL.SQTrackAudioKeyframeStyle="0" TL.SQTrackShy="0" TL.SQTrackExpandedHeight="25" TL.SQTrackExpanded="0" MZ.TrackTargeted="1" PannerCurrentValue="0.5" PannerIsInverted="true" PannerStartKeyframe="-91445760000000000,0.5,0,0,0,0,0,0" PannerName="Balance" currentExplodedTrackIndex="0" totalExplodedTrackCount="2" premiereTrackType="Stereo">
									<clipitem id="clipitem-675" premiereChannelType="stereo">
										<masterclipid>masterclip-204</masterclipid>
										<name>ES_Side 2 Side (Instrumental Version) - Filthy The Kid.mp3</name>
										<enabled>TRUE</enabled>
										<duration>5338</duration>
										<rate>
											<timebase>30</timebase>
											<ntsc>TRUE</ntsc>
										</rate>
										<start>0</start>
										<end>3595</end>
										<in>0</in>
										<out>3595</out>
										<pproTicksIn>0</pproTicksIn>
										<pproTicksOut>30470023584000</pproTicksOut>
										<file id="file-201">
											<name>ES_Side 2 Side (Instrumental Version) - Filthy The Kid.mp3</name>
											<pathurl>file://localhost/Volumes/ATM%201/EYE%20CANDY/8%3a21%3a23/5_Assets/Music/ES_Side%202%20Side%20(Instrumental%20Version)%20-%20Filthy%20The%20Kid.mp3</pathurl>
											<rate>
												<timebase>30</timebase>
												<ntsc>TRUE</ntsc>
											</rate>
											<duration>5338</duration>
											<timecode>
												<rate>
													<timebase>30</timebase>
													<ntsc>TRUE</ntsc>
												</rate>
												<string>00;00;00;00</string>
												<frame>0</frame>
												<displayformat>DF</displayformat>
											</timecode>
											<media>
												<audio>
													<samplecharacteristics>
														<depth>16</depth>
														<samplerate>48000</samplerate>
													</samplecharacteristics>
													<channelcount>2</channelcount>
												</audio>
											</media>
										</file>
										<sourcetrack>
											<mediatype>audio</mediatype>
											<trackindex>1</trackindex>
										</sourcetrack>
										<link>
											<linkclipref>clipitem-675</linkclipref>
											<mediatype>audio</mediatype>
											<trackindex>1</trackindex>
											<clipindex>1</clipindex>
											<groupindex>1</groupindex>
										</link>
										<link>
											<linkclipref>clipitem-676</linkclipref>
											<mediatype>audio</mediatype>
											<trackindex>2</trackindex>
											<clipindex>1</clipindex>
											<groupindex>1</groupindex>
										</link>
										<logginginfo>
											<description></description>
											<scene></scene>
											<shottake></shottake>
											<lognote></lognote>
											<good></good>
											<originalvideofilename></originalvideofilename>
											<originalaudiofilename></originalaudiofilename>
										</logginginfo>
										<colorinfo>
											<lut></lut>
											<lut1></lut1>
											<asc_sop></asc_sop>
											<asc_sat></asc_sat>
											<lut2></lut2>
										</colorinfo>
										<labels>
											<label2>Caribbean</label2>
										</labels>
									</clipitem>
									<enabled>TRUE</enabled>
									<locked>FALSE</locked>
									<filter>
										<effect>
											<name>Audio Levels</name>
											<effectid>audiolevels</effectid>
											<effectcategory>audiolevels</effectcategory>
											<effecttype>audiolevels</effecttype>
											<mediatype>audio</mediatype>
											<parameter authoringApp="PremierePro">
												<parameterid>level</parameterid>
												<name>Level</name>
												<valuemin>0</valuemin>
												<valuemax>3.98109</valuemax>
												<value>0.706272</value>
											</parameter>
										</effect>
									</filter>
									<outputchannelindex>1</outputchannelindex>
								</track>
								<track TL.SQTrackAudioKeyframeStyle="0" TL.SQTrackShy="0" TL.SQTrackExpandedHeight="25" TL.SQTrackExpanded="0" MZ.TrackTargeted="1" PannerCurrentValue="0.5" PannerIsInverted="true" PannerStartKeyframe="-91445760000000000,0.5,0,0,0,0,0,0" PannerName="Balance" currentExplodedTrackIndex="1" totalExplodedTrackCount="2" premiereTrackType="Stereo">
									<clipitem id="clipitem-676" premiereChannelType="stereo">
										<masterclipid>masterclip-204</masterclipid>
										<name>ES_Side 2 Side (Instrumental Version) - Filthy The Kid.mp3</name>
										<enabled>TRUE</enabled>
										<duration>5338</duration>
										<rate>
											<timebase>30</timebase>
											<ntsc>TRUE</ntsc>
										</rate>
										<start>0</start>
										<end>3595</end>
										<in>0</in>
										<out>3595</out>
										<pproTicksIn>0</pproTicksIn>
										<pproTicksOut>30470023584000</pproTicksOut>
										<file id="file-201"/>
										<sourcetrack>
											<mediatype>audio</mediatype>
											<trackindex>2</trackindex>
										</sourcetrack>
										<link>
											<linkclipref>clipitem-675</linkclipref>
											<mediatype>audio</mediatype>
											<trackindex>1</trackindex>
											<clipindex>1</clipindex>
											<groupindex>1</groupindex>
										</link>
										<link>
											<linkclipref>clipitem-676</linkclipref>
											<mediatype>audio</mediatype>
											<trackindex>2</trackindex>
											<clipindex>1</clipindex>
											<groupindex>1</groupindex>
										</link>
										<logginginfo>
											<description></description>
											<scene></scene>
											<shottake></shottake>
											<lognote></lognote>
											<good></good>
											<originalvideofilename></originalvideofilename>
											<originalaudiofilename></originalaudiofilename>
										</logginginfo>
										<colorinfo>
											<lut></lut>
											<lut1></lut1>
											<asc_sop></asc_sop>
											<asc_sat></asc_sat>
											<lut2></lut2>
										</colorinfo>
										<labels>
											<label2>Caribbean</label2>
										</labels>
									</clipitem>
									<enabled>TRUE</enabled>
									<locked>FALSE</locked>
									<filter>
										<effect>
											<name>Audio Levels</name>
											<effectid>audiolevels</effectid>
											<effectcategory>audiolevels</effectcategory>
											<effecttype>audiolevels</effecttype>
											<mediatype>audio</mediatype>
											<parameter authoringApp="PremierePro">
												<parameterid>level</parameterid>
												<name>Level</name>
												<valuemin>0</valuemin>
												<valuemax>3.98109</valuemax>
												<value>0.706272</value>
											</parameter>
										</effect>
									</filter>
									<outputchannelindex>2</outputchannelindex>
								</track>
								<track TL.SQTrackAudioKeyframeStyle="0" TL.SQTrackShy="0" TL.SQTrackExpandedHeight="25" TL.SQTrackExpanded="0" MZ.TrackTargeted="0" PannerCurrentValue="0.5" PannerIsInverted="true" PannerStartKeyframe="-91445760000000000,0.5,0,0,0,0,0,0" PannerName="Balance" currentExplodedTrackIndex="0" totalExplodedTrackCount="2" premiereTrackType="Stereo">
									<enabled>TRUE</enabled>
									<locked>FALSE</locked>
									<outputchannelindex>1</outputchannelindex>
								</track>
								<track TL.SQTrackAudioKeyframeStyle="0" TL.SQTrackShy="0" TL.SQTrackExpandedHeight="25" TL.SQTrackExpanded="0" MZ.TrackTargeted="0" PannerCurrentValue="0.5" PannerIsInverted="true" PannerStartKeyframe="-91445760000000000,0.5,0,0,0,0,0,0" PannerName="Balance" currentExplodedTrackIndex="1" totalExplodedTrackCount="2" premiereTrackType="Stereo">
									<enabled>TRUE</enabled>
									<locked>FALSE</locked>
									<outputchannelindex>2</outputchannelindex>
								</track>
								<track TL.SQTrackAudioKeyframeStyle="0" TL.SQTrackShy="0" TL.SQTrackExpandedHeight="25" TL.SQTrackExpanded="0" MZ.TrackTargeted="0" PannerCurrentValue="0.5" PannerIsInverted="true" PannerStartKeyframe="-91445760000000000,0.5,0,0,0,0,0,0" PannerName="Balance" currentExplodedTrackIndex="0" totalExplodedTrackCount="2" premiereTrackType="Stereo">
									<enabled>TRUE</enabled>
									<locked>FALSE</locked>
									<outputchannelindex>1</outputchannelindex>
								</track>
								<track TL.SQTrackAudioKeyframeStyle="0" TL.SQTrackShy="0" TL.SQTrackExpandedHeight="25" TL.SQTrackExpanded="0" MZ.TrackTargeted="0" PannerCurrentValue="0.5" PannerIsInverted="true" PannerStartKeyframe="-91445760000000000,0.5,0,0,0,0,0,0" PannerName="Balance" currentExplodedTrackIndex="1" totalExplodedTrackCount="2" premiereTrackType="Stereo">
									<enabled>TRUE</enabled>
									<locked>FALSE</locked>
									<outputchannelindex>2</outputchannelindex>
								</track>
								<track TL.SQTrackAudioKeyframeStyle="0" TL.SQTrackShy="0" TL.SQTrackExpandedHeight="25" TL.SQTrackExpanded="0" MZ.TrackTargeted="0" PannerCurrentValue="0.5" PannerIsInverted="true" PannerStartKeyframe="-91445760000000000,0.5,0,0,0,0,0,0" PannerName="Balance" currentExplodedTrackIndex="0" totalExplodedTrackCount="2" premiereTrackType="Stereo">
									<enabled>TRUE</enabled>
									<locked>FALSE</locked>
									<outputchannelindex>1</outputchannelindex>
								</track>
								<track TL.SQTrackAudioKeyframeStyle="0" TL.SQTrackShy="0" TL.SQTrackExpandedHeight="25" TL.SQTrackExpanded="0" MZ.TrackTargeted="0" PannerCurrentValue="0.5" PannerIsInverted="true" PannerStartKeyframe="-91445760000000000,0.5,0,0,0,0,0,0" PannerName="Balance" currentExplodedTrackIndex="1" totalExplodedTrackCount="2" premiereTrackType="Stereo">
									<enabled>TRUE</enabled>
									<locked>FALSE</locked>
									<outputchannelindex>2</outputchannelindex>
								</track>
								<track TL.SQTrackAudioKeyframeStyle="0" TL.SQTrackShy="0" TL.SQTrackExpandedHeight="25" TL.SQTrackExpanded="0" MZ.TrackTargeted="0" PannerCurrentValue="0.5" PannerIsInverted="true" PannerStartKeyframe="-91445760000000000,0.5,0,0,0,0,0,0" PannerName="Balance" currentExplodedTrackIndex="0" totalExplodedTrackCount="2" premiereTrackType="Stereo">
									<enabled>TRUE</enabled>
									<locked>FALSE</locked>
									<outputchannelindex>1</outputchannelindex>
								</track>
								<track TL.SQTrackAudioKeyframeStyle="0" TL.SQTrackShy="0" TL.SQTrackExpandedHeight="25" TL.SQTrackExpanded="0" MZ.TrackTargeted="0" PannerCurrentValue="0.5" PannerIsInverted="true" PannerStartKeyframe="-91445760000000000,0.5,0,0,0,0,0,0" PannerName="Balance" currentExplodedTrackIndex="1" totalExplodedTrackCount="2" premiereTrackType="Stereo">
									<enabled>TRUE</enabled>
									<locked>FALSE</locked>
									<outputchannelindex>2</outputchannelindex>
								</track>
								<track TL.SQTrackAudioKeyframeStyle="0" TL.SQTrackShy="0" TL.SQTrackExpandedHeight="25" TL.SQTrackExpanded="0" MZ.TrackTargeted="0" PannerCurrentValue="0.5" PannerIsInverted="true" PannerStartKeyframe="-91445760000000000,0.5,0,0,0,0,0,0" PannerName="Balance" currentExplodedTrackIndex="0" totalExplodedTrackCount="2" premiereTrackType="Stereo">
									<enabled>TRUE</enabled>
									<locked>FALSE</locked>
									<outputchannelindex>1</outputchannelindex>
								</track>
								<track TL.SQTrackAudioKeyframeStyle="0" TL.SQTrackShy="0" TL.SQTrackExpandedHeight="25" TL.SQTrackExpanded="0" MZ.TrackTargeted="0" PannerCurrentValue="0.5" PannerIsInverted="true" PannerStartKeyframe="-91445760000000000,0.5,0,0,0,0,0,0" PannerName="Balance" currentExplodedTrackIndex="1" totalExplodedTrackCount="2" premiereTrackType="Stereo">
									<enabled>TRUE</enabled>
									<locked>FALSE</locked>
									<outputchannelindex>2</outputchannelindex>
								</track>
								<track TL.SQTrackAudioKeyframeStyle="0" TL.SQTrackShy="0" TL.SQTrackExpandedHeight="25" TL.SQTrackExpanded="0" MZ.TrackTargeted="0" PannerCurrentValue="0.5" PannerIsInverted="true" PannerStartKeyframe="-91445760000000000,0.5,0,0,0,0,0,0" PannerName="Balance" currentExplodedTrackIndex="0" totalExplodedTrackCount="2" premiereTrackType="Stereo">
									<enabled>TRUE</enabled>
									<locked>FALSE</locked>
									<outputchannelindex>1</outputchannelindex>
								</track>
								<track TL.SQTrackAudioKeyframeStyle="0" TL.SQTrackShy="0" TL.SQTrackExpandedHeight="25" TL.SQTrackExpanded="0" MZ.TrackTargeted="0" PannerCurrentValue="0.5" PannerIsInverted="true" PannerStartKeyframe="-91445760000000000,0.5,0,0,0,0,0,0" PannerName="Balance" currentExplodedTrackIndex="1" totalExplodedTrackCount="2" premiereTrackType="Stereo">
									<enabled>TRUE</enabled>
									<locked>FALSE</locked>
									<outputchannelindex>2</outputchannelindex>
								</track>
								<track TL.SQTrackAudioKeyframeStyle="0" TL.SQTrackShy="0" TL.SQTrackExpandedHeight="25" TL.SQTrackExpanded="0" MZ.TrackTargeted="0" PannerCurrentValue="0.5" PannerIsInverted="true" PannerStartKeyframe="-91445760000000000,0.5,0,0,0,0,0,0" PannerName="Balance" currentExplodedTrackIndex="0" totalExplodedTrackCount="2" premiereTrackType="Stereo">
									<enabled>TRUE</enabled>
									<locked>FALSE</locked>
									<outputchannelindex>1</outputchannelindex>
								</track>
								<track TL.SQTrackAudioKeyframeStyle="0" TL.SQTrackShy="0" TL.SQTrackExpandedHeight="25" TL.SQTrackExpanded="0" MZ.TrackTargeted="0" PannerCurrentValue="0.5" PannerIsInverted="true" PannerStartKeyframe="-91445760000000000,0.5,0,0,0,0,0,0" PannerName="Balance" currentExplodedTrackIndex="1" totalExplodedTrackCount="2" premiereTrackType="Stereo">
									<enabled>TRUE</enabled>
									<locked>FALSE</locked>
									<outputchannelindex>2</outputchannelindex>
								</track>
								<track TL.SQTrackAudioKeyframeStyle="0" TL.SQTrackShy="0" TL.SQTrackExpandedHeight="25" TL.SQTrackExpanded="0" MZ.TrackTargeted="0" PannerCurrentValue="0.5" PannerIsInverted="true" PannerStartKeyframe="-91445760000000000,0.5,0,0,0,0,0,0" PannerName="Balance" currentExplodedTrackIndex="0" totalExplodedTrackCount="2" premiereTrackType="Stereo">
									<enabled>TRUE</enabled>
									<locked>FALSE</locked>
									<outputchannelindex>1</outputchannelindex>
								</track>
								<track TL.SQTrackAudioKeyframeStyle="0" TL.SQTrackShy="0" TL.SQTrackExpandedHeight="25" TL.SQTrackExpanded="0" MZ.TrackTargeted="0" PannerCurrentValue="0.5" PannerIsInverted="true" PannerStartKeyframe="-91445760000000000,0.5,0,0,0,0,0,0" PannerName="Balance" currentExplodedTrackIndex="1" totalExplodedTrackCount="2" premiereTrackType="Stereo">
									<enabled>TRUE</enabled>
									<locked>FALSE</locked>
									<outputchannelindex>2</outputchannelindex>
								</track>
								<track TL.SQTrackAudioKeyframeStyle="0" TL.SQTrackShy="0" TL.SQTrackExpandedHeight="25" TL.SQTrackExpanded="0" MZ.TrackTargeted="0" PannerCurrentValue="0.5" PannerIsInverted="true" PannerStartKeyframe="-91445760000000000,0.5,0,0,0,0,0,0" PannerName="Balance" currentExplodedTrackIndex="0" totalExplodedTrackCount="2" premiereTrackType="Stereo">
									<enabled>TRUE</enabled>
									<locked>FALSE</locked>
									<outputchannelindex>1</outputchannelindex>
								</track>
								<track TL.SQTrackAudioKeyframeStyle="0" TL.SQTrackShy="0" TL.SQTrackExpandedHeight="25" TL.SQTrackExpanded="0" MZ.TrackTargeted="0" PannerCurrentValue="0.5" PannerIsInverted="true" PannerStartKeyframe="-91445760000000000,0.5,0,0,0,0,0,0" PannerName="Balance" currentExplodedTrackIndex="1" totalExplodedTrackCount="2" premiereTrackType="Stereo">
									<enabled>TRUE</enabled>
									<locked>FALSE</locked>
									<outputchannelindex>2</outputchannelindex>
								</track>
							</audio>
						</media>
						<timecode>
							<rate>
								<timebase>30</timebase>
								<ntsc>TRUE</ntsc>
							</rate>
							<string>00;00;00;00</string>
							<frame>0</frame>
							<displayformat>DF</displayformat>
						</timecode>
						<labels>
							<label2>Forest</label2>
						</labels>
						<logginginfo>
							<description></description>
							<scene></scene>
							<shottake></shottake>
							<lognote></lognote>
							<good></good>
							<originalvideofilename></originalvideofilename>
							<originalaudiofilename></originalaudiofilename>
						</logginginfo>
					</sequence>
					<sequence id="sequence-24" TL.SQAudioVisibleBase="0" TL.SQVideoVisibleBase="0" TL.SQVisibleBaseTime="0" TL.SQAVDividerPosition="0.5" TL.SQHideShyTracks="0" TL.SQHeaderWidth="236" TL.SQDataTrackViewControlState="0" Monitor.ProgramZoomOut="11238734707200" Monitor.ProgramZoomIn="0" TL.SQTimePerPixel="0.072184793070247569" AM.TrackVScrollPosition="0" AM.TrackScrollPosition="0" MZ.EditLine="8085786508800" MZ.Sequence.PreviewFrameSizeHeight="1080" MZ.Sequence.PreviewFrameSizeWidth="1920" MZ.Sequence.AudioTimeDisplayFormat="200" MZ.Sequence.PreviewRenderingClassID="1061109567" MZ.Sequence.PreviewRenderingPresetCodec="1634755443" MZ.Sequence.PreviewRenderingPresetPath="EncoderPresets/SequencePreview/35d109db-457b-43c1-9452-9cb7be9f121c/QuickTime.epr" MZ.Sequence.PreviewUseMaxRenderQuality="false" MZ.Sequence.PreviewUseMaxBitDepth="false" MZ.Sequence.EditingModeGUID="35d109db-457b-43c1-9452-9cb7be9f121c" MZ.Sequence.VideoTimeDisplayFormat="102" MZ.WorkOutPoint="1262874412800" MZ.WorkInPoint="0" explodedTracks="true">
						<uuid>7ea8e003-9e42-4bb6-8169-1a3cbb076fbb</uuid>
						<duration>1326</duration>
						<rate>
							<timebase>30</timebase>
							<ntsc>TRUE</ntsc>
						</rate>
						<name>FND_Mmmmm, Molasses_1</name>
						<media>
							<video>
								<format>
									<samplecharacteristics>
										<rate>
											<timebase>30</timebase>
											<ntsc>TRUE</ntsc>
										</rate>
										<codec>
											<name>Apple ProRes 422</name>
											<appspecificdata>
												<appname>Final Cut Pro</appname>
												<appmanufacturer>Apple Inc.</appmanufacturer>
												<appversion>7.0</appversion>
												<data>
													<qtcodec>
														<codecname>Apple ProRes 422</codecname>
														<codectypename>Apple ProRes 422</codectypename>
														<codectypecode>apcn</codectypecode>
														<codecvendorcode>appl</codecvendorcode>
														<spatialquality>1024</spatialquality>
														<temporalquality>0</temporalquality>
														<keyframerate>0</keyframerate>
														<datarate>0</datarate>
													</qtcodec>
												</data>
											</appspecificdata>
										</codec>
										<width>1920</width>
										<height>1080</height>
										<anamorphic>FALSE</anamorphic>
										<pixelaspectratio>square</pixelaspectratio>
										<fielddominance>none</fielddominance>
										<colordepth>24</colordepth>
									</samplecharacteristics>
								</format>
								<track TL.SQTrackShy="0" TL.SQTrackExpandedHeight="25" TL.SQTrackExpanded="0" MZ.TrackTargeted="1">
									<clipitem id="clipitem-677">
										<masterclipid>masterclip-146</masterclipid>
										<name>(refined.and.dandy)_7044601598684794118_TT.mp4</name>
										<enabled>TRUE</enabled>
										<duration>2505</duration>
										<rate>
											<timebase>30</timebase>
											<ntsc>TRUE</ntsc>
										</rate>
										<start>0</start>
										<end>922</end>
										<in>304</in>
										<out>1226</out>
										<pproTicksIn>2576602828800</pproTicksIn>
										<pproTicksOut>10391167987200</pproTicksOut>
										<alphatype>none</alphatype>
										<file id="file-146"/>
										<logginginfo>
											<description></description>
											<scene></scene>
											<shottake></shottake>
											<lognote></lognote>
											<good></good>
											<originalvideofilename></originalvideofilename>
											<originalaudiofilename></originalaudiofilename>
										</logginginfo>
										<colorinfo>
											<lut></lut>
											<lut1></lut1>
											<asc_sop></asc_sop>
											<asc_sat></asc_sat>
											<lut2></lut2>
										</colorinfo>
										<labels>
											<label2>Iris</label2>
										</labels>
									</clipitem>
									<clipitem id="clipitem-678">
										<masterclipid>masterclip-146</masterclipid>
										<name>(refined.and.dandy)_7044601598684794118_TT.mp4</name>
										<enabled>TRUE</enabled>
										<duration>2505</duration>
										<rate>
											<timebase>30</timebase>
											<ntsc>TRUE</ntsc>
										</rate>
										<start>922</start>
										<end>1150</end>
										<in>1258</in>
										<out>1486</out>
										<pproTicksIn>10662389337600</pproTicksIn>
										<pproTicksOut>12594841459200</pproTicksOut>
										<alphatype>none</alphatype>
										<file id="file-146"/>
										<logginginfo>
											<description></description>
											<scene></scene>
											<shottake></shottake>
											<lognote></lognote>
											<good></good>
											<originalvideofilename></originalvideofilename>
											<originalaudiofilename></originalaudiofilename>
										</logginginfo>
										<colorinfo>
											<lut></lut>
											<lut1></lut1>
											<asc_sop></asc_sop>
											<asc_sat></asc_sat>
											<lut2></lut2>
										</colorinfo>
										<labels>
											<label2>Iris</label2>
										</labels>
									</clipitem>
									<clipitem id="clipitem-679">
										<masterclipid>masterclip-146</masterclipid>
										<name>(refined.and.dandy)_7044601598684794118_TT.mp4</name>
										<enabled>TRUE</enabled>
										<duration>2505</duration>
										<rate>
											<timebase>30</timebase>
											<ntsc>TRUE</ntsc>
										</rate>
										<start>1150</start>
										<end>1326</end>
										<in>2264</in>
										<out>2440</out>
										<pproTicksIn>19188910540800</pproTicksIn>
										<pproTicksOut>20680627968000</pproTicksOut>
										<alphatype>none</alphatype>
										<file id="file-146"/>
										<logginginfo>
											<description></description>
											<scene></scene>
											<shottake></shottake>
											<lognote></lognote>
											<good></good>
											<originalvideofilename></originalvideofilename>
											<originalaudiofilename></originalaudiofilename>
										</logginginfo>
										<colorinfo>
											<lut></lut>
											<lut1></lut1>
											<asc_sop></asc_sop>
											<asc_sat></asc_sat>
											<lut2></lut2>
										</colorinfo>
										<labels>
											<label2>Iris</label2>
										</labels>
									</clipitem>
									<enabled>TRUE</enabled>
									<locked>FALSE</locked>
								</track>
								<track TL.SQTrackShy="0" TL.SQTrackExpandedHeight="25" TL.SQTrackExpanded="0" MZ.TrackTargeted="0">
									<clipitem id="clipitem-680">
										<masterclipid>masterclip-190</masterclipid>
										<name>Eyecandy Vertical Video Frame 1</name>
										<enabled>TRUE</enabled>
										<duration>5700</duration>
										<rate>
											<timebase>30</timebase>
											<ntsc>TRUE</ntsc>
										</rate>
										<start>0</start>
										<end>1326</end>
										<in>177</in>
										<out>1503</out>
										<pproTicksIn>1500193094400</pproTicksIn>
										<pproTicksOut>12738927801600</pproTicksOut>
										<alphatype>straight</alphatype>
										<file id="file-188"/>
										<logginginfo>
											<description></description>
											<scene></scene>
											<shottake></shottake>
											<lognote></lognote>
											<good></good>
											<originalvideofilename></originalvideofilename>
											<originalaudiofilename></originalaudiofilename>
										</logginginfo>
										<colorinfo>
											<lut></lut>
											<lut1></lut1>
											<asc_sop></asc_sop>
											<asc_sat></asc_sat>
											<lut2></lut2>
										</colorinfo>
									</clipitem>
									<enabled>TRUE</enabled>
									<locked>FALSE</locked>
								</track>
								<track TL.SQTrackShy="0" TL.SQTrackExpandedHeight="25" TL.SQTrackExpanded="0" MZ.TrackTargeted="0">
									<enabled>TRUE</enabled>
									<locked>FALSE</locked>
								</track>
								<track TL.SQTrackShy="0" TL.SQTrackExpandedHeight="25" TL.SQTrackExpanded="0" MZ.TrackTargeted="0">
									<enabled>TRUE</enabled>
									<locked>FALSE</locked>
								</track>
								<track TL.SQTrackShy="0" TL.SQTrackExpandedHeight="25" TL.SQTrackExpanded="0" MZ.TrackTargeted="0">
									<enabled>TRUE</enabled>
									<locked>FALSE</locked>
								</track>
								<track TL.SQTrackShy="0" TL.SQTrackExpandedHeight="25" TL.SQTrackExpanded="0" MZ.TrackTargeted="0">
									<enabled>TRUE</enabled>
									<locked>FALSE</locked>
								</track>
								<track TL.SQTrackShy="0" TL.SQTrackExpandedHeight="25" TL.SQTrackExpanded="0" MZ.TrackTargeted="0">
									<enabled>TRUE</enabled>
									<locked>FALSE</locked>
								</track>
								<track TL.SQTrackShy="0" TL.SQTrackExpandedHeight="25" TL.SQTrackExpanded="0" MZ.TrackTargeted="0">
									<enabled>TRUE</enabled>
									<locked>FALSE</locked>
								</track>
								<track TL.SQTrackShy="0" TL.SQTrackExpandedHeight="25" TL.SQTrackExpanded="0" MZ.TrackTargeted="0">
									<enabled>TRUE</enabled>
									<locked>FALSE</locked>
								</track>
								<track TL.SQTrackShy="0" TL.SQTrackExpandedHeight="25" TL.SQTrackExpanded="0" MZ.TrackTargeted="0">
									<enabled>TRUE</enabled>
									<locked>FALSE</locked>
								</track>
							</video>
							<audio>
								<numOutputChannels>2</numOutputChannels>
								<format>
									<samplecharacteristics>
										<depth>16</depth>
										<samplerate>48000</samplerate>
									</samplecharacteristics>
								</format>
								<outputs>
									<group>
										<index>1</index>
										<numchannels>1</numchannels>
										<downmix>0</downmix>
										<channel>
											<index>1</index>
										</channel>
									</group>
									<group>
										<index>2</index>
										<numchannels>1</numchannels>
										<downmix>0</downmix>
										<channel>
											<index>2</index>
										</channel>
									</group>
								</outputs>
								<track TL.SQTrackAudioKeyframeStyle="0" TL.SQTrackShy="0" TL.SQTrackExpandedHeight="25" TL.SQTrackExpanded="0" MZ.TrackTargeted="1" PannerCurrentValue="0.5" PannerIsInverted="true" PannerStartKeyframe="-91445760000000000,0.5,0,0,0,0,0,0" PannerName="Balance" currentExplodedTrackIndex="0" totalExplodedTrackCount="2" premiereTrackType="Stereo">
									<clipitem id="clipitem-681" premiereChannelType="stereo">
										<masterclipid>masterclip-205</masterclipid>
										<name>ES_Round on Me - Justnormal.mp3</name>
										<enabled>TRUE</enabled>
										<duration>4243</duration>
										<rate>
											<timebase>30</timebase>
											<ntsc>TRUE</ntsc>
										</rate>
										<start>0</start>
										<end>1326</end>
										<in>0</in>
										<out>1326</out>
										<pproTicksIn>0</pproTicksIn>
										<pproTicksOut>11238734707200</pproTicksOut>
										<file id="file-202">
											<name>ES_Round on Me - Justnormal.mp3</name>
											<pathurl>file://localhost/Volumes/ATM%201/EYE%20CANDY/8%3a21%3a23/5_Assets/Music/ES_Round%20on%20Me%20-%20Justnormal.mp3</pathurl>
											<rate>
												<timebase>30</timebase>
												<ntsc>TRUE</ntsc>
											</rate>
											<duration>4243</duration>
											<timecode>
												<rate>
													<timebase>30</timebase>
													<ntsc>TRUE</ntsc>
												</rate>
												<string>00;00;00;00</string>
												<frame>0</frame>
												<displayformat>DF</displayformat>
											</timecode>
											<media>
												<audio>
													<samplecharacteristics>
														<depth>16</depth>
														<samplerate>48000</samplerate>
													</samplecharacteristics>
													<channelcount>2</channelcount>
												</audio>
											</media>
										</file>
										<sourcetrack>
											<mediatype>audio</mediatype>
											<trackindex>1</trackindex>
										</sourcetrack>
										<link>
											<linkclipref>clipitem-681</linkclipref>
											<mediatype>audio</mediatype>
											<trackindex>1</trackindex>
											<clipindex>1</clipindex>
											<groupindex>1</groupindex>
										</link>
										<link>
											<linkclipref>clipitem-682</linkclipref>
											<mediatype>audio</mediatype>
											<trackindex>2</trackindex>
											<clipindex>1</clipindex>
											<groupindex>1</groupindex>
										</link>
										<logginginfo>
											<description></description>
											<scene></scene>
											<shottake></shottake>
											<lognote></lognote>
											<good></good>
											<originalvideofilename></originalvideofilename>
											<originalaudiofilename></originalaudiofilename>
										</logginginfo>
										<colorinfo>
											<lut></lut>
											<lut1></lut1>
											<asc_sop></asc_sop>
											<asc_sat></asc_sat>
											<lut2></lut2>
										</colorinfo>
										<labels>
											<label2>Caribbean</label2>
										</labels>
									</clipitem>
									<enabled>TRUE</enabled>
									<locked>FALSE</locked>
									<filter>
										<effect>
											<name>Audio Levels</name>
											<effectid>audiolevels</effectid>
											<effectcategory>audiolevels</effectcategory>
											<effecttype>audiolevels</effecttype>
											<mediatype>audio</mediatype>
											<parameter authoringApp="PremierePro">
												<parameterid>level</parameterid>
												<name>Level</name>
												<valuemin>0</valuemin>
												<valuemax>3.98109</valuemax>
												<value>0.706272</value>
											</parameter>
										</effect>
									</filter>
									<outputchannelindex>1</outputchannelindex>
								</track>
								<track TL.SQTrackAudioKeyframeStyle="0" TL.SQTrackShy="0" TL.SQTrackExpandedHeight="25" TL.SQTrackExpanded="0" MZ.TrackTargeted="1" PannerCurrentValue="0.5" PannerIsInverted="true" PannerStartKeyframe="-91445760000000000,0.5,0,0,0,0,0,0" PannerName="Balance" currentExplodedTrackIndex="1" totalExplodedTrackCount="2" premiereTrackType="Stereo">
									<clipitem id="clipitem-682" premiereChannelType="stereo">
										<masterclipid>masterclip-205</masterclipid>
										<name>ES_Round on Me - Justnormal.mp3</name>
										<enabled>TRUE</enabled>
										<duration>4243</duration>
										<rate>
											<timebase>30</timebase>
											<ntsc>TRUE</ntsc>
										</rate>
										<start>0</start>
										<end>1326</end>
										<in>0</in>
										<out>1326</out>
										<pproTicksIn>0</pproTicksIn>
										<pproTicksOut>11238734707200</pproTicksOut>
										<file id="file-202"/>
										<sourcetrack>
											<mediatype>audio</mediatype>
											<trackindex>2</trackindex>
										</sourcetrack>
										<link>
											<linkclipref>clipitem-681</linkclipref>
											<mediatype>audio</mediatype>
											<trackindex>1</trackindex>
											<clipindex>1</clipindex>
											<groupindex>1</groupindex>
										</link>
										<link>
											<linkclipref>clipitem-682</linkclipref>
											<mediatype>audio</mediatype>
											<trackindex>2</trackindex>
											<clipindex>1</clipindex>
											<groupindex>1</groupindex>
										</link>
										<logginginfo>
											<description></description>
											<scene></scene>
											<shottake></shottake>
											<lognote></lognote>
											<good></good>
											<originalvideofilename></originalvideofilename>
											<originalaudiofilename></originalaudiofilename>
										</logginginfo>
										<colorinfo>
											<lut></lut>
											<lut1></lut1>
											<asc_sop></asc_sop>
											<asc_sat></asc_sat>
											<lut2></lut2>
										</colorinfo>
										<labels>
											<label2>Caribbean</label2>
										</labels>
									</clipitem>
									<enabled>TRUE</enabled>
									<locked>FALSE</locked>
									<filter>
										<effect>
											<name>Audio Levels</name>
											<effectid>audiolevels</effectid>
											<effectcategory>audiolevels</effectcategory>
											<effecttype>audiolevels</effecttype>
											<mediatype>audio</mediatype>
											<parameter authoringApp="PremierePro">
												<parameterid>level</parameterid>
												<name>Level</name>
												<valuemin>0</valuemin>
												<valuemax>3.98109</valuemax>
												<value>0.706272</value>
											</parameter>
										</effect>
									</filter>
									<outputchannelindex>2</outputchannelindex>
								</track>
								<track TL.SQTrackAudioKeyframeStyle="0" TL.SQTrackShy="0" TL.SQTrackExpandedHeight="25" TL.SQTrackExpanded="0" MZ.TrackTargeted="0" PannerCurrentValue="0.5" PannerIsInverted="true" PannerStartKeyframe="-91445760000000000,0.5,0,0,0,0,0,0" PannerName="Balance" currentExplodedTrackIndex="0" totalExplodedTrackCount="2" premiereTrackType="Stereo">
									<enabled>TRUE</enabled>
									<locked>FALSE</locked>
									<outputchannelindex>1</outputchannelindex>
								</track>
								<track TL.SQTrackAudioKeyframeStyle="0" TL.SQTrackShy="0" TL.SQTrackExpandedHeight="25" TL.SQTrackExpanded="0" MZ.TrackTargeted="0" PannerCurrentValue="0.5" PannerIsInverted="true" PannerStartKeyframe="-91445760000000000,0.5,0,0,0,0,0,0" PannerName="Balance" currentExplodedTrackIndex="1" totalExplodedTrackCount="2" premiereTrackType="Stereo">
									<enabled>TRUE</enabled>
									<locked>FALSE</locked>
									<outputchannelindex>2</outputchannelindex>
								</track>
								<track TL.SQTrackAudioKeyframeStyle="0" TL.SQTrackShy="0" TL.SQTrackExpandedHeight="25" TL.SQTrackExpanded="0" MZ.TrackTargeted="0" PannerCurrentValue="0.5" PannerIsInverted="true" PannerStartKeyframe="-91445760000000000,0.5,0,0,0,0,0,0" PannerName="Balance" currentExplodedTrackIndex="0" totalExplodedTrackCount="2" premiereTrackType="Stereo">
									<enabled>TRUE</enabled>
									<locked>FALSE</locked>
									<outputchannelindex>1</outputchannelindex>
								</track>
								<track TL.SQTrackAudioKeyframeStyle="0" TL.SQTrackShy="0" TL.SQTrackExpandedHeight="25" TL.SQTrackExpanded="0" MZ.TrackTargeted="0" PannerCurrentValue="0.5" PannerIsInverted="true" PannerStartKeyframe="-91445760000000000,0.5,0,0,0,0,0,0" PannerName="Balance" currentExplodedTrackIndex="1" totalExplodedTrackCount="2" premiereTrackType="Stereo">
									<enabled>TRUE</enabled>
									<locked>FALSE</locked>
									<outputchannelindex>2</outputchannelindex>
								</track>
								<track TL.SQTrackAudioKeyframeStyle="0" TL.SQTrackShy="0" TL.SQTrackExpandedHeight="25" TL.SQTrackExpanded="0" MZ.TrackTargeted="0" PannerCurrentValue="0.5" PannerIsInverted="true" PannerStartKeyframe="-91445760000000000,0.5,0,0,0,0,0,0" PannerName="Balance" currentExplodedTrackIndex="0" totalExplodedTrackCount="2" premiereTrackType="Stereo">
									<enabled>TRUE</enabled>
									<locked>FALSE</locked>
									<outputchannelindex>1</outputchannelindex>
								</track>
								<track TL.SQTrackAudioKeyframeStyle="0" TL.SQTrackShy="0" TL.SQTrackExpandedHeight="25" TL.SQTrackExpanded="0" MZ.TrackTargeted="0" PannerCurrentValue="0.5" PannerIsInverted="true" PannerStartKeyframe="-91445760000000000,0.5,0,0,0,0,0,0" PannerName="Balance" currentExplodedTrackIndex="1" totalExplodedTrackCount="2" premiereTrackType="Stereo">
									<enabled>TRUE</enabled>
									<locked>FALSE</locked>
									<outputchannelindex>2</outputchannelindex>
								</track>
								<track TL.SQTrackAudioKeyframeStyle="0" TL.SQTrackShy="0" TL.SQTrackExpandedHeight="25" TL.SQTrackExpanded="0" MZ.TrackTargeted="0" PannerCurrentValue="0.5" PannerIsInverted="true" PannerStartKeyframe="-91445760000000000,0.5,0,0,0,0,0,0" PannerName="Balance" currentExplodedTrackIndex="0" totalExplodedTrackCount="2" premiereTrackType="Stereo">
									<enabled>TRUE</enabled>
									<locked>FALSE</locked>
									<outputchannelindex>1</outputchannelindex>
								</track>
								<track TL.SQTrackAudioKeyframeStyle="0" TL.SQTrackShy="0" TL.SQTrackExpandedHeight="25" TL.SQTrackExpanded="0" MZ.TrackTargeted="0" PannerCurrentValue="0.5" PannerIsInverted="true" PannerStartKeyframe="-91445760000000000,0.5,0,0,0,0,0,0" PannerName="Balance" currentExplodedTrackIndex="1" totalExplodedTrackCount="2" premiereTrackType="Stereo">
									<enabled>TRUE</enabled>
									<locked>FALSE</locked>
									<outputchannelindex>2</outputchannelindex>
								</track>
								<track TL.SQTrackAudioKeyframeStyle="0" TL.SQTrackShy="0" TL.SQTrackExpandedHeight="25" TL.SQTrackExpanded="0" MZ.TrackTargeted="0" PannerCurrentValue="0.5" PannerIsInverted="true" PannerStartKeyframe="-91445760000000000,0.5,0,0,0,0,0,0" PannerName="Balance" currentExplodedTrackIndex="0" totalExplodedTrackCount="2" premiereTrackType="Stereo">
									<enabled>TRUE</enabled>
									<locked>FALSE</locked>
									<outputchannelindex>1</outputchannelindex>
								</track>
								<track TL.SQTrackAudioKeyframeStyle="0" TL.SQTrackShy="0" TL.SQTrackExpandedHeight="25" TL.SQTrackExpanded="0" MZ.TrackTargeted="0" PannerCurrentValue="0.5" PannerIsInverted="true" PannerStartKeyframe="-91445760000000000,0.5,0,0,0,0,0,0" PannerName="Balance" currentExplodedTrackIndex="1" totalExplodedTrackCount="2" premiereTrackType="Stereo">
									<enabled>TRUE</enabled>
									<locked>FALSE</locked>
									<outputchannelindex>2</outputchannelindex>
								</track>
								<track TL.SQTrackAudioKeyframeStyle="0" TL.SQTrackShy="0" TL.SQTrackExpandedHeight="25" TL.SQTrackExpanded="0" MZ.TrackTargeted="0" PannerCurrentValue="0.5" PannerIsInverted="true" PannerStartKeyframe="-91445760000000000,0.5,0,0,0,0,0,0" PannerName="Balance" currentExplodedTrackIndex="0" totalExplodedTrackCount="2" premiereTrackType="Stereo">
									<enabled>TRUE</enabled>
									<locked>FALSE</locked>
									<outputchannelindex>1</outputchannelindex>
								</track>
								<track TL.SQTrackAudioKeyframeStyle="0" TL.SQTrackShy="0" TL.SQTrackExpandedHeight="25" TL.SQTrackExpanded="0" MZ.TrackTargeted="0" PannerCurrentValue="0.5" PannerIsInverted="true" PannerStartKeyframe="-91445760000000000,0.5,0,0,0,0,0,0" PannerName="Balance" currentExplodedTrackIndex="1" totalExplodedTrackCount="2" premiereTrackType="Stereo">
									<enabled>TRUE</enabled>
									<locked>FALSE</locked>
									<outputchannelindex>2</outputchannelindex>
								</track>
								<track TL.SQTrackAudioKeyframeStyle="0" TL.SQTrackShy="0" TL.SQTrackExpandedHeight="25" TL.SQTrackExpanded="0" MZ.TrackTargeted="0" PannerCurrentValue="0.5" PannerIsInverted="true" PannerStartKeyframe="-91445760000000000,0.5,0,0,0,0,0,0" PannerName="Balance" currentExplodedTrackIndex="0" totalExplodedTrackCount="2" premiereTrackType="Stereo">
									<enabled>TRUE</enabled>
									<locked>FALSE</locked>
									<outputchannelindex>1</outputchannelindex>
								</track>
								<track TL.SQTrackAudioKeyframeStyle="0" TL.SQTrackShy="0" TL.SQTrackExpandedHeight="25" TL.SQTrackExpanded="0" MZ.TrackTargeted="0" PannerCurrentValue="0.5" PannerIsInverted="true" PannerStartKeyframe="-91445760000000000,0.5,0,0,0,0,0,0" PannerName="Balance" currentExplodedTrackIndex="1" totalExplodedTrackCount="2" premiereTrackType="Stereo">
									<enabled>TRUE</enabled>
									<locked>FALSE</locked>
									<outputchannelindex>2</outputchannelindex>
								</track>
								<track TL.SQTrackAudioKeyframeStyle="0" TL.SQTrackShy="0" TL.SQTrackExpandedHeight="25" TL.SQTrackExpanded="0" MZ.TrackTargeted="0" PannerCurrentValue="0.5" PannerIsInverted="true" PannerStartKeyframe="-91445760000000000,0.5,0,0,0,0,0,0" PannerName="Balance" currentExplodedTrackIndex="0" totalExplodedTrackCount="2" premiereTrackType="Stereo">
									<enabled>TRUE</enabled>
									<locked>FALSE</locked>
									<outputchannelindex>1</outputchannelindex>
								</track>
								<track TL.SQTrackAudioKeyframeStyle="0" TL.SQTrackShy="0" TL.SQTrackExpandedHeight="25" TL.SQTrackExpanded="0" MZ.TrackTargeted="0" PannerCurrentValue="0.5" PannerIsInverted="true" PannerStartKeyframe="-91445760000000000,0.5,0,0,0,0,0,0" PannerName="Balance" currentExplodedTrackIndex="1" totalExplodedTrackCount="2" premiereTrackType="Stereo">
									<enabled>TRUE</enabled>
									<locked>FALSE</locked>
									<outputchannelindex>2</outputchannelindex>
								</track>
								<track TL.SQTrackAudioKeyframeStyle="0" TL.SQTrackShy="0" TL.SQTrackExpandedHeight="25" TL.SQTrackExpanded="0" MZ.TrackTargeted="0" PannerCurrentValue="0.5" PannerIsInverted="true" PannerStartKeyframe="-91445760000000000,0.5,0,0,0,0,0,0" PannerName="Balance" currentExplodedTrackIndex="0" totalExplodedTrackCount="2" premiereTrackType="Stereo">
									<enabled>TRUE</enabled>
									<locked>FALSE</locked>
									<outputchannelindex>1</outputchannelindex>
								</track>
								<track TL.SQTrackAudioKeyframeStyle="0" TL.SQTrackShy="0" TL.SQTrackExpandedHeight="25" TL.SQTrackExpanded="0" MZ.TrackTargeted="0" PannerCurrentValue="0.5" PannerIsInverted="true" PannerStartKeyframe="-91445760000000000,0.5,0,0,0,0,0,0" PannerName="Balance" currentExplodedTrackIndex="1" totalExplodedTrackCount="2" premiereTrackType="Stereo">
									<enabled>TRUE</enabled>
									<locked>FALSE</locked>
									<outputchannelindex>2</outputchannelindex>
								</track>
							</audio>
						</media>
						<timecode>
							<rate>
								<timebase>30</timebase>
								<ntsc>TRUE</ntsc>
							</rate>
							<string>00;00;00;00</string>
							<frame>0</frame>
							<displayformat>DF</displayformat>
						</timecode>
						<labels>
							<label2>Forest</label2>
						</labels>
						<logginginfo>
							<description></description>
							<scene></scene>
							<shottake></shottake>
							<lognote></lognote>
							<good></good>
							<originalvideofilename></originalvideofilename>
							<originalaudiofilename></originalaudiofilename>
						</logginginfo>
					</sequence>
					<bin>
						<name>blurred nests</name>
						<labels>
							<label2>Mango</label2>
						</labels>
						<children>
<sequence id="sequence-5"/>
<sequence id="sequence-3"/>
<sequence id="sequence-19"/>
						</children>
					</bin>
				</children>
			</bin>
			<bin>
				<name>4_Template Assets</name>
				<labels>
					<label2>Mango</label2>
				</labels>
				<children>
					<bin>
						<name>Bugs</name>
						<labels>
							<label2>Mango</label2>
						</labels>
						<children>
							<clip id="masterclip-206" explodedTracks="true">
								<uuid>9ac9699b-cf67-413d-8167-f093939827a5</uuid>
								<masterclipid>masterclip-206</masterclipid>
								<ismasterclip>TRUE</ismasterclip>
								<duration>150</duration>
								<rate>
									<timebase>30</timebase>
									<ntsc>TRUE</ntsc>
								</rate>
								<in>0</in>
								<out>149</out>
								<name>ATM BUG_1080_Lower Left.png</name>
								<media>
									<video>
										<track>
											<clipitem id="clipitem-683">
												<masterclipid>masterclip-206</masterclipid>
												<name>ATM BUG_1080_Lower Left.png</name>
												<rate>
													<timebase>30</timebase>
													<ntsc>TRUE</ntsc>
												</rate>
												<alphatype>straight</alphatype>
												<pixelaspectratio>square</pixelaspectratio>
												<anamorphic>FALSE</anamorphic>
												<file id="file-203">
													<name>ATM BUG_1080_Lower Left.png</name>
													<pathurl>file://localhost/Volumes/ATM%201/EYE%20CANDY/Project%20Template/5_Assets/ATM%20Bug%20Box/ATM%20BUG_1080_Lower%20Left.png</pathurl>
													<rate>
														<timebase>30</timebase>
														<ntsc>TRUE</ntsc>
													</rate>
													<timecode>
														<rate>
															<timebase>30</timebase>
															<ntsc>TRUE</ntsc>
														</rate>
														<string>00:00:00:00</string>
														<frame>0</frame>
														<displayformat>NDF</displayformat>
													</timecode>
													<media>
														<video>
															<samplecharacteristics>
																<rate>
																	<timebase>30</timebase>
																	<ntsc>TRUE</ntsc>
																</rate>
																<width>1920</width>
																<height>1080</height>
																<anamorphic>FALSE</anamorphic>
																<pixelaspectratio>square</pixelaspectratio>
																<fielddominance>none</fielddominance>
															</samplecharacteristics>
														</video>
													</media>
												</file>
											</clipitem>
										</track>
									</video>
								</media>
								<logginginfo>
									<description></description>
									<scene></scene>
									<shottake></shottake>
									<lognote></lognote>
									<good></good>
									<originalvideofilename></originalvideofilename>
									<originalaudiofilename></originalaudiofilename>
								</logginginfo>
								<colorinfo>
									<lut></lut>
									<lut1></lut1>
									<asc_sop></asc_sop>
									<asc_sat></asc_sat>
									<lut2></lut2>
								</colorinfo>
								<labels>
								</labels>
							</clip>
							<clip id="masterclip-207" explodedTracks="true">
								<uuid>9443e974-b53a-4a0e-954d-8c863576be83</uuid>
								<masterclipid>masterclip-207</masterclipid>
								<ismasterclip>TRUE</ismasterclip>
								<duration>150</duration>
								<rate>
									<timebase>30</timebase>
									<ntsc>TRUE</ntsc>
								</rate>
								<in>0</in>
								<out>149</out>
								<name>ATM BUG_1080_Lower Right.png</name>
								<media>
									<video>
										<track>
											<clipitem id="clipitem-684">
												<masterclipid>masterclip-207</masterclipid>
												<name>ATM BUG_1080_Lower Right.png</name>
												<rate>
													<timebase>30</timebase>
													<ntsc>TRUE</ntsc>
												</rate>
												<alphatype>straight</alphatype>
												<pixelaspectratio>square</pixelaspectratio>
												<anamorphic>FALSE</anamorphic>
												<file id="file-204">
													<name>ATM BUG_1080_Lower Right.png</name>
													<pathurl>file://localhost/Volumes/ATM%201/EYE%20CANDY/Project%20Template/5_Assets/ATM%20Bug%20Box/ATM%20BUG_1080_Lower%20Right.png</pathurl>
													<rate>
														<timebase>30</timebase>
														<ntsc>TRUE</ntsc>
													</rate>
													<timecode>
														<rate>
															<timebase>30</timebase>
															<ntsc>TRUE</ntsc>
														</rate>
														<string>00:00:00:00</string>
														<frame>0</frame>
														<displayformat>NDF</displayformat>
													</timecode>
													<media>
														<video>
															<samplecharacteristics>
																<rate>
																	<timebase>30</timebase>
																	<ntsc>TRUE</ntsc>
																</rate>
																<width>1920</width>
																<height>1080</height>
																<anamorphic>FALSE</anamorphic>
																<pixelaspectratio>square</pixelaspectratio>
																<fielddominance>none</fielddominance>
															</samplecharacteristics>
														</video>
													</media>
												</file>
											</clipitem>
										</track>
									</video>
								</media>
								<logginginfo>
									<description></description>
									<scene></scene>
									<shottake></shottake>
									<lognote></lognote>
									<good></good>
									<originalvideofilename></originalvideofilename>
									<originalaudiofilename></originalaudiofilename>
								</logginginfo>
								<colorinfo>
									<lut></lut>
									<lut1></lut1>
									<asc_sop></asc_sop>
									<asc_sat></asc_sat>
									<lut2></lut2>
								</colorinfo>
								<labels>
								</labels>
							</clip>
							<clip id="masterclip-208" explodedTracks="true">
								<uuid>9d0d2925-7928-46dd-a8ad-bd634a35377f</uuid>
								<masterclipid>masterclip-208</masterclipid>
								<ismasterclip>TRUE</ismasterclip>
								<duration>150</duration>
								<rate>
									<timebase>30</timebase>
									<ntsc>TRUE</ntsc>
								</rate>
								<in>0</in>
								<out>149</out>
								<name>ATM BUG_1080_Top Left.png</name>
								<media>
									<video>
										<track>
											<clipitem id="clipitem-685">
												<masterclipid>masterclip-208</masterclipid>
												<name>ATM BUG_1080_Top Left.png</name>
												<rate>
													<timebase>30</timebase>
													<ntsc>TRUE</ntsc>
												</rate>
												<alphatype>straight</alphatype>
												<pixelaspectratio>square</pixelaspectratio>
												<anamorphic>FALSE</anamorphic>
												<file id="file-205">
													<name>ATM BUG_1080_Top Left.png</name>
													<pathurl>file://localhost/Volumes/ATM%201/EYE%20CANDY/Project%20Template/5_Assets/ATM%20Bug%20Box/ATM%20BUG_1080_Top%20Left.png</pathurl>
													<rate>
														<timebase>30</timebase>
														<ntsc>TRUE</ntsc>
													</rate>
													<timecode>
														<rate>
															<timebase>30</timebase>
															<ntsc>TRUE</ntsc>
														</rate>
														<string>00:00:00:00</string>
														<frame>0</frame>
														<displayformat>NDF</displayformat>
													</timecode>
													<media>
														<video>
															<samplecharacteristics>
																<rate>
																	<timebase>30</timebase>
																	<ntsc>TRUE</ntsc>
																</rate>
																<width>1920</width>
																<height>1080</height>
																<anamorphic>FALSE</anamorphic>
																<pixelaspectratio>square</pixelaspectratio>
																<fielddominance>none</fielddominance>
															</samplecharacteristics>
														</video>
													</media>
												</file>
											</clipitem>
										</track>
									</video>
								</media>
								<logginginfo>
									<description></description>
									<scene></scene>
									<shottake></shottake>
									<lognote></lognote>
									<good></good>
									<originalvideofilename></originalvideofilename>
									<originalaudiofilename></originalaudiofilename>
								</logginginfo>
								<colorinfo>
									<lut></lut>
									<lut1></lut1>
									<asc_sop></asc_sop>
									<asc_sat></asc_sat>
									<lut2></lut2>
								</colorinfo>
								<labels>
								</labels>
							</clip>
							<clip id="masterclip-209" explodedTracks="true">
								<uuid>af14ba10-6872-411e-a678-451642076a42</uuid>
								<masterclipid>masterclip-209</masterclipid>
								<ismasterclip>TRUE</ismasterclip>
								<duration>150</duration>
								<rate>
									<timebase>30</timebase>
									<ntsc>TRUE</ntsc>
								</rate>
								<in>0</in>
								<out>149</out>
								<name>ATM BUG_1080_Top Right.png</name>
								<media>
									<video>
										<track>
											<clipitem id="clipitem-686">
												<masterclipid>masterclip-209</masterclipid>
												<name>ATM BUG_1080_Top Right.png</name>
												<rate>
													<timebase>30</timebase>
													<ntsc>TRUE</ntsc>
												</rate>
												<alphatype>straight</alphatype>
												<pixelaspectratio>square</pixelaspectratio>
												<anamorphic>FALSE</anamorphic>
												<file id="file-206">
													<name>ATM BUG_1080_Top Right.png</name>
													<pathurl>file://localhost/Volumes/ATM%201/EYE%20CANDY/Project%20Template/5_Assets/ATM%20Bug%20Box/ATM%20BUG_1080_Top%20Right.png</pathurl>
													<rate>
														<timebase>30</timebase>
														<ntsc>TRUE</ntsc>
													</rate>
													<timecode>
														<rate>
															<timebase>30</timebase>
															<ntsc>TRUE</ntsc>
														</rate>
														<string>00:00:00:00</string>
														<frame>0</frame>
														<displayformat>NDF</displayformat>
													</timecode>
													<media>
														<video>
															<samplecharacteristics>
																<rate>
																	<timebase>30</timebase>
																	<ntsc>TRUE</ntsc>
																</rate>
																<width>1920</width>
																<height>1080</height>
																<anamorphic>FALSE</anamorphic>
																<pixelaspectratio>square</pixelaspectratio>
																<fielddominance>none</fielddominance>
															</samplecharacteristics>
														</video>
													</media>
												</file>
											</clipitem>
										</track>
									</video>
								</media>
								<logginginfo>
									<description></description>
									<scene></scene>
									<shottake></shottake>
									<lognote></lognote>
									<good></good>
									<originalvideofilename></originalvideofilename>
									<originalaudiofilename></originalaudiofilename>
								</logginginfo>
								<colorinfo>
									<lut></lut>
									<lut1></lut1>
									<asc_sop></asc_sop>
									<asc_sat></asc_sat>
									<lut2></lut2>
								</colorinfo>
								<labels>
								</labels>
							</clip>
						</children>
					</bin>
					<bin>
						<name>Attributions</name>
						<children>
							<clip id="masterclip-210" explodedTracks="true">
								<uuid>9f31fed9-9544-431a-bd87-159f0cf9eea9</uuid>
								<masterclipid>masterclip-210</masterclipid>
								<ismasterclip>TRUE</ismasterclip>
								<duration>5844</duration>
								<rate>
									<timebase>30</timebase>
									<ntsc>TRUE</ntsc>
								</rate>
								<name>Attribution Template</name>
								<media>
									<video>
										<track>
											<clipitem id="clipitem-687">
												<masterclipid>masterclip-210</masterclipid>
												<name>Attribution Template</name>
												<rate>
													<timebase>30</timebase>
													<ntsc>TRUE</ntsc>
												</rate>
												<alphatype>straight</alphatype>
												<pixelaspectratio>square</pixelaspectratio>
												<anamorphic>FALSE</anamorphic>
												<file id="file-207">
													<name>1080/AE Attribution.aep</name>
													<pathurl>file://localhost/Volumes/ATM%201/EYE%20CANDY/Project%20Template/5_Assets/AE%20Attribution.aep</pathurl>
													<rate>
														<timebase>30</timebase>
														<ntsc>TRUE</ntsc>
													</rate>
													<duration>5844</duration>
													<timecode>
														<rate>
															<timebase>30</timebase>
															<ntsc>TRUE</ntsc>
														</rate>
														<string>00;00;00;00</string>
														<frame>0</frame>
														<displayformat>DF</displayformat>
													</timecode>
													<media>
														<video>
															<samplecharacteristics>
																<rate>
																	<timebase>30</timebase>
																	<ntsc>TRUE</ntsc>
																</rate>
																<width>1920</width>
																<height>1080</height>
																<anamorphic>FALSE</anamorphic>
																<pixelaspectratio>square</pixelaspectratio>
																<fielddominance>lower</fielddominance>
															</samplecharacteristics>
														</video>
													</media>
												</file>
											</clipitem>
										</track>
									</video>
								</media>
								<logginginfo>
									<description></description>
									<scene></scene>
									<shottake></shottake>
									<lognote></lognote>
									<good></good>
									<originalvideofilename></originalvideofilename>
									<originalaudiofilename></originalaudiofilename>
								</logginginfo>
								<colorinfo>
									<lut></lut>
									<lut1></lut1>
									<asc_sop></asc_sop>
									<asc_sat></asc_sat>
									<lut2></lut2>
								</colorinfo>
								<labels>
									<label2>Rose</label2>
								</labels>
							</clip>
							<clip id="masterclip-188" explodedTracks="true">
								<uuid>edaf10ad-180b-4fb9-b605-494b03c04dc8</uuid>
								<masterclipid>masterclip-188</masterclipid>
								<ismasterclip>TRUE</ismasterclip>
								<duration>5844</duration>
								<rate>
									<timebase>30</timebase>
									<ntsc>TRUE</ntsc>
								</rate>
								<out>357</out>
								<name>Baking With Ryan</name>
								<media>
									<video>
										<track>
											<clipitem id="clipitem-688">
												<masterclipid>masterclip-188</masterclipid>
												<name>Baking With Ryan</name>
												<rate>
													<timebase>30</timebase>
													<ntsc>TRUE</ntsc>
												</rate>
												<alphatype>straight</alphatype>
												<file id="file-186"/>
											</clipitem>
										</track>
									</video>
								</media>
								<logginginfo>
									<description></description>
									<scene></scene>
									<shottake></shottake>
									<lognote></lognote>
									<good></good>
									<originalvideofilename></originalvideofilename>
									<originalaudiofilename></originalaudiofilename>
								</logginginfo>
								<colorinfo>
									<lut></lut>
									<lut1></lut1>
									<asc_sop></asc_sop>
									<asc_sat></asc_sat>
									<lut2></lut2>
								</colorinfo>
								<labels>
									<label2>Rose</label2>
								</labels>
							</clip>
							<clip id="masterclip-203" explodedTracks="true">
								<uuid>9c7803b8-8832-48c5-ae7c-303d07f9922f</uuid>
								<masterclipid>masterclip-203</masterclipid>
								<ismasterclip>TRUE</ismasterclip>
								<duration>5844</duration>
								<rate>
									<timebase>30</timebase>
									<ntsc>TRUE</ntsc>
								</rate>
								<out>357</out>
								<name>Mamagician</name>
								<media>
									<video>
										<track>
											<clipitem id="clipitem-689">
												<masterclipid>masterclip-203</masterclipid>
												<name>Mamagician</name>
												<rate>
													<timebase>30</timebase>
													<ntsc>TRUE</ntsc>
												</rate>
												<alphatype>straight</alphatype>
												<file id="file-200"/>
											</clipitem>
										</track>
									</video>
								</media>
								<logginginfo>
									<description></description>
									<scene></scene>
									<shottake></shottake>
									<lognote></lognote>
									<good></good>
									<originalvideofilename></originalvideofilename>
									<originalaudiofilename></originalaudiofilename>
								</logginginfo>
								<colorinfo>
									<lut></lut>
									<lut1></lut1>
									<asc_sop></asc_sop>
									<asc_sat></asc_sat>
									<lut2></lut2>
								</colorinfo>
								<labels>
									<label2>Rose</label2>
								</labels>
							</clip>
							<clip id="masterclip-175" explodedTracks="true">
								<uuid>8b4ce97c-e8d2-45bd-a0b7-a2ecce11095e</uuid>
								<masterclipid>masterclip-175</masterclipid>
								<ismasterclip>TRUE</ismasterclip>
								<duration>5844</duration>
								<rate>
									<timebase>30</timebase>
									<ntsc>TRUE</ntsc>
								</rate>
								<out>357</out>
								<name>krissharv3y</name>
								<media>
									<video>
										<track>
											<clipitem id="clipitem-690">
												<masterclipid>masterclip-175</masterclipid>
												<name>krissharv3y</name>
												<rate>
													<timebase>30</timebase>
													<ntsc>TRUE</ntsc>
												</rate>
												<alphatype>straight</alphatype>
												<file id="file-173"/>
											</clipitem>
										</track>
									</video>
								</media>
								<logginginfo>
									<description></description>
									<scene></scene>
									<shottake></shottake>
									<lognote></lognote>
									<good></good>
									<originalvideofilename></originalvideofilename>
									<originalaudiofilename></originalaudiofilename>
								</logginginfo>
								<colorinfo>
									<lut></lut>
									<lut1></lut1>
									<asc_sop></asc_sop>
									<asc_sat></asc_sat>
									<lut2></lut2>
								</colorinfo>
								<labels>
									<label2>Rose</label2>
								</labels>
							</clip>
							<clip id="masterclip-172" explodedTracks="true">
								<uuid>d817109f-d473-4d26-a1ad-049bbc6e078a</uuid>
								<masterclipid>masterclip-172</masterclipid>
								<ismasterclip>TRUE</ismasterclip>
								<duration>5844</duration>
								<rate>
									<timebase>30</timebase>
									<ntsc>TRUE</ntsc>
								</rate>
								<out>357</out>
								<name>_sophieskitchen</name>
								<media>
									<video>
										<track>
											<clipitem id="clipitem-691">
												<masterclipid>masterclip-172</masterclipid>
												<name>_sophieskitchen</name>
												<rate>
													<timebase>30</timebase>
													<ntsc>TRUE</ntsc>
												</rate>
												<alphatype>straight</alphatype>
												<file id="file-171"/>
											</clipitem>
										</track>
									</video>
								</media>
								<logginginfo>
									<description></description>
									<scene></scene>
									<shottake></shottake>
									<lognote></lognote>
									<good></good>
									<originalvideofilename></originalvideofilename>
									<originalaudiofilename></originalaudiofilename>
								</logginginfo>
								<colorinfo>
									<lut></lut>
									<lut1></lut1>
									<asc_sop></asc_sop>
									<asc_sat></asc_sat>
									<lut2></lut2>
								</colorinfo>
								<labels>
									<label2>Rose</label2>
								</labels>
							</clip>
							<clip id="masterclip-195" explodedTracks="true">
								<uuid>aa866ef7-bd0a-43be-a2db-4e5234947ba0</uuid>
								<masterclipid>masterclip-195</masterclipid>
								<ismasterclip>TRUE</ismasterclip>
								<duration>5844</duration>
								<rate>
									<timebase>30</timebase>
									<ntsc>TRUE</ntsc>
								</rate>
								<out>357</out>
								<name>Tuba Geçkil</name>
								<media>
									<video>
										<track>
											<clipitem id="clipitem-692">
												<masterclipid>masterclip-195</masterclipid>
												<name>Tuba Geçkil</name>
												<rate>
													<timebase>30</timebase>
													<ntsc>TRUE</ntsc>
												</rate>
												<alphatype>straight</alphatype>
												<file id="file-192"/>
											</clipitem>
										</track>
									</video>
								</media>
								<logginginfo>
									<description></description>
									<scene></scene>
									<shottake></shottake>
									<lognote></lognote>
									<good></good>
									<originalvideofilename></originalvideofilename>
									<originalaudiofilename></originalaudiofilename>
								</logginginfo>
								<colorinfo>
									<lut></lut>
									<lut1></lut1>
									<asc_sop></asc_sop>
									<asc_sat></asc_sat>
									<lut2></lut2>
								</colorinfo>
								<labels>
									<label2>Rose</label2>
								</labels>
							</clip>
							<clip id="masterclip-169" explodedTracks="true">
								<uuid>10a50d94-2685-47ff-b237-a73ec227db9f</uuid>
								<masterclipid>masterclip-169</masterclipid>
								<ismasterclip>TRUE</ismasterclip>
								<duration>5844</duration>
								<rate>
									<timebase>30</timebase>
									<ntsc>TRUE</ntsc>
								</rate>
								<out>357</out>
								<name>Candid Treat</name>
								<media>
									<video>
										<track>
											<clipitem id="clipitem-693">
												<masterclipid>masterclip-169</masterclipid>
												<name>Candid Treat</name>
												<rate>
													<timebase>30</timebase>
													<ntsc>TRUE</ntsc>
												</rate>
												<alphatype>straight</alphatype>
												<file id="file-169"/>
											</clipitem>
										</track>
									</video>
								</media>
								<logginginfo>
									<description></description>
									<scene></scene>
									<shottake></shottake>
									<lognote></lognote>
									<good></good>
									<originalvideofilename></originalvideofilename>
									<originalaudiofilename></originalaudiofilename>
								</logginginfo>
								<colorinfo>
									<lut></lut>
									<lut1></lut1>
									<asc_sop></asc_sop>
									<asc_sat></asc_sat>
									<lut2></lut2>
								</colorinfo>
								<labels>
									<label2>Rose</label2>
								</labels>
							</clip>
							<clip id="masterclip-196" explodedTracks="true">
								<uuid>84b45b88-52bb-494f-84ab-7d540ff21c3f</uuid>
								<masterclipid>masterclip-196</masterclipid>
								<ismasterclip>TRUE</ismasterclip>
								<duration>5844</duration>
								<rate>
									<timebase>30</timebase>
									<ntsc>TRUE</ntsc>
								</rate>
								<out>357</out>
								<name>the.cookieholic</name>
								<media>
									<video>
										<track>
											<clipitem id="clipitem-694">
												<masterclipid>masterclip-196</masterclipid>
												<name>the.cookieholic</name>
												<rate>
													<timebase>30</timebase>
													<ntsc>TRUE</ntsc>
												</rate>
												<alphatype>straight</alphatype>
												<file id="file-193"/>
											</clipitem>
										</track>
									</video>
								</media>
								<logginginfo>
									<description></description>
									<scene></scene>
									<shottake></shottake>
									<lognote></lognote>
									<good></good>
									<originalvideofilename></originalvideofilename>
									<originalaudiofilename></originalaudiofilename>
								</logginginfo>
								<colorinfo>
									<lut></lut>
									<lut1></lut1>
									<asc_sop></asc_sop>
									<asc_sat></asc_sat>
									<lut2></lut2>
								</colorinfo>
								<labels>
									<label2>Rose</label2>
								</labels>
							</clip>
							<clip id="masterclip-197" explodedTracks="true">
								<uuid>70ade5e1-af9b-49b7-badc-8fb3be9d6cdd</uuid>
								<masterclipid>masterclip-197</masterclipid>
								<ismasterclip>TRUE</ismasterclip>
								<duration>5844</duration>
								<rate>
									<timebase>30</timebase>
									<ntsc>TRUE</ntsc>
								</rate>
								<out>357</out>
								<name>allyoucansweet</name>
								<media>
									<video>
										<track>
											<clipitem id="clipitem-695">
												<masterclipid>masterclip-197</masterclipid>
												<name>allyoucansweet</name>
												<rate>
													<timebase>30</timebase>
													<ntsc>TRUE</ntsc>
												</rate>
												<alphatype>straight</alphatype>
												<file id="file-194"/>
											</clipitem>
										</track>
									</video>
								</media>
								<logginginfo>
									<description></description>
									<scene></scene>
									<shottake></shottake>
									<lognote></lognote>
									<good></good>
									<originalvideofilename></originalvideofilename>
									<originalaudiofilename></originalaudiofilename>
								</logginginfo>
								<colorinfo>
									<lut></lut>
									<lut1></lut1>
									<asc_sop></asc_sop>
									<asc_sat></asc_sat>
									<lut2></lut2>
								</colorinfo>
								<labels>
									<label2>Rose</label2>
								</labels>
							</clip>
							<clip id="masterclip-198" explodedTracks="true">
								<uuid>a733aaf5-9347-4124-aacc-355f64da75bd</uuid>
								<masterclipid>masterclip-198</masterclipid>
								<ismasterclip>TRUE</ismasterclip>
								<duration>5844</duration>
								<rate>
									<timebase>30</timebase>
									<ntsc>TRUE</ntsc>
								</rate>
								<out>357</out>
								<name>_glazart</name>
								<media>
									<video>
										<track>
											<clipitem id="clipitem-696">
												<masterclipid>masterclip-198</masterclipid>
												<name>_glazart</name>
												<rate>
													<timebase>30</timebase>
													<ntsc>TRUE</ntsc>
												</rate>
												<alphatype>straight</alphatype>
												<file id="file-195"/>
											</clipitem>
										</track>
									</video>
								</media>
								<logginginfo>
									<description></description>
									<scene></scene>
									<shottake></shottake>
									<lognote></lognote>
									<good></good>
									<originalvideofilename></originalvideofilename>
									<originalaudiofilename></originalaudiofilename>
								</logginginfo>
								<colorinfo>
									<lut></lut>
									<lut1></lut1>
									<asc_sop></asc_sop>
									<asc_sat></asc_sat>
									<lut2></lut2>
								</colorinfo>
								<labels>
									<label2>Rose</label2>
								</labels>
							</clip>
						</children>
					</bin>
					<bin>
						<name>House Ads</name>
						<children>
							<sequence id="sequence-25" TL.SQAudioVisibleBase="0" TL.SQVideoVisibleBase="0" TL.SQVisibleBaseTime="0" TL.SQAVDividerPosition="0.5" TL.SQHideShyTracks="0" TL.SQHeaderWidth="236" Monitor.ProgramZoomOut="2025684460800" Monitor.ProgramZoomIn="0" TL.SQTimePerPixel="0.072184793070258338" MZ.EditLine="0" MZ.Sequence.PreviewFrameSizeHeight="1080" MZ.Sequence.PreviewFrameSizeWidth="1920" MZ.Sequence.AudioTimeDisplayFormat="200" MZ.Sequence.PreviewRenderingClassID="1061109567" MZ.Sequence.PreviewRenderingPresetCodec="1634755443" MZ.Sequence.PreviewRenderingPresetPath="EncoderPresets/SequencePreview/35d109db-457b-43c1-9452-9cb7be9f121c/QuickTime.epr" MZ.Sequence.PreviewUseMaxRenderQuality="false" MZ.Sequence.PreviewUseMaxBitDepth="false" MZ.Sequence.EditingModeGUID="35d109db-457b-43c1-9452-9cb7be9f121c" MZ.Sequence.VideoTimeDisplayFormat="102" MZ.WorkOutPoint="1262874412800" MZ.WorkInPoint="0" explodedTracks="true">
								<uuid>0f2dc618-66ad-4241-97fd-f250ec712fee</uuid>
								<duration>239</duration>
								<rate>
									<timebase>30</timebase>
									<ntsc>TRUE</ntsc>
								</rate>
								<name>Bumper 1</name>
								<media>
									<video>
										<format>
											<samplecharacteristics>
												<rate>
													<timebase>30</timebase>
													<ntsc>TRUE</ntsc>
												</rate>
												<codec>
													<name>Apple ProRes 422</name>
													<appspecificdata>
														<appname>Final Cut Pro</appname>
														<appmanufacturer>Apple Inc.</appmanufacturer>
														<appversion>7.0</appversion>
														<data>
															<qtcodec>
																<codecname>Apple ProRes 422</codecname>
																<codectypename>Apple ProRes 422</codectypename>
																<codectypecode>apcn</codectypecode>
																<codecvendorcode>appl</codecvendorcode>
																<spatialquality>1024</spatialquality>
																<temporalquality>0</temporalquality>
																<keyframerate>0</keyframerate>
																<datarate>0</datarate>
															</qtcodec>
														</data>
													</appspecificdata>
												</codec>
												<width>1920</width>
												<height>1080</height>
												<anamorphic>FALSE</anamorphic>
												<pixelaspectratio>square</pixelaspectratio>
												<fielddominance>none</fielddominance>
												<colordepth>24</colordepth>
											</samplecharacteristics>
										</format>
										<track TL.SQTrackShy="0" TL.SQTrackExpandedHeight="25" TL.SQTrackExpanded="0" MZ.TrackTargeted="1">
											<clipitem id="clipitem-697">
												<masterclipid>masterclip-211</masterclipid>
												<name>ATM_HouseAd_2023_V2.mp4</name>
												<enabled>TRUE</enabled>
												<duration>239</duration>
												<rate>
													<timebase>30</timebase>
													<ntsc>TRUE</ntsc>
												</rate>
												<start>0</start>
												<end>239</end>
												<in>0</in>
												<out>239</out>
												<pproTicksIn>0</pproTicksIn>
												<pproTicksOut>2025684460800</pproTicksOut>
												<alphatype>none</alphatype>
												<pixelaspectratio>square</pixelaspectratio>
												<anamorphic>FALSE</anamorphic>
												<file id="file-208">
													<name>ATM_HouseAd_2023_V2.mp4</name>
													<pathurl>file://localhost/Volumes/ATM%201/EYE%20CANDY/Project%20Template/5_Assets/House%20Ads/ATM_HouseAd_2023_V2.mp4</pathurl>
													<rate>
														<timebase>30</timebase>
														<ntsc>FALSE</ntsc>
													</rate>
													<duration>240</duration>
													<timecode>
														<rate>
															<timebase>30</timebase>
															<ntsc>FALSE</ntsc>
														</rate>
														<string>00:00:00:00</string>
														<frame>0</frame>
														<displayformat>NDF</displayformat>
													</timecode>
													<media>
														<video>
															<samplecharacteristics>
																<rate>
																	<timebase>30</timebase>
																	<ntsc>FALSE</ntsc>
																</rate>
																<width>1920</width>
																<height>1080</height>
																<anamorphic>FALSE</anamorphic>
																<pixelaspectratio>square</pixelaspectratio>
																<fielddominance>none</fielddominance>
															</samplecharacteristics>
														</video>
														<audio>
															<samplecharacteristics>
																<depth>16</depth>
																<samplerate>48000</samplerate>
															</samplecharacteristics>
															<channelcount>2</channelcount>
														</audio>
													</media>
												</file>
												<link>
													<linkclipref>clipitem-697</linkclipref>
													<mediatype>video</mediatype>
													<trackindex>1</trackindex>
													<clipindex>1</clipindex>
												</link>
												<link>
													<linkclipref>clipitem-698</linkclipref>
													<mediatype>audio</mediatype>
													<trackindex>1</trackindex>
													<clipindex>1</clipindex>
													<groupindex>1</groupindex>
												</link>
												<link>
													<linkclipref>clipitem-699</linkclipref>
													<mediatype>audio</mediatype>
													<trackindex>2</trackindex>
													<clipindex>1</clipindex>
													<groupindex>1</groupindex>
												</link>
												<logginginfo>
													<description></description>
													<scene></scene>
													<shottake></shottake>
													<lognote></lognote>
													<good></good>
													<originalvideofilename></originalvideofilename>
													<originalaudiofilename></originalaudiofilename>
												</logginginfo>
												<colorinfo>
													<lut></lut>
													<lut1></lut1>
													<asc_sop></asc_sop>
													<asc_sat></asc_sat>
													<lut2></lut2>
												</colorinfo>
												<labels>
													<label2>Iris</label2>
												</labels>
											</clipitem>
											<enabled>TRUE</enabled>
											<locked>FALSE</locked>
										</track>
									</video>
									<audio>
										<numOutputChannels>2</numOutputChannels>
										<format>
											<samplecharacteristics>
												<depth>16</depth>
												<samplerate>48000</samplerate>
											</samplecharacteristics>
										</format>
										<outputs>
											<group>
												<index>1</index>
												<numchannels>1</numchannels>
												<downmix>0</downmix>
												<channel>
													<index>1</index>
												</channel>
											</group>
											<group>
												<index>2</index>
												<numchannels>1</numchannels>
												<downmix>0</downmix>
												<channel>
													<index>2</index>
												</channel>
											</group>
										</outputs>
										<track TL.SQTrackAudioKeyframeStyle="0" TL.SQTrackShy="0" TL.SQTrackExpandedHeight="25" TL.SQTrackExpanded="0" MZ.TrackTargeted="1" PannerCurrentValue="0.5" PannerIsInverted="true" PannerStartKeyframe="-91445760000000000,0.5,0,0,0,0,0,0" PannerName="Balance" currentExplodedTrackIndex="0" totalExplodedTrackCount="2" premiereTrackType="Stereo">
											<clipitem id="clipitem-698" premiereChannelType="stereo">
												<masterclipid>masterclip-211</masterclipid>
												<name>ATM_HouseAd_2023_V2.mp4</name>
												<enabled>TRUE</enabled>
												<duration>239</duration>
												<rate>
													<timebase>30</timebase>
													<ntsc>TRUE</ntsc>
												</rate>
												<start>0</start>
												<end>239</end>
												<in>0</in>
												<out>239</out>
												<pproTicksIn>0</pproTicksIn>
												<pproTicksOut>2025684460800</pproTicksOut>
												<file id="file-208"/>
												<sourcetrack>
													<mediatype>audio</mediatype>
													<trackindex>1</trackindex>
												</sourcetrack>
												<filter>
													<effect>
														<name>Audio Levels</name>
														<effectid>audiolevels</effectid>
														<effectcategory>audiolevels</effectcategory>
														<effecttype>audiolevels</effecttype>
														<mediatype>audio</mediatype>
														<pproBypass>false</pproBypass>
														<parameter authoringApp="PremierePro">
															<parameterid>level</parameterid>
															<name>Level</name>
															<valuemin>0</valuemin>
															<valuemax>3.98109</valuemax>
															<value>0.354813</value>
														</parameter>
													</effect>
												</filter>
												<link>
													<linkclipref>clipitem-697</linkclipref>
													<mediatype>video</mediatype>
													<trackindex>1</trackindex>
													<clipindex>1</clipindex>
												</link>
												<link>
													<linkclipref>clipitem-698</linkclipref>
													<mediatype>audio</mediatype>
													<trackindex>1</trackindex>
													<clipindex>1</clipindex>
													<groupindex>1</groupindex>
												</link>
												<link>
													<linkclipref>clipitem-699</linkclipref>
													<mediatype>audio</mediatype>
													<trackindex>2</trackindex>
													<clipindex>1</clipindex>
													<groupindex>1</groupindex>
												</link>
												<logginginfo>
													<description></description>
													<scene></scene>
													<shottake></shottake>
													<lognote></lognote>
													<good></good>
													<originalvideofilename></originalvideofilename>
													<originalaudiofilename></originalaudiofilename>
												</logginginfo>
												<colorinfo>
													<lut></lut>
													<lut1></lut1>
													<asc_sop></asc_sop>
													<asc_sat></asc_sat>
													<lut2></lut2>
												</colorinfo>
												<labels>
													<label2>Iris</label2>
												</labels>
											</clipitem>
											<enabled>TRUE</enabled>
											<locked>FALSE</locked>
											<outputchannelindex>1</outputchannelindex>
										</track>
										<track TL.SQTrackAudioKeyframeStyle="0" TL.SQTrackShy="0" TL.SQTrackExpandedHeight="25" TL.SQTrackExpanded="0" MZ.TrackTargeted="1" PannerCurrentValue="0.5" PannerIsInverted="true" PannerStartKeyframe="-91445760000000000,0.5,0,0,0,0,0,0" PannerName="Balance" currentExplodedTrackIndex="1" totalExplodedTrackCount="2" premiereTrackType="Stereo">
											<clipitem id="clipitem-699" premiereChannelType="stereo">
												<masterclipid>masterclip-211</masterclipid>
												<name>ATM_HouseAd_2023_V2.mp4</name>
												<enabled>TRUE</enabled>
												<duration>239</duration>
												<rate>
													<timebase>30</timebase>
													<ntsc>TRUE</ntsc>
												</rate>
												<start>0</start>
												<end>239</end>
												<in>0</in>
												<out>239</out>
												<pproTicksIn>0</pproTicksIn>
												<pproTicksOut>2025684460800</pproTicksOut>
												<file id="file-208"/>
												<sourcetrack>
													<mediatype>audio</mediatype>
													<trackindex>2</trackindex>
												</sourcetrack>
												<filter>
													<effect>
														<name>Audio Levels</name>
														<effectid>audiolevels</effectid>
														<effectcategory>audiolevels</effectcategory>
														<effecttype>audiolevels</effecttype>
														<mediatype>audio</mediatype>
														<pproBypass>false</pproBypass>
														<parameter authoringApp="PremierePro">
															<parameterid>level</parameterid>
															<name>Level</name>
															<valuemin>0</valuemin>
															<valuemax>3.98109</valuemax>
															<value>0.354813</value>
														</parameter>
													</effect>
												</filter>
												<link>
													<linkclipref>clipitem-697</linkclipref>
													<mediatype>video</mediatype>
													<trackindex>1</trackindex>
													<clipindex>1</clipindex>
												</link>
												<link>
													<linkclipref>clipitem-698</linkclipref>
													<mediatype>audio</mediatype>
													<trackindex>1</trackindex>
													<clipindex>1</clipindex>
													<groupindex>1</groupindex>
												</link>
												<link>
													<linkclipref>clipitem-699</linkclipref>
													<mediatype>audio</mediatype>
													<trackindex>2</trackindex>
													<clipindex>1</clipindex>
													<groupindex>1</groupindex>
												</link>
												<logginginfo>
													<description></description>
													<scene></scene>
													<shottake></shottake>
													<lognote></lognote>
													<good></good>
													<originalvideofilename></originalvideofilename>
													<originalaudiofilename></originalaudiofilename>
												</logginginfo>
												<colorinfo>
													<lut></lut>
													<lut1></lut1>
													<asc_sop></asc_sop>
													<asc_sat></asc_sat>
													<lut2></lut2>
												</colorinfo>
												<labels>
													<label2>Iris</label2>
												</labels>
											</clipitem>
											<enabled>TRUE</enabled>
											<locked>FALSE</locked>
											<outputchannelindex>2</outputchannelindex>
										</track>
									</audio>
								</media>
								<timecode>
									<rate>
										<timebase>30</timebase>
										<ntsc>TRUE</ntsc>
									</rate>
									<string>00;00;00;00</string>
									<frame>0</frame>
									<displayformat>DF</displayformat>
								</timecode>
								<labels>
									<label2>Forest</label2>
								</labels>
								<logginginfo>
									<description></description>
									<scene></scene>
									<shottake></shottake>
									<lognote></lognote>
									<good></good>
									<originalvideofilename></originalvideofilename>
									<originalaudiofilename></originalaudiofilename>
								</logginginfo>
							</sequence>
							<sequence id="sequence-26" TL.SQAudioVisibleBase="0" TL.SQVideoVisibleBase="0" TL.SQVisibleBaseTime="0" TL.SQAVDividerPosition="0.5" TL.SQHideShyTracks="0" TL.SQHeaderWidth="236" Monitor.ProgramZoomOut="2534224492800" Monitor.ProgramZoomIn="0" TL.SQTimePerPixel="0.072184793070257783" AM.TrackVScrollPosition="0" AM.TrackScrollPosition="0" MZ.EditLine="1551047097600" MZ.Sequence.PreviewFrameSizeHeight="1080" MZ.Sequence.PreviewFrameSizeWidth="1920" MZ.Sequence.AudioTimeDisplayFormat="200" MZ.Sequence.PreviewRenderingClassID="1061109567" MZ.Sequence.PreviewRenderingPresetCodec="1634755443" MZ.Sequence.PreviewRenderingPresetPath="EncoderPresets/SequencePreview/35d109db-457b-43c1-9452-9cb7be9f121c/QuickTime.epr" MZ.Sequence.PreviewUseMaxRenderQuality="false" MZ.Sequence.PreviewUseMaxBitDepth="false" MZ.Sequence.EditingModeGUID="35d109db-457b-43c1-9452-9cb7be9f121c" MZ.Sequence.VideoTimeDisplayFormat="102" MZ.WorkOutPoint="1262874412800" MZ.WorkInPoint="0" explodedTracks="true">
								<uuid>df78e4db-e3ec-4708-9541-2bfcb5f29d44</uuid>
								<duration>299</duration>
								<rate>
									<timebase>30</timebase>
									<ntsc>TRUE</ntsc>
								</rate>
								<name>Bumper 2</name>
								<media>
									<video>
										<format>
											<samplecharacteristics>
												<rate>
													<timebase>30</timebase>
													<ntsc>TRUE</ntsc>
												</rate>
												<codec>
													<name>Apple ProRes 422</name>
													<appspecificdata>
														<appname>Final Cut Pro</appname>
														<appmanufacturer>Apple Inc.</appmanufacturer>
														<appversion>7.0</appversion>
														<data>
															<qtcodec>
																<codecname>Apple ProRes 422</codecname>
																<codectypename>Apple ProRes 422</codectypename>
																<codectypecode>apcn</codectypecode>
																<codecvendorcode>appl</codecvendorcode>
																<spatialquality>1024</spatialquality>
																<temporalquality>0</temporalquality>
																<keyframerate>0</keyframerate>
																<datarate>0</datarate>
															</qtcodec>
														</data>
													</appspecificdata>
												</codec>
												<width>1920</width>
												<height>1080</height>
												<anamorphic>FALSE</anamorphic>
												<pixelaspectratio>square</pixelaspectratio>
												<fielddominance>none</fielddominance>
												<colordepth>24</colordepth>
											</samplecharacteristics>
										</format>
										<track TL.SQTrackShy="0" TL.SQTrackExpandedHeight="25" TL.SQTrackExpanded="0" MZ.TrackTargeted="1">
											<clipitem id="clipitem-700">
												<masterclipid>masterclip-212</masterclipid>
												<name>ATM_YouAreWatching.mp4</name>
												<enabled>TRUE</enabled>
												<duration>299</duration>
												<rate>
													<timebase>30</timebase>
													<ntsc>TRUE</ntsc>
												</rate>
												<start>0</start>
												<end>299</end>
												<in>0</in>
												<out>299</out>
												<pproTicksIn>0</pproTicksIn>
												<pproTicksOut>2534224492800</pproTicksOut>
												<alphatype>none</alphatype>
												<pixelaspectratio>square</pixelaspectratio>
												<anamorphic>FALSE</anamorphic>
												<file id="file-209">
													<name>ATM_YouAreWatching.mp4</name>
													<pathurl>file://localhost/Volumes/ATM%201/EYE%20CANDY/Project%20Template/5_Assets/House%20Ads/ATM_YouAreWatching.mp4</pathurl>
													<rate>
														<timebase>30</timebase>
														<ntsc>FALSE</ntsc>
													</rate>
													<duration>300</duration>
													<timecode>
														<rate>
															<timebase>30</timebase>
															<ntsc>FALSE</ntsc>
														</rate>
														<string>00:00:00:00</string>
														<frame>0</frame>
														<displayformat>NDF</displayformat>
													</timecode>
													<media>
														<video>
															<samplecharacteristics>
																<rate>
																	<timebase>30</timebase>
																	<ntsc>FALSE</ntsc>
																</rate>
																<width>1920</width>
																<height>1080</height>
																<anamorphic>FALSE</anamorphic>
																<pixelaspectratio>square</pixelaspectratio>
																<fielddominance>none</fielddominance>
															</samplecharacteristics>
														</video>
														<audio>
															<samplecharacteristics>
																<depth>16</depth>
																<samplerate>48000</samplerate>
															</samplecharacteristics>
															<channelcount>2</channelcount>
														</audio>
													</media>
												</file>
												<link>
													<linkclipref>clipitem-700</linkclipref>
													<mediatype>video</mediatype>
													<trackindex>1</trackindex>
													<clipindex>1</clipindex>
												</link>
												<link>
													<linkclipref>clipitem-701</linkclipref>
													<mediatype>audio</mediatype>
													<trackindex>1</trackindex>
													<clipindex>1</clipindex>
													<groupindex>1</groupindex>
												</link>
												<link>
													<linkclipref>clipitem-702</linkclipref>
													<mediatype>audio</mediatype>
													<trackindex>2</trackindex>
													<clipindex>1</clipindex>
													<groupindex>1</groupindex>
												</link>
												<logginginfo>
													<description></description>
													<scene></scene>
													<shottake></shottake>
													<lognote></lognote>
													<good></good>
													<originalvideofilename></originalvideofilename>
													<originalaudiofilename></originalaudiofilename>
												</logginginfo>
												<colorinfo>
													<lut></lut>
													<lut1></lut1>
													<asc_sop></asc_sop>
													<asc_sat></asc_sat>
													<lut2></lut2>
												</colorinfo>
											</clipitem>
											<enabled>TRUE</enabled>
											<locked>FALSE</locked>
										</track>
									</video>
									<audio>
										<numOutputChannels>2</numOutputChannels>
										<format>
											<samplecharacteristics>
												<depth>16</depth>
												<samplerate>48000</samplerate>
											</samplecharacteristics>
										</format>
										<outputs>
											<group>
												<index>1</index>
												<numchannels>1</numchannels>
												<downmix>0</downmix>
												<channel>
													<index>1</index>
												</channel>
											</group>
											<group>
												<index>2</index>
												<numchannels>1</numchannels>
												<downmix>0</downmix>
												<channel>
													<index>2</index>
												</channel>
											</group>
										</outputs>
										<track TL.SQTrackAudioKeyframeStyle="0" TL.SQTrackShy="0" TL.SQTrackExpandedHeight="25" TL.SQTrackExpanded="0" MZ.TrackTargeted="1" PannerCurrentValue="0.5" PannerIsInverted="true" PannerStartKeyframe="-91445760000000000,0.5,0,0,0,0,0,0" PannerName="Balance" currentExplodedTrackIndex="0" totalExplodedTrackCount="2" premiereTrackType="Stereo">
											<clipitem id="clipitem-701" premiereChannelType="stereo">
												<masterclipid>masterclip-212</masterclipid>
												<name>ATM_YouAreWatching.mp4</name>
												<enabled>TRUE</enabled>
												<duration>299</duration>
												<rate>
													<timebase>30</timebase>
													<ntsc>TRUE</ntsc>
												</rate>
												<start>0</start>
												<end>299</end>
												<in>0</in>
												<out>299</out>
												<pproTicksIn>0</pproTicksIn>
												<pproTicksOut>2534224492800</pproTicksOut>
												<file id="file-209"/>
												<sourcetrack>
													<mediatype>audio</mediatype>
													<trackindex>1</trackindex>
												</sourcetrack>
												<filter>
													<effect>
														<name>Audio Levels</name>
														<effectid>audiolevels</effectid>
														<effectcategory>audiolevels</effectcategory>
														<effecttype>audiolevels</effecttype>
														<mediatype>audio</mediatype>
														<pproBypass>false</pproBypass>
														<parameter authoringApp="PremierePro">
															<parameterid>level</parameterid>
															<name>Level</name>
															<valuemin>0</valuemin>
															<valuemax>3.98109</valuemax>
															<value>0.354813</value>
														</parameter>
													</effect>
												</filter>
												<link>
													<linkclipref>clipitem-700</linkclipref>
													<mediatype>video</mediatype>
													<trackindex>1</trackindex>
													<clipindex>1</clipindex>
												</link>
												<link>
													<linkclipref>clipitem-701</linkclipref>
													<mediatype>audio</mediatype>
													<trackindex>1</trackindex>
													<clipindex>1</clipindex>
													<groupindex>1</groupindex>
												</link>
												<link>
													<linkclipref>clipitem-702</linkclipref>
													<mediatype>audio</mediatype>
													<trackindex>2</trackindex>
													<clipindex>1</clipindex>
													<groupindex>1</groupindex>
												</link>
												<logginginfo>
													<description></description>
													<scene></scene>
													<shottake></shottake>
													<lognote></lognote>
													<good></good>
													<originalvideofilename></originalvideofilename>
													<originalaudiofilename></originalaudiofilename>
												</logginginfo>
												<colorinfo>
													<lut></lut>
													<lut1></lut1>
													<asc_sop></asc_sop>
													<asc_sat></asc_sat>
													<lut2></lut2>
												</colorinfo>
											</clipitem>
											<enabled>TRUE</enabled>
											<locked>FALSE</locked>
											<outputchannelindex>1</outputchannelindex>
										</track>
										<track TL.SQTrackAudioKeyframeStyle="0" TL.SQTrackShy="0" TL.SQTrackExpandedHeight="25" TL.SQTrackExpanded="0" MZ.TrackTargeted="1" PannerCurrentValue="0.5" PannerIsInverted="true" PannerStartKeyframe="-91445760000000000,0.5,0,0,0,0,0,0" PannerName="Balance" currentExplodedTrackIndex="1" totalExplodedTrackCount="2" premiereTrackType="Stereo">
											<clipitem id="clipitem-702" premiereChannelType="stereo">
												<masterclipid>masterclip-212</masterclipid>
												<name>ATM_YouAreWatching.mp4</name>
												<enabled>TRUE</enabled>
												<duration>299</duration>
												<rate>
													<timebase>30</timebase>
													<ntsc>TRUE</ntsc>
												</rate>
												<start>0</start>
												<end>299</end>
												<in>0</in>
												<out>299</out>
												<pproTicksIn>0</pproTicksIn>
												<pproTicksOut>2534224492800</pproTicksOut>
												<file id="file-209"/>
												<sourcetrack>
													<mediatype>audio</mediatype>
													<trackindex>2</trackindex>
												</sourcetrack>
												<filter>
													<effect>
														<name>Audio Levels</name>
														<effectid>audiolevels</effectid>
														<effectcategory>audiolevels</effectcategory>
														<effecttype>audiolevels</effecttype>
														<mediatype>audio</mediatype>
														<pproBypass>false</pproBypass>
														<parameter authoringApp="PremierePro">
															<parameterid>level</parameterid>
															<name>Level</name>
															<valuemin>0</valuemin>
															<valuemax>3.98109</valuemax>
															<value>0.354813</value>
														</parameter>
													</effect>
												</filter>
												<link>
													<linkclipref>clipitem-700</linkclipref>
													<mediatype>video</mediatype>
													<trackindex>1</trackindex>
													<clipindex>1</clipindex>
												</link>
												<link>
													<linkclipref>clipitem-701</linkclipref>
													<mediatype>audio</mediatype>
													<trackindex>1</trackindex>
													<clipindex>1</clipindex>
													<groupindex>1</groupindex>
												</link>
												<link>
													<linkclipref>clipitem-702</linkclipref>
													<mediatype>audio</mediatype>
													<trackindex>2</trackindex>
													<clipindex>1</clipindex>
													<groupindex>1</groupindex>
												</link>
												<logginginfo>
													<description></description>
													<scene></scene>
													<shottake></shottake>
													<lognote></lognote>
													<good></good>
													<originalvideofilename></originalvideofilename>
													<originalaudiofilename></originalaudiofilename>
												</logginginfo>
												<colorinfo>
													<lut></lut>
													<lut1></lut1>
													<asc_sop></asc_sop>
													<asc_sat></asc_sat>
													<lut2></lut2>
												</colorinfo>
											</clipitem>
											<enabled>TRUE</enabled>
											<locked>FALSE</locked>
											<outputchannelindex>2</outputchannelindex>
										</track>
									</audio>
								</media>
								<timecode>
									<rate>
										<timebase>30</timebase>
										<ntsc>TRUE</ntsc>
									</rate>
									<string>00;00;00;00</string>
									<frame>0</frame>
									<displayformat>DF</displayformat>
								</timecode>
								<labels>
									<label2>Forest</label2>
								</labels>
								<logginginfo>
									<description></description>
									<scene></scene>
									<shottake></shottake>
									<lognote></lognote>
									<good></good>
									<originalvideofilename></originalvideofilename>
									<originalaudiofilename></originalaudiofilename>
								</logginginfo>
							</sequence>
							<bin>
								<name>Raw Bumpers</name>
								<children>
									<clip id="masterclip-211" explodedTracks="true">
										<uuid>ba1a9bc9-18c4-40be-b43a-011ef793361b</uuid>
										<masterclipid>masterclip-211</masterclipid>
										<ismasterclip>TRUE</ismasterclip>
										<duration>240</duration>
										<rate>
											<timebase>30</timebase>
											<ntsc>FALSE</ntsc>
										</rate>
										<name>ATM_HouseAd_2023_V2.mp4</name>
										<media>
											<video>
												<track>
													<clipitem id="clipitem-703">
														<masterclipid>masterclip-211</masterclipid>
														<name>ATM_HouseAd_2023_V2.mp4</name>
														<rate>
															<timebase>30</timebase>
															<ntsc>FALSE</ntsc>
														</rate>
														<alphatype>none</alphatype>
														<file id="file-208"/>
														<link>
															<linkclipref>clipitem-703</linkclipref>
															<mediatype>video</mediatype>
															<trackindex>1</trackindex>
															<clipindex>1</clipindex>
														</link>
														<link>
															<linkclipref>clipitem-704</linkclipref>
															<mediatype>audio</mediatype>
															<trackindex>1</trackindex>
															<clipindex>1</clipindex>
															<groupindex>1</groupindex>
														</link>
														<link>
															<linkclipref>clipitem-705</linkclipref>
															<mediatype>audio</mediatype>
															<trackindex>2</trackindex>
															<clipindex>1</clipindex>
															<groupindex>1</groupindex>
														</link>
													</clipitem>
												</track>
											</video>
											<audio>
												<track>
													<clipitem id="clipitem-704">
														<masterclipid>masterclip-211</masterclipid>
														<name>ATM_HouseAd_2023_V2.mp4</name>
														<rate>
															<timebase>30</timebase>
															<ntsc>FALSE</ntsc>
														</rate>
														<file id="file-208"/>
														<sourcetrack>
															<mediatype>audio</mediatype>
															<trackindex>1</trackindex>
														</sourcetrack>
														<link>
															<linkclipref>clipitem-703</linkclipref>
															<mediatype>video</mediatype>
															<trackindex>1</trackindex>
															<clipindex>1</clipindex>
														</link>
														<link>
															<linkclipref>clipitem-704</linkclipref>
															<mediatype>audio</mediatype>
															<trackindex>1</trackindex>
															<clipindex>1</clipindex>
															<groupindex>1</groupindex>
														</link>
														<link>
															<linkclipref>clipitem-705</linkclipref>
															<mediatype>audio</mediatype>
															<trackindex>2</trackindex>
															<clipindex>1</clipindex>
															<groupindex>1</groupindex>
														</link>
													</clipitem>
												</track>
												<track>
													<clipitem id="clipitem-705">
														<masterclipid>masterclip-211</masterclipid>
														<name>ATM_HouseAd_2023_V2.mp4</name>
														<rate>
															<timebase>30</timebase>
															<ntsc>FALSE</ntsc>
														</rate>
														<file id="file-208"/>
														<sourcetrack>
															<mediatype>audio</mediatype>
															<trackindex>2</trackindex>
														</sourcetrack>
														<link>
															<linkclipref>clipitem-703</linkclipref>
															<mediatype>video</mediatype>
															<trackindex>1</trackindex>
															<clipindex>1</clipindex>
														</link>
														<link>
															<linkclipref>clipitem-704</linkclipref>
															<mediatype>audio</mediatype>
															<trackindex>1</trackindex>
															<clipindex>1</clipindex>
															<groupindex>1</groupindex>
														</link>
														<link>
															<linkclipref>clipitem-705</linkclipref>
															<mediatype>audio</mediatype>
															<trackindex>2</trackindex>
															<clipindex>1</clipindex>
															<groupindex>1</groupindex>
														</link>
													</clipitem>
												</track>
											</audio>
										</media>
										<logginginfo>
											<description></description>
											<scene></scene>
											<shottake></shottake>
											<lognote></lognote>
											<good></good>
											<originalvideofilename></originalvideofilename>
											<originalaudiofilename></originalaudiofilename>
										</logginginfo>
										<colorinfo>
											<lut></lut>
											<lut1></lut1>
											<asc_sop></asc_sop>
											<asc_sat></asc_sat>
											<lut2></lut2>
										</colorinfo>
										<labels>
											<label2>Iris</label2>
										</labels>
									</clip>
									<clip id="masterclip-212" explodedTracks="true">
										<uuid>91090985-1cc6-4750-b578-2add3344e5d5</uuid>
										<masterclipid>masterclip-212</masterclipid>
										<ismasterclip>TRUE</ismasterclip>
										<duration>300</duration>
										<rate>
											<timebase>30</timebase>
											<ntsc>FALSE</ntsc>
										</rate>
										<name>ATM_YouAreWatching.mp4</name>
										<media>
											<video>
												<track>
													<clipitem id="clipitem-706">
														<masterclipid>masterclip-212</masterclipid>
														<name>ATM_YouAreWatching.mp4</name>
														<rate>
															<timebase>30</timebase>
															<ntsc>FALSE</ntsc>
														</rate>
														<alphatype>none</alphatype>
														<file id="file-209"/>
														<link>
															<linkclipref>clipitem-706</linkclipref>
															<mediatype>video</mediatype>
															<trackindex>1</trackindex>
															<clipindex>1</clipindex>
														</link>
														<link>
															<linkclipref>clipitem-707</linkclipref>
															<mediatype>audio</mediatype>
															<trackindex>1</trackindex>
															<clipindex>1</clipindex>
															<groupindex>1</groupindex>
														</link>
														<link>
															<linkclipref>clipitem-708</linkclipref>
															<mediatype>audio</mediatype>
															<trackindex>2</trackindex>
															<clipindex>1</clipindex>
															<groupindex>1</groupindex>
														</link>
													</clipitem>
												</track>
											</video>
											<audio>
												<track>
													<clipitem id="clipitem-707">
														<masterclipid>masterclip-212</masterclipid>
														<name>ATM_YouAreWatching.mp4</name>
														<rate>
															<timebase>30</timebase>
															<ntsc>FALSE</ntsc>
														</rate>
														<file id="file-209"/>
														<sourcetrack>
															<mediatype>audio</mediatype>
															<trackindex>1</trackindex>
														</sourcetrack>
														<link>
															<linkclipref>clipitem-706</linkclipref>
															<mediatype>video</mediatype>
															<trackindex>1</trackindex>
															<clipindex>1</clipindex>
														</link>
														<link>
															<linkclipref>clipitem-707</linkclipref>
															<mediatype>audio</mediatype>
															<trackindex>1</trackindex>
															<clipindex>1</clipindex>
															<groupindex>1</groupindex>
														</link>
														<link>
															<linkclipref>clipitem-708</linkclipref>
															<mediatype>audio</mediatype>
															<trackindex>2</trackindex>
															<clipindex>1</clipindex>
															<groupindex>1</groupindex>
														</link>
													</clipitem>
												</track>
												<track>
													<clipitem id="clipitem-708">
														<masterclipid>masterclip-212</masterclipid>
														<name>ATM_YouAreWatching.mp4</name>
														<rate>
															<timebase>30</timebase>
															<ntsc>FALSE</ntsc>
														</rate>
														<file id="file-209"/>
														<sourcetrack>
															<mediatype>audio</mediatype>
															<trackindex>2</trackindex>
														</sourcetrack>
														<link>
															<linkclipref>clipitem-706</linkclipref>
															<mediatype>video</mediatype>
															<trackindex>1</trackindex>
															<clipindex>1</clipindex>
														</link>
														<link>
															<linkclipref>clipitem-707</linkclipref>
															<mediatype>audio</mediatype>
															<trackindex>1</trackindex>
															<clipindex>1</clipindex>
															<groupindex>1</groupindex>
														</link>
														<link>
															<linkclipref>clipitem-708</linkclipref>
															<mediatype>audio</mediatype>
															<trackindex>2</trackindex>
															<clipindex>1</clipindex>
															<groupindex>1</groupindex>
														</link>
													</clipitem>
												</track>
											</audio>
										</media>
										<logginginfo>
											<description></description>
											<scene></scene>
											<shottake></shottake>
											<lognote></lognote>
											<good></good>
											<originalvideofilename></originalvideofilename>
											<originalaudiofilename></originalaudiofilename>
										</logginginfo>
										<colorinfo>
											<lut></lut>
											<lut1></lut1>
											<asc_sop></asc_sop>
											<asc_sat></asc_sat>
											<lut2></lut2>
										</colorinfo>
										<labels>
										</labels>
									</clip>
									<clip id="masterclip-213" explodedTracks="true">
										<uuid>77a3da05-11a1-4f98-9c80-ec00bd1f4b74</uuid>
										<masterclipid>masterclip-213</masterclipid>
										<ismasterclip>TRUE</ismasterclip>
										<duration>300</duration>
										<rate>
											<timebase>30</timebase>
											<ntsc>FALSE</ntsc>
										</rate>
										<name>ATM_Content Submit QR_Music 2.mp4</name>
										<media>
											<video>
												<track>
													<clipitem id="clipitem-709">
														<masterclipid>masterclip-213</masterclipid>
														<name>ATM_Content Submit QR_Music 2.mp4</name>
														<rate>
															<timebase>30</timebase>
															<ntsc>FALSE</ntsc>
														</rate>
														<alphatype>none</alphatype>
														<pixelaspectratio>square</pixelaspectratio>
														<anamorphic>FALSE</anamorphic>
														<file id="file-210">
															<name>ATM_Content Submit QR_Music 2.mp4</name>
															<pathurl>file://localhost/Volumes/ATM%201/EYE%20CANDY/Project%20Template/5_Assets/House%20Ads/ATM_Content%20Submit%20QR_Music%202.mp4</pathurl>
															<rate>
																<timebase>30</timebase>
																<ntsc>FALSE</ntsc>
															</rate>
															<duration>300</duration>
															<timecode>
																<rate>
																	<timebase>30</timebase>
																	<ntsc>FALSE</ntsc>
																</rate>
																<string>00:00:00:00</string>
																<frame>0</frame>
																<displayformat>NDF</displayformat>
															</timecode>
															<media>
																<video>
																	<samplecharacteristics>
																		<rate>
																			<timebase>30</timebase>
																			<ntsc>FALSE</ntsc>
																		</rate>
																		<width>1920</width>
																		<height>1080</height>
																		<anamorphic>FALSE</anamorphic>
																		<pixelaspectratio>square</pixelaspectratio>
																		<fielddominance>none</fielddominance>
																	</samplecharacteristics>
																</video>
																<audio>
																	<samplecharacteristics>
																		<depth>16</depth>
																		<samplerate>44100</samplerate>
																	</samplecharacteristics>
																	<channelcount>2</channelcount>
																</audio>
															</media>
														</file>
														<link>
															<linkclipref>clipitem-709</linkclipref>
															<mediatype>video</mediatype>
															<trackindex>1</trackindex>
															<clipindex>1</clipindex>
														</link>
														<link>
															<linkclipref>clipitem-710</linkclipref>
															<mediatype>audio</mediatype>
															<trackindex>1</trackindex>
															<clipindex>1</clipindex>
															<groupindex>1</groupindex>
														</link>
														<link>
															<linkclipref>clipitem-711</linkclipref>
															<mediatype>audio</mediatype>
															<trackindex>2</trackindex>
															<clipindex>1</clipindex>
															<groupindex>1</groupindex>
														</link>
													</clipitem>
												</track>
											</video>
											<audio>
												<track>
													<clipitem id="clipitem-710">
														<masterclipid>masterclip-213</masterclipid>
														<name>ATM_Content Submit QR_Music 2.mp4</name>
														<rate>
															<timebase>30</timebase>
															<ntsc>FALSE</ntsc>
														</rate>
														<file id="file-210"/>
														<sourcetrack>
															<mediatype>audio</mediatype>
															<trackindex>1</trackindex>
														</sourcetrack>
														<link>
															<linkclipref>clipitem-709</linkclipref>
															<mediatype>video</mediatype>
															<trackindex>1</trackindex>
															<clipindex>1</clipindex>
														</link>
														<link>
															<linkclipref>clipitem-710</linkclipref>
															<mediatype>audio</mediatype>
															<trackindex>1</trackindex>
															<clipindex>1</clipindex>
															<groupindex>1</groupindex>
														</link>
														<link>
															<linkclipref>clipitem-711</linkclipref>
															<mediatype>audio</mediatype>
															<trackindex>2</trackindex>
															<clipindex>1</clipindex>
															<groupindex>1</groupindex>
														</link>
													</clipitem>
												</track>
												<track>
													<clipitem id="clipitem-711">
														<masterclipid>masterclip-213</masterclipid>
														<name>ATM_Content Submit QR_Music 2.mp4</name>
														<rate>
															<timebase>30</timebase>
															<ntsc>FALSE</ntsc>
														</rate>
														<file id="file-210"/>
														<sourcetrack>
															<mediatype>audio</mediatype>
															<trackindex>2</trackindex>
														</sourcetrack>
														<link>
															<linkclipref>clipitem-709</linkclipref>
															<mediatype>video</mediatype>
															<trackindex>1</trackindex>
															<clipindex>1</clipindex>
														</link>
														<link>
															<linkclipref>clipitem-710</linkclipref>
															<mediatype>audio</mediatype>
															<trackindex>1</trackindex>
															<clipindex>1</clipindex>
															<groupindex>1</groupindex>
														</link>
														<link>
															<linkclipref>clipitem-711</linkclipref>
															<mediatype>audio</mediatype>
															<trackindex>2</trackindex>
															<clipindex>1</clipindex>
															<groupindex>1</groupindex>
														</link>
													</clipitem>
												</track>
											</audio>
										</media>
										<logginginfo>
											<description></description>
											<scene></scene>
											<shottake></shottake>
											<lognote></lognote>
											<good></good>
											<originalvideofilename></originalvideofilename>
											<originalaudiofilename></originalaudiofilename>
										</logginginfo>
										<colorinfo>
											<lut></lut>
											<lut1></lut1>
											<asc_sop></asc_sop>
											<asc_sat></asc_sat>
											<lut2></lut2>
										</colorinfo>
										<labels>
										</labels>
									</clip>
								</children>
							</bin>
							<sequence id="sequence-27" TL.SQAudioVisibleBase="0" TL.SQVideoVisibleBase="0" TL.SQVisibleBaseTime="0" TL.SQAVDividerPosition="0.5" TL.SQHideShyTracks="0" TL.SQHeaderWidth="236" Monitor.ProgramZoomOut="2534224492800" Monitor.ProgramZoomIn="0" TL.SQTimePerPixel="0.072184793070256284" MZ.EditLine="1212020409600" MZ.Sequence.PreviewFrameSizeHeight="1080" MZ.Sequence.PreviewFrameSizeWidth="1920" MZ.Sequence.AudioTimeDisplayFormat="200" MZ.Sequence.PreviewRenderingClassID="1061109567" MZ.Sequence.PreviewRenderingPresetCodec="1634755443" MZ.Sequence.PreviewRenderingPresetPath="EncoderPresets/SequencePreview/35d109db-457b-43c1-9452-9cb7be9f121c/QuickTime.epr" MZ.Sequence.PreviewUseMaxRenderQuality="false" MZ.Sequence.PreviewUseMaxBitDepth="false" MZ.Sequence.EditingModeGUID="35d109db-457b-43c1-9452-9cb7be9f121c" MZ.Sequence.VideoTimeDisplayFormat="102" MZ.WorkOutPoint="1262874412800" MZ.WorkInPoint="0" explodedTracks="true">
								<uuid>ea94a9bb-daaf-4049-a7f9-99ad4d815318</uuid>
								<duration>299</duration>
								<rate>
									<timebase>30</timebase>
									<ntsc>TRUE</ntsc>
								</rate>
								<name>Bumper 3</name>
								<media>
									<video>
										<format>
											<samplecharacteristics>
												<rate>
													<timebase>30</timebase>
													<ntsc>TRUE</ntsc>
												</rate>
												<codec>
													<name>Apple ProRes 422</name>
													<appspecificdata>
														<appname>Final Cut Pro</appname>
														<appmanufacturer>Apple Inc.</appmanufacturer>
														<appversion>7.0</appversion>
														<data>
															<qtcodec>
																<codecname>Apple ProRes 422</codecname>
																<codectypename>Apple ProRes 422</codectypename>
																<codectypecode>apcn</codectypecode>
																<codecvendorcode>appl</codecvendorcode>
																<spatialquality>1024</spatialquality>
																<temporalquality>0</temporalquality>
																<keyframerate>0</keyframerate>
																<datarate>0</datarate>
															</qtcodec>
														</data>
													</appspecificdata>
												</codec>
												<width>1920</width>
												<height>1080</height>
												<anamorphic>FALSE</anamorphic>
												<pixelaspectratio>square</pixelaspectratio>
												<fielddominance>none</fielddominance>
												<colordepth>24</colordepth>
											</samplecharacteristics>
										</format>
										<track TL.SQTrackShy="0" TL.SQTrackExpandedHeight="25" TL.SQTrackExpanded="0" MZ.TrackTargeted="1">
											<clipitem id="clipitem-712">
												<masterclipid>masterclip-213</masterclipid>
												<name>ATM_Content Submit QR_Music 2.mp4</name>
												<enabled>TRUE</enabled>
												<duration>299</duration>
												<rate>
													<timebase>30</timebase>
													<ntsc>TRUE</ntsc>
												</rate>
												<start>0</start>
												<end>299</end>
												<in>0</in>
												<out>299</out>
												<pproTicksIn>0</pproTicksIn>
												<pproTicksOut>2534224492800</pproTicksOut>
												<alphatype>none</alphatype>
												<file id="file-210"/>
												<link>
													<linkclipref>clipitem-712</linkclipref>
													<mediatype>video</mediatype>
													<trackindex>1</trackindex>
													<clipindex>1</clipindex>
												</link>
												<link>
													<linkclipref>clipitem-713</linkclipref>
													<mediatype>audio</mediatype>
													<trackindex>1</trackindex>
													<clipindex>1</clipindex>
													<groupindex>1</groupindex>
												</link>
												<link>
													<linkclipref>clipitem-714</linkclipref>
													<mediatype>audio</mediatype>
													<trackindex>2</trackindex>
													<clipindex>1</clipindex>
													<groupindex>1</groupindex>
												</link>
												<logginginfo>
													<description></description>
													<scene></scene>
													<shottake></shottake>
													<lognote></lognote>
													<good></good>
													<originalvideofilename></originalvideofilename>
													<originalaudiofilename></originalaudiofilename>
												</logginginfo>
												<colorinfo>
													<lut></lut>
													<lut1></lut1>
													<asc_sop></asc_sop>
													<asc_sat></asc_sat>
													<lut2></lut2>
												</colorinfo>
											</clipitem>
											<enabled>TRUE</enabled>
											<locked>FALSE</locked>
										</track>
									</video>
									<audio>
										<numOutputChannels>2</numOutputChannels>
										<format>
											<samplecharacteristics>
												<depth>16</depth>
												<samplerate>48000</samplerate>
											</samplecharacteristics>
										</format>
										<outputs>
											<group>
												<index>1</index>
												<numchannels>1</numchannels>
												<downmix>0</downmix>
												<channel>
													<index>1</index>
												</channel>
											</group>
											<group>
												<index>2</index>
												<numchannels>1</numchannels>
												<downmix>0</downmix>
												<channel>
													<index>2</index>
												</channel>
											</group>
										</outputs>
										<track TL.SQTrackAudioKeyframeStyle="0" TL.SQTrackShy="0" TL.SQTrackExpandedHeight="25" TL.SQTrackExpanded="0" MZ.TrackTargeted="1" PannerCurrentValue="0.5" PannerIsInverted="true" PannerStartKeyframe="-91445760000000000,0.5,0,0,0,0,0,0" PannerName="Balance" currentExplodedTrackIndex="0" totalExplodedTrackCount="2" premiereTrackType="Stereo">
											<clipitem id="clipitem-713" premiereChannelType="stereo">
												<masterclipid>masterclip-213</masterclipid>
												<name>ATM_Content Submit QR_Music 2.mp4</name>
												<enabled>TRUE</enabled>
												<duration>299</duration>
												<rate>
													<timebase>30</timebase>
													<ntsc>TRUE</ntsc>
												</rate>
												<start>0</start>
												<end>299</end>
												<in>0</in>
												<out>299</out>
												<pproTicksIn>0</pproTicksIn>
												<pproTicksOut>2534224492800</pproTicksOut>
												<file id="file-210"/>
												<sourcetrack>
													<mediatype>audio</mediatype>
													<trackindex>1</trackindex>
												</sourcetrack>
												<filter>
													<effect>
														<name>Audio Levels</name>
														<effectid>audiolevels</effectid>
														<effectcategory>audiolevels</effectcategory>
														<effecttype>audiolevels</effecttype>
														<mediatype>audio</mediatype>
														<pproBypass>false</pproBypass>
														<parameter authoringApp="PremierePro">
															<parameterid>level</parameterid>
															<name>Level</name>
															<valuemin>0</valuemin>
															<valuemax>3.98109</valuemax>
															<value>0.354813</value>
														</parameter>
													</effect>
												</filter>
												<link>
													<linkclipref>clipitem-712</linkclipref>
													<mediatype>video</mediatype>
													<trackindex>1</trackindex>
													<clipindex>1</clipindex>
												</link>
												<link>
													<linkclipref>clipitem-713</linkclipref>
													<mediatype>audio</mediatype>
													<trackindex>1</trackindex>
													<clipindex>1</clipindex>
													<groupindex>1</groupindex>
												</link>
												<link>
													<linkclipref>clipitem-714</linkclipref>
													<mediatype>audio</mediatype>
													<trackindex>2</trackindex>
													<clipindex>1</clipindex>
													<groupindex>1</groupindex>
												</link>
												<logginginfo>
													<description></description>
													<scene></scene>
													<shottake></shottake>
													<lognote></lognote>
													<good></good>
													<originalvideofilename></originalvideofilename>
													<originalaudiofilename></originalaudiofilename>
												</logginginfo>
												<colorinfo>
													<lut></lut>
													<lut1></lut1>
													<asc_sop></asc_sop>
													<asc_sat></asc_sat>
													<lut2></lut2>
												</colorinfo>
											</clipitem>
											<enabled>TRUE</enabled>
											<locked>FALSE</locked>
											<outputchannelindex>1</outputchannelindex>
										</track>
										<track TL.SQTrackAudioKeyframeStyle="0" TL.SQTrackShy="0" TL.SQTrackExpandedHeight="25" TL.SQTrackExpanded="0" MZ.TrackTargeted="1" PannerCurrentValue="0.5" PannerIsInverted="true" PannerStartKeyframe="-91445760000000000,0.5,0,0,0,0,0,0" PannerName="Balance" currentExplodedTrackIndex="1" totalExplodedTrackCount="2" premiereTrackType="Stereo">
											<clipitem id="clipitem-714" premiereChannelType="stereo">
												<masterclipid>masterclip-213</masterclipid>
												<name>ATM_Content Submit QR_Music 2.mp4</name>
												<enabled>TRUE</enabled>
												<duration>299</duration>
												<rate>
													<timebase>30</timebase>
													<ntsc>TRUE</ntsc>
												</rate>
												<start>0</start>
												<end>299</end>
												<in>0</in>
												<out>299</out>
												<pproTicksIn>0</pproTicksIn>
												<pproTicksOut>2534224492800</pproTicksOut>
												<file id="file-210"/>
												<sourcetrack>
													<mediatype>audio</mediatype>
													<trackindex>2</trackindex>
												</sourcetrack>
												<filter>
													<effect>
														<name>Audio Levels</name>
														<effectid>audiolevels</effectid>
														<effectcategory>audiolevels</effectcategory>
														<effecttype>audiolevels</effecttype>
														<mediatype>audio</mediatype>
														<pproBypass>false</pproBypass>
														<parameter authoringApp="PremierePro">
															<parameterid>level</parameterid>
															<name>Level</name>
															<valuemin>0</valuemin>
															<valuemax>3.98109</valuemax>
															<value>0.354813</value>
														</parameter>
													</effect>
												</filter>
												<link>
													<linkclipref>clipitem-712</linkclipref>
													<mediatype>video</mediatype>
													<trackindex>1</trackindex>
													<clipindex>1</clipindex>
												</link>
												<link>
													<linkclipref>clipitem-713</linkclipref>
													<mediatype>audio</mediatype>
													<trackindex>1</trackindex>
													<clipindex>1</clipindex>
													<groupindex>1</groupindex>
												</link>
												<link>
													<linkclipref>clipitem-714</linkclipref>
													<mediatype>audio</mediatype>
													<trackindex>2</trackindex>
													<clipindex>1</clipindex>
													<groupindex>1</groupindex>
												</link>
												<logginginfo>
													<description></description>
													<scene></scene>
													<shottake></shottake>
													<lognote></lognote>
													<good></good>
													<originalvideofilename></originalvideofilename>
													<originalaudiofilename></originalaudiofilename>
												</logginginfo>
												<colorinfo>
													<lut></lut>
													<lut1></lut1>
													<asc_sop></asc_sop>
													<asc_sat></asc_sat>
													<lut2></lut2>
												</colorinfo>
											</clipitem>
											<enabled>TRUE</enabled>
											<locked>FALSE</locked>
											<outputchannelindex>2</outputchannelindex>
										</track>
									</audio>
								</media>
								<timecode>
									<rate>
										<timebase>30</timebase>
										<ntsc>TRUE</ntsc>
									</rate>
									<string>00;00;00;00</string>
									<frame>0</frame>
									<displayformat>DF</displayformat>
								</timecode>
								<labels>
									<label2>Forest</label2>
								</labels>
								<logginginfo>
									<description></description>
									<scene></scene>
									<shottake></shottake>
									<lognote></lognote>
									<good></good>
									<originalvideofilename></originalvideofilename>
									<originalaudiofilename></originalaudiofilename>
								</logginginfo>
							</sequence>
						</children>
					</bin>
					<bin>
						<name>Motion Graphics Template Media</name>
						<children>
							<clip id="masterclip-190" explodedTracks="true">
								<uuid>a62a2098-9195-448f-8ab0-9499140c22a4</uuid>
								<masterclipid>masterclip-190</masterclipid>
								<ismasterclip>TRUE</ismasterclip>
								<duration>4560</duration>
								<rate>
									<timebase>24</timebase>
									<ntsc>TRUE</ntsc>
								</rate>
								<name>Eyecandy Vertical Video Frame 1</name>
								<media>
									<video>
										<track>
											<clipitem id="clipitem-715">
												<masterclipid>masterclip-190</masterclipid>
												<name>Eyecandy Vertical Video Frame 1</name>
												<rate>
													<timebase>24</timebase>
													<ntsc>TRUE</ntsc>
												</rate>
												<alphatype>straight</alphatype>
												<file id="file-188"/>
											</clipitem>
										</track>
									</video>
								</media>
								<logginginfo>
									<description></description>
									<scene></scene>
									<shottake></shottake>
									<lognote></lognote>
									<good></good>
									<originalvideofilename></originalvideofilename>
									<originalaudiofilename></originalaudiofilename>
								</logginginfo>
								<colorinfo>
									<lut></lut>
									<lut1></lut1>
									<asc_sop></asc_sop>
									<asc_sat></asc_sat>
									<lut2></lut2>
								</colorinfo>
								<labels>
								</labels>
							</clip>
							<clip id="masterclip-177" explodedTracks="true">
								<uuid>50b428a0-4646-4f8e-9a96-9344c3d0a531</uuid>
								<masterclipid>masterclip-177</masterclipid>
								<ismasterclip>TRUE</ismasterclip>
								<duration>4560</duration>
								<rate>
									<timebase>24</timebase>
									<ntsc>TRUE</ntsc>
								</rate>
								<name>Eyecandy Vertical Video Frame 2</name>
								<media>
									<video>
										<track>
											<clipitem id="clipitem-716">
												<masterclipid>masterclip-177</masterclipid>
												<name>Eyecandy Vertical Video Frame 2</name>
												<rate>
													<timebase>24</timebase>
													<ntsc>TRUE</ntsc>
												</rate>
												<alphatype>straight</alphatype>
												<file id="file-175"/>
											</clipitem>
										</track>
									</video>
								</media>
								<logginginfo>
									<description></description>
									<scene></scene>
									<shottake></shottake>
									<lognote></lognote>
									<good></good>
									<originalvideofilename></originalvideofilename>
									<originalaudiofilename></originalaudiofilename>
								</logginginfo>
								<colorinfo>
									<lut></lut>
									<lut1></lut1>
									<asc_sop></asc_sop>
									<asc_sat></asc_sat>
									<lut2></lut2>
								</colorinfo>
								<labels>
								</labels>
							</clip>
							<clip id="masterclip-179" explodedTracks="true">
								<uuid>e77e6f0d-1c7a-40f1-ae21-a3ccbc792329</uuid>
								<masterclipid>masterclip-179</masterclipid>
								<ismasterclip>TRUE</ismasterclip>
								<duration>4560</duration>
								<rate>
									<timebase>24</timebase>
									<ntsc>TRUE</ntsc>
								</rate>
								<name># Eyecandy Vertical Video Frame 3</name>
								<media>
									<video>
										<track>
											<clipitem id="clipitem-717">
												<masterclipid>masterclip-179</masterclipid>
												<name># Eyecandy Vertical Video Frame 3</name>
												<rate>
													<timebase>24</timebase>
													<ntsc>TRUE</ntsc>
												</rate>
												<alphatype>straight</alphatype>
												<file id="file-177"/>
											</clipitem>
										</track>
									</video>
								</media>
								<logginginfo>
									<description></description>
									<scene></scene>
									<shottake></shottake>
									<lognote></lognote>
									<good></good>
									<originalvideofilename></originalvideofilename>
									<originalaudiofilename></originalaudiofilename>
								</logginginfo>
								<colorinfo>
									<lut></lut>
									<lut1></lut1>
									<asc_sop></asc_sop>
									<asc_sat></asc_sat>
									<lut2></lut2>
								</colorinfo>
								<labels>
								</labels>
							</clip>
							<clip id="masterclip-192" explodedTracks="true">
								<uuid>cdef5259-5a5f-49ae-b2d7-0a649e44bdd1</uuid>
								<masterclipid>masterclip-192</masterclipid>
								<ismasterclip>TRUE</ismasterclip>
								<duration>4560</duration>
								<rate>
									<timebase>24</timebase>
									<ntsc>TRUE</ntsc>
								</rate>
								<name># Eyecandy Vertical Video Frame 4</name>
								<media>
									<video>
										<track>
											<clipitem id="clipitem-718">
												<masterclipid>masterclip-192</masterclipid>
												<name># Eyecandy Vertical Video Frame 4</name>
												<rate>
													<timebase>24</timebase>
													<ntsc>TRUE</ntsc>
												</rate>
												<alphatype>straight</alphatype>
												<file id="file-190"/>
											</clipitem>
										</track>
									</video>
								</media>
								<logginginfo>
									<description></description>
									<scene></scene>
									<shottake></shottake>
									<lognote></lognote>
									<good></good>
									<originalvideofilename></originalvideofilename>
									<originalaudiofilename></originalaudiofilename>
								</logginginfo>
								<colorinfo>
									<lut></lut>
									<lut1></lut1>
									<asc_sop></asc_sop>
									<asc_sat></asc_sat>
									<lut2></lut2>
								</colorinfo>
								<labels>
								</labels>
							</clip>
						</children>
					</bin>
				</children>
			</bin>
			<bin>
				<name>5_Transitions</name>
				<labels>
					<label2>Mango</label2>
				</labels>
				<children>
					<bin>
						<name>Raw Transitions</name>
						<children>
							<clip id="masterclip-214" explodedTracks="true">
								<uuid>e5ff6f48-8edc-4c68-8cbe-ffff7d57d814</uuid>
								<masterclipid>masterclip-214</masterclipid>
								<ismasterclip>TRUE</ismasterclip>
								<duration>122</duration>
								<rate>
									<timebase>30</timebase>
									<ntsc>TRUE</ntsc>
								</rate>
								<name>ATM_Yummy_Transtion_1.mov</name>
								<media>
									<video>
										<track>
											<clipitem id="clipitem-719">
												<masterclipid>masterclip-214</masterclipid>
												<name>ATM_Yummy_Transtion_1.mov</name>
												<rate>
													<timebase>30</timebase>
													<ntsc>TRUE</ntsc>
												</rate>
												<alphatype>straight</alphatype>
												<pixelaspectratio>square</pixelaspectratio>
												<anamorphic>FALSE</anamorphic>
												<file id="file-211">
													<name>ATM_Yummy_Transtion_1.mov</name>
													<pathurl>file://localhost/Volumes/ATM%201/EYE%20CANDY/Project%20Template/5_Assets/Eye%20Candy%20Mograph/Transitions/Alpha/ATM_Yummy_Transtion_1.mov</pathurl>
													<rate>
														<timebase>30</timebase>
														<ntsc>TRUE</ntsc>
													</rate>
													<duration>122</duration>
													<timecode>
														<rate>
															<timebase>30</timebase>
															<ntsc>TRUE</ntsc>
														</rate>
														<string>00;00;00;00</string>
														<frame>0</frame>
														<displayformat>DF</displayformat>
													</timecode>
													<media>
														<video>
															<samplecharacteristics>
																<rate>
																	<timebase>30</timebase>
																	<ntsc>TRUE</ntsc>
																</rate>
																<width>1920</width>
																<height>1080</height>
																<anamorphic>FALSE</anamorphic>
																<pixelaspectratio>square</pixelaspectratio>
																<fielddominance>none</fielddominance>
															</samplecharacteristics>
														</video>
														<audio>
															<samplecharacteristics>
																<depth>16</depth>
																<samplerate>48000</samplerate>
															</samplecharacteristics>
															<channelcount>2</channelcount>
														</audio>
													</media>
												</file>
												<link>
													<linkclipref>clipitem-719</linkclipref>
													<mediatype>video</mediatype>
													<trackindex>1</trackindex>
													<clipindex>1</clipindex>
												</link>
												<link>
													<linkclipref>clipitem-720</linkclipref>
													<mediatype>audio</mediatype>
													<trackindex>1</trackindex>
													<clipindex>1</clipindex>
													<groupindex>1</groupindex>
												</link>
												<link>
													<linkclipref>clipitem-721</linkclipref>
													<mediatype>audio</mediatype>
													<trackindex>2</trackindex>
													<clipindex>1</clipindex>
													<groupindex>1</groupindex>
												</link>
											</clipitem>
										</track>
									</video>
									<audio>
										<track>
											<clipitem id="clipitem-720">
												<masterclipid>masterclip-214</masterclipid>
												<name>ATM_Yummy_Transtion_1.mov</name>
												<rate>
													<timebase>30</timebase>
													<ntsc>TRUE</ntsc>
												</rate>
												<file id="file-211"/>
												<sourcetrack>
													<mediatype>audio</mediatype>
													<trackindex>1</trackindex>
												</sourcetrack>
												<link>
													<linkclipref>clipitem-719</linkclipref>
													<mediatype>video</mediatype>
													<trackindex>1</trackindex>
													<clipindex>1</clipindex>
												</link>
												<link>
													<linkclipref>clipitem-720</linkclipref>
													<mediatype>audio</mediatype>
													<trackindex>1</trackindex>
													<clipindex>1</clipindex>
													<groupindex>1</groupindex>
												</link>
												<link>
													<linkclipref>clipitem-721</linkclipref>
													<mediatype>audio</mediatype>
													<trackindex>2</trackindex>
													<clipindex>1</clipindex>
													<groupindex>1</groupindex>
												</link>
											</clipitem>
										</track>
										<track>
											<clipitem id="clipitem-721">
												<masterclipid>masterclip-214</masterclipid>
												<name>ATM_Yummy_Transtion_1.mov</name>
												<rate>
													<timebase>30</timebase>
													<ntsc>TRUE</ntsc>
												</rate>
												<file id="file-211"/>
												<sourcetrack>
													<mediatype>audio</mediatype>
													<trackindex>2</trackindex>
												</sourcetrack>
												<link>
													<linkclipref>clipitem-719</linkclipref>
													<mediatype>video</mediatype>
													<trackindex>1</trackindex>
													<clipindex>1</clipindex>
												</link>
												<link>
													<linkclipref>clipitem-720</linkclipref>
													<mediatype>audio</mediatype>
													<trackindex>1</trackindex>
													<clipindex>1</clipindex>
													<groupindex>1</groupindex>
												</link>
												<link>
													<linkclipref>clipitem-721</linkclipref>
													<mediatype>audio</mediatype>
													<trackindex>2</trackindex>
													<clipindex>1</clipindex>
													<groupindex>1</groupindex>
												</link>
											</clipitem>
										</track>
									</audio>
								</media>
									<marker>
										<comment></comment>
										<name></name>
										<in>82</in>
										<out>-1</out>
									</marker>
									<marker>
										<comment></comment>
										<name></name>
										<in>0</in>
										<out>-1</out>
									</marker>
								<logginginfo>
									<description></description>
									<scene></scene>
									<shottake></shottake>
									<lognote></lognote>
									<good></good>
									<originalvideofilename></originalvideofilename>
									<originalaudiofilename></originalaudiofilename>
								</logginginfo>
								<colorinfo>
									<lut></lut>
									<lut1></lut1>
									<asc_sop></asc_sop>
									<asc_sat></asc_sat>
									<lut2></lut2>
								</colorinfo>
								<labels>
								</labels>
							</clip>
							<clip id="masterclip-215" explodedTracks="true">
								<uuid>8b22cd02-3a02-4f05-ad39-14f59940fe8b</uuid>
								<masterclipid>masterclip-215</masterclipid>
								<ismasterclip>TRUE</ismasterclip>
								<duration>137</duration>
								<rate>
									<timebase>30</timebase>
									<ntsc>TRUE</ntsc>
								</rate>
								<name>ATM_Yummy_Transtion_3.mov</name>
								<media>
									<video>
										<track>
											<clipitem id="clipitem-722">
												<masterclipid>masterclip-215</masterclipid>
												<name>ATM_Yummy_Transtion_3.mov</name>
												<rate>
													<timebase>30</timebase>
													<ntsc>TRUE</ntsc>
												</rate>
												<alphatype>straight</alphatype>
												<pixelaspectratio>square</pixelaspectratio>
												<anamorphic>FALSE</anamorphic>
												<file id="file-212">
													<name>ATM_Yummy_Transtion_3.mov</name>
													<pathurl>file://localhost/Volumes/ATM%201/EYE%20CANDY/Project%20Template/5_Assets/Eye%20Candy%20Mograph/Transitions/Alpha/ATM_Yummy_Transtion_3.mov</pathurl>
													<rate>
														<timebase>30</timebase>
														<ntsc>TRUE</ntsc>
													</rate>
													<duration>137</duration>
													<timecode>
														<rate>
															<timebase>30</timebase>
															<ntsc>TRUE</ntsc>
														</rate>
														<string>00;00;00;00</string>
														<frame>0</frame>
														<displayformat>DF</displayformat>
													</timecode>
													<media>
														<video>
															<samplecharacteristics>
																<rate>
																	<timebase>30</timebase>
																	<ntsc>TRUE</ntsc>
																</rate>
																<width>1920</width>
																<height>1080</height>
																<anamorphic>FALSE</anamorphic>
																<pixelaspectratio>square</pixelaspectratio>
																<fielddominance>none</fielddominance>
															</samplecharacteristics>
														</video>
														<audio>
															<samplecharacteristics>
																<depth>16</depth>
																<samplerate>48000</samplerate>
															</samplecharacteristics>
															<channelcount>2</channelcount>
														</audio>
													</media>
												</file>
												<link>
													<linkclipref>clipitem-722</linkclipref>
													<mediatype>video</mediatype>
													<trackindex>1</trackindex>
													<clipindex>1</clipindex>
												</link>
												<link>
													<linkclipref>clipitem-723</linkclipref>
													<mediatype>audio</mediatype>
													<trackindex>1</trackindex>
													<clipindex>1</clipindex>
													<groupindex>1</groupindex>
												</link>
												<link>
													<linkclipref>clipitem-724</linkclipref>
													<mediatype>audio</mediatype>
													<trackindex>2</trackindex>
													<clipindex>1</clipindex>
													<groupindex>1</groupindex>
												</link>
											</clipitem>
										</track>
									</video>
									<audio>
										<track>
											<clipitem id="clipitem-723">
												<masterclipid>masterclip-215</masterclipid>
												<name>ATM_Yummy_Transtion_3.mov</name>
												<rate>
													<timebase>30</timebase>
													<ntsc>TRUE</ntsc>
												</rate>
												<file id="file-212"/>
												<sourcetrack>
													<mediatype>audio</mediatype>
													<trackindex>1</trackindex>
												</sourcetrack>
												<link>
													<linkclipref>clipitem-722</linkclipref>
													<mediatype>video</mediatype>
													<trackindex>1</trackindex>
													<clipindex>1</clipindex>
												</link>
												<link>
													<linkclipref>clipitem-723</linkclipref>
													<mediatype>audio</mediatype>
													<trackindex>1</trackindex>
													<clipindex>1</clipindex>
													<groupindex>1</groupindex>
												</link>
												<link>
													<linkclipref>clipitem-724</linkclipref>
													<mediatype>audio</mediatype>
													<trackindex>2</trackindex>
													<clipindex>1</clipindex>
													<groupindex>1</groupindex>
												</link>
											</clipitem>
										</track>
										<track>
											<clipitem id="clipitem-724">
												<masterclipid>masterclip-215</masterclipid>
												<name>ATM_Yummy_Transtion_3.mov</name>
												<rate>
													<timebase>30</timebase>
													<ntsc>TRUE</ntsc>
												</rate>
												<file id="file-212"/>
												<sourcetrack>
													<mediatype>audio</mediatype>
													<trackindex>2</trackindex>
												</sourcetrack>
												<link>
													<linkclipref>clipitem-722</linkclipref>
													<mediatype>video</mediatype>
													<trackindex>1</trackindex>
													<clipindex>1</clipindex>
												</link>
												<link>
													<linkclipref>clipitem-723</linkclipref>
													<mediatype>audio</mediatype>
													<trackindex>1</trackindex>
													<clipindex>1</clipindex>
													<groupindex>1</groupindex>
												</link>
												<link>
													<linkclipref>clipitem-724</linkclipref>
													<mediatype>audio</mediatype>
													<trackindex>2</trackindex>
													<clipindex>1</clipindex>
													<groupindex>1</groupindex>
												</link>
											</clipitem>
										</track>
									</audio>
								</media>
									<marker>
										<comment></comment>
										<name></name>
										<in>32</in>
										<out>-1</out>
									</marker>
								<logginginfo>
									<description></description>
									<scene></scene>
									<shottake></shottake>
									<lognote></lognote>
									<good></good>
									<originalvideofilename></originalvideofilename>
									<originalaudiofilename></originalaudiofilename>
								</logginginfo>
								<colorinfo>
									<lut></lut>
									<lut1></lut1>
									<asc_sop></asc_sop>
									<asc_sat></asc_sat>
									<lut2></lut2>
								</colorinfo>
								<labels>
								</labels>
							</clip>
							<clip id="masterclip-216" explodedTracks="true">
								<uuid>3865f28e-80ea-4a08-94f6-f9ad3ae80a87</uuid>
								<masterclipid>masterclip-216</masterclipid>
								<ismasterclip>TRUE</ismasterclip>
								<duration>118</duration>
								<rate>
									<timebase>30</timebase>
									<ntsc>TRUE</ntsc>
								</rate>
								<name>ATM_Yummy_Transtion_2.mov</name>
								<media>
									<video>
										<track>
											<clipitem id="clipitem-725">
												<masterclipid>masterclip-216</masterclipid>
												<name>ATM_Yummy_Transtion_2.mov</name>
												<rate>
													<timebase>30</timebase>
													<ntsc>TRUE</ntsc>
												</rate>
												<alphatype>straight</alphatype>
												<pixelaspectratio>square</pixelaspectratio>
												<anamorphic>FALSE</anamorphic>
												<file id="file-213">
													<name>ATM_Yummy_Transtion_2.mov</name>
													<pathurl>file://localhost/Volumes/ATM%201/EYE%20CANDY/Project%20Template/5_Assets/Eye%20Candy%20Mograph/Transitions/Alpha/ATM_Yummy_Transtion_2.mov</pathurl>
													<rate>
														<timebase>30</timebase>
														<ntsc>TRUE</ntsc>
													</rate>
													<duration>118</duration>
													<timecode>
														<rate>
															<timebase>30</timebase>
															<ntsc>TRUE</ntsc>
														</rate>
														<string>00;00;00;00</string>
														<frame>0</frame>
														<displayformat>DF</displayformat>
													</timecode>
													<media>
														<video>
															<samplecharacteristics>
																<rate>
																	<timebase>30</timebase>
																	<ntsc>TRUE</ntsc>
																</rate>
																<width>1920</width>
																<height>1080</height>
																<anamorphic>FALSE</anamorphic>
																<pixelaspectratio>square</pixelaspectratio>
																<fielddominance>none</fielddominance>
															</samplecharacteristics>
														</video>
														<audio>
															<samplecharacteristics>
																<depth>16</depth>
																<samplerate>48000</samplerate>
															</samplecharacteristics>
															<channelcount>2</channelcount>
														</audio>
													</media>
												</file>
												<link>
													<linkclipref>clipitem-725</linkclipref>
													<mediatype>video</mediatype>
													<trackindex>1</trackindex>
													<clipindex>1</clipindex>
												</link>
												<link>
													<linkclipref>clipitem-726</linkclipref>
													<mediatype>audio</mediatype>
													<trackindex>1</trackindex>
													<clipindex>1</clipindex>
													<groupindex>1</groupindex>
												</link>
												<link>
													<linkclipref>clipitem-727</linkclipref>
													<mediatype>audio</mediatype>
													<trackindex>2</trackindex>
													<clipindex>1</clipindex>
													<groupindex>1</groupindex>
												</link>
											</clipitem>
										</track>
									</video>
									<audio>
										<track>
											<clipitem id="clipitem-726">
												<masterclipid>masterclip-216</masterclipid>
												<name>ATM_Yummy_Transtion_2.mov</name>
												<rate>
													<timebase>30</timebase>
													<ntsc>TRUE</ntsc>
												</rate>
												<file id="file-213"/>
												<sourcetrack>
													<mediatype>audio</mediatype>
													<trackindex>1</trackindex>
												</sourcetrack>
												<link>
													<linkclipref>clipitem-725</linkclipref>
													<mediatype>video</mediatype>
													<trackindex>1</trackindex>
													<clipindex>1</clipindex>
												</link>
												<link>
													<linkclipref>clipitem-726</linkclipref>
													<mediatype>audio</mediatype>
													<trackindex>1</trackindex>
													<clipindex>1</clipindex>
													<groupindex>1</groupindex>
												</link>
												<link>
													<linkclipref>clipitem-727</linkclipref>
													<mediatype>audio</mediatype>
													<trackindex>2</trackindex>
													<clipindex>1</clipindex>
													<groupindex>1</groupindex>
												</link>
											</clipitem>
										</track>
										<track>
											<clipitem id="clipitem-727">
												<masterclipid>masterclip-216</masterclipid>
												<name>ATM_Yummy_Transtion_2.mov</name>
												<rate>
													<timebase>30</timebase>
													<ntsc>TRUE</ntsc>
												</rate>
												<file id="file-213"/>
												<sourcetrack>
													<mediatype>audio</mediatype>
													<trackindex>2</trackindex>
												</sourcetrack>
												<link>
													<linkclipref>clipitem-725</linkclipref>
													<mediatype>video</mediatype>
													<trackindex>1</trackindex>
													<clipindex>1</clipindex>
												</link>
												<link>
													<linkclipref>clipitem-726</linkclipref>
													<mediatype>audio</mediatype>
													<trackindex>1</trackindex>
													<clipindex>1</clipindex>
													<groupindex>1</groupindex>
												</link>
												<link>
													<linkclipref>clipitem-727</linkclipref>
													<mediatype>audio</mediatype>
													<trackindex>2</trackindex>
													<clipindex>1</clipindex>
													<groupindex>1</groupindex>
												</link>
											</clipitem>
										</track>
									</audio>
								</media>
									<marker>
										<comment></comment>
										<name></name>
										<in>54</in>
										<out>-1</out>
									</marker>
								<logginginfo>
									<description></description>
									<scene></scene>
									<shottake></shottake>
									<lognote></lognote>
									<good></good>
									<originalvideofilename></originalvideofilename>
									<originalaudiofilename></originalaudiofilename>
								</logginginfo>
								<colorinfo>
									<lut></lut>
									<lut1></lut1>
									<asc_sop></asc_sop>
									<asc_sat></asc_sat>
									<lut2></lut2>
								</colorinfo>
								<labels>
								</labels>
							</clip>
							<clip id="masterclip-217" explodedTracks="true">
								<uuid>6451a06f-0c33-4959-a33e-57b5ab8f2dcc</uuid>
								<masterclipid>masterclip-217</masterclipid>
								<ismasterclip>TRUE</ismasterclip>
								<duration>119</duration>
								<rate>
									<timebase>30</timebase>
									<ntsc>TRUE</ntsc>
								</rate>
								<name>ATM_Yummy_Transtion_4.mov</name>
								<media>
									<video>
										<track>
											<clipitem id="clipitem-728">
												<masterclipid>masterclip-217</masterclipid>
												<name>ATM_Yummy_Transtion_4.mov</name>
												<rate>
													<timebase>30</timebase>
													<ntsc>TRUE</ntsc>
												</rate>
												<alphatype>straight</alphatype>
												<pixelaspectratio>square</pixelaspectratio>
												<anamorphic>FALSE</anamorphic>
												<file id="file-214">
													<name>ATM_Yummy_Transtion_4.mov</name>
													<pathurl>file://localhost/Volumes/ATM%201/EYE%20CANDY/Project%20Template/5_Assets/Eye%20Candy%20Mograph/Transitions/Alpha/ATM_Yummy_Transtion_4.mov</pathurl>
													<rate>
														<timebase>30</timebase>
														<ntsc>TRUE</ntsc>
													</rate>
													<duration>119</duration>
													<timecode>
														<rate>
															<timebase>30</timebase>
															<ntsc>TRUE</ntsc>
														</rate>
														<string>00;00;00;00</string>
														<frame>0</frame>
														<displayformat>DF</displayformat>
													</timecode>
													<media>
														<video>
															<samplecharacteristics>
																<rate>
																	<timebase>30</timebase>
																	<ntsc>TRUE</ntsc>
																</rate>
																<width>1920</width>
																<height>1080</height>
																<anamorphic>FALSE</anamorphic>
																<pixelaspectratio>square</pixelaspectratio>
																<fielddominance>none</fielddominance>
															</samplecharacteristics>
														</video>
														<audio>
															<samplecharacteristics>
																<depth>16</depth>
																<samplerate>48000</samplerate>
															</samplecharacteristics>
															<channelcount>2</channelcount>
														</audio>
													</media>
												</file>
												<link>
													<linkclipref>clipitem-728</linkclipref>
													<mediatype>video</mediatype>
													<trackindex>1</trackindex>
													<clipindex>1</clipindex>
												</link>
												<link>
													<linkclipref>clipitem-729</linkclipref>
													<mediatype>audio</mediatype>
													<trackindex>1</trackindex>
													<clipindex>1</clipindex>
													<groupindex>1</groupindex>
												</link>
												<link>
													<linkclipref>clipitem-730</linkclipref>
													<mediatype>audio</mediatype>
													<trackindex>2</trackindex>
													<clipindex>1</clipindex>
													<groupindex>1</groupindex>
												</link>
											</clipitem>
										</track>
									</video>
									<audio>
										<track>
											<clipitem id="clipitem-729">
												<masterclipid>masterclip-217</masterclipid>
												<name>ATM_Yummy_Transtion_4.mov</name>
												<rate>
													<timebase>30</timebase>
													<ntsc>TRUE</ntsc>
												</rate>
												<file id="file-214"/>
												<sourcetrack>
													<mediatype>audio</mediatype>
													<trackindex>1</trackindex>
												</sourcetrack>
												<link>
													<linkclipref>clipitem-728</linkclipref>
													<mediatype>video</mediatype>
													<trackindex>1</trackindex>
													<clipindex>1</clipindex>
												</link>
												<link>
													<linkclipref>clipitem-729</linkclipref>
													<mediatype>audio</mediatype>
													<trackindex>1</trackindex>
													<clipindex>1</clipindex>
													<groupindex>1</groupindex>
												</link>
												<link>
													<linkclipref>clipitem-730</linkclipref>
													<mediatype>audio</mediatype>
													<trackindex>2</trackindex>
													<clipindex>1</clipindex>
													<groupindex>1</groupindex>
												</link>
											</clipitem>
										</track>
										<track>
											<clipitem id="clipitem-730">
												<masterclipid>masterclip-217</masterclipid>
												<name>ATM_Yummy_Transtion_4.mov</name>
												<rate>
													<timebase>30</timebase>
													<ntsc>TRUE</ntsc>
												</rate>
												<file id="file-214"/>
												<sourcetrack>
													<mediatype>audio</mediatype>
													<trackindex>2</trackindex>
												</sourcetrack>
												<link>
													<linkclipref>clipitem-728</linkclipref>
													<mediatype>video</mediatype>
													<trackindex>1</trackindex>
													<clipindex>1</clipindex>
												</link>
												<link>
													<linkclipref>clipitem-729</linkclipref>
													<mediatype>audio</mediatype>
													<trackindex>1</trackindex>
													<clipindex>1</clipindex>
													<groupindex>1</groupindex>
												</link>
												<link>
													<linkclipref>clipitem-730</linkclipref>
													<mediatype>audio</mediatype>
													<trackindex>2</trackindex>
													<clipindex>1</clipindex>
													<groupindex>1</groupindex>
												</link>
											</clipitem>
										</track>
									</audio>
								</media>
									<marker>
										<comment></comment>
										<name></name>
										<in>20</in>
										<out>-1</out>
									</marker>
									<marker>
										<comment></comment>
										<name></name>
										<in>55</in>
										<out>-1</out>
									</marker>
								<logginginfo>
									<description></description>
									<scene></scene>
									<shottake></shottake>
									<lognote></lognote>
									<good></good>
									<originalvideofilename></originalvideofilename>
									<originalaudiofilename></originalaudiofilename>
								</logginginfo>
								<colorinfo>
									<lut></lut>
									<lut1></lut1>
									<asc_sop></asc_sop>
									<asc_sat></asc_sat>
									<lut2></lut2>
								</colorinfo>
								<labels>
								</labels>
							</clip>
						</children>
					</bin>
					<sequence id="sequence-28" TL.SQAudioVisibleBase="0" TL.SQVideoVisibleBase="0" TL.SQVisibleBaseTime="0" TL.SQAVDividerPosition="0.5" TL.SQHideShyTracks="0" TL.SQHeaderWidth="236" TL.SQDataTrackViewControlState="0" Monitor.ProgramZoomOut="974701728000" Monitor.ProgramZoomIn="0" TL.SQTimePerPixel="0.0088977777777666245" MZ.EditLine="0" MZ.Sequence.PreviewFrameSizeHeight="1080" MZ.Sequence.PreviewFrameSizeWidth="1920" MZ.Sequence.AudioTimeDisplayFormat="200" MZ.Sequence.PreviewRenderingClassID="1061109567" MZ.Sequence.PreviewRenderingPresetCodec="1634755443" MZ.Sequence.PreviewRenderingPresetPath="EncoderPresets/SequencePreview/35d109db-457b-43c1-9452-9cb7be9f121c/QuickTime.epr" MZ.Sequence.PreviewUseMaxRenderQuality="false" MZ.Sequence.PreviewUseMaxBitDepth="false" MZ.Sequence.EditingModeGUID="35d109db-457b-43c1-9452-9cb7be9f121c" MZ.Sequence.VideoTimeDisplayFormat="102" MZ.WorkOutPoint="1262874412800" MZ.WorkInPoint="0" explodedTracks="true">
						<uuid>2bb485c2-2f0c-4b25-8a93-b445db13da3d</uuid>
						<duration>115</duration>
						<rate>
							<timebase>30</timebase>
							<ntsc>TRUE</ntsc>
						</rate>
						<name>Intro</name>
						<media>
							<video>
								<format>
									<samplecharacteristics>
										<rate>
											<timebase>30</timebase>
											<ntsc>TRUE</ntsc>
										</rate>
										<codec>
											<name>Apple ProRes 422</name>
											<appspecificdata>
												<appname>Final Cut Pro</appname>
												<appmanufacturer>Apple Inc.</appmanufacturer>
												<appversion>7.0</appversion>
												<data>
													<qtcodec>
														<codecname>Apple ProRes 422</codecname>
														<codectypename>Apple ProRes 422</codectypename>
														<codectypecode>apcn</codectypecode>
														<codecvendorcode>appl</codecvendorcode>
														<spatialquality>1024</spatialquality>
														<temporalquality>0</temporalquality>
														<keyframerate>0</keyframerate>
														<datarate>0</datarate>
													</qtcodec>
												</data>
											</appspecificdata>
										</codec>
										<width>1920</width>
										<height>1080</height>
										<anamorphic>FALSE</anamorphic>
										<pixelaspectratio>square</pixelaspectratio>
										<fielddominance>none</fielddominance>
										<colordepth>24</colordepth>
									</samplecharacteristics>
								</format>
								<track TL.SQTrackShy="0" TL.SQTrackExpandedHeight="25" TL.SQTrackExpanded="0" MZ.TrackTargeted="1">
									<clipitem id="clipitem-731">
										<masterclipid>masterclip-214</masterclipid>
										<name>ATM_Yummy_Transtion_1.mov</name>
										<enabled>TRUE</enabled>
										<duration>122</duration>
										<rate>
											<timebase>30</timebase>
											<ntsc>TRUE</ntsc>
										</rate>
										<start>0</start>
										<end>115</end>
										<in>0</in>
										<out>115</out>
										<pproTicksIn>0</pproTicksIn>
										<pproTicksOut>974701728000</pproTicksOut>
										<alphatype>straight</alphatype>
										<file id="file-211"/>
											<marker>
												<comment></comment>
												<name></name>
												<in>82</in>
												<out>-1</out>
											</marker>
											<marker>
												<comment></comment>
												<name></name>
												<in>0</in>
												<out>-1</out>
											</marker>
										<link>
											<linkclipref>clipitem-731</linkclipref>
											<mediatype>video</mediatype>
											<trackindex>1</trackindex>
											<clipindex>1</clipindex>
										</link>
										<link>
											<linkclipref>clipitem-732</linkclipref>
											<mediatype>audio</mediatype>
											<trackindex>1</trackindex>
											<clipindex>1</clipindex>
											<groupindex>1</groupindex>
										</link>
										<link>
											<linkclipref>clipitem-733</linkclipref>
											<mediatype>audio</mediatype>
											<trackindex>2</trackindex>
											<clipindex>1</clipindex>
											<groupindex>1</groupindex>
										</link>
										<logginginfo>
											<description></description>
											<scene></scene>
											<shottake></shottake>
											<lognote></lognote>
											<good></good>
											<originalvideofilename></originalvideofilename>
											<originalaudiofilename></originalaudiofilename>
										</logginginfo>
										<colorinfo>
											<lut></lut>
											<lut1></lut1>
											<asc_sop></asc_sop>
											<asc_sat></asc_sat>
											<lut2></lut2>
										</colorinfo>
									</clipitem>
									<enabled>TRUE</enabled>
									<locked>FALSE</locked>
								</track>
								<track TL.SQTrackShy="0" TL.SQTrackExpandedHeight="25" TL.SQTrackExpanded="0" MZ.TrackTargeted="0">
									<enabled>TRUE</enabled>
									<locked>FALSE</locked>
								</track>
							</video>
							<audio>
								<numOutputChannels>2</numOutputChannels>
								<format>
									<samplecharacteristics>
										<depth>16</depth>
										<samplerate>48000</samplerate>
									</samplecharacteristics>
								</format>
								<outputs>
									<group>
										<index>1</index>
										<numchannels>1</numchannels>
										<downmix>0</downmix>
										<channel>
											<index>1</index>
										</channel>
									</group>
									<group>
										<index>2</index>
										<numchannels>1</numchannels>
										<downmix>0</downmix>
										<channel>
											<index>2</index>
										</channel>
									</group>
								</outputs>
								<track TL.SQTrackAudioKeyframeStyle="0" TL.SQTrackShy="0" TL.SQTrackExpandedHeight="25" TL.SQTrackExpanded="0" MZ.TrackTargeted="1" PannerCurrentValue="0.5" PannerIsInverted="true" PannerStartKeyframe="-91445760000000000,0.5,0,0,0,0,0,0" PannerName="Balance" currentExplodedTrackIndex="0" totalExplodedTrackCount="2" premiereTrackType="Stereo">
									<clipitem id="clipitem-732" premiereChannelType="stereo">
										<masterclipid>masterclip-214</masterclipid>
										<name>ATM_Yummy_Transtion_1.mov</name>
										<enabled>TRUE</enabled>
										<duration>122</duration>
										<rate>
											<timebase>30</timebase>
											<ntsc>TRUE</ntsc>
										</rate>
										<start>0</start>
										<end>115</end>
										<in>0</in>
										<out>115</out>
										<pproTicksIn>0</pproTicksIn>
										<pproTicksOut>974701728000</pproTicksOut>
										<file id="file-211"/>
										<sourcetrack>
											<mediatype>audio</mediatype>
											<trackindex>1</trackindex>
										</sourcetrack>
											<marker>
												<comment></comment>
												<name></name>
												<in>82</in>
												<out>-1</out>
											</marker>
											<marker>
												<comment></comment>
												<name></name>
												<in>0</in>
												<out>-1</out>
											</marker>
										<link>
											<linkclipref>clipitem-731</linkclipref>
											<mediatype>video</mediatype>
											<trackindex>1</trackindex>
											<clipindex>1</clipindex>
										</link>
										<link>
											<linkclipref>clipitem-732</linkclipref>
											<mediatype>audio</mediatype>
											<trackindex>1</trackindex>
											<clipindex>1</clipindex>
											<groupindex>1</groupindex>
										</link>
										<link>
											<linkclipref>clipitem-733</linkclipref>
											<mediatype>audio</mediatype>
											<trackindex>2</trackindex>
											<clipindex>1</clipindex>
											<groupindex>1</groupindex>
										</link>
										<logginginfo>
											<description></description>
											<scene></scene>
											<shottake></shottake>
											<lognote></lognote>
											<good></good>
											<originalvideofilename></originalvideofilename>
											<originalaudiofilename></originalaudiofilename>
										</logginginfo>
										<colorinfo>
											<lut></lut>
											<lut1></lut1>
											<asc_sop></asc_sop>
											<asc_sat></asc_sat>
											<lut2></lut2>
										</colorinfo>
									</clipitem>
									<enabled>TRUE</enabled>
									<locked>FALSE</locked>
									<outputchannelindex>1</outputchannelindex>
								</track>
								<track TL.SQTrackAudioKeyframeStyle="0" TL.SQTrackShy="0" TL.SQTrackExpandedHeight="25" TL.SQTrackExpanded="0" MZ.TrackTargeted="1" PannerCurrentValue="0.5" PannerIsInverted="true" PannerStartKeyframe="-91445760000000000,0.5,0,0,0,0,0,0" PannerName="Balance" currentExplodedTrackIndex="1" totalExplodedTrackCount="2" premiereTrackType="Stereo">
									<clipitem id="clipitem-733" premiereChannelType="stereo">
										<masterclipid>masterclip-214</masterclipid>
										<name>ATM_Yummy_Transtion_1.mov</name>
										<enabled>TRUE</enabled>
										<duration>122</duration>
										<rate>
											<timebase>30</timebase>
											<ntsc>TRUE</ntsc>
										</rate>
										<start>0</start>
										<end>115</end>
										<in>0</in>
										<out>115</out>
										<pproTicksIn>0</pproTicksIn>
										<pproTicksOut>974701728000</pproTicksOut>
										<file id="file-211"/>
										<sourcetrack>
											<mediatype>audio</mediatype>
											<trackindex>2</trackindex>
										</sourcetrack>
											<marker>
												<comment></comment>
												<name></name>
												<in>82</in>
												<out>-1</out>
											</marker>
											<marker>
												<comment></comment>
												<name></name>
												<in>0</in>
												<out>-1</out>
											</marker>
										<link>
											<linkclipref>clipitem-731</linkclipref>
											<mediatype>video</mediatype>
											<trackindex>1</trackindex>
											<clipindex>1</clipindex>
										</link>
										<link>
											<linkclipref>clipitem-732</linkclipref>
											<mediatype>audio</mediatype>
											<trackindex>1</trackindex>
											<clipindex>1</clipindex>
											<groupindex>1</groupindex>
										</link>
										<link>
											<linkclipref>clipitem-733</linkclipref>
											<mediatype>audio</mediatype>
											<trackindex>2</trackindex>
											<clipindex>1</clipindex>
											<groupindex>1</groupindex>
										</link>
										<logginginfo>
											<description></description>
											<scene></scene>
											<shottake></shottake>
											<lognote></lognote>
											<good></good>
											<originalvideofilename></originalvideofilename>
											<originalaudiofilename></originalaudiofilename>
										</logginginfo>
										<colorinfo>
											<lut></lut>
											<lut1></lut1>
											<asc_sop></asc_sop>
											<asc_sat></asc_sat>
											<lut2></lut2>
										</colorinfo>
									</clipitem>
									<enabled>TRUE</enabled>
									<locked>FALSE</locked>
									<outputchannelindex>2</outputchannelindex>
								</track>
							</audio>
						</media>
						<timecode>
							<rate>
								<timebase>30</timebase>
								<ntsc>TRUE</ntsc>
							</rate>
							<string>00;00;00;00</string>
							<frame>0</frame>
							<displayformat>DF</displayformat>
						</timecode>
							<marker>
								<comment></comment>
								<name></name>
								<in>82</in>
								<out>-1</out>
							</marker>
						<labels>
							<label2>Forest</label2>
						</labels>
						<logginginfo>
							<description></description>
							<scene></scene>
							<shottake></shottake>
							<lognote></lognote>
							<good></good>
							<originalvideofilename></originalvideofilename>
							<originalaudiofilename></originalaudiofilename>
						</logginginfo>
					</sequence>
					<sequence id="sequence-29" TL.SQAudioVisibleBase="0" TL.SQVideoVisibleBase="0" TL.SQVisibleBaseTime="0" TL.SQAVDividerPosition="0.5" TL.SQHideShyTracks="0" TL.SQHeaderWidth="236" TL.SQDataTrackViewControlState="0" Monitor.ProgramZoomOut="1161166406400" Monitor.ProgramZoomIn="0" TL.SQTimePerPixel="0.008897777777768871" MZ.EditLine="974701728000" MZ.Sequence.PreviewFrameSizeHeight="1080" MZ.Sequence.PreviewFrameSizeWidth="1920" MZ.Sequence.AudioTimeDisplayFormat="200" MZ.Sequence.PreviewRenderingClassID="1061109567" MZ.Sequence.PreviewRenderingPresetCodec="1634755443" MZ.Sequence.PreviewRenderingPresetPath="EncoderPresets/SequencePreview/35d109db-457b-43c1-9452-9cb7be9f121c/QuickTime.epr" MZ.Sequence.PreviewUseMaxRenderQuality="false" MZ.Sequence.PreviewUseMaxBitDepth="false" MZ.Sequence.EditingModeGUID="35d109db-457b-43c1-9452-9cb7be9f121c" MZ.Sequence.VideoTimeDisplayFormat="102" MZ.WorkOutPoint="1262874412800" MZ.WorkInPoint="0" explodedTracks="true">
						<uuid>71ad352d-c0f4-431a-b1d1-77c493c91cc4</uuid>
						<duration>137</duration>
						<rate>
							<timebase>30</timebase>
							<ntsc>TRUE</ntsc>
						</rate>
						<name>Outro</name>
						<media>
							<video>
								<format>
									<samplecharacteristics>
										<rate>
											<timebase>30</timebase>
											<ntsc>TRUE</ntsc>
										</rate>
										<codec>
											<name>Apple ProRes 422</name>
											<appspecificdata>
												<appname>Final Cut Pro</appname>
												<appmanufacturer>Apple Inc.</appmanufacturer>
												<appversion>7.0</appversion>
												<data>
													<qtcodec>
														<codecname>Apple ProRes 422</codecname>
														<codectypename>Apple ProRes 422</codectypename>
														<codectypecode>apcn</codectypecode>
														<codecvendorcode>appl</codecvendorcode>
														<spatialquality>1024</spatialquality>
														<temporalquality>0</temporalquality>
														<keyframerate>0</keyframerate>
														<datarate>0</datarate>
													</qtcodec>
												</data>
											</appspecificdata>
										</codec>
										<width>1920</width>
										<height>1080</height>
										<anamorphic>FALSE</anamorphic>
										<pixelaspectratio>square</pixelaspectratio>
										<fielddominance>none</fielddominance>
										<colordepth>24</colordepth>
									</samplecharacteristics>
								</format>
								<track TL.SQTrackShy="0" TL.SQTrackExpandedHeight="25" TL.SQTrackExpanded="0" MZ.TrackTargeted="1">
									<clipitem id="clipitem-734">
										<masterclipid>masterclip-215</masterclipid>
										<name>ATM_Yummy_Transtion_3.mov</name>
										<enabled>TRUE</enabled>
										<duration>137</duration>
										<rate>
											<timebase>30</timebase>
											<ntsc>TRUE</ntsc>
										</rate>
										<start>0</start>
										<end>137</end>
										<in>0</in>
										<out>137</out>
										<pproTicksIn>0</pproTicksIn>
										<pproTicksOut>1161166406400</pproTicksOut>
										<alphatype>straight</alphatype>
										<file id="file-212"/>
											<marker>
												<comment></comment>
												<name></name>
												<in>32</in>
												<out>-1</out>
											</marker>
										<link>
											<linkclipref>clipitem-734</linkclipref>
											<mediatype>video</mediatype>
											<trackindex>1</trackindex>
											<clipindex>1</clipindex>
										</link>
										<link>
											<linkclipref>clipitem-735</linkclipref>
											<mediatype>audio</mediatype>
											<trackindex>1</trackindex>
											<clipindex>1</clipindex>
											<groupindex>1</groupindex>
										</link>
										<link>
											<linkclipref>clipitem-736</linkclipref>
											<mediatype>audio</mediatype>
											<trackindex>2</trackindex>
											<clipindex>1</clipindex>
											<groupindex>1</groupindex>
										</link>
										<logginginfo>
											<description></description>
											<scene></scene>
											<shottake></shottake>
											<lognote></lognote>
											<good></good>
											<originalvideofilename></originalvideofilename>
											<originalaudiofilename></originalaudiofilename>
										</logginginfo>
										<colorinfo>
											<lut></lut>
											<lut1></lut1>
											<asc_sop></asc_sop>
											<asc_sat></asc_sat>
											<lut2></lut2>
										</colorinfo>
									</clipitem>
									<enabled>TRUE</enabled>
									<locked>FALSE</locked>
								</track>
								<track TL.SQTrackShy="0" TL.SQTrackExpandedHeight="25" TL.SQTrackExpanded="0" MZ.TrackTargeted="0">
									<enabled>TRUE</enabled>
									<locked>FALSE</locked>
								</track>
							</video>
							<audio>
								<numOutputChannels>2</numOutputChannels>
								<format>
									<samplecharacteristics>
										<depth>16</depth>
										<samplerate>48000</samplerate>
									</samplecharacteristics>
								</format>
								<outputs>
									<group>
										<index>1</index>
										<numchannels>1</numchannels>
										<downmix>0</downmix>
										<channel>
											<index>1</index>
										</channel>
									</group>
									<group>
										<index>2</index>
										<numchannels>1</numchannels>
										<downmix>0</downmix>
										<channel>
											<index>2</index>
										</channel>
									</group>
								</outputs>
								<track TL.SQTrackAudioKeyframeStyle="0" TL.SQTrackShy="0" TL.SQTrackExpandedHeight="25" TL.SQTrackExpanded="0" MZ.TrackTargeted="1" PannerCurrentValue="0.5" PannerIsInverted="true" PannerStartKeyframe="-91445760000000000,0.5,0,0,0,0,0,0" PannerName="Balance" currentExplodedTrackIndex="0" totalExplodedTrackCount="2" premiereTrackType="Stereo">
									<clipitem id="clipitem-735" premiereChannelType="stereo">
										<masterclipid>masterclip-215</masterclipid>
										<name>ATM_Yummy_Transtion_3.mov</name>
										<enabled>TRUE</enabled>
										<duration>137</duration>
										<rate>
											<timebase>30</timebase>
											<ntsc>TRUE</ntsc>
										</rate>
										<start>0</start>
										<end>137</end>
										<in>0</in>
										<out>137</out>
										<pproTicksIn>0</pproTicksIn>
										<pproTicksOut>1161166406400</pproTicksOut>
										<file id="file-212"/>
										<sourcetrack>
											<mediatype>audio</mediatype>
											<trackindex>1</trackindex>
										</sourcetrack>
											<marker>
												<comment></comment>
												<name></name>
												<in>32</in>
												<out>-1</out>
											</marker>
										<link>
											<linkclipref>clipitem-734</linkclipref>
											<mediatype>video</mediatype>
											<trackindex>1</trackindex>
											<clipindex>1</clipindex>
										</link>
										<link>
											<linkclipref>clipitem-735</linkclipref>
											<mediatype>audio</mediatype>
											<trackindex>1</trackindex>
											<clipindex>1</clipindex>
											<groupindex>1</groupindex>
										</link>
										<link>
											<linkclipref>clipitem-736</linkclipref>
											<mediatype>audio</mediatype>
											<trackindex>2</trackindex>
											<clipindex>1</clipindex>
											<groupindex>1</groupindex>
										</link>
										<logginginfo>
											<description></description>
											<scene></scene>
											<shottake></shottake>
											<lognote></lognote>
											<good></good>
											<originalvideofilename></originalvideofilename>
											<originalaudiofilename></originalaudiofilename>
										</logginginfo>
										<colorinfo>
											<lut></lut>
											<lut1></lut1>
											<asc_sop></asc_sop>
											<asc_sat></asc_sat>
											<lut2></lut2>
										</colorinfo>
									</clipitem>
									<enabled>TRUE</enabled>
									<locked>FALSE</locked>
									<outputchannelindex>1</outputchannelindex>
								</track>
								<track TL.SQTrackAudioKeyframeStyle="0" TL.SQTrackShy="0" TL.SQTrackExpandedHeight="25" TL.SQTrackExpanded="0" MZ.TrackTargeted="1" PannerCurrentValue="0.5" PannerIsInverted="true" PannerStartKeyframe="-91445760000000000,0.5,0,0,0,0,0,0" PannerName="Balance" currentExplodedTrackIndex="1" totalExplodedTrackCount="2" premiereTrackType="Stereo">
									<clipitem id="clipitem-736" premiereChannelType="stereo">
										<masterclipid>masterclip-215</masterclipid>
										<name>ATM_Yummy_Transtion_3.mov</name>
										<enabled>TRUE</enabled>
										<duration>137</duration>
										<rate>
											<timebase>30</timebase>
											<ntsc>TRUE</ntsc>
										</rate>
										<start>0</start>
										<end>137</end>
										<in>0</in>
										<out>137</out>
										<pproTicksIn>0</pproTicksIn>
										<pproTicksOut>1161166406400</pproTicksOut>
										<file id="file-212"/>
										<sourcetrack>
											<mediatype>audio</mediatype>
											<trackindex>2</trackindex>
										</sourcetrack>
											<marker>
												<comment></comment>
												<name></name>
												<in>32</in>
												<out>-1</out>
											</marker>
										<link>
											<linkclipref>clipitem-734</linkclipref>
											<mediatype>video</mediatype>
											<trackindex>1</trackindex>
											<clipindex>1</clipindex>
										</link>
										<link>
											<linkclipref>clipitem-735</linkclipref>
											<mediatype>audio</mediatype>
											<trackindex>1</trackindex>
											<clipindex>1</clipindex>
											<groupindex>1</groupindex>
										</link>
										<link>
											<linkclipref>clipitem-736</linkclipref>
											<mediatype>audio</mediatype>
											<trackindex>2</trackindex>
											<clipindex>1</clipindex>
											<groupindex>1</groupindex>
										</link>
										<logginginfo>
											<description></description>
											<scene></scene>
											<shottake></shottake>
											<lognote></lognote>
											<good></good>
											<originalvideofilename></originalvideofilename>
											<originalaudiofilename></originalaudiofilename>
										</logginginfo>
										<colorinfo>
											<lut></lut>
											<lut1></lut1>
											<asc_sop></asc_sop>
											<asc_sat></asc_sat>
											<lut2></lut2>
										</colorinfo>
									</clipitem>
									<enabled>TRUE</enabled>
									<locked>FALSE</locked>
									<outputchannelindex>2</outputchannelindex>
								</track>
							</audio>
						</media>
						<timecode>
							<rate>
								<timebase>30</timebase>
								<ntsc>TRUE</ntsc>
							</rate>
							<string>00;00;00;00</string>
							<frame>0</frame>
							<displayformat>DF</displayformat>
						</timecode>
							<marker>
								<comment></comment>
								<name></name>
								<in>43</in>
								<out>-1</out>
							</marker>
						<labels>
							<label2>Forest</label2>
						</labels>
						<logginginfo>
							<description></description>
							<scene></scene>
							<shottake></shottake>
							<lognote></lognote>
							<good></good>
							<originalvideofilename></originalvideofilename>
							<originalaudiofilename></originalaudiofilename>
						</logginginfo>
					</sequence>
					<sequence id="sequence-30" TL.SQAudioVisibleBase="0" TL.SQVideoVisibleBase="0" TL.SQVisibleBaseTime="0" TL.SQAVDividerPosition="0.5" TL.SQHideShyTracks="0" TL.SQHeaderWidth="236" TL.SQDataTrackViewControlState="0" Monitor.ProgramZoomOut="1000128729600" Monitor.ProgramZoomIn="0" TL.SQTimePerPixel="0.0088977777777673912" MZ.EditLine="906896390400" MZ.Sequence.PreviewFrameSizeHeight="1080" MZ.Sequence.PreviewFrameSizeWidth="1920" MZ.Sequence.AudioTimeDisplayFormat="200" MZ.Sequence.PreviewRenderingClassID="1061109567" MZ.Sequence.PreviewRenderingPresetCodec="1634755443" MZ.Sequence.PreviewRenderingPresetPath="EncoderPresets/SequencePreview/35d109db-457b-43c1-9452-9cb7be9f121c/QuickTime.epr" MZ.Sequence.PreviewUseMaxRenderQuality="false" MZ.Sequence.PreviewUseMaxBitDepth="false" MZ.Sequence.EditingModeGUID="35d109db-457b-43c1-9452-9cb7be9f121c" MZ.Sequence.VideoTimeDisplayFormat="102" MZ.WorkOutPoint="1262874412800" MZ.WorkInPoint="0" explodedTracks="true">
						<uuid>d1e68655-e82b-4c2f-93fd-1ce4bb6968c1</uuid>
						<duration>118</duration>
						<rate>
							<timebase>30</timebase>
							<ntsc>TRUE</ntsc>
						</rate>
						<name>Transition 1</name>
						<media>
							<video>
								<format>
									<samplecharacteristics>
										<rate>
											<timebase>30</timebase>
											<ntsc>TRUE</ntsc>
										</rate>
										<codec>
											<name>Apple ProRes 422</name>
											<appspecificdata>
												<appname>Final Cut Pro</appname>
												<appmanufacturer>Apple Inc.</appmanufacturer>
												<appversion>7.0</appversion>
												<data>
													<qtcodec>
														<codecname>Apple ProRes 422</codecname>
														<codectypename>Apple ProRes 422</codectypename>
														<codectypecode>apcn</codectypecode>
														<codecvendorcode>appl</codecvendorcode>
														<spatialquality>1024</spatialquality>
														<temporalquality>0</temporalquality>
														<keyframerate>0</keyframerate>
														<datarate>0</datarate>
													</qtcodec>
												</data>
											</appspecificdata>
										</codec>
										<width>1920</width>
										<height>1080</height>
										<anamorphic>FALSE</anamorphic>
										<pixelaspectratio>square</pixelaspectratio>
										<fielddominance>none</fielddominance>
										<colordepth>24</colordepth>
									</samplecharacteristics>
								</format>
								<track TL.SQTrackShy="0" TL.SQTrackExpandedHeight="25" TL.SQTrackExpanded="0" MZ.TrackTargeted="1">
									<clipitem id="clipitem-737">
										<masterclipid>masterclip-216</masterclipid>
										<name>ATM_Yummy_Transtion_2.mov</name>
										<enabled>TRUE</enabled>
										<duration>118</duration>
										<rate>
											<timebase>30</timebase>
											<ntsc>TRUE</ntsc>
										</rate>
										<start>0</start>
										<end>118</end>
										<in>0</in>
										<out>118</out>
										<pproTicksIn>0</pproTicksIn>
										<pproTicksOut>1000128729600</pproTicksOut>
										<alphatype>straight</alphatype>
										<file id="file-213"/>
											<marker>
												<comment></comment>
												<name></name>
												<in>54</in>
												<out>-1</out>
											</marker>
										<link>
											<linkclipref>clipitem-737</linkclipref>
											<mediatype>video</mediatype>
											<trackindex>1</trackindex>
											<clipindex>1</clipindex>
										</link>
										<link>
											<linkclipref>clipitem-738</linkclipref>
											<mediatype>audio</mediatype>
											<trackindex>1</trackindex>
											<clipindex>1</clipindex>
											<groupindex>1</groupindex>
										</link>
										<link>
											<linkclipref>clipitem-739</linkclipref>
											<mediatype>audio</mediatype>
											<trackindex>2</trackindex>
											<clipindex>1</clipindex>
											<groupindex>1</groupindex>
										</link>
										<logginginfo>
											<description></description>
											<scene></scene>
											<shottake></shottake>
											<lognote></lognote>
											<good></good>
											<originalvideofilename></originalvideofilename>
											<originalaudiofilename></originalaudiofilename>
										</logginginfo>
										<colorinfo>
											<lut></lut>
											<lut1></lut1>
											<asc_sop></asc_sop>
											<asc_sat></asc_sat>
											<lut2></lut2>
										</colorinfo>
									</clipitem>
									<enabled>TRUE</enabled>
									<locked>FALSE</locked>
								</track>
								<track TL.SQTrackShy="0" TL.SQTrackExpandedHeight="25" TL.SQTrackExpanded="0" MZ.TrackTargeted="0">
									<enabled>TRUE</enabled>
									<locked>FALSE</locked>
								</track>
							</video>
							<audio>
								<numOutputChannels>2</numOutputChannels>
								<format>
									<samplecharacteristics>
										<depth>16</depth>
										<samplerate>48000</samplerate>
									</samplecharacteristics>
								</format>
								<outputs>
									<group>
										<index>1</index>
										<numchannels>1</numchannels>
										<downmix>0</downmix>
										<channel>
											<index>1</index>
										</channel>
									</group>
									<group>
										<index>2</index>
										<numchannels>1</numchannels>
										<downmix>0</downmix>
										<channel>
											<index>2</index>
										</channel>
									</group>
								</outputs>
								<track TL.SQTrackAudioKeyframeStyle="0" TL.SQTrackShy="0" TL.SQTrackExpandedHeight="25" TL.SQTrackExpanded="0" MZ.TrackTargeted="1" PannerCurrentValue="0.5" PannerIsInverted="true" PannerStartKeyframe="-91445760000000000,0.5,0,0,0,0,0,0" PannerName="Balance" currentExplodedTrackIndex="0" totalExplodedTrackCount="2" premiereTrackType="Stereo">
									<clipitem id="clipitem-738" premiereChannelType="stereo">
										<masterclipid>masterclip-216</masterclipid>
										<name>ATM_Yummy_Transtion_2.mov</name>
										<enabled>TRUE</enabled>
										<duration>118</duration>
										<rate>
											<timebase>30</timebase>
											<ntsc>TRUE</ntsc>
										</rate>
										<start>0</start>
										<end>118</end>
										<in>0</in>
										<out>118</out>
										<pproTicksIn>0</pproTicksIn>
										<pproTicksOut>1000128729600</pproTicksOut>
										<file id="file-213"/>
										<sourcetrack>
											<mediatype>audio</mediatype>
											<trackindex>1</trackindex>
										</sourcetrack>
											<marker>
												<comment></comment>
												<name></name>
												<in>54</in>
												<out>-1</out>
											</marker>
										<link>
											<linkclipref>clipitem-737</linkclipref>
											<mediatype>video</mediatype>
											<trackindex>1</trackindex>
											<clipindex>1</clipindex>
										</link>
										<link>
											<linkclipref>clipitem-738</linkclipref>
											<mediatype>audio</mediatype>
											<trackindex>1</trackindex>
											<clipindex>1</clipindex>
											<groupindex>1</groupindex>
										</link>
										<link>
											<linkclipref>clipitem-739</linkclipref>
											<mediatype>audio</mediatype>
											<trackindex>2</trackindex>
											<clipindex>1</clipindex>
											<groupindex>1</groupindex>
										</link>
										<logginginfo>
											<description></description>
											<scene></scene>
											<shottake></shottake>
											<lognote></lognote>
											<good></good>
											<originalvideofilename></originalvideofilename>
											<originalaudiofilename></originalaudiofilename>
										</logginginfo>
										<colorinfo>
											<lut></lut>
											<lut1></lut1>
											<asc_sop></asc_sop>
											<asc_sat></asc_sat>
											<lut2></lut2>
										</colorinfo>
									</clipitem>
									<enabled>TRUE</enabled>
									<locked>FALSE</locked>
									<outputchannelindex>1</outputchannelindex>
								</track>
								<track TL.SQTrackAudioKeyframeStyle="0" TL.SQTrackShy="0" TL.SQTrackExpandedHeight="25" TL.SQTrackExpanded="0" MZ.TrackTargeted="1" PannerCurrentValue="0.5" PannerIsInverted="true" PannerStartKeyframe="-91445760000000000,0.5,0,0,0,0,0,0" PannerName="Balance" currentExplodedTrackIndex="1" totalExplodedTrackCount="2" premiereTrackType="Stereo">
									<clipitem id="clipitem-739" premiereChannelType="stereo">
										<masterclipid>masterclip-216</masterclipid>
										<name>ATM_Yummy_Transtion_2.mov</name>
										<enabled>TRUE</enabled>
										<duration>118</duration>
										<rate>
											<timebase>30</timebase>
											<ntsc>TRUE</ntsc>
										</rate>
										<start>0</start>
										<end>118</end>
										<in>0</in>
										<out>118</out>
										<pproTicksIn>0</pproTicksIn>
										<pproTicksOut>1000128729600</pproTicksOut>
										<file id="file-213"/>
										<sourcetrack>
											<mediatype>audio</mediatype>
											<trackindex>2</trackindex>
										</sourcetrack>
											<marker>
												<comment></comment>
												<name></name>
												<in>54</in>
												<out>-1</out>
											</marker>
										<link>
											<linkclipref>clipitem-737</linkclipref>
											<mediatype>video</mediatype>
											<trackindex>1</trackindex>
											<clipindex>1</clipindex>
										</link>
										<link>
											<linkclipref>clipitem-738</linkclipref>
											<mediatype>audio</mediatype>
											<trackindex>1</trackindex>
											<clipindex>1</clipindex>
											<groupindex>1</groupindex>
										</link>
										<link>
											<linkclipref>clipitem-739</linkclipref>
											<mediatype>audio</mediatype>
											<trackindex>2</trackindex>
											<clipindex>1</clipindex>
											<groupindex>1</groupindex>
										</link>
										<logginginfo>
											<description></description>
											<scene></scene>
											<shottake></shottake>
											<lognote></lognote>
											<good></good>
											<originalvideofilename></originalvideofilename>
											<originalaudiofilename></originalaudiofilename>
										</logginginfo>
										<colorinfo>
											<lut></lut>
											<lut1></lut1>
											<asc_sop></asc_sop>
											<asc_sat></asc_sat>
											<lut2></lut2>
										</colorinfo>
									</clipitem>
									<enabled>TRUE</enabled>
									<locked>FALSE</locked>
									<outputchannelindex>2</outputchannelindex>
								</track>
							</audio>
						</media>
						<timecode>
							<rate>
								<timebase>30</timebase>
								<ntsc>TRUE</ntsc>
							</rate>
							<string>00;00;00;00</string>
							<frame>0</frame>
							<displayformat>DF</displayformat>
						</timecode>
							<marker>
								<comment></comment>
								<name></name>
								<in>57</in>
								<out>-1</out>
							</marker>
						<labels>
							<label2>Forest</label2>
						</labels>
						<logginginfo>
							<description></description>
							<scene></scene>
							<shottake></shottake>
							<lognote></lognote>
							<good></good>
							<originalvideofilename></originalvideofilename>
							<originalaudiofilename></originalaudiofilename>
						</logginginfo>
					</sequence>
					<sequence id="sequence-31" TL.SQAudioVisibleBase="0" TL.SQVideoVisibleBase="0" TL.SQVisibleBaseTime="0" TL.SQAVDividerPosition="0.5" TL.SQHideShyTracks="0" TL.SQHeaderWidth="236" TL.SQDataTrackViewControlState="0" Monitor.ProgramZoomOut="1008604396800" Monitor.ProgramZoomIn="0" TL.SQTimePerPixel="0.0088977777777673912" MZ.EditLine="466161696000" MZ.Sequence.PreviewFrameSizeHeight="1080" MZ.Sequence.PreviewFrameSizeWidth="1920" MZ.Sequence.AudioTimeDisplayFormat="200" MZ.Sequence.PreviewRenderingClassID="1061109567" MZ.Sequence.PreviewRenderingPresetCodec="1634755443" MZ.Sequence.PreviewRenderingPresetPath="EncoderPresets/SequencePreview/35d109db-457b-43c1-9452-9cb7be9f121c/QuickTime.epr" MZ.Sequence.PreviewUseMaxRenderQuality="false" MZ.Sequence.PreviewUseMaxBitDepth="false" MZ.Sequence.EditingModeGUID="35d109db-457b-43c1-9452-9cb7be9f121c" MZ.Sequence.VideoTimeDisplayFormat="102" MZ.WorkOutPoint="1262874412800" MZ.WorkInPoint="0" explodedTracks="true">
						<uuid>845379fc-4b48-4767-9204-06bd414f20f7</uuid>
						<duration>119</duration>
						<rate>
							<timebase>30</timebase>
							<ntsc>TRUE</ntsc>
						</rate>
						<name>Transition 2</name>
						<media>
							<video>
								<format>
									<samplecharacteristics>
										<rate>
											<timebase>30</timebase>
											<ntsc>TRUE</ntsc>
										</rate>
										<codec>
											<name>Apple ProRes 422</name>
											<appspecificdata>
												<appname>Final Cut Pro</appname>
												<appmanufacturer>Apple Inc.</appmanufacturer>
												<appversion>7.0</appversion>
												<data>
													<qtcodec>
														<codecname>Apple ProRes 422</codecname>
														<codectypename>Apple ProRes 422</codectypename>
														<codectypecode>apcn</codectypecode>
														<codecvendorcode>appl</codecvendorcode>
														<spatialquality>1024</spatialquality>
														<temporalquality>0</temporalquality>
														<keyframerate>0</keyframerate>
														<datarate>0</datarate>
													</qtcodec>
												</data>
											</appspecificdata>
										</codec>
										<width>1920</width>
										<height>1080</height>
										<anamorphic>FALSE</anamorphic>
										<pixelaspectratio>square</pixelaspectratio>
										<fielddominance>none</fielddominance>
										<colordepth>24</colordepth>
									</samplecharacteristics>
								</format>
								<track TL.SQTrackShy="0" TL.SQTrackExpandedHeight="25" TL.SQTrackExpanded="0" MZ.TrackTargeted="1">
									<clipitem id="clipitem-740">
										<masterclipid>masterclip-217</masterclipid>
										<name>ATM_Yummy_Transtion_4.mov</name>
										<enabled>TRUE</enabled>
										<duration>119</duration>
										<rate>
											<timebase>30</timebase>
											<ntsc>TRUE</ntsc>
										</rate>
										<start>0</start>
										<end>119</end>
										<in>0</in>
										<out>119</out>
										<pproTicksIn>0</pproTicksIn>
										<pproTicksOut>1008604396800</pproTicksOut>
										<alphatype>straight</alphatype>
										<file id="file-214"/>
											<marker>
												<comment></comment>
												<name></name>
												<in>20</in>
												<out>-1</out>
											</marker>
											<marker>
												<comment></comment>
												<name></name>
												<in>55</in>
												<out>-1</out>
											</marker>
										<link>
											<linkclipref>clipitem-740</linkclipref>
											<mediatype>video</mediatype>
											<trackindex>1</trackindex>
											<clipindex>1</clipindex>
										</link>
										<link>
											<linkclipref>clipitem-741</linkclipref>
											<mediatype>audio</mediatype>
											<trackindex>1</trackindex>
											<clipindex>1</clipindex>
											<groupindex>1</groupindex>
										</link>
										<link>
											<linkclipref>clipitem-742</linkclipref>
											<mediatype>audio</mediatype>
											<trackindex>2</trackindex>
											<clipindex>1</clipindex>
											<groupindex>1</groupindex>
										</link>
										<logginginfo>
											<description></description>
											<scene></scene>
											<shottake></shottake>
											<lognote></lognote>
											<good></good>
											<originalvideofilename></originalvideofilename>
											<originalaudiofilename></originalaudiofilename>
										</logginginfo>
										<colorinfo>
											<lut></lut>
											<lut1></lut1>
											<asc_sop></asc_sop>
											<asc_sat></asc_sat>
											<lut2></lut2>
										</colorinfo>
									</clipitem>
									<enabled>TRUE</enabled>
									<locked>FALSE</locked>
								</track>
								<track TL.SQTrackShy="0" TL.SQTrackExpandedHeight="25" TL.SQTrackExpanded="0" MZ.TrackTargeted="0">
									<enabled>TRUE</enabled>
									<locked>FALSE</locked>
								</track>
							</video>
							<audio>
								<numOutputChannels>2</numOutputChannels>
								<format>
									<samplecharacteristics>
										<depth>16</depth>
										<samplerate>48000</samplerate>
									</samplecharacteristics>
								</format>
								<outputs>
									<group>
										<index>1</index>
										<numchannels>1</numchannels>
										<downmix>0</downmix>
										<channel>
											<index>1</index>
										</channel>
									</group>
									<group>
										<index>2</index>
										<numchannels>1</numchannels>
										<downmix>0</downmix>
										<channel>
											<index>2</index>
										</channel>
									</group>
								</outputs>
								<track TL.SQTrackAudioKeyframeStyle="0" TL.SQTrackShy="0" TL.SQTrackExpandedHeight="25" TL.SQTrackExpanded="0" MZ.TrackTargeted="1" PannerCurrentValue="0.5" PannerIsInverted="true" PannerStartKeyframe="-91445760000000000,0.5,0,0,0,0,0,0" PannerName="Balance" currentExplodedTrackIndex="0" totalExplodedTrackCount="2" premiereTrackType="Stereo">
									<clipitem id="clipitem-741" premiereChannelType="stereo">
										<masterclipid>masterclip-217</masterclipid>
										<name>ATM_Yummy_Transtion_4.mov</name>
										<enabled>TRUE</enabled>
										<duration>119</duration>
										<rate>
											<timebase>30</timebase>
											<ntsc>TRUE</ntsc>
										</rate>
										<start>0</start>
										<end>119</end>
										<in>0</in>
										<out>119</out>
										<pproTicksIn>0</pproTicksIn>
										<pproTicksOut>1008604396800</pproTicksOut>
										<file id="file-214"/>
										<sourcetrack>
											<mediatype>audio</mediatype>
											<trackindex>1</trackindex>
										</sourcetrack>
											<marker>
												<comment></comment>
												<name></name>
												<in>20</in>
												<out>-1</out>
											</marker>
											<marker>
												<comment></comment>
												<name></name>
												<in>55</in>
												<out>-1</out>
											</marker>
										<link>
											<linkclipref>clipitem-740</linkclipref>
											<mediatype>video</mediatype>
											<trackindex>1</trackindex>
											<clipindex>1</clipindex>
										</link>
										<link>
											<linkclipref>clipitem-741</linkclipref>
											<mediatype>audio</mediatype>
											<trackindex>1</trackindex>
											<clipindex>1</clipindex>
											<groupindex>1</groupindex>
										</link>
										<link>
											<linkclipref>clipitem-742</linkclipref>
											<mediatype>audio</mediatype>
											<trackindex>2</trackindex>
											<clipindex>1</clipindex>
											<groupindex>1</groupindex>
										</link>
										<logginginfo>
											<description></description>
											<scene></scene>
											<shottake></shottake>
											<lognote></lognote>
											<good></good>
											<originalvideofilename></originalvideofilename>
											<originalaudiofilename></originalaudiofilename>
										</logginginfo>
										<colorinfo>
											<lut></lut>
											<lut1></lut1>
											<asc_sop></asc_sop>
											<asc_sat></asc_sat>
											<lut2></lut2>
										</colorinfo>
									</clipitem>
									<enabled>TRUE</enabled>
									<locked>FALSE</locked>
									<outputchannelindex>1</outputchannelindex>
								</track>
								<track TL.SQTrackAudioKeyframeStyle="0" TL.SQTrackShy="0" TL.SQTrackExpandedHeight="25" TL.SQTrackExpanded="0" MZ.TrackTargeted="1" PannerCurrentValue="0.5" PannerIsInverted="true" PannerStartKeyframe="-91445760000000000,0.5,0,0,0,0,0,0" PannerName="Balance" currentExplodedTrackIndex="1" totalExplodedTrackCount="2" premiereTrackType="Stereo">
									<clipitem id="clipitem-742" premiereChannelType="stereo">
										<masterclipid>masterclip-217</masterclipid>
										<name>ATM_Yummy_Transtion_4.mov</name>
										<enabled>TRUE</enabled>
										<duration>119</duration>
										<rate>
											<timebase>30</timebase>
											<ntsc>TRUE</ntsc>
										</rate>
										<start>0</start>
										<end>119</end>
										<in>0</in>
										<out>119</out>
										<pproTicksIn>0</pproTicksIn>
										<pproTicksOut>1008604396800</pproTicksOut>
										<file id="file-214"/>
										<sourcetrack>
											<mediatype>audio</mediatype>
											<trackindex>2</trackindex>
										</sourcetrack>
											<marker>
												<comment></comment>
												<name></name>
												<in>20</in>
												<out>-1</out>
											</marker>
											<marker>
												<comment></comment>
												<name></name>
												<in>55</in>
												<out>-1</out>
											</marker>
										<link>
											<linkclipref>clipitem-740</linkclipref>
											<mediatype>video</mediatype>
											<trackindex>1</trackindex>
											<clipindex>1</clipindex>
										</link>
										<link>
											<linkclipref>clipitem-741</linkclipref>
											<mediatype>audio</mediatype>
											<trackindex>1</trackindex>
											<clipindex>1</clipindex>
											<groupindex>1</groupindex>
										</link>
										<link>
											<linkclipref>clipitem-742</linkclipref>
											<mediatype>audio</mediatype>
											<trackindex>2</trackindex>
											<clipindex>1</clipindex>
											<groupindex>1</groupindex>
										</link>
										<logginginfo>
											<description></description>
											<scene></scene>
											<shottake></shottake>
											<lognote></lognote>
											<good></good>
											<originalvideofilename></originalvideofilename>
											<originalaudiofilename></originalaudiofilename>
										</logginginfo>
										<colorinfo>
											<lut></lut>
											<lut1></lut1>
											<asc_sop></asc_sop>
											<asc_sat></asc_sat>
											<lut2></lut2>
										</colorinfo>
									</clipitem>
									<enabled>TRUE</enabled>
									<locked>FALSE</locked>
									<outputchannelindex>2</outputchannelindex>
								</track>
							</audio>
						</media>
						<timecode>
							<rate>
								<timebase>30</timebase>
								<ntsc>TRUE</ntsc>
							</rate>
							<string>00;00;00;00</string>
							<frame>0</frame>
							<displayformat>DF</displayformat>
						</timecode>
							<marker>
								<comment></comment>
								<name></name>
								<in>20</in>
								<out>-1</out>
							</marker>
							<marker>
								<comment></comment>
								<name></name>
								<in>54</in>
								<out>-1</out>
							</marker>
						<labels>
							<label2>Forest</label2>
						</labels>
						<logginginfo>
							<description></description>
							<scene></scene>
							<shottake></shottake>
							<lognote></lognote>
							<good></good>
							<originalvideofilename></originalvideofilename>
							<originalaudiofilename></originalaudiofilename>
						</logginginfo>
					</sequence>
				</children>
			</bin>
			<bin>
				<name>6_Music</name>
				<labels>
					<label2>Mango</label2>
				</labels>
				<children>
					<clip id="masterclip-180" explodedTracks="true">
						<uuid>06aa64b3-ae71-4a82-bfdc-0c6a23e5e115</uuid>
						<masterclipid>masterclip-180</masterclipid>
						<ismasterclip>TRUE</ismasterclip>
						<duration>6044</duration>
						<rate>
							<timebase>30</timebase>
							<ntsc>TRUE</ntsc>
						</rate>
						<out>2576</out>
						<name>ES_Chihuly - Heyson.mp3</name>
						<media>
							<audio>
								<track>
									<clipitem id="clipitem-743">
										<masterclipid>masterclip-180</masterclipid>
										<name>ES_Chihuly - Heyson.mp3</name>
										<rate>
											<timebase>30</timebase>
											<ntsc>TRUE</ntsc>
										</rate>
										<file id="file-178"/>
										<sourcetrack>
											<mediatype>audio</mediatype>
											<trackindex>1</trackindex>
										</sourcetrack>
										<link>
											<linkclipref>clipitem-743</linkclipref>
											<mediatype>audio</mediatype>
											<trackindex>1</trackindex>
											<clipindex>1</clipindex>
											<groupindex>1</groupindex>
										</link>
										<link>
											<linkclipref>clipitem-744</linkclipref>
											<mediatype>audio</mediatype>
											<trackindex>2</trackindex>
											<clipindex>1</clipindex>
											<groupindex>1</groupindex>
										</link>
									</clipitem>
								</track>
								<track>
									<clipitem id="clipitem-744">
										<masterclipid>masterclip-180</masterclipid>
										<name>ES_Chihuly - Heyson.mp3</name>
										<rate>
											<timebase>30</timebase>
											<ntsc>TRUE</ntsc>
										</rate>
										<file id="file-178"/>
										<sourcetrack>
											<mediatype>audio</mediatype>
											<trackindex>2</trackindex>
										</sourcetrack>
										<link>
											<linkclipref>clipitem-743</linkclipref>
											<mediatype>audio</mediatype>
											<trackindex>1</trackindex>
											<clipindex>1</clipindex>
											<groupindex>1</groupindex>
										</link>
										<link>
											<linkclipref>clipitem-744</linkclipref>
											<mediatype>audio</mediatype>
											<trackindex>2</trackindex>
											<clipindex>1</clipindex>
											<groupindex>1</groupindex>
										</link>
									</clipitem>
								</track>
							</audio>
						</media>
						<logginginfo>
							<description></description>
							<scene></scene>
							<shottake></shottake>
							<lognote></lognote>
							<good></good>
							<originalvideofilename></originalvideofilename>
							<originalaudiofilename></originalaudiofilename>
						</logginginfo>
						<colorinfo>
							<lut></lut>
							<lut1></lut1>
							<asc_sop></asc_sop>
							<asc_sat></asc_sat>
							<lut2></lut2>
						</colorinfo>
						<labels>
							<label2>Caribbean</label2>
						</labels>
					</clip>
					<clip id="masterclip-178" explodedTracks="true">
						<uuid>7f0091dd-9b1a-405a-960e-5e4aafd236da</uuid>
						<masterclipid>masterclip-178</masterclipid>
						<ismasterclip>TRUE</ismasterclip>
						<duration>5377</duration>
						<rate>
							<timebase>30</timebase>
							<ntsc>TRUE</ntsc>
						</rate>
						<out>1504</out>
						<name>ES_Fall4U - Ballpoint.mp3</name>
						<media>
							<audio>
								<track>
									<clipitem id="clipitem-745">
										<masterclipid>masterclip-178</masterclipid>
										<name>ES_Fall4U - Ballpoint.mp3</name>
										<rate>
											<timebase>30</timebase>
											<ntsc>TRUE</ntsc>
										</rate>
										<file id="file-176"/>
										<sourcetrack>
											<mediatype>audio</mediatype>
											<trackindex>1</trackindex>
										</sourcetrack>
										<link>
											<linkclipref>clipitem-745</linkclipref>
											<mediatype>audio</mediatype>
											<trackindex>1</trackindex>
											<clipindex>1</clipindex>
											<groupindex>1</groupindex>
										</link>
										<link>
											<linkclipref>clipitem-746</linkclipref>
											<mediatype>audio</mediatype>
											<trackindex>2</trackindex>
											<clipindex>1</clipindex>
											<groupindex>1</groupindex>
										</link>
									</clipitem>
								</track>
								<track>
									<clipitem id="clipitem-746">
										<masterclipid>masterclip-178</masterclipid>
										<name>ES_Fall4U - Ballpoint.mp3</name>
										<rate>
											<timebase>30</timebase>
											<ntsc>TRUE</ntsc>
										</rate>
										<file id="file-176"/>
										<sourcetrack>
											<mediatype>audio</mediatype>
											<trackindex>2</trackindex>
										</sourcetrack>
										<link>
											<linkclipref>clipitem-745</linkclipref>
											<mediatype>audio</mediatype>
											<trackindex>1</trackindex>
											<clipindex>1</clipindex>
											<groupindex>1</groupindex>
										</link>
										<link>
											<linkclipref>clipitem-746</linkclipref>
											<mediatype>audio</mediatype>
											<trackindex>2</trackindex>
											<clipindex>1</clipindex>
											<groupindex>1</groupindex>
										</link>
									</clipitem>
								</track>
							</audio>
						</media>
						<logginginfo>
							<description></description>
							<scene></scene>
							<shottake></shottake>
							<lognote></lognote>
							<good></good>
							<originalvideofilename></originalvideofilename>
							<originalaudiofilename></originalaudiofilename>
						</logginginfo>
						<colorinfo>
							<lut></lut>
							<lut1></lut1>
							<asc_sop></asc_sop>
							<asc_sat></asc_sat>
							<lut2></lut2>
						</colorinfo>
						<labels>
							<label2>Caribbean</label2>
						</labels>
					</clip>
					<clip id="masterclip-176" explodedTracks="true">
						<uuid>9c66ae6a-ef0b-4ac2-8851-bcfe44eb0015</uuid>
						<masterclipid>masterclip-176</masterclipid>
						<ismasterclip>TRUE</ismasterclip>
						<duration>5632</duration>
						<rate>
							<timebase>30</timebase>
							<ntsc>TRUE</ntsc>
						</rate>
						<out>2624</out>
						<name>ES_Melt Away (Instrumental Version) - Adelyn Paik.mp3</name>
						<media>
							<audio>
								<track>
									<clipitem id="clipitem-747">
										<masterclipid>masterclip-176</masterclipid>
										<name>ES_Melt Away (Instrumental Version) - Adelyn Paik.mp3</name>
										<rate>
											<timebase>30</timebase>
											<ntsc>TRUE</ntsc>
										</rate>
										<file id="file-174"/>
										<sourcetrack>
											<mediatype>audio</mediatype>
											<trackindex>1</trackindex>
										</sourcetrack>
										<link>
											<linkclipref>clipitem-747</linkclipref>
											<mediatype>audio</mediatype>
											<trackindex>1</trackindex>
											<clipindex>1</clipindex>
											<groupindex>1</groupindex>
										</link>
										<link>
											<linkclipref>clipitem-748</linkclipref>
											<mediatype>audio</mediatype>
											<trackindex>2</trackindex>
											<clipindex>1</clipindex>
											<groupindex>1</groupindex>
										</link>
									</clipitem>
								</track>
								<track>
									<clipitem id="clipitem-748">
										<masterclipid>masterclip-176</masterclipid>
										<name>ES_Melt Away (Instrumental Version) - Adelyn Paik.mp3</name>
										<rate>
											<timebase>30</timebase>
											<ntsc>TRUE</ntsc>
										</rate>
										<file id="file-174"/>
										<sourcetrack>
											<mediatype>audio</mediatype>
											<trackindex>2</trackindex>
										</sourcetrack>
										<link>
											<linkclipref>clipitem-747</linkclipref>
											<mediatype>audio</mediatype>
											<trackindex>1</trackindex>
											<clipindex>1</clipindex>
											<groupindex>1</groupindex>
										</link>
										<link>
											<linkclipref>clipitem-748</linkclipref>
											<mediatype>audio</mediatype>
											<trackindex>2</trackindex>
											<clipindex>1</clipindex>
											<groupindex>1</groupindex>
										</link>
									</clipitem>
								</track>
							</audio>
						</media>
						<logginginfo>
							<description></description>
							<scene></scene>
							<shottake></shottake>
							<lognote></lognote>
							<good></good>
							<originalvideofilename></originalvideofilename>
							<originalaudiofilename></originalaudiofilename>
						</logginginfo>
						<colorinfo>
							<lut></lut>
							<lut1></lut1>
							<asc_sop></asc_sop>
							<asc_sat></asc_sat>
							<lut2></lut2>
						</colorinfo>
						<labels>
							<label2>Caribbean</label2>
						</labels>
					</clip>
					<clip id="masterclip-187" explodedTracks="true">
						<uuid>375af4b7-0199-4eca-a32c-64b63d9352e5</uuid>
						<masterclipid>masterclip-187</masterclipid>
						<ismasterclip>TRUE</ismasterclip>
						<duration>3977</duration>
						<rate>
							<timebase>30</timebase>
							<ntsc>TRUE</ntsc>
						</rate>
						<out>1575</out>
						<name>ES_Earlybird - HATAMITSUNAMI.mp3</name>
						<media>
							<audio>
								<track>
									<clipitem id="clipitem-749">
										<masterclipid>masterclip-187</masterclipid>
										<name>ES_Earlybird - HATAMITSUNAMI.mp3</name>
										<rate>
											<timebase>30</timebase>
											<ntsc>TRUE</ntsc>
										</rate>
										<file id="file-185"/>
										<sourcetrack>
											<mediatype>audio</mediatype>
											<trackindex>1</trackindex>
										</sourcetrack>
										<link>
											<linkclipref>clipitem-749</linkclipref>
											<mediatype>audio</mediatype>
											<trackindex>1</trackindex>
											<clipindex>1</clipindex>
											<groupindex>1</groupindex>
										</link>
										<link>
											<linkclipref>clipitem-750</linkclipref>
											<mediatype>audio</mediatype>
											<trackindex>2</trackindex>
											<clipindex>1</clipindex>
											<groupindex>1</groupindex>
										</link>
									</clipitem>
								</track>
								<track>
									<clipitem id="clipitem-750">
										<masterclipid>masterclip-187</masterclipid>
										<name>ES_Earlybird - HATAMITSUNAMI.mp3</name>
										<rate>
											<timebase>30</timebase>
											<ntsc>TRUE</ntsc>
										</rate>
										<file id="file-185"/>
										<sourcetrack>
											<mediatype>audio</mediatype>
											<trackindex>2</trackindex>
										</sourcetrack>
										<link>
											<linkclipref>clipitem-749</linkclipref>
											<mediatype>audio</mediatype>
											<trackindex>1</trackindex>
											<clipindex>1</clipindex>
											<groupindex>1</groupindex>
										</link>
										<link>
											<linkclipref>clipitem-750</linkclipref>
											<mediatype>audio</mediatype>
											<trackindex>2</trackindex>
											<clipindex>1</clipindex>
											<groupindex>1</groupindex>
										</link>
									</clipitem>
								</track>
							</audio>
						</media>
						<logginginfo>
							<description></description>
							<scene></scene>
							<shottake></shottake>
							<lognote></lognote>
							<good></good>
							<originalvideofilename></originalvideofilename>
							<originalaudiofilename></originalaudiofilename>
						</logginginfo>
						<colorinfo>
							<lut></lut>
							<lut1></lut1>
							<asc_sop></asc_sop>
							<asc_sat></asc_sat>
							<lut2></lut2>
						</colorinfo>
						<labels>
							<label2>Caribbean</label2>
						</labels>
					</clip>
					<clip id="masterclip-183" explodedTracks="true">
						<uuid>ea05b045-51cc-487c-b9c3-ed1874f3deb2</uuid>
						<masterclipid>masterclip-183</masterclipid>
						<ismasterclip>TRUE</ismasterclip>
						<duration>3722</duration>
						<rate>
							<timebase>30</timebase>
							<ntsc>TRUE</ntsc>
						</rate>
						<out>1517</out>
						<name>ES_Malibu Crush - Dylan Sitts.mp3</name>
						<media>
							<audio>
								<track>
									<clipitem id="clipitem-751">
										<masterclipid>masterclip-183</masterclipid>
										<name>ES_Malibu Crush - Dylan Sitts.mp3</name>
										<rate>
											<timebase>30</timebase>
											<ntsc>TRUE</ntsc>
										</rate>
										<file id="file-181"/>
										<sourcetrack>
											<mediatype>audio</mediatype>
											<trackindex>1</trackindex>
										</sourcetrack>
										<link>
											<linkclipref>clipitem-751</linkclipref>
											<mediatype>audio</mediatype>
											<trackindex>1</trackindex>
											<clipindex>1</clipindex>
											<groupindex>1</groupindex>
										</link>
										<link>
											<linkclipref>clipitem-752</linkclipref>
											<mediatype>audio</mediatype>
											<trackindex>2</trackindex>
											<clipindex>1</clipindex>
											<groupindex>1</groupindex>
										</link>
									</clipitem>
								</track>
								<track>
									<clipitem id="clipitem-752">
										<masterclipid>masterclip-183</masterclipid>
										<name>ES_Malibu Crush - Dylan Sitts.mp3</name>
										<rate>
											<timebase>30</timebase>
											<ntsc>TRUE</ntsc>
										</rate>
										<file id="file-181"/>
										<sourcetrack>
											<mediatype>audio</mediatype>
											<trackindex>2</trackindex>
										</sourcetrack>
										<link>
											<linkclipref>clipitem-751</linkclipref>
											<mediatype>audio</mediatype>
											<trackindex>1</trackindex>
											<clipindex>1</clipindex>
											<groupindex>1</groupindex>
										</link>
										<link>
											<linkclipref>clipitem-752</linkclipref>
											<mediatype>audio</mediatype>
											<trackindex>2</trackindex>
											<clipindex>1</clipindex>
											<groupindex>1</groupindex>
										</link>
									</clipitem>
								</track>
							</audio>
						</media>
						<logginginfo>
							<description></description>
							<scene></scene>
							<shottake></shottake>
							<lognote></lognote>
							<good></good>
							<originalvideofilename></originalvideofilename>
							<originalaudiofilename></originalaudiofilename>
						</logginginfo>
						<colorinfo>
							<lut></lut>
							<lut1></lut1>
							<asc_sop></asc_sop>
							<asc_sat></asc_sat>
							<lut2></lut2>
						</colorinfo>
						<labels>
							<label2>Caribbean</label2>
						</labels>
					</clip>
					<clip id="masterclip-191" explodedTracks="true">
						<uuid>9c24dd9a-ed1a-4a0e-ad9f-a6d725ebc7bf</uuid>
						<masterclipid>masterclip-191</masterclipid>
						<ismasterclip>TRUE</ismasterclip>
						<duration>5448</duration>
						<rate>
							<timebase>30</timebase>
							<ntsc>TRUE</ntsc>
						</rate>
						<out>3440</out>
						<name>ES_goldentouch (Instrumental Version) - dasloe.mp3</name>
						<media>
							<audio>
								<track>
									<clipitem id="clipitem-753">
										<masterclipid>masterclip-191</masterclipid>
										<name>ES_goldentouch (Instrumental Version) - dasloe.mp3</name>
										<rate>
											<timebase>30</timebase>
											<ntsc>TRUE</ntsc>
										</rate>
										<file id="file-189"/>
										<sourcetrack>
											<mediatype>audio</mediatype>
											<trackindex>1</trackindex>
										</sourcetrack>
										<link>
											<linkclipref>clipitem-753</linkclipref>
											<mediatype>audio</mediatype>
											<trackindex>1</trackindex>
											<clipindex>1</clipindex>
											<groupindex>1</groupindex>
										</link>
										<link>
											<linkclipref>clipitem-754</linkclipref>
											<mediatype>audio</mediatype>
											<trackindex>2</trackindex>
											<clipindex>1</clipindex>
											<groupindex>1</groupindex>
										</link>
									</clipitem>
								</track>
								<track>
									<clipitem id="clipitem-754">
										<masterclipid>masterclip-191</masterclipid>
										<name>ES_goldentouch (Instrumental Version) - dasloe.mp3</name>
										<rate>
											<timebase>30</timebase>
											<ntsc>TRUE</ntsc>
										</rate>
										<file id="file-189"/>
										<sourcetrack>
											<mediatype>audio</mediatype>
											<trackindex>2</trackindex>
										</sourcetrack>
										<link>
											<linkclipref>clipitem-753</linkclipref>
											<mediatype>audio</mediatype>
											<trackindex>1</trackindex>
											<clipindex>1</clipindex>
											<groupindex>1</groupindex>
										</link>
										<link>
											<linkclipref>clipitem-754</linkclipref>
											<mediatype>audio</mediatype>
											<trackindex>2</trackindex>
											<clipindex>1</clipindex>
											<groupindex>1</groupindex>
										</link>
									</clipitem>
								</track>
							</audio>
						</media>
						<logginginfo>
							<description></description>
							<scene></scene>
							<shottake></shottake>
							<lognote></lognote>
							<good></good>
							<originalvideofilename></originalvideofilename>
							<originalaudiofilename></originalaudiofilename>
						</logginginfo>
						<colorinfo>
							<lut></lut>
							<lut1></lut1>
							<asc_sop></asc_sop>
							<asc_sat></asc_sat>
							<lut2></lut2>
						</colorinfo>
						<labels>
							<label2>Caribbean</label2>
						</labels>
					</clip>
					<clip id="masterclip-200" explodedTracks="true">
						<uuid>95d134c6-693f-44c9-a72a-46e970d9a852</uuid>
						<masterclipid>masterclip-200</masterclipid>
						<ismasterclip>TRUE</ismasterclip>
						<duration>4318</duration>
						<rate>
							<timebase>30</timebase>
							<ntsc>TRUE</ntsc>
						</rate>
						<out>2583</out>
						<name>ES_Morning Stretch - Timothy Infinite.mp3</name>
						<media>
							<audio>
								<track>
									<clipitem id="clipitem-755">
										<masterclipid>masterclip-200</masterclipid>
										<name>ES_Morning Stretch - Timothy Infinite.mp3</name>
										<rate>
											<timebase>30</timebase>
											<ntsc>TRUE</ntsc>
										</rate>
										<file id="file-197"/>
										<sourcetrack>
											<mediatype>audio</mediatype>
											<trackindex>1</trackindex>
										</sourcetrack>
										<link>
											<linkclipref>clipitem-755</linkclipref>
											<mediatype>audio</mediatype>
											<trackindex>1</trackindex>
											<clipindex>1</clipindex>
											<groupindex>1</groupindex>
										</link>
										<link>
											<linkclipref>clipitem-756</linkclipref>
											<mediatype>audio</mediatype>
											<trackindex>2</trackindex>
											<clipindex>1</clipindex>
											<groupindex>1</groupindex>
										</link>
									</clipitem>
								</track>
								<track>
									<clipitem id="clipitem-756">
										<masterclipid>masterclip-200</masterclipid>
										<name>ES_Morning Stretch - Timothy Infinite.mp3</name>
										<rate>
											<timebase>30</timebase>
											<ntsc>TRUE</ntsc>
										</rate>
										<file id="file-197"/>
										<sourcetrack>
											<mediatype>audio</mediatype>
											<trackindex>2</trackindex>
										</sourcetrack>
										<link>
											<linkclipref>clipitem-755</linkclipref>
											<mediatype>audio</mediatype>
											<trackindex>1</trackindex>
											<clipindex>1</clipindex>
											<groupindex>1</groupindex>
										</link>
										<link>
											<linkclipref>clipitem-756</linkclipref>
											<mediatype>audio</mediatype>
											<trackindex>2</trackindex>
											<clipindex>1</clipindex>
											<groupindex>1</groupindex>
										</link>
									</clipitem>
								</track>
							</audio>
						</media>
						<logginginfo>
							<description></description>
							<scene></scene>
							<shottake></shottake>
							<lognote></lognote>
							<good></good>
							<originalvideofilename></originalvideofilename>
							<originalaudiofilename></originalaudiofilename>
						</logginginfo>
						<colorinfo>
							<lut></lut>
							<lut1></lut1>
							<asc_sop></asc_sop>
							<asc_sat></asc_sat>
							<lut2></lut2>
						</colorinfo>
						<labels>
							<label2>Caribbean</label2>
						</labels>
					</clip>
					<clip id="masterclip-189" explodedTracks="true">
						<uuid>4ff2b794-dc0c-4a55-ad84-3fee5dc5e393</uuid>
						<masterclipid>masterclip-189</masterclipid>
						<ismasterclip>TRUE</ismasterclip>
						<duration>6300</duration>
						<rate>
							<timebase>30</timebase>
							<ntsc>TRUE</ntsc>
						</rate>
						<out>2626</out>
						<name>ES_I Bleed (Instrumental Version) - Vicki Vox.mp3</name>
						<media>
							<audio>
								<track>
									<clipitem id="clipitem-757">
										<masterclipid>masterclip-189</masterclipid>
										<name>ES_I Bleed (Instrumental Version) - Vicki Vox.mp3</name>
										<rate>
											<timebase>30</timebase>
											<ntsc>TRUE</ntsc>
										</rate>
										<file id="file-187"/>
										<sourcetrack>
											<mediatype>audio</mediatype>
											<trackindex>1</trackindex>
										</sourcetrack>
										<link>
											<linkclipref>clipitem-757</linkclipref>
											<mediatype>audio</mediatype>
											<trackindex>1</trackindex>
											<clipindex>1</clipindex>
											<groupindex>1</groupindex>
										</link>
										<link>
											<linkclipref>clipitem-758</linkclipref>
											<mediatype>audio</mediatype>
											<trackindex>2</trackindex>
											<clipindex>1</clipindex>
											<groupindex>1</groupindex>
										</link>
									</clipitem>
								</track>
								<track>
									<clipitem id="clipitem-758">
										<masterclipid>masterclip-189</masterclipid>
										<name>ES_I Bleed (Instrumental Version) - Vicki Vox.mp3</name>
										<rate>
											<timebase>30</timebase>
											<ntsc>TRUE</ntsc>
										</rate>
										<file id="file-187"/>
										<sourcetrack>
											<mediatype>audio</mediatype>
											<trackindex>2</trackindex>
										</sourcetrack>
										<link>
											<linkclipref>clipitem-757</linkclipref>
											<mediatype>audio</mediatype>
											<trackindex>1</trackindex>
											<clipindex>1</clipindex>
											<groupindex>1</groupindex>
										</link>
										<link>
											<linkclipref>clipitem-758</linkclipref>
											<mediatype>audio</mediatype>
											<trackindex>2</trackindex>
											<clipindex>1</clipindex>
											<groupindex>1</groupindex>
										</link>
									</clipitem>
								</track>
							</audio>
						</media>
						<logginginfo>
							<description></description>
							<scene></scene>
							<shottake></shottake>
							<lognote></lognote>
							<good></good>
							<originalvideofilename></originalvideofilename>
							<originalaudiofilename></originalaudiofilename>
						</logginginfo>
						<colorinfo>
							<lut></lut>
							<lut1></lut1>
							<asc_sop></asc_sop>
							<asc_sat></asc_sat>
							<lut2></lut2>
						</colorinfo>
						<labels>
							<label2>Caribbean</label2>
						</labels>
					</clip>
					<clip id="masterclip-218" explodedTracks="true">
						<uuid>eb2779fd-4ea0-44a6-ac01-216dd5dbea6c</uuid>
						<masterclipid>masterclip-218</masterclipid>
						<ismasterclip>TRUE</ismasterclip>
						<duration>3674</duration>
						<rate>
							<timebase>30</timebase>
							<ntsc>TRUE</ntsc>
						</rate>
						<name>ES_Monday Moonwalk - Guustavv.mp3</name>
						<media>
							<audio>
								<track>
									<clipitem id="clipitem-759">
										<masterclipid>masterclip-218</masterclipid>
										<name>ES_Monday Moonwalk - Guustavv.mp3</name>
										<rate>
											<timebase>30</timebase>
											<ntsc>TRUE</ntsc>
										</rate>
										<file id="file-215">
											<name>ES_Monday Moonwalk - Guustavv.mp3</name>
											<pathurl>file://localhost/Volumes/ATM%201/EYE%20CANDY/8%3a21%3a23/5_Assets/Music/ES_Monday%20Moonwalk%20-%20Guustavv.mp3</pathurl>
											<rate>
												<timebase>30</timebase>
												<ntsc>TRUE</ntsc>
											</rate>
											<duration>3674</duration>
											<timecode>
												<rate>
													<timebase>30</timebase>
													<ntsc>TRUE</ntsc>
												</rate>
												<string>00;00;00;00</string>
												<frame>0</frame>
												<displayformat>DF</displayformat>
											</timecode>
											<media>
												<audio>
													<samplecharacteristics>
														<depth>16</depth>
														<samplerate>48000</samplerate>
													</samplecharacteristics>
													<channelcount>2</channelcount>
												</audio>
											</media>
										</file>
										<sourcetrack>
											<mediatype>audio</mediatype>
											<trackindex>1</trackindex>
										</sourcetrack>
										<link>
											<linkclipref>clipitem-759</linkclipref>
											<mediatype>audio</mediatype>
											<trackindex>1</trackindex>
											<clipindex>1</clipindex>
											<groupindex>1</groupindex>
										</link>
										<link>
											<linkclipref>clipitem-760</linkclipref>
											<mediatype>audio</mediatype>
											<trackindex>2</trackindex>
											<clipindex>1</clipindex>
											<groupindex>1</groupindex>
										</link>
									</clipitem>
								</track>
								<track>
									<clipitem id="clipitem-760">
										<masterclipid>masterclip-218</masterclipid>
										<name>ES_Monday Moonwalk - Guustavv.mp3</name>
										<rate>
											<timebase>30</timebase>
											<ntsc>TRUE</ntsc>
										</rate>
										<file id="file-215"/>
										<sourcetrack>
											<mediatype>audio</mediatype>
											<trackindex>2</trackindex>
										</sourcetrack>
										<link>
											<linkclipref>clipitem-759</linkclipref>
											<mediatype>audio</mediatype>
											<trackindex>1</trackindex>
											<clipindex>1</clipindex>
											<groupindex>1</groupindex>
										</link>
										<link>
											<linkclipref>clipitem-760</linkclipref>
											<mediatype>audio</mediatype>
											<trackindex>2</trackindex>
											<clipindex>1</clipindex>
											<groupindex>1</groupindex>
										</link>
									</clipitem>
								</track>
							</audio>
						</media>
						<logginginfo>
							<description></description>
							<scene></scene>
							<shottake></shottake>
							<lognote></lognote>
							<good></good>
							<originalvideofilename></originalvideofilename>
							<originalaudiofilename></originalaudiofilename>
						</logginginfo>
						<colorinfo>
							<lut></lut>
							<lut1></lut1>
							<asc_sop></asc_sop>
							<asc_sat></asc_sat>
							<lut2></lut2>
						</colorinfo>
						<labels>
							<label2>Caribbean</label2>
						</labels>
					</clip>
					<clip id="masterclip-193" explodedTracks="true">
						<uuid>2cda264e-4a05-4d73-a967-31b60a3d6714</uuid>
						<masterclipid>masterclip-193</masterclipid>
						<ismasterclip>TRUE</ismasterclip>
						<duration>6185</duration>
						<rate>
							<timebase>30</timebase>
							<ntsc>TRUE</ntsc>
						</rate>
						<out>2752</out>
						<name>ES_Lose Control Now - FLYIN.mp3</name>
						<media>
							<audio>
								<track>
									<clipitem id="clipitem-761">
										<masterclipid>masterclip-193</masterclipid>
										<name>ES_Lose Control Now - FLYIN.mp3</name>
										<rate>
											<timebase>30</timebase>
											<ntsc>TRUE</ntsc>
										</rate>
										<file id="file-191"/>
										<sourcetrack>
											<mediatype>audio</mediatype>
											<trackindex>1</trackindex>
										</sourcetrack>
										<link>
											<linkclipref>clipitem-761</linkclipref>
											<mediatype>audio</mediatype>
											<trackindex>1</trackindex>
											<clipindex>1</clipindex>
											<groupindex>1</groupindex>
										</link>
										<link>
											<linkclipref>clipitem-762</linkclipref>
											<mediatype>audio</mediatype>
											<trackindex>2</trackindex>
											<clipindex>1</clipindex>
											<groupindex>1</groupindex>
										</link>
									</clipitem>
								</track>
								<track>
									<clipitem id="clipitem-762">
										<masterclipid>masterclip-193</masterclipid>
										<name>ES_Lose Control Now - FLYIN.mp3</name>
										<rate>
											<timebase>30</timebase>
											<ntsc>TRUE</ntsc>
										</rate>
										<file id="file-191"/>
										<sourcetrack>
											<mediatype>audio</mediatype>
											<trackindex>2</trackindex>
										</sourcetrack>
										<link>
											<linkclipref>clipitem-761</linkclipref>
											<mediatype>audio</mediatype>
											<trackindex>1</trackindex>
											<clipindex>1</clipindex>
											<groupindex>1</groupindex>
										</link>
										<link>
											<linkclipref>clipitem-762</linkclipref>
											<mediatype>audio</mediatype>
											<trackindex>2</trackindex>
											<clipindex>1</clipindex>
											<groupindex>1</groupindex>
										</link>
									</clipitem>
								</track>
							</audio>
						</media>
						<logginginfo>
							<description></description>
							<scene></scene>
							<shottake></shottake>
							<lognote></lognote>
							<good></good>
							<originalvideofilename></originalvideofilename>
							<originalaudiofilename></originalaudiofilename>
						</logginginfo>
						<colorinfo>
							<lut></lut>
							<lut1></lut1>
							<asc_sop></asc_sop>
							<asc_sat></asc_sat>
							<lut2></lut2>
						</colorinfo>
						<labels>
							<label2>Caribbean</label2>
						</labels>
					</clip>
					<clip id="masterclip-181" explodedTracks="true">
						<uuid>76cd2ee2-979d-4d70-94db-03e107b13d63</uuid>
						<masterclipid>masterclip-181</masterclipid>
						<ismasterclip>TRUE</ismasterclip>
						<duration>8973</duration>
						<rate>
							<timebase>30</timebase>
							<ntsc>TRUE</ntsc>
						</rate>
						<out>1749</out>
						<name>ES_Lonely Morning - Sven Lindvall.mp3</name>
						<media>
							<audio>
								<track>
									<clipitem id="clipitem-763">
										<masterclipid>masterclip-181</masterclipid>
										<name>ES_Lonely Morning - Sven Lindvall.mp3</name>
										<rate>
											<timebase>30</timebase>
											<ntsc>TRUE</ntsc>
										</rate>
										<file id="file-179"/>
										<sourcetrack>
											<mediatype>audio</mediatype>
											<trackindex>1</trackindex>
										</sourcetrack>
										<link>
											<linkclipref>clipitem-763</linkclipref>
											<mediatype>audio</mediatype>
											<trackindex>1</trackindex>
											<clipindex>1</clipindex>
											<groupindex>1</groupindex>
										</link>
										<link>
											<linkclipref>clipitem-764</linkclipref>
											<mediatype>audio</mediatype>
											<trackindex>2</trackindex>
											<clipindex>1</clipindex>
											<groupindex>1</groupindex>
										</link>
									</clipitem>
								</track>
								<track>
									<clipitem id="clipitem-764">
										<masterclipid>masterclip-181</masterclipid>
										<name>ES_Lonely Morning - Sven Lindvall.mp3</name>
										<rate>
											<timebase>30</timebase>
											<ntsc>TRUE</ntsc>
										</rate>
										<file id="file-179"/>
										<sourcetrack>
											<mediatype>audio</mediatype>
											<trackindex>2</trackindex>
										</sourcetrack>
										<link>
											<linkclipref>clipitem-763</linkclipref>
											<mediatype>audio</mediatype>
											<trackindex>1</trackindex>
											<clipindex>1</clipindex>
											<groupindex>1</groupindex>
										</link>
										<link>
											<linkclipref>clipitem-764</linkclipref>
											<mediatype>audio</mediatype>
											<trackindex>2</trackindex>
											<clipindex>1</clipindex>
											<groupindex>1</groupindex>
										</link>
									</clipitem>
								</track>
							</audio>
						</media>
						<logginginfo>
							<description></description>
							<scene></scene>
							<shottake></shottake>
							<lognote></lognote>
							<good></good>
							<originalvideofilename></originalvideofilename>
							<originalaudiofilename></originalaudiofilename>
						</logginginfo>
						<colorinfo>
							<lut></lut>
							<lut1></lut1>
							<asc_sop></asc_sop>
							<asc_sat></asc_sat>
							<lut2></lut2>
						</colorinfo>
						<labels>
							<label2>Caribbean</label2>
						</labels>
					</clip>
					<clip id="masterclip-184" explodedTracks="true">
						<uuid>c2a4f210-a2d5-4efe-a35c-d97a503926db</uuid>
						<masterclipid>masterclip-184</masterclipid>
						<ismasterclip>TRUE</ismasterclip>
						<duration>5098</duration>
						<rate>
							<timebase>30</timebase>
							<ntsc>TRUE</ntsc>
						</rate>
						<out>2046</out>
						<name>ES_Pool Sticker - Dylan Sitts.mp3</name>
						<media>
							<audio>
								<track>
									<clipitem id="clipitem-765">
										<masterclipid>masterclip-184</masterclipid>
										<name>ES_Pool Sticker - Dylan Sitts.mp3</name>
										<rate>
											<timebase>30</timebase>
											<ntsc>TRUE</ntsc>
										</rate>
										<file id="file-182"/>
										<sourcetrack>
											<mediatype>audio</mediatype>
											<trackindex>1</trackindex>
										</sourcetrack>
										<link>
											<linkclipref>clipitem-765</linkclipref>
											<mediatype>audio</mediatype>
											<trackindex>1</trackindex>
											<clipindex>1</clipindex>
											<groupindex>1</groupindex>
										</link>
										<link>
											<linkclipref>clipitem-766</linkclipref>
											<mediatype>audio</mediatype>
											<trackindex>2</trackindex>
											<clipindex>1</clipindex>
											<groupindex>1</groupindex>
										</link>
									</clipitem>
								</track>
								<track>
									<clipitem id="clipitem-766">
										<masterclipid>masterclip-184</masterclipid>
										<name>ES_Pool Sticker - Dylan Sitts.mp3</name>
										<rate>
											<timebase>30</timebase>
											<ntsc>TRUE</ntsc>
										</rate>
										<file id="file-182"/>
										<sourcetrack>
											<mediatype>audio</mediatype>
											<trackindex>2</trackindex>
										</sourcetrack>
										<link>
											<linkclipref>clipitem-765</linkclipref>
											<mediatype>audio</mediatype>
											<trackindex>1</trackindex>
											<clipindex>1</clipindex>
											<groupindex>1</groupindex>
										</link>
										<link>
											<linkclipref>clipitem-766</linkclipref>
											<mediatype>audio</mediatype>
											<trackindex>2</trackindex>
											<clipindex>1</clipindex>
											<groupindex>1</groupindex>
										</link>
									</clipitem>
								</track>
							</audio>
						</media>
						<logginginfo>
							<description></description>
							<scene></scene>
							<shottake></shottake>
							<lognote></lognote>
							<good></good>
							<originalvideofilename></originalvideofilename>
							<originalaudiofilename></originalaudiofilename>
						</logginginfo>
						<colorinfo>
							<lut></lut>
							<lut1></lut1>
							<asc_sop></asc_sop>
							<asc_sat></asc_sat>
							<lut2></lut2>
						</colorinfo>
						<labels>
							<label2>Caribbean</label2>
						</labels>
					</clip>
					<clip id="masterclip-182" explodedTracks="true">
						<uuid>09fde8aa-302c-4729-815c-30cddd167cf1</uuid>
						<masterclipid>masterclip-182</masterclipid>
						<ismasterclip>TRUE</ismasterclip>
						<duration>5345</duration>
						<rate>
							<timebase>30</timebase>
							<ntsc>TRUE</ntsc>
						</rate>
						<out>1900</out>
						<name>ES_Time Out (Instrumental Version) - Adelyn Paik.mp3</name>
						<media>
							<audio>
								<track>
									<clipitem id="clipitem-767">
										<masterclipid>masterclip-182</masterclipid>
										<name>ES_Time Out (Instrumental Version) - Adelyn Paik.mp3</name>
										<rate>
											<timebase>30</timebase>
											<ntsc>TRUE</ntsc>
										</rate>
										<file id="file-180"/>
										<sourcetrack>
											<mediatype>audio</mediatype>
											<trackindex>1</trackindex>
										</sourcetrack>
										<link>
											<linkclipref>clipitem-767</linkclipref>
											<mediatype>audio</mediatype>
											<trackindex>1</trackindex>
											<clipindex>1</clipindex>
											<groupindex>1</groupindex>
										</link>
										<link>
											<linkclipref>clipitem-768</linkclipref>
											<mediatype>audio</mediatype>
											<trackindex>2</trackindex>
											<clipindex>1</clipindex>
											<groupindex>1</groupindex>
										</link>
									</clipitem>
								</track>
								<track>
									<clipitem id="clipitem-768">
										<masterclipid>masterclip-182</masterclipid>
										<name>ES_Time Out (Instrumental Version) - Adelyn Paik.mp3</name>
										<rate>
											<timebase>30</timebase>
											<ntsc>TRUE</ntsc>
										</rate>
										<file id="file-180"/>
										<sourcetrack>
											<mediatype>audio</mediatype>
											<trackindex>2</trackindex>
										</sourcetrack>
										<link>
											<linkclipref>clipitem-767</linkclipref>
											<mediatype>audio</mediatype>
											<trackindex>1</trackindex>
											<clipindex>1</clipindex>
											<groupindex>1</groupindex>
										</link>
										<link>
											<linkclipref>clipitem-768</linkclipref>
											<mediatype>audio</mediatype>
											<trackindex>2</trackindex>
											<clipindex>1</clipindex>
											<groupindex>1</groupindex>
										</link>
									</clipitem>
								</track>
							</audio>
						</media>
						<logginginfo>
							<description></description>
							<scene></scene>
							<shottake></shottake>
							<lognote></lognote>
							<good></good>
							<originalvideofilename></originalvideofilename>
							<originalaudiofilename></originalaudiofilename>
						</logginginfo>
						<colorinfo>
							<lut></lut>
							<lut1></lut1>
							<asc_sop></asc_sop>
							<asc_sat></asc_sat>
							<lut2></lut2>
						</colorinfo>
						<labels>
							<label2>Caribbean</label2>
						</labels>
					</clip>
					<clip id="masterclip-202" explodedTracks="true">
						<uuid>9d66f1b3-bf72-49c5-8173-3af9c97f1df0</uuid>
						<masterclipid>masterclip-202</masterclipid>
						<ismasterclip>TRUE</ismasterclip>
						<duration>6093</duration>
						<rate>
							<timebase>30</timebase>
							<ntsc>TRUE</ntsc>
						</rate>
						<out>2007</out>
						<name>ES_Soulagement du Stress - Matt Large.mp3</name>
						<media>
							<audio>
								<track>
									<clipitem id="clipitem-769">
										<masterclipid>masterclip-202</masterclipid>
										<name>ES_Soulagement du Stress - Matt Large.mp3</name>
										<rate>
											<timebase>30</timebase>
											<ntsc>TRUE</ntsc>
										</rate>
										<file id="file-199"/>
										<sourcetrack>
											<mediatype>audio</mediatype>
											<trackindex>1</trackindex>
										</sourcetrack>
										<link>
											<linkclipref>clipitem-769</linkclipref>
											<mediatype>audio</mediatype>
											<trackindex>1</trackindex>
											<clipindex>1</clipindex>
											<groupindex>1</groupindex>
										</link>
										<link>
											<linkclipref>clipitem-770</linkclipref>
											<mediatype>audio</mediatype>
											<trackindex>2</trackindex>
											<clipindex>1</clipindex>
											<groupindex>1</groupindex>
										</link>
									</clipitem>
								</track>
								<track>
									<clipitem id="clipitem-770">
										<masterclipid>masterclip-202</masterclipid>
										<name>ES_Soulagement du Stress - Matt Large.mp3</name>
										<rate>
											<timebase>30</timebase>
											<ntsc>TRUE</ntsc>
										</rate>
										<file id="file-199"/>
										<sourcetrack>
											<mediatype>audio</mediatype>
											<trackindex>2</trackindex>
										</sourcetrack>
										<link>
											<linkclipref>clipitem-769</linkclipref>
											<mediatype>audio</mediatype>
											<trackindex>1</trackindex>
											<clipindex>1</clipindex>
											<groupindex>1</groupindex>
										</link>
										<link>
											<linkclipref>clipitem-770</linkclipref>
											<mediatype>audio</mediatype>
											<trackindex>2</trackindex>
											<clipindex>1</clipindex>
											<groupindex>1</groupindex>
										</link>
									</clipitem>
								</track>
							</audio>
						</media>
						<logginginfo>
							<description></description>
							<scene></scene>
							<shottake></shottake>
							<lognote></lognote>
							<good></good>
							<originalvideofilename></originalvideofilename>
							<originalaudiofilename></originalaudiofilename>
						</logginginfo>
						<colorinfo>
							<lut></lut>
							<lut1></lut1>
							<asc_sop></asc_sop>
							<asc_sat></asc_sat>
							<lut2></lut2>
						</colorinfo>
						<labels>
							<label2>Caribbean</label2>
						</labels>
					</clip>
					<clip id="masterclip-204" explodedTracks="true">
						<uuid>82a6e7b1-a7fc-4532-bbfa-cf29ed47bf1e</uuid>
						<masterclipid>masterclip-204</masterclipid>
						<ismasterclip>TRUE</ismasterclip>
						<duration>5338</duration>
						<rate>
							<timebase>30</timebase>
							<ntsc>TRUE</ntsc>
						</rate>
						<out>3366</out>
						<name>ES_Side 2 Side (Instrumental Version) - Filthy The Kid.mp3</name>
						<media>
							<audio>
								<track>
									<clipitem id="clipitem-771">
										<masterclipid>masterclip-204</masterclipid>
										<name>ES_Side 2 Side (Instrumental Version) - Filthy The Kid.mp3</name>
										<rate>
											<timebase>30</timebase>
											<ntsc>TRUE</ntsc>
										</rate>
										<file id="file-201"/>
										<sourcetrack>
											<mediatype>audio</mediatype>
											<trackindex>1</trackindex>
										</sourcetrack>
										<link>
											<linkclipref>clipitem-771</linkclipref>
											<mediatype>audio</mediatype>
											<trackindex>1</trackindex>
											<clipindex>1</clipindex>
											<groupindex>1</groupindex>
										</link>
										<link>
											<linkclipref>clipitem-772</linkclipref>
											<mediatype>audio</mediatype>
											<trackindex>2</trackindex>
											<clipindex>1</clipindex>
											<groupindex>1</groupindex>
										</link>
									</clipitem>
								</track>
								<track>
									<clipitem id="clipitem-772">
										<masterclipid>masterclip-204</masterclipid>
										<name>ES_Side 2 Side (Instrumental Version) - Filthy The Kid.mp3</name>
										<rate>
											<timebase>30</timebase>
											<ntsc>TRUE</ntsc>
										</rate>
										<file id="file-201"/>
										<sourcetrack>
											<mediatype>audio</mediatype>
											<trackindex>2</trackindex>
										</sourcetrack>
										<link>
											<linkclipref>clipitem-771</linkclipref>
											<mediatype>audio</mediatype>
											<trackindex>1</trackindex>
											<clipindex>1</clipindex>
											<groupindex>1</groupindex>
										</link>
										<link>
											<linkclipref>clipitem-772</linkclipref>
											<mediatype>audio</mediatype>
											<trackindex>2</trackindex>
											<clipindex>1</clipindex>
											<groupindex>1</groupindex>
										</link>
									</clipitem>
								</track>
							</audio>
						</media>
						<logginginfo>
							<description></description>
							<scene></scene>
							<shottake></shottake>
							<lognote></lognote>
							<good></good>
							<originalvideofilename></originalvideofilename>
							<originalaudiofilename></originalaudiofilename>
						</logginginfo>
						<colorinfo>
							<lut></lut>
							<lut1></lut1>
							<asc_sop></asc_sop>
							<asc_sat></asc_sat>
							<lut2></lut2>
						</colorinfo>
						<labels>
							<label2>Caribbean</label2>
						</labels>
					</clip>
					<clip id="masterclip-170" explodedTracks="true">
						<uuid>b333f485-2b6e-4163-a816-9d722af38945</uuid>
						<masterclipid>masterclip-170</masterclipid>
						<ismasterclip>TRUE</ismasterclip>
						<duration>6952</duration>
						<rate>
							<timebase>30</timebase>
							<ntsc>TRUE</ntsc>
						</rate>
						<out>2123</out>
						<name>ES_Purple Sunset - Heyson.mp3</name>
						<media>
							<audio>
								<track>
									<clipitem id="clipitem-773">
										<masterclipid>masterclip-170</masterclipid>
										<name>ES_Purple Sunset - Heyson.mp3</name>
										<rate>
											<timebase>30</timebase>
											<ntsc>TRUE</ntsc>
										</rate>
										<file id="file-170"/>
										<sourcetrack>
											<mediatype>audio</mediatype>
											<trackindex>1</trackindex>
										</sourcetrack>
										<link>
											<linkclipref>clipitem-773</linkclipref>
											<mediatype>audio</mediatype>
											<trackindex>1</trackindex>
											<clipindex>1</clipindex>
											<groupindex>1</groupindex>
										</link>
										<link>
											<linkclipref>clipitem-774</linkclipref>
											<mediatype>audio</mediatype>
											<trackindex>2</trackindex>
											<clipindex>1</clipindex>
											<groupindex>1</groupindex>
										</link>
									</clipitem>
								</track>
								<track>
									<clipitem id="clipitem-774">
										<masterclipid>masterclip-170</masterclipid>
										<name>ES_Purple Sunset - Heyson.mp3</name>
										<rate>
											<timebase>30</timebase>
											<ntsc>TRUE</ntsc>
										</rate>
										<file id="file-170"/>
										<sourcetrack>
											<mediatype>audio</mediatype>
											<trackindex>2</trackindex>
										</sourcetrack>
										<link>
											<linkclipref>clipitem-773</linkclipref>
											<mediatype>audio</mediatype>
											<trackindex>1</trackindex>
											<clipindex>1</clipindex>
											<groupindex>1</groupindex>
										</link>
										<link>
											<linkclipref>clipitem-774</linkclipref>
											<mediatype>audio</mediatype>
											<trackindex>2</trackindex>
											<clipindex>1</clipindex>
											<groupindex>1</groupindex>
										</link>
									</clipitem>
								</track>
							</audio>
						</media>
						<logginginfo>
							<description></description>
							<scene></scene>
							<shottake></shottake>
							<lognote></lognote>
							<good></good>
							<originalvideofilename></originalvideofilename>
							<originalaudiofilename></originalaudiofilename>
						</logginginfo>
						<colorinfo>
							<lut></lut>
							<lut1></lut1>
							<asc_sop></asc_sop>
							<asc_sat></asc_sat>
							<lut2></lut2>
						</colorinfo>
						<labels>
							<label2>Caribbean</label2>
						</labels>
					</clip>
					<clip id="masterclip-205" explodedTracks="true">
						<uuid>b3e616d0-d3d4-415e-b4e5-e51623a75d5d</uuid>
						<masterclipid>masterclip-205</masterclipid>
						<ismasterclip>TRUE</ismasterclip>
						<duration>4243</duration>
						<rate>
							<timebase>30</timebase>
							<ntsc>TRUE</ntsc>
						</rate>
						<out>1773</out>
						<name>ES_Round on Me - Justnormal.mp3</name>
						<media>
							<audio>
								<track>
									<clipitem id="clipitem-775">
										<masterclipid>masterclip-205</masterclipid>
										<name>ES_Round on Me - Justnormal.mp3</name>
										<rate>
											<timebase>30</timebase>
											<ntsc>TRUE</ntsc>
										</rate>
										<file id="file-202"/>
										<sourcetrack>
											<mediatype>audio</mediatype>
											<trackindex>1</trackindex>
										</sourcetrack>
										<link>
											<linkclipref>clipitem-775</linkclipref>
											<mediatype>audio</mediatype>
											<trackindex>1</trackindex>
											<clipindex>1</clipindex>
											<groupindex>1</groupindex>
										</link>
										<link>
											<linkclipref>clipitem-776</linkclipref>
											<mediatype>audio</mediatype>
											<trackindex>2</trackindex>
											<clipindex>1</clipindex>
											<groupindex>1</groupindex>
										</link>
									</clipitem>
								</track>
								<track>
									<clipitem id="clipitem-776">
										<masterclipid>masterclip-205</masterclipid>
										<name>ES_Round on Me - Justnormal.mp3</name>
										<rate>
											<timebase>30</timebase>
											<ntsc>TRUE</ntsc>
										</rate>
										<file id="file-202"/>
										<sourcetrack>
											<mediatype>audio</mediatype>
											<trackindex>2</trackindex>
										</sourcetrack>
										<link>
											<linkclipref>clipitem-775</linkclipref>
											<mediatype>audio</mediatype>
											<trackindex>1</trackindex>
											<clipindex>1</clipindex>
											<groupindex>1</groupindex>
										</link>
										<link>
											<linkclipref>clipitem-776</linkclipref>
											<mediatype>audio</mediatype>
											<trackindex>2</trackindex>
											<clipindex>1</clipindex>
											<groupindex>1</groupindex>
										</link>
									</clipitem>
								</track>
							</audio>
						</media>
						<logginginfo>
							<description></description>
							<scene></scene>
							<shottake></shottake>
							<lognote></lognote>
							<good></good>
							<originalvideofilename></originalvideofilename>
							<originalaudiofilename></originalaudiofilename>
						</logginginfo>
						<colorinfo>
							<lut></lut>
							<lut1></lut1>
							<asc_sop></asc_sop>
							<asc_sat></asc_sat>
							<lut2></lut2>
						</colorinfo>
						<labels>
							<label2>Caribbean</label2>
						</labels>
					</clip>
					<clip id="masterclip-185" explodedTracks="true">
						<uuid>54676051-c79b-4cd5-8601-83fa1d6200fb</uuid>
						<masterclipid>masterclip-185</masterclipid>
						<ismasterclip>TRUE</ismasterclip>
						<duration>5465</duration>
						<rate>
							<timebase>30</timebase>
							<ntsc>TRUE</ntsc>
						</rate>
						<out>1453</out>
						<name>ES_fly on up - Gregory David.mp3</name>
						<media>
							<audio>
								<track>
									<clipitem id="clipitem-777">
										<masterclipid>masterclip-185</masterclipid>
										<name>ES_fly on up - Gregory David.mp3</name>
										<rate>
											<timebase>30</timebase>
											<ntsc>TRUE</ntsc>
										</rate>
										<file id="file-183"/>
										<sourcetrack>
											<mediatype>audio</mediatype>
											<trackindex>1</trackindex>
										</sourcetrack>
										<link>
											<linkclipref>clipitem-777</linkclipref>
											<mediatype>audio</mediatype>
											<trackindex>1</trackindex>
											<clipindex>1</clipindex>
											<groupindex>1</groupindex>
										</link>
										<link>
											<linkclipref>clipitem-778</linkclipref>
											<mediatype>audio</mediatype>
											<trackindex>2</trackindex>
											<clipindex>1</clipindex>
											<groupindex>1</groupindex>
										</link>
									</clipitem>
								</track>
								<track>
									<clipitem id="clipitem-778">
										<masterclipid>masterclip-185</masterclipid>
										<name>ES_fly on up - Gregory David.mp3</name>
										<rate>
											<timebase>30</timebase>
											<ntsc>TRUE</ntsc>
										</rate>
										<file id="file-183"/>
										<sourcetrack>
											<mediatype>audio</mediatype>
											<trackindex>2</trackindex>
										</sourcetrack>
										<link>
											<linkclipref>clipitem-777</linkclipref>
											<mediatype>audio</mediatype>
											<trackindex>1</trackindex>
											<clipindex>1</clipindex>
											<groupindex>1</groupindex>
										</link>
										<link>
											<linkclipref>clipitem-778</linkclipref>
											<mediatype>audio</mediatype>
											<trackindex>2</trackindex>
											<clipindex>1</clipindex>
											<groupindex>1</groupindex>
										</link>
									</clipitem>
								</track>
							</audio>
						</media>
						<logginginfo>
							<description></description>
							<scene></scene>
							<shottake></shottake>
							<lognote></lognote>
							<good></good>
							<originalvideofilename></originalvideofilename>
							<originalaudiofilename></originalaudiofilename>
						</logginginfo>
						<colorinfo>
							<lut></lut>
							<lut1></lut1>
							<asc_sop></asc_sop>
							<asc_sat></asc_sat>
							<lut2></lut2>
						</colorinfo>
						<labels>
							<label2>Caribbean</label2>
						</labels>
					</clip>
					<clip id="masterclip-173" explodedTracks="true">
						<uuid>ce99e369-ea57-4025-a6f9-71628266c147</uuid>
						<masterclipid>masterclip-173</masterclipid>
						<ismasterclip>TRUE</ismasterclip>
						<duration>6022</duration>
						<rate>
							<timebase>30</timebase>
							<ntsc>TRUE</ntsc>
						</rate>
						<name>ES_Harmonies - Ben Elson.mp3</name>
						<media>
							<audio>
								<track>
									<clipitem id="clipitem-779">
										<masterclipid>masterclip-173</masterclipid>
										<name>ES_Harmonies - Ben Elson.mp3</name>
										<rate>
											<timebase>30</timebase>
											<ntsc>TRUE</ntsc>
										</rate>
										<file id="file-172"/>
										<sourcetrack>
											<mediatype>audio</mediatype>
											<trackindex>1</trackindex>
										</sourcetrack>
										<link>
											<linkclipref>clipitem-779</linkclipref>
											<mediatype>audio</mediatype>
											<trackindex>1</trackindex>
											<clipindex>1</clipindex>
											<groupindex>1</groupindex>
										</link>
										<link>
											<linkclipref>clipitem-780</linkclipref>
											<mediatype>audio</mediatype>
											<trackindex>2</trackindex>
											<clipindex>1</clipindex>
											<groupindex>1</groupindex>
										</link>
									</clipitem>
								</track>
								<track>
									<clipitem id="clipitem-780">
										<masterclipid>masterclip-173</masterclipid>
										<name>ES_Harmonies - Ben Elson.mp3</name>
										<rate>
											<timebase>30</timebase>
											<ntsc>TRUE</ntsc>
										</rate>
										<file id="file-172"/>
										<sourcetrack>
											<mediatype>audio</mediatype>
											<trackindex>2</trackindex>
										</sourcetrack>
										<link>
											<linkclipref>clipitem-779</linkclipref>
											<mediatype>audio</mediatype>
											<trackindex>1</trackindex>
											<clipindex>1</clipindex>
											<groupindex>1</groupindex>
										</link>
										<link>
											<linkclipref>clipitem-780</linkclipref>
											<mediatype>audio</mediatype>
											<trackindex>2</trackindex>
											<clipindex>1</clipindex>
											<groupindex>1</groupindex>
										</link>
									</clipitem>
								</track>
							</audio>
						</media>
						<logginginfo>
							<description></description>
							<scene></scene>
							<shottake></shottake>
							<lognote></lognote>
							<good></good>
							<originalvideofilename></originalvideofilename>
							<originalaudiofilename></originalaudiofilename>
						</logginginfo>
						<colorinfo>
							<lut></lut>
							<lut1></lut1>
							<asc_sop></asc_sop>
							<asc_sat></asc_sat>
							<lut2></lut2>
						</colorinfo>
						<labels>
							<label2>Caribbean</label2>
						</labels>
					</clip>
					<clip id="masterclip-186" explodedTracks="true">
						<uuid>c6d5a1f9-7867-49f9-a0c8-db9ef6676159</uuid>
						<masterclipid>masterclip-186</masterclipid>
						<ismasterclip>TRUE</ismasterclip>
						<duration>5754</duration>
						<rate>
							<timebase>30</timebase>
							<ntsc>TRUE</ntsc>
						</rate>
						<out>3238</out>
						<name>ES_Icecold - FLYIN.mp3</name>
						<media>
							<audio>
								<track>
									<clipitem id="clipitem-781">
										<masterclipid>masterclip-186</masterclipid>
										<name>ES_Icecold - FLYIN.mp3</name>
										<rate>
											<timebase>30</timebase>
											<ntsc>TRUE</ntsc>
										</rate>
										<file id="file-184"/>
										<sourcetrack>
											<mediatype>audio</mediatype>
											<trackindex>1</trackindex>
										</sourcetrack>
										<link>
											<linkclipref>clipitem-781</linkclipref>
											<mediatype>audio</mediatype>
											<trackindex>1</trackindex>
											<clipindex>1</clipindex>
											<groupindex>1</groupindex>
										</link>
										<link>
											<linkclipref>clipitem-782</linkclipref>
											<mediatype>audio</mediatype>
											<trackindex>2</trackindex>
											<clipindex>1</clipindex>
											<groupindex>1</groupindex>
										</link>
									</clipitem>
								</track>
								<track>
									<clipitem id="clipitem-782">
										<masterclipid>masterclip-186</masterclipid>
										<name>ES_Icecold - FLYIN.mp3</name>
										<rate>
											<timebase>30</timebase>
											<ntsc>TRUE</ntsc>
										</rate>
										<file id="file-184"/>
										<sourcetrack>
											<mediatype>audio</mediatype>
											<trackindex>2</trackindex>
										</sourcetrack>
										<link>
											<linkclipref>clipitem-781</linkclipref>
											<mediatype>audio</mediatype>
											<trackindex>1</trackindex>
											<clipindex>1</clipindex>
											<groupindex>1</groupindex>
										</link>
										<link>
											<linkclipref>clipitem-782</linkclipref>
											<mediatype>audio</mediatype>
											<trackindex>2</trackindex>
											<clipindex>1</clipindex>
											<groupindex>1</groupindex>
										</link>
									</clipitem>
								</track>
							</audio>
						</media>
						<logginginfo>
							<description></description>
							<scene></scene>
							<shottake></shottake>
							<lognote></lognote>
							<good></good>
							<originalvideofilename></originalvideofilename>
							<originalaudiofilename></originalaudiofilename>
						</logginginfo>
						<colorinfo>
							<lut></lut>
							<lut1></lut1>
							<asc_sop></asc_sop>
							<asc_sat></asc_sat>
							<lut2></lut2>
						</colorinfo>
						<labels>
							<label2>Caribbean</label2>
						</labels>
					</clip>
					<clip id="masterclip-201" explodedTracks="true">
						<uuid>ab0f3619-bc40-4cf7-9483-b60619f695dc</uuid>
						<masterclipid>masterclip-201</masterclipid>
						<ismasterclip>TRUE</ismasterclip>
						<duration>6704</duration>
						<rate>
							<timebase>30</timebase>
							<ntsc>TRUE</ntsc>
						</rate>
						<out>2725</out>
						<name>ES_Grandmas Cookies - Henyao.mp3</name>
						<media>
							<audio>
								<track>
									<clipitem id="clipitem-783">
										<masterclipid>masterclip-201</masterclipid>
										<name>ES_Grandmas Cookies - Henyao.mp3</name>
										<rate>
											<timebase>30</timebase>
											<ntsc>TRUE</ntsc>
										</rate>
										<file id="file-198"/>
										<sourcetrack>
											<mediatype>audio</mediatype>
											<trackindex>1</trackindex>
										</sourcetrack>
										<link>
											<linkclipref>clipitem-783</linkclipref>
											<mediatype>audio</mediatype>
											<trackindex>1</trackindex>
											<clipindex>1</clipindex>
											<groupindex>1</groupindex>
										</link>
										<link>
											<linkclipref>clipitem-784</linkclipref>
											<mediatype>audio</mediatype>
											<trackindex>2</trackindex>
											<clipindex>1</clipindex>
											<groupindex>1</groupindex>
										</link>
									</clipitem>
								</track>
								<track>
									<clipitem id="clipitem-784">
										<masterclipid>masterclip-201</masterclipid>
										<name>ES_Grandmas Cookies - Henyao.mp3</name>
										<rate>
											<timebase>30</timebase>
											<ntsc>TRUE</ntsc>
										</rate>
										<file id="file-198"/>
										<sourcetrack>
											<mediatype>audio</mediatype>
											<trackindex>2</trackindex>
										</sourcetrack>
										<link>
											<linkclipref>clipitem-783</linkclipref>
											<mediatype>audio</mediatype>
											<trackindex>1</trackindex>
											<clipindex>1</clipindex>
											<groupindex>1</groupindex>
										</link>
										<link>
											<linkclipref>clipitem-784</linkclipref>
											<mediatype>audio</mediatype>
											<trackindex>2</trackindex>
											<clipindex>1</clipindex>
											<groupindex>1</groupindex>
										</link>
									</clipitem>
								</track>
							</audio>
						</media>
						<logginginfo>
							<description></description>
							<scene></scene>
							<shottake></shottake>
							<lognote></lognote>
							<good></good>
							<originalvideofilename></originalvideofilename>
							<originalaudiofilename></originalaudiofilename>
						</logginginfo>
						<colorinfo>
							<lut></lut>
							<lut1></lut1>
							<asc_sop></asc_sop>
							<asc_sat></asc_sat>
							<lut2></lut2>
						</colorinfo>
						<labels>
							<label2>Caribbean</label2>
						</labels>
					</clip>
					<clip id="masterclip-199" explodedTracks="true">
						<uuid>208d3476-4399-4275-9f50-102b2fc9bfcd</uuid>
						<masterclipid>masterclip-199</masterclipid>
						<ismasterclip>TRUE</ismasterclip>
						<duration>3980</duration>
						<rate>
							<timebase>30</timebase>
							<ntsc>TRUE</ntsc>
						</rate>
						<name>ES_Get in and Go - Dream Cave.mp3</name>
						<media>
							<audio>
								<track>
									<clipitem id="clipitem-785">
										<masterclipid>masterclip-199</masterclipid>
										<name>ES_Get in and Go - Dream Cave.mp3</name>
										<rate>
											<timebase>30</timebase>
											<ntsc>TRUE</ntsc>
										</rate>
										<file id="file-196"/>
										<sourcetrack>
											<mediatype>audio</mediatype>
											<trackindex>1</trackindex>
										</sourcetrack>
										<link>
											<linkclipref>clipitem-785</linkclipref>
											<mediatype>audio</mediatype>
											<trackindex>1</trackindex>
											<clipindex>1</clipindex>
											<groupindex>1</groupindex>
										</link>
										<link>
											<linkclipref>clipitem-786</linkclipref>
											<mediatype>audio</mediatype>
											<trackindex>2</trackindex>
											<clipindex>1</clipindex>
											<groupindex>1</groupindex>
										</link>
									</clipitem>
								</track>
								<track>
									<clipitem id="clipitem-786">
										<masterclipid>masterclip-199</masterclipid>
										<name>ES_Get in and Go - Dream Cave.mp3</name>
										<rate>
											<timebase>30</timebase>
											<ntsc>TRUE</ntsc>
										</rate>
										<file id="file-196"/>
										<sourcetrack>
											<mediatype>audio</mediatype>
											<trackindex>2</trackindex>
										</sourcetrack>
										<link>
											<linkclipref>clipitem-785</linkclipref>
											<mediatype>audio</mediatype>
											<trackindex>1</trackindex>
											<clipindex>1</clipindex>
											<groupindex>1</groupindex>
										</link>
										<link>
											<linkclipref>clipitem-786</linkclipref>
											<mediatype>audio</mediatype>
											<trackindex>2</trackindex>
											<clipindex>1</clipindex>
											<groupindex>1</groupindex>
										</link>
									</clipitem>
								</track>
							</audio>
						</media>
						<logginginfo>
							<description></description>
							<scene></scene>
							<shottake></shottake>
							<lognote></lognote>
							<good></good>
							<originalvideofilename></originalvideofilename>
							<originalaudiofilename></originalaudiofilename>
						</logginginfo>
						<colorinfo>
							<lut></lut>
							<lut1></lut1>
							<asc_sop></asc_sop>
							<asc_sat></asc_sat>
							<lut2></lut2>
						</colorinfo>
						<labels>
							<label2>Caribbean</label2>
						</labels>
					</clip>
				</children>
			</bin>
			<bin>
				<name>0_Final Sequences</name>
				<labels>
					<label2>Mango</label2>
				</labels>
				<children>
					<sequence id="sequence-32" TL.SQAudioVisibleBase="0" TL.SQVideoVisibleBase="0" TL.SQVisibleBaseTime="0" TL.SQAVDividerPosition="0.5" TL.SQHideShyTracks="0" TL.SQHeaderWidth="236" TL.SQDataTrackViewControlState="0" Monitor.ProgramZoomOut="42530898009600" Monitor.ProgramZoomIn="0" TL.SQTimePerPixel="0.15700517393524135" AM.TrackVScrollPosition="0" AM.TrackScrollPosition="0" MZ.EditLine="0" MZ.Sequence.PreviewFrameSizeHeight="1080" MZ.Sequence.PreviewFrameSizeWidth="1920" MZ.Sequence.AudioTimeDisplayFormat="200" MZ.Sequence.PreviewRenderingClassID="1061109567" MZ.Sequence.PreviewRenderingPresetCodec="1634755443" MZ.Sequence.PreviewRenderingPresetPath="EncoderPresets/SequencePreview/35d109db-457b-43c1-9452-9cb7be9f121c/QuickTime.epr" MZ.Sequence.PreviewUseMaxRenderQuality="false" MZ.Sequence.PreviewUseMaxBitDepth="false" MZ.Sequence.EditingModeGUID="35d109db-457b-43c1-9452-9cb7be9f121c" MZ.Sequence.VideoTimeDisplayFormat="102" MZ.WorkOutPoint="15239249625600" MZ.WorkInPoint="0" explodedTracks="true">
						<uuid>2ef4c832-cc62-43b0-8fba-7c2ff5a2c27b</uuid>
						<duration>4924</duration>
						<rate>
							<timebase>30</timebase>
							<ntsc>TRUE</ntsc>
						</rate>
						<name>ATM_EYECANDY_246</name>
						<media>
							<video>
								<format>
									<samplecharacteristics>
										<rate>
											<timebase>30</timebase>
											<ntsc>TRUE</ntsc>
										</rate>
										<codec>
											<name>Apple ProRes 422</name>
											<appspecificdata>
												<appname>Final Cut Pro</appname>
												<appmanufacturer>Apple Inc.</appmanufacturer>
												<appversion>7.0</appversion>
												<data>
													<qtcodec>
														<codecname>Apple ProRes 422</codecname>
														<codectypename>Apple ProRes 422</codectypename>
														<codectypecode>apcn</codectypecode>
														<codecvendorcode>appl</codecvendorcode>
														<spatialquality>1024</spatialquality>
														<temporalquality>0</temporalquality>
														<keyframerate>0</keyframerate>
														<datarate>0</datarate>
													</qtcodec>
												</data>
											</appspecificdata>
										</codec>
										<width>1920</width>
										<height>1080</height>
										<anamorphic>FALSE</anamorphic>
										<pixelaspectratio>square</pixelaspectratio>
										<fielddominance>none</fielddominance>
										<colordepth>24</colordepth>
									</samplecharacteristics>
								</format>
								<track TL.SQTrackShy="0" TL.SQTrackExpandedHeight="25" TL.SQTrackExpanded="0" MZ.TrackTargeted="1">
									<clipitem id="clipitem-787">
										<masterclipid>masterclip-219</masterclipid>
										<name>Bee Who You Wanna Bee_1</name>
										<enabled>TRUE</enabled>
										<duration>2129</duration>
										<rate>
											<timebase>30</timebase>
											<ntsc>TRUE</ntsc>
										</rate>
										<start>82</start>
										<end>1481</end>
										<in>0</in>
										<out>1399</out>
										<pproTicksIn>0</pproTicksIn>
										<pproTicksOut>11857458412800</pproTicksOut>
										<sequence id="sequence-10"/>
										<link>
											<linkclipref>clipitem-787</linkclipref>
											<mediatype>video</mediatype>
											<trackindex>1</trackindex>
											<clipindex>1</clipindex>
										</link>
										<link>
											<linkclipref>clipitem-795</linkclipref>
											<mediatype>audio</mediatype>
											<trackindex>1</trackindex>
											<clipindex>1</clipindex>
											<groupindex>1</groupindex>
										</link>
										<link>
											<linkclipref>clipitem-797</linkclipref>
											<mediatype>audio</mediatype>
											<trackindex>2</trackindex>
											<clipindex>1</clipindex>
											<groupindex>1</groupindex>
										</link>
										<labels>
											<label2>Forest</label2>
										</labels>
									</clipitem>
									<clipitem id="clipitem-788">
										<masterclipid>masterclip-220</masterclipid>
										<name>Sweet As A Strawberry_2</name>
										<enabled>TRUE</enabled>
										<duration>5700</duration>
										<rate>
											<timebase>30</timebase>
											<ntsc>TRUE</ntsc>
										</rate>
										<start>1481</start>
										<end>4924</end>
										<in>0</in>
										<out>3443</out>
										<pproTicksIn>0</pproTicksIn>
										<pproTicksOut>29181722169600</pproTicksOut>
										<sequence id="sequence-16"/>
										<link>
											<linkclipref>clipitem-788</linkclipref>
											<mediatype>video</mediatype>
											<trackindex>1</trackindex>
											<clipindex>2</clipindex>
										</link>
										<link>
											<linkclipref>clipitem-796</linkclipref>
											<mediatype>audio</mediatype>
											<trackindex>1</trackindex>
											<clipindex>3</clipindex>
											<groupindex>1</groupindex>
										</link>
										<link>
											<linkclipref>clipitem-798</linkclipref>
											<mediatype>audio</mediatype>
											<trackindex>2</trackindex>
											<clipindex>3</clipindex>
											<groupindex>1</groupindex>
										</link>
										<labels>
											<label2>Forest</label2>
										</labels>
									</clipitem>
									<enabled>TRUE</enabled>
									<locked>FALSE</locked>
								</track>
								<track TL.SQTrackShy="0" TL.SQTrackExpandedHeight="25" TL.SQTrackExpanded="0" MZ.TrackTargeted="0">
									<clipitem id="clipitem-789">
										<masterclipid>masterclip-209</masterclipid>
										<name>ATM BUG_1080_Top Right.png</name>
										<enabled>TRUE</enabled>
										<duration>1294705</duration>
										<rate>
											<timebase>30</timebase>
											<ntsc>TRUE</ntsc>
										</rate>
										<start>82</start>
										<end>4924</end>
										<in>107974</in>
										<out>112816</out>
										<pproTicksIn>915151690252800</pproTicksIn>
										<pproTicksOut>956190870835200</pproTicksOut>
										<alphatype>straight</alphatype>
										<file id="file-206"/>
										<logginginfo>
											<description></description>
											<scene></scene>
											<shottake></shottake>
											<lognote></lognote>
											<good></good>
											<originalvideofilename></originalvideofilename>
											<originalaudiofilename></originalaudiofilename>
										</logginginfo>
										<colorinfo>
											<lut></lut>
											<lut1></lut1>
											<asc_sop></asc_sop>
											<asc_sat></asc_sat>
											<lut2></lut2>
										</colorinfo>
										<labels>
										</labels>
									</clipitem>
									<enabled>TRUE</enabled>
									<locked>FALSE</locked>
								</track>
								<track TL.SQTrackShy="0" TL.SQTrackExpandedHeight="25" TL.SQTrackExpanded="0" MZ.TrackTargeted="0">
									<clipitem id="clipitem-790">
										<masterclipid>masterclip-148</masterclipid>
										<name>Bee Who You Wanna Bee</name>
										<enabled>TRUE</enabled>
										<duration>6293</duration>
										<rate>
											<timebase>30</timebase>
											<ntsc>TRUE</ntsc>
										</rate>
										<start>115</start>
										<end>1481</end>
										<in>0</in>
										<out>1366</out>
										<pproTicksIn>0</pproTicksIn>
										<pproTicksOut>11577761395200</pproTicksOut>
										<alphatype>straight</alphatype>
										<file id="file-148"/>
										<logginginfo>
											<description></description>
											<scene></scene>
											<shottake></shottake>
											<lognote></lognote>
											<good></good>
											<originalvideofilename></originalvideofilename>
											<originalaudiofilename></originalaudiofilename>
										</logginginfo>
										<colorinfo>
											<lut></lut>
											<lut1></lut1>
											<asc_sop></asc_sop>
											<asc_sat></asc_sat>
											<lut2></lut2>
										</colorinfo>
									</clipitem>
									<clipitem id="clipitem-791">
										<masterclipid>masterclip-149</masterclipid>
										<name>Sweet As A Strawberry</name>
										<enabled>TRUE</enabled>
										<duration>6293</duration>
										<rate>
											<timebase>30</timebase>
											<ntsc>TRUE</ntsc>
										</rate>
										<start>1542</start>
										<end>4924</end>
										<in>0</in>
										<out>3382</out>
										<pproTicksIn>0</pproTicksIn>
										<pproTicksOut>28664706470400</pproTicksOut>
										<alphatype>straight</alphatype>
										<file id="file-149"/>
										<logginginfo>
											<description></description>
											<scene></scene>
											<shottake></shottake>
											<lognote></lognote>
											<good></good>
											<originalvideofilename></originalvideofilename>
											<originalaudiofilename></originalaudiofilename>
										</logginginfo>
										<colorinfo>
											<lut></lut>
											<lut1></lut1>
											<asc_sop></asc_sop>
											<asc_sat></asc_sat>
											<lut2></lut2>
										</colorinfo>
									</clipitem>
									<enabled>TRUE</enabled>
									<locked>FALSE</locked>
								</track>
								<track TL.SQTrackShy="0" TL.SQTrackExpandedHeight="25" TL.SQTrackExpanded="0" MZ.TrackTargeted="0">
									<clipitem id="clipitem-792">
										<masterclipid>masterclip-221</masterclipid>
										<name>Intro</name>
										<enabled>TRUE</enabled>
										<duration>160</duration>
										<rate>
											<timebase>30</timebase>
											<ntsc>TRUE</ntsc>
										</rate>
										<start>0</start>
										<end>115</end>
										<in>0</in>
										<out>115</out>
										<pproTicksIn>0</pproTicksIn>
										<pproTicksOut>974701728000</pproTicksOut>
										<sequence id="sequence-28"/>
											<marker>
												<comment></comment>
												<name></name>
												<in>82</in>
												<out>-1</out>
											</marker>
										<link>
											<linkclipref>clipitem-792</linkclipref>
											<mediatype>video</mediatype>
											<trackindex>4</trackindex>
											<clipindex>1</clipindex>
										</link>
										<link>
											<linkclipref>clipitem-799</linkclipref>
											<mediatype>audio</mediatype>
											<trackindex>3</trackindex>
											<clipindex>1</clipindex>
											<groupindex>1</groupindex>
										</link>
										<link>
											<linkclipref>clipitem-802</linkclipref>
											<mediatype>audio</mediatype>
											<trackindex>4</trackindex>
											<clipindex>1</clipindex>
											<groupindex>1</groupindex>
										</link>
										<labels>
											<label2>Forest</label2>
										</labels>
									</clipitem>
									<clipitem id="clipitem-793">
										<masterclipid>masterclip-222</masterclipid>
										<name>Transition 1</name>
										<enabled>TRUE</enabled>
										<duration>160</duration>
										<rate>
											<timebase>30</timebase>
											<ntsc>TRUE</ntsc>
										</rate>
										<start>1424</start>
										<end>1542</end>
										<in>0</in>
										<out>118</out>
										<pproTicksIn>0</pproTicksIn>
										<pproTicksOut>1000128729600</pproTicksOut>
										<sequence id="sequence-30"/>
											<marker>
												<comment></comment>
												<name></name>
												<in>57</in>
												<out>-1</out>
											</marker>
										<link>
											<linkclipref>clipitem-793</linkclipref>
											<mediatype>video</mediatype>
											<trackindex>4</trackindex>
											<clipindex>2</clipindex>
										</link>
										<link>
											<linkclipref>clipitem-800</linkclipref>
											<mediatype>audio</mediatype>
											<trackindex>3</trackindex>
											<clipindex>2</clipindex>
											<groupindex>1</groupindex>
										</link>
										<link>
											<linkclipref>clipitem-803</linkclipref>
											<mediatype>audio</mediatype>
											<trackindex>4</trackindex>
											<clipindex>2</clipindex>
											<groupindex>1</groupindex>
										</link>
										<labels>
											<label2>Forest</label2>
										</labels>
									</clipitem>
									<clipitem id="clipitem-794">
										<masterclipid>masterclip-223</masterclipid>
										<name>Outro</name>
										<enabled>TRUE</enabled>
										<duration>160</duration>
										<rate>
											<timebase>30</timebase>
											<ntsc>TRUE</ntsc>
										</rate>
										<start>4881</start>
										<end>5018</end>
										<in>0</in>
										<out>137</out>
										<pproTicksIn>0</pproTicksIn>
										<pproTicksOut>1161166406400</pproTicksOut>
										<sequence id="sequence-29"/>
											<marker>
												<comment></comment>
												<name></name>
												<in>43</in>
												<out>-1</out>
											</marker>
										<link>
											<linkclipref>clipitem-794</linkclipref>
											<mediatype>video</mediatype>
											<trackindex>4</trackindex>
											<clipindex>3</clipindex>
										</link>
										<link>
											<linkclipref>clipitem-801</linkclipref>
											<mediatype>audio</mediatype>
											<trackindex>3</trackindex>
											<clipindex>3</clipindex>
											<groupindex>1</groupindex>
										</link>
										<link>
											<linkclipref>clipitem-804</linkclipref>
											<mediatype>audio</mediatype>
											<trackindex>4</trackindex>
											<clipindex>3</clipindex>
											<groupindex>1</groupindex>
										</link>
										<labels>
											<label2>Forest</label2>
										</labels>
									</clipitem>
									<enabled>TRUE</enabled>
									<locked>FALSE</locked>
								</track>
								<track TL.SQTrackShy="0" TL.SQTrackExpandedHeight="25" TL.SQTrackExpanded="0" MZ.TrackTargeted="0">
									<enabled>TRUE</enabled>
									<locked>FALSE</locked>
								</track>
							</video>
							<audio>
								<numOutputChannels>2</numOutputChannels>
								<format>
									<samplecharacteristics>
										<depth>16</depth>
										<samplerate>48000</samplerate>
									</samplecharacteristics>
								</format>
								<outputs>
									<group>
										<index>1</index>
										<numchannels>1</numchannels>
										<downmix>0</downmix>
										<channel>
											<index>1</index>
										</channel>
									</group>
									<group>
										<index>2</index>
										<numchannels>1</numchannels>
										<downmix>0</downmix>
										<channel>
											<index>2</index>
										</channel>
									</group>
								</outputs>
								<track TL.SQTrackAudioKeyframeStyle="0" TL.SQTrackShy="0" TL.SQTrackExpandedHeight="25" TL.SQTrackExpanded="0" MZ.TrackTargeted="1" PannerCurrentValue="0.5" PannerIsInverted="true" PannerStartKeyframe="-91445760000000000,0.5,0,0,0,0,0,0" PannerName="Balance" currentExplodedTrackIndex="0" totalExplodedTrackCount="2" premiereTrackType="Stereo">
									<clipitem id="clipitem-795" premiereChannelType="stereo">
										<masterclipid>masterclip-219</masterclipid>
										<name>Bee Who You Wanna Bee_1</name>
										<enabled>TRUE</enabled>
										<duration>2129</duration>
										<rate>
											<timebase>30</timebase>
											<ntsc>TRUE</ntsc>
										</rate>
										<start>82</start>
										<end>-1</end>
										<in>0</in>
										<out>1399</out>
										<pproTicksIn>0</pproTicksIn>
										<pproTicksOut>11857458412800</pproTicksOut>
										<sequence id="sequence-10"/>
										<sourcetrack>
											<mediatype>audio</mediatype>
											<trackindex>0</trackindex>
										</sourcetrack>
										<link>
											<linkclipref>clipitem-787</linkclipref>
											<mediatype>video</mediatype>
											<trackindex>1</trackindex>
											<clipindex>1</clipindex>
										</link>
										<link>
											<linkclipref>clipitem-795</linkclipref>
											<mediatype>audio</mediatype>
											<trackindex>1</trackindex>
											<clipindex>1</clipindex>
											<groupindex>1</groupindex>
										</link>
										<link>
											<linkclipref>clipitem-797</linkclipref>
											<mediatype>audio</mediatype>
											<trackindex>2</trackindex>
											<clipindex>1</clipindex>
											<groupindex>1</groupindex>
										</link>
										<labels>
											<label2>Forest</label2>
										</labels>
									</clipitem>
									<transitionitem>
										<start>1451</start>
										<end>1481</end>
										<pproTicksIn>12298193107200</pproTicksIn>
										<pproTicksOut>12552463123200</pproTicksOut>
										<alignment>end-black</alignment>
										<cutPointTicks>254270016000</cutPointTicks>
										<rate>
											<timebase>30</timebase>
											<ntsc>TRUE</ntsc>
										</rate>
										<effect>
											<name>Cross Fade (+3dB)</name>
											<effectid>KGAudioTransCrossFade3dB</effectid>
											<effecttype>transition</effecttype>
											<mediatype>audio</mediatype>
											<wipecode>0</wipecode>
											<wipeaccuracy>100</wipeaccuracy>
											<startratio>0</startratio>
											<endratio>1</endratio>
											<reverse>FALSE</reverse>
										</effect>
									</transitionitem>
									<clipitem id="clipitem-796" premiereChannelType="stereo">
										<masterclipid>masterclip-220</masterclipid>
										<name>Sweet As A Strawberry_2</name>
										<enabled>TRUE</enabled>
										<duration>5700</duration>
										<rate>
											<timebase>30</timebase>
											<ntsc>TRUE</ntsc>
										</rate>
										<start>1481</start>
										<end>-1</end>
										<in>0</in>
										<out>3443</out>
										<pproTicksIn>0</pproTicksIn>
										<pproTicksOut>29181722169600</pproTicksOut>
										<sequence id="sequence-16"/>
										<sourcetrack>
											<mediatype>audio</mediatype>
											<trackindex>0</trackindex>
										</sourcetrack>
										<link>
											<linkclipref>clipitem-788</linkclipref>
											<mediatype>video</mediatype>
											<trackindex>1</trackindex>
											<clipindex>2</clipindex>
										</link>
										<link>
											<linkclipref>clipitem-796</linkclipref>
											<mediatype>audio</mediatype>
											<trackindex>1</trackindex>
											<clipindex>3</clipindex>
											<groupindex>1</groupindex>
										</link>
										<link>
											<linkclipref>clipitem-798</linkclipref>
											<mediatype>audio</mediatype>
											<trackindex>2</trackindex>
											<clipindex>3</clipindex>
											<groupindex>1</groupindex>
										</link>
										<labels>
											<label2>Forest</label2>
										</labels>
									</clipitem>
									<transitionitem>
										<start>4894</start>
										<end>4924</end>
										<pproTicksIn>41479915276800</pproTicksIn>
										<pproTicksOut>41734185292800</pproTicksOut>
										<alignment>end-black</alignment>
										<cutPointTicks>254270016000</cutPointTicks>
										<rate>
											<timebase>30</timebase>
											<ntsc>TRUE</ntsc>
										</rate>
										<effect>
											<name>Cross Fade (+3dB)</name>
											<effectid>KGAudioTransCrossFade3dB</effectid>
											<effecttype>transition</effecttype>
											<mediatype>audio</mediatype>
											<wipecode>0</wipecode>
											<wipeaccuracy>100</wipeaccuracy>
											<startratio>0</startratio>
											<endratio>1</endratio>
											<reverse>FALSE</reverse>
										</effect>
									</transitionitem>
									<enabled>TRUE</enabled>
									<locked>FALSE</locked>
									<outputchannelindex>1</outputchannelindex>
								</track>
								<track TL.SQTrackAudioKeyframeStyle="0" TL.SQTrackShy="0" TL.SQTrackExpandedHeight="25" TL.SQTrackExpanded="0" MZ.TrackTargeted="1" PannerCurrentValue="0.5" PannerIsInverted="true" PannerStartKeyframe="-91445760000000000,0.5,0,0,0,0,0,0" PannerName="Balance" currentExplodedTrackIndex="1" totalExplodedTrackCount="2" premiereTrackType="Stereo">
									<clipitem id="clipitem-797" premiereChannelType="stereo">
										<masterclipid>masterclip-219</masterclipid>
										<name>Bee Who You Wanna Bee_1</name>
										<enabled>TRUE</enabled>
										<duration>2129</duration>
										<rate>
											<timebase>30</timebase>
											<ntsc>TRUE</ntsc>
										</rate>
										<start>82</start>
										<end>-1</end>
										<in>0</in>
										<out>1399</out>
										<pproTicksIn>0</pproTicksIn>
										<pproTicksOut>11857458412800</pproTicksOut>
										<sequence id="sequence-10"/>
										<sourcetrack>
											<mediatype>audio</mediatype>
											<trackindex>1</trackindex>
										</sourcetrack>
										<link>
											<linkclipref>clipitem-787</linkclipref>
											<mediatype>video</mediatype>
											<trackindex>1</trackindex>
											<clipindex>1</clipindex>
										</link>
										<link>
											<linkclipref>clipitem-795</linkclipref>
											<mediatype>audio</mediatype>
											<trackindex>1</trackindex>
											<clipindex>1</clipindex>
											<groupindex>1</groupindex>
										</link>
										<link>
											<linkclipref>clipitem-797</linkclipref>
											<mediatype>audio</mediatype>
											<trackindex>2</trackindex>
											<clipindex>1</clipindex>
											<groupindex>1</groupindex>
										</link>
										<labels>
											<label2>Forest</label2>
										</labels>
									</clipitem>
									<transitionitem>
										<start>1451</start>
										<end>1481</end>
										<pproTicksIn>12298193107200</pproTicksIn>
										<pproTicksOut>12552463123200</pproTicksOut>
										<alignment>end-black</alignment>
										<cutPointTicks>254270016000</cutPointTicks>
										<rate>
											<timebase>30</timebase>
											<ntsc>TRUE</ntsc>
										</rate>
										<effect>
											<name>Cross Fade (+3dB)</name>
											<effectid>KGAudioTransCrossFade3dB</effectid>
											<effecttype>transition</effecttype>
											<mediatype>audio</mediatype>
											<wipecode>0</wipecode>
											<wipeaccuracy>100</wipeaccuracy>
											<startratio>0</startratio>
											<endratio>1</endratio>
											<reverse>FALSE</reverse>
										</effect>
									</transitionitem>
									<clipitem id="clipitem-798" premiereChannelType="stereo">
										<masterclipid>masterclip-220</masterclipid>
										<name>Sweet As A Strawberry_2</name>
										<enabled>TRUE</enabled>
										<duration>5700</duration>
										<rate>
											<timebase>30</timebase>
											<ntsc>TRUE</ntsc>
										</rate>
										<start>1481</start>
										<end>-1</end>
										<in>0</in>
										<out>3443</out>
										<pproTicksIn>0</pproTicksIn>
										<pproTicksOut>29181722169600</pproTicksOut>
										<sequence id="sequence-16"/>
										<sourcetrack>
											<mediatype>audio</mediatype>
											<trackindex>1</trackindex>
										</sourcetrack>
										<link>
											<linkclipref>clipitem-788</linkclipref>
											<mediatype>video</mediatype>
											<trackindex>1</trackindex>
											<clipindex>2</clipindex>
										</link>
										<link>
											<linkclipref>clipitem-796</linkclipref>
											<mediatype>audio</mediatype>
											<trackindex>1</trackindex>
											<clipindex>3</clipindex>
											<groupindex>1</groupindex>
										</link>
										<link>
											<linkclipref>clipitem-798</linkclipref>
											<mediatype>audio</mediatype>
											<trackindex>2</trackindex>
											<clipindex>3</clipindex>
											<groupindex>1</groupindex>
										</link>
										<labels>
											<label2>Forest</label2>
										</labels>
									</clipitem>
									<transitionitem>
										<start>4894</start>
										<end>4924</end>
										<pproTicksIn>41479915276800</pproTicksIn>
										<pproTicksOut>41734185292800</pproTicksOut>
										<alignment>end-black</alignment>
										<cutPointTicks>254270016000</cutPointTicks>
										<rate>
											<timebase>30</timebase>
											<ntsc>TRUE</ntsc>
										</rate>
										<effect>
											<name>Cross Fade (+3dB)</name>
											<effectid>KGAudioTransCrossFade3dB</effectid>
											<effecttype>transition</effecttype>
											<mediatype>audio</mediatype>
											<wipecode>0</wipecode>
											<wipeaccuracy>100</wipeaccuracy>
											<startratio>0</startratio>
											<endratio>1</endratio>
											<reverse>FALSE</reverse>
										</effect>
									</transitionitem>
									<enabled>TRUE</enabled>
									<locked>FALSE</locked>
									<outputchannelindex>2</outputchannelindex>
								</track>
								<track TL.SQTrackAudioKeyframeStyle="0" TL.SQTrackShy="0" TL.SQTrackExpandedHeight="25" TL.SQTrackExpanded="0" MZ.TrackTargeted="1" PannerCurrentValue="0.5" PannerIsInverted="true" PannerStartKeyframe="-91445760000000000,0.5,0,0,0,0,0,0" PannerName="Balance" currentExplodedTrackIndex="0" totalExplodedTrackCount="2" premiereTrackType="Stereo">
									<clipitem id="clipitem-799" premiereChannelType="stereo">
										<masterclipid>masterclip-221</masterclipid>
										<name>Intro</name>
										<enabled>TRUE</enabled>
										<duration>160</duration>
										<rate>
											<timebase>30</timebase>
											<ntsc>TRUE</ntsc>
										</rate>
										<start>0</start>
										<end>115</end>
										<in>0</in>
										<out>115</out>
										<pproTicksIn>0</pproTicksIn>
										<pproTicksOut>974701728000</pproTicksOut>
										<sequence id="sequence-28"/>
										<sourcetrack>
											<mediatype>audio</mediatype>
											<trackindex>0</trackindex>
										</sourcetrack>
											<marker>
												<comment></comment>
												<name></name>
												<in>82</in>
												<out>-1</out>
											</marker>
										<link>
											<linkclipref>clipitem-792</linkclipref>
											<mediatype>video</mediatype>
											<trackindex>4</trackindex>
											<clipindex>1</clipindex>
										</link>
										<link>
											<linkclipref>clipitem-799</linkclipref>
											<mediatype>audio</mediatype>
											<trackindex>3</trackindex>
											<clipindex>1</clipindex>
											<groupindex>1</groupindex>
										</link>
										<link>
											<linkclipref>clipitem-802</linkclipref>
											<mediatype>audio</mediatype>
											<trackindex>4</trackindex>
											<clipindex>1</clipindex>
											<groupindex>1</groupindex>
										</link>
										<labels>
											<label2>Forest</label2>
										</labels>
									</clipitem>
									<clipitem id="clipitem-800" premiereChannelType="stereo">
										<masterclipid>masterclip-222</masterclipid>
										<name>Transition 1</name>
										<enabled>TRUE</enabled>
										<duration>160</duration>
										<rate>
											<timebase>30</timebase>
											<ntsc>TRUE</ntsc>
										</rate>
										<start>1424</start>
										<end>1542</end>
										<in>0</in>
										<out>118</out>
										<pproTicksIn>0</pproTicksIn>
										<pproTicksOut>1000128729600</pproTicksOut>
										<sequence id="sequence-30"/>
										<sourcetrack>
											<mediatype>audio</mediatype>
											<trackindex>0</trackindex>
										</sourcetrack>
											<marker>
												<comment></comment>
												<name></name>
												<in>57</in>
												<out>-1</out>
											</marker>
										<link>
											<linkclipref>clipitem-793</linkclipref>
											<mediatype>video</mediatype>
											<trackindex>4</trackindex>
											<clipindex>2</clipindex>
										</link>
										<link>
											<linkclipref>clipitem-800</linkclipref>
											<mediatype>audio</mediatype>
											<trackindex>3</trackindex>
											<clipindex>2</clipindex>
											<groupindex>1</groupindex>
										</link>
										<link>
											<linkclipref>clipitem-803</linkclipref>
											<mediatype>audio</mediatype>
											<trackindex>4</trackindex>
											<clipindex>2</clipindex>
											<groupindex>1</groupindex>
										</link>
										<labels>
											<label2>Forest</label2>
										</labels>
									</clipitem>
									<clipitem id="clipitem-801" premiereChannelType="stereo">
										<masterclipid>masterclip-223</masterclipid>
										<name>Outro</name>
										<enabled>TRUE</enabled>
										<duration>160</duration>
										<rate>
											<timebase>30</timebase>
											<ntsc>TRUE</ntsc>
										</rate>
										<start>4881</start>
										<end>5018</end>
										<in>0</in>
										<out>137</out>
										<pproTicksIn>0</pproTicksIn>
										<pproTicksOut>1161166406400</pproTicksOut>
										<sequence id="sequence-29"/>
										<sourcetrack>
											<mediatype>audio</mediatype>
											<trackindex>0</trackindex>
										</sourcetrack>
											<marker>
												<comment></comment>
												<name></name>
												<in>43</in>
												<out>-1</out>
											</marker>
										<link>
											<linkclipref>clipitem-794</linkclipref>
											<mediatype>video</mediatype>
											<trackindex>4</trackindex>
											<clipindex>3</clipindex>
										</link>
										<link>
											<linkclipref>clipitem-801</linkclipref>
											<mediatype>audio</mediatype>
											<trackindex>3</trackindex>
											<clipindex>3</clipindex>
											<groupindex>1</groupindex>
										</link>
										<link>
											<linkclipref>clipitem-804</linkclipref>
											<mediatype>audio</mediatype>
											<trackindex>4</trackindex>
											<clipindex>3</clipindex>
											<groupindex>1</groupindex>
										</link>
										<labels>
											<label2>Forest</label2>
										</labels>
									</clipitem>
									<enabled>TRUE</enabled>
									<locked>FALSE</locked>
									<outputchannelindex>1</outputchannelindex>
								</track>
								<track TL.SQTrackAudioKeyframeStyle="0" TL.SQTrackShy="0" TL.SQTrackExpandedHeight="25" TL.SQTrackExpanded="0" MZ.TrackTargeted="1" PannerCurrentValue="0.5" PannerIsInverted="true" PannerStartKeyframe="-91445760000000000,0.5,0,0,0,0,0,0" PannerName="Balance" currentExplodedTrackIndex="1" totalExplodedTrackCount="2" premiereTrackType="Stereo">
									<clipitem id="clipitem-802" premiereChannelType="stereo">
										<masterclipid>masterclip-221</masterclipid>
										<name>Intro</name>
										<enabled>TRUE</enabled>
										<duration>160</duration>
										<rate>
											<timebase>30</timebase>
											<ntsc>TRUE</ntsc>
										</rate>
										<start>0</start>
										<end>115</end>
										<in>0</in>
										<out>115</out>
										<pproTicksIn>0</pproTicksIn>
										<pproTicksOut>974701728000</pproTicksOut>
										<sequence id="sequence-28"/>
										<sourcetrack>
											<mediatype>audio</mediatype>
											<trackindex>1</trackindex>
										</sourcetrack>
											<marker>
												<comment></comment>
												<name></name>
												<in>82</in>
												<out>-1</out>
											</marker>
										<link>
											<linkclipref>clipitem-792</linkclipref>
											<mediatype>video</mediatype>
											<trackindex>4</trackindex>
											<clipindex>1</clipindex>
										</link>
										<link>
											<linkclipref>clipitem-799</linkclipref>
											<mediatype>audio</mediatype>
											<trackindex>3</trackindex>
											<clipindex>1</clipindex>
											<groupindex>1</groupindex>
										</link>
										<link>
											<linkclipref>clipitem-802</linkclipref>
											<mediatype>audio</mediatype>
											<trackindex>4</trackindex>
											<clipindex>1</clipindex>
											<groupindex>1</groupindex>
										</link>
										<labels>
											<label2>Forest</label2>
										</labels>
									</clipitem>
									<clipitem id="clipitem-803" premiereChannelType="stereo">
										<masterclipid>masterclip-222</masterclipid>
										<name>Transition 1</name>
										<enabled>TRUE</enabled>
										<duration>160</duration>
										<rate>
											<timebase>30</timebase>
											<ntsc>TRUE</ntsc>
										</rate>
										<start>1424</start>
										<end>1542</end>
										<in>0</in>
										<out>118</out>
										<pproTicksIn>0</pproTicksIn>
										<pproTicksOut>1000128729600</pproTicksOut>
										<sequence id="sequence-30"/>
										<sourcetrack>
											<mediatype>audio</mediatype>
											<trackindex>1</trackindex>
										</sourcetrack>
											<marker>
												<comment></comment>
												<name></name>
												<in>57</in>
												<out>-1</out>
											</marker>
										<link>
											<linkclipref>clipitem-793</linkclipref>
											<mediatype>video</mediatype>
											<trackindex>4</trackindex>
											<clipindex>2</clipindex>
										</link>
										<link>
											<linkclipref>clipitem-800</linkclipref>
											<mediatype>audio</mediatype>
											<trackindex>3</trackindex>
											<clipindex>2</clipindex>
											<groupindex>1</groupindex>
										</link>
										<link>
											<linkclipref>clipitem-803</linkclipref>
											<mediatype>audio</mediatype>
											<trackindex>4</trackindex>
											<clipindex>2</clipindex>
											<groupindex>1</groupindex>
										</link>
										<labels>
											<label2>Forest</label2>
										</labels>
									</clipitem>
									<clipitem id="clipitem-804" premiereChannelType="stereo">
										<masterclipid>masterclip-223</masterclipid>
										<name>Outro</name>
										<enabled>TRUE</enabled>
										<duration>160</duration>
										<rate>
											<timebase>30</timebase>
											<ntsc>TRUE</ntsc>
										</rate>
										<start>4881</start>
										<end>5018</end>
										<in>0</in>
										<out>137</out>
										<pproTicksIn>0</pproTicksIn>
										<pproTicksOut>1161166406400</pproTicksOut>
										<sequence id="sequence-29"/>
										<sourcetrack>
											<mediatype>audio</mediatype>
											<trackindex>1</trackindex>
										</sourcetrack>
											<marker>
												<comment></comment>
												<name></name>
												<in>43</in>
												<out>-1</out>
											</marker>
										<link>
											<linkclipref>clipitem-794</linkclipref>
											<mediatype>video</mediatype>
											<trackindex>4</trackindex>
											<clipindex>3</clipindex>
										</link>
										<link>
											<linkclipref>clipitem-801</linkclipref>
											<mediatype>audio</mediatype>
											<trackindex>3</trackindex>
											<clipindex>3</clipindex>
											<groupindex>1</groupindex>
										</link>
										<link>
											<linkclipref>clipitem-804</linkclipref>
											<mediatype>audio</mediatype>
											<trackindex>4</trackindex>
											<clipindex>3</clipindex>
											<groupindex>1</groupindex>
										</link>
										<labels>
											<label2>Forest</label2>
										</labels>
									</clipitem>
									<enabled>TRUE</enabled>
									<locked>FALSE</locked>
									<outputchannelindex>2</outputchannelindex>
								</track>
								<track TL.SQTrackAudioKeyframeStyle="0" TL.SQTrackShy="0" TL.SQTrackExpandedHeight="25" TL.SQTrackExpanded="0" MZ.TrackTargeted="1" PannerCurrentValue="0.5" PannerIsInverted="true" PannerStartKeyframe="-91445760000000000,0.5,0,0,0,0,0,0" PannerName="Balance" currentExplodedTrackIndex="0" totalExplodedTrackCount="2" premiereTrackType="Stereo">
									<enabled>TRUE</enabled>
									<locked>FALSE</locked>
									<outputchannelindex>1</outputchannelindex>
								</track>
								<track TL.SQTrackAudioKeyframeStyle="0" TL.SQTrackShy="0" TL.SQTrackExpandedHeight="25" TL.SQTrackExpanded="0" MZ.TrackTargeted="1" PannerCurrentValue="0.5" PannerIsInverted="true" PannerStartKeyframe="-91445760000000000,0.5,0,0,0,0,0,0" PannerName="Balance" currentExplodedTrackIndex="1" totalExplodedTrackCount="2" premiereTrackType="Stereo">
									<enabled>TRUE</enabled>
									<locked>FALSE</locked>
									<outputchannelindex>2</outputchannelindex>
								</track>
							</audio>
						</media>
						<timecode>
							<rate>
								<timebase>30</timebase>
								<ntsc>TRUE</ntsc>
							</rate>
							<string>00;00;00;00</string>
							<frame>0</frame>
							<displayformat>DF</displayformat>
						</timecode>
						<labels>
							<label2>Forest</label2>
						</labels>
						<logginginfo>
							<description></description>
							<scene></scene>
							<shottake></shottake>
							<lognote></lognote>
							<good></good>
							<originalvideofilename></originalvideofilename>
							<originalaudiofilename></originalaudiofilename>
						</logginginfo>
					</sequence>
					<sequence id="sequence-33" TL.SQAudioVisibleBase="0" TL.SQVideoVisibleBase="0" TL.SQVisibleBaseTime="0" TL.SQAVDividerPosition="0.5" TL.SQHideShyTracks="0" TL.SQHeaderWidth="236" TL.SQDataTrackViewControlState="0" Monitor.ProgramZoomOut="47251844640000" Monitor.ProgramZoomIn="0" TL.SQTimePerPixel="0.17870979197368292" AM.TrackVScrollPosition="0" AM.TrackScrollPosition="0" MZ.EditLine="25511758272000" MZ.Sequence.PreviewFrameSizeHeight="1080" MZ.Sequence.PreviewFrameSizeWidth="1920" MZ.Sequence.AudioTimeDisplayFormat="200" MZ.Sequence.PreviewRenderingClassID="1061109567" MZ.Sequence.PreviewRenderingPresetCodec="1634755443" MZ.Sequence.PreviewRenderingPresetPath="EncoderPresets/SequencePreview/35d109db-457b-43c1-9452-9cb7be9f121c/QuickTime.epr" MZ.Sequence.PreviewUseMaxRenderQuality="false" MZ.Sequence.PreviewUseMaxBitDepth="false" MZ.Sequence.EditingModeGUID="35d109db-457b-43c1-9452-9cb7be9f121c" MZ.Sequence.VideoTimeDisplayFormat="102" MZ.WorkOutPoint="15239249625600" MZ.WorkInPoint="0" explodedTracks="true">
						<uuid>68fd677a-459a-406d-aeda-c4856dcd5427</uuid>
						<duration>5481</duration>
						<rate>
							<timebase>30</timebase>
							<ntsc>TRUE</ntsc>
						</rate>
						<name>ATM_EYECANDY_247</name>
						<media>
							<video>
								<format>
									<samplecharacteristics>
										<rate>
											<timebase>30</timebase>
											<ntsc>TRUE</ntsc>
										</rate>
										<codec>
											<name>Apple ProRes 422</name>
											<appspecificdata>
												<appname>Final Cut Pro</appname>
												<appmanufacturer>Apple Inc.</appmanufacturer>
												<appversion>7.0</appversion>
												<data>
													<qtcodec>
														<codecname>Apple ProRes 422</codecname>
														<codectypename>Apple ProRes 422</codectypename>
														<codectypecode>apcn</codectypecode>
														<codecvendorcode>appl</codecvendorcode>
														<spatialquality>1024</spatialquality>
														<temporalquality>0</temporalquality>
														<keyframerate>0</keyframerate>
														<datarate>0</datarate>
													</qtcodec>
												</data>
											</appspecificdata>
										</codec>
										<width>1920</width>
										<height>1080</height>
										<anamorphic>FALSE</anamorphic>
										<pixelaspectratio>square</pixelaspectratio>
										<fielddominance>none</fielddominance>
										<colordepth>24</colordepth>
									</samplecharacteristics>
								</format>
								<track TL.SQTrackShy="0" TL.SQTrackExpandedHeight="25" TL.SQTrackExpanded="0" MZ.TrackTargeted="1">
									<clipitem id="clipitem-805">
										<masterclipid>masterclip-224</masterclipid>
										<name>I've Got Bars_1</name>
										<enabled>TRUE</enabled>
										<duration>2201</duration>
										<rate>
											<timebase>30</timebase>
											<ntsc>TRUE</ntsc>
										</rate>
										<start>82</start>
										<end>1836</end>
										<in>0</in>
										<out>1754</out>
										<pproTicksIn>0</pproTicksIn>
										<pproTicksOut>14866320268800</pproTicksOut>
										<sequence id="sequence-9"/>
										<link>
											<linkclipref>clipitem-805</linkclipref>
											<mediatype>video</mediatype>
											<trackindex>1</trackindex>
											<clipindex>1</clipindex>
										</link>
										<link>
											<linkclipref>clipitem-816</linkclipref>
											<mediatype>audio</mediatype>
											<trackindex>1</trackindex>
											<clipindex>1</clipindex>
											<groupindex>1</groupindex>
										</link>
										<link>
											<linkclipref>clipitem-819</linkclipref>
											<mediatype>audio</mediatype>
											<trackindex>2</trackindex>
											<clipindex>1</clipindex>
											<groupindex>1</groupindex>
										</link>
										<labels>
											<label2>Forest</label2>
										</labels>
									</clipitem>
									<clipitem id="clipitem-806">
										<masterclipid>masterclip-225</masterclipid>
										<name>Call Up Cookie Monster_1</name>
										<enabled>TRUE</enabled>
										<duration>5700</duration>
										<rate>
											<timebase>30</timebase>
											<ntsc>TRUE</ntsc>
										</rate>
										<start>1870</start>
										<end>3691</end>
										<in>0</in>
										<out>1821</out>
										<pproTicksIn>0</pproTicksIn>
										<pproTicksOut>15434189971200</pproTicksOut>
										<sequence id="sequence-6"/>
										<link>
											<linkclipref>clipitem-806</linkclipref>
											<mediatype>video</mediatype>
											<trackindex>1</trackindex>
											<clipindex>2</clipindex>
										</link>
										<link>
											<linkclipref>clipitem-817</linkclipref>
											<mediatype>audio</mediatype>
											<trackindex>1</trackindex>
											<clipindex>4</clipindex>
											<groupindex>1</groupindex>
										</link>
										<link>
											<linkclipref>clipitem-820</linkclipref>
											<mediatype>audio</mediatype>
											<trackindex>2</trackindex>
											<clipindex>4</clipindex>
											<groupindex>1</groupindex>
										</link>
										<labels>
											<label2>Forest</label2>
										</labels>
									</clipitem>
									<clipitem id="clipitem-807">
										<masterclipid>masterclip-226</masterclipid>
										<name>Perfect Plum Popsicles_1</name>
										<enabled>TRUE</enabled>
										<duration>2123</duration>
										<rate>
											<timebase>30</timebase>
											<ntsc>TRUE</ntsc>
										</rate>
										<start>3691</start>
										<end>5481</end>
										<in>0</in>
										<out>1790</out>
										<pproTicksIn>0</pproTicksIn>
										<pproTicksOut>15171444288000</pproTicksOut>
										<sequence id="sequence-1"/>
										<link>
											<linkclipref>clipitem-807</linkclipref>
											<mediatype>video</mediatype>
											<trackindex>1</trackindex>
											<clipindex>3</clipindex>
										</link>
										<link>
											<linkclipref>clipitem-818</linkclipref>
											<mediatype>audio</mediatype>
											<trackindex>1</trackindex>
											<clipindex>6</clipindex>
											<groupindex>1</groupindex>
										</link>
										<link>
											<linkclipref>clipitem-821</linkclipref>
											<mediatype>audio</mediatype>
											<trackindex>2</trackindex>
											<clipindex>6</clipindex>
											<groupindex>1</groupindex>
										</link>
										<labels>
											<label2>Forest</label2>
										</labels>
									</clipitem>
									<enabled>TRUE</enabled>
									<locked>FALSE</locked>
								</track>
								<track TL.SQTrackShy="0" TL.SQTrackExpandedHeight="25" TL.SQTrackExpanded="0" MZ.TrackTargeted="0">
									<clipitem id="clipitem-808">
										<masterclipid>masterclip-209</masterclipid>
										<name>ATM BUG_1080_Top Right.png</name>
										<enabled>TRUE</enabled>
										<duration>1294705</duration>
										<rate>
											<timebase>30</timebase>
											<ntsc>TRUE</ntsc>
										</rate>
										<start>82</start>
										<end>5481</end>
										<in>107892</in>
										<out>113291</out>
										<pproTicksIn>914456685542400</pproTicksIn>
										<pproTicksOut>960216812755200</pproTicksOut>
										<alphatype>straight</alphatype>
										<file id="file-206"/>
										<logginginfo>
											<description></description>
											<scene></scene>
											<shottake></shottake>
											<lognote></lognote>
											<good></good>
											<originalvideofilename></originalvideofilename>
											<originalaudiofilename></originalaudiofilename>
										</logginginfo>
										<colorinfo>
											<lut></lut>
											<lut1></lut1>
											<asc_sop></asc_sop>
											<asc_sat></asc_sat>
											<lut2></lut2>
										</colorinfo>
										<labels>
										</labels>
									</clipitem>
									<enabled>TRUE</enabled>
									<locked>FALSE</locked>
								</track>
								<track TL.SQTrackShy="0" TL.SQTrackExpandedHeight="25" TL.SQTrackExpanded="0" MZ.TrackTargeted="0">
									<clipitem id="clipitem-809">
										<masterclipid>masterclip-150</masterclipid>
										<name>I've Got Bars</name>
										<enabled>TRUE</enabled>
										<duration>6293</duration>
										<rate>
											<timebase>30</timebase>
											<ntsc>TRUE</ntsc>
										</rate>
										<start>115</start>
										<end>1836</end>
										<in>0</in>
										<out>1721</out>
										<pproTicksIn>0</pproTicksIn>
										<pproTicksOut>14586623251200</pproTicksOut>
										<alphatype>straight</alphatype>
										<file id="file-150"/>
										<logginginfo>
											<description></description>
											<scene></scene>
											<shottake></shottake>
											<lognote></lognote>
											<good></good>
											<originalvideofilename></originalvideofilename>
											<originalaudiofilename></originalaudiofilename>
										</logginginfo>
										<colorinfo>
											<lut></lut>
											<lut1></lut1>
											<asc_sop></asc_sop>
											<asc_sat></asc_sat>
											<lut2></lut2>
										</colorinfo>
									</clipitem>
									<clipitem id="clipitem-810">
										<masterclipid>masterclip-151</masterclipid>
										<name>Call Up Cookie Monster</name>
										<enabled>TRUE</enabled>
										<duration>6293</duration>
										<rate>
											<timebase>30</timebase>
											<ntsc>TRUE</ntsc>
										</rate>
										<start>1935</start>
										<end>3691</end>
										<in>0</in>
										<out>1756</out>
										<pproTicksIn>0</pproTicksIn>
										<pproTicksOut>14883271603200</pproTicksOut>
										<alphatype>straight</alphatype>
										<file id="file-151"/>
										<logginginfo>
											<description></description>
											<scene></scene>
											<shottake></shottake>
											<lognote></lognote>
											<good></good>
											<originalvideofilename></originalvideofilename>
											<originalaudiofilename></originalaudiofilename>
										</logginginfo>
										<colorinfo>
											<lut></lut>
											<lut1></lut1>
											<asc_sop></asc_sop>
											<asc_sat></asc_sat>
											<lut2></lut2>
										</colorinfo>
									</clipitem>
									<clipitem id="clipitem-811">
										<masterclipid>masterclip-152</masterclipid>
										<name>Perfect Plum Popsicles</name>
										<enabled>TRUE</enabled>
										<duration>6293</duration>
										<rate>
											<timebase>30</timebase>
											<ntsc>TRUE</ntsc>
										</rate>
										<start>3752</start>
										<end>5481</end>
										<in>0</in>
										<out>1729</out>
										<pproTicksIn>0</pproTicksIn>
										<pproTicksOut>14654428588800</pproTicksOut>
										<alphatype>straight</alphatype>
										<file id="file-152"/>
										<logginginfo>
											<description></description>
											<scene></scene>
											<shottake></shottake>
											<lognote></lognote>
											<good></good>
											<originalvideofilename></originalvideofilename>
											<originalaudiofilename></originalaudiofilename>
										</logginginfo>
										<colorinfo>
											<lut></lut>
											<lut1></lut1>
											<asc_sop></asc_sop>
											<asc_sat></asc_sat>
											<lut2></lut2>
										</colorinfo>
									</clipitem>
									<enabled>TRUE</enabled>
									<locked>FALSE</locked>
								</track>
								<track TL.SQTrackShy="0" TL.SQTrackExpandedHeight="25" TL.SQTrackExpanded="0" MZ.TrackTargeted="0">
									<clipitem id="clipitem-812">
										<masterclipid>masterclip-221</masterclipid>
										<name>Intro</name>
										<enabled>TRUE</enabled>
										<duration>160</duration>
										<rate>
											<timebase>30</timebase>
											<ntsc>TRUE</ntsc>
										</rate>
										<start>0</start>
										<end>115</end>
										<in>0</in>
										<out>115</out>
										<pproTicksIn>0</pproTicksIn>
										<pproTicksOut>974701728000</pproTicksOut>
										<sequence id="sequence-28"/>
											<marker>
												<comment></comment>
												<name></name>
												<in>82</in>
												<out>-1</out>
											</marker>
										<link>
											<linkclipref>clipitem-812</linkclipref>
											<mediatype>video</mediatype>
											<trackindex>4</trackindex>
											<clipindex>1</clipindex>
										</link>
										<link>
											<linkclipref>clipitem-822</linkclipref>
											<mediatype>audio</mediatype>
											<trackindex>3</trackindex>
											<clipindex>1</clipindex>
											<groupindex>1</groupindex>
										</link>
										<link>
											<linkclipref>clipitem-826</linkclipref>
											<mediatype>audio</mediatype>
											<trackindex>4</trackindex>
											<clipindex>1</clipindex>
											<groupindex>1</groupindex>
										</link>
										<labels>
											<label2>Forest</label2>
										</labels>
									</clipitem>
									<clipitem id="clipitem-813">
										<masterclipid>masterclip-227</masterclipid>
										<name>Transition 2</name>
										<enabled>TRUE</enabled>
										<duration>160</duration>
										<rate>
											<timebase>30</timebase>
											<ntsc>TRUE</ntsc>
										</rate>
										<start>1816</start>
										<end>1935</end>
										<in>0</in>
										<out>119</out>
										<pproTicksIn>0</pproTicksIn>
										<pproTicksOut>1008604396800</pproTicksOut>
										<sequence id="sequence-31"/>
											<marker>
												<comment></comment>
												<name></name>
												<in>20</in>
												<out>-1</out>
											</marker>
											<marker>
												<comment></comment>
												<name></name>
												<in>54</in>
												<out>-1</out>
											</marker>
										<link>
											<linkclipref>clipitem-813</linkclipref>
											<mediatype>video</mediatype>
											<trackindex>4</trackindex>
											<clipindex>2</clipindex>
										</link>
										<link>
											<linkclipref>clipitem-823</linkclipref>
											<mediatype>audio</mediatype>
											<trackindex>3</trackindex>
											<clipindex>2</clipindex>
											<groupindex>1</groupindex>
										</link>
										<link>
											<linkclipref>clipitem-827</linkclipref>
											<mediatype>audio</mediatype>
											<trackindex>4</trackindex>
											<clipindex>2</clipindex>
											<groupindex>1</groupindex>
										</link>
										<labels>
											<label2>Forest</label2>
										</labels>
									</clipitem>
									<clipitem id="clipitem-814">
										<masterclipid>masterclip-222</masterclipid>
										<name>Transition 1</name>
										<enabled>TRUE</enabled>
										<duration>160</duration>
										<rate>
											<timebase>30</timebase>
											<ntsc>TRUE</ntsc>
										</rate>
										<start>3634</start>
										<end>3752</end>
										<in>0</in>
										<out>118</out>
										<pproTicksIn>0</pproTicksIn>
										<pproTicksOut>1000128729600</pproTicksOut>
										<sequence id="sequence-30"/>
											<marker>
												<comment></comment>
												<name></name>
												<in>57</in>
												<out>-1</out>
											</marker>
										<link>
											<linkclipref>clipitem-814</linkclipref>
											<mediatype>video</mediatype>
											<trackindex>4</trackindex>
											<clipindex>3</clipindex>
										</link>
										<link>
											<linkclipref>clipitem-824</linkclipref>
											<mediatype>audio</mediatype>
											<trackindex>3</trackindex>
											<clipindex>3</clipindex>
											<groupindex>1</groupindex>
										</link>
										<link>
											<linkclipref>clipitem-828</linkclipref>
											<mediatype>audio</mediatype>
											<trackindex>4</trackindex>
											<clipindex>3</clipindex>
											<groupindex>1</groupindex>
										</link>
										<labels>
											<label2>Forest</label2>
										</labels>
									</clipitem>
									<clipitem id="clipitem-815">
										<masterclipid>masterclip-223</masterclipid>
										<name>Outro</name>
										<enabled>TRUE</enabled>
										<duration>160</duration>
										<rate>
											<timebase>30</timebase>
											<ntsc>TRUE</ntsc>
										</rate>
										<start>5438</start>
										<end>5575</end>
										<in>0</in>
										<out>137</out>
										<pproTicksIn>0</pproTicksIn>
										<pproTicksOut>1161166406400</pproTicksOut>
										<sequence id="sequence-29"/>
											<marker>
												<comment></comment>
												<name></name>
												<in>43</in>
												<out>-1</out>
											</marker>
										<link>
											<linkclipref>clipitem-815</linkclipref>
											<mediatype>video</mediatype>
											<trackindex>4</trackindex>
											<clipindex>4</clipindex>
										</link>
										<link>
											<linkclipref>clipitem-825</linkclipref>
											<mediatype>audio</mediatype>
											<trackindex>3</trackindex>
											<clipindex>4</clipindex>
											<groupindex>1</groupindex>
										</link>
										<link>
											<linkclipref>clipitem-829</linkclipref>
											<mediatype>audio</mediatype>
											<trackindex>4</trackindex>
											<clipindex>4</clipindex>
											<groupindex>1</groupindex>
										</link>
										<labels>
											<label2>Forest</label2>
										</labels>
									</clipitem>
									<enabled>TRUE</enabled>
									<locked>FALSE</locked>
								</track>
							</video>
							<audio>
								<numOutputChannels>2</numOutputChannels>
								<format>
									<samplecharacteristics>
										<depth>16</depth>
										<samplerate>48000</samplerate>
									</samplecharacteristics>
								</format>
								<outputs>
									<group>
										<index>1</index>
										<numchannels>1</numchannels>
										<downmix>0</downmix>
										<channel>
											<index>1</index>
										</channel>
									</group>
									<group>
										<index>2</index>
										<numchannels>1</numchannels>
										<downmix>0</downmix>
										<channel>
											<index>2</index>
										</channel>
									</group>
								</outputs>
								<track TL.SQTrackAudioKeyframeStyle="0" TL.SQTrackShy="0" TL.SQTrackExpandedHeight="25" TL.SQTrackExpanded="0" MZ.TrackTargeted="1" PannerCurrentValue="0.5" PannerIsInverted="true" PannerStartKeyframe="-91445760000000000,0.5,0,0,0,0,0,0" PannerName="Balance" currentExplodedTrackIndex="0" totalExplodedTrackCount="2" premiereTrackType="Stereo">
									<clipitem id="clipitem-816" premiereChannelType="stereo">
										<masterclipid>masterclip-224</masterclipid>
										<name>I've Got Bars_1</name>
										<enabled>TRUE</enabled>
										<duration>2201</duration>
										<rate>
											<timebase>30</timebase>
											<ntsc>TRUE</ntsc>
										</rate>
										<start>82</start>
										<end>-1</end>
										<in>0</in>
										<out>1754</out>
										<pproTicksIn>0</pproTicksIn>
										<pproTicksOut>14866320268800</pproTicksOut>
										<sequence id="sequence-9"/>
										<sourcetrack>
											<mediatype>audio</mediatype>
											<trackindex>0</trackindex>
										</sourcetrack>
										<link>
											<linkclipref>clipitem-805</linkclipref>
											<mediatype>video</mediatype>
											<trackindex>1</trackindex>
											<clipindex>1</clipindex>
										</link>
										<link>
											<linkclipref>clipitem-816</linkclipref>
											<mediatype>audio</mediatype>
											<trackindex>1</trackindex>
											<clipindex>1</clipindex>
											<groupindex>1</groupindex>
										</link>
										<link>
											<linkclipref>clipitem-819</linkclipref>
											<mediatype>audio</mediatype>
											<trackindex>2</trackindex>
											<clipindex>1</clipindex>
											<groupindex>1</groupindex>
										</link>
										<labels>
											<label2>Forest</label2>
										</labels>
									</clipitem>
									<transitionitem>
										<start>1806</start>
										<end>1836</end>
										<pproTicksIn>15307054963200</pproTicksIn>
										<pproTicksOut>15561324979200</pproTicksOut>
										<alignment>end-black</alignment>
										<cutPointTicks>254270016000</cutPointTicks>
										<rate>
											<timebase>30</timebase>
											<ntsc>TRUE</ntsc>
										</rate>
										<effect>
											<name>Cross Fade (+3dB)</name>
											<effectid>KGAudioTransCrossFade3dB</effectid>
											<effecttype>transition</effecttype>
											<mediatype>audio</mediatype>
											<wipecode>0</wipecode>
											<wipeaccuracy>100</wipeaccuracy>
											<startratio>0</startratio>
											<endratio>1</endratio>
											<reverse>FALSE</reverse>
										</effect>
									</transitionitem>
									<transitionitem>
										<start>1870</start>
										<end>1900</end>
										<pproTicksIn>15849497664000</pproTicksIn>
										<pproTicksOut>16103767680000</pproTicksOut>
										<alignment>start-black</alignment>
										<cutPointTicks>0</cutPointTicks>
										<rate>
											<timebase>30</timebase>
											<ntsc>TRUE</ntsc>
										</rate>
										<effect>
											<name>Cross Fade (+3dB)</name>
											<effectid>KGAudioTransCrossFade3dB</effectid>
											<effecttype>transition</effecttype>
											<mediatype>audio</mediatype>
											<wipecode>0</wipecode>
											<wipeaccuracy>100</wipeaccuracy>
											<startratio>0</startratio>
											<endratio>1</endratio>
											<reverse>FALSE</reverse>
										</effect>
									</transitionitem>
									<clipitem id="clipitem-817" premiereChannelType="stereo">
										<masterclipid>masterclip-225</masterclipid>
										<name>Call Up Cookie Monster_1</name>
										<enabled>TRUE</enabled>
										<duration>5700</duration>
										<rate>
											<timebase>30</timebase>
											<ntsc>TRUE</ntsc>
										</rate>
										<start>-1</start>
										<end>-1</end>
										<in>0</in>
										<out>1821</out>
										<pproTicksIn>0</pproTicksIn>
										<pproTicksOut>15434189971200</pproTicksOut>
										<sequence id="sequence-6"/>
										<sourcetrack>
											<mediatype>audio</mediatype>
											<trackindex>0</trackindex>
										</sourcetrack>
										<link>
											<linkclipref>clipitem-806</linkclipref>
											<mediatype>video</mediatype>
											<trackindex>1</trackindex>
											<clipindex>2</clipindex>
										</link>
										<link>
											<linkclipref>clipitem-817</linkclipref>
											<mediatype>audio</mediatype>
											<trackindex>1</trackindex>
											<clipindex>4</clipindex>
											<groupindex>1</groupindex>
										</link>
										<link>
											<linkclipref>clipitem-820</linkclipref>
											<mediatype>audio</mediatype>
											<trackindex>2</trackindex>
											<clipindex>4</clipindex>
											<groupindex>1</groupindex>
										</link>
										<labels>
											<label2>Forest</label2>
										</labels>
									</clipitem>
									<transitionitem>
										<start>3661</start>
										<end>3691</end>
										<pproTicksIn>31029417619200</pproTicksIn>
										<pproTicksOut>31283687635200</pproTicksOut>
										<alignment>end-black</alignment>
										<cutPointTicks>254270016000</cutPointTicks>
										<rate>
											<timebase>30</timebase>
											<ntsc>TRUE</ntsc>
										</rate>
										<effect>
											<name>Cross Fade (+3dB)</name>
											<effectid>KGAudioTransCrossFade3dB</effectid>
											<effecttype>transition</effecttype>
											<mediatype>audio</mediatype>
											<wipecode>0</wipecode>
											<wipeaccuracy>100</wipeaccuracy>
											<startratio>0</startratio>
											<endratio>1</endratio>
											<reverse>FALSE</reverse>
										</effect>
									</transitionitem>
									<clipitem id="clipitem-818" premiereChannelType="stereo">
										<masterclipid>masterclip-226</masterclipid>
										<name>Perfect Plum Popsicles_1</name>
										<enabled>TRUE</enabled>
										<duration>2123</duration>
										<rate>
											<timebase>30</timebase>
											<ntsc>TRUE</ntsc>
										</rate>
										<start>3691</start>
										<end>-1</end>
										<in>0</in>
										<out>1790</out>
										<pproTicksIn>0</pproTicksIn>
										<pproTicksOut>15171444288000</pproTicksOut>
										<sequence id="sequence-1"/>
										<sourcetrack>
											<mediatype>audio</mediatype>
											<trackindex>0</trackindex>
										</sourcetrack>
										<link>
											<linkclipref>clipitem-807</linkclipref>
											<mediatype>video</mediatype>
											<trackindex>1</trackindex>
											<clipindex>3</clipindex>
										</link>
										<link>
											<linkclipref>clipitem-818</linkclipref>
											<mediatype>audio</mediatype>
											<trackindex>1</trackindex>
											<clipindex>6</clipindex>
											<groupindex>1</groupindex>
										</link>
										<link>
											<linkclipref>clipitem-821</linkclipref>
											<mediatype>audio</mediatype>
											<trackindex>2</trackindex>
											<clipindex>6</clipindex>
											<groupindex>1</groupindex>
										</link>
										<labels>
											<label2>Forest</label2>
										</labels>
									</clipitem>
									<transitionitem>
										<start>5451</start>
										<end>5481</end>
										<pproTicksIn>46200861907200</pproTicksIn>
										<pproTicksOut>46455131923200</pproTicksOut>
										<alignment>end-black</alignment>
										<cutPointTicks>254270016000</cutPointTicks>
										<rate>
											<timebase>30</timebase>
											<ntsc>TRUE</ntsc>
										</rate>
										<effect>
											<name>Cross Fade (+3dB)</name>
											<effectid>KGAudioTransCrossFade3dB</effectid>
											<effecttype>transition</effecttype>
											<mediatype>audio</mediatype>
											<wipecode>0</wipecode>
											<wipeaccuracy>100</wipeaccuracy>
											<startratio>0</startratio>
											<endratio>1</endratio>
											<reverse>FALSE</reverse>
										</effect>
									</transitionitem>
									<enabled>TRUE</enabled>
									<locked>FALSE</locked>
									<outputchannelindex>1</outputchannelindex>
								</track>
								<track TL.SQTrackAudioKeyframeStyle="0" TL.SQTrackShy="0" TL.SQTrackExpandedHeight="25" TL.SQTrackExpanded="0" MZ.TrackTargeted="1" PannerCurrentValue="0.5" PannerIsInverted="true" PannerStartKeyframe="-91445760000000000,0.5,0,0,0,0,0,0" PannerName="Balance" currentExplodedTrackIndex="1" totalExplodedTrackCount="2" premiereTrackType="Stereo">
									<clipitem id="clipitem-819" premiereChannelType="stereo">
										<masterclipid>masterclip-224</masterclipid>
										<name>I've Got Bars_1</name>
										<enabled>TRUE</enabled>
										<duration>2201</duration>
										<rate>
											<timebase>30</timebase>
											<ntsc>TRUE</ntsc>
										</rate>
										<start>82</start>
										<end>-1</end>
										<in>0</in>
										<out>1754</out>
										<pproTicksIn>0</pproTicksIn>
										<pproTicksOut>14866320268800</pproTicksOut>
										<sequence id="sequence-9"/>
										<sourcetrack>
											<mediatype>audio</mediatype>
											<trackindex>1</trackindex>
										</sourcetrack>
										<link>
											<linkclipref>clipitem-805</linkclipref>
											<mediatype>video</mediatype>
											<trackindex>1</trackindex>
											<clipindex>1</clipindex>
										</link>
										<link>
											<linkclipref>clipitem-816</linkclipref>
											<mediatype>audio</mediatype>
											<trackindex>1</trackindex>
											<clipindex>1</clipindex>
											<groupindex>1</groupindex>
										</link>
										<link>
											<linkclipref>clipitem-819</linkclipref>
											<mediatype>audio</mediatype>
											<trackindex>2</trackindex>
											<clipindex>1</clipindex>
											<groupindex>1</groupindex>
										</link>
										<labels>
											<label2>Forest</label2>
										</labels>
									</clipitem>
									<transitionitem>
										<start>1806</start>
										<end>1836</end>
										<pproTicksIn>15307054963200</pproTicksIn>
										<pproTicksOut>15561324979200</pproTicksOut>
										<alignment>end-black</alignment>
										<cutPointTicks>254270016000</cutPointTicks>
										<rate>
											<timebase>30</timebase>
											<ntsc>TRUE</ntsc>
										</rate>
										<effect>
											<name>Cross Fade (+3dB)</name>
											<effectid>KGAudioTransCrossFade3dB</effectid>
											<effecttype>transition</effecttype>
											<mediatype>audio</mediatype>
											<wipecode>0</wipecode>
											<wipeaccuracy>100</wipeaccuracy>
											<startratio>0</startratio>
											<endratio>1</endratio>
											<reverse>FALSE</reverse>
										</effect>
									</transitionitem>
									<transitionitem>
										<start>1870</start>
										<end>1900</end>
										<pproTicksIn>15849497664000</pproTicksIn>
										<pproTicksOut>16103767680000</pproTicksOut>
										<alignment>start-black</alignment>
										<cutPointTicks>0</cutPointTicks>
										<rate>
											<timebase>30</timebase>
											<ntsc>TRUE</ntsc>
										</rate>
										<effect>
											<name>Cross Fade (+3dB)</name>
											<effectid>KGAudioTransCrossFade3dB</effectid>
											<effecttype>transition</effecttype>
											<mediatype>audio</mediatype>
											<wipecode>0</wipecode>
											<wipeaccuracy>100</wipeaccuracy>
											<startratio>0</startratio>
											<endratio>1</endratio>
											<reverse>FALSE</reverse>
										</effect>
									</transitionitem>
									<clipitem id="clipitem-820" premiereChannelType="stereo">
										<masterclipid>masterclip-225</masterclipid>
										<name>Call Up Cookie Monster_1</name>
										<enabled>TRUE</enabled>
										<duration>5700</duration>
										<rate>
											<timebase>30</timebase>
											<ntsc>TRUE</ntsc>
										</rate>
										<start>-1</start>
										<end>-1</end>
										<in>0</in>
										<out>1821</out>
										<pproTicksIn>0</pproTicksIn>
										<pproTicksOut>15434189971200</pproTicksOut>
										<sequence id="sequence-6"/>
										<sourcetrack>
											<mediatype>audio</mediatype>
											<trackindex>1</trackindex>
										</sourcetrack>
										<link>
											<linkclipref>clipitem-806</linkclipref>
											<mediatype>video</mediatype>
											<trackindex>1</trackindex>
											<clipindex>2</clipindex>
										</link>
										<link>
											<linkclipref>clipitem-817</linkclipref>
											<mediatype>audio</mediatype>
											<trackindex>1</trackindex>
											<clipindex>4</clipindex>
											<groupindex>1</groupindex>
										</link>
										<link>
											<linkclipref>clipitem-820</linkclipref>
											<mediatype>audio</mediatype>
											<trackindex>2</trackindex>
											<clipindex>4</clipindex>
											<groupindex>1</groupindex>
										</link>
										<labels>
											<label2>Forest</label2>
										</labels>
									</clipitem>
									<transitionitem>
										<start>3661</start>
										<end>3691</end>
										<pproTicksIn>31029417619200</pproTicksIn>
										<pproTicksOut>31283687635200</pproTicksOut>
										<alignment>end-black</alignment>
										<cutPointTicks>254270016000</cutPointTicks>
										<rate>
											<timebase>30</timebase>
											<ntsc>TRUE</ntsc>
										</rate>
										<effect>
											<name>Cross Fade (+3dB)</name>
											<effectid>KGAudioTransCrossFade3dB</effectid>
											<effecttype>transition</effecttype>
											<mediatype>audio</mediatype>
											<wipecode>0</wipecode>
											<wipeaccuracy>100</wipeaccuracy>
											<startratio>0</startratio>
											<endratio>1</endratio>
											<reverse>FALSE</reverse>
										</effect>
									</transitionitem>
									<clipitem id="clipitem-821" premiereChannelType="stereo">
										<masterclipid>masterclip-226</masterclipid>
										<name>Perfect Plum Popsicles_1</name>
										<enabled>TRUE</enabled>
										<duration>2123</duration>
										<rate>
											<timebase>30</timebase>
											<ntsc>TRUE</ntsc>
										</rate>
										<start>3691</start>
										<end>-1</end>
										<in>0</in>
										<out>1790</out>
										<pproTicksIn>0</pproTicksIn>
										<pproTicksOut>15171444288000</pproTicksOut>
										<sequence id="sequence-1"/>
										<sourcetrack>
											<mediatype>audio</mediatype>
											<trackindex>1</trackindex>
										</sourcetrack>
										<link>
											<linkclipref>clipitem-807</linkclipref>
											<mediatype>video</mediatype>
											<trackindex>1</trackindex>
											<clipindex>3</clipindex>
										</link>
										<link>
											<linkclipref>clipitem-818</linkclipref>
											<mediatype>audio</mediatype>
											<trackindex>1</trackindex>
											<clipindex>6</clipindex>
											<groupindex>1</groupindex>
										</link>
										<link>
											<linkclipref>clipitem-821</linkclipref>
											<mediatype>audio</mediatype>
											<trackindex>2</trackindex>
											<clipindex>6</clipindex>
											<groupindex>1</groupindex>
										</link>
										<labels>
											<label2>Forest</label2>
										</labels>
									</clipitem>
									<transitionitem>
										<start>5451</start>
										<end>5481</end>
										<pproTicksIn>46200861907200</pproTicksIn>
										<pproTicksOut>46455131923200</pproTicksOut>
										<alignment>end-black</alignment>
										<cutPointTicks>254270016000</cutPointTicks>
										<rate>
											<timebase>30</timebase>
											<ntsc>TRUE</ntsc>
										</rate>
										<effect>
											<name>Cross Fade (+3dB)</name>
											<effectid>KGAudioTransCrossFade3dB</effectid>
											<effecttype>transition</effecttype>
											<mediatype>audio</mediatype>
											<wipecode>0</wipecode>
											<wipeaccuracy>100</wipeaccuracy>
											<startratio>0</startratio>
											<endratio>1</endratio>
											<reverse>FALSE</reverse>
										</effect>
									</transitionitem>
									<enabled>TRUE</enabled>
									<locked>FALSE</locked>
									<outputchannelindex>2</outputchannelindex>
								</track>
								<track TL.SQTrackAudioKeyframeStyle="0" TL.SQTrackShy="0" TL.SQTrackExpandedHeight="25" TL.SQTrackExpanded="0" MZ.TrackTargeted="1" PannerCurrentValue="0.5" PannerIsInverted="true" PannerStartKeyframe="-91445760000000000,0.5,0,0,0,0,0,0" PannerName="Balance" currentExplodedTrackIndex="0" totalExplodedTrackCount="2" premiereTrackType="Stereo">
									<clipitem id="clipitem-822" premiereChannelType="stereo">
										<masterclipid>masterclip-221</masterclipid>
										<name>Intro</name>
										<enabled>TRUE</enabled>
										<duration>160</duration>
										<rate>
											<timebase>30</timebase>
											<ntsc>TRUE</ntsc>
										</rate>
										<start>0</start>
										<end>115</end>
										<in>0</in>
										<out>115</out>
										<pproTicksIn>0</pproTicksIn>
										<pproTicksOut>974701728000</pproTicksOut>
										<sequence id="sequence-28"/>
										<sourcetrack>
											<mediatype>audio</mediatype>
											<trackindex>0</trackindex>
										</sourcetrack>
											<marker>
												<comment></comment>
												<name></name>
												<in>82</in>
												<out>-1</out>
											</marker>
										<link>
											<linkclipref>clipitem-812</linkclipref>
											<mediatype>video</mediatype>
											<trackindex>4</trackindex>
											<clipindex>1</clipindex>
										</link>
										<link>
											<linkclipref>clipitem-822</linkclipref>
											<mediatype>audio</mediatype>
											<trackindex>3</trackindex>
											<clipindex>1</clipindex>
											<groupindex>1</groupindex>
										</link>
										<link>
											<linkclipref>clipitem-826</linkclipref>
											<mediatype>audio</mediatype>
											<trackindex>4</trackindex>
											<clipindex>1</clipindex>
											<groupindex>1</groupindex>
										</link>
										<labels>
											<label2>Forest</label2>
										</labels>
									</clipitem>
									<clipitem id="clipitem-823" premiereChannelType="stereo">
										<masterclipid>masterclip-227</masterclipid>
										<name>Transition 2</name>
										<enabled>TRUE</enabled>
										<duration>160</duration>
										<rate>
											<timebase>30</timebase>
											<ntsc>TRUE</ntsc>
										</rate>
										<start>1816</start>
										<end>1935</end>
										<in>0</in>
										<out>119</out>
										<pproTicksIn>0</pproTicksIn>
										<pproTicksOut>1008604396800</pproTicksOut>
										<sequence id="sequence-31"/>
										<sourcetrack>
											<mediatype>audio</mediatype>
											<trackindex>0</trackindex>
										</sourcetrack>
											<marker>
												<comment></comment>
												<name></name>
												<in>20</in>
												<out>-1</out>
											</marker>
											<marker>
												<comment></comment>
												<name></name>
												<in>54</in>
												<out>-1</out>
											</marker>
										<link>
											<linkclipref>clipitem-813</linkclipref>
											<mediatype>video</mediatype>
											<trackindex>4</trackindex>
											<clipindex>2</clipindex>
										</link>
										<link>
											<linkclipref>clipitem-823</linkclipref>
											<mediatype>audio</mediatype>
											<trackindex>3</trackindex>
											<clipindex>2</clipindex>
											<groupindex>1</groupindex>
										</link>
										<link>
											<linkclipref>clipitem-827</linkclipref>
											<mediatype>audio</mediatype>
											<trackindex>4</trackindex>
											<clipindex>2</clipindex>
											<groupindex>1</groupindex>
										</link>
										<labels>
											<label2>Forest</label2>
										</labels>
									</clipitem>
									<clipitem id="clipitem-824" premiereChannelType="stereo">
										<masterclipid>masterclip-222</masterclipid>
										<name>Transition 1</name>
										<enabled>TRUE</enabled>
										<duration>160</duration>
										<rate>
											<timebase>30</timebase>
											<ntsc>TRUE</ntsc>
										</rate>
										<start>3634</start>
										<end>3752</end>
										<in>0</in>
										<out>118</out>
										<pproTicksIn>0</pproTicksIn>
										<pproTicksOut>1000128729600</pproTicksOut>
										<sequence id="sequence-30"/>
										<sourcetrack>
											<mediatype>audio</mediatype>
											<trackindex>0</trackindex>
										</sourcetrack>
											<marker>
												<comment></comment>
												<name></name>
												<in>57</in>
												<out>-1</out>
											</marker>
										<link>
											<linkclipref>clipitem-814</linkclipref>
											<mediatype>video</mediatype>
											<trackindex>4</trackindex>
											<clipindex>3</clipindex>
										</link>
										<link>
											<linkclipref>clipitem-824</linkclipref>
											<mediatype>audio</mediatype>
											<trackindex>3</trackindex>
											<clipindex>3</clipindex>
											<groupindex>1</groupindex>
										</link>
										<link>
											<linkclipref>clipitem-828</linkclipref>
											<mediatype>audio</mediatype>
											<trackindex>4</trackindex>
											<clipindex>3</clipindex>
											<groupindex>1</groupindex>
										</link>
										<labels>
											<label2>Forest</label2>
										</labels>
									</clipitem>
									<clipitem id="clipitem-825" premiereChannelType="stereo">
										<masterclipid>masterclip-223</masterclipid>
										<name>Outro</name>
										<enabled>TRUE</enabled>
										<duration>160</duration>
										<rate>
											<timebase>30</timebase>
											<ntsc>TRUE</ntsc>
										</rate>
										<start>5438</start>
										<end>5575</end>
										<in>0</in>
										<out>137</out>
										<pproTicksIn>0</pproTicksIn>
										<pproTicksOut>1161166406400</pproTicksOut>
										<sequence id="sequence-29"/>
										<sourcetrack>
											<mediatype>audio</mediatype>
											<trackindex>0</trackindex>
										</sourcetrack>
											<marker>
												<comment></comment>
												<name></name>
												<in>43</in>
												<out>-1</out>
											</marker>
										<link>
											<linkclipref>clipitem-815</linkclipref>
											<mediatype>video</mediatype>
											<trackindex>4</trackindex>
											<clipindex>4</clipindex>
										</link>
										<link>
											<linkclipref>clipitem-825</linkclipref>
											<mediatype>audio</mediatype>
											<trackindex>3</trackindex>
											<clipindex>4</clipindex>
											<groupindex>1</groupindex>
										</link>
										<link>
											<linkclipref>clipitem-829</linkclipref>
											<mediatype>audio</mediatype>
											<trackindex>4</trackindex>
											<clipindex>4</clipindex>
											<groupindex>1</groupindex>
										</link>
										<labels>
											<label2>Forest</label2>
										</labels>
									</clipitem>
									<enabled>TRUE</enabled>
									<locked>FALSE</locked>
									<outputchannelindex>1</outputchannelindex>
								</track>
								<track TL.SQTrackAudioKeyframeStyle="0" TL.SQTrackShy="0" TL.SQTrackExpandedHeight="25" TL.SQTrackExpanded="0" MZ.TrackTargeted="1" PannerCurrentValue="0.5" PannerIsInverted="true" PannerStartKeyframe="-91445760000000000,0.5,0,0,0,0,0,0" PannerName="Balance" currentExplodedTrackIndex="1" totalExplodedTrackCount="2" premiereTrackType="Stereo">
									<clipitem id="clipitem-826" premiereChannelType="stereo">
										<masterclipid>masterclip-221</masterclipid>
										<name>Intro</name>
										<enabled>TRUE</enabled>
										<duration>160</duration>
										<rate>
											<timebase>30</timebase>
											<ntsc>TRUE</ntsc>
										</rate>
										<start>0</start>
										<end>115</end>
										<in>0</in>
										<out>115</out>
										<pproTicksIn>0</pproTicksIn>
										<pproTicksOut>974701728000</pproTicksOut>
										<sequence id="sequence-28"/>
										<sourcetrack>
											<mediatype>audio</mediatype>
											<trackindex>1</trackindex>
										</sourcetrack>
											<marker>
												<comment></comment>
												<name></name>
												<in>82</in>
												<out>-1</out>
											</marker>
										<link>
											<linkclipref>clipitem-812</linkclipref>
											<mediatype>video</mediatype>
											<trackindex>4</trackindex>
											<clipindex>1</clipindex>
										</link>
										<link>
											<linkclipref>clipitem-822</linkclipref>
											<mediatype>audio</mediatype>
											<trackindex>3</trackindex>
											<clipindex>1</clipindex>
											<groupindex>1</groupindex>
										</link>
										<link>
											<linkclipref>clipitem-826</linkclipref>
											<mediatype>audio</mediatype>
											<trackindex>4</trackindex>
											<clipindex>1</clipindex>
											<groupindex>1</groupindex>
										</link>
										<labels>
											<label2>Forest</label2>
										</labels>
									</clipitem>
									<clipitem id="clipitem-827" premiereChannelType="stereo">
										<masterclipid>masterclip-227</masterclipid>
										<name>Transition 2</name>
										<enabled>TRUE</enabled>
										<duration>160</duration>
										<rate>
											<timebase>30</timebase>
											<ntsc>TRUE</ntsc>
										</rate>
										<start>1816</start>
										<end>1935</end>
										<in>0</in>
										<out>119</out>
										<pproTicksIn>0</pproTicksIn>
										<pproTicksOut>1008604396800</pproTicksOut>
										<sequence id="sequence-31"/>
										<sourcetrack>
											<mediatype>audio</mediatype>
											<trackindex>1</trackindex>
										</sourcetrack>
											<marker>
												<comment></comment>
												<name></name>
												<in>20</in>
												<out>-1</out>
											</marker>
											<marker>
												<comment></comment>
												<name></name>
												<in>54</in>
												<out>-1</out>
											</marker>
										<link>
											<linkclipref>clipitem-813</linkclipref>
											<mediatype>video</mediatype>
											<trackindex>4</trackindex>
											<clipindex>2</clipindex>
										</link>
										<link>
											<linkclipref>clipitem-823</linkclipref>
											<mediatype>audio</mediatype>
											<trackindex>3</trackindex>
											<clipindex>2</clipindex>
											<groupindex>1</groupindex>
										</link>
										<link>
											<linkclipref>clipitem-827</linkclipref>
											<mediatype>audio</mediatype>
											<trackindex>4</trackindex>
											<clipindex>2</clipindex>
											<groupindex>1</groupindex>
										</link>
										<labels>
											<label2>Forest</label2>
										</labels>
									</clipitem>
									<clipitem id="clipitem-828" premiereChannelType="stereo">
										<masterclipid>masterclip-222</masterclipid>
										<name>Transition 1</name>
										<enabled>TRUE</enabled>
										<duration>160</duration>
										<rate>
											<timebase>30</timebase>
											<ntsc>TRUE</ntsc>
										</rate>
										<start>3634</start>
										<end>3752</end>
										<in>0</in>
										<out>118</out>
										<pproTicksIn>0</pproTicksIn>
										<pproTicksOut>1000128729600</pproTicksOut>
										<sequence id="sequence-30"/>
										<sourcetrack>
											<mediatype>audio</mediatype>
											<trackindex>1</trackindex>
										</sourcetrack>
											<marker>
												<comment></comment>
												<name></name>
												<in>57</in>
												<out>-1</out>
											</marker>
										<link>
											<linkclipref>clipitem-814</linkclipref>
											<mediatype>video</mediatype>
											<trackindex>4</trackindex>
											<clipindex>3</clipindex>
										</link>
										<link>
											<linkclipref>clipitem-824</linkclipref>
											<mediatype>audio</mediatype>
											<trackindex>3</trackindex>
											<clipindex>3</clipindex>
											<groupindex>1</groupindex>
										</link>
										<link>
											<linkclipref>clipitem-828</linkclipref>
											<mediatype>audio</mediatype>
											<trackindex>4</trackindex>
											<clipindex>3</clipindex>
											<groupindex>1</groupindex>
										</link>
										<labels>
											<label2>Forest</label2>
										</labels>
									</clipitem>
									<clipitem id="clipitem-829" premiereChannelType="stereo">
										<masterclipid>masterclip-223</masterclipid>
										<name>Outro</name>
										<enabled>TRUE</enabled>
										<duration>160</duration>
										<rate>
											<timebase>30</timebase>
											<ntsc>TRUE</ntsc>
										</rate>
										<start>5438</start>
										<end>5575</end>
										<in>0</in>
										<out>137</out>
										<pproTicksIn>0</pproTicksIn>
										<pproTicksOut>1161166406400</pproTicksOut>
										<sequence id="sequence-29"/>
										<sourcetrack>
											<mediatype>audio</mediatype>
											<trackindex>1</trackindex>
										</sourcetrack>
											<marker>
												<comment></comment>
												<name></name>
												<in>43</in>
												<out>-1</out>
											</marker>
										<link>
											<linkclipref>clipitem-815</linkclipref>
											<mediatype>video</mediatype>
											<trackindex>4</trackindex>
											<clipindex>4</clipindex>
										</link>
										<link>
											<linkclipref>clipitem-825</linkclipref>
											<mediatype>audio</mediatype>
											<trackindex>3</trackindex>
											<clipindex>4</clipindex>
											<groupindex>1</groupindex>
										</link>
										<link>
											<linkclipref>clipitem-829</linkclipref>
											<mediatype>audio</mediatype>
											<trackindex>4</trackindex>
											<clipindex>4</clipindex>
											<groupindex>1</groupindex>
										</link>
										<labels>
											<label2>Forest</label2>
										</labels>
									</clipitem>
									<enabled>TRUE</enabled>
									<locked>FALSE</locked>
									<outputchannelindex>2</outputchannelindex>
								</track>
								<track TL.SQTrackAudioKeyframeStyle="0" TL.SQTrackShy="0" TL.SQTrackExpandedHeight="25" TL.SQTrackExpanded="0" MZ.TrackTargeted="1" PannerCurrentValue="0.5" PannerIsInverted="true" PannerStartKeyframe="-91445760000000000,0.5,0,0,0,0,0,0" PannerName="Balance" currentExplodedTrackIndex="0" totalExplodedTrackCount="2" premiereTrackType="Stereo">
									<enabled>TRUE</enabled>
									<locked>FALSE</locked>
									<outputchannelindex>1</outputchannelindex>
								</track>
								<track TL.SQTrackAudioKeyframeStyle="0" TL.SQTrackShy="0" TL.SQTrackExpandedHeight="25" TL.SQTrackExpanded="0" MZ.TrackTargeted="1" PannerCurrentValue="0.5" PannerIsInverted="true" PannerStartKeyframe="-91445760000000000,0.5,0,0,0,0,0,0" PannerName="Balance" currentExplodedTrackIndex="1" totalExplodedTrackCount="2" premiereTrackType="Stereo">
									<enabled>TRUE</enabled>
									<locked>FALSE</locked>
									<outputchannelindex>2</outputchannelindex>
								</track>
							</audio>
						</media>
						<timecode>
							<rate>
								<timebase>30</timebase>
								<ntsc>TRUE</ntsc>
							</rate>
							<string>00;00;00;00</string>
							<frame>0</frame>
							<displayformat>DF</displayformat>
						</timecode>
						<labels>
							<label2>Forest</label2>
						</labels>
						<logginginfo>
							<description></description>
							<scene></scene>
							<shottake></shottake>
							<lognote></lognote>
							<good></good>
							<originalvideofilename></originalvideofilename>
							<originalaudiofilename></originalaudiofilename>
						</logginginfo>
					</sequence>
					<sequence id="sequence-34" TL.SQAudioVisibleBase="0" TL.SQVideoVisibleBase="0" TL.SQVisibleBaseTime="0" TL.SQAVDividerPosition="0.5" TL.SQHideShyTracks="0" TL.SQHeaderWidth="236" TL.SQDataTrackViewControlState="0" Monitor.ProgramZoomOut="47921422348800" Monitor.ProgramZoomIn="0" TL.SQTimePerPixel="0.20416442958134234" AM.TrackVScrollPosition="0" AM.TrackScrollPosition="0" MZ.EditLine="8145116179200" MZ.Sequence.PreviewFrameSizeHeight="1080" MZ.Sequence.PreviewFrameSizeWidth="1920" MZ.Sequence.AudioTimeDisplayFormat="200" MZ.Sequence.PreviewRenderingClassID="1061109567" MZ.Sequence.PreviewRenderingPresetCodec="1634755443" MZ.Sequence.PreviewRenderingPresetPath="EncoderPresets/SequencePreview/35d109db-457b-43c1-9452-9cb7be9f121c/QuickTime.epr" MZ.Sequence.PreviewUseMaxRenderQuality="false" MZ.Sequence.PreviewUseMaxBitDepth="false" MZ.Sequence.EditingModeGUID="35d109db-457b-43c1-9452-9cb7be9f121c" MZ.Sequence.VideoTimeDisplayFormat="102" MZ.WorkOutPoint="15239249625600" MZ.WorkInPoint="0" explodedTracks="true">
						<uuid>96d2619a-83b1-494d-91da-51e96f9d0b1d</uuid>
						<duration>5654</duration>
						<rate>
							<timebase>30</timebase>
							<ntsc>TRUE</ntsc>
						</rate>
						<name>ATM_EYECANDY_248</name>
						<media>
							<video>
								<format>
									<samplecharacteristics>
										<rate>
											<timebase>30</timebase>
											<ntsc>TRUE</ntsc>
										</rate>
										<codec>
											<name>Apple ProRes 422</name>
											<appspecificdata>
												<appname>Final Cut Pro</appname>
												<appmanufacturer>Apple Inc.</appmanufacturer>
												<appversion>7.0</appversion>
												<data>
													<qtcodec>
														<codecname>Apple ProRes 422</codecname>
														<codectypename>Apple ProRes 422</codectypename>
														<codectypecode>apcn</codectypecode>
														<codecvendorcode>appl</codecvendorcode>
														<spatialquality>1024</spatialquality>
														<temporalquality>0</temporalquality>
														<keyframerate>0</keyframerate>
														<datarate>0</datarate>
													</qtcodec>
												</data>
											</appspecificdata>
										</codec>
										<width>1920</width>
										<height>1080</height>
										<anamorphic>FALSE</anamorphic>
										<pixelaspectratio>square</pixelaspectratio>
										<fielddominance>none</fielddominance>
										<colordepth>24</colordepth>
									</samplecharacteristics>
								</format>
								<track TL.SQTrackShy="0" TL.SQTrackExpandedHeight="25" TL.SQTrackExpanded="0" MZ.TrackTargeted="1">
									<clipitem id="clipitem-830">
										<masterclipid>masterclip-228</masterclipid>
										<name>You're the Apple of My Eye_1.5</name>
										<enabled>TRUE</enabled>
										<duration>5700</duration>
										<rate>
											<timebase>30</timebase>
											<ntsc>TRUE</ntsc>
										</rate>
										<start>82</start>
										<end>2796</end>
										<in>0</in>
										<out>2714</out>
										<pproTicksIn>0</pproTicksIn>
										<pproTicksOut>23002960780800</pproTicksOut>
										<sequence id="sequence-7"/>
										<link>
											<linkclipref>clipitem-830</linkclipref>
											<mediatype>video</mediatype>
											<trackindex>1</trackindex>
											<clipindex>1</clipindex>
										</link>
										<link>
											<linkclipref>clipitem-838</linkclipref>
											<mediatype>audio</mediatype>
											<trackindex>1</trackindex>
											<clipindex>1</clipindex>
											<groupindex>1</groupindex>
										</link>
										<link>
											<linkclipref>clipitem-841</linkclipref>
											<mediatype>audio</mediatype>
											<trackindex>2</trackindex>
											<clipindex>1</clipindex>
											<groupindex>1</groupindex>
										</link>
										<labels>
											<label2>Forest</label2>
										</labels>
									</clipitem>
									<clipitem id="clipitem-831">
										<masterclipid>masterclip-229</masterclipid>
										<name>The Chocolate Factor_1.5</name>
										<enabled>TRUE</enabled>
										<duration>3750</duration>
										<rate>
											<timebase>30</timebase>
											<ntsc>TRUE</ntsc>
										</rate>
										<start>2830</start>
										<end>5415</end>
										<in>0</in>
										<out>2585</out>
										<pproTicksIn>0</pproTicksIn>
										<pproTicksOut>21909599712000</pproTicksOut>
										<sequence id="sequence-4"/>
										<link>
											<linkclipref>clipitem-831</linkclipref>
											<mediatype>video</mediatype>
											<trackindex>1</trackindex>
											<clipindex>2</clipindex>
										</link>
										<link>
											<linkclipref>clipitem-839</linkclipref>
											<mediatype>audio</mediatype>
											<trackindex>1</trackindex>
											<clipindex>3</clipindex>
											<groupindex>1</groupindex>
										</link>
										<link>
											<linkclipref>clipitem-842</linkclipref>
											<mediatype>audio</mediatype>
											<trackindex>2</trackindex>
											<clipindex>3</clipindex>
											<groupindex>1</groupindex>
										</link>
										<labels>
											<label2>Forest</label2>
										</labels>
									</clipitem>
									<clipitem id="clipitem-832">
										<masterclipid>masterclip-230</masterclipid>
										<name>Bumper 1</name>
										<enabled>TRUE</enabled>
										<duration>239</duration>
										<rate>
											<timebase>30</timebase>
											<ntsc>TRUE</ntsc>
										</rate>
										<start>5415</start>
										<end>5654</end>
										<in>0</in>
										<out>239</out>
										<pproTicksIn>0</pproTicksIn>
										<pproTicksOut>2025684460800</pproTicksOut>
										<sequence id="sequence-25"/>
										<link>
											<linkclipref>clipitem-832</linkclipref>
											<mediatype>video</mediatype>
											<trackindex>1</trackindex>
											<clipindex>3</clipindex>
										</link>
										<link>
											<linkclipref>clipitem-840</linkclipref>
											<mediatype>audio</mediatype>
											<trackindex>1</trackindex>
											<clipindex>5</clipindex>
											<groupindex>1</groupindex>
										</link>
										<link>
											<linkclipref>clipitem-843</linkclipref>
											<mediatype>audio</mediatype>
											<trackindex>2</trackindex>
											<clipindex>5</clipindex>
											<groupindex>1</groupindex>
										</link>
										<labels>
											<label2>Forest</label2>
										</labels>
									</clipitem>
									<enabled>TRUE</enabled>
									<locked>FALSE</locked>
								</track>
								<track TL.SQTrackShy="0" TL.SQTrackExpandedHeight="25" TL.SQTrackExpanded="0" MZ.TrackTargeted="0">
									<clipitem id="clipitem-833">
										<masterclipid>masterclip-209</masterclipid>
										<name>ATM BUG_1080_Top Right.png</name>
										<enabled>TRUE</enabled>
										<duration>1294705</duration>
										<rate>
											<timebase>30</timebase>
											<ntsc>TRUE</ntsc>
										</rate>
										<start>82</start>
										<end>5415</end>
										<in>107892</in>
										<out>113225</out>
										<pproTicksIn>914456685542400</pproTicksIn>
										<pproTicksOut>959657418720000</pproTicksOut>
										<alphatype>straight</alphatype>
										<file id="file-206"/>
										<logginginfo>
											<description></description>
											<scene></scene>
											<shottake></shottake>
											<lognote></lognote>
											<good></good>
											<originalvideofilename></originalvideofilename>
											<originalaudiofilename></originalaudiofilename>
										</logginginfo>
										<colorinfo>
											<lut></lut>
											<lut1></lut1>
											<asc_sop></asc_sop>
											<asc_sat></asc_sat>
											<lut2></lut2>
										</colorinfo>
										<labels>
										</labels>
									</clipitem>
									<enabled>TRUE</enabled>
									<locked>FALSE</locked>
								</track>
								<track TL.SQTrackShy="0" TL.SQTrackExpandedHeight="25" TL.SQTrackExpanded="0" MZ.TrackTargeted="0">
									<clipitem id="clipitem-834">
										<masterclipid>masterclip-153</masterclipid>
										<name>You're the Apple of My Eye</name>
										<enabled>TRUE</enabled>
										<duration>6293</duration>
										<rate>
											<timebase>30</timebase>
											<ntsc>TRUE</ntsc>
										</rate>
										<start>115</start>
										<end>2796</end>
										<in>0</in>
										<out>2681</out>
										<pproTicksIn>0</pproTicksIn>
										<pproTicksOut>22723263763200</pproTicksOut>
										<alphatype>straight</alphatype>
										<file id="file-153"/>
										<logginginfo>
											<description></description>
											<scene></scene>
											<shottake></shottake>
											<lognote></lognote>
											<good></good>
											<originalvideofilename></originalvideofilename>
											<originalaudiofilename></originalaudiofilename>
										</logginginfo>
										<colorinfo>
											<lut></lut>
											<lut1></lut1>
											<asc_sop></asc_sop>
											<asc_sat></asc_sat>
											<lut2></lut2>
										</colorinfo>
									</clipitem>
									<clipitem id="clipitem-835">
										<masterclipid>masterclip-154</masterclipid>
										<name>The Chocolate Factor</name>
										<enabled>TRUE</enabled>
										<duration>6293</duration>
										<rate>
											<timebase>30</timebase>
											<ntsc>TRUE</ntsc>
										</rate>
										<start>2895</start>
										<end>5415</end>
										<in>0</in>
										<out>2520</out>
										<pproTicksIn>0</pproTicksIn>
										<pproTicksOut>21358681344000</pproTicksOut>
										<alphatype>straight</alphatype>
										<file id="file-154"/>
										<logginginfo>
											<description></description>
											<scene></scene>
											<shottake></shottake>
											<lognote></lognote>
											<good></good>
											<originalvideofilename></originalvideofilename>
											<originalaudiofilename></originalaudiofilename>
										</logginginfo>
										<colorinfo>
											<lut></lut>
											<lut1></lut1>
											<asc_sop></asc_sop>
											<asc_sat></asc_sat>
											<lut2></lut2>
										</colorinfo>
									</clipitem>
									<enabled>TRUE</enabled>
									<locked>FALSE</locked>
								</track>
								<track TL.SQTrackShy="0" TL.SQTrackExpandedHeight="25" TL.SQTrackExpanded="0" MZ.TrackTargeted="0">
									<clipitem id="clipitem-836">
										<masterclipid>masterclip-221</masterclipid>
										<name>Intro</name>
										<enabled>TRUE</enabled>
										<duration>160</duration>
										<rate>
											<timebase>30</timebase>
											<ntsc>TRUE</ntsc>
										</rate>
										<start>0</start>
										<end>115</end>
										<in>0</in>
										<out>115</out>
										<pproTicksIn>0</pproTicksIn>
										<pproTicksOut>974701728000</pproTicksOut>
										<sequence id="sequence-28"/>
											<marker>
												<comment></comment>
												<name></name>
												<in>82</in>
												<out>-1</out>
											</marker>
										<link>
											<linkclipref>clipitem-836</linkclipref>
											<mediatype>video</mediatype>
											<trackindex>4</trackindex>
											<clipindex>1</clipindex>
										</link>
										<link>
											<linkclipref>clipitem-844</linkclipref>
											<mediatype>audio</mediatype>
											<trackindex>3</trackindex>
											<clipindex>1</clipindex>
											<groupindex>1</groupindex>
										</link>
										<link>
											<linkclipref>clipitem-846</linkclipref>
											<mediatype>audio</mediatype>
											<trackindex>4</trackindex>
											<clipindex>1</clipindex>
											<groupindex>1</groupindex>
										</link>
										<labels>
											<label2>Forest</label2>
										</labels>
									</clipitem>
									<clipitem id="clipitem-837">
										<masterclipid>masterclip-227</masterclipid>
										<name>Transition 2</name>
										<enabled>TRUE</enabled>
										<duration>160</duration>
										<rate>
											<timebase>30</timebase>
											<ntsc>TRUE</ntsc>
										</rate>
										<start>2776</start>
										<end>2895</end>
										<in>0</in>
										<out>119</out>
										<pproTicksIn>0</pproTicksIn>
										<pproTicksOut>1008604396800</pproTicksOut>
										<sequence id="sequence-31"/>
											<marker>
												<comment></comment>
												<name></name>
												<in>20</in>
												<out>-1</out>
											</marker>
											<marker>
												<comment></comment>
												<name></name>
												<in>54</in>
												<out>-1</out>
											</marker>
										<link>
											<linkclipref>clipitem-837</linkclipref>
											<mediatype>video</mediatype>
											<trackindex>4</trackindex>
											<clipindex>2</clipindex>
										</link>
										<link>
											<linkclipref>clipitem-845</linkclipref>
											<mediatype>audio</mediatype>
											<trackindex>3</trackindex>
											<clipindex>2</clipindex>
											<groupindex>1</groupindex>
										</link>
										<link>
											<linkclipref>clipitem-847</linkclipref>
											<mediatype>audio</mediatype>
											<trackindex>4</trackindex>
											<clipindex>2</clipindex>
											<groupindex>1</groupindex>
										</link>
										<labels>
											<label2>Forest</label2>
										</labels>
									</clipitem>
									<enabled>TRUE</enabled>
									<locked>FALSE</locked>
								</track>
							</video>
							<audio>
								<numOutputChannels>2</numOutputChannels>
								<format>
									<samplecharacteristics>
										<depth>16</depth>
										<samplerate>48000</samplerate>
									</samplecharacteristics>
								</format>
								<outputs>
									<group>
										<index>1</index>
										<numchannels>1</numchannels>
										<downmix>0</downmix>
										<channel>
											<index>1</index>
										</channel>
									</group>
									<group>
										<index>2</index>
										<numchannels>1</numchannels>
										<downmix>0</downmix>
										<channel>
											<index>2</index>
										</channel>
									</group>
								</outputs>
								<track TL.SQTrackAudioKeyframeStyle="0" TL.SQTrackShy="0" TL.SQTrackExpandedHeight="25" TL.SQTrackExpanded="0" MZ.TrackTargeted="1" PannerCurrentValue="0.5" PannerIsInverted="true" PannerStartKeyframe="-91445760000000000,0.5,0,0,0,0,0,0" PannerName="Balance" currentExplodedTrackIndex="0" totalExplodedTrackCount="2" premiereTrackType="Stereo">
									<clipitem id="clipitem-838" premiereChannelType="stereo">
										<masterclipid>masterclip-228</masterclipid>
										<name>You're the Apple of My Eye_1.5</name>
										<enabled>TRUE</enabled>
										<duration>5700</duration>
										<rate>
											<timebase>30</timebase>
											<ntsc>TRUE</ntsc>
										</rate>
										<start>82</start>
										<end>-1</end>
										<in>0</in>
										<out>2714</out>
										<pproTicksIn>0</pproTicksIn>
										<pproTicksOut>23002960780800</pproTicksOut>
										<sequence id="sequence-7"/>
										<sourcetrack>
											<mediatype>audio</mediatype>
											<trackindex>0</trackindex>
										</sourcetrack>
										<link>
											<linkclipref>clipitem-830</linkclipref>
											<mediatype>video</mediatype>
											<trackindex>1</trackindex>
											<clipindex>1</clipindex>
										</link>
										<link>
											<linkclipref>clipitem-838</linkclipref>
											<mediatype>audio</mediatype>
											<trackindex>1</trackindex>
											<clipindex>1</clipindex>
											<groupindex>1</groupindex>
										</link>
										<link>
											<linkclipref>clipitem-841</linkclipref>
											<mediatype>audio</mediatype>
											<trackindex>2</trackindex>
											<clipindex>1</clipindex>
											<groupindex>1</groupindex>
										</link>
										<labels>
											<label2>Forest</label2>
										</labels>
									</clipitem>
									<transitionitem>
										<start>2766</start>
										<end>2796</end>
										<pproTicksIn>23443695475200</pproTicksIn>
										<pproTicksOut>23697965491200</pproTicksOut>
										<alignment>end-black</alignment>
										<cutPointTicks>254270016000</cutPointTicks>
										<rate>
											<timebase>30</timebase>
											<ntsc>TRUE</ntsc>
										</rate>
										<effect>
											<name>Cross Fade (+3dB)</name>
											<effectid>KGAudioTransCrossFade3dB</effectid>
											<effecttype>transition</effecttype>
											<mediatype>audio</mediatype>
											<wipecode>0</wipecode>
											<wipeaccuracy>100</wipeaccuracy>
											<startratio>0</startratio>
											<endratio>1</endratio>
											<reverse>FALSE</reverse>
										</effect>
									</transitionitem>
									<clipitem id="clipitem-839" premiereChannelType="stereo">
										<masterclipid>masterclip-229</masterclipid>
										<name>The Chocolate Factor_1.5</name>
										<enabled>TRUE</enabled>
										<duration>3750</duration>
										<rate>
											<timebase>30</timebase>
											<ntsc>TRUE</ntsc>
										</rate>
										<start>2830</start>
										<end>-1</end>
										<in>0</in>
										<out>2585</out>
										<pproTicksIn>0</pproTicksIn>
										<pproTicksOut>21909599712000</pproTicksOut>
										<sequence id="sequence-4"/>
										<sourcetrack>
											<mediatype>audio</mediatype>
											<trackindex>0</trackindex>
										</sourcetrack>
										<link>
											<linkclipref>clipitem-831</linkclipref>
											<mediatype>video</mediatype>
											<trackindex>1</trackindex>
											<clipindex>2</clipindex>
										</link>
										<link>
											<linkclipref>clipitem-839</linkclipref>
											<mediatype>audio</mediatype>
											<trackindex>1</trackindex>
											<clipindex>3</clipindex>
											<groupindex>1</groupindex>
										</link>
										<link>
											<linkclipref>clipitem-842</linkclipref>
											<mediatype>audio</mediatype>
											<trackindex>2</trackindex>
											<clipindex>3</clipindex>
											<groupindex>1</groupindex>
										</link>
										<labels>
											<label2>Forest</label2>
										</labels>
									</clipitem>
									<transitionitem>
										<start>5385</start>
										<end>5415</end>
										<pproTicksIn>45641467872000</pproTicksIn>
										<pproTicksOut>45895737888000</pproTicksOut>
										<alignment>end-black</alignment>
										<cutPointTicks>254270016000</cutPointTicks>
										<rate>
											<timebase>30</timebase>
											<ntsc>TRUE</ntsc>
										</rate>
										<effect>
											<name>Cross Fade (+3dB)</name>
											<effectid>KGAudioTransCrossFade3dB</effectid>
											<effecttype>transition</effecttype>
											<mediatype>audio</mediatype>
											<wipecode>0</wipecode>
											<wipeaccuracy>100</wipeaccuracy>
											<startratio>0</startratio>
											<endratio>1</endratio>
											<reverse>FALSE</reverse>
										</effect>
									</transitionitem>
									<clipitem id="clipitem-840" premiereChannelType="stereo">
										<masterclipid>masterclip-230</masterclipid>
										<name>Bumper 1</name>
										<enabled>TRUE</enabled>
										<duration>239</duration>
										<rate>
											<timebase>30</timebase>
											<ntsc>TRUE</ntsc>
										</rate>
										<start>5415</start>
										<end>5654</end>
										<in>0</in>
										<out>239</out>
										<pproTicksIn>0</pproTicksIn>
										<pproTicksOut>2025684460800</pproTicksOut>
										<sequence id="sequence-25"/>
										<sourcetrack>
											<mediatype>audio</mediatype>
											<trackindex>0</trackindex>
										</sourcetrack>
										<link>
											<linkclipref>clipitem-832</linkclipref>
											<mediatype>video</mediatype>
											<trackindex>1</trackindex>
											<clipindex>3</clipindex>
										</link>
										<link>
											<linkclipref>clipitem-840</linkclipref>
											<mediatype>audio</mediatype>
											<trackindex>1</trackindex>
											<clipindex>5</clipindex>
											<groupindex>1</groupindex>
										</link>
										<link>
											<linkclipref>clipitem-843</linkclipref>
											<mediatype>audio</mediatype>
											<trackindex>2</trackindex>
											<clipindex>5</clipindex>
											<groupindex>1</groupindex>
										</link>
										<labels>
											<label2>Forest</label2>
										</labels>
									</clipitem>
									<enabled>TRUE</enabled>
									<locked>FALSE</locked>
									<outputchannelindex>1</outputchannelindex>
								</track>
								<track TL.SQTrackAudioKeyframeStyle="0" TL.SQTrackShy="0" TL.SQTrackExpandedHeight="25" TL.SQTrackExpanded="0" MZ.TrackTargeted="1" PannerCurrentValue="0.5" PannerIsInverted="true" PannerStartKeyframe="-91445760000000000,0.5,0,0,0,0,0,0" PannerName="Balance" currentExplodedTrackIndex="1" totalExplodedTrackCount="2" premiereTrackType="Stereo">
									<clipitem id="clipitem-841" premiereChannelType="stereo">
										<masterclipid>masterclip-228</masterclipid>
										<name>You're the Apple of My Eye_1.5</name>
										<enabled>TRUE</enabled>
										<duration>5700</duration>
										<rate>
											<timebase>30</timebase>
											<ntsc>TRUE</ntsc>
										</rate>
										<start>82</start>
										<end>-1</end>
										<in>0</in>
										<out>2714</out>
										<pproTicksIn>0</pproTicksIn>
										<pproTicksOut>23002960780800</pproTicksOut>
										<sequence id="sequence-7"/>
										<sourcetrack>
											<mediatype>audio</mediatype>
											<trackindex>1</trackindex>
										</sourcetrack>
										<link>
											<linkclipref>clipitem-830</linkclipref>
											<mediatype>video</mediatype>
											<trackindex>1</trackindex>
											<clipindex>1</clipindex>
										</link>
										<link>
											<linkclipref>clipitem-838</linkclipref>
											<mediatype>audio</mediatype>
											<trackindex>1</trackindex>
											<clipindex>1</clipindex>
											<groupindex>1</groupindex>
										</link>
										<link>
											<linkclipref>clipitem-841</linkclipref>
											<mediatype>audio</mediatype>
											<trackindex>2</trackindex>
											<clipindex>1</clipindex>
											<groupindex>1</groupindex>
										</link>
										<labels>
											<label2>Forest</label2>
										</labels>
									</clipitem>
									<transitionitem>
										<start>2766</start>
										<end>2796</end>
										<pproTicksIn>23443695475200</pproTicksIn>
										<pproTicksOut>23697965491200</pproTicksOut>
										<alignment>end-black</alignment>
										<cutPointTicks>254270016000</cutPointTicks>
										<rate>
											<timebase>30</timebase>
											<ntsc>TRUE</ntsc>
										</rate>
										<effect>
											<name>Cross Fade (+3dB)</name>
											<effectid>KGAudioTransCrossFade3dB</effectid>
											<effecttype>transition</effecttype>
											<mediatype>audio</mediatype>
											<wipecode>0</wipecode>
											<wipeaccuracy>100</wipeaccuracy>
											<startratio>0</startratio>
											<endratio>1</endratio>
											<reverse>FALSE</reverse>
										</effect>
									</transitionitem>
									<clipitem id="clipitem-842" premiereChannelType="stereo">
										<masterclipid>masterclip-229</masterclipid>
										<name>The Chocolate Factor_1.5</name>
										<enabled>TRUE</enabled>
										<duration>3750</duration>
										<rate>
											<timebase>30</timebase>
											<ntsc>TRUE</ntsc>
										</rate>
										<start>2830</start>
										<end>-1</end>
										<in>0</in>
										<out>2585</out>
										<pproTicksIn>0</pproTicksIn>
										<pproTicksOut>21909599712000</pproTicksOut>
										<sequence id="sequence-4"/>
										<sourcetrack>
											<mediatype>audio</mediatype>
											<trackindex>1</trackindex>
										</sourcetrack>
										<link>
											<linkclipref>clipitem-831</linkclipref>
											<mediatype>video</mediatype>
											<trackindex>1</trackindex>
											<clipindex>2</clipindex>
										</link>
										<link>
											<linkclipref>clipitem-839</linkclipref>
											<mediatype>audio</mediatype>
											<trackindex>1</trackindex>
											<clipindex>3</clipindex>
											<groupindex>1</groupindex>
										</link>
										<link>
											<linkclipref>clipitem-842</linkclipref>
											<mediatype>audio</mediatype>
											<trackindex>2</trackindex>
											<clipindex>3</clipindex>
											<groupindex>1</groupindex>
										</link>
										<labels>
											<label2>Forest</label2>
										</labels>
									</clipitem>
									<transitionitem>
										<start>5385</start>
										<end>5415</end>
										<pproTicksIn>45641467872000</pproTicksIn>
										<pproTicksOut>45895737888000</pproTicksOut>
										<alignment>end-black</alignment>
										<cutPointTicks>254270016000</cutPointTicks>
										<rate>
											<timebase>30</timebase>
											<ntsc>TRUE</ntsc>
										</rate>
										<effect>
											<name>Cross Fade (+3dB)</name>
											<effectid>KGAudioTransCrossFade3dB</effectid>
											<effecttype>transition</effecttype>
											<mediatype>audio</mediatype>
											<wipecode>0</wipecode>
											<wipeaccuracy>100</wipeaccuracy>
											<startratio>0</startratio>
											<endratio>1</endratio>
											<reverse>FALSE</reverse>
										</effect>
									</transitionitem>
									<clipitem id="clipitem-843" premiereChannelType="stereo">
										<masterclipid>masterclip-230</masterclipid>
										<name>Bumper 1</name>
										<enabled>TRUE</enabled>
										<duration>239</duration>
										<rate>
											<timebase>30</timebase>
											<ntsc>TRUE</ntsc>
										</rate>
										<start>5415</start>
										<end>5654</end>
										<in>0</in>
										<out>239</out>
										<pproTicksIn>0</pproTicksIn>
										<pproTicksOut>2025684460800</pproTicksOut>
										<sequence id="sequence-25"/>
										<sourcetrack>
											<mediatype>audio</mediatype>
											<trackindex>1</trackindex>
										</sourcetrack>
										<link>
											<linkclipref>clipitem-832</linkclipref>
											<mediatype>video</mediatype>
											<trackindex>1</trackindex>
											<clipindex>3</clipindex>
										</link>
										<link>
											<linkclipref>clipitem-840</linkclipref>
											<mediatype>audio</mediatype>
											<trackindex>1</trackindex>
											<clipindex>5</clipindex>
											<groupindex>1</groupindex>
										</link>
										<link>
											<linkclipref>clipitem-843</linkclipref>
											<mediatype>audio</mediatype>
											<trackindex>2</trackindex>
											<clipindex>5</clipindex>
											<groupindex>1</groupindex>
										</link>
										<labels>
											<label2>Forest</label2>
										</labels>
									</clipitem>
									<enabled>TRUE</enabled>
									<locked>FALSE</locked>
									<outputchannelindex>2</outputchannelindex>
								</track>
								<track TL.SQTrackAudioKeyframeStyle="0" TL.SQTrackShy="0" TL.SQTrackExpandedHeight="25" TL.SQTrackExpanded="0" MZ.TrackTargeted="1" PannerCurrentValue="0.5" PannerIsInverted="true" PannerStartKeyframe="-91445760000000000,0.5,0,0,0,0,0,0" PannerName="Balance" currentExplodedTrackIndex="0" totalExplodedTrackCount="2" premiereTrackType="Stereo">
									<clipitem id="clipitem-844" premiereChannelType="stereo">
										<masterclipid>masterclip-221</masterclipid>
										<name>Intro</name>
										<enabled>TRUE</enabled>
										<duration>160</duration>
										<rate>
											<timebase>30</timebase>
											<ntsc>TRUE</ntsc>
										</rate>
										<start>0</start>
										<end>115</end>
										<in>0</in>
										<out>115</out>
										<pproTicksIn>0</pproTicksIn>
										<pproTicksOut>974701728000</pproTicksOut>
										<sequence id="sequence-28"/>
										<sourcetrack>
											<mediatype>audio</mediatype>
											<trackindex>0</trackindex>
										</sourcetrack>
											<marker>
												<comment></comment>
												<name></name>
												<in>82</in>
												<out>-1</out>
											</marker>
										<link>
											<linkclipref>clipitem-836</linkclipref>
											<mediatype>video</mediatype>
											<trackindex>4</trackindex>
											<clipindex>1</clipindex>
										</link>
										<link>
											<linkclipref>clipitem-844</linkclipref>
											<mediatype>audio</mediatype>
											<trackindex>3</trackindex>
											<clipindex>1</clipindex>
											<groupindex>1</groupindex>
										</link>
										<link>
											<linkclipref>clipitem-846</linkclipref>
											<mediatype>audio</mediatype>
											<trackindex>4</trackindex>
											<clipindex>1</clipindex>
											<groupindex>1</groupindex>
										</link>
										<labels>
											<label2>Forest</label2>
										</labels>
									</clipitem>
									<clipitem id="clipitem-845" premiereChannelType="stereo">
										<masterclipid>masterclip-227</masterclipid>
										<name>Transition 2</name>
										<enabled>TRUE</enabled>
										<duration>160</duration>
										<rate>
											<timebase>30</timebase>
											<ntsc>TRUE</ntsc>
										</rate>
										<start>2776</start>
										<end>2895</end>
										<in>0</in>
										<out>119</out>
										<pproTicksIn>0</pproTicksIn>
										<pproTicksOut>1008604396800</pproTicksOut>
										<sequence id="sequence-31"/>
										<sourcetrack>
											<mediatype>audio</mediatype>
											<trackindex>0</trackindex>
										</sourcetrack>
											<marker>
												<comment></comment>
												<name></name>
												<in>20</in>
												<out>-1</out>
											</marker>
											<marker>
												<comment></comment>
												<name></name>
												<in>54</in>
												<out>-1</out>
											</marker>
										<link>
											<linkclipref>clipitem-837</linkclipref>
											<mediatype>video</mediatype>
											<trackindex>4</trackindex>
											<clipindex>2</clipindex>
										</link>
										<link>
											<linkclipref>clipitem-845</linkclipref>
											<mediatype>audio</mediatype>
											<trackindex>3</trackindex>
											<clipindex>2</clipindex>
											<groupindex>1</groupindex>
										</link>
										<link>
											<linkclipref>clipitem-847</linkclipref>
											<mediatype>audio</mediatype>
											<trackindex>4</trackindex>
											<clipindex>2</clipindex>
											<groupindex>1</groupindex>
										</link>
										<labels>
											<label2>Forest</label2>
										</labels>
									</clipitem>
									<enabled>TRUE</enabled>
									<locked>FALSE</locked>
									<outputchannelindex>1</outputchannelindex>
								</track>
								<track TL.SQTrackAudioKeyframeStyle="0" TL.SQTrackShy="0" TL.SQTrackExpandedHeight="25" TL.SQTrackExpanded="0" MZ.TrackTargeted="1" PannerCurrentValue="0.5" PannerIsInverted="true" PannerStartKeyframe="-91445760000000000,0.5,0,0,0,0,0,0" PannerName="Balance" currentExplodedTrackIndex="1" totalExplodedTrackCount="2" premiereTrackType="Stereo">
									<clipitem id="clipitem-846" premiereChannelType="stereo">
										<masterclipid>masterclip-221</masterclipid>
										<name>Intro</name>
										<enabled>TRUE</enabled>
										<duration>160</duration>
										<rate>
											<timebase>30</timebase>
											<ntsc>TRUE</ntsc>
										</rate>
										<start>0</start>
										<end>115</end>
										<in>0</in>
										<out>115</out>
										<pproTicksIn>0</pproTicksIn>
										<pproTicksOut>974701728000</pproTicksOut>
										<sequence id="sequence-28"/>
										<sourcetrack>
											<mediatype>audio</mediatype>
											<trackindex>1</trackindex>
										</sourcetrack>
											<marker>
												<comment></comment>
												<name></name>
												<in>82</in>
												<out>-1</out>
											</marker>
										<link>
											<linkclipref>clipitem-836</linkclipref>
											<mediatype>video</mediatype>
											<trackindex>4</trackindex>
											<clipindex>1</clipindex>
										</link>
										<link>
											<linkclipref>clipitem-844</linkclipref>
											<mediatype>audio</mediatype>
											<trackindex>3</trackindex>
											<clipindex>1</clipindex>
											<groupindex>1</groupindex>
										</link>
										<link>
											<linkclipref>clipitem-846</linkclipref>
											<mediatype>audio</mediatype>
											<trackindex>4</trackindex>
											<clipindex>1</clipindex>
											<groupindex>1</groupindex>
										</link>
										<labels>
											<label2>Forest</label2>
										</labels>
									</clipitem>
									<clipitem id="clipitem-847" premiereChannelType="stereo">
										<masterclipid>masterclip-227</masterclipid>
										<name>Transition 2</name>
										<enabled>TRUE</enabled>
										<duration>160</duration>
										<rate>
											<timebase>30</timebase>
											<ntsc>TRUE</ntsc>
										</rate>
										<start>2776</start>
										<end>2895</end>
										<in>0</in>
										<out>119</out>
										<pproTicksIn>0</pproTicksIn>
										<pproTicksOut>1008604396800</pproTicksOut>
										<sequence id="sequence-31"/>
										<sourcetrack>
											<mediatype>audio</mediatype>
											<trackindex>1</trackindex>
										</sourcetrack>
											<marker>
												<comment></comment>
												<name></name>
												<in>20</in>
												<out>-1</out>
											</marker>
											<marker>
												<comment></comment>
												<name></name>
												<in>54</in>
												<out>-1</out>
											</marker>
										<link>
											<linkclipref>clipitem-837</linkclipref>
											<mediatype>video</mediatype>
											<trackindex>4</trackindex>
											<clipindex>2</clipindex>
										</link>
										<link>
											<linkclipref>clipitem-845</linkclipref>
											<mediatype>audio</mediatype>
											<trackindex>3</trackindex>
											<clipindex>2</clipindex>
											<groupindex>1</groupindex>
										</link>
										<link>
											<linkclipref>clipitem-847</linkclipref>
											<mediatype>audio</mediatype>
											<trackindex>4</trackindex>
											<clipindex>2</clipindex>
											<groupindex>1</groupindex>
										</link>
										<labels>
											<label2>Forest</label2>
										</labels>
									</clipitem>
									<enabled>TRUE</enabled>
									<locked>FALSE</locked>
									<outputchannelindex>2</outputchannelindex>
								</track>
								<track TL.SQTrackAudioKeyframeStyle="0" TL.SQTrackShy="0" TL.SQTrackExpandedHeight="25" TL.SQTrackExpanded="0" MZ.TrackTargeted="1" PannerCurrentValue="0.5" PannerIsInverted="true" PannerStartKeyframe="-91445760000000000,0.5,0,0,0,0,0,0" PannerName="Balance" currentExplodedTrackIndex="0" totalExplodedTrackCount="2" premiereTrackType="Stereo">
									<enabled>TRUE</enabled>
									<locked>FALSE</locked>
									<outputchannelindex>1</outputchannelindex>
								</track>
								<track TL.SQTrackAudioKeyframeStyle="0" TL.SQTrackShy="0" TL.SQTrackExpandedHeight="25" TL.SQTrackExpanded="0" MZ.TrackTargeted="1" PannerCurrentValue="0.5" PannerIsInverted="true" PannerStartKeyframe="-91445760000000000,0.5,0,0,0,0,0,0" PannerName="Balance" currentExplodedTrackIndex="1" totalExplodedTrackCount="2" premiereTrackType="Stereo">
									<enabled>TRUE</enabled>
									<locked>FALSE</locked>
									<outputchannelindex>2</outputchannelindex>
								</track>
								<track TL.SQTrackAudioKeyframeStyle="0" TL.SQTrackShy="0" TL.SQTrackExpandedHeight="25" TL.SQTrackExpanded="0" MZ.TrackTargeted="0" PannerCurrentValue="0.5" PannerIsInverted="true" PannerStartKeyframe="-91445760000000000,0.5,0,0,0,0,0,0" PannerName="Balance" currentExplodedTrackIndex="0" totalExplodedTrackCount="2" premiereTrackType="Stereo">
									<enabled>TRUE</enabled>
									<locked>FALSE</locked>
									<outputchannelindex>1</outputchannelindex>
								</track>
								<track TL.SQTrackAudioKeyframeStyle="0" TL.SQTrackShy="0" TL.SQTrackExpandedHeight="25" TL.SQTrackExpanded="0" MZ.TrackTargeted="0" PannerCurrentValue="0.5" PannerIsInverted="true" PannerStartKeyframe="-91445760000000000,0.5,0,0,0,0,0,0" PannerName="Balance" currentExplodedTrackIndex="1" totalExplodedTrackCount="2" premiereTrackType="Stereo">
									<enabled>TRUE</enabled>
									<locked>FALSE</locked>
									<outputchannelindex>2</outputchannelindex>
								</track>
							</audio>
						</media>
						<timecode>
							<rate>
								<timebase>30</timebase>
								<ntsc>TRUE</ntsc>
							</rate>
							<string>00;00;00;00</string>
							<frame>0</frame>
							<displayformat>DF</displayformat>
						</timecode>
						<labels>
							<label2>Forest</label2>
						</labels>
						<logginginfo>
							<description></description>
							<scene></scene>
							<shottake></shottake>
							<lognote></lognote>
							<good></good>
							<originalvideofilename></originalvideofilename>
							<originalaudiofilename></originalaudiofilename>
						</logginginfo>
					</sequence>
					<sequence id="sequence-35" TL.SQAudioVisibleBase="0" TL.SQVideoVisibleBase="0" TL.SQVisibleBaseTime="0" TL.SQAVDividerPosition="0.5" TL.SQHideShyTracks="0" TL.SQHeaderWidth="236" TL.SQDataTrackViewControlState="0" Monitor.ProgramZoomOut="44861706489600" Monitor.ProgramZoomIn="0" TL.SQTimePerPixel="0.17991650512836974" AM.TrackVScrollPosition="0" AM.TrackScrollPosition="0" MZ.EditLine="42302054995200" MZ.Sequence.PreviewFrameSizeHeight="1080" MZ.Sequence.PreviewFrameSizeWidth="1920" MZ.Sequence.AudioTimeDisplayFormat="200" MZ.Sequence.PreviewRenderingClassID="1061109567" MZ.Sequence.PreviewRenderingPresetCodec="1634755443" MZ.Sequence.PreviewRenderingPresetPath="EncoderPresets/SequencePreview/35d109db-457b-43c1-9452-9cb7be9f121c/QuickTime.epr" MZ.Sequence.PreviewUseMaxRenderQuality="false" MZ.Sequence.PreviewUseMaxBitDepth="false" MZ.Sequence.EditingModeGUID="35d109db-457b-43c1-9452-9cb7be9f121c" MZ.Sequence.VideoTimeDisplayFormat="102" MZ.WorkOutPoint="15239249625600" MZ.WorkInPoint="0" explodedTracks="true">
						<uuid>da02b6a4-0274-46a3-bdda-1e971ecf9f16</uuid>
						<duration>5199</duration>
						<rate>
							<timebase>30</timebase>
							<ntsc>TRUE</ntsc>
						</rate>
						<name>ATM_EYECANDY_249</name>
						<media>
							<video>
								<format>
									<samplecharacteristics>
										<rate>
											<timebase>30</timebase>
											<ntsc>TRUE</ntsc>
										</rate>
										<codec>
											<name>Apple ProRes 422</name>
											<appspecificdata>
												<appname>Final Cut Pro</appname>
												<appmanufacturer>Apple Inc.</appmanufacturer>
												<appversion>7.0</appversion>
												<data>
													<qtcodec>
														<codecname>Apple ProRes 422</codecname>
														<codectypename>Apple ProRes 422</codectypename>
														<codectypecode>apcn</codectypecode>
														<codecvendorcode>appl</codecvendorcode>
														<spatialquality>1024</spatialquality>
														<temporalquality>0</temporalquality>
														<keyframerate>0</keyframerate>
														<datarate>0</datarate>
													</qtcodec>
												</data>
											</appspecificdata>
										</codec>
										<width>1920</width>
										<height>1080</height>
										<anamorphic>FALSE</anamorphic>
										<pixelaspectratio>square</pixelaspectratio>
										<fielddominance>none</fielddominance>
										<colordepth>24</colordepth>
									</samplecharacteristics>
								</format>
								<track TL.SQTrackShy="0" TL.SQTrackExpandedHeight="25" TL.SQTrackExpanded="0" MZ.TrackTargeted="1">
									<clipitem id="clipitem-848">
										<masterclipid>masterclip-231</masterclipid>
										<name>Dig In_3</name>
										<enabled>TRUE</enabled>
										<duration>6022</duration>
										<rate>
											<timebase>30</timebase>
											<ntsc>TRUE</ntsc>
										</rate>
										<start>82</start>
										<end>5199</end>
										<in>0</in>
										<out>5117</out>
										<pproTicksIn>0</pproTicksIn>
										<pproTicksOut>43369989062400</pproTicksOut>
										<sequence id="sequence-2"/>
										<link>
											<linkclipref>clipitem-848</linkclipref>
											<mediatype>video</mediatype>
											<trackindex>1</trackindex>
											<clipindex>1</clipindex>
										</link>
										<link>
											<linkclipref>clipitem-853</linkclipref>
											<mediatype>audio</mediatype>
											<trackindex>1</trackindex>
											<clipindex>1</clipindex>
											<groupindex>1</groupindex>
										</link>
										<link>
											<linkclipref>clipitem-854</linkclipref>
											<mediatype>audio</mediatype>
											<trackindex>2</trackindex>
											<clipindex>1</clipindex>
											<groupindex>1</groupindex>
										</link>
										<labels>
											<label2>Forest</label2>
										</labels>
									</clipitem>
									<enabled>TRUE</enabled>
									<locked>FALSE</locked>
								</track>
								<track TL.SQTrackShy="0" TL.SQTrackExpandedHeight="25" TL.SQTrackExpanded="0" MZ.TrackTargeted="0">
									<clipitem id="clipitem-849">
										<masterclipid>masterclip-209</masterclipid>
										<name>ATM BUG_1080_Top Right.png</name>
										<enabled>TRUE</enabled>
										<duration>1294705</duration>
										<rate>
											<timebase>30</timebase>
											<ntsc>TRUE</ntsc>
										</rate>
										<start>82</start>
										<end>5199</end>
										<in>107892</in>
										<out>113009</out>
										<pproTicksIn>914456685542400</pproTicksIn>
										<pproTicksOut>957826674604800</pproTicksOut>
										<alphatype>straight</alphatype>
										<file id="file-206"/>
										<logginginfo>
											<description></description>
											<scene></scene>
											<shottake></shottake>
											<lognote></lognote>
											<good></good>
											<originalvideofilename></originalvideofilename>
											<originalaudiofilename></originalaudiofilename>
										</logginginfo>
										<colorinfo>
											<lut></lut>
											<lut1></lut1>
											<asc_sop></asc_sop>
											<asc_sat></asc_sat>
											<lut2></lut2>
										</colorinfo>
										<labels>
										</labels>
									</clipitem>
									<enabled>TRUE</enabled>
									<locked>FALSE</locked>
								</track>
								<track TL.SQTrackShy="0" TL.SQTrackExpandedHeight="25" TL.SQTrackExpanded="0" MZ.TrackTargeted="0">
									<clipitem id="clipitem-850">
										<masterclipid>masterclip-155</masterclipid>
										<name>Dig In</name>
										<enabled>TRUE</enabled>
										<duration>6293</duration>
										<rate>
											<timebase>30</timebase>
											<ntsc>TRUE</ntsc>
										</rate>
										<start>115</start>
										<end>5199</end>
										<in>0</in>
										<out>5084</out>
										<pproTicksIn>0</pproTicksIn>
										<pproTicksOut>43090292044800</pproTicksOut>
										<alphatype>straight</alphatype>
										<file id="file-155"/>
										<logginginfo>
											<description></description>
											<scene></scene>
											<shottake></shottake>
											<lognote></lognote>
											<good></good>
											<originalvideofilename></originalvideofilename>
											<originalaudiofilename></originalaudiofilename>
										</logginginfo>
										<colorinfo>
											<lut></lut>
											<lut1></lut1>
											<asc_sop></asc_sop>
											<asc_sat></asc_sat>
											<lut2></lut2>
										</colorinfo>
									</clipitem>
									<enabled>TRUE</enabled>
									<locked>FALSE</locked>
								</track>
								<track TL.SQTrackShy="0" TL.SQTrackExpandedHeight="25" TL.SQTrackExpanded="0" MZ.TrackTargeted="0">
									<clipitem id="clipitem-851">
										<masterclipid>masterclip-221</masterclipid>
										<name>Intro</name>
										<enabled>TRUE</enabled>
										<duration>160</duration>
										<rate>
											<timebase>30</timebase>
											<ntsc>TRUE</ntsc>
										</rate>
										<start>0</start>
										<end>115</end>
										<in>0</in>
										<out>115</out>
										<pproTicksIn>0</pproTicksIn>
										<pproTicksOut>974701728000</pproTicksOut>
										<sequence id="sequence-28"/>
											<marker>
												<comment></comment>
												<name></name>
												<in>82</in>
												<out>-1</out>
											</marker>
										<link>
											<linkclipref>clipitem-851</linkclipref>
											<mediatype>video</mediatype>
											<trackindex>4</trackindex>
											<clipindex>1</clipindex>
										</link>
										<link>
											<linkclipref>clipitem-855</linkclipref>
											<mediatype>audio</mediatype>
											<trackindex>3</trackindex>
											<clipindex>1</clipindex>
											<groupindex>1</groupindex>
										</link>
										<link>
											<linkclipref>clipitem-857</linkclipref>
											<mediatype>audio</mediatype>
											<trackindex>4</trackindex>
											<clipindex>1</clipindex>
											<groupindex>1</groupindex>
										</link>
										<labels>
											<label2>Forest</label2>
										</labels>
									</clipitem>
									<clipitem id="clipitem-852">
										<masterclipid>masterclip-223</masterclipid>
										<name>Outro</name>
										<enabled>TRUE</enabled>
										<duration>160</duration>
										<rate>
											<timebase>30</timebase>
											<ntsc>TRUE</ntsc>
										</rate>
										<start>5156</start>
										<end>5293</end>
										<in>0</in>
										<out>137</out>
										<pproTicksIn>0</pproTicksIn>
										<pproTicksOut>1161166406400</pproTicksOut>
										<sequence id="sequence-29"/>
											<marker>
												<comment></comment>
												<name></name>
												<in>43</in>
												<out>-1</out>
											</marker>
										<link>
											<linkclipref>clipitem-852</linkclipref>
											<mediatype>video</mediatype>
											<trackindex>4</trackindex>
											<clipindex>2</clipindex>
										</link>
										<link>
											<linkclipref>clipitem-856</linkclipref>
											<mediatype>audio</mediatype>
											<trackindex>3</trackindex>
											<clipindex>2</clipindex>
											<groupindex>1</groupindex>
										</link>
										<link>
											<linkclipref>clipitem-858</linkclipref>
											<mediatype>audio</mediatype>
											<trackindex>4</trackindex>
											<clipindex>2</clipindex>
											<groupindex>1</groupindex>
										</link>
										<labels>
											<label2>Forest</label2>
										</labels>
									</clipitem>
									<enabled>TRUE</enabled>
									<locked>FALSE</locked>
								</track>
							</video>
							<audio>
								<numOutputChannels>2</numOutputChannels>
								<format>
									<samplecharacteristics>
										<depth>16</depth>
										<samplerate>48000</samplerate>
									</samplecharacteristics>
								</format>
								<outputs>
									<group>
										<index>1</index>
										<numchannels>1</numchannels>
										<downmix>0</downmix>
										<channel>
											<index>1</index>
										</channel>
									</group>
									<group>
										<index>2</index>
										<numchannels>1</numchannels>
										<downmix>0</downmix>
										<channel>
											<index>2</index>
										</channel>
									</group>
								</outputs>
								<track TL.SQTrackAudioKeyframeStyle="0" TL.SQTrackShy="0" TL.SQTrackExpandedHeight="25" TL.SQTrackExpanded="0" MZ.TrackTargeted="1" PannerCurrentValue="0.5" PannerIsInverted="true" PannerStartKeyframe="-91445760000000000,0.5,0,0,0,0,0,0" PannerName="Balance" currentExplodedTrackIndex="0" totalExplodedTrackCount="2" premiereTrackType="Stereo">
									<clipitem id="clipitem-853" premiereChannelType="stereo">
										<masterclipid>masterclip-231</masterclipid>
										<name>Dig In_3</name>
										<enabled>TRUE</enabled>
										<duration>6022</duration>
										<rate>
											<timebase>30</timebase>
											<ntsc>TRUE</ntsc>
										</rate>
										<start>82</start>
										<end>-1</end>
										<in>0</in>
										<out>5117</out>
										<pproTicksIn>0</pproTicksIn>
										<pproTicksOut>43369989062400</pproTicksOut>
										<sequence id="sequence-2"/>
										<sourcetrack>
											<mediatype>audio</mediatype>
											<trackindex>0</trackindex>
										</sourcetrack>
										<link>
											<linkclipref>clipitem-848</linkclipref>
											<mediatype>video</mediatype>
											<trackindex>1</trackindex>
											<clipindex>1</clipindex>
										</link>
										<link>
											<linkclipref>clipitem-853</linkclipref>
											<mediatype>audio</mediatype>
											<trackindex>1</trackindex>
											<clipindex>1</clipindex>
											<groupindex>1</groupindex>
										</link>
										<link>
											<linkclipref>clipitem-854</linkclipref>
											<mediatype>audio</mediatype>
											<trackindex>2</trackindex>
											<clipindex>1</clipindex>
											<groupindex>1</groupindex>
										</link>
										<labels>
											<label2>Forest</label2>
										</labels>
									</clipitem>
									<transitionitem>
										<start>5169</start>
										<end>5199</end>
										<pproTicksIn>43810723756800</pproTicksIn>
										<pproTicksOut>44064993772800</pproTicksOut>
										<alignment>end-black</alignment>
										<cutPointTicks>254270016000</cutPointTicks>
										<rate>
											<timebase>30</timebase>
											<ntsc>TRUE</ntsc>
										</rate>
										<effect>
											<name>Cross Fade (+3dB)</name>
											<effectid>KGAudioTransCrossFade3dB</effectid>
											<effecttype>transition</effecttype>
											<mediatype>audio</mediatype>
											<wipecode>0</wipecode>
											<wipeaccuracy>100</wipeaccuracy>
											<startratio>0</startratio>
											<endratio>1</endratio>
											<reverse>FALSE</reverse>
										</effect>
									</transitionitem>
									<enabled>TRUE</enabled>
									<locked>FALSE</locked>
									<outputchannelindex>1</outputchannelindex>
								</track>
								<track TL.SQTrackAudioKeyframeStyle="0" TL.SQTrackShy="0" TL.SQTrackExpandedHeight="25" TL.SQTrackExpanded="0" MZ.TrackTargeted="1" PannerCurrentValue="0.5" PannerIsInverted="true" PannerStartKeyframe="-91445760000000000,0.5,0,0,0,0,0,0" PannerName="Balance" currentExplodedTrackIndex="1" totalExplodedTrackCount="2" premiereTrackType="Stereo">
									<clipitem id="clipitem-854" premiereChannelType="stereo">
										<masterclipid>masterclip-231</masterclipid>
										<name>Dig In_3</name>
										<enabled>TRUE</enabled>
										<duration>6022</duration>
										<rate>
											<timebase>30</timebase>
											<ntsc>TRUE</ntsc>
										</rate>
										<start>82</start>
										<end>-1</end>
										<in>0</in>
										<out>5117</out>
										<pproTicksIn>0</pproTicksIn>
										<pproTicksOut>43369989062400</pproTicksOut>
										<sequence id="sequence-2"/>
										<sourcetrack>
											<mediatype>audio</mediatype>
											<trackindex>1</trackindex>
										</sourcetrack>
										<link>
											<linkclipref>clipitem-848</linkclipref>
											<mediatype>video</mediatype>
											<trackindex>1</trackindex>
											<clipindex>1</clipindex>
										</link>
										<link>
											<linkclipref>clipitem-853</linkclipref>
											<mediatype>audio</mediatype>
											<trackindex>1</trackindex>
											<clipindex>1</clipindex>
											<groupindex>1</groupindex>
										</link>
										<link>
											<linkclipref>clipitem-854</linkclipref>
											<mediatype>audio</mediatype>
											<trackindex>2</trackindex>
											<clipindex>1</clipindex>
											<groupindex>1</groupindex>
										</link>
										<labels>
											<label2>Forest</label2>
										</labels>
									</clipitem>
									<transitionitem>
										<start>5169</start>
										<end>5199</end>
										<pproTicksIn>43810723756800</pproTicksIn>
										<pproTicksOut>44064993772800</pproTicksOut>
										<alignment>end-black</alignment>
										<cutPointTicks>254270016000</cutPointTicks>
										<rate>
											<timebase>30</timebase>
											<ntsc>TRUE</ntsc>
										</rate>
										<effect>
											<name>Cross Fade (+3dB)</name>
											<effectid>KGAudioTransCrossFade3dB</effectid>
											<effecttype>transition</effecttype>
											<mediatype>audio</mediatype>
											<wipecode>0</wipecode>
											<wipeaccuracy>100</wipeaccuracy>
											<startratio>0</startratio>
											<endratio>1</endratio>
											<reverse>FALSE</reverse>
										</effect>
									</transitionitem>
									<enabled>TRUE</enabled>
									<locked>FALSE</locked>
									<outputchannelindex>2</outputchannelindex>
								</track>
								<track TL.SQTrackAudioKeyframeStyle="0" TL.SQTrackShy="0" TL.SQTrackExpandedHeight="25" TL.SQTrackExpanded="0" MZ.TrackTargeted="1" PannerCurrentValue="0.5" PannerIsInverted="true" PannerStartKeyframe="-91445760000000000,0.5,0,0,0,0,0,0" PannerName="Balance" currentExplodedTrackIndex="0" totalExplodedTrackCount="2" premiereTrackType="Stereo">
									<clipitem id="clipitem-855" premiereChannelType="stereo">
										<masterclipid>masterclip-221</masterclipid>
										<name>Intro</name>
										<enabled>TRUE</enabled>
										<duration>160</duration>
										<rate>
											<timebase>30</timebase>
											<ntsc>TRUE</ntsc>
										</rate>
										<start>0</start>
										<end>115</end>
										<in>0</in>
										<out>115</out>
										<pproTicksIn>0</pproTicksIn>
										<pproTicksOut>974701728000</pproTicksOut>
										<sequence id="sequence-28"/>
										<sourcetrack>
											<mediatype>audio</mediatype>
											<trackindex>0</trackindex>
										</sourcetrack>
											<marker>
												<comment></comment>
												<name></name>
												<in>82</in>
												<out>-1</out>
											</marker>
										<link>
											<linkclipref>clipitem-851</linkclipref>
											<mediatype>video</mediatype>
											<trackindex>4</trackindex>
											<clipindex>1</clipindex>
										</link>
										<link>
											<linkclipref>clipitem-855</linkclipref>
											<mediatype>audio</mediatype>
											<trackindex>3</trackindex>
											<clipindex>1</clipindex>
											<groupindex>1</groupindex>
										</link>
										<link>
											<linkclipref>clipitem-857</linkclipref>
											<mediatype>audio</mediatype>
											<trackindex>4</trackindex>
											<clipindex>1</clipindex>
											<groupindex>1</groupindex>
										</link>
										<labels>
											<label2>Forest</label2>
										</labels>
									</clipitem>
									<clipitem id="clipitem-856" premiereChannelType="stereo">
										<masterclipid>masterclip-223</masterclipid>
										<name>Outro</name>
										<enabled>TRUE</enabled>
										<duration>160</duration>
										<rate>
											<timebase>30</timebase>
											<ntsc>TRUE</ntsc>
										</rate>
										<start>5156</start>
										<end>5293</end>
										<in>0</in>
										<out>137</out>
										<pproTicksIn>0</pproTicksIn>
										<pproTicksOut>1161166406400</pproTicksOut>
										<sequence id="sequence-29"/>
										<sourcetrack>
											<mediatype>audio</mediatype>
											<trackindex>0</trackindex>
										</sourcetrack>
											<marker>
												<comment></comment>
												<name></name>
												<in>43</in>
												<out>-1</out>
											</marker>
										<link>
											<linkclipref>clipitem-852</linkclipref>
											<mediatype>video</mediatype>
											<trackindex>4</trackindex>
											<clipindex>2</clipindex>
										</link>
										<link>
											<linkclipref>clipitem-856</linkclipref>
											<mediatype>audio</mediatype>
											<trackindex>3</trackindex>
											<clipindex>2</clipindex>
											<groupindex>1</groupindex>
										</link>
										<link>
											<linkclipref>clipitem-858</linkclipref>
											<mediatype>audio</mediatype>
											<trackindex>4</trackindex>
											<clipindex>2</clipindex>
											<groupindex>1</groupindex>
										</link>
										<labels>
											<label2>Forest</label2>
										</labels>
									</clipitem>
									<enabled>TRUE</enabled>
									<locked>FALSE</locked>
									<outputchannelindex>1</outputchannelindex>
								</track>
								<track TL.SQTrackAudioKeyframeStyle="0" TL.SQTrackShy="0" TL.SQTrackExpandedHeight="25" TL.SQTrackExpanded="0" MZ.TrackTargeted="1" PannerCurrentValue="0.5" PannerIsInverted="true" PannerStartKeyframe="-91445760000000000,0.5,0,0,0,0,0,0" PannerName="Balance" currentExplodedTrackIndex="1" totalExplodedTrackCount="2" premiereTrackType="Stereo">
									<clipitem id="clipitem-857" premiereChannelType="stereo">
										<masterclipid>masterclip-221</masterclipid>
										<name>Intro</name>
										<enabled>TRUE</enabled>
										<duration>160</duration>
										<rate>
											<timebase>30</timebase>
											<ntsc>TRUE</ntsc>
										</rate>
										<start>0</start>
										<end>115</end>
										<in>0</in>
										<out>115</out>
										<pproTicksIn>0</pproTicksIn>
										<pproTicksOut>974701728000</pproTicksOut>
										<sequence id="sequence-28"/>
										<sourcetrack>
											<mediatype>audio</mediatype>
											<trackindex>1</trackindex>
										</sourcetrack>
											<marker>
												<comment></comment>
												<name></name>
												<in>82</in>
												<out>-1</out>
											</marker>
										<link>
											<linkclipref>clipitem-851</linkclipref>
											<mediatype>video</mediatype>
											<trackindex>4</trackindex>
											<clipindex>1</clipindex>
										</link>
										<link>
											<linkclipref>clipitem-855</linkclipref>
											<mediatype>audio</mediatype>
											<trackindex>3</trackindex>
											<clipindex>1</clipindex>
											<groupindex>1</groupindex>
										</link>
										<link>
											<linkclipref>clipitem-857</linkclipref>
											<mediatype>audio</mediatype>
											<trackindex>4</trackindex>
											<clipindex>1</clipindex>
											<groupindex>1</groupindex>
										</link>
										<labels>
											<label2>Forest</label2>
										</labels>
									</clipitem>
									<clipitem id="clipitem-858" premiereChannelType="stereo">
										<masterclipid>masterclip-223</masterclipid>
										<name>Outro</name>
										<enabled>TRUE</enabled>
										<duration>160</duration>
										<rate>
											<timebase>30</timebase>
											<ntsc>TRUE</ntsc>
										</rate>
										<start>5156</start>
										<end>5293</end>
										<in>0</in>
										<out>137</out>
										<pproTicksIn>0</pproTicksIn>
										<pproTicksOut>1161166406400</pproTicksOut>
										<sequence id="sequence-29"/>
										<sourcetrack>
											<mediatype>audio</mediatype>
											<trackindex>1</trackindex>
										</sourcetrack>
											<marker>
												<comment></comment>
												<name></name>
												<in>43</in>
												<out>-1</out>
											</marker>
										<link>
											<linkclipref>clipitem-852</linkclipref>
											<mediatype>video</mediatype>
											<trackindex>4</trackindex>
											<clipindex>2</clipindex>
										</link>
										<link>
											<linkclipref>clipitem-856</linkclipref>
											<mediatype>audio</mediatype>
											<trackindex>3</trackindex>
											<clipindex>2</clipindex>
											<groupindex>1</groupindex>
										</link>
										<link>
											<linkclipref>clipitem-858</linkclipref>
											<mediatype>audio</mediatype>
											<trackindex>4</trackindex>
											<clipindex>2</clipindex>
											<groupindex>1</groupindex>
										</link>
										<labels>
											<label2>Forest</label2>
										</labels>
									</clipitem>
									<enabled>TRUE</enabled>
									<locked>FALSE</locked>
									<outputchannelindex>2</outputchannelindex>
								</track>
								<track TL.SQTrackAudioKeyframeStyle="0" TL.SQTrackShy="0" TL.SQTrackExpandedHeight="25" TL.SQTrackExpanded="0" MZ.TrackTargeted="1" PannerCurrentValue="0.5" PannerIsInverted="true" PannerStartKeyframe="-91445760000000000,0.5,0,0,0,0,0,0" PannerName="Balance" currentExplodedTrackIndex="0" totalExplodedTrackCount="2" premiereTrackType="Stereo">
									<enabled>TRUE</enabled>
									<locked>FALSE</locked>
									<outputchannelindex>1</outputchannelindex>
								</track>
								<track TL.SQTrackAudioKeyframeStyle="0" TL.SQTrackShy="0" TL.SQTrackExpandedHeight="25" TL.SQTrackExpanded="0" MZ.TrackTargeted="1" PannerCurrentValue="0.5" PannerIsInverted="true" PannerStartKeyframe="-91445760000000000,0.5,0,0,0,0,0,0" PannerName="Balance" currentExplodedTrackIndex="1" totalExplodedTrackCount="2" premiereTrackType="Stereo">
									<enabled>TRUE</enabled>
									<locked>FALSE</locked>
									<outputchannelindex>2</outputchannelindex>
								</track>
							</audio>
						</media>
						<timecode>
							<rate>
								<timebase>30</timebase>
								<ntsc>TRUE</ntsc>
							</rate>
							<string>00;00;00;00</string>
							<frame>0</frame>
							<displayformat>DF</displayformat>
						</timecode>
						<labels>
							<label2>Forest</label2>
						</labels>
						<logginginfo>
							<description></description>
							<scene></scene>
							<shottake></shottake>
							<lognote></lognote>
							<good></good>
							<originalvideofilename></originalvideofilename>
							<originalaudiofilename></originalaudiofilename>
						</logginginfo>
					</sequence>
					<sequence id="sequence-36" TL.SQAudioVisibleBase="0" TL.SQVideoVisibleBase="0" TL.SQVisibleBaseTime="0" TL.SQAVDividerPosition="0.5" TL.SQHideShyTracks="0" TL.SQHeaderWidth="236" TL.SQDataTrackViewControlState="0" Monitor.ProgramZoomOut="44039566771200" Monitor.ProgramZoomIn="0" TL.SQTimePerPixel="0.16997962802767091" AM.TrackVScrollPosition="0" AM.TrackScrollPosition="0" MZ.EditLine="19044824198400" MZ.Sequence.PreviewFrameSizeHeight="1080" MZ.Sequence.PreviewFrameSizeWidth="1920" MZ.Sequence.AudioTimeDisplayFormat="200" MZ.Sequence.PreviewRenderingClassID="1061109567" MZ.Sequence.PreviewRenderingPresetCodec="1634755443" MZ.Sequence.PreviewRenderingPresetPath="EncoderPresets/SequencePreview/35d109db-457b-43c1-9452-9cb7be9f121c/QuickTime.epr" MZ.Sequence.PreviewUseMaxRenderQuality="false" MZ.Sequence.PreviewUseMaxBitDepth="false" MZ.Sequence.EditingModeGUID="35d109db-457b-43c1-9452-9cb7be9f121c" MZ.Sequence.VideoTimeDisplayFormat="102" MZ.WorkOutPoint="47243368972800" MZ.WorkInPoint="0" explodedTracks="true">
						<uuid>01d01465-49fc-4b01-91cd-873885383213</uuid>
						<duration>5102</duration>
						<rate>
							<timebase>30</timebase>
							<ntsc>TRUE</ntsc>
						</rate>
						<name>ATM_EYECANDY_250</name>
						<media>
							<video>
								<format>
									<samplecharacteristics>
										<rate>
											<timebase>30</timebase>
											<ntsc>TRUE</ntsc>
										</rate>
										<codec>
											<name>Apple ProRes 422</name>
											<appspecificdata>
												<appname>Final Cut Pro</appname>
												<appmanufacturer>Apple Inc.</appmanufacturer>
												<appversion>7.0</appversion>
												<data>
													<qtcodec>
														<codecname>Apple ProRes 422</codecname>
														<codectypename>Apple ProRes 422</codectypename>
														<codectypecode>apcn</codectypecode>
														<codecvendorcode>appl</codecvendorcode>
														<spatialquality>1024</spatialquality>
														<temporalquality>0</temporalquality>
														<keyframerate>0</keyframerate>
														<datarate>0</datarate>
													</qtcodec>
												</data>
											</appspecificdata>
										</codec>
										<width>1920</width>
										<height>1080</height>
										<anamorphic>FALSE</anamorphic>
										<pixelaspectratio>square</pixelaspectratio>
										<fielddominance>none</fielddominance>
										<colordepth>24</colordepth>
									</samplecharacteristics>
								</format>
								<track TL.SQTrackShy="0" TL.SQTrackExpandedHeight="25" TL.SQTrackExpanded="0" MZ.TrackTargeted="1">
									<clipitem id="clipitem-859">
										<masterclipid>masterclip-232</masterclipid>
										<name>Cake A Scene_1</name>
										<enabled>TRUE</enabled>
										<duration>2033</duration>
										<rate>
											<timebase>30</timebase>
											<ntsc>TRUE</ntsc>
										</rate>
										<start>82</start>
										<end>1500</end>
										<in>0</in>
										<out>1418</out>
										<pproTicksIn>0</pproTicksIn>
										<pproTicksOut>12018496089600</pproTicksOut>
										<sequence id="sequence-14"/>
										<link>
											<linkclipref>clipitem-859</linkclipref>
											<mediatype>video</mediatype>
											<trackindex>1</trackindex>
											<clipindex>1</clipindex>
										</link>
										<link>
											<linkclipref>clipitem-867</linkclipref>
											<mediatype>audio</mediatype>
											<trackindex>1</trackindex>
											<clipindex>1</clipindex>
											<groupindex>1</groupindex>
										</link>
										<link>
											<linkclipref>clipitem-869</linkclipref>
											<mediatype>audio</mediatype>
											<trackindex>2</trackindex>
											<clipindex>1</clipindex>
											<groupindex>1</groupindex>
										</link>
										<labels>
											<label2>Forest</label2>
										</labels>
									</clipitem>
									<clipitem id="clipitem-860">
										<masterclipid>masterclip-233</masterclipid>
										<name>Spider-Man: Treats From Home_</name>
										<enabled>TRUE</enabled>
										<duration>6086</duration>
										<rate>
											<timebase>30</timebase>
											<ntsc>TRUE</ntsc>
										</rate>
										<start>1500</start>
										<end>5102</end>
										<in>0</in>
										<out>3602</out>
										<pproTicksIn>0</pproTicksIn>
										<pproTicksOut>30529353254400</pproTicksOut>
										<sequence id="sequence-18"/>
										<link>
											<linkclipref>clipitem-860</linkclipref>
											<mediatype>video</mediatype>
											<trackindex>1</trackindex>
											<clipindex>2</clipindex>
										</link>
										<link>
											<linkclipref>clipitem-868</linkclipref>
											<mediatype>audio</mediatype>
											<trackindex>1</trackindex>
											<clipindex>2</clipindex>
											<groupindex>1</groupindex>
										</link>
										<link>
											<linkclipref>clipitem-870</linkclipref>
											<mediatype>audio</mediatype>
											<trackindex>2</trackindex>
											<clipindex>2</clipindex>
											<groupindex>1</groupindex>
										</link>
										<labels>
											<label2>Forest</label2>
										</labels>
									</clipitem>
									<enabled>TRUE</enabled>
									<locked>FALSE</locked>
								</track>
								<track TL.SQTrackShy="0" TL.SQTrackExpandedHeight="25" TL.SQTrackExpanded="0" MZ.TrackTargeted="0">
									<clipitem id="clipitem-861">
										<masterclipid>masterclip-209</masterclipid>
										<name>ATM BUG_1080_Top Right.png</name>
										<enabled>TRUE</enabled>
										<duration>1294705</duration>
										<rate>
											<timebase>30</timebase>
											<ntsc>TRUE</ntsc>
										</rate>
										<start>82</start>
										<end>5102</end>
										<in>107892</in>
										<out>112912</out>
										<pproTicksIn>914456685542400</pproTicksIn>
										<pproTicksOut>957004534886400</pproTicksOut>
										<alphatype>straight</alphatype>
										<file id="file-206"/>
										<logginginfo>
											<description></description>
											<scene></scene>
											<shottake></shottake>
											<lognote></lognote>
											<good></good>
											<originalvideofilename></originalvideofilename>
											<originalaudiofilename></originalaudiofilename>
										</logginginfo>
										<colorinfo>
											<lut></lut>
											<lut1></lut1>
											<asc_sop></asc_sop>
											<asc_sat></asc_sat>
											<lut2></lut2>
										</colorinfo>
										<labels>
										</labels>
									</clipitem>
									<enabled>TRUE</enabled>
									<locked>FALSE</locked>
								</track>
								<track TL.SQTrackShy="0" TL.SQTrackExpandedHeight="25" TL.SQTrackExpanded="0" MZ.TrackTargeted="0">
									<clipitem id="clipitem-862">
										<masterclipid>masterclip-156</masterclipid>
										<name>Cake A Scene</name>
										<enabled>TRUE</enabled>
										<duration>6293</duration>
										<rate>
											<timebase>30</timebase>
											<ntsc>TRUE</ntsc>
										</rate>
										<start>115</start>
										<end>1500</end>
										<in>0</in>
										<out>1385</out>
										<pproTicksIn>0</pproTicksIn>
										<pproTicksOut>11738799072000</pproTicksOut>
										<alphatype>straight</alphatype>
										<file id="file-156"/>
										<logginginfo>
											<description></description>
											<scene></scene>
											<shottake></shottake>
											<lognote></lognote>
											<good></good>
											<originalvideofilename></originalvideofilename>
											<originalaudiofilename></originalaudiofilename>
										</logginginfo>
										<colorinfo>
											<lut></lut>
											<lut1></lut1>
											<asc_sop></asc_sop>
											<asc_sat></asc_sat>
											<lut2></lut2>
										</colorinfo>
									</clipitem>
									<clipitem id="clipitem-863">
										<masterclipid>masterclip-157</masterclipid>
										<name>Spider-Man: Treats From Home</name>
										<enabled>TRUE</enabled>
										<duration>6293</duration>
										<rate>
											<timebase>30</timebase>
											<ntsc>TRUE</ntsc>
										</rate>
										<start>1561</start>
										<end>5102</end>
										<in>0</in>
										<out>3541</out>
										<pproTicksIn>0</pproTicksIn>
										<pproTicksOut>30012337555200</pproTicksOut>
										<alphatype>straight</alphatype>
										<file id="file-157"/>
										<logginginfo>
											<description></description>
											<scene></scene>
											<shottake></shottake>
											<lognote></lognote>
											<good></good>
											<originalvideofilename></originalvideofilename>
											<originalaudiofilename></originalaudiofilename>
										</logginginfo>
										<colorinfo>
											<lut></lut>
											<lut1></lut1>
											<asc_sop></asc_sop>
											<asc_sat></asc_sat>
											<lut2></lut2>
										</colorinfo>
									</clipitem>
									<enabled>TRUE</enabled>
									<locked>FALSE</locked>
								</track>
								<track TL.SQTrackShy="0" TL.SQTrackExpandedHeight="25" TL.SQTrackExpanded="0" MZ.TrackTargeted="0">
									<clipitem id="clipitem-864">
										<masterclipid>masterclip-221</masterclipid>
										<name>Intro</name>
										<enabled>TRUE</enabled>
										<duration>160</duration>
										<rate>
											<timebase>30</timebase>
											<ntsc>TRUE</ntsc>
										</rate>
										<start>0</start>
										<end>115</end>
										<in>0</in>
										<out>115</out>
										<pproTicksIn>0</pproTicksIn>
										<pproTicksOut>974701728000</pproTicksOut>
										<sequence id="sequence-28"/>
											<marker>
												<comment></comment>
												<name></name>
												<in>82</in>
												<out>-1</out>
											</marker>
										<link>
											<linkclipref>clipitem-864</linkclipref>
											<mediatype>video</mediatype>
											<trackindex>4</trackindex>
											<clipindex>1</clipindex>
										</link>
										<link>
											<linkclipref>clipitem-871</linkclipref>
											<mediatype>audio</mediatype>
											<trackindex>3</trackindex>
											<clipindex>1</clipindex>
											<groupindex>1</groupindex>
										</link>
										<link>
											<linkclipref>clipitem-874</linkclipref>
											<mediatype>audio</mediatype>
											<trackindex>4</trackindex>
											<clipindex>1</clipindex>
											<groupindex>1</groupindex>
										</link>
										<labels>
											<label2>Forest</label2>
										</labels>
									</clipitem>
									<clipitem id="clipitem-865">
										<masterclipid>masterclip-222</masterclipid>
										<name>Transition 1</name>
										<enabled>TRUE</enabled>
										<duration>160</duration>
										<rate>
											<timebase>30</timebase>
											<ntsc>TRUE</ntsc>
										</rate>
										<start>1443</start>
										<end>1561</end>
										<in>0</in>
										<out>118</out>
										<pproTicksIn>0</pproTicksIn>
										<pproTicksOut>1000128729600</pproTicksOut>
										<sequence id="sequence-30"/>
											<marker>
												<comment></comment>
												<name></name>
												<in>57</in>
												<out>-1</out>
											</marker>
										<link>
											<linkclipref>clipitem-865</linkclipref>
											<mediatype>video</mediatype>
											<trackindex>4</trackindex>
											<clipindex>2</clipindex>
										</link>
										<link>
											<linkclipref>clipitem-872</linkclipref>
											<mediatype>audio</mediatype>
											<trackindex>3</trackindex>
											<clipindex>2</clipindex>
											<groupindex>1</groupindex>
										</link>
										<link>
											<linkclipref>clipitem-875</linkclipref>
											<mediatype>audio</mediatype>
											<trackindex>4</trackindex>
											<clipindex>2</clipindex>
											<groupindex>1</groupindex>
										</link>
										<labels>
											<label2>Forest</label2>
										</labels>
									</clipitem>
									<clipitem id="clipitem-866">
										<masterclipid>masterclip-223</masterclipid>
										<name>Outro</name>
										<enabled>TRUE</enabled>
										<duration>160</duration>
										<rate>
											<timebase>30</timebase>
											<ntsc>TRUE</ntsc>
										</rate>
										<start>5059</start>
										<end>5196</end>
										<in>0</in>
										<out>137</out>
										<pproTicksIn>0</pproTicksIn>
										<pproTicksOut>1161166406400</pproTicksOut>
										<sequence id="sequence-29"/>
											<marker>
												<comment></comment>
												<name></name>
												<in>43</in>
												<out>-1</out>
											</marker>
										<link>
											<linkclipref>clipitem-866</linkclipref>
											<mediatype>video</mediatype>
											<trackindex>4</trackindex>
											<clipindex>3</clipindex>
										</link>
										<link>
											<linkclipref>clipitem-873</linkclipref>
											<mediatype>audio</mediatype>
											<trackindex>3</trackindex>
											<clipindex>3</clipindex>
											<groupindex>1</groupindex>
										</link>
										<link>
											<linkclipref>clipitem-876</linkclipref>
											<mediatype>audio</mediatype>
											<trackindex>4</trackindex>
											<clipindex>3</clipindex>
											<groupindex>1</groupindex>
										</link>
										<labels>
											<label2>Forest</label2>
										</labels>
									</clipitem>
									<enabled>TRUE</enabled>
									<locked>FALSE</locked>
								</track>
							</video>
							<audio>
								<numOutputChannels>2</numOutputChannels>
								<format>
									<samplecharacteristics>
										<depth>16</depth>
										<samplerate>48000</samplerate>
									</samplecharacteristics>
								</format>
								<outputs>
									<group>
										<index>1</index>
										<numchannels>1</numchannels>
										<downmix>0</downmix>
										<channel>
											<index>1</index>
										</channel>
									</group>
									<group>
										<index>2</index>
										<numchannels>1</numchannels>
										<downmix>0</downmix>
										<channel>
											<index>2</index>
										</channel>
									</group>
								</outputs>
								<track TL.SQTrackAudioKeyframeStyle="0" TL.SQTrackShy="0" TL.SQTrackExpandedHeight="25" TL.SQTrackExpanded="0" MZ.TrackTargeted="1" PannerCurrentValue="0.5" PannerIsInverted="true" PannerStartKeyframe="-91445760000000000,0.5,0,0,0,0,0,0" PannerName="Balance" currentExplodedTrackIndex="0" totalExplodedTrackCount="2" premiereTrackType="Stereo">
									<clipitem id="clipitem-867" premiereChannelType="stereo">
										<masterclipid>masterclip-232</masterclipid>
										<name>Cake A Scene_1</name>
										<enabled>TRUE</enabled>
										<duration>2033</duration>
										<rate>
											<timebase>30</timebase>
											<ntsc>TRUE</ntsc>
										</rate>
										<start>82</start>
										<end>1500</end>
										<in>0</in>
										<out>1418</out>
										<pproTicksIn>0</pproTicksIn>
										<pproTicksOut>12018496089600</pproTicksOut>
										<sequence id="sequence-14"/>
										<sourcetrack>
											<mediatype>audio</mediatype>
											<trackindex>0</trackindex>
										</sourcetrack>
										<link>
											<linkclipref>clipitem-859</linkclipref>
											<mediatype>video</mediatype>
											<trackindex>1</trackindex>
											<clipindex>1</clipindex>
										</link>
										<link>
											<linkclipref>clipitem-867</linkclipref>
											<mediatype>audio</mediatype>
											<trackindex>1</trackindex>
											<clipindex>1</clipindex>
											<groupindex>1</groupindex>
										</link>
										<link>
											<linkclipref>clipitem-869</linkclipref>
											<mediatype>audio</mediatype>
											<trackindex>2</trackindex>
											<clipindex>1</clipindex>
											<groupindex>1</groupindex>
										</link>
										<labels>
											<label2>Forest</label2>
										</labels>
									</clipitem>
									<clipitem id="clipitem-868" premiereChannelType="stereo">
										<masterclipid>masterclip-233</masterclipid>
										<name>Spider-Man: Treats From Home_</name>
										<enabled>TRUE</enabled>
										<duration>6086</duration>
										<rate>
											<timebase>30</timebase>
											<ntsc>TRUE</ntsc>
										</rate>
										<start>1500</start>
										<end>-1</end>
										<in>0</in>
										<out>3602</out>
										<pproTicksIn>0</pproTicksIn>
										<pproTicksOut>30529353254400</pproTicksOut>
										<sequence id="sequence-18"/>
										<sourcetrack>
											<mediatype>audio</mediatype>
											<trackindex>0</trackindex>
										</sourcetrack>
										<link>
											<linkclipref>clipitem-860</linkclipref>
											<mediatype>video</mediatype>
											<trackindex>1</trackindex>
											<clipindex>2</clipindex>
										</link>
										<link>
											<linkclipref>clipitem-868</linkclipref>
											<mediatype>audio</mediatype>
											<trackindex>1</trackindex>
											<clipindex>2</clipindex>
											<groupindex>1</groupindex>
										</link>
										<link>
											<linkclipref>clipitem-870</linkclipref>
											<mediatype>audio</mediatype>
											<trackindex>2</trackindex>
											<clipindex>2</clipindex>
											<groupindex>1</groupindex>
										</link>
										<labels>
											<label2>Forest</label2>
										</labels>
									</clipitem>
									<transitionitem>
										<start>5072</start>
										<end>5102</end>
										<pproTicksIn>42988584038400</pproTicksIn>
										<pproTicksOut>43242854054400</pproTicksOut>
										<alignment>end-black</alignment>
										<cutPointTicks>254270016000</cutPointTicks>
										<rate>
											<timebase>30</timebase>
											<ntsc>TRUE</ntsc>
										</rate>
										<effect>
											<name>Cross Fade (+3dB)</name>
											<effectid>KGAudioTransCrossFade3dB</effectid>
											<effecttype>transition</effecttype>
											<mediatype>audio</mediatype>
											<wipecode>0</wipecode>
											<wipeaccuracy>100</wipeaccuracy>
											<startratio>0</startratio>
											<endratio>1</endratio>
											<reverse>FALSE</reverse>
										</effect>
									</transitionitem>
									<enabled>TRUE</enabled>
									<locked>FALSE</locked>
									<outputchannelindex>1</outputchannelindex>
								</track>
								<track TL.SQTrackAudioKeyframeStyle="0" TL.SQTrackShy="0" TL.SQTrackExpandedHeight="25" TL.SQTrackExpanded="0" MZ.TrackTargeted="1" PannerCurrentValue="0.5" PannerIsInverted="true" PannerStartKeyframe="-91445760000000000,0.5,0,0,0,0,0,0" PannerName="Balance" currentExplodedTrackIndex="1" totalExplodedTrackCount="2" premiereTrackType="Stereo">
									<clipitem id="clipitem-869" premiereChannelType="stereo">
										<masterclipid>masterclip-232</masterclipid>
										<name>Cake A Scene_1</name>
										<enabled>TRUE</enabled>
										<duration>2033</duration>
										<rate>
											<timebase>30</timebase>
											<ntsc>TRUE</ntsc>
										</rate>
										<start>82</start>
										<end>1500</end>
										<in>0</in>
										<out>1418</out>
										<pproTicksIn>0</pproTicksIn>
										<pproTicksOut>12018496089600</pproTicksOut>
										<sequence id="sequence-14"/>
										<sourcetrack>
											<mediatype>audio</mediatype>
											<trackindex>1</trackindex>
										</sourcetrack>
										<link>
											<linkclipref>clipitem-859</linkclipref>
											<mediatype>video</mediatype>
											<trackindex>1</trackindex>
											<clipindex>1</clipindex>
										</link>
										<link>
											<linkclipref>clipitem-867</linkclipref>
											<mediatype>audio</mediatype>
											<trackindex>1</trackindex>
											<clipindex>1</clipindex>
											<groupindex>1</groupindex>
										</link>
										<link>
											<linkclipref>clipitem-869</linkclipref>
											<mediatype>audio</mediatype>
											<trackindex>2</trackindex>
											<clipindex>1</clipindex>
											<groupindex>1</groupindex>
										</link>
										<labels>
											<label2>Forest</label2>
										</labels>
									</clipitem>
									<clipitem id="clipitem-870" premiereChannelType="stereo">
										<masterclipid>masterclip-233</masterclipid>
										<name>Spider-Man: Treats From Home_</name>
										<enabled>TRUE</enabled>
										<duration>6086</duration>
										<rate>
											<timebase>30</timebase>
											<ntsc>TRUE</ntsc>
										</rate>
										<start>1500</start>
										<end>-1</end>
										<in>0</in>
										<out>3602</out>
										<pproTicksIn>0</pproTicksIn>
										<pproTicksOut>30529353254400</pproTicksOut>
										<sequence id="sequence-18"/>
										<sourcetrack>
											<mediatype>audio</mediatype>
											<trackindex>1</trackindex>
										</sourcetrack>
										<link>
											<linkclipref>clipitem-860</linkclipref>
											<mediatype>video</mediatype>
											<trackindex>1</trackindex>
											<clipindex>2</clipindex>
										</link>
										<link>
											<linkclipref>clipitem-868</linkclipref>
											<mediatype>audio</mediatype>
											<trackindex>1</trackindex>
											<clipindex>2</clipindex>
											<groupindex>1</groupindex>
										</link>
										<link>
											<linkclipref>clipitem-870</linkclipref>
											<mediatype>audio</mediatype>
											<trackindex>2</trackindex>
											<clipindex>2</clipindex>
											<groupindex>1</groupindex>
										</link>
										<labels>
											<label2>Forest</label2>
										</labels>
									</clipitem>
									<transitionitem>
										<start>5072</start>
										<end>5102</end>
										<pproTicksIn>42988584038400</pproTicksIn>
										<pproTicksOut>43242854054400</pproTicksOut>
										<alignment>end-black</alignment>
										<cutPointTicks>254270016000</cutPointTicks>
										<rate>
											<timebase>30</timebase>
											<ntsc>TRUE</ntsc>
										</rate>
										<effect>
											<name>Cross Fade (+3dB)</name>
											<effectid>KGAudioTransCrossFade3dB</effectid>
											<effecttype>transition</effecttype>
											<mediatype>audio</mediatype>
											<wipecode>0</wipecode>
											<wipeaccuracy>100</wipeaccuracy>
											<startratio>0</startratio>
											<endratio>1</endratio>
											<reverse>FALSE</reverse>
										</effect>
									</transitionitem>
									<enabled>TRUE</enabled>
									<locked>FALSE</locked>
									<outputchannelindex>2</outputchannelindex>
								</track>
								<track TL.SQTrackAudioKeyframeStyle="0" TL.SQTrackShy="0" TL.SQTrackExpandedHeight="25" TL.SQTrackExpanded="0" MZ.TrackTargeted="1" PannerCurrentValue="0.5" PannerIsInverted="true" PannerStartKeyframe="-91445760000000000,0.5,0,0,0,0,0,0" PannerName="Balance" currentExplodedTrackIndex="0" totalExplodedTrackCount="2" premiereTrackType="Stereo">
									<clipitem id="clipitem-871" premiereChannelType="stereo">
										<masterclipid>masterclip-221</masterclipid>
										<name>Intro</name>
										<enabled>TRUE</enabled>
										<duration>160</duration>
										<rate>
											<timebase>30</timebase>
											<ntsc>TRUE</ntsc>
										</rate>
										<start>0</start>
										<end>115</end>
										<in>0</in>
										<out>115</out>
										<pproTicksIn>0</pproTicksIn>
										<pproTicksOut>974701728000</pproTicksOut>
										<sequence id="sequence-28"/>
										<sourcetrack>
											<mediatype>audio</mediatype>
											<trackindex>0</trackindex>
										</sourcetrack>
											<marker>
												<comment></comment>
												<name></name>
												<in>82</in>
												<out>-1</out>
											</marker>
										<link>
											<linkclipref>clipitem-864</linkclipref>
											<mediatype>video</mediatype>
											<trackindex>4</trackindex>
											<clipindex>1</clipindex>
										</link>
										<link>
											<linkclipref>clipitem-871</linkclipref>
											<mediatype>audio</mediatype>
											<trackindex>3</trackindex>
											<clipindex>1</clipindex>
											<groupindex>1</groupindex>
										</link>
										<link>
											<linkclipref>clipitem-874</linkclipref>
											<mediatype>audio</mediatype>
											<trackindex>4</trackindex>
											<clipindex>1</clipindex>
											<groupindex>1</groupindex>
										</link>
										<labels>
											<label2>Forest</label2>
										</labels>
									</clipitem>
									<clipitem id="clipitem-872" premiereChannelType="stereo">
										<masterclipid>masterclip-222</masterclipid>
										<name>Transition 1</name>
										<enabled>TRUE</enabled>
										<duration>160</duration>
										<rate>
											<timebase>30</timebase>
											<ntsc>TRUE</ntsc>
										</rate>
										<start>1443</start>
										<end>1561</end>
										<in>0</in>
										<out>118</out>
										<pproTicksIn>0</pproTicksIn>
										<pproTicksOut>1000128729600</pproTicksOut>
										<sequence id="sequence-30"/>
										<sourcetrack>
											<mediatype>audio</mediatype>
											<trackindex>0</trackindex>
										</sourcetrack>
											<marker>
												<comment></comment>
												<name></name>
												<in>57</in>
												<out>-1</out>
											</marker>
										<link>
											<linkclipref>clipitem-865</linkclipref>
											<mediatype>video</mediatype>
											<trackindex>4</trackindex>
											<clipindex>2</clipindex>
										</link>
										<link>
											<linkclipref>clipitem-872</linkclipref>
											<mediatype>audio</mediatype>
											<trackindex>3</trackindex>
											<clipindex>2</clipindex>
											<groupindex>1</groupindex>
										</link>
										<link>
											<linkclipref>clipitem-875</linkclipref>
											<mediatype>audio</mediatype>
											<trackindex>4</trackindex>
											<clipindex>2</clipindex>
											<groupindex>1</groupindex>
										</link>
										<labels>
											<label2>Forest</label2>
										</labels>
									</clipitem>
									<clipitem id="clipitem-873" premiereChannelType="stereo">
										<masterclipid>masterclip-223</masterclipid>
										<name>Outro</name>
										<enabled>TRUE</enabled>
										<duration>160</duration>
										<rate>
											<timebase>30</timebase>
											<ntsc>TRUE</ntsc>
										</rate>
										<start>5059</start>
										<end>5196</end>
										<in>0</in>
										<out>137</out>
										<pproTicksIn>0</pproTicksIn>
										<pproTicksOut>1161166406400</pproTicksOut>
										<sequence id="sequence-29"/>
										<sourcetrack>
											<mediatype>audio</mediatype>
											<trackindex>0</trackindex>
										</sourcetrack>
											<marker>
												<comment></comment>
												<name></name>
												<in>43</in>
												<out>-1</out>
											</marker>
										<link>
											<linkclipref>clipitem-866</linkclipref>
											<mediatype>video</mediatype>
											<trackindex>4</trackindex>
											<clipindex>3</clipindex>
										</link>
										<link>
											<linkclipref>clipitem-873</linkclipref>
											<mediatype>audio</mediatype>
											<trackindex>3</trackindex>
											<clipindex>3</clipindex>
											<groupindex>1</groupindex>
										</link>
										<link>
											<linkclipref>clipitem-876</linkclipref>
											<mediatype>audio</mediatype>
											<trackindex>4</trackindex>
											<clipindex>3</clipindex>
											<groupindex>1</groupindex>
										</link>
										<labels>
											<label2>Forest</label2>
										</labels>
									</clipitem>
									<enabled>TRUE</enabled>
									<locked>FALSE</locked>
									<outputchannelindex>1</outputchannelindex>
								</track>
								<track TL.SQTrackAudioKeyframeStyle="0" TL.SQTrackShy="0" TL.SQTrackExpandedHeight="25" TL.SQTrackExpanded="0" MZ.TrackTargeted="1" PannerCurrentValue="0.5" PannerIsInverted="true" PannerStartKeyframe="-91445760000000000,0.5,0,0,0,0,0,0" PannerName="Balance" currentExplodedTrackIndex="1" totalExplodedTrackCount="2" premiereTrackType="Stereo">
									<clipitem id="clipitem-874" premiereChannelType="stereo">
										<masterclipid>masterclip-221</masterclipid>
										<name>Intro</name>
										<enabled>TRUE</enabled>
										<duration>160</duration>
										<rate>
											<timebase>30</timebase>
											<ntsc>TRUE</ntsc>
										</rate>
										<start>0</start>
										<end>115</end>
										<in>0</in>
										<out>115</out>
										<pproTicksIn>0</pproTicksIn>
										<pproTicksOut>974701728000</pproTicksOut>
										<sequence id="sequence-28"/>
										<sourcetrack>
											<mediatype>audio</mediatype>
											<trackindex>1</trackindex>
										</sourcetrack>
											<marker>
												<comment></comment>
												<name></name>
												<in>82</in>
												<out>-1</out>
											</marker>
										<link>
											<linkclipref>clipitem-864</linkclipref>
											<mediatype>video</mediatype>
											<trackindex>4</trackindex>
											<clipindex>1</clipindex>
										</link>
										<link>
											<linkclipref>clipitem-871</linkclipref>
											<mediatype>audio</mediatype>
											<trackindex>3</trackindex>
											<clipindex>1</clipindex>
											<groupindex>1</groupindex>
										</link>
										<link>
											<linkclipref>clipitem-874</linkclipref>
											<mediatype>audio</mediatype>
											<trackindex>4</trackindex>
											<clipindex>1</clipindex>
											<groupindex>1</groupindex>
										</link>
										<labels>
											<label2>Forest</label2>
										</labels>
									</clipitem>
									<clipitem id="clipitem-875" premiereChannelType="stereo">
										<masterclipid>masterclip-222</masterclipid>
										<name>Transition 1</name>
										<enabled>TRUE</enabled>
										<duration>160</duration>
										<rate>
											<timebase>30</timebase>
											<ntsc>TRUE</ntsc>
										</rate>
										<start>1443</start>
										<end>1561</end>
										<in>0</in>
										<out>118</out>
										<pproTicksIn>0</pproTicksIn>
										<pproTicksOut>1000128729600</pproTicksOut>
										<sequence id="sequence-30"/>
										<sourcetrack>
											<mediatype>audio</mediatype>
											<trackindex>1</trackindex>
										</sourcetrack>
											<marker>
												<comment></comment>
												<name></name>
												<in>57</in>
												<out>-1</out>
											</marker>
										<link>
											<linkclipref>clipitem-865</linkclipref>
											<mediatype>video</mediatype>
											<trackindex>4</trackindex>
											<clipindex>2</clipindex>
										</link>
										<link>
											<linkclipref>clipitem-872</linkclipref>
											<mediatype>audio</mediatype>
											<trackindex>3</trackindex>
											<clipindex>2</clipindex>
											<groupindex>1</groupindex>
										</link>
										<link>
											<linkclipref>clipitem-875</linkclipref>
											<mediatype>audio</mediatype>
											<trackindex>4</trackindex>
											<clipindex>2</clipindex>
											<groupindex>1</groupindex>
										</link>
										<labels>
											<label2>Forest</label2>
										</labels>
									</clipitem>
									<clipitem id="clipitem-876" premiereChannelType="stereo">
										<masterclipid>masterclip-223</masterclipid>
										<name>Outro</name>
										<enabled>TRUE</enabled>
										<duration>160</duration>
										<rate>
											<timebase>30</timebase>
											<ntsc>TRUE</ntsc>
										</rate>
										<start>5059</start>
										<end>5196</end>
										<in>0</in>
										<out>137</out>
										<pproTicksIn>0</pproTicksIn>
										<pproTicksOut>1161166406400</pproTicksOut>
										<sequence id="sequence-29"/>
										<sourcetrack>
											<mediatype>audio</mediatype>
											<trackindex>1</trackindex>
										</sourcetrack>
											<marker>
												<comment></comment>
												<name></name>
												<in>43</in>
												<out>-1</out>
											</marker>
										<link>
											<linkclipref>clipitem-866</linkclipref>
											<mediatype>video</mediatype>
											<trackindex>4</trackindex>
											<clipindex>3</clipindex>
										</link>
										<link>
											<linkclipref>clipitem-873</linkclipref>
											<mediatype>audio</mediatype>
											<trackindex>3</trackindex>
											<clipindex>3</clipindex>
											<groupindex>1</groupindex>
										</link>
										<link>
											<linkclipref>clipitem-876</linkclipref>
											<mediatype>audio</mediatype>
											<trackindex>4</trackindex>
											<clipindex>3</clipindex>
											<groupindex>1</groupindex>
										</link>
										<labels>
											<label2>Forest</label2>
										</labels>
									</clipitem>
									<enabled>TRUE</enabled>
									<locked>FALSE</locked>
									<outputchannelindex>2</outputchannelindex>
								</track>
								<track TL.SQTrackAudioKeyframeStyle="0" TL.SQTrackShy="0" TL.SQTrackExpandedHeight="25" TL.SQTrackExpanded="0" MZ.TrackTargeted="1" PannerCurrentValue="0.5" PannerIsInverted="true" PannerStartKeyframe="-91445760000000000,0.5,0,0,0,0,0,0" PannerName="Balance" currentExplodedTrackIndex="0" totalExplodedTrackCount="2" premiereTrackType="Stereo">
									<enabled>TRUE</enabled>
									<locked>FALSE</locked>
									<outputchannelindex>1</outputchannelindex>
								</track>
								<track TL.SQTrackAudioKeyframeStyle="0" TL.SQTrackShy="0" TL.SQTrackExpandedHeight="25" TL.SQTrackExpanded="0" MZ.TrackTargeted="1" PannerCurrentValue="0.5" PannerIsInverted="true" PannerStartKeyframe="-91445760000000000,0.5,0,0,0,0,0,0" PannerName="Balance" currentExplodedTrackIndex="1" totalExplodedTrackCount="2" premiereTrackType="Stereo">
									<enabled>TRUE</enabled>
									<locked>FALSE</locked>
									<outputchannelindex>2</outputchannelindex>
								</track>
							</audio>
						</media>
						<timecode>
							<rate>
								<timebase>30</timebase>
								<ntsc>TRUE</ntsc>
							</rate>
							<string>00;00;00;00</string>
							<frame>0</frame>
							<displayformat>DF</displayformat>
						</timecode>
						<labels>
							<label2>Forest</label2>
						</labels>
						<logginginfo>
							<description></description>
							<scene></scene>
							<shottake></shottake>
							<lognote></lognote>
							<good></good>
							<originalvideofilename></originalvideofilename>
							<originalaudiofilename></originalaudiofilename>
						</logginginfo>
					</sequence>
					<sequence id="sequence-37" TL.SQAudioVisibleBase="0" TL.SQVideoVisibleBase="0" TL.SQVisibleBaseTime="0" TL.SQAVDividerPosition="0.5" TL.SQHideShyTracks="0" TL.SQHeaderWidth="236" TL.SQDataTrackViewControlState="0" Monitor.ProgramZoomOut="46972147622400" Monitor.ProgramZoomIn="0" TL.SQTimePerPixel="0.17108338032829518" AM.TrackVScrollPosition="0" AM.TrackScrollPosition="0" MZ.EditLine="45082073836800" MZ.Sequence.PreviewFrameSizeHeight="1080" MZ.Sequence.PreviewFrameSizeWidth="1920" MZ.Sequence.AudioTimeDisplayFormat="200" MZ.Sequence.PreviewRenderingClassID="1061109567" MZ.Sequence.PreviewRenderingPresetCodec="1634755443" MZ.Sequence.PreviewRenderingPresetPath="EncoderPresets/SequencePreview/35d109db-457b-43c1-9452-9cb7be9f121c/QuickTime.epr" MZ.Sequence.PreviewUseMaxRenderQuality="false" MZ.Sequence.PreviewUseMaxBitDepth="false" MZ.Sequence.EditingModeGUID="35d109db-457b-43c1-9452-9cb7be9f121c" MZ.Sequence.VideoTimeDisplayFormat="102" MZ.WorkOutPoint="15239249625600" MZ.WorkInPoint="0" explodedTracks="true">
						<uuid>710b103f-eb58-4627-8974-30755bf77094</uuid>
						<duration>5542</duration>
						<rate>
							<timebase>30</timebase>
							<ntsc>TRUE</ntsc>
						</rate>
						<name>ATM_EYECANDY_251</name>
						<media>
							<video>
								<format>
									<samplecharacteristics>
										<rate>
											<timebase>30</timebase>
											<ntsc>TRUE</ntsc>
										</rate>
										<codec>
											<name>Apple ProRes 422</name>
											<appspecificdata>
												<appname>Final Cut Pro</appname>
												<appmanufacturer>Apple Inc.</appmanufacturer>
												<appversion>7.0</appversion>
												<data>
													<qtcodec>
														<codecname>Apple ProRes 422</codecname>
														<codectypename>Apple ProRes 422</codectypename>
														<codectypecode>apcn</codectypecode>
														<codecvendorcode>appl</codecvendorcode>
														<spatialquality>1024</spatialquality>
														<temporalquality>0</temporalquality>
														<keyframerate>0</keyframerate>
														<datarate>0</datarate>
													</qtcodec>
												</data>
											</appspecificdata>
										</codec>
										<width>1920</width>
										<height>1080</height>
										<anamorphic>FALSE</anamorphic>
										<pixelaspectratio>square</pixelaspectratio>
										<fielddominance>none</fielddominance>
										<colordepth>24</colordepth>
									</samplecharacteristics>
								</format>
								<track TL.SQTrackShy="0" TL.SQTrackExpandedHeight="25" TL.SQTrackExpanded="0" MZ.TrackTargeted="1">
									<clipitem id="clipitem-877">
										<masterclipid>masterclip-234</masterclipid>
										<name>A Delicious Pear-ing_1.5</name>
										<enabled>TRUE</enabled>
										<duration>5700</duration>
										<rate>
											<timebase>30</timebase>
											<ntsc>TRUE</ntsc>
										</rate>
										<start>82</start>
										<end>2487</end>
										<in>0</in>
										<out>2405</out>
										<pproTicksIn>0</pproTicksIn>
										<pproTicksOut>20383979616000</pproTicksOut>
										<sequence id="sequence-17"/>
										<link>
											<linkclipref>clipitem-877</linkclipref>
											<mediatype>video</mediatype>
											<trackindex>1</trackindex>
											<clipindex>1</clipindex>
										</link>
										<link>
											<linkclipref>clipitem-885</linkclipref>
											<mediatype>audio</mediatype>
											<trackindex>1</trackindex>
											<clipindex>1</clipindex>
											<groupindex>1</groupindex>
										</link>
										<link>
											<linkclipref>clipitem-888</linkclipref>
											<mediatype>audio</mediatype>
											<trackindex>2</trackindex>
											<clipindex>1</clipindex>
											<groupindex>1</groupindex>
										</link>
										<labels>
											<label2>Forest</label2>
										</labels>
									</clipitem>
									<clipitem id="clipitem-878">
										<masterclipid>masterclip-235</masterclipid>
										<name>Beautiful Brittle_1.5</name>
										<enabled>TRUE</enabled>
										<duration>5700</duration>
										<rate>
											<timebase>30</timebase>
											<ntsc>TRUE</ntsc>
										</rate>
										<start>2521</start>
										<end>5243</end>
										<in>0</in>
										<out>2722</out>
										<pproTicksIn>0</pproTicksIn>
										<pproTicksOut>23070766118400</pproTicksOut>
										<sequence id="sequence-21"/>
										<link>
											<linkclipref>clipitem-878</linkclipref>
											<mediatype>video</mediatype>
											<trackindex>1</trackindex>
											<clipindex>2</clipindex>
										</link>
										<link>
											<linkclipref>clipitem-886</linkclipref>
											<mediatype>audio</mediatype>
											<trackindex>1</trackindex>
											<clipindex>3</clipindex>
											<groupindex>1</groupindex>
										</link>
										<link>
											<linkclipref>clipitem-889</linkclipref>
											<mediatype>audio</mediatype>
											<trackindex>2</trackindex>
											<clipindex>3</clipindex>
											<groupindex>1</groupindex>
										</link>
										<labels>
											<label2>Forest</label2>
										</labels>
									</clipitem>
									<clipitem id="clipitem-879">
										<masterclipid>masterclip-236</masterclipid>
										<name>Bumper 3</name>
										<enabled>TRUE</enabled>
										<duration>299</duration>
										<rate>
											<timebase>30</timebase>
											<ntsc>TRUE</ntsc>
										</rate>
										<start>5243</start>
										<end>5542</end>
										<in>0</in>
										<out>299</out>
										<pproTicksIn>0</pproTicksIn>
										<pproTicksOut>2534224492800</pproTicksOut>
										<sequence id="sequence-27"/>
										<link>
											<linkclipref>clipitem-879</linkclipref>
											<mediatype>video</mediatype>
											<trackindex>1</trackindex>
											<clipindex>3</clipindex>
										</link>
										<link>
											<linkclipref>clipitem-887</linkclipref>
											<mediatype>audio</mediatype>
											<trackindex>1</trackindex>
											<clipindex>5</clipindex>
											<groupindex>1</groupindex>
										</link>
										<link>
											<linkclipref>clipitem-890</linkclipref>
											<mediatype>audio</mediatype>
											<trackindex>2</trackindex>
											<clipindex>5</clipindex>
											<groupindex>1</groupindex>
										</link>
										<labels>
											<label2>Forest</label2>
										</labels>
									</clipitem>
									<enabled>TRUE</enabled>
									<locked>FALSE</locked>
								</track>
								<track TL.SQTrackShy="0" TL.SQTrackExpandedHeight="25" TL.SQTrackExpanded="0" MZ.TrackTargeted="0">
									<clipitem id="clipitem-880">
										<masterclipid>masterclip-209</masterclipid>
										<name>ATM BUG_1080_Top Right.png</name>
										<enabled>TRUE</enabled>
										<duration>1294705</duration>
										<rate>
											<timebase>30</timebase>
											<ntsc>TRUE</ntsc>
										</rate>
										<start>82</start>
										<end>5243</end>
										<in>107892</in>
										<out>113053</out>
										<pproTicksIn>914456685542400</pproTicksIn>
										<pproTicksOut>958199603961600</pproTicksOut>
										<alphatype>straight</alphatype>
										<file id="file-206"/>
										<logginginfo>
											<description></description>
											<scene></scene>
											<shottake></shottake>
											<lognote></lognote>
											<good></good>
											<originalvideofilename></originalvideofilename>
											<originalaudiofilename></originalaudiofilename>
										</logginginfo>
										<colorinfo>
											<lut></lut>
											<lut1></lut1>
											<asc_sop></asc_sop>
											<asc_sat></asc_sat>
											<lut2></lut2>
										</colorinfo>
										<labels>
										</labels>
									</clipitem>
									<enabled>TRUE</enabled>
									<locked>FALSE</locked>
								</track>
								<track TL.SQTrackShy="0" TL.SQTrackExpandedHeight="25" TL.SQTrackExpanded="0" MZ.TrackTargeted="0">
									<clipitem id="clipitem-881">
										<masterclipid>masterclip-158</masterclipid>
										<name>A Delicious Pear-ing</name>
										<enabled>TRUE</enabled>
										<duration>6293</duration>
										<rate>
											<timebase>30</timebase>
											<ntsc>TRUE</ntsc>
										</rate>
										<start>115</start>
										<end>2487</end>
										<in>0</in>
										<out>2372</out>
										<pproTicksIn>0</pproTicksIn>
										<pproTicksOut>20104282598400</pproTicksOut>
										<alphatype>straight</alphatype>
										<file id="file-158"/>
										<logginginfo>
											<description></description>
											<scene></scene>
											<shottake></shottake>
											<lognote></lognote>
											<good></good>
											<originalvideofilename></originalvideofilename>
											<originalaudiofilename></originalaudiofilename>
										</logginginfo>
										<colorinfo>
											<lut></lut>
											<lut1></lut1>
											<asc_sop></asc_sop>
											<asc_sat></asc_sat>
											<lut2></lut2>
										</colorinfo>
									</clipitem>
									<clipitem id="clipitem-882">
										<masterclipid>masterclip-159</masterclipid>
										<name>Beautiful Brittle</name>
										<enabled>TRUE</enabled>
										<duration>6293</duration>
										<rate>
											<timebase>30</timebase>
											<ntsc>TRUE</ntsc>
										</rate>
										<start>2586</start>
										<end>5243</end>
										<in>0</in>
										<out>2657</out>
										<pproTicksIn>0</pproTicksIn>
										<pproTicksOut>22519847750400</pproTicksOut>
										<alphatype>straight</alphatype>
										<file id="file-159"/>
										<logginginfo>
											<description></description>
											<scene></scene>
											<shottake></shottake>
											<lognote></lognote>
											<good></good>
											<originalvideofilename></originalvideofilename>
											<originalaudiofilename></originalaudiofilename>
										</logginginfo>
										<colorinfo>
											<lut></lut>
											<lut1></lut1>
											<asc_sop></asc_sop>
											<asc_sat></asc_sat>
											<lut2></lut2>
										</colorinfo>
									</clipitem>
									<enabled>TRUE</enabled>
									<locked>FALSE</locked>
								</track>
								<track TL.SQTrackShy="0" TL.SQTrackExpandedHeight="25" TL.SQTrackExpanded="0" MZ.TrackTargeted="0">
									<clipitem id="clipitem-883">
										<masterclipid>masterclip-221</masterclipid>
										<name>Intro</name>
										<enabled>TRUE</enabled>
										<duration>160</duration>
										<rate>
											<timebase>30</timebase>
											<ntsc>TRUE</ntsc>
										</rate>
										<start>0</start>
										<end>115</end>
										<in>0</in>
										<out>115</out>
										<pproTicksIn>0</pproTicksIn>
										<pproTicksOut>974701728000</pproTicksOut>
										<sequence id="sequence-28"/>
											<marker>
												<comment></comment>
												<name></name>
												<in>82</in>
												<out>-1</out>
											</marker>
										<link>
											<linkclipref>clipitem-883</linkclipref>
											<mediatype>video</mediatype>
											<trackindex>4</trackindex>
											<clipindex>1</clipindex>
										</link>
										<link>
											<linkclipref>clipitem-891</linkclipref>
											<mediatype>audio</mediatype>
											<trackindex>3</trackindex>
											<clipindex>1</clipindex>
											<groupindex>1</groupindex>
										</link>
										<link>
											<linkclipref>clipitem-893</linkclipref>
											<mediatype>audio</mediatype>
											<trackindex>4</trackindex>
											<clipindex>1</clipindex>
											<groupindex>1</groupindex>
										</link>
										<labels>
											<label2>Forest</label2>
										</labels>
									</clipitem>
									<clipitem id="clipitem-884">
										<masterclipid>masterclip-227</masterclipid>
										<name>Transition 2</name>
										<enabled>TRUE</enabled>
										<duration>160</duration>
										<rate>
											<timebase>30</timebase>
											<ntsc>TRUE</ntsc>
										</rate>
										<start>2467</start>
										<end>2586</end>
										<in>0</in>
										<out>119</out>
										<pproTicksIn>0</pproTicksIn>
										<pproTicksOut>1008604396800</pproTicksOut>
										<sequence id="sequence-31"/>
											<marker>
												<comment></comment>
												<name></name>
												<in>20</in>
												<out>-1</out>
											</marker>
											<marker>
												<comment></comment>
												<name></name>
												<in>54</in>
												<out>-1</out>
											</marker>
										<link>
											<linkclipref>clipitem-884</linkclipref>
											<mediatype>video</mediatype>
											<trackindex>4</trackindex>
											<clipindex>2</clipindex>
										</link>
										<link>
											<linkclipref>clipitem-892</linkclipref>
											<mediatype>audio</mediatype>
											<trackindex>3</trackindex>
											<clipindex>2</clipindex>
											<groupindex>1</groupindex>
										</link>
										<link>
											<linkclipref>clipitem-894</linkclipref>
											<mediatype>audio</mediatype>
											<trackindex>4</trackindex>
											<clipindex>2</clipindex>
											<groupindex>1</groupindex>
										</link>
										<labels>
											<label2>Forest</label2>
										</labels>
									</clipitem>
									<enabled>TRUE</enabled>
									<locked>FALSE</locked>
								</track>
							</video>
							<audio>
								<numOutputChannels>2</numOutputChannels>
								<format>
									<samplecharacteristics>
										<depth>16</depth>
										<samplerate>48000</samplerate>
									</samplecharacteristics>
								</format>
								<outputs>
									<group>
										<index>1</index>
										<numchannels>1</numchannels>
										<downmix>0</downmix>
										<channel>
											<index>1</index>
										</channel>
									</group>
									<group>
										<index>2</index>
										<numchannels>1</numchannels>
										<downmix>0</downmix>
										<channel>
											<index>2</index>
										</channel>
									</group>
								</outputs>
								<track TL.SQTrackAudioKeyframeStyle="0" TL.SQTrackShy="0" TL.SQTrackExpandedHeight="25" TL.SQTrackExpanded="0" MZ.TrackTargeted="1" PannerCurrentValue="0.5" PannerIsInverted="true" PannerStartKeyframe="-91445760000000000,0.5,0,0,0,0,0,0" PannerName="Balance" currentExplodedTrackIndex="0" totalExplodedTrackCount="2" premiereTrackType="Stereo">
									<clipitem id="clipitem-885" premiereChannelType="stereo">
										<masterclipid>masterclip-234</masterclipid>
										<name>A Delicious Pear-ing_1.5</name>
										<enabled>TRUE</enabled>
										<duration>5700</duration>
										<rate>
											<timebase>30</timebase>
											<ntsc>TRUE</ntsc>
										</rate>
										<start>82</start>
										<end>-1</end>
										<in>0</in>
										<out>2405</out>
										<pproTicksIn>0</pproTicksIn>
										<pproTicksOut>20383979616000</pproTicksOut>
										<sequence id="sequence-17"/>
										<sourcetrack>
											<mediatype>audio</mediatype>
											<trackindex>0</trackindex>
										</sourcetrack>
										<link>
											<linkclipref>clipitem-877</linkclipref>
											<mediatype>video</mediatype>
											<trackindex>1</trackindex>
											<clipindex>1</clipindex>
										</link>
										<link>
											<linkclipref>clipitem-885</linkclipref>
											<mediatype>audio</mediatype>
											<trackindex>1</trackindex>
											<clipindex>1</clipindex>
											<groupindex>1</groupindex>
										</link>
										<link>
											<linkclipref>clipitem-888</linkclipref>
											<mediatype>audio</mediatype>
											<trackindex>2</trackindex>
											<clipindex>1</clipindex>
											<groupindex>1</groupindex>
										</link>
										<labels>
											<label2>Forest</label2>
										</labels>
									</clipitem>
									<transitionitem>
										<start>2457</start>
										<end>2487</end>
										<pproTicksIn>20824714310400</pproTicksIn>
										<pproTicksOut>21078984326400</pproTicksOut>
										<alignment>end-black</alignment>
										<cutPointTicks>254270016000</cutPointTicks>
										<rate>
											<timebase>30</timebase>
											<ntsc>TRUE</ntsc>
										</rate>
										<effect>
											<name>Cross Fade (+3dB)</name>
											<effectid>KGAudioTransCrossFade3dB</effectid>
											<effecttype>transition</effecttype>
											<mediatype>audio</mediatype>
											<wipecode>0</wipecode>
											<wipeaccuracy>100</wipeaccuracy>
											<startratio>0</startratio>
											<endratio>1</endratio>
											<reverse>FALSE</reverse>
										</effect>
									</transitionitem>
									<clipitem id="clipitem-886" premiereChannelType="stereo">
										<masterclipid>masterclip-235</masterclipid>
										<name>Beautiful Brittle_1.5</name>
										<enabled>TRUE</enabled>
										<duration>5700</duration>
										<rate>
											<timebase>30</timebase>
											<ntsc>TRUE</ntsc>
										</rate>
										<start>2521</start>
										<end>-1</end>
										<in>0</in>
										<out>2722</out>
										<pproTicksIn>0</pproTicksIn>
										<pproTicksOut>23070766118400</pproTicksOut>
										<sequence id="sequence-21"/>
										<sourcetrack>
											<mediatype>audio</mediatype>
											<trackindex>0</trackindex>
										</sourcetrack>
										<link>
											<linkclipref>clipitem-878</linkclipref>
											<mediatype>video</mediatype>
											<trackindex>1</trackindex>
											<clipindex>2</clipindex>
										</link>
										<link>
											<linkclipref>clipitem-886</linkclipref>
											<mediatype>audio</mediatype>
											<trackindex>1</trackindex>
											<clipindex>3</clipindex>
											<groupindex>1</groupindex>
										</link>
										<link>
											<linkclipref>clipitem-889</linkclipref>
											<mediatype>audio</mediatype>
											<trackindex>2</trackindex>
											<clipindex>3</clipindex>
											<groupindex>1</groupindex>
										</link>
										<labels>
											<label2>Forest</label2>
										</labels>
									</clipitem>
									<transitionitem>
										<start>5213</start>
										<end>5243</end>
										<pproTicksIn>44183653113600</pproTicksIn>
										<pproTicksOut>44437923129600</pproTicksOut>
										<alignment>end-black</alignment>
										<cutPointTicks>254270016000</cutPointTicks>
										<rate>
											<timebase>30</timebase>
											<ntsc>TRUE</ntsc>
										</rate>
										<effect>
											<name>Cross Fade (+3dB)</name>
											<effectid>KGAudioTransCrossFade3dB</effectid>
											<effecttype>transition</effecttype>
											<mediatype>audio</mediatype>
											<wipecode>0</wipecode>
											<wipeaccuracy>100</wipeaccuracy>
											<startratio>0</startratio>
											<endratio>1</endratio>
											<reverse>FALSE</reverse>
										</effect>
									</transitionitem>
									<clipitem id="clipitem-887" premiereChannelType="stereo">
										<masterclipid>masterclip-236</masterclipid>
										<name>Bumper 3</name>
										<enabled>TRUE</enabled>
										<duration>299</duration>
										<rate>
											<timebase>30</timebase>
											<ntsc>TRUE</ntsc>
										</rate>
										<start>5243</start>
										<end>5542</end>
										<in>0</in>
										<out>299</out>
										<pproTicksIn>0</pproTicksIn>
										<pproTicksOut>2534224492800</pproTicksOut>
										<sequence id="sequence-27"/>
										<sourcetrack>
											<mediatype>audio</mediatype>
											<trackindex>0</trackindex>
										</sourcetrack>
										<link>
											<linkclipref>clipitem-879</linkclipref>
											<mediatype>video</mediatype>
											<trackindex>1</trackindex>
											<clipindex>3</clipindex>
										</link>
										<link>
											<linkclipref>clipitem-887</linkclipref>
											<mediatype>audio</mediatype>
											<trackindex>1</trackindex>
											<clipindex>5</clipindex>
											<groupindex>1</groupindex>
										</link>
										<link>
											<linkclipref>clipitem-890</linkclipref>
											<mediatype>audio</mediatype>
											<trackindex>2</trackindex>
											<clipindex>5</clipindex>
											<groupindex>1</groupindex>
										</link>
										<labels>
											<label2>Forest</label2>
										</labels>
									</clipitem>
									<enabled>TRUE</enabled>
									<locked>FALSE</locked>
									<outputchannelindex>1</outputchannelindex>
								</track>
								<track TL.SQTrackAudioKeyframeStyle="0" TL.SQTrackShy="0" TL.SQTrackExpandedHeight="25" TL.SQTrackExpanded="0" MZ.TrackTargeted="1" PannerCurrentValue="0.5" PannerIsInverted="true" PannerStartKeyframe="-91445760000000000,0.5,0,0,0,0,0,0" PannerName="Balance" currentExplodedTrackIndex="1" totalExplodedTrackCount="2" premiereTrackType="Stereo">
									<clipitem id="clipitem-888" premiereChannelType="stereo">
										<masterclipid>masterclip-234</masterclipid>
										<name>A Delicious Pear-ing_1.5</name>
										<enabled>TRUE</enabled>
										<duration>5700</duration>
										<rate>
											<timebase>30</timebase>
											<ntsc>TRUE</ntsc>
										</rate>
										<start>82</start>
										<end>-1</end>
										<in>0</in>
										<out>2405</out>
										<pproTicksIn>0</pproTicksIn>
										<pproTicksOut>20383979616000</pproTicksOut>
										<sequence id="sequence-17"/>
										<sourcetrack>
											<mediatype>audio</mediatype>
											<trackindex>1</trackindex>
										</sourcetrack>
										<link>
											<linkclipref>clipitem-877</linkclipref>
											<mediatype>video</mediatype>
											<trackindex>1</trackindex>
											<clipindex>1</clipindex>
										</link>
										<link>
											<linkclipref>clipitem-885</linkclipref>
											<mediatype>audio</mediatype>
											<trackindex>1</trackindex>
											<clipindex>1</clipindex>
											<groupindex>1</groupindex>
										</link>
										<link>
											<linkclipref>clipitem-888</linkclipref>
											<mediatype>audio</mediatype>
											<trackindex>2</trackindex>
											<clipindex>1</clipindex>
											<groupindex>1</groupindex>
										</link>
										<labels>
											<label2>Forest</label2>
										</labels>
									</clipitem>
									<transitionitem>
										<start>2457</start>
										<end>2487</end>
										<pproTicksIn>20824714310400</pproTicksIn>
										<pproTicksOut>21078984326400</pproTicksOut>
										<alignment>end-black</alignment>
										<cutPointTicks>254270016000</cutPointTicks>
										<rate>
											<timebase>30</timebase>
											<ntsc>TRUE</ntsc>
										</rate>
										<effect>
											<name>Cross Fade (+3dB)</name>
											<effectid>KGAudioTransCrossFade3dB</effectid>
											<effecttype>transition</effecttype>
											<mediatype>audio</mediatype>
											<wipecode>0</wipecode>
											<wipeaccuracy>100</wipeaccuracy>
											<startratio>0</startratio>
											<endratio>1</endratio>
											<reverse>FALSE</reverse>
										</effect>
									</transitionitem>
									<clipitem id="clipitem-889" premiereChannelType="stereo">
										<masterclipid>masterclip-235</masterclipid>
										<name>Beautiful Brittle_1.5</name>
										<enabled>TRUE</enabled>
										<duration>5700</duration>
										<rate>
											<timebase>30</timebase>
											<ntsc>TRUE</ntsc>
										</rate>
										<start>2521</start>
										<end>-1</end>
										<in>0</in>
										<out>2722</out>
										<pproTicksIn>0</pproTicksIn>
										<pproTicksOut>23070766118400</pproTicksOut>
										<sequence id="sequence-21"/>
										<sourcetrack>
											<mediatype>audio</mediatype>
											<trackindex>1</trackindex>
										</sourcetrack>
										<link>
											<linkclipref>clipitem-878</linkclipref>
											<mediatype>video</mediatype>
											<trackindex>1</trackindex>
											<clipindex>2</clipindex>
										</link>
										<link>
											<linkclipref>clipitem-886</linkclipref>
											<mediatype>audio</mediatype>
											<trackindex>1</trackindex>
											<clipindex>3</clipindex>
											<groupindex>1</groupindex>
										</link>
										<link>
											<linkclipref>clipitem-889</linkclipref>
											<mediatype>audio</mediatype>
											<trackindex>2</trackindex>
											<clipindex>3</clipindex>
											<groupindex>1</groupindex>
										</link>
										<labels>
											<label2>Forest</label2>
										</labels>
									</clipitem>
									<transitionitem>
										<start>5213</start>
										<end>5243</end>
										<pproTicksIn>44183653113600</pproTicksIn>
										<pproTicksOut>44437923129600</pproTicksOut>
										<alignment>end-black</alignment>
										<cutPointTicks>254270016000</cutPointTicks>
										<rate>
											<timebase>30</timebase>
											<ntsc>TRUE</ntsc>
										</rate>
										<effect>
											<name>Cross Fade (+3dB)</name>
											<effectid>KGAudioTransCrossFade3dB</effectid>
											<effecttype>transition</effecttype>
											<mediatype>audio</mediatype>
											<wipecode>0</wipecode>
											<wipeaccuracy>100</wipeaccuracy>
											<startratio>0</startratio>
											<endratio>1</endratio>
											<reverse>FALSE</reverse>
										</effect>
									</transitionitem>
									<clipitem id="clipitem-890" premiereChannelType="stereo">
										<masterclipid>masterclip-236</masterclipid>
										<name>Bumper 3</name>
										<enabled>TRUE</enabled>
										<duration>299</duration>
										<rate>
											<timebase>30</timebase>
											<ntsc>TRUE</ntsc>
										</rate>
										<start>5243</start>
										<end>5542</end>
										<in>0</in>
										<out>299</out>
										<pproTicksIn>0</pproTicksIn>
										<pproTicksOut>2534224492800</pproTicksOut>
										<sequence id="sequence-27"/>
										<sourcetrack>
											<mediatype>audio</mediatype>
											<trackindex>1</trackindex>
										</sourcetrack>
										<link>
											<linkclipref>clipitem-879</linkclipref>
											<mediatype>video</mediatype>
											<trackindex>1</trackindex>
											<clipindex>3</clipindex>
										</link>
										<link>
											<linkclipref>clipitem-887</linkclipref>
											<mediatype>audio</mediatype>
											<trackindex>1</trackindex>
											<clipindex>5</clipindex>
											<groupindex>1</groupindex>
										</link>
										<link>
											<linkclipref>clipitem-890</linkclipref>
											<mediatype>audio</mediatype>
											<trackindex>2</trackindex>
											<clipindex>5</clipindex>
											<groupindex>1</groupindex>
										</link>
										<labels>
											<label2>Forest</label2>
										</labels>
									</clipitem>
									<enabled>TRUE</enabled>
									<locked>FALSE</locked>
									<outputchannelindex>2</outputchannelindex>
								</track>
								<track TL.SQTrackAudioKeyframeStyle="0" TL.SQTrackShy="0" TL.SQTrackExpandedHeight="25" TL.SQTrackExpanded="0" MZ.TrackTargeted="1" PannerCurrentValue="0.5" PannerIsInverted="true" PannerStartKeyframe="-91445760000000000,0.5,0,0,0,0,0,0" PannerName="Balance" currentExplodedTrackIndex="0" totalExplodedTrackCount="2" premiereTrackType="Stereo">
									<clipitem id="clipitem-891" premiereChannelType="stereo">
										<masterclipid>masterclip-221</masterclipid>
										<name>Intro</name>
										<enabled>TRUE</enabled>
										<duration>160</duration>
										<rate>
											<timebase>30</timebase>
											<ntsc>TRUE</ntsc>
										</rate>
										<start>0</start>
										<end>115</end>
										<in>0</in>
										<out>115</out>
										<pproTicksIn>0</pproTicksIn>
										<pproTicksOut>974701728000</pproTicksOut>
										<sequence id="sequence-28"/>
										<sourcetrack>
											<mediatype>audio</mediatype>
											<trackindex>0</trackindex>
										</sourcetrack>
											<marker>
												<comment></comment>
												<name></name>
												<in>82</in>
												<out>-1</out>
											</marker>
										<link>
											<linkclipref>clipitem-883</linkclipref>
											<mediatype>video</mediatype>
											<trackindex>4</trackindex>
											<clipindex>1</clipindex>
										</link>
										<link>
											<linkclipref>clipitem-891</linkclipref>
											<mediatype>audio</mediatype>
											<trackindex>3</trackindex>
											<clipindex>1</clipindex>
											<groupindex>1</groupindex>
										</link>
										<link>
											<linkclipref>clipitem-893</linkclipref>
											<mediatype>audio</mediatype>
											<trackindex>4</trackindex>
											<clipindex>1</clipindex>
											<groupindex>1</groupindex>
										</link>
										<labels>
											<label2>Forest</label2>
										</labels>
									</clipitem>
									<clipitem id="clipitem-892" premiereChannelType="stereo">
										<masterclipid>masterclip-227</masterclipid>
										<name>Transition 2</name>
										<enabled>TRUE</enabled>
										<duration>160</duration>
										<rate>
											<timebase>30</timebase>
											<ntsc>TRUE</ntsc>
										</rate>
										<start>2467</start>
										<end>2586</end>
										<in>0</in>
										<out>119</out>
										<pproTicksIn>0</pproTicksIn>
										<pproTicksOut>1008604396800</pproTicksOut>
										<sequence id="sequence-31"/>
										<sourcetrack>
											<mediatype>audio</mediatype>
											<trackindex>0</trackindex>
										</sourcetrack>
											<marker>
												<comment></comment>
												<name></name>
												<in>20</in>
												<out>-1</out>
											</marker>
											<marker>
												<comment></comment>
												<name></name>
												<in>54</in>
												<out>-1</out>
											</marker>
										<link>
											<linkclipref>clipitem-884</linkclipref>
											<mediatype>video</mediatype>
											<trackindex>4</trackindex>
											<clipindex>2</clipindex>
										</link>
										<link>
											<linkclipref>clipitem-892</linkclipref>
											<mediatype>audio</mediatype>
											<trackindex>3</trackindex>
											<clipindex>2</clipindex>
											<groupindex>1</groupindex>
										</link>
										<link>
											<linkclipref>clipitem-894</linkclipref>
											<mediatype>audio</mediatype>
											<trackindex>4</trackindex>
											<clipindex>2</clipindex>
											<groupindex>1</groupindex>
										</link>
										<labels>
											<label2>Forest</label2>
										</labels>
									</clipitem>
									<enabled>TRUE</enabled>
									<locked>FALSE</locked>
									<outputchannelindex>1</outputchannelindex>
								</track>
								<track TL.SQTrackAudioKeyframeStyle="0" TL.SQTrackShy="0" TL.SQTrackExpandedHeight="25" TL.SQTrackExpanded="0" MZ.TrackTargeted="1" PannerCurrentValue="0.5" PannerIsInverted="true" PannerStartKeyframe="-91445760000000000,0.5,0,0,0,0,0,0" PannerName="Balance" currentExplodedTrackIndex="1" totalExplodedTrackCount="2" premiereTrackType="Stereo">
									<clipitem id="clipitem-893" premiereChannelType="stereo">
										<masterclipid>masterclip-221</masterclipid>
										<name>Intro</name>
										<enabled>TRUE</enabled>
										<duration>160</duration>
										<rate>
											<timebase>30</timebase>
											<ntsc>TRUE</ntsc>
										</rate>
										<start>0</start>
										<end>115</end>
										<in>0</in>
										<out>115</out>
										<pproTicksIn>0</pproTicksIn>
										<pproTicksOut>974701728000</pproTicksOut>
										<sequence id="sequence-28"/>
										<sourcetrack>
											<mediatype>audio</mediatype>
											<trackindex>1</trackindex>
										</sourcetrack>
											<marker>
												<comment></comment>
												<name></name>
												<in>82</in>
												<out>-1</out>
											</marker>
										<link>
											<linkclipref>clipitem-883</linkclipref>
											<mediatype>video</mediatype>
											<trackindex>4</trackindex>
											<clipindex>1</clipindex>
										</link>
										<link>
											<linkclipref>clipitem-891</linkclipref>
											<mediatype>audio</mediatype>
											<trackindex>3</trackindex>
											<clipindex>1</clipindex>
											<groupindex>1</groupindex>
										</link>
										<link>
											<linkclipref>clipitem-893</linkclipref>
											<mediatype>audio</mediatype>
											<trackindex>4</trackindex>
											<clipindex>1</clipindex>
											<groupindex>1</groupindex>
										</link>
										<labels>
											<label2>Forest</label2>
										</labels>
									</clipitem>
									<clipitem id="clipitem-894" premiereChannelType="stereo">
										<masterclipid>masterclip-227</masterclipid>
										<name>Transition 2</name>
										<enabled>TRUE</enabled>
										<duration>160</duration>
										<rate>
											<timebase>30</timebase>
											<ntsc>TRUE</ntsc>
										</rate>
										<start>2467</start>
										<end>2586</end>
										<in>0</in>
										<out>119</out>
										<pproTicksIn>0</pproTicksIn>
										<pproTicksOut>1008604396800</pproTicksOut>
										<sequence id="sequence-31"/>
										<sourcetrack>
											<mediatype>audio</mediatype>
											<trackindex>1</trackindex>
										</sourcetrack>
											<marker>
												<comment></comment>
												<name></name>
												<in>20</in>
												<out>-1</out>
											</marker>
											<marker>
												<comment></comment>
												<name></name>
												<in>54</in>
												<out>-1</out>
											</marker>
										<link>
											<linkclipref>clipitem-884</linkclipref>
											<mediatype>video</mediatype>
											<trackindex>4</trackindex>
											<clipindex>2</clipindex>
										</link>
										<link>
											<linkclipref>clipitem-892</linkclipref>
											<mediatype>audio</mediatype>
											<trackindex>3</trackindex>
											<clipindex>2</clipindex>
											<groupindex>1</groupindex>
										</link>
										<link>
											<linkclipref>clipitem-894</linkclipref>
											<mediatype>audio</mediatype>
											<trackindex>4</trackindex>
											<clipindex>2</clipindex>
											<groupindex>1</groupindex>
										</link>
										<labels>
											<label2>Forest</label2>
										</labels>
									</clipitem>
									<enabled>TRUE</enabled>
									<locked>FALSE</locked>
									<outputchannelindex>2</outputchannelindex>
								</track>
								<track TL.SQTrackAudioKeyframeStyle="0" TL.SQTrackShy="0" TL.SQTrackExpandedHeight="25" TL.SQTrackExpanded="0" MZ.TrackTargeted="1" PannerCurrentValue="0.5" PannerIsInverted="true" PannerStartKeyframe="-91445760000000000,0.5,0,0,0,0,0,0" PannerName="Balance" currentExplodedTrackIndex="0" totalExplodedTrackCount="2" premiereTrackType="Stereo">
									<enabled>TRUE</enabled>
									<locked>FALSE</locked>
									<outputchannelindex>1</outputchannelindex>
								</track>
								<track TL.SQTrackAudioKeyframeStyle="0" TL.SQTrackShy="0" TL.SQTrackExpandedHeight="25" TL.SQTrackExpanded="0" MZ.TrackTargeted="1" PannerCurrentValue="0.5" PannerIsInverted="true" PannerStartKeyframe="-91445760000000000,0.5,0,0,0,0,0,0" PannerName="Balance" currentExplodedTrackIndex="1" totalExplodedTrackCount="2" premiereTrackType="Stereo">
									<enabled>TRUE</enabled>
									<locked>FALSE</locked>
									<outputchannelindex>2</outputchannelindex>
								</track>
							</audio>
						</media>
						<timecode>
							<rate>
								<timebase>30</timebase>
								<ntsc>TRUE</ntsc>
							</rate>
							<string>00;00;00;00</string>
							<frame>0</frame>
							<displayformat>DF</displayformat>
						</timecode>
						<labels>
							<label2>Forest</label2>
						</labels>
						<logginginfo>
							<description></description>
							<scene></scene>
							<shottake></shottake>
							<lognote></lognote>
							<good></good>
							<originalvideofilename></originalvideofilename>
							<originalaudiofilename></originalaudiofilename>
						</logginginfo>
					</sequence>
					<sequence id="sequence-38" TL.SQAudioVisibleBase="0" TL.SQVideoVisibleBase="0" TL.SQVisibleBaseTime="0" TL.SQAVDividerPosition="0.5" TL.SQHideShyTracks="0" TL.SQHeaderWidth="236" TL.SQDataTrackViewControlState="0" Monitor.ProgramZoomOut="45387197856000" Monitor.ProgramZoomIn="0" TL.SQTimePerPixel="0.20713847676869873" AM.TrackVScrollPosition="0" AM.TrackScrollPosition="0" MZ.EditLine="10840378348800" MZ.Sequence.PreviewFrameSizeHeight="1080" MZ.Sequence.PreviewFrameSizeWidth="1920" MZ.Sequence.AudioTimeDisplayFormat="200" MZ.Sequence.PreviewRenderingClassID="1061109567" MZ.Sequence.PreviewRenderingPresetCodec="1634755443" MZ.Sequence.PreviewRenderingPresetPath="EncoderPresets/SequencePreview/35d109db-457b-43c1-9452-9cb7be9f121c/QuickTime.epr" MZ.Sequence.PreviewUseMaxRenderQuality="false" MZ.Sequence.PreviewUseMaxBitDepth="false" MZ.Sequence.EditingModeGUID="35d109db-457b-43c1-9452-9cb7be9f121c" MZ.Sequence.VideoTimeDisplayFormat="102" MZ.WorkOutPoint="15239249625600" MZ.WorkInPoint="0" explodedTracks="true">
						<uuid>81510b7c-f951-4690-b7bf-8bb3640c3eb5</uuid>
						<duration>5261</duration>
						<rate>
							<timebase>30</timebase>
							<ntsc>TRUE</ntsc>
						</rate>
						<name>ATM_EYECANDY_252</name>
						<media>
							<video>
								<format>
									<samplecharacteristics>
										<rate>
											<timebase>30</timebase>
											<ntsc>TRUE</ntsc>
										</rate>
										<codec>
											<name>Apple ProRes 422</name>
											<appspecificdata>
												<appname>Final Cut Pro</appname>
												<appmanufacturer>Apple Inc.</appmanufacturer>
												<appversion>7.0</appversion>
												<data>
													<qtcodec>
														<codecname>Apple ProRes 422</codecname>
														<codectypename>Apple ProRes 422</codectypename>
														<codectypecode>apcn</codectypecode>
														<codecvendorcode>appl</codecvendorcode>
														<spatialquality>1024</spatialquality>
														<temporalquality>0</temporalquality>
														<keyframerate>0</keyframerate>
														<datarate>0</datarate>
													</qtcodec>
												</data>
											</appspecificdata>
										</codec>
										<width>1920</width>
										<height>1080</height>
										<anamorphic>FALSE</anamorphic>
										<pixelaspectratio>square</pixelaspectratio>
										<fielddominance>none</fielddominance>
										<colordepth>24</colordepth>
									</samplecharacteristics>
								</format>
								<track TL.SQTrackShy="0" TL.SQTrackExpandedHeight="25" TL.SQTrackExpanded="0" MZ.TrackTargeted="1">
									<clipitem id="clipitem-895">
										<masterclipid>masterclip-237</masterclipid>
										<name>Mint Chocolate Chip Bliss_1.5</name>
										<enabled>TRUE</enabled>
										<duration>5700</duration>
										<rate>
											<timebase>30</timebase>
											<ntsc>TRUE</ntsc>
										</rate>
										<start>82</start>
										<end>2696</end>
										<in>0</in>
										<out>2614</out>
										<pproTicksIn>0</pproTicksIn>
										<pproTicksOut>22155394060800</pproTicksOut>
										<sequence id="sequence-15"/>
										<link>
											<linkclipref>clipitem-895</linkclipref>
											<mediatype>video</mediatype>
											<trackindex>1</trackindex>
											<clipindex>1</clipindex>
										</link>
										<link>
											<linkclipref>clipitem-903</linkclipref>
											<mediatype>audio</mediatype>
											<trackindex>1</trackindex>
											<clipindex>1</clipindex>
											<groupindex>1</groupindex>
										</link>
										<link>
											<linkclipref>clipitem-905</linkclipref>
											<mediatype>audio</mediatype>
											<trackindex>2</trackindex>
											<clipindex>1</clipindex>
											<groupindex>1</groupindex>
										</link>
										<labels>
											<label2>Forest</label2>
										</labels>
									</clipitem>
									<clipitem id="clipitem-896">
										<masterclipid>masterclip-238</masterclipid>
										<name>Cookie Cups of Fun_1.5</name>
										<enabled>TRUE</enabled>
										<duration>2583</duration>
										<rate>
											<timebase>30</timebase>
											<ntsc>TRUE</ntsc>
										</rate>
										<start>2696</start>
										<end>5261</end>
										<in>0</in>
										<out>2565</out>
										<pproTicksIn>0</pproTicksIn>
										<pproTicksOut>21740086368000</pproTicksOut>
										<sequence id="sequence-20"/>
										<link>
											<linkclipref>clipitem-896</linkclipref>
											<mediatype>video</mediatype>
											<trackindex>1</trackindex>
											<clipindex>2</clipindex>
										</link>
										<link>
											<linkclipref>clipitem-904</linkclipref>
											<mediatype>audio</mediatype>
											<trackindex>1</trackindex>
											<clipindex>3</clipindex>
											<groupindex>1</groupindex>
										</link>
										<link>
											<linkclipref>clipitem-906</linkclipref>
											<mediatype>audio</mediatype>
											<trackindex>2</trackindex>
											<clipindex>3</clipindex>
											<groupindex>1</groupindex>
										</link>
										<labels>
											<label2>Forest</label2>
										</labels>
									</clipitem>
									<enabled>TRUE</enabled>
									<locked>FALSE</locked>
								</track>
								<track TL.SQTrackShy="0" TL.SQTrackExpandedHeight="25" TL.SQTrackExpanded="0" MZ.TrackTargeted="0">
									<clipitem id="clipitem-897">
										<masterclipid>masterclip-209</masterclipid>
										<name>ATM BUG_1080_Top Right.png</name>
										<enabled>TRUE</enabled>
										<duration>1294705</duration>
										<rate>
											<timebase>30</timebase>
											<ntsc>TRUE</ntsc>
										</rate>
										<start>82</start>
										<end>5261</end>
										<in>107892</in>
										<out>113071</out>
										<pproTicksIn>914456685542400</pproTicksIn>
										<pproTicksOut>958352165971200</pproTicksOut>
										<alphatype>straight</alphatype>
										<file id="file-206"/>
										<logginginfo>
											<description></description>
											<scene></scene>
											<shottake></shottake>
											<lognote></lognote>
											<good></good>
											<originalvideofilename></originalvideofilename>
											<originalaudiofilename></originalaudiofilename>
										</logginginfo>
										<colorinfo>
											<lut></lut>
											<lut1></lut1>
											<asc_sop></asc_sop>
											<asc_sat></asc_sat>
											<lut2></lut2>
										</colorinfo>
										<labels>
										</labels>
									</clipitem>
									<enabled>TRUE</enabled>
									<locked>FALSE</locked>
								</track>
								<track TL.SQTrackShy="0" TL.SQTrackExpandedHeight="25" TL.SQTrackExpanded="0" MZ.TrackTargeted="0">
									<clipitem id="clipitem-898">
										<masterclipid>masterclip-160</masterclipid>
										<name>Mint Chocolate Chip Bliss</name>
										<enabled>TRUE</enabled>
										<duration>6293</duration>
										<rate>
											<timebase>30</timebase>
											<ntsc>TRUE</ntsc>
										</rate>
										<start>115</start>
										<end>2696</end>
										<in>0</in>
										<out>2581</out>
										<pproTicksIn>0</pproTicksIn>
										<pproTicksOut>21875697043200</pproTicksOut>
										<alphatype>straight</alphatype>
										<file id="file-160"/>
										<logginginfo>
											<description></description>
											<scene></scene>
											<shottake></shottake>
											<lognote></lognote>
											<good></good>
											<originalvideofilename></originalvideofilename>
											<originalaudiofilename></originalaudiofilename>
										</logginginfo>
										<colorinfo>
											<lut></lut>
											<lut1></lut1>
											<asc_sop></asc_sop>
											<asc_sat></asc_sat>
											<lut2></lut2>
										</colorinfo>
									</clipitem>
									<clipitem id="clipitem-899">
										<masterclipid>masterclip-161</masterclipid>
										<name>Cookie Cups of Fun</name>
										<enabled>TRUE</enabled>
										<duration>6293</duration>
										<rate>
											<timebase>30</timebase>
											<ntsc>TRUE</ntsc>
										</rate>
										<start>2757</start>
										<end>5261</end>
										<in>0</in>
										<out>2504</out>
										<pproTicksIn>0</pproTicksIn>
										<pproTicksOut>21223070668800</pproTicksOut>
										<alphatype>straight</alphatype>
										<file id="file-161"/>
										<logginginfo>
											<description></description>
											<scene></scene>
											<shottake></shottake>
											<lognote></lognote>
											<good></good>
											<originalvideofilename></originalvideofilename>
											<originalaudiofilename></originalaudiofilename>
										</logginginfo>
										<colorinfo>
											<lut></lut>
											<lut1></lut1>
											<asc_sop></asc_sop>
											<asc_sat></asc_sat>
											<lut2></lut2>
										</colorinfo>
									</clipitem>
									<enabled>TRUE</enabled>
									<locked>FALSE</locked>
								</track>
								<track TL.SQTrackShy="0" TL.SQTrackExpandedHeight="25" TL.SQTrackExpanded="0" MZ.TrackTargeted="0">
									<clipitem id="clipitem-900">
										<masterclipid>masterclip-221</masterclipid>
										<name>Intro</name>
										<enabled>TRUE</enabled>
										<duration>160</duration>
										<rate>
											<timebase>30</timebase>
											<ntsc>TRUE</ntsc>
										</rate>
										<start>0</start>
										<end>115</end>
										<in>0</in>
										<out>115</out>
										<pproTicksIn>0</pproTicksIn>
										<pproTicksOut>974701728000</pproTicksOut>
										<sequence id="sequence-28"/>
											<marker>
												<comment></comment>
												<name></name>
												<in>82</in>
												<out>-1</out>
											</marker>
										<link>
											<linkclipref>clipitem-900</linkclipref>
											<mediatype>video</mediatype>
											<trackindex>4</trackindex>
											<clipindex>1</clipindex>
										</link>
										<link>
											<linkclipref>clipitem-907</linkclipref>
											<mediatype>audio</mediatype>
											<trackindex>3</trackindex>
											<clipindex>1</clipindex>
											<groupindex>1</groupindex>
										</link>
										<link>
											<linkclipref>clipitem-910</linkclipref>
											<mediatype>audio</mediatype>
											<trackindex>4</trackindex>
											<clipindex>1</clipindex>
											<groupindex>1</groupindex>
										</link>
										<labels>
											<label2>Forest</label2>
										</labels>
									</clipitem>
									<clipitem id="clipitem-901">
										<masterclipid>masterclip-222</masterclipid>
										<name>Transition 1</name>
										<enabled>TRUE</enabled>
										<duration>160</duration>
										<rate>
											<timebase>30</timebase>
											<ntsc>TRUE</ntsc>
										</rate>
										<start>2639</start>
										<end>2757</end>
										<in>0</in>
										<out>118</out>
										<pproTicksIn>0</pproTicksIn>
										<pproTicksOut>1000128729600</pproTicksOut>
										<sequence id="sequence-30"/>
											<marker>
												<comment></comment>
												<name></name>
												<in>57</in>
												<out>-1</out>
											</marker>
										<link>
											<linkclipref>clipitem-901</linkclipref>
											<mediatype>video</mediatype>
											<trackindex>4</trackindex>
											<clipindex>2</clipindex>
										</link>
										<link>
											<linkclipref>clipitem-908</linkclipref>
											<mediatype>audio</mediatype>
											<trackindex>3</trackindex>
											<clipindex>2</clipindex>
											<groupindex>1</groupindex>
										</link>
										<link>
											<linkclipref>clipitem-911</linkclipref>
											<mediatype>audio</mediatype>
											<trackindex>4</trackindex>
											<clipindex>2</clipindex>
											<groupindex>1</groupindex>
										</link>
										<labels>
											<label2>Forest</label2>
										</labels>
									</clipitem>
									<clipitem id="clipitem-902">
										<masterclipid>masterclip-223</masterclipid>
										<name>Outro</name>
										<enabled>TRUE</enabled>
										<duration>160</duration>
										<rate>
											<timebase>30</timebase>
											<ntsc>TRUE</ntsc>
										</rate>
										<start>5218</start>
										<end>5355</end>
										<in>0</in>
										<out>137</out>
										<pproTicksIn>0</pproTicksIn>
										<pproTicksOut>1161166406400</pproTicksOut>
										<sequence id="sequence-29"/>
											<marker>
												<comment></comment>
												<name></name>
												<in>43</in>
												<out>-1</out>
											</marker>
										<link>
											<linkclipref>clipitem-902</linkclipref>
											<mediatype>video</mediatype>
											<trackindex>4</trackindex>
											<clipindex>3</clipindex>
										</link>
										<link>
											<linkclipref>clipitem-909</linkclipref>
											<mediatype>audio</mediatype>
											<trackindex>3</trackindex>
											<clipindex>3</clipindex>
											<groupindex>1</groupindex>
										</link>
										<link>
											<linkclipref>clipitem-912</linkclipref>
											<mediatype>audio</mediatype>
											<trackindex>4</trackindex>
											<clipindex>3</clipindex>
											<groupindex>1</groupindex>
										</link>
										<labels>
											<label2>Forest</label2>
										</labels>
									</clipitem>
									<enabled>TRUE</enabled>
									<locked>FALSE</locked>
								</track>
							</video>
							<audio>
								<numOutputChannels>2</numOutputChannels>
								<format>
									<samplecharacteristics>
										<depth>16</depth>
										<samplerate>48000</samplerate>
									</samplecharacteristics>
								</format>
								<outputs>
									<group>
										<index>1</index>
										<numchannels>1</numchannels>
										<downmix>0</downmix>
										<channel>
											<index>1</index>
										</channel>
									</group>
									<group>
										<index>2</index>
										<numchannels>1</numchannels>
										<downmix>0</downmix>
										<channel>
											<index>2</index>
										</channel>
									</group>
								</outputs>
								<track TL.SQTrackAudioKeyframeStyle="0" TL.SQTrackShy="0" TL.SQTrackExpandedHeight="25" TL.SQTrackExpanded="0" MZ.TrackTargeted="1" PannerCurrentValue="0.5" PannerIsInverted="true" PannerStartKeyframe="-91445760000000000,0.5,0,0,0,0,0,0" PannerName="Balance" currentExplodedTrackIndex="0" totalExplodedTrackCount="2" premiereTrackType="Stereo">
									<clipitem id="clipitem-903" premiereChannelType="stereo">
										<masterclipid>masterclip-237</masterclipid>
										<name>Mint Chocolate Chip Bliss_1.5</name>
										<enabled>TRUE</enabled>
										<duration>5700</duration>
										<rate>
											<timebase>30</timebase>
											<ntsc>TRUE</ntsc>
										</rate>
										<start>82</start>
										<end>-1</end>
										<in>0</in>
										<out>2614</out>
										<pproTicksIn>0</pproTicksIn>
										<pproTicksOut>22155394060800</pproTicksOut>
										<sequence id="sequence-15"/>
										<sourcetrack>
											<mediatype>audio</mediatype>
											<trackindex>0</trackindex>
										</sourcetrack>
										<link>
											<linkclipref>clipitem-895</linkclipref>
											<mediatype>video</mediatype>
											<trackindex>1</trackindex>
											<clipindex>1</clipindex>
										</link>
										<link>
											<linkclipref>clipitem-903</linkclipref>
											<mediatype>audio</mediatype>
											<trackindex>1</trackindex>
											<clipindex>1</clipindex>
											<groupindex>1</groupindex>
										</link>
										<link>
											<linkclipref>clipitem-905</linkclipref>
											<mediatype>audio</mediatype>
											<trackindex>2</trackindex>
											<clipindex>1</clipindex>
											<groupindex>1</groupindex>
										</link>
										<labels>
											<label2>Forest</label2>
										</labels>
									</clipitem>
									<transitionitem>
										<start>2666</start>
										<end>2696</end>
										<pproTicksIn>22596128755200</pproTicksIn>
										<pproTicksOut>22850398771200</pproTicksOut>
										<alignment>end-black</alignment>
										<cutPointTicks>254270016000</cutPointTicks>
										<rate>
											<timebase>30</timebase>
											<ntsc>TRUE</ntsc>
										</rate>
										<effect>
											<name>Cross Fade (+3dB)</name>
											<effectid>KGAudioTransCrossFade3dB</effectid>
											<effecttype>transition</effecttype>
											<mediatype>audio</mediatype>
											<wipecode>0</wipecode>
											<wipeaccuracy>100</wipeaccuracy>
											<startratio>0</startratio>
											<endratio>1</endratio>
											<reverse>FALSE</reverse>
										</effect>
									</transitionitem>
									<clipitem id="clipitem-904" premiereChannelType="stereo">
										<masterclipid>masterclip-238</masterclipid>
										<name>Cookie Cups of Fun_1.5</name>
										<enabled>TRUE</enabled>
										<duration>2583</duration>
										<rate>
											<timebase>30</timebase>
											<ntsc>TRUE</ntsc>
										</rate>
										<start>2696</start>
										<end>-1</end>
										<in>0</in>
										<out>2565</out>
										<pproTicksIn>0</pproTicksIn>
										<pproTicksOut>21740086368000</pproTicksOut>
										<sequence id="sequence-20"/>
										<sourcetrack>
											<mediatype>audio</mediatype>
											<trackindex>0</trackindex>
										</sourcetrack>
										<link>
											<linkclipref>clipitem-896</linkclipref>
											<mediatype>video</mediatype>
											<trackindex>1</trackindex>
											<clipindex>2</clipindex>
										</link>
										<link>
											<linkclipref>clipitem-904</linkclipref>
											<mediatype>audio</mediatype>
											<trackindex>1</trackindex>
											<clipindex>3</clipindex>
											<groupindex>1</groupindex>
										</link>
										<link>
											<linkclipref>clipitem-906</linkclipref>
											<mediatype>audio</mediatype>
											<trackindex>2</trackindex>
											<clipindex>3</clipindex>
											<groupindex>1</groupindex>
										</link>
										<labels>
											<label2>Forest</label2>
										</labels>
									</clipitem>
									<transitionitem>
										<start>5231</start>
										<end>5261</end>
										<pproTicksIn>44336215123200</pproTicksIn>
										<pproTicksOut>44590485139200</pproTicksOut>
										<alignment>end-black</alignment>
										<cutPointTicks>254270016000</cutPointTicks>
										<rate>
											<timebase>30</timebase>
											<ntsc>TRUE</ntsc>
										</rate>
										<effect>
											<name>Cross Fade (+3dB)</name>
											<effectid>KGAudioTransCrossFade3dB</effectid>
											<effecttype>transition</effecttype>
											<mediatype>audio</mediatype>
											<wipecode>0</wipecode>
											<wipeaccuracy>100</wipeaccuracy>
											<startratio>0</startratio>
											<endratio>1</endratio>
											<reverse>FALSE</reverse>
										</effect>
									</transitionitem>
									<enabled>TRUE</enabled>
									<locked>FALSE</locked>
									<outputchannelindex>1</outputchannelindex>
								</track>
								<track TL.SQTrackAudioKeyframeStyle="0" TL.SQTrackShy="0" TL.SQTrackExpandedHeight="25" TL.SQTrackExpanded="0" MZ.TrackTargeted="1" PannerCurrentValue="0.5" PannerIsInverted="true" PannerStartKeyframe="-91445760000000000,0.5,0,0,0,0,0,0" PannerName="Balance" currentExplodedTrackIndex="1" totalExplodedTrackCount="2" premiereTrackType="Stereo">
									<clipitem id="clipitem-905" premiereChannelType="stereo">
										<masterclipid>masterclip-237</masterclipid>
										<name>Mint Chocolate Chip Bliss_1.5</name>
										<enabled>TRUE</enabled>
										<duration>5700</duration>
										<rate>
											<timebase>30</timebase>
											<ntsc>TRUE</ntsc>
										</rate>
										<start>82</start>
										<end>-1</end>
										<in>0</in>
										<out>2614</out>
										<pproTicksIn>0</pproTicksIn>
										<pproTicksOut>22155394060800</pproTicksOut>
										<sequence id="sequence-15"/>
										<sourcetrack>
											<mediatype>audio</mediatype>
											<trackindex>1</trackindex>
										</sourcetrack>
										<link>
											<linkclipref>clipitem-895</linkclipref>
											<mediatype>video</mediatype>
											<trackindex>1</trackindex>
											<clipindex>1</clipindex>
										</link>
										<link>
											<linkclipref>clipitem-903</linkclipref>
											<mediatype>audio</mediatype>
											<trackindex>1</trackindex>
											<clipindex>1</clipindex>
											<groupindex>1</groupindex>
										</link>
										<link>
											<linkclipref>clipitem-905</linkclipref>
											<mediatype>audio</mediatype>
											<trackindex>2</trackindex>
											<clipindex>1</clipindex>
											<groupindex>1</groupindex>
										</link>
										<labels>
											<label2>Forest</label2>
										</labels>
									</clipitem>
									<transitionitem>
										<start>2666</start>
										<end>2696</end>
										<pproTicksIn>22596128755200</pproTicksIn>
										<pproTicksOut>22850398771200</pproTicksOut>
										<alignment>end-black</alignment>
										<cutPointTicks>254270016000</cutPointTicks>
										<rate>
											<timebase>30</timebase>
											<ntsc>TRUE</ntsc>
										</rate>
										<effect>
											<name>Cross Fade (+3dB)</name>
											<effectid>KGAudioTransCrossFade3dB</effectid>
											<effecttype>transition</effecttype>
											<mediatype>audio</mediatype>
											<wipecode>0</wipecode>
											<wipeaccuracy>100</wipeaccuracy>
											<startratio>0</startratio>
											<endratio>1</endratio>
											<reverse>FALSE</reverse>
										</effect>
									</transitionitem>
									<clipitem id="clipitem-906" premiereChannelType="stereo">
										<masterclipid>masterclip-238</masterclipid>
										<name>Cookie Cups of Fun_1.5</name>
										<enabled>TRUE</enabled>
										<duration>2583</duration>
										<rate>
											<timebase>30</timebase>
											<ntsc>TRUE</ntsc>
										</rate>
										<start>2696</start>
										<end>-1</end>
										<in>0</in>
										<out>2565</out>
										<pproTicksIn>0</pproTicksIn>
										<pproTicksOut>21740086368000</pproTicksOut>
										<sequence id="sequence-20"/>
										<sourcetrack>
											<mediatype>audio</mediatype>
											<trackindex>1</trackindex>
										</sourcetrack>
										<link>
											<linkclipref>clipitem-896</linkclipref>
											<mediatype>video</mediatype>
											<trackindex>1</trackindex>
											<clipindex>2</clipindex>
										</link>
										<link>
											<linkclipref>clipitem-904</linkclipref>
											<mediatype>audio</mediatype>
											<trackindex>1</trackindex>
											<clipindex>3</clipindex>
											<groupindex>1</groupindex>
										</link>
										<link>
											<linkclipref>clipitem-906</linkclipref>
											<mediatype>audio</mediatype>
											<trackindex>2</trackindex>
											<clipindex>3</clipindex>
											<groupindex>1</groupindex>
										</link>
										<labels>
											<label2>Forest</label2>
										</labels>
									</clipitem>
									<transitionitem>
										<start>5231</start>
										<end>5261</end>
										<pproTicksIn>44336215123200</pproTicksIn>
										<pproTicksOut>44590485139200</pproTicksOut>
										<alignment>end-black</alignment>
										<cutPointTicks>254270016000</cutPointTicks>
										<rate>
											<timebase>30</timebase>
											<ntsc>TRUE</ntsc>
										</rate>
										<effect>
											<name>Cross Fade (+3dB)</name>
											<effectid>KGAudioTransCrossFade3dB</effectid>
											<effecttype>transition</effecttype>
											<mediatype>audio</mediatype>
											<wipecode>0</wipecode>
											<wipeaccuracy>100</wipeaccuracy>
											<startratio>0</startratio>
											<endratio>1</endratio>
											<reverse>FALSE</reverse>
										</effect>
									</transitionitem>
									<enabled>TRUE</enabled>
									<locked>FALSE</locked>
									<outputchannelindex>2</outputchannelindex>
								</track>
								<track TL.SQTrackAudioKeyframeStyle="0" TL.SQTrackShy="0" TL.SQTrackExpandedHeight="25" TL.SQTrackExpanded="0" MZ.TrackTargeted="1" PannerCurrentValue="0.5" PannerIsInverted="true" PannerStartKeyframe="-91445760000000000,0.5,0,0,0,0,0,0" PannerName="Balance" currentExplodedTrackIndex="0" totalExplodedTrackCount="2" premiereTrackType="Stereo">
									<clipitem id="clipitem-907" premiereChannelType="stereo">
										<masterclipid>masterclip-221</masterclipid>
										<name>Intro</name>
										<enabled>TRUE</enabled>
										<duration>160</duration>
										<rate>
											<timebase>30</timebase>
											<ntsc>TRUE</ntsc>
										</rate>
										<start>0</start>
										<end>115</end>
										<in>0</in>
										<out>115</out>
										<pproTicksIn>0</pproTicksIn>
										<pproTicksOut>974701728000</pproTicksOut>
										<sequence id="sequence-28"/>
										<sourcetrack>
											<mediatype>audio</mediatype>
											<trackindex>0</trackindex>
										</sourcetrack>
											<marker>
												<comment></comment>
												<name></name>
												<in>82</in>
												<out>-1</out>
											</marker>
										<link>
											<linkclipref>clipitem-900</linkclipref>
											<mediatype>video</mediatype>
											<trackindex>4</trackindex>
											<clipindex>1</clipindex>
										</link>
										<link>
											<linkclipref>clipitem-907</linkclipref>
											<mediatype>audio</mediatype>
											<trackindex>3</trackindex>
											<clipindex>1</clipindex>
											<groupindex>1</groupindex>
										</link>
										<link>
											<linkclipref>clipitem-910</linkclipref>
											<mediatype>audio</mediatype>
											<trackindex>4</trackindex>
											<clipindex>1</clipindex>
											<groupindex>1</groupindex>
										</link>
										<labels>
											<label2>Forest</label2>
										</labels>
									</clipitem>
									<clipitem id="clipitem-908" premiereChannelType="stereo">
										<masterclipid>masterclip-222</masterclipid>
										<name>Transition 1</name>
										<enabled>TRUE</enabled>
										<duration>160</duration>
										<rate>
											<timebase>30</timebase>
											<ntsc>TRUE</ntsc>
										</rate>
										<start>2639</start>
										<end>2757</end>
										<in>0</in>
										<out>118</out>
										<pproTicksIn>0</pproTicksIn>
										<pproTicksOut>1000128729600</pproTicksOut>
										<sequence id="sequence-30"/>
										<sourcetrack>
											<mediatype>audio</mediatype>
											<trackindex>0</trackindex>
										</sourcetrack>
											<marker>
												<comment></comment>
												<name></name>
												<in>57</in>
												<out>-1</out>
											</marker>
										<link>
											<linkclipref>clipitem-901</linkclipref>
											<mediatype>video</mediatype>
											<trackindex>4</trackindex>
											<clipindex>2</clipindex>
										</link>
										<link>
											<linkclipref>clipitem-908</linkclipref>
											<mediatype>audio</mediatype>
											<trackindex>3</trackindex>
											<clipindex>2</clipindex>
											<groupindex>1</groupindex>
										</link>
										<link>
											<linkclipref>clipitem-911</linkclipref>
											<mediatype>audio</mediatype>
											<trackindex>4</trackindex>
											<clipindex>2</clipindex>
											<groupindex>1</groupindex>
										</link>
										<labels>
											<label2>Forest</label2>
										</labels>
									</clipitem>
									<clipitem id="clipitem-909" premiereChannelType="stereo">
										<masterclipid>masterclip-223</masterclipid>
										<name>Outro</name>
										<enabled>TRUE</enabled>
										<duration>160</duration>
										<rate>
											<timebase>30</timebase>
											<ntsc>TRUE</ntsc>
										</rate>
										<start>5218</start>
										<end>5355</end>
										<in>0</in>
										<out>137</out>
										<pproTicksIn>0</pproTicksIn>
										<pproTicksOut>1161166406400</pproTicksOut>
										<sequence id="sequence-29"/>
										<sourcetrack>
											<mediatype>audio</mediatype>
											<trackindex>0</trackindex>
										</sourcetrack>
											<marker>
												<comment></comment>
												<name></name>
												<in>43</in>
												<out>-1</out>
											</marker>
										<link>
											<linkclipref>clipitem-902</linkclipref>
											<mediatype>video</mediatype>
											<trackindex>4</trackindex>
											<clipindex>3</clipindex>
										</link>
										<link>
											<linkclipref>clipitem-909</linkclipref>
											<mediatype>audio</mediatype>
											<trackindex>3</trackindex>
											<clipindex>3</clipindex>
											<groupindex>1</groupindex>
										</link>
										<link>
											<linkclipref>clipitem-912</linkclipref>
											<mediatype>audio</mediatype>
											<trackindex>4</trackindex>
											<clipindex>3</clipindex>
											<groupindex>1</groupindex>
										</link>
										<labels>
											<label2>Forest</label2>
										</labels>
									</clipitem>
									<enabled>TRUE</enabled>
									<locked>FALSE</locked>
									<outputchannelindex>1</outputchannelindex>
								</track>
								<track TL.SQTrackAudioKeyframeStyle="0" TL.SQTrackShy="0" TL.SQTrackExpandedHeight="25" TL.SQTrackExpanded="0" MZ.TrackTargeted="1" PannerCurrentValue="0.5" PannerIsInverted="true" PannerStartKeyframe="-91445760000000000,0.5,0,0,0,0,0,0" PannerName="Balance" currentExplodedTrackIndex="1" totalExplodedTrackCount="2" premiereTrackType="Stereo">
									<clipitem id="clipitem-910" premiereChannelType="stereo">
										<masterclipid>masterclip-221</masterclipid>
										<name>Intro</name>
										<enabled>TRUE</enabled>
										<duration>160</duration>
										<rate>
											<timebase>30</timebase>
											<ntsc>TRUE</ntsc>
										</rate>
										<start>0</start>
										<end>115</end>
										<in>0</in>
										<out>115</out>
										<pproTicksIn>0</pproTicksIn>
										<pproTicksOut>974701728000</pproTicksOut>
										<sequence id="sequence-28"/>
										<sourcetrack>
											<mediatype>audio</mediatype>
											<trackindex>1</trackindex>
										</sourcetrack>
											<marker>
												<comment></comment>
												<name></name>
												<in>82</in>
												<out>-1</out>
											</marker>
										<link>
											<linkclipref>clipitem-900</linkclipref>
											<mediatype>video</mediatype>
											<trackindex>4</trackindex>
											<clipindex>1</clipindex>
										</link>
										<link>
											<linkclipref>clipitem-907</linkclipref>
											<mediatype>audio</mediatype>
											<trackindex>3</trackindex>
											<clipindex>1</clipindex>
											<groupindex>1</groupindex>
										</link>
										<link>
											<linkclipref>clipitem-910</linkclipref>
											<mediatype>audio</mediatype>
											<trackindex>4</trackindex>
											<clipindex>1</clipindex>
											<groupindex>1</groupindex>
										</link>
										<labels>
											<label2>Forest</label2>
										</labels>
									</clipitem>
									<clipitem id="clipitem-911" premiereChannelType="stereo">
										<masterclipid>masterclip-222</masterclipid>
										<name>Transition 1</name>
										<enabled>TRUE</enabled>
										<duration>160</duration>
										<rate>
											<timebase>30</timebase>
											<ntsc>TRUE</ntsc>
										</rate>
										<start>2639</start>
										<end>2757</end>
										<in>0</in>
										<out>118</out>
										<pproTicksIn>0</pproTicksIn>
										<pproTicksOut>1000128729600</pproTicksOut>
										<sequence id="sequence-30"/>
										<sourcetrack>
											<mediatype>audio</mediatype>
											<trackindex>1</trackindex>
										</sourcetrack>
											<marker>
												<comment></comment>
												<name></name>
												<in>57</in>
												<out>-1</out>
											</marker>
										<link>
											<linkclipref>clipitem-901</linkclipref>
											<mediatype>video</mediatype>
											<trackindex>4</trackindex>
											<clipindex>2</clipindex>
										</link>
										<link>
											<linkclipref>clipitem-908</linkclipref>
											<mediatype>audio</mediatype>
											<trackindex>3</trackindex>
											<clipindex>2</clipindex>
											<groupindex>1</groupindex>
										</link>
										<link>
											<linkclipref>clipitem-911</linkclipref>
											<mediatype>audio</mediatype>
											<trackindex>4</trackindex>
											<clipindex>2</clipindex>
											<groupindex>1</groupindex>
										</link>
										<labels>
											<label2>Forest</label2>
										</labels>
									</clipitem>
									<clipitem id="clipitem-912" premiereChannelType="stereo">
										<masterclipid>masterclip-223</masterclipid>
										<name>Outro</name>
										<enabled>TRUE</enabled>
										<duration>160</duration>
										<rate>
											<timebase>30</timebase>
											<ntsc>TRUE</ntsc>
										</rate>
										<start>5218</start>
										<end>5355</end>
										<in>0</in>
										<out>137</out>
										<pproTicksIn>0</pproTicksIn>
										<pproTicksOut>1161166406400</pproTicksOut>
										<sequence id="sequence-29"/>
										<sourcetrack>
											<mediatype>audio</mediatype>
											<trackindex>1</trackindex>
										</sourcetrack>
											<marker>
												<comment></comment>
												<name></name>
												<in>43</in>
												<out>-1</out>
											</marker>
										<link>
											<linkclipref>clipitem-902</linkclipref>
											<mediatype>video</mediatype>
											<trackindex>4</trackindex>
											<clipindex>3</clipindex>
										</link>
										<link>
											<linkclipref>clipitem-909</linkclipref>
											<mediatype>audio</mediatype>
											<trackindex>3</trackindex>
											<clipindex>3</clipindex>
											<groupindex>1</groupindex>
										</link>
										<link>
											<linkclipref>clipitem-912</linkclipref>
											<mediatype>audio</mediatype>
											<trackindex>4</trackindex>
											<clipindex>3</clipindex>
											<groupindex>1</groupindex>
										</link>
										<labels>
											<label2>Forest</label2>
										</labels>
									</clipitem>
									<enabled>TRUE</enabled>
									<locked>FALSE</locked>
									<outputchannelindex>2</outputchannelindex>
								</track>
								<track TL.SQTrackAudioKeyframeStyle="0" TL.SQTrackShy="0" TL.SQTrackExpandedHeight="25" TL.SQTrackExpanded="0" MZ.TrackTargeted="1" PannerCurrentValue="0.5" PannerIsInverted="true" PannerStartKeyframe="-91445760000000000,0.5,0,0,0,0,0,0" PannerName="Balance" currentExplodedTrackIndex="0" totalExplodedTrackCount="2" premiereTrackType="Stereo">
									<enabled>TRUE</enabled>
									<locked>FALSE</locked>
									<outputchannelindex>1</outputchannelindex>
								</track>
								<track TL.SQTrackAudioKeyframeStyle="0" TL.SQTrackShy="0" TL.SQTrackExpandedHeight="25" TL.SQTrackExpanded="0" MZ.TrackTargeted="1" PannerCurrentValue="0.5" PannerIsInverted="true" PannerStartKeyframe="-91445760000000000,0.5,0,0,0,0,0,0" PannerName="Balance" currentExplodedTrackIndex="1" totalExplodedTrackCount="2" premiereTrackType="Stereo">
									<enabled>TRUE</enabled>
									<locked>FALSE</locked>
									<outputchannelindex>2</outputchannelindex>
								</track>
							</audio>
						</media>
						<timecode>
							<rate>
								<timebase>30</timebase>
								<ntsc>TRUE</ntsc>
							</rate>
							<string>00;00;00;00</string>
							<frame>0</frame>
							<displayformat>DF</displayformat>
						</timecode>
						<labels>
							<label2>Forest</label2>
						</labels>
						<logginginfo>
							<description></description>
							<scene></scene>
							<shottake></shottake>
							<lognote></lognote>
							<good></good>
							<originalvideofilename></originalvideofilename>
							<originalaudiofilename></originalaudiofilename>
						</logginginfo>
					</sequence>
					<sequence id="sequence-39" TL.SQAudioVisibleBase="0" TL.SQVideoVisibleBase="0" TL.SQVisibleBaseTime="0" TL.SQAVDividerPosition="0.5" TL.SQHideShyTracks="0" TL.SQHeaderWidth="236" TL.SQDataTrackViewControlState="0" Monitor.ProgramZoomOut="43378464729600" Monitor.ProgramZoomIn="0" TL.SQTimePerPixel="0.17101151239907314" AM.TrackVScrollPosition="0" AM.TrackScrollPosition="0" MZ.EditLine="5475281011200" MZ.Sequence.PreviewFrameSizeHeight="1080" MZ.Sequence.PreviewFrameSizeWidth="1920" MZ.Sequence.AudioTimeDisplayFormat="200" MZ.Sequence.PreviewRenderingClassID="1061109567" MZ.Sequence.PreviewRenderingPresetCodec="1634755443" MZ.Sequence.PreviewRenderingPresetPath="EncoderPresets/SequencePreview/35d109db-457b-43c1-9452-9cb7be9f121c/QuickTime.epr" MZ.Sequence.PreviewUseMaxRenderQuality="false" MZ.Sequence.PreviewUseMaxBitDepth="false" MZ.Sequence.EditingModeGUID="35d109db-457b-43c1-9452-9cb7be9f121c" MZ.Sequence.VideoTimeDisplayFormat="102" MZ.WorkOutPoint="15239249625600" MZ.WorkInPoint="0" explodedTracks="true">
						<uuid>102d7b58-3c49-48a2-ac99-eb05f9521c62</uuid>
						<duration>5024</duration>
						<rate>
							<timebase>30</timebase>
							<ntsc>TRUE</ntsc>
						</rate>
						<name>ATM_EYECANDY_253</name>
						<media>
							<video>
								<format>
									<samplecharacteristics>
										<rate>
											<timebase>30</timebase>
											<ntsc>TRUE</ntsc>
										</rate>
										<codec>
											<name>Apple ProRes 422</name>
											<appspecificdata>
												<appname>Final Cut Pro</appname>
												<appmanufacturer>Apple Inc.</appmanufacturer>
												<appversion>7.0</appversion>
												<data>
													<qtcodec>
														<codecname>Apple ProRes 422</codecname>
														<codectypename>Apple ProRes 422</codectypename>
														<codectypecode>apcn</codectypecode>
														<codecvendorcode>appl</codecvendorcode>
														<spatialquality>1024</spatialquality>
														<temporalquality>0</temporalquality>
														<keyframerate>0</keyframerate>
														<datarate>0</datarate>
													</qtcodec>
												</data>
											</appspecificdata>
										</codec>
										<width>1920</width>
										<height>1080</height>
										<anamorphic>FALSE</anamorphic>
										<pixelaspectratio>square</pixelaspectratio>
										<fielddominance>none</fielddominance>
										<colordepth>24</colordepth>
									</samplecharacteristics>
								</format>
								<track TL.SQTrackShy="0" TL.SQTrackExpandedHeight="25" TL.SQTrackExpanded="0" MZ.TrackTargeted="1">
									<clipitem id="clipitem-913">
										<masterclipid>masterclip-239</masterclipid>
										<name>I'm Flipping Out_2</name>
										<enabled>TRUE</enabled>
										<duration>4431</duration>
										<rate>
											<timebase>30</timebase>
											<ntsc>TRUE</ntsc>
										</rate>
										<start>82</start>
										<end>3161</end>
										<in>0</in>
										<out>3079</out>
										<pproTicksIn>0</pproTicksIn>
										<pproTicksOut>26096579308800</pproTicksOut>
										<sequence id="sequence-13"/>
										<link>
											<linkclipref>clipitem-913</linkclipref>
											<mediatype>video</mediatype>
											<trackindex>1</trackindex>
											<clipindex>1</clipindex>
										</link>
										<link>
											<linkclipref>clipitem-921</linkclipref>
											<mediatype>audio</mediatype>
											<trackindex>1</trackindex>
											<clipindex>1</clipindex>
											<groupindex>1</groupindex>
										</link>
										<link>
											<linkclipref>clipitem-923</linkclipref>
											<mediatype>audio</mediatype>
											<trackindex>2</trackindex>
											<clipindex>1</clipindex>
											<groupindex>1</groupindex>
										</link>
										<labels>
											<label2>Forest</label2>
										</labels>
									</clipitem>
									<clipitem id="clipitem-914">
										<masterclipid>masterclip-240</masterclipid>
										<name>"Blood Orange"? It's Red._1</name>
										<enabled>TRUE</enabled>
										<duration>5700</duration>
										<rate>
											<timebase>30</timebase>
											<ntsc>TRUE</ntsc>
										</rate>
										<start>3195</start>
										<end>5024</end>
										<in>0</in>
										<out>1829</out>
										<pproTicksIn>0</pproTicksIn>
										<pproTicksOut>15501995308800</pproTicksOut>
										<sequence id="sequence-22"/>
										<link>
											<linkclipref>clipitem-914</linkclipref>
											<mediatype>video</mediatype>
											<trackindex>1</trackindex>
											<clipindex>2</clipindex>
										</link>
										<link>
											<linkclipref>clipitem-922</linkclipref>
											<mediatype>audio</mediatype>
											<trackindex>1</trackindex>
											<clipindex>2</clipindex>
											<groupindex>1</groupindex>
										</link>
										<link>
											<linkclipref>clipitem-924</linkclipref>
											<mediatype>audio</mediatype>
											<trackindex>2</trackindex>
											<clipindex>2</clipindex>
											<groupindex>1</groupindex>
										</link>
										<labels>
											<label2>Forest</label2>
										</labels>
									</clipitem>
									<enabled>TRUE</enabled>
									<locked>FALSE</locked>
								</track>
								<track TL.SQTrackShy="0" TL.SQTrackExpandedHeight="25" TL.SQTrackExpanded="0" MZ.TrackTargeted="0">
									<clipitem id="clipitem-915">
										<masterclipid>masterclip-209</masterclipid>
										<name>ATM BUG_1080_Top Right.png</name>
										<enabled>TRUE</enabled>
										<duration>1294705</duration>
										<rate>
											<timebase>30</timebase>
											<ntsc>TRUE</ntsc>
										</rate>
										<start>82</start>
										<end>5024</end>
										<in>107892</in>
										<out>112834</out>
										<pproTicksIn>914456685542400</pproTicksIn>
										<pproTicksOut>956343432844800</pproTicksOut>
										<alphatype>straight</alphatype>
										<file id="file-206"/>
										<logginginfo>
											<description></description>
											<scene></scene>
											<shottake></shottake>
											<lognote></lognote>
											<good></good>
											<originalvideofilename></originalvideofilename>
											<originalaudiofilename></originalaudiofilename>
										</logginginfo>
										<colorinfo>
											<lut></lut>
											<lut1></lut1>
											<asc_sop></asc_sop>
											<asc_sat></asc_sat>
											<lut2></lut2>
										</colorinfo>
										<labels>
										</labels>
									</clipitem>
									<enabled>TRUE</enabled>
									<locked>FALSE</locked>
								</track>
								<track TL.SQTrackShy="0" TL.SQTrackExpandedHeight="25" TL.SQTrackExpanded="0" MZ.TrackTargeted="0">
									<clipitem id="clipitem-916">
										<masterclipid>masterclip-162</masterclipid>
										<name>I'm Flipping Out</name>
										<enabled>TRUE</enabled>
										<duration>6293</duration>
										<rate>
											<timebase>30</timebase>
											<ntsc>TRUE</ntsc>
										</rate>
										<start>115</start>
										<end>3161</end>
										<in>0</in>
										<out>3046</out>
										<pproTicksIn>0</pproTicksIn>
										<pproTicksOut>25816882291200</pproTicksOut>
										<alphatype>straight</alphatype>
										<file id="file-162"/>
										<logginginfo>
											<description></description>
											<scene></scene>
											<shottake></shottake>
											<lognote></lognote>
											<good></good>
											<originalvideofilename></originalvideofilename>
											<originalaudiofilename></originalaudiofilename>
										</logginginfo>
										<colorinfo>
											<lut></lut>
											<lut1></lut1>
											<asc_sop></asc_sop>
											<asc_sat></asc_sat>
											<lut2></lut2>
										</colorinfo>
									</clipitem>
									<clipitem id="clipitem-917">
										<masterclipid>masterclip-163</masterclipid>
										<name>"Blood Orange"? It's Red.</name>
										<enabled>TRUE</enabled>
										<duration>6293</duration>
										<rate>
											<timebase>30</timebase>
											<ntsc>TRUE</ntsc>
										</rate>
										<start>3260</start>
										<end>5024</end>
										<in>0</in>
										<out>1764</out>
										<pproTicksIn>0</pproTicksIn>
										<pproTicksOut>14951076940800</pproTicksOut>
										<alphatype>straight</alphatype>
										<file id="file-163"/>
										<logginginfo>
											<description></description>
											<scene></scene>
											<shottake></shottake>
											<lognote></lognote>
											<good></good>
											<originalvideofilename></originalvideofilename>
											<originalaudiofilename></originalaudiofilename>
										</logginginfo>
										<colorinfo>
											<lut></lut>
											<lut1></lut1>
											<asc_sop></asc_sop>
											<asc_sat></asc_sat>
											<lut2></lut2>
										</colorinfo>
									</clipitem>
									<enabled>TRUE</enabled>
									<locked>FALSE</locked>
								</track>
								<track TL.SQTrackShy="0" TL.SQTrackExpandedHeight="25" TL.SQTrackExpanded="0" MZ.TrackTargeted="0">
									<clipitem id="clipitem-918">
										<masterclipid>masterclip-221</masterclipid>
										<name>Intro</name>
										<enabled>TRUE</enabled>
										<duration>160</duration>
										<rate>
											<timebase>30</timebase>
											<ntsc>TRUE</ntsc>
										</rate>
										<start>0</start>
										<end>115</end>
										<in>0</in>
										<out>115</out>
										<pproTicksIn>0</pproTicksIn>
										<pproTicksOut>974701728000</pproTicksOut>
										<sequence id="sequence-28"/>
											<marker>
												<comment></comment>
												<name></name>
												<in>82</in>
												<out>-1</out>
											</marker>
										<link>
											<linkclipref>clipitem-918</linkclipref>
											<mediatype>video</mediatype>
											<trackindex>4</trackindex>
											<clipindex>1</clipindex>
										</link>
										<link>
											<linkclipref>clipitem-925</linkclipref>
											<mediatype>audio</mediatype>
											<trackindex>3</trackindex>
											<clipindex>1</clipindex>
											<groupindex>1</groupindex>
										</link>
										<link>
											<linkclipref>clipitem-928</linkclipref>
											<mediatype>audio</mediatype>
											<trackindex>4</trackindex>
											<clipindex>1</clipindex>
											<groupindex>1</groupindex>
										</link>
										<labels>
											<label2>Forest</label2>
										</labels>
									</clipitem>
									<clipitem id="clipitem-919">
										<masterclipid>masterclip-227</masterclipid>
										<name>Transition 2</name>
										<enabled>TRUE</enabled>
										<duration>160</duration>
										<rate>
											<timebase>30</timebase>
											<ntsc>TRUE</ntsc>
										</rate>
										<start>3141</start>
										<end>3260</end>
										<in>0</in>
										<out>119</out>
										<pproTicksIn>0</pproTicksIn>
										<pproTicksOut>1008604396800</pproTicksOut>
										<sequence id="sequence-31"/>
											<marker>
												<comment></comment>
												<name></name>
												<in>20</in>
												<out>-1</out>
											</marker>
											<marker>
												<comment></comment>
												<name></name>
												<in>54</in>
												<out>-1</out>
											</marker>
										<link>
											<linkclipref>clipitem-919</linkclipref>
											<mediatype>video</mediatype>
											<trackindex>4</trackindex>
											<clipindex>2</clipindex>
										</link>
										<link>
											<linkclipref>clipitem-926</linkclipref>
											<mediatype>audio</mediatype>
											<trackindex>3</trackindex>
											<clipindex>2</clipindex>
											<groupindex>1</groupindex>
										</link>
										<link>
											<linkclipref>clipitem-929</linkclipref>
											<mediatype>audio</mediatype>
											<trackindex>4</trackindex>
											<clipindex>2</clipindex>
											<groupindex>1</groupindex>
										</link>
										<labels>
											<label2>Forest</label2>
										</labels>
									</clipitem>
									<clipitem id="clipitem-920">
										<masterclipid>masterclip-223</masterclipid>
										<name>Outro</name>
										<enabled>TRUE</enabled>
										<duration>160</duration>
										<rate>
											<timebase>30</timebase>
											<ntsc>TRUE</ntsc>
										</rate>
										<start>4981</start>
										<end>5118</end>
										<in>0</in>
										<out>137</out>
										<pproTicksIn>0</pproTicksIn>
										<pproTicksOut>1161166406400</pproTicksOut>
										<sequence id="sequence-29"/>
											<marker>
												<comment></comment>
												<name></name>
												<in>43</in>
												<out>-1</out>
											</marker>
										<link>
											<linkclipref>clipitem-920</linkclipref>
											<mediatype>video</mediatype>
											<trackindex>4</trackindex>
											<clipindex>3</clipindex>
										</link>
										<link>
											<linkclipref>clipitem-927</linkclipref>
											<mediatype>audio</mediatype>
											<trackindex>3</trackindex>
											<clipindex>3</clipindex>
											<groupindex>1</groupindex>
										</link>
										<link>
											<linkclipref>clipitem-930</linkclipref>
											<mediatype>audio</mediatype>
											<trackindex>4</trackindex>
											<clipindex>3</clipindex>
											<groupindex>1</groupindex>
										</link>
										<labels>
											<label2>Forest</label2>
										</labels>
									</clipitem>
									<enabled>TRUE</enabled>
									<locked>FALSE</locked>
								</track>
							</video>
							<audio>
								<numOutputChannels>2</numOutputChannels>
								<format>
									<samplecharacteristics>
										<depth>16</depth>
										<samplerate>48000</samplerate>
									</samplecharacteristics>
								</format>
								<outputs>
									<group>
										<index>1</index>
										<numchannels>1</numchannels>
										<downmix>0</downmix>
										<channel>
											<index>1</index>
										</channel>
									</group>
									<group>
										<index>2</index>
										<numchannels>1</numchannels>
										<downmix>0</downmix>
										<channel>
											<index>2</index>
										</channel>
									</group>
								</outputs>
								<track TL.SQTrackAudioKeyframeStyle="0" TL.SQTrackShy="0" TL.SQTrackExpandedHeight="25" TL.SQTrackExpanded="0" MZ.TrackTargeted="1" PannerCurrentValue="0.5" PannerIsInverted="true" PannerStartKeyframe="-91445760000000000,0.5,0,0,0,0,0,0" PannerName="Balance" currentExplodedTrackIndex="0" totalExplodedTrackCount="2" premiereTrackType="Stereo">
									<clipitem id="clipitem-921" premiereChannelType="stereo">
										<masterclipid>masterclip-239</masterclipid>
										<name>I'm Flipping Out_2</name>
										<enabled>TRUE</enabled>
										<duration>4431</duration>
										<rate>
											<timebase>30</timebase>
											<ntsc>TRUE</ntsc>
										</rate>
										<start>82</start>
										<end>3161</end>
										<in>0</in>
										<out>3079</out>
										<pproTicksIn>0</pproTicksIn>
										<pproTicksOut>26096579308800</pproTicksOut>
										<sequence id="sequence-13"/>
										<sourcetrack>
											<mediatype>audio</mediatype>
											<trackindex>0</trackindex>
										</sourcetrack>
										<link>
											<linkclipref>clipitem-913</linkclipref>
											<mediatype>video</mediatype>
											<trackindex>1</trackindex>
											<clipindex>1</clipindex>
										</link>
										<link>
											<linkclipref>clipitem-921</linkclipref>
											<mediatype>audio</mediatype>
											<trackindex>1</trackindex>
											<clipindex>1</clipindex>
											<groupindex>1</groupindex>
										</link>
										<link>
											<linkclipref>clipitem-923</linkclipref>
											<mediatype>audio</mediatype>
											<trackindex>2</trackindex>
											<clipindex>1</clipindex>
											<groupindex>1</groupindex>
										</link>
										<labels>
											<label2>Forest</label2>
										</labels>
									</clipitem>
									<clipitem id="clipitem-922" premiereChannelType="stereo">
										<masterclipid>masterclip-240</masterclipid>
										<name>"Blood Orange"? It's Red._1</name>
										<enabled>TRUE</enabled>
										<duration>5700</duration>
										<rate>
											<timebase>30</timebase>
											<ntsc>TRUE</ntsc>
										</rate>
										<start>3195</start>
										<end>-1</end>
										<in>0</in>
										<out>1829</out>
										<pproTicksIn>0</pproTicksIn>
										<pproTicksOut>15501995308800</pproTicksOut>
										<sequence id="sequence-22"/>
										<sourcetrack>
											<mediatype>audio</mediatype>
											<trackindex>0</trackindex>
										</sourcetrack>
										<link>
											<linkclipref>clipitem-914</linkclipref>
											<mediatype>video</mediatype>
											<trackindex>1</trackindex>
											<clipindex>2</clipindex>
										</link>
										<link>
											<linkclipref>clipitem-922</linkclipref>
											<mediatype>audio</mediatype>
											<trackindex>1</trackindex>
											<clipindex>2</clipindex>
											<groupindex>1</groupindex>
										</link>
										<link>
											<linkclipref>clipitem-924</linkclipref>
											<mediatype>audio</mediatype>
											<trackindex>2</trackindex>
											<clipindex>2</clipindex>
											<groupindex>1</groupindex>
										</link>
										<labels>
											<label2>Forest</label2>
										</labels>
									</clipitem>
									<transitionitem>
										<start>4994</start>
										<end>5024</end>
										<pproTicksIn>42327481996800</pproTicksIn>
										<pproTicksOut>42581752012800</pproTicksOut>
										<alignment>end-black</alignment>
										<cutPointTicks>254270016000</cutPointTicks>
										<rate>
											<timebase>30</timebase>
											<ntsc>TRUE</ntsc>
										</rate>
										<effect>
											<name>Cross Fade (+3dB)</name>
											<effectid>KGAudioTransCrossFade3dB</effectid>
											<effecttype>transition</effecttype>
											<mediatype>audio</mediatype>
											<wipecode>0</wipecode>
											<wipeaccuracy>100</wipeaccuracy>
											<startratio>0</startratio>
											<endratio>1</endratio>
											<reverse>FALSE</reverse>
										</effect>
									</transitionitem>
									<enabled>TRUE</enabled>
									<locked>FALSE</locked>
									<outputchannelindex>1</outputchannelindex>
								</track>
								<track TL.SQTrackAudioKeyframeStyle="0" TL.SQTrackShy="0" TL.SQTrackExpandedHeight="25" TL.SQTrackExpanded="0" MZ.TrackTargeted="1" PannerCurrentValue="0.5" PannerIsInverted="true" PannerStartKeyframe="-91445760000000000,0.5,0,0,0,0,0,0" PannerName="Balance" currentExplodedTrackIndex="1" totalExplodedTrackCount="2" premiereTrackType="Stereo">
									<clipitem id="clipitem-923" premiereChannelType="stereo">
										<masterclipid>masterclip-239</masterclipid>
										<name>I'm Flipping Out_2</name>
										<enabled>TRUE</enabled>
										<duration>4431</duration>
										<rate>
											<timebase>30</timebase>
											<ntsc>TRUE</ntsc>
										</rate>
										<start>82</start>
										<end>3161</end>
										<in>0</in>
										<out>3079</out>
										<pproTicksIn>0</pproTicksIn>
										<pproTicksOut>26096579308800</pproTicksOut>
										<sequence id="sequence-13"/>
										<sourcetrack>
											<mediatype>audio</mediatype>
											<trackindex>1</trackindex>
										</sourcetrack>
										<link>
											<linkclipref>clipitem-913</linkclipref>
											<mediatype>video</mediatype>
											<trackindex>1</trackindex>
											<clipindex>1</clipindex>
										</link>
										<link>
											<linkclipref>clipitem-921</linkclipref>
											<mediatype>audio</mediatype>
											<trackindex>1</trackindex>
											<clipindex>1</clipindex>
											<groupindex>1</groupindex>
										</link>
										<link>
											<linkclipref>clipitem-923</linkclipref>
											<mediatype>audio</mediatype>
											<trackindex>2</trackindex>
											<clipindex>1</clipindex>
											<groupindex>1</groupindex>
										</link>
										<labels>
											<label2>Forest</label2>
										</labels>
									</clipitem>
									<clipitem id="clipitem-924" premiereChannelType="stereo">
										<masterclipid>masterclip-240</masterclipid>
										<name>"Blood Orange"? It's Red._1</name>
										<enabled>TRUE</enabled>
										<duration>5700</duration>
										<rate>
											<timebase>30</timebase>
											<ntsc>TRUE</ntsc>
										</rate>
										<start>3195</start>
										<end>-1</end>
										<in>0</in>
										<out>1829</out>
										<pproTicksIn>0</pproTicksIn>
										<pproTicksOut>15501995308800</pproTicksOut>
										<sequence id="sequence-22"/>
										<sourcetrack>
											<mediatype>audio</mediatype>
											<trackindex>1</trackindex>
										</sourcetrack>
										<link>
											<linkclipref>clipitem-914</linkclipref>
											<mediatype>video</mediatype>
											<trackindex>1</trackindex>
											<clipindex>2</clipindex>
										</link>
										<link>
											<linkclipref>clipitem-922</linkclipref>
											<mediatype>audio</mediatype>
											<trackindex>1</trackindex>
											<clipindex>2</clipindex>
											<groupindex>1</groupindex>
										</link>
										<link>
											<linkclipref>clipitem-924</linkclipref>
											<mediatype>audio</mediatype>
											<trackindex>2</trackindex>
											<clipindex>2</clipindex>
											<groupindex>1</groupindex>
										</link>
										<labels>
											<label2>Forest</label2>
										</labels>
									</clipitem>
									<transitionitem>
										<start>4994</start>
										<end>5024</end>
										<pproTicksIn>42327481996800</pproTicksIn>
										<pproTicksOut>42581752012800</pproTicksOut>
										<alignment>end-black</alignment>
										<cutPointTicks>254270016000</cutPointTicks>
										<rate>
											<timebase>30</timebase>
											<ntsc>TRUE</ntsc>
										</rate>
										<effect>
											<name>Cross Fade (+3dB)</name>
											<effectid>KGAudioTransCrossFade3dB</effectid>
											<effecttype>transition</effecttype>
											<mediatype>audio</mediatype>
											<wipecode>0</wipecode>
											<wipeaccuracy>100</wipeaccuracy>
											<startratio>0</startratio>
											<endratio>1</endratio>
											<reverse>FALSE</reverse>
										</effect>
									</transitionitem>
									<enabled>TRUE</enabled>
									<locked>FALSE</locked>
									<outputchannelindex>2</outputchannelindex>
								</track>
								<track TL.SQTrackAudioKeyframeStyle="0" TL.SQTrackShy="0" TL.SQTrackExpandedHeight="25" TL.SQTrackExpanded="0" MZ.TrackTargeted="1" PannerCurrentValue="0.5" PannerIsInverted="true" PannerStartKeyframe="-91445760000000000,0.5,0,0,0,0,0,0" PannerName="Balance" currentExplodedTrackIndex="0" totalExplodedTrackCount="2" premiereTrackType="Stereo">
									<clipitem id="clipitem-925" premiereChannelType="stereo">
										<masterclipid>masterclip-221</masterclipid>
										<name>Intro</name>
										<enabled>TRUE</enabled>
										<duration>160</duration>
										<rate>
											<timebase>30</timebase>
											<ntsc>TRUE</ntsc>
										</rate>
										<start>0</start>
										<end>115</end>
										<in>0</in>
										<out>115</out>
										<pproTicksIn>0</pproTicksIn>
										<pproTicksOut>974701728000</pproTicksOut>
										<sequence id="sequence-28"/>
										<sourcetrack>
											<mediatype>audio</mediatype>
											<trackindex>0</trackindex>
										</sourcetrack>
											<marker>
												<comment></comment>
												<name></name>
												<in>82</in>
												<out>-1</out>
											</marker>
										<link>
											<linkclipref>clipitem-918</linkclipref>
											<mediatype>video</mediatype>
											<trackindex>4</trackindex>
											<clipindex>1</clipindex>
										</link>
										<link>
											<linkclipref>clipitem-925</linkclipref>
											<mediatype>audio</mediatype>
											<trackindex>3</trackindex>
											<clipindex>1</clipindex>
											<groupindex>1</groupindex>
										</link>
										<link>
											<linkclipref>clipitem-928</linkclipref>
											<mediatype>audio</mediatype>
											<trackindex>4</trackindex>
											<clipindex>1</clipindex>
											<groupindex>1</groupindex>
										</link>
										<labels>
											<label2>Forest</label2>
										</labels>
									</clipitem>
									<clipitem id="clipitem-926" premiereChannelType="stereo">
										<masterclipid>masterclip-227</masterclipid>
										<name>Transition 2</name>
										<enabled>TRUE</enabled>
										<duration>160</duration>
										<rate>
											<timebase>30</timebase>
											<ntsc>TRUE</ntsc>
										</rate>
										<start>3141</start>
										<end>3260</end>
										<in>0</in>
										<out>119</out>
										<pproTicksIn>0</pproTicksIn>
										<pproTicksOut>1008604396800</pproTicksOut>
										<sequence id="sequence-31"/>
										<sourcetrack>
											<mediatype>audio</mediatype>
											<trackindex>0</trackindex>
										</sourcetrack>
											<marker>
												<comment></comment>
												<name></name>
												<in>20</in>
												<out>-1</out>
											</marker>
											<marker>
												<comment></comment>
												<name></name>
												<in>54</in>
												<out>-1</out>
											</marker>
										<link>
											<linkclipref>clipitem-919</linkclipref>
											<mediatype>video</mediatype>
											<trackindex>4</trackindex>
											<clipindex>2</clipindex>
										</link>
										<link>
											<linkclipref>clipitem-926</linkclipref>
											<mediatype>audio</mediatype>
											<trackindex>3</trackindex>
											<clipindex>2</clipindex>
											<groupindex>1</groupindex>
										</link>
										<link>
											<linkclipref>clipitem-929</linkclipref>
											<mediatype>audio</mediatype>
											<trackindex>4</trackindex>
											<clipindex>2</clipindex>
											<groupindex>1</groupindex>
										</link>
										<labels>
											<label2>Forest</label2>
										</labels>
									</clipitem>
									<clipitem id="clipitem-927" premiereChannelType="stereo">
										<masterclipid>masterclip-223</masterclipid>
										<name>Outro</name>
										<enabled>TRUE</enabled>
										<duration>160</duration>
										<rate>
											<timebase>30</timebase>
											<ntsc>TRUE</ntsc>
										</rate>
										<start>4981</start>
										<end>5118</end>
										<in>0</in>
										<out>137</out>
										<pproTicksIn>0</pproTicksIn>
										<pproTicksOut>1161166406400</pproTicksOut>
										<sequence id="sequence-29"/>
										<sourcetrack>
											<mediatype>audio</mediatype>
											<trackindex>0</trackindex>
										</sourcetrack>
											<marker>
												<comment></comment>
												<name></name>
												<in>43</in>
												<out>-1</out>
											</marker>
										<link>
											<linkclipref>clipitem-920</linkclipref>
											<mediatype>video</mediatype>
											<trackindex>4</trackindex>
											<clipindex>3</clipindex>
										</link>
										<link>
											<linkclipref>clipitem-927</linkclipref>
											<mediatype>audio</mediatype>
											<trackindex>3</trackindex>
											<clipindex>3</clipindex>
											<groupindex>1</groupindex>
										</link>
										<link>
											<linkclipref>clipitem-930</linkclipref>
											<mediatype>audio</mediatype>
											<trackindex>4</trackindex>
											<clipindex>3</clipindex>
											<groupindex>1</groupindex>
										</link>
										<labels>
											<label2>Forest</label2>
										</labels>
									</clipitem>
									<enabled>TRUE</enabled>
									<locked>FALSE</locked>
									<outputchannelindex>1</outputchannelindex>
								</track>
								<track TL.SQTrackAudioKeyframeStyle="0" TL.SQTrackShy="0" TL.SQTrackExpandedHeight="25" TL.SQTrackExpanded="0" MZ.TrackTargeted="1" PannerCurrentValue="0.5" PannerIsInverted="true" PannerStartKeyframe="-91445760000000000,0.5,0,0,0,0,0,0" PannerName="Balance" currentExplodedTrackIndex="1" totalExplodedTrackCount="2" premiereTrackType="Stereo">
									<clipitem id="clipitem-928" premiereChannelType="stereo">
										<masterclipid>masterclip-221</masterclipid>
										<name>Intro</name>
										<enabled>TRUE</enabled>
										<duration>160</duration>
										<rate>
											<timebase>30</timebase>
											<ntsc>TRUE</ntsc>
										</rate>
										<start>0</start>
										<end>115</end>
										<in>0</in>
										<out>115</out>
										<pproTicksIn>0</pproTicksIn>
										<pproTicksOut>974701728000</pproTicksOut>
										<sequence id="sequence-28"/>
										<sourcetrack>
											<mediatype>audio</mediatype>
											<trackindex>1</trackindex>
										</sourcetrack>
											<marker>
												<comment></comment>
												<name></name>
												<in>82</in>
												<out>-1</out>
											</marker>
										<link>
											<linkclipref>clipitem-918</linkclipref>
											<mediatype>video</mediatype>
											<trackindex>4</trackindex>
											<clipindex>1</clipindex>
										</link>
										<link>
											<linkclipref>clipitem-925</linkclipref>
											<mediatype>audio</mediatype>
											<trackindex>3</trackindex>
											<clipindex>1</clipindex>
											<groupindex>1</groupindex>
										</link>
										<link>
											<linkclipref>clipitem-928</linkclipref>
											<mediatype>audio</mediatype>
											<trackindex>4</trackindex>
											<clipindex>1</clipindex>
											<groupindex>1</groupindex>
										</link>
										<labels>
											<label2>Forest</label2>
										</labels>
									</clipitem>
									<clipitem id="clipitem-929" premiereChannelType="stereo">
										<masterclipid>masterclip-227</masterclipid>
										<name>Transition 2</name>
										<enabled>TRUE</enabled>
										<duration>160</duration>
										<rate>
											<timebase>30</timebase>
											<ntsc>TRUE</ntsc>
										</rate>
										<start>3141</start>
										<end>3260</end>
										<in>0</in>
										<out>119</out>
										<pproTicksIn>0</pproTicksIn>
										<pproTicksOut>1008604396800</pproTicksOut>
										<sequence id="sequence-31"/>
										<sourcetrack>
											<mediatype>audio</mediatype>
											<trackindex>1</trackindex>
										</sourcetrack>
											<marker>
												<comment></comment>
												<name></name>
												<in>20</in>
												<out>-1</out>
											</marker>
											<marker>
												<comment></comment>
												<name></name>
												<in>54</in>
												<out>-1</out>
											</marker>
										<link>
											<linkclipref>clipitem-919</linkclipref>
											<mediatype>video</mediatype>
											<trackindex>4</trackindex>
											<clipindex>2</clipindex>
										</link>
										<link>
											<linkclipref>clipitem-926</linkclipref>
											<mediatype>audio</mediatype>
											<trackindex>3</trackindex>
											<clipindex>2</clipindex>
											<groupindex>1</groupindex>
										</link>
										<link>
											<linkclipref>clipitem-929</linkclipref>
											<mediatype>audio</mediatype>
											<trackindex>4</trackindex>
											<clipindex>2</clipindex>
											<groupindex>1</groupindex>
										</link>
										<labels>
											<label2>Forest</label2>
										</labels>
									</clipitem>
									<clipitem id="clipitem-930" premiereChannelType="stereo">
										<masterclipid>masterclip-223</masterclipid>
										<name>Outro</name>
										<enabled>TRUE</enabled>
										<duration>160</duration>
										<rate>
											<timebase>30</timebase>
											<ntsc>TRUE</ntsc>
										</rate>
										<start>4981</start>
										<end>5118</end>
										<in>0</in>
										<out>137</out>
										<pproTicksIn>0</pproTicksIn>
										<pproTicksOut>1161166406400</pproTicksOut>
										<sequence id="sequence-29"/>
										<sourcetrack>
											<mediatype>audio</mediatype>
											<trackindex>1</trackindex>
										</sourcetrack>
											<marker>
												<comment></comment>
												<name></name>
												<in>43</in>
												<out>-1</out>
											</marker>
										<link>
											<linkclipref>clipitem-920</linkclipref>
											<mediatype>video</mediatype>
											<trackindex>4</trackindex>
											<clipindex>3</clipindex>
										</link>
										<link>
											<linkclipref>clipitem-927</linkclipref>
											<mediatype>audio</mediatype>
											<trackindex>3</trackindex>
											<clipindex>3</clipindex>
											<groupindex>1</groupindex>
										</link>
										<link>
											<linkclipref>clipitem-930</linkclipref>
											<mediatype>audio</mediatype>
											<trackindex>4</trackindex>
											<clipindex>3</clipindex>
											<groupindex>1</groupindex>
										</link>
										<labels>
											<label2>Forest</label2>
										</labels>
									</clipitem>
									<enabled>TRUE</enabled>
									<locked>FALSE</locked>
									<outputchannelindex>2</outputchannelindex>
								</track>
								<track TL.SQTrackAudioKeyframeStyle="0" TL.SQTrackShy="0" TL.SQTrackExpandedHeight="25" TL.SQTrackExpanded="0" MZ.TrackTargeted="1" PannerCurrentValue="0.5" PannerIsInverted="true" PannerStartKeyframe="-91445760000000000,0.5,0,0,0,0,0,0" PannerName="Balance" currentExplodedTrackIndex="0" totalExplodedTrackCount="2" premiereTrackType="Stereo">
									<enabled>TRUE</enabled>
									<locked>FALSE</locked>
									<outputchannelindex>1</outputchannelindex>
								</track>
								<track TL.SQTrackAudioKeyframeStyle="0" TL.SQTrackShy="0" TL.SQTrackExpandedHeight="25" TL.SQTrackExpanded="0" MZ.TrackTargeted="1" PannerCurrentValue="0.5" PannerIsInverted="true" PannerStartKeyframe="-91445760000000000,0.5,0,0,0,0,0,0" PannerName="Balance" currentExplodedTrackIndex="1" totalExplodedTrackCount="2" premiereTrackType="Stereo">
									<enabled>TRUE</enabled>
									<locked>FALSE</locked>
									<outputchannelindex>2</outputchannelindex>
								</track>
							</audio>
						</media>
						<timecode>
							<rate>
								<timebase>30</timebase>
								<ntsc>TRUE</ntsc>
							</rate>
							<string>00;00;00;00</string>
							<frame>0</frame>
							<displayformat>DF</displayformat>
						</timecode>
						<labels>
							<label2>Forest</label2>
						</labels>
						<logginginfo>
							<description></description>
							<scene></scene>
							<shottake></shottake>
							<lognote></lognote>
							<good></good>
							<originalvideofilename></originalvideofilename>
							<originalaudiofilename></originalaudiofilename>
						</logginginfo>
					</sequence>
					<sequence id="sequence-40" TL.SQAudioVisibleBase="0" TL.SQVideoVisibleBase="0" TL.SQVisibleBaseTime="0" TL.SQAVDividerPosition="0.5" TL.SQHideShyTracks="0" TL.SQHeaderWidth="236" TL.SQDataTrackViewControlState="0" Monitor.ProgramZoomOut="42573276345600" Monitor.ProgramZoomIn="0" TL.SQTimePerPixel="0.20828593570032114" AM.TrackVScrollPosition="0" AM.TrackScrollPosition="0" MZ.EditLine="0" MZ.Sequence.PreviewFrameSizeHeight="1080" MZ.Sequence.PreviewFrameSizeWidth="1920" MZ.Sequence.AudioTimeDisplayFormat="200" MZ.Sequence.PreviewRenderingClassID="1061109567" MZ.Sequence.PreviewRenderingPresetCodec="1634755443" MZ.Sequence.PreviewRenderingPresetPath="EncoderPresets/SequencePreview/35d109db-457b-43c1-9452-9cb7be9f121c/QuickTime.epr" MZ.Sequence.PreviewUseMaxRenderQuality="false" MZ.Sequence.PreviewUseMaxBitDepth="false" MZ.Sequence.EditingModeGUID="35d109db-457b-43c1-9452-9cb7be9f121c" MZ.Sequence.VideoTimeDisplayFormat="102" MZ.WorkOutPoint="15239249625600" MZ.WorkInPoint="0" explodedTracks="true">
						<uuid>cb91e5c2-7573-454b-b59a-eaabc0f53bfa</uuid>
						<duration>5023</duration>
						<rate>
							<timebase>30</timebase>
							<ntsc>TRUE</ntsc>
						</rate>
						<name>ATM_EYECANDY_254</name>
						<media>
							<video>
								<format>
									<samplecharacteristics>
										<rate>
											<timebase>30</timebase>
											<ntsc>TRUE</ntsc>
										</rate>
										<codec>
											<name>Apple ProRes 422</name>
											<appspecificdata>
												<appname>Final Cut Pro</appname>
												<appmanufacturer>Apple Inc.</appmanufacturer>
												<appversion>7.0</appversion>
												<data>
													<qtcodec>
														<codecname>Apple ProRes 422</codecname>
														<codectypename>Apple ProRes 422</codectypename>
														<codectypecode>apcn</codectypecode>
														<codecvendorcode>appl</codecvendorcode>
														<spatialquality>1024</spatialquality>
														<temporalquality>0</temporalquality>
														<keyframerate>0</keyframerate>
														<datarate>0</datarate>
													</qtcodec>
												</data>
											</appspecificdata>
										</codec>
										<width>1920</width>
										<height>1080</height>
										<anamorphic>FALSE</anamorphic>
										<pixelaspectratio>square</pixelaspectratio>
										<fielddominance>none</fielddominance>
										<colordepth>24</colordepth>
									</samplecharacteristics>
								</format>
								<track TL.SQTrackShy="0" TL.SQTrackExpandedHeight="25" TL.SQTrackExpanded="0" MZ.TrackTargeted="1">
									<clipitem id="clipitem-931">
										<masterclipid>masterclip-241</masterclipid>
										<name>Groovy Smoothie_1</name>
										<enabled>TRUE</enabled>
										<duration>2046</duration>
										<rate>
											<timebase>30</timebase>
											<ntsc>TRUE</ntsc>
										</rate>
										<start>82</start>
										<end>1623</end>
										<in>0</in>
										<out>1541</out>
										<pproTicksIn>0</pproTicksIn>
										<pproTicksOut>13061003155200</pproTicksOut>
										<sequence id="sequence-11"/>
										<link>
											<linkclipref>clipitem-931</linkclipref>
											<mediatype>video</mediatype>
											<trackindex>1</trackindex>
											<clipindex>1</clipindex>
										</link>
										<link>
											<linkclipref>clipitem-942</linkclipref>
											<mediatype>audio</mediatype>
											<trackindex>1</trackindex>
											<clipindex>1</clipindex>
											<groupindex>1</groupindex>
										</link>
										<link>
											<linkclipref>clipitem-946</linkclipref>
											<mediatype>audio</mediatype>
											<trackindex>2</trackindex>
											<clipindex>1</clipindex>
											<groupindex>1</groupindex>
										</link>
										<labels>
											<label2>Forest</label2>
										</labels>
									</clipitem>
									<clipitem id="clipitem-932">
										<masterclipid>masterclip-242</masterclipid>
										<name>Mmmmm, Molasses_1</name>
										<enabled>TRUE</enabled>
										<duration>5700</duration>
										<rate>
											<timebase>30</timebase>
											<ntsc>TRUE</ntsc>
										</rate>
										<start>1623</start>
										<end>2949</end>
										<in>0</in>
										<out>1326</out>
										<pproTicksIn>0</pproTicksIn>
										<pproTicksOut>11238734707200</pproTicksOut>
										<sequence id="sequence-24"/>
										<link>
											<linkclipref>clipitem-932</linkclipref>
											<mediatype>video</mediatype>
											<trackindex>1</trackindex>
											<clipindex>2</clipindex>
										</link>
										<link>
											<linkclipref>clipitem-943</linkclipref>
											<mediatype>audio</mediatype>
											<trackindex>1</trackindex>
											<clipindex>3</clipindex>
											<groupindex>1</groupindex>
										</link>
										<link>
											<linkclipref>clipitem-947</linkclipref>
											<mediatype>audio</mediatype>
											<trackindex>2</trackindex>
											<clipindex>3</clipindex>
											<groupindex>1</groupindex>
										</link>
										<labels>
											<label2>Forest</label2>
										</labels>
									</clipitem>
									<clipitem id="clipitem-933">
										<masterclipid>masterclip-243</masterclipid>
										<name>You're Driving Me Peanuts_1</name>
										<enabled>TRUE</enabled>
										<duration>1774</duration>
										<rate>
											<timebase>30</timebase>
											<ntsc>TRUE</ntsc>
										</rate>
										<start>2985</start>
										<end>4724</end>
										<in>0</in>
										<out>1739</out>
										<pproTicksIn>0</pproTicksIn>
										<pproTicksOut>14739185260800</pproTicksOut>
										<sequence id="sequence-12"/>
										<link>
											<linkclipref>clipitem-933</linkclipref>
											<mediatype>video</mediatype>
											<trackindex>1</trackindex>
											<clipindex>3</clipindex>
										</link>
										<link>
											<linkclipref>clipitem-944</linkclipref>
											<mediatype>audio</mediatype>
											<trackindex>1</trackindex>
											<clipindex>5</clipindex>
											<groupindex>1</groupindex>
										</link>
										<link>
											<linkclipref>clipitem-948</linkclipref>
											<mediatype>audio</mediatype>
											<trackindex>2</trackindex>
											<clipindex>5</clipindex>
											<groupindex>1</groupindex>
										</link>
										<labels>
											<label2>Forest</label2>
										</labels>
									</clipitem>
									<clipitem id="clipitem-934">
										<masterclipid>masterclip-244</masterclipid>
										<name>Bumper 2</name>
										<enabled>TRUE</enabled>
										<duration>299</duration>
										<rate>
											<timebase>30</timebase>
											<ntsc>TRUE</ntsc>
										</rate>
										<start>4724</start>
										<end>5023</end>
										<in>0</in>
										<out>299</out>
										<pproTicksIn>0</pproTicksIn>
										<pproTicksOut>2534224492800</pproTicksOut>
										<sequence id="sequence-26"/>
										<link>
											<linkclipref>clipitem-934</linkclipref>
											<mediatype>video</mediatype>
											<trackindex>1</trackindex>
											<clipindex>4</clipindex>
										</link>
										<link>
											<linkclipref>clipitem-945</linkclipref>
											<mediatype>audio</mediatype>
											<trackindex>1</trackindex>
											<clipindex>7</clipindex>
											<groupindex>1</groupindex>
										</link>
										<link>
											<linkclipref>clipitem-949</linkclipref>
											<mediatype>audio</mediatype>
											<trackindex>2</trackindex>
											<clipindex>7</clipindex>
											<groupindex>1</groupindex>
										</link>
										<labels>
											<label2>Forest</label2>
										</labels>
									</clipitem>
									<enabled>TRUE</enabled>
									<locked>FALSE</locked>
								</track>
								<track TL.SQTrackShy="0" TL.SQTrackExpandedHeight="25" TL.SQTrackExpanded="0" MZ.TrackTargeted="0">
									<clipitem id="clipitem-935">
										<masterclipid>masterclip-209</masterclipid>
										<name>ATM BUG_1080_Top Right.png</name>
										<enabled>TRUE</enabled>
										<duration>1294705</duration>
										<rate>
											<timebase>30</timebase>
											<ntsc>TRUE</ntsc>
										</rate>
										<start>82</start>
										<end>4724</end>
										<in>107892</in>
										<out>112534</out>
										<pproTicksIn>914456685542400</pproTicksIn>
										<pproTicksOut>953800732684800</pproTicksOut>
										<alphatype>straight</alphatype>
										<file id="file-206"/>
										<logginginfo>
											<description></description>
											<scene></scene>
											<shottake></shottake>
											<lognote></lognote>
											<good></good>
											<originalvideofilename></originalvideofilename>
											<originalaudiofilename></originalaudiofilename>
										</logginginfo>
										<colorinfo>
											<lut></lut>
											<lut1></lut1>
											<asc_sop></asc_sop>
											<asc_sat></asc_sat>
											<lut2></lut2>
										</colorinfo>
										<labels>
										</labels>
									</clipitem>
									<enabled>TRUE</enabled>
									<locked>FALSE</locked>
								</track>
								<track TL.SQTrackShy="0" TL.SQTrackExpandedHeight="25" TL.SQTrackExpanded="0" MZ.TrackTargeted="0">
									<clipitem id="clipitem-936">
										<masterclipid>masterclip-164</masterclipid>
										<name>Groovy Smoothie</name>
										<enabled>TRUE</enabled>
										<duration>6293</duration>
										<rate>
											<timebase>30</timebase>
											<ntsc>TRUE</ntsc>
										</rate>
										<start>115</start>
										<end>1623</end>
										<in>0</in>
										<out>1508</out>
										<pproTicksIn>0</pproTicksIn>
										<pproTicksOut>12781306137600</pproTicksOut>
										<alphatype>straight</alphatype>
										<file id="file-164"/>
										<logginginfo>
											<description></description>
											<scene></scene>
											<shottake></shottake>
											<lognote></lognote>
											<good></good>
											<originalvideofilename></originalvideofilename>
											<originalaudiofilename></originalaudiofilename>
										</logginginfo>
										<colorinfo>
											<lut></lut>
											<lut1></lut1>
											<asc_sop></asc_sop>
											<asc_sat></asc_sat>
											<lut2></lut2>
										</colorinfo>
									</clipitem>
									<clipitem id="clipitem-937">
										<masterclipid>masterclip-165</masterclipid>
										<name>Mmmmm, Molasses</name>
										<enabled>TRUE</enabled>
										<duration>6293</duration>
										<rate>
											<timebase>30</timebase>
											<ntsc>TRUE</ntsc>
										</rate>
										<start>1684</start>
										<end>2949</end>
										<in>0</in>
										<out>1265</out>
										<pproTicksIn>0</pproTicksIn>
										<pproTicksOut>10721719008000</pproTicksOut>
										<alphatype>straight</alphatype>
										<file id="file-165"/>
										<logginginfo>
											<description></description>
											<scene></scene>
											<shottake></shottake>
											<lognote></lognote>
											<good></good>
											<originalvideofilename></originalvideofilename>
											<originalaudiofilename></originalaudiofilename>
										</logginginfo>
										<colorinfo>
											<lut></lut>
											<lut1></lut1>
											<asc_sop></asc_sop>
											<asc_sat></asc_sat>
											<lut2></lut2>
										</colorinfo>
									</clipitem>
									<clipitem id="clipitem-938">
										<masterclipid>masterclip-166</masterclipid>
										<name>You're Driving Me Peanuts</name>
										<enabled>TRUE</enabled>
										<duration>6293</duration>
										<rate>
											<timebase>30</timebase>
											<ntsc>TRUE</ntsc>
										</rate>
										<start>3048</start>
										<end>4724</end>
										<in>0</in>
										<out>1676</out>
										<pproTicksIn>0</pproTicksIn>
										<pproTicksOut>14205218227200</pproTicksOut>
										<alphatype>straight</alphatype>
										<file id="file-166"/>
										<logginginfo>
											<description></description>
											<scene></scene>
											<shottake></shottake>
											<lognote></lognote>
											<good></good>
											<originalvideofilename></originalvideofilename>
											<originalaudiofilename></originalaudiofilename>
										</logginginfo>
										<colorinfo>
											<lut></lut>
											<lut1></lut1>
											<asc_sop></asc_sop>
											<asc_sat></asc_sat>
											<lut2></lut2>
										</colorinfo>
									</clipitem>
									<enabled>TRUE</enabled>
									<locked>FALSE</locked>
								</track>
								<track TL.SQTrackShy="0" TL.SQTrackExpandedHeight="25" TL.SQTrackExpanded="0" MZ.TrackTargeted="0">
									<clipitem id="clipitem-939">
										<masterclipid>masterclip-221</masterclipid>
										<name>Intro</name>
										<enabled>TRUE</enabled>
										<duration>160</duration>
										<rate>
											<timebase>30</timebase>
											<ntsc>TRUE</ntsc>
										</rate>
										<start>0</start>
										<end>115</end>
										<in>0</in>
										<out>115</out>
										<pproTicksIn>0</pproTicksIn>
										<pproTicksOut>974701728000</pproTicksOut>
										<sequence id="sequence-28"/>
											<marker>
												<comment></comment>
												<name></name>
												<in>82</in>
												<out>-1</out>
											</marker>
										<link>
											<linkclipref>clipitem-939</linkclipref>
											<mediatype>video</mediatype>
											<trackindex>4</trackindex>
											<clipindex>1</clipindex>
										</link>
										<link>
											<linkclipref>clipitem-950</linkclipref>
											<mediatype>audio</mediatype>
											<trackindex>3</trackindex>
											<clipindex>1</clipindex>
											<groupindex>1</groupindex>
										</link>
										<link>
											<linkclipref>clipitem-953</linkclipref>
											<mediatype>audio</mediatype>
											<trackindex>4</trackindex>
											<clipindex>1</clipindex>
											<groupindex>1</groupindex>
										</link>
										<labels>
											<label2>Forest</label2>
										</labels>
									</clipitem>
									<clipitem id="clipitem-940">
										<masterclipid>masterclip-222</masterclipid>
										<name>Transition 1</name>
										<enabled>TRUE</enabled>
										<duration>160</duration>
										<rate>
											<timebase>30</timebase>
											<ntsc>TRUE</ntsc>
										</rate>
										<start>1566</start>
										<end>1684</end>
										<in>0</in>
										<out>118</out>
										<pproTicksIn>0</pproTicksIn>
										<pproTicksOut>1000128729600</pproTicksOut>
										<sequence id="sequence-30"/>
											<marker>
												<comment></comment>
												<name></name>
												<in>57</in>
												<out>-1</out>
											</marker>
										<link>
											<linkclipref>clipitem-940</linkclipref>
											<mediatype>video</mediatype>
											<trackindex>4</trackindex>
											<clipindex>2</clipindex>
										</link>
										<link>
											<linkclipref>clipitem-951</linkclipref>
											<mediatype>audio</mediatype>
											<trackindex>3</trackindex>
											<clipindex>2</clipindex>
											<groupindex>1</groupindex>
										</link>
										<link>
											<linkclipref>clipitem-954</linkclipref>
											<mediatype>audio</mediatype>
											<trackindex>4</trackindex>
											<clipindex>2</clipindex>
											<groupindex>1</groupindex>
										</link>
										<labels>
											<label2>Forest</label2>
										</labels>
									</clipitem>
									<clipitem id="clipitem-941">
										<masterclipid>masterclip-227</masterclipid>
										<name>Transition 2</name>
										<enabled>TRUE</enabled>
										<duration>160</duration>
										<rate>
											<timebase>30</timebase>
											<ntsc>TRUE</ntsc>
										</rate>
										<start>2929</start>
										<end>3048</end>
										<in>0</in>
										<out>119</out>
										<pproTicksIn>0</pproTicksIn>
										<pproTicksOut>1008604396800</pproTicksOut>
										<sequence id="sequence-31"/>
											<marker>
												<comment></comment>
												<name></name>
												<in>20</in>
												<out>-1</out>
											</marker>
											<marker>
												<comment></comment>
												<name></name>
												<in>54</in>
												<out>-1</out>
											</marker>
										<link>
											<linkclipref>clipitem-941</linkclipref>
											<mediatype>video</mediatype>
											<trackindex>4</trackindex>
											<clipindex>3</clipindex>
										</link>
										<link>
											<linkclipref>clipitem-952</linkclipref>
											<mediatype>audio</mediatype>
											<trackindex>3</trackindex>
											<clipindex>3</clipindex>
											<groupindex>1</groupindex>
										</link>
										<link>
											<linkclipref>clipitem-955</linkclipref>
											<mediatype>audio</mediatype>
											<trackindex>4</trackindex>
											<clipindex>3</clipindex>
											<groupindex>1</groupindex>
										</link>
										<labels>
											<label2>Forest</label2>
										</labels>
									</clipitem>
									<enabled>TRUE</enabled>
									<locked>FALSE</locked>
								</track>
							</video>
							<audio>
								<numOutputChannels>2</numOutputChannels>
								<format>
									<samplecharacteristics>
										<depth>16</depth>
										<samplerate>48000</samplerate>
									</samplecharacteristics>
								</format>
								<outputs>
									<group>
										<index>1</index>
										<numchannels>1</numchannels>
										<downmix>0</downmix>
										<channel>
											<index>1</index>
										</channel>
									</group>
									<group>
										<index>2</index>
										<numchannels>1</numchannels>
										<downmix>0</downmix>
										<channel>
											<index>2</index>
										</channel>
									</group>
								</outputs>
								<track TL.SQTrackAudioKeyframeStyle="0" TL.SQTrackShy="0" TL.SQTrackExpandedHeight="25" TL.SQTrackExpanded="0" MZ.TrackTargeted="1" PannerCurrentValue="0.5" PannerIsInverted="true" PannerStartKeyframe="-91445760000000000,0.5,0,0,0,0,0,0" PannerName="Balance" currentExplodedTrackIndex="0" totalExplodedTrackCount="2" premiereTrackType="Stereo">
									<clipitem id="clipitem-942" premiereChannelType="stereo">
										<masterclipid>masterclip-241</masterclipid>
										<name>Groovy Smoothie_1</name>
										<enabled>TRUE</enabled>
										<duration>2046</duration>
										<rate>
											<timebase>30</timebase>
											<ntsc>TRUE</ntsc>
										</rate>
										<start>82</start>
										<end>-1</end>
										<in>0</in>
										<out>1541</out>
										<pproTicksIn>0</pproTicksIn>
										<pproTicksOut>13061003155200</pproTicksOut>
										<sequence id="sequence-11"/>
										<sourcetrack>
											<mediatype>audio</mediatype>
											<trackindex>0</trackindex>
										</sourcetrack>
										<link>
											<linkclipref>clipitem-931</linkclipref>
											<mediatype>video</mediatype>
											<trackindex>1</trackindex>
											<clipindex>1</clipindex>
										</link>
										<link>
											<linkclipref>clipitem-942</linkclipref>
											<mediatype>audio</mediatype>
											<trackindex>1</trackindex>
											<clipindex>1</clipindex>
											<groupindex>1</groupindex>
										</link>
										<link>
											<linkclipref>clipitem-946</linkclipref>
											<mediatype>audio</mediatype>
											<trackindex>2</trackindex>
											<clipindex>1</clipindex>
											<groupindex>1</groupindex>
										</link>
										<labels>
											<label2>Forest</label2>
										</labels>
									</clipitem>
									<transitionitem>
										<start>1593</start>
										<end>1623</end>
										<pproTicksIn>13501737849600</pproTicksIn>
										<pproTicksOut>13756007865600</pproTicksOut>
										<alignment>end-black</alignment>
										<cutPointTicks>254270016000</cutPointTicks>
										<rate>
											<timebase>30</timebase>
											<ntsc>TRUE</ntsc>
										</rate>
										<effect>
											<name>Cross Fade (+3dB)</name>
											<effectid>KGAudioTransCrossFade3dB</effectid>
											<effecttype>transition</effecttype>
											<mediatype>audio</mediatype>
											<wipecode>0</wipecode>
											<wipeaccuracy>100</wipeaccuracy>
											<startratio>0</startratio>
											<endratio>1</endratio>
											<reverse>FALSE</reverse>
										</effect>
									</transitionitem>
									<clipitem id="clipitem-943" premiereChannelType="stereo">
										<masterclipid>masterclip-242</masterclipid>
										<name>Mmmmm, Molasses_1</name>
										<enabled>TRUE</enabled>
										<duration>5700</duration>
										<rate>
											<timebase>30</timebase>
											<ntsc>TRUE</ntsc>
										</rate>
										<start>1623</start>
										<end>-1</end>
										<in>0</in>
										<out>1326</out>
										<pproTicksIn>0</pproTicksIn>
										<pproTicksOut>11238734707200</pproTicksOut>
										<sequence id="sequence-24"/>
										<sourcetrack>
											<mediatype>audio</mediatype>
											<trackindex>0</trackindex>
										</sourcetrack>
										<link>
											<linkclipref>clipitem-932</linkclipref>
											<mediatype>video</mediatype>
											<trackindex>1</trackindex>
											<clipindex>2</clipindex>
										</link>
										<link>
											<linkclipref>clipitem-943</linkclipref>
											<mediatype>audio</mediatype>
											<trackindex>1</trackindex>
											<clipindex>3</clipindex>
											<groupindex>1</groupindex>
										</link>
										<link>
											<linkclipref>clipitem-947</linkclipref>
											<mediatype>audio</mediatype>
											<trackindex>2</trackindex>
											<clipindex>3</clipindex>
											<groupindex>1</groupindex>
										</link>
										<labels>
											<label2>Forest</label2>
										</labels>
									</clipitem>
									<transitionitem>
										<start>2919</start>
										<end>2949</end>
										<pproTicksIn>24740472556800</pproTicksIn>
										<pproTicksOut>24994742572800</pproTicksOut>
										<alignment>end-black</alignment>
										<cutPointTicks>254270016000</cutPointTicks>
										<rate>
											<timebase>30</timebase>
											<ntsc>TRUE</ntsc>
										</rate>
										<effect>
											<name>Cross Fade (+3dB)</name>
											<effectid>KGAudioTransCrossFade3dB</effectid>
											<effecttype>transition</effecttype>
											<mediatype>audio</mediatype>
											<wipecode>0</wipecode>
											<wipeaccuracy>100</wipeaccuracy>
											<startratio>0</startratio>
											<endratio>1</endratio>
											<reverse>FALSE</reverse>
										</effect>
									</transitionitem>
									<clipitem id="clipitem-944" premiereChannelType="stereo">
										<masterclipid>masterclip-243</masterclipid>
										<name>You're Driving Me Peanuts_1</name>
										<enabled>TRUE</enabled>
										<duration>1774</duration>
										<rate>
											<timebase>30</timebase>
											<ntsc>TRUE</ntsc>
										</rate>
										<start>2985</start>
										<end>-1</end>
										<in>0</in>
										<out>1739</out>
										<pproTicksIn>0</pproTicksIn>
										<pproTicksOut>14739185260800</pproTicksOut>
										<sequence id="sequence-12"/>
										<sourcetrack>
											<mediatype>audio</mediatype>
											<trackindex>0</trackindex>
										</sourcetrack>
										<link>
											<linkclipref>clipitem-933</linkclipref>
											<mediatype>video</mediatype>
											<trackindex>1</trackindex>
											<clipindex>3</clipindex>
										</link>
										<link>
											<linkclipref>clipitem-944</linkclipref>
											<mediatype>audio</mediatype>
											<trackindex>1</trackindex>
											<clipindex>5</clipindex>
											<groupindex>1</groupindex>
										</link>
										<link>
											<linkclipref>clipitem-948</linkclipref>
											<mediatype>audio</mediatype>
											<trackindex>2</trackindex>
											<clipindex>5</clipindex>
											<groupindex>1</groupindex>
										</link>
										<labels>
											<label2>Forest</label2>
										</labels>
									</clipitem>
									<transitionitem>
										<start>4694</start>
										<end>4724</end>
										<pproTicksIn>39784781836800</pproTicksIn>
										<pproTicksOut>40039051852800</pproTicksOut>
										<alignment>end-black</alignment>
										<cutPointTicks>254270016000</cutPointTicks>
										<rate>
											<timebase>30</timebase>
											<ntsc>TRUE</ntsc>
										</rate>
										<effect>
											<name>Cross Fade (+3dB)</name>
											<effectid>KGAudioTransCrossFade3dB</effectid>
											<effecttype>transition</effecttype>
											<mediatype>audio</mediatype>
											<wipecode>0</wipecode>
											<wipeaccuracy>100</wipeaccuracy>
											<startratio>0</startratio>
											<endratio>1</endratio>
											<reverse>FALSE</reverse>
										</effect>
									</transitionitem>
									<clipitem id="clipitem-945" premiereChannelType="stereo">
										<masterclipid>masterclip-244</masterclipid>
										<name>Bumper 2</name>
										<enabled>TRUE</enabled>
										<duration>299</duration>
										<rate>
											<timebase>30</timebase>
											<ntsc>TRUE</ntsc>
										</rate>
										<start>4724</start>
										<end>5023</end>
										<in>0</in>
										<out>299</out>
										<pproTicksIn>0</pproTicksIn>
										<pproTicksOut>2534224492800</pproTicksOut>
										<sequence id="sequence-26"/>
										<sourcetrack>
											<mediatype>audio</mediatype>
											<trackindex>0</trackindex>
										</sourcetrack>
										<link>
											<linkclipref>clipitem-934</linkclipref>
											<mediatype>video</mediatype>
											<trackindex>1</trackindex>
											<clipindex>4</clipindex>
										</link>
										<link>
											<linkclipref>clipitem-945</linkclipref>
											<mediatype>audio</mediatype>
											<trackindex>1</trackindex>
											<clipindex>7</clipindex>
											<groupindex>1</groupindex>
										</link>
										<link>
											<linkclipref>clipitem-949</linkclipref>
											<mediatype>audio</mediatype>
											<trackindex>2</trackindex>
											<clipindex>7</clipindex>
											<groupindex>1</groupindex>
										</link>
										<labels>
											<label2>Forest</label2>
										</labels>
									</clipitem>
									<enabled>TRUE</enabled>
									<locked>FALSE</locked>
									<outputchannelindex>1</outputchannelindex>
								</track>
								<track TL.SQTrackAudioKeyframeStyle="0" TL.SQTrackShy="0" TL.SQTrackExpandedHeight="25" TL.SQTrackExpanded="0" MZ.TrackTargeted="1" PannerCurrentValue="0.5" PannerIsInverted="true" PannerStartKeyframe="-91445760000000000,0.5,0,0,0,0,0,0" PannerName="Balance" currentExplodedTrackIndex="1" totalExplodedTrackCount="2" premiereTrackType="Stereo">
									<clipitem id="clipitem-946" premiereChannelType="stereo">
										<masterclipid>masterclip-241</masterclipid>
										<name>Groovy Smoothie_1</name>
										<enabled>TRUE</enabled>
										<duration>2046</duration>
										<rate>
											<timebase>30</timebase>
											<ntsc>TRUE</ntsc>
										</rate>
										<start>82</start>
										<end>-1</end>
										<in>0</in>
										<out>1541</out>
										<pproTicksIn>0</pproTicksIn>
										<pproTicksOut>13061003155200</pproTicksOut>
										<sequence id="sequence-11"/>
										<sourcetrack>
											<mediatype>audio</mediatype>
											<trackindex>1</trackindex>
										</sourcetrack>
										<link>
											<linkclipref>clipitem-931</linkclipref>
											<mediatype>video</mediatype>
											<trackindex>1</trackindex>
											<clipindex>1</clipindex>
										</link>
										<link>
											<linkclipref>clipitem-942</linkclipref>
											<mediatype>audio</mediatype>
											<trackindex>1</trackindex>
											<clipindex>1</clipindex>
											<groupindex>1</groupindex>
										</link>
										<link>
											<linkclipref>clipitem-946</linkclipref>
											<mediatype>audio</mediatype>
											<trackindex>2</trackindex>
											<clipindex>1</clipindex>
											<groupindex>1</groupindex>
										</link>
										<labels>
											<label2>Forest</label2>
										</labels>
									</clipitem>
									<transitionitem>
										<start>1593</start>
										<end>1623</end>
										<pproTicksIn>13501737849600</pproTicksIn>
										<pproTicksOut>13756007865600</pproTicksOut>
										<alignment>end-black</alignment>
										<cutPointTicks>254270016000</cutPointTicks>
										<rate>
											<timebase>30</timebase>
											<ntsc>TRUE</ntsc>
										</rate>
										<effect>
											<name>Cross Fade (+3dB)</name>
											<effectid>KGAudioTransCrossFade3dB</effectid>
											<effecttype>transition</effecttype>
											<mediatype>audio</mediatype>
											<wipecode>0</wipecode>
											<wipeaccuracy>100</wipeaccuracy>
											<startratio>0</startratio>
											<endratio>1</endratio>
											<reverse>FALSE</reverse>
										</effect>
									</transitionitem>
									<clipitem id="clipitem-947" premiereChannelType="stereo">
										<masterclipid>masterclip-242</masterclipid>
										<name>Mmmmm, Molasses_1</name>
										<enabled>TRUE</enabled>
										<duration>5700</duration>
										<rate>
											<timebase>30</timebase>
											<ntsc>TRUE</ntsc>
										</rate>
										<start>1623</start>
										<end>-1</end>
										<in>0</in>
										<out>1326</out>
										<pproTicksIn>0</pproTicksIn>
										<pproTicksOut>11238734707200</pproTicksOut>
										<sequence id="sequence-24"/>
										<sourcetrack>
											<mediatype>audio</mediatype>
											<trackindex>1</trackindex>
										</sourcetrack>
										<link>
											<linkclipref>clipitem-932</linkclipref>
											<mediatype>video</mediatype>
											<trackindex>1</trackindex>
											<clipindex>2</clipindex>
										</link>
										<link>
											<linkclipref>clipitem-943</linkclipref>
											<mediatype>audio</mediatype>
											<trackindex>1</trackindex>
											<clipindex>3</clipindex>
											<groupindex>1</groupindex>
										</link>
										<link>
											<linkclipref>clipitem-947</linkclipref>
											<mediatype>audio</mediatype>
											<trackindex>2</trackindex>
											<clipindex>3</clipindex>
											<groupindex>1</groupindex>
										</link>
										<labels>
											<label2>Forest</label2>
										</labels>
									</clipitem>
									<transitionitem>
										<start>2919</start>
										<end>2949</end>
										<pproTicksIn>24740472556800</pproTicksIn>
										<pproTicksOut>24994742572800</pproTicksOut>
										<alignment>end-black</alignment>
										<cutPointTicks>254270016000</cutPointTicks>
										<rate>
											<timebase>30</timebase>
											<ntsc>TRUE</ntsc>
										</rate>
										<effect>
											<name>Cross Fade (+3dB)</name>
											<effectid>KGAudioTransCrossFade3dB</effectid>
											<effecttype>transition</effecttype>
											<mediatype>audio</mediatype>
											<wipecode>0</wipecode>
											<wipeaccuracy>100</wipeaccuracy>
											<startratio>0</startratio>
											<endratio>1</endratio>
											<reverse>FALSE</reverse>
										</effect>
									</transitionitem>
									<clipitem id="clipitem-948" premiereChannelType="stereo">
										<masterclipid>masterclip-243</masterclipid>
										<name>You're Driving Me Peanuts_1</name>
										<enabled>TRUE</enabled>
										<duration>1774</duration>
										<rate>
											<timebase>30</timebase>
											<ntsc>TRUE</ntsc>
										</rate>
										<start>2985</start>
										<end>-1</end>
										<in>0</in>
										<out>1739</out>
										<pproTicksIn>0</pproTicksIn>
										<pproTicksOut>14739185260800</pproTicksOut>
										<sequence id="sequence-12"/>
										<sourcetrack>
											<mediatype>audio</mediatype>
											<trackindex>1</trackindex>
										</sourcetrack>
										<link>
											<linkclipref>clipitem-933</linkclipref>
											<mediatype>video</mediatype>
											<trackindex>1</trackindex>
											<clipindex>3</clipindex>
										</link>
										<link>
											<linkclipref>clipitem-944</linkclipref>
											<mediatype>audio</mediatype>
											<trackindex>1</trackindex>
											<clipindex>5</clipindex>
											<groupindex>1</groupindex>
										</link>
										<link>
											<linkclipref>clipitem-948</linkclipref>
											<mediatype>audio</mediatype>
											<trackindex>2</trackindex>
											<clipindex>5</clipindex>
											<groupindex>1</groupindex>
										</link>
										<labels>
											<label2>Forest</label2>
										</labels>
									</clipitem>
									<transitionitem>
										<start>4694</start>
										<end>4724</end>
										<pproTicksIn>39784781836800</pproTicksIn>
										<pproTicksOut>40039051852800</pproTicksOut>
										<alignment>end-black</alignment>
										<cutPointTicks>254270016000</cutPointTicks>
										<rate>
											<timebase>30</timebase>
											<ntsc>TRUE</ntsc>
										</rate>
										<effect>
											<name>Cross Fade (+3dB)</name>
											<effectid>KGAudioTransCrossFade3dB</effectid>
											<effecttype>transition</effecttype>
											<mediatype>audio</mediatype>
											<wipecode>0</wipecode>
											<wipeaccuracy>100</wipeaccuracy>
											<startratio>0</startratio>
											<endratio>1</endratio>
											<reverse>FALSE</reverse>
										</effect>
									</transitionitem>
									<clipitem id="clipitem-949" premiereChannelType="stereo">
										<masterclipid>masterclip-244</masterclipid>
										<name>Bumper 2</name>
										<enabled>TRUE</enabled>
										<duration>299</duration>
										<rate>
											<timebase>30</timebase>
											<ntsc>TRUE</ntsc>
										</rate>
										<start>4724</start>
										<end>5023</end>
										<in>0</in>
										<out>299</out>
										<pproTicksIn>0</pproTicksIn>
										<pproTicksOut>2534224492800</pproTicksOut>
										<sequence id="sequence-26"/>
										<sourcetrack>
											<mediatype>audio</mediatype>
											<trackindex>1</trackindex>
										</sourcetrack>
										<link>
											<linkclipref>clipitem-934</linkclipref>
											<mediatype>video</mediatype>
											<trackindex>1</trackindex>
											<clipindex>4</clipindex>
										</link>
										<link>
											<linkclipref>clipitem-945</linkclipref>
											<mediatype>audio</mediatype>
											<trackindex>1</trackindex>
											<clipindex>7</clipindex>
											<groupindex>1</groupindex>
										</link>
										<link>
											<linkclipref>clipitem-949</linkclipref>
											<mediatype>audio</mediatype>
											<trackindex>2</trackindex>
											<clipindex>7</clipindex>
											<groupindex>1</groupindex>
										</link>
										<labels>
											<label2>Forest</label2>
										</labels>
									</clipitem>
									<enabled>TRUE</enabled>
									<locked>FALSE</locked>
									<outputchannelindex>2</outputchannelindex>
								</track>
								<track TL.SQTrackAudioKeyframeStyle="0" TL.SQTrackShy="0" TL.SQTrackExpandedHeight="25" TL.SQTrackExpanded="0" MZ.TrackTargeted="1" PannerCurrentValue="0.5" PannerIsInverted="true" PannerStartKeyframe="-91445760000000000,0.5,0,0,0,0,0,0" PannerName="Balance" currentExplodedTrackIndex="0" totalExplodedTrackCount="2" premiereTrackType="Stereo">
									<clipitem id="clipitem-950" premiereChannelType="stereo">
										<masterclipid>masterclip-221</masterclipid>
										<name>Intro</name>
										<enabled>TRUE</enabled>
										<duration>160</duration>
										<rate>
											<timebase>30</timebase>
											<ntsc>TRUE</ntsc>
										</rate>
										<start>0</start>
										<end>115</end>
										<in>0</in>
										<out>115</out>
										<pproTicksIn>0</pproTicksIn>
										<pproTicksOut>974701728000</pproTicksOut>
										<sequence id="sequence-28"/>
										<sourcetrack>
											<mediatype>audio</mediatype>
											<trackindex>0</trackindex>
										</sourcetrack>
											<marker>
												<comment></comment>
												<name></name>
												<in>82</in>
												<out>-1</out>
											</marker>
										<link>
											<linkclipref>clipitem-939</linkclipref>
											<mediatype>video</mediatype>
											<trackindex>4</trackindex>
											<clipindex>1</clipindex>
										</link>
										<link>
											<linkclipref>clipitem-950</linkclipref>
											<mediatype>audio</mediatype>
											<trackindex>3</trackindex>
											<clipindex>1</clipindex>
											<groupindex>1</groupindex>
										</link>
										<link>
											<linkclipref>clipitem-953</linkclipref>
											<mediatype>audio</mediatype>
											<trackindex>4</trackindex>
											<clipindex>1</clipindex>
											<groupindex>1</groupindex>
										</link>
										<labels>
											<label2>Forest</label2>
										</labels>
									</clipitem>
									<clipitem id="clipitem-951" premiereChannelType="stereo">
										<masterclipid>masterclip-222</masterclipid>
										<name>Transition 1</name>
										<enabled>TRUE</enabled>
										<duration>160</duration>
										<rate>
											<timebase>30</timebase>
											<ntsc>TRUE</ntsc>
										</rate>
										<start>1566</start>
										<end>1684</end>
										<in>0</in>
										<out>118</out>
										<pproTicksIn>0</pproTicksIn>
										<pproTicksOut>1000128729600</pproTicksOut>
										<sequence id="sequence-30"/>
										<sourcetrack>
											<mediatype>audio</mediatype>
											<trackindex>0</trackindex>
										</sourcetrack>
											<marker>
												<comment></comment>
												<name></name>
												<in>57</in>
												<out>-1</out>
											</marker>
										<link>
											<linkclipref>clipitem-940</linkclipref>
											<mediatype>video</mediatype>
											<trackindex>4</trackindex>
											<clipindex>2</clipindex>
										</link>
										<link>
											<linkclipref>clipitem-951</linkclipref>
											<mediatype>audio</mediatype>
											<trackindex>3</trackindex>
											<clipindex>2</clipindex>
											<groupindex>1</groupindex>
										</link>
										<link>
											<linkclipref>clipitem-954</linkclipref>
											<mediatype>audio</mediatype>
											<trackindex>4</trackindex>
											<clipindex>2</clipindex>
											<groupindex>1</groupindex>
										</link>
										<labels>
											<label2>Forest</label2>
										</labels>
									</clipitem>
									<clipitem id="clipitem-952" premiereChannelType="stereo">
										<masterclipid>masterclip-227</masterclipid>
										<name>Transition 2</name>
										<enabled>TRUE</enabled>
										<duration>160</duration>
										<rate>
											<timebase>30</timebase>
											<ntsc>TRUE</ntsc>
										</rate>
										<start>2929</start>
										<end>3048</end>
										<in>0</in>
										<out>119</out>
										<pproTicksIn>0</pproTicksIn>
										<pproTicksOut>1008604396800</pproTicksOut>
										<sequence id="sequence-31"/>
										<sourcetrack>
											<mediatype>audio</mediatype>
											<trackindex>0</trackindex>
										</sourcetrack>
											<marker>
												<comment></comment>
												<name></name>
												<in>20</in>
												<out>-1</out>
											</marker>
											<marker>
												<comment></comment>
												<name></name>
												<in>54</in>
												<out>-1</out>
											</marker>
										<link>
											<linkclipref>clipitem-941</linkclipref>
											<mediatype>video</mediatype>
											<trackindex>4</trackindex>
											<clipindex>3</clipindex>
										</link>
										<link>
											<linkclipref>clipitem-952</linkclipref>
											<mediatype>audio</mediatype>
											<trackindex>3</trackindex>
											<clipindex>3</clipindex>
											<groupindex>1</groupindex>
										</link>
										<link>
											<linkclipref>clipitem-955</linkclipref>
											<mediatype>audio</mediatype>
											<trackindex>4</trackindex>
											<clipindex>3</clipindex>
											<groupindex>1</groupindex>
										</link>
										<labels>
											<label2>Forest</label2>
										</labels>
									</clipitem>
									<enabled>TRUE</enabled>
									<locked>FALSE</locked>
									<outputchannelindex>1</outputchannelindex>
								</track>
								<track TL.SQTrackAudioKeyframeStyle="0" TL.SQTrackShy="0" TL.SQTrackExpandedHeight="25" TL.SQTrackExpanded="0" MZ.TrackTargeted="1" PannerCurrentValue="0.5" PannerIsInverted="true" PannerStartKeyframe="-91445760000000000,0.5,0,0,0,0,0,0" PannerName="Balance" currentExplodedTrackIndex="1" totalExplodedTrackCount="2" premiereTrackType="Stereo">
									<clipitem id="clipitem-953" premiereChannelType="stereo">
										<masterclipid>masterclip-221</masterclipid>
										<name>Intro</name>
										<enabled>TRUE</enabled>
										<duration>160</duration>
										<rate>
											<timebase>30</timebase>
											<ntsc>TRUE</ntsc>
										</rate>
										<start>0</start>
										<end>115</end>
										<in>0</in>
										<out>115</out>
										<pproTicksIn>0</pproTicksIn>
										<pproTicksOut>974701728000</pproTicksOut>
										<sequence id="sequence-28"/>
										<sourcetrack>
											<mediatype>audio</mediatype>
											<trackindex>1</trackindex>
										</sourcetrack>
											<marker>
												<comment></comment>
												<name></name>
												<in>82</in>
												<out>-1</out>
											</marker>
										<link>
											<linkclipref>clipitem-939</linkclipref>
											<mediatype>video</mediatype>
											<trackindex>4</trackindex>
											<clipindex>1</clipindex>
										</link>
										<link>
											<linkclipref>clipitem-950</linkclipref>
											<mediatype>audio</mediatype>
											<trackindex>3</trackindex>
											<clipindex>1</clipindex>
											<groupindex>1</groupindex>
										</link>
										<link>
											<linkclipref>clipitem-953</linkclipref>
											<mediatype>audio</mediatype>
											<trackindex>4</trackindex>
											<clipindex>1</clipindex>
											<groupindex>1</groupindex>
										</link>
										<labels>
											<label2>Forest</label2>
										</labels>
									</clipitem>
									<clipitem id="clipitem-954" premiereChannelType="stereo">
										<masterclipid>masterclip-222</masterclipid>
										<name>Transition 1</name>
										<enabled>TRUE</enabled>
										<duration>160</duration>
										<rate>
											<timebase>30</timebase>
											<ntsc>TRUE</ntsc>
										</rate>
										<start>1566</start>
										<end>1684</end>
										<in>0</in>
										<out>118</out>
										<pproTicksIn>0</pproTicksIn>
										<pproTicksOut>1000128729600</pproTicksOut>
										<sequence id="sequence-30"/>
										<sourcetrack>
											<mediatype>audio</mediatype>
											<trackindex>1</trackindex>
										</sourcetrack>
											<marker>
												<comment></comment>
												<name></name>
												<in>57</in>
												<out>-1</out>
											</marker>
										<link>
											<linkclipref>clipitem-940</linkclipref>
											<mediatype>video</mediatype>
											<trackindex>4</trackindex>
											<clipindex>2</clipindex>
										</link>
										<link>
											<linkclipref>clipitem-951</linkclipref>
											<mediatype>audio</mediatype>
											<trackindex>3</trackindex>
											<clipindex>2</clipindex>
											<groupindex>1</groupindex>
										</link>
										<link>
											<linkclipref>clipitem-954</linkclipref>
											<mediatype>audio</mediatype>
											<trackindex>4</trackindex>
											<clipindex>2</clipindex>
											<groupindex>1</groupindex>
										</link>
										<labels>
											<label2>Forest</label2>
										</labels>
									</clipitem>
									<clipitem id="clipitem-955" premiereChannelType="stereo">
										<masterclipid>masterclip-227</masterclipid>
										<name>Transition 2</name>
										<enabled>TRUE</enabled>
										<duration>160</duration>
										<rate>
											<timebase>30</timebase>
											<ntsc>TRUE</ntsc>
										</rate>
										<start>2929</start>
										<end>3048</end>
										<in>0</in>
										<out>119</out>
										<pproTicksIn>0</pproTicksIn>
										<pproTicksOut>1008604396800</pproTicksOut>
										<sequence id="sequence-31"/>
										<sourcetrack>
											<mediatype>audio</mediatype>
											<trackindex>1</trackindex>
										</sourcetrack>
											<marker>
												<comment></comment>
												<name></name>
												<in>20</in>
												<out>-1</out>
											</marker>
											<marker>
												<comment></comment>
												<name></name>
												<in>54</in>
												<out>-1</out>
											</marker>
										<link>
											<linkclipref>clipitem-941</linkclipref>
											<mediatype>video</mediatype>
											<trackindex>4</trackindex>
											<clipindex>3</clipindex>
										</link>
										<link>
											<linkclipref>clipitem-952</linkclipref>
											<mediatype>audio</mediatype>
											<trackindex>3</trackindex>
											<clipindex>3</clipindex>
											<groupindex>1</groupindex>
										</link>
										<link>
											<linkclipref>clipitem-955</linkclipref>
											<mediatype>audio</mediatype>
											<trackindex>4</trackindex>
											<clipindex>3</clipindex>
											<groupindex>1</groupindex>
										</link>
										<labels>
											<label2>Forest</label2>
										</labels>
									</clipitem>
									<enabled>TRUE</enabled>
									<locked>FALSE</locked>
									<outputchannelindex>2</outputchannelindex>
								</track>
								<track TL.SQTrackAudioKeyframeStyle="0" TL.SQTrackShy="0" TL.SQTrackExpandedHeight="25" TL.SQTrackExpanded="0" MZ.TrackTargeted="1" PannerCurrentValue="0.5" PannerIsInverted="true" PannerStartKeyframe="-91445760000000000,0.5,0,0,0,0,0,0" PannerName="Balance" currentExplodedTrackIndex="0" totalExplodedTrackCount="2" premiereTrackType="Stereo">
									<enabled>TRUE</enabled>
									<locked>FALSE</locked>
									<outputchannelindex>1</outputchannelindex>
								</track>
								<track TL.SQTrackAudioKeyframeStyle="0" TL.SQTrackShy="0" TL.SQTrackExpandedHeight="25" TL.SQTrackExpanded="0" MZ.TrackTargeted="1" PannerCurrentValue="0.5" PannerIsInverted="true" PannerStartKeyframe="-91445760000000000,0.5,0,0,0,0,0,0" PannerName="Balance" currentExplodedTrackIndex="1" totalExplodedTrackCount="2" premiereTrackType="Stereo">
									<enabled>TRUE</enabled>
									<locked>FALSE</locked>
									<outputchannelindex>2</outputchannelindex>
								</track>
								<track TL.SQTrackAudioKeyframeStyle="0" TL.SQTrackShy="0" TL.SQTrackExpandedHeight="25" TL.SQTrackExpanded="0" MZ.TrackTargeted="0" PannerCurrentValue="0.5" PannerIsInverted="true" PannerStartKeyframe="-91445760000000000,0.5,0,0,0,0,0,0" PannerName="Balance" currentExplodedTrackIndex="0" totalExplodedTrackCount="2" premiereTrackType="Stereo">
									<enabled>TRUE</enabled>
									<locked>FALSE</locked>
									<outputchannelindex>1</outputchannelindex>
								</track>
								<track TL.SQTrackAudioKeyframeStyle="0" TL.SQTrackShy="0" TL.SQTrackExpandedHeight="25" TL.SQTrackExpanded="0" MZ.TrackTargeted="0" PannerCurrentValue="0.5" PannerIsInverted="true" PannerStartKeyframe="-91445760000000000,0.5,0,0,0,0,0,0" PannerName="Balance" currentExplodedTrackIndex="1" totalExplodedTrackCount="2" premiereTrackType="Stereo">
									<enabled>TRUE</enabled>
									<locked>FALSE</locked>
									<outputchannelindex>2</outputchannelindex>
								</track>
							</audio>
						</media>
						<timecode>
							<rate>
								<timebase>30</timebase>
								<ntsc>TRUE</ntsc>
							</rate>
							<string>00;00;00;00</string>
							<frame>0</frame>
							<displayformat>DF</displayformat>
						</timecode>
						<labels>
							<label2>Forest</label2>
						</labels>
						<logginginfo>
							<description></description>
							<scene></scene>
							<shottake></shottake>
							<lognote></lognote>
							<good></good>
							<originalvideofilename></originalvideofilename>
							<originalaudiofilename></originalaudiofilename>
						</logginginfo>
					</sequence>
					<sequence id="sequence-41" TL.SQAudioVisibleBase="0" TL.SQVideoVisibleBase="0" TL.SQVisibleBaseTime="0" TL.SQAVDividerPosition="0.5" TL.SQHideShyTracks="0" TL.SQHeaderWidth="236" TL.SQDataTrackViewControlState="0" Monitor.ProgramZoomOut="47192514969600" Monitor.ProgramZoomIn="0" TL.SQTimePerPixel="0.24995974590755585" AM.TrackVScrollPosition="0" AM.TrackScrollPosition="0" MZ.EditLine="0" MZ.Sequence.PreviewFrameSizeHeight="1080" MZ.Sequence.PreviewFrameSizeWidth="1920" MZ.Sequence.AudioTimeDisplayFormat="200" MZ.Sequence.PreviewRenderingClassID="1061109567" MZ.Sequence.PreviewRenderingPresetCodec="1634755443" MZ.Sequence.PreviewRenderingPresetPath="EncoderPresets/SequencePreview/35d109db-457b-43c1-9452-9cb7be9f121c/QuickTime.epr" MZ.Sequence.PreviewUseMaxRenderQuality="false" MZ.Sequence.PreviewUseMaxBitDepth="false" MZ.Sequence.EditingModeGUID="35d109db-457b-43c1-9452-9cb7be9f121c" MZ.Sequence.VideoTimeDisplayFormat="102" MZ.WorkOutPoint="15239249625600" MZ.WorkInPoint="0" explodedTracks="true">
						<uuid>ffc9479a-3ec0-4466-87ca-cba9853d5384</uuid>
						<duration>5474</duration>
						<rate>
							<timebase>30</timebase>
							<ntsc>TRUE</ntsc>
						</rate>
						<name>ATM_EYECANDY_255</name>
						<media>
							<video>
								<format>
									<samplecharacteristics>
										<rate>
											<timebase>30</timebase>
											<ntsc>TRUE</ntsc>
										</rate>
										<codec>
											<name>Apple ProRes 422</name>
											<appspecificdata>
												<appname>Final Cut Pro</appname>
												<appmanufacturer>Apple Inc.</appmanufacturer>
												<appversion>7.0</appversion>
												<data>
													<qtcodec>
														<codecname>Apple ProRes 422</codecname>
														<codectypename>Apple ProRes 422</codectypename>
														<codectypecode>apcn</codectypecode>
														<codecvendorcode>appl</codecvendorcode>
														<spatialquality>1024</spatialquality>
														<temporalquality>0</temporalquality>
														<keyframerate>0</keyframerate>
														<datarate>0</datarate>
													</qtcodec>
												</data>
											</appspecificdata>
										</codec>
										<width>1920</width>
										<height>1080</height>
										<anamorphic>FALSE</anamorphic>
										<pixelaspectratio>square</pixelaspectratio>
										<fielddominance>none</fielddominance>
										<colordepth>24</colordepth>
									</samplecharacteristics>
								</format>
								<track TL.SQTrackShy="0" TL.SQTrackExpandedHeight="25" TL.SQTrackExpanded="0" MZ.TrackTargeted="1">
									<clipitem id="clipitem-956">
										<masterclipid>masterclip-245</masterclipid>
										<name>Cherry Picked_1</name>
										<enabled>TRUE</enabled>
										<duration>1797</duration>
										<rate>
											<timebase>30</timebase>
											<ntsc>TRUE</ntsc>
										</rate>
										<start>82</start>
										<end>1879</end>
										<in>0</in>
										<out>1797</out>
										<pproTicksIn>0</pproTicksIn>
										<pproTicksOut>15230773958400</pproTicksOut>
										<sequence id="sequence-8"/>
										<link>
											<linkclipref>clipitem-956</linkclipref>
											<mediatype>video</mediatype>
											<trackindex>1</trackindex>
											<clipindex>1</clipindex>
										</link>
										<link>
											<linkclipref>clipitem-964</linkclipref>
											<mediatype>audio</mediatype>
											<trackindex>1</trackindex>
											<clipindex>1</clipindex>
											<groupindex>1</groupindex>
										</link>
										<link>
											<linkclipref>clipitem-966</linkclipref>
											<mediatype>audio</mediatype>
											<trackindex>2</trackindex>
											<clipindex>1</clipindex>
											<groupindex>1</groupindex>
										</link>
										<labels>
											<label2>Forest</label2>
										</labels>
									</clipitem>
									<clipitem id="clipitem-957">
										<masterclipid>masterclip-246</masterclipid>
										<name>Ran Upstairs and Kissed Nutella_2</name>
										<enabled>TRUE</enabled>
										<duration>5700</duration>
										<rate>
											<timebase>30</timebase>
											<ntsc>TRUE</ntsc>
										</rate>
										<start>1879</start>
										<end>5474</end>
										<in>0</in>
										<out>3595</out>
										<pproTicksIn>0</pproTicksIn>
										<pproTicksOut>30470023584000</pproTicksOut>
										<sequence id="sequence-23"/>
										<link>
											<linkclipref>clipitem-957</linkclipref>
											<mediatype>video</mediatype>
											<trackindex>1</trackindex>
											<clipindex>2</clipindex>
										</link>
										<link>
											<linkclipref>clipitem-965</linkclipref>
											<mediatype>audio</mediatype>
											<trackindex>1</trackindex>
											<clipindex>3</clipindex>
											<groupindex>1</groupindex>
										</link>
										<link>
											<linkclipref>clipitem-967</linkclipref>
											<mediatype>audio</mediatype>
											<trackindex>2</trackindex>
											<clipindex>3</clipindex>
											<groupindex>1</groupindex>
										</link>
										<labels>
											<label2>Forest</label2>
										</labels>
									</clipitem>
									<enabled>TRUE</enabled>
									<locked>FALSE</locked>
								</track>
								<track TL.SQTrackShy="0" TL.SQTrackExpandedHeight="25" TL.SQTrackExpanded="0" MZ.TrackTargeted="0">
									<clipitem id="clipitem-958">
										<masterclipid>masterclip-209</masterclipid>
										<name>ATM BUG_1080_Top Right.png</name>
										<enabled>TRUE</enabled>
										<duration>1294705</duration>
										<rate>
											<timebase>30</timebase>
											<ntsc>TRUE</ntsc>
										</rate>
										<start>82</start>
										<end>5474</end>
										<in>107892</in>
										<out>113284</out>
										<pproTicksIn>914456685542400</pproTicksIn>
										<pproTicksOut>960157483084800</pproTicksOut>
										<alphatype>straight</alphatype>
										<file id="file-206"/>
										<logginginfo>
											<description></description>
											<scene></scene>
											<shottake></shottake>
											<lognote></lognote>
											<good></good>
											<originalvideofilename></originalvideofilename>
											<originalaudiofilename></originalaudiofilename>
										</logginginfo>
										<colorinfo>
											<lut></lut>
											<lut1></lut1>
											<asc_sop></asc_sop>
											<asc_sat></asc_sat>
											<lut2></lut2>
										</colorinfo>
										<labels>
										</labels>
									</clipitem>
									<enabled>TRUE</enabled>
									<locked>FALSE</locked>
								</track>
								<track TL.SQTrackShy="0" TL.SQTrackExpandedHeight="25" TL.SQTrackExpanded="0" MZ.TrackTargeted="0">
									<clipitem id="clipitem-959">
										<masterclipid>masterclip-167</masterclipid>
										<name>Cherry Picked</name>
										<enabled>TRUE</enabled>
										<duration>6293</duration>
										<rate>
											<timebase>30</timebase>
											<ntsc>TRUE</ntsc>
										</rate>
										<start>115</start>
										<end>1879</end>
										<in>0</in>
										<out>1764</out>
										<pproTicksIn>0</pproTicksIn>
										<pproTicksOut>14951076940800</pproTicksOut>
										<alphatype>straight</alphatype>
										<file id="file-167"/>
										<logginginfo>
											<description></description>
											<scene></scene>
											<shottake></shottake>
											<lognote></lognote>
											<good></good>
											<originalvideofilename></originalvideofilename>
											<originalaudiofilename></originalaudiofilename>
										</logginginfo>
										<colorinfo>
											<lut></lut>
											<lut1></lut1>
											<asc_sop></asc_sop>
											<asc_sat></asc_sat>
											<lut2></lut2>
										</colorinfo>
									</clipitem>
									<clipitem id="clipitem-960">
										<masterclipid>masterclip-168</masterclipid>
										<name>Ran Upstairs and Kissed Nutella</name>
										<enabled>TRUE</enabled>
										<duration>6293</duration>
										<rate>
											<timebase>30</timebase>
											<ntsc>TRUE</ntsc>
										</rate>
										<start>1940</start>
										<end>5474</end>
										<in>0</in>
										<out>3534</out>
										<pproTicksIn>0</pproTicksIn>
										<pproTicksOut>29953007884800</pproTicksOut>
										<alphatype>straight</alphatype>
										<file id="file-168"/>
										<logginginfo>
											<description></description>
											<scene></scene>
											<shottake></shottake>
											<lognote></lognote>
											<good></good>
											<originalvideofilename></originalvideofilename>
											<originalaudiofilename></originalaudiofilename>
										</logginginfo>
										<colorinfo>
											<lut></lut>
											<lut1></lut1>
											<asc_sop></asc_sop>
											<asc_sat></asc_sat>
											<lut2></lut2>
										</colorinfo>
									</clipitem>
									<enabled>TRUE</enabled>
									<locked>FALSE</locked>
								</track>
								<track TL.SQTrackShy="0" TL.SQTrackExpandedHeight="25" TL.SQTrackExpanded="0" MZ.TrackTargeted="0">
									<clipitem id="clipitem-961">
										<masterclipid>masterclip-221</masterclipid>
										<name>Intro</name>
										<enabled>TRUE</enabled>
										<duration>160</duration>
										<rate>
											<timebase>30</timebase>
											<ntsc>TRUE</ntsc>
										</rate>
										<start>0</start>
										<end>115</end>
										<in>0</in>
										<out>115</out>
										<pproTicksIn>0</pproTicksIn>
										<pproTicksOut>974701728000</pproTicksOut>
										<sequence id="sequence-28"/>
											<marker>
												<comment></comment>
												<name></name>
												<in>82</in>
												<out>-1</out>
											</marker>
										<link>
											<linkclipref>clipitem-961</linkclipref>
											<mediatype>video</mediatype>
											<trackindex>4</trackindex>
											<clipindex>1</clipindex>
										</link>
										<link>
											<linkclipref>clipitem-968</linkclipref>
											<mediatype>audio</mediatype>
											<trackindex>3</trackindex>
											<clipindex>1</clipindex>
											<groupindex>1</groupindex>
										</link>
										<link>
											<linkclipref>clipitem-971</linkclipref>
											<mediatype>audio</mediatype>
											<trackindex>4</trackindex>
											<clipindex>1</clipindex>
											<groupindex>1</groupindex>
										</link>
										<labels>
											<label2>Forest</label2>
										</labels>
									</clipitem>
									<clipitem id="clipitem-962">
										<masterclipid>masterclip-222</masterclipid>
										<name>Transition 1</name>
										<enabled>TRUE</enabled>
										<duration>160</duration>
										<rate>
											<timebase>30</timebase>
											<ntsc>TRUE</ntsc>
										</rate>
										<start>1822</start>
										<end>1940</end>
										<in>0</in>
										<out>118</out>
										<pproTicksIn>0</pproTicksIn>
										<pproTicksOut>1000128729600</pproTicksOut>
										<sequence id="sequence-30"/>
											<marker>
												<comment></comment>
												<name></name>
												<in>57</in>
												<out>-1</out>
											</marker>
										<link>
											<linkclipref>clipitem-962</linkclipref>
											<mediatype>video</mediatype>
											<trackindex>4</trackindex>
											<clipindex>2</clipindex>
										</link>
										<link>
											<linkclipref>clipitem-969</linkclipref>
											<mediatype>audio</mediatype>
											<trackindex>3</trackindex>
											<clipindex>2</clipindex>
											<groupindex>1</groupindex>
										</link>
										<link>
											<linkclipref>clipitem-972</linkclipref>
											<mediatype>audio</mediatype>
											<trackindex>4</trackindex>
											<clipindex>2</clipindex>
											<groupindex>1</groupindex>
										</link>
										<labels>
											<label2>Forest</label2>
										</labels>
									</clipitem>
									<clipitem id="clipitem-963">
										<masterclipid>masterclip-223</masterclipid>
										<name>Outro</name>
										<enabled>TRUE</enabled>
										<duration>160</duration>
										<rate>
											<timebase>30</timebase>
											<ntsc>TRUE</ntsc>
										</rate>
										<start>5431</start>
										<end>5568</end>
										<in>0</in>
										<out>137</out>
										<pproTicksIn>0</pproTicksIn>
										<pproTicksOut>1161166406400</pproTicksOut>
										<sequence id="sequence-29"/>
											<marker>
												<comment></comment>
												<name></name>
												<in>43</in>
												<out>-1</out>
											</marker>
										<link>
											<linkclipref>clipitem-963</linkclipref>
											<mediatype>video</mediatype>
											<trackindex>4</trackindex>
											<clipindex>3</clipindex>
										</link>
										<link>
											<linkclipref>clipitem-970</linkclipref>
											<mediatype>audio</mediatype>
											<trackindex>3</trackindex>
											<clipindex>3</clipindex>
											<groupindex>1</groupindex>
										</link>
										<link>
											<linkclipref>clipitem-973</linkclipref>
											<mediatype>audio</mediatype>
											<trackindex>4</trackindex>
											<clipindex>3</clipindex>
											<groupindex>1</groupindex>
										</link>
										<labels>
											<label2>Forest</label2>
										</labels>
									</clipitem>
									<enabled>TRUE</enabled>
									<locked>FALSE</locked>
								</track>
							</video>
							<audio>
								<numOutputChannels>2</numOutputChannels>
								<format>
									<samplecharacteristics>
										<depth>16</depth>
										<samplerate>48000</samplerate>
									</samplecharacteristics>
								</format>
								<outputs>
									<group>
										<index>1</index>
										<numchannels>1</numchannels>
										<downmix>0</downmix>
										<channel>
											<index>1</index>
										</channel>
									</group>
									<group>
										<index>2</index>
										<numchannels>1</numchannels>
										<downmix>0</downmix>
										<channel>
											<index>2</index>
										</channel>
									</group>
								</outputs>
								<track TL.SQTrackAudioKeyframeStyle="0" TL.SQTrackShy="0" TL.SQTrackExpandedHeight="25" TL.SQTrackExpanded="0" MZ.TrackTargeted="1" PannerCurrentValue="0.5" PannerIsInverted="true" PannerStartKeyframe="-91445760000000000,0.5,0,0,0,0,0,0" PannerName="Balance" currentExplodedTrackIndex="0" totalExplodedTrackCount="2" premiereTrackType="Stereo">
									<clipitem id="clipitem-964" premiereChannelType="stereo">
										<masterclipid>masterclip-245</masterclipid>
										<name>Cherry Picked_1</name>
										<enabled>TRUE</enabled>
										<duration>1797</duration>
										<rate>
											<timebase>30</timebase>
											<ntsc>TRUE</ntsc>
										</rate>
										<start>82</start>
										<end>-1</end>
										<in>0</in>
										<out>1797</out>
										<pproTicksIn>0</pproTicksIn>
										<pproTicksOut>15230773958400</pproTicksOut>
										<sequence id="sequence-8"/>
										<sourcetrack>
											<mediatype>audio</mediatype>
											<trackindex>0</trackindex>
										</sourcetrack>
										<link>
											<linkclipref>clipitem-956</linkclipref>
											<mediatype>video</mediatype>
											<trackindex>1</trackindex>
											<clipindex>1</clipindex>
										</link>
										<link>
											<linkclipref>clipitem-964</linkclipref>
											<mediatype>audio</mediatype>
											<trackindex>1</trackindex>
											<clipindex>1</clipindex>
											<groupindex>1</groupindex>
										</link>
										<link>
											<linkclipref>clipitem-966</linkclipref>
											<mediatype>audio</mediatype>
											<trackindex>2</trackindex>
											<clipindex>1</clipindex>
											<groupindex>1</groupindex>
										</link>
										<labels>
											<label2>Forest</label2>
										</labels>
									</clipitem>
									<transitionitem>
										<start>1849</start>
										<end>1879</end>
										<pproTicksIn>15671508652800</pproTicksIn>
										<pproTicksOut>15925778668800</pproTicksOut>
										<alignment>end-black</alignment>
										<cutPointTicks>254270016000</cutPointTicks>
										<rate>
											<timebase>30</timebase>
											<ntsc>TRUE</ntsc>
										</rate>
										<effect>
											<name>Cross Fade (+3dB)</name>
											<effectid>KGAudioTransCrossFade3dB</effectid>
											<effecttype>transition</effecttype>
											<mediatype>audio</mediatype>
											<wipecode>0</wipecode>
											<wipeaccuracy>100</wipeaccuracy>
											<startratio>0</startratio>
											<endratio>1</endratio>
											<reverse>FALSE</reverse>
										</effect>
									</transitionitem>
									<clipitem id="clipitem-965" premiereChannelType="stereo">
										<masterclipid>masterclip-246</masterclipid>
										<name>Ran Upstairs and Kissed Nutella_2</name>
										<enabled>TRUE</enabled>
										<duration>5700</duration>
										<rate>
											<timebase>30</timebase>
											<ntsc>TRUE</ntsc>
										</rate>
										<start>1879</start>
										<end>-1</end>
										<in>0</in>
										<out>3595</out>
										<pproTicksIn>0</pproTicksIn>
										<pproTicksOut>30470023584000</pproTicksOut>
										<sequence id="sequence-23"/>
										<sourcetrack>
											<mediatype>audio</mediatype>
											<trackindex>0</trackindex>
										</sourcetrack>
										<link>
											<linkclipref>clipitem-957</linkclipref>
											<mediatype>video</mediatype>
											<trackindex>1</trackindex>
											<clipindex>2</clipindex>
										</link>
										<link>
											<linkclipref>clipitem-965</linkclipref>
											<mediatype>audio</mediatype>
											<trackindex>1</trackindex>
											<clipindex>3</clipindex>
											<groupindex>1</groupindex>
										</link>
										<link>
											<linkclipref>clipitem-967</linkclipref>
											<mediatype>audio</mediatype>
											<trackindex>2</trackindex>
											<clipindex>3</clipindex>
											<groupindex>1</groupindex>
										</link>
										<labels>
											<label2>Forest</label2>
										</labels>
									</clipitem>
									<transitionitem>
										<start>5444</start>
										<end>5474</end>
										<pproTicksIn>46141532236800</pproTicksIn>
										<pproTicksOut>46395802252800</pproTicksOut>
										<alignment>end-black</alignment>
										<cutPointTicks>254270016000</cutPointTicks>
										<rate>
											<timebase>30</timebase>
											<ntsc>TRUE</ntsc>
										</rate>
										<effect>
											<name>Cross Fade (+3dB)</name>
											<effectid>KGAudioTransCrossFade3dB</effectid>
											<effecttype>transition</effecttype>
											<mediatype>audio</mediatype>
											<wipecode>0</wipecode>
											<wipeaccuracy>100</wipeaccuracy>
											<startratio>0</startratio>
											<endratio>1</endratio>
											<reverse>FALSE</reverse>
										</effect>
									</transitionitem>
									<enabled>TRUE</enabled>
									<locked>FALSE</locked>
									<outputchannelindex>1</outputchannelindex>
								</track>
								<track TL.SQTrackAudioKeyframeStyle="0" TL.SQTrackShy="0" TL.SQTrackExpandedHeight="25" TL.SQTrackExpanded="0" MZ.TrackTargeted="1" PannerCurrentValue="0.5" PannerIsInverted="true" PannerStartKeyframe="-91445760000000000,0.5,0,0,0,0,0,0" PannerName="Balance" currentExplodedTrackIndex="1" totalExplodedTrackCount="2" premiereTrackType="Stereo">
									<clipitem id="clipitem-966" premiereChannelType="stereo">
										<masterclipid>masterclip-245</masterclipid>
										<name>Cherry Picked_1</name>
										<enabled>TRUE</enabled>
										<duration>1797</duration>
										<rate>
											<timebase>30</timebase>
											<ntsc>TRUE</ntsc>
										</rate>
										<start>82</start>
										<end>-1</end>
										<in>0</in>
										<out>1797</out>
										<pproTicksIn>0</pproTicksIn>
										<pproTicksOut>15230773958400</pproTicksOut>
										<sequence id="sequence-8"/>
										<sourcetrack>
											<mediatype>audio</mediatype>
											<trackindex>1</trackindex>
										</sourcetrack>
										<link>
											<linkclipref>clipitem-956</linkclipref>
											<mediatype>video</mediatype>
											<trackindex>1</trackindex>
											<clipindex>1</clipindex>
										</link>
										<link>
											<linkclipref>clipitem-964</linkclipref>
											<mediatype>audio</mediatype>
											<trackindex>1</trackindex>
											<clipindex>1</clipindex>
											<groupindex>1</groupindex>
										</link>
										<link>
											<linkclipref>clipitem-966</linkclipref>
											<mediatype>audio</mediatype>
											<trackindex>2</trackindex>
											<clipindex>1</clipindex>
											<groupindex>1</groupindex>
										</link>
										<labels>
											<label2>Forest</label2>
										</labels>
									</clipitem>
									<transitionitem>
										<start>1849</start>
										<end>1879</end>
										<pproTicksIn>15671508652800</pproTicksIn>
										<pproTicksOut>15925778668800</pproTicksOut>
										<alignment>end-black</alignment>
										<cutPointTicks>254270016000</cutPointTicks>
										<rate>
											<timebase>30</timebase>
											<ntsc>TRUE</ntsc>
										</rate>
										<effect>
											<name>Cross Fade (+3dB)</name>
											<effectid>KGAudioTransCrossFade3dB</effectid>
											<effecttype>transition</effecttype>
											<mediatype>audio</mediatype>
											<wipecode>0</wipecode>
											<wipeaccuracy>100</wipeaccuracy>
											<startratio>0</startratio>
											<endratio>1</endratio>
											<reverse>FALSE</reverse>
										</effect>
									</transitionitem>
									<clipitem id="clipitem-967" premiereChannelType="stereo">
										<masterclipid>masterclip-246</masterclipid>
										<name>Ran Upstairs and Kissed Nutella_2</name>
										<enabled>TRUE</enabled>
										<duration>5700</duration>
										<rate>
											<timebase>30</timebase>
											<ntsc>TRUE</ntsc>
										</rate>
										<start>1879</start>
										<end>-1</end>
										<in>0</in>
										<out>3595</out>
										<pproTicksIn>0</pproTicksIn>
										<pproTicksOut>30470023584000</pproTicksOut>
										<sequence id="sequence-23"/>
										<sourcetrack>
											<mediatype>audio</mediatype>
											<trackindex>1</trackindex>
										</sourcetrack>
										<link>
											<linkclipref>clipitem-957</linkclipref>
											<mediatype>video</mediatype>
											<trackindex>1</trackindex>
											<clipindex>2</clipindex>
										</link>
										<link>
											<linkclipref>clipitem-965</linkclipref>
											<mediatype>audio</mediatype>
											<trackindex>1</trackindex>
											<clipindex>3</clipindex>
											<groupindex>1</groupindex>
										</link>
										<link>
											<linkclipref>clipitem-967</linkclipref>
											<mediatype>audio</mediatype>
											<trackindex>2</trackindex>
											<clipindex>3</clipindex>
											<groupindex>1</groupindex>
										</link>
										<labels>
											<label2>Forest</label2>
										</labels>
									</clipitem>
									<transitionitem>
										<start>5444</start>
										<end>5474</end>
										<pproTicksIn>46141532236800</pproTicksIn>
										<pproTicksOut>46395802252800</pproTicksOut>
										<alignment>end-black</alignment>
										<cutPointTicks>254270016000</cutPointTicks>
										<rate>
											<timebase>30</timebase>
											<ntsc>TRUE</ntsc>
										</rate>
										<effect>
											<name>Cross Fade (+3dB)</name>
											<effectid>KGAudioTransCrossFade3dB</effectid>
											<effecttype>transition</effecttype>
											<mediatype>audio</mediatype>
											<wipecode>0</wipecode>
											<wipeaccuracy>100</wipeaccuracy>
											<startratio>0</startratio>
											<endratio>1</endratio>
											<reverse>FALSE</reverse>
										</effect>
									</transitionitem>
									<enabled>TRUE</enabled>
									<locked>FALSE</locked>
									<outputchannelindex>2</outputchannelindex>
								</track>
								<track TL.SQTrackAudioKeyframeStyle="0" TL.SQTrackShy="0" TL.SQTrackExpandedHeight="25" TL.SQTrackExpanded="0" MZ.TrackTargeted="1" PannerCurrentValue="0.5" PannerIsInverted="true" PannerStartKeyframe="-91445760000000000,0.5,0,0,0,0,0,0" PannerName="Balance" currentExplodedTrackIndex="0" totalExplodedTrackCount="2" premiereTrackType="Stereo">
									<clipitem id="clipitem-968" premiereChannelType="stereo">
										<masterclipid>masterclip-221</masterclipid>
										<name>Intro</name>
										<enabled>TRUE</enabled>
										<duration>160</duration>
										<rate>
											<timebase>30</timebase>
											<ntsc>TRUE</ntsc>
										</rate>
										<start>0</start>
										<end>115</end>
										<in>0</in>
										<out>115</out>
										<pproTicksIn>0</pproTicksIn>
										<pproTicksOut>974701728000</pproTicksOut>
										<sequence id="sequence-28"/>
										<sourcetrack>
											<mediatype>audio</mediatype>
											<trackindex>0</trackindex>
										</sourcetrack>
											<marker>
												<comment></comment>
												<name></name>
												<in>82</in>
												<out>-1</out>
											</marker>
										<link>
											<linkclipref>clipitem-961</linkclipref>
											<mediatype>video</mediatype>
											<trackindex>4</trackindex>
											<clipindex>1</clipindex>
										</link>
										<link>
											<linkclipref>clipitem-968</linkclipref>
											<mediatype>audio</mediatype>
											<trackindex>3</trackindex>
											<clipindex>1</clipindex>
											<groupindex>1</groupindex>
										</link>
										<link>
											<linkclipref>clipitem-971</linkclipref>
											<mediatype>audio</mediatype>
											<trackindex>4</trackindex>
											<clipindex>1</clipindex>
											<groupindex>1</groupindex>
										</link>
										<labels>
											<label2>Forest</label2>
										</labels>
									</clipitem>
									<clipitem id="clipitem-969" premiereChannelType="stereo">
										<masterclipid>masterclip-222</masterclipid>
										<name>Transition 1</name>
										<enabled>TRUE</enabled>
										<duration>160</duration>
										<rate>
											<timebase>30</timebase>
											<ntsc>TRUE</ntsc>
										</rate>
										<start>1822</start>
										<end>1940</end>
										<in>0</in>
										<out>118</out>
										<pproTicksIn>0</pproTicksIn>
										<pproTicksOut>1000128729600</pproTicksOut>
										<sequence id="sequence-30"/>
										<sourcetrack>
											<mediatype>audio</mediatype>
											<trackindex>0</trackindex>
										</sourcetrack>
											<marker>
												<comment></comment>
												<name></name>
												<in>57</in>
												<out>-1</out>
											</marker>
										<link>
											<linkclipref>clipitem-962</linkclipref>
											<mediatype>video</mediatype>
											<trackindex>4</trackindex>
											<clipindex>2</clipindex>
										</link>
										<link>
											<linkclipref>clipitem-969</linkclipref>
											<mediatype>audio</mediatype>
											<trackindex>3</trackindex>
											<clipindex>2</clipindex>
											<groupindex>1</groupindex>
										</link>
										<link>
											<linkclipref>clipitem-972</linkclipref>
											<mediatype>audio</mediatype>
											<trackindex>4</trackindex>
											<clipindex>2</clipindex>
											<groupindex>1</groupindex>
										</link>
										<labels>
											<label2>Forest</label2>
										</labels>
									</clipitem>
									<clipitem id="clipitem-970" premiereChannelType="stereo">
										<masterclipid>masterclip-223</masterclipid>
										<name>Outro</name>
										<enabled>TRUE</enabled>
										<duration>160</duration>
										<rate>
											<timebase>30</timebase>
											<ntsc>TRUE</ntsc>
										</rate>
										<start>5431</start>
										<end>5568</end>
										<in>0</in>
										<out>137</out>
										<pproTicksIn>0</pproTicksIn>
										<pproTicksOut>1161166406400</pproTicksOut>
										<sequence id="sequence-29"/>
										<sourcetrack>
											<mediatype>audio</mediatype>
											<trackindex>0</trackindex>
										</sourcetrack>
											<marker>
												<comment></comment>
												<name></name>
												<in>43</in>
												<out>-1</out>
											</marker>
										<link>
											<linkclipref>clipitem-963</linkclipref>
											<mediatype>video</mediatype>
											<trackindex>4</trackindex>
											<clipindex>3</clipindex>
										</link>
										<link>
											<linkclipref>clipitem-970</linkclipref>
											<mediatype>audio</mediatype>
											<trackindex>3</trackindex>
											<clipindex>3</clipindex>
											<groupindex>1</groupindex>
										</link>
										<link>
											<linkclipref>clipitem-973</linkclipref>
											<mediatype>audio</mediatype>
											<trackindex>4</trackindex>
											<clipindex>3</clipindex>
											<groupindex>1</groupindex>
										</link>
										<labels>
											<label2>Forest</label2>
										</labels>
									</clipitem>
									<enabled>TRUE</enabled>
									<locked>FALSE</locked>
									<outputchannelindex>1</outputchannelindex>
								</track>
								<track TL.SQTrackAudioKeyframeStyle="0" TL.SQTrackShy="0" TL.SQTrackExpandedHeight="25" TL.SQTrackExpanded="0" MZ.TrackTargeted="1" PannerCurrentValue="0.5" PannerIsInverted="true" PannerStartKeyframe="-91445760000000000,0.5,0,0,0,0,0,0" PannerName="Balance" currentExplodedTrackIndex="1" totalExplodedTrackCount="2" premiereTrackType="Stereo">
									<clipitem id="clipitem-971" premiereChannelType="stereo">
										<masterclipid>masterclip-221</masterclipid>
										<name>Intro</name>
										<enabled>TRUE</enabled>
										<duration>160</duration>
										<rate>
											<timebase>30</timebase>
											<ntsc>TRUE</ntsc>
										</rate>
										<start>0</start>
										<end>115</end>
										<in>0</in>
										<out>115</out>
										<pproTicksIn>0</pproTicksIn>
										<pproTicksOut>974701728000</pproTicksOut>
										<sequence id="sequence-28"/>
										<sourcetrack>
											<mediatype>audio</mediatype>
											<trackindex>1</trackindex>
										</sourcetrack>
											<marker>
												<comment></comment>
												<name></name>
												<in>82</in>
												<out>-1</out>
											</marker>
										<link>
											<linkclipref>clipitem-961</linkclipref>
											<mediatype>video</mediatype>
											<trackindex>4</trackindex>
											<clipindex>1</clipindex>
										</link>
										<link>
											<linkclipref>clipitem-968</linkclipref>
											<mediatype>audio</mediatype>
											<trackindex>3</trackindex>
											<clipindex>1</clipindex>
											<groupindex>1</groupindex>
										</link>
										<link>
											<linkclipref>clipitem-971</linkclipref>
											<mediatype>audio</mediatype>
											<trackindex>4</trackindex>
											<clipindex>1</clipindex>
											<groupindex>1</groupindex>
										</link>
										<labels>
											<label2>Forest</label2>
										</labels>
									</clipitem>
									<clipitem id="clipitem-972" premiereChannelType="stereo">
										<masterclipid>masterclip-222</masterclipid>
										<name>Transition 1</name>
										<enabled>TRUE</enabled>
										<duration>160</duration>
										<rate>
											<timebase>30</timebase>
											<ntsc>TRUE</ntsc>
										</rate>
										<start>1822</start>
										<end>1940</end>
										<in>0</in>
										<out>118</out>
										<pproTicksIn>0</pproTicksIn>
										<pproTicksOut>1000128729600</pproTicksOut>
										<sequence id="sequence-30"/>
										<sourcetrack>
											<mediatype>audio</mediatype>
											<trackindex>1</trackindex>
										</sourcetrack>
											<marker>
												<comment></comment>
												<name></name>
												<in>57</in>
												<out>-1</out>
											</marker>
										<link>
											<linkclipref>clipitem-962</linkclipref>
											<mediatype>video</mediatype>
											<trackindex>4</trackindex>
											<clipindex>2</clipindex>
										</link>
										<link>
											<linkclipref>clipitem-969</linkclipref>
											<mediatype>audio</mediatype>
											<trackindex>3</trackindex>
											<clipindex>2</clipindex>
											<groupindex>1</groupindex>
										</link>
										<link>
											<linkclipref>clipitem-972</linkclipref>
											<mediatype>audio</mediatype>
											<trackindex>4</trackindex>
											<clipindex>2</clipindex>
											<groupindex>1</groupindex>
										</link>
										<labels>
											<label2>Forest</label2>
										</labels>
									</clipitem>
									<clipitem id="clipitem-973" premiereChannelType="stereo">
										<masterclipid>masterclip-223</masterclipid>
										<name>Outro</name>
										<enabled>TRUE</enabled>
										<duration>160</duration>
										<rate>
											<timebase>30</timebase>
											<ntsc>TRUE</ntsc>
										</rate>
										<start>5431</start>
										<end>5568</end>
										<in>0</in>
										<out>137</out>
										<pproTicksIn>0</pproTicksIn>
										<pproTicksOut>1161166406400</pproTicksOut>
										<sequence id="sequence-29"/>
										<sourcetrack>
											<mediatype>audio</mediatype>
											<trackindex>1</trackindex>
										</sourcetrack>
											<marker>
												<comment></comment>
												<name></name>
												<in>43</in>
												<out>-1</out>
											</marker>
										<link>
											<linkclipref>clipitem-963</linkclipref>
											<mediatype>video</mediatype>
											<trackindex>4</trackindex>
											<clipindex>3</clipindex>
										</link>
										<link>
											<linkclipref>clipitem-970</linkclipref>
											<mediatype>audio</mediatype>
											<trackindex>3</trackindex>
											<clipindex>3</clipindex>
											<groupindex>1</groupindex>
										</link>
										<link>
											<linkclipref>clipitem-973</linkclipref>
											<mediatype>audio</mediatype>
											<trackindex>4</trackindex>
											<clipindex>3</clipindex>
											<groupindex>1</groupindex>
										</link>
										<labels>
											<label2>Forest</label2>
										</labels>
									</clipitem>
									<enabled>TRUE</enabled>
									<locked>FALSE</locked>
									<outputchannelindex>2</outputchannelindex>
								</track>
								<track TL.SQTrackAudioKeyframeStyle="0" TL.SQTrackShy="0" TL.SQTrackExpandedHeight="25" TL.SQTrackExpanded="0" MZ.TrackTargeted="1" PannerCurrentValue="0.5" PannerIsInverted="true" PannerStartKeyframe="-91445760000000000,0.5,0,0,0,0,0,0" PannerName="Balance" currentExplodedTrackIndex="0" totalExplodedTrackCount="2" premiereTrackType="Stereo">
									<enabled>TRUE</enabled>
									<locked>FALSE</locked>
									<outputchannelindex>1</outputchannelindex>
								</track>
								<track TL.SQTrackAudioKeyframeStyle="0" TL.SQTrackShy="0" TL.SQTrackExpandedHeight="25" TL.SQTrackExpanded="0" MZ.TrackTargeted="1" PannerCurrentValue="0.5" PannerIsInverted="true" PannerStartKeyframe="-91445760000000000,0.5,0,0,0,0,0,0" PannerName="Balance" currentExplodedTrackIndex="1" totalExplodedTrackCount="2" premiereTrackType="Stereo">
									<enabled>TRUE</enabled>
									<locked>FALSE</locked>
									<outputchannelindex>2</outputchannelindex>
								</track>
							</audio>
						</media>
						<timecode>
							<rate>
								<timebase>30</timebase>
								<ntsc>TRUE</ntsc>
							</rate>
							<string>00;00;00;00</string>
							<frame>0</frame>
							<displayformat>DF</displayformat>
						</timecode>
						<labels>
							<label2>Forest</label2>
						</labels>
						<logginginfo>
							<description></description>
							<scene></scene>
							<shottake></shottake>
							<lognote></lognote>
							<good></good>
							<originalvideofilename></originalvideofilename>
							<originalaudiofilename></originalaudiofilename>
						</logginginfo>
					</sequence>
				</children>
			</bin>
		</children>
	</project>
</xmeml>
