<?xml version="1.0" encoding="UTF-8"?>
<!DOCTYPE xmeml>
<xmeml version="4">
	<project>
		<name>Oddly XML Copied Sequences</name>
		<children>
			<bin>
				<name>05_Music</name>
				<labels>
					<label2>Brown</label2>
				</labels>
				<children>
					<bin>
						<name>Big bad music re-sort Epidemic and Artlist 07-23</name>
						<children>
							<bin>
								<name>02_Adult Swim bumpers - medium and best</name>
								<children>
									<clip id="masterclip-1" explodedTracks="true">
										<uuid>32f702f5-dde8-4c59-8a0d-804c418de139</uuid>
										<masterclipid>masterclip-1</masterclipid>
										<ismasterclip>TRUE</ismasterclip>
										<duration>2854</duration>
										<rate>
											<timebase>30</timebase>
											<ntsc>TRUE</ntsc>
										</rate>
										<name>ES_NEAR - SINY.mp3</name>
										<media>
											<audio>
												<track>
													<clipitem id="clipitem-1">
														<masterclipid>masterclip-1</masterclipid>
														<name>ES_NEAR - SINY.mp3</name>
														<rate>
															<timebase>30</timebase>
															<ntsc>TRUE</ntsc>
														</rate>
														<file id="file-1">
															<name>ES_NEAR - SINY.mp3</name>
															<pathurl>file://localhost/Volumes/Satisfactum%20Satisfactorum/00_Hub%20World/5_Assets/MUSIC/Epidemic/ES_NEAR%20-%20SINY.mp3</pathurl>
															<rate>
																<timebase>30</timebase>
																<ntsc>TRUE</ntsc>
															</rate>
															<duration>2854</duration>
															<timecode>
																<rate>
																	<timebase>30</timebase>
																	<ntsc>TRUE</ntsc>
																</rate>
																<string>00;00;00;00</string>
																<frame>0</frame>
																<displayformat>DF</displayformat>
															</timecode>
															<media>
																<audio>
																	<samplecharacteristics>
																		<depth>16</depth>
																		<samplerate>48000</samplerate>
																	</samplecharacteristics>
																	<channelcount>2</channelcount>
																</audio>
															</media>
														</file>
														<sourcetrack>
															<mediatype>audio</mediatype>
															<trackindex>1</trackindex>
														</sourcetrack>
														<link>
															<linkclipref>clipitem-1</linkclipref>
															<mediatype>audio</mediatype>
															<trackindex>1</trackindex>
															<clipindex>1</clipindex>
															<groupindex>1</groupindex>
														</link>
														<link>
															<linkclipref>clipitem-2</linkclipref>
															<mediatype>audio</mediatype>
															<trackindex>2</trackindex>
															<clipindex>1</clipindex>
															<groupindex>1</groupindex>
														</link>
													</clipitem>
												</track>
												<track>
													<clipitem id="clipitem-2">
														<masterclipid>masterclip-1</masterclipid>
														<name>ES_NEAR - SINY.mp3</name>
														<rate>
															<timebase>30</timebase>
															<ntsc>TRUE</ntsc>
														</rate>
														<file id="file-1"/>
														<sourcetrack>
															<mediatype>audio</mediatype>
															<trackindex>2</trackindex>
														</sourcetrack>
														<link>
															<linkclipref>clipitem-1</linkclipref>
															<mediatype>audio</mediatype>
															<trackindex>1</trackindex>
															<clipindex>1</clipindex>
															<groupindex>1</groupindex>
														</link>
														<link>
															<linkclipref>clipitem-2</linkclipref>
															<mediatype>audio</mediatype>
															<trackindex>2</trackindex>
															<clipindex>1</clipindex>
															<groupindex>1</groupindex>
														</link>
													</clipitem>
												</track>
											</audio>
										</media>
										<logginginfo>
											<description></description>
											<scene></scene>
											<shottake></shottake>
											<lognote></lognote>
											<good></good>
											<originalvideofilename></originalvideofilename>
											<originalaudiofilename></originalaudiofilename>
										</logginginfo>
										<colorinfo>
											<lut></lut>
											<lut1></lut1>
											<asc_sop></asc_sop>
											<asc_sat></asc_sat>
											<lut2></lut2>
										</colorinfo>
										<labels>
											<label2>Forest</label2>
										</labels>
									</clip>
									<clip id="masterclip-2" explodedTracks="true">
										<uuid>50261c10-67b7-49ef-92e3-b21bca485258</uuid>
										<masterclipid>masterclip-2</masterclipid>
										<ismasterclip>TRUE</ismasterclip>
										<duration>8818</duration>
										<rate>
											<timebase>30</timebase>
											<ntsc>TRUE</ntsc>
										</rate>
										<in>413</in>
										<name>KOLA - Hibernate.mp3</name>
										<media>
											<audio>
												<track>
													<clipitem id="clipitem-3">
														<masterclipid>masterclip-2</masterclipid>
														<name>KOLA - Hibernate.mp3</name>
														<rate>
															<timebase>30</timebase>
															<ntsc>TRUE</ntsc>
														</rate>
														<file id="file-2">
															<name>KOLA - Hibernate.mp3</name>
															<pathurl>file://localhost/Volumes/Satisfactum%20Satisfactorum/00_Hub%20World/5_Assets/MUSIC/Big%20bad%20music%20re-sort%20Epidemic%20and%20Artlist%2007-23/02_Adult%20Swim%20bumpers%20-%20medium%20and%20best/KOLA%20-%20Hibernate.mp3</pathurl>
															<rate>
																<timebase>30</timebase>
																<ntsc>TRUE</ntsc>
															</rate>
															<duration>8818</duration>
															<timecode>
																<rate>
																	<timebase>30</timebase>
																	<ntsc>TRUE</ntsc>
																</rate>
																<string>00;00;00;00</string>
																<frame>0</frame>
																<displayformat>DF</displayformat>
															</timecode>
															<media>
																<audio>
																	<samplecharacteristics>
																		<depth>16</depth>
																		<samplerate>44100</samplerate>
																	</samplecharacteristics>
																	<channelcount>2</channelcount>
																</audio>
															</media>
														</file>
														<sourcetrack>
															<mediatype>audio</mediatype>
															<trackindex>1</trackindex>
														</sourcetrack>
														<link>
															<linkclipref>clipitem-3</linkclipref>
															<mediatype>audio</mediatype>
															<trackindex>1</trackindex>
															<clipindex>1</clipindex>
															<groupindex>1</groupindex>
														</link>
														<link>
															<linkclipref>clipitem-4</linkclipref>
															<mediatype>audio</mediatype>
															<trackindex>2</trackindex>
															<clipindex>1</clipindex>
															<groupindex>1</groupindex>
														</link>
													</clipitem>
												</track>
												<track>
													<clipitem id="clipitem-4">
														<masterclipid>masterclip-2</masterclipid>
														<name>KOLA - Hibernate.mp3</name>
														<rate>
															<timebase>30</timebase>
															<ntsc>TRUE</ntsc>
														</rate>
														<file id="file-2"/>
														<sourcetrack>
															<mediatype>audio</mediatype>
															<trackindex>2</trackindex>
														</sourcetrack>
														<link>
															<linkclipref>clipitem-3</linkclipref>
															<mediatype>audio</mediatype>
															<trackindex>1</trackindex>
															<clipindex>1</clipindex>
															<groupindex>1</groupindex>
														</link>
														<link>
															<linkclipref>clipitem-4</linkclipref>
															<mediatype>audio</mediatype>
															<trackindex>2</trackindex>
															<clipindex>1</clipindex>
															<groupindex>1</groupindex>
														</link>
													</clipitem>
												</track>
											</audio>
										</media>
										<logginginfo>
											<description></description>
											<scene></scene>
											<shottake></shottake>
											<lognote></lognote>
											<good></good>
											<originalvideofilename></originalvideofilename>
											<originalaudiofilename></originalaudiofilename>
										</logginginfo>
										<colorinfo>
											<lut></lut>
											<lut1></lut1>
											<asc_sop></asc_sop>
											<asc_sat></asc_sat>
											<lut2></lut2>
										</colorinfo>
										<labels>
											<label2>Forest</label2>
										</labels>
									</clip>
									<clip id="masterclip-3" explodedTracks="true">
										<uuid>bd17f6ef-259a-4455-9d8b-f7f908a2a3d0</uuid>
										<masterclipid>masterclip-3</masterclipid>
										<ismasterclip>TRUE</ismasterclip>
										<duration>4178</duration>
										<rate>
											<timebase>30</timebase>
											<ntsc>TRUE</ntsc>
										</rate>
										<in>421</in>
										<name>ES_Some Days Ago - Dylan Sitts.mp3</name>
										<media>
											<audio>
												<track>
													<clipitem id="clipitem-5">
														<masterclipid>masterclip-3</masterclipid>
														<name>ES_Some Days Ago - Dylan Sitts.mp3</name>
														<rate>
															<timebase>30</timebase>
															<ntsc>TRUE</ntsc>
														</rate>
														<file id="file-3">
															<name>ES_Some Days Ago - Dylan Sitts.mp3</name>
															<pathurl>file://localhost/Volumes/Satisfactum%20Satisfactorum/00_Hub%20World/5_Assets/MUSIC/New%20music%2002-03-22/ES_Some%20Days%20Ago%20-%20Dylan%20Sitts.mp3</pathurl>
															<rate>
																<timebase>30</timebase>
																<ntsc>TRUE</ntsc>
															</rate>
															<duration>4178</duration>
															<timecode>
																<rate>
																	<timebase>30</timebase>
																	<ntsc>TRUE</ntsc>
																</rate>
																<string>00;00;00;00</string>
																<frame>0</frame>
																<displayformat>DF</displayformat>
															</timecode>
															<media>
																<audio>
																	<samplecharacteristics>
																		<depth>16</depth>
																		<samplerate>48000</samplerate>
																	</samplecharacteristics>
																	<channelcount>2</channelcount>
																</audio>
															</media>
														</file>
														<sourcetrack>
															<mediatype>audio</mediatype>
															<trackindex>1</trackindex>
														</sourcetrack>
														<link>
															<linkclipref>clipitem-5</linkclipref>
															<mediatype>audio</mediatype>
															<trackindex>1</trackindex>
															<clipindex>1</clipindex>
															<groupindex>1</groupindex>
														</link>
														<link>
															<linkclipref>clipitem-6</linkclipref>
															<mediatype>audio</mediatype>
															<trackindex>2</trackindex>
															<clipindex>1</clipindex>
															<groupindex>1</groupindex>
														</link>
													</clipitem>
												</track>
												<track>
													<clipitem id="clipitem-6">
														<masterclipid>masterclip-3</masterclipid>
														<name>ES_Some Days Ago - Dylan Sitts.mp3</name>
														<rate>
															<timebase>30</timebase>
															<ntsc>TRUE</ntsc>
														</rate>
														<file id="file-3"/>
														<sourcetrack>
															<mediatype>audio</mediatype>
															<trackindex>2</trackindex>
														</sourcetrack>
														<link>
															<linkclipref>clipitem-5</linkclipref>
															<mediatype>audio</mediatype>
															<trackindex>1</trackindex>
															<clipindex>1</clipindex>
															<groupindex>1</groupindex>
														</link>
														<link>
															<linkclipref>clipitem-6</linkclipref>
															<mediatype>audio</mediatype>
															<trackindex>2</trackindex>
															<clipindex>1</clipindex>
															<groupindex>1</groupindex>
														</link>
													</clipitem>
												</track>
											</audio>
										</media>
										<logginginfo>
											<description></description>
											<scene></scene>
											<shottake></shottake>
											<lognote></lognote>
											<good></good>
											<originalvideofilename></originalvideofilename>
											<originalaudiofilename></originalaudiofilename>
										</logginginfo>
										<colorinfo>
											<lut></lut>
											<lut1></lut1>
											<asc_sop></asc_sop>
											<asc_sat></asc_sat>
											<lut2></lut2>
										</colorinfo>
										<labels>
											<label2>Forest</label2>
										</labels>
									</clip>
									<clip id="masterclip-4" explodedTracks="true">
										<uuid>5bdfc559-6117-427b-ae2c-cadb06a772bf</uuid>
										<masterclipid>masterclip-4</masterclipid>
										<ismasterclip>TRUE</ismasterclip>
										<duration>6484</duration>
										<rate>
											<timebase>30</timebase>
											<ntsc>TRUE</ntsc>
										</rate>
										<name>ES_Too Late for Romance - Wendy Marcini.mp3</name>
										<media>
											<audio>
												<track>
													<clipitem id="clipitem-7">
														<masterclipid>masterclip-4</masterclipid>
														<name>ES_Too Late for Romance - Wendy Marcini.mp3</name>
														<rate>
															<timebase>30</timebase>
															<ntsc>TRUE</ntsc>
														</rate>
														<file id="file-4">
															<name>ES_Too Late for Romance - Wendy Marcini.mp3</name>
															<pathurl>file://localhost/Volumes/Satisfactum%20Satisfactorum/00_Hub%20World/5_Assets/MUSIC/Big%20bad%20music%20re-sort%20Epidemic%20and%20Artlist%2007-23/02_Adult%20Swim%20bumpers%20-%20medium%20and%20best/ES_Too%20Late%20for%20Romance%20-%20Wendy%20Marcini.mp3</pathurl>
															<rate>
																<timebase>30</timebase>
																<ntsc>TRUE</ntsc>
															</rate>
															<duration>6484</duration>
															<timecode>
																<rate>
																	<timebase>30</timebase>
																	<ntsc>TRUE</ntsc>
																</rate>
																<string>00;00;00;00</string>
																<frame>0</frame>
																<displayformat>DF</displayformat>
															</timecode>
															<media>
																<audio>
																	<samplecharacteristics>
																		<depth>16</depth>
																		<samplerate>48000</samplerate>
																	</samplecharacteristics>
																	<channelcount>2</channelcount>
																</audio>
															</media>
														</file>
														<sourcetrack>
															<mediatype>audio</mediatype>
															<trackindex>1</trackindex>
														</sourcetrack>
														<link>
															<linkclipref>clipitem-7</linkclipref>
															<mediatype>audio</mediatype>
															<trackindex>1</trackindex>
															<clipindex>1</clipindex>
															<groupindex>1</groupindex>
														</link>
														<link>
															<linkclipref>clipitem-8</linkclipref>
															<mediatype>audio</mediatype>
															<trackindex>2</trackindex>
															<clipindex>1</clipindex>
															<groupindex>1</groupindex>
														</link>
													</clipitem>
												</track>
												<track>
													<clipitem id="clipitem-8">
														<masterclipid>masterclip-4</masterclipid>
														<name>ES_Too Late for Romance - Wendy Marcini.mp3</name>
														<rate>
															<timebase>30</timebase>
															<ntsc>TRUE</ntsc>
														</rate>
														<file id="file-4"/>
														<sourcetrack>
															<mediatype>audio</mediatype>
															<trackindex>2</trackindex>
														</sourcetrack>
														<link>
															<linkclipref>clipitem-7</linkclipref>
															<mediatype>audio</mediatype>
															<trackindex>1</trackindex>
															<clipindex>1</clipindex>
															<groupindex>1</groupindex>
														</link>
														<link>
															<linkclipref>clipitem-8</linkclipref>
															<mediatype>audio</mediatype>
															<trackindex>2</trackindex>
															<clipindex>1</clipindex>
															<groupindex>1</groupindex>
														</link>
													</clipitem>
												</track>
											</audio>
										</media>
										<logginginfo>
											<description></description>
											<scene></scene>
											<shottake></shottake>
											<lognote></lognote>
											<good></good>
											<originalvideofilename></originalvideofilename>
											<originalaudiofilename></originalaudiofilename>
										</logginginfo>
										<colorinfo>
											<lut></lut>
											<lut1></lut1>
											<asc_sop></asc_sop>
											<asc_sat></asc_sat>
											<lut2></lut2>
										</colorinfo>
										<labels>
											<label2>Forest</label2>
										</labels>
									</clip>
									<clip id="masterclip-5" explodedTracks="true">
										<uuid>01cc0ee2-4e39-4946-b1f6-23f7d3600c09</uuid>
										<masterclipid>masterclip-5</masterclipid>
										<ismasterclip>TRUE</ismasterclip>
										<duration>4315</duration>
										<rate>
											<timebase>30</timebase>
											<ntsc>TRUE</ntsc>
										</rate>
										<in>351</in>
										<name>ES_English Breakfast - Jobii.mp3</name>
										<media>
											<audio>
												<track>
													<clipitem id="clipitem-9">
														<masterclipid>masterclip-5</masterclipid>
														<name>ES_English Breakfast - Jobii.mp3</name>
														<rate>
															<timebase>30</timebase>
															<ntsc>TRUE</ntsc>
														</rate>
														<file id="file-5">
															<name>ES_English Breakfast - Jobii.mp3</name>
															<pathurl>file://localhost/Volumes/Satisfactum%20Satisfactorum/00_Hub%20World/5_Assets/MUSIC/Big%20bad%20music%20re-sort%20Epidemic%20and%20Artlist%2007-23/02_Adult%20Swim%20bumpers%20-%20medium%20and%20best/ES_English%20Breakfast%20-%20Jobii.mp3</pathurl>
															<rate>
																<timebase>30</timebase>
																<ntsc>TRUE</ntsc>
															</rate>
															<duration>4315</duration>
															<timecode>
																<rate>
																	<timebase>30</timebase>
																	<ntsc>TRUE</ntsc>
																</rate>
																<string>00;00;00;00</string>
																<frame>0</frame>
																<displayformat>DF</displayformat>
															</timecode>
															<media>
																<audio>
																	<samplecharacteristics>
																		<depth>16</depth>
																		<samplerate>48000</samplerate>
																	</samplecharacteristics>
																	<channelcount>2</channelcount>
																</audio>
															</media>
														</file>
														<sourcetrack>
															<mediatype>audio</mediatype>
															<trackindex>1</trackindex>
														</sourcetrack>
														<link>
															<linkclipref>clipitem-9</linkclipref>
															<mediatype>audio</mediatype>
															<trackindex>1</trackindex>
															<clipindex>1</clipindex>
															<groupindex>1</groupindex>
														</link>
														<link>
															<linkclipref>clipitem-10</linkclipref>
															<mediatype>audio</mediatype>
															<trackindex>2</trackindex>
															<clipindex>1</clipindex>
															<groupindex>1</groupindex>
														</link>
													</clipitem>
												</track>
												<track>
													<clipitem id="clipitem-10">
														<masterclipid>masterclip-5</masterclipid>
														<name>ES_English Breakfast - Jobii.mp3</name>
														<rate>
															<timebase>30</timebase>
															<ntsc>TRUE</ntsc>
														</rate>
														<file id="file-5"/>
														<sourcetrack>
															<mediatype>audio</mediatype>
															<trackindex>2</trackindex>
														</sourcetrack>
														<link>
															<linkclipref>clipitem-9</linkclipref>
															<mediatype>audio</mediatype>
															<trackindex>1</trackindex>
															<clipindex>1</clipindex>
															<groupindex>1</groupindex>
														</link>
														<link>
															<linkclipref>clipitem-10</linkclipref>
															<mediatype>audio</mediatype>
															<trackindex>2</trackindex>
															<clipindex>1</clipindex>
															<groupindex>1</groupindex>
														</link>
													</clipitem>
												</track>
											</audio>
										</media>
										<logginginfo>
											<description></description>
											<scene></scene>
											<shottake></shottake>
											<lognote></lognote>
											<good></good>
											<originalvideofilename></originalvideofilename>
											<originalaudiofilename></originalaudiofilename>
										</logginginfo>
										<colorinfo>
											<lut></lut>
											<lut1></lut1>
											<asc_sop></asc_sop>
											<asc_sat></asc_sat>
											<lut2></lut2>
										</colorinfo>
										<labels>
											<label2>Forest</label2>
										</labels>
									</clip>
									<clip id="masterclip-6" explodedTracks="true">
										<uuid>04bc4b02-0d6a-4876-b3ec-b53ecdc3bce4</uuid>
										<masterclipid>masterclip-6</masterclipid>
										<ismasterclip>TRUE</ismasterclip>
										<duration>5604</duration>
										<rate>
											<timebase>30</timebase>
											<ntsc>TRUE</ntsc>
										</rate>
										<name>mellow-trip by nbdy-nprtnt Artlist.mp3</name>
										<media>
											<audio>
												<track>
													<clipitem id="clipitem-11">
														<masterclipid>masterclip-6</masterclipid>
														<name>mellow-trip by nbdy-nprtnt Artlist.mp3</name>
														<rate>
															<timebase>30</timebase>
															<ntsc>TRUE</ntsc>
														</rate>
														<file id="file-6">
															<name>mellow-trip by nbdy-nprtnt Artlist.mp3</name>
															<pathurl>file://localhost/Users/dalecampo/Downloads/00_Downloads%20to%20Sort/Artlist%20Tracks%20Used%20for%20Form/mellow-trip%20by%20nbdy-nprtnt%20Artlist.mp3</pathurl>
															<rate>
																<timebase>30</timebase>
																<ntsc>TRUE</ntsc>
															</rate>
															<duration>5604</duration>
															<timecode>
																<rate>
																	<timebase>30</timebase>
																	<ntsc>TRUE</ntsc>
																</rate>
																<string>00;00;00;00</string>
																<frame>0</frame>
																<displayformat>DF</displayformat>
															</timecode>
															<media>
																<audio>
																	<samplecharacteristics>
																		<depth>16</depth>
																		<samplerate>44100</samplerate>
																	</samplecharacteristics>
																	<channelcount>2</channelcount>
																</audio>
															</media>
														</file>
														<sourcetrack>
															<mediatype>audio</mediatype>
															<trackindex>1</trackindex>
														</sourcetrack>
														<link>
															<linkclipref>clipitem-11</linkclipref>
															<mediatype>audio</mediatype>
															<trackindex>1</trackindex>
															<clipindex>1</clipindex>
															<groupindex>1</groupindex>
														</link>
														<link>
															<linkclipref>clipitem-12</linkclipref>
															<mediatype>audio</mediatype>
															<trackindex>2</trackindex>
															<clipindex>1</clipindex>
															<groupindex>1</groupindex>
														</link>
													</clipitem>
												</track>
												<track>
													<clipitem id="clipitem-12">
														<masterclipid>masterclip-6</masterclipid>
														<name>mellow-trip by nbdy-nprtnt Artlist.mp3</name>
														<rate>
															<timebase>30</timebase>
															<ntsc>TRUE</ntsc>
														</rate>
														<file id="file-6"/>
														<sourcetrack>
															<mediatype>audio</mediatype>
															<trackindex>2</trackindex>
														</sourcetrack>
														<link>
															<linkclipref>clipitem-11</linkclipref>
															<mediatype>audio</mediatype>
															<trackindex>1</trackindex>
															<clipindex>1</clipindex>
															<groupindex>1</groupindex>
														</link>
														<link>
															<linkclipref>clipitem-12</linkclipref>
															<mediatype>audio</mediatype>
															<trackindex>2</trackindex>
															<clipindex>1</clipindex>
															<groupindex>1</groupindex>
														</link>
													</clipitem>
												</track>
											</audio>
										</media>
										<logginginfo>
											<description></description>
											<scene></scene>
											<shottake></shottake>
											<lognote>All Rights Reserved to www.Art-list.io</lognote>
											<good></good>
											<originalvideofilename></originalvideofilename>
											<originalaudiofilename></originalaudiofilename>
										</logginginfo>
										<colorinfo>
											<lut></lut>
											<lut1></lut1>
											<asc_sop></asc_sop>
											<asc_sat></asc_sat>
											<lut2></lut2>
										</colorinfo>
										<labels>
											<label2>Cerulean</label2>
										</labels>
									</clip>
									<clip id="masterclip-7" explodedTracks="true">
										<uuid>ba478abb-5487-4a54-be63-48a1f83cabf7</uuid>
										<masterclipid>masterclip-7</masterclipid>
										<ismasterclip>TRUE</ismasterclip>
										<duration>3802</duration>
										<rate>
											<timebase>30</timebase>
											<ntsc>TRUE</ntsc>
										</rate>
										<in>925</in>
										<name>ES_Anne Arbour - baegel.mp3</name>
										<media>
											<audio>
												<track>
													<clipitem id="clipitem-13">
														<masterclipid>masterclip-7</masterclipid>
														<name>ES_Anne Arbour - baegel.mp3</name>
														<rate>
															<timebase>30</timebase>
															<ntsc>TRUE</ntsc>
														</rate>
														<file id="file-7">
															<name>ES_Anne Arbour - baegel.mp3</name>
															<pathurl>file://localhost/Volumes/Satisfactum%20Satisfactorum/00_Hub%20World/5_Assets/MUSIC/Big%20bad%20music%20re-sort%20Epidemic%20and%20Artlist%2007-23/02_Adult%20Swim%20bumpers%20-%20medium%20and%20best/ES_Anne%20Arbour%20-%20baegel.mp3</pathurl>
															<rate>
																<timebase>30</timebase>
																<ntsc>TRUE</ntsc>
															</rate>
															<duration>3802</duration>
															<timecode>
																<rate>
																	<timebase>30</timebase>
																	<ntsc>TRUE</ntsc>
																</rate>
																<string>00;00;00;00</string>
																<frame>0</frame>
																<displayformat>DF</displayformat>
															</timecode>
															<media>
																<audio>
																	<samplecharacteristics>
																		<depth>16</depth>
																		<samplerate>48000</samplerate>
																	</samplecharacteristics>
																	<channelcount>2</channelcount>
																</audio>
															</media>
														</file>
														<sourcetrack>
															<mediatype>audio</mediatype>
															<trackindex>1</trackindex>
														</sourcetrack>
														<link>
															<linkclipref>clipitem-13</linkclipref>
															<mediatype>audio</mediatype>
															<trackindex>1</trackindex>
															<clipindex>1</clipindex>
															<groupindex>1</groupindex>
														</link>
														<link>
															<linkclipref>clipitem-14</linkclipref>
															<mediatype>audio</mediatype>
															<trackindex>2</trackindex>
															<clipindex>1</clipindex>
															<groupindex>1</groupindex>
														</link>
													</clipitem>
												</track>
												<track>
													<clipitem id="clipitem-14">
														<masterclipid>masterclip-7</masterclipid>
														<name>ES_Anne Arbour - baegel.mp3</name>
														<rate>
															<timebase>30</timebase>
															<ntsc>TRUE</ntsc>
														</rate>
														<file id="file-7"/>
														<sourcetrack>
															<mediatype>audio</mediatype>
															<trackindex>2</trackindex>
														</sourcetrack>
														<link>
															<linkclipref>clipitem-13</linkclipref>
															<mediatype>audio</mediatype>
															<trackindex>1</trackindex>
															<clipindex>1</clipindex>
															<groupindex>1</groupindex>
														</link>
														<link>
															<linkclipref>clipitem-14</linkclipref>
															<mediatype>audio</mediatype>
															<trackindex>2</trackindex>
															<clipindex>1</clipindex>
															<groupindex>1</groupindex>
														</link>
													</clipitem>
												</track>
											</audio>
										</media>
										<logginginfo>
											<description></description>
											<scene></scene>
											<shottake></shottake>
											<lognote></lognote>
											<good></good>
											<originalvideofilename></originalvideofilename>
											<originalaudiofilename></originalaudiofilename>
										</logginginfo>
										<colorinfo>
											<lut></lut>
											<lut1></lut1>
											<asc_sop></asc_sop>
											<asc_sat></asc_sat>
											<lut2></lut2>
										</colorinfo>
										<labels>
											<label2>Forest</label2>
										</labels>
									</clip>
									<clip id="masterclip-8" explodedTracks="true">
										<uuid>594efc37-5a3e-485b-9d79-2aaa48ab6e4f</uuid>
										<masterclipid>masterclip-8</masterclipid>
										<ismasterclip>TRUE</ismasterclip>
										<duration>4389</duration>
										<rate>
											<timebase>30</timebase>
											<ntsc>TRUE</ntsc>
										</rate>
										<in>348</in>
										<name>ES_Anamorphic - baegel.mp3</name>
										<media>
											<audio>
												<track>
													<clipitem id="clipitem-15">
														<masterclipid>masterclip-8</masterclipid>
														<name>ES_Anamorphic - baegel.mp3</name>
														<rate>
															<timebase>30</timebase>
															<ntsc>TRUE</ntsc>
														</rate>
														<file id="file-8">
															<name>ES_Anamorphic - baegel.mp3</name>
															<pathurl>file://localhost/Volumes/Satisfactum%20Satisfactorum/00_Hub%20World/5_Assets/MUSIC/Big%20bad%20music%20re-sort%20Epidemic%20and%20Artlist%2007-23/02_Adult%20Swim%20bumpers%20-%20medium%20and%20best/ES_Anamorphic%20-%20baegel.mp3</pathurl>
															<rate>
																<timebase>30</timebase>
																<ntsc>TRUE</ntsc>
															</rate>
															<duration>4389</duration>
															<timecode>
																<rate>
																	<timebase>30</timebase>
																	<ntsc>TRUE</ntsc>
																</rate>
																<string>00;00;00;00</string>
																<frame>0</frame>
																<displayformat>DF</displayformat>
															</timecode>
															<media>
																<audio>
																	<samplecharacteristics>
																		<depth>16</depth>
																		<samplerate>48000</samplerate>
																	</samplecharacteristics>
																	<channelcount>2</channelcount>
																</audio>
															</media>
														</file>
														<sourcetrack>
															<mediatype>audio</mediatype>
															<trackindex>1</trackindex>
														</sourcetrack>
														<link>
															<linkclipref>clipitem-15</linkclipref>
															<mediatype>audio</mediatype>
															<trackindex>1</trackindex>
															<clipindex>1</clipindex>
															<groupindex>1</groupindex>
														</link>
														<link>
															<linkclipref>clipitem-16</linkclipref>
															<mediatype>audio</mediatype>
															<trackindex>2</trackindex>
															<clipindex>1</clipindex>
															<groupindex>1</groupindex>
														</link>
													</clipitem>
												</track>
												<track>
													<clipitem id="clipitem-16">
														<masterclipid>masterclip-8</masterclipid>
														<name>ES_Anamorphic - baegel.mp3</name>
														<rate>
															<timebase>30</timebase>
															<ntsc>TRUE</ntsc>
														</rate>
														<file id="file-8"/>
														<sourcetrack>
															<mediatype>audio</mediatype>
															<trackindex>2</trackindex>
														</sourcetrack>
														<link>
															<linkclipref>clipitem-15</linkclipref>
															<mediatype>audio</mediatype>
															<trackindex>1</trackindex>
															<clipindex>1</clipindex>
															<groupindex>1</groupindex>
														</link>
														<link>
															<linkclipref>clipitem-16</linkclipref>
															<mediatype>audio</mediatype>
															<trackindex>2</trackindex>
															<clipindex>1</clipindex>
															<groupindex>1</groupindex>
														</link>
													</clipitem>
												</track>
											</audio>
										</media>
										<logginginfo>
											<description></description>
											<scene></scene>
											<shottake></shottake>
											<lognote></lognote>
											<good></good>
											<originalvideofilename></originalvideofilename>
											<originalaudiofilename></originalaudiofilename>
										</logginginfo>
										<colorinfo>
											<lut></lut>
											<lut1></lut1>
											<asc_sop></asc_sop>
											<asc_sat></asc_sat>
											<lut2></lut2>
										</colorinfo>
										<labels>
											<label2>Forest</label2>
										</labels>
									</clip>
									<clip id="masterclip-9" explodedTracks="true">
										<uuid>6262af8e-103a-4983-bcb7-9f3044af6a8b</uuid>
										<masterclipid>masterclip-9</masterclipid>
										<ismasterclip>TRUE</ismasterclip>
										<duration>4015</duration>
										<rate>
											<timebase>30</timebase>
											<ntsc>TRUE</ntsc>
										</rate>
										<in>271</in>
										<name>Steven Beddall - Movie Date.mp3</name>
										<media>
											<audio>
												<track>
													<clipitem id="clipitem-17">
														<masterclipid>masterclip-9</masterclipid>
														<name>Steven Beddall - Movie Date.mp3</name>
														<rate>
															<timebase>30</timebase>
															<ntsc>TRUE</ntsc>
														</rate>
														<file id="file-9">
															<name>Steven Beddall - Movie Date.mp3</name>
															<pathurl>file://localhost/Volumes/Satisfactum%20Satisfactorum/00_Hub%20World/5_Assets/MUSIC/New%20music%2005-03-23/Steven%20Beddall%20-%20Movie%20Date.mp3</pathurl>
															<rate>
																<timebase>30</timebase>
																<ntsc>TRUE</ntsc>
															</rate>
															<duration>4015</duration>
															<timecode>
																<rate>
																	<timebase>30</timebase>
																	<ntsc>TRUE</ntsc>
																</rate>
																<string>00;00;00;00</string>
																<frame>0</frame>
																<displayformat>DF</displayformat>
															</timecode>
															<media>
																<audio>
																	<samplecharacteristics>
																		<depth>16</depth>
																		<samplerate>44100</samplerate>
																	</samplecharacteristics>
																	<channelcount>2</channelcount>
																</audio>
															</media>
														</file>
														<sourcetrack>
															<mediatype>audio</mediatype>
															<trackindex>1</trackindex>
														</sourcetrack>
														<link>
															<linkclipref>clipitem-17</linkclipref>
															<mediatype>audio</mediatype>
															<trackindex>1</trackindex>
															<clipindex>1</clipindex>
															<groupindex>1</groupindex>
														</link>
														<link>
															<linkclipref>clipitem-18</linkclipref>
															<mediatype>audio</mediatype>
															<trackindex>2</trackindex>
															<clipindex>1</clipindex>
															<groupindex>1</groupindex>
														</link>
													</clipitem>
												</track>
												<track>
													<clipitem id="clipitem-18">
														<masterclipid>masterclip-9</masterclipid>
														<name>Steven Beddall - Movie Date.mp3</name>
														<rate>
															<timebase>30</timebase>
															<ntsc>TRUE</ntsc>
														</rate>
														<file id="file-9"/>
														<sourcetrack>
															<mediatype>audio</mediatype>
															<trackindex>2</trackindex>
														</sourcetrack>
														<link>
															<linkclipref>clipitem-17</linkclipref>
															<mediatype>audio</mediatype>
															<trackindex>1</trackindex>
															<clipindex>1</clipindex>
															<groupindex>1</groupindex>
														</link>
														<link>
															<linkclipref>clipitem-18</linkclipref>
															<mediatype>audio</mediatype>
															<trackindex>2</trackindex>
															<clipindex>1</clipindex>
															<groupindex>1</groupindex>
														</link>
													</clipitem>
												</track>
											</audio>
										</media>
										<logginginfo>
											<description></description>
											<scene></scene>
											<shottake></shottake>
											<lognote></lognote>
											<good></good>
											<originalvideofilename></originalvideofilename>
											<originalaudiofilename></originalaudiofilename>
										</logginginfo>
										<colorinfo>
											<lut></lut>
											<lut1></lut1>
											<asc_sop></asc_sop>
											<asc_sat></asc_sat>
											<lut2></lut2>
										</colorinfo>
										<labels>
											<label2>Cerulean</label2>
										</labels>
									</clip>
									<clip id="masterclip-10" explodedTracks="true">
										<uuid>2ac89d2f-3806-4bb1-846e-e821c66dd906</uuid>
										<masterclipid>masterclip-10</masterclipid>
										<ismasterclip>TRUE</ismasterclip>
										<duration>5804</duration>
										<rate>
											<timebase>30</timebase>
											<ntsc>TRUE</ntsc>
										</rate>
										<in>387</in>
										<name>ES_Aarons Bees - Daniel Fridell.mp3</name>
										<media>
											<audio>
												<track>
													<clipitem id="clipitem-19">
														<masterclipid>masterclip-10</masterclipid>
														<name>ES_Aarons Bees - Daniel Fridell.mp3</name>
														<rate>
															<timebase>30</timebase>
															<ntsc>TRUE</ntsc>
														</rate>
														<file id="file-10">
															<name>ES_Aarons Bees - Daniel Fridell.mp3</name>
															<pathurl>file://localhost/Volumes/Satisfactum%20Satisfactorum/00_Hub%20World/5_Assets/MUSIC/Big%20bad%20music%20re-sort%20Epidemic%20and%20Artlist%2007-23/02_Adult%20Swim%20bumpers%20-%20medium%20and%20best/ES_Aarons%20Bees%20-%20Daniel%20Fridell.mp3</pathurl>
															<rate>
																<timebase>30</timebase>
																<ntsc>TRUE</ntsc>
															</rate>
															<duration>5804</duration>
															<timecode>
																<rate>
																	<timebase>30</timebase>
																	<ntsc>TRUE</ntsc>
																</rate>
																<string>00;00;00;00</string>
																<frame>0</frame>
																<displayformat>DF</displayformat>
															</timecode>
															<media>
																<audio>
																	<samplecharacteristics>
																		<depth>16</depth>
																		<samplerate>48000</samplerate>
																	</samplecharacteristics>
																	<channelcount>2</channelcount>
																</audio>
															</media>
														</file>
														<sourcetrack>
															<mediatype>audio</mediatype>
															<trackindex>1</trackindex>
														</sourcetrack>
														<link>
															<linkclipref>clipitem-19</linkclipref>
															<mediatype>audio</mediatype>
															<trackindex>1</trackindex>
															<clipindex>1</clipindex>
															<groupindex>1</groupindex>
														</link>
														<link>
															<linkclipref>clipitem-20</linkclipref>
															<mediatype>audio</mediatype>
															<trackindex>2</trackindex>
															<clipindex>1</clipindex>
															<groupindex>1</groupindex>
														</link>
													</clipitem>
												</track>
												<track>
													<clipitem id="clipitem-20">
														<masterclipid>masterclip-10</masterclipid>
														<name>ES_Aarons Bees - Daniel Fridell.mp3</name>
														<rate>
															<timebase>30</timebase>
															<ntsc>TRUE</ntsc>
														</rate>
														<file id="file-10"/>
														<sourcetrack>
															<mediatype>audio</mediatype>
															<trackindex>2</trackindex>
														</sourcetrack>
														<link>
															<linkclipref>clipitem-19</linkclipref>
															<mediatype>audio</mediatype>
															<trackindex>1</trackindex>
															<clipindex>1</clipindex>
															<groupindex>1</groupindex>
														</link>
														<link>
															<linkclipref>clipitem-20</linkclipref>
															<mediatype>audio</mediatype>
															<trackindex>2</trackindex>
															<clipindex>1</clipindex>
															<groupindex>1</groupindex>
														</link>
													</clipitem>
												</track>
											</audio>
										</media>
										<logginginfo>
											<description></description>
											<scene></scene>
											<shottake></shottake>
											<lognote></lognote>
											<good></good>
											<originalvideofilename></originalvideofilename>
											<originalaudiofilename></originalaudiofilename>
										</logginginfo>
										<colorinfo>
											<lut></lut>
											<lut1></lut1>
											<asc_sop></asc_sop>
											<asc_sat></asc_sat>
											<lut2></lut2>
										</colorinfo>
										<labels>
											<label2>Forest</label2>
										</labels>
									</clip>
									<clip id="masterclip-11" explodedTracks="true">
										<uuid>e8a283b7-b4e9-4865-848e-8da9dadb7d83</uuid>
										<masterclipid>masterclip-11</masterclipid>
										<ismasterclip>TRUE</ismasterclip>
										<duration>3351</duration>
										<rate>
											<timebase>30</timebase>
											<ntsc>TRUE</ntsc>
										</rate>
										<name>ES_Valenciaga - baegel.mp3</name>
										<media>
											<audio>
												<track>
													<clipitem id="clipitem-21">
														<masterclipid>masterclip-11</masterclipid>
														<name>ES_Valenciaga - baegel.mp3</name>
														<rate>
															<timebase>30</timebase>
															<ntsc>TRUE</ntsc>
														</rate>
														<file id="file-11">
															<name>ES_Valenciaga - baegel.mp3</name>
															<pathurl>file://localhost/Volumes/Satisfactum%20Satisfactorum/00_Hub%20World/5_Assets/MUSIC/Big%20bad%20music%20re-sort%20Epidemic%20and%20Artlist%2007-23/02_Adult%20Swim%20bumpers%20-%20medium%20and%20best/ES_Valenciaga%20-%20baegel.mp3</pathurl>
															<rate>
																<timebase>30</timebase>
																<ntsc>TRUE</ntsc>
															</rate>
															<duration>3351</duration>
															<timecode>
																<rate>
																	<timebase>30</timebase>
																	<ntsc>TRUE</ntsc>
																</rate>
																<string>00;00;00;00</string>
																<frame>0</frame>
																<displayformat>DF</displayformat>
															</timecode>
															<media>
																<audio>
																	<samplecharacteristics>
																		<depth>16</depth>
																		<samplerate>48000</samplerate>
																	</samplecharacteristics>
																	<channelcount>2</channelcount>
																</audio>
															</media>
														</file>
														<sourcetrack>
															<mediatype>audio</mediatype>
															<trackindex>1</trackindex>
														</sourcetrack>
														<link>
															<linkclipref>clipitem-21</linkclipref>
															<mediatype>audio</mediatype>
															<trackindex>1</trackindex>
															<clipindex>1</clipindex>
															<groupindex>1</groupindex>
														</link>
														<link>
															<linkclipref>clipitem-22</linkclipref>
															<mediatype>audio</mediatype>
															<trackindex>2</trackindex>
															<clipindex>1</clipindex>
															<groupindex>1</groupindex>
														</link>
													</clipitem>
												</track>
												<track>
													<clipitem id="clipitem-22">
														<masterclipid>masterclip-11</masterclipid>
														<name>ES_Valenciaga - baegel.mp3</name>
														<rate>
															<timebase>30</timebase>
															<ntsc>TRUE</ntsc>
														</rate>
														<file id="file-11"/>
														<sourcetrack>
															<mediatype>audio</mediatype>
															<trackindex>2</trackindex>
														</sourcetrack>
														<link>
															<linkclipref>clipitem-21</linkclipref>
															<mediatype>audio</mediatype>
															<trackindex>1</trackindex>
															<clipindex>1</clipindex>
															<groupindex>1</groupindex>
														</link>
														<link>
															<linkclipref>clipitem-22</linkclipref>
															<mediatype>audio</mediatype>
															<trackindex>2</trackindex>
															<clipindex>1</clipindex>
															<groupindex>1</groupindex>
														</link>
													</clipitem>
												</track>
											</audio>
										</media>
										<logginginfo>
											<description></description>
											<scene></scene>
											<shottake></shottake>
											<lognote></lognote>
											<good></good>
											<originalvideofilename></originalvideofilename>
											<originalaudiofilename></originalaudiofilename>
										</logginginfo>
										<colorinfo>
											<lut></lut>
											<lut1></lut1>
											<asc_sop></asc_sop>
											<asc_sat></asc_sat>
											<lut2></lut2>
										</colorinfo>
										<labels>
											<label2>Forest</label2>
										</labels>
									</clip>
									<clip id="masterclip-12" explodedTracks="true">
										<uuid>6e85ac56-3331-4f75-ae21-1dbb27683f42</uuid>
										<masterclipid>masterclip-12</masterclipid>
										<ismasterclip>TRUE</ismasterclip>
										<duration>6923</duration>
										<rate>
											<timebase>30</timebase>
											<ntsc>TRUE</ntsc>
										</rate>
										<name>ES_This Endless Night - Wendy Marcini.mp3</name>
										<media>
											<audio>
												<track>
													<clipitem id="clipitem-23">
														<masterclipid>masterclip-12</masterclipid>
														<name>ES_This Endless Night - Wendy Marcini.mp3</name>
														<rate>
															<timebase>30</timebase>
															<ntsc>TRUE</ntsc>
														</rate>
														<file id="file-12">
															<name>ES_This Endless Night - Wendy Marcini.mp3</name>
															<pathurl>file://localhost/Volumes/Satisfactum%20Satisfactorum/00_Hub%20World/5_Assets/MUSIC/Big%20bad%20music%20re-sort%20Epidemic%20and%20Artlist%2007-23/02_Adult%20Swim%20bumpers%20-%20medium%20and%20best/ES_This%20Endless%20Night%20-%20Wendy%20Marcini.mp3</pathurl>
															<rate>
																<timebase>30</timebase>
																<ntsc>TRUE</ntsc>
															</rate>
															<duration>6923</duration>
															<timecode>
																<rate>
																	<timebase>30</timebase>
																	<ntsc>TRUE</ntsc>
																</rate>
																<string>00;00;00;00</string>
																<frame>0</frame>
																<displayformat>DF</displayformat>
															</timecode>
															<media>
																<audio>
																	<samplecharacteristics>
																		<depth>16</depth>
																		<samplerate>48000</samplerate>
																	</samplecharacteristics>
																	<channelcount>2</channelcount>
																</audio>
															</media>
														</file>
														<sourcetrack>
															<mediatype>audio</mediatype>
															<trackindex>1</trackindex>
														</sourcetrack>
														<link>
															<linkclipref>clipitem-23</linkclipref>
															<mediatype>audio</mediatype>
															<trackindex>1</trackindex>
															<clipindex>1</clipindex>
															<groupindex>1</groupindex>
														</link>
														<link>
															<linkclipref>clipitem-24</linkclipref>
															<mediatype>audio</mediatype>
															<trackindex>2</trackindex>
															<clipindex>1</clipindex>
															<groupindex>1</groupindex>
														</link>
													</clipitem>
												</track>
												<track>
													<clipitem id="clipitem-24">
														<masterclipid>masterclip-12</masterclipid>
														<name>ES_This Endless Night - Wendy Marcini.mp3</name>
														<rate>
															<timebase>30</timebase>
															<ntsc>TRUE</ntsc>
														</rate>
														<file id="file-12"/>
														<sourcetrack>
															<mediatype>audio</mediatype>
															<trackindex>2</trackindex>
														</sourcetrack>
														<link>
															<linkclipref>clipitem-23</linkclipref>
															<mediatype>audio</mediatype>
															<trackindex>1</trackindex>
															<clipindex>1</clipindex>
															<groupindex>1</groupindex>
														</link>
														<link>
															<linkclipref>clipitem-24</linkclipref>
															<mediatype>audio</mediatype>
															<trackindex>2</trackindex>
															<clipindex>1</clipindex>
															<groupindex>1</groupindex>
														</link>
													</clipitem>
												</track>
											</audio>
										</media>
										<logginginfo>
											<description></description>
											<scene></scene>
											<shottake></shottake>
											<lognote></lognote>
											<good></good>
											<originalvideofilename></originalvideofilename>
											<originalaudiofilename></originalaudiofilename>
										</logginginfo>
										<colorinfo>
											<lut></lut>
											<lut1></lut1>
											<asc_sop></asc_sop>
											<asc_sat></asc_sat>
											<lut2></lut2>
										</colorinfo>
										<labels>
											<label2>Forest</label2>
										</labels>
									</clip>
									<clip id="masterclip-13" explodedTracks="true">
										<uuid>1878bfc3-8ff5-4c97-91f8-10d80754bd84</uuid>
										<masterclipid>masterclip-13</masterclipid>
										<ismasterclip>TRUE</ismasterclip>
										<duration>5590</duration>
										<rate>
											<timebase>30</timebase>
											<ntsc>TRUE</ntsc>
										</rate>
										<in>645</in>
										<name>ES_Akira - AGST.mp3</name>
										<media>
											<audio>
												<track>
													<clipitem id="clipitem-25">
														<masterclipid>masterclip-13</masterclipid>
														<name>ES_Akira - AGST.mp3</name>
														<rate>
															<timebase>30</timebase>
															<ntsc>TRUE</ntsc>
														</rate>
														<file id="file-13">
															<name>ES_Akira - AGST.mp3</name>
															<pathurl>file://localhost/Volumes/Satisfactum%20Satisfactorum/00_Hub%20World/5_Assets/MUSIC/Big%20bad%20music%20re-sort%20Epidemic%20and%20Artlist%2007-23/02_Adult%20Swim%20bumpers%20-%20medium%20and%20best/ES_Akira%20-%20AGST.mp3</pathurl>
															<rate>
																<timebase>30</timebase>
																<ntsc>TRUE</ntsc>
															</rate>
															<duration>5590</duration>
															<timecode>
																<rate>
																	<timebase>30</timebase>
																	<ntsc>TRUE</ntsc>
																</rate>
																<string>00;00;00;00</string>
																<frame>0</frame>
																<displayformat>DF</displayformat>
															</timecode>
															<media>
																<audio>
																	<samplecharacteristics>
																		<depth>16</depth>
																		<samplerate>48000</samplerate>
																	</samplecharacteristics>
																	<channelcount>2</channelcount>
																</audio>
															</media>
														</file>
														<sourcetrack>
															<mediatype>audio</mediatype>
															<trackindex>1</trackindex>
														</sourcetrack>
														<link>
															<linkclipref>clipitem-25</linkclipref>
															<mediatype>audio</mediatype>
															<trackindex>1</trackindex>
															<clipindex>1</clipindex>
															<groupindex>1</groupindex>
														</link>
														<link>
															<linkclipref>clipitem-26</linkclipref>
															<mediatype>audio</mediatype>
															<trackindex>2</trackindex>
															<clipindex>1</clipindex>
															<groupindex>1</groupindex>
														</link>
													</clipitem>
												</track>
												<track>
													<clipitem id="clipitem-26">
														<masterclipid>masterclip-13</masterclipid>
														<name>ES_Akira - AGST.mp3</name>
														<rate>
															<timebase>30</timebase>
															<ntsc>TRUE</ntsc>
														</rate>
														<file id="file-13"/>
														<sourcetrack>
															<mediatype>audio</mediatype>
															<trackindex>2</trackindex>
														</sourcetrack>
														<link>
															<linkclipref>clipitem-25</linkclipref>
															<mediatype>audio</mediatype>
															<trackindex>1</trackindex>
															<clipindex>1</clipindex>
															<groupindex>1</groupindex>
														</link>
														<link>
															<linkclipref>clipitem-26</linkclipref>
															<mediatype>audio</mediatype>
															<trackindex>2</trackindex>
															<clipindex>1</clipindex>
															<groupindex>1</groupindex>
														</link>
													</clipitem>
												</track>
											</audio>
										</media>
										<logginginfo>
											<description></description>
											<scene></scene>
											<shottake></shottake>
											<lognote></lognote>
											<good></good>
											<originalvideofilename></originalvideofilename>
											<originalaudiofilename></originalaudiofilename>
										</logginginfo>
										<colorinfo>
											<lut></lut>
											<lut1></lut1>
											<asc_sop></asc_sop>
											<asc_sat></asc_sat>
											<lut2></lut2>
										</colorinfo>
										<labels>
											<label2>Forest</label2>
										</labels>
									</clip>
									<clip id="masterclip-14" explodedTracks="true">
										<uuid>71c7c803-75cd-406c-8ef8-fefc203f81ed</uuid>
										<masterclipid>masterclip-14</masterclipid>
										<ismasterclip>TRUE</ismasterclip>
										<duration>4808</duration>
										<rate>
											<timebase>30</timebase>
											<ntsc>TRUE</ntsc>
										</rate>
										<in>321</in>
										<name>ES_ORANGE - SINY copy.mp3</name>
										<media>
											<audio>
												<track>
													<clipitem id="clipitem-27">
														<masterclipid>masterclip-14</masterclipid>
														<name>ES_ORANGE - SINY copy.mp3</name>
														<rate>
															<timebase>30</timebase>
															<ntsc>TRUE</ntsc>
														</rate>
														<file id="file-14">
															<name>ES_ORANGE - SINY copy.mp3</name>
															<pathurl>file://localhost/Volumes/Satisfactum%20Satisfactorum/00_Hub%20World/5_Assets/MUSIC/Epidemic/ES_ORANGE%20-%20SINY%20copy.mp3</pathurl>
															<rate>
																<timebase>30</timebase>
																<ntsc>TRUE</ntsc>
															</rate>
															<duration>4808</duration>
															<timecode>
																<rate>
																	<timebase>30</timebase>
																	<ntsc>TRUE</ntsc>
																</rate>
																<string>00;00;00;00</string>
																<frame>0</frame>
																<displayformat>DF</displayformat>
															</timecode>
															<media>
																<audio>
																	<samplecharacteristics>
																		<depth>16</depth>
																		<samplerate>48000</samplerate>
																	</samplecharacteristics>
																	<channelcount>2</channelcount>
																</audio>
															</media>
														</file>
														<sourcetrack>
															<mediatype>audio</mediatype>
															<trackindex>1</trackindex>
														</sourcetrack>
														<link>
															<linkclipref>clipitem-27</linkclipref>
															<mediatype>audio</mediatype>
															<trackindex>1</trackindex>
															<clipindex>1</clipindex>
															<groupindex>1</groupindex>
														</link>
														<link>
															<linkclipref>clipitem-28</linkclipref>
															<mediatype>audio</mediatype>
															<trackindex>2</trackindex>
															<clipindex>1</clipindex>
															<groupindex>1</groupindex>
														</link>
													</clipitem>
												</track>
												<track>
													<clipitem id="clipitem-28">
														<masterclipid>masterclip-14</masterclipid>
														<name>ES_ORANGE - SINY copy.mp3</name>
														<rate>
															<timebase>30</timebase>
															<ntsc>TRUE</ntsc>
														</rate>
														<file id="file-14"/>
														<sourcetrack>
															<mediatype>audio</mediatype>
															<trackindex>2</trackindex>
														</sourcetrack>
														<link>
															<linkclipref>clipitem-27</linkclipref>
															<mediatype>audio</mediatype>
															<trackindex>1</trackindex>
															<clipindex>1</clipindex>
															<groupindex>1</groupindex>
														</link>
														<link>
															<linkclipref>clipitem-28</linkclipref>
															<mediatype>audio</mediatype>
															<trackindex>2</trackindex>
															<clipindex>1</clipindex>
															<groupindex>1</groupindex>
														</link>
													</clipitem>
												</track>
											</audio>
										</media>
										<logginginfo>
											<description></description>
											<scene></scene>
											<shottake></shottake>
											<lognote></lognote>
											<good></good>
											<originalvideofilename></originalvideofilename>
											<originalaudiofilename></originalaudiofilename>
										</logginginfo>
										<colorinfo>
											<lut></lut>
											<lut1></lut1>
											<asc_sop></asc_sop>
											<asc_sat></asc_sat>
											<lut2></lut2>
										</colorinfo>
										<labels>
											<label2>Forest</label2>
										</labels>
									</clip>
									<clip id="masterclip-15" explodedTracks="true">
										<uuid>c90d2424-a156-43a4-925c-aec71e55b73c</uuid>
										<masterclipid>masterclip-15</masterclipid>
										<ismasterclip>TRUE</ismasterclip>
										<duration>3853</duration>
										<rate>
											<timebase>30</timebase>
											<ntsc>TRUE</ntsc>
										</rate>
										<in>576</in>
										<name>ES_Training Montage - baegel.mp3</name>
										<media>
											<audio>
												<track>
													<clipitem id="clipitem-29">
														<masterclipid>masterclip-15</masterclipid>
														<name>ES_Training Montage - baegel.mp3</name>
														<rate>
															<timebase>30</timebase>
															<ntsc>TRUE</ntsc>
														</rate>
														<file id="file-15">
															<name>ES_Training Montage - baegel.mp3</name>
															<pathurl>file://localhost/Volumes/Satisfactum%20Satisfactorum/00_Hub%20World/5_Assets/MUSIC/Big%20bad%20music%20re-sort%20Epidemic%20and%20Artlist%2007-23/02_Adult%20Swim%20bumpers%20-%20medium%20and%20best/ES_Training%20Montage%20-%20baegel.mp3</pathurl>
															<rate>
																<timebase>30</timebase>
																<ntsc>TRUE</ntsc>
															</rate>
															<duration>3853</duration>
															<timecode>
																<rate>
																	<timebase>30</timebase>
																	<ntsc>TRUE</ntsc>
																</rate>
																<string>00;00;00;00</string>
																<frame>0</frame>
																<displayformat>DF</displayformat>
															</timecode>
															<media>
																<audio>
																	<samplecharacteristics>
																		<depth>16</depth>
																		<samplerate>48000</samplerate>
																	</samplecharacteristics>
																	<channelcount>2</channelcount>
																</audio>
															</media>
														</file>
														<sourcetrack>
															<mediatype>audio</mediatype>
															<trackindex>1</trackindex>
														</sourcetrack>
														<link>
															<linkclipref>clipitem-29</linkclipref>
															<mediatype>audio</mediatype>
															<trackindex>1</trackindex>
															<clipindex>1</clipindex>
															<groupindex>1</groupindex>
														</link>
														<link>
															<linkclipref>clipitem-30</linkclipref>
															<mediatype>audio</mediatype>
															<trackindex>2</trackindex>
															<clipindex>1</clipindex>
															<groupindex>1</groupindex>
														</link>
													</clipitem>
												</track>
												<track>
													<clipitem id="clipitem-30">
														<masterclipid>masterclip-15</masterclipid>
														<name>ES_Training Montage - baegel.mp3</name>
														<rate>
															<timebase>30</timebase>
															<ntsc>TRUE</ntsc>
														</rate>
														<file id="file-15"/>
														<sourcetrack>
															<mediatype>audio</mediatype>
															<trackindex>2</trackindex>
														</sourcetrack>
														<link>
															<linkclipref>clipitem-29</linkclipref>
															<mediatype>audio</mediatype>
															<trackindex>1</trackindex>
															<clipindex>1</clipindex>
															<groupindex>1</groupindex>
														</link>
														<link>
															<linkclipref>clipitem-30</linkclipref>
															<mediatype>audio</mediatype>
															<trackindex>2</trackindex>
															<clipindex>1</clipindex>
															<groupindex>1</groupindex>
														</link>
													</clipitem>
												</track>
											</audio>
										</media>
										<logginginfo>
											<description></description>
											<scene></scene>
											<shottake></shottake>
											<lognote></lognote>
											<good></good>
											<originalvideofilename></originalvideofilename>
											<originalaudiofilename></originalaudiofilename>
										</logginginfo>
										<colorinfo>
											<lut></lut>
											<lut1></lut1>
											<asc_sop></asc_sop>
											<asc_sat></asc_sat>
											<lut2></lut2>
										</colorinfo>
										<labels>
											<label2>Forest</label2>
										</labels>
									</clip>
									<clip id="masterclip-16" explodedTracks="true">
										<uuid>8240e2b4-fde4-49a8-9e0e-242486123b74</uuid>
										<masterclipid>masterclip-16</masterclipid>
										<ismasterclip>TRUE</ismasterclip>
										<duration>3624</duration>
										<rate>
											<timebase>30</timebase>
											<ntsc>TRUE</ntsc>
										</rate>
										<in>124</in>
										<name>ES_Three Bites - Dylan Sitts.mp3</name>
										<media>
											<audio>
												<track>
													<clipitem id="clipitem-31">
														<masterclipid>masterclip-16</masterclipid>
														<name>ES_Three Bites - Dylan Sitts.mp3</name>
														<rate>
															<timebase>30</timebase>
															<ntsc>TRUE</ntsc>
														</rate>
														<file id="file-16">
															<name>ES_Three Bites - Dylan Sitts.mp3</name>
															<pathurl>file://localhost/Volumes/Satisfactum%20Satisfactorum/00_Hub%20World/5_Assets/MUSIC/Big%20bad%20music%20re-sort%20Epidemic%20and%20Artlist%2007-23/02_Adult%20Swim%20bumpers%20-%20medium%20and%20best/ES_Three%20Bites%20-%20Dylan%20Sitts.mp3</pathurl>
															<rate>
																<timebase>30</timebase>
																<ntsc>TRUE</ntsc>
															</rate>
															<duration>3624</duration>
															<timecode>
																<rate>
																	<timebase>30</timebase>
																	<ntsc>TRUE</ntsc>
																</rate>
																<string>00;00;00;00</string>
																<frame>0</frame>
																<displayformat>DF</displayformat>
															</timecode>
															<media>
																<audio>
																	<samplecharacteristics>
																		<depth>16</depth>
																		<samplerate>48000</samplerate>
																	</samplecharacteristics>
																	<channelcount>2</channelcount>
																</audio>
															</media>
														</file>
														<sourcetrack>
															<mediatype>audio</mediatype>
															<trackindex>1</trackindex>
														</sourcetrack>
														<link>
															<linkclipref>clipitem-31</linkclipref>
															<mediatype>audio</mediatype>
															<trackindex>1</trackindex>
															<clipindex>1</clipindex>
															<groupindex>1</groupindex>
														</link>
														<link>
															<linkclipref>clipitem-32</linkclipref>
															<mediatype>audio</mediatype>
															<trackindex>2</trackindex>
															<clipindex>1</clipindex>
															<groupindex>1</groupindex>
														</link>
													</clipitem>
												</track>
												<track>
													<clipitem id="clipitem-32">
														<masterclipid>masterclip-16</masterclipid>
														<name>ES_Three Bites - Dylan Sitts.mp3</name>
														<rate>
															<timebase>30</timebase>
															<ntsc>TRUE</ntsc>
														</rate>
														<file id="file-16"/>
														<sourcetrack>
															<mediatype>audio</mediatype>
															<trackindex>2</trackindex>
														</sourcetrack>
														<link>
															<linkclipref>clipitem-31</linkclipref>
															<mediatype>audio</mediatype>
															<trackindex>1</trackindex>
															<clipindex>1</clipindex>
															<groupindex>1</groupindex>
														</link>
														<link>
															<linkclipref>clipitem-32</linkclipref>
															<mediatype>audio</mediatype>
															<trackindex>2</trackindex>
															<clipindex>1</clipindex>
															<groupindex>1</groupindex>
														</link>
													</clipitem>
												</track>
											</audio>
										</media>
										<logginginfo>
											<description></description>
											<scene></scene>
											<shottake></shottake>
											<lognote></lognote>
											<good></good>
											<originalvideofilename></originalvideofilename>
											<originalaudiofilename></originalaudiofilename>
										</logginginfo>
										<colorinfo>
											<lut></lut>
											<lut1></lut1>
											<asc_sop></asc_sop>
											<asc_sat></asc_sat>
											<lut2></lut2>
										</colorinfo>
										<labels>
											<label2>Forest</label2>
										</labels>
									</clip>
									<clip id="masterclip-17" explodedTracks="true">
										<uuid>84971dbd-acc7-41c1-b8fc-c35d297a736e</uuid>
										<masterclipid>masterclip-17</masterclipid>
										<ismasterclip>TRUE</ismasterclip>
										<duration>6899</duration>
										<rate>
											<timebase>30</timebase>
											<ntsc>TRUE</ntsc>
										</rate>
										<in>632</in>
										<name>KOLA - Love Drug - Instrumental Version.mp3</name>
										<media>
											<audio>
												<track>
													<clipitem id="clipitem-33">
														<masterclipid>masterclip-17</masterclipid>
														<name>KOLA - Love Drug - Instrumental Version.mp3</name>
														<rate>
															<timebase>30</timebase>
															<ntsc>TRUE</ntsc>
														</rate>
														<file id="file-17">
															<name>KOLA - Love Drug - Instrumental Version.mp3</name>
															<pathurl>file://localhost/Volumes/Satisfactum%20Satisfactorum/00_Hub%20World/5_Assets/MUSIC/Big%20bad%20music%20re-sort%20Epidemic%20and%20Artlist%2007-23/02_Adult%20Swim%20bumpers%20-%20medium%20and%20best/KOLA%20-%20Love%20Drug%20-%20Instrumental%20Version.mp3</pathurl>
															<rate>
																<timebase>30</timebase>
																<ntsc>TRUE</ntsc>
															</rate>
															<duration>6899</duration>
															<timecode>
																<rate>
																	<timebase>30</timebase>
																	<ntsc>TRUE</ntsc>
																</rate>
																<string>00;00;00;00</string>
																<frame>0</frame>
																<displayformat>DF</displayformat>
															</timecode>
															<media>
																<audio>
																	<samplecharacteristics>
																		<depth>16</depth>
																		<samplerate>44100</samplerate>
																	</samplecharacteristics>
																	<channelcount>2</channelcount>
																</audio>
															</media>
														</file>
														<sourcetrack>
															<mediatype>audio</mediatype>
															<trackindex>1</trackindex>
														</sourcetrack>
														<link>
															<linkclipref>clipitem-33</linkclipref>
															<mediatype>audio</mediatype>
															<trackindex>1</trackindex>
															<clipindex>1</clipindex>
															<groupindex>1</groupindex>
														</link>
														<link>
															<linkclipref>clipitem-34</linkclipref>
															<mediatype>audio</mediatype>
															<trackindex>2</trackindex>
															<clipindex>1</clipindex>
															<groupindex>1</groupindex>
														</link>
													</clipitem>
												</track>
												<track>
													<clipitem id="clipitem-34">
														<masterclipid>masterclip-17</masterclipid>
														<name>KOLA - Love Drug - Instrumental Version.mp3</name>
														<rate>
															<timebase>30</timebase>
															<ntsc>TRUE</ntsc>
														</rate>
														<file id="file-17"/>
														<sourcetrack>
															<mediatype>audio</mediatype>
															<trackindex>2</trackindex>
														</sourcetrack>
														<link>
															<linkclipref>clipitem-33</linkclipref>
															<mediatype>audio</mediatype>
															<trackindex>1</trackindex>
															<clipindex>1</clipindex>
															<groupindex>1</groupindex>
														</link>
														<link>
															<linkclipref>clipitem-34</linkclipref>
															<mediatype>audio</mediatype>
															<trackindex>2</trackindex>
															<clipindex>1</clipindex>
															<groupindex>1</groupindex>
														</link>
													</clipitem>
												</track>
											</audio>
										</media>
										<logginginfo>
											<description></description>
											<scene></scene>
											<shottake></shottake>
											<lognote></lognote>
											<good></good>
											<originalvideofilename></originalvideofilename>
											<originalaudiofilename></originalaudiofilename>
										</logginginfo>
										<colorinfo>
											<lut></lut>
											<lut1></lut1>
											<asc_sop></asc_sop>
											<asc_sat></asc_sat>
											<lut2></lut2>
										</colorinfo>
										<labels>
											<label2>Cerulean</label2>
										</labels>
									</clip>
									<clip id="masterclip-18" explodedTracks="true">
										<uuid>a8caed75-d519-48c9-b8c4-52269de9c7c4</uuid>
										<masterclipid>masterclip-18</masterclipid>
										<ismasterclip>TRUE</ismasterclip>
										<duration>5773</duration>
										<rate>
											<timebase>30</timebase>
											<ntsc>TRUE</ntsc>
										</rate>
										<in>270</in>
										<name>ES_Phantom Love - Giants' Nest.mp3</name>
										<media>
											<audio>
												<track>
													<clipitem id="clipitem-35">
														<masterclipid>masterclip-18</masterclipid>
														<name>ES_Phantom Love - Giants' Nest.mp3</name>
														<rate>
															<timebase>30</timebase>
															<ntsc>TRUE</ntsc>
														</rate>
														<file id="file-18">
															<name>ES_Phantom Love - Giants' Nest.mp3</name>
															<pathurl>file://localhost/Volumes/Satisfactum%20Satisfactorum/00_Hub%20World/5_Assets/MUSIC/Epidemic/ES_Phantom%20Love%20-%20Giants'%20Nest.mp3</pathurl>
															<rate>
																<timebase>30</timebase>
																<ntsc>TRUE</ntsc>
															</rate>
															<duration>5773</duration>
															<timecode>
																<rate>
																	<timebase>30</timebase>
																	<ntsc>TRUE</ntsc>
																</rate>
																<string>00;00;00;00</string>
																<frame>0</frame>
																<displayformat>DF</displayformat>
															</timecode>
															<media>
																<audio>
																	<samplecharacteristics>
																		<depth>16</depth>
																		<samplerate>48000</samplerate>
																	</samplecharacteristics>
																	<channelcount>2</channelcount>
																</audio>
															</media>
														</file>
														<sourcetrack>
															<mediatype>audio</mediatype>
															<trackindex>1</trackindex>
														</sourcetrack>
														<link>
															<linkclipref>clipitem-35</linkclipref>
															<mediatype>audio</mediatype>
															<trackindex>1</trackindex>
															<clipindex>1</clipindex>
															<groupindex>1</groupindex>
														</link>
														<link>
															<linkclipref>clipitem-36</linkclipref>
															<mediatype>audio</mediatype>
															<trackindex>2</trackindex>
															<clipindex>1</clipindex>
															<groupindex>1</groupindex>
														</link>
													</clipitem>
												</track>
												<track>
													<clipitem id="clipitem-36">
														<masterclipid>masterclip-18</masterclipid>
														<name>ES_Phantom Love - Giants' Nest.mp3</name>
														<rate>
															<timebase>30</timebase>
															<ntsc>TRUE</ntsc>
														</rate>
														<file id="file-18"/>
														<sourcetrack>
															<mediatype>audio</mediatype>
															<trackindex>2</trackindex>
														</sourcetrack>
														<link>
															<linkclipref>clipitem-35</linkclipref>
															<mediatype>audio</mediatype>
															<trackindex>1</trackindex>
															<clipindex>1</clipindex>
															<groupindex>1</groupindex>
														</link>
														<link>
															<linkclipref>clipitem-36</linkclipref>
															<mediatype>audio</mediatype>
															<trackindex>2</trackindex>
															<clipindex>1</clipindex>
															<groupindex>1</groupindex>
														</link>
													</clipitem>
												</track>
											</audio>
										</media>
										<logginginfo>
											<description></description>
											<scene></scene>
											<shottake></shottake>
											<lognote></lognote>
											<good></good>
											<originalvideofilename></originalvideofilename>
											<originalaudiofilename></originalaudiofilename>
										</logginginfo>
										<colorinfo>
											<lut></lut>
											<lut1></lut1>
											<asc_sop></asc_sop>
											<asc_sat></asc_sat>
											<lut2></lut2>
										</colorinfo>
										<labels>
											<label2>Forest</label2>
										</labels>
									</clip>
									<clip id="masterclip-19" explodedTracks="true">
										<uuid>62f50b7d-90ac-4fa4-84e0-d3da2f15c316</uuid>
										<masterclipid>masterclip-19</masterclipid>
										<ismasterclip>TRUE</ismasterclip>
										<duration>5436</duration>
										<rate>
											<timebase>30</timebase>
											<ntsc>TRUE</ntsc>
										</rate>
										<in>353</in>
										<name>ES_23 Til Infinity - Matt Large.mp3</name>
										<media>
											<audio>
												<track>
													<clipitem id="clipitem-37">
														<masterclipid>masterclip-19</masterclipid>
														<name>ES_23 Til Infinity - Matt Large.mp3</name>
														<rate>
															<timebase>30</timebase>
															<ntsc>TRUE</ntsc>
														</rate>
														<file id="file-19">
															<name>ES_23 Til Infinity - Matt Large.mp3</name>
															<pathurl>file://localhost/Volumes/Satisfactum%20Satisfactorum/00_Hub%20World/5_Assets/MUSIC/Big%20bad%20music%20re-sort%20Epidemic%20and%20Artlist%2007-23/02_Adult%20Swim%20bumpers%20-%20medium%20and%20best/ES_23%20Til%20Infinity%20-%20Matt%20Large.mp3</pathurl>
															<rate>
																<timebase>30</timebase>
																<ntsc>TRUE</ntsc>
															</rate>
															<duration>5436</duration>
															<timecode>
																<rate>
																	<timebase>30</timebase>
																	<ntsc>TRUE</ntsc>
																</rate>
																<string>00;00;00;00</string>
																<frame>0</frame>
																<displayformat>DF</displayformat>
															</timecode>
															<media>
																<audio>
																	<samplecharacteristics>
																		<depth>16</depth>
																		<samplerate>48000</samplerate>
																	</samplecharacteristics>
																	<channelcount>2</channelcount>
																</audio>
															</media>
														</file>
														<sourcetrack>
															<mediatype>audio</mediatype>
															<trackindex>1</trackindex>
														</sourcetrack>
														<link>
															<linkclipref>clipitem-37</linkclipref>
															<mediatype>audio</mediatype>
															<trackindex>1</trackindex>
															<clipindex>1</clipindex>
															<groupindex>1</groupindex>
														</link>
														<link>
															<linkclipref>clipitem-38</linkclipref>
															<mediatype>audio</mediatype>
															<trackindex>2</trackindex>
															<clipindex>1</clipindex>
															<groupindex>1</groupindex>
														</link>
													</clipitem>
												</track>
												<track>
													<clipitem id="clipitem-38">
														<masterclipid>masterclip-19</masterclipid>
														<name>ES_23 Til Infinity - Matt Large.mp3</name>
														<rate>
															<timebase>30</timebase>
															<ntsc>TRUE</ntsc>
														</rate>
														<file id="file-19"/>
														<sourcetrack>
															<mediatype>audio</mediatype>
															<trackindex>2</trackindex>
														</sourcetrack>
														<link>
															<linkclipref>clipitem-37</linkclipref>
															<mediatype>audio</mediatype>
															<trackindex>1</trackindex>
															<clipindex>1</clipindex>
															<groupindex>1</groupindex>
														</link>
														<link>
															<linkclipref>clipitem-38</linkclipref>
															<mediatype>audio</mediatype>
															<trackindex>2</trackindex>
															<clipindex>1</clipindex>
															<groupindex>1</groupindex>
														</link>
													</clipitem>
												</track>
											</audio>
										</media>
										<logginginfo>
											<description></description>
											<scene></scene>
											<shottake></shottake>
											<lognote></lognote>
											<good></good>
											<originalvideofilename></originalvideofilename>
											<originalaudiofilename></originalaudiofilename>
										</logginginfo>
										<colorinfo>
											<lut></lut>
											<lut1></lut1>
											<asc_sop></asc_sop>
											<asc_sat></asc_sat>
											<lut2></lut2>
										</colorinfo>
										<labels>
											<label2>Forest</label2>
										</labels>
									</clip>
									<clip id="masterclip-20" explodedTracks="true">
										<uuid>1ddda04d-1bfb-4628-94f2-da7b907e2bc9</uuid>
										<masterclipid>masterclip-20</masterclipid>
										<ismasterclip>TRUE</ismasterclip>
										<duration>3744</duration>
										<rate>
											<timebase>30</timebase>
											<ntsc>TRUE</ntsc>
										</rate>
										<in>373</in>
										<name>Steven Beddall - Ice Cream Social.mp3</name>
										<media>
											<audio>
												<track>
													<clipitem id="clipitem-39">
														<masterclipid>masterclip-20</masterclipid>
														<name>Steven Beddall - Ice Cream Social.mp3</name>
														<rate>
															<timebase>30</timebase>
															<ntsc>TRUE</ntsc>
														</rate>
														<file id="file-20">
															<name>Steven Beddall - Ice Cream Social.mp3</name>
															<pathurl>file://localhost/Volumes/Satisfactum%20Satisfactorum/00_Hub%20World/5_Assets/MUSIC/New%20music%2005-03-23/Steven%20Beddall%20-%20Ice%20Cream%20Social.mp3</pathurl>
															<rate>
																<timebase>30</timebase>
																<ntsc>TRUE</ntsc>
															</rate>
															<duration>3744</duration>
															<timecode>
																<rate>
																	<timebase>30</timebase>
																	<ntsc>TRUE</ntsc>
																</rate>
																<string>00;00;00;00</string>
																<frame>0</frame>
																<displayformat>DF</displayformat>
															</timecode>
															<media>
																<audio>
																	<samplecharacteristics>
																		<depth>16</depth>
																		<samplerate>44100</samplerate>
																	</samplecharacteristics>
																	<channelcount>2</channelcount>
																</audio>
															</media>
														</file>
														<sourcetrack>
															<mediatype>audio</mediatype>
															<trackindex>1</trackindex>
														</sourcetrack>
														<link>
															<linkclipref>clipitem-39</linkclipref>
															<mediatype>audio</mediatype>
															<trackindex>1</trackindex>
															<clipindex>1</clipindex>
															<groupindex>1</groupindex>
														</link>
														<link>
															<linkclipref>clipitem-40</linkclipref>
															<mediatype>audio</mediatype>
															<trackindex>2</trackindex>
															<clipindex>1</clipindex>
															<groupindex>1</groupindex>
														</link>
													</clipitem>
												</track>
												<track>
													<clipitem id="clipitem-40">
														<masterclipid>masterclip-20</masterclipid>
														<name>Steven Beddall - Ice Cream Social.mp3</name>
														<rate>
															<timebase>30</timebase>
															<ntsc>TRUE</ntsc>
														</rate>
														<file id="file-20"/>
														<sourcetrack>
															<mediatype>audio</mediatype>
															<trackindex>2</trackindex>
														</sourcetrack>
														<link>
															<linkclipref>clipitem-39</linkclipref>
															<mediatype>audio</mediatype>
															<trackindex>1</trackindex>
															<clipindex>1</clipindex>
															<groupindex>1</groupindex>
														</link>
														<link>
															<linkclipref>clipitem-40</linkclipref>
															<mediatype>audio</mediatype>
															<trackindex>2</trackindex>
															<clipindex>1</clipindex>
															<groupindex>1</groupindex>
														</link>
													</clipitem>
												</track>
											</audio>
										</media>
										<logginginfo>
											<description></description>
											<scene></scene>
											<shottake></shottake>
											<lognote>All Rights Reserved to www.Art-list.io</lognote>
											<good></good>
											<originalvideofilename></originalvideofilename>
											<originalaudiofilename></originalaudiofilename>
										</logginginfo>
										<colorinfo>
											<lut></lut>
											<lut1></lut1>
											<asc_sop></asc_sop>
											<asc_sat></asc_sat>
											<lut2></lut2>
										</colorinfo>
										<labels>
											<label2>Cerulean</label2>
										</labels>
									</clip>
									<clip id="masterclip-21" explodedTracks="true">
										<uuid>294d15ed-c5a5-41a2-b5fa-f8ba138c294d</uuid>
										<masterclipid>masterclip-21</masterclipid>
										<ismasterclip>TRUE</ismasterclip>
										<duration>7073</duration>
										<rate>
											<timebase>30</timebase>
											<ntsc>TRUE</ntsc>
										</rate>
										<in>1599</in>
										<name>ES_Girl Like You (Instrumental Version) - Flux Vortex.mp3</name>
										<media>
											<audio>
												<track>
													<clipitem id="clipitem-41">
														<masterclipid>masterclip-21</masterclipid>
														<name>ES_Girl Like You (Instrumental Version) - Flux Vortex.mp3</name>
														<rate>
															<timebase>30</timebase>
															<ntsc>TRUE</ntsc>
														</rate>
														<file id="file-21">
															<name>ES_Girl Like You (Instrumental Version) - Flux Vortex.mp3</name>
															<pathurl>file://localhost/Users/dalecampo/Downloads/00_Downloads%20to%20Sort/Juese's%20Music/Oddly%2009-27-21/Blossom%20music/Week_01_Music/ES_Girl%20Like%20You%20(Instrumental%20Version)%20-%20Flux%20Vortex.mp3</pathurl>
															<rate>
																<timebase>30</timebase>
																<ntsc>TRUE</ntsc>
															</rate>
															<duration>7073</duration>
															<timecode>
																<rate>
																	<timebase>30</timebase>
																	<ntsc>TRUE</ntsc>
																</rate>
																<string>00;00;00;00</string>
																<frame>0</frame>
																<displayformat>DF</displayformat>
															</timecode>
															<media>
																<audio>
																	<samplecharacteristics>
																		<depth>16</depth>
																		<samplerate>48000</samplerate>
																	</samplecharacteristics>
																	<channelcount>2</channelcount>
																</audio>
															</media>
														</file>
														<sourcetrack>
															<mediatype>audio</mediatype>
															<trackindex>1</trackindex>
														</sourcetrack>
														<link>
															<linkclipref>clipitem-41</linkclipref>
															<mediatype>audio</mediatype>
															<trackindex>1</trackindex>
															<clipindex>1</clipindex>
															<groupindex>1</groupindex>
														</link>
														<link>
															<linkclipref>clipitem-42</linkclipref>
															<mediatype>audio</mediatype>
															<trackindex>2</trackindex>
															<clipindex>1</clipindex>
															<groupindex>1</groupindex>
														</link>
													</clipitem>
												</track>
												<track>
													<clipitem id="clipitem-42">
														<masterclipid>masterclip-21</masterclipid>
														<name>ES_Girl Like You (Instrumental Version) - Flux Vortex.mp3</name>
														<rate>
															<timebase>30</timebase>
															<ntsc>TRUE</ntsc>
														</rate>
														<file id="file-21"/>
														<sourcetrack>
															<mediatype>audio</mediatype>
															<trackindex>2</trackindex>
														</sourcetrack>
														<link>
															<linkclipref>clipitem-41</linkclipref>
															<mediatype>audio</mediatype>
															<trackindex>1</trackindex>
															<clipindex>1</clipindex>
															<groupindex>1</groupindex>
														</link>
														<link>
															<linkclipref>clipitem-42</linkclipref>
															<mediatype>audio</mediatype>
															<trackindex>2</trackindex>
															<clipindex>1</clipindex>
															<groupindex>1</groupindex>
														</link>
													</clipitem>
												</track>
											</audio>
										</media>
										<logginginfo>
											<description></description>
											<scene></scene>
											<shottake></shottake>
											<lognote></lognote>
											<good></good>
											<originalvideofilename></originalvideofilename>
											<originalaudiofilename></originalaudiofilename>
										</logginginfo>
										<colorinfo>
											<lut></lut>
											<lut1></lut1>
											<asc_sop></asc_sop>
											<asc_sat></asc_sat>
											<lut2></lut2>
										</colorinfo>
										<labels>
											<label2>Forest</label2>
										</labels>
									</clip>
									<clip id="masterclip-22" explodedTracks="true">
										<uuid>bcdec3e7-83a0-4383-8151-0d42984a4f7d</uuid>
										<masterclipid>masterclip-22</masterclipid>
										<ismasterclip>TRUE</ismasterclip>
										<duration>7517</duration>
										<rate>
											<timebase>30</timebase>
											<ntsc>TRUE</ntsc>
										</rate>
										<in>2026</in>
										<name>ES_Smooth Machine - Daniel Fridell.mp3</name>
										<media>
											<audio>
												<track>
													<clipitem id="clipitem-43">
														<masterclipid>masterclip-22</masterclipid>
														<name>ES_Smooth Machine - Daniel Fridell.mp3</name>
														<rate>
															<timebase>30</timebase>
															<ntsc>TRUE</ntsc>
														</rate>
														<file id="file-22">
															<name>ES_Smooth Machine - Daniel Fridell.mp3</name>
															<pathurl>file://localhost/Volumes/Satisfactum%20Satisfactorum/00_Hub%20World/5_Assets/MUSIC/Big%20bad%20music%20re-sort%20Epidemic%20and%20Artlist%2007-23/02_Adult%20Swim%20bumpers%20-%20medium%20and%20best/ES_Smooth%20Machine%20-%20Daniel%20Fridell.mp3</pathurl>
															<rate>
																<timebase>30</timebase>
																<ntsc>TRUE</ntsc>
															</rate>
															<duration>7517</duration>
															<timecode>
																<rate>
																	<timebase>30</timebase>
																	<ntsc>TRUE</ntsc>
																</rate>
																<string>00;00;00;00</string>
																<frame>0</frame>
																<displayformat>DF</displayformat>
															</timecode>
															<media>
																<audio>
																	<samplecharacteristics>
																		<depth>16</depth>
																		<samplerate>48000</samplerate>
																	</samplecharacteristics>
																	<channelcount>2</channelcount>
																</audio>
															</media>
														</file>
														<sourcetrack>
															<mediatype>audio</mediatype>
															<trackindex>1</trackindex>
														</sourcetrack>
														<link>
															<linkclipref>clipitem-43</linkclipref>
															<mediatype>audio</mediatype>
															<trackindex>1</trackindex>
															<clipindex>1</clipindex>
															<groupindex>1</groupindex>
														</link>
														<link>
															<linkclipref>clipitem-44</linkclipref>
															<mediatype>audio</mediatype>
															<trackindex>2</trackindex>
															<clipindex>1</clipindex>
															<groupindex>1</groupindex>
														</link>
													</clipitem>
												</track>
												<track>
													<clipitem id="clipitem-44">
														<masterclipid>masterclip-22</masterclipid>
														<name>ES_Smooth Machine - Daniel Fridell.mp3</name>
														<rate>
															<timebase>30</timebase>
															<ntsc>TRUE</ntsc>
														</rate>
														<file id="file-22"/>
														<sourcetrack>
															<mediatype>audio</mediatype>
															<trackindex>2</trackindex>
														</sourcetrack>
														<link>
															<linkclipref>clipitem-43</linkclipref>
															<mediatype>audio</mediatype>
															<trackindex>1</trackindex>
															<clipindex>1</clipindex>
															<groupindex>1</groupindex>
														</link>
														<link>
															<linkclipref>clipitem-44</linkclipref>
															<mediatype>audio</mediatype>
															<trackindex>2</trackindex>
															<clipindex>1</clipindex>
															<groupindex>1</groupindex>
														</link>
													</clipitem>
												</track>
											</audio>
										</media>
										<logginginfo>
											<description></description>
											<scene></scene>
											<shottake></shottake>
											<lognote></lognote>
											<good></good>
											<originalvideofilename></originalvideofilename>
											<originalaudiofilename></originalaudiofilename>
										</logginginfo>
										<colorinfo>
											<lut></lut>
											<lut1></lut1>
											<asc_sop></asc_sop>
											<asc_sat></asc_sat>
											<lut2></lut2>
										</colorinfo>
										<labels>
											<label2>Cerulean</label2>
										</labels>
									</clip>
									<clip id="masterclip-23" explodedTracks="true">
										<uuid>e81cf8f3-0069-4093-9ba4-e7ba4267762a</uuid>
										<masterclipid>masterclip-23</masterclipid>
										<ismasterclip>TRUE</ismasterclip>
										<duration>5971</duration>
										<rate>
											<timebase>30</timebase>
											<ntsc>TRUE</ntsc>
										</rate>
										<in>274</in>
										<name>ES_I Don't Mind (Instrumental Version) - Particle House.mp3</name>
										<media>
											<audio>
												<track>
													<clipitem id="clipitem-45">
														<masterclipid>masterclip-23</masterclipid>
														<name>ES_I Don't Mind (Instrumental Version) - Particle House.mp3</name>
														<rate>
															<timebase>30</timebase>
															<ntsc>TRUE</ntsc>
														</rate>
														<file id="file-23">
															<name>ES_I Don't Mind (Instrumental Version) - Particle House.mp3</name>
															<pathurl>file://localhost/Volumes/Satisfactum%20Satisfactorum/00_Hub%20World/5_Assets/MUSIC/Blossom%20music/Week_05_Music/ES_I%20Don't%20Mind%20(Instrumental%20Version)%20-%20Particle%20House.mp3</pathurl>
															<rate>
																<timebase>30</timebase>
																<ntsc>TRUE</ntsc>
															</rate>
															<duration>5971</duration>
															<timecode>
																<rate>
																	<timebase>30</timebase>
																	<ntsc>TRUE</ntsc>
																</rate>
																<string>00;00;00;00</string>
																<frame>0</frame>
																<displayformat>DF</displayformat>
															</timecode>
															<media>
																<audio>
																	<samplecharacteristics>
																		<depth>16</depth>
																		<samplerate>48000</samplerate>
																	</samplecharacteristics>
																	<channelcount>2</channelcount>
																</audio>
															</media>
														</file>
														<sourcetrack>
															<mediatype>audio</mediatype>
															<trackindex>1</trackindex>
														</sourcetrack>
														<link>
															<linkclipref>clipitem-45</linkclipref>
															<mediatype>audio</mediatype>
															<trackindex>1</trackindex>
															<clipindex>1</clipindex>
															<groupindex>1</groupindex>
														</link>
														<link>
															<linkclipref>clipitem-46</linkclipref>
															<mediatype>audio</mediatype>
															<trackindex>2</trackindex>
															<clipindex>1</clipindex>
															<groupindex>1</groupindex>
														</link>
													</clipitem>
												</track>
												<track>
													<clipitem id="clipitem-46">
														<masterclipid>masterclip-23</masterclipid>
														<name>ES_I Don't Mind (Instrumental Version) - Particle House.mp3</name>
														<rate>
															<timebase>30</timebase>
															<ntsc>TRUE</ntsc>
														</rate>
														<file id="file-23"/>
														<sourcetrack>
															<mediatype>audio</mediatype>
															<trackindex>2</trackindex>
														</sourcetrack>
														<link>
															<linkclipref>clipitem-45</linkclipref>
															<mediatype>audio</mediatype>
															<trackindex>1</trackindex>
															<clipindex>1</clipindex>
															<groupindex>1</groupindex>
														</link>
														<link>
															<linkclipref>clipitem-46</linkclipref>
															<mediatype>audio</mediatype>
															<trackindex>2</trackindex>
															<clipindex>1</clipindex>
															<groupindex>1</groupindex>
														</link>
													</clipitem>
												</track>
											</audio>
										</media>
										<logginginfo>
											<description></description>
											<scene></scene>
											<shottake></shottake>
											<lognote></lognote>
											<good></good>
											<originalvideofilename></originalvideofilename>
											<originalaudiofilename></originalaudiofilename>
										</logginginfo>
										<colorinfo>
											<lut></lut>
											<lut1></lut1>
											<asc_sop></asc_sop>
											<asc_sat></asc_sat>
											<lut2></lut2>
										</colorinfo>
										<labels>
											<label2>Cerulean</label2>
										</labels>
									</clip>
									<clip id="masterclip-24" explodedTracks="true">
										<uuid>a9ea86e2-b6ec-4e88-bafd-729cc91016a1</uuid>
										<masterclipid>masterclip-24</masterclipid>
										<ismasterclip>TRUE</ismasterclip>
										<duration>6427</duration>
										<rate>
											<timebase>30</timebase>
											<ntsc>TRUE</ntsc>
										</rate>
										<name>ES_Spring Street - Hara Noda copy.mp3</name>
										<media>
											<audio>
												<track>
													<clipitem id="clipitem-47">
														<masterclipid>masterclip-24</masterclipid>
														<name>ES_Spring Street - Hara Noda copy.mp3</name>
														<rate>
															<timebase>30</timebase>
															<ntsc>TRUE</ntsc>
														</rate>
														<file id="file-24">
															<name>ES_Spring Street - Hara Noda copy.mp3</name>
															<pathurl>file://localhost/Volumes/Satisfactum%20Satisfactorum/00_Hub%20World/5_Assets/MUSIC/Big%20bad%20music%20re-sort%20Epidemic%20and%20Artlist%2007-23/02_Adult%20Swim%20bumpers%20-%20medium%20and%20best/ES_Spring%20Street%20-%20Hara%20Noda%20copy.mp3</pathurl>
															<rate>
																<timebase>30</timebase>
																<ntsc>TRUE</ntsc>
															</rate>
															<duration>6427</duration>
															<timecode>
																<rate>
																	<timebase>30</timebase>
																	<ntsc>TRUE</ntsc>
																</rate>
																<string>00;00;00;00</string>
																<frame>0</frame>
																<displayformat>DF</displayformat>
															</timecode>
															<media>
																<audio>
																	<samplecharacteristics>
																		<depth>16</depth>
																		<samplerate>48000</samplerate>
																	</samplecharacteristics>
																	<channelcount>2</channelcount>
																</audio>
															</media>
														</file>
														<sourcetrack>
															<mediatype>audio</mediatype>
															<trackindex>1</trackindex>
														</sourcetrack>
														<link>
															<linkclipref>clipitem-47</linkclipref>
															<mediatype>audio</mediatype>
															<trackindex>1</trackindex>
															<clipindex>1</clipindex>
															<groupindex>1</groupindex>
														</link>
														<link>
															<linkclipref>clipitem-48</linkclipref>
															<mediatype>audio</mediatype>
															<trackindex>2</trackindex>
															<clipindex>1</clipindex>
															<groupindex>1</groupindex>
														</link>
													</clipitem>
												</track>
												<track>
													<clipitem id="clipitem-48">
														<masterclipid>masterclip-24</masterclipid>
														<name>ES_Spring Street - Hara Noda copy.mp3</name>
														<rate>
															<timebase>30</timebase>
															<ntsc>TRUE</ntsc>
														</rate>
														<file id="file-24"/>
														<sourcetrack>
															<mediatype>audio</mediatype>
															<trackindex>2</trackindex>
														</sourcetrack>
														<link>
															<linkclipref>clipitem-47</linkclipref>
															<mediatype>audio</mediatype>
															<trackindex>1</trackindex>
															<clipindex>1</clipindex>
															<groupindex>1</groupindex>
														</link>
														<link>
															<linkclipref>clipitem-48</linkclipref>
															<mediatype>audio</mediatype>
															<trackindex>2</trackindex>
															<clipindex>1</clipindex>
															<groupindex>1</groupindex>
														</link>
													</clipitem>
												</track>
											</audio>
										</media>
										<logginginfo>
											<description></description>
											<scene></scene>
											<shottake></shottake>
											<lognote></lognote>
											<good></good>
											<originalvideofilename></originalvideofilename>
											<originalaudiofilename></originalaudiofilename>
										</logginginfo>
										<colorinfo>
											<lut></lut>
											<lut1></lut1>
											<asc_sop></asc_sop>
											<asc_sat></asc_sat>
											<lut2></lut2>
										</colorinfo>
										<labels>
											<label2>Forest</label2>
										</labels>
									</clip>
								</children>
							</bin>
							<bin>
								<name>01_Edibles - slow</name>
								<children>
									<clip id="masterclip-25" explodedTracks="true">
										<uuid>3c5c7a8d-789a-45c3-9826-eba152f7e300</uuid>
										<masterclipid>masterclip-25</masterclipid>
										<ismasterclip>TRUE</ismasterclip>
										<duration>3592</duration>
										<rate>
											<timebase>30</timebase>
											<ntsc>TRUE</ntsc>
										</rate>
										<name>ES_Pyrite - Sarah, the Illstrumentalist.mp3</name>
										<media>
											<audio>
												<track>
													<clipitem id="clipitem-49">
														<masterclipid>masterclip-25</masterclipid>
														<name>ES_Pyrite - Sarah, the Illstrumentalist.mp3</name>
														<rate>
															<timebase>30</timebase>
															<ntsc>TRUE</ntsc>
														</rate>
														<file id="file-25">
															<name>ES_Pyrite - Sarah, the Illstrumentalist.mp3</name>
															<pathurl>file://localhost/Volumes/Satisfactum%20Satisfactorum/00_Hub%20World/5_Assets/MUSIC/Epidemic/ES_Pyrite%20-%20Sarah,%20the%20Illstrumentalist.mp3</pathurl>
															<rate>
																<timebase>30</timebase>
																<ntsc>TRUE</ntsc>
															</rate>
															<duration>3592</duration>
															<timecode>
																<rate>
																	<timebase>30</timebase>
																	<ntsc>TRUE</ntsc>
																</rate>
																<string>00;00;00;00</string>
																<frame>0</frame>
																<displayformat>DF</displayformat>
															</timecode>
															<media>
																<audio>
																	<samplecharacteristics>
																		<depth>16</depth>
																		<samplerate>48000</samplerate>
																	</samplecharacteristics>
																	<channelcount>2</channelcount>
																</audio>
															</media>
														</file>
														<sourcetrack>
															<mediatype>audio</mediatype>
															<trackindex>1</trackindex>
														</sourcetrack>
														<link>
															<linkclipref>clipitem-49</linkclipref>
															<mediatype>audio</mediatype>
															<trackindex>1</trackindex>
															<clipindex>1</clipindex>
															<groupindex>1</groupindex>
														</link>
														<link>
															<linkclipref>clipitem-50</linkclipref>
															<mediatype>audio</mediatype>
															<trackindex>2</trackindex>
															<clipindex>1</clipindex>
															<groupindex>1</groupindex>
														</link>
													</clipitem>
												</track>
												<track>
													<clipitem id="clipitem-50">
														<masterclipid>masterclip-25</masterclipid>
														<name>ES_Pyrite - Sarah, the Illstrumentalist.mp3</name>
														<rate>
															<timebase>30</timebase>
															<ntsc>TRUE</ntsc>
														</rate>
														<file id="file-25"/>
														<sourcetrack>
															<mediatype>audio</mediatype>
															<trackindex>2</trackindex>
														</sourcetrack>
														<link>
															<linkclipref>clipitem-49</linkclipref>
															<mediatype>audio</mediatype>
															<trackindex>1</trackindex>
															<clipindex>1</clipindex>
															<groupindex>1</groupindex>
														</link>
														<link>
															<linkclipref>clipitem-50</linkclipref>
															<mediatype>audio</mediatype>
															<trackindex>2</trackindex>
															<clipindex>1</clipindex>
															<groupindex>1</groupindex>
														</link>
													</clipitem>
												</track>
											</audio>
										</media>
										<logginginfo>
											<description></description>
											<scene></scene>
											<shottake></shottake>
											<lognote></lognote>
											<good></good>
											<originalvideofilename></originalvideofilename>
											<originalaudiofilename></originalaudiofilename>
										</logginginfo>
										<colorinfo>
											<lut></lut>
											<lut1></lut1>
											<asc_sop></asc_sop>
											<asc_sat></asc_sat>
											<lut2></lut2>
										</colorinfo>
										<labels>
											<label2>Forest</label2>
										</labels>
									</clip>
									<clip id="masterclip-26" explodedTracks="true">
										<uuid>4754e190-af3e-4dcd-bb75-b84e28f0d4cf</uuid>
										<masterclipid>masterclip-26</masterclipid>
										<ismasterclip>TRUE</ismasterclip>
										<duration>5635</duration>
										<rate>
											<timebase>30</timebase>
											<ntsc>TRUE</ntsc>
										</rate>
										<in>883</in>
										<name>CTRL S - At the Sea.mp3</name>
										<media>
											<audio>
												<track>
													<clipitem id="clipitem-51">
														<masterclipid>masterclip-26</masterclipid>
														<name>CTRL S - At the Sea.mp3</name>
														<rate>
															<timebase>30</timebase>
															<ntsc>TRUE</ntsc>
														</rate>
														<file id="file-26">
															<name>CTRL S - At the Sea.mp3</name>
															<pathurl>file://localhost/Volumes/Satisfactum%20Satisfactorum/00_Hub%20World/5_Assets/MUSIC/New%20music%2005-03-23/CTRL%20S%20-%20At%20the%20Sea.mp3</pathurl>
															<rate>
																<timebase>30</timebase>
																<ntsc>TRUE</ntsc>
															</rate>
															<duration>5635</duration>
															<timecode>
																<rate>
																	<timebase>30</timebase>
																	<ntsc>TRUE</ntsc>
																</rate>
																<string>00;00;00;00</string>
																<frame>0</frame>
																<displayformat>DF</displayformat>
															</timecode>
															<media>
																<audio>
																	<samplecharacteristics>
																		<depth>16</depth>
																		<samplerate>44100</samplerate>
																	</samplecharacteristics>
																	<channelcount>2</channelcount>
																</audio>
															</media>
														</file>
														<sourcetrack>
															<mediatype>audio</mediatype>
															<trackindex>1</trackindex>
														</sourcetrack>
														<link>
															<linkclipref>clipitem-51</linkclipref>
															<mediatype>audio</mediatype>
															<trackindex>1</trackindex>
															<clipindex>1</clipindex>
															<groupindex>1</groupindex>
														</link>
														<link>
															<linkclipref>clipitem-52</linkclipref>
															<mediatype>audio</mediatype>
															<trackindex>2</trackindex>
															<clipindex>1</clipindex>
															<groupindex>1</groupindex>
														</link>
													</clipitem>
												</track>
												<track>
													<clipitem id="clipitem-52">
														<masterclipid>masterclip-26</masterclipid>
														<name>CTRL S - At the Sea.mp3</name>
														<rate>
															<timebase>30</timebase>
															<ntsc>TRUE</ntsc>
														</rate>
														<file id="file-26"/>
														<sourcetrack>
															<mediatype>audio</mediatype>
															<trackindex>2</trackindex>
														</sourcetrack>
														<link>
															<linkclipref>clipitem-51</linkclipref>
															<mediatype>audio</mediatype>
															<trackindex>1</trackindex>
															<clipindex>1</clipindex>
															<groupindex>1</groupindex>
														</link>
														<link>
															<linkclipref>clipitem-52</linkclipref>
															<mediatype>audio</mediatype>
															<trackindex>2</trackindex>
															<clipindex>1</clipindex>
															<groupindex>1</groupindex>
														</link>
													</clipitem>
												</track>
											</audio>
										</media>
										<logginginfo>
											<description></description>
											<scene></scene>
											<shottake></shottake>
											<lognote></lognote>
											<good></good>
											<originalvideofilename></originalvideofilename>
											<originalaudiofilename></originalaudiofilename>
										</logginginfo>
										<colorinfo>
											<lut></lut>
											<lut1></lut1>
											<asc_sop></asc_sop>
											<asc_sat></asc_sat>
											<lut2></lut2>
										</colorinfo>
										<labels>
											<label2>Forest</label2>
										</labels>
									</clip>
									<clip id="masterclip-27" explodedTracks="true">
										<uuid>0030617a-8b8e-4c16-8841-cfa8cd960b27</uuid>
										<masterclipid>masterclip-27</masterclipid>
										<ismasterclip>TRUE</ismasterclip>
										<duration>8909</duration>
										<rate>
											<timebase>30</timebase>
											<ntsc>TRUE</ntsc>
										</rate>
										<in>959</in>
										<name>When Mountains Move - Pretend to Forget.mp3</name>
										<media>
											<audio>
												<track>
													<clipitem id="clipitem-53">
														<masterclipid>masterclip-27</masterclipid>
														<name>When Mountains Move - Pretend to Forget.mp3</name>
														<rate>
															<timebase>30</timebase>
															<ntsc>TRUE</ntsc>
														</rate>
														<file id="file-27">
															<name>When Mountains Move - Pretend to Forget.mp3</name>
															<pathurl>file://localhost/Volumes/Satisfactum%20Satisfactorum/00_Hub%20World/5_Assets/MUSIC/New%20songs%2005-11-23/When%20Mountains%20Move%20-%20Pretend%20to%20Forget.mp3</pathurl>
															<rate>
																<timebase>30</timebase>
																<ntsc>TRUE</ntsc>
															</rate>
															<duration>8909</duration>
															<timecode>
																<rate>
																	<timebase>30</timebase>
																	<ntsc>TRUE</ntsc>
																</rate>
																<string>00;00;00;00</string>
																<frame>0</frame>
																<displayformat>DF</displayformat>
															</timecode>
															<media>
																<audio>
																	<samplecharacteristics>
																		<depth>16</depth>
																		<samplerate>44100</samplerate>
																	</samplecharacteristics>
																	<channelcount>2</channelcount>
																</audio>
															</media>
														</file>
														<sourcetrack>
															<mediatype>audio</mediatype>
															<trackindex>1</trackindex>
														</sourcetrack>
														<link>
															<linkclipref>clipitem-53</linkclipref>
															<mediatype>audio</mediatype>
															<trackindex>1</trackindex>
															<clipindex>1</clipindex>
															<groupindex>1</groupindex>
														</link>
														<link>
															<linkclipref>clipitem-54</linkclipref>
															<mediatype>audio</mediatype>
															<trackindex>2</trackindex>
															<clipindex>1</clipindex>
															<groupindex>1</groupindex>
														</link>
													</clipitem>
												</track>
												<track>
													<clipitem id="clipitem-54">
														<masterclipid>masterclip-27</masterclipid>
														<name>When Mountains Move - Pretend to Forget.mp3</name>
														<rate>
															<timebase>30</timebase>
															<ntsc>TRUE</ntsc>
														</rate>
														<file id="file-27"/>
														<sourcetrack>
															<mediatype>audio</mediatype>
															<trackindex>2</trackindex>
														</sourcetrack>
														<link>
															<linkclipref>clipitem-53</linkclipref>
															<mediatype>audio</mediatype>
															<trackindex>1</trackindex>
															<clipindex>1</clipindex>
															<groupindex>1</groupindex>
														</link>
														<link>
															<linkclipref>clipitem-54</linkclipref>
															<mediatype>audio</mediatype>
															<trackindex>2</trackindex>
															<clipindex>1</clipindex>
															<groupindex>1</groupindex>
														</link>
													</clipitem>
												</track>
											</audio>
										</media>
										<logginginfo>
											<description></description>
											<scene></scene>
											<shottake></shottake>
											<lognote></lognote>
											<good></good>
											<originalvideofilename></originalvideofilename>
											<originalaudiofilename></originalaudiofilename>
										</logginginfo>
										<colorinfo>
											<lut></lut>
											<lut1></lut1>
											<asc_sop></asc_sop>
											<asc_sat></asc_sat>
											<lut2></lut2>
										</colorinfo>
										<labels>
											<label2>Cerulean</label2>
										</labels>
									</clip>
									<clip id="masterclip-28" explodedTracks="true">
										<uuid>ca84894e-9766-4863-b88d-6c1acf8eea32</uuid>
										<masterclipid>masterclip-28</masterclipid>
										<ismasterclip>TRUE</ismasterclip>
										<duration>4510</duration>
										<rate>
											<timebase>30</timebase>
											<ntsc>TRUE</ntsc>
										</rate>
										<name>ES_With Tim - Guustavv.mp3</name>
										<media>
											<audio>
												<track>
													<clipitem id="clipitem-55">
														<masterclipid>masterclip-28</masterclipid>
														<name>ES_With Tim - Guustavv.mp3</name>
														<rate>
															<timebase>30</timebase>
															<ntsc>TRUE</ntsc>
														</rate>
														<file id="file-28">
															<name>ES_With Tim - Guustavv.mp3</name>
															<pathurl>file://localhost/Volumes/Satisfactum%20Satisfactorum/00_Hub%20World/5_Assets/MUSIC/Epidemic/ES_With%20Tim%20-%20Guustavv.mp3</pathurl>
															<rate>
																<timebase>30</timebase>
																<ntsc>TRUE</ntsc>
															</rate>
															<duration>4510</duration>
															<timecode>
																<rate>
																	<timebase>30</timebase>
																	<ntsc>TRUE</ntsc>
																</rate>
																<string>00;00;00;00</string>
																<frame>0</frame>
																<displayformat>DF</displayformat>
															</timecode>
															<media>
																<audio>
																	<samplecharacteristics>
																		<depth>16</depth>
																		<samplerate>48000</samplerate>
																	</samplecharacteristics>
																	<channelcount>2</channelcount>
																</audio>
															</media>
														</file>
														<sourcetrack>
															<mediatype>audio</mediatype>
															<trackindex>1</trackindex>
														</sourcetrack>
														<link>
															<linkclipref>clipitem-55</linkclipref>
															<mediatype>audio</mediatype>
															<trackindex>1</trackindex>
															<clipindex>1</clipindex>
															<groupindex>1</groupindex>
														</link>
														<link>
															<linkclipref>clipitem-56</linkclipref>
															<mediatype>audio</mediatype>
															<trackindex>2</trackindex>
															<clipindex>1</clipindex>
															<groupindex>1</groupindex>
														</link>
													</clipitem>
												</track>
												<track>
													<clipitem id="clipitem-56">
														<masterclipid>masterclip-28</masterclipid>
														<name>ES_With Tim - Guustavv.mp3</name>
														<rate>
															<timebase>30</timebase>
															<ntsc>TRUE</ntsc>
														</rate>
														<file id="file-28"/>
														<sourcetrack>
															<mediatype>audio</mediatype>
															<trackindex>2</trackindex>
														</sourcetrack>
														<link>
															<linkclipref>clipitem-55</linkclipref>
															<mediatype>audio</mediatype>
															<trackindex>1</trackindex>
															<clipindex>1</clipindex>
															<groupindex>1</groupindex>
														</link>
														<link>
															<linkclipref>clipitem-56</linkclipref>
															<mediatype>audio</mediatype>
															<trackindex>2</trackindex>
															<clipindex>1</clipindex>
															<groupindex>1</groupindex>
														</link>
													</clipitem>
												</track>
											</audio>
										</media>
										<logginginfo>
											<description></description>
											<scene></scene>
											<shottake></shottake>
											<lognote></lognote>
											<good></good>
											<originalvideofilename></originalvideofilename>
											<originalaudiofilename></originalaudiofilename>
										</logginginfo>
										<colorinfo>
											<lut></lut>
											<lut1></lut1>
											<asc_sop></asc_sop>
											<asc_sat></asc_sat>
											<lut2></lut2>
										</colorinfo>
										<labels>
											<label2>Cerulean</label2>
										</labels>
									</clip>
								</children>
							</bin>
							<bin>
								<name>03_Speeder Daemon - fast</name>
								<children>
									<clip id="masterclip-29" explodedTracks="true">
										<uuid>88e14168-ee1a-4534-a06c-068fd35a1452</uuid>
										<masterclipid>masterclip-29</masterclipid>
										<ismasterclip>TRUE</ismasterclip>
										<duration>7405</duration>
										<rate>
											<timebase>30</timebase>
											<ntsc>TRUE</ntsc>
										</rate>
										<in>1601</in>
										<name>ES_I See Blue - Dye O.mp3</name>
										<media>
											<audio>
												<track>
													<clipitem id="clipitem-57">
														<masterclipid>masterclip-29</masterclipid>
														<name>ES_I See Blue - Dye O.mp3</name>
														<rate>
															<timebase>30</timebase>
															<ntsc>TRUE</ntsc>
														</rate>
														<file id="file-29">
															<name>ES_I See Blue - Dye O.mp3</name>
															<pathurl>file://localhost/Volumes/Satisfactum%20Satisfactorum/00_Hub%20World/5_Assets/MUSIC/Big%20bad%20music%20re-sort%20Epidemic%20and%20Artlist%2007-23/03_Speeder%20Daemon%20-%20fast/ES_I%20See%20Blue%20-%20Dye%20O.mp3</pathurl>
															<rate>
																<timebase>30</timebase>
																<ntsc>TRUE</ntsc>
															</rate>
															<duration>7405</duration>
															<timecode>
																<rate>
																	<timebase>30</timebase>
																	<ntsc>TRUE</ntsc>
																</rate>
																<string>00;00;00;00</string>
																<frame>0</frame>
																<displayformat>DF</displayformat>
															</timecode>
															<media>
																<audio>
																	<samplecharacteristics>
																		<depth>16</depth>
																		<samplerate>48000</samplerate>
																	</samplecharacteristics>
																	<channelcount>2</channelcount>
																</audio>
															</media>
														</file>
														<sourcetrack>
															<mediatype>audio</mediatype>
															<trackindex>1</trackindex>
														</sourcetrack>
														<link>
															<linkclipref>clipitem-57</linkclipref>
															<mediatype>audio</mediatype>
															<trackindex>1</trackindex>
															<clipindex>1</clipindex>
															<groupindex>1</groupindex>
														</link>
														<link>
															<linkclipref>clipitem-58</linkclipref>
															<mediatype>audio</mediatype>
															<trackindex>2</trackindex>
															<clipindex>1</clipindex>
															<groupindex>1</groupindex>
														</link>
													</clipitem>
												</track>
												<track>
													<clipitem id="clipitem-58">
														<masterclipid>masterclip-29</masterclipid>
														<name>ES_I See Blue - Dye O.mp3</name>
														<rate>
															<timebase>30</timebase>
															<ntsc>TRUE</ntsc>
														</rate>
														<file id="file-29"/>
														<sourcetrack>
															<mediatype>audio</mediatype>
															<trackindex>2</trackindex>
														</sourcetrack>
														<link>
															<linkclipref>clipitem-57</linkclipref>
															<mediatype>audio</mediatype>
															<trackindex>1</trackindex>
															<clipindex>1</clipindex>
															<groupindex>1</groupindex>
														</link>
														<link>
															<linkclipref>clipitem-58</linkclipref>
															<mediatype>audio</mediatype>
															<trackindex>2</trackindex>
															<clipindex>1</clipindex>
															<groupindex>1</groupindex>
														</link>
													</clipitem>
												</track>
											</audio>
										</media>
										<logginginfo>
											<description></description>
											<scene></scene>
											<shottake></shottake>
											<lognote></lognote>
											<good></good>
											<originalvideofilename></originalvideofilename>
											<originalaudiofilename></originalaudiofilename>
										</logginginfo>
										<colorinfo>
											<lut></lut>
											<lut1></lut1>
											<asc_sop></asc_sop>
											<asc_sat></asc_sat>
											<lut2></lut2>
										</colorinfo>
										<labels>
											<label2>Forest</label2>
										</labels>
									</clip>
									<clip id="masterclip-30" explodedTracks="true">
										<uuid>3e5b58a7-335a-46f3-9957-be6c39baf3b7</uuid>
										<masterclipid>masterclip-30</masterclipid>
										<ismasterclip>TRUE</ismasterclip>
										<duration>4356</duration>
										<rate>
											<timebase>30</timebase>
											<ntsc>TRUE</ntsc>
										</rate>
										<name>ES_Blitz - Ballpoint.mp3</name>
										<media>
											<audio>
												<track>
													<clipitem id="clipitem-59">
														<masterclipid>masterclip-30</masterclipid>
														<name>ES_Blitz - Ballpoint.mp3</name>
														<rate>
															<timebase>30</timebase>
															<ntsc>TRUE</ntsc>
														</rate>
														<file id="file-30">
															<name>ES_Blitz - Ballpoint.mp3</name>
															<pathurl>file://localhost/Volumes/Satisfactum%20Satisfactorum/00_Hub%20World/5_Assets/MUSIC/New%20music%2002-03-22/ES_Blitz%20-%20Ballpoint.mp3</pathurl>
															<rate>
																<timebase>30</timebase>
																<ntsc>TRUE</ntsc>
															</rate>
															<duration>4356</duration>
															<timecode>
																<rate>
																	<timebase>30</timebase>
																	<ntsc>TRUE</ntsc>
																</rate>
																<string>00;00;00;00</string>
																<frame>0</frame>
																<displayformat>DF</displayformat>
															</timecode>
															<media>
																<audio>
																	<samplecharacteristics>
																		<depth>16</depth>
																		<samplerate>48000</samplerate>
																	</samplecharacteristics>
																	<channelcount>2</channelcount>
																</audio>
															</media>
														</file>
														<sourcetrack>
															<mediatype>audio</mediatype>
															<trackindex>1</trackindex>
														</sourcetrack>
														<link>
															<linkclipref>clipitem-59</linkclipref>
															<mediatype>audio</mediatype>
															<trackindex>1</trackindex>
															<clipindex>1</clipindex>
															<groupindex>1</groupindex>
														</link>
														<link>
															<linkclipref>clipitem-60</linkclipref>
															<mediatype>audio</mediatype>
															<trackindex>2</trackindex>
															<clipindex>1</clipindex>
															<groupindex>1</groupindex>
														</link>
													</clipitem>
												</track>
												<track>
													<clipitem id="clipitem-60">
														<masterclipid>masterclip-30</masterclipid>
														<name>ES_Blitz - Ballpoint.mp3</name>
														<rate>
															<timebase>30</timebase>
															<ntsc>TRUE</ntsc>
														</rate>
														<file id="file-30"/>
														<sourcetrack>
															<mediatype>audio</mediatype>
															<trackindex>2</trackindex>
														</sourcetrack>
														<link>
															<linkclipref>clipitem-59</linkclipref>
															<mediatype>audio</mediatype>
															<trackindex>1</trackindex>
															<clipindex>1</clipindex>
															<groupindex>1</groupindex>
														</link>
														<link>
															<linkclipref>clipitem-60</linkclipref>
															<mediatype>audio</mediatype>
															<trackindex>2</trackindex>
															<clipindex>1</clipindex>
															<groupindex>1</groupindex>
														</link>
													</clipitem>
												</track>
											</audio>
										</media>
											<marker>
												<comment></comment>
												<name></name>
												<in>427</in>
												<out>-1</out>
											</marker>
										<logginginfo>
											<description></description>
											<scene></scene>
											<shottake></shottake>
											<lognote></lognote>
											<good></good>
											<originalvideofilename></originalvideofilename>
											<originalaudiofilename></originalaudiofilename>
										</logginginfo>
										<colorinfo>
											<lut></lut>
											<lut1></lut1>
											<asc_sop></asc_sop>
											<asc_sat></asc_sat>
											<lut2></lut2>
										</colorinfo>
										<labels>
											<label2>Forest</label2>
										</labels>
									</clip>
								</children>
							</bin>
							<bin>
								<name>04_Mechanical</name>
								<children>
									<clip id="masterclip-31" explodedTracks="true">
										<uuid>0fe313c7-6f06-45db-b1d2-379d4d113078</uuid>
										<masterclipid>masterclip-31</masterclipid>
										<ismasterclip>TRUE</ismasterclip>
										<duration>9358</duration>
										<rate>
											<timebase>30</timebase>
											<ntsc>TRUE</ntsc>
										</rate>
										<in>656</in>
										<name>flounder by jamie-bathgate Artlist.mp3</name>
										<media>
											<audio>
												<track>
													<clipitem id="clipitem-61">
														<masterclipid>masterclip-31</masterclipid>
														<name>flounder by jamie-bathgate Artlist.mp3</name>
														<rate>
															<timebase>30</timebase>
															<ntsc>TRUE</ntsc>
														</rate>
														<file id="file-31">
															<name>flounder by jamie-bathgate Artlist.mp3</name>
															<pathurl>file://localhost/Users/dalecampo/Downloads/00_Downloads%20to%20Sort/Artlist%20Tracks%20Used%20for%20Form/flounder%20by%20jamie-bathgate%20Artlist.mp3</pathurl>
															<rate>
																<timebase>30</timebase>
																<ntsc>TRUE</ntsc>
															</rate>
															<duration>9358</duration>
															<timecode>
																<rate>
																	<timebase>30</timebase>
																	<ntsc>TRUE</ntsc>
																</rate>
																<string>00;00;00;00</string>
																<frame>0</frame>
																<displayformat>DF</displayformat>
															</timecode>
															<media>
																<audio>
																	<samplecharacteristics>
																		<depth>16</depth>
																		<samplerate>44100</samplerate>
																	</samplecharacteristics>
																	<channelcount>2</channelcount>
																</audio>
															</media>
														</file>
														<sourcetrack>
															<mediatype>audio</mediatype>
															<trackindex>1</trackindex>
														</sourcetrack>
														<link>
															<linkclipref>clipitem-61</linkclipref>
															<mediatype>audio</mediatype>
															<trackindex>1</trackindex>
															<clipindex>1</clipindex>
															<groupindex>1</groupindex>
														</link>
														<link>
															<linkclipref>clipitem-62</linkclipref>
															<mediatype>audio</mediatype>
															<trackindex>2</trackindex>
															<clipindex>1</clipindex>
															<groupindex>1</groupindex>
														</link>
													</clipitem>
												</track>
												<track>
													<clipitem id="clipitem-62">
														<masterclipid>masterclip-31</masterclipid>
														<name>flounder by jamie-bathgate Artlist.mp3</name>
														<rate>
															<timebase>30</timebase>
															<ntsc>TRUE</ntsc>
														</rate>
														<file id="file-31"/>
														<sourcetrack>
															<mediatype>audio</mediatype>
															<trackindex>2</trackindex>
														</sourcetrack>
														<link>
															<linkclipref>clipitem-61</linkclipref>
															<mediatype>audio</mediatype>
															<trackindex>1</trackindex>
															<clipindex>1</clipindex>
															<groupindex>1</groupindex>
														</link>
														<link>
															<linkclipref>clipitem-62</linkclipref>
															<mediatype>audio</mediatype>
															<trackindex>2</trackindex>
															<clipindex>1</clipindex>
															<groupindex>1</groupindex>
														</link>
													</clipitem>
												</track>
											</audio>
										</media>
										<logginginfo>
											<description></description>
											<scene></scene>
											<shottake></shottake>
											<lognote></lognote>
											<good></good>
											<originalvideofilename></originalvideofilename>
											<originalaudiofilename></originalaudiofilename>
										</logginginfo>
										<colorinfo>
											<lut></lut>
											<lut1></lut1>
											<asc_sop></asc_sop>
											<asc_sat></asc_sat>
											<lut2></lut2>
										</colorinfo>
										<labels>
											<label2>Forest</label2>
										</labels>
									</clip>
								</children>
							</bin>
							<bin>
								<name>07_Synth</name>
								<children>
									<clip id="masterclip-32" explodedTracks="true">
										<uuid>82c55440-5b6d-491e-94e7-7e4fb960ffcd</uuid>
										<masterclipid>masterclip-32</masterclipid>
										<ismasterclip>TRUE</ismasterclip>
										<duration>6915</duration>
										<rate>
											<timebase>30</timebase>
											<ntsc>TRUE</ntsc>
										</rate>
										<name>futuristic-cliché by curtis-cole Artlist.mp3</name>
										<media>
											<audio>
												<track>
													<clipitem id="clipitem-63">
														<masterclipid>masterclip-32</masterclipid>
														<name>futuristic-cliché by curtis-cole Artlist.mp3</name>
														<rate>
															<timebase>30</timebase>
															<ntsc>TRUE</ntsc>
														</rate>
														<file id="file-32">
															<name>futuristic-cliché by curtis-cole Artlist.mp3</name>
															<pathurl>file://localhost/Users/dalecampo/Downloads/00_Downloads%20to%20Sort/Artlist%20Tracks%20Used%20for%20Form/futuristic-cliche%cc%81%20by%20curtis-cole%20Artlist.mp3</pathurl>
															<rate>
																<timebase>30</timebase>
																<ntsc>TRUE</ntsc>
															</rate>
															<duration>6915</duration>
															<timecode>
																<rate>
																	<timebase>30</timebase>
																	<ntsc>TRUE</ntsc>
																</rate>
																<string>00;00;00;00</string>
																<frame>0</frame>
																<displayformat>DF</displayformat>
															</timecode>
															<media>
																<audio>
																	<samplecharacteristics>
																		<depth>16</depth>
																		<samplerate>44100</samplerate>
																	</samplecharacteristics>
																	<channelcount>2</channelcount>
																</audio>
															</media>
														</file>
														<sourcetrack>
															<mediatype>audio</mediatype>
															<trackindex>1</trackindex>
														</sourcetrack>
														<link>
															<linkclipref>clipitem-63</linkclipref>
															<mediatype>audio</mediatype>
															<trackindex>1</trackindex>
															<clipindex>1</clipindex>
															<groupindex>1</groupindex>
														</link>
														<link>
															<linkclipref>clipitem-64</linkclipref>
															<mediatype>audio</mediatype>
															<trackindex>2</trackindex>
															<clipindex>1</clipindex>
															<groupindex>1</groupindex>
														</link>
													</clipitem>
												</track>
												<track>
													<clipitem id="clipitem-64">
														<masterclipid>masterclip-32</masterclipid>
														<name>futuristic-cliché by curtis-cole Artlist.mp3</name>
														<rate>
															<timebase>30</timebase>
															<ntsc>TRUE</ntsc>
														</rate>
														<file id="file-32"/>
														<sourcetrack>
															<mediatype>audio</mediatype>
															<trackindex>2</trackindex>
														</sourcetrack>
														<link>
															<linkclipref>clipitem-63</linkclipref>
															<mediatype>audio</mediatype>
															<trackindex>1</trackindex>
															<clipindex>1</clipindex>
															<groupindex>1</groupindex>
														</link>
														<link>
															<linkclipref>clipitem-64</linkclipref>
															<mediatype>audio</mediatype>
															<trackindex>2</trackindex>
															<clipindex>1</clipindex>
															<groupindex>1</groupindex>
														</link>
													</clipitem>
												</track>
											</audio>
										</media>
											<marker>
												<comment></comment>
												<name></name>
												<in>573</in>
												<out>-1</out>
											</marker>
										<logginginfo>
											<description></description>
											<scene></scene>
											<shottake></shottake>
											<lognote>All Rights Reserved to www.Art-list.io</lognote>
											<good></good>
											<originalvideofilename></originalvideofilename>
											<originalaudiofilename></originalaudiofilename>
										</logginginfo>
										<colorinfo>
											<lut></lut>
											<lut1></lut1>
											<asc_sop></asc_sop>
											<asc_sat></asc_sat>
											<lut2></lut2>
										</colorinfo>
										<labels>
											<label2>Forest</label2>
										</labels>
									</clip>
								</children>
							</bin>
						</children>
					</bin>
				</children>
			</bin>
			<bin>
				<name>04_Template Assets</name>
				<labels>
					<label2>Brown</label2>
				</labels>
				<children>
					<clip id="masterclip-33" explodedTracks="true">
						<uuid>56c97173-6682-4b8f-9bc5-3991053ac98d</uuid>
						<masterclipid>masterclip-33</masterclipid>
						<ismasterclip>TRUE</ismasterclip>
						<duration>300</duration>
						<rate>
							<timebase>30</timebase>
							<ntsc>FALSE</ntsc>
						</rate>
						<name>01.5_ATM_Content Submit QR_Music 2.mp4</name>
						<media>
							<video>
								<track>
									<clipitem id="clipitem-65">
										<masterclipid>masterclip-33</masterclipid>
										<name>01.5_ATM_Content Submit QR_Music 2.mp4</name>
										<rate>
											<timebase>30</timebase>
											<ntsc>FALSE</ntsc>
										</rate>
										<alphatype>none</alphatype>
										<pixelaspectratio>square</pixelaspectratio>
										<anamorphic>FALSE</anamorphic>
										<file id="file-33">
											<name>ATM_Content Submit QR_Music 2.mp4</name>
											<pathurl>file://localhost/Volumes/Satisfactum%20Satisfactorum/00_Hub%20World/5_Assets/Graphics/ATM_Content%20Submit%20QR_Music%202.mp4</pathurl>
											<rate>
												<timebase>30</timebase>
												<ntsc>FALSE</ntsc>
											</rate>
											<duration>300</duration>
											<timecode>
												<rate>
													<timebase>30</timebase>
													<ntsc>FALSE</ntsc>
												</rate>
												<string>00:00:00:00</string>
												<frame>0</frame>
												<displayformat>NDF</displayformat>
											</timecode>
											<media>
												<video>
													<samplecharacteristics>
														<rate>
															<timebase>30</timebase>
															<ntsc>FALSE</ntsc>
														</rate>
														<width>1920</width>
														<height>1080</height>
														<anamorphic>FALSE</anamorphic>
														<pixelaspectratio>square</pixelaspectratio>
														<fielddominance>none</fielddominance>
													</samplecharacteristics>
												</video>
												<audio>
													<samplecharacteristics>
														<depth>16</depth>
														<samplerate>44100</samplerate>
													</samplecharacteristics>
													<channelcount>2</channelcount>
												</audio>
											</media>
										</file>
										<link>
											<linkclipref>clipitem-65</linkclipref>
											<mediatype>video</mediatype>
											<trackindex>1</trackindex>
											<clipindex>1</clipindex>
										</link>
										<link>
											<linkclipref>clipitem-66</linkclipref>
											<mediatype>audio</mediatype>
											<trackindex>1</trackindex>
											<clipindex>1</clipindex>
											<groupindex>1</groupindex>
										</link>
										<link>
											<linkclipref>clipitem-67</linkclipref>
											<mediatype>audio</mediatype>
											<trackindex>2</trackindex>
											<clipindex>1</clipindex>
											<groupindex>1</groupindex>
										</link>
									</clipitem>
								</track>
							</video>
							<audio>
								<track>
									<clipitem id="clipitem-66">
										<masterclipid>masterclip-33</masterclipid>
										<name>01.5_ATM_Content Submit QR_Music 2.mp4</name>
										<rate>
											<timebase>30</timebase>
											<ntsc>FALSE</ntsc>
										</rate>
										<file id="file-33"/>
										<sourcetrack>
											<mediatype>audio</mediatype>
											<trackindex>1</trackindex>
										</sourcetrack>
										<link>
											<linkclipref>clipitem-65</linkclipref>
											<mediatype>video</mediatype>
											<trackindex>1</trackindex>
											<clipindex>1</clipindex>
										</link>
										<link>
											<linkclipref>clipitem-66</linkclipref>
											<mediatype>audio</mediatype>
											<trackindex>1</trackindex>
											<clipindex>1</clipindex>
											<groupindex>1</groupindex>
										</link>
										<link>
											<linkclipref>clipitem-67</linkclipref>
											<mediatype>audio</mediatype>
											<trackindex>2</trackindex>
											<clipindex>1</clipindex>
											<groupindex>1</groupindex>
										</link>
									</clipitem>
								</track>
								<track>
									<clipitem id="clipitem-67">
										<masterclipid>masterclip-33</masterclipid>
										<name>01.5_ATM_Content Submit QR_Music 2.mp4</name>
										<rate>
											<timebase>30</timebase>
											<ntsc>FALSE</ntsc>
										</rate>
										<file id="file-33"/>
										<sourcetrack>
											<mediatype>audio</mediatype>
											<trackindex>2</trackindex>
										</sourcetrack>
										<link>
											<linkclipref>clipitem-65</linkclipref>
											<mediatype>video</mediatype>
											<trackindex>1</trackindex>
											<clipindex>1</clipindex>
										</link>
										<link>
											<linkclipref>clipitem-66</linkclipref>
											<mediatype>audio</mediatype>
											<trackindex>1</trackindex>
											<clipindex>1</clipindex>
											<groupindex>1</groupindex>
										</link>
										<link>
											<linkclipref>clipitem-67</linkclipref>
											<mediatype>audio</mediatype>
											<trackindex>2</trackindex>
											<clipindex>1</clipindex>
											<groupindex>1</groupindex>
										</link>
									</clipitem>
								</track>
							</audio>
						</media>
						<logginginfo>
							<description></description>
							<scene></scene>
							<shottake></shottake>
							<lognote></lognote>
							<good></good>
							<originalvideofilename></originalvideofilename>
							<originalaudiofilename></originalaudiofilename>
						</logginginfo>
						<colorinfo>
							<lut></lut>
							<lut1></lut1>
							<asc_sop></asc_sop>
							<asc_sat></asc_sat>
							<lut2></lut2>
						</colorinfo>
						<labels>
							<label2>Iris</label2>
						</labels>
					</clip>
					<bin>
						<name>00_OSTV</name>
						<children>
							<bin>
								<name>00_Attribution Fixed</name>
								<children>
									<bin>
										<name>00_5-15</name>
										<children>
											<bin>
												<name>00_IG and TT</name>
												<children>
													<clip id="masterclip-34" explodedTracks="true">
														<uuid>33999776-eae7-47c3-8c15-8dca6ef679a9</uuid>
														<masterclipid>masterclip-34</masterclipid>
														<ismasterclip>TRUE</ismasterclip>
														<duration>5844</duration>
														<rate>
															<timebase>30</timebase>
															<ntsc>TRUE</ntsc>
														</rate>
														<out>3146</out>
														<name>artisticlifestyle6</name>
														<media>
															<video>
																<track>
																	<clipitem id="clipitem-68">
																		<masterclipid>masterclip-34</masterclipid>
																		<name>artisticlifestyle6</name>
																		<rate>
																			<timebase>30</timebase>
																			<ntsc>TRUE</ntsc>
																		</rate>
																		<alphatype>straight</alphatype>
																		<pixelaspectratio>square</pixelaspectratio>
																		<anamorphic>FALSE</anamorphic>
																		<file id="file-34">
																			<name>720/AE Attribution 10-21.aep</name>
																			<pathurl>file://localhost/Volumes/Macintosh%20HD/Users/juesecutler/Desktop/AEP/OSTV%20Credits%20Because%20Adobe/AE%20Attribution%2010-21.aep</pathurl>
																			<rate>
																				<timebase>30</timebase>
																				<ntsc>TRUE</ntsc>
																			</rate>
																			<duration>5844</duration>
																			<timecode>
																				<rate>
																					<timebase>30</timebase>
																					<ntsc>TRUE</ntsc>
																				</rate>
																				<string>00;00;00;00</string>
																				<frame>0</frame>
																				<displayformat>DF</displayformat>
																			</timecode>
																			<media>
																				<video>
																					<samplecharacteristics>
																						<rate>
																							<timebase>30</timebase>
																							<ntsc>TRUE</ntsc>
																						</rate>
																						<width>1280</width>
																						<height>720</height>
																						<anamorphic>FALSE</anamorphic>
																						<pixelaspectratio>square</pixelaspectratio>
																						<fielddominance>lower</fielddominance>
																					</samplecharacteristics>
																				</video>
																			</media>
																		</file>
																	</clipitem>
																</track>
															</video>
														</media>
														<logginginfo>
															<description></description>
															<scene></scene>
															<shottake></shottake>
															<lognote></lognote>
															<good></good>
															<originalvideofilename></originalvideofilename>
															<originalaudiofilename></originalaudiofilename>
														</logginginfo>
														<colorinfo>
															<lut></lut>
															<lut1></lut1>
															<asc_sop></asc_sop>
															<asc_sat></asc_sat>
															<lut2></lut2>
														</colorinfo>
														<labels>
															<label2>Rose</label2>
														</labels>
													</clip>
													<clip id="masterclip-35" explodedTracks="true">
														<uuid>79a3937e-bd21-4880-9f94-4e6516ada4f3</uuid>
														<masterclipid>masterclip-35</masterclipid>
														<ismasterclip>TRUE</ismasterclip>
														<duration>5844</duration>
														<rate>
															<timebase>30</timebase>
															<ntsc>TRUE</ntsc>
														</rate>
														<name>@illuminatedbymia</name>
														<media>
															<video>
																<track>
																	<clipitem id="clipitem-69">
																		<masterclipid>masterclip-35</masterclipid>
																		<name>@illuminatedbymia</name>
																		<rate>
																			<timebase>30</timebase>
																			<ntsc>TRUE</ntsc>
																		</rate>
																		<alphatype>straight</alphatype>
																		<pixelaspectratio>square</pixelaspectratio>
																		<anamorphic>FALSE</anamorphic>
																		<file id="file-35">
																			<name>720/AE Attribution 10-21.aep</name>
																			<pathurl>file://localhost/Volumes/Macintosh%20HD/Users/juesecutler/Desktop/AEP/OSTV%20Credits%20Because%20Adobe/AE%20Attribution%2010-21.aep</pathurl>
																			<rate>
																				<timebase>30</timebase>
																				<ntsc>TRUE</ntsc>
																			</rate>
																			<duration>5844</duration>
																			<timecode>
																				<rate>
																					<timebase>30</timebase>
																					<ntsc>TRUE</ntsc>
																				</rate>
																				<string>00;00;00;00</string>
																				<frame>0</frame>
																				<displayformat>DF</displayformat>
																			</timecode>
																			<media>
																				<video>
																					<samplecharacteristics>
																						<rate>
																							<timebase>30</timebase>
																							<ntsc>TRUE</ntsc>
																						</rate>
																						<width>1280</width>
																						<height>720</height>
																						<anamorphic>FALSE</anamorphic>
																						<pixelaspectratio>square</pixelaspectratio>
																						<fielddominance>lower</fielddominance>
																					</samplecharacteristics>
																				</video>
																			</media>
																		</file>
																	</clipitem>
																</track>
															</video>
														</media>
														<logginginfo>
															<description></description>
															<scene></scene>
															<shottake></shottake>
															<lognote></lognote>
															<good></good>
															<originalvideofilename></originalvideofilename>
															<originalaudiofilename></originalaudiofilename>
														</logginginfo>
														<colorinfo>
															<lut></lut>
															<lut1></lut1>
															<asc_sop></asc_sop>
															<asc_sat></asc_sat>
															<lut2></lut2>
														</colorinfo>
														<labels>
															<label2>Rose</label2>
														</labels>
													</clip>
													<clip id="masterclip-36" explodedTracks="true">
														<uuid>6235780b-390e-48ab-b21d-4236a45b5190</uuid>
														<masterclipid>masterclip-36</masterclipid>
														<ismasterclip>TRUE</ismasterclip>
														<duration>5844</duration>
														<rate>
															<timebase>30</timebase>
															<ntsc>TRUE</ntsc>
														</rate>
														<name>thejesjewel</name>
														<media>
															<video>
																<track>
																	<clipitem id="clipitem-70">
																		<masterclipid>masterclip-36</masterclipid>
																		<name>thejesjewel</name>
																		<rate>
																			<timebase>30</timebase>
																			<ntsc>TRUE</ntsc>
																		</rate>
																		<alphatype>straight</alphatype>
																		<pixelaspectratio>square</pixelaspectratio>
																		<anamorphic>FALSE</anamorphic>
																		<file id="file-36">
																			<name>720/AE Attribution 10-21.aep</name>
																			<pathurl>file://localhost/Volumes/Macintosh%20HD/Users/juesecutler/Desktop/AEP/OSTV%20Credits%20Because%20Adobe/AE%20Attribution%2010-21.aep</pathurl>
																			<rate>
																				<timebase>30</timebase>
																				<ntsc>TRUE</ntsc>
																			</rate>
																			<duration>5844</duration>
																			<timecode>
																				<rate>
																					<timebase>30</timebase>
																					<ntsc>TRUE</ntsc>
																				</rate>
																				<string>00;00;00;00</string>
																				<frame>0</frame>
																				<displayformat>DF</displayformat>
																			</timecode>
																			<media>
																				<video>
																					<samplecharacteristics>
																						<rate>
																							<timebase>30</timebase>
																							<ntsc>TRUE</ntsc>
																						</rate>
																						<width>1280</width>
																						<height>720</height>
																						<anamorphic>FALSE</anamorphic>
																						<pixelaspectratio>square</pixelaspectratio>
																						<fielddominance>lower</fielddominance>
																					</samplecharacteristics>
																				</video>
																			</media>
																		</file>
																	</clipitem>
																</track>
															</video>
														</media>
														<logginginfo>
															<description></description>
															<scene></scene>
															<shottake></shottake>
															<lognote></lognote>
															<good></good>
															<originalvideofilename></originalvideofilename>
															<originalaudiofilename></originalaudiofilename>
														</logginginfo>
														<colorinfo>
															<lut></lut>
															<lut1></lut1>
															<asc_sop></asc_sop>
															<asc_sat></asc_sat>
															<lut2></lut2>
														</colorinfo>
														<labels>
															<label2>Rose</label2>
														</labels>
													</clip>
													<clip id="masterclip-37" explodedTracks="true">
														<uuid>ae9f450e-66dd-4ee1-b52b-c6a108b3db0d</uuid>
														<masterclipid>masterclip-37</masterclipid>
														<ismasterclip>TRUE</ismasterclip>
														<duration>5844</duration>
														<rate>
															<timebase>30</timebase>
															<ntsc>TRUE</ntsc>
														</rate>
														<name>rightchoiceshearing</name>
														<media>
															<video>
																<track>
																	<clipitem id="clipitem-71">
																		<masterclipid>masterclip-37</masterclipid>
																		<name>rightchoiceshearing</name>
																		<rate>
																			<timebase>30</timebase>
																			<ntsc>TRUE</ntsc>
																		</rate>
																		<alphatype>straight</alphatype>
																		<pixelaspectratio>square</pixelaspectratio>
																		<anamorphic>FALSE</anamorphic>
																		<file id="file-37">
																			<name>720/AE Attribution 10-21.aep</name>
																			<pathurl>file://localhost/Volumes/Macintosh%20HD/Users/juesecutler/Desktop/AEP/OSTV%20Credits%20Because%20Adobe/AE%20Attribution%2010-21.aep</pathurl>
																			<rate>
																				<timebase>30</timebase>
																				<ntsc>TRUE</ntsc>
																			</rate>
																			<duration>5844</duration>
																			<timecode>
																				<rate>
																					<timebase>30</timebase>
																					<ntsc>TRUE</ntsc>
																				</rate>
																				<string>00;00;00;00</string>
																				<frame>0</frame>
																				<displayformat>DF</displayformat>
																			</timecode>
																			<media>
																				<video>
																					<samplecharacteristics>
																						<rate>
																							<timebase>30</timebase>
																							<ntsc>TRUE</ntsc>
																						</rate>
																						<width>1280</width>
																						<height>720</height>
																						<anamorphic>FALSE</anamorphic>
																						<pixelaspectratio>square</pixelaspectratio>
																						<fielddominance>lower</fielddominance>
																					</samplecharacteristics>
																				</video>
																			</media>
																		</file>
																	</clipitem>
																</track>
															</video>
														</media>
														<logginginfo>
															<description></description>
															<scene></scene>
															<shottake></shottake>
															<lognote></lognote>
															<good></good>
															<originalvideofilename></originalvideofilename>
															<originalaudiofilename></originalaudiofilename>
														</logginginfo>
														<colorinfo>
															<lut></lut>
															<lut1></lut1>
															<asc_sop></asc_sop>
															<asc_sat></asc_sat>
															<lut2></lut2>
														</colorinfo>
														<labels>
															<label2>Rose</label2>
														</labels>
													</clip>
													<clip id="masterclip-38" explodedTracks="true">
														<uuid>ea9e2791-513a-4d8d-84d6-4a89aee0fedb</uuid>
														<masterclipid>masterclip-38</masterclipid>
														<ismasterclip>TRUE</ismasterclip>
														<duration>5844</duration>
														<rate>
															<timebase>30</timebase>
															<ntsc>TRUE</ntsc>
														</rate>
														<name>@eunseong_c.e.o</name>
														<media>
															<video>
																<track>
																	<clipitem id="clipitem-72">
																		<masterclipid>masterclip-38</masterclipid>
																		<name>@eunseong_c.e.o</name>
																		<rate>
																			<timebase>30</timebase>
																			<ntsc>TRUE</ntsc>
																		</rate>
																		<alphatype>straight</alphatype>
																		<pixelaspectratio>square</pixelaspectratio>
																		<anamorphic>FALSE</anamorphic>
																		<file id="file-38">
																			<name>720/AE Attribution 10-21.aep</name>
																			<pathurl>file://localhost/Volumes/Macintosh%20HD/Users/juesecutler/Desktop/AEP/OSTV%20Credits%20Because%20Adobe/AE%20Attribution%2010-21.aep</pathurl>
																			<rate>
																				<timebase>30</timebase>
																				<ntsc>TRUE</ntsc>
																			</rate>
																			<duration>5844</duration>
																			<timecode>
																				<rate>
																					<timebase>30</timebase>
																					<ntsc>TRUE</ntsc>
																				</rate>
																				<string>00;00;00;00</string>
																				<frame>0</frame>
																				<displayformat>DF</displayformat>
																			</timecode>
																			<media>
																				<video>
																					<samplecharacteristics>
																						<rate>
																							<timebase>30</timebase>
																							<ntsc>TRUE</ntsc>
																						</rate>
																						<width>1280</width>
																						<height>720</height>
																						<anamorphic>FALSE</anamorphic>
																						<pixelaspectratio>square</pixelaspectratio>
																						<fielddominance>lower</fielddominance>
																					</samplecharacteristics>
																				</video>
																			</media>
																		</file>
																	</clipitem>
																</track>
															</video>
														</media>
														<logginginfo>
															<description></description>
															<scene></scene>
															<shottake></shottake>
															<lognote></lognote>
															<good></good>
															<originalvideofilename></originalvideofilename>
															<originalaudiofilename></originalaudiofilename>
														</logginginfo>
														<colorinfo>
															<lut></lut>
															<lut1></lut1>
															<asc_sop></asc_sop>
															<asc_sat></asc_sat>
															<lut2></lut2>
														</colorinfo>
														<labels>
															<label2>Rose</label2>
														</labels>
													</clip>
													<clip id="masterclip-39" explodedTracks="true">
														<uuid>edeee783-228a-4d3c-9199-08dae37e134e</uuid>
														<masterclipid>masterclip-39</masterclipid>
														<ismasterclip>TRUE</ismasterclip>
														<duration>5844</duration>
														<rate>
															<timebase>30</timebase>
															<ntsc>TRUE</ntsc>
														</rate>
														<name>hangryblogger</name>
														<media>
															<video>
																<track>
																	<clipitem id="clipitem-73">
																		<masterclipid>masterclip-39</masterclipid>
																		<name>hangryblogger</name>
																		<rate>
																			<timebase>30</timebase>
																			<ntsc>TRUE</ntsc>
																		</rate>
																		<alphatype>straight</alphatype>
																		<pixelaspectratio>square</pixelaspectratio>
																		<anamorphic>FALSE</anamorphic>
																		<file id="file-39">
																			<name>720/AE Attribution 10-21.aep</name>
																			<pathurl>file://localhost/Volumes/Macintosh%20HD/Users/juesecutler/Desktop/AEP/OSTV%20Credits%20Because%20Adobe/AE%20Attribution%2010-21.aep</pathurl>
																			<rate>
																				<timebase>30</timebase>
																				<ntsc>TRUE</ntsc>
																			</rate>
																			<duration>5844</duration>
																			<timecode>
																				<rate>
																					<timebase>30</timebase>
																					<ntsc>TRUE</ntsc>
																				</rate>
																				<string>00;00;00;00</string>
																				<frame>0</frame>
																				<displayformat>DF</displayformat>
																			</timecode>
																			<media>
																				<video>
																					<samplecharacteristics>
																						<rate>
																							<timebase>30</timebase>
																							<ntsc>TRUE</ntsc>
																						</rate>
																						<width>1280</width>
																						<height>720</height>
																						<anamorphic>FALSE</anamorphic>
																						<pixelaspectratio>square</pixelaspectratio>
																						<fielddominance>lower</fielddominance>
																					</samplecharacteristics>
																				</video>
																			</media>
																		</file>
																	</clipitem>
																</track>
															</video>
														</media>
														<logginginfo>
															<description></description>
															<scene></scene>
															<shottake></shottake>
															<lognote></lognote>
															<good></good>
															<originalvideofilename></originalvideofilename>
															<originalaudiofilename></originalaudiofilename>
														</logginginfo>
														<colorinfo>
															<lut></lut>
															<lut1></lut1>
															<asc_sop></asc_sop>
															<asc_sat></asc_sat>
															<lut2></lut2>
														</colorinfo>
														<labels>
															<label2>Rose</label2>
														</labels>
													</clip>
													<clip id="masterclip-40" explodedTracks="true">
														<uuid>19fd712b-edb8-4ec3-bbd9-7ca5dcd13273</uuid>
														<masterclipid>masterclip-40</masterclipid>
														<ismasterclip>TRUE</ismasterclip>
														<duration>5844</duration>
														<rate>
															<timebase>30</timebase>
															<ntsc>TRUE</ntsc>
														</rate>
														<name>fobs_slime IG confirmed</name>
														<media>
															<video>
																<track>
																	<clipitem id="clipitem-74">
																		<masterclipid>masterclip-40</masterclipid>
																		<name>fobs_slime IG confirmed</name>
																		<rate>
																			<timebase>30</timebase>
																			<ntsc>TRUE</ntsc>
																		</rate>
																		<alphatype>straight</alphatype>
																		<pixelaspectratio>square</pixelaspectratio>
																		<anamorphic>FALSE</anamorphic>
																		<file id="file-40">
																			<name>720/AE Attribution 10-21.aep</name>
																			<pathurl>file://localhost/Volumes/Macintosh%20HD/Users/juesecutler/Desktop/AEP/OSTV%20Credits%20Because%20Adobe/AE%20Attribution%2010-21.aep</pathurl>
																			<rate>
																				<timebase>30</timebase>
																				<ntsc>TRUE</ntsc>
																			</rate>
																			<duration>5844</duration>
																			<timecode>
																				<rate>
																					<timebase>30</timebase>
																					<ntsc>TRUE</ntsc>
																				</rate>
																				<string>00;00;00;00</string>
																				<frame>0</frame>
																				<displayformat>DF</displayformat>
																			</timecode>
																			<media>
																				<video>
																					<samplecharacteristics>
																						<rate>
																							<timebase>30</timebase>
																							<ntsc>TRUE</ntsc>
																						</rate>
																						<width>1280</width>
																						<height>720</height>
																						<anamorphic>FALSE</anamorphic>
																						<pixelaspectratio>square</pixelaspectratio>
																						<fielddominance>lower</fielddominance>
																					</samplecharacteristics>
																				</video>
																			</media>
																		</file>
																	</clipitem>
																</track>
															</video>
														</media>
														<logginginfo>
															<description></description>
															<scene></scene>
															<shottake></shottake>
															<lognote></lognote>
															<good></good>
															<originalvideofilename></originalvideofilename>
															<originalaudiofilename></originalaudiofilename>
														</logginginfo>
														<colorinfo>
															<lut></lut>
															<lut1></lut1>
															<asc_sop></asc_sop>
															<asc_sat></asc_sat>
															<lut2></lut2>
														</colorinfo>
														<labels>
															<label2>Rose</label2>
														</labels>
													</clip>
													<clip id="masterclip-41" explodedTracks="true">
														<uuid>d8266da0-2273-46ff-86ce-b2073ba028aa</uuid>
														<masterclipid>masterclip-41</masterclipid>
														<ismasterclip>TRUE</ismasterclip>
														<duration>5844</duration>
														<rate>
															<timebase>30</timebase>
															<ntsc>TRUE</ntsc>
														</rate>
														<name>@hammerlyceramics</name>
														<media>
															<video>
																<track>
																	<clipitem id="clipitem-75">
																		<masterclipid>masterclip-41</masterclipid>
																		<name>@hammerlyceramics</name>
																		<rate>
																			<timebase>30</timebase>
																			<ntsc>TRUE</ntsc>
																		</rate>
																		<alphatype>straight</alphatype>
																		<pixelaspectratio>square</pixelaspectratio>
																		<anamorphic>FALSE</anamorphic>
																		<file id="file-41">
																			<name>720/AE Attribution 10-21.aep</name>
																			<pathurl>file://localhost/Volumes/Macintosh%20HD/Users/juesecutler/Desktop/AEP/OSTV%20Credits%20Because%20Adobe/AE%20Attribution%2010-21.aep</pathurl>
																			<rate>
																				<timebase>30</timebase>
																				<ntsc>TRUE</ntsc>
																			</rate>
																			<duration>5844</duration>
																			<timecode>
																				<rate>
																					<timebase>30</timebase>
																					<ntsc>TRUE</ntsc>
																				</rate>
																				<string>00;00;00;00</string>
																				<frame>0</frame>
																				<displayformat>DF</displayformat>
																			</timecode>
																			<media>
																				<video>
																					<samplecharacteristics>
																						<rate>
																							<timebase>30</timebase>
																							<ntsc>TRUE</ntsc>
																						</rate>
																						<width>1280</width>
																						<height>720</height>
																						<anamorphic>FALSE</anamorphic>
																						<pixelaspectratio>square</pixelaspectratio>
																						<fielddominance>lower</fielddominance>
																					</samplecharacteristics>
																				</video>
																			</media>
																		</file>
																	</clipitem>
																</track>
															</video>
														</media>
														<logginginfo>
															<description></description>
															<scene></scene>
															<shottake></shottake>
															<lognote></lognote>
															<good></good>
															<originalvideofilename></originalvideofilename>
															<originalaudiofilename></originalaudiofilename>
														</logginginfo>
														<colorinfo>
															<lut></lut>
															<lut1></lut1>
															<asc_sop></asc_sop>
															<asc_sat></asc_sat>
															<lut2></lut2>
														</colorinfo>
														<labels>
															<label2>Rose</label2>
														</labels>
													</clip>
													<clip id="masterclip-42" explodedTracks="true">
														<uuid>a1f41794-87b0-442a-8e67-a8bd21495544</uuid>
														<masterclipid>masterclip-42</masterclipid>
														<ismasterclip>TRUE</ismasterclip>
														<duration>5844</duration>
														<rate>
															<timebase>30</timebase>
															<ntsc>TRUE</ntsc>
														</rate>
														<name>tortus</name>
														<media>
															<video>
																<track>
																	<clipitem id="clipitem-76">
																		<masterclipid>masterclip-42</masterclipid>
																		<name>tortus</name>
																		<rate>
																			<timebase>30</timebase>
																			<ntsc>TRUE</ntsc>
																		</rate>
																		<alphatype>straight</alphatype>
																		<pixelaspectratio>square</pixelaspectratio>
																		<anamorphic>FALSE</anamorphic>
																		<file id="file-42">
																			<name>720/AE Attribution 10-21.aep</name>
																			<pathurl>file://localhost/Volumes/Macintosh%20HD/Users/juesecutler/Desktop/AEP/OSTV%20Credits%20Because%20Adobe/AE%20Attribution%2010-21.aep</pathurl>
																			<rate>
																				<timebase>30</timebase>
																				<ntsc>TRUE</ntsc>
																			</rate>
																			<duration>5844</duration>
																			<timecode>
																				<rate>
																					<timebase>30</timebase>
																					<ntsc>TRUE</ntsc>
																				</rate>
																				<string>00;00;00;00</string>
																				<frame>0</frame>
																				<displayformat>DF</displayformat>
																			</timecode>
																			<media>
																				<video>
																					<samplecharacteristics>
																						<rate>
																							<timebase>30</timebase>
																							<ntsc>TRUE</ntsc>
																						</rate>
																						<width>1280</width>
																						<height>720</height>
																						<anamorphic>FALSE</anamorphic>
																						<pixelaspectratio>square</pixelaspectratio>
																						<fielddominance>lower</fielddominance>
																					</samplecharacteristics>
																				</video>
																			</media>
																		</file>
																	</clipitem>
																</track>
															</video>
														</media>
														<logginginfo>
															<description></description>
															<scene></scene>
															<shottake></shottake>
															<lognote></lognote>
															<good></good>
															<originalvideofilename></originalvideofilename>
															<originalaudiofilename></originalaudiofilename>
														</logginginfo>
														<colorinfo>
															<lut></lut>
															<lut1></lut1>
															<asc_sop></asc_sop>
															<asc_sat></asc_sat>
															<lut2></lut2>
														</colorinfo>
														<labels>
															<label2>Rose</label2>
														</labels>
													</clip>
													<clip id="masterclip-43" explodedTracks="true">
														<uuid>75424638-e6d4-41c8-a0a4-e5de39bf39f6</uuid>
														<masterclipid>masterclip-43</masterclipid>
														<ismasterclip>TRUE</ismasterclip>
														<duration>5844</duration>
														<rate>
															<timebase>30</timebase>
															<ntsc>TRUE</ntsc>
														</rate>
														<name>cornelius_creations</name>
														<media>
															<video>
																<track>
																	<clipitem id="clipitem-77">
																		<masterclipid>masterclip-43</masterclipid>
																		<name>cornelius_creations</name>
																		<rate>
																			<timebase>30</timebase>
																			<ntsc>TRUE</ntsc>
																		</rate>
																		<alphatype>straight</alphatype>
																		<pixelaspectratio>square</pixelaspectratio>
																		<anamorphic>FALSE</anamorphic>
																		<file id="file-43">
																			<name>720/AE Attribution 10-21.aep</name>
																			<pathurl>file://localhost/Volumes/Macintosh%20HD/Users/juesecutler/Desktop/AEP/OSTV%20Credits%20Because%20Adobe/AE%20Attribution%2010-21.aep</pathurl>
																			<rate>
																				<timebase>30</timebase>
																				<ntsc>TRUE</ntsc>
																			</rate>
																			<duration>5844</duration>
																			<timecode>
																				<rate>
																					<timebase>30</timebase>
																					<ntsc>TRUE</ntsc>
																				</rate>
																				<string>00;00;00;00</string>
																				<frame>0</frame>
																				<displayformat>DF</displayformat>
																			</timecode>
																			<media>
																				<video>
																					<samplecharacteristics>
																						<rate>
																							<timebase>30</timebase>
																							<ntsc>TRUE</ntsc>
																						</rate>
																						<width>1280</width>
																						<height>720</height>
																						<anamorphic>FALSE</anamorphic>
																						<pixelaspectratio>square</pixelaspectratio>
																						<fielddominance>lower</fielddominance>
																					</samplecharacteristics>
																				</video>
																			</media>
																		</file>
																	</clipitem>
																</track>
															</video>
														</media>
														<logginginfo>
															<description></description>
															<scene></scene>
															<shottake></shottake>
															<lognote></lognote>
															<good></good>
															<originalvideofilename></originalvideofilename>
															<originalaudiofilename></originalaudiofilename>
														</logginginfo>
														<colorinfo>
															<lut></lut>
															<lut1></lut1>
															<asc_sop></asc_sop>
															<asc_sat></asc_sat>
															<lut2></lut2>
														</colorinfo>
														<labels>
															<label2>Rose</label2>
														</labels>
													</clip>
													<clip id="masterclip-44" explodedTracks="true">
														<uuid>ce99a1d7-341a-451a-b7ae-3f189bd679a9</uuid>
														<masterclipid>masterclip-44</masterclipid>
														<ismasterclip>TRUE</ismasterclip>
														<duration>5844</duration>
														<rate>
															<timebase>30</timebase>
															<ntsc>TRUE</ntsc>
														</rate>
														<name>missmacsbakery</name>
														<media>
															<video>
																<track>
																	<clipitem id="clipitem-78">
																		<masterclipid>masterclip-44</masterclipid>
																		<name>missmacsbakery</name>
																		<rate>
																			<timebase>30</timebase>
																			<ntsc>TRUE</ntsc>
																		</rate>
																		<alphatype>straight</alphatype>
																		<pixelaspectratio>square</pixelaspectratio>
																		<anamorphic>FALSE</anamorphic>
																		<file id="file-44">
																			<name>720/AE Attribution 10-21.aep</name>
																			<pathurl>file://localhost/Volumes/Macintosh%20HD/Users/juesecutler/Desktop/AEP/OSTV%20Credits%20Because%20Adobe/AE%20Attribution%2010-21.aep</pathurl>
																			<rate>
																				<timebase>30</timebase>
																				<ntsc>TRUE</ntsc>
																			</rate>
																			<duration>5844</duration>
																			<timecode>
																				<rate>
																					<timebase>30</timebase>
																					<ntsc>TRUE</ntsc>
																				</rate>
																				<string>00;00;00;00</string>
																				<frame>0</frame>
																				<displayformat>DF</displayformat>
																			</timecode>
																			<media>
																				<video>
																					<samplecharacteristics>
																						<rate>
																							<timebase>30</timebase>
																							<ntsc>TRUE</ntsc>
																						</rate>
																						<width>1280</width>
																						<height>720</height>
																						<anamorphic>FALSE</anamorphic>
																						<pixelaspectratio>square</pixelaspectratio>
																						<fielddominance>lower</fielddominance>
																					</samplecharacteristics>
																				</video>
																			</media>
																		</file>
																	</clipitem>
																</track>
															</video>
														</media>
														<logginginfo>
															<description></description>
															<scene></scene>
															<shottake></shottake>
															<lognote></lognote>
															<good></good>
															<originalvideofilename></originalvideofilename>
															<originalaudiofilename></originalaudiofilename>
														</logginginfo>
														<colorinfo>
															<lut></lut>
															<lut1></lut1>
															<asc_sop></asc_sop>
															<asc_sat></asc_sat>
															<lut2></lut2>
														</colorinfo>
														<labels>
															<label2>Rose</label2>
														</labels>
													</clip>
													<clip id="masterclip-45" explodedTracks="true">
														<uuid>b890ff6f-1f94-492b-b099-9b3e3ff7a4e9</uuid>
														<masterclipid>masterclip-45</masterclipid>
														<ismasterclip>TRUE</ismasterclip>
														<duration>5844</duration>
														<rate>
															<timebase>30</timebase>
															<ntsc>TRUE</ntsc>
														</rate>
														<name>andrea_liss</name>
														<media>
															<video>
																<track>
																	<clipitem id="clipitem-79">
																		<masterclipid>masterclip-45</masterclipid>
																		<name>andrea_liss</name>
																		<rate>
																			<timebase>30</timebase>
																			<ntsc>TRUE</ntsc>
																		</rate>
																		<alphatype>straight</alphatype>
																		<pixelaspectratio>square</pixelaspectratio>
																		<anamorphic>FALSE</anamorphic>
																		<file id="file-45">
																			<name>720/AE Attribution 10-21.aep</name>
																			<pathurl>file://localhost/Volumes/Macintosh%20HD/Users/juesecutler/Desktop/AEP/OSTV%20Credits%20Because%20Adobe/AE%20Attribution%2010-21.aep</pathurl>
																			<rate>
																				<timebase>30</timebase>
																				<ntsc>TRUE</ntsc>
																			</rate>
																			<duration>5844</duration>
																			<timecode>
																				<rate>
																					<timebase>30</timebase>
																					<ntsc>TRUE</ntsc>
																				</rate>
																				<string>00;00;00;00</string>
																				<frame>0</frame>
																				<displayformat>DF</displayformat>
																			</timecode>
																			<media>
																				<video>
																					<samplecharacteristics>
																						<rate>
																							<timebase>30</timebase>
																							<ntsc>TRUE</ntsc>
																						</rate>
																						<width>1280</width>
																						<height>720</height>
																						<anamorphic>FALSE</anamorphic>
																						<pixelaspectratio>square</pixelaspectratio>
																						<fielddominance>lower</fielddominance>
																					</samplecharacteristics>
																				</video>
																			</media>
																		</file>
																	</clipitem>
																</track>
															</video>
														</media>
														<logginginfo>
															<description></description>
															<scene></scene>
															<shottake></shottake>
															<lognote></lognote>
															<good></good>
															<originalvideofilename></originalvideofilename>
															<originalaudiofilename></originalaudiofilename>
														</logginginfo>
														<colorinfo>
															<lut></lut>
															<lut1></lut1>
															<asc_sop></asc_sop>
															<asc_sat></asc_sat>
															<lut2></lut2>
														</colorinfo>
														<labels>
															<label2>Rose</label2>
														</labels>
													</clip>
													<clip id="masterclip-46" explodedTracks="true">
														<uuid>ee5355ac-50fd-41c6-b794-ec4de390bded</uuid>
														<masterclipid>masterclip-46</masterclipid>
														<ismasterclip>TRUE</ismasterclip>
														<duration>5844</duration>
														<rate>
															<timebase>30</timebase>
															<ntsc>TRUE</ntsc>
														</rate>
														<name>czferro</name>
														<media>
															<video>
																<track>
																	<clipitem id="clipitem-80">
																		<masterclipid>masterclip-46</masterclipid>
																		<name>czferro</name>
																		<rate>
																			<timebase>30</timebase>
																			<ntsc>TRUE</ntsc>
																		</rate>
																		<alphatype>straight</alphatype>
																		<pixelaspectratio>square</pixelaspectratio>
																		<anamorphic>FALSE</anamorphic>
																		<file id="file-46">
																			<name>720/AE Attribution 10-21.aep</name>
																			<pathurl>file://localhost/Volumes/Macintosh%20HD/Users/juesecutler/Desktop/AEP/OSTV%20Credits%20Because%20Adobe/AE%20Attribution%2010-21.aep</pathurl>
																			<rate>
																				<timebase>30</timebase>
																				<ntsc>TRUE</ntsc>
																			</rate>
																			<duration>5844</duration>
																			<timecode>
																				<rate>
																					<timebase>30</timebase>
																					<ntsc>TRUE</ntsc>
																				</rate>
																				<string>00;00;00;00</string>
																				<frame>0</frame>
																				<displayformat>DF</displayformat>
																			</timecode>
																			<media>
																				<video>
																					<samplecharacteristics>
																						<rate>
																							<timebase>30</timebase>
																							<ntsc>TRUE</ntsc>
																						</rate>
																						<width>1280</width>
																						<height>720</height>
																						<anamorphic>FALSE</anamorphic>
																						<pixelaspectratio>square</pixelaspectratio>
																						<fielddominance>lower</fielddominance>
																					</samplecharacteristics>
																				</video>
																			</media>
																		</file>
																	</clipitem>
																</track>
															</video>
														</media>
														<logginginfo>
															<description></description>
															<scene></scene>
															<shottake></shottake>
															<lognote></lognote>
															<good></good>
															<originalvideofilename></originalvideofilename>
															<originalaudiofilename></originalaudiofilename>
														</logginginfo>
														<colorinfo>
															<lut></lut>
															<lut1></lut1>
															<asc_sop></asc_sop>
															<asc_sat></asc_sat>
															<lut2></lut2>
														</colorinfo>
														<labels>
															<label2>Rose</label2>
														</labels>
													</clip>
													<clip id="masterclip-47" explodedTracks="true">
														<uuid>0f65f568-5623-4c6e-9d24-5fc99b7b483b</uuid>
														<masterclipid>masterclip-47</masterclipid>
														<ismasterclip>TRUE</ismasterclip>
														<duration>5844</duration>
														<rate>
															<timebase>30</timebase>
															<ntsc>TRUE</ntsc>
														</rate>
														<name>modfoxwatercolors</name>
														<media>
															<video>
																<track>
																	<clipitem id="clipitem-81">
																		<masterclipid>masterclip-47</masterclipid>
																		<name>modfoxwatercolors</name>
																		<rate>
																			<timebase>30</timebase>
																			<ntsc>TRUE</ntsc>
																		</rate>
																		<alphatype>straight</alphatype>
																		<pixelaspectratio>square</pixelaspectratio>
																		<anamorphic>FALSE</anamorphic>
																		<file id="file-47">
																			<name>720/AE Attribution 10-21.aep</name>
																			<pathurl>file://localhost/Volumes/Macintosh%20HD/Users/juesecutler/Desktop/AEP/OSTV%20Credits%20Because%20Adobe/AE%20Attribution%2010-21.aep</pathurl>
																			<rate>
																				<timebase>30</timebase>
																				<ntsc>TRUE</ntsc>
																			</rate>
																			<duration>5844</duration>
																			<timecode>
																				<rate>
																					<timebase>30</timebase>
																					<ntsc>TRUE</ntsc>
																				</rate>
																				<string>00;00;00;00</string>
																				<frame>0</frame>
																				<displayformat>DF</displayformat>
																			</timecode>
																			<media>
																				<video>
																					<samplecharacteristics>
																						<rate>
																							<timebase>30</timebase>
																							<ntsc>TRUE</ntsc>
																						</rate>
																						<width>1280</width>
																						<height>720</height>
																						<anamorphic>FALSE</anamorphic>
																						<pixelaspectratio>square</pixelaspectratio>
																						<fielddominance>lower</fielddominance>
																					</samplecharacteristics>
																				</video>
																			</media>
																		</file>
																	</clipitem>
																</track>
															</video>
														</media>
														<logginginfo>
															<description></description>
															<scene></scene>
															<shottake></shottake>
															<lognote></lognote>
															<good></good>
															<originalvideofilename></originalvideofilename>
															<originalaudiofilename></originalaudiofilename>
														</logginginfo>
														<colorinfo>
															<lut></lut>
															<lut1></lut1>
															<asc_sop></asc_sop>
															<asc_sat></asc_sat>
															<lut2></lut2>
														</colorinfo>
														<labels>
															<label2>Rose</label2>
														</labels>
													</clip>
													<clip id="masterclip-48" explodedTracks="true">
														<uuid>591b52ff-da90-4385-8c41-f5b2e85add68</uuid>
														<masterclipid>masterclip-48</masterclipid>
														<ismasterclip>TRUE</ismasterclip>
														<duration>5844</duration>
														<rate>
															<timebase>30</timebase>
															<ntsc>TRUE</ntsc>
														</rate>
														<name>sophiabakessometimes</name>
														<media>
															<video>
																<track>
																	<clipitem id="clipitem-82">
																		<masterclipid>masterclip-48</masterclipid>
																		<name>sophiabakessometimes</name>
																		<rate>
																			<timebase>30</timebase>
																			<ntsc>TRUE</ntsc>
																		</rate>
																		<alphatype>straight</alphatype>
																		<pixelaspectratio>square</pixelaspectratio>
																		<anamorphic>FALSE</anamorphic>
																		<file id="file-48">
																			<name>720/AE Attribution 10-21.aep</name>
																			<pathurl>file://localhost/Volumes/Macintosh%20HD/Users/juesecutler/Desktop/AEP/OSTV%20Credits%20Because%20Adobe/AE%20Attribution%2010-21.aep</pathurl>
																			<rate>
																				<timebase>30</timebase>
																				<ntsc>TRUE</ntsc>
																			</rate>
																			<duration>5844</duration>
																			<timecode>
																				<rate>
																					<timebase>30</timebase>
																					<ntsc>TRUE</ntsc>
																				</rate>
																				<string>00;00;00;00</string>
																				<frame>0</frame>
																				<displayformat>DF</displayformat>
																			</timecode>
																			<media>
																				<video>
																					<samplecharacteristics>
																						<rate>
																							<timebase>30</timebase>
																							<ntsc>TRUE</ntsc>
																						</rate>
																						<width>1280</width>
																						<height>720</height>
																						<anamorphic>FALSE</anamorphic>
																						<pixelaspectratio>square</pixelaspectratio>
																						<fielddominance>lower</fielddominance>
																					</samplecharacteristics>
																				</video>
																			</media>
																		</file>
																	</clipitem>
																</track>
															</video>
														</media>
														<logginginfo>
															<description></description>
															<scene></scene>
															<shottake></shottake>
															<lognote></lognote>
															<good></good>
															<originalvideofilename></originalvideofilename>
															<originalaudiofilename></originalaudiofilename>
														</logginginfo>
														<colorinfo>
															<lut></lut>
															<lut1></lut1>
															<asc_sop></asc_sop>
															<asc_sat></asc_sat>
															<lut2></lut2>
														</colorinfo>
														<labels>
															<label2>Rose</label2>
														</labels>
													</clip>
													<clip id="masterclip-49" explodedTracks="true">
														<uuid>8d25d571-37bd-4938-88d3-7d490569180a</uuid>
														<masterclipid>masterclip-49</masterclipid>
														<ismasterclip>TRUE</ismasterclip>
														<duration>5844</duration>
														<rate>
															<timebase>30</timebase>
															<ntsc>TRUE</ntsc>
														</rate>
														<name>_sophieskitchen</name>
														<media>
															<video>
																<track>
																	<clipitem id="clipitem-83">
																		<masterclipid>masterclip-49</masterclipid>
																		<name>_sophieskitchen</name>
																		<rate>
																			<timebase>30</timebase>
																			<ntsc>TRUE</ntsc>
																		</rate>
																		<alphatype>straight</alphatype>
																		<pixelaspectratio>square</pixelaspectratio>
																		<anamorphic>FALSE</anamorphic>
																		<file id="file-49">
																			<name>720/AE Attribution 10-21.aep</name>
																			<pathurl>file://localhost/Volumes/Macintosh%20HD/Users/juesecutler/Desktop/AEP/OSTV%20Credits%20Because%20Adobe/AE%20Attribution%2010-21.aep</pathurl>
																			<rate>
																				<timebase>30</timebase>
																				<ntsc>TRUE</ntsc>
																			</rate>
																			<duration>5844</duration>
																			<timecode>
																				<rate>
																					<timebase>30</timebase>
																					<ntsc>TRUE</ntsc>
																				</rate>
																				<string>00;00;00;00</string>
																				<frame>0</frame>
																				<displayformat>DF</displayformat>
																			</timecode>
																			<media>
																				<video>
																					<samplecharacteristics>
																						<rate>
																							<timebase>30</timebase>
																							<ntsc>TRUE</ntsc>
																						</rate>
																						<width>1280</width>
																						<height>720</height>
																						<anamorphic>FALSE</anamorphic>
																						<pixelaspectratio>square</pixelaspectratio>
																						<fielddominance>lower</fielddominance>
																					</samplecharacteristics>
																				</video>
																			</media>
																		</file>
																	</clipitem>
																</track>
															</video>
														</media>
														<logginginfo>
															<description></description>
															<scene></scene>
															<shottake></shottake>
															<lognote></lognote>
															<good></good>
															<originalvideofilename></originalvideofilename>
															<originalaudiofilename></originalaudiofilename>
														</logginginfo>
														<colorinfo>
															<lut></lut>
															<lut1></lut1>
															<asc_sop></asc_sop>
															<asc_sat></asc_sat>
															<lut2></lut2>
														</colorinfo>
														<labels>
															<label2>Rose</label2>
														</labels>
													</clip>
													<clip id="masterclip-50" explodedTracks="true">
														<uuid>3f577d0d-71da-46e9-b630-2d6ad74b2e0b</uuid>
														<masterclipid>masterclip-50</masterclipid>
														<ismasterclip>TRUE</ismasterclip>
														<duration>5844</duration>
														<rate>
															<timebase>30</timebase>
															<ntsc>TRUE</ntsc>
														</rate>
														<name>hamptonchocolatefactory</name>
														<media>
															<video>
																<track>
																	<clipitem id="clipitem-84">
																		<masterclipid>masterclip-50</masterclipid>
																		<name>hamptonchocolatefactory</name>
																		<rate>
																			<timebase>30</timebase>
																			<ntsc>TRUE</ntsc>
																		</rate>
																		<alphatype>straight</alphatype>
																		<pixelaspectratio>square</pixelaspectratio>
																		<anamorphic>FALSE</anamorphic>
																		<file id="file-50">
																			<name>720/AE Attribution 10-21.aep</name>
																			<pathurl>file://localhost/Volumes/Macintosh%20HD/Users/juesecutler/Desktop/AEP/OSTV%20Credits%20Because%20Adobe/AE%20Attribution%2010-21.aep</pathurl>
																			<rate>
																				<timebase>30</timebase>
																				<ntsc>TRUE</ntsc>
																			</rate>
																			<duration>5844</duration>
																			<timecode>
																				<rate>
																					<timebase>30</timebase>
																					<ntsc>TRUE</ntsc>
																				</rate>
																				<string>00;00;00;00</string>
																				<frame>0</frame>
																				<displayformat>DF</displayformat>
																			</timecode>
																			<media>
																				<video>
																					<samplecharacteristics>
																						<rate>
																							<timebase>30</timebase>
																							<ntsc>TRUE</ntsc>
																						</rate>
																						<width>1280</width>
																						<height>720</height>
																						<anamorphic>FALSE</anamorphic>
																						<pixelaspectratio>square</pixelaspectratio>
																						<fielddominance>lower</fielddominance>
																					</samplecharacteristics>
																				</video>
																			</media>
																		</file>
																	</clipitem>
																</track>
															</video>
														</media>
														<logginginfo>
															<description></description>
															<scene></scene>
															<shottake></shottake>
															<lognote></lognote>
															<good></good>
															<originalvideofilename></originalvideofilename>
															<originalaudiofilename></originalaudiofilename>
														</logginginfo>
														<colorinfo>
															<lut></lut>
															<lut1></lut1>
															<asc_sop></asc_sop>
															<asc_sat></asc_sat>
															<lut2></lut2>
														</colorinfo>
														<labels>
															<label2>Rose</label2>
														</labels>
													</clip>
													<clip id="masterclip-51" explodedTracks="true">
														<uuid>7db2155e-6030-4c26-a1ff-65ee519cc9ec</uuid>
														<masterclipid>masterclip-51</masterclipid>
														<ismasterclip>TRUE</ismasterclip>
														<duration>5844</duration>
														<rate>
															<timebase>30</timebase>
															<ntsc>TRUE</ntsc>
														</rate>
														<name>thesqueakymixer</name>
														<media>
															<video>
																<track>
																	<clipitem id="clipitem-85">
																		<masterclipid>masterclip-51</masterclipid>
																		<name>thesqueakymixer</name>
																		<rate>
																			<timebase>30</timebase>
																			<ntsc>TRUE</ntsc>
																		</rate>
																		<alphatype>straight</alphatype>
																		<pixelaspectratio>square</pixelaspectratio>
																		<anamorphic>FALSE</anamorphic>
																		<file id="file-51">
																			<name>720/AE Attribution 10-21.aep</name>
																			<pathurl>file://localhost/Volumes/Macintosh%20HD/Users/juesecutler/Desktop/AEP/OSTV%20Credits%20Because%20Adobe/AE%20Attribution%2010-21.aep</pathurl>
																			<rate>
																				<timebase>30</timebase>
																				<ntsc>TRUE</ntsc>
																			</rate>
																			<duration>5844</duration>
																			<timecode>
																				<rate>
																					<timebase>30</timebase>
																					<ntsc>TRUE</ntsc>
																				</rate>
																				<string>00;00;00;00</string>
																				<frame>0</frame>
																				<displayformat>DF</displayformat>
																			</timecode>
																			<media>
																				<video>
																					<samplecharacteristics>
																						<rate>
																							<timebase>30</timebase>
																							<ntsc>TRUE</ntsc>
																						</rate>
																						<width>1280</width>
																						<height>720</height>
																						<anamorphic>FALSE</anamorphic>
																						<pixelaspectratio>square</pixelaspectratio>
																						<fielddominance>lower</fielddominance>
																					</samplecharacteristics>
																				</video>
																			</media>
																		</file>
																	</clipitem>
																</track>
															</video>
														</media>
														<logginginfo>
															<description></description>
															<scene></scene>
															<shottake></shottake>
															<lognote></lognote>
															<good></good>
															<originalvideofilename></originalvideofilename>
															<originalaudiofilename></originalaudiofilename>
														</logginginfo>
														<colorinfo>
															<lut></lut>
															<lut1></lut1>
															<asc_sop></asc_sop>
															<asc_sat></asc_sat>
															<lut2></lut2>
														</colorinfo>
														<labels>
															<label2>Rose</label2>
														</labels>
													</clip>
													<clip id="masterclip-52" explodedTracks="true">
														<uuid>73e03f8b-62e4-49ca-8c51-d6951c73da00</uuid>
														<masterclipid>masterclip-52</masterclipid>
														<ismasterclip>TRUE</ismasterclip>
														<duration>5844</duration>
														<rate>
															<timebase>30</timebase>
															<ntsc>TRUE</ntsc>
														</rate>
														<name>chalktingzz IG confirmed</name>
														<media>
															<video>
																<track>
																	<clipitem id="clipitem-86">
																		<masterclipid>masterclip-52</masterclipid>
																		<name>chalktingzz IG confirmed</name>
																		<rate>
																			<timebase>30</timebase>
																			<ntsc>TRUE</ntsc>
																		</rate>
																		<alphatype>straight</alphatype>
																		<pixelaspectratio>square</pixelaspectratio>
																		<anamorphic>FALSE</anamorphic>
																		<file id="file-52">
																			<name>720/AE Attribution 10-21.aep</name>
																			<pathurl>file://localhost/Volumes/Macintosh%20HD/Users/juesecutler/Desktop/AEP/OSTV%20Credits%20Because%20Adobe/AE%20Attribution%2010-21.aep</pathurl>
																			<rate>
																				<timebase>30</timebase>
																				<ntsc>TRUE</ntsc>
																			</rate>
																			<duration>5844</duration>
																			<timecode>
																				<rate>
																					<timebase>30</timebase>
																					<ntsc>TRUE</ntsc>
																				</rate>
																				<string>00;00;00;00</string>
																				<frame>0</frame>
																				<displayformat>DF</displayformat>
																			</timecode>
																			<media>
																				<video>
																					<samplecharacteristics>
																						<rate>
																							<timebase>30</timebase>
																							<ntsc>TRUE</ntsc>
																						</rate>
																						<width>1280</width>
																						<height>720</height>
																						<anamorphic>FALSE</anamorphic>
																						<pixelaspectratio>square</pixelaspectratio>
																						<fielddominance>lower</fielddominance>
																					</samplecharacteristics>
																				</video>
																			</media>
																		</file>
																	</clipitem>
																</track>
															</video>
														</media>
														<logginginfo>
															<description></description>
															<scene></scene>
															<shottake></shottake>
															<lognote></lognote>
															<good></good>
															<originalvideofilename></originalvideofilename>
															<originalaudiofilename></originalaudiofilename>
														</logginginfo>
														<colorinfo>
															<lut></lut>
															<lut1></lut1>
															<asc_sop></asc_sop>
															<asc_sat></asc_sat>
															<lut2></lut2>
														</colorinfo>
														<labels>
															<label2>Rose</label2>
														</labels>
													</clip>
													<clip id="masterclip-53" explodedTracks="true">
														<uuid>3cebe93b-bf52-4169-affa-f43c4b40d6ce</uuid>
														<masterclipid>masterclip-53</masterclipid>
														<ismasterclip>TRUE</ismasterclip>
														<duration>5844</duration>
														<rate>
															<timebase>30</timebase>
															<ntsc>TRUE</ntsc>
														</rate>
														<name>all_that_glitters_asmr IG confirmed</name>
														<media>
															<video>
																<track>
																	<clipitem id="clipitem-87">
																		<masterclipid>masterclip-53</masterclipid>
																		<name>all_that_glitters_asmr IG confirmed</name>
																		<rate>
																			<timebase>30</timebase>
																			<ntsc>TRUE</ntsc>
																		</rate>
																		<alphatype>straight</alphatype>
																		<pixelaspectratio>square</pixelaspectratio>
																		<anamorphic>FALSE</anamorphic>
																		<file id="file-53">
																			<name>720/AE Attribution 10-21.aep</name>
																			<pathurl>file://localhost/Volumes/Macintosh%20HD/Users/juesecutler/Desktop/AEP/OSTV%20Credits%20Because%20Adobe/AE%20Attribution%2010-21.aep</pathurl>
																			<rate>
																				<timebase>30</timebase>
																				<ntsc>TRUE</ntsc>
																			</rate>
																			<duration>5844</duration>
																			<timecode>
																				<rate>
																					<timebase>30</timebase>
																					<ntsc>TRUE</ntsc>
																				</rate>
																				<string>00;00;00;00</string>
																				<frame>0</frame>
																				<displayformat>DF</displayformat>
																			</timecode>
																			<media>
																				<video>
																					<samplecharacteristics>
																						<rate>
																							<timebase>30</timebase>
																							<ntsc>TRUE</ntsc>
																						</rate>
																						<width>1280</width>
																						<height>720</height>
																						<anamorphic>FALSE</anamorphic>
																						<pixelaspectratio>square</pixelaspectratio>
																						<fielddominance>lower</fielddominance>
																					</samplecharacteristics>
																				</video>
																			</media>
																		</file>
																	</clipitem>
																</track>
															</video>
														</media>
														<logginginfo>
															<description></description>
															<scene></scene>
															<shottake></shottake>
															<lognote></lognote>
															<good></good>
															<originalvideofilename></originalvideofilename>
															<originalaudiofilename></originalaudiofilename>
														</logginginfo>
														<colorinfo>
															<lut></lut>
															<lut1></lut1>
															<asc_sop></asc_sop>
															<asc_sat></asc_sat>
															<lut2></lut2>
														</colorinfo>
														<labels>
															<label2>Rose</label2>
														</labels>
													</clip>
													<clip id="masterclip-54" explodedTracks="true">
														<uuid>ba1517c1-899b-48a2-8ea1-8b9f6b79bdbf</uuid>
														<masterclipid>masterclip-54</masterclipid>
														<ismasterclip>TRUE</ismasterclip>
														<duration>5844</duration>
														<rate>
															<timebase>30</timebase>
															<ntsc>TRUE</ntsc>
														</rate>
														<out>2994</out>
														<name>@soyoungpapiccio</name>
														<media>
															<video>
																<track>
																	<clipitem id="clipitem-88">
																		<masterclipid>masterclip-54</masterclipid>
																		<name>@soyoungpapiccio</name>
																		<rate>
																			<timebase>30</timebase>
																			<ntsc>TRUE</ntsc>
																		</rate>
																		<alphatype>straight</alphatype>
																		<pixelaspectratio>square</pixelaspectratio>
																		<anamorphic>FALSE</anamorphic>
																		<file id="file-54">
																			<name>720/AE Attribution 10-21.aep</name>
																			<pathurl>file://localhost/Volumes/Macintosh%20HD/Users/juesecutler/Desktop/AEP/OSTV%20Credits%20Because%20Adobe/AE%20Attribution%2010-21.aep</pathurl>
																			<rate>
																				<timebase>30</timebase>
																				<ntsc>TRUE</ntsc>
																			</rate>
																			<duration>5844</duration>
																			<timecode>
																				<rate>
																					<timebase>30</timebase>
																					<ntsc>TRUE</ntsc>
																				</rate>
																				<string>00;00;00;00</string>
																				<frame>0</frame>
																				<displayformat>DF</displayformat>
																			</timecode>
																			<media>
																				<video>
																					<samplecharacteristics>
																						<rate>
																							<timebase>30</timebase>
																							<ntsc>TRUE</ntsc>
																						</rate>
																						<width>1280</width>
																						<height>720</height>
																						<anamorphic>FALSE</anamorphic>
																						<pixelaspectratio>square</pixelaspectratio>
																						<fielddominance>lower</fielddominance>
																					</samplecharacteristics>
																				</video>
																			</media>
																		</file>
																	</clipitem>
																</track>
															</video>
														</media>
														<logginginfo>
															<description></description>
															<scene></scene>
															<shottake></shottake>
															<lognote></lognote>
															<good></good>
															<originalvideofilename></originalvideofilename>
															<originalaudiofilename></originalaudiofilename>
														</logginginfo>
														<colorinfo>
															<lut></lut>
															<lut1></lut1>
															<asc_sop></asc_sop>
															<asc_sat></asc_sat>
															<lut2></lut2>
														</colorinfo>
														<labels>
															<label2>Rose</label2>
														</labels>
													</clip>
													<clip id="masterclip-55" explodedTracks="true">
														<uuid>ac275e14-a65b-4a2e-b69a-125906919bd8</uuid>
														<masterclipid>masterclip-55</masterclipid>
														<ismasterclip>TRUE</ismasterclip>
														<duration>5844</duration>
														<rate>
															<timebase>30</timebase>
															<ntsc>TRUE</ntsc>
														</rate>
														<name>@modernmilt</name>
														<media>
															<video>
																<track>
																	<clipitem id="clipitem-89">
																		<masterclipid>masterclip-55</masterclipid>
																		<name>@modernmilt</name>
																		<rate>
																			<timebase>30</timebase>
																			<ntsc>TRUE</ntsc>
																		</rate>
																		<alphatype>straight</alphatype>
																		<pixelaspectratio>square</pixelaspectratio>
																		<anamorphic>FALSE</anamorphic>
																		<file id="file-55">
																			<name>720/AE Attribution 10-21.aep</name>
																			<pathurl>file://localhost/Volumes/Macintosh%20HD/Users/juesecutler/Desktop/AEP/OSTV%20Credits%20Because%20Adobe/AE%20Attribution%2010-21.aep</pathurl>
																			<rate>
																				<timebase>30</timebase>
																				<ntsc>TRUE</ntsc>
																			</rate>
																			<duration>5844</duration>
																			<timecode>
																				<rate>
																					<timebase>30</timebase>
																					<ntsc>TRUE</ntsc>
																				</rate>
																				<string>00;00;00;00</string>
																				<frame>0</frame>
																				<displayformat>DF</displayformat>
																			</timecode>
																			<media>
																				<video>
																					<samplecharacteristics>
																						<rate>
																							<timebase>30</timebase>
																							<ntsc>TRUE</ntsc>
																						</rate>
																						<width>1280</width>
																						<height>720</height>
																						<anamorphic>FALSE</anamorphic>
																						<pixelaspectratio>square</pixelaspectratio>
																						<fielddominance>lower</fielddominance>
																					</samplecharacteristics>
																				</video>
																			</media>
																		</file>
																	</clipitem>
																</track>
															</video>
														</media>
														<logginginfo>
															<description></description>
															<scene></scene>
															<shottake></shottake>
															<lognote></lognote>
															<good></good>
															<originalvideofilename></originalvideofilename>
															<originalaudiofilename></originalaudiofilename>
														</logginginfo>
														<colorinfo>
															<lut></lut>
															<lut1></lut1>
															<asc_sop></asc_sop>
															<asc_sat></asc_sat>
															<lut2></lut2>
														</colorinfo>
														<labels>
															<label2>Rose</label2>
														</labels>
													</clip>
													<clip id="masterclip-56" explodedTracks="true">
														<uuid>e568d038-fc14-4a72-a09a-262f91ccb5ad</uuid>
														<masterclipid>masterclip-56</masterclipid>
														<ismasterclip>TRUE</ismasterclip>
														<duration>5844</duration>
														<rate>
															<timebase>30</timebase>
															<ntsc>TRUE</ntsc>
														</rate>
														<name>@populuxe_</name>
														<media>
															<video>
																<track>
																	<clipitem id="clipitem-90">
																		<masterclipid>masterclip-56</masterclipid>
																		<name>@populuxe_</name>
																		<rate>
																			<timebase>30</timebase>
																			<ntsc>TRUE</ntsc>
																		</rate>
																		<alphatype>straight</alphatype>
																		<pixelaspectratio>square</pixelaspectratio>
																		<anamorphic>FALSE</anamorphic>
																		<file id="file-56">
																			<name>720/AE Attribution 10-21.aep</name>
																			<pathurl>file://localhost/Volumes/Macintosh%20HD/Users/juesecutler/Desktop/AEP/OSTV%20Credits%20Because%20Adobe/AE%20Attribution%2010-21.aep</pathurl>
																			<rate>
																				<timebase>30</timebase>
																				<ntsc>TRUE</ntsc>
																			</rate>
																			<duration>5844</duration>
																			<timecode>
																				<rate>
																					<timebase>30</timebase>
																					<ntsc>TRUE</ntsc>
																				</rate>
																				<string>00;00;00;00</string>
																				<frame>0</frame>
																				<displayformat>DF</displayformat>
																			</timecode>
																			<media>
																				<video>
																					<samplecharacteristics>
																						<rate>
																							<timebase>30</timebase>
																							<ntsc>TRUE</ntsc>
																						</rate>
																						<width>1280</width>
																						<height>720</height>
																						<anamorphic>FALSE</anamorphic>
																						<pixelaspectratio>square</pixelaspectratio>
																						<fielddominance>lower</fielddominance>
																					</samplecharacteristics>
																				</video>
																			</media>
																		</file>
																	</clipitem>
																</track>
															</video>
														</media>
														<logginginfo>
															<description></description>
															<scene></scene>
															<shottake></shottake>
															<lognote></lognote>
															<good></good>
															<originalvideofilename></originalvideofilename>
															<originalaudiofilename></originalaudiofilename>
														</logginginfo>
														<colorinfo>
															<lut></lut>
															<lut1></lut1>
															<asc_sop></asc_sop>
															<asc_sat></asc_sat>
															<lut2></lut2>
														</colorinfo>
														<labels>
															<label2>Rose</label2>
														</labels>
													</clip>
													<clip id="masterclip-57" explodedTracks="true">
														<uuid>5e38aaf0-6b24-4b97-aa3c-e7ec2aab7064</uuid>
														<masterclipid>masterclip-57</masterclipid>
														<ismasterclip>TRUE</ismasterclip>
														<duration>5844</duration>
														<rate>
															<timebase>30</timebase>
															<ntsc>TRUE</ntsc>
														</rate>
														<name>eskimosorvetesoficial</name>
														<media>
															<video>
																<track>
																	<clipitem id="clipitem-91">
																		<masterclipid>masterclip-57</masterclipid>
																		<name>eskimosorvetesoficial</name>
																		<rate>
																			<timebase>30</timebase>
																			<ntsc>TRUE</ntsc>
																		</rate>
																		<alphatype>straight</alphatype>
																		<pixelaspectratio>square</pixelaspectratio>
																		<anamorphic>FALSE</anamorphic>
																		<file id="file-57">
																			<name>720/AE Attribution 10-21.aep</name>
																			<pathurl>file://localhost/Volumes/Macintosh%20HD/Users/juesecutler/Desktop/AEP/OSTV%20Credits%20Because%20Adobe/AE%20Attribution%2010-21.aep</pathurl>
																			<rate>
																				<timebase>30</timebase>
																				<ntsc>TRUE</ntsc>
																			</rate>
																			<duration>5844</duration>
																			<timecode>
																				<rate>
																					<timebase>30</timebase>
																					<ntsc>TRUE</ntsc>
																				</rate>
																				<string>00;00;00;00</string>
																				<frame>0</frame>
																				<displayformat>DF</displayformat>
																			</timecode>
																			<media>
																				<video>
																					<samplecharacteristics>
																						<rate>
																							<timebase>30</timebase>
																							<ntsc>TRUE</ntsc>
																						</rate>
																						<width>1280</width>
																						<height>720</height>
																						<anamorphic>FALSE</anamorphic>
																						<pixelaspectratio>square</pixelaspectratio>
																						<fielddominance>lower</fielddominance>
																					</samplecharacteristics>
																				</video>
																			</media>
																		</file>
																	</clipitem>
																</track>
															</video>
														</media>
														<logginginfo>
															<description></description>
															<scene></scene>
															<shottake></shottake>
															<lognote></lognote>
															<good></good>
															<originalvideofilename></originalvideofilename>
															<originalaudiofilename></originalaudiofilename>
														</logginginfo>
														<colorinfo>
															<lut></lut>
															<lut1></lut1>
															<asc_sop></asc_sop>
															<asc_sat></asc_sat>
															<lut2></lut2>
														</colorinfo>
														<labels>
															<label2>Rose</label2>
														</labels>
													</clip>
													<clip id="masterclip-58" explodedTracks="true">
														<uuid>7c48e4de-2454-4462-9c0e-b7531974fa0e</uuid>
														<masterclipid>masterclip-58</masterclipid>
														<ismasterclip>TRUE</ismasterclip>
														<duration>5844</duration>
														<rate>
															<timebase>30</timebase>
															<ntsc>TRUE</ntsc>
														</rate>
														<out>98</out>
														<name>@artsypeach</name>
														<media>
															<video>
																<track>
																	<clipitem id="clipitem-92">
																		<masterclipid>masterclip-58</masterclipid>
																		<name>@artsypeach</name>
																		<rate>
																			<timebase>30</timebase>
																			<ntsc>TRUE</ntsc>
																		</rate>
																		<alphatype>straight</alphatype>
																		<pixelaspectratio>square</pixelaspectratio>
																		<anamorphic>FALSE</anamorphic>
																		<file id="file-58">
																			<name>720/AE Attribution 10-21.aep</name>
																			<pathurl>file://localhost/Volumes/Macintosh%20HD/Users/juesecutler/Desktop/AEP/OSTV%20Credits%20Because%20Adobe/AE%20Attribution%2010-21.aep</pathurl>
																			<rate>
																				<timebase>30</timebase>
																				<ntsc>TRUE</ntsc>
																			</rate>
																			<duration>5844</duration>
																			<timecode>
																				<rate>
																					<timebase>30</timebase>
																					<ntsc>TRUE</ntsc>
																				</rate>
																				<string>00;00;00;00</string>
																				<frame>0</frame>
																				<displayformat>DF</displayformat>
																			</timecode>
																			<media>
																				<video>
																					<samplecharacteristics>
																						<rate>
																							<timebase>30</timebase>
																							<ntsc>TRUE</ntsc>
																						</rate>
																						<width>1280</width>
																						<height>720</height>
																						<anamorphic>FALSE</anamorphic>
																						<pixelaspectratio>square</pixelaspectratio>
																						<fielddominance>lower</fielddominance>
																					</samplecharacteristics>
																				</video>
																			</media>
																		</file>
																	</clipitem>
																</track>
															</video>
														</media>
														<logginginfo>
															<description></description>
															<scene></scene>
															<shottake></shottake>
															<lognote></lognote>
															<good></good>
															<originalvideofilename></originalvideofilename>
															<originalaudiofilename></originalaudiofilename>
														</logginginfo>
														<colorinfo>
															<lut></lut>
															<lut1></lut1>
															<asc_sop></asc_sop>
															<asc_sat></asc_sat>
															<lut2></lut2>
														</colorinfo>
														<labels>
															<label2>Rose</label2>
														</labels>
													</clip>
													<clip id="masterclip-59" explodedTracks="true">
														<uuid>c0bd9349-8779-4187-a3f1-047c03dba29c</uuid>
														<masterclipid>masterclip-59</masterclipid>
														<ismasterclip>TRUE</ismasterclip>
														<duration>5844</duration>
														<rate>
															<timebase>30</timebase>
															<ntsc>TRUE</ntsc>
														</rate>
														<name>__hiedra_</name>
														<media>
															<video>
																<track>
																	<clipitem id="clipitem-93">
																		<masterclipid>masterclip-59</masterclipid>
																		<name>__hiedra_</name>
																		<rate>
																			<timebase>30</timebase>
																			<ntsc>TRUE</ntsc>
																		</rate>
																		<alphatype>straight</alphatype>
																		<pixelaspectratio>square</pixelaspectratio>
																		<anamorphic>FALSE</anamorphic>
																		<file id="file-59">
																			<name>720/AE Attribution 10-21.aep</name>
																			<pathurl>file://localhost/Volumes/Macintosh%20HD/Users/juesecutler/Desktop/AEP/OSTV%20Credits%20Because%20Adobe/AE%20Attribution%2010-21.aep</pathurl>
																			<rate>
																				<timebase>30</timebase>
																				<ntsc>TRUE</ntsc>
																			</rate>
																			<duration>5844</duration>
																			<timecode>
																				<rate>
																					<timebase>30</timebase>
																					<ntsc>TRUE</ntsc>
																				</rate>
																				<string>00;00;00;00</string>
																				<frame>0</frame>
																				<displayformat>DF</displayformat>
																			</timecode>
																			<media>
																				<video>
																					<samplecharacteristics>
																						<rate>
																							<timebase>30</timebase>
																							<ntsc>TRUE</ntsc>
																						</rate>
																						<width>1280</width>
																						<height>720</height>
																						<anamorphic>FALSE</anamorphic>
																						<pixelaspectratio>square</pixelaspectratio>
																						<fielddominance>lower</fielddominance>
																					</samplecharacteristics>
																				</video>
																			</media>
																		</file>
																	</clipitem>
																</track>
															</video>
														</media>
														<logginginfo>
															<description></description>
															<scene></scene>
															<shottake></shottake>
															<lognote></lognote>
															<good></good>
															<originalvideofilename></originalvideofilename>
															<originalaudiofilename></originalaudiofilename>
														</logginginfo>
														<colorinfo>
															<lut></lut>
															<lut1></lut1>
															<asc_sop></asc_sop>
															<asc_sat></asc_sat>
															<lut2></lut2>
														</colorinfo>
														<labels>
															<label2>Rose</label2>
														</labels>
													</clip>
													<clip id="masterclip-60" explodedTracks="true">
														<uuid>044b8e4a-f7b3-4698-8ff4-4051be5c3944</uuid>
														<masterclipid>masterclip-60</masterclipid>
														<ismasterclip>TRUE</ismasterclip>
														<duration>5844</duration>
														<rate>
															<timebase>30</timebase>
															<ntsc>TRUE</ntsc>
														</rate>
														<name>yelizgunaytattoo</name>
														<media>
															<video>
																<track>
																	<clipitem id="clipitem-94">
																		<masterclipid>masterclip-60</masterclipid>
																		<name>yelizgunaytattoo</name>
																		<rate>
																			<timebase>30</timebase>
																			<ntsc>TRUE</ntsc>
																		</rate>
																		<alphatype>straight</alphatype>
																		<pixelaspectratio>square</pixelaspectratio>
																		<anamorphic>FALSE</anamorphic>
																		<file id="file-60">
																			<name>720/AE Attribution 10-21.aep</name>
																			<pathurl>file://localhost/Volumes/Macintosh%20HD/Users/juesecutler/Desktop/AEP/OSTV%20Credits%20Because%20Adobe/AE%20Attribution%2010-21.aep</pathurl>
																			<rate>
																				<timebase>30</timebase>
																				<ntsc>TRUE</ntsc>
																			</rate>
																			<duration>5844</duration>
																			<timecode>
																				<rate>
																					<timebase>30</timebase>
																					<ntsc>TRUE</ntsc>
																				</rate>
																				<string>00;00;00;00</string>
																				<frame>0</frame>
																				<displayformat>DF</displayformat>
																			</timecode>
																			<media>
																				<video>
																					<samplecharacteristics>
																						<rate>
																							<timebase>30</timebase>
																							<ntsc>TRUE</ntsc>
																						</rate>
																						<width>1280</width>
																						<height>720</height>
																						<anamorphic>FALSE</anamorphic>
																						<pixelaspectratio>square</pixelaspectratio>
																						<fielddominance>lower</fielddominance>
																					</samplecharacteristics>
																				</video>
																			</media>
																		</file>
																	</clipitem>
																</track>
															</video>
														</media>
														<logginginfo>
															<description></description>
															<scene></scene>
															<shottake></shottake>
															<lognote></lognote>
															<good></good>
															<originalvideofilename></originalvideofilename>
															<originalaudiofilename></originalaudiofilename>
														</logginginfo>
														<colorinfo>
															<lut></lut>
															<lut1></lut1>
															<asc_sop></asc_sop>
															<asc_sat></asc_sat>
															<lut2></lut2>
														</colorinfo>
														<labels>
															<label2>Rose</label2>
														</labels>
													</clip>
													<clip id="masterclip-61" explodedTracks="true">
														<uuid>305e2432-982f-45d8-ade2-766f650d239a</uuid>
														<masterclipid>masterclip-61</masterclipid>
														<ismasterclip>TRUE</ismasterclip>
														<duration>5844</duration>
														<rate>
															<timebase>30</timebase>
															<ntsc>TRUE</ntsc>
														</rate>
														<name>@yes.i.talk.to.cats</name>
														<media>
															<video>
																<track>
																	<clipitem id="clipitem-95">
																		<masterclipid>masterclip-61</masterclipid>
																		<name>@yes.i.talk.to.cats</name>
																		<rate>
																			<timebase>30</timebase>
																			<ntsc>TRUE</ntsc>
																		</rate>
																		<alphatype>straight</alphatype>
																		<pixelaspectratio>square</pixelaspectratio>
																		<anamorphic>FALSE</anamorphic>
																		<file id="file-61">
																			<name>720/AE Attribution 10-21.aep</name>
																			<pathurl>file://localhost/Volumes/Macintosh%20HD/Users/juesecutler/Desktop/AEP/OSTV%20Credits%20Because%20Adobe/AE%20Attribution%2010-21.aep</pathurl>
																			<rate>
																				<timebase>30</timebase>
																				<ntsc>TRUE</ntsc>
																			</rate>
																			<duration>5844</duration>
																			<timecode>
																				<rate>
																					<timebase>30</timebase>
																					<ntsc>TRUE</ntsc>
																				</rate>
																				<string>00;00;00;00</string>
																				<frame>0</frame>
																				<displayformat>DF</displayformat>
																			</timecode>
																			<media>
																				<video>
																					<samplecharacteristics>
																						<rate>
																							<timebase>30</timebase>
																							<ntsc>TRUE</ntsc>
																						</rate>
																						<width>1280</width>
																						<height>720</height>
																						<anamorphic>FALSE</anamorphic>
																						<pixelaspectratio>square</pixelaspectratio>
																						<fielddominance>lower</fielddominance>
																					</samplecharacteristics>
																				</video>
																			</media>
																		</file>
																	</clipitem>
																</track>
															</video>
														</media>
														<logginginfo>
															<description></description>
															<scene></scene>
															<shottake></shottake>
															<lognote></lognote>
															<good></good>
															<originalvideofilename></originalvideofilename>
															<originalaudiofilename></originalaudiofilename>
														</logginginfo>
														<colorinfo>
															<lut></lut>
															<lut1></lut1>
															<asc_sop></asc_sop>
															<asc_sat></asc_sat>
															<lut2></lut2>
														</colorinfo>
														<labels>
															<label2>Rose</label2>
														</labels>
													</clip>
													<clip id="masterclip-62" explodedTracks="true">
														<uuid>9eadd13e-ec89-49b1-a366-090f04f03d29</uuid>
														<masterclipid>masterclip-62</masterclipid>
														<ismasterclip>TRUE</ismasterclip>
														<duration>5844</duration>
														<rate>
															<timebase>30</timebase>
															<ntsc>TRUE</ntsc>
														</rate>
														<out>3422</out>
														<name>@obzorovna</name>
														<media>
															<video>
																<track>
																	<clipitem id="clipitem-96">
																		<masterclipid>masterclip-62</masterclipid>
																		<name>@obzorovna</name>
																		<rate>
																			<timebase>30</timebase>
																			<ntsc>TRUE</ntsc>
																		</rate>
																		<alphatype>straight</alphatype>
																		<pixelaspectratio>square</pixelaspectratio>
																		<anamorphic>FALSE</anamorphic>
																		<file id="file-62">
																			<name>720/AE Attribution 10-21.aep</name>
																			<pathurl>file://localhost/Volumes/Macintosh%20HD/Users/juesecutler/Desktop/AEP/OSTV%20Credits%20Because%20Adobe/AE%20Attribution%2010-21.aep</pathurl>
																			<rate>
																				<timebase>30</timebase>
																				<ntsc>TRUE</ntsc>
																			</rate>
																			<duration>5844</duration>
																			<timecode>
																				<rate>
																					<timebase>30</timebase>
																					<ntsc>TRUE</ntsc>
																				</rate>
																				<string>00;00;00;00</string>
																				<frame>0</frame>
																				<displayformat>DF</displayformat>
																			</timecode>
																			<media>
																				<video>
																					<samplecharacteristics>
																						<rate>
																							<timebase>30</timebase>
																							<ntsc>TRUE</ntsc>
																						</rate>
																						<width>1280</width>
																						<height>720</height>
																						<anamorphic>FALSE</anamorphic>
																						<pixelaspectratio>square</pixelaspectratio>
																						<fielddominance>lower</fielddominance>
																					</samplecharacteristics>
																				</video>
																			</media>
																		</file>
																	</clipitem>
																</track>
															</video>
														</media>
														<logginginfo>
															<description></description>
															<scene></scene>
															<shottake></shottake>
															<lognote></lognote>
															<good></good>
															<originalvideofilename></originalvideofilename>
															<originalaudiofilename></originalaudiofilename>
														</logginginfo>
														<colorinfo>
															<lut></lut>
															<lut1></lut1>
															<asc_sop></asc_sop>
															<asc_sat></asc_sat>
															<lut2></lut2>
														</colorinfo>
														<labels>
															<label2>Rose</label2>
														</labels>
													</clip>
													<clip id="masterclip-63" explodedTracks="true">
														<uuid>0461c317-a71a-46e3-a096-dec2fce890d6</uuid>
														<masterclipid>masterclip-63</masterclipid>
														<ismasterclip>TRUE</ismasterclip>
														<duration>5844</duration>
														<rate>
															<timebase>30</timebase>
															<ntsc>TRUE</ntsc>
														</rate>
														<out>2718</out>
														<name>@boomshadowace</name>
														<media>
															<video>
																<track>
																	<clipitem id="clipitem-97">
																		<masterclipid>masterclip-63</masterclipid>
																		<name>@boomshadowace</name>
																		<rate>
																			<timebase>30</timebase>
																			<ntsc>TRUE</ntsc>
																		</rate>
																		<alphatype>straight</alphatype>
																		<pixelaspectratio>square</pixelaspectratio>
																		<anamorphic>FALSE</anamorphic>
																		<file id="file-63">
																			<name>720/AE Attribution 10-21.aep</name>
																			<pathurl>file://localhost/Volumes/Macintosh%20HD/Users/juesecutler/Desktop/AEP/OSTV%20Credits%20Because%20Adobe/AE%20Attribution%2010-21.aep</pathurl>
																			<rate>
																				<timebase>30</timebase>
																				<ntsc>TRUE</ntsc>
																			</rate>
																			<duration>5844</duration>
																			<timecode>
																				<rate>
																					<timebase>30</timebase>
																					<ntsc>TRUE</ntsc>
																				</rate>
																				<string>00;00;00;00</string>
																				<frame>0</frame>
																				<displayformat>DF</displayformat>
																			</timecode>
																			<media>
																				<video>
																					<samplecharacteristics>
																						<rate>
																							<timebase>30</timebase>
																							<ntsc>TRUE</ntsc>
																						</rate>
																						<width>1280</width>
																						<height>720</height>
																						<anamorphic>FALSE</anamorphic>
																						<pixelaspectratio>square</pixelaspectratio>
																						<fielddominance>lower</fielddominance>
																					</samplecharacteristics>
																				</video>
																			</media>
																		</file>
																	</clipitem>
																</track>
															</video>
														</media>
														<logginginfo>
															<description></description>
															<scene></scene>
															<shottake></shottake>
															<lognote></lognote>
															<good></good>
															<originalvideofilename></originalvideofilename>
															<originalaudiofilename></originalaudiofilename>
														</logginginfo>
														<colorinfo>
															<lut></lut>
															<lut1></lut1>
															<asc_sop></asc_sop>
															<asc_sat></asc_sat>
															<lut2></lut2>
														</colorinfo>
														<labels>
															<label2>Rose</label2>
														</labels>
													</clip>
												</children>
											</bin>
											<bin>
												<name>00_YT and no @s</name>
												<children>
													<clip id="masterclip-64" explodedTracks="true">
														<uuid>148cbed5-a26b-4a76-99f7-c9601de00959</uuid>
														<masterclipid>masterclip-64</masterclipid>
														<ismasterclip>TRUE</ismasterclip>
														<duration>5844</duration>
														<rate>
															<timebase>30</timebase>
															<ntsc>TRUE</ntsc>
														</rate>
														<out>4389</out>
														<name>br turner art</name>
														<media>
															<video>
																<track>
																	<clipitem id="clipitem-98">
																		<masterclipid>masterclip-64</masterclipid>
																		<name>br turner art</name>
																		<rate>
																			<timebase>30</timebase>
																			<ntsc>TRUE</ntsc>
																		</rate>
																		<alphatype>straight</alphatype>
																		<pixelaspectratio>square</pixelaspectratio>
																		<anamorphic>FALSE</anamorphic>
																		<file id="file-64">
																			<name>720/AE Attribution 10-21.aep</name>
																			<pathurl>file://localhost/Volumes/Macintosh%20HD/Users/juesecutler/Desktop/AEP/OSTV%20Credits%20Because%20Adobe/AE%20Attribution%2010-21.aep</pathurl>
																			<rate>
																				<timebase>30</timebase>
																				<ntsc>TRUE</ntsc>
																			</rate>
																			<duration>5844</duration>
																			<timecode>
																				<rate>
																					<timebase>30</timebase>
																					<ntsc>TRUE</ntsc>
																				</rate>
																				<string>00;00;00;00</string>
																				<frame>0</frame>
																				<displayformat>DF</displayformat>
																			</timecode>
																			<media>
																				<video>
																					<samplecharacteristics>
																						<rate>
																							<timebase>30</timebase>
																							<ntsc>TRUE</ntsc>
																						</rate>
																						<width>1280</width>
																						<height>720</height>
																						<anamorphic>FALSE</anamorphic>
																						<pixelaspectratio>square</pixelaspectratio>
																						<fielddominance>lower</fielddominance>
																					</samplecharacteristics>
																				</video>
																			</media>
																		</file>
																	</clipitem>
																</track>
															</video>
														</media>
														<logginginfo>
															<description></description>
															<scene></scene>
															<shottake></shottake>
															<lognote></lognote>
															<good></good>
															<originalvideofilename></originalvideofilename>
															<originalaudiofilename></originalaudiofilename>
														</logginginfo>
														<colorinfo>
															<lut></lut>
															<lut1></lut1>
															<asc_sop></asc_sop>
															<asc_sat></asc_sat>
															<lut2></lut2>
														</colorinfo>
														<labels>
															<label2>Rose</label2>
														</labels>
													</clip>
													<clip id="masterclip-65" explodedTracks="true">
														<uuid>26654ecb-097d-4627-a15f-764dcf247728</uuid>
														<masterclipid>masterclip-65</masterclipid>
														<ismasterclip>TRUE</ismasterclip>
														<duration>5844</duration>
														<rate>
															<timebase>30</timebase>
															<ntsc>TRUE</ntsc>
														</rate>
														<name>fill's lawn care</name>
														<media>
															<video>
																<track>
																	<clipitem id="clipitem-99">
																		<masterclipid>masterclip-65</masterclipid>
																		<name>fill's lawn care</name>
																		<rate>
																			<timebase>30</timebase>
																			<ntsc>TRUE</ntsc>
																		</rate>
																		<alphatype>straight</alphatype>
																		<pixelaspectratio>square</pixelaspectratio>
																		<anamorphic>FALSE</anamorphic>
																		<file id="file-65">
																			<name>720/AE Attribution 10-21.aep</name>
																			<pathurl>file://localhost/Volumes/Macintosh%20HD/Users/juesecutler/Desktop/AEP/OSTV%20Credits%20Because%20Adobe/AE%20Attribution%2010-21.aep</pathurl>
																			<rate>
																				<timebase>30</timebase>
																				<ntsc>TRUE</ntsc>
																			</rate>
																			<duration>5844</duration>
																			<timecode>
																				<rate>
																					<timebase>30</timebase>
																					<ntsc>TRUE</ntsc>
																				</rate>
																				<string>00;00;00;00</string>
																				<frame>0</frame>
																				<displayformat>DF</displayformat>
																			</timecode>
																			<media>
																				<video>
																					<samplecharacteristics>
																						<rate>
																							<timebase>30</timebase>
																							<ntsc>TRUE</ntsc>
																						</rate>
																						<width>1280</width>
																						<height>720</height>
																						<anamorphic>FALSE</anamorphic>
																						<pixelaspectratio>square</pixelaspectratio>
																						<fielddominance>lower</fielddominance>
																					</samplecharacteristics>
																				</video>
																			</media>
																		</file>
																	</clipitem>
																</track>
															</video>
														</media>
														<logginginfo>
															<description></description>
															<scene></scene>
															<shottake></shottake>
															<lognote></lognote>
															<good></good>
															<originalvideofilename></originalvideofilename>
															<originalaudiofilename></originalaudiofilename>
														</logginginfo>
														<colorinfo>
															<lut></lut>
															<lut1></lut1>
															<asc_sop></asc_sop>
															<asc_sat></asc_sat>
															<lut2></lut2>
														</colorinfo>
														<labels>
															<label2>Rose</label2>
														</labels>
													</clip>
													<clip id="masterclip-66" explodedTracks="true">
														<uuid>d071d9c0-f1d8-485b-bd1d-b83eb1c43dc3</uuid>
														<masterclipid>masterclip-66</masterclipid>
														<ismasterclip>TRUE</ismasterclip>
														<duration>5844</duration>
														<rate>
															<timebase>30</timebase>
															<ntsc>TRUE</ntsc>
														</rate>
														<name>3D Prints&amp;Builds </name>
														<media>
															<video>
																<track>
																	<clipitem id="clipitem-100">
																		<masterclipid>masterclip-66</masterclipid>
																		<name>3D Prints&amp;Builds </name>
																		<rate>
																			<timebase>30</timebase>
																			<ntsc>TRUE</ntsc>
																		</rate>
																		<alphatype>straight</alphatype>
																		<pixelaspectratio>square</pixelaspectratio>
																		<anamorphic>FALSE</anamorphic>
																		<file id="file-66">
																			<name>720/AE Attribution 10-21.aep</name>
																			<pathurl>file://localhost/Volumes/Macintosh%20HD/Users/juesecutler/Desktop/AEP/OSTV%20Credits%20Because%20Adobe/AE%20Attribution%2010-21.aep</pathurl>
																			<rate>
																				<timebase>30</timebase>
																				<ntsc>TRUE</ntsc>
																			</rate>
																			<duration>5844</duration>
																			<timecode>
																				<rate>
																					<timebase>30</timebase>
																					<ntsc>TRUE</ntsc>
																				</rate>
																				<string>00;00;00;00</string>
																				<frame>0</frame>
																				<displayformat>DF</displayformat>
																			</timecode>
																			<media>
																				<video>
																					<samplecharacteristics>
																						<rate>
																							<timebase>30</timebase>
																							<ntsc>TRUE</ntsc>
																						</rate>
																						<width>1280</width>
																						<height>720</height>
																						<anamorphic>FALSE</anamorphic>
																						<pixelaspectratio>square</pixelaspectratio>
																						<fielddominance>lower</fielddominance>
																					</samplecharacteristics>
																				</video>
																			</media>
																		</file>
																	</clipitem>
																</track>
															</video>
														</media>
														<logginginfo>
															<description></description>
															<scene></scene>
															<shottake></shottake>
															<lognote></lognote>
															<good></good>
															<originalvideofilename></originalvideofilename>
															<originalaudiofilename></originalaudiofilename>
														</logginginfo>
														<colorinfo>
															<lut></lut>
															<lut1></lut1>
															<asc_sop></asc_sop>
															<asc_sat></asc_sat>
															<lut2></lut2>
														</colorinfo>
														<labels>
															<label2>Rose</label2>
														</labels>
													</clip>
													<clip id="masterclip-67" explodedTracks="true">
														<uuid>d13ddb56-7072-48e7-9ced-7322cdf1527d</uuid>
														<masterclipid>masterclip-67</masterclipid>
														<ismasterclip>TRUE</ismasterclip>
														<duration>5844</duration>
														<rate>
															<timebase>30</timebase>
															<ntsc>TRUE</ntsc>
														</rate>
														<name>droolsss</name>
														<media>
															<video>
																<track>
																	<clipitem id="clipitem-101">
																		<masterclipid>masterclip-67</masterclipid>
																		<name>droolsss</name>
																		<rate>
																			<timebase>30</timebase>
																			<ntsc>TRUE</ntsc>
																		</rate>
																		<alphatype>straight</alphatype>
																		<pixelaspectratio>square</pixelaspectratio>
																		<anamorphic>FALSE</anamorphic>
																		<file id="file-67">
																			<name>720/AE Attribution 10-21.aep</name>
																			<pathurl>file://localhost/Volumes/Macintosh%20HD/Users/juesecutler/Desktop/AEP/OSTV%20Credits%20Because%20Adobe/AE%20Attribution%2010-21.aep</pathurl>
																			<rate>
																				<timebase>30</timebase>
																				<ntsc>TRUE</ntsc>
																			</rate>
																			<duration>5844</duration>
																			<timecode>
																				<rate>
																					<timebase>30</timebase>
																					<ntsc>TRUE</ntsc>
																				</rate>
																				<string>00;00;00;00</string>
																				<frame>0</frame>
																				<displayformat>DF</displayformat>
																			</timecode>
																			<media>
																				<video>
																					<samplecharacteristics>
																						<rate>
																							<timebase>30</timebase>
																							<ntsc>TRUE</ntsc>
																						</rate>
																						<width>1280</width>
																						<height>720</height>
																						<anamorphic>FALSE</anamorphic>
																						<pixelaspectratio>square</pixelaspectratio>
																						<fielddominance>lower</fielddominance>
																					</samplecharacteristics>
																				</video>
																			</media>
																		</file>
																	</clipitem>
																</track>
															</video>
														</media>
														<logginginfo>
															<description></description>
															<scene></scene>
															<shottake></shottake>
															<lognote></lognote>
															<good></good>
															<originalvideofilename></originalvideofilename>
															<originalaudiofilename></originalaudiofilename>
														</logginginfo>
														<colorinfo>
															<lut></lut>
															<lut1></lut1>
															<asc_sop></asc_sop>
															<asc_sat></asc_sat>
															<lut2></lut2>
														</colorinfo>
														<labels>
															<label2>Rose</label2>
														</labels>
													</clip>
													<clip id="masterclip-68" explodedTracks="true">
														<uuid>d331f5db-9cdd-44f6-a7ee-a40f89235f5b</uuid>
														<masterclipid>masterclip-68</masterclipid>
														<ismasterclip>TRUE</ismasterclip>
														<duration>5844</duration>
														<rate>
															<timebase>30</timebase>
															<ntsc>TRUE</ntsc>
														</rate>
														<name>Paint Society</name>
														<media>
															<video>
																<track>
																	<clipitem id="clipitem-102">
																		<masterclipid>masterclip-68</masterclipid>
																		<name>Paint Society</name>
																		<rate>
																			<timebase>30</timebase>
																			<ntsc>TRUE</ntsc>
																		</rate>
																		<alphatype>straight</alphatype>
																		<pixelaspectratio>square</pixelaspectratio>
																		<anamorphic>FALSE</anamorphic>
																		<file id="file-68">
																			<name>720/AE Attribution 10-21.aep</name>
																			<pathurl>file://localhost/Volumes/Macintosh%20HD/Users/juesecutler/Desktop/AEP/OSTV%20Credits%20Because%20Adobe/AE%20Attribution%2010-21.aep</pathurl>
																			<rate>
																				<timebase>30</timebase>
																				<ntsc>TRUE</ntsc>
																			</rate>
																			<duration>5844</duration>
																			<timecode>
																				<rate>
																					<timebase>30</timebase>
																					<ntsc>TRUE</ntsc>
																				</rate>
																				<string>00;00;00;00</string>
																				<frame>0</frame>
																				<displayformat>DF</displayformat>
																			</timecode>
																			<media>
																				<video>
																					<samplecharacteristics>
																						<rate>
																							<timebase>30</timebase>
																							<ntsc>TRUE</ntsc>
																						</rate>
																						<width>1280</width>
																						<height>720</height>
																						<anamorphic>FALSE</anamorphic>
																						<pixelaspectratio>square</pixelaspectratio>
																						<fielddominance>lower</fielddominance>
																					</samplecharacteristics>
																				</video>
																			</media>
																		</file>
																	</clipitem>
																</track>
															</video>
														</media>
														<logginginfo>
															<description></description>
															<scene></scene>
															<shottake></shottake>
															<lognote></lognote>
															<good></good>
															<originalvideofilename></originalvideofilename>
															<originalaudiofilename></originalaudiofilename>
														</logginginfo>
														<colorinfo>
															<lut></lut>
															<lut1></lut1>
															<asc_sop></asc_sop>
															<asc_sat></asc_sat>
															<lut2></lut2>
														</colorinfo>
														<labels>
															<label2>Rose</label2>
														</labels>
													</clip>
													<clip id="masterclip-69" explodedTracks="true">
														<uuid>77c4ce6c-1263-4250-a831-35f19c1aa1d5</uuid>
														<masterclipid>masterclip-69</masterclipid>
														<ismasterclip>TRUE</ismasterclip>
														<duration>5844</duration>
														<rate>
															<timebase>30</timebase>
															<ntsc>TRUE</ntsc>
														</rate>
														<out>2918</out>
														<name>Studio TEAL</name>
														<media>
															<video>
																<track>
																	<clipitem id="clipitem-103">
																		<masterclipid>masterclip-69</masterclipid>
																		<name>Studio TEAL</name>
																		<rate>
																			<timebase>30</timebase>
																			<ntsc>TRUE</ntsc>
																		</rate>
																		<alphatype>straight</alphatype>
																		<pixelaspectratio>square</pixelaspectratio>
																		<anamorphic>FALSE</anamorphic>
																		<file id="file-69">
																			<name>720/AE Attribution 10-21.aep</name>
																			<pathurl>file://localhost/Volumes/Macintosh%20HD/Users/juesecutler/Desktop/AEP/OSTV%20Credits%20Because%20Adobe/AE%20Attribution%2010-21.aep</pathurl>
																			<rate>
																				<timebase>30</timebase>
																				<ntsc>TRUE</ntsc>
																			</rate>
																			<duration>5844</duration>
																			<timecode>
																				<rate>
																					<timebase>30</timebase>
																					<ntsc>TRUE</ntsc>
																				</rate>
																				<string>00;00;00;00</string>
																				<frame>0</frame>
																				<displayformat>DF</displayformat>
																			</timecode>
																			<media>
																				<video>
																					<samplecharacteristics>
																						<rate>
																							<timebase>30</timebase>
																							<ntsc>TRUE</ntsc>
																						</rate>
																						<width>1280</width>
																						<height>720</height>
																						<anamorphic>FALSE</anamorphic>
																						<pixelaspectratio>square</pixelaspectratio>
																						<fielddominance>lower</fielddominance>
																					</samplecharacteristics>
																				</video>
																			</media>
																		</file>
																	</clipitem>
																</track>
															</video>
														</media>
														<logginginfo>
															<description></description>
															<scene></scene>
															<shottake></shottake>
															<lognote></lognote>
															<good></good>
															<originalvideofilename></originalvideofilename>
															<originalaudiofilename></originalaudiofilename>
														</logginginfo>
														<colorinfo>
															<lut></lut>
															<lut1></lut1>
															<asc_sop></asc_sop>
															<asc_sat></asc_sat>
															<lut2></lut2>
														</colorinfo>
														<labels>
															<label2>Rose</label2>
														</labels>
													</clip>
													<clip id="masterclip-70" explodedTracks="true">
														<uuid>8e130eb4-f163-466c-bf0e-a0e8862af46e</uuid>
														<masterclipid>masterclip-70</masterclipid>
														<ismasterclip>TRUE</ismasterclip>
														<duration>5844</duration>
														<rate>
															<timebase>30</timebase>
															<ntsc>TRUE</ntsc>
														</rate>
														<name>squishy</name>
														<media>
															<video>
																<track>
																	<clipitem id="clipitem-104">
																		<masterclipid>masterclip-70</masterclipid>
																		<name>squishy</name>
																		<rate>
																			<timebase>30</timebase>
																			<ntsc>TRUE</ntsc>
																		</rate>
																		<alphatype>straight</alphatype>
																		<pixelaspectratio>square</pixelaspectratio>
																		<anamorphic>FALSE</anamorphic>
																		<file id="file-70">
																			<name>720/AE Attribution 10-21.aep</name>
																			<pathurl>file://localhost/Volumes/Macintosh%20HD/Users/juesecutler/Desktop/AEP/OSTV%20Credits%20Because%20Adobe/AE%20Attribution%2010-21.aep</pathurl>
																			<rate>
																				<timebase>30</timebase>
																				<ntsc>TRUE</ntsc>
																			</rate>
																			<duration>5844</duration>
																			<timecode>
																				<rate>
																					<timebase>30</timebase>
																					<ntsc>TRUE</ntsc>
																				</rate>
																				<string>00;00;00;00</string>
																				<frame>0</frame>
																				<displayformat>DF</displayformat>
																			</timecode>
																			<media>
																				<video>
																					<samplecharacteristics>
																						<rate>
																							<timebase>30</timebase>
																							<ntsc>TRUE</ntsc>
																						</rate>
																						<width>1280</width>
																						<height>720</height>
																						<anamorphic>FALSE</anamorphic>
																						<pixelaspectratio>square</pixelaspectratio>
																						<fielddominance>lower</fielddominance>
																					</samplecharacteristics>
																				</video>
																			</media>
																		</file>
																	</clipitem>
																</track>
															</video>
														</media>
														<logginginfo>
															<description></description>
															<scene></scene>
															<shottake></shottake>
															<lognote></lognote>
															<good></good>
															<originalvideofilename></originalvideofilename>
															<originalaudiofilename></originalaudiofilename>
														</logginginfo>
														<colorinfo>
															<lut></lut>
															<lut1></lut1>
															<asc_sop></asc_sop>
															<asc_sat></asc_sat>
															<lut2></lut2>
														</colorinfo>
														<labels>
															<label2>Rose</label2>
														</labels>
													</clip>
													<clip id="masterclip-71" explodedTracks="true">
														<uuid>bd3998f7-88f8-43a6-831c-82c7deff74a9</uuid>
														<masterclipid>masterclip-71</masterclipid>
														<ismasterclip>TRUE</ismasterclip>
														<duration>5844</duration>
														<rate>
															<timebase>30</timebase>
															<ntsc>TRUE</ntsc>
														</rate>
														<name>tysytube restoration</name>
														<media>
															<video>
																<track>
																	<clipitem id="clipitem-105">
																		<masterclipid>masterclip-71</masterclipid>
																		<name>tysytube restoration</name>
																		<rate>
																			<timebase>30</timebase>
																			<ntsc>TRUE</ntsc>
																		</rate>
																		<alphatype>straight</alphatype>
																		<pixelaspectratio>square</pixelaspectratio>
																		<anamorphic>FALSE</anamorphic>
																		<file id="file-71">
																			<name>720/AE Attribution 10-21.aep</name>
																			<pathurl>file://localhost/Volumes/Macintosh%20HD/Users/juesecutler/Desktop/AEP/OSTV%20Credits%20Because%20Adobe/AE%20Attribution%2010-21.aep</pathurl>
																			<rate>
																				<timebase>30</timebase>
																				<ntsc>TRUE</ntsc>
																			</rate>
																			<duration>5844</duration>
																			<timecode>
																				<rate>
																					<timebase>30</timebase>
																					<ntsc>TRUE</ntsc>
																				</rate>
																				<string>00;00;00;00</string>
																				<frame>0</frame>
																				<displayformat>DF</displayformat>
																			</timecode>
																			<media>
																				<video>
																					<samplecharacteristics>
																						<rate>
																							<timebase>30</timebase>
																							<ntsc>TRUE</ntsc>
																						</rate>
																						<width>1280</width>
																						<height>720</height>
																						<anamorphic>FALSE</anamorphic>
																						<pixelaspectratio>square</pixelaspectratio>
																						<fielddominance>lower</fielddominance>
																					</samplecharacteristics>
																				</video>
																			</media>
																		</file>
																	</clipitem>
																</track>
															</video>
														</media>
														<logginginfo>
															<description></description>
															<scene></scene>
															<shottake></shottake>
															<lognote></lognote>
															<good></good>
															<originalvideofilename></originalvideofilename>
															<originalaudiofilename></originalaudiofilename>
														</logginginfo>
														<colorinfo>
															<lut></lut>
															<lut1></lut1>
															<asc_sop></asc_sop>
															<asc_sat></asc_sat>
															<lut2></lut2>
														</colorinfo>
														<labels>
															<label2>Rose</label2>
														</labels>
													</clip>
													<clip id="masterclip-72" explodedTracks="true">
														<uuid>ba78c24d-0e4f-4686-93a4-b75eaf6fa8fd</uuid>
														<masterclipid>masterclip-72</masterclipid>
														<ismasterclip>TRUE</ismasterclip>
														<duration>5844</duration>
														<rate>
															<timebase>30</timebase>
															<ntsc>TRUE</ntsc>
														</rate>
														<name>Sand Tagious&amp;#10;</name>
														<media>
															<video>
																<track>
																	<clipitem id="clipitem-106">
																		<masterclipid>masterclip-72</masterclipid>
																		<name>Sand Tagious&amp;#10;</name>
																		<rate>
																			<timebase>30</timebase>
																			<ntsc>TRUE</ntsc>
																		</rate>
																		<alphatype>straight</alphatype>
																		<pixelaspectratio>square</pixelaspectratio>
																		<anamorphic>FALSE</anamorphic>
																		<file id="file-72">
																			<name>720/AE Attribution 10-21.aep</name>
																			<pathurl>file://localhost/Volumes/Macintosh%20HD/Users/juesecutler/Desktop/AEP/OSTV%20Credits%20Because%20Adobe/AE%20Attribution%2010-21.aep</pathurl>
																			<rate>
																				<timebase>30</timebase>
																				<ntsc>TRUE</ntsc>
																			</rate>
																			<duration>5844</duration>
																			<timecode>
																				<rate>
																					<timebase>30</timebase>
																					<ntsc>TRUE</ntsc>
																				</rate>
																				<string>00;00;00;00</string>
																				<frame>0</frame>
																				<displayformat>DF</displayformat>
																			</timecode>
																			<media>
																				<video>
																					<samplecharacteristics>
																						<rate>
																							<timebase>30</timebase>
																							<ntsc>TRUE</ntsc>
																						</rate>
																						<width>1280</width>
																						<height>720</height>
																						<anamorphic>FALSE</anamorphic>
																						<pixelaspectratio>square</pixelaspectratio>
																						<fielddominance>lower</fielddominance>
																					</samplecharacteristics>
																				</video>
																			</media>
																		</file>
																	</clipitem>
																</track>
															</video>
														</media>
														<logginginfo>
															<description></description>
															<scene></scene>
															<shottake></shottake>
															<lognote></lognote>
															<good></good>
															<originalvideofilename></originalvideofilename>
															<originalaudiofilename></originalaudiofilename>
														</logginginfo>
														<colorinfo>
															<lut></lut>
															<lut1></lut1>
															<asc_sop></asc_sop>
															<asc_sat></asc_sat>
															<lut2></lut2>
														</colorinfo>
														<labels>
															<label2>Rose</label2>
														</labels>
													</clip>
													<clip id="masterclip-73" explodedTracks="true">
														<uuid>e322b813-be12-4856-87ae-dd81c632e15f</uuid>
														<masterclipid>masterclip-73</masterclipid>
														<ismasterclip>TRUE</ismasterclip>
														<duration>5844</duration>
														<rate>
															<timebase>30</timebase>
															<ntsc>TRUE</ntsc>
														</rate>
														<name>Rise Magic</name>
														<media>
															<video>
																<track>
																	<clipitem id="clipitem-107">
																		<masterclipid>masterclip-73</masterclipid>
																		<name>Rise Magic</name>
																		<rate>
																			<timebase>30</timebase>
																			<ntsc>TRUE</ntsc>
																		</rate>
																		<alphatype>straight</alphatype>
																		<pixelaspectratio>square</pixelaspectratio>
																		<anamorphic>FALSE</anamorphic>
																		<file id="file-73">
																			<name>720/AE Attribution 10-21.aep</name>
																			<pathurl>file://localhost/Volumes/Macintosh%20HD/Users/juesecutler/Desktop/AEP/OSTV%20Credits%20Because%20Adobe/AE%20Attribution%2010-21.aep</pathurl>
																			<rate>
																				<timebase>30</timebase>
																				<ntsc>TRUE</ntsc>
																			</rate>
																			<duration>5844</duration>
																			<timecode>
																				<rate>
																					<timebase>30</timebase>
																					<ntsc>TRUE</ntsc>
																				</rate>
																				<string>00;00;00;00</string>
																				<frame>0</frame>
																				<displayformat>DF</displayformat>
																			</timecode>
																			<media>
																				<video>
																					<samplecharacteristics>
																						<rate>
																							<timebase>30</timebase>
																							<ntsc>TRUE</ntsc>
																						</rate>
																						<width>1280</width>
																						<height>720</height>
																						<anamorphic>FALSE</anamorphic>
																						<pixelaspectratio>square</pixelaspectratio>
																						<fielddominance>lower</fielddominance>
																					</samplecharacteristics>
																				</video>
																			</media>
																		</file>
																	</clipitem>
																</track>
															</video>
														</media>
														<logginginfo>
															<description></description>
															<scene></scene>
															<shottake></shottake>
															<lognote></lognote>
															<good></good>
															<originalvideofilename></originalvideofilename>
															<originalaudiofilename></originalaudiofilename>
														</logginginfo>
														<colorinfo>
															<lut></lut>
															<lut1></lut1>
															<asc_sop></asc_sop>
															<asc_sat></asc_sat>
															<lut2></lut2>
														</colorinfo>
														<labels>
															<label2>Rose</label2>
														</labels>
													</clip>
													<clip id="masterclip-74" explodedTracks="true">
														<uuid>ae5c3512-695f-4d61-a9a8-423267ce7e53</uuid>
														<masterclipid>masterclip-74</masterclipid>
														<ismasterclip>TRUE</ismasterclip>
														<duration>5844</duration>
														<rate>
															<timebase>30</timebase>
															<ntsc>TRUE</ntsc>
														</rate>
														<name>Hanabira工房&amp;#10;</name>
														<media>
															<video>
																<track>
																	<clipitem id="clipitem-108">
																		<masterclipid>masterclip-74</masterclipid>
																		<name>Hanabira工房&amp;#10;</name>
																		<rate>
																			<timebase>30</timebase>
																			<ntsc>TRUE</ntsc>
																		</rate>
																		<alphatype>straight</alphatype>
																		<pixelaspectratio>square</pixelaspectratio>
																		<anamorphic>FALSE</anamorphic>
																		<file id="file-74">
																			<name>720/AE Attribution 10-21.aep</name>
																			<pathurl>file://localhost/Volumes/Macintosh%20HD/Users/juesecutler/Desktop/AEP/OSTV%20Credits%20Because%20Adobe/AE%20Attribution%2010-21.aep</pathurl>
																			<rate>
																				<timebase>30</timebase>
																				<ntsc>TRUE</ntsc>
																			</rate>
																			<duration>5844</duration>
																			<timecode>
																				<rate>
																					<timebase>30</timebase>
																					<ntsc>TRUE</ntsc>
																				</rate>
																				<string>00;00;00;00</string>
																				<frame>0</frame>
																				<displayformat>DF</displayformat>
																			</timecode>
																			<media>
																				<video>
																					<samplecharacteristics>
																						<rate>
																							<timebase>30</timebase>
																							<ntsc>TRUE</ntsc>
																						</rate>
																						<width>1280</width>
																						<height>720</height>
																						<anamorphic>FALSE</anamorphic>
																						<pixelaspectratio>square</pixelaspectratio>
																						<fielddominance>lower</fielddominance>
																					</samplecharacteristics>
																				</video>
																			</media>
																		</file>
																	</clipitem>
																</track>
															</video>
														</media>
														<logginginfo>
															<description></description>
															<scene></scene>
															<shottake></shottake>
															<lognote></lognote>
															<good></good>
															<originalvideofilename></originalvideofilename>
															<originalaudiofilename></originalaudiofilename>
														</logginginfo>
														<colorinfo>
															<lut></lut>
															<lut1></lut1>
															<asc_sop></asc_sop>
															<asc_sat></asc_sat>
															<lut2></lut2>
														</colorinfo>
														<labels>
															<label2>Rose</label2>
														</labels>
													</clip>
													<clip id="masterclip-75" explodedTracks="true">
														<uuid>2b052109-1b94-4c21-8eb7-9d12da84d1d9</uuid>
														<masterclipid>masterclip-75</masterclipid>
														<ismasterclip>TRUE</ismasterclip>
														<duration>5844</duration>
														<rate>
															<timebase>30</timebase>
															<ntsc>TRUE</ntsc>
														</rate>
														<name>Anders Soberra</name>
														<media>
															<video>
																<track>
																	<clipitem id="clipitem-109">
																		<masterclipid>masterclip-75</masterclipid>
																		<name>Anders Soberra</name>
																		<rate>
																			<timebase>30</timebase>
																			<ntsc>TRUE</ntsc>
																		</rate>
																		<alphatype>straight</alphatype>
																		<pixelaspectratio>square</pixelaspectratio>
																		<anamorphic>FALSE</anamorphic>
																		<file id="file-75">
																			<name>720/AE Attribution 10-21.aep</name>
																			<pathurl>file://localhost/Volumes/Macintosh%20HD/Users/juesecutler/Desktop/AEP/OSTV%20Credits%20Because%20Adobe/AE%20Attribution%2010-21.aep</pathurl>
																			<rate>
																				<timebase>30</timebase>
																				<ntsc>TRUE</ntsc>
																			</rate>
																			<duration>5844</duration>
																			<timecode>
																				<rate>
																					<timebase>30</timebase>
																					<ntsc>TRUE</ntsc>
																				</rate>
																				<string>00;00;00;00</string>
																				<frame>0</frame>
																				<displayformat>DF</displayformat>
																			</timecode>
																			<media>
																				<video>
																					<samplecharacteristics>
																						<rate>
																							<timebase>30</timebase>
																							<ntsc>TRUE</ntsc>
																						</rate>
																						<width>1280</width>
																						<height>720</height>
																						<anamorphic>FALSE</anamorphic>
																						<pixelaspectratio>square</pixelaspectratio>
																						<fielddominance>lower</fielddominance>
																					</samplecharacteristics>
																				</video>
																			</media>
																		</file>
																	</clipitem>
																</track>
															</video>
														</media>
														<logginginfo>
															<description></description>
															<scene></scene>
															<shottake></shottake>
															<lognote></lognote>
															<good></good>
															<originalvideofilename></originalvideofilename>
															<originalaudiofilename></originalaudiofilename>
														</logginginfo>
														<colorinfo>
															<lut></lut>
															<lut1></lut1>
															<asc_sop></asc_sop>
															<asc_sat></asc_sat>
															<lut2></lut2>
														</colorinfo>
														<labels>
															<label2>Rose</label2>
														</labels>
													</clip>
													<clip id="masterclip-76" explodedTracks="true">
														<uuid>03e9f728-92c5-433d-abd0-bc91a0c2792b</uuid>
														<masterclipid>masterclip-76</masterclipid>
														<ismasterclip>TRUE</ismasterclip>
														<duration>5844</duration>
														<rate>
															<timebase>30</timebase>
															<ntsc>TRUE</ntsc>
														</rate>
														<name>Asmr Soap Startseva</name>
														<media>
															<video>
																<track>
																	<clipitem id="clipitem-110">
																		<masterclipid>masterclip-76</masterclipid>
																		<name>Asmr Soap Startseva</name>
																		<rate>
																			<timebase>30</timebase>
																			<ntsc>TRUE</ntsc>
																		</rate>
																		<alphatype>straight</alphatype>
																		<pixelaspectratio>square</pixelaspectratio>
																		<anamorphic>FALSE</anamorphic>
																		<file id="file-76">
																			<name>720/AE Attribution 10-21.aep</name>
																			<pathurl>file://localhost/Volumes/Macintosh%20HD/Users/juesecutler/Desktop/AEP/OSTV%20Credits%20Because%20Adobe/AE%20Attribution%2010-21.aep</pathurl>
																			<rate>
																				<timebase>30</timebase>
																				<ntsc>TRUE</ntsc>
																			</rate>
																			<duration>5844</duration>
																			<timecode>
																				<rate>
																					<timebase>30</timebase>
																					<ntsc>TRUE</ntsc>
																				</rate>
																				<string>00;00;00;00</string>
																				<frame>0</frame>
																				<displayformat>DF</displayformat>
																			</timecode>
																			<media>
																				<video>
																					<samplecharacteristics>
																						<rate>
																							<timebase>30</timebase>
																							<ntsc>TRUE</ntsc>
																						</rate>
																						<width>1280</width>
																						<height>720</height>
																						<anamorphic>FALSE</anamorphic>
																						<pixelaspectratio>square</pixelaspectratio>
																						<fielddominance>lower</fielddominance>
																					</samplecharacteristics>
																				</video>
																			</media>
																		</file>
																	</clipitem>
																</track>
															</video>
														</media>
														<logginginfo>
															<description></description>
															<scene></scene>
															<shottake></shottake>
															<lognote></lognote>
															<good></good>
															<originalvideofilename></originalvideofilename>
															<originalaudiofilename></originalaudiofilename>
														</logginginfo>
														<colorinfo>
															<lut></lut>
															<lut1></lut1>
															<asc_sop></asc_sop>
															<asc_sat></asc_sat>
															<lut2></lut2>
														</colorinfo>
														<labels>
															<label2>Rose</label2>
														</labels>
													</clip>
													<clip id="masterclip-77" explodedTracks="true">
														<uuid>7e0173c9-7944-43ff-a6b7-c4215ed4aaa7</uuid>
														<masterclipid>masterclip-77</masterclipid>
														<ismasterclip>TRUE</ismasterclip>
														<duration>5844</duration>
														<rate>
															<timebase>30</timebase>
															<ntsc>TRUE</ntsc>
														</rate>
														<name>noah verrier</name>
														<media>
															<video>
																<track>
																	<clipitem id="clipitem-111">
																		<masterclipid>masterclip-77</masterclipid>
																		<name>noah verrier</name>
																		<rate>
																			<timebase>30</timebase>
																			<ntsc>TRUE</ntsc>
																		</rate>
																		<alphatype>straight</alphatype>
																		<pixelaspectratio>square</pixelaspectratio>
																		<anamorphic>FALSE</anamorphic>
																		<file id="file-77">
																			<name>720/AE Attribution 10-21.aep</name>
																			<pathurl>file://localhost/Volumes/Macintosh%20HD/Users/juesecutler/Desktop/AEP/OSTV%20Credits%20Because%20Adobe/AE%20Attribution%2010-21.aep</pathurl>
																			<rate>
																				<timebase>30</timebase>
																				<ntsc>TRUE</ntsc>
																			</rate>
																			<duration>5844</duration>
																			<timecode>
																				<rate>
																					<timebase>30</timebase>
																					<ntsc>TRUE</ntsc>
																				</rate>
																				<string>00;00;00;00</string>
																				<frame>0</frame>
																				<displayformat>DF</displayformat>
																			</timecode>
																			<media>
																				<video>
																					<samplecharacteristics>
																						<rate>
																							<timebase>30</timebase>
																							<ntsc>TRUE</ntsc>
																						</rate>
																						<width>1280</width>
																						<height>720</height>
																						<anamorphic>FALSE</anamorphic>
																						<pixelaspectratio>square</pixelaspectratio>
																						<fielddominance>lower</fielddominance>
																					</samplecharacteristics>
																				</video>
																			</media>
																		</file>
																	</clipitem>
																</track>
															</video>
														</media>
														<logginginfo>
															<description></description>
															<scene></scene>
															<shottake></shottake>
															<lognote></lognote>
															<good></good>
															<originalvideofilename></originalvideofilename>
															<originalaudiofilename></originalaudiofilename>
														</logginginfo>
														<colorinfo>
															<lut></lut>
															<lut1></lut1>
															<asc_sop></asc_sop>
															<asc_sat></asc_sat>
															<lut2></lut2>
														</colorinfo>
														<labels>
															<label2>Rose</label2>
														</labels>
													</clip>
													<clip id="masterclip-78" explodedTracks="true">
														<uuid>530b85f4-c8a6-4d5e-972e-11b0ba904a76</uuid>
														<masterclipid>masterclip-78</masterclipid>
														<ismasterclip>TRUE</ismasterclip>
														<duration>5844</duration>
														<rate>
															<timebase>30</timebase>
															<ntsc>TRUE</ntsc>
														</rate>
														<name>wAw Creator</name>
														<media>
															<video>
																<track>
																	<clipitem id="clipitem-112">
																		<masterclipid>masterclip-78</masterclipid>
																		<name>wAw Creator</name>
																		<rate>
																			<timebase>30</timebase>
																			<ntsc>TRUE</ntsc>
																		</rate>
																		<alphatype>straight</alphatype>
																		<pixelaspectratio>square</pixelaspectratio>
																		<anamorphic>FALSE</anamorphic>
																		<file id="file-78">
																			<name>720/AE Attribution 10-21.aep</name>
																			<pathurl>file://localhost/Volumes/Macintosh%20HD/Users/juesecutler/Desktop/AEP/OSTV%20Credits%20Because%20Adobe/AE%20Attribution%2010-21.aep</pathurl>
																			<rate>
																				<timebase>30</timebase>
																				<ntsc>TRUE</ntsc>
																			</rate>
																			<duration>5844</duration>
																			<timecode>
																				<rate>
																					<timebase>30</timebase>
																					<ntsc>TRUE</ntsc>
																				</rate>
																				<string>00;00;00;00</string>
																				<frame>0</frame>
																				<displayformat>DF</displayformat>
																			</timecode>
																			<media>
																				<video>
																					<samplecharacteristics>
																						<rate>
																							<timebase>30</timebase>
																							<ntsc>TRUE</ntsc>
																						</rate>
																						<width>1280</width>
																						<height>720</height>
																						<anamorphic>FALSE</anamorphic>
																						<pixelaspectratio>square</pixelaspectratio>
																						<fielddominance>lower</fielddominance>
																					</samplecharacteristics>
																				</video>
																			</media>
																		</file>
																	</clipitem>
																</track>
															</video>
														</media>
														<logginginfo>
															<description></description>
															<scene></scene>
															<shottake></shottake>
															<lognote></lognote>
															<good></good>
															<originalvideofilename></originalvideofilename>
															<originalaudiofilename></originalaudiofilename>
														</logginginfo>
														<colorinfo>
															<lut></lut>
															<lut1></lut1>
															<asc_sop></asc_sop>
															<asc_sat></asc_sat>
															<lut2></lut2>
														</colorinfo>
														<labels>
															<label2>Rose</label2>
														</labels>
													</clip>
													<clip id="masterclip-79" explodedTracks="true">
														<uuid>6c6ea870-e063-4095-b983-8b3e3dc7fd7c</uuid>
														<masterclipid>masterclip-79</masterclipid>
														<ismasterclip>TRUE</ismasterclip>
														<duration>5844</duration>
														<rate>
															<timebase>30</timebase>
															<ntsc>TRUE</ntsc>
														</rate>
														<name>TAS Visuals</name>
														<media>
															<video>
																<track>
																	<clipitem id="clipitem-113">
																		<masterclipid>masterclip-79</masterclipid>
																		<name>TAS Visuals</name>
																		<rate>
																			<timebase>30</timebase>
																			<ntsc>TRUE</ntsc>
																		</rate>
																		<alphatype>straight</alphatype>
																		<pixelaspectratio>square</pixelaspectratio>
																		<anamorphic>FALSE</anamorphic>
																		<file id="file-79">
																			<name>720/AE Attribution 10-21.aep</name>
																			<pathurl>file://localhost/Volumes/Macintosh%20HD/Users/juesecutler/Desktop/AEP/OSTV%20Credits%20Because%20Adobe/AE%20Attribution%2010-21.aep</pathurl>
																			<rate>
																				<timebase>30</timebase>
																				<ntsc>TRUE</ntsc>
																			</rate>
																			<duration>5844</duration>
																			<timecode>
																				<rate>
																					<timebase>30</timebase>
																					<ntsc>TRUE</ntsc>
																				</rate>
																				<string>00;00;00;00</string>
																				<frame>0</frame>
																				<displayformat>DF</displayformat>
																			</timecode>
																			<media>
																				<video>
																					<samplecharacteristics>
																						<rate>
																							<timebase>30</timebase>
																							<ntsc>TRUE</ntsc>
																						</rate>
																						<width>1280</width>
																						<height>720</height>
																						<anamorphic>FALSE</anamorphic>
																						<pixelaspectratio>square</pixelaspectratio>
																						<fielddominance>lower</fielddominance>
																					</samplecharacteristics>
																				</video>
																			</media>
																		</file>
																	</clipitem>
																</track>
															</video>
														</media>
														<logginginfo>
															<description></description>
															<scene></scene>
															<shottake></shottake>
															<lognote></lognote>
															<good></good>
															<originalvideofilename></originalvideofilename>
															<originalaudiofilename></originalaudiofilename>
														</logginginfo>
														<colorinfo>
															<lut></lut>
															<lut1></lut1>
															<asc_sop></asc_sop>
															<asc_sat></asc_sat>
															<lut2></lut2>
														</colorinfo>
														<labels>
															<label2>Rose</label2>
														</labels>
													</clip>
													<clip id="masterclip-80" explodedTracks="true">
														<uuid>cf025420-8a73-4b0a-981e-d10536012d02</uuid>
														<masterclipid>masterclip-80</masterclipid>
														<ismasterclip>TRUE</ismasterclip>
														<duration>5844</duration>
														<rate>
															<timebase>30</timebase>
															<ntsc>TRUE</ntsc>
														</rate>
														<name>lemonade_inc IG confirmed</name>
														<media>
															<video>
																<track>
																	<clipitem id="clipitem-114">
																		<masterclipid>masterclip-80</masterclipid>
																		<name>lemonade_inc IG confirmed</name>
																		<rate>
																			<timebase>30</timebase>
																			<ntsc>TRUE</ntsc>
																		</rate>
																		<alphatype>straight</alphatype>
																		<pixelaspectratio>square</pixelaspectratio>
																		<anamorphic>FALSE</anamorphic>
																		<file id="file-80">
																			<name>720/AE Attribution 10-21.aep</name>
																			<pathurl>file://localhost/Volumes/Macintosh%20HD/Users/juesecutler/Desktop/AEP/OSTV%20Credits%20Because%20Adobe/AE%20Attribution%2010-21.aep</pathurl>
																			<rate>
																				<timebase>30</timebase>
																				<ntsc>TRUE</ntsc>
																			</rate>
																			<duration>5844</duration>
																			<timecode>
																				<rate>
																					<timebase>30</timebase>
																					<ntsc>TRUE</ntsc>
																				</rate>
																				<string>00;00;00;00</string>
																				<frame>0</frame>
																				<displayformat>DF</displayformat>
																			</timecode>
																			<media>
																				<video>
																					<samplecharacteristics>
																						<rate>
																							<timebase>30</timebase>
																							<ntsc>TRUE</ntsc>
																						</rate>
																						<width>1280</width>
																						<height>720</height>
																						<anamorphic>FALSE</anamorphic>
																						<pixelaspectratio>square</pixelaspectratio>
																						<fielddominance>lower</fielddominance>
																					</samplecharacteristics>
																				</video>
																			</media>
																		</file>
																	</clipitem>
																</track>
															</video>
														</media>
														<logginginfo>
															<description></description>
															<scene></scene>
															<shottake></shottake>
															<lognote></lognote>
															<good></good>
															<originalvideofilename></originalvideofilename>
															<originalaudiofilename></originalaudiofilename>
														</logginginfo>
														<colorinfo>
															<lut></lut>
															<lut1></lut1>
															<asc_sop></asc_sop>
															<asc_sat></asc_sat>
															<lut2></lut2>
														</colorinfo>
														<labels>
															<label2>Rose</label2>
														</labels>
													</clip>
													<clip id="masterclip-81" explodedTracks="true">
														<uuid>cb6a1d21-e753-4a2c-812d-f2dac9ed7344</uuid>
														<masterclipid>masterclip-81</masterclipid>
														<ismasterclip>TRUE</ismasterclip>
														<duration>5844</duration>
														<rate>
															<timebase>30</timebase>
															<ntsc>TRUE</ntsc>
														</rate>
														<name>Callen Schaub&amp;#10;</name>
														<media>
															<video>
																<track>
																	<clipitem id="clipitem-115">
																		<masterclipid>masterclip-81</masterclipid>
																		<name>Callen Schaub&amp;#10;</name>
																		<rate>
																			<timebase>30</timebase>
																			<ntsc>TRUE</ntsc>
																		</rate>
																		<alphatype>straight</alphatype>
																		<pixelaspectratio>square</pixelaspectratio>
																		<anamorphic>FALSE</anamorphic>
																		<file id="file-81">
																			<name>720/AE Attribution 10-21.aep</name>
																			<pathurl>file://localhost/Volumes/Macintosh%20HD/Users/juesecutler/Desktop/AEP/OSTV%20Credits%20Because%20Adobe/AE%20Attribution%2010-21.aep</pathurl>
																			<rate>
																				<timebase>30</timebase>
																				<ntsc>TRUE</ntsc>
																			</rate>
																			<duration>5844</duration>
																			<timecode>
																				<rate>
																					<timebase>30</timebase>
																					<ntsc>TRUE</ntsc>
																				</rate>
																				<string>00;00;00;00</string>
																				<frame>0</frame>
																				<displayformat>DF</displayformat>
																			</timecode>
																			<media>
																				<video>
																					<samplecharacteristics>
																						<rate>
																							<timebase>30</timebase>
																							<ntsc>TRUE</ntsc>
																						</rate>
																						<width>1280</width>
																						<height>720</height>
																						<anamorphic>FALSE</anamorphic>
																						<pixelaspectratio>square</pixelaspectratio>
																						<fielddominance>lower</fielddominance>
																					</samplecharacteristics>
																				</video>
																			</media>
																		</file>
																	</clipitem>
																</track>
															</video>
														</media>
														<logginginfo>
															<description></description>
															<scene></scene>
															<shottake></shottake>
															<lognote></lognote>
															<good></good>
															<originalvideofilename></originalvideofilename>
															<originalaudiofilename></originalaudiofilename>
														</logginginfo>
														<colorinfo>
															<lut></lut>
															<lut1></lut1>
															<asc_sop></asc_sop>
															<asc_sat></asc_sat>
															<lut2></lut2>
														</colorinfo>
														<labels>
															<label2>Rose</label2>
														</labels>
													</clip>
													<clip id="masterclip-82" explodedTracks="true">
														<uuid>f3820d0b-508b-4369-bb07-0d42b6496d56</uuid>
														<masterclipid>masterclip-82</masterclipid>
														<ismasterclip>TRUE</ismasterclip>
														<duration>5844</duration>
														<rate>
															<timebase>30</timebase>
															<ntsc>TRUE</ntsc>
														</rate>
														<name>WINNI</name>
														<media>
															<video>
																<track>
																	<clipitem id="clipitem-116">
																		<masterclipid>masterclip-82</masterclipid>
																		<name>WINNI</name>
																		<rate>
																			<timebase>30</timebase>
																			<ntsc>TRUE</ntsc>
																		</rate>
																		<alphatype>straight</alphatype>
																		<pixelaspectratio>square</pixelaspectratio>
																		<anamorphic>FALSE</anamorphic>
																		<file id="file-82">
																			<name>720/AE Attribution 10-21.aep</name>
																			<pathurl>file://localhost/Volumes/Macintosh%20HD/Users/juesecutler/Desktop/AEP/OSTV%20Credits%20Because%20Adobe/AE%20Attribution%2010-21.aep</pathurl>
																			<rate>
																				<timebase>30</timebase>
																				<ntsc>TRUE</ntsc>
																			</rate>
																			<duration>5844</duration>
																			<timecode>
																				<rate>
																					<timebase>30</timebase>
																					<ntsc>TRUE</ntsc>
																				</rate>
																				<string>00;00;00;00</string>
																				<frame>0</frame>
																				<displayformat>DF</displayformat>
																			</timecode>
																			<media>
																				<video>
																					<samplecharacteristics>
																						<rate>
																							<timebase>30</timebase>
																							<ntsc>TRUE</ntsc>
																						</rate>
																						<width>1280</width>
																						<height>720</height>
																						<anamorphic>FALSE</anamorphic>
																						<pixelaspectratio>square</pixelaspectratio>
																						<fielddominance>lower</fielddominance>
																					</samplecharacteristics>
																				</video>
																			</media>
																		</file>
																	</clipitem>
																</track>
															</video>
														</media>
														<logginginfo>
															<description></description>
															<scene></scene>
															<shottake></shottake>
															<lognote></lognote>
															<good></good>
															<originalvideofilename></originalvideofilename>
															<originalaudiofilename></originalaudiofilename>
														</logginginfo>
														<colorinfo>
															<lut></lut>
															<lut1></lut1>
															<asc_sop></asc_sop>
															<asc_sat></asc_sat>
															<lut2></lut2>
														</colorinfo>
														<labels>
															<label2>Rose</label2>
														</labels>
													</clip>
													<clip id="masterclip-83" explodedTracks="true">
														<uuid>0b2d1f4f-2044-470c-a70f-24b618cc5ddc</uuid>
														<masterclipid>masterclip-83</masterclipid>
														<ismasterclip>TRUE</ismasterclip>
														<duration>5844</duration>
														<rate>
															<timebase>30</timebase>
															<ntsc>TRUE</ntsc>
														</rate>
														<name>YT Object YT confirmed</name>
														<media>
															<video>
																<track>
																	<clipitem id="clipitem-117">
																		<masterclipid>masterclip-83</masterclipid>
																		<name>YT Object YT confirmed</name>
																		<rate>
																			<timebase>30</timebase>
																			<ntsc>TRUE</ntsc>
																		</rate>
																		<alphatype>straight</alphatype>
																		<pixelaspectratio>square</pixelaspectratio>
																		<anamorphic>FALSE</anamorphic>
																		<file id="file-83">
																			<name>720/AE Attribution 10-21.aep</name>
																			<pathurl>file://localhost/Volumes/Macintosh%20HD/Users/juesecutler/Desktop/AEP/OSTV%20Credits%20Because%20Adobe/AE%20Attribution%2010-21.aep</pathurl>
																			<rate>
																				<timebase>30</timebase>
																				<ntsc>TRUE</ntsc>
																			</rate>
																			<duration>5844</duration>
																			<timecode>
																				<rate>
																					<timebase>30</timebase>
																					<ntsc>TRUE</ntsc>
																				</rate>
																				<string>00;00;00;00</string>
																				<frame>0</frame>
																				<displayformat>DF</displayformat>
																			</timecode>
																			<media>
																				<video>
																					<samplecharacteristics>
																						<rate>
																							<timebase>30</timebase>
																							<ntsc>TRUE</ntsc>
																						</rate>
																						<width>1280</width>
																						<height>720</height>
																						<anamorphic>FALSE</anamorphic>
																						<pixelaspectratio>square</pixelaspectratio>
																						<fielddominance>lower</fielddominance>
																					</samplecharacteristics>
																				</video>
																			</media>
																		</file>
																	</clipitem>
																</track>
															</video>
														</media>
														<logginginfo>
															<description></description>
															<scene></scene>
															<shottake></shottake>
															<lognote></lognote>
															<good></good>
															<originalvideofilename></originalvideofilename>
															<originalaudiofilename></originalaudiofilename>
														</logginginfo>
														<colorinfo>
															<lut></lut>
															<lut1></lut1>
															<asc_sop></asc_sop>
															<asc_sat></asc_sat>
															<lut2></lut2>
														</colorinfo>
														<labels>
															<label2>Rose</label2>
														</labels>
													</clip>
													<clip id="masterclip-84" explodedTracks="true">
														<uuid>6ec0e7cc-b34c-4899-989d-f48397fe7643</uuid>
														<masterclipid>masterclip-84</masterclipid>
														<ismasterclip>TRUE</ismasterclip>
														<duration>5844</duration>
														<rate>
															<timebase>30</timebase>
															<ntsc>TRUE</ntsc>
														</rate>
														<name>magicktruffle</name>
														<media>
															<video>
																<track>
																	<clipitem id="clipitem-118">
																		<masterclipid>masterclip-84</masterclipid>
																		<name>magicktruffle</name>
																		<rate>
																			<timebase>30</timebase>
																			<ntsc>TRUE</ntsc>
																		</rate>
																		<alphatype>straight</alphatype>
																		<pixelaspectratio>square</pixelaspectratio>
																		<anamorphic>FALSE</anamorphic>
																		<file id="file-84">
																			<name>720/AE Attribution 10-21.aep</name>
																			<pathurl>file://localhost/Volumes/Macintosh%20HD/Users/juesecutler/Desktop/AEP/OSTV%20Credits%20Because%20Adobe/AE%20Attribution%2010-21.aep</pathurl>
																			<rate>
																				<timebase>30</timebase>
																				<ntsc>TRUE</ntsc>
																			</rate>
																			<duration>5844</duration>
																			<timecode>
																				<rate>
																					<timebase>30</timebase>
																					<ntsc>TRUE</ntsc>
																				</rate>
																				<string>00;00;00;00</string>
																				<frame>0</frame>
																				<displayformat>DF</displayformat>
																			</timecode>
																			<media>
																				<video>
																					<samplecharacteristics>
																						<rate>
																							<timebase>30</timebase>
																							<ntsc>TRUE</ntsc>
																						</rate>
																						<width>1280</width>
																						<height>720</height>
																						<anamorphic>FALSE</anamorphic>
																						<pixelaspectratio>square</pixelaspectratio>
																						<fielddominance>lower</fielddominance>
																					</samplecharacteristics>
																				</video>
																			</media>
																		</file>
																	</clipitem>
																</track>
															</video>
														</media>
														<logginginfo>
															<description></description>
															<scene></scene>
															<shottake></shottake>
															<lognote></lognote>
															<good></good>
															<originalvideofilename></originalvideofilename>
															<originalaudiofilename></originalaudiofilename>
														</logginginfo>
														<colorinfo>
															<lut></lut>
															<lut1></lut1>
															<asc_sop></asc_sop>
															<asc_sat></asc_sat>
															<lut2></lut2>
														</colorinfo>
														<labels>
															<label2>Rose</label2>
														</labels>
													</clip>
												</children>
											</bin>
										</children>
									</bin>
									<sequence id="sequence-1" TL.SQAudioVisibleBase="0" TL.SQVideoVisibleBase="0" TL.SQVisibleBaseTime="0" TL.SQAVDividerPosition="0.5" TL.SQHideShyTracks="0" TL.SQHeaderWidth="236" TL.SQDataTrackViewControlState="0" Monitor.ProgramZoomOut="49582653120000" Monitor.ProgramZoomIn="0" TL.SQTimePerPixel="0.2370622880696808" AM.TrackVScrollPosition="0" AM.TrackScrollPosition="0" MZ.EditLine="669577708800" MZ.Sequence.PreviewFrameSizeHeight="1080" MZ.Sequence.PreviewFrameSizeWidth="1920" MZ.Sequence.AudioTimeDisplayFormat="200" MZ.Sequence.PreviewRenderingClassID="1297106761" MZ.Sequence.PreviewRenderingPresetCodec="1297107278" MZ.Sequence.PreviewRenderingPresetPath="EncoderPresets/SequencePreview/795454d9-d3c2-429d-9474-923ab13b7018/I-Frame Only MPEG.epr" MZ.Sequence.PreviewUseMaxRenderQuality="false" MZ.Sequence.PreviewUseMaxBitDepth="false" MZ.Sequence.EditingModeGUID="795454d9-d3c2-429d-9474-923ab13b7018" MZ.Sequence.VideoTimeDisplayFormat="103" MZ.WorkOutPoint="49582653120000" MZ.WorkInPoint="0" explodedTracks="true">
										<uuid>9dce18ee-3bab-496e-adb5-e2b977345414</uuid>
										<duration>0</duration>
										<rate>
											<timebase>30</timebase>
											<ntsc>TRUE</ntsc>
										</rate>
										<out>2130</out>
										<name>Bug and Lower Nest</name>
										<media>
											<video>
												<format>
													<samplecharacteristics>
														<rate>
															<timebase>30</timebase>
															<ntsc>TRUE</ntsc>
														</rate>
														<codec>
															<name>Apple ProRes 422</name>
															<appspecificdata>
																<appname>Final Cut Pro</appname>
																<appmanufacturer>Apple Inc.</appmanufacturer>
																<appversion>7.0</appversion>
																<data>
																	<qtcodec>
																		<codecname>Apple ProRes 422</codecname>
																		<codectypename>Apple ProRes 422</codectypename>
																		<codectypecode>apcn</codectypecode>
																		<codecvendorcode>appl</codecvendorcode>
																		<spatialquality>1024</spatialquality>
																		<temporalquality>0</temporalquality>
																		<keyframerate>0</keyframerate>
																		<datarate>0</datarate>
																	</qtcodec>
																</data>
															</appspecificdata>
														</codec>
														<width>1920</width>
														<height>1080</height>
														<anamorphic>FALSE</anamorphic>
														<pixelaspectratio>square</pixelaspectratio>
														<fielddominance>none</fielddominance>
														<colordepth>24</colordepth>
													</samplecharacteristics>
												</format>
												<track TL.SQTrackShy="0" TL.SQTrackExpandedHeight="25" TL.SQTrackExpanded="0" MZ.TrackTargeted="1">
													<enabled>TRUE</enabled>
													<locked>FALSE</locked>
												</track>
												<track TL.SQTrackShy="0" TL.SQTrackExpandedHeight="25" TL.SQTrackExpanded="0" MZ.TrackTargeted="0">
													<enabled>TRUE</enabled>
													<locked>FALSE</locked>
												</track>
												<track TL.SQTrackShy="0" TL.SQTrackExpandedHeight="25" TL.SQTrackExpanded="0" MZ.TrackTargeted="0">
													<clipitem id="clipitem-119">
														<masterclipid>masterclip-85</masterclipid>
														<name># Oddly Watermark.mov</name>
														<enabled>TRUE</enabled>
														<duration>420</duration>
														<rate>
															<timebase>30</timebase>
															<ntsc>TRUE</ntsc>
														</rate>
														<start>0</start>
														<end>419</end>
														<in>0</in>
														<out>419</out>
														<pproTicksIn>0</pproTicksIn>
														<pproTicksOut>3551304556800</pproTicksOut>
														<alphatype>none</alphatype>
														<pixelaspectratio>square</pixelaspectratio>
														<anamorphic>FALSE</anamorphic>
														<file id="file-85">
															<name># Oddly Watermark.mov</name>
															<pathurl>file://localhost/Volumes/Satisfactum%20Satisfactorum/00_Hub%20World/5_Assets/00_OSTV/New%20graphics%2005-24-23/#%20Oddly%20Watermark.mov</pathurl>
															<rate>
																<timebase>30</timebase>
																<ntsc>FALSE</ntsc>
															</rate>
															<duration>421</duration>
															<timecode>
																<rate>
																	<timebase>30</timebase>
																	<ntsc>FALSE</ntsc>
																</rate>
																<string>00:00:10:00</string>
																<frame>300</frame>
																<displayformat>NDF</displayformat>
															</timecode>
															<media>
																<video>
																	<samplecharacteristics>
																		<rate>
																			<timebase>30</timebase>
																			<ntsc>FALSE</ntsc>
																		</rate>
																		<width>1920</width>
																		<height>1080</height>
																		<anamorphic>FALSE</anamorphic>
																		<pixelaspectratio>square</pixelaspectratio>
																		<fielddominance>none</fielddominance>
																	</samplecharacteristics>
																</video>
															</media>
														</file>
														<logginginfo>
															<description></description>
															<scene></scene>
															<shottake></shottake>
															<lognote></lognote>
															<good></good>
															<originalvideofilename></originalvideofilename>
															<originalaudiofilename></originalaudiofilename>
														</logginginfo>
														<colorinfo>
															<lut></lut>
															<lut1></lut1>
															<asc_sop></asc_sop>
															<asc_sat></asc_sat>
															<lut2></lut2>
														</colorinfo>
														<labels>
															<label2>Violet</label2>
														</labels>
													</clipitem>
													<clipitem id="clipitem-120">
														<masterclipid>masterclip-86</masterclipid>
														<name>Lower still.png</name>
														<enabled>TRUE</enabled>
														<duration>1294705</duration>
														<rate>
															<timebase>30</timebase>
															<ntsc>TRUE</ntsc>
														</rate>
														<start>419</start>
														<end>5850</end>
														<in>107892</in>
														<out>113323</out>
														<pproTicksIn>914456685542400</pproTicksIn>
														<pproTicksOut>960488034105600</pproTicksOut>
														<alphatype>straight</alphatype>
														<pixelaspectratio>square</pixelaspectratio>
														<anamorphic>FALSE</anamorphic>
														<file id="file-86">
															<name>Lower still.png</name>
															<pathurl>file://localhost/Volumes/Satisfactum%20Satisfactorum/00_Hub%20World/5_Assets/00_OSTV/New%20graphics%2005-24-23/Lower%20still.png</pathurl>
															<rate>
																<timebase>30</timebase>
																<ntsc>TRUE</ntsc>
															</rate>
															<timecode>
																<rate>
																	<timebase>30</timebase>
																	<ntsc>TRUE</ntsc>
																</rate>
																<string>00:00:13:29</string>
																<frame>419</frame>
																<displayformat>NDF</displayformat>
															</timecode>
															<media>
																<video>
																	<samplecharacteristics>
																		<rate>
																			<timebase>30</timebase>
																			<ntsc>TRUE</ntsc>
																		</rate>
																		<width>1280</width>
																		<height>720</height>
																		<anamorphic>FALSE</anamorphic>
																		<pixelaspectratio>square</pixelaspectratio>
																		<fielddominance>none</fielddominance>
																	</samplecharacteristics>
																</video>
															</media>
														</file>
														<logginginfo>
															<description></description>
															<scene></scene>
															<shottake></shottake>
															<lognote></lognote>
															<good></good>
															<originalvideofilename></originalvideofilename>
															<originalaudiofilename></originalaudiofilename>
														</logginginfo>
														<colorinfo>
															<lut></lut>
															<lut1></lut1>
															<asc_sop></asc_sop>
															<asc_sat></asc_sat>
															<lut2></lut2>
														</colorinfo>
														<labels>
															<label2>Lavender</label2>
														</labels>
													</clipitem>
													<enabled>TRUE</enabled>
													<locked>FALSE</locked>
												</track>
												<track TL.SQTrackShy="0" TL.SQTrackExpandedHeight="25" TL.SQTrackExpanded="0" MZ.TrackTargeted="0">
													<clipitem id="clipitem-121">
														<masterclipid>masterclip-87</masterclipid>
														<name>ATM BUG_1080_Top Right.png</name>
														<enabled>TRUE</enabled>
														<duration>1294705</duration>
														<rate>
															<timebase>30</timebase>
															<ntsc>TRUE</ntsc>
														</rate>
														<start>0</start>
														<end>5850</end>
														<in>107892</in>
														<out>113742</out>
														<pproTicksIn>914456685542400</pproTicksIn>
														<pproTicksOut>964039338662400</pproTicksOut>
														<alphatype>straight</alphatype>
														<pixelaspectratio>square</pixelaspectratio>
														<anamorphic>FALSE</anamorphic>
														<file id="file-87">
															<name>ATM BUG_1080_Top Right.png</name>
															<pathurl>file://localhost/Users/dalecampo/Downloads/ATM%20Bug/1080/ATM%20BUG_1080_Top%20Right.png</pathurl>
															<rate>
																<timebase>30</timebase>
																<ntsc>TRUE</ntsc>
															</rate>
															<timecode>
																<rate>
																	<timebase>30</timebase>
																	<ntsc>TRUE</ntsc>
																</rate>
																<string>00:00:00:00</string>
																<frame>0</frame>
																<displayformat>NDF</displayformat>
															</timecode>
															<media>
																<video>
																	<samplecharacteristics>
																		<rate>
																			<timebase>30</timebase>
																			<ntsc>TRUE</ntsc>
																		</rate>
																		<width>1920</width>
																		<height>1080</height>
																		<anamorphic>FALSE</anamorphic>
																		<pixelaspectratio>square</pixelaspectratio>
																		<fielddominance>none</fielddominance>
																	</samplecharacteristics>
																</video>
															</media>
														</file>
														<logginginfo>
															<description></description>
															<scene></scene>
															<shottake></shottake>
															<lognote></lognote>
															<good></good>
															<originalvideofilename></originalvideofilename>
															<originalaudiofilename></originalaudiofilename>
														</logginginfo>
														<colorinfo>
															<lut></lut>
															<lut1></lut1>
															<asc_sop></asc_sop>
															<asc_sat></asc_sat>
															<lut2></lut2>
														</colorinfo>
														<labels>
															<label2>Lavender</label2>
														</labels>
													</clipitem>
													<enabled>TRUE</enabled>
													<locked>FALSE</locked>
												</track>
												<track TL.SQTrackShy="0" TL.SQTrackExpandedHeight="25" TL.SQTrackExpanded="0" MZ.TrackTargeted="0">
													<enabled>TRUE</enabled>
													<locked>FALSE</locked>
												</track>
											</video>
											<audio>
												<numOutputChannels>2</numOutputChannels>
												<format>
													<samplecharacteristics>
														<depth>16</depth>
														<samplerate>44100</samplerate>
													</samplecharacteristics>
												</format>
												<outputs>
													<group>
														<index>1</index>
														<numchannels>1</numchannels>
														<downmix>0</downmix>
														<channel>
															<index>1</index>
														</channel>
													</group>
													<group>
														<index>2</index>
														<numchannels>1</numchannels>
														<downmix>0</downmix>
														<channel>
															<index>2</index>
														</channel>
													</group>
												</outputs>
												<track TL.SQTrackAudioKeyframeStyle="0" TL.SQTrackShy="0" TL.SQTrackExpandedHeight="25" TL.SQTrackExpanded="0" MZ.TrackTargeted="1" PannerCurrentValue="0.5" PannerIsInverted="true" PannerStartKeyframe="-91445760000000000,0.5,0,0,0,0,0,0" PannerName="Balance" currentExplodedTrackIndex="0" totalExplodedTrackCount="2" premiereTrackType="Stereo">
													<enabled>TRUE</enabled>
													<locked>FALSE</locked>
													<outputchannelindex>1</outputchannelindex>
												</track>
												<track TL.SQTrackAudioKeyframeStyle="0" TL.SQTrackShy="0" TL.SQTrackExpandedHeight="25" TL.SQTrackExpanded="0" MZ.TrackTargeted="1" PannerCurrentValue="0.5" PannerIsInverted="true" PannerStartKeyframe="-91445760000000000,0.5,0,0,0,0,0,0" PannerName="Balance" currentExplodedTrackIndex="1" totalExplodedTrackCount="2" premiereTrackType="Stereo">
													<enabled>TRUE</enabled>
													<locked>FALSE</locked>
													<outputchannelindex>2</outputchannelindex>
												</track>
											</audio>
										</media>
										<timecode>
											<rate>
												<timebase>30</timebase>
												<ntsc>TRUE</ntsc>
											</rate>
											<string>00:00:00:00</string>
											<frame>0</frame>
											<displayformat>NDF</displayformat>
										</timecode>
										<labels>
											<label2>Cerulean</label2>
										</labels>
										<logginginfo>
											<description></description>
											<scene></scene>
											<shottake></shottake>
											<lognote></lognote>
											<good></good>
											<originalvideofilename></originalvideofilename>
											<originalaudiofilename></originalaudiofilename>
										</logginginfo>
									</sequence>
									<bin>
										<name>00_YT and no @s</name>
										<children>
											<clip id="masterclip-88" explodedTracks="true">
												<uuid>19d5470f-a3f6-4c1b-bece-f801171ede05</uuid>
												<masterclipid>masterclip-88</masterclipid>
												<ismasterclip>TRUE</ismasterclip>
												<duration>5844</duration>
												<rate>
													<timebase>30</timebase>
													<ntsc>TRUE</ntsc>
												</rate>
												<name>Tino Car Care</name>
												<media>
													<video>
														<track>
															<clipitem id="clipitem-122">
																<masterclipid>masterclip-88</masterclipid>
																<name>Tino Car Care</name>
																<rate>
																	<timebase>30</timebase>
																	<ntsc>TRUE</ntsc>
																</rate>
																<alphatype>straight</alphatype>
																<pixelaspectratio>square</pixelaspectratio>
																<anamorphic>FALSE</anamorphic>
																<file id="file-88">
																	<name>720/AE Attribution 10-21.aep</name>
																	<pathurl>file://localhost/Volumes/Macintosh%20HD/Users/juesecutler/Desktop/AEP/OSTV%20Credits%20Because%20Adobe/AE%20Attribution%2010-21.aep</pathurl>
																	<rate>
																		<timebase>30</timebase>
																		<ntsc>TRUE</ntsc>
																	</rate>
																	<duration>5844</duration>
																	<timecode>
																		<rate>
																			<timebase>30</timebase>
																			<ntsc>TRUE</ntsc>
																		</rate>
																		<string>00;00;00;00</string>
																		<frame>0</frame>
																		<displayformat>DF</displayformat>
																	</timecode>
																	<media>
																		<video>
																			<samplecharacteristics>
																				<rate>
																					<timebase>30</timebase>
																					<ntsc>TRUE</ntsc>
																				</rate>
																				<width>1280</width>
																				<height>720</height>
																				<anamorphic>FALSE</anamorphic>
																				<pixelaspectratio>square</pixelaspectratio>
																				<fielddominance>lower</fielddominance>
																			</samplecharacteristics>
																		</video>
																	</media>
																</file>
															</clipitem>
														</track>
													</video>
												</media>
												<logginginfo>
													<description></description>
													<scene></scene>
													<shottake></shottake>
													<lognote></lognote>
													<good></good>
													<originalvideofilename></originalvideofilename>
													<originalaudiofilename></originalaudiofilename>
												</logginginfo>
												<colorinfo>
													<lut></lut>
													<lut1></lut1>
													<asc_sop></asc_sop>
													<asc_sat></asc_sat>
													<lut2></lut2>
												</colorinfo>
												<labels>
													<label2>Rose</label2>
												</labels>
											</clip>
										</children>
									</bin>
									<bin>
										<name>00_IG and TT</name>
										<children>
											<clip id="masterclip-89" explodedTracks="true">
												<uuid>163c13a0-5071-4c20-b329-d9f93d8ddd9c</uuid>
												<masterclipid>masterclip-89</masterclipid>
												<ismasterclip>TRUE</ismasterclip>
												<duration>5844</duration>
												<rate>
													<timebase>30</timebase>
													<ntsc>TRUE</ntsc>
												</rate>
												<name>viviannecafe</name>
												<media>
													<video>
														<track>
															<clipitem id="clipitem-123">
																<masterclipid>masterclip-89</masterclipid>
																<name>viviannecafe</name>
																<rate>
																	<timebase>30</timebase>
																	<ntsc>TRUE</ntsc>
																</rate>
																<alphatype>straight</alphatype>
																<pixelaspectratio>square</pixelaspectratio>
																<anamorphic>FALSE</anamorphic>
																<file id="file-89">
																	<name>720/AE Attribution 10-21.aep</name>
																	<pathurl>file://localhost/Volumes/Macintosh%20HD/Users/juesecutler/Desktop/AEP/OSTV%20Credits%20Because%20Adobe/AE%20Attribution%2010-21.aep</pathurl>
																	<rate>
																		<timebase>30</timebase>
																		<ntsc>TRUE</ntsc>
																	</rate>
																	<duration>5844</duration>
																	<timecode>
																		<rate>
																			<timebase>30</timebase>
																			<ntsc>TRUE</ntsc>
																		</rate>
																		<string>00;00;00;00</string>
																		<frame>0</frame>
																		<displayformat>DF</displayformat>
																	</timecode>
																	<media>
																		<video>
																			<samplecharacteristics>
																				<rate>
																					<timebase>30</timebase>
																					<ntsc>TRUE</ntsc>
																				</rate>
																				<width>1280</width>
																				<height>720</height>
																				<anamorphic>FALSE</anamorphic>
																				<pixelaspectratio>square</pixelaspectratio>
																				<fielddominance>lower</fielddominance>
																			</samplecharacteristics>
																		</video>
																	</media>
																</file>
															</clipitem>
														</track>
													</video>
												</media>
												<logginginfo>
													<description></description>
													<scene></scene>
													<shottake></shottake>
													<lognote></lognote>
													<good></good>
													<originalvideofilename></originalvideofilename>
													<originalaudiofilename></originalaudiofilename>
												</logginginfo>
												<colorinfo>
													<lut></lut>
													<lut1></lut1>
													<asc_sop></asc_sop>
													<asc_sat></asc_sat>
													<lut2></lut2>
												</colorinfo>
												<labels>
													<label2>Rose</label2>
												</labels>
											</clip>
										</children>
									</bin>
								</children>
							</bin>
							<bin>
								<name>BugBox</name>
								<children>
									<clip id="masterclip-87" explodedTracks="true">
										<uuid>3b9ac167-70fc-486e-80b8-887b62362907</uuid>
										<masterclipid>masterclip-87</masterclipid>
										<ismasterclip>TRUE</ismasterclip>
										<duration>150</duration>
										<rate>
											<timebase>30</timebase>
											<ntsc>TRUE</ntsc>
										</rate>
										<in>0</in>
										<out>149</out>
										<name>ATM BUG_1080_Top Right.png</name>
										<media>
											<video>
												<track>
													<clipitem id="clipitem-124">
														<masterclipid>masterclip-87</masterclipid>
														<name>ATM BUG_1080_Top Right.png</name>
														<rate>
															<timebase>30</timebase>
															<ntsc>TRUE</ntsc>
														</rate>
														<alphatype>straight</alphatype>
														<file id="file-87"/>
													</clipitem>
												</track>
											</video>
										</media>
										<logginginfo>
											<description></description>
											<scene></scene>
											<shottake></shottake>
											<lognote></lognote>
											<good></good>
											<originalvideofilename></originalvideofilename>
											<originalaudiofilename></originalaudiofilename>
										</logginginfo>
										<colorinfo>
											<lut></lut>
											<lut1></lut1>
											<asc_sop></asc_sop>
											<asc_sat></asc_sat>
											<lut2></lut2>
										</colorinfo>
										<labels>
											<label2>Lavender</label2>
										</labels>
									</clip>
								</children>
							</bin>
						</children>
					</bin>
					<bin>
						<name>zz_Ad raws</name>
						<children>
							<clip id="masterclip-90" explodedTracks="true">
								<uuid>47a004bf-587f-400a-b7d9-f1dd2763caa5</uuid>
								<masterclipid>masterclip-90</masterclipid>
								<ismasterclip>TRUE</ismasterclip>
								<duration>240</duration>
								<rate>
									<timebase>30</timebase>
									<ntsc>FALSE</ntsc>
								</rate>
								<name>ATM_HouseAd_2023_V2.mp4</name>
								<media>
									<video>
										<track>
											<clipitem id="clipitem-125">
												<masterclipid>masterclip-90</masterclipid>
												<name>ATM_HouseAd_2023_V2.mp4</name>
												<rate>
													<timebase>30</timebase>
													<ntsc>FALSE</ntsc>
												</rate>
												<alphatype>none</alphatype>
												<pixelaspectratio>square</pixelaspectratio>
												<anamorphic>FALSE</anamorphic>
												<file id="file-90">
													<name>ATM_HouseAd_2023_V2.mp4</name>
													<pathurl>file://localhost/Volumes/Satisfactum%20Satisfactorum/00_Hub%20World/5_Assets/Graphics/ATM_HouseAd_2023_V2.mp4</pathurl>
													<rate>
														<timebase>30</timebase>
														<ntsc>FALSE</ntsc>
													</rate>
													<duration>240</duration>
													<timecode>
														<rate>
															<timebase>30</timebase>
															<ntsc>FALSE</ntsc>
														</rate>
														<string>00:00:00:00</string>
														<frame>0</frame>
														<displayformat>NDF</displayformat>
													</timecode>
													<media>
														<video>
															<samplecharacteristics>
																<rate>
																	<timebase>30</timebase>
																	<ntsc>FALSE</ntsc>
																</rate>
																<width>1920</width>
																<height>1080</height>
																<anamorphic>FALSE</anamorphic>
																<pixelaspectratio>square</pixelaspectratio>
																<fielddominance>none</fielddominance>
															</samplecharacteristics>
														</video>
														<audio>
															<samplecharacteristics>
																<depth>16</depth>
																<samplerate>48000</samplerate>
															</samplecharacteristics>
															<channelcount>2</channelcount>
														</audio>
													</media>
												</file>
												<link>
													<linkclipref>clipitem-125</linkclipref>
													<mediatype>video</mediatype>
													<trackindex>1</trackindex>
													<clipindex>1</clipindex>
												</link>
												<link>
													<linkclipref>clipitem-126</linkclipref>
													<mediatype>audio</mediatype>
													<trackindex>1</trackindex>
													<clipindex>1</clipindex>
													<groupindex>1</groupindex>
												</link>
												<link>
													<linkclipref>clipitem-127</linkclipref>
													<mediatype>audio</mediatype>
													<trackindex>2</trackindex>
													<clipindex>1</clipindex>
													<groupindex>1</groupindex>
												</link>
											</clipitem>
										</track>
									</video>
									<audio>
										<track>
											<clipitem id="clipitem-126">
												<masterclipid>masterclip-90</masterclipid>
												<name>ATM_HouseAd_2023_V2.mp4</name>
												<rate>
													<timebase>30</timebase>
													<ntsc>FALSE</ntsc>
												</rate>
												<file id="file-90"/>
												<sourcetrack>
													<mediatype>audio</mediatype>
													<trackindex>1</trackindex>
												</sourcetrack>
												<link>
													<linkclipref>clipitem-125</linkclipref>
													<mediatype>video</mediatype>
													<trackindex>1</trackindex>
													<clipindex>1</clipindex>
												</link>
												<link>
													<linkclipref>clipitem-126</linkclipref>
													<mediatype>audio</mediatype>
													<trackindex>1</trackindex>
													<clipindex>1</clipindex>
													<groupindex>1</groupindex>
												</link>
												<link>
													<linkclipref>clipitem-127</linkclipref>
													<mediatype>audio</mediatype>
													<trackindex>2</trackindex>
													<clipindex>1</clipindex>
													<groupindex>1</groupindex>
												</link>
											</clipitem>
										</track>
										<track>
											<clipitem id="clipitem-127">
												<masterclipid>masterclip-90</masterclipid>
												<name>ATM_HouseAd_2023_V2.mp4</name>
												<rate>
													<timebase>30</timebase>
													<ntsc>FALSE</ntsc>
												</rate>
												<file id="file-90"/>
												<sourcetrack>
													<mediatype>audio</mediatype>
													<trackindex>2</trackindex>
												</sourcetrack>
												<link>
													<linkclipref>clipitem-125</linkclipref>
													<mediatype>video</mediatype>
													<trackindex>1</trackindex>
													<clipindex>1</clipindex>
												</link>
												<link>
													<linkclipref>clipitem-126</linkclipref>
													<mediatype>audio</mediatype>
													<trackindex>1</trackindex>
													<clipindex>1</clipindex>
													<groupindex>1</groupindex>
												</link>
												<link>
													<linkclipref>clipitem-127</linkclipref>
													<mediatype>audio</mediatype>
													<trackindex>2</trackindex>
													<clipindex>1</clipindex>
													<groupindex>1</groupindex>
												</link>
											</clipitem>
										</track>
									</audio>
								</media>
								<logginginfo>
									<description></description>
									<scene></scene>
									<shottake></shottake>
									<lognote></lognote>
									<good></good>
									<originalvideofilename></originalvideofilename>
									<originalaudiofilename></originalaudiofilename>
								</logginginfo>
								<colorinfo>
									<lut></lut>
									<lut1></lut1>
									<asc_sop></asc_sop>
									<asc_sat></asc_sat>
									<lut2></lut2>
								</colorinfo>
								<labels>
									<label2>Iris</label2>
								</labels>
							</clip>
							<clip id="masterclip-91" explodedTracks="true">
								<uuid>f699d8c8-449c-4a36-93d3-2e1e86ddb268</uuid>
								<masterclipid>masterclip-91</masterclipid>
								<ismasterclip>TRUE</ismasterclip>
								<duration>300</duration>
								<rate>
									<timebase>30</timebase>
									<ntsc>FALSE</ntsc>
								</rate>
								<name>ATM_YouAreWatching.mp4</name>
								<media>
									<video>
										<track>
											<clipitem id="clipitem-128">
												<masterclipid>masterclip-91</masterclipid>
												<name>ATM_YouAreWatching.mp4</name>
												<rate>
													<timebase>30</timebase>
													<ntsc>FALSE</ntsc>
												</rate>
												<alphatype>none</alphatype>
												<pixelaspectratio>square</pixelaspectratio>
												<anamorphic>FALSE</anamorphic>
												<file id="file-91">
													<name>ATM_YouAreWatching.mp4</name>
													<pathurl>file://localhost/Volumes/Satisfactum%20Satisfactorum/00_Hub%20World/5_Assets/Graphics/ATM_YouAreWatching.mp4</pathurl>
													<rate>
														<timebase>30</timebase>
														<ntsc>FALSE</ntsc>
													</rate>
													<duration>300</duration>
													<timecode>
														<rate>
															<timebase>30</timebase>
															<ntsc>FALSE</ntsc>
														</rate>
														<string>00:00:00:00</string>
														<frame>0</frame>
														<displayformat>NDF</displayformat>
													</timecode>
													<media>
														<video>
															<samplecharacteristics>
																<rate>
																	<timebase>30</timebase>
																	<ntsc>FALSE</ntsc>
																</rate>
																<width>1920</width>
																<height>1080</height>
																<anamorphic>FALSE</anamorphic>
																<pixelaspectratio>square</pixelaspectratio>
																<fielddominance>none</fielddominance>
															</samplecharacteristics>
														</video>
														<audio>
															<samplecharacteristics>
																<depth>16</depth>
																<samplerate>48000</samplerate>
															</samplecharacteristics>
															<channelcount>2</channelcount>
														</audio>
													</media>
												</file>
												<link>
													<linkclipref>clipitem-128</linkclipref>
													<mediatype>video</mediatype>
													<trackindex>1</trackindex>
													<clipindex>1</clipindex>
												</link>
												<link>
													<linkclipref>clipitem-129</linkclipref>
													<mediatype>audio</mediatype>
													<trackindex>1</trackindex>
													<clipindex>1</clipindex>
													<groupindex>1</groupindex>
												</link>
												<link>
													<linkclipref>clipitem-130</linkclipref>
													<mediatype>audio</mediatype>
													<trackindex>2</trackindex>
													<clipindex>1</clipindex>
													<groupindex>1</groupindex>
												</link>
											</clipitem>
										</track>
									</video>
									<audio>
										<track>
											<clipitem id="clipitem-129">
												<masterclipid>masterclip-91</masterclipid>
												<name>ATM_YouAreWatching.mp4</name>
												<rate>
													<timebase>30</timebase>
													<ntsc>FALSE</ntsc>
												</rate>
												<file id="file-91"/>
												<sourcetrack>
													<mediatype>audio</mediatype>
													<trackindex>1</trackindex>
												</sourcetrack>
												<link>
													<linkclipref>clipitem-128</linkclipref>
													<mediatype>video</mediatype>
													<trackindex>1</trackindex>
													<clipindex>1</clipindex>
												</link>
												<link>
													<linkclipref>clipitem-129</linkclipref>
													<mediatype>audio</mediatype>
													<trackindex>1</trackindex>
													<clipindex>1</clipindex>
													<groupindex>1</groupindex>
												</link>
												<link>
													<linkclipref>clipitem-130</linkclipref>
													<mediatype>audio</mediatype>
													<trackindex>2</trackindex>
													<clipindex>1</clipindex>
													<groupindex>1</groupindex>
												</link>
											</clipitem>
										</track>
										<track>
											<clipitem id="clipitem-130">
												<masterclipid>masterclip-91</masterclipid>
												<name>ATM_YouAreWatching.mp4</name>
												<rate>
													<timebase>30</timebase>
													<ntsc>FALSE</ntsc>
												</rate>
												<file id="file-91"/>
												<sourcetrack>
													<mediatype>audio</mediatype>
													<trackindex>2</trackindex>
												</sourcetrack>
												<link>
													<linkclipref>clipitem-128</linkclipref>
													<mediatype>video</mediatype>
													<trackindex>1</trackindex>
													<clipindex>1</clipindex>
												</link>
												<link>
													<linkclipref>clipitem-129</linkclipref>
													<mediatype>audio</mediatype>
													<trackindex>1</trackindex>
													<clipindex>1</clipindex>
													<groupindex>1</groupindex>
												</link>
												<link>
													<linkclipref>clipitem-130</linkclipref>
													<mediatype>audio</mediatype>
													<trackindex>2</trackindex>
													<clipindex>1</clipindex>
													<groupindex>1</groupindex>
												</link>
											</clipitem>
										</track>
									</audio>
								</media>
								<logginginfo>
									<description></description>
									<scene></scene>
									<shottake></shottake>
									<lognote></lognote>
									<good></good>
									<originalvideofilename></originalvideofilename>
									<originalaudiofilename></originalaudiofilename>
								</logginginfo>
								<colorinfo>
									<lut></lut>
									<lut1></lut1>
									<asc_sop></asc_sop>
									<asc_sat></asc_sat>
									<lut2></lut2>
								</colorinfo>
								<labels>
									<label2>Iris</label2>
								</labels>
							</clip>
						</children>
					</bin>
					<sequence id="sequence-2" TL.SQAudioVisibleBase="0" TL.SQVideoVisibleBase="0" TL.SQVisibleBaseTime="0" TL.SQAVDividerPosition="0.5" TL.SQHideShyTracks="0" TL.SQHeaderWidth="236" Monitor.ProgramZoomOut="2025684460800" Monitor.ProgramZoomIn="0" TL.SQTimePerPixel="0.017731411378130349" MZ.EditLine="576345369600" MZ.Sequence.PreviewFrameSizeHeight="1080" MZ.Sequence.PreviewFrameSizeWidth="1920" MZ.Sequence.AudioTimeDisplayFormat="200" MZ.Sequence.PreviewRenderingClassID="1297106761" MZ.Sequence.PreviewRenderingPresetCodec="1297107278" MZ.Sequence.PreviewRenderingPresetPath="EncoderPresets/SequencePreview/795454d9-d3c2-429d-9474-923ab13b7018/I-Frame Only MPEG.epr" MZ.Sequence.PreviewUseMaxRenderQuality="false" MZ.Sequence.PreviewUseMaxBitDepth="false" MZ.Sequence.EditingModeGUID="795454d9-d3c2-429d-9474-923ab13b7018" MZ.Sequence.VideoTimeDisplayFormat="103" MZ.WorkOutPoint="2025684460800" MZ.WorkInPoint="0" explodedTracks="true">
						<uuid>d9c6fcbe-c1e7-4355-ab3f-01251035ef40</uuid>
						<duration>239</duration>
						<rate>
							<timebase>30</timebase>
							<ntsc>TRUE</ntsc>
						</rate>
						<name>01_HouseAd Nest</name>
						<media>
							<video>
								<format>
									<samplecharacteristics>
										<rate>
											<timebase>30</timebase>
											<ntsc>TRUE</ntsc>
										</rate>
										<codec>
											<name>Apple ProRes 422</name>
											<appspecificdata>
												<appname>Final Cut Pro</appname>
												<appmanufacturer>Apple Inc.</appmanufacturer>
												<appversion>7.0</appversion>
												<data>
													<qtcodec>
														<codecname>Apple ProRes 422</codecname>
														<codectypename>Apple ProRes 422</codectypename>
														<codectypecode>apcn</codectypecode>
														<codecvendorcode>appl</codecvendorcode>
														<spatialquality>1024</spatialquality>
														<temporalquality>0</temporalquality>
														<keyframerate>0</keyframerate>
														<datarate>0</datarate>
													</qtcodec>
												</data>
											</appspecificdata>
										</codec>
										<width>1920</width>
										<height>1080</height>
										<anamorphic>FALSE</anamorphic>
										<pixelaspectratio>square</pixelaspectratio>
										<fielddominance>none</fielddominance>
										<colordepth>24</colordepth>
									</samplecharacteristics>
								</format>
								<track TL.SQTrackShy="0" TL.SQTrackExpandedHeight="25" TL.SQTrackExpanded="0" MZ.TrackTargeted="1">
									<clipitem id="clipitem-131">
										<masterclipid>masterclip-90</masterclipid>
										<name>ATM_HouseAd_2023_V2.mp4</name>
										<enabled>TRUE</enabled>
										<duration>239</duration>
										<rate>
											<timebase>30</timebase>
											<ntsc>TRUE</ntsc>
										</rate>
										<start>0</start>
										<end>239</end>
										<in>0</in>
										<out>239</out>
										<pproTicksIn>0</pproTicksIn>
										<pproTicksOut>2025684460800</pproTicksOut>
										<alphatype>none</alphatype>
										<file id="file-90"/>
										<link>
											<linkclipref>clipitem-131</linkclipref>
											<mediatype>video</mediatype>
											<trackindex>1</trackindex>
											<clipindex>1</clipindex>
										</link>
										<link>
											<linkclipref>clipitem-132</linkclipref>
											<mediatype>audio</mediatype>
											<trackindex>1</trackindex>
											<clipindex>1</clipindex>
											<groupindex>1</groupindex>
										</link>
										<link>
											<linkclipref>clipitem-133</linkclipref>
											<mediatype>audio</mediatype>
											<trackindex>2</trackindex>
											<clipindex>1</clipindex>
											<groupindex>1</groupindex>
										</link>
										<logginginfo>
											<description></description>
											<scene></scene>
											<shottake></shottake>
											<lognote></lognote>
											<good></good>
											<originalvideofilename></originalvideofilename>
											<originalaudiofilename></originalaudiofilename>
										</logginginfo>
										<colorinfo>
											<lut></lut>
											<lut1></lut1>
											<asc_sop></asc_sop>
											<asc_sat></asc_sat>
											<lut2></lut2>
										</colorinfo>
										<labels>
											<label2>Iris</label2>
										</labels>
									</clipitem>
									<enabled>TRUE</enabled>
									<locked>FALSE</locked>
								</track>
							</video>
							<audio>
								<numOutputChannels>2</numOutputChannels>
								<format>
									<samplecharacteristics>
										<depth>16</depth>
										<samplerate>44100</samplerate>
									</samplecharacteristics>
								</format>
								<outputs>
									<group>
										<index>1</index>
										<numchannels>1</numchannels>
										<downmix>0</downmix>
										<channel>
											<index>1</index>
										</channel>
									</group>
									<group>
										<index>2</index>
										<numchannels>1</numchannels>
										<downmix>0</downmix>
										<channel>
											<index>2</index>
										</channel>
									</group>
								</outputs>
								<track TL.SQTrackAudioKeyframeStyle="0" TL.SQTrackShy="0" TL.SQTrackExpandedHeight="25" TL.SQTrackExpanded="0" MZ.TrackTargeted="1" PannerCurrentValue="0.5" PannerIsInverted="true" PannerStartKeyframe="-91445760000000000,0.5,0,0,0,0,0,0" PannerName="Balance" currentExplodedTrackIndex="0" totalExplodedTrackCount="2" premiereTrackType="Stereo">
									<clipitem id="clipitem-132" premiereChannelType="stereo">
										<masterclipid>masterclip-90</masterclipid>
										<name>ATM_HouseAd_2023_V2.mp4</name>
										<enabled>TRUE</enabled>
										<duration>239</duration>
										<rate>
											<timebase>30</timebase>
											<ntsc>TRUE</ntsc>
										</rate>
										<start>0</start>
										<end>239</end>
										<in>0</in>
										<out>239</out>
										<pproTicksIn>0</pproTicksIn>
										<pproTicksOut>2025684460800</pproTicksOut>
										<file id="file-90"/>
										<sourcetrack>
											<mediatype>audio</mediatype>
											<trackindex>1</trackindex>
										</sourcetrack>
										<filter>
											<effect>
												<name>Gain</name>
												<effectid>{61756678, 4761696e, 4b657947}</effectid>
												<effecttype>filter</effecttype>
												<mediatype>audio</mediatype>
												<parameter authoringApp="PremierePro">
													<parameterid>Gain(dB)</parameterid>
													<name>Gain(dB)</name>
													<valuemin>-96</valuemin>
													<valuemax>96</valuemax>
													<value>-9</value>
												</parameter>
											</effect>
										</filter>
										<link>
											<linkclipref>clipitem-131</linkclipref>
											<mediatype>video</mediatype>
											<trackindex>1</trackindex>
											<clipindex>1</clipindex>
										</link>
										<link>
											<linkclipref>clipitem-132</linkclipref>
											<mediatype>audio</mediatype>
											<trackindex>1</trackindex>
											<clipindex>1</clipindex>
											<groupindex>1</groupindex>
										</link>
										<link>
											<linkclipref>clipitem-133</linkclipref>
											<mediatype>audio</mediatype>
											<trackindex>2</trackindex>
											<clipindex>1</clipindex>
											<groupindex>1</groupindex>
										</link>
										<logginginfo>
											<description></description>
											<scene></scene>
											<shottake></shottake>
											<lognote></lognote>
											<good></good>
											<originalvideofilename></originalvideofilename>
											<originalaudiofilename></originalaudiofilename>
										</logginginfo>
										<colorinfo>
											<lut></lut>
											<lut1></lut1>
											<asc_sop></asc_sop>
											<asc_sat></asc_sat>
											<lut2></lut2>
										</colorinfo>
										<labels>
											<label2>Iris</label2>
										</labels>
									</clipitem>
									<enabled>TRUE</enabled>
									<locked>FALSE</locked>
									<outputchannelindex>1</outputchannelindex>
								</track>
								<track TL.SQTrackAudioKeyframeStyle="0" TL.SQTrackShy="0" TL.SQTrackExpandedHeight="25" TL.SQTrackExpanded="0" MZ.TrackTargeted="1" PannerCurrentValue="0.5" PannerIsInverted="true" PannerStartKeyframe="-91445760000000000,0.5,0,0,0,0,0,0" PannerName="Balance" currentExplodedTrackIndex="1" totalExplodedTrackCount="2" premiereTrackType="Stereo">
									<clipitem id="clipitem-133" premiereChannelType="stereo">
										<masterclipid>masterclip-90</masterclipid>
										<name>ATM_HouseAd_2023_V2.mp4</name>
										<enabled>TRUE</enabled>
										<duration>239</duration>
										<rate>
											<timebase>30</timebase>
											<ntsc>TRUE</ntsc>
										</rate>
										<start>0</start>
										<end>239</end>
										<in>0</in>
										<out>239</out>
										<pproTicksIn>0</pproTicksIn>
										<pproTicksOut>2025684460800</pproTicksOut>
										<file id="file-90"/>
										<sourcetrack>
											<mediatype>audio</mediatype>
											<trackindex>2</trackindex>
										</sourcetrack>
										<filter>
											<effect>
												<name>Gain</name>
												<effectid>{61756678, 4761696e, 4b657947}</effectid>
												<effecttype>filter</effecttype>
												<mediatype>audio</mediatype>
												<parameter authoringApp="PremierePro">
													<parameterid>Gain(dB)</parameterid>
													<name>Gain(dB)</name>
													<valuemin>-96</valuemin>
													<valuemax>96</valuemax>
													<value>-9</value>
												</parameter>
											</effect>
										</filter>
										<link>
											<linkclipref>clipitem-131</linkclipref>
											<mediatype>video</mediatype>
											<trackindex>1</trackindex>
											<clipindex>1</clipindex>
										</link>
										<link>
											<linkclipref>clipitem-132</linkclipref>
											<mediatype>audio</mediatype>
											<trackindex>1</trackindex>
											<clipindex>1</clipindex>
											<groupindex>1</groupindex>
										</link>
										<link>
											<linkclipref>clipitem-133</linkclipref>
											<mediatype>audio</mediatype>
											<trackindex>2</trackindex>
											<clipindex>1</clipindex>
											<groupindex>1</groupindex>
										</link>
										<logginginfo>
											<description></description>
											<scene></scene>
											<shottake></shottake>
											<lognote></lognote>
											<good></good>
											<originalvideofilename></originalvideofilename>
											<originalaudiofilename></originalaudiofilename>
										</logginginfo>
										<colorinfo>
											<lut></lut>
											<lut1></lut1>
											<asc_sop></asc_sop>
											<asc_sat></asc_sat>
											<lut2></lut2>
										</colorinfo>
										<labels>
											<label2>Iris</label2>
										</labels>
									</clipitem>
									<enabled>TRUE</enabled>
									<locked>FALSE</locked>
									<outputchannelindex>2</outputchannelindex>
								</track>
							</audio>
						</media>
						<timecode>
							<rate>
								<timebase>30</timebase>
								<ntsc>TRUE</ntsc>
							</rate>
							<string>00:00:00:00</string>
							<frame>0</frame>
							<displayformat>NDF</displayformat>
						</timecode>
						<labels>
							<label2>Yellow</label2>
						</labels>
						<logginginfo>
							<description></description>
							<scene></scene>
							<shottake></shottake>
							<lognote></lognote>
							<good></good>
							<originalvideofilename></originalvideofilename>
							<originalaudiofilename></originalaudiofilename>
						</logginginfo>
					</sequence>
					<sequence id="sequence-3" TL.SQAudioVisibleBase="0" TL.SQVideoVisibleBase="0" TL.SQVisibleBaseTime="0" TL.SQAVDividerPosition="0.5" TL.SQHideShyTracks="0" TL.SQHeaderWidth="236" Monitor.ProgramZoomOut="2534224492800" Monitor.ProgramZoomIn="0" TL.SQTimePerPixel="0.28463678643645979" AM.TrackVScrollPosition="0" AM.TrackScrollPosition="0" MZ.EditLine="1330679750400" MZ.Sequence.PreviewFrameSizeHeight="1080" MZ.Sequence.PreviewFrameSizeWidth="1920" MZ.Sequence.AudioTimeDisplayFormat="200" MZ.Sequence.PreviewRenderingClassID="1297106761" MZ.Sequence.PreviewRenderingPresetCodec="1297107278" MZ.Sequence.PreviewRenderingPresetPath="EncoderPresets/SequencePreview/795454d9-d3c2-429d-9474-923ab13b7018/I-Frame Only MPEG.epr" MZ.Sequence.PreviewUseMaxRenderQuality="false" MZ.Sequence.PreviewUseMaxBitDepth="false" MZ.Sequence.EditingModeGUID="795454d9-d3c2-429d-9474-923ab13b7018" MZ.Sequence.VideoTimeDisplayFormat="103" MZ.WorkOutPoint="2534224492800" MZ.WorkInPoint="0" explodedTracks="true">
						<uuid>a78f2528-0564-4ae7-9eec-ad1d0c4b347f</uuid>
						<duration>299</duration>
						<rate>
							<timebase>30</timebase>
							<ntsc>TRUE</ntsc>
						</rate>
						<name>02_TFWnest</name>
						<media>
							<video>
								<format>
									<samplecharacteristics>
										<rate>
											<timebase>30</timebase>
											<ntsc>TRUE</ntsc>
										</rate>
										<codec>
											<name>Apple ProRes 422</name>
											<appspecificdata>
												<appname>Final Cut Pro</appname>
												<appmanufacturer>Apple Inc.</appmanufacturer>
												<appversion>7.0</appversion>
												<data>
													<qtcodec>
														<codecname>Apple ProRes 422</codecname>
														<codectypename>Apple ProRes 422</codectypename>
														<codectypecode>apcn</codectypecode>
														<codecvendorcode>appl</codecvendorcode>
														<spatialquality>1024</spatialquality>
														<temporalquality>0</temporalquality>
														<keyframerate>0</keyframerate>
														<datarate>0</datarate>
													</qtcodec>
												</data>
											</appspecificdata>
										</codec>
										<width>1920</width>
										<height>1080</height>
										<anamorphic>FALSE</anamorphic>
										<pixelaspectratio>square</pixelaspectratio>
										<fielddominance>none</fielddominance>
										<colordepth>24</colordepth>
									</samplecharacteristics>
								</format>
								<track TL.SQTrackShy="0" TL.SQTrackExpandedHeight="25" TL.SQTrackExpanded="0" MZ.TrackTargeted="1">
									<clipitem id="clipitem-134">
										<masterclipid>masterclip-91</masterclipid>
										<name>ATM_YouAreWatching.mp4</name>
										<enabled>TRUE</enabled>
										<duration>299</duration>
										<rate>
											<timebase>30</timebase>
											<ntsc>TRUE</ntsc>
										</rate>
										<start>0</start>
										<end>299</end>
										<in>0</in>
										<out>299</out>
										<pproTicksIn>0</pproTicksIn>
										<pproTicksOut>2534224492800</pproTicksOut>
										<alphatype>none</alphatype>
										<file id="file-91"/>
										<link>
											<linkclipref>clipitem-134</linkclipref>
											<mediatype>video</mediatype>
											<trackindex>1</trackindex>
											<clipindex>1</clipindex>
										</link>
										<link>
											<linkclipref>clipitem-135</linkclipref>
											<mediatype>audio</mediatype>
											<trackindex>1</trackindex>
											<clipindex>1</clipindex>
											<groupindex>1</groupindex>
										</link>
										<link>
											<linkclipref>clipitem-136</linkclipref>
											<mediatype>audio</mediatype>
											<trackindex>2</trackindex>
											<clipindex>1</clipindex>
											<groupindex>1</groupindex>
										</link>
										<logginginfo>
											<description></description>
											<scene></scene>
											<shottake></shottake>
											<lognote></lognote>
											<good></good>
											<originalvideofilename></originalvideofilename>
											<originalaudiofilename></originalaudiofilename>
										</logginginfo>
										<colorinfo>
											<lut></lut>
											<lut1></lut1>
											<asc_sop></asc_sop>
											<asc_sat></asc_sat>
											<lut2></lut2>
										</colorinfo>
										<labels>
											<label2>Iris</label2>
										</labels>
									</clipitem>
									<enabled>TRUE</enabled>
									<locked>FALSE</locked>
								</track>
							</video>
							<audio>
								<numOutputChannels>2</numOutputChannels>
								<format>
									<samplecharacteristics>
										<depth>16</depth>
										<samplerate>44100</samplerate>
									</samplecharacteristics>
								</format>
								<outputs>
									<group>
										<index>1</index>
										<numchannels>1</numchannels>
										<downmix>0</downmix>
										<channel>
											<index>1</index>
										</channel>
									</group>
									<group>
										<index>2</index>
										<numchannels>1</numchannels>
										<downmix>0</downmix>
										<channel>
											<index>2</index>
										</channel>
									</group>
								</outputs>
								<track TL.SQTrackAudioKeyframeStyle="0" TL.SQTrackShy="0" TL.SQTrackExpandedHeight="25" TL.SQTrackExpanded="0" MZ.TrackTargeted="1" PannerCurrentValue="0.5" PannerIsInverted="true" PannerStartKeyframe="-91445760000000000,0.5,0,0,0,0,0,0" PannerName="Balance" currentExplodedTrackIndex="0" totalExplodedTrackCount="2" premiereTrackType="Stereo">
									<clipitem id="clipitem-135" premiereChannelType="stereo">
										<masterclipid>masterclip-91</masterclipid>
										<name>ATM_YouAreWatching.mp4</name>
										<enabled>TRUE</enabled>
										<duration>299</duration>
										<rate>
											<timebase>30</timebase>
											<ntsc>TRUE</ntsc>
										</rate>
										<start>0</start>
										<end>299</end>
										<in>0</in>
										<out>299</out>
										<pproTicksIn>0</pproTicksIn>
										<pproTicksOut>2534224492800</pproTicksOut>
										<file id="file-91"/>
										<sourcetrack>
											<mediatype>audio</mediatype>
											<trackindex>1</trackindex>
										</sourcetrack>
										<link>
											<linkclipref>clipitem-134</linkclipref>
											<mediatype>video</mediatype>
											<trackindex>1</trackindex>
											<clipindex>1</clipindex>
										</link>
										<link>
											<linkclipref>clipitem-135</linkclipref>
											<mediatype>audio</mediatype>
											<trackindex>1</trackindex>
											<clipindex>1</clipindex>
											<groupindex>1</groupindex>
										</link>
										<link>
											<linkclipref>clipitem-136</linkclipref>
											<mediatype>audio</mediatype>
											<trackindex>2</trackindex>
											<clipindex>1</clipindex>
											<groupindex>1</groupindex>
										</link>
										<logginginfo>
											<description></description>
											<scene></scene>
											<shottake></shottake>
											<lognote></lognote>
											<good></good>
											<originalvideofilename></originalvideofilename>
											<originalaudiofilename></originalaudiofilename>
										</logginginfo>
										<colorinfo>
											<lut></lut>
											<lut1></lut1>
											<asc_sop></asc_sop>
											<asc_sat></asc_sat>
											<lut2></lut2>
										</colorinfo>
										<labels>
											<label2>Iris</label2>
										</labels>
									</clipitem>
									<enabled>TRUE</enabled>
									<locked>FALSE</locked>
									<filter>
										<effect>
											<name>Audio Levels</name>
											<effectid>audiolevels</effectid>
											<effectcategory>audiolevels</effectcategory>
											<effecttype>audiolevels</effecttype>
											<mediatype>audio</mediatype>
											<parameter authoringApp="PremierePro">
												<parameterid>level</parameterid>
												<name>Level</name>
												<valuemin>0</valuemin>
												<valuemax>3.98109</valuemax>
												<value>0.706272</value>
											</parameter>
										</effect>
									</filter>
									<outputchannelindex>1</outputchannelindex>
								</track>
								<track TL.SQTrackAudioKeyframeStyle="0" TL.SQTrackShy="0" TL.SQTrackExpandedHeight="25" TL.SQTrackExpanded="0" MZ.TrackTargeted="1" PannerCurrentValue="0.5" PannerIsInverted="true" PannerStartKeyframe="-91445760000000000,0.5,0,0,0,0,0,0" PannerName="Balance" currentExplodedTrackIndex="1" totalExplodedTrackCount="2" premiereTrackType="Stereo">
									<clipitem id="clipitem-136" premiereChannelType="stereo">
										<masterclipid>masterclip-91</masterclipid>
										<name>ATM_YouAreWatching.mp4</name>
										<enabled>TRUE</enabled>
										<duration>299</duration>
										<rate>
											<timebase>30</timebase>
											<ntsc>TRUE</ntsc>
										</rate>
										<start>0</start>
										<end>299</end>
										<in>0</in>
										<out>299</out>
										<pproTicksIn>0</pproTicksIn>
										<pproTicksOut>2534224492800</pproTicksOut>
										<file id="file-91"/>
										<sourcetrack>
											<mediatype>audio</mediatype>
											<trackindex>2</trackindex>
										</sourcetrack>
										<link>
											<linkclipref>clipitem-134</linkclipref>
											<mediatype>video</mediatype>
											<trackindex>1</trackindex>
											<clipindex>1</clipindex>
										</link>
										<link>
											<linkclipref>clipitem-135</linkclipref>
											<mediatype>audio</mediatype>
											<trackindex>1</trackindex>
											<clipindex>1</clipindex>
											<groupindex>1</groupindex>
										</link>
										<link>
											<linkclipref>clipitem-136</linkclipref>
											<mediatype>audio</mediatype>
											<trackindex>2</trackindex>
											<clipindex>1</clipindex>
											<groupindex>1</groupindex>
										</link>
										<logginginfo>
											<description></description>
											<scene></scene>
											<shottake></shottake>
											<lognote></lognote>
											<good></good>
											<originalvideofilename></originalvideofilename>
											<originalaudiofilename></originalaudiofilename>
										</logginginfo>
										<colorinfo>
											<lut></lut>
											<lut1></lut1>
											<asc_sop></asc_sop>
											<asc_sat></asc_sat>
											<lut2></lut2>
										</colorinfo>
										<labels>
											<label2>Iris</label2>
										</labels>
									</clipitem>
									<enabled>TRUE</enabled>
									<locked>FALSE</locked>
									<filter>
										<effect>
											<name>Audio Levels</name>
											<effectid>audiolevels</effectid>
											<effectcategory>audiolevels</effectcategory>
											<effecttype>audiolevels</effecttype>
											<mediatype>audio</mediatype>
											<parameter authoringApp="PremierePro">
												<parameterid>level</parameterid>
												<name>Level</name>
												<valuemin>0</valuemin>
												<valuemax>3.98109</valuemax>
												<value>0.706272</value>
											</parameter>
										</effect>
									</filter>
									<outputchannelindex>2</outputchannelindex>
								</track>
							</audio>
						</media>
						<timecode>
							<rate>
								<timebase>30</timebase>
								<ntsc>TRUE</ntsc>
							</rate>
							<string>00:00:00:00</string>
							<frame>0</frame>
							<displayformat>NDF</displayformat>
						</timecode>
						<labels>
							<label2>Yellow</label2>
						</labels>
						<logginginfo>
							<description></description>
							<scene></scene>
							<shottake></shottake>
							<lognote></lognote>
							<good></good>
							<originalvideofilename></originalvideofilename>
							<originalaudiofilename></originalaudiofilename>
						</logginginfo>
					</sequence>
				</children>
			</bin>
			<bin>
				<name>02_OSTV Transitions</name>
				<labels>
					<label2>Brown</label2>
				</labels>
				<children>
					<bin>
						<name>00_Older transitions</name>
						<children>
							<bin>
								<name>00_Current transition raws</name>
								<children>
									<clip id="masterclip-92" explodedTracks="true">
										<uuid>f9ea2938-b81b-4ae9-9485-4c9520f171df</uuid>
										<masterclipid>masterclip-92</masterclipid>
										<ismasterclip>TRUE</ismasterclip>
										<duration>196</duration>
										<rate>
											<timebase>30</timebase>
											<ntsc>TRUE</ntsc>
										</rate>
										<name>OS2022_Trans03.mov</name>
										<media>
											<video>
												<track>
													<clipitem id="clipitem-137">
														<masterclipid>masterclip-92</masterclipid>
														<name>OS2022_Trans03.mov</name>
														<rate>
															<timebase>30</timebase>
															<ntsc>TRUE</ntsc>
														</rate>
														<alphatype>none</alphatype>
														<pixelaspectratio>square</pixelaspectratio>
														<anamorphic>FALSE</anamorphic>
														<file id="file-92">
															<name>OS2022_Trans03.4.mov</name>
															<pathurl>file://localhost/Volumes/Satisfactum%20Satisfactorum/00_Hub%20World/5_Assets/00_OSTV/00_Lower%20and%20Transitions%2001-22/OS2022_Trans03.4.mov</pathurl>
															<rate>
																<timebase>30</timebase>
																<ntsc>TRUE</ntsc>
															</rate>
															<duration>196</duration>
															<timecode>
																<rate>
																	<timebase>30</timebase>
																	<ntsc>TRUE</ntsc>
																</rate>
																<string>00;00;00;00</string>
																<frame>0</frame>
																<displayformat>DF</displayformat>
															</timecode>
															<media>
																<video>
																	<samplecharacteristics>
																		<rate>
																			<timebase>30</timebase>
																			<ntsc>TRUE</ntsc>
																		</rate>
																		<width>1920</width>
																		<height>1080</height>
																		<anamorphic>FALSE</anamorphic>
																		<pixelaspectratio>square</pixelaspectratio>
																		<fielddominance>none</fielddominance>
																	</samplecharacteristics>
																</video>
																<audio>
																	<samplecharacteristics>
																		<depth>16</depth>
																		<samplerate>48000</samplerate>
																	</samplecharacteristics>
																	<channelcount>2</channelcount>
																</audio>
															</media>
														</file>
														<link>
															<linkclipref>clipitem-137</linkclipref>
															<mediatype>video</mediatype>
															<trackindex>1</trackindex>
															<clipindex>1</clipindex>
														</link>
														<link>
															<linkclipref>clipitem-138</linkclipref>
															<mediatype>audio</mediatype>
															<trackindex>1</trackindex>
															<clipindex>1</clipindex>
															<groupindex>1</groupindex>
														</link>
														<link>
															<linkclipref>clipitem-139</linkclipref>
															<mediatype>audio</mediatype>
															<trackindex>2</trackindex>
															<clipindex>1</clipindex>
															<groupindex>1</groupindex>
														</link>
													</clipitem>
												</track>
											</video>
											<audio>
												<track>
													<clipitem id="clipitem-138">
														<masterclipid>masterclip-92</masterclipid>
														<name>OS2022_Trans03.mov</name>
														<rate>
															<timebase>30</timebase>
															<ntsc>TRUE</ntsc>
														</rate>
														<file id="file-92"/>
														<sourcetrack>
															<mediatype>audio</mediatype>
															<trackindex>1</trackindex>
														</sourcetrack>
														<link>
															<linkclipref>clipitem-137</linkclipref>
															<mediatype>video</mediatype>
															<trackindex>1</trackindex>
															<clipindex>1</clipindex>
														</link>
														<link>
															<linkclipref>clipitem-138</linkclipref>
															<mediatype>audio</mediatype>
															<trackindex>1</trackindex>
															<clipindex>1</clipindex>
															<groupindex>1</groupindex>
														</link>
														<link>
															<linkclipref>clipitem-139</linkclipref>
															<mediatype>audio</mediatype>
															<trackindex>2</trackindex>
															<clipindex>1</clipindex>
															<groupindex>1</groupindex>
														</link>
													</clipitem>
												</track>
												<track>
													<clipitem id="clipitem-139">
														<masterclipid>masterclip-92</masterclipid>
														<name>OS2022_Trans03.mov</name>
														<rate>
															<timebase>30</timebase>
															<ntsc>TRUE</ntsc>
														</rate>
														<file id="file-92"/>
														<sourcetrack>
															<mediatype>audio</mediatype>
															<trackindex>2</trackindex>
														</sourcetrack>
														<link>
															<linkclipref>clipitem-137</linkclipref>
															<mediatype>video</mediatype>
															<trackindex>1</trackindex>
															<clipindex>1</clipindex>
														</link>
														<link>
															<linkclipref>clipitem-138</linkclipref>
															<mediatype>audio</mediatype>
															<trackindex>1</trackindex>
															<clipindex>1</clipindex>
															<groupindex>1</groupindex>
														</link>
														<link>
															<linkclipref>clipitem-139</linkclipref>
															<mediatype>audio</mediatype>
															<trackindex>2</trackindex>
															<clipindex>1</clipindex>
															<groupindex>1</groupindex>
														</link>
													</clipitem>
												</track>
											</audio>
										</media>
										<logginginfo>
											<description></description>
											<scene></scene>
											<shottake></shottake>
											<lognote></lognote>
											<good></good>
											<originalvideofilename></originalvideofilename>
											<originalaudiofilename></originalaudiofilename>
										</logginginfo>
										<colorinfo>
											<lut></lut>
											<lut1></lut1>
											<asc_sop></asc_sop>
											<asc_sat></asc_sat>
											<lut2></lut2>
										</colorinfo>
										<labels>
											<label2>Iris</label2>
										</labels>
									</clip>
									<clip id="masterclip-93" explodedTracks="true">
										<uuid>e6a9cee5-edb3-4950-b105-dfc30dcea519</uuid>
										<masterclipid>masterclip-93</masterclipid>
										<ismasterclip>TRUE</ismasterclip>
										<duration>189</duration>
										<rate>
											<timebase>30</timebase>
											<ntsc>TRUE</ntsc>
										</rate>
										<name>OS2022_Trans01.mov</name>
										<media>
											<video>
												<track>
													<clipitem id="clipitem-140">
														<masterclipid>masterclip-93</masterclipid>
														<name>OS2022_Trans01.mov</name>
														<rate>
															<timebase>30</timebase>
															<ntsc>TRUE</ntsc>
														</rate>
														<alphatype>none</alphatype>
														<pixelaspectratio>square</pixelaspectratio>
														<anamorphic>FALSE</anamorphic>
														<file id="file-93">
															<name>OS2022_Trans01.mov</name>
															<pathurl>file://localhost/Volumes/Satisfactum%20Satisfactorum/00_Hub%20World/5_Assets/00_OSTV/00_Lower%20and%20Transitions%2001-22/OS2022_Trans01.mov</pathurl>
															<rate>
																<timebase>30</timebase>
																<ntsc>TRUE</ntsc>
															</rate>
															<duration>189</duration>
															<timecode>
																<rate>
																	<timebase>30</timebase>
																	<ntsc>TRUE</ntsc>
																</rate>
																<string>00;00;00;00</string>
																<frame>0</frame>
																<displayformat>DF</displayformat>
															</timecode>
															<media>
																<video>
																	<samplecharacteristics>
																		<rate>
																			<timebase>30</timebase>
																			<ntsc>TRUE</ntsc>
																		</rate>
																		<width>1920</width>
																		<height>1080</height>
																		<anamorphic>FALSE</anamorphic>
																		<pixelaspectratio>square</pixelaspectratio>
																		<fielddominance>none</fielddominance>
																	</samplecharacteristics>
																</video>
																<audio>
																	<samplecharacteristics>
																		<depth>16</depth>
																		<samplerate>48000</samplerate>
																	</samplecharacteristics>
																	<channelcount>2</channelcount>
																</audio>
															</media>
														</file>
														<link>
															<linkclipref>clipitem-140</linkclipref>
															<mediatype>video</mediatype>
															<trackindex>1</trackindex>
															<clipindex>1</clipindex>
														</link>
														<link>
															<linkclipref>clipitem-141</linkclipref>
															<mediatype>audio</mediatype>
															<trackindex>1</trackindex>
															<clipindex>1</clipindex>
															<groupindex>1</groupindex>
														</link>
														<link>
															<linkclipref>clipitem-142</linkclipref>
															<mediatype>audio</mediatype>
															<trackindex>2</trackindex>
															<clipindex>1</clipindex>
															<groupindex>1</groupindex>
														</link>
													</clipitem>
												</track>
											</video>
											<audio>
												<track>
													<clipitem id="clipitem-141">
														<masterclipid>masterclip-93</masterclipid>
														<name>OS2022_Trans01.mov</name>
														<rate>
															<timebase>30</timebase>
															<ntsc>TRUE</ntsc>
														</rate>
														<file id="file-93"/>
														<sourcetrack>
															<mediatype>audio</mediatype>
															<trackindex>1</trackindex>
														</sourcetrack>
														<link>
															<linkclipref>clipitem-140</linkclipref>
															<mediatype>video</mediatype>
															<trackindex>1</trackindex>
															<clipindex>1</clipindex>
														</link>
														<link>
															<linkclipref>clipitem-141</linkclipref>
															<mediatype>audio</mediatype>
															<trackindex>1</trackindex>
															<clipindex>1</clipindex>
															<groupindex>1</groupindex>
														</link>
														<link>
															<linkclipref>clipitem-142</linkclipref>
															<mediatype>audio</mediatype>
															<trackindex>2</trackindex>
															<clipindex>1</clipindex>
															<groupindex>1</groupindex>
														</link>
													</clipitem>
												</track>
												<track>
													<clipitem id="clipitem-142">
														<masterclipid>masterclip-93</masterclipid>
														<name>OS2022_Trans01.mov</name>
														<rate>
															<timebase>30</timebase>
															<ntsc>TRUE</ntsc>
														</rate>
														<file id="file-93"/>
														<sourcetrack>
															<mediatype>audio</mediatype>
															<trackindex>2</trackindex>
														</sourcetrack>
														<link>
															<linkclipref>clipitem-140</linkclipref>
															<mediatype>video</mediatype>
															<trackindex>1</trackindex>
															<clipindex>1</clipindex>
														</link>
														<link>
															<linkclipref>clipitem-141</linkclipref>
															<mediatype>audio</mediatype>
															<trackindex>1</trackindex>
															<clipindex>1</clipindex>
															<groupindex>1</groupindex>
														</link>
														<link>
															<linkclipref>clipitem-142</linkclipref>
															<mediatype>audio</mediatype>
															<trackindex>2</trackindex>
															<clipindex>1</clipindex>
															<groupindex>1</groupindex>
														</link>
													</clipitem>
												</track>
											</audio>
										</media>
										<logginginfo>
											<description></description>
											<scene></scene>
											<shottake></shottake>
											<lognote></lognote>
											<good></good>
											<originalvideofilename></originalvideofilename>
											<originalaudiofilename></originalaudiofilename>
										</logginginfo>
										<colorinfo>
											<lut></lut>
											<lut1></lut1>
											<asc_sop></asc_sop>
											<asc_sat></asc_sat>
											<lut2></lut2>
										</colorinfo>
										<labels>
											<label2>Iris</label2>
										</labels>
									</clip>
									<clip id="masterclip-94" explodedTracks="true">
										<uuid>0f6d9d11-fe6f-4c63-a5c1-b42e8bd69940</uuid>
										<masterclipid>masterclip-94</masterclipid>
										<ismasterclip>TRUE</ismasterclip>
										<duration>208</duration>
										<rate>
											<timebase>30</timebase>
											<ntsc>TRUE</ntsc>
										</rate>
										<name>OS2022_Trans04.mov</name>
										<media>
											<video>
												<track>
													<clipitem id="clipitem-143">
														<masterclipid>masterclip-94</masterclipid>
														<name>OS2022_Trans04.mov</name>
														<rate>
															<timebase>30</timebase>
															<ntsc>TRUE</ntsc>
														</rate>
														<alphatype>none</alphatype>
														<pixelaspectratio>square</pixelaspectratio>
														<anamorphic>FALSE</anamorphic>
														<file id="file-94">
															<name>OS2022_Trans04.mov</name>
															<pathurl>file://localhost/Volumes/Satisfactum%20Satisfactorum/00_Hub%20World/5_Assets/00_OSTV/00_Lower%20and%20Transitions%2001-22/OS2022_Trans04.mov</pathurl>
															<rate>
																<timebase>30</timebase>
																<ntsc>TRUE</ntsc>
															</rate>
															<duration>208</duration>
															<timecode>
																<rate>
																	<timebase>30</timebase>
																	<ntsc>TRUE</ntsc>
																</rate>
																<string>00;00;00;00</string>
																<frame>0</frame>
																<displayformat>DF</displayformat>
															</timecode>
															<media>
																<video>
																	<samplecharacteristics>
																		<rate>
																			<timebase>30</timebase>
																			<ntsc>TRUE</ntsc>
																		</rate>
																		<width>1920</width>
																		<height>1080</height>
																		<anamorphic>FALSE</anamorphic>
																		<pixelaspectratio>square</pixelaspectratio>
																		<fielddominance>none</fielddominance>
																	</samplecharacteristics>
																</video>
																<audio>
																	<samplecharacteristics>
																		<depth>16</depth>
																		<samplerate>48000</samplerate>
																	</samplecharacteristics>
																	<channelcount>2</channelcount>
																</audio>
															</media>
														</file>
														<link>
															<linkclipref>clipitem-143</linkclipref>
															<mediatype>video</mediatype>
															<trackindex>1</trackindex>
															<clipindex>1</clipindex>
														</link>
														<link>
															<linkclipref>clipitem-144</linkclipref>
															<mediatype>audio</mediatype>
															<trackindex>1</trackindex>
															<clipindex>1</clipindex>
															<groupindex>1</groupindex>
														</link>
														<link>
															<linkclipref>clipitem-145</linkclipref>
															<mediatype>audio</mediatype>
															<trackindex>2</trackindex>
															<clipindex>1</clipindex>
															<groupindex>1</groupindex>
														</link>
													</clipitem>
												</track>
											</video>
											<audio>
												<track>
													<clipitem id="clipitem-144">
														<masterclipid>masterclip-94</masterclipid>
														<name>OS2022_Trans04.mov</name>
														<rate>
															<timebase>30</timebase>
															<ntsc>TRUE</ntsc>
														</rate>
														<file id="file-94"/>
														<sourcetrack>
															<mediatype>audio</mediatype>
															<trackindex>1</trackindex>
														</sourcetrack>
														<link>
															<linkclipref>clipitem-143</linkclipref>
															<mediatype>video</mediatype>
															<trackindex>1</trackindex>
															<clipindex>1</clipindex>
														</link>
														<link>
															<linkclipref>clipitem-144</linkclipref>
															<mediatype>audio</mediatype>
															<trackindex>1</trackindex>
															<clipindex>1</clipindex>
															<groupindex>1</groupindex>
														</link>
														<link>
															<linkclipref>clipitem-145</linkclipref>
															<mediatype>audio</mediatype>
															<trackindex>2</trackindex>
															<clipindex>1</clipindex>
															<groupindex>1</groupindex>
														</link>
													</clipitem>
												</track>
												<track>
													<clipitem id="clipitem-145">
														<masterclipid>masterclip-94</masterclipid>
														<name>OS2022_Trans04.mov</name>
														<rate>
															<timebase>30</timebase>
															<ntsc>TRUE</ntsc>
														</rate>
														<file id="file-94"/>
														<sourcetrack>
															<mediatype>audio</mediatype>
															<trackindex>2</trackindex>
														</sourcetrack>
														<link>
															<linkclipref>clipitem-143</linkclipref>
															<mediatype>video</mediatype>
															<trackindex>1</trackindex>
															<clipindex>1</clipindex>
														</link>
														<link>
															<linkclipref>clipitem-144</linkclipref>
															<mediatype>audio</mediatype>
															<trackindex>1</trackindex>
															<clipindex>1</clipindex>
															<groupindex>1</groupindex>
														</link>
														<link>
															<linkclipref>clipitem-145</linkclipref>
															<mediatype>audio</mediatype>
															<trackindex>2</trackindex>
															<clipindex>1</clipindex>
															<groupindex>1</groupindex>
														</link>
													</clipitem>
												</track>
											</audio>
										</media>
											<marker>
												<comment></comment>
												<name></name>
												<in>7</in>
												<out>-1</out>
											</marker>
										<logginginfo>
											<description></description>
											<scene></scene>
											<shottake></shottake>
											<lognote></lognote>
											<good></good>
											<originalvideofilename></originalvideofilename>
											<originalaudiofilename></originalaudiofilename>
										</logginginfo>
										<colorinfo>
											<lut></lut>
											<lut1></lut1>
											<asc_sop></asc_sop>
											<asc_sat></asc_sat>
											<lut2></lut2>
										</colorinfo>
										<labels>
											<label2>Iris</label2>
										</labels>
									</clip>
								</children>
							</bin>
							<sequence id="sequence-4" TL.SQAudioVisibleBase="0" TL.SQVideoVisibleBase="0" TL.SQVisibleBaseTime="0" TL.SQAVDividerPosition="0.5" TL.SQHideShyTracks="0" TL.SQHeaderWidth="236" Monitor.ProgramZoomOut="1661230771200" Monitor.ProgramZoomIn="0" TL.SQTimePerPixel="0.010521605524251793" MZ.EditLine="669577708800" MZ.Sequence.PreviewFrameSizeHeight="1080" MZ.Sequence.PreviewFrameSizeWidth="1920" MZ.Sequence.AudioTimeDisplayFormat="200" MZ.Sequence.PreviewRenderingClassID="1297106761" MZ.Sequence.PreviewRenderingPresetCodec="1297107278" MZ.Sequence.PreviewRenderingPresetPath="EncoderPresets/SequencePreview/795454d9-d3c2-429d-9474-923ab13b7018/I-Frame Only MPEG.epr" MZ.Sequence.PreviewUseMaxRenderQuality="false" MZ.Sequence.PreviewUseMaxBitDepth="false" MZ.Sequence.EditingModeGUID="795454d9-d3c2-429d-9474-923ab13b7018" MZ.Sequence.VideoTimeDisplayFormat="103" MZ.WorkOutPoint="1542571430400" MZ.WorkInPoint="0" explodedTracks="true">
								<uuid>c0ab1328-9b14-4fc8-8ba2-9e781ec86d76</uuid>
								<duration>196</duration>
								<rate>
									<timebase>30</timebase>
									<ntsc>TRUE</ntsc>
								</rate>
								<out>196</out>
								<name>OS Trans 03</name>
								<media>
									<video>
										<format>
											<samplecharacteristics>
												<rate>
													<timebase>30</timebase>
													<ntsc>TRUE</ntsc>
												</rate>
												<codec>
													<name>Apple ProRes 422</name>
													<appspecificdata>
														<appname>Final Cut Pro</appname>
														<appmanufacturer>Apple Inc.</appmanufacturer>
														<appversion>7.0</appversion>
														<data>
															<qtcodec>
																<codecname>Apple ProRes 422</codecname>
																<codectypename>Apple ProRes 422</codectypename>
																<codectypecode>apcn</codectypecode>
																<codecvendorcode>appl</codecvendorcode>
																<spatialquality>1024</spatialquality>
																<temporalquality>0</temporalquality>
																<keyframerate>0</keyframerate>
																<datarate>0</datarate>
															</qtcodec>
														</data>
													</appspecificdata>
												</codec>
												<width>1920</width>
												<height>1080</height>
												<anamorphic>FALSE</anamorphic>
												<pixelaspectratio>square</pixelaspectratio>
												<fielddominance>none</fielddominance>
												<colordepth>24</colordepth>
											</samplecharacteristics>
										</format>
										<track TL.SQTrackShy="0" TL.SQTrackExpandedHeight="25" TL.SQTrackExpanded="0" MZ.TrackTargeted="1">
											<clipitem id="clipitem-146">
												<masterclipid>masterclip-92</masterclipid>
												<name>OS2022_Trans03.mov</name>
												<enabled>TRUE</enabled>
												<duration>196</duration>
												<rate>
													<timebase>30</timebase>
													<ntsc>TRUE</ntsc>
												</rate>
												<start>0</start>
												<end>196</end>
												<in>0</in>
												<out>196</out>
												<pproTicksIn>0</pproTicksIn>
												<pproTicksOut>1661230771200</pproTicksOut>
												<alphatype>none</alphatype>
												<file id="file-92"/>
												<link>
													<linkclipref>clipitem-146</linkclipref>
													<mediatype>video</mediatype>
													<trackindex>1</trackindex>
													<clipindex>1</clipindex>
												</link>
												<link>
													<linkclipref>clipitem-147</linkclipref>
													<mediatype>audio</mediatype>
													<trackindex>1</trackindex>
													<clipindex>1</clipindex>
													<groupindex>1</groupindex>
												</link>
												<link>
													<linkclipref>clipitem-148</linkclipref>
													<mediatype>audio</mediatype>
													<trackindex>2</trackindex>
													<clipindex>1</clipindex>
													<groupindex>1</groupindex>
												</link>
												<logginginfo>
													<description></description>
													<scene></scene>
													<shottake></shottake>
													<lognote></lognote>
													<good></good>
													<originalvideofilename></originalvideofilename>
													<originalaudiofilename></originalaudiofilename>
												</logginginfo>
												<colorinfo>
													<lut></lut>
													<lut1></lut1>
													<asc_sop></asc_sop>
													<asc_sat></asc_sat>
													<lut2></lut2>
												</colorinfo>
												<labels>
													<label2>Iris</label2>
												</labels>
											</clipitem>
											<enabled>TRUE</enabled>
											<locked>FALSE</locked>
										</track>
										<track TL.SQTrackShy="0" TL.SQTrackExpandedHeight="25" TL.SQTrackExpanded="0" MZ.TrackTargeted="0">
											<enabled>TRUE</enabled>
											<locked>FALSE</locked>
										</track>
										<track TL.SQTrackShy="0" TL.SQTrackExpandedHeight="25" TL.SQTrackExpanded="0" MZ.TrackTargeted="0">
											<enabled>TRUE</enabled>
											<locked>FALSE</locked>
										</track>
									</video>
									<audio>
										<numOutputChannels>2</numOutputChannels>
										<format>
											<samplecharacteristics>
												<depth>16</depth>
												<samplerate>44100</samplerate>
											</samplecharacteristics>
										</format>
										<outputs>
											<group>
												<index>1</index>
												<numchannels>1</numchannels>
												<downmix>0</downmix>
												<channel>
													<index>1</index>
												</channel>
											</group>
											<group>
												<index>2</index>
												<numchannels>1</numchannels>
												<downmix>0</downmix>
												<channel>
													<index>2</index>
												</channel>
											</group>
										</outputs>
										<track TL.SQTrackAudioKeyframeStyle="0" TL.SQTrackShy="0" TL.SQTrackExpandedHeight="25" TL.SQTrackExpanded="0" MZ.TrackTargeted="1" PannerCurrentValue="0.5" PannerIsInverted="true" PannerStartKeyframe="-91445760000000000,0.5,0,0,0,0,0,0" PannerName="Balance" currentExplodedTrackIndex="0" totalExplodedTrackCount="2" premiereTrackType="Stereo">
											<clipitem id="clipitem-147" premiereChannelType="stereo">
												<masterclipid>masterclip-92</masterclipid>
												<name>OS2022_Trans03.mov</name>
												<enabled>TRUE</enabled>
												<duration>196</duration>
												<rate>
													<timebase>30</timebase>
													<ntsc>TRUE</ntsc>
												</rate>
												<start>0</start>
												<end>196</end>
												<in>0</in>
												<out>196</out>
												<pproTicksIn>0</pproTicksIn>
												<pproTicksOut>1661230771200</pproTicksOut>
												<file id="file-92"/>
												<sourcetrack>
													<mediatype>audio</mediatype>
													<trackindex>1</trackindex>
												</sourcetrack>
												<filter>
													<effect>
														<name>Gain</name>
														<effectid>{61756678, 4761696e, 4b657947}</effectid>
														<effecttype>filter</effecttype>
														<mediatype>audio</mediatype>
														<parameter authoringApp="PremierePro">
															<parameterid>Gain(dB)</parameterid>
															<name>Gain(dB)</name>
															<valuemin>-96</valuemin>
															<valuemax>96</valuemax>
															<value>-8.99973</value>
														</parameter>
													</effect>
												</filter>
												<link>
													<linkclipref>clipitem-146</linkclipref>
													<mediatype>video</mediatype>
													<trackindex>1</trackindex>
													<clipindex>1</clipindex>
												</link>
												<link>
													<linkclipref>clipitem-147</linkclipref>
													<mediatype>audio</mediatype>
													<trackindex>1</trackindex>
													<clipindex>1</clipindex>
													<groupindex>1</groupindex>
												</link>
												<link>
													<linkclipref>clipitem-148</linkclipref>
													<mediatype>audio</mediatype>
													<trackindex>2</trackindex>
													<clipindex>1</clipindex>
													<groupindex>1</groupindex>
												</link>
												<logginginfo>
													<description></description>
													<scene></scene>
													<shottake></shottake>
													<lognote></lognote>
													<good></good>
													<originalvideofilename></originalvideofilename>
													<originalaudiofilename></originalaudiofilename>
												</logginginfo>
												<colorinfo>
													<lut></lut>
													<lut1></lut1>
													<asc_sop></asc_sop>
													<asc_sat></asc_sat>
													<lut2></lut2>
												</colorinfo>
												<labels>
													<label2>Iris</label2>
												</labels>
											</clipitem>
											<enabled>TRUE</enabled>
											<locked>FALSE</locked>
											<outputchannelindex>1</outputchannelindex>
										</track>
										<track TL.SQTrackAudioKeyframeStyle="0" TL.SQTrackShy="0" TL.SQTrackExpandedHeight="25" TL.SQTrackExpanded="0" MZ.TrackTargeted="1" PannerCurrentValue="0.5" PannerIsInverted="true" PannerStartKeyframe="-91445760000000000,0.5,0,0,0,0,0,0" PannerName="Balance" currentExplodedTrackIndex="1" totalExplodedTrackCount="2" premiereTrackType="Stereo">
											<clipitem id="clipitem-148" premiereChannelType="stereo">
												<masterclipid>masterclip-92</masterclipid>
												<name>OS2022_Trans03.mov</name>
												<enabled>TRUE</enabled>
												<duration>196</duration>
												<rate>
													<timebase>30</timebase>
													<ntsc>TRUE</ntsc>
												</rate>
												<start>0</start>
												<end>196</end>
												<in>0</in>
												<out>196</out>
												<pproTicksIn>0</pproTicksIn>
												<pproTicksOut>1661230771200</pproTicksOut>
												<file id="file-92"/>
												<sourcetrack>
													<mediatype>audio</mediatype>
													<trackindex>2</trackindex>
												</sourcetrack>
												<filter>
													<effect>
														<name>Gain</name>
														<effectid>{61756678, 4761696e, 4b657947}</effectid>
														<effecttype>filter</effecttype>
														<mediatype>audio</mediatype>
														<parameter authoringApp="PremierePro">
															<parameterid>Gain(dB)</parameterid>
															<name>Gain(dB)</name>
															<valuemin>-96</valuemin>
															<valuemax>96</valuemax>
															<value>-8.99973</value>
														</parameter>
													</effect>
												</filter>
												<link>
													<linkclipref>clipitem-146</linkclipref>
													<mediatype>video</mediatype>
													<trackindex>1</trackindex>
													<clipindex>1</clipindex>
												</link>
												<link>
													<linkclipref>clipitem-147</linkclipref>
													<mediatype>audio</mediatype>
													<trackindex>1</trackindex>
													<clipindex>1</clipindex>
													<groupindex>1</groupindex>
												</link>
												<link>
													<linkclipref>clipitem-148</linkclipref>
													<mediatype>audio</mediatype>
													<trackindex>2</trackindex>
													<clipindex>1</clipindex>
													<groupindex>1</groupindex>
												</link>
												<logginginfo>
													<description></description>
													<scene></scene>
													<shottake></shottake>
													<lognote></lognote>
													<good></good>
													<originalvideofilename></originalvideofilename>
													<originalaudiofilename></originalaudiofilename>
												</logginginfo>
												<colorinfo>
													<lut></lut>
													<lut1></lut1>
													<asc_sop></asc_sop>
													<asc_sat></asc_sat>
													<lut2></lut2>
												</colorinfo>
												<labels>
													<label2>Iris</label2>
												</labels>
											</clipitem>
											<enabled>TRUE</enabled>
											<locked>FALSE</locked>
											<outputchannelindex>2</outputchannelindex>
										</track>
										<track TL.SQTrackAudioKeyframeStyle="0" TL.SQTrackShy="0" TL.SQTrackExpandedHeight="25" TL.SQTrackExpanded="0" MZ.TrackTargeted="0" PannerCurrentValue="0.5" PannerIsInverted="true" PannerStartKeyframe="-91445760000000000,0.5,0,0,0,0,0,0" PannerName="Balance" currentExplodedTrackIndex="0" totalExplodedTrackCount="2" premiereTrackType="Stereo">
											<enabled>TRUE</enabled>
											<locked>FALSE</locked>
											<outputchannelindex>1</outputchannelindex>
										</track>
										<track TL.SQTrackAudioKeyframeStyle="0" TL.SQTrackShy="0" TL.SQTrackExpandedHeight="25" TL.SQTrackExpanded="0" MZ.TrackTargeted="0" PannerCurrentValue="0.5" PannerIsInverted="true" PannerStartKeyframe="-91445760000000000,0.5,0,0,0,0,0,0" PannerName="Balance" currentExplodedTrackIndex="1" totalExplodedTrackCount="2" premiereTrackType="Stereo">
											<enabled>TRUE</enabled>
											<locked>FALSE</locked>
											<outputchannelindex>2</outputchannelindex>
										</track>
									</audio>
								</media>
								<timecode>
									<rate>
										<timebase>30</timebase>
										<ntsc>TRUE</ntsc>
									</rate>
									<string>00:00:00:00</string>
									<frame>0</frame>
									<displayformat>NDF</displayformat>
								</timecode>
									<marker>
										<comment></comment>
										<name></name>
										<in>50</in>
										<out>-1</out>
									</marker>
									<marker>
										<comment></comment>
										<name></name>
										<in>132</in>
										<out>-1</out>
									</marker>
								<labels>
									<label2>Purple</label2>
								</labels>
								<logginginfo>
									<description></description>
									<scene></scene>
									<shottake></shottake>
									<lognote></lognote>
									<good></good>
									<originalvideofilename></originalvideofilename>
									<originalaudiofilename></originalaudiofilename>
								</logginginfo>
							</sequence>
							<sequence id="sequence-5" TL.SQAudioVisibleBase="0" TL.SQVideoVisibleBase="0" TL.SQVisibleBaseTime="0" TL.SQAVDividerPosition="0.5" TL.SQHideShyTracks="0" TL.SQHeaderWidth="236" Monitor.ProgramZoomOut="1601901100800" Monitor.ProgramZoomIn="0" TL.SQTimePerPixel="0.0028516367485204837" MZ.EditLine="940799059200" MZ.Sequence.PreviewFrameSizeHeight="1080" MZ.Sequence.PreviewFrameSizeWidth="1920" MZ.Sequence.AudioTimeDisplayFormat="200" MZ.Sequence.PreviewRenderingClassID="1297106761" MZ.Sequence.PreviewRenderingPresetCodec="1297107278" MZ.Sequence.PreviewRenderingPresetPath="EncoderPresets/SequencePreview/795454d9-d3c2-429d-9474-923ab13b7018/I-Frame Only MPEG.epr" MZ.Sequence.PreviewUseMaxRenderQuality="false" MZ.Sequence.PreviewUseMaxBitDepth="false" MZ.Sequence.EditingModeGUID="795454d9-d3c2-429d-9474-923ab13b7018" MZ.Sequence.VideoTimeDisplayFormat="103" MZ.WorkOutPoint="1542571430400" MZ.WorkInPoint="0" explodedTracks="true">
								<uuid>806d9027-b93d-4cef-8bc4-b07d4f4a7cad</uuid>
								<duration>189</duration>
								<rate>
									<timebase>30</timebase>
									<ntsc>TRUE</ntsc>
								</rate>
								<out>189</out>
								<name>OS Trans 01</name>
								<media>
									<video>
										<format>
											<samplecharacteristics>
												<rate>
													<timebase>30</timebase>
													<ntsc>TRUE</ntsc>
												</rate>
												<codec>
													<name>Apple ProRes 422</name>
													<appspecificdata>
														<appname>Final Cut Pro</appname>
														<appmanufacturer>Apple Inc.</appmanufacturer>
														<appversion>7.0</appversion>
														<data>
															<qtcodec>
																<codecname>Apple ProRes 422</codecname>
																<codectypename>Apple ProRes 422</codectypename>
																<codectypecode>apcn</codectypecode>
																<codecvendorcode>appl</codecvendorcode>
																<spatialquality>1024</spatialquality>
																<temporalquality>0</temporalquality>
																<keyframerate>0</keyframerate>
																<datarate>0</datarate>
															</qtcodec>
														</data>
													</appspecificdata>
												</codec>
												<width>1920</width>
												<height>1080</height>
												<anamorphic>FALSE</anamorphic>
												<pixelaspectratio>square</pixelaspectratio>
												<fielddominance>none</fielddominance>
												<colordepth>24</colordepth>
											</samplecharacteristics>
										</format>
										<track TL.SQTrackShy="0" TL.SQTrackExpandedHeight="25" TL.SQTrackExpanded="0" MZ.TrackTargeted="1">
											<clipitem id="clipitem-149">
												<masterclipid>masterclip-93</masterclipid>
												<name>OS2022_Trans01.mov</name>
												<enabled>TRUE</enabled>
												<duration>189</duration>
												<rate>
													<timebase>30</timebase>
													<ntsc>TRUE</ntsc>
												</rate>
												<start>0</start>
												<end>189</end>
												<in>0</in>
												<out>189</out>
												<pproTicksIn>0</pproTicksIn>
												<pproTicksOut>1601901100800</pproTicksOut>
												<alphatype>none</alphatype>
												<file id="file-93"/>
												<link>
													<linkclipref>clipitem-149</linkclipref>
													<mediatype>video</mediatype>
													<trackindex>1</trackindex>
													<clipindex>1</clipindex>
												</link>
												<link>
													<linkclipref>clipitem-150</linkclipref>
													<mediatype>audio</mediatype>
													<trackindex>1</trackindex>
													<clipindex>1</clipindex>
													<groupindex>1</groupindex>
												</link>
												<link>
													<linkclipref>clipitem-151</linkclipref>
													<mediatype>audio</mediatype>
													<trackindex>2</trackindex>
													<clipindex>1</clipindex>
													<groupindex>1</groupindex>
												</link>
												<logginginfo>
													<description></description>
													<scene></scene>
													<shottake></shottake>
													<lognote></lognote>
													<good></good>
													<originalvideofilename></originalvideofilename>
													<originalaudiofilename></originalaudiofilename>
												</logginginfo>
												<colorinfo>
													<lut></lut>
													<lut1></lut1>
													<asc_sop></asc_sop>
													<asc_sat></asc_sat>
													<lut2></lut2>
												</colorinfo>
												<labels>
													<label2>Iris</label2>
												</labels>
											</clipitem>
											<enabled>TRUE</enabled>
											<locked>FALSE</locked>
										</track>
									</video>
									<audio>
										<numOutputChannels>2</numOutputChannels>
										<format>
											<samplecharacteristics>
												<depth>16</depth>
												<samplerate>44100</samplerate>
											</samplecharacteristics>
										</format>
										<outputs>
											<group>
												<index>1</index>
												<numchannels>1</numchannels>
												<downmix>0</downmix>
												<channel>
													<index>1</index>
												</channel>
											</group>
											<group>
												<index>2</index>
												<numchannels>1</numchannels>
												<downmix>0</downmix>
												<channel>
													<index>2</index>
												</channel>
											</group>
										</outputs>
										<track TL.SQTrackAudioKeyframeStyle="0" TL.SQTrackShy="0" TL.SQTrackExpandedHeight="25" TL.SQTrackExpanded="0" MZ.TrackTargeted="1" PannerCurrentValue="0.5" PannerIsInverted="true" PannerStartKeyframe="-91445760000000000,0.5,0,0,0,0,0,0" PannerName="Balance" currentExplodedTrackIndex="0" totalExplodedTrackCount="2" premiereTrackType="Stereo">
											<clipitem id="clipitem-150" premiereChannelType="stereo">
												<masterclipid>masterclip-93</masterclipid>
												<name>OS2022_Trans01.mov</name>
												<enabled>TRUE</enabled>
												<duration>189</duration>
												<rate>
													<timebase>30</timebase>
													<ntsc>TRUE</ntsc>
												</rate>
												<start>0</start>
												<end>189</end>
												<in>0</in>
												<out>189</out>
												<pproTicksIn>0</pproTicksIn>
												<pproTicksOut>1601901100800</pproTicksOut>
												<file id="file-93"/>
												<sourcetrack>
													<mediatype>audio</mediatype>
													<trackindex>1</trackindex>
												</sourcetrack>
												<filter>
													<effect>
														<name>Gain</name>
														<effectid>{61756678, 4761696e, 4b657947}</effectid>
														<effecttype>filter</effecttype>
														<mediatype>audio</mediatype>
														<parameter authoringApp="PremierePro">
															<parameterid>Gain(dB)</parameterid>
															<name>Gain(dB)</name>
															<valuemin>-96</valuemin>
															<valuemax>96</valuemax>
															<value>-9</value>
														</parameter>
													</effect>
												</filter>
												<link>
													<linkclipref>clipitem-149</linkclipref>
													<mediatype>video</mediatype>
													<trackindex>1</trackindex>
													<clipindex>1</clipindex>
												</link>
												<link>
													<linkclipref>clipitem-150</linkclipref>
													<mediatype>audio</mediatype>
													<trackindex>1</trackindex>
													<clipindex>1</clipindex>
													<groupindex>1</groupindex>
												</link>
												<link>
													<linkclipref>clipitem-151</linkclipref>
													<mediatype>audio</mediatype>
													<trackindex>2</trackindex>
													<clipindex>1</clipindex>
													<groupindex>1</groupindex>
												</link>
												<logginginfo>
													<description></description>
													<scene></scene>
													<shottake></shottake>
													<lognote></lognote>
													<good></good>
													<originalvideofilename></originalvideofilename>
													<originalaudiofilename></originalaudiofilename>
												</logginginfo>
												<colorinfo>
													<lut></lut>
													<lut1></lut1>
													<asc_sop></asc_sop>
													<asc_sat></asc_sat>
													<lut2></lut2>
												</colorinfo>
												<labels>
													<label2>Iris</label2>
												</labels>
											</clipitem>
											<enabled>TRUE</enabled>
											<locked>FALSE</locked>
											<outputchannelindex>1</outputchannelindex>
										</track>
										<track TL.SQTrackAudioKeyframeStyle="0" TL.SQTrackShy="0" TL.SQTrackExpandedHeight="25" TL.SQTrackExpanded="0" MZ.TrackTargeted="1" PannerCurrentValue="0.5" PannerIsInverted="true" PannerStartKeyframe="-91445760000000000,0.5,0,0,0,0,0,0" PannerName="Balance" currentExplodedTrackIndex="1" totalExplodedTrackCount="2" premiereTrackType="Stereo">
											<clipitem id="clipitem-151" premiereChannelType="stereo">
												<masterclipid>masterclip-93</masterclipid>
												<name>OS2022_Trans01.mov</name>
												<enabled>TRUE</enabled>
												<duration>189</duration>
												<rate>
													<timebase>30</timebase>
													<ntsc>TRUE</ntsc>
												</rate>
												<start>0</start>
												<end>189</end>
												<in>0</in>
												<out>189</out>
												<pproTicksIn>0</pproTicksIn>
												<pproTicksOut>1601901100800</pproTicksOut>
												<file id="file-93"/>
												<sourcetrack>
													<mediatype>audio</mediatype>
													<trackindex>2</trackindex>
												</sourcetrack>
												<filter>
													<effect>
														<name>Gain</name>
														<effectid>{61756678, 4761696e, 4b657947}</effectid>
														<effecttype>filter</effecttype>
														<mediatype>audio</mediatype>
														<parameter authoringApp="PremierePro">
															<parameterid>Gain(dB)</parameterid>
															<name>Gain(dB)</name>
															<valuemin>-96</valuemin>
															<valuemax>96</valuemax>
															<value>-9</value>
														</parameter>
													</effect>
												</filter>
												<link>
													<linkclipref>clipitem-149</linkclipref>
													<mediatype>video</mediatype>
													<trackindex>1</trackindex>
													<clipindex>1</clipindex>
												</link>
												<link>
													<linkclipref>clipitem-150</linkclipref>
													<mediatype>audio</mediatype>
													<trackindex>1</trackindex>
													<clipindex>1</clipindex>
													<groupindex>1</groupindex>
												</link>
												<link>
													<linkclipref>clipitem-151</linkclipref>
													<mediatype>audio</mediatype>
													<trackindex>2</trackindex>
													<clipindex>1</clipindex>
													<groupindex>1</groupindex>
												</link>
												<logginginfo>
													<description></description>
													<scene></scene>
													<shottake></shottake>
													<lognote></lognote>
													<good></good>
													<originalvideofilename></originalvideofilename>
													<originalaudiofilename></originalaudiofilename>
												</logginginfo>
												<colorinfo>
													<lut></lut>
													<lut1></lut1>
													<asc_sop></asc_sop>
													<asc_sat></asc_sat>
													<lut2></lut2>
												</colorinfo>
												<labels>
													<label2>Iris</label2>
												</labels>
											</clipitem>
											<enabled>TRUE</enabled>
											<locked>FALSE</locked>
											<outputchannelindex>2</outputchannelindex>
										</track>
									</audio>
								</media>
								<timecode>
									<rate>
										<timebase>30</timebase>
										<ntsc>TRUE</ntsc>
									</rate>
									<string>00:00:00:00</string>
									<frame>0</frame>
									<displayformat>NDF</displayformat>
								</timecode>
									<marker>
										<comment></comment>
										<name></name>
										<in>133</in>
										<out>-1</out>
									</marker>
									<marker>
										<comment></comment>
										<name></name>
										<in>22</in>
										<out>-1</out>
									</marker>
								<labels>
									<label2>Teal</label2>
								</labels>
								<logginginfo>
									<description></description>
									<scene></scene>
									<shottake></shottake>
									<lognote></lognote>
									<good></good>
									<originalvideofilename></originalvideofilename>
									<originalaudiofilename></originalaudiofilename>
								</logginginfo>
							</sequence>
							<sequence id="sequence-6" TL.SQAudioVisibleBase="0" TL.SQVideoVisibleBase="0" TL.SQVisibleBaseTime="0" TL.SQAVDividerPosition="0.5" TL.SQHideShyTracks="0" TL.SQHeaderWidth="236" Monitor.ProgramZoomOut="1762938777600" Monitor.ProgramZoomIn="0" TL.SQTimePerPixel="0.0052608027621258964" MZ.EditLine="872993721600" MZ.Sequence.PreviewFrameSizeHeight="1080" MZ.Sequence.PreviewFrameSizeWidth="1920" MZ.Sequence.AudioTimeDisplayFormat="200" MZ.Sequence.PreviewRenderingClassID="1297106761" MZ.Sequence.PreviewRenderingPresetCodec="1297107278" MZ.Sequence.PreviewRenderingPresetPath="EncoderPresets/SequencePreview/795454d9-d3c2-429d-9474-923ab13b7018/I-Frame Only MPEG.epr" MZ.Sequence.PreviewUseMaxRenderQuality="false" MZ.Sequence.PreviewUseMaxBitDepth="false" MZ.Sequence.EditingModeGUID="795454d9-d3c2-429d-9474-923ab13b7018" MZ.Sequence.VideoTimeDisplayFormat="103" MZ.WorkOutPoint="1542571430400" MZ.WorkInPoint="0" explodedTracks="true">
								<uuid>581226ed-eb1c-41ea-a817-710535c94214</uuid>
								<duration>208</duration>
								<rate>
									<timebase>30</timebase>
									<ntsc>TRUE</ntsc>
								</rate>
								<out>208</out>
								<name>OS Trans 04</name>
								<media>
									<video>
										<format>
											<samplecharacteristics>
												<rate>
													<timebase>30</timebase>
													<ntsc>TRUE</ntsc>
												</rate>
												<codec>
													<name>Apple ProRes 422</name>
													<appspecificdata>
														<appname>Final Cut Pro</appname>
														<appmanufacturer>Apple Inc.</appmanufacturer>
														<appversion>7.0</appversion>
														<data>
															<qtcodec>
																<codecname>Apple ProRes 422</codecname>
																<codectypename>Apple ProRes 422</codectypename>
																<codectypecode>apcn</codectypecode>
																<codecvendorcode>appl</codecvendorcode>
																<spatialquality>1024</spatialquality>
																<temporalquality>0</temporalquality>
																<keyframerate>0</keyframerate>
																<datarate>0</datarate>
															</qtcodec>
														</data>
													</appspecificdata>
												</codec>
												<width>1920</width>
												<height>1080</height>
												<anamorphic>FALSE</anamorphic>
												<pixelaspectratio>square</pixelaspectratio>
												<fielddominance>none</fielddominance>
												<colordepth>24</colordepth>
											</samplecharacteristics>
										</format>
										<track TL.SQTrackShy="0" TL.SQTrackExpandedHeight="25" TL.SQTrackExpanded="0" MZ.TrackTargeted="1">
											<clipitem id="clipitem-152">
												<masterclipid>masterclip-94</masterclipid>
												<name>OS2022_Trans04.mov</name>
												<enabled>TRUE</enabled>
												<duration>208</duration>
												<rate>
													<timebase>30</timebase>
													<ntsc>TRUE</ntsc>
												</rate>
												<start>0</start>
												<end>208</end>
												<in>0</in>
												<out>208</out>
												<pproTicksIn>0</pproTicksIn>
												<pproTicksOut>1762938777600</pproTicksOut>
												<alphatype>none</alphatype>
												<file id="file-94"/>
													<marker>
														<comment></comment>
														<name></name>
														<in>7</in>
														<out>-1</out>
													</marker>
												<link>
													<linkclipref>clipitem-152</linkclipref>
													<mediatype>video</mediatype>
													<trackindex>1</trackindex>
													<clipindex>1</clipindex>
												</link>
												<link>
													<linkclipref>clipitem-153</linkclipref>
													<mediatype>audio</mediatype>
													<trackindex>1</trackindex>
													<clipindex>1</clipindex>
													<groupindex>1</groupindex>
												</link>
												<link>
													<linkclipref>clipitem-154</linkclipref>
													<mediatype>audio</mediatype>
													<trackindex>2</trackindex>
													<clipindex>1</clipindex>
													<groupindex>1</groupindex>
												</link>
												<logginginfo>
													<description></description>
													<scene></scene>
													<shottake></shottake>
													<lognote></lognote>
													<good></good>
													<originalvideofilename></originalvideofilename>
													<originalaudiofilename></originalaudiofilename>
												</logginginfo>
												<colorinfo>
													<lut></lut>
													<lut1></lut1>
													<asc_sop></asc_sop>
													<asc_sat></asc_sat>
													<lut2></lut2>
												</colorinfo>
												<labels>
													<label2>Iris</label2>
												</labels>
											</clipitem>
											<enabled>TRUE</enabled>
											<locked>FALSE</locked>
										</track>
										<track TL.SQTrackShy="0" TL.SQTrackExpandedHeight="25" TL.SQTrackExpanded="0" MZ.TrackTargeted="0">
											<enabled>TRUE</enabled>
											<locked>FALSE</locked>
										</track>
										<track TL.SQTrackShy="0" TL.SQTrackExpandedHeight="25" TL.SQTrackExpanded="0" MZ.TrackTargeted="0">
											<enabled>TRUE</enabled>
											<locked>FALSE</locked>
										</track>
									</video>
									<audio>
										<numOutputChannels>2</numOutputChannels>
										<format>
											<samplecharacteristics>
												<depth>16</depth>
												<samplerate>44100</samplerate>
											</samplecharacteristics>
										</format>
										<outputs>
											<group>
												<index>1</index>
												<numchannels>1</numchannels>
												<downmix>0</downmix>
												<channel>
													<index>1</index>
												</channel>
											</group>
											<group>
												<index>2</index>
												<numchannels>1</numchannels>
												<downmix>0</downmix>
												<channel>
													<index>2</index>
												</channel>
											</group>
										</outputs>
										<track TL.SQTrackAudioKeyframeStyle="0" TL.SQTrackShy="0" TL.SQTrackExpandedHeight="25" TL.SQTrackExpanded="0" MZ.TrackTargeted="1" PannerCurrentValue="0.5" PannerIsInverted="true" PannerStartKeyframe="-91445760000000000,0.5,0,0,0,0,0,0" PannerName="Balance" currentExplodedTrackIndex="0" totalExplodedTrackCount="2" premiereTrackType="Stereo">
											<clipitem id="clipitem-153" premiereChannelType="stereo">
												<masterclipid>masterclip-94</masterclipid>
												<name>OS2022_Trans04.mov</name>
												<enabled>TRUE</enabled>
												<duration>208</duration>
												<rate>
													<timebase>30</timebase>
													<ntsc>TRUE</ntsc>
												</rate>
												<start>0</start>
												<end>208</end>
												<in>0</in>
												<out>208</out>
												<pproTicksIn>0</pproTicksIn>
												<pproTicksOut>1762938777600</pproTicksOut>
												<file id="file-94"/>
												<sourcetrack>
													<mediatype>audio</mediatype>
													<trackindex>1</trackindex>
												</sourcetrack>
												<filter>
													<effect>
														<name>Gain</name>
														<effectid>{61756678, 4761696e, 4b657947}</effectid>
														<effecttype>filter</effecttype>
														<mediatype>audio</mediatype>
														<parameter authoringApp="PremierePro">
															<parameterid>Gain(dB)</parameterid>
															<name>Gain(dB)</name>
															<valuemin>-96</valuemin>
															<valuemax>96</valuemax>
															<value>-9</value>
														</parameter>
													</effect>
												</filter>
													<marker>
														<comment></comment>
														<name></name>
														<in>7</in>
														<out>-1</out>
													</marker>
												<link>
													<linkclipref>clipitem-152</linkclipref>
													<mediatype>video</mediatype>
													<trackindex>1</trackindex>
													<clipindex>1</clipindex>
												</link>
												<link>
													<linkclipref>clipitem-153</linkclipref>
													<mediatype>audio</mediatype>
													<trackindex>1</trackindex>
													<clipindex>1</clipindex>
													<groupindex>1</groupindex>
												</link>
												<link>
													<linkclipref>clipitem-154</linkclipref>
													<mediatype>audio</mediatype>
													<trackindex>2</trackindex>
													<clipindex>1</clipindex>
													<groupindex>1</groupindex>
												</link>
												<logginginfo>
													<description></description>
													<scene></scene>
													<shottake></shottake>
													<lognote></lognote>
													<good></good>
													<originalvideofilename></originalvideofilename>
													<originalaudiofilename></originalaudiofilename>
												</logginginfo>
												<colorinfo>
													<lut></lut>
													<lut1></lut1>
													<asc_sop></asc_sop>
													<asc_sat></asc_sat>
													<lut2></lut2>
												</colorinfo>
												<labels>
													<label2>Iris</label2>
												</labels>
											</clipitem>
											<enabled>TRUE</enabled>
											<locked>FALSE</locked>
											<outputchannelindex>1</outputchannelindex>
										</track>
										<track TL.SQTrackAudioKeyframeStyle="0" TL.SQTrackShy="0" TL.SQTrackExpandedHeight="25" TL.SQTrackExpanded="0" MZ.TrackTargeted="1" PannerCurrentValue="0.5" PannerIsInverted="true" PannerStartKeyframe="-91445760000000000,0.5,0,0,0,0,0,0" PannerName="Balance" currentExplodedTrackIndex="1" totalExplodedTrackCount="2" premiereTrackType="Stereo">
											<clipitem id="clipitem-154" premiereChannelType="stereo">
												<masterclipid>masterclip-94</masterclipid>
												<name>OS2022_Trans04.mov</name>
												<enabled>TRUE</enabled>
												<duration>208</duration>
												<rate>
													<timebase>30</timebase>
													<ntsc>TRUE</ntsc>
												</rate>
												<start>0</start>
												<end>208</end>
												<in>0</in>
												<out>208</out>
												<pproTicksIn>0</pproTicksIn>
												<pproTicksOut>1762938777600</pproTicksOut>
												<file id="file-94"/>
												<sourcetrack>
													<mediatype>audio</mediatype>
													<trackindex>2</trackindex>
												</sourcetrack>
												<filter>
													<effect>
														<name>Gain</name>
														<effectid>{61756678, 4761696e, 4b657947}</effectid>
														<effecttype>filter</effecttype>
														<mediatype>audio</mediatype>
														<parameter authoringApp="PremierePro">
															<parameterid>Gain(dB)</parameterid>
															<name>Gain(dB)</name>
															<valuemin>-96</valuemin>
															<valuemax>96</valuemax>
															<value>-9</value>
														</parameter>
													</effect>
												</filter>
													<marker>
														<comment></comment>
														<name></name>
														<in>7</in>
														<out>-1</out>
													</marker>
												<link>
													<linkclipref>clipitem-152</linkclipref>
													<mediatype>video</mediatype>
													<trackindex>1</trackindex>
													<clipindex>1</clipindex>
												</link>
												<link>
													<linkclipref>clipitem-153</linkclipref>
													<mediatype>audio</mediatype>
													<trackindex>1</trackindex>
													<clipindex>1</clipindex>
													<groupindex>1</groupindex>
												</link>
												<link>
													<linkclipref>clipitem-154</linkclipref>
													<mediatype>audio</mediatype>
													<trackindex>2</trackindex>
													<clipindex>1</clipindex>
													<groupindex>1</groupindex>
												</link>
												<logginginfo>
													<description></description>
													<scene></scene>
													<shottake></shottake>
													<lognote></lognote>
													<good></good>
													<originalvideofilename></originalvideofilename>
													<originalaudiofilename></originalaudiofilename>
												</logginginfo>
												<colorinfo>
													<lut></lut>
													<lut1></lut1>
													<asc_sop></asc_sop>
													<asc_sat></asc_sat>
													<lut2></lut2>
												</colorinfo>
												<labels>
													<label2>Iris</label2>
												</labels>
											</clipitem>
											<enabled>TRUE</enabled>
											<locked>FALSE</locked>
											<outputchannelindex>2</outputchannelindex>
										</track>
										<track TL.SQTrackAudioKeyframeStyle="0" TL.SQTrackShy="0" TL.SQTrackExpandedHeight="25" TL.SQTrackExpanded="0" MZ.TrackTargeted="0" PannerCurrentValue="0.5" PannerIsInverted="true" PannerStartKeyframe="-91445760000000000,0.5,0,0,0,0,0,0" PannerName="Balance" currentExplodedTrackIndex="0" totalExplodedTrackCount="2" premiereTrackType="Stereo">
											<enabled>TRUE</enabled>
											<locked>FALSE</locked>
											<outputchannelindex>1</outputchannelindex>
										</track>
										<track TL.SQTrackAudioKeyframeStyle="0" TL.SQTrackShy="0" TL.SQTrackExpandedHeight="25" TL.SQTrackExpanded="0" MZ.TrackTargeted="0" PannerCurrentValue="0.5" PannerIsInverted="true" PannerStartKeyframe="-91445760000000000,0.5,0,0,0,0,0,0" PannerName="Balance" currentExplodedTrackIndex="1" totalExplodedTrackCount="2" premiereTrackType="Stereo">
											<enabled>TRUE</enabled>
											<locked>FALSE</locked>
											<outputchannelindex>2</outputchannelindex>
										</track>
									</audio>
								</media>
								<timecode>
									<rate>
										<timebase>30</timebase>
										<ntsc>TRUE</ntsc>
									</rate>
									<string>00:00:00:00</string>
									<frame>0</frame>
									<displayformat>NDF</displayformat>
								</timecode>
									<marker>
										<comment></comment>
										<name></name>
										<in>7</in>
										<out>-1</out>
									</marker>
									<marker>
										<comment></comment>
										<name></name>
										<in>175</in>
										<out>-1</out>
									</marker>
								<labels>
									<label2>Blue</label2>
								</labels>
								<logginginfo>
									<description></description>
									<scene></scene>
									<shottake></shottake>
									<lognote></lognote>
									<good></good>
									<originalvideofilename></originalvideofilename>
									<originalaudiofilename></originalaudiofilename>
								</logginginfo>
							</sequence>
						</children>
					</bin>
					<bin>
						<name>zz_Transition raws 05-23</name>
						<children>
							<clip id="masterclip-95" explodedTracks="true">
								<uuid>14267b73-16fe-49cd-b0a4-d91d9477f281</uuid>
								<masterclipid>masterclip-95</masterclipid>
								<ismasterclip>TRUE</ismasterclip>
								<duration>186</duration>
								<rate>
									<timebase>30</timebase>
									<ntsc>FALSE</ntsc>
								</rate>
								<name># Oddly Transition_Grid_6.26.mov</name>
								<media>
									<video>
										<track>
											<clipitem id="clipitem-155">
												<masterclipid>masterclip-95</masterclipid>
												<name># Oddly Transition_Grid_6.26.mov</name>
												<rate>
													<timebase>30</timebase>
													<ntsc>FALSE</ntsc>
												</rate>
												<alphatype>none</alphatype>
												<pixelaspectratio>square</pixelaspectratio>
												<anamorphic>FALSE</anamorphic>
												<file id="file-95">
													<name># Oddly Transition_Grid_6.26.mov</name>
													<pathurl>file://localhost/Volumes/Satisfactum%20Satisfactorum/00_Hub%20World/5_Assets/00_OSTV/New%20graphics%2005-24-23/Transitions/#%20Oddly%20Transition_Grid_6.26.mov</pathurl>
													<rate>
														<timebase>30</timebase>
														<ntsc>FALSE</ntsc>
													</rate>
													<duration>186</duration>
													<timecode>
														<rate>
															<timebase>30</timebase>
															<ntsc>FALSE</ntsc>
														</rate>
														<string>00:00:00:00</string>
														<frame>0</frame>
														<displayformat>NDF</displayformat>
													</timecode>
													<media>
														<video>
															<samplecharacteristics>
																<rate>
																	<timebase>30</timebase>
																	<ntsc>FALSE</ntsc>
																</rate>
																<width>1920</width>
																<height>1080</height>
																<anamorphic>FALSE</anamorphic>
																<pixelaspectratio>square</pixelaspectratio>
																<fielddominance>none</fielddominance>
															</samplecharacteristics>
														</video>
														<audio>
															<samplecharacteristics>
																<depth>16</depth>
																<samplerate>48000</samplerate>
															</samplecharacteristics>
															<channelcount>2</channelcount>
														</audio>
													</media>
												</file>
												<link>
													<linkclipref>clipitem-155</linkclipref>
													<mediatype>video</mediatype>
													<trackindex>1</trackindex>
													<clipindex>1</clipindex>
												</link>
												<link>
													<linkclipref>clipitem-156</linkclipref>
													<mediatype>audio</mediatype>
													<trackindex>1</trackindex>
													<clipindex>1</clipindex>
													<groupindex>1</groupindex>
												</link>
												<link>
													<linkclipref>clipitem-157</linkclipref>
													<mediatype>audio</mediatype>
													<trackindex>2</trackindex>
													<clipindex>1</clipindex>
													<groupindex>1</groupindex>
												</link>
											</clipitem>
										</track>
									</video>
									<audio>
										<track>
											<clipitem id="clipitem-156">
												<masterclipid>masterclip-95</masterclipid>
												<name># Oddly Transition_Grid_6.26.mov</name>
												<rate>
													<timebase>30</timebase>
													<ntsc>FALSE</ntsc>
												</rate>
												<file id="file-95"/>
												<sourcetrack>
													<mediatype>audio</mediatype>
													<trackindex>1</trackindex>
												</sourcetrack>
												<link>
													<linkclipref>clipitem-155</linkclipref>
													<mediatype>video</mediatype>
													<trackindex>1</trackindex>
													<clipindex>1</clipindex>
												</link>
												<link>
													<linkclipref>clipitem-156</linkclipref>
													<mediatype>audio</mediatype>
													<trackindex>1</trackindex>
													<clipindex>1</clipindex>
													<groupindex>1</groupindex>
												</link>
												<link>
													<linkclipref>clipitem-157</linkclipref>
													<mediatype>audio</mediatype>
													<trackindex>2</trackindex>
													<clipindex>1</clipindex>
													<groupindex>1</groupindex>
												</link>
											</clipitem>
										</track>
										<track>
											<clipitem id="clipitem-157">
												<masterclipid>masterclip-95</masterclipid>
												<name># Oddly Transition_Grid_6.26.mov</name>
												<rate>
													<timebase>30</timebase>
													<ntsc>FALSE</ntsc>
												</rate>
												<file id="file-95"/>
												<sourcetrack>
													<mediatype>audio</mediatype>
													<trackindex>2</trackindex>
												</sourcetrack>
												<link>
													<linkclipref>clipitem-155</linkclipref>
													<mediatype>video</mediatype>
													<trackindex>1</trackindex>
													<clipindex>1</clipindex>
												</link>
												<link>
													<linkclipref>clipitem-156</linkclipref>
													<mediatype>audio</mediatype>
													<trackindex>1</trackindex>
													<clipindex>1</clipindex>
													<groupindex>1</groupindex>
												</link>
												<link>
													<linkclipref>clipitem-157</linkclipref>
													<mediatype>audio</mediatype>
													<trackindex>2</trackindex>
													<clipindex>1</clipindex>
													<groupindex>1</groupindex>
												</link>
											</clipitem>
										</track>
									</audio>
								</media>
									<marker>
										<comment></comment>
										<name></name>
										<in>10</in>
										<out>-1</out>
									</marker>
									<marker>
										<comment></comment>
										<name></name>
										<in>163</in>
										<out>-1</out>
									</marker>
								<logginginfo>
									<description></description>
									<scene></scene>
									<shottake></shottake>
									<lognote></lognote>
									<good></good>
									<originalvideofilename></originalvideofilename>
									<originalaudiofilename></originalaudiofilename>
								</logginginfo>
								<colorinfo>
									<lut></lut>
									<lut1></lut1>
									<asc_sop></asc_sop>
									<asc_sat></asc_sat>
									<lut2></lut2>
								</colorinfo>
								<labels>
									<label2>Iris</label2>
								</labels>
							</clip>
							<clip id="masterclip-96" explodedTracks="true">
								<uuid>45c3f7cf-0d64-4166-9909-aa7376975aad</uuid>
								<masterclipid>masterclip-96</masterclipid>
								<ismasterclip>TRUE</ismasterclip>
								<duration>92</duration>
								<rate>
									<timebase>30</timebase>
									<ntsc>FALSE</ntsc>
								</rate>
								<name># Oddly Transition Quick Grid.mov</name>
								<media>
									<video>
										<track>
											<clipitem id="clipitem-158">
												<masterclipid>masterclip-96</masterclipid>
												<name># Oddly Transition Quick Grid.mov</name>
												<rate>
													<timebase>30</timebase>
													<ntsc>FALSE</ntsc>
												</rate>
												<alphatype>none</alphatype>
												<pixelaspectratio>square</pixelaspectratio>
												<anamorphic>FALSE</anamorphic>
												<file id="file-96">
													<name># Oddly Transition Quick Grid.mov</name>
													<pathurl>file://localhost/Volumes/Satisfactum%20Satisfactorum/00_Hub%20World/5_Assets/00_OSTV/New%20graphics%2005-24-23/Transitions/#%20Oddly%20Transition%20Quick%20Grid.mov</pathurl>
													<rate>
														<timebase>30</timebase>
														<ntsc>FALSE</ntsc>
													</rate>
													<duration>92</duration>
													<timecode>
														<rate>
															<timebase>30</timebase>
															<ntsc>FALSE</ntsc>
														</rate>
														<string>00:00:00:00</string>
														<frame>0</frame>
														<displayformat>NDF</displayformat>
													</timecode>
													<media>
														<video>
															<samplecharacteristics>
																<rate>
																	<timebase>30</timebase>
																	<ntsc>FALSE</ntsc>
																</rate>
																<width>1920</width>
																<height>1080</height>
																<anamorphic>FALSE</anamorphic>
																<pixelaspectratio>square</pixelaspectratio>
																<fielddominance>none</fielddominance>
															</samplecharacteristics>
														</video>
													</media>
												</file>
											</clipitem>
										</track>
									</video>
								</media>
								<logginginfo>
									<description></description>
									<scene></scene>
									<shottake></shottake>
									<lognote></lognote>
									<good></good>
									<originalvideofilename></originalvideofilename>
									<originalaudiofilename></originalaudiofilename>
								</logginginfo>
								<colorinfo>
									<lut></lut>
									<lut1></lut1>
									<asc_sop></asc_sop>
									<asc_sat></asc_sat>
									<lut2></lut2>
								</colorinfo>
								<labels>
									<label2>Violet</label2>
								</labels>
							</clip>
							<clip id="masterclip-97" explodedTracks="true">
								<uuid>24c249f0-0bfb-42f7-9792-c4e1953aecf2</uuid>
								<masterclipid>masterclip-97</masterclipid>
								<ismasterclip>TRUE</ismasterclip>
								<duration>57</duration>
								<rate>
									<timebase>30</timebase>
									<ntsc>FALSE</ntsc>
								</rate>
								<name># Oddly Transition Quick Loop.mov</name>
								<media>
									<video>
										<track>
											<clipitem id="clipitem-159">
												<masterclipid>masterclip-97</masterclipid>
												<name># Oddly Transition Quick Loop.mov</name>
												<rate>
													<timebase>30</timebase>
													<ntsc>FALSE</ntsc>
												</rate>
												<alphatype>none</alphatype>
												<pixelaspectratio>square</pixelaspectratio>
												<anamorphic>FALSE</anamorphic>
												<file id="file-97">
													<name># Oddly Transition Quick Loop.mov</name>
													<pathurl>file://localhost/Volumes/Satisfactum%20Satisfactorum/00_Hub%20World/5_Assets/00_OSTV/New%20graphics%2005-24-23/Transitions/#%20Oddly%20Transition%20Quick%20Loop.mov</pathurl>
													<rate>
														<timebase>30</timebase>
														<ntsc>FALSE</ntsc>
													</rate>
													<duration>57</duration>
													<timecode>
														<rate>
															<timebase>30</timebase>
															<ntsc>FALSE</ntsc>
														</rate>
														<string>00:00:00:00</string>
														<frame>0</frame>
														<displayformat>NDF</displayformat>
													</timecode>
													<media>
														<video>
															<samplecharacteristics>
																<rate>
																	<timebase>30</timebase>
																	<ntsc>FALSE</ntsc>
																</rate>
																<width>1920</width>
																<height>1080</height>
																<anamorphic>FALSE</anamorphic>
																<pixelaspectratio>square</pixelaspectratio>
																<fielddominance>none</fielddominance>
															</samplecharacteristics>
														</video>
													</media>
												</file>
											</clipitem>
										</track>
									</video>
								</media>
								<logginginfo>
									<description></description>
									<scene></scene>
									<shottake></shottake>
									<lognote></lognote>
									<good></good>
									<originalvideofilename></originalvideofilename>
									<originalaudiofilename></originalaudiofilename>
								</logginginfo>
								<colorinfo>
									<lut></lut>
									<lut1></lut1>
									<asc_sop></asc_sop>
									<asc_sat></asc_sat>
									<lut2></lut2>
								</colorinfo>
								<labels>
									<label2>Violet</label2>
								</labels>
							</clip>
							<clip id="masterclip-98" explodedTracks="true">
								<uuid>1d6ba732-8785-4b96-b7b0-e3b274d02d63</uuid>
								<masterclipid>masterclip-98</masterclipid>
								<ismasterclip>TRUE</ismasterclip>
								<duration>181</duration>
								<rate>
									<timebase>30</timebase>
									<ntsc>FALSE</ntsc>
								</rate>
								<name># Oddly Logo Slime Transition.mov</name>
								<media>
									<video>
										<track>
											<clipitem id="clipitem-160">
												<masterclipid>masterclip-98</masterclipid>
												<name># Oddly Logo Slime Transition.mov</name>
												<rate>
													<timebase>30</timebase>
													<ntsc>FALSE</ntsc>
												</rate>
												<alphatype>none</alphatype>
												<pixelaspectratio>square</pixelaspectratio>
												<anamorphic>FALSE</anamorphic>
												<file id="file-98">
													<name># Oddly Logo Slime Transition.mov</name>
													<pathurl>file://localhost/Users/dalecampo/Downloads/05_Motion%20Graphics/Mograph_Oddly%20Satisfying/#%20Oddly%20Logo%20Slime%20Transition.mov</pathurl>
													<rate>
														<timebase>30</timebase>
														<ntsc>FALSE</ntsc>
													</rate>
													<duration>181</duration>
													<timecode>
														<rate>
															<timebase>30</timebase>
															<ntsc>FALSE</ntsc>
														</rate>
														<string>00:00:00:00</string>
														<frame>0</frame>
														<displayformat>NDF</displayformat>
													</timecode>
													<media>
														<video>
															<samplecharacteristics>
																<rate>
																	<timebase>30</timebase>
																	<ntsc>FALSE</ntsc>
																</rate>
																<width>1920</width>
																<height>1080</height>
																<anamorphic>FALSE</anamorphic>
																<pixelaspectratio>square</pixelaspectratio>
																<fielddominance>none</fielddominance>
															</samplecharacteristics>
														</video>
														<audio>
															<samplecharacteristics>
																<depth>16</depth>
																<samplerate>48000</samplerate>
															</samplecharacteristics>
															<channelcount>2</channelcount>
														</audio>
													</media>
												</file>
												<link>
													<linkclipref>clipitem-160</linkclipref>
													<mediatype>video</mediatype>
													<trackindex>1</trackindex>
													<clipindex>1</clipindex>
												</link>
												<link>
													<linkclipref>clipitem-161</linkclipref>
													<mediatype>audio</mediatype>
													<trackindex>1</trackindex>
													<clipindex>1</clipindex>
													<groupindex>1</groupindex>
												</link>
												<link>
													<linkclipref>clipitem-162</linkclipref>
													<mediatype>audio</mediatype>
													<trackindex>2</trackindex>
													<clipindex>1</clipindex>
													<groupindex>1</groupindex>
												</link>
											</clipitem>
										</track>
									</video>
									<audio>
										<track>
											<clipitem id="clipitem-161">
												<masterclipid>masterclip-98</masterclipid>
												<name># Oddly Logo Slime Transition.mov</name>
												<rate>
													<timebase>30</timebase>
													<ntsc>FALSE</ntsc>
												</rate>
												<file id="file-98"/>
												<sourcetrack>
													<mediatype>audio</mediatype>
													<trackindex>1</trackindex>
												</sourcetrack>
												<link>
													<linkclipref>clipitem-160</linkclipref>
													<mediatype>video</mediatype>
													<trackindex>1</trackindex>
													<clipindex>1</clipindex>
												</link>
												<link>
													<linkclipref>clipitem-161</linkclipref>
													<mediatype>audio</mediatype>
													<trackindex>1</trackindex>
													<clipindex>1</clipindex>
													<groupindex>1</groupindex>
												</link>
												<link>
													<linkclipref>clipitem-162</linkclipref>
													<mediatype>audio</mediatype>
													<trackindex>2</trackindex>
													<clipindex>1</clipindex>
													<groupindex>1</groupindex>
												</link>
											</clipitem>
										</track>
										<track>
											<clipitem id="clipitem-162">
												<masterclipid>masterclip-98</masterclipid>
												<name># Oddly Logo Slime Transition.mov</name>
												<rate>
													<timebase>30</timebase>
													<ntsc>FALSE</ntsc>
												</rate>
												<file id="file-98"/>
												<sourcetrack>
													<mediatype>audio</mediatype>
													<trackindex>2</trackindex>
												</sourcetrack>
												<link>
													<linkclipref>clipitem-160</linkclipref>
													<mediatype>video</mediatype>
													<trackindex>1</trackindex>
													<clipindex>1</clipindex>
												</link>
												<link>
													<linkclipref>clipitem-161</linkclipref>
													<mediatype>audio</mediatype>
													<trackindex>1</trackindex>
													<clipindex>1</clipindex>
													<groupindex>1</groupindex>
												</link>
												<link>
													<linkclipref>clipitem-162</linkclipref>
													<mediatype>audio</mediatype>
													<trackindex>2</trackindex>
													<clipindex>1</clipindex>
													<groupindex>1</groupindex>
												</link>
											</clipitem>
										</track>
									</audio>
								</media>
								<logginginfo>
									<description></description>
									<scene></scene>
									<shottake></shottake>
									<lognote></lognote>
									<good></good>
									<originalvideofilename></originalvideofilename>
									<originalaudiofilename></originalaudiofilename>
								</logginginfo>
								<colorinfo>
									<lut></lut>
									<lut1></lut1>
									<asc_sop></asc_sop>
									<asc_sat></asc_sat>
									<lut2></lut2>
								</colorinfo>
								<labels>
									<label2>Iris</label2>
								</labels>
							</clip>
						</children>
					</bin>
					<sequence id="sequence-7" TL.SQAudioVisibleBase="0" TL.SQVideoVisibleBase="0" TL.SQVisibleBaseTime="0" TL.SQAVDividerPosition="0.5" TL.SQHideShyTracks="0" TL.SQHeaderWidth="236" Monitor.ProgramZoomOut="1567998432000" Monitor.ProgramZoomIn="0" TL.SQTimePerPixel="0.014633931210141546" AM.TrackVScrollPosition="0" AM.TrackScrollPosition="0" MZ.EditLine="220367347200" MZ.Sequence.PreviewFrameSizeHeight="1080" MZ.Sequence.PreviewFrameSizeWidth="1920" MZ.Sequence.AudioTimeDisplayFormat="200" MZ.Sequence.PreviewRenderingClassID="1297106761" MZ.Sequence.PreviewRenderingPresetCodec="1297107278" MZ.Sequence.PreviewRenderingPresetPath="EncoderPresets/SequencePreview/795454d9-d3c2-429d-9474-923ab13b7018/I-Frame Only MPEG.epr" MZ.Sequence.PreviewUseMaxRenderQuality="false" MZ.Sequence.PreviewUseMaxBitDepth="false" MZ.Sequence.EditingModeGUID="795454d9-d3c2-429d-9474-923ab13b7018" MZ.Sequence.VideoTimeDisplayFormat="103" MZ.WorkOutPoint="1567998432000" MZ.WorkInPoint="0" explodedTracks="true">
						<uuid>0c0cc70b-827b-4e65-bc8d-44481780cbe2</uuid>
						<duration>185</duration>
						<rate>
							<timebase>30</timebase>
							<ntsc>TRUE</ntsc>
						</rate>
						<out>185</out>
						<name>00_Grid Transition</name>
						<media>
							<video>
								<format>
									<samplecharacteristics>
										<rate>
											<timebase>30</timebase>
											<ntsc>TRUE</ntsc>
										</rate>
										<codec>
											<name>Apple ProRes 422</name>
											<appspecificdata>
												<appname>Final Cut Pro</appname>
												<appmanufacturer>Apple Inc.</appmanufacturer>
												<appversion>7.0</appversion>
												<data>
													<qtcodec>
														<codecname>Apple ProRes 422</codecname>
														<codectypename>Apple ProRes 422</codectypename>
														<codectypecode>apcn</codectypecode>
														<codecvendorcode>appl</codecvendorcode>
														<spatialquality>1024</spatialquality>
														<temporalquality>0</temporalquality>
														<keyframerate>0</keyframerate>
														<datarate>0</datarate>
													</qtcodec>
												</data>
											</appspecificdata>
										</codec>
										<width>1920</width>
										<height>1080</height>
										<anamorphic>FALSE</anamorphic>
										<pixelaspectratio>square</pixelaspectratio>
										<fielddominance>none</fielddominance>
										<colordepth>24</colordepth>
									</samplecharacteristics>
								</format>
								<track TL.SQTrackShy="0" TL.SQTrackExpandedHeight="25" TL.SQTrackExpanded="0" MZ.TrackTargeted="1">
									<clipitem id="clipitem-163">
										<masterclipid>masterclip-95</masterclipid>
										<name># Oddly Transition_Grid_6.26.mov</name>
										<enabled>TRUE</enabled>
										<duration>185</duration>
										<rate>
											<timebase>30</timebase>
											<ntsc>TRUE</ntsc>
										</rate>
										<start>0</start>
										<end>185</end>
										<in>0</in>
										<out>185</out>
										<pproTicksIn>0</pproTicksIn>
										<pproTicksOut>1567998432000</pproTicksOut>
										<alphatype>none</alphatype>
										<file id="file-95"/>
											<marker>
												<comment></comment>
												<name></name>
												<in>10</in>
												<out>-1</out>
											</marker>
											<marker>
												<comment></comment>
												<name></name>
												<in>163</in>
												<out>-1</out>
											</marker>
										<link>
											<linkclipref>clipitem-163</linkclipref>
											<mediatype>video</mediatype>
											<trackindex>1</trackindex>
											<clipindex>1</clipindex>
										</link>
										<link>
											<linkclipref>clipitem-164</linkclipref>
											<mediatype>audio</mediatype>
											<trackindex>1</trackindex>
											<clipindex>1</clipindex>
											<groupindex>1</groupindex>
										</link>
										<link>
											<linkclipref>clipitem-165</linkclipref>
											<mediatype>audio</mediatype>
											<trackindex>2</trackindex>
											<clipindex>1</clipindex>
											<groupindex>1</groupindex>
										</link>
										<logginginfo>
											<description></description>
											<scene></scene>
											<shottake></shottake>
											<lognote></lognote>
											<good></good>
											<originalvideofilename></originalvideofilename>
											<originalaudiofilename></originalaudiofilename>
										</logginginfo>
										<colorinfo>
											<lut></lut>
											<lut1></lut1>
											<asc_sop></asc_sop>
											<asc_sat></asc_sat>
											<lut2></lut2>
										</colorinfo>
										<labels>
											<label2>Iris</label2>
										</labels>
									</clipitem>
									<enabled>TRUE</enabled>
									<locked>FALSE</locked>
								</track>
							</video>
							<audio>
								<numOutputChannels>2</numOutputChannels>
								<format>
									<samplecharacteristics>
										<depth>16</depth>
										<samplerate>44100</samplerate>
									</samplecharacteristics>
								</format>
								<outputs>
									<group>
										<index>1</index>
										<numchannels>1</numchannels>
										<downmix>0</downmix>
										<channel>
											<index>1</index>
										</channel>
									</group>
									<group>
										<index>2</index>
										<numchannels>1</numchannels>
										<downmix>0</downmix>
										<channel>
											<index>2</index>
										</channel>
									</group>
								</outputs>
								<track TL.SQTrackAudioKeyframeStyle="0" TL.SQTrackShy="0" TL.SQTrackExpandedHeight="25" TL.SQTrackExpanded="0" MZ.TrackTargeted="1" PannerCurrentValue="0.5" PannerIsInverted="true" PannerStartKeyframe="-91445760000000000,0.5,0,0,0,0,0,0" PannerName="Balance" currentExplodedTrackIndex="0" totalExplodedTrackCount="2" premiereTrackType="Stereo">
									<clipitem id="clipitem-164" premiereChannelType="stereo">
										<masterclipid>masterclip-95</masterclipid>
										<name># Oddly Transition_Grid_6.26.mov</name>
										<enabled>TRUE</enabled>
										<duration>185</duration>
										<rate>
											<timebase>30</timebase>
											<ntsc>TRUE</ntsc>
										</rate>
										<start>0</start>
										<end>-1</end>
										<in>0</in>
										<out>185</out>
										<pproTicksIn>0</pproTicksIn>
										<pproTicksOut>1567998432000</pproTicksOut>
										<file id="file-95"/>
										<sourcetrack>
											<mediatype>audio</mediatype>
											<trackindex>1</trackindex>
										</sourcetrack>
										<filter>
											<effect>
												<name>Gain</name>
												<effectid>{61756678, 4761696e, 4b657947}</effectid>
												<effecttype>filter</effecttype>
												<mediatype>audio</mediatype>
												<parameter authoringApp="PremierePro">
													<parameterid>Gain(dB)</parameterid>
													<name>Gain(dB)</name>
													<valuemin>-96</valuemin>
													<valuemax>96</valuemax>
													<value>10</value>
												</parameter>
											</effect>
										</filter>
											<marker>
												<comment></comment>
												<name></name>
												<in>10</in>
												<out>-1</out>
											</marker>
											<marker>
												<comment></comment>
												<name></name>
												<in>163</in>
												<out>-1</out>
											</marker>
										<link>
											<linkclipref>clipitem-163</linkclipref>
											<mediatype>video</mediatype>
											<trackindex>1</trackindex>
											<clipindex>1</clipindex>
										</link>
										<link>
											<linkclipref>clipitem-164</linkclipref>
											<mediatype>audio</mediatype>
											<trackindex>1</trackindex>
											<clipindex>1</clipindex>
											<groupindex>1</groupindex>
										</link>
										<link>
											<linkclipref>clipitem-165</linkclipref>
											<mediatype>audio</mediatype>
											<trackindex>2</trackindex>
											<clipindex>1</clipindex>
											<groupindex>1</groupindex>
										</link>
										<logginginfo>
											<description></description>
											<scene></scene>
											<shottake></shottake>
											<lognote></lognote>
											<good></good>
											<originalvideofilename></originalvideofilename>
											<originalaudiofilename></originalaudiofilename>
										</logginginfo>
										<colorinfo>
											<lut></lut>
											<lut1></lut1>
											<asc_sop></asc_sop>
											<asc_sat></asc_sat>
											<lut2></lut2>
										</colorinfo>
										<labels>
											<label2>Iris</label2>
										</labels>
									</clipitem>
									<transitionitem>
										<start>155</start>
										<end>185</end>
										<pproTicksIn>1313728416000</pproTicksIn>
										<pproTicksOut>1567998432000</pproTicksOut>
										<alignment>end-black</alignment>
										<cutPointTicks>254270016000</cutPointTicks>
										<rate>
											<timebase>30</timebase>
											<ntsc>TRUE</ntsc>
										</rate>
										<effect>
											<name>Cross Fade (+3dB)</name>
											<effectid>KGAudioTransCrossFade3dB</effectid>
											<effecttype>transition</effecttype>
											<mediatype>audio</mediatype>
											<wipecode>0</wipecode>
											<wipeaccuracy>100</wipeaccuracy>
											<startratio>0</startratio>
											<endratio>1</endratio>
											<reverse>FALSE</reverse>
										</effect>
									</transitionitem>
									<enabled>TRUE</enabled>
									<locked>FALSE</locked>
									<outputchannelindex>1</outputchannelindex>
								</track>
								<track TL.SQTrackAudioKeyframeStyle="0" TL.SQTrackShy="0" TL.SQTrackExpandedHeight="25" TL.SQTrackExpanded="0" MZ.TrackTargeted="1" PannerCurrentValue="0.5" PannerIsInverted="true" PannerStartKeyframe="-91445760000000000,0.5,0,0,0,0,0,0" PannerName="Balance" currentExplodedTrackIndex="1" totalExplodedTrackCount="2" premiereTrackType="Stereo">
									<clipitem id="clipitem-165" premiereChannelType="stereo">
										<masterclipid>masterclip-95</masterclipid>
										<name># Oddly Transition_Grid_6.26.mov</name>
										<enabled>TRUE</enabled>
										<duration>185</duration>
										<rate>
											<timebase>30</timebase>
											<ntsc>TRUE</ntsc>
										</rate>
										<start>0</start>
										<end>-1</end>
										<in>0</in>
										<out>185</out>
										<pproTicksIn>0</pproTicksIn>
										<pproTicksOut>1567998432000</pproTicksOut>
										<file id="file-95"/>
										<sourcetrack>
											<mediatype>audio</mediatype>
											<trackindex>2</trackindex>
										</sourcetrack>
										<filter>
											<effect>
												<name>Gain</name>
												<effectid>{61756678, 4761696e, 4b657947}</effectid>
												<effecttype>filter</effecttype>
												<mediatype>audio</mediatype>
												<parameter authoringApp="PremierePro">
													<parameterid>Gain(dB)</parameterid>
													<name>Gain(dB)</name>
													<valuemin>-96</valuemin>
													<valuemax>96</valuemax>
													<value>10</value>
												</parameter>
											</effect>
										</filter>
											<marker>
												<comment></comment>
												<name></name>
												<in>10</in>
												<out>-1</out>
											</marker>
											<marker>
												<comment></comment>
												<name></name>
												<in>163</in>
												<out>-1</out>
											</marker>
										<link>
											<linkclipref>clipitem-163</linkclipref>
											<mediatype>video</mediatype>
											<trackindex>1</trackindex>
											<clipindex>1</clipindex>
										</link>
										<link>
											<linkclipref>clipitem-164</linkclipref>
											<mediatype>audio</mediatype>
											<trackindex>1</trackindex>
											<clipindex>1</clipindex>
											<groupindex>1</groupindex>
										</link>
										<link>
											<linkclipref>clipitem-165</linkclipref>
											<mediatype>audio</mediatype>
											<trackindex>2</trackindex>
											<clipindex>1</clipindex>
											<groupindex>1</groupindex>
										</link>
										<logginginfo>
											<description></description>
											<scene></scene>
											<shottake></shottake>
											<lognote></lognote>
											<good></good>
											<originalvideofilename></originalvideofilename>
											<originalaudiofilename></originalaudiofilename>
										</logginginfo>
										<colorinfo>
											<lut></lut>
											<lut1></lut1>
											<asc_sop></asc_sop>
											<asc_sat></asc_sat>
											<lut2></lut2>
										</colorinfo>
										<labels>
											<label2>Iris</label2>
										</labels>
									</clipitem>
									<transitionitem>
										<start>155</start>
										<end>185</end>
										<pproTicksIn>1313728416000</pproTicksIn>
										<pproTicksOut>1567998432000</pproTicksOut>
										<alignment>end-black</alignment>
										<cutPointTicks>254270016000</cutPointTicks>
										<rate>
											<timebase>30</timebase>
											<ntsc>TRUE</ntsc>
										</rate>
										<effect>
											<name>Cross Fade (+3dB)</name>
											<effectid>KGAudioTransCrossFade3dB</effectid>
											<effecttype>transition</effecttype>
											<mediatype>audio</mediatype>
											<wipecode>0</wipecode>
											<wipeaccuracy>100</wipeaccuracy>
											<startratio>0</startratio>
											<endratio>1</endratio>
											<reverse>FALSE</reverse>
										</effect>
									</transitionitem>
									<enabled>TRUE</enabled>
									<locked>FALSE</locked>
									<outputchannelindex>2</outputchannelindex>
								</track>
							</audio>
						</media>
						<timecode>
							<rate>
								<timebase>30</timebase>
								<ntsc>TRUE</ntsc>
							</rate>
							<string>00:00:00:00</string>
							<frame>0</frame>
							<displayformat>NDF</displayformat>
						</timecode>
							<marker>
								<comment></comment>
								<name></name>
								<in>10</in>
								<out>-1</out>
							</marker>
							<marker>
								<comment></comment>
								<name></name>
								<in>163</in>
								<out>-1</out>
							</marker>
						<labels>
							<label2>Violet</label2>
						</labels>
						<logginginfo>
							<description></description>
							<scene></scene>
							<shottake></shottake>
							<lognote></lognote>
							<good></good>
							<originalvideofilename></originalvideofilename>
							<originalaudiofilename></originalaudiofilename>
						</logginginfo>
					</sequence>
					<bin>
						<name>00_Quick</name>
						<children>
							<sequence id="sequence-8" TL.SQAudioVisibleBase="0" TL.SQVideoVisibleBase="0" TL.SQVisibleBaseTime="0" TL.SQAVDividerPosition="0.5" TL.SQHideShyTracks="0" TL.SQHeaderWidth="236" Monitor.ProgramZoomOut="771285715200" Monitor.ProgramZoomIn="0" TL.SQTimePerPixel="0.0073169656050707729" AM.TrackVScrollPosition="0" AM.TrackScrollPosition="0" MZ.EditLine="177989011200" MZ.Sequence.PreviewFrameSizeHeight="1080" MZ.Sequence.PreviewFrameSizeWidth="1920" MZ.Sequence.AudioTimeDisplayFormat="200" MZ.Sequence.PreviewRenderingClassID="1297106761" MZ.Sequence.PreviewRenderingPresetCodec="1297107278" MZ.Sequence.PreviewRenderingPresetPath="EncoderPresets/SequencePreview/795454d9-d3c2-429d-9474-923ab13b7018/I-Frame Only MPEG.epr" MZ.Sequence.PreviewUseMaxRenderQuality="false" MZ.Sequence.PreviewUseMaxBitDepth="false" MZ.Sequence.EditingModeGUID="795454d9-d3c2-429d-9474-923ab13b7018" MZ.Sequence.VideoTimeDisplayFormat="103" MZ.WorkOutPoint="771285715200" MZ.WorkInPoint="0" explodedTracks="true">
								<uuid>23d96494-acec-48f3-851c-f5d0ae7403e5</uuid>
								<duration>91</duration>
								<rate>
									<timebase>30</timebase>
									<ntsc>TRUE</ntsc>
								</rate>
								<name>00_Quick Grid Transition</name>
								<media>
									<video>
										<format>
											<samplecharacteristics>
												<rate>
													<timebase>30</timebase>
													<ntsc>TRUE</ntsc>
												</rate>
												<codec>
													<name>Apple ProRes 422</name>
													<appspecificdata>
														<appname>Final Cut Pro</appname>
														<appmanufacturer>Apple Inc.</appmanufacturer>
														<appversion>7.0</appversion>
														<data>
															<qtcodec>
																<codecname>Apple ProRes 422</codecname>
																<codectypename>Apple ProRes 422</codectypename>
																<codectypecode>apcn</codectypecode>
																<codecvendorcode>appl</codecvendorcode>
																<spatialquality>1024</spatialquality>
																<temporalquality>0</temporalquality>
																<keyframerate>0</keyframerate>
																<datarate>0</datarate>
															</qtcodec>
														</data>
													</appspecificdata>
												</codec>
												<width>1920</width>
												<height>1080</height>
												<anamorphic>FALSE</anamorphic>
												<pixelaspectratio>square</pixelaspectratio>
												<fielddominance>none</fielddominance>
												<colordepth>24</colordepth>
											</samplecharacteristics>
										</format>
										<track TL.SQTrackShy="0" TL.SQTrackExpandedHeight="25" TL.SQTrackExpanded="0" MZ.TrackTargeted="1">
											<clipitem id="clipitem-166">
												<masterclipid>masterclip-96</masterclipid>
												<name># Oddly Transition Quick Grid.mov</name>
												<enabled>TRUE</enabled>
												<duration>91</duration>
												<rate>
													<timebase>30</timebase>
													<ntsc>TRUE</ntsc>
												</rate>
												<start>0</start>
												<end>91</end>
												<in>0</in>
												<out>91</out>
												<pproTicksIn>0</pproTicksIn>
												<pproTicksOut>771285715200</pproTicksOut>
												<alphatype>none</alphatype>
												<file id="file-96"/>
												<logginginfo>
													<description></description>
													<scene></scene>
													<shottake></shottake>
													<lognote></lognote>
													<good></good>
													<originalvideofilename></originalvideofilename>
													<originalaudiofilename></originalaudiofilename>
												</logginginfo>
												<colorinfo>
													<lut></lut>
													<lut1></lut1>
													<asc_sop></asc_sop>
													<asc_sat></asc_sat>
													<lut2></lut2>
												</colorinfo>
												<labels>
													<label2>Violet</label2>
												</labels>
											</clipitem>
											<enabled>TRUE</enabled>
											<locked>FALSE</locked>
										</track>
									</video>
									<audio>
										<numOutputChannels>2</numOutputChannels>
										<format>
											<samplecharacteristics>
												<depth>16</depth>
												<samplerate>44100</samplerate>
											</samplecharacteristics>
										</format>
										<outputs>
											<group>
												<index>1</index>
												<numchannels>1</numchannels>
												<downmix>0</downmix>
												<channel>
													<index>1</index>
												</channel>
											</group>
											<group>
												<index>2</index>
												<numchannels>1</numchannels>
												<downmix>0</downmix>
												<channel>
													<index>2</index>
												</channel>
											</group>
										</outputs>
										<track TL.SQTrackAudioKeyframeStyle="0" TL.SQTrackShy="0" TL.SQTrackExpandedHeight="25" TL.SQTrackExpanded="0" MZ.TrackTargeted="1" PannerCurrentValue="0.5" PannerIsInverted="true" PannerStartKeyframe="-91445760000000000,0.5,0,0,0,0,0,0" PannerName="Balance" currentExplodedTrackIndex="0" totalExplodedTrackCount="2" premiereTrackType="Stereo">
											<clipitem id="clipitem-167" premiereChannelType="stereo">
												<masterclipid>masterclip-99</masterclipid>
												<name>Callum Donaldson - Its the 80s - Pulsing Retro Transition.wav</name>
												<enabled>TRUE</enabled>
												<duration>113</duration>
												<rate>
													<timebase>30</timebase>
													<ntsc>TRUE</ntsc>
												</rate>
												<start>0</start>
												<end>91</end>
												<in>5</in>
												<out>95</out>
												<pproTicksIn>110183673600</pproTicksIn>
												<pproTicksOut>2133924174033</pproTicksOut>
												<file id="file-99">
													<name>Callum Donaldson - Its the 80s - Pulsing Retro Transition.wav</name>
													<pathurl>file://localhost/Volumes/Satisfactum%20Satisfactorum/00_Hub%20World/5_Assets/00_OSTV/New%20graphics%2005-24-23/Transitions/Callum%20Donaldson%20-%20Its%20the%2080s%20-%20Pulsing%20Retro%20Transition.wav</pathurl>
													<rate>
														<timebase>30</timebase>
														<ntsc>TRUE</ntsc>
													</rate>
													<duration>299</duration>
													<timecode>
														<rate>
															<timebase>30</timebase>
															<ntsc>TRUE</ntsc>
														</rate>
														<string>00;00;00;00</string>
														<frame>0</frame>
														<displayformat>DF</displayformat>
													</timecode>
													<media>
														<audio>
															<samplecharacteristics>
																<depth>16</depth>
																<samplerate>96000</samplerate>
															</samplecharacteristics>
															<channelcount>2</channelcount>
														</audio>
													</media>
												</file>
												<sourcetrack>
													<mediatype>audio</mediatype>
													<trackindex>1</trackindex>
												</sourcetrack>
												<filter>
													<effect>
														<name>Time Remap</name>
														<effectid>timeremap</effectid>
														<effectcategory>motion</effectcategory>
														<effecttype>motion</effecttype>
														<mediatype>audio</mediatype>
														<parameter authoringApp="PremierePro">
															<parameterid>variablespeed</parameterid>
															<name>variablespeed</name>
															<valuemin>0</valuemin>
															<valuemax>1</valuemax>
															<value>0</value>
														</parameter>
														<parameter authoringApp="PremierePro">
															<parameterid>speed</parameterid>
															<name>speed</name>
															<valuemin>-100000</valuemin>
															<valuemax>100000</valuemax>
															<value>262.385</value>
														</parameter>
														<parameter authoringApp="PremierePro">
															<parameterid>reverse</parameterid>
															<name>reverse</name>
															<value>FALSE</value>
														</parameter>
														<parameter authoringApp="PremierePro">
															<parameterid>frameblending</parameterid>
															<name>frameblending</name>
															<value>FALSE</value>
														</parameter>
														<parameter authoringApp="PremierePro">
															<parameterid>graphdict</parameterid>
															<name>graphdict</name>
															<valuemin>0</valuemin>
															<valuemax>296</valuemax>
															<value>0</value>
															<keyframe>
																<when>0</when>
																<value>0</value>
																<speedvirtualkf>TRUE</speedvirtualkf>
																<speedkfstart>TRUE</speedkfstart>
															</keyframe>
															<keyframe>
																<when>5</when>
																<value>13</value>
																<speedvirtualkf>TRUE</speedvirtualkf>
																<speedkfin>TRUE</speedkfin>
															</keyframe>
															<keyframe>
																<when>95</when>
																<value>249</value>
																<speedvirtualkf>TRUE</speedvirtualkf>
																<speedkfout>TRUE</speedkfout>
															</keyframe>
															<keyframe>
																<when>113</when>
																<value>296</value>
																<speedvirtualkf>TRUE</speedvirtualkf>
																<speedkfend>TRUE</speedkfend>
															</keyframe>
															<interpolation>
																<name>FCPCurve</name>
															</interpolation>
														</parameter>
													</effect>
												</filter>
												<link>
													<linkclipref>clipitem-167</linkclipref>
													<mediatype>audio</mediatype>
													<trackindex>1</trackindex>
													<clipindex>1</clipindex>
													<groupindex>1</groupindex>
												</link>
												<link>
													<linkclipref>clipitem-168</linkclipref>
													<mediatype>audio</mediatype>
													<trackindex>2</trackindex>
													<clipindex>1</clipindex>
													<groupindex>1</groupindex>
												</link>
												<logginginfo>
													<description></description>
													<scene></scene>
													<shottake></shottake>
													<lognote></lognote>
													<good></good>
													<originalvideofilename></originalvideofilename>
													<originalaudiofilename></originalaudiofilename>
												</logginginfo>
												<colorinfo>
													<lut></lut>
													<lut1></lut1>
													<asc_sop></asc_sop>
													<asc_sat></asc_sat>
													<lut2></lut2>
												</colorinfo>
												<labels>
													<label2>Caribbean</label2>
												</labels>
											</clipitem>
											<enabled>TRUE</enabled>
											<locked>FALSE</locked>
											<filter>
												<effect>
													<name>Audio Levels</name>
													<effectid>audiolevels</effectid>
													<effectcategory>audiolevels</effectcategory>
													<effecttype>audiolevels</effecttype>
													<mediatype>audio</mediatype>
													<parameter authoringApp="PremierePro">
														<parameterid>level</parameterid>
														<name>Level</name>
														<valuemin>0</valuemin>
														<valuemax>3.98109</valuemax>
														<value>0.706272</value>
													</parameter>
												</effect>
											</filter>
											<outputchannelindex>1</outputchannelindex>
										</track>
										<track TL.SQTrackAudioKeyframeStyle="0" TL.SQTrackShy="0" TL.SQTrackExpandedHeight="25" TL.SQTrackExpanded="0" MZ.TrackTargeted="1" PannerCurrentValue="0.5" PannerIsInverted="true" PannerStartKeyframe="-91445760000000000,0.5,0,0,0,0,0,0" PannerName="Balance" currentExplodedTrackIndex="1" totalExplodedTrackCount="2" premiereTrackType="Stereo">
											<clipitem id="clipitem-168" premiereChannelType="stereo">
												<masterclipid>masterclip-99</masterclipid>
												<name>Callum Donaldson - Its the 80s - Pulsing Retro Transition.wav</name>
												<enabled>TRUE</enabled>
												<duration>113</duration>
												<rate>
													<timebase>30</timebase>
													<ntsc>TRUE</ntsc>
												</rate>
												<start>0</start>
												<end>91</end>
												<in>5</in>
												<out>95</out>
												<pproTicksIn>110183673600</pproTicksIn>
												<pproTicksOut>2133924174033</pproTicksOut>
												<file id="file-99"/>
												<sourcetrack>
													<mediatype>audio</mediatype>
													<trackindex>2</trackindex>
												</sourcetrack>
												<filter>
													<effect>
														<name>Time Remap</name>
														<effectid>timeremap</effectid>
														<effectcategory>motion</effectcategory>
														<effecttype>motion</effecttype>
														<mediatype>audio</mediatype>
														<parameter authoringApp="PremierePro">
															<parameterid>variablespeed</parameterid>
															<name>variablespeed</name>
															<valuemin>0</valuemin>
															<valuemax>1</valuemax>
															<value>0</value>
														</parameter>
														<parameter authoringApp="PremierePro">
															<parameterid>speed</parameterid>
															<name>speed</name>
															<valuemin>-100000</valuemin>
															<valuemax>100000</valuemax>
															<value>262.385</value>
														</parameter>
														<parameter authoringApp="PremierePro">
															<parameterid>reverse</parameterid>
															<name>reverse</name>
															<value>FALSE</value>
														</parameter>
														<parameter authoringApp="PremierePro">
															<parameterid>frameblending</parameterid>
															<name>frameblending</name>
															<value>FALSE</value>
														</parameter>
														<parameter authoringApp="PremierePro">
															<parameterid>graphdict</parameterid>
															<name>graphdict</name>
															<valuemin>0</valuemin>
															<valuemax>296</valuemax>
															<value>0</value>
															<keyframe>
																<when>0</when>
																<value>0</value>
																<speedvirtualkf>TRUE</speedvirtualkf>
																<speedkfstart>TRUE</speedkfstart>
															</keyframe>
															<keyframe>
																<when>5</when>
																<value>13</value>
																<speedvirtualkf>TRUE</speedvirtualkf>
																<speedkfin>TRUE</speedkfin>
															</keyframe>
															<keyframe>
																<when>95</when>
																<value>249</value>
																<speedvirtualkf>TRUE</speedvirtualkf>
																<speedkfout>TRUE</speedkfout>
															</keyframe>
															<keyframe>
																<when>113</when>
																<value>296</value>
																<speedvirtualkf>TRUE</speedvirtualkf>
																<speedkfend>TRUE</speedkfend>
															</keyframe>
															<interpolation>
																<name>FCPCurve</name>
															</interpolation>
														</parameter>
													</effect>
												</filter>
												<link>
													<linkclipref>clipitem-167</linkclipref>
													<mediatype>audio</mediatype>
													<trackindex>1</trackindex>
													<clipindex>1</clipindex>
													<groupindex>1</groupindex>
												</link>
												<link>
													<linkclipref>clipitem-168</linkclipref>
													<mediatype>audio</mediatype>
													<trackindex>2</trackindex>
													<clipindex>1</clipindex>
													<groupindex>1</groupindex>
												</link>
												<logginginfo>
													<description></description>
													<scene></scene>
													<shottake></shottake>
													<lognote></lognote>
													<good></good>
													<originalvideofilename></originalvideofilename>
													<originalaudiofilename></originalaudiofilename>
												</logginginfo>
												<colorinfo>
													<lut></lut>
													<lut1></lut1>
													<asc_sop></asc_sop>
													<asc_sat></asc_sat>
													<lut2></lut2>
												</colorinfo>
												<labels>
													<label2>Caribbean</label2>
												</labels>
											</clipitem>
											<enabled>TRUE</enabled>
											<locked>FALSE</locked>
											<filter>
												<effect>
													<name>Audio Levels</name>
													<effectid>audiolevels</effectid>
													<effectcategory>audiolevels</effectcategory>
													<effecttype>audiolevels</effecttype>
													<mediatype>audio</mediatype>
													<parameter authoringApp="PremierePro">
														<parameterid>level</parameterid>
														<name>Level</name>
														<valuemin>0</valuemin>
														<valuemax>3.98109</valuemax>
														<value>0.706272</value>
													</parameter>
												</effect>
											</filter>
											<outputchannelindex>2</outputchannelindex>
										</track>
									</audio>
								</media>
								<timecode>
									<rate>
										<timebase>30</timebase>
										<ntsc>TRUE</ntsc>
									</rate>
									<string>00:00:00:00</string>
									<frame>0</frame>
									<displayformat>NDF</displayformat>
								</timecode>
									<marker>
										<comment></comment>
										<name></name>
										<in>51</in>
										<out>-1</out>
									</marker>
									<marker>
										<comment></comment>
										<name></name>
										<in>24</in>
										<out>-1</out>
									</marker>
								<labels>
									<label2>Lavender</label2>
								</labels>
								<logginginfo>
									<description></description>
									<scene></scene>
									<shottake></shottake>
									<lognote></lognote>
									<good></good>
									<originalvideofilename></originalvideofilename>
									<originalaudiofilename></originalaudiofilename>
								</logginginfo>
							</sequence>
							<sequence id="sequence-9" TL.SQAudioVisibleBase="0" TL.SQVideoVisibleBase="0" TL.SQVisibleBaseTime="0" TL.SQAVDividerPosition="0.5" TL.SQHideShyTracks="0" TL.SQHeaderWidth="236" TL.SQDataTrackViewControlState="0" Monitor.ProgramZoomOut="542442700800" Monitor.ProgramZoomIn="0" TL.SQTimePerPixel="0.0073169656050707729" AM.TrackVScrollPosition="0" AM.TrackScrollPosition="0" MZ.EditLine="169513344000" MZ.Sequence.PreviewFrameSizeHeight="1080" MZ.Sequence.PreviewFrameSizeWidth="1920" MZ.Sequence.AudioTimeDisplayFormat="200" MZ.Sequence.PreviewRenderingClassID="1297106761" MZ.Sequence.PreviewRenderingPresetCodec="1297107278" MZ.Sequence.PreviewRenderingPresetPath="EncoderPresets/SequencePreview/795454d9-d3c2-429d-9474-923ab13b7018/I-Frame Only MPEG.epr" MZ.Sequence.PreviewUseMaxRenderQuality="false" MZ.Sequence.PreviewUseMaxBitDepth="false" MZ.Sequence.EditingModeGUID="795454d9-d3c2-429d-9474-923ab13b7018" MZ.Sequence.VideoTimeDisplayFormat="103" MZ.WorkOutPoint="474637363200" MZ.WorkInPoint="0" explodedTracks="true">
								<uuid>58c57f47-d0b1-45b1-a011-0e25df45f91c</uuid>
								<duration>64</duration>
								<rate>
									<timebase>30</timebase>
									<ntsc>TRUE</ntsc>
								</rate>
								<name>00_Quick Logo</name>
								<media>
									<video>
										<format>
											<samplecharacteristics>
												<rate>
													<timebase>30</timebase>
													<ntsc>TRUE</ntsc>
												</rate>
												<codec>
													<name>Apple ProRes 422</name>
													<appspecificdata>
														<appname>Final Cut Pro</appname>
														<appmanufacturer>Apple Inc.</appmanufacturer>
														<appversion>7.0</appversion>
														<data>
															<qtcodec>
																<codecname>Apple ProRes 422</codecname>
																<codectypename>Apple ProRes 422</codectypename>
																<codectypecode>apcn</codectypecode>
																<codecvendorcode>appl</codecvendorcode>
																<spatialquality>1024</spatialquality>
																<temporalquality>0</temporalquality>
																<keyframerate>0</keyframerate>
																<datarate>0</datarate>
															</qtcodec>
														</data>
													</appspecificdata>
												</codec>
												<width>1920</width>
												<height>1080</height>
												<anamorphic>FALSE</anamorphic>
												<pixelaspectratio>square</pixelaspectratio>
												<fielddominance>none</fielddominance>
												<colordepth>24</colordepth>
											</samplecharacteristics>
										</format>
										<track TL.SQTrackShy="0" TL.SQTrackExpandedHeight="25" TL.SQTrackExpanded="0" MZ.TrackTargeted="1">
											<clipitem id="clipitem-169">
												<masterclipid>masterclip-97</masterclipid>
												<name># Oddly Transition Quick Loop.mov</name>
												<enabled>TRUE</enabled>
												<duration>56</duration>
												<rate>
													<timebase>30</timebase>
													<ntsc>TRUE</ntsc>
												</rate>
												<start>0</start>
												<end>56</end>
												<in>0</in>
												<out>56</out>
												<pproTicksIn>0</pproTicksIn>
												<pproTicksOut>474637363200</pproTicksOut>
												<alphatype>none</alphatype>
												<file id="file-97"/>
												<logginginfo>
													<description></description>
													<scene></scene>
													<shottake></shottake>
													<lognote></lognote>
													<good></good>
													<originalvideofilename></originalvideofilename>
													<originalaudiofilename></originalaudiofilename>
												</logginginfo>
												<colorinfo>
													<lut></lut>
													<lut1></lut1>
													<asc_sop></asc_sop>
													<asc_sat></asc_sat>
													<lut2></lut2>
												</colorinfo>
												<labels>
													<label2>Violet</label2>
												</labels>
											</clipitem>
											<enabled>TRUE</enabled>
											<locked>FALSE</locked>
										</track>
									</video>
									<audio>
										<numOutputChannels>2</numOutputChannels>
										<format>
											<samplecharacteristics>
												<depth>16</depth>
												<samplerate>44100</samplerate>
											</samplecharacteristics>
										</format>
										<outputs>
											<group>
												<index>1</index>
												<numchannels>1</numchannels>
												<downmix>0</downmix>
												<channel>
													<index>1</index>
												</channel>
											</group>
											<group>
												<index>2</index>
												<numchannels>1</numchannels>
												<downmix>0</downmix>
												<channel>
													<index>2</index>
												</channel>
											</group>
										</outputs>
										<track TL.SQTrackAudioKeyframeStyle="0" TL.SQTrackShy="0" TL.SQTrackExpandedHeight="25" TL.SQTrackExpanded="0" MZ.TrackTargeted="1" PannerCurrentValue="0.5" PannerIsInverted="true" PannerStartKeyframe="-91445760000000000,0.5,0,0,0,0,0,0" PannerName="Balance" currentExplodedTrackIndex="0" totalExplodedTrackCount="2" premiereTrackType="Stereo">
											<clipitem id="clipitem-170" premiereChannelType="stereo">
												<masterclipid>masterclip-100</masterclipid>
												<name>Ni Sound - Matching Game - Positive Notification Ascending Synth.wav</name>
												<enabled>TRUE</enabled>
												<duration>124</duration>
												<rate>
													<timebase>30</timebase>
													<ntsc>TRUE</ntsc>
												</rate>
												<start>0</start>
												<end>-1</end>
												<in>0</in>
												<out>64</out>
												<pproTicksIn>0</pproTicksIn>
												<pproTicksOut>275393986560</pproTicksOut>
												<file id="file-100">
													<name>Ni Sound - Matching Game - Positive Notification Ascending Synth.wav</name>
													<pathurl>file://localhost/Volumes/Satisfactum%20Satisfactorum/00_Hub%20World/5_Assets/00_OSTV/New%20graphics%2005-24-23/Transitions/Ni%20Sound%20-%20Matching%20Game%20-%20Positive%20Notification%20Ascending%20Synth.wav</pathurl>
													<rate>
														<timebase>30</timebase>
														<ntsc>TRUE</ntsc>
													</rate>
													<duration>63</duration>
													<timecode>
														<rate>
															<timebase>30</timebase>
															<ntsc>TRUE</ntsc>
														</rate>
														<string>00;00;00;00</string>
														<frame>0</frame>
														<displayformat>DF</displayformat>
													</timecode>
													<media>
														<audio>
															<samplecharacteristics>
																<depth>16</depth>
																<samplerate>96000</samplerate>
															</samplecharacteristics>
															<channelcount>2</channelcount>
														</audio>
													</media>
												</file>
												<sourcetrack>
													<mediatype>audio</mediatype>
													<trackindex>1</trackindex>
												</sourcetrack>
												<filter>
													<effect>
														<name>Time Remap</name>
														<effectid>timeremap</effectid>
														<effectcategory>motion</effectcategory>
														<effecttype>motion</effecttype>
														<mediatype>audio</mediatype>
														<parameter authoringApp="PremierePro">
															<parameterid>variablespeed</parameterid>
															<name>variablespeed</name>
															<valuemin>0</valuemin>
															<valuemax>1</valuemax>
															<value>0</value>
														</parameter>
														<parameter authoringApp="PremierePro">
															<parameterid>speed</parameterid>
															<name>speed</name>
															<valuemin>-100000</valuemin>
															<valuemax>100000</valuemax>
															<value>50.7692</value>
														</parameter>
														<parameter authoringApp="PremierePro">
															<parameterid>reverse</parameterid>
															<name>reverse</name>
															<value>FALSE</value>
														</parameter>
														<parameter authoringApp="PremierePro">
															<parameterid>frameblending</parameterid>
															<name>frameblending</name>
															<value>FALSE</value>
														</parameter>
														<parameter authoringApp="PremierePro">
															<parameterid>graphdict</parameterid>
															<name>graphdict</name>
															<valuemin>0</valuemin>
															<valuemax>62</valuemax>
															<value>0</value>
															<keyframe>
																<when>0</when>
																<value>0</value>
																<speedvirtualkf>TRUE</speedvirtualkf>
																<speedkfin>TRUE</speedkfin>
															</keyframe>
															<keyframe>
																<when>64</when>
																<value>32</value>
																<speedvirtualkf>TRUE</speedvirtualkf>
																<speedkfout>TRUE</speedkfout>
															</keyframe>
															<keyframe>
																<when>124</when>
																<value>62</value>
																<speedvirtualkf>TRUE</speedvirtualkf>
																<speedkfend>TRUE</speedkfend>
															</keyframe>
															<interpolation>
																<name>FCPCurve</name>
															</interpolation>
														</parameter>
													</effect>
												</filter>
												<link>
													<linkclipref>clipitem-170</linkclipref>
													<mediatype>audio</mediatype>
													<trackindex>1</trackindex>
													<clipindex>1</clipindex>
													<groupindex>1</groupindex>
												</link>
												<link>
													<linkclipref>clipitem-171</linkclipref>
													<mediatype>audio</mediatype>
													<trackindex>2</trackindex>
													<clipindex>1</clipindex>
													<groupindex>1</groupindex>
												</link>
												<logginginfo>
													<description></description>
													<scene></scene>
													<shottake></shottake>
													<lognote></lognote>
													<good></good>
													<originalvideofilename></originalvideofilename>
													<originalaudiofilename></originalaudiofilename>
												</logginginfo>
												<colorinfo>
													<lut></lut>
													<lut1></lut1>
													<asc_sop></asc_sop>
													<asc_sat></asc_sat>
													<lut2></lut2>
												</colorinfo>
												<labels>
													<label2>Caribbean</label2>
												</labels>
											</clipitem>
											<transitionitem>
												<start>34</start>
												<end>64</end>
												<pproTicksIn>288172684800</pproTicksIn>
												<pproTicksOut>542442700800</pproTicksOut>
												<alignment>end-black</alignment>
												<cutPointTicks>254270016000</cutPointTicks>
												<rate>
													<timebase>30</timebase>
													<ntsc>TRUE</ntsc>
												</rate>
												<effect>
													<name>Cross Fade (+3dB)</name>
													<effectid>KGAudioTransCrossFade3dB</effectid>
													<effecttype>transition</effecttype>
													<mediatype>audio</mediatype>
													<wipecode>0</wipecode>
													<wipeaccuracy>100</wipeaccuracy>
													<startratio>0</startratio>
													<endratio>1</endratio>
													<reverse>FALSE</reverse>
												</effect>
											</transitionitem>
											<enabled>TRUE</enabled>
											<locked>FALSE</locked>
											<filter>
												<effect>
													<name>Audio Levels</name>
													<effectid>audiolevels</effectid>
													<effectcategory>audiolevels</effectcategory>
													<effecttype>audiolevels</effecttype>
													<mediatype>audio</mediatype>
													<parameter authoringApp="PremierePro">
														<parameterid>level</parameterid>
														<name>Level</name>
														<valuemin>0</valuemin>
														<valuemax>3.98109</valuemax>
														<value>0.706272</value>
													</parameter>
												</effect>
											</filter>
											<outputchannelindex>1</outputchannelindex>
										</track>
										<track TL.SQTrackAudioKeyframeStyle="0" TL.SQTrackShy="0" TL.SQTrackExpandedHeight="25" TL.SQTrackExpanded="0" MZ.TrackTargeted="1" PannerCurrentValue="0.5" PannerIsInverted="true" PannerStartKeyframe="-91445760000000000,0.5,0,0,0,0,0,0" PannerName="Balance" currentExplodedTrackIndex="1" totalExplodedTrackCount="2" premiereTrackType="Stereo">
											<clipitem id="clipitem-171" premiereChannelType="stereo">
												<masterclipid>masterclip-100</masterclipid>
												<name>Ni Sound - Matching Game - Positive Notification Ascending Synth.wav</name>
												<enabled>TRUE</enabled>
												<duration>124</duration>
												<rate>
													<timebase>30</timebase>
													<ntsc>TRUE</ntsc>
												</rate>
												<start>0</start>
												<end>-1</end>
												<in>0</in>
												<out>64</out>
												<pproTicksIn>0</pproTicksIn>
												<pproTicksOut>275393986560</pproTicksOut>
												<file id="file-100"/>
												<sourcetrack>
													<mediatype>audio</mediatype>
													<trackindex>2</trackindex>
												</sourcetrack>
												<filter>
													<effect>
														<name>Time Remap</name>
														<effectid>timeremap</effectid>
														<effectcategory>motion</effectcategory>
														<effecttype>motion</effecttype>
														<mediatype>audio</mediatype>
														<parameter authoringApp="PremierePro">
															<parameterid>variablespeed</parameterid>
															<name>variablespeed</name>
															<valuemin>0</valuemin>
															<valuemax>1</valuemax>
															<value>0</value>
														</parameter>
														<parameter authoringApp="PremierePro">
															<parameterid>speed</parameterid>
															<name>speed</name>
															<valuemin>-100000</valuemin>
															<valuemax>100000</valuemax>
															<value>50.7692</value>
														</parameter>
														<parameter authoringApp="PremierePro">
															<parameterid>reverse</parameterid>
															<name>reverse</name>
															<value>FALSE</value>
														</parameter>
														<parameter authoringApp="PremierePro">
															<parameterid>frameblending</parameterid>
															<name>frameblending</name>
															<value>FALSE</value>
														</parameter>
														<parameter authoringApp="PremierePro">
															<parameterid>graphdict</parameterid>
															<name>graphdict</name>
															<valuemin>0</valuemin>
															<valuemax>62</valuemax>
															<value>0</value>
															<keyframe>
																<when>0</when>
																<value>0</value>
																<speedvirtualkf>TRUE</speedvirtualkf>
																<speedkfin>TRUE</speedkfin>
															</keyframe>
															<keyframe>
																<when>64</when>
																<value>32</value>
																<speedvirtualkf>TRUE</speedvirtualkf>
																<speedkfout>TRUE</speedkfout>
															</keyframe>
															<keyframe>
																<when>124</when>
																<value>62</value>
																<speedvirtualkf>TRUE</speedvirtualkf>
																<speedkfend>TRUE</speedkfend>
															</keyframe>
															<interpolation>
																<name>FCPCurve</name>
															</interpolation>
														</parameter>
													</effect>
												</filter>
												<link>
													<linkclipref>clipitem-170</linkclipref>
													<mediatype>audio</mediatype>
													<trackindex>1</trackindex>
													<clipindex>1</clipindex>
													<groupindex>1</groupindex>
												</link>
												<link>
													<linkclipref>clipitem-171</linkclipref>
													<mediatype>audio</mediatype>
													<trackindex>2</trackindex>
													<clipindex>1</clipindex>
													<groupindex>1</groupindex>
												</link>
												<logginginfo>
													<description></description>
													<scene></scene>
													<shottake></shottake>
													<lognote></lognote>
													<good></good>
													<originalvideofilename></originalvideofilename>
													<originalaudiofilename></originalaudiofilename>
												</logginginfo>
												<colorinfo>
													<lut></lut>
													<lut1></lut1>
													<asc_sop></asc_sop>
													<asc_sat></asc_sat>
													<lut2></lut2>
												</colorinfo>
												<labels>
													<label2>Caribbean</label2>
												</labels>
											</clipitem>
											<transitionitem>
												<start>34</start>
												<end>64</end>
												<pproTicksIn>288172684800</pproTicksIn>
												<pproTicksOut>542442700800</pproTicksOut>
												<alignment>end-black</alignment>
												<cutPointTicks>254270016000</cutPointTicks>
												<rate>
													<timebase>30</timebase>
													<ntsc>TRUE</ntsc>
												</rate>
												<effect>
													<name>Cross Fade (+3dB)</name>
													<effectid>KGAudioTransCrossFade3dB</effectid>
													<effecttype>transition</effecttype>
													<mediatype>audio</mediatype>
													<wipecode>0</wipecode>
													<wipeaccuracy>100</wipeaccuracy>
													<startratio>0</startratio>
													<endratio>1</endratio>
													<reverse>FALSE</reverse>
												</effect>
											</transitionitem>
											<enabled>TRUE</enabled>
											<locked>FALSE</locked>
											<filter>
												<effect>
													<name>Audio Levels</name>
													<effectid>audiolevels</effectid>
													<effectcategory>audiolevels</effectcategory>
													<effecttype>audiolevels</effecttype>
													<mediatype>audio</mediatype>
													<parameter authoringApp="PremierePro">
														<parameterid>level</parameterid>
														<name>Level</name>
														<valuemin>0</valuemin>
														<valuemax>3.98109</valuemax>
														<value>0.706272</value>
													</parameter>
												</effect>
											</filter>
											<outputchannelindex>2</outputchannelindex>
										</track>
										<track TL.SQTrackAudioKeyframeStyle="0" TL.SQTrackShy="0" TL.SQTrackExpandedHeight="25" TL.SQTrackExpanded="0" MZ.TrackTargeted="0" PannerCurrentValue="0.5" PannerIsInverted="true" PannerStartKeyframe="-91445760000000000,0.5,0,0,0,0,0,0" PannerName="Balance" currentExplodedTrackIndex="0" totalExplodedTrackCount="2" premiereTrackType="Stereo">
											<clipitem id="clipitem-172" premiereChannelType="stereo">
												<masterclipid>masterclip-101</masterclipid>
												<name>Ni Sound - Matching Game - Achievement Unlocked Ascending Digital Plucks.aac</name>
												<enabled>TRUE</enabled>
												<duration>210</duration>
												<rate>
													<timebase>30</timebase>
													<ntsc>TRUE</ntsc>
												</rate>
												<start>0</start>
												<end>-1</end>
												<in>0</in>
												<out>64</out>
												<pproTicksIn>0</pproTicksIn>
												<pproTicksOut>271221350400</pproTicksOut>
												<file id="file-101">
													<name>Ni Sound - Matching Game - Achievement Unlocked Ascending Digital Plucks.aac</name>
													<pathurl>file://localhost/Volumes/Satisfactum%20Satisfactorum/00_Hub%20World/5_Assets/00_OSTV/New%20graphics%2005-24-23/Transitions/Ni%20Sound%20-%20Matching%20Game%20-%20Achievement%20Unlocked%20Ascending%20Digital%20Plucks.aac</pathurl>
													<rate>
														<timebase>30</timebase>
														<ntsc>TRUE</ntsc>
													</rate>
													<duration>105</duration>
													<timecode>
														<rate>
															<timebase>30</timebase>
															<ntsc>TRUE</ntsc>
														</rate>
														<string>00;00;00;00</string>
														<frame>0</frame>
														<displayformat>DF</displayformat>
													</timecode>
													<media>
														<audio>
															<samplecharacteristics>
																<depth>16</depth>
																<samplerate>44100</samplerate>
															</samplecharacteristics>
															<channelcount>2</channelcount>
														</audio>
													</media>
												</file>
												<sourcetrack>
													<mediatype>audio</mediatype>
													<trackindex>1</trackindex>
												</sourcetrack>
												<filter>
													<effect>
														<name>Time Remap</name>
														<effectid>timeremap</effectid>
														<effectcategory>motion</effectcategory>
														<effecttype>motion</effecttype>
														<mediatype>audio</mediatype>
														<parameter authoringApp="PremierePro">
															<parameterid>variablespeed</parameterid>
															<name>variablespeed</name>
															<valuemin>0</valuemin>
															<valuemax>1</valuemax>
															<value>0</value>
														</parameter>
														<parameter authoringApp="PremierePro">
															<parameterid>speed</parameterid>
															<name>speed</name>
															<valuemin>-100000</valuemin>
															<valuemax>100000</valuemax>
															<value>50</value>
														</parameter>
														<parameter authoringApp="PremierePro">
															<parameterid>reverse</parameterid>
															<name>reverse</name>
															<value>FALSE</value>
														</parameter>
														<parameter authoringApp="PremierePro">
															<parameterid>frameblending</parameterid>
															<name>frameblending</name>
															<value>FALSE</value>
														</parameter>
														<parameter authoringApp="PremierePro">
															<parameterid>graphdict</parameterid>
															<name>graphdict</name>
															<valuemin>0</valuemin>
															<valuemax>105</valuemax>
															<value>0</value>
															<keyframe>
																<when>0</when>
																<value>0</value>
																<speedvirtualkf>TRUE</speedvirtualkf>
																<speedkfin>TRUE</speedkfin>
															</keyframe>
															<keyframe>
																<when>64</when>
																<value>32</value>
																<speedvirtualkf>TRUE</speedvirtualkf>
																<speedkfout>TRUE</speedkfout>
															</keyframe>
															<keyframe>
																<when>210</when>
																<value>105</value>
																<speedvirtualkf>TRUE</speedvirtualkf>
																<speedkfend>TRUE</speedkfend>
															</keyframe>
															<interpolation>
																<name>FCPCurve</name>
															</interpolation>
														</parameter>
													</effect>
												</filter>
												<link>
													<linkclipref>clipitem-172</linkclipref>
													<mediatype>audio</mediatype>
													<trackindex>3</trackindex>
													<clipindex>1</clipindex>
													<groupindex>1</groupindex>
												</link>
												<link>
													<linkclipref>clipitem-173</linkclipref>
													<mediatype>audio</mediatype>
													<trackindex>4</trackindex>
													<clipindex>1</clipindex>
													<groupindex>1</groupindex>
												</link>
												<logginginfo>
													<description></description>
													<scene></scene>
													<shottake></shottake>
													<lognote></lognote>
													<good></good>
													<originalvideofilename></originalvideofilename>
													<originalaudiofilename></originalaudiofilename>
												</logginginfo>
												<colorinfo>
													<lut></lut>
													<lut1></lut1>
													<asc_sop></asc_sop>
													<asc_sat></asc_sat>
													<lut2></lut2>
												</colorinfo>
												<labels>
													<label2>Caribbean</label2>
												</labels>
											</clipitem>
											<transitionitem>
												<start>34</start>
												<end>64</end>
												<pproTicksIn>288172684800</pproTicksIn>
												<pproTicksOut>542442700800</pproTicksOut>
												<alignment>end-black</alignment>
												<cutPointTicks>254270016000</cutPointTicks>
												<rate>
													<timebase>30</timebase>
													<ntsc>TRUE</ntsc>
												</rate>
												<effect>
													<name>Cross Fade (+3dB)</name>
													<effectid>KGAudioTransCrossFade3dB</effectid>
													<effecttype>transition</effecttype>
													<mediatype>audio</mediatype>
													<wipecode>0</wipecode>
													<wipeaccuracy>100</wipeaccuracy>
													<startratio>0</startratio>
													<endratio>1</endratio>
													<reverse>FALSE</reverse>
												</effect>
											</transitionitem>
											<enabled>TRUE</enabled>
											<locked>FALSE</locked>
											<filter>
												<effect>
													<name>Audio Levels</name>
													<effectid>audiolevels</effectid>
													<effectcategory>audiolevels</effectcategory>
													<effecttype>audiolevels</effecttype>
													<mediatype>audio</mediatype>
													<parameter authoringApp="PremierePro">
														<parameterid>level</parameterid>
														<name>Level</name>
														<valuemin>0</valuemin>
														<valuemax>3.98109</valuemax>
														<value>0.706272</value>
													</parameter>
												</effect>
											</filter>
											<outputchannelindex>1</outputchannelindex>
										</track>
										<track TL.SQTrackAudioKeyframeStyle="0" TL.SQTrackShy="0" TL.SQTrackExpandedHeight="25" TL.SQTrackExpanded="0" MZ.TrackTargeted="0" PannerCurrentValue="0.5" PannerIsInverted="true" PannerStartKeyframe="-91445760000000000,0.5,0,0,0,0,0,0" PannerName="Balance" currentExplodedTrackIndex="1" totalExplodedTrackCount="2" premiereTrackType="Stereo">
											<clipitem id="clipitem-173" premiereChannelType="stereo">
												<masterclipid>masterclip-101</masterclipid>
												<name>Ni Sound - Matching Game - Achievement Unlocked Ascending Digital Plucks.aac</name>
												<enabled>TRUE</enabled>
												<duration>210</duration>
												<rate>
													<timebase>30</timebase>
													<ntsc>TRUE</ntsc>
												</rate>
												<start>0</start>
												<end>-1</end>
												<in>0</in>
												<out>64</out>
												<pproTicksIn>0</pproTicksIn>
												<pproTicksOut>271221350400</pproTicksOut>
												<file id="file-101"/>
												<sourcetrack>
													<mediatype>audio</mediatype>
													<trackindex>2</trackindex>
												</sourcetrack>
												<filter>
													<effect>
														<name>Time Remap</name>
														<effectid>timeremap</effectid>
														<effectcategory>motion</effectcategory>
														<effecttype>motion</effecttype>
														<mediatype>audio</mediatype>
														<parameter authoringApp="PremierePro">
															<parameterid>variablespeed</parameterid>
															<name>variablespeed</name>
															<valuemin>0</valuemin>
															<valuemax>1</valuemax>
															<value>0</value>
														</parameter>
														<parameter authoringApp="PremierePro">
															<parameterid>speed</parameterid>
															<name>speed</name>
															<valuemin>-100000</valuemin>
															<valuemax>100000</valuemax>
															<value>50</value>
														</parameter>
														<parameter authoringApp="PremierePro">
															<parameterid>reverse</parameterid>
															<name>reverse</name>
															<value>FALSE</value>
														</parameter>
														<parameter authoringApp="PremierePro">
															<parameterid>frameblending</parameterid>
															<name>frameblending</name>
															<value>FALSE</value>
														</parameter>
														<parameter authoringApp="PremierePro">
															<parameterid>graphdict</parameterid>
															<name>graphdict</name>
															<valuemin>0</valuemin>
															<valuemax>105</valuemax>
															<value>0</value>
															<keyframe>
																<when>0</when>
																<value>0</value>
																<speedvirtualkf>TRUE</speedvirtualkf>
																<speedkfin>TRUE</speedkfin>
															</keyframe>
															<keyframe>
																<when>64</when>
																<value>32</value>
																<speedvirtualkf>TRUE</speedvirtualkf>
																<speedkfout>TRUE</speedkfout>
															</keyframe>
															<keyframe>
																<when>210</when>
																<value>105</value>
																<speedvirtualkf>TRUE</speedvirtualkf>
																<speedkfend>TRUE</speedkfend>
															</keyframe>
															<interpolation>
																<name>FCPCurve</name>
															</interpolation>
														</parameter>
													</effect>
												</filter>
												<link>
													<linkclipref>clipitem-172</linkclipref>
													<mediatype>audio</mediatype>
													<trackindex>3</trackindex>
													<clipindex>1</clipindex>
													<groupindex>1</groupindex>
												</link>
												<link>
													<linkclipref>clipitem-173</linkclipref>
													<mediatype>audio</mediatype>
													<trackindex>4</trackindex>
													<clipindex>1</clipindex>
													<groupindex>1</groupindex>
												</link>
												<logginginfo>
													<description></description>
													<scene></scene>
													<shottake></shottake>
													<lognote></lognote>
													<good></good>
													<originalvideofilename></originalvideofilename>
													<originalaudiofilename></originalaudiofilename>
												</logginginfo>
												<colorinfo>
													<lut></lut>
													<lut1></lut1>
													<asc_sop></asc_sop>
													<asc_sat></asc_sat>
													<lut2></lut2>
												</colorinfo>
												<labels>
													<label2>Caribbean</label2>
												</labels>
											</clipitem>
											<transitionitem>
												<start>34</start>
												<end>64</end>
												<pproTicksIn>288172684800</pproTicksIn>
												<pproTicksOut>542442700800</pproTicksOut>
												<alignment>end-black</alignment>
												<cutPointTicks>254270016000</cutPointTicks>
												<rate>
													<timebase>30</timebase>
													<ntsc>TRUE</ntsc>
												</rate>
												<effect>
													<name>Cross Fade (+3dB)</name>
													<effectid>KGAudioTransCrossFade3dB</effectid>
													<effecttype>transition</effecttype>
													<mediatype>audio</mediatype>
													<wipecode>0</wipecode>
													<wipeaccuracy>100</wipeaccuracy>
													<startratio>0</startratio>
													<endratio>1</endratio>
													<reverse>FALSE</reverse>
												</effect>
											</transitionitem>
											<enabled>TRUE</enabled>
											<locked>FALSE</locked>
											<filter>
												<effect>
													<name>Audio Levels</name>
													<effectid>audiolevels</effectid>
													<effectcategory>audiolevels</effectcategory>
													<effecttype>audiolevels</effecttype>
													<mediatype>audio</mediatype>
													<parameter authoringApp="PremierePro">
														<parameterid>level</parameterid>
														<name>Level</name>
														<valuemin>0</valuemin>
														<valuemax>3.98109</valuemax>
														<value>0.706272</value>
													</parameter>
												</effect>
											</filter>
											<outputchannelindex>2</outputchannelindex>
										</track>
									</audio>
								</media>
								<timecode>
									<rate>
										<timebase>30</timebase>
										<ntsc>TRUE</ntsc>
									</rate>
									<string>00:00:00:00</string>
									<frame>0</frame>
									<displayformat>NDF</displayformat>
								</timecode>
									<marker>
										<comment></comment>
										<name></name>
										<in>14</in>
										<out>-1</out>
									</marker>
									<marker>
										<comment></comment>
										<name></name>
										<in>40</in>
										<out>-1</out>
									</marker>
								<labels>
									<label2>Cerulean</label2>
								</labels>
								<logginginfo>
									<description></description>
									<scene></scene>
									<shottake></shottake>
									<lognote></lognote>
									<good></good>
									<originalvideofilename></originalvideofilename>
									<originalaudiofilename></originalaudiofilename>
								</logginginfo>
							</sequence>
						</children>
					</bin>
					<bin>
						<name>zz_Transition audio</name>
						<children>
							<clip id="masterclip-99" explodedTracks="true">
								<uuid>ab9c46c5-dd9e-4323-9f21-597cd4aaed0e</uuid>
								<masterclipid>masterclip-99</masterclipid>
								<ismasterclip>TRUE</ismasterclip>
								<duration>299</duration>
								<rate>
									<timebase>30</timebase>
									<ntsc>TRUE</ntsc>
								</rate>
								<name>Callum Donaldson - Its the 80s - Pulsing Retro Transition.wav</name>
								<media>
									<audio>
										<track>
											<clipitem id="clipitem-174">
												<masterclipid>masterclip-99</masterclipid>
												<name>Callum Donaldson - Its the 80s - Pulsing Retro Transition.wav</name>
												<rate>
													<timebase>30</timebase>
													<ntsc>TRUE</ntsc>
												</rate>
												<file id="file-99"/>
												<sourcetrack>
													<mediatype>audio</mediatype>
													<trackindex>1</trackindex>
												</sourcetrack>
												<link>
													<linkclipref>clipitem-174</linkclipref>
													<mediatype>audio</mediatype>
													<trackindex>1</trackindex>
													<clipindex>1</clipindex>
													<groupindex>1</groupindex>
												</link>
												<link>
													<linkclipref>clipitem-175</linkclipref>
													<mediatype>audio</mediatype>
													<trackindex>2</trackindex>
													<clipindex>1</clipindex>
													<groupindex>1</groupindex>
												</link>
											</clipitem>
										</track>
										<track>
											<clipitem id="clipitem-175">
												<masterclipid>masterclip-99</masterclipid>
												<name>Callum Donaldson - Its the 80s - Pulsing Retro Transition.wav</name>
												<rate>
													<timebase>30</timebase>
													<ntsc>TRUE</ntsc>
												</rate>
												<file id="file-99"/>
												<sourcetrack>
													<mediatype>audio</mediatype>
													<trackindex>2</trackindex>
												</sourcetrack>
												<link>
													<linkclipref>clipitem-174</linkclipref>
													<mediatype>audio</mediatype>
													<trackindex>1</trackindex>
													<clipindex>1</clipindex>
													<groupindex>1</groupindex>
												</link>
												<link>
													<linkclipref>clipitem-175</linkclipref>
													<mediatype>audio</mediatype>
													<trackindex>2</trackindex>
													<clipindex>1</clipindex>
													<groupindex>1</groupindex>
												</link>
											</clipitem>
										</track>
									</audio>
								</media>
								<logginginfo>
									<description></description>
									<scene></scene>
									<shottake></shottake>
									<lognote></lognote>
									<good></good>
									<originalvideofilename></originalvideofilename>
									<originalaudiofilename></originalaudiofilename>
								</logginginfo>
								<colorinfo>
									<lut></lut>
									<lut1></lut1>
									<asc_sop></asc_sop>
									<asc_sat></asc_sat>
									<lut2></lut2>
								</colorinfo>
								<labels>
									<label2>Caribbean</label2>
								</labels>
							</clip>
							<clip id="masterclip-100" explodedTracks="true">
								<uuid>f372eb79-1cb2-4288-9095-471cac2d0ab8</uuid>
								<masterclipid>masterclip-100</masterclipid>
								<ismasterclip>TRUE</ismasterclip>
								<duration>63</duration>
								<rate>
									<timebase>30</timebase>
									<ntsc>TRUE</ntsc>
								</rate>
								<name>Ni Sound - Matching Game - Positive Notification Ascending Synth.wav</name>
								<media>
									<audio>
										<track>
											<clipitem id="clipitem-176">
												<masterclipid>masterclip-100</masterclipid>
												<name>Ni Sound - Matching Game - Positive Notification Ascending Synth.wav</name>
												<rate>
													<timebase>30</timebase>
													<ntsc>TRUE</ntsc>
												</rate>
												<file id="file-100"/>
												<sourcetrack>
													<mediatype>audio</mediatype>
													<trackindex>1</trackindex>
												</sourcetrack>
												<link>
													<linkclipref>clipitem-176</linkclipref>
													<mediatype>audio</mediatype>
													<trackindex>1</trackindex>
													<clipindex>1</clipindex>
													<groupindex>1</groupindex>
												</link>
												<link>
													<linkclipref>clipitem-177</linkclipref>
													<mediatype>audio</mediatype>
													<trackindex>2</trackindex>
													<clipindex>1</clipindex>
													<groupindex>1</groupindex>
												</link>
											</clipitem>
										</track>
										<track>
											<clipitem id="clipitem-177">
												<masterclipid>masterclip-100</masterclipid>
												<name>Ni Sound - Matching Game - Positive Notification Ascending Synth.wav</name>
												<rate>
													<timebase>30</timebase>
													<ntsc>TRUE</ntsc>
												</rate>
												<file id="file-100"/>
												<sourcetrack>
													<mediatype>audio</mediatype>
													<trackindex>2</trackindex>
												</sourcetrack>
												<link>
													<linkclipref>clipitem-176</linkclipref>
													<mediatype>audio</mediatype>
													<trackindex>1</trackindex>
													<clipindex>1</clipindex>
													<groupindex>1</groupindex>
												</link>
												<link>
													<linkclipref>clipitem-177</linkclipref>
													<mediatype>audio</mediatype>
													<trackindex>2</trackindex>
													<clipindex>1</clipindex>
													<groupindex>1</groupindex>
												</link>
											</clipitem>
										</track>
									</audio>
								</media>
								<logginginfo>
									<description></description>
									<scene></scene>
									<shottake></shottake>
									<lognote></lognote>
									<good></good>
									<originalvideofilename></originalvideofilename>
									<originalaudiofilename></originalaudiofilename>
								</logginginfo>
								<colorinfo>
									<lut></lut>
									<lut1></lut1>
									<asc_sop></asc_sop>
									<asc_sat></asc_sat>
									<lut2></lut2>
								</colorinfo>
								<labels>
									<label2>Caribbean</label2>
								</labels>
							</clip>
							<clip id="masterclip-101" explodedTracks="true">
								<uuid>a54d2b97-11b2-4946-b228-0aba531d8c6f</uuid>
								<masterclipid>masterclip-101</masterclipid>
								<ismasterclip>TRUE</ismasterclip>
								<duration>105</duration>
								<rate>
									<timebase>30</timebase>
									<ntsc>TRUE</ntsc>
								</rate>
								<name>Ni Sound - Matching Game - Achievement Unlocked Ascending Digital Plucks.aac</name>
								<media>
									<audio>
										<track>
											<clipitem id="clipitem-178">
												<masterclipid>masterclip-101</masterclipid>
												<name>Ni Sound - Matching Game - Achievement Unlocked Ascending Digital Plucks.aac</name>
												<rate>
													<timebase>30</timebase>
													<ntsc>TRUE</ntsc>
												</rate>
												<file id="file-101"/>
												<sourcetrack>
													<mediatype>audio</mediatype>
													<trackindex>1</trackindex>
												</sourcetrack>
												<link>
													<linkclipref>clipitem-178</linkclipref>
													<mediatype>audio</mediatype>
													<trackindex>1</trackindex>
													<clipindex>1</clipindex>
													<groupindex>1</groupindex>
												</link>
												<link>
													<linkclipref>clipitem-179</linkclipref>
													<mediatype>audio</mediatype>
													<trackindex>2</trackindex>
													<clipindex>1</clipindex>
													<groupindex>1</groupindex>
												</link>
											</clipitem>
										</track>
										<track>
											<clipitem id="clipitem-179">
												<masterclipid>masterclip-101</masterclipid>
												<name>Ni Sound - Matching Game - Achievement Unlocked Ascending Digital Plucks.aac</name>
												<rate>
													<timebase>30</timebase>
													<ntsc>TRUE</ntsc>
												</rate>
												<file id="file-101"/>
												<sourcetrack>
													<mediatype>audio</mediatype>
													<trackindex>2</trackindex>
												</sourcetrack>
												<link>
													<linkclipref>clipitem-178</linkclipref>
													<mediatype>audio</mediatype>
													<trackindex>1</trackindex>
													<clipindex>1</clipindex>
													<groupindex>1</groupindex>
												</link>
												<link>
													<linkclipref>clipitem-179</linkclipref>
													<mediatype>audio</mediatype>
													<trackindex>2</trackindex>
													<clipindex>1</clipindex>
													<groupindex>1</groupindex>
												</link>
											</clipitem>
										</track>
									</audio>
								</media>
								<logginginfo>
									<description></description>
									<scene></scene>
									<shottake></shottake>
									<lognote></lognote>
									<good></good>
									<originalvideofilename></originalvideofilename>
									<originalaudiofilename></originalaudiofilename>
								</logginginfo>
								<colorinfo>
									<lut></lut>
									<lut1></lut1>
									<asc_sop></asc_sop>
									<asc_sat></asc_sat>
									<lut2></lut2>
								</colorinfo>
								<labels>
									<label2>Caribbean</label2>
								</labels>
							</clip>
						</children>
					</bin>
					<sequence id="sequence-10" TL.SQAudioVisibleBase="0" TL.SQVideoVisibleBase="0" TL.SQVisibleBaseTime="0" TL.SQAVDividerPosition="0.5" TL.SQHideShyTracks="0" TL.SQHeaderWidth="236" Monitor.ProgramZoomOut="1525620096000" Monitor.ProgramZoomIn="0" TL.SQTimePerPixel="0.014633931210141546" AM.TrackVScrollPosition="0" AM.TrackScrollPosition="0" MZ.EditLine="1017080064000" MZ.Sequence.PreviewFrameSizeHeight="1080" MZ.Sequence.PreviewFrameSizeWidth="1920" MZ.Sequence.AudioTimeDisplayFormat="200" MZ.Sequence.PreviewRenderingClassID="1297106761" MZ.Sequence.PreviewRenderingPresetCodec="1297107278" MZ.Sequence.PreviewRenderingPresetPath="EncoderPresets/SequencePreview/795454d9-d3c2-429d-9474-923ab13b7018/I-Frame Only MPEG.epr" MZ.Sequence.PreviewUseMaxRenderQuality="false" MZ.Sequence.PreviewUseMaxBitDepth="false" MZ.Sequence.EditingModeGUID="795454d9-d3c2-429d-9474-923ab13b7018" MZ.Sequence.VideoTimeDisplayFormat="103" MZ.WorkOutPoint="1525620096000" MZ.WorkInPoint="0" explodedTracks="true">
						<uuid>f7da9224-41e9-427d-84d6-5f822991e610</uuid>
						<duration>180</duration>
						<rate>
							<timebase>30</timebase>
							<ntsc>TRUE</ntsc>
						</rate>
						<name>00_Slime Transition</name>
						<media>
							<video>
								<format>
									<samplecharacteristics>
										<rate>
											<timebase>30</timebase>
											<ntsc>TRUE</ntsc>
										</rate>
										<codec>
											<name>Apple ProRes 422</name>
											<appspecificdata>
												<appname>Final Cut Pro</appname>
												<appmanufacturer>Apple Inc.</appmanufacturer>
												<appversion>7.0</appversion>
												<data>
													<qtcodec>
														<codecname>Apple ProRes 422</codecname>
														<codectypename>Apple ProRes 422</codectypename>
														<codectypecode>apcn</codectypecode>
														<codecvendorcode>appl</codecvendorcode>
														<spatialquality>1024</spatialquality>
														<temporalquality>0</temporalquality>
														<keyframerate>0</keyframerate>
														<datarate>0</datarate>
													</qtcodec>
												</data>
											</appspecificdata>
										</codec>
										<width>1920</width>
										<height>1080</height>
										<anamorphic>FALSE</anamorphic>
										<pixelaspectratio>square</pixelaspectratio>
										<fielddominance>none</fielddominance>
										<colordepth>24</colordepth>
									</samplecharacteristics>
								</format>
								<track TL.SQTrackShy="0" TL.SQTrackExpandedHeight="25" TL.SQTrackExpanded="0" MZ.TrackTargeted="1">
									<clipitem id="clipitem-180">
										<masterclipid>masterclip-98</masterclipid>
										<name># Oddly Logo Slime Transition.mov</name>
										<enabled>TRUE</enabled>
										<duration>180</duration>
										<rate>
											<timebase>30</timebase>
											<ntsc>TRUE</ntsc>
										</rate>
										<start>0</start>
										<end>180</end>
										<in>0</in>
										<out>180</out>
										<pproTicksIn>0</pproTicksIn>
										<pproTicksOut>1525620096000</pproTicksOut>
										<alphatype>none</alphatype>
										<file id="file-98"/>
										<link>
											<linkclipref>clipitem-180</linkclipref>
											<mediatype>video</mediatype>
											<trackindex>1</trackindex>
											<clipindex>1</clipindex>
										</link>
										<link>
											<linkclipref>clipitem-181</linkclipref>
											<mediatype>audio</mediatype>
											<trackindex>1</trackindex>
											<clipindex>1</clipindex>
											<groupindex>1</groupindex>
										</link>
										<link>
											<linkclipref>clipitem-182</linkclipref>
											<mediatype>audio</mediatype>
											<trackindex>2</trackindex>
											<clipindex>1</clipindex>
											<groupindex>1</groupindex>
										</link>
										<logginginfo>
											<description></description>
											<scene></scene>
											<shottake></shottake>
											<lognote></lognote>
											<good></good>
											<originalvideofilename></originalvideofilename>
											<originalaudiofilename></originalaudiofilename>
										</logginginfo>
										<colorinfo>
											<lut></lut>
											<lut1></lut1>
											<asc_sop></asc_sop>
											<asc_sat></asc_sat>
											<lut2></lut2>
										</colorinfo>
										<labels>
											<label2>Iris</label2>
										</labels>
									</clipitem>
									<enabled>TRUE</enabled>
									<locked>FALSE</locked>
								</track>
							</video>
							<audio>
								<numOutputChannels>2</numOutputChannels>
								<format>
									<samplecharacteristics>
										<depth>16</depth>
										<samplerate>44100</samplerate>
									</samplecharacteristics>
								</format>
								<outputs>
									<group>
										<index>1</index>
										<numchannels>1</numchannels>
										<downmix>0</downmix>
										<channel>
											<index>1</index>
										</channel>
									</group>
									<group>
										<index>2</index>
										<numchannels>1</numchannels>
										<downmix>0</downmix>
										<channel>
											<index>2</index>
										</channel>
									</group>
								</outputs>
								<track TL.SQTrackAudioKeyframeStyle="0" TL.SQTrackShy="0" TL.SQTrackExpandedHeight="25" TL.SQTrackExpanded="0" MZ.TrackTargeted="1" PannerCurrentValue="0.5" PannerIsInverted="true" PannerStartKeyframe="-91445760000000000,0.5,0,0,0,0,0,0" PannerName="Balance" currentExplodedTrackIndex="0" totalExplodedTrackCount="2" premiereTrackType="Stereo">
									<clipitem id="clipitem-181" premiereChannelType="stereo">
										<masterclipid>masterclip-98</masterclipid>
										<name># Oddly Logo Slime Transition.mov</name>
										<enabled>TRUE</enabled>
										<duration>180</duration>
										<rate>
											<timebase>30</timebase>
											<ntsc>TRUE</ntsc>
										</rate>
										<start>0</start>
										<end>-1</end>
										<in>0</in>
										<out>180</out>
										<pproTicksIn>0</pproTicksIn>
										<pproTicksOut>1525620096000</pproTicksOut>
										<file id="file-98"/>
										<sourcetrack>
											<mediatype>audio</mediatype>
											<trackindex>1</trackindex>
										</sourcetrack>
										<filter>
											<effect>
												<name>Gain</name>
												<effectid>{61756678, 4761696e, 4b657947}</effectid>
												<effecttype>filter</effecttype>
												<mediatype>audio</mediatype>
												<parameter authoringApp="PremierePro">
													<parameterid>Gain(dB)</parameterid>
													<name>Gain(dB)</name>
													<valuemin>-96</valuemin>
													<valuemax>96</valuemax>
													<value>10</value>
												</parameter>
											</effect>
										</filter>
										<link>
											<linkclipref>clipitem-180</linkclipref>
											<mediatype>video</mediatype>
											<trackindex>1</trackindex>
											<clipindex>1</clipindex>
										</link>
										<link>
											<linkclipref>clipitem-181</linkclipref>
											<mediatype>audio</mediatype>
											<trackindex>1</trackindex>
											<clipindex>1</clipindex>
											<groupindex>1</groupindex>
										</link>
										<link>
											<linkclipref>clipitem-182</linkclipref>
											<mediatype>audio</mediatype>
											<trackindex>2</trackindex>
											<clipindex>1</clipindex>
											<groupindex>1</groupindex>
										</link>
										<logginginfo>
											<description></description>
											<scene></scene>
											<shottake></shottake>
											<lognote></lognote>
											<good></good>
											<originalvideofilename></originalvideofilename>
											<originalaudiofilename></originalaudiofilename>
										</logginginfo>
										<colorinfo>
											<lut></lut>
											<lut1></lut1>
											<asc_sop></asc_sop>
											<asc_sat></asc_sat>
											<lut2></lut2>
										</colorinfo>
										<labels>
											<label2>Iris</label2>
										</labels>
									</clipitem>
									<transitionitem>
										<start>150</start>
										<end>180</end>
										<pproTicksIn>1271350080000</pproTicksIn>
										<pproTicksOut>1525620096000</pproTicksOut>
										<alignment>end-black</alignment>
										<cutPointTicks>254270016000</cutPointTicks>
										<rate>
											<timebase>30</timebase>
											<ntsc>TRUE</ntsc>
										</rate>
										<effect>
											<name>Cross Fade (+3dB)</name>
											<effectid>KGAudioTransCrossFade3dB</effectid>
											<effecttype>transition</effecttype>
											<mediatype>audio</mediatype>
											<wipecode>0</wipecode>
											<wipeaccuracy>100</wipeaccuracy>
											<startratio>0</startratio>
											<endratio>1</endratio>
											<reverse>FALSE</reverse>
										</effect>
									</transitionitem>
									<enabled>TRUE</enabled>
									<locked>FALSE</locked>
									<outputchannelindex>1</outputchannelindex>
								</track>
								<track TL.SQTrackAudioKeyframeStyle="0" TL.SQTrackShy="0" TL.SQTrackExpandedHeight="25" TL.SQTrackExpanded="0" MZ.TrackTargeted="1" PannerCurrentValue="0.5" PannerIsInverted="true" PannerStartKeyframe="-91445760000000000,0.5,0,0,0,0,0,0" PannerName="Balance" currentExplodedTrackIndex="1" totalExplodedTrackCount="2" premiereTrackType="Stereo">
									<clipitem id="clipitem-182" premiereChannelType="stereo">
										<masterclipid>masterclip-98</masterclipid>
										<name># Oddly Logo Slime Transition.mov</name>
										<enabled>TRUE</enabled>
										<duration>180</duration>
										<rate>
											<timebase>30</timebase>
											<ntsc>TRUE</ntsc>
										</rate>
										<start>0</start>
										<end>-1</end>
										<in>0</in>
										<out>180</out>
										<pproTicksIn>0</pproTicksIn>
										<pproTicksOut>1525620096000</pproTicksOut>
										<file id="file-98"/>
										<sourcetrack>
											<mediatype>audio</mediatype>
											<trackindex>2</trackindex>
										</sourcetrack>
										<filter>
											<effect>
												<name>Gain</name>
												<effectid>{61756678, 4761696e, 4b657947}</effectid>
												<effecttype>filter</effecttype>
												<mediatype>audio</mediatype>
												<parameter authoringApp="PremierePro">
													<parameterid>Gain(dB)</parameterid>
													<name>Gain(dB)</name>
													<valuemin>-96</valuemin>
													<valuemax>96</valuemax>
													<value>10</value>
												</parameter>
											</effect>
										</filter>
										<link>
											<linkclipref>clipitem-180</linkclipref>
											<mediatype>video</mediatype>
											<trackindex>1</trackindex>
											<clipindex>1</clipindex>
										</link>
										<link>
											<linkclipref>clipitem-181</linkclipref>
											<mediatype>audio</mediatype>
											<trackindex>1</trackindex>
											<clipindex>1</clipindex>
											<groupindex>1</groupindex>
										</link>
										<link>
											<linkclipref>clipitem-182</linkclipref>
											<mediatype>audio</mediatype>
											<trackindex>2</trackindex>
											<clipindex>1</clipindex>
											<groupindex>1</groupindex>
										</link>
										<logginginfo>
											<description></description>
											<scene></scene>
											<shottake></shottake>
											<lognote></lognote>
											<good></good>
											<originalvideofilename></originalvideofilename>
											<originalaudiofilename></originalaudiofilename>
										</logginginfo>
										<colorinfo>
											<lut></lut>
											<lut1></lut1>
											<asc_sop></asc_sop>
											<asc_sat></asc_sat>
											<lut2></lut2>
										</colorinfo>
										<labels>
											<label2>Iris</label2>
										</labels>
									</clipitem>
									<transitionitem>
										<start>150</start>
										<end>180</end>
										<pproTicksIn>1271350080000</pproTicksIn>
										<pproTicksOut>1525620096000</pproTicksOut>
										<alignment>end-black</alignment>
										<cutPointTicks>254270016000</cutPointTicks>
										<rate>
											<timebase>30</timebase>
											<ntsc>TRUE</ntsc>
										</rate>
										<effect>
											<name>Cross Fade (+3dB)</name>
											<effectid>KGAudioTransCrossFade3dB</effectid>
											<effecttype>transition</effecttype>
											<mediatype>audio</mediatype>
											<wipecode>0</wipecode>
											<wipeaccuracy>100</wipeaccuracy>
											<startratio>0</startratio>
											<endratio>1</endratio>
											<reverse>FALSE</reverse>
										</effect>
									</transitionitem>
									<enabled>TRUE</enabled>
									<locked>FALSE</locked>
									<outputchannelindex>2</outputchannelindex>
								</track>
							</audio>
						</media>
						<timecode>
							<rate>
								<timebase>30</timebase>
								<ntsc>TRUE</ntsc>
							</rate>
							<string>00:00:00:00</string>
							<frame>0</frame>
							<displayformat>NDF</displayformat>
						</timecode>
							<marker>
								<comment></comment>
								<name></name>
								<in>164</in>
								<out>-1</out>
							</marker>
						<labels>
							<label2>Iris</label2>
						</labels>
						<logginginfo>
							<description></description>
							<scene></scene>
							<shottake></shottake>
							<lognote></lognote>
							<good></good>
							<originalvideofilename></originalvideofilename>
							<originalaudiofilename></originalaudiofilename>
						</logginginfo>
					</sequence>
				</children>
			</bin>
			<bin>
				<name>03_Nest Sequences</name>
				<labels>
					<label2>Brown</label2>
				</labels>
				<children>
					<bin>
						<name>SET</name>
						<children>
							<sequence id="sequence-11" TL.SQAudioVisibleBase="0" TL.SQVideoVisibleBase="0" TL.SQVisibleBaseTime="0" TL.SQAVDividerPosition="0.5" TL.SQHideShyTracks="0" TL.SQHeaderWidth="236" Monitor.ProgramZoomOut="17502252768000" Monitor.ProgramZoomIn="0" TL.SQTimePerPixel="0.069092584062642445" MZ.EditLine="15586751980800" MZ.Sequence.PreviewFrameSizeHeight="1080" MZ.Sequence.PreviewFrameSizeWidth="1080" MZ.Sequence.AudioTimeDisplayFormat="200" MZ.Sequence.PreviewRenderingClassID="1297106761" MZ.Sequence.PreviewRenderingPresetCodec="1297107278" MZ.Sequence.PreviewRenderingPresetPath="EncoderPresets/SequencePreview/795454d9-d3c2-429d-9474-923ab13b7018/I-Frame Only MPEG.epr" MZ.Sequence.PreviewUseMaxRenderQuality="false" MZ.Sequence.PreviewUseMaxBitDepth="false" MZ.Sequence.EditingModeGUID="795454d9-d3c2-429d-9474-923ab13b7018" MZ.Sequence.VideoTimeDisplayFormat="103" MZ.WorkOutPoint="26757681350400" MZ.WorkInPoint="0" explodedTracks="true">
								<uuid>371ed579-694d-4f4b-b539-5a3532331293</uuid>
								<duration>2065</duration>
								<rate>
									<timebase>30</timebase>
									<ntsc>TRUE</ntsc>
								</rate>
								<out>2065</out>
								<name>artnest</name>
								<media>
									<video>
										<format>
											<samplecharacteristics>
												<rate>
													<timebase>30</timebase>
													<ntsc>TRUE</ntsc>
												</rate>
												<codec>
													<name>Apple ProRes 422</name>
													<appspecificdata>
														<appname>Final Cut Pro</appname>
														<appmanufacturer>Apple Inc.</appmanufacturer>
														<appversion>7.0</appversion>
														<data>
															<qtcodec>
																<codecname>Apple ProRes 422</codecname>
																<codectypename>Apple ProRes 422</codectypename>
																<codectypecode>apcn</codectypecode>
																<codecvendorcode>appl</codecvendorcode>
																<spatialquality>1024</spatialquality>
																<temporalquality>0</temporalquality>
																<keyframerate>0</keyframerate>
																<datarate>0</datarate>
															</qtcodec>
														</data>
													</appspecificdata>
												</codec>
												<width>1080</width>
												<height>1080</height>
												<anamorphic>FALSE</anamorphic>
												<pixelaspectratio>square</pixelaspectratio>
												<fielddominance>none</fielddominance>
												<colordepth>24</colordepth>
											</samplecharacteristics>
										</format>
										<track TL.SQTrackShy="0" TL.SQTrackExpandedHeight="25" TL.SQTrackExpanded="0" MZ.TrackTargeted="1">
											<clipitem id="clipitem-183">
												<masterclipid>masterclip-102</masterclipid>
												<name>1273 - ART_@_artisticlifestyle6_1m50s.mp4</name>
												<enabled>TRUE</enabled>
												<duration>3157</duration>
												<rate>
													<timebase>30</timebase>
													<ntsc>TRUE</ntsc>
												</rate>
												<start>0</start>
												<end>1272</end>
												<in>0</in>
												<out>1272</out>
												<pproTicksIn>0</pproTicksIn>
												<pproTicksOut>10781048678400</pproTicksOut>
												<alphatype>none</alphatype>
												<pixelaspectratio>square</pixelaspectratio>
												<anamorphic>FALSE</anamorphic>
												<file id="file-102">
													<name>1273 - ART_@_artisticlifestyle6_1m50s.mp4</name>
													<pathurl>file://localhost/Volumes/Satisfactum%20Satisfactorum/03_Weekly%20(Project%20Files,%20Main%20Segments)/OSTV/OSTV%2023-08-28/3_Raw%20Files/04-17/1273%20-%20ART_@_artisticlifestyle6_1m50s.mp4</pathurl>
													<rate>
														<timebase>30</timebase>
														<ntsc>TRUE</ntsc>
													</rate>
													<duration>3157</duration>
													<timecode>
														<rate>
															<timebase>30</timebase>
															<ntsc>TRUE</ntsc>
														</rate>
														<string>00:00:00:00</string>
														<frame>0</frame>
														<displayformat>NDF</displayformat>
													</timecode>
													<media>
														<video>
															<samplecharacteristics>
																<rate>
																	<timebase>30</timebase>
																	<ntsc>TRUE</ntsc>
																</rate>
																<width>1280</width>
																<height>720</height>
																<anamorphic>FALSE</anamorphic>
																<pixelaspectratio>square</pixelaspectratio>
																<fielddominance>none</fielddominance>
															</samplecharacteristics>
														</video>
														<audio>
															<samplecharacteristics>
																<depth>16</depth>
																<samplerate>32000</samplerate>
															</samplecharacteristics>
															<channelcount>2</channelcount>
														</audio>
													</media>
												</file>
												<filter>
													<effect>
														<name>Basic Motion</name>
														<effectid>basic</effectid>
														<effectcategory>motion</effectcategory>
														<effecttype>motion</effecttype>
														<mediatype>video</mediatype>
														<pproBypass>false</pproBypass>
														<parameter authoringApp="PremierePro">
															<parameterid>scale</parameterid>
															<name>Scale</name>
															<valuemin>0</valuemin>
															<valuemax>1000</valuemax>
															<value>273</value>
														</parameter>
														<parameter authoringApp="PremierePro">
															<parameterid>rotation</parameterid>
															<name>Rotation</name>
															<valuemin>-8640</valuemin>
															<valuemax>8640</valuemax>
															<value>0</value>
														</parameter>
														<parameter authoringApp="PremierePro">
															<parameterid>center</parameterid>
															<name>Center</name>
															<value>
																<horiz>0</horiz>
																<vert>0</vert>
															</value>
														</parameter>
														<parameter authoringApp="PremierePro">
															<parameterid>centerOffset</parameterid>
															<name>Anchor Point</name>
															<value>
																<horiz>0</horiz>
																<vert>0</vert>
															</value>
														</parameter>
														<parameter authoringApp="PremierePro">
															<parameterid>antiflicker</parameterid>
															<name>Anti-flicker Filter</name>
															<valuemin>0.0</valuemin>
															<valuemax>1.0</valuemax>
															<value>0</value>
														</parameter>
													</effect>
												</filter>
												<logginginfo>
													<description></description>
													<scene></scene>
													<shottake></shottake>
													<lognote></lognote>
													<good></good>
													<originalvideofilename></originalvideofilename>
													<originalaudiofilename></originalaudiofilename>
												</logginginfo>
												<colorinfo>
													<lut></lut>
													<lut1></lut1>
													<asc_sop></asc_sop>
													<asc_sat></asc_sat>
													<lut2></lut2>
												</colorinfo>
												<labels>
													<label2>Iris</label2>
												</labels>
											</clipitem>
											<clipitem id="clipitem-184">
												<masterclipid>masterclip-102</masterclipid>
												<name>1273 - ART_@_artisticlifestyle6_1m50s.mp4</name>
												<enabled>TRUE</enabled>
												<duration>3157</duration>
												<rate>
													<timebase>30</timebase>
													<ntsc>TRUE</ntsc>
												</rate>
												<start>1272</start>
												<end>1995</end>
												<in>1272</in>
												<out>1995</out>
												<pproTicksIn>10781048678400</pproTicksIn>
												<pproTicksOut>16908956064000</pproTicksOut>
												<alphatype>none</alphatype>
												<file id="file-102"/>
												<filter>
													<effect>
														<name>Basic Motion</name>
														<effectid>basic</effectid>
														<effectcategory>motion</effectcategory>
														<effecttype>motion</effecttype>
														<mediatype>video</mediatype>
														<pproBypass>false</pproBypass>
														<parameter authoringApp="PremierePro">
															<parameterid>scale</parameterid>
															<name>Scale</name>
															<valuemin>0</valuemin>
															<valuemax>1000</valuemax>
															<value>273</value>
														</parameter>
														<parameter authoringApp="PremierePro">
															<parameterid>rotation</parameterid>
															<name>Rotation</name>
															<valuemin>-8640</valuemin>
															<valuemax>8640</valuemax>
															<value>0</value>
														</parameter>
														<parameter authoringApp="PremierePro">
															<parameterid>center</parameterid>
															<name>Center</name>
															<value>
																<horiz>0.0210937</horiz>
																<vert>-0.316667</vert>
															</value>
														</parameter>
														<parameter authoringApp="PremierePro">
															<parameterid>centerOffset</parameterid>
															<name>Anchor Point</name>
															<value>
																<horiz>0</horiz>
																<vert>0</vert>
															</value>
														</parameter>
														<parameter authoringApp="PremierePro">
															<parameterid>antiflicker</parameterid>
															<name>Anti-flicker Filter</name>
															<valuemin>0.0</valuemin>
															<valuemax>1.0</valuemax>
															<value>0</value>
														</parameter>
													</effect>
												</filter>
												<logginginfo>
													<description></description>
													<scene></scene>
													<shottake></shottake>
													<lognote></lognote>
													<good></good>
													<originalvideofilename></originalvideofilename>
													<originalaudiofilename></originalaudiofilename>
												</logginginfo>
												<colorinfo>
													<lut></lut>
													<lut1></lut1>
													<asc_sop></asc_sop>
													<asc_sat></asc_sat>
													<lut2></lut2>
												</colorinfo>
												<labels>
													<label2>Iris</label2>
												</labels>
											</clipitem>
											<clipitem id="clipitem-185">
												<masterclipid>masterclip-102</masterclipid>
												<name>1273 - ART_@_artisticlifestyle6_1m50s.mp4</name>
												<enabled>TRUE</enabled>
												<duration>3157</duration>
												<rate>
													<timebase>30</timebase>
													<ntsc>TRUE</ntsc>
												</rate>
												<start>1995</start>
												<end>2065</end>
												<in>1995</in>
												<out>2065</out>
												<pproTicksIn>16908956064000</pproTicksIn>
												<pproTicksOut>17502252768000</pproTicksOut>
												<alphatype>none</alphatype>
												<file id="file-102"/>
												<filter>
													<effect>
														<name>Basic Motion</name>
														<effectid>basic</effectid>
														<effectcategory>motion</effectcategory>
														<effecttype>motion</effecttype>
														<mediatype>video</mediatype>
														<pproBypass>false</pproBypass>
														<parameter authoringApp="PremierePro">
															<parameterid>scale</parameterid>
															<name>Scale</name>
															<valuemin>0</valuemin>
															<valuemax>1000</valuemax>
															<value>273</value>
														</parameter>
														<parameter authoringApp="PremierePro">
															<parameterid>rotation</parameterid>
															<name>Rotation</name>
															<valuemin>-8640</valuemin>
															<valuemax>8640</valuemax>
															<value>0</value>
														</parameter>
														<parameter authoringApp="PremierePro">
															<parameterid>center</parameterid>
															<name>Center</name>
															<value>
																<horiz>0</horiz>
																<vert>0</vert>
															</value>
														</parameter>
														<parameter authoringApp="PremierePro">
															<parameterid>centerOffset</parameterid>
															<name>Anchor Point</name>
															<value>
																<horiz>0</horiz>
																<vert>0</vert>
															</value>
														</parameter>
														<parameter authoringApp="PremierePro">
															<parameterid>antiflicker</parameterid>
															<name>Anti-flicker Filter</name>
															<valuemin>0.0</valuemin>
															<valuemax>1.0</valuemax>
															<value>0</value>
														</parameter>
													</effect>
												</filter>
												<logginginfo>
													<description></description>
													<scene></scene>
													<shottake></shottake>
													<lognote></lognote>
													<good></good>
													<originalvideofilename></originalvideofilename>
													<originalaudiofilename></originalaudiofilename>
												</logginginfo>
												<colorinfo>
													<lut></lut>
													<lut1></lut1>
													<asc_sop></asc_sop>
													<asc_sat></asc_sat>
													<lut2></lut2>
												</colorinfo>
												<labels>
													<label2>Iris</label2>
												</labels>
											</clipitem>
											<enabled>TRUE</enabled>
											<locked>FALSE</locked>
										</track>
									</video>
									<audio>
										<numOutputChannels>2</numOutputChannels>
										<format>
											<samplecharacteristics>
												<depth>16</depth>
												<samplerate>44100</samplerate>
											</samplecharacteristics>
										</format>
										<outputs>
											<group>
												<index>1</index>
												<numchannels>1</numchannels>
												<downmix>0</downmix>
												<channel>
													<index>1</index>
												</channel>
											</group>
											<group>
												<index>2</index>
												<numchannels>1</numchannels>
												<downmix>0</downmix>
												<channel>
													<index>2</index>
												</channel>
											</group>
										</outputs>
										<track TL.SQTrackAudioKeyframeStyle="0" TL.SQTrackShy="0" TL.SQTrackExpandedHeight="25" TL.SQTrackExpanded="0" MZ.TrackTargeted="1" PannerCurrentValue="0.5" PannerIsInverted="true" PannerStartKeyframe="-91445760000000000,0.5,0,0,0,0,0,0" PannerName="Balance" currentExplodedTrackIndex="0" totalExplodedTrackCount="2" premiereTrackType="Stereo">
											<enabled>TRUE</enabled>
											<locked>FALSE</locked>
											<outputchannelindex>1</outputchannelindex>
										</track>
										<track TL.SQTrackAudioKeyframeStyle="0" TL.SQTrackShy="0" TL.SQTrackExpandedHeight="25" TL.SQTrackExpanded="0" MZ.TrackTargeted="1" PannerCurrentValue="0.5" PannerIsInverted="true" PannerStartKeyframe="-91445760000000000,0.5,0,0,0,0,0,0" PannerName="Balance" currentExplodedTrackIndex="1" totalExplodedTrackCount="2" premiereTrackType="Stereo">
											<enabled>TRUE</enabled>
											<locked>FALSE</locked>
											<outputchannelindex>2</outputchannelindex>
										</track>
									</audio>
								</media>
								<timecode>
									<rate>
										<timebase>30</timebase>
										<ntsc>TRUE</ntsc>
									</rate>
									<string>00:00:00:00</string>
									<frame>0</frame>
									<displayformat>NDF</displayformat>
								</timecode>
								<labels>
									<label2>Forest</label2>
								</labels>
								<logginginfo>
									<description></description>
									<scene></scene>
									<shottake></shottake>
									<lognote></lognote>
									<good></good>
									<originalvideofilename></originalvideofilename>
									<originalaudiofilename></originalaudiofilename>
								</logginginfo>
							</sequence>
							<sequence id="sequence-12" TL.SQAudioVisibleBase="0" TL.SQVideoVisibleBase="0" TL.SQVisibleBaseTime="0" TL.SQAVDividerPosition="0.5" TL.SQHideShyTracks="0" TL.SQHeaderWidth="236" Monitor.ProgramZoomOut="18654943507200" Monitor.ProgramZoomIn="0" TL.SQTimePerPixel="0.27637033625057528" MZ.EditLine="18748175846400" MZ.Sequence.PreviewFrameSizeHeight="1080" MZ.Sequence.PreviewFrameSizeWidth="1080" MZ.Sequence.AudioTimeDisplayFormat="200" MZ.Sequence.PreviewRenderingClassID="1297106761" MZ.Sequence.PreviewRenderingPresetCodec="1297107278" MZ.Sequence.PreviewRenderingPresetPath="EncoderPresets/SequencePreview/795454d9-d3c2-429d-9474-923ab13b7018/I-Frame Only MPEG.epr" MZ.Sequence.PreviewUseMaxRenderQuality="false" MZ.Sequence.PreviewUseMaxBitDepth="false" MZ.Sequence.EditingModeGUID="795454d9-d3c2-429d-9474-923ab13b7018" MZ.Sequence.VideoTimeDisplayFormat="103" MZ.WorkOutPoint="18654943507200" MZ.WorkInPoint="0" explodedTracks="true">
								<uuid>2d3dd41d-d11c-4a01-a474-22bda7061508</uuid>
								<duration>2201</duration>
								<rate>
									<timebase>30</timebase>
									<ntsc>TRUE</ntsc>
								</rate>
								<name>illuminatednest</name>
								<media>
									<video>
										<format>
											<samplecharacteristics>
												<rate>
													<timebase>30</timebase>
													<ntsc>TRUE</ntsc>
												</rate>
												<codec>
													<name>Apple ProRes 422</name>
													<appspecificdata>
														<appname>Final Cut Pro</appname>
														<appmanufacturer>Apple Inc.</appmanufacturer>
														<appversion>7.0</appversion>
														<data>
															<qtcodec>
																<codecname>Apple ProRes 422</codecname>
																<codectypename>Apple ProRes 422</codectypename>
																<codectypecode>apcn</codectypecode>
																<codecvendorcode>appl</codecvendorcode>
																<spatialquality>1024</spatialquality>
																<temporalquality>0</temporalquality>
																<keyframerate>0</keyframerate>
																<datarate>0</datarate>
															</qtcodec>
														</data>
													</appspecificdata>
												</codec>
												<width>1080</width>
												<height>1080</height>
												<anamorphic>FALSE</anamorphic>
												<pixelaspectratio>square</pixelaspectratio>
												<fielddominance>none</fielddominance>
												<colordepth>24</colordepth>
											</samplecharacteristics>
										</format>
										<track TL.SQTrackShy="0" TL.SQTrackExpandedHeight="25" TL.SQTrackExpanded="0" MZ.TrackTargeted="1">
											<clipitem id="clipitem-186">
												<masterclipid>masterclip-103</masterclipid>
												<name>1273 - SAT_illuminatedbymia_1m15s.mp4</name>
												<enabled>TRUE</enabled>
												<duration>2201</duration>
												<rate>
													<timebase>30</timebase>
													<ntsc>TRUE</ntsc>
												</rate>
												<start>0</start>
												<end>2201</end>
												<in>0</in>
												<out>2201</out>
												<pproTicksIn>0</pproTicksIn>
												<pproTicksOut>18654943507200</pproTicksOut>
												<alphatype>none</alphatype>
												<pixelaspectratio>square</pixelaspectratio>
												<anamorphic>FALSE</anamorphic>
												<file id="file-103">
													<name>1273 - SAT_illuminatedbymia_1m15s.mp4</name>
													<pathurl>file://localhost/Volumes/Satisfactum%20Satisfactorum/03_Weekly%20(Project%20Files,%20Main%20Segments)/OSTV/OSTV%2023-08-28/3_Raw%20Files/04-17/1273%20-%20SAT_illuminatedbymia_1m15s.mp4</pathurl>
													<rate>
														<timebase>30</timebase>
														<ntsc>TRUE</ntsc>
													</rate>
													<duration>2201</duration>
													<timecode>
														<rate>
															<timebase>30</timebase>
															<ntsc>TRUE</ntsc>
														</rate>
														<string>00:00:00:00</string>
														<frame>0</frame>
														<displayformat>NDF</displayformat>
													</timecode>
													<media>
														<video>
															<samplecharacteristics>
																<rate>
																	<timebase>30</timebase>
																	<ntsc>TRUE</ntsc>
																</rate>
																<width>1280</width>
																<height>720</height>
																<anamorphic>FALSE</anamorphic>
																<pixelaspectratio>square</pixelaspectratio>
																<fielddominance>none</fielddominance>
															</samplecharacteristics>
														</video>
														<audio>
															<samplecharacteristics>
																<depth>16</depth>
																<samplerate>32000</samplerate>
															</samplecharacteristics>
															<channelcount>2</channelcount>
														</audio>
													</media>
												</file>
												<filter>
													<effect>
														<name>Basic Motion</name>
														<effectid>basic</effectid>
														<effectcategory>motion</effectcategory>
														<effecttype>motion</effecttype>
														<mediatype>video</mediatype>
														<pproBypass>false</pproBypass>
														<parameter authoringApp="PremierePro">
															<parameterid>scale</parameterid>
															<name>Scale</name>
															<valuemin>0</valuemin>
															<valuemax>1000</valuemax>
															<value>275</value>
														</parameter>
														<parameter authoringApp="PremierePro">
															<parameterid>rotation</parameterid>
															<name>Rotation</name>
															<valuemin>-8640</valuemin>
															<valuemax>8640</valuemax>
															<value>0</value>
														</parameter>
														<parameter authoringApp="PremierePro">
															<parameterid>center</parameterid>
															<name>Center</name>
															<value>
																<horiz>0</horiz>
																<vert>0</vert>
															</value>
														</parameter>
														<parameter authoringApp="PremierePro">
															<parameterid>centerOffset</parameterid>
															<name>Anchor Point</name>
															<value>
																<horiz>0</horiz>
																<vert>0</vert>
															</value>
														</parameter>
														<parameter authoringApp="PremierePro">
															<parameterid>antiflicker</parameterid>
															<name>Anti-flicker Filter</name>
															<valuemin>0.0</valuemin>
															<valuemax>1.0</valuemax>
															<value>0</value>
														</parameter>
													</effect>
												</filter>
												<logginginfo>
													<description></description>
													<scene></scene>
													<shottake></shottake>
													<lognote></lognote>
													<good></good>
													<originalvideofilename></originalvideofilename>
													<originalaudiofilename></originalaudiofilename>
												</logginginfo>
												<colorinfo>
													<lut></lut>
													<lut1></lut1>
													<asc_sop></asc_sop>
													<asc_sat></asc_sat>
													<lut2></lut2>
												</colorinfo>
												<labels>
													<label2>Iris</label2>
												</labels>
											</clipitem>
											<enabled>TRUE</enabled>
											<locked>FALSE</locked>
										</track>
									</video>
									<audio>
										<numOutputChannels>2</numOutputChannels>
										<format>
											<samplecharacteristics>
												<depth>16</depth>
												<samplerate>44100</samplerate>
											</samplecharacteristics>
										</format>
										<outputs>
											<group>
												<index>1</index>
												<numchannels>1</numchannels>
												<downmix>0</downmix>
												<channel>
													<index>1</index>
												</channel>
											</group>
											<group>
												<index>2</index>
												<numchannels>1</numchannels>
												<downmix>0</downmix>
												<channel>
													<index>2</index>
												</channel>
											</group>
										</outputs>
										<track TL.SQTrackAudioKeyframeStyle="0" TL.SQTrackShy="0" TL.SQTrackExpandedHeight="25" TL.SQTrackExpanded="0" MZ.TrackTargeted="1" PannerCurrentValue="0.5" PannerIsInverted="true" PannerStartKeyframe="-91445760000000000,0.5,0,0,0,0,0,0" PannerName="Balance" currentExplodedTrackIndex="0" totalExplodedTrackCount="2" premiereTrackType="Stereo">
											<enabled>TRUE</enabled>
											<locked>FALSE</locked>
											<outputchannelindex>1</outputchannelindex>
										</track>
										<track TL.SQTrackAudioKeyframeStyle="0" TL.SQTrackShy="0" TL.SQTrackExpandedHeight="25" TL.SQTrackExpanded="0" MZ.TrackTargeted="1" PannerCurrentValue="0.5" PannerIsInverted="true" PannerStartKeyframe="-91445760000000000,0.5,0,0,0,0,0,0" PannerName="Balance" currentExplodedTrackIndex="1" totalExplodedTrackCount="2" premiereTrackType="Stereo">
											<enabled>TRUE</enabled>
											<locked>FALSE</locked>
											<outputchannelindex>2</outputchannelindex>
										</track>
									</audio>
								</media>
								<timecode>
									<rate>
										<timebase>30</timebase>
										<ntsc>TRUE</ntsc>
									</rate>
									<string>00:00:00:00</string>
									<frame>0</frame>
									<displayformat>NDF</displayformat>
								</timecode>
								<labels>
									<label2>Forest</label2>
								</labels>
								<logginginfo>
									<description></description>
									<scene></scene>
									<shottake></shottake>
									<lognote></lognote>
									<good></good>
									<originalvideofilename></originalvideofilename>
									<originalaudiofilename></originalaudiofilename>
								</logginginfo>
							</sequence>
							<sequence id="sequence-13" TL.SQVisibleBaseTime="0" TL.SQTimePerPixel="0.27637033625057528" MZ.Sequence.PreviewFrameSizeHeight="1080" MZ.Sequence.PreviewFrameSizeWidth="1920" MZ.Sequence.AudioTimeDisplayFormat="200" MZ.Sequence.PreviewRenderingClassID="1297106761" MZ.Sequence.PreviewRenderingPresetCodec="1297107278" MZ.Sequence.PreviewRenderingPresetPath="EncoderPresets/SequencePreview/795454d9-d3c2-429d-9474-923ab13b7018/I-Frame Only MPEG.epr" MZ.Sequence.PreviewUseMaxRenderQuality="false" MZ.Sequence.PreviewUseMaxBitDepth="false" MZ.Sequence.EditingModeGUID="795454d9-d3c2-429d-9474-923ab13b7018" MZ.Sequence.VideoTimeDisplayFormat="103" MZ.WorkOutPoint="22460518080000" MZ.WorkInPoint="0" explodedTracks="true">
								<uuid>c6726aa2-6b27-4ed5-bc79-c51d6390a8e6</uuid>
								<duration>2650</duration>
								<rate>
									<timebase>30</timebase>
									<ntsc>TRUE</ntsc>
								</rate>
								<name>4trackingnest01</name>
								<media>
									<video>
										<format>
											<samplecharacteristics>
												<rate>
													<timebase>30</timebase>
													<ntsc>TRUE</ntsc>
												</rate>
												<codec>
													<name>Apple ProRes 422</name>
													<appspecificdata>
														<appname>Final Cut Pro</appname>
														<appmanufacturer>Apple Inc.</appmanufacturer>
														<appversion>7.0</appversion>
														<data>
															<qtcodec>
																<codecname>Apple ProRes 422</codecname>
																<codectypename>Apple ProRes 422</codectypename>
																<codectypecode>apcn</codectypecode>
																<codecvendorcode>appl</codecvendorcode>
																<spatialquality>1024</spatialquality>
																<temporalquality>0</temporalquality>
																<keyframerate>0</keyframerate>
																<datarate>0</datarate>
															</qtcodec>
														</data>
													</appspecificdata>
												</codec>
												<width>1920</width>
												<height>1080</height>
												<anamorphic>FALSE</anamorphic>
												<pixelaspectratio>square</pixelaspectratio>
												<fielddominance>none</fielddominance>
												<colordepth>24</colordepth>
											</samplecharacteristics>
										</format>
										<track TL.SQTrackExpandedHeight="25" TL.SQTrackExpanded="0" MZ.TrackTargeted="1">
											<clipitem id="clipitem-187">
												<masterclipid>masterclip-104</masterclipid>
												<name>1237 - SAT_Squishybunnii_1m30s.mp4</name>
												<enabled>TRUE</enabled>
												<duration>2650</duration>
												<rate>
													<timebase>30</timebase>
													<ntsc>TRUE</ntsc>
												</rate>
												<start>0</start>
												<end>2650</end>
												<in>0</in>
												<out>2650</out>
												<pproTicksIn>0</pproTicksIn>
												<pproTicksOut>22460518080000</pproTicksOut>
												<alphatype>none</alphatype>
												<pixelaspectratio>square</pixelaspectratio>
												<anamorphic>FALSE</anamorphic>
												<file id="file-104">
													<name>1237 - SAT_Squishybunnii_1m30s.mp4</name>
													<pathurl>file://localhost/Volumes/Satisfactum%20Satisfactorum/03_Weekly%20(Project%20Files,%20Main%20Segments)/OSTV/OSTV%2023-08-28/3_Raw%20Files/04-03/1237%20-%20SAT_Squishybunnii_1m30s.mp4</pathurl>
													<rate>
														<timebase>30</timebase>
														<ntsc>TRUE</ntsc>
													</rate>
													<duration>2650</duration>
													<timecode>
														<rate>
															<timebase>30</timebase>
															<ntsc>TRUE</ntsc>
														</rate>
														<string>00:00:00:00</string>
														<frame>0</frame>
														<displayformat>NDF</displayformat>
													</timecode>
													<media>
														<video>
															<samplecharacteristics>
																<rate>
																	<timebase>30</timebase>
																	<ntsc>TRUE</ntsc>
																</rate>
																<width>1280</width>
																<height>720</height>
																<anamorphic>FALSE</anamorphic>
																<pixelaspectratio>square</pixelaspectratio>
																<fielddominance>none</fielddominance>
															</samplecharacteristics>
														</video>
														<audio>
															<samplecharacteristics>
																<depth>16</depth>
																<samplerate>32000</samplerate>
															</samplecharacteristics>
															<channelcount>2</channelcount>
														</audio>
													</media>
												</file>
												<filter>
													<effect>
														<name>Basic Motion</name>
														<effectid>basic</effectid>
														<effectcategory>motion</effectcategory>
														<effecttype>motion</effecttype>
														<mediatype>video</mediatype>
														<pproBypass>false</pproBypass>
														<parameter authoringApp="PremierePro">
															<parameterid>scale</parameterid>
															<name>Scale</name>
															<valuemin>0</valuemin>
															<valuemax>1000</valuemax>
															<value>150</value>
														</parameter>
														<parameter authoringApp="PremierePro">
															<parameterid>rotation</parameterid>
															<name>Rotation</name>
															<valuemin>-8640</valuemin>
															<valuemax>8640</valuemax>
															<value>0</value>
														</parameter>
														<parameter authoringApp="PremierePro">
															<parameterid>center</parameterid>
															<name>Center</name>
															<value>
																<horiz>0</horiz>
																<vert>0</vert>
															</value>
														</parameter>
														<parameter authoringApp="PremierePro">
															<parameterid>centerOffset</parameterid>
															<name>Anchor Point</name>
															<value>
																<horiz>0</horiz>
																<vert>0</vert>
															</value>
														</parameter>
														<parameter authoringApp="PremierePro">
															<parameterid>antiflicker</parameterid>
															<name>Anti-flicker Filter</name>
															<valuemin>0.0</valuemin>
															<valuemax>1.0</valuemax>
															<value>0</value>
														</parameter>
													</effect>
												</filter>
												<logginginfo>
													<description></description>
													<scene></scene>
													<shottake></shottake>
													<lognote></lognote>
													<good></good>
													<originalvideofilename></originalvideofilename>
													<originalaudiofilename></originalaudiofilename>
												</logginginfo>
												<colorinfo>
													<lut></lut>
													<lut1></lut1>
													<asc_sop></asc_sop>
													<asc_sat></asc_sat>
													<lut2></lut2>
												</colorinfo>
												<labels>
													<label2>Iris</label2>
												</labels>
											</clipitem>
											<enabled>TRUE</enabled>
											<locked>FALSE</locked>
										</track>
									</video>
									<audio>
										<numOutputChannels>2</numOutputChannels>
										<format>
											<samplecharacteristics>
												<depth>16</depth>
												<samplerate>44100</samplerate>
											</samplecharacteristics>
										</format>
										<outputs>
											<group>
												<index>1</index>
												<numchannels>1</numchannels>
												<downmix>0</downmix>
												<channel>
													<index>1</index>
												</channel>
											</group>
											<group>
												<index>2</index>
												<numchannels>1</numchannels>
												<downmix>0</downmix>
												<channel>
													<index>2</index>
												</channel>
											</group>
										</outputs>
										<track TL.SQTrackExpandedHeight="25" TL.SQTrackExpanded="0" MZ.TrackTargeted="1" PannerCurrentValue="0.5" PannerIsInverted="true" PannerStartKeyframe="-91445760000000000,0.5,0,0,0,0,0,0" PannerName="Balance" currentExplodedTrackIndex="0" totalExplodedTrackCount="2" premiereTrackType="Stereo">
											<enabled>TRUE</enabled>
											<locked>FALSE</locked>
											<outputchannelindex>1</outputchannelindex>
										</track>
										<track TL.SQTrackExpandedHeight="25" TL.SQTrackExpanded="0" MZ.TrackTargeted="1" PannerCurrentValue="0.5" PannerIsInverted="true" PannerStartKeyframe="-91445760000000000,0.5,0,0,0,0,0,0" PannerName="Balance" currentExplodedTrackIndex="1" totalExplodedTrackCount="2" premiereTrackType="Stereo">
											<enabled>TRUE</enabled>
											<locked>FALSE</locked>
											<outputchannelindex>2</outputchannelindex>
										</track>
									</audio>
								</media>
								<timecode>
									<rate>
										<timebase>30</timebase>
										<ntsc>TRUE</ntsc>
									</rate>
									<string>00:00:00:00</string>
									<frame>0</frame>
									<displayformat>NDF</displayformat>
								</timecode>
								<labels>
									<label2>Forest</label2>
								</labels>
								<logginginfo>
									<description></description>
									<scene></scene>
									<shottake></shottake>
									<lognote></lognote>
									<good></good>
									<originalvideofilename></originalvideofilename>
									<originalaudiofilename></originalaudiofilename>
								</logginginfo>
							</sequence>
							<sequence id="sequence-14" TL.SQAudioVisibleBase="0" TL.SQVideoVisibleBase="0" TL.SQVisibleBaseTime="0" TL.SQAVDividerPosition="0.5" TL.SQHideShyTracks="0" TL.SQHeaderWidth="236" Monitor.ProgramZoomOut="22943631110400" Monitor.ProgramZoomIn="0" TL.SQTimePerPixel="0.27637033625057528" MZ.EditLine="14044180550400" MZ.Sequence.PreviewFrameSizeHeight="1080" MZ.Sequence.PreviewFrameSizeWidth="1920" MZ.Sequence.AudioTimeDisplayFormat="200" MZ.Sequence.PreviewRenderingClassID="1297106761" MZ.Sequence.PreviewRenderingPresetCodec="1297107278" MZ.Sequence.PreviewRenderingPresetPath="EncoderPresets/SequencePreview/795454d9-d3c2-429d-9474-923ab13b7018/I-Frame Only MPEG.epr" MZ.Sequence.PreviewUseMaxRenderQuality="false" MZ.Sequence.PreviewUseMaxBitDepth="false" MZ.Sequence.EditingModeGUID="795454d9-d3c2-429d-9474-923ab13b7018" MZ.Sequence.VideoTimeDisplayFormat="103" MZ.WorkOutPoint="22943631110400" MZ.WorkInPoint="0" explodedTracks="true">
								<uuid>2488fca0-01db-49ca-b6f3-0337f02e8e52</uuid>
								<duration>2707</duration>
								<rate>
									<timebase>30</timebase>
									<ntsc>TRUE</ntsc>
								</rate>
								<name>01nest</name>
								<media>
									<video>
										<format>
											<samplecharacteristics>
												<rate>
													<timebase>30</timebase>
													<ntsc>TRUE</ntsc>
												</rate>
												<codec>
													<name>Apple ProRes 422</name>
													<appspecificdata>
														<appname>Final Cut Pro</appname>
														<appmanufacturer>Apple Inc.</appmanufacturer>
														<appversion>7.0</appversion>
														<data>
															<qtcodec>
																<codecname>Apple ProRes 422</codecname>
																<codectypename>Apple ProRes 422</codectypename>
																<codectypecode>apcn</codectypecode>
																<codecvendorcode>appl</codecvendorcode>
																<spatialquality>1024</spatialquality>
																<temporalquality>0</temporalquality>
																<keyframerate>0</keyframerate>
																<datarate>0</datarate>
															</qtcodec>
														</data>
													</appspecificdata>
												</codec>
												<width>1920</width>
												<height>1080</height>
												<anamorphic>FALSE</anamorphic>
												<pixelaspectratio>square</pixelaspectratio>
												<fielddominance>none</fielddominance>
												<colordepth>24</colordepth>
											</samplecharacteristics>
										</format>
										<track TL.SQTrackShy="0" TL.SQTrackExpandedHeight="25" TL.SQTrackExpanded="0" MZ.TrackTargeted="1">
											<clipitem id="clipitem-188">
												<masterclipid>masterclip-105</masterclipid>
												<name>1237 - SAT_clean ceramic coating Throttle unbranded_1m30s.mp4</name>
												<enabled>TRUE</enabled>
												<duration>2707</duration>
												<rate>
													<timebase>30</timebase>
													<ntsc>TRUE</ntsc>
												</rate>
												<start>0</start>
												<end>2707</end>
												<in>0</in>
												<out>2707</out>
												<pproTicksIn>0</pproTicksIn>
												<pproTicksOut>22943631110400</pproTicksOut>
												<alphatype>none</alphatype>
												<pixelaspectratio>square</pixelaspectratio>
												<anamorphic>FALSE</anamorphic>
												<file id="file-105">
													<name>1237 - SAT_clean ceramic coating Throttle unbranded_1m30s.mp4</name>
													<pathurl>file://localhost/Volumes/Satisfactum%20Satisfactorum/03_Weekly%20(Project%20Files,%20Main%20Segments)/OSTV/OSTV%2023-08-28/3_Raw%20Files/04-03/1237%20-%20SAT_clean%20ceramic%20coating%20Throttle%20unbranded_1m30s.mp4</pathurl>
													<rate>
														<timebase>30</timebase>
														<ntsc>TRUE</ntsc>
													</rate>
													<duration>2707</duration>
													<timecode>
														<rate>
															<timebase>30</timebase>
															<ntsc>TRUE</ntsc>
														</rate>
														<string>00:00:00:00</string>
														<frame>0</frame>
														<displayformat>NDF</displayformat>
													</timecode>
													<media>
														<video>
															<samplecharacteristics>
																<rate>
																	<timebase>30</timebase>
																	<ntsc>TRUE</ntsc>
																</rate>
																<width>1280</width>
																<height>720</height>
																<anamorphic>FALSE</anamorphic>
																<pixelaspectratio>square</pixelaspectratio>
																<fielddominance>none</fielddominance>
															</samplecharacteristics>
														</video>
														<audio>
															<samplecharacteristics>
																<depth>16</depth>
																<samplerate>32000</samplerate>
															</samplecharacteristics>
															<channelcount>2</channelcount>
														</audio>
													</media>
												</file>
												<filter>
													<effect>
														<name>Basic Motion</name>
														<effectid>basic</effectid>
														<effectcategory>motion</effectcategory>
														<effecttype>motion</effecttype>
														<mediatype>video</mediatype>
														<pproBypass>false</pproBypass>
														<parameter authoringApp="PremierePro">
															<parameterid>scale</parameterid>
															<name>Scale</name>
															<valuemin>0</valuemin>
															<valuemax>1000</valuemax>
															<value>150</value>
														</parameter>
														<parameter authoringApp="PremierePro">
															<parameterid>rotation</parameterid>
															<name>Rotation</name>
															<valuemin>-8640</valuemin>
															<valuemax>8640</valuemax>
															<value>0</value>
														</parameter>
														<parameter authoringApp="PremierePro">
															<parameterid>center</parameterid>
															<name>Center</name>
															<value>
																<horiz>0</horiz>
																<vert>0</vert>
															</value>
														</parameter>
														<parameter authoringApp="PremierePro">
															<parameterid>centerOffset</parameterid>
															<name>Anchor Point</name>
															<value>
																<horiz>0</horiz>
																<vert>0</vert>
															</value>
														</parameter>
														<parameter authoringApp="PremierePro">
															<parameterid>antiflicker</parameterid>
															<name>Anti-flicker Filter</name>
															<valuemin>0.0</valuemin>
															<valuemax>1.0</valuemax>
															<value>0</value>
														</parameter>
													</effect>
												</filter>
												<logginginfo>
													<description></description>
													<scene></scene>
													<shottake></shottake>
													<lognote></lognote>
													<good></good>
													<originalvideofilename></originalvideofilename>
													<originalaudiofilename></originalaudiofilename>
												</logginginfo>
												<colorinfo>
													<lut></lut>
													<lut1></lut1>
													<asc_sop></asc_sop>
													<asc_sat></asc_sat>
													<lut2></lut2>
												</colorinfo>
												<labels>
													<label2>Iris</label2>
												</labels>
											</clipitem>
											<enabled>TRUE</enabled>
											<locked>FALSE</locked>
										</track>
										<track TL.SQTrackShy="0" TL.SQTrackExpandedHeight="25" TL.SQTrackExpanded="0" MZ.TrackTargeted="0">
											<clipitem id="clipitem-189">
												<masterclipid>masterclip-106</masterclipid>
												<name>Bug and Lower Nest</name>
												<enabled>TRUE</enabled>
												<duration>14721</duration>
												<rate>
													<timebase>30</timebase>
													<ntsc>TRUE</ntsc>
												</rate>
												<start>0</start>
												<end>2707</end>
												<in>0</in>
												<out>2707</out>
												<pproTicksIn>0</pproTicksIn>
												<pproTicksOut>22943631110400</pproTicksOut>
												<sequence id="sequence-1"/>
												<labels>
													<label2>Cerulean</label2>
												</labels>
											</clipitem>
											<enabled>TRUE</enabled>
											<locked>FALSE</locked>
										</track>
									</video>
									<audio>
										<numOutputChannels>2</numOutputChannels>
										<format>
											<samplecharacteristics>
												<depth>16</depth>
												<samplerate>44100</samplerate>
											</samplecharacteristics>
										</format>
										<outputs>
											<group>
												<index>1</index>
												<numchannels>1</numchannels>
												<downmix>0</downmix>
												<channel>
													<index>1</index>
												</channel>
											</group>
											<group>
												<index>2</index>
												<numchannels>1</numchannels>
												<downmix>0</downmix>
												<channel>
													<index>2</index>
												</channel>
											</group>
										</outputs>
										<track TL.SQTrackAudioKeyframeStyle="0" TL.SQTrackShy="0" TL.SQTrackExpandedHeight="25" TL.SQTrackExpanded="0" MZ.TrackTargeted="1" PannerCurrentValue="0.5" PannerIsInverted="true" PannerStartKeyframe="-91445760000000000,0.5,0,0,0,0,0,0" PannerName="Balance" currentExplodedTrackIndex="0" totalExplodedTrackCount="2" premiereTrackType="Stereo">
											<transitionitem>
												<start>0</start>
												<end>30</end>
												<pproTicksIn>0</pproTicksIn>
												<pproTicksOut>254270016000</pproTicksOut>
												<alignment>start-black</alignment>
												<cutPointTicks>0</cutPointTicks>
												<rate>
													<timebase>30</timebase>
													<ntsc>TRUE</ntsc>
												</rate>
												<effect>
													<name>Cross Fade (+3dB)</name>
													<effectid>KGAudioTransCrossFade3dB</effectid>
													<effecttype>transition</effecttype>
													<mediatype>audio</mediatype>
													<wipecode>0</wipecode>
													<wipeaccuracy>100</wipeaccuracy>
													<startratio>0</startratio>
													<endratio>1</endratio>
													<reverse>FALSE</reverse>
												</effect>
											</transitionitem>
											<clipitem id="clipitem-190" premiereChannelType="stereo">
												<masterclipid>masterclip-2</masterclipid>
												<name>KOLA - Hibernate.mp3</name>
												<enabled>TRUE</enabled>
												<duration>8818</duration>
												<rate>
													<timebase>30</timebase>
													<ntsc>TRUE</ntsc>
												</rate>
												<start>-1</start>
												<end>-1</end>
												<in>413</in>
												<out>3120</out>
												<pproTicksIn>3500450553600</pproTicksIn>
												<pproTicksOut>26444081664000</pproTicksOut>
												<file id="file-2"/>
												<sourcetrack>
													<mediatype>audio</mediatype>
													<trackindex>1</trackindex>
												</sourcetrack>
												<link>
													<linkclipref>clipitem-190</linkclipref>
													<mediatype>audio</mediatype>
													<trackindex>1</trackindex>
													<clipindex>2</clipindex>
													<groupindex>1</groupindex>
												</link>
												<link>
													<linkclipref>clipitem-191</linkclipref>
													<mediatype>audio</mediatype>
													<trackindex>2</trackindex>
													<clipindex>2</clipindex>
													<groupindex>1</groupindex>
												</link>
												<logginginfo>
													<description></description>
													<scene></scene>
													<shottake></shottake>
													<lognote></lognote>
													<good></good>
													<originalvideofilename></originalvideofilename>
													<originalaudiofilename></originalaudiofilename>
												</logginginfo>
												<colorinfo>
													<lut></lut>
													<lut1></lut1>
													<asc_sop></asc_sop>
													<asc_sat></asc_sat>
													<lut2></lut2>
												</colorinfo>
												<labels>
													<label2>Caribbean</label2>
												</labels>
											</clipitem>
											<transitionitem>
												<start>2617</start>
												<end>2707</end>
												<pproTicksIn>22180821062400</pproTicksIn>
												<pproTicksOut>22943631110400</pproTicksOut>
												<alignment>end-black</alignment>
												<cutPointTicks>762810048000</cutPointTicks>
												<rate>
													<timebase>30</timebase>
													<ntsc>TRUE</ntsc>
												</rate>
												<effect>
													<name>Cross Fade (+3dB)</name>
													<effectid>KGAudioTransCrossFade3dB</effectid>
													<effecttype>transition</effecttype>
													<mediatype>audio</mediatype>
													<wipecode>0</wipecode>
													<wipeaccuracy>100</wipeaccuracy>
													<startratio>0</startratio>
													<endratio>1</endratio>
													<reverse>FALSE</reverse>
												</effect>
											</transitionitem>
											<enabled>TRUE</enabled>
											<locked>FALSE</locked>
											<outputchannelindex>1</outputchannelindex>
										</track>
										<track TL.SQTrackAudioKeyframeStyle="0" TL.SQTrackShy="0" TL.SQTrackExpandedHeight="25" TL.SQTrackExpanded="0" MZ.TrackTargeted="1" PannerCurrentValue="0.5" PannerIsInverted="true" PannerStartKeyframe="-91445760000000000,0.5,0,0,0,0,0,0" PannerName="Balance" currentExplodedTrackIndex="1" totalExplodedTrackCount="2" premiereTrackType="Stereo">
											<transitionitem>
												<start>0</start>
												<end>30</end>
												<pproTicksIn>0</pproTicksIn>
												<pproTicksOut>254270016000</pproTicksOut>
												<alignment>start-black</alignment>
												<cutPointTicks>0</cutPointTicks>
												<rate>
													<timebase>30</timebase>
													<ntsc>TRUE</ntsc>
												</rate>
												<effect>
													<name>Cross Fade (+3dB)</name>
													<effectid>KGAudioTransCrossFade3dB</effectid>
													<effecttype>transition</effecttype>
													<mediatype>audio</mediatype>
													<wipecode>0</wipecode>
													<wipeaccuracy>100</wipeaccuracy>
													<startratio>0</startratio>
													<endratio>1</endratio>
													<reverse>FALSE</reverse>
												</effect>
											</transitionitem>
											<clipitem id="clipitem-191" premiereChannelType="stereo">
												<masterclipid>masterclip-2</masterclipid>
												<name>KOLA - Hibernate.mp3</name>
												<enabled>TRUE</enabled>
												<duration>8818</duration>
												<rate>
													<timebase>30</timebase>
													<ntsc>TRUE</ntsc>
												</rate>
												<start>-1</start>
												<end>-1</end>
												<in>413</in>
												<out>3120</out>
												<pproTicksIn>3500450553600</pproTicksIn>
												<pproTicksOut>26444081664000</pproTicksOut>
												<file id="file-2"/>
												<sourcetrack>
													<mediatype>audio</mediatype>
													<trackindex>2</trackindex>
												</sourcetrack>
												<link>
													<linkclipref>clipitem-190</linkclipref>
													<mediatype>audio</mediatype>
													<trackindex>1</trackindex>
													<clipindex>2</clipindex>
													<groupindex>1</groupindex>
												</link>
												<link>
													<linkclipref>clipitem-191</linkclipref>
													<mediatype>audio</mediatype>
													<trackindex>2</trackindex>
													<clipindex>2</clipindex>
													<groupindex>1</groupindex>
												</link>
												<logginginfo>
													<description></description>
													<scene></scene>
													<shottake></shottake>
													<lognote></lognote>
													<good></good>
													<originalvideofilename></originalvideofilename>
													<originalaudiofilename></originalaudiofilename>
												</logginginfo>
												<colorinfo>
													<lut></lut>
													<lut1></lut1>
													<asc_sop></asc_sop>
													<asc_sat></asc_sat>
													<lut2></lut2>
												</colorinfo>
												<labels>
													<label2>Caribbean</label2>
												</labels>
											</clipitem>
											<transitionitem>
												<start>2617</start>
												<end>2707</end>
												<pproTicksIn>22180821062400</pproTicksIn>
												<pproTicksOut>22943631110400</pproTicksOut>
												<alignment>end-black</alignment>
												<cutPointTicks>762810048000</cutPointTicks>
												<rate>
													<timebase>30</timebase>
													<ntsc>TRUE</ntsc>
												</rate>
												<effect>
													<name>Cross Fade (+3dB)</name>
													<effectid>KGAudioTransCrossFade3dB</effectid>
													<effecttype>transition</effecttype>
													<mediatype>audio</mediatype>
													<wipecode>0</wipecode>
													<wipeaccuracy>100</wipeaccuracy>
													<startratio>0</startratio>
													<endratio>1</endratio>
													<reverse>FALSE</reverse>
												</effect>
											</transitionitem>
											<enabled>TRUE</enabled>
											<locked>FALSE</locked>
											<outputchannelindex>2</outputchannelindex>
										</track>
									</audio>
								</media>
								<timecode>
									<rate>
										<timebase>30</timebase>
										<ntsc>TRUE</ntsc>
									</rate>
									<string>00:00:00:00</string>
									<frame>0</frame>
									<displayformat>NDF</displayformat>
								</timecode>
								<labels>
									<label2>Forest</label2>
								</labels>
								<logginginfo>
									<description></description>
									<scene></scene>
									<shottake></shottake>
									<lognote></lognote>
									<good></good>
									<originalvideofilename></originalvideofilename>
									<originalaudiofilename></originalaudiofilename>
								</logginginfo>
							</sequence>
							<sequence id="sequence-15" TL.SQVisibleBaseTime="0" TL.SQTimePerPixel="0.13818516812528489" MZ.Sequence.PreviewFrameSizeHeight="1080" MZ.Sequence.PreviewFrameSizeWidth="1920" MZ.Sequence.AudioTimeDisplayFormat="200" MZ.Sequence.PreviewRenderingClassID="1297106761" MZ.Sequence.PreviewRenderingPresetCodec="1297107278" MZ.Sequence.PreviewRenderingPresetPath="EncoderPresets/SequencePreview/795454d9-d3c2-429d-9474-923ab13b7018/I-Frame Only MPEG.epr" MZ.Sequence.PreviewUseMaxRenderQuality="false" MZ.Sequence.PreviewUseMaxBitDepth="false" MZ.Sequence.EditingModeGUID="795454d9-d3c2-429d-9474-923ab13b7018" MZ.Sequence.VideoTimeDisplayFormat="103" MZ.WorkOutPoint="19850012582400" MZ.WorkInPoint="0" explodedTracks="true">
								<uuid>b792a7ca-8e94-4f08-8c0d-72332c0b5d1f</uuid>
								<duration>2342</duration>
								<rate>
									<timebase>30</timebase>
									<ntsc>TRUE</ntsc>
								</rate>
								<name>4trackingnest09</name>
								<media>
									<video>
										<format>
											<samplecharacteristics>
												<rate>
													<timebase>30</timebase>
													<ntsc>TRUE</ntsc>
												</rate>
												<codec>
													<name>Apple ProRes 422</name>
													<appspecificdata>
														<appname>Final Cut Pro</appname>
														<appmanufacturer>Apple Inc.</appmanufacturer>
														<appversion>7.0</appversion>
														<data>
															<qtcodec>
																<codecname>Apple ProRes 422</codecname>
																<codectypename>Apple ProRes 422</codectypename>
																<codectypecode>apcn</codectypecode>
																<codecvendorcode>appl</codecvendorcode>
																<spatialquality>1024</spatialquality>
																<temporalquality>0</temporalquality>
																<keyframerate>0</keyframerate>
																<datarate>0</datarate>
															</qtcodec>
														</data>
													</appspecificdata>
												</codec>
												<width>1920</width>
												<height>1080</height>
												<anamorphic>FALSE</anamorphic>
												<pixelaspectratio>square</pixelaspectratio>
												<fielddominance>none</fielddominance>
												<colordepth>24</colordepth>
											</samplecharacteristics>
										</format>
										<track TL.SQTrackExpandedHeight="25" TL.SQTrackExpanded="0" MZ.TrackTargeted="1">
											<clipitem id="clipitem-192">
												<masterclipid>masterclip-107</masterclipid>
												<name>1238 - SAT_BR Turner art_1m20s.mp4</name>
												<enabled>TRUE</enabled>
												<duration>2442</duration>
												<rate>
													<timebase>30</timebase>
													<ntsc>TRUE</ntsc>
												</rate>
												<start>0</start>
												<end>2342</end>
												<in>0</in>
												<out>2342</out>
												<pproTicksIn>0</pproTicksIn>
												<pproTicksOut>19850012582400</pproTicksOut>
												<alphatype>none</alphatype>
												<pixelaspectratio>square</pixelaspectratio>
												<anamorphic>FALSE</anamorphic>
												<file id="file-106">
													<name>1238 - SAT_BR Turner art_1m20s.mp4</name>
													<pathurl>file://localhost/Volumes/Satisfactum%20Satisfactorum/03_Weekly%20(Project%20Files,%20Main%20Segments)/OSTV/OSTV%2023-08-28/3_Raw%20Files/04-03/1238%20-%20SAT_BR%20Turner%20art_1m20s.mp4</pathurl>
													<rate>
														<timebase>30</timebase>
														<ntsc>TRUE</ntsc>
													</rate>
													<duration>2442</duration>
													<timecode>
														<rate>
															<timebase>30</timebase>
															<ntsc>TRUE</ntsc>
														</rate>
														<string>00:00:00:00</string>
														<frame>0</frame>
														<displayformat>NDF</displayformat>
													</timecode>
													<media>
														<video>
															<samplecharacteristics>
																<rate>
																	<timebase>30</timebase>
																	<ntsc>TRUE</ntsc>
																</rate>
																<width>1280</width>
																<height>720</height>
																<anamorphic>FALSE</anamorphic>
																<pixelaspectratio>square</pixelaspectratio>
																<fielddominance>none</fielddominance>
															</samplecharacteristics>
														</video>
														<audio>
															<samplecharacteristics>
																<depth>16</depth>
																<samplerate>32000</samplerate>
															</samplecharacteristics>
															<channelcount>2</channelcount>
														</audio>
													</media>
												</file>
												<filter>
													<effect>
														<name>Basic Motion</name>
														<effectid>basic</effectid>
														<effectcategory>motion</effectcategory>
														<effecttype>motion</effecttype>
														<mediatype>video</mediatype>
														<pproBypass>false</pproBypass>
														<parameter authoringApp="PremierePro">
															<parameterid>scale</parameterid>
															<name>Scale</name>
															<valuemin>0</valuemin>
															<valuemax>1000</valuemax>
															<value>150</value>
														</parameter>
														<parameter authoringApp="PremierePro">
															<parameterid>rotation</parameterid>
															<name>Rotation</name>
															<valuemin>-8640</valuemin>
															<valuemax>8640</valuemax>
															<value>0</value>
														</parameter>
														<parameter authoringApp="PremierePro">
															<parameterid>center</parameterid>
															<name>Center</name>
															<value>
																<horiz>0</horiz>
																<vert>0</vert>
															</value>
														</parameter>
														<parameter authoringApp="PremierePro">
															<parameterid>centerOffset</parameterid>
															<name>Anchor Point</name>
															<value>
																<horiz>0</horiz>
																<vert>0</vert>
															</value>
														</parameter>
														<parameter authoringApp="PremierePro">
															<parameterid>antiflicker</parameterid>
															<name>Anti-flicker Filter</name>
															<valuemin>0.0</valuemin>
															<valuemax>1.0</valuemax>
															<value>0</value>
														</parameter>
													</effect>
												</filter>
												<logginginfo>
													<description></description>
													<scene></scene>
													<shottake></shottake>
													<lognote></lognote>
													<good></good>
													<originalvideofilename></originalvideofilename>
													<originalaudiofilename></originalaudiofilename>
												</logginginfo>
												<colorinfo>
													<lut></lut>
													<lut1></lut1>
													<asc_sop></asc_sop>
													<asc_sat></asc_sat>
													<lut2></lut2>
												</colorinfo>
												<labels>
													<label2>Iris</label2>
												</labels>
											</clipitem>
											<enabled>TRUE</enabled>
											<locked>FALSE</locked>
										</track>
									</video>
									<audio>
										<numOutputChannels>2</numOutputChannels>
										<format>
											<samplecharacteristics>
												<depth>16</depth>
												<samplerate>44100</samplerate>
											</samplecharacteristics>
										</format>
										<outputs>
											<group>
												<index>1</index>
												<numchannels>1</numchannels>
												<downmix>0</downmix>
												<channel>
													<index>1</index>
												</channel>
											</group>
											<group>
												<index>2</index>
												<numchannels>1</numchannels>
												<downmix>0</downmix>
												<channel>
													<index>2</index>
												</channel>
											</group>
										</outputs>
										<track TL.SQTrackExpandedHeight="25" TL.SQTrackExpanded="0" MZ.TrackTargeted="1" PannerCurrentValue="0.5" PannerIsInverted="true" PannerStartKeyframe="-91445760000000000,0.5,0,0,0,0,0,0" PannerName="Balance" currentExplodedTrackIndex="0" totalExplodedTrackCount="2" premiereTrackType="Stereo">
											<enabled>TRUE</enabled>
											<locked>FALSE</locked>
											<outputchannelindex>1</outputchannelindex>
										</track>
										<track TL.SQTrackExpandedHeight="25" TL.SQTrackExpanded="0" MZ.TrackTargeted="1" PannerCurrentValue="0.5" PannerIsInverted="true" PannerStartKeyframe="-91445760000000000,0.5,0,0,0,0,0,0" PannerName="Balance" currentExplodedTrackIndex="1" totalExplodedTrackCount="2" premiereTrackType="Stereo">
											<enabled>TRUE</enabled>
											<locked>FALSE</locked>
											<outputchannelindex>2</outputchannelindex>
										</track>
									</audio>
								</media>
								<timecode>
									<rate>
										<timebase>30</timebase>
										<ntsc>TRUE</ntsc>
									</rate>
									<string>00:00:00:00</string>
									<frame>0</frame>
									<displayformat>NDF</displayformat>
								</timecode>
								<labels>
									<label2>Forest</label2>
								</labels>
								<logginginfo>
									<description></description>
									<scene></scene>
									<shottake></shottake>
									<lognote></lognote>
									<good></good>
									<originalvideofilename></originalvideofilename>
									<originalaudiofilename></originalaudiofilename>
								</logginginfo>
							</sequence>
							<sequence id="sequence-16" TL.SQAudioVisibleBase="0" TL.SQVideoVisibleBase="0" TL.SQVisibleBaseTime="0" TL.SQAVDividerPosition="0.5" TL.SQHideShyTracks="0" TL.SQHeaderWidth="236" Monitor.ProgramZoomOut="24757423891200" Monitor.ProgramZoomIn="0" TL.SQTimePerPixel="0.27637033625057111" MZ.EditLine="0" MZ.Sequence.PreviewFrameSizeHeight="1080" MZ.Sequence.PreviewFrameSizeWidth="1920" MZ.Sequence.AudioTimeDisplayFormat="200" MZ.Sequence.PreviewRenderingClassID="1297106761" MZ.Sequence.PreviewRenderingPresetCodec="1297107278" MZ.Sequence.PreviewRenderingPresetPath="EncoderPresets/SequencePreview/795454d9-d3c2-429d-9474-923ab13b7018/I-Frame Only MPEG.epr" MZ.Sequence.PreviewUseMaxRenderQuality="false" MZ.Sequence.PreviewUseMaxBitDepth="false" MZ.Sequence.EditingModeGUID="795454d9-d3c2-429d-9474-923ab13b7018" MZ.Sequence.VideoTimeDisplayFormat="103" MZ.WorkOutPoint="24757423891200" MZ.WorkInPoint="0" explodedTracks="true">
								<uuid>ccc32a85-ddeb-4fdb-af9b-912b55603f72</uuid>
								<duration>2921</duration>
								<rate>
									<timebase>30</timebase>
									<ntsc>TRUE</ntsc>
								</rate>
								<name>1238nest</name>
								<media>
									<video>
										<format>
											<samplecharacteristics>
												<rate>
													<timebase>30</timebase>
													<ntsc>TRUE</ntsc>
												</rate>
												<codec>
													<name>Apple ProRes 422</name>
													<appspecificdata>
														<appname>Final Cut Pro</appname>
														<appmanufacturer>Apple Inc.</appmanufacturer>
														<appversion>7.0</appversion>
														<data>
															<qtcodec>
																<codecname>Apple ProRes 422</codecname>
																<codectypename>Apple ProRes 422</codectypename>
																<codectypecode>apcn</codectypecode>
																<codecvendorcode>appl</codecvendorcode>
																<spatialquality>1024</spatialquality>
																<temporalquality>0</temporalquality>
																<keyframerate>0</keyframerate>
																<datarate>0</datarate>
															</qtcodec>
														</data>
													</appspecificdata>
												</codec>
												<width>1920</width>
												<height>1080</height>
												<anamorphic>FALSE</anamorphic>
												<pixelaspectratio>square</pixelaspectratio>
												<fielddominance>none</fielddominance>
												<colordepth>24</colordepth>
											</samplecharacteristics>
										</format>
										<track TL.SQTrackShy="0" TL.SQTrackExpandedHeight="25" TL.SQTrackExpanded="0" MZ.TrackTargeted="1">
											<clipitem id="clipitem-193">
												<masterclipid>masterclip-108</masterclipid>
												<name>1238 - SAT_pexels kelly lacy_1m35s.mp4</name>
												<enabled>TRUE</enabled>
												<duration>2921</duration>
												<rate>
													<timebase>30</timebase>
													<ntsc>TRUE</ntsc>
												</rate>
												<start>0</start>
												<end>2921</end>
												<in>0</in>
												<out>2921</out>
												<pproTicksIn>0</pproTicksIn>
												<pproTicksOut>24757423891200</pproTicksOut>
												<alphatype>none</alphatype>
												<pixelaspectratio>square</pixelaspectratio>
												<anamorphic>FALSE</anamorphic>
												<file id="file-107">
													<name>1238 - SAT_pexels kelly lacy_1m35s.mp4</name>
													<pathurl>file://localhost/Volumes/Satisfactum%20Satisfactorum/03_Weekly%20(Project%20Files,%20Main%20Segments)/OSTV/OSTV%2023-08-28/3_Raw%20Files/04-03/1238%20-%20SAT_pexels%20kelly%20lacy_1m35s.mp4</pathurl>
													<rate>
														<timebase>30</timebase>
														<ntsc>TRUE</ntsc>
													</rate>
													<duration>2921</duration>
													<timecode>
														<rate>
															<timebase>30</timebase>
															<ntsc>TRUE</ntsc>
														</rate>
														<string>00:00:00:00</string>
														<frame>0</frame>
														<displayformat>NDF</displayformat>
													</timecode>
													<media>
														<video>
															<samplecharacteristics>
																<rate>
																	<timebase>30</timebase>
																	<ntsc>TRUE</ntsc>
																</rate>
																<width>1280</width>
																<height>720</height>
																<anamorphic>FALSE</anamorphic>
																<pixelaspectratio>square</pixelaspectratio>
																<fielddominance>none</fielddominance>
															</samplecharacteristics>
														</video>
														<audio>
															<samplecharacteristics>
																<depth>16</depth>
																<samplerate>32000</samplerate>
															</samplecharacteristics>
															<channelcount>2</channelcount>
														</audio>
													</media>
												</file>
												<filter>
													<effect>
														<name>Basic Motion</name>
														<effectid>basic</effectid>
														<effectcategory>motion</effectcategory>
														<effecttype>motion</effecttype>
														<mediatype>video</mediatype>
														<pproBypass>false</pproBypass>
														<parameter authoringApp="PremierePro">
															<parameterid>scale</parameterid>
															<name>Scale</name>
															<valuemin>0</valuemin>
															<valuemax>1000</valuemax>
															<value>150</value>
														</parameter>
														<parameter authoringApp="PremierePro">
															<parameterid>rotation</parameterid>
															<name>Rotation</name>
															<valuemin>-8640</valuemin>
															<valuemax>8640</valuemax>
															<value>0</value>
														</parameter>
														<parameter authoringApp="PremierePro">
															<parameterid>center</parameterid>
															<name>Center</name>
															<value>
																<horiz>0</horiz>
																<vert>0</vert>
															</value>
														</parameter>
														<parameter authoringApp="PremierePro">
															<parameterid>centerOffset</parameterid>
															<name>Anchor Point</name>
															<value>
																<horiz>0</horiz>
																<vert>0</vert>
															</value>
														</parameter>
														<parameter authoringApp="PremierePro">
															<parameterid>antiflicker</parameterid>
															<name>Anti-flicker Filter</name>
															<valuemin>0.0</valuemin>
															<valuemax>1.0</valuemax>
															<value>0</value>
														</parameter>
													</effect>
												</filter>
												<logginginfo>
													<description></description>
													<scene></scene>
													<shottake></shottake>
													<lognote></lognote>
													<good></good>
													<originalvideofilename></originalvideofilename>
													<originalaudiofilename></originalaudiofilename>
												</logginginfo>
												<colorinfo>
													<lut></lut>
													<lut1></lut1>
													<asc_sop></asc_sop>
													<asc_sat></asc_sat>
													<lut2></lut2>
												</colorinfo>
												<labels>
													<label2>Iris</label2>
												</labels>
											</clipitem>
											<enabled>TRUE</enabled>
											<locked>FALSE</locked>
										</track>
										<track TL.SQTrackShy="0" TL.SQTrackExpandedHeight="25" TL.SQTrackExpanded="0" MZ.TrackTargeted="0">
											<clipitem id="clipitem-194">
												<masterclipid>masterclip-106</masterclipid>
												<name>Bug and Lower Nest</name>
												<enabled>TRUE</enabled>
												<duration>14721</duration>
												<rate>
													<timebase>30</timebase>
													<ntsc>TRUE</ntsc>
												</rate>
												<start>0</start>
												<end>2921</end>
												<in>0</in>
												<out>2921</out>
												<pproTicksIn>0</pproTicksIn>
												<pproTicksOut>24757423891200</pproTicksOut>
												<sequence id="sequence-1"/>
												<labels>
													<label2>Cerulean</label2>
												</labels>
											</clipitem>
											<enabled>TRUE</enabled>
											<locked>FALSE</locked>
										</track>
									</video>
									<audio>
										<numOutputChannels>2</numOutputChannels>
										<format>
											<samplecharacteristics>
												<depth>16</depth>
												<samplerate>44100</samplerate>
											</samplecharacteristics>
										</format>
										<outputs>
											<group>
												<index>1</index>
												<numchannels>1</numchannels>
												<downmix>0</downmix>
												<channel>
													<index>1</index>
												</channel>
											</group>
											<group>
												<index>2</index>
												<numchannels>1</numchannels>
												<downmix>0</downmix>
												<channel>
													<index>2</index>
												</channel>
											</group>
										</outputs>
										<track TL.SQTrackAudioKeyframeStyle="0" TL.SQTrackShy="0" TL.SQTrackExpandedHeight="25" TL.SQTrackExpanded="0" MZ.TrackTargeted="1" PannerCurrentValue="0.5" PannerIsInverted="true" PannerStartKeyframe="-91445760000000000,0.5,0,0,0,0,0,0" PannerName="Balance" currentExplodedTrackIndex="0" totalExplodedTrackCount="2" premiereTrackType="Stereo">
											<transitionitem>
												<start>0</start>
												<end>30</end>
												<pproTicksIn>0</pproTicksIn>
												<pproTicksOut>254270016000</pproTicksOut>
												<alignment>start-black</alignment>
												<cutPointTicks>0</cutPointTicks>
												<rate>
													<timebase>30</timebase>
													<ntsc>TRUE</ntsc>
												</rate>
												<effect>
													<name>Cross Fade (+3dB)</name>
													<effectid>KGAudioTransCrossFade3dB</effectid>
													<effecttype>transition</effecttype>
													<mediatype>audio</mediatype>
													<wipecode>0</wipecode>
													<wipeaccuracy>100</wipeaccuracy>
													<startratio>0</startratio>
													<endratio>1</endratio>
													<reverse>FALSE</reverse>
												</effect>
											</transitionitem>
											<clipitem id="clipitem-195" premiereChannelType="stereo">
												<masterclipid>masterclip-4</masterclipid>
												<name>ES_Too Late for Romance - Wendy Marcini.mp3</name>
												<enabled>TRUE</enabled>
												<duration>6484</duration>
												<rate>
													<timebase>30</timebase>
													<ntsc>TRUE</ntsc>
												</rate>
												<start>-1</start>
												<end>-1</end>
												<in>0</in>
												<out>2921</out>
												<pproTicksIn>0</pproTicksIn>
												<pproTicksOut>24757423891200</pproTicksOut>
												<file id="file-4"/>
												<sourcetrack>
													<mediatype>audio</mediatype>
													<trackindex>1</trackindex>
												</sourcetrack>
												<link>
													<linkclipref>clipitem-195</linkclipref>
													<mediatype>audio</mediatype>
													<trackindex>1</trackindex>
													<clipindex>2</clipindex>
													<groupindex>1</groupindex>
												</link>
												<link>
													<linkclipref>clipitem-196</linkclipref>
													<mediatype>audio</mediatype>
													<trackindex>2</trackindex>
													<clipindex>2</clipindex>
													<groupindex>1</groupindex>
												</link>
												<logginginfo>
													<description></description>
													<scene></scene>
													<shottake></shottake>
													<lognote></lognote>
													<good></good>
													<originalvideofilename></originalvideofilename>
													<originalaudiofilename></originalaudiofilename>
												</logginginfo>
												<colorinfo>
													<lut></lut>
													<lut1></lut1>
													<asc_sop></asc_sop>
													<asc_sat></asc_sat>
													<lut2></lut2>
												</colorinfo>
												<labels>
													<label2>Caribbean</label2>
												</labels>
											</clipitem>
											<transitionitem>
												<start>2831</start>
												<end>2921</end>
												<pproTicksIn>23994613843200</pproTicksIn>
												<pproTicksOut>24757423891200</pproTicksOut>
												<alignment>end-black</alignment>
												<cutPointTicks>762810048000</cutPointTicks>
												<rate>
													<timebase>30</timebase>
													<ntsc>TRUE</ntsc>
												</rate>
												<effect>
													<name>Cross Fade (+3dB)</name>
													<effectid>KGAudioTransCrossFade3dB</effectid>
													<effecttype>transition</effecttype>
													<mediatype>audio</mediatype>
													<wipecode>0</wipecode>
													<wipeaccuracy>100</wipeaccuracy>
													<startratio>0</startratio>
													<endratio>1</endratio>
													<reverse>FALSE</reverse>
												</effect>
											</transitionitem>
											<enabled>TRUE</enabled>
											<locked>FALSE</locked>
											<outputchannelindex>1</outputchannelindex>
										</track>
										<track TL.SQTrackAudioKeyframeStyle="0" TL.SQTrackShy="0" TL.SQTrackExpandedHeight="25" TL.SQTrackExpanded="0" MZ.TrackTargeted="1" PannerCurrentValue="0.5" PannerIsInverted="true" PannerStartKeyframe="-91445760000000000,0.5,0,0,0,0,0,0" PannerName="Balance" currentExplodedTrackIndex="1" totalExplodedTrackCount="2" premiereTrackType="Stereo">
											<transitionitem>
												<start>0</start>
												<end>30</end>
												<pproTicksIn>0</pproTicksIn>
												<pproTicksOut>254270016000</pproTicksOut>
												<alignment>start-black</alignment>
												<cutPointTicks>0</cutPointTicks>
												<rate>
													<timebase>30</timebase>
													<ntsc>TRUE</ntsc>
												</rate>
												<effect>
													<name>Cross Fade (+3dB)</name>
													<effectid>KGAudioTransCrossFade3dB</effectid>
													<effecttype>transition</effecttype>
													<mediatype>audio</mediatype>
													<wipecode>0</wipecode>
													<wipeaccuracy>100</wipeaccuracy>
													<startratio>0</startratio>
													<endratio>1</endratio>
													<reverse>FALSE</reverse>
												</effect>
											</transitionitem>
											<clipitem id="clipitem-196" premiereChannelType="stereo">
												<masterclipid>masterclip-4</masterclipid>
												<name>ES_Too Late for Romance - Wendy Marcini.mp3</name>
												<enabled>TRUE</enabled>
												<duration>6484</duration>
												<rate>
													<timebase>30</timebase>
													<ntsc>TRUE</ntsc>
												</rate>
												<start>-1</start>
												<end>-1</end>
												<in>0</in>
												<out>2921</out>
												<pproTicksIn>0</pproTicksIn>
												<pproTicksOut>24757423891200</pproTicksOut>
												<file id="file-4"/>
												<sourcetrack>
													<mediatype>audio</mediatype>
													<trackindex>2</trackindex>
												</sourcetrack>
												<link>
													<linkclipref>clipitem-195</linkclipref>
													<mediatype>audio</mediatype>
													<trackindex>1</trackindex>
													<clipindex>2</clipindex>
													<groupindex>1</groupindex>
												</link>
												<link>
													<linkclipref>clipitem-196</linkclipref>
													<mediatype>audio</mediatype>
													<trackindex>2</trackindex>
													<clipindex>2</clipindex>
													<groupindex>1</groupindex>
												</link>
												<logginginfo>
													<description></description>
													<scene></scene>
													<shottake></shottake>
													<lognote></lognote>
													<good></good>
													<originalvideofilename></originalvideofilename>
													<originalaudiofilename></originalaudiofilename>
												</logginginfo>
												<colorinfo>
													<lut></lut>
													<lut1></lut1>
													<asc_sop></asc_sop>
													<asc_sat></asc_sat>
													<lut2></lut2>
												</colorinfo>
												<labels>
													<label2>Caribbean</label2>
												</labels>
											</clipitem>
											<transitionitem>
												<start>2831</start>
												<end>2921</end>
												<pproTicksIn>23994613843200</pproTicksIn>
												<pproTicksOut>24757423891200</pproTicksOut>
												<alignment>end-black</alignment>
												<cutPointTicks>762810048000</cutPointTicks>
												<rate>
													<timebase>30</timebase>
													<ntsc>TRUE</ntsc>
												</rate>
												<effect>
													<name>Cross Fade (+3dB)</name>
													<effectid>KGAudioTransCrossFade3dB</effectid>
													<effecttype>transition</effecttype>
													<mediatype>audio</mediatype>
													<wipecode>0</wipecode>
													<wipeaccuracy>100</wipeaccuracy>
													<startratio>0</startratio>
													<endratio>1</endratio>
													<reverse>FALSE</reverse>
												</effect>
											</transitionitem>
											<enabled>TRUE</enabled>
											<locked>FALSE</locked>
											<outputchannelindex>2</outputchannelindex>
										</track>
									</audio>
								</media>
								<timecode>
									<rate>
										<timebase>30</timebase>
										<ntsc>TRUE</ntsc>
									</rate>
									<string>00:00:00:00</string>
									<frame>0</frame>
									<displayformat>NDF</displayformat>
								</timecode>
								<labels>
									<label2>Forest</label2>
								</labels>
								<logginginfo>
									<description></description>
									<scene></scene>
									<shottake></shottake>
									<lognote></lognote>
									<good></good>
									<originalvideofilename></originalvideofilename>
									<originalaudiofilename></originalaudiofilename>
								</logginginfo>
							</sequence>
							<sequence id="sequence-17" TL.SQVisibleBaseTime="0" TL.SQTimePerPixel="0.18453664644579251" MZ.Sequence.PreviewFrameSizeHeight="1080" MZ.Sequence.PreviewFrameSizeWidth="1920" MZ.Sequence.AudioTimeDisplayFormat="200" MZ.Sequence.PreviewRenderingClassID="1297106761" MZ.Sequence.PreviewRenderingPresetCodec="1297107278" MZ.Sequence.PreviewRenderingPresetPath="EncoderPresets/SequencePreview/795454d9-d3c2-429d-9474-923ab13b7018/I-Frame Only MPEG.epr" MZ.Sequence.PreviewUseMaxRenderQuality="false" MZ.Sequence.PreviewUseMaxBitDepth="false" MZ.Sequence.EditingModeGUID="795454d9-d3c2-429d-9474-923ab13b7018" MZ.Sequence.VideoTimeDisplayFormat="103" MZ.WorkOutPoint="21935026713600" MZ.WorkInPoint="0" explodedTracks="true">
								<uuid>006f24b0-d270-4e46-bcf4-f08c1a00cc3d</uuid>
								<duration>2588</duration>
								<rate>
									<timebase>30</timebase>
									<ntsc>TRUE</ntsc>
								</rate>
								<name>4trackingnest02</name>
								<media>
									<video>
										<format>
											<samplecharacteristics>
												<rate>
													<timebase>30</timebase>
													<ntsc>TRUE</ntsc>
												</rate>
												<codec>
													<name>Apple ProRes 422</name>
													<appspecificdata>
														<appname>Final Cut Pro</appname>
														<appmanufacturer>Apple Inc.</appmanufacturer>
														<appversion>7.0</appversion>
														<data>
															<qtcodec>
																<codecname>Apple ProRes 422</codecname>
																<codectypename>Apple ProRes 422</codectypename>
																<codectypecode>apcn</codectypecode>
																<codecvendorcode>appl</codecvendorcode>
																<spatialquality>1024</spatialquality>
																<temporalquality>0</temporalquality>
																<keyframerate>0</keyframerate>
																<datarate>0</datarate>
															</qtcodec>
														</data>
													</appspecificdata>
												</codec>
												<width>1920</width>
												<height>1080</height>
												<anamorphic>FALSE</anamorphic>
												<pixelaspectratio>square</pixelaspectratio>
												<fielddominance>none</fielddominance>
												<colordepth>24</colordepth>
											</samplecharacteristics>
										</format>
										<track TL.SQTrackExpandedHeight="25" TL.SQTrackExpanded="0" MZ.TrackTargeted="1">
											<clipitem id="clipitem-197">
												<masterclipid>masterclip-109</masterclipid>
												<name>1239 - SCI_my microscopic world_1m30s.mp4</name>
												<enabled>TRUE</enabled>
												<duration>2588</duration>
												<rate>
													<timebase>30</timebase>
													<ntsc>TRUE</ntsc>
												</rate>
												<start>0</start>
												<end>2588</end>
												<in>0</in>
												<out>2588</out>
												<pproTicksIn>0</pproTicksIn>
												<pproTicksOut>21935026713600</pproTicksOut>
												<alphatype>none</alphatype>
												<pixelaspectratio>square</pixelaspectratio>
												<anamorphic>FALSE</anamorphic>
												<file id="file-108">
													<name>1239 - SCI_my microscopic world_1m30s.mp4</name>
													<pathurl>file://localhost/Volumes/Satisfactum%20Satisfactorum/03_Weekly%20(Project%20Files,%20Main%20Segments)/OSTV/OSTV%2023-08-28/3_Raw%20Files/04-03/1239%20-%20SCI_my%20microscopic%20world_1m30s.mp4</pathurl>
													<rate>
														<timebase>30</timebase>
														<ntsc>TRUE</ntsc>
													</rate>
													<duration>2588</duration>
													<timecode>
														<rate>
															<timebase>30</timebase>
															<ntsc>TRUE</ntsc>
														</rate>
														<string>00:00:00:00</string>
														<frame>0</frame>
														<displayformat>NDF</displayformat>
													</timecode>
													<media>
														<video>
															<samplecharacteristics>
																<rate>
																	<timebase>30</timebase>
																	<ntsc>TRUE</ntsc>
																</rate>
																<width>1280</width>
																<height>720</height>
																<anamorphic>FALSE</anamorphic>
																<pixelaspectratio>square</pixelaspectratio>
																<fielddominance>none</fielddominance>
															</samplecharacteristics>
														</video>
														<audio>
															<samplecharacteristics>
																<depth>16</depth>
																<samplerate>32000</samplerate>
															</samplecharacteristics>
															<channelcount>2</channelcount>
														</audio>
													</media>
												</file>
												<filter>
													<effect>
														<name>Basic Motion</name>
														<effectid>basic</effectid>
														<effectcategory>motion</effectcategory>
														<effecttype>motion</effecttype>
														<mediatype>video</mediatype>
														<pproBypass>false</pproBypass>
														<parameter authoringApp="PremierePro">
															<parameterid>scale</parameterid>
															<name>Scale</name>
															<valuemin>0</valuemin>
															<valuemax>1000</valuemax>
															<value>150</value>
														</parameter>
														<parameter authoringApp="PremierePro">
															<parameterid>rotation</parameterid>
															<name>Rotation</name>
															<valuemin>-8640</valuemin>
															<valuemax>8640</valuemax>
															<value>0</value>
														</parameter>
														<parameter authoringApp="PremierePro">
															<parameterid>center</parameterid>
															<name>Center</name>
															<value>
																<horiz>0</horiz>
																<vert>0</vert>
															</value>
														</parameter>
														<parameter authoringApp="PremierePro">
															<parameterid>centerOffset</parameterid>
															<name>Anchor Point</name>
															<value>
																<horiz>0</horiz>
																<vert>0</vert>
															</value>
														</parameter>
														<parameter authoringApp="PremierePro">
															<parameterid>antiflicker</parameterid>
															<name>Anti-flicker Filter</name>
															<valuemin>0.0</valuemin>
															<valuemax>1.0</valuemax>
															<value>0</value>
														</parameter>
													</effect>
												</filter>
												<logginginfo>
													<description></description>
													<scene></scene>
													<shottake></shottake>
													<lognote></lognote>
													<good></good>
													<originalvideofilename></originalvideofilename>
													<originalaudiofilename></originalaudiofilename>
												</logginginfo>
												<colorinfo>
													<lut></lut>
													<lut1></lut1>
													<asc_sop></asc_sop>
													<asc_sat></asc_sat>
													<lut2></lut2>
												</colorinfo>
												<labels>
													<label2>Iris</label2>
												</labels>
											</clipitem>
											<enabled>TRUE</enabled>
											<locked>FALSE</locked>
										</track>
									</video>
									<audio>
										<numOutputChannels>2</numOutputChannels>
										<format>
											<samplecharacteristics>
												<depth>16</depth>
												<samplerate>44100</samplerate>
											</samplecharacteristics>
										</format>
										<outputs>
											<group>
												<index>1</index>
												<numchannels>1</numchannels>
												<downmix>0</downmix>
												<channel>
													<index>1</index>
												</channel>
											</group>
											<group>
												<index>2</index>
												<numchannels>1</numchannels>
												<downmix>0</downmix>
												<channel>
													<index>2</index>
												</channel>
											</group>
										</outputs>
										<track TL.SQTrackExpandedHeight="25" TL.SQTrackExpanded="0" MZ.TrackTargeted="1" PannerCurrentValue="0.5" PannerIsInverted="true" PannerStartKeyframe="-91445760000000000,0.5,0,0,0,0,0,0" PannerName="Balance" currentExplodedTrackIndex="0" totalExplodedTrackCount="2" premiereTrackType="Stereo">
											<enabled>TRUE</enabled>
											<locked>FALSE</locked>
											<outputchannelindex>1</outputchannelindex>
										</track>
										<track TL.SQTrackExpandedHeight="25" TL.SQTrackExpanded="0" MZ.TrackTargeted="1" PannerCurrentValue="0.5" PannerIsInverted="true" PannerStartKeyframe="-91445760000000000,0.5,0,0,0,0,0,0" PannerName="Balance" currentExplodedTrackIndex="1" totalExplodedTrackCount="2" premiereTrackType="Stereo">
											<enabled>TRUE</enabled>
											<locked>FALSE</locked>
											<outputchannelindex>2</outputchannelindex>
										</track>
									</audio>
								</media>
								<timecode>
									<rate>
										<timebase>30</timebase>
										<ntsc>TRUE</ntsc>
									</rate>
									<string>00:00:00:00</string>
									<frame>0</frame>
									<displayformat>NDF</displayformat>
								</timecode>
								<labels>
									<label2>Forest</label2>
								</labels>
								<logginginfo>
									<description></description>
									<scene></scene>
									<shottake></shottake>
									<lognote></lognote>
									<good></good>
									<originalvideofilename></originalvideofilename>
									<originalaudiofilename></originalaudiofilename>
								</logginginfo>
							</sequence>
							<sequence id="sequence-18" TL.SQVisibleBaseTime="0" TL.SQTimePerPixel="0.18453664644579251" MZ.Sequence.PreviewFrameSizeHeight="1080" MZ.Sequence.PreviewFrameSizeWidth="1920" MZ.Sequence.AudioTimeDisplayFormat="200" MZ.Sequence.PreviewRenderingClassID="1297106761" MZ.Sequence.PreviewRenderingPresetCodec="1297107278" MZ.Sequence.PreviewRenderingPresetPath="EncoderPresets/SequencePreview/795454d9-d3c2-429d-9474-923ab13b7018/I-Frame Only MPEG.epr" MZ.Sequence.PreviewUseMaxRenderQuality="false" MZ.Sequence.PreviewUseMaxBitDepth="false" MZ.Sequence.EditingModeGUID="795454d9-d3c2-429d-9474-923ab13b7018" MZ.Sequence.VideoTimeDisplayFormat="103" MZ.WorkOutPoint="24308213529600" MZ.WorkInPoint="0" explodedTracks="true">
								<uuid>97bddb7e-77c8-4f0b-9a94-54ede0a95e03</uuid>
								<duration>2868</duration>
								<rate>
									<timebase>30</timebase>
									<ntsc>TRUE</ntsc>
								</rate>
								<name>4trackingnest03</name>
								<media>
									<video>
										<format>
											<samplecharacteristics>
												<rate>
													<timebase>30</timebase>
													<ntsc>TRUE</ntsc>
												</rate>
												<codec>
													<name>Apple ProRes 422</name>
													<appspecificdata>
														<appname>Final Cut Pro</appname>
														<appmanufacturer>Apple Inc.</appmanufacturer>
														<appversion>7.0</appversion>
														<data>
															<qtcodec>
																<codecname>Apple ProRes 422</codecname>
																<codectypename>Apple ProRes 422</codectypename>
																<codectypecode>apcn</codectypecode>
																<codecvendorcode>appl</codecvendorcode>
																<spatialquality>1024</spatialquality>
																<temporalquality>0</temporalquality>
																<keyframerate>0</keyframerate>
																<datarate>0</datarate>
															</qtcodec>
														</data>
													</appspecificdata>
												</codec>
												<width>1920</width>
												<height>1080</height>
												<anamorphic>FALSE</anamorphic>
												<pixelaspectratio>square</pixelaspectratio>
												<fielddominance>none</fielddominance>
												<colordepth>24</colordepth>
											</samplecharacteristics>
										</format>
										<track TL.SQTrackExpandedHeight="25" TL.SQTrackExpanded="0" MZ.TrackTargeted="1">
											<clipitem id="clipitem-198">
												<masterclipid>masterclip-110</masterclipid>
												<name>1239 - DIY_duka heritage_1m35s.mp4</name>
												<enabled>TRUE</enabled>
												<duration>2868</duration>
												<rate>
													<timebase>30</timebase>
													<ntsc>TRUE</ntsc>
												</rate>
												<start>0</start>
												<end>2868</end>
												<in>0</in>
												<out>2868</out>
												<pproTicksIn>0</pproTicksIn>
												<pproTicksOut>24308213529600</pproTicksOut>
												<alphatype>none</alphatype>
												<pixelaspectratio>square</pixelaspectratio>
												<anamorphic>FALSE</anamorphic>
												<file id="file-109">
													<name>1239 - DIY_duka heritage_1m35s.mp4</name>
													<pathurl>file://localhost/Volumes/Satisfactum%20Satisfactorum/03_Weekly%20(Project%20Files,%20Main%20Segments)/OSTV/OSTV%2023-08-28/3_Raw%20Files/04-03/1239%20-%20DIY_duka%20heritage_1m35s.mp4</pathurl>
													<rate>
														<timebase>30</timebase>
														<ntsc>TRUE</ntsc>
													</rate>
													<duration>2868</duration>
													<timecode>
														<rate>
															<timebase>30</timebase>
															<ntsc>TRUE</ntsc>
														</rate>
														<string>00:00:00:00</string>
														<frame>0</frame>
														<displayformat>NDF</displayformat>
													</timecode>
													<media>
														<video>
															<samplecharacteristics>
																<rate>
																	<timebase>30</timebase>
																	<ntsc>TRUE</ntsc>
																</rate>
																<width>1280</width>
																<height>720</height>
																<anamorphic>FALSE</anamorphic>
																<pixelaspectratio>square</pixelaspectratio>
																<fielddominance>none</fielddominance>
															</samplecharacteristics>
														</video>
														<audio>
															<samplecharacteristics>
																<depth>16</depth>
																<samplerate>32000</samplerate>
															</samplecharacteristics>
															<channelcount>2</channelcount>
														</audio>
													</media>
												</file>
												<filter>
													<effect>
														<name>Basic Motion</name>
														<effectid>basic</effectid>
														<effectcategory>motion</effectcategory>
														<effecttype>motion</effecttype>
														<mediatype>video</mediatype>
														<pproBypass>false</pproBypass>
														<parameter authoringApp="PremierePro">
															<parameterid>scale</parameterid>
															<name>Scale</name>
															<valuemin>0</valuemin>
															<valuemax>1000</valuemax>
															<value>150</value>
														</parameter>
														<parameter authoringApp="PremierePro">
															<parameterid>rotation</parameterid>
															<name>Rotation</name>
															<valuemin>-8640</valuemin>
															<valuemax>8640</valuemax>
															<value>0</value>
														</parameter>
														<parameter authoringApp="PremierePro">
															<parameterid>center</parameterid>
															<name>Center</name>
															<value>
																<horiz>0</horiz>
																<vert>0</vert>
															</value>
														</parameter>
														<parameter authoringApp="PremierePro">
															<parameterid>centerOffset</parameterid>
															<name>Anchor Point</name>
															<value>
																<horiz>0</horiz>
																<vert>0</vert>
															</value>
														</parameter>
														<parameter authoringApp="PremierePro">
															<parameterid>antiflicker</parameterid>
															<name>Anti-flicker Filter</name>
															<valuemin>0.0</valuemin>
															<valuemax>1.0</valuemax>
															<value>0</value>
														</parameter>
													</effect>
												</filter>
												<logginginfo>
													<description></description>
													<scene></scene>
													<shottake></shottake>
													<lognote></lognote>
													<good></good>
													<originalvideofilename></originalvideofilename>
													<originalaudiofilename></originalaudiofilename>
												</logginginfo>
												<colorinfo>
													<lut></lut>
													<lut1></lut1>
													<asc_sop></asc_sop>
													<asc_sat></asc_sat>
													<lut2></lut2>
												</colorinfo>
												<labels>
													<label2>Iris</label2>
												</labels>
											</clipitem>
											<enabled>TRUE</enabled>
											<locked>FALSE</locked>
										</track>
									</video>
									<audio>
										<numOutputChannels>2</numOutputChannels>
										<format>
											<samplecharacteristics>
												<depth>16</depth>
												<samplerate>44100</samplerate>
											</samplecharacteristics>
										</format>
										<outputs>
											<group>
												<index>1</index>
												<numchannels>1</numchannels>
												<downmix>0</downmix>
												<channel>
													<index>1</index>
												</channel>
											</group>
											<group>
												<index>2</index>
												<numchannels>1</numchannels>
												<downmix>0</downmix>
												<channel>
													<index>2</index>
												</channel>
											</group>
										</outputs>
										<track TL.SQTrackExpandedHeight="25" TL.SQTrackExpanded="0" MZ.TrackTargeted="1" PannerCurrentValue="0.5" PannerIsInverted="true" PannerStartKeyframe="-91445760000000000,0.5,0,0,0,0,0,0" PannerName="Balance" currentExplodedTrackIndex="0" totalExplodedTrackCount="2" premiereTrackType="Stereo">
											<enabled>TRUE</enabled>
											<locked>FALSE</locked>
											<outputchannelindex>1</outputchannelindex>
										</track>
										<track TL.SQTrackExpandedHeight="25" TL.SQTrackExpanded="0" MZ.TrackTargeted="1" PannerCurrentValue="0.5" PannerIsInverted="true" PannerStartKeyframe="-91445760000000000,0.5,0,0,0,0,0,0" PannerName="Balance" currentExplodedTrackIndex="1" totalExplodedTrackCount="2" premiereTrackType="Stereo">
											<enabled>TRUE</enabled>
											<locked>FALSE</locked>
											<outputchannelindex>2</outputchannelindex>
										</track>
									</audio>
								</media>
								<timecode>
									<rate>
										<timebase>30</timebase>
										<ntsc>TRUE</ntsc>
									</rate>
									<string>00:00:00:00</string>
									<frame>0</frame>
									<displayformat>NDF</displayformat>
								</timecode>
								<labels>
									<label2>Forest</label2>
								</labels>
								<logginginfo>
									<description></description>
									<scene></scene>
									<shottake></shottake>
									<lognote></lognote>
									<good></good>
									<originalvideofilename></originalvideofilename>
									<originalaudiofilename></originalaudiofilename>
								</logginginfo>
							</sequence>
							<sequence id="sequence-19" TL.SQVisibleBaseTime="0" TL.SQTimePerPixel="0.13818516812528489" MZ.Sequence.PreviewFrameSizeHeight="1080" MZ.Sequence.PreviewFrameSizeWidth="1920" MZ.Sequence.AudioTimeDisplayFormat="200" MZ.Sequence.PreviewRenderingClassID="1297106761" MZ.Sequence.PreviewRenderingPresetCodec="1297107278" MZ.Sequence.PreviewRenderingPresetPath="EncoderPresets/SequencePreview/795454d9-d3c2-429d-9474-923ab13b7018/I-Frame Only MPEG.epr" MZ.Sequence.PreviewUseMaxRenderQuality="false" MZ.Sequence.PreviewUseMaxBitDepth="false" MZ.Sequence.EditingModeGUID="795454d9-d3c2-429d-9474-923ab13b7018" MZ.Sequence.VideoTimeDisplayFormat="103" MZ.WorkOutPoint="21231546336000" MZ.WorkInPoint="0" explodedTracks="true">
								<uuid>2f539437-82d8-4be4-9a24-1056acddad31</uuid>
								<duration>2505</duration>
								<rate>
									<timebase>30</timebase>
									<ntsc>TRUE</ntsc>
								</rate>
								<name>4trackingnest07</name>
								<media>
									<video>
										<format>
											<samplecharacteristics>
												<rate>
													<timebase>30</timebase>
													<ntsc>TRUE</ntsc>
												</rate>
												<codec>
													<name>Apple ProRes 422</name>
													<appspecificdata>
														<appname>Final Cut Pro</appname>
														<appmanufacturer>Apple Inc.</appmanufacturer>
														<appversion>7.0</appversion>
														<data>
															<qtcodec>
																<codecname>Apple ProRes 422</codecname>
																<codectypename>Apple ProRes 422</codectypename>
																<codectypecode>apcn</codectypecode>
																<codecvendorcode>appl</codecvendorcode>
																<spatialquality>1024</spatialquality>
																<temporalquality>0</temporalquality>
																<keyframerate>0</keyframerate>
																<datarate>0</datarate>
															</qtcodec>
														</data>
													</appspecificdata>
												</codec>
												<width>1920</width>
												<height>1080</height>
												<anamorphic>FALSE</anamorphic>
												<pixelaspectratio>square</pixelaspectratio>
												<fielddominance>none</fielddominance>
												<colordepth>24</colordepth>
											</samplecharacteristics>
										</format>
										<track TL.SQTrackExpandedHeight="25" TL.SQTrackExpanded="0" MZ.TrackTargeted="1">
											<clipitem id="clipitem-199">
												<masterclipid>masterclip-111</masterclipid>
												<name>1251 - SAT_waterballet_1m30s.mp4</name>
												<enabled>TRUE</enabled>
												<duration>2737</duration>
												<rate>
													<timebase>30</timebase>
													<ntsc>TRUE</ntsc>
												</rate>
												<start>0</start>
												<end>2505</end>
												<in>232</in>
												<out>2737</out>
												<pproTicksIn>1966354790400</pproTicksIn>
												<pproTicksOut>23197901126400</pproTicksOut>
												<alphatype>none</alphatype>
												<pixelaspectratio>square</pixelaspectratio>
												<anamorphic>FALSE</anamorphic>
												<file id="file-110">
													<name>1251 - SAT_waterballet_1m30s.mp4</name>
													<pathurl>file://localhost/Volumes/Satisfactum%20Satisfactorum/03_Weekly%20(Project%20Files,%20Main%20Segments)/OSTV/OSTV%2023-08-28/3_Raw%20Files/04-03/1251%20-%20SAT_waterballet_1m30s.mp4</pathurl>
													<rate>
														<timebase>30</timebase>
														<ntsc>TRUE</ntsc>
													</rate>
													<duration>2737</duration>
													<timecode>
														<rate>
															<timebase>30</timebase>
															<ntsc>TRUE</ntsc>
														</rate>
														<string>00:00:00:00</string>
														<frame>0</frame>
														<displayformat>NDF</displayformat>
													</timecode>
													<media>
														<video>
															<samplecharacteristics>
																<rate>
																	<timebase>30</timebase>
																	<ntsc>TRUE</ntsc>
																</rate>
																<width>1280</width>
																<height>720</height>
																<anamorphic>FALSE</anamorphic>
																<pixelaspectratio>square</pixelaspectratio>
																<fielddominance>none</fielddominance>
															</samplecharacteristics>
														</video>
														<audio>
															<samplecharacteristics>
																<depth>16</depth>
																<samplerate>32000</samplerate>
															</samplecharacteristics>
															<channelcount>2</channelcount>
														</audio>
													</media>
												</file>
												<filter>
													<effect>
														<name>Basic Motion</name>
														<effectid>basic</effectid>
														<effectcategory>motion</effectcategory>
														<effecttype>motion</effecttype>
														<mediatype>video</mediatype>
														<pproBypass>false</pproBypass>
														<parameter authoringApp="PremierePro">
															<parameterid>scale</parameterid>
															<name>Scale</name>
															<valuemin>0</valuemin>
															<valuemax>1000</valuemax>
															<value>150</value>
														</parameter>
														<parameter authoringApp="PremierePro">
															<parameterid>rotation</parameterid>
															<name>Rotation</name>
															<valuemin>-8640</valuemin>
															<valuemax>8640</valuemax>
															<value>0</value>
														</parameter>
														<parameter authoringApp="PremierePro">
															<parameterid>center</parameterid>
															<name>Center</name>
															<value>
																<horiz>0</horiz>
																<vert>0</vert>
															</value>
														</parameter>
														<parameter authoringApp="PremierePro">
															<parameterid>centerOffset</parameterid>
															<name>Anchor Point</name>
															<value>
																<horiz>0</horiz>
																<vert>0</vert>
															</value>
														</parameter>
														<parameter authoringApp="PremierePro">
															<parameterid>antiflicker</parameterid>
															<name>Anti-flicker Filter</name>
															<valuemin>0.0</valuemin>
															<valuemax>1.0</valuemax>
															<value>0</value>
														</parameter>
													</effect>
												</filter>
												<logginginfo>
													<description></description>
													<scene></scene>
													<shottake></shottake>
													<lognote></lognote>
													<good></good>
													<originalvideofilename></originalvideofilename>
													<originalaudiofilename></originalaudiofilename>
												</logginginfo>
												<colorinfo>
													<lut></lut>
													<lut1></lut1>
													<asc_sop></asc_sop>
													<asc_sat></asc_sat>
													<lut2></lut2>
												</colorinfo>
												<labels>
													<label2>Iris</label2>
												</labels>
											</clipitem>
											<enabled>TRUE</enabled>
											<locked>FALSE</locked>
										</track>
									</video>
									<audio>
										<numOutputChannels>2</numOutputChannels>
										<format>
											<samplecharacteristics>
												<depth>16</depth>
												<samplerate>44100</samplerate>
											</samplecharacteristics>
										</format>
										<outputs>
											<group>
												<index>1</index>
												<numchannels>1</numchannels>
												<downmix>0</downmix>
												<channel>
													<index>1</index>
												</channel>
											</group>
											<group>
												<index>2</index>
												<numchannels>1</numchannels>
												<downmix>0</downmix>
												<channel>
													<index>2</index>
												</channel>
											</group>
										</outputs>
										<track TL.SQTrackExpandedHeight="25" TL.SQTrackExpanded="0" MZ.TrackTargeted="1" PannerCurrentValue="0.5" PannerIsInverted="true" PannerStartKeyframe="-91445760000000000,0.5,0,0,0,0,0,0" PannerName="Balance" currentExplodedTrackIndex="0" totalExplodedTrackCount="2" premiereTrackType="Stereo">
											<enabled>TRUE</enabled>
											<locked>FALSE</locked>
											<outputchannelindex>1</outputchannelindex>
										</track>
										<track TL.SQTrackExpandedHeight="25" TL.SQTrackExpanded="0" MZ.TrackTargeted="1" PannerCurrentValue="0.5" PannerIsInverted="true" PannerStartKeyframe="-91445760000000000,0.5,0,0,0,0,0,0" PannerName="Balance" currentExplodedTrackIndex="1" totalExplodedTrackCount="2" premiereTrackType="Stereo">
											<enabled>TRUE</enabled>
											<locked>FALSE</locked>
											<outputchannelindex>2</outputchannelindex>
										</track>
									</audio>
								</media>
								<timecode>
									<rate>
										<timebase>30</timebase>
										<ntsc>TRUE</ntsc>
									</rate>
									<string>00:00:00:00</string>
									<frame>0</frame>
									<displayformat>NDF</displayformat>
								</timecode>
								<labels>
									<label2>Forest</label2>
								</labels>
								<logginginfo>
									<description></description>
									<scene></scene>
									<shottake></shottake>
									<lognote></lognote>
									<good></good>
									<originalvideofilename></originalvideofilename>
									<originalaudiofilename></originalaudiofilename>
								</logginginfo>
							</sequence>
							<sequence id="sequence-20" TL.SQVisibleBaseTime="0" TL.SQTimePerPixel="0.13818516812528489" MZ.Sequence.PreviewFrameSizeHeight="1080" MZ.Sequence.PreviewFrameSizeWidth="1920" MZ.Sequence.AudioTimeDisplayFormat="200" MZ.Sequence.PreviewRenderingClassID="1297106761" MZ.Sequence.PreviewRenderingPresetCodec="1297107278" MZ.Sequence.PreviewRenderingPresetPath="EncoderPresets/SequencePreview/795454d9-d3c2-429d-9474-923ab13b7018/I-Frame Only MPEG.epr" MZ.Sequence.PreviewUseMaxRenderQuality="false" MZ.Sequence.PreviewUseMaxBitDepth="false" MZ.Sequence.EditingModeGUID="795454d9-d3c2-429d-9474-923ab13b7018" MZ.Sequence.VideoTimeDisplayFormat="103" MZ.WorkOutPoint="23096193120000" MZ.WorkInPoint="0" explodedTracks="true">
								<uuid>c245a593-4049-40a7-ad4c-ee383dd10ab2</uuid>
								<duration>2725</duration>
								<rate>
									<timebase>30</timebase>
									<ntsc>TRUE</ntsc>
								</rate>
								<name>4trackingnest08</name>
								<media>
									<video>
										<format>
											<samplecharacteristics>
												<rate>
													<timebase>30</timebase>
													<ntsc>TRUE</ntsc>
												</rate>
												<codec>
													<name>Apple ProRes 422</name>
													<appspecificdata>
														<appname>Final Cut Pro</appname>
														<appmanufacturer>Apple Inc.</appmanufacturer>
														<appversion>7.0</appversion>
														<data>
															<qtcodec>
																<codecname>Apple ProRes 422</codecname>
																<codectypename>Apple ProRes 422</codectypename>
																<codectypecode>apcn</codectypecode>
																<codecvendorcode>appl</codecvendorcode>
																<spatialquality>1024</spatialquality>
																<temporalquality>0</temporalquality>
																<keyframerate>0</keyframerate>
																<datarate>0</datarate>
															</qtcodec>
														</data>
													</appspecificdata>
												</codec>
												<width>1920</width>
												<height>1080</height>
												<anamorphic>FALSE</anamorphic>
												<pixelaspectratio>square</pixelaspectratio>
												<fielddominance>none</fielddominance>
												<colordepth>24</colordepth>
											</samplecharacteristics>
										</format>
										<track TL.SQTrackExpandedHeight="25" TL.SQTrackExpanded="0" MZ.TrackTargeted="1">
											<clipitem id="clipitem-200">
												<masterclipid>masterclip-112</masterclipid>
												<name>1251 - FND_Pinoy Tambay_1m35s.mp4</name>
												<enabled>TRUE</enabled>
												<duration>2725</duration>
												<rate>
													<timebase>30</timebase>
													<ntsc>TRUE</ntsc>
												</rate>
												<start>0</start>
												<end>2725</end>
												<in>0</in>
												<out>2725</out>
												<pproTicksIn>0</pproTicksIn>
												<pproTicksOut>23096193120000</pproTicksOut>
												<alphatype>none</alphatype>
												<pixelaspectratio>square</pixelaspectratio>
												<anamorphic>FALSE</anamorphic>
												<file id="file-111">
													<name>1251 - FND_Pinoy Tambay_1m35s.mp4</name>
													<pathurl>file://localhost/Volumes/Satisfactum%20Satisfactorum/03_Weekly%20(Project%20Files,%20Main%20Segments)/OSTV/OSTV%2023-08-28/3_Raw%20Files/04-03/1251%20-%20FND_Pinoy%20Tambay_1m35s.mp4</pathurl>
													<rate>
														<timebase>30</timebase>
														<ntsc>TRUE</ntsc>
													</rate>
													<duration>2725</duration>
													<timecode>
														<rate>
															<timebase>30</timebase>
															<ntsc>TRUE</ntsc>
														</rate>
														<string>00:00:00:00</string>
														<frame>0</frame>
														<displayformat>NDF</displayformat>
													</timecode>
													<media>
														<video>
															<samplecharacteristics>
																<rate>
																	<timebase>30</timebase>
																	<ntsc>TRUE</ntsc>
																</rate>
																<width>1280</width>
																<height>720</height>
																<anamorphic>FALSE</anamorphic>
																<pixelaspectratio>square</pixelaspectratio>
																<fielddominance>none</fielddominance>
															</samplecharacteristics>
														</video>
														<audio>
															<samplecharacteristics>
																<depth>16</depth>
																<samplerate>32000</samplerate>
															</samplecharacteristics>
															<channelcount>2</channelcount>
														</audio>
													</media>
												</file>
												<filter>
													<effect>
														<name>Basic Motion</name>
														<effectid>basic</effectid>
														<effectcategory>motion</effectcategory>
														<effecttype>motion</effecttype>
														<mediatype>video</mediatype>
														<pproBypass>false</pproBypass>
														<parameter authoringApp="PremierePro">
															<parameterid>scale</parameterid>
															<name>Scale</name>
															<valuemin>0</valuemin>
															<valuemax>1000</valuemax>
															<value>150</value>
														</parameter>
														<parameter authoringApp="PremierePro">
															<parameterid>rotation</parameterid>
															<name>Rotation</name>
															<valuemin>-8640</valuemin>
															<valuemax>8640</valuemax>
															<value>0</value>
														</parameter>
														<parameter authoringApp="PremierePro">
															<parameterid>center</parameterid>
															<name>Center</name>
															<value>
																<horiz>0</horiz>
																<vert>0</vert>
															</value>
														</parameter>
														<parameter authoringApp="PremierePro">
															<parameterid>centerOffset</parameterid>
															<name>Anchor Point</name>
															<value>
																<horiz>0</horiz>
																<vert>0</vert>
															</value>
														</parameter>
														<parameter authoringApp="PremierePro">
															<parameterid>antiflicker</parameterid>
															<name>Anti-flicker Filter</name>
															<valuemin>0.0</valuemin>
															<valuemax>1.0</valuemax>
															<value>0</value>
														</parameter>
													</effect>
												</filter>
												<logginginfo>
													<description></description>
													<scene></scene>
													<shottake></shottake>
													<lognote></lognote>
													<good></good>
													<originalvideofilename></originalvideofilename>
													<originalaudiofilename></originalaudiofilename>
												</logginginfo>
												<colorinfo>
													<lut></lut>
													<lut1></lut1>
													<asc_sop></asc_sop>
													<asc_sat></asc_sat>
													<lut2></lut2>
												</colorinfo>
												<labels>
													<label2>Iris</label2>
												</labels>
											</clipitem>
											<enabled>TRUE</enabled>
											<locked>FALSE</locked>
										</track>
									</video>
									<audio>
										<numOutputChannels>2</numOutputChannels>
										<format>
											<samplecharacteristics>
												<depth>16</depth>
												<samplerate>44100</samplerate>
											</samplecharacteristics>
										</format>
										<outputs>
											<group>
												<index>1</index>
												<numchannels>1</numchannels>
												<downmix>0</downmix>
												<channel>
													<index>1</index>
												</channel>
											</group>
											<group>
												<index>2</index>
												<numchannels>1</numchannels>
												<downmix>0</downmix>
												<channel>
													<index>2</index>
												</channel>
											</group>
										</outputs>
										<track TL.SQTrackExpandedHeight="25" TL.SQTrackExpanded="0" MZ.TrackTargeted="1" PannerCurrentValue="0.5" PannerIsInverted="true" PannerStartKeyframe="-91445760000000000,0.5,0,0,0,0,0,0" PannerName="Balance" currentExplodedTrackIndex="0" totalExplodedTrackCount="2" premiereTrackType="Stereo">
											<enabled>TRUE</enabled>
											<locked>FALSE</locked>
											<outputchannelindex>1</outputchannelindex>
										</track>
										<track TL.SQTrackExpandedHeight="25" TL.SQTrackExpanded="0" MZ.TrackTargeted="1" PannerCurrentValue="0.5" PannerIsInverted="true" PannerStartKeyframe="-91445760000000000,0.5,0,0,0,0,0,0" PannerName="Balance" currentExplodedTrackIndex="1" totalExplodedTrackCount="2" premiereTrackType="Stereo">
											<enabled>TRUE</enabled>
											<locked>FALSE</locked>
											<outputchannelindex>2</outputchannelindex>
										</track>
									</audio>
								</media>
								<timecode>
									<rate>
										<timebase>30</timebase>
										<ntsc>TRUE</ntsc>
									</rate>
									<string>00:00:00:00</string>
									<frame>0</frame>
									<displayformat>NDF</displayformat>
								</timecode>
								<labels>
									<label2>Forest</label2>
								</labels>
								<logginginfo>
									<description></description>
									<scene></scene>
									<shottake></shottake>
									<lognote></lognote>
									<good></good>
									<originalvideofilename></originalvideofilename>
									<originalaudiofilename></originalaudiofilename>
								</logginginfo>
							</sequence>
							<sequence id="sequence-21" TL.SQAudioVisibleBase="0" TL.SQVideoVisibleBase="0" TL.SQVisibleBaseTime="0" TL.SQAVDividerPosition="0.5" TL.SQHideShyTracks="0" TL.SQHeaderWidth="236" Monitor.ProgramZoomOut="5721075360000" Monitor.ProgramZoomIn="0" TL.SQTimePerPixel="0.069092584062642445" MZ.EditLine="0" MZ.Sequence.PreviewFrameSizeHeight="1080" MZ.Sequence.PreviewFrameSizeWidth="1080" MZ.Sequence.AudioTimeDisplayFormat="200" MZ.Sequence.PreviewRenderingClassID="1297106761" MZ.Sequence.PreviewRenderingPresetCodec="1297107278" MZ.Sequence.PreviewRenderingPresetPath="EncoderPresets/SequencePreview/795454d9-d3c2-429d-9474-923ab13b7018/I-Frame Only MPEG.epr" MZ.Sequence.PreviewUseMaxRenderQuality="false" MZ.Sequence.PreviewUseMaxBitDepth="false" MZ.Sequence.EditingModeGUID="795454d9-d3c2-429d-9474-923ab13b7018" MZ.Sequence.VideoTimeDisplayFormat="103" MZ.WorkOutPoint="5721075360000" MZ.WorkInPoint="0" explodedTracks="true">
								<uuid>083b188b-72e8-4736-9505-bb62b45c77dd</uuid>
								<duration>675</duration>
								<rate>
									<timebase>30</timebase>
									<ntsc>TRUE</ntsc>
								</rate>
								<name>coffeenest</name>
								<media>
									<video>
										<format>
											<samplecharacteristics>
												<rate>
													<timebase>30</timebase>
													<ntsc>TRUE</ntsc>
												</rate>
												<codec>
													<name>Apple ProRes 422</name>
													<appspecificdata>
														<appname>Final Cut Pro</appname>
														<appmanufacturer>Apple Inc.</appmanufacturer>
														<appversion>7.0</appversion>
														<data>
															<qtcodec>
																<codecname>Apple ProRes 422</codecname>
																<codectypename>Apple ProRes 422</codectypename>
																<codectypecode>apcn</codectypecode>
																<codecvendorcode>appl</codecvendorcode>
																<spatialquality>1024</spatialquality>
																<temporalquality>0</temporalquality>
																<keyframerate>0</keyframerate>
																<datarate>0</datarate>
															</qtcodec>
														</data>
													</appspecificdata>
												</codec>
												<width>1080</width>
												<height>1080</height>
												<anamorphic>FALSE</anamorphic>
												<pixelaspectratio>square</pixelaspectratio>
												<fielddominance>none</fielddominance>
												<colordepth>24</colordepth>
											</samplecharacteristics>
										</format>
										<track TL.SQTrackShy="0" TL.SQTrackExpandedHeight="25" TL.SQTrackExpanded="0" MZ.TrackTargeted="1">
											<clipitem id="clipitem-201">
												<masterclipid>masterclip-113</masterclipid>
												<name>ART_I love you a latte_1.3_HAPPY.mp4</name>
												<enabled>TRUE</enabled>
												<duration>2598</duration>
												<rate>
													<timebase>30</timebase>
													<ntsc>TRUE</ntsc>
												</rate>
												<start>0</start>
												<end>675</end>
												<in>1923</in>
												<out>2598</out>
												<pproTicksIn>16298708025600</pproTicksIn>
												<pproTicksOut>22019783385600</pproTicksOut>
												<alphatype>none</alphatype>
												<pixelaspectratio>square</pixelaspectratio>
												<anamorphic>FALSE</anamorphic>
												<file id="file-112">
													<name>ART_I love you a latte_1.3_HAPPY.mp4</name>
													<pathurl>file://localhost/Volumes/Satisfactum%20Satisfactorum/03_Weekly%20(Project%20Files,%20Main%20Segments)/OSTV/OSTV%2023-08-14/3_Raw%20Files/ART_I%20love%20you%20a%20latte_1.3_HAPPY.mp4</pathurl>
													<rate>
														<timebase>30</timebase>
														<ntsc>TRUE</ntsc>
													</rate>
													<duration>2598</duration>
													<timecode>
														<rate>
															<timebase>30</timebase>
															<ntsc>TRUE</ntsc>
														</rate>
														<string>00;00;00;00</string>
														<frame>0</frame>
														<displayformat>DF</displayformat>
													</timecode>
													<media>
														<video>
															<samplecharacteristics>
																<rate>
																	<timebase>30</timebase>
																	<ntsc>TRUE</ntsc>
																</rate>
																<width>1280</width>
																<height>720</height>
																<anamorphic>FALSE</anamorphic>
																<pixelaspectratio>square</pixelaspectratio>
																<fielddominance>none</fielddominance>
															</samplecharacteristics>
														</video>
														<audio>
															<samplecharacteristics>
																<depth>16</depth>
																<samplerate>48000</samplerate>
															</samplecharacteristics>
															<channelcount>2</channelcount>
														</audio>
													</media>
												</file>
												<filter>
													<effect>
														<name>Basic Motion</name>
														<effectid>basic</effectid>
														<effectcategory>motion</effectcategory>
														<effecttype>motion</effecttype>
														<mediatype>video</mediatype>
														<pproBypass>false</pproBypass>
														<parameter authoringApp="PremierePro">
															<parameterid>scale</parameterid>
															<name>Scale</name>
															<valuemin>0</valuemin>
															<valuemax>1000</valuemax>
															<value>201</value>
														</parameter>
														<parameter authoringApp="PremierePro">
															<parameterid>rotation</parameterid>
															<name>Rotation</name>
															<valuemin>-8640</valuemin>
															<valuemax>8640</valuemax>
															<value>0</value>
														</parameter>
														<parameter authoringApp="PremierePro">
															<parameterid>center</parameterid>
															<name>Center</name>
															<value>
																<horiz>-0.142969</horiz>
																<vert>-0.0180556</vert>
															</value>
														</parameter>
														<parameter authoringApp="PremierePro">
															<parameterid>centerOffset</parameterid>
															<name>Anchor Point</name>
															<value>
																<horiz>0</horiz>
																<vert>0</vert>
															</value>
														</parameter>
														<parameter authoringApp="PremierePro">
															<parameterid>antiflicker</parameterid>
															<name>Anti-flicker Filter</name>
															<valuemin>0.0</valuemin>
															<valuemax>1.0</valuemax>
															<value>0</value>
														</parameter>
													</effect>
												</filter>
												<logginginfo>
													<description></description>
													<scene></scene>
													<shottake></shottake>
													<lognote></lognote>
													<good></good>
													<originalvideofilename></originalvideofilename>
													<originalaudiofilename></originalaudiofilename>
												</logginginfo>
												<colorinfo>
													<lut></lut>
													<lut1></lut1>
													<asc_sop></asc_sop>
													<asc_sat></asc_sat>
													<lut2></lut2>
												</colorinfo>
												<labels>
													<label2>Iris</label2>
												</labels>
											</clipitem>
											<enabled>TRUE</enabled>
											<locked>FALSE</locked>
										</track>
									</video>
									<audio>
										<numOutputChannels>2</numOutputChannels>
										<format>
											<samplecharacteristics>
												<depth>16</depth>
												<samplerate>44100</samplerate>
											</samplecharacteristics>
										</format>
										<outputs>
											<group>
												<index>1</index>
												<numchannels>1</numchannels>
												<downmix>0</downmix>
												<channel>
													<index>1</index>
												</channel>
											</group>
											<group>
												<index>2</index>
												<numchannels>1</numchannels>
												<downmix>0</downmix>
												<channel>
													<index>2</index>
												</channel>
											</group>
										</outputs>
										<track TL.SQTrackAudioKeyframeStyle="0" TL.SQTrackShy="0" TL.SQTrackExpandedHeight="25" TL.SQTrackExpanded="0" MZ.TrackTargeted="1" PannerCurrentValue="0.5" PannerIsInverted="true" PannerStartKeyframe="-91445760000000000,0.5,0,0,0,0,0,0" PannerName="Balance" currentExplodedTrackIndex="0" totalExplodedTrackCount="2" premiereTrackType="Stereo">
											<enabled>TRUE</enabled>
											<locked>FALSE</locked>
											<outputchannelindex>1</outputchannelindex>
										</track>
										<track TL.SQTrackAudioKeyframeStyle="0" TL.SQTrackShy="0" TL.SQTrackExpandedHeight="25" TL.SQTrackExpanded="0" MZ.TrackTargeted="1" PannerCurrentValue="0.5" PannerIsInverted="true" PannerStartKeyframe="-91445760000000000,0.5,0,0,0,0,0,0" PannerName="Balance" currentExplodedTrackIndex="1" totalExplodedTrackCount="2" premiereTrackType="Stereo">
											<enabled>TRUE</enabled>
											<locked>FALSE</locked>
											<outputchannelindex>2</outputchannelindex>
										</track>
									</audio>
								</media>
								<timecode>
									<rate>
										<timebase>30</timebase>
										<ntsc>TRUE</ntsc>
									</rate>
									<string>00:00:00:00</string>
									<frame>0</frame>
									<displayformat>NDF</displayformat>
								</timecode>
								<labels>
									<label2>Forest</label2>
								</labels>
								<logginginfo>
									<description></description>
									<scene></scene>
									<shottake></shottake>
									<lognote></lognote>
									<good></good>
									<originalvideofilename></originalvideofilename>
									<originalaudiofilename></originalaudiofilename>
								</logginginfo>
							</sequence>
							<sequence id="sequence-22" TL.SQAudioVisibleBase="0" TL.SQVideoVisibleBase="0" TL.SQVisibleBaseTime="0" TL.SQAVDividerPosition="0.5" TL.SQHideShyTracks="0" TL.SQHeaderWidth="236" TL.SQDataTrackViewControlState="0" Monitor.ProgramZoomOut="13578018854400" Monitor.ProgramZoomIn="0" TL.SQTimePerPixel="0.069092584062642445" MZ.EditLine="10145373638400" MZ.Sequence.PreviewFrameSizeHeight="1080" MZ.Sequence.PreviewFrameSizeWidth="1080" MZ.Sequence.AudioTimeDisplayFormat="200" MZ.Sequence.PreviewRenderingClassID="1297106761" MZ.Sequence.PreviewRenderingPresetCodec="1297107278" MZ.Sequence.PreviewRenderingPresetPath="EncoderPresets/SequencePreview/795454d9-d3c2-429d-9474-923ab13b7018/I-Frame Only MPEG.epr" MZ.Sequence.PreviewUseMaxRenderQuality="false" MZ.Sequence.PreviewUseMaxBitDepth="false" MZ.Sequence.EditingModeGUID="795454d9-d3c2-429d-9474-923ab13b7018" MZ.Sequence.VideoTimeDisplayFormat="103" MZ.WorkOutPoint="15366384633600" MZ.WorkInPoint="0" explodedTracks="true">
								<uuid>261e69cd-9707-4d04-bc41-af17fbce7f7e</uuid>
								<duration>1602</duration>
								<rate>
									<timebase>30</timebase>
									<ntsc>TRUE</ntsc>
								</rate>
								<out>1602</out>
								<name>toastnest</name>
								<media>
									<video>
										<format>
											<samplecharacteristics>
												<rate>
													<timebase>30</timebase>
													<ntsc>TRUE</ntsc>
												</rate>
												<codec>
													<name>Apple ProRes 422</name>
													<appspecificdata>
														<appname>Final Cut Pro</appname>
														<appmanufacturer>Apple Inc.</appmanufacturer>
														<appversion>7.0</appversion>
														<data>
															<qtcodec>
																<codecname>Apple ProRes 422</codecname>
																<codectypename>Apple ProRes 422</codectypename>
																<codectypecode>apcn</codectypecode>
																<codecvendorcode>appl</codecvendorcode>
																<spatialquality>1024</spatialquality>
																<temporalquality>0</temporalquality>
																<keyframerate>0</keyframerate>
																<datarate>0</datarate>
															</qtcodec>
														</data>
													</appspecificdata>
												</codec>
												<width>1080</width>
												<height>1080</height>
												<anamorphic>FALSE</anamorphic>
												<pixelaspectratio>square</pixelaspectratio>
												<fielddominance>none</fielddominance>
												<colordepth>24</colordepth>
											</samplecharacteristics>
										</format>
										<track TL.SQTrackShy="0" TL.SQTrackExpandedHeight="25" TL.SQTrackExpanded="0" MZ.TrackTargeted="1">
											<clipitem id="clipitem-202">
												<masterclipid>masterclip-114</masterclipid>
												<name>(viviannecafe)_CYG0ZEHoo10_IG.mp4</name>
												<enabled>TRUE</enabled>
												<duration>672</duration>
												<rate>
													<timebase>30</timebase>
													<ntsc>TRUE</ntsc>
												</rate>
												<start>0</start>
												<end>373</end>
												<in>0</in>
												<out>373</out>
												<pproTicksIn>0</pproTicksIn>
												<pproTicksOut>3161423865600</pproTicksOut>
												<alphatype>none</alphatype>
												<pixelaspectratio>square</pixelaspectratio>
												<anamorphic>FALSE</anamorphic>
												<file id="file-113">
													<name>(viviannecafe)_CYG0ZEHoo10_IG.mp4</name>
													<pathurl>file://localhost/Volumes/Satisfactum%20Satisfactorum/03_Weekly%20(Project%20Files,%20Main%20Segments)/OSTV/OSTV%2023-07-31/3_Raw%20Files/eyecandy/French%20Toast/(viviannecafe)_CYG0ZEHoo10_IG.mp4</pathurl>
													<rate>
														<timebase>30</timebase>
														<ntsc>FALSE</ntsc>
													</rate>
													<duration>673</duration>
													<timecode>
														<rate>
															<timebase>30</timebase>
															<ntsc>FALSE</ntsc>
														</rate>
														<string>00:00:00:00</string>
														<frame>0</frame>
														<displayformat>NDF</displayformat>
													</timecode>
													<media>
														<video>
															<samplecharacteristics>
																<rate>
																	<timebase>30</timebase>
																	<ntsc>FALSE</ntsc>
																</rate>
																<width>1080</width>
																<height>1920</height>
																<anamorphic>FALSE</anamorphic>
																<pixelaspectratio>square</pixelaspectratio>
																<fielddominance>none</fielddominance>
															</samplecharacteristics>
														</video>
														<audio>
															<samplecharacteristics>
																<depth>16</depth>
																<samplerate>44100</samplerate>
															</samplecharacteristics>
															<channelcount>1</channelcount>
															<audiochannel>
																<sourcechannel>1</sourcechannel>
															</audiochannel>
														</audio>
													</media>
												</file>
												<filter>
													<effect>
														<name>Basic Motion</name>
														<effectid>basic</effectid>
														<effectcategory>motion</effectcategory>
														<effecttype>motion</effecttype>
														<mediatype>video</mediatype>
														<pproBypass>false</pproBypass>
														<parameter authoringApp="PremierePro">
															<parameterid>scale</parameterid>
															<name>Scale</name>
															<valuemin>0</valuemin>
															<valuemax>1000</valuemax>
															<value>102.5</value>
														</parameter>
														<parameter authoringApp="PremierePro">
															<parameterid>rotation</parameterid>
															<name>Rotation</name>
															<valuemin>-8640</valuemin>
															<valuemax>8640</valuemax>
															<value>0</value>
														</parameter>
														<parameter authoringApp="PremierePro">
															<parameterid>center</parameterid>
															<name>Center</name>
															<value>
																<horiz>0</horiz>
																<vert>0</vert>
															</value>
														</parameter>
														<parameter authoringApp="PremierePro">
															<parameterid>centerOffset</parameterid>
															<name>Anchor Point</name>
															<value>
																<horiz>0</horiz>
																<vert>0</vert>
															</value>
														</parameter>
														<parameter authoringApp="PremierePro">
															<parameterid>antiflicker</parameterid>
															<name>Anti-flicker Filter</name>
															<valuemin>0.0</valuemin>
															<valuemax>1.0</valuemax>
															<value>0</value>
														</parameter>
													</effect>
												</filter>
												<logginginfo>
													<description></description>
													<scene></scene>
													<shottake></shottake>
													<lognote></lognote>
													<good></good>
													<originalvideofilename></originalvideofilename>
													<originalaudiofilename></originalaudiofilename>
												</logginginfo>
												<colorinfo>
													<lut></lut>
													<lut1></lut1>
													<asc_sop></asc_sop>
													<asc_sat></asc_sat>
													<lut2></lut2>
												</colorinfo>
												<labels>
													<label2>Iris</label2>
												</labels>
											</clipitem>
											<clipitem id="clipitem-203">
												<masterclipid>masterclip-114</masterclipid>
												<name>(viviannecafe)_CYG0ZEHoo10_IG.mp4</name>
												<enabled>TRUE</enabled>
												<duration>672</duration>
												<rate>
													<timebase>30</timebase>
													<ntsc>TRUE</ntsc>
												</rate>
												<start>373</start>
												<end>616</end>
												<in>429</in>
												<out>672</out>
												<pproTicksIn>3636061228800</pproTicksIn>
												<pproTicksOut>5695648358400</pproTicksOut>
												<alphatype>none</alphatype>
												<file id="file-113"/>
												<filter>
													<effect>
														<name>Basic Motion</name>
														<effectid>basic</effectid>
														<effectcategory>motion</effectcategory>
														<effecttype>motion</effecttype>
														<mediatype>video</mediatype>
														<pproBypass>false</pproBypass>
														<parameter authoringApp="PremierePro">
															<parameterid>scale</parameterid>
															<name>Scale</name>
															<valuemin>0</valuemin>
															<valuemax>1000</valuemax>
															<value>102.5</value>
														</parameter>
														<parameter authoringApp="PremierePro">
															<parameterid>rotation</parameterid>
															<name>Rotation</name>
															<valuemin>-8640</valuemin>
															<valuemax>8640</valuemax>
															<value>0</value>
														</parameter>
														<parameter authoringApp="PremierePro">
															<parameterid>center</parameterid>
															<name>Center</name>
															<value>
																<horiz>0</horiz>
																<vert>0</vert>
															</value>
														</parameter>
														<parameter authoringApp="PremierePro">
															<parameterid>centerOffset</parameterid>
															<name>Anchor Point</name>
															<value>
																<horiz>0</horiz>
																<vert>0</vert>
															</value>
														</parameter>
														<parameter authoringApp="PremierePro">
															<parameterid>antiflicker</parameterid>
															<name>Anti-flicker Filter</name>
															<valuemin>0.0</valuemin>
															<valuemax>1.0</valuemax>
															<value>0</value>
														</parameter>
													</effect>
												</filter>
												<logginginfo>
													<description></description>
													<scene></scene>
													<shottake></shottake>
													<lognote></lognote>
													<good></good>
													<originalvideofilename></originalvideofilename>
													<originalaudiofilename></originalaudiofilename>
												</logginginfo>
												<colorinfo>
													<lut></lut>
													<lut1></lut1>
													<asc_sop></asc_sop>
													<asc_sat></asc_sat>
													<lut2></lut2>
												</colorinfo>
												<labels>
													<label2>Iris</label2>
												</labels>
											</clipitem>
											<clipitem id="clipitem-204">
												<masterclipid>masterclip-115</masterclipid>
												<name>(hangryblogger)_CjHPMBXDTs2_IG.mp4</name>
												<enabled>TRUE</enabled>
												<duration>443</duration>
												<rate>
													<timebase>30</timebase>
													<ntsc>TRUE</ntsc>
												</rate>
												<start>1197</start>
												<end>1602</end>
												<in>0</in>
												<out>405</out>
												<pproTicksIn>0</pproTicksIn>
												<pproTicksOut>3432645216000</pproTicksOut>
												<alphatype>none</alphatype>
												<pixelaspectratio>square</pixelaspectratio>
												<anamorphic>FALSE</anamorphic>
												<file id="file-114">
													<name>(hangryblogger)_CjHPMBXDTs2_IG.mp4</name>
													<pathurl>file://localhost/Volumes/Satisfactum%20Satisfactorum/03_Weekly%20(Project%20Files,%20Main%20Segments)/OSTV/OSTV%2023-07-31/3_Raw%20Files/eyecandy/French%20Toast/(hangryblogger)_CjHPMBXDTs2_IG.mp4</pathurl>
													<rate>
														<timebase>30</timebase>
														<ntsc>FALSE</ntsc>
													</rate>
													<duration>444</duration>
													<timecode>
														<rate>
															<timebase>30</timebase>
															<ntsc>FALSE</ntsc>
														</rate>
														<string>00:00:00:00</string>
														<frame>0</frame>
														<displayformat>NDF</displayformat>
													</timecode>
													<media>
														<video>
															<samplecharacteristics>
																<rate>
																	<timebase>30</timebase>
																	<ntsc>FALSE</ntsc>
																</rate>
																<width>720</width>
																<height>1280</height>
																<anamorphic>FALSE</anamorphic>
																<pixelaspectratio>square</pixelaspectratio>
																<fielddominance>none</fielddominance>
															</samplecharacteristics>
														</video>
														<audio>
															<samplecharacteristics>
																<depth>16</depth>
																<samplerate>44100</samplerate>
															</samplecharacteristics>
															<channelcount>2</channelcount>
														</audio>
													</media>
												</file>
												<filter>
													<effect>
														<name>Basic Motion</name>
														<effectid>basic</effectid>
														<effectcategory>motion</effectcategory>
														<effecttype>motion</effecttype>
														<mediatype>video</mediatype>
														<pproBypass>false</pproBypass>
														<parameter authoringApp="PremierePro">
															<parameterid>scale</parameterid>
															<name>Scale</name>
															<valuemin>0</valuemin>
															<valuemax>1000</valuemax>
															<value>153.25</value>
														</parameter>
														<parameter authoringApp="PremierePro">
															<parameterid>rotation</parameterid>
															<name>Rotation</name>
															<valuemin>-8640</valuemin>
															<valuemax>8640</valuemax>
															<value>0</value>
														</parameter>
														<parameter authoringApp="PremierePro">
															<parameterid>center</parameterid>
															<name>Center</name>
															<value>
																<horiz>0</horiz>
																<vert>0</vert>
															</value>
														</parameter>
														<parameter authoringApp="PremierePro">
															<parameterid>centerOffset</parameterid>
															<name>Anchor Point</name>
															<value>
																<horiz>0</horiz>
																<vert>0</vert>
															</value>
														</parameter>
														<parameter authoringApp="PremierePro">
															<parameterid>antiflicker</parameterid>
															<name>Anti-flicker Filter</name>
															<valuemin>0.0</valuemin>
															<valuemax>1.0</valuemax>
															<value>0</value>
														</parameter>
													</effect>
												</filter>
												<logginginfo>
													<description></description>
													<scene></scene>
													<shottake></shottake>
													<lognote></lognote>
													<good></good>
													<originalvideofilename></originalvideofilename>
													<originalaudiofilename></originalaudiofilename>
												</logginginfo>
												<colorinfo>
													<lut></lut>
													<lut1></lut1>
													<asc_sop></asc_sop>
													<asc_sat></asc_sat>
													<lut2></lut2>
												</colorinfo>
												<labels>
													<label2>Iris</label2>
												</labels>
											</clipitem>
											<enabled>TRUE</enabled>
											<locked>FALSE</locked>
										</track>
										<track TL.SQTrackShy="0" TL.SQTrackExpandedHeight="25" TL.SQTrackExpanded="0" MZ.TrackTargeted="0">
											<clipitem id="clipitem-205">
												<masterclipid>masterclip-116</masterclipid>
												<name>(viviannecafe)_6982123489222200603_TT.mp4</name>
												<enabled>TRUE</enabled>
												<duration>736</duration>
												<rate>
													<timebase>30</timebase>
													<ntsc>TRUE</ntsc>
												</rate>
												<start>616</start>
												<end>1197</end>
												<in>131</in>
												<out>712</out>
												<pproTicksIn>1110312403200</pproTicksIn>
												<pproTicksOut>6034675046400</pproTicksOut>
												<alphatype>none</alphatype>
												<pixelaspectratio>square</pixelaspectratio>
												<anamorphic>FALSE</anamorphic>
												<file id="file-115">
													<name>(viviannecafe)_6982123489222200603_TT.mp4</name>
													<pathurl>file://localhost/Volumes/Satisfactum%20Satisfactorum/03_Weekly%20(Project%20Files,%20Main%20Segments)/OSTV/OSTV%2023-07-31/3_Raw%20Files/eyecandy/French%20Toast/(viviannecafe)_6982123489222200603_TT.mp4</pathurl>
													<rate>
														<timebase>30</timebase>
														<ntsc>FALSE</ntsc>
													</rate>
													<duration>737</duration>
													<timecode>
														<rate>
															<timebase>30</timebase>
															<ntsc>FALSE</ntsc>
														</rate>
														<string>00:00:00:00</string>
														<frame>0</frame>
														<displayformat>NDF</displayformat>
													</timecode>
													<media>
														<video>
															<samplecharacteristics>
																<rate>
																	<timebase>30</timebase>
																	<ntsc>FALSE</ntsc>
																</rate>
																<width>576</width>
																<height>1024</height>
																<anamorphic>FALSE</anamorphic>
																<pixelaspectratio>square</pixelaspectratio>
																<fielddominance>none</fielddominance>
															</samplecharacteristics>
														</video>
														<audio>
															<samplecharacteristics>
																<depth>16</depth>
																<samplerate>44100</samplerate>
															</samplecharacteristics>
															<channelcount>2</channelcount>
														</audio>
													</media>
												</file>
												<filter>
													<effect>
														<name>Basic Motion</name>
														<effectid>basic</effectid>
														<effectcategory>motion</effectcategory>
														<effecttype>motion</effecttype>
														<mediatype>video</mediatype>
														<pproBypass>false</pproBypass>
														<parameter authoringApp="PremierePro">
															<parameterid>scale</parameterid>
															<name>Scale</name>
															<valuemin>0</valuemin>
															<valuemax>1000</valuemax>
															<value>190.312</value>
														</parameter>
														<parameter authoringApp="PremierePro">
															<parameterid>rotation</parameterid>
															<name>Rotation</name>
															<valuemin>-8640</valuemin>
															<valuemax>8640</valuemax>
															<value>0</value>
														</parameter>
														<parameter authoringApp="PremierePro">
															<parameterid>center</parameterid>
															<name>Center</name>
															<value>
																<horiz>-0.0104167</horiz>
																<vert>-0.0703125</vert>
															</value>
														</parameter>
														<parameter authoringApp="PremierePro">
															<parameterid>centerOffset</parameterid>
															<name>Anchor Point</name>
															<value>
																<horiz>0</horiz>
																<vert>0</vert>
															</value>
														</parameter>
														<parameter authoringApp="PremierePro">
															<parameterid>antiflicker</parameterid>
															<name>Anti-flicker Filter</name>
															<valuemin>0.0</valuemin>
															<valuemax>1.0</valuemax>
															<value>0</value>
														</parameter>
													</effect>
												</filter>
												<logginginfo>
													<description></description>
													<scene></scene>
													<shottake></shottake>
													<lognote></lognote>
													<good></good>
													<originalvideofilename></originalvideofilename>
													<originalaudiofilename></originalaudiofilename>
												</logginginfo>
												<colorinfo>
													<lut></lut>
													<lut1></lut1>
													<asc_sop></asc_sop>
													<asc_sat></asc_sat>
													<lut2></lut2>
												</colorinfo>
												<labels>
													<label2>Iris</label2>
												</labels>
											</clipitem>
											<enabled>TRUE</enabled>
											<locked>FALSE</locked>
										</track>
										<track TL.SQTrackShy="0" TL.SQTrackExpandedHeight="25" TL.SQTrackExpanded="0" MZ.TrackTargeted="0">
											<enabled>TRUE</enabled>
											<locked>FALSE</locked>
										</track>
										<track TL.SQTrackShy="0" TL.SQTrackExpandedHeight="25" TL.SQTrackExpanded="0" MZ.TrackTargeted="0">
											<enabled>TRUE</enabled>
											<locked>FALSE</locked>
										</track>
									</video>
									<audio>
										<numOutputChannels>2</numOutputChannels>
										<format>
											<samplecharacteristics>
												<depth>16</depth>
												<samplerate>44100</samplerate>
											</samplecharacteristics>
										</format>
										<outputs>
											<group>
												<index>1</index>
												<numchannels>1</numchannels>
												<downmix>0</downmix>
												<channel>
													<index>1</index>
												</channel>
											</group>
											<group>
												<index>2</index>
												<numchannels>1</numchannels>
												<downmix>0</downmix>
												<channel>
													<index>2</index>
												</channel>
											</group>
										</outputs>
										<track TL.SQTrackAudioKeyframeStyle="0" TL.SQTrackShy="0" TL.SQTrackExpandedHeight="25" TL.SQTrackExpanded="0" MZ.TrackTargeted="1" PannerCurrentValue="0.5" PannerIsInverted="true" PannerStartKeyframe="-91445760000000000,0.5,0,0,0,0,0,0" PannerName="Balance" currentExplodedTrackIndex="0" totalExplodedTrackCount="2" premiereTrackType="Stereo">
											<enabled>TRUE</enabled>
											<locked>FALSE</locked>
											<outputchannelindex>1</outputchannelindex>
										</track>
										<track TL.SQTrackAudioKeyframeStyle="0" TL.SQTrackShy="0" TL.SQTrackExpandedHeight="25" TL.SQTrackExpanded="0" MZ.TrackTargeted="1" PannerCurrentValue="0.5" PannerIsInverted="true" PannerStartKeyframe="-91445760000000000,0.5,0,0,0,0,0,0" PannerName="Balance" currentExplodedTrackIndex="1" totalExplodedTrackCount="2" premiereTrackType="Stereo">
											<enabled>TRUE</enabled>
											<locked>FALSE</locked>
											<outputchannelindex>2</outputchannelindex>
										</track>
									</audio>
								</media>
								<timecode>
									<rate>
										<timebase>30</timebase>
										<ntsc>TRUE</ntsc>
									</rate>
									<string>00:00:00:00</string>
									<frame>0</frame>
									<displayformat>NDF</displayformat>
								</timecode>
								<labels>
									<label2>Forest</label2>
								</labels>
								<logginginfo>
									<description></description>
									<scene></scene>
									<shottake></shottake>
									<lognote></lognote>
									<good></good>
									<originalvideofilename></originalvideofilename>
									<originalaudiofilename></originalaudiofilename>
								</logginginfo>
							</sequence>
							<sequence id="sequence-23" TL.SQAudioVisibleBase="0" TL.SQVideoVisibleBase="0" TL.SQVisibleBaseTime="0" TL.SQAVDividerPosition="0.5" TL.SQHideShyTracks="0" TL.SQHeaderWidth="236" Monitor.ProgramZoomOut="26715303014400" Monitor.ProgramZoomIn="0" TL.SQTimePerPixel="0.03454629203132191" AM.TrackVScrollPosition="0" AM.TrackScrollPosition="0" MZ.EditLine="3068191526400" MZ.Sequence.PreviewFrameSizeHeight="1080" MZ.Sequence.PreviewFrameSizeWidth="1080" MZ.Sequence.AudioTimeDisplayFormat="200" MZ.Sequence.PreviewRenderingClassID="1297106761" MZ.Sequence.PreviewRenderingPresetCodec="1297107278" MZ.Sequence.PreviewRenderingPresetPath="EncoderPresets/SequencePreview/795454d9-d3c2-429d-9474-923ab13b7018/I-Frame Only MPEG.epr" MZ.Sequence.PreviewUseMaxRenderQuality="false" MZ.Sequence.PreviewUseMaxBitDepth="false" MZ.Sequence.EditingModeGUID="795454d9-d3c2-429d-9474-923ab13b7018" MZ.Sequence.VideoTimeDisplayFormat="103" MZ.WorkOutPoint="26715303014400" MZ.WorkInPoint="0" explodedTracks="true">
								<uuid>bb86ba41-ac7b-4975-a7d4-e4a2aeb86981</uuid>
								<duration>3152</duration>
								<rate>
									<timebase>30</timebase>
									<ntsc>TRUE</ntsc>
								</rate>
								<name>paintingnest</name>
								<media>
									<video>
										<format>
											<samplecharacteristics>
												<rate>
													<timebase>30</timebase>
													<ntsc>TRUE</ntsc>
												</rate>
												<codec>
													<name>Apple ProRes 422</name>
													<appspecificdata>
														<appname>Final Cut Pro</appname>
														<appmanufacturer>Apple Inc.</appmanufacturer>
														<appversion>7.0</appversion>
														<data>
															<qtcodec>
																<codecname>Apple ProRes 422</codecname>
																<codectypename>Apple ProRes 422</codectypename>
																<codectypecode>apcn</codectypecode>
																<codecvendorcode>appl</codecvendorcode>
																<spatialquality>1024</spatialquality>
																<temporalquality>0</temporalquality>
																<keyframerate>0</keyframerate>
																<datarate>0</datarate>
															</qtcodec>
														</data>
													</appspecificdata>
												</codec>
												<width>1080</width>
												<height>1080</height>
												<anamorphic>FALSE</anamorphic>
												<pixelaspectratio>square</pixelaspectratio>
												<fielddominance>none</fielddominance>
												<colordepth>24</colordepth>
											</samplecharacteristics>
										</format>
										<track TL.SQTrackShy="0" TL.SQTrackExpandedHeight="25" TL.SQTrackExpanded="0" MZ.TrackTargeted="1">
											<clipitem id="clipitem-206">
												<masterclipid>masterclip-117</masterclipid>
												<name>ART_OILPAINTEXPERTS_2_CRAFTY.mp4</name>
												<enabled>TRUE</enabled>
												<duration>3152</duration>
												<rate>
													<timebase>30</timebase>
													<ntsc>TRUE</ntsc>
												</rate>
												<start>0</start>
												<end>314</end>
												<in>0</in>
												<out>314</out>
												<pproTicksIn>0</pproTicksIn>
												<pproTicksOut>2661359500800</pproTicksOut>
												<alphatype>none</alphatype>
												<pixelaspectratio>square</pixelaspectratio>
												<anamorphic>FALSE</anamorphic>
												<file id="file-116">
													<name>ART_OILPAINTEXPERTS_2_CRAFTY.mp4</name>
													<pathurl>file://localhost/Volumes/Satisfactum%20Satisfactorum/03_Weekly%20(Project%20Files,%20Main%20Segments)/OSTV/OSTV%2023-08-28/3_Raw%20Files/ART_OILPAINTEXPERTS_2_CRAFTY.mp4</pathurl>
													<rate>
														<timebase>30</timebase>
														<ntsc>TRUE</ntsc>
													</rate>
													<duration>3152</duration>
													<timecode>
														<rate>
															<timebase>30</timebase>
															<ntsc>TRUE</ntsc>
														</rate>
														<string>00:00:00:00</string>
														<frame>0</frame>
														<displayformat>NDF</displayformat>
													</timecode>
													<media>
														<video>
															<samplecharacteristics>
																<rate>
																	<timebase>30</timebase>
																	<ntsc>TRUE</ntsc>
																</rate>
																<width>1920</width>
																<height>1080</height>
																<anamorphic>FALSE</anamorphic>
																<pixelaspectratio>square</pixelaspectratio>
																<fielddominance>none</fielddominance>
															</samplecharacteristics>
														</video>
														<audio>
															<samplecharacteristics>
																<depth>16</depth>
																<samplerate>32000</samplerate>
															</samplecharacteristics>
															<channelcount>2</channelcount>
														</audio>
													</media>
												</file>
												<filter>
													<effect>
														<name>Basic Motion</name>
														<effectid>basic</effectid>
														<effectcategory>motion</effectcategory>
														<effecttype>motion</effecttype>
														<mediatype>video</mediatype>
														<pproBypass>false</pproBypass>
														<parameter authoringApp="PremierePro">
															<parameterid>scale</parameterid>
															<name>Scale</name>
															<valuemin>0</valuemin>
															<valuemax>1000</valuemax>
															<value>187</value>
														</parameter>
														<parameter authoringApp="PremierePro">
															<parameterid>rotation</parameterid>
															<name>Rotation</name>
															<valuemin>-8640</valuemin>
															<valuemax>8640</valuemax>
															<value>0</value>
														</parameter>
														<parameter authoringApp="PremierePro">
															<parameterid>center</parameterid>
															<name>Center</name>
															<value>
																<horiz>0</horiz>
																<vert>-0.212037</vert>
															</value>
														</parameter>
														<parameter authoringApp="PremierePro">
															<parameterid>centerOffset</parameterid>
															<name>Anchor Point</name>
															<value>
																<horiz>0</horiz>
																<vert>0</vert>
															</value>
														</parameter>
														<parameter authoringApp="PremierePro">
															<parameterid>antiflicker</parameterid>
															<name>Anti-flicker Filter</name>
															<valuemin>0.0</valuemin>
															<valuemax>1.0</valuemax>
															<value>0</value>
														</parameter>
													</effect>
												</filter>
												<logginginfo>
													<description></description>
													<scene></scene>
													<shottake></shottake>
													<lognote></lognote>
													<good></good>
													<originalvideofilename></originalvideofilename>
													<originalaudiofilename></originalaudiofilename>
												</logginginfo>
												<colorinfo>
													<lut></lut>
													<lut1></lut1>
													<asc_sop></asc_sop>
													<asc_sat></asc_sat>
													<lut2></lut2>
												</colorinfo>
												<labels>
													<label2>Iris</label2>
												</labels>
											</clipitem>
											<clipitem id="clipitem-207">
												<masterclipid>masterclip-117</masterclipid>
												<name>ART_OILPAINTEXPERTS_2_CRAFTY.mp4</name>
												<enabled>TRUE</enabled>
												<duration>3152</duration>
												<rate>
													<timebase>30</timebase>
													<ntsc>TRUE</ntsc>
												</rate>
												<start>314</start>
												<end>3152</end>
												<in>314</in>
												<out>3152</out>
												<pproTicksIn>2661359500800</pproTicksIn>
												<pproTicksOut>26715303014400</pproTicksOut>
												<alphatype>none</alphatype>
												<file id="file-116"/>
												<filter>
													<effect>
														<name>Basic Motion</name>
														<effectid>basic</effectid>
														<effectcategory>motion</effectcategory>
														<effecttype>motion</effecttype>
														<mediatype>video</mediatype>
														<pproBypass>false</pproBypass>
														<parameter authoringApp="PremierePro">
															<parameterid>scale</parameterid>
															<name>Scale</name>
															<valuemin>0</valuemin>
															<valuemax>1000</valuemax>
															<value>187</value>
														</parameter>
														<parameter authoringApp="PremierePro">
															<parameterid>rotation</parameterid>
															<name>Rotation</name>
															<valuemin>-8640</valuemin>
															<valuemax>8640</valuemax>
															<value>0</value>
														</parameter>
														<parameter authoringApp="PremierePro">
															<parameterid>center</parameterid>
															<name>Center</name>
															<value>
																<horiz>0</horiz>
																<vert>0.362037</vert>
															</value>
														</parameter>
														<parameter authoringApp="PremierePro">
															<parameterid>centerOffset</parameterid>
															<name>Anchor Point</name>
															<value>
																<horiz>0</horiz>
																<vert>0</vert>
															</value>
														</parameter>
														<parameter authoringApp="PremierePro">
															<parameterid>antiflicker</parameterid>
															<name>Anti-flicker Filter</name>
															<valuemin>0.0</valuemin>
															<valuemax>1.0</valuemax>
															<value>0</value>
														</parameter>
													</effect>
												</filter>
												<logginginfo>
													<description></description>
													<scene></scene>
													<shottake></shottake>
													<lognote></lognote>
													<good></good>
													<originalvideofilename></originalvideofilename>
													<originalaudiofilename></originalaudiofilename>
												</logginginfo>
												<colorinfo>
													<lut></lut>
													<lut1></lut1>
													<asc_sop></asc_sop>
													<asc_sat></asc_sat>
													<lut2></lut2>
												</colorinfo>
												<labels>
													<label2>Iris</label2>
												</labels>
											</clipitem>
											<enabled>TRUE</enabled>
											<locked>FALSE</locked>
										</track>
									</video>
									<audio>
										<numOutputChannels>2</numOutputChannels>
										<format>
											<samplecharacteristics>
												<depth>16</depth>
												<samplerate>44100</samplerate>
											</samplecharacteristics>
										</format>
										<outputs>
											<group>
												<index>1</index>
												<numchannels>1</numchannels>
												<downmix>0</downmix>
												<channel>
													<index>1</index>
												</channel>
											</group>
											<group>
												<index>2</index>
												<numchannels>1</numchannels>
												<downmix>0</downmix>
												<channel>
													<index>2</index>
												</channel>
											</group>
										</outputs>
										<track TL.SQTrackAudioKeyframeStyle="0" TL.SQTrackShy="0" TL.SQTrackExpandedHeight="25" TL.SQTrackExpanded="0" MZ.TrackTargeted="1" PannerCurrentValue="0.5" PannerIsInverted="true" PannerStartKeyframe="-91445760000000000,0.5,0,0,0,0,0,0" PannerName="Balance" currentExplodedTrackIndex="0" totalExplodedTrackCount="2" premiereTrackType="Stereo">
											<enabled>TRUE</enabled>
											<locked>FALSE</locked>
											<outputchannelindex>1</outputchannelindex>
										</track>
										<track TL.SQTrackAudioKeyframeStyle="0" TL.SQTrackShy="0" TL.SQTrackExpandedHeight="25" TL.SQTrackExpanded="0" MZ.TrackTargeted="1" PannerCurrentValue="0.5" PannerIsInverted="true" PannerStartKeyframe="-91445760000000000,0.5,0,0,0,0,0,0" PannerName="Balance" currentExplodedTrackIndex="1" totalExplodedTrackCount="2" premiereTrackType="Stereo">
											<enabled>TRUE</enabled>
											<locked>FALSE</locked>
											<outputchannelindex>2</outputchannelindex>
										</track>
									</audio>
								</media>
								<timecode>
									<rate>
										<timebase>30</timebase>
										<ntsc>TRUE</ntsc>
									</rate>
									<string>00:00:00:00</string>
									<frame>0</frame>
									<displayformat>NDF</displayformat>
								</timecode>
								<labels>
									<label2>Forest</label2>
								</labels>
								<logginginfo>
									<description></description>
									<scene></scene>
									<shottake></shottake>
									<lognote></lognote>
									<good></good>
									<originalvideofilename></originalvideofilename>
									<originalaudiofilename></originalaudiofilename>
								</logginginfo>
							</sequence>
							<sequence id="sequence-24" TL.SQVisibleBaseTime="0" TL.SQTimePerPixel="0.13818516812528672" MZ.Sequence.PreviewFrameSizeHeight="1080" MZ.Sequence.PreviewFrameSizeWidth="1920" MZ.Sequence.AudioTimeDisplayFormat="200" MZ.Sequence.PreviewRenderingClassID="1297106761" MZ.Sequence.PreviewRenderingPresetCodec="1297107278" MZ.Sequence.PreviewRenderingPresetPath="EncoderPresets/SequencePreview/795454d9-d3c2-429d-9474-923ab13b7018/I-Frame Only MPEG.epr" MZ.Sequence.PreviewUseMaxRenderQuality="false" MZ.Sequence.PreviewUseMaxBitDepth="false" MZ.Sequence.EditingModeGUID="795454d9-d3c2-429d-9474-923ab13b7018" MZ.Sequence.VideoTimeDisplayFormat="103" MZ.WorkOutPoint="24325164864000" MZ.WorkInPoint="0" explodedTracks="true">
								<uuid>5d74df14-f465-4f9e-857c-95dddcd4be9f</uuid>
								<duration>2870</duration>
								<rate>
									<timebase>30</timebase>
									<ntsc>TRUE</ntsc>
								</rate>
								<name>4trackingnest04</name>
								<media>
									<video>
										<format>
											<samplecharacteristics>
												<rate>
													<timebase>30</timebase>
													<ntsc>TRUE</ntsc>
												</rate>
												<codec>
													<name>Apple ProRes 422</name>
													<appspecificdata>
														<appname>Final Cut Pro</appname>
														<appmanufacturer>Apple Inc.</appmanufacturer>
														<appversion>7.0</appversion>
														<data>
															<qtcodec>
																<codecname>Apple ProRes 422</codecname>
																<codectypename>Apple ProRes 422</codectypename>
																<codectypecode>apcn</codectypecode>
																<codecvendorcode>appl</codecvendorcode>
																<spatialquality>1024</spatialquality>
																<temporalquality>0</temporalquality>
																<keyframerate>0</keyframerate>
																<datarate>0</datarate>
															</qtcodec>
														</data>
													</appspecificdata>
												</codec>
												<width>1920</width>
												<height>1080</height>
												<anamorphic>FALSE</anamorphic>
												<pixelaspectratio>square</pixelaspectratio>
												<fielddominance>none</fielddominance>
												<colordepth>24</colordepth>
											</samplecharacteristics>
										</format>
										<track TL.SQTrackExpandedHeight="25" TL.SQTrackExpanded="0" MZ.TrackTargeted="1">
											<clipitem id="clipitem-208">
												<masterclipid>masterclip-118</masterclipid>
												<name>1254 - WCARD_Ketrin Niki_1m35s.mp4</name>
												<enabled>TRUE</enabled>
												<duration>2870</duration>
												<rate>
													<timebase>30</timebase>
													<ntsc>TRUE</ntsc>
												</rate>
												<start>0</start>
												<end>2870</end>
												<in>0</in>
												<out>2870</out>
												<pproTicksIn>0</pproTicksIn>
												<pproTicksOut>24325164864000</pproTicksOut>
												<alphatype>none</alphatype>
												<pixelaspectratio>square</pixelaspectratio>
												<anamorphic>FALSE</anamorphic>
												<file id="file-117">
													<name>1254 - WCARD_Ketrin Niki_1m35s.mp4</name>
													<pathurl>file://localhost/Volumes/Satisfactum%20Satisfactorum/03_Weekly%20(Project%20Files,%20Main%20Segments)/OSTV/OSTV%2023-08-28/3_Raw%20Files/04-10/1254%20-%20WCARD_Ketrin%20Niki_1m35s.mp4</pathurl>
													<rate>
														<timebase>30</timebase>
														<ntsc>TRUE</ntsc>
													</rate>
													<duration>2870</duration>
													<timecode>
														<rate>
															<timebase>30</timebase>
															<ntsc>TRUE</ntsc>
														</rate>
														<string>00:00:00:00</string>
														<frame>0</frame>
														<displayformat>NDF</displayformat>
													</timecode>
													<media>
														<video>
															<samplecharacteristics>
																<rate>
																	<timebase>30</timebase>
																	<ntsc>TRUE</ntsc>
																</rate>
																<width>1280</width>
																<height>720</height>
																<anamorphic>FALSE</anamorphic>
																<pixelaspectratio>square</pixelaspectratio>
																<fielddominance>none</fielddominance>
															</samplecharacteristics>
														</video>
														<audio>
															<samplecharacteristics>
																<depth>16</depth>
																<samplerate>32000</samplerate>
															</samplecharacteristics>
															<channelcount>2</channelcount>
														</audio>
													</media>
												</file>
												<filter>
													<effect>
														<name>Basic Motion</name>
														<effectid>basic</effectid>
														<effectcategory>motion</effectcategory>
														<effecttype>motion</effecttype>
														<mediatype>video</mediatype>
														<pproBypass>false</pproBypass>
														<parameter authoringApp="PremierePro">
															<parameterid>scale</parameterid>
															<name>Scale</name>
															<valuemin>0</valuemin>
															<valuemax>1000</valuemax>
															<value>150</value>
														</parameter>
														<parameter authoringApp="PremierePro">
															<parameterid>rotation</parameterid>
															<name>Rotation</name>
															<valuemin>-8640</valuemin>
															<valuemax>8640</valuemax>
															<value>0</value>
														</parameter>
														<parameter authoringApp="PremierePro">
															<parameterid>center</parameterid>
															<name>Center</name>
															<value>
																<horiz>0</horiz>
																<vert>0</vert>
															</value>
														</parameter>
														<parameter authoringApp="PremierePro">
															<parameterid>centerOffset</parameterid>
															<name>Anchor Point</name>
															<value>
																<horiz>0</horiz>
																<vert>0</vert>
															</value>
														</parameter>
														<parameter authoringApp="PremierePro">
															<parameterid>antiflicker</parameterid>
															<name>Anti-flicker Filter</name>
															<valuemin>0.0</valuemin>
															<valuemax>1.0</valuemax>
															<value>0</value>
														</parameter>
													</effect>
												</filter>
												<logginginfo>
													<description></description>
													<scene></scene>
													<shottake></shottake>
													<lognote></lognote>
													<good></good>
													<originalvideofilename></originalvideofilename>
													<originalaudiofilename></originalaudiofilename>
												</logginginfo>
												<colorinfo>
													<lut></lut>
													<lut1></lut1>
													<asc_sop></asc_sop>
													<asc_sat></asc_sat>
													<lut2></lut2>
												</colorinfo>
												<labels>
													<label2>Iris</label2>
												</labels>
											</clipitem>
											<enabled>TRUE</enabled>
											<locked>FALSE</locked>
										</track>
									</video>
									<audio>
										<numOutputChannels>2</numOutputChannels>
										<format>
											<samplecharacteristics>
												<depth>16</depth>
												<samplerate>44100</samplerate>
											</samplecharacteristics>
										</format>
										<outputs>
											<group>
												<index>1</index>
												<numchannels>1</numchannels>
												<downmix>0</downmix>
												<channel>
													<index>1</index>
												</channel>
											</group>
											<group>
												<index>2</index>
												<numchannels>1</numchannels>
												<downmix>0</downmix>
												<channel>
													<index>2</index>
												</channel>
											</group>
										</outputs>
										<track TL.SQTrackExpandedHeight="25" TL.SQTrackExpanded="0" MZ.TrackTargeted="1" PannerCurrentValue="0.5" PannerIsInverted="true" PannerStartKeyframe="-91445760000000000,0.5,0,0,0,0,0,0" PannerName="Balance" currentExplodedTrackIndex="0" totalExplodedTrackCount="2" premiereTrackType="Stereo">
											<enabled>TRUE</enabled>
											<locked>FALSE</locked>
											<outputchannelindex>1</outputchannelindex>
										</track>
										<track TL.SQTrackExpandedHeight="25" TL.SQTrackExpanded="0" MZ.TrackTargeted="1" PannerCurrentValue="0.5" PannerIsInverted="true" PannerStartKeyframe="-91445760000000000,0.5,0,0,0,0,0,0" PannerName="Balance" currentExplodedTrackIndex="1" totalExplodedTrackCount="2" premiereTrackType="Stereo">
											<enabled>TRUE</enabled>
											<locked>FALSE</locked>
											<outputchannelindex>2</outputchannelindex>
										</track>
									</audio>
								</media>
								<timecode>
									<rate>
										<timebase>30</timebase>
										<ntsc>TRUE</ntsc>
									</rate>
									<string>00:00:00:00</string>
									<frame>0</frame>
									<displayformat>NDF</displayformat>
								</timecode>
								<labels>
									<label2>Forest</label2>
								</labels>
								<logginginfo>
									<description></description>
									<scene></scene>
									<shottake></shottake>
									<lognote></lognote>
									<good></good>
									<originalvideofilename></originalvideofilename>
									<originalaudiofilename></originalaudiofilename>
								</logginginfo>
							</sequence>
							<sequence id="sequence-25" TL.SQAudioVisibleBase="0" TL.SQVideoVisibleBase="0" TL.SQVisibleBaseTime="0" TL.SQAVDividerPosition="0.5" TL.SQHideShyTracks="0" TL.SQHeaderWidth="236" Monitor.ProgramZoomOut="20782335974400" Monitor.ProgramZoomIn="0" TL.SQTimePerPixel="0.13818516812528672" MZ.EditLine="1703609107200" MZ.Sequence.PreviewFrameSizeHeight="1080" MZ.Sequence.PreviewFrameSizeWidth="1920" MZ.Sequence.AudioTimeDisplayFormat="200" MZ.Sequence.PreviewRenderingClassID="1297106761" MZ.Sequence.PreviewRenderingPresetCodec="1297107278" MZ.Sequence.PreviewRenderingPresetPath="EncoderPresets/SequencePreview/795454d9-d3c2-429d-9474-923ab13b7018/I-Frame Only MPEG.epr" MZ.Sequence.PreviewUseMaxRenderQuality="false" MZ.Sequence.PreviewUseMaxBitDepth="false" MZ.Sequence.EditingModeGUID="795454d9-d3c2-429d-9474-923ab13b7018" MZ.Sequence.VideoTimeDisplayFormat="103" MZ.WorkOutPoint="20782335974400" MZ.WorkInPoint="0" explodedTracks="true">
								<uuid>5ae53dba-af4a-42a0-a528-8e79bef6c80c</uuid>
								<duration>2452</duration>
								<rate>
									<timebase>30</timebase>
									<ntsc>TRUE</ntsc>
								</rate>
								<name>1254nest</name>
								<media>
									<video>
										<format>
											<samplecharacteristics>
												<rate>
													<timebase>30</timebase>
													<ntsc>TRUE</ntsc>
												</rate>
												<codec>
													<name>Apple ProRes 422</name>
													<appspecificdata>
														<appname>Final Cut Pro</appname>
														<appmanufacturer>Apple Inc.</appmanufacturer>
														<appversion>7.0</appversion>
														<data>
															<qtcodec>
																<codecname>Apple ProRes 422</codecname>
																<codectypename>Apple ProRes 422</codectypename>
																<codectypecode>apcn</codectypecode>
																<codecvendorcode>appl</codecvendorcode>
																<spatialquality>1024</spatialquality>
																<temporalquality>0</temporalquality>
																<keyframerate>0</keyframerate>
																<datarate>0</datarate>
															</qtcodec>
														</data>
													</appspecificdata>
												</codec>
												<width>1920</width>
												<height>1080</height>
												<anamorphic>FALSE</anamorphic>
												<pixelaspectratio>square</pixelaspectratio>
												<fielddominance>none</fielddominance>
												<colordepth>24</colordepth>
											</samplecharacteristics>
										</format>
										<track TL.SQTrackShy="0" TL.SQTrackExpandedHeight="25" TL.SQTrackExpanded="0" MZ.TrackTargeted="1">
											<clipitem id="clipitem-209">
												<masterclipid>masterclip-119</masterclipid>
												<name>1254 - DIGART_trippy everything_1m35s.mp4</name>
												<enabled>TRUE</enabled>
												<duration>2452</duration>
												<rate>
													<timebase>30</timebase>
													<ntsc>TRUE</ntsc>
												</rate>
												<start>0</start>
												<end>2452</end>
												<in>0</in>
												<out>2452</out>
												<pproTicksIn>0</pproTicksIn>
												<pproTicksOut>20782335974400</pproTicksOut>
												<alphatype>none</alphatype>
												<pixelaspectratio>square</pixelaspectratio>
												<anamorphic>FALSE</anamorphic>
												<file id="file-118">
													<name>1254 - DIGART_trippy everything_1m35s.mp4</name>
													<pathurl>file://localhost/Volumes/Satisfactum%20Satisfactorum/03_Weekly%20(Project%20Files,%20Main%20Segments)/OSTV/OSTV%2023-08-28/3_Raw%20Files/04-10/1254%20-%20DIGART_trippy%20everything_1m35s.mp4</pathurl>
													<rate>
														<timebase>30</timebase>
														<ntsc>TRUE</ntsc>
													</rate>
													<duration>2452</duration>
													<timecode>
														<rate>
															<timebase>30</timebase>
															<ntsc>TRUE</ntsc>
														</rate>
														<string>00:00:00:00</string>
														<frame>0</frame>
														<displayformat>NDF</displayformat>
													</timecode>
													<media>
														<video>
															<samplecharacteristics>
																<rate>
																	<timebase>30</timebase>
																	<ntsc>TRUE</ntsc>
																</rate>
																<width>1280</width>
																<height>720</height>
																<anamorphic>FALSE</anamorphic>
																<pixelaspectratio>square</pixelaspectratio>
																<fielddominance>none</fielddominance>
															</samplecharacteristics>
														</video>
														<audio>
															<samplecharacteristics>
																<depth>16</depth>
																<samplerate>32000</samplerate>
															</samplecharacteristics>
															<channelcount>2</channelcount>
														</audio>
													</media>
												</file>
												<filter>
													<effect>
														<name>Basic Motion</name>
														<effectid>basic</effectid>
														<effectcategory>motion</effectcategory>
														<effecttype>motion</effecttype>
														<mediatype>video</mediatype>
														<pproBypass>false</pproBypass>
														<parameter authoringApp="PremierePro">
															<parameterid>scale</parameterid>
															<name>Scale</name>
															<valuemin>0</valuemin>
															<valuemax>1000</valuemax>
															<value>150</value>
														</parameter>
														<parameter authoringApp="PremierePro">
															<parameterid>rotation</parameterid>
															<name>Rotation</name>
															<valuemin>-8640</valuemin>
															<valuemax>8640</valuemax>
															<value>0</value>
														</parameter>
														<parameter authoringApp="PremierePro">
															<parameterid>center</parameterid>
															<name>Center</name>
															<value>
																<horiz>0</horiz>
																<vert>0</vert>
															</value>
														</parameter>
														<parameter authoringApp="PremierePro">
															<parameterid>centerOffset</parameterid>
															<name>Anchor Point</name>
															<value>
																<horiz>0</horiz>
																<vert>0</vert>
															</value>
														</parameter>
														<parameter authoringApp="PremierePro">
															<parameterid>antiflicker</parameterid>
															<name>Anti-flicker Filter</name>
															<valuemin>0.0</valuemin>
															<valuemax>1.0</valuemax>
															<value>0</value>
														</parameter>
													</effect>
												</filter>
												<logginginfo>
													<description></description>
													<scene></scene>
													<shottake></shottake>
													<lognote></lognote>
													<good></good>
													<originalvideofilename></originalvideofilename>
													<originalaudiofilename></originalaudiofilename>
												</logginginfo>
												<colorinfo>
													<lut></lut>
													<lut1></lut1>
													<asc_sop></asc_sop>
													<asc_sat></asc_sat>
													<lut2></lut2>
												</colorinfo>
												<labels>
													<label2>Iris</label2>
												</labels>
											</clipitem>
											<enabled>TRUE</enabled>
											<locked>FALSE</locked>
										</track>
										<track TL.SQTrackShy="0" TL.SQTrackExpandedHeight="25" TL.SQTrackExpanded="0" MZ.TrackTargeted="0">
											<clipitem id="clipitem-210">
												<masterclipid>masterclip-106</masterclipid>
												<name>Bug and Lower Nest</name>
												<enabled>TRUE</enabled>
												<duration>14721</duration>
												<rate>
													<timebase>30</timebase>
													<ntsc>TRUE</ntsc>
												</rate>
												<start>0</start>
												<end>2452</end>
												<in>0</in>
												<out>2452</out>
												<pproTicksIn>0</pproTicksIn>
												<pproTicksOut>20782335974400</pproTicksOut>
												<sequence id="sequence-1"/>
												<labels>
													<label2>Cerulean</label2>
												</labels>
											</clipitem>
											<enabled>TRUE</enabled>
											<locked>FALSE</locked>
										</track>
									</video>
									<audio>
										<numOutputChannels>2</numOutputChannels>
										<format>
											<samplecharacteristics>
												<depth>16</depth>
												<samplerate>44100</samplerate>
											</samplecharacteristics>
										</format>
										<outputs>
											<group>
												<index>1</index>
												<numchannels>1</numchannels>
												<downmix>0</downmix>
												<channel>
													<index>1</index>
												</channel>
											</group>
											<group>
												<index>2</index>
												<numchannels>1</numchannels>
												<downmix>0</downmix>
												<channel>
													<index>2</index>
												</channel>
											</group>
										</outputs>
										<track TL.SQTrackAudioKeyframeStyle="0" TL.SQTrackShy="0" TL.SQTrackExpandedHeight="25" TL.SQTrackExpanded="0" MZ.TrackTargeted="1" PannerCurrentValue="0.5" PannerIsInverted="true" PannerStartKeyframe="-91445760000000000,0.5,0,0,0,0,0,0" PannerName="Balance" currentExplodedTrackIndex="0" totalExplodedTrackCount="2" premiereTrackType="Stereo">
											<transitionitem>
												<start>0</start>
												<end>30</end>
												<pproTicksIn>0</pproTicksIn>
												<pproTicksOut>254270016000</pproTicksOut>
												<alignment>start-black</alignment>
												<cutPointTicks>0</cutPointTicks>
												<rate>
													<timebase>30</timebase>
													<ntsc>TRUE</ntsc>
												</rate>
												<effect>
													<name>Cross Fade (+3dB)</name>
													<effectid>KGAudioTransCrossFade3dB</effectid>
													<effecttype>transition</effecttype>
													<mediatype>audio</mediatype>
													<wipecode>0</wipecode>
													<wipeaccuracy>100</wipeaccuracy>
													<startratio>0</startratio>
													<endratio>1</endratio>
													<reverse>FALSE</reverse>
												</effect>
											</transitionitem>
											<clipitem id="clipitem-211" premiereChannelType="stereo">
												<masterclipid>masterclip-31</masterclipid>
												<name>flounder by jamie-bathgate Artlist.mp3</name>
												<enabled>TRUE</enabled>
												<duration>9358</duration>
												<rate>
													<timebase>30</timebase>
													<ntsc>TRUE</ntsc>
												</rate>
												<start>-1</start>
												<end>-1</end>
												<in>656</in>
												<out>3108</out>
												<pproTicksIn>5560037683200</pproTicksIn>
												<pproTicksOut>26342373657600</pproTicksOut>
												<file id="file-31"/>
												<sourcetrack>
													<mediatype>audio</mediatype>
													<trackindex>1</trackindex>
												</sourcetrack>
												<link>
													<linkclipref>clipitem-211</linkclipref>
													<mediatype>audio</mediatype>
													<trackindex>1</trackindex>
													<clipindex>2</clipindex>
													<groupindex>1</groupindex>
												</link>
												<link>
													<linkclipref>clipitem-212</linkclipref>
													<mediatype>audio</mediatype>
													<trackindex>2</trackindex>
													<clipindex>2</clipindex>
													<groupindex>1</groupindex>
												</link>
												<logginginfo>
													<description></description>
													<scene></scene>
													<shottake></shottake>
													<lognote></lognote>
													<good></good>
													<originalvideofilename></originalvideofilename>
													<originalaudiofilename></originalaudiofilename>
												</logginginfo>
												<colorinfo>
													<lut></lut>
													<lut1></lut1>
													<asc_sop></asc_sop>
													<asc_sat></asc_sat>
													<lut2></lut2>
												</colorinfo>
												<labels>
													<label2>Forest</label2>
												</labels>
											</clipitem>
											<transitionitem>
												<start>2362</start>
												<end>2452</end>
												<pproTicksIn>20019525926400</pproTicksIn>
												<pproTicksOut>20782335974400</pproTicksOut>
												<alignment>end-black</alignment>
												<cutPointTicks>762810048000</cutPointTicks>
												<rate>
													<timebase>30</timebase>
													<ntsc>TRUE</ntsc>
												</rate>
												<effect>
													<name>Cross Fade (+3dB)</name>
													<effectid>KGAudioTransCrossFade3dB</effectid>
													<effecttype>transition</effecttype>
													<mediatype>audio</mediatype>
													<wipecode>0</wipecode>
													<wipeaccuracy>100</wipeaccuracy>
													<startratio>0</startratio>
													<endratio>1</endratio>
													<reverse>FALSE</reverse>
												</effect>
											</transitionitem>
											<enabled>TRUE</enabled>
											<locked>FALSE</locked>
											<outputchannelindex>1</outputchannelindex>
										</track>
										<track TL.SQTrackAudioKeyframeStyle="0" TL.SQTrackShy="0" TL.SQTrackExpandedHeight="25" TL.SQTrackExpanded="0" MZ.TrackTargeted="1" PannerCurrentValue="0.5" PannerIsInverted="true" PannerStartKeyframe="-91445760000000000,0.5,0,0,0,0,0,0" PannerName="Balance" currentExplodedTrackIndex="1" totalExplodedTrackCount="2" premiereTrackType="Stereo">
											<transitionitem>
												<start>0</start>
												<end>30</end>
												<pproTicksIn>0</pproTicksIn>
												<pproTicksOut>254270016000</pproTicksOut>
												<alignment>start-black</alignment>
												<cutPointTicks>0</cutPointTicks>
												<rate>
													<timebase>30</timebase>
													<ntsc>TRUE</ntsc>
												</rate>
												<effect>
													<name>Cross Fade (+3dB)</name>
													<effectid>KGAudioTransCrossFade3dB</effectid>
													<effecttype>transition</effecttype>
													<mediatype>audio</mediatype>
													<wipecode>0</wipecode>
													<wipeaccuracy>100</wipeaccuracy>
													<startratio>0</startratio>
													<endratio>1</endratio>
													<reverse>FALSE</reverse>
												</effect>
											</transitionitem>
											<clipitem id="clipitem-212" premiereChannelType="stereo">
												<masterclipid>masterclip-31</masterclipid>
												<name>flounder by jamie-bathgate Artlist.mp3</name>
												<enabled>TRUE</enabled>
												<duration>9358</duration>
												<rate>
													<timebase>30</timebase>
													<ntsc>TRUE</ntsc>
												</rate>
												<start>-1</start>
												<end>-1</end>
												<in>656</in>
												<out>3108</out>
												<pproTicksIn>5560037683200</pproTicksIn>
												<pproTicksOut>26342373657600</pproTicksOut>
												<file id="file-31"/>
												<sourcetrack>
													<mediatype>audio</mediatype>
													<trackindex>2</trackindex>
												</sourcetrack>
												<link>
													<linkclipref>clipitem-211</linkclipref>
													<mediatype>audio</mediatype>
													<trackindex>1</trackindex>
													<clipindex>2</clipindex>
													<groupindex>1</groupindex>
												</link>
												<link>
													<linkclipref>clipitem-212</linkclipref>
													<mediatype>audio</mediatype>
													<trackindex>2</trackindex>
													<clipindex>2</clipindex>
													<groupindex>1</groupindex>
												</link>
												<logginginfo>
													<description></description>
													<scene></scene>
													<shottake></shottake>
													<lognote></lognote>
													<good></good>
													<originalvideofilename></originalvideofilename>
													<originalaudiofilename></originalaudiofilename>
												</logginginfo>
												<colorinfo>
													<lut></lut>
													<lut1></lut1>
													<asc_sop></asc_sop>
													<asc_sat></asc_sat>
													<lut2></lut2>
												</colorinfo>
												<labels>
													<label2>Forest</label2>
												</labels>
											</clipitem>
											<transitionitem>
												<start>2362</start>
												<end>2452</end>
												<pproTicksIn>20019525926400</pproTicksIn>
												<pproTicksOut>20782335974400</pproTicksOut>
												<alignment>end-black</alignment>
												<cutPointTicks>762810048000</cutPointTicks>
												<rate>
													<timebase>30</timebase>
													<ntsc>TRUE</ntsc>
												</rate>
												<effect>
													<name>Cross Fade (+3dB)</name>
													<effectid>KGAudioTransCrossFade3dB</effectid>
													<effecttype>transition</effecttype>
													<mediatype>audio</mediatype>
													<wipecode>0</wipecode>
													<wipeaccuracy>100</wipeaccuracy>
													<startratio>0</startratio>
													<endratio>1</endratio>
													<reverse>FALSE</reverse>
												</effect>
											</transitionitem>
											<enabled>TRUE</enabled>
											<locked>FALSE</locked>
											<outputchannelindex>2</outputchannelindex>
										</track>
									</audio>
								</media>
								<timecode>
									<rate>
										<timebase>30</timebase>
										<ntsc>TRUE</ntsc>
									</rate>
									<string>00:00:00:00</string>
									<frame>0</frame>
									<displayformat>NDF</displayformat>
								</timecode>
								<labels>
									<label2>Forest</label2>
								</labels>
								<logginginfo>
									<description></description>
									<scene></scene>
									<shottake></shottake>
									<lognote></lognote>
									<good></good>
									<originalvideofilename></originalvideofilename>
									<originalaudiofilename></originalaudiofilename>
								</logginginfo>
							</sequence>
							<sequence id="sequence-26" TL.SQAudioVisibleBase="0" TL.SQVideoVisibleBase="0" TL.SQVisibleBaseTime="0" TL.SQAVDividerPosition="0.5" TL.SQHideShyTracks="0" TL.SQHeaderWidth="236" Monitor.ProgramZoomOut="25376147596800" Monitor.ProgramZoomIn="0" TL.SQTimePerPixel="0.069092584062642445" MZ.EditLine="5899064371200" MZ.Sequence.PreviewFrameSizeHeight="1080" MZ.Sequence.PreviewFrameSizeWidth="1080" MZ.Sequence.AudioTimeDisplayFormat="200" MZ.Sequence.PreviewRenderingClassID="1297106761" MZ.Sequence.PreviewRenderingPresetCodec="1297107278" MZ.Sequence.PreviewRenderingPresetPath="EncoderPresets/SequencePreview/795454d9-d3c2-429d-9474-923ab13b7018/I-Frame Only MPEG.epr" MZ.Sequence.PreviewUseMaxRenderQuality="false" MZ.Sequence.PreviewUseMaxBitDepth="false" MZ.Sequence.EditingModeGUID="795454d9-d3c2-429d-9474-923ab13b7018" MZ.Sequence.VideoTimeDisplayFormat="103" MZ.WorkOutPoint="25376147596800" MZ.WorkInPoint="0" explodedTracks="true">
								<uuid>79ca6b6c-aae1-4612-ac6b-dc53fba9ad80</uuid>
								<duration>2994</duration>
								<rate>
									<timebase>30</timebase>
									<ntsc>TRUE</ntsc>
								</rate>
								<name>soyoungnest</name>
								<media>
									<video>
										<format>
											<samplecharacteristics>
												<rate>
													<timebase>30</timebase>
													<ntsc>TRUE</ntsc>
												</rate>
												<codec>
													<name>Apple ProRes 422</name>
													<appspecificdata>
														<appname>Final Cut Pro</appname>
														<appmanufacturer>Apple Inc.</appmanufacturer>
														<appversion>7.0</appversion>
														<data>
															<qtcodec>
																<codecname>Apple ProRes 422</codecname>
																<codectypename>Apple ProRes 422</codectypename>
																<codectypecode>apcn</codectypecode>
																<codecvendorcode>appl</codecvendorcode>
																<spatialquality>1024</spatialquality>
																<temporalquality>0</temporalquality>
																<keyframerate>0</keyframerate>
																<datarate>0</datarate>
															</qtcodec>
														</data>
													</appspecificdata>
												</codec>
												<width>1080</width>
												<height>1080</height>
												<anamorphic>FALSE</anamorphic>
												<pixelaspectratio>square</pixelaspectratio>
												<fielddominance>none</fielddominance>
												<colordepth>24</colordepth>
											</samplecharacteristics>
										</format>
										<track TL.SQTrackShy="0" TL.SQTrackExpandedHeight="25" TL.SQTrackExpanded="0" MZ.TrackTargeted="1">
											<clipitem id="clipitem-213">
												<masterclipid>masterclip-120</masterclipid>
												<name>1259 - FND_soyoungpapiccio_1m45s.mp4</name>
												<enabled>TRUE</enabled>
												<duration>2994</duration>
												<rate>
													<timebase>30</timebase>
													<ntsc>TRUE</ntsc>
												</rate>
												<start>0</start>
												<end>2994</end>
												<in>0</in>
												<out>2994</out>
												<pproTicksIn>0</pproTicksIn>
												<pproTicksOut>25376147596800</pproTicksOut>
												<alphatype>none</alphatype>
												<pixelaspectratio>square</pixelaspectratio>
												<anamorphic>FALSE</anamorphic>
												<file id="file-119">
													<name>1259 - FND_soyoungpapiccio_1m45s.mp4</name>
													<pathurl>file://localhost/Volumes/Satisfactum%20Satisfactorum/03_Weekly%20(Project%20Files,%20Main%20Segments)/OSTV/OSTV%2023-08-28/3_Raw%20Files/04-10/1259%20-%20FND_soyoungpapiccio_1m45s.mp4</pathurl>
													<rate>
														<timebase>30</timebase>
														<ntsc>TRUE</ntsc>
													</rate>
													<duration>2994</duration>
													<timecode>
														<rate>
															<timebase>30</timebase>
															<ntsc>TRUE</ntsc>
														</rate>
														<string>00:00:00:00</string>
														<frame>0</frame>
														<displayformat>NDF</displayformat>
													</timecode>
													<media>
														<video>
															<samplecharacteristics>
																<rate>
																	<timebase>30</timebase>
																	<ntsc>TRUE</ntsc>
																</rate>
																<width>1280</width>
																<height>720</height>
																<anamorphic>FALSE</anamorphic>
																<pixelaspectratio>square</pixelaspectratio>
																<fielddominance>none</fielddominance>
															</samplecharacteristics>
														</video>
														<audio>
															<samplecharacteristics>
																<depth>16</depth>
																<samplerate>32000</samplerate>
															</samplecharacteristics>
															<channelcount>2</channelcount>
														</audio>
													</media>
												</file>
												<filter>
													<effect>
														<name>Basic Motion</name>
														<effectid>basic</effectid>
														<effectcategory>motion</effectcategory>
														<effecttype>motion</effecttype>
														<mediatype>video</mediatype>
														<pproBypass>false</pproBypass>
														<parameter authoringApp="PremierePro">
															<parameterid>scale</parameterid>
															<name>Scale</name>
															<valuemin>0</valuemin>
															<valuemax>1000</valuemax>
															<value>216</value>
														</parameter>
														<parameter authoringApp="PremierePro">
															<parameterid>rotation</parameterid>
															<name>Rotation</name>
															<valuemin>-8640</valuemin>
															<valuemax>8640</valuemax>
															<value>0</value>
														</parameter>
														<parameter authoringApp="PremierePro">
															<parameterid>center</parameterid>
															<name>Center</name>
															<value>
																<horiz>0</horiz>
																<vert>0</vert>
															</value>
														</parameter>
														<parameter authoringApp="PremierePro">
															<parameterid>centerOffset</parameterid>
															<name>Anchor Point</name>
															<value>
																<horiz>0</horiz>
																<vert>0</vert>
															</value>
														</parameter>
														<parameter authoringApp="PremierePro">
															<parameterid>antiflicker</parameterid>
															<name>Anti-flicker Filter</name>
															<valuemin>0.0</valuemin>
															<valuemax>1.0</valuemax>
															<value>0</value>
														</parameter>
													</effect>
												</filter>
												<logginginfo>
													<description></description>
													<scene></scene>
													<shottake></shottake>
													<lognote></lognote>
													<good></good>
													<originalvideofilename></originalvideofilename>
													<originalaudiofilename></originalaudiofilename>
												</logginginfo>
												<colorinfo>
													<lut></lut>
													<lut1></lut1>
													<asc_sop></asc_sop>
													<asc_sat></asc_sat>
													<lut2></lut2>
												</colorinfo>
												<labels>
													<label2>Iris</label2>
												</labels>
											</clipitem>
											<enabled>TRUE</enabled>
											<locked>FALSE</locked>
										</track>
									</video>
									<audio>
										<numOutputChannels>2</numOutputChannels>
										<format>
											<samplecharacteristics>
												<depth>16</depth>
												<samplerate>44100</samplerate>
											</samplecharacteristics>
										</format>
										<outputs>
											<group>
												<index>1</index>
												<numchannels>1</numchannels>
												<downmix>0</downmix>
												<channel>
													<index>1</index>
												</channel>
											</group>
											<group>
												<index>2</index>
												<numchannels>1</numchannels>
												<downmix>0</downmix>
												<channel>
													<index>2</index>
												</channel>
											</group>
										</outputs>
										<track TL.SQTrackAudioKeyframeStyle="0" TL.SQTrackShy="0" TL.SQTrackExpandedHeight="25" TL.SQTrackExpanded="0" MZ.TrackTargeted="1" PannerCurrentValue="0.5" PannerIsInverted="true" PannerStartKeyframe="-91445760000000000,0.5,0,0,0,0,0,0" PannerName="Balance" currentExplodedTrackIndex="0" totalExplodedTrackCount="2" premiereTrackType="Stereo">
											<enabled>TRUE</enabled>
											<locked>FALSE</locked>
											<outputchannelindex>1</outputchannelindex>
										</track>
										<track TL.SQTrackAudioKeyframeStyle="0" TL.SQTrackShy="0" TL.SQTrackExpandedHeight="25" TL.SQTrackExpanded="0" MZ.TrackTargeted="1" PannerCurrentValue="0.5" PannerIsInverted="true" PannerStartKeyframe="-91445760000000000,0.5,0,0,0,0,0,0" PannerName="Balance" currentExplodedTrackIndex="1" totalExplodedTrackCount="2" premiereTrackType="Stereo">
											<enabled>TRUE</enabled>
											<locked>FALSE</locked>
											<outputchannelindex>2</outputchannelindex>
										</track>
									</audio>
								</media>
								<timecode>
									<rate>
										<timebase>30</timebase>
										<ntsc>TRUE</ntsc>
									</rate>
									<string>00:00:00:00</string>
									<frame>0</frame>
									<displayformat>NDF</displayformat>
								</timecode>
								<labels>
									<label2>Forest</label2>
								</labels>
								<logginginfo>
									<description></description>
									<scene></scene>
									<shottake></shottake>
									<lognote></lognote>
									<good></good>
									<originalvideofilename></originalvideofilename>
									<originalaudiofilename></originalaudiofilename>
								</logginginfo>
							</sequence>
							<sequence id="sequence-27" TL.SQAudioVisibleBase="0" TL.SQVideoVisibleBase="0" TL.SQVisibleBaseTime="0" TL.SQAVDividerPosition="0.5" TL.SQHideShyTracks="0" TL.SQHeaderWidth="236" Monitor.ProgramZoomOut="22189296729600" Monitor.ProgramZoomIn="0" TL.SQTimePerPixel="0.27637033625057528" MZ.EditLine="0" MZ.Sequence.PreviewFrameSizeHeight="1080" MZ.Sequence.PreviewFrameSizeWidth="1920" MZ.Sequence.AudioTimeDisplayFormat="200" MZ.Sequence.PreviewRenderingClassID="1297106761" MZ.Sequence.PreviewRenderingPresetCodec="1297107278" MZ.Sequence.PreviewRenderingPresetPath="EncoderPresets/SequencePreview/795454d9-d3c2-429d-9474-923ab13b7018/I-Frame Only MPEG.epr" MZ.Sequence.PreviewUseMaxRenderQuality="false" MZ.Sequence.PreviewUseMaxBitDepth="false" MZ.Sequence.EditingModeGUID="795454d9-d3c2-429d-9474-923ab13b7018" MZ.Sequence.VideoTimeDisplayFormat="103" MZ.WorkOutPoint="22189296729600" MZ.WorkInPoint="0" explodedTracks="true">
								<uuid>e60265d5-d78d-4daa-bd3e-dd974681c66e</uuid>
								<duration>2618</duration>
								<rate>
									<timebase>30</timebase>
									<ntsc>TRUE</ntsc>
								</rate>
								<name>1259nest</name>
								<media>
									<video>
										<format>
											<samplecharacteristics>
												<rate>
													<timebase>30</timebase>
													<ntsc>TRUE</ntsc>
												</rate>
												<codec>
													<name>Apple ProRes 422</name>
													<appspecificdata>
														<appname>Final Cut Pro</appname>
														<appmanufacturer>Apple Inc.</appmanufacturer>
														<appversion>7.0</appversion>
														<data>
															<qtcodec>
																<codecname>Apple ProRes 422</codecname>
																<codectypename>Apple ProRes 422</codectypename>
																<codectypecode>apcn</codectypecode>
																<codecvendorcode>appl</codecvendorcode>
																<spatialquality>1024</spatialquality>
																<temporalquality>0</temporalquality>
																<keyframerate>0</keyframerate>
																<datarate>0</datarate>
															</qtcodec>
														</data>
													</appspecificdata>
												</codec>
												<width>1920</width>
												<height>1080</height>
												<anamorphic>FALSE</anamorphic>
												<pixelaspectratio>square</pixelaspectratio>
												<fielddominance>none</fielddominance>
												<colordepth>24</colordepth>
											</samplecharacteristics>
										</format>
										<track TL.SQTrackShy="0" TL.SQTrackExpandedHeight="25" TL.SQTrackExpanded="0" MZ.TrackTargeted="1">
											<clipitem id="clipitem-214">
												<masterclipid>masterclip-121</masterclipid>
												<name>1259 - SAT_modernmilt_1m25s.mp4</name>
												<enabled>TRUE</enabled>
												<duration>2618</duration>
												<rate>
													<timebase>30</timebase>
													<ntsc>TRUE</ntsc>
												</rate>
												<start>0</start>
												<end>2618</end>
												<in>0</in>
												<out>2618</out>
												<pproTicksIn>0</pproTicksIn>
												<pproTicksOut>22189296729600</pproTicksOut>
												<alphatype>none</alphatype>
												<pixelaspectratio>square</pixelaspectratio>
												<anamorphic>FALSE</anamorphic>
												<file id="file-120">
													<name>1259 - SAT_modernmilt_1m25s.mp4</name>
													<pathurl>file://localhost/Volumes/Satisfactum%20Satisfactorum/03_Weekly%20(Project%20Files,%20Main%20Segments)/OSTV/OSTV%2023-08-28/3_Raw%20Files/04-10/1259%20-%20SAT_modernmilt_1m25s.mp4</pathurl>
													<rate>
														<timebase>30</timebase>
														<ntsc>TRUE</ntsc>
													</rate>
													<duration>2618</duration>
													<timecode>
														<rate>
															<timebase>30</timebase>
															<ntsc>TRUE</ntsc>
														</rate>
														<string>00:00:00:00</string>
														<frame>0</frame>
														<displayformat>NDF</displayformat>
													</timecode>
													<media>
														<video>
															<samplecharacteristics>
																<rate>
																	<timebase>30</timebase>
																	<ntsc>TRUE</ntsc>
																</rate>
																<width>1280</width>
																<height>720</height>
																<anamorphic>FALSE</anamorphic>
																<pixelaspectratio>square</pixelaspectratio>
																<fielddominance>none</fielddominance>
															</samplecharacteristics>
														</video>
														<audio>
															<samplecharacteristics>
																<depth>16</depth>
																<samplerate>32000</samplerate>
															</samplecharacteristics>
															<channelcount>2</channelcount>
														</audio>
													</media>
												</file>
												<filter>
													<effect>
														<name>Basic Motion</name>
														<effectid>basic</effectid>
														<effectcategory>motion</effectcategory>
														<effecttype>motion</effecttype>
														<mediatype>video</mediatype>
														<pproBypass>false</pproBypass>
														<parameter authoringApp="PremierePro">
															<parameterid>scale</parameterid>
															<name>Scale</name>
															<valuemin>0</valuemin>
															<valuemax>1000</valuemax>
															<value>150</value>
														</parameter>
														<parameter authoringApp="PremierePro">
															<parameterid>rotation</parameterid>
															<name>Rotation</name>
															<valuemin>-8640</valuemin>
															<valuemax>8640</valuemax>
															<value>0</value>
														</parameter>
														<parameter authoringApp="PremierePro">
															<parameterid>center</parameterid>
															<name>Center</name>
															<value>
																<horiz>0</horiz>
																<vert>0</vert>
															</value>
														</parameter>
														<parameter authoringApp="PremierePro">
															<parameterid>centerOffset</parameterid>
															<name>Anchor Point</name>
															<value>
																<horiz>0</horiz>
																<vert>0</vert>
															</value>
														</parameter>
														<parameter authoringApp="PremierePro">
															<parameterid>antiflicker</parameterid>
															<name>Anti-flicker Filter</name>
															<valuemin>0.0</valuemin>
															<valuemax>1.0</valuemax>
															<value>0</value>
														</parameter>
													</effect>
												</filter>
												<logginginfo>
													<description></description>
													<scene></scene>
													<shottake></shottake>
													<lognote></lognote>
													<good></good>
													<originalvideofilename></originalvideofilename>
													<originalaudiofilename></originalaudiofilename>
												</logginginfo>
												<colorinfo>
													<lut></lut>
													<lut1></lut1>
													<asc_sop></asc_sop>
													<asc_sat></asc_sat>
													<lut2></lut2>
												</colorinfo>
												<labels>
													<label2>Iris</label2>
												</labels>
											</clipitem>
											<enabled>TRUE</enabled>
											<locked>FALSE</locked>
										</track>
										<track TL.SQTrackShy="0" TL.SQTrackExpandedHeight="25" TL.SQTrackExpanded="0" MZ.TrackTargeted="0">
											<clipitem id="clipitem-215">
												<masterclipid>masterclip-122</masterclipid>
												<name>Adjustment Layer</name>
												<enabled>TRUE</enabled>
												<duration>1294705</duration>
												<rate>
													<timebase>30</timebase>
													<ntsc>TRUE</ntsc>
												</rate>
												<start>0</start>
												<end>2618</end>
												<in>107892</in>
												<out>110510</out>
												<pproTicksIn>914456685542400</pproTicksIn>
												<pproTicksOut>936645982272000</pproTicksOut>
												<alphatype>none</alphatype>
												<pixelaspectratio>square</pixelaspectratio>
												<anamorphic>FALSE</anamorphic>
												<file id="file-121">
													<name>Black Video</name>
													<mediaSource>Slug</mediaSource>
													<rate>
														<timebase>30</timebase>
														<ntsc>TRUE</ntsc>
													</rate>
													<timecode>
														<rate>
															<timebase>30</timebase>
															<ntsc>TRUE</ntsc>
														</rate>
														<string>00:00:00:00</string>
														<frame>0</frame>
														<displayformat>NDF</displayformat>
													</timecode>
													<media>
														<video>
															<samplecharacteristics>
																<rate>
																	<timebase>30</timebase>
																	<ntsc>TRUE</ntsc>
																</rate>
																<width>1280</width>
																<height>720</height>
																<anamorphic>FALSE</anamorphic>
																<pixelaspectratio>square</pixelaspectratio>
																<fielddominance>none</fielddominance>
															</samplecharacteristics>
														</video>
													</media>
												</file>
												<filter>
													<effect>
														<name>Basic Motion</name>
														<effectid>basic</effectid>
														<effectcategory>motion</effectcategory>
														<effecttype>motion</effecttype>
														<mediatype>video</mediatype>
														<pproBypass>false</pproBypass>
														<parameter authoringApp="PremierePro">
															<parameterid>scale</parameterid>
															<name>Scale</name>
															<valuemin>0</valuemin>
															<valuemax>1000</valuemax>
															<value>150</value>
														</parameter>
														<parameter authoringApp="PremierePro">
															<parameterid>rotation</parameterid>
															<name>Rotation</name>
															<valuemin>-8640</valuemin>
															<valuemax>8640</valuemax>
															<value>0</value>
														</parameter>
														<parameter authoringApp="PremierePro">
															<parameterid>center</parameterid>
															<name>Center</name>
															<value>
																<horiz>0</horiz>
																<vert>0</vert>
															</value>
														</parameter>
														<parameter authoringApp="PremierePro">
															<parameterid>centerOffset</parameterid>
															<name>Anchor Point</name>
															<value>
																<horiz>0</horiz>
																<vert>0</vert>
															</value>
														</parameter>
														<parameter authoringApp="PremierePro">
															<parameterid>antiflicker</parameterid>
															<name>Anti-flicker Filter</name>
															<valuemin>0.0</valuemin>
															<valuemax>1.0</valuemax>
															<value>0</value>
														</parameter>
													</effect>
												</filter>
												<filter>
													<effect>
														<name>Gaussian Blur</name>
														<effectid>Gaussian Blur</effectid>
														<effectcategory>Blur</effectcategory>
														<effecttype>motion</effecttype>
														<mediatype>video</mediatype>
														<pproBypass>false</pproBypass>
														<parameter authoringApp="PremierePro">
															<parameterid>radius</parameterid>
															<name>Radius</name>
															<valuemin>0</valuemin>
															<valuemax>100</valuemax>
															<value>150</value>
														</parameter>
													</effect>
												</filter>
												<logginginfo>
													<description></description>
													<scene></scene>
													<shottake></shottake>
													<lognote></lognote>
													<good></good>
													<originalvideofilename></originalvideofilename>
													<originalaudiofilename></originalaudiofilename>
												</logginginfo>
												<colorinfo>
													<lut></lut>
													<lut1></lut1>
													<asc_sop></asc_sop>
													<asc_sat></asc_sat>
													<lut2></lut2>
												</colorinfo>
												<labels>
													<label2>Lavender</label2>
												</labels>
											</clipitem>
											<enabled>TRUE</enabled>
											<locked>FALSE</locked>
										</track>
										<track TL.SQTrackShy="0" TL.SQTrackExpandedHeight="25" TL.SQTrackExpanded="0" MZ.TrackTargeted="0">
											<clipitem id="clipitem-216">
												<masterclipid>masterclip-55</masterclipid>
												<name>@modernmilt</name>
												<enabled>TRUE</enabled>
												<duration>5844</duration>
												<rate>
													<timebase>30</timebase>
													<ntsc>TRUE</ntsc>
												</rate>
												<start>0</start>
												<end>2618</end>
												<in>0</in>
												<out>2618</out>
												<pproTicksIn>0</pproTicksIn>
												<pproTicksOut>22189296729600</pproTicksOut>
												<alphatype>straight</alphatype>
												<file id="file-55"/>
												<filter>
													<effect>
														<name>Basic Motion</name>
														<effectid>basic</effectid>
														<effectcategory>motion</effectcategory>
														<effecttype>motion</effecttype>
														<mediatype>video</mediatype>
														<pproBypass>false</pproBypass>
														<parameter authoringApp="PremierePro">
															<parameterid>scale</parameterid>
															<name>Scale</name>
															<valuemin>0</valuemin>
															<valuemax>1000</valuemax>
															<value>150</value>
														</parameter>
														<parameter authoringApp="PremierePro">
															<parameterid>rotation</parameterid>
															<name>Rotation</name>
															<valuemin>-8640</valuemin>
															<valuemax>8640</valuemax>
															<value>0</value>
														</parameter>
														<parameter authoringApp="PremierePro">
															<parameterid>center</parameterid>
															<name>Center</name>
															<value>
																<horiz>0</horiz>
																<vert>0</vert>
															</value>
														</parameter>
														<parameter authoringApp="PremierePro">
															<parameterid>centerOffset</parameterid>
															<name>Anchor Point</name>
															<value>
																<horiz>0</horiz>
																<vert>0</vert>
															</value>
														</parameter>
														<parameter authoringApp="PremierePro">
															<parameterid>antiflicker</parameterid>
															<name>Anti-flicker Filter</name>
															<valuemin>0.0</valuemin>
															<valuemax>1.0</valuemax>
															<value>0</value>
														</parameter>
													</effect>
												</filter>
												<logginginfo>
													<description></description>
													<scene></scene>
													<shottake></shottake>
													<lognote></lognote>
													<good></good>
													<originalvideofilename></originalvideofilename>
													<originalaudiofilename></originalaudiofilename>
												</logginginfo>
												<colorinfo>
													<lut></lut>
													<lut1></lut1>
													<asc_sop></asc_sop>
													<asc_sat></asc_sat>
													<lut2></lut2>
												</colorinfo>
												<labels>
													<label2>Rose</label2>
												</labels>
											</clipitem>
											<enabled>TRUE</enabled>
											<locked>FALSE</locked>
										</track>
										<track TL.SQTrackShy="0" TL.SQTrackExpandedHeight="25" TL.SQTrackExpanded="0" MZ.TrackTargeted="0">
											<clipitem id="clipitem-217">
												<masterclipid>masterclip-106</masterclipid>
												<name>Bug and Lower Nest</name>
												<enabled>TRUE</enabled>
												<duration>14721</duration>
												<rate>
													<timebase>30</timebase>
													<ntsc>TRUE</ntsc>
												</rate>
												<start>0</start>
												<end>2618</end>
												<in>0</in>
												<out>2618</out>
												<pproTicksIn>0</pproTicksIn>
												<pproTicksOut>22189296729600</pproTicksOut>
												<sequence id="sequence-1"/>
												<labels>
													<label2>Cerulean</label2>
												</labels>
											</clipitem>
											<enabled>TRUE</enabled>
											<locked>FALSE</locked>
										</track>
									</video>
									<audio>
										<numOutputChannels>2</numOutputChannels>
										<format>
											<samplecharacteristics>
												<depth>16</depth>
												<samplerate>44100</samplerate>
											</samplecharacteristics>
										</format>
										<outputs>
											<group>
												<index>1</index>
												<numchannels>1</numchannels>
												<downmix>0</downmix>
												<channel>
													<index>1</index>
												</channel>
											</group>
											<group>
												<index>2</index>
												<numchannels>1</numchannels>
												<downmix>0</downmix>
												<channel>
													<index>2</index>
												</channel>
											</group>
										</outputs>
										<track TL.SQTrackAudioKeyframeStyle="0" TL.SQTrackShy="0" TL.SQTrackExpandedHeight="25" TL.SQTrackExpanded="0" MZ.TrackTargeted="1" PannerCurrentValue="0.5" PannerIsInverted="true" PannerStartKeyframe="-91445760000000000,0.5,0,0,0,0,0,0" PannerName="Balance" currentExplodedTrackIndex="0" totalExplodedTrackCount="2" premiereTrackType="Stereo">
											<transitionitem>
												<start>0</start>
												<end>30</end>
												<pproTicksIn>0</pproTicksIn>
												<pproTicksOut>254270016000</pproTicksOut>
												<alignment>start-black</alignment>
												<cutPointTicks>0</cutPointTicks>
												<rate>
													<timebase>30</timebase>
													<ntsc>TRUE</ntsc>
												</rate>
												<effect>
													<name>Cross Fade (+3dB)</name>
													<effectid>KGAudioTransCrossFade3dB</effectid>
													<effecttype>transition</effecttype>
													<mediatype>audio</mediatype>
													<wipecode>0</wipecode>
													<wipeaccuracy>100</wipeaccuracy>
													<startratio>0</startratio>
													<endratio>1</endratio>
													<reverse>FALSE</reverse>
												</effect>
											</transitionitem>
											<clipitem id="clipitem-218" premiereChannelType="stereo">
												<masterclipid>masterclip-32</masterclipid>
												<name>futuristic-cliché by curtis-cole Artlist.mp3</name>
												<enabled>TRUE</enabled>
												<duration>6915</duration>
												<rate>
													<timebase>30</timebase>
													<ntsc>TRUE</ntsc>
												</rate>
												<start>-1</start>
												<end>-1</end>
												<in>590</in>
												<out>3208</out>
												<pproTicksIn>5000643648000</pproTicksIn>
												<pproTicksOut>27189940377600</pproTicksOut>
												<file id="file-32"/>
												<sourcetrack>
													<mediatype>audio</mediatype>
													<trackindex>1</trackindex>
												</sourcetrack>
													<marker>
														<comment></comment>
														<name></name>
														<in>573</in>
														<out>-1</out>
													</marker>
												<link>
													<linkclipref>clipitem-218</linkclipref>
													<mediatype>audio</mediatype>
													<trackindex>1</trackindex>
													<clipindex>2</clipindex>
													<groupindex>1</groupindex>
												</link>
												<link>
													<linkclipref>clipitem-219</linkclipref>
													<mediatype>audio</mediatype>
													<trackindex>2</trackindex>
													<clipindex>2</clipindex>
													<groupindex>1</groupindex>
												</link>
												<logginginfo>
													<description></description>
													<scene></scene>
													<shottake></shottake>
													<lognote>All Rights Reserved to www.Art-list.io</lognote>
													<good></good>
													<originalvideofilename></originalvideofilename>
													<originalaudiofilename></originalaudiofilename>
												</logginginfo>
												<colorinfo>
													<lut></lut>
													<lut1></lut1>
													<asc_sop></asc_sop>
													<asc_sat></asc_sat>
													<lut2></lut2>
												</colorinfo>
												<labels>
													<label2>Forest</label2>
												</labels>
											</clipitem>
											<transitionitem>
												<start>2528</start>
												<end>2618</end>
												<pproTicksIn>21426486681600</pproTicksIn>
												<pproTicksOut>22189296729600</pproTicksOut>
												<alignment>end-black</alignment>
												<cutPointTicks>762810048000</cutPointTicks>
												<rate>
													<timebase>30</timebase>
													<ntsc>TRUE</ntsc>
												</rate>
												<effect>
													<name>Cross Fade (+3dB)</name>
													<effectid>KGAudioTransCrossFade3dB</effectid>
													<effecttype>transition</effecttype>
													<mediatype>audio</mediatype>
													<wipecode>0</wipecode>
													<wipeaccuracy>100</wipeaccuracy>
													<startratio>0</startratio>
													<endratio>1</endratio>
													<reverse>FALSE</reverse>
												</effect>
											</transitionitem>
											<enabled>TRUE</enabled>
											<locked>FALSE</locked>
											<outputchannelindex>1</outputchannelindex>
										</track>
										<track TL.SQTrackAudioKeyframeStyle="0" TL.SQTrackShy="0" TL.SQTrackExpandedHeight="25" TL.SQTrackExpanded="0" MZ.TrackTargeted="1" PannerCurrentValue="0.5" PannerIsInverted="true" PannerStartKeyframe="-91445760000000000,0.5,0,0,0,0,0,0" PannerName="Balance" currentExplodedTrackIndex="1" totalExplodedTrackCount="2" premiereTrackType="Stereo">
											<transitionitem>
												<start>0</start>
												<end>30</end>
												<pproTicksIn>0</pproTicksIn>
												<pproTicksOut>254270016000</pproTicksOut>
												<alignment>start-black</alignment>
												<cutPointTicks>0</cutPointTicks>
												<rate>
													<timebase>30</timebase>
													<ntsc>TRUE</ntsc>
												</rate>
												<effect>
													<name>Cross Fade (+3dB)</name>
													<effectid>KGAudioTransCrossFade3dB</effectid>
													<effecttype>transition</effecttype>
													<mediatype>audio</mediatype>
													<wipecode>0</wipecode>
													<wipeaccuracy>100</wipeaccuracy>
													<startratio>0</startratio>
													<endratio>1</endratio>
													<reverse>FALSE</reverse>
												</effect>
											</transitionitem>
											<clipitem id="clipitem-219" premiereChannelType="stereo">
												<masterclipid>masterclip-32</masterclipid>
												<name>futuristic-cliché by curtis-cole Artlist.mp3</name>
												<enabled>TRUE</enabled>
												<duration>6915</duration>
												<rate>
													<timebase>30</timebase>
													<ntsc>TRUE</ntsc>
												</rate>
												<start>-1</start>
												<end>-1</end>
												<in>590</in>
												<out>3208</out>
												<pproTicksIn>5000643648000</pproTicksIn>
												<pproTicksOut>27189940377600</pproTicksOut>
												<file id="file-32"/>
												<sourcetrack>
													<mediatype>audio</mediatype>
													<trackindex>2</trackindex>
												</sourcetrack>
													<marker>
														<comment></comment>
														<name></name>
														<in>573</in>
														<out>-1</out>
													</marker>
												<link>
													<linkclipref>clipitem-218</linkclipref>
													<mediatype>audio</mediatype>
													<trackindex>1</trackindex>
													<clipindex>2</clipindex>
													<groupindex>1</groupindex>
												</link>
												<link>
													<linkclipref>clipitem-219</linkclipref>
													<mediatype>audio</mediatype>
													<trackindex>2</trackindex>
													<clipindex>2</clipindex>
													<groupindex>1</groupindex>
												</link>
												<logginginfo>
													<description></description>
													<scene></scene>
													<shottake></shottake>
													<lognote>All Rights Reserved to www.Art-list.io</lognote>
													<good></good>
													<originalvideofilename></originalvideofilename>
													<originalaudiofilename></originalaudiofilename>
												</logginginfo>
												<colorinfo>
													<lut></lut>
													<lut1></lut1>
													<asc_sop></asc_sop>
													<asc_sat></asc_sat>
													<lut2></lut2>
												</colorinfo>
												<labels>
													<label2>Forest</label2>
												</labels>
											</clipitem>
											<transitionitem>
												<start>2528</start>
												<end>2618</end>
												<pproTicksIn>21426486681600</pproTicksIn>
												<pproTicksOut>22189296729600</pproTicksOut>
												<alignment>end-black</alignment>
												<cutPointTicks>762810048000</cutPointTicks>
												<rate>
													<timebase>30</timebase>
													<ntsc>TRUE</ntsc>
												</rate>
												<effect>
													<name>Cross Fade (+3dB)</name>
													<effectid>KGAudioTransCrossFade3dB</effectid>
													<effecttype>transition</effecttype>
													<mediatype>audio</mediatype>
													<wipecode>0</wipecode>
													<wipeaccuracy>100</wipeaccuracy>
													<startratio>0</startratio>
													<endratio>1</endratio>
													<reverse>FALSE</reverse>
												</effect>
											</transitionitem>
											<enabled>TRUE</enabled>
											<locked>FALSE</locked>
											<outputchannelindex>2</outputchannelindex>
										</track>
									</audio>
								</media>
								<timecode>
									<rate>
										<timebase>30</timebase>
										<ntsc>TRUE</ntsc>
									</rate>
									<string>00:00:00:00</string>
									<frame>0</frame>
									<displayformat>NDF</displayformat>
								</timecode>
								<labels>
									<label2>Forest</label2>
								</labels>
								<logginginfo>
									<description></description>
									<scene></scene>
									<shottake></shottake>
									<lognote></lognote>
									<good></good>
									<originalvideofilename></originalvideofilename>
									<originalaudiofilename></originalaudiofilename>
								</logginginfo>
							</sequence>
							<sequence id="sequence-28" TL.SQAudioVisibleBase="0" TL.SQVideoVisibleBase="0" TL.SQVisibleBaseTime="0" TL.SQAVDividerPosition="0.5" TL.SQHideShyTracks="0" TL.SQHeaderWidth="236" Monitor.ProgramZoomOut="25215109920000" Monitor.ProgramZoomIn="0" TL.SQTimePerPixel="0.27637033625057528" MZ.EditLine="25215109920000" MZ.Sequence.PreviewFrameSizeHeight="1080" MZ.Sequence.PreviewFrameSizeWidth="1080" MZ.Sequence.AudioTimeDisplayFormat="200" MZ.Sequence.PreviewRenderingClassID="1297106761" MZ.Sequence.PreviewRenderingPresetCodec="1297107278" MZ.Sequence.PreviewRenderingPresetPath="EncoderPresets/SequencePreview/795454d9-d3c2-429d-9474-923ab13b7018/I-Frame Only MPEG.epr" MZ.Sequence.PreviewUseMaxRenderQuality="false" MZ.Sequence.PreviewUseMaxBitDepth="false" MZ.Sequence.EditingModeGUID="795454d9-d3c2-429d-9474-923ab13b7018" MZ.Sequence.VideoTimeDisplayFormat="103" MZ.WorkOutPoint="25215109920000" MZ.WorkInPoint="0" explodedTracks="true">
								<uuid>b74864d2-5e7d-4dfa-bdba-90582d50c8fd</uuid>
								<duration>2975</duration>
								<rate>
									<timebase>30</timebase>
									<ntsc>TRUE</ntsc>
								</rate>
								<name>populuzenest</name>
								<media>
									<video>
										<format>
											<samplecharacteristics>
												<rate>
													<timebase>30</timebase>
													<ntsc>TRUE</ntsc>
												</rate>
												<codec>
													<name>Apple ProRes 422</name>
													<appspecificdata>
														<appname>Final Cut Pro</appname>
														<appmanufacturer>Apple Inc.</appmanufacturer>
														<appversion>7.0</appversion>
														<data>
															<qtcodec>
																<codecname>Apple ProRes 422</codecname>
																<codectypename>Apple ProRes 422</codectypename>
																<codectypecode>apcn</codectypecode>
																<codecvendorcode>appl</codecvendorcode>
																<spatialquality>1024</spatialquality>
																<temporalquality>0</temporalquality>
																<keyframerate>0</keyframerate>
																<datarate>0</datarate>
															</qtcodec>
														</data>
													</appspecificdata>
												</codec>
												<width>1080</width>
												<height>1080</height>
												<anamorphic>FALSE</anamorphic>
												<pixelaspectratio>square</pixelaspectratio>
												<fielddominance>none</fielddominance>
												<colordepth>24</colordepth>
											</samplecharacteristics>
										</format>
										<track TL.SQTrackShy="0" TL.SQTrackExpandedHeight="25" TL.SQTrackExpanded="0" MZ.TrackTargeted="1">
											<clipitem id="clipitem-220">
												<masterclipid>masterclip-123</masterclipid>
												<name>1260 - DIY_populuxe_1m50s.mp4</name>
												<enabled>TRUE</enabled>
												<duration>2975</duration>
												<rate>
													<timebase>30</timebase>
													<ntsc>TRUE</ntsc>
												</rate>
												<start>0</start>
												<end>2975</end>
												<in>0</in>
												<out>2975</out>
												<pproTicksIn>0</pproTicksIn>
												<pproTicksOut>25215109920000</pproTicksOut>
												<alphatype>none</alphatype>
												<pixelaspectratio>square</pixelaspectratio>
												<anamorphic>FALSE</anamorphic>
												<file id="file-122">
													<name>1260 - DIY_populuxe_1m50s.mp4</name>
													<pathurl>file://localhost/Volumes/Satisfactum%20Satisfactorum/03_Weekly%20(Project%20Files,%20Main%20Segments)/OSTV/OSTV%2023-08-28/3_Raw%20Files/04-10/1260%20-%20DIY_populuxe_1m50s.mp4</pathurl>
													<rate>
														<timebase>30</timebase>
														<ntsc>TRUE</ntsc>
													</rate>
													<duration>2975</duration>
													<timecode>
														<rate>
															<timebase>30</timebase>
															<ntsc>TRUE</ntsc>
														</rate>
														<string>00:00:00:00</string>
														<frame>0</frame>
														<displayformat>NDF</displayformat>
													</timecode>
													<media>
														<video>
															<samplecharacteristics>
																<rate>
																	<timebase>30</timebase>
																	<ntsc>TRUE</ntsc>
																</rate>
																<width>1280</width>
																<height>720</height>
																<anamorphic>FALSE</anamorphic>
																<pixelaspectratio>square</pixelaspectratio>
																<fielddominance>none</fielddominance>
															</samplecharacteristics>
														</video>
														<audio>
															<samplecharacteristics>
																<depth>16</depth>
																<samplerate>32000</samplerate>
															</samplecharacteristics>
															<channelcount>2</channelcount>
														</audio>
													</media>
												</file>
												<filter>
													<effect>
														<name>Basic Motion</name>
														<effectid>basic</effectid>
														<effectcategory>motion</effectcategory>
														<effecttype>motion</effecttype>
														<mediatype>video</mediatype>
														<pproBypass>false</pproBypass>
														<parameter authoringApp="PremierePro">
															<parameterid>scale</parameterid>
															<name>Scale</name>
															<valuemin>0</valuemin>
															<valuemax>1000</valuemax>
															<value>275</value>
														</parameter>
														<parameter authoringApp="PremierePro">
															<parameterid>rotation</parameterid>
															<name>Rotation</name>
															<valuemin>-8640</valuemin>
															<valuemax>8640</valuemax>
															<value>0</value>
														</parameter>
														<parameter authoringApp="PremierePro">
															<parameterid>center</parameterid>
															<name>Center</name>
															<value>
																<horiz>0</horiz>
																<vert>0</vert>
															</value>
														</parameter>
														<parameter authoringApp="PremierePro">
															<parameterid>centerOffset</parameterid>
															<name>Anchor Point</name>
															<value>
																<horiz>0</horiz>
																<vert>0</vert>
															</value>
														</parameter>
														<parameter authoringApp="PremierePro">
															<parameterid>antiflicker</parameterid>
															<name>Anti-flicker Filter</name>
															<valuemin>0.0</valuemin>
															<valuemax>1.0</valuemax>
															<value>0</value>
														</parameter>
													</effect>
												</filter>
												<logginginfo>
													<description></description>
													<scene></scene>
													<shottake></shottake>
													<lognote></lognote>
													<good></good>
													<originalvideofilename></originalvideofilename>
													<originalaudiofilename></originalaudiofilename>
												</logginginfo>
												<colorinfo>
													<lut></lut>
													<lut1></lut1>
													<asc_sop></asc_sop>
													<asc_sat></asc_sat>
													<lut2></lut2>
												</colorinfo>
												<labels>
													<label2>Iris</label2>
												</labels>
											</clipitem>
											<enabled>TRUE</enabled>
											<locked>FALSE</locked>
										</track>
									</video>
									<audio>
										<numOutputChannels>2</numOutputChannels>
										<format>
											<samplecharacteristics>
												<depth>16</depth>
												<samplerate>44100</samplerate>
											</samplecharacteristics>
										</format>
										<outputs>
											<group>
												<index>1</index>
												<numchannels>1</numchannels>
												<downmix>0</downmix>
												<channel>
													<index>1</index>
												</channel>
											</group>
											<group>
												<index>2</index>
												<numchannels>1</numchannels>
												<downmix>0</downmix>
												<channel>
													<index>2</index>
												</channel>
											</group>
										</outputs>
										<track TL.SQTrackAudioKeyframeStyle="0" TL.SQTrackShy="0" TL.SQTrackExpandedHeight="25" TL.SQTrackExpanded="0" MZ.TrackTargeted="1" PannerCurrentValue="0.5" PannerIsInverted="true" PannerStartKeyframe="-91445760000000000,0.5,0,0,0,0,0,0" PannerName="Balance" currentExplodedTrackIndex="0" totalExplodedTrackCount="2" premiereTrackType="Stereo">
											<enabled>TRUE</enabled>
											<locked>FALSE</locked>
											<outputchannelindex>1</outputchannelindex>
										</track>
										<track TL.SQTrackAudioKeyframeStyle="0" TL.SQTrackShy="0" TL.SQTrackExpandedHeight="25" TL.SQTrackExpanded="0" MZ.TrackTargeted="1" PannerCurrentValue="0.5" PannerIsInverted="true" PannerStartKeyframe="-91445760000000000,0.5,0,0,0,0,0,0" PannerName="Balance" currentExplodedTrackIndex="1" totalExplodedTrackCount="2" premiereTrackType="Stereo">
											<enabled>TRUE</enabled>
											<locked>FALSE</locked>
											<outputchannelindex>2</outputchannelindex>
										</track>
									</audio>
								</media>
								<timecode>
									<rate>
										<timebase>30</timebase>
										<ntsc>TRUE</ntsc>
									</rate>
									<string>00:00:00:00</string>
									<frame>0</frame>
									<displayformat>NDF</displayformat>
								</timecode>
								<labels>
									<label2>Forest</label2>
								</labels>
								<logginginfo>
									<description></description>
									<scene></scene>
									<shottake></shottake>
									<lognote></lognote>
									<good></good>
									<originalvideofilename></originalvideofilename>
									<originalaudiofilename></originalaudiofilename>
								</logginginfo>
							</sequence>
							<sequence id="sequence-29" TL.SQAudioVisibleBase="0" TL.SQVideoVisibleBase="0" TL.SQVisibleBaseTime="0" TL.SQAVDividerPosition="0.5" TL.SQHideShyTracks="0" TL.SQHeaderWidth="236" Monitor.ProgramZoomOut="19773731577600" Monitor.ProgramZoomIn="0" TL.SQTimePerPixel="0.13818516812528672" MZ.EditLine="9509698598400" MZ.Sequence.PreviewFrameSizeHeight="1080" MZ.Sequence.PreviewFrameSizeWidth="1080" MZ.Sequence.AudioTimeDisplayFormat="200" MZ.Sequence.PreviewRenderingClassID="1297106761" MZ.Sequence.PreviewRenderingPresetCodec="1297107278" MZ.Sequence.PreviewRenderingPresetPath="EncoderPresets/SequencePreview/795454d9-d3c2-429d-9474-923ab13b7018/I-Frame Only MPEG.epr" MZ.Sequence.PreviewUseMaxRenderQuality="false" MZ.Sequence.PreviewUseMaxBitDepth="false" MZ.Sequence.EditingModeGUID="795454d9-d3c2-429d-9474-923ab13b7018" MZ.Sequence.VideoTimeDisplayFormat="103" MZ.WorkOutPoint="19773731577600" MZ.WorkInPoint="0" explodedTracks="true">
								<uuid>3855015e-7931-4ffa-852a-a2cc48732f25</uuid>
								<duration>2333</duration>
								<rate>
									<timebase>30</timebase>
									<ntsc>TRUE</ntsc>
								</rate>
								<name>1260nest</name>
								<media>
									<video>
										<format>
											<samplecharacteristics>
												<rate>
													<timebase>30</timebase>
													<ntsc>TRUE</ntsc>
												</rate>
												<codec>
													<name>Apple ProRes 422</name>
													<appspecificdata>
														<appname>Final Cut Pro</appname>
														<appmanufacturer>Apple Inc.</appmanufacturer>
														<appversion>7.0</appversion>
														<data>
															<qtcodec>
																<codecname>Apple ProRes 422</codecname>
																<codectypename>Apple ProRes 422</codectypename>
																<codectypecode>apcn</codectypecode>
																<codecvendorcode>appl</codecvendorcode>
																<spatialquality>1024</spatialquality>
																<temporalquality>0</temporalquality>
																<keyframerate>0</keyframerate>
																<datarate>0</datarate>
															</qtcodec>
														</data>
													</appspecificdata>
												</codec>
												<width>1080</width>
												<height>1080</height>
												<anamorphic>FALSE</anamorphic>
												<pixelaspectratio>square</pixelaspectratio>
												<fielddominance>none</fielddominance>
												<colordepth>24</colordepth>
											</samplecharacteristics>
										</format>
										<track TL.SQTrackShy="0" TL.SQTrackExpandedHeight="25" TL.SQTrackExpanded="0" MZ.TrackTargeted="1">
											<clipitem id="clipitem-221">
												<masterclipid>masterclip-124</masterclipid>
												<name>1260 - FND_extra icy eyecandy unbranded_1m15s.mp4</name>
												<enabled>TRUE</enabled>
												<duration>2333</duration>
												<rate>
													<timebase>30</timebase>
													<ntsc>TRUE</ntsc>
												</rate>
												<start>0</start>
												<end>2333</end>
												<in>0</in>
												<out>2333</out>
												<pproTicksIn>0</pproTicksIn>
												<pproTicksOut>19773731577600</pproTicksOut>
												<alphatype>none</alphatype>
												<pixelaspectratio>square</pixelaspectratio>
												<anamorphic>FALSE</anamorphic>
												<file id="file-123">
													<name>1260 - FND_extra icy eyecandy unbranded_1m15s.mp4</name>
													<pathurl>file://localhost/Volumes/Satisfactum%20Satisfactorum/03_Weekly%20(Project%20Files,%20Main%20Segments)/OSTV/OSTV%2023-08-28/3_Raw%20Files/04-10/1260%20-%20FND_extra%20icy%20eyecandy%20unbranded_1m15s.mp4</pathurl>
													<rate>
														<timebase>30</timebase>
														<ntsc>TRUE</ntsc>
													</rate>
													<duration>2333</duration>
													<timecode>
														<rate>
															<timebase>30</timebase>
															<ntsc>TRUE</ntsc>
														</rate>
														<string>00:00:00:00</string>
														<frame>0</frame>
														<displayformat>NDF</displayformat>
													</timecode>
													<media>
														<video>
															<samplecharacteristics>
																<rate>
																	<timebase>30</timebase>
																	<ntsc>TRUE</ntsc>
																</rate>
																<width>1280</width>
																<height>720</height>
																<anamorphic>FALSE</anamorphic>
																<pixelaspectratio>square</pixelaspectratio>
																<fielddominance>none</fielddominance>
															</samplecharacteristics>
														</video>
														<audio>
															<samplecharacteristics>
																<depth>16</depth>
																<samplerate>32000</samplerate>
															</samplecharacteristics>
															<channelcount>2</channelcount>
														</audio>
													</media>
												</file>
												<filter>
													<effect>
														<name>Basic Motion</name>
														<effectid>basic</effectid>
														<effectcategory>motion</effectcategory>
														<effecttype>motion</effecttype>
														<mediatype>video</mediatype>
														<pproBypass>false</pproBypass>
														<parameter authoringApp="PremierePro">
															<parameterid>scale</parameterid>
															<name>Scale</name>
															<valuemin>0</valuemin>
															<valuemax>1000</valuemax>
															<value>190</value>
														</parameter>
														<parameter authoringApp="PremierePro">
															<parameterid>rotation</parameterid>
															<name>Rotation</name>
															<valuemin>-8640</valuemin>
															<valuemax>8640</valuemax>
															<value>0</value>
														</parameter>
														<parameter authoringApp="PremierePro">
															<parameterid>center</parameterid>
															<name>Center</name>
															<value>
																<horiz>0</horiz>
																<vert>0</vert>
															</value>
														</parameter>
														<parameter authoringApp="PremierePro">
															<parameterid>centerOffset</parameterid>
															<name>Anchor Point</name>
															<value>
																<horiz>0</horiz>
																<vert>0</vert>
															</value>
														</parameter>
														<parameter authoringApp="PremierePro">
															<parameterid>antiflicker</parameterid>
															<name>Anti-flicker Filter</name>
															<valuemin>0.0</valuemin>
															<valuemax>1.0</valuemax>
															<value>0</value>
														</parameter>
													</effect>
												</filter>
												<logginginfo>
													<description></description>
													<scene></scene>
													<shottake></shottake>
													<lognote></lognote>
													<good></good>
													<originalvideofilename></originalvideofilename>
													<originalaudiofilename></originalaudiofilename>
												</logginginfo>
												<colorinfo>
													<lut></lut>
													<lut1></lut1>
													<asc_sop></asc_sop>
													<asc_sat></asc_sat>
													<lut2></lut2>
												</colorinfo>
												<labels>
													<label2>Iris</label2>
												</labels>
											</clipitem>
											<enabled>TRUE</enabled>
											<locked>FALSE</locked>
										</track>
									</video>
									<audio>
										<numOutputChannels>2</numOutputChannels>
										<format>
											<samplecharacteristics>
												<depth>16</depth>
												<samplerate>44100</samplerate>
											</samplecharacteristics>
										</format>
										<outputs>
											<group>
												<index>1</index>
												<numchannels>1</numchannels>
												<downmix>0</downmix>
												<channel>
													<index>1</index>
												</channel>
											</group>
											<group>
												<index>2</index>
												<numchannels>1</numchannels>
												<downmix>0</downmix>
												<channel>
													<index>2</index>
												</channel>
											</group>
										</outputs>
										<track TL.SQTrackAudioKeyframeStyle="0" TL.SQTrackShy="0" TL.SQTrackExpandedHeight="25" TL.SQTrackExpanded="0" MZ.TrackTargeted="1" PannerCurrentValue="0.5" PannerIsInverted="true" PannerStartKeyframe="-91445760000000000,0.5,0,0,0,0,0,0" PannerName="Balance" currentExplodedTrackIndex="0" totalExplodedTrackCount="2" premiereTrackType="Stereo">
											<enabled>TRUE</enabled>
											<locked>FALSE</locked>
											<outputchannelindex>1</outputchannelindex>
										</track>
										<track TL.SQTrackAudioKeyframeStyle="0" TL.SQTrackShy="0" TL.SQTrackExpandedHeight="25" TL.SQTrackExpanded="0" MZ.TrackTargeted="1" PannerCurrentValue="0.5" PannerIsInverted="true" PannerStartKeyframe="-91445760000000000,0.5,0,0,0,0,0,0" PannerName="Balance" currentExplodedTrackIndex="1" totalExplodedTrackCount="2" premiereTrackType="Stereo">
											<enabled>TRUE</enabled>
											<locked>FALSE</locked>
											<outputchannelindex>2</outputchannelindex>
										</track>
									</audio>
								</media>
								<timecode>
									<rate>
										<timebase>30</timebase>
										<ntsc>TRUE</ntsc>
									</rate>
									<string>00:00:00:00</string>
									<frame>0</frame>
									<displayformat>NDF</displayformat>
								</timecode>
								<labels>
									<label2>Forest</label2>
								</labels>
								<logginginfo>
									<description></description>
									<scene></scene>
									<shottake></shottake>
									<lognote></lognote>
									<good></good>
									<originalvideofilename></originalvideofilename>
									<originalaudiofilename></originalaudiofilename>
								</logginginfo>
							</sequence>
							<sequence id="sequence-30" TL.SQAudioVisibleBase="0" TL.SQVideoVisibleBase="0" TL.SQVisibleBaseTime="0" TL.SQAVDividerPosition="0.5" TL.SQHideShyTracks="0" TL.SQHeaderWidth="236" Monitor.ProgramZoomOut="17392069094400" Monitor.ProgramZoomIn="0" TL.SQTimePerPixel="0.069092584062642445" MZ.EditLine="11815080076800" MZ.Sequence.PreviewFrameSizeHeight="1080" MZ.Sequence.PreviewFrameSizeWidth="1920" MZ.Sequence.AudioTimeDisplayFormat="200" MZ.Sequence.PreviewRenderingClassID="1297106761" MZ.Sequence.PreviewRenderingPresetCodec="1297107278" MZ.Sequence.PreviewRenderingPresetPath="EncoderPresets/SequencePreview/795454d9-d3c2-429d-9474-923ab13b7018/I-Frame Only MPEG.epr" MZ.Sequence.PreviewUseMaxRenderQuality="false" MZ.Sequence.PreviewUseMaxBitDepth="false" MZ.Sequence.EditingModeGUID="795454d9-d3c2-429d-9474-923ab13b7018" MZ.Sequence.VideoTimeDisplayFormat="103" MZ.WorkOutPoint="19773731577600" MZ.WorkInPoint="0" explodedTracks="true">
								<uuid>ca044795-004a-4dd8-ba57-e350c206faa1</uuid>
								<duration>2052</duration>
								<rate>
									<timebase>30</timebase>
									<ntsc>TRUE</ntsc>
								</rate>
								<name>1260nestnest</name>
								<media>
									<video>
										<format>
											<samplecharacteristics>
												<rate>
													<timebase>30</timebase>
													<ntsc>TRUE</ntsc>
												</rate>
												<codec>
													<name>Apple ProRes 422</name>
													<appspecificdata>
														<appname>Final Cut Pro</appname>
														<appmanufacturer>Apple Inc.</appmanufacturer>
														<appversion>7.0</appversion>
														<data>
															<qtcodec>
																<codecname>Apple ProRes 422</codecname>
																<codectypename>Apple ProRes 422</codectypename>
																<codectypecode>apcn</codectypecode>
																<codecvendorcode>appl</codecvendorcode>
																<spatialquality>1024</spatialquality>
																<temporalquality>0</temporalquality>
																<keyframerate>0</keyframerate>
																<datarate>0</datarate>
															</qtcodec>
														</data>
													</appspecificdata>
												</codec>
												<width>1920</width>
												<height>1080</height>
												<anamorphic>FALSE</anamorphic>
												<pixelaspectratio>square</pixelaspectratio>
												<fielddominance>none</fielddominance>
												<colordepth>24</colordepth>
											</samplecharacteristics>
										</format>
										<track TL.SQTrackShy="0" TL.SQTrackExpandedHeight="25" TL.SQTrackExpanded="0" MZ.TrackTargeted="1">
											<clipitem id="clipitem-222">
												<masterclipid>masterclip-125</masterclipid>
												<name>1260nest</name>
												<enabled>TRUE</enabled>
												<duration>2333</duration>
												<rate>
													<timebase>30</timebase>
													<ntsc>TRUE</ntsc>
												</rate>
												<start>0</start>
												<end>1113</end>
												<in>0</in>
												<out>1113</out>
												<pproTicksIn>0</pproTicksIn>
												<pproTicksOut>9433417593600</pproTicksOut>
												<sequence id="sequence-29"/>
												<filter>
													<effect>
														<name>Basic Motion</name>
														<effectid>basic</effectid>
														<effectcategory>motion</effectcategory>
														<effecttype>motion</effecttype>
														<mediatype>video</mediatype>
														<pproBypass>false</pproBypass>
														<parameter authoringApp="PremierePro">
															<parameterid>scale</parameterid>
															<name>Scale</name>
															<valuemin>0</valuemin>
															<valuemax>1000</valuemax>
															<value>210</value>
														</parameter>
														<parameter authoringApp="PremierePro">
															<parameterid>rotation</parameterid>
															<name>Rotation</name>
															<valuemin>-8640</valuemin>
															<valuemax>8640</valuemax>
															<value>0</value>
														</parameter>
														<parameter authoringApp="PremierePro">
															<parameterid>center</parameterid>
															<name>Center</name>
															<value>
																<horiz>-0.5</horiz>
																<vert>-0.5</vert>
															</value>
														</parameter>
														<parameter authoringApp="PremierePro">
															<parameterid>centerOffset</parameterid>
															<name>Anchor Point</name>
															<value>
																<horiz>0</horiz>
																<vert>0</vert>
															</value>
														</parameter>
														<parameter authoringApp="PremierePro">
															<parameterid>antiflicker</parameterid>
															<name>Anti-flicker Filter</name>
															<valuemin>0.0</valuemin>
															<valuemax>1.0</valuemax>
															<value>0</value>
														</parameter>
													</effect>
												</filter>
												<filter>
													<effect>
														<name>Gaussian Blur</name>
														<effectid>Gaussian Blur</effectid>
														<effectcategory>Blur</effectcategory>
														<effecttype>motion</effecttype>
														<mediatype>video</mediatype>
														<pproBypass>false</pproBypass>
														<parameter authoringApp="PremierePro">
															<parameterid>radius</parameterid>
															<name>Radius</name>
															<valuemin>0</valuemin>
															<valuemax>100</valuemax>
															<value>150</value>
														</parameter>
													</effect>
												</filter>
												<labels>
													<label2>Forest</label2>
												</labels>
											</clipitem>
											<clipitem id="clipitem-223">
												<masterclipid>masterclip-125</masterclipid>
												<name>1260nest</name>
												<enabled>TRUE</enabled>
												<duration>2333</duration>
												<rate>
													<timebase>30</timebase>
													<ntsc>TRUE</ntsc>
												</rate>
												<start>1113</start>
												<end>2052</end>
												<in>1394</in>
												<out>2333</out>
												<pproTicksIn>11815080076800</pproTicksIn>
												<pproTicksOut>19773731577600</pproTicksOut>
												<sequence id="sequence-29"/>
												<filter>
													<effect>
														<name>Basic Motion</name>
														<effectid>basic</effectid>
														<effectcategory>motion</effectcategory>
														<effecttype>motion</effecttype>
														<mediatype>video</mediatype>
														<pproBypass>false</pproBypass>
														<parameter authoringApp="PremierePro">
															<parameterid>scale</parameterid>
															<name>Scale</name>
															<valuemin>0</valuemin>
															<valuemax>1000</valuemax>
															<value>210</value>
														</parameter>
														<parameter authoringApp="PremierePro">
															<parameterid>rotation</parameterid>
															<name>Rotation</name>
															<valuemin>-8640</valuemin>
															<valuemax>8640</valuemax>
															<value>0</value>
														</parameter>
														<parameter authoringApp="PremierePro">
															<parameterid>center</parameterid>
															<name>Center</name>
															<value>
																<horiz>-0.5</horiz>
																<vert>-0.5</vert>
															</value>
														</parameter>
														<parameter authoringApp="PremierePro">
															<parameterid>centerOffset</parameterid>
															<name>Anchor Point</name>
															<value>
																<horiz>0</horiz>
																<vert>0</vert>
															</value>
														</parameter>
														<parameter authoringApp="PremierePro">
															<parameterid>antiflicker</parameterid>
															<name>Anti-flicker Filter</name>
															<valuemin>0.0</valuemin>
															<valuemax>1.0</valuemax>
															<value>0</value>
														</parameter>
													</effect>
												</filter>
												<filter>
													<effect>
														<name>Gaussian Blur</name>
														<effectid>Gaussian Blur</effectid>
														<effectcategory>Blur</effectcategory>
														<effecttype>motion</effecttype>
														<mediatype>video</mediatype>
														<pproBypass>false</pproBypass>
														<parameter authoringApp="PremierePro">
															<parameterid>radius</parameterid>
															<name>Radius</name>
															<valuemin>0</valuemin>
															<valuemax>100</valuemax>
															<value>150</value>
														</parameter>
													</effect>
												</filter>
												<labels>
													<label2>Forest</label2>
												</labels>
											</clipitem>
											<enabled>TRUE</enabled>
											<locked>FALSE</locked>
										</track>
										<track TL.SQTrackShy="0" TL.SQTrackExpandedHeight="25" TL.SQTrackExpanded="0" MZ.TrackTargeted="0">
											<clipitem id="clipitem-224">
												<masterclipid>masterclip-125</masterclipid>
												<name>1260nest</name>
												<enabled>TRUE</enabled>
												<duration>2333</duration>
												<rate>
													<timebase>30</timebase>
													<ntsc>TRUE</ntsc>
												</rate>
												<start>0</start>
												<end>1113</end>
												<in>0</in>
												<out>1113</out>
												<pproTicksIn>0</pproTicksIn>
												<pproTicksOut>9433417593600</pproTicksOut>
												<sequence id="sequence-29"/>
												<labels>
													<label2>Forest</label2>
												</labels>
											</clipitem>
											<clipitem id="clipitem-225">
												<masterclipid>masterclip-125</masterclipid>
												<name>1260nest</name>
												<enabled>TRUE</enabled>
												<duration>2333</duration>
												<rate>
													<timebase>30</timebase>
													<ntsc>TRUE</ntsc>
												</rate>
												<start>1113</start>
												<end>2052</end>
												<in>1394</in>
												<out>2333</out>
												<pproTicksIn>11815080076800</pproTicksIn>
												<pproTicksOut>19773731577600</pproTicksOut>
												<sequence id="sequence-29"/>
												<labels>
													<label2>Forest</label2>
												</labels>
											</clipitem>
											<enabled>TRUE</enabled>
											<locked>FALSE</locked>
										</track>
										<track TL.SQTrackShy="0" TL.SQTrackExpandedHeight="25" TL.SQTrackExpanded="0" MZ.TrackTargeted="0">
											<clipitem id="clipitem-226">
												<masterclipid>masterclip-57</masterclipid>
												<name>eskimosorvetesoficial</name>
												<enabled>TRUE</enabled>
												<duration>5844</duration>
												<rate>
													<timebase>30</timebase>
													<ntsc>TRUE</ntsc>
												</rate>
												<start>0</start>
												<end>2052</end>
												<in>0</in>
												<out>2052</out>
												<pproTicksIn>0</pproTicksIn>
												<pproTicksOut>17392069094400</pproTicksOut>
												<alphatype>straight</alphatype>
												<file id="file-57"/>
												<filter>
													<effect>
														<name>Basic Motion</name>
														<effectid>basic</effectid>
														<effectcategory>motion</effectcategory>
														<effecttype>motion</effecttype>
														<mediatype>video</mediatype>
														<pproBypass>false</pproBypass>
														<parameter authoringApp="PremierePro">
															<parameterid>scale</parameterid>
															<name>Scale</name>
															<valuemin>0</valuemin>
															<valuemax>1000</valuemax>
															<value>150</value>
														</parameter>
														<parameter authoringApp="PremierePro">
															<parameterid>rotation</parameterid>
															<name>Rotation</name>
															<valuemin>-8640</valuemin>
															<valuemax>8640</valuemax>
															<value>0</value>
														</parameter>
														<parameter authoringApp="PremierePro">
															<parameterid>center</parameterid>
															<name>Center</name>
															<value>
																<horiz>0</horiz>
																<vert>0</vert>
															</value>
														</parameter>
														<parameter authoringApp="PremierePro">
															<parameterid>centerOffset</parameterid>
															<name>Anchor Point</name>
															<value>
																<horiz>0</horiz>
																<vert>0</vert>
															</value>
														</parameter>
														<parameter authoringApp="PremierePro">
															<parameterid>antiflicker</parameterid>
															<name>Anti-flicker Filter</name>
															<valuemin>0.0</valuemin>
															<valuemax>1.0</valuemax>
															<value>0</value>
														</parameter>
													</effect>
												</filter>
												<logginginfo>
													<description></description>
													<scene></scene>
													<shottake></shottake>
													<lognote></lognote>
													<good></good>
													<originalvideofilename></originalvideofilename>
													<originalaudiofilename></originalaudiofilename>
												</logginginfo>
												<colorinfo>
													<lut></lut>
													<lut1></lut1>
													<asc_sop></asc_sop>
													<asc_sat></asc_sat>
													<lut2></lut2>
												</colorinfo>
												<labels>
													<label2>Rose</label2>
												</labels>
											</clipitem>
											<enabled>TRUE</enabled>
											<locked>FALSE</locked>
										</track>
										<track TL.SQTrackShy="0" TL.SQTrackExpandedHeight="25" TL.SQTrackExpanded="0" MZ.TrackTargeted="0">
											<clipitem id="clipitem-227">
												<masterclipid>masterclip-106</masterclipid>
												<name>Bug and Lower Nest</name>
												<enabled>TRUE</enabled>
												<duration>14721</duration>
												<rate>
													<timebase>30</timebase>
													<ntsc>TRUE</ntsc>
												</rate>
												<start>0</start>
												<end>2052</end>
												<in>0</in>
												<out>2052</out>
												<pproTicksIn>0</pproTicksIn>
												<pproTicksOut>17392069094400</pproTicksOut>
												<sequence id="sequence-1"/>
												<labels>
													<label2>Cerulean</label2>
												</labels>
											</clipitem>
											<enabled>TRUE</enabled>
											<locked>FALSE</locked>
										</track>
									</video>
									<audio>
										<numOutputChannels>2</numOutputChannels>
										<format>
											<samplecharacteristics>
												<depth>16</depth>
												<samplerate>44100</samplerate>
											</samplecharacteristics>
										</format>
										<outputs>
											<group>
												<index>1</index>
												<numchannels>1</numchannels>
												<downmix>0</downmix>
												<channel>
													<index>1</index>
												</channel>
											</group>
											<group>
												<index>2</index>
												<numchannels>1</numchannels>
												<downmix>0</downmix>
												<channel>
													<index>2</index>
												</channel>
											</group>
										</outputs>
										<track TL.SQTrackAudioKeyframeStyle="0" TL.SQTrackShy="0" TL.SQTrackExpandedHeight="25" TL.SQTrackExpanded="0" MZ.TrackTargeted="1" PannerCurrentValue="0.5" PannerIsInverted="true" PannerStartKeyframe="-91445760000000000,0.5,0,0,0,0,0,0" PannerName="Balance" currentExplodedTrackIndex="0" totalExplodedTrackCount="2" premiereTrackType="Stereo">
											<transitionitem>
												<start>0</start>
												<end>30</end>
												<pproTicksIn>0</pproTicksIn>
												<pproTicksOut>254270016000</pproTicksOut>
												<alignment>start-black</alignment>
												<cutPointTicks>0</cutPointTicks>
												<rate>
													<timebase>30</timebase>
													<ntsc>TRUE</ntsc>
												</rate>
												<effect>
													<name>Cross Fade (+3dB)</name>
													<effectid>KGAudioTransCrossFade3dB</effectid>
													<effecttype>transition</effecttype>
													<mediatype>audio</mediatype>
													<wipecode>0</wipecode>
													<wipeaccuracy>100</wipeaccuracy>
													<startratio>0</startratio>
													<endratio>1</endratio>
													<reverse>FALSE</reverse>
												</effect>
											</transitionitem>
											<clipitem id="clipitem-228" premiereChannelType="stereo">
												<masterclipid>masterclip-16</masterclipid>
												<name>ES_Three Bites - Dylan Sitts.mp3</name>
												<enabled>TRUE</enabled>
												<duration>3624</duration>
												<rate>
													<timebase>30</timebase>
													<ntsc>TRUE</ntsc>
												</rate>
												<start>-1</start>
												<end>-1</end>
												<in>124</in>
												<out>2176</out>
												<pproTicksIn>1050982732800</pproTicksIn>
												<pproTicksOut>18443051827200</pproTicksOut>
												<file id="file-16"/>
												<sourcetrack>
													<mediatype>audio</mediatype>
													<trackindex>1</trackindex>
												</sourcetrack>
												<link>
													<linkclipref>clipitem-228</linkclipref>
													<mediatype>audio</mediatype>
													<trackindex>1</trackindex>
													<clipindex>2</clipindex>
													<groupindex>1</groupindex>
												</link>
												<link>
													<linkclipref>clipitem-229</linkclipref>
													<mediatype>audio</mediatype>
													<trackindex>2</trackindex>
													<clipindex>2</clipindex>
													<groupindex>1</groupindex>
												</link>
												<logginginfo>
													<description></description>
													<scene></scene>
													<shottake></shottake>
													<lognote></lognote>
													<good></good>
													<originalvideofilename></originalvideofilename>
													<originalaudiofilename></originalaudiofilename>
												</logginginfo>
												<colorinfo>
													<lut></lut>
													<lut1></lut1>
													<asc_sop></asc_sop>
													<asc_sat></asc_sat>
													<lut2></lut2>
												</colorinfo>
												<labels>
													<label2>Caribbean</label2>
												</labels>
											</clipitem>
											<transitionitem>
												<start>1962</start>
												<end>2052</end>
												<pproTicksIn>16629259046400</pproTicksIn>
												<pproTicksOut>17392069094400</pproTicksOut>
												<alignment>end-black</alignment>
												<cutPointTicks>762810048000</cutPointTicks>
												<rate>
													<timebase>30</timebase>
													<ntsc>TRUE</ntsc>
												</rate>
												<effect>
													<name>Cross Fade (+3dB)</name>
													<effectid>KGAudioTransCrossFade3dB</effectid>
													<effecttype>transition</effecttype>
													<mediatype>audio</mediatype>
													<wipecode>0</wipecode>
													<wipeaccuracy>100</wipeaccuracy>
													<startratio>0</startratio>
													<endratio>1</endratio>
													<reverse>FALSE</reverse>
												</effect>
											</transitionitem>
											<enabled>TRUE</enabled>
											<locked>FALSE</locked>
											<outputchannelindex>1</outputchannelindex>
										</track>
										<track TL.SQTrackAudioKeyframeStyle="0" TL.SQTrackShy="0" TL.SQTrackExpandedHeight="25" TL.SQTrackExpanded="0" MZ.TrackTargeted="1" PannerCurrentValue="0.5" PannerIsInverted="true" PannerStartKeyframe="-91445760000000000,0.5,0,0,0,0,0,0" PannerName="Balance" currentExplodedTrackIndex="1" totalExplodedTrackCount="2" premiereTrackType="Stereo">
											<transitionitem>
												<start>0</start>
												<end>30</end>
												<pproTicksIn>0</pproTicksIn>
												<pproTicksOut>254270016000</pproTicksOut>
												<alignment>start-black</alignment>
												<cutPointTicks>0</cutPointTicks>
												<rate>
													<timebase>30</timebase>
													<ntsc>TRUE</ntsc>
												</rate>
												<effect>
													<name>Cross Fade (+3dB)</name>
													<effectid>KGAudioTransCrossFade3dB</effectid>
													<effecttype>transition</effecttype>
													<mediatype>audio</mediatype>
													<wipecode>0</wipecode>
													<wipeaccuracy>100</wipeaccuracy>
													<startratio>0</startratio>
													<endratio>1</endratio>
													<reverse>FALSE</reverse>
												</effect>
											</transitionitem>
											<clipitem id="clipitem-229" premiereChannelType="stereo">
												<masterclipid>masterclip-16</masterclipid>
												<name>ES_Three Bites - Dylan Sitts.mp3</name>
												<enabled>TRUE</enabled>
												<duration>3624</duration>
												<rate>
													<timebase>30</timebase>
													<ntsc>TRUE</ntsc>
												</rate>
												<start>-1</start>
												<end>-1</end>
												<in>124</in>
												<out>2176</out>
												<pproTicksIn>1050982732800</pproTicksIn>
												<pproTicksOut>18443051827200</pproTicksOut>
												<file id="file-16"/>
												<sourcetrack>
													<mediatype>audio</mediatype>
													<trackindex>2</trackindex>
												</sourcetrack>
												<link>
													<linkclipref>clipitem-228</linkclipref>
													<mediatype>audio</mediatype>
													<trackindex>1</trackindex>
													<clipindex>2</clipindex>
													<groupindex>1</groupindex>
												</link>
												<link>
													<linkclipref>clipitem-229</linkclipref>
													<mediatype>audio</mediatype>
													<trackindex>2</trackindex>
													<clipindex>2</clipindex>
													<groupindex>1</groupindex>
												</link>
												<logginginfo>
													<description></description>
													<scene></scene>
													<shottake></shottake>
													<lognote></lognote>
													<good></good>
													<originalvideofilename></originalvideofilename>
													<originalaudiofilename></originalaudiofilename>
												</logginginfo>
												<colorinfo>
													<lut></lut>
													<lut1></lut1>
													<asc_sop></asc_sop>
													<asc_sat></asc_sat>
													<lut2></lut2>
												</colorinfo>
												<labels>
													<label2>Caribbean</label2>
												</labels>
											</clipitem>
											<transitionitem>
												<start>1962</start>
												<end>2052</end>
												<pproTicksIn>16629259046400</pproTicksIn>
												<pproTicksOut>17392069094400</pproTicksOut>
												<alignment>end-black</alignment>
												<cutPointTicks>762810048000</cutPointTicks>
												<rate>
													<timebase>30</timebase>
													<ntsc>TRUE</ntsc>
												</rate>
												<effect>
													<name>Cross Fade (+3dB)</name>
													<effectid>KGAudioTransCrossFade3dB</effectid>
													<effecttype>transition</effecttype>
													<mediatype>audio</mediatype>
													<wipecode>0</wipecode>
													<wipeaccuracy>100</wipeaccuracy>
													<startratio>0</startratio>
													<endratio>1</endratio>
													<reverse>FALSE</reverse>
												</effect>
											</transitionitem>
											<enabled>TRUE</enabled>
											<locked>FALSE</locked>
											<outputchannelindex>2</outputchannelindex>
										</track>
									</audio>
								</media>
								<timecode>
									<rate>
										<timebase>30</timebase>
										<ntsc>TRUE</ntsc>
									</rate>
									<string>00:00:00:00</string>
									<frame>0</frame>
									<displayformat>NDF</displayformat>
								</timecode>
								<labels>
									<label2>Forest</label2>
								</labels>
								<logginginfo>
									<description></description>
									<scene></scene>
									<shottake></shottake>
									<lognote></lognote>
									<good></good>
									<originalvideofilename></originalvideofilename>
									<originalaudiofilename></originalaudiofilename>
								</logginginfo>
							</sequence>
							<sequence id="sequence-31" TL.SQAudioVisibleBase="0" TL.SQVideoVisibleBase="0" TL.SQVisibleBaseTime="0" TL.SQAVDividerPosition="0.5" TL.SQHideShyTracks="0" TL.SQHeaderWidth="236" Monitor.ProgramZoomOut="20655200966400" Monitor.ProgramZoomIn="0" TL.SQTimePerPixel="0.27637033625056823" MZ.EditLine="16186999806473" MZ.Sequence.PreviewFrameSizeHeight="1080" MZ.Sequence.PreviewFrameSizeWidth="1080" MZ.Sequence.AudioTimeDisplayFormat="200" MZ.Sequence.PreviewRenderingClassID="1297106761" MZ.Sequence.PreviewRenderingPresetCodec="1297107278" MZ.Sequence.PreviewRenderingPresetPath="EncoderPresets/SequencePreview/795454d9-d3c2-429d-9474-923ab13b7018/I-Frame Only MPEG.epr" MZ.Sequence.PreviewUseMaxRenderQuality="false" MZ.Sequence.PreviewUseMaxBitDepth="false" MZ.Sequence.EditingModeGUID="795454d9-d3c2-429d-9474-923ab13b7018" MZ.Sequence.VideoTimeDisplayFormat="103" MZ.WorkOutPoint="21197643667200" MZ.WorkInPoint="0" explodedTracks="true">
								<uuid>08c9db08-a60f-4240-a54f-174c1af0bf7d</uuid>
								<duration>2437</duration>
								<rate>
									<timebase>30</timebase>
									<ntsc>TRUE</ntsc>
								</rate>
								<out>2437</out>
								<name>tynest</name>
								<media>
									<video>
										<format>
											<samplecharacteristics>
												<rate>
													<timebase>30</timebase>
													<ntsc>TRUE</ntsc>
												</rate>
												<codec>
													<name>Apple ProRes 422</name>
													<appspecificdata>
														<appname>Final Cut Pro</appname>
														<appmanufacturer>Apple Inc.</appmanufacturer>
														<appversion>7.0</appversion>
														<data>
															<qtcodec>
																<codecname>Apple ProRes 422</codecname>
																<codectypename>Apple ProRes 422</codectypename>
																<codectypecode>apcn</codectypecode>
																<codecvendorcode>appl</codecvendorcode>
																<spatialquality>1024</spatialquality>
																<temporalquality>0</temporalquality>
																<keyframerate>0</keyframerate>
																<datarate>0</datarate>
															</qtcodec>
														</data>
													</appspecificdata>
												</codec>
												<width>1080</width>
												<height>1080</height>
												<anamorphic>FALSE</anamorphic>
												<pixelaspectratio>square</pixelaspectratio>
												<fielddominance>none</fielddominance>
												<colordepth>24</colordepth>
											</samplecharacteristics>
										</format>
										<track TL.SQTrackShy="0" TL.SQTrackExpandedHeight="25" TL.SQTrackExpanded="0" MZ.TrackTargeted="1">
											<clipitem id="clipitem-230">
												<masterclipid>masterclip-126</masterclipid>
												<name>1264 - MACRO_YT object_1m35s.mp4</name>
												<enabled>TRUE</enabled>
												<duration>2501</duration>
												<rate>
													<timebase>30</timebase>
													<ntsc>TRUE</ntsc>
												</rate>
												<start>0</start>
												<end>2147</end>
												<in>0</in>
												<out>2147</out>
												<pproTicksIn>0</pproTicksIn>
												<pproTicksOut>18197257478400</pproTicksOut>
												<alphatype>none</alphatype>
												<pixelaspectratio>square</pixelaspectratio>
												<anamorphic>FALSE</anamorphic>
												<file id="file-124">
													<name>1264 - MACRO_YT object_1m35s.mp4</name>
													<pathurl>file://localhost/Volumes/Satisfactum%20Satisfactorum/03_Weekly%20(Project%20Files,%20Main%20Segments)/OSTV/OSTV%2023-08-28/3_Raw%20Files/04-10/1264%20-%20MACRO_YT%20object_1m35s.mp4</pathurl>
													<rate>
														<timebase>30</timebase>
														<ntsc>TRUE</ntsc>
													</rate>
													<duration>2501</duration>
													<timecode>
														<rate>
															<timebase>30</timebase>
															<ntsc>TRUE</ntsc>
														</rate>
														<string>00:00:00:00</string>
														<frame>0</frame>
														<displayformat>NDF</displayformat>
													</timecode>
													<media>
														<video>
															<samplecharacteristics>
																<rate>
																	<timebase>30</timebase>
																	<ntsc>TRUE</ntsc>
																</rate>
																<width>1280</width>
																<height>720</height>
																<anamorphic>FALSE</anamorphic>
																<pixelaspectratio>square</pixelaspectratio>
																<fielddominance>none</fielddominance>
															</samplecharacteristics>
														</video>
														<audio>
															<samplecharacteristics>
																<depth>16</depth>
																<samplerate>32000</samplerate>
															</samplecharacteristics>
															<channelcount>2</channelcount>
														</audio>
													</media>
												</file>
												<filter>
													<effect>
														<name>Basic Motion</name>
														<effectid>basic</effectid>
														<effectcategory>motion</effectcategory>
														<effecttype>motion</effecttype>
														<mediatype>video</mediatype>
														<pproBypass>false</pproBypass>
														<parameter authoringApp="PremierePro">
															<parameterid>scale</parameterid>
															<name>Scale</name>
															<valuemin>0</valuemin>
															<valuemax>1000</valuemax>
															<value>254</value>
														</parameter>
														<parameter authoringApp="PremierePro">
															<parameterid>rotation</parameterid>
															<name>Rotation</name>
															<valuemin>-8640</valuemin>
															<valuemax>8640</valuemax>
															<value>0</value>
														</parameter>
														<parameter authoringApp="PremierePro">
															<parameterid>center</parameterid>
															<name>Center</name>
															<value>
																<horiz>0</horiz>
																<vert>0</vert>
															</value>
														</parameter>
														<parameter authoringApp="PremierePro">
															<parameterid>centerOffset</parameterid>
															<name>Anchor Point</name>
															<value>
																<horiz>0</horiz>
																<vert>0</vert>
															</value>
														</parameter>
														<parameter authoringApp="PremierePro">
															<parameterid>antiflicker</parameterid>
															<name>Anti-flicker Filter</name>
															<valuemin>0.0</valuemin>
															<valuemax>1.0</valuemax>
															<value>0</value>
														</parameter>
													</effect>
												</filter>
												<logginginfo>
													<description></description>
													<scene></scene>
													<shottake></shottake>
													<lognote></lognote>
													<good></good>
													<originalvideofilename></originalvideofilename>
													<originalaudiofilename></originalaudiofilename>
												</logginginfo>
												<colorinfo>
													<lut></lut>
													<lut1></lut1>
													<asc_sop></asc_sop>
													<asc_sat></asc_sat>
													<lut2></lut2>
												</colorinfo>
												<labels>
													<label2>Iris</label2>
												</labels>
											</clipitem>
											<clipitem id="clipitem-231">
												<masterclipid>masterclip-126</masterclipid>
												<name>1264 - MACRO_YT object_1m35s.mp4</name>
												<enabled>TRUE</enabled>
												<duration>2501</duration>
												<rate>
													<timebase>30</timebase>
													<ntsc>TRUE</ntsc>
												</rate>
												<start>2147</start>
												<end>2437</end>
												<in>2211</in>
												<out>2501</out>
												<pproTicksIn>18739700179200</pproTicksIn>
												<pproTicksOut>21197643667200</pproTicksOut>
												<alphatype>none</alphatype>
												<file id="file-124"/>
												<filter>
													<effect>
														<name>Basic Motion</name>
														<effectid>basic</effectid>
														<effectcategory>motion</effectcategory>
														<effecttype>motion</effecttype>
														<mediatype>video</mediatype>
														<pproBypass>false</pproBypass>
														<parameter authoringApp="PremierePro">
															<parameterid>scale</parameterid>
															<name>Scale</name>
															<valuemin>0</valuemin>
															<valuemax>1000</valuemax>
															<value>254</value>
														</parameter>
														<parameter authoringApp="PremierePro">
															<parameterid>rotation</parameterid>
															<name>Rotation</name>
															<valuemin>-8640</valuemin>
															<valuemax>8640</valuemax>
															<value>0</value>
														</parameter>
														<parameter authoringApp="PremierePro">
															<parameterid>center</parameterid>
															<name>Center</name>
															<value>
																<horiz>0</horiz>
																<vert>-0.504167</vert>
															</value>
														</parameter>
														<parameter authoringApp="PremierePro">
															<parameterid>centerOffset</parameterid>
															<name>Anchor Point</name>
															<value>
																<horiz>0</horiz>
																<vert>0</vert>
															</value>
														</parameter>
														<parameter authoringApp="PremierePro">
															<parameterid>antiflicker</parameterid>
															<name>Anti-flicker Filter</name>
															<valuemin>0.0</valuemin>
															<valuemax>1.0</valuemax>
															<value>0</value>
														</parameter>
													</effect>
												</filter>
												<logginginfo>
													<description></description>
													<scene></scene>
													<shottake></shottake>
													<lognote></lognote>
													<good></good>
													<originalvideofilename></originalvideofilename>
													<originalaudiofilename></originalaudiofilename>
												</logginginfo>
												<colorinfo>
													<lut></lut>
													<lut1></lut1>
													<asc_sop></asc_sop>
													<asc_sat></asc_sat>
													<lut2></lut2>
												</colorinfo>
												<labels>
													<label2>Iris</label2>
												</labels>
											</clipitem>
											<enabled>TRUE</enabled>
											<locked>FALSE</locked>
										</track>
									</video>
									<audio>
										<numOutputChannels>2</numOutputChannels>
										<format>
											<samplecharacteristics>
												<depth>16</depth>
												<samplerate>44100</samplerate>
											</samplecharacteristics>
										</format>
										<outputs>
											<group>
												<index>1</index>
												<numchannels>1</numchannels>
												<downmix>0</downmix>
												<channel>
													<index>1</index>
												</channel>
											</group>
											<group>
												<index>2</index>
												<numchannels>1</numchannels>
												<downmix>0</downmix>
												<channel>
													<index>2</index>
												</channel>
											</group>
										</outputs>
										<track TL.SQTrackAudioKeyframeStyle="0" TL.SQTrackShy="0" TL.SQTrackExpandedHeight="25" TL.SQTrackExpanded="0" MZ.TrackTargeted="1" PannerCurrentValue="0.5" PannerIsInverted="true" PannerStartKeyframe="-91445760000000000,0.5,0,0,0,0,0,0" PannerName="Balance" currentExplodedTrackIndex="0" totalExplodedTrackCount="2" premiereTrackType="Stereo">
											<enabled>TRUE</enabled>
											<locked>FALSE</locked>
											<outputchannelindex>1</outputchannelindex>
										</track>
										<track TL.SQTrackAudioKeyframeStyle="0" TL.SQTrackShy="0" TL.SQTrackExpandedHeight="25" TL.SQTrackExpanded="0" MZ.TrackTargeted="1" PannerCurrentValue="0.5" PannerIsInverted="true" PannerStartKeyframe="-91445760000000000,0.5,0,0,0,0,0,0" PannerName="Balance" currentExplodedTrackIndex="1" totalExplodedTrackCount="2" premiereTrackType="Stereo">
											<enabled>TRUE</enabled>
											<locked>FALSE</locked>
											<outputchannelindex>2</outputchannelindex>
										</track>
									</audio>
								</media>
								<timecode>
									<rate>
										<timebase>30</timebase>
										<ntsc>TRUE</ntsc>
									</rate>
									<string>00:00:00:00</string>
									<frame>0</frame>
									<displayformat>NDF</displayformat>
								</timecode>
								<labels>
									<label2>Forest</label2>
								</labels>
								<logginginfo>
									<description></description>
									<scene></scene>
									<shottake></shottake>
									<lognote></lognote>
									<good></good>
									<originalvideofilename></originalvideofilename>
									<originalaudiofilename></originalaudiofilename>
								</logginginfo>
							</sequence>
							<sequence id="sequence-32" TL.SQAudioVisibleBase="0" TL.SQVideoVisibleBase="0" TL.SQVisibleBaseTime="0" TL.SQAVDividerPosition="0.5" TL.SQHideShyTracks="0" TL.SQHeaderWidth="236" Monitor.ProgramZoomOut="20799287308800" Monitor.ProgramZoomIn="0" TL.SQTimePerPixel="0.13818516812528556" MZ.EditLine="0" MZ.Sequence.PreviewFrameSizeHeight="1080" MZ.Sequence.PreviewFrameSizeWidth="1080" MZ.Sequence.AudioTimeDisplayFormat="200" MZ.Sequence.PreviewRenderingClassID="1297106761" MZ.Sequence.PreviewRenderingPresetCodec="1297107278" MZ.Sequence.PreviewRenderingPresetPath="EncoderPresets/SequencePreview/795454d9-d3c2-429d-9474-923ab13b7018/I-Frame Only MPEG.epr" MZ.Sequence.PreviewUseMaxRenderQuality="false" MZ.Sequence.PreviewUseMaxBitDepth="false" MZ.Sequence.EditingModeGUID="795454d9-d3c2-429d-9474-923ab13b7018" MZ.Sequence.VideoTimeDisplayFormat="103" MZ.WorkOutPoint="21146789664000" MZ.WorkInPoint="0" explodedTracks="true">
								<uuid>3b156f32-4483-4e96-af76-25e7b87a20c6</uuid>
								<duration>2454</duration>
								<rate>
									<timebase>30</timebase>
									<ntsc>TRUE</ntsc>
								</rate>
								<out>2454</out>
								<name>1264nest</name>
								<media>
									<video>
										<format>
											<samplecharacteristics>
												<rate>
													<timebase>30</timebase>
													<ntsc>TRUE</ntsc>
												</rate>
												<codec>
													<name>Apple ProRes 422</name>
													<appspecificdata>
														<appname>Final Cut Pro</appname>
														<appmanufacturer>Apple Inc.</appmanufacturer>
														<appversion>7.0</appversion>
														<data>
															<qtcodec>
																<codecname>Apple ProRes 422</codecname>
																<codectypename>Apple ProRes 422</codectypename>
																<codectypecode>apcn</codectypecode>
																<codecvendorcode>appl</codecvendorcode>
																<spatialquality>1024</spatialquality>
																<temporalquality>0</temporalquality>
																<keyframerate>0</keyframerate>
																<datarate>0</datarate>
															</qtcodec>
														</data>
													</appspecificdata>
												</codec>
												<width>1080</width>
												<height>1080</height>
												<anamorphic>FALSE</anamorphic>
												<pixelaspectratio>square</pixelaspectratio>
												<fielddominance>none</fielddominance>
												<colordepth>24</colordepth>
											</samplecharacteristics>
										</format>
										<track TL.SQTrackShy="0" TL.SQTrackExpandedHeight="25" TL.SQTrackExpanded="0" MZ.TrackTargeted="1">
											<clipitem id="clipitem-232">
												<masterclipid>masterclip-127</masterclipid>
												<name>1264 - ART_art of all methods_1m25s.mp4</name>
												<enabled>TRUE</enabled>
												<duration>2495</duration>
												<rate>
													<timebase>30</timebase>
													<ntsc>TRUE</ntsc>
												</rate>
												<start>0</start>
												<end>1134</end>
												<in>0</in>
												<out>1134</out>
												<pproTicksIn>0</pproTicksIn>
												<pproTicksOut>9611406604800</pproTicksOut>
												<alphatype>none</alphatype>
												<pixelaspectratio>square</pixelaspectratio>
												<anamorphic>FALSE</anamorphic>
												<file id="file-125">
													<name>1264 - ART_art of all methods_1m25s.mp4</name>
													<pathurl>file://localhost/Volumes/Satisfactum%20Satisfactorum/03_Weekly%20(Project%20Files,%20Main%20Segments)/OSTV/OSTV%2023-08-28/3_Raw%20Files/04-10/1264%20-%20ART_art%20of%20all%20methods_1m25s.mp4</pathurl>
													<rate>
														<timebase>30</timebase>
														<ntsc>TRUE</ntsc>
													</rate>
													<duration>2495</duration>
													<timecode>
														<rate>
															<timebase>30</timebase>
															<ntsc>TRUE</ntsc>
														</rate>
														<string>00:00:00:00</string>
														<frame>0</frame>
														<displayformat>NDF</displayformat>
													</timecode>
													<media>
														<video>
															<samplecharacteristics>
																<rate>
																	<timebase>30</timebase>
																	<ntsc>TRUE</ntsc>
																</rate>
																<width>1280</width>
																<height>720</height>
																<anamorphic>FALSE</anamorphic>
																<pixelaspectratio>square</pixelaspectratio>
																<fielddominance>none</fielddominance>
															</samplecharacteristics>
														</video>
														<audio>
															<samplecharacteristics>
																<depth>16</depth>
																<samplerate>32000</samplerate>
															</samplecharacteristics>
															<channelcount>2</channelcount>
														</audio>
													</media>
												</file>
												<filter>
													<effect>
														<name>Basic Motion</name>
														<effectid>basic</effectid>
														<effectcategory>motion</effectcategory>
														<effecttype>motion</effecttype>
														<mediatype>video</mediatype>
														<pproBypass>false</pproBypass>
														<parameter authoringApp="PremierePro">
															<parameterid>scale</parameterid>
															<name>Scale</name>
															<valuemin>0</valuemin>
															<valuemax>1000</valuemax>
															<value>275</value>
														</parameter>
														<parameter authoringApp="PremierePro">
															<parameterid>rotation</parameterid>
															<name>Rotation</name>
															<valuemin>-8640</valuemin>
															<valuemax>8640</valuemax>
															<value>0</value>
														</parameter>
														<parameter authoringApp="PremierePro">
															<parameterid>center</parameterid>
															<name>Center</name>
															<value>
																<horiz>0</horiz>
																<vert>0</vert>
															</value>
														</parameter>
														<parameter authoringApp="PremierePro">
															<parameterid>centerOffset</parameterid>
															<name>Anchor Point</name>
															<value>
																<horiz>0</horiz>
																<vert>0</vert>
															</value>
														</parameter>
														<parameter authoringApp="PremierePro">
															<parameterid>antiflicker</parameterid>
															<name>Anti-flicker Filter</name>
															<valuemin>0.0</valuemin>
															<valuemax>1.0</valuemax>
															<value>0</value>
														</parameter>
													</effect>
												</filter>
												<logginginfo>
													<description></description>
													<scene></scene>
													<shottake></shottake>
													<lognote></lognote>
													<good></good>
													<originalvideofilename></originalvideofilename>
													<originalaudiofilename></originalaudiofilename>
												</logginginfo>
												<colorinfo>
													<lut></lut>
													<lut1></lut1>
													<asc_sop></asc_sop>
													<asc_sat></asc_sat>
													<lut2></lut2>
												</colorinfo>
												<labels>
													<label2>Iris</label2>
												</labels>
											</clipitem>
											<clipitem id="clipitem-233">
												<masterclipid>masterclip-127</masterclipid>
												<name>1264 - ART_art of all methods_1m25s.mp4</name>
												<enabled>TRUE</enabled>
												<duration>2495</duration>
												<rate>
													<timebase>30</timebase>
													<ntsc>TRUE</ntsc>
												</rate>
												<start>1134</start>
												<end>1299</end>
												<in>1134</in>
												<out>1299</out>
												<pproTicksIn>9611406604800</pproTicksIn>
												<pproTicksOut>11009891692800</pproTicksOut>
												<alphatype>none</alphatype>
												<file id="file-125"/>
												<filter>
													<effect>
														<name>Basic Motion</name>
														<effectid>basic</effectid>
														<effectcategory>motion</effectcategory>
														<effecttype>motion</effecttype>
														<mediatype>video</mediatype>
														<pproBypass>false</pproBypass>
														<parameter authoringApp="PremierePro">
															<parameterid>scale</parameterid>
															<name>Scale</name>
															<valuemin>0</valuemin>
															<valuemax>1000</valuemax>
															<value>275</value>
														</parameter>
														<parameter authoringApp="PremierePro">
															<parameterid>rotation</parameterid>
															<name>Rotation</name>
															<valuemin>-8640</valuemin>
															<valuemax>8640</valuemax>
															<value>0</value>
														</parameter>
														<parameter authoringApp="PremierePro">
															<parameterid>center</parameterid>
															<name>Center</name>
															<value>
																<horiz>0</horiz>
																<vert>-0.365278</vert>
															</value>
														</parameter>
														<parameter authoringApp="PremierePro">
															<parameterid>centerOffset</parameterid>
															<name>Anchor Point</name>
															<value>
																<horiz>0</horiz>
																<vert>0</vert>
															</value>
														</parameter>
														<parameter authoringApp="PremierePro">
															<parameterid>antiflicker</parameterid>
															<name>Anti-flicker Filter</name>
															<valuemin>0.0</valuemin>
															<valuemax>1.0</valuemax>
															<value>0</value>
														</parameter>
													</effect>
												</filter>
												<logginginfo>
													<description></description>
													<scene></scene>
													<shottake></shottake>
													<lognote></lognote>
													<good></good>
													<originalvideofilename></originalvideofilename>
													<originalaudiofilename></originalaudiofilename>
												</logginginfo>
												<colorinfo>
													<lut></lut>
													<lut1></lut1>
													<asc_sop></asc_sop>
													<asc_sat></asc_sat>
													<lut2></lut2>
												</colorinfo>
												<labels>
													<label2>Iris</label2>
												</labels>
											</clipitem>
											<clipitem id="clipitem-234">
												<masterclipid>masterclip-127</masterclipid>
												<name>1264 - ART_art of all methods_1m25s.mp4</name>
												<enabled>TRUE</enabled>
												<duration>2495</duration>
												<rate>
													<timebase>30</timebase>
													<ntsc>TRUE</ntsc>
												</rate>
												<start>1299</start>
												<end>2376</end>
												<in>1340</in>
												<out>2417</out>
												<pproTicksIn>11357394048000</pproTicksIn>
												<pproTicksOut>20485687622400</pproTicksOut>
												<alphatype>none</alphatype>
												<file id="file-125"/>
												<filter>
													<effect>
														<name>Basic Motion</name>
														<effectid>basic</effectid>
														<effectcategory>motion</effectcategory>
														<effecttype>motion</effecttype>
														<mediatype>video</mediatype>
														<pproBypass>false</pproBypass>
														<parameter authoringApp="PremierePro">
															<parameterid>scale</parameterid>
															<name>Scale</name>
															<valuemin>0</valuemin>
															<valuemax>1000</valuemax>
															<value>275</value>
														</parameter>
														<parameter authoringApp="PremierePro">
															<parameterid>rotation</parameterid>
															<name>Rotation</name>
															<valuemin>-8640</valuemin>
															<valuemax>8640</valuemax>
															<value>0</value>
														</parameter>
														<parameter authoringApp="PremierePro">
															<parameterid>center</parameterid>
															<name>Center</name>
															<value>
																<horiz>0</horiz>
																<vert>-0.365278</vert>
															</value>
														</parameter>
														<parameter authoringApp="PremierePro">
															<parameterid>centerOffset</parameterid>
															<name>Anchor Point</name>
															<value>
																<horiz>0</horiz>
																<vert>0</vert>
															</value>
														</parameter>
														<parameter authoringApp="PremierePro">
															<parameterid>antiflicker</parameterid>
															<name>Anti-flicker Filter</name>
															<valuemin>0.0</valuemin>
															<valuemax>1.0</valuemax>
															<value>0</value>
														</parameter>
													</effect>
												</filter>
												<logginginfo>
													<description></description>
													<scene></scene>
													<shottake></shottake>
													<lognote></lognote>
													<good></good>
													<originalvideofilename></originalvideofilename>
													<originalaudiofilename></originalaudiofilename>
												</logginginfo>
												<colorinfo>
													<lut></lut>
													<lut1></lut1>
													<asc_sop></asc_sop>
													<asc_sat></asc_sat>
													<lut2></lut2>
												</colorinfo>
												<labels>
													<label2>Iris</label2>
												</labels>
											</clipitem>
											<clipitem id="clipitem-235">
												<masterclipid>masterclip-127</masterclipid>
												<name>1264 - ART_art of all methods_1m25s.mp4</name>
												<enabled>TRUE</enabled>
												<duration>2495</duration>
												<rate>
													<timebase>30</timebase>
													<ntsc>TRUE</ntsc>
												</rate>
												<start>2376</start>
												<end>2454</end>
												<in>2417</in>
												<out>2495</out>
												<pproTicksIn>20485687622400</pproTicksIn>
												<pproTicksOut>21146789664000</pproTicksOut>
												<alphatype>none</alphatype>
												<file id="file-125"/>
												<filter>
													<effect>
														<name>Basic Motion</name>
														<effectid>basic</effectid>
														<effectcategory>motion</effectcategory>
														<effecttype>motion</effecttype>
														<mediatype>video</mediatype>
														<pproBypass>false</pproBypass>
														<parameter authoringApp="PremierePro">
															<parameterid>scale</parameterid>
															<name>Scale</name>
															<valuemin>0</valuemin>
															<valuemax>1000</valuemax>
															<value>275</value>
														</parameter>
														<parameter authoringApp="PremierePro">
															<parameterid>rotation</parameterid>
															<name>Rotation</name>
															<valuemin>-8640</valuemin>
															<valuemax>8640</valuemax>
															<value>0</value>
														</parameter>
														<parameter authoringApp="PremierePro">
															<parameterid>center</parameterid>
															<name>Center</name>
															<value>
																<horiz>0</horiz>
																<vert>-0.0416667</vert>
															</value>
														</parameter>
														<parameter authoringApp="PremierePro">
															<parameterid>centerOffset</parameterid>
															<name>Anchor Point</name>
															<value>
																<horiz>0</horiz>
																<vert>0</vert>
															</value>
														</parameter>
														<parameter authoringApp="PremierePro">
															<parameterid>antiflicker</parameterid>
															<name>Anti-flicker Filter</name>
															<valuemin>0.0</valuemin>
															<valuemax>1.0</valuemax>
															<value>0</value>
														</parameter>
													</effect>
												</filter>
												<logginginfo>
													<description></description>
													<scene></scene>
													<shottake></shottake>
													<lognote></lognote>
													<good></good>
													<originalvideofilename></originalvideofilename>
													<originalaudiofilename></originalaudiofilename>
												</logginginfo>
												<colorinfo>
													<lut></lut>
													<lut1></lut1>
													<asc_sop></asc_sop>
													<asc_sat></asc_sat>
													<lut2></lut2>
												</colorinfo>
												<labels>
													<label2>Iris</label2>
												</labels>
											</clipitem>
											<enabled>TRUE</enabled>
											<locked>FALSE</locked>
										</track>
									</video>
									<audio>
										<numOutputChannels>2</numOutputChannels>
										<format>
											<samplecharacteristics>
												<depth>16</depth>
												<samplerate>44100</samplerate>
											</samplecharacteristics>
										</format>
										<outputs>
											<group>
												<index>1</index>
												<numchannels>1</numchannels>
												<downmix>0</downmix>
												<channel>
													<index>1</index>
												</channel>
											</group>
											<group>
												<index>2</index>
												<numchannels>1</numchannels>
												<downmix>0</downmix>
												<channel>
													<index>2</index>
												</channel>
											</group>
										</outputs>
										<track TL.SQTrackAudioKeyframeStyle="0" TL.SQTrackShy="0" TL.SQTrackExpandedHeight="25" TL.SQTrackExpanded="0" MZ.TrackTargeted="1" PannerCurrentValue="0.5" PannerIsInverted="true" PannerStartKeyframe="-91445760000000000,0.5,0,0,0,0,0,0" PannerName="Balance" currentExplodedTrackIndex="0" totalExplodedTrackCount="2" premiereTrackType="Stereo">
											<enabled>TRUE</enabled>
											<locked>FALSE</locked>
											<outputchannelindex>1</outputchannelindex>
										</track>
										<track TL.SQTrackAudioKeyframeStyle="0" TL.SQTrackShy="0" TL.SQTrackExpandedHeight="25" TL.SQTrackExpanded="0" MZ.TrackTargeted="1" PannerCurrentValue="0.5" PannerIsInverted="true" PannerStartKeyframe="-91445760000000000,0.5,0,0,0,0,0,0" PannerName="Balance" currentExplodedTrackIndex="1" totalExplodedTrackCount="2" premiereTrackType="Stereo">
											<enabled>TRUE</enabled>
											<locked>FALSE</locked>
											<outputchannelindex>2</outputchannelindex>
										</track>
									</audio>
								</media>
								<timecode>
									<rate>
										<timebase>30</timebase>
										<ntsc>TRUE</ntsc>
									</rate>
									<string>00:00:00:00</string>
									<frame>0</frame>
									<displayformat>NDF</displayformat>
								</timecode>
								<labels>
									<label2>Forest</label2>
								</labels>
								<logginginfo>
									<description></description>
									<scene></scene>
									<shottake></shottake>
									<lognote></lognote>
									<good></good>
									<originalvideofilename></originalvideofilename>
									<originalaudiofilename></originalaudiofilename>
								</logginginfo>
							</sequence>
							<sequence id="sequence-33" TL.SQAudioVisibleBase="0" TL.SQVideoVisibleBase="0" TL.SQVisibleBaseTime="0" TL.SQAVDividerPosition="0.5" TL.SQHideShyTracks="0" TL.SQHeaderWidth="236" Monitor.ProgramZoomOut="20799287308800" Monitor.ProgramZoomIn="0" TL.SQTimePerPixel="0.17934402706486133" MZ.EditLine="0" MZ.Sequence.PreviewFrameSizeHeight="1080" MZ.Sequence.PreviewFrameSizeWidth="1920" MZ.Sequence.AudioTimeDisplayFormat="200" MZ.Sequence.PreviewRenderingClassID="1297106761" MZ.Sequence.PreviewRenderingPresetCodec="1297107278" MZ.Sequence.PreviewRenderingPresetPath="EncoderPresets/SequencePreview/795454d9-d3c2-429d-9474-923ab13b7018/I-Frame Only MPEG.epr" MZ.Sequence.PreviewUseMaxRenderQuality="false" MZ.Sequence.PreviewUseMaxBitDepth="false" MZ.Sequence.EditingModeGUID="795454d9-d3c2-429d-9474-923ab13b7018" MZ.Sequence.VideoTimeDisplayFormat="103" MZ.WorkOutPoint="20799287308800" MZ.WorkInPoint="0" explodedTracks="true">
								<uuid>8d0063e7-08bf-4e1c-8261-1cc4111a7f69</uuid>
								<duration>2454</duration>
								<rate>
									<timebase>30</timebase>
									<ntsc>TRUE</ntsc>
								</rate>
								<name>1264nestnest</name>
								<media>
									<video>
										<format>
											<samplecharacteristics>
												<rate>
													<timebase>30</timebase>
													<ntsc>TRUE</ntsc>
												</rate>
												<codec>
													<name>Apple ProRes 422</name>
													<appspecificdata>
														<appname>Final Cut Pro</appname>
														<appmanufacturer>Apple Inc.</appmanufacturer>
														<appversion>7.0</appversion>
														<data>
															<qtcodec>
																<codecname>Apple ProRes 422</codecname>
																<codectypename>Apple ProRes 422</codectypename>
																<codectypecode>apcn</codectypecode>
																<codecvendorcode>appl</codecvendorcode>
																<spatialquality>1024</spatialquality>
																<temporalquality>0</temporalquality>
																<keyframerate>0</keyframerate>
																<datarate>0</datarate>
															</qtcodec>
														</data>
													</appspecificdata>
												</codec>
												<width>1920</width>
												<height>1080</height>
												<anamorphic>FALSE</anamorphic>
												<pixelaspectratio>square</pixelaspectratio>
												<fielddominance>none</fielddominance>
												<colordepth>24</colordepth>
											</samplecharacteristics>
										</format>
										<track TL.SQTrackShy="0" TL.SQTrackExpandedHeight="25" TL.SQTrackExpanded="0" MZ.TrackTargeted="1">
											<clipitem id="clipitem-236">
												<masterclipid>masterclip-128</masterclipid>
												<name>1264nest</name>
												<enabled>TRUE</enabled>
												<duration>2495</duration>
												<rate>
													<timebase>30</timebase>
													<ntsc>TRUE</ntsc>
												</rate>
												<start>0</start>
												<end>2454</end>
												<in>0</in>
												<out>2454</out>
												<pproTicksIn>0</pproTicksIn>
												<pproTicksOut>20799287308800</pproTicksOut>
												<sequence id="sequence-32"/>
												<filter>
													<effect>
														<name>Basic Motion</name>
														<effectid>basic</effectid>
														<effectcategory>motion</effectcategory>
														<effecttype>motion</effecttype>
														<mediatype>video</mediatype>
														<pproBypass>false</pproBypass>
														<parameter authoringApp="PremierePro">
															<parameterid>scale</parameterid>
															<name>Scale</name>
															<valuemin>0</valuemin>
															<valuemax>1000</valuemax>
															<value>257</value>
														</parameter>
														<parameter authoringApp="PremierePro">
															<parameterid>rotation</parameterid>
															<name>Rotation</name>
															<valuemin>-8640</valuemin>
															<valuemax>8640</valuemax>
															<value>0</value>
														</parameter>
														<parameter authoringApp="PremierePro">
															<parameterid>center</parameterid>
															<name>Center</name>
															<value>
																<horiz>-0.5</horiz>
																<vert>-0.5</vert>
															</value>
														</parameter>
														<parameter authoringApp="PremierePro">
															<parameterid>centerOffset</parameterid>
															<name>Anchor Point</name>
															<value>
																<horiz>0</horiz>
																<vert>0</vert>
															</value>
														</parameter>
														<parameter authoringApp="PremierePro">
															<parameterid>antiflicker</parameterid>
															<name>Anti-flicker Filter</name>
															<valuemin>0.0</valuemin>
															<valuemax>1.0</valuemax>
															<value>0</value>
														</parameter>
													</effect>
												</filter>
												<filter>
													<effect>
														<name>Gaussian Blur</name>
														<effectid>Gaussian Blur</effectid>
														<effectcategory>Blur</effectcategory>
														<effecttype>motion</effecttype>
														<mediatype>video</mediatype>
														<pproBypass>false</pproBypass>
														<parameter authoringApp="PremierePro">
															<parameterid>radius</parameterid>
															<name>Radius</name>
															<valuemin>0</valuemin>
															<valuemax>100</valuemax>
															<value>150</value>
														</parameter>
													</effect>
												</filter>
												<labels>
													<label2>Forest</label2>
												</labels>
											</clipitem>
											<enabled>TRUE</enabled>
											<locked>FALSE</locked>
										</track>
										<track TL.SQTrackShy="0" TL.SQTrackExpandedHeight="25" TL.SQTrackExpanded="0" MZ.TrackTargeted="0">
											<clipitem id="clipitem-237">
												<masterclipid>masterclip-128</masterclipid>
												<name>1264nest</name>
												<enabled>TRUE</enabled>
												<duration>2495</duration>
												<rate>
													<timebase>30</timebase>
													<ntsc>TRUE</ntsc>
												</rate>
												<start>0</start>
												<end>2454</end>
												<in>0</in>
												<out>2454</out>
												<pproTicksIn>0</pproTicksIn>
												<pproTicksOut>20799287308800</pproTicksOut>
												<sequence id="sequence-32"/>
												<labels>
													<label2>Forest</label2>
												</labels>
											</clipitem>
											<enabled>TRUE</enabled>
											<locked>FALSE</locked>
										</track>
										<track TL.SQTrackShy="0" TL.SQTrackExpandedHeight="25" TL.SQTrackExpanded="0" MZ.TrackTargeted="0">
											<clipitem id="clipitem-238">
												<masterclipid>masterclip-58</masterclipid>
												<name>@artsypeach</name>
												<enabled>TRUE</enabled>
												<duration>5844</duration>
												<rate>
													<timebase>30</timebase>
													<ntsc>TRUE</ntsc>
												</rate>
												<start>0</start>
												<end>325</end>
												<in>0</in>
												<out>325</out>
												<pproTicksIn>0</pproTicksIn>
												<pproTicksOut>2754591840000</pproTicksOut>
												<alphatype>straight</alphatype>
												<file id="file-58"/>
												<filter>
													<effect>
														<name>Basic Motion</name>
														<effectid>basic</effectid>
														<effectcategory>motion</effectcategory>
														<effecttype>motion</effecttype>
														<mediatype>video</mediatype>
														<pproBypass>false</pproBypass>
														<parameter authoringApp="PremierePro">
															<parameterid>scale</parameterid>
															<name>Scale</name>
															<valuemin>0</valuemin>
															<valuemax>1000</valuemax>
															<value>150</value>
														</parameter>
														<parameter authoringApp="PremierePro">
															<parameterid>rotation</parameterid>
															<name>Rotation</name>
															<valuemin>-8640</valuemin>
															<valuemax>8640</valuemax>
															<value>0</value>
														</parameter>
														<parameter authoringApp="PremierePro">
															<parameterid>center</parameterid>
															<name>Center</name>
															<value>
																<horiz>0</horiz>
																<vert>0</vert>
															</value>
														</parameter>
														<parameter authoringApp="PremierePro">
															<parameterid>centerOffset</parameterid>
															<name>Anchor Point</name>
															<value>
																<horiz>0</horiz>
																<vert>0</vert>
															</value>
														</parameter>
														<parameter authoringApp="PremierePro">
															<parameterid>antiflicker</parameterid>
															<name>Anti-flicker Filter</name>
															<valuemin>0.0</valuemin>
															<valuemax>1.0</valuemax>
															<value>0</value>
														</parameter>
													</effect>
												</filter>
												<logginginfo>
													<description></description>
													<scene></scene>
													<shottake></shottake>
													<lognote></lognote>
													<good></good>
													<originalvideofilename></originalvideofilename>
													<originalaudiofilename></originalaudiofilename>
												</logginginfo>
												<colorinfo>
													<lut></lut>
													<lut1></lut1>
													<asc_sop></asc_sop>
													<asc_sat></asc_sat>
													<lut2></lut2>
												</colorinfo>
												<labels>
													<label2>Rose</label2>
												</labels>
											</clipitem>
											<clipitem id="clipitem-239">
												<masterclipid>masterclip-59</masterclipid>
												<name>__hiedra_</name>
												<enabled>TRUE</enabled>
												<duration>5844</duration>
												<rate>
													<timebase>30</timebase>
													<ntsc>TRUE</ntsc>
												</rate>
												<start>325</start>
												<end>566</end>
												<in>0</in>
												<out>241</out>
												<pproTicksIn>0</pproTicksIn>
												<pproTicksOut>2042635795200</pproTicksOut>
												<alphatype>straight</alphatype>
												<file id="file-59"/>
												<filter>
													<effect>
														<name>Basic Motion</name>
														<effectid>basic</effectid>
														<effectcategory>motion</effectcategory>
														<effecttype>motion</effecttype>
														<mediatype>video</mediatype>
														<pproBypass>false</pproBypass>
														<parameter authoringApp="PremierePro">
															<parameterid>scale</parameterid>
															<name>Scale</name>
															<valuemin>0</valuemin>
															<valuemax>1000</valuemax>
															<value>150</value>
														</parameter>
														<parameter authoringApp="PremierePro">
															<parameterid>rotation</parameterid>
															<name>Rotation</name>
															<valuemin>-8640</valuemin>
															<valuemax>8640</valuemax>
															<value>0</value>
														</parameter>
														<parameter authoringApp="PremierePro">
															<parameterid>center</parameterid>
															<name>Center</name>
															<value>
																<horiz>0</horiz>
																<vert>0</vert>
															</value>
														</parameter>
														<parameter authoringApp="PremierePro">
															<parameterid>centerOffset</parameterid>
															<name>Anchor Point</name>
															<value>
																<horiz>0</horiz>
																<vert>0</vert>
															</value>
														</parameter>
														<parameter authoringApp="PremierePro">
															<parameterid>antiflicker</parameterid>
															<name>Anti-flicker Filter</name>
															<valuemin>0.0</valuemin>
															<valuemax>1.0</valuemax>
															<value>0</value>
														</parameter>
													</effect>
												</filter>
												<logginginfo>
													<description></description>
													<scene></scene>
													<shottake></shottake>
													<lognote></lognote>
													<good></good>
													<originalvideofilename></originalvideofilename>
													<originalaudiofilename></originalaudiofilename>
												</logginginfo>
												<colorinfo>
													<lut></lut>
													<lut1></lut1>
													<asc_sop></asc_sop>
													<asc_sat></asc_sat>
													<lut2></lut2>
												</colorinfo>
												<labels>
													<label2>Rose</label2>
												</labels>
											</clipitem>
											<clipitem id="clipitem-240">
												<masterclipid>masterclip-60</masterclipid>
												<name>yelizgunaytattoo</name>
												<enabled>TRUE</enabled>
												<duration>5844</duration>
												<rate>
													<timebase>30</timebase>
													<ntsc>TRUE</ntsc>
												</rate>
												<start>566</start>
												<end>1134</end>
												<in>0</in>
												<out>568</out>
												<pproTicksIn>0</pproTicksIn>
												<pproTicksOut>4814178969600</pproTicksOut>
												<alphatype>straight</alphatype>
												<file id="file-60"/>
												<filter>
													<effect>
														<name>Basic Motion</name>
														<effectid>basic</effectid>
														<effectcategory>motion</effectcategory>
														<effecttype>motion</effecttype>
														<mediatype>video</mediatype>
														<pproBypass>false</pproBypass>
														<parameter authoringApp="PremierePro">
															<parameterid>scale</parameterid>
															<name>Scale</name>
															<valuemin>0</valuemin>
															<valuemax>1000</valuemax>
															<value>150</value>
														</parameter>
														<parameter authoringApp="PremierePro">
															<parameterid>rotation</parameterid>
															<name>Rotation</name>
															<valuemin>-8640</valuemin>
															<valuemax>8640</valuemax>
															<value>0</value>
														</parameter>
														<parameter authoringApp="PremierePro">
															<parameterid>center</parameterid>
															<name>Center</name>
															<value>
																<horiz>0</horiz>
																<vert>0</vert>
															</value>
														</parameter>
														<parameter authoringApp="PremierePro">
															<parameterid>centerOffset</parameterid>
															<name>Anchor Point</name>
															<value>
																<horiz>0</horiz>
																<vert>0</vert>
															</value>
														</parameter>
														<parameter authoringApp="PremierePro">
															<parameterid>antiflicker</parameterid>
															<name>Anti-flicker Filter</name>
															<valuemin>0.0</valuemin>
															<valuemax>1.0</valuemax>
															<value>0</value>
														</parameter>
													</effect>
												</filter>
												<logginginfo>
													<description></description>
													<scene></scene>
													<shottake></shottake>
													<lognote></lognote>
													<good></good>
													<originalvideofilename></originalvideofilename>
													<originalaudiofilename></originalaudiofilename>
												</logginginfo>
												<colorinfo>
													<lut></lut>
													<lut1></lut1>
													<asc_sop></asc_sop>
													<asc_sat></asc_sat>
													<lut2></lut2>
												</colorinfo>
												<labels>
													<label2>Rose</label2>
												</labels>
											</clipitem>
											<clipitem id="clipitem-241">
												<masterclipid>masterclip-61</masterclipid>
												<name>@yes.i.talk.to.cats</name>
												<enabled>TRUE</enabled>
												<duration>5844</duration>
												<rate>
													<timebase>30</timebase>
													<ntsc>TRUE</ntsc>
												</rate>
												<start>1134</start>
												<end>1793</end>
												<in>0</in>
												<out>659</out>
												<pproTicksIn>0</pproTicksIn>
												<pproTicksOut>5585464684800</pproTicksOut>
												<alphatype>straight</alphatype>
												<file id="file-61"/>
												<filter>
													<effect>
														<name>Basic Motion</name>
														<effectid>basic</effectid>
														<effectcategory>motion</effectcategory>
														<effecttype>motion</effecttype>
														<mediatype>video</mediatype>
														<pproBypass>false</pproBypass>
														<parameter authoringApp="PremierePro">
															<parameterid>scale</parameterid>
															<name>Scale</name>
															<valuemin>0</valuemin>
															<valuemax>1000</valuemax>
															<value>150</value>
														</parameter>
														<parameter authoringApp="PremierePro">
															<parameterid>rotation</parameterid>
															<name>Rotation</name>
															<valuemin>-8640</valuemin>
															<valuemax>8640</valuemax>
															<value>0</value>
														</parameter>
														<parameter authoringApp="PremierePro">
															<parameterid>center</parameterid>
															<name>Center</name>
															<value>
																<horiz>0</horiz>
																<vert>0</vert>
															</value>
														</parameter>
														<parameter authoringApp="PremierePro">
															<parameterid>centerOffset</parameterid>
															<name>Anchor Point</name>
															<value>
																<horiz>0</horiz>
																<vert>0</vert>
															</value>
														</parameter>
														<parameter authoringApp="PremierePro">
															<parameterid>antiflicker</parameterid>
															<name>Anti-flicker Filter</name>
															<valuemin>0.0</valuemin>
															<valuemax>1.0</valuemax>
															<value>0</value>
														</parameter>
													</effect>
												</filter>
												<logginginfo>
													<description></description>
													<scene></scene>
													<shottake></shottake>
													<lognote></lognote>
													<good></good>
													<originalvideofilename></originalvideofilename>
													<originalaudiofilename></originalaudiofilename>
												</logginginfo>
												<colorinfo>
													<lut></lut>
													<lut1></lut1>
													<asc_sop></asc_sop>
													<asc_sat></asc_sat>
													<lut2></lut2>
												</colorinfo>
												<labels>
													<label2>Rose</label2>
												</labels>
											</clipitem>
											<clipitem id="clipitem-242">
												<masterclipid>masterclip-84</masterclipid>
												<name>magicktruffle</name>
												<enabled>TRUE</enabled>
												<duration>5844</duration>
												<rate>
													<timebase>30</timebase>
													<ntsc>TRUE</ntsc>
												</rate>
												<start>1793</start>
												<end>2454</end>
												<in>0</in>
												<out>661</out>
												<pproTicksIn>0</pproTicksIn>
												<pproTicksOut>5602416019200</pproTicksOut>
												<alphatype>straight</alphatype>
												<file id="file-84"/>
												<filter>
													<effect>
														<name>Basic Motion</name>
														<effectid>basic</effectid>
														<effectcategory>motion</effectcategory>
														<effecttype>motion</effecttype>
														<mediatype>video</mediatype>
														<pproBypass>false</pproBypass>
														<parameter authoringApp="PremierePro">
															<parameterid>scale</parameterid>
															<name>Scale</name>
															<valuemin>0</valuemin>
															<valuemax>1000</valuemax>
															<value>150</value>
														</parameter>
														<parameter authoringApp="PremierePro">
															<parameterid>rotation</parameterid>
															<name>Rotation</name>
															<valuemin>-8640</valuemin>
															<valuemax>8640</valuemax>
															<value>0</value>
														</parameter>
														<parameter authoringApp="PremierePro">
															<parameterid>center</parameterid>
															<name>Center</name>
															<value>
																<horiz>0</horiz>
																<vert>0</vert>
															</value>
														</parameter>
														<parameter authoringApp="PremierePro">
															<parameterid>centerOffset</parameterid>
															<name>Anchor Point</name>
															<value>
																<horiz>0</horiz>
																<vert>0</vert>
															</value>
														</parameter>
														<parameter authoringApp="PremierePro">
															<parameterid>antiflicker</parameterid>
															<name>Anti-flicker Filter</name>
															<valuemin>0.0</valuemin>
															<valuemax>1.0</valuemax>
															<value>0</value>
														</parameter>
													</effect>
												</filter>
												<logginginfo>
													<description></description>
													<scene></scene>
													<shottake></shottake>
													<lognote></lognote>
													<good></good>
													<originalvideofilename></originalvideofilename>
													<originalaudiofilename></originalaudiofilename>
												</logginginfo>
												<colorinfo>
													<lut></lut>
													<lut1></lut1>
													<asc_sop></asc_sop>
													<asc_sat></asc_sat>
													<lut2></lut2>
												</colorinfo>
												<labels>
													<label2>Rose</label2>
												</labels>
											</clipitem>
											<enabled>TRUE</enabled>
											<locked>FALSE</locked>
										</track>
										<track TL.SQTrackShy="0" TL.SQTrackExpandedHeight="25" TL.SQTrackExpanded="0" MZ.TrackTargeted="0">
											<clipitem id="clipitem-243">
												<masterclipid>masterclip-106</masterclipid>
												<name>Bug and Lower Nest</name>
												<enabled>TRUE</enabled>
												<duration>14721</duration>
												<rate>
													<timebase>30</timebase>
													<ntsc>TRUE</ntsc>
												</rate>
												<start>0</start>
												<end>2454</end>
												<in>0</in>
												<out>2454</out>
												<pproTicksIn>0</pproTicksIn>
												<pproTicksOut>20799287308800</pproTicksOut>
												<sequence id="sequence-1"/>
												<labels>
													<label2>Cerulean</label2>
												</labels>
											</clipitem>
											<enabled>TRUE</enabled>
											<locked>FALSE</locked>
										</track>
									</video>
									<audio>
										<numOutputChannels>2</numOutputChannels>
										<format>
											<samplecharacteristics>
												<depth>16</depth>
												<samplerate>44100</samplerate>
											</samplecharacteristics>
										</format>
										<outputs>
											<group>
												<index>1</index>
												<numchannels>1</numchannels>
												<downmix>0</downmix>
												<channel>
													<index>1</index>
												</channel>
											</group>
											<group>
												<index>2</index>
												<numchannels>1</numchannels>
												<downmix>0</downmix>
												<channel>
													<index>2</index>
												</channel>
											</group>
										</outputs>
										<track TL.SQTrackAudioKeyframeStyle="0" TL.SQTrackShy="0" TL.SQTrackExpandedHeight="25" TL.SQTrackExpanded="0" MZ.TrackTargeted="1" PannerCurrentValue="0.5" PannerIsInverted="true" PannerStartKeyframe="-91445760000000000,0.5,0,0,0,0,0,0" PannerName="Balance" currentExplodedTrackIndex="0" totalExplodedTrackCount="2" premiereTrackType="Stereo">
											<transitionitem>
												<start>0</start>
												<end>30</end>
												<pproTicksIn>0</pproTicksIn>
												<pproTicksOut>254270016000</pproTicksOut>
												<alignment>start-black</alignment>
												<cutPointTicks>0</cutPointTicks>
												<rate>
													<timebase>30</timebase>
													<ntsc>TRUE</ntsc>
												</rate>
												<effect>
													<name>Cross Fade (+3dB)</name>
													<effectid>KGAudioTransCrossFade3dB</effectid>
													<effecttype>transition</effecttype>
													<mediatype>audio</mediatype>
													<wipecode>0</wipecode>
													<wipeaccuracy>100</wipeaccuracy>
													<startratio>0</startratio>
													<endratio>1</endratio>
													<reverse>FALSE</reverse>
												</effect>
											</transitionitem>
											<clipitem id="clipitem-244" premiereChannelType="stereo">
												<masterclipid>masterclip-18</masterclipid>
												<name>ES_Phantom Love - Giants' Nest.mp3</name>
												<enabled>TRUE</enabled>
												<duration>5773</duration>
												<rate>
													<timebase>30</timebase>
													<ntsc>TRUE</ntsc>
												</rate>
												<start>-1</start>
												<end>-1</end>
												<in>270</in>
												<out>2724</out>
												<pproTicksIn>2288430144000</pproTicksIn>
												<pproTicksOut>23087717452800</pproTicksOut>
												<file id="file-18"/>
												<sourcetrack>
													<mediatype>audio</mediatype>
													<trackindex>1</trackindex>
												</sourcetrack>
												<link>
													<linkclipref>clipitem-244</linkclipref>
													<mediatype>audio</mediatype>
													<trackindex>1</trackindex>
													<clipindex>2</clipindex>
													<groupindex>1</groupindex>
												</link>
												<link>
													<linkclipref>clipitem-245</linkclipref>
													<mediatype>audio</mediatype>
													<trackindex>2</trackindex>
													<clipindex>2</clipindex>
													<groupindex>1</groupindex>
												</link>
												<logginginfo>
													<description></description>
													<scene></scene>
													<shottake></shottake>
													<lognote></lognote>
													<good></good>
													<originalvideofilename></originalvideofilename>
													<originalaudiofilename></originalaudiofilename>
												</logginginfo>
												<colorinfo>
													<lut></lut>
													<lut1></lut1>
													<asc_sop></asc_sop>
													<asc_sat></asc_sat>
													<lut2></lut2>
												</colorinfo>
												<labels>
													<label2>Forest</label2>
												</labels>
											</clipitem>
											<transitionitem>
												<start>2364</start>
												<end>2454</end>
												<pproTicksIn>20036477260800</pproTicksIn>
												<pproTicksOut>20799287308800</pproTicksOut>
												<alignment>end-black</alignment>
												<cutPointTicks>762810048000</cutPointTicks>
												<rate>
													<timebase>30</timebase>
													<ntsc>TRUE</ntsc>
												</rate>
												<effect>
													<name>Cross Fade (+3dB)</name>
													<effectid>KGAudioTransCrossFade3dB</effectid>
													<effecttype>transition</effecttype>
													<mediatype>audio</mediatype>
													<wipecode>0</wipecode>
													<wipeaccuracy>100</wipeaccuracy>
													<startratio>0</startratio>
													<endratio>1</endratio>
													<reverse>FALSE</reverse>
												</effect>
											</transitionitem>
											<enabled>TRUE</enabled>
											<locked>FALSE</locked>
											<outputchannelindex>1</outputchannelindex>
										</track>
										<track TL.SQTrackAudioKeyframeStyle="0" TL.SQTrackShy="0" TL.SQTrackExpandedHeight="25" TL.SQTrackExpanded="0" MZ.TrackTargeted="1" PannerCurrentValue="0.5" PannerIsInverted="true" PannerStartKeyframe="-91445760000000000,0.5,0,0,0,0,0,0" PannerName="Balance" currentExplodedTrackIndex="1" totalExplodedTrackCount="2" premiereTrackType="Stereo">
											<transitionitem>
												<start>0</start>
												<end>30</end>
												<pproTicksIn>0</pproTicksIn>
												<pproTicksOut>254270016000</pproTicksOut>
												<alignment>start-black</alignment>
												<cutPointTicks>0</cutPointTicks>
												<rate>
													<timebase>30</timebase>
													<ntsc>TRUE</ntsc>
												</rate>
												<effect>
													<name>Cross Fade (+3dB)</name>
													<effectid>KGAudioTransCrossFade3dB</effectid>
													<effecttype>transition</effecttype>
													<mediatype>audio</mediatype>
													<wipecode>0</wipecode>
													<wipeaccuracy>100</wipeaccuracy>
													<startratio>0</startratio>
													<endratio>1</endratio>
													<reverse>FALSE</reverse>
												</effect>
											</transitionitem>
											<clipitem id="clipitem-245" premiereChannelType="stereo">
												<masterclipid>masterclip-18</masterclipid>
												<name>ES_Phantom Love - Giants' Nest.mp3</name>
												<enabled>TRUE</enabled>
												<duration>5773</duration>
												<rate>
													<timebase>30</timebase>
													<ntsc>TRUE</ntsc>
												</rate>
												<start>-1</start>
												<end>-1</end>
												<in>270</in>
												<out>2724</out>
												<pproTicksIn>2288430144000</pproTicksIn>
												<pproTicksOut>23087717452800</pproTicksOut>
												<file id="file-18"/>
												<sourcetrack>
													<mediatype>audio</mediatype>
													<trackindex>2</trackindex>
												</sourcetrack>
												<link>
													<linkclipref>clipitem-244</linkclipref>
													<mediatype>audio</mediatype>
													<trackindex>1</trackindex>
													<clipindex>2</clipindex>
													<groupindex>1</groupindex>
												</link>
												<link>
													<linkclipref>clipitem-245</linkclipref>
													<mediatype>audio</mediatype>
													<trackindex>2</trackindex>
													<clipindex>2</clipindex>
													<groupindex>1</groupindex>
												</link>
												<logginginfo>
													<description></description>
													<scene></scene>
													<shottake></shottake>
													<lognote></lognote>
													<good></good>
													<originalvideofilename></originalvideofilename>
													<originalaudiofilename></originalaudiofilename>
												</logginginfo>
												<colorinfo>
													<lut></lut>
													<lut1></lut1>
													<asc_sop></asc_sop>
													<asc_sat></asc_sat>
													<lut2></lut2>
												</colorinfo>
												<labels>
													<label2>Forest</label2>
												</labels>
											</clipitem>
											<transitionitem>
												<start>2364</start>
												<end>2454</end>
												<pproTicksIn>20036477260800</pproTicksIn>
												<pproTicksOut>20799287308800</pproTicksOut>
												<alignment>end-black</alignment>
												<cutPointTicks>762810048000</cutPointTicks>
												<rate>
													<timebase>30</timebase>
													<ntsc>TRUE</ntsc>
												</rate>
												<effect>
													<name>Cross Fade (+3dB)</name>
													<effectid>KGAudioTransCrossFade3dB</effectid>
													<effecttype>transition</effecttype>
													<mediatype>audio</mediatype>
													<wipecode>0</wipecode>
													<wipeaccuracy>100</wipeaccuracy>
													<startratio>0</startratio>
													<endratio>1</endratio>
													<reverse>FALSE</reverse>
												</effect>
											</transitionitem>
											<enabled>TRUE</enabled>
											<locked>FALSE</locked>
											<outputchannelindex>2</outputchannelindex>
										</track>
									</audio>
								</media>
								<timecode>
									<rate>
										<timebase>30</timebase>
										<ntsc>TRUE</ntsc>
									</rate>
									<string>00:00:00:00</string>
									<frame>0</frame>
									<displayformat>NDF</displayformat>
								</timecode>
								<labels>
									<label2>Forest</label2>
								</labels>
								<logginginfo>
									<description></description>
									<scene></scene>
									<shottake></shottake>
									<lognote></lognote>
									<good></good>
									<originalvideofilename></originalvideofilename>
									<originalaudiofilename></originalaudiofilename>
								</logginginfo>
							</sequence>
							<sequence id="sequence-34" TL.SQVisibleBaseTime="0" TL.SQTimePerPixel="0.13818516812528672" MZ.Sequence.PreviewFrameSizeHeight="1080" MZ.Sequence.PreviewFrameSizeWidth="1920" MZ.Sequence.AudioTimeDisplayFormat="200" MZ.Sequence.PreviewRenderingClassID="1297106761" MZ.Sequence.PreviewRenderingPresetCodec="1297107278" MZ.Sequence.PreviewRenderingPresetPath="EncoderPresets/SequencePreview/795454d9-d3c2-429d-9474-923ab13b7018/I-Frame Only MPEG.epr" MZ.Sequence.PreviewUseMaxRenderQuality="false" MZ.Sequence.PreviewUseMaxBitDepth="false" MZ.Sequence.EditingModeGUID="795454d9-d3c2-429d-9474-923ab13b7018" MZ.Sequence.VideoTimeDisplayFormat="103" MZ.WorkOutPoint="21562097356800" MZ.WorkInPoint="0" explodedTracks="true">
								<uuid>183eb31b-c2d4-449c-ae82-5cb8a069ee32</uuid>
								<duration>2544</duration>
								<rate>
									<timebase>30</timebase>
									<ntsc>TRUE</ntsc>
								</rate>
								<name>4trackingnest05</name>
								<media>
									<video>
										<format>
											<samplecharacteristics>
												<rate>
													<timebase>30</timebase>
													<ntsc>TRUE</ntsc>
												</rate>
												<codec>
													<name>Apple ProRes 422</name>
													<appspecificdata>
														<appname>Final Cut Pro</appname>
														<appmanufacturer>Apple Inc.</appmanufacturer>
														<appversion>7.0</appversion>
														<data>
															<qtcodec>
																<codecname>Apple ProRes 422</codecname>
																<codectypename>Apple ProRes 422</codectypename>
																<codectypecode>apcn</codectypecode>
																<codecvendorcode>appl</codecvendorcode>
																<spatialquality>1024</spatialquality>
																<temporalquality>0</temporalquality>
																<keyframerate>0</keyframerate>
																<datarate>0</datarate>
															</qtcodec>
														</data>
													</appspecificdata>
												</codec>
												<width>1920</width>
												<height>1080</height>
												<anamorphic>FALSE</anamorphic>
												<pixelaspectratio>square</pixelaspectratio>
												<fielddominance>none</fielddominance>
												<colordepth>24</colordepth>
											</samplecharacteristics>
										</format>
										<track TL.SQTrackExpandedHeight="25" TL.SQTrackExpanded="0" MZ.TrackTargeted="1">
											<clipitem id="clipitem-246">
												<masterclipid>masterclip-129</masterclipid>
												<name>1265 - SAT_noriakiichikawa_1m45s.mp4</name>
												<enabled>TRUE</enabled>
												<duration>2867</duration>
												<rate>
													<timebase>30</timebase>
													<ntsc>TRUE</ntsc>
												</rate>
												<start>0</start>
												<end>2544</end>
												<in>323</in>
												<out>2867</out>
												<pproTicksIn>2737640505600</pproTicksIn>
												<pproTicksOut>24299737862400</pproTicksOut>
												<alphatype>none</alphatype>
												<pixelaspectratio>square</pixelaspectratio>
												<anamorphic>FALSE</anamorphic>
												<file id="file-126">
													<name>1265 - SAT_noriakiichikawa_1m45s.mp4</name>
													<pathurl>file://localhost/Volumes/Satisfactum%20Satisfactorum/03_Weekly%20(Project%20Files,%20Main%20Segments)/OSTV/OSTV%2023-08-28/3_Raw%20Files/04-10/1265%20-%20SAT_noriakiichikawa_1m45s.mp4</pathurl>
													<rate>
														<timebase>30</timebase>
														<ntsc>TRUE</ntsc>
													</rate>
													<duration>2867</duration>
													<timecode>
														<rate>
															<timebase>30</timebase>
															<ntsc>TRUE</ntsc>
														</rate>
														<string>00:00:00:00</string>
														<frame>0</frame>
														<displayformat>NDF</displayformat>
													</timecode>
													<media>
														<video>
															<samplecharacteristics>
																<rate>
																	<timebase>30</timebase>
																	<ntsc>TRUE</ntsc>
																</rate>
																<width>1280</width>
																<height>720</height>
																<anamorphic>FALSE</anamorphic>
																<pixelaspectratio>square</pixelaspectratio>
																<fielddominance>none</fielddominance>
															</samplecharacteristics>
														</video>
														<audio>
															<samplecharacteristics>
																<depth>16</depth>
																<samplerate>32000</samplerate>
															</samplecharacteristics>
															<channelcount>2</channelcount>
														</audio>
													</media>
												</file>
												<filter>
													<effect>
														<name>Basic Motion</name>
														<effectid>basic</effectid>
														<effectcategory>motion</effectcategory>
														<effecttype>motion</effecttype>
														<mediatype>video</mediatype>
														<pproBypass>false</pproBypass>
														<parameter authoringApp="PremierePro">
															<parameterid>scale</parameterid>
															<name>Scale</name>
															<valuemin>0</valuemin>
															<valuemax>1000</valuemax>
															<value>150</value>
														</parameter>
														<parameter authoringApp="PremierePro">
															<parameterid>rotation</parameterid>
															<name>Rotation</name>
															<valuemin>-8640</valuemin>
															<valuemax>8640</valuemax>
															<value>0</value>
														</parameter>
														<parameter authoringApp="PremierePro">
															<parameterid>center</parameterid>
															<name>Center</name>
															<value>
																<horiz>0</horiz>
																<vert>0</vert>
															</value>
														</parameter>
														<parameter authoringApp="PremierePro">
															<parameterid>centerOffset</parameterid>
															<name>Anchor Point</name>
															<value>
																<horiz>0</horiz>
																<vert>0</vert>
															</value>
														</parameter>
														<parameter authoringApp="PremierePro">
															<parameterid>antiflicker</parameterid>
															<name>Anti-flicker Filter</name>
															<valuemin>0.0</valuemin>
															<valuemax>1.0</valuemax>
															<value>0</value>
														</parameter>
													</effect>
												</filter>
												<logginginfo>
													<description></description>
													<scene></scene>
													<shottake></shottake>
													<lognote></lognote>
													<good></good>
													<originalvideofilename></originalvideofilename>
													<originalaudiofilename></originalaudiofilename>
												</logginginfo>
												<colorinfo>
													<lut></lut>
													<lut1></lut1>
													<asc_sop></asc_sop>
													<asc_sat></asc_sat>
													<lut2></lut2>
												</colorinfo>
												<labels>
													<label2>Iris</label2>
												</labels>
											</clipitem>
											<enabled>TRUE</enabled>
											<locked>FALSE</locked>
										</track>
									</video>
									<audio>
										<numOutputChannels>2</numOutputChannels>
										<format>
											<samplecharacteristics>
												<depth>16</depth>
												<samplerate>44100</samplerate>
											</samplecharacteristics>
										</format>
										<outputs>
											<group>
												<index>1</index>
												<numchannels>1</numchannels>
												<downmix>0</downmix>
												<channel>
													<index>1</index>
												</channel>
											</group>
											<group>
												<index>2</index>
												<numchannels>1</numchannels>
												<downmix>0</downmix>
												<channel>
													<index>2</index>
												</channel>
											</group>
										</outputs>
										<track TL.SQTrackExpandedHeight="25" TL.SQTrackExpanded="0" MZ.TrackTargeted="1" PannerCurrentValue="0.5" PannerIsInverted="true" PannerStartKeyframe="-91445760000000000,0.5,0,0,0,0,0,0" PannerName="Balance" currentExplodedTrackIndex="0" totalExplodedTrackCount="2" premiereTrackType="Stereo">
											<enabled>TRUE</enabled>
											<locked>FALSE</locked>
											<outputchannelindex>1</outputchannelindex>
										</track>
										<track TL.SQTrackExpandedHeight="25" TL.SQTrackExpanded="0" MZ.TrackTargeted="1" PannerCurrentValue="0.5" PannerIsInverted="true" PannerStartKeyframe="-91445760000000000,0.5,0,0,0,0,0,0" PannerName="Balance" currentExplodedTrackIndex="1" totalExplodedTrackCount="2" premiereTrackType="Stereo">
											<enabled>TRUE</enabled>
											<locked>FALSE</locked>
											<outputchannelindex>2</outputchannelindex>
										</track>
									</audio>
								</media>
								<timecode>
									<rate>
										<timebase>30</timebase>
										<ntsc>TRUE</ntsc>
									</rate>
									<string>00:00:00:00</string>
									<frame>0</frame>
									<displayformat>NDF</displayformat>
								</timecode>
								<labels>
									<label2>Forest</label2>
								</labels>
								<logginginfo>
									<description></description>
									<scene></scene>
									<shottake></shottake>
									<lognote></lognote>
									<good></good>
									<originalvideofilename></originalvideofilename>
									<originalaudiofilename></originalaudiofilename>
								</logginginfo>
							</sequence>
							<sequence id="sequence-35" TL.SQVisibleBaseTime="0" TL.SQTimePerPixel="0.13818516812528672" MZ.Sequence.PreviewFrameSizeHeight="1080" MZ.Sequence.PreviewFrameSizeWidth="1920" MZ.Sequence.AudioTimeDisplayFormat="200" MZ.Sequence.PreviewRenderingClassID="1297106761" MZ.Sequence.PreviewRenderingPresetCodec="1297107278" MZ.Sequence.PreviewRenderingPresetPath="EncoderPresets/SequencePreview/795454d9-d3c2-429d-9474-923ab13b7018/I-Frame Only MPEG.epr" MZ.Sequence.PreviewUseMaxRenderQuality="false" MZ.Sequence.PreviewUseMaxBitDepth="false" MZ.Sequence.EditingModeGUID="795454d9-d3c2-429d-9474-923ab13b7018" MZ.Sequence.VideoTimeDisplayFormat="103" MZ.WorkOutPoint="21841794374400" MZ.WorkInPoint="0" explodedTracks="true">
								<uuid>da33c8f9-cad1-442d-b6fa-8ab0d97f09c3</uuid>
								<duration>2577</duration>
								<rate>
									<timebase>30</timebase>
									<ntsc>TRUE</ntsc>
								</rate>
								<name>4trackingnest06</name>
								<media>
									<video>
										<format>
											<samplecharacteristics>
												<rate>
													<timebase>30</timebase>
													<ntsc>TRUE</ntsc>
												</rate>
												<codec>
													<name>Apple ProRes 422</name>
													<appspecificdata>
														<appname>Final Cut Pro</appname>
														<appmanufacturer>Apple Inc.</appmanufacturer>
														<appversion>7.0</appversion>
														<data>
															<qtcodec>
																<codecname>Apple ProRes 422</codecname>
																<codectypename>Apple ProRes 422</codectypename>
																<codectypecode>apcn</codectypecode>
																<codecvendorcode>appl</codecvendorcode>
																<spatialquality>1024</spatialquality>
																<temporalquality>0</temporalquality>
																<keyframerate>0</keyframerate>
																<datarate>0</datarate>
															</qtcodec>
														</data>
													</appspecificdata>
												</codec>
												<width>1920</width>
												<height>1080</height>
												<anamorphic>FALSE</anamorphic>
												<pixelaspectratio>square</pixelaspectratio>
												<fielddominance>none</fielddominance>
												<colordepth>24</colordepth>
											</samplecharacteristics>
										</format>
										<track TL.SQTrackExpandedHeight="25" TL.SQTrackExpanded="0" MZ.TrackTargeted="1">
											<clipitem id="clipitem-247">
												<masterclipid>masterclip-130</masterclipid>
												<name>1265 - SAT_c3 laundry_1m30s.mp4</name>
												<enabled>TRUE</enabled>
												<duration>2649</duration>
												<rate>
													<timebase>30</timebase>
													<ntsc>TRUE</ntsc>
												</rate>
												<start>0</start>
												<end>2577</end>
												<in>72</in>
												<out>2649</out>
												<pproTicksIn>610248038400</pproTicksIn>
												<pproTicksOut>22452042412800</pproTicksOut>
												<alphatype>none</alphatype>
												<pixelaspectratio>square</pixelaspectratio>
												<anamorphic>FALSE</anamorphic>
												<file id="file-127">
													<name>1265 - SAT_c3 laundry_1m30s.mp4</name>
													<pathurl>file://localhost/Volumes/Satisfactum%20Satisfactorum/03_Weekly%20(Project%20Files,%20Main%20Segments)/OSTV/OSTV%2023-08-28/3_Raw%20Files/04-10/1265%20-%20SAT_c3%20laundry_1m30s.mp4</pathurl>
													<rate>
														<timebase>30</timebase>
														<ntsc>TRUE</ntsc>
													</rate>
													<duration>2649</duration>
													<timecode>
														<rate>
															<timebase>30</timebase>
															<ntsc>TRUE</ntsc>
														</rate>
														<string>00:00:00:00</string>
														<frame>0</frame>
														<displayformat>NDF</displayformat>
													</timecode>
													<media>
														<video>
															<samplecharacteristics>
																<rate>
																	<timebase>30</timebase>
																	<ntsc>TRUE</ntsc>
																</rate>
																<width>1280</width>
																<height>720</height>
																<anamorphic>FALSE</anamorphic>
																<pixelaspectratio>square</pixelaspectratio>
																<fielddominance>none</fielddominance>
															</samplecharacteristics>
														</video>
														<audio>
															<samplecharacteristics>
																<depth>16</depth>
																<samplerate>32000</samplerate>
															</samplecharacteristics>
															<channelcount>2</channelcount>
														</audio>
													</media>
												</file>
												<filter>
													<effect>
														<name>Basic Motion</name>
														<effectid>basic</effectid>
														<effectcategory>motion</effectcategory>
														<effecttype>motion</effecttype>
														<mediatype>video</mediatype>
														<pproBypass>false</pproBypass>
														<parameter authoringApp="PremierePro">
															<parameterid>scale</parameterid>
															<name>Scale</name>
															<valuemin>0</valuemin>
															<valuemax>1000</valuemax>
															<value>150</value>
														</parameter>
														<parameter authoringApp="PremierePro">
															<parameterid>rotation</parameterid>
															<name>Rotation</name>
															<valuemin>-8640</valuemin>
															<valuemax>8640</valuemax>
															<value>0</value>
														</parameter>
														<parameter authoringApp="PremierePro">
															<parameterid>center</parameterid>
															<name>Center</name>
															<value>
																<horiz>0</horiz>
																<vert>0</vert>
															</value>
														</parameter>
														<parameter authoringApp="PremierePro">
															<parameterid>centerOffset</parameterid>
															<name>Anchor Point</name>
															<value>
																<horiz>0</horiz>
																<vert>0</vert>
															</value>
														</parameter>
														<parameter authoringApp="PremierePro">
															<parameterid>antiflicker</parameterid>
															<name>Anti-flicker Filter</name>
															<valuemin>0.0</valuemin>
															<valuemax>1.0</valuemax>
															<value>0</value>
														</parameter>
													</effect>
												</filter>
												<logginginfo>
													<description></description>
													<scene></scene>
													<shottake></shottake>
													<lognote></lognote>
													<good></good>
													<originalvideofilename></originalvideofilename>
													<originalaudiofilename></originalaudiofilename>
												</logginginfo>
												<colorinfo>
													<lut></lut>
													<lut1></lut1>
													<asc_sop></asc_sop>
													<asc_sat></asc_sat>
													<lut2></lut2>
												</colorinfo>
												<labels>
													<label2>Iris</label2>
												</labels>
											</clipitem>
											<enabled>TRUE</enabled>
											<locked>FALSE</locked>
										</track>
									</video>
									<audio>
										<numOutputChannels>2</numOutputChannels>
										<format>
											<samplecharacteristics>
												<depth>16</depth>
												<samplerate>44100</samplerate>
											</samplecharacteristics>
										</format>
										<outputs>
											<group>
												<index>1</index>
												<numchannels>1</numchannels>
												<downmix>0</downmix>
												<channel>
													<index>1</index>
												</channel>
											</group>
											<group>
												<index>2</index>
												<numchannels>1</numchannels>
												<downmix>0</downmix>
												<channel>
													<index>2</index>
												</channel>
											</group>
										</outputs>
										<track TL.SQTrackExpandedHeight="25" TL.SQTrackExpanded="0" MZ.TrackTargeted="1" PannerCurrentValue="0.5" PannerIsInverted="true" PannerStartKeyframe="-91445760000000000,0.5,0,0,0,0,0,0" PannerName="Balance" currentExplodedTrackIndex="0" totalExplodedTrackCount="2" premiereTrackType="Stereo">
											<enabled>TRUE</enabled>
											<locked>FALSE</locked>
											<outputchannelindex>1</outputchannelindex>
										</track>
										<track TL.SQTrackExpandedHeight="25" TL.SQTrackExpanded="0" MZ.TrackTargeted="1" PannerCurrentValue="0.5" PannerIsInverted="true" PannerStartKeyframe="-91445760000000000,0.5,0,0,0,0,0,0" PannerName="Balance" currentExplodedTrackIndex="1" totalExplodedTrackCount="2" premiereTrackType="Stereo">
											<enabled>TRUE</enabled>
											<locked>FALSE</locked>
											<outputchannelindex>2</outputchannelindex>
										</track>
									</audio>
								</media>
								<timecode>
									<rate>
										<timebase>30</timebase>
										<ntsc>TRUE</ntsc>
									</rate>
									<string>00:00:00:00</string>
									<frame>0</frame>
									<displayformat>NDF</displayformat>
								</timecode>
								<labels>
									<label2>Forest</label2>
								</labels>
								<logginginfo>
									<description></description>
									<scene></scene>
									<shottake></shottake>
									<lognote></lognote>
									<good></good>
									<originalvideofilename></originalvideofilename>
									<originalaudiofilename></originalaudiofilename>
								</logginginfo>
							</sequence>
							<sequence id="sequence-36" TL.SQVisibleBaseTime="0" TL.SQTimePerPixel="0.13818516812528672" MZ.Sequence.PreviewFrameSizeHeight="1080" MZ.Sequence.PreviewFrameSizeWidth="1920" MZ.Sequence.AudioTimeDisplayFormat="200" MZ.Sequence.PreviewRenderingClassID="1297106761" MZ.Sequence.PreviewRenderingPresetCodec="1297107278" MZ.Sequence.PreviewRenderingPresetPath="EncoderPresets/SequencePreview/795454d9-d3c2-429d-9474-923ab13b7018/I-Frame Only MPEG.epr" MZ.Sequence.PreviewUseMaxRenderQuality="false" MZ.Sequence.PreviewUseMaxBitDepth="false" MZ.Sequence.EditingModeGUID="795454d9-d3c2-429d-9474-923ab13b7018" MZ.Sequence.VideoTimeDisplayFormat="103" MZ.WorkOutPoint="29003733158400" MZ.WorkInPoint="0" explodedTracks="true">
								<uuid>4f35b652-606f-452c-9360-7184417018c0</uuid>
								<duration>3422</duration>
								<rate>
									<timebase>30</timebase>
									<ntsc>TRUE</ntsc>
								</rate>
								<name>4trackingnest10</name>
								<media>
									<video>
										<format>
											<samplecharacteristics>
												<rate>
													<timebase>30</timebase>
													<ntsc>TRUE</ntsc>
												</rate>
												<codec>
													<name>Apple ProRes 422</name>
													<appspecificdata>
														<appname>Final Cut Pro</appname>
														<appmanufacturer>Apple Inc.</appmanufacturer>
														<appversion>7.0</appversion>
														<data>
															<qtcodec>
																<codecname>Apple ProRes 422</codecname>
																<codectypename>Apple ProRes 422</codectypename>
																<codectypecode>apcn</codectypecode>
																<codecvendorcode>appl</codecvendorcode>
																<spatialquality>1024</spatialquality>
																<temporalquality>0</temporalquality>
																<keyframerate>0</keyframerate>
																<datarate>0</datarate>
															</qtcodec>
														</data>
													</appspecificdata>
												</codec>
												<width>1920</width>
												<height>1080</height>
												<anamorphic>FALSE</anamorphic>
												<pixelaspectratio>square</pixelaspectratio>
												<fielddominance>none</fielddominance>
												<colordepth>24</colordepth>
											</samplecharacteristics>
										</format>
										<track TL.SQTrackExpandedHeight="25" TL.SQTrackExpanded="0" MZ.TrackTargeted="1">
											<clipitem id="clipitem-248">
												<masterclipid>masterclip-131</masterclipid>
												<name>1255 - SAT_obzorovna_1m55s.mp4</name>
												<enabled>TRUE</enabled>
												<duration>3422</duration>
												<rate>
													<timebase>30</timebase>
													<ntsc>TRUE</ntsc>
												</rate>
												<start>0</start>
												<end>3422</end>
												<in>0</in>
												<out>3422</out>
												<pproTicksIn>0</pproTicksIn>
												<pproTicksOut>29003733158400</pproTicksOut>
												<alphatype>none</alphatype>
												<pixelaspectratio>square</pixelaspectratio>
												<anamorphic>FALSE</anamorphic>
												<file id="file-128">
													<name>1255 - SAT_obzorovna_1m55s.mp4</name>
													<pathurl>file://localhost/Volumes/Satisfactum%20Satisfactorum/03_Weekly%20(Project%20Files,%20Main%20Segments)/OSTV/OSTV%2023-08-28/3_Raw%20Files/04-10/1255%20-%20SAT_obzorovna_1m55s.mp4</pathurl>
													<rate>
														<timebase>30</timebase>
														<ntsc>TRUE</ntsc>
													</rate>
													<duration>3422</duration>
													<timecode>
														<rate>
															<timebase>30</timebase>
															<ntsc>TRUE</ntsc>
														</rate>
														<string>00:00:00:00</string>
														<frame>0</frame>
														<displayformat>NDF</displayformat>
													</timecode>
													<media>
														<video>
															<samplecharacteristics>
																<rate>
																	<timebase>30</timebase>
																	<ntsc>TRUE</ntsc>
																</rate>
																<width>1280</width>
																<height>720</height>
																<anamorphic>FALSE</anamorphic>
																<pixelaspectratio>square</pixelaspectratio>
																<fielddominance>none</fielddominance>
															</samplecharacteristics>
														</video>
														<audio>
															<samplecharacteristics>
																<depth>16</depth>
																<samplerate>32000</samplerate>
															</samplecharacteristics>
															<channelcount>2</channelcount>
														</audio>
													</media>
												</file>
												<filter>
													<effect>
														<name>Basic Motion</name>
														<effectid>basic</effectid>
														<effectcategory>motion</effectcategory>
														<effecttype>motion</effecttype>
														<mediatype>video</mediatype>
														<pproBypass>false</pproBypass>
														<parameter authoringApp="PremierePro">
															<parameterid>scale</parameterid>
															<name>Scale</name>
															<valuemin>0</valuemin>
															<valuemax>1000</valuemax>
															<value>150</value>
														</parameter>
														<parameter authoringApp="PremierePro">
															<parameterid>rotation</parameterid>
															<name>Rotation</name>
															<valuemin>-8640</valuemin>
															<valuemax>8640</valuemax>
															<value>0</value>
														</parameter>
														<parameter authoringApp="PremierePro">
															<parameterid>center</parameterid>
															<name>Center</name>
															<value>
																<horiz>0</horiz>
																<vert>0</vert>
															</value>
														</parameter>
														<parameter authoringApp="PremierePro">
															<parameterid>centerOffset</parameterid>
															<name>Anchor Point</name>
															<value>
																<horiz>0</horiz>
																<vert>0</vert>
															</value>
														</parameter>
														<parameter authoringApp="PremierePro">
															<parameterid>antiflicker</parameterid>
															<name>Anti-flicker Filter</name>
															<valuemin>0.0</valuemin>
															<valuemax>1.0</valuemax>
															<value>0</value>
														</parameter>
													</effect>
												</filter>
												<logginginfo>
													<description></description>
													<scene></scene>
													<shottake></shottake>
													<lognote></lognote>
													<good></good>
													<originalvideofilename></originalvideofilename>
													<originalaudiofilename></originalaudiofilename>
												</logginginfo>
												<colorinfo>
													<lut></lut>
													<lut1></lut1>
													<asc_sop></asc_sop>
													<asc_sat></asc_sat>
													<lut2></lut2>
												</colorinfo>
												<labels>
													<label2>Iris</label2>
												</labels>
											</clipitem>
											<enabled>TRUE</enabled>
											<locked>FALSE</locked>
										</track>
									</video>
									<audio>
										<numOutputChannels>2</numOutputChannels>
										<format>
											<samplecharacteristics>
												<depth>16</depth>
												<samplerate>44100</samplerate>
											</samplecharacteristics>
										</format>
										<outputs>
											<group>
												<index>1</index>
												<numchannels>1</numchannels>
												<downmix>0</downmix>
												<channel>
													<index>1</index>
												</channel>
											</group>
											<group>
												<index>2</index>
												<numchannels>1</numchannels>
												<downmix>0</downmix>
												<channel>
													<index>2</index>
												</channel>
											</group>
										</outputs>
										<track TL.SQTrackExpandedHeight="25" TL.SQTrackExpanded="0" MZ.TrackTargeted="1" PannerCurrentValue="0.5" PannerIsInverted="true" PannerStartKeyframe="-91445760000000000,0.5,0,0,0,0,0,0" PannerName="Balance" currentExplodedTrackIndex="0" totalExplodedTrackCount="2" premiereTrackType="Stereo">
											<enabled>TRUE</enabled>
											<locked>FALSE</locked>
											<outputchannelindex>1</outputchannelindex>
										</track>
										<track TL.SQTrackExpandedHeight="25" TL.SQTrackExpanded="0" MZ.TrackTargeted="1" PannerCurrentValue="0.5" PannerIsInverted="true" PannerStartKeyframe="-91445760000000000,0.5,0,0,0,0,0,0" PannerName="Balance" currentExplodedTrackIndex="1" totalExplodedTrackCount="2" premiereTrackType="Stereo">
											<enabled>TRUE</enabled>
											<locked>FALSE</locked>
											<outputchannelindex>2</outputchannelindex>
										</track>
									</audio>
								</media>
								<timecode>
									<rate>
										<timebase>30</timebase>
										<ntsc>TRUE</ntsc>
									</rate>
									<string>00:00:00:00</string>
									<frame>0</frame>
									<displayformat>NDF</displayformat>
								</timecode>
								<labels>
									<label2>Forest</label2>
								</labels>
								<logginginfo>
									<description></description>
									<scene></scene>
									<shottake></shottake>
									<lognote></lognote>
									<good></good>
									<originalvideofilename></originalvideofilename>
									<originalaudiofilename></originalaudiofilename>
								</logginginfo>
							</sequence>
							<sequence id="sequence-37" TL.SQAudioVisibleBase="0" TL.SQVideoVisibleBase="0" TL.SQVisibleBaseTime="0" TL.SQAVDividerPosition="0.5" TL.SQHideShyTracks="0" TL.SQHeaderWidth="236" Monitor.ProgramZoomOut="16290232358400" Monitor.ProgramZoomIn="0" TL.SQTimePerPixel="0.13818516812528556" MZ.EditLine="0" MZ.Sequence.PreviewFrameSizeHeight="1080" MZ.Sequence.PreviewFrameSizeWidth="1920" MZ.Sequence.AudioTimeDisplayFormat="200" MZ.Sequence.PreviewRenderingClassID="1297106761" MZ.Sequence.PreviewRenderingPresetCodec="1297107278" MZ.Sequence.PreviewRenderingPresetPath="EncoderPresets/SequencePreview/795454d9-d3c2-429d-9474-923ab13b7018/I-Frame Only MPEG.epr" MZ.Sequence.PreviewUseMaxRenderQuality="false" MZ.Sequence.PreviewUseMaxBitDepth="false" MZ.Sequence.EditingModeGUID="795454d9-d3c2-429d-9474-923ab13b7018" MZ.Sequence.VideoTimeDisplayFormat="103" MZ.WorkOutPoint="16290232358400" MZ.WorkInPoint="0" explodedTracks="true">
								<uuid>46ff2b19-a79a-4c04-8759-4a89774d2462</uuid>
								<duration>1922</duration>
								<rate>
									<timebase>30</timebase>
									<ntsc>TRUE</ntsc>
								</rate>
								<name>1255nest</name>
								<media>
									<video>
										<format>
											<samplecharacteristics>
												<rate>
													<timebase>30</timebase>
													<ntsc>TRUE</ntsc>
												</rate>
												<codec>
													<name>Apple ProRes 422</name>
													<appspecificdata>
														<appname>Final Cut Pro</appname>
														<appmanufacturer>Apple Inc.</appmanufacturer>
														<appversion>7.0</appversion>
														<data>
															<qtcodec>
																<codecname>Apple ProRes 422</codecname>
																<codectypename>Apple ProRes 422</codectypename>
																<codectypecode>apcn</codectypecode>
																<codecvendorcode>appl</codecvendorcode>
																<spatialquality>1024</spatialquality>
																<temporalquality>0</temporalquality>
																<keyframerate>0</keyframerate>
																<datarate>0</datarate>
															</qtcodec>
														</data>
													</appspecificdata>
												</codec>
												<width>1920</width>
												<height>1080</height>
												<anamorphic>FALSE</anamorphic>
												<pixelaspectratio>square</pixelaspectratio>
												<fielddominance>none</fielddominance>
												<colordepth>24</colordepth>
											</samplecharacteristics>
										</format>
										<track TL.SQTrackShy="0" TL.SQTrackExpandedHeight="25" TL.SQTrackExpanded="0" MZ.TrackTargeted="1">
											<clipitem id="clipitem-249">
												<masterclipid>masterclip-132</masterclipid>
												<name>1255 - WCARD_shadows on the wall Chive unbranded_1m05s.mp4</name>
												<enabled>TRUE</enabled>
												<duration>1922</duration>
												<rate>
													<timebase>30</timebase>
													<ntsc>TRUE</ntsc>
												</rate>
												<start>0</start>
												<end>1922</end>
												<in>0</in>
												<out>1922</out>
												<pproTicksIn>0</pproTicksIn>
												<pproTicksOut>16290232358400</pproTicksOut>
												<alphatype>none</alphatype>
												<pixelaspectratio>square</pixelaspectratio>
												<anamorphic>FALSE</anamorphic>
												<file id="file-129">
													<name>1255 - WCARD_shadows on the wall Chive unbranded_1m05s.mp4</name>
													<pathurl>file://localhost/Volumes/Satisfactum%20Satisfactorum/03_Weekly%20(Project%20Files,%20Main%20Segments)/OSTV/OSTV%2023-08-28/3_Raw%20Files/04-10/1255%20-%20WCARD_shadows%20on%20the%20wall%20Chive%20unbranded_1m05s.mp4</pathurl>
													<rate>
														<timebase>30</timebase>
														<ntsc>TRUE</ntsc>
													</rate>
													<duration>1922</duration>
													<timecode>
														<rate>
															<timebase>30</timebase>
															<ntsc>TRUE</ntsc>
														</rate>
														<string>00:00:00:00</string>
														<frame>0</frame>
														<displayformat>NDF</displayformat>
													</timecode>
													<media>
														<video>
															<samplecharacteristics>
																<rate>
																	<timebase>30</timebase>
																	<ntsc>TRUE</ntsc>
																</rate>
																<width>1280</width>
																<height>720</height>
																<anamorphic>FALSE</anamorphic>
																<pixelaspectratio>square</pixelaspectratio>
																<fielddominance>none</fielddominance>
															</samplecharacteristics>
														</video>
														<audio>
															<samplecharacteristics>
																<depth>16</depth>
																<samplerate>32000</samplerate>
															</samplecharacteristics>
															<channelcount>2</channelcount>
														</audio>
													</media>
												</file>
												<filter>
													<effect>
														<name>Basic Motion</name>
														<effectid>basic</effectid>
														<effectcategory>motion</effectcategory>
														<effecttype>motion</effecttype>
														<mediatype>video</mediatype>
														<pproBypass>false</pproBypass>
														<parameter authoringApp="PremierePro">
															<parameterid>scale</parameterid>
															<name>Scale</name>
															<valuemin>0</valuemin>
															<valuemax>1000</valuemax>
															<value>150</value>
														</parameter>
														<parameter authoringApp="PremierePro">
															<parameterid>rotation</parameterid>
															<name>Rotation</name>
															<valuemin>-8640</valuemin>
															<valuemax>8640</valuemax>
															<value>0</value>
														</parameter>
														<parameter authoringApp="PremierePro">
															<parameterid>center</parameterid>
															<name>Center</name>
															<value>
																<horiz>0</horiz>
																<vert>0</vert>
															</value>
														</parameter>
														<parameter authoringApp="PremierePro">
															<parameterid>centerOffset</parameterid>
															<name>Anchor Point</name>
															<value>
																<horiz>0</horiz>
																<vert>0</vert>
															</value>
														</parameter>
														<parameter authoringApp="PremierePro">
															<parameterid>antiflicker</parameterid>
															<name>Anti-flicker Filter</name>
															<valuemin>0.0</valuemin>
															<valuemax>1.0</valuemax>
															<value>0</value>
														</parameter>
													</effect>
												</filter>
												<logginginfo>
													<description></description>
													<scene></scene>
													<shottake></shottake>
													<lognote></lognote>
													<good></good>
													<originalvideofilename></originalvideofilename>
													<originalaudiofilename></originalaudiofilename>
												</logginginfo>
												<colorinfo>
													<lut></lut>
													<lut1></lut1>
													<asc_sop></asc_sop>
													<asc_sat></asc_sat>
													<lut2></lut2>
												</colorinfo>
												<labels>
													<label2>Iris</label2>
												</labels>
											</clipitem>
											<enabled>TRUE</enabled>
											<locked>FALSE</locked>
										</track>
										<track TL.SQTrackShy="0" TL.SQTrackExpandedHeight="25" TL.SQTrackExpanded="0" MZ.TrackTargeted="0">
											<clipitem id="clipitem-250">
												<masterclipid>masterclip-122</masterclipid>
												<name>Adjustment Layer</name>
												<enabled>TRUE</enabled>
												<duration>1294705</duration>
												<rate>
													<timebase>30</timebase>
													<ntsc>TRUE</ntsc>
												</rate>
												<start>0</start>
												<end>1922</end>
												<in>111314</in>
												<out>113236</out>
												<pproTicksIn>943460418700800</pproTicksIn>
												<pproTicksOut>959750651059200</pproTicksOut>
												<alphatype>none</alphatype>
												<file id="file-121"/>
												<filter>
													<effect>
														<name>Basic Motion</name>
														<effectid>basic</effectid>
														<effectcategory>motion</effectcategory>
														<effecttype>motion</effecttype>
														<mediatype>video</mediatype>
														<pproBypass>false</pproBypass>
														<parameter authoringApp="PremierePro">
															<parameterid>scale</parameterid>
															<name>Scale</name>
															<valuemin>0</valuemin>
															<valuemax>1000</valuemax>
															<value>150</value>
														</parameter>
														<parameter authoringApp="PremierePro">
															<parameterid>rotation</parameterid>
															<name>Rotation</name>
															<valuemin>-8640</valuemin>
															<valuemax>8640</valuemax>
															<value>0</value>
														</parameter>
														<parameter authoringApp="PremierePro">
															<parameterid>center</parameterid>
															<name>Center</name>
															<value>
																<horiz>0</horiz>
																<vert>0</vert>
															</value>
														</parameter>
														<parameter authoringApp="PremierePro">
															<parameterid>centerOffset</parameterid>
															<name>Anchor Point</name>
															<value>
																<horiz>0</horiz>
																<vert>0</vert>
															</value>
														</parameter>
														<parameter authoringApp="PremierePro">
															<parameterid>antiflicker</parameterid>
															<name>Anti-flicker Filter</name>
															<valuemin>0.0</valuemin>
															<valuemax>1.0</valuemax>
															<value>0</value>
														</parameter>
													</effect>
												</filter>
												<filter>
													<effect>
														<name>Gaussian Blur</name>
														<effectid>Gaussian Blur</effectid>
														<effectcategory>Blur</effectcategory>
														<effecttype>motion</effecttype>
														<mediatype>video</mediatype>
														<pproBypass>false</pproBypass>
														<parameter authoringApp="PremierePro">
															<parameterid>radius</parameterid>
															<name>Radius</name>
															<valuemin>0</valuemin>
															<valuemax>100</valuemax>
															<value>57</value>
														</parameter>
													</effect>
												</filter>
												<logginginfo>
													<description></description>
													<scene></scene>
													<shottake></shottake>
													<lognote></lognote>
													<good></good>
													<originalvideofilename></originalvideofilename>
													<originalaudiofilename></originalaudiofilename>
												</logginginfo>
												<colorinfo>
													<lut></lut>
													<lut1></lut1>
													<asc_sop></asc_sop>
													<asc_sat></asc_sat>
													<lut2></lut2>
												</colorinfo>
												<labels>
													<label2>Lavender</label2>
												</labels>
											</clipitem>
											<enabled>TRUE</enabled>
											<locked>FALSE</locked>
										</track>
										<track TL.SQTrackShy="0" TL.SQTrackExpandedHeight="25" TL.SQTrackExpanded="0" MZ.TrackTargeted="0">
											<clipitem id="clipitem-251">
												<masterclipid>masterclip-63</masterclipid>
												<name>@boomshadowace</name>
												<enabled>TRUE</enabled>
												<duration>5844</duration>
												<rate>
													<timebase>30</timebase>
													<ntsc>TRUE</ntsc>
												</rate>
												<start>0</start>
												<end>1922</end>
												<in>0</in>
												<out>1922</out>
												<pproTicksIn>0</pproTicksIn>
												<pproTicksOut>16290232358400</pproTicksOut>
												<alphatype>straight</alphatype>
												<file id="file-63"/>
												<filter>
													<effect>
														<name>Basic Motion</name>
														<effectid>basic</effectid>
														<effectcategory>motion</effectcategory>
														<effecttype>motion</effecttype>
														<mediatype>video</mediatype>
														<pproBypass>false</pproBypass>
														<parameter authoringApp="PremierePro">
															<parameterid>scale</parameterid>
															<name>Scale</name>
															<valuemin>0</valuemin>
															<valuemax>1000</valuemax>
															<value>150</value>
														</parameter>
														<parameter authoringApp="PremierePro">
															<parameterid>rotation</parameterid>
															<name>Rotation</name>
															<valuemin>-8640</valuemin>
															<valuemax>8640</valuemax>
															<value>0</value>
														</parameter>
														<parameter authoringApp="PremierePro">
															<parameterid>center</parameterid>
															<name>Center</name>
															<value>
																<horiz>0</horiz>
																<vert>0</vert>
															</value>
														</parameter>
														<parameter authoringApp="PremierePro">
															<parameterid>centerOffset</parameterid>
															<name>Anchor Point</name>
															<value>
																<horiz>0</horiz>
																<vert>0</vert>
															</value>
														</parameter>
														<parameter authoringApp="PremierePro">
															<parameterid>antiflicker</parameterid>
															<name>Anti-flicker Filter</name>
															<valuemin>0.0</valuemin>
															<valuemax>1.0</valuemax>
															<value>0</value>
														</parameter>
													</effect>
												</filter>
												<logginginfo>
													<description></description>
													<scene></scene>
													<shottake></shottake>
													<lognote></lognote>
													<good></good>
													<originalvideofilename></originalvideofilename>
													<originalaudiofilename></originalaudiofilename>
												</logginginfo>
												<colorinfo>
													<lut></lut>
													<lut1></lut1>
													<asc_sop></asc_sop>
													<asc_sat></asc_sat>
													<lut2></lut2>
												</colorinfo>
												<labels>
													<label2>Rose</label2>
												</labels>
											</clipitem>
											<enabled>TRUE</enabled>
											<locked>FALSE</locked>
										</track>
										<track TL.SQTrackShy="0" TL.SQTrackExpandedHeight="25" TL.SQTrackExpanded="0" MZ.TrackTargeted="0">
											<clipitem id="clipitem-252">
												<masterclipid>masterclip-106</masterclipid>
												<name>Bug and Lower Nest</name>
												<enabled>TRUE</enabled>
												<duration>14721</duration>
												<rate>
													<timebase>30</timebase>
													<ntsc>TRUE</ntsc>
												</rate>
												<start>0</start>
												<end>1922</end>
												<in>0</in>
												<out>1922</out>
												<pproTicksIn>0</pproTicksIn>
												<pproTicksOut>16290232358400</pproTicksOut>
												<sequence id="sequence-1"/>
												<labels>
													<label2>Cerulean</label2>
												</labels>
											</clipitem>
											<enabled>TRUE</enabled>
											<locked>FALSE</locked>
										</track>
									</video>
									<audio>
										<numOutputChannels>2</numOutputChannels>
										<format>
											<samplecharacteristics>
												<depth>16</depth>
												<samplerate>44100</samplerate>
											</samplecharacteristics>
										</format>
										<outputs>
											<group>
												<index>1</index>
												<numchannels>1</numchannels>
												<downmix>0</downmix>
												<channel>
													<index>1</index>
												</channel>
											</group>
											<group>
												<index>2</index>
												<numchannels>1</numchannels>
												<downmix>0</downmix>
												<channel>
													<index>2</index>
												</channel>
											</group>
										</outputs>
										<track TL.SQTrackAudioKeyframeStyle="0" TL.SQTrackShy="0" TL.SQTrackExpandedHeight="25" TL.SQTrackExpanded="0" MZ.TrackTargeted="1" PannerCurrentValue="0.5" PannerIsInverted="true" PannerStartKeyframe="-91445760000000000,0.5,0,0,0,0,0,0" PannerName="Balance" currentExplodedTrackIndex="0" totalExplodedTrackCount="2" premiereTrackType="Stereo">
											<transitionitem>
												<start>0</start>
												<end>30</end>
												<pproTicksIn>0</pproTicksIn>
												<pproTicksOut>254270016000</pproTicksOut>
												<alignment>start-black</alignment>
												<cutPointTicks>0</cutPointTicks>
												<rate>
													<timebase>30</timebase>
													<ntsc>TRUE</ntsc>
												</rate>
												<effect>
													<name>Cross Fade (+3dB)</name>
													<effectid>KGAudioTransCrossFade3dB</effectid>
													<effecttype>transition</effecttype>
													<mediatype>audio</mediatype>
													<wipecode>0</wipecode>
													<wipeaccuracy>100</wipeaccuracy>
													<startratio>0</startratio>
													<endratio>1</endratio>
													<reverse>FALSE</reverse>
												</effect>
											</transitionitem>
											<clipitem id="clipitem-253" premiereChannelType="stereo">
												<masterclipid>masterclip-22</masterclipid>
												<name>ES_Smooth Machine - Daniel Fridell.mp3</name>
												<enabled>TRUE</enabled>
												<duration>7517</duration>
												<rate>
													<timebase>30</timebase>
													<ntsc>TRUE</ntsc>
												</rate>
												<start>-1</start>
												<end>-1</end>
												<in>2026</in>
												<out>3948</out>
												<pproTicksIn>17171701747200</pproTicksIn>
												<pproTicksOut>33461934105600</pproTicksOut>
												<file id="file-22"/>
												<sourcetrack>
													<mediatype>audio</mediatype>
													<trackindex>1</trackindex>
												</sourcetrack>
												<link>
													<linkclipref>clipitem-253</linkclipref>
													<mediatype>audio</mediatype>
													<trackindex>1</trackindex>
													<clipindex>2</clipindex>
													<groupindex>1</groupindex>
												</link>
												<link>
													<linkclipref>clipitem-254</linkclipref>
													<mediatype>audio</mediatype>
													<trackindex>2</trackindex>
													<clipindex>2</clipindex>
													<groupindex>1</groupindex>
												</link>
												<logginginfo>
													<description></description>
													<scene></scene>
													<shottake></shottake>
													<lognote></lognote>
													<good></good>
													<originalvideofilename></originalvideofilename>
													<originalaudiofilename></originalaudiofilename>
												</logginginfo>
												<colorinfo>
													<lut></lut>
													<lut1></lut1>
													<asc_sop></asc_sop>
													<asc_sat></asc_sat>
													<lut2></lut2>
												</colorinfo>
												<labels>
													<label2>Caribbean</label2>
												</labels>
											</clipitem>
											<transitionitem>
												<start>1832</start>
												<end>1922</end>
												<pproTicksIn>15527422310400</pproTicksIn>
												<pproTicksOut>16290232358400</pproTicksOut>
												<alignment>end-black</alignment>
												<cutPointTicks>762810048000</cutPointTicks>
												<rate>
													<timebase>30</timebase>
													<ntsc>TRUE</ntsc>
												</rate>
												<effect>
													<name>Cross Fade (+3dB)</name>
													<effectid>KGAudioTransCrossFade3dB</effectid>
													<effecttype>transition</effecttype>
													<mediatype>audio</mediatype>
													<wipecode>0</wipecode>
													<wipeaccuracy>100</wipeaccuracy>
													<startratio>0</startratio>
													<endratio>1</endratio>
													<reverse>FALSE</reverse>
												</effect>
											</transitionitem>
											<enabled>TRUE</enabled>
											<locked>FALSE</locked>
											<outputchannelindex>1</outputchannelindex>
										</track>
										<track TL.SQTrackAudioKeyframeStyle="0" TL.SQTrackShy="0" TL.SQTrackExpandedHeight="25" TL.SQTrackExpanded="0" MZ.TrackTargeted="1" PannerCurrentValue="0.5" PannerIsInverted="true" PannerStartKeyframe="-91445760000000000,0.5,0,0,0,0,0,0" PannerName="Balance" currentExplodedTrackIndex="1" totalExplodedTrackCount="2" premiereTrackType="Stereo">
											<transitionitem>
												<start>0</start>
												<end>30</end>
												<pproTicksIn>0</pproTicksIn>
												<pproTicksOut>254270016000</pproTicksOut>
												<alignment>start-black</alignment>
												<cutPointTicks>0</cutPointTicks>
												<rate>
													<timebase>30</timebase>
													<ntsc>TRUE</ntsc>
												</rate>
												<effect>
													<name>Cross Fade (+3dB)</name>
													<effectid>KGAudioTransCrossFade3dB</effectid>
													<effecttype>transition</effecttype>
													<mediatype>audio</mediatype>
													<wipecode>0</wipecode>
													<wipeaccuracy>100</wipeaccuracy>
													<startratio>0</startratio>
													<endratio>1</endratio>
													<reverse>FALSE</reverse>
												</effect>
											</transitionitem>
											<clipitem id="clipitem-254" premiereChannelType="stereo">
												<masterclipid>masterclip-22</masterclipid>
												<name>ES_Smooth Machine - Daniel Fridell.mp3</name>
												<enabled>TRUE</enabled>
												<duration>7517</duration>
												<rate>
													<timebase>30</timebase>
													<ntsc>TRUE</ntsc>
												</rate>
												<start>-1</start>
												<end>-1</end>
												<in>2026</in>
												<out>3948</out>
												<pproTicksIn>17171701747200</pproTicksIn>
												<pproTicksOut>33461934105600</pproTicksOut>
												<file id="file-22"/>
												<sourcetrack>
													<mediatype>audio</mediatype>
													<trackindex>2</trackindex>
												</sourcetrack>
												<link>
													<linkclipref>clipitem-253</linkclipref>
													<mediatype>audio</mediatype>
													<trackindex>1</trackindex>
													<clipindex>2</clipindex>
													<groupindex>1</groupindex>
												</link>
												<link>
													<linkclipref>clipitem-254</linkclipref>
													<mediatype>audio</mediatype>
													<trackindex>2</trackindex>
													<clipindex>2</clipindex>
													<groupindex>1</groupindex>
												</link>
												<logginginfo>
													<description></description>
													<scene></scene>
													<shottake></shottake>
													<lognote></lognote>
													<good></good>
													<originalvideofilename></originalvideofilename>
													<originalaudiofilename></originalaudiofilename>
												</logginginfo>
												<colorinfo>
													<lut></lut>
													<lut1></lut1>
													<asc_sop></asc_sop>
													<asc_sat></asc_sat>
													<lut2></lut2>
												</colorinfo>
												<labels>
													<label2>Caribbean</label2>
												</labels>
											</clipitem>
											<transitionitem>
												<start>1832</start>
												<end>1922</end>
												<pproTicksIn>15527422310400</pproTicksIn>
												<pproTicksOut>16290232358400</pproTicksOut>
												<alignment>end-black</alignment>
												<cutPointTicks>762810048000</cutPointTicks>
												<rate>
													<timebase>30</timebase>
													<ntsc>TRUE</ntsc>
												</rate>
												<effect>
													<name>Cross Fade (+3dB)</name>
													<effectid>KGAudioTransCrossFade3dB</effectid>
													<effecttype>transition</effecttype>
													<mediatype>audio</mediatype>
													<wipecode>0</wipecode>
													<wipeaccuracy>100</wipeaccuracy>
													<startratio>0</startratio>
													<endratio>1</endratio>
													<reverse>FALSE</reverse>
												</effect>
											</transitionitem>
											<enabled>TRUE</enabled>
											<locked>FALSE</locked>
											<outputchannelindex>2</outputchannelindex>
										</track>
									</audio>
								</media>
								<timecode>
									<rate>
										<timebase>30</timebase>
										<ntsc>TRUE</ntsc>
									</rate>
									<string>00:00:00:00</string>
									<frame>0</frame>
									<displayformat>NDF</displayformat>
								</timecode>
								<labels>
									<label2>Forest</label2>
								</labels>
								<logginginfo>
									<description></description>
									<scene></scene>
									<shottake></shottake>
									<lognote></lognote>
									<good></good>
									<originalvideofilename></originalvideofilename>
									<originalaudiofilename></originalaudiofilename>
								</logginginfo>
							</sequence>
							<sequence id="sequence-38" TL.SQVisibleBaseTime="0" TL.SQTimePerPixel="0.13818516812528672" MZ.Sequence.PreviewFrameSizeHeight="1080" MZ.Sequence.PreviewFrameSizeWidth="1920" MZ.Sequence.AudioTimeDisplayFormat="200" MZ.Sequence.PreviewRenderingClassID="1297106761" MZ.Sequence.PreviewRenderingPresetCodec="1297107278" MZ.Sequence.PreviewRenderingPresetPath="EncoderPresets/SequencePreview/795454d9-d3c2-429d-9474-923ab13b7018/I-Frame Only MPEG.epr" MZ.Sequence.PreviewUseMaxRenderQuality="false" MZ.Sequence.PreviewUseMaxBitDepth="false" MZ.Sequence.EditingModeGUID="795454d9-d3c2-429d-9474-923ab13b7018" MZ.Sequence.VideoTimeDisplayFormat="103" MZ.WorkOutPoint="19002445862400" MZ.WorkInPoint="0" explodedTracks="true">
								<uuid>4bf1ac31-fa3d-4050-92ee-0bd068c7bf75</uuid>
								<duration>2242</duration>
								<rate>
									<timebase>30</timebase>
									<ntsc>TRUE</ntsc>
								</rate>
								<name>4trackingnest11</name>
								<media>
									<video>
										<format>
											<samplecharacteristics>
												<rate>
													<timebase>30</timebase>
													<ntsc>TRUE</ntsc>
												</rate>
												<codec>
													<name>Apple ProRes 422</name>
													<appspecificdata>
														<appname>Final Cut Pro</appname>
														<appmanufacturer>Apple Inc.</appmanufacturer>
														<appversion>7.0</appversion>
														<data>
															<qtcodec>
																<codecname>Apple ProRes 422</codecname>
																<codectypename>Apple ProRes 422</codectypename>
																<codectypecode>apcn</codectypecode>
																<codecvendorcode>appl</codecvendorcode>
																<spatialquality>1024</spatialquality>
																<temporalquality>0</temporalquality>
																<keyframerate>0</keyframerate>
																<datarate>0</datarate>
															</qtcodec>
														</data>
													</appspecificdata>
												</codec>
												<width>1920</width>
												<height>1080</height>
												<anamorphic>FALSE</anamorphic>
												<pixelaspectratio>square</pixelaspectratio>
												<fielddominance>none</fielddominance>
												<colordepth>24</colordepth>
											</samplecharacteristics>
										</format>
										<track TL.SQTrackExpandedHeight="25" TL.SQTrackExpanded="0" MZ.TrackTargeted="1">
											<clipitem id="clipitem-255">
												<masterclipid>masterclip-133</masterclipid>
												<name>1274 - SAT_crazy russian experiements_1m35s.mp4</name>
												<enabled>TRUE</enabled>
												<duration>2242</duration>
												<rate>
													<timebase>30</timebase>
													<ntsc>TRUE</ntsc>
												</rate>
												<start>0</start>
												<end>2242</end>
												<in>0</in>
												<out>2242</out>
												<pproTicksIn>0</pproTicksIn>
												<pproTicksOut>19002445862400</pproTicksOut>
												<alphatype>none</alphatype>
												<pixelaspectratio>square</pixelaspectratio>
												<anamorphic>FALSE</anamorphic>
												<file id="file-130">
													<name>1274 - SAT_crazy russian experiements_1m35s.mp4</name>
													<pathurl>file://localhost/Volumes/Satisfactum%20Satisfactorum/03_Weekly%20(Project%20Files,%20Main%20Segments)/OSTV/OSTV%2023-08-28/3_Raw%20Files/04-17/1274%20-%20SAT_crazy%20russian%20experiements_1m35s.mp4</pathurl>
													<rate>
														<timebase>30</timebase>
														<ntsc>TRUE</ntsc>
													</rate>
													<duration>2242</duration>
													<timecode>
														<rate>
															<timebase>30</timebase>
															<ntsc>TRUE</ntsc>
														</rate>
														<string>00:00:00:00</string>
														<frame>0</frame>
														<displayformat>NDF</displayformat>
													</timecode>
													<media>
														<video>
															<samplecharacteristics>
																<rate>
																	<timebase>30</timebase>
																	<ntsc>TRUE</ntsc>
																</rate>
																<width>1280</width>
																<height>720</height>
																<anamorphic>FALSE</anamorphic>
																<pixelaspectratio>square</pixelaspectratio>
																<fielddominance>none</fielddominance>
															</samplecharacteristics>
														</video>
														<audio>
															<samplecharacteristics>
																<depth>16</depth>
																<samplerate>32000</samplerate>
															</samplecharacteristics>
															<channelcount>2</channelcount>
														</audio>
													</media>
												</file>
												<filter>
													<effect>
														<name>Basic Motion</name>
														<effectid>basic</effectid>
														<effectcategory>motion</effectcategory>
														<effecttype>motion</effecttype>
														<mediatype>video</mediatype>
														<pproBypass>false</pproBypass>
														<parameter authoringApp="PremierePro">
															<parameterid>scale</parameterid>
															<name>Scale</name>
															<valuemin>0</valuemin>
															<valuemax>1000</valuemax>
															<value>150</value>
														</parameter>
														<parameter authoringApp="PremierePro">
															<parameterid>rotation</parameterid>
															<name>Rotation</name>
															<valuemin>-8640</valuemin>
															<valuemax>8640</valuemax>
															<value>0</value>
														</parameter>
														<parameter authoringApp="PremierePro">
															<parameterid>center</parameterid>
															<name>Center</name>
															<value>
																<horiz>0</horiz>
																<vert>0</vert>
															</value>
														</parameter>
														<parameter authoringApp="PremierePro">
															<parameterid>centerOffset</parameterid>
															<name>Anchor Point</name>
															<value>
																<horiz>0</horiz>
																<vert>0</vert>
															</value>
														</parameter>
														<parameter authoringApp="PremierePro">
															<parameterid>antiflicker</parameterid>
															<name>Anti-flicker Filter</name>
															<valuemin>0.0</valuemin>
															<valuemax>1.0</valuemax>
															<value>0</value>
														</parameter>
													</effect>
												</filter>
												<logginginfo>
													<description></description>
													<scene></scene>
													<shottake></shottake>
													<lognote></lognote>
													<good></good>
													<originalvideofilename></originalvideofilename>
													<originalaudiofilename></originalaudiofilename>
												</logginginfo>
												<colorinfo>
													<lut></lut>
													<lut1></lut1>
													<asc_sop></asc_sop>
													<asc_sat></asc_sat>
													<lut2></lut2>
												</colorinfo>
												<labels>
													<label2>Iris</label2>
												</labels>
											</clipitem>
											<enabled>TRUE</enabled>
											<locked>FALSE</locked>
										</track>
									</video>
									<audio>
										<numOutputChannels>2</numOutputChannels>
										<format>
											<samplecharacteristics>
												<depth>16</depth>
												<samplerate>44100</samplerate>
											</samplecharacteristics>
										</format>
										<outputs>
											<group>
												<index>1</index>
												<numchannels>1</numchannels>
												<downmix>0</downmix>
												<channel>
													<index>1</index>
												</channel>
											</group>
											<group>
												<index>2</index>
												<numchannels>1</numchannels>
												<downmix>0</downmix>
												<channel>
													<index>2</index>
												</channel>
											</group>
										</outputs>
										<track TL.SQTrackExpandedHeight="25" TL.SQTrackExpanded="0" MZ.TrackTargeted="1" PannerCurrentValue="0.5" PannerIsInverted="true" PannerStartKeyframe="-91445760000000000,0.5,0,0,0,0,0,0" PannerName="Balance" currentExplodedTrackIndex="0" totalExplodedTrackCount="2" premiereTrackType="Stereo">
											<enabled>TRUE</enabled>
											<locked>FALSE</locked>
											<outputchannelindex>1</outputchannelindex>
										</track>
										<track TL.SQTrackExpandedHeight="25" TL.SQTrackExpanded="0" MZ.TrackTargeted="1" PannerCurrentValue="0.5" PannerIsInverted="true" PannerStartKeyframe="-91445760000000000,0.5,0,0,0,0,0,0" PannerName="Balance" currentExplodedTrackIndex="1" totalExplodedTrackCount="2" premiereTrackType="Stereo">
											<enabled>TRUE</enabled>
											<locked>FALSE</locked>
											<outputchannelindex>2</outputchannelindex>
										</track>
									</audio>
								</media>
								<timecode>
									<rate>
										<timebase>30</timebase>
										<ntsc>TRUE</ntsc>
									</rate>
									<string>00:00:00:00</string>
									<frame>0</frame>
									<displayformat>NDF</displayformat>
								</timecode>
								<labels>
									<label2>Forest</label2>
								</labels>
								<logginginfo>
									<description></description>
									<scene></scene>
									<shottake></shottake>
									<lognote></lognote>
									<good></good>
									<originalvideofilename></originalvideofilename>
									<originalaudiofilename></originalaudiofilename>
								</logginginfo>
							</sequence>
							<sequence id="sequence-39" TL.SQVisibleBaseTime="0" TL.SQTimePerPixel="0.13818516812528764" MZ.Sequence.PreviewFrameSizeHeight="1080" MZ.Sequence.PreviewFrameSizeWidth="1920" MZ.Sequence.AudioTimeDisplayFormat="200" MZ.Sequence.PreviewRenderingClassID="1297106761" MZ.Sequence.PreviewRenderingPresetCodec="1297107278" MZ.Sequence.PreviewRenderingPresetPath="EncoderPresets/SequencePreview/795454d9-d3c2-429d-9474-923ab13b7018/I-Frame Only MPEG.epr" MZ.Sequence.PreviewUseMaxRenderQuality="false" MZ.Sequence.PreviewUseMaxBitDepth="false" MZ.Sequence.EditingModeGUID="795454d9-d3c2-429d-9474-923ab13b7018" MZ.Sequence.VideoTimeDisplayFormat="103" MZ.WorkOutPoint="25249012588800" MZ.WorkInPoint="0" explodedTracks="true">
								<uuid>9ed090ad-dbaf-4a7e-9e23-e1eddfe6438c</uuid>
								<duration>2979</duration>
								<rate>
									<timebase>30</timebase>
									<ntsc>TRUE</ntsc>
								</rate>
								<name>1274nest</name>
								<media>
									<video>
										<format>
											<samplecharacteristics>
												<rate>
													<timebase>30</timebase>
													<ntsc>TRUE</ntsc>
												</rate>
												<codec>
													<name>Apple ProRes 422</name>
													<appspecificdata>
														<appname>Final Cut Pro</appname>
														<appmanufacturer>Apple Inc.</appmanufacturer>
														<appversion>7.0</appversion>
														<data>
															<qtcodec>
																<codecname>Apple ProRes 422</codecname>
																<codectypename>Apple ProRes 422</codectypename>
																<codectypecode>apcn</codectypecode>
																<codecvendorcode>appl</codecvendorcode>
																<spatialquality>1024</spatialquality>
																<temporalquality>0</temporalquality>
																<keyframerate>0</keyframerate>
																<datarate>0</datarate>
															</qtcodec>
														</data>
													</appspecificdata>
												</codec>
												<width>1920</width>
												<height>1080</height>
												<anamorphic>FALSE</anamorphic>
												<pixelaspectratio>square</pixelaspectratio>
												<fielddominance>none</fielddominance>
												<colordepth>24</colordepth>
											</samplecharacteristics>
										</format>
										<track TL.SQTrackExpandedHeight="25" TL.SQTrackExpanded="0" MZ.TrackTargeted="1">
											<clipitem id="clipitem-256">
												<masterclipid>masterclip-134</masterclipid>
												<name>1274 - DIY_Hanabira_1m40s.mp4</name>
												<enabled>TRUE</enabled>
												<duration>2979</duration>
												<rate>
													<timebase>30</timebase>
													<ntsc>TRUE</ntsc>
												</rate>
												<start>0</start>
												<end>2979</end>
												<in>0</in>
												<out>2979</out>
												<pproTicksIn>0</pproTicksIn>
												<pproTicksOut>25249012588800</pproTicksOut>
												<alphatype>none</alphatype>
												<pixelaspectratio>square</pixelaspectratio>
												<anamorphic>FALSE</anamorphic>
												<file id="file-131">
													<name>1274 - DIY_Hanabira_1m40s.mp4</name>
													<pathurl>file://localhost/Volumes/Satisfactum%20Satisfactorum/03_Weekly%20(Project%20Files,%20Main%20Segments)/OSTV/OSTV%2023-08-28/3_Raw%20Files/04-17/1274%20-%20DIY_Hanabira_1m40s.mp4</pathurl>
													<rate>
														<timebase>30</timebase>
														<ntsc>TRUE</ntsc>
													</rate>
													<duration>2979</duration>
													<timecode>
														<rate>
															<timebase>30</timebase>
															<ntsc>TRUE</ntsc>
														</rate>
														<string>00:00:00:00</string>
														<frame>0</frame>
														<displayformat>NDF</displayformat>
													</timecode>
													<media>
														<video>
															<samplecharacteristics>
																<rate>
																	<timebase>30</timebase>
																	<ntsc>TRUE</ntsc>
																</rate>
																<width>1280</width>
																<height>720</height>
																<anamorphic>FALSE</anamorphic>
																<pixelaspectratio>square</pixelaspectratio>
																<fielddominance>none</fielddominance>
															</samplecharacteristics>
														</video>
														<audio>
															<samplecharacteristics>
																<depth>16</depth>
																<samplerate>32000</samplerate>
															</samplecharacteristics>
															<channelcount>2</channelcount>
														</audio>
													</media>
												</file>
												<filter>
													<effect>
														<name>Basic Motion</name>
														<effectid>basic</effectid>
														<effectcategory>motion</effectcategory>
														<effecttype>motion</effecttype>
														<mediatype>video</mediatype>
														<pproBypass>false</pproBypass>
														<parameter authoringApp="PremierePro">
															<parameterid>scale</parameterid>
															<name>Scale</name>
															<valuemin>0</valuemin>
															<valuemax>1000</valuemax>
															<value>150</value>
														</parameter>
														<parameter authoringApp="PremierePro">
															<parameterid>rotation</parameterid>
															<name>Rotation</name>
															<valuemin>-8640</valuemin>
															<valuemax>8640</valuemax>
															<value>0</value>
														</parameter>
														<parameter authoringApp="PremierePro">
															<parameterid>center</parameterid>
															<name>Center</name>
															<value>
																<horiz>0</horiz>
																<vert>0</vert>
															</value>
														</parameter>
														<parameter authoringApp="PremierePro">
															<parameterid>centerOffset</parameterid>
															<name>Anchor Point</name>
															<value>
																<horiz>0</horiz>
																<vert>0</vert>
															</value>
														</parameter>
														<parameter authoringApp="PremierePro">
															<parameterid>antiflicker</parameterid>
															<name>Anti-flicker Filter</name>
															<valuemin>0.0</valuemin>
															<valuemax>1.0</valuemax>
															<value>0</value>
														</parameter>
													</effect>
												</filter>
												<logginginfo>
													<description></description>
													<scene></scene>
													<shottake></shottake>
													<lognote></lognote>
													<good></good>
													<originalvideofilename></originalvideofilename>
													<originalaudiofilename></originalaudiofilename>
												</logginginfo>
												<colorinfo>
													<lut></lut>
													<lut1></lut1>
													<asc_sop></asc_sop>
													<asc_sat></asc_sat>
													<lut2></lut2>
												</colorinfo>
												<labels>
													<label2>Iris</label2>
												</labels>
											</clipitem>
											<enabled>TRUE</enabled>
											<locked>FALSE</locked>
										</track>
										<track>
											<clipitem id="clipitem-257">
												<masterclipid>masterclip-106</masterclipid>
												<name>Bug and Lower Nest</name>
												<enabled>TRUE</enabled>
												<duration>14721</duration>
												<rate>
													<timebase>30</timebase>
													<ntsc>TRUE</ntsc>
												</rate>
												<start>0</start>
												<end>2979</end>
												<in>0</in>
												<out>2979</out>
												<pproTicksIn>0</pproTicksIn>
												<pproTicksOut>25249012588800</pproTicksOut>
												<sequence id="sequence-1"/>
												<labels>
													<label2>Cerulean</label2>
												</labels>
											</clipitem>
											<enabled>TRUE</enabled>
											<locked>FALSE</locked>
										</track>
									</video>
									<audio>
										<numOutputChannels>2</numOutputChannels>
										<format>
											<samplecharacteristics>
												<depth>16</depth>
												<samplerate>44100</samplerate>
											</samplecharacteristics>
										</format>
										<outputs>
											<group>
												<index>1</index>
												<numchannels>1</numchannels>
												<downmix>0</downmix>
												<channel>
													<index>1</index>
												</channel>
											</group>
											<group>
												<index>2</index>
												<numchannels>1</numchannels>
												<downmix>0</downmix>
												<channel>
													<index>2</index>
												</channel>
											</group>
										</outputs>
										<track TL.SQTrackExpandedHeight="25" TL.SQTrackExpanded="0" MZ.TrackTargeted="1" PannerCurrentValue="0.5" PannerIsInverted="true" PannerStartKeyframe="-91445760000000000,0.5,0,0,0,0,0,0" PannerName="Balance" currentExplodedTrackIndex="0" totalExplodedTrackCount="2" premiereTrackType="Stereo">
											<transitionitem>
												<start>0</start>
												<end>30</end>
												<pproTicksIn>0</pproTicksIn>
												<pproTicksOut>254270016000</pproTicksOut>
												<alignment>start-black</alignment>
												<cutPointTicks>0</cutPointTicks>
												<rate>
													<timebase>30</timebase>
													<ntsc>TRUE</ntsc>
												</rate>
												<effect>
													<name>Cross Fade (+3dB)</name>
													<effectid>KGAudioTransCrossFade3dB</effectid>
													<effecttype>transition</effecttype>
													<mediatype>audio</mediatype>
													<wipecode>0</wipecode>
													<wipeaccuracy>100</wipeaccuracy>
													<startratio>0</startratio>
													<endratio>1</endratio>
													<reverse>FALSE</reverse>
												</effect>
											</transitionitem>
											<clipitem id="clipitem-258" premiereChannelType="stereo">
												<masterclipid>masterclip-24</masterclipid>
												<name>ES_Spring Street - Hara Noda copy.mp3</name>
												<enabled>TRUE</enabled>
												<duration>6427</duration>
												<rate>
													<timebase>30</timebase>
													<ntsc>TRUE</ntsc>
												</rate>
												<start>-1</start>
												<end>-1</end>
												<in>19</in>
												<out>2998</out>
												<pproTicksIn>161037676800</pproTicksIn>
												<pproTicksOut>25410050265600</pproTicksOut>
												<file id="file-24"/>
												<sourcetrack>
													<mediatype>audio</mediatype>
													<trackindex>1</trackindex>
												</sourcetrack>
												<link>
													<linkclipref>clipitem-258</linkclipref>
													<mediatype>audio</mediatype>
													<trackindex>1</trackindex>
													<clipindex>2</clipindex>
													<groupindex>1</groupindex>
												</link>
												<link>
													<linkclipref>clipitem-259</linkclipref>
													<mediatype>audio</mediatype>
													<trackindex>2</trackindex>
													<clipindex>2</clipindex>
													<groupindex>1</groupindex>
												</link>
												<logginginfo>
													<description></description>
													<scene></scene>
													<shottake></shottake>
													<lognote></lognote>
													<good></good>
													<originalvideofilename></originalvideofilename>
													<originalaudiofilename></originalaudiofilename>
												</logginginfo>
												<colorinfo>
													<lut></lut>
													<lut1></lut1>
													<asc_sop></asc_sop>
													<asc_sat></asc_sat>
													<lut2></lut2>
												</colorinfo>
												<labels>
													<label2>Caribbean</label2>
												</labels>
											</clipitem>
											<transitionitem>
												<start>2889</start>
												<end>2979</end>
												<pproTicksIn>24486202540800</pproTicksIn>
												<pproTicksOut>25249012588800</pproTicksOut>
												<alignment>end-black</alignment>
												<cutPointTicks>762810048000</cutPointTicks>
												<rate>
													<timebase>30</timebase>
													<ntsc>TRUE</ntsc>
												</rate>
												<effect>
													<name>Cross Fade (+3dB)</name>
													<effectid>KGAudioTransCrossFade3dB</effectid>
													<effecttype>transition</effecttype>
													<mediatype>audio</mediatype>
													<wipecode>0</wipecode>
													<wipeaccuracy>100</wipeaccuracy>
													<startratio>0</startratio>
													<endratio>1</endratio>
													<reverse>FALSE</reverse>
												</effect>
											</transitionitem>
											<enabled>TRUE</enabled>
											<locked>FALSE</locked>
											<outputchannelindex>1</outputchannelindex>
										</track>
										<track TL.SQTrackExpandedHeight="25" TL.SQTrackExpanded="0" MZ.TrackTargeted="1" PannerCurrentValue="0.5" PannerIsInverted="true" PannerStartKeyframe="-91445760000000000,0.5,0,0,0,0,0,0" PannerName="Balance" currentExplodedTrackIndex="1" totalExplodedTrackCount="2" premiereTrackType="Stereo">
											<transitionitem>
												<start>0</start>
												<end>30</end>
												<pproTicksIn>0</pproTicksIn>
												<pproTicksOut>254270016000</pproTicksOut>
												<alignment>start-black</alignment>
												<cutPointTicks>0</cutPointTicks>
												<rate>
													<timebase>30</timebase>
													<ntsc>TRUE</ntsc>
												</rate>
												<effect>
													<name>Cross Fade (+3dB)</name>
													<effectid>KGAudioTransCrossFade3dB</effectid>
													<effecttype>transition</effecttype>
													<mediatype>audio</mediatype>
													<wipecode>0</wipecode>
													<wipeaccuracy>100</wipeaccuracy>
													<startratio>0</startratio>
													<endratio>1</endratio>
													<reverse>FALSE</reverse>
												</effect>
											</transitionitem>
											<clipitem id="clipitem-259" premiereChannelType="stereo">
												<masterclipid>masterclip-24</masterclipid>
												<name>ES_Spring Street - Hara Noda copy.mp3</name>
												<enabled>TRUE</enabled>
												<duration>6427</duration>
												<rate>
													<timebase>30</timebase>
													<ntsc>TRUE</ntsc>
												</rate>
												<start>-1</start>
												<end>-1</end>
												<in>19</in>
												<out>2998</out>
												<pproTicksIn>161037676800</pproTicksIn>
												<pproTicksOut>25410050265600</pproTicksOut>
												<file id="file-24"/>
												<sourcetrack>
													<mediatype>audio</mediatype>
													<trackindex>2</trackindex>
												</sourcetrack>
												<link>
													<linkclipref>clipitem-258</linkclipref>
													<mediatype>audio</mediatype>
													<trackindex>1</trackindex>
													<clipindex>2</clipindex>
													<groupindex>1</groupindex>
												</link>
												<link>
													<linkclipref>clipitem-259</linkclipref>
													<mediatype>audio</mediatype>
													<trackindex>2</trackindex>
													<clipindex>2</clipindex>
													<groupindex>1</groupindex>
												</link>
												<logginginfo>
													<description></description>
													<scene></scene>
													<shottake></shottake>
													<lognote></lognote>
													<good></good>
													<originalvideofilename></originalvideofilename>
													<originalaudiofilename></originalaudiofilename>
												</logginginfo>
												<colorinfo>
													<lut></lut>
													<lut1></lut1>
													<asc_sop></asc_sop>
													<asc_sat></asc_sat>
													<lut2></lut2>
												</colorinfo>
												<labels>
													<label2>Caribbean</label2>
												</labels>
											</clipitem>
											<transitionitem>
												<start>2889</start>
												<end>2979</end>
												<pproTicksIn>24486202540800</pproTicksIn>
												<pproTicksOut>25249012588800</pproTicksOut>
												<alignment>end-black</alignment>
												<cutPointTicks>762810048000</cutPointTicks>
												<rate>
													<timebase>30</timebase>
													<ntsc>TRUE</ntsc>
												</rate>
												<effect>
													<name>Cross Fade (+3dB)</name>
													<effectid>KGAudioTransCrossFade3dB</effectid>
													<effecttype>transition</effecttype>
													<mediatype>audio</mediatype>
													<wipecode>0</wipecode>
													<wipeaccuracy>100</wipeaccuracy>
													<startratio>0</startratio>
													<endratio>1</endratio>
													<reverse>FALSE</reverse>
												</effect>
											</transitionitem>
											<enabled>TRUE</enabled>
											<locked>FALSE</locked>
											<outputchannelindex>2</outputchannelindex>
										</track>
									</audio>
								</media>
								<timecode>
									<rate>
										<timebase>30</timebase>
										<ntsc>TRUE</ntsc>
									</rate>
									<string>00:00:00:00</string>
									<frame>0</frame>
									<displayformat>NDF</displayformat>
								</timecode>
								<labels>
									<label2>Forest</label2>
								</labels>
								<logginginfo>
									<description></description>
									<scene></scene>
									<shottake></shottake>
									<lognote></lognote>
									<good></good>
									<originalvideofilename></originalvideofilename>
									<originalaudiofilename></originalaudiofilename>
								</logginginfo>
							</sequence>
						</children>
					</bin>
					<bin>
						<name>HOUR (date) </name>
						<children>
							<bin>
								<name>Under 3 minutes</name>
								<children>
									<sequence id="sequence-40" TL.SQAudioVisibleBase="0" TL.SQVideoVisibleBase="0" TL.SQVisibleBaseTime="0" TL.SQAVDividerPosition="0.5" TL.SQHideShyTracks="0" TL.SQHeaderWidth="236" TL.SQDataTrackViewControlState="0" Monitor.ProgramZoomOut="25121877580800" Monitor.ProgramZoomIn="0" TL.SQTimePerPixel="0.16481714885674287" AM.TrackVScrollPosition="0" AM.TrackScrollPosition="0" MZ.EditLine="14467963910400" MZ.Sequence.PreviewFrameSizeHeight="1080" MZ.Sequence.PreviewFrameSizeWidth="1920" MZ.Sequence.AudioTimeDisplayFormat="200" MZ.Sequence.PreviewRenderingClassID="1297106761" MZ.Sequence.PreviewRenderingPresetCodec="1297107278" MZ.Sequence.PreviewRenderingPresetPath="EncoderPresets/SequencePreview/795454d9-d3c2-429d-9474-923ab13b7018/I-Frame Only MPEG.epr" MZ.Sequence.PreviewUseMaxRenderQuality="false" MZ.Sequence.PreviewUseMaxBitDepth="false" MZ.Sequence.EditingModeGUID="795454d9-d3c2-429d-9474-923ab13b7018" MZ.Sequence.VideoTimeDisplayFormat="103" MZ.WorkOutPoint="27028902700800" MZ.WorkInPoint="0" explodedTracks="true">
										<uuid>332148ac-7b91-4707-9349-3f5536654a08</uuid>
										<duration>2964</duration>
										<rate>
											<timebase>30</timebase>
											<ntsc>TRUE</ntsc>
										</rate>
										<out>2964</out>
										<name>SAT_fills lawn care_1.5</name>
										<media>
											<video>
												<format>
													<samplecharacteristics>
														<rate>
															<timebase>30</timebase>
															<ntsc>TRUE</ntsc>
														</rate>
														<codec>
															<name>Apple ProRes 422</name>
															<appspecificdata>
																<appname>Final Cut Pro</appname>
																<appmanufacturer>Apple Inc.</appmanufacturer>
																<appversion>7.0</appversion>
																<data>
																	<qtcodec>
																		<codecname>Apple ProRes 422</codecname>
																		<codectypename>Apple ProRes 422</codectypename>
																		<codectypecode>apcn</codectypecode>
																		<codecvendorcode>appl</codecvendorcode>
																		<spatialquality>1024</spatialquality>
																		<temporalquality>0</temporalquality>
																		<keyframerate>0</keyframerate>
																		<datarate>0</datarate>
																	</qtcodec>
																</data>
															</appspecificdata>
														</codec>
														<width>1920</width>
														<height>1080</height>
														<anamorphic>FALSE</anamorphic>
														<pixelaspectratio>square</pixelaspectratio>
														<fielddominance>none</fielddominance>
														<colordepth>24</colordepth>
													</samplecharacteristics>
												</format>
												<track TL.SQTrackShy="0" TL.SQTrackExpandedHeight="25" TL.SQTrackExpanded="0" MZ.TrackTargeted="1">
													<clipitem id="clipitem-260">
														<masterclipid>masterclip-135</masterclipid>
														<name>(Fill's Lawn Care)_He Lost A LOVED ONE After Buying This HOUSE, I Told Him No Need To Pay Me_4YVy3LH-nKQ_YT.mp4</name>
														<enabled>TRUE</enabled>
														<duration>69171</duration>
														<rate>
															<timebase>30</timebase>
															<ntsc>TRUE</ntsc>
														</rate>
														<start>0</start>
														<end>388</end>
														<in>6542</in>
														<out>6930</out>
														<pproTicksIn>55447814822400</pproTicksIn>
														<pproTicksOut>58736373696000</pproTicksOut>
														<alphatype>none</alphatype>
														<pixelaspectratio>square</pixelaspectratio>
														<anamorphic>FALSE</anamorphic>
														<file id="file-132">
															<name>(Fill's Lawn Care)_He Lost A LOVED ONE After Buying This HOUSE, I Told Him No Need To Pay Me_4YVy3LH-nKQ_YT.mp4</name>
															<pathurl>file://localhost/Volumes/Satisfactum%20Satisfactorum/03_Weekly%20(Project%20Files,%20Main%20Segments)/OSTV/OSTV%2023-07-31/3_Raw%20Files/(Fill's%20Lawn%20Care)_He%20Lost%20A%20LOVED%20ONE%20After%20Buying%20This%20HOUSE,%20I%20Told%20Him%20No%20Need%20To%20Pay%20Me_4YVy3LH-nKQ_YT.mp4</pathurl>
															<rate>
																<timebase>60</timebase>
																<ntsc>FALSE</ntsc>
															</rate>
															<duration>138482</duration>
															<timecode>
																<rate>
																	<timebase>60</timebase>
																	<ntsc>FALSE</ntsc>
																</rate>
																<string>00:00:00:00</string>
																<frame>0</frame>
																<displayformat>NDF</displayformat>
															</timecode>
															<media>
																<video>
																	<samplecharacteristics>
																		<rate>
																			<timebase>60</timebase>
																			<ntsc>FALSE</ntsc>
																		</rate>
																		<width>1920</width>
																		<height>1080</height>
																		<anamorphic>FALSE</anamorphic>
																		<pixelaspectratio>square</pixelaspectratio>
																		<fielddominance>none</fielddominance>
																	</samplecharacteristics>
																</video>
																<audio>
																	<samplecharacteristics>
																		<depth>16</depth>
																		<samplerate>44100</samplerate>
																	</samplecharacteristics>
																	<channelcount>2</channelcount>
																</audio>
															</media>
														</file>
														<link>
															<linkclipref>clipitem-260</linkclipref>
															<mediatype>video</mediatype>
															<trackindex>1</trackindex>
															<clipindex>1</clipindex>
														</link>
														<link>
															<linkclipref>clipitem-266</linkclipref>
															<mediatype>audio</mediatype>
															<trackindex>1</trackindex>
															<clipindex>2</clipindex>
															<groupindex>1</groupindex>
														</link>
														<link>
															<linkclipref>clipitem-270</linkclipref>
															<mediatype>audio</mediatype>
															<trackindex>2</trackindex>
															<clipindex>2</clipindex>
															<groupindex>1</groupindex>
														</link>
														<logginginfo>
															<description></description>
															<scene></scene>
															<shottake></shottake>
															<lognote>https://www.youtube.com/watch?v=4YVy3LH-nKQ</lognote>
															<good></good>
															<originalvideofilename></originalvideofilename>
															<originalaudiofilename></originalaudiofilename>
														</logginginfo>
														<colorinfo>
															<lut></lut>
															<lut1></lut1>
															<asc_sop></asc_sop>
															<asc_sat></asc_sat>
															<lut2></lut2>
														</colorinfo>
														<labels>
															<label2>Iris</label2>
														</labels>
													</clipitem>
													<clipitem id="clipitem-261">
														<masterclipid>masterclip-135</masterclipid>
														<name>(Fill's Lawn Care)_He Lost A LOVED ONE After Buying This HOUSE, I Told Him No Need To Pay Me_4YVy3LH-nKQ_YT.mp4</name>
														<enabled>TRUE</enabled>
														<duration>69171</duration>
														<rate>
															<timebase>30</timebase>
															<ntsc>TRUE</ntsc>
														</rate>
														<start>388</start>
														<end>684</end>
														<in>7228</in>
														<out>7524</out>
														<pproTicksIn>61262122521600</pproTicksIn>
														<pproTicksOut>63770920012800</pproTicksOut>
														<alphatype>none</alphatype>
														<file id="file-132"/>
														<link>
															<linkclipref>clipitem-261</linkclipref>
															<mediatype>video</mediatype>
															<trackindex>1</trackindex>
															<clipindex>2</clipindex>
														</link>
														<link>
															<linkclipref>clipitem-267</linkclipref>
															<mediatype>audio</mediatype>
															<trackindex>1</trackindex>
															<clipindex>4</clipindex>
															<groupindex>1</groupindex>
														</link>
														<link>
															<linkclipref>clipitem-271</linkclipref>
															<mediatype>audio</mediatype>
															<trackindex>2</trackindex>
															<clipindex>4</clipindex>
															<groupindex>1</groupindex>
														</link>
														<logginginfo>
															<description></description>
															<scene></scene>
															<shottake></shottake>
															<lognote>https://www.youtube.com/watch?v=4YVy3LH-nKQ</lognote>
															<good></good>
															<originalvideofilename></originalvideofilename>
															<originalaudiofilename></originalaudiofilename>
														</logginginfo>
														<colorinfo>
															<lut></lut>
															<lut1></lut1>
															<asc_sop></asc_sop>
															<asc_sat></asc_sat>
															<lut2></lut2>
														</colorinfo>
														<labels>
															<label2>Iris</label2>
														</labels>
													</clipitem>
													<clipitem id="clipitem-262">
														<masterclipid>masterclip-135</masterclipid>
														<name>(Fill's Lawn Care)_He Lost A LOVED ONE After Buying This HOUSE, I Told Him No Need To Pay Me_4YVy3LH-nKQ_YT.mp4</name>
														<enabled>TRUE</enabled>
														<duration>69171</duration>
														<rate>
															<timebase>30</timebase>
															<ntsc>TRUE</ntsc>
														</rate>
														<start>684</start>
														<end>812</end>
														<in>7564</in>
														<out>7692</out>
														<pproTicksIn>64109946700800</pproTicksIn>
														<pproTicksOut>65194832102400</pproTicksOut>
														<alphatype>none</alphatype>
														<file id="file-132"/>
														<link>
															<linkclipref>clipitem-262</linkclipref>
															<mediatype>video</mediatype>
															<trackindex>1</trackindex>
															<clipindex>3</clipindex>
														</link>
														<link>
															<linkclipref>clipitem-268</linkclipref>
															<mediatype>audio</mediatype>
															<trackindex>1</trackindex>
															<clipindex>6</clipindex>
															<groupindex>1</groupindex>
														</link>
														<link>
															<linkclipref>clipitem-272</linkclipref>
															<mediatype>audio</mediatype>
															<trackindex>2</trackindex>
															<clipindex>6</clipindex>
															<groupindex>1</groupindex>
														</link>
														<logginginfo>
															<description></description>
															<scene></scene>
															<shottake></shottake>
															<lognote>https://www.youtube.com/watch?v=4YVy3LH-nKQ</lognote>
															<good></good>
															<originalvideofilename></originalvideofilename>
															<originalaudiofilename></originalaudiofilename>
														</logginginfo>
														<colorinfo>
															<lut></lut>
															<lut1></lut1>
															<asc_sop></asc_sop>
															<asc_sat></asc_sat>
															<lut2></lut2>
														</colorinfo>
														<labels>
															<label2>Iris</label2>
														</labels>
													</clipitem>
													<clipitem id="clipitem-263">
														<masterclipid>masterclip-135</masterclipid>
														<name>(Fill's Lawn Care)_He Lost A LOVED ONE After Buying This HOUSE, I Told Him No Need To Pay Me_4YVy3LH-nKQ_YT.mp4</name>
														<enabled>TRUE</enabled>
														<duration>69171</duration>
														<rate>
															<timebase>30</timebase>
															<ntsc>TRUE</ntsc>
														</rate>
														<start>812</start>
														<end>2964</end>
														<in>7864</in>
														<out>10016</out>
														<pproTicksIn>66652646860800</pproTicksIn>
														<pproTicksOut>84892282675200</pproTicksOut>
														<alphatype>none</alphatype>
														<file id="file-132"/>
														<link>
															<linkclipref>clipitem-263</linkclipref>
															<mediatype>video</mediatype>
															<trackindex>1</trackindex>
															<clipindex>4</clipindex>
														</link>
														<link>
															<linkclipref>clipitem-269</linkclipref>
															<mediatype>audio</mediatype>
															<trackindex>1</trackindex>
															<clipindex>8</clipindex>
															<groupindex>1</groupindex>
														</link>
														<link>
															<linkclipref>clipitem-273</linkclipref>
															<mediatype>audio</mediatype>
															<trackindex>2</trackindex>
															<clipindex>8</clipindex>
															<groupindex>1</groupindex>
														</link>
														<logginginfo>
															<description></description>
															<scene></scene>
															<shottake></shottake>
															<lognote>https://www.youtube.com/watch?v=4YVy3LH-nKQ</lognote>
															<good></good>
															<originalvideofilename></originalvideofilename>
															<originalaudiofilename></originalaudiofilename>
														</logginginfo>
														<colorinfo>
															<lut></lut>
															<lut1></lut1>
															<asc_sop></asc_sop>
															<asc_sat></asc_sat>
															<lut2></lut2>
														</colorinfo>
														<labels>
															<label2>Iris</label2>
														</labels>
													</clipitem>
													<enabled>TRUE</enabled>
													<locked>FALSE</locked>
												</track>
												<track TL.SQTrackShy="0" TL.SQTrackExpandedHeight="25" TL.SQTrackExpanded="0" MZ.TrackTargeted="0">
													<clipitem id="clipitem-264">
														<masterclipid>masterclip-65</masterclipid>
														<name>fill's lawn care</name>
														<enabled>TRUE</enabled>
														<duration>5844</duration>
														<rate>
															<timebase>30</timebase>
															<ntsc>TRUE</ntsc>
														</rate>
														<start>0</start>
														<end>2964</end>
														<in>0</in>
														<out>2964</out>
														<pproTicksIn>0</pproTicksIn>
														<pproTicksOut>25121877580800</pproTicksOut>
														<alphatype>straight</alphatype>
														<file id="file-65"/>
														<filter>
															<effect>
																<name>Basic Motion</name>
																<effectid>basic</effectid>
																<effectcategory>motion</effectcategory>
																<effecttype>motion</effecttype>
																<mediatype>video</mediatype>
																<pproBypass>false</pproBypass>
																<parameter authoringApp="PremierePro">
																	<parameterid>scale</parameterid>
																	<name>Scale</name>
																	<valuemin>0</valuemin>
																	<valuemax>1000</valuemax>
																	<value>150</value>
																</parameter>
																<parameter authoringApp="PremierePro">
																	<parameterid>rotation</parameterid>
																	<name>Rotation</name>
																	<valuemin>-8640</valuemin>
																	<valuemax>8640</valuemax>
																	<value>0</value>
																</parameter>
																<parameter authoringApp="PremierePro">
																	<parameterid>center</parameterid>
																	<name>Center</name>
																	<value>
																		<horiz>0</horiz>
																		<vert>0</vert>
																	</value>
																</parameter>
																<parameter authoringApp="PremierePro">
																	<parameterid>centerOffset</parameterid>
																	<name>Anchor Point</name>
																	<value>
																		<horiz>0</horiz>
																		<vert>0</vert>
																	</value>
																</parameter>
																<parameter authoringApp="PremierePro">
																	<parameterid>antiflicker</parameterid>
																	<name>Anti-flicker Filter</name>
																	<valuemin>0.0</valuemin>
																	<valuemax>1.0</valuemax>
																	<value>0</value>
																</parameter>
															</effect>
														</filter>
														<logginginfo>
															<description></description>
															<scene></scene>
															<shottake></shottake>
															<lognote></lognote>
															<good></good>
															<originalvideofilename></originalvideofilename>
															<originalaudiofilename></originalaudiofilename>
														</logginginfo>
														<colorinfo>
															<lut></lut>
															<lut1></lut1>
															<asc_sop></asc_sop>
															<asc_sat></asc_sat>
															<lut2></lut2>
														</colorinfo>
														<labels>
															<label2>Rose</label2>
														</labels>
													</clipitem>
													<enabled>TRUE</enabled>
													<locked>FALSE</locked>
												</track>
												<track TL.SQTrackShy="0" TL.SQTrackExpandedHeight="25" TL.SQTrackExpanded="0" MZ.TrackTargeted="0">
													<clipitem id="clipitem-265">
														<masterclipid>masterclip-106</masterclipid>
														<name>Bug and Lower Nest</name>
														<enabled>TRUE</enabled>
														<duration>14721</duration>
														<rate>
															<timebase>30</timebase>
															<ntsc>TRUE</ntsc>
														</rate>
														<start>0</start>
														<end>2964</end>
														<in>0</in>
														<out>2964</out>
														<pproTicksIn>0</pproTicksIn>
														<pproTicksOut>25121877580800</pproTicksOut>
														<sequence id="sequence-1"/>
														<labels>
															<label2>Cerulean</label2>
														</labels>
													</clipitem>
													<enabled>FALSE</enabled>
													<locked>FALSE</locked>
												</track>
											</video>
											<audio>
												<numOutputChannels>2</numOutputChannels>
												<format>
													<samplecharacteristics>
														<depth>16</depth>
														<samplerate>44100</samplerate>
													</samplecharacteristics>
												</format>
												<outputs>
													<group>
														<index>1</index>
														<numchannels>1</numchannels>
														<downmix>0</downmix>
														<channel>
															<index>1</index>
														</channel>
													</group>
													<group>
														<index>2</index>
														<numchannels>1</numchannels>
														<downmix>0</downmix>
														<channel>
															<index>2</index>
														</channel>
													</group>
												</outputs>
												<track TL.SQTrackAudioKeyframeStyle="0" TL.SQTrackShy="0" TL.SQTrackExpandedHeight="25" TL.SQTrackExpanded="0" MZ.TrackTargeted="1" PannerCurrentValue="0.5" PannerIsInverted="true" PannerStartKeyframe="-91445760000000000,0.5,0,0,0,0,0,0" PannerName="Balance" currentExplodedTrackIndex="0" totalExplodedTrackCount="2" premiereTrackType="Stereo">
													<transitionitem>
														<start>0</start>
														<end>30</end>
														<pproTicksIn>0</pproTicksIn>
														<pproTicksOut>254270016000</pproTicksOut>
														<alignment>start-black</alignment>
														<cutPointTicks>0</cutPointTicks>
														<rate>
															<timebase>30</timebase>
															<ntsc>TRUE</ntsc>
														</rate>
														<effect>
															<name>Cross Fade (+3dB)</name>
															<effectid>KGAudioTransCrossFade3dB</effectid>
															<effecttype>transition</effecttype>
															<mediatype>audio</mediatype>
															<wipecode>0</wipecode>
															<wipeaccuracy>100</wipeaccuracy>
															<startratio>0</startratio>
															<endratio>1</endratio>
															<reverse>FALSE</reverse>
														</effect>
													</transitionitem>
													<clipitem id="clipitem-266" premiereChannelType="stereo">
														<masterclipid>masterclip-135</masterclipid>
														<name>(Fill's Lawn Care)_He Lost A LOVED ONE After Buying This HOUSE, I Told Him No Need To Pay Me_4YVy3LH-nKQ_YT.mp4</name>
														<enabled>TRUE</enabled>
														<duration>69171</duration>
														<rate>
															<timebase>30</timebase>
															<ntsc>TRUE</ntsc>
														</rate>
														<start>-1</start>
														<end>-1</end>
														<in>6542</in>
														<out>6945</out>
														<pproTicksIn>55447814822400</pproTicksIn>
														<pproTicksOut>58863508704000</pproTicksOut>
														<file id="file-132"/>
														<sourcetrack>
															<mediatype>audio</mediatype>
															<trackindex>1</trackindex>
														</sourcetrack>
														<link>
															<linkclipref>clipitem-260</linkclipref>
															<mediatype>video</mediatype>
															<trackindex>1</trackindex>
															<clipindex>1</clipindex>
														</link>
														<link>
															<linkclipref>clipitem-266</linkclipref>
															<mediatype>audio</mediatype>
															<trackindex>1</trackindex>
															<clipindex>2</clipindex>
															<groupindex>1</groupindex>
														</link>
														<link>
															<linkclipref>clipitem-270</linkclipref>
															<mediatype>audio</mediatype>
															<trackindex>2</trackindex>
															<clipindex>2</clipindex>
															<groupindex>1</groupindex>
														</link>
														<logginginfo>
															<description></description>
															<scene></scene>
															<shottake></shottake>
															<lognote>https://www.youtube.com/watch?v=4YVy3LH-nKQ</lognote>
															<good></good>
															<originalvideofilename></originalvideofilename>
															<originalaudiofilename></originalaudiofilename>
														</logginginfo>
														<colorinfo>
															<lut></lut>
															<lut1></lut1>
															<asc_sop></asc_sop>
															<asc_sat></asc_sat>
															<lut2></lut2>
														</colorinfo>
														<labels>
															<label2>Iris</label2>
														</labels>
													</clipitem>
													<transitionitem>
														<start>373</start>
														<end>403</end>
														<pproTicksIn>3161423865600</pproTicksIn>
														<pproTicksOut>3415693881600</pproTicksOut>
														<alignment>center</alignment>
														<cutPointTicks>127135008000</cutPointTicks>
														<rate>
															<timebase>30</timebase>
															<ntsc>TRUE</ntsc>
														</rate>
														<effect>
															<name>Cross Fade (+3dB)</name>
															<effectid>KGAudioTransCrossFade3dB</effectid>
															<effecttype>transition</effecttype>
															<mediatype>audio</mediatype>
															<wipecode>0</wipecode>
															<wipeaccuracy>100</wipeaccuracy>
															<startratio>0</startratio>
															<endratio>1</endratio>
															<reverse>FALSE</reverse>
														</effect>
													</transitionitem>
													<clipitem id="clipitem-267" premiereChannelType="stereo">
														<masterclipid>masterclip-135</masterclipid>
														<name>(Fill's Lawn Care)_He Lost A LOVED ONE After Buying This HOUSE, I Told Him No Need To Pay Me_4YVy3LH-nKQ_YT.mp4</name>
														<enabled>TRUE</enabled>
														<duration>69171</duration>
														<rate>
															<timebase>30</timebase>
															<ntsc>TRUE</ntsc>
														</rate>
														<start>-1</start>
														<end>-1</end>
														<in>7213</in>
														<out>7539</out>
														<pproTicksIn>61134987513600</pproTicksIn>
														<pproTicksOut>63898055020800</pproTicksOut>
														<file id="file-132"/>
														<sourcetrack>
															<mediatype>audio</mediatype>
															<trackindex>1</trackindex>
														</sourcetrack>
														<link>
															<linkclipref>clipitem-261</linkclipref>
															<mediatype>video</mediatype>
															<trackindex>1</trackindex>
															<clipindex>2</clipindex>
														</link>
														<link>
															<linkclipref>clipitem-267</linkclipref>
															<mediatype>audio</mediatype>
															<trackindex>1</trackindex>
															<clipindex>4</clipindex>
															<groupindex>1</groupindex>
														</link>
														<link>
															<linkclipref>clipitem-271</linkclipref>
															<mediatype>audio</mediatype>
															<trackindex>2</trackindex>
															<clipindex>4</clipindex>
															<groupindex>1</groupindex>
														</link>
														<logginginfo>
															<description></description>
															<scene></scene>
															<shottake></shottake>
															<lognote>https://www.youtube.com/watch?v=4YVy3LH-nKQ</lognote>
															<good></good>
															<originalvideofilename></originalvideofilename>
															<originalaudiofilename></originalaudiofilename>
														</logginginfo>
														<colorinfo>
															<lut></lut>
															<lut1></lut1>
															<asc_sop></asc_sop>
															<asc_sat></asc_sat>
															<lut2></lut2>
														</colorinfo>
														<labels>
															<label2>Iris</label2>
														</labels>
													</clipitem>
													<transitionitem>
														<start>669</start>
														<end>699</end>
														<pproTicksIn>5670221356800</pproTicksIn>
														<pproTicksOut>5924491372800</pproTicksOut>
														<alignment>center</alignment>
														<cutPointTicks>127135008000</cutPointTicks>
														<rate>
															<timebase>30</timebase>
															<ntsc>TRUE</ntsc>
														</rate>
														<effect>
															<name>Cross Fade (+3dB)</name>
															<effectid>KGAudioTransCrossFade3dB</effectid>
															<effecttype>transition</effecttype>
															<mediatype>audio</mediatype>
															<wipecode>0</wipecode>
															<wipeaccuracy>100</wipeaccuracy>
															<startratio>0</startratio>
															<endratio>1</endratio>
															<reverse>FALSE</reverse>
														</effect>
													</transitionitem>
													<clipitem id="clipitem-268" premiereChannelType="stereo">
														<masterclipid>masterclip-135</masterclipid>
														<name>(Fill's Lawn Care)_He Lost A LOVED ONE After Buying This HOUSE, I Told Him No Need To Pay Me_4YVy3LH-nKQ_YT.mp4</name>
														<enabled>TRUE</enabled>
														<duration>69171</duration>
														<rate>
															<timebase>30</timebase>
															<ntsc>TRUE</ntsc>
														</rate>
														<start>-1</start>
														<end>-1</end>
														<in>7549</in>
														<out>7707</out>
														<pproTicksIn>63982811692800</pproTicksIn>
														<pproTicksOut>65321967110400</pproTicksOut>
														<file id="file-132"/>
														<sourcetrack>
															<mediatype>audio</mediatype>
															<trackindex>1</trackindex>
														</sourcetrack>
														<link>
															<linkclipref>clipitem-262</linkclipref>
															<mediatype>video</mediatype>
															<trackindex>1</trackindex>
															<clipindex>3</clipindex>
														</link>
														<link>
															<linkclipref>clipitem-268</linkclipref>
															<mediatype>audio</mediatype>
															<trackindex>1</trackindex>
															<clipindex>6</clipindex>
															<groupindex>1</groupindex>
														</link>
														<link>
															<linkclipref>clipitem-272</linkclipref>
															<mediatype>audio</mediatype>
															<trackindex>2</trackindex>
															<clipindex>6</clipindex>
															<groupindex>1</groupindex>
														</link>
														<logginginfo>
															<description></description>
															<scene></scene>
															<shottake></shottake>
															<lognote>https://www.youtube.com/watch?v=4YVy3LH-nKQ</lognote>
															<good></good>
															<originalvideofilename></originalvideofilename>
															<originalaudiofilename></originalaudiofilename>
														</logginginfo>
														<colorinfo>
															<lut></lut>
															<lut1></lut1>
															<asc_sop></asc_sop>
															<asc_sat></asc_sat>
															<lut2></lut2>
														</colorinfo>
														<labels>
															<label2>Iris</label2>
														</labels>
													</clipitem>
													<transitionitem>
														<start>797</start>
														<end>827</end>
														<pproTicksIn>6755106758400</pproTicksIn>
														<pproTicksOut>7009376774400</pproTicksOut>
														<alignment>center</alignment>
														<cutPointTicks>127135008000</cutPointTicks>
														<rate>
															<timebase>30</timebase>
															<ntsc>TRUE</ntsc>
														</rate>
														<effect>
															<name>Cross Fade (+3dB)</name>
															<effectid>KGAudioTransCrossFade3dB</effectid>
															<effecttype>transition</effecttype>
															<mediatype>audio</mediatype>
															<wipecode>0</wipecode>
															<wipeaccuracy>100</wipeaccuracy>
															<startratio>0</startratio>
															<endratio>1</endratio>
															<reverse>FALSE</reverse>
														</effect>
													</transitionitem>
													<clipitem id="clipitem-269" premiereChannelType="stereo">
														<masterclipid>masterclip-135</masterclipid>
														<name>(Fill's Lawn Care)_He Lost A LOVED ONE After Buying This HOUSE, I Told Him No Need To Pay Me_4YVy3LH-nKQ_YT.mp4</name>
														<enabled>TRUE</enabled>
														<duration>69171</duration>
														<rate>
															<timebase>30</timebase>
															<ntsc>TRUE</ntsc>
														</rate>
														<start>-1</start>
														<end>-1</end>
														<in>7849</in>
														<out>10016</out>
														<pproTicksIn>66525511852800</pproTicksIn>
														<pproTicksOut>84892282675200</pproTicksOut>
														<file id="file-132"/>
														<sourcetrack>
															<mediatype>audio</mediatype>
															<trackindex>1</trackindex>
														</sourcetrack>
														<link>
															<linkclipref>clipitem-263</linkclipref>
															<mediatype>video</mediatype>
															<trackindex>1</trackindex>
															<clipindex>4</clipindex>
														</link>
														<link>
															<linkclipref>clipitem-269</linkclipref>
															<mediatype>audio</mediatype>
															<trackindex>1</trackindex>
															<clipindex>8</clipindex>
															<groupindex>1</groupindex>
														</link>
														<link>
															<linkclipref>clipitem-273</linkclipref>
															<mediatype>audio</mediatype>
															<trackindex>2</trackindex>
															<clipindex>8</clipindex>
															<groupindex>1</groupindex>
														</link>
														<logginginfo>
															<description></description>
															<scene></scene>
															<shottake></shottake>
															<lognote>https://www.youtube.com/watch?v=4YVy3LH-nKQ</lognote>
															<good></good>
															<originalvideofilename></originalvideofilename>
															<originalaudiofilename></originalaudiofilename>
														</logginginfo>
														<colorinfo>
															<lut></lut>
															<lut1></lut1>
															<asc_sop></asc_sop>
															<asc_sat></asc_sat>
															<lut2></lut2>
														</colorinfo>
														<labels>
															<label2>Iris</label2>
														</labels>
													</clipitem>
													<transitionitem>
														<start>2934</start>
														<end>2964</end>
														<pproTicksIn>24867607564800</pproTicksIn>
														<pproTicksOut>25121877580800</pproTicksOut>
														<alignment>end-black</alignment>
														<cutPointTicks>254270016000</cutPointTicks>
														<rate>
															<timebase>30</timebase>
															<ntsc>TRUE</ntsc>
														</rate>
														<effect>
															<name>Cross Fade (+3dB)</name>
															<effectid>KGAudioTransCrossFade3dB</effectid>
															<effecttype>transition</effecttype>
															<mediatype>audio</mediatype>
															<wipecode>0</wipecode>
															<wipeaccuracy>100</wipeaccuracy>
															<startratio>0</startratio>
															<endratio>1</endratio>
															<reverse>FALSE</reverse>
														</effect>
													</transitionitem>
													<enabled>TRUE</enabled>
													<locked>FALSE</locked>
													<filter>
														<effect>
															<name>Audio Levels</name>
															<effectid>audiolevels</effectid>
															<effectcategory>audiolevels</effectcategory>
															<effecttype>audiolevels</effecttype>
															<mediatype>audio</mediatype>
															<parameter authoringApp="PremierePro">
																<parameterid>level</parameterid>
																<name>Level</name>
																<valuemin>0</valuemin>
																<valuemax>3.98109</valuemax>
																<value>0.997636</value>
															</parameter>
														</effect>
													</filter>
													<outputchannelindex>1</outputchannelindex>
												</track>
												<track TL.SQTrackAudioKeyframeStyle="0" TL.SQTrackShy="0" TL.SQTrackExpandedHeight="25" TL.SQTrackExpanded="0" MZ.TrackTargeted="1" PannerCurrentValue="0.5" PannerIsInverted="true" PannerStartKeyframe="-91445760000000000,0.5,0,0,0,0,0,0" PannerName="Balance" currentExplodedTrackIndex="1" totalExplodedTrackCount="2" premiereTrackType="Stereo">
													<transitionitem>
														<start>0</start>
														<end>30</end>
														<pproTicksIn>0</pproTicksIn>
														<pproTicksOut>254270016000</pproTicksOut>
														<alignment>start-black</alignment>
														<cutPointTicks>0</cutPointTicks>
														<rate>
															<timebase>30</timebase>
															<ntsc>TRUE</ntsc>
														</rate>
														<effect>
															<name>Cross Fade (+3dB)</name>
															<effectid>KGAudioTransCrossFade3dB</effectid>
															<effecttype>transition</effecttype>
															<mediatype>audio</mediatype>
															<wipecode>0</wipecode>
															<wipeaccuracy>100</wipeaccuracy>
															<startratio>0</startratio>
															<endratio>1</endratio>
															<reverse>FALSE</reverse>
														</effect>
													</transitionitem>
													<clipitem id="clipitem-270" premiereChannelType="stereo">
														<masterclipid>masterclip-135</masterclipid>
														<name>(Fill's Lawn Care)_He Lost A LOVED ONE After Buying This HOUSE, I Told Him No Need To Pay Me_4YVy3LH-nKQ_YT.mp4</name>
														<enabled>TRUE</enabled>
														<duration>69171</duration>
														<rate>
															<timebase>30</timebase>
															<ntsc>TRUE</ntsc>
														</rate>
														<start>-1</start>
														<end>-1</end>
														<in>6542</in>
														<out>6945</out>
														<pproTicksIn>55447814822400</pproTicksIn>
														<pproTicksOut>58863508704000</pproTicksOut>
														<file id="file-132"/>
														<sourcetrack>
															<mediatype>audio</mediatype>
															<trackindex>2</trackindex>
														</sourcetrack>
														<link>
															<linkclipref>clipitem-260</linkclipref>
															<mediatype>video</mediatype>
															<trackindex>1</trackindex>
															<clipindex>1</clipindex>
														</link>
														<link>
															<linkclipref>clipitem-266</linkclipref>
															<mediatype>audio</mediatype>
															<trackindex>1</trackindex>
															<clipindex>2</clipindex>
															<groupindex>1</groupindex>
														</link>
														<link>
															<linkclipref>clipitem-270</linkclipref>
															<mediatype>audio</mediatype>
															<trackindex>2</trackindex>
															<clipindex>2</clipindex>
															<groupindex>1</groupindex>
														</link>
														<logginginfo>
															<description></description>
															<scene></scene>
															<shottake></shottake>
															<lognote>https://www.youtube.com/watch?v=4YVy3LH-nKQ</lognote>
															<good></good>
															<originalvideofilename></originalvideofilename>
															<originalaudiofilename></originalaudiofilename>
														</logginginfo>
														<colorinfo>
															<lut></lut>
															<lut1></lut1>
															<asc_sop></asc_sop>
															<asc_sat></asc_sat>
															<lut2></lut2>
														</colorinfo>
														<labels>
															<label2>Iris</label2>
														</labels>
													</clipitem>
													<transitionitem>
														<start>373</start>
														<end>403</end>
														<pproTicksIn>3161423865600</pproTicksIn>
														<pproTicksOut>3415693881600</pproTicksOut>
														<alignment>center</alignment>
														<cutPointTicks>127135008000</cutPointTicks>
														<rate>
															<timebase>30</timebase>
															<ntsc>TRUE</ntsc>
														</rate>
														<effect>
															<name>Cross Fade (+3dB)</name>
															<effectid>KGAudioTransCrossFade3dB</effectid>
															<effecttype>transition</effecttype>
															<mediatype>audio</mediatype>
															<wipecode>0</wipecode>
															<wipeaccuracy>100</wipeaccuracy>
															<startratio>0</startratio>
															<endratio>1</endratio>
															<reverse>FALSE</reverse>
														</effect>
													</transitionitem>
													<clipitem id="clipitem-271" premiereChannelType="stereo">
														<masterclipid>masterclip-135</masterclipid>
														<name>(Fill's Lawn Care)_He Lost A LOVED ONE After Buying This HOUSE, I Told Him No Need To Pay Me_4YVy3LH-nKQ_YT.mp4</name>
														<enabled>TRUE</enabled>
														<duration>69171</duration>
														<rate>
															<timebase>30</timebase>
															<ntsc>TRUE</ntsc>
														</rate>
														<start>-1</start>
														<end>-1</end>
														<in>7213</in>
														<out>7539</out>
														<pproTicksIn>61134987513600</pproTicksIn>
														<pproTicksOut>63898055020800</pproTicksOut>
														<file id="file-132"/>
														<sourcetrack>
															<mediatype>audio</mediatype>
															<trackindex>2</trackindex>
														</sourcetrack>
														<link>
															<linkclipref>clipitem-261</linkclipref>
															<mediatype>video</mediatype>
															<trackindex>1</trackindex>
															<clipindex>2</clipindex>
														</link>
														<link>
															<linkclipref>clipitem-267</linkclipref>
															<mediatype>audio</mediatype>
															<trackindex>1</trackindex>
															<clipindex>4</clipindex>
															<groupindex>1</groupindex>
														</link>
														<link>
															<linkclipref>clipitem-271</linkclipref>
															<mediatype>audio</mediatype>
															<trackindex>2</trackindex>
															<clipindex>4</clipindex>
															<groupindex>1</groupindex>
														</link>
														<logginginfo>
															<description></description>
															<scene></scene>
															<shottake></shottake>
															<lognote>https://www.youtube.com/watch?v=4YVy3LH-nKQ</lognote>
															<good></good>
															<originalvideofilename></originalvideofilename>
															<originalaudiofilename></originalaudiofilename>
														</logginginfo>
														<colorinfo>
															<lut></lut>
															<lut1></lut1>
															<asc_sop></asc_sop>
															<asc_sat></asc_sat>
															<lut2></lut2>
														</colorinfo>
														<labels>
															<label2>Iris</label2>
														</labels>
													</clipitem>
													<transitionitem>
														<start>669</start>
														<end>699</end>
														<pproTicksIn>5670221356800</pproTicksIn>
														<pproTicksOut>5924491372800</pproTicksOut>
														<alignment>center</alignment>
														<cutPointTicks>127135008000</cutPointTicks>
														<rate>
															<timebase>30</timebase>
															<ntsc>TRUE</ntsc>
														</rate>
														<effect>
															<name>Cross Fade (+3dB)</name>
															<effectid>KGAudioTransCrossFade3dB</effectid>
															<effecttype>transition</effecttype>
															<mediatype>audio</mediatype>
															<wipecode>0</wipecode>
															<wipeaccuracy>100</wipeaccuracy>
															<startratio>0</startratio>
															<endratio>1</endratio>
															<reverse>FALSE</reverse>
														</effect>
													</transitionitem>
													<clipitem id="clipitem-272" premiereChannelType="stereo">
														<masterclipid>masterclip-135</masterclipid>
														<name>(Fill's Lawn Care)_He Lost A LOVED ONE After Buying This HOUSE, I Told Him No Need To Pay Me_4YVy3LH-nKQ_YT.mp4</name>
														<enabled>TRUE</enabled>
														<duration>69171</duration>
														<rate>
															<timebase>30</timebase>
															<ntsc>TRUE</ntsc>
														</rate>
														<start>-1</start>
														<end>-1</end>
														<in>7549</in>
														<out>7707</out>
														<pproTicksIn>63982811692800</pproTicksIn>
														<pproTicksOut>65321967110400</pproTicksOut>
														<file id="file-132"/>
														<sourcetrack>
															<mediatype>audio</mediatype>
															<trackindex>2</trackindex>
														</sourcetrack>
														<link>
															<linkclipref>clipitem-262</linkclipref>
															<mediatype>video</mediatype>
															<trackindex>1</trackindex>
															<clipindex>3</clipindex>
														</link>
														<link>
															<linkclipref>clipitem-268</linkclipref>
															<mediatype>audio</mediatype>
															<trackindex>1</trackindex>
															<clipindex>6</clipindex>
															<groupindex>1</groupindex>
														</link>
														<link>
															<linkclipref>clipitem-272</linkclipref>
															<mediatype>audio</mediatype>
															<trackindex>2</trackindex>
															<clipindex>6</clipindex>
															<groupindex>1</groupindex>
														</link>
														<logginginfo>
															<description></description>
															<scene></scene>
															<shottake></shottake>
															<lognote>https://www.youtube.com/watch?v=4YVy3LH-nKQ</lognote>
															<good></good>
															<originalvideofilename></originalvideofilename>
															<originalaudiofilename></originalaudiofilename>
														</logginginfo>
														<colorinfo>
															<lut></lut>
															<lut1></lut1>
															<asc_sop></asc_sop>
															<asc_sat></asc_sat>
															<lut2></lut2>
														</colorinfo>
														<labels>
															<label2>Iris</label2>
														</labels>
													</clipitem>
													<transitionitem>
														<start>797</start>
														<end>827</end>
														<pproTicksIn>6755106758400</pproTicksIn>
														<pproTicksOut>7009376774400</pproTicksOut>
														<alignment>center</alignment>
														<cutPointTicks>127135008000</cutPointTicks>
														<rate>
															<timebase>30</timebase>
															<ntsc>TRUE</ntsc>
														</rate>
														<effect>
															<name>Cross Fade (+3dB)</name>
															<effectid>KGAudioTransCrossFade3dB</effectid>
															<effecttype>transition</effecttype>
															<mediatype>audio</mediatype>
															<wipecode>0</wipecode>
															<wipeaccuracy>100</wipeaccuracy>
															<startratio>0</startratio>
															<endratio>1</endratio>
															<reverse>FALSE</reverse>
														</effect>
													</transitionitem>
													<clipitem id="clipitem-273" premiereChannelType="stereo">
														<masterclipid>masterclip-135</masterclipid>
														<name>(Fill's Lawn Care)_He Lost A LOVED ONE After Buying This HOUSE, I Told Him No Need To Pay Me_4YVy3LH-nKQ_YT.mp4</name>
														<enabled>TRUE</enabled>
														<duration>69171</duration>
														<rate>
															<timebase>30</timebase>
															<ntsc>TRUE</ntsc>
														</rate>
														<start>-1</start>
														<end>-1</end>
														<in>7849</in>
														<out>10016</out>
														<pproTicksIn>66525511852800</pproTicksIn>
														<pproTicksOut>84892282675200</pproTicksOut>
														<file id="file-132"/>
														<sourcetrack>
															<mediatype>audio</mediatype>
															<trackindex>2</trackindex>
														</sourcetrack>
														<link>
															<linkclipref>clipitem-263</linkclipref>
															<mediatype>video</mediatype>
															<trackindex>1</trackindex>
															<clipindex>4</clipindex>
														</link>
														<link>
															<linkclipref>clipitem-269</linkclipref>
															<mediatype>audio</mediatype>
															<trackindex>1</trackindex>
															<clipindex>8</clipindex>
															<groupindex>1</groupindex>
														</link>
														<link>
															<linkclipref>clipitem-273</linkclipref>
															<mediatype>audio</mediatype>
															<trackindex>2</trackindex>
															<clipindex>8</clipindex>
															<groupindex>1</groupindex>
														</link>
														<logginginfo>
															<description></description>
															<scene></scene>
															<shottake></shottake>
															<lognote>https://www.youtube.com/watch?v=4YVy3LH-nKQ</lognote>
															<good></good>
															<originalvideofilename></originalvideofilename>
															<originalaudiofilename></originalaudiofilename>
														</logginginfo>
														<colorinfo>
															<lut></lut>
															<lut1></lut1>
															<asc_sop></asc_sop>
															<asc_sat></asc_sat>
															<lut2></lut2>
														</colorinfo>
														<labels>
															<label2>Iris</label2>
														</labels>
													</clipitem>
													<transitionitem>
														<start>2934</start>
														<end>2964</end>
														<pproTicksIn>24867607564800</pproTicksIn>
														<pproTicksOut>25121877580800</pproTicksOut>
														<alignment>end-black</alignment>
														<cutPointTicks>254270016000</cutPointTicks>
														<rate>
															<timebase>30</timebase>
															<ntsc>TRUE</ntsc>
														</rate>
														<effect>
															<name>Cross Fade (+3dB)</name>
															<effectid>KGAudioTransCrossFade3dB</effectid>
															<effecttype>transition</effecttype>
															<mediatype>audio</mediatype>
															<wipecode>0</wipecode>
															<wipeaccuracy>100</wipeaccuracy>
															<startratio>0</startratio>
															<endratio>1</endratio>
															<reverse>FALSE</reverse>
														</effect>
													</transitionitem>
													<enabled>TRUE</enabled>
													<locked>FALSE</locked>
													<filter>
														<effect>
															<name>Audio Levels</name>
															<effectid>audiolevels</effectid>
															<effectcategory>audiolevels</effectcategory>
															<effecttype>audiolevels</effecttype>
															<mediatype>audio</mediatype>
															<parameter authoringApp="PremierePro">
																<parameterid>level</parameterid>
																<name>Level</name>
																<valuemin>0</valuemin>
																<valuemax>3.98109</valuemax>
																<value>0.997636</value>
															</parameter>
														</effect>
													</filter>
													<outputchannelindex>2</outputchannelindex>
												</track>
												<track TL.SQTrackAudioKeyframeStyle="0" TL.SQTrackShy="0" TL.SQTrackExpandedHeight="25" TL.SQTrackExpanded="0" MZ.TrackTargeted="0" PannerCurrentValue="0.5" PannerIsInverted="true" PannerStartKeyframe="-91445760000000000,0.5,0,0,0,0,0,0" PannerName="Balance" currentExplodedTrackIndex="0" totalExplodedTrackCount="2" premiereTrackType="Stereo">
													<transitionitem>
														<start>0</start>
														<end>30</end>
														<pproTicksIn>0</pproTicksIn>
														<pproTicksOut>254270016000</pproTicksOut>
														<alignment>start-black</alignment>
														<cutPointTicks>0</cutPointTicks>
														<rate>
															<timebase>30</timebase>
															<ntsc>TRUE</ntsc>
														</rate>
														<effect>
															<name>Cross Fade (+3dB)</name>
															<effectid>KGAudioTransCrossFade3dB</effectid>
															<effecttype>transition</effecttype>
															<mediatype>audio</mediatype>
															<wipecode>0</wipecode>
															<wipeaccuracy>100</wipeaccuracy>
															<startratio>0</startratio>
															<endratio>1</endratio>
															<reverse>FALSE</reverse>
														</effect>
													</transitionitem>
													<clipitem id="clipitem-274" premiereChannelType="stereo">
														<masterclipid>masterclip-8</masterclipid>
														<name>ES_Anamorphic - baegel.mp3</name>
														<enabled>TRUE</enabled>
														<duration>4389</duration>
														<rate>
															<timebase>30</timebase>
															<ntsc>TRUE</ntsc>
														</rate>
														<start>-1</start>
														<end>-1</end>
														<in>348</in>
														<out>3312</out>
														<pproTicksIn>2949532185600</pproTicksIn>
														<pproTicksOut>28071409766400</pproTicksOut>
														<file id="file-8"/>
														<sourcetrack>
															<mediatype>audio</mediatype>
															<trackindex>1</trackindex>
														</sourcetrack>
														<link>
															<linkclipref>clipitem-274</linkclipref>
															<mediatype>audio</mediatype>
															<trackindex>3</trackindex>
															<clipindex>2</clipindex>
															<groupindex>1</groupindex>
														</link>
														<link>
															<linkclipref>clipitem-275</linkclipref>
															<mediatype>audio</mediatype>
															<trackindex>4</trackindex>
															<clipindex>2</clipindex>
															<groupindex>1</groupindex>
														</link>
														<logginginfo>
															<description></description>
															<scene></scene>
															<shottake></shottake>
															<lognote></lognote>
															<good></good>
															<originalvideofilename></originalvideofilename>
															<originalaudiofilename></originalaudiofilename>
														</logginginfo>
														<colorinfo>
															<lut></lut>
															<lut1></lut1>
															<asc_sop></asc_sop>
															<asc_sat></asc_sat>
															<lut2></lut2>
														</colorinfo>
														<labels>
															<label2>Caribbean</label2>
														</labels>
													</clipitem>
													<transitionitem>
														<start>2875</start>
														<end>2964</end>
														<pproTicksIn>24359068800000</pproTicksIn>
														<pproTicksOut>25121877580800</pproTicksOut>
														<alignment>end-black</alignment>
														<cutPointTicks>762808780800</cutPointTicks>
														<rate>
															<timebase>30</timebase>
															<ntsc>TRUE</ntsc>
														</rate>
														<effect>
															<name>Cross Fade (+3dB)</name>
															<effectid>KGAudioTransCrossFade3dB</effectid>
															<effecttype>transition</effecttype>
															<mediatype>audio</mediatype>
															<wipecode>0</wipecode>
															<wipeaccuracy>100</wipeaccuracy>
															<startratio>0</startratio>
															<endratio>1</endratio>
															<reverse>FALSE</reverse>
														</effect>
													</transitionitem>
													<enabled>TRUE</enabled>
													<locked>FALSE</locked>
													<filter>
														<effect>
															<name>Audio Levels</name>
															<effectid>audiolevels</effectid>
															<effectcategory>audiolevels</effectcategory>
															<effecttype>audiolevels</effecttype>
															<mediatype>audio</mediatype>
															<parameter authoringApp="PremierePro">
																<parameterid>level</parameterid>
																<name>Level</name>
																<valuemin>0</valuemin>
																<valuemax>3.98109</valuemax>
																<value>0.706272</value>
															</parameter>
														</effect>
													</filter>
													<outputchannelindex>1</outputchannelindex>
												</track>
												<track TL.SQTrackAudioKeyframeStyle="0" TL.SQTrackShy="0" TL.SQTrackExpandedHeight="25" TL.SQTrackExpanded="0" MZ.TrackTargeted="0" PannerCurrentValue="0.5" PannerIsInverted="true" PannerStartKeyframe="-91445760000000000,0.5,0,0,0,0,0,0" PannerName="Balance" currentExplodedTrackIndex="1" totalExplodedTrackCount="2" premiereTrackType="Stereo">
													<transitionitem>
														<start>0</start>
														<end>30</end>
														<pproTicksIn>0</pproTicksIn>
														<pproTicksOut>254270016000</pproTicksOut>
														<alignment>start-black</alignment>
														<cutPointTicks>0</cutPointTicks>
														<rate>
															<timebase>30</timebase>
															<ntsc>TRUE</ntsc>
														</rate>
														<effect>
															<name>Cross Fade (+3dB)</name>
															<effectid>KGAudioTransCrossFade3dB</effectid>
															<effecttype>transition</effecttype>
															<mediatype>audio</mediatype>
															<wipecode>0</wipecode>
															<wipeaccuracy>100</wipeaccuracy>
															<startratio>0</startratio>
															<endratio>1</endratio>
															<reverse>FALSE</reverse>
														</effect>
													</transitionitem>
													<clipitem id="clipitem-275" premiereChannelType="stereo">
														<masterclipid>masterclip-8</masterclipid>
														<name>ES_Anamorphic - baegel.mp3</name>
														<enabled>TRUE</enabled>
														<duration>4389</duration>
														<rate>
															<timebase>30</timebase>
															<ntsc>TRUE</ntsc>
														</rate>
														<start>-1</start>
														<end>-1</end>
														<in>348</in>
														<out>3312</out>
														<pproTicksIn>2949532185600</pproTicksIn>
														<pproTicksOut>28071409766400</pproTicksOut>
														<file id="file-8"/>
														<sourcetrack>
															<mediatype>audio</mediatype>
															<trackindex>2</trackindex>
														</sourcetrack>
														<link>
															<linkclipref>clipitem-274</linkclipref>
															<mediatype>audio</mediatype>
															<trackindex>3</trackindex>
															<clipindex>2</clipindex>
															<groupindex>1</groupindex>
														</link>
														<link>
															<linkclipref>clipitem-275</linkclipref>
															<mediatype>audio</mediatype>
															<trackindex>4</trackindex>
															<clipindex>2</clipindex>
															<groupindex>1</groupindex>
														</link>
														<logginginfo>
															<description></description>
															<scene></scene>
															<shottake></shottake>
															<lognote></lognote>
															<good></good>
															<originalvideofilename></originalvideofilename>
															<originalaudiofilename></originalaudiofilename>
														</logginginfo>
														<colorinfo>
															<lut></lut>
															<lut1></lut1>
															<asc_sop></asc_sop>
															<asc_sat></asc_sat>
															<lut2></lut2>
														</colorinfo>
														<labels>
															<label2>Caribbean</label2>
														</labels>
													</clipitem>
													<transitionitem>
														<start>2875</start>
														<end>2964</end>
														<pproTicksIn>24359068800000</pproTicksIn>
														<pproTicksOut>25121877580800</pproTicksOut>
														<alignment>end-black</alignment>
														<cutPointTicks>762808780800</cutPointTicks>
														<rate>
															<timebase>30</timebase>
															<ntsc>TRUE</ntsc>
														</rate>
														<effect>
															<name>Cross Fade (+3dB)</name>
															<effectid>KGAudioTransCrossFade3dB</effectid>
															<effecttype>transition</effecttype>
															<mediatype>audio</mediatype>
															<wipecode>0</wipecode>
															<wipeaccuracy>100</wipeaccuracy>
															<startratio>0</startratio>
															<endratio>1</endratio>
															<reverse>FALSE</reverse>
														</effect>
													</transitionitem>
													<enabled>TRUE</enabled>
													<locked>FALSE</locked>
													<filter>
														<effect>
															<name>Audio Levels</name>
															<effectid>audiolevels</effectid>
															<effectcategory>audiolevels</effectcategory>
															<effecttype>audiolevels</effecttype>
															<mediatype>audio</mediatype>
															<parameter authoringApp="PremierePro">
																<parameterid>level</parameterid>
																<name>Level</name>
																<valuemin>0</valuemin>
																<valuemax>3.98109</valuemax>
																<value>0.706272</value>
															</parameter>
														</effect>
													</filter>
													<outputchannelindex>2</outputchannelindex>
												</track>
											</audio>
										</media>
										<timecode>
											<rate>
												<timebase>30</timebase>
												<ntsc>TRUE</ntsc>
											</rate>
											<string>00:00:00:00</string>
											<frame>0</frame>
											<displayformat>NDF</displayformat>
										</timecode>
										<labels>
											<label2>Forest</label2>
										</labels>
										<logginginfo>
											<description></description>
											<scene></scene>
											<shottake></shottake>
											<lognote></lognote>
											<good></good>
											<originalvideofilename></originalvideofilename>
											<originalaudiofilename></originalaudiofilename>
										</logginginfo>
									</sequence>
									<sequence id="sequence-41" TL.SQAudioVisibleBase="0" TL.SQVideoVisibleBase="0" TL.SQVisibleBaseTime="0" TL.SQAVDividerPosition="0.5" TL.SQHideShyTracks="0" TL.SQHeaderWidth="236" Monitor.ProgramZoomOut="19926293587200" Monitor.ProgramZoomIn="0" TL.SQTimePerPixel="0.069092584062642445" AM.TrackVScrollPosition="0" AM.TrackScrollPosition="0" MZ.EditLine="203416012800" MZ.Sequence.PreviewFrameSizeHeight="1080" MZ.Sequence.PreviewFrameSizeWidth="1920" MZ.Sequence.AudioTimeDisplayFormat="200" MZ.Sequence.PreviewRenderingClassID="1297106761" MZ.Sequence.PreviewRenderingPresetCodec="1297107278" MZ.Sequence.PreviewRenderingPresetPath="EncoderPresets/SequencePreview/795454d9-d3c2-429d-9474-923ab13b7018/I-Frame Only MPEG.epr" MZ.Sequence.PreviewUseMaxRenderQuality="false" MZ.Sequence.PreviewUseMaxBitDepth="false" MZ.Sequence.EditingModeGUID="795454d9-d3c2-429d-9474-923ab13b7018" MZ.Sequence.VideoTimeDisplayFormat="103" MZ.WorkOutPoint="25427001600000" MZ.WorkInPoint="0" explodedTracks="true">
										<uuid>1477139a-28c3-4f89-8a19-41411d524f85</uuid>
										<duration>2351</duration>
										<rate>
											<timebase>30</timebase>
											<ntsc>TRUE</ntsc>
										</rate>
										<out>2351</out>
										<name>SCI_3D prints and builds_1.5</name>
										<media>
											<video>
												<format>
													<samplecharacteristics>
														<rate>
															<timebase>30</timebase>
															<ntsc>TRUE</ntsc>
														</rate>
														<codec>
															<name>Apple ProRes 422</name>
															<appspecificdata>
																<appname>Final Cut Pro</appname>
																<appmanufacturer>Apple Inc.</appmanufacturer>
																<appversion>7.0</appversion>
																<data>
																	<qtcodec>
																		<codecname>Apple ProRes 422</codecname>
																		<codectypename>Apple ProRes 422</codectypename>
																		<codectypecode>apcn</codectypecode>
																		<codecvendorcode>appl</codecvendorcode>
																		<spatialquality>1024</spatialquality>
																		<temporalquality>0</temporalquality>
																		<keyframerate>0</keyframerate>
																		<datarate>0</datarate>
																	</qtcodec>
																</data>
															</appspecificdata>
														</codec>
														<width>1920</width>
														<height>1080</height>
														<anamorphic>FALSE</anamorphic>
														<pixelaspectratio>square</pixelaspectratio>
														<fielddominance>none</fielddominance>
														<colordepth>24</colordepth>
													</samplecharacteristics>
												</format>
												<track TL.SQTrackShy="0" TL.SQTrackExpandedHeight="25" TL.SQTrackExpanded="0" MZ.TrackTargeted="1">
													<clipitem id="clipitem-276">
														<masterclipid>masterclip-136</masterclipid>
														<name>(3D Prints&amp;Builds)_3D Printed Tools #5 - Useful and Functional 3D Prints_rbFzWOcB3TA_YT.mp4</name>
														<enabled>TRUE</enabled>
														<duration>17583</duration>
														<rate>
															<timebase>30</timebase>
															<ntsc>TRUE</ntsc>
														</rate>
														<start>0</start>
														<end>197</end>
														<in>7974</in>
														<out>8171</out>
														<pproTicksIn>67584970252800</pproTicksIn>
														<pproTicksOut>69254676691200</pproTicksOut>
														<alphatype>none</alphatype>
														<pixelaspectratio>square</pixelaspectratio>
														<anamorphic>FALSE</anamorphic>
														<file id="file-133">
															<name>(3D Prints&amp;Builds)_3D Printed Tools #5 - Useful and Functional 3D Prints_rbFzWOcB3TA_YT.mp4</name>
															<pathurl>file://localhost/Volumes/Satisfactum%20Satisfactorum/03_Weekly%20(Project%20Files,%20Main%20Segments)/OSTV/OSTV%2023-08-21/3_Raw%20Files/(3D%20Prints&amp;Builds)_3D%20Printed%20Tools%20#5%20-%20Useful%20and%20Functional%203D%20Prints_rbFzWOcB3TA_YT.mp4</pathurl>
															<rate>
																<timebase>60</timebase>
																<ntsc>TRUE</ntsc>
															</rate>
															<duration>35167</duration>
															<timecode>
																<rate>
																	<timebase>60</timebase>
																	<ntsc>TRUE</ntsc>
																</rate>
																<string>00:00:00:00</string>
																<frame>0</frame>
																<displayformat>NDF</displayformat>
															</timecode>
															<media>
																<video>
																	<samplecharacteristics>
																		<rate>
																			<timebase>60</timebase>
																			<ntsc>TRUE</ntsc>
																		</rate>
																		<width>1920</width>
																		<height>1080</height>
																		<anamorphic>FALSE</anamorphic>
																		<pixelaspectratio>square</pixelaspectratio>
																		<fielddominance>none</fielddominance>
																	</samplecharacteristics>
																</video>
																<audio>
																	<samplecharacteristics>
																		<depth>16</depth>
																		<samplerate>44100</samplerate>
																	</samplecharacteristics>
																	<channelcount>2</channelcount>
																</audio>
															</media>
														</file>
														<filter>
															<effect>
																<name>Basic Motion</name>
																<effectid>basic</effectid>
																<effectcategory>motion</effectcategory>
																<effecttype>motion</effecttype>
																<mediatype>video</mediatype>
																<pproBypass>false</pproBypass>
																<parameter authoringApp="PremierePro">
																	<parameterid>scale</parameterid>
																	<name>Scale</name>
																	<valuemin>0</valuemin>
																	<valuemax>1000</valuemax>
																	<value>132</value>
																</parameter>
																<parameter authoringApp="PremierePro">
																	<parameterid>rotation</parameterid>
																	<name>Rotation</name>
																	<valuemin>-8640</valuemin>
																	<valuemax>8640</valuemax>
																	<value>0</value>
																</parameter>
																<parameter authoringApp="PremierePro">
																	<parameterid>center</parameterid>
																	<name>Center</name>
																	<value>
																		<horiz>0</horiz>
																		<vert>0</vert>
																	</value>
																</parameter>
																<parameter authoringApp="PremierePro">
																	<parameterid>centerOffset</parameterid>
																	<name>Anchor Point</name>
																	<value>
																		<horiz>0</horiz>
																		<vert>0</vert>
																	</value>
																</parameter>
																<parameter authoringApp="PremierePro">
																	<parameterid>antiflicker</parameterid>
																	<name>Anti-flicker Filter</name>
																	<valuemin>0.0</valuemin>
																	<valuemax>1.0</valuemax>
																	<value>0</value>
																</parameter>
															</effect>
														</filter>
														<logginginfo>
															<description></description>
															<scene></scene>
															<shottake></shottake>
															<lognote>https://www.youtube.com/watch?v=rbFzWOcB3TA</lognote>
															<good></good>
															<originalvideofilename></originalvideofilename>
															<originalaudiofilename></originalaudiofilename>
														</logginginfo>
														<colorinfo>
															<lut></lut>
															<lut1></lut1>
															<asc_sop></asc_sop>
															<asc_sat></asc_sat>
															<lut2></lut2>
														</colorinfo>
														<labels>
															<label2>Iris</label2>
														</labels>
													</clipitem>
													<clipitem id="clipitem-277">
														<masterclipid>masterclip-136</masterclipid>
														<name>(3D Prints&amp;Builds)_3D Printed Tools #5 - Useful and Functional 3D Prints_rbFzWOcB3TA_YT.mp4</name>
														<enabled>TRUE</enabled>
														<duration>17583</duration>
														<rate>
															<timebase>30</timebase>
															<ntsc>TRUE</ntsc>
														</rate>
														<start>197</start>
														<end>356</end>
														<in>8171</in>
														<out>8330</out>
														<pproTicksIn>69254676691200</pproTicksIn>
														<pproTicksOut>70602307776000</pproTicksOut>
														<alphatype>none</alphatype>
														<file id="file-133"/>
														<logginginfo>
															<description></description>
															<scene></scene>
															<shottake></shottake>
															<lognote>https://www.youtube.com/watch?v=rbFzWOcB3TA</lognote>
															<good></good>
															<originalvideofilename></originalvideofilename>
															<originalaudiofilename></originalaudiofilename>
														</logginginfo>
														<colorinfo>
															<lut></lut>
															<lut1></lut1>
															<asc_sop></asc_sop>
															<asc_sat></asc_sat>
															<lut2></lut2>
														</colorinfo>
														<labels>
															<label2>Iris</label2>
														</labels>
													</clipitem>
													<clipitem id="clipitem-278">
														<masterclipid>masterclip-136</masterclipid>
														<name>(3D Prints&amp;Builds)_3D Printed Tools #5 - Useful and Functional 3D Prints_rbFzWOcB3TA_YT.mp4</name>
														<enabled>TRUE</enabled>
														<duration>17583</duration>
														<rate>
															<timebase>30</timebase>
															<ntsc>TRUE</ntsc>
														</rate>
														<start>356</start>
														<end>591</end>
														<in>9178</in>
														<out>9413</out>
														<pproTicksIn>77789673561600</pproTicksIn>
														<pproTicksOut>79781455353600</pproTicksOut>
														<alphatype>none</alphatype>
														<file id="file-133"/>
														<logginginfo>
															<description></description>
															<scene></scene>
															<shottake></shottake>
															<lognote>https://www.youtube.com/watch?v=rbFzWOcB3TA</lognote>
															<good></good>
															<originalvideofilename></originalvideofilename>
															<originalaudiofilename></originalaudiofilename>
														</logginginfo>
														<colorinfo>
															<lut></lut>
															<lut1></lut1>
															<asc_sop></asc_sop>
															<asc_sat></asc_sat>
															<lut2></lut2>
														</colorinfo>
														<labels>
															<label2>Iris</label2>
														</labels>
													</clipitem>
													<clipitem id="clipitem-279">
														<masterclipid>masterclip-136</masterclipid>
														<name>(3D Prints&amp;Builds)_3D Printed Tools #5 - Useful and Functional 3D Prints_rbFzWOcB3TA_YT.mp4</name>
														<enabled>TRUE</enabled>
														<duration>17583</duration>
														<rate>
															<timebase>30</timebase>
															<ntsc>TRUE</ntsc>
														</rate>
														<start>591</start>
														<end>922</end>
														<in>11246</in>
														<out>11577</out>
														<pproTicksIn>95317353331200</pproTicksIn>
														<pproTicksOut>98122799174400</pproTicksOut>
														<alphatype>none</alphatype>
														<file id="file-133"/>
														<filter>
															<effect>
																<name>Basic Motion</name>
																<effectid>basic</effectid>
																<effectcategory>motion</effectcategory>
																<effecttype>motion</effecttype>
																<mediatype>video</mediatype>
																<pproBypass>false</pproBypass>
																<parameter authoringApp="PremierePro">
																	<parameterid>scale</parameterid>
																	<name>Scale</name>
																	<valuemin>0</valuemin>
																	<valuemax>1000</valuemax>
																	<value>133</value>
																</parameter>
																<parameter authoringApp="PremierePro">
																	<parameterid>rotation</parameterid>
																	<name>Rotation</name>
																	<valuemin>-8640</valuemin>
																	<valuemax>8640</valuemax>
																	<value>0</value>
																</parameter>
																<parameter authoringApp="PremierePro">
																	<parameterid>center</parameterid>
																	<name>Center</name>
																	<value>
																		<horiz>0</horiz>
																		<vert>0</vert>
																	</value>
																</parameter>
																<parameter authoringApp="PremierePro">
																	<parameterid>centerOffset</parameterid>
																	<name>Anchor Point</name>
																	<value>
																		<horiz>0</horiz>
																		<vert>0</vert>
																	</value>
																</parameter>
																<parameter authoringApp="PremierePro">
																	<parameterid>antiflicker</parameterid>
																	<name>Anti-flicker Filter</name>
																	<valuemin>0.0</valuemin>
																	<valuemax>1.0</valuemax>
																	<value>0</value>
																</parameter>
															</effect>
														</filter>
														<logginginfo>
															<description></description>
															<scene></scene>
															<shottake></shottake>
															<lognote>https://www.youtube.com/watch?v=rbFzWOcB3TA</lognote>
															<good></good>
															<originalvideofilename></originalvideofilename>
															<originalaudiofilename></originalaudiofilename>
														</logginginfo>
														<colorinfo>
															<lut></lut>
															<lut1></lut1>
															<asc_sop></asc_sop>
															<asc_sat></asc_sat>
															<lut2></lut2>
														</colorinfo>
														<labels>
															<label2>Iris</label2>
														</labels>
													</clipitem>
													<clipitem id="clipitem-280">
														<masterclipid>masterclip-136</masterclipid>
														<name>(3D Prints&amp;Builds)_3D Printed Tools #5 - Useful and Functional 3D Prints_rbFzWOcB3TA_YT.mp4</name>
														<enabled>TRUE</enabled>
														<duration>17583</duration>
														<rate>
															<timebase>30</timebase>
															<ntsc>TRUE</ntsc>
														</rate>
														<start>922</start>
														<end>1012</end>
														<in>11577</in>
														<out>11667</out>
														<pproTicksIn>98122799174400</pproTicksIn>
														<pproTicksOut>98885609222400</pproTicksOut>
														<alphatype>none</alphatype>
														<file id="file-133"/>
														<logginginfo>
															<description></description>
															<scene></scene>
															<shottake></shottake>
															<lognote>https://www.youtube.com/watch?v=rbFzWOcB3TA</lognote>
															<good></good>
															<originalvideofilename></originalvideofilename>
															<originalaudiofilename></originalaudiofilename>
														</logginginfo>
														<colorinfo>
															<lut></lut>
															<lut1></lut1>
															<asc_sop></asc_sop>
															<asc_sat></asc_sat>
															<lut2></lut2>
														</colorinfo>
														<labels>
															<label2>Iris</label2>
														</labels>
													</clipitem>
													<clipitem id="clipitem-281">
														<masterclipid>masterclip-136</masterclipid>
														<name>(3D Prints&amp;Builds)_3D Printed Tools #5 - Useful and Functional 3D Prints_rbFzWOcB3TA_YT.mp4</name>
														<enabled>TRUE</enabled>
														<duration>17583</duration>
														<rate>
															<timebase>30</timebase>
															<ntsc>TRUE</ntsc>
														</rate>
														<start>1012</start>
														<end>1159</end>
														<in>11670</in>
														<out>11817</out>
														<pproTicksIn>98911036224000</pproTicksIn>
														<pproTicksOut>100156959302400</pproTicksOut>
														<alphatype>none</alphatype>
														<file id="file-133"/>
														<filter>
															<effect>
																<name>Basic Motion</name>
																<effectid>basic</effectid>
																<effectcategory>motion</effectcategory>
																<effecttype>motion</effecttype>
																<mediatype>video</mediatype>
																<pproBypass>false</pproBypass>
																<parameter authoringApp="PremierePro">
																	<parameterid>scale</parameterid>
																	<name>Scale</name>
																	<valuemin>0</valuemin>
																	<valuemax>1000</valuemax>
																	<value>120</value>
																</parameter>
																<parameter authoringApp="PremierePro">
																	<parameterid>rotation</parameterid>
																	<name>Rotation</name>
																	<valuemin>-8640</valuemin>
																	<valuemax>8640</valuemax>
																	<value>0</value>
																</parameter>
																<parameter authoringApp="PremierePro">
																	<parameterid>center</parameterid>
																	<name>Center</name>
																	<value>
																		<horiz>0</horiz>
																		<vert>0</vert>
																	</value>
																</parameter>
																<parameter authoringApp="PremierePro">
																	<parameterid>centerOffset</parameterid>
																	<name>Anchor Point</name>
																	<value>
																		<horiz>0</horiz>
																		<vert>0</vert>
																	</value>
																</parameter>
																<parameter authoringApp="PremierePro">
																	<parameterid>antiflicker</parameterid>
																	<name>Anti-flicker Filter</name>
																	<valuemin>0.0</valuemin>
																	<valuemax>1.0</valuemax>
																	<value>0</value>
																</parameter>
															</effect>
														</filter>
														<logginginfo>
															<description></description>
															<scene></scene>
															<shottake></shottake>
															<lognote>https://www.youtube.com/watch?v=rbFzWOcB3TA</lognote>
															<good></good>
															<originalvideofilename></originalvideofilename>
															<originalaudiofilename></originalaudiofilename>
														</logginginfo>
														<colorinfo>
															<lut></lut>
															<lut1></lut1>
															<asc_sop></asc_sop>
															<asc_sat></asc_sat>
															<lut2></lut2>
														</colorinfo>
														<labels>
															<label2>Iris</label2>
														</labels>
													</clipitem>
													<clipitem id="clipitem-282">
														<masterclipid>masterclip-136</masterclipid>
														<name>(3D Prints&amp;Builds)_3D Printed Tools #5 - Useful and Functional 3D Prints_rbFzWOcB3TA_YT.mp4</name>
														<enabled>TRUE</enabled>
														<duration>17583</duration>
														<rate>
															<timebase>30</timebase>
															<ntsc>TRUE</ntsc>
														</rate>
														<start>1159</start>
														<end>1703</end>
														<in>12385</in>
														<out>12929</out>
														<pproTicksIn>104971138272000</pproTicksIn>
														<pproTicksOut>109581901228800</pproTicksOut>
														<alphatype>none</alphatype>
														<file id="file-133"/>
														<logginginfo>
															<description></description>
															<scene></scene>
															<shottake></shottake>
															<lognote>https://www.youtube.com/watch?v=rbFzWOcB3TA</lognote>
															<good></good>
															<originalvideofilename></originalvideofilename>
															<originalaudiofilename></originalaudiofilename>
														</logginginfo>
														<colorinfo>
															<lut></lut>
															<lut1></lut1>
															<asc_sop></asc_sop>
															<asc_sat></asc_sat>
															<lut2></lut2>
														</colorinfo>
														<labels>
															<label2>Iris</label2>
														</labels>
													</clipitem>
													<clipitem id="clipitem-283">
														<masterclipid>masterclip-136</masterclipid>
														<name>(3D Prints&amp;Builds)_3D Printed Tools #5 - Useful and Functional 3D Prints_rbFzWOcB3TA_YT.mp4</name>
														<enabled>TRUE</enabled>
														<duration>17583</duration>
														<rate>
															<timebase>30</timebase>
															<ntsc>TRUE</ntsc>
														</rate>
														<start>1703</start>
														<end>1966</end>
														<in>13016</in>
														<out>13279</out>
														<pproTicksIn>110319284275200</pproTicksIn>
														<pproTicksOut>112548384748800</pproTicksOut>
														<alphatype>none</alphatype>
														<file id="file-133"/>
														<logginginfo>
															<description></description>
															<scene></scene>
															<shottake></shottake>
															<lognote>https://www.youtube.com/watch?v=rbFzWOcB3TA</lognote>
															<good></good>
															<originalvideofilename></originalvideofilename>
															<originalaudiofilename></originalaudiofilename>
														</logginginfo>
														<colorinfo>
															<lut></lut>
															<lut1></lut1>
															<asc_sop></asc_sop>
															<asc_sat></asc_sat>
															<lut2></lut2>
														</colorinfo>
														<labels>
															<label2>Iris</label2>
														</labels>
													</clipitem>
													<clipitem id="clipitem-284">
														<masterclipid>masterclip-136</masterclipid>
														<name>(3D Prints&amp;Builds)_3D Printed Tools #5 - Useful and Functional 3D Prints_rbFzWOcB3TA_YT.mp4</name>
														<enabled>TRUE</enabled>
														<duration>17583</duration>
														<rate>
															<timebase>30</timebase>
															<ntsc>TRUE</ntsc>
														</rate>
														<start>1966</start>
														<end>2351</end>
														<in>13279</in>
														<out>13664</out>
														<pproTicksIn>112548384748800</pproTicksIn>
														<pproTicksOut>115811516620800</pproTicksOut>
														<alphatype>none</alphatype>
														<file id="file-133"/>
														<filter>
															<effect>
																<name>Basic Motion</name>
																<effectid>basic</effectid>
																<effectcategory>motion</effectcategory>
																<effecttype>motion</effecttype>
																<mediatype>video</mediatype>
																<pproBypass>false</pproBypass>
																<parameter authoringApp="PremierePro">
																	<parameterid>scale</parameterid>
																	<name>Scale</name>
																	<valuemin>0</valuemin>
																	<valuemax>1000</valuemax>
																	<value>133</value>
																</parameter>
																<parameter authoringApp="PremierePro">
																	<parameterid>rotation</parameterid>
																	<name>Rotation</name>
																	<valuemin>-8640</valuemin>
																	<valuemax>8640</valuemax>
																	<value>0</value>
																</parameter>
																<parameter authoringApp="PremierePro">
																	<parameterid>center</parameterid>
																	<name>Center</name>
																	<value>
																		<horiz>0</horiz>
																		<vert>0</vert>
																	</value>
																</parameter>
																<parameter authoringApp="PremierePro">
																	<parameterid>centerOffset</parameterid>
																	<name>Anchor Point</name>
																	<value>
																		<horiz>0</horiz>
																		<vert>0</vert>
																	</value>
																</parameter>
																<parameter authoringApp="PremierePro">
																	<parameterid>antiflicker</parameterid>
																	<name>Anti-flicker Filter</name>
																	<valuemin>0.0</valuemin>
																	<valuemax>1.0</valuemax>
																	<value>0</value>
																</parameter>
															</effect>
														</filter>
														<logginginfo>
															<description></description>
															<scene></scene>
															<shottake></shottake>
															<lognote>https://www.youtube.com/watch?v=rbFzWOcB3TA</lognote>
															<good></good>
															<originalvideofilename></originalvideofilename>
															<originalaudiofilename></originalaudiofilename>
														</logginginfo>
														<colorinfo>
															<lut></lut>
															<lut1></lut1>
															<asc_sop></asc_sop>
															<asc_sat></asc_sat>
															<lut2></lut2>
														</colorinfo>
														<labels>
															<label2>Iris</label2>
														</labels>
													</clipitem>
													<enabled>TRUE</enabled>
													<locked>FALSE</locked>
												</track>
												<track TL.SQTrackShy="0" TL.SQTrackExpandedHeight="25" TL.SQTrackExpanded="0" MZ.TrackTargeted="0">
													<clipitem id="clipitem-285">
														<masterclipid>masterclip-66</masterclipid>
														<name>3D Prints&amp;Builds </name>
														<enabled>TRUE</enabled>
														<duration>5844</duration>
														<rate>
															<timebase>30</timebase>
															<ntsc>TRUE</ntsc>
														</rate>
														<start>0</start>
														<end>2351</end>
														<in>0</in>
														<out>2351</out>
														<pproTicksIn>0</pproTicksIn>
														<pproTicksOut>19926293587200</pproTicksOut>
														<alphatype>straight</alphatype>
														<file id="file-66"/>
														<filter>
															<effect>
																<name>Basic Motion</name>
																<effectid>basic</effectid>
																<effectcategory>motion</effectcategory>
																<effecttype>motion</effecttype>
																<mediatype>video</mediatype>
																<pproBypass>false</pproBypass>
																<parameter authoringApp="PremierePro">
																	<parameterid>scale</parameterid>
																	<name>Scale</name>
																	<valuemin>0</valuemin>
																	<valuemax>1000</valuemax>
																	<value>150</value>
																</parameter>
																<parameter authoringApp="PremierePro">
																	<parameterid>rotation</parameterid>
																	<name>Rotation</name>
																	<valuemin>-8640</valuemin>
																	<valuemax>8640</valuemax>
																	<value>0</value>
																</parameter>
																<parameter authoringApp="PremierePro">
																	<parameterid>center</parameterid>
																	<name>Center</name>
																	<value>
																		<horiz>0</horiz>
																		<vert>0</vert>
																	</value>
																</parameter>
																<parameter authoringApp="PremierePro">
																	<parameterid>centerOffset</parameterid>
																	<name>Anchor Point</name>
																	<value>
																		<horiz>0</horiz>
																		<vert>0</vert>
																	</value>
																</parameter>
																<parameter authoringApp="PremierePro">
																	<parameterid>antiflicker</parameterid>
																	<name>Anti-flicker Filter</name>
																	<valuemin>0.0</valuemin>
																	<valuemax>1.0</valuemax>
																	<value>0</value>
																</parameter>
															</effect>
														</filter>
														<logginginfo>
															<description></description>
															<scene></scene>
															<shottake></shottake>
															<lognote></lognote>
															<good></good>
															<originalvideofilename></originalvideofilename>
															<originalaudiofilename></originalaudiofilename>
														</logginginfo>
														<colorinfo>
															<lut></lut>
															<lut1></lut1>
															<asc_sop></asc_sop>
															<asc_sat></asc_sat>
															<lut2></lut2>
														</colorinfo>
														<labels>
															<label2>Rose</label2>
														</labels>
													</clipitem>
													<enabled>TRUE</enabled>
													<locked>FALSE</locked>
												</track>
												<track TL.SQTrackShy="0" TL.SQTrackExpandedHeight="25" TL.SQTrackExpanded="0" MZ.TrackTargeted="0">
													<clipitem id="clipitem-286">
														<masterclipid>masterclip-106</masterclipid>
														<name>Bug and Lower Nest</name>
														<enabled>TRUE</enabled>
														<duration>14721</duration>
														<rate>
															<timebase>30</timebase>
															<ntsc>TRUE</ntsc>
														</rate>
														<start>0</start>
														<end>2351</end>
														<in>0</in>
														<out>2351</out>
														<pproTicksIn>0</pproTicksIn>
														<pproTicksOut>19926293587200</pproTicksOut>
														<sequence id="sequence-1"/>
														<labels>
															<label2>Cerulean</label2>
														</labels>
													</clipitem>
													<enabled>TRUE</enabled>
													<locked>FALSE</locked>
												</track>
											</video>
											<audio>
												<numOutputChannels>2</numOutputChannels>
												<format>
													<samplecharacteristics>
														<depth>16</depth>
														<samplerate>44100</samplerate>
													</samplecharacteristics>
												</format>
												<outputs>
													<group>
														<index>1</index>
														<numchannels>1</numchannels>
														<downmix>0</downmix>
														<channel>
															<index>1</index>
														</channel>
													</group>
													<group>
														<index>2</index>
														<numchannels>1</numchannels>
														<downmix>0</downmix>
														<channel>
															<index>2</index>
														</channel>
													</group>
												</outputs>
												<track TL.SQTrackAudioKeyframeStyle="0" TL.SQTrackShy="0" TL.SQTrackExpandedHeight="25" TL.SQTrackExpanded="0" MZ.TrackTargeted="1" PannerCurrentValue="0.5" PannerIsInverted="true" PannerStartKeyframe="-91445760000000000,0.5,0,0,0,0,0,0" PannerName="Balance" currentExplodedTrackIndex="0" totalExplodedTrackCount="2" premiereTrackType="Stereo">
													<transitionitem>
														<start>0</start>
														<end>30</end>
														<pproTicksIn>0</pproTicksIn>
														<pproTicksOut>254270016000</pproTicksOut>
														<alignment>start-black</alignment>
														<cutPointTicks>0</cutPointTicks>
														<rate>
															<timebase>30</timebase>
															<ntsc>TRUE</ntsc>
														</rate>
														<effect>
															<name>Cross Fade (+3dB)</name>
															<effectid>KGAudioTransCrossFade3dB</effectid>
															<effecttype>transition</effecttype>
															<mediatype>audio</mediatype>
															<wipecode>0</wipecode>
															<wipeaccuracy>100</wipeaccuracy>
															<startratio>0</startratio>
															<endratio>1</endratio>
															<reverse>FALSE</reverse>
														</effect>
													</transitionitem>
													<clipitem id="clipitem-287" premiereChannelType="stereo">
														<masterclipid>masterclip-9</masterclipid>
														<name>Steven Beddall - Movie Date.mp3</name>
														<enabled>TRUE</enabled>
														<duration>4015</duration>
														<rate>
															<timebase>30</timebase>
															<ntsc>TRUE</ntsc>
														</rate>
														<start>-1</start>
														<end>-1</end>
														<in>271</in>
														<out>2622</out>
														<pproTicksIn>2296905811200</pproTicksIn>
														<pproTicksOut>22223199398400</pproTicksOut>
														<file id="file-9"/>
														<sourcetrack>
															<mediatype>audio</mediatype>
															<trackindex>1</trackindex>
														</sourcetrack>
														<link>
															<linkclipref>clipitem-287</linkclipref>
															<mediatype>audio</mediatype>
															<trackindex>1</trackindex>
															<clipindex>2</clipindex>
															<groupindex>1</groupindex>
														</link>
														<link>
															<linkclipref>clipitem-288</linkclipref>
															<mediatype>audio</mediatype>
															<trackindex>2</trackindex>
															<clipindex>2</clipindex>
															<groupindex>1</groupindex>
														</link>
														<logginginfo>
															<description></description>
															<scene></scene>
															<shottake></shottake>
															<lognote></lognote>
															<good></good>
															<originalvideofilename></originalvideofilename>
															<originalaudiofilename></originalaudiofilename>
														</logginginfo>
														<colorinfo>
															<lut></lut>
															<lut1></lut1>
															<asc_sop></asc_sop>
															<asc_sat></asc_sat>
															<lut2></lut2>
														</colorinfo>
														<labels>
															<label2>Cerulean</label2>
														</labels>
													</clipitem>
													<transitionitem>
														<start>2262</start>
														<end>2351</end>
														<pproTicksIn>19163485440000</pproTicksIn>
														<pproTicksOut>19926293587200</pproTicksOut>
														<alignment>end-black</alignment>
														<cutPointTicks>762808147200</cutPointTicks>
														<rate>
															<timebase>30</timebase>
															<ntsc>TRUE</ntsc>
														</rate>
														<effect>
															<name>Cross Fade (+3dB)</name>
															<effectid>KGAudioTransCrossFade3dB</effectid>
															<effecttype>transition</effecttype>
															<mediatype>audio</mediatype>
															<wipecode>0</wipecode>
															<wipeaccuracy>100</wipeaccuracy>
															<startratio>0</startratio>
															<endratio>1</endratio>
															<reverse>FALSE</reverse>
														</effect>
													</transitionitem>
													<enabled>TRUE</enabled>
													<locked>FALSE</locked>
													<filter>
														<effect>
															<name>Audio Levels</name>
															<effectid>audiolevels</effectid>
															<effectcategory>audiolevels</effectcategory>
															<effecttype>audiolevels</effecttype>
															<mediatype>audio</mediatype>
															<parameter authoringApp="PremierePro">
																<parameterid>level</parameterid>
																<name>Level</name>
																<valuemin>0</valuemin>
																<valuemax>3.98109</valuemax>
																<value>0.706272</value>
															</parameter>
														</effect>
													</filter>
													<outputchannelindex>1</outputchannelindex>
												</track>
												<track TL.SQTrackAudioKeyframeStyle="0" TL.SQTrackShy="0" TL.SQTrackExpandedHeight="25" TL.SQTrackExpanded="0" MZ.TrackTargeted="1" PannerCurrentValue="0.5" PannerIsInverted="true" PannerStartKeyframe="-91445760000000000,0.5,0,0,0,0,0,0" PannerName="Balance" currentExplodedTrackIndex="1" totalExplodedTrackCount="2" premiereTrackType="Stereo">
													<transitionitem>
														<start>0</start>
														<end>30</end>
														<pproTicksIn>0</pproTicksIn>
														<pproTicksOut>254270016000</pproTicksOut>
														<alignment>start-black</alignment>
														<cutPointTicks>0</cutPointTicks>
														<rate>
															<timebase>30</timebase>
															<ntsc>TRUE</ntsc>
														</rate>
														<effect>
															<name>Cross Fade (+3dB)</name>
															<effectid>KGAudioTransCrossFade3dB</effectid>
															<effecttype>transition</effecttype>
															<mediatype>audio</mediatype>
															<wipecode>0</wipecode>
															<wipeaccuracy>100</wipeaccuracy>
															<startratio>0</startratio>
															<endratio>1</endratio>
															<reverse>FALSE</reverse>
														</effect>
													</transitionitem>
													<clipitem id="clipitem-288" premiereChannelType="stereo">
														<masterclipid>masterclip-9</masterclipid>
														<name>Steven Beddall - Movie Date.mp3</name>
														<enabled>TRUE</enabled>
														<duration>4015</duration>
														<rate>
															<timebase>30</timebase>
															<ntsc>TRUE</ntsc>
														</rate>
														<start>-1</start>
														<end>-1</end>
														<in>271</in>
														<out>2622</out>
														<pproTicksIn>2296905811200</pproTicksIn>
														<pproTicksOut>22223199398400</pproTicksOut>
														<file id="file-9"/>
														<sourcetrack>
															<mediatype>audio</mediatype>
															<trackindex>2</trackindex>
														</sourcetrack>
														<link>
															<linkclipref>clipitem-287</linkclipref>
															<mediatype>audio</mediatype>
															<trackindex>1</trackindex>
															<clipindex>2</clipindex>
															<groupindex>1</groupindex>
														</link>
														<link>
															<linkclipref>clipitem-288</linkclipref>
															<mediatype>audio</mediatype>
															<trackindex>2</trackindex>
															<clipindex>2</clipindex>
															<groupindex>1</groupindex>
														</link>
														<logginginfo>
															<description></description>
															<scene></scene>
															<shottake></shottake>
															<lognote></lognote>
															<good></good>
															<originalvideofilename></originalvideofilename>
															<originalaudiofilename></originalaudiofilename>
														</logginginfo>
														<colorinfo>
															<lut></lut>
															<lut1></lut1>
															<asc_sop></asc_sop>
															<asc_sat></asc_sat>
															<lut2></lut2>
														</colorinfo>
														<labels>
															<label2>Cerulean</label2>
														</labels>
													</clipitem>
													<transitionitem>
														<start>2262</start>
														<end>2351</end>
														<pproTicksIn>19163485440000</pproTicksIn>
														<pproTicksOut>19926293587200</pproTicksOut>
														<alignment>end-black</alignment>
														<cutPointTicks>762808147200</cutPointTicks>
														<rate>
															<timebase>30</timebase>
															<ntsc>TRUE</ntsc>
														</rate>
														<effect>
															<name>Cross Fade (+3dB)</name>
															<effectid>KGAudioTransCrossFade3dB</effectid>
															<effecttype>transition</effecttype>
															<mediatype>audio</mediatype>
															<wipecode>0</wipecode>
															<wipeaccuracy>100</wipeaccuracy>
															<startratio>0</startratio>
															<endratio>1</endratio>
															<reverse>FALSE</reverse>
														</effect>
													</transitionitem>
													<enabled>TRUE</enabled>
													<locked>FALSE</locked>
													<filter>
														<effect>
															<name>Audio Levels</name>
															<effectid>audiolevels</effectid>
															<effectcategory>audiolevels</effectcategory>
															<effecttype>audiolevels</effecttype>
															<mediatype>audio</mediatype>
															<parameter authoringApp="PremierePro">
																<parameterid>level</parameterid>
																<name>Level</name>
																<valuemin>0</valuemin>
																<valuemax>3.98109</valuemax>
																<value>0.706272</value>
															</parameter>
														</effect>
													</filter>
													<outputchannelindex>2</outputchannelindex>
												</track>
											</audio>
										</media>
										<timecode>
											<rate>
												<timebase>30</timebase>
												<ntsc>TRUE</ntsc>
											</rate>
											<string>00:00:00:00</string>
											<frame>0</frame>
											<displayformat>NDF</displayformat>
										</timecode>
										<labels>
											<label2>Forest</label2>
										</labels>
										<logginginfo>
											<description></description>
											<scene></scene>
											<shottake></shottake>
											<lognote></lognote>
											<good></good>
											<originalvideofilename></originalvideofilename>
											<originalaudiofilename></originalaudiofilename>
										</logginginfo>
									</sequence>
									<sequence id="sequence-42" TL.SQAudioVisibleBase="0" TL.SQVideoVisibleBase="0" TL.SQVisibleBaseTime="0" TL.SQAVDividerPosition="0.5" TL.SQHideShyTracks="0" TL.SQHeaderWidth="236" Monitor.ProgramZoomOut="34665478848000" Monitor.ProgramZoomIn="0" TL.SQTimePerPixel="0.13818516812528672" AM.TrackVScrollPosition="0" AM.TrackScrollPosition="0" MZ.EditLine="0" MZ.Sequence.PreviewFrameSizeHeight="1080" MZ.Sequence.PreviewFrameSizeWidth="1920" MZ.Sequence.AudioTimeDisplayFormat="200" MZ.Sequence.PreviewRenderingClassID="1297106761" MZ.Sequence.PreviewRenderingPresetCodec="1297107278" MZ.Sequence.PreviewRenderingPresetPath="EncoderPresets/SequencePreview/795454d9-d3c2-429d-9474-923ab13b7018/I-Frame Only MPEG.epr" MZ.Sequence.PreviewUseMaxRenderQuality="false" MZ.Sequence.PreviewUseMaxBitDepth="false" MZ.Sequence.EditingModeGUID="795454d9-d3c2-429d-9474-923ab13b7018" MZ.Sequence.VideoTimeDisplayFormat="103" MZ.WorkOutPoint="34665478848000" MZ.WorkInPoint="0" explodedTracks="true">
										<uuid>1c3f7145-d328-4627-a7fd-6e8381248094</uuid>
										<duration>4090</duration>
										<rate>
											<timebase>30</timebase>
											<ntsc>TRUE</ntsc>
										</rate>
										<out>4090</out>
										<name>FND_droolsss_2.5</name>
										<media>
											<video>
												<format>
													<samplecharacteristics>
														<rate>
															<timebase>30</timebase>
															<ntsc>TRUE</ntsc>
														</rate>
														<codec>
															<name>Apple ProRes 422</name>
															<appspecificdata>
																<appname>Final Cut Pro</appname>
																<appmanufacturer>Apple Inc.</appmanufacturer>
																<appversion>7.0</appversion>
																<data>
																	<qtcodec>
																		<codecname>Apple ProRes 422</codecname>
																		<codectypename>Apple ProRes 422</codectypename>
																		<codectypecode>apcn</codectypecode>
																		<codecvendorcode>appl</codecvendorcode>
																		<spatialquality>1024</spatialquality>
																		<temporalquality>0</temporalquality>
																		<keyframerate>0</keyframerate>
																		<datarate>0</datarate>
																	</qtcodec>
																</data>
															</appspecificdata>
														</codec>
														<width>1920</width>
														<height>1080</height>
														<anamorphic>FALSE</anamorphic>
														<pixelaspectratio>square</pixelaspectratio>
														<fielddominance>none</fielddominance>
														<colordepth>24</colordepth>
													</samplecharacteristics>
												</format>
												<track TL.SQTrackShy="0" TL.SQTrackExpandedHeight="25" TL.SQTrackExpanded="0" MZ.TrackTargeted="1">
													<clipitem id="clipitem-289">
														<masterclipid>masterclip-137</masterclipid>
														<name>(Droolsss)_EASY CHICKEN BIRYANI _ Eid Special _ Droolsss_fk4Z0mhP98I_YT.mp4</name>
														<enabled>TRUE</enabled>
														<duration>5544</duration>
														<rate>
															<timebase>30</timebase>
															<ntsc>TRUE</ntsc>
														</rate>
														<start>0</start>
														<end>278</end>
														<in>207</in>
														<out>485</out>
														<pproTicksIn>1754463110400</pproTicksIn>
														<pproTicksOut>4110698592000</pproTicksOut>
														<alphatype>none</alphatype>
														<pixelaspectratio>square</pixelaspectratio>
														<anamorphic>FALSE</anamorphic>
														<file id="file-134">
															<name>(Droolsss)_EASY CHICKEN BIRYANI _ Eid Special _ Droolsss_fk4Z0mhP98I_YT.mp4</name>
															<pathurl>file://localhost/Volumes/Satisfactum%20Satisfactorum/03_Weekly%20(Project%20Files,%20Main%20Segments)/OSTV/OSTV%2023-08-21/3_Raw%20Files/(Droolsss)_EASY%20CHICKEN%20BIRYANI%20_%20Eid%20Special%20_%20Droolsss_fk4Z0mhP98I_YT.mp4</pathurl>
															<rate>
																<timebase>30</timebase>
																<ntsc>TRUE</ntsc>
															</rate>
															<duration>5544</duration>
															<timecode>
																<rate>
																	<timebase>30</timebase>
																	<ntsc>TRUE</ntsc>
																</rate>
																<string>00:00:00:00</string>
																<frame>0</frame>
																<displayformat>NDF</displayformat>
															</timecode>
															<media>
																<video>
																	<samplecharacteristics>
																		<rate>
																			<timebase>30</timebase>
																			<ntsc>TRUE</ntsc>
																		</rate>
																		<width>1920</width>
																		<height>1080</height>
																		<anamorphic>FALSE</anamorphic>
																		<pixelaspectratio>square</pixelaspectratio>
																		<fielddominance>none</fielddominance>
																	</samplecharacteristics>
																</video>
																<audio>
																	<samplecharacteristics>
																		<depth>16</depth>
																		<samplerate>44100</samplerate>
																	</samplecharacteristics>
																	<channelcount>2</channelcount>
																</audio>
															</media>
														</file>
														<filter>
															<effect>
																<name>Basic Motion</name>
																<effectid>basic</effectid>
																<effectcategory>motion</effectcategory>
																<effecttype>motion</effecttype>
																<mediatype>video</mediatype>
																<pproBypass>false</pproBypass>
																<parameter authoringApp="PremierePro">
																	<parameterid>scale</parameterid>
																	<name>Scale</name>
																	<valuemin>0</valuemin>
																	<valuemax>1000</valuemax>
																	<value>124</value>
																</parameter>
																<parameter authoringApp="PremierePro">
																	<parameterid>rotation</parameterid>
																	<name>Rotation</name>
																	<valuemin>-8640</valuemin>
																	<valuemax>8640</valuemax>
																	<value>0</value>
																</parameter>
																<parameter authoringApp="PremierePro">
																	<parameterid>center</parameterid>
																	<name>Center</name>
																	<value>
																		<horiz>0</horiz>
																		<vert>0.0861111</vert>
																	</value>
																</parameter>
																<parameter authoringApp="PremierePro">
																	<parameterid>centerOffset</parameterid>
																	<name>Anchor Point</name>
																	<value>
																		<horiz>0</horiz>
																		<vert>0</vert>
																	</value>
																</parameter>
																<parameter authoringApp="PremierePro">
																	<parameterid>antiflicker</parameterid>
																	<name>Anti-flicker Filter</name>
																	<valuemin>0.0</valuemin>
																	<valuemax>1.0</valuemax>
																	<value>0</value>
																</parameter>
															</effect>
														</filter>
														<logginginfo>
															<description></description>
															<scene></scene>
															<shottake></shottake>
															<lognote>https://www.youtube.com/watch?v=fk4Z0mhP98I</lognote>
															<good></good>
															<originalvideofilename></originalvideofilename>
															<originalaudiofilename></originalaudiofilename>
														</logginginfo>
														<colorinfo>
															<lut></lut>
															<lut1></lut1>
															<asc_sop></asc_sop>
															<asc_sat></asc_sat>
															<lut2></lut2>
														</colorinfo>
														<labels>
															<label2>Iris</label2>
														</labels>
													</clipitem>
													<clipitem id="clipitem-290">
														<masterclipid>masterclip-137</masterclipid>
														<name>(Droolsss)_EASY CHICKEN BIRYANI _ Eid Special _ Droolsss_fk4Z0mhP98I_YT.mp4</name>
														<enabled>TRUE</enabled>
														<duration>5544</duration>
														<rate>
															<timebase>30</timebase>
															<ntsc>TRUE</ntsc>
														</rate>
														<start>278</start>
														<end>380</end>
														<in>485</in>
														<out>587</out>
														<pproTicksIn>4110698592000</pproTicksIn>
														<pproTicksOut>4975216646400</pproTicksOut>
														<alphatype>none</alphatype>
														<file id="file-134"/>
														<logginginfo>
															<description></description>
															<scene></scene>
															<shottake></shottake>
															<lognote>https://www.youtube.com/watch?v=fk4Z0mhP98I</lognote>
															<good></good>
															<originalvideofilename></originalvideofilename>
															<originalaudiofilename></originalaudiofilename>
														</logginginfo>
														<colorinfo>
															<lut></lut>
															<lut1></lut1>
															<asc_sop></asc_sop>
															<asc_sat></asc_sat>
															<lut2></lut2>
														</colorinfo>
														<labels>
															<label2>Iris</label2>
														</labels>
													</clipitem>
													<clipitem id="clipitem-291">
														<masterclipid>masterclip-137</masterclipid>
														<name>(Droolsss)_EASY CHICKEN BIRYANI _ Eid Special _ Droolsss_fk4Z0mhP98I_YT.mp4</name>
														<enabled>TRUE</enabled>
														<duration>5544</duration>
														<rate>
															<timebase>30</timebase>
															<ntsc>TRUE</ntsc>
														</rate>
														<start>380</start>
														<end>470</end>
														<in>766</in>
														<out>856</out>
														<pproTicksIn>6492361075200</pproTicksIn>
														<pproTicksOut>7255171123200</pproTicksOut>
														<alphatype>none</alphatype>
														<file id="file-134"/>
														<logginginfo>
															<description></description>
															<scene></scene>
															<shottake></shottake>
															<lognote>https://www.youtube.com/watch?v=fk4Z0mhP98I</lognote>
															<good></good>
															<originalvideofilename></originalvideofilename>
															<originalaudiofilename></originalaudiofilename>
														</logginginfo>
														<colorinfo>
															<lut></lut>
															<lut1></lut1>
															<asc_sop></asc_sop>
															<asc_sat></asc_sat>
															<lut2></lut2>
														</colorinfo>
														<labels>
															<label2>Iris</label2>
														</labels>
													</clipitem>
													<clipitem id="clipitem-292">
														<masterclipid>masterclip-137</masterclipid>
														<name>(Droolsss)_EASY CHICKEN BIRYANI _ Eid Special _ Droolsss_fk4Z0mhP98I_YT.mp4</name>
														<enabled>TRUE</enabled>
														<duration>5544</duration>
														<rate>
															<timebase>30</timebase>
															<ntsc>TRUE</ntsc>
														</rate>
														<start>470</start>
														<end>947</end>
														<in>856</in>
														<out>1333</out>
														<pproTicksIn>7255171123200</pproTicksIn>
														<pproTicksOut>11298064377600</pproTicksOut>
														<alphatype>none</alphatype>
														<file id="file-134"/>
														<filter>
															<effect>
																<name>Basic Motion</name>
																<effectid>basic</effectid>
																<effectcategory>motion</effectcategory>
																<effecttype>motion</effecttype>
																<mediatype>video</mediatype>
																<pproBypass>false</pproBypass>
																<parameter authoringApp="PremierePro">
																	<parameterid>scale</parameterid>
																	<name>Scale</name>
																	<valuemin>0</valuemin>
																	<valuemax>1000</valuemax>
																	<value>124</value>
																</parameter>
																<parameter authoringApp="PremierePro">
																	<parameterid>rotation</parameterid>
																	<name>Rotation</name>
																	<valuemin>-8640</valuemin>
																	<valuemax>8640</valuemax>
																	<value>0</value>
																</parameter>
																<parameter authoringApp="PremierePro">
																	<parameterid>center</parameterid>
																	<name>Center</name>
																	<value>
																		<horiz>0</horiz>
																		<vert>0.0861111</vert>
																	</value>
																</parameter>
																<parameter authoringApp="PremierePro">
																	<parameterid>centerOffset</parameterid>
																	<name>Anchor Point</name>
																	<value>
																		<horiz>0</horiz>
																		<vert>0</vert>
																	</value>
																</parameter>
																<parameter authoringApp="PremierePro">
																	<parameterid>antiflicker</parameterid>
																	<name>Anti-flicker Filter</name>
																	<valuemin>0.0</valuemin>
																	<valuemax>1.0</valuemax>
																	<value>0</value>
																</parameter>
															</effect>
														</filter>
														<logginginfo>
															<description></description>
															<scene></scene>
															<shottake></shottake>
															<lognote>https://www.youtube.com/watch?v=fk4Z0mhP98I</lognote>
															<good></good>
															<originalvideofilename></originalvideofilename>
															<originalaudiofilename></originalaudiofilename>
														</logginginfo>
														<colorinfo>
															<lut></lut>
															<lut1></lut1>
															<asc_sop></asc_sop>
															<asc_sat></asc_sat>
															<lut2></lut2>
														</colorinfo>
														<labels>
															<label2>Iris</label2>
														</labels>
													</clipitem>
													<clipitem id="clipitem-293">
														<masterclipid>masterclip-137</masterclipid>
														<name>(Droolsss)_EASY CHICKEN BIRYANI _ Eid Special _ Droolsss_fk4Z0mhP98I_YT.mp4</name>
														<enabled>TRUE</enabled>
														<duration>5544</duration>
														<rate>
															<timebase>30</timebase>
															<ntsc>TRUE</ntsc>
														</rate>
														<start>947</start>
														<end>1145</end>
														<in>1536</in>
														<out>1734</out>
														<pproTicksIn>13018624819200</pproTicksIn>
														<pproTicksOut>14696806924800</pproTicksOut>
														<alphatype>none</alphatype>
														<file id="file-134"/>
														<logginginfo>
															<description></description>
															<scene></scene>
															<shottake></shottake>
															<lognote>https://www.youtube.com/watch?v=fk4Z0mhP98I</lognote>
															<good></good>
															<originalvideofilename></originalvideofilename>
															<originalaudiofilename></originalaudiofilename>
														</logginginfo>
														<colorinfo>
															<lut></lut>
															<lut1></lut1>
															<asc_sop></asc_sop>
															<asc_sat></asc_sat>
															<lut2></lut2>
														</colorinfo>
														<labels>
															<label2>Iris</label2>
														</labels>
													</clipitem>
													<clipitem id="clipitem-294">
														<masterclipid>masterclip-137</masterclipid>
														<name>(Droolsss)_EASY CHICKEN BIRYANI _ Eid Special _ Droolsss_fk4Z0mhP98I_YT.mp4</name>
														<enabled>TRUE</enabled>
														<duration>5544</duration>
														<rate>
															<timebase>30</timebase>
															<ntsc>TRUE</ntsc>
														</rate>
														<start>1145</start>
														<end>1303</end>
														<in>1804</in>
														<out>1962</out>
														<pproTicksIn>15290103628800</pproTicksIn>
														<pproTicksOut>16629259046400</pproTicksOut>
														<alphatype>none</alphatype>
														<file id="file-134"/>
														<filter>
															<effect>
																<name>Basic Motion</name>
																<effectid>basic</effectid>
																<effectcategory>motion</effectcategory>
																<effecttype>motion</effecttype>
																<mediatype>video</mediatype>
																<pproBypass>false</pproBypass>
																<parameter authoringApp="PremierePro">
																	<parameterid>scale</parameterid>
																	<name>Scale</name>
																	<valuemin>0</valuemin>
																	<valuemax>1000</valuemax>
																	<value>124</value>
																</parameter>
																<parameter authoringApp="PremierePro">
																	<parameterid>rotation</parameterid>
																	<name>Rotation</name>
																	<valuemin>-8640</valuemin>
																	<valuemax>8640</valuemax>
																	<value>0</value>
																</parameter>
																<parameter authoringApp="PremierePro">
																	<parameterid>center</parameterid>
																	<name>Center</name>
																	<value>
																		<horiz>0</horiz>
																		<vert>0.0861111</vert>
																	</value>
																</parameter>
																<parameter authoringApp="PremierePro">
																	<parameterid>centerOffset</parameterid>
																	<name>Anchor Point</name>
																	<value>
																		<horiz>0</horiz>
																		<vert>0</vert>
																	</value>
																</parameter>
																<parameter authoringApp="PremierePro">
																	<parameterid>antiflicker</parameterid>
																	<name>Anti-flicker Filter</name>
																	<valuemin>0.0</valuemin>
																	<valuemax>1.0</valuemax>
																	<value>0</value>
																</parameter>
															</effect>
														</filter>
														<logginginfo>
															<description></description>
															<scene></scene>
															<shottake></shottake>
															<lognote>https://www.youtube.com/watch?v=fk4Z0mhP98I</lognote>
															<good></good>
															<originalvideofilename></originalvideofilename>
															<originalaudiofilename></originalaudiofilename>
														</logginginfo>
														<colorinfo>
															<lut></lut>
															<lut1></lut1>
															<asc_sop></asc_sop>
															<asc_sat></asc_sat>
															<lut2></lut2>
														</colorinfo>
														<labels>
															<label2>Iris</label2>
														</labels>
													</clipitem>
													<clipitem id="clipitem-295">
														<masterclipid>masterclip-137</masterclipid>
														<name>(Droolsss)_EASY CHICKEN BIRYANI _ Eid Special _ Droolsss_fk4Z0mhP98I_YT.mp4</name>
														<enabled>TRUE</enabled>
														<duration>5544</duration>
														<rate>
															<timebase>30</timebase>
															<ntsc>TRUE</ntsc>
														</rate>
														<start>1303</start>
														<end>1445</end>
														<in>2010</in>
														<out>2152</out>
														<pproTicksIn>17036091072000</pproTicksIn>
														<pproTicksOut>18239635814400</pproTicksOut>
														<alphatype>none</alphatype>
														<file id="file-134"/>
														<logginginfo>
															<description></description>
															<scene></scene>
															<shottake></shottake>
															<lognote>https://www.youtube.com/watch?v=fk4Z0mhP98I</lognote>
															<good></good>
															<originalvideofilename></originalvideofilename>
															<originalaudiofilename></originalaudiofilename>
														</logginginfo>
														<colorinfo>
															<lut></lut>
															<lut1></lut1>
															<asc_sop></asc_sop>
															<asc_sat></asc_sat>
															<lut2></lut2>
														</colorinfo>
														<labels>
															<label2>Iris</label2>
														</labels>
													</clipitem>
													<clipitem id="clipitem-296">
														<masterclipid>masterclip-137</masterclipid>
														<name>(Droolsss)_EASY CHICKEN BIRYANI _ Eid Special _ Droolsss_fk4Z0mhP98I_YT.mp4</name>
														<enabled>TRUE</enabled>
														<duration>5544</duration>
														<rate>
															<timebase>30</timebase>
															<ntsc>TRUE</ntsc>
														</rate>
														<start>1445</start>
														<end>1588</end>
														<in>2345</in>
														<out>2488</out>
														<pproTicksIn>19875439584000</pproTicksIn>
														<pproTicksOut>21087459993600</pproTicksOut>
														<alphatype>none</alphatype>
														<file id="file-134"/>
														<filter>
															<effect>
																<name>Basic Motion</name>
																<effectid>basic</effectid>
																<effectcategory>motion</effectcategory>
																<effecttype>motion</effecttype>
																<mediatype>video</mediatype>
																<pproBypass>false</pproBypass>
																<parameter authoringApp="PremierePro">
																	<parameterid>scale</parameterid>
																	<name>Scale</name>
																	<valuemin>0</valuemin>
																	<valuemax>1000</valuemax>
																	<value>124</value>
																</parameter>
																<parameter authoringApp="PremierePro">
																	<parameterid>rotation</parameterid>
																	<name>Rotation</name>
																	<valuemin>-8640</valuemin>
																	<valuemax>8640</valuemax>
																	<value>0</value>
																</parameter>
																<parameter authoringApp="PremierePro">
																	<parameterid>center</parameterid>
																	<name>Center</name>
																	<value>
																		<horiz>0</horiz>
																		<vert>0.0861111</vert>
																	</value>
																</parameter>
																<parameter authoringApp="PremierePro">
																	<parameterid>centerOffset</parameterid>
																	<name>Anchor Point</name>
																	<value>
																		<horiz>0</horiz>
																		<vert>0</vert>
																	</value>
																</parameter>
																<parameter authoringApp="PremierePro">
																	<parameterid>antiflicker</parameterid>
																	<name>Anti-flicker Filter</name>
																	<valuemin>0.0</valuemin>
																	<valuemax>1.0</valuemax>
																	<value>0</value>
																</parameter>
															</effect>
														</filter>
														<logginginfo>
															<description></description>
															<scene></scene>
															<shottake></shottake>
															<lognote>https://www.youtube.com/watch?v=fk4Z0mhP98I</lognote>
															<good></good>
															<originalvideofilename></originalvideofilename>
															<originalaudiofilename></originalaudiofilename>
														</logginginfo>
														<colorinfo>
															<lut></lut>
															<lut1></lut1>
															<asc_sop></asc_sop>
															<asc_sat></asc_sat>
															<lut2></lut2>
														</colorinfo>
														<labels>
															<label2>Iris</label2>
														</labels>
													</clipitem>
													<clipitem id="clipitem-297">
														<masterclipid>masterclip-137</masterclipid>
														<name>(Droolsss)_EASY CHICKEN BIRYANI _ Eid Special _ Droolsss_fk4Z0mhP98I_YT.mp4</name>
														<enabled>TRUE</enabled>
														<duration>5544</duration>
														<rate>
															<timebase>30</timebase>
															<ntsc>TRUE</ntsc>
														</rate>
														<start>1588</start>
														<end>1643</end>
														<in>2488</in>
														<out>2543</out>
														<pproTicksIn>21087459993600</pproTicksIn>
														<pproTicksOut>21553621689600</pproTicksOut>
														<alphatype>none</alphatype>
														<file id="file-134"/>
														<logginginfo>
															<description></description>
															<scene></scene>
															<shottake></shottake>
															<lognote>https://www.youtube.com/watch?v=fk4Z0mhP98I</lognote>
															<good></good>
															<originalvideofilename></originalvideofilename>
															<originalaudiofilename></originalaudiofilename>
														</logginginfo>
														<colorinfo>
															<lut></lut>
															<lut1></lut1>
															<asc_sop></asc_sop>
															<asc_sat></asc_sat>
															<lut2></lut2>
														</colorinfo>
														<labels>
															<label2>Iris</label2>
														</labels>
													</clipitem>
													<clipitem id="clipitem-298">
														<masterclipid>masterclip-137</masterclipid>
														<name>(Droolsss)_EASY CHICKEN BIRYANI _ Eid Special _ Droolsss_fk4Z0mhP98I_YT.mp4</name>
														<enabled>TRUE</enabled>
														<duration>5544</duration>
														<rate>
															<timebase>30</timebase>
															<ntsc>TRUE</ntsc>
														</rate>
														<start>1643</start>
														<end>2711</end>
														<in>2543</in>
														<out>3611</out>
														<pproTicksIn>21553621689600</pproTicksIn>
														<pproTicksOut>30605634259200</pproTicksOut>
														<alphatype>none</alphatype>
														<file id="file-134"/>
														<filter>
															<effect>
																<name>Basic Motion</name>
																<effectid>basic</effectid>
																<effectcategory>motion</effectcategory>
																<effecttype>motion</effecttype>
																<mediatype>video</mediatype>
																<pproBypass>false</pproBypass>
																<parameter authoringApp="PremierePro">
																	<parameterid>scale</parameterid>
																	<name>Scale</name>
																	<valuemin>0</valuemin>
																	<valuemax>1000</valuemax>
																	<value>124</value>
																</parameter>
																<parameter authoringApp="PremierePro">
																	<parameterid>rotation</parameterid>
																	<name>Rotation</name>
																	<valuemin>-8640</valuemin>
																	<valuemax>8640</valuemax>
																	<value>0</value>
																</parameter>
																<parameter authoringApp="PremierePro">
																	<parameterid>center</parameterid>
																	<name>Center</name>
																	<value>
																		<horiz>0</horiz>
																		<vert>0.0861111</vert>
																	</value>
																</parameter>
																<parameter authoringApp="PremierePro">
																	<parameterid>centerOffset</parameterid>
																	<name>Anchor Point</name>
																	<value>
																		<horiz>0</horiz>
																		<vert>0</vert>
																	</value>
																</parameter>
																<parameter authoringApp="PremierePro">
																	<parameterid>antiflicker</parameterid>
																	<name>Anti-flicker Filter</name>
																	<valuemin>0.0</valuemin>
																	<valuemax>1.0</valuemax>
																	<value>0</value>
																</parameter>
															</effect>
														</filter>
														<logginginfo>
															<description></description>
															<scene></scene>
															<shottake></shottake>
															<lognote>https://www.youtube.com/watch?v=fk4Z0mhP98I</lognote>
															<good></good>
															<originalvideofilename></originalvideofilename>
															<originalaudiofilename></originalaudiofilename>
														</logginginfo>
														<colorinfo>
															<lut></lut>
															<lut1></lut1>
															<asc_sop></asc_sop>
															<asc_sat></asc_sat>
															<lut2></lut2>
														</colorinfo>
														<labels>
															<label2>Iris</label2>
														</labels>
													</clipitem>
													<clipitem id="clipitem-299">
														<masterclipid>masterclip-137</masterclipid>
														<name>(Droolsss)_EASY CHICKEN BIRYANI _ Eid Special _ Droolsss_fk4Z0mhP98I_YT.mp4</name>
														<enabled>TRUE</enabled>
														<duration>5544</duration>
														<rate>
															<timebase>30</timebase>
															<ntsc>TRUE</ntsc>
														</rate>
														<start>2711</start>
														<end>2875</end>
														<in>3611</in>
														<out>3775</out>
														<pproTicksIn>30605634259200</pproTicksIn>
														<pproTicksOut>31995643680000</pproTicksOut>
														<alphatype>none</alphatype>
														<file id="file-134"/>
														<filter>
															<effect>
																<name>Basic Motion</name>
																<effectid>basic</effectid>
																<effectcategory>motion</effectcategory>
																<effecttype>motion</effecttype>
																<mediatype>video</mediatype>
																<pproBypass>false</pproBypass>
																<parameter authoringApp="PremierePro">
																	<parameterid>scale</parameterid>
																	<name>Scale</name>
																	<valuemin>0</valuemin>
																	<valuemax>1000</valuemax>
																	<value>139</value>
																</parameter>
																<parameter authoringApp="PremierePro">
																	<parameterid>rotation</parameterid>
																	<name>Rotation</name>
																	<valuemin>-8640</valuemin>
																	<valuemax>8640</valuemax>
																	<value>0</value>
																</parameter>
																<parameter authoringApp="PremierePro">
																	<parameterid>center</parameterid>
																	<name>Center</name>
																	<value>
																		<horiz>0</horiz>
																		<vert>0.0861111</vert>
																	</value>
																</parameter>
																<parameter authoringApp="PremierePro">
																	<parameterid>centerOffset</parameterid>
																	<name>Anchor Point</name>
																	<value>
																		<horiz>0</horiz>
																		<vert>0</vert>
																	</value>
																</parameter>
																<parameter authoringApp="PremierePro">
																	<parameterid>antiflicker</parameterid>
																	<name>Anti-flicker Filter</name>
																	<valuemin>0.0</valuemin>
																	<valuemax>1.0</valuemax>
																	<value>0</value>
																</parameter>
															</effect>
														</filter>
														<logginginfo>
															<description></description>
															<scene></scene>
															<shottake></shottake>
															<lognote>https://www.youtube.com/watch?v=fk4Z0mhP98I</lognote>
															<good></good>
															<originalvideofilename></originalvideofilename>
															<originalaudiofilename></originalaudiofilename>
														</logginginfo>
														<colorinfo>
															<lut></lut>
															<lut1></lut1>
															<asc_sop></asc_sop>
															<asc_sat></asc_sat>
															<lut2></lut2>
														</colorinfo>
														<labels>
															<label2>Iris</label2>
														</labels>
													</clipitem>
													<clipitem id="clipitem-300">
														<masterclipid>masterclip-137</masterclipid>
														<name>(Droolsss)_EASY CHICKEN BIRYANI _ Eid Special _ Droolsss_fk4Z0mhP98I_YT.mp4</name>
														<enabled>TRUE</enabled>
														<duration>5544</duration>
														<rate>
															<timebase>30</timebase>
															<ntsc>TRUE</ntsc>
														</rate>
														<start>2875</start>
														<end>2955</end>
														<in>3775</in>
														<out>3855</out>
														<pproTicksIn>31995643680000</pproTicksIn>
														<pproTicksOut>32673697056000</pproTicksOut>
														<alphatype>none</alphatype>
														<file id="file-134"/>
														<filter>
															<effect>
																<name>Basic Motion</name>
																<effectid>basic</effectid>
																<effectcategory>motion</effectcategory>
																<effecttype>motion</effecttype>
																<mediatype>video</mediatype>
																<pproBypass>false</pproBypass>
																<parameter authoringApp="PremierePro">
																	<parameterid>scale</parameterid>
																	<name>Scale</name>
																	<valuemin>0</valuemin>
																	<valuemax>1000</valuemax>
																	<value>124</value>
																</parameter>
																<parameter authoringApp="PremierePro">
																	<parameterid>rotation</parameterid>
																	<name>Rotation</name>
																	<valuemin>-8640</valuemin>
																	<valuemax>8640</valuemax>
																	<value>0</value>
																</parameter>
																<parameter authoringApp="PremierePro">
																	<parameterid>center</parameterid>
																	<name>Center</name>
																	<value>
																		<horiz>0</horiz>
																		<vert>0.0861111</vert>
																	</value>
																</parameter>
																<parameter authoringApp="PremierePro">
																	<parameterid>centerOffset</parameterid>
																	<name>Anchor Point</name>
																	<value>
																		<horiz>0</horiz>
																		<vert>0</vert>
																	</value>
																</parameter>
																<parameter authoringApp="PremierePro">
																	<parameterid>antiflicker</parameterid>
																	<name>Anti-flicker Filter</name>
																	<valuemin>0.0</valuemin>
																	<valuemax>1.0</valuemax>
																	<value>0</value>
																</parameter>
															</effect>
														</filter>
														<logginginfo>
															<description></description>
															<scene></scene>
															<shottake></shottake>
															<lognote>https://www.youtube.com/watch?v=fk4Z0mhP98I</lognote>
															<good></good>
															<originalvideofilename></originalvideofilename>
															<originalaudiofilename></originalaudiofilename>
														</logginginfo>
														<colorinfo>
															<lut></lut>
															<lut1></lut1>
															<asc_sop></asc_sop>
															<asc_sat></asc_sat>
															<lut2></lut2>
														</colorinfo>
														<labels>
															<label2>Iris</label2>
														</labels>
													</clipitem>
													<clipitem id="clipitem-301">
														<masterclipid>masterclip-137</masterclipid>
														<name>(Droolsss)_EASY CHICKEN BIRYANI _ Eid Special _ Droolsss_fk4Z0mhP98I_YT.mp4</name>
														<enabled>TRUE</enabled>
														<duration>5544</duration>
														<rate>
															<timebase>30</timebase>
															<ntsc>TRUE</ntsc>
														</rate>
														<start>2955</start>
														<end>3063</end>
														<in>3855</in>
														<out>3963</out>
														<pproTicksIn>32673697056000</pproTicksIn>
														<pproTicksOut>33589069113600</pproTicksOut>
														<alphatype>none</alphatype>
														<file id="file-134"/>
														<filter>
															<effect>
																<name>Basic Motion</name>
																<effectid>basic</effectid>
																<effectcategory>motion</effectcategory>
																<effecttype>motion</effecttype>
																<mediatype>video</mediatype>
																<pproBypass>false</pproBypass>
																<parameter authoringApp="PremierePro">
																	<parameterid>scale</parameterid>
																	<name>Scale</name>
																	<valuemin>0</valuemin>
																	<valuemax>1000</valuemax>
																	<value>156</value>
																</parameter>
																<parameter authoringApp="PremierePro">
																	<parameterid>rotation</parameterid>
																	<name>Rotation</name>
																	<valuemin>-8640</valuemin>
																	<valuemax>8640</valuemax>
																	<value>0</value>
																</parameter>
																<parameter authoringApp="PremierePro">
																	<parameterid>center</parameterid>
																	<name>Center</name>
																	<value>
																		<horiz>-0.127604</horiz>
																		<vert>0.112963</vert>
																	</value>
																</parameter>
																<parameter authoringApp="PremierePro">
																	<parameterid>centerOffset</parameterid>
																	<name>Anchor Point</name>
																	<value>
																		<horiz>0</horiz>
																		<vert>0</vert>
																	</value>
																</parameter>
																<parameter authoringApp="PremierePro">
																	<parameterid>antiflicker</parameterid>
																	<name>Anti-flicker Filter</name>
																	<valuemin>0.0</valuemin>
																	<valuemax>1.0</valuemax>
																	<value>0</value>
																</parameter>
															</effect>
														</filter>
														<logginginfo>
															<description></description>
															<scene></scene>
															<shottake></shottake>
															<lognote>https://www.youtube.com/watch?v=fk4Z0mhP98I</lognote>
															<good></good>
															<originalvideofilename></originalvideofilename>
															<originalaudiofilename></originalaudiofilename>
														</logginginfo>
														<colorinfo>
															<lut></lut>
															<lut1></lut1>
															<asc_sop></asc_sop>
															<asc_sat></asc_sat>
															<lut2></lut2>
														</colorinfo>
														<labels>
															<label2>Iris</label2>
														</labels>
													</clipitem>
													<clipitem id="clipitem-302">
														<masterclipid>masterclip-137</masterclipid>
														<name>(Droolsss)_EASY CHICKEN BIRYANI _ Eid Special _ Droolsss_fk4Z0mhP98I_YT.mp4</name>
														<enabled>TRUE</enabled>
														<duration>5544</duration>
														<rate>
															<timebase>30</timebase>
															<ntsc>TRUE</ntsc>
														</rate>
														<start>3063</start>
														<end>3125</end>
														<in>3963</in>
														<out>4025</out>
														<pproTicksIn>33589069113600</pproTicksIn>
														<pproTicksOut>34114560480000</pproTicksOut>
														<alphatype>none</alphatype>
														<file id="file-134"/>
														<filter>
															<effect>
																<name>Basic Motion</name>
																<effectid>basic</effectid>
																<effectcategory>motion</effectcategory>
																<effecttype>motion</effecttype>
																<mediatype>video</mediatype>
																<pproBypass>false</pproBypass>
																<parameter authoringApp="PremierePro">
																	<parameterid>scale</parameterid>
																	<name>Scale</name>
																	<valuemin>0</valuemin>
																	<valuemax>1000</valuemax>
																	<value>124</value>
																</parameter>
																<parameter authoringApp="PremierePro">
																	<parameterid>rotation</parameterid>
																	<name>Rotation</name>
																	<valuemin>-8640</valuemin>
																	<valuemax>8640</valuemax>
																	<value>0</value>
																</parameter>
																<parameter authoringApp="PremierePro">
																	<parameterid>center</parameterid>
																	<name>Center</name>
																	<value>
																		<horiz>0</horiz>
																		<vert>0.0861111</vert>
																	</value>
																</parameter>
																<parameter authoringApp="PremierePro">
																	<parameterid>centerOffset</parameterid>
																	<name>Anchor Point</name>
																	<value>
																		<horiz>0</horiz>
																		<vert>0</vert>
																	</value>
																</parameter>
																<parameter authoringApp="PremierePro">
																	<parameterid>antiflicker</parameterid>
																	<name>Anti-flicker Filter</name>
																	<valuemin>0.0</valuemin>
																	<valuemax>1.0</valuemax>
																	<value>0</value>
																</parameter>
															</effect>
														</filter>
														<logginginfo>
															<description></description>
															<scene></scene>
															<shottake></shottake>
															<lognote>https://www.youtube.com/watch?v=fk4Z0mhP98I</lognote>
															<good></good>
															<originalvideofilename></originalvideofilename>
															<originalaudiofilename></originalaudiofilename>
														</logginginfo>
														<colorinfo>
															<lut></lut>
															<lut1></lut1>
															<asc_sop></asc_sop>
															<asc_sat></asc_sat>
															<lut2></lut2>
														</colorinfo>
														<labels>
															<label2>Iris</label2>
														</labels>
													</clipitem>
													<clipitem id="clipitem-303">
														<masterclipid>masterclip-137</masterclipid>
														<name>(Droolsss)_EASY CHICKEN BIRYANI _ Eid Special _ Droolsss_fk4Z0mhP98I_YT.mp4</name>
														<enabled>TRUE</enabled>
														<duration>5544</duration>
														<rate>
															<timebase>30</timebase>
															<ntsc>TRUE</ntsc>
														</rate>
														<start>3125</start>
														<end>3453</end>
														<in>4143</in>
														<out>4471</out>
														<pproTicksIn>35114689209600</pproTicksIn>
														<pproTicksOut>37894708051200</pproTicksOut>
														<alphatype>none</alphatype>
														<file id="file-134"/>
														<filter>
															<effect>
																<name>Basic Motion</name>
																<effectid>basic</effectid>
																<effectcategory>motion</effectcategory>
																<effecttype>motion</effecttype>
																<mediatype>video</mediatype>
																<pproBypass>false</pproBypass>
																<parameter authoringApp="PremierePro">
																	<parameterid>scale</parameterid>
																	<name>Scale</name>
																	<valuemin>0</valuemin>
																	<valuemax>1000</valuemax>
																	<value>124</value>
																</parameter>
																<parameter authoringApp="PremierePro">
																	<parameterid>rotation</parameterid>
																	<name>Rotation</name>
																	<valuemin>-8640</valuemin>
																	<valuemax>8640</valuemax>
																	<value>0</value>
																</parameter>
																<parameter authoringApp="PremierePro">
																	<parameterid>center</parameterid>
																	<name>Center</name>
																	<value>
																		<horiz>0</horiz>
																		<vert>0.0861111</vert>
																	</value>
																</parameter>
																<parameter authoringApp="PremierePro">
																	<parameterid>centerOffset</parameterid>
																	<name>Anchor Point</name>
																	<value>
																		<horiz>0</horiz>
																		<vert>0</vert>
																	</value>
																</parameter>
																<parameter authoringApp="PremierePro">
																	<parameterid>antiflicker</parameterid>
																	<name>Anti-flicker Filter</name>
																	<valuemin>0.0</valuemin>
																	<valuemax>1.0</valuemax>
																	<value>0</value>
																</parameter>
															</effect>
														</filter>
														<logginginfo>
															<description></description>
															<scene></scene>
															<shottake></shottake>
															<lognote>https://www.youtube.com/watch?v=fk4Z0mhP98I</lognote>
															<good></good>
															<originalvideofilename></originalvideofilename>
															<originalaudiofilename></originalaudiofilename>
														</logginginfo>
														<colorinfo>
															<lut></lut>
															<lut1></lut1>
															<asc_sop></asc_sop>
															<asc_sat></asc_sat>
															<lut2></lut2>
														</colorinfo>
														<labels>
															<label2>Iris</label2>
														</labels>
													</clipitem>
													<clipitem id="clipitem-304">
														<masterclipid>masterclip-137</masterclipid>
														<name>(Droolsss)_EASY CHICKEN BIRYANI _ Eid Special _ Droolsss_fk4Z0mhP98I_YT.mp4</name>
														<enabled>TRUE</enabled>
														<duration>5544</duration>
														<rate>
															<timebase>30</timebase>
															<ntsc>TRUE</ntsc>
														</rate>
														<start>3453</start>
														<end>3922</end>
														<in>4593</in>
														<out>5062</out>
														<pproTicksIn>38928739449600</pproTicksIn>
														<pproTicksOut>42903827366400</pproTicksOut>
														<alphatype>none</alphatype>
														<file id="file-134"/>
														<filter>
															<effect>
																<name>Basic Motion</name>
																<effectid>basic</effectid>
																<effectcategory>motion</effectcategory>
																<effecttype>motion</effecttype>
																<mediatype>video</mediatype>
																<pproBypass>false</pproBypass>
																<parameter authoringApp="PremierePro">
																	<parameterid>scale</parameterid>
																	<name>Scale</name>
																	<valuemin>0</valuemin>
																	<valuemax>1000</valuemax>
																	<value>124</value>
																</parameter>
																<parameter authoringApp="PremierePro">
																	<parameterid>rotation</parameterid>
																	<name>Rotation</name>
																	<valuemin>-8640</valuemin>
																	<valuemax>8640</valuemax>
																	<value>0</value>
																</parameter>
																<parameter authoringApp="PremierePro">
																	<parameterid>center</parameterid>
																	<name>Center</name>
																	<value>
																		<horiz>0</horiz>
																		<vert>0.0861111</vert>
																	</value>
																</parameter>
																<parameter authoringApp="PremierePro">
																	<parameterid>centerOffset</parameterid>
																	<name>Anchor Point</name>
																	<value>
																		<horiz>0</horiz>
																		<vert>0</vert>
																	</value>
																</parameter>
																<parameter authoringApp="PremierePro">
																	<parameterid>antiflicker</parameterid>
																	<name>Anti-flicker Filter</name>
																	<valuemin>0.0</valuemin>
																	<valuemax>1.0</valuemax>
																	<value>0</value>
																</parameter>
															</effect>
														</filter>
														<logginginfo>
															<description></description>
															<scene></scene>
															<shottake></shottake>
															<lognote>https://www.youtube.com/watch?v=fk4Z0mhP98I</lognote>
															<good></good>
															<originalvideofilename></originalvideofilename>
															<originalaudiofilename></originalaudiofilename>
														</logginginfo>
														<colorinfo>
															<lut></lut>
															<lut1></lut1>
															<asc_sop></asc_sop>
															<asc_sat></asc_sat>
															<lut2></lut2>
														</colorinfo>
														<labels>
															<label2>Iris</label2>
														</labels>
													</clipitem>
													<clipitem id="clipitem-305">
														<masterclipid>masterclip-137</masterclipid>
														<name>(Droolsss)_EASY CHICKEN BIRYANI _ Eid Special _ Droolsss_fk4Z0mhP98I_YT.mp4</name>
														<enabled>TRUE</enabled>
														<duration>5544</duration>
														<rate>
															<timebase>30</timebase>
															<ntsc>TRUE</ntsc>
														</rate>
														<start>3922</start>
														<end>4030</end>
														<in>5062</in>
														<out>5170</out>
														<pproTicksIn>42903827366400</pproTicksIn>
														<pproTicksOut>43819199424000</pproTicksOut>
														<alphatype>none</alphatype>
														<file id="file-134"/>
														<filter>
															<effect>
																<name>Basic Motion</name>
																<effectid>basic</effectid>
																<effectcategory>motion</effectcategory>
																<effecttype>motion</effecttype>
																<mediatype>video</mediatype>
																<pproBypass>false</pproBypass>
																<parameter authoringApp="PremierePro">
																	<parameterid>scale</parameterid>
																	<name>Scale</name>
																	<valuemin>0</valuemin>
																	<valuemax>1000</valuemax>
																	<value>124</value>
																</parameter>
																<parameter authoringApp="PremierePro">
																	<parameterid>rotation</parameterid>
																	<name>Rotation</name>
																	<valuemin>-8640</valuemin>
																	<valuemax>8640</valuemax>
																	<value>0</value>
																</parameter>
																<parameter authoringApp="PremierePro">
																	<parameterid>center</parameterid>
																	<name>Center</name>
																	<value>
																		<horiz>0</horiz>
																		<vert>0.0861111</vert>
																	</value>
																</parameter>
																<parameter authoringApp="PremierePro">
																	<parameterid>centerOffset</parameterid>
																	<name>Anchor Point</name>
																	<value>
																		<horiz>0</horiz>
																		<vert>0</vert>
																	</value>
																</parameter>
																<parameter authoringApp="PremierePro">
																	<parameterid>antiflicker</parameterid>
																	<name>Anti-flicker Filter</name>
																	<valuemin>0.0</valuemin>
																	<valuemax>1.0</valuemax>
																	<value>0</value>
																</parameter>
															</effect>
														</filter>
														<logginginfo>
															<description></description>
															<scene></scene>
															<shottake></shottake>
															<lognote>https://www.youtube.com/watch?v=fk4Z0mhP98I</lognote>
															<good></good>
															<originalvideofilename></originalvideofilename>
															<originalaudiofilename></originalaudiofilename>
														</logginginfo>
														<colorinfo>
															<lut></lut>
															<lut1></lut1>
															<asc_sop></asc_sop>
															<asc_sat></asc_sat>
															<lut2></lut2>
														</colorinfo>
														<labels>
															<label2>Iris</label2>
														</labels>
													</clipitem>
													<clipitem id="clipitem-306">
														<masterclipid>masterclip-137</masterclipid>
														<name>(Droolsss)_EASY CHICKEN BIRYANI _ Eid Special _ Droolsss_fk4Z0mhP98I_YT.mp4</name>
														<enabled>TRUE</enabled>
														<duration>5544</duration>
														<rate>
															<timebase>30</timebase>
															<ntsc>TRUE</ntsc>
														</rate>
														<start>4030</start>
														<end>4090</end>
														<in>5387</in>
														<out>5447</out>
														<pproTicksIn>45658419206400</pproTicksIn>
														<pproTicksOut>46166959238400</pproTicksOut>
														<alphatype>none</alphatype>
														<file id="file-134"/>
														<filter>
															<effect>
																<name>Basic Motion</name>
																<effectid>basic</effectid>
																<effectcategory>motion</effectcategory>
																<effecttype>motion</effecttype>
																<mediatype>video</mediatype>
																<pproBypass>false</pproBypass>
																<parameter authoringApp="PremierePro">
																	<parameterid>scale</parameterid>
																	<name>Scale</name>
																	<valuemin>0</valuemin>
																	<valuemax>1000</valuemax>
																	<value>124</value>
																</parameter>
																<parameter authoringApp="PremierePro">
																	<parameterid>rotation</parameterid>
																	<name>Rotation</name>
																	<valuemin>-8640</valuemin>
																	<valuemax>8640</valuemax>
																	<value>0</value>
																</parameter>
																<parameter authoringApp="PremierePro">
																	<parameterid>center</parameterid>
																	<name>Center</name>
																	<value>
																		<horiz>0</horiz>
																		<vert>-0.0657407</vert>
																	</value>
																</parameter>
																<parameter authoringApp="PremierePro">
																	<parameterid>centerOffset</parameterid>
																	<name>Anchor Point</name>
																	<value>
																		<horiz>0</horiz>
																		<vert>0</vert>
																	</value>
																</parameter>
																<parameter authoringApp="PremierePro">
																	<parameterid>antiflicker</parameterid>
																	<name>Anti-flicker Filter</name>
																	<valuemin>0.0</valuemin>
																	<valuemax>1.0</valuemax>
																	<value>0</value>
																</parameter>
															</effect>
														</filter>
														<logginginfo>
															<description></description>
															<scene></scene>
															<shottake></shottake>
															<lognote>https://www.youtube.com/watch?v=fk4Z0mhP98I</lognote>
															<good></good>
															<originalvideofilename></originalvideofilename>
															<originalaudiofilename></originalaudiofilename>
														</logginginfo>
														<colorinfo>
															<lut></lut>
															<lut1></lut1>
															<asc_sop></asc_sop>
															<asc_sat></asc_sat>
															<lut2></lut2>
														</colorinfo>
														<labels>
															<label2>Iris</label2>
														</labels>
													</clipitem>
													<enabled>TRUE</enabled>
													<locked>FALSE</locked>
												</track>
												<track TL.SQTrackShy="0" TL.SQTrackExpandedHeight="25" TL.SQTrackExpanded="0" MZ.TrackTargeted="0">
													<clipitem id="clipitem-307">
														<masterclipid>masterclip-67</masterclipid>
														<name>droolsss</name>
														<enabled>TRUE</enabled>
														<duration>5844</duration>
														<rate>
															<timebase>30</timebase>
															<ntsc>TRUE</ntsc>
														</rate>
														<start>0</start>
														<end>4090</end>
														<in>0</in>
														<out>4090</out>
														<pproTicksIn>0</pproTicksIn>
														<pproTicksOut>34665478848000</pproTicksOut>
														<alphatype>straight</alphatype>
														<file id="file-67"/>
														<filter>
															<effect>
																<name>Basic Motion</name>
																<effectid>basic</effectid>
																<effectcategory>motion</effectcategory>
																<effecttype>motion</effecttype>
																<mediatype>video</mediatype>
																<pproBypass>false</pproBypass>
																<parameter authoringApp="PremierePro">
																	<parameterid>scale</parameterid>
																	<name>Scale</name>
																	<valuemin>0</valuemin>
																	<valuemax>1000</valuemax>
																	<value>150</value>
																</parameter>
																<parameter authoringApp="PremierePro">
																	<parameterid>rotation</parameterid>
																	<name>Rotation</name>
																	<valuemin>-8640</valuemin>
																	<valuemax>8640</valuemax>
																	<value>0</value>
																</parameter>
																<parameter authoringApp="PremierePro">
																	<parameterid>center</parameterid>
																	<name>Center</name>
																	<value>
																		<horiz>0</horiz>
																		<vert>0</vert>
																	</value>
																</parameter>
																<parameter authoringApp="PremierePro">
																	<parameterid>centerOffset</parameterid>
																	<name>Anchor Point</name>
																	<value>
																		<horiz>0</horiz>
																		<vert>0</vert>
																	</value>
																</parameter>
																<parameter authoringApp="PremierePro">
																	<parameterid>antiflicker</parameterid>
																	<name>Anti-flicker Filter</name>
																	<valuemin>0.0</valuemin>
																	<valuemax>1.0</valuemax>
																	<value>0</value>
																</parameter>
															</effect>
														</filter>
														<logginginfo>
															<description></description>
															<scene></scene>
															<shottake></shottake>
															<lognote></lognote>
															<good></good>
															<originalvideofilename></originalvideofilename>
															<originalaudiofilename></originalaudiofilename>
														</logginginfo>
														<colorinfo>
															<lut></lut>
															<lut1></lut1>
															<asc_sop></asc_sop>
															<asc_sat></asc_sat>
															<lut2></lut2>
														</colorinfo>
														<labels>
															<label2>Rose</label2>
														</labels>
													</clipitem>
													<enabled>TRUE</enabled>
													<locked>FALSE</locked>
												</track>
												<track TL.SQTrackShy="0" TL.SQTrackExpandedHeight="25" TL.SQTrackExpanded="0" MZ.TrackTargeted="0">
													<clipitem id="clipitem-308">
														<masterclipid>masterclip-106</masterclipid>
														<name>Bug and Lower Nest</name>
														<enabled>TRUE</enabled>
														<duration>14721</duration>
														<rate>
															<timebase>30</timebase>
															<ntsc>TRUE</ntsc>
														</rate>
														<start>0</start>
														<end>4090</end>
														<in>0</in>
														<out>4090</out>
														<pproTicksIn>0</pproTicksIn>
														<pproTicksOut>34665478848000</pproTicksOut>
														<sequence id="sequence-1"/>
														<labels>
															<label2>Cerulean</label2>
														</labels>
													</clipitem>
													<enabled>FALSE</enabled>
													<locked>FALSE</locked>
												</track>
											</video>
											<audio>
												<numOutputChannels>2</numOutputChannels>
												<format>
													<samplecharacteristics>
														<depth>16</depth>
														<samplerate>44100</samplerate>
													</samplecharacteristics>
												</format>
												<outputs>
													<group>
														<index>1</index>
														<numchannels>1</numchannels>
														<downmix>0</downmix>
														<channel>
															<index>1</index>
														</channel>
													</group>
													<group>
														<index>2</index>
														<numchannels>1</numchannels>
														<downmix>0</downmix>
														<channel>
															<index>2</index>
														</channel>
													</group>
												</outputs>
												<track TL.SQTrackAudioKeyframeStyle="0" TL.SQTrackShy="0" TL.SQTrackExpandedHeight="25" TL.SQTrackExpanded="0" MZ.TrackTargeted="1" PannerCurrentValue="0.5" PannerIsInverted="true" PannerStartKeyframe="-91445760000000000,0.5,0,0,0,0,0,0" PannerName="Balance" currentExplodedTrackIndex="0" totalExplodedTrackCount="2" premiereTrackType="Stereo">
													<transitionitem>
														<start>0</start>
														<end>30</end>
														<pproTicksIn>0</pproTicksIn>
														<pproTicksOut>254270016000</pproTicksOut>
														<alignment>start-black</alignment>
														<cutPointTicks>0</cutPointTicks>
														<rate>
															<timebase>30</timebase>
															<ntsc>TRUE</ntsc>
														</rate>
														<effect>
															<name>Cross Fade (+3dB)</name>
															<effectid>KGAudioTransCrossFade3dB</effectid>
															<effecttype>transition</effecttype>
															<mediatype>audio</mediatype>
															<wipecode>0</wipecode>
															<wipeaccuracy>100</wipeaccuracy>
															<startratio>0</startratio>
															<endratio>1</endratio>
															<reverse>FALSE</reverse>
														</effect>
													</transitionitem>
													<clipitem id="clipitem-309" premiereChannelType="stereo">
														<masterclipid>masterclip-29</masterclipid>
														<name>ES_I See Blue - Dye O.mp3</name>
														<enabled>TRUE</enabled>
														<duration>7405</duration>
														<rate>
															<timebase>30</timebase>
															<ntsc>TRUE</ntsc>
														</rate>
														<start>-1</start>
														<end>-1</end>
														<in>1601</in>
														<out>5691</out>
														<pproTicksIn>13569543187200</pproTicksIn>
														<pproTicksOut>48235022035200</pproTicksOut>
														<file id="file-29"/>
														<sourcetrack>
															<mediatype>audio</mediatype>
															<trackindex>1</trackindex>
														</sourcetrack>
														<link>
															<linkclipref>clipitem-309</linkclipref>
															<mediatype>audio</mediatype>
															<trackindex>1</trackindex>
															<clipindex>2</clipindex>
															<groupindex>1</groupindex>
														</link>
														<link>
															<linkclipref>clipitem-310</linkclipref>
															<mediatype>audio</mediatype>
															<trackindex>2</trackindex>
															<clipindex>2</clipindex>
															<groupindex>1</groupindex>
														</link>
														<logginginfo>
															<description></description>
															<scene></scene>
															<shottake></shottake>
															<lognote></lognote>
															<good></good>
															<originalvideofilename></originalvideofilename>
															<originalaudiofilename></originalaudiofilename>
														</logginginfo>
														<colorinfo>
															<lut></lut>
															<lut1></lut1>
															<asc_sop></asc_sop>
															<asc_sat></asc_sat>
															<lut2></lut2>
														</colorinfo>
														<labels>
															<label2>Caribbean</label2>
														</labels>
													</clipitem>
													<transitionitem>
														<start>4000</start>
														<end>4090</end>
														<pproTicksIn>33902668800000</pproTicksIn>
														<pproTicksOut>34665478848000</pproTicksOut>
														<alignment>end-black</alignment>
														<cutPointTicks>762810048000</cutPointTicks>
														<rate>
															<timebase>30</timebase>
															<ntsc>TRUE</ntsc>
														</rate>
														<effect>
															<name>Cross Fade (+3dB)</name>
															<effectid>KGAudioTransCrossFade3dB</effectid>
															<effecttype>transition</effecttype>
															<mediatype>audio</mediatype>
															<wipecode>0</wipecode>
															<wipeaccuracy>100</wipeaccuracy>
															<startratio>0</startratio>
															<endratio>1</endratio>
															<reverse>FALSE</reverse>
														</effect>
													</transitionitem>
													<enabled>TRUE</enabled>
													<locked>FALSE</locked>
													<filter>
														<effect>
															<name>Audio Levels</name>
															<effectid>audiolevels</effectid>
															<effectcategory>audiolevels</effectcategory>
															<effecttype>audiolevels</effecttype>
															<mediatype>audio</mediatype>
															<parameter authoringApp="PremierePro">
																<parameterid>level</parameterid>
																<name>Level</name>
																<valuemin>0</valuemin>
																<valuemax>3.98109</valuemax>
																<value>0.706272</value>
															</parameter>
														</effect>
													</filter>
													<outputchannelindex>1</outputchannelindex>
												</track>
												<track TL.SQTrackAudioKeyframeStyle="0" TL.SQTrackShy="0" TL.SQTrackExpandedHeight="25" TL.SQTrackExpanded="0" MZ.TrackTargeted="1" PannerCurrentValue="0.5" PannerIsInverted="true" PannerStartKeyframe="-91445760000000000,0.5,0,0,0,0,0,0" PannerName="Balance" currentExplodedTrackIndex="1" totalExplodedTrackCount="2" premiereTrackType="Stereo">
													<transitionitem>
														<start>0</start>
														<end>30</end>
														<pproTicksIn>0</pproTicksIn>
														<pproTicksOut>254270016000</pproTicksOut>
														<alignment>start-black</alignment>
														<cutPointTicks>0</cutPointTicks>
														<rate>
															<timebase>30</timebase>
															<ntsc>TRUE</ntsc>
														</rate>
														<effect>
															<name>Cross Fade (+3dB)</name>
															<effectid>KGAudioTransCrossFade3dB</effectid>
															<effecttype>transition</effecttype>
															<mediatype>audio</mediatype>
															<wipecode>0</wipecode>
															<wipeaccuracy>100</wipeaccuracy>
															<startratio>0</startratio>
															<endratio>1</endratio>
															<reverse>FALSE</reverse>
														</effect>
													</transitionitem>
													<clipitem id="clipitem-310" premiereChannelType="stereo">
														<masterclipid>masterclip-29</masterclipid>
														<name>ES_I See Blue - Dye O.mp3</name>
														<enabled>TRUE</enabled>
														<duration>7405</duration>
														<rate>
															<timebase>30</timebase>
															<ntsc>TRUE</ntsc>
														</rate>
														<start>-1</start>
														<end>-1</end>
														<in>1601</in>
														<out>5691</out>
														<pproTicksIn>13569543187200</pproTicksIn>
														<pproTicksOut>48235022035200</pproTicksOut>
														<file id="file-29"/>
														<sourcetrack>
															<mediatype>audio</mediatype>
															<trackindex>2</trackindex>
														</sourcetrack>
														<link>
															<linkclipref>clipitem-309</linkclipref>
															<mediatype>audio</mediatype>
															<trackindex>1</trackindex>
															<clipindex>2</clipindex>
															<groupindex>1</groupindex>
														</link>
														<link>
															<linkclipref>clipitem-310</linkclipref>
															<mediatype>audio</mediatype>
															<trackindex>2</trackindex>
															<clipindex>2</clipindex>
															<groupindex>1</groupindex>
														</link>
														<logginginfo>
															<description></description>
															<scene></scene>
															<shottake></shottake>
															<lognote></lognote>
															<good></good>
															<originalvideofilename></originalvideofilename>
															<originalaudiofilename></originalaudiofilename>
														</logginginfo>
														<colorinfo>
															<lut></lut>
															<lut1></lut1>
															<asc_sop></asc_sop>
															<asc_sat></asc_sat>
															<lut2></lut2>
														</colorinfo>
														<labels>
															<label2>Caribbean</label2>
														</labels>
													</clipitem>
													<transitionitem>
														<start>4000</start>
														<end>4090</end>
														<pproTicksIn>33902668800000</pproTicksIn>
														<pproTicksOut>34665478848000</pproTicksOut>
														<alignment>end-black</alignment>
														<cutPointTicks>762810048000</cutPointTicks>
														<rate>
															<timebase>30</timebase>
															<ntsc>TRUE</ntsc>
														</rate>
														<effect>
															<name>Cross Fade (+3dB)</name>
															<effectid>KGAudioTransCrossFade3dB</effectid>
															<effecttype>transition</effecttype>
															<mediatype>audio</mediatype>
															<wipecode>0</wipecode>
															<wipeaccuracy>100</wipeaccuracy>
															<startratio>0</startratio>
															<endratio>1</endratio>
															<reverse>FALSE</reverse>
														</effect>
													</transitionitem>
													<enabled>TRUE</enabled>
													<locked>FALSE</locked>
													<filter>
														<effect>
															<name>Audio Levels</name>
															<effectid>audiolevels</effectid>
															<effectcategory>audiolevels</effectcategory>
															<effecttype>audiolevels</effecttype>
															<mediatype>audio</mediatype>
															<parameter authoringApp="PremierePro">
																<parameterid>level</parameterid>
																<name>Level</name>
																<valuemin>0</valuemin>
																<valuemax>3.98109</valuemax>
																<value>0.706272</value>
															</parameter>
														</effect>
													</filter>
													<outputchannelindex>2</outputchannelindex>
												</track>
											</audio>
										</media>
										<timecode>
											<rate>
												<timebase>30</timebase>
												<ntsc>TRUE</ntsc>
											</rate>
											<string>00:00:00:00</string>
											<frame>0</frame>
											<displayformat>NDF</displayformat>
										</timecode>
										<labels>
											<label2>Forest</label2>
										</labels>
										<logginginfo>
											<description></description>
											<scene></scene>
											<shottake></shottake>
											<lognote></lognote>
											<good></good>
											<originalvideofilename></originalvideofilename>
											<originalaudiofilename></originalaudiofilename>
										</logginginfo>
									</sequence>
									<sequence id="sequence-43" TL.SQAudioVisibleBase="0" TL.SQVideoVisibleBase="0" TL.SQVisibleBaseTime="0" TL.SQAVDividerPosition="0.5" TL.SQHideShyTracks="0" TL.SQHeaderWidth="236" Monitor.ProgramZoomOut="8068835174400" Monitor.ProgramZoomIn="0" TL.SQTimePerPixel="0.069092584062642445" AM.TrackVScrollPosition="0" AM.TrackScrollPosition="0" MZ.EditLine="1712084774400" MZ.Sequence.PreviewFrameSizeHeight="1080" MZ.Sequence.PreviewFrameSizeWidth="1920" MZ.Sequence.AudioTimeDisplayFormat="200" MZ.Sequence.PreviewRenderingClassID="1297106761" MZ.Sequence.PreviewRenderingPresetCodec="1297107278" MZ.Sequence.PreviewRenderingPresetPath="EncoderPresets/SequencePreview/795454d9-d3c2-429d-9474-923ab13b7018/I-Frame Only MPEG.epr" MZ.Sequence.PreviewUseMaxRenderQuality="false" MZ.Sequence.PreviewUseMaxBitDepth="false" MZ.Sequence.EditingModeGUID="795454d9-d3c2-429d-9474-923ab13b7018" MZ.Sequence.VideoTimeDisplayFormat="103" MZ.WorkOutPoint="8068835174400" MZ.WorkInPoint="0" explodedTracks="true">
										<uuid>61f38687-a732-4904-b1f2-0068708134ae</uuid>
										<duration>952</duration>
										<rate>
											<timebase>30</timebase>
											<ntsc>TRUE</ntsc>
										</rate>
										<name>WCARD_all the colors of the rainbow Happy unbranded_.5</name>
										<media>
											<video>
												<format>
													<samplecharacteristics>
														<rate>
															<timebase>30</timebase>
															<ntsc>TRUE</ntsc>
														</rate>
														<codec>
															<name>Apple ProRes 422</name>
															<appspecificdata>
																<appname>Final Cut Pro</appname>
																<appmanufacturer>Apple Inc.</appmanufacturer>
																<appversion>7.0</appversion>
																<data>
																	<qtcodec>
																		<codecname>Apple ProRes 422</codecname>
																		<codectypename>Apple ProRes 422</codectypename>
																		<codectypecode>apcn</codectypecode>
																		<codecvendorcode>appl</codecvendorcode>
																		<spatialquality>1024</spatialquality>
																		<temporalquality>0</temporalquality>
																		<keyframerate>0</keyframerate>
																		<datarate>0</datarate>
																	</qtcodec>
																</data>
															</appspecificdata>
														</codec>
														<width>1920</width>
														<height>1080</height>
														<anamorphic>FALSE</anamorphic>
														<pixelaspectratio>square</pixelaspectratio>
														<fielddominance>none</fielddominance>
														<colordepth>24</colordepth>
													</samplecharacteristics>
												</format>
												<track TL.SQTrackShy="0" TL.SQTrackExpandedHeight="25" TL.SQTrackExpanded="0" MZ.TrackTargeted="1">
													<clipitem id="clipitem-311">
														<masterclipid>masterclip-138</masterclipid>
														<name>All the Colors of the Rainbow_HAPPY.mp4</name>
														<enabled>TRUE</enabled>
														<duration>1190</duration>
														<rate>
															<timebase>30</timebase>
															<ntsc>TRUE</ntsc>
														</rate>
														<start>0</start>
														<end>282</end>
														<in>85</in>
														<out>367</out>
														<pproTicksIn>720431712000</pproTicksIn>
														<pproTicksOut>3110569862400</pproTicksOut>
														<alphatype>none</alphatype>
														<pixelaspectratio>square</pixelaspectratio>
														<anamorphic>FALSE</anamorphic>
														<file id="file-135">
															<name>All the Colors of the Rainbow_HAPPY.mp4</name>
															<pathurl>file://localhost/Volumes/Satisfactum%20Satisfactorum/03_Weekly%20(Project%20Files,%20Main%20Segments)/OSTV/OSTV%2023-08-28/3_Raw%20Files/All%20the%20Colors%20of%20the%20Rainbow_HAPPY.mp4</pathurl>
															<rate>
																<timebase>30</timebase>
																<ntsc>TRUE</ntsc>
															</rate>
															<duration>1190</duration>
															<timecode>
																<rate>
																	<timebase>30</timebase>
																	<ntsc>TRUE</ntsc>
																</rate>
																<string>00;00;00;00</string>
																<frame>0</frame>
																<displayformat>DF</displayformat>
															</timecode>
															<media>
																<video>
																	<samplecharacteristics>
																		<rate>
																			<timebase>30</timebase>
																			<ntsc>TRUE</ntsc>
																		</rate>
																		<width>1280</width>
																		<height>720</height>
																		<anamorphic>FALSE</anamorphic>
																		<pixelaspectratio>square</pixelaspectratio>
																		<fielddominance>none</fielddominance>
																	</samplecharacteristics>
																</video>
																<audio>
																	<samplecharacteristics>
																		<depth>16</depth>
																		<samplerate>48000</samplerate>
																	</samplecharacteristics>
																	<channelcount>2</channelcount>
																</audio>
															</media>
														</file>
														<filter>
															<effect>
																<name>Basic Motion</name>
																<effectid>basic</effectid>
																<effectcategory>motion</effectcategory>
																<effecttype>motion</effecttype>
																<mediatype>video</mediatype>
																<pproBypass>false</pproBypass>
																<parameter authoringApp="PremierePro">
																	<parameterid>scale</parameterid>
																	<name>Scale</name>
																	<valuemin>0</valuemin>
																	<valuemax>1000</valuemax>
																	<value>150</value>
																</parameter>
																<parameter authoringApp="PremierePro">
																	<parameterid>rotation</parameterid>
																	<name>Rotation</name>
																	<valuemin>-8640</valuemin>
																	<valuemax>8640</valuemax>
																	<value>0</value>
																</parameter>
																<parameter authoringApp="PremierePro">
																	<parameterid>center</parameterid>
																	<name>Center</name>
																	<value>
																		<horiz>0</horiz>
																		<vert>0</vert>
																	</value>
																</parameter>
																<parameter authoringApp="PremierePro">
																	<parameterid>centerOffset</parameterid>
																	<name>Anchor Point</name>
																	<value>
																		<horiz>0</horiz>
																		<vert>0</vert>
																	</value>
																</parameter>
																<parameter authoringApp="PremierePro">
																	<parameterid>antiflicker</parameterid>
																	<name>Anti-flicker Filter</name>
																	<valuemin>0.0</valuemin>
																	<valuemax>1.0</valuemax>
																	<value>0</value>
																</parameter>
															</effect>
														</filter>
														<logginginfo>
															<description></description>
															<scene></scene>
															<shottake></shottake>
															<lognote></lognote>
															<good></good>
															<originalvideofilename></originalvideofilename>
															<originalaudiofilename></originalaudiofilename>
														</logginginfo>
														<colorinfo>
															<lut></lut>
															<lut1></lut1>
															<asc_sop></asc_sop>
															<asc_sat></asc_sat>
															<lut2></lut2>
														</colorinfo>
														<labels>
															<label2>Iris</label2>
														</labels>
													</clipitem>
													<clipitem id="clipitem-312">
														<masterclipid>masterclip-138</masterclipid>
														<name>All the Colors of the Rainbow_HAPPY.mp4</name>
														<enabled>TRUE</enabled>
														<duration>1190</duration>
														<rate>
															<timebase>30</timebase>
															<ntsc>TRUE</ntsc>
														</rate>
														<start>282</start>
														<end>464</end>
														<in>405</in>
														<out>587</out>
														<pproTicksIn>3432645216000</pproTicksIn>
														<pproTicksOut>4975216646400</pproTicksOut>
														<alphatype>none</alphatype>
														<file id="file-135"/>
														<filter>
															<effect>
																<name>Basic Motion</name>
																<effectid>basic</effectid>
																<effectcategory>motion</effectcategory>
																<effecttype>motion</effecttype>
																<mediatype>video</mediatype>
																<pproBypass>false</pproBypass>
																<parameter authoringApp="PremierePro">
																	<parameterid>scale</parameterid>
																	<name>Scale</name>
																	<valuemin>0</valuemin>
																	<valuemax>1000</valuemax>
																	<value>150</value>
																</parameter>
																<parameter authoringApp="PremierePro">
																	<parameterid>rotation</parameterid>
																	<name>Rotation</name>
																	<valuemin>-8640</valuemin>
																	<valuemax>8640</valuemax>
																	<value>0</value>
																</parameter>
																<parameter authoringApp="PremierePro">
																	<parameterid>center</parameterid>
																	<name>Center</name>
																	<value>
																		<horiz>0</horiz>
																		<vert>0</vert>
																	</value>
																</parameter>
																<parameter authoringApp="PremierePro">
																	<parameterid>centerOffset</parameterid>
																	<name>Anchor Point</name>
																	<value>
																		<horiz>0</horiz>
																		<vert>0</vert>
																	</value>
																</parameter>
																<parameter authoringApp="PremierePro">
																	<parameterid>antiflicker</parameterid>
																	<name>Anti-flicker Filter</name>
																	<valuemin>0.0</valuemin>
																	<valuemax>1.0</valuemax>
																	<value>0</value>
																</parameter>
															</effect>
														</filter>
														<logginginfo>
															<description></description>
															<scene></scene>
															<shottake></shottake>
															<lognote></lognote>
															<good></good>
															<originalvideofilename></originalvideofilename>
															<originalaudiofilename></originalaudiofilename>
														</logginginfo>
														<colorinfo>
															<lut></lut>
															<lut1></lut1>
															<asc_sop></asc_sop>
															<asc_sat></asc_sat>
															<lut2></lut2>
														</colorinfo>
														<labels>
															<label2>Iris</label2>
														</labels>
													</clipitem>
													<clipitem id="clipitem-313">
														<masterclipid>masterclip-138</masterclipid>
														<name>All the Colors of the Rainbow_HAPPY.mp4</name>
														<enabled>TRUE</enabled>
														<duration>1190</duration>
														<rate>
															<timebase>30</timebase>
															<ntsc>TRUE</ntsc>
														</rate>
														<start>464</start>
														<end>694</end>
														<in>647</in>
														<out>877</out>
														<pproTicksIn>5483756678400</pproTicksIn>
														<pproTicksOut>7433160134400</pproTicksOut>
														<alphatype>none</alphatype>
														<file id="file-135"/>
														<filter>
															<effect>
																<name>Basic Motion</name>
																<effectid>basic</effectid>
																<effectcategory>motion</effectcategory>
																<effecttype>motion</effecttype>
																<mediatype>video</mediatype>
																<pproBypass>false</pproBypass>
																<parameter authoringApp="PremierePro">
																	<parameterid>scale</parameterid>
																	<name>Scale</name>
																	<valuemin>0</valuemin>
																	<valuemax>1000</valuemax>
																	<value>150</value>
																</parameter>
																<parameter authoringApp="PremierePro">
																	<parameterid>rotation</parameterid>
																	<name>Rotation</name>
																	<valuemin>-8640</valuemin>
																	<valuemax>8640</valuemax>
																	<value>0</value>
																</parameter>
																<parameter authoringApp="PremierePro">
																	<parameterid>center</parameterid>
																	<name>Center</name>
																	<value>
																		<horiz>0</horiz>
																		<vert>0</vert>
																	</value>
																</parameter>
																<parameter authoringApp="PremierePro">
																	<parameterid>centerOffset</parameterid>
																	<name>Anchor Point</name>
																	<value>
																		<horiz>0</horiz>
																		<vert>0</vert>
																	</value>
																</parameter>
																<parameter authoringApp="PremierePro">
																	<parameterid>antiflicker</parameterid>
																	<name>Anti-flicker Filter</name>
																	<valuemin>0.0</valuemin>
																	<valuemax>1.0</valuemax>
																	<value>0</value>
																</parameter>
															</effect>
														</filter>
														<logginginfo>
															<description></description>
															<scene></scene>
															<shottake></shottake>
															<lognote></lognote>
															<good></good>
															<originalvideofilename></originalvideofilename>
															<originalaudiofilename></originalaudiofilename>
														</logginginfo>
														<colorinfo>
															<lut></lut>
															<lut1></lut1>
															<asc_sop></asc_sop>
															<asc_sat></asc_sat>
															<lut2></lut2>
														</colorinfo>
														<labels>
															<label2>Iris</label2>
														</labels>
													</clipitem>
													<clipitem id="clipitem-314">
														<masterclipid>masterclip-138</masterclipid>
														<name>All the Colors of the Rainbow_HAPPY.mp4</name>
														<enabled>TRUE</enabled>
														<duration>1190</duration>
														<rate>
															<timebase>30</timebase>
															<ntsc>TRUE</ntsc>
														</rate>
														<start>694</start>
														<end>952</end>
														<in>932</in>
														<out>1190</out>
														<pproTicksIn>7899321830400</pproTicksIn>
														<pproTicksOut>10086043968000</pproTicksOut>
														<alphatype>none</alphatype>
														<file id="file-135"/>
														<filter>
															<effect>
																<name>Basic Motion</name>
																<effectid>basic</effectid>
																<effectcategory>motion</effectcategory>
																<effecttype>motion</effecttype>
																<mediatype>video</mediatype>
																<pproBypass>false</pproBypass>
																<parameter authoringApp="PremierePro">
																	<parameterid>scale</parameterid>
																	<name>Scale</name>
																	<valuemin>0</valuemin>
																	<valuemax>1000</valuemax>
																	<value>150</value>
																</parameter>
																<parameter authoringApp="PremierePro">
																	<parameterid>rotation</parameterid>
																	<name>Rotation</name>
																	<valuemin>-8640</valuemin>
																	<valuemax>8640</valuemax>
																	<value>0</value>
																</parameter>
																<parameter authoringApp="PremierePro">
																	<parameterid>center</parameterid>
																	<name>Center</name>
																	<value>
																		<horiz>0</horiz>
																		<vert>0</vert>
																	</value>
																</parameter>
																<parameter authoringApp="PremierePro">
																	<parameterid>centerOffset</parameterid>
																	<name>Anchor Point</name>
																	<value>
																		<horiz>0</horiz>
																		<vert>0</vert>
																	</value>
																</parameter>
																<parameter authoringApp="PremierePro">
																	<parameterid>antiflicker</parameterid>
																	<name>Anti-flicker Filter</name>
																	<valuemin>0.0</valuemin>
																	<valuemax>1.0</valuemax>
																	<value>0</value>
																</parameter>
															</effect>
														</filter>
														<logginginfo>
															<description></description>
															<scene></scene>
															<shottake></shottake>
															<lognote></lognote>
															<good></good>
															<originalvideofilename></originalvideofilename>
															<originalaudiofilename></originalaudiofilename>
														</logginginfo>
														<colorinfo>
															<lut></lut>
															<lut1></lut1>
															<asc_sop></asc_sop>
															<asc_sat></asc_sat>
															<lut2></lut2>
														</colorinfo>
														<labels>
															<label2>Iris</label2>
														</labels>
													</clipitem>
													<enabled>TRUE</enabled>
													<locked>FALSE</locked>
												</track>
												<track TL.SQTrackShy="0" TL.SQTrackExpandedHeight="25" TL.SQTrackExpanded="0" MZ.TrackTargeted="0">
													<clipitem id="clipitem-315">
														<masterclipid>masterclip-122</masterclipid>
														<name>Adjustment Layer</name>
														<enabled>TRUE</enabled>
														<duration>1294705</duration>
														<rate>
															<timebase>30</timebase>
															<ntsc>TRUE</ntsc>
														</rate>
														<start>0</start>
														<end>952</end>
														<in>107892</in>
														<out>108844</out>
														<pproTicksIn>914456685542400</pproTicksIn>
														<pproTicksOut>922525520716800</pproTicksOut>
														<alphatype>none</alphatype>
														<file id="file-121"/>
														<filter>
															<effect>
																<name>Basic Motion</name>
																<effectid>basic</effectid>
																<effectcategory>motion</effectcategory>
																<effecttype>motion</effecttype>
																<mediatype>video</mediatype>
																<pproBypass>false</pproBypass>
																<parameter authoringApp="PremierePro">
																	<parameterid>scale</parameterid>
																	<name>Scale</name>
																	<valuemin>0</valuemin>
																	<valuemax>1000</valuemax>
																	<value>150</value>
																</parameter>
																<parameter authoringApp="PremierePro">
																	<parameterid>rotation</parameterid>
																	<name>Rotation</name>
																	<valuemin>-8640</valuemin>
																	<valuemax>8640</valuemax>
																	<value>0</value>
																</parameter>
																<parameter authoringApp="PremierePro">
																	<parameterid>center</parameterid>
																	<name>Center</name>
																	<value>
																		<horiz>0</horiz>
																		<vert>0</vert>
																	</value>
																</parameter>
																<parameter authoringApp="PremierePro">
																	<parameterid>centerOffset</parameterid>
																	<name>Anchor Point</name>
																	<value>
																		<horiz>0</horiz>
																		<vert>0</vert>
																	</value>
																</parameter>
																<parameter authoringApp="PremierePro">
																	<parameterid>antiflicker</parameterid>
																	<name>Anti-flicker Filter</name>
																	<valuemin>0.0</valuemin>
																	<valuemax>1.0</valuemax>
																	<value>0</value>
																</parameter>
															</effect>
														</filter>
														<filter>
															<effect>
																<name>Gaussian Blur</name>
																<effectid>Gaussian Blur</effectid>
																<effectcategory>Blur</effectcategory>
																<effecttype>motion</effecttype>
																<mediatype>video</mediatype>
																<pproBypass>false</pproBypass>
																<parameter authoringApp="PremierePro">
																	<parameterid>radius</parameterid>
																	<name>Radius</name>
																	<valuemin>0</valuemin>
																	<valuemax>100</valuemax>
																	<value>150</value>
																</parameter>
															</effect>
														</filter>
														<logginginfo>
															<description></description>
															<scene></scene>
															<shottake></shottake>
															<lognote></lognote>
															<good></good>
															<originalvideofilename></originalvideofilename>
															<originalaudiofilename></originalaudiofilename>
														</logginginfo>
														<colorinfo>
															<lut></lut>
															<lut1></lut1>
															<asc_sop></asc_sop>
															<asc_sat></asc_sat>
															<lut2></lut2>
														</colorinfo>
														<labels>
															<label2>Lavender</label2>
														</labels>
													</clipitem>
													<enabled>TRUE</enabled>
													<locked>FALSE</locked>
												</track>
												<track TL.SQTrackShy="0" TL.SQTrackExpandedHeight="25" TL.SQTrackExpanded="0" MZ.TrackTargeted="0">
													<clipitem id="clipitem-316">
														<masterclipid>masterclip-36</masterclipid>
														<name>thejesjewel</name>
														<enabled>TRUE</enabled>
														<duration>5844</duration>
														<rate>
															<timebase>30</timebase>
															<ntsc>TRUE</ntsc>
														</rate>
														<start>0</start>
														<end>952</end>
														<in>0</in>
														<out>952</out>
														<pproTicksIn>0</pproTicksIn>
														<pproTicksOut>8068835174400</pproTicksOut>
														<alphatype>straight</alphatype>
														<file id="file-36"/>
														<filter>
															<effect>
																<name>Basic Motion</name>
																<effectid>basic</effectid>
																<effectcategory>motion</effectcategory>
																<effecttype>motion</effecttype>
																<mediatype>video</mediatype>
																<pproBypass>false</pproBypass>
																<parameter authoringApp="PremierePro">
																	<parameterid>scale</parameterid>
																	<name>Scale</name>
																	<valuemin>0</valuemin>
																	<valuemax>1000</valuemax>
																	<value>150</value>
																</parameter>
																<parameter authoringApp="PremierePro">
																	<parameterid>rotation</parameterid>
																	<name>Rotation</name>
																	<valuemin>-8640</valuemin>
																	<valuemax>8640</valuemax>
																	<value>0</value>
																</parameter>
																<parameter authoringApp="PremierePro">
																	<parameterid>center</parameterid>
																	<name>Center</name>
																	<value>
																		<horiz>0</horiz>
																		<vert>0</vert>
																	</value>
																</parameter>
																<parameter authoringApp="PremierePro">
																	<parameterid>centerOffset</parameterid>
																	<name>Anchor Point</name>
																	<value>
																		<horiz>0</horiz>
																		<vert>0</vert>
																	</value>
																</parameter>
																<parameter authoringApp="PremierePro">
																	<parameterid>antiflicker</parameterid>
																	<name>Anti-flicker Filter</name>
																	<valuemin>0.0</valuemin>
																	<valuemax>1.0</valuemax>
																	<value>0</value>
																</parameter>
															</effect>
														</filter>
														<logginginfo>
															<description></description>
															<scene></scene>
															<shottake></shottake>
															<lognote></lognote>
															<good></good>
															<originalvideofilename></originalvideofilename>
															<originalaudiofilename></originalaudiofilename>
														</logginginfo>
														<colorinfo>
															<lut></lut>
															<lut1></lut1>
															<asc_sop></asc_sop>
															<asc_sat></asc_sat>
															<lut2></lut2>
														</colorinfo>
														<labels>
															<label2>Rose</label2>
														</labels>
													</clipitem>
													<enabled>TRUE</enabled>
													<locked>FALSE</locked>
												</track>
												<track TL.SQTrackShy="0" TL.SQTrackExpandedHeight="25" TL.SQTrackExpanded="0" MZ.TrackTargeted="0">
													<clipitem id="clipitem-317">
														<masterclipid>masterclip-106</masterclipid>
														<name>Bug and Lower Nest</name>
														<enabled>TRUE</enabled>
														<duration>14721</duration>
														<rate>
															<timebase>30</timebase>
															<ntsc>TRUE</ntsc>
														</rate>
														<start>0</start>
														<end>952</end>
														<in>0</in>
														<out>952</out>
														<pproTicksIn>0</pproTicksIn>
														<pproTicksOut>8068835174400</pproTicksOut>
														<sequence id="sequence-1"/>
														<labels>
															<label2>Cerulean</label2>
														</labels>
													</clipitem>
													<enabled>FALSE</enabled>
													<locked>FALSE</locked>
												</track>
											</video>
											<audio>
												<numOutputChannels>2</numOutputChannels>
												<format>
													<samplecharacteristics>
														<depth>16</depth>
														<samplerate>44100</samplerate>
													</samplecharacteristics>
												</format>
												<outputs>
													<group>
														<index>1</index>
														<numchannels>1</numchannels>
														<downmix>0</downmix>
														<channel>
															<index>1</index>
														</channel>
													</group>
													<group>
														<index>2</index>
														<numchannels>1</numchannels>
														<downmix>0</downmix>
														<channel>
															<index>2</index>
														</channel>
													</group>
												</outputs>
												<track TL.SQTrackAudioKeyframeStyle="0" TL.SQTrackShy="0" TL.SQTrackExpandedHeight="25" TL.SQTrackExpanded="0" MZ.TrackTargeted="1" PannerCurrentValue="0.5" PannerIsInverted="true" PannerStartKeyframe="-91445760000000000,0.5,0,0,0,0,0,0" PannerName="Balance" currentExplodedTrackIndex="0" totalExplodedTrackCount="2" premiereTrackType="Stereo">
													<transitionitem>
														<start>0</start>
														<end>30</end>
														<pproTicksIn>0</pproTicksIn>
														<pproTicksOut>254270016000</pproTicksOut>
														<alignment>start-black</alignment>
														<cutPointTicks>0</cutPointTicks>
														<rate>
															<timebase>30</timebase>
															<ntsc>TRUE</ntsc>
														</rate>
														<effect>
															<name>Cross Fade (+3dB)</name>
															<effectid>KGAudioTransCrossFade3dB</effectid>
															<effecttype>transition</effecttype>
															<mediatype>audio</mediatype>
															<wipecode>0</wipecode>
															<wipeaccuracy>100</wipeaccuracy>
															<startratio>0</startratio>
															<endratio>1</endratio>
															<reverse>FALSE</reverse>
														</effect>
													</transitionitem>
													<clipitem id="clipitem-318" premiereChannelType="stereo">
														<masterclipid>masterclip-30</masterclipid>
														<name>ES_Blitz - Ballpoint.mp3</name>
														<enabled>TRUE</enabled>
														<duration>4356</duration>
														<rate>
															<timebase>30</timebase>
															<ntsc>TRUE</ntsc>
														</rate>
														<start>-1</start>
														<end>-1</end>
														<in>426</in>
														<out>1378</out>
														<pproTicksIn>3610634227200</pproTicksIn>
														<pproTicksOut>11679469401600</pproTicksOut>
														<file id="file-30"/>
														<sourcetrack>
															<mediatype>audio</mediatype>
															<trackindex>1</trackindex>
														</sourcetrack>
															<marker>
																<comment></comment>
																<name></name>
																<in>427</in>
																<out>-1</out>
															</marker>
														<link>
															<linkclipref>clipitem-318</linkclipref>
															<mediatype>audio</mediatype>
															<trackindex>1</trackindex>
															<clipindex>2</clipindex>
															<groupindex>1</groupindex>
														</link>
														<link>
															<linkclipref>clipitem-319</linkclipref>
															<mediatype>audio</mediatype>
															<trackindex>2</trackindex>
															<clipindex>2</clipindex>
															<groupindex>1</groupindex>
														</link>
														<logginginfo>
															<description></description>
															<scene></scene>
															<shottake></shottake>
															<lognote></lognote>
															<good></good>
															<originalvideofilename></originalvideofilename>
															<originalaudiofilename></originalaudiofilename>
														</logginginfo>
														<colorinfo>
															<lut></lut>
															<lut1></lut1>
															<asc_sop></asc_sop>
															<asc_sat></asc_sat>
															<lut2></lut2>
														</colorinfo>
														<labels>
															<label2>Forest</label2>
														</labels>
													</clipitem>
													<transitionitem>
														<start>862</start>
														<end>952</end>
														<pproTicksIn>7306024320000</pproTicksIn>
														<pproTicksOut>8068835174400</pproTicksOut>
														<alignment>end-black</alignment>
														<cutPointTicks>762810854400</cutPointTicks>
														<rate>
															<timebase>30</timebase>
															<ntsc>TRUE</ntsc>
														</rate>
														<effect>
															<name>Cross Fade (+3dB)</name>
															<effectid>KGAudioTransCrossFade3dB</effectid>
															<effecttype>transition</effecttype>
															<mediatype>audio</mediatype>
															<wipecode>0</wipecode>
															<wipeaccuracy>100</wipeaccuracy>
															<startratio>0</startratio>
															<endratio>1</endratio>
															<reverse>FALSE</reverse>
														</effect>
													</transitionitem>
													<enabled>TRUE</enabled>
													<locked>FALSE</locked>
													<filter>
														<effect>
															<name>Audio Levels</name>
															<effectid>audiolevels</effectid>
															<effectcategory>audiolevels</effectcategory>
															<effecttype>audiolevels</effecttype>
															<mediatype>audio</mediatype>
															<parameter authoringApp="PremierePro">
																<parameterid>level</parameterid>
																<name>Level</name>
																<valuemin>0</valuemin>
																<valuemax>3.98109</valuemax>
																<value>0.706272</value>
															</parameter>
														</effect>
													</filter>
													<outputchannelindex>1</outputchannelindex>
												</track>
												<track TL.SQTrackAudioKeyframeStyle="0" TL.SQTrackShy="0" TL.SQTrackExpandedHeight="25" TL.SQTrackExpanded="0" MZ.TrackTargeted="1" PannerCurrentValue="0.5" PannerIsInverted="true" PannerStartKeyframe="-91445760000000000,0.5,0,0,0,0,0,0" PannerName="Balance" currentExplodedTrackIndex="1" totalExplodedTrackCount="2" premiereTrackType="Stereo">
													<transitionitem>
														<start>0</start>
														<end>30</end>
														<pproTicksIn>0</pproTicksIn>
														<pproTicksOut>254270016000</pproTicksOut>
														<alignment>start-black</alignment>
														<cutPointTicks>0</cutPointTicks>
														<rate>
															<timebase>30</timebase>
															<ntsc>TRUE</ntsc>
														</rate>
														<effect>
															<name>Cross Fade (+3dB)</name>
															<effectid>KGAudioTransCrossFade3dB</effectid>
															<effecttype>transition</effecttype>
															<mediatype>audio</mediatype>
															<wipecode>0</wipecode>
															<wipeaccuracy>100</wipeaccuracy>
															<startratio>0</startratio>
															<endratio>1</endratio>
															<reverse>FALSE</reverse>
														</effect>
													</transitionitem>
													<clipitem id="clipitem-319" premiereChannelType="stereo">
														<masterclipid>masterclip-30</masterclipid>
														<name>ES_Blitz - Ballpoint.mp3</name>
														<enabled>TRUE</enabled>
														<duration>4356</duration>
														<rate>
															<timebase>30</timebase>
															<ntsc>TRUE</ntsc>
														</rate>
														<start>-1</start>
														<end>-1</end>
														<in>426</in>
														<out>1378</out>
														<pproTicksIn>3610634227200</pproTicksIn>
														<pproTicksOut>11679469401600</pproTicksOut>
														<file id="file-30"/>
														<sourcetrack>
															<mediatype>audio</mediatype>
															<trackindex>2</trackindex>
														</sourcetrack>
															<marker>
																<comment></comment>
																<name></name>
																<in>427</in>
																<out>-1</out>
															</marker>
														<link>
															<linkclipref>clipitem-318</linkclipref>
															<mediatype>audio</mediatype>
															<trackindex>1</trackindex>
															<clipindex>2</clipindex>
															<groupindex>1</groupindex>
														</link>
														<link>
															<linkclipref>clipitem-319</linkclipref>
															<mediatype>audio</mediatype>
															<trackindex>2</trackindex>
															<clipindex>2</clipindex>
															<groupindex>1</groupindex>
														</link>
														<logginginfo>
															<description></description>
															<scene></scene>
															<shottake></shottake>
															<lognote></lognote>
															<good></good>
															<originalvideofilename></originalvideofilename>
															<originalaudiofilename></originalaudiofilename>
														</logginginfo>
														<colorinfo>
															<lut></lut>
															<lut1></lut1>
															<asc_sop></asc_sop>
															<asc_sat></asc_sat>
															<lut2></lut2>
														</colorinfo>
														<labels>
															<label2>Forest</label2>
														</labels>
													</clipitem>
													<transitionitem>
														<start>862</start>
														<end>952</end>
														<pproTicksIn>7306024320000</pproTicksIn>
														<pproTicksOut>8068835174400</pproTicksOut>
														<alignment>end-black</alignment>
														<cutPointTicks>762810854400</cutPointTicks>
														<rate>
															<timebase>30</timebase>
															<ntsc>TRUE</ntsc>
														</rate>
														<effect>
															<name>Cross Fade (+3dB)</name>
															<effectid>KGAudioTransCrossFade3dB</effectid>
															<effecttype>transition</effecttype>
															<mediatype>audio</mediatype>
															<wipecode>0</wipecode>
															<wipeaccuracy>100</wipeaccuracy>
															<startratio>0</startratio>
															<endratio>1</endratio>
															<reverse>FALSE</reverse>
														</effect>
													</transitionitem>
													<enabled>TRUE</enabled>
													<locked>FALSE</locked>
													<filter>
														<effect>
															<name>Audio Levels</name>
															<effectid>audiolevels</effectid>
															<effectcategory>audiolevels</effectcategory>
															<effecttype>audiolevels</effecttype>
															<mediatype>audio</mediatype>
															<parameter authoringApp="PremierePro">
																<parameterid>level</parameterid>
																<name>Level</name>
																<valuemin>0</valuemin>
																<valuemax>3.98109</valuemax>
																<value>0.706272</value>
															</parameter>
														</effect>
													</filter>
													<outputchannelindex>2</outputchannelindex>
												</track>
											</audio>
										</media>
										<timecode>
											<rate>
												<timebase>30</timebase>
												<ntsc>TRUE</ntsc>
											</rate>
											<string>00:00:00:00</string>
											<frame>0</frame>
											<displayformat>NDF</displayformat>
										</timecode>
										<labels>
											<label2>Forest</label2>
										</labels>
										<logginginfo>
											<description></description>
											<scene></scene>
											<shottake></shottake>
											<lognote></lognote>
											<good></good>
											<originalvideofilename></originalvideofilename>
											<originalaudiofilename></originalaudiofilename>
										</logginginfo>
									</sequence>
									<sequence id="sequence-44" TL.SQAudioVisibleBase="0" TL.SQVideoVisibleBase="0" TL.SQVisibleBaseTime="0" TL.SQAVDividerPosition="0.5" TL.SQHideShyTracks="0" TL.SQHeaderWidth="236" TL.SQDataTrackViewControlState="0" Monitor.ProgramZoomOut="24808277894400" Monitor.ProgramZoomIn="0" TL.SQTimePerPixel="0.13818516812528489" AM.TrackVScrollPosition="0" AM.TrackScrollPosition="0" MZ.EditLine="8424813196800" MZ.Sequence.PreviewFrameSizeHeight="1080" MZ.Sequence.PreviewFrameSizeWidth="1920" MZ.Sequence.AudioTimeDisplayFormat="200" MZ.Sequence.PreviewRenderingClassID="1297106761" MZ.Sequence.PreviewRenderingPresetCodec="1297107278" MZ.Sequence.PreviewRenderingPresetPath="EncoderPresets/SequencePreview/795454d9-d3c2-429d-9474-923ab13b7018/I-Frame Only MPEG.epr" MZ.Sequence.PreviewUseMaxRenderQuality="false" MZ.Sequence.PreviewUseMaxBitDepth="false" MZ.Sequence.EditingModeGUID="795454d9-d3c2-429d-9474-923ab13b7018" MZ.Sequence.VideoTimeDisplayFormat="103" MZ.WorkOutPoint="25181207251200" MZ.WorkInPoint="0" explodedTracks="true">
										<uuid>f3a606e7-8cb1-4ba5-95a3-0f979f0e6839</uuid>
										<duration>2927</duration>
										<rate>
											<timebase>30</timebase>
											<ntsc>TRUE</ntsc>
										</rate>
										<name>SAT_rightchoiceshearing_1.5</name>
										<media>
											<video>
												<format>
													<samplecharacteristics>
														<rate>
															<timebase>30</timebase>
															<ntsc>TRUE</ntsc>
														</rate>
														<codec>
															<name>Apple ProRes 422</name>
															<appspecificdata>
																<appname>Final Cut Pro</appname>
																<appmanufacturer>Apple Inc.</appmanufacturer>
																<appversion>7.0</appversion>
																<data>
																	<qtcodec>
																		<codecname>Apple ProRes 422</codecname>
																		<codectypename>Apple ProRes 422</codectypename>
																		<codectypecode>apcn</codectypecode>
																		<codecvendorcode>appl</codecvendorcode>
																		<spatialquality>1024</spatialquality>
																		<temporalquality>0</temporalquality>
																		<keyframerate>0</keyframerate>
																		<datarate>0</datarate>
																	</qtcodec>
																</data>
															</appspecificdata>
														</codec>
														<width>1920</width>
														<height>1080</height>
														<anamorphic>FALSE</anamorphic>
														<pixelaspectratio>square</pixelaspectratio>
														<fielddominance>none</fielddominance>
														<colordepth>24</colordepth>
													</samplecharacteristics>
												</format>
												<track TL.SQTrackShy="0" TL.SQTrackExpandedHeight="25" TL.SQTrackExpanded="0" MZ.TrackTargeted="1">
													<clipitem id="clipitem-320">
														<masterclipid>masterclip-139</masterclipid>
														<name>(Right Choice Shearing)_Shearing the Belly and Legs of Llamas- SO SATISFYING!_wevJwrmd9bk_YT.mp4</name>
														<enabled>TRUE</enabled>
														<duration>12034</duration>
														<rate>
															<timebase>30</timebase>
															<ntsc>TRUE</ntsc>
														</rate>
														<start>0</start>
														<end>365</end>
														<in>1255</in>
														<out>1620</out>
														<pproTicksIn>10636962336000</pproTicksIn>
														<pproTicksOut>13730580864000</pproTicksOut>
														<alphatype>none</alphatype>
														<pixelaspectratio>square</pixelaspectratio>
														<anamorphic>FALSE</anamorphic>
														<file id="file-136">
															<name>(Right Choice Shearing)_Shearing the Belly and Legs of Llamas- SO SATISFYING!_wevJwrmd9bk_YT.mp4</name>
															<pathurl>file://localhost/Volumes/Satisfactum%20Satisfactorum/03_Weekly%20(Project%20Files,%20Main%20Segments)/OSTV/OSTV%2023-07-31/3_Raw%20Files/(Right%20Choice%20Shearing)_Shearing%20the%20Belly%20and%20Legs%20of%20Llamas-%20SO%20SATISFYING!_wevJwrmd9bk_YT.mp4</pathurl>
															<rate>
																<timebase>30</timebase>
																<ntsc>FALSE</ntsc>
															</rate>
															<duration>12047</duration>
															<timecode>
																<rate>
																	<timebase>30</timebase>
																	<ntsc>FALSE</ntsc>
																</rate>
																<string>00:00:00:00</string>
																<frame>0</frame>
																<displayformat>NDF</displayformat>
															</timecode>
															<media>
																<video>
																	<samplecharacteristics>
																		<rate>
																			<timebase>30</timebase>
																			<ntsc>FALSE</ntsc>
																		</rate>
																		<width>1920</width>
																		<height>1080</height>
																		<anamorphic>FALSE</anamorphic>
																		<pixelaspectratio>square</pixelaspectratio>
																		<fielddominance>none</fielddominance>
																	</samplecharacteristics>
																</video>
																<audio>
																	<samplecharacteristics>
																		<depth>16</depth>
																		<samplerate>44100</samplerate>
																	</samplecharacteristics>
																	<channelcount>2</channelcount>
																</audio>
															</media>
														</file>
														<link>
															<linkclipref>clipitem-320</linkclipref>
															<mediatype>video</mediatype>
															<trackindex>1</trackindex>
															<clipindex>1</clipindex>
														</link>
														<link>
															<linkclipref>clipitem-327</linkclipref>
															<mediatype>audio</mediatype>
															<trackindex>1</trackindex>
															<clipindex>2</clipindex>
															<groupindex>1</groupindex>
														</link>
														<link>
															<linkclipref>clipitem-332</linkclipref>
															<mediatype>audio</mediatype>
															<trackindex>2</trackindex>
															<clipindex>2</clipindex>
															<groupindex>1</groupindex>
														</link>
														<logginginfo>
															<description></description>
															<scene></scene>
															<shottake></shottake>
															<lognote>https://www.youtube.com/watch?v=wevJwrmd9bk</lognote>
															<good></good>
															<originalvideofilename></originalvideofilename>
															<originalaudiofilename></originalaudiofilename>
														</logginginfo>
														<colorinfo>
															<lut></lut>
															<lut1></lut1>
															<asc_sop></asc_sop>
															<asc_sat></asc_sat>
															<lut2></lut2>
														</colorinfo>
														<labels>
															<label2>Iris</label2>
														</labels>
													</clipitem>
													<clipitem id="clipitem-321">
														<masterclipid>masterclip-139</masterclipid>
														<name>(Right Choice Shearing)_Shearing the Belly and Legs of Llamas- SO SATISFYING!_wevJwrmd9bk_YT.mp4</name>
														<enabled>TRUE</enabled>
														<duration>12034</duration>
														<rate>
															<timebase>30</timebase>
															<ntsc>TRUE</ntsc>
														</rate>
														<start>365</start>
														<end>903</end>
														<in>3957</in>
														<out>4495</out>
														<pproTicksIn>33538215110400</pproTicksIn>
														<pproTicksOut>38098124064000</pproTicksOut>
														<alphatype>none</alphatype>
														<file id="file-136"/>
														<link>
															<linkclipref>clipitem-321</linkclipref>
															<mediatype>video</mediatype>
															<trackindex>1</trackindex>
															<clipindex>2</clipindex>
														</link>
														<link>
															<linkclipref>clipitem-328</linkclipref>
															<mediatype>audio</mediatype>
															<trackindex>1</trackindex>
															<clipindex>3</clipindex>
															<groupindex>1</groupindex>
														</link>
														<link>
															<linkclipref>clipitem-333</linkclipref>
															<mediatype>audio</mediatype>
															<trackindex>2</trackindex>
															<clipindex>3</clipindex>
															<groupindex>1</groupindex>
														</link>
														<logginginfo>
															<description></description>
															<scene></scene>
															<shottake></shottake>
															<lognote>https://www.youtube.com/watch?v=wevJwrmd9bk</lognote>
															<good></good>
															<originalvideofilename></originalvideofilename>
															<originalaudiofilename></originalaudiofilename>
														</logginginfo>
														<colorinfo>
															<lut></lut>
															<lut1></lut1>
															<asc_sop></asc_sop>
															<asc_sat></asc_sat>
															<lut2></lut2>
														</colorinfo>
														<labels>
															<label2>Iris</label2>
														</labels>
													</clipitem>
													<clipitem id="clipitem-322">
														<masterclipid>masterclip-139</masterclipid>
														<name>(Right Choice Shearing)_Shearing the Belly and Legs of Llamas- SO SATISFYING!_wevJwrmd9bk_YT.mp4</name>
														<enabled>TRUE</enabled>
														<duration>12034</duration>
														<rate>
															<timebase>30</timebase>
															<ntsc>TRUE</ntsc>
														</rate>
														<start>903</start>
														<end>1779</end>
														<in>4497</in>
														<out>5373</out>
														<pproTicksIn>38115075398400</pproTicksIn>
														<pproTicksOut>45539759865600</pproTicksOut>
														<alphatype>none</alphatype>
														<file id="file-136"/>
														<link>
															<linkclipref>clipitem-322</linkclipref>
															<mediatype>video</mediatype>
															<trackindex>1</trackindex>
															<clipindex>3</clipindex>
														</link>
														<link>
															<linkclipref>clipitem-329</linkclipref>
															<mediatype>audio</mediatype>
															<trackindex>1</trackindex>
															<clipindex>4</clipindex>
															<groupindex>1</groupindex>
														</link>
														<link>
															<linkclipref>clipitem-334</linkclipref>
															<mediatype>audio</mediatype>
															<trackindex>2</trackindex>
															<clipindex>4</clipindex>
															<groupindex>1</groupindex>
														</link>
														<logginginfo>
															<description></description>
															<scene></scene>
															<shottake></shottake>
															<lognote>https://www.youtube.com/watch?v=wevJwrmd9bk</lognote>
															<good></good>
															<originalvideofilename></originalvideofilename>
															<originalaudiofilename></originalaudiofilename>
														</logginginfo>
														<colorinfo>
															<lut></lut>
															<lut1></lut1>
															<asc_sop></asc_sop>
															<asc_sat></asc_sat>
															<lut2></lut2>
														</colorinfo>
														<labels>
															<label2>Iris</label2>
														</labels>
													</clipitem>
													<clipitem id="clipitem-323">
														<masterclipid>masterclip-139</masterclipid>
														<name>(Right Choice Shearing)_Shearing the Belly and Legs of Llamas- SO SATISFYING!_wevJwrmd9bk_YT.mp4</name>
														<enabled>TRUE</enabled>
														<duration>12034</duration>
														<rate>
															<timebase>30</timebase>
															<ntsc>TRUE</ntsc>
														</rate>
														<start>1779</start>
														<end>2622</end>
														<in>5373</in>
														<out>6216</out>
														<pproTicksIn>45539759865600</pproTicksIn>
														<pproTicksOut>52684747315200</pproTicksOut>
														<alphatype>none</alphatype>
														<file id="file-136"/>
														<link>
															<linkclipref>clipitem-323</linkclipref>
															<mediatype>video</mediatype>
															<trackindex>1</trackindex>
															<clipindex>4</clipindex>
														</link>
														<link>
															<linkclipref>clipitem-330</linkclipref>
															<mediatype>audio</mediatype>
															<trackindex>1</trackindex>
															<clipindex>5</clipindex>
															<groupindex>1</groupindex>
														</link>
														<link>
															<linkclipref>clipitem-335</linkclipref>
															<mediatype>audio</mediatype>
															<trackindex>2</trackindex>
															<clipindex>5</clipindex>
															<groupindex>1</groupindex>
														</link>
														<logginginfo>
															<description></description>
															<scene></scene>
															<shottake></shottake>
															<lognote>https://www.youtube.com/watch?v=wevJwrmd9bk</lognote>
															<good></good>
															<originalvideofilename></originalvideofilename>
															<originalaudiofilename></originalaudiofilename>
														</logginginfo>
														<colorinfo>
															<lut></lut>
															<lut1></lut1>
															<asc_sop></asc_sop>
															<asc_sat></asc_sat>
															<lut2></lut2>
														</colorinfo>
														<labels>
															<label2>Iris</label2>
														</labels>
													</clipitem>
													<clipitem id="clipitem-324">
														<masterclipid>masterclip-139</masterclipid>
														<name>(Right Choice Shearing)_Shearing the Belly and Legs of Llamas- SO SATISFYING!_wevJwrmd9bk_YT.mp4</name>
														<enabled>TRUE</enabled>
														<duration>12034</duration>
														<rate>
															<timebase>30</timebase>
															<ntsc>TRUE</ntsc>
														</rate>
														<start>2622</start>
														<end>2927</end>
														<in>6218</in>
														<out>6523</out>
														<pproTicksIn>52701698649600</pproTicksIn>
														<pproTicksOut>55286777145600</pproTicksOut>
														<alphatype>none</alphatype>
														<file id="file-136"/>
														<link>
															<linkclipref>clipitem-324</linkclipref>
															<mediatype>video</mediatype>
															<trackindex>1</trackindex>
															<clipindex>5</clipindex>
														</link>
														<link>
															<linkclipref>clipitem-331</linkclipref>
															<mediatype>audio</mediatype>
															<trackindex>1</trackindex>
															<clipindex>6</clipindex>
															<groupindex>1</groupindex>
														</link>
														<link>
															<linkclipref>clipitem-336</linkclipref>
															<mediatype>audio</mediatype>
															<trackindex>2</trackindex>
															<clipindex>6</clipindex>
															<groupindex>1</groupindex>
														</link>
														<logginginfo>
															<description></description>
															<scene></scene>
															<shottake></shottake>
															<lognote>https://www.youtube.com/watch?v=wevJwrmd9bk</lognote>
															<good></good>
															<originalvideofilename></originalvideofilename>
															<originalaudiofilename></originalaudiofilename>
														</logginginfo>
														<colorinfo>
															<lut></lut>
															<lut1></lut1>
															<asc_sop></asc_sop>
															<asc_sat></asc_sat>
															<lut2></lut2>
														</colorinfo>
														<labels>
															<label2>Iris</label2>
														</labels>
													</clipitem>
													<enabled>TRUE</enabled>
													<locked>FALSE</locked>
												</track>
												<track TL.SQTrackShy="0" TL.SQTrackExpandedHeight="25" TL.SQTrackExpanded="0" MZ.TrackTargeted="0">
													<clipitem id="clipitem-325">
														<masterclipid>masterclip-37</masterclipid>
														<name>rightchoiceshearing</name>
														<enabled>TRUE</enabled>
														<duration>5844</duration>
														<rate>
															<timebase>30</timebase>
															<ntsc>TRUE</ntsc>
														</rate>
														<start>0</start>
														<end>2927</end>
														<in>0</in>
														<out>2927</out>
														<pproTicksIn>0</pproTicksIn>
														<pproTicksOut>24808277894400</pproTicksOut>
														<alphatype>straight</alphatype>
														<file id="file-37"/>
														<filter>
															<effect>
																<name>Basic Motion</name>
																<effectid>basic</effectid>
																<effectcategory>motion</effectcategory>
																<effecttype>motion</effecttype>
																<mediatype>video</mediatype>
																<pproBypass>false</pproBypass>
																<parameter authoringApp="PremierePro">
																	<parameterid>scale</parameterid>
																	<name>Scale</name>
																	<valuemin>0</valuemin>
																	<valuemax>1000</valuemax>
																	<value>150</value>
																</parameter>
																<parameter authoringApp="PremierePro">
																	<parameterid>rotation</parameterid>
																	<name>Rotation</name>
																	<valuemin>-8640</valuemin>
																	<valuemax>8640</valuemax>
																	<value>0</value>
																</parameter>
																<parameter authoringApp="PremierePro">
																	<parameterid>center</parameterid>
																	<name>Center</name>
																	<value>
																		<horiz>0</horiz>
																		<vert>0</vert>
																	</value>
																</parameter>
																<parameter authoringApp="PremierePro">
																	<parameterid>centerOffset</parameterid>
																	<name>Anchor Point</name>
																	<value>
																		<horiz>0</horiz>
																		<vert>0</vert>
																	</value>
																</parameter>
																<parameter authoringApp="PremierePro">
																	<parameterid>antiflicker</parameterid>
																	<name>Anti-flicker Filter</name>
																	<valuemin>0.0</valuemin>
																	<valuemax>1.0</valuemax>
																	<value>0</value>
																</parameter>
															</effect>
														</filter>
														<logginginfo>
															<description></description>
															<scene></scene>
															<shottake></shottake>
															<lognote></lognote>
															<good></good>
															<originalvideofilename></originalvideofilename>
															<originalaudiofilename></originalaudiofilename>
														</logginginfo>
														<colorinfo>
															<lut></lut>
															<lut1></lut1>
															<asc_sop></asc_sop>
															<asc_sat></asc_sat>
															<lut2></lut2>
														</colorinfo>
														<labels>
															<label2>Rose</label2>
														</labels>
													</clipitem>
													<enabled>TRUE</enabled>
													<locked>FALSE</locked>
												</track>
												<track TL.SQTrackShy="0" TL.SQTrackExpandedHeight="25" TL.SQTrackExpanded="0" MZ.TrackTargeted="0">
													<clipitem id="clipitem-326">
														<masterclipid>masterclip-106</masterclipid>
														<name>Bug and Lower Nest</name>
														<enabled>TRUE</enabled>
														<duration>14721</duration>
														<rate>
															<timebase>30</timebase>
															<ntsc>TRUE</ntsc>
														</rate>
														<start>0</start>
														<end>2927</end>
														<in>0</in>
														<out>2927</out>
														<pproTicksIn>0</pproTicksIn>
														<pproTicksOut>24808277894400</pproTicksOut>
														<sequence id="sequence-1"/>
														<labels>
															<label2>Cerulean</label2>
														</labels>
													</clipitem>
													<enabled>FALSE</enabled>
													<locked>FALSE</locked>
												</track>
											</video>
											<audio>
												<numOutputChannels>2</numOutputChannels>
												<format>
													<samplecharacteristics>
														<depth>16</depth>
														<samplerate>44100</samplerate>
													</samplecharacteristics>
												</format>
												<outputs>
													<group>
														<index>1</index>
														<numchannels>1</numchannels>
														<downmix>0</downmix>
														<channel>
															<index>1</index>
														</channel>
													</group>
													<group>
														<index>2</index>
														<numchannels>1</numchannels>
														<downmix>0</downmix>
														<channel>
															<index>2</index>
														</channel>
													</group>
												</outputs>
												<track TL.SQTrackAudioKeyframeStyle="0" TL.SQTrackShy="0" TL.SQTrackExpandedHeight="25" TL.SQTrackExpanded="0" MZ.TrackTargeted="1" PannerCurrentValue="0.5" PannerIsInverted="true" PannerStartKeyframe="-91445760000000000,0.5,0,0,0,0,0,0" PannerName="Balance" currentExplodedTrackIndex="0" totalExplodedTrackCount="2" premiereTrackType="Stereo">
													<transitionitem>
														<start>0</start>
														<end>30</end>
														<pproTicksIn>0</pproTicksIn>
														<pproTicksOut>254270016000</pproTicksOut>
														<alignment>start-black</alignment>
														<cutPointTicks>0</cutPointTicks>
														<rate>
															<timebase>30</timebase>
															<ntsc>TRUE</ntsc>
														</rate>
														<effect>
															<name>Cross Fade (+3dB)</name>
															<effectid>KGAudioTransCrossFade3dB</effectid>
															<effecttype>transition</effecttype>
															<mediatype>audio</mediatype>
															<wipecode>0</wipecode>
															<wipeaccuracy>100</wipeaccuracy>
															<startratio>0</startratio>
															<endratio>1</endratio>
															<reverse>FALSE</reverse>
														</effect>
													</transitionitem>
													<clipitem id="clipitem-327" premiereChannelType="stereo">
														<masterclipid>masterclip-139</masterclipid>
														<name>(Right Choice Shearing)_Shearing the Belly and Legs of Llamas- SO SATISFYING!_wevJwrmd9bk_YT.mp4</name>
														<enabled>TRUE</enabled>
														<duration>12034</duration>
														<rate>
															<timebase>30</timebase>
															<ntsc>TRUE</ntsc>
														</rate>
														<start>-1</start>
														<end>365</end>
														<in>1255</in>
														<out>1620</out>
														<pproTicksIn>10636962336000</pproTicksIn>
														<pproTicksOut>13730580864000</pproTicksOut>
														<file id="file-136"/>
														<sourcetrack>
															<mediatype>audio</mediatype>
															<trackindex>1</trackindex>
														</sourcetrack>
														<link>
															<linkclipref>clipitem-320</linkclipref>
															<mediatype>video</mediatype>
															<trackindex>1</trackindex>
															<clipindex>1</clipindex>
														</link>
														<link>
															<linkclipref>clipitem-327</linkclipref>
															<mediatype>audio</mediatype>
															<trackindex>1</trackindex>
															<clipindex>2</clipindex>
															<groupindex>1</groupindex>
														</link>
														<link>
															<linkclipref>clipitem-332</linkclipref>
															<mediatype>audio</mediatype>
															<trackindex>2</trackindex>
															<clipindex>2</clipindex>
															<groupindex>1</groupindex>
														</link>
														<logginginfo>
															<description></description>
															<scene></scene>
															<shottake></shottake>
															<lognote>https://www.youtube.com/watch?v=wevJwrmd9bk</lognote>
															<good></good>
															<originalvideofilename></originalvideofilename>
															<originalaudiofilename></originalaudiofilename>
														</logginginfo>
														<colorinfo>
															<lut></lut>
															<lut1></lut1>
															<asc_sop></asc_sop>
															<asc_sat></asc_sat>
															<lut2></lut2>
														</colorinfo>
														<labels>
															<label2>Iris</label2>
														</labels>
													</clipitem>
													<clipitem id="clipitem-328" premiereChannelType="stereo">
														<masterclipid>masterclip-139</masterclipid>
														<name>(Right Choice Shearing)_Shearing the Belly and Legs of Llamas- SO SATISFYING!_wevJwrmd9bk_YT.mp4</name>
														<enabled>TRUE</enabled>
														<duration>12034</duration>
														<rate>
															<timebase>30</timebase>
															<ntsc>TRUE</ntsc>
														</rate>
														<start>365</start>
														<end>903</end>
														<in>3957</in>
														<out>4495</out>
														<pproTicksIn>33538215110400</pproTicksIn>
														<pproTicksOut>38098124064000</pproTicksOut>
														<file id="file-136"/>
														<sourcetrack>
															<mediatype>audio</mediatype>
															<trackindex>1</trackindex>
														</sourcetrack>
														<link>
															<linkclipref>clipitem-321</linkclipref>
															<mediatype>video</mediatype>
															<trackindex>1</trackindex>
															<clipindex>2</clipindex>
														</link>
														<link>
															<linkclipref>clipitem-328</linkclipref>
															<mediatype>audio</mediatype>
															<trackindex>1</trackindex>
															<clipindex>3</clipindex>
															<groupindex>1</groupindex>
														</link>
														<link>
															<linkclipref>clipitem-333</linkclipref>
															<mediatype>audio</mediatype>
															<trackindex>2</trackindex>
															<clipindex>3</clipindex>
															<groupindex>1</groupindex>
														</link>
														<logginginfo>
															<description></description>
															<scene></scene>
															<shottake></shottake>
															<lognote>https://www.youtube.com/watch?v=wevJwrmd9bk</lognote>
															<good></good>
															<originalvideofilename></originalvideofilename>
															<originalaudiofilename></originalaudiofilename>
														</logginginfo>
														<colorinfo>
															<lut></lut>
															<lut1></lut1>
															<asc_sop></asc_sop>
															<asc_sat></asc_sat>
															<lut2></lut2>
														</colorinfo>
														<labels>
															<label2>Iris</label2>
														</labels>
													</clipitem>
													<clipitem id="clipitem-329" premiereChannelType="stereo">
														<masterclipid>masterclip-139</masterclipid>
														<name>(Right Choice Shearing)_Shearing the Belly and Legs of Llamas- SO SATISFYING!_wevJwrmd9bk_YT.mp4</name>
														<enabled>TRUE</enabled>
														<duration>12034</duration>
														<rate>
															<timebase>30</timebase>
															<ntsc>TRUE</ntsc>
														</rate>
														<start>903</start>
														<end>1779</end>
														<in>4497</in>
														<out>5373</out>
														<pproTicksIn>38115075398400</pproTicksIn>
														<pproTicksOut>45539759865600</pproTicksOut>
														<file id="file-136"/>
														<sourcetrack>
															<mediatype>audio</mediatype>
															<trackindex>1</trackindex>
														</sourcetrack>
														<link>
															<linkclipref>clipitem-322</linkclipref>
															<mediatype>video</mediatype>
															<trackindex>1</trackindex>
															<clipindex>3</clipindex>
														</link>
														<link>
															<linkclipref>clipitem-329</linkclipref>
															<mediatype>audio</mediatype>
															<trackindex>1</trackindex>
															<clipindex>4</clipindex>
															<groupindex>1</groupindex>
														</link>
														<link>
															<linkclipref>clipitem-334</linkclipref>
															<mediatype>audio</mediatype>
															<trackindex>2</trackindex>
															<clipindex>4</clipindex>
															<groupindex>1</groupindex>
														</link>
														<logginginfo>
															<description></description>
															<scene></scene>
															<shottake></shottake>
															<lognote>https://www.youtube.com/watch?v=wevJwrmd9bk</lognote>
															<good></good>
															<originalvideofilename></originalvideofilename>
															<originalaudiofilename></originalaudiofilename>
														</logginginfo>
														<colorinfo>
															<lut></lut>
															<lut1></lut1>
															<asc_sop></asc_sop>
															<asc_sat></asc_sat>
															<lut2></lut2>
														</colorinfo>
														<labels>
															<label2>Iris</label2>
														</labels>
													</clipitem>
													<clipitem id="clipitem-330" premiereChannelType="stereo">
														<masterclipid>masterclip-139</masterclipid>
														<name>(Right Choice Shearing)_Shearing the Belly and Legs of Llamas- SO SATISFYING!_wevJwrmd9bk_YT.mp4</name>
														<enabled>TRUE</enabled>
														<duration>12034</duration>
														<rate>
															<timebase>30</timebase>
															<ntsc>TRUE</ntsc>
														</rate>
														<start>1779</start>
														<end>2622</end>
														<in>5373</in>
														<out>6216</out>
														<pproTicksIn>45539759865600</pproTicksIn>
														<pproTicksOut>52684747315200</pproTicksOut>
														<file id="file-136"/>
														<sourcetrack>
															<mediatype>audio</mediatype>
															<trackindex>1</trackindex>
														</sourcetrack>
														<link>
															<linkclipref>clipitem-323</linkclipref>
															<mediatype>video</mediatype>
															<trackindex>1</trackindex>
															<clipindex>4</clipindex>
														</link>
														<link>
															<linkclipref>clipitem-330</linkclipref>
															<mediatype>audio</mediatype>
															<trackindex>1</trackindex>
															<clipindex>5</clipindex>
															<groupindex>1</groupindex>
														</link>
														<link>
															<linkclipref>clipitem-335</linkclipref>
															<mediatype>audio</mediatype>
															<trackindex>2</trackindex>
															<clipindex>5</clipindex>
															<groupindex>1</groupindex>
														</link>
														<logginginfo>
															<description></description>
															<scene></scene>
															<shottake></shottake>
															<lognote>https://www.youtube.com/watch?v=wevJwrmd9bk</lognote>
															<good></good>
															<originalvideofilename></originalvideofilename>
															<originalaudiofilename></originalaudiofilename>
														</logginginfo>
														<colorinfo>
															<lut></lut>
															<lut1></lut1>
															<asc_sop></asc_sop>
															<asc_sat></asc_sat>
															<lut2></lut2>
														</colorinfo>
														<labels>
															<label2>Iris</label2>
														</labels>
													</clipitem>
													<clipitem id="clipitem-331" premiereChannelType="stereo">
														<masterclipid>masterclip-139</masterclipid>
														<name>(Right Choice Shearing)_Shearing the Belly and Legs of Llamas- SO SATISFYING!_wevJwrmd9bk_YT.mp4</name>
														<enabled>TRUE</enabled>
														<duration>12034</duration>
														<rate>
															<timebase>30</timebase>
															<ntsc>TRUE</ntsc>
														</rate>
														<start>2622</start>
														<end>-1</end>
														<in>6218</in>
														<out>6523</out>
														<pproTicksIn>52701698649600</pproTicksIn>
														<pproTicksOut>55286777145600</pproTicksOut>
														<file id="file-136"/>
														<sourcetrack>
															<mediatype>audio</mediatype>
															<trackindex>1</trackindex>
														</sourcetrack>
														<link>
															<linkclipref>clipitem-324</linkclipref>
															<mediatype>video</mediatype>
															<trackindex>1</trackindex>
															<clipindex>5</clipindex>
														</link>
														<link>
															<linkclipref>clipitem-331</linkclipref>
															<mediatype>audio</mediatype>
															<trackindex>1</trackindex>
															<clipindex>6</clipindex>
															<groupindex>1</groupindex>
														</link>
														<link>
															<linkclipref>clipitem-336</linkclipref>
															<mediatype>audio</mediatype>
															<trackindex>2</trackindex>
															<clipindex>6</clipindex>
															<groupindex>1</groupindex>
														</link>
														<logginginfo>
															<description></description>
															<scene></scene>
															<shottake></shottake>
															<lognote>https://www.youtube.com/watch?v=wevJwrmd9bk</lognote>
															<good></good>
															<originalvideofilename></originalvideofilename>
															<originalaudiofilename></originalaudiofilename>
														</logginginfo>
														<colorinfo>
															<lut></lut>
															<lut1></lut1>
															<asc_sop></asc_sop>
															<asc_sat></asc_sat>
															<lut2></lut2>
														</colorinfo>
														<labels>
															<label2>Iris</label2>
														</labels>
													</clipitem>
													<transitionitem>
														<start>2897</start>
														<end>2927</end>
														<pproTicksIn>24554007878400</pproTicksIn>
														<pproTicksOut>24808277894400</pproTicksOut>
														<alignment>end-black</alignment>
														<cutPointTicks>254270016000</cutPointTicks>
														<rate>
															<timebase>30</timebase>
															<ntsc>TRUE</ntsc>
														</rate>
														<effect>
															<name>Cross Fade (+3dB)</name>
															<effectid>KGAudioTransCrossFade3dB</effectid>
															<effecttype>transition</effecttype>
															<mediatype>audio</mediatype>
															<wipecode>0</wipecode>
															<wipeaccuracy>100</wipeaccuracy>
															<startratio>0</startratio>
															<endratio>1</endratio>
															<reverse>FALSE</reverse>
														</effect>
													</transitionitem>
													<enabled>TRUE</enabled>
													<locked>FALSE</locked>
													<filter>
														<effect>
															<name>Audio Levels</name>
															<effectid>audiolevels</effectid>
															<effectcategory>audiolevels</effectcategory>
															<effecttype>audiolevels</effecttype>
															<mediatype>audio</mediatype>
															<parameter authoringApp="PremierePro">
																<parameterid>level</parameterid>
																<name>Level</name>
																<valuemin>0</valuemin>
																<valuemax>3.98109</valuemax>
																<value>0.706272</value>
															</parameter>
														</effect>
													</filter>
													<outputchannelindex>1</outputchannelindex>
												</track>
												<track TL.SQTrackAudioKeyframeStyle="0" TL.SQTrackShy="0" TL.SQTrackExpandedHeight="25" TL.SQTrackExpanded="0" MZ.TrackTargeted="1" PannerCurrentValue="0.5" PannerIsInverted="true" PannerStartKeyframe="-91445760000000000,0.5,0,0,0,0,0,0" PannerName="Balance" currentExplodedTrackIndex="1" totalExplodedTrackCount="2" premiereTrackType="Stereo">
													<transitionitem>
														<start>0</start>
														<end>30</end>
														<pproTicksIn>0</pproTicksIn>
														<pproTicksOut>254270016000</pproTicksOut>
														<alignment>start-black</alignment>
														<cutPointTicks>0</cutPointTicks>
														<rate>
															<timebase>30</timebase>
															<ntsc>TRUE</ntsc>
														</rate>
														<effect>
															<name>Cross Fade (+3dB)</name>
															<effectid>KGAudioTransCrossFade3dB</effectid>
															<effecttype>transition</effecttype>
															<mediatype>audio</mediatype>
															<wipecode>0</wipecode>
															<wipeaccuracy>100</wipeaccuracy>
															<startratio>0</startratio>
															<endratio>1</endratio>
															<reverse>FALSE</reverse>
														</effect>
													</transitionitem>
													<clipitem id="clipitem-332" premiereChannelType="stereo">
														<masterclipid>masterclip-139</masterclipid>
														<name>(Right Choice Shearing)_Shearing the Belly and Legs of Llamas- SO SATISFYING!_wevJwrmd9bk_YT.mp4</name>
														<enabled>TRUE</enabled>
														<duration>12034</duration>
														<rate>
															<timebase>30</timebase>
															<ntsc>TRUE</ntsc>
														</rate>
														<start>-1</start>
														<end>365</end>
														<in>1255</in>
														<out>1620</out>
														<pproTicksIn>10636962336000</pproTicksIn>
														<pproTicksOut>13730580864000</pproTicksOut>
														<file id="file-136"/>
														<sourcetrack>
															<mediatype>audio</mediatype>
															<trackindex>2</trackindex>
														</sourcetrack>
														<link>
															<linkclipref>clipitem-320</linkclipref>
															<mediatype>video</mediatype>
															<trackindex>1</trackindex>
															<clipindex>1</clipindex>
														</link>
														<link>
															<linkclipref>clipitem-327</linkclipref>
															<mediatype>audio</mediatype>
															<trackindex>1</trackindex>
															<clipindex>2</clipindex>
															<groupindex>1</groupindex>
														</link>
														<link>
															<linkclipref>clipitem-332</linkclipref>
															<mediatype>audio</mediatype>
															<trackindex>2</trackindex>
															<clipindex>2</clipindex>
															<groupindex>1</groupindex>
														</link>
														<logginginfo>
															<description></description>
															<scene></scene>
															<shottake></shottake>
															<lognote>https://www.youtube.com/watch?v=wevJwrmd9bk</lognote>
															<good></good>
															<originalvideofilename></originalvideofilename>
															<originalaudiofilename></originalaudiofilename>
														</logginginfo>
														<colorinfo>
															<lut></lut>
															<lut1></lut1>
															<asc_sop></asc_sop>
															<asc_sat></asc_sat>
															<lut2></lut2>
														</colorinfo>
														<labels>
															<label2>Iris</label2>
														</labels>
													</clipitem>
													<clipitem id="clipitem-333" premiereChannelType="stereo">
														<masterclipid>masterclip-139</masterclipid>
														<name>(Right Choice Shearing)_Shearing the Belly and Legs of Llamas- SO SATISFYING!_wevJwrmd9bk_YT.mp4</name>
														<enabled>TRUE</enabled>
														<duration>12034</duration>
														<rate>
															<timebase>30</timebase>
															<ntsc>TRUE</ntsc>
														</rate>
														<start>365</start>
														<end>903</end>
														<in>3957</in>
														<out>4495</out>
														<pproTicksIn>33538215110400</pproTicksIn>
														<pproTicksOut>38098124064000</pproTicksOut>
														<file id="file-136"/>
														<sourcetrack>
															<mediatype>audio</mediatype>
															<trackindex>2</trackindex>
														</sourcetrack>
														<link>
															<linkclipref>clipitem-321</linkclipref>
															<mediatype>video</mediatype>
															<trackindex>1</trackindex>
															<clipindex>2</clipindex>
														</link>
														<link>
															<linkclipref>clipitem-328</linkclipref>
															<mediatype>audio</mediatype>
															<trackindex>1</trackindex>
															<clipindex>3</clipindex>
															<groupindex>1</groupindex>
														</link>
														<link>
															<linkclipref>clipitem-333</linkclipref>
															<mediatype>audio</mediatype>
															<trackindex>2</trackindex>
															<clipindex>3</clipindex>
															<groupindex>1</groupindex>
														</link>
														<logginginfo>
															<description></description>
															<scene></scene>
															<shottake></shottake>
															<lognote>https://www.youtube.com/watch?v=wevJwrmd9bk</lognote>
															<good></good>
															<originalvideofilename></originalvideofilename>
															<originalaudiofilename></originalaudiofilename>
														</logginginfo>
														<colorinfo>
															<lut></lut>
															<lut1></lut1>
															<asc_sop></asc_sop>
															<asc_sat></asc_sat>
															<lut2></lut2>
														</colorinfo>
														<labels>
															<label2>Iris</label2>
														</labels>
													</clipitem>
													<clipitem id="clipitem-334" premiereChannelType="stereo">
														<masterclipid>masterclip-139</masterclipid>
														<name>(Right Choice Shearing)_Shearing the Belly and Legs of Llamas- SO SATISFYING!_wevJwrmd9bk_YT.mp4</name>
														<enabled>TRUE</enabled>
														<duration>12034</duration>
														<rate>
															<timebase>30</timebase>
															<ntsc>TRUE</ntsc>
														</rate>
														<start>903</start>
														<end>1779</end>
														<in>4497</in>
														<out>5373</out>
														<pproTicksIn>38115075398400</pproTicksIn>
														<pproTicksOut>45539759865600</pproTicksOut>
														<file id="file-136"/>
														<sourcetrack>
															<mediatype>audio</mediatype>
															<trackindex>2</trackindex>
														</sourcetrack>
														<link>
															<linkclipref>clipitem-322</linkclipref>
															<mediatype>video</mediatype>
															<trackindex>1</trackindex>
															<clipindex>3</clipindex>
														</link>
														<link>
															<linkclipref>clipitem-329</linkclipref>
															<mediatype>audio</mediatype>
															<trackindex>1</trackindex>
															<clipindex>4</clipindex>
															<groupindex>1</groupindex>
														</link>
														<link>
															<linkclipref>clipitem-334</linkclipref>
															<mediatype>audio</mediatype>
															<trackindex>2</trackindex>
															<clipindex>4</clipindex>
															<groupindex>1</groupindex>
														</link>
														<logginginfo>
															<description></description>
															<scene></scene>
															<shottake></shottake>
															<lognote>https://www.youtube.com/watch?v=wevJwrmd9bk</lognote>
															<good></good>
															<originalvideofilename></originalvideofilename>
															<originalaudiofilename></originalaudiofilename>
														</logginginfo>
														<colorinfo>
															<lut></lut>
															<lut1></lut1>
															<asc_sop></asc_sop>
															<asc_sat></asc_sat>
															<lut2></lut2>
														</colorinfo>
														<labels>
															<label2>Iris</label2>
														</labels>
													</clipitem>
													<clipitem id="clipitem-335" premiereChannelType="stereo">
														<masterclipid>masterclip-139</masterclipid>
														<name>(Right Choice Shearing)_Shearing the Belly and Legs of Llamas- SO SATISFYING!_wevJwrmd9bk_YT.mp4</name>
														<enabled>TRUE</enabled>
														<duration>12034</duration>
														<rate>
															<timebase>30</timebase>
															<ntsc>TRUE</ntsc>
														</rate>
														<start>1779</start>
														<end>2622</end>
														<in>5373</in>
														<out>6216</out>
														<pproTicksIn>45539759865600</pproTicksIn>
														<pproTicksOut>52684747315200</pproTicksOut>
														<file id="file-136"/>
														<sourcetrack>
															<mediatype>audio</mediatype>
															<trackindex>2</trackindex>
														</sourcetrack>
														<link>
															<linkclipref>clipitem-323</linkclipref>
															<mediatype>video</mediatype>
															<trackindex>1</trackindex>
															<clipindex>4</clipindex>
														</link>
														<link>
															<linkclipref>clipitem-330</linkclipref>
															<mediatype>audio</mediatype>
															<trackindex>1</trackindex>
															<clipindex>5</clipindex>
															<groupindex>1</groupindex>
														</link>
														<link>
															<linkclipref>clipitem-335</linkclipref>
															<mediatype>audio</mediatype>
															<trackindex>2</trackindex>
															<clipindex>5</clipindex>
															<groupindex>1</groupindex>
														</link>
														<logginginfo>
															<description></description>
															<scene></scene>
															<shottake></shottake>
															<lognote>https://www.youtube.com/watch?v=wevJwrmd9bk</lognote>
															<good></good>
															<originalvideofilename></originalvideofilename>
															<originalaudiofilename></originalaudiofilename>
														</logginginfo>
														<colorinfo>
															<lut></lut>
															<lut1></lut1>
															<asc_sop></asc_sop>
															<asc_sat></asc_sat>
															<lut2></lut2>
														</colorinfo>
														<labels>
															<label2>Iris</label2>
														</labels>
													</clipitem>
													<clipitem id="clipitem-336" premiereChannelType="stereo">
														<masterclipid>masterclip-139</masterclipid>
														<name>(Right Choice Shearing)_Shearing the Belly and Legs of Llamas- SO SATISFYING!_wevJwrmd9bk_YT.mp4</name>
														<enabled>TRUE</enabled>
														<duration>12034</duration>
														<rate>
															<timebase>30</timebase>
															<ntsc>TRUE</ntsc>
														</rate>
														<start>2622</start>
														<end>-1</end>
														<in>6218</in>
														<out>6523</out>
														<pproTicksIn>52701698649600</pproTicksIn>
														<pproTicksOut>55286777145600</pproTicksOut>
														<file id="file-136"/>
														<sourcetrack>
															<mediatype>audio</mediatype>
															<trackindex>2</trackindex>
														</sourcetrack>
														<link>
															<linkclipref>clipitem-324</linkclipref>
															<mediatype>video</mediatype>
															<trackindex>1</trackindex>
															<clipindex>5</clipindex>
														</link>
														<link>
															<linkclipref>clipitem-331</linkclipref>
															<mediatype>audio</mediatype>
															<trackindex>1</trackindex>
															<clipindex>6</clipindex>
															<groupindex>1</groupindex>
														</link>
														<link>
															<linkclipref>clipitem-336</linkclipref>
															<mediatype>audio</mediatype>
															<trackindex>2</trackindex>
															<clipindex>6</clipindex>
															<groupindex>1</groupindex>
														</link>
														<logginginfo>
															<description></description>
															<scene></scene>
															<shottake></shottake>
															<lognote>https://www.youtube.com/watch?v=wevJwrmd9bk</lognote>
															<good></good>
															<originalvideofilename></originalvideofilename>
															<originalaudiofilename></originalaudiofilename>
														</logginginfo>
														<colorinfo>
															<lut></lut>
															<lut1></lut1>
															<asc_sop></asc_sop>
															<asc_sat></asc_sat>
															<lut2></lut2>
														</colorinfo>
														<labels>
															<label2>Iris</label2>
														</labels>
													</clipitem>
													<transitionitem>
														<start>2897</start>
														<end>2927</end>
														<pproTicksIn>24554007878400</pproTicksIn>
														<pproTicksOut>24808277894400</pproTicksOut>
														<alignment>end-black</alignment>
														<cutPointTicks>254270016000</cutPointTicks>
														<rate>
															<timebase>30</timebase>
															<ntsc>TRUE</ntsc>
														</rate>
														<effect>
															<name>Cross Fade (+3dB)</name>
															<effectid>KGAudioTransCrossFade3dB</effectid>
															<effecttype>transition</effecttype>
															<mediatype>audio</mediatype>
															<wipecode>0</wipecode>
															<wipeaccuracy>100</wipeaccuracy>
															<startratio>0</startratio>
															<endratio>1</endratio>
															<reverse>FALSE</reverse>
														</effect>
													</transitionitem>
													<enabled>TRUE</enabled>
													<locked>FALSE</locked>
													<filter>
														<effect>
															<name>Audio Levels</name>
															<effectid>audiolevels</effectid>
															<effectcategory>audiolevels</effectcategory>
															<effecttype>audiolevels</effecttype>
															<mediatype>audio</mediatype>
															<parameter authoringApp="PremierePro">
																<parameterid>level</parameterid>
																<name>Level</name>
																<valuemin>0</valuemin>
																<valuemax>3.98109</valuemax>
																<value>0.706272</value>
															</parameter>
														</effect>
													</filter>
													<outputchannelindex>2</outputchannelindex>
												</track>
												<track TL.SQTrackAudioKeyframeStyle="0" TL.SQTrackShy="0" TL.SQTrackExpandedHeight="25" TL.SQTrackExpanded="0" MZ.TrackTargeted="0" PannerCurrentValue="0.5" PannerIsInverted="true" PannerStartKeyframe="-91445760000000000,0.5,0,0,0,0,0,0" PannerName="Balance" currentExplodedTrackIndex="0" totalExplodedTrackCount="2" premiereTrackType="Stereo">
													<transitionitem>
														<start>0</start>
														<end>30</end>
														<pproTicksIn>0</pproTicksIn>
														<pproTicksOut>254270016000</pproTicksOut>
														<alignment>start-black</alignment>
														<cutPointTicks>0</cutPointTicks>
														<rate>
															<timebase>30</timebase>
															<ntsc>TRUE</ntsc>
														</rate>
														<effect>
															<name>Cross Fade (+3dB)</name>
															<effectid>KGAudioTransCrossFade3dB</effectid>
															<effecttype>transition</effecttype>
															<mediatype>audio</mediatype>
															<wipecode>0</wipecode>
															<wipeaccuracy>100</wipeaccuracy>
															<startratio>0</startratio>
															<endratio>1</endratio>
															<reverse>FALSE</reverse>
														</effect>
													</transitionitem>
													<clipitem id="clipitem-337" premiereChannelType="stereo">
														<masterclipid>masterclip-10</masterclipid>
														<name>ES_Aarons Bees - Daniel Fridell.mp3</name>
														<enabled>TRUE</enabled>
														<duration>5804</duration>
														<rate>
															<timebase>30</timebase>
															<ntsc>TRUE</ntsc>
														</rate>
														<start>-1</start>
														<end>-1</end>
														<in>387</in>
														<out>3314</out>
														<pproTicksIn>3280083206400</pproTicksIn>
														<pproTicksOut>28088361100800</pproTicksOut>
														<file id="file-10"/>
														<sourcetrack>
															<mediatype>audio</mediatype>
															<trackindex>1</trackindex>
														</sourcetrack>
														<link>
															<linkclipref>clipitem-337</linkclipref>
															<mediatype>audio</mediatype>
															<trackindex>3</trackindex>
															<clipindex>2</clipindex>
															<groupindex>1</groupindex>
														</link>
														<link>
															<linkclipref>clipitem-338</linkclipref>
															<mediatype>audio</mediatype>
															<trackindex>4</trackindex>
															<clipindex>2</clipindex>
															<groupindex>1</groupindex>
														</link>
														<logginginfo>
															<description></description>
															<scene></scene>
															<shottake></shottake>
															<lognote></lognote>
															<good></good>
															<originalvideofilename></originalvideofilename>
															<originalaudiofilename></originalaudiofilename>
														</logginginfo>
														<colorinfo>
															<lut></lut>
															<lut1></lut1>
															<asc_sop></asc_sop>
															<asc_sat></asc_sat>
															<lut2></lut2>
														</colorinfo>
														<labels>
															<label2>Caribbean</label2>
														</labels>
													</clipitem>
													<transitionitem>
														<start>2837</start>
														<end>2927</end>
														<pproTicksIn>24045467443200</pproTicksIn>
														<pproTicksOut>24808277894400</pproTicksOut>
														<alignment>end-black</alignment>
														<cutPointTicks>762810451200</cutPointTicks>
														<rate>
															<timebase>30</timebase>
															<ntsc>TRUE</ntsc>
														</rate>
														<effect>
															<name>Cross Fade (+3dB)</name>
															<effectid>KGAudioTransCrossFade3dB</effectid>
															<effecttype>transition</effecttype>
															<mediatype>audio</mediatype>
															<wipecode>0</wipecode>
															<wipeaccuracy>100</wipeaccuracy>
															<startratio>0</startratio>
															<endratio>1</endratio>
															<reverse>FALSE</reverse>
														</effect>
													</transitionitem>
													<enabled>TRUE</enabled>
													<locked>FALSE</locked>
													<outputchannelindex>1</outputchannelindex>
												</track>
												<track TL.SQTrackAudioKeyframeStyle="0" TL.SQTrackShy="0" TL.SQTrackExpandedHeight="25" TL.SQTrackExpanded="0" MZ.TrackTargeted="0" PannerCurrentValue="0.5" PannerIsInverted="true" PannerStartKeyframe="-91445760000000000,0.5,0,0,0,0,0,0" PannerName="Balance" currentExplodedTrackIndex="1" totalExplodedTrackCount="2" premiereTrackType="Stereo">
													<transitionitem>
														<start>0</start>
														<end>30</end>
														<pproTicksIn>0</pproTicksIn>
														<pproTicksOut>254270016000</pproTicksOut>
														<alignment>start-black</alignment>
														<cutPointTicks>0</cutPointTicks>
														<rate>
															<timebase>30</timebase>
															<ntsc>TRUE</ntsc>
														</rate>
														<effect>
															<name>Cross Fade (+3dB)</name>
															<effectid>KGAudioTransCrossFade3dB</effectid>
															<effecttype>transition</effecttype>
															<mediatype>audio</mediatype>
															<wipecode>0</wipecode>
															<wipeaccuracy>100</wipeaccuracy>
															<startratio>0</startratio>
															<endratio>1</endratio>
															<reverse>FALSE</reverse>
														</effect>
													</transitionitem>
													<clipitem id="clipitem-338" premiereChannelType="stereo">
														<masterclipid>masterclip-10</masterclipid>
														<name>ES_Aarons Bees - Daniel Fridell.mp3</name>
														<enabled>TRUE</enabled>
														<duration>5804</duration>
														<rate>
															<timebase>30</timebase>
															<ntsc>TRUE</ntsc>
														</rate>
														<start>-1</start>
														<end>-1</end>
														<in>387</in>
														<out>3314</out>
														<pproTicksIn>3280083206400</pproTicksIn>
														<pproTicksOut>28088361100800</pproTicksOut>
														<file id="file-10"/>
														<sourcetrack>
															<mediatype>audio</mediatype>
															<trackindex>2</trackindex>
														</sourcetrack>
														<link>
															<linkclipref>clipitem-337</linkclipref>
															<mediatype>audio</mediatype>
															<trackindex>3</trackindex>
															<clipindex>2</clipindex>
															<groupindex>1</groupindex>
														</link>
														<link>
															<linkclipref>clipitem-338</linkclipref>
															<mediatype>audio</mediatype>
															<trackindex>4</trackindex>
															<clipindex>2</clipindex>
															<groupindex>1</groupindex>
														</link>
														<logginginfo>
															<description></description>
															<scene></scene>
															<shottake></shottake>
															<lognote></lognote>
															<good></good>
															<originalvideofilename></originalvideofilename>
															<originalaudiofilename></originalaudiofilename>
														</logginginfo>
														<colorinfo>
															<lut></lut>
															<lut1></lut1>
															<asc_sop></asc_sop>
															<asc_sat></asc_sat>
															<lut2></lut2>
														</colorinfo>
														<labels>
															<label2>Caribbean</label2>
														</labels>
													</clipitem>
													<transitionitem>
														<start>2837</start>
														<end>2927</end>
														<pproTicksIn>24045467443200</pproTicksIn>
														<pproTicksOut>24808277894400</pproTicksOut>
														<alignment>end-black</alignment>
														<cutPointTicks>762810451200</cutPointTicks>
														<rate>
															<timebase>30</timebase>
															<ntsc>TRUE</ntsc>
														</rate>
														<effect>
															<name>Cross Fade (+3dB)</name>
															<effectid>KGAudioTransCrossFade3dB</effectid>
															<effecttype>transition</effecttype>
															<mediatype>audio</mediatype>
															<wipecode>0</wipecode>
															<wipeaccuracy>100</wipeaccuracy>
															<startratio>0</startratio>
															<endratio>1</endratio>
															<reverse>FALSE</reverse>
														</effect>
													</transitionitem>
													<enabled>TRUE</enabled>
													<locked>FALSE</locked>
													<outputchannelindex>2</outputchannelindex>
												</track>
											</audio>
										</media>
										<timecode>
											<rate>
												<timebase>30</timebase>
												<ntsc>TRUE</ntsc>
											</rate>
											<string>00:00:00:00</string>
											<frame>0</frame>
											<displayformat>NDF</displayformat>
										</timecode>
										<labels>
											<label2>Forest</label2>
										</labels>
										<logginginfo>
											<description></description>
											<scene></scene>
											<shottake></shottake>
											<lognote></lognote>
											<good></good>
											<originalvideofilename></originalvideofilename>
											<originalaudiofilename></originalaudiofilename>
										</logginginfo>
									</sequence>
									<sequence id="sequence-45" TL.SQAudioVisibleBase="0" TL.SQVideoVisibleBase="0" TL.SQVisibleBaseTime="0" TL.SQAVDividerPosition="0.5" TL.SQHideShyTracks="0" TL.SQHeaderWidth="236" TL.SQDataTrackViewControlState="0" Monitor.ProgramZoomOut="22019783385600" Monitor.ProgramZoomIn="0" TL.SQTimePerPixel="0.27637033625056978" AM.TrackVScrollPosition="0" AM.TrackScrollPosition="0" MZ.EditLine="110183673600" MZ.Sequence.PreviewFrameSizeHeight="1080" MZ.Sequence.PreviewFrameSizeWidth="1920" MZ.Sequence.AudioTimeDisplayFormat="200" MZ.Sequence.PreviewRenderingClassID="1297106761" MZ.Sequence.PreviewRenderingPresetCodec="1297107278" MZ.Sequence.PreviewRenderingPresetPath="EncoderPresets/SequencePreview/795454d9-d3c2-429d-9474-923ab13b7018/I-Frame Only MPEG.epr" MZ.Sequence.PreviewUseMaxRenderQuality="false" MZ.Sequence.PreviewUseMaxBitDepth="false" MZ.Sequence.EditingModeGUID="795454d9-d3c2-429d-9474-923ab13b7018" MZ.Sequence.VideoTimeDisplayFormat="103" MZ.WorkOutPoint="22019783385600" MZ.WorkInPoint="0" explodedTracks="true">
										<uuid>ae6a8fc6-d492-48f6-a013-2670c972a712</uuid>
										<duration>2598</duration>
										<rate>
											<timebase>30</timebase>
											<ntsc>TRUE</ntsc>
										</rate>
										<out>2598</out>
										<name>FND_i love you a latte Happy unbranded_1.5</name>
										<media>
											<video>
												<format>
													<samplecharacteristics>
														<rate>
															<timebase>30</timebase>
															<ntsc>TRUE</ntsc>
														</rate>
														<codec>
															<name>Apple ProRes 422</name>
															<appspecificdata>
																<appname>Final Cut Pro</appname>
																<appmanufacturer>Apple Inc.</appmanufacturer>
																<appversion>7.0</appversion>
																<data>
																	<qtcodec>
																		<codecname>Apple ProRes 422</codecname>
																		<codectypename>Apple ProRes 422</codectypename>
																		<codectypecode>apcn</codectypecode>
																		<codecvendorcode>appl</codecvendorcode>
																		<spatialquality>1024</spatialquality>
																		<temporalquality>0</temporalquality>
																		<keyframerate>0</keyframerate>
																		<datarate>0</datarate>
																	</qtcodec>
																</data>
															</appspecificdata>
														</codec>
														<width>1920</width>
														<height>1080</height>
														<anamorphic>FALSE</anamorphic>
														<pixelaspectratio>square</pixelaspectratio>
														<fielddominance>none</fielddominance>
														<colordepth>24</colordepth>
													</samplecharacteristics>
												</format>
												<track TL.SQTrackShy="0" TL.SQTrackExpandedHeight="25" TL.SQTrackExpanded="0" MZ.TrackTargeted="1">
													<clipitem id="clipitem-339">
														<masterclipid>masterclip-113</masterclipid>
														<name>ART_I love you a latte_1.3_HAPPY.mp4</name>
														<enabled>TRUE</enabled>
														<duration>2598</duration>
														<rate>
															<timebase>30</timebase>
															<ntsc>TRUE</ntsc>
														</rate>
														<start>0</start>
														<end>1923</end>
														<in>0</in>
														<out>1923</out>
														<pproTicksIn>0</pproTicksIn>
														<pproTicksOut>16298708025600</pproTicksOut>
														<alphatype>none</alphatype>
														<file id="file-112"/>
														<filter>
															<effect>
																<name>Basic Motion</name>
																<effectid>basic</effectid>
																<effectcategory>motion</effectcategory>
																<effecttype>motion</effecttype>
																<mediatype>video</mediatype>
																<pproBypass>false</pproBypass>
																<parameter authoringApp="PremierePro">
																	<parameterid>scale</parameterid>
																	<name>Scale</name>
																	<valuemin>0</valuemin>
																	<valuemax>1000</valuemax>
																	<value>150</value>
																</parameter>
																<parameter authoringApp="PremierePro">
																	<parameterid>rotation</parameterid>
																	<name>Rotation</name>
																	<valuemin>-8640</valuemin>
																	<valuemax>8640</valuemax>
																	<value>0</value>
																</parameter>
																<parameter authoringApp="PremierePro">
																	<parameterid>center</parameterid>
																	<name>Center</name>
																	<value>
																		<horiz>0</horiz>
																		<vert>0</vert>
																	</value>
																</parameter>
																<parameter authoringApp="PremierePro">
																	<parameterid>centerOffset</parameterid>
																	<name>Anchor Point</name>
																	<value>
																		<horiz>0</horiz>
																		<vert>0</vert>
																	</value>
																</parameter>
																<parameter authoringApp="PremierePro">
																	<parameterid>antiflicker</parameterid>
																	<name>Anti-flicker Filter</name>
																	<valuemin>0.0</valuemin>
																	<valuemax>1.0</valuemax>
																	<value>0</value>
																</parameter>
															</effect>
														</filter>
														<logginginfo>
															<description></description>
															<scene></scene>
															<shottake></shottake>
															<lognote></lognote>
															<good></good>
															<originalvideofilename></originalvideofilename>
															<originalaudiofilename></originalaudiofilename>
														</logginginfo>
														<colorinfo>
															<lut></lut>
															<lut1></lut1>
															<asc_sop></asc_sop>
															<asc_sat></asc_sat>
															<lut2></lut2>
														</colorinfo>
														<labels>
															<label2>Iris</label2>
														</labels>
													</clipitem>
													<clipitem id="clipitem-340">
														<masterclipid>masterclip-140</masterclipid>
														<name>coffeenest</name>
														<enabled>TRUE</enabled>
														<duration>675</duration>
														<rate>
															<timebase>30</timebase>
															<ntsc>TRUE</ntsc>
														</rate>
														<start>1923</start>
														<end>2598</end>
														<in>0</in>
														<out>675</out>
														<pproTicksIn>0</pproTicksIn>
														<pproTicksOut>5721075360000</pproTicksOut>
														<sequence id="sequence-21"/>
														<filter>
															<effect>
																<name>Basic Motion</name>
																<effectid>basic</effectid>
																<effectcategory>motion</effectcategory>
																<effecttype>motion</effecttype>
																<mediatype>video</mediatype>
																<pproBypass>false</pproBypass>
																<parameter authoringApp="PremierePro">
																	<parameterid>scale</parameterid>
																	<name>Scale</name>
																	<valuemin>0</valuemin>
																	<valuemax>1000</valuemax>
																	<value>329</value>
																</parameter>
																<parameter authoringApp="PremierePro">
																	<parameterid>rotation</parameterid>
																	<name>Rotation</name>
																	<valuemin>-8640</valuemin>
																	<valuemax>8640</valuemax>
																	<value>0</value>
																</parameter>
																<parameter authoringApp="PremierePro">
																	<parameterid>center</parameterid>
																	<name>Center</name>
																	<value>
																		<horiz>-0.5</horiz>
																		<vert>-0.5</vert>
																	</value>
																</parameter>
																<parameter authoringApp="PremierePro">
																	<parameterid>centerOffset</parameterid>
																	<name>Anchor Point</name>
																	<value>
																		<horiz>0</horiz>
																		<vert>0</vert>
																	</value>
																</parameter>
																<parameter authoringApp="PremierePro">
																	<parameterid>antiflicker</parameterid>
																	<name>Anti-flicker Filter</name>
																	<valuemin>0.0</valuemin>
																	<valuemax>1.0</valuemax>
																	<value>0</value>
																</parameter>
															</effect>
														</filter>
														<filter>
															<effect>
																<name>Gaussian Blur</name>
																<effectid>Gaussian Blur</effectid>
																<effectcategory>Blur</effectcategory>
																<effecttype>motion</effecttype>
																<mediatype>video</mediatype>
																<pproBypass>false</pproBypass>
																<parameter authoringApp="PremierePro">
																	<parameterid>radius</parameterid>
																	<name>Radius</name>
																	<valuemin>0</valuemin>
																	<valuemax>100</valuemax>
																	<value>150</value>
																</parameter>
															</effect>
														</filter>
														<labels>
															<label2>Forest</label2>
														</labels>
													</clipitem>
													<enabled>TRUE</enabled>
													<locked>FALSE</locked>
												</track>
												<track TL.SQTrackShy="0" TL.SQTrackExpandedHeight="25" TL.SQTrackExpanded="0" MZ.TrackTargeted="0">
													<clipitem id="clipitem-341">
														<masterclipid>masterclip-140</masterclipid>
														<name>coffeenest</name>
														<enabled>TRUE</enabled>
														<duration>675</duration>
														<rate>
															<timebase>30</timebase>
															<ntsc>TRUE</ntsc>
														</rate>
														<start>1923</start>
														<end>2598</end>
														<in>0</in>
														<out>675</out>
														<pproTicksIn>0</pproTicksIn>
														<pproTicksOut>5721075360000</pproTicksOut>
														<sequence id="sequence-21"/>
														<labels>
															<label2>Forest</label2>
														</labels>
													</clipitem>
													<enabled>TRUE</enabled>
													<locked>FALSE</locked>
												</track>
												<track TL.SQTrackShy="0" TL.SQTrackExpandedHeight="25" TL.SQTrackExpanded="0" MZ.TrackTargeted="0">
													<clipitem id="clipitem-342">
														<masterclipid>masterclip-38</masterclipid>
														<name>@eunseong_c.e.o</name>
														<enabled>TRUE</enabled>
														<duration>5844</duration>
														<rate>
															<timebase>30</timebase>
															<ntsc>TRUE</ntsc>
														</rate>
														<start>1923</start>
														<end>2598</end>
														<in>0</in>
														<out>675</out>
														<pproTicksIn>0</pproTicksIn>
														<pproTicksOut>5721075360000</pproTicksOut>
														<alphatype>straight</alphatype>
														<file id="file-38"/>
														<filter>
															<effect>
																<name>Basic Motion</name>
																<effectid>basic</effectid>
																<effectcategory>motion</effectcategory>
																<effecttype>motion</effecttype>
																<mediatype>video</mediatype>
																<pproBypass>false</pproBypass>
																<parameter authoringApp="PremierePro">
																	<parameterid>scale</parameterid>
																	<name>Scale</name>
																	<valuemin>0</valuemin>
																	<valuemax>1000</valuemax>
																	<value>150</value>
																</parameter>
																<parameter authoringApp="PremierePro">
																	<parameterid>rotation</parameterid>
																	<name>Rotation</name>
																	<valuemin>-8640</valuemin>
																	<valuemax>8640</valuemax>
																	<value>0</value>
																</parameter>
																<parameter authoringApp="PremierePro">
																	<parameterid>center</parameterid>
																	<name>Center</name>
																	<value>
																		<horiz>0</horiz>
																		<vert>0</vert>
																	</value>
																</parameter>
																<parameter authoringApp="PremierePro">
																	<parameterid>centerOffset</parameterid>
																	<name>Anchor Point</name>
																	<value>
																		<horiz>0</horiz>
																		<vert>0</vert>
																	</value>
																</parameter>
																<parameter authoringApp="PremierePro">
																	<parameterid>antiflicker</parameterid>
																	<name>Anti-flicker Filter</name>
																	<valuemin>0.0</valuemin>
																	<valuemax>1.0</valuemax>
																	<value>0</value>
																</parameter>
															</effect>
														</filter>
														<logginginfo>
															<description></description>
															<scene></scene>
															<shottake></shottake>
															<lognote></lognote>
															<good></good>
															<originalvideofilename></originalvideofilename>
															<originalaudiofilename></originalaudiofilename>
														</logginginfo>
														<colorinfo>
															<lut></lut>
															<lut1></lut1>
															<asc_sop></asc_sop>
															<asc_sat></asc_sat>
															<lut2></lut2>
														</colorinfo>
														<labels>
															<label2>Rose</label2>
														</labels>
													</clipitem>
													<enabled>TRUE</enabled>
													<locked>FALSE</locked>
												</track>
												<track TL.SQTrackShy="0" TL.SQTrackExpandedHeight="25" TL.SQTrackExpanded="0" MZ.TrackTargeted="0">
													<clipitem id="clipitem-343">
														<masterclipid>masterclip-106</masterclipid>
														<name>Bug and Lower Nest</name>
														<enabled>TRUE</enabled>
														<duration>14721</duration>
														<rate>
															<timebase>30</timebase>
															<ntsc>TRUE</ntsc>
														</rate>
														<start>0</start>
														<end>2598</end>
														<in>0</in>
														<out>2598</out>
														<pproTicksIn>0</pproTicksIn>
														<pproTicksOut>22019783385600</pproTicksOut>
														<sequence id="sequence-1"/>
														<labels>
															<label2>Cerulean</label2>
														</labels>
													</clipitem>
													<enabled>FALSE</enabled>
													<locked>FALSE</locked>
												</track>
											</video>
											<audio>
												<numOutputChannels>2</numOutputChannels>
												<format>
													<samplecharacteristics>
														<depth>16</depth>
														<samplerate>44100</samplerate>
													</samplecharacteristics>
												</format>
												<outputs>
													<group>
														<index>1</index>
														<numchannels>1</numchannels>
														<downmix>0</downmix>
														<channel>
															<index>1</index>
														</channel>
													</group>
													<group>
														<index>2</index>
														<numchannels>1</numchannels>
														<downmix>0</downmix>
														<channel>
															<index>2</index>
														</channel>
													</group>
												</outputs>
												<track TL.SQTrackAudioKeyframeStyle="0" TL.SQTrackShy="0" TL.SQTrackExpandedHeight="25" TL.SQTrackExpanded="0" MZ.TrackTargeted="1" PannerCurrentValue="0.5" PannerIsInverted="true" PannerStartKeyframe="-91445760000000000,0.5,0,0,0,0,0,0" PannerName="Balance" currentExplodedTrackIndex="0" totalExplodedTrackCount="2" premiereTrackType="Stereo">
													<transitionitem>
														<start>0</start>
														<end>30</end>
														<pproTicksIn>0</pproTicksIn>
														<pproTicksOut>254270016000</pproTicksOut>
														<alignment>start-black</alignment>
														<cutPointTicks>0</cutPointTicks>
														<rate>
															<timebase>30</timebase>
															<ntsc>TRUE</ntsc>
														</rate>
														<effect>
															<name>Cross Fade (+3dB)</name>
															<effectid>KGAudioTransCrossFade3dB</effectid>
															<effecttype>transition</effecttype>
															<mediatype>audio</mediatype>
															<wipecode>0</wipecode>
															<wipeaccuracy>100</wipeaccuracy>
															<startratio>0</startratio>
															<endratio>1</endratio>
															<reverse>FALSE</reverse>
														</effect>
													</transitionitem>
													<clipitem id="clipitem-344" premiereChannelType="stereo">
														<masterclipid>masterclip-11</masterclipid>
														<name>ES_Valenciaga - baegel.mp3</name>
														<enabled>TRUE</enabled>
														<duration>3351</duration>
														<rate>
															<timebase>30</timebase>
															<ntsc>TRUE</ntsc>
														</rate>
														<start>-1</start>
														<end>-1</end>
														<in>0</in>
														<out>2598</out>
														<pproTicksIn>0</pproTicksIn>
														<pproTicksOut>22019783385600</pproTicksOut>
														<file id="file-11"/>
														<sourcetrack>
															<mediatype>audio</mediatype>
															<trackindex>1</trackindex>
														</sourcetrack>
														<link>
															<linkclipref>clipitem-344</linkclipref>
															<mediatype>audio</mediatype>
															<trackindex>1</trackindex>
															<clipindex>2</clipindex>
															<groupindex>1</groupindex>
														</link>
														<link>
															<linkclipref>clipitem-345</linkclipref>
															<mediatype>audio</mediatype>
															<trackindex>2</trackindex>
															<clipindex>2</clipindex>
															<groupindex>1</groupindex>
														</link>
														<logginginfo>
															<description></description>
															<scene></scene>
															<shottake></shottake>
															<lognote></lognote>
															<good></good>
															<originalvideofilename></originalvideofilename>
															<originalaudiofilename></originalaudiofilename>
														</logginginfo>
														<colorinfo>
															<lut></lut>
															<lut1></lut1>
															<asc_sop></asc_sop>
															<asc_sat></asc_sat>
															<lut2></lut2>
														</colorinfo>
														<labels>
															<label2>Caribbean</label2>
														</labels>
													</clipitem>
													<transitionitem>
														<start>2509</start>
														<end>2598</end>
														<pproTicksIn>21256974720000</pproTicksIn>
														<pproTicksOut>22019783385600</pproTicksOut>
														<alignment>end-black</alignment>
														<cutPointTicks>762808665600</cutPointTicks>
														<rate>
															<timebase>30</timebase>
															<ntsc>TRUE</ntsc>
														</rate>
														<effect>
															<name>Cross Fade (+3dB)</name>
															<effectid>KGAudioTransCrossFade3dB</effectid>
															<effecttype>transition</effecttype>
															<mediatype>audio</mediatype>
															<wipecode>0</wipecode>
															<wipeaccuracy>100</wipeaccuracy>
															<startratio>0</startratio>
															<endratio>1</endratio>
															<reverse>FALSE</reverse>
														</effect>
													</transitionitem>
													<enabled>TRUE</enabled>
													<locked>FALSE</locked>
													<filter>
														<effect>
															<name>Audio Levels</name>
															<effectid>audiolevels</effectid>
															<effectcategory>audiolevels</effectcategory>
															<effecttype>audiolevels</effecttype>
															<mediatype>audio</mediatype>
															<parameter authoringApp="PremierePro">
																<parameterid>level</parameterid>
																<name>Level</name>
																<valuemin>0</valuemin>
																<valuemax>3.98109</valuemax>
																<value>0.706272</value>
															</parameter>
														</effect>
													</filter>
													<outputchannelindex>1</outputchannelindex>
												</track>
												<track TL.SQTrackAudioKeyframeStyle="0" TL.SQTrackShy="0" TL.SQTrackExpandedHeight="25" TL.SQTrackExpanded="0" MZ.TrackTargeted="1" PannerCurrentValue="0.5" PannerIsInverted="true" PannerStartKeyframe="-91445760000000000,0.5,0,0,0,0,0,0" PannerName="Balance" currentExplodedTrackIndex="1" totalExplodedTrackCount="2" premiereTrackType="Stereo">
													<transitionitem>
														<start>0</start>
														<end>30</end>
														<pproTicksIn>0</pproTicksIn>
														<pproTicksOut>254270016000</pproTicksOut>
														<alignment>start-black</alignment>
														<cutPointTicks>0</cutPointTicks>
														<rate>
															<timebase>30</timebase>
															<ntsc>TRUE</ntsc>
														</rate>
														<effect>
															<name>Cross Fade (+3dB)</name>
															<effectid>KGAudioTransCrossFade3dB</effectid>
															<effecttype>transition</effecttype>
															<mediatype>audio</mediatype>
															<wipecode>0</wipecode>
															<wipeaccuracy>100</wipeaccuracy>
															<startratio>0</startratio>
															<endratio>1</endratio>
															<reverse>FALSE</reverse>
														</effect>
													</transitionitem>
													<clipitem id="clipitem-345" premiereChannelType="stereo">
														<masterclipid>masterclip-11</masterclipid>
														<name>ES_Valenciaga - baegel.mp3</name>
														<enabled>TRUE</enabled>
														<duration>3351</duration>
														<rate>
															<timebase>30</timebase>
															<ntsc>TRUE</ntsc>
														</rate>
														<start>-1</start>
														<end>-1</end>
														<in>0</in>
														<out>2598</out>
														<pproTicksIn>0</pproTicksIn>
														<pproTicksOut>22019783385600</pproTicksOut>
														<file id="file-11"/>
														<sourcetrack>
															<mediatype>audio</mediatype>
															<trackindex>2</trackindex>
														</sourcetrack>
														<link>
															<linkclipref>clipitem-344</linkclipref>
															<mediatype>audio</mediatype>
															<trackindex>1</trackindex>
															<clipindex>2</clipindex>
															<groupindex>1</groupindex>
														</link>
														<link>
															<linkclipref>clipitem-345</linkclipref>
															<mediatype>audio</mediatype>
															<trackindex>2</trackindex>
															<clipindex>2</clipindex>
															<groupindex>1</groupindex>
														</link>
														<logginginfo>
															<description></description>
															<scene></scene>
															<shottake></shottake>
															<lognote></lognote>
															<good></good>
															<originalvideofilename></originalvideofilename>
															<originalaudiofilename></originalaudiofilename>
														</logginginfo>
														<colorinfo>
															<lut></lut>
															<lut1></lut1>
															<asc_sop></asc_sop>
															<asc_sat></asc_sat>
															<lut2></lut2>
														</colorinfo>
														<labels>
															<label2>Caribbean</label2>
														</labels>
													</clipitem>
													<transitionitem>
														<start>2509</start>
														<end>2598</end>
														<pproTicksIn>21256974720000</pproTicksIn>
														<pproTicksOut>22019783385600</pproTicksOut>
														<alignment>end-black</alignment>
														<cutPointTicks>762808665600</cutPointTicks>
														<rate>
															<timebase>30</timebase>
															<ntsc>TRUE</ntsc>
														</rate>
														<effect>
															<name>Cross Fade (+3dB)</name>
															<effectid>KGAudioTransCrossFade3dB</effectid>
															<effecttype>transition</effecttype>
															<mediatype>audio</mediatype>
															<wipecode>0</wipecode>
															<wipeaccuracy>100</wipeaccuracy>
															<startratio>0</startratio>
															<endratio>1</endratio>
															<reverse>FALSE</reverse>
														</effect>
													</transitionitem>
													<enabled>TRUE</enabled>
													<locked>FALSE</locked>
													<filter>
														<effect>
															<name>Audio Levels</name>
															<effectid>audiolevels</effectid>
															<effectcategory>audiolevels</effectcategory>
															<effecttype>audiolevels</effecttype>
															<mediatype>audio</mediatype>
															<parameter authoringApp="PremierePro">
																<parameterid>level</parameterid>
																<name>Level</name>
																<valuemin>0</valuemin>
																<valuemax>3.98109</valuemax>
																<value>0.706272</value>
															</parameter>
														</effect>
													</filter>
													<outputchannelindex>2</outputchannelindex>
												</track>
											</audio>
										</media>
										<timecode>
											<rate>
												<timebase>30</timebase>
												<ntsc>TRUE</ntsc>
											</rate>
											<string>00:00:00:00</string>
											<frame>0</frame>
											<displayformat>NDF</displayformat>
										</timecode>
										<labels>
											<label2>Forest</label2>
										</labels>
										<logginginfo>
											<description></description>
											<scene></scene>
											<shottake></shottake>
											<lognote></lognote>
											<good></good>
											<originalvideofilename></originalvideofilename>
											<originalaudiofilename></originalaudiofilename>
										</logginginfo>
									</sequence>
									<sequence id="sequence-46" TL.SQAudioVisibleBase="0" TL.SQVideoVisibleBase="0" TL.SQVisibleBaseTime="0" TL.SQAVDividerPosition="0.5" TL.SQHideShyTracks="0" TL.SQHeaderWidth="236" Monitor.ProgramZoomOut="32902540070400" Monitor.ProgramZoomIn="0" TL.SQTimePerPixel="0.17021217918805412" AM.TrackVScrollPosition="0" AM.TrackScrollPosition="0" MZ.EditLine="9340185254400" MZ.Sequence.PreviewFrameSizeHeight="1080" MZ.Sequence.PreviewFrameSizeWidth="1920" MZ.Sequence.AudioTimeDisplayFormat="200" MZ.Sequence.PreviewRenderingClassID="1297106761" MZ.Sequence.PreviewRenderingPresetCodec="1297107278" MZ.Sequence.PreviewRenderingPresetPath="EncoderPresets/SequencePreview/795454d9-d3c2-429d-9474-923ab13b7018/I-Frame Only MPEG.epr" MZ.Sequence.PreviewUseMaxRenderQuality="false" MZ.Sequence.PreviewUseMaxBitDepth="false" MZ.Sequence.EditingModeGUID="795454d9-d3c2-429d-9474-923ab13b7018" MZ.Sequence.VideoTimeDisplayFormat="103" MZ.WorkOutPoint="32902540070400" MZ.WorkInPoint="0" explodedTracks="true">
										<uuid>837d71b5-e046-487e-9f79-1991ff9a71a9</uuid>
										<duration>2155</duration>
										<rate>
											<timebase>30</timebase>
											<ntsc>TRUE</ntsc>
										</rate>
										<out>3882</out>
										<name>SAT_car paint_2</name>
										<media>
											<video>
												<format>
													<samplecharacteristics>
														<rate>
															<timebase>30</timebase>
															<ntsc>TRUE</ntsc>
														</rate>
														<codec>
															<name>Apple ProRes 422</name>
															<appspecificdata>
																<appname>Final Cut Pro</appname>
																<appmanufacturer>Apple Inc.</appmanufacturer>
																<appversion>7.0</appversion>
																<data>
																	<qtcodec>
																		<codecname>Apple ProRes 422</codecname>
																		<codectypename>Apple ProRes 422</codectypename>
																		<codectypecode>apcn</codectypecode>
																		<codecvendorcode>appl</codecvendorcode>
																		<spatialquality>1024</spatialquality>
																		<temporalquality>0</temporalquality>
																		<keyframerate>0</keyframerate>
																		<datarate>0</datarate>
																	</qtcodec>
																</data>
															</appspecificdata>
														</codec>
														<width>1920</width>
														<height>1080</height>
														<anamorphic>FALSE</anamorphic>
														<pixelaspectratio>square</pixelaspectratio>
														<fielddominance>none</fielddominance>
														<colordepth>24</colordepth>
													</samplecharacteristics>
												</format>
												<track TL.SQTrackShy="0" TL.SQTrackExpandedHeight="25" TL.SQTrackExpanded="0" MZ.TrackTargeted="1">
													<clipitem id="clipitem-346">
														<masterclipid>masterclip-141</masterclipid>
														<name>(Tino Car Care)_How MILLIONAIRES Take Care of Their Cars__mNGGvsqRR7s_YT.mp4</name>
														<enabled>TRUE</enabled>
														<duration>46311</duration>
														<rate>
															<timebase>30</timebase>
															<ntsc>TRUE</ntsc>
														</rate>
														<start>0</start>
														<end>294</end>
														<in>27042</in>
														<out>27336</out>
														<pproTicksIn>229198992422400</pproTicksIn>
														<pproTicksOut>231690838579200</pproTicksOut>
														<alphatype>none</alphatype>
														<pixelaspectratio>square</pixelaspectratio>
														<anamorphic>FALSE</anamorphic>
														<file id="file-137">
															<name>(Tino Car Care)_How MILLIONAIRES Take Care of Their Cars__mNGGvsqRR7s_YT.mp4</name>
															<pathurl>file://localhost/Volumes/Macintosh%20HD/Users/juesecutler/Google%20Drive/My%20Drive/00_New%20weeks%20format/2023/OSTV/OSTV%2023-07-10/3_Raw%20Files/Copied_OSTV%2007-10-23%20project%20manager%20copy/(Tino%20Car%20Care)_How%20MILLIONAIRES%20Take%20Care%20of%20Their%20Cars__mNGGvsqRR7s_YT.mp4</pathurl>
															<rate>
																<timebase>60</timebase>
																<ntsc>FALSE</ntsc>
															</rate>
															<duration>92715</duration>
															<timecode>
																<rate>
																	<timebase>60</timebase>
																	<ntsc>FALSE</ntsc>
																</rate>
																<string>00:00:00:00</string>
																<frame>0</frame>
																<displayformat>NDF</displayformat>
															</timecode>
															<media>
																<video>
																	<samplecharacteristics>
																		<rate>
																			<timebase>60</timebase>
																			<ntsc>FALSE</ntsc>
																		</rate>
																		<width>1920</width>
																		<height>1080</height>
																		<anamorphic>FALSE</anamorphic>
																		<pixelaspectratio>square</pixelaspectratio>
																		<fielddominance>none</fielddominance>
																	</samplecharacteristics>
																</video>
																<audio>
																	<samplecharacteristics>
																		<depth>16</depth>
																		<samplerate>44100</samplerate>
																	</samplecharacteristics>
																	<channelcount>2</channelcount>
																</audio>
															</media>
														</file>
														<logginginfo>
															<description>How MILLIONAIRES Take Care of Their Cars?</description>
															<scene></scene>
															<shottake></shottake>
															<lognote>https://www.youtube.com/watch?v=mNGGvsqRR7s</lognote>
															<good></good>
															<originalvideofilename></originalvideofilename>
															<originalaudiofilename></originalaudiofilename>
														</logginginfo>
														<colorinfo>
															<lut></lut>
															<lut1></lut1>
															<asc_sop></asc_sop>
															<asc_sat></asc_sat>
															<lut2></lut2>
														</colorinfo>
														<labels>
															<label2>Iris</label2>
														</labels>
													</clipitem>
													<clipitem id="clipitem-347">
														<masterclipid>masterclip-141</masterclipid>
														<name>(Tino Car Care)_How MILLIONAIRES Take Care of Their Cars__mNGGvsqRR7s_YT.mp4</name>
														<enabled>TRUE</enabled>
														<duration>46311</duration>
														<rate>
															<timebase>30</timebase>
															<ntsc>TRUE</ntsc>
														</rate>
														<start>294</start>
														<end>1778</end>
														<in>27418</in>
														<out>28902</out>
														<pproTicksIn>232385843289600</pproTicksIn>
														<pproTicksOut>244963733414400</pproTicksOut>
														<alphatype>none</alphatype>
														<file id="file-137"/>
														<logginginfo>
															<description>How MILLIONAIRES Take Care of Their Cars?</description>
															<scene></scene>
															<shottake></shottake>
															<lognote>https://www.youtube.com/watch?v=mNGGvsqRR7s</lognote>
															<good></good>
															<originalvideofilename></originalvideofilename>
															<originalaudiofilename></originalaudiofilename>
														</logginginfo>
														<colorinfo>
															<lut></lut>
															<lut1></lut1>
															<asc_sop></asc_sop>
															<asc_sat></asc_sat>
															<lut2></lut2>
														</colorinfo>
														<labels>
															<label2>Iris</label2>
														</labels>
													</clipitem>
													<clipitem id="clipitem-348">
														<masterclipid>masterclip-141</masterclipid>
														<name>(Tino Car Care)_How MILLIONAIRES Take Care of Their Cars__mNGGvsqRR7s_YT.mp4</name>
														<enabled>TRUE</enabled>
														<duration>46311</duration>
														<rate>
															<timebase>30</timebase>
															<ntsc>TRUE</ntsc>
														</rate>
														<start>1778</start>
														<end>2019</end>
														<in>29215</in>
														<out>29456</out>
														<pproTicksIn>247616617248000</pproTicksIn>
														<pproTicksOut>249659253043200</pproTicksOut>
														<alphatype>none</alphatype>
														<file id="file-137"/>
														<logginginfo>
															<description>How MILLIONAIRES Take Care of Their Cars?</description>
															<scene></scene>
															<shottake></shottake>
															<lognote>https://www.youtube.com/watch?v=mNGGvsqRR7s</lognote>
															<good></good>
															<originalvideofilename></originalvideofilename>
															<originalaudiofilename></originalaudiofilename>
														</logginginfo>
														<colorinfo>
															<lut></lut>
															<lut1></lut1>
															<asc_sop></asc_sop>
															<asc_sat></asc_sat>
															<lut2></lut2>
														</colorinfo>
														<labels>
															<label2>Iris</label2>
														</labels>
													</clipitem>
													<clipitem id="clipitem-349">
														<masterclipid>masterclip-141</masterclipid>
														<name>(Tino Car Care)_How MILLIONAIRES Take Care of Their Cars__mNGGvsqRR7s_YT.mp4</name>
														<enabled>TRUE</enabled>
														<duration>46311</duration>
														<rate>
															<timebase>30</timebase>
															<ntsc>TRUE</ntsc>
														</rate>
														<start>2019</start>
														<end>2155</end>
														<in>29692</in>
														<out>29828</out>
														<pproTicksIn>251659510502400</pproTicksIn>
														<pproTicksOut>252812201241600</pproTicksOut>
														<alphatype>none</alphatype>
														<file id="file-137"/>
														<logginginfo>
															<description>How MILLIONAIRES Take Care of Their Cars?</description>
															<scene></scene>
															<shottake></shottake>
															<lognote>https://www.youtube.com/watch?v=mNGGvsqRR7s</lognote>
															<good></good>
															<originalvideofilename></originalvideofilename>
															<originalaudiofilename></originalaudiofilename>
														</logginginfo>
														<colorinfo>
															<lut></lut>
															<lut1></lut1>
															<asc_sop></asc_sop>
															<asc_sat></asc_sat>
															<lut2></lut2>
														</colorinfo>
														<labels>
															<label2>Iris</label2>
														</labels>
													</clipitem>
													<enabled>TRUE</enabled>
													<locked>FALSE</locked>
												</track>
												<track TL.SQTrackShy="0" TL.SQTrackExpandedHeight="25" TL.SQTrackExpanded="0" MZ.TrackTargeted="0">
													<clipitem id="clipitem-350">
														<masterclipid>masterclip-142</masterclipid>
														<name>(Paint Society)_How To Prepare a Vehicle’s Surface to Lay The Smoothest Paint!__HTTTZes8-o_YT.mp4</name>
														<enabled>TRUE</enabled>
														<duration>48583</duration>
														<rate>
															<timebase>30</timebase>
															<ntsc>TRUE</ntsc>
														</rate>
														<start>2155</start>
														<end>2368</end>
														<in>791</in>
														<out>1004</out>
														<pproTicksIn>6704252755200</pproTicksIn>
														<pproTicksOut>8509569868800</pproTicksOut>
														<alphatype>none</alphatype>
														<pixelaspectratio>square</pixelaspectratio>
														<anamorphic>FALSE</anamorphic>
														<file id="file-138">
															<name>(Paint Society)_How To Prepare a Vehicle’s Surface to Lay The Smoothest Paint!__HTTTZes8-o_YT.mp4</name>
															<pathurl>file://localhost/Volumes/Satisfactum%20Satisfactorum/03_Weekly%20(Project%20Files,%20Main%20Segments)/OSTV/OSTV%2023-08-21/3_Raw%20Files/(Paint%20Society)_How%20To%20Prepare%20a%20Vehicle%e2%80%99s%20Surface%20to%20Lay%20The%20Smoothest%20Paint!__HTTTZes8-o_YT.mp4</pathurl>
															<rate>
																<timebase>60</timebase>
																<ntsc>TRUE</ntsc>
															</rate>
															<duration>97166</duration>
															<timecode>
																<rate>
																	<timebase>60</timebase>
																	<ntsc>TRUE</ntsc>
																</rate>
																<string>00:00:00:00</string>
																<frame>0</frame>
																<displayformat>NDF</displayformat>
															</timecode>
															<media>
																<video>
																	<samplecharacteristics>
																		<rate>
																			<timebase>60</timebase>
																			<ntsc>TRUE</ntsc>
																		</rate>
																		<width>1920</width>
																		<height>1080</height>
																		<anamorphic>FALSE</anamorphic>
																		<pixelaspectratio>square</pixelaspectratio>
																		<fielddominance>none</fielddominance>
																	</samplecharacteristics>
																</video>
																<audio>
																	<samplecharacteristics>
																		<depth>16</depth>
																		<samplerate>44100</samplerate>
																	</samplecharacteristics>
																	<channelcount>2</channelcount>
																</audio>
															</media>
														</file>
														<logginginfo>
															<description></description>
															<scene></scene>
															<shottake></shottake>
															<lognote>https://www.youtube.com/watch?v=_HTTTZes8-o</lognote>
															<good></good>
															<originalvideofilename></originalvideofilename>
															<originalaudiofilename></originalaudiofilename>
														</logginginfo>
														<colorinfo>
															<lut></lut>
															<lut1></lut1>
															<asc_sop></asc_sop>
															<asc_sat></asc_sat>
															<lut2></lut2>
														</colorinfo>
														<labels>
															<label2>Iris</label2>
														</labels>
													</clipitem>
													<clipitem id="clipitem-351">
														<masterclipid>masterclip-142</masterclipid>
														<name>(Paint Society)_How To Prepare a Vehicle’s Surface to Lay The Smoothest Paint!__HTTTZes8-o_YT.mp4</name>
														<enabled>TRUE</enabled>
														<duration>48583</duration>
														<rate>
															<timebase>30</timebase>
															<ntsc>TRUE</ntsc>
														</rate>
														<start>2368</start>
														<end>2440</end>
														<in>1059</in>
														<out>1131</out>
														<pproTicksIn>8975731564800</pproTicksIn>
														<pproTicksOut>9585979603200</pproTicksOut>
														<alphatype>none</alphatype>
														<file id="file-138"/>
														<logginginfo>
															<description></description>
															<scene></scene>
															<shottake></shottake>
															<lognote>https://www.youtube.com/watch?v=_HTTTZes8-o</lognote>
															<good></good>
															<originalvideofilename></originalvideofilename>
															<originalaudiofilename></originalaudiofilename>
														</logginginfo>
														<colorinfo>
															<lut></lut>
															<lut1></lut1>
															<asc_sop></asc_sop>
															<asc_sat></asc_sat>
															<lut2></lut2>
														</colorinfo>
														<labels>
															<label2>Iris</label2>
														</labels>
													</clipitem>
													<clipitem id="clipitem-352">
														<masterclipid>masterclip-142</masterclipid>
														<name>(Paint Society)_How To Prepare a Vehicle’s Surface to Lay The Smoothest Paint!__HTTTZes8-o_YT.mp4</name>
														<enabled>TRUE</enabled>
														<duration>48583</duration>
														<rate>
															<timebase>30</timebase>
															<ntsc>TRUE</ntsc>
														</rate>
														<start>2440</start>
														<end>2528</end>
														<in>4628</in>
														<out>4716</out>
														<pproTicksIn>39225387801600</pproTicksIn>
														<pproTicksOut>39971246515200</pproTicksOut>
														<alphatype>none</alphatype>
														<file id="file-138"/>
														<logginginfo>
															<description></description>
															<scene></scene>
															<shottake></shottake>
															<lognote>https://www.youtube.com/watch?v=_HTTTZes8-o</lognote>
															<good></good>
															<originalvideofilename></originalvideofilename>
															<originalaudiofilename></originalaudiofilename>
														</logginginfo>
														<colorinfo>
															<lut></lut>
															<lut1></lut1>
															<asc_sop></asc_sop>
															<asc_sat></asc_sat>
															<lut2></lut2>
														</colorinfo>
														<labels>
															<label2>Iris</label2>
														</labels>
													</clipitem>
													<clipitem id="clipitem-353">
														<masterclipid>masterclip-142</masterclipid>
														<name>(Paint Society)_How To Prepare a Vehicle’s Surface to Lay The Smoothest Paint!__HTTTZes8-o_YT.mp4</name>
														<enabled>TRUE</enabled>
														<duration>48583</duration>
														<rate>
															<timebase>30</timebase>
															<ntsc>TRUE</ntsc>
														</rate>
														<start>2528</start>
														<end>2731</end>
														<in>4746</in>
														<out>4949</out>
														<pproTicksIn>40225516531200</pproTicksIn>
														<pproTicksOut>41946076972800</pproTicksOut>
														<alphatype>none</alphatype>
														<file id="file-138"/>
														<logginginfo>
															<description></description>
															<scene></scene>
															<shottake></shottake>
															<lognote>https://www.youtube.com/watch?v=_HTTTZes8-o</lognote>
															<good></good>
															<originalvideofilename></originalvideofilename>
															<originalaudiofilename></originalaudiofilename>
														</logginginfo>
														<colorinfo>
															<lut></lut>
															<lut1></lut1>
															<asc_sop></asc_sop>
															<asc_sat></asc_sat>
															<lut2></lut2>
														</colorinfo>
														<labels>
															<label2>Iris</label2>
														</labels>
													</clipitem>
													<clipitem id="clipitem-354">
														<masterclipid>masterclip-142</masterclipid>
														<name>(Paint Society)_How To Prepare a Vehicle’s Surface to Lay The Smoothest Paint!__HTTTZes8-o_YT.mp4</name>
														<enabled>TRUE</enabled>
														<duration>48583</duration>
														<rate>
															<timebase>30</timebase>
															<ntsc>TRUE</ntsc>
														</rate>
														<start>2731</start>
														<end>2874</end>
														<in>20047</in>
														<out>20190</out>
														<pproTicksIn>169911700358400</pproTicksIn>
														<pproTicksOut>171123720768000</pproTicksOut>
														<alphatype>none</alphatype>
														<file id="file-138"/>
														<logginginfo>
															<description></description>
															<scene></scene>
															<shottake></shottake>
															<lognote>https://www.youtube.com/watch?v=_HTTTZes8-o</lognote>
															<good></good>
															<originalvideofilename></originalvideofilename>
															<originalaudiofilename></originalaudiofilename>
														</logginginfo>
														<colorinfo>
															<lut></lut>
															<lut1></lut1>
															<asc_sop></asc_sop>
															<asc_sat></asc_sat>
															<lut2></lut2>
														</colorinfo>
														<labels>
															<label2>Iris</label2>
														</labels>
													</clipitem>
													<clipitem id="clipitem-355">
														<masterclipid>masterclip-142</masterclipid>
														<name>(Paint Society)_How To Prepare a Vehicle’s Surface to Lay The Smoothest Paint!__HTTTZes8-o_YT.mp4</name>
														<enabled>TRUE</enabled>
														<duration>48583</duration>
														<rate>
															<timebase>30</timebase>
															<ntsc>TRUE</ntsc>
														</rate>
														<start>2874</start>
														<end>2994</end>
														<in>22042</in>
														<out>22162</out>
														<pproTicksIn>186820656422400</pproTicksIn>
														<pproTicksOut>187837736486400</pproTicksOut>
														<alphatype>none</alphatype>
														<file id="file-138"/>
														<logginginfo>
															<description></description>
															<scene></scene>
															<shottake></shottake>
															<lognote>https://www.youtube.com/watch?v=_HTTTZes8-o</lognote>
															<good></good>
															<originalvideofilename></originalvideofilename>
															<originalaudiofilename></originalaudiofilename>
														</logginginfo>
														<colorinfo>
															<lut></lut>
															<lut1></lut1>
															<asc_sop></asc_sop>
															<asc_sat></asc_sat>
															<lut2></lut2>
														</colorinfo>
														<labels>
															<label2>Iris</label2>
														</labels>
													</clipitem>
													<clipitem id="clipitem-356">
														<masterclipid>masterclip-142</masterclipid>
														<name>(Paint Society)_How To Prepare a Vehicle’s Surface to Lay The Smoothest Paint!__HTTTZes8-o_YT.mp4</name>
														<enabled>TRUE</enabled>
														<duration>48583</duration>
														<rate>
															<timebase>30</timebase>
															<ntsc>TRUE</ntsc>
														</rate>
														<start>2994</start>
														<end>3117</end>
														<in>23200</in>
														<out>23323</out>
														<pproTicksIn>196635479040000</pproTicksIn>
														<pproTicksOut>197677986105600</pproTicksOut>
														<alphatype>none</alphatype>
														<file id="file-138"/>
														<logginginfo>
															<description></description>
															<scene></scene>
															<shottake></shottake>
															<lognote>https://www.youtube.com/watch?v=_HTTTZes8-o</lognote>
															<good></good>
															<originalvideofilename></originalvideofilename>
															<originalaudiofilename></originalaudiofilename>
														</logginginfo>
														<colorinfo>
															<lut></lut>
															<lut1></lut1>
															<asc_sop></asc_sop>
															<asc_sat></asc_sat>
															<lut2></lut2>
														</colorinfo>
														<labels>
															<label2>Iris</label2>
														</labels>
													</clipitem>
													<clipitem id="clipitem-357">
														<masterclipid>masterclip-142</masterclipid>
														<name>(Paint Society)_How To Prepare a Vehicle’s Surface to Lay The Smoothest Paint!__HTTTZes8-o_YT.mp4</name>
														<enabled>TRUE</enabled>
														<duration>48583</duration>
														<rate>
															<timebase>30</timebase>
															<ntsc>TRUE</ntsc>
														</rate>
														<start>3117</start>
														<end>3372</end>
														<in>26321</in>
														<out>26576</out>
														<pproTicksIn>223088036371200</pproTicksIn>
														<pproTicksOut>225249331507200</pproTicksOut>
														<alphatype>none</alphatype>
														<file id="file-138"/>
														<logginginfo>
															<description></description>
															<scene></scene>
															<shottake></shottake>
															<lognote>https://www.youtube.com/watch?v=_HTTTZes8-o</lognote>
															<good></good>
															<originalvideofilename></originalvideofilename>
															<originalaudiofilename></originalaudiofilename>
														</logginginfo>
														<colorinfo>
															<lut></lut>
															<lut1></lut1>
															<asc_sop></asc_sop>
															<asc_sat></asc_sat>
															<lut2></lut2>
														</colorinfo>
														<labels>
															<label2>Iris</label2>
														</labels>
													</clipitem>
													<clipitem id="clipitem-358">
														<masterclipid>masterclip-142</masterclipid>
														<name>(Paint Society)_How To Prepare a Vehicle’s Surface to Lay The Smoothest Paint!__HTTTZes8-o_YT.mp4</name>
														<enabled>TRUE</enabled>
														<duration>48583</duration>
														<rate>
															<timebase>30</timebase>
															<ntsc>TRUE</ntsc>
														</rate>
														<start>3372</start>
														<end>3882</end>
														<in>46206</in>
														<out>46716</out>
														<pproTicksIn>391626678643200</pproTicksIn>
														<pproTicksOut>395949268915200</pproTicksOut>
														<alphatype>none</alphatype>
														<file id="file-138"/>
														<logginginfo>
															<description></description>
															<scene></scene>
															<shottake></shottake>
															<lognote>https://www.youtube.com/watch?v=_HTTTZes8-o</lognote>
															<good></good>
															<originalvideofilename></originalvideofilename>
															<originalaudiofilename></originalaudiofilename>
														</logginginfo>
														<colorinfo>
															<lut></lut>
															<lut1></lut1>
															<asc_sop></asc_sop>
															<asc_sat></asc_sat>
															<lut2></lut2>
														</colorinfo>
														<labels>
															<label2>Iris</label2>
														</labels>
													</clipitem>
													<enabled>TRUE</enabled>
													<locked>FALSE</locked>
												</track>
												<track TL.SQTrackShy="0" TL.SQTrackExpandedHeight="25" TL.SQTrackExpanded="0" MZ.TrackTargeted="0">
													<clipitem id="clipitem-359">
														<masterclipid>masterclip-88</masterclipid>
														<name>Tino Car Care</name>
														<enabled>TRUE</enabled>
														<duration>5844</duration>
														<rate>
															<timebase>30</timebase>
															<ntsc>TRUE</ntsc>
														</rate>
														<start>0</start>
														<end>2155</end>
														<in>0</in>
														<out>2155</out>
														<pproTicksIn>0</pproTicksIn>
														<pproTicksOut>18265062816000</pproTicksOut>
														<alphatype>straight</alphatype>
														<file id="file-88"/>
														<filter>
															<effect>
																<name>Basic Motion</name>
																<effectid>basic</effectid>
																<effectcategory>motion</effectcategory>
																<effecttype>motion</effecttype>
																<mediatype>video</mediatype>
																<pproBypass>false</pproBypass>
																<parameter authoringApp="PremierePro">
																	<parameterid>scale</parameterid>
																	<name>Scale</name>
																	<valuemin>0</valuemin>
																	<valuemax>1000</valuemax>
																	<value>150</value>
																</parameter>
																<parameter authoringApp="PremierePro">
																	<parameterid>rotation</parameterid>
																	<name>Rotation</name>
																	<valuemin>-8640</valuemin>
																	<valuemax>8640</valuemax>
																	<value>0</value>
																</parameter>
																<parameter authoringApp="PremierePro">
																	<parameterid>center</parameterid>
																	<name>Center</name>
																	<value>
																		<horiz>0</horiz>
																		<vert>0</vert>
																	</value>
																</parameter>
																<parameter authoringApp="PremierePro">
																	<parameterid>centerOffset</parameterid>
																	<name>Anchor Point</name>
																	<value>
																		<horiz>0</horiz>
																		<vert>0</vert>
																	</value>
																</parameter>
																<parameter authoringApp="PremierePro">
																	<parameterid>antiflicker</parameterid>
																	<name>Anti-flicker Filter</name>
																	<valuemin>0.0</valuemin>
																	<valuemax>1.0</valuemax>
																	<value>0</value>
																</parameter>
															</effect>
														</filter>
														<logginginfo>
															<description></description>
															<scene></scene>
															<shottake></shottake>
															<lognote></lognote>
															<good></good>
															<originalvideofilename></originalvideofilename>
															<originalaudiofilename></originalaudiofilename>
														</logginginfo>
														<colorinfo>
															<lut></lut>
															<lut1></lut1>
															<asc_sop></asc_sop>
															<asc_sat></asc_sat>
															<lut2></lut2>
														</colorinfo>
														<labels>
															<label2>Rose</label2>
														</labels>
													</clipitem>
													<clipitem id="clipitem-360">
														<masterclipid>masterclip-68</masterclipid>
														<name>Paint Society</name>
														<enabled>TRUE</enabled>
														<duration>5844</duration>
														<rate>
															<timebase>30</timebase>
															<ntsc>TRUE</ntsc>
														</rate>
														<start>2155</start>
														<end>3882</end>
														<in>0</in>
														<out>1727</out>
														<pproTicksIn>0</pproTicksIn>
														<pproTicksOut>14637477254400</pproTicksOut>
														<alphatype>straight</alphatype>
														<file id="file-68"/>
														<filter>
															<effect>
																<name>Basic Motion</name>
																<effectid>basic</effectid>
																<effectcategory>motion</effectcategory>
																<effecttype>motion</effecttype>
																<mediatype>video</mediatype>
																<pproBypass>false</pproBypass>
																<parameter authoringApp="PremierePro">
																	<parameterid>scale</parameterid>
																	<name>Scale</name>
																	<valuemin>0</valuemin>
																	<valuemax>1000</valuemax>
																	<value>150</value>
																</parameter>
																<parameter authoringApp="PremierePro">
																	<parameterid>rotation</parameterid>
																	<name>Rotation</name>
																	<valuemin>-8640</valuemin>
																	<valuemax>8640</valuemax>
																	<value>0</value>
																</parameter>
																<parameter authoringApp="PremierePro">
																	<parameterid>center</parameterid>
																	<name>Center</name>
																	<value>
																		<horiz>0</horiz>
																		<vert>0</vert>
																	</value>
																</parameter>
																<parameter authoringApp="PremierePro">
																	<parameterid>centerOffset</parameterid>
																	<name>Anchor Point</name>
																	<value>
																		<horiz>0</horiz>
																		<vert>0</vert>
																	</value>
																</parameter>
																<parameter authoringApp="PremierePro">
																	<parameterid>antiflicker</parameterid>
																	<name>Anti-flicker Filter</name>
																	<valuemin>0.0</valuemin>
																	<valuemax>1.0</valuemax>
																	<value>0</value>
																</parameter>
															</effect>
														</filter>
														<logginginfo>
															<description></description>
															<scene></scene>
															<shottake></shottake>
															<lognote></lognote>
															<good></good>
															<originalvideofilename></originalvideofilename>
															<originalaudiofilename></originalaudiofilename>
														</logginginfo>
														<colorinfo>
															<lut></lut>
															<lut1></lut1>
															<asc_sop></asc_sop>
															<asc_sat></asc_sat>
															<lut2></lut2>
														</colorinfo>
														<labels>
															<label2>Rose</label2>
														</labels>
													</clipitem>
													<enabled>TRUE</enabled>
													<locked>FALSE</locked>
												</track>
												<track TL.SQTrackShy="0" TL.SQTrackExpandedHeight="25" TL.SQTrackExpanded="0" MZ.TrackTargeted="0">
													<clipitem id="clipitem-361">
														<masterclipid>masterclip-106</masterclipid>
														<name>Bug and Lower Nest</name>
														<enabled>TRUE</enabled>
														<duration>14721</duration>
														<rate>
															<timebase>30</timebase>
															<ntsc>TRUE</ntsc>
														</rate>
														<start>0</start>
														<end>3882</end>
														<in>0</in>
														<out>3882</out>
														<pproTicksIn>0</pproTicksIn>
														<pproTicksOut>32902540070400</pproTicksOut>
														<sequence id="sequence-1"/>
														<labels>
															<label2>Cerulean</label2>
														</labels>
													</clipitem>
													<enabled>TRUE</enabled>
													<locked>FALSE</locked>
												</track>
											</video>
											<audio>
												<numOutputChannels>2</numOutputChannels>
												<format>
													<samplecharacteristics>
														<depth>16</depth>
														<samplerate>44100</samplerate>
													</samplecharacteristics>
												</format>
												<outputs>
													<group>
														<index>1</index>
														<numchannels>1</numchannels>
														<downmix>0</downmix>
														<channel>
															<index>1</index>
														</channel>
													</group>
													<group>
														<index>2</index>
														<numchannels>1</numchannels>
														<downmix>0</downmix>
														<channel>
															<index>2</index>
														</channel>
													</group>
												</outputs>
												<track TL.SQTrackAudioKeyframeStyle="0" TL.SQTrackShy="0" TL.SQTrackExpandedHeight="25" TL.SQTrackExpanded="0" MZ.TrackTargeted="1" PannerCurrentValue="0.5" PannerIsInverted="true" PannerStartKeyframe="-91445760000000000,0.5,0,0,0,0,0,0" PannerName="Balance" currentExplodedTrackIndex="0" totalExplodedTrackCount="2" premiereTrackType="Stereo">
													<enabled>TRUE</enabled>
													<locked>FALSE</locked>
													<filter>
														<effect>
															<name>Audio Levels</name>
															<effectid>audiolevels</effectid>
															<effectcategory>audiolevels</effectcategory>
															<effecttype>audiolevels</effecttype>
															<mediatype>audio</mediatype>
															<parameter authoringApp="PremierePro">
																<parameterid>level</parameterid>
																<name>Level</name>
																<valuemin>0</valuemin>
																<valuemax>3.98109</valuemax>
																<value>0.706272</value>
															</parameter>
														</effect>
													</filter>
													<outputchannelindex>1</outputchannelindex>
												</track>
												<track TL.SQTrackAudioKeyframeStyle="0" TL.SQTrackShy="0" TL.SQTrackExpandedHeight="25" TL.SQTrackExpanded="0" MZ.TrackTargeted="1" PannerCurrentValue="0.5" PannerIsInverted="true" PannerStartKeyframe="-91445760000000000,0.5,0,0,0,0,0,0" PannerName="Balance" currentExplodedTrackIndex="1" totalExplodedTrackCount="2" premiereTrackType="Stereo">
													<enabled>TRUE</enabled>
													<locked>FALSE</locked>
													<filter>
														<effect>
															<name>Audio Levels</name>
															<effectid>audiolevels</effectid>
															<effectcategory>audiolevels</effectcategory>
															<effecttype>audiolevels</effecttype>
															<mediatype>audio</mediatype>
															<parameter authoringApp="PremierePro">
																<parameterid>level</parameterid>
																<name>Level</name>
																<valuemin>0</valuemin>
																<valuemax>3.98109</valuemax>
																<value>0.706272</value>
															</parameter>
														</effect>
													</filter>
													<outputchannelindex>2</outputchannelindex>
												</track>
											</audio>
										</media>
										<timecode>
											<rate>
												<timebase>30</timebase>
												<ntsc>TRUE</ntsc>
											</rate>
											<string>00:00:00:00</string>
											<frame>0</frame>
											<displayformat>NDF</displayformat>
										</timecode>
										<labels>
											<label2>Forest</label2>
										</labels>
										<logginginfo>
											<description></description>
											<scene></scene>
											<shottake></shottake>
											<lognote></lognote>
											<good></good>
											<originalvideofilename></originalvideofilename>
											<originalaudiofilename></originalaudiofilename>
										</logginginfo>
									</sequence>
									<sequence id="sequence-47" TL.SQAudioVisibleBase="0" TL.SQVideoVisibleBase="0" TL.SQVisibleBaseTime="0" TL.SQAVDividerPosition="0.5" TL.SQHideShyTracks="0" TL.SQHeaderWidth="236" Monitor.ProgramZoomOut="13578018854400" Monitor.ProgramZoomIn="0" TL.SQTimePerPixel="0.13818516812528672" AM.TrackVScrollPosition="0" AM.TrackScrollPosition="0" MZ.EditLine="7187365785600" MZ.Sequence.PreviewFrameSizeHeight="1080" MZ.Sequence.PreviewFrameSizeWidth="1920" MZ.Sequence.AudioTimeDisplayFormat="200" MZ.Sequence.PreviewRenderingClassID="1297106761" MZ.Sequence.PreviewRenderingPresetCodec="1297107278" MZ.Sequence.PreviewRenderingPresetPath="EncoderPresets/SequencePreview/795454d9-d3c2-429d-9474-923ab13b7018/I-Frame Only MPEG.epr" MZ.Sequence.PreviewUseMaxRenderQuality="false" MZ.Sequence.PreviewUseMaxBitDepth="false" MZ.Sequence.EditingModeGUID="795454d9-d3c2-429d-9474-923ab13b7018" MZ.Sequence.VideoTimeDisplayFormat="103" MZ.WorkOutPoint="13578018854400" MZ.WorkInPoint="0" explodedTracks="true">
										<uuid>a94c0183-c755-4826-beb7-6a982f57244e</uuid>
										<duration>1602</duration>
										<rate>
											<timebase>30</timebase>
											<ntsc>TRUE</ntsc>
										</rate>
										<out>1602</out>
										<name>FND_frenchtoast_1</name>
										<media>
											<video>
												<format>
													<samplecharacteristics>
														<rate>
															<timebase>30</timebase>
															<ntsc>TRUE</ntsc>
														</rate>
														<codec>
															<name>Apple ProRes 422</name>
															<appspecificdata>
																<appname>Final Cut Pro</appname>
																<appmanufacturer>Apple Inc.</appmanufacturer>
																<appversion>7.0</appversion>
																<data>
																	<qtcodec>
																		<codecname>Apple ProRes 422</codecname>
																		<codectypename>Apple ProRes 422</codectypename>
																		<codectypecode>apcn</codectypecode>
																		<codecvendorcode>appl</codecvendorcode>
																		<spatialquality>1024</spatialquality>
																		<temporalquality>0</temporalquality>
																		<keyframerate>0</keyframerate>
																		<datarate>0</datarate>
																	</qtcodec>
																</data>
															</appspecificdata>
														</codec>
														<width>1920</width>
														<height>1080</height>
														<anamorphic>FALSE</anamorphic>
														<pixelaspectratio>square</pixelaspectratio>
														<fielddominance>none</fielddominance>
														<colordepth>24</colordepth>
													</samplecharacteristics>
												</format>
												<track TL.SQTrackShy="0" TL.SQTrackExpandedHeight="25" TL.SQTrackExpanded="0" MZ.TrackTargeted="1">
													<clipitem id="clipitem-362">
														<masterclipid>masterclip-143</masterclipid>
														<name>toastnest</name>
														<enabled>TRUE</enabled>
														<duration>5844</duration>
														<rate>
															<timebase>30</timebase>
															<ntsc>TRUE</ntsc>
														</rate>
														<start>0</start>
														<end>1602</end>
														<in>0</in>
														<out>1602</out>
														<pproTicksIn>0</pproTicksIn>
														<pproTicksOut>13578018854400</pproTicksOut>
														<sequence id="sequence-22"/>
														<filter>
															<effect>
																<name>Basic Motion</name>
																<effectid>basic</effectid>
																<effectcategory>motion</effectcategory>
																<effecttype>motion</effecttype>
																<mediatype>video</mediatype>
																<pproBypass>false</pproBypass>
																<parameter authoringApp="PremierePro">
																	<parameterid>scale</parameterid>
																	<name>Scale</name>
																	<valuemin>0</valuemin>
																	<valuemax>1000</valuemax>
																	<value>200</value>
																</parameter>
																<parameter authoringApp="PremierePro">
																	<parameterid>rotation</parameterid>
																	<name>Rotation</name>
																	<valuemin>-8640</valuemin>
																	<valuemax>8640</valuemax>
																	<value>0</value>
																</parameter>
																<parameter authoringApp="PremierePro">
																	<parameterid>center</parameterid>
																	<name>Center</name>
																	<value>
																		<horiz>-0.5</horiz>
																		<vert>-0.5</vert>
																	</value>
																</parameter>
																<parameter authoringApp="PremierePro">
																	<parameterid>centerOffset</parameterid>
																	<name>Anchor Point</name>
																	<value>
																		<horiz>0</horiz>
																		<vert>0</vert>
																	</value>
																</parameter>
																<parameter authoringApp="PremierePro">
																	<parameterid>antiflicker</parameterid>
																	<name>Anti-flicker Filter</name>
																	<valuemin>0.0</valuemin>
																	<valuemax>1.0</valuemax>
																	<value>0</value>
																</parameter>
															</effect>
														</filter>
														<filter>
															<effect>
																<name>Gaussian Blur</name>
																<effectid>Gaussian Blur</effectid>
																<effectcategory>Blur</effectcategory>
																<effecttype>motion</effecttype>
																<mediatype>video</mediatype>
																<pproBypass>false</pproBypass>
																<parameter authoringApp="PremierePro">
																	<parameterid>radius</parameterid>
																	<name>Radius</name>
																	<valuemin>0</valuemin>
																	<valuemax>100</valuemax>
																	<value>150</value>
																</parameter>
															</effect>
														</filter>
														<labels>
															<label2>Forest</label2>
														</labels>
													</clipitem>
													<enabled>TRUE</enabled>
													<locked>FALSE</locked>
												</track>
												<track TL.SQTrackShy="0" TL.SQTrackExpandedHeight="25" TL.SQTrackExpanded="0" MZ.TrackTargeted="0">
													<clipitem id="clipitem-363">
														<masterclipid>masterclip-143</masterclipid>
														<name>toastnest</name>
														<enabled>TRUE</enabled>
														<duration>5844</duration>
														<rate>
															<timebase>30</timebase>
															<ntsc>TRUE</ntsc>
														</rate>
														<start>0</start>
														<end>1602</end>
														<in>0</in>
														<out>1602</out>
														<pproTicksIn>0</pproTicksIn>
														<pproTicksOut>13578018854400</pproTicksOut>
														<sequence id="sequence-22"/>
														<labels>
															<label2>Forest</label2>
														</labels>
													</clipitem>
													<enabled>TRUE</enabled>
													<locked>FALSE</locked>
												</track>
												<track TL.SQTrackShy="0" TL.SQTrackExpandedHeight="25" TL.SQTrackExpanded="0" MZ.TrackTargeted="0">
													<clipitem id="clipitem-364">
														<masterclipid>masterclip-89</masterclipid>
														<name>viviannecafe</name>
														<enabled>TRUE</enabled>
														<duration>5844</duration>
														<rate>
															<timebase>30</timebase>
															<ntsc>TRUE</ntsc>
														</rate>
														<start>0</start>
														<end>1197</end>
														<in>0</in>
														<out>1197</out>
														<pproTicksIn>0</pproTicksIn>
														<pproTicksOut>10145373638400</pproTicksOut>
														<alphatype>straight</alphatype>
														<file id="file-89"/>
														<filter>
															<effect>
																<name>Basic Motion</name>
																<effectid>basic</effectid>
																<effectcategory>motion</effectcategory>
																<effecttype>motion</effecttype>
																<mediatype>video</mediatype>
																<pproBypass>false</pproBypass>
																<parameter authoringApp="PremierePro">
																	<parameterid>scale</parameterid>
																	<name>Scale</name>
																	<valuemin>0</valuemin>
																	<valuemax>1000</valuemax>
																	<value>150</value>
																</parameter>
																<parameter authoringApp="PremierePro">
																	<parameterid>rotation</parameterid>
																	<name>Rotation</name>
																	<valuemin>-8640</valuemin>
																	<valuemax>8640</valuemax>
																	<value>0</value>
																</parameter>
																<parameter authoringApp="PremierePro">
																	<parameterid>center</parameterid>
																	<name>Center</name>
																	<value>
																		<horiz>0</horiz>
																		<vert>0</vert>
																	</value>
																</parameter>
																<parameter authoringApp="PremierePro">
																	<parameterid>centerOffset</parameterid>
																	<name>Anchor Point</name>
																	<value>
																		<horiz>0</horiz>
																		<vert>0</vert>
																	</value>
																</parameter>
																<parameter authoringApp="PremierePro">
																	<parameterid>antiflicker</parameterid>
																	<name>Anti-flicker Filter</name>
																	<valuemin>0.0</valuemin>
																	<valuemax>1.0</valuemax>
																	<value>0</value>
																</parameter>
															</effect>
														</filter>
														<logginginfo>
															<description></description>
															<scene></scene>
															<shottake></shottake>
															<lognote></lognote>
															<good></good>
															<originalvideofilename></originalvideofilename>
															<originalaudiofilename></originalaudiofilename>
														</logginginfo>
														<colorinfo>
															<lut></lut>
															<lut1></lut1>
															<asc_sop></asc_sop>
															<asc_sat></asc_sat>
															<lut2></lut2>
														</colorinfo>
														<labels>
															<label2>Rose</label2>
														</labels>
													</clipitem>
													<clipitem id="clipitem-365">
														<masterclipid>masterclip-39</masterclipid>
														<name>hangryblogger</name>
														<enabled>TRUE</enabled>
														<duration>5844</duration>
														<rate>
															<timebase>30</timebase>
															<ntsc>TRUE</ntsc>
														</rate>
														<start>1197</start>
														<end>1602</end>
														<in>0</in>
														<out>405</out>
														<pproTicksIn>0</pproTicksIn>
														<pproTicksOut>3432645216000</pproTicksOut>
														<alphatype>straight</alphatype>
														<file id="file-39"/>
														<filter>
															<effect>
																<name>Basic Motion</name>
																<effectid>basic</effectid>
																<effectcategory>motion</effectcategory>
																<effecttype>motion</effecttype>
																<mediatype>video</mediatype>
																<pproBypass>false</pproBypass>
																<parameter authoringApp="PremierePro">
																	<parameterid>scale</parameterid>
																	<name>Scale</name>
																	<valuemin>0</valuemin>
																	<valuemax>1000</valuemax>
																	<value>150</value>
																</parameter>
																<parameter authoringApp="PremierePro">
																	<parameterid>rotation</parameterid>
																	<name>Rotation</name>
																	<valuemin>-8640</valuemin>
																	<valuemax>8640</valuemax>
																	<value>0</value>
																</parameter>
																<parameter authoringApp="PremierePro">
																	<parameterid>center</parameterid>
																	<name>Center</name>
																	<value>
																		<horiz>0</horiz>
																		<vert>0</vert>
																	</value>
																</parameter>
																<parameter authoringApp="PremierePro">
																	<parameterid>centerOffset</parameterid>
																	<name>Anchor Point</name>
																	<value>
																		<horiz>0</horiz>
																		<vert>0</vert>
																	</value>
																</parameter>
																<parameter authoringApp="PremierePro">
																	<parameterid>antiflicker</parameterid>
																	<name>Anti-flicker Filter</name>
																	<valuemin>0.0</valuemin>
																	<valuemax>1.0</valuemax>
																	<value>0</value>
																</parameter>
															</effect>
														</filter>
														<logginginfo>
															<description></description>
															<scene></scene>
															<shottake></shottake>
															<lognote></lognote>
															<good></good>
															<originalvideofilename></originalvideofilename>
															<originalaudiofilename></originalaudiofilename>
														</logginginfo>
														<colorinfo>
															<lut></lut>
															<lut1></lut1>
															<asc_sop></asc_sop>
															<asc_sat></asc_sat>
															<lut2></lut2>
														</colorinfo>
														<labels>
															<label2>Rose</label2>
														</labels>
													</clipitem>
													<enabled>TRUE</enabled>
													<locked>FALSE</locked>
												</track>
												<track TL.SQTrackShy="0" TL.SQTrackExpandedHeight="25" TL.SQTrackExpanded="0" MZ.TrackTargeted="0">
													<clipitem id="clipitem-366">
														<masterclipid>masterclip-106</masterclipid>
														<name>Bug and Lower Nest</name>
														<enabled>TRUE</enabled>
														<duration>14721</duration>
														<rate>
															<timebase>30</timebase>
															<ntsc>TRUE</ntsc>
														</rate>
														<start>0</start>
														<end>1602</end>
														<in>0</in>
														<out>1602</out>
														<pproTicksIn>0</pproTicksIn>
														<pproTicksOut>13578018854400</pproTicksOut>
														<sequence id="sequence-1"/>
														<labels>
															<label2>Cerulean</label2>
														</labels>
													</clipitem>
													<enabled>TRUE</enabled>
													<locked>FALSE</locked>
												</track>
											</video>
											<audio>
												<numOutputChannels>2</numOutputChannels>
												<format>
													<samplecharacteristics>
														<depth>16</depth>
														<samplerate>44100</samplerate>
													</samplecharacteristics>
												</format>
												<outputs>
													<group>
														<index>1</index>
														<numchannels>1</numchannels>
														<downmix>0</downmix>
														<channel>
															<index>1</index>
														</channel>
													</group>
													<group>
														<index>2</index>
														<numchannels>1</numchannels>
														<downmix>0</downmix>
														<channel>
															<index>2</index>
														</channel>
													</group>
												</outputs>
												<track TL.SQTrackAudioKeyframeStyle="0" TL.SQTrackShy="0" TL.SQTrackExpandedHeight="25" TL.SQTrackExpanded="0" MZ.TrackTargeted="1" PannerCurrentValue="0.5" PannerIsInverted="true" PannerStartKeyframe="-91445760000000000,0.5,0,0,0,0,0,0" PannerName="Balance" currentExplodedTrackIndex="0" totalExplodedTrackCount="2" premiereTrackType="Stereo">
													<enabled>TRUE</enabled>
													<locked>FALSE</locked>
													<filter>
														<effect>
															<name>Audio Levels</name>
															<effectid>audiolevels</effectid>
															<effectcategory>audiolevels</effectcategory>
															<effecttype>audiolevels</effecttype>
															<mediatype>audio</mediatype>
															<parameter authoringApp="PremierePro">
																<parameterid>level</parameterid>
																<name>Level</name>
																<valuemin>0</valuemin>
																<valuemax>3.98109</valuemax>
																<value>0.706272</value>
															</parameter>
														</effect>
													</filter>
													<outputchannelindex>1</outputchannelindex>
												</track>
												<track TL.SQTrackAudioKeyframeStyle="0" TL.SQTrackShy="0" TL.SQTrackExpandedHeight="25" TL.SQTrackExpanded="0" MZ.TrackTargeted="1" PannerCurrentValue="0.5" PannerIsInverted="true" PannerStartKeyframe="-91445760000000000,0.5,0,0,0,0,0,0" PannerName="Balance" currentExplodedTrackIndex="1" totalExplodedTrackCount="2" premiereTrackType="Stereo">
													<enabled>TRUE</enabled>
													<locked>FALSE</locked>
													<filter>
														<effect>
															<name>Audio Levels</name>
															<effectid>audiolevels</effectid>
															<effectcategory>audiolevels</effectcategory>
															<effecttype>audiolevels</effecttype>
															<mediatype>audio</mediatype>
															<parameter authoringApp="PremierePro">
																<parameterid>level</parameterid>
																<name>Level</name>
																<valuemin>0</valuemin>
																<valuemax>3.98109</valuemax>
																<value>0.706272</value>
															</parameter>
														</effect>
													</filter>
													<outputchannelindex>2</outputchannelindex>
												</track>
											</audio>
										</media>
										<timecode>
											<rate>
												<timebase>30</timebase>
												<ntsc>TRUE</ntsc>
											</rate>
											<string>00:00:00:00</string>
											<frame>0</frame>
											<displayformat>NDF</displayformat>
										</timecode>
										<labels>
											<label2>Forest</label2>
										</labels>
										<logginginfo>
											<description></description>
											<scene></scene>
											<shottake></shottake>
											<lognote></lognote>
											<good></good>
											<originalvideofilename></originalvideofilename>
											<originalaudiofilename></originalaudiofilename>
										</logginginfo>
									</sequence>
									<sequence id="sequence-48" TL.SQAudioVisibleBase="0" TL.SQVideoVisibleBase="0" TL.SQVisibleBaseTime="0" TL.SQAVDividerPosition="0.5" TL.SQHideShyTracks="0" TL.SQHeaderWidth="236" Monitor.ProgramZoomOut="23672538489600" Monitor.ProgramZoomIn="0" TL.SQTimePerPixel="0.13818516812528672" AM.TrackVScrollPosition="0" AM.TrackScrollPosition="0" MZ.EditLine="2347759814400" MZ.Sequence.PreviewFrameSizeHeight="1080" MZ.Sequence.PreviewFrameSizeWidth="1920" MZ.Sequence.AudioTimeDisplayFormat="200" MZ.Sequence.PreviewRenderingClassID="1297106761" MZ.Sequence.PreviewRenderingPresetCodec="1297107278" MZ.Sequence.PreviewRenderingPresetPath="EncoderPresets/SequencePreview/795454d9-d3c2-429d-9474-923ab13b7018/I-Frame Only MPEG.epr" MZ.Sequence.PreviewUseMaxRenderQuality="false" MZ.Sequence.PreviewUseMaxBitDepth="false" MZ.Sequence.EditingModeGUID="795454d9-d3c2-429d-9474-923ab13b7018" MZ.Sequence.VideoTimeDisplayFormat="103" MZ.WorkOutPoint="23672538489600" MZ.WorkInPoint="0" explodedTracks="true">
										<uuid>4a7b7145-ce0e-4ec1-8467-3d7e8bac58b7</uuid>
										<duration>2793</duration>
										<rate>
											<timebase>30</timebase>
											<ntsc>TRUE</ntsc>
										</rate>
										<name>SAT_the sting Crafty unbranded_1.5</name>
										<media>
											<video>
												<format>
													<samplecharacteristics>
														<rate>
															<timebase>30</timebase>
															<ntsc>TRUE</ntsc>
														</rate>
														<codec>
															<name>Apple ProRes 422</name>
															<appspecificdata>
																<appname>Final Cut Pro</appname>
																<appmanufacturer>Apple Inc.</appmanufacturer>
																<appversion>7.0</appversion>
																<data>
																	<qtcodec>
																		<codecname>Apple ProRes 422</codecname>
																		<codectypename>Apple ProRes 422</codectypename>
																		<codectypecode>apcn</codectypecode>
																		<codecvendorcode>appl</codecvendorcode>
																		<spatialquality>1024</spatialquality>
																		<temporalquality>0</temporalquality>
																		<keyframerate>0</keyframerate>
																		<datarate>0</datarate>
																	</qtcodec>
																</data>
															</appspecificdata>
														</codec>
														<width>1920</width>
														<height>1080</height>
														<anamorphic>FALSE</anamorphic>
														<pixelaspectratio>square</pixelaspectratio>
														<fielddominance>none</fielddominance>
														<colordepth>24</colordepth>
													</samplecharacteristics>
												</format>
												<track TL.SQTrackShy="0" TL.SQTrackExpandedHeight="25" TL.SQTrackExpanded="0" MZ.TrackTargeted="1">
													<clipitem id="clipitem-367">
														<masterclipid>masterclip-144</masterclipid>
														<name>ART_THE_STING_1.5_CRAFTY.mp4</name>
														<enabled>TRUE</enabled>
														<duration>2793</duration>
														<rate>
															<timebase>30</timebase>
															<ntsc>TRUE</ntsc>
														</rate>
														<start>0</start>
														<end>2793</end>
														<in>0</in>
														<out>2793</out>
														<pproTicksIn>0</pproTicksIn>
														<pproTicksOut>23672538489600</pproTicksOut>
														<alphatype>none</alphatype>
														<pixelaspectratio>square</pixelaspectratio>
														<anamorphic>FALSE</anamorphic>
														<file id="file-139">
															<name>ART_THE_STING_1.5_CRAFTY.mp4</name>
															<pathurl>file://localhost/Volumes/Satisfactum%20Satisfactorum/03_Weekly%20(Project%20Files,%20Main%20Segments)/OSTV/OSTV%2023-08-28/3_Raw%20Files/ART_THE_STING_1.5_CRAFTY.mp4</pathurl>
															<rate>
																<timebase>30</timebase>
																<ntsc>TRUE</ntsc>
															</rate>
															<duration>2793</duration>
															<timecode>
																<rate>
																	<timebase>30</timebase>
																	<ntsc>TRUE</ntsc>
																</rate>
																<string>00;00;00;00</string>
																<frame>0</frame>
																<displayformat>DF</displayformat>
															</timecode>
															<media>
																<video>
																	<samplecharacteristics>
																		<rate>
																			<timebase>30</timebase>
																			<ntsc>TRUE</ntsc>
																		</rate>
																		<width>1920</width>
																		<height>1080</height>
																		<anamorphic>FALSE</anamorphic>
																		<pixelaspectratio>square</pixelaspectratio>
																		<fielddominance>none</fielddominance>
																	</samplecharacteristics>
																</video>
																<audio>
																	<samplecharacteristics>
																		<depth>16</depth>
																		<samplerate>32000</samplerate>
																	</samplecharacteristics>
																	<channelcount>2</channelcount>
																</audio>
															</media>
														</file>
														<logginginfo>
															<description></description>
															<scene></scene>
															<shottake></shottake>
															<lognote></lognote>
															<good></good>
															<originalvideofilename></originalvideofilename>
															<originalaudiofilename></originalaudiofilename>
														</logginginfo>
														<colorinfo>
															<lut></lut>
															<lut1></lut1>
															<asc_sop></asc_sop>
															<asc_sat></asc_sat>
															<lut2></lut2>
														</colorinfo>
														<labels>
															<label2>Iris</label2>
														</labels>
													</clipitem>
													<enabled>TRUE</enabled>
													<locked>FALSE</locked>
												</track>
												<track TL.SQTrackShy="0" TL.SQTrackExpandedHeight="25" TL.SQTrackExpanded="0" MZ.TrackTargeted="0">
													<clipitem id="clipitem-368">
														<masterclipid>masterclip-122</masterclipid>
														<name>Adjustment Layer</name>
														<enabled>TRUE</enabled>
														<duration>1294705</duration>
														<rate>
															<timebase>30</timebase>
															<ntsc>TRUE</ntsc>
														</rate>
														<start>0</start>
														<end>2793</end>
														<in>107892</in>
														<out>110685</out>
														<pproTicksIn>914456685542400</pproTicksIn>
														<pproTicksOut>938129224032000</pproTicksOut>
														<alphatype>none</alphatype>
														<file id="file-121"/>
														<filter>
															<effect>
																<name>Basic Motion</name>
																<effectid>basic</effectid>
																<effectcategory>motion</effectcategory>
																<effecttype>motion</effecttype>
																<mediatype>video</mediatype>
																<pproBypass>false</pproBypass>
																<parameter authoringApp="PremierePro">
																	<parameterid>scale</parameterid>
																	<name>Scale</name>
																	<valuemin>0</valuemin>
																	<valuemax>1000</valuemax>
																	<value>150</value>
																</parameter>
																<parameter authoringApp="PremierePro">
																	<parameterid>rotation</parameterid>
																	<name>Rotation</name>
																	<valuemin>-8640</valuemin>
																	<valuemax>8640</valuemax>
																	<value>0</value>
																</parameter>
																<parameter authoringApp="PremierePro">
																	<parameterid>center</parameterid>
																	<name>Center</name>
																	<value>
																		<horiz>0</horiz>
																		<vert>0</vert>
																	</value>
																</parameter>
																<parameter authoringApp="PremierePro">
																	<parameterid>centerOffset</parameterid>
																	<name>Anchor Point</name>
																	<value>
																		<horiz>0</horiz>
																		<vert>0</vert>
																	</value>
																</parameter>
																<parameter authoringApp="PremierePro">
																	<parameterid>antiflicker</parameterid>
																	<name>Anti-flicker Filter</name>
																	<valuemin>0.0</valuemin>
																	<valuemax>1.0</valuemax>
																	<value>0</value>
																</parameter>
															</effect>
														</filter>
														<filter>
															<effect>
																<name>Gaussian Blur</name>
																<effectid>Gaussian Blur</effectid>
																<effectcategory>Blur</effectcategory>
																<effecttype>motion</effecttype>
																<mediatype>video</mediatype>
																<pproBypass>false</pproBypass>
																<parameter authoringApp="PremierePro">
																	<parameterid>radius</parameterid>
																	<name>Radius</name>
																	<valuemin>0</valuemin>
																	<valuemax>100</valuemax>
																	<value>150</value>
																</parameter>
															</effect>
														</filter>
														<logginginfo>
															<description></description>
															<scene></scene>
															<shottake></shottake>
															<lognote></lognote>
															<good></good>
															<originalvideofilename></originalvideofilename>
															<originalaudiofilename></originalaudiofilename>
														</logginginfo>
														<colorinfo>
															<lut></lut>
															<lut1></lut1>
															<asc_sop></asc_sop>
															<asc_sat></asc_sat>
															<lut2></lut2>
														</colorinfo>
														<labels>
															<label2>Lavender</label2>
														</labels>
													</clipitem>
													<enabled>TRUE</enabled>
													<locked>FALSE</locked>
												</track>
												<track TL.SQTrackShy="0" TL.SQTrackExpandedHeight="25" TL.SQTrackExpanded="0" MZ.TrackTargeted="0">
													<clipitem id="clipitem-369">
														<masterclipid>masterclip-69</masterclipid>
														<name>Studio TEAL</name>
														<enabled>TRUE</enabled>
														<duration>5844</duration>
														<rate>
															<timebase>30</timebase>
															<ntsc>TRUE</ntsc>
														</rate>
														<start>0</start>
														<end>2793</end>
														<in>0</in>
														<out>2793</out>
														<pproTicksIn>0</pproTicksIn>
														<pproTicksOut>23672538489600</pproTicksOut>
														<alphatype>straight</alphatype>
														<file id="file-69"/>
														<filter>
															<effect>
																<name>Basic Motion</name>
																<effectid>basic</effectid>
																<effectcategory>motion</effectcategory>
																<effecttype>motion</effecttype>
																<mediatype>video</mediatype>
																<pproBypass>false</pproBypass>
																<parameter authoringApp="PremierePro">
																	<parameterid>scale</parameterid>
																	<name>Scale</name>
																	<valuemin>0</valuemin>
																	<valuemax>1000</valuemax>
																	<value>150</value>
																</parameter>
																<parameter authoringApp="PremierePro">
																	<parameterid>rotation</parameterid>
																	<name>Rotation</name>
																	<valuemin>-8640</valuemin>
																	<valuemax>8640</valuemax>
																	<value>0</value>
																</parameter>
																<parameter authoringApp="PremierePro">
																	<parameterid>center</parameterid>
																	<name>Center</name>
																	<value>
																		<horiz>0</horiz>
																		<vert>0</vert>
																	</value>
																</parameter>
																<parameter authoringApp="PremierePro">
																	<parameterid>centerOffset</parameterid>
																	<name>Anchor Point</name>
																	<value>
																		<horiz>0</horiz>
																		<vert>0</vert>
																	</value>
																</parameter>
																<parameter authoringApp="PremierePro">
																	<parameterid>antiflicker</parameterid>
																	<name>Anti-flicker Filter</name>
																	<valuemin>0.0</valuemin>
																	<valuemax>1.0</valuemax>
																	<value>0</value>
																</parameter>
															</effect>
														</filter>
														<logginginfo>
															<description></description>
															<scene></scene>
															<shottake></shottake>
															<lognote></lognote>
															<good></good>
															<originalvideofilename></originalvideofilename>
															<originalaudiofilename></originalaudiofilename>
														</logginginfo>
														<colorinfo>
															<lut></lut>
															<lut1></lut1>
															<asc_sop></asc_sop>
															<asc_sat></asc_sat>
															<lut2></lut2>
														</colorinfo>
														<labels>
															<label2>Rose</label2>
														</labels>
													</clipitem>
													<enabled>TRUE</enabled>
													<locked>FALSE</locked>
												</track>
												<track TL.SQTrackShy="0" TL.SQTrackExpandedHeight="25" TL.SQTrackExpanded="0" MZ.TrackTargeted="0">
													<clipitem id="clipitem-370">
														<masterclipid>masterclip-106</masterclipid>
														<name>Bug and Lower Nest</name>
														<enabled>TRUE</enabled>
														<duration>14721</duration>
														<rate>
															<timebase>30</timebase>
															<ntsc>TRUE</ntsc>
														</rate>
														<start>0</start>
														<end>2793</end>
														<in>0</in>
														<out>2793</out>
														<pproTicksIn>0</pproTicksIn>
														<pproTicksOut>23672538489600</pproTicksOut>
														<sequence id="sequence-1"/>
														<labels>
															<label2>Cerulean</label2>
														</labels>
													</clipitem>
													<enabled>TRUE</enabled>
													<locked>FALSE</locked>
												</track>
											</video>
											<audio>
												<numOutputChannels>2</numOutputChannels>
												<format>
													<samplecharacteristics>
														<depth>16</depth>
														<samplerate>44100</samplerate>
													</samplecharacteristics>
												</format>
												<outputs>
													<group>
														<index>1</index>
														<numchannels>1</numchannels>
														<downmix>0</downmix>
														<channel>
															<index>1</index>
														</channel>
													</group>
													<group>
														<index>2</index>
														<numchannels>1</numchannels>
														<downmix>0</downmix>
														<channel>
															<index>2</index>
														</channel>
													</group>
												</outputs>
												<track TL.SQTrackAudioKeyframeStyle="0" TL.SQTrackShy="0" TL.SQTrackExpandedHeight="25" TL.SQTrackExpanded="0" MZ.TrackTargeted="1" PannerCurrentValue="0.5" PannerIsInverted="true" PannerStartKeyframe="-91445760000000000,0.5,0,0,0,0,0,0" PannerName="Balance" currentExplodedTrackIndex="0" totalExplodedTrackCount="2" premiereTrackType="Stereo">
													<enabled>TRUE</enabled>
													<locked>FALSE</locked>
													<filter>
														<effect>
															<name>Audio Levels</name>
															<effectid>audiolevels</effectid>
															<effectcategory>audiolevels</effectcategory>
															<effecttype>audiolevels</effecttype>
															<mediatype>audio</mediatype>
															<parameter authoringApp="PremierePro">
																<parameterid>level</parameterid>
																<name>Level</name>
																<valuemin>0</valuemin>
																<valuemax>3.98109</valuemax>
																<value>0.706272</value>
															</parameter>
														</effect>
													</filter>
													<outputchannelindex>1</outputchannelindex>
												</track>
												<track TL.SQTrackAudioKeyframeStyle="0" TL.SQTrackShy="0" TL.SQTrackExpandedHeight="25" TL.SQTrackExpanded="0" MZ.TrackTargeted="1" PannerCurrentValue="0.5" PannerIsInverted="true" PannerStartKeyframe="-91445760000000000,0.5,0,0,0,0,0,0" PannerName="Balance" currentExplodedTrackIndex="1" totalExplodedTrackCount="2" premiereTrackType="Stereo">
													<enabled>TRUE</enabled>
													<locked>FALSE</locked>
													<filter>
														<effect>
															<name>Audio Levels</name>
															<effectid>audiolevels</effectid>
															<effectcategory>audiolevels</effectcategory>
															<effecttype>audiolevels</effecttype>
															<mediatype>audio</mediatype>
															<parameter authoringApp="PremierePro">
																<parameterid>level</parameterid>
																<name>Level</name>
																<valuemin>0</valuemin>
																<valuemax>3.98109</valuemax>
																<value>0.706272</value>
															</parameter>
														</effect>
													</filter>
													<outputchannelindex>2</outputchannelindex>
												</track>
											</audio>
										</media>
										<timecode>
											<rate>
												<timebase>30</timebase>
												<ntsc>TRUE</ntsc>
											</rate>
											<string>00:00:00:00</string>
											<frame>0</frame>
											<displayformat>NDF</displayformat>
										</timecode>
										<labels>
											<label2>Forest</label2>
										</labels>
										<logginginfo>
											<description></description>
											<scene></scene>
											<shottake></shottake>
											<lognote></lognote>
											<good></good>
											<originalvideofilename></originalvideofilename>
											<originalaudiofilename></originalaudiofilename>
										</logginginfo>
									</sequence>
									<sequence id="sequence-49" TL.SQAudioVisibleBase="0" TL.SQVideoVisibleBase="0" TL.SQVisibleBaseTime="0" TL.SQAVDividerPosition="0.5" TL.SQHideShyTracks="0" TL.SQHeaderWidth="236" TL.SQDataTrackViewControlState="0" Monitor.ProgramZoomOut="22969058112000" Monitor.ProgramZoomIn="0" TL.SQTimePerPixel="0.13818516812528672" AM.TrackVScrollPosition="0" AM.TrackScrollPosition="0" MZ.EditLine="2152819468800" MZ.Sequence.PreviewFrameSizeHeight="1080" MZ.Sequence.PreviewFrameSizeWidth="1920" MZ.Sequence.AudioTimeDisplayFormat="200" MZ.Sequence.PreviewRenderingClassID="1297106761" MZ.Sequence.PreviewRenderingPresetCodec="1297107278" MZ.Sequence.PreviewRenderingPresetPath="EncoderPresets/SequencePreview/795454d9-d3c2-429d-9474-923ab13b7018/I-Frame Only MPEG.epr" MZ.Sequence.PreviewUseMaxRenderQuality="false" MZ.Sequence.PreviewUseMaxBitDepth="false" MZ.Sequence.EditingModeGUID="795454d9-d3c2-429d-9474-923ab13b7018" MZ.Sequence.VideoTimeDisplayFormat="103" MZ.WorkOutPoint="22969058112000" MZ.WorkInPoint="0" explodedTracks="true">
										<uuid>e6831bef-bde7-4635-85e5-1a3f09365f59</uuid>
										<duration>2710</duration>
										<rate>
											<timebase>30</timebase>
											<ntsc>TRUE</ntsc>
										</rate>
										<out>2710</out>
										<name>SAT_slime_1.5</name>
										<media>
											<video>
												<format>
													<samplecharacteristics>
														<rate>
															<timebase>30</timebase>
															<ntsc>TRUE</ntsc>
														</rate>
														<codec>
															<name>Apple ProRes 422</name>
															<appspecificdata>
																<appname>Final Cut Pro</appname>
																<appmanufacturer>Apple Inc.</appmanufacturer>
																<appversion>7.0</appversion>
																<data>
																	<qtcodec>
																		<codecname>Apple ProRes 422</codecname>
																		<codectypename>Apple ProRes 422</codectypename>
																		<codectypecode>apcn</codectypecode>
																		<codecvendorcode>appl</codecvendorcode>
																		<spatialquality>1024</spatialquality>
																		<temporalquality>0</temporalquality>
																		<keyframerate>0</keyframerate>
																		<datarate>0</datarate>
																	</qtcodec>
																</data>
															</appspecificdata>
														</codec>
														<width>1920</width>
														<height>1080</height>
														<anamorphic>FALSE</anamorphic>
														<pixelaspectratio>square</pixelaspectratio>
														<fielddominance>none</fielddominance>
														<colordepth>24</colordepth>
													</samplecharacteristics>
												</format>
												<track TL.SQTrackShy="0" TL.SQTrackExpandedHeight="25" TL.SQTrackExpanded="0" MZ.TrackTargeted="1">
													<clipitem id="clipitem-371">
														<masterclipid>masterclip-145</masterclipid>
														<name>SLIME SHOP RESTOCK! OCT 19 @SQUISHYBUNNII (1080p_30fps_H264-128kbit_AAC)_Squishybunnii.mp4</name>
														<enabled>TRUE</enabled>
														<duration>21385</duration>
														<rate>
															<timebase>30</timebase>
															<ntsc>TRUE</ntsc>
														</rate>
														<start>0</start>
														<end>1576</end>
														<in>19057</in>
														<out>20633</out>
														<pproTicksIn>161520789830400</pproTicksIn>
														<pproTicksOut>174878441337600</pproTicksOut>
														<alphatype>none</alphatype>
														<pixelaspectratio>square</pixelaspectratio>
														<anamorphic>FALSE</anamorphic>
														<file id="file-140">
															<name>SLIME SHOP RESTOCK! OCT 19 @SQUISHYBUNNII (1080p_30fps_H264-128kbit_AAC)_Squishybunnii.mp4</name>
															<pathurl>file://localhost/Volumes/Satisfactum%20Satisfactorum/03_Weekly%20(Project%20Files,%20Main%20Segments)/OSTV/00_BACKUPS%20SLASH%20THE%20FUTURE/OSTV%2023-09-11/3_Raw%20Files/GDrive%20salvages/SLIME%20SHOP%20RESTOCK!%20OCT%2019%20@SQUISHYBUNNII%20(1080p_30fps_H264-128kbit_AAC)_Squishybunnii.mp4</pathurl>
															<rate>
																<timebase>30</timebase>
																<ntsc>FALSE</ntsc>
															</rate>
															<duration>21386</duration>
															<timecode>
																<rate>
																	<timebase>30</timebase>
																	<ntsc>FALSE</ntsc>
																</rate>
																<string>00:00:00:00</string>
																<frame>0</frame>
																<displayformat>NDF</displayformat>
															</timecode>
															<media>
																<video>
																	<samplecharacteristics>
																		<rate>
																			<timebase>30</timebase>
																			<ntsc>FALSE</ntsc>
																		</rate>
																		<width>1920</width>
																		<height>1080</height>
																		<anamorphic>FALSE</anamorphic>
																		<pixelaspectratio>square</pixelaspectratio>
																		<fielddominance>none</fielddominance>
																	</samplecharacteristics>
																</video>
																<audio>
																	<samplecharacteristics>
																		<depth>16</depth>
																		<samplerate>44100</samplerate>
																	</samplecharacteristics>
																	<channelcount>2</channelcount>
																</audio>
															</media>
														</file>
														<logginginfo>
															<description></description>
															<scene></scene>
															<shottake></shottake>
															<lognote>https://www.youtube.com/watch?v=JPeFQObgq54</lognote>
															<good></good>
															<originalvideofilename></originalvideofilename>
															<originalaudiofilename></originalaudiofilename>
														</logginginfo>
														<colorinfo>
															<lut></lut>
															<lut1></lut1>
															<asc_sop></asc_sop>
															<asc_sat></asc_sat>
															<lut2></lut2>
														</colorinfo>
														<labels>
															<label2>Iris</label2>
														</labels>
													</clipitem>
													<clipitem id="clipitem-372">
														<masterclipid>masterclip-146</masterclipid>
														<name>(fobs_slime)_BxDTAgPHefR_IG.mp4</name>
														<enabled>TRUE</enabled>
														<duration>1237</duration>
														<rate>
															<timebase>30</timebase>
															<ntsc>TRUE</ntsc>
														</rate>
														<start>1576</start>
														<end>2286</end>
														<in>62</in>
														<out>772</out>
														<pproTicksIn>525491366400</pproTicksIn>
														<pproTicksOut>6543215078400</pproTicksOut>
														<alphatype>none</alphatype>
														<pixelaspectratio>square</pixelaspectratio>
														<anamorphic>FALSE</anamorphic>
														<file id="file-141">
															<name>(fobs_slime)_BxDTAgPHefR_IG.mp4</name>
															<pathurl>file://localhost/Volumes/Satisfactum%20Satisfactorum/00_Hub%20World/3_Raw%20Files/Clip%20Providers/fobs_slime/(fobs_slime)_BxDTAgPHefR_IG.mp4</pathurl>
															<rate>
																<timebase>30</timebase>
																<ntsc>FALSE</ntsc>
															</rate>
															<duration>1239</duration>
															<timecode>
																<rate>
																	<timebase>30</timebase>
																	<ntsc>FALSE</ntsc>
																</rate>
																<string>00:00:00:00</string>
																<frame>0</frame>
																<displayformat>NDF</displayformat>
															</timecode>
															<media>
																<video>
																	<samplecharacteristics>
																		<rate>
																			<timebase>30</timebase>
																			<ntsc>FALSE</ntsc>
																		</rate>
																		<width>720</width>
																		<height>720</height>
																		<anamorphic>FALSE</anamorphic>
																		<pixelaspectratio>square</pixelaspectratio>
																		<fielddominance>none</fielddominance>
																	</samplecharacteristics>
																</video>
																<audio>
																	<samplecharacteristics>
																		<depth>16</depth>
																		<samplerate>44100</samplerate>
																	</samplecharacteristics>
																	<channelcount>2</channelcount>
																</audio>
															</media>
														</file>
														<filter>
															<effect>
																<name>Basic Motion</name>
																<effectid>basic</effectid>
																<effectcategory>motion</effectcategory>
																<effecttype>motion</effecttype>
																<mediatype>video</mediatype>
																<pproBypass>false</pproBypass>
																<parameter authoringApp="PremierePro">
																	<parameterid>scale</parameterid>
																	<name>Scale</name>
																	<valuemin>0</valuemin>
																	<valuemax>1000</valuemax>
																	<value>199</value>
																</parameter>
																<parameter authoringApp="PremierePro">
																	<parameterid>rotation</parameterid>
																	<name>Rotation</name>
																	<valuemin>-8640</valuemin>
																	<valuemax>8640</valuemax>
																	<value>0</value>
																</parameter>
																<parameter authoringApp="PremierePro">
																	<parameterid>center</parameterid>
																	<name>Center</name>
																	<value>
																		<horiz>0</horiz>
																		<vert>0</vert>
																	</value>
																</parameter>
																<parameter authoringApp="PremierePro">
																	<parameterid>centerOffset</parameterid>
																	<name>Anchor Point</name>
																	<value>
																		<horiz>0</horiz>
																		<vert>0</vert>
																	</value>
																</parameter>
																<parameter authoringApp="PremierePro">
																	<parameterid>antiflicker</parameterid>
																	<name>Anti-flicker Filter</name>
																	<valuemin>0.0</valuemin>
																	<valuemax>1.0</valuemax>
																	<value>0</value>
																</parameter>
															</effect>
														</filter>
														<filter>
															<effect>
																<name>Gaussian Blur</name>
																<effectid>Gaussian Blur</effectid>
																<effectcategory>Blur</effectcategory>
																<effecttype>motion</effecttype>
																<mediatype>video</mediatype>
																<pproBypass>false</pproBypass>
																<parameter authoringApp="PremierePro">
																	<parameterid>radius</parameterid>
																	<name>Radius</name>
																	<valuemin>0</valuemin>
																	<valuemax>100</valuemax>
																	<value>150</value>
																</parameter>
															</effect>
														</filter>
														<logginginfo>
															<description></description>
															<scene></scene>
															<shottake></shottake>
															<lognote></lognote>
															<good></good>
															<originalvideofilename></originalvideofilename>
															<originalaudiofilename></originalaudiofilename>
														</logginginfo>
														<colorinfo>
															<lut></lut>
															<lut1></lut1>
															<asc_sop></asc_sop>
															<asc_sat></asc_sat>
															<lut2></lut2>
														</colorinfo>
														<labels>
															<label2>Iris</label2>
														</labels>
													</clipitem>
													<clipitem id="clipitem-373">
														<masterclipid>masterclip-146</masterclipid>
														<name>(fobs_slime)_BxDTAgPHefR_IG.mp4</name>
														<enabled>TRUE</enabled>
														<duration>1237</duration>
														<rate>
															<timebase>30</timebase>
															<ntsc>TRUE</ntsc>
														</rate>
														<start>2286</start>
														<end>2710</end>
														<in>813</in>
														<out>1237</out>
														<pproTicksIn>6890717433600</pproTicksIn>
														<pproTicksOut>10484400326400</pproTicksOut>
														<alphatype>none</alphatype>
														<file id="file-141"/>
														<filter>
															<effect>
																<name>Basic Motion</name>
																<effectid>basic</effectid>
																<effectcategory>motion</effectcategory>
																<effecttype>motion</effecttype>
																<mediatype>video</mediatype>
																<pproBypass>false</pproBypass>
																<parameter authoringApp="PremierePro">
																	<parameterid>scale</parameterid>
																	<name>Scale</name>
																	<valuemin>0</valuemin>
																	<valuemax>1000</valuemax>
																	<value>199</value>
																</parameter>
																<parameter authoringApp="PremierePro">
																	<parameterid>rotation</parameterid>
																	<name>Rotation</name>
																	<valuemin>-8640</valuemin>
																	<valuemax>8640</valuemax>
																	<value>0</value>
																</parameter>
																<parameter authoringApp="PremierePro">
																	<parameterid>center</parameterid>
																	<name>Center</name>
																	<value>
																		<horiz>0</horiz>
																		<vert>0</vert>
																	</value>
																</parameter>
																<parameter authoringApp="PremierePro">
																	<parameterid>centerOffset</parameterid>
																	<name>Anchor Point</name>
																	<value>
																		<horiz>0</horiz>
																		<vert>0</vert>
																	</value>
																</parameter>
																<parameter authoringApp="PremierePro">
																	<parameterid>antiflicker</parameterid>
																	<name>Anti-flicker Filter</name>
																	<valuemin>0.0</valuemin>
																	<valuemax>1.0</valuemax>
																	<value>0</value>
																</parameter>
															</effect>
														</filter>
														<filter>
															<effect>
																<name>Gaussian Blur</name>
																<effectid>Gaussian Blur</effectid>
																<effectcategory>Blur</effectcategory>
																<effecttype>motion</effecttype>
																<mediatype>video</mediatype>
																<pproBypass>false</pproBypass>
																<parameter authoringApp="PremierePro">
																	<parameterid>radius</parameterid>
																	<name>Radius</name>
																	<valuemin>0</valuemin>
																	<valuemax>100</valuemax>
																	<value>150</value>
																</parameter>
															</effect>
														</filter>
														<logginginfo>
															<description></description>
															<scene></scene>
															<shottake></shottake>
															<lognote></lognote>
															<good></good>
															<originalvideofilename></originalvideofilename>
															<originalaudiofilename></originalaudiofilename>
														</logginginfo>
														<colorinfo>
															<lut></lut>
															<lut1></lut1>
															<asc_sop></asc_sop>
															<asc_sat></asc_sat>
															<lut2></lut2>
														</colorinfo>
														<labels>
															<label2>Iris</label2>
														</labels>
													</clipitem>
													<enabled>TRUE</enabled>
													<locked>FALSE</locked>
												</track>
												<track TL.SQTrackShy="0" TL.SQTrackExpandedHeight="25" TL.SQTrackExpanded="0" MZ.TrackTargeted="0">
													<clipitem id="clipitem-374">
														<masterclipid>masterclip-146</masterclipid>
														<name>(fobs_slime)_BxDTAgPHefR_IG.mp4</name>
														<enabled>TRUE</enabled>
														<duration>1237</duration>
														<rate>
															<timebase>30</timebase>
															<ntsc>TRUE</ntsc>
														</rate>
														<start>1576</start>
														<end>2286</end>
														<in>62</in>
														<out>772</out>
														<pproTicksIn>525491366400</pproTicksIn>
														<pproTicksOut>6543215078400</pproTicksOut>
														<alphatype>none</alphatype>
														<file id="file-141"/>
														<link>
															<linkclipref>clipitem-374</linkclipref>
															<mediatype>video</mediatype>
															<trackindex>2</trackindex>
															<clipindex>1</clipindex>
														</link>
														<link>
															<linkclipref>clipitem-379</linkclipref>
															<mediatype>audio</mediatype>
															<trackindex>1</trackindex>
															<clipindex>2</clipindex>
															<groupindex>1</groupindex>
														</link>
														<link>
															<linkclipref>clipitem-381</linkclipref>
															<mediatype>audio</mediatype>
															<trackindex>2</trackindex>
															<clipindex>2</clipindex>
															<groupindex>1</groupindex>
														</link>
														<logginginfo>
															<description></description>
															<scene></scene>
															<shottake></shottake>
															<lognote></lognote>
															<good></good>
															<originalvideofilename></originalvideofilename>
															<originalaudiofilename></originalaudiofilename>
														</logginginfo>
														<colorinfo>
															<lut></lut>
															<lut1></lut1>
															<asc_sop></asc_sop>
															<asc_sat></asc_sat>
															<lut2></lut2>
														</colorinfo>
														<labels>
															<label2>Iris</label2>
														</labels>
													</clipitem>
													<clipitem id="clipitem-375">
														<masterclipid>masterclip-146</masterclipid>
														<name>(fobs_slime)_BxDTAgPHefR_IG.mp4</name>
														<enabled>TRUE</enabled>
														<duration>1237</duration>
														<rate>
															<timebase>30</timebase>
															<ntsc>TRUE</ntsc>
														</rate>
														<start>2286</start>
														<end>2710</end>
														<in>813</in>
														<out>1237</out>
														<pproTicksIn>6890717433600</pproTicksIn>
														<pproTicksOut>10484400326400</pproTicksOut>
														<alphatype>none</alphatype>
														<file id="file-141"/>
														<link>
															<linkclipref>clipitem-375</linkclipref>
															<mediatype>video</mediatype>
															<trackindex>2</trackindex>
															<clipindex>2</clipindex>
														</link>
														<link>
															<linkclipref>clipitem-380</linkclipref>
															<mediatype>audio</mediatype>
															<trackindex>1</trackindex>
															<clipindex>4</clipindex>
															<groupindex>1</groupindex>
														</link>
														<link>
															<linkclipref>clipitem-382</linkclipref>
															<mediatype>audio</mediatype>
															<trackindex>2</trackindex>
															<clipindex>4</clipindex>
															<groupindex>1</groupindex>
														</link>
														<logginginfo>
															<description></description>
															<scene></scene>
															<shottake></shottake>
															<lognote></lognote>
															<good></good>
															<originalvideofilename></originalvideofilename>
															<originalaudiofilename></originalaudiofilename>
														</logginginfo>
														<colorinfo>
															<lut></lut>
															<lut1></lut1>
															<asc_sop></asc_sop>
															<asc_sat></asc_sat>
															<lut2></lut2>
														</colorinfo>
														<labels>
															<label2>Iris</label2>
														</labels>
													</clipitem>
													<enabled>TRUE</enabled>
													<locked>FALSE</locked>
												</track>
												<track TL.SQTrackShy="0" TL.SQTrackExpandedHeight="25" TL.SQTrackExpanded="0" MZ.TrackTargeted="0">
													<clipitem id="clipitem-376">
														<masterclipid>masterclip-70</masterclipid>
														<name>squishy</name>
														<enabled>TRUE</enabled>
														<duration>5844</duration>
														<rate>
															<timebase>30</timebase>
															<ntsc>TRUE</ntsc>
														</rate>
														<start>0</start>
														<end>1576</end>
														<in>0</in>
														<out>1576</out>
														<pproTicksIn>0</pproTicksIn>
														<pproTicksOut>13357651507200</pproTicksOut>
														<alphatype>straight</alphatype>
														<file id="file-70"/>
														<filter>
															<effect>
																<name>Basic Motion</name>
																<effectid>basic</effectid>
																<effectcategory>motion</effectcategory>
																<effecttype>motion</effecttype>
																<mediatype>video</mediatype>
																<pproBypass>false</pproBypass>
																<parameter authoringApp="PremierePro">
																	<parameterid>scale</parameterid>
																	<name>Scale</name>
																	<valuemin>0</valuemin>
																	<valuemax>1000</valuemax>
																	<value>150</value>
																</parameter>
																<parameter authoringApp="PremierePro">
																	<parameterid>rotation</parameterid>
																	<name>Rotation</name>
																	<valuemin>-8640</valuemin>
																	<valuemax>8640</valuemax>
																	<value>0</value>
																</parameter>
																<parameter authoringApp="PremierePro">
																	<parameterid>center</parameterid>
																	<name>Center</name>
																	<value>
																		<horiz>0</horiz>
																		<vert>0</vert>
																	</value>
																</parameter>
																<parameter authoringApp="PremierePro">
																	<parameterid>centerOffset</parameterid>
																	<name>Anchor Point</name>
																	<value>
																		<horiz>0</horiz>
																		<vert>0</vert>
																	</value>
																</parameter>
																<parameter authoringApp="PremierePro">
																	<parameterid>antiflicker</parameterid>
																	<name>Anti-flicker Filter</name>
																	<valuemin>0.0</valuemin>
																	<valuemax>1.0</valuemax>
																	<value>0</value>
																</parameter>
															</effect>
														</filter>
														<logginginfo>
															<description></description>
															<scene></scene>
															<shottake></shottake>
															<lognote></lognote>
															<good></good>
															<originalvideofilename></originalvideofilename>
															<originalaudiofilename></originalaudiofilename>
														</logginginfo>
														<colorinfo>
															<lut></lut>
															<lut1></lut1>
															<asc_sop></asc_sop>
															<asc_sat></asc_sat>
															<lut2></lut2>
														</colorinfo>
														<labels>
															<label2>Rose</label2>
														</labels>
													</clipitem>
													<clipitem id="clipitem-377">
														<masterclipid>masterclip-40</masterclipid>
														<name>fobs_slime IG confirmed</name>
														<enabled>TRUE</enabled>
														<duration>5844</duration>
														<rate>
															<timebase>30</timebase>
															<ntsc>TRUE</ntsc>
														</rate>
														<start>1576</start>
														<end>2710</end>
														<in>0</in>
														<out>1134</out>
														<pproTicksIn>0</pproTicksIn>
														<pproTicksOut>9611406604800</pproTicksOut>
														<alphatype>straight</alphatype>
														<file id="file-40"/>
														<filter>
															<effect>
																<name>Basic Motion</name>
																<effectid>basic</effectid>
																<effectcategory>motion</effectcategory>
																<effecttype>motion</effecttype>
																<mediatype>video</mediatype>
																<pproBypass>false</pproBypass>
																<parameter authoringApp="PremierePro">
																	<parameterid>scale</parameterid>
																	<name>Scale</name>
																	<valuemin>0</valuemin>
																	<valuemax>1000</valuemax>
																	<value>150</value>
																</parameter>
																<parameter authoringApp="PremierePro">
																	<parameterid>rotation</parameterid>
																	<name>Rotation</name>
																	<valuemin>-8640</valuemin>
																	<valuemax>8640</valuemax>
																	<value>0</value>
																</parameter>
																<parameter authoringApp="PremierePro">
																	<parameterid>center</parameterid>
																	<name>Center</name>
																	<value>
																		<horiz>0</horiz>
																		<vert>0</vert>
																	</value>
																</parameter>
																<parameter authoringApp="PremierePro">
																	<parameterid>centerOffset</parameterid>
																	<name>Anchor Point</name>
																	<value>
																		<horiz>0</horiz>
																		<vert>0</vert>
																	</value>
																</parameter>
																<parameter authoringApp="PremierePro">
																	<parameterid>antiflicker</parameterid>
																	<name>Anti-flicker Filter</name>
																	<valuemin>0.0</valuemin>
																	<valuemax>1.0</valuemax>
																	<value>0</value>
																</parameter>
															</effect>
														</filter>
														<logginginfo>
															<description></description>
															<scene></scene>
															<shottake></shottake>
															<lognote></lognote>
															<good></good>
															<originalvideofilename></originalvideofilename>
															<originalaudiofilename></originalaudiofilename>
														</logginginfo>
														<colorinfo>
															<lut></lut>
															<lut1></lut1>
															<asc_sop></asc_sop>
															<asc_sat></asc_sat>
															<lut2></lut2>
														</colorinfo>
														<labels>
															<label2>Rose</label2>
														</labels>
													</clipitem>
													<enabled>TRUE</enabled>
													<locked>FALSE</locked>
												</track>
												<track TL.SQTrackShy="0" TL.SQTrackExpandedHeight="25" TL.SQTrackExpanded="0" MZ.TrackTargeted="0">
													<clipitem id="clipitem-378">
														<masterclipid>masterclip-106</masterclipid>
														<name>Bug and Lower Nest</name>
														<enabled>TRUE</enabled>
														<duration>14721</duration>
														<rate>
															<timebase>30</timebase>
															<ntsc>TRUE</ntsc>
														</rate>
														<start>0</start>
														<end>2710</end>
														<in>0</in>
														<out>2710</out>
														<pproTicksIn>0</pproTicksIn>
														<pproTicksOut>22969058112000</pproTicksOut>
														<sequence id="sequence-1"/>
														<labels>
															<label2>Cerulean</label2>
														</labels>
													</clipitem>
													<enabled>TRUE</enabled>
													<locked>FALSE</locked>
												</track>
											</video>
											<audio>
												<numOutputChannels>2</numOutputChannels>
												<format>
													<samplecharacteristics>
														<depth>16</depth>
														<samplerate>44100</samplerate>
													</samplecharacteristics>
												</format>
												<outputs>
													<group>
														<index>1</index>
														<numchannels>1</numchannels>
														<downmix>0</downmix>
														<channel>
															<index>1</index>
														</channel>
													</group>
													<group>
														<index>2</index>
														<numchannels>1</numchannels>
														<downmix>0</downmix>
														<channel>
															<index>2</index>
														</channel>
													</group>
												</outputs>
												<track TL.SQTrackAudioKeyframeStyle="0" TL.SQTrackShy="0" TL.SQTrackExpandedHeight="25" TL.SQTrackExpanded="0" MZ.TrackTargeted="1" PannerCurrentValue="0.5" PannerIsInverted="true" PannerStartKeyframe="-91445760000000000,0.5,0,0,0,0,0,0" PannerName="Balance" currentExplodedTrackIndex="0" totalExplodedTrackCount="2" premiereTrackType="Stereo">
													<transitionitem>
														<start>1576</start>
														<end>1606</end>
														<pproTicksIn>13357651507200</pproTicksIn>
														<pproTicksOut>13611921523200</pproTicksOut>
														<alignment>start-black</alignment>
														<cutPointTicks>0</cutPointTicks>
														<rate>
															<timebase>30</timebase>
															<ntsc>TRUE</ntsc>
														</rate>
														<effect>
															<name>Cross Fade (+3dB)</name>
															<effectid>KGAudioTransCrossFade3dB</effectid>
															<effecttype>transition</effecttype>
															<mediatype>audio</mediatype>
															<wipecode>0</wipecode>
															<wipeaccuracy>100</wipeaccuracy>
															<startratio>0</startratio>
															<endratio>1</endratio>
															<reverse>FALSE</reverse>
														</effect>
													</transitionitem>
													<clipitem id="clipitem-379" premiereChannelType="stereo">
														<masterclipid>masterclip-146</masterclipid>
														<name>(fobs_slime)_BxDTAgPHefR_IG.mp4</name>
														<enabled>TRUE</enabled>
														<duration>1237</duration>
														<rate>
															<timebase>30</timebase>
															<ntsc>TRUE</ntsc>
														</rate>
														<start>-1</start>
														<end>-1</end>
														<in>62</in>
														<out>787</out>
														<pproTicksIn>525491366400</pproTicksIn>
														<pproTicksOut>6670350086400</pproTicksOut>
														<file id="file-141"/>
														<sourcetrack>
															<mediatype>audio</mediatype>
															<trackindex>1</trackindex>
														</sourcetrack>
														<link>
															<linkclipref>clipitem-374</linkclipref>
															<mediatype>video</mediatype>
															<trackindex>2</trackindex>
															<clipindex>1</clipindex>
														</link>
														<link>
															<linkclipref>clipitem-379</linkclipref>
															<mediatype>audio</mediatype>
															<trackindex>1</trackindex>
															<clipindex>2</clipindex>
															<groupindex>1</groupindex>
														</link>
														<link>
															<linkclipref>clipitem-381</linkclipref>
															<mediatype>audio</mediatype>
															<trackindex>2</trackindex>
															<clipindex>2</clipindex>
															<groupindex>1</groupindex>
														</link>
														<logginginfo>
															<description></description>
															<scene></scene>
															<shottake></shottake>
															<lognote></lognote>
															<good></good>
															<originalvideofilename></originalvideofilename>
															<originalaudiofilename></originalaudiofilename>
														</logginginfo>
														<colorinfo>
															<lut></lut>
															<lut1></lut1>
															<asc_sop></asc_sop>
															<asc_sat></asc_sat>
															<lut2></lut2>
														</colorinfo>
														<labels>
															<label2>Iris</label2>
														</labels>
													</clipitem>
													<transitionitem>
														<start>2271</start>
														<end>2301</end>
														<pproTicksIn>19248240211200</pproTicksIn>
														<pproTicksOut>19502510227200</pproTicksOut>
														<alignment>center</alignment>
														<cutPointTicks>127135008000</cutPointTicks>
														<rate>
															<timebase>30</timebase>
															<ntsc>TRUE</ntsc>
														</rate>
														<effect>
															<name>Cross Fade (+3dB)</name>
															<effectid>KGAudioTransCrossFade3dB</effectid>
															<effecttype>transition</effecttype>
															<mediatype>audio</mediatype>
															<wipecode>0</wipecode>
															<wipeaccuracy>100</wipeaccuracy>
															<startratio>0</startratio>
															<endratio>1</endratio>
															<reverse>FALSE</reverse>
														</effect>
													</transitionitem>
													<clipitem id="clipitem-380" premiereChannelType="stereo">
														<masterclipid>masterclip-146</masterclipid>
														<name>(fobs_slime)_BxDTAgPHefR_IG.mp4</name>
														<enabled>TRUE</enabled>
														<duration>1237</duration>
														<rate>
															<timebase>30</timebase>
															<ntsc>TRUE</ntsc>
														</rate>
														<start>-1</start>
														<end>-1</end>
														<in>798</in>
														<out>1237</out>
														<pproTicksIn>6763582425600</pproTicksIn>
														<pproTicksOut>10484400326400</pproTicksOut>
														<file id="file-141"/>
														<sourcetrack>
															<mediatype>audio</mediatype>
															<trackindex>1</trackindex>
														</sourcetrack>
														<link>
															<linkclipref>clipitem-375</linkclipref>
															<mediatype>video</mediatype>
															<trackindex>2</trackindex>
															<clipindex>2</clipindex>
														</link>
														<link>
															<linkclipref>clipitem-380</linkclipref>
															<mediatype>audio</mediatype>
															<trackindex>1</trackindex>
															<clipindex>4</clipindex>
															<groupindex>1</groupindex>
														</link>
														<link>
															<linkclipref>clipitem-382</linkclipref>
															<mediatype>audio</mediatype>
															<trackindex>2</trackindex>
															<clipindex>4</clipindex>
															<groupindex>1</groupindex>
														</link>
														<logginginfo>
															<description></description>
															<scene></scene>
															<shottake></shottake>
															<lognote></lognote>
															<good></good>
															<originalvideofilename></originalvideofilename>
															<originalaudiofilename></originalaudiofilename>
														</logginginfo>
														<colorinfo>
															<lut></lut>
															<lut1></lut1>
															<asc_sop></asc_sop>
															<asc_sat></asc_sat>
															<lut2></lut2>
														</colorinfo>
														<labels>
															<label2>Iris</label2>
														</labels>
													</clipitem>
													<transitionitem>
														<start>2680</start>
														<end>2710</end>
														<pproTicksIn>22714788096000</pproTicksIn>
														<pproTicksOut>22969058112000</pproTicksOut>
														<alignment>end-black</alignment>
														<cutPointTicks>254270016000</cutPointTicks>
														<rate>
															<timebase>30</timebase>
															<ntsc>TRUE</ntsc>
														</rate>
														<effect>
															<name>Cross Fade (+3dB)</name>
															<effectid>KGAudioTransCrossFade3dB</effectid>
															<effecttype>transition</effecttype>
															<mediatype>audio</mediatype>
															<wipecode>0</wipecode>
															<wipeaccuracy>100</wipeaccuracy>
															<startratio>0</startratio>
															<endratio>1</endratio>
															<reverse>FALSE</reverse>
														</effect>
													</transitionitem>
													<enabled>TRUE</enabled>
													<locked>FALSE</locked>
													<outputchannelindex>1</outputchannelindex>
												</track>
												<track TL.SQTrackAudioKeyframeStyle="0" TL.SQTrackShy="0" TL.SQTrackExpandedHeight="25" TL.SQTrackExpanded="0" MZ.TrackTargeted="1" PannerCurrentValue="0.5" PannerIsInverted="true" PannerStartKeyframe="-91445760000000000,0.5,0,0,0,0,0,0" PannerName="Balance" currentExplodedTrackIndex="1" totalExplodedTrackCount="2" premiereTrackType="Stereo">
													<transitionitem>
														<start>1576</start>
														<end>1606</end>
														<pproTicksIn>13357651507200</pproTicksIn>
														<pproTicksOut>13611921523200</pproTicksOut>
														<alignment>start-black</alignment>
														<cutPointTicks>0</cutPointTicks>
														<rate>
															<timebase>30</timebase>
															<ntsc>TRUE</ntsc>
														</rate>
														<effect>
															<name>Cross Fade (+3dB)</name>
															<effectid>KGAudioTransCrossFade3dB</effectid>
															<effecttype>transition</effecttype>
															<mediatype>audio</mediatype>
															<wipecode>0</wipecode>
															<wipeaccuracy>100</wipeaccuracy>
															<startratio>0</startratio>
															<endratio>1</endratio>
															<reverse>FALSE</reverse>
														</effect>
													</transitionitem>
													<clipitem id="clipitem-381" premiereChannelType="stereo">
														<masterclipid>masterclip-146</masterclipid>
														<name>(fobs_slime)_BxDTAgPHefR_IG.mp4</name>
														<enabled>TRUE</enabled>
														<duration>1237</duration>
														<rate>
															<timebase>30</timebase>
															<ntsc>TRUE</ntsc>
														</rate>
														<start>-1</start>
														<end>-1</end>
														<in>62</in>
														<out>787</out>
														<pproTicksIn>525491366400</pproTicksIn>
														<pproTicksOut>6670350086400</pproTicksOut>
														<file id="file-141"/>
														<sourcetrack>
															<mediatype>audio</mediatype>
															<trackindex>2</trackindex>
														</sourcetrack>
														<link>
															<linkclipref>clipitem-374</linkclipref>
															<mediatype>video</mediatype>
															<trackindex>2</trackindex>
															<clipindex>1</clipindex>
														</link>
														<link>
															<linkclipref>clipitem-379</linkclipref>
															<mediatype>audio</mediatype>
															<trackindex>1</trackindex>
															<clipindex>2</clipindex>
															<groupindex>1</groupindex>
														</link>
														<link>
															<linkclipref>clipitem-381</linkclipref>
															<mediatype>audio</mediatype>
															<trackindex>2</trackindex>
															<clipindex>2</clipindex>
															<groupindex>1</groupindex>
														</link>
														<logginginfo>
															<description></description>
															<scene></scene>
															<shottake></shottake>
															<lognote></lognote>
															<good></good>
															<originalvideofilename></originalvideofilename>
															<originalaudiofilename></originalaudiofilename>
														</logginginfo>
														<colorinfo>
															<lut></lut>
															<lut1></lut1>
															<asc_sop></asc_sop>
															<asc_sat></asc_sat>
															<lut2></lut2>
														</colorinfo>
														<labels>
															<label2>Iris</label2>
														</labels>
													</clipitem>
													<transitionitem>
														<start>2271</start>
														<end>2301</end>
														<pproTicksIn>19248240211200</pproTicksIn>
														<pproTicksOut>19502510227200</pproTicksOut>
														<alignment>center</alignment>
														<cutPointTicks>127135008000</cutPointTicks>
														<rate>
															<timebase>30</timebase>
															<ntsc>TRUE</ntsc>
														</rate>
														<effect>
															<name>Cross Fade (+3dB)</name>
															<effectid>KGAudioTransCrossFade3dB</effectid>
															<effecttype>transition</effecttype>
															<mediatype>audio</mediatype>
															<wipecode>0</wipecode>
															<wipeaccuracy>100</wipeaccuracy>
															<startratio>0</startratio>
															<endratio>1</endratio>
															<reverse>FALSE</reverse>
														</effect>
													</transitionitem>
													<clipitem id="clipitem-382" premiereChannelType="stereo">
														<masterclipid>masterclip-146</masterclipid>
														<name>(fobs_slime)_BxDTAgPHefR_IG.mp4</name>
														<enabled>TRUE</enabled>
														<duration>1237</duration>
														<rate>
															<timebase>30</timebase>
															<ntsc>TRUE</ntsc>
														</rate>
														<start>-1</start>
														<end>-1</end>
														<in>798</in>
														<out>1237</out>
														<pproTicksIn>6763582425600</pproTicksIn>
														<pproTicksOut>10484400326400</pproTicksOut>
														<file id="file-141"/>
														<sourcetrack>
															<mediatype>audio</mediatype>
															<trackindex>2</trackindex>
														</sourcetrack>
														<link>
															<linkclipref>clipitem-375</linkclipref>
															<mediatype>video</mediatype>
															<trackindex>2</trackindex>
															<clipindex>2</clipindex>
														</link>
														<link>
															<linkclipref>clipitem-380</linkclipref>
															<mediatype>audio</mediatype>
															<trackindex>1</trackindex>
															<clipindex>4</clipindex>
															<groupindex>1</groupindex>
														</link>
														<link>
															<linkclipref>clipitem-382</linkclipref>
															<mediatype>audio</mediatype>
															<trackindex>2</trackindex>
															<clipindex>4</clipindex>
															<groupindex>1</groupindex>
														</link>
														<logginginfo>
															<description></description>
															<scene></scene>
															<shottake></shottake>
															<lognote></lognote>
															<good></good>
															<originalvideofilename></originalvideofilename>
															<originalaudiofilename></originalaudiofilename>
														</logginginfo>
														<colorinfo>
															<lut></lut>
															<lut1></lut1>
															<asc_sop></asc_sop>
															<asc_sat></asc_sat>
															<lut2></lut2>
														</colorinfo>
														<labels>
															<label2>Iris</label2>
														</labels>
													</clipitem>
													<transitionitem>
														<start>2680</start>
														<end>2710</end>
														<pproTicksIn>22714788096000</pproTicksIn>
														<pproTicksOut>22969058112000</pproTicksOut>
														<alignment>end-black</alignment>
														<cutPointTicks>254270016000</cutPointTicks>
														<rate>
															<timebase>30</timebase>
															<ntsc>TRUE</ntsc>
														</rate>
														<effect>
															<name>Cross Fade (+3dB)</name>
															<effectid>KGAudioTransCrossFade3dB</effectid>
															<effecttype>transition</effecttype>
															<mediatype>audio</mediatype>
															<wipecode>0</wipecode>
															<wipeaccuracy>100</wipeaccuracy>
															<startratio>0</startratio>
															<endratio>1</endratio>
															<reverse>FALSE</reverse>
														</effect>
													</transitionitem>
													<enabled>TRUE</enabled>
													<locked>FALSE</locked>
													<outputchannelindex>2</outputchannelindex>
												</track>
												<track TL.SQTrackAudioKeyframeStyle="0" TL.SQTrackShy="0" TL.SQTrackExpandedHeight="25" TL.SQTrackExpanded="0" MZ.TrackTargeted="0" PannerCurrentValue="0.5" PannerIsInverted="true" PannerStartKeyframe="-91445760000000000,0.5,0,0,0,0,0,0" PannerName="Balance" currentExplodedTrackIndex="0" totalExplodedTrackCount="2" premiereTrackType="Stereo">
													<enabled>TRUE</enabled>
													<locked>FALSE</locked>
													<filter>
														<effect>
															<name>Audio Levels</name>
															<effectid>audiolevels</effectid>
															<effectcategory>audiolevels</effectcategory>
															<effecttype>audiolevels</effecttype>
															<mediatype>audio</mediatype>
															<parameter authoringApp="PremierePro">
																<parameterid>level</parameterid>
																<name>Level</name>
																<valuemin>0</valuemin>
																<valuemax>3.98109</valuemax>
																<value>0.706272</value>
															</parameter>
														</effect>
													</filter>
													<outputchannelindex>1</outputchannelindex>
												</track>
												<track TL.SQTrackAudioKeyframeStyle="0" TL.SQTrackShy="0" TL.SQTrackExpandedHeight="25" TL.SQTrackExpanded="0" MZ.TrackTargeted="0" PannerCurrentValue="0.5" PannerIsInverted="true" PannerStartKeyframe="-91445760000000000,0.5,0,0,0,0,0,0" PannerName="Balance" currentExplodedTrackIndex="1" totalExplodedTrackCount="2" premiereTrackType="Stereo">
													<enabled>TRUE</enabled>
													<locked>FALSE</locked>
													<filter>
														<effect>
															<name>Audio Levels</name>
															<effectid>audiolevels</effectid>
															<effectcategory>audiolevels</effectcategory>
															<effecttype>audiolevels</effecttype>
															<mediatype>audio</mediatype>
															<parameter authoringApp="PremierePro">
																<parameterid>level</parameterid>
																<name>Level</name>
																<valuemin>0</valuemin>
																<valuemax>3.98109</valuemax>
																<value>0.706272</value>
															</parameter>
														</effect>
													</filter>
													<outputchannelindex>2</outputchannelindex>
												</track>
											</audio>
										</media>
										<timecode>
											<rate>
												<timebase>30</timebase>
												<ntsc>TRUE</ntsc>
											</rate>
											<string>00:00:00:00</string>
											<frame>0</frame>
											<displayformat>NDF</displayformat>
										</timecode>
										<labels>
											<label2>Forest</label2>
										</labels>
										<logginginfo>
											<description></description>
											<scene></scene>
											<shottake></shottake>
											<lognote></lognote>
											<good></good>
											<originalvideofilename></originalvideofilename>
											<originalaudiofilename></originalaudiofilename>
										</logginginfo>
									</sequence>
									<sequence id="sequence-50" TL.SQAudioVisibleBase="0" TL.SQVideoVisibleBase="0" TL.SQVisibleBaseTime="0" TL.SQAVDividerPosition="0.5" TL.SQHideShyTracks="0" TL.SQHeaderWidth="236" TL.SQDataTrackViewControlState="0" Monitor.ProgramZoomOut="25460904268800" Monitor.ProgramZoomIn="0" TL.SQTimePerPixel="0.27637033625057345" AM.TrackVScrollPosition="0" AM.TrackScrollPosition="0" MZ.EditLine="1288301414400" MZ.Sequence.PreviewFrameSizeHeight="1080" MZ.Sequence.PreviewFrameSizeWidth="1920" MZ.Sequence.AudioTimeDisplayFormat="200" MZ.Sequence.PreviewRenderingClassID="1297106761" MZ.Sequence.PreviewRenderingPresetCodec="1297107278" MZ.Sequence.PreviewRenderingPresetPath="EncoderPresets/SequencePreview/795454d9-d3c2-429d-9474-923ab13b7018/I-Frame Only MPEG.epr" MZ.Sequence.PreviewUseMaxRenderQuality="false" MZ.Sequence.PreviewUseMaxBitDepth="false" MZ.Sequence.EditingModeGUID="795454d9-d3c2-429d-9474-923ab13b7018" MZ.Sequence.VideoTimeDisplayFormat="103" MZ.WorkOutPoint="25460904268800" MZ.WorkInPoint="0" explodedTracks="true">
										<uuid>fb5a3203-7ac7-4f1f-96d5-cfd3486d9b66</uuid>
										<duration>3004</duration>
										<rate>
											<timebase>30</timebase>
											<ntsc>TRUE</ntsc>
										</rate>
										<name>DIY_tysytube restoration_1.5</name>
										<media>
											<video>
												<format>
													<samplecharacteristics>
														<rate>
															<timebase>30</timebase>
															<ntsc>TRUE</ntsc>
														</rate>
														<codec>
															<name>Apple ProRes 422</name>
															<appspecificdata>
																<appname>Final Cut Pro</appname>
																<appmanufacturer>Apple Inc.</appmanufacturer>
																<appversion>7.0</appversion>
																<data>
																	<qtcodec>
																		<codecname>Apple ProRes 422</codecname>
																		<codectypename>Apple ProRes 422</codectypename>
																		<codectypecode>apcn</codectypecode>
																		<codecvendorcode>appl</codecvendorcode>
																		<spatialquality>1024</spatialquality>
																		<temporalquality>0</temporalquality>
																		<keyframerate>0</keyframerate>
																		<datarate>0</datarate>
																	</qtcodec>
																</data>
															</appspecificdata>
														</codec>
														<width>1920</width>
														<height>1080</height>
														<anamorphic>FALSE</anamorphic>
														<pixelaspectratio>square</pixelaspectratio>
														<fielddominance>none</fielddominance>
														<colordepth>24</colordepth>
													</samplecharacteristics>
												</format>
												<track TL.SQTrackShy="0" TL.SQTrackExpandedHeight="25" TL.SQTrackExpanded="0" MZ.TrackTargeted="1">
													<clipitem id="clipitem-383">
														<masterclipid>masterclip-147</masterclipid>
														<name>(TysyTube Restoration)_Zippo Lighter Restoration D-Day WW2 - 1944 Largest Amphibious Invasion_dmguX9q_DLM_YT.mp4</name>
														<enabled>TRUE</enabled>
														<duration>24989</duration>
														<rate>
															<timebase>30</timebase>
															<ntsc>TRUE</ntsc>
														</rate>
														<start>0</start>
														<end>525</end>
														<in>16578</in>
														<out>17103</out>
														<pproTicksIn>140509610841600</pproTicksIn>
														<pproTicksOut>144959336121600</pproTicksOut>
														<alphatype>none</alphatype>
														<pixelaspectratio>square</pixelaspectratio>
														<anamorphic>FALSE</anamorphic>
														<file id="file-142">
															<name>(TysyTube Restoration)_Zippo Lighter Restoration D-Day WW2 - 1944 Largest Amphibious Invasion_dmguX9q_DLM_YT.mp4</name>
															<pathurl>file://localhost/Volumes/Satisfactum%20Satisfactorum/03_Weekly%20(Project%20Files,%20Main%20Segments)/OSTV/00_BACKUPS%20SLASH%20THE%20FUTURE/OSTV%2023-09-11/3_Raw%20Files/GDrive%20salvages/(TysyTube%20Restoration)_Zippo%20Lighter%20Restoration%20D-Day%20WW2%20-%201944%20Largest%20Amphibious%20Invasion_dmguX9q_DLM_YT.mp4</pathurl>
															<rate>
																<timebase>30</timebase>
																<ntsc>TRUE</ntsc>
															</rate>
															<duration>24989</duration>
															<timecode>
																<rate>
																	<timebase>30</timebase>
																	<ntsc>TRUE</ntsc>
																</rate>
																<string>00:00:00:00</string>
																<frame>0</frame>
																<displayformat>NDF</displayformat>
															</timecode>
															<media>
																<video>
																	<samplecharacteristics>
																		<rate>
																			<timebase>30</timebase>
																			<ntsc>TRUE</ntsc>
																		</rate>
																		<width>1920</width>
																		<height>1080</height>
																		<anamorphic>FALSE</anamorphic>
																		<pixelaspectratio>square</pixelaspectratio>
																		<fielddominance>none</fielddominance>
																	</samplecharacteristics>
																</video>
																<audio>
																	<samplecharacteristics>
																		<depth>16</depth>
																		<samplerate>44100</samplerate>
																	</samplecharacteristics>
																	<channelcount>2</channelcount>
																</audio>
															</media>
														</file>
														<link>
															<linkclipref>clipitem-383</linkclipref>
															<mediatype>video</mediatype>
															<trackindex>1</trackindex>
															<clipindex>1</clipindex>
														</link>
														<link>
															<linkclipref>clipitem-400</linkclipref>
															<mediatype>audio</mediatype>
															<trackindex>1</trackindex>
															<clipindex>2</clipindex>
															<groupindex>1</groupindex>
														</link>
														<link>
															<linkclipref>clipitem-415</linkclipref>
															<mediatype>audio</mediatype>
															<trackindex>2</trackindex>
															<clipindex>2</clipindex>
															<groupindex>1</groupindex>
														</link>
														<logginginfo>
															<description></description>
															<scene></scene>
															<shottake></shottake>
															<lognote>https://www.youtube.com/watch?v=dmguX9q_DLM</lognote>
															<good></good>
															<originalvideofilename></originalvideofilename>
															<originalaudiofilename></originalaudiofilename>
														</logginginfo>
														<colorinfo>
															<lut></lut>
															<lut1></lut1>
															<asc_sop></asc_sop>
															<asc_sat></asc_sat>
															<lut2></lut2>
														</colorinfo>
														<labels>
															<label2>Iris</label2>
														</labels>
													</clipitem>
													<clipitem id="clipitem-384">
														<masterclipid>masterclip-147</masterclipid>
														<name>(TysyTube Restoration)_Zippo Lighter Restoration D-Day WW2 - 1944 Largest Amphibious Invasion_dmguX9q_DLM_YT.mp4</name>
														<enabled>TRUE</enabled>
														<duration>24989</duration>
														<rate>
															<timebase>30</timebase>
															<ntsc>TRUE</ntsc>
														</rate>
														<start>525</start>
														<end>781</end>
														<in>17201</in>
														<out>17457</out>
														<pproTicksIn>145789951507200</pproTicksIn>
														<pproTicksOut>147959722310400</pproTicksOut>
														<alphatype>none</alphatype>
														<file id="file-142"/>
														<link>
															<linkclipref>clipitem-384</linkclipref>
															<mediatype>video</mediatype>
															<trackindex>1</trackindex>
															<clipindex>2</clipindex>
														</link>
														<link>
															<linkclipref>clipitem-401</linkclipref>
															<mediatype>audio</mediatype>
															<trackindex>1</trackindex>
															<clipindex>4</clipindex>
															<groupindex>1</groupindex>
														</link>
														<link>
															<linkclipref>clipitem-416</linkclipref>
															<mediatype>audio</mediatype>
															<trackindex>2</trackindex>
															<clipindex>4</clipindex>
															<groupindex>1</groupindex>
														</link>
														<logginginfo>
															<description></description>
															<scene></scene>
															<shottake></shottake>
															<lognote>https://www.youtube.com/watch?v=dmguX9q_DLM</lognote>
															<good></good>
															<originalvideofilename></originalvideofilename>
															<originalaudiofilename></originalaudiofilename>
														</logginginfo>
														<colorinfo>
															<lut></lut>
															<lut1></lut1>
															<asc_sop></asc_sop>
															<asc_sat></asc_sat>
															<lut2></lut2>
														</colorinfo>
														<labels>
															<label2>Iris</label2>
														</labels>
													</clipitem>
													<clipitem id="clipitem-385">
														<masterclipid>masterclip-147</masterclipid>
														<name>(TysyTube Restoration)_Zippo Lighter Restoration D-Day WW2 - 1944 Largest Amphibious Invasion_dmguX9q_DLM_YT.mp4</name>
														<enabled>TRUE</enabled>
														<duration>24989</duration>
														<rate>
															<timebase>30</timebase>
															<ntsc>TRUE</ntsc>
														</rate>
														<start>781</start>
														<end>1163</end>
														<in>17457</in>
														<out>17839</out>
														<pproTicksIn>147959722310400</pproTicksIn>
														<pproTicksOut>151197427180800</pproTicksOut>
														<alphatype>none</alphatype>
														<file id="file-142"/>
														<link>
															<linkclipref>clipitem-385</linkclipref>
															<mediatype>video</mediatype>
															<trackindex>1</trackindex>
															<clipindex>3</clipindex>
														</link>
														<link>
															<linkclipref>clipitem-402</linkclipref>
															<mediatype>audio</mediatype>
															<trackindex>1</trackindex>
															<clipindex>6</clipindex>
															<groupindex>1</groupindex>
														</link>
														<link>
															<linkclipref>clipitem-417</linkclipref>
															<mediatype>audio</mediatype>
															<trackindex>2</trackindex>
															<clipindex>6</clipindex>
															<groupindex>1</groupindex>
														</link>
														<logginginfo>
															<description></description>
															<scene></scene>
															<shottake></shottake>
															<lognote>https://www.youtube.com/watch?v=dmguX9q_DLM</lognote>
															<good></good>
															<originalvideofilename></originalvideofilename>
															<originalaudiofilename></originalaudiofilename>
														</logginginfo>
														<colorinfo>
															<lut></lut>
															<lut1></lut1>
															<asc_sop></asc_sop>
															<asc_sat></asc_sat>
															<lut2></lut2>
														</colorinfo>
														<labels>
															<label2>Iris</label2>
														</labels>
													</clipitem>
													<clipitem id="clipitem-386">
														<masterclipid>masterclip-147</masterclipid>
														<name>(TysyTube Restoration)_Zippo Lighter Restoration D-Day WW2 - 1944 Largest Amphibious Invasion_dmguX9q_DLM_YT.mp4</name>
														<enabled>TRUE</enabled>
														<duration>24989</duration>
														<rate>
															<timebase>30</timebase>
															<ntsc>TRUE</ntsc>
														</rate>
														<start>1163</start>
														<end>1513</end>
														<in>17909</in>
														<out>18259</out>
														<pproTicksIn>151790723884800</pproTicksIn>
														<pproTicksOut>154757207404800</pproTicksOut>
														<alphatype>none</alphatype>
														<file id="file-142"/>
														<link>
															<linkclipref>clipitem-386</linkclipref>
															<mediatype>video</mediatype>
															<trackindex>1</trackindex>
															<clipindex>4</clipindex>
														</link>
														<link>
															<linkclipref>clipitem-403</linkclipref>
															<mediatype>audio</mediatype>
															<trackindex>1</trackindex>
															<clipindex>8</clipindex>
															<groupindex>1</groupindex>
														</link>
														<link>
															<linkclipref>clipitem-418</linkclipref>
															<mediatype>audio</mediatype>
															<trackindex>2</trackindex>
															<clipindex>8</clipindex>
															<groupindex>1</groupindex>
														</link>
														<logginginfo>
															<description></description>
															<scene></scene>
															<shottake></shottake>
															<lognote>https://www.youtube.com/watch?v=dmguX9q_DLM</lognote>
															<good></good>
															<originalvideofilename></originalvideofilename>
															<originalaudiofilename></originalaudiofilename>
														</logginginfo>
														<colorinfo>
															<lut></lut>
															<lut1></lut1>
															<asc_sop></asc_sop>
															<asc_sat></asc_sat>
															<lut2></lut2>
														</colorinfo>
														<labels>
															<label2>Iris</label2>
														</labels>
													</clipitem>
													<clipitem id="clipitem-387">
														<masterclipid>masterclip-147</masterclipid>
														<name>(TysyTube Restoration)_Zippo Lighter Restoration D-Day WW2 - 1944 Largest Amphibious Invasion_dmguX9q_DLM_YT.mp4</name>
														<enabled>TRUE</enabled>
														<duration>24989</duration>
														<rate>
															<timebase>30</timebase>
															<ntsc>TRUE</ntsc>
														</rate>
														<start>1513</start>
														<end>1681</end>
														<in>19792</in>
														<out>19960</out>
														<pproTicksIn>167750405222400</pproTicksIn>
														<pproTicksOut>169174317312000</pproTicksOut>
														<alphatype>none</alphatype>
														<file id="file-142"/>
														<link>
															<linkclipref>clipitem-387</linkclipref>
															<mediatype>video</mediatype>
															<trackindex>1</trackindex>
															<clipindex>5</clipindex>
														</link>
														<link>
															<linkclipref>clipitem-404</linkclipref>
															<mediatype>audio</mediatype>
															<trackindex>1</trackindex>
															<clipindex>10</clipindex>
															<groupindex>1</groupindex>
														</link>
														<link>
															<linkclipref>clipitem-419</linkclipref>
															<mediatype>audio</mediatype>
															<trackindex>2</trackindex>
															<clipindex>10</clipindex>
															<groupindex>1</groupindex>
														</link>
														<logginginfo>
															<description></description>
															<scene></scene>
															<shottake></shottake>
															<lognote>https://www.youtube.com/watch?v=dmguX9q_DLM</lognote>
															<good></good>
															<originalvideofilename></originalvideofilename>
															<originalaudiofilename></originalaudiofilename>
														</logginginfo>
														<colorinfo>
															<lut></lut>
															<lut1></lut1>
															<asc_sop></asc_sop>
															<asc_sat></asc_sat>
															<lut2></lut2>
														</colorinfo>
														<labels>
															<label2>Iris</label2>
														</labels>
													</clipitem>
													<clipitem id="clipitem-388">
														<masterclipid>masterclip-147</masterclipid>
														<name>(TysyTube Restoration)_Zippo Lighter Restoration D-Day WW2 - 1944 Largest Amphibious Invasion_dmguX9q_DLM_YT.mp4</name>
														<enabled>TRUE</enabled>
														<duration>24989</duration>
														<rate>
															<timebase>30</timebase>
															<ntsc>TRUE</ntsc>
														</rate>
														<start>1681</start>
														<end>1824</end>
														<in>20469</in>
														<out>20612</out>
														<pproTicksIn>173488431916800</pproTicksIn>
														<pproTicksOut>174700452326400</pproTicksOut>
														<alphatype>none</alphatype>
														<file id="file-142"/>
														<link>
															<linkclipref>clipitem-388</linkclipref>
															<mediatype>video</mediatype>
															<trackindex>1</trackindex>
															<clipindex>6</clipindex>
														</link>
														<link>
															<linkclipref>clipitem-405</linkclipref>
															<mediatype>audio</mediatype>
															<trackindex>1</trackindex>
															<clipindex>12</clipindex>
															<groupindex>1</groupindex>
														</link>
														<link>
															<linkclipref>clipitem-420</linkclipref>
															<mediatype>audio</mediatype>
															<trackindex>2</trackindex>
															<clipindex>12</clipindex>
															<groupindex>1</groupindex>
														</link>
														<logginginfo>
															<description></description>
															<scene></scene>
															<shottake></shottake>
															<lognote>https://www.youtube.com/watch?v=dmguX9q_DLM</lognote>
															<good></good>
															<originalvideofilename></originalvideofilename>
															<originalaudiofilename></originalaudiofilename>
														</logginginfo>
														<colorinfo>
															<lut></lut>
															<lut1></lut1>
															<asc_sop></asc_sop>
															<asc_sat></asc_sat>
															<lut2></lut2>
														</colorinfo>
														<labels>
															<label2>Iris</label2>
														</labels>
													</clipitem>
													<clipitem id="clipitem-389">
														<masterclipid>masterclip-147</masterclipid>
														<name>(TysyTube Restoration)_Zippo Lighter Restoration D-Day WW2 - 1944 Largest Amphibious Invasion_dmguX9q_DLM_YT.mp4</name>
														<enabled>TRUE</enabled>
														<duration>24989</duration>
														<rate>
															<timebase>30</timebase>
															<ntsc>TRUE</ntsc>
														</rate>
														<start>1824</start>
														<end>1891</end>
														<in>20811</in>
														<out>20878</out>
														<pproTicksIn>176387110099200</pproTicksIn>
														<pproTicksOut>176954979801600</pproTicksOut>
														<alphatype>none</alphatype>
														<file id="file-142"/>
														<link>
															<linkclipref>clipitem-389</linkclipref>
															<mediatype>video</mediatype>
															<trackindex>1</trackindex>
															<clipindex>7</clipindex>
														</link>
														<link>
															<linkclipref>clipitem-406</linkclipref>
															<mediatype>audio</mediatype>
															<trackindex>1</trackindex>
															<clipindex>14</clipindex>
															<groupindex>1</groupindex>
														</link>
														<link>
															<linkclipref>clipitem-421</linkclipref>
															<mediatype>audio</mediatype>
															<trackindex>2</trackindex>
															<clipindex>14</clipindex>
															<groupindex>1</groupindex>
														</link>
														<logginginfo>
															<description></description>
															<scene></scene>
															<shottake></shottake>
															<lognote>https://www.youtube.com/watch?v=dmguX9q_DLM</lognote>
															<good></good>
															<originalvideofilename></originalvideofilename>
															<originalaudiofilename></originalaudiofilename>
														</logginginfo>
														<colorinfo>
															<lut></lut>
															<lut1></lut1>
															<asc_sop></asc_sop>
															<asc_sat></asc_sat>
															<lut2></lut2>
														</colorinfo>
														<labels>
															<label2>Iris</label2>
														</labels>
													</clipitem>
													<clipitem id="clipitem-390">
														<masterclipid>masterclip-147</masterclipid>
														<name>(TysyTube Restoration)_Zippo Lighter Restoration D-Day WW2 - 1944 Largest Amphibious Invasion_dmguX9q_DLM_YT.mp4</name>
														<enabled>TRUE</enabled>
														<duration>24989</duration>
														<rate>
															<timebase>30</timebase>
															<ntsc>TRUE</ntsc>
														</rate>
														<start>1891</start>
														<end>1999</end>
														<in>21038</in>
														<out>21146</out>
														<pproTicksIn>178311086553600</pproTicksIn>
														<pproTicksOut>179226458611200</pproTicksOut>
														<alphatype>none</alphatype>
														<file id="file-142"/>
														<link>
															<linkclipref>clipitem-390</linkclipref>
															<mediatype>video</mediatype>
															<trackindex>1</trackindex>
															<clipindex>8</clipindex>
														</link>
														<link>
															<linkclipref>clipitem-407</linkclipref>
															<mediatype>audio</mediatype>
															<trackindex>1</trackindex>
															<clipindex>16</clipindex>
															<groupindex>1</groupindex>
														</link>
														<link>
															<linkclipref>clipitem-422</linkclipref>
															<mediatype>audio</mediatype>
															<trackindex>2</trackindex>
															<clipindex>16</clipindex>
															<groupindex>1</groupindex>
														</link>
														<logginginfo>
															<description></description>
															<scene></scene>
															<shottake></shottake>
															<lognote>https://www.youtube.com/watch?v=dmguX9q_DLM</lognote>
															<good></good>
															<originalvideofilename></originalvideofilename>
															<originalaudiofilename></originalaudiofilename>
														</logginginfo>
														<colorinfo>
															<lut></lut>
															<lut1></lut1>
															<asc_sop></asc_sop>
															<asc_sat></asc_sat>
															<lut2></lut2>
														</colorinfo>
														<labels>
															<label2>Iris</label2>
														</labels>
													</clipitem>
													<clipitem id="clipitem-391">
														<masterclipid>masterclip-147</masterclipid>
														<name>(TysyTube Restoration)_Zippo Lighter Restoration D-Day WW2 - 1944 Largest Amphibious Invasion_dmguX9q_DLM_YT.mp4</name>
														<enabled>TRUE</enabled>
														<duration>24989</duration>
														<rate>
															<timebase>30</timebase>
															<ntsc>TRUE</ntsc>
														</rate>
														<start>1999</start>
														<end>2122</end>
														<in>21257</in>
														<out>21380</out>
														<pproTicksIn>180167257670400</pproTicksIn>
														<pproTicksOut>181209764736000</pproTicksOut>
														<alphatype>none</alphatype>
														<file id="file-142"/>
														<link>
															<linkclipref>clipitem-391</linkclipref>
															<mediatype>video</mediatype>
															<trackindex>1</trackindex>
															<clipindex>9</clipindex>
														</link>
														<link>
															<linkclipref>clipitem-408</linkclipref>
															<mediatype>audio</mediatype>
															<trackindex>1</trackindex>
															<clipindex>18</clipindex>
															<groupindex>1</groupindex>
														</link>
														<link>
															<linkclipref>clipitem-423</linkclipref>
															<mediatype>audio</mediatype>
															<trackindex>2</trackindex>
															<clipindex>18</clipindex>
															<groupindex>1</groupindex>
														</link>
														<logginginfo>
															<description></description>
															<scene></scene>
															<shottake></shottake>
															<lognote>https://www.youtube.com/watch?v=dmguX9q_DLM</lognote>
															<good></good>
															<originalvideofilename></originalvideofilename>
															<originalaudiofilename></originalaudiofilename>
														</logginginfo>
														<colorinfo>
															<lut></lut>
															<lut1></lut1>
															<asc_sop></asc_sop>
															<asc_sat></asc_sat>
															<lut2></lut2>
														</colorinfo>
														<labels>
															<label2>Iris</label2>
														</labels>
													</clipitem>
													<clipitem id="clipitem-392">
														<masterclipid>masterclip-147</masterclipid>
														<name>(TysyTube Restoration)_Zippo Lighter Restoration D-Day WW2 - 1944 Largest Amphibious Invasion_dmguX9q_DLM_YT.mp4</name>
														<enabled>TRUE</enabled>
														<duration>24989</duration>
														<rate>
															<timebase>30</timebase>
															<ntsc>TRUE</ntsc>
														</rate>
														<start>2122</start>
														<end>2219</end>
														<in>21557</in>
														<out>21654</out>
														<pproTicksIn>182709957830400</pproTicksIn>
														<pproTicksOut>183532097548800</pproTicksOut>
														<alphatype>none</alphatype>
														<file id="file-142"/>
														<link>
															<linkclipref>clipitem-392</linkclipref>
															<mediatype>video</mediatype>
															<trackindex>1</trackindex>
															<clipindex>10</clipindex>
														</link>
														<link>
															<linkclipref>clipitem-409</linkclipref>
															<mediatype>audio</mediatype>
															<trackindex>1</trackindex>
															<clipindex>20</clipindex>
															<groupindex>1</groupindex>
														</link>
														<link>
															<linkclipref>clipitem-424</linkclipref>
															<mediatype>audio</mediatype>
															<trackindex>2</trackindex>
															<clipindex>20</clipindex>
															<groupindex>1</groupindex>
														</link>
														<logginginfo>
															<description></description>
															<scene></scene>
															<shottake></shottake>
															<lognote>https://www.youtube.com/watch?v=dmguX9q_DLM</lognote>
															<good></good>
															<originalvideofilename></originalvideofilename>
															<originalaudiofilename></originalaudiofilename>
														</logginginfo>
														<colorinfo>
															<lut></lut>
															<lut1></lut1>
															<asc_sop></asc_sop>
															<asc_sat></asc_sat>
															<lut2></lut2>
														</colorinfo>
														<labels>
															<label2>Iris</label2>
														</labels>
													</clipitem>
													<clipitem id="clipitem-393">
														<masterclipid>masterclip-147</masterclipid>
														<name>(TysyTube Restoration)_Zippo Lighter Restoration D-Day WW2 - 1944 Largest Amphibious Invasion_dmguX9q_DLM_YT.mp4</name>
														<enabled>TRUE</enabled>
														<duration>24989</duration>
														<rate>
															<timebase>30</timebase>
															<ntsc>TRUE</ntsc>
														</rate>
														<start>2219</start>
														<end>2364</end>
														<in>21940</in>
														<out>22085</out>
														<pproTicksIn>185956138368000</pproTicksIn>
														<pproTicksOut>187185110112000</pproTicksOut>
														<alphatype>none</alphatype>
														<file id="file-142"/>
														<link>
															<linkclipref>clipitem-393</linkclipref>
															<mediatype>video</mediatype>
															<trackindex>1</trackindex>
															<clipindex>11</clipindex>
														</link>
														<link>
															<linkclipref>clipitem-410</linkclipref>
															<mediatype>audio</mediatype>
															<trackindex>1</trackindex>
															<clipindex>22</clipindex>
															<groupindex>1</groupindex>
														</link>
														<link>
															<linkclipref>clipitem-425</linkclipref>
															<mediatype>audio</mediatype>
															<trackindex>2</trackindex>
															<clipindex>22</clipindex>
															<groupindex>1</groupindex>
														</link>
														<logginginfo>
															<description></description>
															<scene></scene>
															<shottake></shottake>
															<lognote>https://www.youtube.com/watch?v=dmguX9q_DLM</lognote>
															<good></good>
															<originalvideofilename></originalvideofilename>
															<originalaudiofilename></originalaudiofilename>
														</logginginfo>
														<colorinfo>
															<lut></lut>
															<lut1></lut1>
															<asc_sop></asc_sop>
															<asc_sat></asc_sat>
															<lut2></lut2>
														</colorinfo>
														<labels>
															<label2>Iris</label2>
														</labels>
													</clipitem>
													<clipitem id="clipitem-394">
														<masterclipid>masterclip-147</masterclipid>
														<name>(TysyTube Restoration)_Zippo Lighter Restoration D-Day WW2 - 1944 Largest Amphibious Invasion_dmguX9q_DLM_YT.mp4</name>
														<enabled>TRUE</enabled>
														<duration>24989</duration>
														<rate>
															<timebase>30</timebase>
															<ntsc>TRUE</ntsc>
														</rate>
														<start>2364</start>
														<end>2509</end>
														<in>22968</in>
														<out>23113</out>
														<pproTicksIn>194669124249600</pproTicksIn>
														<pproTicksOut>195898095993600</pproTicksOut>
														<alphatype>none</alphatype>
														<file id="file-142"/>
														<link>
															<linkclipref>clipitem-394</linkclipref>
															<mediatype>video</mediatype>
															<trackindex>1</trackindex>
															<clipindex>12</clipindex>
														</link>
														<link>
															<linkclipref>clipitem-411</linkclipref>
															<mediatype>audio</mediatype>
															<trackindex>1</trackindex>
															<clipindex>24</clipindex>
															<groupindex>1</groupindex>
														</link>
														<link>
															<linkclipref>clipitem-426</linkclipref>
															<mediatype>audio</mediatype>
															<trackindex>2</trackindex>
															<clipindex>24</clipindex>
															<groupindex>1</groupindex>
														</link>
														<logginginfo>
															<description></description>
															<scene></scene>
															<shottake></shottake>
															<lognote>https://www.youtube.com/watch?v=dmguX9q_DLM</lognote>
															<good></good>
															<originalvideofilename></originalvideofilename>
															<originalaudiofilename></originalaudiofilename>
														</logginginfo>
														<colorinfo>
															<lut></lut>
															<lut1></lut1>
															<asc_sop></asc_sop>
															<asc_sat></asc_sat>
															<lut2></lut2>
														</colorinfo>
														<labels>
															<label2>Iris</label2>
														</labels>
													</clipitem>
													<clipitem id="clipitem-395">
														<masterclipid>masterclip-147</masterclipid>
														<name>(TysyTube Restoration)_Zippo Lighter Restoration D-Day WW2 - 1944 Largest Amphibious Invasion_dmguX9q_DLM_YT.mp4</name>
														<enabled>TRUE</enabled>
														<duration>24989</duration>
														<rate>
															<timebase>30</timebase>
															<ntsc>TRUE</ntsc>
														</rate>
														<start>2509</start>
														<end>2645</end>
														<in>23214</in>
														<out>23350</out>
														<pproTicksIn>196754138380800</pproTicksIn>
														<pproTicksOut>197906829120000</pproTicksOut>
														<alphatype>none</alphatype>
														<file id="file-142"/>
														<link>
															<linkclipref>clipitem-395</linkclipref>
															<mediatype>video</mediatype>
															<trackindex>1</trackindex>
															<clipindex>13</clipindex>
														</link>
														<link>
															<linkclipref>clipitem-412</linkclipref>
															<mediatype>audio</mediatype>
															<trackindex>1</trackindex>
															<clipindex>26</clipindex>
															<groupindex>1</groupindex>
														</link>
														<link>
															<linkclipref>clipitem-427</linkclipref>
															<mediatype>audio</mediatype>
															<trackindex>2</trackindex>
															<clipindex>26</clipindex>
															<groupindex>1</groupindex>
														</link>
														<logginginfo>
															<description></description>
															<scene></scene>
															<shottake></shottake>
															<lognote>https://www.youtube.com/watch?v=dmguX9q_DLM</lognote>
															<good></good>
															<originalvideofilename></originalvideofilename>
															<originalaudiofilename></originalaudiofilename>
														</logginginfo>
														<colorinfo>
															<lut></lut>
															<lut1></lut1>
															<asc_sop></asc_sop>
															<asc_sat></asc_sat>
															<lut2></lut2>
														</colorinfo>
														<labels>
															<label2>Iris</label2>
														</labels>
													</clipitem>
													<clipitem id="clipitem-396">
														<masterclipid>masterclip-147</masterclipid>
														<name>(TysyTube Restoration)_Zippo Lighter Restoration D-Day WW2 - 1944 Largest Amphibious Invasion_dmguX9q_DLM_YT.mp4</name>
														<enabled>TRUE</enabled>
														<duration>24989</duration>
														<rate>
															<timebase>30</timebase>
															<ntsc>TRUE</ntsc>
														</rate>
														<start>2645</start>
														<end>2792</end>
														<in>23459</in>
														<out>23606</out>
														<pproTicksIn>198830676844800</pproTicksIn>
														<pproTicksOut>200076599923200</pproTicksOut>
														<alphatype>none</alphatype>
														<file id="file-142"/>
														<link>
															<linkclipref>clipitem-396</linkclipref>
															<mediatype>video</mediatype>
															<trackindex>1</trackindex>
															<clipindex>14</clipindex>
														</link>
														<link>
															<linkclipref>clipitem-413</linkclipref>
															<mediatype>audio</mediatype>
															<trackindex>1</trackindex>
															<clipindex>28</clipindex>
															<groupindex>1</groupindex>
														</link>
														<link>
															<linkclipref>clipitem-428</linkclipref>
															<mediatype>audio</mediatype>
															<trackindex>2</trackindex>
															<clipindex>28</clipindex>
															<groupindex>1</groupindex>
														</link>
														<logginginfo>
															<description></description>
															<scene></scene>
															<shottake></shottake>
															<lognote>https://www.youtube.com/watch?v=dmguX9q_DLM</lognote>
															<good></good>
															<originalvideofilename></originalvideofilename>
															<originalaudiofilename></originalaudiofilename>
														</logginginfo>
														<colorinfo>
															<lut></lut>
															<lut1></lut1>
															<asc_sop></asc_sop>
															<asc_sat></asc_sat>
															<lut2></lut2>
														</colorinfo>
														<labels>
															<label2>Iris</label2>
														</labels>
													</clipitem>
													<clipitem id="clipitem-397">
														<masterclipid>masterclip-147</masterclipid>
														<name>(TysyTube Restoration)_Zippo Lighter Restoration D-Day WW2 - 1944 Largest Amphibious Invasion_dmguX9q_DLM_YT.mp4</name>
														<enabled>TRUE</enabled>
														<duration>24989</duration>
														<rate>
															<timebase>30</timebase>
															<ntsc>TRUE</ntsc>
														</rate>
														<start>2792</start>
														<end>3004</end>
														<in>24196</in>
														<out>24408</out>
														<pproTicksIn>205077243571200</pproTicksIn>
														<pproTicksOut>206874085017600</pproTicksOut>
														<alphatype>none</alphatype>
														<file id="file-142"/>
														<link>
															<linkclipref>clipitem-397</linkclipref>
															<mediatype>video</mediatype>
															<trackindex>1</trackindex>
															<clipindex>15</clipindex>
														</link>
														<link>
															<linkclipref>clipitem-414</linkclipref>
															<mediatype>audio</mediatype>
															<trackindex>1</trackindex>
															<clipindex>30</clipindex>
															<groupindex>1</groupindex>
														</link>
														<link>
															<linkclipref>clipitem-429</linkclipref>
															<mediatype>audio</mediatype>
															<trackindex>2</trackindex>
															<clipindex>30</clipindex>
															<groupindex>1</groupindex>
														</link>
														<logginginfo>
															<description></description>
															<scene></scene>
															<shottake></shottake>
															<lognote>https://www.youtube.com/watch?v=dmguX9q_DLM</lognote>
															<good></good>
															<originalvideofilename></originalvideofilename>
															<originalaudiofilename></originalaudiofilename>
														</logginginfo>
														<colorinfo>
															<lut></lut>
															<lut1></lut1>
															<asc_sop></asc_sop>
															<asc_sat></asc_sat>
															<lut2></lut2>
														</colorinfo>
														<labels>
															<label2>Iris</label2>
														</labels>
													</clipitem>
													<enabled>TRUE</enabled>
													<locked>FALSE</locked>
												</track>
												<track TL.SQTrackShy="0" TL.SQTrackExpandedHeight="25" TL.SQTrackExpanded="0" MZ.TrackTargeted="0">
													<clipitem id="clipitem-398">
														<masterclipid>masterclip-71</masterclipid>
														<name>tysytube restoration</name>
														<enabled>TRUE</enabled>
														<duration>5844</duration>
														<rate>
															<timebase>30</timebase>
															<ntsc>TRUE</ntsc>
														</rate>
														<start>0</start>
														<end>3004</end>
														<in>0</in>
														<out>3004</out>
														<pproTicksIn>0</pproTicksIn>
														<pproTicksOut>25460904268800</pproTicksOut>
														<alphatype>straight</alphatype>
														<file id="file-71"/>
														<filter>
															<effect>
																<name>Basic Motion</name>
																<effectid>basic</effectid>
																<effectcategory>motion</effectcategory>
																<effecttype>motion</effecttype>
																<mediatype>video</mediatype>
																<pproBypass>false</pproBypass>
																<parameter authoringApp="PremierePro">
																	<parameterid>scale</parameterid>
																	<name>Scale</name>
																	<valuemin>0</valuemin>
																	<valuemax>1000</valuemax>
																	<value>150</value>
																</parameter>
																<parameter authoringApp="PremierePro">
																	<parameterid>rotation</parameterid>
																	<name>Rotation</name>
																	<valuemin>-8640</valuemin>
																	<valuemax>8640</valuemax>
																	<value>0</value>
																</parameter>
																<parameter authoringApp="PremierePro">
																	<parameterid>center</parameterid>
																	<name>Center</name>
																	<value>
																		<horiz>0</horiz>
																		<vert>0</vert>
																	</value>
																</parameter>
																<parameter authoringApp="PremierePro">
																	<parameterid>centerOffset</parameterid>
																	<name>Anchor Point</name>
																	<value>
																		<horiz>0</horiz>
																		<vert>0</vert>
																	</value>
																</parameter>
																<parameter authoringApp="PremierePro">
																	<parameterid>antiflicker</parameterid>
																	<name>Anti-flicker Filter</name>
																	<valuemin>0.0</valuemin>
																	<valuemax>1.0</valuemax>
																	<value>0</value>
																</parameter>
															</effect>
														</filter>
														<logginginfo>
															<description></description>
															<scene></scene>
															<shottake></shottake>
															<lognote></lognote>
															<good></good>
															<originalvideofilename></originalvideofilename>
															<originalaudiofilename></originalaudiofilename>
														</logginginfo>
														<colorinfo>
															<lut></lut>
															<lut1></lut1>
															<asc_sop></asc_sop>
															<asc_sat></asc_sat>
															<lut2></lut2>
														</colorinfo>
														<labels>
															<label2>Rose</label2>
														</labels>
													</clipitem>
													<enabled>TRUE</enabled>
													<locked>FALSE</locked>
												</track>
												<track TL.SQTrackShy="0" TL.SQTrackExpandedHeight="25" TL.SQTrackExpanded="0" MZ.TrackTargeted="0">
													<clipitem id="clipitem-399">
														<masterclipid>masterclip-106</masterclipid>
														<name>Bug and Lower Nest</name>
														<enabled>TRUE</enabled>
														<duration>14721</duration>
														<rate>
															<timebase>30</timebase>
															<ntsc>TRUE</ntsc>
														</rate>
														<start>0</start>
														<end>3004</end>
														<in>0</in>
														<out>3004</out>
														<pproTicksIn>0</pproTicksIn>
														<pproTicksOut>25460904268800</pproTicksOut>
														<sequence id="sequence-1"/>
														<labels>
															<label2>Cerulean</label2>
														</labels>
													</clipitem>
													<enabled>TRUE</enabled>
													<locked>FALSE</locked>
												</track>
											</video>
											<audio>
												<numOutputChannels>2</numOutputChannels>
												<format>
													<samplecharacteristics>
														<depth>16</depth>
														<samplerate>44100</samplerate>
													</samplecharacteristics>
												</format>
												<outputs>
													<group>
														<index>1</index>
														<numchannels>1</numchannels>
														<downmix>0</downmix>
														<channel>
															<index>1</index>
														</channel>
													</group>
													<group>
														<index>2</index>
														<numchannels>1</numchannels>
														<downmix>0</downmix>
														<channel>
															<index>2</index>
														</channel>
													</group>
												</outputs>
												<track TL.SQTrackAudioKeyframeStyle="0" TL.SQTrackShy="0" TL.SQTrackExpandedHeight="25" TL.SQTrackExpanded="0" MZ.TrackTargeted="1" PannerCurrentValue="0.5" PannerIsInverted="true" PannerStartKeyframe="-91445760000000000,0.5,0,0,0,0,0,0" PannerName="Balance" currentExplodedTrackIndex="0" totalExplodedTrackCount="2" premiereTrackType="Stereo">
													<transitionitem>
														<start>0</start>
														<end>30</end>
														<pproTicksIn>0</pproTicksIn>
														<pproTicksOut>254270016000</pproTicksOut>
														<alignment>start-black</alignment>
														<cutPointTicks>0</cutPointTicks>
														<rate>
															<timebase>30</timebase>
															<ntsc>TRUE</ntsc>
														</rate>
														<effect>
															<name>Cross Fade (+3dB)</name>
															<effectid>KGAudioTransCrossFade3dB</effectid>
															<effecttype>transition</effecttype>
															<mediatype>audio</mediatype>
															<wipecode>0</wipecode>
															<wipeaccuracy>100</wipeaccuracy>
															<startratio>0</startratio>
															<endratio>1</endratio>
															<reverse>FALSE</reverse>
														</effect>
													</transitionitem>
													<clipitem id="clipitem-400" premiereChannelType="stereo">
														<masterclipid>masterclip-147</masterclipid>
														<name>(TysyTube Restoration)_Zippo Lighter Restoration D-Day WW2 - 1944 Largest Amphibious Invasion_dmguX9q_DLM_YT.mp4</name>
														<enabled>TRUE</enabled>
														<duration>24989</duration>
														<rate>
															<timebase>30</timebase>
															<ntsc>TRUE</ntsc>
														</rate>
														<start>-1</start>
														<end>-1</end>
														<in>16578</in>
														<out>17118</out>
														<pproTicksIn>140509610841600</pproTicksIn>
														<pproTicksOut>145086471129600</pproTicksOut>
														<file id="file-142"/>
														<sourcetrack>
															<mediatype>audio</mediatype>
															<trackindex>1</trackindex>
														</sourcetrack>
														<link>
															<linkclipref>clipitem-383</linkclipref>
															<mediatype>video</mediatype>
															<trackindex>1</trackindex>
															<clipindex>1</clipindex>
														</link>
														<link>
															<linkclipref>clipitem-400</linkclipref>
															<mediatype>audio</mediatype>
															<trackindex>1</trackindex>
															<clipindex>2</clipindex>
															<groupindex>1</groupindex>
														</link>
														<link>
															<linkclipref>clipitem-415</linkclipref>
															<mediatype>audio</mediatype>
															<trackindex>2</trackindex>
															<clipindex>2</clipindex>
															<groupindex>1</groupindex>
														</link>
														<logginginfo>
															<description></description>
															<scene></scene>
															<shottake></shottake>
															<lognote>https://www.youtube.com/watch?v=dmguX9q_DLM</lognote>
															<good></good>
															<originalvideofilename></originalvideofilename>
															<originalaudiofilename></originalaudiofilename>
														</logginginfo>
														<colorinfo>
															<lut></lut>
															<lut1></lut1>
															<asc_sop></asc_sop>
															<asc_sat></asc_sat>
															<lut2></lut2>
														</colorinfo>
														<labels>
															<label2>Iris</label2>
														</labels>
													</clipitem>
													<transitionitem>
														<start>510</start>
														<end>540</end>
														<pproTicksIn>4322590272000</pproTicksIn>
														<pproTicksOut>4576860288000</pproTicksOut>
														<alignment>center</alignment>
														<cutPointTicks>127135008000</cutPointTicks>
														<rate>
															<timebase>30</timebase>
															<ntsc>TRUE</ntsc>
														</rate>
														<effect>
															<name>Cross Fade (+3dB)</name>
															<effectid>KGAudioTransCrossFade3dB</effectid>
															<effecttype>transition</effecttype>
															<mediatype>audio</mediatype>
															<wipecode>0</wipecode>
															<wipeaccuracy>100</wipeaccuracy>
															<startratio>0</startratio>
															<endratio>1</endratio>
															<reverse>FALSE</reverse>
														</effect>
													</transitionitem>
													<clipitem id="clipitem-401" premiereChannelType="stereo">
														<masterclipid>masterclip-147</masterclipid>
														<name>(TysyTube Restoration)_Zippo Lighter Restoration D-Day WW2 - 1944 Largest Amphibious Invasion_dmguX9q_DLM_YT.mp4</name>
														<enabled>TRUE</enabled>
														<duration>24989</duration>
														<rate>
															<timebase>30</timebase>
															<ntsc>TRUE</ntsc>
														</rate>
														<start>-1</start>
														<end>-1</end>
														<in>17186</in>
														<out>17472</out>
														<pproTicksIn>145662816499200</pproTicksIn>
														<pproTicksOut>148086857318400</pproTicksOut>
														<file id="file-142"/>
														<sourcetrack>
															<mediatype>audio</mediatype>
															<trackindex>1</trackindex>
														</sourcetrack>
														<link>
															<linkclipref>clipitem-384</linkclipref>
															<mediatype>video</mediatype>
															<trackindex>1</trackindex>
															<clipindex>2</clipindex>
														</link>
														<link>
															<linkclipref>clipitem-401</linkclipref>
															<mediatype>audio</mediatype>
															<trackindex>1</trackindex>
															<clipindex>4</clipindex>
															<groupindex>1</groupindex>
														</link>
														<link>
															<linkclipref>clipitem-416</linkclipref>
															<mediatype>audio</mediatype>
															<trackindex>2</trackindex>
															<clipindex>4</clipindex>
															<groupindex>1</groupindex>
														</link>
														<logginginfo>
															<description></description>
															<scene></scene>
															<shottake></shottake>
															<lognote>https://www.youtube.com/watch?v=dmguX9q_DLM</lognote>
															<good></good>
															<originalvideofilename></originalvideofilename>
															<originalaudiofilename></originalaudiofilename>
														</logginginfo>
														<colorinfo>
															<lut></lut>
															<lut1></lut1>
															<asc_sop></asc_sop>
															<asc_sat></asc_sat>
															<lut2></lut2>
														</colorinfo>
														<labels>
															<label2>Iris</label2>
														</labels>
													</clipitem>
													<transitionitem>
														<start>766</start>
														<end>796</end>
														<pproTicksIn>6492361075200</pproTicksIn>
														<pproTicksOut>6746631091200</pproTicksOut>
														<alignment>center</alignment>
														<cutPointTicks>127135008000</cutPointTicks>
														<rate>
															<timebase>30</timebase>
															<ntsc>TRUE</ntsc>
														</rate>
														<effect>
															<name>Cross Fade (+3dB)</name>
															<effectid>KGAudioTransCrossFade3dB</effectid>
															<effecttype>transition</effecttype>
															<mediatype>audio</mediatype>
															<wipecode>0</wipecode>
															<wipeaccuracy>100</wipeaccuracy>
															<startratio>0</startratio>
															<endratio>1</endratio>
															<reverse>FALSE</reverse>
														</effect>
													</transitionitem>
													<clipitem id="clipitem-402" premiereChannelType="stereo">
														<masterclipid>masterclip-147</masterclipid>
														<name>(TysyTube Restoration)_Zippo Lighter Restoration D-Day WW2 - 1944 Largest Amphibious Invasion_dmguX9q_DLM_YT.mp4</name>
														<enabled>TRUE</enabled>
														<duration>24989</duration>
														<rate>
															<timebase>30</timebase>
															<ntsc>TRUE</ntsc>
														</rate>
														<start>-1</start>
														<end>-1</end>
														<in>17442</in>
														<out>17854</out>
														<pproTicksIn>147832587302400</pproTicksIn>
														<pproTicksOut>151324562188800</pproTicksOut>
														<file id="file-142"/>
														<sourcetrack>
															<mediatype>audio</mediatype>
															<trackindex>1</trackindex>
														</sourcetrack>
														<link>
															<linkclipref>clipitem-385</linkclipref>
															<mediatype>video</mediatype>
															<trackindex>1</trackindex>
															<clipindex>3</clipindex>
														</link>
														<link>
															<linkclipref>clipitem-402</linkclipref>
															<mediatype>audio</mediatype>
															<trackindex>1</trackindex>
															<clipindex>6</clipindex>
															<groupindex>1</groupindex>
														</link>
														<link>
															<linkclipref>clipitem-417</linkclipref>
															<mediatype>audio</mediatype>
															<trackindex>2</trackindex>
															<clipindex>6</clipindex>
															<groupindex>1</groupindex>
														</link>
														<logginginfo>
															<description></description>
															<scene></scene>
															<shottake></shottake>
															<lognote>https://www.youtube.com/watch?v=dmguX9q_DLM</lognote>
															<good></good>
															<originalvideofilename></originalvideofilename>
															<originalaudiofilename></originalaudiofilename>
														</logginginfo>
														<colorinfo>
															<lut></lut>
															<lut1></lut1>
															<asc_sop></asc_sop>
															<asc_sat></asc_sat>
															<lut2></lut2>
														</colorinfo>
														<labels>
															<label2>Iris</label2>
														</labels>
													</clipitem>
													<transitionitem>
														<start>1148</start>
														<end>1178</end>
														<pproTicksIn>9730065945600</pproTicksIn>
														<pproTicksOut>9984335961600</pproTicksOut>
														<alignment>center</alignment>
														<cutPointTicks>127135008000</cutPointTicks>
														<rate>
															<timebase>30</timebase>
															<ntsc>TRUE</ntsc>
														</rate>
														<effect>
															<name>Cross Fade (+3dB)</name>
															<effectid>KGAudioTransCrossFade3dB</effectid>
															<effecttype>transition</effecttype>
															<mediatype>audio</mediatype>
															<wipecode>0</wipecode>
															<wipeaccuracy>100</wipeaccuracy>
															<startratio>0</startratio>
															<endratio>1</endratio>
															<reverse>FALSE</reverse>
														</effect>
													</transitionitem>
													<clipitem id="clipitem-403" premiereChannelType="stereo">
														<masterclipid>masterclip-147</masterclipid>
														<name>(TysyTube Restoration)_Zippo Lighter Restoration D-Day WW2 - 1944 Largest Amphibious Invasion_dmguX9q_DLM_YT.mp4</name>
														<enabled>TRUE</enabled>
														<duration>24989</duration>
														<rate>
															<timebase>30</timebase>
															<ntsc>TRUE</ntsc>
														</rate>
														<start>-1</start>
														<end>-1</end>
														<in>17894</in>
														<out>18274</out>
														<pproTicksIn>151663588876800</pproTicksIn>
														<pproTicksOut>154884342412800</pproTicksOut>
														<file id="file-142"/>
														<sourcetrack>
															<mediatype>audio</mediatype>
															<trackindex>1</trackindex>
														</sourcetrack>
														<link>
															<linkclipref>clipitem-386</linkclipref>
															<mediatype>video</mediatype>
															<trackindex>1</trackindex>
															<clipindex>4</clipindex>
														</link>
														<link>
															<linkclipref>clipitem-403</linkclipref>
															<mediatype>audio</mediatype>
															<trackindex>1</trackindex>
															<clipindex>8</clipindex>
															<groupindex>1</groupindex>
														</link>
														<link>
															<linkclipref>clipitem-418</linkclipref>
															<mediatype>audio</mediatype>
															<trackindex>2</trackindex>
															<clipindex>8</clipindex>
															<groupindex>1</groupindex>
														</link>
														<logginginfo>
															<description></description>
															<scene></scene>
															<shottake></shottake>
															<lognote>https://www.youtube.com/watch?v=dmguX9q_DLM</lognote>
															<good></good>
															<originalvideofilename></originalvideofilename>
															<originalaudiofilename></originalaudiofilename>
														</logginginfo>
														<colorinfo>
															<lut></lut>
															<lut1></lut1>
															<asc_sop></asc_sop>
															<asc_sat></asc_sat>
															<lut2></lut2>
														</colorinfo>
														<labels>
															<label2>Iris</label2>
														</labels>
													</clipitem>
													<transitionitem>
														<start>1498</start>
														<end>1528</end>
														<pproTicksIn>12696549465600</pproTicksIn>
														<pproTicksOut>12950819481600</pproTicksOut>
														<alignment>center</alignment>
														<cutPointTicks>127135008000</cutPointTicks>
														<rate>
															<timebase>30</timebase>
															<ntsc>TRUE</ntsc>
														</rate>
														<effect>
															<name>Cross Fade (+3dB)</name>
															<effectid>KGAudioTransCrossFade3dB</effectid>
															<effecttype>transition</effecttype>
															<mediatype>audio</mediatype>
															<wipecode>0</wipecode>
															<wipeaccuracy>100</wipeaccuracy>
															<startratio>0</startratio>
															<endratio>1</endratio>
															<reverse>FALSE</reverse>
														</effect>
													</transitionitem>
													<clipitem id="clipitem-404" premiereChannelType="stereo">
														<masterclipid>masterclip-147</masterclipid>
														<name>(TysyTube Restoration)_Zippo Lighter Restoration D-Day WW2 - 1944 Largest Amphibious Invasion_dmguX9q_DLM_YT.mp4</name>
														<enabled>TRUE</enabled>
														<duration>24989</duration>
														<rate>
															<timebase>30</timebase>
															<ntsc>TRUE</ntsc>
														</rate>
														<start>-1</start>
														<end>-1</end>
														<in>19777</in>
														<out>19975</out>
														<pproTicksIn>167623270214400</pproTicksIn>
														<pproTicksOut>169301452320000</pproTicksOut>
														<file id="file-142"/>
														<sourcetrack>
															<mediatype>audio</mediatype>
															<trackindex>1</trackindex>
														</sourcetrack>
														<link>
															<linkclipref>clipitem-387</linkclipref>
															<mediatype>video</mediatype>
															<trackindex>1</trackindex>
															<clipindex>5</clipindex>
														</link>
														<link>
															<linkclipref>clipitem-404</linkclipref>
															<mediatype>audio</mediatype>
															<trackindex>1</trackindex>
															<clipindex>10</clipindex>
															<groupindex>1</groupindex>
														</link>
														<link>
															<linkclipref>clipitem-419</linkclipref>
															<mediatype>audio</mediatype>
															<trackindex>2</trackindex>
															<clipindex>10</clipindex>
															<groupindex>1</groupindex>
														</link>
														<logginginfo>
															<description></description>
															<scene></scene>
															<shottake></shottake>
															<lognote>https://www.youtube.com/watch?v=dmguX9q_DLM</lognote>
															<good></good>
															<originalvideofilename></originalvideofilename>
															<originalaudiofilename></originalaudiofilename>
														</logginginfo>
														<colorinfo>
															<lut></lut>
															<lut1></lut1>
															<asc_sop></asc_sop>
															<asc_sat></asc_sat>
															<lut2></lut2>
														</colorinfo>
														<labels>
															<label2>Iris</label2>
														</labels>
													</clipitem>
													<transitionitem>
														<start>1666</start>
														<end>1696</end>
														<pproTicksIn>14120461555200</pproTicksIn>
														<pproTicksOut>14374731571200</pproTicksOut>
														<alignment>center</alignment>
														<cutPointTicks>127135008000</cutPointTicks>
														<rate>
															<timebase>30</timebase>
															<ntsc>TRUE</ntsc>
														</rate>
														<effect>
															<name>Cross Fade (+3dB)</name>
															<effectid>KGAudioTransCrossFade3dB</effectid>
															<effecttype>transition</effecttype>
															<mediatype>audio</mediatype>
															<wipecode>0</wipecode>
															<wipeaccuracy>100</wipeaccuracy>
															<startratio>0</startratio>
															<endratio>1</endratio>
															<reverse>FALSE</reverse>
														</effect>
													</transitionitem>
													<clipitem id="clipitem-405" premiereChannelType="stereo">
														<masterclipid>masterclip-147</masterclipid>
														<name>(TysyTube Restoration)_Zippo Lighter Restoration D-Day WW2 - 1944 Largest Amphibious Invasion_dmguX9q_DLM_YT.mp4</name>
														<enabled>TRUE</enabled>
														<duration>24989</duration>
														<rate>
															<timebase>30</timebase>
															<ntsc>TRUE</ntsc>
														</rate>
														<start>-1</start>
														<end>-1</end>
														<in>20454</in>
														<out>20627</out>
														<pproTicksIn>173361296908800</pproTicksIn>
														<pproTicksOut>174827587334400</pproTicksOut>
														<file id="file-142"/>
														<sourcetrack>
															<mediatype>audio</mediatype>
															<trackindex>1</trackindex>
														</sourcetrack>
														<link>
															<linkclipref>clipitem-388</linkclipref>
															<mediatype>video</mediatype>
															<trackindex>1</trackindex>
															<clipindex>6</clipindex>
														</link>
														<link>
															<linkclipref>clipitem-405</linkclipref>
															<mediatype>audio</mediatype>
															<trackindex>1</trackindex>
															<clipindex>12</clipindex>
															<groupindex>1</groupindex>
														</link>
														<link>
															<linkclipref>clipitem-420</linkclipref>
															<mediatype>audio</mediatype>
															<trackindex>2</trackindex>
															<clipindex>12</clipindex>
															<groupindex>1</groupindex>
														</link>
														<logginginfo>
															<description></description>
															<scene></scene>
															<shottake></shottake>
															<lognote>https://www.youtube.com/watch?v=dmguX9q_DLM</lognote>
															<good></good>
															<originalvideofilename></originalvideofilename>
															<originalaudiofilename></originalaudiofilename>
														</logginginfo>
														<colorinfo>
															<lut></lut>
															<lut1></lut1>
															<asc_sop></asc_sop>
															<asc_sat></asc_sat>
															<lut2></lut2>
														</colorinfo>
														<labels>
															<label2>Iris</label2>
														</labels>
													</clipitem>
													<transitionitem>
														<start>1809</start>
														<end>1839</end>
														<pproTicksIn>15332481964800</pproTicksIn>
														<pproTicksOut>15586751980800</pproTicksOut>
														<alignment>center</alignment>
														<cutPointTicks>127135008000</cutPointTicks>
														<rate>
															<timebase>30</timebase>
															<ntsc>TRUE</ntsc>
														</rate>
														<effect>
															<name>Cross Fade (+3dB)</name>
															<effectid>KGAudioTransCrossFade3dB</effectid>
															<effecttype>transition</effecttype>
															<mediatype>audio</mediatype>
															<wipecode>0</wipecode>
															<wipeaccuracy>100</wipeaccuracy>
															<startratio>0</startratio>
															<endratio>1</endratio>
															<reverse>FALSE</reverse>
														</effect>
													</transitionitem>
													<clipitem id="clipitem-406" premiereChannelType="stereo">
														<masterclipid>masterclip-147</masterclipid>
														<name>(TysyTube Restoration)_Zippo Lighter Restoration D-Day WW2 - 1944 Largest Amphibious Invasion_dmguX9q_DLM_YT.mp4</name>
														<enabled>TRUE</enabled>
														<duration>24989</duration>
														<rate>
															<timebase>30</timebase>
															<ntsc>TRUE</ntsc>
														</rate>
														<start>-1</start>
														<end>-1</end>
														<in>20796</in>
														<out>20893</out>
														<pproTicksIn>176259975091200</pproTicksIn>
														<pproTicksOut>177082114809600</pproTicksOut>
														<file id="file-142"/>
														<sourcetrack>
															<mediatype>audio</mediatype>
															<trackindex>1</trackindex>
														</sourcetrack>
														<link>
															<linkclipref>clipitem-389</linkclipref>
															<mediatype>video</mediatype>
															<trackindex>1</trackindex>
															<clipindex>7</clipindex>
														</link>
														<link>
															<linkclipref>clipitem-406</linkclipref>
															<mediatype>audio</mediatype>
															<trackindex>1</trackindex>
															<clipindex>14</clipindex>
															<groupindex>1</groupindex>
														</link>
														<link>
															<linkclipref>clipitem-421</linkclipref>
															<mediatype>audio</mediatype>
															<trackindex>2</trackindex>
															<clipindex>14</clipindex>
															<groupindex>1</groupindex>
														</link>
														<logginginfo>
															<description></description>
															<scene></scene>
															<shottake></shottake>
															<lognote>https://www.youtube.com/watch?v=dmguX9q_DLM</lognote>
															<good></good>
															<originalvideofilename></originalvideofilename>
															<originalaudiofilename></originalaudiofilename>
														</logginginfo>
														<colorinfo>
															<lut></lut>
															<lut1></lut1>
															<asc_sop></asc_sop>
															<asc_sat></asc_sat>
															<lut2></lut2>
														</colorinfo>
														<labels>
															<label2>Iris</label2>
														</labels>
													</clipitem>
													<transitionitem>
														<start>1876</start>
														<end>1906</end>
														<pproTicksIn>15900351667200</pproTicksIn>
														<pproTicksOut>16154621683200</pproTicksOut>
														<alignment>center</alignment>
														<cutPointTicks>127135008000</cutPointTicks>
														<rate>
															<timebase>30</timebase>
															<ntsc>TRUE</ntsc>
														</rate>
														<effect>
															<name>Cross Fade (+3dB)</name>
															<effectid>KGAudioTransCrossFade3dB</effectid>
															<effecttype>transition</effecttype>
															<mediatype>audio</mediatype>
															<wipecode>0</wipecode>
															<wipeaccuracy>100</wipeaccuracy>
															<startratio>0</startratio>
															<endratio>1</endratio>
															<reverse>FALSE</reverse>
														</effect>
													</transitionitem>
													<clipitem id="clipitem-407" premiereChannelType="stereo">
														<masterclipid>masterclip-147</masterclipid>
														<name>(TysyTube Restoration)_Zippo Lighter Restoration D-Day WW2 - 1944 Largest Amphibious Invasion_dmguX9q_DLM_YT.mp4</name>
														<enabled>TRUE</enabled>
														<duration>24989</duration>
														<rate>
															<timebase>30</timebase>
															<ntsc>TRUE</ntsc>
														</rate>
														<start>-1</start>
														<end>-1</end>
														<in>21023</in>
														<out>21161</out>
														<pproTicksIn>178183951545600</pproTicksIn>
														<pproTicksOut>179353593619200</pproTicksOut>
														<file id="file-142"/>
														<sourcetrack>
															<mediatype>audio</mediatype>
															<trackindex>1</trackindex>
														</sourcetrack>
														<link>
															<linkclipref>clipitem-390</linkclipref>
															<mediatype>video</mediatype>
															<trackindex>1</trackindex>
															<clipindex>8</clipindex>
														</link>
														<link>
															<linkclipref>clipitem-407</linkclipref>
															<mediatype>audio</mediatype>
															<trackindex>1</trackindex>
															<clipindex>16</clipindex>
															<groupindex>1</groupindex>
														</link>
														<link>
															<linkclipref>clipitem-422</linkclipref>
															<mediatype>audio</mediatype>
															<trackindex>2</trackindex>
															<clipindex>16</clipindex>
															<groupindex>1</groupindex>
														</link>
														<logginginfo>
															<description></description>
															<scene></scene>
															<shottake></shottake>
															<lognote>https://www.youtube.com/watch?v=dmguX9q_DLM</lognote>
															<good></good>
															<originalvideofilename></originalvideofilename>
															<originalaudiofilename></originalaudiofilename>
														</logginginfo>
														<colorinfo>
															<lut></lut>
															<lut1></lut1>
															<asc_sop></asc_sop>
															<asc_sat></asc_sat>
															<lut2></lut2>
														</colorinfo>
														<labels>
															<label2>Iris</label2>
														</labels>
													</clipitem>
													<transitionitem>
														<start>1984</start>
														<end>2014</end>
														<pproTicksIn>16815723724800</pproTicksIn>
														<pproTicksOut>17069993740800</pproTicksOut>
														<alignment>center</alignment>
														<cutPointTicks>127135008000</cutPointTicks>
														<rate>
															<timebase>30</timebase>
															<ntsc>TRUE</ntsc>
														</rate>
														<effect>
															<name>Cross Fade (+3dB)</name>
															<effectid>KGAudioTransCrossFade3dB</effectid>
															<effecttype>transition</effecttype>
															<mediatype>audio</mediatype>
															<wipecode>0</wipecode>
															<wipeaccuracy>100</wipeaccuracy>
															<startratio>0</startratio>
															<endratio>1</endratio>
															<reverse>FALSE</reverse>
														</effect>
													</transitionitem>
													<clipitem id="clipitem-408" premiereChannelType="stereo">
														<masterclipid>masterclip-147</masterclipid>
														<name>(TysyTube Restoration)_Zippo Lighter Restoration D-Day WW2 - 1944 Largest Amphibious Invasion_dmguX9q_DLM_YT.mp4</name>
														<enabled>TRUE</enabled>
														<duration>24989</duration>
														<rate>
															<timebase>30</timebase>
															<ntsc>TRUE</ntsc>
														</rate>
														<start>-1</start>
														<end>-1</end>
														<in>21242</in>
														<out>21395</out>
														<pproTicksIn>180040122662400</pproTicksIn>
														<pproTicksOut>181336899744000</pproTicksOut>
														<file id="file-142"/>
														<sourcetrack>
															<mediatype>audio</mediatype>
															<trackindex>1</trackindex>
														</sourcetrack>
														<link>
															<linkclipref>clipitem-391</linkclipref>
															<mediatype>video</mediatype>
															<trackindex>1</trackindex>
															<clipindex>9</clipindex>
														</link>
														<link>
															<linkclipref>clipitem-408</linkclipref>
															<mediatype>audio</mediatype>
															<trackindex>1</trackindex>
															<clipindex>18</clipindex>
															<groupindex>1</groupindex>
														</link>
														<link>
															<linkclipref>clipitem-423</linkclipref>
															<mediatype>audio</mediatype>
															<trackindex>2</trackindex>
															<clipindex>18</clipindex>
															<groupindex>1</groupindex>
														</link>
														<logginginfo>
															<description></description>
															<scene></scene>
															<shottake></shottake>
															<lognote>https://www.youtube.com/watch?v=dmguX9q_DLM</lognote>
															<good></good>
															<originalvideofilename></originalvideofilename>
															<originalaudiofilename></originalaudiofilename>
														</logginginfo>
														<colorinfo>
															<lut></lut>
															<lut1></lut1>
															<asc_sop></asc_sop>
															<asc_sat></asc_sat>
															<lut2></lut2>
														</colorinfo>
														<labels>
															<label2>Iris</label2>
														</labels>
													</clipitem>
													<transitionitem>
														<start>2107</start>
														<end>2137</end>
														<pproTicksIn>17858230790400</pproTicksIn>
														<pproTicksOut>18112500806400</pproTicksOut>
														<alignment>center</alignment>
														<cutPointTicks>127135008000</cutPointTicks>
														<rate>
															<timebase>30</timebase>
															<ntsc>TRUE</ntsc>
														</rate>
														<effect>
															<name>Cross Fade (+3dB)</name>
															<effectid>KGAudioTransCrossFade3dB</effectid>
															<effecttype>transition</effecttype>
															<mediatype>audio</mediatype>
															<wipecode>0</wipecode>
															<wipeaccuracy>100</wipeaccuracy>
															<startratio>0</startratio>
															<endratio>1</endratio>
															<reverse>FALSE</reverse>
														</effect>
													</transitionitem>
													<clipitem id="clipitem-409" premiereChannelType="stereo">
														<masterclipid>masterclip-147</masterclipid>
														<name>(TysyTube Restoration)_Zippo Lighter Restoration D-Day WW2 - 1944 Largest Amphibious Invasion_dmguX9q_DLM_YT.mp4</name>
														<enabled>TRUE</enabled>
														<duration>24989</duration>
														<rate>
															<timebase>30</timebase>
															<ntsc>TRUE</ntsc>
														</rate>
														<start>-1</start>
														<end>-1</end>
														<in>21542</in>
														<out>21669</out>
														<pproTicksIn>182582822822400</pproTicksIn>
														<pproTicksOut>183659232556800</pproTicksOut>
														<file id="file-142"/>
														<sourcetrack>
															<mediatype>audio</mediatype>
															<trackindex>1</trackindex>
														</sourcetrack>
														<link>
															<linkclipref>clipitem-392</linkclipref>
															<mediatype>video</mediatype>
															<trackindex>1</trackindex>
															<clipindex>10</clipindex>
														</link>
														<link>
															<linkclipref>clipitem-409</linkclipref>
															<mediatype>audio</mediatype>
															<trackindex>1</trackindex>
															<clipindex>20</clipindex>
															<groupindex>1</groupindex>
														</link>
														<link>
															<linkclipref>clipitem-424</linkclipref>
															<mediatype>audio</mediatype>
															<trackindex>2</trackindex>
															<clipindex>20</clipindex>
															<groupindex>1</groupindex>
														</link>
														<logginginfo>
															<description></description>
															<scene></scene>
															<shottake></shottake>
															<lognote>https://www.youtube.com/watch?v=dmguX9q_DLM</lognote>
															<good></good>
															<originalvideofilename></originalvideofilename>
															<originalaudiofilename></originalaudiofilename>
														</logginginfo>
														<colorinfo>
															<lut></lut>
															<lut1></lut1>
															<asc_sop></asc_sop>
															<asc_sat></asc_sat>
															<lut2></lut2>
														</colorinfo>
														<labels>
															<label2>Iris</label2>
														</labels>
													</clipitem>
													<transitionitem>
														<start>2204</start>
														<end>2234</end>
														<pproTicksIn>18680370508800</pproTicksIn>
														<pproTicksOut>18934640524800</pproTicksOut>
														<alignment>center</alignment>
														<cutPointTicks>127135008000</cutPointTicks>
														<rate>
															<timebase>30</timebase>
															<ntsc>TRUE</ntsc>
														</rate>
														<effect>
															<name>Cross Fade (+3dB)</name>
															<effectid>KGAudioTransCrossFade3dB</effectid>
															<effecttype>transition</effecttype>
															<mediatype>audio</mediatype>
															<wipecode>0</wipecode>
															<wipeaccuracy>100</wipeaccuracy>
															<startratio>0</startratio>
															<endratio>1</endratio>
															<reverse>FALSE</reverse>
														</effect>
													</transitionitem>
													<clipitem id="clipitem-410" premiereChannelType="stereo">
														<masterclipid>masterclip-147</masterclipid>
														<name>(TysyTube Restoration)_Zippo Lighter Restoration D-Day WW2 - 1944 Largest Amphibious Invasion_dmguX9q_DLM_YT.mp4</name>
														<enabled>TRUE</enabled>
														<duration>24989</duration>
														<rate>
															<timebase>30</timebase>
															<ntsc>TRUE</ntsc>
														</rate>
														<start>-1</start>
														<end>-1</end>
														<in>21925</in>
														<out>22100</out>
														<pproTicksIn>185829003360000</pproTicksIn>
														<pproTicksOut>187312245120000</pproTicksOut>
														<file id="file-142"/>
														<sourcetrack>
															<mediatype>audio</mediatype>
															<trackindex>1</trackindex>
														</sourcetrack>
														<link>
															<linkclipref>clipitem-393</linkclipref>
															<mediatype>video</mediatype>
															<trackindex>1</trackindex>
															<clipindex>11</clipindex>
														</link>
														<link>
															<linkclipref>clipitem-410</linkclipref>
															<mediatype>audio</mediatype>
															<trackindex>1</trackindex>
															<clipindex>22</clipindex>
															<groupindex>1</groupindex>
														</link>
														<link>
															<linkclipref>clipitem-425</linkclipref>
															<mediatype>audio</mediatype>
															<trackindex>2</trackindex>
															<clipindex>22</clipindex>
															<groupindex>1</groupindex>
														</link>
														<logginginfo>
															<description></description>
															<scene></scene>
															<shottake></shottake>
															<lognote>https://www.youtube.com/watch?v=dmguX9q_DLM</lognote>
															<good></good>
															<originalvideofilename></originalvideofilename>
															<originalaudiofilename></originalaudiofilename>
														</logginginfo>
														<colorinfo>
															<lut></lut>
															<lut1></lut1>
															<asc_sop></asc_sop>
															<asc_sat></asc_sat>
															<lut2></lut2>
														</colorinfo>
														<labels>
															<label2>Iris</label2>
														</labels>
													</clipitem>
													<transitionitem>
														<start>2349</start>
														<end>2379</end>
														<pproTicksIn>19909342252800</pproTicksIn>
														<pproTicksOut>20163612268800</pproTicksOut>
														<alignment>center</alignment>
														<cutPointTicks>127135008000</cutPointTicks>
														<rate>
															<timebase>30</timebase>
															<ntsc>TRUE</ntsc>
														</rate>
														<effect>
															<name>Cross Fade (+3dB)</name>
															<effectid>KGAudioTransCrossFade3dB</effectid>
															<effecttype>transition</effecttype>
															<mediatype>audio</mediatype>
															<wipecode>0</wipecode>
															<wipeaccuracy>100</wipeaccuracy>
															<startratio>0</startratio>
															<endratio>1</endratio>
															<reverse>FALSE</reverse>
														</effect>
													</transitionitem>
													<clipitem id="clipitem-411" premiereChannelType="stereo">
														<masterclipid>masterclip-147</masterclipid>
														<name>(TysyTube Restoration)_Zippo Lighter Restoration D-Day WW2 - 1944 Largest Amphibious Invasion_dmguX9q_DLM_YT.mp4</name>
														<enabled>TRUE</enabled>
														<duration>24989</duration>
														<rate>
															<timebase>30</timebase>
															<ntsc>TRUE</ntsc>
														</rate>
														<start>-1</start>
														<end>-1</end>
														<in>22953</in>
														<out>23128</out>
														<pproTicksIn>194541989241600</pproTicksIn>
														<pproTicksOut>196025231001600</pproTicksOut>
														<file id="file-142"/>
														<sourcetrack>
															<mediatype>audio</mediatype>
															<trackindex>1</trackindex>
														</sourcetrack>
														<link>
															<linkclipref>clipitem-394</linkclipref>
															<mediatype>video</mediatype>
															<trackindex>1</trackindex>
															<clipindex>12</clipindex>
														</link>
														<link>
															<linkclipref>clipitem-411</linkclipref>
															<mediatype>audio</mediatype>
															<trackindex>1</trackindex>
															<clipindex>24</clipindex>
															<groupindex>1</groupindex>
														</link>
														<link>
															<linkclipref>clipitem-426</linkclipref>
															<mediatype>audio</mediatype>
															<trackindex>2</trackindex>
															<clipindex>24</clipindex>
															<groupindex>1</groupindex>
														</link>
														<logginginfo>
															<description></description>
															<scene></scene>
															<shottake></shottake>
															<lognote>https://www.youtube.com/watch?v=dmguX9q_DLM</lognote>
															<good></good>
															<originalvideofilename></originalvideofilename>
															<originalaudiofilename></originalaudiofilename>
														</logginginfo>
														<colorinfo>
															<lut></lut>
															<lut1></lut1>
															<asc_sop></asc_sop>
															<asc_sat></asc_sat>
															<lut2></lut2>
														</colorinfo>
														<labels>
															<label2>Iris</label2>
														</labels>
													</clipitem>
													<transitionitem>
														<start>2494</start>
														<end>2524</end>
														<pproTicksIn>21138313996800</pproTicksIn>
														<pproTicksOut>21392584012800</pproTicksOut>
														<alignment>center</alignment>
														<cutPointTicks>127135008000</cutPointTicks>
														<rate>
															<timebase>30</timebase>
															<ntsc>TRUE</ntsc>
														</rate>
														<effect>
															<name>Cross Fade (+3dB)</name>
															<effectid>KGAudioTransCrossFade3dB</effectid>
															<effecttype>transition</effecttype>
															<mediatype>audio</mediatype>
															<wipecode>0</wipecode>
															<wipeaccuracy>100</wipeaccuracy>
															<startratio>0</startratio>
															<endratio>1</endratio>
															<reverse>FALSE</reverse>
														</effect>
													</transitionitem>
													<clipitem id="clipitem-412" premiereChannelType="stereo">
														<masterclipid>masterclip-147</masterclipid>
														<name>(TysyTube Restoration)_Zippo Lighter Restoration D-Day WW2 - 1944 Largest Amphibious Invasion_dmguX9q_DLM_YT.mp4</name>
														<enabled>TRUE</enabled>
														<duration>24989</duration>
														<rate>
															<timebase>30</timebase>
															<ntsc>TRUE</ntsc>
														</rate>
														<start>-1</start>
														<end>-1</end>
														<in>23199</in>
														<out>23365</out>
														<pproTicksIn>196627003372800</pproTicksIn>
														<pproTicksOut>198033964128000</pproTicksOut>
														<file id="file-142"/>
														<sourcetrack>
															<mediatype>audio</mediatype>
															<trackindex>1</trackindex>
														</sourcetrack>
														<link>
															<linkclipref>clipitem-395</linkclipref>
															<mediatype>video</mediatype>
															<trackindex>1</trackindex>
															<clipindex>13</clipindex>
														</link>
														<link>
															<linkclipref>clipitem-412</linkclipref>
															<mediatype>audio</mediatype>
															<trackindex>1</trackindex>
															<clipindex>26</clipindex>
															<groupindex>1</groupindex>
														</link>
														<link>
															<linkclipref>clipitem-427</linkclipref>
															<mediatype>audio</mediatype>
															<trackindex>2</trackindex>
															<clipindex>26</clipindex>
															<groupindex>1</groupindex>
														</link>
														<logginginfo>
															<description></description>
															<scene></scene>
															<shottake></shottake>
															<lognote>https://www.youtube.com/watch?v=dmguX9q_DLM</lognote>
															<good></good>
															<originalvideofilename></originalvideofilename>
															<originalaudiofilename></originalaudiofilename>
														</logginginfo>
														<colorinfo>
															<lut></lut>
															<lut1></lut1>
															<asc_sop></asc_sop>
															<asc_sat></asc_sat>
															<lut2></lut2>
														</colorinfo>
														<labels>
															<label2>Iris</label2>
														</labels>
													</clipitem>
													<transitionitem>
														<start>2630</start>
														<end>2660</end>
														<pproTicksIn>22291004736000</pproTicksIn>
														<pproTicksOut>22545274752000</pproTicksOut>
														<alignment>center</alignment>
														<cutPointTicks>127135008000</cutPointTicks>
														<rate>
															<timebase>30</timebase>
															<ntsc>TRUE</ntsc>
														</rate>
														<effect>
															<name>Cross Fade (+3dB)</name>
															<effectid>KGAudioTransCrossFade3dB</effectid>
															<effecttype>transition</effecttype>
															<mediatype>audio</mediatype>
															<wipecode>0</wipecode>
															<wipeaccuracy>100</wipeaccuracy>
															<startratio>0</startratio>
															<endratio>1</endratio>
															<reverse>FALSE</reverse>
														</effect>
													</transitionitem>
													<clipitem id="clipitem-413" premiereChannelType="stereo">
														<masterclipid>masterclip-147</masterclipid>
														<name>(TysyTube Restoration)_Zippo Lighter Restoration D-Day WW2 - 1944 Largest Amphibious Invasion_dmguX9q_DLM_YT.mp4</name>
														<enabled>TRUE</enabled>
														<duration>24989</duration>
														<rate>
															<timebase>30</timebase>
															<ntsc>TRUE</ntsc>
														</rate>
														<start>-1</start>
														<end>-1</end>
														<in>23444</in>
														<out>23621</out>
														<pproTicksIn>198703541836800</pproTicksIn>
														<pproTicksOut>200203734931200</pproTicksOut>
														<file id="file-142"/>
														<sourcetrack>
															<mediatype>audio</mediatype>
															<trackindex>1</trackindex>
														</sourcetrack>
														<link>
															<linkclipref>clipitem-396</linkclipref>
															<mediatype>video</mediatype>
															<trackindex>1</trackindex>
															<clipindex>14</clipindex>
														</link>
														<link>
															<linkclipref>clipitem-413</linkclipref>
															<mediatype>audio</mediatype>
															<trackindex>1</trackindex>
															<clipindex>28</clipindex>
															<groupindex>1</groupindex>
														</link>
														<link>
															<linkclipref>clipitem-428</linkclipref>
															<mediatype>audio</mediatype>
															<trackindex>2</trackindex>
															<clipindex>28</clipindex>
															<groupindex>1</groupindex>
														</link>
														<logginginfo>
															<description></description>
															<scene></scene>
															<shottake></shottake>
															<lognote>https://www.youtube.com/watch?v=dmguX9q_DLM</lognote>
															<good></good>
															<originalvideofilename></originalvideofilename>
															<originalaudiofilename></originalaudiofilename>
														</logginginfo>
														<colorinfo>
															<lut></lut>
															<lut1></lut1>
															<asc_sop></asc_sop>
															<asc_sat></asc_sat>
															<lut2></lut2>
														</colorinfo>
														<labels>
															<label2>Iris</label2>
														</labels>
													</clipitem>
													<transitionitem>
														<start>2777</start>
														<end>2807</end>
														<pproTicksIn>23536927814400</pproTicksIn>
														<pproTicksOut>23791197830400</pproTicksOut>
														<alignment>center</alignment>
														<cutPointTicks>127135008000</cutPointTicks>
														<rate>
															<timebase>30</timebase>
															<ntsc>TRUE</ntsc>
														</rate>
														<effect>
															<name>Cross Fade (+3dB)</name>
															<effectid>KGAudioTransCrossFade3dB</effectid>
															<effecttype>transition</effecttype>
															<mediatype>audio</mediatype>
															<wipecode>0</wipecode>
															<wipeaccuracy>100</wipeaccuracy>
															<startratio>0</startratio>
															<endratio>1</endratio>
															<reverse>FALSE</reverse>
														</effect>
													</transitionitem>
													<clipitem id="clipitem-414" premiereChannelType="stereo">
														<masterclipid>masterclip-147</masterclipid>
														<name>(TysyTube Restoration)_Zippo Lighter Restoration D-Day WW2 - 1944 Largest Amphibious Invasion_dmguX9q_DLM_YT.mp4</name>
														<enabled>TRUE</enabled>
														<duration>24989</duration>
														<rate>
															<timebase>30</timebase>
															<ntsc>TRUE</ntsc>
														</rate>
														<start>-1</start>
														<end>-1</end>
														<in>24181</in>
														<out>24408</out>
														<pproTicksIn>204950108563200</pproTicksIn>
														<pproTicksOut>206874085017600</pproTicksOut>
														<file id="file-142"/>
														<sourcetrack>
															<mediatype>audio</mediatype>
															<trackindex>1</trackindex>
														</sourcetrack>
														<link>
															<linkclipref>clipitem-397</linkclipref>
															<mediatype>video</mediatype>
															<trackindex>1</trackindex>
															<clipindex>15</clipindex>
														</link>
														<link>
															<linkclipref>clipitem-414</linkclipref>
															<mediatype>audio</mediatype>
															<trackindex>1</trackindex>
															<clipindex>30</clipindex>
															<groupindex>1</groupindex>
														</link>
														<link>
															<linkclipref>clipitem-429</linkclipref>
															<mediatype>audio</mediatype>
															<trackindex>2</trackindex>
															<clipindex>30</clipindex>
															<groupindex>1</groupindex>
														</link>
														<logginginfo>
															<description></description>
															<scene></scene>
															<shottake></shottake>
															<lognote>https://www.youtube.com/watch?v=dmguX9q_DLM</lognote>
															<good></good>
															<originalvideofilename></originalvideofilename>
															<originalaudiofilename></originalaudiofilename>
														</logginginfo>
														<colorinfo>
															<lut></lut>
															<lut1></lut1>
															<asc_sop></asc_sop>
															<asc_sat></asc_sat>
															<lut2></lut2>
														</colorinfo>
														<labels>
															<label2>Iris</label2>
														</labels>
													</clipitem>
													<transitionitem>
														<start>2974</start>
														<end>3004</end>
														<pproTicksIn>25206634252800</pproTicksIn>
														<pproTicksOut>25460904268800</pproTicksOut>
														<alignment>end-black</alignment>
														<cutPointTicks>254270016000</cutPointTicks>
														<rate>
															<timebase>30</timebase>
															<ntsc>TRUE</ntsc>
														</rate>
														<effect>
															<name>Cross Fade (+3dB)</name>
															<effectid>KGAudioTransCrossFade3dB</effectid>
															<effecttype>transition</effecttype>
															<mediatype>audio</mediatype>
															<wipecode>0</wipecode>
															<wipeaccuracy>100</wipeaccuracy>
															<startratio>0</startratio>
															<endratio>1</endratio>
															<reverse>FALSE</reverse>
														</effect>
													</transitionitem>
													<enabled>TRUE</enabled>
													<locked>FALSE</locked>
													<filter>
														<effect>
															<name>Audio Levels</name>
															<effectid>audiolevels</effectid>
															<effectcategory>audiolevels</effectcategory>
															<effecttype>audiolevels</effecttype>
															<mediatype>audio</mediatype>
															<parameter authoringApp="PremierePro">
																<parameterid>level</parameterid>
																<name>Level</name>
																<valuemin>0</valuemin>
																<valuemax>3.98109</valuemax>
																<value>0.706272</value>
															</parameter>
														</effect>
													</filter>
													<outputchannelindex>1</outputchannelindex>
												</track>
												<track TL.SQTrackAudioKeyframeStyle="0" TL.SQTrackShy="0" TL.SQTrackExpandedHeight="25" TL.SQTrackExpanded="0" MZ.TrackTargeted="1" PannerCurrentValue="0.5" PannerIsInverted="true" PannerStartKeyframe="-91445760000000000,0.5,0,0,0,0,0,0" PannerName="Balance" currentExplodedTrackIndex="1" totalExplodedTrackCount="2" premiereTrackType="Stereo">
													<transitionitem>
														<start>0</start>
														<end>30</end>
														<pproTicksIn>0</pproTicksIn>
														<pproTicksOut>254270016000</pproTicksOut>
														<alignment>start-black</alignment>
														<cutPointTicks>0</cutPointTicks>
														<rate>
															<timebase>30</timebase>
															<ntsc>TRUE</ntsc>
														</rate>
														<effect>
															<name>Cross Fade (+3dB)</name>
															<effectid>KGAudioTransCrossFade3dB</effectid>
															<effecttype>transition</effecttype>
															<mediatype>audio</mediatype>
															<wipecode>0</wipecode>
															<wipeaccuracy>100</wipeaccuracy>
															<startratio>0</startratio>
															<endratio>1</endratio>
															<reverse>FALSE</reverse>
														</effect>
													</transitionitem>
													<clipitem id="clipitem-415" premiereChannelType="stereo">
														<masterclipid>masterclip-147</masterclipid>
														<name>(TysyTube Restoration)_Zippo Lighter Restoration D-Day WW2 - 1944 Largest Amphibious Invasion_dmguX9q_DLM_YT.mp4</name>
														<enabled>TRUE</enabled>
														<duration>24989</duration>
														<rate>
															<timebase>30</timebase>
															<ntsc>TRUE</ntsc>
														</rate>
														<start>-1</start>
														<end>-1</end>
														<in>16578</in>
														<out>17118</out>
														<pproTicksIn>140509610841600</pproTicksIn>
														<pproTicksOut>145086471129600</pproTicksOut>
														<file id="file-142"/>
														<sourcetrack>
															<mediatype>audio</mediatype>
															<trackindex>2</trackindex>
														</sourcetrack>
														<link>
															<linkclipref>clipitem-383</linkclipref>
															<mediatype>video</mediatype>
															<trackindex>1</trackindex>
															<clipindex>1</clipindex>
														</link>
														<link>
															<linkclipref>clipitem-400</linkclipref>
															<mediatype>audio</mediatype>
															<trackindex>1</trackindex>
															<clipindex>2</clipindex>
															<groupindex>1</groupindex>
														</link>
														<link>
															<linkclipref>clipitem-415</linkclipref>
															<mediatype>audio</mediatype>
															<trackindex>2</trackindex>
															<clipindex>2</clipindex>
															<groupindex>1</groupindex>
														</link>
														<logginginfo>
															<description></description>
															<scene></scene>
															<shottake></shottake>
															<lognote>https://www.youtube.com/watch?v=dmguX9q_DLM</lognote>
															<good></good>
															<originalvideofilename></originalvideofilename>
															<originalaudiofilename></originalaudiofilename>
														</logginginfo>
														<colorinfo>
															<lut></lut>
															<lut1></lut1>
															<asc_sop></asc_sop>
															<asc_sat></asc_sat>
															<lut2></lut2>
														</colorinfo>
														<labels>
															<label2>Iris</label2>
														</labels>
													</clipitem>
													<transitionitem>
														<start>510</start>
														<end>540</end>
														<pproTicksIn>4322590272000</pproTicksIn>
														<pproTicksOut>4576860288000</pproTicksOut>
														<alignment>center</alignment>
														<cutPointTicks>127135008000</cutPointTicks>
														<rate>
															<timebase>30</timebase>
															<ntsc>TRUE</ntsc>
														</rate>
														<effect>
															<name>Cross Fade (+3dB)</name>
															<effectid>KGAudioTransCrossFade3dB</effectid>
															<effecttype>transition</effecttype>
															<mediatype>audio</mediatype>
															<wipecode>0</wipecode>
															<wipeaccuracy>100</wipeaccuracy>
															<startratio>0</startratio>
															<endratio>1</endratio>
															<reverse>FALSE</reverse>
														</effect>
													</transitionitem>
													<clipitem id="clipitem-416" premiereChannelType="stereo">
														<masterclipid>masterclip-147</masterclipid>
														<name>(TysyTube Restoration)_Zippo Lighter Restoration D-Day WW2 - 1944 Largest Amphibious Invasion_dmguX9q_DLM_YT.mp4</name>
														<enabled>TRUE</enabled>
														<duration>24989</duration>
														<rate>
															<timebase>30</timebase>
															<ntsc>TRUE</ntsc>
														</rate>
														<start>-1</start>
														<end>-1</end>
														<in>17186</in>
														<out>17472</out>
														<pproTicksIn>145662816499200</pproTicksIn>
														<pproTicksOut>148086857318400</pproTicksOut>
														<file id="file-142"/>
														<sourcetrack>
															<mediatype>audio</mediatype>
															<trackindex>2</trackindex>
														</sourcetrack>
														<link>
															<linkclipref>clipitem-384</linkclipref>
															<mediatype>video</mediatype>
															<trackindex>1</trackindex>
															<clipindex>2</clipindex>
														</link>
														<link>
															<linkclipref>clipitem-401</linkclipref>
															<mediatype>audio</mediatype>
															<trackindex>1</trackindex>
															<clipindex>4</clipindex>
															<groupindex>1</groupindex>
														</link>
														<link>
															<linkclipref>clipitem-416</linkclipref>
															<mediatype>audio</mediatype>
															<trackindex>2</trackindex>
															<clipindex>4</clipindex>
															<groupindex>1</groupindex>
														</link>
														<logginginfo>
															<description></description>
															<scene></scene>
															<shottake></shottake>
															<lognote>https://www.youtube.com/watch?v=dmguX9q_DLM</lognote>
															<good></good>
															<originalvideofilename></originalvideofilename>
															<originalaudiofilename></originalaudiofilename>
														</logginginfo>
														<colorinfo>
															<lut></lut>
															<lut1></lut1>
															<asc_sop></asc_sop>
															<asc_sat></asc_sat>
															<lut2></lut2>
														</colorinfo>
														<labels>
															<label2>Iris</label2>
														</labels>
													</clipitem>
													<transitionitem>
														<start>766</start>
														<end>796</end>
														<pproTicksIn>6492361075200</pproTicksIn>
														<pproTicksOut>6746631091200</pproTicksOut>
														<alignment>center</alignment>
														<cutPointTicks>127135008000</cutPointTicks>
														<rate>
															<timebase>30</timebase>
															<ntsc>TRUE</ntsc>
														</rate>
														<effect>
															<name>Cross Fade (+3dB)</name>
															<effectid>KGAudioTransCrossFade3dB</effectid>
															<effecttype>transition</effecttype>
															<mediatype>audio</mediatype>
															<wipecode>0</wipecode>
															<wipeaccuracy>100</wipeaccuracy>
															<startratio>0</startratio>
															<endratio>1</endratio>
															<reverse>FALSE</reverse>
														</effect>
													</transitionitem>
													<clipitem id="clipitem-417" premiereChannelType="stereo">
														<masterclipid>masterclip-147</masterclipid>
														<name>(TysyTube Restoration)_Zippo Lighter Restoration D-Day WW2 - 1944 Largest Amphibious Invasion_dmguX9q_DLM_YT.mp4</name>
														<enabled>TRUE</enabled>
														<duration>24989</duration>
														<rate>
															<timebase>30</timebase>
															<ntsc>TRUE</ntsc>
														</rate>
														<start>-1</start>
														<end>-1</end>
														<in>17442</in>
														<out>17854</out>
														<pproTicksIn>147832587302400</pproTicksIn>
														<pproTicksOut>151324562188800</pproTicksOut>
														<file id="file-142"/>
														<sourcetrack>
															<mediatype>audio</mediatype>
															<trackindex>2</trackindex>
														</sourcetrack>
														<link>
															<linkclipref>clipitem-385</linkclipref>
															<mediatype>video</mediatype>
															<trackindex>1</trackindex>
															<clipindex>3</clipindex>
														</link>
														<link>
															<linkclipref>clipitem-402</linkclipref>
															<mediatype>audio</mediatype>
															<trackindex>1</trackindex>
															<clipindex>6</clipindex>
															<groupindex>1</groupindex>
														</link>
														<link>
															<linkclipref>clipitem-417</linkclipref>
															<mediatype>audio</mediatype>
															<trackindex>2</trackindex>
															<clipindex>6</clipindex>
															<groupindex>1</groupindex>
														</link>
														<logginginfo>
															<description></description>
															<scene></scene>
															<shottake></shottake>
															<lognote>https://www.youtube.com/watch?v=dmguX9q_DLM</lognote>
															<good></good>
															<originalvideofilename></originalvideofilename>
															<originalaudiofilename></originalaudiofilename>
														</logginginfo>
														<colorinfo>
															<lut></lut>
															<lut1></lut1>
															<asc_sop></asc_sop>
															<asc_sat></asc_sat>
															<lut2></lut2>
														</colorinfo>
														<labels>
															<label2>Iris</label2>
														</labels>
													</clipitem>
													<transitionitem>
														<start>1148</start>
														<end>1178</end>
														<pproTicksIn>9730065945600</pproTicksIn>
														<pproTicksOut>9984335961600</pproTicksOut>
														<alignment>center</alignment>
														<cutPointTicks>127135008000</cutPointTicks>
														<rate>
															<timebase>30</timebase>
															<ntsc>TRUE</ntsc>
														</rate>
														<effect>
															<name>Cross Fade (+3dB)</name>
															<effectid>KGAudioTransCrossFade3dB</effectid>
															<effecttype>transition</effecttype>
															<mediatype>audio</mediatype>
															<wipecode>0</wipecode>
															<wipeaccuracy>100</wipeaccuracy>
															<startratio>0</startratio>
															<endratio>1</endratio>
															<reverse>FALSE</reverse>
														</effect>
													</transitionitem>
													<clipitem id="clipitem-418" premiereChannelType="stereo">
														<masterclipid>masterclip-147</masterclipid>
														<name>(TysyTube Restoration)_Zippo Lighter Restoration D-Day WW2 - 1944 Largest Amphibious Invasion_dmguX9q_DLM_YT.mp4</name>
														<enabled>TRUE</enabled>
														<duration>24989</duration>
														<rate>
															<timebase>30</timebase>
															<ntsc>TRUE</ntsc>
														</rate>
														<start>-1</start>
														<end>-1</end>
														<in>17894</in>
														<out>18274</out>
														<pproTicksIn>151663588876800</pproTicksIn>
														<pproTicksOut>154884342412800</pproTicksOut>
														<file id="file-142"/>
														<sourcetrack>
															<mediatype>audio</mediatype>
															<trackindex>2</trackindex>
														</sourcetrack>
														<link>
															<linkclipref>clipitem-386</linkclipref>
															<mediatype>video</mediatype>
															<trackindex>1</trackindex>
															<clipindex>4</clipindex>
														</link>
														<link>
															<linkclipref>clipitem-403</linkclipref>
															<mediatype>audio</mediatype>
															<trackindex>1</trackindex>
															<clipindex>8</clipindex>
															<groupindex>1</groupindex>
														</link>
														<link>
															<linkclipref>clipitem-418</linkclipref>
															<mediatype>audio</mediatype>
															<trackindex>2</trackindex>
															<clipindex>8</clipindex>
															<groupindex>1</groupindex>
														</link>
														<logginginfo>
															<description></description>
															<scene></scene>
															<shottake></shottake>
															<lognote>https://www.youtube.com/watch?v=dmguX9q_DLM</lognote>
															<good></good>
															<originalvideofilename></originalvideofilename>
															<originalaudiofilename></originalaudiofilename>
														</logginginfo>
														<colorinfo>
															<lut></lut>
															<lut1></lut1>
															<asc_sop></asc_sop>
															<asc_sat></asc_sat>
															<lut2></lut2>
														</colorinfo>
														<labels>
															<label2>Iris</label2>
														</labels>
													</clipitem>
													<transitionitem>
														<start>1498</start>
														<end>1528</end>
														<pproTicksIn>12696549465600</pproTicksIn>
														<pproTicksOut>12950819481600</pproTicksOut>
														<alignment>center</alignment>
														<cutPointTicks>127135008000</cutPointTicks>
														<rate>
															<timebase>30</timebase>
															<ntsc>TRUE</ntsc>
														</rate>
														<effect>
															<name>Cross Fade (+3dB)</name>
															<effectid>KGAudioTransCrossFade3dB</effectid>
															<effecttype>transition</effecttype>
															<mediatype>audio</mediatype>
															<wipecode>0</wipecode>
															<wipeaccuracy>100</wipeaccuracy>
															<startratio>0</startratio>
															<endratio>1</endratio>
															<reverse>FALSE</reverse>
														</effect>
													</transitionitem>
													<clipitem id="clipitem-419" premiereChannelType="stereo">
														<masterclipid>masterclip-147</masterclipid>
														<name>(TysyTube Restoration)_Zippo Lighter Restoration D-Day WW2 - 1944 Largest Amphibious Invasion_dmguX9q_DLM_YT.mp4</name>
														<enabled>TRUE</enabled>
														<duration>24989</duration>
														<rate>
															<timebase>30</timebase>
															<ntsc>TRUE</ntsc>
														</rate>
														<start>-1</start>
														<end>-1</end>
														<in>19777</in>
														<out>19975</out>
														<pproTicksIn>167623270214400</pproTicksIn>
														<pproTicksOut>169301452320000</pproTicksOut>
														<file id="file-142"/>
														<sourcetrack>
															<mediatype>audio</mediatype>
															<trackindex>2</trackindex>
														</sourcetrack>
														<link>
															<linkclipref>clipitem-387</linkclipref>
															<mediatype>video</mediatype>
															<trackindex>1</trackindex>
															<clipindex>5</clipindex>
														</link>
														<link>
															<linkclipref>clipitem-404</linkclipref>
															<mediatype>audio</mediatype>
															<trackindex>1</trackindex>
															<clipindex>10</clipindex>
															<groupindex>1</groupindex>
														</link>
														<link>
															<linkclipref>clipitem-419</linkclipref>
															<mediatype>audio</mediatype>
															<trackindex>2</trackindex>
															<clipindex>10</clipindex>
															<groupindex>1</groupindex>
														</link>
														<logginginfo>
															<description></description>
															<scene></scene>
															<shottake></shottake>
															<lognote>https://www.youtube.com/watch?v=dmguX9q_DLM</lognote>
															<good></good>
															<originalvideofilename></originalvideofilename>
															<originalaudiofilename></originalaudiofilename>
														</logginginfo>
														<colorinfo>
															<lut></lut>
															<lut1></lut1>
															<asc_sop></asc_sop>
															<asc_sat></asc_sat>
															<lut2></lut2>
														</colorinfo>
														<labels>
															<label2>Iris</label2>
														</labels>
													</clipitem>
													<transitionitem>
														<start>1666</start>
														<end>1696</end>
														<pproTicksIn>14120461555200</pproTicksIn>
														<pproTicksOut>14374731571200</pproTicksOut>
														<alignment>center</alignment>
														<cutPointTicks>127135008000</cutPointTicks>
														<rate>
															<timebase>30</timebase>
															<ntsc>TRUE</ntsc>
														</rate>
														<effect>
															<name>Cross Fade (+3dB)</name>
															<effectid>KGAudioTransCrossFade3dB</effectid>
															<effecttype>transition</effecttype>
															<mediatype>audio</mediatype>
															<wipecode>0</wipecode>
															<wipeaccuracy>100</wipeaccuracy>
															<startratio>0</startratio>
															<endratio>1</endratio>
															<reverse>FALSE</reverse>
														</effect>
													</transitionitem>
													<clipitem id="clipitem-420" premiereChannelType="stereo">
														<masterclipid>masterclip-147</masterclipid>
														<name>(TysyTube Restoration)_Zippo Lighter Restoration D-Day WW2 - 1944 Largest Amphibious Invasion_dmguX9q_DLM_YT.mp4</name>
														<enabled>TRUE</enabled>
														<duration>24989</duration>
														<rate>
															<timebase>30</timebase>
															<ntsc>TRUE</ntsc>
														</rate>
														<start>-1</start>
														<end>-1</end>
														<in>20454</in>
														<out>20627</out>
														<pproTicksIn>173361296908800</pproTicksIn>
														<pproTicksOut>174827587334400</pproTicksOut>
														<file id="file-142"/>
														<sourcetrack>
															<mediatype>audio</mediatype>
															<trackindex>2</trackindex>
														</sourcetrack>
														<link>
															<linkclipref>clipitem-388</linkclipref>
															<mediatype>video</mediatype>
															<trackindex>1</trackindex>
															<clipindex>6</clipindex>
														</link>
														<link>
															<linkclipref>clipitem-405</linkclipref>
															<mediatype>audio</mediatype>
															<trackindex>1</trackindex>
															<clipindex>12</clipindex>
															<groupindex>1</groupindex>
														</link>
														<link>
															<linkclipref>clipitem-420</linkclipref>
															<mediatype>audio</mediatype>
															<trackindex>2</trackindex>
															<clipindex>12</clipindex>
															<groupindex>1</groupindex>
														</link>
														<logginginfo>
															<description></description>
															<scene></scene>
															<shottake></shottake>
															<lognote>https://www.youtube.com/watch?v=dmguX9q_DLM</lognote>
															<good></good>
															<originalvideofilename></originalvideofilename>
															<originalaudiofilename></originalaudiofilename>
														</logginginfo>
														<colorinfo>
															<lut></lut>
															<lut1></lut1>
															<asc_sop></asc_sop>
															<asc_sat></asc_sat>
															<lut2></lut2>
														</colorinfo>
														<labels>
															<label2>Iris</label2>
														</labels>
													</clipitem>
													<transitionitem>
														<start>1809</start>
														<end>1839</end>
														<pproTicksIn>15332481964800</pproTicksIn>
														<pproTicksOut>15586751980800</pproTicksOut>
														<alignment>center</alignment>
														<cutPointTicks>127135008000</cutPointTicks>
														<rate>
															<timebase>30</timebase>
															<ntsc>TRUE</ntsc>
														</rate>
														<effect>
															<name>Cross Fade (+3dB)</name>
															<effectid>KGAudioTransCrossFade3dB</effectid>
															<effecttype>transition</effecttype>
															<mediatype>audio</mediatype>
															<wipecode>0</wipecode>
															<wipeaccuracy>100</wipeaccuracy>
															<startratio>0</startratio>
															<endratio>1</endratio>
															<reverse>FALSE</reverse>
														</effect>
													</transitionitem>
													<clipitem id="clipitem-421" premiereChannelType="stereo">
														<masterclipid>masterclip-147</masterclipid>
														<name>(TysyTube Restoration)_Zippo Lighter Restoration D-Day WW2 - 1944 Largest Amphibious Invasion_dmguX9q_DLM_YT.mp4</name>
														<enabled>TRUE</enabled>
														<duration>24989</duration>
														<rate>
															<timebase>30</timebase>
															<ntsc>TRUE</ntsc>
														</rate>
														<start>-1</start>
														<end>-1</end>
														<in>20796</in>
														<out>20893</out>
														<pproTicksIn>176259975091200</pproTicksIn>
														<pproTicksOut>177082114809600</pproTicksOut>
														<file id="file-142"/>
														<sourcetrack>
															<mediatype>audio</mediatype>
															<trackindex>2</trackindex>
														</sourcetrack>
														<link>
															<linkclipref>clipitem-389</linkclipref>
															<mediatype>video</mediatype>
															<trackindex>1</trackindex>
															<clipindex>7</clipindex>
														</link>
														<link>
															<linkclipref>clipitem-406</linkclipref>
															<mediatype>audio</mediatype>
															<trackindex>1</trackindex>
															<clipindex>14</clipindex>
															<groupindex>1</groupindex>
														</link>
														<link>
															<linkclipref>clipitem-421</linkclipref>
															<mediatype>audio</mediatype>
															<trackindex>2</trackindex>
															<clipindex>14</clipindex>
															<groupindex>1</groupindex>
														</link>
														<logginginfo>
															<description></description>
															<scene></scene>
															<shottake></shottake>
															<lognote>https://www.youtube.com/watch?v=dmguX9q_DLM</lognote>
															<good></good>
															<originalvideofilename></originalvideofilename>
															<originalaudiofilename></originalaudiofilename>
														</logginginfo>
														<colorinfo>
															<lut></lut>
															<lut1></lut1>
															<asc_sop></asc_sop>
															<asc_sat></asc_sat>
															<lut2></lut2>
														</colorinfo>
														<labels>
															<label2>Iris</label2>
														</labels>
													</clipitem>
													<transitionitem>
														<start>1876</start>
														<end>1906</end>
														<pproTicksIn>15900351667200</pproTicksIn>
														<pproTicksOut>16154621683200</pproTicksOut>
														<alignment>center</alignment>
														<cutPointTicks>127135008000</cutPointTicks>
														<rate>
															<timebase>30</timebase>
															<ntsc>TRUE</ntsc>
														</rate>
														<effect>
															<name>Cross Fade (+3dB)</name>
															<effectid>KGAudioTransCrossFade3dB</effectid>
															<effecttype>transition</effecttype>
															<mediatype>audio</mediatype>
															<wipecode>0</wipecode>
															<wipeaccuracy>100</wipeaccuracy>
															<startratio>0</startratio>
															<endratio>1</endratio>
															<reverse>FALSE</reverse>
														</effect>
													</transitionitem>
													<clipitem id="clipitem-422" premiereChannelType="stereo">
														<masterclipid>masterclip-147</masterclipid>
														<name>(TysyTube Restoration)_Zippo Lighter Restoration D-Day WW2 - 1944 Largest Amphibious Invasion_dmguX9q_DLM_YT.mp4</name>
														<enabled>TRUE</enabled>
														<duration>24989</duration>
														<rate>
															<timebase>30</timebase>
															<ntsc>TRUE</ntsc>
														</rate>
														<start>-1</start>
														<end>-1</end>
														<in>21023</in>
														<out>21161</out>
														<pproTicksIn>178183951545600</pproTicksIn>
														<pproTicksOut>179353593619200</pproTicksOut>
														<file id="file-142"/>
														<sourcetrack>
															<mediatype>audio</mediatype>
															<trackindex>2</trackindex>
														</sourcetrack>
														<link>
															<linkclipref>clipitem-390</linkclipref>
															<mediatype>video</mediatype>
															<trackindex>1</trackindex>
															<clipindex>8</clipindex>
														</link>
														<link>
															<linkclipref>clipitem-407</linkclipref>
															<mediatype>audio</mediatype>
															<trackindex>1</trackindex>
															<clipindex>16</clipindex>
															<groupindex>1</groupindex>
														</link>
														<link>
															<linkclipref>clipitem-422</linkclipref>
															<mediatype>audio</mediatype>
															<trackindex>2</trackindex>
															<clipindex>16</clipindex>
															<groupindex>1</groupindex>
														</link>
														<logginginfo>
															<description></description>
															<scene></scene>
															<shottake></shottake>
															<lognote>https://www.youtube.com/watch?v=dmguX9q_DLM</lognote>
															<good></good>
															<originalvideofilename></originalvideofilename>
															<originalaudiofilename></originalaudiofilename>
														</logginginfo>
														<colorinfo>
															<lut></lut>
															<lut1></lut1>
															<asc_sop></asc_sop>
															<asc_sat></asc_sat>
															<lut2></lut2>
														</colorinfo>
														<labels>
															<label2>Iris</label2>
														</labels>
													</clipitem>
													<transitionitem>
														<start>1984</start>
														<end>2014</end>
														<pproTicksIn>16815723724800</pproTicksIn>
														<pproTicksOut>17069993740800</pproTicksOut>
														<alignment>center</alignment>
														<cutPointTicks>127135008000</cutPointTicks>
														<rate>
															<timebase>30</timebase>
															<ntsc>TRUE</ntsc>
														</rate>
														<effect>
															<name>Cross Fade (+3dB)</name>
															<effectid>KGAudioTransCrossFade3dB</effectid>
															<effecttype>transition</effecttype>
															<mediatype>audio</mediatype>
															<wipecode>0</wipecode>
															<wipeaccuracy>100</wipeaccuracy>
															<startratio>0</startratio>
															<endratio>1</endratio>
															<reverse>FALSE</reverse>
														</effect>
													</transitionitem>
													<clipitem id="clipitem-423" premiereChannelType="stereo">
														<masterclipid>masterclip-147</masterclipid>
														<name>(TysyTube Restoration)_Zippo Lighter Restoration D-Day WW2 - 1944 Largest Amphibious Invasion_dmguX9q_DLM_YT.mp4</name>
														<enabled>TRUE</enabled>
														<duration>24989</duration>
														<rate>
															<timebase>30</timebase>
															<ntsc>TRUE</ntsc>
														</rate>
														<start>-1</start>
														<end>-1</end>
														<in>21242</in>
														<out>21395</out>
														<pproTicksIn>180040122662400</pproTicksIn>
														<pproTicksOut>181336899744000</pproTicksOut>
														<file id="file-142"/>
														<sourcetrack>
															<mediatype>audio</mediatype>
															<trackindex>2</trackindex>
														</sourcetrack>
														<link>
															<linkclipref>clipitem-391</linkclipref>
															<mediatype>video</mediatype>
															<trackindex>1</trackindex>
															<clipindex>9</clipindex>
														</link>
														<link>
															<linkclipref>clipitem-408</linkclipref>
															<mediatype>audio</mediatype>
															<trackindex>1</trackindex>
															<clipindex>18</clipindex>
															<groupindex>1</groupindex>
														</link>
														<link>
															<linkclipref>clipitem-423</linkclipref>
															<mediatype>audio</mediatype>
															<trackindex>2</trackindex>
															<clipindex>18</clipindex>
															<groupindex>1</groupindex>
														</link>
														<logginginfo>
															<description></description>
															<scene></scene>
															<shottake></shottake>
															<lognote>https://www.youtube.com/watch?v=dmguX9q_DLM</lognote>
															<good></good>
															<originalvideofilename></originalvideofilename>
															<originalaudiofilename></originalaudiofilename>
														</logginginfo>
														<colorinfo>
															<lut></lut>
															<lut1></lut1>
															<asc_sop></asc_sop>
															<asc_sat></asc_sat>
															<lut2></lut2>
														</colorinfo>
														<labels>
															<label2>Iris</label2>
														</labels>
													</clipitem>
													<transitionitem>
														<start>2107</start>
														<end>2137</end>
														<pproTicksIn>17858230790400</pproTicksIn>
														<pproTicksOut>18112500806400</pproTicksOut>
														<alignment>center</alignment>
														<cutPointTicks>127135008000</cutPointTicks>
														<rate>
															<timebase>30</timebase>
															<ntsc>TRUE</ntsc>
														</rate>
														<effect>
															<name>Cross Fade (+3dB)</name>
															<effectid>KGAudioTransCrossFade3dB</effectid>
															<effecttype>transition</effecttype>
															<mediatype>audio</mediatype>
															<wipecode>0</wipecode>
															<wipeaccuracy>100</wipeaccuracy>
															<startratio>0</startratio>
															<endratio>1</endratio>
															<reverse>FALSE</reverse>
														</effect>
													</transitionitem>
													<clipitem id="clipitem-424" premiereChannelType="stereo">
														<masterclipid>masterclip-147</masterclipid>
														<name>(TysyTube Restoration)_Zippo Lighter Restoration D-Day WW2 - 1944 Largest Amphibious Invasion_dmguX9q_DLM_YT.mp4</name>
														<enabled>TRUE</enabled>
														<duration>24989</duration>
														<rate>
															<timebase>30</timebase>
															<ntsc>TRUE</ntsc>
														</rate>
														<start>-1</start>
														<end>-1</end>
														<in>21542</in>
														<out>21669</out>
														<pproTicksIn>182582822822400</pproTicksIn>
														<pproTicksOut>183659232556800</pproTicksOut>
														<file id="file-142"/>
														<sourcetrack>
															<mediatype>audio</mediatype>
															<trackindex>2</trackindex>
														</sourcetrack>
														<link>
															<linkclipref>clipitem-392</linkclipref>
															<mediatype>video</mediatype>
															<trackindex>1</trackindex>
															<clipindex>10</clipindex>
														</link>
														<link>
															<linkclipref>clipitem-409</linkclipref>
															<mediatype>audio</mediatype>
															<trackindex>1</trackindex>
															<clipindex>20</clipindex>
															<groupindex>1</groupindex>
														</link>
														<link>
															<linkclipref>clipitem-424</linkclipref>
															<mediatype>audio</mediatype>
															<trackindex>2</trackindex>
															<clipindex>20</clipindex>
															<groupindex>1</groupindex>
														</link>
														<logginginfo>
															<description></description>
															<scene></scene>
															<shottake></shottake>
															<lognote>https://www.youtube.com/watch?v=dmguX9q_DLM</lognote>
															<good></good>
															<originalvideofilename></originalvideofilename>
															<originalaudiofilename></originalaudiofilename>
														</logginginfo>
														<colorinfo>
															<lut></lut>
															<lut1></lut1>
															<asc_sop></asc_sop>
															<asc_sat></asc_sat>
															<lut2></lut2>
														</colorinfo>
														<labels>
															<label2>Iris</label2>
														</labels>
													</clipitem>
													<transitionitem>
														<start>2204</start>
														<end>2234</end>
														<pproTicksIn>18680370508800</pproTicksIn>
														<pproTicksOut>18934640524800</pproTicksOut>
														<alignment>center</alignment>
														<cutPointTicks>127135008000</cutPointTicks>
														<rate>
															<timebase>30</timebase>
															<ntsc>TRUE</ntsc>
														</rate>
														<effect>
															<name>Cross Fade (+3dB)</name>
															<effectid>KGAudioTransCrossFade3dB</effectid>
															<effecttype>transition</effecttype>
															<mediatype>audio</mediatype>
															<wipecode>0</wipecode>
															<wipeaccuracy>100</wipeaccuracy>
															<startratio>0</startratio>
															<endratio>1</endratio>
															<reverse>FALSE</reverse>
														</effect>
													</transitionitem>
													<clipitem id="clipitem-425" premiereChannelType="stereo">
														<masterclipid>masterclip-147</masterclipid>
														<name>(TysyTube Restoration)_Zippo Lighter Restoration D-Day WW2 - 1944 Largest Amphibious Invasion_dmguX9q_DLM_YT.mp4</name>
														<enabled>TRUE</enabled>
														<duration>24989</duration>
														<rate>
															<timebase>30</timebase>
															<ntsc>TRUE</ntsc>
														</rate>
														<start>-1</start>
														<end>-1</end>
														<in>21925</in>
														<out>22100</out>
														<pproTicksIn>185829003360000</pproTicksIn>
														<pproTicksOut>187312245120000</pproTicksOut>
														<file id="file-142"/>
														<sourcetrack>
															<mediatype>audio</mediatype>
															<trackindex>2</trackindex>
														</sourcetrack>
														<link>
															<linkclipref>clipitem-393</linkclipref>
															<mediatype>video</mediatype>
															<trackindex>1</trackindex>
															<clipindex>11</clipindex>
														</link>
														<link>
															<linkclipref>clipitem-410</linkclipref>
															<mediatype>audio</mediatype>
															<trackindex>1</trackindex>
															<clipindex>22</clipindex>
															<groupindex>1</groupindex>
														</link>
														<link>
															<linkclipref>clipitem-425</linkclipref>
															<mediatype>audio</mediatype>
															<trackindex>2</trackindex>
															<clipindex>22</clipindex>
															<groupindex>1</groupindex>
														</link>
														<logginginfo>
															<description></description>
															<scene></scene>
															<shottake></shottake>
															<lognote>https://www.youtube.com/watch?v=dmguX9q_DLM</lognote>
															<good></good>
															<originalvideofilename></originalvideofilename>
															<originalaudiofilename></originalaudiofilename>
														</logginginfo>
														<colorinfo>
															<lut></lut>
															<lut1></lut1>
															<asc_sop></asc_sop>
															<asc_sat></asc_sat>
															<lut2></lut2>
														</colorinfo>
														<labels>
															<label2>Iris</label2>
														</labels>
													</clipitem>
													<transitionitem>
														<start>2349</start>
														<end>2379</end>
														<pproTicksIn>19909342252800</pproTicksIn>
														<pproTicksOut>20163612268800</pproTicksOut>
														<alignment>center</alignment>
														<cutPointTicks>127135008000</cutPointTicks>
														<rate>
															<timebase>30</timebase>
															<ntsc>TRUE</ntsc>
														</rate>
														<effect>
															<name>Cross Fade (+3dB)</name>
															<effectid>KGAudioTransCrossFade3dB</effectid>
															<effecttype>transition</effecttype>
															<mediatype>audio</mediatype>
															<wipecode>0</wipecode>
															<wipeaccuracy>100</wipeaccuracy>
															<startratio>0</startratio>
															<endratio>1</endratio>
															<reverse>FALSE</reverse>
														</effect>
													</transitionitem>
													<clipitem id="clipitem-426" premiereChannelType="stereo">
														<masterclipid>masterclip-147</masterclipid>
														<name>(TysyTube Restoration)_Zippo Lighter Restoration D-Day WW2 - 1944 Largest Amphibious Invasion_dmguX9q_DLM_YT.mp4</name>
														<enabled>TRUE</enabled>
														<duration>24989</duration>
														<rate>
															<timebase>30</timebase>
															<ntsc>TRUE</ntsc>
														</rate>
														<start>-1</start>
														<end>-1</end>
														<in>22953</in>
														<out>23128</out>
														<pproTicksIn>194541989241600</pproTicksIn>
														<pproTicksOut>196025231001600</pproTicksOut>
														<file id="file-142"/>
														<sourcetrack>
															<mediatype>audio</mediatype>
															<trackindex>2</trackindex>
														</sourcetrack>
														<link>
															<linkclipref>clipitem-394</linkclipref>
															<mediatype>video</mediatype>
															<trackindex>1</trackindex>
															<clipindex>12</clipindex>
														</link>
														<link>
															<linkclipref>clipitem-411</linkclipref>
															<mediatype>audio</mediatype>
															<trackindex>1</trackindex>
															<clipindex>24</clipindex>
															<groupindex>1</groupindex>
														</link>
														<link>
															<linkclipref>clipitem-426</linkclipref>
															<mediatype>audio</mediatype>
															<trackindex>2</trackindex>
															<clipindex>24</clipindex>
															<groupindex>1</groupindex>
														</link>
														<logginginfo>
															<description></description>
															<scene></scene>
															<shottake></shottake>
															<lognote>https://www.youtube.com/watch?v=dmguX9q_DLM</lognote>
															<good></good>
															<originalvideofilename></originalvideofilename>
															<originalaudiofilename></originalaudiofilename>
														</logginginfo>
														<colorinfo>
															<lut></lut>
															<lut1></lut1>
															<asc_sop></asc_sop>
															<asc_sat></asc_sat>
															<lut2></lut2>
														</colorinfo>
														<labels>
															<label2>Iris</label2>
														</labels>
													</clipitem>
													<transitionitem>
														<start>2494</start>
														<end>2524</end>
														<pproTicksIn>21138313996800</pproTicksIn>
														<pproTicksOut>21392584012800</pproTicksOut>
														<alignment>center</alignment>
														<cutPointTicks>127135008000</cutPointTicks>
														<rate>
															<timebase>30</timebase>
															<ntsc>TRUE</ntsc>
														</rate>
														<effect>
															<name>Cross Fade (+3dB)</name>
															<effectid>KGAudioTransCrossFade3dB</effectid>
															<effecttype>transition</effecttype>
															<mediatype>audio</mediatype>
															<wipecode>0</wipecode>
															<wipeaccuracy>100</wipeaccuracy>
															<startratio>0</startratio>
															<endratio>1</endratio>
															<reverse>FALSE</reverse>
														</effect>
													</transitionitem>
													<clipitem id="clipitem-427" premiereChannelType="stereo">
														<masterclipid>masterclip-147</masterclipid>
														<name>(TysyTube Restoration)_Zippo Lighter Restoration D-Day WW2 - 1944 Largest Amphibious Invasion_dmguX9q_DLM_YT.mp4</name>
														<enabled>TRUE</enabled>
														<duration>24989</duration>
														<rate>
															<timebase>30</timebase>
															<ntsc>TRUE</ntsc>
														</rate>
														<start>-1</start>
														<end>-1</end>
														<in>23199</in>
														<out>23365</out>
														<pproTicksIn>196627003372800</pproTicksIn>
														<pproTicksOut>198033964128000</pproTicksOut>
														<file id="file-142"/>
														<sourcetrack>
															<mediatype>audio</mediatype>
															<trackindex>2</trackindex>
														</sourcetrack>
														<link>
															<linkclipref>clipitem-395</linkclipref>
															<mediatype>video</mediatype>
															<trackindex>1</trackindex>
															<clipindex>13</clipindex>
														</link>
														<link>
															<linkclipref>clipitem-412</linkclipref>
															<mediatype>audio</mediatype>
															<trackindex>1</trackindex>
															<clipindex>26</clipindex>
															<groupindex>1</groupindex>
														</link>
														<link>
															<linkclipref>clipitem-427</linkclipref>
															<mediatype>audio</mediatype>
															<trackindex>2</trackindex>
															<clipindex>26</clipindex>
															<groupindex>1</groupindex>
														</link>
														<logginginfo>
															<description></description>
															<scene></scene>
															<shottake></shottake>
															<lognote>https://www.youtube.com/watch?v=dmguX9q_DLM</lognote>
															<good></good>
															<originalvideofilename></originalvideofilename>
															<originalaudiofilename></originalaudiofilename>
														</logginginfo>
														<colorinfo>
															<lut></lut>
															<lut1></lut1>
															<asc_sop></asc_sop>
															<asc_sat></asc_sat>
															<lut2></lut2>
														</colorinfo>
														<labels>
															<label2>Iris</label2>
														</labels>
													</clipitem>
													<transitionitem>
														<start>2630</start>
														<end>2660</end>
														<pproTicksIn>22291004736000</pproTicksIn>
														<pproTicksOut>22545274752000</pproTicksOut>
														<alignment>center</alignment>
														<cutPointTicks>127135008000</cutPointTicks>
														<rate>
															<timebase>30</timebase>
															<ntsc>TRUE</ntsc>
														</rate>
														<effect>
															<name>Cross Fade (+3dB)</name>
															<effectid>KGAudioTransCrossFade3dB</effectid>
															<effecttype>transition</effecttype>
															<mediatype>audio</mediatype>
															<wipecode>0</wipecode>
															<wipeaccuracy>100</wipeaccuracy>
															<startratio>0</startratio>
															<endratio>1</endratio>
															<reverse>FALSE</reverse>
														</effect>
													</transitionitem>
													<clipitem id="clipitem-428" premiereChannelType="stereo">
														<masterclipid>masterclip-147</masterclipid>
														<name>(TysyTube Restoration)_Zippo Lighter Restoration D-Day WW2 - 1944 Largest Amphibious Invasion_dmguX9q_DLM_YT.mp4</name>
														<enabled>TRUE</enabled>
														<duration>24989</duration>
														<rate>
															<timebase>30</timebase>
															<ntsc>TRUE</ntsc>
														</rate>
														<start>-1</start>
														<end>-1</end>
														<in>23444</in>
														<out>23621</out>
														<pproTicksIn>198703541836800</pproTicksIn>
														<pproTicksOut>200203734931200</pproTicksOut>
														<file id="file-142"/>
														<sourcetrack>
															<mediatype>audio</mediatype>
															<trackindex>2</trackindex>
														</sourcetrack>
														<link>
															<linkclipref>clipitem-396</linkclipref>
															<mediatype>video</mediatype>
															<trackindex>1</trackindex>
															<clipindex>14</clipindex>
														</link>
														<link>
															<linkclipref>clipitem-413</linkclipref>
															<mediatype>audio</mediatype>
															<trackindex>1</trackindex>
															<clipindex>28</clipindex>
															<groupindex>1</groupindex>
														</link>
														<link>
															<linkclipref>clipitem-428</linkclipref>
															<mediatype>audio</mediatype>
															<trackindex>2</trackindex>
															<clipindex>28</clipindex>
															<groupindex>1</groupindex>
														</link>
														<logginginfo>
															<description></description>
															<scene></scene>
															<shottake></shottake>
															<lognote>https://www.youtube.com/watch?v=dmguX9q_DLM</lognote>
															<good></good>
															<originalvideofilename></originalvideofilename>
															<originalaudiofilename></originalaudiofilename>
														</logginginfo>
														<colorinfo>
															<lut></lut>
															<lut1></lut1>
															<asc_sop></asc_sop>
															<asc_sat></asc_sat>
															<lut2></lut2>
														</colorinfo>
														<labels>
															<label2>Iris</label2>
														</labels>
													</clipitem>
													<transitionitem>
														<start>2777</start>
														<end>2807</end>
														<pproTicksIn>23536927814400</pproTicksIn>
														<pproTicksOut>23791197830400</pproTicksOut>
														<alignment>center</alignment>
														<cutPointTicks>127135008000</cutPointTicks>
														<rate>
															<timebase>30</timebase>
															<ntsc>TRUE</ntsc>
														</rate>
														<effect>
															<name>Cross Fade (+3dB)</name>
															<effectid>KGAudioTransCrossFade3dB</effectid>
															<effecttype>transition</effecttype>
															<mediatype>audio</mediatype>
															<wipecode>0</wipecode>
															<wipeaccuracy>100</wipeaccuracy>
															<startratio>0</startratio>
															<endratio>1</endratio>
															<reverse>FALSE</reverse>
														</effect>
													</transitionitem>
													<clipitem id="clipitem-429" premiereChannelType="stereo">
														<masterclipid>masterclip-147</masterclipid>
														<name>(TysyTube Restoration)_Zippo Lighter Restoration D-Day WW2 - 1944 Largest Amphibious Invasion_dmguX9q_DLM_YT.mp4</name>
														<enabled>TRUE</enabled>
														<duration>24989</duration>
														<rate>
															<timebase>30</timebase>
															<ntsc>TRUE</ntsc>
														</rate>
														<start>-1</start>
														<end>-1</end>
														<in>24181</in>
														<out>24408</out>
														<pproTicksIn>204950108563200</pproTicksIn>
														<pproTicksOut>206874085017600</pproTicksOut>
														<file id="file-142"/>
														<sourcetrack>
															<mediatype>audio</mediatype>
															<trackindex>2</trackindex>
														</sourcetrack>
														<link>
															<linkclipref>clipitem-397</linkclipref>
															<mediatype>video</mediatype>
															<trackindex>1</trackindex>
															<clipindex>15</clipindex>
														</link>
														<link>
															<linkclipref>clipitem-414</linkclipref>
															<mediatype>audio</mediatype>
															<trackindex>1</trackindex>
															<clipindex>30</clipindex>
															<groupindex>1</groupindex>
														</link>
														<link>
															<linkclipref>clipitem-429</linkclipref>
															<mediatype>audio</mediatype>
															<trackindex>2</trackindex>
															<clipindex>30</clipindex>
															<groupindex>1</groupindex>
														</link>
														<logginginfo>
															<description></description>
															<scene></scene>
															<shottake></shottake>
															<lognote>https://www.youtube.com/watch?v=dmguX9q_DLM</lognote>
															<good></good>
															<originalvideofilename></originalvideofilename>
															<originalaudiofilename></originalaudiofilename>
														</logginginfo>
														<colorinfo>
															<lut></lut>
															<lut1></lut1>
															<asc_sop></asc_sop>
															<asc_sat></asc_sat>
															<lut2></lut2>
														</colorinfo>
														<labels>
															<label2>Iris</label2>
														</labels>
													</clipitem>
													<transitionitem>
														<start>2974</start>
														<end>3004</end>
														<pproTicksIn>25206634252800</pproTicksIn>
														<pproTicksOut>25460904268800</pproTicksOut>
														<alignment>end-black</alignment>
														<cutPointTicks>254270016000</cutPointTicks>
														<rate>
															<timebase>30</timebase>
															<ntsc>TRUE</ntsc>
														</rate>
														<effect>
															<name>Cross Fade (+3dB)</name>
															<effectid>KGAudioTransCrossFade3dB</effectid>
															<effecttype>transition</effecttype>
															<mediatype>audio</mediatype>
															<wipecode>0</wipecode>
															<wipeaccuracy>100</wipeaccuracy>
															<startratio>0</startratio>
															<endratio>1</endratio>
															<reverse>FALSE</reverse>
														</effect>
													</transitionitem>
													<enabled>TRUE</enabled>
													<locked>FALSE</locked>
													<filter>
														<effect>
															<name>Audio Levels</name>
															<effectid>audiolevels</effectid>
															<effectcategory>audiolevels</effectcategory>
															<effecttype>audiolevels</effecttype>
															<mediatype>audio</mediatype>
															<parameter authoringApp="PremierePro">
																<parameterid>level</parameterid>
																<name>Level</name>
																<valuemin>0</valuemin>
																<valuemax>3.98109</valuemax>
																<value>0.706272</value>
															</parameter>
														</effect>
													</filter>
													<outputchannelindex>2</outputchannelindex>
												</track>
												<track TL.SQTrackAudioKeyframeStyle="0" TL.SQTrackShy="0" TL.SQTrackExpandedHeight="25" TL.SQTrackExpanded="0" MZ.TrackTargeted="0" PannerCurrentValue="0.5" PannerIsInverted="true" PannerStartKeyframe="-91445760000000000,0.5,0,0,0,0,0,0" PannerName="Balance" currentExplodedTrackIndex="0" totalExplodedTrackCount="2" premiereTrackType="Stereo">
													<enabled>TRUE</enabled>
													<locked>FALSE</locked>
													<filter>
														<effect>
															<name>Audio Levels</name>
															<effectid>audiolevels</effectid>
															<effectcategory>audiolevels</effectcategory>
															<effecttype>audiolevels</effecttype>
															<mediatype>audio</mediatype>
															<parameter authoringApp="PremierePro">
																<parameterid>level</parameterid>
																<name>Level</name>
																<valuemin>0</valuemin>
																<valuemax>3.98109</valuemax>
																<value>0.706272</value>
															</parameter>
														</effect>
													</filter>
													<outputchannelindex>1</outputchannelindex>
												</track>
												<track TL.SQTrackAudioKeyframeStyle="0" TL.SQTrackShy="0" TL.SQTrackExpandedHeight="25" TL.SQTrackExpanded="0" MZ.TrackTargeted="0" PannerCurrentValue="0.5" PannerIsInverted="true" PannerStartKeyframe="-91445760000000000,0.5,0,0,0,0,0,0" PannerName="Balance" currentExplodedTrackIndex="1" totalExplodedTrackCount="2" premiereTrackType="Stereo">
													<enabled>TRUE</enabled>
													<locked>FALSE</locked>
													<filter>
														<effect>
															<name>Audio Levels</name>
															<effectid>audiolevels</effectid>
															<effectcategory>audiolevels</effectcategory>
															<effecttype>audiolevels</effecttype>
															<mediatype>audio</mediatype>
															<parameter authoringApp="PremierePro">
																<parameterid>level</parameterid>
																<name>Level</name>
																<valuemin>0</valuemin>
																<valuemax>3.98109</valuemax>
																<value>0.706272</value>
															</parameter>
														</effect>
													</filter>
													<outputchannelindex>2</outputchannelindex>
												</track>
											</audio>
										</media>
										<timecode>
											<rate>
												<timebase>30</timebase>
												<ntsc>TRUE</ntsc>
											</rate>
											<string>00:00:00:00</string>
											<frame>0</frame>
											<displayformat>NDF</displayformat>
										</timecode>
										<labels>
											<label2>Forest</label2>
										</labels>
										<logginginfo>
											<description></description>
											<scene></scene>
											<shottake></shottake>
											<lognote></lognote>
											<good></good>
											<originalvideofilename></originalvideofilename>
											<originalaudiofilename></originalaudiofilename>
										</logginginfo>
									</sequence>
									<sequence id="sequence-51" TL.SQAudioVisibleBase="0" TL.SQVideoVisibleBase="0" TL.SQVisibleBaseTime="0" TL.SQAVDividerPosition="0.5" TL.SQHideShyTracks="0" TL.SQHeaderWidth="236" Monitor.ProgramZoomOut="19155007872000" Monitor.ProgramZoomIn="0" TL.SQTimePerPixel="0.10426506455125213" AM.TrackVScrollPosition="0" AM.TrackScrollPosition="0" MZ.EditLine="2635932499200" MZ.Sequence.PreviewFrameSizeHeight="1080" MZ.Sequence.PreviewFrameSizeWidth="1920" MZ.Sequence.AudioTimeDisplayFormat="200" MZ.Sequence.PreviewRenderingClassID="1297106761" MZ.Sequence.PreviewRenderingPresetCodec="1297107278" MZ.Sequence.PreviewRenderingPresetPath="EncoderPresets/SequencePreview/795454d9-d3c2-429d-9474-923ab13b7018/I-Frame Only MPEG.epr" MZ.Sequence.PreviewUseMaxRenderQuality="false" MZ.Sequence.PreviewUseMaxBitDepth="false" MZ.Sequence.EditingModeGUID="795454d9-d3c2-429d-9474-923ab13b7018" MZ.Sequence.VideoTimeDisplayFormat="103" MZ.WorkOutPoint="25121877580800" MZ.WorkInPoint="0" explodedTracks="true">
										<uuid>60e33af1-b0bb-462d-849c-e511323bcb21</uuid>
										<duration>1828</duration>
										<rate>
											<timebase>30</timebase>
											<ntsc>TRUE</ntsc>
										</rate>
										<out>2260</out>
										<name>SAT_pottery_1.5</name>
										<media>
											<video>
												<format>
													<samplecharacteristics>
														<rate>
															<timebase>30</timebase>
															<ntsc>TRUE</ntsc>
														</rate>
														<codec>
															<name>Apple ProRes 422</name>
															<appspecificdata>
																<appname>Final Cut Pro</appname>
																<appmanufacturer>Apple Inc.</appmanufacturer>
																<appversion>7.0</appversion>
																<data>
																	<qtcodec>
																		<codecname>Apple ProRes 422</codecname>
																		<codectypename>Apple ProRes 422</codectypename>
																		<codectypecode>apcn</codectypecode>
																		<codecvendorcode>appl</codecvendorcode>
																		<spatialquality>1024</spatialquality>
																		<temporalquality>0</temporalquality>
																		<keyframerate>0</keyframerate>
																		<datarate>0</datarate>
																	</qtcodec>
																</data>
															</appspecificdata>
														</codec>
														<width>1920</width>
														<height>1080</height>
														<anamorphic>FALSE</anamorphic>
														<pixelaspectratio>square</pixelaspectratio>
														<fielddominance>none</fielddominance>
														<colordepth>24</colordepth>
													</samplecharacteristics>
												</format>
												<track TL.SQTrackShy="0" TL.SQTrackExpandedHeight="25" TL.SQTrackExpanded="0" MZ.TrackTargeted="1">
													<clipitem id="clipitem-430">
														<masterclipid>masterclip-148</masterclipid>
														<name>hammerlyceramics - BuEwEz2FE7M.mp4</name>
														<enabled>TRUE</enabled>
														<duration>15585</duration>
														<rate>
															<timebase>30</timebase>
															<ntsc>TRUE</ntsc>
														</rate>
														<start>0</start>
														<end>409</end>
														<in>7003</in>
														<out>7412</out>
														<pproTicksIn>59355097401600</pproTicksIn>
														<pproTicksOut>62821645286400</pproTicksOut>
														<alphatype>none</alphatype>
														<pixelaspectratio>square</pixelaspectratio>
														<anamorphic>FALSE</anamorphic>
														<file id="file-143">
															<name>hammerlyceramics - BuEwEz2FE7M.mp4</name>
															<pathurl>file://localhost/Volumes/Satisfactum%20Satisfactorum/00_Hub%20World/3_Raw%20Files/Clip%20Providers/hammerlyceramics/hammerlyceramics%20-%20BuEwEz2FE7M.mp4</pathurl>
															<rate>
																<timebase>30</timebase>
																<ntsc>FALSE</ntsc>
															</rate>
															<duration>15608</duration>
															<timecode>
																<rate>
																	<timebase>30</timebase>
																	<ntsc>FALSE</ntsc>
																</rate>
																<string>00:00:00:00</string>
																<frame>0</frame>
																<displayformat>NDF</displayformat>
															</timecode>
															<media>
																<video>
																	<samplecharacteristics>
																		<rate>
																			<timebase>30</timebase>
																			<ntsc>FALSE</ntsc>
																		</rate>
																		<width>640</width>
																		<height>1062</height>
																		<anamorphic>FALSE</anamorphic>
																		<pixelaspectratio>square</pixelaspectratio>
																		<fielddominance>none</fielddominance>
																	</samplecharacteristics>
																</video>
																<audio>
																	<samplecharacteristics>
																		<depth>16</depth>
																		<samplerate>48000</samplerate>
																	</samplecharacteristics>
																	<channelcount>1</channelcount>
																	<audiochannel>
																		<sourcechannel>1</sourcechannel>
																	</audiochannel>
																</audio>
															</media>
														</file>
														<filter>
															<effect>
																<name>Basic Motion</name>
																<effectid>basic</effectid>
																<effectcategory>motion</effectcategory>
																<effecttype>motion</effecttype>
																<mediatype>video</mediatype>
																<pproBypass>false</pproBypass>
																<parameter authoringApp="PremierePro">
																	<parameterid>scale</parameterid>
																	<name>Scale</name>
																	<valuemin>0</valuemin>
																	<valuemax>1000</valuemax>
																	<value>370</value>
																</parameter>
																<parameter authoringApp="PremierePro">
																	<parameterid>rotation</parameterid>
																	<name>Rotation</name>
																	<valuemin>-8640</valuemin>
																	<valuemax>8640</valuemax>
																	<value>0</value>
																</parameter>
																<parameter authoringApp="PremierePro">
																	<parameterid>center</parameterid>
																	<name>Center</name>
																	<value>
																		<horiz>0</horiz>
																		<vert>-0.124294</vert>
																	</value>
																</parameter>
																<parameter authoringApp="PremierePro">
																	<parameterid>centerOffset</parameterid>
																	<name>Anchor Point</name>
																	<value>
																		<horiz>0</horiz>
																		<vert>0</vert>
																	</value>
																</parameter>
																<parameter authoringApp="PremierePro">
																	<parameterid>antiflicker</parameterid>
																	<name>Anti-flicker Filter</name>
																	<valuemin>0.0</valuemin>
																	<valuemax>1.0</valuemax>
																	<value>0</value>
																</parameter>
															</effect>
														</filter>
														<filter>
															<effect>
																<name>Gaussian Blur</name>
																<effectid>Gaussian Blur</effectid>
																<effectcategory>Blur</effectcategory>
																<effecttype>motion</effecttype>
																<mediatype>video</mediatype>
																<pproBypass>false</pproBypass>
																<parameter authoringApp="PremierePro">
																	<parameterid>radius</parameterid>
																	<name>Radius</name>
																	<valuemin>0</valuemin>
																	<valuemax>100</valuemax>
																	<value>150</value>
																</parameter>
															</effect>
														</filter>
														<logginginfo>
															<description></description>
															<scene></scene>
															<shottake></shottake>
															<lognote></lognote>
															<good></good>
															<originalvideofilename></originalvideofilename>
															<originalaudiofilename></originalaudiofilename>
														</logginginfo>
														<colorinfo>
															<lut></lut>
															<lut1></lut1>
															<asc_sop></asc_sop>
															<asc_sat></asc_sat>
															<lut2></lut2>
														</colorinfo>
														<labels>
															<label2>Iris</label2>
														</labels>
													</clipitem>
													<clipitem id="clipitem-431">
														<masterclipid>masterclip-148</masterclipid>
														<name>hammerlyceramics - BuEwEz2FE7M.mp4</name>
														<enabled>TRUE</enabled>
														<duration>15585</duration>
														<rate>
															<timebase>30</timebase>
															<ntsc>TRUE</ntsc>
														</rate>
														<start>409</start>
														<end>538</end>
														<in>11220</in>
														<out>11349</out>
														<pproTicksIn>95096985984000</pproTicksIn>
														<pproTicksOut>96190347052800</pproTicksOut>
														<alphatype>none</alphatype>
														<file id="file-143"/>
														<filter>
															<effect>
																<name>Basic Motion</name>
																<effectid>basic</effectid>
																<effectcategory>motion</effectcategory>
																<effecttype>motion</effecttype>
																<mediatype>video</mediatype>
																<pproBypass>false</pproBypass>
																<parameter authoringApp="PremierePro">
																	<parameterid>scale</parameterid>
																	<name>Scale</name>
																	<valuemin>0</valuemin>
																	<valuemax>1000</valuemax>
																	<value>370</value>
																</parameter>
																<parameter authoringApp="PremierePro">
																	<parameterid>rotation</parameterid>
																	<name>Rotation</name>
																	<valuemin>-8640</valuemin>
																	<valuemax>8640</valuemax>
																	<value>0</value>
																</parameter>
																<parameter authoringApp="PremierePro">
																	<parameterid>center</parameterid>
																	<name>Center</name>
																	<value>
																		<horiz>0</horiz>
																		<vert>-0.124294</vert>
																	</value>
																</parameter>
																<parameter authoringApp="PremierePro">
																	<parameterid>centerOffset</parameterid>
																	<name>Anchor Point</name>
																	<value>
																		<horiz>0</horiz>
																		<vert>0</vert>
																	</value>
																</parameter>
																<parameter authoringApp="PremierePro">
																	<parameterid>antiflicker</parameterid>
																	<name>Anti-flicker Filter</name>
																	<valuemin>0.0</valuemin>
																	<valuemax>1.0</valuemax>
																	<value>0</value>
																</parameter>
															</effect>
														</filter>
														<filter>
															<effect>
																<name>Gaussian Blur</name>
																<effectid>Gaussian Blur</effectid>
																<effectcategory>Blur</effectcategory>
																<effecttype>motion</effecttype>
																<mediatype>video</mediatype>
																<pproBypass>false</pproBypass>
																<parameter authoringApp="PremierePro">
																	<parameterid>radius</parameterid>
																	<name>Radius</name>
																	<valuemin>0</valuemin>
																	<valuemax>100</valuemax>
																	<value>150</value>
																</parameter>
															</effect>
														</filter>
														<logginginfo>
															<description></description>
															<scene></scene>
															<shottake></shottake>
															<lognote></lognote>
															<good></good>
															<originalvideofilename></originalvideofilename>
															<originalaudiofilename></originalaudiofilename>
														</logginginfo>
														<colorinfo>
															<lut></lut>
															<lut1></lut1>
															<asc_sop></asc_sop>
															<asc_sat></asc_sat>
															<lut2></lut2>
														</colorinfo>
														<labels>
															<label2>Iris</label2>
														</labels>
													</clipitem>
													<clipitem id="clipitem-432">
														<masterclipid>masterclip-148</masterclipid>
														<name>hammerlyceramics - BuEwEz2FE7M.mp4</name>
														<enabled>TRUE</enabled>
														<duration>15585</duration>
														<rate>
															<timebase>30</timebase>
															<ntsc>TRUE</ntsc>
														</rate>
														<start>538</start>
														<end>680</end>
														<in>11410</in>
														<out>11552</out>
														<pproTicksIn>96707362752000</pproTicksIn>
														<pproTicksOut>97910907494400</pproTicksOut>
														<alphatype>none</alphatype>
														<file id="file-143"/>
														<filter>
															<effect>
																<name>Basic Motion</name>
																<effectid>basic</effectid>
																<effectcategory>motion</effectcategory>
																<effecttype>motion</effecttype>
																<mediatype>video</mediatype>
																<pproBypass>false</pproBypass>
																<parameter authoringApp="PremierePro">
																	<parameterid>scale</parameterid>
																	<name>Scale</name>
																	<valuemin>0</valuemin>
																	<valuemax>1000</valuemax>
																	<value>370</value>
																</parameter>
																<parameter authoringApp="PremierePro">
																	<parameterid>rotation</parameterid>
																	<name>Rotation</name>
																	<valuemin>-8640</valuemin>
																	<valuemax>8640</valuemax>
																	<value>0</value>
																</parameter>
																<parameter authoringApp="PremierePro">
																	<parameterid>center</parameterid>
																	<name>Center</name>
																	<value>
																		<horiz>0</horiz>
																		<vert>-0.124294</vert>
																	</value>
																</parameter>
																<parameter authoringApp="PremierePro">
																	<parameterid>centerOffset</parameterid>
																	<name>Anchor Point</name>
																	<value>
																		<horiz>0</horiz>
																		<vert>0</vert>
																	</value>
																</parameter>
																<parameter authoringApp="PremierePro">
																	<parameterid>antiflicker</parameterid>
																	<name>Anti-flicker Filter</name>
																	<valuemin>0.0</valuemin>
																	<valuemax>1.0</valuemax>
																	<value>0</value>
																</parameter>
															</effect>
														</filter>
														<filter>
															<effect>
																<name>Gaussian Blur</name>
																<effectid>Gaussian Blur</effectid>
																<effectcategory>Blur</effectcategory>
																<effecttype>motion</effecttype>
																<mediatype>video</mediatype>
																<pproBypass>false</pproBypass>
																<parameter authoringApp="PremierePro">
																	<parameterid>radius</parameterid>
																	<name>Radius</name>
																	<valuemin>0</valuemin>
																	<valuemax>100</valuemax>
																	<value>150</value>
																</parameter>
															</effect>
														</filter>
														<logginginfo>
															<description></description>
															<scene></scene>
															<shottake></shottake>
															<lognote></lognote>
															<good></good>
															<originalvideofilename></originalvideofilename>
															<originalaudiofilename></originalaudiofilename>
														</logginginfo>
														<colorinfo>
															<lut></lut>
															<lut1></lut1>
															<asc_sop></asc_sop>
															<asc_sat></asc_sat>
															<lut2></lut2>
														</colorinfo>
														<labels>
															<label2>Iris</label2>
														</labels>
													</clipitem>
													<clipitem id="clipitem-433">
														<masterclipid>masterclip-148</masterclipid>
														<name>hammerlyceramics - BuEwEz2FE7M.mp4</name>
														<enabled>TRUE</enabled>
														<duration>15585</duration>
														<rate>
															<timebase>30</timebase>
															<ntsc>TRUE</ntsc>
														</rate>
														<start>680</start>
														<end>1039</end>
														<in>13042</in>
														<out>13401</out>
														<pproTicksIn>110539651622400</pproTicksIn>
														<pproTicksOut>113582416147200</pproTicksOut>
														<alphatype>none</alphatype>
														<file id="file-143"/>
														<filter>
															<effect>
																<name>Basic Motion</name>
																<effectid>basic</effectid>
																<effectcategory>motion</effectcategory>
																<effecttype>motion</effecttype>
																<mediatype>video</mediatype>
																<pproBypass>false</pproBypass>
																<parameter authoringApp="PremierePro">
																	<parameterid>scale</parameterid>
																	<name>Scale</name>
																	<valuemin>0</valuemin>
																	<valuemax>1000</valuemax>
																	<value>370</value>
																</parameter>
																<parameter authoringApp="PremierePro">
																	<parameterid>rotation</parameterid>
																	<name>Rotation</name>
																	<valuemin>-8640</valuemin>
																	<valuemax>8640</valuemax>
																	<value>0</value>
																</parameter>
																<parameter authoringApp="PremierePro">
																	<parameterid>center</parameterid>
																	<name>Center</name>
																	<value>
																		<horiz>0</horiz>
																		<vert>-0.124294</vert>
																	</value>
																</parameter>
																<parameter authoringApp="PremierePro">
																	<parameterid>centerOffset</parameterid>
																	<name>Anchor Point</name>
																	<value>
																		<horiz>0</horiz>
																		<vert>0</vert>
																	</value>
																</parameter>
																<parameter authoringApp="PremierePro">
																	<parameterid>antiflicker</parameterid>
																	<name>Anti-flicker Filter</name>
																	<valuemin>0.0</valuemin>
																	<valuemax>1.0</valuemax>
																	<value>0</value>
																</parameter>
															</effect>
														</filter>
														<filter>
															<effect>
																<name>Gaussian Blur</name>
																<effectid>Gaussian Blur</effectid>
																<effectcategory>Blur</effectcategory>
																<effecttype>motion</effecttype>
																<mediatype>video</mediatype>
																<pproBypass>false</pproBypass>
																<parameter authoringApp="PremierePro">
																	<parameterid>radius</parameterid>
																	<name>Radius</name>
																	<valuemin>0</valuemin>
																	<valuemax>100</valuemax>
																	<value>150</value>
																</parameter>
															</effect>
														</filter>
														<logginginfo>
															<description></description>
															<scene></scene>
															<shottake></shottake>
															<lognote></lognote>
															<good></good>
															<originalvideofilename></originalvideofilename>
															<originalaudiofilename></originalaudiofilename>
														</logginginfo>
														<colorinfo>
															<lut></lut>
															<lut1></lut1>
															<asc_sop></asc_sop>
															<asc_sat></asc_sat>
															<lut2></lut2>
														</colorinfo>
														<labels>
															<label2>Iris</label2>
														</labels>
													</clipitem>
													<clipitem id="clipitem-434">
														<masterclipid>masterclip-148</masterclipid>
														<name>hammerlyceramics - BuEwEz2FE7M.mp4</name>
														<enabled>TRUE</enabled>
														<duration>15585</duration>
														<rate>
															<timebase>30</timebase>
															<ntsc>TRUE</ntsc>
														</rate>
														<start>1039</start>
														<end>1162</end>
														<in>14513</in>
														<out>14636</out>
														<pproTicksIn>123007358073600</pproTicksIn>
														<pproTicksOut>124049865139200</pproTicksOut>
														<alphatype>none</alphatype>
														<file id="file-143"/>
														<filter>
															<effect>
																<name>Basic Motion</name>
																<effectid>basic</effectid>
																<effectcategory>motion</effectcategory>
																<effecttype>motion</effecttype>
																<mediatype>video</mediatype>
																<pproBypass>false</pproBypass>
																<parameter authoringApp="PremierePro">
																	<parameterid>scale</parameterid>
																	<name>Scale</name>
																	<valuemin>0</valuemin>
																	<valuemax>1000</valuemax>
																	<value>370</value>
																</parameter>
																<parameter authoringApp="PremierePro">
																	<parameterid>rotation</parameterid>
																	<name>Rotation</name>
																	<valuemin>-8640</valuemin>
																	<valuemax>8640</valuemax>
																	<value>0</value>
																</parameter>
																<parameter authoringApp="PremierePro">
																	<parameterid>center</parameterid>
																	<name>Center</name>
																	<value>
																		<horiz>0</horiz>
																		<vert>-0.124294</vert>
																	</value>
																</parameter>
																<parameter authoringApp="PremierePro">
																	<parameterid>centerOffset</parameterid>
																	<name>Anchor Point</name>
																	<value>
																		<horiz>0</horiz>
																		<vert>0</vert>
																	</value>
																</parameter>
																<parameter authoringApp="PremierePro">
																	<parameterid>antiflicker</parameterid>
																	<name>Anti-flicker Filter</name>
																	<valuemin>0.0</valuemin>
																	<valuemax>1.0</valuemax>
																	<value>0</value>
																</parameter>
															</effect>
														</filter>
														<filter>
															<effect>
																<name>Gaussian Blur</name>
																<effectid>Gaussian Blur</effectid>
																<effectcategory>Blur</effectcategory>
																<effecttype>motion</effecttype>
																<mediatype>video</mediatype>
																<pproBypass>false</pproBypass>
																<parameter authoringApp="PremierePro">
																	<parameterid>radius</parameterid>
																	<name>Radius</name>
																	<valuemin>0</valuemin>
																	<valuemax>100</valuemax>
																	<value>150</value>
																</parameter>
															</effect>
														</filter>
														<logginginfo>
															<description></description>
															<scene></scene>
															<shottake></shottake>
															<lognote></lognote>
															<good></good>
															<originalvideofilename></originalvideofilename>
															<originalaudiofilename></originalaudiofilename>
														</logginginfo>
														<colorinfo>
															<lut></lut>
															<lut1></lut1>
															<asc_sop></asc_sop>
															<asc_sat></asc_sat>
															<lut2></lut2>
														</colorinfo>
														<labels>
															<label2>Iris</label2>
														</labels>
													</clipitem>
													<clipitem id="clipitem-435">
														<masterclipid>masterclip-148</masterclipid>
														<name>hammerlyceramics - BuEwEz2FE7M.mp4</name>
														<enabled>TRUE</enabled>
														<duration>15585</duration>
														<rate>
															<timebase>30</timebase>
															<ntsc>TRUE</ntsc>
														</rate>
														<start>1162</start>
														<end>1275</end>
														<in>15407</in>
														<out>15520</out>
														<pproTicksIn>130584604550400</pproTicksIn>
														<pproTicksOut>131542354944000</pproTicksOut>
														<alphatype>none</alphatype>
														<file id="file-143"/>
														<filter>
															<effect>
																<name>Basic Motion</name>
																<effectid>basic</effectid>
																<effectcategory>motion</effectcategory>
																<effecttype>motion</effecttype>
																<mediatype>video</mediatype>
																<pproBypass>false</pproBypass>
																<parameter authoringApp="PremierePro">
																	<parameterid>scale</parameterid>
																	<name>Scale</name>
																	<valuemin>0</valuemin>
																	<valuemax>1000</valuemax>
																	<value>370</value>
																</parameter>
																<parameter authoringApp="PremierePro">
																	<parameterid>rotation</parameterid>
																	<name>Rotation</name>
																	<valuemin>-8640</valuemin>
																	<valuemax>8640</valuemax>
																	<value>0</value>
																</parameter>
																<parameter authoringApp="PremierePro">
																	<parameterid>center</parameterid>
																	<name>Center</name>
																	<value>
																		<horiz>0</horiz>
																		<vert>-0.124294</vert>
																	</value>
																</parameter>
																<parameter authoringApp="PremierePro">
																	<parameterid>centerOffset</parameterid>
																	<name>Anchor Point</name>
																	<value>
																		<horiz>0</horiz>
																		<vert>0</vert>
																	</value>
																</parameter>
																<parameter authoringApp="PremierePro">
																	<parameterid>antiflicker</parameterid>
																	<name>Anti-flicker Filter</name>
																	<valuemin>0.0</valuemin>
																	<valuemax>1.0</valuemax>
																	<value>0</value>
																</parameter>
															</effect>
														</filter>
														<filter>
															<effect>
																<name>Gaussian Blur</name>
																<effectid>Gaussian Blur</effectid>
																<effectcategory>Blur</effectcategory>
																<effecttype>motion</effecttype>
																<mediatype>video</mediatype>
																<pproBypass>false</pproBypass>
																<parameter authoringApp="PremierePro">
																	<parameterid>radius</parameterid>
																	<name>Radius</name>
																	<valuemin>0</valuemin>
																	<valuemax>100</valuemax>
																	<value>150</value>
																</parameter>
															</effect>
														</filter>
														<logginginfo>
															<description></description>
															<scene></scene>
															<shottake></shottake>
															<lognote></lognote>
															<good></good>
															<originalvideofilename></originalvideofilename>
															<originalaudiofilename></originalaudiofilename>
														</logginginfo>
														<colorinfo>
															<lut></lut>
															<lut1></lut1>
															<asc_sop></asc_sop>
															<asc_sat></asc_sat>
															<lut2></lut2>
														</colorinfo>
														<labels>
															<label2>Iris</label2>
														</labels>
													</clipitem>
													<clipitem id="clipitem-436">
														<masterclipid>masterclip-149</masterclipid>
														<name>tortus - 34kZuTlkHp.mp4</name>
														<enabled>TRUE</enabled>
														<duration>261</duration>
														<rate>
															<timebase>30</timebase>
															<ntsc>TRUE</ntsc>
														</rate>
														<start>1591</start>
														<end>1828</end>
														<in>0</in>
														<out>237</out>
														<pproTicksIn>0</pproTicksIn>
														<pproTicksOut>2008733126400</pproTicksOut>
														<alphatype>none</alphatype>
														<pixelaspectratio>square</pixelaspectratio>
														<anamorphic>FALSE</anamorphic>
														<file id="file-144">
															<name>tortus - 34kZuTlkHp.mp4</name>
															<pathurl>file://localhost/Volumes/Satisfactum%20Satisfactorum/00_Hub%20World/3_Raw%20Files/Clip%20Providers/tortus%20051921/tortus%20-%2034kZuTlkHp.mp4</pathurl>
															<rate>
																<timebase>29</timebase>
																<ntsc>FALSE</ntsc>
															</rate>
															<duration>262</duration>
															<timecode>
																<rate>
																	<timebase>29</timebase>
																	<ntsc>FALSE</ntsc>
																</rate>
																<string>00:00:00:00</string>
																<frame>0</frame>
																<displayformat>NDF</displayformat>
															</timecode>
															<media>
																<video>
																	<samplecharacteristics>
																		<rate>
																			<timebase>29</timebase>
																			<ntsc>FALSE</ntsc>
																		</rate>
																		<width>640</width>
																		<height>640</height>
																		<anamorphic>FALSE</anamorphic>
																		<pixelaspectratio>square</pixelaspectratio>
																		<fielddominance>none</fielddominance>
																	</samplecharacteristics>
																</video>
																<audio>
																	<samplecharacteristics>
																		<depth>16</depth>
																		<samplerate>44100</samplerate>
																	</samplecharacteristics>
																	<channelcount>1</channelcount>
																	<audiochannel>
																		<sourcechannel>1</sourcechannel>
																	</audiochannel>
																</audio>
															</media>
														</file>
														<filter>
															<effect>
																<name>Basic Motion</name>
																<effectid>basic</effectid>
																<effectcategory>motion</effectcategory>
																<effecttype>motion</effecttype>
																<mediatype>video</mediatype>
																<pproBypass>false</pproBypass>
																<parameter authoringApp="PremierePro">
																	<parameterid>scale</parameterid>
																	<name>Scale</name>
																	<valuemin>0</valuemin>
																	<valuemax>1000</valuemax>
																	<value>370</value>
																</parameter>
																<parameter authoringApp="PremierePro">
																	<parameterid>rotation</parameterid>
																	<name>Rotation</name>
																	<valuemin>-8640</valuemin>
																	<valuemax>8640</valuemax>
																	<value>0</value>
																</parameter>
																<parameter authoringApp="PremierePro">
																	<parameterid>center</parameterid>
																	<name>Center</name>
																	<value>
																		<horiz>0</horiz>
																		<vert>-0.20625</vert>
																	</value>
																</parameter>
																<parameter authoringApp="PremierePro">
																	<parameterid>centerOffset</parameterid>
																	<name>Anchor Point</name>
																	<value>
																		<horiz>0</horiz>
																		<vert>0</vert>
																	</value>
																</parameter>
																<parameter authoringApp="PremierePro">
																	<parameterid>antiflicker</parameterid>
																	<name>Anti-flicker Filter</name>
																	<valuemin>0.0</valuemin>
																	<valuemax>1.0</valuemax>
																	<value>0</value>
																</parameter>
															</effect>
														</filter>
														<filter>
															<effect>
																<name>Gaussian Blur</name>
																<effectid>Gaussian Blur</effectid>
																<effectcategory>Blur</effectcategory>
																<effecttype>motion</effecttype>
																<mediatype>video</mediatype>
																<pproBypass>false</pproBypass>
																<parameter authoringApp="PremierePro">
																	<parameterid>radius</parameterid>
																	<name>Radius</name>
																	<valuemin>0</valuemin>
																	<valuemax>100</valuemax>
																	<value>150</value>
																</parameter>
															</effect>
														</filter>
														<logginginfo>
															<description></description>
															<scene></scene>
															<shottake></shottake>
															<lognote></lognote>
															<good></good>
															<originalvideofilename></originalvideofilename>
															<originalaudiofilename></originalaudiofilename>
														</logginginfo>
														<colorinfo>
															<lut></lut>
															<lut1></lut1>
															<asc_sop></asc_sop>
															<asc_sat></asc_sat>
															<lut2></lut2>
														</colorinfo>
														<labels>
															<label2>Iris</label2>
														</labels>
													</clipitem>
													<enabled>TRUE</enabled>
													<locked>FALSE</locked>
												</track>
												<track TL.SQTrackShy="0" TL.SQTrackExpandedHeight="25" TL.SQTrackExpanded="0" MZ.TrackTargeted="0">
													<clipitem id="clipitem-437">
														<masterclipid>masterclip-148</masterclipid>
														<name>hammerlyceramics - BuEwEz2FE7M.mp4</name>
														<enabled>TRUE</enabled>
														<duration>15585</duration>
														<rate>
															<timebase>30</timebase>
															<ntsc>TRUE</ntsc>
														</rate>
														<start>0</start>
														<end>409</end>
														<in>7003</in>
														<out>7412</out>
														<pproTicksIn>59355097401600</pproTicksIn>
														<pproTicksOut>62821645286400</pproTicksOut>
														<alphatype>none</alphatype>
														<file id="file-143"/>
														<filter>
															<effect>
																<name>Basic Motion</name>
																<effectid>basic</effectid>
																<effectcategory>motion</effectcategory>
																<effecttype>motion</effecttype>
																<mediatype>video</mediatype>
																<pproBypass>false</pproBypass>
																<parameter authoringApp="PremierePro">
																	<parameterid>scale</parameterid>
																	<name>Scale</name>
																	<valuemin>0</valuemin>
																	<valuemax>1000</valuemax>
																	<value>170</value>
																</parameter>
																<parameter authoringApp="PremierePro">
																	<parameterid>rotation</parameterid>
																	<name>Rotation</name>
																	<valuemin>-8640</valuemin>
																	<valuemax>8640</valuemax>
																	<value>0</value>
																</parameter>
																<parameter authoringApp="PremierePro">
																	<parameterid>center</parameterid>
																	<name>Center</name>
																	<value>
																		<horiz>0</horiz>
																		<vert>-0.124294</vert>
																	</value>
																</parameter>
																<parameter authoringApp="PremierePro">
																	<parameterid>centerOffset</parameterid>
																	<name>Anchor Point</name>
																	<value>
																		<horiz>0</horiz>
																		<vert>0</vert>
																	</value>
																</parameter>
																<parameter authoringApp="PremierePro">
																	<parameterid>antiflicker</parameterid>
																	<name>Anti-flicker Filter</name>
																	<valuemin>0.0</valuemin>
																	<valuemax>1.0</valuemax>
																	<value>0</value>
																</parameter>
															</effect>
														</filter>
														<logginginfo>
															<description></description>
															<scene></scene>
															<shottake></shottake>
															<lognote></lognote>
															<good></good>
															<originalvideofilename></originalvideofilename>
															<originalaudiofilename></originalaudiofilename>
														</logginginfo>
														<colorinfo>
															<lut></lut>
															<lut1></lut1>
															<asc_sop></asc_sop>
															<asc_sat></asc_sat>
															<lut2></lut2>
														</colorinfo>
														<labels>
															<label2>Iris</label2>
														</labels>
													</clipitem>
													<clipitem id="clipitem-438">
														<masterclipid>masterclip-148</masterclipid>
														<name>hammerlyceramics - BuEwEz2FE7M.mp4</name>
														<enabled>TRUE</enabled>
														<duration>15585</duration>
														<rate>
															<timebase>30</timebase>
															<ntsc>TRUE</ntsc>
														</rate>
														<start>409</start>
														<end>538</end>
														<in>11220</in>
														<out>11349</out>
														<pproTicksIn>95096985984000</pproTicksIn>
														<pproTicksOut>96190347052800</pproTicksOut>
														<alphatype>none</alphatype>
														<file id="file-143"/>
														<filter>
															<effect>
																<name>Basic Motion</name>
																<effectid>basic</effectid>
																<effectcategory>motion</effectcategory>
																<effecttype>motion</effecttype>
																<mediatype>video</mediatype>
																<pproBypass>false</pproBypass>
																<parameter authoringApp="PremierePro">
																	<parameterid>scale</parameterid>
																	<name>Scale</name>
																	<valuemin>0</valuemin>
																	<valuemax>1000</valuemax>
																	<value>170</value>
																</parameter>
																<parameter authoringApp="PremierePro">
																	<parameterid>rotation</parameterid>
																	<name>Rotation</name>
																	<valuemin>-8640</valuemin>
																	<valuemax>8640</valuemax>
																	<value>0</value>
																</parameter>
																<parameter authoringApp="PremierePro">
																	<parameterid>center</parameterid>
																	<name>Center</name>
																	<value>
																		<horiz>0</horiz>
																		<vert>-0.124294</vert>
																	</value>
																</parameter>
																<parameter authoringApp="PremierePro">
																	<parameterid>centerOffset</parameterid>
																	<name>Anchor Point</name>
																	<value>
																		<horiz>0</horiz>
																		<vert>0</vert>
																	</value>
																</parameter>
																<parameter authoringApp="PremierePro">
																	<parameterid>antiflicker</parameterid>
																	<name>Anti-flicker Filter</name>
																	<valuemin>0.0</valuemin>
																	<valuemax>1.0</valuemax>
																	<value>0</value>
																</parameter>
															</effect>
														</filter>
														<logginginfo>
															<description></description>
															<scene></scene>
															<shottake></shottake>
															<lognote></lognote>
															<good></good>
															<originalvideofilename></originalvideofilename>
															<originalaudiofilename></originalaudiofilename>
														</logginginfo>
														<colorinfo>
															<lut></lut>
															<lut1></lut1>
															<asc_sop></asc_sop>
															<asc_sat></asc_sat>
															<lut2></lut2>
														</colorinfo>
														<labels>
															<label2>Iris</label2>
														</labels>
													</clipitem>
													<clipitem id="clipitem-439">
														<masterclipid>masterclip-148</masterclipid>
														<name>hammerlyceramics - BuEwEz2FE7M.mp4</name>
														<enabled>TRUE</enabled>
														<duration>15585</duration>
														<rate>
															<timebase>30</timebase>
															<ntsc>TRUE</ntsc>
														</rate>
														<start>538</start>
														<end>680</end>
														<in>11410</in>
														<out>11552</out>
														<pproTicksIn>96707362752000</pproTicksIn>
														<pproTicksOut>97910907494400</pproTicksOut>
														<alphatype>none</alphatype>
														<file id="file-143"/>
														<filter>
															<effect>
																<name>Basic Motion</name>
																<effectid>basic</effectid>
																<effectcategory>motion</effectcategory>
																<effecttype>motion</effecttype>
																<mediatype>video</mediatype>
																<pproBypass>false</pproBypass>
																<parameter authoringApp="PremierePro">
																	<parameterid>scale</parameterid>
																	<name>Scale</name>
																	<valuemin>0</valuemin>
																	<valuemax>1000</valuemax>
																	<value>170</value>
																</parameter>
																<parameter authoringApp="PremierePro">
																	<parameterid>rotation</parameterid>
																	<name>Rotation</name>
																	<valuemin>-8640</valuemin>
																	<valuemax>8640</valuemax>
																	<value>0</value>
																</parameter>
																<parameter authoringApp="PremierePro">
																	<parameterid>center</parameterid>
																	<name>Center</name>
																	<value>
																		<horiz>0</horiz>
																		<vert>-0.124294</vert>
																	</value>
																</parameter>
																<parameter authoringApp="PremierePro">
																	<parameterid>centerOffset</parameterid>
																	<name>Anchor Point</name>
																	<value>
																		<horiz>0</horiz>
																		<vert>0</vert>
																	</value>
																</parameter>
																<parameter authoringApp="PremierePro">
																	<parameterid>antiflicker</parameterid>
																	<name>Anti-flicker Filter</name>
																	<valuemin>0.0</valuemin>
																	<valuemax>1.0</valuemax>
																	<value>0</value>
																</parameter>
															</effect>
														</filter>
														<logginginfo>
															<description></description>
															<scene></scene>
															<shottake></shottake>
															<lognote></lognote>
															<good></good>
															<originalvideofilename></originalvideofilename>
															<originalaudiofilename></originalaudiofilename>
														</logginginfo>
														<colorinfo>
															<lut></lut>
															<lut1></lut1>
															<asc_sop></asc_sop>
															<asc_sat></asc_sat>
															<lut2></lut2>
														</colorinfo>
														<labels>
															<label2>Iris</label2>
														</labels>
													</clipitem>
													<clipitem id="clipitem-440">
														<masterclipid>masterclip-148</masterclipid>
														<name>hammerlyceramics - BuEwEz2FE7M.mp4</name>
														<enabled>TRUE</enabled>
														<duration>15585</duration>
														<rate>
															<timebase>30</timebase>
															<ntsc>TRUE</ntsc>
														</rate>
														<start>680</start>
														<end>1039</end>
														<in>13042</in>
														<out>13401</out>
														<pproTicksIn>110539651622400</pproTicksIn>
														<pproTicksOut>113582416147200</pproTicksOut>
														<alphatype>none</alphatype>
														<file id="file-143"/>
														<filter>
															<effect>
																<name>Basic Motion</name>
																<effectid>basic</effectid>
																<effectcategory>motion</effectcategory>
																<effecttype>motion</effecttype>
																<mediatype>video</mediatype>
																<pproBypass>false</pproBypass>
																<parameter authoringApp="PremierePro">
																	<parameterid>scale</parameterid>
																	<name>Scale</name>
																	<valuemin>0</valuemin>
																	<valuemax>1000</valuemax>
																	<value>170</value>
																</parameter>
																<parameter authoringApp="PremierePro">
																	<parameterid>rotation</parameterid>
																	<name>Rotation</name>
																	<valuemin>-8640</valuemin>
																	<valuemax>8640</valuemax>
																	<value>0</value>
																</parameter>
																<parameter authoringApp="PremierePro">
																	<parameterid>center</parameterid>
																	<name>Center</name>
																	<value>
																		<horiz>0</horiz>
																		<vert>-0.124294</vert>
																	</value>
																</parameter>
																<parameter authoringApp="PremierePro">
																	<parameterid>centerOffset</parameterid>
																	<name>Anchor Point</name>
																	<value>
																		<horiz>0</horiz>
																		<vert>0</vert>
																	</value>
																</parameter>
																<parameter authoringApp="PremierePro">
																	<parameterid>antiflicker</parameterid>
																	<name>Anti-flicker Filter</name>
																	<valuemin>0.0</valuemin>
																	<valuemax>1.0</valuemax>
																	<value>0</value>
																</parameter>
															</effect>
														</filter>
														<logginginfo>
															<description></description>
															<scene></scene>
															<shottake></shottake>
															<lognote></lognote>
															<good></good>
															<originalvideofilename></originalvideofilename>
															<originalaudiofilename></originalaudiofilename>
														</logginginfo>
														<colorinfo>
															<lut></lut>
															<lut1></lut1>
															<asc_sop></asc_sop>
															<asc_sat></asc_sat>
															<lut2></lut2>
														</colorinfo>
														<labels>
															<label2>Iris</label2>
														</labels>
													</clipitem>
													<clipitem id="clipitem-441">
														<masterclipid>masterclip-148</masterclipid>
														<name>hammerlyceramics - BuEwEz2FE7M.mp4</name>
														<enabled>TRUE</enabled>
														<duration>15585</duration>
														<rate>
															<timebase>30</timebase>
															<ntsc>TRUE</ntsc>
														</rate>
														<start>1039</start>
														<end>1162</end>
														<in>14513</in>
														<out>14636</out>
														<pproTicksIn>123007358073600</pproTicksIn>
														<pproTicksOut>124049865139200</pproTicksOut>
														<alphatype>none</alphatype>
														<file id="file-143"/>
														<filter>
															<effect>
																<name>Basic Motion</name>
																<effectid>basic</effectid>
																<effectcategory>motion</effectcategory>
																<effecttype>motion</effecttype>
																<mediatype>video</mediatype>
																<pproBypass>false</pproBypass>
																<parameter authoringApp="PremierePro">
																	<parameterid>scale</parameterid>
																	<name>Scale</name>
																	<valuemin>0</valuemin>
																	<valuemax>1000</valuemax>
																	<value>170</value>
																</parameter>
																<parameter authoringApp="PremierePro">
																	<parameterid>rotation</parameterid>
																	<name>Rotation</name>
																	<valuemin>-8640</valuemin>
																	<valuemax>8640</valuemax>
																	<value>0</value>
																</parameter>
																<parameter authoringApp="PremierePro">
																	<parameterid>center</parameterid>
																	<name>Center</name>
																	<value>
																		<horiz>0</horiz>
																		<vert>-0.124294</vert>
																	</value>
																</parameter>
																<parameter authoringApp="PremierePro">
																	<parameterid>centerOffset</parameterid>
																	<name>Anchor Point</name>
																	<value>
																		<horiz>0</horiz>
																		<vert>0</vert>
																	</value>
																</parameter>
																<parameter authoringApp="PremierePro">
																	<parameterid>antiflicker</parameterid>
																	<name>Anti-flicker Filter</name>
																	<valuemin>0.0</valuemin>
																	<valuemax>1.0</valuemax>
																	<value>0</value>
																</parameter>
															</effect>
														</filter>
														<logginginfo>
															<description></description>
															<scene></scene>
															<shottake></shottake>
															<lognote></lognote>
															<good></good>
															<originalvideofilename></originalvideofilename>
															<originalaudiofilename></originalaudiofilename>
														</logginginfo>
														<colorinfo>
															<lut></lut>
															<lut1></lut1>
															<asc_sop></asc_sop>
															<asc_sat></asc_sat>
															<lut2></lut2>
														</colorinfo>
														<labels>
															<label2>Iris</label2>
														</labels>
													</clipitem>
													<clipitem id="clipitem-442">
														<masterclipid>masterclip-148</masterclipid>
														<name>hammerlyceramics - BuEwEz2FE7M.mp4</name>
														<enabled>TRUE</enabled>
														<duration>15585</duration>
														<rate>
															<timebase>30</timebase>
															<ntsc>TRUE</ntsc>
														</rate>
														<start>1162</start>
														<end>1275</end>
														<in>15407</in>
														<out>15520</out>
														<pproTicksIn>130584604550400</pproTicksIn>
														<pproTicksOut>131542354944000</pproTicksOut>
														<alphatype>none</alphatype>
														<file id="file-143"/>
														<filter>
															<effect>
																<name>Basic Motion</name>
																<effectid>basic</effectid>
																<effectcategory>motion</effectcategory>
																<effecttype>motion</effecttype>
																<mediatype>video</mediatype>
																<pproBypass>false</pproBypass>
																<parameter authoringApp="PremierePro">
																	<parameterid>scale</parameterid>
																	<name>Scale</name>
																	<valuemin>0</valuemin>
																	<valuemax>1000</valuemax>
																	<value>170</value>
																</parameter>
																<parameter authoringApp="PremierePro">
																	<parameterid>rotation</parameterid>
																	<name>Rotation</name>
																	<valuemin>-8640</valuemin>
																	<valuemax>8640</valuemax>
																	<value>0</value>
																</parameter>
																<parameter authoringApp="PremierePro">
																	<parameterid>center</parameterid>
																	<name>Center</name>
																	<value>
																		<horiz>0</horiz>
																		<vert>-0.124294</vert>
																	</value>
																</parameter>
																<parameter authoringApp="PremierePro">
																	<parameterid>centerOffset</parameterid>
																	<name>Anchor Point</name>
																	<value>
																		<horiz>0</horiz>
																		<vert>0</vert>
																	</value>
																</parameter>
																<parameter authoringApp="PremierePro">
																	<parameterid>antiflicker</parameterid>
																	<name>Anti-flicker Filter</name>
																	<valuemin>0.0</valuemin>
																	<valuemax>1.0</valuemax>
																	<value>0</value>
																</parameter>
															</effect>
														</filter>
														<logginginfo>
															<description></description>
															<scene></scene>
															<shottake></shottake>
															<lognote></lognote>
															<good></good>
															<originalvideofilename></originalvideofilename>
															<originalaudiofilename></originalaudiofilename>
														</logginginfo>
														<colorinfo>
															<lut></lut>
															<lut1></lut1>
															<asc_sop></asc_sop>
															<asc_sat></asc_sat>
															<lut2></lut2>
														</colorinfo>
														<labels>
															<label2>Iris</label2>
														</labels>
													</clipitem>
													<clipitem id="clipitem-443">
														<masterclipid>masterclip-150</masterclipid>
														<name>tortus - 26VZxTFkJ3.mp4</name>
														<enabled>TRUE</enabled>
														<duration>316</duration>
														<rate>
															<timebase>30</timebase>
															<ntsc>TRUE</ntsc>
														</rate>
														<start>1275</start>
														<end>1591</end>
														<in>0</in>
														<out>316</out>
														<pproTicksIn>0</pproTicksIn>
														<pproTicksOut>2678310835200</pproTicksOut>
														<alphatype>none</alphatype>
														<pixelaspectratio>square</pixelaspectratio>
														<anamorphic>FALSE</anamorphic>
														<file id="file-145">
															<name>tortus - 26VZxTFkJ3.mp4</name>
															<pathurl>file://localhost/Volumes/Satisfactum%20Satisfactorum/00_Hub%20World/3_Raw%20Files/Clip%20Providers/tortus%20051921/tortus%20-%2026VZxTFkJ3.mp4</pathurl>
															<rate>
																<timebase>29</timebase>
																<ntsc>FALSE</ntsc>
															</rate>
															<duration>317</duration>
															<timecode>
																<rate>
																	<timebase>29</timebase>
																	<ntsc>FALSE</ntsc>
																</rate>
																<string>00:00:00:00</string>
																<frame>0</frame>
																<displayformat>NDF</displayformat>
															</timecode>
															<media>
																<video>
																	<samplecharacteristics>
																		<rate>
																			<timebase>29</timebase>
																			<ntsc>FALSE</ntsc>
																		</rate>
																		<width>640</width>
																		<height>640</height>
																		<anamorphic>FALSE</anamorphic>
																		<pixelaspectratio>square</pixelaspectratio>
																		<fielddominance>none</fielddominance>
																	</samplecharacteristics>
																</video>
																<audio>
																	<samplecharacteristics>
																		<depth>16</depth>
																		<samplerate>48000</samplerate>
																	</samplecharacteristics>
																	<channelcount>2</channelcount>
																</audio>
															</media>
														</file>
														<filter>
															<effect>
																<name>Basic Motion</name>
																<effectid>basic</effectid>
																<effectcategory>motion</effectcategory>
																<effecttype>motion</effecttype>
																<mediatype>video</mediatype>
																<pproBypass>false</pproBypass>
																<parameter authoringApp="PremierePro">
																	<parameterid>scale</parameterid>
																	<name>Scale</name>
																	<valuemin>0</valuemin>
																	<valuemax>1000</valuemax>
																	<value>370</value>
																</parameter>
																<parameter authoringApp="PremierePro">
																	<parameterid>rotation</parameterid>
																	<name>Rotation</name>
																	<valuemin>-8640</valuemin>
																	<valuemax>8640</valuemax>
																	<value>0</value>
																</parameter>
																<parameter authoringApp="PremierePro">
																	<parameterid>center</parameterid>
																	<name>Center</name>
																	<value>
																		<horiz>0</horiz>
																		<vert>-0.20625</vert>
																	</value>
																</parameter>
																<parameter authoringApp="PremierePro">
																	<parameterid>centerOffset</parameterid>
																	<name>Anchor Point</name>
																	<value>
																		<horiz>0</horiz>
																		<vert>0</vert>
																	</value>
																</parameter>
																<parameter authoringApp="PremierePro">
																	<parameterid>antiflicker</parameterid>
																	<name>Anti-flicker Filter</name>
																	<valuemin>0.0</valuemin>
																	<valuemax>1.0</valuemax>
																	<value>0</value>
																</parameter>
															</effect>
														</filter>
														<filter>
															<effect>
																<name>Gaussian Blur</name>
																<effectid>Gaussian Blur</effectid>
																<effectcategory>Blur</effectcategory>
																<effecttype>motion</effecttype>
																<mediatype>video</mediatype>
																<pproBypass>false</pproBypass>
																<parameter authoringApp="PremierePro">
																	<parameterid>radius</parameterid>
																	<name>Radius</name>
																	<valuemin>0</valuemin>
																	<valuemax>100</valuemax>
																	<value>150</value>
																</parameter>
															</effect>
														</filter>
														<logginginfo>
															<description></description>
															<scene></scene>
															<shottake></shottake>
															<lognote></lognote>
															<good></good>
															<originalvideofilename></originalvideofilename>
															<originalaudiofilename></originalaudiofilename>
														</logginginfo>
														<colorinfo>
															<lut></lut>
															<lut1></lut1>
															<asc_sop></asc_sop>
															<asc_sat></asc_sat>
															<lut2></lut2>
														</colorinfo>
														<labels>
															<label2>Iris</label2>
														</labels>
													</clipitem>
													<clipitem id="clipitem-444">
														<masterclipid>masterclip-149</masterclipid>
														<name>tortus - 34kZuTlkHp.mp4</name>
														<enabled>TRUE</enabled>
														<duration>261</duration>
														<rate>
															<timebase>30</timebase>
															<ntsc>TRUE</ntsc>
														</rate>
														<start>1591</start>
														<end>1828</end>
														<in>0</in>
														<out>237</out>
														<pproTicksIn>0</pproTicksIn>
														<pproTicksOut>2008733126400</pproTicksOut>
														<alphatype>none</alphatype>
														<file id="file-144"/>
														<filter>
															<effect>
																<name>Basic Motion</name>
																<effectid>basic</effectid>
																<effectcategory>motion</effectcategory>
																<effecttype>motion</effecttype>
																<mediatype>video</mediatype>
																<pproBypass>false</pproBypass>
																<parameter authoringApp="PremierePro">
																	<parameterid>scale</parameterid>
																	<name>Scale</name>
																	<valuemin>0</valuemin>
																	<valuemax>1000</valuemax>
																	<value>172.5</value>
																</parameter>
																<parameter authoringApp="PremierePro">
																	<parameterid>rotation</parameterid>
																	<name>Rotation</name>
																	<valuemin>-8640</valuemin>
																	<valuemax>8640</valuemax>
																	<value>0</value>
																</parameter>
																<parameter authoringApp="PremierePro">
																	<parameterid>center</parameterid>
																	<name>Center</name>
																	<value>
																		<horiz>0</horiz>
																		<vert>0</vert>
																	</value>
																</parameter>
																<parameter authoringApp="PremierePro">
																	<parameterid>centerOffset</parameterid>
																	<name>Anchor Point</name>
																	<value>
																		<horiz>0</horiz>
																		<vert>0</vert>
																	</value>
																</parameter>
																<parameter authoringApp="PremierePro">
																	<parameterid>antiflicker</parameterid>
																	<name>Anti-flicker Filter</name>
																	<valuemin>0.0</valuemin>
																	<valuemax>1.0</valuemax>
																	<value>0</value>
																</parameter>
															</effect>
														</filter>
														<logginginfo>
															<description></description>
															<scene></scene>
															<shottake></shottake>
															<lognote></lognote>
															<good></good>
															<originalvideofilename></originalvideofilename>
															<originalaudiofilename></originalaudiofilename>
														</logginginfo>
														<colorinfo>
															<lut></lut>
															<lut1></lut1>
															<asc_sop></asc_sop>
															<asc_sat></asc_sat>
															<lut2></lut2>
														</colorinfo>
														<labels>
															<label2>Iris</label2>
														</labels>
													</clipitem>
													<clipitem id="clipitem-445">
														<masterclipid>masterclip-151</masterclipid>
														<name>tortus - 96KwSzlkIE.mp4</name>
														<enabled>TRUE</enabled>
														<duration>432</duration>
														<rate>
															<timebase>30</timebase>
															<ntsc>TRUE</ntsc>
														</rate>
														<start>1828</start>
														<end>2260</end>
														<in>0</in>
														<out>432</out>
														<pproTicksIn>0</pproTicksIn>
														<pproTicksOut>3661488230400</pproTicksOut>
														<alphatype>none</alphatype>
														<pixelaspectratio>square</pixelaspectratio>
														<anamorphic>FALSE</anamorphic>
														<file id="file-146">
															<name>tortus - 96KwSzlkIE.mp4</name>
															<pathurl>file://localhost/Volumes/Satisfactum%20Satisfactorum/00_Hub%20World/3_Raw%20Files/Clip%20Providers/tortus%20051921/tortus%20-%2096KwSzlkIE.mp4</pathurl>
															<rate>
																<timebase>29</timebase>
																<ntsc>FALSE</ntsc>
															</rate>
															<duration>433</duration>
															<timecode>
																<rate>
																	<timebase>29</timebase>
																	<ntsc>FALSE</ntsc>
																</rate>
																<string>00:00:00:00</string>
																<frame>0</frame>
																<displayformat>NDF</displayformat>
															</timecode>
															<media>
																<video>
																	<samplecharacteristics>
																		<rate>
																			<timebase>29</timebase>
																			<ntsc>FALSE</ntsc>
																		</rate>
																		<width>640</width>
																		<height>640</height>
																		<anamorphic>FALSE</anamorphic>
																		<pixelaspectratio>square</pixelaspectratio>
																		<fielddominance>none</fielddominance>
																	</samplecharacteristics>
																</video>
															</media>
														</file>
														<filter>
															<effect>
																<name>Basic Motion</name>
																<effectid>basic</effectid>
																<effectcategory>motion</effectcategory>
																<effecttype>motion</effecttype>
																<mediatype>video</mediatype>
																<pproBypass>false</pproBypass>
																<parameter authoringApp="PremierePro">
																	<parameterid>scale</parameterid>
																	<name>Scale</name>
																	<valuemin>0</valuemin>
																	<valuemax>1000</valuemax>
																	<value>370</value>
																</parameter>
																<parameter authoringApp="PremierePro">
																	<parameterid>rotation</parameterid>
																	<name>Rotation</name>
																	<valuemin>-8640</valuemin>
																	<valuemax>8640</valuemax>
																	<value>0</value>
																</parameter>
																<parameter authoringApp="PremierePro">
																	<parameterid>center</parameterid>
																	<name>Center</name>
																	<value>
																		<horiz>0</horiz>
																		<vert>-0.20625</vert>
																	</value>
																</parameter>
																<parameter authoringApp="PremierePro">
																	<parameterid>centerOffset</parameterid>
																	<name>Anchor Point</name>
																	<value>
																		<horiz>0</horiz>
																		<vert>0</vert>
																	</value>
																</parameter>
																<parameter authoringApp="PremierePro">
																	<parameterid>antiflicker</parameterid>
																	<name>Anti-flicker Filter</name>
																	<valuemin>0.0</valuemin>
																	<valuemax>1.0</valuemax>
																	<value>0</value>
																</parameter>
															</effect>
														</filter>
														<filter>
															<effect>
																<name>Gaussian Blur</name>
																<effectid>Gaussian Blur</effectid>
																<effectcategory>Blur</effectcategory>
																<effecttype>motion</effecttype>
																<mediatype>video</mediatype>
																<pproBypass>false</pproBypass>
																<parameter authoringApp="PremierePro">
																	<parameterid>radius</parameterid>
																	<name>Radius</name>
																	<valuemin>0</valuemin>
																	<valuemax>100</valuemax>
																	<value>150</value>
																</parameter>
															</effect>
														</filter>
														<logginginfo>
															<description></description>
															<scene></scene>
															<shottake></shottake>
															<lognote></lognote>
															<good></good>
															<originalvideofilename></originalvideofilename>
															<originalaudiofilename></originalaudiofilename>
														</logginginfo>
														<colorinfo>
															<lut></lut>
															<lut1></lut1>
															<asc_sop></asc_sop>
															<asc_sat></asc_sat>
															<lut2></lut2>
														</colorinfo>
														<labels>
															<label2>Violet</label2>
														</labels>
													</clipitem>
													<enabled>TRUE</enabled>
													<locked>FALSE</locked>
												</track>
												<track TL.SQTrackShy="0" TL.SQTrackExpandedHeight="25" TL.SQTrackExpanded="0" MZ.TrackTargeted="0">
													<clipitem id="clipitem-446">
														<masterclipid>masterclip-150</masterclipid>
														<name>tortus - 26VZxTFkJ3.mp4</name>
														<enabled>TRUE</enabled>
														<duration>316</duration>
														<rate>
															<timebase>30</timebase>
															<ntsc>TRUE</ntsc>
														</rate>
														<start>1275</start>
														<end>1591</end>
														<in>0</in>
														<out>316</out>
														<pproTicksIn>0</pproTicksIn>
														<pproTicksOut>2678310835200</pproTicksOut>
														<alphatype>none</alphatype>
														<file id="file-145"/>
														<filter>
															<effect>
																<name>Basic Motion</name>
																<effectid>basic</effectid>
																<effectcategory>motion</effectcategory>
																<effecttype>motion</effecttype>
																<mediatype>video</mediatype>
																<pproBypass>false</pproBypass>
																<parameter authoringApp="PremierePro">
																	<parameterid>scale</parameterid>
																	<name>Scale</name>
																	<valuemin>0</valuemin>
																	<valuemax>1000</valuemax>
																	<value>172.5</value>
																</parameter>
																<parameter authoringApp="PremierePro">
																	<parameterid>rotation</parameterid>
																	<name>Rotation</name>
																	<valuemin>-8640</valuemin>
																	<valuemax>8640</valuemax>
																	<value>0</value>
																</parameter>
																<parameter authoringApp="PremierePro">
																	<parameterid>center</parameterid>
																	<name>Center</name>
																	<value>
																		<horiz>0</horiz>
																		<vert>0</vert>
																	</value>
																</parameter>
																<parameter authoringApp="PremierePro">
																	<parameterid>centerOffset</parameterid>
																	<name>Anchor Point</name>
																	<value>
																		<horiz>0</horiz>
																		<vert>0</vert>
																	</value>
																</parameter>
																<parameter authoringApp="PremierePro">
																	<parameterid>antiflicker</parameterid>
																	<name>Anti-flicker Filter</name>
																	<valuemin>0.0</valuemin>
																	<valuemax>1.0</valuemax>
																	<value>0</value>
																</parameter>
															</effect>
														</filter>
														<logginginfo>
															<description></description>
															<scene></scene>
															<shottake></shottake>
															<lognote></lognote>
															<good></good>
															<originalvideofilename></originalvideofilename>
															<originalaudiofilename></originalaudiofilename>
														</logginginfo>
														<colorinfo>
															<lut></lut>
															<lut1></lut1>
															<asc_sop></asc_sop>
															<asc_sat></asc_sat>
															<lut2></lut2>
														</colorinfo>
														<labels>
															<label2>Iris</label2>
														</labels>
													</clipitem>
													<clipitem id="clipitem-447">
														<masterclipid>masterclip-151</masterclipid>
														<name>tortus - 96KwSzlkIE.mp4</name>
														<enabled>TRUE</enabled>
														<duration>432</duration>
														<rate>
															<timebase>30</timebase>
															<ntsc>TRUE</ntsc>
														</rate>
														<start>1828</start>
														<end>2260</end>
														<in>0</in>
														<out>432</out>
														<pproTicksIn>0</pproTicksIn>
														<pproTicksOut>3661488230400</pproTicksOut>
														<alphatype>none</alphatype>
														<file id="file-146"/>
														<filter>
															<effect>
																<name>Basic Motion</name>
																<effectid>basic</effectid>
																<effectcategory>motion</effectcategory>
																<effecttype>motion</effecttype>
																<mediatype>video</mediatype>
																<pproBypass>false</pproBypass>
																<parameter authoringApp="PremierePro">
																	<parameterid>scale</parameterid>
																	<name>Scale</name>
																	<valuemin>0</valuemin>
																	<valuemax>1000</valuemax>
																	<value>172.5</value>
																</parameter>
																<parameter authoringApp="PremierePro">
																	<parameterid>rotation</parameterid>
																	<name>Rotation</name>
																	<valuemin>-8640</valuemin>
																	<valuemax>8640</valuemax>
																	<value>0</value>
																</parameter>
																<parameter authoringApp="PremierePro">
																	<parameterid>center</parameterid>
																	<name>Center</name>
																	<value>
																		<horiz>0</horiz>
																		<vert>0</vert>
																	</value>
																</parameter>
																<parameter authoringApp="PremierePro">
																	<parameterid>centerOffset</parameterid>
																	<name>Anchor Point</name>
																	<value>
																		<horiz>0</horiz>
																		<vert>0</vert>
																	</value>
																</parameter>
																<parameter authoringApp="PremierePro">
																	<parameterid>antiflicker</parameterid>
																	<name>Anti-flicker Filter</name>
																	<valuemin>0.0</valuemin>
																	<valuemax>1.0</valuemax>
																	<value>0</value>
																</parameter>
															</effect>
														</filter>
														<logginginfo>
															<description></description>
															<scene></scene>
															<shottake></shottake>
															<lognote></lognote>
															<good></good>
															<originalvideofilename></originalvideofilename>
															<originalaudiofilename></originalaudiofilename>
														</logginginfo>
														<colorinfo>
															<lut></lut>
															<lut1></lut1>
															<asc_sop></asc_sop>
															<asc_sat></asc_sat>
															<lut2></lut2>
														</colorinfo>
														<labels>
															<label2>Violet</label2>
														</labels>
													</clipitem>
													<enabled>TRUE</enabled>
													<locked>FALSE</locked>
												</track>
												<track TL.SQTrackShy="0" TL.SQTrackExpandedHeight="25" TL.SQTrackExpanded="0" MZ.TrackTargeted="0">
													<clipitem id="clipitem-448">
														<masterclipid>masterclip-41</masterclipid>
														<name>@hammerlyceramics</name>
														<enabled>TRUE</enabled>
														<duration>5844</duration>
														<rate>
															<timebase>30</timebase>
															<ntsc>TRUE</ntsc>
														</rate>
														<start>0</start>
														<end>1275</end>
														<in>0</in>
														<out>1275</out>
														<pproTicksIn>0</pproTicksIn>
														<pproTicksOut>10806475680000</pproTicksOut>
														<alphatype>straight</alphatype>
														<file id="file-41"/>
														<filter>
															<effect>
																<name>Basic Motion</name>
																<effectid>basic</effectid>
																<effectcategory>motion</effectcategory>
																<effecttype>motion</effecttype>
																<mediatype>video</mediatype>
																<pproBypass>false</pproBypass>
																<parameter authoringApp="PremierePro">
																	<parameterid>scale</parameterid>
																	<name>Scale</name>
																	<valuemin>0</valuemin>
																	<valuemax>1000</valuemax>
																	<value>150</value>
																</parameter>
																<parameter authoringApp="PremierePro">
																	<parameterid>rotation</parameterid>
																	<name>Rotation</name>
																	<valuemin>-8640</valuemin>
																	<valuemax>8640</valuemax>
																	<value>0</value>
																</parameter>
																<parameter authoringApp="PremierePro">
																	<parameterid>center</parameterid>
																	<name>Center</name>
																	<value>
																		<horiz>0</horiz>
																		<vert>0</vert>
																	</value>
																</parameter>
																<parameter authoringApp="PremierePro">
																	<parameterid>centerOffset</parameterid>
																	<name>Anchor Point</name>
																	<value>
																		<horiz>0</horiz>
																		<vert>0</vert>
																	</value>
																</parameter>
																<parameter authoringApp="PremierePro">
																	<parameterid>antiflicker</parameterid>
																	<name>Anti-flicker Filter</name>
																	<valuemin>0.0</valuemin>
																	<valuemax>1.0</valuemax>
																	<value>0</value>
																</parameter>
															</effect>
														</filter>
														<logginginfo>
															<description></description>
															<scene></scene>
															<shottake></shottake>
															<lognote></lognote>
															<good></good>
															<originalvideofilename></originalvideofilename>
															<originalaudiofilename></originalaudiofilename>
														</logginginfo>
														<colorinfo>
															<lut></lut>
															<lut1></lut1>
															<asc_sop></asc_sop>
															<asc_sat></asc_sat>
															<lut2></lut2>
														</colorinfo>
														<labels>
															<label2>Rose</label2>
														</labels>
													</clipitem>
													<clipitem id="clipitem-449">
														<masterclipid>masterclip-42</masterclipid>
														<name>tortus</name>
														<enabled>TRUE</enabled>
														<duration>5844</duration>
														<rate>
															<timebase>30</timebase>
															<ntsc>TRUE</ntsc>
														</rate>
														<start>1275</start>
														<end>2260</end>
														<in>0</in>
														<out>985</out>
														<pproTicksIn>0</pproTicksIn>
														<pproTicksOut>8348532192000</pproTicksOut>
														<alphatype>straight</alphatype>
														<file id="file-42"/>
														<filter>
															<effect>
																<name>Basic Motion</name>
																<effectid>basic</effectid>
																<effectcategory>motion</effectcategory>
																<effecttype>motion</effecttype>
																<mediatype>video</mediatype>
																<pproBypass>false</pproBypass>
																<parameter authoringApp="PremierePro">
																	<parameterid>scale</parameterid>
																	<name>Scale</name>
																	<valuemin>0</valuemin>
																	<valuemax>1000</valuemax>
																	<value>150</value>
																</parameter>
																<parameter authoringApp="PremierePro">
																	<parameterid>rotation</parameterid>
																	<name>Rotation</name>
																	<valuemin>-8640</valuemin>
																	<valuemax>8640</valuemax>
																	<value>0</value>
																</parameter>
																<parameter authoringApp="PremierePro">
																	<parameterid>center</parameterid>
																	<name>Center</name>
																	<value>
																		<horiz>0</horiz>
																		<vert>0</vert>
																	</value>
																</parameter>
																<parameter authoringApp="PremierePro">
																	<parameterid>centerOffset</parameterid>
																	<name>Anchor Point</name>
																	<value>
																		<horiz>0</horiz>
																		<vert>0</vert>
																	</value>
																</parameter>
																<parameter authoringApp="PremierePro">
																	<parameterid>antiflicker</parameterid>
																	<name>Anti-flicker Filter</name>
																	<valuemin>0.0</valuemin>
																	<valuemax>1.0</valuemax>
																	<value>0</value>
																</parameter>
															</effect>
														</filter>
														<logginginfo>
															<description></description>
															<scene></scene>
															<shottake></shottake>
															<lognote></lognote>
															<good></good>
															<originalvideofilename></originalvideofilename>
															<originalaudiofilename></originalaudiofilename>
														</logginginfo>
														<colorinfo>
															<lut></lut>
															<lut1></lut1>
															<asc_sop></asc_sop>
															<asc_sat></asc_sat>
															<lut2></lut2>
														</colorinfo>
														<labels>
															<label2>Rose</label2>
														</labels>
													</clipitem>
													<enabled>TRUE</enabled>
													<locked>FALSE</locked>
												</track>
												<track TL.SQTrackShy="0" TL.SQTrackExpandedHeight="25" TL.SQTrackExpanded="0" MZ.TrackTargeted="0">
													<clipitem id="clipitem-450">
														<masterclipid>masterclip-106</masterclipid>
														<name>Bug and Lower Nest</name>
														<enabled>TRUE</enabled>
														<duration>14721</duration>
														<rate>
															<timebase>30</timebase>
															<ntsc>TRUE</ntsc>
														</rate>
														<start>0</start>
														<end>2260</end>
														<in>0</in>
														<out>2260</out>
														<pproTicksIn>0</pproTicksIn>
														<pproTicksOut>19155007872000</pproTicksOut>
														<sequence id="sequence-1"/>
														<labels>
															<label2>Cerulean</label2>
														</labels>
													</clipitem>
													<enabled>TRUE</enabled>
													<locked>FALSE</locked>
												</track>
											</video>
											<audio>
												<numOutputChannels>2</numOutputChannels>
												<format>
													<samplecharacteristics>
														<depth>16</depth>
														<samplerate>44100</samplerate>
													</samplecharacteristics>
												</format>
												<outputs>
													<group>
														<index>1</index>
														<numchannels>1</numchannels>
														<downmix>0</downmix>
														<channel>
															<index>1</index>
														</channel>
													</group>
													<group>
														<index>2</index>
														<numchannels>1</numchannels>
														<downmix>0</downmix>
														<channel>
															<index>2</index>
														</channel>
													</group>
												</outputs>
												<track TL.SQTrackAudioKeyframeStyle="0" TL.SQTrackShy="0" TL.SQTrackExpandedHeight="25" TL.SQTrackExpanded="0" MZ.TrackTargeted="1" PannerCurrentValue="0.5" PannerIsInverted="true" PannerStartKeyframe="-91445760000000000,0.5,0,0,0,0,0,0" PannerName="Balance" currentExplodedTrackIndex="0" totalExplodedTrackCount="2" premiereTrackType="Stereo">
													<enabled>TRUE</enabled>
													<locked>FALSE</locked>
													<filter>
														<effect>
															<name>Audio Levels</name>
															<effectid>audiolevels</effectid>
															<effectcategory>audiolevels</effectcategory>
															<effecttype>audiolevels</effecttype>
															<mediatype>audio</mediatype>
															<parameter authoringApp="PremierePro">
																<parameterid>level</parameterid>
																<name>Level</name>
																<valuemin>0</valuemin>
																<valuemax>3.98109</valuemax>
																<value>0.706272</value>
															</parameter>
														</effect>
													</filter>
													<outputchannelindex>1</outputchannelindex>
												</track>
												<track TL.SQTrackAudioKeyframeStyle="0" TL.SQTrackShy="0" TL.SQTrackExpandedHeight="25" TL.SQTrackExpanded="0" MZ.TrackTargeted="1" PannerCurrentValue="0.5" PannerIsInverted="true" PannerStartKeyframe="-91445760000000000,0.5,0,0,0,0,0,0" PannerName="Balance" currentExplodedTrackIndex="1" totalExplodedTrackCount="2" premiereTrackType="Stereo">
													<enabled>TRUE</enabled>
													<locked>FALSE</locked>
													<filter>
														<effect>
															<name>Audio Levels</name>
															<effectid>audiolevels</effectid>
															<effectcategory>audiolevels</effectcategory>
															<effecttype>audiolevels</effecttype>
															<mediatype>audio</mediatype>
															<parameter authoringApp="PremierePro">
																<parameterid>level</parameterid>
																<name>Level</name>
																<valuemin>0</valuemin>
																<valuemax>3.98109</valuemax>
																<value>0.706272</value>
															</parameter>
														</effect>
													</filter>
													<outputchannelindex>2</outputchannelindex>
												</track>
											</audio>
										</media>
										<timecode>
											<rate>
												<timebase>30</timebase>
												<ntsc>TRUE</ntsc>
											</rate>
											<string>00:00:00:00</string>
											<frame>0</frame>
											<displayformat>NDF</displayformat>
										</timecode>
										<labels>
											<label2>Forest</label2>
										</labels>
										<logginginfo>
											<description></description>
											<scene></scene>
											<shottake></shottake>
											<lognote></lognote>
											<good></good>
											<originalvideofilename></originalvideofilename>
											<originalaudiofilename></originalaudiofilename>
										</logginginfo>
									</sequence>
									<sequence id="sequence-52" TL.SQAudioVisibleBase="0" TL.SQVideoVisibleBase="0" TL.SQVisibleBaseTime="0" TL.SQAVDividerPosition="0.5" TL.SQHideShyTracks="0" TL.SQHeaderWidth="236" TL.SQDataTrackViewControlState="0" Monitor.ProgramZoomOut="30520877587200" Monitor.ProgramZoomIn="0" TL.SQTimePerPixel="0.13818516812528672" AM.TrackVScrollPosition="0" AM.TrackScrollPosition="0" MZ.EditLine="3517401888000" MZ.Sequence.PreviewFrameSizeHeight="1080" MZ.Sequence.PreviewFrameSizeWidth="1920" MZ.Sequence.AudioTimeDisplayFormat="200" MZ.Sequence.PreviewRenderingClassID="1297106761" MZ.Sequence.PreviewRenderingPresetCodec="1297107278" MZ.Sequence.PreviewRenderingPresetPath="EncoderPresets/SequencePreview/795454d9-d3c2-429d-9474-923ab13b7018/I-Frame Only MPEG.epr" MZ.Sequence.PreviewUseMaxRenderQuality="false" MZ.Sequence.PreviewUseMaxBitDepth="false" MZ.Sequence.EditingModeGUID="795454d9-d3c2-429d-9474-923ab13b7018" MZ.Sequence.VideoTimeDisplayFormat="103" MZ.WorkOutPoint="30520877587200" MZ.WorkInPoint="0" explodedTracks="true">
										<uuid>6b6f2bb2-d90b-4849-a71f-a18952d7f420</uuid>
										<duration>3601</duration>
										<rate>
											<timebase>30</timebase>
											<ntsc>TRUE</ntsc>
										</rate>
										<name>SAT_sandtagious_2</name>
										<media>
											<video>
												<format>
													<samplecharacteristics>
														<rate>
															<timebase>30</timebase>
															<ntsc>TRUE</ntsc>
														</rate>
														<codec>
															<name>Apple ProRes 422</name>
															<appspecificdata>
																<appname>Final Cut Pro</appname>
																<appmanufacturer>Apple Inc.</appmanufacturer>
																<appversion>7.0</appversion>
																<data>
																	<qtcodec>
																		<codecname>Apple ProRes 422</codecname>
																		<codectypename>Apple ProRes 422</codectypename>
																		<codectypecode>apcn</codectypecode>
																		<codecvendorcode>appl</codecvendorcode>
																		<spatialquality>1024</spatialquality>
																		<temporalquality>0</temporalquality>
																		<keyframerate>0</keyframerate>
																		<datarate>0</datarate>
																	</qtcodec>
																</data>
															</appspecificdata>
														</codec>
														<width>1920</width>
														<height>1080</height>
														<anamorphic>FALSE</anamorphic>
														<pixelaspectratio>square</pixelaspectratio>
														<fielddominance>none</fielddominance>
														<colordepth>24</colordepth>
													</samplecharacteristics>
												</format>
												<track TL.SQTrackShy="0" TL.SQTrackExpandedHeight="25" TL.SQTrackExpanded="0" MZ.TrackTargeted="1">
													<clipitem id="clipitem-451">
														<masterclipid>masterclip-152</masterclipid>
														<name>(Sand Tagious)_Best of Satisfying Drop Squish Kinetic Sand ASMR 2023_zflX9k-35qM_YT.mp4</name>
														<enabled>TRUE</enabled>
														<duration>15845</duration>
														<rate>
															<timebase>30</timebase>
															<ntsc>TRUE</ntsc>
														</rate>
														<start>0</start>
														<end>1386</end>
														<in>12294</in>
														<out>13680</out>
														<pproTicksIn>104199852556800</pproTicksIn>
														<pproTicksOut>115947127296000</pproTicksOut>
														<alphatype>none</alphatype>
														<pixelaspectratio>square</pixelaspectratio>
														<anamorphic>FALSE</anamorphic>
														<file id="file-147">
															<name>(Sand Tagious)_Best of Satisfying Drop Squish Kinetic Sand ASMR 2023_zflX9k-35qM_YT.mp4</name>
															<pathurl>file://localhost/Volumes/Satisfactum%20Satisfactorum/03_Weekly%20(Project%20Files,%20Main%20Segments)/OSTV/OSTV%2023-07-31/3_Raw%20Files/(Sand%20Tagious)_Best%20of%20Satisfying%20Drop%20Squish%20Kinetic%20Sand%20ASMR%202023_zflX9k-35qM_YT.mp4</pathurl>
															<rate>
																<timebase>60</timebase>
																<ntsc>TRUE</ntsc>
															</rate>
															<duration>31691</duration>
															<timecode>
																<rate>
																	<timebase>60</timebase>
																	<ntsc>TRUE</ntsc>
																</rate>
																<string>00:00:00:00</string>
																<frame>0</frame>
																<displayformat>NDF</displayformat>
															</timecode>
															<media>
																<video>
																	<samplecharacteristics>
																		<rate>
																			<timebase>60</timebase>
																			<ntsc>TRUE</ntsc>
																		</rate>
																		<width>1920</width>
																		<height>1080</height>
																		<anamorphic>FALSE</anamorphic>
																		<pixelaspectratio>square</pixelaspectratio>
																		<fielddominance>none</fielddominance>
																	</samplecharacteristics>
																</video>
																<audio>
																	<samplecharacteristics>
																		<depth>16</depth>
																		<samplerate>44100</samplerate>
																	</samplecharacteristics>
																	<channelcount>2</channelcount>
																</audio>
															</media>
														</file>
														<link>
															<linkclipref>clipitem-451</linkclipref>
															<mediatype>video</mediatype>
															<trackindex>1</trackindex>
															<clipindex>1</clipindex>
														</link>
														<link>
															<linkclipref>clipitem-462</linkclipref>
															<mediatype>audio</mediatype>
															<trackindex>1</trackindex>
															<clipindex>2</clipindex>
															<groupindex>1</groupindex>
														</link>
														<link>
															<linkclipref>clipitem-467</linkclipref>
															<mediatype>audio</mediatype>
															<trackindex>2</trackindex>
															<clipindex>2</clipindex>
															<groupindex>1</groupindex>
														</link>
														<logginginfo>
															<description></description>
															<scene></scene>
															<shottake></shottake>
															<lognote>https://www.youtube.com/watch?v=zflX9k-35qM</lognote>
															<good></good>
															<originalvideofilename></originalvideofilename>
															<originalaudiofilename></originalaudiofilename>
														</logginginfo>
														<colorinfo>
															<lut></lut>
															<lut1></lut1>
															<asc_sop></asc_sop>
															<asc_sat></asc_sat>
															<lut2></lut2>
														</colorinfo>
														<labels>
															<label2>Iris</label2>
														</labels>
													</clipitem>
													<clipitem id="clipitem-452">
														<masterclipid>masterclip-152</masterclipid>
														<name>(Sand Tagious)_Best of Satisfying Drop Squish Kinetic Sand ASMR 2023_zflX9k-35qM_YT.mp4</name>
														<enabled>TRUE</enabled>
														<duration>15845</duration>
														<rate>
															<timebase>30</timebase>
															<ntsc>TRUE</ntsc>
														</rate>
														<start>1386</start>
														<end>2213</end>
														<in>736</in>
														<out>1563</out>
														<pproTicksIn>6238091059200</pproTicksIn>
														<pproTicksOut>13247467833600</pproTicksOut>
														<alphatype>none</alphatype>
														<file id="file-147"/>
														<link>
															<linkclipref>clipitem-452</linkclipref>
															<mediatype>video</mediatype>
															<trackindex>1</trackindex>
															<clipindex>2</clipindex>
														</link>
														<link>
															<linkclipref>clipitem-463</linkclipref>
															<mediatype>audio</mediatype>
															<trackindex>1</trackindex>
															<clipindex>4</clipindex>
															<groupindex>1</groupindex>
														</link>
														<link>
															<linkclipref>clipitem-468</linkclipref>
															<mediatype>audio</mediatype>
															<trackindex>2</trackindex>
															<clipindex>4</clipindex>
															<groupindex>1</groupindex>
														</link>
														<logginginfo>
															<description></description>
															<scene></scene>
															<shottake></shottake>
															<lognote>https://www.youtube.com/watch?v=zflX9k-35qM</lognote>
															<good></good>
															<originalvideofilename></originalvideofilename>
															<originalaudiofilename></originalaudiofilename>
														</logginginfo>
														<colorinfo>
															<lut></lut>
															<lut1></lut1>
															<asc_sop></asc_sop>
															<asc_sat></asc_sat>
															<lut2></lut2>
														</colorinfo>
														<labels>
															<label2>Iris</label2>
														</labels>
													</clipitem>
													<clipitem id="clipitem-453">
														<masterclipid>masterclip-152</masterclipid>
														<name>(Sand Tagious)_Best of Satisfying Drop Squish Kinetic Sand ASMR 2023_zflX9k-35qM_YT.mp4</name>
														<enabled>TRUE</enabled>
														<duration>15845</duration>
														<rate>
															<timebase>30</timebase>
															<ntsc>TRUE</ntsc>
														</rate>
														<start>2213</start>
														<end>2526</end>
														<in>2704</in>
														<out>3017</out>
														<pproTicksIn>22918204108800</pproTicksIn>
														<pproTicksOut>25571087942400</pproTicksOut>
														<alphatype>none</alphatype>
														<file id="file-147"/>
														<link>
															<linkclipref>clipitem-453</linkclipref>
															<mediatype>video</mediatype>
															<trackindex>1</trackindex>
															<clipindex>3</clipindex>
														</link>
														<link>
															<linkclipref>clipitem-464</linkclipref>
															<mediatype>audio</mediatype>
															<trackindex>1</trackindex>
															<clipindex>6</clipindex>
															<groupindex>1</groupindex>
														</link>
														<link>
															<linkclipref>clipitem-469</linkclipref>
															<mediatype>audio</mediatype>
															<trackindex>2</trackindex>
															<clipindex>6</clipindex>
															<groupindex>1</groupindex>
														</link>
														<logginginfo>
															<description></description>
															<scene></scene>
															<shottake></shottake>
															<lognote>https://www.youtube.com/watch?v=zflX9k-35qM</lognote>
															<good></good>
															<originalvideofilename></originalvideofilename>
															<originalaudiofilename></originalaudiofilename>
														</logginginfo>
														<colorinfo>
															<lut></lut>
															<lut1></lut1>
															<asc_sop></asc_sop>
															<asc_sat></asc_sat>
															<lut2></lut2>
														</colorinfo>
														<labels>
															<label2>Iris</label2>
														</labels>
													</clipitem>
													<clipitem id="clipitem-454">
														<masterclipid>masterclip-152</masterclipid>
														<name>(Sand Tagious)_Best of Satisfying Drop Squish Kinetic Sand ASMR 2023_zflX9k-35qM_YT.mp4</name>
														<enabled>TRUE</enabled>
														<duration>15845</duration>
														<rate>
															<timebase>30</timebase>
															<ntsc>TRUE</ntsc>
														</rate>
														<start>2526</start>
														<end>3008</end>
														<in>4158</in>
														<out>4640</out>
														<pproTicksIn>35241824217600</pproTicksIn>
														<pproTicksOut>39327095808000</pproTicksOut>
														<alphatype>none</alphatype>
														<file id="file-147"/>
														<link>
															<linkclipref>clipitem-454</linkclipref>
															<mediatype>video</mediatype>
															<trackindex>1</trackindex>
															<clipindex>4</clipindex>
														</link>
														<link>
															<linkclipref>clipitem-465</linkclipref>
															<mediatype>audio</mediatype>
															<trackindex>1</trackindex>
															<clipindex>8</clipindex>
															<groupindex>1</groupindex>
														</link>
														<link>
															<linkclipref>clipitem-470</linkclipref>
															<mediatype>audio</mediatype>
															<trackindex>2</trackindex>
															<clipindex>8</clipindex>
															<groupindex>1</groupindex>
														</link>
														<logginginfo>
															<description></description>
															<scene></scene>
															<shottake></shottake>
															<lognote>https://www.youtube.com/watch?v=zflX9k-35qM</lognote>
															<good></good>
															<originalvideofilename></originalvideofilename>
															<originalaudiofilename></originalaudiofilename>
														</logginginfo>
														<colorinfo>
															<lut></lut>
															<lut1></lut1>
															<asc_sop></asc_sop>
															<asc_sat></asc_sat>
															<lut2></lut2>
														</colorinfo>
														<labels>
															<label2>Iris</label2>
														</labels>
													</clipitem>
													<clipitem id="clipitem-455">
														<masterclipid>masterclip-152</masterclipid>
														<name>(Sand Tagious)_Best of Satisfying Drop Squish Kinetic Sand ASMR 2023_zflX9k-35qM_YT.mp4</name>
														<enabled>TRUE</enabled>
														<duration>15845</duration>
														<rate>
															<timebase>30</timebase>
															<ntsc>TRUE</ntsc>
														</rate>
														<start>3008</start>
														<end>3601</end>
														<in>6163</in>
														<out>6756</out>
														<pproTicksIn>52235536953600</pproTicksIn>
														<pproTicksOut>57261607603200</pproTicksOut>
														<alphatype>none</alphatype>
														<file id="file-147"/>
														<link>
															<linkclipref>clipitem-455</linkclipref>
															<mediatype>video</mediatype>
															<trackindex>1</trackindex>
															<clipindex>5</clipindex>
														</link>
														<link>
															<linkclipref>clipitem-466</linkclipref>
															<mediatype>audio</mediatype>
															<trackindex>1</trackindex>
															<clipindex>10</clipindex>
															<groupindex>1</groupindex>
														</link>
														<link>
															<linkclipref>clipitem-471</linkclipref>
															<mediatype>audio</mediatype>
															<trackindex>2</trackindex>
															<clipindex>10</clipindex>
															<groupindex>1</groupindex>
														</link>
														<logginginfo>
															<description></description>
															<scene></scene>
															<shottake></shottake>
															<lognote>https://www.youtube.com/watch?v=zflX9k-35qM</lognote>
															<good></good>
															<originalvideofilename></originalvideofilename>
															<originalaudiofilename></originalaudiofilename>
														</logginginfo>
														<colorinfo>
															<lut></lut>
															<lut1></lut1>
															<asc_sop></asc_sop>
															<asc_sat></asc_sat>
															<lut2></lut2>
														</colorinfo>
														<labels>
															<label2>Iris</label2>
														</labels>
													</clipitem>
													<enabled>TRUE</enabled>
													<locked>FALSE</locked>
												</track>
												<track TL.SQTrackShy="0" TL.SQTrackExpandedHeight="25" TL.SQTrackExpanded="0" MZ.TrackTargeted="0">
													<clipitem id="clipitem-456">
														<masterclipid>masterclip-122</masterclipid>
														<name>Adjustment Layer</name>
														<enabled>TRUE</enabled>
														<duration>1294705</duration>
														<rate>
															<timebase>30</timebase>
															<ntsc>TRUE</ntsc>
														</rate>
														<start>0</start>
														<end>1386</end>
														<in>107892</in>
														<out>109278</out>
														<pproTicksIn>914456685542400</pproTicksIn>
														<pproTicksOut>926203960281600</pproTicksOut>
														<alphatype>none</alphatype>
														<file id="file-121"/>
														<filter>
															<effect>
																<name>Basic Motion</name>
																<effectid>basic</effectid>
																<effectcategory>motion</effectcategory>
																<effecttype>motion</effecttype>
																<mediatype>video</mediatype>
																<pproBypass>false</pproBypass>
																<parameter authoringApp="PremierePro">
																	<parameterid>scale</parameterid>
																	<name>Scale</name>
																	<valuemin>0</valuemin>
																	<valuemax>1000</valuemax>
																	<value>150</value>
																</parameter>
																<parameter authoringApp="PremierePro">
																	<parameterid>rotation</parameterid>
																	<name>Rotation</name>
																	<valuemin>-8640</valuemin>
																	<valuemax>8640</valuemax>
																	<value>0</value>
																</parameter>
																<parameter authoringApp="PremierePro">
																	<parameterid>center</parameterid>
																	<name>Center</name>
																	<value>
																		<horiz>0</horiz>
																		<vert>0</vert>
																	</value>
																</parameter>
																<parameter authoringApp="PremierePro">
																	<parameterid>centerOffset</parameterid>
																	<name>Anchor Point</name>
																	<value>
																		<horiz>0</horiz>
																		<vert>0</vert>
																	</value>
																</parameter>
																<parameter authoringApp="PremierePro">
																	<parameterid>antiflicker</parameterid>
																	<name>Anti-flicker Filter</name>
																	<valuemin>0.0</valuemin>
																	<valuemax>1.0</valuemax>
																	<value>0</value>
																</parameter>
															</effect>
														</filter>
														<filter>
															<effect>
																<name>Gaussian Blur</name>
																<effectid>Gaussian Blur</effectid>
																<effectcategory>Blur</effectcategory>
																<effecttype>motion</effecttype>
																<mediatype>video</mediatype>
																<pproBypass>false</pproBypass>
																<parameter authoringApp="PremierePro">
																	<parameterid>radius</parameterid>
																	<name>Radius</name>
																	<valuemin>0</valuemin>
																	<valuemax>100</valuemax>
																	<value>66</value>
																</parameter>
															</effect>
														</filter>
														<logginginfo>
															<description></description>
															<scene></scene>
															<shottake></shottake>
															<lognote></lognote>
															<good></good>
															<originalvideofilename></originalvideofilename>
															<originalaudiofilename></originalaudiofilename>
														</logginginfo>
														<colorinfo>
															<lut></lut>
															<lut1></lut1>
															<asc_sop></asc_sop>
															<asc_sat></asc_sat>
															<lut2></lut2>
														</colorinfo>
														<labels>
															<label2>Lavender</label2>
														</labels>
													</clipitem>
													<clipitem id="clipitem-457">
														<masterclipid>masterclip-122</masterclipid>
														<name>Adjustment Layer</name>
														<enabled>TRUE</enabled>
														<duration>1294705</duration>
														<rate>
															<timebase>30</timebase>
															<ntsc>TRUE</ntsc>
														</rate>
														<start>1386</start>
														<end>2213</end>
														<in>109278</in>
														<out>110105</out>
														<pproTicksIn>926203960281600</pproTicksIn>
														<pproTicksOut>933213337056000</pproTicksOut>
														<alphatype>none</alphatype>
														<file id="file-121"/>
														<filter>
															<effect>
																<name>Basic Motion</name>
																<effectid>basic</effectid>
																<effectcategory>motion</effectcategory>
																<effecttype>motion</effecttype>
																<mediatype>video</mediatype>
																<pproBypass>false</pproBypass>
																<parameter authoringApp="PremierePro">
																	<parameterid>scale</parameterid>
																	<name>Scale</name>
																	<valuemin>0</valuemin>
																	<valuemax>1000</valuemax>
																	<value>150</value>
																</parameter>
																<parameter authoringApp="PremierePro">
																	<parameterid>rotation</parameterid>
																	<name>Rotation</name>
																	<valuemin>-8640</valuemin>
																	<valuemax>8640</valuemax>
																	<value>0</value>
																</parameter>
																<parameter authoringApp="PremierePro">
																	<parameterid>center</parameterid>
																	<name>Center</name>
																	<value>
																		<horiz>0</horiz>
																		<vert>0</vert>
																	</value>
																</parameter>
																<parameter authoringApp="PremierePro">
																	<parameterid>centerOffset</parameterid>
																	<name>Anchor Point</name>
																	<value>
																		<horiz>0</horiz>
																		<vert>0</vert>
																	</value>
																</parameter>
																<parameter authoringApp="PremierePro">
																	<parameterid>antiflicker</parameterid>
																	<name>Anti-flicker Filter</name>
																	<valuemin>0.0</valuemin>
																	<valuemax>1.0</valuemax>
																	<value>0</value>
																</parameter>
															</effect>
														</filter>
														<filter>
															<effect>
																<name>Gaussian Blur</name>
																<effectid>Gaussian Blur</effectid>
																<effectcategory>Blur</effectcategory>
																<effecttype>motion</effecttype>
																<mediatype>video</mediatype>
																<pproBypass>false</pproBypass>
																<parameter authoringApp="PremierePro">
																	<parameterid>radius</parameterid>
																	<name>Radius</name>
																	<valuemin>0</valuemin>
																	<valuemax>100</valuemax>
																	<value>66</value>
																</parameter>
															</effect>
														</filter>
														<logginginfo>
															<description></description>
															<scene></scene>
															<shottake></shottake>
															<lognote></lognote>
															<good></good>
															<originalvideofilename></originalvideofilename>
															<originalaudiofilename></originalaudiofilename>
														</logginginfo>
														<colorinfo>
															<lut></lut>
															<lut1></lut1>
															<asc_sop></asc_sop>
															<asc_sat></asc_sat>
															<lut2></lut2>
														</colorinfo>
														<labels>
															<label2>Lavender</label2>
														</labels>
													</clipitem>
													<clipitem id="clipitem-458">
														<masterclipid>masterclip-122</masterclipid>
														<name>Adjustment Layer</name>
														<enabled>TRUE</enabled>
														<duration>1294705</duration>
														<rate>
															<timebase>30</timebase>
															<ntsc>TRUE</ntsc>
														</rate>
														<start>2213</start>
														<end>2526</end>
														<in>110105</in>
														<out>110418</out>
														<pproTicksIn>933213337056000</pproTicksIn>
														<pproTicksOut>935866220889600</pproTicksOut>
														<alphatype>none</alphatype>
														<file id="file-121"/>
														<filter>
															<effect>
																<name>Basic Motion</name>
																<effectid>basic</effectid>
																<effectcategory>motion</effectcategory>
																<effecttype>motion</effecttype>
																<mediatype>video</mediatype>
																<pproBypass>false</pproBypass>
																<parameter authoringApp="PremierePro">
																	<parameterid>scale</parameterid>
																	<name>Scale</name>
																	<valuemin>0</valuemin>
																	<valuemax>1000</valuemax>
																	<value>150</value>
																</parameter>
																<parameter authoringApp="PremierePro">
																	<parameterid>rotation</parameterid>
																	<name>Rotation</name>
																	<valuemin>-8640</valuemin>
																	<valuemax>8640</valuemax>
																	<value>0</value>
																</parameter>
																<parameter authoringApp="PremierePro">
																	<parameterid>center</parameterid>
																	<name>Center</name>
																	<value>
																		<horiz>0</horiz>
																		<vert>0</vert>
																	</value>
																</parameter>
																<parameter authoringApp="PremierePro">
																	<parameterid>centerOffset</parameterid>
																	<name>Anchor Point</name>
																	<value>
																		<horiz>0</horiz>
																		<vert>0</vert>
																	</value>
																</parameter>
																<parameter authoringApp="PremierePro">
																	<parameterid>antiflicker</parameterid>
																	<name>Anti-flicker Filter</name>
																	<valuemin>0.0</valuemin>
																	<valuemax>1.0</valuemax>
																	<value>0</value>
																</parameter>
															</effect>
														</filter>
														<filter>
															<effect>
																<name>Gaussian Blur</name>
																<effectid>Gaussian Blur</effectid>
																<effectcategory>Blur</effectcategory>
																<effecttype>motion</effecttype>
																<mediatype>video</mediatype>
																<pproBypass>false</pproBypass>
																<parameter authoringApp="PremierePro">
																	<parameterid>radius</parameterid>
																	<name>Radius</name>
																	<valuemin>0</valuemin>
																	<valuemax>100</valuemax>
																	<value>66</value>
																</parameter>
															</effect>
														</filter>
														<logginginfo>
															<description></description>
															<scene></scene>
															<shottake></shottake>
															<lognote></lognote>
															<good></good>
															<originalvideofilename></originalvideofilename>
															<originalaudiofilename></originalaudiofilename>
														</logginginfo>
														<colorinfo>
															<lut></lut>
															<lut1></lut1>
															<asc_sop></asc_sop>
															<asc_sat></asc_sat>
															<lut2></lut2>
														</colorinfo>
														<labels>
															<label2>Lavender</label2>
														</labels>
													</clipitem>
													<clipitem id="clipitem-459">
														<masterclipid>masterclip-122</masterclipid>
														<name>Adjustment Layer</name>
														<enabled>TRUE</enabled>
														<duration>1294705</duration>
														<rate>
															<timebase>30</timebase>
															<ntsc>TRUE</ntsc>
														</rate>
														<start>2526</start>
														<end>3008</end>
														<in>110418</in>
														<out>110900</out>
														<pproTicksIn>935866220889600</pproTicksIn>
														<pproTicksOut>939951492480000</pproTicksOut>
														<alphatype>none</alphatype>
														<file id="file-121"/>
														<filter>
															<effect>
																<name>Basic Motion</name>
																<effectid>basic</effectid>
																<effectcategory>motion</effectcategory>
																<effecttype>motion</effecttype>
																<mediatype>video</mediatype>
																<pproBypass>false</pproBypass>
																<parameter authoringApp="PremierePro">
																	<parameterid>scale</parameterid>
																	<name>Scale</name>
																	<valuemin>0</valuemin>
																	<valuemax>1000</valuemax>
																	<value>150</value>
																</parameter>
																<parameter authoringApp="PremierePro">
																	<parameterid>rotation</parameterid>
																	<name>Rotation</name>
																	<valuemin>-8640</valuemin>
																	<valuemax>8640</valuemax>
																	<value>0</value>
																</parameter>
																<parameter authoringApp="PremierePro">
																	<parameterid>center</parameterid>
																	<name>Center</name>
																	<value>
																		<horiz>0</horiz>
																		<vert>0</vert>
																	</value>
																</parameter>
																<parameter authoringApp="PremierePro">
																	<parameterid>centerOffset</parameterid>
																	<name>Anchor Point</name>
																	<value>
																		<horiz>0</horiz>
																		<vert>0</vert>
																	</value>
																</parameter>
																<parameter authoringApp="PremierePro">
																	<parameterid>antiflicker</parameterid>
																	<name>Anti-flicker Filter</name>
																	<valuemin>0.0</valuemin>
																	<valuemax>1.0</valuemax>
																	<value>0</value>
																</parameter>
															</effect>
														</filter>
														<filter>
															<effect>
																<name>Gaussian Blur</name>
																<effectid>Gaussian Blur</effectid>
																<effectcategory>Blur</effectcategory>
																<effecttype>motion</effecttype>
																<mediatype>video</mediatype>
																<pproBypass>false</pproBypass>
																<parameter authoringApp="PremierePro">
																	<parameterid>radius</parameterid>
																	<name>Radius</name>
																	<valuemin>0</valuemin>
																	<valuemax>100</valuemax>
																	<value>51</value>
																</parameter>
															</effect>
														</filter>
														<logginginfo>
															<description></description>
															<scene></scene>
															<shottake></shottake>
															<lognote></lognote>
															<good></good>
															<originalvideofilename></originalvideofilename>
															<originalaudiofilename></originalaudiofilename>
														</logginginfo>
														<colorinfo>
															<lut></lut>
															<lut1></lut1>
															<asc_sop></asc_sop>
															<asc_sat></asc_sat>
															<lut2></lut2>
														</colorinfo>
														<labels>
															<label2>Lavender</label2>
														</labels>
													</clipitem>
													<enabled>TRUE</enabled>
													<locked>FALSE</locked>
												</track>
												<track TL.SQTrackShy="0" TL.SQTrackExpandedHeight="25" TL.SQTrackExpanded="0" MZ.TrackTargeted="0">
													<clipitem id="clipitem-460">
														<masterclipid>masterclip-72</masterclipid>
														<name>Sand Tagious&amp;#10;</name>
														<enabled>TRUE</enabled>
														<duration>5844</duration>
														<rate>
															<timebase>30</timebase>
															<ntsc>TRUE</ntsc>
														</rate>
														<start>0</start>
														<end>3601</end>
														<in>0</in>
														<out>3601</out>
														<pproTicksIn>0</pproTicksIn>
														<pproTicksOut>30520877587200</pproTicksOut>
														<alphatype>straight</alphatype>
														<file id="file-72"/>
														<filter>
															<effect>
																<name>Basic Motion</name>
																<effectid>basic</effectid>
																<effectcategory>motion</effectcategory>
																<effecttype>motion</effecttype>
																<mediatype>video</mediatype>
																<pproBypass>false</pproBypass>
																<parameter authoringApp="PremierePro">
																	<parameterid>scale</parameterid>
																	<name>Scale</name>
																	<valuemin>0</valuemin>
																	<valuemax>1000</valuemax>
																	<value>150</value>
																</parameter>
																<parameter authoringApp="PremierePro">
																	<parameterid>rotation</parameterid>
																	<name>Rotation</name>
																	<valuemin>-8640</valuemin>
																	<valuemax>8640</valuemax>
																	<value>0</value>
																</parameter>
																<parameter authoringApp="PremierePro">
																	<parameterid>center</parameterid>
																	<name>Center</name>
																	<value>
																		<horiz>0</horiz>
																		<vert>0</vert>
																	</value>
																</parameter>
																<parameter authoringApp="PremierePro">
																	<parameterid>centerOffset</parameterid>
																	<name>Anchor Point</name>
																	<value>
																		<horiz>0</horiz>
																		<vert>0</vert>
																	</value>
																</parameter>
																<parameter authoringApp="PremierePro">
																	<parameterid>antiflicker</parameterid>
																	<name>Anti-flicker Filter</name>
																	<valuemin>0.0</valuemin>
																	<valuemax>1.0</valuemax>
																	<value>0</value>
																</parameter>
															</effect>
														</filter>
														<logginginfo>
															<description></description>
															<scene></scene>
															<shottake></shottake>
															<lognote></lognote>
															<good></good>
															<originalvideofilename></originalvideofilename>
															<originalaudiofilename></originalaudiofilename>
														</logginginfo>
														<colorinfo>
															<lut></lut>
															<lut1></lut1>
															<asc_sop></asc_sop>
															<asc_sat></asc_sat>
															<lut2></lut2>
														</colorinfo>
														<labels>
															<label2>Rose</label2>
														</labels>
													</clipitem>
													<enabled>TRUE</enabled>
													<locked>FALSE</locked>
												</track>
												<track TL.SQTrackShy="0" TL.SQTrackExpandedHeight="25" TL.SQTrackExpanded="0" MZ.TrackTargeted="0">
													<clipitem id="clipitem-461">
														<masterclipid>masterclip-106</masterclipid>
														<name>Bug and Lower Nest</name>
														<enabled>TRUE</enabled>
														<duration>14721</duration>
														<rate>
															<timebase>30</timebase>
															<ntsc>TRUE</ntsc>
														</rate>
														<start>0</start>
														<end>3601</end>
														<in>0</in>
														<out>3601</out>
														<pproTicksIn>0</pproTicksIn>
														<pproTicksOut>30520877587200</pproTicksOut>
														<sequence id="sequence-1"/>
														<labels>
															<label2>Cerulean</label2>
														</labels>
													</clipitem>
													<enabled>TRUE</enabled>
													<locked>FALSE</locked>
												</track>
											</video>
											<audio>
												<numOutputChannels>2</numOutputChannels>
												<format>
													<samplecharacteristics>
														<depth>16</depth>
														<samplerate>44100</samplerate>
													</samplecharacteristics>
												</format>
												<outputs>
													<group>
														<index>1</index>
														<numchannels>1</numchannels>
														<downmix>0</downmix>
														<channel>
															<index>1</index>
														</channel>
													</group>
													<group>
														<index>2</index>
														<numchannels>1</numchannels>
														<downmix>0</downmix>
														<channel>
															<index>2</index>
														</channel>
													</group>
												</outputs>
												<track TL.SQTrackAudioKeyframeStyle="0" TL.SQTrackShy="0" TL.SQTrackExpandedHeight="25" TL.SQTrackExpanded="0" MZ.TrackTargeted="1" PannerCurrentValue="0.5" PannerIsInverted="true" PannerStartKeyframe="-91445760000000000,0.5,0,0,0,0,0,0" PannerName="Balance" currentExplodedTrackIndex="0" totalExplodedTrackCount="2" premiereTrackType="Stereo">
													<transitionitem>
														<start>0</start>
														<end>30</end>
														<pproTicksIn>0</pproTicksIn>
														<pproTicksOut>254270016000</pproTicksOut>
														<alignment>start-black</alignment>
														<cutPointTicks>0</cutPointTicks>
														<rate>
															<timebase>30</timebase>
															<ntsc>TRUE</ntsc>
														</rate>
														<effect>
															<name>Cross Fade (+3dB)</name>
															<effectid>KGAudioTransCrossFade3dB</effectid>
															<effecttype>transition</effecttype>
															<mediatype>audio</mediatype>
															<wipecode>0</wipecode>
															<wipeaccuracy>100</wipeaccuracy>
															<startratio>0</startratio>
															<endratio>1</endratio>
															<reverse>FALSE</reverse>
														</effect>
													</transitionitem>
													<clipitem id="clipitem-462" premiereChannelType="stereo">
														<masterclipid>masterclip-152</masterclipid>
														<name>(Sand Tagious)_Best of Satisfying Drop Squish Kinetic Sand ASMR 2023_zflX9k-35qM_YT.mp4</name>
														<enabled>TRUE</enabled>
														<duration>15845</duration>
														<rate>
															<timebase>30</timebase>
															<ntsc>TRUE</ntsc>
														</rate>
														<start>-1</start>
														<end>-1</end>
														<in>12294</in>
														<out>13695</out>
														<pproTicksIn>104199852556800</pproTicksIn>
														<pproTicksOut>116074262304000</pproTicksOut>
														<file id="file-147"/>
														<sourcetrack>
															<mediatype>audio</mediatype>
															<trackindex>1</trackindex>
														</sourcetrack>
														<link>
															<linkclipref>clipitem-451</linkclipref>
															<mediatype>video</mediatype>
															<trackindex>1</trackindex>
															<clipindex>1</clipindex>
														</link>
														<link>
															<linkclipref>clipitem-462</linkclipref>
															<mediatype>audio</mediatype>
															<trackindex>1</trackindex>
															<clipindex>2</clipindex>
															<groupindex>1</groupindex>
														</link>
														<link>
															<linkclipref>clipitem-467</linkclipref>
															<mediatype>audio</mediatype>
															<trackindex>2</trackindex>
															<clipindex>2</clipindex>
															<groupindex>1</groupindex>
														</link>
														<logginginfo>
															<description></description>
															<scene></scene>
															<shottake></shottake>
															<lognote>https://www.youtube.com/watch?v=zflX9k-35qM</lognote>
															<good></good>
															<originalvideofilename></originalvideofilename>
															<originalaudiofilename></originalaudiofilename>
														</logginginfo>
														<colorinfo>
															<lut></lut>
															<lut1></lut1>
															<asc_sop></asc_sop>
															<asc_sat></asc_sat>
															<lut2></lut2>
														</colorinfo>
														<labels>
															<label2>Iris</label2>
														</labels>
													</clipitem>
													<transitionitem>
														<start>1371</start>
														<end>1401</end>
														<pproTicksIn>11620139731200</pproTicksIn>
														<pproTicksOut>11874409747200</pproTicksOut>
														<alignment>center</alignment>
														<cutPointTicks>127135008000</cutPointTicks>
														<rate>
															<timebase>30</timebase>
															<ntsc>TRUE</ntsc>
														</rate>
														<effect>
															<name>Cross Fade (+3dB)</name>
															<effectid>KGAudioTransCrossFade3dB</effectid>
															<effecttype>transition</effecttype>
															<mediatype>audio</mediatype>
															<wipecode>0</wipecode>
															<wipeaccuracy>100</wipeaccuracy>
															<startratio>0</startratio>
															<endratio>1</endratio>
															<reverse>FALSE</reverse>
														</effect>
													</transitionitem>
													<clipitem id="clipitem-463" premiereChannelType="stereo">
														<masterclipid>masterclip-152</masterclipid>
														<name>(Sand Tagious)_Best of Satisfying Drop Squish Kinetic Sand ASMR 2023_zflX9k-35qM_YT.mp4</name>
														<enabled>TRUE</enabled>
														<duration>15845</duration>
														<rate>
															<timebase>30</timebase>
															<ntsc>TRUE</ntsc>
														</rate>
														<start>-1</start>
														<end>-1</end>
														<in>721</in>
														<out>1578</out>
														<pproTicksIn>6110956051200</pproTicksIn>
														<pproTicksOut>13374602841600</pproTicksOut>
														<file id="file-147"/>
														<sourcetrack>
															<mediatype>audio</mediatype>
															<trackindex>1</trackindex>
														</sourcetrack>
														<link>
															<linkclipref>clipitem-452</linkclipref>
															<mediatype>video</mediatype>
															<trackindex>1</trackindex>
															<clipindex>2</clipindex>
														</link>
														<link>
															<linkclipref>clipitem-463</linkclipref>
															<mediatype>audio</mediatype>
															<trackindex>1</trackindex>
															<clipindex>4</clipindex>
															<groupindex>1</groupindex>
														</link>
														<link>
															<linkclipref>clipitem-468</linkclipref>
															<mediatype>audio</mediatype>
															<trackindex>2</trackindex>
															<clipindex>4</clipindex>
															<groupindex>1</groupindex>
														</link>
														<logginginfo>
															<description></description>
															<scene></scene>
															<shottake></shottake>
															<lognote>https://www.youtube.com/watch?v=zflX9k-35qM</lognote>
															<good></good>
															<originalvideofilename></originalvideofilename>
															<originalaudiofilename></originalaudiofilename>
														</logginginfo>
														<colorinfo>
															<lut></lut>
															<lut1></lut1>
															<asc_sop></asc_sop>
															<asc_sat></asc_sat>
															<lut2></lut2>
														</colorinfo>
														<labels>
															<label2>Iris</label2>
														</labels>
													</clipitem>
													<transitionitem>
														<start>2198</start>
														<end>2228</end>
														<pproTicksIn>18629516505600</pproTicksIn>
														<pproTicksOut>18883786521600</pproTicksOut>
														<alignment>center</alignment>
														<cutPointTicks>127135008000</cutPointTicks>
														<rate>
															<timebase>30</timebase>
															<ntsc>TRUE</ntsc>
														</rate>
														<effect>
															<name>Cross Fade (+3dB)</name>
															<effectid>KGAudioTransCrossFade3dB</effectid>
															<effecttype>transition</effecttype>
															<mediatype>audio</mediatype>
															<wipecode>0</wipecode>
															<wipeaccuracy>100</wipeaccuracy>
															<startratio>0</startratio>
															<endratio>1</endratio>
															<reverse>FALSE</reverse>
														</effect>
													</transitionitem>
													<clipitem id="clipitem-464" premiereChannelType="stereo">
														<masterclipid>masterclip-152</masterclipid>
														<name>(Sand Tagious)_Best of Satisfying Drop Squish Kinetic Sand ASMR 2023_zflX9k-35qM_YT.mp4</name>
														<enabled>TRUE</enabled>
														<duration>15845</duration>
														<rate>
															<timebase>30</timebase>
															<ntsc>TRUE</ntsc>
														</rate>
														<start>-1</start>
														<end>-1</end>
														<in>2689</in>
														<out>3032</out>
														<pproTicksIn>22791069100800</pproTicksIn>
														<pproTicksOut>25698222950400</pproTicksOut>
														<file id="file-147"/>
														<sourcetrack>
															<mediatype>audio</mediatype>
															<trackindex>1</trackindex>
														</sourcetrack>
														<link>
															<linkclipref>clipitem-453</linkclipref>
															<mediatype>video</mediatype>
															<trackindex>1</trackindex>
															<clipindex>3</clipindex>
														</link>
														<link>
															<linkclipref>clipitem-464</linkclipref>
															<mediatype>audio</mediatype>
															<trackindex>1</trackindex>
															<clipindex>6</clipindex>
															<groupindex>1</groupindex>
														</link>
														<link>
															<linkclipref>clipitem-469</linkclipref>
															<mediatype>audio</mediatype>
															<trackindex>2</trackindex>
															<clipindex>6</clipindex>
															<groupindex>1</groupindex>
														</link>
														<logginginfo>
															<description></description>
															<scene></scene>
															<shottake></shottake>
															<lognote>https://www.youtube.com/watch?v=zflX9k-35qM</lognote>
															<good></good>
															<originalvideofilename></originalvideofilename>
															<originalaudiofilename></originalaudiofilename>
														</logginginfo>
														<colorinfo>
															<lut></lut>
															<lut1></lut1>
															<asc_sop></asc_sop>
															<asc_sat></asc_sat>
															<lut2></lut2>
														</colorinfo>
														<labels>
															<label2>Iris</label2>
														</labels>
													</clipitem>
													<transitionitem>
														<start>2511</start>
														<end>2541</end>
														<pproTicksIn>21282400339200</pproTicksIn>
														<pproTicksOut>21536670355200</pproTicksOut>
														<alignment>center</alignment>
														<cutPointTicks>127135008000</cutPointTicks>
														<rate>
															<timebase>30</timebase>
															<ntsc>TRUE</ntsc>
														</rate>
														<effect>
															<name>Cross Fade (+3dB)</name>
															<effectid>KGAudioTransCrossFade3dB</effectid>
															<effecttype>transition</effecttype>
															<mediatype>audio</mediatype>
															<wipecode>0</wipecode>
															<wipeaccuracy>100</wipeaccuracy>
															<startratio>0</startratio>
															<endratio>1</endratio>
															<reverse>FALSE</reverse>
														</effect>
													</transitionitem>
													<clipitem id="clipitem-465" premiereChannelType="stereo">
														<masterclipid>masterclip-152</masterclipid>
														<name>(Sand Tagious)_Best of Satisfying Drop Squish Kinetic Sand ASMR 2023_zflX9k-35qM_YT.mp4</name>
														<enabled>TRUE</enabled>
														<duration>15845</duration>
														<rate>
															<timebase>30</timebase>
															<ntsc>TRUE</ntsc>
														</rate>
														<start>-1</start>
														<end>-1</end>
														<in>4143</in>
														<out>4655</out>
														<pproTicksIn>35114689209600</pproTicksIn>
														<pproTicksOut>39454230816000</pproTicksOut>
														<file id="file-147"/>
														<sourcetrack>
															<mediatype>audio</mediatype>
															<trackindex>1</trackindex>
														</sourcetrack>
														<link>
															<linkclipref>clipitem-454</linkclipref>
															<mediatype>video</mediatype>
															<trackindex>1</trackindex>
															<clipindex>4</clipindex>
														</link>
														<link>
															<linkclipref>clipitem-465</linkclipref>
															<mediatype>audio</mediatype>
															<trackindex>1</trackindex>
															<clipindex>8</clipindex>
															<groupindex>1</groupindex>
														</link>
														<link>
															<linkclipref>clipitem-470</linkclipref>
															<mediatype>audio</mediatype>
															<trackindex>2</trackindex>
															<clipindex>8</clipindex>
															<groupindex>1</groupindex>
														</link>
														<logginginfo>
															<description></description>
															<scene></scene>
															<shottake></shottake>
															<lognote>https://www.youtube.com/watch?v=zflX9k-35qM</lognote>
															<good></good>
															<originalvideofilename></originalvideofilename>
															<originalaudiofilename></originalaudiofilename>
														</logginginfo>
														<colorinfo>
															<lut></lut>
															<lut1></lut1>
															<asc_sop></asc_sop>
															<asc_sat></asc_sat>
															<lut2></lut2>
														</colorinfo>
														<labels>
															<label2>Iris</label2>
														</labels>
													</clipitem>
													<transitionitem>
														<start>2993</start>
														<end>3023</end>
														<pproTicksIn>25367671929600</pproTicksIn>
														<pproTicksOut>25621941945600</pproTicksOut>
														<alignment>center</alignment>
														<cutPointTicks>127135008000</cutPointTicks>
														<rate>
															<timebase>30</timebase>
															<ntsc>TRUE</ntsc>
														</rate>
														<effect>
															<name>Cross Fade (+3dB)</name>
															<effectid>KGAudioTransCrossFade3dB</effectid>
															<effecttype>transition</effecttype>
															<mediatype>audio</mediatype>
															<wipecode>0</wipecode>
															<wipeaccuracy>100</wipeaccuracy>
															<startratio>0</startratio>
															<endratio>1</endratio>
															<reverse>FALSE</reverse>
														</effect>
													</transitionitem>
													<clipitem id="clipitem-466" premiereChannelType="stereo">
														<masterclipid>masterclip-152</masterclipid>
														<name>(Sand Tagious)_Best of Satisfying Drop Squish Kinetic Sand ASMR 2023_zflX9k-35qM_YT.mp4</name>
														<enabled>TRUE</enabled>
														<duration>15845</duration>
														<rate>
															<timebase>30</timebase>
															<ntsc>TRUE</ntsc>
														</rate>
														<start>-1</start>
														<end>-1</end>
														<in>6148</in>
														<out>6756</out>
														<pproTicksIn>52108401945600</pproTicksIn>
														<pproTicksOut>57261607603200</pproTicksOut>
														<file id="file-147"/>
														<sourcetrack>
															<mediatype>audio</mediatype>
															<trackindex>1</trackindex>
														</sourcetrack>
														<link>
															<linkclipref>clipitem-455</linkclipref>
															<mediatype>video</mediatype>
															<trackindex>1</trackindex>
															<clipindex>5</clipindex>
														</link>
														<link>
															<linkclipref>clipitem-466</linkclipref>
															<mediatype>audio</mediatype>
															<trackindex>1</trackindex>
															<clipindex>10</clipindex>
															<groupindex>1</groupindex>
														</link>
														<link>
															<linkclipref>clipitem-471</linkclipref>
															<mediatype>audio</mediatype>
															<trackindex>2</trackindex>
															<clipindex>10</clipindex>
															<groupindex>1</groupindex>
														</link>
														<logginginfo>
															<description></description>
															<scene></scene>
															<shottake></shottake>
															<lognote>https://www.youtube.com/watch?v=zflX9k-35qM</lognote>
															<good></good>
															<originalvideofilename></originalvideofilename>
															<originalaudiofilename></originalaudiofilename>
														</logginginfo>
														<colorinfo>
															<lut></lut>
															<lut1></lut1>
															<asc_sop></asc_sop>
															<asc_sat></asc_sat>
															<lut2></lut2>
														</colorinfo>
														<labels>
															<label2>Iris</label2>
														</labels>
													</clipitem>
													<transitionitem>
														<start>3571</start>
														<end>3601</end>
														<pproTicksIn>30266607571200</pproTicksIn>
														<pproTicksOut>30520877587200</pproTicksOut>
														<alignment>end-black</alignment>
														<cutPointTicks>254270016000</cutPointTicks>
														<rate>
															<timebase>30</timebase>
															<ntsc>TRUE</ntsc>
														</rate>
														<effect>
															<name>Cross Fade (+3dB)</name>
															<effectid>KGAudioTransCrossFade3dB</effectid>
															<effecttype>transition</effecttype>
															<mediatype>audio</mediatype>
															<wipecode>0</wipecode>
															<wipeaccuracy>100</wipeaccuracy>
															<startratio>0</startratio>
															<endratio>1</endratio>
															<reverse>FALSE</reverse>
														</effect>
													</transitionitem>
													<enabled>TRUE</enabled>
													<locked>FALSE</locked>
													<outputchannelindex>1</outputchannelindex>
												</track>
												<track TL.SQTrackAudioKeyframeStyle="0" TL.SQTrackShy="0" TL.SQTrackExpandedHeight="25" TL.SQTrackExpanded="0" MZ.TrackTargeted="1" PannerCurrentValue="0.5" PannerIsInverted="true" PannerStartKeyframe="-91445760000000000,0.5,0,0,0,0,0,0" PannerName="Balance" currentExplodedTrackIndex="1" totalExplodedTrackCount="2" premiereTrackType="Stereo">
													<transitionitem>
														<start>0</start>
														<end>30</end>
														<pproTicksIn>0</pproTicksIn>
														<pproTicksOut>254270016000</pproTicksOut>
														<alignment>start-black</alignment>
														<cutPointTicks>0</cutPointTicks>
														<rate>
															<timebase>30</timebase>
															<ntsc>TRUE</ntsc>
														</rate>
														<effect>
															<name>Cross Fade (+3dB)</name>
															<effectid>KGAudioTransCrossFade3dB</effectid>
															<effecttype>transition</effecttype>
															<mediatype>audio</mediatype>
															<wipecode>0</wipecode>
															<wipeaccuracy>100</wipeaccuracy>
															<startratio>0</startratio>
															<endratio>1</endratio>
															<reverse>FALSE</reverse>
														</effect>
													</transitionitem>
													<clipitem id="clipitem-467" premiereChannelType="stereo">
														<masterclipid>masterclip-152</masterclipid>
														<name>(Sand Tagious)_Best of Satisfying Drop Squish Kinetic Sand ASMR 2023_zflX9k-35qM_YT.mp4</name>
														<enabled>TRUE</enabled>
														<duration>15845</duration>
														<rate>
															<timebase>30</timebase>
															<ntsc>TRUE</ntsc>
														</rate>
														<start>-1</start>
														<end>-1</end>
														<in>12294</in>
														<out>13695</out>
														<pproTicksIn>104199852556800</pproTicksIn>
														<pproTicksOut>116074262304000</pproTicksOut>
														<file id="file-147"/>
														<sourcetrack>
															<mediatype>audio</mediatype>
															<trackindex>2</trackindex>
														</sourcetrack>
														<link>
															<linkclipref>clipitem-451</linkclipref>
															<mediatype>video</mediatype>
															<trackindex>1</trackindex>
															<clipindex>1</clipindex>
														</link>
														<link>
															<linkclipref>clipitem-462</linkclipref>
															<mediatype>audio</mediatype>
															<trackindex>1</trackindex>
															<clipindex>2</clipindex>
															<groupindex>1</groupindex>
														</link>
														<link>
															<linkclipref>clipitem-467</linkclipref>
															<mediatype>audio</mediatype>
															<trackindex>2</trackindex>
															<clipindex>2</clipindex>
															<groupindex>1</groupindex>
														</link>
														<logginginfo>
															<description></description>
															<scene></scene>
															<shottake></shottake>
															<lognote>https://www.youtube.com/watch?v=zflX9k-35qM</lognote>
															<good></good>
															<originalvideofilename></originalvideofilename>
															<originalaudiofilename></originalaudiofilename>
														</logginginfo>
														<colorinfo>
															<lut></lut>
															<lut1></lut1>
															<asc_sop></asc_sop>
															<asc_sat></asc_sat>
															<lut2></lut2>
														</colorinfo>
														<labels>
															<label2>Iris</label2>
														</labels>
													</clipitem>
													<transitionitem>
														<start>1371</start>
														<end>1401</end>
														<pproTicksIn>11620139731200</pproTicksIn>
														<pproTicksOut>11874409747200</pproTicksOut>
														<alignment>center</alignment>
														<cutPointTicks>127135008000</cutPointTicks>
														<rate>
															<timebase>30</timebase>
															<ntsc>TRUE</ntsc>
														</rate>
														<effect>
															<name>Cross Fade (+3dB)</name>
															<effectid>KGAudioTransCrossFade3dB</effectid>
															<effecttype>transition</effecttype>
															<mediatype>audio</mediatype>
															<wipecode>0</wipecode>
															<wipeaccuracy>100</wipeaccuracy>
															<startratio>0</startratio>
															<endratio>1</endratio>
															<reverse>FALSE</reverse>
														</effect>
													</transitionitem>
													<clipitem id="clipitem-468" premiereChannelType="stereo">
														<masterclipid>masterclip-152</masterclipid>
														<name>(Sand Tagious)_Best of Satisfying Drop Squish Kinetic Sand ASMR 2023_zflX9k-35qM_YT.mp4</name>
														<enabled>TRUE</enabled>
														<duration>15845</duration>
														<rate>
															<timebase>30</timebase>
															<ntsc>TRUE</ntsc>
														</rate>
														<start>-1</start>
														<end>-1</end>
														<in>721</in>
														<out>1578</out>
														<pproTicksIn>6110956051200</pproTicksIn>
														<pproTicksOut>13374602841600</pproTicksOut>
														<file id="file-147"/>
														<sourcetrack>
															<mediatype>audio</mediatype>
															<trackindex>2</trackindex>
														</sourcetrack>
														<link>
															<linkclipref>clipitem-452</linkclipref>
															<mediatype>video</mediatype>
															<trackindex>1</trackindex>
															<clipindex>2</clipindex>
														</link>
														<link>
															<linkclipref>clipitem-463</linkclipref>
															<mediatype>audio</mediatype>
															<trackindex>1</trackindex>
															<clipindex>4</clipindex>
															<groupindex>1</groupindex>
														</link>
														<link>
															<linkclipref>clipitem-468</linkclipref>
															<mediatype>audio</mediatype>
															<trackindex>2</trackindex>
															<clipindex>4</clipindex>
															<groupindex>1</groupindex>
														</link>
														<logginginfo>
															<description></description>
															<scene></scene>
															<shottake></shottake>
															<lognote>https://www.youtube.com/watch?v=zflX9k-35qM</lognote>
															<good></good>
															<originalvideofilename></originalvideofilename>
															<originalaudiofilename></originalaudiofilename>
														</logginginfo>
														<colorinfo>
															<lut></lut>
															<lut1></lut1>
															<asc_sop></asc_sop>
															<asc_sat></asc_sat>
															<lut2></lut2>
														</colorinfo>
														<labels>
															<label2>Iris</label2>
														</labels>
													</clipitem>
													<transitionitem>
														<start>2198</start>
														<end>2228</end>
														<pproTicksIn>18629516505600</pproTicksIn>
														<pproTicksOut>18883786521600</pproTicksOut>
														<alignment>center</alignment>
														<cutPointTicks>127135008000</cutPointTicks>
														<rate>
															<timebase>30</timebase>
															<ntsc>TRUE</ntsc>
														</rate>
														<effect>
															<name>Cross Fade (+3dB)</name>
															<effectid>KGAudioTransCrossFade3dB</effectid>
															<effecttype>transition</effecttype>
															<mediatype>audio</mediatype>
															<wipecode>0</wipecode>
															<wipeaccuracy>100</wipeaccuracy>
															<startratio>0</startratio>
															<endratio>1</endratio>
															<reverse>FALSE</reverse>
														</effect>
													</transitionitem>
													<clipitem id="clipitem-469" premiereChannelType="stereo">
														<masterclipid>masterclip-152</masterclipid>
														<name>(Sand Tagious)_Best of Satisfying Drop Squish Kinetic Sand ASMR 2023_zflX9k-35qM_YT.mp4</name>
														<enabled>TRUE</enabled>
														<duration>15845</duration>
														<rate>
															<timebase>30</timebase>
															<ntsc>TRUE</ntsc>
														</rate>
														<start>-1</start>
														<end>-1</end>
														<in>2689</in>
														<out>3032</out>
														<pproTicksIn>22791069100800</pproTicksIn>
														<pproTicksOut>25698222950400</pproTicksOut>
														<file id="file-147"/>
														<sourcetrack>
															<mediatype>audio</mediatype>
															<trackindex>2</trackindex>
														</sourcetrack>
														<link>
															<linkclipref>clipitem-453</linkclipref>
															<mediatype>video</mediatype>
															<trackindex>1</trackindex>
															<clipindex>3</clipindex>
														</link>
														<link>
															<linkclipref>clipitem-464</linkclipref>
															<mediatype>audio</mediatype>
															<trackindex>1</trackindex>
															<clipindex>6</clipindex>
															<groupindex>1</groupindex>
														</link>
														<link>
															<linkclipref>clipitem-469</linkclipref>
															<mediatype>audio</mediatype>
															<trackindex>2</trackindex>
															<clipindex>6</clipindex>
															<groupindex>1</groupindex>
														</link>
														<logginginfo>
															<description></description>
															<scene></scene>
															<shottake></shottake>
															<lognote>https://www.youtube.com/watch?v=zflX9k-35qM</lognote>
															<good></good>
															<originalvideofilename></originalvideofilename>
															<originalaudiofilename></originalaudiofilename>
														</logginginfo>
														<colorinfo>
															<lut></lut>
															<lut1></lut1>
															<asc_sop></asc_sop>
															<asc_sat></asc_sat>
															<lut2></lut2>
														</colorinfo>
														<labels>
															<label2>Iris</label2>
														</labels>
													</clipitem>
													<transitionitem>
														<start>2511</start>
														<end>2541</end>
														<pproTicksIn>21282400339200</pproTicksIn>
														<pproTicksOut>21536670355200</pproTicksOut>
														<alignment>center</alignment>
														<cutPointTicks>127135008000</cutPointTicks>
														<rate>
															<timebase>30</timebase>
															<ntsc>TRUE</ntsc>
														</rate>
														<effect>
															<name>Cross Fade (+3dB)</name>
															<effectid>KGAudioTransCrossFade3dB</effectid>
															<effecttype>transition</effecttype>
															<mediatype>audio</mediatype>
															<wipecode>0</wipecode>
															<wipeaccuracy>100</wipeaccuracy>
															<startratio>0</startratio>
															<endratio>1</endratio>
															<reverse>FALSE</reverse>
														</effect>
													</transitionitem>
													<clipitem id="clipitem-470" premiereChannelType="stereo">
														<masterclipid>masterclip-152</masterclipid>
														<name>(Sand Tagious)_Best of Satisfying Drop Squish Kinetic Sand ASMR 2023_zflX9k-35qM_YT.mp4</name>
														<enabled>TRUE</enabled>
														<duration>15845</duration>
														<rate>
															<timebase>30</timebase>
															<ntsc>TRUE</ntsc>
														</rate>
														<start>-1</start>
														<end>-1</end>
														<in>4143</in>
														<out>4655</out>
														<pproTicksIn>35114689209600</pproTicksIn>
														<pproTicksOut>39454230816000</pproTicksOut>
														<file id="file-147"/>
														<sourcetrack>
															<mediatype>audio</mediatype>
															<trackindex>2</trackindex>
														</sourcetrack>
														<link>
															<linkclipref>clipitem-454</linkclipref>
															<mediatype>video</mediatype>
															<trackindex>1</trackindex>
															<clipindex>4</clipindex>
														</link>
														<link>
															<linkclipref>clipitem-465</linkclipref>
															<mediatype>audio</mediatype>
															<trackindex>1</trackindex>
															<clipindex>8</clipindex>
															<groupindex>1</groupindex>
														</link>
														<link>
															<linkclipref>clipitem-470</linkclipref>
															<mediatype>audio</mediatype>
															<trackindex>2</trackindex>
															<clipindex>8</clipindex>
															<groupindex>1</groupindex>
														</link>
														<logginginfo>
															<description></description>
															<scene></scene>
															<shottake></shottake>
															<lognote>https://www.youtube.com/watch?v=zflX9k-35qM</lognote>
															<good></good>
															<originalvideofilename></originalvideofilename>
															<originalaudiofilename></originalaudiofilename>
														</logginginfo>
														<colorinfo>
															<lut></lut>
															<lut1></lut1>
															<asc_sop></asc_sop>
															<asc_sat></asc_sat>
															<lut2></lut2>
														</colorinfo>
														<labels>
															<label2>Iris</label2>
														</labels>
													</clipitem>
													<transitionitem>
														<start>2993</start>
														<end>3023</end>
														<pproTicksIn>25367671929600</pproTicksIn>
														<pproTicksOut>25621941945600</pproTicksOut>
														<alignment>center</alignment>
														<cutPointTicks>127135008000</cutPointTicks>
														<rate>
															<timebase>30</timebase>
															<ntsc>TRUE</ntsc>
														</rate>
														<effect>
															<name>Cross Fade (+3dB)</name>
															<effectid>KGAudioTransCrossFade3dB</effectid>
															<effecttype>transition</effecttype>
															<mediatype>audio</mediatype>
															<wipecode>0</wipecode>
															<wipeaccuracy>100</wipeaccuracy>
															<startratio>0</startratio>
															<endratio>1</endratio>
															<reverse>FALSE</reverse>
														</effect>
													</transitionitem>
													<clipitem id="clipitem-471" premiereChannelType="stereo">
														<masterclipid>masterclip-152</masterclipid>
														<name>(Sand Tagious)_Best of Satisfying Drop Squish Kinetic Sand ASMR 2023_zflX9k-35qM_YT.mp4</name>
														<enabled>TRUE</enabled>
														<duration>15845</duration>
														<rate>
															<timebase>30</timebase>
															<ntsc>TRUE</ntsc>
														</rate>
														<start>-1</start>
														<end>-1</end>
														<in>6148</in>
														<out>6756</out>
														<pproTicksIn>52108401945600</pproTicksIn>
														<pproTicksOut>57261607603200</pproTicksOut>
														<file id="file-147"/>
														<sourcetrack>
															<mediatype>audio</mediatype>
															<trackindex>2</trackindex>
														</sourcetrack>
														<link>
															<linkclipref>clipitem-455</linkclipref>
															<mediatype>video</mediatype>
															<trackindex>1</trackindex>
															<clipindex>5</clipindex>
														</link>
														<link>
															<linkclipref>clipitem-466</linkclipref>
															<mediatype>audio</mediatype>
															<trackindex>1</trackindex>
															<clipindex>10</clipindex>
															<groupindex>1</groupindex>
														</link>
														<link>
															<linkclipref>clipitem-471</linkclipref>
															<mediatype>audio</mediatype>
															<trackindex>2</trackindex>
															<clipindex>10</clipindex>
															<groupindex>1</groupindex>
														</link>
														<logginginfo>
															<description></description>
															<scene></scene>
															<shottake></shottake>
															<lognote>https://www.youtube.com/watch?v=zflX9k-35qM</lognote>
															<good></good>
															<originalvideofilename></originalvideofilename>
															<originalaudiofilename></originalaudiofilename>
														</logginginfo>
														<colorinfo>
															<lut></lut>
															<lut1></lut1>
															<asc_sop></asc_sop>
															<asc_sat></asc_sat>
															<lut2></lut2>
														</colorinfo>
														<labels>
															<label2>Iris</label2>
														</labels>
													</clipitem>
													<transitionitem>
														<start>3571</start>
														<end>3601</end>
														<pproTicksIn>30266607571200</pproTicksIn>
														<pproTicksOut>30520877587200</pproTicksOut>
														<alignment>end-black</alignment>
														<cutPointTicks>254270016000</cutPointTicks>
														<rate>
															<timebase>30</timebase>
															<ntsc>TRUE</ntsc>
														</rate>
														<effect>
															<name>Cross Fade (+3dB)</name>
															<effectid>KGAudioTransCrossFade3dB</effectid>
															<effecttype>transition</effecttype>
															<mediatype>audio</mediatype>
															<wipecode>0</wipecode>
															<wipeaccuracy>100</wipeaccuracy>
															<startratio>0</startratio>
															<endratio>1</endratio>
															<reverse>FALSE</reverse>
														</effect>
													</transitionitem>
													<enabled>TRUE</enabled>
													<locked>FALSE</locked>
													<outputchannelindex>2</outputchannelindex>
												</track>
												<track TL.SQTrackAudioKeyframeStyle="0" TL.SQTrackShy="0" TL.SQTrackExpandedHeight="25" TL.SQTrackExpanded="0" MZ.TrackTargeted="0" PannerCurrentValue="0.5" PannerIsInverted="true" PannerStartKeyframe="-91445760000000000,0.5,0,0,0,0,0,0" PannerName="Balance" currentExplodedTrackIndex="0" totalExplodedTrackCount="2" premiereTrackType="Stereo">
													<enabled>TRUE</enabled>
													<locked>FALSE</locked>
													<filter>
														<effect>
															<name>Audio Levels</name>
															<effectid>audiolevels</effectid>
															<effectcategory>audiolevels</effectcategory>
															<effecttype>audiolevels</effecttype>
															<mediatype>audio</mediatype>
															<parameter authoringApp="PremierePro">
																<parameterid>level</parameterid>
																<name>Level</name>
																<valuemin>0</valuemin>
																<valuemax>3.98109</valuemax>
																<value>0.706272</value>
															</parameter>
														</effect>
													</filter>
													<outputchannelindex>1</outputchannelindex>
												</track>
												<track TL.SQTrackAudioKeyframeStyle="0" TL.SQTrackShy="0" TL.SQTrackExpandedHeight="25" TL.SQTrackExpanded="0" MZ.TrackTargeted="0" PannerCurrentValue="0.5" PannerIsInverted="true" PannerStartKeyframe="-91445760000000000,0.5,0,0,0,0,0,0" PannerName="Balance" currentExplodedTrackIndex="1" totalExplodedTrackCount="2" premiereTrackType="Stereo">
													<enabled>TRUE</enabled>
													<locked>FALSE</locked>
													<filter>
														<effect>
															<name>Audio Levels</name>
															<effectid>audiolevels</effectid>
															<effectcategory>audiolevels</effectcategory>
															<effecttype>audiolevels</effecttype>
															<mediatype>audio</mediatype>
															<parameter authoringApp="PremierePro">
																<parameterid>level</parameterid>
																<name>Level</name>
																<valuemin>0</valuemin>
																<valuemax>3.98109</valuemax>
																<value>0.706272</value>
															</parameter>
														</effect>
													</filter>
													<outputchannelindex>2</outputchannelindex>
												</track>
											</audio>
										</media>
										<timecode>
											<rate>
												<timebase>30</timebase>
												<ntsc>TRUE</ntsc>
											</rate>
											<string>00:00:00:00</string>
											<frame>0</frame>
											<displayformat>NDF</displayformat>
										</timecode>
										<labels>
											<label2>Forest</label2>
										</labels>
										<logginginfo>
											<description></description>
											<scene></scene>
											<shottake></shottake>
											<lognote></lognote>
											<good></good>
											<originalvideofilename></originalvideofilename>
											<originalaudiofilename></originalaudiofilename>
										</logginginfo>
									</sequence>
									<sequence id="sequence-53" TL.SQAudioVisibleBase="0" TL.SQVideoVisibleBase="0" TL.SQVisibleBaseTime="0" TL.SQAVDividerPosition="0.5" TL.SQHideShyTracks="0" TL.SQHeaderWidth="236" Monitor.ProgramZoomOut="16815723724800" Monitor.ProgramZoomIn="0" TL.SQTimePerPixel="0.1381851681252812" AM.TrackVScrollPosition="0" AM.TrackScrollPosition="0" MZ.EditLine="1025555731200" MZ.Sequence.PreviewFrameSizeHeight="1080" MZ.Sequence.PreviewFrameSizeWidth="1920" MZ.Sequence.AudioTimeDisplayFormat="200" MZ.Sequence.PreviewRenderingClassID="1297106761" MZ.Sequence.PreviewRenderingPresetCodec="1297107278" MZ.Sequence.PreviewRenderingPresetPath="EncoderPresets/SequencePreview/795454d9-d3c2-429d-9474-923ab13b7018/I-Frame Only MPEG.epr" MZ.Sequence.PreviewUseMaxRenderQuality="false" MZ.Sequence.PreviewUseMaxBitDepth="false" MZ.Sequence.EditingModeGUID="795454d9-d3c2-429d-9474-923ab13b7018" MZ.Sequence.VideoTimeDisplayFormat="103" MZ.WorkOutPoint="16815723724800" MZ.WorkInPoint="0" explodedTracks="true">
										<uuid>da7449a0-6f40-41f7-af5f-aa59499e9374</uuid>
										<duration>1984</duration>
										<rate>
											<timebase>30</timebase>
											<ntsc>TRUE</ntsc>
										</rate>
										<name>SAT_rise magic_1</name>
										<media>
											<video>
												<format>
													<samplecharacteristics>
														<rate>
															<timebase>30</timebase>
															<ntsc>TRUE</ntsc>
														</rate>
														<codec>
															<name>Apple ProRes 422</name>
															<appspecificdata>
																<appname>Final Cut Pro</appname>
																<appmanufacturer>Apple Inc.</appmanufacturer>
																<appversion>7.0</appversion>
																<data>
																	<qtcodec>
																		<codecname>Apple ProRes 422</codecname>
																		<codectypename>Apple ProRes 422</codectypename>
																		<codectypecode>apcn</codectypecode>
																		<codecvendorcode>appl</codecvendorcode>
																		<spatialquality>1024</spatialquality>
																		<temporalquality>0</temporalquality>
																		<keyframerate>0</keyframerate>
																		<datarate>0</datarate>
																	</qtcodec>
																</data>
															</appspecificdata>
														</codec>
														<width>1920</width>
														<height>1080</height>
														<anamorphic>FALSE</anamorphic>
														<pixelaspectratio>square</pixelaspectratio>
														<fielddominance>none</fielddominance>
														<colordepth>24</colordepth>
													</samplecharacteristics>
												</format>
												<track TL.SQTrackShy="0" TL.SQTrackExpandedHeight="25" TL.SQTrackExpanded="0" MZ.TrackTargeted="1">
													<clipitem id="clipitem-472">
														<masterclipid>masterclip-153</masterclipid>
														<name>Cardistry ASMR 3   More Captivating Card-Shuffling_@Rise Magic.mp4</name>
														<enabled>TRUE</enabled>
														<duration>8556</duration>
														<rate>
															<timebase>30</timebase>
															<ntsc>TRUE</ntsc>
														</rate>
														<start>0</start>
														<end>842</end>
														<in>6035</in>
														<out>6877</out>
														<pproTicksIn>51150651552000</pproTicksIn>
														<pproTicksOut>58287163334400</pproTicksOut>
														<alphatype>none</alphatype>
														<pixelaspectratio>square</pixelaspectratio>
														<anamorphic>FALSE</anamorphic>
														<file id="file-148">
															<name>Cardistry ASMR 3   More Captivating Card-Shuffling_@Rise Magic.mp4</name>
															<pathurl>file://localhost/Volumes/Satisfactum%20Satisfactorum/03_Weekly%20(Project%20Files,%20Main%20Segments)/OSTV/OSTV%2023-07-31/3_Raw%20Files/Cardistry%20ASMR%203%20%20%20More%20Captivating%20Card-Shuffling_@Rise%20Magic.mp4</pathurl>
															<rate>
																<timebase>23</timebase>
																<ntsc>FALSE</ntsc>
															</rate>
															<duration>6846</duration>
															<timecode>
																<rate>
																	<timebase>23</timebase>
																	<ntsc>FALSE</ntsc>
																</rate>
																<string>00:00:00:00</string>
																<frame>0</frame>
																<displayformat>NDF</displayformat>
															</timecode>
															<media>
																<video>
																	<samplecharacteristics>
																		<rate>
																			<timebase>23</timebase>
																			<ntsc>FALSE</ntsc>
																		</rate>
																		<width>1920</width>
																		<height>1080</height>
																		<anamorphic>FALSE</anamorphic>
																		<pixelaspectratio>square</pixelaspectratio>
																		<fielddominance>none</fielddominance>
																	</samplecharacteristics>
																</video>
																<audio>
																	<samplecharacteristics>
																		<depth>16</depth>
																		<samplerate>44100</samplerate>
																	</samplecharacteristics>
																	<channelcount>2</channelcount>
																</audio>
															</media>
														</file>
														<filter>
															<effect>
																<name>Basic Motion</name>
																<effectid>basic</effectid>
																<effectcategory>motion</effectcategory>
																<effecttype>motion</effecttype>
																<mediatype>video</mediatype>
																<pproBypass>false</pproBypass>
																<parameter authoringApp="PremierePro">
																	<parameterid>scale</parameterid>
																	<name>Scale</name>
																	<valuemin>0</valuemin>
																	<valuemax>1000</valuemax>
																	<value>125</value>
																</parameter>
																<parameter authoringApp="PremierePro">
																	<parameterid>rotation</parameterid>
																	<name>Rotation</name>
																	<valuemin>-8640</valuemin>
																	<valuemax>8640</valuemax>
																	<value>0</value>
																</parameter>
																<parameter authoringApp="PremierePro">
																	<parameterid>center</parameterid>
																	<name>Center</name>
																	<value>
																		<horiz>0</horiz>
																		<vert>0</vert>
																	</value>
																</parameter>
																<parameter authoringApp="PremierePro">
																	<parameterid>centerOffset</parameterid>
																	<name>Anchor Point</name>
																	<value>
																		<horiz>0</horiz>
																		<vert>0</vert>
																	</value>
																</parameter>
																<parameter authoringApp="PremierePro">
																	<parameterid>antiflicker</parameterid>
																	<name>Anti-flicker Filter</name>
																	<valuemin>0.0</valuemin>
																	<valuemax>1.0</valuemax>
																	<value>0</value>
																</parameter>
															</effect>
														</filter>
														<filter>
															<effect>
																<name></name>
																<effectid>Lumetri</effectid>
																<effecttype>filter</effecttype>
																<mediatype>video</mediatype>
																<pproBypass>false</pproBypass>
																<parameter authoringApp="PremierePro">
																	<parameterid>1</parameterid>
																	<name>Blob</name>
																	<hash>63866a15-9327-e4cb-ff31-c9ea0000000e</hash>
																	<value>/v4=</value>
																</parameter>
																<parameter authoringApp="PremierePro">
																	<parameterid>3</parameterid>
																	<name> </name>
																	<IsTimeVarying>false</IsTimeVarying>
																	<ParameterControlType>4</ParameterControlType>
																	<LowerBound>false</LowerBound>
																	<UpperBound>true</UpperBound>
																	<value>-91445760000000000,true,0,0,0,0,0,0</value>
																</parameter>
																<parameter authoringApp="PremierePro">
																	<parameterid>4</parameterid>
																	<name> </name>
																	<hash>63866a15-9327-e4cb-ff31-c9ea0000000e</hash>
																</parameter>
																<parameter authoringApp="PremierePro">
																	<parameterid>5</parameterid>
																	<name>Input LUT</name>
																	<IsTimeVarying>false</IsTimeVarying>
																	<ParameterControlType>7</ParameterControlType>
																	<LowerBound>0</LowerBound>
																	<UpperBound>998</UpperBound>
																	<value>-91445760000000000,0,0,0,0,0,0,0</value>
																</parameter>
																<parameter authoringApp="PremierePro">
																	<parameterid>7</parameterid>
																	<name>Temperature</name>
																	<IsTimeVarying>false</IsTimeVarying>
																	<ParameterControlType>8</ParameterControlType>
																	<LowerBound>-300</LowerBound>
																	<UpperBound>300</UpperBound>
																	<LowerUIBound>-100</LowerUIBound>
																	<UpperUIBound>100</UpperUIBound>
																	<value>-91445760000000000,0.,0,0,0,0,0,0</value>
																</parameter>
																<parameter authoringApp="PremierePro">
																	<parameterid>8</parameterid>
																	<name>Tint</name>
																	<IsTimeVarying>false</IsTimeVarying>
																	<ParameterControlType>8</ParameterControlType>
																	<LowerBound>-300</LowerBound>
																	<UpperBound>300</UpperBound>
																	<LowerUIBound>-100</LowerUIBound>
																	<UpperUIBound>100</UpperUIBound>
																	<value>-91445760000000000,0.,0,0,0,0,0,0</value>
																</parameter>
																<parameter authoringApp="PremierePro">
																	<parameterid>20</parameterid>
																	<name>Saturation</name>
																	<IsTimeVarying>false</IsTimeVarying>
																	<ParameterControlType>8</ParameterControlType>
																	<LowerBound>0</LowerBound>
																	<UpperBound>300</UpperBound>
																	<UpperUIBound>200</UpperUIBound>
																	<value>-91445760000000000,100.,0,0,0,0,0,0</value>
																</parameter>
																<parameter authoringApp="PremierePro">
																	<parameterid>11</parameterid>
																	<name>Exposure</name>
																	<IsTimeVarying>false</IsTimeVarying>
																	<ParameterControlType>8</ParameterControlType>
																	<LowerBound>-7</LowerBound>
																	<UpperBound>7</UpperBound>
																	<LowerUIBound>-5</LowerUIBound>
																	<UpperUIBound>5</UpperUIBound>
																	<value>-91445760000000000,0.57755756378173828125,0,0,0,0,0,0</value>
																</parameter>
																<parameter authoringApp="PremierePro">
																	<parameterid>12</parameterid>
																	<name>Contrast</name>
																	<IsTimeVarying>false</IsTimeVarying>
																	<ParameterControlType>8</ParameterControlType>
																	<LowerBound>-150</LowerBound>
																	<UpperBound>150</UpperBound>
																	<LowerUIBound>-100</LowerUIBound>
																	<UpperUIBound>100</UpperUIBound>
																	<value>-91445760000000000,7.59075927734375,0,0,0,0,0,0</value>
																</parameter>
																<parameter authoringApp="PremierePro">
																	<parameterid>13</parameterid>
																	<name>Highlights</name>
																	<IsTimeVarying>false</IsTimeVarying>
																	<ParameterControlType>8</ParameterControlType>
																	<LowerBound>-150</LowerBound>
																	<UpperBound>150</UpperBound>
																	<LowerUIBound>-100</LowerUIBound>
																	<UpperUIBound>100</UpperUIBound>
																	<value>-91445760000000000,5.610565185546875,0,0,0,0,0,0</value>
																</parameter>
																<parameter authoringApp="PremierePro">
																	<parameterid>14</parameterid>
																	<name>Shadows</name>
																	<IsTimeVarying>false</IsTimeVarying>
																	<ParameterControlType>8</ParameterControlType>
																	<LowerBound>-150</LowerBound>
																	<UpperBound>150</UpperBound>
																	<LowerUIBound>-100</LowerUIBound>
																	<UpperUIBound>100</UpperUIBound>
																	<value>-91445760000000000,-6.930694580078125,0,0,0,0,0,0</value>
																</parameter>
																<parameter authoringApp="PremierePro">
																	<parameterid>15</parameterid>
																	<name>Whites</name>
																	<IsTimeVarying>false</IsTimeVarying>
																	<ParameterControlType>8</ParameterControlType>
																	<LowerBound>-150</LowerBound>
																	<UpperBound>150</UpperBound>
																	<LowerUIBound>-100</LowerUIBound>
																	<UpperUIBound>100</UpperUIBound>
																	<value>-91445760000000000,12.211212158203125,0,0,0,0,0,0</value>
																</parameter>
																<parameter authoringApp="PremierePro">
																	<parameterid>16</parameterid>
																	<name>Blacks</name>
																	<IsTimeVarying>false</IsTimeVarying>
																	<ParameterControlType>8</ParameterControlType>
																	<LowerBound>-150</LowerBound>
																	<UpperBound>150</UpperBound>
																	<LowerUIBound>-100</LowerUIBound>
																	<UpperUIBound>100</UpperUIBound>
																	<value>-91445760000000000,0.,0,0,0,0,0,0</value>
																</parameter>
																<parameter authoringApp="PremierePro">
																	<parameterid>23</parameterid>
																	<name> </name>
																	<IsTimeVarying>false</IsTimeVarying>
																	<ParameterControlType>4</ParameterControlType>
																	<LowerBound>false</LowerBound>
																	<UpperBound>true</UpperBound>
																	<value>-91445760000000000,true,0,0,0,0,0,0</value>
																</parameter>
																<parameter authoringApp="PremierePro">
																	<parameterid>24</parameterid>
																	<name> </name>
																	<hash>63866a15-9327-e4cb-ff31-c9ea0000000e</hash>
																</parameter>
																<parameter authoringApp="PremierePro">
																	<parameterid>25</parameterid>
																	<name>Look</name>
																	<IsTimeVarying>false</IsTimeVarying>
																	<ParameterControlType>7</ParameterControlType>
																	<LowerBound>0</LowerBound>
																	<UpperBound>998</UpperBound>
																	<value>-91445760000000000,0,0,0,0,0,0,0</value>
																</parameter>
																<parameter authoringApp="PremierePro">
																	<parameterid>26</parameterid>
																	<name>Intensity</name>
																	<IsTimeVarying>false</IsTimeVarying>
																	<ParameterControlType>8</ParameterControlType>
																	<LowerBound>0</LowerBound>
																	<UpperBound>200</UpperBound>
																	<value>-91445760000000000,100.,0,0,0,0,0,0</value>
																</parameter>
																<parameter authoringApp="PremierePro">
																	<parameterid>28</parameterid>
																	<name>Faded Film</name>
																	<IsTimeVarying>false</IsTimeVarying>
																	<ParameterControlType>8</ParameterControlType>
																	<LowerBound>0</LowerBound>
																	<UpperBound>150</UpperBound>
																	<UpperUIBound>100</UpperUIBound>
																	<value>-91445760000000000,0.,0,0,0,0,0,0</value>
																</parameter>
																<parameter authoringApp="PremierePro">
																	<parameterid>29</parameterid>
																	<name>Sharpen</name>
																	<IsTimeVarying>false</IsTimeVarying>
																	<ParameterControlType>8</ParameterControlType>
																	<LowerBound>-100</LowerBound>
																	<UpperBound>100</UpperBound>
																	<value>-91445760000000000,0.,0,0,0,0,0,0</value>
																</parameter>
																<parameter authoringApp="PremierePro">
																	<parameterid>30</parameterid>
																	<name>Vibrance</name>
																	<IsTimeVarying>false</IsTimeVarying>
																	<ParameterControlType>8</ParameterControlType>
																	<LowerBound>-100</LowerBound>
																	<UpperBound>100</UpperBound>
																	<value>-91445760000000000,0.,0,0,0,0,0,0</value>
																</parameter>
																<parameter authoringApp="PremierePro">
																	<parameterid>31</parameterid>
																	<name>Saturation</name>
																	<IsTimeVarying>false</IsTimeVarying>
																	<ParameterControlType>8</ParameterControlType>
																	<LowerBound>0</LowerBound>
																	<UpperBound>300</UpperBound>
																	<UpperUIBound>200</UpperUIBound>
																	<value>-91445760000000000,100.,0,0,0,0,0,0</value>
																</parameter>
																<parameter authoringApp="PremierePro">
																	<parameterid>32</parameterid>
																	<name></name>
																	<hash>49d2fca5-ddd1-a393-0544-f6d80000002c</hash>
																	<value>AAAAAAAAAAAAAAAAAAAAAAAAAAAAAAAAAAAAAAAAAAA=</value>
																</parameter>
																<parameter authoringApp="PremierePro">
																	<parameterid>33</parameterid>
																	<name>Tint Balance</name>
																	<IsTimeVarying>false</IsTimeVarying>
																	<ParameterControlType>8</ParameterControlType>
																	<LowerBound>-150</LowerBound>
																	<UpperBound>150</UpperBound>
																	<LowerUIBound>-100</LowerUIBound>
																	<UpperUIBound>100</UpperUIBound>
																	<value>-91445760000000000,0.,0,0,0,0,0,0</value>
																</parameter>
																<parameter authoringApp="PremierePro">
																	<parameterid>37</parameterid>
																	<name> </name>
																	<IsTimeVarying>false</IsTimeVarying>
																	<ParameterControlType>4</ParameterControlType>
																	<LowerBound>false</LowerBound>
																	<UpperBound>true</UpperBound>
																	<value>-91445760000000000,true,0,0,0,0,0,0</value>
																</parameter>
																<parameter authoringApp="PremierePro">
																	<parameterid>39</parameterid>
																	<name> </name>
																	<hash>261f3840-e8cf-a8cd-fa5e-bac10000082c</hash>
																	<value>AAAAAAIAAAAAAAAAAAAAAAAAAAAAAAAAAAAAAAAA8D8AAAAAAADwPwAAAAAAAAAAAAAAAAAAAAAAAAAAAAAAAAAAAAAAAAAAAAAAAAAAAAAAAAAAAAAAAAAAAAAAAAAAAAAAAAAAAAAAAAAAAAAAAAAAAAAAAAAAAAAAAAAAAAAAAAAAAAAAAAAAAAAAAAAAAAAAAAAAAAAAAAAAAAAAAAAAAAAAAAAAAAAAAAAAAAAAAAAAAAAAAAAAAAAAAAAAAAAAAAAAAAAAAAAAAAAAAAAAAAAAAAAAAAAAAAAAAAAAAAAAAAAAAAAAAAAAAAAAAAAAAAAAAAAAAAAAAAAAAAAAAAAAAAAAAAAAAAAAAAAAAAAAAAAAAAAAAAAAAAAAAAAAAAAAAAAAAAAAAAAAAAAAAAAAAAAAAAAAAAAAAAAAAAAAAAAAAAAAAAAAAAAAAAAAAAAAAAAAAAAAAAAAAAAAAAAAAAAAAAAAAAAAAAAAAAAAAAAAAAAAAAAAAAAAAAAAAAAAAAAAAAAAAAAAAAAAAAAAAAAAAAAAAAAAAAAAAAAAAAAAAAAAAAAAAAAAAAAAAAAAAAAAAAAAAAAAAAAAAAAAAAAAAAAAAAAAAAAAAAAAAAAAAAAAAAAAAAAAAAAAAAAAAAAAAAAAAAAAAAAAAAAAAAAAAAAAAAAAAAAAAAAAAAAAAAAAAAACAAAAAAAAAAAAAAAAAAAAAAAAAAAAAAAAAPA/AAAAAAAA8D8AAAAAAAAAAAAAAAAAAAAAAAAAAAAAAAAAAAAAAAAAAAAAAAAAAAAAAAAAAAAAAAAAAAAAAAAAAAAAAAAAAAAAAAAAAAAAAAAAAAAAAAAAAAAAAAAAAAAAAAAAAAAAAAAAAAAAAAAAAAAAAAAAAAAAAAAAAAAAAAAAAAAAAAAAAAAAAAAAAAAAAAAAAAAAAAAAAAAAAAAAAAAAAAAAAAAAAAAAAAAAAAAAAAAAAAAAAAAAAAAAAAAAAAAAAAAAAAAAAAAAAAAAAAAAAAAAAAAAAAAAAAAAAAAAAAAAAAAAAAAAAAAAAAAAAAAAAAAAAAAAAAAAAAAAAAAAAAAAAAAAAAAAAAAAAAAAAAAAAAAAAAAAAAAAAAAAAAAAAAAAAAAAAAAAAAAAAAAAAAAAAAAAAAAAAAAAAAAAAAAAAAAAAAAAAAAAAAAAAAAAAAAAAAAAAAAAAAAAAAAAAAAAAAAAAAAAAAAAAAAAAAAAAAAAAAAAAAAAAAAAAAAAAAAAAAAAAAAAAAAAAAAAAAAAAAAAAAAAAAAAAAAAAAAAAAAAAAAAAAAAAAAAAAAAAAAAAAAAAAAAAAAAAAAAAAAAAAAAAAAAAAAAAAAAAAAAAAAAAAAAAAAAAAAAAAAAAAAAAAAAAAAAAgAAAAAAAAAAAAAAAAAAAAAAAAAAAAAAAADwPwAAAAAAAPA/AAAAAAAAAAAAAAAAAAAAAAAAAAAAAAAAAAAAAAAAAAAAAAAAAAAAAAAAAAAAAAAAAAAAAAAAAAAAAAAAAAAAAAAAAAAAAAAAAAAAAAAAAAAAAAAAAAAAAAAAAAAAAAAAAAAAAAAAAAAAAAAAAAAAAAAAAAAAAAAAAAAAAAAAAAAAAAAAAAAAAAAAAAAAAAAAAAAAAAAAAAAAAAAAAAAAAAAAAAAAAAAAAAAAAAAAAAAAAAAAAAAAAAAAAAAAAAAAAAAAAAAAAAAAAAAAAAAAAAAAAAAAAAAAAAAAAAAAAAAAAAAAAAAAAAAAAAAAAAAAAAAAAAAAAAAAAAAAAAAAAAAAAAAAAAAAAAAAAAAAAAAAAAAAAAAAAAAAAAAAAAAAAAAAAAAAAAAAAAAAAAAAAAAAAAAAAAAAAAAAAAAAAAAAAAAAAAAAAAAAAAAAAAAAAAAAAAAAAAAAAAAAAAAAAAAAAAAAAAAAAAAAAAAAAAAAAAAAAAAAAAAAAAAAAAAAAAAAAAAAAAAAAAAAAAAAAAAAAAAAAAAAAAAAAAAAAAAAAAAAAAAAAAAAAAAAAAAAAAAAAAAAAAAAAAAAAAAAAAAAAAAAAAAAAAAAAAAAAAAAAAAAAAAAAAAAAAAAAAAAAAAAAAIAAAAAAAAAAAAAAAAAAAAAAAAAAAAAAAAA8D8AAAAAAADwPwAAAAAAAAAAAAAAAAAAAAAAAAAAAAAAAAAAAAAAAAAAAAAAAAAAAAAAAAAAAAAAAAAAAAAAAAAAAAAAAAAAAAAAAAAAAAAAAAAAAAAAAAAAAAAAAAAAAAAAAAAAAAAAAAAAAAAAAAAAAAAAAAAAAAAAAAAAAAAAAAAAAAAAAAAAAAAAAAAAAAAAAAAAAAAAAAAAAAAAAAAAAAAAAAAAAAAAAAAAAAAAAAAAAAAAAAAAAAAAAAAAAAAAAAAAAAAAAAAAAAAAAAAAAAAAAAAAAAAAAAAAAAAAAAAAAAAAAAAAAAAAAAAAAAAAAAAAAAAAAAAAAAAAAAAAAAAAAAAAAAAAAAAAAAAAAAAAAAAAAAAAAAAAAAAAAAAAAAAAAAAAAAAAAAAAAAAAAAAAAAAAAAAAAAAAAAAAAAAAAAAAAAAAAAAAAAAAAAAAAAAAAAAAAAAAAAAAAAAAAAAAAAAAAAAAAAAAAAAAAAAAAAAAAAAAAAAAAAAAAAAAAAAAAAAAAAAAAAAAAAAAAAAAAAAAAAAAAAAAAAAAAAAAAAAAAAAAAAAAAAAAAAAAAAAAAAAAAAAAAAAAAAAAAAAAAAAAAAAAAAAAAAAAAAAAAAAAAAAAAAAAAAAAAAAAAAAAAAAAAA==</value>
																</parameter>
																<parameter authoringApp="PremierePro">
																	<parameterid>42</parameterid>
																	<name>Hue vs Sat</name>
																	<hash>f146cafe-eab3-19ed-0ee8-de0e00000214</hash>
																	<value>AwAAAAAAAAAAAAAAAAAAAAAAAAAAAAAAAAAAAAAA8D8AAAAAAADwPwAAAAAAAAAAAAAAAAAAAAAAAAAAAAAAAAAAAAAAAAAAAAAAAAAAAAAAAAAAAAAAAAAAAAAAAAAAAAAAAAAAAAAAAAAAAAAAAAAAAAAAAAAAAAAAAAAAAAAAAAAAAAAAAAAAAAAAAAAAAAAAAAAAAAAAAAAAAAAAAAAAAAAAAAAAAAAAAAAAAAAAAAAAAAAAAAAAAAAAAAAAAAAAAAAAAAAAAAAAAAAAAAAAAAAAAAAAAAAAAAAAAAAAAAAAAAAAAAAAAAAAAAAAAAAAAAAAAAAAAAAAAAAAAAAAAAAAAAAAAAAAAAAAAAAAAAAAAAAAAAAAAAAAAAAAAAAAAAAAAAAAAAAAAAAAAAAAAAAAAAAAAAAAAAAAAAAAAAAAAAAAAAAAAAAAAAAAAAAAAAAAAAAAAAAAAAAAAAAAAAAAAAAAAAAAAAAAAAAAAAAAAAAAAAAAAAAAAAAAAAAAAAAAAAAAAAAAAAAAAAAAAAAAAAAAAAAAAAAAAAAAAAAAAAAAAAAAAAAAAAAAAAAAAAAAAAAAAAAAAAAAAAAAAAAAAAAAAAAAAAAAAAAAAAAAAAAAAAAAAAAAAAAAAAAAAAAAAAAAAAAAAAAAAAAAAAAAAAAAAAAAAAAAAAAAAAAAAAAAAA==</value>
																</parameter>
																<parameter authoringApp="PremierePro">
																	<parameterid>46</parameterid>
																	<name> </name>
																	<IsTimeVarying>false</IsTimeVarying>
																	<ParameterControlType>4</ParameterControlType>
																	<LowerBound>false</LowerBound>
																	<UpperBound>true</UpperBound>
																	<value>-91445760000000000,true,0,0,0,0,0,0</value>
																</parameter>
																<parameter authoringApp="PremierePro">
																	<parameterid>47</parameterid>
																	<name> </name>
																	<hash>0b5436c4-bae0-bb64-a2f6-c8c40000006c</hash>
																	<value>AAAAAAAAAAAAAAAAAADgPwAAAAAAAAAAAAAAAAAAAAAAAAAAAADgPwAAAAAAAAAAAAAAAAAAAAAAAAAAAADgPwAAAAAAAAAAAAAAAAAAAAAAAAAAAADgPwAAAAAAAAAA</value>
																</parameter>
																<parameter authoringApp="PremierePro">
																	<parameterid>50</parameterid>
																	<name> </name>
																	<IsTimeVarying>false</IsTimeVarying>
																	<ParameterControlType>4</ParameterControlType>
																	<LowerBound>false</LowerBound>
																	<UpperBound>true</UpperBound>
																	<value>-91445760000000000,true,0,0,0,0,0,0</value>
																</parameter>
																<parameter authoringApp="PremierePro">
																	<parameterid>51</parameterid>
																	<name>Amount</name>
																	<IsTimeVarying>false</IsTimeVarying>
																	<ParameterControlType>8</ParameterControlType>
																	<LowerBound>-5</LowerBound>
																	<UpperBound>5</UpperBound>
																	<LowerUIBound>-3</LowerUIBound>
																	<UpperUIBound>3</UpperUIBound>
																	<value>-91445760000000000,0.,0,0,0,0,0,0</value>
																</parameter>
																<parameter authoringApp="PremierePro">
																	<parameterid>52</parameterid>
																	<name>Midpoint</name>
																	<IsTimeVarying>false</IsTimeVarying>
																	<ParameterControlType>8</ParameterControlType>
																	<LowerBound>0</LowerBound>
																	<UpperBound>100</UpperBound>
																	<value>-91445760000000000,50.,0,0,0,0,0,0</value>
																</parameter>
																<parameter authoringApp="PremierePro">
																	<parameterid>53</parameterid>
																	<name>Roundness</name>
																	<IsTimeVarying>false</IsTimeVarying>
																	<ParameterControlType>8</ParameterControlType>
																	<LowerBound>-100</LowerBound>
																	<UpperBound>100</UpperBound>
																	<value>-91445760000000000,0.,0,0,0,0,0,0</value>
																</parameter>
																<parameter authoringApp="PremierePro">
																	<parameterid>54</parameterid>
																	<name>Feather</name>
																	<IsTimeVarying>false</IsTimeVarying>
																	<ParameterControlType>8</ParameterControlType>
																	<LowerBound>0</LowerBound>
																	<UpperBound>100</UpperBound>
																	<value>-91445760000000000,50.,0,0,0,0,0,0</value>
																</parameter>
															</effect>
														</filter>
														<logginginfo>
															<description></description>
															<scene></scene>
															<shottake></shottake>
															<lognote></lognote>
															<good></good>
															<originalvideofilename></originalvideofilename>
															<originalaudiofilename></originalaudiofilename>
														</logginginfo>
														<colorinfo>
															<lut></lut>
															<lut1></lut1>
															<asc_sop></asc_sop>
															<asc_sat></asc_sat>
															<lut2></lut2>
														</colorinfo>
														<labels>
															<label2>Iris</label2>
														</labels>
													</clipitem>
													<clipitem id="clipitem-473">
														<masterclipid>masterclip-153</masterclipid>
														<name>Cardistry ASMR 3   More Captivating Card-Shuffling_@Rise Magic.mp4</name>
														<enabled>TRUE</enabled>
														<duration>8556</duration>
														<rate>
															<timebase>30</timebase>
															<ntsc>TRUE</ntsc>
														</rate>
														<start>842</start>
														<end>928</end>
														<in>6995</in>
														<out>7081</out>
														<pproTicksIn>59287292064000</pproTicksIn>
														<pproTicksOut>60016199443200</pproTicksOut>
														<alphatype>none</alphatype>
														<file id="file-148"/>
														<filter>
															<effect>
																<name>Basic Motion</name>
																<effectid>basic</effectid>
																<effectcategory>motion</effectcategory>
																<effecttype>motion</effecttype>
																<mediatype>video</mediatype>
																<pproBypass>false</pproBypass>
																<parameter authoringApp="PremierePro">
																	<parameterid>scale</parameterid>
																	<name>Scale</name>
																	<valuemin>0</valuemin>
																	<valuemax>1000</valuemax>
																	<value>125</value>
																</parameter>
																<parameter authoringApp="PremierePro">
																	<parameterid>rotation</parameterid>
																	<name>Rotation</name>
																	<valuemin>-8640</valuemin>
																	<valuemax>8640</valuemax>
																	<value>0</value>
																</parameter>
																<parameter authoringApp="PremierePro">
																	<parameterid>center</parameterid>
																	<name>Center</name>
																	<value>
																		<horiz>0</horiz>
																		<vert>0</vert>
																	</value>
																</parameter>
																<parameter authoringApp="PremierePro">
																	<parameterid>centerOffset</parameterid>
																	<name>Anchor Point</name>
																	<value>
																		<horiz>0</horiz>
																		<vert>0</vert>
																	</value>
																</parameter>
																<parameter authoringApp="PremierePro">
																	<parameterid>antiflicker</parameterid>
																	<name>Anti-flicker Filter</name>
																	<valuemin>0.0</valuemin>
																	<valuemax>1.0</valuemax>
																	<value>0</value>
																</parameter>
															</effect>
														</filter>
														<filter>
															<effect>
																<name></name>
																<effectid>Lumetri</effectid>
																<effecttype>filter</effecttype>
																<mediatype>video</mediatype>
																<pproBypass>false</pproBypass>
																<parameter authoringApp="PremierePro">
																	<parameterid>1</parameterid>
																	<name>Blob</name>
																	<hash>63866a15-9327-e4cb-ff31-c9ea0000000e</hash>
																</parameter>
																<parameter authoringApp="PremierePro">
																	<parameterid>3</parameterid>
																	<name> </name>
																	<IsTimeVarying>false</IsTimeVarying>
																	<ParameterControlType>4</ParameterControlType>
																	<LowerBound>false</LowerBound>
																	<UpperBound>true</UpperBound>
																	<value>-91445760000000000,true,0,0,0,0,0,0</value>
																</parameter>
																<parameter authoringApp="PremierePro">
																	<parameterid>4</parameterid>
																	<name> </name>
																	<hash>63866a15-9327-e4cb-ff31-c9ea0000000e</hash>
																</parameter>
																<parameter authoringApp="PremierePro">
																	<parameterid>5</parameterid>
																	<name>Input LUT</name>
																	<IsTimeVarying>false</IsTimeVarying>
																	<ParameterControlType>7</ParameterControlType>
																	<LowerBound>0</LowerBound>
																	<UpperBound>998</UpperBound>
																	<value>-91445760000000000,0,0,0,0,0,0,0</value>
																</parameter>
																<parameter authoringApp="PremierePro">
																	<parameterid>7</parameterid>
																	<name>Temperature</name>
																	<IsTimeVarying>false</IsTimeVarying>
																	<ParameterControlType>8</ParameterControlType>
																	<LowerBound>-300</LowerBound>
																	<UpperBound>300</UpperBound>
																	<LowerUIBound>-100</LowerUIBound>
																	<UpperUIBound>100</UpperUIBound>
																	<value>-91445760000000000,0.,0,0,0,0,0,0</value>
																</parameter>
																<parameter authoringApp="PremierePro">
																	<parameterid>8</parameterid>
																	<name>Tint</name>
																	<IsTimeVarying>false</IsTimeVarying>
																	<ParameterControlType>8</ParameterControlType>
																	<LowerBound>-300</LowerBound>
																	<UpperBound>300</UpperBound>
																	<LowerUIBound>-100</LowerUIBound>
																	<UpperUIBound>100</UpperUIBound>
																	<value>-91445760000000000,0.,0,0,0,0,0,0</value>
																</parameter>
																<parameter authoringApp="PremierePro">
																	<parameterid>20</parameterid>
																	<name>Saturation</name>
																	<IsTimeVarying>false</IsTimeVarying>
																	<ParameterControlType>8</ParameterControlType>
																	<LowerBound>0</LowerBound>
																	<UpperBound>300</UpperBound>
																	<UpperUIBound>200</UpperUIBound>
																	<value>-91445760000000000,100.,0,0,0,0,0,0</value>
																</parameter>
																<parameter authoringApp="PremierePro">
																	<parameterid>11</parameterid>
																	<name>Exposure</name>
																	<IsTimeVarying>false</IsTimeVarying>
																	<ParameterControlType>8</ParameterControlType>
																	<LowerBound>-7</LowerBound>
																	<UpperBound>7</UpperBound>
																	<LowerUIBound>-5</LowerUIBound>
																	<UpperUIBound>5</UpperUIBound>
																	<value>-91445760000000000,0.57755756378173828125,0,0,0,0,0,0</value>
																</parameter>
																<parameter authoringApp="PremierePro">
																	<parameterid>12</parameterid>
																	<name>Contrast</name>
																	<IsTimeVarying>false</IsTimeVarying>
																	<ParameterControlType>8</ParameterControlType>
																	<LowerBound>-150</LowerBound>
																	<UpperBound>150</UpperBound>
																	<LowerUIBound>-100</LowerUIBound>
																	<UpperUIBound>100</UpperUIBound>
																	<value>-91445760000000000,7.59075927734375,0,0,0,0,0,0</value>
																</parameter>
																<parameter authoringApp="PremierePro">
																	<parameterid>13</parameterid>
																	<name>Highlights</name>
																	<IsTimeVarying>false</IsTimeVarying>
																	<ParameterControlType>8</ParameterControlType>
																	<LowerBound>-150</LowerBound>
																	<UpperBound>150</UpperBound>
																	<LowerUIBound>-100</LowerUIBound>
																	<UpperUIBound>100</UpperUIBound>
																	<value>-91445760000000000,5.610565185546875,0,0,0,0,0,0</value>
																</parameter>
																<parameter authoringApp="PremierePro">
																	<parameterid>14</parameterid>
																	<name>Shadows</name>
																	<IsTimeVarying>false</IsTimeVarying>
																	<ParameterControlType>8</ParameterControlType>
																	<LowerBound>-150</LowerBound>
																	<UpperBound>150</UpperBound>
																	<LowerUIBound>-100</LowerUIBound>
																	<UpperUIBound>100</UpperUIBound>
																	<value>-91445760000000000,-6.930694580078125,0,0,0,0,0,0</value>
																</parameter>
																<parameter authoringApp="PremierePro">
																	<parameterid>15</parameterid>
																	<name>Whites</name>
																	<IsTimeVarying>false</IsTimeVarying>
																	<ParameterControlType>8</ParameterControlType>
																	<LowerBound>-150</LowerBound>
																	<UpperBound>150</UpperBound>
																	<LowerUIBound>-100</LowerUIBound>
																	<UpperUIBound>100</UpperUIBound>
																	<value>-91445760000000000,12.211212158203125,0,0,0,0,0,0</value>
																</parameter>
																<parameter authoringApp="PremierePro">
																	<parameterid>16</parameterid>
																	<name>Blacks</name>
																	<IsTimeVarying>false</IsTimeVarying>
																	<ParameterControlType>8</ParameterControlType>
																	<LowerBound>-150</LowerBound>
																	<UpperBound>150</UpperBound>
																	<LowerUIBound>-100</LowerUIBound>
																	<UpperUIBound>100</UpperUIBound>
																	<value>-91445760000000000,0.,0,0,0,0,0,0</value>
																</parameter>
																<parameter authoringApp="PremierePro">
																	<parameterid>23</parameterid>
																	<name> </name>
																	<IsTimeVarying>false</IsTimeVarying>
																	<ParameterControlType>4</ParameterControlType>
																	<LowerBound>false</LowerBound>
																	<UpperBound>true</UpperBound>
																	<value>-91445760000000000,true,0,0,0,0,0,0</value>
																</parameter>
																<parameter authoringApp="PremierePro">
																	<parameterid>24</parameterid>
																	<name> </name>
																	<hash>63866a15-9327-e4cb-ff31-c9ea0000000e</hash>
																</parameter>
																<parameter authoringApp="PremierePro">
																	<parameterid>25</parameterid>
																	<name>Look</name>
																	<IsTimeVarying>false</IsTimeVarying>
																	<ParameterControlType>7</ParameterControlType>
																	<LowerBound>0</LowerBound>
																	<UpperBound>998</UpperBound>
																	<value>-91445760000000000,0,0,0,0,0,0,0</value>
																</parameter>
																<parameter authoringApp="PremierePro">
																	<parameterid>26</parameterid>
																	<name>Intensity</name>
																	<IsTimeVarying>false</IsTimeVarying>
																	<ParameterControlType>8</ParameterControlType>
																	<LowerBound>0</LowerBound>
																	<UpperBound>200</UpperBound>
																	<value>-91445760000000000,100.,0,0,0,0,0,0</value>
																</parameter>
																<parameter authoringApp="PremierePro">
																	<parameterid>28</parameterid>
																	<name>Faded Film</name>
																	<IsTimeVarying>false</IsTimeVarying>
																	<ParameterControlType>8</ParameterControlType>
																	<LowerBound>0</LowerBound>
																	<UpperBound>150</UpperBound>
																	<UpperUIBound>100</UpperUIBound>
																	<value>-91445760000000000,0.,0,0,0,0,0,0</value>
																</parameter>
																<parameter authoringApp="PremierePro">
																	<parameterid>29</parameterid>
																	<name>Sharpen</name>
																	<IsTimeVarying>false</IsTimeVarying>
																	<ParameterControlType>8</ParameterControlType>
																	<LowerBound>-100</LowerBound>
																	<UpperBound>100</UpperBound>
																	<value>-91445760000000000,0.,0,0,0,0,0,0</value>
																</parameter>
																<parameter authoringApp="PremierePro">
																	<parameterid>30</parameterid>
																	<name>Vibrance</name>
																	<IsTimeVarying>false</IsTimeVarying>
																	<ParameterControlType>8</ParameterControlType>
																	<LowerBound>-100</LowerBound>
																	<UpperBound>100</UpperBound>
																	<value>-91445760000000000,0.,0,0,0,0,0,0</value>
																</parameter>
																<parameter authoringApp="PremierePro">
																	<parameterid>31</parameterid>
																	<name>Saturation</name>
																	<IsTimeVarying>false</IsTimeVarying>
																	<ParameterControlType>8</ParameterControlType>
																	<LowerBound>0</LowerBound>
																	<UpperBound>300</UpperBound>
																	<UpperUIBound>200</UpperUIBound>
																	<value>-91445760000000000,100.,0,0,0,0,0,0</value>
																</parameter>
																<parameter authoringApp="PremierePro">
																	<parameterid>32</parameterid>
																	<name></name>
																	<hash>49d2fca5-ddd1-a393-0544-f6d80000002c</hash>
																</parameter>
																<parameter authoringApp="PremierePro">
																	<parameterid>33</parameterid>
																	<name>Tint Balance</name>
																	<IsTimeVarying>false</IsTimeVarying>
																	<ParameterControlType>8</ParameterControlType>
																	<LowerBound>-150</LowerBound>
																	<UpperBound>150</UpperBound>
																	<LowerUIBound>-100</LowerUIBound>
																	<UpperUIBound>100</UpperUIBound>
																	<value>-91445760000000000,0.,0,0,0,0,0,0</value>
																</parameter>
																<parameter authoringApp="PremierePro">
																	<parameterid>37</parameterid>
																	<name> </name>
																	<IsTimeVarying>false</IsTimeVarying>
																	<ParameterControlType>4</ParameterControlType>
																	<LowerBound>false</LowerBound>
																	<UpperBound>true</UpperBound>
																	<value>-91445760000000000,true,0,0,0,0,0,0</value>
																</parameter>
																<parameter authoringApp="PremierePro">
																	<parameterid>39</parameterid>
																	<name> </name>
																	<hash>261f3840-e8cf-a8cd-fa5e-bac10000082c</hash>
																</parameter>
																<parameter authoringApp="PremierePro">
																	<parameterid>42</parameterid>
																	<name>Hue vs Sat</name>
																	<hash>f146cafe-eab3-19ed-0ee8-de0e00000214</hash>
																</parameter>
																<parameter authoringApp="PremierePro">
																	<parameterid>46</parameterid>
																	<name> </name>
																	<IsTimeVarying>false</IsTimeVarying>
																	<ParameterControlType>4</ParameterControlType>
																	<LowerBound>false</LowerBound>
																	<UpperBound>true</UpperBound>
																	<value>-91445760000000000,true,0,0,0,0,0,0</value>
																</parameter>
																<parameter authoringApp="PremierePro">
																	<parameterid>47</parameterid>
																	<name> </name>
																	<hash>0b5436c4-bae0-bb64-a2f6-c8c40000006c</hash>
																</parameter>
																<parameter authoringApp="PremierePro">
																	<parameterid>50</parameterid>
																	<name> </name>
																	<IsTimeVarying>false</IsTimeVarying>
																	<ParameterControlType>4</ParameterControlType>
																	<LowerBound>false</LowerBound>
																	<UpperBound>true</UpperBound>
																	<value>-91445760000000000,true,0,0,0,0,0,0</value>
																</parameter>
																<parameter authoringApp="PremierePro">
																	<parameterid>51</parameterid>
																	<name>Amount</name>
																	<IsTimeVarying>false</IsTimeVarying>
																	<ParameterControlType>8</ParameterControlType>
																	<LowerBound>-5</LowerBound>
																	<UpperBound>5</UpperBound>
																	<LowerUIBound>-3</LowerUIBound>
																	<UpperUIBound>3</UpperUIBound>
																	<value>-91445760000000000,0.,0,0,0,0,0,0</value>
																</parameter>
																<parameter authoringApp="PremierePro">
																	<parameterid>52</parameterid>
																	<name>Midpoint</name>
																	<IsTimeVarying>false</IsTimeVarying>
																	<ParameterControlType>8</ParameterControlType>
																	<LowerBound>0</LowerBound>
																	<UpperBound>100</UpperBound>
																	<value>-91445760000000000,50.,0,0,0,0,0,0</value>
																</parameter>
																<parameter authoringApp="PremierePro">
																	<parameterid>53</parameterid>
																	<name>Roundness</name>
																	<IsTimeVarying>false</IsTimeVarying>
																	<ParameterControlType>8</ParameterControlType>
																	<LowerBound>-100</LowerBound>
																	<UpperBound>100</UpperBound>
																	<value>-91445760000000000,0.,0,0,0,0,0,0</value>
																</parameter>
																<parameter authoringApp="PremierePro">
																	<parameterid>54</parameterid>
																	<name>Feather</name>
																	<IsTimeVarying>false</IsTimeVarying>
																	<ParameterControlType>8</ParameterControlType>
																	<LowerBound>0</LowerBound>
																	<UpperBound>100</UpperBound>
																	<value>-91445760000000000,50.,0,0,0,0,0,0</value>
																</parameter>
															</effect>
														</filter>
														<logginginfo>
															<description></description>
															<scene></scene>
															<shottake></shottake>
															<lognote></lognote>
															<good></good>
															<originalvideofilename></originalvideofilename>
															<originalaudiofilename></originalaudiofilename>
														</logginginfo>
														<colorinfo>
															<lut></lut>
															<lut1></lut1>
															<asc_sop></asc_sop>
															<asc_sat></asc_sat>
															<lut2></lut2>
														</colorinfo>
														<labels>
															<label2>Iris</label2>
														</labels>
													</clipitem>
													<clipitem id="clipitem-474">
														<masterclipid>masterclip-153</masterclipid>
														<name>Cardistry ASMR 3   More Captivating Card-Shuffling_@Rise Magic.mp4</name>
														<enabled>TRUE</enabled>
														<duration>8556</duration>
														<rate>
															<timebase>30</timebase>
															<ntsc>TRUE</ntsc>
														</rate>
														<start>928</start>
														<end>1068</end>
														<in>7137</in>
														<out>7277</out>
														<pproTicksIn>60490836806400</pproTicksIn>
														<pproTicksOut>61677430214400</pproTicksOut>
														<alphatype>none</alphatype>
														<file id="file-148"/>
														<filter>
															<effect>
																<name>Basic Motion</name>
																<effectid>basic</effectid>
																<effectcategory>motion</effectcategory>
																<effecttype>motion</effecttype>
																<mediatype>video</mediatype>
																<pproBypass>false</pproBypass>
																<parameter authoringApp="PremierePro">
																	<parameterid>scale</parameterid>
																	<name>Scale</name>
																	<valuemin>0</valuemin>
																	<valuemax>1000</valuemax>
																	<value>125</value>
																</parameter>
																<parameter authoringApp="PremierePro">
																	<parameterid>rotation</parameterid>
																	<name>Rotation</name>
																	<valuemin>-8640</valuemin>
																	<valuemax>8640</valuemax>
																	<value>0</value>
																</parameter>
																<parameter authoringApp="PremierePro">
																	<parameterid>center</parameterid>
																	<name>Center</name>
																	<value>
																		<horiz>0</horiz>
																		<vert>0</vert>
																	</value>
																</parameter>
																<parameter authoringApp="PremierePro">
																	<parameterid>centerOffset</parameterid>
																	<name>Anchor Point</name>
																	<value>
																		<horiz>0</horiz>
																		<vert>0</vert>
																	</value>
																</parameter>
																<parameter authoringApp="PremierePro">
																	<parameterid>antiflicker</parameterid>
																	<name>Anti-flicker Filter</name>
																	<valuemin>0.0</valuemin>
																	<valuemax>1.0</valuemax>
																	<value>0</value>
																</parameter>
															</effect>
														</filter>
														<filter>
															<effect>
																<name></name>
																<effectid>Lumetri</effectid>
																<effecttype>filter</effecttype>
																<mediatype>video</mediatype>
																<pproBypass>false</pproBypass>
																<parameter authoringApp="PremierePro">
																	<parameterid>1</parameterid>
																	<name>Blob</name>
																	<hash>63866a15-9327-e4cb-ff31-c9ea0000000e</hash>
																</parameter>
																<parameter authoringApp="PremierePro">
																	<parameterid>3</parameterid>
																	<name> </name>
																	<IsTimeVarying>false</IsTimeVarying>
																	<ParameterControlType>4</ParameterControlType>
																	<LowerBound>false</LowerBound>
																	<UpperBound>true</UpperBound>
																	<value>-91445760000000000,true,0,0,0,0,0,0</value>
																</parameter>
																<parameter authoringApp="PremierePro">
																	<parameterid>4</parameterid>
																	<name> </name>
																	<hash>63866a15-9327-e4cb-ff31-c9ea0000000e</hash>
																</parameter>
																<parameter authoringApp="PremierePro">
																	<parameterid>5</parameterid>
																	<name>Input LUT</name>
																	<IsTimeVarying>false</IsTimeVarying>
																	<ParameterControlType>7</ParameterControlType>
																	<LowerBound>0</LowerBound>
																	<UpperBound>998</UpperBound>
																	<value>-91445760000000000,0,0,0,0,0,0,0</value>
																</parameter>
																<parameter authoringApp="PremierePro">
																	<parameterid>7</parameterid>
																	<name>Temperature</name>
																	<IsTimeVarying>false</IsTimeVarying>
																	<ParameterControlType>8</ParameterControlType>
																	<LowerBound>-300</LowerBound>
																	<UpperBound>300</UpperBound>
																	<LowerUIBound>-100</LowerUIBound>
																	<UpperUIBound>100</UpperUIBound>
																	<value>-91445760000000000,0.,0,0,0,0,0,0</value>
																</parameter>
																<parameter authoringApp="PremierePro">
																	<parameterid>8</parameterid>
																	<name>Tint</name>
																	<IsTimeVarying>false</IsTimeVarying>
																	<ParameterControlType>8</ParameterControlType>
																	<LowerBound>-300</LowerBound>
																	<UpperBound>300</UpperBound>
																	<LowerUIBound>-100</LowerUIBound>
																	<UpperUIBound>100</UpperUIBound>
																	<value>-91445760000000000,0.,0,0,0,0,0,0</value>
																</parameter>
																<parameter authoringApp="PremierePro">
																	<parameterid>20</parameterid>
																	<name>Saturation</name>
																	<IsTimeVarying>false</IsTimeVarying>
																	<ParameterControlType>8</ParameterControlType>
																	<LowerBound>0</LowerBound>
																	<UpperBound>300</UpperBound>
																	<UpperUIBound>200</UpperUIBound>
																	<value>-91445760000000000,100.,0,0,0,0,0,0</value>
																</parameter>
																<parameter authoringApp="PremierePro">
																	<parameterid>11</parameterid>
																	<name>Exposure</name>
																	<IsTimeVarying>false</IsTimeVarying>
																	<ParameterControlType>8</ParameterControlType>
																	<LowerBound>-7</LowerBound>
																	<UpperBound>7</UpperBound>
																	<LowerUIBound>-5</LowerUIBound>
																	<UpperUIBound>5</UpperUIBound>
																	<value>-91445760000000000,0.57755756378173828125,0,0,0,0,0,0</value>
																</parameter>
																<parameter authoringApp="PremierePro">
																	<parameterid>12</parameterid>
																	<name>Contrast</name>
																	<IsTimeVarying>false</IsTimeVarying>
																	<ParameterControlType>8</ParameterControlType>
																	<LowerBound>-150</LowerBound>
																	<UpperBound>150</UpperBound>
																	<LowerUIBound>-100</LowerUIBound>
																	<UpperUIBound>100</UpperUIBound>
																	<value>-91445760000000000,7.59075927734375,0,0,0,0,0,0</value>
																</parameter>
																<parameter authoringApp="PremierePro">
																	<parameterid>13</parameterid>
																	<name>Highlights</name>
																	<IsTimeVarying>false</IsTimeVarying>
																	<ParameterControlType>8</ParameterControlType>
																	<LowerBound>-150</LowerBound>
																	<UpperBound>150</UpperBound>
																	<LowerUIBound>-100</LowerUIBound>
																	<UpperUIBound>100</UpperUIBound>
																	<value>-91445760000000000,5.610565185546875,0,0,0,0,0,0</value>
																</parameter>
																<parameter authoringApp="PremierePro">
																	<parameterid>14</parameterid>
																	<name>Shadows</name>
																	<IsTimeVarying>false</IsTimeVarying>
																	<ParameterControlType>8</ParameterControlType>
																	<LowerBound>-150</LowerBound>
																	<UpperBound>150</UpperBound>
																	<LowerUIBound>-100</LowerUIBound>
																	<UpperUIBound>100</UpperUIBound>
																	<value>-91445760000000000,-6.930694580078125,0,0,0,0,0,0</value>
																</parameter>
																<parameter authoringApp="PremierePro">
																	<parameterid>15</parameterid>
																	<name>Whites</name>
																	<IsTimeVarying>false</IsTimeVarying>
																	<ParameterControlType>8</ParameterControlType>
																	<LowerBound>-150</LowerBound>
																	<UpperBound>150</UpperBound>
																	<LowerUIBound>-100</LowerUIBound>
																	<UpperUIBound>100</UpperUIBound>
																	<value>-91445760000000000,12.211212158203125,0,0,0,0,0,0</value>
																</parameter>
																<parameter authoringApp="PremierePro">
																	<parameterid>16</parameterid>
																	<name>Blacks</name>
																	<IsTimeVarying>false</IsTimeVarying>
																	<ParameterControlType>8</ParameterControlType>
																	<LowerBound>-150</LowerBound>
																	<UpperBound>150</UpperBound>
																	<LowerUIBound>-100</LowerUIBound>
																	<UpperUIBound>100</UpperUIBound>
																	<value>-91445760000000000,0.,0,0,0,0,0,0</value>
																</parameter>
																<parameter authoringApp="PremierePro">
																	<parameterid>23</parameterid>
																	<name> </name>
																	<IsTimeVarying>false</IsTimeVarying>
																	<ParameterControlType>4</ParameterControlType>
																	<LowerBound>false</LowerBound>
																	<UpperBound>true</UpperBound>
																	<value>-91445760000000000,true,0,0,0,0,0,0</value>
																</parameter>
																<parameter authoringApp="PremierePro">
																	<parameterid>24</parameterid>
																	<name> </name>
																	<hash>63866a15-9327-e4cb-ff31-c9ea0000000e</hash>
																</parameter>
																<parameter authoringApp="PremierePro">
																	<parameterid>25</parameterid>
																	<name>Look</name>
																	<IsTimeVarying>false</IsTimeVarying>
																	<ParameterControlType>7</ParameterControlType>
																	<LowerBound>0</LowerBound>
																	<UpperBound>998</UpperBound>
																	<value>-91445760000000000,0,0,0,0,0,0,0</value>
																</parameter>
																<parameter authoringApp="PremierePro">
																	<parameterid>26</parameterid>
																	<name>Intensity</name>
																	<IsTimeVarying>false</IsTimeVarying>
																	<ParameterControlType>8</ParameterControlType>
																	<LowerBound>0</LowerBound>
																	<UpperBound>200</UpperBound>
																	<value>-91445760000000000,100.,0,0,0,0,0,0</value>
																</parameter>
																<parameter authoringApp="PremierePro">
																	<parameterid>28</parameterid>
																	<name>Faded Film</name>
																	<IsTimeVarying>false</IsTimeVarying>
																	<ParameterControlType>8</ParameterControlType>
																	<LowerBound>0</LowerBound>
																	<UpperBound>150</UpperBound>
																	<UpperUIBound>100</UpperUIBound>
																	<value>-91445760000000000,0.,0,0,0,0,0,0</value>
																</parameter>
																<parameter authoringApp="PremierePro">
																	<parameterid>29</parameterid>
																	<name>Sharpen</name>
																	<IsTimeVarying>false</IsTimeVarying>
																	<ParameterControlType>8</ParameterControlType>
																	<LowerBound>-100</LowerBound>
																	<UpperBound>100</UpperBound>
																	<value>-91445760000000000,0.,0,0,0,0,0,0</value>
																</parameter>
																<parameter authoringApp="PremierePro">
																	<parameterid>30</parameterid>
																	<name>Vibrance</name>
																	<IsTimeVarying>false</IsTimeVarying>
																	<ParameterControlType>8</ParameterControlType>
																	<LowerBound>-100</LowerBound>
																	<UpperBound>100</UpperBound>
																	<value>-91445760000000000,0.,0,0,0,0,0,0</value>
																</parameter>
																<parameter authoringApp="PremierePro">
																	<parameterid>31</parameterid>
																	<name>Saturation</name>
																	<IsTimeVarying>false</IsTimeVarying>
																	<ParameterControlType>8</ParameterControlType>
																	<LowerBound>0</LowerBound>
																	<UpperBound>300</UpperBound>
																	<UpperUIBound>200</UpperUIBound>
																	<value>-91445760000000000,100.,0,0,0,0,0,0</value>
																</parameter>
																<parameter authoringApp="PremierePro">
																	<parameterid>32</parameterid>
																	<name></name>
																	<hash>49d2fca5-ddd1-a393-0544-f6d80000002c</hash>
																</parameter>
																<parameter authoringApp="PremierePro">
																	<parameterid>33</parameterid>
																	<name>Tint Balance</name>
																	<IsTimeVarying>false</IsTimeVarying>
																	<ParameterControlType>8</ParameterControlType>
																	<LowerBound>-150</LowerBound>
																	<UpperBound>150</UpperBound>
																	<LowerUIBound>-100</LowerUIBound>
																	<UpperUIBound>100</UpperUIBound>
																	<value>-91445760000000000,0.,0,0,0,0,0,0</value>
																</parameter>
																<parameter authoringApp="PremierePro">
																	<parameterid>37</parameterid>
																	<name> </name>
																	<IsTimeVarying>false</IsTimeVarying>
																	<ParameterControlType>4</ParameterControlType>
																	<LowerBound>false</LowerBound>
																	<UpperBound>true</UpperBound>
																	<value>-91445760000000000,true,0,0,0,0,0,0</value>
																</parameter>
																<parameter authoringApp="PremierePro">
																	<parameterid>39</parameterid>
																	<name> </name>
																	<hash>261f3840-e8cf-a8cd-fa5e-bac10000082c</hash>
																</parameter>
																<parameter authoringApp="PremierePro">
																	<parameterid>42</parameterid>
																	<name>Hue vs Sat</name>
																	<hash>f146cafe-eab3-19ed-0ee8-de0e00000214</hash>
																</parameter>
																<parameter authoringApp="PremierePro">
																	<parameterid>46</parameterid>
																	<name> </name>
																	<IsTimeVarying>false</IsTimeVarying>
																	<ParameterControlType>4</ParameterControlType>
																	<LowerBound>false</LowerBound>
																	<UpperBound>true</UpperBound>
																	<value>-91445760000000000,true,0,0,0,0,0,0</value>
																</parameter>
																<parameter authoringApp="PremierePro">
																	<parameterid>47</parameterid>
																	<name> </name>
																	<hash>0b5436c4-bae0-bb64-a2f6-c8c40000006c</hash>
																</parameter>
																<parameter authoringApp="PremierePro">
																	<parameterid>50</parameterid>
																	<name> </name>
																	<IsTimeVarying>false</IsTimeVarying>
																	<ParameterControlType>4</ParameterControlType>
																	<LowerBound>false</LowerBound>
																	<UpperBound>true</UpperBound>
																	<value>-91445760000000000,true,0,0,0,0,0,0</value>
																</parameter>
																<parameter authoringApp="PremierePro">
																	<parameterid>51</parameterid>
																	<name>Amount</name>
																	<IsTimeVarying>false</IsTimeVarying>
																	<ParameterControlType>8</ParameterControlType>
																	<LowerBound>-5</LowerBound>
																	<UpperBound>5</UpperBound>
																	<LowerUIBound>-3</LowerUIBound>
																	<UpperUIBound>3</UpperUIBound>
																	<value>-91445760000000000,0.,0,0,0,0,0,0</value>
																</parameter>
																<parameter authoringApp="PremierePro">
																	<parameterid>52</parameterid>
																	<name>Midpoint</name>
																	<IsTimeVarying>false</IsTimeVarying>
																	<ParameterControlType>8</ParameterControlType>
																	<LowerBound>0</LowerBound>
																	<UpperBound>100</UpperBound>
																	<value>-91445760000000000,50.,0,0,0,0,0,0</value>
																</parameter>
																<parameter authoringApp="PremierePro">
																	<parameterid>53</parameterid>
																	<name>Roundness</name>
																	<IsTimeVarying>false</IsTimeVarying>
																	<ParameterControlType>8</ParameterControlType>
																	<LowerBound>-100</LowerBound>
																	<UpperBound>100</UpperBound>
																	<value>-91445760000000000,0.,0,0,0,0,0,0</value>
																</parameter>
																<parameter authoringApp="PremierePro">
																	<parameterid>54</parameterid>
																	<name>Feather</name>
																	<IsTimeVarying>false</IsTimeVarying>
																	<ParameterControlType>8</ParameterControlType>
																	<LowerBound>0</LowerBound>
																	<UpperBound>100</UpperBound>
																	<value>-91445760000000000,50.,0,0,0,0,0,0</value>
																</parameter>
															</effect>
														</filter>
														<logginginfo>
															<description></description>
															<scene></scene>
															<shottake></shottake>
															<lognote></lognote>
															<good></good>
															<originalvideofilename></originalvideofilename>
															<originalaudiofilename></originalaudiofilename>
														</logginginfo>
														<colorinfo>
															<lut></lut>
															<lut1></lut1>
															<asc_sop></asc_sop>
															<asc_sat></asc_sat>
															<lut2></lut2>
														</colorinfo>
														<labels>
															<label2>Iris</label2>
														</labels>
													</clipitem>
													<clipitem id="clipitem-475">
														<masterclipid>masterclip-153</masterclipid>
														<name>Cardistry ASMR 3   More Captivating Card-Shuffling_@Rise Magic.mp4</name>
														<enabled>TRUE</enabled>
														<duration>8556</duration>
														<rate>
															<timebase>30</timebase>
															<ntsc>TRUE</ntsc>
														</rate>
														<start>1068</start>
														<end>1232</end>
														<in>7303</in>
														<out>7467</out>
														<pproTicksIn>61897797561600</pproTicksIn>
														<pproTicksOut>63287806982400</pproTicksOut>
														<alphatype>none</alphatype>
														<file id="file-148"/>
														<filter>
															<effect>
																<name>Basic Motion</name>
																<effectid>basic</effectid>
																<effectcategory>motion</effectcategory>
																<effecttype>motion</effecttype>
																<mediatype>video</mediatype>
																<pproBypass>false</pproBypass>
																<parameter authoringApp="PremierePro">
																	<parameterid>scale</parameterid>
																	<name>Scale</name>
																	<valuemin>0</valuemin>
																	<valuemax>1000</valuemax>
																	<value>125</value>
																</parameter>
																<parameter authoringApp="PremierePro">
																	<parameterid>rotation</parameterid>
																	<name>Rotation</name>
																	<valuemin>-8640</valuemin>
																	<valuemax>8640</valuemax>
																	<value>0</value>
																</parameter>
																<parameter authoringApp="PremierePro">
																	<parameterid>center</parameterid>
																	<name>Center</name>
																	<value>
																		<horiz>0</horiz>
																		<vert>0</vert>
																	</value>
																</parameter>
																<parameter authoringApp="PremierePro">
																	<parameterid>centerOffset</parameterid>
																	<name>Anchor Point</name>
																	<value>
																		<horiz>0</horiz>
																		<vert>0</vert>
																	</value>
																</parameter>
																<parameter authoringApp="PremierePro">
																	<parameterid>antiflicker</parameterid>
																	<name>Anti-flicker Filter</name>
																	<valuemin>0.0</valuemin>
																	<valuemax>1.0</valuemax>
																	<value>0</value>
																</parameter>
															</effect>
														</filter>
														<filter>
															<effect>
																<name></name>
																<effectid>Lumetri</effectid>
																<effecttype>filter</effecttype>
																<mediatype>video</mediatype>
																<pproBypass>false</pproBypass>
																<parameter authoringApp="PremierePro">
																	<parameterid>1</parameterid>
																	<name>Blob</name>
																	<hash>63866a15-9327-e4cb-ff31-c9ea0000000e</hash>
																</parameter>
																<parameter authoringApp="PremierePro">
																	<parameterid>3</parameterid>
																	<name> </name>
																	<IsTimeVarying>false</IsTimeVarying>
																	<ParameterControlType>4</ParameterControlType>
																	<LowerBound>false</LowerBound>
																	<UpperBound>true</UpperBound>
																	<value>-91445760000000000,true,0,0,0,0,0,0</value>
																</parameter>
																<parameter authoringApp="PremierePro">
																	<parameterid>4</parameterid>
																	<name> </name>
																	<hash>63866a15-9327-e4cb-ff31-c9ea0000000e</hash>
																</parameter>
																<parameter authoringApp="PremierePro">
																	<parameterid>5</parameterid>
																	<name>Input LUT</name>
																	<IsTimeVarying>false</IsTimeVarying>
																	<ParameterControlType>7</ParameterControlType>
																	<LowerBound>0</LowerBound>
																	<UpperBound>998</UpperBound>
																	<value>-91445760000000000,0,0,0,0,0,0,0</value>
																</parameter>
																<parameter authoringApp="PremierePro">
																	<parameterid>7</parameterid>
																	<name>Temperature</name>
																	<IsTimeVarying>false</IsTimeVarying>
																	<ParameterControlType>8</ParameterControlType>
																	<LowerBound>-300</LowerBound>
																	<UpperBound>300</UpperBound>
																	<LowerUIBound>-100</LowerUIBound>
																	<UpperUIBound>100</UpperUIBound>
																	<value>-91445760000000000,0.,0,0,0,0,0,0</value>
																</parameter>
																<parameter authoringApp="PremierePro">
																	<parameterid>8</parameterid>
																	<name>Tint</name>
																	<IsTimeVarying>false</IsTimeVarying>
																	<ParameterControlType>8</ParameterControlType>
																	<LowerBound>-300</LowerBound>
																	<UpperBound>300</UpperBound>
																	<LowerUIBound>-100</LowerUIBound>
																	<UpperUIBound>100</UpperUIBound>
																	<value>-91445760000000000,0.,0,0,0,0,0,0</value>
																</parameter>
																<parameter authoringApp="PremierePro">
																	<parameterid>20</parameterid>
																	<name>Saturation</name>
																	<IsTimeVarying>false</IsTimeVarying>
																	<ParameterControlType>8</ParameterControlType>
																	<LowerBound>0</LowerBound>
																	<UpperBound>300</UpperBound>
																	<UpperUIBound>200</UpperUIBound>
																	<value>-91445760000000000,100.,0,0,0,0,0,0</value>
																</parameter>
																<parameter authoringApp="PremierePro">
																	<parameterid>11</parameterid>
																	<name>Exposure</name>
																	<IsTimeVarying>false</IsTimeVarying>
																	<ParameterControlType>8</ParameterControlType>
																	<LowerBound>-7</LowerBound>
																	<UpperBound>7</UpperBound>
																	<LowerUIBound>-5</LowerUIBound>
																	<UpperUIBound>5</UpperUIBound>
																	<value>-91445760000000000,0.57755756378173828125,0,0,0,0,0,0</value>
																</parameter>
																<parameter authoringApp="PremierePro">
																	<parameterid>12</parameterid>
																	<name>Contrast</name>
																	<IsTimeVarying>false</IsTimeVarying>
																	<ParameterControlType>8</ParameterControlType>
																	<LowerBound>-150</LowerBound>
																	<UpperBound>150</UpperBound>
																	<LowerUIBound>-100</LowerUIBound>
																	<UpperUIBound>100</UpperUIBound>
																	<value>-91445760000000000,7.59075927734375,0,0,0,0,0,0</value>
																</parameter>
																<parameter authoringApp="PremierePro">
																	<parameterid>13</parameterid>
																	<name>Highlights</name>
																	<IsTimeVarying>false</IsTimeVarying>
																	<ParameterControlType>8</ParameterControlType>
																	<LowerBound>-150</LowerBound>
																	<UpperBound>150</UpperBound>
																	<LowerUIBound>-100</LowerUIBound>
																	<UpperUIBound>100</UpperUIBound>
																	<value>-91445760000000000,5.610565185546875,0,0,0,0,0,0</value>
																</parameter>
																<parameter authoringApp="PremierePro">
																	<parameterid>14</parameterid>
																	<name>Shadows</name>
																	<IsTimeVarying>false</IsTimeVarying>
																	<ParameterControlType>8</ParameterControlType>
																	<LowerBound>-150</LowerBound>
																	<UpperBound>150</UpperBound>
																	<LowerUIBound>-100</LowerUIBound>
																	<UpperUIBound>100</UpperUIBound>
																	<value>-91445760000000000,-6.930694580078125,0,0,0,0,0,0</value>
																</parameter>
																<parameter authoringApp="PremierePro">
																	<parameterid>15</parameterid>
																	<name>Whites</name>
																	<IsTimeVarying>false</IsTimeVarying>
																	<ParameterControlType>8</ParameterControlType>
																	<LowerBound>-150</LowerBound>
																	<UpperBound>150</UpperBound>
																	<LowerUIBound>-100</LowerUIBound>
																	<UpperUIBound>100</UpperUIBound>
																	<value>-91445760000000000,12.211212158203125,0,0,0,0,0,0</value>
																</parameter>
																<parameter authoringApp="PremierePro">
																	<parameterid>16</parameterid>
																	<name>Blacks</name>
																	<IsTimeVarying>false</IsTimeVarying>
																	<ParameterControlType>8</ParameterControlType>
																	<LowerBound>-150</LowerBound>
																	<UpperBound>150</UpperBound>
																	<LowerUIBound>-100</LowerUIBound>
																	<UpperUIBound>100</UpperUIBound>
																	<value>-91445760000000000,0.,0,0,0,0,0,0</value>
																</parameter>
																<parameter authoringApp="PremierePro">
																	<parameterid>23</parameterid>
																	<name> </name>
																	<IsTimeVarying>false</IsTimeVarying>
																	<ParameterControlType>4</ParameterControlType>
																	<LowerBound>false</LowerBound>
																	<UpperBound>true</UpperBound>
																	<value>-91445760000000000,true,0,0,0,0,0,0</value>
																</parameter>
																<parameter authoringApp="PremierePro">
																	<parameterid>24</parameterid>
																	<name> </name>
																	<hash>63866a15-9327-e4cb-ff31-c9ea0000000e</hash>
																</parameter>
																<parameter authoringApp="PremierePro">
																	<parameterid>25</parameterid>
																	<name>Look</name>
																	<IsTimeVarying>false</IsTimeVarying>
																	<ParameterControlType>7</ParameterControlType>
																	<LowerBound>0</LowerBound>
																	<UpperBound>998</UpperBound>
																	<value>-91445760000000000,0,0,0,0,0,0,0</value>
																</parameter>
																<parameter authoringApp="PremierePro">
																	<parameterid>26</parameterid>
																	<name>Intensity</name>
																	<IsTimeVarying>false</IsTimeVarying>
																	<ParameterControlType>8</ParameterControlType>
																	<LowerBound>0</LowerBound>
																	<UpperBound>200</UpperBound>
																	<value>-91445760000000000,100.,0,0,0,0,0,0</value>
																</parameter>
																<parameter authoringApp="PremierePro">
																	<parameterid>28</parameterid>
																	<name>Faded Film</name>
																	<IsTimeVarying>false</IsTimeVarying>
																	<ParameterControlType>8</ParameterControlType>
																	<LowerBound>0</LowerBound>
																	<UpperBound>150</UpperBound>
																	<UpperUIBound>100</UpperUIBound>
																	<value>-91445760000000000,0.,0,0,0,0,0,0</value>
																</parameter>
																<parameter authoringApp="PremierePro">
																	<parameterid>29</parameterid>
																	<name>Sharpen</name>
																	<IsTimeVarying>false</IsTimeVarying>
																	<ParameterControlType>8</ParameterControlType>
																	<LowerBound>-100</LowerBound>
																	<UpperBound>100</UpperBound>
																	<value>-91445760000000000,0.,0,0,0,0,0,0</value>
																</parameter>
																<parameter authoringApp="PremierePro">
																	<parameterid>30</parameterid>
																	<name>Vibrance</name>
																	<IsTimeVarying>false</IsTimeVarying>
																	<ParameterControlType>8</ParameterControlType>
																	<LowerBound>-100</LowerBound>
																	<UpperBound>100</UpperBound>
																	<value>-91445760000000000,0.,0,0,0,0,0,0</value>
																</parameter>
																<parameter authoringApp="PremierePro">
																	<parameterid>31</parameterid>
																	<name>Saturation</name>
																	<IsTimeVarying>false</IsTimeVarying>
																	<ParameterControlType>8</ParameterControlType>
																	<LowerBound>0</LowerBound>
																	<UpperBound>300</UpperBound>
																	<UpperUIBound>200</UpperUIBound>
																	<value>-91445760000000000,100.,0,0,0,0,0,0</value>
																</parameter>
																<parameter authoringApp="PremierePro">
																	<parameterid>32</parameterid>
																	<name></name>
																	<hash>49d2fca5-ddd1-a393-0544-f6d80000002c</hash>
																</parameter>
																<parameter authoringApp="PremierePro">
																	<parameterid>33</parameterid>
																	<name>Tint Balance</name>
																	<IsTimeVarying>false</IsTimeVarying>
																	<ParameterControlType>8</ParameterControlType>
																	<LowerBound>-150</LowerBound>
																	<UpperBound>150</UpperBound>
																	<LowerUIBound>-100</LowerUIBound>
																	<UpperUIBound>100</UpperUIBound>
																	<value>-91445760000000000,0.,0,0,0,0,0,0</value>
																</parameter>
																<parameter authoringApp="PremierePro">
																	<parameterid>37</parameterid>
																	<name> </name>
																	<IsTimeVarying>false</IsTimeVarying>
																	<ParameterControlType>4</ParameterControlType>
																	<LowerBound>false</LowerBound>
																	<UpperBound>true</UpperBound>
																	<value>-91445760000000000,true,0,0,0,0,0,0</value>
																</parameter>
																<parameter authoringApp="PremierePro">
																	<parameterid>39</parameterid>
																	<name> </name>
																	<hash>261f3840-e8cf-a8cd-fa5e-bac10000082c</hash>
																</parameter>
																<parameter authoringApp="PremierePro">
																	<parameterid>42</parameterid>
																	<name>Hue vs Sat</name>
																	<hash>f146cafe-eab3-19ed-0ee8-de0e00000214</hash>
																</parameter>
																<parameter authoringApp="PremierePro">
																	<parameterid>46</parameterid>
																	<name> </name>
																	<IsTimeVarying>false</IsTimeVarying>
																	<ParameterControlType>4</ParameterControlType>
																	<LowerBound>false</LowerBound>
																	<UpperBound>true</UpperBound>
																	<value>-91445760000000000,true,0,0,0,0,0,0</value>
																</parameter>
																<parameter authoringApp="PremierePro">
																	<parameterid>47</parameterid>
																	<name> </name>
																	<hash>0b5436c4-bae0-bb64-a2f6-c8c40000006c</hash>
																</parameter>
																<parameter authoringApp="PremierePro">
																	<parameterid>50</parameterid>
																	<name> </name>
																	<IsTimeVarying>false</IsTimeVarying>
																	<ParameterControlType>4</ParameterControlType>
																	<LowerBound>false</LowerBound>
																	<UpperBound>true</UpperBound>
																	<value>-91445760000000000,true,0,0,0,0,0,0</value>
																</parameter>
																<parameter authoringApp="PremierePro">
																	<parameterid>51</parameterid>
																	<name>Amount</name>
																	<IsTimeVarying>false</IsTimeVarying>
																	<ParameterControlType>8</ParameterControlType>
																	<LowerBound>-5</LowerBound>
																	<UpperBound>5</UpperBound>
																	<LowerUIBound>-3</LowerUIBound>
																	<UpperUIBound>3</UpperUIBound>
																	<value>-91445760000000000,0.,0,0,0,0,0,0</value>
																</parameter>
																<parameter authoringApp="PremierePro">
																	<parameterid>52</parameterid>
																	<name>Midpoint</name>
																	<IsTimeVarying>false</IsTimeVarying>
																	<ParameterControlType>8</ParameterControlType>
																	<LowerBound>0</LowerBound>
																	<UpperBound>100</UpperBound>
																	<value>-91445760000000000,50.,0,0,0,0,0,0</value>
																</parameter>
																<parameter authoringApp="PremierePro">
																	<parameterid>53</parameterid>
																	<name>Roundness</name>
																	<IsTimeVarying>false</IsTimeVarying>
																	<ParameterControlType>8</ParameterControlType>
																	<LowerBound>-100</LowerBound>
																	<UpperBound>100</UpperBound>
																	<value>-91445760000000000,0.,0,0,0,0,0,0</value>
																</parameter>
																<parameter authoringApp="PremierePro">
																	<parameterid>54</parameterid>
																	<name>Feather</name>
																	<IsTimeVarying>false</IsTimeVarying>
																	<ParameterControlType>8</ParameterControlType>
																	<LowerBound>0</LowerBound>
																	<UpperBound>100</UpperBound>
																	<value>-91445760000000000,50.,0,0,0,0,0,0</value>
																</parameter>
															</effect>
														</filter>
														<logginginfo>
															<description></description>
															<scene></scene>
															<shottake></shottake>
															<lognote></lognote>
															<good></good>
															<originalvideofilename></originalvideofilename>
															<originalaudiofilename></originalaudiofilename>
														</logginginfo>
														<colorinfo>
															<lut></lut>
															<lut1></lut1>
															<asc_sop></asc_sop>
															<asc_sat></asc_sat>
															<lut2></lut2>
														</colorinfo>
														<labels>
															<label2>Iris</label2>
														</labels>
													</clipitem>
													<clipitem id="clipitem-476">
														<masterclipid>masterclip-153</masterclipid>
														<name>Cardistry ASMR 3   More Captivating Card-Shuffling_@Rise Magic.mp4</name>
														<enabled>TRUE</enabled>
														<duration>8556</duration>
														<rate>
															<timebase>30</timebase>
															<ntsc>TRUE</ntsc>
														</rate>
														<start>1232</start>
														<end>1984</end>
														<in>3931</in>
														<out>4683</out>
														<pproTicksIn>33317847763200</pproTicksIn>
														<pproTicksOut>39691549497600</pproTicksOut>
														<alphatype>none</alphatype>
														<file id="file-148"/>
														<filter>
															<effect>
																<name></name>
																<effectid>Lumetri</effectid>
																<effecttype>filter</effecttype>
																<mediatype>video</mediatype>
																<pproBypass>false</pproBypass>
																<parameter authoringApp="PremierePro">
																	<parameterid>1</parameterid>
																	<name>Blob</name>
																	<hash>63866a15-9327-e4cb-ff31-c9ea0000000e</hash>
																</parameter>
																<parameter authoringApp="PremierePro">
																	<parameterid>3</parameterid>
																	<name> </name>
																	<IsTimeVarying>false</IsTimeVarying>
																	<ParameterControlType>4</ParameterControlType>
																	<LowerBound>false</LowerBound>
																	<UpperBound>true</UpperBound>
																	<value>-91445760000000000,true,0,0,0,0,0,0</value>
																</parameter>
																<parameter authoringApp="PremierePro">
																	<parameterid>4</parameterid>
																	<name> </name>
																	<hash>63866a15-9327-e4cb-ff31-c9ea0000000e</hash>
																</parameter>
																<parameter authoringApp="PremierePro">
																	<parameterid>5</parameterid>
																	<name>Input LUT</name>
																	<IsTimeVarying>false</IsTimeVarying>
																	<ParameterControlType>7</ParameterControlType>
																	<LowerBound>0</LowerBound>
																	<UpperBound>998</UpperBound>
																	<value>-91445760000000000,0,0,0,0,0,0,0</value>
																</parameter>
																<parameter authoringApp="PremierePro">
																	<parameterid>7</parameterid>
																	<name>Temperature</name>
																	<IsTimeVarying>false</IsTimeVarying>
																	<ParameterControlType>8</ParameterControlType>
																	<LowerBound>-300</LowerBound>
																	<UpperBound>300</UpperBound>
																	<LowerUIBound>-100</LowerUIBound>
																	<UpperUIBound>100</UpperUIBound>
																	<value>-91445760000000000,0.,0,0,0,0,0,0</value>
																</parameter>
																<parameter authoringApp="PremierePro">
																	<parameterid>8</parameterid>
																	<name>Tint</name>
																	<IsTimeVarying>false</IsTimeVarying>
																	<ParameterControlType>8</ParameterControlType>
																	<LowerBound>-300</LowerBound>
																	<UpperBound>300</UpperBound>
																	<LowerUIBound>-100</LowerUIBound>
																	<UpperUIBound>100</UpperUIBound>
																	<value>-91445760000000000,0.,0,0,0,0,0,0</value>
																</parameter>
																<parameter authoringApp="PremierePro">
																	<parameterid>20</parameterid>
																	<name>Saturation</name>
																	<IsTimeVarying>false</IsTimeVarying>
																	<ParameterControlType>8</ParameterControlType>
																	<LowerBound>0</LowerBound>
																	<UpperBound>300</UpperBound>
																	<UpperUIBound>200</UpperUIBound>
																	<value>-91445760000000000,100.,0,0,0,0,0,0</value>
																</parameter>
																<parameter authoringApp="PremierePro">
																	<parameterid>11</parameterid>
																	<name>Exposure</name>
																	<IsTimeVarying>false</IsTimeVarying>
																	<ParameterControlType>8</ParameterControlType>
																	<LowerBound>-7</LowerBound>
																	<UpperBound>7</UpperBound>
																	<LowerUIBound>-5</LowerUIBound>
																	<UpperUIBound>5</UpperUIBound>
																	<value>-91445760000000000,0.57755756378173828125,0,0,0,0,0,0</value>
																</parameter>
																<parameter authoringApp="PremierePro">
																	<parameterid>12</parameterid>
																	<name>Contrast</name>
																	<IsTimeVarying>false</IsTimeVarying>
																	<ParameterControlType>8</ParameterControlType>
																	<LowerBound>-150</LowerBound>
																	<UpperBound>150</UpperBound>
																	<LowerUIBound>-100</LowerUIBound>
																	<UpperUIBound>100</UpperUIBound>
																	<value>-91445760000000000,7.59075927734375,0,0,0,0,0,0</value>
																</parameter>
																<parameter authoringApp="PremierePro">
																	<parameterid>13</parameterid>
																	<name>Highlights</name>
																	<IsTimeVarying>false</IsTimeVarying>
																	<ParameterControlType>8</ParameterControlType>
																	<LowerBound>-150</LowerBound>
																	<UpperBound>150</UpperBound>
																	<LowerUIBound>-100</LowerUIBound>
																	<UpperUIBound>100</UpperUIBound>
																	<value>-91445760000000000,5.610565185546875,0,0,0,0,0,0</value>
																</parameter>
																<parameter authoringApp="PremierePro">
																	<parameterid>14</parameterid>
																	<name>Shadows</name>
																	<IsTimeVarying>false</IsTimeVarying>
																	<ParameterControlType>8</ParameterControlType>
																	<LowerBound>-150</LowerBound>
																	<UpperBound>150</UpperBound>
																	<LowerUIBound>-100</LowerUIBound>
																	<UpperUIBound>100</UpperUIBound>
																	<value>-91445760000000000,-6.930694580078125,0,0,0,0,0,0</value>
																</parameter>
																<parameter authoringApp="PremierePro">
																	<parameterid>15</parameterid>
																	<name>Whites</name>
																	<IsTimeVarying>false</IsTimeVarying>
																	<ParameterControlType>8</ParameterControlType>
																	<LowerBound>-150</LowerBound>
																	<UpperBound>150</UpperBound>
																	<LowerUIBound>-100</LowerUIBound>
																	<UpperUIBound>100</UpperUIBound>
																	<value>-91445760000000000,12.211212158203125,0,0,0,0,0,0</value>
																</parameter>
																<parameter authoringApp="PremierePro">
																	<parameterid>16</parameterid>
																	<name>Blacks</name>
																	<IsTimeVarying>false</IsTimeVarying>
																	<ParameterControlType>8</ParameterControlType>
																	<LowerBound>-150</LowerBound>
																	<UpperBound>150</UpperBound>
																	<LowerUIBound>-100</LowerUIBound>
																	<UpperUIBound>100</UpperUIBound>
																	<value>-91445760000000000,0.,0,0,0,0,0,0</value>
																</parameter>
																<parameter authoringApp="PremierePro">
																	<parameterid>23</parameterid>
																	<name> </name>
																	<IsTimeVarying>false</IsTimeVarying>
																	<ParameterControlType>4</ParameterControlType>
																	<LowerBound>false</LowerBound>
																	<UpperBound>true</UpperBound>
																	<value>-91445760000000000,true,0,0,0,0,0,0</value>
																</parameter>
																<parameter authoringApp="PremierePro">
																	<parameterid>24</parameterid>
																	<name> </name>
																	<hash>63866a15-9327-e4cb-ff31-c9ea0000000e</hash>
																</parameter>
																<parameter authoringApp="PremierePro">
																	<parameterid>25</parameterid>
																	<name>Look</name>
																	<IsTimeVarying>false</IsTimeVarying>
																	<ParameterControlType>7</ParameterControlType>
																	<LowerBound>0</LowerBound>
																	<UpperBound>998</UpperBound>
																	<value>-91445760000000000,0,0,0,0,0,0,0</value>
																</parameter>
																<parameter authoringApp="PremierePro">
																	<parameterid>26</parameterid>
																	<name>Intensity</name>
																	<IsTimeVarying>false</IsTimeVarying>
																	<ParameterControlType>8</ParameterControlType>
																	<LowerBound>0</LowerBound>
																	<UpperBound>200</UpperBound>
																	<value>-91445760000000000,100.,0,0,0,0,0,0</value>
																</parameter>
																<parameter authoringApp="PremierePro">
																	<parameterid>28</parameterid>
																	<name>Faded Film</name>
																	<IsTimeVarying>false</IsTimeVarying>
																	<ParameterControlType>8</ParameterControlType>
																	<LowerBound>0</LowerBound>
																	<UpperBound>150</UpperBound>
																	<UpperUIBound>100</UpperUIBound>
																	<value>-91445760000000000,0.,0,0,0,0,0,0</value>
																</parameter>
																<parameter authoringApp="PremierePro">
																	<parameterid>29</parameterid>
																	<name>Sharpen</name>
																	<IsTimeVarying>false</IsTimeVarying>
																	<ParameterControlType>8</ParameterControlType>
																	<LowerBound>-100</LowerBound>
																	<UpperBound>100</UpperBound>
																	<value>-91445760000000000,0.,0,0,0,0,0,0</value>
																</parameter>
																<parameter authoringApp="PremierePro">
																	<parameterid>30</parameterid>
																	<name>Vibrance</name>
																	<IsTimeVarying>false</IsTimeVarying>
																	<ParameterControlType>8</ParameterControlType>
																	<LowerBound>-100</LowerBound>
																	<UpperBound>100</UpperBound>
																	<value>-91445760000000000,0.,0,0,0,0,0,0</value>
																</parameter>
																<parameter authoringApp="PremierePro">
																	<parameterid>31</parameterid>
																	<name>Saturation</name>
																	<IsTimeVarying>false</IsTimeVarying>
																	<ParameterControlType>8</ParameterControlType>
																	<LowerBound>0</LowerBound>
																	<UpperBound>300</UpperBound>
																	<UpperUIBound>200</UpperUIBound>
																	<value>-91445760000000000,100.,0,0,0,0,0,0</value>
																</parameter>
																<parameter authoringApp="PremierePro">
																	<parameterid>32</parameterid>
																	<name></name>
																	<hash>49d2fca5-ddd1-a393-0544-f6d80000002c</hash>
																</parameter>
																<parameter authoringApp="PremierePro">
																	<parameterid>33</parameterid>
																	<name>Tint Balance</name>
																	<IsTimeVarying>false</IsTimeVarying>
																	<ParameterControlType>8</ParameterControlType>
																	<LowerBound>-150</LowerBound>
																	<UpperBound>150</UpperBound>
																	<LowerUIBound>-100</LowerUIBound>
																	<UpperUIBound>100</UpperUIBound>
																	<value>-91445760000000000,0.,0,0,0,0,0,0</value>
																</parameter>
																<parameter authoringApp="PremierePro">
																	<parameterid>37</parameterid>
																	<name> </name>
																	<IsTimeVarying>false</IsTimeVarying>
																	<ParameterControlType>4</ParameterControlType>
																	<LowerBound>false</LowerBound>
																	<UpperBound>true</UpperBound>
																	<value>-91445760000000000,true,0,0,0,0,0,0</value>
																</parameter>
																<parameter authoringApp="PremierePro">
																	<parameterid>39</parameterid>
																	<name> </name>
																	<hash>261f3840-e8cf-a8cd-fa5e-bac10000082c</hash>
																</parameter>
																<parameter authoringApp="PremierePro">
																	<parameterid>42</parameterid>
																	<name>Hue vs Sat</name>
																	<hash>f146cafe-eab3-19ed-0ee8-de0e00000214</hash>
																</parameter>
																<parameter authoringApp="PremierePro">
																	<parameterid>46</parameterid>
																	<name> </name>
																	<IsTimeVarying>false</IsTimeVarying>
																	<ParameterControlType>4</ParameterControlType>
																	<LowerBound>false</LowerBound>
																	<UpperBound>true</UpperBound>
																	<value>-91445760000000000,true,0,0,0,0,0,0</value>
																</parameter>
																<parameter authoringApp="PremierePro">
																	<parameterid>47</parameterid>
																	<name> </name>
																	<hash>0b5436c4-bae0-bb64-a2f6-c8c40000006c</hash>
																</parameter>
																<parameter authoringApp="PremierePro">
																	<parameterid>50</parameterid>
																	<name> </name>
																	<IsTimeVarying>false</IsTimeVarying>
																	<ParameterControlType>4</ParameterControlType>
																	<LowerBound>false</LowerBound>
																	<UpperBound>true</UpperBound>
																	<value>-91445760000000000,true,0,0,0,0,0,0</value>
																</parameter>
																<parameter authoringApp="PremierePro">
																	<parameterid>51</parameterid>
																	<name>Amount</name>
																	<IsTimeVarying>false</IsTimeVarying>
																	<ParameterControlType>8</ParameterControlType>
																	<LowerBound>-5</LowerBound>
																	<UpperBound>5</UpperBound>
																	<LowerUIBound>-3</LowerUIBound>
																	<UpperUIBound>3</UpperUIBound>
																	<value>-91445760000000000,0.,0,0,0,0,0,0</value>
																</parameter>
																<parameter authoringApp="PremierePro">
																	<parameterid>52</parameterid>
																	<name>Midpoint</name>
																	<IsTimeVarying>false</IsTimeVarying>
																	<ParameterControlType>8</ParameterControlType>
																	<LowerBound>0</LowerBound>
																	<UpperBound>100</UpperBound>
																	<value>-91445760000000000,50.,0,0,0,0,0,0</value>
																</parameter>
																<parameter authoringApp="PremierePro">
																	<parameterid>53</parameterid>
																	<name>Roundness</name>
																	<IsTimeVarying>false</IsTimeVarying>
																	<ParameterControlType>8</ParameterControlType>
																	<LowerBound>-100</LowerBound>
																	<UpperBound>100</UpperBound>
																	<value>-91445760000000000,0.,0,0,0,0,0,0</value>
																</parameter>
																<parameter authoringApp="PremierePro">
																	<parameterid>54</parameterid>
																	<name>Feather</name>
																	<IsTimeVarying>false</IsTimeVarying>
																	<ParameterControlType>8</ParameterControlType>
																	<LowerBound>0</LowerBound>
																	<UpperBound>100</UpperBound>
																	<value>-91445760000000000,50.,0,0,0,0,0,0</value>
																</parameter>
															</effect>
														</filter>
														<logginginfo>
															<description></description>
															<scene></scene>
															<shottake></shottake>
															<lognote></lognote>
															<good></good>
															<originalvideofilename></originalvideofilename>
															<originalaudiofilename></originalaudiofilename>
														</logginginfo>
														<colorinfo>
															<lut></lut>
															<lut1></lut1>
															<asc_sop></asc_sop>
															<asc_sat></asc_sat>
															<lut2></lut2>
														</colorinfo>
														<labels>
															<label2>Iris</label2>
														</labels>
													</clipitem>
													<enabled>TRUE</enabled>
													<locked>FALSE</locked>
												</track>
												<track TL.SQTrackShy="0" TL.SQTrackExpandedHeight="25" TL.SQTrackExpanded="0" MZ.TrackTargeted="0">
													<clipitem id="clipitem-477">
														<masterclipid>masterclip-73</masterclipid>
														<name>Rise Magic</name>
														<enabled>TRUE</enabled>
														<duration>5844</duration>
														<rate>
															<timebase>30</timebase>
															<ntsc>TRUE</ntsc>
														</rate>
														<start>0</start>
														<end>1984</end>
														<in>0</in>
														<out>1984</out>
														<pproTicksIn>0</pproTicksIn>
														<pproTicksOut>16815723724800</pproTicksOut>
														<alphatype>straight</alphatype>
														<file id="file-73"/>
														<filter>
															<effect>
																<name>Basic Motion</name>
																<effectid>basic</effectid>
																<effectcategory>motion</effectcategory>
																<effecttype>motion</effecttype>
																<mediatype>video</mediatype>
																<pproBypass>false</pproBypass>
																<parameter authoringApp="PremierePro">
																	<parameterid>scale</parameterid>
																	<name>Scale</name>
																	<valuemin>0</valuemin>
																	<valuemax>1000</valuemax>
																	<value>150</value>
																</parameter>
																<parameter authoringApp="PremierePro">
																	<parameterid>rotation</parameterid>
																	<name>Rotation</name>
																	<valuemin>-8640</valuemin>
																	<valuemax>8640</valuemax>
																	<value>0</value>
																</parameter>
																<parameter authoringApp="PremierePro">
																	<parameterid>center</parameterid>
																	<name>Center</name>
																	<value>
																		<horiz>0</horiz>
																		<vert>0</vert>
																	</value>
																</parameter>
																<parameter authoringApp="PremierePro">
																	<parameterid>centerOffset</parameterid>
																	<name>Anchor Point</name>
																	<value>
																		<horiz>0</horiz>
																		<vert>0</vert>
																	</value>
																</parameter>
																<parameter authoringApp="PremierePro">
																	<parameterid>antiflicker</parameterid>
																	<name>Anti-flicker Filter</name>
																	<valuemin>0.0</valuemin>
																	<valuemax>1.0</valuemax>
																	<value>0</value>
																</parameter>
															</effect>
														</filter>
														<logginginfo>
															<description></description>
															<scene></scene>
															<shottake></shottake>
															<lognote></lognote>
															<good></good>
															<originalvideofilename></originalvideofilename>
															<originalaudiofilename></originalaudiofilename>
														</logginginfo>
														<colorinfo>
															<lut></lut>
															<lut1></lut1>
															<asc_sop></asc_sop>
															<asc_sat></asc_sat>
															<lut2></lut2>
														</colorinfo>
														<labels>
															<label2>Rose</label2>
														</labels>
													</clipitem>
													<enabled>TRUE</enabled>
													<locked>FALSE</locked>
												</track>
												<track TL.SQTrackShy="0" TL.SQTrackExpandedHeight="25" TL.SQTrackExpanded="0" MZ.TrackTargeted="0">
													<clipitem id="clipitem-478">
														<masterclipid>masterclip-106</masterclipid>
														<name>Bug and Lower Nest</name>
														<enabled>TRUE</enabled>
														<duration>14721</duration>
														<rate>
															<timebase>30</timebase>
															<ntsc>TRUE</ntsc>
														</rate>
														<start>0</start>
														<end>1984</end>
														<in>0</in>
														<out>1984</out>
														<pproTicksIn>0</pproTicksIn>
														<pproTicksOut>16815723724800</pproTicksOut>
														<sequence id="sequence-1"/>
														<labels>
															<label2>Cerulean</label2>
														</labels>
													</clipitem>
													<enabled>TRUE</enabled>
													<locked>FALSE</locked>
												</track>
											</video>
											<audio>
												<numOutputChannels>2</numOutputChannels>
												<format>
													<samplecharacteristics>
														<depth>16</depth>
														<samplerate>44100</samplerate>
													</samplecharacteristics>
												</format>
												<outputs>
													<group>
														<index>1</index>
														<numchannels>1</numchannels>
														<downmix>0</downmix>
														<channel>
															<index>1</index>
														</channel>
													</group>
													<group>
														<index>2</index>
														<numchannels>1</numchannels>
														<downmix>0</downmix>
														<channel>
															<index>2</index>
														</channel>
													</group>
												</outputs>
												<track TL.SQTrackAudioKeyframeStyle="0" TL.SQTrackShy="0" TL.SQTrackExpandedHeight="25" TL.SQTrackExpanded="0" MZ.TrackTargeted="1" PannerCurrentValue="0.5" PannerIsInverted="true" PannerStartKeyframe="-91445760000000000,0.5,0,0,0,0,0,0" PannerName="Balance" currentExplodedTrackIndex="0" totalExplodedTrackCount="2" premiereTrackType="Stereo">
													<enabled>TRUE</enabled>
													<locked>FALSE</locked>
													<filter>
														<effect>
															<name>Audio Levels</name>
															<effectid>audiolevels</effectid>
															<effectcategory>audiolevels</effectcategory>
															<effecttype>audiolevels</effecttype>
															<mediatype>audio</mediatype>
															<parameter authoringApp="PremierePro">
																<parameterid>level</parameterid>
																<name>Level</name>
																<valuemin>0</valuemin>
																<valuemax>3.98109</valuemax>
																<value>0.706272</value>
															</parameter>
														</effect>
													</filter>
													<outputchannelindex>1</outputchannelindex>
												</track>
												<track TL.SQTrackAudioKeyframeStyle="0" TL.SQTrackShy="0" TL.SQTrackExpandedHeight="25" TL.SQTrackExpanded="0" MZ.TrackTargeted="1" PannerCurrentValue="0.5" PannerIsInverted="true" PannerStartKeyframe="-91445760000000000,0.5,0,0,0,0,0,0" PannerName="Balance" currentExplodedTrackIndex="1" totalExplodedTrackCount="2" premiereTrackType="Stereo">
													<enabled>TRUE</enabled>
													<locked>FALSE</locked>
													<filter>
														<effect>
															<name>Audio Levels</name>
															<effectid>audiolevels</effectid>
															<effectcategory>audiolevels</effectcategory>
															<effecttype>audiolevels</effecttype>
															<mediatype>audio</mediatype>
															<parameter authoringApp="PremierePro">
																<parameterid>level</parameterid>
																<name>Level</name>
																<valuemin>0</valuemin>
																<valuemax>3.98109</valuemax>
																<value>0.706272</value>
															</parameter>
														</effect>
													</filter>
													<outputchannelindex>2</outputchannelindex>
												</track>
											</audio>
										</media>
										<timecode>
											<rate>
												<timebase>30</timebase>
												<ntsc>TRUE</ntsc>
											</rate>
											<string>00:00:00:00</string>
											<frame>0</frame>
											<displayformat>NDF</displayformat>
										</timecode>
										<labels>
											<label2>Forest</label2>
										</labels>
										<logginginfo>
											<description></description>
											<scene></scene>
											<shottake></shottake>
											<lognote></lognote>
											<good></good>
											<originalvideofilename></originalvideofilename>
											<originalaudiofilename></originalaudiofilename>
										</logginginfo>
									</sequence>
									<sequence id="sequence-54" TL.SQAudioVisibleBase="0" TL.SQVideoVisibleBase="0" TL.SQVisibleBaseTime="0" TL.SQAVDividerPosition="0.5" TL.SQHideShyTracks="0" TL.SQHeaderWidth="236" TL.SQDataTrackViewControlState="0" Monitor.ProgramZoomOut="19782207244800" Monitor.ProgramZoomIn="0" TL.SQTimePerPixel="0.13818516812528489" AM.TrackVScrollPosition="0" AM.TrackScrollPosition="0" MZ.EditLine="3034288857600" MZ.Sequence.PreviewFrameSizeHeight="1080" MZ.Sequence.PreviewFrameSizeWidth="1920" MZ.Sequence.AudioTimeDisplayFormat="200" MZ.Sequence.PreviewRenderingClassID="1297106761" MZ.Sequence.PreviewRenderingPresetCodec="1297107278" MZ.Sequence.PreviewRenderingPresetPath="EncoderPresets/SequencePreview/795454d9-d3c2-429d-9474-923ab13b7018/I-Frame Only MPEG.epr" MZ.Sequence.PreviewUseMaxRenderQuality="false" MZ.Sequence.PreviewUseMaxBitDepth="false" MZ.Sequence.EditingModeGUID="795454d9-d3c2-429d-9474-923ab13b7018" MZ.Sequence.VideoTimeDisplayFormat="103" MZ.WorkOutPoint="24477726873600" MZ.WorkInPoint="0" explodedTracks="true">
										<uuid>302a1bd9-6a2c-4673-8144-d5c756531fdd</uuid>
										<duration>2334</duration>
										<rate>
											<timebase>30</timebase>
											<ntsc>TRUE</ntsc>
										</rate>
										<out>2334</out>
										<name>DIY_cornelius_creations_1.5</name>
										<media>
											<video>
												<format>
													<samplecharacteristics>
														<rate>
															<timebase>30</timebase>
															<ntsc>TRUE</ntsc>
														</rate>
														<codec>
															<name>Apple ProRes 422</name>
															<appspecificdata>
																<appname>Final Cut Pro</appname>
																<appmanufacturer>Apple Inc.</appmanufacturer>
																<appversion>7.0</appversion>
																<data>
																	<qtcodec>
																		<codecname>Apple ProRes 422</codecname>
																		<codectypename>Apple ProRes 422</codectypename>
																		<codectypecode>apcn</codectypecode>
																		<codecvendorcode>appl</codecvendorcode>
																		<spatialquality>1024</spatialquality>
																		<temporalquality>0</temporalquality>
																		<keyframerate>0</keyframerate>
																		<datarate>0</datarate>
																	</qtcodec>
																</data>
															</appspecificdata>
														</codec>
														<width>1920</width>
														<height>1080</height>
														<anamorphic>FALSE</anamorphic>
														<pixelaspectratio>square</pixelaspectratio>
														<fielddominance>none</fielddominance>
														<colordepth>24</colordepth>
													</samplecharacteristics>
												</format>
												<track TL.SQTrackShy="0" TL.SQTrackExpandedHeight="25" TL.SQTrackExpanded="0" MZ.TrackTargeted="1">
													<clipitem id="clipitem-479">
														<masterclipid>masterclip-154</masterclipid>
														<name>cornelius_creations_B-K0yVODJgb_IG.mp4</name>
														<enabled>TRUE</enabled>
														<duration>3366</duration>
														<rate>
															<timebase>30</timebase>
															<ntsc>TRUE</ntsc>
														</rate>
														<start>0</start>
														<end>220</end>
														<in>119</in>
														<out>339</out>
														<pproTicksIn>1008604396800</pproTicksIn>
														<pproTicksOut>2873251180800</pproTicksOut>
														<alphatype>none</alphatype>
														<pixelaspectratio>square</pixelaspectratio>
														<anamorphic>FALSE</anamorphic>
														<file id="file-149">
															<name>cornelius_creations_B-K0yVODJgb_IG.mp4</name>
															<pathurl>file://localhost/Volumes/Satisfactum%20Satisfactorum/00_Hub%20World/3_Raw%20Files/Clip%20Providers/cornelius_creations/cornelius_creations_B-K0yVODJgb_IG.mp4</pathurl>
															<rate>
																<timebase>30</timebase>
																<ntsc>FALSE</ntsc>
															</rate>
															<duration>3370</duration>
															<timecode>
																<rate>
																	<timebase>30</timebase>
																	<ntsc>FALSE</ntsc>
																</rate>
																<string>00:00:00:00</string>
																<frame>0</frame>
																<displayformat>NDF</displayformat>
															</timecode>
															<media>
																<video>
																	<samplecharacteristics>
																		<rate>
																			<timebase>30</timebase>
																			<ntsc>FALSE</ntsc>
																		</rate>
																		<width>1280</width>
																		<height>720</height>
																		<anamorphic>FALSE</anamorphic>
																		<pixelaspectratio>square</pixelaspectratio>
																		<fielddominance>none</fielddominance>
																	</samplecharacteristics>
																</video>
																<audio>
																	<samplecharacteristics>
																		<depth>16</depth>
																		<samplerate>44100</samplerate>
																	</samplecharacteristics>
																	<channelcount>2</channelcount>
																</audio>
															</media>
														</file>
														<filter>
															<effect>
																<name>Basic Motion</name>
																<effectid>basic</effectid>
																<effectcategory>motion</effectcategory>
																<effecttype>motion</effecttype>
																<mediatype>video</mediatype>
																<pproBypass>false</pproBypass>
																<parameter authoringApp="PremierePro">
																	<parameterid>scale</parameterid>
																	<name>Scale</name>
																	<valuemin>0</valuemin>
																	<valuemax>1000</valuemax>
																	<value>150</value>
																</parameter>
																<parameter authoringApp="PremierePro">
																	<parameterid>rotation</parameterid>
																	<name>Rotation</name>
																	<valuemin>-8640</valuemin>
																	<valuemax>8640</valuemax>
																	<value>0</value>
																</parameter>
																<parameter authoringApp="PremierePro">
																	<parameterid>center</parameterid>
																	<name>Center</name>
																	<value>
																		<horiz>0</horiz>
																		<vert>0</vert>
																	</value>
																</parameter>
																<parameter authoringApp="PremierePro">
																	<parameterid>centerOffset</parameterid>
																	<name>Anchor Point</name>
																	<value>
																		<horiz>0</horiz>
																		<vert>0</vert>
																	</value>
																</parameter>
																<parameter authoringApp="PremierePro">
																	<parameterid>antiflicker</parameterid>
																	<name>Anti-flicker Filter</name>
																	<valuemin>0.0</valuemin>
																	<valuemax>1.0</valuemax>
																	<value>0</value>
																</parameter>
															</effect>
														</filter>
														<link>
															<linkclipref>clipitem-479</linkclipref>
															<mediatype>video</mediatype>
															<trackindex>1</trackindex>
															<clipindex>1</clipindex>
														</link>
														<link>
															<linkclipref>clipitem-486</linkclipref>
															<mediatype>audio</mediatype>
															<trackindex>1</trackindex>
															<clipindex>2</clipindex>
															<groupindex>1</groupindex>
														</link>
														<link>
															<linkclipref>clipitem-491</linkclipref>
															<mediatype>audio</mediatype>
															<trackindex>2</trackindex>
															<clipindex>2</clipindex>
															<groupindex>1</groupindex>
														</link>
														<logginginfo>
															<description></description>
															<scene></scene>
															<shottake></shottake>
															<lognote></lognote>
															<good></good>
															<originalvideofilename></originalvideofilename>
															<originalaudiofilename></originalaudiofilename>
														</logginginfo>
														<colorinfo>
															<lut></lut>
															<lut1></lut1>
															<asc_sop></asc_sop>
															<asc_sat></asc_sat>
															<lut2></lut2>
														</colorinfo>
														<labels>
															<label2>Iris</label2>
														</labels>
													</clipitem>
													<clipitem id="clipitem-480">
														<masterclipid>masterclip-154</masterclipid>
														<name>cornelius_creations_B-K0yVODJgb_IG.mp4</name>
														<enabled>TRUE</enabled>
														<duration>3366</duration>
														<rate>
															<timebase>30</timebase>
															<ntsc>TRUE</ntsc>
														</rate>
														<start>220</start>
														<end>640</end>
														<in>417</in>
														<out>837</out>
														<pproTicksIn>3534353222400</pproTicksIn>
														<pproTicksOut>7094133446400</pproTicksOut>
														<alphatype>none</alphatype>
														<file id="file-149"/>
														<filter>
															<effect>
																<name>Basic Motion</name>
																<effectid>basic</effectid>
																<effectcategory>motion</effectcategory>
																<effecttype>motion</effecttype>
																<mediatype>video</mediatype>
																<pproBypass>false</pproBypass>
																<parameter authoringApp="PremierePro">
																	<parameterid>scale</parameterid>
																	<name>Scale</name>
																	<valuemin>0</valuemin>
																	<valuemax>1000</valuemax>
																	<value>150</value>
																</parameter>
																<parameter authoringApp="PremierePro">
																	<parameterid>rotation</parameterid>
																	<name>Rotation</name>
																	<valuemin>-8640</valuemin>
																	<valuemax>8640</valuemax>
																	<value>0</value>
																</parameter>
																<parameter authoringApp="PremierePro">
																	<parameterid>center</parameterid>
																	<name>Center</name>
																	<value>
																		<horiz>0</horiz>
																		<vert>0</vert>
																	</value>
																</parameter>
																<parameter authoringApp="PremierePro">
																	<parameterid>centerOffset</parameterid>
																	<name>Anchor Point</name>
																	<value>
																		<horiz>0</horiz>
																		<vert>0</vert>
																	</value>
																</parameter>
																<parameter authoringApp="PremierePro">
																	<parameterid>antiflicker</parameterid>
																	<name>Anti-flicker Filter</name>
																	<valuemin>0.0</valuemin>
																	<valuemax>1.0</valuemax>
																	<value>0</value>
																</parameter>
															</effect>
														</filter>
														<link>
															<linkclipref>clipitem-480</linkclipref>
															<mediatype>video</mediatype>
															<trackindex>1</trackindex>
															<clipindex>2</clipindex>
														</link>
														<link>
															<linkclipref>clipitem-487</linkclipref>
															<mediatype>audio</mediatype>
															<trackindex>1</trackindex>
															<clipindex>4</clipindex>
															<groupindex>1</groupindex>
														</link>
														<link>
															<linkclipref>clipitem-492</linkclipref>
															<mediatype>audio</mediatype>
															<trackindex>2</trackindex>
															<clipindex>4</clipindex>
															<groupindex>1</groupindex>
														</link>
														<logginginfo>
															<description></description>
															<scene></scene>
															<shottake></shottake>
															<lognote></lognote>
															<good></good>
															<originalvideofilename></originalvideofilename>
															<originalaudiofilename></originalaudiofilename>
														</logginginfo>
														<colorinfo>
															<lut></lut>
															<lut1></lut1>
															<asc_sop></asc_sop>
															<asc_sat></asc_sat>
															<lut2></lut2>
														</colorinfo>
														<labels>
															<label2>Iris</label2>
														</labels>
													</clipitem>
													<clipitem id="clipitem-481">
														<masterclipid>masterclip-154</masterclipid>
														<name>cornelius_creations_B-K0yVODJgb_IG.mp4</name>
														<enabled>TRUE</enabled>
														<duration>3366</duration>
														<rate>
															<timebase>30</timebase>
															<ntsc>TRUE</ntsc>
														</rate>
														<start>640</start>
														<end>865</end>
														<in>982</in>
														<out>1207</out>
														<pproTicksIn>8323105190400</pproTicksIn>
														<pproTicksOut>10230130310400</pproTicksOut>
														<alphatype>none</alphatype>
														<file id="file-149"/>
														<filter>
															<effect>
																<name>Basic Motion</name>
																<effectid>basic</effectid>
																<effectcategory>motion</effectcategory>
																<effecttype>motion</effecttype>
																<mediatype>video</mediatype>
																<pproBypass>false</pproBypass>
																<parameter authoringApp="PremierePro">
																	<parameterid>scale</parameterid>
																	<name>Scale</name>
																	<valuemin>0</valuemin>
																	<valuemax>1000</valuemax>
																	<value>150</value>
																</parameter>
																<parameter authoringApp="PremierePro">
																	<parameterid>rotation</parameterid>
																	<name>Rotation</name>
																	<valuemin>-8640</valuemin>
																	<valuemax>8640</valuemax>
																	<value>0</value>
																</parameter>
																<parameter authoringApp="PremierePro">
																	<parameterid>center</parameterid>
																	<name>Center</name>
																	<value>
																		<horiz>0</horiz>
																		<vert>0</vert>
																	</value>
																</parameter>
																<parameter authoringApp="PremierePro">
																	<parameterid>centerOffset</parameterid>
																	<name>Anchor Point</name>
																	<value>
																		<horiz>0</horiz>
																		<vert>0</vert>
																	</value>
																</parameter>
																<parameter authoringApp="PremierePro">
																	<parameterid>antiflicker</parameterid>
																	<name>Anti-flicker Filter</name>
																	<valuemin>0.0</valuemin>
																	<valuemax>1.0</valuemax>
																	<value>0</value>
																</parameter>
															</effect>
														</filter>
														<link>
															<linkclipref>clipitem-481</linkclipref>
															<mediatype>video</mediatype>
															<trackindex>1</trackindex>
															<clipindex>3</clipindex>
														</link>
														<link>
															<linkclipref>clipitem-488</linkclipref>
															<mediatype>audio</mediatype>
															<trackindex>1</trackindex>
															<clipindex>6</clipindex>
															<groupindex>1</groupindex>
														</link>
														<link>
															<linkclipref>clipitem-493</linkclipref>
															<mediatype>audio</mediatype>
															<trackindex>2</trackindex>
															<clipindex>6</clipindex>
															<groupindex>1</groupindex>
														</link>
														<logginginfo>
															<description></description>
															<scene></scene>
															<shottake></shottake>
															<lognote></lognote>
															<good></good>
															<originalvideofilename></originalvideofilename>
															<originalaudiofilename></originalaudiofilename>
														</logginginfo>
														<colorinfo>
															<lut></lut>
															<lut1></lut1>
															<asc_sop></asc_sop>
															<asc_sat></asc_sat>
															<lut2></lut2>
														</colorinfo>
														<labels>
															<label2>Iris</label2>
														</labels>
													</clipitem>
													<clipitem id="clipitem-482">
														<masterclipid>masterclip-154</masterclipid>
														<name>cornelius_creations_B-K0yVODJgb_IG.mp4</name>
														<enabled>TRUE</enabled>
														<duration>3366</duration>
														<rate>
															<timebase>30</timebase>
															<ntsc>TRUE</ntsc>
														</rate>
														<start>865</start>
														<end>1095</end>
														<in>1311</in>
														<out>1541</out>
														<pproTicksIn>11111599699200</pproTicksIn>
														<pproTicksOut>13061003155200</pproTicksOut>
														<alphatype>none</alphatype>
														<file id="file-149"/>
														<filter>
															<effect>
																<name>Basic Motion</name>
																<effectid>basic</effectid>
																<effectcategory>motion</effectcategory>
																<effecttype>motion</effecttype>
																<mediatype>video</mediatype>
																<pproBypass>false</pproBypass>
																<parameter authoringApp="PremierePro">
																	<parameterid>scale</parameterid>
																	<name>Scale</name>
																	<valuemin>0</valuemin>
																	<valuemax>1000</valuemax>
																	<value>150</value>
																</parameter>
																<parameter authoringApp="PremierePro">
																	<parameterid>rotation</parameterid>
																	<name>Rotation</name>
																	<valuemin>-8640</valuemin>
																	<valuemax>8640</valuemax>
																	<value>0</value>
																</parameter>
																<parameter authoringApp="PremierePro">
																	<parameterid>center</parameterid>
																	<name>Center</name>
																	<value>
																		<horiz>0</horiz>
																		<vert>0</vert>
																	</value>
																</parameter>
																<parameter authoringApp="PremierePro">
																	<parameterid>centerOffset</parameterid>
																	<name>Anchor Point</name>
																	<value>
																		<horiz>0</horiz>
																		<vert>0</vert>
																	</value>
																</parameter>
																<parameter authoringApp="PremierePro">
																	<parameterid>antiflicker</parameterid>
																	<name>Anti-flicker Filter</name>
																	<valuemin>0.0</valuemin>
																	<valuemax>1.0</valuemax>
																	<value>0</value>
																</parameter>
															</effect>
														</filter>
														<link>
															<linkclipref>clipitem-482</linkclipref>
															<mediatype>video</mediatype>
															<trackindex>1</trackindex>
															<clipindex>4</clipindex>
														</link>
														<link>
															<linkclipref>clipitem-489</linkclipref>
															<mediatype>audio</mediatype>
															<trackindex>1</trackindex>
															<clipindex>8</clipindex>
															<groupindex>1</groupindex>
														</link>
														<link>
															<linkclipref>clipitem-494</linkclipref>
															<mediatype>audio</mediatype>
															<trackindex>2</trackindex>
															<clipindex>8</clipindex>
															<groupindex>1</groupindex>
														</link>
														<logginginfo>
															<description></description>
															<scene></scene>
															<shottake></shottake>
															<lognote></lognote>
															<good></good>
															<originalvideofilename></originalvideofilename>
															<originalaudiofilename></originalaudiofilename>
														</logginginfo>
														<colorinfo>
															<lut></lut>
															<lut1></lut1>
															<asc_sop></asc_sop>
															<asc_sat></asc_sat>
															<lut2></lut2>
														</colorinfo>
														<labels>
															<label2>Iris</label2>
														</labels>
													</clipitem>
													<clipitem id="clipitem-483">
														<masterclipid>masterclip-154</masterclipid>
														<name>cornelius_creations_B-K0yVODJgb_IG.mp4</name>
														<enabled>TRUE</enabled>
														<duration>3366</duration>
														<rate>
															<timebase>30</timebase>
															<ntsc>TRUE</ntsc>
														</rate>
														<start>1095</start>
														<end>2334</end>
														<in>1901</in>
														<out>3140</out>
														<pproTicksIn>16112243347200</pproTicksIn>
														<pproTicksOut>26613595008000</pproTicksOut>
														<alphatype>none</alphatype>
														<file id="file-149"/>
														<filter>
															<effect>
																<name>Basic Motion</name>
																<effectid>basic</effectid>
																<effectcategory>motion</effectcategory>
																<effecttype>motion</effecttype>
																<mediatype>video</mediatype>
																<pproBypass>false</pproBypass>
																<parameter authoringApp="PremierePro">
																	<parameterid>scale</parameterid>
																	<name>Scale</name>
																	<valuemin>0</valuemin>
																	<valuemax>1000</valuemax>
																	<value>150</value>
																</parameter>
																<parameter authoringApp="PremierePro">
																	<parameterid>rotation</parameterid>
																	<name>Rotation</name>
																	<valuemin>-8640</valuemin>
																	<valuemax>8640</valuemax>
																	<value>0</value>
																</parameter>
																<parameter authoringApp="PremierePro">
																	<parameterid>center</parameterid>
																	<name>Center</name>
																	<value>
																		<horiz>0</horiz>
																		<vert>0</vert>
																	</value>
																</parameter>
																<parameter authoringApp="PremierePro">
																	<parameterid>centerOffset</parameterid>
																	<name>Anchor Point</name>
																	<value>
																		<horiz>0</horiz>
																		<vert>0</vert>
																	</value>
																</parameter>
																<parameter authoringApp="PremierePro">
																	<parameterid>antiflicker</parameterid>
																	<name>Anti-flicker Filter</name>
																	<valuemin>0.0</valuemin>
																	<valuemax>1.0</valuemax>
																	<value>0</value>
																</parameter>
															</effect>
														</filter>
														<link>
															<linkclipref>clipitem-483</linkclipref>
															<mediatype>video</mediatype>
															<trackindex>1</trackindex>
															<clipindex>5</clipindex>
														</link>
														<link>
															<linkclipref>clipitem-490</linkclipref>
															<mediatype>audio</mediatype>
															<trackindex>1</trackindex>
															<clipindex>10</clipindex>
															<groupindex>1</groupindex>
														</link>
														<link>
															<linkclipref>clipitem-495</linkclipref>
															<mediatype>audio</mediatype>
															<trackindex>2</trackindex>
															<clipindex>10</clipindex>
															<groupindex>1</groupindex>
														</link>
														<logginginfo>
															<description></description>
															<scene></scene>
															<shottake></shottake>
															<lognote></lognote>
															<good></good>
															<originalvideofilename></originalvideofilename>
															<originalaudiofilename></originalaudiofilename>
														</logginginfo>
														<colorinfo>
															<lut></lut>
															<lut1></lut1>
															<asc_sop></asc_sop>
															<asc_sat></asc_sat>
															<lut2></lut2>
														</colorinfo>
														<labels>
															<label2>Iris</label2>
														</labels>
													</clipitem>
													<enabled>TRUE</enabled>
													<locked>FALSE</locked>
												</track>
												<track TL.SQTrackShy="0" TL.SQTrackExpandedHeight="25" TL.SQTrackExpanded="0" MZ.TrackTargeted="0">
													<clipitem id="clipitem-484">
														<masterclipid>masterclip-43</masterclipid>
														<name>cornelius_creations</name>
														<enabled>TRUE</enabled>
														<duration>5844</duration>
														<rate>
															<timebase>30</timebase>
															<ntsc>TRUE</ntsc>
														</rate>
														<start>0</start>
														<end>2334</end>
														<in>0</in>
														<out>2334</out>
														<pproTicksIn>0</pproTicksIn>
														<pproTicksOut>19782207244800</pproTicksOut>
														<alphatype>straight</alphatype>
														<file id="file-43"/>
														<filter>
															<effect>
																<name>Basic Motion</name>
																<effectid>basic</effectid>
																<effectcategory>motion</effectcategory>
																<effecttype>motion</effecttype>
																<mediatype>video</mediatype>
																<pproBypass>false</pproBypass>
																<parameter authoringApp="PremierePro">
																	<parameterid>scale</parameterid>
																	<name>Scale</name>
																	<valuemin>0</valuemin>
																	<valuemax>1000</valuemax>
																	<value>150</value>
																</parameter>
																<parameter authoringApp="PremierePro">
																	<parameterid>rotation</parameterid>
																	<name>Rotation</name>
																	<valuemin>-8640</valuemin>
																	<valuemax>8640</valuemax>
																	<value>0</value>
																</parameter>
																<parameter authoringApp="PremierePro">
																	<parameterid>center</parameterid>
																	<name>Center</name>
																	<value>
																		<horiz>0</horiz>
																		<vert>0</vert>
																	</value>
																</parameter>
																<parameter authoringApp="PremierePro">
																	<parameterid>centerOffset</parameterid>
																	<name>Anchor Point</name>
																	<value>
																		<horiz>0</horiz>
																		<vert>0</vert>
																	</value>
																</parameter>
																<parameter authoringApp="PremierePro">
																	<parameterid>antiflicker</parameterid>
																	<name>Anti-flicker Filter</name>
																	<valuemin>0.0</valuemin>
																	<valuemax>1.0</valuemax>
																	<value>0</value>
																</parameter>
															</effect>
														</filter>
														<logginginfo>
															<description></description>
															<scene></scene>
															<shottake></shottake>
															<lognote></lognote>
															<good></good>
															<originalvideofilename></originalvideofilename>
															<originalaudiofilename></originalaudiofilename>
														</logginginfo>
														<colorinfo>
															<lut></lut>
															<lut1></lut1>
															<asc_sop></asc_sop>
															<asc_sat></asc_sat>
															<lut2></lut2>
														</colorinfo>
														<labels>
															<label2>Rose</label2>
														</labels>
													</clipitem>
													<enabled>TRUE</enabled>
													<locked>FALSE</locked>
												</track>
												<track TL.SQTrackShy="0" TL.SQTrackExpandedHeight="25" TL.SQTrackExpanded="0" MZ.TrackTargeted="0">
													<clipitem id="clipitem-485">
														<masterclipid>masterclip-106</masterclipid>
														<name>Bug and Lower Nest</name>
														<enabled>TRUE</enabled>
														<duration>14721</duration>
														<rate>
															<timebase>30</timebase>
															<ntsc>TRUE</ntsc>
														</rate>
														<start>0</start>
														<end>2334</end>
														<in>0</in>
														<out>2334</out>
														<pproTicksIn>0</pproTicksIn>
														<pproTicksOut>19782207244800</pproTicksOut>
														<sequence id="sequence-1"/>
														<labels>
															<label2>Cerulean</label2>
														</labels>
													</clipitem>
													<enabled>TRUE</enabled>
													<locked>FALSE</locked>
												</track>
												<track TL.SQTrackShy="0" TL.SQTrackExpandedHeight="25" TL.SQTrackExpanded="0" MZ.TrackTargeted="0">
													<enabled>TRUE</enabled>
													<locked>FALSE</locked>
												</track>
											</video>
											<audio>
												<numOutputChannels>2</numOutputChannels>
												<format>
													<samplecharacteristics>
														<depth>16</depth>
														<samplerate>44100</samplerate>
													</samplecharacteristics>
												</format>
												<outputs>
													<group>
														<index>1</index>
														<numchannels>1</numchannels>
														<downmix>0</downmix>
														<channel>
															<index>1</index>
														</channel>
													</group>
													<group>
														<index>2</index>
														<numchannels>1</numchannels>
														<downmix>0</downmix>
														<channel>
															<index>2</index>
														</channel>
													</group>
												</outputs>
												<track TL.SQTrackAudioKeyframeStyle="0" TL.SQTrackShy="0" TL.SQTrackExpandedHeight="25" TL.SQTrackExpanded="0" MZ.TrackTargeted="1" PannerCurrentValue="0.5" PannerIsInverted="true" PannerStartKeyframe="-91445760000000000,0.5,0,0,0,0,0,0" PannerName="Balance" currentExplodedTrackIndex="0" totalExplodedTrackCount="2" premiereTrackType="Stereo">
													<transitionitem>
														<start>0</start>
														<end>30</end>
														<pproTicksIn>0</pproTicksIn>
														<pproTicksOut>254270016000</pproTicksOut>
														<alignment>start-black</alignment>
														<cutPointTicks>0</cutPointTicks>
														<rate>
															<timebase>30</timebase>
															<ntsc>TRUE</ntsc>
														</rate>
														<effect>
															<name>Cross Fade (+3dB)</name>
															<effectid>KGAudioTransCrossFade3dB</effectid>
															<effecttype>transition</effecttype>
															<mediatype>audio</mediatype>
															<wipecode>0</wipecode>
															<wipeaccuracy>100</wipeaccuracy>
															<startratio>0</startratio>
															<endratio>1</endratio>
															<reverse>FALSE</reverse>
														</effect>
													</transitionitem>
													<clipitem id="clipitem-486" premiereChannelType="stereo">
														<masterclipid>masterclip-154</masterclipid>
														<name>cornelius_creations_B-K0yVODJgb_IG.mp4</name>
														<enabled>TRUE</enabled>
														<duration>3366</duration>
														<rate>
															<timebase>30</timebase>
															<ntsc>TRUE</ntsc>
														</rate>
														<start>-1</start>
														<end>-1</end>
														<in>119</in>
														<out>354</out>
														<pproTicksIn>1008604396800</pproTicksIn>
														<pproTicksOut>3000386188800</pproTicksOut>
														<file id="file-149"/>
														<sourcetrack>
															<mediatype>audio</mediatype>
															<trackindex>1</trackindex>
														</sourcetrack>
														<link>
															<linkclipref>clipitem-479</linkclipref>
															<mediatype>video</mediatype>
															<trackindex>1</trackindex>
															<clipindex>1</clipindex>
														</link>
														<link>
															<linkclipref>clipitem-486</linkclipref>
															<mediatype>audio</mediatype>
															<trackindex>1</trackindex>
															<clipindex>2</clipindex>
															<groupindex>1</groupindex>
														</link>
														<link>
															<linkclipref>clipitem-491</linkclipref>
															<mediatype>audio</mediatype>
															<trackindex>2</trackindex>
															<clipindex>2</clipindex>
															<groupindex>1</groupindex>
														</link>
														<logginginfo>
															<description></description>
															<scene></scene>
															<shottake></shottake>
															<lognote></lognote>
															<good></good>
															<originalvideofilename></originalvideofilename>
															<originalaudiofilename></originalaudiofilename>
														</logginginfo>
														<colorinfo>
															<lut></lut>
															<lut1></lut1>
															<asc_sop></asc_sop>
															<asc_sat></asc_sat>
															<lut2></lut2>
														</colorinfo>
														<labels>
															<label2>Iris</label2>
														</labels>
													</clipitem>
													<transitionitem>
														<start>205</start>
														<end>235</end>
														<pproTicksIn>1737511776000</pproTicksIn>
														<pproTicksOut>1991781792000</pproTicksOut>
														<alignment>center</alignment>
														<cutPointTicks>127135008000</cutPointTicks>
														<rate>
															<timebase>30</timebase>
															<ntsc>TRUE</ntsc>
														</rate>
														<effect>
															<name>Cross Fade (+3dB)</name>
															<effectid>KGAudioTransCrossFade3dB</effectid>
															<effecttype>transition</effecttype>
															<mediatype>audio</mediatype>
															<wipecode>0</wipecode>
															<wipeaccuracy>100</wipeaccuracy>
															<startratio>0</startratio>
															<endratio>1</endratio>
															<reverse>FALSE</reverse>
														</effect>
													</transitionitem>
													<clipitem id="clipitem-487" premiereChannelType="stereo">
														<masterclipid>masterclip-154</masterclipid>
														<name>cornelius_creations_B-K0yVODJgb_IG.mp4</name>
														<enabled>TRUE</enabled>
														<duration>3366</duration>
														<rate>
															<timebase>30</timebase>
															<ntsc>TRUE</ntsc>
														</rate>
														<start>-1</start>
														<end>-1</end>
														<in>402</in>
														<out>852</out>
														<pproTicksIn>3407218214400</pproTicksIn>
														<pproTicksOut>7221268454400</pproTicksOut>
														<file id="file-149"/>
														<sourcetrack>
															<mediatype>audio</mediatype>
															<trackindex>1</trackindex>
														</sourcetrack>
														<link>
															<linkclipref>clipitem-480</linkclipref>
															<mediatype>video</mediatype>
															<trackindex>1</trackindex>
															<clipindex>2</clipindex>
														</link>
														<link>
															<linkclipref>clipitem-487</linkclipref>
															<mediatype>audio</mediatype>
															<trackindex>1</trackindex>
															<clipindex>4</clipindex>
															<groupindex>1</groupindex>
														</link>
														<link>
															<linkclipref>clipitem-492</linkclipref>
															<mediatype>audio</mediatype>
															<trackindex>2</trackindex>
															<clipindex>4</clipindex>
															<groupindex>1</groupindex>
														</link>
														<logginginfo>
															<description></description>
															<scene></scene>
															<shottake></shottake>
															<lognote></lognote>
															<good></good>
															<originalvideofilename></originalvideofilename>
															<originalaudiofilename></originalaudiofilename>
														</logginginfo>
														<colorinfo>
															<lut></lut>
															<lut1></lut1>
															<asc_sop></asc_sop>
															<asc_sat></asc_sat>
															<lut2></lut2>
														</colorinfo>
														<labels>
															<label2>Iris</label2>
														</labels>
													</clipitem>
													<transitionitem>
														<start>625</start>
														<end>655</end>
														<pproTicksIn>5297292000000</pproTicksIn>
														<pproTicksOut>5551562016000</pproTicksOut>
														<alignment>center</alignment>
														<cutPointTicks>127135008000</cutPointTicks>
														<rate>
															<timebase>30</timebase>
															<ntsc>TRUE</ntsc>
														</rate>
														<effect>
															<name>Cross Fade (+3dB)</name>
															<effectid>KGAudioTransCrossFade3dB</effectid>
															<effecttype>transition</effecttype>
															<mediatype>audio</mediatype>
															<wipecode>0</wipecode>
															<wipeaccuracy>100</wipeaccuracy>
															<startratio>0</startratio>
															<endratio>1</endratio>
															<reverse>FALSE</reverse>
														</effect>
													</transitionitem>
													<clipitem id="clipitem-488" premiereChannelType="stereo">
														<masterclipid>masterclip-154</masterclipid>
														<name>cornelius_creations_B-K0yVODJgb_IG.mp4</name>
														<enabled>TRUE</enabled>
														<duration>3366</duration>
														<rate>
															<timebase>30</timebase>
															<ntsc>TRUE</ntsc>
														</rate>
														<start>-1</start>
														<end>-1</end>
														<in>967</in>
														<out>1222</out>
														<pproTicksIn>8195970182400</pproTicksIn>
														<pproTicksOut>10357265318400</pproTicksOut>
														<file id="file-149"/>
														<sourcetrack>
															<mediatype>audio</mediatype>
															<trackindex>1</trackindex>
														</sourcetrack>
														<link>
															<linkclipref>clipitem-481</linkclipref>
															<mediatype>video</mediatype>
															<trackindex>1</trackindex>
															<clipindex>3</clipindex>
														</link>
														<link>
															<linkclipref>clipitem-488</linkclipref>
															<mediatype>audio</mediatype>
															<trackindex>1</trackindex>
															<clipindex>6</clipindex>
															<groupindex>1</groupindex>
														</link>
														<link>
															<linkclipref>clipitem-493</linkclipref>
															<mediatype>audio</mediatype>
															<trackindex>2</trackindex>
															<clipindex>6</clipindex>
															<groupindex>1</groupindex>
														</link>
														<logginginfo>
															<description></description>
															<scene></scene>
															<shottake></shottake>
															<lognote></lognote>
															<good></good>
															<originalvideofilename></originalvideofilename>
															<originalaudiofilename></originalaudiofilename>
														</logginginfo>
														<colorinfo>
															<lut></lut>
															<lut1></lut1>
															<asc_sop></asc_sop>
															<asc_sat></asc_sat>
															<lut2></lut2>
														</colorinfo>
														<labels>
															<label2>Iris</label2>
														</labels>
													</clipitem>
													<transitionitem>
														<start>850</start>
														<end>880</end>
														<pproTicksIn>7204317120000</pproTicksIn>
														<pproTicksOut>7458587136000</pproTicksOut>
														<alignment>center</alignment>
														<cutPointTicks>127135008000</cutPointTicks>
														<rate>
															<timebase>30</timebase>
															<ntsc>TRUE</ntsc>
														</rate>
														<effect>
															<name>Cross Fade (+3dB)</name>
															<effectid>KGAudioTransCrossFade3dB</effectid>
															<effecttype>transition</effecttype>
															<mediatype>audio</mediatype>
															<wipecode>0</wipecode>
															<wipeaccuracy>100</wipeaccuracy>
															<startratio>0</startratio>
															<endratio>1</endratio>
															<reverse>FALSE</reverse>
														</effect>
													</transitionitem>
													<clipitem id="clipitem-489" premiereChannelType="stereo">
														<masterclipid>masterclip-154</masterclipid>
														<name>cornelius_creations_B-K0yVODJgb_IG.mp4</name>
														<enabled>TRUE</enabled>
														<duration>3366</duration>
														<rate>
															<timebase>30</timebase>
															<ntsc>TRUE</ntsc>
														</rate>
														<start>-1</start>
														<end>-1</end>
														<in>1296</in>
														<out>1556</out>
														<pproTicksIn>10984464691200</pproTicksIn>
														<pproTicksOut>13188138163200</pproTicksOut>
														<file id="file-149"/>
														<sourcetrack>
															<mediatype>audio</mediatype>
															<trackindex>1</trackindex>
														</sourcetrack>
														<link>
															<linkclipref>clipitem-482</linkclipref>
															<mediatype>video</mediatype>
															<trackindex>1</trackindex>
															<clipindex>4</clipindex>
														</link>
														<link>
															<linkclipref>clipitem-489</linkclipref>
															<mediatype>audio</mediatype>
															<trackindex>1</trackindex>
															<clipindex>8</clipindex>
															<groupindex>1</groupindex>
														</link>
														<link>
															<linkclipref>clipitem-494</linkclipref>
															<mediatype>audio</mediatype>
															<trackindex>2</trackindex>
															<clipindex>8</clipindex>
															<groupindex>1</groupindex>
														</link>
														<logginginfo>
															<description></description>
															<scene></scene>
															<shottake></shottake>
															<lognote></lognote>
															<good></good>
															<originalvideofilename></originalvideofilename>
															<originalaudiofilename></originalaudiofilename>
														</logginginfo>
														<colorinfo>
															<lut></lut>
															<lut1></lut1>
															<asc_sop></asc_sop>
															<asc_sat></asc_sat>
															<lut2></lut2>
														</colorinfo>
														<labels>
															<label2>Iris</label2>
														</labels>
													</clipitem>
													<transitionitem>
														<start>1080</start>
														<end>1110</end>
														<pproTicksIn>9153720576000</pproTicksIn>
														<pproTicksOut>9407990592000</pproTicksOut>
														<alignment>center</alignment>
														<cutPointTicks>127135008000</cutPointTicks>
														<rate>
															<timebase>30</timebase>
															<ntsc>TRUE</ntsc>
														</rate>
														<effect>
															<name>Cross Fade (+3dB)</name>
															<effectid>KGAudioTransCrossFade3dB</effectid>
															<effecttype>transition</effecttype>
															<mediatype>audio</mediatype>
															<wipecode>0</wipecode>
															<wipeaccuracy>100</wipeaccuracy>
															<startratio>0</startratio>
															<endratio>1</endratio>
															<reverse>FALSE</reverse>
														</effect>
													</transitionitem>
													<clipitem id="clipitem-490" premiereChannelType="stereo">
														<masterclipid>masterclip-154</masterclipid>
														<name>cornelius_creations_B-K0yVODJgb_IG.mp4</name>
														<enabled>TRUE</enabled>
														<duration>3366</duration>
														<rate>
															<timebase>30</timebase>
															<ntsc>TRUE</ntsc>
														</rate>
														<start>-1</start>
														<end>-1</end>
														<in>1886</in>
														<out>3140</out>
														<pproTicksIn>15985108339200</pproTicksIn>
														<pproTicksOut>26613595008000</pproTicksOut>
														<file id="file-149"/>
														<sourcetrack>
															<mediatype>audio</mediatype>
															<trackindex>1</trackindex>
														</sourcetrack>
														<link>
															<linkclipref>clipitem-483</linkclipref>
															<mediatype>video</mediatype>
															<trackindex>1</trackindex>
															<clipindex>5</clipindex>
														</link>
														<link>
															<linkclipref>clipitem-490</linkclipref>
															<mediatype>audio</mediatype>
															<trackindex>1</trackindex>
															<clipindex>10</clipindex>
															<groupindex>1</groupindex>
														</link>
														<link>
															<linkclipref>clipitem-495</linkclipref>
															<mediatype>audio</mediatype>
															<trackindex>2</trackindex>
															<clipindex>10</clipindex>
															<groupindex>1</groupindex>
														</link>
														<logginginfo>
															<description></description>
															<scene></scene>
															<shottake></shottake>
															<lognote></lognote>
															<good></good>
															<originalvideofilename></originalvideofilename>
															<originalaudiofilename></originalaudiofilename>
														</logginginfo>
														<colorinfo>
															<lut></lut>
															<lut1></lut1>
															<asc_sop></asc_sop>
															<asc_sat></asc_sat>
															<lut2></lut2>
														</colorinfo>
														<labels>
															<label2>Iris</label2>
														</labels>
													</clipitem>
													<transitionitem>
														<start>2304</start>
														<end>2334</end>
														<pproTicksIn>19527937228800</pproTicksIn>
														<pproTicksOut>19782207244800</pproTicksOut>
														<alignment>end-black</alignment>
														<cutPointTicks>254270016000</cutPointTicks>
														<rate>
															<timebase>30</timebase>
															<ntsc>TRUE</ntsc>
														</rate>
														<effect>
															<name>Cross Fade (+3dB)</name>
															<effectid>KGAudioTransCrossFade3dB</effectid>
															<effecttype>transition</effecttype>
															<mediatype>audio</mediatype>
															<wipecode>0</wipecode>
															<wipeaccuracy>100</wipeaccuracy>
															<startratio>0</startratio>
															<endratio>1</endratio>
															<reverse>FALSE</reverse>
														</effect>
													</transitionitem>
													<enabled>TRUE</enabled>
													<locked>FALSE</locked>
													<filter>
														<effect>
															<name>Audio Levels</name>
															<effectid>audiolevels</effectid>
															<effectcategory>audiolevels</effectcategory>
															<effecttype>audiolevels</effecttype>
															<mediatype>audio</mediatype>
															<parameter authoringApp="PremierePro">
																<parameterid>level</parameterid>
																<name>Level</name>
																<valuemin>0</valuemin>
																<valuemax>3.98109</valuemax>
																<value>0.706272</value>
															</parameter>
														</effect>
													</filter>
													<outputchannelindex>1</outputchannelindex>
												</track>
												<track TL.SQTrackAudioKeyframeStyle="0" TL.SQTrackShy="0" TL.SQTrackExpandedHeight="25" TL.SQTrackExpanded="0" MZ.TrackTargeted="1" PannerCurrentValue="0.5" PannerIsInverted="true" PannerStartKeyframe="-91445760000000000,0.5,0,0,0,0,0,0" PannerName="Balance" currentExplodedTrackIndex="1" totalExplodedTrackCount="2" premiereTrackType="Stereo">
													<transitionitem>
														<start>0</start>
														<end>30</end>
														<pproTicksIn>0</pproTicksIn>
														<pproTicksOut>254270016000</pproTicksOut>
														<alignment>start-black</alignment>
														<cutPointTicks>0</cutPointTicks>
														<rate>
															<timebase>30</timebase>
															<ntsc>TRUE</ntsc>
														</rate>
														<effect>
															<name>Cross Fade (+3dB)</name>
															<effectid>KGAudioTransCrossFade3dB</effectid>
															<effecttype>transition</effecttype>
															<mediatype>audio</mediatype>
															<wipecode>0</wipecode>
															<wipeaccuracy>100</wipeaccuracy>
															<startratio>0</startratio>
															<endratio>1</endratio>
															<reverse>FALSE</reverse>
														</effect>
													</transitionitem>
													<clipitem id="clipitem-491" premiereChannelType="stereo">
														<masterclipid>masterclip-154</masterclipid>
														<name>cornelius_creations_B-K0yVODJgb_IG.mp4</name>
														<enabled>TRUE</enabled>
														<duration>3366</duration>
														<rate>
															<timebase>30</timebase>
															<ntsc>TRUE</ntsc>
														</rate>
														<start>-1</start>
														<end>-1</end>
														<in>119</in>
														<out>354</out>
														<pproTicksIn>1008604396800</pproTicksIn>
														<pproTicksOut>3000386188800</pproTicksOut>
														<file id="file-149"/>
														<sourcetrack>
															<mediatype>audio</mediatype>
															<trackindex>2</trackindex>
														</sourcetrack>
														<link>
															<linkclipref>clipitem-479</linkclipref>
															<mediatype>video</mediatype>
															<trackindex>1</trackindex>
															<clipindex>1</clipindex>
														</link>
														<link>
															<linkclipref>clipitem-486</linkclipref>
															<mediatype>audio</mediatype>
															<trackindex>1</trackindex>
															<clipindex>2</clipindex>
															<groupindex>1</groupindex>
														</link>
														<link>
															<linkclipref>clipitem-491</linkclipref>
															<mediatype>audio</mediatype>
															<trackindex>2</trackindex>
															<clipindex>2</clipindex>
															<groupindex>1</groupindex>
														</link>
														<logginginfo>
															<description></description>
															<scene></scene>
															<shottake></shottake>
															<lognote></lognote>
															<good></good>
															<originalvideofilename></originalvideofilename>
															<originalaudiofilename></originalaudiofilename>
														</logginginfo>
														<colorinfo>
															<lut></lut>
															<lut1></lut1>
															<asc_sop></asc_sop>
															<asc_sat></asc_sat>
															<lut2></lut2>
														</colorinfo>
														<labels>
															<label2>Iris</label2>
														</labels>
													</clipitem>
													<transitionitem>
														<start>205</start>
														<end>235</end>
														<pproTicksIn>1737511776000</pproTicksIn>
														<pproTicksOut>1991781792000</pproTicksOut>
														<alignment>center</alignment>
														<cutPointTicks>127135008000</cutPointTicks>
														<rate>
															<timebase>30</timebase>
															<ntsc>TRUE</ntsc>
														</rate>
														<effect>
															<name>Cross Fade (+3dB)</name>
															<effectid>KGAudioTransCrossFade3dB</effectid>
															<effecttype>transition</effecttype>
															<mediatype>audio</mediatype>
															<wipecode>0</wipecode>
															<wipeaccuracy>100</wipeaccuracy>
															<startratio>0</startratio>
															<endratio>1</endratio>
															<reverse>FALSE</reverse>
														</effect>
													</transitionitem>
													<clipitem id="clipitem-492" premiereChannelType="stereo">
														<masterclipid>masterclip-154</masterclipid>
														<name>cornelius_creations_B-K0yVODJgb_IG.mp4</name>
														<enabled>TRUE</enabled>
														<duration>3366</duration>
														<rate>
															<timebase>30</timebase>
															<ntsc>TRUE</ntsc>
														</rate>
														<start>-1</start>
														<end>-1</end>
														<in>402</in>
														<out>852</out>
														<pproTicksIn>3407218214400</pproTicksIn>
														<pproTicksOut>7221268454400</pproTicksOut>
														<file id="file-149"/>
														<sourcetrack>
															<mediatype>audio</mediatype>
															<trackindex>2</trackindex>
														</sourcetrack>
														<link>
															<linkclipref>clipitem-480</linkclipref>
															<mediatype>video</mediatype>
															<trackindex>1</trackindex>
															<clipindex>2</clipindex>
														</link>
														<link>
															<linkclipref>clipitem-487</linkclipref>
															<mediatype>audio</mediatype>
															<trackindex>1</trackindex>
															<clipindex>4</clipindex>
															<groupindex>1</groupindex>
														</link>
														<link>
															<linkclipref>clipitem-492</linkclipref>
															<mediatype>audio</mediatype>
															<trackindex>2</trackindex>
															<clipindex>4</clipindex>
															<groupindex>1</groupindex>
														</link>
														<logginginfo>
															<description></description>
															<scene></scene>
															<shottake></shottake>
															<lognote></lognote>
															<good></good>
															<originalvideofilename></originalvideofilename>
															<originalaudiofilename></originalaudiofilename>
														</logginginfo>
														<colorinfo>
															<lut></lut>
															<lut1></lut1>
															<asc_sop></asc_sop>
															<asc_sat></asc_sat>
															<lut2></lut2>
														</colorinfo>
														<labels>
															<label2>Iris</label2>
														</labels>
													</clipitem>
													<transitionitem>
														<start>625</start>
														<end>655</end>
														<pproTicksIn>5297292000000</pproTicksIn>
														<pproTicksOut>5551562016000</pproTicksOut>
														<alignment>center</alignment>
														<cutPointTicks>127135008000</cutPointTicks>
														<rate>
															<timebase>30</timebase>
															<ntsc>TRUE</ntsc>
														</rate>
														<effect>
															<name>Cross Fade (+3dB)</name>
															<effectid>KGAudioTransCrossFade3dB</effectid>
															<effecttype>transition</effecttype>
															<mediatype>audio</mediatype>
															<wipecode>0</wipecode>
															<wipeaccuracy>100</wipeaccuracy>
															<startratio>0</startratio>
															<endratio>1</endratio>
															<reverse>FALSE</reverse>
														</effect>
													</transitionitem>
													<clipitem id="clipitem-493" premiereChannelType="stereo">
														<masterclipid>masterclip-154</masterclipid>
														<name>cornelius_creations_B-K0yVODJgb_IG.mp4</name>
														<enabled>TRUE</enabled>
														<duration>3366</duration>
														<rate>
															<timebase>30</timebase>
															<ntsc>TRUE</ntsc>
														</rate>
														<start>-1</start>
														<end>-1</end>
														<in>967</in>
														<out>1222</out>
														<pproTicksIn>8195970182400</pproTicksIn>
														<pproTicksOut>10357265318400</pproTicksOut>
														<file id="file-149"/>
														<sourcetrack>
															<mediatype>audio</mediatype>
															<trackindex>2</trackindex>
														</sourcetrack>
														<link>
															<linkclipref>clipitem-481</linkclipref>
															<mediatype>video</mediatype>
															<trackindex>1</trackindex>
															<clipindex>3</clipindex>
														</link>
														<link>
															<linkclipref>clipitem-488</linkclipref>
															<mediatype>audio</mediatype>
															<trackindex>1</trackindex>
															<clipindex>6</clipindex>
															<groupindex>1</groupindex>
														</link>
														<link>
															<linkclipref>clipitem-493</linkclipref>
															<mediatype>audio</mediatype>
															<trackindex>2</trackindex>
															<clipindex>6</clipindex>
															<groupindex>1</groupindex>
														</link>
														<logginginfo>
															<description></description>
															<scene></scene>
															<shottake></shottake>
															<lognote></lognote>
															<good></good>
															<originalvideofilename></originalvideofilename>
															<originalaudiofilename></originalaudiofilename>
														</logginginfo>
														<colorinfo>
															<lut></lut>
															<lut1></lut1>
															<asc_sop></asc_sop>
															<asc_sat></asc_sat>
															<lut2></lut2>
														</colorinfo>
														<labels>
															<label2>Iris</label2>
														</labels>
													</clipitem>
													<transitionitem>
														<start>850</start>
														<end>880</end>
														<pproTicksIn>7204317120000</pproTicksIn>
														<pproTicksOut>7458587136000</pproTicksOut>
														<alignment>center</alignment>
														<cutPointTicks>127135008000</cutPointTicks>
														<rate>
															<timebase>30</timebase>
															<ntsc>TRUE</ntsc>
														</rate>
														<effect>
															<name>Cross Fade (+3dB)</name>
															<effectid>KGAudioTransCrossFade3dB</effectid>
															<effecttype>transition</effecttype>
															<mediatype>audio</mediatype>
															<wipecode>0</wipecode>
															<wipeaccuracy>100</wipeaccuracy>
															<startratio>0</startratio>
															<endratio>1</endratio>
															<reverse>FALSE</reverse>
														</effect>
													</transitionitem>
													<clipitem id="clipitem-494" premiereChannelType="stereo">
														<masterclipid>masterclip-154</masterclipid>
														<name>cornelius_creations_B-K0yVODJgb_IG.mp4</name>
														<enabled>TRUE</enabled>
														<duration>3366</duration>
														<rate>
															<timebase>30</timebase>
															<ntsc>TRUE</ntsc>
														</rate>
														<start>-1</start>
														<end>-1</end>
														<in>1296</in>
														<out>1556</out>
														<pproTicksIn>10984464691200</pproTicksIn>
														<pproTicksOut>13188138163200</pproTicksOut>
														<file id="file-149"/>
														<sourcetrack>
															<mediatype>audio</mediatype>
															<trackindex>2</trackindex>
														</sourcetrack>
														<link>
															<linkclipref>clipitem-482</linkclipref>
															<mediatype>video</mediatype>
															<trackindex>1</trackindex>
															<clipindex>4</clipindex>
														</link>
														<link>
															<linkclipref>clipitem-489</linkclipref>
															<mediatype>audio</mediatype>
															<trackindex>1</trackindex>
															<clipindex>8</clipindex>
															<groupindex>1</groupindex>
														</link>
														<link>
															<linkclipref>clipitem-494</linkclipref>
															<mediatype>audio</mediatype>
															<trackindex>2</trackindex>
															<clipindex>8</clipindex>
															<groupindex>1</groupindex>
														</link>
														<logginginfo>
															<description></description>
															<scene></scene>
															<shottake></shottake>
															<lognote></lognote>
															<good></good>
															<originalvideofilename></originalvideofilename>
															<originalaudiofilename></originalaudiofilename>
														</logginginfo>
														<colorinfo>
															<lut></lut>
															<lut1></lut1>
															<asc_sop></asc_sop>
															<asc_sat></asc_sat>
															<lut2></lut2>
														</colorinfo>
														<labels>
															<label2>Iris</label2>
														</labels>
													</clipitem>
													<transitionitem>
														<start>1080</start>
														<end>1110</end>
														<pproTicksIn>9153720576000</pproTicksIn>
														<pproTicksOut>9407990592000</pproTicksOut>
														<alignment>center</alignment>
														<cutPointTicks>127135008000</cutPointTicks>
														<rate>
															<timebase>30</timebase>
															<ntsc>TRUE</ntsc>
														</rate>
														<effect>
															<name>Cross Fade (+3dB)</name>
															<effectid>KGAudioTransCrossFade3dB</effectid>
															<effecttype>transition</effecttype>
															<mediatype>audio</mediatype>
															<wipecode>0</wipecode>
															<wipeaccuracy>100</wipeaccuracy>
															<startratio>0</startratio>
															<endratio>1</endratio>
															<reverse>FALSE</reverse>
														</effect>
													</transitionitem>
													<clipitem id="clipitem-495" premiereChannelType="stereo">
														<masterclipid>masterclip-154</masterclipid>
														<name>cornelius_creations_B-K0yVODJgb_IG.mp4</name>
														<enabled>TRUE</enabled>
														<duration>3366</duration>
														<rate>
															<timebase>30</timebase>
															<ntsc>TRUE</ntsc>
														</rate>
														<start>-1</start>
														<end>-1</end>
														<in>1886</in>
														<out>3140</out>
														<pproTicksIn>15985108339200</pproTicksIn>
														<pproTicksOut>26613595008000</pproTicksOut>
														<file id="file-149"/>
														<sourcetrack>
															<mediatype>audio</mediatype>
															<trackindex>2</trackindex>
														</sourcetrack>
														<link>
															<linkclipref>clipitem-483</linkclipref>
															<mediatype>video</mediatype>
															<trackindex>1</trackindex>
															<clipindex>5</clipindex>
														</link>
														<link>
															<linkclipref>clipitem-490</linkclipref>
															<mediatype>audio</mediatype>
															<trackindex>1</trackindex>
															<clipindex>10</clipindex>
															<groupindex>1</groupindex>
														</link>
														<link>
															<linkclipref>clipitem-495</linkclipref>
															<mediatype>audio</mediatype>
															<trackindex>2</trackindex>
															<clipindex>10</clipindex>
															<groupindex>1</groupindex>
														</link>
														<logginginfo>
															<description></description>
															<scene></scene>
															<shottake></shottake>
															<lognote></lognote>
															<good></good>
															<originalvideofilename></originalvideofilename>
															<originalaudiofilename></originalaudiofilename>
														</logginginfo>
														<colorinfo>
															<lut></lut>
															<lut1></lut1>
															<asc_sop></asc_sop>
															<asc_sat></asc_sat>
															<lut2></lut2>
														</colorinfo>
														<labels>
															<label2>Iris</label2>
														</labels>
													</clipitem>
													<transitionitem>
														<start>2304</start>
														<end>2334</end>
														<pproTicksIn>19527937228800</pproTicksIn>
														<pproTicksOut>19782207244800</pproTicksOut>
														<alignment>end-black</alignment>
														<cutPointTicks>254270016000</cutPointTicks>
														<rate>
															<timebase>30</timebase>
															<ntsc>TRUE</ntsc>
														</rate>
														<effect>
															<name>Cross Fade (+3dB)</name>
															<effectid>KGAudioTransCrossFade3dB</effectid>
															<effecttype>transition</effecttype>
															<mediatype>audio</mediatype>
															<wipecode>0</wipecode>
															<wipeaccuracy>100</wipeaccuracy>
															<startratio>0</startratio>
															<endratio>1</endratio>
															<reverse>FALSE</reverse>
														</effect>
													</transitionitem>
													<enabled>TRUE</enabled>
													<locked>FALSE</locked>
													<filter>
														<effect>
															<name>Audio Levels</name>
															<effectid>audiolevels</effectid>
															<effectcategory>audiolevels</effectcategory>
															<effecttype>audiolevels</effecttype>
															<mediatype>audio</mediatype>
															<parameter authoringApp="PremierePro">
																<parameterid>level</parameterid>
																<name>Level</name>
																<valuemin>0</valuemin>
																<valuemax>3.98109</valuemax>
																<value>0.706272</value>
															</parameter>
														</effect>
													</filter>
													<outputchannelindex>2</outputchannelindex>
												</track>
												<track TL.SQTrackAudioKeyframeStyle="0" TL.SQTrackShy="0" TL.SQTrackExpandedHeight="25" TL.SQTrackExpanded="0" MZ.TrackTargeted="0" PannerCurrentValue="0.5" PannerIsInverted="true" PannerStartKeyframe="-91445760000000000,0.5,0,0,0,0,0,0" PannerName="Balance" currentExplodedTrackIndex="0" totalExplodedTrackCount="2" premiereTrackType="Stereo">
													<enabled>TRUE</enabled>
													<locked>FALSE</locked>
													<filter>
														<effect>
															<name>Audio Levels</name>
															<effectid>audiolevels</effectid>
															<effectcategory>audiolevels</effectcategory>
															<effecttype>audiolevels</effecttype>
															<mediatype>audio</mediatype>
															<parameter authoringApp="PremierePro">
																<parameterid>level</parameterid>
																<name>Level</name>
																<valuemin>0</valuemin>
																<valuemax>3.98109</valuemax>
																<value>0.706272</value>
															</parameter>
														</effect>
													</filter>
													<outputchannelindex>1</outputchannelindex>
												</track>
												<track TL.SQTrackAudioKeyframeStyle="0" TL.SQTrackShy="0" TL.SQTrackExpandedHeight="25" TL.SQTrackExpanded="0" MZ.TrackTargeted="0" PannerCurrentValue="0.5" PannerIsInverted="true" PannerStartKeyframe="-91445760000000000,0.5,0,0,0,0,0,0" PannerName="Balance" currentExplodedTrackIndex="1" totalExplodedTrackCount="2" premiereTrackType="Stereo">
													<enabled>TRUE</enabled>
													<locked>FALSE</locked>
													<filter>
														<effect>
															<name>Audio Levels</name>
															<effectid>audiolevels</effectid>
															<effectcategory>audiolevels</effectcategory>
															<effecttype>audiolevels</effecttype>
															<mediatype>audio</mediatype>
															<parameter authoringApp="PremierePro">
																<parameterid>level</parameterid>
																<name>Level</name>
																<valuemin>0</valuemin>
																<valuemax>3.98109</valuemax>
																<value>0.706272</value>
															</parameter>
														</effect>
													</filter>
													<outputchannelindex>2</outputchannelindex>
												</track>
											</audio>
										</media>
										<timecode>
											<rate>
												<timebase>30</timebase>
												<ntsc>TRUE</ntsc>
											</rate>
											<string>00:00:00:00</string>
											<frame>0</frame>
											<displayformat>NDF</displayformat>
										</timecode>
										<labels>
											<label2>Forest</label2>
										</labels>
										<logginginfo>
											<description></description>
											<scene></scene>
											<shottake></shottake>
											<lognote></lognote>
											<good></good>
											<originalvideofilename></originalvideofilename>
											<originalaudiofilename></originalaudiofilename>
										</logginginfo>
									</sequence>
									<sequence id="sequence-55" TL.SQAudioVisibleBase="0" TL.SQVideoVisibleBase="0" TL.SQVisibleBaseTime="0" TL.SQAVDividerPosition="0.5" TL.SQHideShyTracks="0" TL.SQHeaderWidth="236" Monitor.ProgramZoomOut="26808535353600" Monitor.ProgramZoomIn="0" TL.SQTimePerPixel="0.13818516812528672" AM.TrackVScrollPosition="0" AM.TrackScrollPosition="0" MZ.EditLine="2356235481600" MZ.Sequence.PreviewFrameSizeHeight="1080" MZ.Sequence.PreviewFrameSizeWidth="1920" MZ.Sequence.AudioTimeDisplayFormat="200" MZ.Sequence.PreviewRenderingClassID="1297106761" MZ.Sequence.PreviewRenderingPresetCodec="1297107278" MZ.Sequence.PreviewRenderingPresetPath="EncoderPresets/SequencePreview/795454d9-d3c2-429d-9474-923ab13b7018/I-Frame Only MPEG.epr" MZ.Sequence.PreviewUseMaxRenderQuality="false" MZ.Sequence.PreviewUseMaxBitDepth="false" MZ.Sequence.EditingModeGUID="795454d9-d3c2-429d-9474-923ab13b7018" MZ.Sequence.VideoTimeDisplayFormat="103" MZ.WorkOutPoint="26808535353600" MZ.WorkInPoint="0" explodedTracks="true">
										<uuid>d73e3218-7ff6-461a-b58a-66b215c1d8f8</uuid>
										<duration>2690</duration>
										<rate>
											<timebase>30</timebase>
											<ntsc>TRUE</ntsc>
										</rate>
										<out>3163</out>
										<name>FND_ missmacsbakery_2</name>
										<media>
											<video>
												<format>
													<samplecharacteristics>
														<rate>
															<timebase>30</timebase>
															<ntsc>TRUE</ntsc>
														</rate>
														<codec>
															<name>Apple ProRes 422</name>
															<appspecificdata>
																<appname>Final Cut Pro</appname>
																<appmanufacturer>Apple Inc.</appmanufacturer>
																<appversion>7.0</appversion>
																<data>
																	<qtcodec>
																		<codecname>Apple ProRes 422</codecname>
																		<codectypename>Apple ProRes 422</codectypename>
																		<codectypecode>apcn</codectypecode>
																		<codecvendorcode>appl</codecvendorcode>
																		<spatialquality>1024</spatialquality>
																		<temporalquality>0</temporalquality>
																		<keyframerate>0</keyframerate>
																		<datarate>0</datarate>
																	</qtcodec>
																</data>
															</appspecificdata>
														</codec>
														<width>1920</width>
														<height>1080</height>
														<anamorphic>FALSE</anamorphic>
														<pixelaspectratio>square</pixelaspectratio>
														<fielddominance>none</fielddominance>
														<colordepth>24</colordepth>
													</samplecharacteristics>
												</format>
												<track TL.SQTrackShy="0" TL.SQTrackExpandedHeight="25" TL.SQTrackExpanded="0" MZ.TrackTargeted="1">
													<clipitem id="clipitem-496">
														<masterclipid>masterclip-155</masterclipid>
														<name>(missmacsbakery)_CjEESZ3gl7j_IG.mp4</name>
														<enabled>TRUE</enabled>
														<duration>591</duration>
														<rate>
															<timebase>30</timebase>
															<ntsc>TRUE</ntsc>
														</rate>
														<start>763</start>
														<end>1153</end>
														<in>0</in>
														<out>390</out>
														<pproTicksIn>0</pproTicksIn>
														<pproTicksOut>3305510208000</pproTicksOut>
														<alphatype>none</alphatype>
														<pixelaspectratio>square</pixelaspectratio>
														<anamorphic>FALSE</anamorphic>
														<file id="file-150">
															<name>(missmacsbakery)_CjEESZ3gl7j_IG.mp4</name>
															<pathurl>file://localhost/Volumes/Satisfactum%20Satisfactorum/00_Hub%20World/3_Raw%20Files/Clip%20Providers/missmacsbakery/(missmacsbakery)_CjEESZ3gl7j_IG.mp4</pathurl>
															<rate>
																<timebase>30</timebase>
																<ntsc>FALSE</ntsc>
															</rate>
															<duration>592</duration>
															<timecode>
																<rate>
																	<timebase>30</timebase>
																	<ntsc>FALSE</ntsc>
																</rate>
																<string>00:00:00:00</string>
																<frame>0</frame>
																<displayformat>NDF</displayformat>
															</timecode>
															<media>
																<video>
																	<samplecharacteristics>
																		<rate>
																			<timebase>30</timebase>
																			<ntsc>FALSE</ntsc>
																		</rate>
																		<width>720</width>
																		<height>1280</height>
																		<anamorphic>FALSE</anamorphic>
																		<pixelaspectratio>square</pixelaspectratio>
																		<fielddominance>none</fielddominance>
																	</samplecharacteristics>
																</video>
																<audio>
																	<samplecharacteristics>
																		<depth>16</depth>
																		<samplerate>44100</samplerate>
																	</samplecharacteristics>
																	<channelcount>2</channelcount>
																</audio>
															</media>
														</file>
														<filter>
															<effect>
																<name>Basic Motion</name>
																<effectid>basic</effectid>
																<effectcategory>motion</effectcategory>
																<effecttype>motion</effecttype>
																<mediatype>video</mediatype>
																<pproBypass>false</pproBypass>
																<parameter authoringApp="PremierePro">
																	<parameterid>scale</parameterid>
																	<name>Scale</name>
																	<valuemin>0</valuemin>
																	<valuemax>1000</valuemax>
																	<value>271.25</value>
																</parameter>
																<parameter authoringApp="PremierePro">
																	<parameterid>rotation</parameterid>
																	<name>Rotation</name>
																	<valuemin>-8640</valuemin>
																	<valuemax>8640</valuemax>
																	<value>0</value>
																</parameter>
																<parameter authoringApp="PremierePro">
																	<parameterid>center</parameterid>
																	<name>Center</name>
																	<value>
																		<horiz>0</horiz>
																		<vert>0</vert>
																	</value>
																</parameter>
																<parameter authoringApp="PremierePro">
																	<parameterid>centerOffset</parameterid>
																	<name>Anchor Point</name>
																	<value>
																		<horiz>0</horiz>
																		<vert>0</vert>
																	</value>
																</parameter>
																<parameter authoringApp="PremierePro">
																	<parameterid>antiflicker</parameterid>
																	<name>Anti-flicker Filter</name>
																	<valuemin>0.0</valuemin>
																	<valuemax>1.0</valuemax>
																	<value>0</value>
																</parameter>
															</effect>
														</filter>
														<filter>
															<effect>
																<name>Gaussian Blur</name>
																<effectid>Gaussian Blur</effectid>
																<effectcategory>Blur</effectcategory>
																<effecttype>motion</effecttype>
																<mediatype>video</mediatype>
																<pproBypass>false</pproBypass>
																<parameter authoringApp="PremierePro">
																	<parameterid>radius</parameterid>
																	<name>Radius</name>
																	<valuemin>0</valuemin>
																	<valuemax>100</valuemax>
																	<value>150</value>
																</parameter>
															</effect>
														</filter>
														<logginginfo>
															<description></description>
															<scene></scene>
															<shottake></shottake>
															<lognote></lognote>
															<good></good>
															<originalvideofilename></originalvideofilename>
															<originalaudiofilename></originalaudiofilename>
														</logginginfo>
														<colorinfo>
															<lut></lut>
															<lut1></lut1>
															<asc_sop></asc_sop>
															<asc_sat></asc_sat>
															<lut2></lut2>
														</colorinfo>
														<labels>
															<label2>Iris</label2>
														</labels>
													</clipitem>
													<clipitem id="clipitem-497">
														<masterclipid>masterclip-155</masterclipid>
														<name>(missmacsbakery)_CjEESZ3gl7j_IG.mp4</name>
														<enabled>TRUE</enabled>
														<duration>591</duration>
														<rate>
															<timebase>30</timebase>
															<ntsc>TRUE</ntsc>
														</rate>
														<start>1153</start>
														<end>1285</end>
														<in>429</in>
														<out>561</out>
														<pproTicksIn>3636061228800</pproTicksIn>
														<pproTicksOut>4754849299200</pproTicksOut>
														<alphatype>none</alphatype>
														<file id="file-150"/>
														<filter>
															<effect>
																<name>Basic Motion</name>
																<effectid>basic</effectid>
																<effectcategory>motion</effectcategory>
																<effecttype>motion</effecttype>
																<mediatype>video</mediatype>
																<pproBypass>false</pproBypass>
																<parameter authoringApp="PremierePro">
																	<parameterid>scale</parameterid>
																	<name>Scale</name>
																	<valuemin>0</valuemin>
																	<valuemax>1000</valuemax>
																	<value>271.25</value>
																</parameter>
																<parameter authoringApp="PremierePro">
																	<parameterid>rotation</parameterid>
																	<name>Rotation</name>
																	<valuemin>-8640</valuemin>
																	<valuemax>8640</valuemax>
																	<value>0</value>
																</parameter>
																<parameter authoringApp="PremierePro">
																	<parameterid>center</parameterid>
																	<name>Center</name>
																	<value>
																		<horiz>0</horiz>
																		<vert>0</vert>
																	</value>
																</parameter>
																<parameter authoringApp="PremierePro">
																	<parameterid>centerOffset</parameterid>
																	<name>Anchor Point</name>
																	<value>
																		<horiz>0</horiz>
																		<vert>0</vert>
																	</value>
																</parameter>
																<parameter authoringApp="PremierePro">
																	<parameterid>antiflicker</parameterid>
																	<name>Anti-flicker Filter</name>
																	<valuemin>0.0</valuemin>
																	<valuemax>1.0</valuemax>
																	<value>0</value>
																</parameter>
															</effect>
														</filter>
														<filter>
															<effect>
																<name>Gaussian Blur</name>
																<effectid>Gaussian Blur</effectid>
																<effectcategory>Blur</effectcategory>
																<effecttype>motion</effecttype>
																<mediatype>video</mediatype>
																<pproBypass>false</pproBypass>
																<parameter authoringApp="PremierePro">
																	<parameterid>radius</parameterid>
																	<name>Radius</name>
																	<valuemin>0</valuemin>
																	<valuemax>100</valuemax>
																	<value>150</value>
																</parameter>
															</effect>
														</filter>
														<logginginfo>
															<description></description>
															<scene></scene>
															<shottake></shottake>
															<lognote></lognote>
															<good></good>
															<originalvideofilename></originalvideofilename>
															<originalaudiofilename></originalaudiofilename>
														</logginginfo>
														<colorinfo>
															<lut></lut>
															<lut1></lut1>
															<asc_sop></asc_sop>
															<asc_sat></asc_sat>
															<lut2></lut2>
														</colorinfo>
														<labels>
															<label2>Iris</label2>
														</labels>
													</clipitem>
													<clipitem id="clipitem-498">
														<masterclipid>masterclip-156</masterclipid>
														<name>(missmacsbakery)_ClCDId7gMGb_IG.mp4</name>
														<enabled>TRUE</enabled>
														<duration>872</duration>
														<rate>
															<timebase>30</timebase>
															<ntsc>TRUE</ntsc>
														</rate>
														<start>1818</start>
														<end>2390</end>
														<in>0</in>
														<out>572</out>
														<pproTicksIn>0</pproTicksIn>
														<pproTicksOut>4848081638400</pproTicksOut>
														<alphatype>none</alphatype>
														<pixelaspectratio>square</pixelaspectratio>
														<anamorphic>FALSE</anamorphic>
														<file id="file-151">
															<name>(missmacsbakery)_ClCDId7gMGb_IG.mp4</name>
															<pathurl>file://localhost/Volumes/Satisfactum%20Satisfactorum/00_Hub%20World/3_Raw%20Files/Clip%20Providers/missmacsbakery/(missmacsbakery)_ClCDId7gMGb_IG.mp4</pathurl>
															<rate>
																<timebase>30</timebase>
																<ntsc>FALSE</ntsc>
															</rate>
															<duration>873</duration>
															<timecode>
																<rate>
																	<timebase>30</timebase>
																	<ntsc>FALSE</ntsc>
																</rate>
																<string>00:00:00:00</string>
																<frame>0</frame>
																<displayformat>NDF</displayformat>
															</timecode>
															<media>
																<video>
																	<samplecharacteristics>
																		<rate>
																			<timebase>30</timebase>
																			<ntsc>FALSE</ntsc>
																		</rate>
																		<width>720</width>
																		<height>1280</height>
																		<anamorphic>FALSE</anamorphic>
																		<pixelaspectratio>square</pixelaspectratio>
																		<fielddominance>none</fielddominance>
																	</samplecharacteristics>
																</video>
																<audio>
																	<samplecharacteristics>
																		<depth>16</depth>
																		<samplerate>44100</samplerate>
																	</samplecharacteristics>
																	<channelcount>2</channelcount>
																</audio>
															</media>
														</file>
														<filter>
															<effect>
																<name>Basic Motion</name>
																<effectid>basic</effectid>
																<effectcategory>motion</effectcategory>
																<effecttype>motion</effecttype>
																<mediatype>video</mediatype>
																<pproBypass>false</pproBypass>
																<parameter authoringApp="PremierePro">
																	<parameterid>scale</parameterid>
																	<name>Scale</name>
																	<valuemin>0</valuemin>
																	<valuemax>1000</valuemax>
																	<value>271.25</value>
																</parameter>
																<parameter authoringApp="PremierePro">
																	<parameterid>rotation</parameterid>
																	<name>Rotation</name>
																	<valuemin>-8640</valuemin>
																	<valuemax>8640</valuemax>
																	<value>0</value>
																</parameter>
																<parameter authoringApp="PremierePro">
																	<parameterid>center</parameterid>
																	<name>Center</name>
																	<value>
																		<horiz>0</horiz>
																		<vert>0</vert>
																	</value>
																</parameter>
																<parameter authoringApp="PremierePro">
																	<parameterid>centerOffset</parameterid>
																	<name>Anchor Point</name>
																	<value>
																		<horiz>0</horiz>
																		<vert>0</vert>
																	</value>
																</parameter>
																<parameter authoringApp="PremierePro">
																	<parameterid>antiflicker</parameterid>
																	<name>Anti-flicker Filter</name>
																	<valuemin>0.0</valuemin>
																	<valuemax>1.0</valuemax>
																	<value>0</value>
																</parameter>
															</effect>
														</filter>
														<filter>
															<effect>
																<name>Gaussian Blur</name>
																<effectid>Gaussian Blur</effectid>
																<effectcategory>Blur</effectcategory>
																<effecttype>motion</effecttype>
																<mediatype>video</mediatype>
																<pproBypass>false</pproBypass>
																<parameter authoringApp="PremierePro">
																	<parameterid>radius</parameterid>
																	<name>Radius</name>
																	<valuemin>0</valuemin>
																	<valuemax>100</valuemax>
																	<value>150</value>
																</parameter>
															</effect>
														</filter>
														<logginginfo>
															<description></description>
															<scene></scene>
															<shottake></shottake>
															<lognote></lognote>
															<good></good>
															<originalvideofilename></originalvideofilename>
															<originalaudiofilename></originalaudiofilename>
														</logginginfo>
														<colorinfo>
															<lut></lut>
															<lut1></lut1>
															<asc_sop></asc_sop>
															<asc_sat></asc_sat>
															<lut2></lut2>
														</colorinfo>
													</clipitem>
													<clipitem id="clipitem-499">
														<masterclipid>masterclip-156</masterclipid>
														<name>(missmacsbakery)_ClCDId7gMGb_IG.mp4</name>
														<enabled>TRUE</enabled>
														<duration>872</duration>
														<rate>
															<timebase>30</timebase>
															<ntsc>TRUE</ntsc>
														</rate>
														<start>2390</start>
														<end>2690</end>
														<in>572</in>
														<out>872</out>
														<pproTicksIn>4848081638400</pproTicksIn>
														<pproTicksOut>7390781798400</pproTicksOut>
														<alphatype>none</alphatype>
														<file id="file-151"/>
														<filter>
															<effect>
																<name>Basic Motion</name>
																<effectid>basic</effectid>
																<effectcategory>motion</effectcategory>
																<effecttype>motion</effecttype>
																<mediatype>video</mediatype>
																<pproBypass>false</pproBypass>
																<parameter authoringApp="PremierePro">
																	<parameterid>scale</parameterid>
																	<name>Scale</name>
																	<valuemin>0</valuemin>
																	<valuemax>1000</valuemax>
																	<value>271.25</value>
																</parameter>
																<parameter authoringApp="PremierePro">
																	<parameterid>rotation</parameterid>
																	<name>Rotation</name>
																	<valuemin>-8640</valuemin>
																	<valuemax>8640</valuemax>
																	<value>0</value>
																</parameter>
																<parameter authoringApp="PremierePro">
																	<parameterid>center</parameterid>
																	<name>Center</name>
																	<value>
																		<horiz>0</horiz>
																		<vert>0</vert>
																	</value>
																</parameter>
																<parameter authoringApp="PremierePro">
																	<parameterid>centerOffset</parameterid>
																	<name>Anchor Point</name>
																	<value>
																		<horiz>0</horiz>
																		<vert>0</vert>
																	</value>
																</parameter>
																<parameter authoringApp="PremierePro">
																	<parameterid>antiflicker</parameterid>
																	<name>Anti-flicker Filter</name>
																	<valuemin>0.0</valuemin>
																	<valuemax>1.0</valuemax>
																	<value>0</value>
																</parameter>
															</effect>
														</filter>
														<filter>
															<effect>
																<name>Gaussian Blur</name>
																<effectid>Gaussian Blur</effectid>
																<effectcategory>Blur</effectcategory>
																<effecttype>motion</effecttype>
																<mediatype>video</mediatype>
																<pproBypass>false</pproBypass>
																<parameter authoringApp="PremierePro">
																	<parameterid>radius</parameterid>
																	<name>Radius</name>
																	<valuemin>0</valuemin>
																	<valuemax>100</valuemax>
																	<value>150</value>
																</parameter>
															</effect>
														</filter>
														<logginginfo>
															<description></description>
															<scene></scene>
															<shottake></shottake>
															<lognote></lognote>
															<good></good>
															<originalvideofilename></originalvideofilename>
															<originalaudiofilename></originalaudiofilename>
														</logginginfo>
														<colorinfo>
															<lut></lut>
															<lut1></lut1>
															<asc_sop></asc_sop>
															<asc_sat></asc_sat>
															<lut2></lut2>
														</colorinfo>
													</clipitem>
													<enabled>TRUE</enabled>
													<locked>FALSE</locked>
												</track>
												<track TL.SQTrackShy="0" TL.SQTrackExpandedHeight="25" TL.SQTrackExpanded="0" MZ.TrackTargeted="0">
													<clipitem id="clipitem-500">
														<masterclipid>masterclip-157</masterclipid>
														<name>(missmacsbakery)_Cm7U34WK1_p_IG.mp4</name>
														<enabled>TRUE</enabled>
														<duration>763</duration>
														<rate>
															<timebase>30</timebase>
															<ntsc>TRUE</ntsc>
														</rate>
														<start>0</start>
														<end>763</end>
														<in>0</in>
														<out>763</out>
														<pproTicksIn>0</pproTicksIn>
														<pproTicksOut>6466934073600</pproTicksOut>
														<alphatype>none</alphatype>
														<pixelaspectratio>square</pixelaspectratio>
														<anamorphic>FALSE</anamorphic>
														<file id="file-152">
															<name>(missmacsbakery)_Cm7U34WK1_p_IG.mp4</name>
															<pathurl>file://localhost/Volumes/Satisfactum%20Satisfactorum/00_Hub%20World/3_Raw%20Files/Clip%20Providers/missmacsbakery/(missmacsbakery)_Cm7U34WK1_p_IG.mp4</pathurl>
															<rate>
																<timebase>30</timebase>
																<ntsc>FALSE</ntsc>
															</rate>
															<duration>764</duration>
															<timecode>
																<rate>
																	<timebase>30</timebase>
																	<ntsc>FALSE</ntsc>
																</rate>
																<string>00:00:00:00</string>
																<frame>0</frame>
																<displayformat>NDF</displayformat>
															</timecode>
															<media>
																<video>
																	<samplecharacteristics>
																		<rate>
																			<timebase>30</timebase>
																			<ntsc>FALSE</ntsc>
																		</rate>
																		<width>1080</width>
																		<height>1920</height>
																		<anamorphic>FALSE</anamorphic>
																		<pixelaspectratio>square</pixelaspectratio>
																		<fielddominance>none</fielddominance>
																	</samplecharacteristics>
																</video>
																<audio>
																	<samplecharacteristics>
																		<depth>16</depth>
																		<samplerate>44100</samplerate>
																	</samplecharacteristics>
																	<channelcount>2</channelcount>
																</audio>
															</media>
														</file>
														<filter>
															<effect>
																<name>Basic Motion</name>
																<effectid>basic</effectid>
																<effectcategory>motion</effectcategory>
																<effecttype>motion</effecttype>
																<mediatype>video</mediatype>
																<pproBypass>false</pproBypass>
																<parameter authoringApp="PremierePro">
																	<parameterid>scale</parameterid>
																	<name>Scale</name>
																	<valuemin>0</valuemin>
																	<valuemax>1000</valuemax>
																	<value>271.25</value>
																</parameter>
																<parameter authoringApp="PremierePro">
																	<parameterid>rotation</parameterid>
																	<name>Rotation</name>
																	<valuemin>-8640</valuemin>
																	<valuemax>8640</valuemax>
																	<value>0</value>
																</parameter>
																<parameter authoringApp="PremierePro">
																	<parameterid>center</parameterid>
																	<name>Center</name>
																	<value>
																		<horiz>0</horiz>
																		<vert>0</vert>
																	</value>
																</parameter>
																<parameter authoringApp="PremierePro">
																	<parameterid>centerOffset</parameterid>
																	<name>Anchor Point</name>
																	<value>
																		<horiz>0</horiz>
																		<vert>0</vert>
																	</value>
																</parameter>
																<parameter authoringApp="PremierePro">
																	<parameterid>antiflicker</parameterid>
																	<name>Anti-flicker Filter</name>
																	<valuemin>0.0</valuemin>
																	<valuemax>1.0</valuemax>
																	<value>0</value>
																</parameter>
															</effect>
														</filter>
														<filter>
															<effect>
																<name>Gaussian Blur</name>
																<effectid>Gaussian Blur</effectid>
																<effectcategory>Blur</effectcategory>
																<effecttype>motion</effecttype>
																<mediatype>video</mediatype>
																<pproBypass>false</pproBypass>
																<parameter authoringApp="PremierePro">
																	<parameterid>radius</parameterid>
																	<name>Radius</name>
																	<valuemin>0</valuemin>
																	<valuemax>100</valuemax>
																	<value>150</value>
																</parameter>
															</effect>
														</filter>
														<logginginfo>
															<description></description>
															<scene></scene>
															<shottake></shottake>
															<lognote></lognote>
															<good></good>
															<originalvideofilename></originalvideofilename>
															<originalaudiofilename></originalaudiofilename>
														</logginginfo>
														<colorinfo>
															<lut></lut>
															<lut1></lut1>
															<asc_sop></asc_sop>
															<asc_sat></asc_sat>
															<lut2></lut2>
														</colorinfo>
													</clipitem>
													<clipitem id="clipitem-501">
														<masterclipid>masterclip-155</masterclipid>
														<name>(missmacsbakery)_CjEESZ3gl7j_IG.mp4</name>
														<enabled>TRUE</enabled>
														<duration>591</duration>
														<rate>
															<timebase>30</timebase>
															<ntsc>TRUE</ntsc>
														</rate>
														<start>763</start>
														<end>1153</end>
														<in>0</in>
														<out>390</out>
														<pproTicksIn>0</pproTicksIn>
														<pproTicksOut>3305510208000</pproTicksOut>
														<alphatype>none</alphatype>
														<file id="file-150"/>
														<filter>
															<effect>
																<name>Basic Motion</name>
																<effectid>basic</effectid>
																<effectcategory>motion</effectcategory>
																<effecttype>motion</effecttype>
																<mediatype>video</mediatype>
																<pproBypass>false</pproBypass>
																<parameter authoringApp="PremierePro">
																	<parameterid>scale</parameterid>
																	<name>Scale</name>
																	<valuemin>0</valuemin>
																	<valuemax>1000</valuemax>
																	<value>151.25</value>
																</parameter>
																<parameter authoringApp="PremierePro">
																	<parameterid>rotation</parameterid>
																	<name>Rotation</name>
																	<valuemin>-8640</valuemin>
																	<valuemax>8640</valuemax>
																	<value>0</value>
																</parameter>
																<parameter authoringApp="PremierePro">
																	<parameterid>center</parameterid>
																	<name>Center</name>
																	<value>
																		<horiz>0</horiz>
																		<vert>0.136719</vert>
																	</value>
																</parameter>
																<parameter authoringApp="PremierePro">
																	<parameterid>centerOffset</parameterid>
																	<name>Anchor Point</name>
																	<value>
																		<horiz>0</horiz>
																		<vert>0</vert>
																	</value>
																</parameter>
																<parameter authoringApp="PremierePro">
																	<parameterid>antiflicker</parameterid>
																	<name>Anti-flicker Filter</name>
																	<valuemin>0.0</valuemin>
																	<valuemax>1.0</valuemax>
																	<value>0</value>
																</parameter>
															</effect>
														</filter>
														<logginginfo>
															<description></description>
															<scene></scene>
															<shottake></shottake>
															<lognote></lognote>
															<good></good>
															<originalvideofilename></originalvideofilename>
															<originalaudiofilename></originalaudiofilename>
														</logginginfo>
														<colorinfo>
															<lut></lut>
															<lut1></lut1>
															<asc_sop></asc_sop>
															<asc_sat></asc_sat>
															<lut2></lut2>
														</colorinfo>
														<labels>
															<label2>Iris</label2>
														</labels>
													</clipitem>
													<clipitem id="clipitem-502">
														<masterclipid>masterclip-155</masterclipid>
														<name>(missmacsbakery)_CjEESZ3gl7j_IG.mp4</name>
														<enabled>TRUE</enabled>
														<duration>591</duration>
														<rate>
															<timebase>30</timebase>
															<ntsc>TRUE</ntsc>
														</rate>
														<start>1153</start>
														<end>1285</end>
														<in>429</in>
														<out>561</out>
														<pproTicksIn>3636061228800</pproTicksIn>
														<pproTicksOut>4754849299200</pproTicksOut>
														<alphatype>none</alphatype>
														<file id="file-150"/>
														<filter>
															<effect>
																<name>Basic Motion</name>
																<effectid>basic</effectid>
																<effectcategory>motion</effectcategory>
																<effecttype>motion</effecttype>
																<mediatype>video</mediatype>
																<pproBypass>false</pproBypass>
																<parameter authoringApp="PremierePro">
																	<parameterid>scale</parameterid>
																	<name>Scale</name>
																	<valuemin>0</valuemin>
																	<valuemax>1000</valuemax>
																	<value>151.25</value>
																</parameter>
																<parameter authoringApp="PremierePro">
																	<parameterid>rotation</parameterid>
																	<name>Rotation</name>
																	<valuemin>-8640</valuemin>
																	<valuemax>8640</valuemax>
																	<value>0</value>
																</parameter>
																<parameter authoringApp="PremierePro">
																	<parameterid>center</parameterid>
																	<name>Center</name>
																	<value>
																		<horiz>0</horiz>
																		<vert>0.136719</vert>
																	</value>
																</parameter>
																<parameter authoringApp="PremierePro">
																	<parameterid>centerOffset</parameterid>
																	<name>Anchor Point</name>
																	<value>
																		<horiz>0</horiz>
																		<vert>0</vert>
																	</value>
																</parameter>
																<parameter authoringApp="PremierePro">
																	<parameterid>antiflicker</parameterid>
																	<name>Anti-flicker Filter</name>
																	<valuemin>0.0</valuemin>
																	<valuemax>1.0</valuemax>
																	<value>0</value>
																</parameter>
															</effect>
														</filter>
														<logginginfo>
															<description></description>
															<scene></scene>
															<shottake></shottake>
															<lognote></lognote>
															<good></good>
															<originalvideofilename></originalvideofilename>
															<originalaudiofilename></originalaudiofilename>
														</logginginfo>
														<colorinfo>
															<lut></lut>
															<lut1></lut1>
															<asc_sop></asc_sop>
															<asc_sat></asc_sat>
															<lut2></lut2>
														</colorinfo>
														<labels>
															<label2>Iris</label2>
														</labels>
													</clipitem>
													<clipitem id="clipitem-503">
														<masterclipid>masterclip-158</masterclipid>
														<name>(missmacsbakery)_CKRylqdFHvW - 4_IG.mp4</name>
														<enabled>TRUE</enabled>
														<duration>533</duration>
														<rate>
															<timebase>30</timebase>
															<ntsc>TRUE</ntsc>
														</rate>
														<start>1285</start>
														<end>1818</end>
														<in>0</in>
														<out>533</out>
														<pproTicksIn>0</pproTicksIn>
														<pproTicksOut>4517530617600</pproTicksOut>
														<alphatype>none</alphatype>
														<pixelaspectratio>square</pixelaspectratio>
														<anamorphic>FALSE</anamorphic>
														<file id="file-153">
															<name>(missmacsbakery)_CKRylqdFHvW - 4_IG.mp4</name>
															<pathurl>file://localhost/Volumes/Satisfactum%20Satisfactorum/00_Hub%20World/3_Raw%20Files/Clip%20Providers/missmacsbakery/(missmacsbakery)_CKRylqdFHvW%20-%204_IG.mp4</pathurl>
															<rate>
																<timebase>30</timebase>
																<ntsc>FALSE</ntsc>
															</rate>
															<duration>534</duration>
															<timecode>
																<rate>
																	<timebase>30</timebase>
																	<ntsc>FALSE</ntsc>
																</rate>
																<string>00:00:00:00</string>
																<frame>0</frame>
																<displayformat>NDF</displayformat>
															</timecode>
															<media>
																<video>
																	<samplecharacteristics>
																		<rate>
																			<timebase>30</timebase>
																			<ntsc>FALSE</ntsc>
																		</rate>
																		<width>720</width>
																		<height>720</height>
																		<anamorphic>FALSE</anamorphic>
																		<pixelaspectratio>square</pixelaspectratio>
																		<fielddominance>none</fielddominance>
																	</samplecharacteristics>
																</video>
															</media>
														</file>
														<filter>
															<effect>
																<name>Basic Motion</name>
																<effectid>basic</effectid>
																<effectcategory>motion</effectcategory>
																<effecttype>motion</effecttype>
																<mediatype>video</mediatype>
																<pproBypass>false</pproBypass>
																<parameter authoringApp="PremierePro">
																	<parameterid>scale</parameterid>
																	<name>Scale</name>
																	<valuemin>0</valuemin>
																	<valuemax>1000</valuemax>
																	<value>271.25</value>
																</parameter>
																<parameter authoringApp="PremierePro">
																	<parameterid>rotation</parameterid>
																	<name>Rotation</name>
																	<valuemin>-8640</valuemin>
																	<valuemax>8640</valuemax>
																	<value>0</value>
																</parameter>
																<parameter authoringApp="PremierePro">
																	<parameterid>center</parameterid>
																	<name>Center</name>
																	<value>
																		<horiz>0</horiz>
																		<vert>0</vert>
																	</value>
																</parameter>
																<parameter authoringApp="PremierePro">
																	<parameterid>centerOffset</parameterid>
																	<name>Anchor Point</name>
																	<value>
																		<horiz>0</horiz>
																		<vert>0</vert>
																	</value>
																</parameter>
																<parameter authoringApp="PremierePro">
																	<parameterid>antiflicker</parameterid>
																	<name>Anti-flicker Filter</name>
																	<valuemin>0.0</valuemin>
																	<valuemax>1.0</valuemax>
																	<value>0</value>
																</parameter>
															</effect>
														</filter>
														<filter>
															<effect>
																<name>Gaussian Blur</name>
																<effectid>Gaussian Blur</effectid>
																<effectcategory>Blur</effectcategory>
																<effecttype>motion</effecttype>
																<mediatype>video</mediatype>
																<pproBypass>false</pproBypass>
																<parameter authoringApp="PremierePro">
																	<parameterid>radius</parameterid>
																	<name>Radius</name>
																	<valuemin>0</valuemin>
																	<valuemax>100</valuemax>
																	<value>150</value>
																</parameter>
															</effect>
														</filter>
														<logginginfo>
															<description></description>
															<scene></scene>
															<shottake></shottake>
															<lognote></lognote>
															<good></good>
															<originalvideofilename></originalvideofilename>
															<originalaudiofilename></originalaudiofilename>
														</logginginfo>
														<colorinfo>
															<lut></lut>
															<lut1></lut1>
															<asc_sop></asc_sop>
															<asc_sat></asc_sat>
															<lut2></lut2>
														</colorinfo>
													</clipitem>
													<clipitem id="clipitem-504">
														<masterclipid>masterclip-156</masterclipid>
														<name>(missmacsbakery)_ClCDId7gMGb_IG.mp4</name>
														<enabled>TRUE</enabled>
														<duration>872</duration>
														<rate>
															<timebase>30</timebase>
															<ntsc>TRUE</ntsc>
														</rate>
														<start>1818</start>
														<end>2390</end>
														<in>0</in>
														<out>572</out>
														<pproTicksIn>0</pproTicksIn>
														<pproTicksOut>4848081638400</pproTicksOut>
														<alphatype>none</alphatype>
														<file id="file-151"/>
														<filter>
															<effect>
																<name>Basic Motion</name>
																<effectid>basic</effectid>
																<effectcategory>motion</effectcategory>
																<effecttype>motion</effecttype>
																<mediatype>video</mediatype>
																<pproBypass>false</pproBypass>
																<parameter authoringApp="PremierePro">
																	<parameterid>scale</parameterid>
																	<name>Scale</name>
																	<valuemin>0</valuemin>
																	<valuemax>1000</valuemax>
																	<value>150.25</value>
																</parameter>
																<parameter authoringApp="PremierePro">
																	<parameterid>rotation</parameterid>
																	<name>Rotation</name>
																	<valuemin>-8640</valuemin>
																	<valuemax>8640</valuemax>
																	<value>0</value>
																</parameter>
																<parameter authoringApp="PremierePro">
																	<parameterid>center</parameterid>
																	<name>Center</name>
																	<value>
																		<horiz>0</horiz>
																		<vert>0</vert>
																	</value>
																</parameter>
																<parameter authoringApp="PremierePro">
																	<parameterid>centerOffset</parameterid>
																	<name>Anchor Point</name>
																	<value>
																		<horiz>0</horiz>
																		<vert>0</vert>
																	</value>
																</parameter>
																<parameter authoringApp="PremierePro">
																	<parameterid>antiflicker</parameterid>
																	<name>Anti-flicker Filter</name>
																	<valuemin>0.0</valuemin>
																	<valuemax>1.0</valuemax>
																	<value>0</value>
																</parameter>
															</effect>
														</filter>
														<logginginfo>
															<description></description>
															<scene></scene>
															<shottake></shottake>
															<lognote></lognote>
															<good></good>
															<originalvideofilename></originalvideofilename>
															<originalaudiofilename></originalaudiofilename>
														</logginginfo>
														<colorinfo>
															<lut></lut>
															<lut1></lut1>
															<asc_sop></asc_sop>
															<asc_sat></asc_sat>
															<lut2></lut2>
														</colorinfo>
													</clipitem>
													<clipitem id="clipitem-505">
														<masterclipid>masterclip-156</masterclipid>
														<name>(missmacsbakery)_ClCDId7gMGb_IG.mp4</name>
														<enabled>TRUE</enabled>
														<duration>872</duration>
														<rate>
															<timebase>30</timebase>
															<ntsc>TRUE</ntsc>
														</rate>
														<start>2390</start>
														<end>2690</end>
														<in>572</in>
														<out>872</out>
														<pproTicksIn>4848081638400</pproTicksIn>
														<pproTicksOut>7390781798400</pproTicksOut>
														<alphatype>none</alphatype>
														<file id="file-151"/>
														<filter>
															<effect>
																<name>Basic Motion</name>
																<effectid>basic</effectid>
																<effectcategory>motion</effectcategory>
																<effecttype>motion</effecttype>
																<mediatype>video</mediatype>
																<pproBypass>false</pproBypass>
																<parameter authoringApp="PremierePro">
																	<parameterid>scale</parameterid>
																	<name>Scale</name>
																	<valuemin>0</valuemin>
																	<valuemax>1000</valuemax>
																	<value>150.25</value>
																</parameter>
																<parameter authoringApp="PremierePro">
																	<parameterid>rotation</parameterid>
																	<name>Rotation</name>
																	<valuemin>-8640</valuemin>
																	<valuemax>8640</valuemax>
																	<value>0</value>
																</parameter>
																<parameter authoringApp="PremierePro">
																	<parameterid>center</parameterid>
																	<name>Center</name>
																	<value>
																		<horiz>0</horiz>
																		<vert>0</vert>
																	</value>
																</parameter>
																<parameter authoringApp="PremierePro">
																	<parameterid>centerOffset</parameterid>
																	<name>Anchor Point</name>
																	<value>
																		<horiz>0</horiz>
																		<vert>0</vert>
																	</value>
																</parameter>
																<parameter authoringApp="PremierePro">
																	<parameterid>antiflicker</parameterid>
																	<name>Anti-flicker Filter</name>
																	<valuemin>0.0</valuemin>
																	<valuemax>1.0</valuemax>
																	<value>0</value>
																</parameter>
															</effect>
														</filter>
														<logginginfo>
															<description></description>
															<scene></scene>
															<shottake></shottake>
															<lognote></lognote>
															<good></good>
															<originalvideofilename></originalvideofilename>
															<originalaudiofilename></originalaudiofilename>
														</logginginfo>
														<colorinfo>
															<lut></lut>
															<lut1></lut1>
															<asc_sop></asc_sop>
															<asc_sat></asc_sat>
															<lut2></lut2>
														</colorinfo>
													</clipitem>
													<clipitem id="clipitem-506">
														<masterclipid>masterclip-159</masterclipid>
														<name>(missmacsbakery)_CLXgYq5hnoR_IG.mp4</name>
														<enabled>TRUE</enabled>
														<duration>491</duration>
														<rate>
															<timebase>30</timebase>
															<ntsc>TRUE</ntsc>
														</rate>
														<start>2690</start>
														<end>3163</end>
														<in>0</in>
														<out>473</out>
														<pproTicksIn>0</pproTicksIn>
														<pproTicksOut>4008990585600</pproTicksOut>
														<alphatype>none</alphatype>
														<pixelaspectratio>square</pixelaspectratio>
														<anamorphic>FALSE</anamorphic>
														<file id="file-154">
															<name>(missmacsbakery)_CLXgYq5hnoR_IG.mp4</name>
															<pathurl>file://localhost/Volumes/Satisfactum%20Satisfactorum/00_Hub%20World/3_Raw%20Files/Clip%20Providers/missmacsbakery/(missmacsbakery)_CLXgYq5hnoR_IG.mp4</pathurl>
															<rate>
																<timebase>30</timebase>
																<ntsc>FALSE</ntsc>
															</rate>
															<duration>492</duration>
															<timecode>
																<rate>
																	<timebase>30</timebase>
																	<ntsc>FALSE</ntsc>
																</rate>
																<string>00:00:00:00</string>
																<frame>0</frame>
																<displayformat>NDF</displayformat>
															</timecode>
															<media>
																<video>
																	<samplecharacteristics>
																		<rate>
																			<timebase>30</timebase>
																			<ntsc>FALSE</ntsc>
																		</rate>
																		<width>720</width>
																		<height>720</height>
																		<anamorphic>FALSE</anamorphic>
																		<pixelaspectratio>square</pixelaspectratio>
																		<fielddominance>none</fielddominance>
																	</samplecharacteristics>
																</video>
																<audio>
																	<samplecharacteristics>
																		<depth>16</depth>
																		<samplerate>44100</samplerate>
																	</samplecharacteristics>
																	<channelcount>2</channelcount>
																</audio>
															</media>
														</file>
														<filter>
															<effect>
																<name>Basic Motion</name>
																<effectid>basic</effectid>
																<effectcategory>motion</effectcategory>
																<effecttype>motion</effecttype>
																<mediatype>video</mediatype>
																<pproBypass>false</pproBypass>
																<parameter authoringApp="PremierePro">
																	<parameterid>scale</parameterid>
																	<name>Scale</name>
																	<valuemin>0</valuemin>
																	<valuemax>1000</valuemax>
																	<value>271.25</value>
																</parameter>
																<parameter authoringApp="PremierePro">
																	<parameterid>rotation</parameterid>
																	<name>Rotation</name>
																	<valuemin>-8640</valuemin>
																	<valuemax>8640</valuemax>
																	<value>0</value>
																</parameter>
																<parameter authoringApp="PremierePro">
																	<parameterid>center</parameterid>
																	<name>Center</name>
																	<value>
																		<horiz>0</horiz>
																		<vert>0</vert>
																	</value>
																</parameter>
																<parameter authoringApp="PremierePro">
																	<parameterid>centerOffset</parameterid>
																	<name>Anchor Point</name>
																	<value>
																		<horiz>0</horiz>
																		<vert>0</vert>
																	</value>
																</parameter>
																<parameter authoringApp="PremierePro">
																	<parameterid>antiflicker</parameterid>
																	<name>Anti-flicker Filter</name>
																	<valuemin>0.0</valuemin>
																	<valuemax>1.0</valuemax>
																	<value>0</value>
																</parameter>
															</effect>
														</filter>
														<filter>
															<effect>
																<name>Gaussian Blur</name>
																<effectid>Gaussian Blur</effectid>
																<effectcategory>Blur</effectcategory>
																<effecttype>motion</effecttype>
																<mediatype>video</mediatype>
																<pproBypass>false</pproBypass>
																<parameter authoringApp="PremierePro">
																	<parameterid>radius</parameterid>
																	<name>Radius</name>
																	<valuemin>0</valuemin>
																	<valuemax>100</valuemax>
																	<value>150</value>
																</parameter>
															</effect>
														</filter>
														<logginginfo>
															<description></description>
															<scene></scene>
															<shottake></shottake>
															<lognote></lognote>
															<good></good>
															<originalvideofilename></originalvideofilename>
															<originalaudiofilename></originalaudiofilename>
														</logginginfo>
														<colorinfo>
															<lut></lut>
															<lut1></lut1>
															<asc_sop></asc_sop>
															<asc_sat></asc_sat>
															<lut2></lut2>
														</colorinfo>
													</clipitem>
													<enabled>TRUE</enabled>
													<locked>FALSE</locked>
												</track>
												<track TL.SQTrackShy="0" TL.SQTrackExpandedHeight="25" TL.SQTrackExpanded="0" MZ.TrackTargeted="0">
													<clipitem id="clipitem-507">
														<masterclipid>masterclip-157</masterclipid>
														<name>(missmacsbakery)_Cm7U34WK1_p_IG.mp4</name>
														<enabled>TRUE</enabled>
														<duration>763</duration>
														<rate>
															<timebase>30</timebase>
															<ntsc>TRUE</ntsc>
														</rate>
														<start>0</start>
														<end>763</end>
														<in>0</in>
														<out>763</out>
														<pproTicksIn>0</pproTicksIn>
														<pproTicksOut>6466934073600</pproTicksOut>
														<alphatype>none</alphatype>
														<file id="file-152"/>
														<filter>
															<effect>
																<name>Basic Motion</name>
																<effectid>basic</effectid>
																<effectcategory>motion</effectcategory>
																<effecttype>motion</effecttype>
																<mediatype>video</mediatype>
																<pproBypass>false</pproBypass>
																<parameter authoringApp="PremierePro">
																	<parameterid>scale</parameterid>
																	<name>Scale</name>
																	<valuemin>0</valuemin>
																	<valuemax>1000</valuemax>
																	<value>100.25</value>
																</parameter>
																<parameter authoringApp="PremierePro">
																	<parameterid>rotation</parameterid>
																	<name>Rotation</name>
																	<valuemin>-8640</valuemin>
																	<valuemax>8640</valuemax>
																	<value>0</value>
																</parameter>
																<parameter authoringApp="PremierePro">
																	<parameterid>center</parameterid>
																	<name>Center</name>
																	<value>
																		<horiz>0</horiz>
																		<vert>0</vert>
																	</value>
																</parameter>
																<parameter authoringApp="PremierePro">
																	<parameterid>centerOffset</parameterid>
																	<name>Anchor Point</name>
																	<value>
																		<horiz>0</horiz>
																		<vert>0</vert>
																	</value>
																</parameter>
																<parameter authoringApp="PremierePro">
																	<parameterid>antiflicker</parameterid>
																	<name>Anti-flicker Filter</name>
																	<valuemin>0.0</valuemin>
																	<valuemax>1.0</valuemax>
																	<value>0</value>
																</parameter>
															</effect>
														</filter>
														<logginginfo>
															<description></description>
															<scene></scene>
															<shottake></shottake>
															<lognote></lognote>
															<good></good>
															<originalvideofilename></originalvideofilename>
															<originalaudiofilename></originalaudiofilename>
														</logginginfo>
														<colorinfo>
															<lut></lut>
															<lut1></lut1>
															<asc_sop></asc_sop>
															<asc_sat></asc_sat>
															<lut2></lut2>
														</colorinfo>
													</clipitem>
													<clipitem id="clipitem-508">
														<masterclipid>masterclip-158</masterclipid>
														<name>(missmacsbakery)_CKRylqdFHvW - 4_IG.mp4</name>
														<enabled>TRUE</enabled>
														<duration>533</duration>
														<rate>
															<timebase>30</timebase>
															<ntsc>TRUE</ntsc>
														</rate>
														<start>1285</start>
														<end>1818</end>
														<in>0</in>
														<out>533</out>
														<pproTicksIn>0</pproTicksIn>
														<pproTicksOut>4517530617600</pproTicksOut>
														<alphatype>none</alphatype>
														<file id="file-153"/>
														<filter>
															<effect>
																<name>Basic Motion</name>
																<effectid>basic</effectid>
																<effectcategory>motion</effectcategory>
																<effecttype>motion</effecttype>
																<mediatype>video</mediatype>
																<pproBypass>false</pproBypass>
																<parameter authoringApp="PremierePro">
																	<parameterid>scale</parameterid>
																	<name>Scale</name>
																	<valuemin>0</valuemin>
																	<valuemax>1000</valuemax>
																	<value>151.25</value>
																</parameter>
																<parameter authoringApp="PremierePro">
																	<parameterid>rotation</parameterid>
																	<name>Rotation</name>
																	<valuemin>-8640</valuemin>
																	<valuemax>8640</valuemax>
																	<value>0</value>
																</parameter>
																<parameter authoringApp="PremierePro">
																	<parameterid>center</parameterid>
																	<name>Center</name>
																	<value>
																		<horiz>0</horiz>
																		<vert>0</vert>
																	</value>
																</parameter>
																<parameter authoringApp="PremierePro">
																	<parameterid>centerOffset</parameterid>
																	<name>Anchor Point</name>
																	<value>
																		<horiz>0</horiz>
																		<vert>0</vert>
																	</value>
																</parameter>
																<parameter authoringApp="PremierePro">
																	<parameterid>antiflicker</parameterid>
																	<name>Anti-flicker Filter</name>
																	<valuemin>0.0</valuemin>
																	<valuemax>1.0</valuemax>
																	<value>0</value>
																</parameter>
															</effect>
														</filter>
														<logginginfo>
															<description></description>
															<scene></scene>
															<shottake></shottake>
															<lognote></lognote>
															<good></good>
															<originalvideofilename></originalvideofilename>
															<originalaudiofilename></originalaudiofilename>
														</logginginfo>
														<colorinfo>
															<lut></lut>
															<lut1></lut1>
															<asc_sop></asc_sop>
															<asc_sat></asc_sat>
															<lut2></lut2>
														</colorinfo>
													</clipitem>
													<clipitem id="clipitem-509">
														<masterclipid>masterclip-159</masterclipid>
														<name>(missmacsbakery)_CLXgYq5hnoR_IG.mp4</name>
														<enabled>TRUE</enabled>
														<duration>491</duration>
														<rate>
															<timebase>30</timebase>
															<ntsc>TRUE</ntsc>
														</rate>
														<start>2690</start>
														<end>3163</end>
														<in>0</in>
														<out>473</out>
														<pproTicksIn>0</pproTicksIn>
														<pproTicksOut>4008990585600</pproTicksOut>
														<alphatype>none</alphatype>
														<file id="file-154"/>
														<filter>
															<effect>
																<name>Basic Motion</name>
																<effectid>basic</effectid>
																<effectcategory>motion</effectcategory>
																<effecttype>motion</effecttype>
																<mediatype>video</mediatype>
																<pproBypass>false</pproBypass>
																<parameter authoringApp="PremierePro">
																	<parameterid>scale</parameterid>
																	<name>Scale</name>
																	<valuemin>0</valuemin>
																	<valuemax>1000</valuemax>
																	<value>150.25</value>
																</parameter>
																<parameter authoringApp="PremierePro">
																	<parameterid>rotation</parameterid>
																	<name>Rotation</name>
																	<valuemin>-8640</valuemin>
																	<valuemax>8640</valuemax>
																	<value>0</value>
																</parameter>
																<parameter authoringApp="PremierePro">
																	<parameterid>center</parameterid>
																	<name>Center</name>
																	<value>
																		<horiz>0</horiz>
																		<vert>0</vert>
																	</value>
																</parameter>
																<parameter authoringApp="PremierePro">
																	<parameterid>centerOffset</parameterid>
																	<name>Anchor Point</name>
																	<value>
																		<horiz>0</horiz>
																		<vert>0</vert>
																	</value>
																</parameter>
																<parameter authoringApp="PremierePro">
																	<parameterid>antiflicker</parameterid>
																	<name>Anti-flicker Filter</name>
																	<valuemin>0.0</valuemin>
																	<valuemax>1.0</valuemax>
																	<value>0</value>
																</parameter>
															</effect>
														</filter>
														<logginginfo>
															<description></description>
															<scene></scene>
															<shottake></shottake>
															<lognote></lognote>
															<good></good>
															<originalvideofilename></originalvideofilename>
															<originalaudiofilename></originalaudiofilename>
														</logginginfo>
														<colorinfo>
															<lut></lut>
															<lut1></lut1>
															<asc_sop></asc_sop>
															<asc_sat></asc_sat>
															<lut2></lut2>
														</colorinfo>
													</clipitem>
													<enabled>TRUE</enabled>
													<locked>FALSE</locked>
												</track>
												<track TL.SQTrackShy="0" TL.SQTrackExpandedHeight="25" TL.SQTrackExpanded="0" MZ.TrackTargeted="0">
													<clipitem id="clipitem-510">
														<masterclipid>masterclip-44</masterclipid>
														<name>missmacsbakery</name>
														<enabled>TRUE</enabled>
														<duration>5844</duration>
														<rate>
															<timebase>30</timebase>
															<ntsc>TRUE</ntsc>
														</rate>
														<start>0</start>
														<end>3163</end>
														<in>0</in>
														<out>3163</out>
														<pproTicksIn>0</pproTicksIn>
														<pproTicksOut>26808535353600</pproTicksOut>
														<alphatype>straight</alphatype>
														<file id="file-44"/>
														<filter>
															<effect>
																<name>Basic Motion</name>
																<effectid>basic</effectid>
																<effectcategory>motion</effectcategory>
																<effecttype>motion</effecttype>
																<mediatype>video</mediatype>
																<pproBypass>false</pproBypass>
																<parameter authoringApp="PremierePro">
																	<parameterid>scale</parameterid>
																	<name>Scale</name>
																	<valuemin>0</valuemin>
																	<valuemax>1000</valuemax>
																	<value>150</value>
																</parameter>
																<parameter authoringApp="PremierePro">
																	<parameterid>rotation</parameterid>
																	<name>Rotation</name>
																	<valuemin>-8640</valuemin>
																	<valuemax>8640</valuemax>
																	<value>0</value>
																</parameter>
																<parameter authoringApp="PremierePro">
																	<parameterid>center</parameterid>
																	<name>Center</name>
																	<value>
																		<horiz>0</horiz>
																		<vert>0</vert>
																	</value>
																</parameter>
																<parameter authoringApp="PremierePro">
																	<parameterid>centerOffset</parameterid>
																	<name>Anchor Point</name>
																	<value>
																		<horiz>0</horiz>
																		<vert>0</vert>
																	</value>
																</parameter>
																<parameter authoringApp="PremierePro">
																	<parameterid>antiflicker</parameterid>
																	<name>Anti-flicker Filter</name>
																	<valuemin>0.0</valuemin>
																	<valuemax>1.0</valuemax>
																	<value>0</value>
																</parameter>
															</effect>
														</filter>
														<logginginfo>
															<description></description>
															<scene></scene>
															<shottake></shottake>
															<lognote></lognote>
															<good></good>
															<originalvideofilename></originalvideofilename>
															<originalaudiofilename></originalaudiofilename>
														</logginginfo>
														<colorinfo>
															<lut></lut>
															<lut1></lut1>
															<asc_sop></asc_sop>
															<asc_sat></asc_sat>
															<lut2></lut2>
														</colorinfo>
														<labels>
															<label2>Rose</label2>
														</labels>
													</clipitem>
													<enabled>TRUE</enabled>
													<locked>FALSE</locked>
												</track>
												<track TL.SQTrackShy="0" TL.SQTrackExpandedHeight="25" TL.SQTrackExpanded="0" MZ.TrackTargeted="0">
													<clipitem id="clipitem-511">
														<masterclipid>masterclip-106</masterclipid>
														<name>Bug and Lower Nest</name>
														<enabled>TRUE</enabled>
														<duration>14721</duration>
														<rate>
															<timebase>30</timebase>
															<ntsc>TRUE</ntsc>
														</rate>
														<start>0</start>
														<end>3163</end>
														<in>0</in>
														<out>3163</out>
														<pproTicksIn>0</pproTicksIn>
														<pproTicksOut>26808535353600</pproTicksOut>
														<sequence id="sequence-1"/>
														<labels>
															<label2>Cerulean</label2>
														</labels>
													</clipitem>
													<enabled>TRUE</enabled>
													<locked>FALSE</locked>
												</track>
											</video>
											<audio>
												<numOutputChannels>2</numOutputChannels>
												<format>
													<samplecharacteristics>
														<depth>16</depth>
														<samplerate>44100</samplerate>
													</samplecharacteristics>
												</format>
												<outputs>
													<group>
														<index>1</index>
														<numchannels>1</numchannels>
														<downmix>0</downmix>
														<channel>
															<index>1</index>
														</channel>
													</group>
													<group>
														<index>2</index>
														<numchannels>1</numchannels>
														<downmix>0</downmix>
														<channel>
															<index>2</index>
														</channel>
													</group>
												</outputs>
												<track TL.SQTrackAudioKeyframeStyle="0" TL.SQTrackShy="0" TL.SQTrackExpandedHeight="25" TL.SQTrackExpanded="0" MZ.TrackTargeted="1" PannerCurrentValue="0.5" PannerIsInverted="true" PannerStartKeyframe="-91445760000000000,0.5,0,0,0,0,0,0" PannerName="Balance" currentExplodedTrackIndex="0" totalExplodedTrackCount="2" premiereTrackType="Stereo">
													<enabled>TRUE</enabled>
													<locked>FALSE</locked>
													<filter>
														<effect>
															<name>Audio Levels</name>
															<effectid>audiolevels</effectid>
															<effectcategory>audiolevels</effectcategory>
															<effecttype>audiolevels</effecttype>
															<mediatype>audio</mediatype>
															<parameter authoringApp="PremierePro">
																<parameterid>level</parameterid>
																<name>Level</name>
																<valuemin>0</valuemin>
																<valuemax>3.98109</valuemax>
																<value>0.706272</value>
															</parameter>
														</effect>
													</filter>
													<outputchannelindex>1</outputchannelindex>
												</track>
												<track TL.SQTrackAudioKeyframeStyle="0" TL.SQTrackShy="0" TL.SQTrackExpandedHeight="25" TL.SQTrackExpanded="0" MZ.TrackTargeted="1" PannerCurrentValue="0.5" PannerIsInverted="true" PannerStartKeyframe="-91445760000000000,0.5,0,0,0,0,0,0" PannerName="Balance" currentExplodedTrackIndex="1" totalExplodedTrackCount="2" premiereTrackType="Stereo">
													<enabled>TRUE</enabled>
													<locked>FALSE</locked>
													<filter>
														<effect>
															<name>Audio Levels</name>
															<effectid>audiolevels</effectid>
															<effectcategory>audiolevels</effectcategory>
															<effecttype>audiolevels</effecttype>
															<mediatype>audio</mediatype>
															<parameter authoringApp="PremierePro">
																<parameterid>level</parameterid>
																<name>Level</name>
																<valuemin>0</valuemin>
																<valuemax>3.98109</valuemax>
																<value>0.706272</value>
															</parameter>
														</effect>
													</filter>
													<outputchannelindex>2</outputchannelindex>
												</track>
											</audio>
										</media>
										<timecode>
											<rate>
												<timebase>30</timebase>
												<ntsc>TRUE</ntsc>
											</rate>
											<string>00:00:00:00</string>
											<frame>0</frame>
											<displayformat>NDF</displayformat>
										</timecode>
										<labels>
											<label2>Forest</label2>
										</labels>
										<logginginfo>
											<description></description>
											<scene></scene>
											<shottake></shottake>
											<lognote></lognote>
											<good></good>
											<originalvideofilename></originalvideofilename>
											<originalaudiofilename></originalaudiofilename>
										</logginginfo>
									</sequence>
									<sequence id="sequence-56" TL.SQAudioVisibleBase="0" TL.SQVideoVisibleBase="0" TL.SQVisibleBaseTime="0" TL.SQAVDividerPosition="0.5" TL.SQHideShyTracks="0" TL.SQHeaderWidth="236" Monitor.ProgramZoomOut="21443438016000" Monitor.ProgramZoomIn="0" TL.SQTimePerPixel="0.080707543941515011" AM.TrackVScrollPosition="0" AM.TrackScrollPosition="0" MZ.EditLine="3263131872000" MZ.Sequence.PreviewFrameSizeHeight="1080" MZ.Sequence.PreviewFrameSizeWidth="1920" MZ.Sequence.AudioTimeDisplayFormat="200" MZ.Sequence.PreviewRenderingClassID="1297106761" MZ.Sequence.PreviewRenderingPresetCodec="1297107278" MZ.Sequence.PreviewRenderingPresetPath="EncoderPresets/SequencePreview/795454d9-d3c2-429d-9474-923ab13b7018/I-Frame Only MPEG.epr" MZ.Sequence.PreviewUseMaxRenderQuality="false" MZ.Sequence.PreviewUseMaxBitDepth="false" MZ.Sequence.EditingModeGUID="795454d9-d3c2-429d-9474-923ab13b7018" MZ.Sequence.VideoTimeDisplayFormat="103" MZ.WorkOutPoint="23325036134400" MZ.WorkInPoint="0" explodedTracks="true">
										<uuid>0137cf77-3964-467d-a9dd-1efd6e6bae94</uuid>
										<duration>2530</duration>
										<rate>
											<timebase>30</timebase>
											<ntsc>TRUE</ntsc>
										</rate>
										<out>2530</out>
										<name>DIY_hanabira_1.5</name>
										<media>
											<video>
												<format>
													<samplecharacteristics>
														<rate>
															<timebase>30</timebase>
															<ntsc>TRUE</ntsc>
														</rate>
														<codec>
															<name>Apple ProRes 422</name>
															<appspecificdata>
																<appname>Final Cut Pro</appname>
																<appmanufacturer>Apple Inc.</appmanufacturer>
																<appversion>7.0</appversion>
																<data>
																	<qtcodec>
																		<codecname>Apple ProRes 422</codecname>
																		<codectypename>Apple ProRes 422</codectypename>
																		<codectypecode>apcn</codectypecode>
																		<codecvendorcode>appl</codecvendorcode>
																		<spatialquality>1024</spatialquality>
																		<temporalquality>0</temporalquality>
																		<keyframerate>0</keyframerate>
																		<datarate>0</datarate>
																	</qtcodec>
																</data>
															</appspecificdata>
														</codec>
														<width>1920</width>
														<height>1080</height>
														<anamorphic>FALSE</anamorphic>
														<pixelaspectratio>square</pixelaspectratio>
														<fielddominance>none</fielddominance>
														<colordepth>24</colordepth>
													</samplecharacteristics>
												</format>
												<track TL.SQTrackShy="0" TL.SQTrackExpandedHeight="25" TL.SQTrackExpanded="0" MZ.TrackTargeted="1">
													<clipitem id="clipitem-512">
														<masterclipid>masterclip-160</masterclipid>
														<name>(Hanabira工房)_DIY☺︎埃を被ったシルバニアの家を買ったので綺麗にしたい。のと最後に【重大発表】があります。_cGsBZHwIcaU_YT.mp4</name>
														<enabled>TRUE</enabled>
														<duration>166797</duration>
														<rate>
															<timebase>30</timebase>
															<ntsc>TRUE</ntsc>
														</rate>
														<start>0</start>
														<end>225</end>
														<in>53890</in>
														<out>54115</out>
														<pproTicksIn>456753705408000</pproTicksIn>
														<pproTicksOut>458660730528000</pproTicksOut>
														<alphatype>none</alphatype>
														<pixelaspectratio>square</pixelaspectratio>
														<anamorphic>FALSE</anamorphic>
														<file id="file-155">
															<name>(Hanabira工房)_DIY☺︎埃を被ったシルバニアの家を買ったので綺麗にしたい。のと最後に【重大発表】があります。_cGsBZHwIcaU_YT.mp4</name>
															<pathurl>file://localhost/Volumes/Satisfactum%20Satisfactorum/03_Weekly%20(Project%20Files,%20Main%20Segments)/OSTV/00_BACKUPS%20SLASH%20THE%20FUTURE/OSTV%2023-09-11/3_Raw%20Files/GDrive%20salvages/(Hanabira%e5%b7%a5%e6%88%bf)_DIY%e2%98%ba%ef%b8%8e%e5%9f%83%e3%82%92%e8%a2%ab%e3%81%a3%e3%81%9f%e3%82%b7%e3%83%ab%e3%83%8f%e3%82%99%e3%83%8b%e3%82%a2%e3%81%ae%e5%ae%b6%e3%82%92%e8%b2%b7%e3%81%a3%e3%81%9f%e3%81%ae%e3%81%a6%e3%82%99%e7%b6%ba%e9%ba%97%e3%81%ab%e3%81%97%e3%81%9f%e3%81%84%e3%80%82%e3%81%ae%e3%81%a8%e6%9c%80%e5%be%8c%e3%81%ab%e3%80%90%e9%87%8d%e5%a4%a7%e7%99%ba%e8%a1%a8%e3%80%91%e3%81%8b%e3%82%99%e3%81%82%e3%82%8a%e3%81%be%e3%81%99%e3%80%82_cGsBZHwIcaU_YT.mp4</pathurl>
															<rate>
																<timebase>60</timebase>
																<ntsc>TRUE</ntsc>
															</rate>
															<duration>166797</duration>
															<timecode>
																<rate>
																	<timebase>60</timebase>
																	<ntsc>TRUE</ntsc>
																</rate>
																<string>00:00:00:00</string>
																<frame>0</frame>
																<displayformat>NDF</displayformat>
															</timecode>
															<media>
																<video>
																	<samplecharacteristics>
																		<rate>
																			<timebase>60</timebase>
																			<ntsc>TRUE</ntsc>
																		</rate>
																		<width>1920</width>
																		<height>1080</height>
																		<anamorphic>FALSE</anamorphic>
																		<pixelaspectratio>square</pixelaspectratio>
																		<fielddominance>none</fielddominance>
																	</samplecharacteristics>
																</video>
																<audio>
																	<samplecharacteristics>
																		<depth>16</depth>
																		<samplerate>44100</samplerate>
																	</samplecharacteristics>
																	<channelcount>2</channelcount>
																</audio>
															</media>
														</file>
														<logginginfo>
															<description></description>
															<scene></scene>
															<shottake></shottake>
															<lognote>https://www.youtube.com/watch?v=cGsBZHwIcaU</lognote>
															<good></good>
															<originalvideofilename></originalvideofilename>
															<originalaudiofilename></originalaudiofilename>
														</logginginfo>
														<colorinfo>
															<lut></lut>
															<lut1></lut1>
															<asc_sop></asc_sop>
															<asc_sat></asc_sat>
															<lut2></lut2>
														</colorinfo>
														<labels>
															<label2>Iris</label2>
														</labels>
													</clipitem>
													<clipitem id="clipitem-513">
														<masterclipid>masterclip-160</masterclipid>
														<name>(Hanabira工房)_DIY☺︎埃を被ったシルバニアの家を買ったので綺麗にしたい。のと最後に【重大発表】があります。_cGsBZHwIcaU_YT.mp4</name>
														<enabled>TRUE</enabled>
														<duration>166797</duration>
														<rate>
															<timebase>30</timebase>
															<ntsc>TRUE</ntsc>
														</rate>
														<start>225</start>
														<end>511</end>
														<in>54115</in>
														<out>54401</out>
														<pproTicksIn>458660730528000</pproTicksIn>
														<pproTicksOut>461084771347200</pproTicksOut>
														<alphatype>none</alphatype>
														<file id="file-155"/>
														<logginginfo>
															<description></description>
															<scene></scene>
															<shottake></shottake>
															<lognote>https://www.youtube.com/watch?v=cGsBZHwIcaU</lognote>
															<good></good>
															<originalvideofilename></originalvideofilename>
															<originalaudiofilename></originalaudiofilename>
														</logginginfo>
														<colorinfo>
															<lut></lut>
															<lut1></lut1>
															<asc_sop></asc_sop>
															<asc_sat></asc_sat>
															<lut2></lut2>
														</colorinfo>
														<labels>
															<label2>Iris</label2>
														</labels>
													</clipitem>
													<clipitem id="clipitem-514">
														<masterclipid>masterclip-160</masterclipid>
														<name>(Hanabira工房)_DIY☺︎埃を被ったシルバニアの家を買ったので綺麗にしたい。のと最後に【重大発表】があります。_cGsBZHwIcaU_YT.mp4</name>
														<enabled>TRUE</enabled>
														<duration>166797</duration>
														<rate>
															<timebase>30</timebase>
															<ntsc>TRUE</ntsc>
														</rate>
														<start>511</start>
														<end>582</end>
														<in>54753</in>
														<out>54824</out>
														<pproTicksIn>464068206201600</pproTicksIn>
														<pproTicksOut>464669978572800</pproTicksOut>
														<alphatype>none</alphatype>
														<file id="file-155"/>
														<logginginfo>
															<description></description>
															<scene></scene>
															<shottake></shottake>
															<lognote>https://www.youtube.com/watch?v=cGsBZHwIcaU</lognote>
															<good></good>
															<originalvideofilename></originalvideofilename>
															<originalaudiofilename></originalaudiofilename>
														</logginginfo>
														<colorinfo>
															<lut></lut>
															<lut1></lut1>
															<asc_sop></asc_sop>
															<asc_sat></asc_sat>
															<lut2></lut2>
														</colorinfo>
														<labels>
															<label2>Iris</label2>
														</labels>
													</clipitem>
													<clipitem id="clipitem-515">
														<masterclipid>masterclip-160</masterclipid>
														<name>(Hanabira工房)_DIY☺︎埃を被ったシルバニアの家を買ったので綺麗にしたい。のと最後に【重大発表】があります。_cGsBZHwIcaU_YT.mp4</name>
														<enabled>TRUE</enabled>
														<duration>166797</duration>
														<rate>
															<timebase>30</timebase>
															<ntsc>TRUE</ntsc>
														</rate>
														<start>582</start>
														<end>785</end>
														<in>54824</in>
														<out>55027</out>
														<pproTicksIn>464669978572800</pproTicksIn>
														<pproTicksOut>466390539014400</pproTicksOut>
														<alphatype>none</alphatype>
														<file id="file-155"/>
														<logginginfo>
															<description></description>
															<scene></scene>
															<shottake></shottake>
															<lognote>https://www.youtube.com/watch?v=cGsBZHwIcaU</lognote>
															<good></good>
															<originalvideofilename></originalvideofilename>
															<originalaudiofilename></originalaudiofilename>
														</logginginfo>
														<colorinfo>
															<lut></lut>
															<lut1></lut1>
															<asc_sop></asc_sop>
															<asc_sat></asc_sat>
															<lut2></lut2>
														</colorinfo>
														<labels>
															<label2>Iris</label2>
														</labels>
													</clipitem>
													<clipitem id="clipitem-516">
														<masterclipid>masterclip-160</masterclipid>
														<name>(Hanabira工房)_DIY☺︎埃を被ったシルバニアの家を買ったので綺麗にしたい。のと最後に【重大発表】があります。_cGsBZHwIcaU_YT.mp4</name>
														<enabled>TRUE</enabled>
														<duration>166797</duration>
														<rate>
															<timebase>30</timebase>
															<ntsc>TRUE</ntsc>
														</rate>
														<start>785</start>
														<end>802</end>
														<in>56753</in>
														<out>56770</out>
														<pproTicksIn>481019540601600</pproTicksIn>
														<pproTicksOut>481163626944000</pproTicksOut>
														<alphatype>none</alphatype>
														<file id="file-155"/>
														<logginginfo>
															<description></description>
															<scene></scene>
															<shottake></shottake>
															<lognote>https://www.youtube.com/watch?v=cGsBZHwIcaU</lognote>
															<good></good>
															<originalvideofilename></originalvideofilename>
															<originalaudiofilename></originalaudiofilename>
														</logginginfo>
														<colorinfo>
															<lut></lut>
															<lut1></lut1>
															<asc_sop></asc_sop>
															<asc_sat></asc_sat>
															<lut2></lut2>
														</colorinfo>
														<labels>
															<label2>Iris</label2>
														</labels>
													</clipitem>
													<clipitem id="clipitem-517">
														<masterclipid>masterclip-160</masterclipid>
														<name>(Hanabira工房)_DIY☺︎埃を被ったシルバニアの家を買ったので綺麗にしたい。のと最後に【重大発表】があります。_cGsBZHwIcaU_YT.mp4</name>
														<enabled>TRUE</enabled>
														<duration>166797</duration>
														<rate>
															<timebase>30</timebase>
															<ntsc>TRUE</ntsc>
														</rate>
														<start>802</start>
														<end>856</end>
														<in>56770</in>
														<out>56824</out>
														<pproTicksIn>481163626944000</pproTicksIn>
														<pproTicksOut>481621312972800</pproTicksOut>
														<alphatype>none</alphatype>
														<file id="file-155"/>
														<logginginfo>
															<description></description>
															<scene></scene>
															<shottake></shottake>
															<lognote>https://www.youtube.com/watch?v=cGsBZHwIcaU</lognote>
															<good></good>
															<originalvideofilename></originalvideofilename>
															<originalaudiofilename></originalaudiofilename>
														</logginginfo>
														<colorinfo>
															<lut></lut>
															<lut1></lut1>
															<asc_sop></asc_sop>
															<asc_sat></asc_sat>
															<lut2></lut2>
														</colorinfo>
														<labels>
															<label2>Iris</label2>
														</labels>
													</clipitem>
													<clipitem id="clipitem-518">
														<masterclipid>masterclip-160</masterclipid>
														<name>(Hanabira工房)_DIY☺︎埃を被ったシルバニアの家を買ったので綺麗にしたい。のと最後に【重大発表】があります。_cGsBZHwIcaU_YT.mp4</name>
														<enabled>TRUE</enabled>
														<duration>166797</duration>
														<rate>
															<timebase>30</timebase>
															<ntsc>TRUE</ntsc>
														</rate>
														<start>856</start>
														<end>955</end>
														<in>59585</in>
														<out>59684</out>
														<pproTicksIn>505022630112000</pproTicksIn>
														<pproTicksOut>505861721164800</pproTicksOut>
														<alphatype>none</alphatype>
														<file id="file-155"/>
														<logginginfo>
															<description></description>
															<scene></scene>
															<shottake></shottake>
															<lognote>https://www.youtube.com/watch?v=cGsBZHwIcaU</lognote>
															<good></good>
															<originalvideofilename></originalvideofilename>
															<originalaudiofilename></originalaudiofilename>
														</logginginfo>
														<colorinfo>
															<lut></lut>
															<lut1></lut1>
															<asc_sop></asc_sop>
															<asc_sat></asc_sat>
															<lut2></lut2>
														</colorinfo>
														<labels>
															<label2>Iris</label2>
														</labels>
													</clipitem>
													<clipitem id="clipitem-519">
														<masterclipid>masterclip-160</masterclipid>
														<name>(Hanabira工房)_DIY☺︎埃を被ったシルバニアの家を買ったので綺麗にしたい。のと最後に【重大発表】があります。_cGsBZHwIcaU_YT.mp4</name>
														<enabled>TRUE</enabled>
														<duration>166797</duration>
														<rate>
															<timebase>30</timebase>
															<ntsc>TRUE</ntsc>
														</rate>
														<start>955</start>
														<end>1045</end>
														<in>59684</in>
														<out>59774</out>
														<pproTicksIn>505861721164800</pproTicksIn>
														<pproTicksOut>506624531212800</pproTicksOut>
														<alphatype>none</alphatype>
														<file id="file-155"/>
														<logginginfo>
															<description></description>
															<scene></scene>
															<shottake></shottake>
															<lognote>https://www.youtube.com/watch?v=cGsBZHwIcaU</lognote>
															<good></good>
															<originalvideofilename></originalvideofilename>
															<originalaudiofilename></originalaudiofilename>
														</logginginfo>
														<colorinfo>
															<lut></lut>
															<lut1></lut1>
															<asc_sop></asc_sop>
															<asc_sat></asc_sat>
															<lut2></lut2>
														</colorinfo>
														<labels>
															<label2>Iris</label2>
														</labels>
													</clipitem>
													<clipitem id="clipitem-520">
														<masterclipid>masterclip-160</masterclipid>
														<name>(Hanabira工房)_DIY☺︎埃を被ったシルバニアの家を買ったので綺麗にしたい。のと最後に【重大発表】があります。_cGsBZHwIcaU_YT.mp4</name>
														<enabled>TRUE</enabled>
														<duration>166797</duration>
														<rate>
															<timebase>30</timebase>
															<ntsc>TRUE</ntsc>
														</rate>
														<start>1045</start>
														<end>1114</end>
														<in>59774</in>
														<out>59843</out>
														<pproTicksIn>506624531212800</pproTicksIn>
														<pproTicksOut>507209352249600</pproTicksOut>
														<alphatype>none</alphatype>
														<file id="file-155"/>
														<logginginfo>
															<description></description>
															<scene></scene>
															<shottake></shottake>
															<lognote>https://www.youtube.com/watch?v=cGsBZHwIcaU</lognote>
															<good></good>
															<originalvideofilename></originalvideofilename>
															<originalaudiofilename></originalaudiofilename>
														</logginginfo>
														<colorinfo>
															<lut></lut>
															<lut1></lut1>
															<asc_sop></asc_sop>
															<asc_sat></asc_sat>
															<lut2></lut2>
														</colorinfo>
														<labels>
															<label2>Iris</label2>
														</labels>
													</clipitem>
													<clipitem id="clipitem-521">
														<masterclipid>masterclip-160</masterclipid>
														<name>(Hanabira工房)_DIY☺︎埃を被ったシルバニアの家を買ったので綺麗にしたい。のと最後に【重大発表】があります。_cGsBZHwIcaU_YT.mp4</name>
														<enabled>TRUE</enabled>
														<duration>166797</duration>
														<rate>
															<timebase>30</timebase>
															<ntsc>TRUE</ntsc>
														</rate>
														<start>1114</start>
														<end>1312</end>
														<in>60636</in>
														<out>60834</out>
														<pproTicksIn>513930556339200</pproTicksIn>
														<pproTicksOut>515608738444800</pproTicksOut>
														<alphatype>none</alphatype>
														<file id="file-155"/>
														<logginginfo>
															<description></description>
															<scene></scene>
															<shottake></shottake>
															<lognote>https://www.youtube.com/watch?v=cGsBZHwIcaU</lognote>
															<good></good>
															<originalvideofilename></originalvideofilename>
															<originalaudiofilename></originalaudiofilename>
														</logginginfo>
														<colorinfo>
															<lut></lut>
															<lut1></lut1>
															<asc_sop></asc_sop>
															<asc_sat></asc_sat>
															<lut2></lut2>
														</colorinfo>
														<labels>
															<label2>Iris</label2>
														</labels>
													</clipitem>
													<clipitem id="clipitem-522">
														<masterclipid>masterclip-160</masterclipid>
														<name>(Hanabira工房)_DIY☺︎埃を被ったシルバニアの家を買ったので綺麗にしたい。のと最後に【重大発表】があります。_cGsBZHwIcaU_YT.mp4</name>
														<enabled>TRUE</enabled>
														<duration>166797</duration>
														<rate>
															<timebase>30</timebase>
															<ntsc>TRUE</ntsc>
														</rate>
														<start>1312</start>
														<end>1369</end>
														<in>61786</in>
														<out>61843</out>
														<pproTicksIn>523677573619200</pproTicksIn>
														<pproTicksOut>524160686649600</pproTicksOut>
														<alphatype>none</alphatype>
														<file id="file-155"/>
														<logginginfo>
															<description></description>
															<scene></scene>
															<shottake></shottake>
															<lognote>https://www.youtube.com/watch?v=cGsBZHwIcaU</lognote>
															<good></good>
															<originalvideofilename></originalvideofilename>
															<originalaudiofilename></originalaudiofilename>
														</logginginfo>
														<colorinfo>
															<lut></lut>
															<lut1></lut1>
															<asc_sop></asc_sop>
															<asc_sat></asc_sat>
															<lut2></lut2>
														</colorinfo>
														<labels>
															<label2>Iris</label2>
														</labels>
													</clipitem>
													<clipitem id="clipitem-523">
														<masterclipid>masterclip-160</masterclipid>
														<name>(Hanabira工房)_DIY☺︎埃を被ったシルバニアの家を買ったので綺麗にしたい。のと最後に【重大発表】があります。_cGsBZHwIcaU_YT.mp4</name>
														<enabled>TRUE</enabled>
														<duration>166797</duration>
														<rate>
															<timebase>30</timebase>
															<ntsc>TRUE</ntsc>
														</rate>
														<start>1369</start>
														<end>1430</end>
														<in>61843</in>
														<out>61904</out>
														<pproTicksIn>524160686649600</pproTicksIn>
														<pproTicksOut>524677702348800</pproTicksOut>
														<alphatype>none</alphatype>
														<file id="file-155"/>
														<logginginfo>
															<description></description>
															<scene></scene>
															<shottake></shottake>
															<lognote>https://www.youtube.com/watch?v=cGsBZHwIcaU</lognote>
															<good></good>
															<originalvideofilename></originalvideofilename>
															<originalaudiofilename></originalaudiofilename>
														</logginginfo>
														<colorinfo>
															<lut></lut>
															<lut1></lut1>
															<asc_sop></asc_sop>
															<asc_sat></asc_sat>
															<lut2></lut2>
														</colorinfo>
														<labels>
															<label2>Iris</label2>
														</labels>
													</clipitem>
													<clipitem id="clipitem-524">
														<masterclipid>masterclip-160</masterclipid>
														<name>(Hanabira工房)_DIY☺︎埃を被ったシルバニアの家を買ったので綺麗にしたい。のと最後に【重大発表】があります。_cGsBZHwIcaU_YT.mp4</name>
														<enabled>TRUE</enabled>
														<duration>166797</duration>
														<rate>
															<timebase>30</timebase>
															<ntsc>TRUE</ntsc>
														</rate>
														<start>1430</start>
														<end>1515</end>
														<in>61904</in>
														<out>61989</out>
														<pproTicksIn>524677702348800</pproTicksIn>
														<pproTicksOut>525398134060800</pproTicksOut>
														<alphatype>none</alphatype>
														<file id="file-155"/>
														<logginginfo>
															<description></description>
															<scene></scene>
															<shottake></shottake>
															<lognote>https://www.youtube.com/watch?v=cGsBZHwIcaU</lognote>
															<good></good>
															<originalvideofilename></originalvideofilename>
															<originalaudiofilename></originalaudiofilename>
														</logginginfo>
														<colorinfo>
															<lut></lut>
															<lut1></lut1>
															<asc_sop></asc_sop>
															<asc_sat></asc_sat>
															<lut2></lut2>
														</colorinfo>
														<labels>
															<label2>Iris</label2>
														</labels>
													</clipitem>
													<clipitem id="clipitem-525">
														<masterclipid>masterclip-160</masterclipid>
														<name>(Hanabira工房)_DIY☺︎埃を被ったシルバニアの家を買ったので綺麗にしたい。のと最後に【重大発表】があります。_cGsBZHwIcaU_YT.mp4</name>
														<enabled>TRUE</enabled>
														<duration>166797</duration>
														<rate>
															<timebase>30</timebase>
															<ntsc>TRUE</ntsc>
														</rate>
														<start>1515</start>
														<end>1530</end>
														<in>62040</in>
														<out>62055</out>
														<pproTicksIn>525830393088000</pproTicksIn>
														<pproTicksOut>525957528096000</pproTicksOut>
														<alphatype>none</alphatype>
														<file id="file-155"/>
														<logginginfo>
															<description></description>
															<scene></scene>
															<shottake></shottake>
															<lognote>https://www.youtube.com/watch?v=cGsBZHwIcaU</lognote>
															<good></good>
															<originalvideofilename></originalvideofilename>
															<originalaudiofilename></originalaudiofilename>
														</logginginfo>
														<colorinfo>
															<lut></lut>
															<lut1></lut1>
															<asc_sop></asc_sop>
															<asc_sat></asc_sat>
															<lut2></lut2>
														</colorinfo>
														<labels>
															<label2>Iris</label2>
														</labels>
													</clipitem>
													<clipitem id="clipitem-526">
														<masterclipid>masterclip-160</masterclipid>
														<name>(Hanabira工房)_DIY☺︎埃を被ったシルバニアの家を買ったので綺麗にしたい。のと最後に【重大発表】があります。_cGsBZHwIcaU_YT.mp4</name>
														<enabled>TRUE</enabled>
														<duration>166797</duration>
														<rate>
															<timebase>30</timebase>
															<ntsc>TRUE</ntsc>
														</rate>
														<start>1530</start>
														<end>1625</end>
														<in>62055</in>
														<out>62150</out>
														<pproTicksIn>525957528096000</pproTicksIn>
														<pproTicksOut>526762716480000</pproTicksOut>
														<alphatype>none</alphatype>
														<file id="file-155"/>
														<logginginfo>
															<description></description>
															<scene></scene>
															<shottake></shottake>
															<lognote>https://www.youtube.com/watch?v=cGsBZHwIcaU</lognote>
															<good></good>
															<originalvideofilename></originalvideofilename>
															<originalaudiofilename></originalaudiofilename>
														</logginginfo>
														<colorinfo>
															<lut></lut>
															<lut1></lut1>
															<asc_sop></asc_sop>
															<asc_sat></asc_sat>
															<lut2></lut2>
														</colorinfo>
														<labels>
															<label2>Iris</label2>
														</labels>
													</clipitem>
													<clipitem id="clipitem-527">
														<masterclipid>masterclip-160</masterclipid>
														<name>(Hanabira工房)_DIY☺︎埃を被ったシルバニアの家を買ったので綺麗にしたい。のと最後に【重大発表】があります。_cGsBZHwIcaU_YT.mp4</name>
														<enabled>TRUE</enabled>
														<duration>166797</duration>
														<rate>
															<timebase>30</timebase>
															<ntsc>TRUE</ntsc>
														</rate>
														<start>1625</start>
														<end>1707</end>
														<in>62150</in>
														<out>62232</out>
														<pproTicksIn>526762716480000</pproTicksIn>
														<pproTicksOut>527457721190400</pproTicksOut>
														<alphatype>none</alphatype>
														<file id="file-155"/>
														<logginginfo>
															<description></description>
															<scene></scene>
															<shottake></shottake>
															<lognote>https://www.youtube.com/watch?v=cGsBZHwIcaU</lognote>
															<good></good>
															<originalvideofilename></originalvideofilename>
															<originalaudiofilename></originalaudiofilename>
														</logginginfo>
														<colorinfo>
															<lut></lut>
															<lut1></lut1>
															<asc_sop></asc_sop>
															<asc_sat></asc_sat>
															<lut2></lut2>
														</colorinfo>
														<labels>
															<label2>Iris</label2>
														</labels>
													</clipitem>
													<clipitem id="clipitem-528">
														<masterclipid>masterclip-160</masterclipid>
														<name>(Hanabira工房)_DIY☺︎埃を被ったシルバニアの家を買ったので綺麗にしたい。のと最後に【重大発表】があります。_cGsBZHwIcaU_YT.mp4</name>
														<enabled>TRUE</enabled>
														<duration>166797</duration>
														<rate>
															<timebase>30</timebase>
															<ntsc>TRUE</ntsc>
														</rate>
														<start>1707</start>
														<end>1828</end>
														<in>62232</in>
														<out>62353</out>
														<pproTicksIn>527457721190400</pproTicksIn>
														<pproTicksOut>528483276921600</pproTicksOut>
														<alphatype>none</alphatype>
														<file id="file-155"/>
														<logginginfo>
															<description></description>
															<scene></scene>
															<shottake></shottake>
															<lognote>https://www.youtube.com/watch?v=cGsBZHwIcaU</lognote>
															<good></good>
															<originalvideofilename></originalvideofilename>
															<originalaudiofilename></originalaudiofilename>
														</logginginfo>
														<colorinfo>
															<lut></lut>
															<lut1></lut1>
															<asc_sop></asc_sop>
															<asc_sat></asc_sat>
															<lut2></lut2>
														</colorinfo>
														<labels>
															<label2>Iris</label2>
														</labels>
													</clipitem>
													<clipitem id="clipitem-529">
														<masterclipid>masterclip-160</masterclipid>
														<name>(Hanabira工房)_DIY☺︎埃を被ったシルバニアの家を買ったので綺麗にしたい。のと最後に【重大発表】があります。_cGsBZHwIcaU_YT.mp4</name>
														<enabled>TRUE</enabled>
														<duration>166797</duration>
														<rate>
															<timebase>30</timebase>
															<ntsc>TRUE</ntsc>
														</rate>
														<start>1828</start>
														<end>1915</end>
														<in>62353</in>
														<out>62440</out>
														<pproTicksIn>528483276921600</pproTicksIn>
														<pproTicksOut>529220659968000</pproTicksOut>
														<alphatype>none</alphatype>
														<file id="file-155"/>
														<logginginfo>
															<description></description>
															<scene></scene>
															<shottake></shottake>
															<lognote>https://www.youtube.com/watch?v=cGsBZHwIcaU</lognote>
															<good></good>
															<originalvideofilename></originalvideofilename>
															<originalaudiofilename></originalaudiofilename>
														</logginginfo>
														<colorinfo>
															<lut></lut>
															<lut1></lut1>
															<asc_sop></asc_sop>
															<asc_sat></asc_sat>
															<lut2></lut2>
														</colorinfo>
														<labels>
															<label2>Iris</label2>
														</labels>
													</clipitem>
													<clipitem id="clipitem-530">
														<masterclipid>masterclip-160</masterclipid>
														<name>(Hanabira工房)_DIY☺︎埃を被ったシルバニアの家を買ったので綺麗にしたい。のと最後に【重大発表】があります。_cGsBZHwIcaU_YT.mp4</name>
														<enabled>TRUE</enabled>
														<duration>166797</duration>
														<rate>
															<timebase>30</timebase>
															<ntsc>TRUE</ntsc>
														</rate>
														<start>1915</start>
														<end>2042</end>
														<in>62440</in>
														<out>62567</out>
														<pproTicksIn>529220659968000</pproTicksIn>
														<pproTicksOut>530297069702400</pproTicksOut>
														<alphatype>none</alphatype>
														<file id="file-155"/>
														<logginginfo>
															<description></description>
															<scene></scene>
															<shottake></shottake>
															<lognote>https://www.youtube.com/watch?v=cGsBZHwIcaU</lognote>
															<good></good>
															<originalvideofilename></originalvideofilename>
															<originalaudiofilename></originalaudiofilename>
														</logginginfo>
														<colorinfo>
															<lut></lut>
															<lut1></lut1>
															<asc_sop></asc_sop>
															<asc_sat></asc_sat>
															<lut2></lut2>
														</colorinfo>
														<labels>
															<label2>Iris</label2>
														</labels>
													</clipitem>
													<clipitem id="clipitem-531">
														<masterclipid>masterclip-160</masterclipid>
														<name>(Hanabira工房)_DIY☺︎埃を被ったシルバニアの家を買ったので綺麗にしたい。のと最後に【重大発表】があります。_cGsBZHwIcaU_YT.mp4</name>
														<enabled>TRUE</enabled>
														<duration>166797</duration>
														<rate>
															<timebase>30</timebase>
															<ntsc>TRUE</ntsc>
														</rate>
														<start>2042</start>
														<end>2096</end>
														<in>68254</in>
														<out>68308</out>
														<pproTicksIn>578498189068800</pproTicksIn>
														<pproTicksOut>578955875097600</pproTicksOut>
														<alphatype>none</alphatype>
														<file id="file-155"/>
														<logginginfo>
															<description></description>
															<scene></scene>
															<shottake></shottake>
															<lognote>https://www.youtube.com/watch?v=cGsBZHwIcaU</lognote>
															<good></good>
															<originalvideofilename></originalvideofilename>
															<originalaudiofilename></originalaudiofilename>
														</logginginfo>
														<colorinfo>
															<lut></lut>
															<lut1></lut1>
															<asc_sop></asc_sop>
															<asc_sat></asc_sat>
															<lut2></lut2>
														</colorinfo>
														<labels>
															<label2>Iris</label2>
														</labels>
													</clipitem>
													<clipitem id="clipitem-532">
														<masterclipid>masterclip-160</masterclipid>
														<name>(Hanabira工房)_DIY☺︎埃を被ったシルバニアの家を買ったので綺麗にしたい。のと最後に【重大発表】があります。_cGsBZHwIcaU_YT.mp4</name>
														<enabled>TRUE</enabled>
														<duration>166797</duration>
														<rate>
															<timebase>30</timebase>
															<ntsc>TRUE</ntsc>
														</rate>
														<start>2096</start>
														<end>2166</end>
														<in>68308</in>
														<out>68378</out>
														<pproTicksIn>578955875097600</pproTicksIn>
														<pproTicksOut>579549171801600</pproTicksOut>
														<alphatype>none</alphatype>
														<file id="file-155"/>
														<logginginfo>
															<description></description>
															<scene></scene>
															<shottake></shottake>
															<lognote>https://www.youtube.com/watch?v=cGsBZHwIcaU</lognote>
															<good></good>
															<originalvideofilename></originalvideofilename>
															<originalaudiofilename></originalaudiofilename>
														</logginginfo>
														<colorinfo>
															<lut></lut>
															<lut1></lut1>
															<asc_sop></asc_sop>
															<asc_sat></asc_sat>
															<lut2></lut2>
														</colorinfo>
														<labels>
															<label2>Iris</label2>
														</labels>
													</clipitem>
													<clipitem id="clipitem-533">
														<masterclipid>masterclip-160</masterclipid>
														<name>(Hanabira工房)_DIY☺︎埃を被ったシルバニアの家を買ったので綺麗にしたい。のと最後に【重大発表】があります。_cGsBZHwIcaU_YT.mp4</name>
														<enabled>TRUE</enabled>
														<duration>166797</duration>
														<rate>
															<timebase>30</timebase>
															<ntsc>TRUE</ntsc>
														</rate>
														<start>2166</start>
														<end>2209</end>
														<in>68436</in>
														<out>68479</out>
														<pproTicksIn>580040760499200</pproTicksIn>
														<pproTicksOut>580405214188800</pproTicksOut>
														<alphatype>none</alphatype>
														<file id="file-155"/>
														<logginginfo>
															<description></description>
															<scene></scene>
															<shottake></shottake>
															<lognote>https://www.youtube.com/watch?v=cGsBZHwIcaU</lognote>
															<good></good>
															<originalvideofilename></originalvideofilename>
															<originalaudiofilename></originalaudiofilename>
														</logginginfo>
														<colorinfo>
															<lut></lut>
															<lut1></lut1>
															<asc_sop></asc_sop>
															<asc_sat></asc_sat>
															<lut2></lut2>
														</colorinfo>
														<labels>
															<label2>Iris</label2>
														</labels>
													</clipitem>
													<clipitem id="clipitem-534">
														<masterclipid>masterclip-160</masterclipid>
														<name>(Hanabira工房)_DIY☺︎埃を被ったシルバニアの家を買ったので綺麗にしたい。のと最後に【重大発表】があります。_cGsBZHwIcaU_YT.mp4</name>
														<enabled>TRUE</enabled>
														<duration>166797</duration>
														<rate>
															<timebase>30</timebase>
															<ntsc>TRUE</ntsc>
														</rate>
														<start>2209</start>
														<end>2429</end>
														<in>68479</in>
														<out>68699</out>
														<pproTicksIn>580405214188800</pproTicksIn>
														<pproTicksOut>582269860972800</pproTicksOut>
														<alphatype>none</alphatype>
														<file id="file-155"/>
														<logginginfo>
															<description></description>
															<scene></scene>
															<shottake></shottake>
															<lognote>https://www.youtube.com/watch?v=cGsBZHwIcaU</lognote>
															<good></good>
															<originalvideofilename></originalvideofilename>
															<originalaudiofilename></originalaudiofilename>
														</logginginfo>
														<colorinfo>
															<lut></lut>
															<lut1></lut1>
															<asc_sop></asc_sop>
															<asc_sat></asc_sat>
															<lut2></lut2>
														</colorinfo>
														<labels>
															<label2>Iris</label2>
														</labels>
													</clipitem>
													<clipitem id="clipitem-535">
														<masterclipid>masterclip-160</masterclipid>
														<name>(Hanabira工房)_DIY☺︎埃を被ったシルバニアの家を買ったので綺麗にしたい。のと最後に【重大発表】があります。_cGsBZHwIcaU_YT.mp4</name>
														<enabled>TRUE</enabled>
														<duration>166797</duration>
														<rate>
															<timebase>30</timebase>
															<ntsc>TRUE</ntsc>
														</rate>
														<start>2429</start>
														<end>2530</end>
														<in>164704</in>
														<out>164805</out>
														<pproTicksIn>1395976290508800</pproTicksIn>
														<pproTicksOut>1396832332896000</pproTicksOut>
														<alphatype>none</alphatype>
														<file id="file-155"/>
														<logginginfo>
															<description></description>
															<scene></scene>
															<shottake></shottake>
															<lognote>https://www.youtube.com/watch?v=cGsBZHwIcaU</lognote>
															<good></good>
															<originalvideofilename></originalvideofilename>
															<originalaudiofilename></originalaudiofilename>
														</logginginfo>
														<colorinfo>
															<lut></lut>
															<lut1></lut1>
															<asc_sop></asc_sop>
															<asc_sat></asc_sat>
															<lut2></lut2>
														</colorinfo>
														<labels>
															<label2>Iris</label2>
														</labels>
													</clipitem>
													<enabled>TRUE</enabled>
													<locked>FALSE</locked>
												</track>
												<track TL.SQTrackShy="0" TL.SQTrackExpandedHeight="25" TL.SQTrackExpanded="0" MZ.TrackTargeted="0">
													<clipitem id="clipitem-536">
														<masterclipid>masterclip-74</masterclipid>
														<name>Hanabira工房&amp;#10;</name>
														<enabled>TRUE</enabled>
														<duration>5844</duration>
														<rate>
															<timebase>30</timebase>
															<ntsc>TRUE</ntsc>
														</rate>
														<start>0</start>
														<end>2530</end>
														<in>0</in>
														<out>2530</out>
														<pproTicksIn>0</pproTicksIn>
														<pproTicksOut>21443438016000</pproTicksOut>
														<alphatype>straight</alphatype>
														<file id="file-74"/>
														<filter>
															<effect>
																<name>Basic Motion</name>
																<effectid>basic</effectid>
																<effectcategory>motion</effectcategory>
																<effecttype>motion</effecttype>
																<mediatype>video</mediatype>
																<pproBypass>false</pproBypass>
																<parameter authoringApp="PremierePro">
																	<parameterid>scale</parameterid>
																	<name>Scale</name>
																	<valuemin>0</valuemin>
																	<valuemax>1000</valuemax>
																	<value>150</value>
																</parameter>
																<parameter authoringApp="PremierePro">
																	<parameterid>rotation</parameterid>
																	<name>Rotation</name>
																	<valuemin>-8640</valuemin>
																	<valuemax>8640</valuemax>
																	<value>0</value>
																</parameter>
																<parameter authoringApp="PremierePro">
																	<parameterid>center</parameterid>
																	<name>Center</name>
																	<value>
																		<horiz>0</horiz>
																		<vert>0</vert>
																	</value>
																</parameter>
																<parameter authoringApp="PremierePro">
																	<parameterid>centerOffset</parameterid>
																	<name>Anchor Point</name>
																	<value>
																		<horiz>0</horiz>
																		<vert>0</vert>
																	</value>
																</parameter>
																<parameter authoringApp="PremierePro">
																	<parameterid>antiflicker</parameterid>
																	<name>Anti-flicker Filter</name>
																	<valuemin>0.0</valuemin>
																	<valuemax>1.0</valuemax>
																	<value>0</value>
																</parameter>
															</effect>
														</filter>
														<logginginfo>
															<description></description>
															<scene></scene>
															<shottake></shottake>
															<lognote></lognote>
															<good></good>
															<originalvideofilename></originalvideofilename>
															<originalaudiofilename></originalaudiofilename>
														</logginginfo>
														<colorinfo>
															<lut></lut>
															<lut1></lut1>
															<asc_sop></asc_sop>
															<asc_sat></asc_sat>
															<lut2></lut2>
														</colorinfo>
														<labels>
															<label2>Rose</label2>
														</labels>
													</clipitem>
													<enabled>TRUE</enabled>
													<locked>FALSE</locked>
												</track>
												<track TL.SQTrackShy="0" TL.SQTrackExpandedHeight="25" TL.SQTrackExpanded="0" MZ.TrackTargeted="0">
													<clipitem id="clipitem-537">
														<masterclipid>masterclip-106</masterclipid>
														<name>Bug and Lower Nest</name>
														<enabled>TRUE</enabled>
														<duration>14721</duration>
														<rate>
															<timebase>30</timebase>
															<ntsc>TRUE</ntsc>
														</rate>
														<start>0</start>
														<end>2530</end>
														<in>0</in>
														<out>2530</out>
														<pproTicksIn>0</pproTicksIn>
														<pproTicksOut>21443438016000</pproTicksOut>
														<sequence id="sequence-1"/>
														<labels>
															<label2>Cerulean</label2>
														</labels>
													</clipitem>
													<enabled>TRUE</enabled>
													<locked>FALSE</locked>
												</track>
											</video>
											<audio>
												<numOutputChannels>2</numOutputChannels>
												<format>
													<samplecharacteristics>
														<depth>16</depth>
														<samplerate>44100</samplerate>
													</samplecharacteristics>
												</format>
												<outputs>
													<group>
														<index>1</index>
														<numchannels>1</numchannels>
														<downmix>0</downmix>
														<channel>
															<index>1</index>
														</channel>
													</group>
													<group>
														<index>2</index>
														<numchannels>1</numchannels>
														<downmix>0</downmix>
														<channel>
															<index>2</index>
														</channel>
													</group>
												</outputs>
												<track TL.SQTrackAudioKeyframeStyle="0" TL.SQTrackShy="0" TL.SQTrackExpandedHeight="25" TL.SQTrackExpanded="0" MZ.TrackTargeted="1" PannerCurrentValue="0.5" PannerIsInverted="true" PannerStartKeyframe="-91445760000000000,0.5,0,0,0,0,0,0" PannerName="Balance" currentExplodedTrackIndex="0" totalExplodedTrackCount="2" premiereTrackType="Stereo">
													<enabled>TRUE</enabled>
													<locked>FALSE</locked>
													<filter>
														<effect>
															<name>Audio Levels</name>
															<effectid>audiolevels</effectid>
															<effectcategory>audiolevels</effectcategory>
															<effecttype>audiolevels</effecttype>
															<mediatype>audio</mediatype>
															<parameter authoringApp="PremierePro">
																<parameterid>level</parameterid>
																<name>Level</name>
																<valuemin>0</valuemin>
																<valuemax>3.98109</valuemax>
																<value>0.706272</value>
															</parameter>
														</effect>
													</filter>
													<outputchannelindex>1</outputchannelindex>
												</track>
												<track TL.SQTrackAudioKeyframeStyle="0" TL.SQTrackShy="0" TL.SQTrackExpandedHeight="25" TL.SQTrackExpanded="0" MZ.TrackTargeted="1" PannerCurrentValue="0.5" PannerIsInverted="true" PannerStartKeyframe="-91445760000000000,0.5,0,0,0,0,0,0" PannerName="Balance" currentExplodedTrackIndex="1" totalExplodedTrackCount="2" premiereTrackType="Stereo">
													<enabled>TRUE</enabled>
													<locked>FALSE</locked>
													<filter>
														<effect>
															<name>Audio Levels</name>
															<effectid>audiolevels</effectid>
															<effectcategory>audiolevels</effectcategory>
															<effecttype>audiolevels</effecttype>
															<mediatype>audio</mediatype>
															<parameter authoringApp="PremierePro">
																<parameterid>level</parameterid>
																<name>Level</name>
																<valuemin>0</valuemin>
																<valuemax>3.98109</valuemax>
																<value>0.706272</value>
															</parameter>
														</effect>
													</filter>
													<outputchannelindex>2</outputchannelindex>
												</track>
											</audio>
										</media>
										<timecode>
											<rate>
												<timebase>30</timebase>
												<ntsc>TRUE</ntsc>
											</rate>
											<string>00:00:00:00</string>
											<frame>0</frame>
											<displayformat>NDF</displayformat>
										</timecode>
										<labels>
											<label2>Forest</label2>
										</labels>
										<logginginfo>
											<description></description>
											<scene></scene>
											<shottake></shottake>
											<lognote></lognote>
											<good></good>
											<originalvideofilename></originalvideofilename>
											<originalaudiofilename></originalaudiofilename>
										</logginginfo>
									</sequence>
									<sequence id="sequence-57" TL.SQAudioVisibleBase="0" TL.SQVideoVisibleBase="0" TL.SQVisibleBaseTime="0" TL.SQAVDividerPosition="0.5" TL.SQHideShyTracks="0" TL.SQHeaderWidth="236" Monitor.ProgramZoomOut="22706312428800" Monitor.ProgramZoomIn="0" TL.SQTimePerPixel="0.27637033625057528" AM.TrackVScrollPosition="0" AM.TrackScrollPosition="0" MZ.EditLine="2686786502400" MZ.Sequence.PreviewFrameSizeHeight="1080" MZ.Sequence.PreviewFrameSizeWidth="1920" MZ.Sequence.AudioTimeDisplayFormat="200" MZ.Sequence.PreviewRenderingClassID="1297106761" MZ.Sequence.PreviewRenderingPresetCodec="1297107278" MZ.Sequence.PreviewRenderingPresetPath="EncoderPresets/SequencePreview/795454d9-d3c2-429d-9474-923ab13b7018/I-Frame Only MPEG.epr" MZ.Sequence.PreviewUseMaxRenderQuality="false" MZ.Sequence.PreviewUseMaxBitDepth="false" MZ.Sequence.EditingModeGUID="795454d9-d3c2-429d-9474-923ab13b7018" MZ.Sequence.VideoTimeDisplayFormat="103" MZ.WorkOutPoint="22706312428800" MZ.WorkInPoint="0" explodedTracks="true">
										<uuid>42ee06a8-284d-4efa-be44-aa3657731c30</uuid>
										<duration>2679</duration>
										<rate>
											<timebase>30</timebase>
											<ntsc>TRUE</ntsc>
										</rate>
										<name>SAT_anders soberra_1.5</name>
										<media>
											<video>
												<format>
													<samplecharacteristics>
														<rate>
															<timebase>30</timebase>
															<ntsc>TRUE</ntsc>
														</rate>
														<codec>
															<name>Apple ProRes 422</name>
															<appspecificdata>
																<appname>Final Cut Pro</appname>
																<appmanufacturer>Apple Inc.</appmanufacturer>
																<appversion>7.0</appversion>
																<data>
																	<qtcodec>
																		<codecname>Apple ProRes 422</codecname>
																		<codectypename>Apple ProRes 422</codectypename>
																		<codectypecode>apcn</codectypecode>
																		<codecvendorcode>appl</codecvendorcode>
																		<spatialquality>1024</spatialquality>
																		<temporalquality>0</temporalquality>
																		<keyframerate>0</keyframerate>
																		<datarate>0</datarate>
																	</qtcodec>
																</data>
															</appspecificdata>
														</codec>
														<width>1920</width>
														<height>1080</height>
														<anamorphic>FALSE</anamorphic>
														<pixelaspectratio>square</pixelaspectratio>
														<fielddominance>none</fielddominance>
														<colordepth>24</colordepth>
													</samplecharacteristics>
												</format>
												<track TL.SQTrackShy="0" TL.SQTrackExpandedHeight="25" TL.SQTrackExpanded="0" MZ.TrackTargeted="1">
													<clipitem id="clipitem-538">
														<masterclipid>masterclip-161</masterclipid>
														<name>Forging Viking style Arrowheads (forgewelded) (1080p_24fps_H264-128kbit_AAC)_@Asoberra YT.mp4</name>
														<enabled>TRUE</enabled>
														<duration>17520</duration>
														<rate>
															<timebase>30</timebase>
															<ntsc>TRUE</ntsc>
														</rate>
														<start>0</start>
														<end>140</end>
														<in>5291</in>
														<out>5431</out>
														<pproTicksIn>44844755155200</pproTicksIn>
														<pproTicksOut>46031348563200</pproTicksOut>
														<alphatype>none</alphatype>
														<pixelaspectratio>square</pixelaspectratio>
														<anamorphic>FALSE</anamorphic>
														<file id="file-156">
															<name>Forging Viking style Arrowheads (forgewelded) (1080p_24fps_H264-128kbit_AAC)_@Asoberra YT.mp4</name>
															<pathurl>file://localhost/Volumes/Satisfactum%20Satisfactorum/03_Weekly%20(Project%20Files,%20Main%20Segments)/OSTV/OSTV%2023-07-31/3_Raw%20Files/Forging%20Viking%20style%20Arrowheads%20(forgewelded)%20(1080p_24fps_H264-128kbit_AAC)_@Asoberra%20YT.mp4</pathurl>
															<rate>
																<timebase>24</timebase>
																<ntsc>TRUE</ntsc>
															</rate>
															<duration>14016</duration>
															<timecode>
																<rate>
																	<timebase>24</timebase>
																	<ntsc>TRUE</ntsc>
																</rate>
																<string>00:00:00:00</string>
																<frame>0</frame>
																<displayformat>NDF</displayformat>
															</timecode>
															<media>
																<video>
																	<samplecharacteristics>
																		<rate>
																			<timebase>24</timebase>
																			<ntsc>TRUE</ntsc>
																		</rate>
																		<width>1920</width>
																		<height>1080</height>
																		<anamorphic>FALSE</anamorphic>
																		<pixelaspectratio>square</pixelaspectratio>
																		<fielddominance>none</fielddominance>
																	</samplecharacteristics>
																</video>
																<audio>
																	<samplecharacteristics>
																		<depth>16</depth>
																		<samplerate>44100</samplerate>
																	</samplecharacteristics>
																	<channelcount>2</channelcount>
																</audio>
															</media>
														</file>
														<logginginfo>
															<description></description>
															<scene></scene>
															<shottake></shottake>
															<lognote>https://www.youtube.com/watch?v=M7VLs_Q4jKg</lognote>
															<good></good>
															<originalvideofilename></originalvideofilename>
															<originalaudiofilename></originalaudiofilename>
														</logginginfo>
														<colorinfo>
															<lut></lut>
															<lut1></lut1>
															<asc_sop></asc_sop>
															<asc_sat></asc_sat>
															<lut2></lut2>
														</colorinfo>
														<labels>
															<label2>Iris</label2>
														</labels>
													</clipitem>
													<clipitem id="clipitem-539">
														<masterclipid>masterclip-161</masterclipid>
														<name>Forging Viking style Arrowheads (forgewelded) (1080p_24fps_H264-128kbit_AAC)_@Asoberra YT.mp4</name>
														<enabled>TRUE</enabled>
														<duration>17520</duration>
														<rate>
															<timebase>30</timebase>
															<ntsc>TRUE</ntsc>
														</rate>
														<start>140</start>
														<end>493</end>
														<in>5650</in>
														<out>6003</out>
														<pproTicksIn>47887519680000</pproTicksIn>
														<pproTicksOut>50879430201600</pproTicksOut>
														<alphatype>none</alphatype>
														<file id="file-156"/>
														<logginginfo>
															<description></description>
															<scene></scene>
															<shottake></shottake>
															<lognote>https://www.youtube.com/watch?v=M7VLs_Q4jKg</lognote>
															<good></good>
															<originalvideofilename></originalvideofilename>
															<originalaudiofilename></originalaudiofilename>
														</logginginfo>
														<colorinfo>
															<lut></lut>
															<lut1></lut1>
															<asc_sop></asc_sop>
															<asc_sat></asc_sat>
															<lut2></lut2>
														</colorinfo>
														<labels>
															<label2>Iris</label2>
														</labels>
													</clipitem>
													<clipitem id="clipitem-540">
														<masterclipid>masterclip-161</masterclipid>
														<name>Forging Viking style Arrowheads (forgewelded) (1080p_24fps_H264-128kbit_AAC)_@Asoberra YT.mp4</name>
														<enabled>TRUE</enabled>
														<duration>17520</duration>
														<rate>
															<timebase>30</timebase>
															<ntsc>TRUE</ntsc>
														</rate>
														<start>493</start>
														<end>768</end>
														<in>6252</in>
														<out>6527</out>
														<pproTicksIn>52989871334400</pproTicksIn>
														<pproTicksOut>55320679814400</pproTicksOut>
														<alphatype>none</alphatype>
														<file id="file-156"/>
														<logginginfo>
															<description></description>
															<scene></scene>
															<shottake></shottake>
															<lognote>https://www.youtube.com/watch?v=M7VLs_Q4jKg</lognote>
															<good></good>
															<originalvideofilename></originalvideofilename>
															<originalaudiofilename></originalaudiofilename>
														</logginginfo>
														<colorinfo>
															<lut></lut>
															<lut1></lut1>
															<asc_sop></asc_sop>
															<asc_sat></asc_sat>
															<lut2></lut2>
														</colorinfo>
														<labels>
															<label2>Iris</label2>
														</labels>
													</clipitem>
													<clipitem id="clipitem-541">
														<masterclipid>masterclip-161</masterclipid>
														<name>Forging Viking style Arrowheads (forgewelded) (1080p_24fps_H264-128kbit_AAC)_@Asoberra YT.mp4</name>
														<enabled>TRUE</enabled>
														<duration>17520</duration>
														<rate>
															<timebase>30</timebase>
															<ntsc>TRUE</ntsc>
														</rate>
														<start>768</start>
														<end>938</end>
														<in>6587</in>
														<out>6757</out>
														<pproTicksIn>55829219846400</pproTicksIn>
														<pproTicksOut>57270083270400</pproTicksOut>
														<alphatype>none</alphatype>
														<file id="file-156"/>
														<logginginfo>
															<description></description>
															<scene></scene>
															<shottake></shottake>
															<lognote>https://www.youtube.com/watch?v=M7VLs_Q4jKg</lognote>
															<good></good>
															<originalvideofilename></originalvideofilename>
															<originalaudiofilename></originalaudiofilename>
														</logginginfo>
														<colorinfo>
															<lut></lut>
															<lut1></lut1>
															<asc_sop></asc_sop>
															<asc_sat></asc_sat>
															<lut2></lut2>
														</colorinfo>
														<labels>
															<label2>Iris</label2>
														</labels>
													</clipitem>
													<clipitem id="clipitem-542">
														<masterclipid>masterclip-161</masterclipid>
														<name>Forging Viking style Arrowheads (forgewelded) (1080p_24fps_H264-128kbit_AAC)_@Asoberra YT.mp4</name>
														<enabled>TRUE</enabled>
														<duration>17520</duration>
														<rate>
															<timebase>30</timebase>
															<ntsc>TRUE</ntsc>
														</rate>
														<start>938</start>
														<end>1357</end>
														<in>6902</in>
														<out>7321</out>
														<pproTicksIn>58499055014400</pproTicksIn>
														<pproTicksOut>62050359571200</pproTicksOut>
														<alphatype>none</alphatype>
														<file id="file-156"/>
														<logginginfo>
															<description></description>
															<scene></scene>
															<shottake></shottake>
															<lognote>https://www.youtube.com/watch?v=M7VLs_Q4jKg</lognote>
															<good></good>
															<originalvideofilename></originalvideofilename>
															<originalaudiofilename></originalaudiofilename>
														</logginginfo>
														<colorinfo>
															<lut></lut>
															<lut1></lut1>
															<asc_sop></asc_sop>
															<asc_sat></asc_sat>
															<lut2></lut2>
														</colorinfo>
														<labels>
															<label2>Iris</label2>
														</labels>
													</clipitem>
													<clipitem id="clipitem-543">
														<masterclipid>masterclip-161</masterclipid>
														<name>Forging Viking style Arrowheads (forgewelded) (1080p_24fps_H264-128kbit_AAC)_@Asoberra YT.mp4</name>
														<enabled>TRUE</enabled>
														<duration>17520</duration>
														<rate>
															<timebase>30</timebase>
															<ntsc>TRUE</ntsc>
														</rate>
														<start>1357</start>
														<end>1580</end>
														<in>7321</in>
														<out>7544</out>
														<pproTicksIn>62050359571200</pproTicksIn>
														<pproTicksOut>63940433356800</pproTicksOut>
														<alphatype>none</alphatype>
														<file id="file-156"/>
														<logginginfo>
															<description></description>
															<scene></scene>
															<shottake></shottake>
															<lognote>https://www.youtube.com/watch?v=M7VLs_Q4jKg</lognote>
															<good></good>
															<originalvideofilename></originalvideofilename>
															<originalaudiofilename></originalaudiofilename>
														</logginginfo>
														<colorinfo>
															<lut></lut>
															<lut1></lut1>
															<asc_sop></asc_sop>
															<asc_sat></asc_sat>
															<lut2></lut2>
														</colorinfo>
														<labels>
															<label2>Iris</label2>
														</labels>
													</clipitem>
													<clipitem id="clipitem-544">
														<masterclipid>masterclip-161</masterclipid>
														<name>Forging Viking style Arrowheads (forgewelded) (1080p_24fps_H264-128kbit_AAC)_@Asoberra YT.mp4</name>
														<enabled>TRUE</enabled>
														<duration>17520</duration>
														<rate>
															<timebase>30</timebase>
															<ntsc>TRUE</ntsc>
														</rate>
														<start>1580</start>
														<end>1693</end>
														<in>7544</in>
														<out>7657</out>
														<pproTicksIn>63940433356800</pproTicksIn>
														<pproTicksOut>64898183750400</pproTicksOut>
														<alphatype>none</alphatype>
														<file id="file-156"/>
														<logginginfo>
															<description></description>
															<scene></scene>
															<shottake></shottake>
															<lognote>https://www.youtube.com/watch?v=M7VLs_Q4jKg</lognote>
															<good></good>
															<originalvideofilename></originalvideofilename>
															<originalaudiofilename></originalaudiofilename>
														</logginginfo>
														<colorinfo>
															<lut></lut>
															<lut1></lut1>
															<asc_sop></asc_sop>
															<asc_sat></asc_sat>
															<lut2></lut2>
														</colorinfo>
														<labels>
															<label2>Iris</label2>
														</labels>
													</clipitem>
													<clipitem id="clipitem-545">
														<masterclipid>masterclip-161</masterclipid>
														<name>Forging Viking style Arrowheads (forgewelded) (1080p_24fps_H264-128kbit_AAC)_@Asoberra YT.mp4</name>
														<enabled>TRUE</enabled>
														<duration>17520</duration>
														<rate>
															<timebase>30</timebase>
															<ntsc>TRUE</ntsc>
														</rate>
														<start>1693</start>
														<end>1817</end>
														<in>7765</in>
														<out>7889</out>
														<pproTicksIn>65813555808000</pproTicksIn>
														<pproTicksOut>66864538540800</pproTicksOut>
														<alphatype>none</alphatype>
														<file id="file-156"/>
														<logginginfo>
															<description></description>
															<scene></scene>
															<shottake></shottake>
															<lognote>https://www.youtube.com/watch?v=M7VLs_Q4jKg</lognote>
															<good></good>
															<originalvideofilename></originalvideofilename>
															<originalaudiofilename></originalaudiofilename>
														</logginginfo>
														<colorinfo>
															<lut></lut>
															<lut1></lut1>
															<asc_sop></asc_sop>
															<asc_sat></asc_sat>
															<lut2></lut2>
														</colorinfo>
														<labels>
															<label2>Iris</label2>
														</labels>
													</clipitem>
													<clipitem id="clipitem-546">
														<masterclipid>masterclip-161</masterclipid>
														<name>Forging Viking style Arrowheads (forgewelded) (1080p_24fps_H264-128kbit_AAC)_@Asoberra YT.mp4</name>
														<enabled>TRUE</enabled>
														<duration>17520</duration>
														<rate>
															<timebase>30</timebase>
															<ntsc>TRUE</ntsc>
														</rate>
														<start>1817</start>
														<end>2085</end>
														<in>7962</in>
														<out>8230</out>
														<pproTicksIn>67483262246400</pproTicksIn>
														<pproTicksOut>69754741056000</pproTicksOut>
														<alphatype>none</alphatype>
														<file id="file-156"/>
														<logginginfo>
															<description></description>
															<scene></scene>
															<shottake></shottake>
															<lognote>https://www.youtube.com/watch?v=M7VLs_Q4jKg</lognote>
															<good></good>
															<originalvideofilename></originalvideofilename>
															<originalaudiofilename></originalaudiofilename>
														</logginginfo>
														<colorinfo>
															<lut></lut>
															<lut1></lut1>
															<asc_sop></asc_sop>
															<asc_sat></asc_sat>
															<lut2></lut2>
														</colorinfo>
														<labels>
															<label2>Iris</label2>
														</labels>
													</clipitem>
													<clipitem id="clipitem-547">
														<masterclipid>masterclip-161</masterclipid>
														<name>Forging Viking style Arrowheads (forgewelded) (1080p_24fps_H264-128kbit_AAC)_@Asoberra YT.mp4</name>
														<enabled>TRUE</enabled>
														<duration>17520</duration>
														<rate>
															<timebase>30</timebase>
															<ntsc>TRUE</ntsc>
														</rate>
														<start>2085</start>
														<end>2598</end>
														<in>8368</in>
														<out>8881</out>
														<pproTicksIn>70924383129600</pproTicksIn>
														<pproTicksOut>75272400403200</pproTicksOut>
														<alphatype>none</alphatype>
														<file id="file-156"/>
														<logginginfo>
															<description></description>
															<scene></scene>
															<shottake></shottake>
															<lognote>https://www.youtube.com/watch?v=M7VLs_Q4jKg</lognote>
															<good></good>
															<originalvideofilename></originalvideofilename>
															<originalaudiofilename></originalaudiofilename>
														</logginginfo>
														<colorinfo>
															<lut></lut>
															<lut1></lut1>
															<asc_sop></asc_sop>
															<asc_sat></asc_sat>
															<lut2></lut2>
														</colorinfo>
														<labels>
															<label2>Iris</label2>
														</labels>
													</clipitem>
													<clipitem id="clipitem-548">
														<masterclipid>masterclip-161</masterclipid>
														<name>Forging Viking style Arrowheads (forgewelded) (1080p_24fps_H264-128kbit_AAC)_@Asoberra YT.mp4</name>
														<enabled>TRUE</enabled>
														<duration>17520</duration>
														<rate>
															<timebase>30</timebase>
															<ntsc>TRUE</ntsc>
														</rate>
														<start>2598</start>
														<end>2679</end>
														<in>16813</in>
														<out>16894</out>
														<pproTicksIn>142501392633600</pproTicksIn>
														<pproTicksOut>143187921676800</pproTicksOut>
														<alphatype>none</alphatype>
														<file id="file-156"/>
														<filter>
															<effect>
																<name>Basic Motion</name>
																<effectid>basic</effectid>
																<effectcategory>motion</effectcategory>
																<effecttype>motion</effecttype>
																<mediatype>video</mediatype>
																<pproBypass>false</pproBypass>
																<parameter authoringApp="PremierePro">
																	<parameterid>scale</parameterid>
																	<name>Scale</name>
																	<valuemin>0</valuemin>
																	<valuemax>1000</valuemax>
																	<value>124</value>
																	<keyframe>
																		<when>16813</when>
																		<value>124</value>
																	</keyframe>
																	<keyframe>
																		<when>16894</when>
																		<value>130</value>
																	</keyframe>
																</parameter>
																<parameter authoringApp="PremierePro">
																	<parameterid>rotation</parameterid>
																	<name>Rotation</name>
																	<valuemin>-8640</valuemin>
																	<valuemax>8640</valuemax>
																	<value>0</value>
																</parameter>
																<parameter authoringApp="PremierePro">
																	<parameterid>center</parameterid>
																	<name>Center</name>
																	<value>
																		<horiz>0</horiz>
																		<vert>0</vert>
																	</value>
																</parameter>
																<parameter authoringApp="PremierePro">
																	<parameterid>centerOffset</parameterid>
																	<name>Anchor Point</name>
																	<value>
																		<horiz>0</horiz>
																		<vert>0</vert>
																	</value>
																</parameter>
																<parameter authoringApp="PremierePro">
																	<parameterid>antiflicker</parameterid>
																	<name>Anti-flicker Filter</name>
																	<valuemin>0.0</valuemin>
																	<valuemax>1.0</valuemax>
																	<value>0</value>
																</parameter>
															</effect>
														</filter>
														<logginginfo>
															<description></description>
															<scene></scene>
															<shottake></shottake>
															<lognote>https://www.youtube.com/watch?v=M7VLs_Q4jKg</lognote>
															<good></good>
															<originalvideofilename></originalvideofilename>
															<originalaudiofilename></originalaudiofilename>
														</logginginfo>
														<colorinfo>
															<lut></lut>
															<lut1></lut1>
															<asc_sop></asc_sop>
															<asc_sat></asc_sat>
															<lut2></lut2>
														</colorinfo>
														<labels>
															<label2>Iris</label2>
														</labels>
													</clipitem>
													<enabled>TRUE</enabled>
													<locked>FALSE</locked>
												</track>
												<track TL.SQTrackShy="0" TL.SQTrackExpandedHeight="25" TL.SQTrackExpanded="0" MZ.TrackTargeted="0">
													<clipitem id="clipitem-549">
														<masterclipid>masterclip-75</masterclipid>
														<name>Anders Soberra</name>
														<enabled>TRUE</enabled>
														<duration>5844</duration>
														<rate>
															<timebase>30</timebase>
															<ntsc>TRUE</ntsc>
														</rate>
														<start>0</start>
														<end>2679</end>
														<in>0</in>
														<out>2679</out>
														<pproTicksIn>0</pproTicksIn>
														<pproTicksOut>22706312428800</pproTicksOut>
														<alphatype>straight</alphatype>
														<file id="file-75"/>
														<filter>
															<effect>
																<name>Basic Motion</name>
																<effectid>basic</effectid>
																<effectcategory>motion</effectcategory>
																<effecttype>motion</effecttype>
																<mediatype>video</mediatype>
																<pproBypass>false</pproBypass>
																<parameter authoringApp="PremierePro">
																	<parameterid>scale</parameterid>
																	<name>Scale</name>
																	<valuemin>0</valuemin>
																	<valuemax>1000</valuemax>
																	<value>150</value>
																</parameter>
																<parameter authoringApp="PremierePro">
																	<parameterid>rotation</parameterid>
																	<name>Rotation</name>
																	<valuemin>-8640</valuemin>
																	<valuemax>8640</valuemax>
																	<value>0</value>
																</parameter>
																<parameter authoringApp="PremierePro">
																	<parameterid>center</parameterid>
																	<name>Center</name>
																	<value>
																		<horiz>0</horiz>
																		<vert>0</vert>
																	</value>
																</parameter>
																<parameter authoringApp="PremierePro">
																	<parameterid>centerOffset</parameterid>
																	<name>Anchor Point</name>
																	<value>
																		<horiz>0</horiz>
																		<vert>0</vert>
																	</value>
																</parameter>
																<parameter authoringApp="PremierePro">
																	<parameterid>antiflicker</parameterid>
																	<name>Anti-flicker Filter</name>
																	<valuemin>0.0</valuemin>
																	<valuemax>1.0</valuemax>
																	<value>0</value>
																</parameter>
															</effect>
														</filter>
														<logginginfo>
															<description></description>
															<scene></scene>
															<shottake></shottake>
															<lognote></lognote>
															<good></good>
															<originalvideofilename></originalvideofilename>
															<originalaudiofilename></originalaudiofilename>
														</logginginfo>
														<colorinfo>
															<lut></lut>
															<lut1></lut1>
															<asc_sop></asc_sop>
															<asc_sat></asc_sat>
															<lut2></lut2>
														</colorinfo>
														<labels>
															<label2>Rose</label2>
														</labels>
													</clipitem>
													<enabled>TRUE</enabled>
													<locked>FALSE</locked>
												</track>
												<track TL.SQTrackShy="0" TL.SQTrackExpandedHeight="25" TL.SQTrackExpanded="0" MZ.TrackTargeted="0">
													<clipitem id="clipitem-550">
														<masterclipid>masterclip-106</masterclipid>
														<name>Bug and Lower Nest</name>
														<enabled>TRUE</enabled>
														<duration>14721</duration>
														<rate>
															<timebase>30</timebase>
															<ntsc>TRUE</ntsc>
														</rate>
														<start>0</start>
														<end>2679</end>
														<in>0</in>
														<out>2679</out>
														<pproTicksIn>0</pproTicksIn>
														<pproTicksOut>22706312428800</pproTicksOut>
														<sequence id="sequence-1"/>
														<labels>
															<label2>Cerulean</label2>
														</labels>
													</clipitem>
													<enabled>TRUE</enabled>
													<locked>FALSE</locked>
												</track>
											</video>
											<audio>
												<numOutputChannels>2</numOutputChannels>
												<format>
													<samplecharacteristics>
														<depth>16</depth>
														<samplerate>44100</samplerate>
													</samplecharacteristics>
												</format>
												<outputs>
													<group>
														<index>1</index>
														<numchannels>1</numchannels>
														<downmix>0</downmix>
														<channel>
															<index>1</index>
														</channel>
													</group>
													<group>
														<index>2</index>
														<numchannels>1</numchannels>
														<downmix>0</downmix>
														<channel>
															<index>2</index>
														</channel>
													</group>
												</outputs>
												<track TL.SQTrackAudioKeyframeStyle="0" TL.SQTrackShy="0" TL.SQTrackExpandedHeight="25" TL.SQTrackExpanded="0" MZ.TrackTargeted="1" PannerCurrentValue="0.5" PannerIsInverted="true" PannerStartKeyframe="-91445760000000000,0.5,0,0,0,0,0,0" PannerName="Balance" currentExplodedTrackIndex="0" totalExplodedTrackCount="2" premiereTrackType="Stereo">
													<enabled>TRUE</enabled>
													<locked>FALSE</locked>
													<outputchannelindex>1</outputchannelindex>
												</track>
												<track TL.SQTrackAudioKeyframeStyle="0" TL.SQTrackShy="0" TL.SQTrackExpandedHeight="25" TL.SQTrackExpanded="0" MZ.TrackTargeted="1" PannerCurrentValue="0.5" PannerIsInverted="true" PannerStartKeyframe="-91445760000000000,0.5,0,0,0,0,0,0" PannerName="Balance" currentExplodedTrackIndex="1" totalExplodedTrackCount="2" premiereTrackType="Stereo">
													<enabled>TRUE</enabled>
													<locked>FALSE</locked>
													<outputchannelindex>2</outputchannelindex>
												</track>
											</audio>
										</media>
										<timecode>
											<rate>
												<timebase>30</timebase>
												<ntsc>TRUE</ntsc>
											</rate>
											<string>00:00:00:00</string>
											<frame>0</frame>
											<displayformat>NDF</displayformat>
										</timecode>
										<labels>
											<label2>Forest</label2>
										</labels>
										<logginginfo>
											<description></description>
											<scene></scene>
											<shottake></shottake>
											<lognote></lognote>
											<good></good>
											<originalvideofilename></originalvideofilename>
											<originalaudiofilename></originalaudiofilename>
										</logginginfo>
									</sequence>
									<sequence id="sequence-58" TL.SQAudioVisibleBase="0" TL.SQVideoVisibleBase="0" TL.SQVisibleBaseTime="0" TL.SQAVDividerPosition="0.5" TL.SQHideShyTracks="0" TL.SQHeaderWidth="236" TL.SQDataTrackViewControlState="0" Monitor.ProgramZoomOut="19621169568000" Monitor.ProgramZoomIn="0" TL.SQTimePerPixel="0.13818516812528672" AM.TrackVScrollPosition="0" AM.TrackScrollPosition="0" MZ.EditLine="3542828889600" MZ.Sequence.PreviewFrameSizeHeight="1080" MZ.Sequence.PreviewFrameSizeWidth="1920" MZ.Sequence.AudioTimeDisplayFormat="200" MZ.Sequence.PreviewRenderingClassID="1297106761" MZ.Sequence.PreviewRenderingPresetCodec="1297107278" MZ.Sequence.PreviewRenderingPresetPath="EncoderPresets/SequencePreview/795454d9-d3c2-429d-9474-923ab13b7018/I-Frame Only MPEG.epr" MZ.Sequence.PreviewUseMaxRenderQuality="false" MZ.Sequence.PreviewUseMaxBitDepth="false" MZ.Sequence.EditingModeGUID="795454d9-d3c2-429d-9474-923ab13b7018" MZ.Sequence.VideoTimeDisplayFormat="103" MZ.WorkOutPoint="26833962355200" MZ.WorkInPoint="0" explodedTracks="true">
										<uuid>8acb603a-c209-41b9-bb47-0c76128073de</uuid>
										<duration>2315</duration>
										<rate>
											<timebase>30</timebase>
											<ntsc>TRUE</ntsc>
										</rate>
										<name>SAT_asmr soap startseva_1.5</name>
										<media>
											<video>
												<format>
													<samplecharacteristics>
														<rate>
															<timebase>30</timebase>
															<ntsc>TRUE</ntsc>
														</rate>
														<codec>
															<name>Apple ProRes 422</name>
															<appspecificdata>
																<appname>Final Cut Pro</appname>
																<appmanufacturer>Apple Inc.</appmanufacturer>
																<appversion>7.0</appversion>
																<data>
																	<qtcodec>
																		<codecname>Apple ProRes 422</codecname>
																		<codectypename>Apple ProRes 422</codectypename>
																		<codectypecode>apcn</codectypecode>
																		<codecvendorcode>appl</codecvendorcode>
																		<spatialquality>1024</spatialquality>
																		<temporalquality>0</temporalquality>
																		<keyframerate>0</keyframerate>
																		<datarate>0</datarate>
																	</qtcodec>
																</data>
															</appspecificdata>
														</codec>
														<width>1920</width>
														<height>1080</height>
														<anamorphic>FALSE</anamorphic>
														<pixelaspectratio>square</pixelaspectratio>
														<fielddominance>none</fielddominance>
														<colordepth>24</colordepth>
													</samplecharacteristics>
												</format>
												<track TL.SQTrackShy="0" TL.SQTrackExpandedHeight="25" TL.SQTrackExpanded="0" MZ.TrackTargeted="1">
													<clipitem id="clipitem-551">
														<masterclipid>masterclip-162</masterclipid>
														<name>(Asmr Soap Startseva)_Asmr cutting painted soap _ Резка Сухого Мыла #asmrsoap_oHZJmNv_Rz0_YT.mp4</name>
														<enabled>TRUE</enabled>
														<duration>19949</duration>
														<rate>
															<timebase>30</timebase>
															<ntsc>TRUE</ntsc>
														</rate>
														<start>0</start>
														<end>1690</end>
														<in>13687</in>
														<out>15377</out>
														<pproTicksIn>116006456966400</pproTicksIn>
														<pproTicksOut>130330334534400</pproTicksOut>
														<alphatype>none</alphatype>
														<pixelaspectratio>square</pixelaspectratio>
														<anamorphic>FALSE</anamorphic>
														<file id="file-157">
															<name>(Asmr Soap Startseva)_Asmr cutting painted soap _ Резка Сухого Мыла #asmrsoap_oHZJmNv_Rz0_YT.mp4</name>
															<pathurl>file://localhost/Volumes/Macintosh%20HD/Users/juesecutler/Google%20Drive/My%20Drive/00_New%20weeks%20format/2023/OSTV/OSTV%2023-06-12/3_Raw%20Files/(Asmr%20Soap%20Startseva)_Asmr%20cutting%20painted%20soap%20_%20%d0%a0%d0%b5%d0%b7%d0%ba%d0%b0%20%d0%a1%d1%83%d1%85%d0%be%d0%b3%d0%be%20%d0%9c%d1%8b%d0%bb%d0%b0%20#asmrsoap_oHZJmNv_Rz0_YT.mp4</pathurl>
															<rate>
																<timebase>60</timebase>
																<ntsc>FALSE</ntsc>
															</rate>
															<duration>39939</duration>
															<timecode>
																<rate>
																	<timebase>60</timebase>
																	<ntsc>FALSE</ntsc>
																</rate>
																<string>00:00:00:00</string>
																<frame>0</frame>
																<displayformat>NDF</displayformat>
															</timecode>
															<media>
																<video>
																	<samplecharacteristics>
																		<rate>
																			<timebase>60</timebase>
																			<ntsc>FALSE</ntsc>
																		</rate>
																		<width>1920</width>
																		<height>1080</height>
																		<anamorphic>FALSE</anamorphic>
																		<pixelaspectratio>square</pixelaspectratio>
																		<fielddominance>none</fielddominance>
																	</samplecharacteristics>
																</video>
																<audio>
																	<samplecharacteristics>
																		<depth>16</depth>
																		<samplerate>44100</samplerate>
																	</samplecharacteristics>
																	<channelcount>2</channelcount>
																</audio>
															</media>
														</file>
														<link>
															<linkclipref>clipitem-551</linkclipref>
															<mediatype>video</mediatype>
															<trackindex>1</trackindex>
															<clipindex>1</clipindex>
														</link>
														<link>
															<linkclipref>clipitem-556</linkclipref>
															<mediatype>audio</mediatype>
															<trackindex>1</trackindex>
															<clipindex>2</clipindex>
															<groupindex>1</groupindex>
														</link>
														<link>
															<linkclipref>clipitem-558</linkclipref>
															<mediatype>audio</mediatype>
															<trackindex>2</trackindex>
															<clipindex>2</clipindex>
															<groupindex>1</groupindex>
														</link>
														<logginginfo>
															<description></description>
															<scene></scene>
															<shottake></shottake>
															<lognote>https://www.youtube.com/watch?v=oHZJmNv_Rz0</lognote>
															<good></good>
															<originalvideofilename></originalvideofilename>
															<originalaudiofilename></originalaudiofilename>
														</logginginfo>
														<colorinfo>
															<lut></lut>
															<lut1></lut1>
															<asc_sop></asc_sop>
															<asc_sat></asc_sat>
															<lut2></lut2>
														</colorinfo>
														<labels>
															<label2>Iris</label2>
														</labels>
													</clipitem>
													<clipitem id="clipitem-552">
														<masterclipid>masterclip-162</masterclipid>
														<name>(Asmr Soap Startseva)_Asmr cutting painted soap _ Резка Сухого Мыла #asmrsoap_oHZJmNv_Rz0_YT.mp4</name>
														<enabled>TRUE</enabled>
														<duration>19949</duration>
														<rate>
															<timebase>30</timebase>
															<ntsc>TRUE</ntsc>
														</rate>
														<start>1690</start>
														<end>2315</end>
														<in>4522</in>
														<out>5147</out>
														<pproTicksIn>38326967078400</pproTicksIn>
														<pproTicksOut>43624259078400</pproTicksOut>
														<alphatype>none</alphatype>
														<file id="file-157"/>
														<link>
															<linkclipref>clipitem-552</linkclipref>
															<mediatype>video</mediatype>
															<trackindex>1</trackindex>
															<clipindex>2</clipindex>
														</link>
														<link>
															<linkclipref>clipitem-557</linkclipref>
															<mediatype>audio</mediatype>
															<trackindex>1</trackindex>
															<clipindex>4</clipindex>
															<groupindex>1</groupindex>
														</link>
														<link>
															<linkclipref>clipitem-559</linkclipref>
															<mediatype>audio</mediatype>
															<trackindex>2</trackindex>
															<clipindex>4</clipindex>
															<groupindex>1</groupindex>
														</link>
														<logginginfo>
															<description></description>
															<scene></scene>
															<shottake></shottake>
															<lognote>https://www.youtube.com/watch?v=oHZJmNv_Rz0</lognote>
															<good></good>
															<originalvideofilename></originalvideofilename>
															<originalaudiofilename></originalaudiofilename>
														</logginginfo>
														<colorinfo>
															<lut></lut>
															<lut1></lut1>
															<asc_sop></asc_sop>
															<asc_sat></asc_sat>
															<lut2></lut2>
														</colorinfo>
														<labels>
															<label2>Iris</label2>
														</labels>
													</clipitem>
													<enabled>TRUE</enabled>
													<locked>FALSE</locked>
												</track>
												<track TL.SQTrackShy="0" TL.SQTrackExpandedHeight="25" TL.SQTrackExpanded="0" MZ.TrackTargeted="0">
													<clipitem id="clipitem-553">
														<masterclipid>masterclip-122</masterclipid>
														<name>Adjustment Layer</name>
														<enabled>TRUE</enabled>
														<duration>1294705</duration>
														<rate>
															<timebase>30</timebase>
															<ntsc>TRUE</ntsc>
														</rate>
														<start>0</start>
														<end>2315</end>
														<in>107892</in>
														<out>110207</out>
														<pproTicksIn>914456685542400</pproTicksIn>
														<pproTicksOut>934077855110400</pproTicksOut>
														<alphatype>none</alphatype>
														<file id="file-121"/>
														<filter>
															<effect>
																<name>Basic Motion</name>
																<effectid>basic</effectid>
																<effectcategory>motion</effectcategory>
																<effecttype>motion</effecttype>
																<mediatype>video</mediatype>
																<pproBypass>false</pproBypass>
																<parameter authoringApp="PremierePro">
																	<parameterid>scale</parameterid>
																	<name>Scale</name>
																	<valuemin>0</valuemin>
																	<valuemax>1000</valuemax>
																	<value>150</value>
																</parameter>
																<parameter authoringApp="PremierePro">
																	<parameterid>rotation</parameterid>
																	<name>Rotation</name>
																	<valuemin>-8640</valuemin>
																	<valuemax>8640</valuemax>
																	<value>0</value>
																</parameter>
																<parameter authoringApp="PremierePro">
																	<parameterid>center</parameterid>
																	<name>Center</name>
																	<value>
																		<horiz>0</horiz>
																		<vert>0</vert>
																	</value>
																</parameter>
																<parameter authoringApp="PremierePro">
																	<parameterid>centerOffset</parameterid>
																	<name>Anchor Point</name>
																	<value>
																		<horiz>0</horiz>
																		<vert>0</vert>
																	</value>
																</parameter>
																<parameter authoringApp="PremierePro">
																	<parameterid>antiflicker</parameterid>
																	<name>Anti-flicker Filter</name>
																	<valuemin>0.0</valuemin>
																	<valuemax>1.0</valuemax>
																	<value>0</value>
																</parameter>
															</effect>
														</filter>
														<filter>
															<effect>
																<name>Gaussian Blur</name>
																<effectid>Gaussian Blur</effectid>
																<effectcategory>Blur</effectcategory>
																<effecttype>motion</effecttype>
																<mediatype>video</mediatype>
																<pproBypass>false</pproBypass>
																<parameter authoringApp="PremierePro">
																	<parameterid>radius</parameterid>
																	<name>Radius</name>
																	<valuemin>0</valuemin>
																	<valuemax>100</valuemax>
																	<value>67</value>
																</parameter>
															</effect>
														</filter>
														<logginginfo>
															<description></description>
															<scene></scene>
															<shottake></shottake>
															<lognote></lognote>
															<good></good>
															<originalvideofilename></originalvideofilename>
															<originalaudiofilename></originalaudiofilename>
														</logginginfo>
														<colorinfo>
															<lut></lut>
															<lut1></lut1>
															<asc_sop></asc_sop>
															<asc_sat></asc_sat>
															<lut2></lut2>
														</colorinfo>
														<labels>
															<label2>Lavender</label2>
														</labels>
													</clipitem>
													<enabled>TRUE</enabled>
													<locked>FALSE</locked>
												</track>
												<track TL.SQTrackShy="0" TL.SQTrackExpandedHeight="25" TL.SQTrackExpanded="0" MZ.TrackTargeted="0">
													<clipitem id="clipitem-554">
														<masterclipid>masterclip-76</masterclipid>
														<name>Asmr Soap Startseva</name>
														<enabled>TRUE</enabled>
														<duration>5844</duration>
														<rate>
															<timebase>30</timebase>
															<ntsc>TRUE</ntsc>
														</rate>
														<start>0</start>
														<end>2315</end>
														<in>0</in>
														<out>2315</out>
														<pproTicksIn>0</pproTicksIn>
														<pproTicksOut>19621169568000</pproTicksOut>
														<alphatype>straight</alphatype>
														<file id="file-76"/>
														<filter>
															<effect>
																<name>Basic Motion</name>
																<effectid>basic</effectid>
																<effectcategory>motion</effectcategory>
																<effecttype>motion</effecttype>
																<mediatype>video</mediatype>
																<pproBypass>false</pproBypass>
																<parameter authoringApp="PremierePro">
																	<parameterid>scale</parameterid>
																	<name>Scale</name>
																	<valuemin>0</valuemin>
																	<valuemax>1000</valuemax>
																	<value>150</value>
																</parameter>
																<parameter authoringApp="PremierePro">
																	<parameterid>rotation</parameterid>
																	<name>Rotation</name>
																	<valuemin>-8640</valuemin>
																	<valuemax>8640</valuemax>
																	<value>0</value>
																</parameter>
																<parameter authoringApp="PremierePro">
																	<parameterid>center</parameterid>
																	<name>Center</name>
																	<value>
																		<horiz>0</horiz>
																		<vert>0</vert>
																	</value>
																</parameter>
																<parameter authoringApp="PremierePro">
																	<parameterid>centerOffset</parameterid>
																	<name>Anchor Point</name>
																	<value>
																		<horiz>0</horiz>
																		<vert>0</vert>
																	</value>
																</parameter>
																<parameter authoringApp="PremierePro">
																	<parameterid>antiflicker</parameterid>
																	<name>Anti-flicker Filter</name>
																	<valuemin>0.0</valuemin>
																	<valuemax>1.0</valuemax>
																	<value>0</value>
																</parameter>
															</effect>
														</filter>
														<logginginfo>
															<description></description>
															<scene></scene>
															<shottake></shottake>
															<lognote></lognote>
															<good></good>
															<originalvideofilename></originalvideofilename>
															<originalaudiofilename></originalaudiofilename>
														</logginginfo>
														<colorinfo>
															<lut></lut>
															<lut1></lut1>
															<asc_sop></asc_sop>
															<asc_sat></asc_sat>
															<lut2></lut2>
														</colorinfo>
														<labels>
															<label2>Rose</label2>
														</labels>
													</clipitem>
													<enabled>TRUE</enabled>
													<locked>FALSE</locked>
												</track>
												<track TL.SQTrackShy="0" TL.SQTrackExpandedHeight="25" TL.SQTrackExpanded="0" MZ.TrackTargeted="0">
													<clipitem id="clipitem-555">
														<masterclipid>masterclip-106</masterclipid>
														<name>Bug and Lower Nest</name>
														<enabled>TRUE</enabled>
														<duration>14721</duration>
														<rate>
															<timebase>30</timebase>
															<ntsc>TRUE</ntsc>
														</rate>
														<start>0</start>
														<end>2315</end>
														<in>0</in>
														<out>2315</out>
														<pproTicksIn>0</pproTicksIn>
														<pproTicksOut>19621169568000</pproTicksOut>
														<sequence id="sequence-1"/>
														<labels>
															<label2>Cerulean</label2>
														</labels>
													</clipitem>
													<enabled>TRUE</enabled>
													<locked>FALSE</locked>
												</track>
											</video>
											<audio>
												<numOutputChannels>2</numOutputChannels>
												<format>
													<samplecharacteristics>
														<depth>16</depth>
														<samplerate>44100</samplerate>
													</samplecharacteristics>
												</format>
												<outputs>
													<group>
														<index>1</index>
														<numchannels>1</numchannels>
														<downmix>0</downmix>
														<channel>
															<index>1</index>
														</channel>
													</group>
													<group>
														<index>2</index>
														<numchannels>1</numchannels>
														<downmix>0</downmix>
														<channel>
															<index>2</index>
														</channel>
													</group>
												</outputs>
												<track TL.SQTrackAudioKeyframeStyle="0" TL.SQTrackShy="0" TL.SQTrackExpandedHeight="25" TL.SQTrackExpanded="0" MZ.TrackTargeted="1" PannerCurrentValue="0.5" PannerIsInverted="true" PannerStartKeyframe="-91445760000000000,0.5,0,0,0,0,0,0" PannerName="Balance" currentExplodedTrackIndex="0" totalExplodedTrackCount="2" premiereTrackType="Stereo">
													<transitionitem>
														<start>0</start>
														<end>30</end>
														<pproTicksIn>0</pproTicksIn>
														<pproTicksOut>254270016000</pproTicksOut>
														<alignment>start-black</alignment>
														<cutPointTicks>0</cutPointTicks>
														<rate>
															<timebase>30</timebase>
															<ntsc>TRUE</ntsc>
														</rate>
														<effect>
															<name>Cross Fade (+3dB)</name>
															<effectid>KGAudioTransCrossFade3dB</effectid>
															<effecttype>transition</effecttype>
															<mediatype>audio</mediatype>
															<wipecode>0</wipecode>
															<wipeaccuracy>100</wipeaccuracy>
															<startratio>0</startratio>
															<endratio>1</endratio>
															<reverse>FALSE</reverse>
														</effect>
													</transitionitem>
													<clipitem id="clipitem-556" premiereChannelType="stereo">
														<masterclipid>masterclip-162</masterclipid>
														<name>(Asmr Soap Startseva)_Asmr cutting painted soap _ Резка Сухого Мыла #asmrsoap_oHZJmNv_Rz0_YT.mp4</name>
														<enabled>TRUE</enabled>
														<duration>19949</duration>
														<rate>
															<timebase>30</timebase>
															<ntsc>TRUE</ntsc>
														</rate>
														<start>-1</start>
														<end>-1</end>
														<in>13687</in>
														<out>15392</out>
														<pproTicksIn>116006456966400</pproTicksIn>
														<pproTicksOut>130457469542400</pproTicksOut>
														<file id="file-157"/>
														<sourcetrack>
															<mediatype>audio</mediatype>
															<trackindex>1</trackindex>
														</sourcetrack>
														<link>
															<linkclipref>clipitem-551</linkclipref>
															<mediatype>video</mediatype>
															<trackindex>1</trackindex>
															<clipindex>1</clipindex>
														</link>
														<link>
															<linkclipref>clipitem-556</linkclipref>
															<mediatype>audio</mediatype>
															<trackindex>1</trackindex>
															<clipindex>2</clipindex>
															<groupindex>1</groupindex>
														</link>
														<link>
															<linkclipref>clipitem-558</linkclipref>
															<mediatype>audio</mediatype>
															<trackindex>2</trackindex>
															<clipindex>2</clipindex>
															<groupindex>1</groupindex>
														</link>
														<logginginfo>
															<description></description>
															<scene></scene>
															<shottake></shottake>
															<lognote>https://www.youtube.com/watch?v=oHZJmNv_Rz0</lognote>
															<good></good>
															<originalvideofilename></originalvideofilename>
															<originalaudiofilename></originalaudiofilename>
														</logginginfo>
														<colorinfo>
															<lut></lut>
															<lut1></lut1>
															<asc_sop></asc_sop>
															<asc_sat></asc_sat>
															<lut2></lut2>
														</colorinfo>
														<labels>
															<label2>Iris</label2>
														</labels>
													</clipitem>
													<transitionitem>
														<start>1675</start>
														<end>1705</end>
														<pproTicksIn>14196742560000</pproTicksIn>
														<pproTicksOut>14451012576000</pproTicksOut>
														<alignment>center</alignment>
														<cutPointTicks>127135008000</cutPointTicks>
														<rate>
															<timebase>30</timebase>
															<ntsc>TRUE</ntsc>
														</rate>
														<effect>
															<name>Cross Fade (+3dB)</name>
															<effectid>KGAudioTransCrossFade3dB</effectid>
															<effecttype>transition</effecttype>
															<mediatype>audio</mediatype>
															<wipecode>0</wipecode>
															<wipeaccuracy>100</wipeaccuracy>
															<startratio>0</startratio>
															<endratio>1</endratio>
															<reverse>FALSE</reverse>
														</effect>
													</transitionitem>
													<clipitem id="clipitem-557" premiereChannelType="stereo">
														<masterclipid>masterclip-162</masterclipid>
														<name>(Asmr Soap Startseva)_Asmr cutting painted soap _ Резка Сухого Мыла #asmrsoap_oHZJmNv_Rz0_YT.mp4</name>
														<enabled>TRUE</enabled>
														<duration>19949</duration>
														<rate>
															<timebase>30</timebase>
															<ntsc>TRUE</ntsc>
														</rate>
														<start>-1</start>
														<end>-1</end>
														<in>4507</in>
														<out>5147</out>
														<pproTicksIn>38199832070400</pproTicksIn>
														<pproTicksOut>43624259078400</pproTicksOut>
														<file id="file-157"/>
														<sourcetrack>
															<mediatype>audio</mediatype>
															<trackindex>1</trackindex>
														</sourcetrack>
														<filter>
															<effect>
																<name>Gain</name>
																<effectid>{61756678, 4761696e, 4b657947}</effectid>
																<effecttype>filter</effecttype>
																<mediatype>audio</mediatype>
																<parameter authoringApp="PremierePro">
																	<parameterid>Gain(dB)</parameterid>
																	<name>Gain(dB)</name>
																	<valuemin>-96</valuemin>
																	<valuemax>96</valuemax>
																	<value>-6</value>
																</parameter>
															</effect>
														</filter>
														<link>
															<linkclipref>clipitem-552</linkclipref>
															<mediatype>video</mediatype>
															<trackindex>1</trackindex>
															<clipindex>2</clipindex>
														</link>
														<link>
															<linkclipref>clipitem-557</linkclipref>
															<mediatype>audio</mediatype>
															<trackindex>1</trackindex>
															<clipindex>4</clipindex>
															<groupindex>1</groupindex>
														</link>
														<link>
															<linkclipref>clipitem-559</linkclipref>
															<mediatype>audio</mediatype>
															<trackindex>2</trackindex>
															<clipindex>4</clipindex>
															<groupindex>1</groupindex>
														</link>
														<logginginfo>
															<description></description>
															<scene></scene>
															<shottake></shottake>
															<lognote>https://www.youtube.com/watch?v=oHZJmNv_Rz0</lognote>
															<good></good>
															<originalvideofilename></originalvideofilename>
															<originalaudiofilename></originalaudiofilename>
														</logginginfo>
														<colorinfo>
															<lut></lut>
															<lut1></lut1>
															<asc_sop></asc_sop>
															<asc_sat></asc_sat>
															<lut2></lut2>
														</colorinfo>
														<labels>
															<label2>Iris</label2>
														</labels>
													</clipitem>
													<transitionitem>
														<start>2285</start>
														<end>2315</end>
														<pproTicksIn>19366899552000</pproTicksIn>
														<pproTicksOut>19621169568000</pproTicksOut>
														<alignment>end-black</alignment>
														<cutPointTicks>254270016000</cutPointTicks>
														<rate>
															<timebase>30</timebase>
															<ntsc>TRUE</ntsc>
														</rate>
														<effect>
															<name>Cross Fade (+3dB)</name>
															<effectid>KGAudioTransCrossFade3dB</effectid>
															<effecttype>transition</effecttype>
															<mediatype>audio</mediatype>
															<wipecode>0</wipecode>
															<wipeaccuracy>100</wipeaccuracy>
															<startratio>0</startratio>
															<endratio>1</endratio>
															<reverse>FALSE</reverse>
														</effect>
													</transitionitem>
													<enabled>TRUE</enabled>
													<locked>FALSE</locked>
													<outputchannelindex>1</outputchannelindex>
												</track>
												<track TL.SQTrackAudioKeyframeStyle="0" TL.SQTrackShy="0" TL.SQTrackExpandedHeight="25" TL.SQTrackExpanded="0" MZ.TrackTargeted="1" PannerCurrentValue="0.5" PannerIsInverted="true" PannerStartKeyframe="-91445760000000000,0.5,0,0,0,0,0,0" PannerName="Balance" currentExplodedTrackIndex="1" totalExplodedTrackCount="2" premiereTrackType="Stereo">
													<transitionitem>
														<start>0</start>
														<end>30</end>
														<pproTicksIn>0</pproTicksIn>
														<pproTicksOut>254270016000</pproTicksOut>
														<alignment>start-black</alignment>
														<cutPointTicks>0</cutPointTicks>
														<rate>
															<timebase>30</timebase>
															<ntsc>TRUE</ntsc>
														</rate>
														<effect>
															<name>Cross Fade (+3dB)</name>
															<effectid>KGAudioTransCrossFade3dB</effectid>
															<effecttype>transition</effecttype>
															<mediatype>audio</mediatype>
															<wipecode>0</wipecode>
															<wipeaccuracy>100</wipeaccuracy>
															<startratio>0</startratio>
															<endratio>1</endratio>
															<reverse>FALSE</reverse>
														</effect>
													</transitionitem>
													<clipitem id="clipitem-558" premiereChannelType="stereo">
														<masterclipid>masterclip-162</masterclipid>
														<name>(Asmr Soap Startseva)_Asmr cutting painted soap _ Резка Сухого Мыла #asmrsoap_oHZJmNv_Rz0_YT.mp4</name>
														<enabled>TRUE</enabled>
														<duration>19949</duration>
														<rate>
															<timebase>30</timebase>
															<ntsc>TRUE</ntsc>
														</rate>
														<start>-1</start>
														<end>-1</end>
														<in>13687</in>
														<out>15392</out>
														<pproTicksIn>116006456966400</pproTicksIn>
														<pproTicksOut>130457469542400</pproTicksOut>
														<file id="file-157"/>
														<sourcetrack>
															<mediatype>audio</mediatype>
															<trackindex>2</trackindex>
														</sourcetrack>
														<link>
															<linkclipref>clipitem-551</linkclipref>
															<mediatype>video</mediatype>
															<trackindex>1</trackindex>
															<clipindex>1</clipindex>
														</link>
														<link>
															<linkclipref>clipitem-556</linkclipref>
															<mediatype>audio</mediatype>
															<trackindex>1</trackindex>
															<clipindex>2</clipindex>
															<groupindex>1</groupindex>
														</link>
														<link>
															<linkclipref>clipitem-558</linkclipref>
															<mediatype>audio</mediatype>
															<trackindex>2</trackindex>
															<clipindex>2</clipindex>
															<groupindex>1</groupindex>
														</link>
														<logginginfo>
															<description></description>
															<scene></scene>
															<shottake></shottake>
															<lognote>https://www.youtube.com/watch?v=oHZJmNv_Rz0</lognote>
															<good></good>
															<originalvideofilename></originalvideofilename>
															<originalaudiofilename></originalaudiofilename>
														</logginginfo>
														<colorinfo>
															<lut></lut>
															<lut1></lut1>
															<asc_sop></asc_sop>
															<asc_sat></asc_sat>
															<lut2></lut2>
														</colorinfo>
														<labels>
															<label2>Iris</label2>
														</labels>
													</clipitem>
													<transitionitem>
														<start>1675</start>
														<end>1705</end>
														<pproTicksIn>14196742560000</pproTicksIn>
														<pproTicksOut>14451012576000</pproTicksOut>
														<alignment>center</alignment>
														<cutPointTicks>127135008000</cutPointTicks>
														<rate>
															<timebase>30</timebase>
															<ntsc>TRUE</ntsc>
														</rate>
														<effect>
															<name>Cross Fade (+3dB)</name>
															<effectid>KGAudioTransCrossFade3dB</effectid>
															<effecttype>transition</effecttype>
															<mediatype>audio</mediatype>
															<wipecode>0</wipecode>
															<wipeaccuracy>100</wipeaccuracy>
															<startratio>0</startratio>
															<endratio>1</endratio>
															<reverse>FALSE</reverse>
														</effect>
													</transitionitem>
													<clipitem id="clipitem-559" premiereChannelType="stereo">
														<masterclipid>masterclip-162</masterclipid>
														<name>(Asmr Soap Startseva)_Asmr cutting painted soap _ Резка Сухого Мыла #asmrsoap_oHZJmNv_Rz0_YT.mp4</name>
														<enabled>TRUE</enabled>
														<duration>19949</duration>
														<rate>
															<timebase>30</timebase>
															<ntsc>TRUE</ntsc>
														</rate>
														<start>-1</start>
														<end>-1</end>
														<in>4507</in>
														<out>5147</out>
														<pproTicksIn>38199832070400</pproTicksIn>
														<pproTicksOut>43624259078400</pproTicksOut>
														<file id="file-157"/>
														<sourcetrack>
															<mediatype>audio</mediatype>
															<trackindex>2</trackindex>
														</sourcetrack>
														<filter>
															<effect>
																<name>Gain</name>
																<effectid>{61756678, 4761696e, 4b657947}</effectid>
																<effecttype>filter</effecttype>
																<mediatype>audio</mediatype>
																<parameter authoringApp="PremierePro">
																	<parameterid>Gain(dB)</parameterid>
																	<name>Gain(dB)</name>
																	<valuemin>-96</valuemin>
																	<valuemax>96</valuemax>
																	<value>-6</value>
																</parameter>
															</effect>
														</filter>
														<link>
															<linkclipref>clipitem-552</linkclipref>
															<mediatype>video</mediatype>
															<trackindex>1</trackindex>
															<clipindex>2</clipindex>
														</link>
														<link>
															<linkclipref>clipitem-557</linkclipref>
															<mediatype>audio</mediatype>
															<trackindex>1</trackindex>
															<clipindex>4</clipindex>
															<groupindex>1</groupindex>
														</link>
														<link>
															<linkclipref>clipitem-559</linkclipref>
															<mediatype>audio</mediatype>
															<trackindex>2</trackindex>
															<clipindex>4</clipindex>
															<groupindex>1</groupindex>
														</link>
														<logginginfo>
															<description></description>
															<scene></scene>
															<shottake></shottake>
															<lognote>https://www.youtube.com/watch?v=oHZJmNv_Rz0</lognote>
															<good></good>
															<originalvideofilename></originalvideofilename>
															<originalaudiofilename></originalaudiofilename>
														</logginginfo>
														<colorinfo>
															<lut></lut>
															<lut1></lut1>
															<asc_sop></asc_sop>
															<asc_sat></asc_sat>
															<lut2></lut2>
														</colorinfo>
														<labels>
															<label2>Iris</label2>
														</labels>
													</clipitem>
													<transitionitem>
														<start>2285</start>
														<end>2315</end>
														<pproTicksIn>19366899552000</pproTicksIn>
														<pproTicksOut>19621169568000</pproTicksOut>
														<alignment>end-black</alignment>
														<cutPointTicks>254270016000</cutPointTicks>
														<rate>
															<timebase>30</timebase>
															<ntsc>TRUE</ntsc>
														</rate>
														<effect>
															<name>Cross Fade (+3dB)</name>
															<effectid>KGAudioTransCrossFade3dB</effectid>
															<effecttype>transition</effecttype>
															<mediatype>audio</mediatype>
															<wipecode>0</wipecode>
															<wipeaccuracy>100</wipeaccuracy>
															<startratio>0</startratio>
															<endratio>1</endratio>
															<reverse>FALSE</reverse>
														</effect>
													</transitionitem>
													<enabled>TRUE</enabled>
													<locked>FALSE</locked>
													<outputchannelindex>2</outputchannelindex>
												</track>
												<track TL.SQTrackAudioKeyframeStyle="0" TL.SQTrackShy="0" TL.SQTrackExpandedHeight="25" TL.SQTrackExpanded="0" MZ.TrackTargeted="0" PannerCurrentValue="0.5" PannerIsInverted="true" PannerStartKeyframe="-91445760000000000,0.5,0,0,0,0,0,0" PannerName="Balance" currentExplodedTrackIndex="0" totalExplodedTrackCount="2" premiereTrackType="Stereo">
													<enabled>TRUE</enabled>
													<locked>FALSE</locked>
													<filter>
														<effect>
															<name>Audio Levels</name>
															<effectid>audiolevels</effectid>
															<effectcategory>audiolevels</effectcategory>
															<effecttype>audiolevels</effecttype>
															<mediatype>audio</mediatype>
															<parameter authoringApp="PremierePro">
																<parameterid>level</parameterid>
																<name>Level</name>
																<valuemin>0</valuemin>
																<valuemax>3.98109</valuemax>
																<value>0.706272</value>
															</parameter>
														</effect>
													</filter>
													<outputchannelindex>1</outputchannelindex>
												</track>
												<track TL.SQTrackAudioKeyframeStyle="0" TL.SQTrackShy="0" TL.SQTrackExpandedHeight="25" TL.SQTrackExpanded="0" MZ.TrackTargeted="0" PannerCurrentValue="0.5" PannerIsInverted="true" PannerStartKeyframe="-91445760000000000,0.5,0,0,0,0,0,0" PannerName="Balance" currentExplodedTrackIndex="1" totalExplodedTrackCount="2" premiereTrackType="Stereo">
													<enabled>TRUE</enabled>
													<locked>FALSE</locked>
													<filter>
														<effect>
															<name>Audio Levels</name>
															<effectid>audiolevels</effectid>
															<effectcategory>audiolevels</effectcategory>
															<effecttype>audiolevels</effecttype>
															<mediatype>audio</mediatype>
															<parameter authoringApp="PremierePro">
																<parameterid>level</parameterid>
																<name>Level</name>
																<valuemin>0</valuemin>
																<valuemax>3.98109</valuemax>
																<value>0.706272</value>
															</parameter>
														</effect>
													</filter>
													<outputchannelindex>2</outputchannelindex>
												</track>
											</audio>
										</media>
										<timecode>
											<rate>
												<timebase>30</timebase>
												<ntsc>TRUE</ntsc>
											</rate>
											<string>00:00:00:00</string>
											<frame>0</frame>
											<displayformat>NDF</displayformat>
										</timecode>
										<labels>
											<label2>Forest</label2>
										</labels>
										<logginginfo>
											<description></description>
											<scene></scene>
											<shottake></shottake>
											<lognote></lognote>
											<good></good>
											<originalvideofilename></originalvideofilename>
											<originalaudiofilename></originalaudiofilename>
										</logginginfo>
									</sequence>
									<sequence id="sequence-59" TL.SQAudioVisibleBase="0" TL.SQVideoVisibleBase="0" TL.SQVisibleBaseTime="0" TL.SQAVDividerPosition="0.5" TL.SQHideShyTracks="0" TL.SQHeaderWidth="236" Monitor.ProgramZoomOut="26715303014400" Monitor.ProgramZoomIn="0" TL.SQTimePerPixel="0.13818516812528489" AM.TrackVScrollPosition="0" AM.TrackScrollPosition="0" MZ.EditLine="2483370489600" MZ.Sequence.PreviewFrameSizeHeight="1080" MZ.Sequence.PreviewFrameSizeWidth="1920" MZ.Sequence.AudioTimeDisplayFormat="200" MZ.Sequence.PreviewRenderingClassID="1297106761" MZ.Sequence.PreviewRenderingPresetCodec="1297107278" MZ.Sequence.PreviewRenderingPresetPath="EncoderPresets/SequencePreview/795454d9-d3c2-429d-9474-923ab13b7018/I-Frame Only MPEG.epr" MZ.Sequence.PreviewUseMaxRenderQuality="false" MZ.Sequence.PreviewUseMaxBitDepth="false" MZ.Sequence.EditingModeGUID="795454d9-d3c2-429d-9474-923ab13b7018" MZ.Sequence.VideoTimeDisplayFormat="103" MZ.WorkOutPoint="26715303014400" MZ.WorkInPoint="0" explodedTracks="true">
										<uuid>e27796a7-5cce-427c-96e2-d01f290aeb2c</uuid>
										<duration>3152</duration>
										<rate>
											<timebase>30</timebase>
											<ntsc>TRUE</ntsc>
										</rate>
										<out>3152</out>
										<name>DIY_oil paint experts Crafty unbranded_2</name>
										<media>
											<video>
												<format>
													<samplecharacteristics>
														<rate>
															<timebase>30</timebase>
															<ntsc>TRUE</ntsc>
														</rate>
														<codec>
															<name>Apple ProRes 422</name>
															<appspecificdata>
																<appname>Final Cut Pro</appname>
																<appmanufacturer>Apple Inc.</appmanufacturer>
																<appversion>7.0</appversion>
																<data>
																	<qtcodec>
																		<codecname>Apple ProRes 422</codecname>
																		<codectypename>Apple ProRes 422</codectypename>
																		<codectypecode>apcn</codectypecode>
																		<codecvendorcode>appl</codecvendorcode>
																		<spatialquality>1024</spatialquality>
																		<temporalquality>0</temporalquality>
																		<keyframerate>0</keyframerate>
																		<datarate>0</datarate>
																	</qtcodec>
																</data>
															</appspecificdata>
														</codec>
														<width>1920</width>
														<height>1080</height>
														<anamorphic>FALSE</anamorphic>
														<pixelaspectratio>square</pixelaspectratio>
														<fielddominance>none</fielddominance>
														<colordepth>24</colordepth>
													</samplecharacteristics>
												</format>
												<track TL.SQTrackShy="0" TL.SQTrackExpandedHeight="25" TL.SQTrackExpanded="0" MZ.TrackTargeted="1">
													<clipitem id="clipitem-560">
														<masterclipid>masterclip-163</masterclipid>
														<name>paintingnest</name>
														<enabled>TRUE</enabled>
														<duration>3152</duration>
														<rate>
															<timebase>30</timebase>
															<ntsc>TRUE</ntsc>
														</rate>
														<start>0</start>
														<end>3152</end>
														<in>0</in>
														<out>3152</out>
														<pproTicksIn>0</pproTicksIn>
														<pproTicksOut>26715303014400</pproTicksOut>
														<sequence id="sequence-23"/>
														<filter>
															<effect>
																<name>Basic Motion</name>
																<effectid>basic</effectid>
																<effectcategory>motion</effectcategory>
																<effecttype>motion</effecttype>
																<mediatype>video</mediatype>
																<pproBypass>false</pproBypass>
																<parameter authoringApp="PremierePro">
																	<parameterid>scale</parameterid>
																	<name>Scale</name>
																	<valuemin>0</valuemin>
																	<valuemax>1000</valuemax>
																	<value>232</value>
																</parameter>
																<parameter authoringApp="PremierePro">
																	<parameterid>rotation</parameterid>
																	<name>Rotation</name>
																	<valuemin>-8640</valuemin>
																	<valuemax>8640</valuemax>
																	<value>0</value>
																</parameter>
																<parameter authoringApp="PremierePro">
																	<parameterid>center</parameterid>
																	<name>Center</name>
																	<value>
																		<horiz>-0.5</horiz>
																		<vert>-0.5</vert>
																	</value>
																</parameter>
																<parameter authoringApp="PremierePro">
																	<parameterid>centerOffset</parameterid>
																	<name>Anchor Point</name>
																	<value>
																		<horiz>0</horiz>
																		<vert>0</vert>
																	</value>
																</parameter>
																<parameter authoringApp="PremierePro">
																	<parameterid>antiflicker</parameterid>
																	<name>Anti-flicker Filter</name>
																	<valuemin>0.0</valuemin>
																	<valuemax>1.0</valuemax>
																	<value>0</value>
																</parameter>
															</effect>
														</filter>
														<filter>
															<effect>
																<name>Gaussian Blur</name>
																<effectid>Gaussian Blur</effectid>
																<effectcategory>Blur</effectcategory>
																<effecttype>motion</effecttype>
																<mediatype>video</mediatype>
																<pproBypass>false</pproBypass>
																<parameter authoringApp="PremierePro">
																	<parameterid>radius</parameterid>
																	<name>Radius</name>
																	<valuemin>0</valuemin>
																	<valuemax>100</valuemax>
																	<value>150</value>
																</parameter>
															</effect>
														</filter>
														<labels>
															<label2>Forest</label2>
														</labels>
													</clipitem>
													<enabled>TRUE</enabled>
													<locked>FALSE</locked>
												</track>
												<track TL.SQTrackShy="0" TL.SQTrackExpandedHeight="25" TL.SQTrackExpanded="0" MZ.TrackTargeted="0">
													<clipitem id="clipitem-561">
														<masterclipid>masterclip-163</masterclipid>
														<name>paintingnest</name>
														<enabled>TRUE</enabled>
														<duration>3152</duration>
														<rate>
															<timebase>30</timebase>
															<ntsc>TRUE</ntsc>
														</rate>
														<start>0</start>
														<end>3152</end>
														<in>0</in>
														<out>3152</out>
														<pproTicksIn>0</pproTicksIn>
														<pproTicksOut>26715303014400</pproTicksOut>
														<sequence id="sequence-23"/>
														<labels>
															<label2>Forest</label2>
														</labels>
													</clipitem>
													<enabled>TRUE</enabled>
													<locked>FALSE</locked>
												</track>
												<track TL.SQTrackShy="0" TL.SQTrackExpandedHeight="25" TL.SQTrackExpanded="0" MZ.TrackTargeted="0">
													<clipitem id="clipitem-562">
														<masterclipid>masterclip-77</masterclipid>
														<name>noah verrier</name>
														<enabled>TRUE</enabled>
														<duration>5844</duration>
														<rate>
															<timebase>30</timebase>
															<ntsc>TRUE</ntsc>
														</rate>
														<start>0</start>
														<end>2127</end>
														<in>0</in>
														<out>2127</out>
														<pproTicksIn>0</pproTicksIn>
														<pproTicksOut>18027744134400</pproTicksOut>
														<alphatype>straight</alphatype>
														<file id="file-77"/>
														<filter>
															<effect>
																<name>Basic Motion</name>
																<effectid>basic</effectid>
																<effectcategory>motion</effectcategory>
																<effecttype>motion</effecttype>
																<mediatype>video</mediatype>
																<pproBypass>false</pproBypass>
																<parameter authoringApp="PremierePro">
																	<parameterid>scale</parameterid>
																	<name>Scale</name>
																	<valuemin>0</valuemin>
																	<valuemax>1000</valuemax>
																	<value>150</value>
																</parameter>
																<parameter authoringApp="PremierePro">
																	<parameterid>rotation</parameterid>
																	<name>Rotation</name>
																	<valuemin>-8640</valuemin>
																	<valuemax>8640</valuemax>
																	<value>0</value>
																</parameter>
																<parameter authoringApp="PremierePro">
																	<parameterid>center</parameterid>
																	<name>Center</name>
																	<value>
																		<horiz>0</horiz>
																		<vert>0</vert>
																	</value>
																</parameter>
																<parameter authoringApp="PremierePro">
																	<parameterid>centerOffset</parameterid>
																	<name>Anchor Point</name>
																	<value>
																		<horiz>0</horiz>
																		<vert>0</vert>
																	</value>
																</parameter>
																<parameter authoringApp="PremierePro">
																	<parameterid>antiflicker</parameterid>
																	<name>Anti-flicker Filter</name>
																	<valuemin>0.0</valuemin>
																	<valuemax>1.0</valuemax>
																	<value>0</value>
																</parameter>
															</effect>
														</filter>
														<logginginfo>
															<description></description>
															<scene></scene>
															<shottake></shottake>
															<lognote></lognote>
															<good></good>
															<originalvideofilename></originalvideofilename>
															<originalaudiofilename></originalaudiofilename>
														</logginginfo>
														<colorinfo>
															<lut></lut>
															<lut1></lut1>
															<asc_sop></asc_sop>
															<asc_sat></asc_sat>
															<lut2></lut2>
														</colorinfo>
														<labels>
															<label2>Rose</label2>
														</labels>
													</clipitem>
													<clipitem id="clipitem-563">
														<masterclipid>masterclip-45</masterclipid>
														<name>andrea_liss</name>
														<enabled>TRUE</enabled>
														<duration>5844</duration>
														<rate>
															<timebase>30</timebase>
															<ntsc>TRUE</ntsc>
														</rate>
														<start>2127</start>
														<end>3152</end>
														<in>0</in>
														<out>1025</out>
														<pproTicksIn>0</pproTicksIn>
														<pproTicksOut>8687558880000</pproTicksOut>
														<alphatype>straight</alphatype>
														<file id="file-45"/>
														<filter>
															<effect>
																<name>Basic Motion</name>
																<effectid>basic</effectid>
																<effectcategory>motion</effectcategory>
																<effecttype>motion</effecttype>
																<mediatype>video</mediatype>
																<pproBypass>false</pproBypass>
																<parameter authoringApp="PremierePro">
																	<parameterid>scale</parameterid>
																	<name>Scale</name>
																	<valuemin>0</valuemin>
																	<valuemax>1000</valuemax>
																	<value>150</value>
																</parameter>
																<parameter authoringApp="PremierePro">
																	<parameterid>rotation</parameterid>
																	<name>Rotation</name>
																	<valuemin>-8640</valuemin>
																	<valuemax>8640</valuemax>
																	<value>0</value>
																</parameter>
																<parameter authoringApp="PremierePro">
																	<parameterid>center</parameterid>
																	<name>Center</name>
																	<value>
																		<horiz>0</horiz>
																		<vert>0</vert>
																	</value>
																</parameter>
																<parameter authoringApp="PremierePro">
																	<parameterid>centerOffset</parameterid>
																	<name>Anchor Point</name>
																	<value>
																		<horiz>0</horiz>
																		<vert>0</vert>
																	</value>
																</parameter>
																<parameter authoringApp="PremierePro">
																	<parameterid>antiflicker</parameterid>
																	<name>Anti-flicker Filter</name>
																	<valuemin>0.0</valuemin>
																	<valuemax>1.0</valuemax>
																	<value>0</value>
																</parameter>
															</effect>
														</filter>
														<logginginfo>
															<description></description>
															<scene></scene>
															<shottake></shottake>
															<lognote></lognote>
															<good></good>
															<originalvideofilename></originalvideofilename>
															<originalaudiofilename></originalaudiofilename>
														</logginginfo>
														<colorinfo>
															<lut></lut>
															<lut1></lut1>
															<asc_sop></asc_sop>
															<asc_sat></asc_sat>
															<lut2></lut2>
														</colorinfo>
														<labels>
															<label2>Rose</label2>
														</labels>
													</clipitem>
													<enabled>TRUE</enabled>
													<locked>FALSE</locked>
												</track>
												<track TL.SQTrackShy="0" TL.SQTrackExpandedHeight="25" TL.SQTrackExpanded="0" MZ.TrackTargeted="0">
													<clipitem id="clipitem-564">
														<masterclipid>masterclip-106</masterclipid>
														<name>Bug and Lower Nest</name>
														<enabled>TRUE</enabled>
														<duration>14721</duration>
														<rate>
															<timebase>30</timebase>
															<ntsc>TRUE</ntsc>
														</rate>
														<start>0</start>
														<end>3152</end>
														<in>0</in>
														<out>3152</out>
														<pproTicksIn>0</pproTicksIn>
														<pproTicksOut>26715303014400</pproTicksOut>
														<sequence id="sequence-1"/>
														<labels>
															<label2>Cerulean</label2>
														</labels>
													</clipitem>
													<enabled>TRUE</enabled>
													<locked>FALSE</locked>
												</track>
											</video>
											<audio>
												<numOutputChannels>2</numOutputChannels>
												<format>
													<samplecharacteristics>
														<depth>16</depth>
														<samplerate>44100</samplerate>
													</samplecharacteristics>
												</format>
												<outputs>
													<group>
														<index>1</index>
														<numchannels>1</numchannels>
														<downmix>0</downmix>
														<channel>
															<index>1</index>
														</channel>
													</group>
													<group>
														<index>2</index>
														<numchannels>1</numchannels>
														<downmix>0</downmix>
														<channel>
															<index>2</index>
														</channel>
													</group>
												</outputs>
												<track TL.SQTrackAudioKeyframeStyle="0" TL.SQTrackShy="0" TL.SQTrackExpandedHeight="25" TL.SQTrackExpanded="0" MZ.TrackTargeted="1" PannerCurrentValue="0.5" PannerIsInverted="true" PannerStartKeyframe="-91445760000000000,0.5,0,0,0,0,0,0" PannerName="Balance" currentExplodedTrackIndex="0" totalExplodedTrackCount="2" premiereTrackType="Stereo">
													<enabled>TRUE</enabled>
													<locked>FALSE</locked>
													<filter>
														<effect>
															<name>Audio Levels</name>
															<effectid>audiolevels</effectid>
															<effectcategory>audiolevels</effectcategory>
															<effecttype>audiolevels</effecttype>
															<mediatype>audio</mediatype>
															<parameter authoringApp="PremierePro">
																<parameterid>level</parameterid>
																<name>Level</name>
																<valuemin>0</valuemin>
																<valuemax>3.98109</valuemax>
																<value>0.706272</value>
															</parameter>
														</effect>
													</filter>
													<outputchannelindex>1</outputchannelindex>
												</track>
												<track TL.SQTrackAudioKeyframeStyle="0" TL.SQTrackShy="0" TL.SQTrackExpandedHeight="25" TL.SQTrackExpanded="0" MZ.TrackTargeted="1" PannerCurrentValue="0.5" PannerIsInverted="true" PannerStartKeyframe="-91445760000000000,0.5,0,0,0,0,0,0" PannerName="Balance" currentExplodedTrackIndex="1" totalExplodedTrackCount="2" premiereTrackType="Stereo">
													<enabled>TRUE</enabled>
													<locked>FALSE</locked>
													<filter>
														<effect>
															<name>Audio Levels</name>
															<effectid>audiolevels</effectid>
															<effectcategory>audiolevels</effectcategory>
															<effecttype>audiolevels</effecttype>
															<mediatype>audio</mediatype>
															<parameter authoringApp="PremierePro">
																<parameterid>level</parameterid>
																<name>Level</name>
																<valuemin>0</valuemin>
																<valuemax>3.98109</valuemax>
																<value>0.706272</value>
															</parameter>
														</effect>
													</filter>
													<outputchannelindex>2</outputchannelindex>
												</track>
											</audio>
										</media>
										<timecode>
											<rate>
												<timebase>30</timebase>
												<ntsc>TRUE</ntsc>
											</rate>
											<string>00:00:00:00</string>
											<frame>0</frame>
											<displayformat>NDF</displayformat>
										</timecode>
										<labels>
											<label2>Forest</label2>
										</labels>
										<logginginfo>
											<description></description>
											<scene></scene>
											<shottake></shottake>
											<lognote></lognote>
											<good></good>
											<originalvideofilename></originalvideofilename>
											<originalaudiofilename></originalaudiofilename>
										</logginginfo>
									</sequence>
									<sequence id="sequence-60" TL.SQAudioVisibleBase="0" TL.SQVideoVisibleBase="0" TL.SQVisibleBaseTime="0" TL.SQAVDividerPosition="0.5" TL.SQHideShyTracks="0" TL.SQHeaderWidth="236" Monitor.ProgramZoomOut="27198416044800" Monitor.ProgramZoomIn="0" TL.SQTimePerPixel="0.14731242417172188" AM.TrackVScrollPosition="0" AM.TrackScrollPosition="0" MZ.EditLine="3771671904000" MZ.Sequence.PreviewFrameSizeHeight="1080" MZ.Sequence.PreviewFrameSizeWidth="1920" MZ.Sequence.AudioTimeDisplayFormat="200" MZ.Sequence.PreviewRenderingClassID="1297106761" MZ.Sequence.PreviewRenderingPresetCodec="1297107278" MZ.Sequence.PreviewRenderingPresetPath="EncoderPresets/SequencePreview/795454d9-d3c2-429d-9474-923ab13b7018/I-Frame Only MPEG.epr" MZ.Sequence.PreviewUseMaxRenderQuality="false" MZ.Sequence.PreviewUseMaxBitDepth="false" MZ.Sequence.EditingModeGUID="795454d9-d3c2-429d-9474-923ab13b7018" MZ.Sequence.VideoTimeDisplayFormat="103" MZ.WorkOutPoint="27198416044800" MZ.WorkInPoint="0" explodedTracks="true">
										<uuid>11707bfa-83cd-4bcd-995d-8a70b8071f41</uuid>
										<duration>3209</duration>
										<rate>
											<timebase>30</timebase>
											<ntsc>TRUE</ntsc>
										</rate>
										<name>DIY_WAW Creator_2</name>
										<media>
											<video>
												<format>
													<samplecharacteristics>
														<rate>
															<timebase>30</timebase>
															<ntsc>TRUE</ntsc>
														</rate>
														<codec>
															<name>Apple ProRes 422</name>
															<appspecificdata>
																<appname>Final Cut Pro</appname>
																<appmanufacturer>Apple Inc.</appmanufacturer>
																<appversion>7.0</appversion>
																<data>
																	<qtcodec>
																		<codecname>Apple ProRes 422</codecname>
																		<codectypename>Apple ProRes 422</codectypename>
																		<codectypecode>apcn</codectypecode>
																		<codecvendorcode>appl</codecvendorcode>
																		<spatialquality>1024</spatialquality>
																		<temporalquality>0</temporalquality>
																		<keyframerate>0</keyframerate>
																		<datarate>0</datarate>
																	</qtcodec>
																</data>
															</appspecificdata>
														</codec>
														<width>1920</width>
														<height>1080</height>
														<anamorphic>FALSE</anamorphic>
														<pixelaspectratio>square</pixelaspectratio>
														<fielddominance>none</fielddominance>
														<colordepth>24</colordepth>
													</samplecharacteristics>
												</format>
												<track TL.SQTrackShy="0" TL.SQTrackExpandedHeight="25" TL.SQTrackExpanded="0" MZ.TrackTargeted="1">
													<clipitem id="clipitem-565">
														<masterclipid>masterclip-164</masterclipid>
														<name>(wAw Creator)_I made the epic battle against saddler in resident evil_hsYOIn8UH2k_YT.mp4</name>
														<enabled>TRUE</enabled>
														<duration>29470</duration>
														<rate>
															<timebase>30</timebase>
															<ntsc>TRUE</ntsc>
														</rate>
														<start>0</start>
														<end>1649</end>
														<in>4045</in>
														<out>5694</out>
														<pproTicksIn>34284073824000</pproTicksIn>
														<pproTicksOut>48260449036800</pproTicksOut>
														<alphatype>none</alphatype>
														<pixelaspectratio>square</pixelaspectratio>
														<anamorphic>FALSE</anamorphic>
														<file id="file-158">
															<name>(wAw Creator)_I made the epic battle against saddler in resident evil_hsYOIn8UH2k_YT.mp4</name>
															<pathurl>file://localhost/Volumes/Satisfactum%20Satisfactorum/03_Weekly%20(Project%20Files,%20Main%20Segments)/OSTV/OSTV%2023-07-24/3_Raw%20Files/(wAw%20Creator)_I%20made%20the%20epic%20battle%20against%20saddler%20in%20resident%20evil_hsYOIn8UH2k_YT.mp4</pathurl>
															<rate>
																<timebase>25</timebase>
																<ntsc>FALSE</ntsc>
															</rate>
															<duration>24583</duration>
															<timecode>
																<rate>
																	<timebase>25</timebase>
																	<ntsc>FALSE</ntsc>
																</rate>
																<string>00:00:00:00</string>
																<frame>0</frame>
																<displayformat>NDF</displayformat>
															</timecode>
															<media>
																<video>
																	<samplecharacteristics>
																		<rate>
																			<timebase>25</timebase>
																			<ntsc>FALSE</ntsc>
																		</rate>
																		<width>1920</width>
																		<height>1080</height>
																		<anamorphic>FALSE</anamorphic>
																		<pixelaspectratio>square</pixelaspectratio>
																		<fielddominance>none</fielddominance>
																	</samplecharacteristics>
																</video>
																<audio>
																	<samplecharacteristics>
																		<depth>16</depth>
																		<samplerate>44100</samplerate>
																	</samplecharacteristics>
																	<channelcount>2</channelcount>
																</audio>
															</media>
														</file>
														<logginginfo>
															<description></description>
															<scene></scene>
															<shottake></shottake>
															<lognote>https://www.youtube.com/watch?v=hsYOIn8UH2k</lognote>
															<good></good>
															<originalvideofilename></originalvideofilename>
															<originalaudiofilename></originalaudiofilename>
														</logginginfo>
														<colorinfo>
															<lut></lut>
															<lut1></lut1>
															<asc_sop></asc_sop>
															<asc_sat></asc_sat>
															<lut2></lut2>
														</colorinfo>
														<labels>
															<label2>Iris</label2>
														</labels>
													</clipitem>
													<clipitem id="clipitem-566">
														<masterclipid>masterclip-164</masterclipid>
														<name>(wAw Creator)_I made the epic battle against saddler in resident evil_hsYOIn8UH2k_YT.mp4</name>
														<enabled>TRUE</enabled>
														<duration>29470</duration>
														<rate>
															<timebase>30</timebase>
															<ntsc>TRUE</ntsc>
														</rate>
														<start>1649</start>
														<end>1785</end>
														<in>6134</in>
														<out>6270</out>
														<pproTicksIn>51989742604800</pproTicksIn>
														<pproTicksOut>53142433344000</pproTicksOut>
														<alphatype>none</alphatype>
														<file id="file-158"/>
														<logginginfo>
															<description></description>
															<scene></scene>
															<shottake></shottake>
															<lognote>https://www.youtube.com/watch?v=hsYOIn8UH2k</lognote>
															<good></good>
															<originalvideofilename></originalvideofilename>
															<originalaudiofilename></originalaudiofilename>
														</logginginfo>
														<colorinfo>
															<lut></lut>
															<lut1></lut1>
															<asc_sop></asc_sop>
															<asc_sat></asc_sat>
															<lut2></lut2>
														</colorinfo>
														<labels>
															<label2>Iris</label2>
														</labels>
													</clipitem>
													<clipitem id="clipitem-567">
														<masterclipid>masterclip-164</masterclipid>
														<name>(wAw Creator)_I made the epic battle against saddler in resident evil_hsYOIn8UH2k_YT.mp4</name>
														<enabled>TRUE</enabled>
														<duration>29470</duration>
														<rate>
															<timebase>30</timebase>
															<ntsc>TRUE</ntsc>
														</rate>
														<start>1785</start>
														<end>2667</end>
														<in>6585</in>
														<out>7467</out>
														<pproTicksIn>55812268512000</pproTicksIn>
														<pproTicksOut>63287806982400</pproTicksOut>
														<alphatype>none</alphatype>
														<file id="file-158"/>
														<logginginfo>
															<description></description>
															<scene></scene>
															<shottake></shottake>
															<lognote>https://www.youtube.com/watch?v=hsYOIn8UH2k</lognote>
															<good></good>
															<originalvideofilename></originalvideofilename>
															<originalaudiofilename></originalaudiofilename>
														</logginginfo>
														<colorinfo>
															<lut></lut>
															<lut1></lut1>
															<asc_sop></asc_sop>
															<asc_sat></asc_sat>
															<lut2></lut2>
														</colorinfo>
														<labels>
															<label2>Iris</label2>
														</labels>
													</clipitem>
													<clipitem id="clipitem-568">
														<masterclipid>masterclip-164</masterclipid>
														<name>(wAw Creator)_I made the epic battle against saddler in resident evil_hsYOIn8UH2k_YT.mp4</name>
														<enabled>TRUE</enabled>
														<duration>29470</duration>
														<rate>
															<timebase>30</timebase>
															<ntsc>TRUE</ntsc>
														</rate>
														<start>2667</start>
														<end>2821</end>
														<in>26209</in>
														<out>26363</out>
														<pproTicksIn>222138761644800</pproTicksIn>
														<pproTicksOut>223444014393600</pproTicksOut>
														<alphatype>none</alphatype>
														<file id="file-158"/>
														<logginginfo>
															<description></description>
															<scene></scene>
															<shottake></shottake>
															<lognote>https://www.youtube.com/watch?v=hsYOIn8UH2k</lognote>
															<good></good>
															<originalvideofilename></originalvideofilename>
															<originalaudiofilename></originalaudiofilename>
														</logginginfo>
														<colorinfo>
															<lut></lut>
															<lut1></lut1>
															<asc_sop></asc_sop>
															<asc_sat></asc_sat>
															<lut2></lut2>
														</colorinfo>
														<labels>
															<label2>Iris</label2>
														</labels>
													</clipitem>
													<clipitem id="clipitem-569">
														<masterclipid>masterclip-164</masterclipid>
														<name>(wAw Creator)_I made the epic battle against saddler in resident evil_hsYOIn8UH2k_YT.mp4</name>
														<enabled>TRUE</enabled>
														<duration>29470</duration>
														<rate>
															<timebase>30</timebase>
															<ntsc>TRUE</ntsc>
														</rate>
														<start>2821</start>
														<end>3209</end>
														<in>27084</in>
														<out>27472</out>
														<pproTicksIn>229554970444800</pproTicksIn>
														<pproTicksOut>232843529318400</pproTicksOut>
														<alphatype>none</alphatype>
														<file id="file-158"/>
														<logginginfo>
															<description></description>
															<scene></scene>
															<shottake></shottake>
															<lognote>https://www.youtube.com/watch?v=hsYOIn8UH2k</lognote>
															<good></good>
															<originalvideofilename></originalvideofilename>
															<originalaudiofilename></originalaudiofilename>
														</logginginfo>
														<colorinfo>
															<lut></lut>
															<lut1></lut1>
															<asc_sop></asc_sop>
															<asc_sat></asc_sat>
															<lut2></lut2>
														</colorinfo>
														<labels>
															<label2>Iris</label2>
														</labels>
													</clipitem>
													<enabled>TRUE</enabled>
													<locked>FALSE</locked>
												</track>
												<track TL.SQTrackShy="0" TL.SQTrackExpandedHeight="25" TL.SQTrackExpanded="0" MZ.TrackTargeted="0">
													<clipitem id="clipitem-570">
														<masterclipid>masterclip-78</masterclipid>
														<name>wAw Creator</name>
														<enabled>TRUE</enabled>
														<duration>5844</duration>
														<rate>
															<timebase>30</timebase>
															<ntsc>TRUE</ntsc>
														</rate>
														<start>0</start>
														<end>3209</end>
														<in>0</in>
														<out>3209</out>
														<pproTicksIn>0</pproTicksIn>
														<pproTicksOut>27198416044800</pproTicksOut>
														<alphatype>straight</alphatype>
														<file id="file-78"/>
														<filter>
															<effect>
																<name>Basic Motion</name>
																<effectid>basic</effectid>
																<effectcategory>motion</effectcategory>
																<effecttype>motion</effecttype>
																<mediatype>video</mediatype>
																<pproBypass>false</pproBypass>
																<parameter authoringApp="PremierePro">
																	<parameterid>scale</parameterid>
																	<name>Scale</name>
																	<valuemin>0</valuemin>
																	<valuemax>1000</valuemax>
																	<value>150</value>
																</parameter>
																<parameter authoringApp="PremierePro">
																	<parameterid>rotation</parameterid>
																	<name>Rotation</name>
																	<valuemin>-8640</valuemin>
																	<valuemax>8640</valuemax>
																	<value>0</value>
																</parameter>
																<parameter authoringApp="PremierePro">
																	<parameterid>center</parameterid>
																	<name>Center</name>
																	<value>
																		<horiz>0</horiz>
																		<vert>0</vert>
																	</value>
																</parameter>
																<parameter authoringApp="PremierePro">
																	<parameterid>centerOffset</parameterid>
																	<name>Anchor Point</name>
																	<value>
																		<horiz>0</horiz>
																		<vert>0</vert>
																	</value>
																</parameter>
																<parameter authoringApp="PremierePro">
																	<parameterid>antiflicker</parameterid>
																	<name>Anti-flicker Filter</name>
																	<valuemin>0.0</valuemin>
																	<valuemax>1.0</valuemax>
																	<value>0</value>
																</parameter>
															</effect>
														</filter>
														<logginginfo>
															<description></description>
															<scene></scene>
															<shottake></shottake>
															<lognote></lognote>
															<good></good>
															<originalvideofilename></originalvideofilename>
															<originalaudiofilename></originalaudiofilename>
														</logginginfo>
														<colorinfo>
															<lut></lut>
															<lut1></lut1>
															<asc_sop></asc_sop>
															<asc_sat></asc_sat>
															<lut2></lut2>
														</colorinfo>
														<labels>
															<label2>Rose</label2>
														</labels>
													</clipitem>
													<enabled>TRUE</enabled>
													<locked>FALSE</locked>
												</track>
												<track TL.SQTrackShy="0" TL.SQTrackExpandedHeight="25" TL.SQTrackExpanded="0" MZ.TrackTargeted="0">
													<clipitem id="clipitem-571">
														<masterclipid>masterclip-106</masterclipid>
														<name>Bug and Lower Nest</name>
														<enabled>TRUE</enabled>
														<duration>14721</duration>
														<rate>
															<timebase>30</timebase>
															<ntsc>TRUE</ntsc>
														</rate>
														<start>0</start>
														<end>3209</end>
														<in>0</in>
														<out>3209</out>
														<pproTicksIn>0</pproTicksIn>
														<pproTicksOut>27198416044800</pproTicksOut>
														<sequence id="sequence-1"/>
														<labels>
															<label2>Cerulean</label2>
														</labels>
													</clipitem>
													<enabled>TRUE</enabled>
													<locked>FALSE</locked>
												</track>
											</video>
											<audio>
												<numOutputChannels>2</numOutputChannels>
												<format>
													<samplecharacteristics>
														<depth>16</depth>
														<samplerate>44100</samplerate>
													</samplecharacteristics>
												</format>
												<outputs>
													<group>
														<index>1</index>
														<numchannels>1</numchannels>
														<downmix>0</downmix>
														<channel>
															<index>1</index>
														</channel>
													</group>
													<group>
														<index>2</index>
														<numchannels>1</numchannels>
														<downmix>0</downmix>
														<channel>
															<index>2</index>
														</channel>
													</group>
												</outputs>
												<track TL.SQTrackAudioKeyframeStyle="0" TL.SQTrackShy="0" TL.SQTrackExpandedHeight="25" TL.SQTrackExpanded="0" MZ.TrackTargeted="1" PannerCurrentValue="0.5" PannerIsInverted="true" PannerStartKeyframe="-91445760000000000,0.5,0,0,0,0,0,0" PannerName="Balance" currentExplodedTrackIndex="0" totalExplodedTrackCount="2" premiereTrackType="Stereo">
													<enabled>TRUE</enabled>
													<locked>FALSE</locked>
													<filter>
														<effect>
															<name>Audio Levels</name>
															<effectid>audiolevels</effectid>
															<effectcategory>audiolevels</effectcategory>
															<effecttype>audiolevels</effecttype>
															<mediatype>audio</mediatype>
															<parameter authoringApp="PremierePro">
																<parameterid>level</parameterid>
																<name>Level</name>
																<valuemin>0</valuemin>
																<valuemax>3.98109</valuemax>
																<value>0.706272</value>
															</parameter>
														</effect>
													</filter>
													<outputchannelindex>1</outputchannelindex>
												</track>
												<track TL.SQTrackAudioKeyframeStyle="0" TL.SQTrackShy="0" TL.SQTrackExpandedHeight="25" TL.SQTrackExpanded="0" MZ.TrackTargeted="1" PannerCurrentValue="0.5" PannerIsInverted="true" PannerStartKeyframe="-91445760000000000,0.5,0,0,0,0,0,0" PannerName="Balance" currentExplodedTrackIndex="1" totalExplodedTrackCount="2" premiereTrackType="Stereo">
													<enabled>TRUE</enabled>
													<locked>FALSE</locked>
													<filter>
														<effect>
															<name>Audio Levels</name>
															<effectid>audiolevels</effectid>
															<effectcategory>audiolevels</effectcategory>
															<effecttype>audiolevels</effecttype>
															<mediatype>audio</mediatype>
															<parameter authoringApp="PremierePro">
																<parameterid>level</parameterid>
																<name>Level</name>
																<valuemin>0</valuemin>
																<valuemax>3.98109</valuemax>
																<value>0.706272</value>
															</parameter>
														</effect>
													</filter>
													<outputchannelindex>2</outputchannelindex>
												</track>
											</audio>
										</media>
										<timecode>
											<rate>
												<timebase>30</timebase>
												<ntsc>TRUE</ntsc>
											</rate>
											<string>00:00:00:00</string>
											<frame>0</frame>
											<displayformat>NDF</displayformat>
										</timecode>
										<labels>
											<label2>Forest</label2>
										</labels>
										<logginginfo>
											<description></description>
											<scene></scene>
											<shottake></shottake>
											<lognote></lognote>
											<good></good>
											<originalvideofilename></originalvideofilename>
											<originalaudiofilename></originalaudiofilename>
										</logginginfo>
									</sequence>
									<sequence id="sequence-61" TL.SQAudioVisibleBase="0" TL.SQVideoVisibleBase="0" TL.SQVisibleBaseTime="0" TL.SQAVDividerPosition="0.5" TL.SQHideShyTracks="0" TL.SQHeaderWidth="236" Monitor.ProgramZoomOut="13094905824000" Monitor.ProgramZoomIn="0" TL.SQTimePerPixel="0.13818516812528672" AM.TrackVScrollPosition="0" AM.TrackScrollPosition="0" MZ.EditLine="796712716800" MZ.Sequence.PreviewFrameSizeHeight="1080" MZ.Sequence.PreviewFrameSizeWidth="1920" MZ.Sequence.AudioTimeDisplayFormat="200" MZ.Sequence.PreviewRenderingClassID="1297106761" MZ.Sequence.PreviewRenderingPresetCodec="1297107278" MZ.Sequence.PreviewRenderingPresetPath="EncoderPresets/SequencePreview/795454d9-d3c2-429d-9474-923ab13b7018/I-Frame Only MPEG.epr" MZ.Sequence.PreviewUseMaxRenderQuality="false" MZ.Sequence.PreviewUseMaxBitDepth="false" MZ.Sequence.EditingModeGUID="795454d9-d3c2-429d-9474-923ab13b7018" MZ.Sequence.VideoTimeDisplayFormat="103" MZ.WorkOutPoint="18841408185600" MZ.WorkInPoint="0" explodedTracks="true">
										<uuid>937de958-3ef3-45e3-8dba-12bfa6504386</uuid>
										<duration>2038</duration>
										<rate>
											<timebase>30</timebase>
											<ntsc>TRUE</ntsc>
										</rate>
										<out>2038</out>
										<name>DIGART_tas visuals_1</name>
										<media>
											<video>
												<format>
													<samplecharacteristics>
														<rate>
															<timebase>30</timebase>
															<ntsc>TRUE</ntsc>
														</rate>
														<codec>
															<name>Apple ProRes 422</name>
															<appspecificdata>
																<appname>Final Cut Pro</appname>
																<appmanufacturer>Apple Inc.</appmanufacturer>
																<appversion>7.0</appversion>
																<data>
																	<qtcodec>
																		<codecname>Apple ProRes 422</codecname>
																		<codectypename>Apple ProRes 422</codectypename>
																		<codectypecode>apcn</codectypecode>
																		<codecvendorcode>appl</codecvendorcode>
																		<spatialquality>1024</spatialquality>
																		<temporalquality>0</temporalquality>
																		<keyframerate>0</keyframerate>
																		<datarate>0</datarate>
																	</qtcodec>
																</data>
															</appspecificdata>
														</codec>
														<width>1920</width>
														<height>1080</height>
														<anamorphic>FALSE</anamorphic>
														<pixelaspectratio>square</pixelaspectratio>
														<fielddominance>none</fielddominance>
														<colordepth>24</colordepth>
													</samplecharacteristics>
												</format>
												<track TL.SQTrackShy="0" TL.SQTrackExpandedHeight="25" TL.SQTrackExpanded="0" MZ.TrackTargeted="1">
													<clipitem id="clipitem-572">
														<masterclipid>masterclip-165</masterclipid>
														<name>(TAS Visuals)_Mandala Meditation TAS Visuals x Maneesh de Moor - Mother's Heartbeat_T7hGCejvAug_YT.mp4</name>
														<enabled>TRUE</enabled>
														<duration>3224</duration>
														<rate>
															<timebase>30</timebase>
															<ntsc>TRUE</ntsc>
														</rate>
														<start>0</start>
														<end>2038</end>
														<in>133</in>
														<out>2170</out>
														<pproTicksIn>5610891686400</pproTicksIn>
														<pproTicksOut>91972353969997</pproTicksOut>
														<alphatype>none</alphatype>
														<pixelaspectratio>square</pixelaspectratio>
														<anamorphic>FALSE</anamorphic>
														<file id="file-159">
															<name>(TAS Visuals)_Mandala Meditation TAS Visuals x Maneesh de Moor - Mother's Heartbeat_T7hGCejvAug_YT.mp4</name>
															<pathurl>file://localhost/Volumes/Satisfactum%20Satisfactorum/03_Weekly%20(Project%20Files,%20Main%20Segments)/OSTV/OSTV%2023-08-21/3_Raw%20Files/(TAS%20Visuals)_Mandala%20Meditation%20TAS%20Visuals%20x%20Maneesh%20de%20Moor%20-%20Mother's%20Heartbeat_T7hGCejvAug_YT.mp4</pathurl>
															<rate>
																<timebase>30</timebase>
																<ntsc>TRUE</ntsc>
															</rate>
															<duration>16121</duration>
															<timecode>
																<rate>
																	<timebase>30</timebase>
																	<ntsc>TRUE</ntsc>
																</rate>
																<string>00:00:00:00</string>
																<frame>0</frame>
																<displayformat>NDF</displayformat>
															</timecode>
															<media>
																<video>
																	<samplecharacteristics>
																		<rate>
																			<timebase>30</timebase>
																			<ntsc>TRUE</ntsc>
																		</rate>
																		<width>1920</width>
																		<height>1080</height>
																		<anamorphic>FALSE</anamorphic>
																		<pixelaspectratio>square</pixelaspectratio>
																		<fielddominance>none</fielddominance>
																	</samplecharacteristics>
																</video>
																<audio>
																	<samplecharacteristics>
																		<depth>16</depth>
																		<samplerate>44100</samplerate>
																	</samplecharacteristics>
																	<channelcount>2</channelcount>
																</audio>
															</media>
														</file>
														<filter>
															<effect>
																<name>Basic Motion</name>
																<effectid>basic</effectid>
																<effectcategory>motion</effectcategory>
																<effecttype>motion</effecttype>
																<mediatype>video</mediatype>
																<pproBypass>false</pproBypass>
																<parameter authoringApp="PremierePro">
																	<parameterid>scale</parameterid>
																	<name>Scale</name>
																	<valuemin>0</valuemin>
																	<valuemax>1000</valuemax>
																	<value>122</value>
																</parameter>
																<parameter authoringApp="PremierePro">
																	<parameterid>rotation</parameterid>
																	<name>Rotation</name>
																	<valuemin>-8640</valuemin>
																	<valuemax>8640</valuemax>
																	<value>0</value>
																</parameter>
																<parameter authoringApp="PremierePro">
																	<parameterid>center</parameterid>
																	<name>Center</name>
																	<value>
																		<horiz>0</horiz>
																		<vert>0</vert>
																	</value>
																</parameter>
																<parameter authoringApp="PremierePro">
																	<parameterid>centerOffset</parameterid>
																	<name>Anchor Point</name>
																	<value>
																		<horiz>0</horiz>
																		<vert>0</vert>
																	</value>
																</parameter>
																<parameter authoringApp="PremierePro">
																	<parameterid>antiflicker</parameterid>
																	<name>Anti-flicker Filter</name>
																	<valuemin>0.0</valuemin>
																	<valuemax>1.0</valuemax>
																	<value>0</value>
																</parameter>
															</effect>
														</filter>
														<filter>
															<effect>
																<name>Time Remap</name>
																<effectid>timeremap</effectid>
																<effectcategory>motion</effectcategory>
																<effecttype>motion</effecttype>
																<mediatype>video</mediatype>
																<parameter authoringApp="PremierePro">
																	<parameterid>variablespeed</parameterid>
																	<name>variablespeed</name>
																	<valuemin>0</valuemin>
																	<valuemax>1</valuemax>
																	<value>0</value>
																</parameter>
																<parameter authoringApp="PremierePro">
																	<parameterid>speed</parameterid>
																	<name>speed</name>
																	<valuemin>-100000</valuemin>
																	<valuemax>100000</valuemax>
																	<value>499.968</value>
																</parameter>
																<parameter authoringApp="PremierePro">
																	<parameterid>reverse</parameterid>
																	<name>reverse</name>
																	<value>FALSE</value>
																</parameter>
																<parameter authoringApp="PremierePro">
																	<parameterid>frameblending</parameterid>
																	<name>frameblending</name>
																	<value>FALSE</value>
																</parameter>
																<parameter authoringApp="PremierePro">
																	<parameterid>graphdict</parameterid>
																	<name>graphdict</name>
																	<valuemin>0</valuemin>
																	<valuemax>16118</valuemax>
																	<value>0</value>
																	<keyframe>
																		<when>0</when>
																		<value>0</value>
																		<speedvirtualkf>TRUE</speedvirtualkf>
																		<speedkfstart>TRUE</speedkfstart>
																	</keyframe>
																	<keyframe>
																		<when>133</when>
																		<value>664</value>
																		<speedvirtualkf>TRUE</speedvirtualkf>
																		<speedkfin>TRUE</speedkfin>
																	</keyframe>
																	<keyframe>
																		<when>2170</when>
																		<value>10849</value>
																		<speedvirtualkf>TRUE</speedvirtualkf>
																		<speedkfout>TRUE</speedkfout>
																	</keyframe>
																	<keyframe>
																		<when>3224</when>
																		<value>16118</value>
																		<speedvirtualkf>TRUE</speedvirtualkf>
																		<speedkfend>TRUE</speedkfend>
																	</keyframe>
																	<interpolation>
																		<name>FCPCurve</name>
																	</interpolation>
																</parameter>
															</effect>
														</filter>
														<logginginfo>
															<description></description>
															<scene></scene>
															<shottake></shottake>
															<lognote>https://www.youtube.com/watch?v=T7hGCejvAug</lognote>
															<good></good>
															<originalvideofilename></originalvideofilename>
															<originalaudiofilename></originalaudiofilename>
														</logginginfo>
														<colorinfo>
															<lut></lut>
															<lut1></lut1>
															<asc_sop></asc_sop>
															<asc_sat></asc_sat>
															<lut2></lut2>
														</colorinfo>
														<labels>
															<label2>Iris</label2>
														</labels>
													</clipitem>
													<enabled>TRUE</enabled>
													<locked>FALSE</locked>
												</track>
												<track TL.SQTrackShy="0" TL.SQTrackExpandedHeight="25" TL.SQTrackExpanded="0" MZ.TrackTargeted="0">
													<clipitem id="clipitem-573">
														<masterclipid>masterclip-79</masterclipid>
														<name>TAS Visuals</name>
														<enabled>TRUE</enabled>
														<duration>5844</duration>
														<rate>
															<timebase>30</timebase>
															<ntsc>TRUE</ntsc>
														</rate>
														<start>0</start>
														<end>2038</end>
														<in>0</in>
														<out>2038</out>
														<pproTicksIn>0</pproTicksIn>
														<pproTicksOut>17273409753600</pproTicksOut>
														<alphatype>straight</alphatype>
														<file id="file-79"/>
														<filter>
															<effect>
																<name>Basic Motion</name>
																<effectid>basic</effectid>
																<effectcategory>motion</effectcategory>
																<effecttype>motion</effecttype>
																<mediatype>video</mediatype>
																<pproBypass>false</pproBypass>
																<parameter authoringApp="PremierePro">
																	<parameterid>scale</parameterid>
																	<name>Scale</name>
																	<valuemin>0</valuemin>
																	<valuemax>1000</valuemax>
																	<value>150</value>
																</parameter>
																<parameter authoringApp="PremierePro">
																	<parameterid>rotation</parameterid>
																	<name>Rotation</name>
																	<valuemin>-8640</valuemin>
																	<valuemax>8640</valuemax>
																	<value>0</value>
																</parameter>
																<parameter authoringApp="PremierePro">
																	<parameterid>center</parameterid>
																	<name>Center</name>
																	<value>
																		<horiz>0</horiz>
																		<vert>0</vert>
																	</value>
																</parameter>
																<parameter authoringApp="PremierePro">
																	<parameterid>centerOffset</parameterid>
																	<name>Anchor Point</name>
																	<value>
																		<horiz>0</horiz>
																		<vert>0</vert>
																	</value>
																</parameter>
																<parameter authoringApp="PremierePro">
																	<parameterid>antiflicker</parameterid>
																	<name>Anti-flicker Filter</name>
																	<valuemin>0.0</valuemin>
																	<valuemax>1.0</valuemax>
																	<value>0</value>
																</parameter>
															</effect>
														</filter>
														<logginginfo>
															<description></description>
															<scene></scene>
															<shottake></shottake>
															<lognote></lognote>
															<good></good>
															<originalvideofilename></originalvideofilename>
															<originalaudiofilename></originalaudiofilename>
														</logginginfo>
														<colorinfo>
															<lut></lut>
															<lut1></lut1>
															<asc_sop></asc_sop>
															<asc_sat></asc_sat>
															<lut2></lut2>
														</colorinfo>
														<labels>
															<label2>Rose</label2>
														</labels>
													</clipitem>
													<enabled>TRUE</enabled>
													<locked>FALSE</locked>
												</track>
												<track TL.SQTrackShy="0" TL.SQTrackExpandedHeight="25" TL.SQTrackExpanded="0" MZ.TrackTargeted="0">
													<clipitem id="clipitem-574">
														<masterclipid>masterclip-106</masterclipid>
														<name>Bug and Lower Nest</name>
														<enabled>TRUE</enabled>
														<duration>14721</duration>
														<rate>
															<timebase>30</timebase>
															<ntsc>TRUE</ntsc>
														</rate>
														<start>0</start>
														<end>2038</end>
														<in>0</in>
														<out>2038</out>
														<pproTicksIn>0</pproTicksIn>
														<pproTicksOut>17273409753600</pproTicksOut>
														<sequence id="sequence-1"/>
														<labels>
															<label2>Cerulean</label2>
														</labels>
													</clipitem>
													<enabled>TRUE</enabled>
													<locked>FALSE</locked>
												</track>
											</video>
											<audio>
												<numOutputChannels>2</numOutputChannels>
												<format>
													<samplecharacteristics>
														<depth>16</depth>
														<samplerate>44100</samplerate>
													</samplecharacteristics>
												</format>
												<outputs>
													<group>
														<index>1</index>
														<numchannels>1</numchannels>
														<downmix>0</downmix>
														<channel>
															<index>1</index>
														</channel>
													</group>
													<group>
														<index>2</index>
														<numchannels>1</numchannels>
														<downmix>0</downmix>
														<channel>
															<index>2</index>
														</channel>
													</group>
												</outputs>
												<track TL.SQTrackAudioKeyframeStyle="0" TL.SQTrackShy="0" TL.SQTrackExpandedHeight="25" TL.SQTrackExpanded="0" MZ.TrackTargeted="1" PannerCurrentValue="0.5" PannerIsInverted="true" PannerStartKeyframe="-91445760000000000,0.5,0,0,0,0,0,0" PannerName="Balance" currentExplodedTrackIndex="0" totalExplodedTrackCount="2" premiereTrackType="Stereo">
													<enabled>TRUE</enabled>
													<locked>FALSE</locked>
													<filter>
														<effect>
															<name>Audio Levels</name>
															<effectid>audiolevels</effectid>
															<effectcategory>audiolevels</effectcategory>
															<effecttype>audiolevels</effecttype>
															<mediatype>audio</mediatype>
															<parameter authoringApp="PremierePro">
																<parameterid>level</parameterid>
																<name>Level</name>
																<valuemin>0</valuemin>
																<valuemax>3.98109</valuemax>
																<value>0.706272</value>
															</parameter>
														</effect>
													</filter>
													<outputchannelindex>1</outputchannelindex>
												</track>
												<track TL.SQTrackAudioKeyframeStyle="0" TL.SQTrackShy="0" TL.SQTrackExpandedHeight="25" TL.SQTrackExpanded="0" MZ.TrackTargeted="1" PannerCurrentValue="0.5" PannerIsInverted="true" PannerStartKeyframe="-91445760000000000,0.5,0,0,0,0,0,0" PannerName="Balance" currentExplodedTrackIndex="1" totalExplodedTrackCount="2" premiereTrackType="Stereo">
													<enabled>TRUE</enabled>
													<locked>FALSE</locked>
													<filter>
														<effect>
															<name>Audio Levels</name>
															<effectid>audiolevels</effectid>
															<effectcategory>audiolevels</effectcategory>
															<effecttype>audiolevels</effecttype>
															<mediatype>audio</mediatype>
															<parameter authoringApp="PremierePro">
																<parameterid>level</parameterid>
																<name>Level</name>
																<valuemin>0</valuemin>
																<valuemax>3.98109</valuemax>
																<value>0.706272</value>
															</parameter>
														</effect>
													</filter>
													<outputchannelindex>2</outputchannelindex>
												</track>
											</audio>
										</media>
										<timecode>
											<rate>
												<timebase>30</timebase>
												<ntsc>TRUE</ntsc>
											</rate>
											<string>00:00:00:00</string>
											<frame>0</frame>
											<displayformat>NDF</displayformat>
										</timecode>
										<labels>
											<label2>Forest</label2>
										</labels>
										<logginginfo>
											<description></description>
											<scene></scene>
											<shottake></shottake>
											<lognote></lognote>
											<good></good>
											<originalvideofilename></originalvideofilename>
											<originalaudiofilename></originalaudiofilename>
										</logginginfo>
									</sequence>
									<sequence id="sequence-62" TL.SQAudioVisibleBase="0" TL.SQVideoVisibleBase="0" TL.SQVisibleBaseTime="0" TL.SQAVDividerPosition="0.5" TL.SQHideShyTracks="0" TL.SQHeaderWidth="236" TL.SQDataTrackViewControlState="0" Monitor.ProgramZoomOut="19926293587200" Monitor.ProgramZoomIn="0" TL.SQTimePerPixel="0.13818517291023924" AM.TrackVScrollPosition="0" AM.TrackScrollPosition="0" MZ.EditLine="4432773945600" MZ.Sequence.PreviewFrameSizeHeight="1080" MZ.Sequence.PreviewFrameSizeWidth="1920" MZ.Sequence.AudioTimeDisplayFormat="200" MZ.Sequence.PreviewRenderingClassID="1297106761" MZ.Sequence.PreviewRenderingPresetCodec="1297107278" MZ.Sequence.PreviewRenderingPresetPath="EncoderPresets/SequencePreview/795454d9-d3c2-429d-9474-923ab13b7018/I-Frame Only MPEG.epr" MZ.Sequence.PreviewUseMaxRenderQuality="false" MZ.Sequence.PreviewUseMaxBitDepth="false" MZ.Sequence.EditingModeGUID="795454d9-d3c2-429d-9474-923ab13b7018" MZ.Sequence.VideoTimeDisplayFormat="103" MZ.WorkOutPoint="23045339116800" MZ.WorkInPoint="0" explodedTracks="true">
										<uuid>7c5e02c5-5b3f-40a8-9fd3-fa45847567f3</uuid>
										<duration>1492</duration>
										<rate>
											<timebase>30</timebase>
											<ntsc>TRUE</ntsc>
										</rate>
										<name>SCI_czferro_1.5</name>
										<media>
											<video>
												<format>
													<samplecharacteristics>
														<rate>
															<timebase>30</timebase>
															<ntsc>TRUE</ntsc>
														</rate>
														<codec>
															<name>Apple ProRes 422</name>
															<appspecificdata>
																<appname>Final Cut Pro</appname>
																<appmanufacturer>Apple Inc.</appmanufacturer>
																<appversion>7.0</appversion>
																<data>
																	<qtcodec>
																		<codecname>Apple ProRes 422</codecname>
																		<codectypename>Apple ProRes 422</codectypename>
																		<codectypecode>apcn</codectypecode>
																		<codecvendorcode>appl</codecvendorcode>
																		<spatialquality>1024</spatialquality>
																		<temporalquality>0</temporalquality>
																		<keyframerate>0</keyframerate>
																		<datarate>0</datarate>
																	</qtcodec>
																</data>
															</appspecificdata>
														</codec>
														<width>1920</width>
														<height>1080</height>
														<anamorphic>FALSE</anamorphic>
														<pixelaspectratio>square</pixelaspectratio>
														<fielddominance>none</fielddominance>
														<colordepth>24</colordepth>
													</samplecharacteristics>
												</format>
												<track TL.SQTrackShy="0" TL.SQTrackExpandedHeight="25" TL.SQTrackExpanded="0" MZ.TrackTargeted="1">
													<clipitem id="clipitem-575">
														<masterclipid>masterclip-166</masterclipid>
														<name>czferro_-2AxQnJS9P_IG.mp4</name>
														<enabled>TRUE</enabled>
														<duration>405</duration>
														<rate>
															<timebase>30</timebase>
															<ntsc>TRUE</ntsc>
														</rate>
														<start>0</start>
														<end>405</end>
														<in>0</in>
														<out>405</out>
														<pproTicksIn>0</pproTicksIn>
														<pproTicksOut>3432645216000</pproTicksOut>
														<alphatype>none</alphatype>
														<pixelaspectratio>square</pixelaspectratio>
														<anamorphic>FALSE</anamorphic>
														<file id="file-160">
															<name>czferro_-2AxQnJS9P_IG.mp4</name>
															<pathurl>file://localhost/Volumes/Satisfactum%20Satisfactorum/00_Hub%20World/3_Raw%20Files/Clip%20Providers/czferro/czferro_-2AxQnJS9P_IG.mp4</pathurl>
															<rate>
																<timebase>29</timebase>
																<ntsc>FALSE</ntsc>
															</rate>
															<duration>406</duration>
															<timecode>
																<rate>
																	<timebase>29</timebase>
																	<ntsc>FALSE</ntsc>
																</rate>
																<string>00:00:00:00</string>
																<frame>0</frame>
																<displayformat>NDF</displayformat>
															</timecode>
															<media>
																<video>
																	<samplecharacteristics>
																		<rate>
																			<timebase>29</timebase>
																			<ntsc>FALSE</ntsc>
																		</rate>
																		<width>640</width>
																		<height>640</height>
																		<anamorphic>FALSE</anamorphic>
																		<pixelaspectratio>square</pixelaspectratio>
																		<fielddominance>none</fielddominance>
																	</samplecharacteristics>
																</video>
																<audio>
																	<samplecharacteristics>
																		<depth>16</depth>
																		<samplerate>44100</samplerate>
																	</samplecharacteristics>
																	<channelcount>1</channelcount>
																	<audiochannel>
																		<sourcechannel>1</sourcechannel>
																	</audiochannel>
																</audio>
															</media>
														</file>
														<filter>
															<effect>
																<name>Basic Motion</name>
																<effectid>basic</effectid>
																<effectcategory>motion</effectcategory>
																<effecttype>motion</effecttype>
																<mediatype>video</mediatype>
																<pproBypass>false</pproBypass>
																<parameter authoringApp="PremierePro">
																	<parameterid>scale</parameterid>
																	<name>Scale</name>
																	<valuemin>0</valuemin>
																	<valuemax>1000</valuemax>
																	<value>354.75</value>
																</parameter>
																<parameter authoringApp="PremierePro">
																	<parameterid>rotation</parameterid>
																	<name>Rotation</name>
																	<valuemin>-8640</valuemin>
																	<valuemax>8640</valuemax>
																	<value>0</value>
																</parameter>
																<parameter authoringApp="PremierePro">
																	<parameterid>center</parameterid>
																	<name>Center</name>
																	<value>
																		<horiz>0</horiz>
																		<vert>0</vert>
																	</value>
																</parameter>
																<parameter authoringApp="PremierePro">
																	<parameterid>centerOffset</parameterid>
																	<name>Anchor Point</name>
																	<value>
																		<horiz>0</horiz>
																		<vert>0</vert>
																	</value>
																</parameter>
																<parameter authoringApp="PremierePro">
																	<parameterid>antiflicker</parameterid>
																	<name>Anti-flicker Filter</name>
																	<valuemin>0.0</valuemin>
																	<valuemax>1.0</valuemax>
																	<value>0</value>
																</parameter>
															</effect>
														</filter>
														<filter>
															<effect>
																<name>Gaussian Blur</name>
																<effectid>Gaussian Blur</effectid>
																<effectcategory>Blur</effectcategory>
																<effecttype>motion</effecttype>
																<mediatype>video</mediatype>
																<pproBypass>false</pproBypass>
																<parameter authoringApp="PremierePro">
																	<parameterid>radius</parameterid>
																	<name>Radius</name>
																	<valuemin>0</valuemin>
																	<valuemax>100</valuemax>
																	<value>150</value>
																</parameter>
															</effect>
														</filter>
														<logginginfo>
															<description></description>
															<scene></scene>
															<shottake></shottake>
															<lognote></lognote>
															<good></good>
															<originalvideofilename></originalvideofilename>
															<originalaudiofilename></originalaudiofilename>
														</logginginfo>
														<colorinfo>
															<lut></lut>
															<lut1></lut1>
															<asc_sop></asc_sop>
															<asc_sat></asc_sat>
															<lut2></lut2>
														</colorinfo>
														<labels>
															<label2>Iris</label2>
														</labels>
													</clipitem>
													<clipitem id="clipitem-576">
														<masterclipid>masterclip-167</masterclipid>
														<name>czferro_BBZzGzRJSwn_IG.mp4</name>
														<enabled>TRUE</enabled>
														<duration>406</duration>
														<rate>
															<timebase>30</timebase>
															<ntsc>TRUE</ntsc>
														</rate>
														<start>593</start>
														<end>999</end>
														<in>0</in>
														<out>406</out>
														<pproTicksIn>0</pproTicksIn>
														<pproTicksOut>3441120883200</pproTicksOut>
														<alphatype>none</alphatype>
														<pixelaspectratio>square</pixelaspectratio>
														<anamorphic>FALSE</anamorphic>
														<file id="file-161">
															<name>czferro_BBZzGzRJSwn_IG.mp4</name>
															<pathurl>file://localhost/Volumes/Satisfactum%20Satisfactorum/00_Hub%20World/3_Raw%20Files/Clip%20Providers/czferro/czferro_BBZzGzRJSwn_IG.mp4</pathurl>
															<rate>
																<timebase>29</timebase>
																<ntsc>FALSE</ntsc>
															</rate>
															<duration>407</duration>
															<timecode>
																<rate>
																	<timebase>29</timebase>
																	<ntsc>FALSE</ntsc>
																</rate>
																<string>00:00:00:00</string>
																<frame>0</frame>
																<displayformat>NDF</displayformat>
															</timecode>
															<media>
																<video>
																	<samplecharacteristics>
																		<rate>
																			<timebase>29</timebase>
																			<ntsc>FALSE</ntsc>
																		</rate>
																		<width>640</width>
																		<height>640</height>
																		<anamorphic>FALSE</anamorphic>
																		<pixelaspectratio>square</pixelaspectratio>
																		<fielddominance>none</fielddominance>
																	</samplecharacteristics>
																</video>
																<audio>
																	<samplecharacteristics>
																		<depth>16</depth>
																		<samplerate>44100</samplerate>
																	</samplecharacteristics>
																	<channelcount>1</channelcount>
																	<audiochannel>
																		<sourcechannel>1</sourcechannel>
																	</audiochannel>
																</audio>
															</media>
														</file>
														<filter>
															<effect>
																<name>Basic Motion</name>
																<effectid>basic</effectid>
																<effectcategory>motion</effectcategory>
																<effecttype>motion</effecttype>
																<mediatype>video</mediatype>
																<pproBypass>false</pproBypass>
																<parameter authoringApp="PremierePro">
																	<parameterid>scale</parameterid>
																	<name>Scale</name>
																	<valuemin>0</valuemin>
																	<valuemax>1000</valuemax>
																	<value>354.75</value>
																</parameter>
																<parameter authoringApp="PremierePro">
																	<parameterid>rotation</parameterid>
																	<name>Rotation</name>
																	<valuemin>-8640</valuemin>
																	<valuemax>8640</valuemax>
																	<value>0</value>
																</parameter>
																<parameter authoringApp="PremierePro">
																	<parameterid>center</parameterid>
																	<name>Center</name>
																	<value>
																		<horiz>0</horiz>
																		<vert>0</vert>
																	</value>
																</parameter>
																<parameter authoringApp="PremierePro">
																	<parameterid>centerOffset</parameterid>
																	<name>Anchor Point</name>
																	<value>
																		<horiz>0</horiz>
																		<vert>0</vert>
																	</value>
																</parameter>
																<parameter authoringApp="PremierePro">
																	<parameterid>antiflicker</parameterid>
																	<name>Anti-flicker Filter</name>
																	<valuemin>0.0</valuemin>
																	<valuemax>1.0</valuemax>
																	<value>0</value>
																</parameter>
															</effect>
														</filter>
														<filter>
															<effect>
																<name>Gaussian Blur</name>
																<effectid>Gaussian Blur</effectid>
																<effectcategory>Blur</effectcategory>
																<effecttype>motion</effecttype>
																<mediatype>video</mediatype>
																<pproBypass>false</pproBypass>
																<parameter authoringApp="PremierePro">
																	<parameterid>radius</parameterid>
																	<name>Radius</name>
																	<valuemin>0</valuemin>
																	<valuemax>100</valuemax>
																	<value>150</value>
																</parameter>
															</effect>
														</filter>
														<logginginfo>
															<description></description>
															<scene></scene>
															<shottake></shottake>
															<lognote></lognote>
															<good></good>
															<originalvideofilename></originalvideofilename>
															<originalaudiofilename></originalaudiofilename>
														</logginginfo>
														<colorinfo>
															<lut></lut>
															<lut1></lut1>
															<asc_sop></asc_sop>
															<asc_sat></asc_sat>
															<lut2></lut2>
														</colorinfo>
														<labels>
															<label2>Iris</label2>
														</labels>
													</clipitem>
													<clipitem id="clipitem-577">
														<masterclipid>masterclip-168</masterclipid>
														<name>czferro_BFsdmZVpS4M_IG.mp4</name>
														<enabled>TRUE</enabled>
														<duration>190</duration>
														<rate>
															<timebase>30</timebase>
															<ntsc>TRUE</ntsc>
														</rate>
														<start>1302</start>
														<end>1492</end>
														<in>0</in>
														<out>190</out>
														<pproTicksIn>0</pproTicksIn>
														<pproTicksOut>1610376768000</pproTicksOut>
														<alphatype>none</alphatype>
														<pixelaspectratio>square</pixelaspectratio>
														<anamorphic>FALSE</anamorphic>
														<file id="file-162">
															<name>czferro_BFsdmZVpS4M_IG.mp4</name>
															<pathurl>file://localhost/Volumes/Satisfactum%20Satisfactorum/00_Hub%20World/3_Raw%20Files/Clip%20Providers/czferro/czferro_BFsdmZVpS4M_IG.mp4</pathurl>
															<rate>
																<timebase>29</timebase>
																<ntsc>FALSE</ntsc>
															</rate>
															<duration>191</duration>
															<timecode>
																<rate>
																	<timebase>29</timebase>
																	<ntsc>FALSE</ntsc>
																</rate>
																<string>00:00:00:00</string>
																<frame>0</frame>
																<displayformat>NDF</displayformat>
															</timecode>
															<media>
																<video>
																	<samplecharacteristics>
																		<rate>
																			<timebase>29</timebase>
																			<ntsc>FALSE</ntsc>
																		</rate>
																		<width>640</width>
																		<height>800</height>
																		<anamorphic>FALSE</anamorphic>
																		<pixelaspectratio>square</pixelaspectratio>
																		<fielddominance>none</fielddominance>
																	</samplecharacteristics>
																</video>
																<audio>
																	<samplecharacteristics>
																		<depth>16</depth>
																		<samplerate>44100</samplerate>
																	</samplecharacteristics>
																	<channelcount>1</channelcount>
																	<audiochannel>
																		<sourcechannel>1</sourcechannel>
																	</audiochannel>
																</audio>
															</media>
														</file>
														<filter>
															<effect>
																<name>Basic Motion</name>
																<effectid>basic</effectid>
																<effectcategory>motion</effectcategory>
																<effecttype>motion</effecttype>
																<mediatype>video</mediatype>
																<pproBypass>false</pproBypass>
																<parameter authoringApp="PremierePro">
																	<parameterid>scale</parameterid>
																	<name>Scale</name>
																	<valuemin>0</valuemin>
																	<valuemax>1000</valuemax>
																	<value>354.75</value>
																</parameter>
																<parameter authoringApp="PremierePro">
																	<parameterid>rotation</parameterid>
																	<name>Rotation</name>
																	<valuemin>-8640</valuemin>
																	<valuemax>8640</valuemax>
																	<value>0</value>
																</parameter>
																<parameter authoringApp="PremierePro">
																	<parameterid>center</parameterid>
																	<name>Center</name>
																	<value>
																		<horiz>0</horiz>
																		<vert>0</vert>
																	</value>
																</parameter>
																<parameter authoringApp="PremierePro">
																	<parameterid>centerOffset</parameterid>
																	<name>Anchor Point</name>
																	<value>
																		<horiz>0</horiz>
																		<vert>0</vert>
																	</value>
																</parameter>
																<parameter authoringApp="PremierePro">
																	<parameterid>antiflicker</parameterid>
																	<name>Anti-flicker Filter</name>
																	<valuemin>0.0</valuemin>
																	<valuemax>1.0</valuemax>
																	<value>0</value>
																</parameter>
															</effect>
														</filter>
														<filter>
															<effect>
																<name>Gaussian Blur</name>
																<effectid>Gaussian Blur</effectid>
																<effectcategory>Blur</effectcategory>
																<effecttype>motion</effecttype>
																<mediatype>video</mediatype>
																<pproBypass>false</pproBypass>
																<parameter authoringApp="PremierePro">
																	<parameterid>radius</parameterid>
																	<name>Radius</name>
																	<valuemin>0</valuemin>
																	<valuemax>100</valuemax>
																	<value>150</value>
																</parameter>
															</effect>
														</filter>
														<logginginfo>
															<description></description>
															<scene></scene>
															<shottake></shottake>
															<lognote></lognote>
															<good></good>
															<originalvideofilename></originalvideofilename>
															<originalaudiofilename></originalaudiofilename>
														</logginginfo>
														<colorinfo>
															<lut></lut>
															<lut1></lut1>
															<asc_sop></asc_sop>
															<asc_sat></asc_sat>
															<lut2></lut2>
														</colorinfo>
														<labels>
															<label2>Iris</label2>
														</labels>
													</clipitem>
													<enabled>TRUE</enabled>
													<locked>FALSE</locked>
												</track>
												<track TL.SQTrackShy="0" TL.SQTrackExpandedHeight="25" TL.SQTrackExpanded="0" MZ.TrackTargeted="0">
													<clipitem id="clipitem-578">
														<masterclipid>masterclip-166</masterclipid>
														<name>czferro_-2AxQnJS9P_IG.mp4</name>
														<enabled>TRUE</enabled>
														<duration>405</duration>
														<rate>
															<timebase>30</timebase>
															<ntsc>TRUE</ntsc>
														</rate>
														<start>0</start>
														<end>405</end>
														<in>0</in>
														<out>405</out>
														<pproTicksIn>0</pproTicksIn>
														<pproTicksOut>3432645216000</pproTicksOut>
														<alphatype>none</alphatype>
														<file id="file-160"/>
														<filter>
															<effect>
																<name>Basic Motion</name>
																<effectid>basic</effectid>
																<effectcategory>motion</effectcategory>
																<effecttype>motion</effecttype>
																<mediatype>video</mediatype>
																<pproBypass>false</pproBypass>
																<parameter authoringApp="PremierePro">
																	<parameterid>scale</parameterid>
																	<name>Scale</name>
																	<valuemin>0</valuemin>
																	<valuemax>1000</valuemax>
																	<value>168.75</value>
																</parameter>
																<parameter authoringApp="PremierePro">
																	<parameterid>rotation</parameterid>
																	<name>Rotation</name>
																	<valuemin>-8640</valuemin>
																	<valuemax>8640</valuemax>
																	<value>0</value>
																</parameter>
																<parameter authoringApp="PremierePro">
																	<parameterid>center</parameterid>
																	<name>Center</name>
																	<value>
																		<horiz>0</horiz>
																		<vert>0</vert>
																	</value>
																</parameter>
																<parameter authoringApp="PremierePro">
																	<parameterid>centerOffset</parameterid>
																	<name>Anchor Point</name>
																	<value>
																		<horiz>0</horiz>
																		<vert>0</vert>
																	</value>
																</parameter>
																<parameter authoringApp="PremierePro">
																	<parameterid>antiflicker</parameterid>
																	<name>Anti-flicker Filter</name>
																	<valuemin>0.0</valuemin>
																	<valuemax>1.0</valuemax>
																	<value>0</value>
																</parameter>
															</effect>
														</filter>
														<logginginfo>
															<description></description>
															<scene></scene>
															<shottake></shottake>
															<lognote></lognote>
															<good></good>
															<originalvideofilename></originalvideofilename>
															<originalaudiofilename></originalaudiofilename>
														</logginginfo>
														<colorinfo>
															<lut></lut>
															<lut1></lut1>
															<asc_sop></asc_sop>
															<asc_sat></asc_sat>
															<lut2></lut2>
														</colorinfo>
														<labels>
															<label2>Iris</label2>
														</labels>
													</clipitem>
													<clipitem id="clipitem-579">
														<masterclipid>masterclip-169</masterclipid>
														<name>czferro_BbgtS2xlsIH - 1_IG.mp4</name>
														<enabled>TRUE</enabled>
														<duration>211</duration>
														<rate>
															<timebase>30</timebase>
															<ntsc>TRUE</ntsc>
														</rate>
														<start>405</start>
														<end>593</end>
														<in>0</in>
														<out>188</out>
														<pproTicksIn>0</pproTicksIn>
														<pproTicksOut>1593425433600</pproTicksOut>
														<alphatype>none</alphatype>
														<pixelaspectratio>square</pixelaspectratio>
														<anamorphic>FALSE</anamorphic>
														<file id="file-163">
															<name>czferro_BbgtS2xlsIH - 1_IG.mp4</name>
															<pathurl>file://localhost/Volumes/Satisfactum%20Satisfactorum/00_Hub%20World/3_Raw%20Files/Clip%20Providers/czferro/czferro_BbgtS2xlsIH%20-%201_IG.mp4</pathurl>
															<rate>
																<timebase>30</timebase>
																<ntsc>FALSE</ntsc>
															</rate>
															<duration>212</duration>
															<timecode>
																<rate>
																	<timebase>30</timebase>
																	<ntsc>FALSE</ntsc>
																</rate>
																<string>00:00:00:00</string>
																<frame>0</frame>
																<displayformat>NDF</displayformat>
															</timecode>
															<media>
																<video>
																	<samplecharacteristics>
																		<rate>
																			<timebase>30</timebase>
																			<ntsc>FALSE</ntsc>
																		</rate>
																		<width>640</width>
																		<height>640</height>
																		<anamorphic>FALSE</anamorphic>
																		<pixelaspectratio>square</pixelaspectratio>
																		<fielddominance>none</fielddominance>
																	</samplecharacteristics>
																</video>
																<audio>
																	<samplecharacteristics>
																		<depth>16</depth>
																		<samplerate>44100</samplerate>
																	</samplecharacteristics>
																	<channelcount>1</channelcount>
																	<audiochannel>
																		<sourcechannel>1</sourcechannel>
																	</audiochannel>
																</audio>
															</media>
														</file>
														<filter>
															<effect>
																<name>Basic Motion</name>
																<effectid>basic</effectid>
																<effectcategory>motion</effectcategory>
																<effecttype>motion</effecttype>
																<mediatype>video</mediatype>
																<pproBypass>false</pproBypass>
																<parameter authoringApp="PremierePro">
																	<parameterid>scale</parameterid>
																	<name>Scale</name>
																	<valuemin>0</valuemin>
																	<valuemax>1000</valuemax>
																	<value>354.75</value>
																</parameter>
																<parameter authoringApp="PremierePro">
																	<parameterid>rotation</parameterid>
																	<name>Rotation</name>
																	<valuemin>-8640</valuemin>
																	<valuemax>8640</valuemax>
																	<value>0</value>
																</parameter>
																<parameter authoringApp="PremierePro">
																	<parameterid>center</parameterid>
																	<name>Center</name>
																	<value>
																		<horiz>0</horiz>
																		<vert>0</vert>
																	</value>
																</parameter>
																<parameter authoringApp="PremierePro">
																	<parameterid>centerOffset</parameterid>
																	<name>Anchor Point</name>
																	<value>
																		<horiz>0</horiz>
																		<vert>0</vert>
																	</value>
																</parameter>
																<parameter authoringApp="PremierePro">
																	<parameterid>antiflicker</parameterid>
																	<name>Anti-flicker Filter</name>
																	<valuemin>0.0</valuemin>
																	<valuemax>1.0</valuemax>
																	<value>0</value>
																</parameter>
															</effect>
														</filter>
														<filter>
															<effect>
																<name>Gaussian Blur</name>
																<effectid>Gaussian Blur</effectid>
																<effectcategory>Blur</effectcategory>
																<effecttype>motion</effecttype>
																<mediatype>video</mediatype>
																<pproBypass>false</pproBypass>
																<parameter authoringApp="PremierePro">
																	<parameterid>radius</parameterid>
																	<name>Radius</name>
																	<valuemin>0</valuemin>
																	<valuemax>100</valuemax>
																	<value>150</value>
																</parameter>
															</effect>
														</filter>
														<logginginfo>
															<description></description>
															<scene></scene>
															<shottake></shottake>
															<lognote></lognote>
															<good></good>
															<originalvideofilename></originalvideofilename>
															<originalaudiofilename></originalaudiofilename>
														</logginginfo>
														<colorinfo>
															<lut></lut>
															<lut1></lut1>
															<asc_sop></asc_sop>
															<asc_sat></asc_sat>
															<lut2></lut2>
														</colorinfo>
														<labels>
															<label2>Iris</label2>
														</labels>
													</clipitem>
													<clipitem id="clipitem-580">
														<masterclipid>masterclip-167</masterclipid>
														<name>czferro_BBZzGzRJSwn_IG.mp4</name>
														<enabled>TRUE</enabled>
														<duration>406</duration>
														<rate>
															<timebase>30</timebase>
															<ntsc>TRUE</ntsc>
														</rate>
														<start>593</start>
														<end>999</end>
														<in>0</in>
														<out>406</out>
														<pproTicksIn>0</pproTicksIn>
														<pproTicksOut>3441120883200</pproTicksOut>
														<alphatype>none</alphatype>
														<file id="file-161"/>
														<filter>
															<effect>
																<name>Basic Motion</name>
																<effectid>basic</effectid>
																<effectcategory>motion</effectcategory>
																<effecttype>motion</effecttype>
																<mediatype>video</mediatype>
																<pproBypass>false</pproBypass>
																<parameter authoringApp="PremierePro">
																	<parameterid>scale</parameterid>
																	<name>Scale</name>
																	<valuemin>0</valuemin>
																	<valuemax>1000</valuemax>
																	<value>168.75</value>
																</parameter>
																<parameter authoringApp="PremierePro">
																	<parameterid>rotation</parameterid>
																	<name>Rotation</name>
																	<valuemin>-8640</valuemin>
																	<valuemax>8640</valuemax>
																	<value>0</value>
																</parameter>
																<parameter authoringApp="PremierePro">
																	<parameterid>center</parameterid>
																	<name>Center</name>
																	<value>
																		<horiz>0</horiz>
																		<vert>0</vert>
																	</value>
																</parameter>
																<parameter authoringApp="PremierePro">
																	<parameterid>centerOffset</parameterid>
																	<name>Anchor Point</name>
																	<value>
																		<horiz>0</horiz>
																		<vert>0</vert>
																	</value>
																</parameter>
																<parameter authoringApp="PremierePro">
																	<parameterid>antiflicker</parameterid>
																	<name>Anti-flicker Filter</name>
																	<valuemin>0.0</valuemin>
																	<valuemax>1.0</valuemax>
																	<value>0</value>
																</parameter>
															</effect>
														</filter>
														<logginginfo>
															<description></description>
															<scene></scene>
															<shottake></shottake>
															<lognote></lognote>
															<good></good>
															<originalvideofilename></originalvideofilename>
															<originalaudiofilename></originalaudiofilename>
														</logginginfo>
														<colorinfo>
															<lut></lut>
															<lut1></lut1>
															<asc_sop></asc_sop>
															<asc_sat></asc_sat>
															<lut2></lut2>
														</colorinfo>
														<labels>
															<label2>Iris</label2>
														</labels>
													</clipitem>
													<clipitem id="clipitem-581">
														<masterclipid>masterclip-170</masterclipid>
														<name>czferro_BbgtS2xlsIH - 2_IG.mp4</name>
														<enabled>TRUE</enabled>
														<duration>417</duration>
														<rate>
															<timebase>30</timebase>
															<ntsc>TRUE</ntsc>
														</rate>
														<start>999</start>
														<end>1302</end>
														<in>0</in>
														<out>303</out>
														<pproTicksIn>0</pproTicksIn>
														<pproTicksOut>2568127161600</pproTicksOut>
														<alphatype>none</alphatype>
														<pixelaspectratio>square</pixelaspectratio>
														<anamorphic>FALSE</anamorphic>
														<file id="file-164">
															<name>czferro_BbgtS2xlsIH - 2_IG.mp4</name>
															<pathurl>file://localhost/Volumes/Satisfactum%20Satisfactorum/00_Hub%20World/3_Raw%20Files/Clip%20Providers/czferro/czferro_BbgtS2xlsIH%20-%202_IG.mp4</pathurl>
															<rate>
																<timebase>30</timebase>
																<ntsc>FALSE</ntsc>
															</rate>
															<duration>418</duration>
															<timecode>
																<rate>
																	<timebase>30</timebase>
																	<ntsc>FALSE</ntsc>
																</rate>
																<string>00:00:00:00</string>
																<frame>0</frame>
																<displayformat>NDF</displayformat>
															</timecode>
															<media>
																<video>
																	<samplecharacteristics>
																		<rate>
																			<timebase>30</timebase>
																			<ntsc>FALSE</ntsc>
																		</rate>
																		<width>640</width>
																		<height>640</height>
																		<anamorphic>FALSE</anamorphic>
																		<pixelaspectratio>square</pixelaspectratio>
																		<fielddominance>none</fielddominance>
																	</samplecharacteristics>
																</video>
																<audio>
																	<samplecharacteristics>
																		<depth>16</depth>
																		<samplerate>44100</samplerate>
																	</samplecharacteristics>
																	<channelcount>1</channelcount>
																	<audiochannel>
																		<sourcechannel>1</sourcechannel>
																	</audiochannel>
																</audio>
															</media>
														</file>
														<filter>
															<effect>
																<name>Basic Motion</name>
																<effectid>basic</effectid>
																<effectcategory>motion</effectcategory>
																<effecttype>motion</effecttype>
																<mediatype>video</mediatype>
																<pproBypass>false</pproBypass>
																<parameter authoringApp="PremierePro">
																	<parameterid>scale</parameterid>
																	<name>Scale</name>
																	<valuemin>0</valuemin>
																	<valuemax>1000</valuemax>
																	<value>354.75</value>
																</parameter>
																<parameter authoringApp="PremierePro">
																	<parameterid>rotation</parameterid>
																	<name>Rotation</name>
																	<valuemin>-8640</valuemin>
																	<valuemax>8640</valuemax>
																	<value>0</value>
																</parameter>
																<parameter authoringApp="PremierePro">
																	<parameterid>center</parameterid>
																	<name>Center</name>
																	<value>
																		<horiz>0</horiz>
																		<vert>0</vert>
																	</value>
																</parameter>
																<parameter authoringApp="PremierePro">
																	<parameterid>centerOffset</parameterid>
																	<name>Anchor Point</name>
																	<value>
																		<horiz>0</horiz>
																		<vert>0</vert>
																	</value>
																</parameter>
																<parameter authoringApp="PremierePro">
																	<parameterid>antiflicker</parameterid>
																	<name>Anti-flicker Filter</name>
																	<valuemin>0.0</valuemin>
																	<valuemax>1.0</valuemax>
																	<value>0</value>
																</parameter>
															</effect>
														</filter>
														<filter>
															<effect>
																<name>Gaussian Blur</name>
																<effectid>Gaussian Blur</effectid>
																<effectcategory>Blur</effectcategory>
																<effecttype>motion</effecttype>
																<mediatype>video</mediatype>
																<pproBypass>false</pproBypass>
																<parameter authoringApp="PremierePro">
																	<parameterid>radius</parameterid>
																	<name>Radius</name>
																	<valuemin>0</valuemin>
																	<valuemax>100</valuemax>
																	<value>150</value>
																</parameter>
															</effect>
														</filter>
														<logginginfo>
															<description></description>
															<scene></scene>
															<shottake></shottake>
															<lognote></lognote>
															<good></good>
															<originalvideofilename></originalvideofilename>
															<originalaudiofilename></originalaudiofilename>
														</logginginfo>
														<colorinfo>
															<lut></lut>
															<lut1></lut1>
															<asc_sop></asc_sop>
															<asc_sat></asc_sat>
															<lut2></lut2>
														</colorinfo>
														<labels>
															<label2>Iris</label2>
														</labels>
													</clipitem>
													<clipitem id="clipitem-582">
														<masterclipid>masterclip-168</masterclipid>
														<name>czferro_BFsdmZVpS4M_IG.mp4</name>
														<enabled>TRUE</enabled>
														<duration>190</duration>
														<rate>
															<timebase>30</timebase>
															<ntsc>TRUE</ntsc>
														</rate>
														<start>1302</start>
														<end>1492</end>
														<in>0</in>
														<out>190</out>
														<pproTicksIn>0</pproTicksIn>
														<pproTicksOut>1610376768000</pproTicksOut>
														<alphatype>none</alphatype>
														<file id="file-162"/>
														<filter>
															<effect>
																<name>Basic Motion</name>
																<effectid>basic</effectid>
																<effectcategory>motion</effectcategory>
																<effecttype>motion</effecttype>
																<mediatype>video</mediatype>
																<pproBypass>false</pproBypass>
																<parameter authoringApp="PremierePro">
																	<parameterid>scale</parameterid>
																	<name>Scale</name>
																	<valuemin>0</valuemin>
																	<valuemax>1000</valuemax>
																	<value>135</value>
																</parameter>
																<parameter authoringApp="PremierePro">
																	<parameterid>rotation</parameterid>
																	<name>Rotation</name>
																	<valuemin>-8640</valuemin>
																	<valuemax>8640</valuemax>
																	<value>0</value>
																</parameter>
																<parameter authoringApp="PremierePro">
																	<parameterid>center</parameterid>
																	<name>Center</name>
																	<value>
																		<horiz>0</horiz>
																		<vert>0</vert>
																	</value>
																</parameter>
																<parameter authoringApp="PremierePro">
																	<parameterid>centerOffset</parameterid>
																	<name>Anchor Point</name>
																	<value>
																		<horiz>0</horiz>
																		<vert>0</vert>
																	</value>
																</parameter>
																<parameter authoringApp="PremierePro">
																	<parameterid>antiflicker</parameterid>
																	<name>Anti-flicker Filter</name>
																	<valuemin>0.0</valuemin>
																	<valuemax>1.0</valuemax>
																	<value>0</value>
																</parameter>
															</effect>
														</filter>
														<logginginfo>
															<description></description>
															<scene></scene>
															<shottake></shottake>
															<lognote></lognote>
															<good></good>
															<originalvideofilename></originalvideofilename>
															<originalaudiofilename></originalaudiofilename>
														</logginginfo>
														<colorinfo>
															<lut></lut>
															<lut1></lut1>
															<asc_sop></asc_sop>
															<asc_sat></asc_sat>
															<lut2></lut2>
														</colorinfo>
														<labels>
															<label2>Iris</label2>
														</labels>
													</clipitem>
													<clipitem id="clipitem-583">
														<masterclipid>masterclip-171</masterclipid>
														<name>czferro_BXpLYTZFN4f_IG.mp4</name>
														<enabled>TRUE</enabled>
														<duration>859</duration>
														<rate>
															<timebase>30</timebase>
															<ntsc>TRUE</ntsc>
														</rate>
														<start>1492</start>
														<end>2351</end>
														<in>0</in>
														<out>859</out>
														<pproTicksIn>0</pproTicksIn>
														<pproTicksOut>7280598124800</pproTicksOut>
														<alphatype>none</alphatype>
														<pixelaspectratio>square</pixelaspectratio>
														<anamorphic>FALSE</anamorphic>
														<file id="file-165">
															<name>czferro_BXpLYTZFN4f_IG.mp4</name>
															<pathurl>file://localhost/Volumes/Satisfactum%20Satisfactorum/00_Hub%20World/3_Raw%20Files/Clip%20Providers/czferro/czferro_BXpLYTZFN4f_IG.mp4</pathurl>
															<rate>
																<timebase>30</timebase>
																<ntsc>FALSE</ntsc>
															</rate>
															<duration>860</duration>
															<timecode>
																<rate>
																	<timebase>30</timebase>
																	<ntsc>FALSE</ntsc>
																</rate>
																<string>00:00:00:00</string>
																<frame>0</frame>
																<displayformat>NDF</displayformat>
															</timecode>
															<media>
																<video>
																	<samplecharacteristics>
																		<rate>
																			<timebase>30</timebase>
																			<ntsc>FALSE</ntsc>
																		</rate>
																		<width>720</width>
																		<height>720</height>
																		<anamorphic>FALSE</anamorphic>
																		<pixelaspectratio>square</pixelaspectratio>
																		<fielddominance>none</fielddominance>
																	</samplecharacteristics>
																</video>
																<audio>
																	<samplecharacteristics>
																		<depth>16</depth>
																		<samplerate>44100</samplerate>
																	</samplecharacteristics>
																	<channelcount>1</channelcount>
																	<audiochannel>
																		<sourcechannel>1</sourcechannel>
																	</audiochannel>
																</audio>
															</media>
														</file>
														<filter>
															<effect>
																<name>Basic Motion</name>
																<effectid>basic</effectid>
																<effectcategory>motion</effectcategory>
																<effecttype>motion</effecttype>
																<mediatype>video</mediatype>
																<pproBypass>false</pproBypass>
																<parameter authoringApp="PremierePro">
																	<parameterid>scale</parameterid>
																	<name>Scale</name>
																	<valuemin>0</valuemin>
																	<valuemax>1000</valuemax>
																	<value>354.75</value>
																</parameter>
																<parameter authoringApp="PremierePro">
																	<parameterid>rotation</parameterid>
																	<name>Rotation</name>
																	<valuemin>-8640</valuemin>
																	<valuemax>8640</valuemax>
																	<value>0</value>
																</parameter>
																<parameter authoringApp="PremierePro">
																	<parameterid>center</parameterid>
																	<name>Center</name>
																	<value>
																		<horiz>0</horiz>
																		<vert>0</vert>
																	</value>
																</parameter>
																<parameter authoringApp="PremierePro">
																	<parameterid>centerOffset</parameterid>
																	<name>Anchor Point</name>
																	<value>
																		<horiz>0</horiz>
																		<vert>0</vert>
																	</value>
																</parameter>
																<parameter authoringApp="PremierePro">
																	<parameterid>antiflicker</parameterid>
																	<name>Anti-flicker Filter</name>
																	<valuemin>0.0</valuemin>
																	<valuemax>1.0</valuemax>
																	<value>0</value>
																</parameter>
															</effect>
														</filter>
														<filter>
															<effect>
																<name>Gaussian Blur</name>
																<effectid>Gaussian Blur</effectid>
																<effectcategory>Blur</effectcategory>
																<effecttype>motion</effecttype>
																<mediatype>video</mediatype>
																<pproBypass>false</pproBypass>
																<parameter authoringApp="PremierePro">
																	<parameterid>radius</parameterid>
																	<name>Radius</name>
																	<valuemin>0</valuemin>
																	<valuemax>100</valuemax>
																	<value>150</value>
																</parameter>
															</effect>
														</filter>
														<logginginfo>
															<description></description>
															<scene></scene>
															<shottake></shottake>
															<lognote></lognote>
															<good></good>
															<originalvideofilename></originalvideofilename>
															<originalaudiofilename></originalaudiofilename>
														</logginginfo>
														<colorinfo>
															<lut></lut>
															<lut1></lut1>
															<asc_sop></asc_sop>
															<asc_sat></asc_sat>
															<lut2></lut2>
														</colorinfo>
													</clipitem>
													<enabled>TRUE</enabled>
													<locked>FALSE</locked>
												</track>
												<track TL.SQTrackShy="0" TL.SQTrackExpandedHeight="25" TL.SQTrackExpanded="0" MZ.TrackTargeted="0">
													<clipitem id="clipitem-584">
														<masterclipid>masterclip-169</masterclipid>
														<name>czferro_BbgtS2xlsIH - 1_IG.mp4</name>
														<enabled>TRUE</enabled>
														<duration>211</duration>
														<rate>
															<timebase>30</timebase>
															<ntsc>TRUE</ntsc>
														</rate>
														<start>405</start>
														<end>593</end>
														<in>0</in>
														<out>188</out>
														<pproTicksIn>0</pproTicksIn>
														<pproTicksOut>1593425433600</pproTicksOut>
														<alphatype>none</alphatype>
														<file id="file-163"/>
														<filter>
															<effect>
																<name>Basic Motion</name>
																<effectid>basic</effectid>
																<effectcategory>motion</effectcategory>
																<effecttype>motion</effecttype>
																<mediatype>video</mediatype>
																<pproBypass>false</pproBypass>
																<parameter authoringApp="PremierePro">
																	<parameterid>scale</parameterid>
																	<name>Scale</name>
																	<valuemin>0</valuemin>
																	<valuemax>1000</valuemax>
																	<value>168.75</value>
																</parameter>
																<parameter authoringApp="PremierePro">
																	<parameterid>rotation</parameterid>
																	<name>Rotation</name>
																	<valuemin>-8640</valuemin>
																	<valuemax>8640</valuemax>
																	<value>0</value>
																</parameter>
																<parameter authoringApp="PremierePro">
																	<parameterid>center</parameterid>
																	<name>Center</name>
																	<value>
																		<horiz>0</horiz>
																		<vert>0</vert>
																	</value>
																</parameter>
																<parameter authoringApp="PremierePro">
																	<parameterid>centerOffset</parameterid>
																	<name>Anchor Point</name>
																	<value>
																		<horiz>0</horiz>
																		<vert>0</vert>
																	</value>
																</parameter>
																<parameter authoringApp="PremierePro">
																	<parameterid>antiflicker</parameterid>
																	<name>Anti-flicker Filter</name>
																	<valuemin>0.0</valuemin>
																	<valuemax>1.0</valuemax>
																	<value>0</value>
																</parameter>
															</effect>
														</filter>
														<logginginfo>
															<description></description>
															<scene></scene>
															<shottake></shottake>
															<lognote></lognote>
															<good></good>
															<originalvideofilename></originalvideofilename>
															<originalaudiofilename></originalaudiofilename>
														</logginginfo>
														<colorinfo>
															<lut></lut>
															<lut1></lut1>
															<asc_sop></asc_sop>
															<asc_sat></asc_sat>
															<lut2></lut2>
														</colorinfo>
														<labels>
															<label2>Iris</label2>
														</labels>
													</clipitem>
													<clipitem id="clipitem-585">
														<masterclipid>masterclip-170</masterclipid>
														<name>czferro_BbgtS2xlsIH - 2_IG.mp4</name>
														<enabled>TRUE</enabled>
														<duration>417</duration>
														<rate>
															<timebase>30</timebase>
															<ntsc>TRUE</ntsc>
														</rate>
														<start>999</start>
														<end>1302</end>
														<in>0</in>
														<out>303</out>
														<pproTicksIn>0</pproTicksIn>
														<pproTicksOut>2568127161600</pproTicksOut>
														<alphatype>none</alphatype>
														<file id="file-164"/>
														<filter>
															<effect>
																<name>Basic Motion</name>
																<effectid>basic</effectid>
																<effectcategory>motion</effectcategory>
																<effecttype>motion</effecttype>
																<mediatype>video</mediatype>
																<pproBypass>false</pproBypass>
																<parameter authoringApp="PremierePro">
																	<parameterid>scale</parameterid>
																	<name>Scale</name>
																	<valuemin>0</valuemin>
																	<valuemax>1000</valuemax>
																	<value>168.75</value>
																</parameter>
																<parameter authoringApp="PremierePro">
																	<parameterid>rotation</parameterid>
																	<name>Rotation</name>
																	<valuemin>-8640</valuemin>
																	<valuemax>8640</valuemax>
																	<value>0</value>
																</parameter>
																<parameter authoringApp="PremierePro">
																	<parameterid>center</parameterid>
																	<name>Center</name>
																	<value>
																		<horiz>0</horiz>
																		<vert>0</vert>
																	</value>
																</parameter>
																<parameter authoringApp="PremierePro">
																	<parameterid>centerOffset</parameterid>
																	<name>Anchor Point</name>
																	<value>
																		<horiz>0</horiz>
																		<vert>0</vert>
																	</value>
																</parameter>
																<parameter authoringApp="PremierePro">
																	<parameterid>antiflicker</parameterid>
																	<name>Anti-flicker Filter</name>
																	<valuemin>0.0</valuemin>
																	<valuemax>1.0</valuemax>
																	<value>0</value>
																</parameter>
															</effect>
														</filter>
														<logginginfo>
															<description></description>
															<scene></scene>
															<shottake></shottake>
															<lognote></lognote>
															<good></good>
															<originalvideofilename></originalvideofilename>
															<originalaudiofilename></originalaudiofilename>
														</logginginfo>
														<colorinfo>
															<lut></lut>
															<lut1></lut1>
															<asc_sop></asc_sop>
															<asc_sat></asc_sat>
															<lut2></lut2>
														</colorinfo>
														<labels>
															<label2>Iris</label2>
														</labels>
													</clipitem>
													<clipitem id="clipitem-586">
														<masterclipid>masterclip-171</masterclipid>
														<name>czferro_BXpLYTZFN4f_IG.mp4</name>
														<enabled>TRUE</enabled>
														<duration>859</duration>
														<rate>
															<timebase>30</timebase>
															<ntsc>TRUE</ntsc>
														</rate>
														<start>1492</start>
														<end>2351</end>
														<in>0</in>
														<out>859</out>
														<pproTicksIn>0</pproTicksIn>
														<pproTicksOut>7280598124800</pproTicksOut>
														<alphatype>none</alphatype>
														<file id="file-165"/>
														<filter>
															<effect>
																<name>Basic Motion</name>
																<effectid>basic</effectid>
																<effectcategory>motion</effectcategory>
																<effecttype>motion</effecttype>
																<mediatype>video</mediatype>
																<pproBypass>false</pproBypass>
																<parameter authoringApp="PremierePro">
																	<parameterid>scale</parameterid>
																	<name>Scale</name>
																	<valuemin>0</valuemin>
																	<valuemax>1000</valuemax>
																	<value>210</value>
																</parameter>
																<parameter authoringApp="PremierePro">
																	<parameterid>rotation</parameterid>
																	<name>Rotation</name>
																	<valuemin>-8640</valuemin>
																	<valuemax>8640</valuemax>
																	<value>0</value>
																</parameter>
																<parameter authoringApp="PremierePro">
																	<parameterid>center</parameterid>
																	<name>Center</name>
																	<value>
																		<horiz>0</horiz>
																		<vert>-0.265278</vert>
																	</value>
																</parameter>
																<parameter authoringApp="PremierePro">
																	<parameterid>centerOffset</parameterid>
																	<name>Anchor Point</name>
																	<value>
																		<horiz>0</horiz>
																		<vert>0</vert>
																	</value>
																</parameter>
																<parameter authoringApp="PremierePro">
																	<parameterid>antiflicker</parameterid>
																	<name>Anti-flicker Filter</name>
																	<valuemin>0.0</valuemin>
																	<valuemax>1.0</valuemax>
																	<value>0</value>
																</parameter>
															</effect>
														</filter>
														<filter>
															<effect>
																<name>Crop</name>
																<effectid>crop</effectid>
																<effectcategory>motion</effectcategory>
																<effecttype>motion</effecttype>
																<mediatype>video</mediatype>
																<pproBypass>false</pproBypass>
																<parameter authoringApp="PremierePro">
																	<parameterid>left</parameterid>
																	<name>left</name>
																	<valuemin>0</valuemin>
																	<valuemax>100</valuemax>
																	<value>1</value>
																</parameter>
																<parameter authoringApp="PremierePro">
																	<parameterid>right</parameterid>
																	<name>right</name>
																	<valuemin>0</valuemin>
																	<valuemax>100</valuemax>
																	<value>1</value>
																</parameter>
																<parameter authoringApp="PremierePro">
																	<parameterid>top</parameterid>
																	<name>top</name>
																	<valuemin>0</valuemin>
																	<valuemax>100</valuemax>
																	<value>0</value>
																</parameter>
																<parameter authoringApp="PremierePro">
																	<parameterid>bottom</parameterid>
																	<name>bottom</name>
																	<valuemin>0</valuemin>
																	<valuemax>100</valuemax>
																	<value>0</value>
																</parameter>
															</effect>
														</filter>
														<logginginfo>
															<description></description>
															<scene></scene>
															<shottake></shottake>
															<lognote></lognote>
															<good></good>
															<originalvideofilename></originalvideofilename>
															<originalaudiofilename></originalaudiofilename>
														</logginginfo>
														<colorinfo>
															<lut></lut>
															<lut1></lut1>
															<asc_sop></asc_sop>
															<asc_sat></asc_sat>
															<lut2></lut2>
														</colorinfo>
													</clipitem>
													<enabled>TRUE</enabled>
													<locked>FALSE</locked>
												</track>
												<track TL.SQTrackShy="0" TL.SQTrackExpandedHeight="25" TL.SQTrackExpanded="0" MZ.TrackTargeted="0">
													<clipitem id="clipitem-587">
														<masterclipid>masterclip-46</masterclipid>
														<name>czferro</name>
														<enabled>TRUE</enabled>
														<duration>5844</duration>
														<rate>
															<timebase>30</timebase>
															<ntsc>TRUE</ntsc>
														</rate>
														<start>0</start>
														<end>2351</end>
														<in>0</in>
														<out>2351</out>
														<pproTicksIn>0</pproTicksIn>
														<pproTicksOut>19926293587200</pproTicksOut>
														<alphatype>straight</alphatype>
														<file id="file-46"/>
														<filter>
															<effect>
																<name>Basic Motion</name>
																<effectid>basic</effectid>
																<effectcategory>motion</effectcategory>
																<effecttype>motion</effecttype>
																<mediatype>video</mediatype>
																<pproBypass>false</pproBypass>
																<parameter authoringApp="PremierePro">
																	<parameterid>scale</parameterid>
																	<name>Scale</name>
																	<valuemin>0</valuemin>
																	<valuemax>1000</valuemax>
																	<value>150</value>
																</parameter>
																<parameter authoringApp="PremierePro">
																	<parameterid>rotation</parameterid>
																	<name>Rotation</name>
																	<valuemin>-8640</valuemin>
																	<valuemax>8640</valuemax>
																	<value>0</value>
																</parameter>
																<parameter authoringApp="PremierePro">
																	<parameterid>center</parameterid>
																	<name>Center</name>
																	<value>
																		<horiz>0</horiz>
																		<vert>0</vert>
																	</value>
																</parameter>
																<parameter authoringApp="PremierePro">
																	<parameterid>centerOffset</parameterid>
																	<name>Anchor Point</name>
																	<value>
																		<horiz>0</horiz>
																		<vert>0</vert>
																	</value>
																</parameter>
																<parameter authoringApp="PremierePro">
																	<parameterid>antiflicker</parameterid>
																	<name>Anti-flicker Filter</name>
																	<valuemin>0.0</valuemin>
																	<valuemax>1.0</valuemax>
																	<value>0</value>
																</parameter>
															</effect>
														</filter>
														<logginginfo>
															<description></description>
															<scene></scene>
															<shottake></shottake>
															<lognote></lognote>
															<good></good>
															<originalvideofilename></originalvideofilename>
															<originalaudiofilename></originalaudiofilename>
														</logginginfo>
														<colorinfo>
															<lut></lut>
															<lut1></lut1>
															<asc_sop></asc_sop>
															<asc_sat></asc_sat>
															<lut2></lut2>
														</colorinfo>
														<labels>
															<label2>Rose</label2>
														</labels>
													</clipitem>
													<enabled>TRUE</enabled>
													<locked>FALSE</locked>
												</track>
												<track TL.SQTrackShy="0" TL.SQTrackExpandedHeight="25" TL.SQTrackExpanded="0" MZ.TrackTargeted="0">
													<clipitem id="clipitem-588">
														<masterclipid>masterclip-106</masterclipid>
														<name>Bug and Lower Nest</name>
														<enabled>TRUE</enabled>
														<duration>14721</duration>
														<rate>
															<timebase>30</timebase>
															<ntsc>TRUE</ntsc>
														</rate>
														<start>0</start>
														<end>2351</end>
														<in>0</in>
														<out>2351</out>
														<pproTicksIn>0</pproTicksIn>
														<pproTicksOut>19926293587200</pproTicksOut>
														<sequence id="sequence-1"/>
														<labels>
															<label2>Cerulean</label2>
														</labels>
													</clipitem>
													<enabled>TRUE</enabled>
													<locked>FALSE</locked>
												</track>
											</video>
											<audio>
												<numOutputChannels>2</numOutputChannels>
												<format>
													<samplecharacteristics>
														<depth>16</depth>
														<samplerate>44100</samplerate>
													</samplecharacteristics>
												</format>
												<outputs>
													<group>
														<index>1</index>
														<numchannels>1</numchannels>
														<downmix>0</downmix>
														<channel>
															<index>1</index>
														</channel>
													</group>
													<group>
														<index>2</index>
														<numchannels>1</numchannels>
														<downmix>0</downmix>
														<channel>
															<index>2</index>
														</channel>
													</group>
												</outputs>
												<track TL.SQTrackAudioKeyframeStyle="0" TL.SQTrackShy="0" TL.SQTrackExpandedHeight="25" TL.SQTrackExpanded="0" MZ.TrackTargeted="1" PannerCurrentValue="0.5" PannerIsInverted="true" PannerStartKeyframe="-91445760000000000,0.5,0,0,0,0,0,0" PannerName="Balance" currentExplodedTrackIndex="0" totalExplodedTrackCount="2" premiereTrackType="Stereo">
													<enabled>TRUE</enabled>
													<locked>FALSE</locked>
													<filter>
														<effect>
															<name>Audio Levels</name>
															<effectid>audiolevels</effectid>
															<effectcategory>audiolevels</effectcategory>
															<effecttype>audiolevels</effecttype>
															<mediatype>audio</mediatype>
															<parameter authoringApp="PremierePro">
																<parameterid>level</parameterid>
																<name>Level</name>
																<valuemin>0</valuemin>
																<valuemax>3.98109</valuemax>
																<value>0.706272</value>
															</parameter>
														</effect>
													</filter>
													<outputchannelindex>1</outputchannelindex>
												</track>
												<track TL.SQTrackAudioKeyframeStyle="0" TL.SQTrackShy="0" TL.SQTrackExpandedHeight="25" TL.SQTrackExpanded="0" MZ.TrackTargeted="1" PannerCurrentValue="0.5" PannerIsInverted="true" PannerStartKeyframe="-91445760000000000,0.5,0,0,0,0,0,0" PannerName="Balance" currentExplodedTrackIndex="1" totalExplodedTrackCount="2" premiereTrackType="Stereo">
													<enabled>TRUE</enabled>
													<locked>FALSE</locked>
													<filter>
														<effect>
															<name>Audio Levels</name>
															<effectid>audiolevels</effectid>
															<effectcategory>audiolevels</effectcategory>
															<effecttype>audiolevels</effecttype>
															<mediatype>audio</mediatype>
															<parameter authoringApp="PremierePro">
																<parameterid>level</parameterid>
																<name>Level</name>
																<valuemin>0</valuemin>
																<valuemax>3.98109</valuemax>
																<value>0.706272</value>
															</parameter>
														</effect>
													</filter>
													<outputchannelindex>2</outputchannelindex>
												</track>
												<track TL.SQTrackAudioKeyframeStyle="0" TL.SQTrackShy="0" TL.SQTrackExpandedHeight="25" TL.SQTrackExpanded="0" MZ.TrackTargeted="0" PannerCurrentValue="0.5" PannerIsInverted="true" PannerStartKeyframe="-91445760000000000,0.5,0,0,0,0,0,0" PannerName="Balance" currentExplodedTrackIndex="0" totalExplodedTrackCount="2" premiereTrackType="Stereo">
													<enabled>TRUE</enabled>
													<locked>FALSE</locked>
													<outputchannelindex>1</outputchannelindex>
												</track>
												<track TL.SQTrackAudioKeyframeStyle="0" TL.SQTrackShy="0" TL.SQTrackExpandedHeight="25" TL.SQTrackExpanded="0" MZ.TrackTargeted="0" PannerCurrentValue="0.5" PannerIsInverted="true" PannerStartKeyframe="-91445760000000000,0.5,0,0,0,0,0,0" PannerName="Balance" currentExplodedTrackIndex="1" totalExplodedTrackCount="2" premiereTrackType="Stereo">
													<enabled>TRUE</enabled>
													<locked>FALSE</locked>
													<outputchannelindex>2</outputchannelindex>
												</track>
											</audio>
										</media>
										<timecode>
											<rate>
												<timebase>30</timebase>
												<ntsc>TRUE</ntsc>
											</rate>
											<string>00:00:00:00</string>
											<frame>0</frame>
											<displayformat>NDF</displayformat>
										</timecode>
										<labels>
											<label2>Forest</label2>
										</labels>
										<logginginfo>
											<description></description>
											<scene></scene>
											<shottake></shottake>
											<lognote></lognote>
											<good></good>
											<originalvideofilename></originalvideofilename>
											<originalaudiofilename></originalaudiofilename>
										</logginginfo>
									</sequence>
									<sequence id="sequence-63" TL.SQAudioVisibleBase="0" TL.SQVideoVisibleBase="0" TL.SQVisibleBaseTime="0" TL.SQAVDividerPosition="0.5" TL.SQHideShyTracks="0" TL.SQHeaderWidth="236" Monitor.ProgramZoomOut="25350720595200" Monitor.ProgramZoomIn="0" TL.SQTimePerPixel="0.13818516812528672" AM.TrackVScrollPosition="0" AM.TrackScrollPosition="0" MZ.EditLine="4746373632000" MZ.Sequence.PreviewFrameSizeHeight="1080" MZ.Sequence.PreviewFrameSizeWidth="1920" MZ.Sequence.AudioTimeDisplayFormat="200" MZ.Sequence.PreviewRenderingClassID="1297106761" MZ.Sequence.PreviewRenderingPresetCodec="1297107278" MZ.Sequence.PreviewRenderingPresetPath="EncoderPresets/SequencePreview/795454d9-d3c2-429d-9474-923ab13b7018/I-Frame Only MPEG.epr" MZ.Sequence.PreviewUseMaxRenderQuality="false" MZ.Sequence.PreviewUseMaxBitDepth="false" MZ.Sequence.EditingModeGUID="795454d9-d3c2-429d-9474-923ab13b7018" MZ.Sequence.VideoTimeDisplayFormat="103" MZ.WorkOutPoint="25350720595200" MZ.WorkInPoint="0" explodedTracks="true">
										<uuid>76215965-ac1b-4a5f-b1ca-bab884a87081</uuid>
										<duration>1414</duration>
										<rate>
											<timebase>30</timebase>
											<ntsc>TRUE</ntsc>
										</rate>
										<name>DIY_ modfoxwatercolors_1.5</name>
										<media>
											<video>
												<format>
													<samplecharacteristics>
														<rate>
															<timebase>30</timebase>
															<ntsc>TRUE</ntsc>
														</rate>
														<codec>
															<name>Apple ProRes 422</name>
															<appspecificdata>
																<appname>Final Cut Pro</appname>
																<appmanufacturer>Apple Inc.</appmanufacturer>
																<appversion>7.0</appversion>
																<data>
																	<qtcodec>
																		<codecname>Apple ProRes 422</codecname>
																		<codectypename>Apple ProRes 422</codectypename>
																		<codectypecode>apcn</codectypecode>
																		<codecvendorcode>appl</codecvendorcode>
																		<spatialquality>1024</spatialquality>
																		<temporalquality>0</temporalquality>
																		<keyframerate>0</keyframerate>
																		<datarate>0</datarate>
																	</qtcodec>
																</data>
															</appspecificdata>
														</codec>
														<width>1920</width>
														<height>1080</height>
														<anamorphic>FALSE</anamorphic>
														<pixelaspectratio>square</pixelaspectratio>
														<fielddominance>none</fielddominance>
														<colordepth>24</colordepth>
													</samplecharacteristics>
												</format>
												<track TL.SQTrackShy="0" TL.SQTrackExpandedHeight="25" TL.SQTrackExpanded="0" MZ.TrackTargeted="1">
													<clipitem id="clipitem-589">
														<masterclipid>masterclip-172</masterclipid>
														<name>(modfoxwatercolors)_ChLnG02DBx3_IG.mp4</name>
														<enabled>TRUE</enabled>
														<duration>1525</duration>
														<rate>
															<timebase>30</timebase>
															<ntsc>TRUE</ntsc>
														</rate>
														<start>0</start>
														<end>1414</end>
														<in>0</in>
														<out>1414</out>
														<pproTicksIn>0</pproTicksIn>
														<pproTicksOut>11984593420800</pproTicksOut>
														<alphatype>none</alphatype>
														<pixelaspectratio>square</pixelaspectratio>
														<anamorphic>FALSE</anamorphic>
														<file id="file-166">
															<name>(modfoxwatercolors)_ChLnG02DBx3_IG.mp4</name>
															<pathurl>file://localhost/Volumes/Satisfactum%20Satisfactorum/00_Hub%20World/3_Raw%20Files/Clip%20Providers/modfoxwatercolors/(modfoxwatercolors)_ChLnG02DBx3_IG.mp4</pathurl>
															<rate>
																<timebase>30</timebase>
																<ntsc>FALSE</ntsc>
															</rate>
															<duration>1527</duration>
															<timecode>
																<rate>
																	<timebase>30</timebase>
																	<ntsc>FALSE</ntsc>
																</rate>
																<string>00:00:00:00</string>
																<frame>0</frame>
																<displayformat>NDF</displayformat>
															</timecode>
															<media>
																<video>
																	<samplecharacteristics>
																		<rate>
																			<timebase>30</timebase>
																			<ntsc>FALSE</ntsc>
																		</rate>
																		<width>720</width>
																		<height>1280</height>
																		<anamorphic>FALSE</anamorphic>
																		<pixelaspectratio>square</pixelaspectratio>
																		<fielddominance>none</fielddominance>
																	</samplecharacteristics>
																</video>
																<audio>
																	<samplecharacteristics>
																		<depth>16</depth>
																		<samplerate>44100</samplerate>
																	</samplecharacteristics>
																	<channelcount>2</channelcount>
																</audio>
															</media>
														</file>
														<filter>
															<effect>
																<name>Basic Motion</name>
																<effectid>basic</effectid>
																<effectcategory>motion</effectcategory>
																<effecttype>motion</effecttype>
																<mediatype>video</mediatype>
																<pproBypass>false</pproBypass>
																<parameter authoringApp="PremierePro">
																	<parameterid>scale</parameterid>
																	<name>Scale</name>
																	<valuemin>0</valuemin>
																	<valuemax>1000</valuemax>
																	<value>297.375</value>
																</parameter>
																<parameter authoringApp="PremierePro">
																	<parameterid>rotation</parameterid>
																	<name>Rotation</name>
																	<valuemin>-8640</valuemin>
																	<valuemax>8640</valuemax>
																	<value>0</value>
																</parameter>
																<parameter authoringApp="PremierePro">
																	<parameterid>center</parameterid>
																	<name>Center</name>
																	<value>
																		<horiz>0</horiz>
																		<vert>0.208594</vert>
																	</value>
																</parameter>
																<parameter authoringApp="PremierePro">
																	<parameterid>centerOffset</parameterid>
																	<name>Anchor Point</name>
																	<value>
																		<horiz>0</horiz>
																		<vert>0</vert>
																	</value>
																</parameter>
																<parameter authoringApp="PremierePro">
																	<parameterid>antiflicker</parameterid>
																	<name>Anti-flicker Filter</name>
																	<valuemin>0.0</valuemin>
																	<valuemax>1.0</valuemax>
																	<value>0</value>
																</parameter>
															</effect>
														</filter>
														<filter>
															<effect>
																<name>Gaussian Blur</name>
																<effectid>Gaussian Blur</effectid>
																<effectcategory>Blur</effectcategory>
																<effecttype>motion</effecttype>
																<mediatype>video</mediatype>
																<pproBypass>false</pproBypass>
																<parameter authoringApp="PremierePro">
																	<parameterid>radius</parameterid>
																	<name>Radius</name>
																	<valuemin>0</valuemin>
																	<valuemax>100</valuemax>
																	<value>150</value>
																</parameter>
															</effect>
														</filter>
														<logginginfo>
															<description></description>
															<scene></scene>
															<shottake></shottake>
															<lognote></lognote>
															<good></good>
															<originalvideofilename></originalvideofilename>
															<originalaudiofilename></originalaudiofilename>
														</logginginfo>
														<colorinfo>
															<lut></lut>
															<lut1></lut1>
															<asc_sop></asc_sop>
															<asc_sat></asc_sat>
															<lut2></lut2>
														</colorinfo>
														<labels>
															<label2>Iris</label2>
														</labels>
													</clipitem>
													<enabled>TRUE</enabled>
													<locked>FALSE</locked>
												</track>
												<track TL.SQTrackShy="0" TL.SQTrackExpandedHeight="25" TL.SQTrackExpanded="0" MZ.TrackTargeted="0">
													<clipitem id="clipitem-590">
														<masterclipid>masterclip-172</masterclipid>
														<name>(modfoxwatercolors)_ChLnG02DBx3_IG.mp4</name>
														<enabled>TRUE</enabled>
														<duration>1525</duration>
														<rate>
															<timebase>30</timebase>
															<ntsc>TRUE</ntsc>
														</rate>
														<start>0</start>
														<end>1414</end>
														<in>0</in>
														<out>1414</out>
														<pproTicksIn>0</pproTicksIn>
														<pproTicksOut>11984593420800</pproTicksOut>
														<alphatype>none</alphatype>
														<file id="file-166"/>
														<filter>
															<effect>
																<name>Basic Motion</name>
																<effectid>basic</effectid>
																<effectcategory>motion</effectcategory>
																<effecttype>motion</effecttype>
																<mediatype>video</mediatype>
																<pproBypass>false</pproBypass>
																<parameter authoringApp="PremierePro">
																	<parameterid>scale</parameterid>
																	<name>Scale</name>
																	<valuemin>0</valuemin>
																	<valuemax>1000</valuemax>
																	<value>151.375</value>
																</parameter>
																<parameter authoringApp="PremierePro">
																	<parameterid>rotation</parameterid>
																	<name>Rotation</name>
																	<valuemin>-8640</valuemin>
																	<valuemax>8640</valuemax>
																	<value>0</value>
																</parameter>
																<parameter authoringApp="PremierePro">
																	<parameterid>center</parameterid>
																	<name>Center</name>
																	<value>
																		<horiz>0</horiz>
																		<vert>0.208594</vert>
																	</value>
																</parameter>
																<parameter authoringApp="PremierePro">
																	<parameterid>centerOffset</parameterid>
																	<name>Anchor Point</name>
																	<value>
																		<horiz>0</horiz>
																		<vert>0</vert>
																	</value>
																</parameter>
																<parameter authoringApp="PremierePro">
																	<parameterid>antiflicker</parameterid>
																	<name>Anti-flicker Filter</name>
																	<valuemin>0.0</valuemin>
																	<valuemax>1.0</valuemax>
																	<value>0</value>
																</parameter>
															</effect>
														</filter>
														<logginginfo>
															<description></description>
															<scene></scene>
															<shottake></shottake>
															<lognote></lognote>
															<good></good>
															<originalvideofilename></originalvideofilename>
															<originalaudiofilename></originalaudiofilename>
														</logginginfo>
														<colorinfo>
															<lut></lut>
															<lut1></lut1>
															<asc_sop></asc_sop>
															<asc_sat></asc_sat>
															<lut2></lut2>
														</colorinfo>
														<labels>
															<label2>Iris</label2>
														</labels>
													</clipitem>
													<clipitem id="clipitem-591">
														<masterclipid>masterclip-173</masterclipid>
														<name>(modfoxwatercolors)_Cgpi5E6JOaM_IG.mp4</name>
														<enabled>TRUE</enabled>
														<duration>1812</duration>
														<rate>
															<timebase>30</timebase>
															<ntsc>TRUE</ntsc>
														</rate>
														<start>1414</start>
														<end>1576</end>
														<in>0</in>
														<out>162</out>
														<pproTicksIn>0</pproTicksIn>
														<pproTicksOut>1373058086400</pproTicksOut>
														<alphatype>none</alphatype>
														<pixelaspectratio>square</pixelaspectratio>
														<anamorphic>FALSE</anamorphic>
														<file id="file-167">
															<name>(modfoxwatercolors)_Cgpi5E6JOaM_IG.mp4</name>
															<pathurl>file://localhost/Volumes/Satisfactum%20Satisfactorum/00_Hub%20World/3_Raw%20Files/Clip%20Providers/modfoxwatercolors/(modfoxwatercolors)_Cgpi5E6JOaM_IG.mp4</pathurl>
															<rate>
																<timebase>30</timebase>
																<ntsc>FALSE</ntsc>
															</rate>
															<duration>1814</duration>
															<timecode>
																<rate>
																	<timebase>30</timebase>
																	<ntsc>FALSE</ntsc>
																</rate>
																<string>00:00:00:00</string>
																<frame>0</frame>
																<displayformat>NDF</displayformat>
															</timecode>
															<media>
																<video>
																	<samplecharacteristics>
																		<rate>
																			<timebase>30</timebase>
																			<ntsc>FALSE</ntsc>
																		</rate>
																		<width>720</width>
																		<height>1280</height>
																		<anamorphic>FALSE</anamorphic>
																		<pixelaspectratio>square</pixelaspectratio>
																		<fielddominance>none</fielddominance>
																	</samplecharacteristics>
																</video>
																<audio>
																	<samplecharacteristics>
																		<depth>16</depth>
																		<samplerate>44100</samplerate>
																	</samplecharacteristics>
																	<channelcount>2</channelcount>
																</audio>
															</media>
														</file>
														<filter>
															<effect>
																<name>Basic Motion</name>
																<effectid>basic</effectid>
																<effectcategory>motion</effectcategory>
																<effecttype>motion</effecttype>
																<mediatype>video</mediatype>
																<pproBypass>false</pproBypass>
																<parameter authoringApp="PremierePro">
																	<parameterid>scale</parameterid>
																	<name>Scale</name>
																	<valuemin>0</valuemin>
																	<valuemax>1000</valuemax>
																	<value>297.375</value>
																</parameter>
																<parameter authoringApp="PremierePro">
																	<parameterid>rotation</parameterid>
																	<name>Rotation</name>
																	<valuemin>-8640</valuemin>
																	<valuemax>8640</valuemax>
																	<value>0</value>
																</parameter>
																<parameter authoringApp="PremierePro">
																	<parameterid>center</parameterid>
																	<name>Center</name>
																	<value>
																		<horiz>0</horiz>
																		<vert>0.208594</vert>
																	</value>
																</parameter>
																<parameter authoringApp="PremierePro">
																	<parameterid>centerOffset</parameterid>
																	<name>Anchor Point</name>
																	<value>
																		<horiz>0</horiz>
																		<vert>0</vert>
																	</value>
																</parameter>
																<parameter authoringApp="PremierePro">
																	<parameterid>antiflicker</parameterid>
																	<name>Anti-flicker Filter</name>
																	<valuemin>0.0</valuemin>
																	<valuemax>1.0</valuemax>
																	<value>0</value>
																</parameter>
															</effect>
														</filter>
														<filter>
															<effect>
																<name>Gaussian Blur</name>
																<effectid>Gaussian Blur</effectid>
																<effectcategory>Blur</effectcategory>
																<effecttype>motion</effecttype>
																<mediatype>video</mediatype>
																<pproBypass>false</pproBypass>
																<parameter authoringApp="PremierePro">
																	<parameterid>radius</parameterid>
																	<name>Radius</name>
																	<valuemin>0</valuemin>
																	<valuemax>100</valuemax>
																	<value>150</value>
																</parameter>
															</effect>
														</filter>
														<logginginfo>
															<description></description>
															<scene></scene>
															<shottake></shottake>
															<lognote></lognote>
															<good></good>
															<originalvideofilename></originalvideofilename>
															<originalaudiofilename></originalaudiofilename>
														</logginginfo>
														<colorinfo>
															<lut></lut>
															<lut1></lut1>
															<asc_sop></asc_sop>
															<asc_sat></asc_sat>
															<lut2></lut2>
														</colorinfo>
														<labels>
															<label2>Iris</label2>
														</labels>
													</clipitem>
													<clipitem id="clipitem-592">
														<masterclipid>masterclip-173</masterclipid>
														<name>(modfoxwatercolors)_Cgpi5E6JOaM_IG.mp4</name>
														<enabled>TRUE</enabled>
														<duration>1812</duration>
														<rate>
															<timebase>30</timebase>
															<ntsc>TRUE</ntsc>
														</rate>
														<start>1576</start>
														<end>1805</end>
														<in>162</in>
														<out>391</out>
														<pproTicksIn>1373058086400</pproTicksIn>
														<pproTicksOut>3313985875200</pproTicksOut>
														<alphatype>none</alphatype>
														<file id="file-167"/>
														<filter>
															<effect>
																<name>Basic Motion</name>
																<effectid>basic</effectid>
																<effectcategory>motion</effectcategory>
																<effecttype>motion</effecttype>
																<mediatype>video</mediatype>
																<pproBypass>false</pproBypass>
																<parameter authoringApp="PremierePro">
																	<parameterid>scale</parameterid>
																	<name>Scale</name>
																	<valuemin>0</valuemin>
																	<valuemax>1000</valuemax>
																	<value>297.375</value>
																</parameter>
																<parameter authoringApp="PremierePro">
																	<parameterid>rotation</parameterid>
																	<name>Rotation</name>
																	<valuemin>-8640</valuemin>
																	<valuemax>8640</valuemax>
																	<value>0</value>
																</parameter>
																<parameter authoringApp="PremierePro">
																	<parameterid>center</parameterid>
																	<name>Center</name>
																	<value>
																		<horiz>0</horiz>
																		<vert>0.208594</vert>
																	</value>
																</parameter>
																<parameter authoringApp="PremierePro">
																	<parameterid>centerOffset</parameterid>
																	<name>Anchor Point</name>
																	<value>
																		<horiz>0</horiz>
																		<vert>0</vert>
																	</value>
																</parameter>
																<parameter authoringApp="PremierePro">
																	<parameterid>antiflicker</parameterid>
																	<name>Anti-flicker Filter</name>
																	<valuemin>0.0</valuemin>
																	<valuemax>1.0</valuemax>
																	<value>0</value>
																</parameter>
															</effect>
														</filter>
														<filter>
															<effect>
																<name>Gaussian Blur</name>
																<effectid>Gaussian Blur</effectid>
																<effectcategory>Blur</effectcategory>
																<effecttype>motion</effecttype>
																<mediatype>video</mediatype>
																<pproBypass>false</pproBypass>
																<parameter authoringApp="PremierePro">
																	<parameterid>radius</parameterid>
																	<name>Radius</name>
																	<valuemin>0</valuemin>
																	<valuemax>100</valuemax>
																	<value>150</value>
																</parameter>
															</effect>
														</filter>
														<logginginfo>
															<description></description>
															<scene></scene>
															<shottake></shottake>
															<lognote></lognote>
															<good></good>
															<originalvideofilename></originalvideofilename>
															<originalaudiofilename></originalaudiofilename>
														</logginginfo>
														<colorinfo>
															<lut></lut>
															<lut1></lut1>
															<asc_sop></asc_sop>
															<asc_sat></asc_sat>
															<lut2></lut2>
														</colorinfo>
														<labels>
															<label2>Iris</label2>
														</labels>
													</clipitem>
													<clipitem id="clipitem-593">
														<masterclipid>masterclip-173</masterclipid>
														<name>(modfoxwatercolors)_Cgpi5E6JOaM_IG.mp4</name>
														<enabled>TRUE</enabled>
														<duration>1812</duration>
														<rate>
															<timebase>30</timebase>
															<ntsc>TRUE</ntsc>
														</rate>
														<start>1805</start>
														<end>2042</end>
														<in>457</in>
														<out>694</out>
														<pproTicksIn>3873379910400</pproTicksIn>
														<pproTicksOut>5882113036800</pproTicksOut>
														<alphatype>none</alphatype>
														<file id="file-167"/>
														<filter>
															<effect>
																<name>Basic Motion</name>
																<effectid>basic</effectid>
																<effectcategory>motion</effectcategory>
																<effecttype>motion</effecttype>
																<mediatype>video</mediatype>
																<pproBypass>false</pproBypass>
																<parameter authoringApp="PremierePro">
																	<parameterid>scale</parameterid>
																	<name>Scale</name>
																	<valuemin>0</valuemin>
																	<valuemax>1000</valuemax>
																	<value>297.375</value>
																</parameter>
																<parameter authoringApp="PremierePro">
																	<parameterid>rotation</parameterid>
																	<name>Rotation</name>
																	<valuemin>-8640</valuemin>
																	<valuemax>8640</valuemax>
																	<value>0</value>
																</parameter>
																<parameter authoringApp="PremierePro">
																	<parameterid>center</parameterid>
																	<name>Center</name>
																	<value>
																		<horiz>0</horiz>
																		<vert>0.208594</vert>
																	</value>
																</parameter>
																<parameter authoringApp="PremierePro">
																	<parameterid>centerOffset</parameterid>
																	<name>Anchor Point</name>
																	<value>
																		<horiz>0</horiz>
																		<vert>0</vert>
																	</value>
																</parameter>
																<parameter authoringApp="PremierePro">
																	<parameterid>antiflicker</parameterid>
																	<name>Anti-flicker Filter</name>
																	<valuemin>0.0</valuemin>
																	<valuemax>1.0</valuemax>
																	<value>0</value>
																</parameter>
															</effect>
														</filter>
														<filter>
															<effect>
																<name>Gaussian Blur</name>
																<effectid>Gaussian Blur</effectid>
																<effectcategory>Blur</effectcategory>
																<effecttype>motion</effecttype>
																<mediatype>video</mediatype>
																<pproBypass>false</pproBypass>
																<parameter authoringApp="PremierePro">
																	<parameterid>radius</parameterid>
																	<name>Radius</name>
																	<valuemin>0</valuemin>
																	<valuemax>100</valuemax>
																	<value>150</value>
																</parameter>
															</effect>
														</filter>
														<logginginfo>
															<description></description>
															<scene></scene>
															<shottake></shottake>
															<lognote></lognote>
															<good></good>
															<originalvideofilename></originalvideofilename>
															<originalaudiofilename></originalaudiofilename>
														</logginginfo>
														<colorinfo>
															<lut></lut>
															<lut1></lut1>
															<asc_sop></asc_sop>
															<asc_sat></asc_sat>
															<lut2></lut2>
														</colorinfo>
														<labels>
															<label2>Iris</label2>
														</labels>
													</clipitem>
													<clipitem id="clipitem-594">
														<masterclipid>masterclip-173</masterclipid>
														<name>(modfoxwatercolors)_Cgpi5E6JOaM_IG.mp4</name>
														<enabled>TRUE</enabled>
														<duration>1812</duration>
														<rate>
															<timebase>30</timebase>
															<ntsc>TRUE</ntsc>
														</rate>
														<start>2042</start>
														<end>2265</end>
														<in>734</in>
														<out>957</out>
														<pproTicksIn>6221139724800</pproTicksIn>
														<pproTicksOut>8111213510400</pproTicksOut>
														<alphatype>none</alphatype>
														<file id="file-167"/>
														<filter>
															<effect>
																<name>Basic Motion</name>
																<effectid>basic</effectid>
																<effectcategory>motion</effectcategory>
																<effecttype>motion</effecttype>
																<mediatype>video</mediatype>
																<pproBypass>false</pproBypass>
																<parameter authoringApp="PremierePro">
																	<parameterid>scale</parameterid>
																	<name>Scale</name>
																	<valuemin>0</valuemin>
																	<valuemax>1000</valuemax>
																	<value>297.375</value>
																</parameter>
																<parameter authoringApp="PremierePro">
																	<parameterid>rotation</parameterid>
																	<name>Rotation</name>
																	<valuemin>-8640</valuemin>
																	<valuemax>8640</valuemax>
																	<value>0</value>
																</parameter>
																<parameter authoringApp="PremierePro">
																	<parameterid>center</parameterid>
																	<name>Center</name>
																	<value>
																		<horiz>0</horiz>
																		<vert>0.208594</vert>
																	</value>
																</parameter>
																<parameter authoringApp="PremierePro">
																	<parameterid>centerOffset</parameterid>
																	<name>Anchor Point</name>
																	<value>
																		<horiz>0</horiz>
																		<vert>0</vert>
																	</value>
																</parameter>
																<parameter authoringApp="PremierePro">
																	<parameterid>antiflicker</parameterid>
																	<name>Anti-flicker Filter</name>
																	<valuemin>0.0</valuemin>
																	<valuemax>1.0</valuemax>
																	<value>0</value>
																</parameter>
															</effect>
														</filter>
														<filter>
															<effect>
																<name>Gaussian Blur</name>
																<effectid>Gaussian Blur</effectid>
																<effectcategory>Blur</effectcategory>
																<effecttype>motion</effecttype>
																<mediatype>video</mediatype>
																<pproBypass>false</pproBypass>
																<parameter authoringApp="PremierePro">
																	<parameterid>radius</parameterid>
																	<name>Radius</name>
																	<valuemin>0</valuemin>
																	<valuemax>100</valuemax>
																	<value>150</value>
																</parameter>
															</effect>
														</filter>
														<logginginfo>
															<description></description>
															<scene></scene>
															<shottake></shottake>
															<lognote></lognote>
															<good></good>
															<originalvideofilename></originalvideofilename>
															<originalaudiofilename></originalaudiofilename>
														</logginginfo>
														<colorinfo>
															<lut></lut>
															<lut1></lut1>
															<asc_sop></asc_sop>
															<asc_sat></asc_sat>
															<lut2></lut2>
														</colorinfo>
														<labels>
															<label2>Iris</label2>
														</labels>
													</clipitem>
													<clipitem id="clipitem-595">
														<masterclipid>masterclip-173</masterclipid>
														<name>(modfoxwatercolors)_Cgpi5E6JOaM_IG.mp4</name>
														<enabled>TRUE</enabled>
														<duration>1812</duration>
														<rate>
															<timebase>30</timebase>
															<ntsc>TRUE</ntsc>
														</rate>
														<start>2265</start>
														<end>2323</end>
														<in>957</in>
														<out>1015</out>
														<pproTicksIn>8111213510400</pproTicksIn>
														<pproTicksOut>8602802208000</pproTicksOut>
														<alphatype>none</alphatype>
														<file id="file-167"/>
														<filter>
															<effect>
																<name>Basic Motion</name>
																<effectid>basic</effectid>
																<effectcategory>motion</effectcategory>
																<effecttype>motion</effecttype>
																<mediatype>video</mediatype>
																<pproBypass>false</pproBypass>
																<parameter authoringApp="PremierePro">
																	<parameterid>scale</parameterid>
																	<name>Scale</name>
																	<valuemin>0</valuemin>
																	<valuemax>1000</valuemax>
																	<value>297.375</value>
																</parameter>
																<parameter authoringApp="PremierePro">
																	<parameterid>rotation</parameterid>
																	<name>Rotation</name>
																	<valuemin>-8640</valuemin>
																	<valuemax>8640</valuemax>
																	<value>0</value>
																</parameter>
																<parameter authoringApp="PremierePro">
																	<parameterid>center</parameterid>
																	<name>Center</name>
																	<value>
																		<horiz>0</horiz>
																		<vert>0.208594</vert>
																	</value>
																</parameter>
																<parameter authoringApp="PremierePro">
																	<parameterid>centerOffset</parameterid>
																	<name>Anchor Point</name>
																	<value>
																		<horiz>0</horiz>
																		<vert>0</vert>
																	</value>
																</parameter>
																<parameter authoringApp="PremierePro">
																	<parameterid>antiflicker</parameterid>
																	<name>Anti-flicker Filter</name>
																	<valuemin>0.0</valuemin>
																	<valuemax>1.0</valuemax>
																	<value>0</value>
																</parameter>
															</effect>
														</filter>
														<filter>
															<effect>
																<name>Gaussian Blur</name>
																<effectid>Gaussian Blur</effectid>
																<effectcategory>Blur</effectcategory>
																<effecttype>motion</effecttype>
																<mediatype>video</mediatype>
																<pproBypass>false</pproBypass>
																<parameter authoringApp="PremierePro">
																	<parameterid>radius</parameterid>
																	<name>Radius</name>
																	<valuemin>0</valuemin>
																	<valuemax>100</valuemax>
																	<value>150</value>
																</parameter>
															</effect>
														</filter>
														<logginginfo>
															<description></description>
															<scene></scene>
															<shottake></shottake>
															<lognote></lognote>
															<good></good>
															<originalvideofilename></originalvideofilename>
															<originalaudiofilename></originalaudiofilename>
														</logginginfo>
														<colorinfo>
															<lut></lut>
															<lut1></lut1>
															<asc_sop></asc_sop>
															<asc_sat></asc_sat>
															<lut2></lut2>
														</colorinfo>
														<labels>
															<label2>Iris</label2>
														</labels>
													</clipitem>
													<clipitem id="clipitem-596">
														<masterclipid>masterclip-173</masterclipid>
														<name>(modfoxwatercolors)_Cgpi5E6JOaM_IG.mp4</name>
														<enabled>TRUE</enabled>
														<duration>1812</duration>
														<rate>
															<timebase>30</timebase>
															<ntsc>TRUE</ntsc>
														</rate>
														<start>2323</start>
														<end>2532</end>
														<in>1051</in>
														<out>1260</out>
														<pproTicksIn>8907926227200</pproTicksIn>
														<pproTicksOut>10679340672000</pproTicksOut>
														<alphatype>none</alphatype>
														<file id="file-167"/>
														<filter>
															<effect>
																<name>Basic Motion</name>
																<effectid>basic</effectid>
																<effectcategory>motion</effectcategory>
																<effecttype>motion</effecttype>
																<mediatype>video</mediatype>
																<pproBypass>false</pproBypass>
																<parameter authoringApp="PremierePro">
																	<parameterid>scale</parameterid>
																	<name>Scale</name>
																	<valuemin>0</valuemin>
																	<valuemax>1000</valuemax>
																	<value>297.375</value>
																</parameter>
																<parameter authoringApp="PremierePro">
																	<parameterid>rotation</parameterid>
																	<name>Rotation</name>
																	<valuemin>-8640</valuemin>
																	<valuemax>8640</valuemax>
																	<value>0</value>
																</parameter>
																<parameter authoringApp="PremierePro">
																	<parameterid>center</parameterid>
																	<name>Center</name>
																	<value>
																		<horiz>0</horiz>
																		<vert>0.208594</vert>
																	</value>
																</parameter>
																<parameter authoringApp="PremierePro">
																	<parameterid>centerOffset</parameterid>
																	<name>Anchor Point</name>
																	<value>
																		<horiz>0</horiz>
																		<vert>0</vert>
																	</value>
																</parameter>
																<parameter authoringApp="PremierePro">
																	<parameterid>antiflicker</parameterid>
																	<name>Anti-flicker Filter</name>
																	<valuemin>0.0</valuemin>
																	<valuemax>1.0</valuemax>
																	<value>0</value>
																</parameter>
															</effect>
														</filter>
														<filter>
															<effect>
																<name>Gaussian Blur</name>
																<effectid>Gaussian Blur</effectid>
																<effectcategory>Blur</effectcategory>
																<effecttype>motion</effecttype>
																<mediatype>video</mediatype>
																<pproBypass>false</pproBypass>
																<parameter authoringApp="PremierePro">
																	<parameterid>radius</parameterid>
																	<name>Radius</name>
																	<valuemin>0</valuemin>
																	<valuemax>100</valuemax>
																	<value>150</value>
																</parameter>
															</effect>
														</filter>
														<logginginfo>
															<description></description>
															<scene></scene>
															<shottake></shottake>
															<lognote></lognote>
															<good></good>
															<originalvideofilename></originalvideofilename>
															<originalaudiofilename></originalaudiofilename>
														</logginginfo>
														<colorinfo>
															<lut></lut>
															<lut1></lut1>
															<asc_sop></asc_sop>
															<asc_sat></asc_sat>
															<lut2></lut2>
														</colorinfo>
														<labels>
															<label2>Iris</label2>
														</labels>
													</clipitem>
													<clipitem id="clipitem-597">
														<masterclipid>masterclip-173</masterclipid>
														<name>(modfoxwatercolors)_Cgpi5E6JOaM_IG.mp4</name>
														<enabled>TRUE</enabled>
														<duration>1812</duration>
														<rate>
															<timebase>30</timebase>
															<ntsc>TRUE</ntsc>
														</rate>
														<start>2532</start>
														<end>2630</end>
														<in>1260</in>
														<out>1358</out>
														<pproTicksIn>10679340672000</pproTicksIn>
														<pproTicksOut>11509956057600</pproTicksOut>
														<alphatype>none</alphatype>
														<file id="file-167"/>
														<filter>
															<effect>
																<name>Basic Motion</name>
																<effectid>basic</effectid>
																<effectcategory>motion</effectcategory>
																<effecttype>motion</effecttype>
																<mediatype>video</mediatype>
																<pproBypass>false</pproBypass>
																<parameter authoringApp="PremierePro">
																	<parameterid>scale</parameterid>
																	<name>Scale</name>
																	<valuemin>0</valuemin>
																	<valuemax>1000</valuemax>
																	<value>297.375</value>
																</parameter>
																<parameter authoringApp="PremierePro">
																	<parameterid>rotation</parameterid>
																	<name>Rotation</name>
																	<valuemin>-8640</valuemin>
																	<valuemax>8640</valuemax>
																	<value>0</value>
																</parameter>
																<parameter authoringApp="PremierePro">
																	<parameterid>center</parameterid>
																	<name>Center</name>
																	<value>
																		<horiz>0</horiz>
																		<vert>0.208594</vert>
																	</value>
																</parameter>
																<parameter authoringApp="PremierePro">
																	<parameterid>centerOffset</parameterid>
																	<name>Anchor Point</name>
																	<value>
																		<horiz>0</horiz>
																		<vert>0</vert>
																	</value>
																</parameter>
																<parameter authoringApp="PremierePro">
																	<parameterid>antiflicker</parameterid>
																	<name>Anti-flicker Filter</name>
																	<valuemin>0.0</valuemin>
																	<valuemax>1.0</valuemax>
																	<value>0</value>
																</parameter>
															</effect>
														</filter>
														<filter>
															<effect>
																<name>Gaussian Blur</name>
																<effectid>Gaussian Blur</effectid>
																<effectcategory>Blur</effectcategory>
																<effecttype>motion</effecttype>
																<mediatype>video</mediatype>
																<pproBypass>false</pproBypass>
																<parameter authoringApp="PremierePro">
																	<parameterid>radius</parameterid>
																	<name>Radius</name>
																	<valuemin>0</valuemin>
																	<valuemax>100</valuemax>
																	<value>150</value>
																</parameter>
															</effect>
														</filter>
														<logginginfo>
															<description></description>
															<scene></scene>
															<shottake></shottake>
															<lognote></lognote>
															<good></good>
															<originalvideofilename></originalvideofilename>
															<originalaudiofilename></originalaudiofilename>
														</logginginfo>
														<colorinfo>
															<lut></lut>
															<lut1></lut1>
															<asc_sop></asc_sop>
															<asc_sat></asc_sat>
															<lut2></lut2>
														</colorinfo>
														<labels>
															<label2>Iris</label2>
														</labels>
													</clipitem>
													<clipitem id="clipitem-598">
														<masterclipid>masterclip-173</masterclipid>
														<name>(modfoxwatercolors)_Cgpi5E6JOaM_IG.mp4</name>
														<enabled>TRUE</enabled>
														<duration>1812</duration>
														<rate>
															<timebase>30</timebase>
															<ntsc>TRUE</ntsc>
														</rate>
														<start>2630</start>
														<end>2815</end>
														<in>1406</in>
														<out>1591</out>
														<pproTicksIn>11916788083200</pproTicksIn>
														<pproTicksOut>13484786515200</pproTicksOut>
														<alphatype>none</alphatype>
														<file id="file-167"/>
														<filter>
															<effect>
																<name>Basic Motion</name>
																<effectid>basic</effectid>
																<effectcategory>motion</effectcategory>
																<effecttype>motion</effecttype>
																<mediatype>video</mediatype>
																<pproBypass>false</pproBypass>
																<parameter authoringApp="PremierePro">
																	<parameterid>scale</parameterid>
																	<name>Scale</name>
																	<valuemin>0</valuemin>
																	<valuemax>1000</valuemax>
																	<value>297.375</value>
																</parameter>
																<parameter authoringApp="PremierePro">
																	<parameterid>rotation</parameterid>
																	<name>Rotation</name>
																	<valuemin>-8640</valuemin>
																	<valuemax>8640</valuemax>
																	<value>0</value>
																</parameter>
																<parameter authoringApp="PremierePro">
																	<parameterid>center</parameterid>
																	<name>Center</name>
																	<value>
																		<horiz>0</horiz>
																		<vert>0.208594</vert>
																	</value>
																</parameter>
																<parameter authoringApp="PremierePro">
																	<parameterid>centerOffset</parameterid>
																	<name>Anchor Point</name>
																	<value>
																		<horiz>0</horiz>
																		<vert>0</vert>
																	</value>
																</parameter>
																<parameter authoringApp="PremierePro">
																	<parameterid>antiflicker</parameterid>
																	<name>Anti-flicker Filter</name>
																	<valuemin>0.0</valuemin>
																	<valuemax>1.0</valuemax>
																	<value>0</value>
																</parameter>
															</effect>
														</filter>
														<filter>
															<effect>
																<name>Gaussian Blur</name>
																<effectid>Gaussian Blur</effectid>
																<effectcategory>Blur</effectcategory>
																<effecttype>motion</effecttype>
																<mediatype>video</mediatype>
																<pproBypass>false</pproBypass>
																<parameter authoringApp="PremierePro">
																	<parameterid>radius</parameterid>
																	<name>Radius</name>
																	<valuemin>0</valuemin>
																	<valuemax>100</valuemax>
																	<value>150</value>
																</parameter>
															</effect>
														</filter>
														<logginginfo>
															<description></description>
															<scene></scene>
															<shottake></shottake>
															<lognote></lognote>
															<good></good>
															<originalvideofilename></originalvideofilename>
															<originalaudiofilename></originalaudiofilename>
														</logginginfo>
														<colorinfo>
															<lut></lut>
															<lut1></lut1>
															<asc_sop></asc_sop>
															<asc_sat></asc_sat>
															<lut2></lut2>
														</colorinfo>
														<labels>
															<label2>Iris</label2>
														</labels>
													</clipitem>
													<clipitem id="clipitem-599">
														<masterclipid>masterclip-173</masterclipid>
														<name>(modfoxwatercolors)_Cgpi5E6JOaM_IG.mp4</name>
														<enabled>TRUE</enabled>
														<duration>1812</duration>
														<rate>
															<timebase>30</timebase>
															<ntsc>TRUE</ntsc>
														</rate>
														<start>2815</start>
														<end>2991</end>
														<in>1636</in>
														<out>1812</out>
														<pproTicksIn>13866191539200</pproTicksIn>
														<pproTicksOut>15357908966400</pproTicksOut>
														<alphatype>none</alphatype>
														<file id="file-167"/>
														<filter>
															<effect>
																<name>Basic Motion</name>
																<effectid>basic</effectid>
																<effectcategory>motion</effectcategory>
																<effecttype>motion</effecttype>
																<mediatype>video</mediatype>
																<pproBypass>false</pproBypass>
																<parameter authoringApp="PremierePro">
																	<parameterid>scale</parameterid>
																	<name>Scale</name>
																	<valuemin>0</valuemin>
																	<valuemax>1000</valuemax>
																	<value>297.375</value>
																</parameter>
																<parameter authoringApp="PremierePro">
																	<parameterid>rotation</parameterid>
																	<name>Rotation</name>
																	<valuemin>-8640</valuemin>
																	<valuemax>8640</valuemax>
																	<value>0</value>
																</parameter>
																<parameter authoringApp="PremierePro">
																	<parameterid>center</parameterid>
																	<name>Center</name>
																	<value>
																		<horiz>0</horiz>
																		<vert>0.208594</vert>
																	</value>
																</parameter>
																<parameter authoringApp="PremierePro">
																	<parameterid>centerOffset</parameterid>
																	<name>Anchor Point</name>
																	<value>
																		<horiz>0</horiz>
																		<vert>0</vert>
																	</value>
																</parameter>
																<parameter authoringApp="PremierePro">
																	<parameterid>antiflicker</parameterid>
																	<name>Anti-flicker Filter</name>
																	<valuemin>0.0</valuemin>
																	<valuemax>1.0</valuemax>
																	<value>0</value>
																</parameter>
															</effect>
														</filter>
														<filter>
															<effect>
																<name>Gaussian Blur</name>
																<effectid>Gaussian Blur</effectid>
																<effectcategory>Blur</effectcategory>
																<effecttype>motion</effecttype>
																<mediatype>video</mediatype>
																<pproBypass>false</pproBypass>
																<parameter authoringApp="PremierePro">
																	<parameterid>radius</parameterid>
																	<name>Radius</name>
																	<valuemin>0</valuemin>
																	<valuemax>100</valuemax>
																	<value>150</value>
																</parameter>
															</effect>
														</filter>
														<logginginfo>
															<description></description>
															<scene></scene>
															<shottake></shottake>
															<lognote></lognote>
															<good></good>
															<originalvideofilename></originalvideofilename>
															<originalaudiofilename></originalaudiofilename>
														</logginginfo>
														<colorinfo>
															<lut></lut>
															<lut1></lut1>
															<asc_sop></asc_sop>
															<asc_sat></asc_sat>
															<lut2></lut2>
														</colorinfo>
														<labels>
															<label2>Iris</label2>
														</labels>
													</clipitem>
													<enabled>TRUE</enabled>
													<locked>FALSE</locked>
												</track>
												<track TL.SQTrackShy="0" TL.SQTrackExpandedHeight="25" TL.SQTrackExpanded="0" MZ.TrackTargeted="0">
													<clipitem id="clipitem-600">
														<masterclipid>masterclip-173</masterclipid>
														<name>(modfoxwatercolors)_Cgpi5E6JOaM_IG.mp4</name>
														<enabled>TRUE</enabled>
														<duration>1812</duration>
														<rate>
															<timebase>30</timebase>
															<ntsc>TRUE</ntsc>
														</rate>
														<start>1414</start>
														<end>1576</end>
														<in>0</in>
														<out>162</out>
														<pproTicksIn>0</pproTicksIn>
														<pproTicksOut>1373058086400</pproTicksOut>
														<alphatype>none</alphatype>
														<file id="file-167"/>
														<filter>
															<effect>
																<name>Basic Motion</name>
																<effectid>basic</effectid>
																<effectcategory>motion</effectcategory>
																<effecttype>motion</effecttype>
																<mediatype>video</mediatype>
																<pproBypass>false</pproBypass>
																<parameter authoringApp="PremierePro">
																	<parameterid>scale</parameterid>
																	<name>Scale</name>
																	<valuemin>0</valuemin>
																	<valuemax>1000</valuemax>
																	<value>151.375</value>
																</parameter>
																<parameter authoringApp="PremierePro">
																	<parameterid>rotation</parameterid>
																	<name>Rotation</name>
																	<valuemin>-8640</valuemin>
																	<valuemax>8640</valuemax>
																	<value>0</value>
																</parameter>
																<parameter authoringApp="PremierePro">
																	<parameterid>center</parameterid>
																	<name>Center</name>
																	<value>
																		<horiz>0</horiz>
																		<vert>0.208594</vert>
																	</value>
																</parameter>
																<parameter authoringApp="PremierePro">
																	<parameterid>centerOffset</parameterid>
																	<name>Anchor Point</name>
																	<value>
																		<horiz>0</horiz>
																		<vert>0</vert>
																	</value>
																</parameter>
																<parameter authoringApp="PremierePro">
																	<parameterid>antiflicker</parameterid>
																	<name>Anti-flicker Filter</name>
																	<valuemin>0.0</valuemin>
																	<valuemax>1.0</valuemax>
																	<value>0</value>
																</parameter>
															</effect>
														</filter>
														<logginginfo>
															<description></description>
															<scene></scene>
															<shottake></shottake>
															<lognote></lognote>
															<good></good>
															<originalvideofilename></originalvideofilename>
															<originalaudiofilename></originalaudiofilename>
														</logginginfo>
														<colorinfo>
															<lut></lut>
															<lut1></lut1>
															<asc_sop></asc_sop>
															<asc_sat></asc_sat>
															<lut2></lut2>
														</colorinfo>
														<labels>
															<label2>Iris</label2>
														</labels>
													</clipitem>
													<clipitem id="clipitem-601">
														<masterclipid>masterclip-173</masterclipid>
														<name>(modfoxwatercolors)_Cgpi5E6JOaM_IG.mp4</name>
														<enabled>TRUE</enabled>
														<duration>1812</duration>
														<rate>
															<timebase>30</timebase>
															<ntsc>TRUE</ntsc>
														</rate>
														<start>1576</start>
														<end>1805</end>
														<in>162</in>
														<out>391</out>
														<pproTicksIn>1373058086400</pproTicksIn>
														<pproTicksOut>3313985875200</pproTicksOut>
														<alphatype>none</alphatype>
														<file id="file-167"/>
														<filter>
															<effect>
																<name>Basic Motion</name>
																<effectid>basic</effectid>
																<effectcategory>motion</effectcategory>
																<effecttype>motion</effecttype>
																<mediatype>video</mediatype>
																<pproBypass>false</pproBypass>
																<parameter authoringApp="PremierePro">
																	<parameterid>scale</parameterid>
																	<name>Scale</name>
																	<valuemin>0</valuemin>
																	<valuemax>1000</valuemax>
																	<value>151.375</value>
																</parameter>
																<parameter authoringApp="PremierePro">
																	<parameterid>rotation</parameterid>
																	<name>Rotation</name>
																	<valuemin>-8640</valuemin>
																	<valuemax>8640</valuemax>
																	<value>0</value>
																</parameter>
																<parameter authoringApp="PremierePro">
																	<parameterid>center</parameterid>
																	<name>Center</name>
																	<value>
																		<horiz>0</horiz>
																		<vert>-0.185156</vert>
																	</value>
																</parameter>
																<parameter authoringApp="PremierePro">
																	<parameterid>centerOffset</parameterid>
																	<name>Anchor Point</name>
																	<value>
																		<horiz>0</horiz>
																		<vert>0</vert>
																	</value>
																</parameter>
																<parameter authoringApp="PremierePro">
																	<parameterid>antiflicker</parameterid>
																	<name>Anti-flicker Filter</name>
																	<valuemin>0.0</valuemin>
																	<valuemax>1.0</valuemax>
																	<value>0</value>
																</parameter>
															</effect>
														</filter>
														<logginginfo>
															<description></description>
															<scene></scene>
															<shottake></shottake>
															<lognote></lognote>
															<good></good>
															<originalvideofilename></originalvideofilename>
															<originalaudiofilename></originalaudiofilename>
														</logginginfo>
														<colorinfo>
															<lut></lut>
															<lut1></lut1>
															<asc_sop></asc_sop>
															<asc_sat></asc_sat>
															<lut2></lut2>
														</colorinfo>
														<labels>
															<label2>Iris</label2>
														</labels>
													</clipitem>
													<clipitem id="clipitem-602">
														<masterclipid>masterclip-173</masterclipid>
														<name>(modfoxwatercolors)_Cgpi5E6JOaM_IG.mp4</name>
														<enabled>TRUE</enabled>
														<duration>1812</duration>
														<rate>
															<timebase>30</timebase>
															<ntsc>TRUE</ntsc>
														</rate>
														<start>1805</start>
														<end>2042</end>
														<in>457</in>
														<out>694</out>
														<pproTicksIn>3873379910400</pproTicksIn>
														<pproTicksOut>5882113036800</pproTicksOut>
														<alphatype>none</alphatype>
														<file id="file-167"/>
														<filter>
															<effect>
																<name>Basic Motion</name>
																<effectid>basic</effectid>
																<effectcategory>motion</effectcategory>
																<effecttype>motion</effecttype>
																<mediatype>video</mediatype>
																<pproBypass>false</pproBypass>
																<parameter authoringApp="PremierePro">
																	<parameterid>scale</parameterid>
																	<name>Scale</name>
																	<valuemin>0</valuemin>
																	<valuemax>1000</valuemax>
																	<value>151.375</value>
																</parameter>
																<parameter authoringApp="PremierePro">
																	<parameterid>rotation</parameterid>
																	<name>Rotation</name>
																	<valuemin>-8640</valuemin>
																	<valuemax>8640</valuemax>
																	<value>0</value>
																</parameter>
																<parameter authoringApp="PremierePro">
																	<parameterid>center</parameterid>
																	<name>Center</name>
																	<value>
																		<horiz>0</horiz>
																		<vert>-0.185156</vert>
																	</value>
																</parameter>
																<parameter authoringApp="PremierePro">
																	<parameterid>centerOffset</parameterid>
																	<name>Anchor Point</name>
																	<value>
																		<horiz>0</horiz>
																		<vert>0</vert>
																	</value>
																</parameter>
																<parameter authoringApp="PremierePro">
																	<parameterid>antiflicker</parameterid>
																	<name>Anti-flicker Filter</name>
																	<valuemin>0.0</valuemin>
																	<valuemax>1.0</valuemax>
																	<value>0</value>
																</parameter>
															</effect>
														</filter>
														<logginginfo>
															<description></description>
															<scene></scene>
															<shottake></shottake>
															<lognote></lognote>
															<good></good>
															<originalvideofilename></originalvideofilename>
															<originalaudiofilename></originalaudiofilename>
														</logginginfo>
														<colorinfo>
															<lut></lut>
															<lut1></lut1>
															<asc_sop></asc_sop>
															<asc_sat></asc_sat>
															<lut2></lut2>
														</colorinfo>
														<labels>
															<label2>Iris</label2>
														</labels>
													</clipitem>
													<clipitem id="clipitem-603">
														<masterclipid>masterclip-173</masterclipid>
														<name>(modfoxwatercolors)_Cgpi5E6JOaM_IG.mp4</name>
														<enabled>TRUE</enabled>
														<duration>1812</duration>
														<rate>
															<timebase>30</timebase>
															<ntsc>TRUE</ntsc>
														</rate>
														<start>2042</start>
														<end>2265</end>
														<in>734</in>
														<out>957</out>
														<pproTicksIn>6221139724800</pproTicksIn>
														<pproTicksOut>8111213510400</pproTicksOut>
														<alphatype>none</alphatype>
														<file id="file-167"/>
														<filter>
															<effect>
																<name>Basic Motion</name>
																<effectid>basic</effectid>
																<effectcategory>motion</effectcategory>
																<effecttype>motion</effecttype>
																<mediatype>video</mediatype>
																<pproBypass>false</pproBypass>
																<parameter authoringApp="PremierePro">
																	<parameterid>scale</parameterid>
																	<name>Scale</name>
																	<valuemin>0</valuemin>
																	<valuemax>1000</valuemax>
																	<value>151.375</value>
																</parameter>
																<parameter authoringApp="PremierePro">
																	<parameterid>rotation</parameterid>
																	<name>Rotation</name>
																	<valuemin>-8640</valuemin>
																	<valuemax>8640</valuemax>
																	<value>0</value>
																</parameter>
																<parameter authoringApp="PremierePro">
																	<parameterid>center</parameterid>
																	<name>Center</name>
																	<value>
																		<horiz>0</horiz>
																		<vert>-0.185156</vert>
																	</value>
																</parameter>
																<parameter authoringApp="PremierePro">
																	<parameterid>centerOffset</parameterid>
																	<name>Anchor Point</name>
																	<value>
																		<horiz>0</horiz>
																		<vert>0</vert>
																	</value>
																</parameter>
																<parameter authoringApp="PremierePro">
																	<parameterid>antiflicker</parameterid>
																	<name>Anti-flicker Filter</name>
																	<valuemin>0.0</valuemin>
																	<valuemax>1.0</valuemax>
																	<value>0</value>
																</parameter>
															</effect>
														</filter>
														<logginginfo>
															<description></description>
															<scene></scene>
															<shottake></shottake>
															<lognote></lognote>
															<good></good>
															<originalvideofilename></originalvideofilename>
															<originalaudiofilename></originalaudiofilename>
														</logginginfo>
														<colorinfo>
															<lut></lut>
															<lut1></lut1>
															<asc_sop></asc_sop>
															<asc_sat></asc_sat>
															<lut2></lut2>
														</colorinfo>
														<labels>
															<label2>Iris</label2>
														</labels>
													</clipitem>
													<clipitem id="clipitem-604">
														<masterclipid>masterclip-173</masterclipid>
														<name>(modfoxwatercolors)_Cgpi5E6JOaM_IG.mp4</name>
														<enabled>TRUE</enabled>
														<duration>1812</duration>
														<rate>
															<timebase>30</timebase>
															<ntsc>TRUE</ntsc>
														</rate>
														<start>2265</start>
														<end>2323</end>
														<in>957</in>
														<out>1015</out>
														<pproTicksIn>8111213510400</pproTicksIn>
														<pproTicksOut>8602802208000</pproTicksOut>
														<alphatype>none</alphatype>
														<file id="file-167"/>
														<filter>
															<effect>
																<name>Basic Motion</name>
																<effectid>basic</effectid>
																<effectcategory>motion</effectcategory>
																<effecttype>motion</effecttype>
																<mediatype>video</mediatype>
																<pproBypass>false</pproBypass>
																<parameter authoringApp="PremierePro">
																	<parameterid>scale</parameterid>
																	<name>Scale</name>
																	<valuemin>0</valuemin>
																	<valuemax>1000</valuemax>
																	<value>151.375</value>
																</parameter>
																<parameter authoringApp="PremierePro">
																	<parameterid>rotation</parameterid>
																	<name>Rotation</name>
																	<valuemin>-8640</valuemin>
																	<valuemax>8640</valuemax>
																	<value>0</value>
																</parameter>
																<parameter authoringApp="PremierePro">
																	<parameterid>center</parameterid>
																	<name>Center</name>
																	<value>
																		<horiz>0</horiz>
																		<vert>-0.01875</vert>
																	</value>
																</parameter>
																<parameter authoringApp="PremierePro">
																	<parameterid>centerOffset</parameterid>
																	<name>Anchor Point</name>
																	<value>
																		<horiz>0</horiz>
																		<vert>0</vert>
																	</value>
																</parameter>
																<parameter authoringApp="PremierePro">
																	<parameterid>antiflicker</parameterid>
																	<name>Anti-flicker Filter</name>
																	<valuemin>0.0</valuemin>
																	<valuemax>1.0</valuemax>
																	<value>0</value>
																</parameter>
															</effect>
														</filter>
														<logginginfo>
															<description></description>
															<scene></scene>
															<shottake></shottake>
															<lognote></lognote>
															<good></good>
															<originalvideofilename></originalvideofilename>
															<originalaudiofilename></originalaudiofilename>
														</logginginfo>
														<colorinfo>
															<lut></lut>
															<lut1></lut1>
															<asc_sop></asc_sop>
															<asc_sat></asc_sat>
															<lut2></lut2>
														</colorinfo>
														<labels>
															<label2>Iris</label2>
														</labels>
													</clipitem>
													<clipitem id="clipitem-605">
														<masterclipid>masterclip-173</masterclipid>
														<name>(modfoxwatercolors)_Cgpi5E6JOaM_IG.mp4</name>
														<enabled>TRUE</enabled>
														<duration>1812</duration>
														<rate>
															<timebase>30</timebase>
															<ntsc>TRUE</ntsc>
														</rate>
														<start>2323</start>
														<end>2532</end>
														<in>1051</in>
														<out>1260</out>
														<pproTicksIn>8907926227200</pproTicksIn>
														<pproTicksOut>10679340672000</pproTicksOut>
														<alphatype>none</alphatype>
														<file id="file-167"/>
														<filter>
															<effect>
																<name>Basic Motion</name>
																<effectid>basic</effectid>
																<effectcategory>motion</effectcategory>
																<effecttype>motion</effecttype>
																<mediatype>video</mediatype>
																<pproBypass>false</pproBypass>
																<parameter authoringApp="PremierePro">
																	<parameterid>scale</parameterid>
																	<name>Scale</name>
																	<valuemin>0</valuemin>
																	<valuemax>1000</valuemax>
																	<value>151.375</value>
																</parameter>
																<parameter authoringApp="PremierePro">
																	<parameterid>rotation</parameterid>
																	<name>Rotation</name>
																	<valuemin>-8640</valuemin>
																	<valuemax>8640</valuemax>
																	<value>0</value>
																</parameter>
																<parameter authoringApp="PremierePro">
																	<parameterid>center</parameterid>
																	<name>Center</name>
																	<value>
																		<horiz>0</horiz>
																		<vert>-0.185156</vert>
																	</value>
																</parameter>
																<parameter authoringApp="PremierePro">
																	<parameterid>centerOffset</parameterid>
																	<name>Anchor Point</name>
																	<value>
																		<horiz>0</horiz>
																		<vert>0</vert>
																	</value>
																</parameter>
																<parameter authoringApp="PremierePro">
																	<parameterid>antiflicker</parameterid>
																	<name>Anti-flicker Filter</name>
																	<valuemin>0.0</valuemin>
																	<valuemax>1.0</valuemax>
																	<value>0</value>
																</parameter>
															</effect>
														</filter>
														<logginginfo>
															<description></description>
															<scene></scene>
															<shottake></shottake>
															<lognote></lognote>
															<good></good>
															<originalvideofilename></originalvideofilename>
															<originalaudiofilename></originalaudiofilename>
														</logginginfo>
														<colorinfo>
															<lut></lut>
															<lut1></lut1>
															<asc_sop></asc_sop>
															<asc_sat></asc_sat>
															<lut2></lut2>
														</colorinfo>
														<labels>
															<label2>Iris</label2>
														</labels>
													</clipitem>
													<clipitem id="clipitem-606">
														<masterclipid>masterclip-173</masterclipid>
														<name>(modfoxwatercolors)_Cgpi5E6JOaM_IG.mp4</name>
														<enabled>TRUE</enabled>
														<duration>1812</duration>
														<rate>
															<timebase>30</timebase>
															<ntsc>TRUE</ntsc>
														</rate>
														<start>2532</start>
														<end>2630</end>
														<in>1260</in>
														<out>1358</out>
														<pproTicksIn>10679340672000</pproTicksIn>
														<pproTicksOut>11509956057600</pproTicksOut>
														<alphatype>none</alphatype>
														<file id="file-167"/>
														<filter>
															<effect>
																<name>Basic Motion</name>
																<effectid>basic</effectid>
																<effectcategory>motion</effectcategory>
																<effecttype>motion</effecttype>
																<mediatype>video</mediatype>
																<pproBypass>false</pproBypass>
																<parameter authoringApp="PremierePro">
																	<parameterid>scale</parameterid>
																	<name>Scale</name>
																	<valuemin>0</valuemin>
																	<valuemax>1000</valuemax>
																	<value>151.375</value>
																</parameter>
																<parameter authoringApp="PremierePro">
																	<parameterid>rotation</parameterid>
																	<name>Rotation</name>
																	<valuemin>-8640</valuemin>
																	<valuemax>8640</valuemax>
																	<value>0</value>
																</parameter>
																<parameter authoringApp="PremierePro">
																	<parameterid>center</parameterid>
																	<name>Center</name>
																	<value>
																		<horiz>0</horiz>
																		<vert>0.124219</vert>
																	</value>
																</parameter>
																<parameter authoringApp="PremierePro">
																	<parameterid>centerOffset</parameterid>
																	<name>Anchor Point</name>
																	<value>
																		<horiz>0</horiz>
																		<vert>0</vert>
																	</value>
																</parameter>
																<parameter authoringApp="PremierePro">
																	<parameterid>antiflicker</parameterid>
																	<name>Anti-flicker Filter</name>
																	<valuemin>0.0</valuemin>
																	<valuemax>1.0</valuemax>
																	<value>0</value>
																</parameter>
															</effect>
														</filter>
														<logginginfo>
															<description></description>
															<scene></scene>
															<shottake></shottake>
															<lognote></lognote>
															<good></good>
															<originalvideofilename></originalvideofilename>
															<originalaudiofilename></originalaudiofilename>
														</logginginfo>
														<colorinfo>
															<lut></lut>
															<lut1></lut1>
															<asc_sop></asc_sop>
															<asc_sat></asc_sat>
															<lut2></lut2>
														</colorinfo>
														<labels>
															<label2>Iris</label2>
														</labels>
													</clipitem>
													<clipitem id="clipitem-607">
														<masterclipid>masterclip-173</masterclipid>
														<name>(modfoxwatercolors)_Cgpi5E6JOaM_IG.mp4</name>
														<enabled>TRUE</enabled>
														<duration>1812</duration>
														<rate>
															<timebase>30</timebase>
															<ntsc>TRUE</ntsc>
														</rate>
														<start>2630</start>
														<end>2815</end>
														<in>1406</in>
														<out>1591</out>
														<pproTicksIn>11916788083200</pproTicksIn>
														<pproTicksOut>13484786515200</pproTicksOut>
														<alphatype>none</alphatype>
														<file id="file-167"/>
														<filter>
															<effect>
																<name>Basic Motion</name>
																<effectid>basic</effectid>
																<effectcategory>motion</effectcategory>
																<effecttype>motion</effecttype>
																<mediatype>video</mediatype>
																<pproBypass>false</pproBypass>
																<parameter authoringApp="PremierePro">
																	<parameterid>scale</parameterid>
																	<name>Scale</name>
																	<valuemin>0</valuemin>
																	<valuemax>1000</valuemax>
																	<value>151.375</value>
																</parameter>
																<parameter authoringApp="PremierePro">
																	<parameterid>rotation</parameterid>
																	<name>Rotation</name>
																	<valuemin>-8640</valuemin>
																	<valuemax>8640</valuemax>
																	<value>0</value>
																</parameter>
																<parameter authoringApp="PremierePro">
																	<parameterid>center</parameterid>
																	<name>Center</name>
																	<value>
																		<horiz>0</horiz>
																		<vert>-0.185156</vert>
																	</value>
																</parameter>
																<parameter authoringApp="PremierePro">
																	<parameterid>centerOffset</parameterid>
																	<name>Anchor Point</name>
																	<value>
																		<horiz>0</horiz>
																		<vert>0</vert>
																	</value>
																</parameter>
																<parameter authoringApp="PremierePro">
																	<parameterid>antiflicker</parameterid>
																	<name>Anti-flicker Filter</name>
																	<valuemin>0.0</valuemin>
																	<valuemax>1.0</valuemax>
																	<value>0</value>
																</parameter>
															</effect>
														</filter>
														<logginginfo>
															<description></description>
															<scene></scene>
															<shottake></shottake>
															<lognote></lognote>
															<good></good>
															<originalvideofilename></originalvideofilename>
															<originalaudiofilename></originalaudiofilename>
														</logginginfo>
														<colorinfo>
															<lut></lut>
															<lut1></lut1>
															<asc_sop></asc_sop>
															<asc_sat></asc_sat>
															<lut2></lut2>
														</colorinfo>
														<labels>
															<label2>Iris</label2>
														</labels>
													</clipitem>
													<clipitem id="clipitem-608">
														<masterclipid>masterclip-173</masterclipid>
														<name>(modfoxwatercolors)_Cgpi5E6JOaM_IG.mp4</name>
														<enabled>TRUE</enabled>
														<duration>1812</duration>
														<rate>
															<timebase>30</timebase>
															<ntsc>TRUE</ntsc>
														</rate>
														<start>2815</start>
														<end>2991</end>
														<in>1636</in>
														<out>1812</out>
														<pproTicksIn>13866191539200</pproTicksIn>
														<pproTicksOut>15357908966400</pproTicksOut>
														<alphatype>none</alphatype>
														<file id="file-167"/>
														<filter>
															<effect>
																<name>Basic Motion</name>
																<effectid>basic</effectid>
																<effectcategory>motion</effectcategory>
																<effecttype>motion</effecttype>
																<mediatype>video</mediatype>
																<pproBypass>false</pproBypass>
																<parameter authoringApp="PremierePro">
																	<parameterid>scale</parameterid>
																	<name>Scale</name>
																	<valuemin>0</valuemin>
																	<valuemax>1000</valuemax>
																	<value>151.375</value>
																</parameter>
																<parameter authoringApp="PremierePro">
																	<parameterid>rotation</parameterid>
																	<name>Rotation</name>
																	<valuemin>-8640</valuemin>
																	<valuemax>8640</valuemax>
																	<value>0</value>
																</parameter>
																<parameter authoringApp="PremierePro">
																	<parameterid>center</parameterid>
																	<name>Center</name>
																	<value>
																		<horiz>0</horiz>
																		<vert>-0.185156</vert>
																	</value>
																</parameter>
																<parameter authoringApp="PremierePro">
																	<parameterid>centerOffset</parameterid>
																	<name>Anchor Point</name>
																	<value>
																		<horiz>0</horiz>
																		<vert>0</vert>
																	</value>
																</parameter>
																<parameter authoringApp="PremierePro">
																	<parameterid>antiflicker</parameterid>
																	<name>Anti-flicker Filter</name>
																	<valuemin>0.0</valuemin>
																	<valuemax>1.0</valuemax>
																	<value>0</value>
																</parameter>
															</effect>
														</filter>
														<logginginfo>
															<description></description>
															<scene></scene>
															<shottake></shottake>
															<lognote></lognote>
															<good></good>
															<originalvideofilename></originalvideofilename>
															<originalaudiofilename></originalaudiofilename>
														</logginginfo>
														<colorinfo>
															<lut></lut>
															<lut1></lut1>
															<asc_sop></asc_sop>
															<asc_sat></asc_sat>
															<lut2></lut2>
														</colorinfo>
														<labels>
															<label2>Iris</label2>
														</labels>
													</clipitem>
													<enabled>TRUE</enabled>
													<locked>FALSE</locked>
												</track>
												<track TL.SQTrackShy="0" TL.SQTrackExpandedHeight="25" TL.SQTrackExpanded="0" MZ.TrackTargeted="0">
													<clipitem id="clipitem-609">
														<masterclipid>masterclip-47</masterclipid>
														<name>modfoxwatercolors</name>
														<enabled>TRUE</enabled>
														<duration>5844</duration>
														<rate>
															<timebase>30</timebase>
															<ntsc>TRUE</ntsc>
														</rate>
														<start>0</start>
														<end>2991</end>
														<in>0</in>
														<out>2991</out>
														<pproTicksIn>0</pproTicksIn>
														<pproTicksOut>25350720595200</pproTicksOut>
														<alphatype>straight</alphatype>
														<file id="file-47"/>
														<filter>
															<effect>
																<name>Basic Motion</name>
																<effectid>basic</effectid>
																<effectcategory>motion</effectcategory>
																<effecttype>motion</effecttype>
																<mediatype>video</mediatype>
																<pproBypass>false</pproBypass>
																<parameter authoringApp="PremierePro">
																	<parameterid>scale</parameterid>
																	<name>Scale</name>
																	<valuemin>0</valuemin>
																	<valuemax>1000</valuemax>
																	<value>150</value>
																</parameter>
																<parameter authoringApp="PremierePro">
																	<parameterid>rotation</parameterid>
																	<name>Rotation</name>
																	<valuemin>-8640</valuemin>
																	<valuemax>8640</valuemax>
																	<value>0</value>
																</parameter>
																<parameter authoringApp="PremierePro">
																	<parameterid>center</parameterid>
																	<name>Center</name>
																	<value>
																		<horiz>0</horiz>
																		<vert>0</vert>
																	</value>
																</parameter>
																<parameter authoringApp="PremierePro">
																	<parameterid>centerOffset</parameterid>
																	<name>Anchor Point</name>
																	<value>
																		<horiz>0</horiz>
																		<vert>0</vert>
																	</value>
																</parameter>
																<parameter authoringApp="PremierePro">
																	<parameterid>antiflicker</parameterid>
																	<name>Anti-flicker Filter</name>
																	<valuemin>0.0</valuemin>
																	<valuemax>1.0</valuemax>
																	<value>0</value>
																</parameter>
															</effect>
														</filter>
														<logginginfo>
															<description></description>
															<scene></scene>
															<shottake></shottake>
															<lognote></lognote>
															<good></good>
															<originalvideofilename></originalvideofilename>
															<originalaudiofilename></originalaudiofilename>
														</logginginfo>
														<colorinfo>
															<lut></lut>
															<lut1></lut1>
															<asc_sop></asc_sop>
															<asc_sat></asc_sat>
															<lut2></lut2>
														</colorinfo>
														<labels>
															<label2>Rose</label2>
														</labels>
													</clipitem>
													<enabled>TRUE</enabled>
													<locked>FALSE</locked>
												</track>
												<track TL.SQTrackShy="0" TL.SQTrackExpandedHeight="25" TL.SQTrackExpanded="0" MZ.TrackTargeted="0">
													<clipitem id="clipitem-610">
														<masterclipid>masterclip-106</masterclipid>
														<name>Bug and Lower Nest</name>
														<enabled>TRUE</enabled>
														<duration>14721</duration>
														<rate>
															<timebase>30</timebase>
															<ntsc>TRUE</ntsc>
														</rate>
														<start>0</start>
														<end>2991</end>
														<in>0</in>
														<out>2991</out>
														<pproTicksIn>0</pproTicksIn>
														<pproTicksOut>25350720595200</pproTicksOut>
														<sequence id="sequence-1"/>
														<labels>
															<label2>Cerulean</label2>
														</labels>
													</clipitem>
													<enabled>TRUE</enabled>
													<locked>FALSE</locked>
												</track>
											</video>
											<audio>
												<numOutputChannels>2</numOutputChannels>
												<format>
													<samplecharacteristics>
														<depth>16</depth>
														<samplerate>44100</samplerate>
													</samplecharacteristics>
												</format>
												<outputs>
													<group>
														<index>1</index>
														<numchannels>1</numchannels>
														<downmix>0</downmix>
														<channel>
															<index>1</index>
														</channel>
													</group>
													<group>
														<index>2</index>
														<numchannels>1</numchannels>
														<downmix>0</downmix>
														<channel>
															<index>2</index>
														</channel>
													</group>
												</outputs>
												<track TL.SQTrackAudioKeyframeStyle="0" TL.SQTrackShy="0" TL.SQTrackExpandedHeight="25" TL.SQTrackExpanded="0" MZ.TrackTargeted="1" PannerCurrentValue="0.5" PannerIsInverted="true" PannerStartKeyframe="-91445760000000000,0.5,0,0,0,0,0,0" PannerName="Balance" currentExplodedTrackIndex="0" totalExplodedTrackCount="2" premiereTrackType="Stereo">
													<enabled>TRUE</enabled>
													<locked>FALSE</locked>
													<outputchannelindex>1</outputchannelindex>
												</track>
												<track TL.SQTrackAudioKeyframeStyle="0" TL.SQTrackShy="0" TL.SQTrackExpandedHeight="25" TL.SQTrackExpanded="0" MZ.TrackTargeted="1" PannerCurrentValue="0.5" PannerIsInverted="true" PannerStartKeyframe="-91445760000000000,0.5,0,0,0,0,0,0" PannerName="Balance" currentExplodedTrackIndex="1" totalExplodedTrackCount="2" premiereTrackType="Stereo">
													<enabled>TRUE</enabled>
													<locked>FALSE</locked>
													<outputchannelindex>2</outputchannelindex>
												</track>
											</audio>
										</media>
										<timecode>
											<rate>
												<timebase>30</timebase>
												<ntsc>TRUE</ntsc>
											</rate>
											<string>00:00:00:00</string>
											<frame>0</frame>
											<displayformat>NDF</displayformat>
										</timecode>
										<labels>
											<label2>Forest</label2>
										</labels>
										<logginginfo>
											<description></description>
											<scene></scene>
											<shottake></shottake>
											<lognote></lognote>
											<good></good>
											<originalvideofilename></originalvideofilename>
											<originalaudiofilename></originalaudiofilename>
										</logginginfo>
									</sequence>
									<sequence id="sequence-64" TL.SQAudioVisibleBase="0" TL.SQVideoVisibleBase="0" TL.SQVisibleBaseTime="0" TL.SQAVDividerPosition="0.5" TL.SQHideShyTracks="0" TL.SQHeaderWidth="236" Monitor.ProgramZoomOut="22901252774400" Monitor.ProgramZoomIn="0" TL.SQTimePerPixel="0.14658488934993083" AM.TrackVScrollPosition="0" AM.TrackScrollPosition="0" MZ.EditLine="1212020409600" MZ.Sequence.PreviewFrameSizeHeight="1080" MZ.Sequence.PreviewFrameSizeWidth="1920" MZ.Sequence.AudioTimeDisplayFormat="200" MZ.Sequence.PreviewRenderingClassID="1297106761" MZ.Sequence.PreviewRenderingPresetCodec="1297107278" MZ.Sequence.PreviewRenderingPresetPath="EncoderPresets/SequencePreview/795454d9-d3c2-429d-9474-923ab13b7018/I-Frame Only MPEG.epr" MZ.Sequence.PreviewUseMaxRenderQuality="false" MZ.Sequence.PreviewUseMaxBitDepth="false" MZ.Sequence.EditingModeGUID="795454d9-d3c2-429d-9474-923ab13b7018" MZ.Sequence.VideoTimeDisplayFormat="103" MZ.WorkOutPoint="22901252774400" MZ.WorkInPoint="0" explodedTracks="true">
										<uuid>70eb9347-c052-435c-b56c-ae8a4acd8317</uuid>
										<duration>2702</duration>
										<rate>
											<timebase>30</timebase>
											<ntsc>TRUE</ntsc>
										</rate>
										<out>2702</out>
										<name>SAT_lemonade_inc_1.5</name>
										<media>
											<video>
												<format>
													<samplecharacteristics>
														<rate>
															<timebase>30</timebase>
															<ntsc>TRUE</ntsc>
														</rate>
														<codec>
															<name>Apple ProRes 422</name>
															<appspecificdata>
																<appname>Final Cut Pro</appname>
																<appmanufacturer>Apple Inc.</appmanufacturer>
																<appversion>7.0</appversion>
																<data>
																	<qtcodec>
																		<codecname>Apple ProRes 422</codecname>
																		<codectypename>Apple ProRes 422</codectypename>
																		<codectypecode>apcn</codectypecode>
																		<codecvendorcode>appl</codecvendorcode>
																		<spatialquality>1024</spatialquality>
																		<temporalquality>0</temporalquality>
																		<keyframerate>0</keyframerate>
																		<datarate>0</datarate>
																	</qtcodec>
																</data>
															</appspecificdata>
														</codec>
														<width>1920</width>
														<height>1080</height>
														<anamorphic>FALSE</anamorphic>
														<pixelaspectratio>square</pixelaspectratio>
														<fielddominance>none</fielddominance>
														<colordepth>24</colordepth>
													</samplecharacteristics>
												</format>
												<track TL.SQTrackShy="0" TL.SQTrackExpandedHeight="25" TL.SQTrackExpanded="0" MZ.TrackTargeted="1">
													<clipitem id="clipitem-611">
														<masterclipid>masterclip-174</masterclipid>
														<name>lemonade_inc - B2PDw4TgvsI.mp4</name>
														<enabled>TRUE</enabled>
														<duration>840</duration>
														<rate>
															<timebase>30</timebase>
															<ntsc>TRUE</ntsc>
														</rate>
														<start>0</start>
														<end>776</end>
														<in>0</in>
														<out>776</out>
														<pproTicksIn>0</pproTicksIn>
														<pproTicksOut>6577117747200</pproTicksOut>
														<alphatype>none</alphatype>
														<pixelaspectratio>square</pixelaspectratio>
														<anamorphic>FALSE</anamorphic>
														<file id="file-168">
															<name>lemonade_inc - B2PDw4TgvsI.mp4</name>
															<pathurl>file://localhost/Volumes/Satisfactum%20Satisfactorum/00_Hub%20World/3_Raw%20Files/Clip%20Providers/lemonade%20inc%2004-20/lemonade_inc%20-%20B2PDw4TgvsI.mp4</pathurl>
															<rate>
																<timebase>29</timebase>
																<ntsc>FALSE</ntsc>
															</rate>
															<duration>839</duration>
															<timecode>
																<rate>
																	<timebase>29</timebase>
																	<ntsc>FALSE</ntsc>
																</rate>
																<string>00:00:00:00</string>
																<frame>0</frame>
																<displayformat>NDF</displayformat>
															</timecode>
															<media>
																<video>
																	<samplecharacteristics>
																		<rate>
																			<timebase>29</timebase>
																			<ntsc>FALSE</ntsc>
																		</rate>
																		<width>640</width>
																		<height>640</height>
																		<anamorphic>FALSE</anamorphic>
																		<pixelaspectratio>square</pixelaspectratio>
																		<fielddominance>none</fielddominance>
																	</samplecharacteristics>
																</video>
																<audio>
																	<samplecharacteristics>
																		<depth>16</depth>
																		<samplerate>44100</samplerate>
																	</samplecharacteristics>
																	<channelcount>2</channelcount>
																</audio>
															</media>
														</file>
														<filter>
															<effect>
																<name>Basic Motion</name>
																<effectid>basic</effectid>
																<effectcategory>motion</effectcategory>
																<effecttype>motion</effecttype>
																<mediatype>video</mediatype>
																<pproBypass>false</pproBypass>
																<parameter authoringApp="PremierePro">
																	<parameterid>scale</parameterid>
																	<name>Scale</name>
																	<valuemin>0</valuemin>
																	<valuemax>1000</valuemax>
																	<value>360</value>
																</parameter>
																<parameter authoringApp="PremierePro">
																	<parameterid>rotation</parameterid>
																	<name>Rotation</name>
																	<valuemin>-8640</valuemin>
																	<valuemax>8640</valuemax>
																	<value>0</value>
																</parameter>
																<parameter authoringApp="PremierePro">
																	<parameterid>center</parameterid>
																	<name>Center</name>
																	<value>
																		<horiz>0</horiz>
																		<vert>-0.696875</vert>
																	</value>
																</parameter>
																<parameter authoringApp="PremierePro">
																	<parameterid>centerOffset</parameterid>
																	<name>Anchor Point</name>
																	<value>
																		<horiz>0</horiz>
																		<vert>0</vert>
																	</value>
																</parameter>
																<parameter authoringApp="PremierePro">
																	<parameterid>antiflicker</parameterid>
																	<name>Anti-flicker Filter</name>
																	<valuemin>0.0</valuemin>
																	<valuemax>1.0</valuemax>
																	<value>0</value>
																</parameter>
															</effect>
														</filter>
														<filter>
															<effect>
																<name>Gaussian Blur</name>
																<effectid>Gaussian Blur</effectid>
																<effectcategory>Blur</effectcategory>
																<effecttype>motion</effecttype>
																<mediatype>video</mediatype>
																<pproBypass>false</pproBypass>
																<parameter authoringApp="PremierePro">
																	<parameterid>radius</parameterid>
																	<name>Radius</name>
																	<valuemin>0</valuemin>
																	<valuemax>100</valuemax>
																	<value>150</value>
																</parameter>
															</effect>
														</filter>
														<logginginfo>
															<description></description>
															<scene></scene>
															<shottake></shottake>
															<lognote></lognote>
															<good></good>
															<originalvideofilename></originalvideofilename>
															<originalaudiofilename></originalaudiofilename>
														</logginginfo>
														<colorinfo>
															<lut></lut>
															<lut1></lut1>
															<asc_sop></asc_sop>
															<asc_sat></asc_sat>
															<lut2></lut2>
														</colorinfo>
														<labels>
															<label2>Iris</label2>
														</labels>
													</clipitem>
													<clipitem id="clipitem-612">
														<masterclipid>masterclip-175</masterclipid>
														<name>lemonade_inc - BzfyXYzgJDI.mp4</name>
														<enabled>TRUE</enabled>
														<duration>648</duration>
														<rate>
															<timebase>30</timebase>
															<ntsc>TRUE</ntsc>
														</rate>
														<start>1430</start>
														<end>2046</end>
														<in>32</in>
														<out>648</out>
														<pproTicksIn>271221350400</pproTicksIn>
														<pproTicksOut>5492232345600</pproTicksOut>
														<alphatype>none</alphatype>
														<pixelaspectratio>square</pixelaspectratio>
														<anamorphic>FALSE</anamorphic>
														<file id="file-169">
															<name>lemonade_inc - BzfyXYzgJDI.mp4</name>
															<pathurl>file://localhost/Volumes/Satisfactum%20Satisfactorum/00_Hub%20World/3_Raw%20Files/Clip%20Providers/lemonade%20inc%2004-20/lemonade_inc%20-%20BzfyXYzgJDI.mp4</pathurl>
															<rate>
																<timebase>30</timebase>
																<ntsc>FALSE</ntsc>
															</rate>
															<duration>649</duration>
															<timecode>
																<rate>
																	<timebase>30</timebase>
																	<ntsc>FALSE</ntsc>
																</rate>
																<string>00:00:00:00</string>
																<frame>0</frame>
																<displayformat>NDF</displayformat>
															</timecode>
															<media>
																<video>
																	<samplecharacteristics>
																		<rate>
																			<timebase>30</timebase>
																			<ntsc>FALSE</ntsc>
																		</rate>
																		<width>640</width>
																		<height>640</height>
																		<anamorphic>FALSE</anamorphic>
																		<pixelaspectratio>square</pixelaspectratio>
																		<fielddominance>none</fielddominance>
																	</samplecharacteristics>
																</video>
																<audio>
																	<samplecharacteristics>
																		<depth>16</depth>
																		<samplerate>44100</samplerate>
																	</samplecharacteristics>
																	<channelcount>2</channelcount>
																</audio>
															</media>
														</file>
														<filter>
															<effect>
																<name>Basic Motion</name>
																<effectid>basic</effectid>
																<effectcategory>motion</effectcategory>
																<effecttype>motion</effecttype>
																<mediatype>video</mediatype>
																<pproBypass>false</pproBypass>
																<parameter authoringApp="PremierePro">
																	<parameterid>scale</parameterid>
																	<name>Scale</name>
																	<valuemin>0</valuemin>
																	<valuemax>1000</valuemax>
																	<value>360</value>
																</parameter>
																<parameter authoringApp="PremierePro">
																	<parameterid>rotation</parameterid>
																	<name>Rotation</name>
																	<valuemin>-8640</valuemin>
																	<valuemax>8640</valuemax>
																	<value>0</value>
																</parameter>
																<parameter authoringApp="PremierePro">
																	<parameterid>center</parameterid>
																	<name>Center</name>
																	<value>
																		<horiz>0</horiz>
																		<vert>-0.696875</vert>
																	</value>
																</parameter>
																<parameter authoringApp="PremierePro">
																	<parameterid>centerOffset</parameterid>
																	<name>Anchor Point</name>
																	<value>
																		<horiz>0</horiz>
																		<vert>0</vert>
																	</value>
																</parameter>
																<parameter authoringApp="PremierePro">
																	<parameterid>antiflicker</parameterid>
																	<name>Anti-flicker Filter</name>
																	<valuemin>0.0</valuemin>
																	<valuemax>1.0</valuemax>
																	<value>0</value>
																</parameter>
															</effect>
														</filter>
														<filter>
															<effect>
																<name>Gaussian Blur</name>
																<effectid>Gaussian Blur</effectid>
																<effectcategory>Blur</effectcategory>
																<effecttype>motion</effecttype>
																<mediatype>video</mediatype>
																<pproBypass>false</pproBypass>
																<parameter authoringApp="PremierePro">
																	<parameterid>radius</parameterid>
																	<name>Radius</name>
																	<valuemin>0</valuemin>
																	<valuemax>100</valuemax>
																	<value>150</value>
																</parameter>
															</effect>
														</filter>
														<logginginfo>
															<description></description>
															<scene></scene>
															<shottake></shottake>
															<lognote></lognote>
															<good></good>
															<originalvideofilename></originalvideofilename>
															<originalaudiofilename></originalaudiofilename>
														</logginginfo>
														<colorinfo>
															<lut></lut>
															<lut1></lut1>
															<asc_sop></asc_sop>
															<asc_sat></asc_sat>
															<lut2></lut2>
														</colorinfo>
														<labels>
															<label2>Iris</label2>
														</labels>
													</clipitem>
													<enabled>TRUE</enabled>
													<locked>FALSE</locked>
												</track>
												<track TL.SQTrackShy="0" TL.SQTrackExpandedHeight="25" TL.SQTrackExpanded="0" MZ.TrackTargeted="0">
													<clipitem id="clipitem-613">
														<masterclipid>masterclip-174</masterclipid>
														<name>lemonade_inc - B2PDw4TgvsI.mp4</name>
														<enabled>TRUE</enabled>
														<duration>840</duration>
														<rate>
															<timebase>30</timebase>
															<ntsc>TRUE</ntsc>
														</rate>
														<start>0</start>
														<end>776</end>
														<in>0</in>
														<out>776</out>
														<pproTicksIn>0</pproTicksIn>
														<pproTicksOut>6577117747200</pproTicksOut>
														<alphatype>none</alphatype>
														<file id="file-168"/>
														<filter>
															<effect>
																<name>Basic Motion</name>
																<effectid>basic</effectid>
																<effectcategory>motion</effectcategory>
																<effecttype>motion</effecttype>
																<mediatype>video</mediatype>
																<pproBypass>false</pproBypass>
																<parameter authoringApp="PremierePro">
																	<parameterid>scale</parameterid>
																	<name>Scale</name>
																	<valuemin>0</valuemin>
																	<valuemax>1000</valuemax>
																	<value>169</value>
																</parameter>
																<parameter authoringApp="PremierePro">
																	<parameterid>rotation</parameterid>
																	<name>Rotation</name>
																	<valuemin>-8640</valuemin>
																	<valuemax>8640</valuemax>
																	<value>0</value>
																</parameter>
																<parameter authoringApp="PremierePro">
																	<parameterid>center</parameterid>
																	<name>Center</name>
																	<value>
																		<horiz>0</horiz>
																		<vert>0</vert>
																	</value>
																</parameter>
																<parameter authoringApp="PremierePro">
																	<parameterid>centerOffset</parameterid>
																	<name>Anchor Point</name>
																	<value>
																		<horiz>0</horiz>
																		<vert>0</vert>
																	</value>
																</parameter>
																<parameter authoringApp="PremierePro">
																	<parameterid>antiflicker</parameterid>
																	<name>Anti-flicker Filter</name>
																	<valuemin>0.0</valuemin>
																	<valuemax>1.0</valuemax>
																	<value>0</value>
																</parameter>
															</effect>
														</filter>
														<logginginfo>
															<description></description>
															<scene></scene>
															<shottake></shottake>
															<lognote></lognote>
															<good></good>
															<originalvideofilename></originalvideofilename>
															<originalaudiofilename></originalaudiofilename>
														</logginginfo>
														<colorinfo>
															<lut></lut>
															<lut1></lut1>
															<asc_sop></asc_sop>
															<asc_sat></asc_sat>
															<lut2></lut2>
														</colorinfo>
														<labels>
															<label2>Iris</label2>
														</labels>
													</clipitem>
													<clipitem id="clipitem-614">
														<masterclipid>masterclip-176</masterclipid>
														<name>lemonade_inc - B8yyZ1Eg__x.mp4</name>
														<enabled>TRUE</enabled>
														<duration>945</duration>
														<rate>
															<timebase>30</timebase>
															<ntsc>TRUE</ntsc>
														</rate>
														<start>776</start>
														<end>1430</end>
														<in>21</in>
														<out>675</out>
														<pproTicksIn>177989011200</pproTicksIn>
														<pproTicksOut>5721075360000</pproTicksOut>
														<alphatype>none</alphatype>
														<pixelaspectratio>square</pixelaspectratio>
														<anamorphic>FALSE</anamorphic>
														<file id="file-170">
															<name>lemonade_inc - B8yyZ1Eg__x.mp4</name>
															<pathurl>file://localhost/Volumes/Satisfactum%20Satisfactorum/00_Hub%20World/3_Raw%20Files/Clip%20Providers/lemonade%20inc%2004-20/lemonade_inc%20-%20B8yyZ1Eg__x.mp4</pathurl>
															<rate>
																<timebase>29</timebase>
																<ntsc>FALSE</ntsc>
															</rate>
															<duration>946</duration>
															<timecode>
																<rate>
																	<timebase>29</timebase>
																	<ntsc>FALSE</ntsc>
																</rate>
																<string>00:00:00:00</string>
																<frame>0</frame>
																<displayformat>NDF</displayformat>
															</timecode>
															<media>
																<video>
																	<samplecharacteristics>
																		<rate>
																			<timebase>29</timebase>
																			<ntsc>FALSE</ntsc>
																		</rate>
																		<width>640</width>
																		<height>640</height>
																		<anamorphic>FALSE</anamorphic>
																		<pixelaspectratio>square</pixelaspectratio>
																		<fielddominance>none</fielddominance>
																	</samplecharacteristics>
																</video>
																<audio>
																	<samplecharacteristics>
																		<depth>16</depth>
																		<samplerate>44100</samplerate>
																	</samplecharacteristics>
																	<channelcount>2</channelcount>
																</audio>
															</media>
														</file>
														<filter>
															<effect>
																<name>Basic Motion</name>
																<effectid>basic</effectid>
																<effectcategory>motion</effectcategory>
																<effecttype>motion</effecttype>
																<mediatype>video</mediatype>
																<pproBypass>false</pproBypass>
																<parameter authoringApp="PremierePro">
																	<parameterid>scale</parameterid>
																	<name>Scale</name>
																	<valuemin>0</valuemin>
																	<valuemax>1000</valuemax>
																	<value>360</value>
																</parameter>
																<parameter authoringApp="PremierePro">
																	<parameterid>rotation</parameterid>
																	<name>Rotation</name>
																	<valuemin>-8640</valuemin>
																	<valuemax>8640</valuemax>
																	<value>0</value>
																</parameter>
																<parameter authoringApp="PremierePro">
																	<parameterid>center</parameterid>
																	<name>Center</name>
																	<value>
																		<horiz>0</horiz>
																		<vert>-0.696875</vert>
																	</value>
																</parameter>
																<parameter authoringApp="PremierePro">
																	<parameterid>centerOffset</parameterid>
																	<name>Anchor Point</name>
																	<value>
																		<horiz>0</horiz>
																		<vert>0</vert>
																	</value>
																</parameter>
																<parameter authoringApp="PremierePro">
																	<parameterid>antiflicker</parameterid>
																	<name>Anti-flicker Filter</name>
																	<valuemin>0.0</valuemin>
																	<valuemax>1.0</valuemax>
																	<value>0</value>
																</parameter>
															</effect>
														</filter>
														<filter>
															<effect>
																<name>Gaussian Blur</name>
																<effectid>Gaussian Blur</effectid>
																<effectcategory>Blur</effectcategory>
																<effecttype>motion</effecttype>
																<mediatype>video</mediatype>
																<pproBypass>false</pproBypass>
																<parameter authoringApp="PremierePro">
																	<parameterid>radius</parameterid>
																	<name>Radius</name>
																	<valuemin>0</valuemin>
																	<valuemax>100</valuemax>
																	<value>150</value>
																</parameter>
															</effect>
														</filter>
														<logginginfo>
															<description></description>
															<scene></scene>
															<shottake></shottake>
															<lognote></lognote>
															<good></good>
															<originalvideofilename></originalvideofilename>
															<originalaudiofilename></originalaudiofilename>
														</logginginfo>
														<colorinfo>
															<lut></lut>
															<lut1></lut1>
															<asc_sop></asc_sop>
															<asc_sat></asc_sat>
															<lut2></lut2>
														</colorinfo>
														<labels>
															<label2>Iris</label2>
														</labels>
													</clipitem>
													<clipitem id="clipitem-615">
														<masterclipid>masterclip-175</masterclipid>
														<name>lemonade_inc - BzfyXYzgJDI.mp4</name>
														<enabled>TRUE</enabled>
														<duration>648</duration>
														<rate>
															<timebase>30</timebase>
															<ntsc>TRUE</ntsc>
														</rate>
														<start>1430</start>
														<end>2046</end>
														<in>32</in>
														<out>648</out>
														<pproTicksIn>271221350400</pproTicksIn>
														<pproTicksOut>5492232345600</pproTicksOut>
														<alphatype>none</alphatype>
														<file id="file-169"/>
														<filter>
															<effect>
																<name>Basic Motion</name>
																<effectid>basic</effectid>
																<effectcategory>motion</effectcategory>
																<effecttype>motion</effecttype>
																<mediatype>video</mediatype>
																<pproBypass>false</pproBypass>
																<parameter authoringApp="PremierePro">
																	<parameterid>scale</parameterid>
																	<name>Scale</name>
																	<valuemin>0</valuemin>
																	<valuemax>1000</valuemax>
																	<value>169</value>
																</parameter>
																<parameter authoringApp="PremierePro">
																	<parameterid>rotation</parameterid>
																	<name>Rotation</name>
																	<valuemin>-8640</valuemin>
																	<valuemax>8640</valuemax>
																	<value>0</value>
																</parameter>
																<parameter authoringApp="PremierePro">
																	<parameterid>center</parameterid>
																	<name>Center</name>
																	<value>
																		<horiz>0</horiz>
																		<vert>0</vert>
																	</value>
																</parameter>
																<parameter authoringApp="PremierePro">
																	<parameterid>centerOffset</parameterid>
																	<name>Anchor Point</name>
																	<value>
																		<horiz>0</horiz>
																		<vert>0</vert>
																	</value>
																</parameter>
																<parameter authoringApp="PremierePro">
																	<parameterid>antiflicker</parameterid>
																	<name>Anti-flicker Filter</name>
																	<valuemin>0.0</valuemin>
																	<valuemax>1.0</valuemax>
																	<value>0</value>
																</parameter>
															</effect>
														</filter>
														<logginginfo>
															<description></description>
															<scene></scene>
															<shottake></shottake>
															<lognote></lognote>
															<good></good>
															<originalvideofilename></originalvideofilename>
															<originalaudiofilename></originalaudiofilename>
														</logginginfo>
														<colorinfo>
															<lut></lut>
															<lut1></lut1>
															<asc_sop></asc_sop>
															<asc_sat></asc_sat>
															<lut2></lut2>
														</colorinfo>
														<labels>
															<label2>Iris</label2>
														</labels>
													</clipitem>
													<clipitem id="clipitem-616">
														<masterclipid>masterclip-177</masterclipid>
														<name>lemonade_inc - BzqLOTlAjxp.mp4</name>
														<enabled>TRUE</enabled>
														<duration>689</duration>
														<rate>
															<timebase>30</timebase>
															<ntsc>TRUE</ntsc>
														</rate>
														<start>2046</start>
														<end>2702</end>
														<in>34</in>
														<out>690</out>
														<pproTicksIn>288172684800</pproTicksIn>
														<pproTicksOut>5848210368000</pproTicksOut>
														<alphatype>none</alphatype>
														<pixelaspectratio>square</pixelaspectratio>
														<anamorphic>FALSE</anamorphic>
														<file id="file-171">
															<name>lemonade_inc - BzqLOTlAjxp.mp4</name>
															<pathurl>file://localhost/Volumes/Satisfactum%20Satisfactorum/00_Hub%20World/3_Raw%20Files/Clip%20Providers/lemonade%20inc%2004-20/lemonade_inc%20-%20BzqLOTlAjxp.mp4</pathurl>
															<rate>
																<timebase>29</timebase>
																<ntsc>FALSE</ntsc>
															</rate>
															<duration>690</duration>
															<timecode>
																<rate>
																	<timebase>29</timebase>
																	<ntsc>FALSE</ntsc>
																</rate>
																<string>00:00:00:00</string>
																<frame>0</frame>
																<displayformat>NDF</displayformat>
															</timecode>
															<media>
																<video>
																	<samplecharacteristics>
																		<rate>
																			<timebase>29</timebase>
																			<ntsc>FALSE</ntsc>
																		</rate>
																		<width>640</width>
																		<height>640</height>
																		<anamorphic>FALSE</anamorphic>
																		<pixelaspectratio>square</pixelaspectratio>
																		<fielddominance>none</fielddominance>
																	</samplecharacteristics>
																</video>
																<audio>
																	<samplecharacteristics>
																		<depth>16</depth>
																		<samplerate>44100</samplerate>
																	</samplecharacteristics>
																	<channelcount>2</channelcount>
																</audio>
															</media>
														</file>
														<filter>
															<effect>
																<name>Basic Motion</name>
																<effectid>basic</effectid>
																<effectcategory>motion</effectcategory>
																<effecttype>motion</effecttype>
																<mediatype>video</mediatype>
																<pproBypass>false</pproBypass>
																<parameter authoringApp="PremierePro">
																	<parameterid>scale</parameterid>
																	<name>Scale</name>
																	<valuemin>0</valuemin>
																	<valuemax>1000</valuemax>
																	<value>360</value>
																</parameter>
																<parameter authoringApp="PremierePro">
																	<parameterid>rotation</parameterid>
																	<name>Rotation</name>
																	<valuemin>-8640</valuemin>
																	<valuemax>8640</valuemax>
																	<value>0</value>
																</parameter>
																<parameter authoringApp="PremierePro">
																	<parameterid>center</parameterid>
																	<name>Center</name>
																	<value>
																		<horiz>0</horiz>
																		<vert>-0.696875</vert>
																	</value>
																</parameter>
																<parameter authoringApp="PremierePro">
																	<parameterid>centerOffset</parameterid>
																	<name>Anchor Point</name>
																	<value>
																		<horiz>0</horiz>
																		<vert>0</vert>
																	</value>
																</parameter>
																<parameter authoringApp="PremierePro">
																	<parameterid>antiflicker</parameterid>
																	<name>Anti-flicker Filter</name>
																	<valuemin>0.0</valuemin>
																	<valuemax>1.0</valuemax>
																	<value>0</value>
																</parameter>
															</effect>
														</filter>
														<filter>
															<effect>
																<name>Gaussian Blur</name>
																<effectid>Gaussian Blur</effectid>
																<effectcategory>Blur</effectcategory>
																<effecttype>motion</effecttype>
																<mediatype>video</mediatype>
																<pproBypass>false</pproBypass>
																<parameter authoringApp="PremierePro">
																	<parameterid>radius</parameterid>
																	<name>Radius</name>
																	<valuemin>0</valuemin>
																	<valuemax>100</valuemax>
																	<value>150</value>
																</parameter>
															</effect>
														</filter>
														<logginginfo>
															<description></description>
															<scene></scene>
															<shottake></shottake>
															<lognote></lognote>
															<good></good>
															<originalvideofilename></originalvideofilename>
															<originalaudiofilename></originalaudiofilename>
														</logginginfo>
														<colorinfo>
															<lut></lut>
															<lut1></lut1>
															<asc_sop></asc_sop>
															<asc_sat></asc_sat>
															<lut2></lut2>
														</colorinfo>
														<labels>
															<label2>Iris</label2>
														</labels>
													</clipitem>
													<enabled>TRUE</enabled>
													<locked>FALSE</locked>
												</track>
												<track TL.SQTrackShy="0" TL.SQTrackExpandedHeight="25" TL.SQTrackExpanded="0" MZ.TrackTargeted="0">
													<clipitem id="clipitem-617">
														<masterclipid>masterclip-176</masterclipid>
														<name>lemonade_inc - B8yyZ1Eg__x.mp4</name>
														<enabled>TRUE</enabled>
														<duration>945</duration>
														<rate>
															<timebase>30</timebase>
															<ntsc>TRUE</ntsc>
														</rate>
														<start>776</start>
														<end>1430</end>
														<in>21</in>
														<out>675</out>
														<pproTicksIn>177989011200</pproTicksIn>
														<pproTicksOut>5721075360000</pproTicksOut>
														<alphatype>none</alphatype>
														<file id="file-170"/>
														<filter>
															<effect>
																<name>Basic Motion</name>
																<effectid>basic</effectid>
																<effectcategory>motion</effectcategory>
																<effecttype>motion</effecttype>
																<mediatype>video</mediatype>
																<pproBypass>false</pproBypass>
																<parameter authoringApp="PremierePro">
																	<parameterid>scale</parameterid>
																	<name>Scale</name>
																	<valuemin>0</valuemin>
																	<valuemax>1000</valuemax>
																	<value>169</value>
																</parameter>
																<parameter authoringApp="PremierePro">
																	<parameterid>rotation</parameterid>
																	<name>Rotation</name>
																	<valuemin>-8640</valuemin>
																	<valuemax>8640</valuemax>
																	<value>0</value>
																</parameter>
																<parameter authoringApp="PremierePro">
																	<parameterid>center</parameterid>
																	<name>Center</name>
																	<value>
																		<horiz>0</horiz>
																		<vert>0</vert>
																	</value>
																</parameter>
																<parameter authoringApp="PremierePro">
																	<parameterid>centerOffset</parameterid>
																	<name>Anchor Point</name>
																	<value>
																		<horiz>0</horiz>
																		<vert>0</vert>
																	</value>
																</parameter>
																<parameter authoringApp="PremierePro">
																	<parameterid>antiflicker</parameterid>
																	<name>Anti-flicker Filter</name>
																	<valuemin>0.0</valuemin>
																	<valuemax>1.0</valuemax>
																	<value>0</value>
																</parameter>
															</effect>
														</filter>
														<logginginfo>
															<description></description>
															<scene></scene>
															<shottake></shottake>
															<lognote></lognote>
															<good></good>
															<originalvideofilename></originalvideofilename>
															<originalaudiofilename></originalaudiofilename>
														</logginginfo>
														<colorinfo>
															<lut></lut>
															<lut1></lut1>
															<asc_sop></asc_sop>
															<asc_sat></asc_sat>
															<lut2></lut2>
														</colorinfo>
														<labels>
															<label2>Iris</label2>
														</labels>
													</clipitem>
													<clipitem id="clipitem-618">
														<masterclipid>masterclip-177</masterclipid>
														<name>lemonade_inc - BzqLOTlAjxp.mp4</name>
														<enabled>TRUE</enabled>
														<duration>689</duration>
														<rate>
															<timebase>30</timebase>
															<ntsc>TRUE</ntsc>
														</rate>
														<start>2046</start>
														<end>2702</end>
														<in>34</in>
														<out>690</out>
														<pproTicksIn>288172684800</pproTicksIn>
														<pproTicksOut>5848210368000</pproTicksOut>
														<alphatype>none</alphatype>
														<file id="file-171"/>
														<filter>
															<effect>
																<name>Basic Motion</name>
																<effectid>basic</effectid>
																<effectcategory>motion</effectcategory>
																<effecttype>motion</effecttype>
																<mediatype>video</mediatype>
																<pproBypass>false</pproBypass>
																<parameter authoringApp="PremierePro">
																	<parameterid>scale</parameterid>
																	<name>Scale</name>
																	<valuemin>0</valuemin>
																	<valuemax>1000</valuemax>
																	<value>169</value>
																</parameter>
																<parameter authoringApp="PremierePro">
																	<parameterid>rotation</parameterid>
																	<name>Rotation</name>
																	<valuemin>-8640</valuemin>
																	<valuemax>8640</valuemax>
																	<value>0</value>
																</parameter>
																<parameter authoringApp="PremierePro">
																	<parameterid>center</parameterid>
																	<name>Center</name>
																	<value>
																		<horiz>0</horiz>
																		<vert>0</vert>
																	</value>
																</parameter>
																<parameter authoringApp="PremierePro">
																	<parameterid>centerOffset</parameterid>
																	<name>Anchor Point</name>
																	<value>
																		<horiz>0</horiz>
																		<vert>0</vert>
																	</value>
																</parameter>
																<parameter authoringApp="PremierePro">
																	<parameterid>antiflicker</parameterid>
																	<name>Anti-flicker Filter</name>
																	<valuemin>0.0</valuemin>
																	<valuemax>1.0</valuemax>
																	<value>0</value>
																</parameter>
															</effect>
														</filter>
														<logginginfo>
															<description></description>
															<scene></scene>
															<shottake></shottake>
															<lognote></lognote>
															<good></good>
															<originalvideofilename></originalvideofilename>
															<originalaudiofilename></originalaudiofilename>
														</logginginfo>
														<colorinfo>
															<lut></lut>
															<lut1></lut1>
															<asc_sop></asc_sop>
															<asc_sat></asc_sat>
															<lut2></lut2>
														</colorinfo>
														<labels>
															<label2>Iris</label2>
														</labels>
													</clipitem>
													<enabled>TRUE</enabled>
													<locked>FALSE</locked>
												</track>
												<track TL.SQTrackShy="0" TL.SQTrackExpandedHeight="25" TL.SQTrackExpanded="0" MZ.TrackTargeted="0">
													<clipitem id="clipitem-619">
														<masterclipid>masterclip-80</masterclipid>
														<name>lemonade_inc IG confirmed</name>
														<enabled>TRUE</enabled>
														<duration>5844</duration>
														<rate>
															<timebase>30</timebase>
															<ntsc>TRUE</ntsc>
														</rate>
														<start>0</start>
														<end>2702</end>
														<in>0</in>
														<out>2702</out>
														<pproTicksIn>0</pproTicksIn>
														<pproTicksOut>22901252774400</pproTicksOut>
														<alphatype>straight</alphatype>
														<file id="file-80"/>
														<filter>
															<effect>
																<name>Basic Motion</name>
																<effectid>basic</effectid>
																<effectcategory>motion</effectcategory>
																<effecttype>motion</effecttype>
																<mediatype>video</mediatype>
																<pproBypass>false</pproBypass>
																<parameter authoringApp="PremierePro">
																	<parameterid>scale</parameterid>
																	<name>Scale</name>
																	<valuemin>0</valuemin>
																	<valuemax>1000</valuemax>
																	<value>150</value>
																</parameter>
																<parameter authoringApp="PremierePro">
																	<parameterid>rotation</parameterid>
																	<name>Rotation</name>
																	<valuemin>-8640</valuemin>
																	<valuemax>8640</valuemax>
																	<value>0</value>
																</parameter>
																<parameter authoringApp="PremierePro">
																	<parameterid>center</parameterid>
																	<name>Center</name>
																	<value>
																		<horiz>0</horiz>
																		<vert>0</vert>
																	</value>
																</parameter>
																<parameter authoringApp="PremierePro">
																	<parameterid>centerOffset</parameterid>
																	<name>Anchor Point</name>
																	<value>
																		<horiz>0</horiz>
																		<vert>0</vert>
																	</value>
																</parameter>
																<parameter authoringApp="PremierePro">
																	<parameterid>antiflicker</parameterid>
																	<name>Anti-flicker Filter</name>
																	<valuemin>0.0</valuemin>
																	<valuemax>1.0</valuemax>
																	<value>0</value>
																</parameter>
															</effect>
														</filter>
														<logginginfo>
															<description></description>
															<scene></scene>
															<shottake></shottake>
															<lognote></lognote>
															<good></good>
															<originalvideofilename></originalvideofilename>
															<originalaudiofilename></originalaudiofilename>
														</logginginfo>
														<colorinfo>
															<lut></lut>
															<lut1></lut1>
															<asc_sop></asc_sop>
															<asc_sat></asc_sat>
															<lut2></lut2>
														</colorinfo>
														<labels>
															<label2>Rose</label2>
														</labels>
													</clipitem>
													<enabled>TRUE</enabled>
													<locked>FALSE</locked>
												</track>
												<track TL.SQTrackShy="0" TL.SQTrackExpandedHeight="25" TL.SQTrackExpanded="0" MZ.TrackTargeted="0">
													<clipitem id="clipitem-620">
														<masterclipid>masterclip-106</masterclipid>
														<name>Bug and Lower Nest</name>
														<enabled>TRUE</enabled>
														<duration>14721</duration>
														<rate>
															<timebase>30</timebase>
															<ntsc>TRUE</ntsc>
														</rate>
														<start>0</start>
														<end>2702</end>
														<in>0</in>
														<out>2702</out>
														<pproTicksIn>0</pproTicksIn>
														<pproTicksOut>22901252774400</pproTicksOut>
														<sequence id="sequence-1"/>
														<labels>
															<label2>Cerulean</label2>
														</labels>
													</clipitem>
													<enabled>TRUE</enabled>
													<locked>FALSE</locked>
												</track>
											</video>
											<audio>
												<numOutputChannels>2</numOutputChannels>
												<format>
													<samplecharacteristics>
														<depth>16</depth>
														<samplerate>44100</samplerate>
													</samplecharacteristics>
												</format>
												<outputs>
													<group>
														<index>1</index>
														<numchannels>1</numchannels>
														<downmix>0</downmix>
														<channel>
															<index>1</index>
														</channel>
													</group>
													<group>
														<index>2</index>
														<numchannels>1</numchannels>
														<downmix>0</downmix>
														<channel>
															<index>2</index>
														</channel>
													</group>
												</outputs>
												<track TL.SQTrackAudioKeyframeStyle="0" TL.SQTrackShy="0" TL.SQTrackExpandedHeight="25" TL.SQTrackExpanded="0" MZ.TrackTargeted="1" PannerCurrentValue="0.5" PannerIsInverted="true" PannerStartKeyframe="-91445760000000000,0.5,0,0,0,0,0,0" PannerName="Balance" currentExplodedTrackIndex="0" totalExplodedTrackCount="2" premiereTrackType="Stereo">
													<transitionitem>
														<start>0</start>
														<end>30</end>
														<pproTicksIn>0</pproTicksIn>
														<pproTicksOut>254270016000</pproTicksOut>
														<alignment>start-black</alignment>
														<cutPointTicks>0</cutPointTicks>
														<rate>
															<timebase>30</timebase>
															<ntsc>TRUE</ntsc>
														</rate>
														<effect>
															<name>Cross Fade (+3dB)</name>
															<effectid>KGAudioTransCrossFade3dB</effectid>
															<effecttype>transition</effecttype>
															<mediatype>audio</mediatype>
															<wipecode>0</wipecode>
															<wipeaccuracy>100</wipeaccuracy>
															<startratio>0</startratio>
															<endratio>1</endratio>
															<reverse>FALSE</reverse>
														</effect>
													</transitionitem>
													<clipitem id="clipitem-621" premiereChannelType="stereo">
														<masterclipid>masterclip-12</masterclipid>
														<name>ES_This Endless Night - Wendy Marcini.mp3</name>
														<enabled>TRUE</enabled>
														<duration>6923</duration>
														<rate>
															<timebase>30</timebase>
															<ntsc>TRUE</ntsc>
														</rate>
														<start>-1</start>
														<end>-1</end>
														<in>0</in>
														<out>2702</out>
														<pproTicksIn>0</pproTicksIn>
														<pproTicksOut>22901252774400</pproTicksOut>
														<file id="file-12"/>
														<sourcetrack>
															<mediatype>audio</mediatype>
															<trackindex>1</trackindex>
														</sourcetrack>
														<link>
															<linkclipref>clipitem-621</linkclipref>
															<mediatype>audio</mediatype>
															<trackindex>1</trackindex>
															<clipindex>2</clipindex>
															<groupindex>1</groupindex>
														</link>
														<link>
															<linkclipref>clipitem-622</linkclipref>
															<mediatype>audio</mediatype>
															<trackindex>2</trackindex>
															<clipindex>2</clipindex>
															<groupindex>1</groupindex>
														</link>
														<logginginfo>
															<description></description>
															<scene></scene>
															<shottake></shottake>
															<lognote></lognote>
															<good></good>
															<originalvideofilename></originalvideofilename>
															<originalaudiofilename></originalaudiofilename>
														</logginginfo>
														<colorinfo>
															<lut></lut>
															<lut1></lut1>
															<asc_sop></asc_sop>
															<asc_sat></asc_sat>
															<lut2></lut2>
														</colorinfo>
														<labels>
															<label2>Caribbean</label2>
														</labels>
													</clipitem>
													<transitionitem>
														<start>2613</start>
														<end>2702</end>
														<pproTicksIn>22138444800000</pproTicksIn>
														<pproTicksOut>22901252774400</pproTicksOut>
														<alignment>end-black</alignment>
														<cutPointTicks>762807974400</cutPointTicks>
														<rate>
															<timebase>30</timebase>
															<ntsc>TRUE</ntsc>
														</rate>
														<effect>
															<name>Cross Fade (+3dB)</name>
															<effectid>KGAudioTransCrossFade3dB</effectid>
															<effecttype>transition</effecttype>
															<mediatype>audio</mediatype>
															<wipecode>0</wipecode>
															<wipeaccuracy>100</wipeaccuracy>
															<startratio>0</startratio>
															<endratio>1</endratio>
															<reverse>FALSE</reverse>
														</effect>
													</transitionitem>
													<enabled>TRUE</enabled>
													<locked>FALSE</locked>
													<filter>
														<effect>
															<name>Audio Levels</name>
															<effectid>audiolevels</effectid>
															<effectcategory>audiolevels</effectcategory>
															<effecttype>audiolevels</effecttype>
															<mediatype>audio</mediatype>
															<parameter authoringApp="PremierePro">
																<parameterid>level</parameterid>
																<name>Level</name>
																<valuemin>0</valuemin>
																<valuemax>3.98109</valuemax>
																<value>0.706272</value>
															</parameter>
														</effect>
													</filter>
													<outputchannelindex>1</outputchannelindex>
												</track>
												<track TL.SQTrackAudioKeyframeStyle="0" TL.SQTrackShy="0" TL.SQTrackExpandedHeight="25" TL.SQTrackExpanded="0" MZ.TrackTargeted="1" PannerCurrentValue="0.5" PannerIsInverted="true" PannerStartKeyframe="-91445760000000000,0.5,0,0,0,0,0,0" PannerName="Balance" currentExplodedTrackIndex="1" totalExplodedTrackCount="2" premiereTrackType="Stereo">
													<transitionitem>
														<start>0</start>
														<end>30</end>
														<pproTicksIn>0</pproTicksIn>
														<pproTicksOut>254270016000</pproTicksOut>
														<alignment>start-black</alignment>
														<cutPointTicks>0</cutPointTicks>
														<rate>
															<timebase>30</timebase>
															<ntsc>TRUE</ntsc>
														</rate>
														<effect>
															<name>Cross Fade (+3dB)</name>
															<effectid>KGAudioTransCrossFade3dB</effectid>
															<effecttype>transition</effecttype>
															<mediatype>audio</mediatype>
															<wipecode>0</wipecode>
															<wipeaccuracy>100</wipeaccuracy>
															<startratio>0</startratio>
															<endratio>1</endratio>
															<reverse>FALSE</reverse>
														</effect>
													</transitionitem>
													<clipitem id="clipitem-622" premiereChannelType="stereo">
														<masterclipid>masterclip-12</masterclipid>
														<name>ES_This Endless Night - Wendy Marcini.mp3</name>
														<enabled>TRUE</enabled>
														<duration>6923</duration>
														<rate>
															<timebase>30</timebase>
															<ntsc>TRUE</ntsc>
														</rate>
														<start>-1</start>
														<end>-1</end>
														<in>0</in>
														<out>2702</out>
														<pproTicksIn>0</pproTicksIn>
														<pproTicksOut>22901252774400</pproTicksOut>
														<file id="file-12"/>
														<sourcetrack>
															<mediatype>audio</mediatype>
															<trackindex>2</trackindex>
														</sourcetrack>
														<link>
															<linkclipref>clipitem-621</linkclipref>
															<mediatype>audio</mediatype>
															<trackindex>1</trackindex>
															<clipindex>2</clipindex>
															<groupindex>1</groupindex>
														</link>
														<link>
															<linkclipref>clipitem-622</linkclipref>
															<mediatype>audio</mediatype>
															<trackindex>2</trackindex>
															<clipindex>2</clipindex>
															<groupindex>1</groupindex>
														</link>
														<logginginfo>
															<description></description>
															<scene></scene>
															<shottake></shottake>
															<lognote></lognote>
															<good></good>
															<originalvideofilename></originalvideofilename>
															<originalaudiofilename></originalaudiofilename>
														</logginginfo>
														<colorinfo>
															<lut></lut>
															<lut1></lut1>
															<asc_sop></asc_sop>
															<asc_sat></asc_sat>
															<lut2></lut2>
														</colorinfo>
														<labels>
															<label2>Caribbean</label2>
														</labels>
													</clipitem>
													<transitionitem>
														<start>2613</start>
														<end>2702</end>
														<pproTicksIn>22138444800000</pproTicksIn>
														<pproTicksOut>22901252774400</pproTicksOut>
														<alignment>end-black</alignment>
														<cutPointTicks>762807974400</cutPointTicks>
														<rate>
															<timebase>30</timebase>
															<ntsc>TRUE</ntsc>
														</rate>
														<effect>
															<name>Cross Fade (+3dB)</name>
															<effectid>KGAudioTransCrossFade3dB</effectid>
															<effecttype>transition</effecttype>
															<mediatype>audio</mediatype>
															<wipecode>0</wipecode>
															<wipeaccuracy>100</wipeaccuracy>
															<startratio>0</startratio>
															<endratio>1</endratio>
															<reverse>FALSE</reverse>
														</effect>
													</transitionitem>
													<enabled>TRUE</enabled>
													<locked>FALSE</locked>
													<filter>
														<effect>
															<name>Audio Levels</name>
															<effectid>audiolevels</effectid>
															<effectcategory>audiolevels</effectcategory>
															<effecttype>audiolevels</effecttype>
															<mediatype>audio</mediatype>
															<parameter authoringApp="PremierePro">
																<parameterid>level</parameterid>
																<name>Level</name>
																<valuemin>0</valuemin>
																<valuemax>3.98109</valuemax>
																<value>0.706272</value>
															</parameter>
														</effect>
													</filter>
													<outputchannelindex>2</outputchannelindex>
												</track>
											</audio>
										</media>
										<timecode>
											<rate>
												<timebase>30</timebase>
												<ntsc>TRUE</ntsc>
											</rate>
											<string>00:00:00:00</string>
											<frame>0</frame>
											<displayformat>NDF</displayformat>
										</timecode>
										<labels>
											<label2>Forest</label2>
										</labels>
										<logginginfo>
											<description></description>
											<scene></scene>
											<shottake></shottake>
											<lognote></lognote>
											<good></good>
											<originalvideofilename></originalvideofilename>
											<originalaudiofilename></originalaudiofilename>
										</logginginfo>
									</sequence>
									<sequence id="sequence-65" TL.SQAudioVisibleBase="0" TL.SQVideoVisibleBase="0" TL.SQVisibleBaseTime="0" TL.SQAVDividerPosition="0.5" TL.SQHideShyTracks="0" TL.SQHeaderWidth="236" Monitor.ProgramZoomOut="22918204108800" Monitor.ProgramZoomIn="0" TL.SQTimePerPixel="0.22877900917716595" AM.TrackVScrollPosition="0" AM.TrackScrollPosition="0" MZ.EditLine="11001416025600" MZ.Sequence.PreviewFrameSizeHeight="1080" MZ.Sequence.PreviewFrameSizeWidth="1920" MZ.Sequence.AudioTimeDisplayFormat="200" MZ.Sequence.PreviewRenderingClassID="1297106761" MZ.Sequence.PreviewRenderingPresetCodec="1297107278" MZ.Sequence.PreviewRenderingPresetPath="EncoderPresets/SequencePreview/795454d9-d3c2-429d-9474-923ab13b7018/I-Frame Only MPEG.epr" MZ.Sequence.PreviewUseMaxRenderQuality="false" MZ.Sequence.PreviewUseMaxBitDepth="false" MZ.Sequence.EditingModeGUID="795454d9-d3c2-429d-9474-923ab13b7018" MZ.Sequence.VideoTimeDisplayFormat="103" MZ.WorkOutPoint="22918204108800" MZ.WorkInPoint="0" explodedTracks="true">
										<uuid>19f4707f-a8af-44b1-894f-23ccbd0b0e18</uuid>
										<duration>2704</duration>
										<rate>
											<timebase>30</timebase>
											<ntsc>TRUE</ntsc>
										</rate>
										<out>2704</out>
										<name>SAT_callen schaub_1.5</name>
										<media>
											<video>
												<format>
													<samplecharacteristics>
														<rate>
															<timebase>30</timebase>
															<ntsc>TRUE</ntsc>
														</rate>
														<codec>
															<name>Apple ProRes 422</name>
															<appspecificdata>
																<appname>Final Cut Pro</appname>
																<appmanufacturer>Apple Inc.</appmanufacturer>
																<appversion>7.0</appversion>
																<data>
																	<qtcodec>
																		<codecname>Apple ProRes 422</codecname>
																		<codectypename>Apple ProRes 422</codectypename>
																		<codectypecode>apcn</codectypecode>
																		<codecvendorcode>appl</codecvendorcode>
																		<spatialquality>1024</spatialquality>
																		<temporalquality>0</temporalquality>
																		<keyframerate>0</keyframerate>
																		<datarate>0</datarate>
																	</qtcodec>
																</data>
															</appspecificdata>
														</codec>
														<width>1920</width>
														<height>1080</height>
														<anamorphic>FALSE</anamorphic>
														<pixelaspectratio>square</pixelaspectratio>
														<fielddominance>none</fielddominance>
														<colordepth>24</colordepth>
													</samplecharacteristics>
												</format>
												<track TL.SQTrackShy="0" TL.SQTrackExpandedHeight="25" TL.SQTrackExpanded="0" MZ.TrackTargeted="1">
													<clipitem id="clipitem-623">
														<masterclipid>masterclip-178</masterclipid>
														<name>(Callen Schaub)_Satisfaction, inspo, and relaxation during dark times._YBSJ4rCN-Fg_YT.mp4</name>
														<enabled>TRUE</enabled>
														<duration>18000</duration>
														<rate>
															<timebase>30</timebase>
															<ntsc>TRUE</ntsc>
														</rate>
														<start>0</start>
														<end>574</end>
														<in>8497</in>
														<out>9071</out>
														<pproTicksIn>72017744198400</pproTicksIn>
														<pproTicksOut>76882777171200</pproTicksOut>
														<alphatype>none</alphatype>
														<pixelaspectratio>square</pixelaspectratio>
														<anamorphic>FALSE</anamorphic>
														<file id="file-172">
															<name>(Callen Schaub)_Satisfaction, inspo, and relaxation during dark times._YBSJ4rCN-Fg_YT.mp4</name>
															<pathurl>file://localhost/Volumes/Macintosh%20HD/Users/juesecutler/Google%20Drive/My%20Drive/00_New%20weeks%20format/2023/OSTV/OSTV%2023-05-29/3_Raw%20Files/Copied_OSTV%2005-29-23/(Callen%20Schaub)_Satisfaction,%20inspo,%20and%20relaxation%20during%20dark%20times._YBSJ4rCN-Fg_YT.mp4</pathurl>
															<rate>
																<timebase>24</timebase>
																<ntsc>TRUE</ntsc>
															</rate>
															<duration>14400</duration>
															<timecode>
																<rate>
																	<timebase>24</timebase>
																	<ntsc>TRUE</ntsc>
																</rate>
																<string>00:00:00:00</string>
																<frame>0</frame>
																<displayformat>NDF</displayformat>
															</timecode>
															<media>
																<video>
																	<samplecharacteristics>
																		<rate>
																			<timebase>24</timebase>
																			<ntsc>TRUE</ntsc>
																		</rate>
																		<width>608</width>
																		<height>1080</height>
																		<anamorphic>FALSE</anamorphic>
																		<pixelaspectratio>square</pixelaspectratio>
																		<fielddominance>none</fielddominance>
																	</samplecharacteristics>
																</video>
																<audio>
																	<samplecharacteristics>
																		<depth>16</depth>
																		<samplerate>44100</samplerate>
																	</samplecharacteristics>
																	<channelcount>2</channelcount>
																</audio>
															</media>
														</file>
														<filter>
															<effect>
																<name>Basic Motion</name>
																<effectid>basic</effectid>
																<effectcategory>motion</effectcategory>
																<effecttype>motion</effecttype>
																<mediatype>video</mediatype>
																<pproBypass>false</pproBypass>
																<parameter authoringApp="PremierePro">
																	<parameterid>scale</parameterid>
																	<name>Scale</name>
																	<valuemin>0</valuemin>
																	<valuemax>1000</valuemax>
																	<value>350</value>
																</parameter>
																<parameter authoringApp="PremierePro">
																	<parameterid>rotation</parameterid>
																	<name>Rotation</name>
																	<valuemin>-8640</valuemin>
																	<valuemax>8640</valuemax>
																	<value>0</value>
																</parameter>
																<parameter authoringApp="PremierePro">
																	<parameterid>center</parameterid>
																	<name>Center</name>
																	<value>
																		<horiz>0</horiz>
																		<vert>0</vert>
																	</value>
																</parameter>
																<parameter authoringApp="PremierePro">
																	<parameterid>centerOffset</parameterid>
																	<name>Anchor Point</name>
																	<value>
																		<horiz>0</horiz>
																		<vert>0</vert>
																	</value>
																</parameter>
																<parameter authoringApp="PremierePro">
																	<parameterid>antiflicker</parameterid>
																	<name>Anti-flicker Filter</name>
																	<valuemin>0.0</valuemin>
																	<valuemax>1.0</valuemax>
																	<value>0</value>
																</parameter>
															</effect>
														</filter>
														<filter>
															<effect>
																<name>Gaussian Blur</name>
																<effectid>Gaussian Blur</effectid>
																<effectcategory>Blur</effectcategory>
																<effecttype>motion</effecttype>
																<mediatype>video</mediatype>
																<pproBypass>false</pproBypass>
																<parameter authoringApp="PremierePro">
																	<parameterid>radius</parameterid>
																	<name>Radius</name>
																	<valuemin>0</valuemin>
																	<valuemax>100</valuemax>
																	<value>150</value>
																</parameter>
															</effect>
														</filter>
														<logginginfo>
															<description>Satisfaction, inspo, and relaxation during dark times.</description>
															<scene></scene>
															<shottake></shottake>
															<lognote>https://www.youtube.com/watch?v=YBSJ4rCN-Fg</lognote>
															<good></good>
															<originalvideofilename></originalvideofilename>
															<originalaudiofilename></originalaudiofilename>
														</logginginfo>
														<colorinfo>
															<lut></lut>
															<lut1></lut1>
															<asc_sop></asc_sop>
															<asc_sat></asc_sat>
															<lut2></lut2>
														</colorinfo>
														<labels>
															<label2>Iris</label2>
														</labels>
													</clipitem>
													<clipitem id="clipitem-624">
														<masterclipid>masterclip-178</masterclipid>
														<name>(Callen Schaub)_Satisfaction, inspo, and relaxation during dark times._YBSJ4rCN-Fg_YT.mp4</name>
														<enabled>TRUE</enabled>
														<duration>18000</duration>
														<rate>
															<timebase>30</timebase>
															<ntsc>TRUE</ntsc>
														</rate>
														<start>574</start>
														<end>1385</end>
														<in>9103</in>
														<out>9914</out>
														<pproTicksIn>77153998521600</pproTicksIn>
														<pproTicksOut>84027764620800</pproTicksOut>
														<alphatype>none</alphatype>
														<file id="file-172"/>
														<filter>
															<effect>
																<name>Basic Motion</name>
																<effectid>basic</effectid>
																<effectcategory>motion</effectcategory>
																<effecttype>motion</effecttype>
																<mediatype>video</mediatype>
																<pproBypass>false</pproBypass>
																<parameter authoringApp="PremierePro">
																	<parameterid>scale</parameterid>
																	<name>Scale</name>
																	<valuemin>0</valuemin>
																	<valuemax>1000</valuemax>
																	<value>350</value>
																</parameter>
																<parameter authoringApp="PremierePro">
																	<parameterid>rotation</parameterid>
																	<name>Rotation</name>
																	<valuemin>-8640</valuemin>
																	<valuemax>8640</valuemax>
																	<value>0</value>
																</parameter>
																<parameter authoringApp="PremierePro">
																	<parameterid>center</parameterid>
																	<name>Center</name>
																	<value>
																		<horiz>0</horiz>
																		<vert>0</vert>
																	</value>
																</parameter>
																<parameter authoringApp="PremierePro">
																	<parameterid>centerOffset</parameterid>
																	<name>Anchor Point</name>
																	<value>
																		<horiz>0</horiz>
																		<vert>0</vert>
																	</value>
																</parameter>
																<parameter authoringApp="PremierePro">
																	<parameterid>antiflicker</parameterid>
																	<name>Anti-flicker Filter</name>
																	<valuemin>0.0</valuemin>
																	<valuemax>1.0</valuemax>
																	<value>0</value>
																</parameter>
															</effect>
														</filter>
														<filter>
															<effect>
																<name>Gaussian Blur</name>
																<effectid>Gaussian Blur</effectid>
																<effectcategory>Blur</effectcategory>
																<effecttype>motion</effecttype>
																<mediatype>video</mediatype>
																<pproBypass>false</pproBypass>
																<parameter authoringApp="PremierePro">
																	<parameterid>radius</parameterid>
																	<name>Radius</name>
																	<valuemin>0</valuemin>
																	<valuemax>100</valuemax>
																	<value>150</value>
																</parameter>
															</effect>
														</filter>
														<logginginfo>
															<description>Satisfaction, inspo, and relaxation during dark times.</description>
															<scene></scene>
															<shottake></shottake>
															<lognote>https://www.youtube.com/watch?v=YBSJ4rCN-Fg</lognote>
															<good></good>
															<originalvideofilename></originalvideofilename>
															<originalaudiofilename></originalaudiofilename>
														</logginginfo>
														<colorinfo>
															<lut></lut>
															<lut1></lut1>
															<asc_sop></asc_sop>
															<asc_sat></asc_sat>
															<lut2></lut2>
														</colorinfo>
														<labels>
															<label2>Iris</label2>
														</labels>
													</clipitem>
													<clipitem id="clipitem-625">
														<masterclipid>masterclip-178</masterclipid>
														<name>(Callen Schaub)_Satisfaction, inspo, and relaxation during dark times._YBSJ4rCN-Fg_YT.mp4</name>
														<enabled>TRUE</enabled>
														<duration>18000</duration>
														<rate>
															<timebase>30</timebase>
															<ntsc>TRUE</ntsc>
														</rate>
														<start>1385</start>
														<end>1979</end>
														<in>10057</in>
														<out>10651</out>
														<pproTicksIn>85239785030400</pproTicksIn>
														<pproTicksOut>90274331347200</pproTicksOut>
														<alphatype>none</alphatype>
														<file id="file-172"/>
														<filter>
															<effect>
																<name>Basic Motion</name>
																<effectid>basic</effectid>
																<effectcategory>motion</effectcategory>
																<effecttype>motion</effecttype>
																<mediatype>video</mediatype>
																<pproBypass>false</pproBypass>
																<parameter authoringApp="PremierePro">
																	<parameterid>scale</parameterid>
																	<name>Scale</name>
																	<valuemin>0</valuemin>
																	<valuemax>1000</valuemax>
																	<value>350</value>
																</parameter>
																<parameter authoringApp="PremierePro">
																	<parameterid>rotation</parameterid>
																	<name>Rotation</name>
																	<valuemin>-8640</valuemin>
																	<valuemax>8640</valuemax>
																	<value>0</value>
																</parameter>
																<parameter authoringApp="PremierePro">
																	<parameterid>center</parameterid>
																	<name>Center</name>
																	<value>
																		<horiz>0</horiz>
																		<vert>0</vert>
																	</value>
																</parameter>
																<parameter authoringApp="PremierePro">
																	<parameterid>centerOffset</parameterid>
																	<name>Anchor Point</name>
																	<value>
																		<horiz>0</horiz>
																		<vert>0</vert>
																	</value>
																</parameter>
																<parameter authoringApp="PremierePro">
																	<parameterid>antiflicker</parameterid>
																	<name>Anti-flicker Filter</name>
																	<valuemin>0.0</valuemin>
																	<valuemax>1.0</valuemax>
																	<value>0</value>
																</parameter>
															</effect>
														</filter>
														<filter>
															<effect>
																<name>Gaussian Blur</name>
																<effectid>Gaussian Blur</effectid>
																<effectcategory>Blur</effectcategory>
																<effecttype>motion</effecttype>
																<mediatype>video</mediatype>
																<pproBypass>false</pproBypass>
																<parameter authoringApp="PremierePro">
																	<parameterid>radius</parameterid>
																	<name>Radius</name>
																	<valuemin>0</valuemin>
																	<valuemax>100</valuemax>
																	<value>150</value>
																</parameter>
															</effect>
														</filter>
														<logginginfo>
															<description>Satisfaction, inspo, and relaxation during dark times.</description>
															<scene></scene>
															<shottake></shottake>
															<lognote>https://www.youtube.com/watch?v=YBSJ4rCN-Fg</lognote>
															<good></good>
															<originalvideofilename></originalvideofilename>
															<originalaudiofilename></originalaudiofilename>
														</logginginfo>
														<colorinfo>
															<lut></lut>
															<lut1></lut1>
															<asc_sop></asc_sop>
															<asc_sat></asc_sat>
															<lut2></lut2>
														</colorinfo>
														<labels>
															<label2>Iris</label2>
														</labels>
													</clipitem>
													<clipitem id="clipitem-626">
														<masterclipid>masterclip-178</masterclipid>
														<name>(Callen Schaub)_Satisfaction, inspo, and relaxation during dark times._YBSJ4rCN-Fg_YT.mp4</name>
														<enabled>TRUE</enabled>
														<duration>18000</duration>
														<rate>
															<timebase>30</timebase>
															<ntsc>TRUE</ntsc>
														</rate>
														<start>1979</start>
														<end>2374</end>
														<in>7431</in>
														<out>7826</out>
														<pproTicksIn>62982682963200</pproTicksIn>
														<pproTicksOut>66330571507200</pproTicksOut>
														<alphatype>none</alphatype>
														<file id="file-172"/>
														<filter>
															<effect>
																<name>Basic Motion</name>
																<effectid>basic</effectid>
																<effectcategory>motion</effectcategory>
																<effecttype>motion</effecttype>
																<mediatype>video</mediatype>
																<pproBypass>false</pproBypass>
																<parameter authoringApp="PremierePro">
																	<parameterid>scale</parameterid>
																	<name>Scale</name>
																	<valuemin>0</valuemin>
																	<valuemax>1000</valuemax>
																	<value>350</value>
																</parameter>
																<parameter authoringApp="PremierePro">
																	<parameterid>rotation</parameterid>
																	<name>Rotation</name>
																	<valuemin>-8640</valuemin>
																	<valuemax>8640</valuemax>
																	<value>0</value>
																</parameter>
																<parameter authoringApp="PremierePro">
																	<parameterid>center</parameterid>
																	<name>Center</name>
																	<value>
																		<horiz>0</horiz>
																		<vert>0</vert>
																	</value>
																</parameter>
																<parameter authoringApp="PremierePro">
																	<parameterid>centerOffset</parameterid>
																	<name>Anchor Point</name>
																	<value>
																		<horiz>0</horiz>
																		<vert>0</vert>
																	</value>
																</parameter>
																<parameter authoringApp="PremierePro">
																	<parameterid>antiflicker</parameterid>
																	<name>Anti-flicker Filter</name>
																	<valuemin>0.0</valuemin>
																	<valuemax>1.0</valuemax>
																	<value>0</value>
																</parameter>
															</effect>
														</filter>
														<filter>
															<effect>
																<name>Gaussian Blur</name>
																<effectid>Gaussian Blur</effectid>
																<effectcategory>Blur</effectcategory>
																<effecttype>motion</effecttype>
																<mediatype>video</mediatype>
																<pproBypass>false</pproBypass>
																<parameter authoringApp="PremierePro">
																	<parameterid>radius</parameterid>
																	<name>Radius</name>
																	<valuemin>0</valuemin>
																	<valuemax>100</valuemax>
																	<value>150</value>
																</parameter>
															</effect>
														</filter>
														<logginginfo>
															<description>Satisfaction, inspo, and relaxation during dark times.</description>
															<scene></scene>
															<shottake></shottake>
															<lognote>https://www.youtube.com/watch?v=YBSJ4rCN-Fg</lognote>
															<good></good>
															<originalvideofilename></originalvideofilename>
															<originalaudiofilename></originalaudiofilename>
														</logginginfo>
														<colorinfo>
															<lut></lut>
															<lut1></lut1>
															<asc_sop></asc_sop>
															<asc_sat></asc_sat>
															<lut2></lut2>
														</colorinfo>
														<labels>
															<label2>Iris</label2>
														</labels>
													</clipitem>
													<clipitem id="clipitem-627">
														<masterclipid>masterclip-178</masterclipid>
														<name>(Callen Schaub)_Satisfaction, inspo, and relaxation during dark times._YBSJ4rCN-Fg_YT.mp4</name>
														<enabled>TRUE</enabled>
														<duration>18000</duration>
														<rate>
															<timebase>30</timebase>
															<ntsc>TRUE</ntsc>
														</rate>
														<start>2374</start>
														<end>2704</end>
														<in>8126</in>
														<out>8456</out>
														<pproTicksIn>68873271667200</pproTicksIn>
														<pproTicksOut>71670241843200</pproTicksOut>
														<alphatype>none</alphatype>
														<file id="file-172"/>
														<filter>
															<effect>
																<name>Basic Motion</name>
																<effectid>basic</effectid>
																<effectcategory>motion</effectcategory>
																<effecttype>motion</effecttype>
																<mediatype>video</mediatype>
																<pproBypass>false</pproBypass>
																<parameter authoringApp="PremierePro">
																	<parameterid>scale</parameterid>
																	<name>Scale</name>
																	<valuemin>0</valuemin>
																	<valuemax>1000</valuemax>
																	<value>350</value>
																</parameter>
																<parameter authoringApp="PremierePro">
																	<parameterid>rotation</parameterid>
																	<name>Rotation</name>
																	<valuemin>-8640</valuemin>
																	<valuemax>8640</valuemax>
																	<value>0</value>
																</parameter>
																<parameter authoringApp="PremierePro">
																	<parameterid>center</parameterid>
																	<name>Center</name>
																	<value>
																		<horiz>0</horiz>
																		<vert>0</vert>
																	</value>
																</parameter>
																<parameter authoringApp="PremierePro">
																	<parameterid>centerOffset</parameterid>
																	<name>Anchor Point</name>
																	<value>
																		<horiz>0</horiz>
																		<vert>0</vert>
																	</value>
																</parameter>
																<parameter authoringApp="PremierePro">
																	<parameterid>antiflicker</parameterid>
																	<name>Anti-flicker Filter</name>
																	<valuemin>0.0</valuemin>
																	<valuemax>1.0</valuemax>
																	<value>0</value>
																</parameter>
															</effect>
														</filter>
														<filter>
															<effect>
																<name>Gaussian Blur</name>
																<effectid>Gaussian Blur</effectid>
																<effectcategory>Blur</effectcategory>
																<effecttype>motion</effecttype>
																<mediatype>video</mediatype>
																<pproBypass>false</pproBypass>
																<parameter authoringApp="PremierePro">
																	<parameterid>radius</parameterid>
																	<name>Radius</name>
																	<valuemin>0</valuemin>
																	<valuemax>100</valuemax>
																	<value>150</value>
																</parameter>
															</effect>
														</filter>
														<logginginfo>
															<description>Satisfaction, inspo, and relaxation during dark times.</description>
															<scene></scene>
															<shottake></shottake>
															<lognote>https://www.youtube.com/watch?v=YBSJ4rCN-Fg</lognote>
															<good></good>
															<originalvideofilename></originalvideofilename>
															<originalaudiofilename></originalaudiofilename>
														</logginginfo>
														<colorinfo>
															<lut></lut>
															<lut1></lut1>
															<asc_sop></asc_sop>
															<asc_sat></asc_sat>
															<lut2></lut2>
														</colorinfo>
														<labels>
															<label2>Iris</label2>
														</labels>
													</clipitem>
													<enabled>TRUE</enabled>
													<locked>FALSE</locked>
												</track>
												<track TL.SQTrackShy="0" TL.SQTrackExpandedHeight="25" TL.SQTrackExpanded="0" MZ.TrackTargeted="0">
													<clipitem id="clipitem-628">
														<masterclipid>masterclip-178</masterclipid>
														<name>(Callen Schaub)_Satisfaction, inspo, and relaxation during dark times._YBSJ4rCN-Fg_YT.mp4</name>
														<enabled>TRUE</enabled>
														<duration>18000</duration>
														<rate>
															<timebase>30</timebase>
															<ntsc>TRUE</ntsc>
														</rate>
														<start>0</start>
														<end>574</end>
														<in>8497</in>
														<out>9071</out>
														<pproTicksIn>72017744198400</pproTicksIn>
														<pproTicksOut>76882777171200</pproTicksOut>
														<alphatype>none</alphatype>
														<file id="file-172"/>
														<filter>
															<effect>
																<name>Basic Motion</name>
																<effectid>basic</effectid>
																<effectcategory>motion</effectcategory>
																<effecttype>motion</effecttype>
																<mediatype>video</mediatype>
																<pproBypass>false</pproBypass>
																<parameter authoringApp="PremierePro">
																	<parameterid>scale</parameterid>
																	<name>Scale</name>
																	<valuemin>0</valuemin>
																	<valuemax>1000</valuemax>
																	<value>179</value>
																</parameter>
																<parameter authoringApp="PremierePro">
																	<parameterid>rotation</parameterid>
																	<name>Rotation</name>
																	<valuemin>-8640</valuemin>
																	<valuemax>8640</valuemax>
																	<value>0</value>
																</parameter>
																<parameter authoringApp="PremierePro">
																	<parameterid>center</parameterid>
																	<name>Center</name>
																	<value>
																		<horiz>0</horiz>
																		<vert>0</vert>
																	</value>
																</parameter>
																<parameter authoringApp="PremierePro">
																	<parameterid>centerOffset</parameterid>
																	<name>Anchor Point</name>
																	<value>
																		<horiz>0</horiz>
																		<vert>0</vert>
																	</value>
																</parameter>
																<parameter authoringApp="PremierePro">
																	<parameterid>antiflicker</parameterid>
																	<name>Anti-flicker Filter</name>
																	<valuemin>0.0</valuemin>
																	<valuemax>1.0</valuemax>
																	<value>0</value>
																</parameter>
															</effect>
														</filter>
														<logginginfo>
															<description>Satisfaction, inspo, and relaxation during dark times.</description>
															<scene></scene>
															<shottake></shottake>
															<lognote>https://www.youtube.com/watch?v=YBSJ4rCN-Fg</lognote>
															<good></good>
															<originalvideofilename></originalvideofilename>
															<originalaudiofilename></originalaudiofilename>
														</logginginfo>
														<colorinfo>
															<lut></lut>
															<lut1></lut1>
															<asc_sop></asc_sop>
															<asc_sat></asc_sat>
															<lut2></lut2>
														</colorinfo>
														<labels>
															<label2>Iris</label2>
														</labels>
													</clipitem>
													<clipitem id="clipitem-629">
														<masterclipid>masterclip-178</masterclipid>
														<name>(Callen Schaub)_Satisfaction, inspo, and relaxation during dark times._YBSJ4rCN-Fg_YT.mp4</name>
														<enabled>TRUE</enabled>
														<duration>18000</duration>
														<rate>
															<timebase>30</timebase>
															<ntsc>TRUE</ntsc>
														</rate>
														<start>574</start>
														<end>1385</end>
														<in>9103</in>
														<out>9914</out>
														<pproTicksIn>77153998521600</pproTicksIn>
														<pproTicksOut>84027764620800</pproTicksOut>
														<alphatype>none</alphatype>
														<file id="file-172"/>
														<filter>
															<effect>
																<name>Basic Motion</name>
																<effectid>basic</effectid>
																<effectcategory>motion</effectcategory>
																<effecttype>motion</effecttype>
																<mediatype>video</mediatype>
																<pproBypass>false</pproBypass>
																<parameter authoringApp="PremierePro">
																	<parameterid>scale</parameterid>
																	<name>Scale</name>
																	<valuemin>0</valuemin>
																	<valuemax>1000</valuemax>
																	<value>179</value>
																</parameter>
																<parameter authoringApp="PremierePro">
																	<parameterid>rotation</parameterid>
																	<name>Rotation</name>
																	<valuemin>-8640</valuemin>
																	<valuemax>8640</valuemax>
																	<value>0</value>
																</parameter>
																<parameter authoringApp="PremierePro">
																	<parameterid>center</parameterid>
																	<name>Center</name>
																	<value>
																		<horiz>0</horiz>
																		<vert>0</vert>
																	</value>
																</parameter>
																<parameter authoringApp="PremierePro">
																	<parameterid>centerOffset</parameterid>
																	<name>Anchor Point</name>
																	<value>
																		<horiz>0</horiz>
																		<vert>0</vert>
																	</value>
																</parameter>
																<parameter authoringApp="PremierePro">
																	<parameterid>antiflicker</parameterid>
																	<name>Anti-flicker Filter</name>
																	<valuemin>0.0</valuemin>
																	<valuemax>1.0</valuemax>
																	<value>0</value>
																</parameter>
															</effect>
														</filter>
														<logginginfo>
															<description>Satisfaction, inspo, and relaxation during dark times.</description>
															<scene></scene>
															<shottake></shottake>
															<lognote>https://www.youtube.com/watch?v=YBSJ4rCN-Fg</lognote>
															<good></good>
															<originalvideofilename></originalvideofilename>
															<originalaudiofilename></originalaudiofilename>
														</logginginfo>
														<colorinfo>
															<lut></lut>
															<lut1></lut1>
															<asc_sop></asc_sop>
															<asc_sat></asc_sat>
															<lut2></lut2>
														</colorinfo>
														<labels>
															<label2>Iris</label2>
														</labels>
													</clipitem>
													<clipitem id="clipitem-630">
														<masterclipid>masterclip-178</masterclipid>
														<name>(Callen Schaub)_Satisfaction, inspo, and relaxation during dark times._YBSJ4rCN-Fg_YT.mp4</name>
														<enabled>TRUE</enabled>
														<duration>18000</duration>
														<rate>
															<timebase>30</timebase>
															<ntsc>TRUE</ntsc>
														</rate>
														<start>1385</start>
														<end>1979</end>
														<in>10057</in>
														<out>10651</out>
														<pproTicksIn>85239785030400</pproTicksIn>
														<pproTicksOut>90274331347200</pproTicksOut>
														<alphatype>none</alphatype>
														<file id="file-172"/>
														<filter>
															<effect>
																<name>Basic Motion</name>
																<effectid>basic</effectid>
																<effectcategory>motion</effectcategory>
																<effecttype>motion</effecttype>
																<mediatype>video</mediatype>
																<pproBypass>false</pproBypass>
																<parameter authoringApp="PremierePro">
																	<parameterid>scale</parameterid>
																	<name>Scale</name>
																	<valuemin>0</valuemin>
																	<valuemax>1000</valuemax>
																	<value>179</value>
																</parameter>
																<parameter authoringApp="PremierePro">
																	<parameterid>rotation</parameterid>
																	<name>Rotation</name>
																	<valuemin>-8640</valuemin>
																	<valuemax>8640</valuemax>
																	<value>0</value>
																</parameter>
																<parameter authoringApp="PremierePro">
																	<parameterid>center</parameterid>
																	<name>Center</name>
																	<value>
																		<horiz>0</horiz>
																		<vert>0</vert>
																	</value>
																</parameter>
																<parameter authoringApp="PremierePro">
																	<parameterid>centerOffset</parameterid>
																	<name>Anchor Point</name>
																	<value>
																		<horiz>0</horiz>
																		<vert>0</vert>
																	</value>
																</parameter>
																<parameter authoringApp="PremierePro">
																	<parameterid>antiflicker</parameterid>
																	<name>Anti-flicker Filter</name>
																	<valuemin>0.0</valuemin>
																	<valuemax>1.0</valuemax>
																	<value>0</value>
																</parameter>
															</effect>
														</filter>
														<logginginfo>
															<description>Satisfaction, inspo, and relaxation during dark times.</description>
															<scene></scene>
															<shottake></shottake>
															<lognote>https://www.youtube.com/watch?v=YBSJ4rCN-Fg</lognote>
															<good></good>
															<originalvideofilename></originalvideofilename>
															<originalaudiofilename></originalaudiofilename>
														</logginginfo>
														<colorinfo>
															<lut></lut>
															<lut1></lut1>
															<asc_sop></asc_sop>
															<asc_sat></asc_sat>
															<lut2></lut2>
														</colorinfo>
														<labels>
															<label2>Iris</label2>
														</labels>
													</clipitem>
													<clipitem id="clipitem-631">
														<masterclipid>masterclip-178</masterclipid>
														<name>(Callen Schaub)_Satisfaction, inspo, and relaxation during dark times._YBSJ4rCN-Fg_YT.mp4</name>
														<enabled>TRUE</enabled>
														<duration>18000</duration>
														<rate>
															<timebase>30</timebase>
															<ntsc>TRUE</ntsc>
														</rate>
														<start>1979</start>
														<end>2374</end>
														<in>7431</in>
														<out>7826</out>
														<pproTicksIn>62982682963200</pproTicksIn>
														<pproTicksOut>66330571507200</pproTicksOut>
														<alphatype>none</alphatype>
														<file id="file-172"/>
														<filter>
															<effect>
																<name>Basic Motion</name>
																<effectid>basic</effectid>
																<effectcategory>motion</effectcategory>
																<effecttype>motion</effecttype>
																<mediatype>video</mediatype>
																<pproBypass>false</pproBypass>
																<parameter authoringApp="PremierePro">
																	<parameterid>scale</parameterid>
																	<name>Scale</name>
																	<valuemin>0</valuemin>
																	<valuemax>1000</valuemax>
																	<value>179</value>
																</parameter>
																<parameter authoringApp="PremierePro">
																	<parameterid>rotation</parameterid>
																	<name>Rotation</name>
																	<valuemin>-8640</valuemin>
																	<valuemax>8640</valuemax>
																	<value>0</value>
																</parameter>
																<parameter authoringApp="PremierePro">
																	<parameterid>center</parameterid>
																	<name>Center</name>
																	<value>
																		<horiz>0</horiz>
																		<vert>0</vert>
																	</value>
																</parameter>
																<parameter authoringApp="PremierePro">
																	<parameterid>centerOffset</parameterid>
																	<name>Anchor Point</name>
																	<value>
																		<horiz>0</horiz>
																		<vert>0</vert>
																	</value>
																</parameter>
																<parameter authoringApp="PremierePro">
																	<parameterid>antiflicker</parameterid>
																	<name>Anti-flicker Filter</name>
																	<valuemin>0.0</valuemin>
																	<valuemax>1.0</valuemax>
																	<value>0</value>
																</parameter>
															</effect>
														</filter>
														<logginginfo>
															<description>Satisfaction, inspo, and relaxation during dark times.</description>
															<scene></scene>
															<shottake></shottake>
															<lognote>https://www.youtube.com/watch?v=YBSJ4rCN-Fg</lognote>
															<good></good>
															<originalvideofilename></originalvideofilename>
															<originalaudiofilename></originalaudiofilename>
														</logginginfo>
														<colorinfo>
															<lut></lut>
															<lut1></lut1>
															<asc_sop></asc_sop>
															<asc_sat></asc_sat>
															<lut2></lut2>
														</colorinfo>
														<labels>
															<label2>Iris</label2>
														</labels>
													</clipitem>
													<clipitem id="clipitem-632">
														<masterclipid>masterclip-178</masterclipid>
														<name>(Callen Schaub)_Satisfaction, inspo, and relaxation during dark times._YBSJ4rCN-Fg_YT.mp4</name>
														<enabled>TRUE</enabled>
														<duration>18000</duration>
														<rate>
															<timebase>30</timebase>
															<ntsc>TRUE</ntsc>
														</rate>
														<start>2374</start>
														<end>2704</end>
														<in>8126</in>
														<out>8456</out>
														<pproTicksIn>68873271667200</pproTicksIn>
														<pproTicksOut>71670241843200</pproTicksOut>
														<alphatype>none</alphatype>
														<file id="file-172"/>
														<filter>
															<effect>
																<name>Basic Motion</name>
																<effectid>basic</effectid>
																<effectcategory>motion</effectcategory>
																<effecttype>motion</effecttype>
																<mediatype>video</mediatype>
																<pproBypass>false</pproBypass>
																<parameter authoringApp="PremierePro">
																	<parameterid>scale</parameterid>
																	<name>Scale</name>
																	<valuemin>0</valuemin>
																	<valuemax>1000</valuemax>
																	<value>179</value>
																</parameter>
																<parameter authoringApp="PremierePro">
																	<parameterid>rotation</parameterid>
																	<name>Rotation</name>
																	<valuemin>-8640</valuemin>
																	<valuemax>8640</valuemax>
																	<value>0</value>
																</parameter>
																<parameter authoringApp="PremierePro">
																	<parameterid>center</parameterid>
																	<name>Center</name>
																	<value>
																		<horiz>0</horiz>
																		<vert>0</vert>
																	</value>
																</parameter>
																<parameter authoringApp="PremierePro">
																	<parameterid>centerOffset</parameterid>
																	<name>Anchor Point</name>
																	<value>
																		<horiz>0</horiz>
																		<vert>0</vert>
																	</value>
																</parameter>
																<parameter authoringApp="PremierePro">
																	<parameterid>antiflicker</parameterid>
																	<name>Anti-flicker Filter</name>
																	<valuemin>0.0</valuemin>
																	<valuemax>1.0</valuemax>
																	<value>0</value>
																</parameter>
															</effect>
														</filter>
														<logginginfo>
															<description>Satisfaction, inspo, and relaxation during dark times.</description>
															<scene></scene>
															<shottake></shottake>
															<lognote>https://www.youtube.com/watch?v=YBSJ4rCN-Fg</lognote>
															<good></good>
															<originalvideofilename></originalvideofilename>
															<originalaudiofilename></originalaudiofilename>
														</logginginfo>
														<colorinfo>
															<lut></lut>
															<lut1></lut1>
															<asc_sop></asc_sop>
															<asc_sat></asc_sat>
															<lut2></lut2>
														</colorinfo>
														<labels>
															<label2>Iris</label2>
														</labels>
													</clipitem>
													<enabled>TRUE</enabled>
													<locked>FALSE</locked>
												</track>
												<track TL.SQTrackShy="0" TL.SQTrackExpandedHeight="25" TL.SQTrackExpanded="0" MZ.TrackTargeted="0">
													<clipitem id="clipitem-633">
														<masterclipid>masterclip-81</masterclipid>
														<name>Callen Schaub&amp;#10;</name>
														<enabled>TRUE</enabled>
														<duration>5844</duration>
														<rate>
															<timebase>30</timebase>
															<ntsc>TRUE</ntsc>
														</rate>
														<start>0</start>
														<end>2704</end>
														<in>0</in>
														<out>2704</out>
														<pproTicksIn>0</pproTicksIn>
														<pproTicksOut>22918204108800</pproTicksOut>
														<alphatype>straight</alphatype>
														<file id="file-81"/>
														<filter>
															<effect>
																<name>Basic Motion</name>
																<effectid>basic</effectid>
																<effectcategory>motion</effectcategory>
																<effecttype>motion</effecttype>
																<mediatype>video</mediatype>
																<pproBypass>false</pproBypass>
																<parameter authoringApp="PremierePro">
																	<parameterid>scale</parameterid>
																	<name>Scale</name>
																	<valuemin>0</valuemin>
																	<valuemax>1000</valuemax>
																	<value>150</value>
																</parameter>
																<parameter authoringApp="PremierePro">
																	<parameterid>rotation</parameterid>
																	<name>Rotation</name>
																	<valuemin>-8640</valuemin>
																	<valuemax>8640</valuemax>
																	<value>0</value>
																</parameter>
																<parameter authoringApp="PremierePro">
																	<parameterid>center</parameterid>
																	<name>Center</name>
																	<value>
																		<horiz>0</horiz>
																		<vert>0</vert>
																	</value>
																</parameter>
																<parameter authoringApp="PremierePro">
																	<parameterid>centerOffset</parameterid>
																	<name>Anchor Point</name>
																	<value>
																		<horiz>0</horiz>
																		<vert>0</vert>
																	</value>
																</parameter>
																<parameter authoringApp="PremierePro">
																	<parameterid>antiflicker</parameterid>
																	<name>Anti-flicker Filter</name>
																	<valuemin>0.0</valuemin>
																	<valuemax>1.0</valuemax>
																	<value>0</value>
																</parameter>
															</effect>
														</filter>
														<logginginfo>
															<description></description>
															<scene></scene>
															<shottake></shottake>
															<lognote></lognote>
															<good></good>
															<originalvideofilename></originalvideofilename>
															<originalaudiofilename></originalaudiofilename>
														</logginginfo>
														<colorinfo>
															<lut></lut>
															<lut1></lut1>
															<asc_sop></asc_sop>
															<asc_sat></asc_sat>
															<lut2></lut2>
														</colorinfo>
														<labels>
															<label2>Rose</label2>
														</labels>
													</clipitem>
													<enabled>TRUE</enabled>
													<locked>FALSE</locked>
												</track>
												<track TL.SQTrackShy="0" TL.SQTrackExpandedHeight="25" TL.SQTrackExpanded="0" MZ.TrackTargeted="0">
													<clipitem id="clipitem-634">
														<masterclipid>masterclip-106</masterclipid>
														<name>Bug and Lower Nest</name>
														<enabled>TRUE</enabled>
														<duration>14721</duration>
														<rate>
															<timebase>30</timebase>
															<ntsc>TRUE</ntsc>
														</rate>
														<start>0</start>
														<end>2704</end>
														<in>0</in>
														<out>2704</out>
														<pproTicksIn>0</pproTicksIn>
														<pproTicksOut>22918204108800</pproTicksOut>
														<sequence id="sequence-1"/>
														<labels>
															<label2>Cerulean</label2>
														</labels>
													</clipitem>
													<enabled>TRUE</enabled>
													<locked>FALSE</locked>
												</track>
											</video>
											<audio>
												<numOutputChannels>2</numOutputChannels>
												<format>
													<samplecharacteristics>
														<depth>16</depth>
														<samplerate>44100</samplerate>
													</samplecharacteristics>
												</format>
												<outputs>
													<group>
														<index>1</index>
														<numchannels>1</numchannels>
														<downmix>0</downmix>
														<channel>
															<index>1</index>
														</channel>
													</group>
													<group>
														<index>2</index>
														<numchannels>1</numchannels>
														<downmix>0</downmix>
														<channel>
															<index>2</index>
														</channel>
													</group>
												</outputs>
												<track TL.SQTrackAudioKeyframeStyle="0" TL.SQTrackShy="0" TL.SQTrackExpandedHeight="25" TL.SQTrackExpanded="0" MZ.TrackTargeted="1" PannerCurrentValue="0.5" PannerIsInverted="true" PannerStartKeyframe="-91445760000000000,0.5,0,0,0,0,0,0" PannerName="Balance" currentExplodedTrackIndex="0" totalExplodedTrackCount="2" premiereTrackType="Stereo">
													<enabled>TRUE</enabled>
													<locked>FALSE</locked>
													<filter>
														<effect>
															<name>Audio Levels</name>
															<effectid>audiolevels</effectid>
															<effectcategory>audiolevels</effectcategory>
															<effecttype>audiolevels</effecttype>
															<mediatype>audio</mediatype>
															<parameter authoringApp="PremierePro">
																<parameterid>level</parameterid>
																<name>Level</name>
																<valuemin>0</valuemin>
																<valuemax>3.98109</valuemax>
																<value>0.706272</value>
															</parameter>
														</effect>
													</filter>
													<outputchannelindex>1</outputchannelindex>
												</track>
												<track TL.SQTrackAudioKeyframeStyle="0" TL.SQTrackShy="0" TL.SQTrackExpandedHeight="25" TL.SQTrackExpanded="0" MZ.TrackTargeted="1" PannerCurrentValue="0.5" PannerIsInverted="true" PannerStartKeyframe="-91445760000000000,0.5,0,0,0,0,0,0" PannerName="Balance" currentExplodedTrackIndex="1" totalExplodedTrackCount="2" premiereTrackType="Stereo">
													<enabled>TRUE</enabled>
													<locked>FALSE</locked>
													<filter>
														<effect>
															<name>Audio Levels</name>
															<effectid>audiolevels</effectid>
															<effectcategory>audiolevels</effectcategory>
															<effecttype>audiolevels</effecttype>
															<mediatype>audio</mediatype>
															<parameter authoringApp="PremierePro">
																<parameterid>level</parameterid>
																<name>Level</name>
																<valuemin>0</valuemin>
																<valuemax>3.98109</valuemax>
																<value>0.706272</value>
															</parameter>
														</effect>
													</filter>
													<outputchannelindex>2</outputchannelindex>
												</track>
											</audio>
										</media>
										<timecode>
											<rate>
												<timebase>30</timebase>
												<ntsc>TRUE</ntsc>
											</rate>
											<string>00:00:00:00</string>
											<frame>0</frame>
											<displayformat>NDF</displayformat>
										</timecode>
										<labels>
											<label2>Forest</label2>
										</labels>
										<logginginfo>
											<description></description>
											<scene></scene>
											<shottake></shottake>
											<lognote></lognote>
											<good></good>
											<originalvideofilename></originalvideofilename>
											<originalaudiofilename></originalaudiofilename>
										</logginginfo>
									</sequence>
									<sequence id="sequence-66" TL.SQAudioVisibleBase="0" TL.SQVideoVisibleBase="0" TL.SQVisibleBaseTime="0" TL.SQAVDividerPosition="0.5" TL.SQHideShyTracks="0" TL.SQHeaderWidth="236" Monitor.ProgramZoomOut="20977276320000" Monitor.ProgramZoomIn="0" TL.SQTimePerPixel="0.13818516812528489" AM.TrackVScrollPosition="0" AM.TrackScrollPosition="0" MZ.EditLine="2093489798400" MZ.Sequence.PreviewFrameSizeHeight="1080" MZ.Sequence.PreviewFrameSizeWidth="1920" MZ.Sequence.AudioTimeDisplayFormat="200" MZ.Sequence.PreviewRenderingClassID="1297106761" MZ.Sequence.PreviewRenderingPresetCodec="1297107278" MZ.Sequence.PreviewRenderingPresetPath="EncoderPresets/SequencePreview/795454d9-d3c2-429d-9474-923ab13b7018/I-Frame Only MPEG.epr" MZ.Sequence.PreviewUseMaxRenderQuality="false" MZ.Sequence.PreviewUseMaxBitDepth="false" MZ.Sequence.EditingModeGUID="795454d9-d3c2-429d-9474-923ab13b7018" MZ.Sequence.VideoTimeDisplayFormat="103" MZ.WorkOutPoint="20977276320000" MZ.WorkInPoint="0" explodedTracks="true">
										<uuid>5dbdc151-00fb-4834-8d88-9f3c3c47a584</uuid>
										<duration>2475</duration>
										<rate>
											<timebase>30</timebase>
											<ntsc>TRUE</ntsc>
										</rate>
										<name>SAT_WINNI_1.5</name>
										<media>
											<video>
												<format>
													<samplecharacteristics>
														<rate>
															<timebase>30</timebase>
															<ntsc>TRUE</ntsc>
														</rate>
														<codec>
															<name>Apple ProRes 422</name>
															<appspecificdata>
																<appname>Final Cut Pro</appname>
																<appmanufacturer>Apple Inc.</appmanufacturer>
																<appversion>7.0</appversion>
																<data>
																	<qtcodec>
																		<codecname>Apple ProRes 422</codecname>
																		<codectypename>Apple ProRes 422</codectypename>
																		<codectypecode>apcn</codectypecode>
																		<codecvendorcode>appl</codecvendorcode>
																		<spatialquality>1024</spatialquality>
																		<temporalquality>0</temporalquality>
																		<keyframerate>0</keyframerate>
																		<datarate>0</datarate>
																	</qtcodec>
																</data>
															</appspecificdata>
														</codec>
														<width>1920</width>
														<height>1080</height>
														<anamorphic>FALSE</anamorphic>
														<pixelaspectratio>square</pixelaspectratio>
														<fielddominance>none</fielddominance>
														<colordepth>24</colordepth>
													</samplecharacteristics>
												</format>
												<track TL.SQTrackShy="0" TL.SQTrackExpandedHeight="25" TL.SQTrackExpanded="0" MZ.TrackTargeted="1">
													<clipitem id="clipitem-635">
														<masterclipid>masterclip-179</masterclipid>
														<name>(WINNI)_Watch a Shower Tile Installation from Start to Finish in Time Lapse. WINNI_0q1N42uRoQ0_YT.mp4</name>
														<enabled>TRUE</enabled>
														<duration>20328</duration>
														<rate>
															<timebase>30</timebase>
															<ntsc>TRUE</ntsc>
														</rate>
														<start>0</start>
														<end>655</end>
														<in>12625</in>
														<out>13280</out>
														<pproTicksIn>107005298400000</pproTicksIn>
														<pproTicksOut>112556860416000</pproTicksOut>
														<alphatype>none</alphatype>
														<pixelaspectratio>square</pixelaspectratio>
														<anamorphic>FALSE</anamorphic>
														<file id="file-173">
															<name>(WINNI)_Watch a Shower Tile Installation from Start to Finish in Time Lapse. WINNI_0q1N42uRoQ0_YT.mp4</name>
															<pathurl>file://localhost/Volumes/Satisfactum%20Satisfactorum/03_Weekly%20(Project%20Files,%20Main%20Segments)/OSTV/00_BACKUPS%20SLASH%20THE%20FUTURE/OSTV%2023-09-11/3_Raw%20Files/GDrive%20salvages/Construction/(WINNI)_Watch%20a%20Shower%20Tile%20Installation%20from%20Start%20to%20Finish%20in%20Time%20Lapse.%20WINNI_0q1N42uRoQ0_YT.mp4</pathurl>
															<rate>
																<timebase>30</timebase>
																<ntsc>FALSE</ntsc>
															</rate>
															<duration>20349</duration>
															<timecode>
																<rate>
																	<timebase>30</timebase>
																	<ntsc>FALSE</ntsc>
																</rate>
																<string>00:00:00:00</string>
																<frame>0</frame>
																<displayformat>NDF</displayformat>
															</timecode>
															<media>
																<video>
																	<samplecharacteristics>
																		<rate>
																			<timebase>30</timebase>
																			<ntsc>FALSE</ntsc>
																		</rate>
																		<width>1080</width>
																		<height>1920</height>
																		<anamorphic>FALSE</anamorphic>
																		<pixelaspectratio>square</pixelaspectratio>
																		<fielddominance>none</fielddominance>
																	</samplecharacteristics>
																</video>
																<audio>
																	<samplecharacteristics>
																		<depth>16</depth>
																		<samplerate>44100</samplerate>
																	</samplecharacteristics>
																	<channelcount>2</channelcount>
																</audio>
															</media>
														</file>
														<filter>
															<effect>
																<name>Basic Motion</name>
																<effectid>basic</effectid>
																<effectcategory>motion</effectcategory>
																<effecttype>motion</effecttype>
																<mediatype>video</mediatype>
																<pproBypass>false</pproBypass>
																<parameter authoringApp="PremierePro">
																	<parameterid>scale</parameterid>
																	<name>Scale</name>
																	<valuemin>0</valuemin>
																	<valuemax>1000</valuemax>
																	<value>358</value>
																</parameter>
																<parameter authoringApp="PremierePro">
																	<parameterid>rotation</parameterid>
																	<name>Rotation</name>
																	<valuemin>-8640</valuemin>
																	<valuemax>8640</valuemax>
																	<value>0</value>
																</parameter>
																<parameter authoringApp="PremierePro">
																	<parameterid>center</parameterid>
																	<name>Center</name>
																	<value>
																		<horiz>0</horiz>
																		<vert>-0.0552083</vert>
																	</value>
																</parameter>
																<parameter authoringApp="PremierePro">
																	<parameterid>centerOffset</parameterid>
																	<name>Anchor Point</name>
																	<value>
																		<horiz>0</horiz>
																		<vert>0</vert>
																	</value>
																</parameter>
																<parameter authoringApp="PremierePro">
																	<parameterid>antiflicker</parameterid>
																	<name>Anti-flicker Filter</name>
																	<valuemin>0.0</valuemin>
																	<valuemax>1.0</valuemax>
																	<value>0</value>
																</parameter>
															</effect>
														</filter>
														<filter>
															<effect>
																<name>Gaussian Blur</name>
																<effectid>Gaussian Blur</effectid>
																<effectcategory>Blur</effectcategory>
																<effecttype>motion</effecttype>
																<mediatype>video</mediatype>
																<pproBypass>false</pproBypass>
																<parameter authoringApp="PremierePro">
																	<parameterid>radius</parameterid>
																	<name>Radius</name>
																	<valuemin>0</valuemin>
																	<valuemax>100</valuemax>
																	<value>150</value>
																</parameter>
															</effect>
														</filter>
														<logginginfo>
															<description>Watch a Shower Tile Installation from Start to Finish in Time Lapse. WINNI</description>
															<scene></scene>
															<shottake></shottake>
															<lognote>https://www.youtube.com/watch?v=0q1N42uRoQ0</lognote>
															<good></good>
															<originalvideofilename></originalvideofilename>
															<originalaudiofilename></originalaudiofilename>
														</logginginfo>
														<colorinfo>
															<lut></lut>
															<lut1></lut1>
															<asc_sop></asc_sop>
															<asc_sat></asc_sat>
															<lut2></lut2>
														</colorinfo>
														<labels>
															<label2>Iris</label2>
														</labels>
													</clipitem>
													<clipitem id="clipitem-636">
														<masterclipid>masterclip-179</masterclipid>
														<name>(WINNI)_Watch a Shower Tile Installation from Start to Finish in Time Lapse. WINNI_0q1N42uRoQ0_YT.mp4</name>
														<enabled>TRUE</enabled>
														<duration>20328</duration>
														<rate>
															<timebase>30</timebase>
															<ntsc>TRUE</ntsc>
														</rate>
														<start>655</start>
														<end>772</end>
														<in>13320</in>
														<out>13437</out>
														<pproTicksIn>112895887104000</pproTicksIn>
														<pproTicksOut>113887540166400</pproTicksOut>
														<alphatype>none</alphatype>
														<file id="file-173"/>
														<filter>
															<effect>
																<name>Basic Motion</name>
																<effectid>basic</effectid>
																<effectcategory>motion</effectcategory>
																<effecttype>motion</effecttype>
																<mediatype>video</mediatype>
																<pproBypass>false</pproBypass>
																<parameter authoringApp="PremierePro">
																	<parameterid>scale</parameterid>
																	<name>Scale</name>
																	<valuemin>0</valuemin>
																	<valuemax>1000</valuemax>
																	<value>358</value>
																</parameter>
																<parameter authoringApp="PremierePro">
																	<parameterid>rotation</parameterid>
																	<name>Rotation</name>
																	<valuemin>-8640</valuemin>
																	<valuemax>8640</valuemax>
																	<value>0</value>
																</parameter>
																<parameter authoringApp="PremierePro">
																	<parameterid>center</parameterid>
																	<name>Center</name>
																	<value>
																		<horiz>0</horiz>
																		<vert>-0.0552083</vert>
																	</value>
																</parameter>
																<parameter authoringApp="PremierePro">
																	<parameterid>centerOffset</parameterid>
																	<name>Anchor Point</name>
																	<value>
																		<horiz>0</horiz>
																		<vert>0</vert>
																	</value>
																</parameter>
																<parameter authoringApp="PremierePro">
																	<parameterid>antiflicker</parameterid>
																	<name>Anti-flicker Filter</name>
																	<valuemin>0.0</valuemin>
																	<valuemax>1.0</valuemax>
																	<value>0</value>
																</parameter>
															</effect>
														</filter>
														<filter>
															<effect>
																<name>Gaussian Blur</name>
																<effectid>Gaussian Blur</effectid>
																<effectcategory>Blur</effectcategory>
																<effecttype>motion</effecttype>
																<mediatype>video</mediatype>
																<pproBypass>false</pproBypass>
																<parameter authoringApp="PremierePro">
																	<parameterid>radius</parameterid>
																	<name>Radius</name>
																	<valuemin>0</valuemin>
																	<valuemax>100</valuemax>
																	<value>150</value>
																</parameter>
															</effect>
														</filter>
														<logginginfo>
															<description>Watch a Shower Tile Installation from Start to Finish in Time Lapse. WINNI</description>
															<scene></scene>
															<shottake></shottake>
															<lognote>https://www.youtube.com/watch?v=0q1N42uRoQ0</lognote>
															<good></good>
															<originalvideofilename></originalvideofilename>
															<originalaudiofilename></originalaudiofilename>
														</logginginfo>
														<colorinfo>
															<lut></lut>
															<lut1></lut1>
															<asc_sop></asc_sop>
															<asc_sat></asc_sat>
															<lut2></lut2>
														</colorinfo>
														<labels>
															<label2>Iris</label2>
														</labels>
													</clipitem>
													<clipitem id="clipitem-637">
														<masterclipid>masterclip-179</masterclipid>
														<name>(WINNI)_Watch a Shower Tile Installation from Start to Finish in Time Lapse. WINNI_0q1N42uRoQ0_YT.mp4</name>
														<enabled>TRUE</enabled>
														<duration>20328</duration>
														<rate>
															<timebase>30</timebase>
															<ntsc>TRUE</ntsc>
														</rate>
														<start>772</start>
														<end>1464</end>
														<in>13486</in>
														<out>14178</out>
														<pproTicksIn>114302847859200</pproTicksIn>
														<pproTicksOut>120168009561600</pproTicksOut>
														<alphatype>none</alphatype>
														<file id="file-173"/>
														<filter>
															<effect>
																<name>Basic Motion</name>
																<effectid>basic</effectid>
																<effectcategory>motion</effectcategory>
																<effecttype>motion</effecttype>
																<mediatype>video</mediatype>
																<pproBypass>false</pproBypass>
																<parameter authoringApp="PremierePro">
																	<parameterid>scale</parameterid>
																	<name>Scale</name>
																	<valuemin>0</valuemin>
																	<valuemax>1000</valuemax>
																	<value>358</value>
																</parameter>
																<parameter authoringApp="PremierePro">
																	<parameterid>rotation</parameterid>
																	<name>Rotation</name>
																	<valuemin>-8640</valuemin>
																	<valuemax>8640</valuemax>
																	<value>0</value>
																</parameter>
																<parameter authoringApp="PremierePro">
																	<parameterid>center</parameterid>
																	<name>Center</name>
																	<value>
																		<horiz>0</horiz>
																		<vert>-0.0552083</vert>
																	</value>
																</parameter>
																<parameter authoringApp="PremierePro">
																	<parameterid>centerOffset</parameterid>
																	<name>Anchor Point</name>
																	<value>
																		<horiz>0</horiz>
																		<vert>0</vert>
																	</value>
																</parameter>
																<parameter authoringApp="PremierePro">
																	<parameterid>antiflicker</parameterid>
																	<name>Anti-flicker Filter</name>
																	<valuemin>0.0</valuemin>
																	<valuemax>1.0</valuemax>
																	<value>0</value>
																</parameter>
															</effect>
														</filter>
														<filter>
															<effect>
																<name>Gaussian Blur</name>
																<effectid>Gaussian Blur</effectid>
																<effectcategory>Blur</effectcategory>
																<effecttype>motion</effecttype>
																<mediatype>video</mediatype>
																<pproBypass>false</pproBypass>
																<parameter authoringApp="PremierePro">
																	<parameterid>radius</parameterid>
																	<name>Radius</name>
																	<valuemin>0</valuemin>
																	<valuemax>100</valuemax>
																	<value>150</value>
																</parameter>
															</effect>
														</filter>
														<logginginfo>
															<description>Watch a Shower Tile Installation from Start to Finish in Time Lapse. WINNI</description>
															<scene></scene>
															<shottake></shottake>
															<lognote>https://www.youtube.com/watch?v=0q1N42uRoQ0</lognote>
															<good></good>
															<originalvideofilename></originalvideofilename>
															<originalaudiofilename></originalaudiofilename>
														</logginginfo>
														<colorinfo>
															<lut></lut>
															<lut1></lut1>
															<asc_sop></asc_sop>
															<asc_sat></asc_sat>
															<lut2></lut2>
														</colorinfo>
														<labels>
															<label2>Iris</label2>
														</labels>
													</clipitem>
													<clipitem id="clipitem-638">
														<masterclipid>masterclip-179</masterclipid>
														<name>(WINNI)_Watch a Shower Tile Installation from Start to Finish in Time Lapse. WINNI_0q1N42uRoQ0_YT.mp4</name>
														<enabled>TRUE</enabled>
														<duration>20328</duration>
														<rate>
															<timebase>30</timebase>
															<ntsc>TRUE</ntsc>
														</rate>
														<start>1464</start>
														<end>1491</end>
														<in>14250</in>
														<out>14277</out>
														<pproTicksIn>120778257600000</pproTicksIn>
														<pproTicksOut>121007100614400</pproTicksOut>
														<alphatype>none</alphatype>
														<file id="file-173"/>
														<filter>
															<effect>
																<name>Basic Motion</name>
																<effectid>basic</effectid>
																<effectcategory>motion</effectcategory>
																<effecttype>motion</effecttype>
																<mediatype>video</mediatype>
																<pproBypass>false</pproBypass>
																<parameter authoringApp="PremierePro">
																	<parameterid>scale</parameterid>
																	<name>Scale</name>
																	<valuemin>0</valuemin>
																	<valuemax>1000</valuemax>
																	<value>358</value>
																</parameter>
																<parameter authoringApp="PremierePro">
																	<parameterid>rotation</parameterid>
																	<name>Rotation</name>
																	<valuemin>-8640</valuemin>
																	<valuemax>8640</valuemax>
																	<value>0</value>
																</parameter>
																<parameter authoringApp="PremierePro">
																	<parameterid>center</parameterid>
																	<name>Center</name>
																	<value>
																		<horiz>0</horiz>
																		<vert>-0.0552083</vert>
																	</value>
																</parameter>
																<parameter authoringApp="PremierePro">
																	<parameterid>centerOffset</parameterid>
																	<name>Anchor Point</name>
																	<value>
																		<horiz>0</horiz>
																		<vert>0</vert>
																	</value>
																</parameter>
																<parameter authoringApp="PremierePro">
																	<parameterid>antiflicker</parameterid>
																	<name>Anti-flicker Filter</name>
																	<valuemin>0.0</valuemin>
																	<valuemax>1.0</valuemax>
																	<value>0</value>
																</parameter>
															</effect>
														</filter>
														<filter>
															<effect>
																<name>Gaussian Blur</name>
																<effectid>Gaussian Blur</effectid>
																<effectcategory>Blur</effectcategory>
																<effecttype>motion</effecttype>
																<mediatype>video</mediatype>
																<pproBypass>false</pproBypass>
																<parameter authoringApp="PremierePro">
																	<parameterid>radius</parameterid>
																	<name>Radius</name>
																	<valuemin>0</valuemin>
																	<valuemax>100</valuemax>
																	<value>150</value>
																</parameter>
															</effect>
														</filter>
														<logginginfo>
															<description>Watch a Shower Tile Installation from Start to Finish in Time Lapse. WINNI</description>
															<scene></scene>
															<shottake></shottake>
															<lognote>https://www.youtube.com/watch?v=0q1N42uRoQ0</lognote>
															<good></good>
															<originalvideofilename></originalvideofilename>
															<originalaudiofilename></originalaudiofilename>
														</logginginfo>
														<colorinfo>
															<lut></lut>
															<lut1></lut1>
															<asc_sop></asc_sop>
															<asc_sat></asc_sat>
															<lut2></lut2>
														</colorinfo>
														<labels>
															<label2>Iris</label2>
														</labels>
													</clipitem>
													<clipitem id="clipitem-639">
														<masterclipid>masterclip-179</masterclipid>
														<name>(WINNI)_Watch a Shower Tile Installation from Start to Finish in Time Lapse. WINNI_0q1N42uRoQ0_YT.mp4</name>
														<enabled>TRUE</enabled>
														<duration>20328</duration>
														<rate>
															<timebase>30</timebase>
															<ntsc>TRUE</ntsc>
														</rate>
														<start>1491</start>
														<end>2008</end>
														<in>14333</in>
														<out>14850</out>
														<pproTicksIn>121481737977600</pproTicksIn>
														<pproTicksOut>125863657920000</pproTicksOut>
														<alphatype>none</alphatype>
														<file id="file-173"/>
														<filter>
															<effect>
																<name>Basic Motion</name>
																<effectid>basic</effectid>
																<effectcategory>motion</effectcategory>
																<effecttype>motion</effecttype>
																<mediatype>video</mediatype>
																<pproBypass>false</pproBypass>
																<parameter authoringApp="PremierePro">
																	<parameterid>scale</parameterid>
																	<name>Scale</name>
																	<valuemin>0</valuemin>
																	<valuemax>1000</valuemax>
																	<value>358</value>
																</parameter>
																<parameter authoringApp="PremierePro">
																	<parameterid>rotation</parameterid>
																	<name>Rotation</name>
																	<valuemin>-8640</valuemin>
																	<valuemax>8640</valuemax>
																	<value>0</value>
																</parameter>
																<parameter authoringApp="PremierePro">
																	<parameterid>center</parameterid>
																	<name>Center</name>
																	<value>
																		<horiz>0</horiz>
																		<vert>-0.0552083</vert>
																	</value>
																</parameter>
																<parameter authoringApp="PremierePro">
																	<parameterid>centerOffset</parameterid>
																	<name>Anchor Point</name>
																	<value>
																		<horiz>0</horiz>
																		<vert>0</vert>
																	</value>
																</parameter>
																<parameter authoringApp="PremierePro">
																	<parameterid>antiflicker</parameterid>
																	<name>Anti-flicker Filter</name>
																	<valuemin>0.0</valuemin>
																	<valuemax>1.0</valuemax>
																	<value>0</value>
																</parameter>
															</effect>
														</filter>
														<filter>
															<effect>
																<name>Gaussian Blur</name>
																<effectid>Gaussian Blur</effectid>
																<effectcategory>Blur</effectcategory>
																<effecttype>motion</effecttype>
																<mediatype>video</mediatype>
																<pproBypass>false</pproBypass>
																<parameter authoringApp="PremierePro">
																	<parameterid>radius</parameterid>
																	<name>Radius</name>
																	<valuemin>0</valuemin>
																	<valuemax>100</valuemax>
																	<value>150</value>
																</parameter>
															</effect>
														</filter>
														<logginginfo>
															<description>Watch a Shower Tile Installation from Start to Finish in Time Lapse. WINNI</description>
															<scene></scene>
															<shottake></shottake>
															<lognote>https://www.youtube.com/watch?v=0q1N42uRoQ0</lognote>
															<good></good>
															<originalvideofilename></originalvideofilename>
															<originalaudiofilename></originalaudiofilename>
														</logginginfo>
														<colorinfo>
															<lut></lut>
															<lut1></lut1>
															<asc_sop></asc_sop>
															<asc_sat></asc_sat>
															<lut2></lut2>
														</colorinfo>
														<labels>
															<label2>Iris</label2>
														</labels>
													</clipitem>
													<clipitem id="clipitem-640">
														<masterclipid>masterclip-179</masterclipid>
														<name>(WINNI)_Watch a Shower Tile Installation from Start to Finish in Time Lapse. WINNI_0q1N42uRoQ0_YT.mp4</name>
														<enabled>TRUE</enabled>
														<duration>20328</duration>
														<rate>
															<timebase>30</timebase>
															<ntsc>TRUE</ntsc>
														</rate>
														<start>2008</start>
														<end>2275</end>
														<in>14916</in>
														<out>15183</out>
														<pproTicksIn>126423051955200</pproTicksIn>
														<pproTicksOut>128686055097600</pproTicksOut>
														<alphatype>none</alphatype>
														<file id="file-173"/>
														<filter>
															<effect>
																<name>Basic Motion</name>
																<effectid>basic</effectid>
																<effectcategory>motion</effectcategory>
																<effecttype>motion</effecttype>
																<mediatype>video</mediatype>
																<pproBypass>false</pproBypass>
																<parameter authoringApp="PremierePro">
																	<parameterid>scale</parameterid>
																	<name>Scale</name>
																	<valuemin>0</valuemin>
																	<valuemax>1000</valuemax>
																	<value>358</value>
																</parameter>
																<parameter authoringApp="PremierePro">
																	<parameterid>rotation</parameterid>
																	<name>Rotation</name>
																	<valuemin>-8640</valuemin>
																	<valuemax>8640</valuemax>
																	<value>0</value>
																</parameter>
																<parameter authoringApp="PremierePro">
																	<parameterid>center</parameterid>
																	<name>Center</name>
																	<value>
																		<horiz>0</horiz>
																		<vert>-0.0552083</vert>
																	</value>
																</parameter>
																<parameter authoringApp="PremierePro">
																	<parameterid>centerOffset</parameterid>
																	<name>Anchor Point</name>
																	<value>
																		<horiz>0</horiz>
																		<vert>0</vert>
																	</value>
																</parameter>
																<parameter authoringApp="PremierePro">
																	<parameterid>antiflicker</parameterid>
																	<name>Anti-flicker Filter</name>
																	<valuemin>0.0</valuemin>
																	<valuemax>1.0</valuemax>
																	<value>0</value>
																</parameter>
															</effect>
														</filter>
														<filter>
															<effect>
																<name>Gaussian Blur</name>
																<effectid>Gaussian Blur</effectid>
																<effectcategory>Blur</effectcategory>
																<effecttype>motion</effecttype>
																<mediatype>video</mediatype>
																<pproBypass>false</pproBypass>
																<parameter authoringApp="PremierePro">
																	<parameterid>radius</parameterid>
																	<name>Radius</name>
																	<valuemin>0</valuemin>
																	<valuemax>100</valuemax>
																	<value>150</value>
																</parameter>
															</effect>
														</filter>
														<logginginfo>
															<description>Watch a Shower Tile Installation from Start to Finish in Time Lapse. WINNI</description>
															<scene></scene>
															<shottake></shottake>
															<lognote>https://www.youtube.com/watch?v=0q1N42uRoQ0</lognote>
															<good></good>
															<originalvideofilename></originalvideofilename>
															<originalaudiofilename></originalaudiofilename>
														</logginginfo>
														<colorinfo>
															<lut></lut>
															<lut1></lut1>
															<asc_sop></asc_sop>
															<asc_sat></asc_sat>
															<lut2></lut2>
														</colorinfo>
														<labels>
															<label2>Iris</label2>
														</labels>
													</clipitem>
													<clipitem id="clipitem-641">
														<masterclipid>masterclip-179</masterclipid>
														<name>(WINNI)_Watch a Shower Tile Installation from Start to Finish in Time Lapse. WINNI_0q1N42uRoQ0_YT.mp4</name>
														<enabled>TRUE</enabled>
														<duration>20328</duration>
														<rate>
															<timebase>30</timebase>
															<ntsc>TRUE</ntsc>
														</rate>
														<start>2275</start>
														<end>2387</end>
														<in>15251</in>
														<out>15363</out>
														<pproTicksIn>129262400467200</pproTicksIn>
														<pproTicksOut>130211675193600</pproTicksOut>
														<alphatype>none</alphatype>
														<file id="file-173"/>
														<filter>
															<effect>
																<name>Basic Motion</name>
																<effectid>basic</effectid>
																<effectcategory>motion</effectcategory>
																<effecttype>motion</effecttype>
																<mediatype>video</mediatype>
																<pproBypass>false</pproBypass>
																<parameter authoringApp="PremierePro">
																	<parameterid>scale</parameterid>
																	<name>Scale</name>
																	<valuemin>0</valuemin>
																	<valuemax>1000</valuemax>
																	<value>358</value>
																</parameter>
																<parameter authoringApp="PremierePro">
																	<parameterid>rotation</parameterid>
																	<name>Rotation</name>
																	<valuemin>-8640</valuemin>
																	<valuemax>8640</valuemax>
																	<value>0</value>
																</parameter>
																<parameter authoringApp="PremierePro">
																	<parameterid>center</parameterid>
																	<name>Center</name>
																	<value>
																		<horiz>0</horiz>
																		<vert>-0.0552083</vert>
																	</value>
																</parameter>
																<parameter authoringApp="PremierePro">
																	<parameterid>centerOffset</parameterid>
																	<name>Anchor Point</name>
																	<value>
																		<horiz>0</horiz>
																		<vert>0</vert>
																	</value>
																</parameter>
																<parameter authoringApp="PremierePro">
																	<parameterid>antiflicker</parameterid>
																	<name>Anti-flicker Filter</name>
																	<valuemin>0.0</valuemin>
																	<valuemax>1.0</valuemax>
																	<value>0</value>
																</parameter>
															</effect>
														</filter>
														<filter>
															<effect>
																<name>Gaussian Blur</name>
																<effectid>Gaussian Blur</effectid>
																<effectcategory>Blur</effectcategory>
																<effecttype>motion</effecttype>
																<mediatype>video</mediatype>
																<pproBypass>false</pproBypass>
																<parameter authoringApp="PremierePro">
																	<parameterid>radius</parameterid>
																	<name>Radius</name>
																	<valuemin>0</valuemin>
																	<valuemax>100</valuemax>
																	<value>150</value>
																</parameter>
															</effect>
														</filter>
														<logginginfo>
															<description>Watch a Shower Tile Installation from Start to Finish in Time Lapse. WINNI</description>
															<scene></scene>
															<shottake></shottake>
															<lognote>https://www.youtube.com/watch?v=0q1N42uRoQ0</lognote>
															<good></good>
															<originalvideofilename></originalvideofilename>
															<originalaudiofilename></originalaudiofilename>
														</logginginfo>
														<colorinfo>
															<lut></lut>
															<lut1></lut1>
															<asc_sop></asc_sop>
															<asc_sat></asc_sat>
															<lut2></lut2>
														</colorinfo>
														<labels>
															<label2>Iris</label2>
														</labels>
													</clipitem>
													<clipitem id="clipitem-642">
														<masterclipid>masterclip-179</masterclipid>
														<name>(WINNI)_Watch a Shower Tile Installation from Start to Finish in Time Lapse. WINNI_0q1N42uRoQ0_YT.mp4</name>
														<enabled>TRUE</enabled>
														<duration>20328</duration>
														<rate>
															<timebase>30</timebase>
															<ntsc>TRUE</ntsc>
														</rate>
														<start>2387</start>
														<end>2475</end>
														<in>15467</in>
														<out>15555</out>
														<pproTicksIn>131093144582400</pproTicksIn>
														<pproTicksOut>131839003296000</pproTicksOut>
														<alphatype>none</alphatype>
														<file id="file-173"/>
														<filter>
															<effect>
																<name>Basic Motion</name>
																<effectid>basic</effectid>
																<effectcategory>motion</effectcategory>
																<effecttype>motion</effecttype>
																<mediatype>video</mediatype>
																<pproBypass>false</pproBypass>
																<parameter authoringApp="PremierePro">
																	<parameterid>scale</parameterid>
																	<name>Scale</name>
																	<valuemin>0</valuemin>
																	<valuemax>1000</valuemax>
																	<value>358</value>
																</parameter>
																<parameter authoringApp="PremierePro">
																	<parameterid>rotation</parameterid>
																	<name>Rotation</name>
																	<valuemin>-8640</valuemin>
																	<valuemax>8640</valuemax>
																	<value>0</value>
																</parameter>
																<parameter authoringApp="PremierePro">
																	<parameterid>center</parameterid>
																	<name>Center</name>
																	<value>
																		<horiz>0</horiz>
																		<vert>-0.0552083</vert>
																	</value>
																</parameter>
																<parameter authoringApp="PremierePro">
																	<parameterid>centerOffset</parameterid>
																	<name>Anchor Point</name>
																	<value>
																		<horiz>0</horiz>
																		<vert>0</vert>
																	</value>
																</parameter>
																<parameter authoringApp="PremierePro">
																	<parameterid>antiflicker</parameterid>
																	<name>Anti-flicker Filter</name>
																	<valuemin>0.0</valuemin>
																	<valuemax>1.0</valuemax>
																	<value>0</value>
																</parameter>
															</effect>
														</filter>
														<filter>
															<effect>
																<name>Gaussian Blur</name>
																<effectid>Gaussian Blur</effectid>
																<effectcategory>Blur</effectcategory>
																<effecttype>motion</effecttype>
																<mediatype>video</mediatype>
																<pproBypass>false</pproBypass>
																<parameter authoringApp="PremierePro">
																	<parameterid>radius</parameterid>
																	<name>Radius</name>
																	<valuemin>0</valuemin>
																	<valuemax>100</valuemax>
																	<value>150</value>
																</parameter>
															</effect>
														</filter>
														<logginginfo>
															<description>Watch a Shower Tile Installation from Start to Finish in Time Lapse. WINNI</description>
															<scene></scene>
															<shottake></shottake>
															<lognote>https://www.youtube.com/watch?v=0q1N42uRoQ0</lognote>
															<good></good>
															<originalvideofilename></originalvideofilename>
															<originalaudiofilename></originalaudiofilename>
														</logginginfo>
														<colorinfo>
															<lut></lut>
															<lut1></lut1>
															<asc_sop></asc_sop>
															<asc_sat></asc_sat>
															<lut2></lut2>
														</colorinfo>
														<labels>
															<label2>Iris</label2>
														</labels>
													</clipitem>
													<enabled>TRUE</enabled>
													<locked>FALSE</locked>
												</track>
												<track TL.SQTrackShy="0" TL.SQTrackExpandedHeight="25" TL.SQTrackExpanded="0" MZ.TrackTargeted="0">
													<clipitem id="clipitem-643">
														<masterclipid>masterclip-179</masterclipid>
														<name>(WINNI)_Watch a Shower Tile Installation from Start to Finish in Time Lapse. WINNI_0q1N42uRoQ0_YT.mp4</name>
														<enabled>TRUE</enabled>
														<duration>20328</duration>
														<rate>
															<timebase>30</timebase>
															<ntsc>TRUE</ntsc>
														</rate>
														<start>0</start>
														<end>655</end>
														<in>12625</in>
														<out>13280</out>
														<pproTicksIn>107005298400000</pproTicksIn>
														<pproTicksOut>112556860416000</pproTicksOut>
														<alphatype>none</alphatype>
														<file id="file-173"/>
														<filter>
															<effect>
																<name>Basic Motion</name>
																<effectid>basic</effectid>
																<effectcategory>motion</effectcategory>
																<effecttype>motion</effecttype>
																<mediatype>video</mediatype>
																<pproBypass>false</pproBypass>
																<parameter authoringApp="PremierePro">
																	<parameterid>scale</parameterid>
																	<name>Scale</name>
																	<valuemin>0</valuemin>
																	<valuemax>1000</valuemax>
																	<value>178</value>
																</parameter>
																<parameter authoringApp="PremierePro">
																	<parameterid>rotation</parameterid>
																	<name>Rotation</name>
																	<valuemin>-8640</valuemin>
																	<valuemax>8640</valuemax>
																	<value>0</value>
																</parameter>
																<parameter authoringApp="PremierePro">
																	<parameterid>center</parameterid>
																	<name>Center</name>
																	<value>
																		<horiz>0</horiz>
																		<vert>-0.0552083</vert>
																	</value>
																</parameter>
																<parameter authoringApp="PremierePro">
																	<parameterid>centerOffset</parameterid>
																	<name>Anchor Point</name>
																	<value>
																		<horiz>0</horiz>
																		<vert>0</vert>
																	</value>
																</parameter>
																<parameter authoringApp="PremierePro">
																	<parameterid>antiflicker</parameterid>
																	<name>Anti-flicker Filter</name>
																	<valuemin>0.0</valuemin>
																	<valuemax>1.0</valuemax>
																	<value>0</value>
																</parameter>
															</effect>
														</filter>
														<logginginfo>
															<description>Watch a Shower Tile Installation from Start to Finish in Time Lapse. WINNI</description>
															<scene></scene>
															<shottake></shottake>
															<lognote>https://www.youtube.com/watch?v=0q1N42uRoQ0</lognote>
															<good></good>
															<originalvideofilename></originalvideofilename>
															<originalaudiofilename></originalaudiofilename>
														</logginginfo>
														<colorinfo>
															<lut></lut>
															<lut1></lut1>
															<asc_sop></asc_sop>
															<asc_sat></asc_sat>
															<lut2></lut2>
														</colorinfo>
														<labels>
															<label2>Iris</label2>
														</labels>
													</clipitem>
													<clipitem id="clipitem-644">
														<masterclipid>masterclip-179</masterclipid>
														<name>(WINNI)_Watch a Shower Tile Installation from Start to Finish in Time Lapse. WINNI_0q1N42uRoQ0_YT.mp4</name>
														<enabled>TRUE</enabled>
														<duration>20328</duration>
														<rate>
															<timebase>30</timebase>
															<ntsc>TRUE</ntsc>
														</rate>
														<start>655</start>
														<end>772</end>
														<in>13320</in>
														<out>13437</out>
														<pproTicksIn>112895887104000</pproTicksIn>
														<pproTicksOut>113887540166400</pproTicksOut>
														<alphatype>none</alphatype>
														<file id="file-173"/>
														<filter>
															<effect>
																<name>Basic Motion</name>
																<effectid>basic</effectid>
																<effectcategory>motion</effectcategory>
																<effecttype>motion</effecttype>
																<mediatype>video</mediatype>
																<pproBypass>false</pproBypass>
																<parameter authoringApp="PremierePro">
																	<parameterid>scale</parameterid>
																	<name>Scale</name>
																	<valuemin>0</valuemin>
																	<valuemax>1000</valuemax>
																	<value>178</value>
																</parameter>
																<parameter authoringApp="PremierePro">
																	<parameterid>rotation</parameterid>
																	<name>Rotation</name>
																	<valuemin>-8640</valuemin>
																	<valuemax>8640</valuemax>
																	<value>0</value>
																</parameter>
																<parameter authoringApp="PremierePro">
																	<parameterid>center</parameterid>
																	<name>Center</name>
																	<value>
																		<horiz>0</horiz>
																		<vert>-0.0552083</vert>
																	</value>
																</parameter>
																<parameter authoringApp="PremierePro">
																	<parameterid>centerOffset</parameterid>
																	<name>Anchor Point</name>
																	<value>
																		<horiz>0</horiz>
																		<vert>0</vert>
																	</value>
																</parameter>
																<parameter authoringApp="PremierePro">
																	<parameterid>antiflicker</parameterid>
																	<name>Anti-flicker Filter</name>
																	<valuemin>0.0</valuemin>
																	<valuemax>1.0</valuemax>
																	<value>0</value>
																</parameter>
															</effect>
														</filter>
														<logginginfo>
															<description>Watch a Shower Tile Installation from Start to Finish in Time Lapse. WINNI</description>
															<scene></scene>
															<shottake></shottake>
															<lognote>https://www.youtube.com/watch?v=0q1N42uRoQ0</lognote>
															<good></good>
															<originalvideofilename></originalvideofilename>
															<originalaudiofilename></originalaudiofilename>
														</logginginfo>
														<colorinfo>
															<lut></lut>
															<lut1></lut1>
															<asc_sop></asc_sop>
															<asc_sat></asc_sat>
															<lut2></lut2>
														</colorinfo>
														<labels>
															<label2>Iris</label2>
														</labels>
													</clipitem>
													<clipitem id="clipitem-645">
														<masterclipid>masterclip-179</masterclipid>
														<name>(WINNI)_Watch a Shower Tile Installation from Start to Finish in Time Lapse. WINNI_0q1N42uRoQ0_YT.mp4</name>
														<enabled>TRUE</enabled>
														<duration>20328</duration>
														<rate>
															<timebase>30</timebase>
															<ntsc>TRUE</ntsc>
														</rate>
														<start>772</start>
														<end>1464</end>
														<in>13486</in>
														<out>14178</out>
														<pproTicksIn>114302847859200</pproTicksIn>
														<pproTicksOut>120168009561600</pproTicksOut>
														<alphatype>none</alphatype>
														<file id="file-173"/>
														<filter>
															<effect>
																<name>Basic Motion</name>
																<effectid>basic</effectid>
																<effectcategory>motion</effectcategory>
																<effecttype>motion</effecttype>
																<mediatype>video</mediatype>
																<pproBypass>false</pproBypass>
																<parameter authoringApp="PremierePro">
																	<parameterid>scale</parameterid>
																	<name>Scale</name>
																	<valuemin>0</valuemin>
																	<valuemax>1000</valuemax>
																	<value>178</value>
																</parameter>
																<parameter authoringApp="PremierePro">
																	<parameterid>rotation</parameterid>
																	<name>Rotation</name>
																	<valuemin>-8640</valuemin>
																	<valuemax>8640</valuemax>
																	<value>0</value>
																</parameter>
																<parameter authoringApp="PremierePro">
																	<parameterid>center</parameterid>
																	<name>Center</name>
																	<value>
																		<horiz>0</horiz>
																		<vert>-0.16875</vert>
																	</value>
																</parameter>
																<parameter authoringApp="PremierePro">
																	<parameterid>centerOffset</parameterid>
																	<name>Anchor Point</name>
																	<value>
																		<horiz>0</horiz>
																		<vert>0</vert>
																	</value>
																</parameter>
																<parameter authoringApp="PremierePro">
																	<parameterid>antiflicker</parameterid>
																	<name>Anti-flicker Filter</name>
																	<valuemin>0.0</valuemin>
																	<valuemax>1.0</valuemax>
																	<value>0</value>
																</parameter>
															</effect>
														</filter>
														<logginginfo>
															<description>Watch a Shower Tile Installation from Start to Finish in Time Lapse. WINNI</description>
															<scene></scene>
															<shottake></shottake>
															<lognote>https://www.youtube.com/watch?v=0q1N42uRoQ0</lognote>
															<good></good>
															<originalvideofilename></originalvideofilename>
															<originalaudiofilename></originalaudiofilename>
														</logginginfo>
														<colorinfo>
															<lut></lut>
															<lut1></lut1>
															<asc_sop></asc_sop>
															<asc_sat></asc_sat>
															<lut2></lut2>
														</colorinfo>
														<labels>
															<label2>Iris</label2>
														</labels>
													</clipitem>
													<clipitem id="clipitem-646">
														<masterclipid>masterclip-179</masterclipid>
														<name>(WINNI)_Watch a Shower Tile Installation from Start to Finish in Time Lapse. WINNI_0q1N42uRoQ0_YT.mp4</name>
														<enabled>TRUE</enabled>
														<duration>20328</duration>
														<rate>
															<timebase>30</timebase>
															<ntsc>TRUE</ntsc>
														</rate>
														<start>1464</start>
														<end>1491</end>
														<in>14250</in>
														<out>14277</out>
														<pproTicksIn>120778257600000</pproTicksIn>
														<pproTicksOut>121007100614400</pproTicksOut>
														<alphatype>none</alphatype>
														<file id="file-173"/>
														<filter>
															<effect>
																<name>Basic Motion</name>
																<effectid>basic</effectid>
																<effectcategory>motion</effectcategory>
																<effecttype>motion</effecttype>
																<mediatype>video</mediatype>
																<pproBypass>false</pproBypass>
																<parameter authoringApp="PremierePro">
																	<parameterid>scale</parameterid>
																	<name>Scale</name>
																	<valuemin>0</valuemin>
																	<valuemax>1000</valuemax>
																	<value>178</value>
																</parameter>
																<parameter authoringApp="PremierePro">
																	<parameterid>rotation</parameterid>
																	<name>Rotation</name>
																	<valuemin>-8640</valuemin>
																	<valuemax>8640</valuemax>
																	<value>0</value>
																</parameter>
																<parameter authoringApp="PremierePro">
																	<parameterid>center</parameterid>
																	<name>Center</name>
																	<value>
																		<horiz>0</horiz>
																		<vert>-0.16875</vert>
																	</value>
																</parameter>
																<parameter authoringApp="PremierePro">
																	<parameterid>centerOffset</parameterid>
																	<name>Anchor Point</name>
																	<value>
																		<horiz>0</horiz>
																		<vert>0</vert>
																	</value>
																</parameter>
																<parameter authoringApp="PremierePro">
																	<parameterid>antiflicker</parameterid>
																	<name>Anti-flicker Filter</name>
																	<valuemin>0.0</valuemin>
																	<valuemax>1.0</valuemax>
																	<value>0</value>
																</parameter>
															</effect>
														</filter>
														<logginginfo>
															<description>Watch a Shower Tile Installation from Start to Finish in Time Lapse. WINNI</description>
															<scene></scene>
															<shottake></shottake>
															<lognote>https://www.youtube.com/watch?v=0q1N42uRoQ0</lognote>
															<good></good>
															<originalvideofilename></originalvideofilename>
															<originalaudiofilename></originalaudiofilename>
														</logginginfo>
														<colorinfo>
															<lut></lut>
															<lut1></lut1>
															<asc_sop></asc_sop>
															<asc_sat></asc_sat>
															<lut2></lut2>
														</colorinfo>
														<labels>
															<label2>Iris</label2>
														</labels>
													</clipitem>
													<clipitem id="clipitem-647">
														<masterclipid>masterclip-179</masterclipid>
														<name>(WINNI)_Watch a Shower Tile Installation from Start to Finish in Time Lapse. WINNI_0q1N42uRoQ0_YT.mp4</name>
														<enabled>TRUE</enabled>
														<duration>20328</duration>
														<rate>
															<timebase>30</timebase>
															<ntsc>TRUE</ntsc>
														</rate>
														<start>1491</start>
														<end>2008</end>
														<in>14333</in>
														<out>14850</out>
														<pproTicksIn>121481737977600</pproTicksIn>
														<pproTicksOut>125863657920000</pproTicksOut>
														<alphatype>none</alphatype>
														<file id="file-173"/>
														<filter>
															<effect>
																<name>Basic Motion</name>
																<effectid>basic</effectid>
																<effectcategory>motion</effectcategory>
																<effecttype>motion</effecttype>
																<mediatype>video</mediatype>
																<pproBypass>false</pproBypass>
																<parameter authoringApp="PremierePro">
																	<parameterid>scale</parameterid>
																	<name>Scale</name>
																	<valuemin>0</valuemin>
																	<valuemax>1000</valuemax>
																	<value>178</value>
																</parameter>
																<parameter authoringApp="PremierePro">
																	<parameterid>rotation</parameterid>
																	<name>Rotation</name>
																	<valuemin>-8640</valuemin>
																	<valuemax>8640</valuemax>
																	<value>0</value>
																</parameter>
																<parameter authoringApp="PremierePro">
																	<parameterid>center</parameterid>
																	<name>Center</name>
																	<value>
																		<horiz>0</horiz>
																		<vert>-0.0963542</vert>
																	</value>
																</parameter>
																<parameter authoringApp="PremierePro">
																	<parameterid>centerOffset</parameterid>
																	<name>Anchor Point</name>
																	<value>
																		<horiz>0</horiz>
																		<vert>0</vert>
																	</value>
																</parameter>
																<parameter authoringApp="PremierePro">
																	<parameterid>antiflicker</parameterid>
																	<name>Anti-flicker Filter</name>
																	<valuemin>0.0</valuemin>
																	<valuemax>1.0</valuemax>
																	<value>0</value>
																</parameter>
															</effect>
														</filter>
														<logginginfo>
															<description>Watch a Shower Tile Installation from Start to Finish in Time Lapse. WINNI</description>
															<scene></scene>
															<shottake></shottake>
															<lognote>https://www.youtube.com/watch?v=0q1N42uRoQ0</lognote>
															<good></good>
															<originalvideofilename></originalvideofilename>
															<originalaudiofilename></originalaudiofilename>
														</logginginfo>
														<colorinfo>
															<lut></lut>
															<lut1></lut1>
															<asc_sop></asc_sop>
															<asc_sat></asc_sat>
															<lut2></lut2>
														</colorinfo>
														<labels>
															<label2>Iris</label2>
														</labels>
													</clipitem>
													<clipitem id="clipitem-648">
														<masterclipid>masterclip-179</masterclipid>
														<name>(WINNI)_Watch a Shower Tile Installation from Start to Finish in Time Lapse. WINNI_0q1N42uRoQ0_YT.mp4</name>
														<enabled>TRUE</enabled>
														<duration>20328</duration>
														<rate>
															<timebase>30</timebase>
															<ntsc>TRUE</ntsc>
														</rate>
														<start>2008</start>
														<end>2275</end>
														<in>14916</in>
														<out>15183</out>
														<pproTicksIn>126423051955200</pproTicksIn>
														<pproTicksOut>128686055097600</pproTicksOut>
														<alphatype>none</alphatype>
														<file id="file-173"/>
														<filter>
															<effect>
																<name>Basic Motion</name>
																<effectid>basic</effectid>
																<effectcategory>motion</effectcategory>
																<effecttype>motion</effecttype>
																<mediatype>video</mediatype>
																<pproBypass>false</pproBypass>
																<parameter authoringApp="PremierePro">
																	<parameterid>scale</parameterid>
																	<name>Scale</name>
																	<valuemin>0</valuemin>
																	<valuemax>1000</valuemax>
																	<value>178</value>
																</parameter>
																<parameter authoringApp="PremierePro">
																	<parameterid>rotation</parameterid>
																	<name>Rotation</name>
																	<valuemin>-8640</valuemin>
																	<valuemax>8640</valuemax>
																	<value>0</value>
																</parameter>
																<parameter authoringApp="PremierePro">
																	<parameterid>center</parameterid>
																	<name>Center</name>
																	<value>
																		<horiz>0</horiz>
																		<vert>0.0932292</vert>
																	</value>
																</parameter>
																<parameter authoringApp="PremierePro">
																	<parameterid>centerOffset</parameterid>
																	<name>Anchor Point</name>
																	<value>
																		<horiz>0</horiz>
																		<vert>0</vert>
																	</value>
																</parameter>
																<parameter authoringApp="PremierePro">
																	<parameterid>antiflicker</parameterid>
																	<name>Anti-flicker Filter</name>
																	<valuemin>0.0</valuemin>
																	<valuemax>1.0</valuemax>
																	<value>0</value>
																</parameter>
															</effect>
														</filter>
														<logginginfo>
															<description>Watch a Shower Tile Installation from Start to Finish in Time Lapse. WINNI</description>
															<scene></scene>
															<shottake></shottake>
															<lognote>https://www.youtube.com/watch?v=0q1N42uRoQ0</lognote>
															<good></good>
															<originalvideofilename></originalvideofilename>
															<originalaudiofilename></originalaudiofilename>
														</logginginfo>
														<colorinfo>
															<lut></lut>
															<lut1></lut1>
															<asc_sop></asc_sop>
															<asc_sat></asc_sat>
															<lut2></lut2>
														</colorinfo>
														<labels>
															<label2>Iris</label2>
														</labels>
													</clipitem>
													<clipitem id="clipitem-649">
														<masterclipid>masterclip-179</masterclipid>
														<name>(WINNI)_Watch a Shower Tile Installation from Start to Finish in Time Lapse. WINNI_0q1N42uRoQ0_YT.mp4</name>
														<enabled>TRUE</enabled>
														<duration>20328</duration>
														<rate>
															<timebase>30</timebase>
															<ntsc>TRUE</ntsc>
														</rate>
														<start>2275</start>
														<end>2387</end>
														<in>15251</in>
														<out>15363</out>
														<pproTicksIn>129262400467200</pproTicksIn>
														<pproTicksOut>130211675193600</pproTicksOut>
														<alphatype>none</alphatype>
														<file id="file-173"/>
														<filter>
															<effect>
																<name>Basic Motion</name>
																<effectid>basic</effectid>
																<effectcategory>motion</effectcategory>
																<effecttype>motion</effecttype>
																<mediatype>video</mediatype>
																<pproBypass>false</pproBypass>
																<parameter authoringApp="PremierePro">
																	<parameterid>scale</parameterid>
																	<name>Scale</name>
																	<valuemin>0</valuemin>
																	<valuemax>1000</valuemax>
																	<value>178</value>
																</parameter>
																<parameter authoringApp="PremierePro">
																	<parameterid>rotation</parameterid>
																	<name>Rotation</name>
																	<valuemin>-8640</valuemin>
																	<valuemax>8640</valuemax>
																	<value>0</value>
																</parameter>
																<parameter authoringApp="PremierePro">
																	<parameterid>center</parameterid>
																	<name>Center</name>
																	<value>
																		<horiz>0</horiz>
																		<vert>0.0932292</vert>
																	</value>
																</parameter>
																<parameter authoringApp="PremierePro">
																	<parameterid>centerOffset</parameterid>
																	<name>Anchor Point</name>
																	<value>
																		<horiz>0</horiz>
																		<vert>0</vert>
																	</value>
																</parameter>
																<parameter authoringApp="PremierePro">
																	<parameterid>antiflicker</parameterid>
																	<name>Anti-flicker Filter</name>
																	<valuemin>0.0</valuemin>
																	<valuemax>1.0</valuemax>
																	<value>0</value>
																</parameter>
															</effect>
														</filter>
														<logginginfo>
															<description>Watch a Shower Tile Installation from Start to Finish in Time Lapse. WINNI</description>
															<scene></scene>
															<shottake></shottake>
															<lognote>https://www.youtube.com/watch?v=0q1N42uRoQ0</lognote>
															<good></good>
															<originalvideofilename></originalvideofilename>
															<originalaudiofilename></originalaudiofilename>
														</logginginfo>
														<colorinfo>
															<lut></lut>
															<lut1></lut1>
															<asc_sop></asc_sop>
															<asc_sat></asc_sat>
															<lut2></lut2>
														</colorinfo>
														<labels>
															<label2>Iris</label2>
														</labels>
													</clipitem>
													<clipitem id="clipitem-650">
														<masterclipid>masterclip-179</masterclipid>
														<name>(WINNI)_Watch a Shower Tile Installation from Start to Finish in Time Lapse. WINNI_0q1N42uRoQ0_YT.mp4</name>
														<enabled>TRUE</enabled>
														<duration>20328</duration>
														<rate>
															<timebase>30</timebase>
															<ntsc>TRUE</ntsc>
														</rate>
														<start>2387</start>
														<end>2475</end>
														<in>15467</in>
														<out>15555</out>
														<pproTicksIn>131093144582400</pproTicksIn>
														<pproTicksOut>131839003296000</pproTicksOut>
														<alphatype>none</alphatype>
														<file id="file-173"/>
														<filter>
															<effect>
																<name>Basic Motion</name>
																<effectid>basic</effectid>
																<effectcategory>motion</effectcategory>
																<effecttype>motion</effecttype>
																<mediatype>video</mediatype>
																<pproBypass>false</pproBypass>
																<parameter authoringApp="PremierePro">
																	<parameterid>scale</parameterid>
																	<name>Scale</name>
																	<valuemin>0</valuemin>
																	<valuemax>1000</valuemax>
																	<value>178</value>
																</parameter>
																<parameter authoringApp="PremierePro">
																	<parameterid>rotation</parameterid>
																	<name>Rotation</name>
																	<valuemin>-8640</valuemin>
																	<valuemax>8640</valuemax>
																	<value>0</value>
																</parameter>
																<parameter authoringApp="PremierePro">
																	<parameterid>center</parameterid>
																	<name>Center</name>
																	<value>
																		<horiz>0</horiz>
																		<vert>0.0932292</vert>
																	</value>
																</parameter>
																<parameter authoringApp="PremierePro">
																	<parameterid>centerOffset</parameterid>
																	<name>Anchor Point</name>
																	<value>
																		<horiz>0</horiz>
																		<vert>0</vert>
																	</value>
																</parameter>
																<parameter authoringApp="PremierePro">
																	<parameterid>antiflicker</parameterid>
																	<name>Anti-flicker Filter</name>
																	<valuemin>0.0</valuemin>
																	<valuemax>1.0</valuemax>
																	<value>0</value>
																</parameter>
															</effect>
														</filter>
														<logginginfo>
															<description>Watch a Shower Tile Installation from Start to Finish in Time Lapse. WINNI</description>
															<scene></scene>
															<shottake></shottake>
															<lognote>https://www.youtube.com/watch?v=0q1N42uRoQ0</lognote>
															<good></good>
															<originalvideofilename></originalvideofilename>
															<originalaudiofilename></originalaudiofilename>
														</logginginfo>
														<colorinfo>
															<lut></lut>
															<lut1></lut1>
															<asc_sop></asc_sop>
															<asc_sat></asc_sat>
															<lut2></lut2>
														</colorinfo>
														<labels>
															<label2>Iris</label2>
														</labels>
													</clipitem>
													<enabled>TRUE</enabled>
													<locked>FALSE</locked>
												</track>
												<track TL.SQTrackShy="0" TL.SQTrackExpandedHeight="25" TL.SQTrackExpanded="0" MZ.TrackTargeted="0">
													<clipitem id="clipitem-651">
														<masterclipid>masterclip-82</masterclipid>
														<name>WINNI</name>
														<enabled>TRUE</enabled>
														<duration>5844</duration>
														<rate>
															<timebase>30</timebase>
															<ntsc>TRUE</ntsc>
														</rate>
														<start>0</start>
														<end>2475</end>
														<in>0</in>
														<out>2475</out>
														<pproTicksIn>0</pproTicksIn>
														<pproTicksOut>20977276320000</pproTicksOut>
														<alphatype>straight</alphatype>
														<file id="file-82"/>
														<filter>
															<effect>
																<name>Basic Motion</name>
																<effectid>basic</effectid>
																<effectcategory>motion</effectcategory>
																<effecttype>motion</effecttype>
																<mediatype>video</mediatype>
																<pproBypass>false</pproBypass>
																<parameter authoringApp="PremierePro">
																	<parameterid>scale</parameterid>
																	<name>Scale</name>
																	<valuemin>0</valuemin>
																	<valuemax>1000</valuemax>
																	<value>150</value>
																</parameter>
																<parameter authoringApp="PremierePro">
																	<parameterid>rotation</parameterid>
																	<name>Rotation</name>
																	<valuemin>-8640</valuemin>
																	<valuemax>8640</valuemax>
																	<value>0</value>
																</parameter>
																<parameter authoringApp="PremierePro">
																	<parameterid>center</parameterid>
																	<name>Center</name>
																	<value>
																		<horiz>0</horiz>
																		<vert>0</vert>
																	</value>
																</parameter>
																<parameter authoringApp="PremierePro">
																	<parameterid>centerOffset</parameterid>
																	<name>Anchor Point</name>
																	<value>
																		<horiz>0</horiz>
																		<vert>0</vert>
																	</value>
																</parameter>
																<parameter authoringApp="PremierePro">
																	<parameterid>antiflicker</parameterid>
																	<name>Anti-flicker Filter</name>
																	<valuemin>0.0</valuemin>
																	<valuemax>1.0</valuemax>
																	<value>0</value>
																</parameter>
															</effect>
														</filter>
														<logginginfo>
															<description></description>
															<scene></scene>
															<shottake></shottake>
															<lognote></lognote>
															<good></good>
															<originalvideofilename></originalvideofilename>
															<originalaudiofilename></originalaudiofilename>
														</logginginfo>
														<colorinfo>
															<lut></lut>
															<lut1></lut1>
															<asc_sop></asc_sop>
															<asc_sat></asc_sat>
															<lut2></lut2>
														</colorinfo>
														<labels>
															<label2>Rose</label2>
														</labels>
													</clipitem>
													<enabled>TRUE</enabled>
													<locked>FALSE</locked>
												</track>
												<track TL.SQTrackShy="0" TL.SQTrackExpandedHeight="25" TL.SQTrackExpanded="0" MZ.TrackTargeted="0">
													<clipitem id="clipitem-652">
														<masterclipid>masterclip-106</masterclipid>
														<name>Bug and Lower Nest</name>
														<enabled>TRUE</enabled>
														<duration>14721</duration>
														<rate>
															<timebase>30</timebase>
															<ntsc>TRUE</ntsc>
														</rate>
														<start>0</start>
														<end>2475</end>
														<in>0</in>
														<out>2475</out>
														<pproTicksIn>0</pproTicksIn>
														<pproTicksOut>20977276320000</pproTicksOut>
														<sequence id="sequence-1"/>
														<labels>
															<label2>Cerulean</label2>
														</labels>
													</clipitem>
													<enabled>TRUE</enabled>
													<locked>FALSE</locked>
												</track>
											</video>
											<audio>
												<numOutputChannels>2</numOutputChannels>
												<format>
													<samplecharacteristics>
														<depth>16</depth>
														<samplerate>44100</samplerate>
													</samplecharacteristics>
												</format>
												<outputs>
													<group>
														<index>1</index>
														<numchannels>1</numchannels>
														<downmix>0</downmix>
														<channel>
															<index>1</index>
														</channel>
													</group>
													<group>
														<index>2</index>
														<numchannels>1</numchannels>
														<downmix>0</downmix>
														<channel>
															<index>2</index>
														</channel>
													</group>
												</outputs>
												<track TL.SQTrackAudioKeyframeStyle="0" TL.SQTrackShy="0" TL.SQTrackExpandedHeight="25" TL.SQTrackExpanded="0" MZ.TrackTargeted="1" PannerCurrentValue="0.5" PannerIsInverted="true" PannerStartKeyframe="-91445760000000000,0.5,0,0,0,0,0,0" PannerName="Balance" currentExplodedTrackIndex="0" totalExplodedTrackCount="2" premiereTrackType="Stereo">
													<enabled>TRUE</enabled>
													<locked>FALSE</locked>
													<filter>
														<effect>
															<name>Audio Levels</name>
															<effectid>audiolevels</effectid>
															<effectcategory>audiolevels</effectcategory>
															<effecttype>audiolevels</effecttype>
															<mediatype>audio</mediatype>
															<parameter authoringApp="PremierePro">
																<parameterid>level</parameterid>
																<name>Level</name>
																<valuemin>0</valuemin>
																<valuemax>3.98109</valuemax>
																<value>0.706272</value>
															</parameter>
														</effect>
													</filter>
													<outputchannelindex>1</outputchannelindex>
												</track>
												<track TL.SQTrackAudioKeyframeStyle="0" TL.SQTrackShy="0" TL.SQTrackExpandedHeight="25" TL.SQTrackExpanded="0" MZ.TrackTargeted="1" PannerCurrentValue="0.5" PannerIsInverted="true" PannerStartKeyframe="-91445760000000000,0.5,0,0,0,0,0,0" PannerName="Balance" currentExplodedTrackIndex="1" totalExplodedTrackCount="2" premiereTrackType="Stereo">
													<enabled>TRUE</enabled>
													<locked>FALSE</locked>
													<filter>
														<effect>
															<name>Audio Levels</name>
															<effectid>audiolevels</effectid>
															<effectcategory>audiolevels</effectcategory>
															<effecttype>audiolevels</effecttype>
															<mediatype>audio</mediatype>
															<parameter authoringApp="PremierePro">
																<parameterid>level</parameterid>
																<name>Level</name>
																<valuemin>0</valuemin>
																<valuemax>3.98109</valuemax>
																<value>0.706272</value>
															</parameter>
														</effect>
													</filter>
													<outputchannelindex>2</outputchannelindex>
												</track>
											</audio>
										</media>
										<timecode>
											<rate>
												<timebase>30</timebase>
												<ntsc>TRUE</ntsc>
											</rate>
											<string>00:00:00:00</string>
											<frame>0</frame>
											<displayformat>NDF</displayformat>
										</timecode>
										<labels>
											<label2>Forest</label2>
										</labels>
										<logginginfo>
											<description></description>
											<scene></scene>
											<shottake></shottake>
											<lognote></lognote>
											<good></good>
											<originalvideofilename></originalvideofilename>
											<originalaudiofilename></originalaudiofilename>
										</logginginfo>
									</sequence>
									<sequence id="sequence-67" TL.SQAudioVisibleBase="0" TL.SQVideoVisibleBase="0" TL.SQVisibleBaseTime="0" TL.SQAVDividerPosition="0.5" TL.SQHideShyTracks="0" TL.SQHeaderWidth="236" Monitor.ProgramZoomOut="24308213529600" Monitor.ProgramZoomIn="0" TL.SQTimePerPixel="0.13818516812528489" AM.TrackVScrollPosition="0" AM.TrackScrollPosition="0" MZ.EditLine="7017852441600" MZ.Sequence.PreviewFrameSizeHeight="1080" MZ.Sequence.PreviewFrameSizeWidth="1920" MZ.Sequence.AudioTimeDisplayFormat="200" MZ.Sequence.PreviewRenderingClassID="1297106761" MZ.Sequence.PreviewRenderingPresetCodec="1297107278" MZ.Sequence.PreviewRenderingPresetPath="EncoderPresets/SequencePreview/795454d9-d3c2-429d-9474-923ab13b7018/I-Frame Only MPEG.epr" MZ.Sequence.PreviewUseMaxRenderQuality="false" MZ.Sequence.PreviewUseMaxBitDepth="false" MZ.Sequence.EditingModeGUID="795454d9-d3c2-429d-9474-923ab13b7018" MZ.Sequence.VideoTimeDisplayFormat="103" MZ.WorkOutPoint="30300510240000" MZ.WorkInPoint="0" explodedTracks="true">
										<uuid>4bbbaf02-23ff-436c-984a-513fcfa8726a</uuid>
										<duration>2868</duration>
										<rate>
											<timebase>30</timebase>
											<ntsc>TRUE</ntsc>
										</rate>
										<out>2868</out>
										<name>FND_smores_1.5</name>
										<media>
											<video>
												<format>
													<samplecharacteristics>
														<rate>
															<timebase>30</timebase>
															<ntsc>TRUE</ntsc>
														</rate>
														<codec>
															<name>Apple ProRes 422</name>
															<appspecificdata>
																<appname>Final Cut Pro</appname>
																<appmanufacturer>Apple Inc.</appmanufacturer>
																<appversion>7.0</appversion>
																<data>
																	<qtcodec>
																		<codecname>Apple ProRes 422</codecname>
																		<codectypename>Apple ProRes 422</codectypename>
																		<codectypecode>apcn</codectypecode>
																		<codecvendorcode>appl</codecvendorcode>
																		<spatialquality>1024</spatialquality>
																		<temporalquality>0</temporalquality>
																		<keyframerate>0</keyframerate>
																		<datarate>0</datarate>
																	</qtcodec>
																</data>
															</appspecificdata>
														</codec>
														<width>1920</width>
														<height>1080</height>
														<anamorphic>FALSE</anamorphic>
														<pixelaspectratio>square</pixelaspectratio>
														<fielddominance>none</fielddominance>
														<colordepth>24</colordepth>
													</samplecharacteristics>
												</format>
												<track TL.SQTrackShy="0" TL.SQTrackExpandedHeight="25" TL.SQTrackExpanded="0" MZ.TrackTargeted="1">
													<clipitem id="clipitem-653">
														<masterclipid>masterclip-180</masterclipid>
														<name>(sophiabakessometimes)_7109657964843142406_TT.mp4</name>
														<enabled>TRUE</enabled>
														<duration>1186</duration>
														<rate>
															<timebase>30</timebase>
															<ntsc>TRUE</ntsc>
														</rate>
														<start>0</start>
														<end>810</end>
														<in>12</in>
														<out>822</out>
														<pproTicksIn>101708006400</pproTicksIn>
														<pproTicksOut>6966998438400</pproTicksOut>
														<alphatype>none</alphatype>
														<pixelaspectratio>square</pixelaspectratio>
														<anamorphic>FALSE</anamorphic>
														<file id="file-174">
															<name>(sophiabakessometimes)_7109657964843142406_TT.mp4</name>
															<pathurl>file://localhost/Volumes/Satisfactum%20Satisfactorum/03_Weekly%20(Project%20Files,%20Main%20Segments)/OSTV/OSTV%2023-08-21/3_Raw%20Files/s'mores/(sophiabakessometimes)_7109657964843142406_TT.mp4</pathurl>
															<rate>
																<timebase>30</timebase>
																<ntsc>FALSE</ntsc>
															</rate>
															<duration>1188</duration>
															<timecode>
																<rate>
																	<timebase>30</timebase>
																	<ntsc>FALSE</ntsc>
																</rate>
																<string>00:00:00:00</string>
																<frame>0</frame>
																<displayformat>NDF</displayformat>
															</timecode>
															<media>
																<video>
																	<samplecharacteristics>
																		<rate>
																			<timebase>30</timebase>
																			<ntsc>FALSE</ntsc>
																		</rate>
																		<width>576</width>
																		<height>1024</height>
																		<anamorphic>FALSE</anamorphic>
																		<pixelaspectratio>square</pixelaspectratio>
																		<fielddominance>none</fielddominance>
																	</samplecharacteristics>
																</video>
																<audio>
																	<samplecharacteristics>
																		<depth>16</depth>
																		<samplerate>44100</samplerate>
																	</samplecharacteristics>
																	<channelcount>2</channelcount>
																</audio>
															</media>
														</file>
														<filter>
															<effect>
																<name>Basic Motion</name>
																<effectid>basic</effectid>
																<effectcategory>motion</effectcategory>
																<effecttype>motion</effecttype>
																<mediatype>video</mediatype>
																<pproBypass>false</pproBypass>
																<parameter authoringApp="PremierePro">
																	<parameterid>scale</parameterid>
																	<name>Scale</name>
																	<valuemin>0</valuemin>
																	<valuemax>1000</valuemax>
																	<value>361.469</value>
																</parameter>
																<parameter authoringApp="PremierePro">
																	<parameterid>rotation</parameterid>
																	<name>Rotation</name>
																	<valuemin>-8640</valuemin>
																	<valuemax>8640</valuemax>
																	<value>0</value>
																</parameter>
																<parameter authoringApp="PremierePro">
																	<parameterid>center</parameterid>
																	<name>Center</name>
																	<value>
																		<horiz>0</horiz>
																		<vert>0</vert>
																	</value>
																</parameter>
																<parameter authoringApp="PremierePro">
																	<parameterid>centerOffset</parameterid>
																	<name>Anchor Point</name>
																	<value>
																		<horiz>0</horiz>
																		<vert>0</vert>
																	</value>
																</parameter>
																<parameter authoringApp="PremierePro">
																	<parameterid>antiflicker</parameterid>
																	<name>Anti-flicker Filter</name>
																	<valuemin>0.0</valuemin>
																	<valuemax>1.0</valuemax>
																	<value>0</value>
																</parameter>
															</effect>
														</filter>
														<filter>
															<effect>
																<name>Gaussian Blur</name>
																<effectid>Gaussian Blur</effectid>
																<effectcategory>Blur</effectcategory>
																<effecttype>motion</effecttype>
																<mediatype>video</mediatype>
																<pproBypass>false</pproBypass>
																<parameter authoringApp="PremierePro">
																	<parameterid>radius</parameterid>
																	<name>Radius</name>
																	<valuemin>0</valuemin>
																	<valuemax>100</valuemax>
																	<value>150</value>
																</parameter>
															</effect>
														</filter>
														<logginginfo>
															<description></description>
															<scene></scene>
															<shottake></shottake>
															<lognote></lognote>
															<good></good>
															<originalvideofilename></originalvideofilename>
															<originalaudiofilename></originalaudiofilename>
														</logginginfo>
														<colorinfo>
															<lut></lut>
															<lut1></lut1>
															<asc_sop></asc_sop>
															<asc_sat></asc_sat>
															<lut2></lut2>
														</colorinfo>
														<labels>
															<label2>Iris</label2>
														</labels>
													</clipitem>
													<clipitem id="clipitem-654">
														<masterclipid>masterclip-180</masterclipid>
														<name>(sophiabakessometimes)_7109657964843142406_TT.mp4</name>
														<enabled>TRUE</enabled>
														<duration>1186</duration>
														<rate>
															<timebase>30</timebase>
															<ntsc>TRUE</ntsc>
														</rate>
														<start>810</start>
														<end>936</end>
														<in>926</in>
														<out>1052</out>
														<pproTicksIn>7848467827200</pproTicksIn>
														<pproTicksOut>8916401894400</pproTicksOut>
														<alphatype>none</alphatype>
														<file id="file-174"/>
														<filter>
															<effect>
																<name>Basic Motion</name>
																<effectid>basic</effectid>
																<effectcategory>motion</effectcategory>
																<effecttype>motion</effecttype>
																<mediatype>video</mediatype>
																<pproBypass>false</pproBypass>
																<parameter authoringApp="PremierePro">
																	<parameterid>scale</parameterid>
																	<name>Scale</name>
																	<valuemin>0</valuemin>
																	<valuemax>1000</valuemax>
																	<value>361.469</value>
																</parameter>
																<parameter authoringApp="PremierePro">
																	<parameterid>rotation</parameterid>
																	<name>Rotation</name>
																	<valuemin>-8640</valuemin>
																	<valuemax>8640</valuemax>
																	<value>0</value>
																</parameter>
																<parameter authoringApp="PremierePro">
																	<parameterid>center</parameterid>
																	<name>Center</name>
																	<value>
																		<horiz>0</horiz>
																		<vert>0</vert>
																	</value>
																</parameter>
																<parameter authoringApp="PremierePro">
																	<parameterid>centerOffset</parameterid>
																	<name>Anchor Point</name>
																	<value>
																		<horiz>0</horiz>
																		<vert>0</vert>
																	</value>
																</parameter>
																<parameter authoringApp="PremierePro">
																	<parameterid>antiflicker</parameterid>
																	<name>Anti-flicker Filter</name>
																	<valuemin>0.0</valuemin>
																	<valuemax>1.0</valuemax>
																	<value>0</value>
																</parameter>
															</effect>
														</filter>
														<filter>
															<effect>
																<name>Gaussian Blur</name>
																<effectid>Gaussian Blur</effectid>
																<effectcategory>Blur</effectcategory>
																<effecttype>motion</effecttype>
																<mediatype>video</mediatype>
																<pproBypass>false</pproBypass>
																<parameter authoringApp="PremierePro">
																	<parameterid>radius</parameterid>
																	<name>Radius</name>
																	<valuemin>0</valuemin>
																	<valuemax>100</valuemax>
																	<value>150</value>
																</parameter>
															</effect>
														</filter>
														<logginginfo>
															<description></description>
															<scene></scene>
															<shottake></shottake>
															<lognote></lognote>
															<good></good>
															<originalvideofilename></originalvideofilename>
															<originalaudiofilename></originalaudiofilename>
														</logginginfo>
														<colorinfo>
															<lut></lut>
															<lut1></lut1>
															<asc_sop></asc_sop>
															<asc_sat></asc_sat>
															<lut2></lut2>
														</colorinfo>
														<labels>
															<label2>Iris</label2>
														</labels>
													</clipitem>
													<clipitem id="clipitem-655">
														<masterclipid>masterclip-180</masterclipid>
														<name>(sophiabakessometimes)_7109657964843142406_TT.mp4</name>
														<enabled>TRUE</enabled>
														<duration>1186</duration>
														<rate>
															<timebase>30</timebase>
															<ntsc>TRUE</ntsc>
														</rate>
														<start>936</start>
														<end>1036</end>
														<in>1086</in>
														<out>1186</out>
														<pproTicksIn>9204574579200</pproTicksIn>
														<pproTicksOut>10052141299200</pproTicksOut>
														<alphatype>none</alphatype>
														<file id="file-174"/>
														<filter>
															<effect>
																<name>Basic Motion</name>
																<effectid>basic</effectid>
																<effectcategory>motion</effectcategory>
																<effecttype>motion</effecttype>
																<mediatype>video</mediatype>
																<pproBypass>false</pproBypass>
																<parameter authoringApp="PremierePro">
																	<parameterid>scale</parameterid>
																	<name>Scale</name>
																	<valuemin>0</valuemin>
																	<valuemax>1000</valuemax>
																	<value>361.469</value>
																</parameter>
																<parameter authoringApp="PremierePro">
																	<parameterid>rotation</parameterid>
																	<name>Rotation</name>
																	<valuemin>-8640</valuemin>
																	<valuemax>8640</valuemax>
																	<value>0</value>
																</parameter>
																<parameter authoringApp="PremierePro">
																	<parameterid>center</parameterid>
																	<name>Center</name>
																	<value>
																		<horiz>0</horiz>
																		<vert>0</vert>
																	</value>
																</parameter>
																<parameter authoringApp="PremierePro">
																	<parameterid>centerOffset</parameterid>
																	<name>Anchor Point</name>
																	<value>
																		<horiz>0</horiz>
																		<vert>0</vert>
																	</value>
																</parameter>
																<parameter authoringApp="PremierePro">
																	<parameterid>antiflicker</parameterid>
																	<name>Anti-flicker Filter</name>
																	<valuemin>0.0</valuemin>
																	<valuemax>1.0</valuemax>
																	<value>0</value>
																</parameter>
															</effect>
														</filter>
														<filter>
															<effect>
																<name>Gaussian Blur</name>
																<effectid>Gaussian Blur</effectid>
																<effectcategory>Blur</effectcategory>
																<effecttype>motion</effecttype>
																<mediatype>video</mediatype>
																<pproBypass>false</pproBypass>
																<parameter authoringApp="PremierePro">
																	<parameterid>radius</parameterid>
																	<name>Radius</name>
																	<valuemin>0</valuemin>
																	<valuemax>100</valuemax>
																	<value>150</value>
																</parameter>
															</effect>
														</filter>
														<logginginfo>
															<description></description>
															<scene></scene>
															<shottake></shottake>
															<lognote></lognote>
															<good></good>
															<originalvideofilename></originalvideofilename>
															<originalaudiofilename></originalaudiofilename>
														</logginginfo>
														<colorinfo>
															<lut></lut>
															<lut1></lut1>
															<asc_sop></asc_sop>
															<asc_sat></asc_sat>
															<lut2></lut2>
														</colorinfo>
														<labels>
															<label2>Iris</label2>
														</labels>
													</clipitem>
													<clipitem id="clipitem-656">
														<masterclipid>masterclip-181</masterclipid>
														<name>_sophieskitchen_CYSxdOaFpSB_IG.mp4</name>
														<enabled>TRUE</enabled>
														<duration>900</duration>
														<rate>
															<timebase>30</timebase>
															<ntsc>TRUE</ntsc>
														</rate>
														<start>1036</start>
														<end>1176</end>
														<in>25</in>
														<out>165</out>
														<pproTicksIn>211891680000</pproTicksIn>
														<pproTicksOut>1398485088000</pproTicksOut>
														<alphatype>none</alphatype>
														<pixelaspectratio>square</pixelaspectratio>
														<anamorphic>FALSE</anamorphic>
														<file id="file-175">
															<name>_sophieskitchen_CYSxdOaFpSB_IG.mp4</name>
															<pathurl>file://localhost/Volumes/Satisfactum%20Satisfactorum/03_Weekly%20(Project%20Files,%20Main%20Segments)/OSTV/OSTV%2023-08-21/3_Raw%20Files/s'mores/_sophieskitchen_CYSxdOaFpSB_IG.mp4</pathurl>
															<rate>
																<timebase>30</timebase>
																<ntsc>FALSE</ntsc>
															</rate>
															<duration>901</duration>
															<timecode>
																<rate>
																	<timebase>30</timebase>
																	<ntsc>FALSE</ntsc>
																</rate>
																<string>00:00:00:00</string>
																<frame>0</frame>
																<displayformat>NDF</displayformat>
															</timecode>
															<media>
																<video>
																	<samplecharacteristics>
																		<rate>
																			<timebase>30</timebase>
																			<ntsc>FALSE</ntsc>
																		</rate>
																		<width>720</width>
																		<height>1280</height>
																		<anamorphic>FALSE</anamorphic>
																		<pixelaspectratio>square</pixelaspectratio>
																		<fielddominance>none</fielddominance>
																	</samplecharacteristics>
																</video>
															</media>
														</file>
														<filter>
															<effect>
																<name>Basic Motion</name>
																<effectid>basic</effectid>
																<effectcategory>motion</effectcategory>
																<effecttype>motion</effecttype>
																<mediatype>video</mediatype>
																<pproBypass>false</pproBypass>
																<parameter authoringApp="PremierePro">
																	<parameterid>scale</parameterid>
																	<name>Scale</name>
																	<valuemin>0</valuemin>
																	<valuemax>1000</valuemax>
																	<value>361.469</value>
																</parameter>
																<parameter authoringApp="PremierePro">
																	<parameterid>rotation</parameterid>
																	<name>Rotation</name>
																	<valuemin>-8640</valuemin>
																	<valuemax>8640</valuemax>
																	<value>0</value>
																</parameter>
																<parameter authoringApp="PremierePro">
																	<parameterid>center</parameterid>
																	<name>Center</name>
																	<value>
																		<horiz>0</horiz>
																		<vert>0</vert>
																	</value>
																</parameter>
																<parameter authoringApp="PremierePro">
																	<parameterid>centerOffset</parameterid>
																	<name>Anchor Point</name>
																	<value>
																		<horiz>0</horiz>
																		<vert>0</vert>
																	</value>
																</parameter>
																<parameter authoringApp="PremierePro">
																	<parameterid>antiflicker</parameterid>
																	<name>Anti-flicker Filter</name>
																	<valuemin>0.0</valuemin>
																	<valuemax>1.0</valuemax>
																	<value>0</value>
																</parameter>
															</effect>
														</filter>
														<filter>
															<effect>
																<name>Gaussian Blur</name>
																<effectid>Gaussian Blur</effectid>
																<effectcategory>Blur</effectcategory>
																<effecttype>motion</effecttype>
																<mediatype>video</mediatype>
																<pproBypass>false</pproBypass>
																<parameter authoringApp="PremierePro">
																	<parameterid>radius</parameterid>
																	<name>Radius</name>
																	<valuemin>0</valuemin>
																	<valuemax>100</valuemax>
																	<value>150</value>
																</parameter>
															</effect>
														</filter>
														<logginginfo>
															<description></description>
															<scene></scene>
															<shottake></shottake>
															<lognote></lognote>
															<good></good>
															<originalvideofilename></originalvideofilename>
															<originalaudiofilename></originalaudiofilename>
														</logginginfo>
														<colorinfo>
															<lut></lut>
															<lut1></lut1>
															<asc_sop></asc_sop>
															<asc_sat></asc_sat>
															<lut2></lut2>
														</colorinfo>
														<labels>
															<label2>Violet</label2>
														</labels>
													</clipitem>
													<clipitem id="clipitem-657">
														<masterclipid>masterclip-181</masterclipid>
														<name>_sophieskitchen_CYSxdOaFpSB_IG.mp4</name>
														<enabled>TRUE</enabled>
														<duration>900</duration>
														<rate>
															<timebase>30</timebase>
															<ntsc>TRUE</ntsc>
														</rate>
														<start>1176</start>
														<end>1256</end>
														<in>225</in>
														<out>305</out>
														<pproTicksIn>1907025120000</pproTicksIn>
														<pproTicksOut>2585078496000</pproTicksOut>
														<alphatype>none</alphatype>
														<file id="file-175"/>
														<filter>
															<effect>
																<name>Basic Motion</name>
																<effectid>basic</effectid>
																<effectcategory>motion</effectcategory>
																<effecttype>motion</effecttype>
																<mediatype>video</mediatype>
																<pproBypass>false</pproBypass>
																<parameter authoringApp="PremierePro">
																	<parameterid>scale</parameterid>
																	<name>Scale</name>
																	<valuemin>0</valuemin>
																	<valuemax>1000</valuemax>
																	<value>361.469</value>
																</parameter>
																<parameter authoringApp="PremierePro">
																	<parameterid>rotation</parameterid>
																	<name>Rotation</name>
																	<valuemin>-8640</valuemin>
																	<valuemax>8640</valuemax>
																	<value>0</value>
																</parameter>
																<parameter authoringApp="PremierePro">
																	<parameterid>center</parameterid>
																	<name>Center</name>
																	<value>
																		<horiz>0</horiz>
																		<vert>0</vert>
																	</value>
																</parameter>
																<parameter authoringApp="PremierePro">
																	<parameterid>centerOffset</parameterid>
																	<name>Anchor Point</name>
																	<value>
																		<horiz>0</horiz>
																		<vert>0</vert>
																	</value>
																</parameter>
																<parameter authoringApp="PremierePro">
																	<parameterid>antiflicker</parameterid>
																	<name>Anti-flicker Filter</name>
																	<valuemin>0.0</valuemin>
																	<valuemax>1.0</valuemax>
																	<value>0</value>
																</parameter>
															</effect>
														</filter>
														<filter>
															<effect>
																<name>Gaussian Blur</name>
																<effectid>Gaussian Blur</effectid>
																<effectcategory>Blur</effectcategory>
																<effecttype>motion</effecttype>
																<mediatype>video</mediatype>
																<pproBypass>false</pproBypass>
																<parameter authoringApp="PremierePro">
																	<parameterid>radius</parameterid>
																	<name>Radius</name>
																	<valuemin>0</valuemin>
																	<valuemax>100</valuemax>
																	<value>150</value>
																</parameter>
															</effect>
														</filter>
														<logginginfo>
															<description></description>
															<scene></scene>
															<shottake></shottake>
															<lognote></lognote>
															<good></good>
															<originalvideofilename></originalvideofilename>
															<originalaudiofilename></originalaudiofilename>
														</logginginfo>
														<colorinfo>
															<lut></lut>
															<lut1></lut1>
															<asc_sop></asc_sop>
															<asc_sat></asc_sat>
															<lut2></lut2>
														</colorinfo>
														<labels>
															<label2>Violet</label2>
														</labels>
													</clipitem>
													<clipitem id="clipitem-658">
														<masterclipid>masterclip-181</masterclipid>
														<name>_sophieskitchen_CYSxdOaFpSB_IG.mp4</name>
														<enabled>TRUE</enabled>
														<duration>900</duration>
														<rate>
															<timebase>30</timebase>
															<ntsc>TRUE</ntsc>
														</rate>
														<start>1256</start>
														<end>1414</end>
														<in>364</in>
														<out>522</out>
														<pproTicksIn>3085142860800</pproTicksIn>
														<pproTicksOut>4424298278400</pproTicksOut>
														<alphatype>none</alphatype>
														<file id="file-175"/>
														<filter>
															<effect>
																<name>Basic Motion</name>
																<effectid>basic</effectid>
																<effectcategory>motion</effectcategory>
																<effecttype>motion</effecttype>
																<mediatype>video</mediatype>
																<pproBypass>false</pproBypass>
																<parameter authoringApp="PremierePro">
																	<parameterid>scale</parameterid>
																	<name>Scale</name>
																	<valuemin>0</valuemin>
																	<valuemax>1000</valuemax>
																	<value>361.469</value>
																</parameter>
																<parameter authoringApp="PremierePro">
																	<parameterid>rotation</parameterid>
																	<name>Rotation</name>
																	<valuemin>-8640</valuemin>
																	<valuemax>8640</valuemax>
																	<value>0</value>
																</parameter>
																<parameter authoringApp="PremierePro">
																	<parameterid>center</parameterid>
																	<name>Center</name>
																	<value>
																		<horiz>0</horiz>
																		<vert>0</vert>
																	</value>
																</parameter>
																<parameter authoringApp="PremierePro">
																	<parameterid>centerOffset</parameterid>
																	<name>Anchor Point</name>
																	<value>
																		<horiz>0</horiz>
																		<vert>0</vert>
																	</value>
																</parameter>
																<parameter authoringApp="PremierePro">
																	<parameterid>antiflicker</parameterid>
																	<name>Anti-flicker Filter</name>
																	<valuemin>0.0</valuemin>
																	<valuemax>1.0</valuemax>
																	<value>0</value>
																</parameter>
															</effect>
														</filter>
														<filter>
															<effect>
																<name>Gaussian Blur</name>
																<effectid>Gaussian Blur</effectid>
																<effectcategory>Blur</effectcategory>
																<effecttype>motion</effecttype>
																<mediatype>video</mediatype>
																<pproBypass>false</pproBypass>
																<parameter authoringApp="PremierePro">
																	<parameterid>radius</parameterid>
																	<name>Radius</name>
																	<valuemin>0</valuemin>
																	<valuemax>100</valuemax>
																	<value>150</value>
																</parameter>
															</effect>
														</filter>
														<logginginfo>
															<description></description>
															<scene></scene>
															<shottake></shottake>
															<lognote></lognote>
															<good></good>
															<originalvideofilename></originalvideofilename>
															<originalaudiofilename></originalaudiofilename>
														</logginginfo>
														<colorinfo>
															<lut></lut>
															<lut1></lut1>
															<asc_sop></asc_sop>
															<asc_sat></asc_sat>
															<lut2></lut2>
														</colorinfo>
														<labels>
															<label2>Violet</label2>
														</labels>
													</clipitem>
													<clipitem id="clipitem-659">
														<masterclipid>masterclip-181</masterclipid>
														<name>_sophieskitchen_CYSxdOaFpSB_IG.mp4</name>
														<enabled>TRUE</enabled>
														<duration>900</duration>
														<rate>
															<timebase>30</timebase>
															<ntsc>TRUE</ntsc>
														</rate>
														<start>1414</start>
														<end>1732</end>
														<in>582</in>
														<out>900</out>
														<pproTicksIn>4932838310400</pproTicksIn>
														<pproTicksOut>7628100480000</pproTicksOut>
														<alphatype>none</alphatype>
														<file id="file-175"/>
														<filter>
															<effect>
																<name>Basic Motion</name>
																<effectid>basic</effectid>
																<effectcategory>motion</effectcategory>
																<effecttype>motion</effecttype>
																<mediatype>video</mediatype>
																<pproBypass>false</pproBypass>
																<parameter authoringApp="PremierePro">
																	<parameterid>scale</parameterid>
																	<name>Scale</name>
																	<valuemin>0</valuemin>
																	<valuemax>1000</valuemax>
																	<value>361.469</value>
																</parameter>
																<parameter authoringApp="PremierePro">
																	<parameterid>rotation</parameterid>
																	<name>Rotation</name>
																	<valuemin>-8640</valuemin>
																	<valuemax>8640</valuemax>
																	<value>0</value>
																</parameter>
																<parameter authoringApp="PremierePro">
																	<parameterid>center</parameterid>
																	<name>Center</name>
																	<value>
																		<horiz>0</horiz>
																		<vert>0</vert>
																	</value>
																</parameter>
																<parameter authoringApp="PremierePro">
																	<parameterid>centerOffset</parameterid>
																	<name>Anchor Point</name>
																	<value>
																		<horiz>0</horiz>
																		<vert>0</vert>
																	</value>
																</parameter>
																<parameter authoringApp="PremierePro">
																	<parameterid>antiflicker</parameterid>
																	<name>Anti-flicker Filter</name>
																	<valuemin>0.0</valuemin>
																	<valuemax>1.0</valuemax>
																	<value>0</value>
																</parameter>
															</effect>
														</filter>
														<filter>
															<effect>
																<name>Gaussian Blur</name>
																<effectid>Gaussian Blur</effectid>
																<effectcategory>Blur</effectcategory>
																<effecttype>motion</effecttype>
																<mediatype>video</mediatype>
																<pproBypass>false</pproBypass>
																<parameter authoringApp="PremierePro">
																	<parameterid>radius</parameterid>
																	<name>Radius</name>
																	<valuemin>0</valuemin>
																	<valuemax>100</valuemax>
																	<value>150</value>
																</parameter>
															</effect>
														</filter>
														<logginginfo>
															<description></description>
															<scene></scene>
															<shottake></shottake>
															<lognote></lognote>
															<good></good>
															<originalvideofilename></originalvideofilename>
															<originalaudiofilename></originalaudiofilename>
														</logginginfo>
														<colorinfo>
															<lut></lut>
															<lut1></lut1>
															<asc_sop></asc_sop>
															<asc_sat></asc_sat>
															<lut2></lut2>
														</colorinfo>
														<labels>
															<label2>Violet</label2>
														</labels>
													</clipitem>
													<clipitem id="clipitem-660">
														<masterclipid>masterclip-182</masterclipid>
														<name>(thesqueakymixer)_6973281507968355590_TT.mp4</name>
														<enabled>TRUE</enabled>
														<duration>863</duration>
														<rate>
															<timebase>30</timebase>
															<ntsc>TRUE</ntsc>
														</rate>
														<start>2096</start>
														<end>2447</end>
														<in>0</in>
														<out>351</out>
														<pproTicksIn>0</pproTicksIn>
														<pproTicksOut>2974959187200</pproTicksOut>
														<alphatype>none</alphatype>
														<pixelaspectratio>square</pixelaspectratio>
														<anamorphic>FALSE</anamorphic>
														<file id="file-176">
															<name>(thesqueakymixer)_6973281507968355590_TT.mp4</name>
															<pathurl>file://localhost/Volumes/Satisfactum%20Satisfactorum/03_Weekly%20(Project%20Files,%20Main%20Segments)/OSTV/OSTV%2023-08-21/3_Raw%20Files/s'mores/(thesqueakymixer)_6973281507968355590_TT.mp4</pathurl>
															<rate>
																<timebase>30</timebase>
																<ntsc>FALSE</ntsc>
															</rate>
															<duration>864</duration>
															<timecode>
																<rate>
																	<timebase>30</timebase>
																	<ntsc>FALSE</ntsc>
																</rate>
																<string>00:00:00:00</string>
																<frame>0</frame>
																<displayformat>NDF</displayformat>
															</timecode>
															<media>
																<video>
																	<samplecharacteristics>
																		<rate>
																			<timebase>30</timebase>
																			<ntsc>FALSE</ntsc>
																		</rate>
																		<width>576</width>
																		<height>1024</height>
																		<anamorphic>FALSE</anamorphic>
																		<pixelaspectratio>square</pixelaspectratio>
																		<fielddominance>none</fielddominance>
																	</samplecharacteristics>
																</video>
																<audio>
																	<samplecharacteristics>
																		<depth>16</depth>
																		<samplerate>44100</samplerate>
																	</samplecharacteristics>
																	<channelcount>2</channelcount>
																</audio>
															</media>
														</file>
														<filter>
															<effect>
																<name>Basic Motion</name>
																<effectid>basic</effectid>
																<effectcategory>motion</effectcategory>
																<effecttype>motion</effecttype>
																<mediatype>video</mediatype>
																<pproBypass>false</pproBypass>
																<parameter authoringApp="PremierePro">
																	<parameterid>scale</parameterid>
																	<name>Scale</name>
																	<valuemin>0</valuemin>
																	<valuemax>1000</valuemax>
																	<value>361.469</value>
																</parameter>
																<parameter authoringApp="PremierePro">
																	<parameterid>rotation</parameterid>
																	<name>Rotation</name>
																	<valuemin>-8640</valuemin>
																	<valuemax>8640</valuemax>
																	<value>0</value>
																</parameter>
																<parameter authoringApp="PremierePro">
																	<parameterid>center</parameterid>
																	<name>Center</name>
																	<value>
																		<horiz>0</horiz>
																		<vert>0</vert>
																	</value>
																</parameter>
																<parameter authoringApp="PremierePro">
																	<parameterid>centerOffset</parameterid>
																	<name>Anchor Point</name>
																	<value>
																		<horiz>0</horiz>
																		<vert>0</vert>
																	</value>
																</parameter>
																<parameter authoringApp="PremierePro">
																	<parameterid>antiflicker</parameterid>
																	<name>Anti-flicker Filter</name>
																	<valuemin>0.0</valuemin>
																	<valuemax>1.0</valuemax>
																	<value>0</value>
																</parameter>
															</effect>
														</filter>
														<filter>
															<effect>
																<name>Gaussian Blur</name>
																<effectid>Gaussian Blur</effectid>
																<effectcategory>Blur</effectcategory>
																<effecttype>motion</effecttype>
																<mediatype>video</mediatype>
																<pproBypass>false</pproBypass>
																<parameter authoringApp="PremierePro">
																	<parameterid>radius</parameterid>
																	<name>Radius</name>
																	<valuemin>0</valuemin>
																	<valuemax>100</valuemax>
																	<value>150</value>
																</parameter>
															</effect>
														</filter>
														<logginginfo>
															<description></description>
															<scene></scene>
															<shottake></shottake>
															<lognote></lognote>
															<good></good>
															<originalvideofilename></originalvideofilename>
															<originalaudiofilename></originalaudiofilename>
														</logginginfo>
														<colorinfo>
															<lut></lut>
															<lut1></lut1>
															<asc_sop></asc_sop>
															<asc_sat></asc_sat>
															<lut2></lut2>
														</colorinfo>
														<labels>
															<label2>Iris</label2>
														</labels>
													</clipitem>
													<clipitem id="clipitem-661">
														<masterclipid>masterclip-182</masterclipid>
														<name>(thesqueakymixer)_6973281507968355590_TT.mp4</name>
														<enabled>TRUE</enabled>
														<duration>863</duration>
														<rate>
															<timebase>30</timebase>
															<ntsc>TRUE</ntsc>
														</rate>
														<start>2447</start>
														<end>2594</end>
														<in>351</in>
														<out>498</out>
														<pproTicksIn>2974959187200</pproTicksIn>
														<pproTicksOut>4220882265600</pproTicksOut>
														<alphatype>none</alphatype>
														<file id="file-176"/>
														<filter>
															<effect>
																<name>Basic Motion</name>
																<effectid>basic</effectid>
																<effectcategory>motion</effectcategory>
																<effecttype>motion</effecttype>
																<mediatype>video</mediatype>
																<pproBypass>false</pproBypass>
																<parameter authoringApp="PremierePro">
																	<parameterid>scale</parameterid>
																	<name>Scale</name>
																	<valuemin>0</valuemin>
																	<valuemax>1000</valuemax>
																	<value>361.469</value>
																</parameter>
																<parameter authoringApp="PremierePro">
																	<parameterid>rotation</parameterid>
																	<name>Rotation</name>
																	<valuemin>-8640</valuemin>
																	<valuemax>8640</valuemax>
																	<value>0</value>
																</parameter>
																<parameter authoringApp="PremierePro">
																	<parameterid>center</parameterid>
																	<name>Center</name>
																	<value>
																		<horiz>0</horiz>
																		<vert>0</vert>
																	</value>
																</parameter>
																<parameter authoringApp="PremierePro">
																	<parameterid>centerOffset</parameterid>
																	<name>Anchor Point</name>
																	<value>
																		<horiz>0</horiz>
																		<vert>0</vert>
																	</value>
																</parameter>
																<parameter authoringApp="PremierePro">
																	<parameterid>antiflicker</parameterid>
																	<name>Anti-flicker Filter</name>
																	<valuemin>0.0</valuemin>
																	<valuemax>1.0</valuemax>
																	<value>0</value>
																</parameter>
															</effect>
														</filter>
														<filter>
															<effect>
																<name>Gaussian Blur</name>
																<effectid>Gaussian Blur</effectid>
																<effectcategory>Blur</effectcategory>
																<effecttype>motion</effecttype>
																<mediatype>video</mediatype>
																<pproBypass>false</pproBypass>
																<parameter authoringApp="PremierePro">
																	<parameterid>radius</parameterid>
																	<name>Radius</name>
																	<valuemin>0</valuemin>
																	<valuemax>100</valuemax>
																	<value>150</value>
																</parameter>
															</effect>
														</filter>
														<logginginfo>
															<description></description>
															<scene></scene>
															<shottake></shottake>
															<lognote></lognote>
															<good></good>
															<originalvideofilename></originalvideofilename>
															<originalaudiofilename></originalaudiofilename>
														</logginginfo>
														<colorinfo>
															<lut></lut>
															<lut1></lut1>
															<asc_sop></asc_sop>
															<asc_sat></asc_sat>
															<lut2></lut2>
														</colorinfo>
														<labels>
															<label2>Iris</label2>
														</labels>
													</clipitem>
													<clipitem id="clipitem-662">
														<masterclipid>masterclip-182</masterclipid>
														<name>(thesqueakymixer)_6973281507968355590_TT.mp4</name>
														<enabled>TRUE</enabled>
														<duration>863</duration>
														<rate>
															<timebase>30</timebase>
															<ntsc>TRUE</ntsc>
														</rate>
														<start>2594</start>
														<end>2654</end>
														<in>557</in>
														<out>617</out>
														<pproTicksIn>4720946630400</pproTicksIn>
														<pproTicksOut>5229486662400</pproTicksOut>
														<alphatype>none</alphatype>
														<file id="file-176"/>
														<filter>
															<effect>
																<name>Basic Motion</name>
																<effectid>basic</effectid>
																<effectcategory>motion</effectcategory>
																<effecttype>motion</effecttype>
																<mediatype>video</mediatype>
																<pproBypass>false</pproBypass>
																<parameter authoringApp="PremierePro">
																	<parameterid>scale</parameterid>
																	<name>Scale</name>
																	<valuemin>0</valuemin>
																	<valuemax>1000</valuemax>
																	<value>361.469</value>
																</parameter>
																<parameter authoringApp="PremierePro">
																	<parameterid>rotation</parameterid>
																	<name>Rotation</name>
																	<valuemin>-8640</valuemin>
																	<valuemax>8640</valuemax>
																	<value>0</value>
																</parameter>
																<parameter authoringApp="PremierePro">
																	<parameterid>center</parameterid>
																	<name>Center</name>
																	<value>
																		<horiz>0</horiz>
																		<vert>0</vert>
																	</value>
																</parameter>
																<parameter authoringApp="PremierePro">
																	<parameterid>centerOffset</parameterid>
																	<name>Anchor Point</name>
																	<value>
																		<horiz>0</horiz>
																		<vert>0</vert>
																	</value>
																</parameter>
																<parameter authoringApp="PremierePro">
																	<parameterid>antiflicker</parameterid>
																	<name>Anti-flicker Filter</name>
																	<valuemin>0.0</valuemin>
																	<valuemax>1.0</valuemax>
																	<value>0</value>
																</parameter>
															</effect>
														</filter>
														<filter>
															<effect>
																<name>Gaussian Blur</name>
																<effectid>Gaussian Blur</effectid>
																<effectcategory>Blur</effectcategory>
																<effecttype>motion</effecttype>
																<mediatype>video</mediatype>
																<pproBypass>false</pproBypass>
																<parameter authoringApp="PremierePro">
																	<parameterid>radius</parameterid>
																	<name>Radius</name>
																	<valuemin>0</valuemin>
																	<valuemax>100</valuemax>
																	<value>150</value>
																</parameter>
															</effect>
														</filter>
														<logginginfo>
															<description></description>
															<scene></scene>
															<shottake></shottake>
															<lognote></lognote>
															<good></good>
															<originalvideofilename></originalvideofilename>
															<originalaudiofilename></originalaudiofilename>
														</logginginfo>
														<colorinfo>
															<lut></lut>
															<lut1></lut1>
															<asc_sop></asc_sop>
															<asc_sat></asc_sat>
															<lut2></lut2>
														</colorinfo>
														<labels>
															<label2>Iris</label2>
														</labels>
													</clipitem>
													<clipitem id="clipitem-663">
														<masterclipid>masterclip-182</masterclipid>
														<name>(thesqueakymixer)_6973281507968355590_TT.mp4</name>
														<enabled>TRUE</enabled>
														<duration>863</duration>
														<rate>
															<timebase>30</timebase>
															<ntsc>TRUE</ntsc>
														</rate>
														<start>2654</start>
														<end>2868</end>
														<in>649</in>
														<out>863</out>
														<pproTicksIn>5500708012800</pproTicksIn>
														<pproTicksOut>7314500793600</pproTicksOut>
														<alphatype>none</alphatype>
														<file id="file-176"/>
														<filter>
															<effect>
																<name>Basic Motion</name>
																<effectid>basic</effectid>
																<effectcategory>motion</effectcategory>
																<effecttype>motion</effecttype>
																<mediatype>video</mediatype>
																<pproBypass>false</pproBypass>
																<parameter authoringApp="PremierePro">
																	<parameterid>scale</parameterid>
																	<name>Scale</name>
																	<valuemin>0</valuemin>
																	<valuemax>1000</valuemax>
																	<value>361.469</value>
																</parameter>
																<parameter authoringApp="PremierePro">
																	<parameterid>rotation</parameterid>
																	<name>Rotation</name>
																	<valuemin>-8640</valuemin>
																	<valuemax>8640</valuemax>
																	<value>0</value>
																</parameter>
																<parameter authoringApp="PremierePro">
																	<parameterid>center</parameterid>
																	<name>Center</name>
																	<value>
																		<horiz>0</horiz>
																		<vert>0</vert>
																	</value>
																</parameter>
																<parameter authoringApp="PremierePro">
																	<parameterid>centerOffset</parameterid>
																	<name>Anchor Point</name>
																	<value>
																		<horiz>0</horiz>
																		<vert>0</vert>
																	</value>
																</parameter>
																<parameter authoringApp="PremierePro">
																	<parameterid>antiflicker</parameterid>
																	<name>Anti-flicker Filter</name>
																	<valuemin>0.0</valuemin>
																	<valuemax>1.0</valuemax>
																	<value>0</value>
																</parameter>
															</effect>
														</filter>
														<filter>
															<effect>
																<name>Gaussian Blur</name>
																<effectid>Gaussian Blur</effectid>
																<effectcategory>Blur</effectcategory>
																<effecttype>motion</effecttype>
																<mediatype>video</mediatype>
																<pproBypass>false</pproBypass>
																<parameter authoringApp="PremierePro">
																	<parameterid>radius</parameterid>
																	<name>Radius</name>
																	<valuemin>0</valuemin>
																	<valuemax>100</valuemax>
																	<value>150</value>
																</parameter>
															</effect>
														</filter>
														<logginginfo>
															<description></description>
															<scene></scene>
															<shottake></shottake>
															<lognote></lognote>
															<good></good>
															<originalvideofilename></originalvideofilename>
															<originalaudiofilename></originalaudiofilename>
														</logginginfo>
														<colorinfo>
															<lut></lut>
															<lut1></lut1>
															<asc_sop></asc_sop>
															<asc_sat></asc_sat>
															<lut2></lut2>
														</colorinfo>
														<labels>
															<label2>Iris</label2>
														</labels>
													</clipitem>
													<enabled>TRUE</enabled>
													<locked>FALSE</locked>
												</track>
												<track TL.SQTrackShy="0" TL.SQTrackExpandedHeight="25" TL.SQTrackExpanded="0" MZ.TrackTargeted="0">
													<clipitem id="clipitem-664">
														<masterclipid>masterclip-180</masterclipid>
														<name>(sophiabakessometimes)_7109657964843142406_TT.mp4</name>
														<enabled>TRUE</enabled>
														<duration>1186</duration>
														<rate>
															<timebase>30</timebase>
															<ntsc>TRUE</ntsc>
														</rate>
														<start>0</start>
														<end>810</end>
														<in>12</in>
														<out>822</out>
														<pproTicksIn>101708006400</pproTicksIn>
														<pproTicksOut>6966998438400</pproTicksOut>
														<alphatype>none</alphatype>
														<file id="file-174"/>
														<filter>
															<effect>
																<name>Basic Motion</name>
																<effectid>basic</effectid>
																<effectcategory>motion</effectcategory>
																<effecttype>motion</effecttype>
																<mediatype>video</mediatype>
																<pproBypass>false</pproBypass>
																<parameter authoringApp="PremierePro">
																	<parameterid>scale</parameterid>
																	<name>Scale</name>
																	<valuemin>0</valuemin>
																	<valuemax>1000</valuemax>
																	<value>188.469</value>
																</parameter>
																<parameter authoringApp="PremierePro">
																	<parameterid>rotation</parameterid>
																	<name>Rotation</name>
																	<valuemin>-8640</valuemin>
																	<valuemax>8640</valuemax>
																	<value>0</value>
																</parameter>
																<parameter authoringApp="PremierePro">
																	<parameterid>center</parameterid>
																	<name>Center</name>
																	<value>
																		<horiz>0</horiz>
																		<vert>0</vert>
																	</value>
																</parameter>
																<parameter authoringApp="PremierePro">
																	<parameterid>centerOffset</parameterid>
																	<name>Anchor Point</name>
																	<value>
																		<horiz>0</horiz>
																		<vert>0</vert>
																	</value>
																</parameter>
																<parameter authoringApp="PremierePro">
																	<parameterid>antiflicker</parameterid>
																	<name>Anti-flicker Filter</name>
																	<valuemin>0.0</valuemin>
																	<valuemax>1.0</valuemax>
																	<value>0</value>
																</parameter>
															</effect>
														</filter>
														<logginginfo>
															<description></description>
															<scene></scene>
															<shottake></shottake>
															<lognote></lognote>
															<good></good>
															<originalvideofilename></originalvideofilename>
															<originalaudiofilename></originalaudiofilename>
														</logginginfo>
														<colorinfo>
															<lut></lut>
															<lut1></lut1>
															<asc_sop></asc_sop>
															<asc_sat></asc_sat>
															<lut2></lut2>
														</colorinfo>
														<labels>
															<label2>Iris</label2>
														</labels>
													</clipitem>
													<clipitem id="clipitem-665">
														<masterclipid>masterclip-180</masterclipid>
														<name>(sophiabakessometimes)_7109657964843142406_TT.mp4</name>
														<enabled>TRUE</enabled>
														<duration>1186</duration>
														<rate>
															<timebase>30</timebase>
															<ntsc>TRUE</ntsc>
														</rate>
														<start>810</start>
														<end>936</end>
														<in>926</in>
														<out>1052</out>
														<pproTicksIn>7848467827200</pproTicksIn>
														<pproTicksOut>8916401894400</pproTicksOut>
														<alphatype>none</alphatype>
														<file id="file-174"/>
														<filter>
															<effect>
																<name>Basic Motion</name>
																<effectid>basic</effectid>
																<effectcategory>motion</effectcategory>
																<effecttype>motion</effecttype>
																<mediatype>video</mediatype>
																<pproBypass>false</pproBypass>
																<parameter authoringApp="PremierePro">
																	<parameterid>scale</parameterid>
																	<name>Scale</name>
																	<valuemin>0</valuemin>
																	<valuemax>1000</valuemax>
																	<value>188.469</value>
																</parameter>
																<parameter authoringApp="PremierePro">
																	<parameterid>rotation</parameterid>
																	<name>Rotation</name>
																	<valuemin>-8640</valuemin>
																	<valuemax>8640</valuemax>
																	<value>0</value>
																</parameter>
																<parameter authoringApp="PremierePro">
																	<parameterid>center</parameterid>
																	<name>Center</name>
																	<value>
																		<horiz>0</horiz>
																		<vert>0</vert>
																	</value>
																</parameter>
																<parameter authoringApp="PremierePro">
																	<parameterid>centerOffset</parameterid>
																	<name>Anchor Point</name>
																	<value>
																		<horiz>0</horiz>
																		<vert>0</vert>
																	</value>
																</parameter>
																<parameter authoringApp="PremierePro">
																	<parameterid>antiflicker</parameterid>
																	<name>Anti-flicker Filter</name>
																	<valuemin>0.0</valuemin>
																	<valuemax>1.0</valuemax>
																	<value>0</value>
																</parameter>
															</effect>
														</filter>
														<logginginfo>
															<description></description>
															<scene></scene>
															<shottake></shottake>
															<lognote></lognote>
															<good></good>
															<originalvideofilename></originalvideofilename>
															<originalaudiofilename></originalaudiofilename>
														</logginginfo>
														<colorinfo>
															<lut></lut>
															<lut1></lut1>
															<asc_sop></asc_sop>
															<asc_sat></asc_sat>
															<lut2></lut2>
														</colorinfo>
														<labels>
															<label2>Iris</label2>
														</labels>
													</clipitem>
													<clipitem id="clipitem-666">
														<masterclipid>masterclip-180</masterclipid>
														<name>(sophiabakessometimes)_7109657964843142406_TT.mp4</name>
														<enabled>TRUE</enabled>
														<duration>1186</duration>
														<rate>
															<timebase>30</timebase>
															<ntsc>TRUE</ntsc>
														</rate>
														<start>936</start>
														<end>1036</end>
														<in>1086</in>
														<out>1186</out>
														<pproTicksIn>9204574579200</pproTicksIn>
														<pproTicksOut>10052141299200</pproTicksOut>
														<alphatype>none</alphatype>
														<file id="file-174"/>
														<filter>
															<effect>
																<name>Basic Motion</name>
																<effectid>basic</effectid>
																<effectcategory>motion</effectcategory>
																<effecttype>motion</effecttype>
																<mediatype>video</mediatype>
																<pproBypass>false</pproBypass>
																<parameter authoringApp="PremierePro">
																	<parameterid>scale</parameterid>
																	<name>Scale</name>
																	<valuemin>0</valuemin>
																	<valuemax>1000</valuemax>
																	<value>188.469</value>
																</parameter>
																<parameter authoringApp="PremierePro">
																	<parameterid>rotation</parameterid>
																	<name>Rotation</name>
																	<valuemin>-8640</valuemin>
																	<valuemax>8640</valuemax>
																	<value>0</value>
																</parameter>
																<parameter authoringApp="PremierePro">
																	<parameterid>center</parameterid>
																	<name>Center</name>
																	<value>
																		<horiz>0</horiz>
																		<vert>0</vert>
																	</value>
																</parameter>
																<parameter authoringApp="PremierePro">
																	<parameterid>centerOffset</parameterid>
																	<name>Anchor Point</name>
																	<value>
																		<horiz>0</horiz>
																		<vert>0</vert>
																	</value>
																</parameter>
																<parameter authoringApp="PremierePro">
																	<parameterid>antiflicker</parameterid>
																	<name>Anti-flicker Filter</name>
																	<valuemin>0.0</valuemin>
																	<valuemax>1.0</valuemax>
																	<value>0</value>
																</parameter>
															</effect>
														</filter>
														<logginginfo>
															<description></description>
															<scene></scene>
															<shottake></shottake>
															<lognote></lognote>
															<good></good>
															<originalvideofilename></originalvideofilename>
															<originalaudiofilename></originalaudiofilename>
														</logginginfo>
														<colorinfo>
															<lut></lut>
															<lut1></lut1>
															<asc_sop></asc_sop>
															<asc_sat></asc_sat>
															<lut2></lut2>
														</colorinfo>
														<labels>
															<label2>Iris</label2>
														</labels>
													</clipitem>
													<clipitem id="clipitem-667">
														<masterclipid>masterclip-181</masterclipid>
														<name>_sophieskitchen_CYSxdOaFpSB_IG.mp4</name>
														<enabled>TRUE</enabled>
														<duration>900</duration>
														<rate>
															<timebase>30</timebase>
															<ntsc>TRUE</ntsc>
														</rate>
														<start>1036</start>
														<end>1176</end>
														<in>25</in>
														<out>165</out>
														<pproTicksIn>211891680000</pproTicksIn>
														<pproTicksOut>1398485088000</pproTicksOut>
														<alphatype>none</alphatype>
														<file id="file-175"/>
														<filter>
															<effect>
																<name>Basic Motion</name>
																<effectid>basic</effectid>
																<effectcategory>motion</effectcategory>
																<effecttype>motion</effecttype>
																<mediatype>video</mediatype>
																<pproBypass>false</pproBypass>
																<parameter authoringApp="PremierePro">
																	<parameterid>scale</parameterid>
																	<name>Scale</name>
																	<valuemin>0</valuemin>
																	<valuemax>1000</valuemax>
																	<value>151.375</value>
																</parameter>
																<parameter authoringApp="PremierePro">
																	<parameterid>rotation</parameterid>
																	<name>Rotation</name>
																	<valuemin>-8640</valuemin>
																	<valuemax>8640</valuemax>
																	<value>0</value>
																</parameter>
																<parameter authoringApp="PremierePro">
																	<parameterid>center</parameterid>
																	<name>Center</name>
																	<value>
																		<horiz>0</horiz>
																		<vert>0.110156</vert>
																	</value>
																</parameter>
																<parameter authoringApp="PremierePro">
																	<parameterid>centerOffset</parameterid>
																	<name>Anchor Point</name>
																	<value>
																		<horiz>0</horiz>
																		<vert>0</vert>
																	</value>
																</parameter>
																<parameter authoringApp="PremierePro">
																	<parameterid>antiflicker</parameterid>
																	<name>Anti-flicker Filter</name>
																	<valuemin>0.0</valuemin>
																	<valuemax>1.0</valuemax>
																	<value>0</value>
																</parameter>
															</effect>
														</filter>
														<logginginfo>
															<description></description>
															<scene></scene>
															<shottake></shottake>
															<lognote></lognote>
															<good></good>
															<originalvideofilename></originalvideofilename>
															<originalaudiofilename></originalaudiofilename>
														</logginginfo>
														<colorinfo>
															<lut></lut>
															<lut1></lut1>
															<asc_sop></asc_sop>
															<asc_sat></asc_sat>
															<lut2></lut2>
														</colorinfo>
														<labels>
															<label2>Violet</label2>
														</labels>
													</clipitem>
													<clipitem id="clipitem-668">
														<masterclipid>masterclip-181</masterclipid>
														<name>_sophieskitchen_CYSxdOaFpSB_IG.mp4</name>
														<enabled>TRUE</enabled>
														<duration>900</duration>
														<rate>
															<timebase>30</timebase>
															<ntsc>TRUE</ntsc>
														</rate>
														<start>1176</start>
														<end>1256</end>
														<in>225</in>
														<out>305</out>
														<pproTicksIn>1907025120000</pproTicksIn>
														<pproTicksOut>2585078496000</pproTicksOut>
														<alphatype>none</alphatype>
														<file id="file-175"/>
														<filter>
															<effect>
																<name>Basic Motion</name>
																<effectid>basic</effectid>
																<effectcategory>motion</effectcategory>
																<effecttype>motion</effecttype>
																<mediatype>video</mediatype>
																<pproBypass>false</pproBypass>
																<parameter authoringApp="PremierePro">
																	<parameterid>scale</parameterid>
																	<name>Scale</name>
																	<valuemin>0</valuemin>
																	<valuemax>1000</valuemax>
																	<value>151.375</value>
																</parameter>
																<parameter authoringApp="PremierePro">
																	<parameterid>rotation</parameterid>
																	<name>Rotation</name>
																	<valuemin>-8640</valuemin>
																	<valuemax>8640</valuemax>
																	<value>0</value>
																</parameter>
																<parameter authoringApp="PremierePro">
																	<parameterid>center</parameterid>
																	<name>Center</name>
																	<value>
																		<horiz>0</horiz>
																		<vert>0.110156</vert>
																	</value>
																</parameter>
																<parameter authoringApp="PremierePro">
																	<parameterid>centerOffset</parameterid>
																	<name>Anchor Point</name>
																	<value>
																		<horiz>0</horiz>
																		<vert>0</vert>
																	</value>
																</parameter>
																<parameter authoringApp="PremierePro">
																	<parameterid>antiflicker</parameterid>
																	<name>Anti-flicker Filter</name>
																	<valuemin>0.0</valuemin>
																	<valuemax>1.0</valuemax>
																	<value>0</value>
																</parameter>
															</effect>
														</filter>
														<logginginfo>
															<description></description>
															<scene></scene>
															<shottake></shottake>
															<lognote></lognote>
															<good></good>
															<originalvideofilename></originalvideofilename>
															<originalaudiofilename></originalaudiofilename>
														</logginginfo>
														<colorinfo>
															<lut></lut>
															<lut1></lut1>
															<asc_sop></asc_sop>
															<asc_sat></asc_sat>
															<lut2></lut2>
														</colorinfo>
														<labels>
															<label2>Violet</label2>
														</labels>
													</clipitem>
													<clipitem id="clipitem-669">
														<masterclipid>masterclip-181</masterclipid>
														<name>_sophieskitchen_CYSxdOaFpSB_IG.mp4</name>
														<enabled>TRUE</enabled>
														<duration>900</duration>
														<rate>
															<timebase>30</timebase>
															<ntsc>TRUE</ntsc>
														</rate>
														<start>1256</start>
														<end>1414</end>
														<in>364</in>
														<out>522</out>
														<pproTicksIn>3085142860800</pproTicksIn>
														<pproTicksOut>4424298278400</pproTicksOut>
														<alphatype>none</alphatype>
														<file id="file-175"/>
														<filter>
															<effect>
																<name>Basic Motion</name>
																<effectid>basic</effectid>
																<effectcategory>motion</effectcategory>
																<effecttype>motion</effecttype>
																<mediatype>video</mediatype>
																<pproBypass>false</pproBypass>
																<parameter authoringApp="PremierePro">
																	<parameterid>scale</parameterid>
																	<name>Scale</name>
																	<valuemin>0</valuemin>
																	<valuemax>1000</valuemax>
																	<value>151.375</value>
																</parameter>
																<parameter authoringApp="PremierePro">
																	<parameterid>rotation</parameterid>
																	<name>Rotation</name>
																	<valuemin>-8640</valuemin>
																	<valuemax>8640</valuemax>
																	<value>0</value>
																</parameter>
																<parameter authoringApp="PremierePro">
																	<parameterid>center</parameterid>
																	<name>Center</name>
																	<value>
																		<horiz>0</horiz>
																		<vert>0.110156</vert>
																	</value>
																</parameter>
																<parameter authoringApp="PremierePro">
																	<parameterid>centerOffset</parameterid>
																	<name>Anchor Point</name>
																	<value>
																		<horiz>0</horiz>
																		<vert>0</vert>
																	</value>
																</parameter>
																<parameter authoringApp="PremierePro">
																	<parameterid>antiflicker</parameterid>
																	<name>Anti-flicker Filter</name>
																	<valuemin>0.0</valuemin>
																	<valuemax>1.0</valuemax>
																	<value>0</value>
																</parameter>
															</effect>
														</filter>
														<logginginfo>
															<description></description>
															<scene></scene>
															<shottake></shottake>
															<lognote></lognote>
															<good></good>
															<originalvideofilename></originalvideofilename>
															<originalaudiofilename></originalaudiofilename>
														</logginginfo>
														<colorinfo>
															<lut></lut>
															<lut1></lut1>
															<asc_sop></asc_sop>
															<asc_sat></asc_sat>
															<lut2></lut2>
														</colorinfo>
														<labels>
															<label2>Violet</label2>
														</labels>
													</clipitem>
													<clipitem id="clipitem-670">
														<masterclipid>masterclip-181</masterclipid>
														<name>_sophieskitchen_CYSxdOaFpSB_IG.mp4</name>
														<enabled>TRUE</enabled>
														<duration>900</duration>
														<rate>
															<timebase>30</timebase>
															<ntsc>TRUE</ntsc>
														</rate>
														<start>1414</start>
														<end>1732</end>
														<in>582</in>
														<out>900</out>
														<pproTicksIn>4932838310400</pproTicksIn>
														<pproTicksOut>7628100480000</pproTicksOut>
														<alphatype>none</alphatype>
														<file id="file-175"/>
														<filter>
															<effect>
																<name>Basic Motion</name>
																<effectid>basic</effectid>
																<effectcategory>motion</effectcategory>
																<effecttype>motion</effecttype>
																<mediatype>video</mediatype>
																<pproBypass>false</pproBypass>
																<parameter authoringApp="PremierePro">
																	<parameterid>scale</parameterid>
																	<name>Scale</name>
																	<valuemin>0</valuemin>
																	<valuemax>1000</valuemax>
																	<value>151.375</value>
																</parameter>
																<parameter authoringApp="PremierePro">
																	<parameterid>rotation</parameterid>
																	<name>Rotation</name>
																	<valuemin>-8640</valuemin>
																	<valuemax>8640</valuemax>
																	<value>0</value>
																</parameter>
																<parameter authoringApp="PremierePro">
																	<parameterid>center</parameterid>
																	<name>Center</name>
																	<value>
																		<horiz>0</horiz>
																		<vert>0.110156</vert>
																	</value>
																</parameter>
																<parameter authoringApp="PremierePro">
																	<parameterid>centerOffset</parameterid>
																	<name>Anchor Point</name>
																	<value>
																		<horiz>0</horiz>
																		<vert>0</vert>
																	</value>
																</parameter>
																<parameter authoringApp="PremierePro">
																	<parameterid>antiflicker</parameterid>
																	<name>Anti-flicker Filter</name>
																	<valuemin>0.0</valuemin>
																	<valuemax>1.0</valuemax>
																	<value>0</value>
																</parameter>
															</effect>
														</filter>
														<logginginfo>
															<description></description>
															<scene></scene>
															<shottake></shottake>
															<lognote></lognote>
															<good></good>
															<originalvideofilename></originalvideofilename>
															<originalaudiofilename></originalaudiofilename>
														</logginginfo>
														<colorinfo>
															<lut></lut>
															<lut1></lut1>
															<asc_sop></asc_sop>
															<asc_sat></asc_sat>
															<lut2></lut2>
														</colorinfo>
														<labels>
															<label2>Violet</label2>
														</labels>
													</clipitem>
													<clipitem id="clipitem-671">
														<masterclipid>masterclip-183</masterclipid>
														<name>(hamptonchocolatefactory)_7135104754333584683_TT.mp4</name>
														<enabled>TRUE</enabled>
														<duration>455</duration>
														<rate>
															<timebase>30</timebase>
															<ntsc>TRUE</ntsc>
														</rate>
														<start>1732</start>
														<end>2096</end>
														<in>64</in>
														<out>428</out>
														<pproTicksIn>542442700800</pproTicksIn>
														<pproTicksOut>3627585561600</pproTicksOut>
														<alphatype>none</alphatype>
														<pixelaspectratio>square</pixelaspectratio>
														<anamorphic>FALSE</anamorphic>
														<file id="file-177">
															<name>(hamptonchocolatefactory)_7135104754333584683_TT.mp4</name>
															<pathurl>file://localhost/Volumes/Satisfactum%20Satisfactorum/03_Weekly%20(Project%20Files,%20Main%20Segments)/OSTV/OSTV%2023-08-21/3_Raw%20Files/s'mores/(hamptonchocolatefactory)_7135104754333584683_TT.mp4</pathurl>
															<rate>
																<timebase>30</timebase>
																<ntsc>FALSE</ntsc>
															</rate>
															<duration>456</duration>
															<timecode>
																<rate>
																	<timebase>30</timebase>
																	<ntsc>FALSE</ntsc>
																</rate>
																<string>00:00:00:00</string>
																<frame>0</frame>
																<displayformat>NDF</displayformat>
															</timecode>
															<media>
																<video>
																	<samplecharacteristics>
																		<rate>
																			<timebase>30</timebase>
																			<ntsc>FALSE</ntsc>
																		</rate>
																		<width>576</width>
																		<height>1024</height>
																		<anamorphic>FALSE</anamorphic>
																		<pixelaspectratio>square</pixelaspectratio>
																		<fielddominance>none</fielddominance>
																	</samplecharacteristics>
																</video>
																<audio>
																	<samplecharacteristics>
																		<depth>16</depth>
																		<samplerate>44100</samplerate>
																	</samplecharacteristics>
																	<channelcount>2</channelcount>
																</audio>
															</media>
														</file>
														<filter>
															<effect>
																<name>Basic Motion</name>
																<effectid>basic</effectid>
																<effectcategory>motion</effectcategory>
																<effecttype>motion</effecttype>
																<mediatype>video</mediatype>
																<pproBypass>false</pproBypass>
																<parameter authoringApp="PremierePro">
																	<parameterid>scale</parameterid>
																	<name>Scale</name>
																	<valuemin>0</valuemin>
																	<valuemax>1000</valuemax>
																	<value>361.469</value>
																</parameter>
																<parameter authoringApp="PremierePro">
																	<parameterid>rotation</parameterid>
																	<name>Rotation</name>
																	<valuemin>-8640</valuemin>
																	<valuemax>8640</valuemax>
																	<value>0</value>
																</parameter>
																<parameter authoringApp="PremierePro">
																	<parameterid>center</parameterid>
																	<name>Center</name>
																	<value>
																		<horiz>0</horiz>
																		<vert>0</vert>
																	</value>
																</parameter>
																<parameter authoringApp="PremierePro">
																	<parameterid>centerOffset</parameterid>
																	<name>Anchor Point</name>
																	<value>
																		<horiz>0</horiz>
																		<vert>0</vert>
																	</value>
																</parameter>
																<parameter authoringApp="PremierePro">
																	<parameterid>antiflicker</parameterid>
																	<name>Anti-flicker Filter</name>
																	<valuemin>0.0</valuemin>
																	<valuemax>1.0</valuemax>
																	<value>0</value>
																</parameter>
															</effect>
														</filter>
														<filter>
															<effect>
																<name>Gaussian Blur</name>
																<effectid>Gaussian Blur</effectid>
																<effectcategory>Blur</effectcategory>
																<effecttype>motion</effecttype>
																<mediatype>video</mediatype>
																<pproBypass>false</pproBypass>
																<parameter authoringApp="PremierePro">
																	<parameterid>radius</parameterid>
																	<name>Radius</name>
																	<valuemin>0</valuemin>
																	<valuemax>100</valuemax>
																	<value>150</value>
																</parameter>
															</effect>
														</filter>
														<logginginfo>
															<description></description>
															<scene></scene>
															<shottake></shottake>
															<lognote></lognote>
															<good></good>
															<originalvideofilename></originalvideofilename>
															<originalaudiofilename></originalaudiofilename>
														</logginginfo>
														<colorinfo>
															<lut></lut>
															<lut1></lut1>
															<asc_sop></asc_sop>
															<asc_sat></asc_sat>
															<lut2></lut2>
														</colorinfo>
														<labels>
															<label2>Iris</label2>
														</labels>
													</clipitem>
													<clipitem id="clipitem-672">
														<masterclipid>masterclip-182</masterclipid>
														<name>(thesqueakymixer)_6973281507968355590_TT.mp4</name>
														<enabled>TRUE</enabled>
														<duration>863</duration>
														<rate>
															<timebase>30</timebase>
															<ntsc>TRUE</ntsc>
														</rate>
														<start>2096</start>
														<end>2447</end>
														<in>0</in>
														<out>351</out>
														<pproTicksIn>0</pproTicksIn>
														<pproTicksOut>2974959187200</pproTicksOut>
														<alphatype>none</alphatype>
														<file id="file-176"/>
														<filter>
															<effect>
																<name>Basic Motion</name>
																<effectid>basic</effectid>
																<effectcategory>motion</effectcategory>
																<effecttype>motion</effecttype>
																<mediatype>video</mediatype>
																<pproBypass>false</pproBypass>
																<parameter authoringApp="PremierePro">
																	<parameterid>scale</parameterid>
																	<name>Scale</name>
																	<valuemin>0</valuemin>
																	<valuemax>1000</valuemax>
																	<value>189.469</value>
																</parameter>
																<parameter authoringApp="PremierePro">
																	<parameterid>rotation</parameterid>
																	<name>Rotation</name>
																	<valuemin>-8640</valuemin>
																	<valuemax>8640</valuemax>
																	<value>0</value>
																</parameter>
																<parameter authoringApp="PremierePro">
																	<parameterid>center</parameterid>
																	<name>Center</name>
																	<value>
																		<horiz>0</horiz>
																		<vert>0</vert>
																	</value>
																</parameter>
																<parameter authoringApp="PremierePro">
																	<parameterid>centerOffset</parameterid>
																	<name>Anchor Point</name>
																	<value>
																		<horiz>0</horiz>
																		<vert>0</vert>
																	</value>
																</parameter>
																<parameter authoringApp="PremierePro">
																	<parameterid>antiflicker</parameterid>
																	<name>Anti-flicker Filter</name>
																	<valuemin>0.0</valuemin>
																	<valuemax>1.0</valuemax>
																	<value>0</value>
																</parameter>
															</effect>
														</filter>
														<logginginfo>
															<description></description>
															<scene></scene>
															<shottake></shottake>
															<lognote></lognote>
															<good></good>
															<originalvideofilename></originalvideofilename>
															<originalaudiofilename></originalaudiofilename>
														</logginginfo>
														<colorinfo>
															<lut></lut>
															<lut1></lut1>
															<asc_sop></asc_sop>
															<asc_sat></asc_sat>
															<lut2></lut2>
														</colorinfo>
														<labels>
															<label2>Iris</label2>
														</labels>
													</clipitem>
													<clipitem id="clipitem-673">
														<masterclipid>masterclip-182</masterclipid>
														<name>(thesqueakymixer)_6973281507968355590_TT.mp4</name>
														<enabled>TRUE</enabled>
														<duration>863</duration>
														<rate>
															<timebase>30</timebase>
															<ntsc>TRUE</ntsc>
														</rate>
														<start>2447</start>
														<end>2594</end>
														<in>351</in>
														<out>498</out>
														<pproTicksIn>2974959187200</pproTicksIn>
														<pproTicksOut>4220882265600</pproTicksOut>
														<alphatype>none</alphatype>
														<file id="file-176"/>
														<filter>
															<effect>
																<name>Basic Motion</name>
																<effectid>basic</effectid>
																<effectcategory>motion</effectcategory>
																<effecttype>motion</effecttype>
																<mediatype>video</mediatype>
																<pproBypass>false</pproBypass>
																<parameter authoringApp="PremierePro">
																	<parameterid>scale</parameterid>
																	<name>Scale</name>
																	<valuemin>0</valuemin>
																	<valuemax>1000</valuemax>
																	<value>189.469</value>
																</parameter>
																<parameter authoringApp="PremierePro">
																	<parameterid>rotation</parameterid>
																	<name>Rotation</name>
																	<valuemin>-8640</valuemin>
																	<valuemax>8640</valuemax>
																	<value>0</value>
																</parameter>
																<parameter authoringApp="PremierePro">
																	<parameterid>center</parameterid>
																	<name>Center</name>
																	<value>
																		<horiz>0</horiz>
																		<vert>-0.371094</vert>
																	</value>
																</parameter>
																<parameter authoringApp="PremierePro">
																	<parameterid>centerOffset</parameterid>
																	<name>Anchor Point</name>
																	<value>
																		<horiz>0</horiz>
																		<vert>0</vert>
																	</value>
																</parameter>
																<parameter authoringApp="PremierePro">
																	<parameterid>antiflicker</parameterid>
																	<name>Anti-flicker Filter</name>
																	<valuemin>0.0</valuemin>
																	<valuemax>1.0</valuemax>
																	<value>0</value>
																</parameter>
															</effect>
														</filter>
														<logginginfo>
															<description></description>
															<scene></scene>
															<shottake></shottake>
															<lognote></lognote>
															<good></good>
															<originalvideofilename></originalvideofilename>
															<originalaudiofilename></originalaudiofilename>
														</logginginfo>
														<colorinfo>
															<lut></lut>
															<lut1></lut1>
															<asc_sop></asc_sop>
															<asc_sat></asc_sat>
															<lut2></lut2>
														</colorinfo>
														<labels>
															<label2>Iris</label2>
														</labels>
													</clipitem>
													<clipitem id="clipitem-674">
														<masterclipid>masterclip-182</masterclipid>
														<name>(thesqueakymixer)_6973281507968355590_TT.mp4</name>
														<enabled>TRUE</enabled>
														<duration>863</duration>
														<rate>
															<timebase>30</timebase>
															<ntsc>TRUE</ntsc>
														</rate>
														<start>2594</start>
														<end>2654</end>
														<in>557</in>
														<out>617</out>
														<pproTicksIn>4720946630400</pproTicksIn>
														<pproTicksOut>5229486662400</pproTicksOut>
														<alphatype>none</alphatype>
														<file id="file-176"/>
														<filter>
															<effect>
																<name>Basic Motion</name>
																<effectid>basic</effectid>
																<effectcategory>motion</effectcategory>
																<effecttype>motion</effecttype>
																<mediatype>video</mediatype>
																<pproBypass>false</pproBypass>
																<parameter authoringApp="PremierePro">
																	<parameterid>scale</parameterid>
																	<name>Scale</name>
																	<valuemin>0</valuemin>
																	<valuemax>1000</valuemax>
																	<value>189.469</value>
																</parameter>
																<parameter authoringApp="PremierePro">
																	<parameterid>rotation</parameterid>
																	<name>Rotation</name>
																	<valuemin>-8640</valuemin>
																	<valuemax>8640</valuemax>
																	<value>0</value>
																</parameter>
																<parameter authoringApp="PremierePro">
																	<parameterid>center</parameterid>
																	<name>Center</name>
																	<value>
																		<horiz>0</horiz>
																		<vert>-0.371094</vert>
																	</value>
																</parameter>
																<parameter authoringApp="PremierePro">
																	<parameterid>centerOffset</parameterid>
																	<name>Anchor Point</name>
																	<value>
																		<horiz>0</horiz>
																		<vert>0</vert>
																	</value>
																</parameter>
																<parameter authoringApp="PremierePro">
																	<parameterid>antiflicker</parameterid>
																	<name>Anti-flicker Filter</name>
																	<valuemin>0.0</valuemin>
																	<valuemax>1.0</valuemax>
																	<value>0</value>
																</parameter>
															</effect>
														</filter>
														<logginginfo>
															<description></description>
															<scene></scene>
															<shottake></shottake>
															<lognote></lognote>
															<good></good>
															<originalvideofilename></originalvideofilename>
															<originalaudiofilename></originalaudiofilename>
														</logginginfo>
														<colorinfo>
															<lut></lut>
															<lut1></lut1>
															<asc_sop></asc_sop>
															<asc_sat></asc_sat>
															<lut2></lut2>
														</colorinfo>
														<labels>
															<label2>Iris</label2>
														</labels>
													</clipitem>
													<clipitem id="clipitem-675">
														<masterclipid>masterclip-182</masterclipid>
														<name>(thesqueakymixer)_6973281507968355590_TT.mp4</name>
														<enabled>TRUE</enabled>
														<duration>863</duration>
														<rate>
															<timebase>30</timebase>
															<ntsc>TRUE</ntsc>
														</rate>
														<start>2654</start>
														<end>2868</end>
														<in>649</in>
														<out>863</out>
														<pproTicksIn>5500708012800</pproTicksIn>
														<pproTicksOut>7314500793600</pproTicksOut>
														<alphatype>none</alphatype>
														<file id="file-176"/>
														<filter>
															<effect>
																<name>Basic Motion</name>
																<effectid>basic</effectid>
																<effectcategory>motion</effectcategory>
																<effecttype>motion</effecttype>
																<mediatype>video</mediatype>
																<pproBypass>false</pproBypass>
																<parameter authoringApp="PremierePro">
																	<parameterid>scale</parameterid>
																	<name>Scale</name>
																	<valuemin>0</valuemin>
																	<valuemax>1000</valuemax>
																	<value>189.469</value>
																</parameter>
																<parameter authoringApp="PremierePro">
																	<parameterid>rotation</parameterid>
																	<name>Rotation</name>
																	<valuemin>-8640</valuemin>
																	<valuemax>8640</valuemax>
																	<value>0</value>
																</parameter>
																<parameter authoringApp="PremierePro">
																	<parameterid>center</parameterid>
																	<name>Center</name>
																	<value>
																		<horiz>0</horiz>
																		<vert>0</vert>
																	</value>
																</parameter>
																<parameter authoringApp="PremierePro">
																	<parameterid>centerOffset</parameterid>
																	<name>Anchor Point</name>
																	<value>
																		<horiz>0</horiz>
																		<vert>0</vert>
																	</value>
																</parameter>
																<parameter authoringApp="PremierePro">
																	<parameterid>antiflicker</parameterid>
																	<name>Anti-flicker Filter</name>
																	<valuemin>0.0</valuemin>
																	<valuemax>1.0</valuemax>
																	<value>0</value>
																</parameter>
															</effect>
														</filter>
														<logginginfo>
															<description></description>
															<scene></scene>
															<shottake></shottake>
															<lognote></lognote>
															<good></good>
															<originalvideofilename></originalvideofilename>
															<originalaudiofilename></originalaudiofilename>
														</logginginfo>
														<colorinfo>
															<lut></lut>
															<lut1></lut1>
															<asc_sop></asc_sop>
															<asc_sat></asc_sat>
															<lut2></lut2>
														</colorinfo>
														<labels>
															<label2>Iris</label2>
														</labels>
													</clipitem>
													<enabled>TRUE</enabled>
													<locked>FALSE</locked>
												</track>
												<track TL.SQTrackShy="0" TL.SQTrackExpandedHeight="25" TL.SQTrackExpanded="0" MZ.TrackTargeted="0">
													<clipitem id="clipitem-676">
														<masterclipid>masterclip-122</masterclipid>
														<name>Adjustment Layer</name>
														<enabled>TRUE</enabled>
														<duration>1294705</duration>
														<rate>
															<timebase>30</timebase>
															<ntsc>TRUE</ntsc>
														</rate>
														<start>1036</start>
														<end>1732</end>
														<in>107892</in>
														<out>108588</out>
														<pproTicksIn>914456685542400</pproTicksIn>
														<pproTicksOut>920355749913600</pproTicksOut>
														<alphatype>none</alphatype>
														<file id="file-121"/>
														<filter>
															<effect>
																<name>Basic Motion</name>
																<effectid>basic</effectid>
																<effectcategory>motion</effectcategory>
																<effecttype>motion</effecttype>
																<mediatype>video</mediatype>
																<pproBypass>false</pproBypass>
																<parameter authoringApp="PremierePro">
																	<parameterid>scale</parameterid>
																	<name>Scale</name>
																	<valuemin>0</valuemin>
																	<valuemax>1000</valuemax>
																	<value>150</value>
																</parameter>
																<parameter authoringApp="PremierePro">
																	<parameterid>rotation</parameterid>
																	<name>Rotation</name>
																	<valuemin>-8640</valuemin>
																	<valuemax>8640</valuemax>
																	<value>0</value>
																</parameter>
																<parameter authoringApp="PremierePro">
																	<parameterid>center</parameterid>
																	<name>Center</name>
																	<value>
																		<horiz>0</horiz>
																		<vert>0</vert>
																	</value>
																</parameter>
																<parameter authoringApp="PremierePro">
																	<parameterid>centerOffset</parameterid>
																	<name>Anchor Point</name>
																	<value>
																		<horiz>0</horiz>
																		<vert>0</vert>
																	</value>
																</parameter>
																<parameter authoringApp="PremierePro">
																	<parameterid>antiflicker</parameterid>
																	<name>Anti-flicker Filter</name>
																	<valuemin>0.0</valuemin>
																	<valuemax>1.0</valuemax>
																	<value>0</value>
																</parameter>
															</effect>
														</filter>
														<filter>
															<effect>
																<name>Gaussian Blur</name>
																<effectid>Gaussian Blur</effectid>
																<effectcategory>Blur</effectcategory>
																<effecttype>motion</effecttype>
																<mediatype>video</mediatype>
																<pproBypass>false</pproBypass>
																<parameter authoringApp="PremierePro">
																	<parameterid>radius</parameterid>
																	<name>Radius</name>
																	<valuemin>0</valuemin>
																	<valuemax>100</valuemax>
																	<value>48</value>
																</parameter>
															</effect>
														</filter>
														<logginginfo>
															<description></description>
															<scene></scene>
															<shottake></shottake>
															<lognote></lognote>
															<good></good>
															<originalvideofilename></originalvideofilename>
															<originalaudiofilename></originalaudiofilename>
														</logginginfo>
														<colorinfo>
															<lut></lut>
															<lut1></lut1>
															<asc_sop></asc_sop>
															<asc_sat></asc_sat>
															<lut2></lut2>
														</colorinfo>
														<labels>
															<label2>Lavender</label2>
														</labels>
													</clipitem>
													<clipitem id="clipitem-677">
														<masterclipid>masterclip-183</masterclipid>
														<name>(hamptonchocolatefactory)_7135104754333584683_TT.mp4</name>
														<enabled>TRUE</enabled>
														<duration>455</duration>
														<rate>
															<timebase>30</timebase>
															<ntsc>TRUE</ntsc>
														</rate>
														<start>1732</start>
														<end>2096</end>
														<in>64</in>
														<out>428</out>
														<pproTicksIn>542442700800</pproTicksIn>
														<pproTicksOut>3627585561600</pproTicksOut>
														<alphatype>none</alphatype>
														<file id="file-177"/>
														<filter>
															<effect>
																<name>Basic Motion</name>
																<effectid>basic</effectid>
																<effectcategory>motion</effectcategory>
																<effecttype>motion</effecttype>
																<mediatype>video</mediatype>
																<pproBypass>false</pproBypass>
																<parameter authoringApp="PremierePro">
																	<parameterid>scale</parameterid>
																	<name>Scale</name>
																	<valuemin>0</valuemin>
																	<valuemax>1000</valuemax>
																	<value>189.469</value>
																</parameter>
																<parameter authoringApp="PremierePro">
																	<parameterid>rotation</parameterid>
																	<name>Rotation</name>
																	<valuemin>-8640</valuemin>
																	<valuemax>8640</valuemax>
																	<value>0</value>
																</parameter>
																<parameter authoringApp="PremierePro">
																	<parameterid>center</parameterid>
																	<name>Center</name>
																	<value>
																		<horiz>0</horiz>
																		<vert>0.0800781</vert>
																	</value>
																</parameter>
																<parameter authoringApp="PremierePro">
																	<parameterid>centerOffset</parameterid>
																	<name>Anchor Point</name>
																	<value>
																		<horiz>0</horiz>
																		<vert>0</vert>
																	</value>
																</parameter>
																<parameter authoringApp="PremierePro">
																	<parameterid>antiflicker</parameterid>
																	<name>Anti-flicker Filter</name>
																	<valuemin>0.0</valuemin>
																	<valuemax>1.0</valuemax>
																	<value>0</value>
																</parameter>
															</effect>
														</filter>
														<logginginfo>
															<description></description>
															<scene></scene>
															<shottake></shottake>
															<lognote></lognote>
															<good></good>
															<originalvideofilename></originalvideofilename>
															<originalaudiofilename></originalaudiofilename>
														</logginginfo>
														<colorinfo>
															<lut></lut>
															<lut1></lut1>
															<asc_sop></asc_sop>
															<asc_sat></asc_sat>
															<lut2></lut2>
														</colorinfo>
														<labels>
															<label2>Iris</label2>
														</labels>
													</clipitem>
													<enabled>TRUE</enabled>
													<locked>FALSE</locked>
												</track>
												<track TL.SQTrackShy="0" TL.SQTrackExpandedHeight="25" TL.SQTrackExpanded="0" MZ.TrackTargeted="0">
													<clipitem id="clipitem-678">
														<masterclipid>masterclip-48</masterclipid>
														<name>sophiabakessometimes</name>
														<enabled>TRUE</enabled>
														<duration>5844</duration>
														<rate>
															<timebase>30</timebase>
															<ntsc>TRUE</ntsc>
														</rate>
														<start>0</start>
														<end>1036</end>
														<in>0</in>
														<out>1036</out>
														<pproTicksIn>0</pproTicksIn>
														<pproTicksOut>8780791219200</pproTicksOut>
														<alphatype>straight</alphatype>
														<file id="file-48"/>
														<filter>
															<effect>
																<name>Basic Motion</name>
																<effectid>basic</effectid>
																<effectcategory>motion</effectcategory>
																<effecttype>motion</effecttype>
																<mediatype>video</mediatype>
																<pproBypass>false</pproBypass>
																<parameter authoringApp="PremierePro">
																	<parameterid>scale</parameterid>
																	<name>Scale</name>
																	<valuemin>0</valuemin>
																	<valuemax>1000</valuemax>
																	<value>150</value>
																</parameter>
																<parameter authoringApp="PremierePro">
																	<parameterid>rotation</parameterid>
																	<name>Rotation</name>
																	<valuemin>-8640</valuemin>
																	<valuemax>8640</valuemax>
																	<value>0</value>
																</parameter>
																<parameter authoringApp="PremierePro">
																	<parameterid>center</parameterid>
																	<name>Center</name>
																	<value>
																		<horiz>0</horiz>
																		<vert>0</vert>
																	</value>
																</parameter>
																<parameter authoringApp="PremierePro">
																	<parameterid>centerOffset</parameterid>
																	<name>Anchor Point</name>
																	<value>
																		<horiz>0</horiz>
																		<vert>0</vert>
																	</value>
																</parameter>
																<parameter authoringApp="PremierePro">
																	<parameterid>antiflicker</parameterid>
																	<name>Anti-flicker Filter</name>
																	<valuemin>0.0</valuemin>
																	<valuemax>1.0</valuemax>
																	<value>0</value>
																</parameter>
															</effect>
														</filter>
														<logginginfo>
															<description></description>
															<scene></scene>
															<shottake></shottake>
															<lognote></lognote>
															<good></good>
															<originalvideofilename></originalvideofilename>
															<originalaudiofilename></originalaudiofilename>
														</logginginfo>
														<colorinfo>
															<lut></lut>
															<lut1></lut1>
															<asc_sop></asc_sop>
															<asc_sat></asc_sat>
															<lut2></lut2>
														</colorinfo>
														<labels>
															<label2>Rose</label2>
														</labels>
													</clipitem>
													<clipitem id="clipitem-679">
														<masterclipid>masterclip-49</masterclipid>
														<name>_sophieskitchen</name>
														<enabled>TRUE</enabled>
														<duration>5844</duration>
														<rate>
															<timebase>30</timebase>
															<ntsc>TRUE</ntsc>
														</rate>
														<start>1036</start>
														<end>1732</end>
														<in>0</in>
														<out>696</out>
														<pproTicksIn>0</pproTicksIn>
														<pproTicksOut>5899064371200</pproTicksOut>
														<alphatype>straight</alphatype>
														<file id="file-49"/>
														<filter>
															<effect>
																<name>Basic Motion</name>
																<effectid>basic</effectid>
																<effectcategory>motion</effectcategory>
																<effecttype>motion</effecttype>
																<mediatype>video</mediatype>
																<pproBypass>false</pproBypass>
																<parameter authoringApp="PremierePro">
																	<parameterid>scale</parameterid>
																	<name>Scale</name>
																	<valuemin>0</valuemin>
																	<valuemax>1000</valuemax>
																	<value>150</value>
																</parameter>
																<parameter authoringApp="PremierePro">
																	<parameterid>rotation</parameterid>
																	<name>Rotation</name>
																	<valuemin>-8640</valuemin>
																	<valuemax>8640</valuemax>
																	<value>0</value>
																</parameter>
																<parameter authoringApp="PremierePro">
																	<parameterid>center</parameterid>
																	<name>Center</name>
																	<value>
																		<horiz>0</horiz>
																		<vert>0</vert>
																	</value>
																</parameter>
																<parameter authoringApp="PremierePro">
																	<parameterid>centerOffset</parameterid>
																	<name>Anchor Point</name>
																	<value>
																		<horiz>0</horiz>
																		<vert>0</vert>
																	</value>
																</parameter>
																<parameter authoringApp="PremierePro">
																	<parameterid>antiflicker</parameterid>
																	<name>Anti-flicker Filter</name>
																	<valuemin>0.0</valuemin>
																	<valuemax>1.0</valuemax>
																	<value>0</value>
																</parameter>
															</effect>
														</filter>
														<logginginfo>
															<description></description>
															<scene></scene>
															<shottake></shottake>
															<lognote></lognote>
															<good></good>
															<originalvideofilename></originalvideofilename>
															<originalaudiofilename></originalaudiofilename>
														</logginginfo>
														<colorinfo>
															<lut></lut>
															<lut1></lut1>
															<asc_sop></asc_sop>
															<asc_sat></asc_sat>
															<lut2></lut2>
														</colorinfo>
														<labels>
															<label2>Rose</label2>
														</labels>
													</clipitem>
													<clipitem id="clipitem-680">
														<masterclipid>masterclip-50</masterclipid>
														<name>hamptonchocolatefactory</name>
														<enabled>TRUE</enabled>
														<duration>5844</duration>
														<rate>
															<timebase>30</timebase>
															<ntsc>TRUE</ntsc>
														</rate>
														<start>1732</start>
														<end>2096</end>
														<in>0</in>
														<out>364</out>
														<pproTicksIn>0</pproTicksIn>
														<pproTicksOut>3085142860800</pproTicksOut>
														<alphatype>straight</alphatype>
														<file id="file-50"/>
														<filter>
															<effect>
																<name>Basic Motion</name>
																<effectid>basic</effectid>
																<effectcategory>motion</effectcategory>
																<effecttype>motion</effecttype>
																<mediatype>video</mediatype>
																<pproBypass>false</pproBypass>
																<parameter authoringApp="PremierePro">
																	<parameterid>scale</parameterid>
																	<name>Scale</name>
																	<valuemin>0</valuemin>
																	<valuemax>1000</valuemax>
																	<value>150</value>
																</parameter>
																<parameter authoringApp="PremierePro">
																	<parameterid>rotation</parameterid>
																	<name>Rotation</name>
																	<valuemin>-8640</valuemin>
																	<valuemax>8640</valuemax>
																	<value>0</value>
																</parameter>
																<parameter authoringApp="PremierePro">
																	<parameterid>center</parameterid>
																	<name>Center</name>
																	<value>
																		<horiz>0</horiz>
																		<vert>0</vert>
																	</value>
																</parameter>
																<parameter authoringApp="PremierePro">
																	<parameterid>centerOffset</parameterid>
																	<name>Anchor Point</name>
																	<value>
																		<horiz>0</horiz>
																		<vert>0</vert>
																	</value>
																</parameter>
																<parameter authoringApp="PremierePro">
																	<parameterid>antiflicker</parameterid>
																	<name>Anti-flicker Filter</name>
																	<valuemin>0.0</valuemin>
																	<valuemax>1.0</valuemax>
																	<value>0</value>
																</parameter>
															</effect>
														</filter>
														<logginginfo>
															<description></description>
															<scene></scene>
															<shottake></shottake>
															<lognote></lognote>
															<good></good>
															<originalvideofilename></originalvideofilename>
															<originalaudiofilename></originalaudiofilename>
														</logginginfo>
														<colorinfo>
															<lut></lut>
															<lut1></lut1>
															<asc_sop></asc_sop>
															<asc_sat></asc_sat>
															<lut2></lut2>
														</colorinfo>
														<labels>
															<label2>Rose</label2>
														</labels>
													</clipitem>
													<clipitem id="clipitem-681">
														<masterclipid>masterclip-51</masterclipid>
														<name>thesqueakymixer</name>
														<enabled>TRUE</enabled>
														<duration>5844</duration>
														<rate>
															<timebase>30</timebase>
															<ntsc>TRUE</ntsc>
														</rate>
														<start>2096</start>
														<end>2868</end>
														<in>0</in>
														<out>772</out>
														<pproTicksIn>0</pproTicksIn>
														<pproTicksOut>6543215078400</pproTicksOut>
														<alphatype>straight</alphatype>
														<file id="file-51"/>
														<filter>
															<effect>
																<name>Basic Motion</name>
																<effectid>basic</effectid>
																<effectcategory>motion</effectcategory>
																<effecttype>motion</effecttype>
																<mediatype>video</mediatype>
																<pproBypass>false</pproBypass>
																<parameter authoringApp="PremierePro">
																	<parameterid>scale</parameterid>
																	<name>Scale</name>
																	<valuemin>0</valuemin>
																	<valuemax>1000</valuemax>
																	<value>150</value>
																</parameter>
																<parameter authoringApp="PremierePro">
																	<parameterid>rotation</parameterid>
																	<name>Rotation</name>
																	<valuemin>-8640</valuemin>
																	<valuemax>8640</valuemax>
																	<value>0</value>
																</parameter>
																<parameter authoringApp="PremierePro">
																	<parameterid>center</parameterid>
																	<name>Center</name>
																	<value>
																		<horiz>0</horiz>
																		<vert>0</vert>
																	</value>
																</parameter>
																<parameter authoringApp="PremierePro">
																	<parameterid>centerOffset</parameterid>
																	<name>Anchor Point</name>
																	<value>
																		<horiz>0</horiz>
																		<vert>0</vert>
																	</value>
																</parameter>
																<parameter authoringApp="PremierePro">
																	<parameterid>antiflicker</parameterid>
																	<name>Anti-flicker Filter</name>
																	<valuemin>0.0</valuemin>
																	<valuemax>1.0</valuemax>
																	<value>0</value>
																</parameter>
															</effect>
														</filter>
														<logginginfo>
															<description></description>
															<scene></scene>
															<shottake></shottake>
															<lognote></lognote>
															<good></good>
															<originalvideofilename></originalvideofilename>
															<originalaudiofilename></originalaudiofilename>
														</logginginfo>
														<colorinfo>
															<lut></lut>
															<lut1></lut1>
															<asc_sop></asc_sop>
															<asc_sat></asc_sat>
															<lut2></lut2>
														</colorinfo>
														<labels>
															<label2>Rose</label2>
														</labels>
													</clipitem>
													<enabled>TRUE</enabled>
													<locked>FALSE</locked>
												</track>
												<track TL.SQTrackShy="0" TL.SQTrackExpandedHeight="25" TL.SQTrackExpanded="0" MZ.TrackTargeted="0">
													<clipitem id="clipitem-682">
														<masterclipid>masterclip-106</masterclipid>
														<name>Bug and Lower Nest</name>
														<enabled>TRUE</enabled>
														<duration>14721</duration>
														<rate>
															<timebase>30</timebase>
															<ntsc>TRUE</ntsc>
														</rate>
														<start>0</start>
														<end>2868</end>
														<in>0</in>
														<out>2868</out>
														<pproTicksIn>0</pproTicksIn>
														<pproTicksOut>24308213529600</pproTicksOut>
														<sequence id="sequence-1"/>
														<labels>
															<label2>Cerulean</label2>
														</labels>
													</clipitem>
													<enabled>TRUE</enabled>
													<locked>FALSE</locked>
												</track>
											</video>
											<audio>
												<numOutputChannels>2</numOutputChannels>
												<format>
													<samplecharacteristics>
														<depth>16</depth>
														<samplerate>44100</samplerate>
													</samplecharacteristics>
												</format>
												<outputs>
													<group>
														<index>1</index>
														<numchannels>1</numchannels>
														<downmix>0</downmix>
														<channel>
															<index>1</index>
														</channel>
													</group>
													<group>
														<index>2</index>
														<numchannels>1</numchannels>
														<downmix>0</downmix>
														<channel>
															<index>2</index>
														</channel>
													</group>
												</outputs>
												<track TL.SQTrackAudioKeyframeStyle="0" TL.SQTrackShy="0" TL.SQTrackExpandedHeight="25" TL.SQTrackExpanded="0" MZ.TrackTargeted="1" PannerCurrentValue="0.5" PannerIsInverted="true" PannerStartKeyframe="-91445760000000000,0.5,0,0,0,0,0,0" PannerName="Balance" currentExplodedTrackIndex="0" totalExplodedTrackCount="2" premiereTrackType="Stereo">
													<enabled>TRUE</enabled>
													<locked>FALSE</locked>
													<filter>
														<effect>
															<name>Audio Levels</name>
															<effectid>audiolevels</effectid>
															<effectcategory>audiolevels</effectcategory>
															<effecttype>audiolevels</effecttype>
															<mediatype>audio</mediatype>
															<parameter authoringApp="PremierePro">
																<parameterid>level</parameterid>
																<name>Level</name>
																<valuemin>0</valuemin>
																<valuemax>3.98109</valuemax>
																<value>0.706272</value>
															</parameter>
														</effect>
													</filter>
													<outputchannelindex>1</outputchannelindex>
												</track>
												<track TL.SQTrackAudioKeyframeStyle="0" TL.SQTrackShy="0" TL.SQTrackExpandedHeight="25" TL.SQTrackExpanded="0" MZ.TrackTargeted="1" PannerCurrentValue="0.5" PannerIsInverted="true" PannerStartKeyframe="-91445760000000000,0.5,0,0,0,0,0,0" PannerName="Balance" currentExplodedTrackIndex="1" totalExplodedTrackCount="2" premiereTrackType="Stereo">
													<enabled>TRUE</enabled>
													<locked>FALSE</locked>
													<filter>
														<effect>
															<name>Audio Levels</name>
															<effectid>audiolevels</effectid>
															<effectcategory>audiolevels</effectcategory>
															<effecttype>audiolevels</effecttype>
															<mediatype>audio</mediatype>
															<parameter authoringApp="PremierePro">
																<parameterid>level</parameterid>
																<name>Level</name>
																<valuemin>0</valuemin>
																<valuemax>3.98109</valuemax>
																<value>0.706272</value>
															</parameter>
														</effect>
													</filter>
													<outputchannelindex>2</outputchannelindex>
												</track>
											</audio>
										</media>
										<timecode>
											<rate>
												<timebase>30</timebase>
												<ntsc>TRUE</ntsc>
											</rate>
											<string>00:00:00:00</string>
											<frame>0</frame>
											<displayformat>NDF</displayformat>
										</timecode>
										<labels>
											<label2>Forest</label2>
										</labels>
										<logginginfo>
											<description></description>
											<scene></scene>
											<shottake></shottake>
											<lognote></lognote>
											<good></good>
											<originalvideofilename></originalvideofilename>
											<originalaudiofilename></originalaudiofilename>
										</logginginfo>
									</sequence>
									<sequence id="sequence-68" TL.SQAudioVisibleBase="0" TL.SQVideoVisibleBase="0" TL.SQVisibleBaseTime="0" TL.SQAVDividerPosition="0.5" TL.SQHideShyTracks="0" TL.SQHeaderWidth="236" TL.SQDataTrackViewControlState="0" Monitor.ProgramZoomOut="22553750419200" Monitor.ProgramZoomIn="0" TL.SQTimePerPixel="0.081980397417949907" AM.TrackVScrollPosition="0" AM.TrackScrollPosition="0" MZ.EditLine="13459359513600" MZ.Sequence.PreviewFrameSizeHeight="1080" MZ.Sequence.PreviewFrameSizeWidth="1920" MZ.Sequence.AudioTimeDisplayFormat="200" MZ.Sequence.PreviewRenderingClassID="1297106761" MZ.Sequence.PreviewRenderingPresetCodec="1297107278" MZ.Sequence.PreviewRenderingPresetPath="EncoderPresets/SequencePreview/795454d9-d3c2-429d-9474-923ab13b7018/I-Frame Only MPEG.epr" MZ.Sequence.PreviewUseMaxRenderQuality="false" MZ.Sequence.PreviewUseMaxBitDepth="false" MZ.Sequence.EditingModeGUID="795454d9-d3c2-429d-9474-923ab13b7018" MZ.Sequence.VideoTimeDisplayFormat="103" MZ.WorkOutPoint="26096579308800" MZ.WorkInPoint="0" explodedTracks="true">
										<uuid>8c84deaf-1ae3-4ad8-ae84-86f7e9531836</uuid>
										<duration>2661</duration>
										<rate>
											<timebase>30</timebase>
											<ntsc>TRUE</ntsc>
										</rate>
										<out>2661</out>
										<name>MACRO_yt object_1.5</name>
										<media>
											<video>
												<format>
													<samplecharacteristics>
														<rate>
															<timebase>30</timebase>
															<ntsc>TRUE</ntsc>
														</rate>
														<codec>
															<name>Apple ProRes 422</name>
															<appspecificdata>
																<appname>Final Cut Pro</appname>
																<appmanufacturer>Apple Inc.</appmanufacturer>
																<appversion>7.0</appversion>
																<data>
																	<qtcodec>
																		<codecname>Apple ProRes 422</codecname>
																		<codectypename>Apple ProRes 422</codectypename>
																		<codectypecode>apcn</codectypecode>
																		<codecvendorcode>appl</codecvendorcode>
																		<spatialquality>1024</spatialquality>
																		<temporalquality>0</temporalquality>
																		<keyframerate>0</keyframerate>
																		<datarate>0</datarate>
																	</qtcodec>
																</data>
															</appspecificdata>
														</codec>
														<width>1920</width>
														<height>1080</height>
														<anamorphic>FALSE</anamorphic>
														<pixelaspectratio>square</pixelaspectratio>
														<fielddominance>none</fielddominance>
														<colordepth>24</colordepth>
													</samplecharacteristics>
												</format>
												<track TL.SQTrackShy="0" TL.SQTrackExpandedHeight="25" TL.SQTrackExpanded="0" MZ.TrackTargeted="1">
													<clipitem id="clipitem-683">
														<masterclipid>masterclip-184</masterclipid>
														<name>(YT Object)_New Compilation Of The Best Close-Up Videos from OBJECT_Lyv_K_vVcuU_YT.mp4</name>
														<enabled>TRUE</enabled>
														<duration>14408</duration>
														<rate>
															<timebase>30</timebase>
															<ntsc>TRUE</ntsc>
														</rate>
														<start>0</start>
														<end>306</end>
														<in>418</in>
														<out>724</out>
														<pproTicksIn>3542828889600</pproTicksIn>
														<pproTicksOut>6136383052800</pproTicksOut>
														<alphatype>none</alphatype>
														<pixelaspectratio>square</pixelaspectratio>
														<anamorphic>FALSE</anamorphic>
														<file id="file-178">
															<name>(YT Object)_New Compilation Of The Best Close-Up Videos from OBJECT_Lyv_K_vVcuU_YT.mp4</name>
															<pathurl>file://localhost/Volumes/Satisfactum%20Satisfactorum/03_Weekly%20(Project%20Files,%20Main%20Segments)/OSTV/OSTV%2023-08-21/3_Raw%20Files/(YT%20Object)_New%20Compilation%20Of%20The%20Best%20Close-Up%20Videos%20from%20OBJECT_Lyv_K_vVcuU_YT.mp4</pathurl>
															<rate>
																<timebase>30</timebase>
																<ntsc>TRUE</ntsc>
															</rate>
															<duration>14408</duration>
															<timecode>
																<rate>
																	<timebase>30</timebase>
																	<ntsc>TRUE</ntsc>
																</rate>
																<string>00:00:00:00</string>
																<frame>0</frame>
																<displayformat>NDF</displayformat>
															</timecode>
															<media>
																<video>
																	<samplecharacteristics>
																		<rate>
																			<timebase>30</timebase>
																			<ntsc>TRUE</ntsc>
																		</rate>
																		<width>1080</width>
																		<height>1920</height>
																		<anamorphic>FALSE</anamorphic>
																		<pixelaspectratio>square</pixelaspectratio>
																		<fielddominance>none</fielddominance>
																	</samplecharacteristics>
																</video>
																<audio>
																	<samplecharacteristics>
																		<depth>16</depth>
																		<samplerate>44100</samplerate>
																	</samplecharacteristics>
																	<channelcount>2</channelcount>
																</audio>
															</media>
														</file>
														<filter>
															<effect>
																<name>Basic Motion</name>
																<effectid>basic</effectid>
																<effectcategory>motion</effectcategory>
																<effecttype>motion</effecttype>
																<mediatype>video</mediatype>
																<pproBypass>false</pproBypass>
																<parameter authoringApp="PremierePro">
																	<parameterid>scale</parameterid>
																	<name>Scale</name>
																	<valuemin>0</valuemin>
																	<valuemax>1000</valuemax>
																	<value>195.25</value>
																</parameter>
																<parameter authoringApp="PremierePro">
																	<parameterid>rotation</parameterid>
																	<name>Rotation</name>
																	<valuemin>-8640</valuemin>
																	<valuemax>8640</valuemax>
																	<value>0</value>
																</parameter>
																<parameter authoringApp="PremierePro">
																	<parameterid>center</parameterid>
																	<name>Center</name>
																	<value>
																		<horiz>0</horiz>
																		<vert>0</vert>
																	</value>
																</parameter>
																<parameter authoringApp="PremierePro">
																	<parameterid>centerOffset</parameterid>
																	<name>Anchor Point</name>
																	<value>
																		<horiz>0</horiz>
																		<vert>0</vert>
																	</value>
																</parameter>
																<parameter authoringApp="PremierePro">
																	<parameterid>antiflicker</parameterid>
																	<name>Anti-flicker Filter</name>
																	<valuemin>0.0</valuemin>
																	<valuemax>1.0</valuemax>
																	<value>0</value>
																</parameter>
															</effect>
														</filter>
														<filter>
															<effect>
																<name>Gaussian Blur</name>
																<effectid>Gaussian Blur</effectid>
																<effectcategory>Blur</effectcategory>
																<effecttype>motion</effecttype>
																<mediatype>video</mediatype>
																<pproBypass>false</pproBypass>
																<parameter authoringApp="PremierePro">
																	<parameterid>radius</parameterid>
																	<name>Radius</name>
																	<valuemin>0</valuemin>
																	<valuemax>100</valuemax>
																	<value>150</value>
																</parameter>
															</effect>
														</filter>
														<logginginfo>
															<description></description>
															<scene></scene>
															<shottake></shottake>
															<lognote>https://www.youtube.com/watch?v=Lyv_K_vVcuU</lognote>
															<good></good>
															<originalvideofilename></originalvideofilename>
															<originalaudiofilename></originalaudiofilename>
														</logginginfo>
														<colorinfo>
															<lut></lut>
															<lut1></lut1>
															<asc_sop></asc_sop>
															<asc_sat></asc_sat>
															<lut2></lut2>
														</colorinfo>
														<labels>
															<label2>Iris</label2>
														</labels>
													</clipitem>
													<clipitem id="clipitem-684">
														<masterclipid>masterclip-184</masterclipid>
														<name>(YT Object)_New Compilation Of The Best Close-Up Videos from OBJECT_Lyv_K_vVcuU_YT.mp4</name>
														<enabled>TRUE</enabled>
														<duration>14408</duration>
														<rate>
															<timebase>30</timebase>
															<ntsc>TRUE</ntsc>
														</rate>
														<start>306</start>
														<end>596</end>
														<in>1047</in>
														<out>1337</out>
														<pproTicksIn>8874023558400</pproTicksIn>
														<pproTicksOut>11331967046400</pproTicksOut>
														<alphatype>none</alphatype>
														<file id="file-178"/>
														<filter>
															<effect>
																<name>Basic Motion</name>
																<effectid>basic</effectid>
																<effectcategory>motion</effectcategory>
																<effecttype>motion</effecttype>
																<mediatype>video</mediatype>
																<pproBypass>false</pproBypass>
																<parameter authoringApp="PremierePro">
																	<parameterid>scale</parameterid>
																	<name>Scale</name>
																	<valuemin>0</valuemin>
																	<valuemax>1000</valuemax>
																	<value>195.25</value>
																</parameter>
																<parameter authoringApp="PremierePro">
																	<parameterid>rotation</parameterid>
																	<name>Rotation</name>
																	<valuemin>-8640</valuemin>
																	<valuemax>8640</valuemax>
																	<value>0</value>
																</parameter>
																<parameter authoringApp="PremierePro">
																	<parameterid>center</parameterid>
																	<name>Center</name>
																	<value>
																		<horiz>0</horiz>
																		<vert>0</vert>
																	</value>
																</parameter>
																<parameter authoringApp="PremierePro">
																	<parameterid>centerOffset</parameterid>
																	<name>Anchor Point</name>
																	<value>
																		<horiz>0</horiz>
																		<vert>0</vert>
																	</value>
																</parameter>
																<parameter authoringApp="PremierePro">
																	<parameterid>antiflicker</parameterid>
																	<name>Anti-flicker Filter</name>
																	<valuemin>0.0</valuemin>
																	<valuemax>1.0</valuemax>
																	<value>0</value>
																</parameter>
															</effect>
														</filter>
														<filter>
															<effect>
																<name>Gaussian Blur</name>
																<effectid>Gaussian Blur</effectid>
																<effectcategory>Blur</effectcategory>
																<effecttype>motion</effecttype>
																<mediatype>video</mediatype>
																<pproBypass>false</pproBypass>
																<parameter authoringApp="PremierePro">
																	<parameterid>radius</parameterid>
																	<name>Radius</name>
																	<valuemin>0</valuemin>
																	<valuemax>100</valuemax>
																	<value>150</value>
																</parameter>
															</effect>
														</filter>
														<logginginfo>
															<description></description>
															<scene></scene>
															<shottake></shottake>
															<lognote>https://www.youtube.com/watch?v=Lyv_K_vVcuU</lognote>
															<good></good>
															<originalvideofilename></originalvideofilename>
															<originalaudiofilename></originalaudiofilename>
														</logginginfo>
														<colorinfo>
															<lut></lut>
															<lut1></lut1>
															<asc_sop></asc_sop>
															<asc_sat></asc_sat>
															<lut2></lut2>
														</colorinfo>
														<labels>
															<label2>Iris</label2>
														</labels>
													</clipitem>
													<clipitem id="clipitem-685">
														<masterclipid>masterclip-184</masterclipid>
														<name>(YT Object)_New Compilation Of The Best Close-Up Videos from OBJECT_Lyv_K_vVcuU_YT.mp4</name>
														<enabled>TRUE</enabled>
														<duration>14408</duration>
														<rate>
															<timebase>30</timebase>
															<ntsc>TRUE</ntsc>
														</rate>
														<start>596</start>
														<end>1493</end>
														<in>1950</in>
														<out>2847</out>
														<pproTicksIn>16527551040000</pproTicksIn>
														<pproTicksOut>24130224518400</pproTicksOut>
														<alphatype>none</alphatype>
														<file id="file-178"/>
														<filter>
															<effect>
																<name>Basic Motion</name>
																<effectid>basic</effectid>
																<effectcategory>motion</effectcategory>
																<effecttype>motion</effecttype>
																<mediatype>video</mediatype>
																<pproBypass>false</pproBypass>
																<parameter authoringApp="PremierePro">
																	<parameterid>scale</parameterid>
																	<name>Scale</name>
																	<valuemin>0</valuemin>
																	<valuemax>1000</valuemax>
																	<value>195.25</value>
																</parameter>
																<parameter authoringApp="PremierePro">
																	<parameterid>rotation</parameterid>
																	<name>Rotation</name>
																	<valuemin>-8640</valuemin>
																	<valuemax>8640</valuemax>
																	<value>0</value>
																</parameter>
																<parameter authoringApp="PremierePro">
																	<parameterid>center</parameterid>
																	<name>Center</name>
																	<value>
																		<horiz>0</horiz>
																		<vert>0</vert>
																	</value>
																</parameter>
																<parameter authoringApp="PremierePro">
																	<parameterid>centerOffset</parameterid>
																	<name>Anchor Point</name>
																	<value>
																		<horiz>0</horiz>
																		<vert>0</vert>
																	</value>
																</parameter>
																<parameter authoringApp="PremierePro">
																	<parameterid>antiflicker</parameterid>
																	<name>Anti-flicker Filter</name>
																	<valuemin>0.0</valuemin>
																	<valuemax>1.0</valuemax>
																	<value>0</value>
																</parameter>
															</effect>
														</filter>
														<filter>
															<effect>
																<name>Gaussian Blur</name>
																<effectid>Gaussian Blur</effectid>
																<effectcategory>Blur</effectcategory>
																<effecttype>motion</effecttype>
																<mediatype>video</mediatype>
																<pproBypass>false</pproBypass>
																<parameter authoringApp="PremierePro">
																	<parameterid>radius</parameterid>
																	<name>Radius</name>
																	<valuemin>0</valuemin>
																	<valuemax>100</valuemax>
																	<value>150</value>
																</parameter>
															</effect>
														</filter>
														<link>
															<linkclipref>clipitem-685</linkclipref>
															<mediatype>video</mediatype>
															<trackindex>1</trackindex>
															<clipindex>3</clipindex>
														</link>
														<link>
															<linkclipref>clipitem-697</linkclipref>
															<mediatype>audio</mediatype>
															<trackindex>1</trackindex>
															<clipindex>5</clipindex>
															<groupindex>1</groupindex>
														</link>
														<link>
															<linkclipref>clipitem-702</linkclipref>
															<mediatype>audio</mediatype>
															<trackindex>2</trackindex>
															<clipindex>5</clipindex>
															<groupindex>1</groupindex>
														</link>
														<logginginfo>
															<description></description>
															<scene></scene>
															<shottake></shottake>
															<lognote>https://www.youtube.com/watch?v=Lyv_K_vVcuU</lognote>
															<good></good>
															<originalvideofilename></originalvideofilename>
															<originalaudiofilename></originalaudiofilename>
														</logginginfo>
														<colorinfo>
															<lut></lut>
															<lut1></lut1>
															<asc_sop></asc_sop>
															<asc_sat></asc_sat>
															<lut2></lut2>
														</colorinfo>
														<labels>
															<label2>Iris</label2>
														</labels>
													</clipitem>
													<clipitem id="clipitem-686">
														<masterclipid>masterclip-184</masterclipid>
														<name>(YT Object)_New Compilation Of The Best Close-Up Videos from OBJECT_Lyv_K_vVcuU_YT.mp4</name>
														<enabled>TRUE</enabled>
														<duration>14408</duration>
														<rate>
															<timebase>30</timebase>
															<ntsc>TRUE</ntsc>
														</rate>
														<start>1493</start>
														<end>2353</end>
														<in>3458</in>
														<out>4318</out>
														<pproTicksIn>29308857177600</pproTicksIn>
														<pproTicksOut>36597930969600</pproTicksOut>
														<alphatype>none</alphatype>
														<file id="file-178"/>
														<filter>
															<effect>
																<name>Basic Motion</name>
																<effectid>basic</effectid>
																<effectcategory>motion</effectcategory>
																<effecttype>motion</effecttype>
																<mediatype>video</mediatype>
																<pproBypass>false</pproBypass>
																<parameter authoringApp="PremierePro">
																	<parameterid>scale</parameterid>
																	<name>Scale</name>
																	<valuemin>0</valuemin>
																	<valuemax>1000</valuemax>
																	<value>195.25</value>
																</parameter>
																<parameter authoringApp="PremierePro">
																	<parameterid>rotation</parameterid>
																	<name>Rotation</name>
																	<valuemin>-8640</valuemin>
																	<valuemax>8640</valuemax>
																	<value>0</value>
																</parameter>
																<parameter authoringApp="PremierePro">
																	<parameterid>center</parameterid>
																	<name>Center</name>
																	<value>
																		<horiz>0</horiz>
																		<vert>0</vert>
																	</value>
																</parameter>
																<parameter authoringApp="PremierePro">
																	<parameterid>centerOffset</parameterid>
																	<name>Anchor Point</name>
																	<value>
																		<horiz>0</horiz>
																		<vert>0</vert>
																	</value>
																</parameter>
																<parameter authoringApp="PremierePro">
																	<parameterid>antiflicker</parameterid>
																	<name>Anti-flicker Filter</name>
																	<valuemin>0.0</valuemin>
																	<valuemax>1.0</valuemax>
																	<value>0</value>
																</parameter>
															</effect>
														</filter>
														<filter>
															<effect>
																<name>Gaussian Blur</name>
																<effectid>Gaussian Blur</effectid>
																<effectcategory>Blur</effectcategory>
																<effecttype>motion</effecttype>
																<mediatype>video</mediatype>
																<pproBypass>false</pproBypass>
																<parameter authoringApp="PremierePro">
																	<parameterid>radius</parameterid>
																	<name>Radius</name>
																	<valuemin>0</valuemin>
																	<valuemax>100</valuemax>
																	<value>150</value>
																</parameter>
															</effect>
														</filter>
														<link>
															<linkclipref>clipitem-686</linkclipref>
															<mediatype>video</mediatype>
															<trackindex>1</trackindex>
															<clipindex>4</clipindex>
														</link>
														<link>
															<linkclipref>clipitem-698</linkclipref>
															<mediatype>audio</mediatype>
															<trackindex>1</trackindex>
															<clipindex>7</clipindex>
															<groupindex>1</groupindex>
														</link>
														<link>
															<linkclipref>clipitem-703</linkclipref>
															<mediatype>audio</mediatype>
															<trackindex>2</trackindex>
															<clipindex>7</clipindex>
															<groupindex>1</groupindex>
														</link>
														<logginginfo>
															<description></description>
															<scene></scene>
															<shottake></shottake>
															<lognote>https://www.youtube.com/watch?v=Lyv_K_vVcuU</lognote>
															<good></good>
															<originalvideofilename></originalvideofilename>
															<originalaudiofilename></originalaudiofilename>
														</logginginfo>
														<colorinfo>
															<lut></lut>
															<lut1></lut1>
															<asc_sop></asc_sop>
															<asc_sat></asc_sat>
															<lut2></lut2>
														</colorinfo>
														<labels>
															<label2>Iris</label2>
														</labels>
													</clipitem>
													<clipitem id="clipitem-687">
														<masterclipid>masterclip-184</masterclipid>
														<name>(YT Object)_New Compilation Of The Best Close-Up Videos from OBJECT_Lyv_K_vVcuU_YT.mp4</name>
														<enabled>TRUE</enabled>
														<duration>14408</duration>
														<rate>
															<timebase>30</timebase>
															<ntsc>TRUE</ntsc>
														</rate>
														<start>2353</start>
														<end>2661</end>
														<in>4318</in>
														<out>4626</out>
														<pproTicksIn>36597930969600</pproTicksIn>
														<pproTicksOut>39208436467200</pproTicksOut>
														<alphatype>none</alphatype>
														<file id="file-178"/>
														<filter>
															<effect>
																<name>Basic Motion</name>
																<effectid>basic</effectid>
																<effectcategory>motion</effectcategory>
																<effecttype>motion</effecttype>
																<mediatype>video</mediatype>
																<pproBypass>false</pproBypass>
																<parameter authoringApp="PremierePro">
																	<parameterid>scale</parameterid>
																	<name>Scale</name>
																	<valuemin>0</valuemin>
																	<valuemax>1000</valuemax>
																	<value>195.25</value>
																</parameter>
																<parameter authoringApp="PremierePro">
																	<parameterid>rotation</parameterid>
																	<name>Rotation</name>
																	<valuemin>-8640</valuemin>
																	<valuemax>8640</valuemax>
																	<value>0</value>
																</parameter>
																<parameter authoringApp="PremierePro">
																	<parameterid>center</parameterid>
																	<name>Center</name>
																	<value>
																		<horiz>0</horiz>
																		<vert>0</vert>
																	</value>
																</parameter>
																<parameter authoringApp="PremierePro">
																	<parameterid>centerOffset</parameterid>
																	<name>Anchor Point</name>
																	<value>
																		<horiz>0</horiz>
																		<vert>0</vert>
																	</value>
																</parameter>
																<parameter authoringApp="PremierePro">
																	<parameterid>antiflicker</parameterid>
																	<name>Anti-flicker Filter</name>
																	<valuemin>0.0</valuemin>
																	<valuemax>1.0</valuemax>
																	<value>0</value>
																</parameter>
															</effect>
														</filter>
														<filter>
															<effect>
																<name>Gaussian Blur</name>
																<effectid>Gaussian Blur</effectid>
																<effectcategory>Blur</effectcategory>
																<effecttype>motion</effecttype>
																<mediatype>video</mediatype>
																<pproBypass>false</pproBypass>
																<parameter authoringApp="PremierePro">
																	<parameterid>radius</parameterid>
																	<name>Radius</name>
																	<valuemin>0</valuemin>
																	<valuemax>100</valuemax>
																	<value>150</value>
																</parameter>
															</effect>
														</filter>
														<link>
															<linkclipref>clipitem-687</linkclipref>
															<mediatype>video</mediatype>
															<trackindex>1</trackindex>
															<clipindex>5</clipindex>
														</link>
														<link>
															<linkclipref>clipitem-699</linkclipref>
															<mediatype>audio</mediatype>
															<trackindex>1</trackindex>
															<clipindex>9</clipindex>
															<groupindex>1</groupindex>
														</link>
														<link>
															<linkclipref>clipitem-704</linkclipref>
															<mediatype>audio</mediatype>
															<trackindex>2</trackindex>
															<clipindex>9</clipindex>
															<groupindex>1</groupindex>
														</link>
														<logginginfo>
															<description></description>
															<scene></scene>
															<shottake></shottake>
															<lognote>https://www.youtube.com/watch?v=Lyv_K_vVcuU</lognote>
															<good></good>
															<originalvideofilename></originalvideofilename>
															<originalaudiofilename></originalaudiofilename>
														</logginginfo>
														<colorinfo>
															<lut></lut>
															<lut1></lut1>
															<asc_sop></asc_sop>
															<asc_sat></asc_sat>
															<lut2></lut2>
														</colorinfo>
														<labels>
															<label2>Iris</label2>
														</labels>
													</clipitem>
													<enabled>TRUE</enabled>
													<locked>FALSE</locked>
												</track>
												<track TL.SQTrackShy="0" TL.SQTrackExpandedHeight="25" TL.SQTrackExpanded="0" MZ.TrackTargeted="0">
													<clipitem id="clipitem-688">
														<masterclipid>masterclip-184</masterclipid>
														<name>(YT Object)_New Compilation Of The Best Close-Up Videos from OBJECT_Lyv_K_vVcuU_YT.mp4</name>
														<enabled>TRUE</enabled>
														<duration>14408</duration>
														<rate>
															<timebase>30</timebase>
															<ntsc>TRUE</ntsc>
														</rate>
														<start>0</start>
														<end>306</end>
														<in>418</in>
														<out>724</out>
														<pproTicksIn>3542828889600</pproTicksIn>
														<pproTicksOut>6136383052800</pproTicksOut>
														<alphatype>none</alphatype>
														<file id="file-178"/>
														<filter>
															<effect>
																<name>Basic Motion</name>
																<effectid>basic</effectid>
																<effectcategory>motion</effectcategory>
																<effecttype>motion</effecttype>
																<mediatype>video</mediatype>
																<pproBypass>false</pproBypass>
																<parameter authoringApp="PremierePro">
																	<parameterid>scale</parameterid>
																	<name>Scale</name>
																	<valuemin>0</valuemin>
																	<valuemax>1000</valuemax>
																	<value>101.25</value>
																</parameter>
																<parameter authoringApp="PremierePro">
																	<parameterid>rotation</parameterid>
																	<name>Rotation</name>
																	<valuemin>-8640</valuemin>
																	<valuemax>8640</valuemax>
																	<value>0</value>
																</parameter>
																<parameter authoringApp="PremierePro">
																	<parameterid>center</parameterid>
																	<name>Center</name>
																	<value>
																		<horiz>0</horiz>
																		<vert>0</vert>
																	</value>
																</parameter>
																<parameter authoringApp="PremierePro">
																	<parameterid>centerOffset</parameterid>
																	<name>Anchor Point</name>
																	<value>
																		<horiz>0</horiz>
																		<vert>0</vert>
																	</value>
																</parameter>
																<parameter authoringApp="PremierePro">
																	<parameterid>antiflicker</parameterid>
																	<name>Anti-flicker Filter</name>
																	<valuemin>0.0</valuemin>
																	<valuemax>1.0</valuemax>
																	<value>0</value>
																</parameter>
															</effect>
														</filter>
														<logginginfo>
															<description></description>
															<scene></scene>
															<shottake></shottake>
															<lognote>https://www.youtube.com/watch?v=Lyv_K_vVcuU</lognote>
															<good></good>
															<originalvideofilename></originalvideofilename>
															<originalaudiofilename></originalaudiofilename>
														</logginginfo>
														<colorinfo>
															<lut></lut>
															<lut1></lut1>
															<asc_sop></asc_sop>
															<asc_sat></asc_sat>
															<lut2></lut2>
														</colorinfo>
														<labels>
															<label2>Iris</label2>
														</labels>
													</clipitem>
													<clipitem id="clipitem-689">
														<masterclipid>masterclip-184</masterclipid>
														<name>(YT Object)_New Compilation Of The Best Close-Up Videos from OBJECT_Lyv_K_vVcuU_YT.mp4</name>
														<enabled>TRUE</enabled>
														<duration>14408</duration>
														<rate>
															<timebase>30</timebase>
															<ntsc>TRUE</ntsc>
														</rate>
														<start>306</start>
														<end>596</end>
														<in>1047</in>
														<out>1337</out>
														<pproTicksIn>8874023558400</pproTicksIn>
														<pproTicksOut>11331967046400</pproTicksOut>
														<alphatype>none</alphatype>
														<file id="file-178"/>
														<filter>
															<effect>
																<name>Basic Motion</name>
																<effectid>basic</effectid>
																<effectcategory>motion</effectcategory>
																<effecttype>motion</effecttype>
																<mediatype>video</mediatype>
																<pproBypass>false</pproBypass>
																<parameter authoringApp="PremierePro">
																	<parameterid>scale</parameterid>
																	<name>Scale</name>
																	<valuemin>0</valuemin>
																	<valuemax>1000</valuemax>
																	<value>101.25</value>
																</parameter>
																<parameter authoringApp="PremierePro">
																	<parameterid>rotation</parameterid>
																	<name>Rotation</name>
																	<valuemin>-8640</valuemin>
																	<valuemax>8640</valuemax>
																	<value>0</value>
																</parameter>
																<parameter authoringApp="PremierePro">
																	<parameterid>center</parameterid>
																	<name>Center</name>
																	<value>
																		<horiz>0</horiz>
																		<vert>0</vert>
																	</value>
																</parameter>
																<parameter authoringApp="PremierePro">
																	<parameterid>centerOffset</parameterid>
																	<name>Anchor Point</name>
																	<value>
																		<horiz>0</horiz>
																		<vert>0</vert>
																	</value>
																</parameter>
																<parameter authoringApp="PremierePro">
																	<parameterid>antiflicker</parameterid>
																	<name>Anti-flicker Filter</name>
																	<valuemin>0.0</valuemin>
																	<valuemax>1.0</valuemax>
																	<value>0</value>
																</parameter>
															</effect>
														</filter>
														<logginginfo>
															<description></description>
															<scene></scene>
															<shottake></shottake>
															<lognote>https://www.youtube.com/watch?v=Lyv_K_vVcuU</lognote>
															<good></good>
															<originalvideofilename></originalvideofilename>
															<originalaudiofilename></originalaudiofilename>
														</logginginfo>
														<colorinfo>
															<lut></lut>
															<lut1></lut1>
															<asc_sop></asc_sop>
															<asc_sat></asc_sat>
															<lut2></lut2>
														</colorinfo>
														<labels>
															<label2>Iris</label2>
														</labels>
													</clipitem>
													<clipitem id="clipitem-690">
														<masterclipid>masterclip-184</masterclipid>
														<name>(YT Object)_New Compilation Of The Best Close-Up Videos from OBJECT_Lyv_K_vVcuU_YT.mp4</name>
														<enabled>TRUE</enabled>
														<duration>14408</duration>
														<rate>
															<timebase>30</timebase>
															<ntsc>TRUE</ntsc>
														</rate>
														<start>596</start>
														<end>1493</end>
														<in>1950</in>
														<out>2847</out>
														<pproTicksIn>16527551040000</pproTicksIn>
														<pproTicksOut>24130224518400</pproTicksOut>
														<alphatype>none</alphatype>
														<file id="file-178"/>
														<filter>
															<effect>
																<name>Basic Motion</name>
																<effectid>basic</effectid>
																<effectcategory>motion</effectcategory>
																<effecttype>motion</effecttype>
																<mediatype>video</mediatype>
																<pproBypass>false</pproBypass>
																<parameter authoringApp="PremierePro">
																	<parameterid>scale</parameterid>
																	<name>Scale</name>
																	<valuemin>0</valuemin>
																	<valuemax>1000</valuemax>
																	<value>101.25</value>
																</parameter>
																<parameter authoringApp="PremierePro">
																	<parameterid>rotation</parameterid>
																	<name>Rotation</name>
																	<valuemin>-8640</valuemin>
																	<valuemax>8640</valuemax>
																	<value>0</value>
																</parameter>
																<parameter authoringApp="PremierePro">
																	<parameterid>center</parameterid>
																	<name>Center</name>
																	<value>
																		<horiz>0</horiz>
																		<vert>0</vert>
																	</value>
																</parameter>
																<parameter authoringApp="PremierePro">
																	<parameterid>centerOffset</parameterid>
																	<name>Anchor Point</name>
																	<value>
																		<horiz>0</horiz>
																		<vert>0</vert>
																	</value>
																</parameter>
																<parameter authoringApp="PremierePro">
																	<parameterid>antiflicker</parameterid>
																	<name>Anti-flicker Filter</name>
																	<valuemin>0.0</valuemin>
																	<valuemax>1.0</valuemax>
																	<value>0</value>
																</parameter>
															</effect>
														</filter>
														<logginginfo>
															<description></description>
															<scene></scene>
															<shottake></shottake>
															<lognote>https://www.youtube.com/watch?v=Lyv_K_vVcuU</lognote>
															<good></good>
															<originalvideofilename></originalvideofilename>
															<originalaudiofilename></originalaudiofilename>
														</logginginfo>
														<colorinfo>
															<lut></lut>
															<lut1></lut1>
															<asc_sop></asc_sop>
															<asc_sat></asc_sat>
															<lut2></lut2>
														</colorinfo>
														<labels>
															<label2>Iris</label2>
														</labels>
													</clipitem>
													<clipitem id="clipitem-691">
														<masterclipid>masterclip-184</masterclipid>
														<name>(YT Object)_New Compilation Of The Best Close-Up Videos from OBJECT_Lyv_K_vVcuU_YT.mp4</name>
														<enabled>TRUE</enabled>
														<duration>14408</duration>
														<rate>
															<timebase>30</timebase>
															<ntsc>TRUE</ntsc>
														</rate>
														<start>1493</start>
														<end>2353</end>
														<in>3458</in>
														<out>4318</out>
														<pproTicksIn>29308857177600</pproTicksIn>
														<pproTicksOut>36597930969600</pproTicksOut>
														<alphatype>none</alphatype>
														<file id="file-178"/>
														<filter>
															<effect>
																<name>Basic Motion</name>
																<effectid>basic</effectid>
																<effectcategory>motion</effectcategory>
																<effecttype>motion</effecttype>
																<mediatype>video</mediatype>
																<pproBypass>false</pproBypass>
																<parameter authoringApp="PremierePro">
																	<parameterid>scale</parameterid>
																	<name>Scale</name>
																	<valuemin>0</valuemin>
																	<valuemax>1000</valuemax>
																	<value>101.25</value>
																</parameter>
																<parameter authoringApp="PremierePro">
																	<parameterid>rotation</parameterid>
																	<name>Rotation</name>
																	<valuemin>-8640</valuemin>
																	<valuemax>8640</valuemax>
																	<value>0</value>
																</parameter>
																<parameter authoringApp="PremierePro">
																	<parameterid>center</parameterid>
																	<name>Center</name>
																	<value>
																		<horiz>0</horiz>
																		<vert>0</vert>
																	</value>
																</parameter>
																<parameter authoringApp="PremierePro">
																	<parameterid>centerOffset</parameterid>
																	<name>Anchor Point</name>
																	<value>
																		<horiz>0</horiz>
																		<vert>0</vert>
																	</value>
																</parameter>
																<parameter authoringApp="PremierePro">
																	<parameterid>antiflicker</parameterid>
																	<name>Anti-flicker Filter</name>
																	<valuemin>0.0</valuemin>
																	<valuemax>1.0</valuemax>
																	<value>0</value>
																</parameter>
															</effect>
														</filter>
														<logginginfo>
															<description></description>
															<scene></scene>
															<shottake></shottake>
															<lognote>https://www.youtube.com/watch?v=Lyv_K_vVcuU</lognote>
															<good></good>
															<originalvideofilename></originalvideofilename>
															<originalaudiofilename></originalaudiofilename>
														</logginginfo>
														<colorinfo>
															<lut></lut>
															<lut1></lut1>
															<asc_sop></asc_sop>
															<asc_sat></asc_sat>
															<lut2></lut2>
														</colorinfo>
														<labels>
															<label2>Iris</label2>
														</labels>
													</clipitem>
													<clipitem id="clipitem-692">
														<masterclipid>masterclip-184</masterclipid>
														<name>(YT Object)_New Compilation Of The Best Close-Up Videos from OBJECT_Lyv_K_vVcuU_YT.mp4</name>
														<enabled>TRUE</enabled>
														<duration>14408</duration>
														<rate>
															<timebase>30</timebase>
															<ntsc>TRUE</ntsc>
														</rate>
														<start>2353</start>
														<end>2661</end>
														<in>4318</in>
														<out>4626</out>
														<pproTicksIn>36597930969600</pproTicksIn>
														<pproTicksOut>39208436467200</pproTicksOut>
														<alphatype>none</alphatype>
														<file id="file-178"/>
														<filter>
															<effect>
																<name>Basic Motion</name>
																<effectid>basic</effectid>
																<effectcategory>motion</effectcategory>
																<effecttype>motion</effecttype>
																<mediatype>video</mediatype>
																<pproBypass>false</pproBypass>
																<parameter authoringApp="PremierePro">
																	<parameterid>scale</parameterid>
																	<name>Scale</name>
																	<valuemin>0</valuemin>
																	<valuemax>1000</valuemax>
																	<value>101.25</value>
																</parameter>
																<parameter authoringApp="PremierePro">
																	<parameterid>rotation</parameterid>
																	<name>Rotation</name>
																	<valuemin>-8640</valuemin>
																	<valuemax>8640</valuemax>
																	<value>0</value>
																</parameter>
																<parameter authoringApp="PremierePro">
																	<parameterid>center</parameterid>
																	<name>Center</name>
																	<value>
																		<horiz>0</horiz>
																		<vert>0</vert>
																	</value>
																</parameter>
																<parameter authoringApp="PremierePro">
																	<parameterid>centerOffset</parameterid>
																	<name>Anchor Point</name>
																	<value>
																		<horiz>0</horiz>
																		<vert>0</vert>
																	</value>
																</parameter>
																<parameter authoringApp="PremierePro">
																	<parameterid>antiflicker</parameterid>
																	<name>Anti-flicker Filter</name>
																	<valuemin>0.0</valuemin>
																	<valuemax>1.0</valuemax>
																	<value>0</value>
																</parameter>
															</effect>
														</filter>
														<logginginfo>
															<description></description>
															<scene></scene>
															<shottake></shottake>
															<lognote>https://www.youtube.com/watch?v=Lyv_K_vVcuU</lognote>
															<good></good>
															<originalvideofilename></originalvideofilename>
															<originalaudiofilename></originalaudiofilename>
														</logginginfo>
														<colorinfo>
															<lut></lut>
															<lut1></lut1>
															<asc_sop></asc_sop>
															<asc_sat></asc_sat>
															<lut2></lut2>
														</colorinfo>
														<labels>
															<label2>Iris</label2>
														</labels>
													</clipitem>
													<enabled>TRUE</enabled>
													<locked>FALSE</locked>
												</track>
												<track TL.SQTrackShy="0" TL.SQTrackExpandedHeight="25" TL.SQTrackExpanded="0" MZ.TrackTargeted="0">
													<clipitem id="clipitem-693">
														<masterclipid>masterclip-83</masterclipid>
														<name>YT Object YT confirmed</name>
														<enabled>TRUE</enabled>
														<duration>5844</duration>
														<rate>
															<timebase>30</timebase>
															<ntsc>TRUE</ntsc>
														</rate>
														<start>0</start>
														<end>2661</end>
														<in>0</in>
														<out>2661</out>
														<pproTicksIn>0</pproTicksIn>
														<pproTicksOut>22553750419200</pproTicksOut>
														<alphatype>straight</alphatype>
														<file id="file-83"/>
														<filter>
															<effect>
																<name>Basic Motion</name>
																<effectid>basic</effectid>
																<effectcategory>motion</effectcategory>
																<effecttype>motion</effecttype>
																<mediatype>video</mediatype>
																<pproBypass>false</pproBypass>
																<parameter authoringApp="PremierePro">
																	<parameterid>scale</parameterid>
																	<name>Scale</name>
																	<valuemin>0</valuemin>
																	<valuemax>1000</valuemax>
																	<value>150</value>
																</parameter>
																<parameter authoringApp="PremierePro">
																	<parameterid>rotation</parameterid>
																	<name>Rotation</name>
																	<valuemin>-8640</valuemin>
																	<valuemax>8640</valuemax>
																	<value>0</value>
																</parameter>
																<parameter authoringApp="PremierePro">
																	<parameterid>center</parameterid>
																	<name>Center</name>
																	<value>
																		<horiz>0</horiz>
																		<vert>0</vert>
																	</value>
																</parameter>
																<parameter authoringApp="PremierePro">
																	<parameterid>centerOffset</parameterid>
																	<name>Anchor Point</name>
																	<value>
																		<horiz>0</horiz>
																		<vert>0</vert>
																	</value>
																</parameter>
																<parameter authoringApp="PremierePro">
																	<parameterid>antiflicker</parameterid>
																	<name>Anti-flicker Filter</name>
																	<valuemin>0.0</valuemin>
																	<valuemax>1.0</valuemax>
																	<value>0</value>
																</parameter>
															</effect>
														</filter>
														<logginginfo>
															<description></description>
															<scene></scene>
															<shottake></shottake>
															<lognote></lognote>
															<good></good>
															<originalvideofilename></originalvideofilename>
															<originalaudiofilename></originalaudiofilename>
														</logginginfo>
														<colorinfo>
															<lut></lut>
															<lut1></lut1>
															<asc_sop></asc_sop>
															<asc_sat></asc_sat>
															<lut2></lut2>
														</colorinfo>
														<labels>
															<label2>Rose</label2>
														</labels>
													</clipitem>
													<enabled>TRUE</enabled>
													<locked>FALSE</locked>
												</track>
												<track TL.SQTrackShy="0" TL.SQTrackExpandedHeight="25" TL.SQTrackExpanded="0" MZ.TrackTargeted="0">
													<clipitem id="clipitem-694">
														<masterclipid>masterclip-106</masterclipid>
														<name>Bug and Lower Nest</name>
														<enabled>TRUE</enabled>
														<duration>14721</duration>
														<rate>
															<timebase>30</timebase>
															<ntsc>TRUE</ntsc>
														</rate>
														<start>0</start>
														<end>2661</end>
														<in>0</in>
														<out>2661</out>
														<pproTicksIn>0</pproTicksIn>
														<pproTicksOut>22553750419200</pproTicksOut>
														<sequence id="sequence-1"/>
														<labels>
															<label2>Cerulean</label2>
														</labels>
													</clipitem>
													<enabled>TRUE</enabled>
													<locked>FALSE</locked>
												</track>
											</video>
											<audio>
												<numOutputChannels>2</numOutputChannels>
												<format>
													<samplecharacteristics>
														<depth>16</depth>
														<samplerate>44100</samplerate>
													</samplecharacteristics>
												</format>
												<outputs>
													<group>
														<index>1</index>
														<numchannels>1</numchannels>
														<downmix>0</downmix>
														<channel>
															<index>1</index>
														</channel>
													</group>
													<group>
														<index>2</index>
														<numchannels>1</numchannels>
														<downmix>0</downmix>
														<channel>
															<index>2</index>
														</channel>
													</group>
												</outputs>
												<track TL.SQTrackAudioKeyframeStyle="0" TL.SQTrackShy="0" TL.SQTrackExpandedHeight="25" TL.SQTrackExpanded="0" MZ.TrackTargeted="1" PannerCurrentValue="0.5" PannerIsInverted="true" PannerStartKeyframe="-91445760000000000,0.5,0,0,0,0,0,0" PannerName="Balance" currentExplodedTrackIndex="0" totalExplodedTrackCount="2" premiereTrackType="Stereo">
													<clipitem id="clipitem-695" premiereChannelType="stereo">
														<masterclipid>masterclip-184</masterclipid>
														<name>(YT Object)_New Compilation Of The Best Close-Up Videos from OBJECT_Lyv_K_vVcuU_YT.mp4</name>
														<enabled>TRUE</enabled>
														<duration>14408</duration>
														<rate>
															<timebase>30</timebase>
															<ntsc>TRUE</ntsc>
														</rate>
														<start>0</start>
														<end>-1</end>
														<in>418</in>
														<out>739</out>
														<pproTicksIn>3542828889600</pproTicksIn>
														<pproTicksOut>6263518060800</pproTicksOut>
														<file id="file-178"/>
														<sourcetrack>
															<mediatype>audio</mediatype>
															<trackindex>1</trackindex>
														</sourcetrack>
														<link>
															<linkclipref>clipitem-695</linkclipref>
															<mediatype>audio</mediatype>
															<trackindex>1</trackindex>
															<clipindex>1</clipindex>
															<groupindex>1</groupindex>
														</link>
														<link>
															<linkclipref>clipitem-700</linkclipref>
															<mediatype>audio</mediatype>
															<trackindex>2</trackindex>
															<clipindex>1</clipindex>
															<groupindex>1</groupindex>
														</link>
														<logginginfo>
															<description></description>
															<scene></scene>
															<shottake></shottake>
															<lognote>https://www.youtube.com/watch?v=Lyv_K_vVcuU</lognote>
															<good></good>
															<originalvideofilename></originalvideofilename>
															<originalaudiofilename></originalaudiofilename>
														</logginginfo>
														<colorinfo>
															<lut></lut>
															<lut1></lut1>
															<asc_sop></asc_sop>
															<asc_sat></asc_sat>
															<lut2></lut2>
														</colorinfo>
														<labels>
															<label2>Iris</label2>
														</labels>
													</clipitem>
													<transitionitem>
														<start>291</start>
														<end>321</end>
														<pproTicksIn>2466419155200</pproTicksIn>
														<pproTicksOut>2720689171200</pproTicksOut>
														<alignment>center</alignment>
														<cutPointTicks>127135008000</cutPointTicks>
														<rate>
															<timebase>30</timebase>
															<ntsc>TRUE</ntsc>
														</rate>
														<effect>
															<name>Cross Fade (+3dB)</name>
															<effectid>KGAudioTransCrossFade3dB</effectid>
															<effecttype>transition</effecttype>
															<mediatype>audio</mediatype>
															<wipecode>0</wipecode>
															<wipeaccuracy>100</wipeaccuracy>
															<startratio>0</startratio>
															<endratio>1</endratio>
															<reverse>FALSE</reverse>
														</effect>
													</transitionitem>
													<clipitem id="clipitem-696" premiereChannelType="stereo">
														<masterclipid>masterclip-184</masterclipid>
														<name>(YT Object)_New Compilation Of The Best Close-Up Videos from OBJECT_Lyv_K_vVcuU_YT.mp4</name>
														<enabled>TRUE</enabled>
														<duration>14408</duration>
														<rate>
															<timebase>30</timebase>
															<ntsc>TRUE</ntsc>
														</rate>
														<start>-1</start>
														<end>-1</end>
														<in>1032</in>
														<out>1352</out>
														<pproTicksIn>8746888550400</pproTicksIn>
														<pproTicksOut>11459102054400</pproTicksOut>
														<file id="file-178"/>
														<sourcetrack>
															<mediatype>audio</mediatype>
															<trackindex>1</trackindex>
														</sourcetrack>
														<link>
															<linkclipref>clipitem-696</linkclipref>
															<mediatype>audio</mediatype>
															<trackindex>1</trackindex>
															<clipindex>3</clipindex>
															<groupindex>1</groupindex>
														</link>
														<link>
															<linkclipref>clipitem-701</linkclipref>
															<mediatype>audio</mediatype>
															<trackindex>2</trackindex>
															<clipindex>3</clipindex>
															<groupindex>1</groupindex>
														</link>
														<logginginfo>
															<description></description>
															<scene></scene>
															<shottake></shottake>
															<lognote>https://www.youtube.com/watch?v=Lyv_K_vVcuU</lognote>
															<good></good>
															<originalvideofilename></originalvideofilename>
															<originalaudiofilename></originalaudiofilename>
														</logginginfo>
														<colorinfo>
															<lut></lut>
															<lut1></lut1>
															<asc_sop></asc_sop>
															<asc_sat></asc_sat>
															<lut2></lut2>
														</colorinfo>
														<labels>
															<label2>Iris</label2>
														</labels>
													</clipitem>
													<transitionitem>
														<start>581</start>
														<end>611</end>
														<pproTicksIn>4924362643200</pproTicksIn>
														<pproTicksOut>5178632659200</pproTicksOut>
														<alignment>center</alignment>
														<cutPointTicks>127135008000</cutPointTicks>
														<rate>
															<timebase>30</timebase>
															<ntsc>TRUE</ntsc>
														</rate>
														<effect>
															<name>Cross Fade (+3dB)</name>
															<effectid>KGAudioTransCrossFade3dB</effectid>
															<effecttype>transition</effecttype>
															<mediatype>audio</mediatype>
															<wipecode>0</wipecode>
															<wipeaccuracy>100</wipeaccuracy>
															<startratio>0</startratio>
															<endratio>1</endratio>
															<reverse>FALSE</reverse>
														</effect>
													</transitionitem>
													<clipitem id="clipitem-697" premiereChannelType="stereo">
														<masterclipid>masterclip-184</masterclipid>
														<name>(YT Object)_New Compilation Of The Best Close-Up Videos from OBJECT_Lyv_K_vVcuU_YT.mp4</name>
														<enabled>TRUE</enabled>
														<duration>14408</duration>
														<rate>
															<timebase>30</timebase>
															<ntsc>TRUE</ntsc>
														</rate>
														<start>-1</start>
														<end>-1</end>
														<in>1935</in>
														<out>2862</out>
														<pproTicksIn>16400416032000</pproTicksIn>
														<pproTicksOut>24257359526400</pproTicksOut>
														<file id="file-178"/>
														<sourcetrack>
															<mediatype>audio</mediatype>
															<trackindex>1</trackindex>
														</sourcetrack>
														<link>
															<linkclipref>clipitem-685</linkclipref>
															<mediatype>video</mediatype>
															<trackindex>1</trackindex>
															<clipindex>3</clipindex>
														</link>
														<link>
															<linkclipref>clipitem-697</linkclipref>
															<mediatype>audio</mediatype>
															<trackindex>1</trackindex>
															<clipindex>5</clipindex>
															<groupindex>1</groupindex>
														</link>
														<link>
															<linkclipref>clipitem-702</linkclipref>
															<mediatype>audio</mediatype>
															<trackindex>2</trackindex>
															<clipindex>5</clipindex>
															<groupindex>1</groupindex>
														</link>
														<logginginfo>
															<description></description>
															<scene></scene>
															<shottake></shottake>
															<lognote>https://www.youtube.com/watch?v=Lyv_K_vVcuU</lognote>
															<good></good>
															<originalvideofilename></originalvideofilename>
															<originalaudiofilename></originalaudiofilename>
														</logginginfo>
														<colorinfo>
															<lut></lut>
															<lut1></lut1>
															<asc_sop></asc_sop>
															<asc_sat></asc_sat>
															<lut2></lut2>
														</colorinfo>
														<labels>
															<label2>Iris</label2>
														</labels>
													</clipitem>
													<transitionitem>
														<start>1478</start>
														<end>1508</end>
														<pproTicksIn>12527036121600</pproTicksIn>
														<pproTicksOut>12781306137600</pproTicksOut>
														<alignment>center</alignment>
														<cutPointTicks>127135008000</cutPointTicks>
														<rate>
															<timebase>30</timebase>
															<ntsc>TRUE</ntsc>
														</rate>
														<effect>
															<name>Cross Fade (+3dB)</name>
															<effectid>KGAudioTransCrossFade3dB</effectid>
															<effecttype>transition</effecttype>
															<mediatype>audio</mediatype>
															<wipecode>0</wipecode>
															<wipeaccuracy>100</wipeaccuracy>
															<startratio>0</startratio>
															<endratio>1</endratio>
															<reverse>FALSE</reverse>
														</effect>
													</transitionitem>
													<clipitem id="clipitem-698" premiereChannelType="stereo">
														<masterclipid>masterclip-184</masterclipid>
														<name>(YT Object)_New Compilation Of The Best Close-Up Videos from OBJECT_Lyv_K_vVcuU_YT.mp4</name>
														<enabled>TRUE</enabled>
														<duration>14408</duration>
														<rate>
															<timebase>30</timebase>
															<ntsc>TRUE</ntsc>
														</rate>
														<start>-1</start>
														<end>-1</end>
														<in>3443</in>
														<out>4333</out>
														<pproTicksIn>29181722169600</pproTicksIn>
														<pproTicksOut>36725065977600</pproTicksOut>
														<file id="file-178"/>
														<sourcetrack>
															<mediatype>audio</mediatype>
															<trackindex>1</trackindex>
														</sourcetrack>
														<link>
															<linkclipref>clipitem-686</linkclipref>
															<mediatype>video</mediatype>
															<trackindex>1</trackindex>
															<clipindex>4</clipindex>
														</link>
														<link>
															<linkclipref>clipitem-698</linkclipref>
															<mediatype>audio</mediatype>
															<trackindex>1</trackindex>
															<clipindex>7</clipindex>
															<groupindex>1</groupindex>
														</link>
														<link>
															<linkclipref>clipitem-703</linkclipref>
															<mediatype>audio</mediatype>
															<trackindex>2</trackindex>
															<clipindex>7</clipindex>
															<groupindex>1</groupindex>
														</link>
														<logginginfo>
															<description></description>
															<scene></scene>
															<shottake></shottake>
															<lognote>https://www.youtube.com/watch?v=Lyv_K_vVcuU</lognote>
															<good></good>
															<originalvideofilename></originalvideofilename>
															<originalaudiofilename></originalaudiofilename>
														</logginginfo>
														<colorinfo>
															<lut></lut>
															<lut1></lut1>
															<asc_sop></asc_sop>
															<asc_sat></asc_sat>
															<lut2></lut2>
														</colorinfo>
														<labels>
															<label2>Iris</label2>
														</labels>
													</clipitem>
													<transitionitem>
														<start>2338</start>
														<end>2368</end>
														<pproTicksIn>19816109913600</pproTicksIn>
														<pproTicksOut>20070379929600</pproTicksOut>
														<alignment>center</alignment>
														<cutPointTicks>127135008000</cutPointTicks>
														<rate>
															<timebase>30</timebase>
															<ntsc>TRUE</ntsc>
														</rate>
														<effect>
															<name>Cross Fade (+3dB)</name>
															<effectid>KGAudioTransCrossFade3dB</effectid>
															<effecttype>transition</effecttype>
															<mediatype>audio</mediatype>
															<wipecode>0</wipecode>
															<wipeaccuracy>100</wipeaccuracy>
															<startratio>0</startratio>
															<endratio>1</endratio>
															<reverse>FALSE</reverse>
														</effect>
													</transitionitem>
													<clipitem id="clipitem-699" premiereChannelType="stereo">
														<masterclipid>masterclip-184</masterclipid>
														<name>(YT Object)_New Compilation Of The Best Close-Up Videos from OBJECT_Lyv_K_vVcuU_YT.mp4</name>
														<enabled>TRUE</enabled>
														<duration>14408</duration>
														<rate>
															<timebase>30</timebase>
															<ntsc>TRUE</ntsc>
														</rate>
														<start>-1</start>
														<end>-1</end>
														<in>4303</in>
														<out>4626</out>
														<pproTicksIn>36470795961600</pproTicksIn>
														<pproTicksOut>39208436467200</pproTicksOut>
														<file id="file-178"/>
														<sourcetrack>
															<mediatype>audio</mediatype>
															<trackindex>1</trackindex>
														</sourcetrack>
														<link>
															<linkclipref>clipitem-687</linkclipref>
															<mediatype>video</mediatype>
															<trackindex>1</trackindex>
															<clipindex>5</clipindex>
														</link>
														<link>
															<linkclipref>clipitem-699</linkclipref>
															<mediatype>audio</mediatype>
															<trackindex>1</trackindex>
															<clipindex>9</clipindex>
															<groupindex>1</groupindex>
														</link>
														<link>
															<linkclipref>clipitem-704</linkclipref>
															<mediatype>audio</mediatype>
															<trackindex>2</trackindex>
															<clipindex>9</clipindex>
															<groupindex>1</groupindex>
														</link>
														<logginginfo>
															<description></description>
															<scene></scene>
															<shottake></shottake>
															<lognote>https://www.youtube.com/watch?v=Lyv_K_vVcuU</lognote>
															<good></good>
															<originalvideofilename></originalvideofilename>
															<originalaudiofilename></originalaudiofilename>
														</logginginfo>
														<colorinfo>
															<lut></lut>
															<lut1></lut1>
															<asc_sop></asc_sop>
															<asc_sat></asc_sat>
															<lut2></lut2>
														</colorinfo>
														<labels>
															<label2>Iris</label2>
														</labels>
													</clipitem>
													<transitionitem>
														<start>2631</start>
														<end>2661</end>
														<pproTicksIn>22299480403200</pproTicksIn>
														<pproTicksOut>22553750419200</pproTicksOut>
														<alignment>end-black</alignment>
														<cutPointTicks>254270016000</cutPointTicks>
														<rate>
															<timebase>30</timebase>
															<ntsc>TRUE</ntsc>
														</rate>
														<effect>
															<name>Cross Fade (+3dB)</name>
															<effectid>KGAudioTransCrossFade3dB</effectid>
															<effecttype>transition</effecttype>
															<mediatype>audio</mediatype>
															<wipecode>0</wipecode>
															<wipeaccuracy>100</wipeaccuracy>
															<startratio>0</startratio>
															<endratio>1</endratio>
															<reverse>FALSE</reverse>
														</effect>
													</transitionitem>
													<enabled>TRUE</enabled>
													<locked>FALSE</locked>
													<filter>
														<effect>
															<name>Audio Levels</name>
															<effectid>audiolevels</effectid>
															<effectcategory>audiolevels</effectcategory>
															<effecttype>audiolevels</effecttype>
															<mediatype>audio</mediatype>
															<parameter authoringApp="PremierePro">
																<parameterid>level</parameterid>
																<name>Level</name>
																<valuemin>0</valuemin>
																<valuemax>3.98109</valuemax>
																<value>0.997636</value>
															</parameter>
														</effect>
													</filter>
													<outputchannelindex>1</outputchannelindex>
												</track>
												<track TL.SQTrackAudioKeyframeStyle="0" TL.SQTrackShy="0" TL.SQTrackExpandedHeight="25" TL.SQTrackExpanded="0" MZ.TrackTargeted="1" PannerCurrentValue="0.5" PannerIsInverted="true" PannerStartKeyframe="-91445760000000000,0.5,0,0,0,0,0,0" PannerName="Balance" currentExplodedTrackIndex="1" totalExplodedTrackCount="2" premiereTrackType="Stereo">
													<clipitem id="clipitem-700" premiereChannelType="stereo">
														<masterclipid>masterclip-184</masterclipid>
														<name>(YT Object)_New Compilation Of The Best Close-Up Videos from OBJECT_Lyv_K_vVcuU_YT.mp4</name>
														<enabled>TRUE</enabled>
														<duration>14408</duration>
														<rate>
															<timebase>30</timebase>
															<ntsc>TRUE</ntsc>
														</rate>
														<start>0</start>
														<end>-1</end>
														<in>418</in>
														<out>739</out>
														<pproTicksIn>3542828889600</pproTicksIn>
														<pproTicksOut>6263518060800</pproTicksOut>
														<file id="file-178"/>
														<sourcetrack>
															<mediatype>audio</mediatype>
															<trackindex>2</trackindex>
														</sourcetrack>
														<link>
															<linkclipref>clipitem-695</linkclipref>
															<mediatype>audio</mediatype>
															<trackindex>1</trackindex>
															<clipindex>1</clipindex>
															<groupindex>1</groupindex>
														</link>
														<link>
															<linkclipref>clipitem-700</linkclipref>
															<mediatype>audio</mediatype>
															<trackindex>2</trackindex>
															<clipindex>1</clipindex>
															<groupindex>1</groupindex>
														</link>
														<logginginfo>
															<description></description>
															<scene></scene>
															<shottake></shottake>
															<lognote>https://www.youtube.com/watch?v=Lyv_K_vVcuU</lognote>
															<good></good>
															<originalvideofilename></originalvideofilename>
															<originalaudiofilename></originalaudiofilename>
														</logginginfo>
														<colorinfo>
															<lut></lut>
															<lut1></lut1>
															<asc_sop></asc_sop>
															<asc_sat></asc_sat>
															<lut2></lut2>
														</colorinfo>
														<labels>
															<label2>Iris</label2>
														</labels>
													</clipitem>
													<transitionitem>
														<start>291</start>
														<end>321</end>
														<pproTicksIn>2466419155200</pproTicksIn>
														<pproTicksOut>2720689171200</pproTicksOut>
														<alignment>center</alignment>
														<cutPointTicks>127135008000</cutPointTicks>
														<rate>
															<timebase>30</timebase>
															<ntsc>TRUE</ntsc>
														</rate>
														<effect>
															<name>Cross Fade (+3dB)</name>
															<effectid>KGAudioTransCrossFade3dB</effectid>
															<effecttype>transition</effecttype>
															<mediatype>audio</mediatype>
															<wipecode>0</wipecode>
															<wipeaccuracy>100</wipeaccuracy>
															<startratio>0</startratio>
															<endratio>1</endratio>
															<reverse>FALSE</reverse>
														</effect>
													</transitionitem>
													<clipitem id="clipitem-701" premiereChannelType="stereo">
														<masterclipid>masterclip-184</masterclipid>
														<name>(YT Object)_New Compilation Of The Best Close-Up Videos from OBJECT_Lyv_K_vVcuU_YT.mp4</name>
														<enabled>TRUE</enabled>
														<duration>14408</duration>
														<rate>
															<timebase>30</timebase>
															<ntsc>TRUE</ntsc>
														</rate>
														<start>-1</start>
														<end>-1</end>
														<in>1032</in>
														<out>1352</out>
														<pproTicksIn>8746888550400</pproTicksIn>
														<pproTicksOut>11459102054400</pproTicksOut>
														<file id="file-178"/>
														<sourcetrack>
															<mediatype>audio</mediatype>
															<trackindex>2</trackindex>
														</sourcetrack>
														<link>
															<linkclipref>clipitem-696</linkclipref>
															<mediatype>audio</mediatype>
															<trackindex>1</trackindex>
															<clipindex>3</clipindex>
															<groupindex>1</groupindex>
														</link>
														<link>
															<linkclipref>clipitem-701</linkclipref>
															<mediatype>audio</mediatype>
															<trackindex>2</trackindex>
															<clipindex>3</clipindex>
															<groupindex>1</groupindex>
														</link>
														<logginginfo>
															<description></description>
															<scene></scene>
															<shottake></shottake>
															<lognote>https://www.youtube.com/watch?v=Lyv_K_vVcuU</lognote>
															<good></good>
															<originalvideofilename></originalvideofilename>
															<originalaudiofilename></originalaudiofilename>
														</logginginfo>
														<colorinfo>
															<lut></lut>
															<lut1></lut1>
															<asc_sop></asc_sop>
															<asc_sat></asc_sat>
															<lut2></lut2>
														</colorinfo>
														<labels>
															<label2>Iris</label2>
														</labels>
													</clipitem>
													<transitionitem>
														<start>581</start>
														<end>611</end>
														<pproTicksIn>4924362643200</pproTicksIn>
														<pproTicksOut>5178632659200</pproTicksOut>
														<alignment>center</alignment>
														<cutPointTicks>127135008000</cutPointTicks>
														<rate>
															<timebase>30</timebase>
															<ntsc>TRUE</ntsc>
														</rate>
														<effect>
															<name>Cross Fade (+3dB)</name>
															<effectid>KGAudioTransCrossFade3dB</effectid>
															<effecttype>transition</effecttype>
															<mediatype>audio</mediatype>
															<wipecode>0</wipecode>
															<wipeaccuracy>100</wipeaccuracy>
															<startratio>0</startratio>
															<endratio>1</endratio>
															<reverse>FALSE</reverse>
														</effect>
													</transitionitem>
													<clipitem id="clipitem-702" premiereChannelType="stereo">
														<masterclipid>masterclip-184</masterclipid>
														<name>(YT Object)_New Compilation Of The Best Close-Up Videos from OBJECT_Lyv_K_vVcuU_YT.mp4</name>
														<enabled>TRUE</enabled>
														<duration>14408</duration>
														<rate>
															<timebase>30</timebase>
															<ntsc>TRUE</ntsc>
														</rate>
														<start>-1</start>
														<end>-1</end>
														<in>1935</in>
														<out>2862</out>
														<pproTicksIn>16400416032000</pproTicksIn>
														<pproTicksOut>24257359526400</pproTicksOut>
														<file id="file-178"/>
														<sourcetrack>
															<mediatype>audio</mediatype>
															<trackindex>2</trackindex>
														</sourcetrack>
														<link>
															<linkclipref>clipitem-685</linkclipref>
															<mediatype>video</mediatype>
															<trackindex>1</trackindex>
															<clipindex>3</clipindex>
														</link>
														<link>
															<linkclipref>clipitem-697</linkclipref>
															<mediatype>audio</mediatype>
															<trackindex>1</trackindex>
															<clipindex>5</clipindex>
															<groupindex>1</groupindex>
														</link>
														<link>
															<linkclipref>clipitem-702</linkclipref>
															<mediatype>audio</mediatype>
															<trackindex>2</trackindex>
															<clipindex>5</clipindex>
															<groupindex>1</groupindex>
														</link>
														<logginginfo>
															<description></description>
															<scene></scene>
															<shottake></shottake>
															<lognote>https://www.youtube.com/watch?v=Lyv_K_vVcuU</lognote>
															<good></good>
															<originalvideofilename></originalvideofilename>
															<originalaudiofilename></originalaudiofilename>
														</logginginfo>
														<colorinfo>
															<lut></lut>
															<lut1></lut1>
															<asc_sop></asc_sop>
															<asc_sat></asc_sat>
															<lut2></lut2>
														</colorinfo>
														<labels>
															<label2>Iris</label2>
														</labels>
													</clipitem>
													<transitionitem>
														<start>1478</start>
														<end>1508</end>
														<pproTicksIn>12527036121600</pproTicksIn>
														<pproTicksOut>12781306137600</pproTicksOut>
														<alignment>center</alignment>
														<cutPointTicks>127135008000</cutPointTicks>
														<rate>
															<timebase>30</timebase>
															<ntsc>TRUE</ntsc>
														</rate>
														<effect>
															<name>Cross Fade (+3dB)</name>
															<effectid>KGAudioTransCrossFade3dB</effectid>
															<effecttype>transition</effecttype>
															<mediatype>audio</mediatype>
															<wipecode>0</wipecode>
															<wipeaccuracy>100</wipeaccuracy>
															<startratio>0</startratio>
															<endratio>1</endratio>
															<reverse>FALSE</reverse>
														</effect>
													</transitionitem>
													<clipitem id="clipitem-703" premiereChannelType="stereo">
														<masterclipid>masterclip-184</masterclipid>
														<name>(YT Object)_New Compilation Of The Best Close-Up Videos from OBJECT_Lyv_K_vVcuU_YT.mp4</name>
														<enabled>TRUE</enabled>
														<duration>14408</duration>
														<rate>
															<timebase>30</timebase>
															<ntsc>TRUE</ntsc>
														</rate>
														<start>-1</start>
														<end>-1</end>
														<in>3443</in>
														<out>4333</out>
														<pproTicksIn>29181722169600</pproTicksIn>
														<pproTicksOut>36725065977600</pproTicksOut>
														<file id="file-178"/>
														<sourcetrack>
															<mediatype>audio</mediatype>
															<trackindex>2</trackindex>
														</sourcetrack>
														<link>
															<linkclipref>clipitem-686</linkclipref>
															<mediatype>video</mediatype>
															<trackindex>1</trackindex>
															<clipindex>4</clipindex>
														</link>
														<link>
															<linkclipref>clipitem-698</linkclipref>
															<mediatype>audio</mediatype>
															<trackindex>1</trackindex>
															<clipindex>7</clipindex>
															<groupindex>1</groupindex>
														</link>
														<link>
															<linkclipref>clipitem-703</linkclipref>
															<mediatype>audio</mediatype>
															<trackindex>2</trackindex>
															<clipindex>7</clipindex>
															<groupindex>1</groupindex>
														</link>
														<logginginfo>
															<description></description>
															<scene></scene>
															<shottake></shottake>
															<lognote>https://www.youtube.com/watch?v=Lyv_K_vVcuU</lognote>
															<good></good>
															<originalvideofilename></originalvideofilename>
															<originalaudiofilename></originalaudiofilename>
														</logginginfo>
														<colorinfo>
															<lut></lut>
															<lut1></lut1>
															<asc_sop></asc_sop>
															<asc_sat></asc_sat>
															<lut2></lut2>
														</colorinfo>
														<labels>
															<label2>Iris</label2>
														</labels>
													</clipitem>
													<transitionitem>
														<start>2338</start>
														<end>2368</end>
														<pproTicksIn>19816109913600</pproTicksIn>
														<pproTicksOut>20070379929600</pproTicksOut>
														<alignment>center</alignment>
														<cutPointTicks>127135008000</cutPointTicks>
														<rate>
															<timebase>30</timebase>
															<ntsc>TRUE</ntsc>
														</rate>
														<effect>
															<name>Cross Fade (+3dB)</name>
															<effectid>KGAudioTransCrossFade3dB</effectid>
															<effecttype>transition</effecttype>
															<mediatype>audio</mediatype>
															<wipecode>0</wipecode>
															<wipeaccuracy>100</wipeaccuracy>
															<startratio>0</startratio>
															<endratio>1</endratio>
															<reverse>FALSE</reverse>
														</effect>
													</transitionitem>
													<clipitem id="clipitem-704" premiereChannelType="stereo">
														<masterclipid>masterclip-184</masterclipid>
														<name>(YT Object)_New Compilation Of The Best Close-Up Videos from OBJECT_Lyv_K_vVcuU_YT.mp4</name>
														<enabled>TRUE</enabled>
														<duration>14408</duration>
														<rate>
															<timebase>30</timebase>
															<ntsc>TRUE</ntsc>
														</rate>
														<start>-1</start>
														<end>-1</end>
														<in>4303</in>
														<out>4626</out>
														<pproTicksIn>36470795961600</pproTicksIn>
														<pproTicksOut>39208436467200</pproTicksOut>
														<file id="file-178"/>
														<sourcetrack>
															<mediatype>audio</mediatype>
															<trackindex>2</trackindex>
														</sourcetrack>
														<link>
															<linkclipref>clipitem-687</linkclipref>
															<mediatype>video</mediatype>
															<trackindex>1</trackindex>
															<clipindex>5</clipindex>
														</link>
														<link>
															<linkclipref>clipitem-699</linkclipref>
															<mediatype>audio</mediatype>
															<trackindex>1</trackindex>
															<clipindex>9</clipindex>
															<groupindex>1</groupindex>
														</link>
														<link>
															<linkclipref>clipitem-704</linkclipref>
															<mediatype>audio</mediatype>
															<trackindex>2</trackindex>
															<clipindex>9</clipindex>
															<groupindex>1</groupindex>
														</link>
														<logginginfo>
															<description></description>
															<scene></scene>
															<shottake></shottake>
															<lognote>https://www.youtube.com/watch?v=Lyv_K_vVcuU</lognote>
															<good></good>
															<originalvideofilename></originalvideofilename>
															<originalaudiofilename></originalaudiofilename>
														</logginginfo>
														<colorinfo>
															<lut></lut>
															<lut1></lut1>
															<asc_sop></asc_sop>
															<asc_sat></asc_sat>
															<lut2></lut2>
														</colorinfo>
														<labels>
															<label2>Iris</label2>
														</labels>
													</clipitem>
													<transitionitem>
														<start>2631</start>
														<end>2661</end>
														<pproTicksIn>22299480403200</pproTicksIn>
														<pproTicksOut>22553750419200</pproTicksOut>
														<alignment>end-black</alignment>
														<cutPointTicks>254270016000</cutPointTicks>
														<rate>
															<timebase>30</timebase>
															<ntsc>TRUE</ntsc>
														</rate>
														<effect>
															<name>Cross Fade (+3dB)</name>
															<effectid>KGAudioTransCrossFade3dB</effectid>
															<effecttype>transition</effecttype>
															<mediatype>audio</mediatype>
															<wipecode>0</wipecode>
															<wipeaccuracy>100</wipeaccuracy>
															<startratio>0</startratio>
															<endratio>1</endratio>
															<reverse>FALSE</reverse>
														</effect>
													</transitionitem>
													<enabled>TRUE</enabled>
													<locked>FALSE</locked>
													<filter>
														<effect>
															<name>Audio Levels</name>
															<effectid>audiolevels</effectid>
															<effectcategory>audiolevels</effectcategory>
															<effecttype>audiolevels</effecttype>
															<mediatype>audio</mediatype>
															<parameter authoringApp="PremierePro">
																<parameterid>level</parameterid>
																<name>Level</name>
																<valuemin>0</valuemin>
																<valuemax>3.98109</valuemax>
																<value>0.997636</value>
															</parameter>
														</effect>
													</filter>
													<outputchannelindex>2</outputchannelindex>
												</track>
												<track TL.SQTrackAudioKeyframeStyle="0" TL.SQTrackShy="0" TL.SQTrackExpandedHeight="25" TL.SQTrackExpanded="0" MZ.TrackTargeted="0" PannerCurrentValue="0.5" PannerIsInverted="true" PannerStartKeyframe="-91445760000000000,0.5,0,0,0,0,0,0" PannerName="Balance" currentExplodedTrackIndex="0" totalExplodedTrackCount="2" premiereTrackType="Stereo">
													<transitionitem>
														<start>0</start>
														<end>30</end>
														<pproTicksIn>0</pproTicksIn>
														<pproTicksOut>254270016000</pproTicksOut>
														<alignment>start-black</alignment>
														<cutPointTicks>0</cutPointTicks>
														<rate>
															<timebase>30</timebase>
															<ntsc>TRUE</ntsc>
														</rate>
														<effect>
															<name>Cross Fade (+3dB)</name>
															<effectid>KGAudioTransCrossFade3dB</effectid>
															<effecttype>transition</effecttype>
															<mediatype>audio</mediatype>
															<wipecode>0</wipecode>
															<wipeaccuracy>100</wipeaccuracy>
															<startratio>0</startratio>
															<endratio>1</endratio>
															<reverse>FALSE</reverse>
														</effect>
													</transitionitem>
													<clipitem id="clipitem-705" premiereChannelType="stereo">
														<masterclipid>masterclip-27</masterclipid>
														<name>When Mountains Move - Pretend to Forget.mp3</name>
														<enabled>TRUE</enabled>
														<duration>8909</duration>
														<rate>
															<timebase>30</timebase>
															<ntsc>TRUE</ntsc>
														</rate>
														<start>-1</start>
														<end>-1</end>
														<in>959</in>
														<out>3620</out>
														<pproTicksIn>8128164844800</pproTicksIn>
														<pproTicksOut>30681915264000</pproTicksOut>
														<file id="file-27"/>
														<sourcetrack>
															<mediatype>audio</mediatype>
															<trackindex>1</trackindex>
														</sourcetrack>
														<link>
															<linkclipref>clipitem-705</linkclipref>
															<mediatype>audio</mediatype>
															<trackindex>3</trackindex>
															<clipindex>2</clipindex>
															<groupindex>1</groupindex>
														</link>
														<link>
															<linkclipref>clipitem-706</linkclipref>
															<mediatype>audio</mediatype>
															<trackindex>4</trackindex>
															<clipindex>2</clipindex>
															<groupindex>1</groupindex>
														</link>
														<logginginfo>
															<description></description>
															<scene></scene>
															<shottake></shottake>
															<lognote></lognote>
															<good></good>
															<originalvideofilename></originalvideofilename>
															<originalaudiofilename></originalaudiofilename>
														</logginginfo>
														<colorinfo>
															<lut></lut>
															<lut1></lut1>
															<asc_sop></asc_sop>
															<asc_sat></asc_sat>
															<lut2></lut2>
														</colorinfo>
														<labels>
															<label2>Caribbean</label2>
														</labels>
													</clipitem>
													<transitionitem>
														<start>2572</start>
														<end>2661</end>
														<pproTicksIn>21790941350400</pproTicksIn>
														<pproTicksOut>22553750419200</pproTicksOut>
														<alignment>end-black</alignment>
														<cutPointTicks>762809068800</cutPointTicks>
														<rate>
															<timebase>30</timebase>
															<ntsc>TRUE</ntsc>
														</rate>
														<effect>
															<name>Cross Fade (+3dB)</name>
															<effectid>KGAudioTransCrossFade3dB</effectid>
															<effecttype>transition</effecttype>
															<mediatype>audio</mediatype>
															<wipecode>0</wipecode>
															<wipeaccuracy>100</wipeaccuracy>
															<startratio>0</startratio>
															<endratio>1</endratio>
															<reverse>FALSE</reverse>
														</effect>
													</transitionitem>
													<enabled>TRUE</enabled>
													<locked>FALSE</locked>
													<filter>
														<effect>
															<name>Audio Levels</name>
															<effectid>audiolevels</effectid>
															<effectcategory>audiolevels</effectcategory>
															<effecttype>audiolevels</effecttype>
															<mediatype>audio</mediatype>
															<parameter authoringApp="PremierePro">
																<parameterid>level</parameterid>
																<name>Level</name>
																<valuemin>0</valuemin>
																<valuemax>3.98109</valuemax>
																<value>0.706272</value>
															</parameter>
														</effect>
													</filter>
													<outputchannelindex>1</outputchannelindex>
												</track>
												<track TL.SQTrackAudioKeyframeStyle="0" TL.SQTrackShy="0" TL.SQTrackExpandedHeight="25" TL.SQTrackExpanded="0" MZ.TrackTargeted="0" PannerCurrentValue="0.5" PannerIsInverted="true" PannerStartKeyframe="-91445760000000000,0.5,0,0,0,0,0,0" PannerName="Balance" currentExplodedTrackIndex="1" totalExplodedTrackCount="2" premiereTrackType="Stereo">
													<transitionitem>
														<start>0</start>
														<end>30</end>
														<pproTicksIn>0</pproTicksIn>
														<pproTicksOut>254270016000</pproTicksOut>
														<alignment>start-black</alignment>
														<cutPointTicks>0</cutPointTicks>
														<rate>
															<timebase>30</timebase>
															<ntsc>TRUE</ntsc>
														</rate>
														<effect>
															<name>Cross Fade (+3dB)</name>
															<effectid>KGAudioTransCrossFade3dB</effectid>
															<effecttype>transition</effecttype>
															<mediatype>audio</mediatype>
															<wipecode>0</wipecode>
															<wipeaccuracy>100</wipeaccuracy>
															<startratio>0</startratio>
															<endratio>1</endratio>
															<reverse>FALSE</reverse>
														</effect>
													</transitionitem>
													<clipitem id="clipitem-706" premiereChannelType="stereo">
														<masterclipid>masterclip-27</masterclipid>
														<name>When Mountains Move - Pretend to Forget.mp3</name>
														<enabled>TRUE</enabled>
														<duration>8909</duration>
														<rate>
															<timebase>30</timebase>
															<ntsc>TRUE</ntsc>
														</rate>
														<start>-1</start>
														<end>-1</end>
														<in>959</in>
														<out>3620</out>
														<pproTicksIn>8128164844800</pproTicksIn>
														<pproTicksOut>30681915264000</pproTicksOut>
														<file id="file-27"/>
														<sourcetrack>
															<mediatype>audio</mediatype>
															<trackindex>2</trackindex>
														</sourcetrack>
														<link>
															<linkclipref>clipitem-705</linkclipref>
															<mediatype>audio</mediatype>
															<trackindex>3</trackindex>
															<clipindex>2</clipindex>
															<groupindex>1</groupindex>
														</link>
														<link>
															<linkclipref>clipitem-706</linkclipref>
															<mediatype>audio</mediatype>
															<trackindex>4</trackindex>
															<clipindex>2</clipindex>
															<groupindex>1</groupindex>
														</link>
														<logginginfo>
															<description></description>
															<scene></scene>
															<shottake></shottake>
															<lognote></lognote>
															<good></good>
															<originalvideofilename></originalvideofilename>
															<originalaudiofilename></originalaudiofilename>
														</logginginfo>
														<colorinfo>
															<lut></lut>
															<lut1></lut1>
															<asc_sop></asc_sop>
															<asc_sat></asc_sat>
															<lut2></lut2>
														</colorinfo>
														<labels>
															<label2>Caribbean</label2>
														</labels>
													</clipitem>
													<transitionitem>
														<start>2572</start>
														<end>2661</end>
														<pproTicksIn>21790941350400</pproTicksIn>
														<pproTicksOut>22553750419200</pproTicksOut>
														<alignment>end-black</alignment>
														<cutPointTicks>762809068800</cutPointTicks>
														<rate>
															<timebase>30</timebase>
															<ntsc>TRUE</ntsc>
														</rate>
														<effect>
															<name>Cross Fade (+3dB)</name>
															<effectid>KGAudioTransCrossFade3dB</effectid>
															<effecttype>transition</effecttype>
															<mediatype>audio</mediatype>
															<wipecode>0</wipecode>
															<wipeaccuracy>100</wipeaccuracy>
															<startratio>0</startratio>
															<endratio>1</endratio>
															<reverse>FALSE</reverse>
														</effect>
													</transitionitem>
													<enabled>TRUE</enabled>
													<locked>FALSE</locked>
													<filter>
														<effect>
															<name>Audio Levels</name>
															<effectid>audiolevels</effectid>
															<effectcategory>audiolevels</effectcategory>
															<effecttype>audiolevels</effecttype>
															<mediatype>audio</mediatype>
															<parameter authoringApp="PremierePro">
																<parameterid>level</parameterid>
																<name>Level</name>
																<valuemin>0</valuemin>
																<valuemax>3.98109</valuemax>
																<value>0.706272</value>
															</parameter>
														</effect>
													</filter>
													<outputchannelindex>2</outputchannelindex>
												</track>
											</audio>
										</media>
										<timecode>
											<rate>
												<timebase>30</timebase>
												<ntsc>TRUE</ntsc>
											</rate>
											<string>00:00:00:00</string>
											<frame>0</frame>
											<displayformat>NDF</displayformat>
										</timecode>
										<labels>
											<label2>Forest</label2>
										</labels>
										<logginginfo>
											<description></description>
											<scene></scene>
											<shottake></shottake>
											<lognote></lognote>
											<good></good>
											<originalvideofilename></originalvideofilename>
											<originalaudiofilename></originalaudiofilename>
										</logginginfo>
									</sequence>
									<sequence id="sequence-69" TL.SQAudioVisibleBase="0" TL.SQVideoVisibleBase="0" TL.SQVisibleBaseTime="0" TL.SQAVDividerPosition="0.5" TL.SQHideShyTracks="0" TL.SQHeaderWidth="236" TL.SQDataTrackViewControlState="0" Monitor.ProgramZoomOut="20833189977600" Monitor.ProgramZoomIn="0" TL.SQTimePerPixel="0.13818516812528489" AM.TrackVScrollPosition="0" AM.TrackScrollPosition="0" MZ.EditLine="8323105190400" MZ.Sequence.PreviewFrameSizeHeight="1080" MZ.Sequence.PreviewFrameSizeWidth="1920" MZ.Sequence.AudioTimeDisplayFormat="200" MZ.Sequence.PreviewRenderingClassID="1297106761" MZ.Sequence.PreviewRenderingPresetCodec="1297107278" MZ.Sequence.PreviewRenderingPresetPath="EncoderPresets/SequencePreview/795454d9-d3c2-429d-9474-923ab13b7018/I-Frame Only MPEG.epr" MZ.Sequence.PreviewUseMaxRenderQuality="false" MZ.Sequence.PreviewUseMaxBitDepth="false" MZ.Sequence.EditingModeGUID="795454d9-d3c2-429d-9474-923ab13b7018" MZ.Sequence.VideoTimeDisplayFormat="103" MZ.WorkOutPoint="25588039276800" MZ.WorkInPoint="0" explodedTracks="true">
										<uuid>df51ef9d-2f05-4687-bfb7-4473c54e52f3</uuid>
										<duration>2458</duration>
										<rate>
											<timebase>30</timebase>
											<ntsc>TRUE</ntsc>
										</rate>
										<out>2458</out>
										<name>SAT_chalk_1.5</name>
										<media>
											<video>
												<format>
													<samplecharacteristics>
														<rate>
															<timebase>30</timebase>
															<ntsc>TRUE</ntsc>
														</rate>
														<codec>
															<name>Apple ProRes 422</name>
															<appspecificdata>
																<appname>Final Cut Pro</appname>
																<appmanufacturer>Apple Inc.</appmanufacturer>
																<appversion>7.0</appversion>
																<data>
																	<qtcodec>
																		<codecname>Apple ProRes 422</codecname>
																		<codectypename>Apple ProRes 422</codectypename>
																		<codectypecode>apcn</codectypecode>
																		<codecvendorcode>appl</codecvendorcode>
																		<spatialquality>1024</spatialquality>
																		<temporalquality>0</temporalquality>
																		<keyframerate>0</keyframerate>
																		<datarate>0</datarate>
																	</qtcodec>
																</data>
															</appspecificdata>
														</codec>
														<width>1920</width>
														<height>1080</height>
														<anamorphic>FALSE</anamorphic>
														<pixelaspectratio>square</pixelaspectratio>
														<fielddominance>none</fielddominance>
														<colordepth>24</colordepth>
													</samplecharacteristics>
												</format>
												<track TL.SQTrackShy="0" TL.SQTrackExpandedHeight="25" TL.SQTrackExpanded="0" MZ.TrackTargeted="1">
													<clipitem id="clipitem-707">
														<masterclipid>masterclip-185</masterclipid>
														<name>(chalktingzz)_Bxgo8qGFfF7_IG.mp4</name>
														<enabled>TRUE</enabled>
														<duration>1788</duration>
														<rate>
															<timebase>30</timebase>
															<ntsc>TRUE</ntsc>
														</rate>
														<start>0</start>
														<end>1160</end>
														<in>36</in>
														<out>1196</out>
														<pproTicksIn>305124019200</pproTicksIn>
														<pproTicksOut>10136897971200</pproTicksOut>
														<alphatype>none</alphatype>
														<pixelaspectratio>square</pixelaspectratio>
														<anamorphic>FALSE</anamorphic>
														<file id="file-179">
															<name>(chalktingzz)_Bxgo8qGFfF7_IG.mp4</name>
															<pathurl>file://localhost/Volumes/Satisfactum%20Satisfactorum/00_Hub%20World/3_Raw%20Files/Clip%20Providers/chalktingzz/(chalktingzz)_Bxgo8qGFfF7_IG.mp4</pathurl>
															<rate>
																<timebase>30</timebase>
																<ntsc>FALSE</ntsc>
															</rate>
															<duration>1790</duration>
															<timecode>
																<rate>
																	<timebase>30</timebase>
																	<ntsc>FALSE</ntsc>
																</rate>
																<string>00:00:00:00</string>
																<frame>0</frame>
																<displayformat>NDF</displayformat>
															</timecode>
															<media>
																<video>
																	<samplecharacteristics>
																		<rate>
																			<timebase>30</timebase>
																			<ntsc>FALSE</ntsc>
																		</rate>
																		<width>720</width>
																		<height>900</height>
																		<anamorphic>FALSE</anamorphic>
																		<pixelaspectratio>square</pixelaspectratio>
																		<fielddominance>none</fielddominance>
																	</samplecharacteristics>
																</video>
																<audio>
																	<samplecharacteristics>
																		<depth>16</depth>
																		<samplerate>48000</samplerate>
																	</samplecharacteristics>
																	<channelcount>2</channelcount>
																</audio>
															</media>
														</file>
														<filter>
															<effect>
																<name>Basic Motion</name>
																<effectid>basic</effectid>
																<effectcategory>motion</effectcategory>
																<effecttype>motion</effecttype>
																<mediatype>video</mediatype>
																<pproBypass>false</pproBypass>
																<parameter authoringApp="PremierePro">
																	<parameterid>scale</parameterid>
																	<name>Scale</name>
																	<valuemin>0</valuemin>
																	<valuemax>1000</valuemax>
																	<value>268</value>
																</parameter>
																<parameter authoringApp="PremierePro">
																	<parameterid>rotation</parameterid>
																	<name>Rotation</name>
																	<valuemin>-8640</valuemin>
																	<valuemax>8640</valuemax>
																	<value>0</value>
																</parameter>
																<parameter authoringApp="PremierePro">
																	<parameterid>center</parameterid>
																	<name>Center</name>
																	<value>
																		<horiz>0</horiz>
																		<vert>0</vert>
																	</value>
																</parameter>
																<parameter authoringApp="PremierePro">
																	<parameterid>centerOffset</parameterid>
																	<name>Anchor Point</name>
																	<value>
																		<horiz>0</horiz>
																		<vert>0</vert>
																	</value>
																</parameter>
																<parameter authoringApp="PremierePro">
																	<parameterid>antiflicker</parameterid>
																	<name>Anti-flicker Filter</name>
																	<valuemin>0.0</valuemin>
																	<valuemax>1.0</valuemax>
																	<value>0</value>
																</parameter>
															</effect>
														</filter>
														<filter>
															<effect>
																<name>Gaussian Blur</name>
																<effectid>Gaussian Blur</effectid>
																<effectcategory>Blur</effectcategory>
																<effecttype>motion</effecttype>
																<mediatype>video</mediatype>
																<pproBypass>false</pproBypass>
																<parameter authoringApp="PremierePro">
																	<parameterid>radius</parameterid>
																	<name>Radius</name>
																	<valuemin>0</valuemin>
																	<valuemax>100</valuemax>
																	<value>150</value>
																</parameter>
															</effect>
														</filter>
														<link>
															<linkclipref>clipitem-707</linkclipref>
															<mediatype>video</mediatype>
															<trackindex>1</trackindex>
															<clipindex>1</clipindex>
														</link>
														<link>
															<linkclipref>clipitem-714</linkclipref>
															<mediatype>audio</mediatype>
															<trackindex>1</trackindex>
															<clipindex>2</clipindex>
															<groupindex>1</groupindex>
														</link>
														<link>
															<linkclipref>clipitem-717</linkclipref>
															<mediatype>audio</mediatype>
															<trackindex>2</trackindex>
															<clipindex>2</clipindex>
															<groupindex>1</groupindex>
														</link>
														<logginginfo>
															<description></description>
															<scene></scene>
															<shottake></shottake>
															<lognote></lognote>
															<good></good>
															<originalvideofilename></originalvideofilename>
															<originalaudiofilename></originalaudiofilename>
														</logginginfo>
														<colorinfo>
															<lut></lut>
															<lut1></lut1>
															<asc_sop></asc_sop>
															<asc_sat></asc_sat>
															<lut2></lut2>
														</colorinfo>
														<labels>
															<label2>Iris</label2>
														</labels>
													</clipitem>
													<enabled>TRUE</enabled>
													<locked>FALSE</locked>
												</track>
												<track TL.SQTrackShy="0" TL.SQTrackExpandedHeight="25" TL.SQTrackExpanded="0" MZ.TrackTargeted="0">
													<clipitem id="clipitem-708">
														<masterclipid>masterclip-185</masterclipid>
														<name>(chalktingzz)_Bxgo8qGFfF7_IG.mp4</name>
														<enabled>TRUE</enabled>
														<duration>1788</duration>
														<rate>
															<timebase>30</timebase>
															<ntsc>TRUE</ntsc>
														</rate>
														<start>0</start>
														<end>1160</end>
														<in>36</in>
														<out>1196</out>
														<pproTicksIn>305124019200</pproTicksIn>
														<pproTicksOut>10136897971200</pproTicksOut>
														<alphatype>none</alphatype>
														<file id="file-179"/>
														<filter>
															<effect>
																<name>Basic Motion</name>
																<effectid>basic</effectid>
																<effectcategory>motion</effectcategory>
																<effecttype>motion</effecttype>
																<mediatype>video</mediatype>
																<pproBypass>false</pproBypass>
																<parameter authoringApp="PremierePro">
																	<parameterid>scale</parameterid>
																	<name>Scale</name>
																	<valuemin>0</valuemin>
																	<valuemax>1000</valuemax>
																	<value>127</value>
																</parameter>
																<parameter authoringApp="PremierePro">
																	<parameterid>rotation</parameterid>
																	<name>Rotation</name>
																	<valuemin>-8640</valuemin>
																	<valuemax>8640</valuemax>
																	<value>0</value>
																</parameter>
																<parameter authoringApp="PremierePro">
																	<parameterid>center</parameterid>
																	<name>Center</name>
																	<value>
																		<horiz>0</horiz>
																		<vert>0</vert>
																	</value>
																</parameter>
																<parameter authoringApp="PremierePro">
																	<parameterid>centerOffset</parameterid>
																	<name>Anchor Point</name>
																	<value>
																		<horiz>0</horiz>
																		<vert>0</vert>
																	</value>
																</parameter>
																<parameter authoringApp="PremierePro">
																	<parameterid>antiflicker</parameterid>
																	<name>Anti-flicker Filter</name>
																	<valuemin>0.0</valuemin>
																	<valuemax>1.0</valuemax>
																	<value>0</value>
																</parameter>
															</effect>
														</filter>
														<logginginfo>
															<description></description>
															<scene></scene>
															<shottake></shottake>
															<lognote></lognote>
															<good></good>
															<originalvideofilename></originalvideofilename>
															<originalaudiofilename></originalaudiofilename>
														</logginginfo>
														<colorinfo>
															<lut></lut>
															<lut1></lut1>
															<asc_sop></asc_sop>
															<asc_sat></asc_sat>
															<lut2></lut2>
														</colorinfo>
														<labels>
															<label2>Iris</label2>
														</labels>
													</clipitem>
													<clipitem id="clipitem-709">
														<masterclipid>masterclip-186</masterclipid>
														<name>(all_that_glitters_asmr)_B1ebLFPhpz2 - 2_IG.mp4</name>
														<enabled>TRUE</enabled>
														<duration>1594</duration>
														<rate>
															<timebase>30</timebase>
															<ntsc>TRUE</ntsc>
														</rate>
														<start>1160</start>
														<end>2458</end>
														<in>5</in>
														<out>1303</out>
														<pproTicksIn>42378336000</pproTicksIn>
														<pproTicksOut>11043794361600</pproTicksOut>
														<alphatype>none</alphatype>
														<pixelaspectratio>square</pixelaspectratio>
														<anamorphic>FALSE</anamorphic>
														<file id="file-180">
															<name>(all_that_glitters_asmr)_B1ebLFPhpz2 - 2_IG.mp4</name>
															<pathurl>file://localhost/Volumes/Satisfactum%20Satisfactorum/00_Hub%20World/3_Raw%20Files/Clip%20Providers/all_that_glitters_asmr%203-20/(all_that_glitters_asmr)_B1ebLFPhpz2%20-%202_IG.mp4</pathurl>
															<rate>
																<timebase>30</timebase>
																<ntsc>FALSE</ntsc>
															</rate>
															<duration>1596</duration>
															<timecode>
																<rate>
																	<timebase>30</timebase>
																	<ntsc>FALSE</ntsc>
																</rate>
																<string>00:00:00:00</string>
																<frame>0</frame>
																<displayformat>NDF</displayformat>
															</timecode>
															<media>
																<video>
																	<samplecharacteristics>
																		<rate>
																			<timebase>30</timebase>
																			<ntsc>FALSE</ntsc>
																		</rate>
																		<width>720</width>
																		<height>900</height>
																		<anamorphic>FALSE</anamorphic>
																		<pixelaspectratio>square</pixelaspectratio>
																		<fielddominance>none</fielddominance>
																	</samplecharacteristics>
																</video>
																<audio>
																	<samplecharacteristics>
																		<depth>16</depth>
																		<samplerate>44100</samplerate>
																	</samplecharacteristics>
																	<channelcount>2</channelcount>
																</audio>
															</media>
														</file>
														<filter>
															<effect>
																<name>Basic Motion</name>
																<effectid>basic</effectid>
																<effectcategory>motion</effectcategory>
																<effecttype>motion</effecttype>
																<mediatype>video</mediatype>
																<pproBypass>false</pproBypass>
																<parameter authoringApp="PremierePro">
																	<parameterid>scale</parameterid>
																	<name>Scale</name>
																	<valuemin>0</valuemin>
																	<valuemax>1000</valuemax>
																	<value>268</value>
																</parameter>
																<parameter authoringApp="PremierePro">
																	<parameterid>rotation</parameterid>
																	<name>Rotation</name>
																	<valuemin>-8640</valuemin>
																	<valuemax>8640</valuemax>
																	<value>0</value>
																</parameter>
																<parameter authoringApp="PremierePro">
																	<parameterid>center</parameterid>
																	<name>Center</name>
																	<value>
																		<horiz>0</horiz>
																		<vert>0</vert>
																	</value>
																</parameter>
																<parameter authoringApp="PremierePro">
																	<parameterid>centerOffset</parameterid>
																	<name>Anchor Point</name>
																	<value>
																		<horiz>0</horiz>
																		<vert>0</vert>
																	</value>
																</parameter>
																<parameter authoringApp="PremierePro">
																	<parameterid>antiflicker</parameterid>
																	<name>Anti-flicker Filter</name>
																	<valuemin>0.0</valuemin>
																	<valuemax>1.0</valuemax>
																	<value>0</value>
																</parameter>
															</effect>
														</filter>
														<filter>
															<effect>
																<name>Gaussian Blur</name>
																<effectid>Gaussian Blur</effectid>
																<effectcategory>Blur</effectcategory>
																<effecttype>motion</effecttype>
																<mediatype>video</mediatype>
																<pproBypass>false</pproBypass>
																<parameter authoringApp="PremierePro">
																	<parameterid>radius</parameterid>
																	<name>Radius</name>
																	<valuemin>0</valuemin>
																	<valuemax>100</valuemax>
																	<value>150</value>
																</parameter>
															</effect>
														</filter>
														<link>
															<linkclipref>clipitem-709</linkclipref>
															<mediatype>video</mediatype>
															<trackindex>2</trackindex>
															<clipindex>2</clipindex>
														</link>
														<link>
															<linkclipref>clipitem-716</linkclipref>
															<mediatype>audio</mediatype>
															<trackindex>1</trackindex>
															<clipindex>6</clipindex>
															<groupindex>1</groupindex>
														</link>
														<link>
															<linkclipref>clipitem-719</linkclipref>
															<mediatype>audio</mediatype>
															<trackindex>2</trackindex>
															<clipindex>6</clipindex>
															<groupindex>1</groupindex>
														</link>
														<logginginfo>
															<description></description>
															<scene></scene>
															<shottake></shottake>
															<lognote></lognote>
															<good></good>
															<originalvideofilename></originalvideofilename>
															<originalaudiofilename></originalaudiofilename>
														</logginginfo>
														<colorinfo>
															<lut></lut>
															<lut1></lut1>
															<asc_sop></asc_sop>
															<asc_sat></asc_sat>
															<lut2></lut2>
														</colorinfo>
														<labels>
															<label2>Iris</label2>
														</labels>
													</clipitem>
													<enabled>TRUE</enabled>
													<locked>FALSE</locked>
												</track>
												<track TL.SQTrackShy="0" TL.SQTrackExpandedHeight="25" TL.SQTrackExpanded="0" MZ.TrackTargeted="0">
													<clipitem id="clipitem-710">
														<masterclipid>masterclip-186</masterclipid>
														<name>(all_that_glitters_asmr)_B1ebLFPhpz2 - 2_IG.mp4</name>
														<enabled>TRUE</enabled>
														<duration>1594</duration>
														<rate>
															<timebase>30</timebase>
															<ntsc>TRUE</ntsc>
														</rate>
														<start>1160</start>
														<end>2458</end>
														<in>5</in>
														<out>1303</out>
														<pproTicksIn>42378336000</pproTicksIn>
														<pproTicksOut>11043794361600</pproTicksOut>
														<alphatype>none</alphatype>
														<file id="file-180"/>
														<filter>
															<effect>
																<name>Basic Motion</name>
																<effectid>basic</effectid>
																<effectcategory>motion</effectcategory>
																<effecttype>motion</effecttype>
																<mediatype>video</mediatype>
																<pproBypass>false</pproBypass>
																<parameter authoringApp="PremierePro">
																	<parameterid>scale</parameterid>
																	<name>Scale</name>
																	<valuemin>0</valuemin>
																	<valuemax>1000</valuemax>
																	<value>127</value>
																</parameter>
																<parameter authoringApp="PremierePro">
																	<parameterid>rotation</parameterid>
																	<name>Rotation</name>
																	<valuemin>-8640</valuemin>
																	<valuemax>8640</valuemax>
																	<value>0</value>
																</parameter>
																<parameter authoringApp="PremierePro">
																	<parameterid>center</parameterid>
																	<name>Center</name>
																	<value>
																		<horiz>0</horiz>
																		<vert>0</vert>
																	</value>
																</parameter>
																<parameter authoringApp="PremierePro">
																	<parameterid>centerOffset</parameterid>
																	<name>Anchor Point</name>
																	<value>
																		<horiz>0</horiz>
																		<vert>0</vert>
																	</value>
																</parameter>
																<parameter authoringApp="PremierePro">
																	<parameterid>antiflicker</parameterid>
																	<name>Anti-flicker Filter</name>
																	<valuemin>0.0</valuemin>
																	<valuemax>1.0</valuemax>
																	<value>0</value>
																</parameter>
															</effect>
														</filter>
														<logginginfo>
															<description></description>
															<scene></scene>
															<shottake></shottake>
															<lognote></lognote>
															<good></good>
															<originalvideofilename></originalvideofilename>
															<originalaudiofilename></originalaudiofilename>
														</logginginfo>
														<colorinfo>
															<lut></lut>
															<lut1></lut1>
															<asc_sop></asc_sop>
															<asc_sat></asc_sat>
															<lut2></lut2>
														</colorinfo>
														<labels>
															<label2>Iris</label2>
														</labels>
													</clipitem>
													<enabled>TRUE</enabled>
													<locked>FALSE</locked>
												</track>
												<track TL.SQTrackShy="0" TL.SQTrackExpandedHeight="25" TL.SQTrackExpanded="0" MZ.TrackTargeted="0">
													<clipitem id="clipitem-711">
														<masterclipid>masterclip-52</masterclipid>
														<name>chalktingzz IG confirmed</name>
														<enabled>TRUE</enabled>
														<duration>5844</duration>
														<rate>
															<timebase>30</timebase>
															<ntsc>TRUE</ntsc>
														</rate>
														<start>0</start>
														<end>1160</end>
														<in>0</in>
														<out>1160</out>
														<pproTicksIn>0</pproTicksIn>
														<pproTicksOut>9831773952000</pproTicksOut>
														<alphatype>straight</alphatype>
														<file id="file-52"/>
														<filter>
															<effect>
																<name>Basic Motion</name>
																<effectid>basic</effectid>
																<effectcategory>motion</effectcategory>
																<effecttype>motion</effecttype>
																<mediatype>video</mediatype>
																<pproBypass>false</pproBypass>
																<parameter authoringApp="PremierePro">
																	<parameterid>scale</parameterid>
																	<name>Scale</name>
																	<valuemin>0</valuemin>
																	<valuemax>1000</valuemax>
																	<value>150</value>
																</parameter>
																<parameter authoringApp="PremierePro">
																	<parameterid>rotation</parameterid>
																	<name>Rotation</name>
																	<valuemin>-8640</valuemin>
																	<valuemax>8640</valuemax>
																	<value>0</value>
																</parameter>
																<parameter authoringApp="PremierePro">
																	<parameterid>center</parameterid>
																	<name>Center</name>
																	<value>
																		<horiz>0</horiz>
																		<vert>0</vert>
																	</value>
																</parameter>
																<parameter authoringApp="PremierePro">
																	<parameterid>centerOffset</parameterid>
																	<name>Anchor Point</name>
																	<value>
																		<horiz>0</horiz>
																		<vert>0</vert>
																	</value>
																</parameter>
																<parameter authoringApp="PremierePro">
																	<parameterid>antiflicker</parameterid>
																	<name>Anti-flicker Filter</name>
																	<valuemin>0.0</valuemin>
																	<valuemax>1.0</valuemax>
																	<value>0</value>
																</parameter>
															</effect>
														</filter>
														<logginginfo>
															<description></description>
															<scene></scene>
															<shottake></shottake>
															<lognote></lognote>
															<good></good>
															<originalvideofilename></originalvideofilename>
															<originalaudiofilename></originalaudiofilename>
														</logginginfo>
														<colorinfo>
															<lut></lut>
															<lut1></lut1>
															<asc_sop></asc_sop>
															<asc_sat></asc_sat>
															<lut2></lut2>
														</colorinfo>
														<labels>
															<label2>Rose</label2>
														</labels>
													</clipitem>
													<clipitem id="clipitem-712">
														<masterclipid>masterclip-53</masterclipid>
														<name>all_that_glitters_asmr IG confirmed</name>
														<enabled>TRUE</enabled>
														<duration>5844</duration>
														<rate>
															<timebase>30</timebase>
															<ntsc>TRUE</ntsc>
														</rate>
														<start>1160</start>
														<end>2458</end>
														<in>0</in>
														<out>1298</out>
														<pproTicksIn>0</pproTicksIn>
														<pproTicksOut>11001416025600</pproTicksOut>
														<alphatype>straight</alphatype>
														<file id="file-53"/>
														<filter>
															<effect>
																<name>Basic Motion</name>
																<effectid>basic</effectid>
																<effectcategory>motion</effectcategory>
																<effecttype>motion</effecttype>
																<mediatype>video</mediatype>
																<pproBypass>false</pproBypass>
																<parameter authoringApp="PremierePro">
																	<parameterid>scale</parameterid>
																	<name>Scale</name>
																	<valuemin>0</valuemin>
																	<valuemax>1000</valuemax>
																	<value>150</value>
																</parameter>
																<parameter authoringApp="PremierePro">
																	<parameterid>rotation</parameterid>
																	<name>Rotation</name>
																	<valuemin>-8640</valuemin>
																	<valuemax>8640</valuemax>
																	<value>0</value>
																</parameter>
																<parameter authoringApp="PremierePro">
																	<parameterid>center</parameterid>
																	<name>Center</name>
																	<value>
																		<horiz>0</horiz>
																		<vert>0</vert>
																	</value>
																</parameter>
																<parameter authoringApp="PremierePro">
																	<parameterid>centerOffset</parameterid>
																	<name>Anchor Point</name>
																	<value>
																		<horiz>0</horiz>
																		<vert>0</vert>
																	</value>
																</parameter>
																<parameter authoringApp="PremierePro">
																	<parameterid>antiflicker</parameterid>
																	<name>Anti-flicker Filter</name>
																	<valuemin>0.0</valuemin>
																	<valuemax>1.0</valuemax>
																	<value>0</value>
																</parameter>
															</effect>
														</filter>
														<logginginfo>
															<description></description>
															<scene></scene>
															<shottake></shottake>
															<lognote></lognote>
															<good></good>
															<originalvideofilename></originalvideofilename>
															<originalaudiofilename></originalaudiofilename>
														</logginginfo>
														<colorinfo>
															<lut></lut>
															<lut1></lut1>
															<asc_sop></asc_sop>
															<asc_sat></asc_sat>
															<lut2></lut2>
														</colorinfo>
														<labels>
															<label2>Rose</label2>
														</labels>
													</clipitem>
													<enabled>TRUE</enabled>
													<locked>FALSE</locked>
												</track>
												<track TL.SQTrackShy="0" TL.SQTrackExpandedHeight="25" TL.SQTrackExpanded="0" MZ.TrackTargeted="0">
													<clipitem id="clipitem-713">
														<masterclipid>masterclip-106</masterclipid>
														<name>Bug and Lower Nest</name>
														<enabled>TRUE</enabled>
														<duration>14721</duration>
														<rate>
															<timebase>30</timebase>
															<ntsc>TRUE</ntsc>
														</rate>
														<start>0</start>
														<end>2458</end>
														<in>0</in>
														<out>2458</out>
														<pproTicksIn>0</pproTicksIn>
														<pproTicksOut>20833189977600</pproTicksOut>
														<sequence id="sequence-1"/>
														<labels>
															<label2>Cerulean</label2>
														</labels>
													</clipitem>
													<enabled>TRUE</enabled>
													<locked>FALSE</locked>
												</track>
											</video>
											<audio>
												<numOutputChannels>2</numOutputChannels>
												<format>
													<samplecharacteristics>
														<depth>16</depth>
														<samplerate>44100</samplerate>
													</samplecharacteristics>
												</format>
												<outputs>
													<group>
														<index>1</index>
														<numchannels>1</numchannels>
														<downmix>0</downmix>
														<channel>
															<index>1</index>
														</channel>
													</group>
													<group>
														<index>2</index>
														<numchannels>1</numchannels>
														<downmix>0</downmix>
														<channel>
															<index>2</index>
														</channel>
													</group>
												</outputs>
												<track TL.SQTrackAudioKeyframeStyle="0" TL.SQTrackShy="0" TL.SQTrackExpandedHeight="25" TL.SQTrackExpanded="0" MZ.TrackTargeted="1" PannerCurrentValue="0.5" PannerIsInverted="true" PannerStartKeyframe="-91445760000000000,0.5,0,0,0,0,0,0" PannerName="Balance" currentExplodedTrackIndex="0" totalExplodedTrackCount="2" premiereTrackType="Stereo">
													<transitionitem>
														<start>0</start>
														<end>30</end>
														<pproTicksIn>0</pproTicksIn>
														<pproTicksOut>254270016000</pproTicksOut>
														<alignment>start-black</alignment>
														<cutPointTicks>0</cutPointTicks>
														<rate>
															<timebase>30</timebase>
															<ntsc>TRUE</ntsc>
														</rate>
														<effect>
															<name>Cross Fade (+3dB)</name>
															<effectid>KGAudioTransCrossFade3dB</effectid>
															<effecttype>transition</effecttype>
															<mediatype>audio</mediatype>
															<wipecode>0</wipecode>
															<wipeaccuracy>100</wipeaccuracy>
															<startratio>0</startratio>
															<endratio>1</endratio>
															<reverse>FALSE</reverse>
														</effect>
													</transitionitem>
													<clipitem id="clipitem-714" premiereChannelType="stereo">
														<masterclipid>masterclip-185</masterclipid>
														<name>(chalktingzz)_Bxgo8qGFfF7_IG.mp4</name>
														<enabled>TRUE</enabled>
														<duration>1788</duration>
														<rate>
															<timebase>30</timebase>
															<ntsc>TRUE</ntsc>
														</rate>
														<start>-1</start>
														<end>-1</end>
														<in>36</in>
														<out>302</out>
														<pproTicksIn>305124019200</pproTicksIn>
														<pproTicksOut>2559651494400</pproTicksOut>
														<file id="file-179"/>
														<sourcetrack>
															<mediatype>audio</mediatype>
															<trackindex>1</trackindex>
														</sourcetrack>
														<link>
															<linkclipref>clipitem-707</linkclipref>
															<mediatype>video</mediatype>
															<trackindex>1</trackindex>
															<clipindex>1</clipindex>
														</link>
														<link>
															<linkclipref>clipitem-714</linkclipref>
															<mediatype>audio</mediatype>
															<trackindex>1</trackindex>
															<clipindex>2</clipindex>
															<groupindex>1</groupindex>
														</link>
														<link>
															<linkclipref>clipitem-717</linkclipref>
															<mediatype>audio</mediatype>
															<trackindex>2</trackindex>
															<clipindex>2</clipindex>
															<groupindex>1</groupindex>
														</link>
														<logginginfo>
															<description></description>
															<scene></scene>
															<shottake></shottake>
															<lognote></lognote>
															<good></good>
															<originalvideofilename></originalvideofilename>
															<originalaudiofilename></originalaudiofilename>
														</logginginfo>
														<colorinfo>
															<lut></lut>
															<lut1></lut1>
															<asc_sop></asc_sop>
															<asc_sat></asc_sat>
															<lut2></lut2>
														</colorinfo>
														<labels>
															<label2>Iris</label2>
														</labels>
													</clipitem>
													<transitionitem>
														<start>236</start>
														<end>266</end>
														<pproTicksIn>2000257459200</pproTicksIn>
														<pproTicksOut>2254527475200</pproTicksOut>
														<alignment>end-black</alignment>
														<cutPointTicks>254270016000</cutPointTicks>
														<rate>
															<timebase>30</timebase>
															<ntsc>TRUE</ntsc>
														</rate>
														<effect>
															<name>Cross Fade (+3dB)</name>
															<effectid>KGAudioTransCrossFade3dB</effectid>
															<effecttype>transition</effecttype>
															<mediatype>audio</mediatype>
															<wipecode>0</wipecode>
															<wipeaccuracy>100</wipeaccuracy>
															<startratio>0</startratio>
															<endratio>1</endratio>
															<reverse>FALSE</reverse>
														</effect>
													</transitionitem>
													<transitionitem>
														<start>297</start>
														<end>327</end>
														<pproTicksIn>2517273158400</pproTicksIn>
														<pproTicksOut>2771543174400</pproTicksOut>
														<alignment>start-black</alignment>
														<cutPointTicks>0</cutPointTicks>
														<rate>
															<timebase>30</timebase>
															<ntsc>TRUE</ntsc>
														</rate>
														<effect>
															<name>Cross Fade (+3dB)</name>
															<effectid>KGAudioTransCrossFade3dB</effectid>
															<effecttype>transition</effecttype>
															<mediatype>audio</mediatype>
															<wipecode>0</wipecode>
															<wipeaccuracy>100</wipeaccuracy>
															<startratio>0</startratio>
															<endratio>1</endratio>
															<reverse>FALSE</reverse>
														</effect>
													</transitionitem>
													<clipitem id="clipitem-715" premiereChannelType="stereo">
														<masterclipid>masterclip-185</masterclipid>
														<name>(chalktingzz)_Bxgo8qGFfF7_IG.mp4</name>
														<enabled>TRUE</enabled>
														<duration>1788</duration>
														<rate>
															<timebase>30</timebase>
															<ntsc>TRUE</ntsc>
														</rate>
														<start>-1</start>
														<end>1160</end>
														<in>333</in>
														<out>1196</out>
														<pproTicksIn>2822397177600</pproTicksIn>
														<pproTicksOut>10136897971200</pproTicksOut>
														<file id="file-179"/>
														<sourcetrack>
															<mediatype>audio</mediatype>
															<trackindex>1</trackindex>
														</sourcetrack>
														<link>
															<linkclipref>clipitem-715</linkclipref>
															<mediatype>audio</mediatype>
															<trackindex>1</trackindex>
															<clipindex>5</clipindex>
															<groupindex>1</groupindex>
														</link>
														<link>
															<linkclipref>clipitem-718</linkclipref>
															<mediatype>audio</mediatype>
															<trackindex>2</trackindex>
															<clipindex>5</clipindex>
															<groupindex>1</groupindex>
														</link>
														<logginginfo>
															<description></description>
															<scene></scene>
															<shottake></shottake>
															<lognote></lognote>
															<good></good>
															<originalvideofilename></originalvideofilename>
															<originalaudiofilename></originalaudiofilename>
														</logginginfo>
														<colorinfo>
															<lut></lut>
															<lut1></lut1>
															<asc_sop></asc_sop>
															<asc_sat></asc_sat>
															<lut2></lut2>
														</colorinfo>
														<labels>
															<label2>Iris</label2>
														</labels>
													</clipitem>
													<clipitem id="clipitem-716" premiereChannelType="stereo">
														<masterclipid>masterclip-186</masterclipid>
														<name>(all_that_glitters_asmr)_B1ebLFPhpz2 - 2_IG.mp4</name>
														<enabled>TRUE</enabled>
														<duration>1594</duration>
														<rate>
															<timebase>30</timebase>
															<ntsc>TRUE</ntsc>
														</rate>
														<start>1160</start>
														<end>-1</end>
														<in>5</in>
														<out>1303</out>
														<pproTicksIn>42378336000</pproTicksIn>
														<pproTicksOut>11043794361600</pproTicksOut>
														<file id="file-180"/>
														<sourcetrack>
															<mediatype>audio</mediatype>
															<trackindex>1</trackindex>
														</sourcetrack>
														<link>
															<linkclipref>clipitem-709</linkclipref>
															<mediatype>video</mediatype>
															<trackindex>2</trackindex>
															<clipindex>2</clipindex>
														</link>
														<link>
															<linkclipref>clipitem-716</linkclipref>
															<mediatype>audio</mediatype>
															<trackindex>1</trackindex>
															<clipindex>6</clipindex>
															<groupindex>1</groupindex>
														</link>
														<link>
															<linkclipref>clipitem-719</linkclipref>
															<mediatype>audio</mediatype>
															<trackindex>2</trackindex>
															<clipindex>6</clipindex>
															<groupindex>1</groupindex>
														</link>
														<logginginfo>
															<description></description>
															<scene></scene>
															<shottake></shottake>
															<lognote></lognote>
															<good></good>
															<originalvideofilename></originalvideofilename>
															<originalaudiofilename></originalaudiofilename>
														</logginginfo>
														<colorinfo>
															<lut></lut>
															<lut1></lut1>
															<asc_sop></asc_sop>
															<asc_sat></asc_sat>
															<lut2></lut2>
														</colorinfo>
														<labels>
															<label2>Iris</label2>
														</labels>
													</clipitem>
													<transitionitem>
														<start>2428</start>
														<end>2458</end>
														<pproTicksIn>20578919961600</pproTicksIn>
														<pproTicksOut>20833189977600</pproTicksOut>
														<alignment>end-black</alignment>
														<cutPointTicks>254270016000</cutPointTicks>
														<rate>
															<timebase>30</timebase>
															<ntsc>TRUE</ntsc>
														</rate>
														<effect>
															<name>Cross Fade (+3dB)</name>
															<effectid>KGAudioTransCrossFade3dB</effectid>
															<effecttype>transition</effecttype>
															<mediatype>audio</mediatype>
															<wipecode>0</wipecode>
															<wipeaccuracy>100</wipeaccuracy>
															<startratio>0</startratio>
															<endratio>1</endratio>
															<reverse>FALSE</reverse>
														</effect>
													</transitionitem>
													<enabled>TRUE</enabled>
													<locked>FALSE</locked>
													<filter>
														<effect>
															<name>Audio Levels</name>
															<effectid>audiolevels</effectid>
															<effectcategory>audiolevels</effectcategory>
															<effecttype>audiolevels</effecttype>
															<mediatype>audio</mediatype>
															<parameter authoringApp="PremierePro">
																<parameterid>level</parameterid>
																<name>Level</name>
																<valuemin>0</valuemin>
																<valuemax>3.98109</valuemax>
																<value>11.1937</value>
															</parameter>
														</effect>
													</filter>
													<outputchannelindex>1</outputchannelindex>
												</track>
												<track TL.SQTrackAudioKeyframeStyle="0" TL.SQTrackShy="0" TL.SQTrackExpandedHeight="25" TL.SQTrackExpanded="0" MZ.TrackTargeted="1" PannerCurrentValue="0.5" PannerIsInverted="true" PannerStartKeyframe="-91445760000000000,0.5,0,0,0,0,0,0" PannerName="Balance" currentExplodedTrackIndex="1" totalExplodedTrackCount="2" premiereTrackType="Stereo">
													<transitionitem>
														<start>0</start>
														<end>30</end>
														<pproTicksIn>0</pproTicksIn>
														<pproTicksOut>254270016000</pproTicksOut>
														<alignment>start-black</alignment>
														<cutPointTicks>0</cutPointTicks>
														<rate>
															<timebase>30</timebase>
															<ntsc>TRUE</ntsc>
														</rate>
														<effect>
															<name>Cross Fade (+3dB)</name>
															<effectid>KGAudioTransCrossFade3dB</effectid>
															<effecttype>transition</effecttype>
															<mediatype>audio</mediatype>
															<wipecode>0</wipecode>
															<wipeaccuracy>100</wipeaccuracy>
															<startratio>0</startratio>
															<endratio>1</endratio>
															<reverse>FALSE</reverse>
														</effect>
													</transitionitem>
													<clipitem id="clipitem-717" premiereChannelType="stereo">
														<masterclipid>masterclip-185</masterclipid>
														<name>(chalktingzz)_Bxgo8qGFfF7_IG.mp4</name>
														<enabled>TRUE</enabled>
														<duration>1788</duration>
														<rate>
															<timebase>30</timebase>
															<ntsc>TRUE</ntsc>
														</rate>
														<start>-1</start>
														<end>-1</end>
														<in>36</in>
														<out>302</out>
														<pproTicksIn>305124019200</pproTicksIn>
														<pproTicksOut>2559651494400</pproTicksOut>
														<file id="file-179"/>
														<sourcetrack>
															<mediatype>audio</mediatype>
															<trackindex>2</trackindex>
														</sourcetrack>
														<link>
															<linkclipref>clipitem-707</linkclipref>
															<mediatype>video</mediatype>
															<trackindex>1</trackindex>
															<clipindex>1</clipindex>
														</link>
														<link>
															<linkclipref>clipitem-714</linkclipref>
															<mediatype>audio</mediatype>
															<trackindex>1</trackindex>
															<clipindex>2</clipindex>
															<groupindex>1</groupindex>
														</link>
														<link>
															<linkclipref>clipitem-717</linkclipref>
															<mediatype>audio</mediatype>
															<trackindex>2</trackindex>
															<clipindex>2</clipindex>
															<groupindex>1</groupindex>
														</link>
														<logginginfo>
															<description></description>
															<scene></scene>
															<shottake></shottake>
															<lognote></lognote>
															<good></good>
															<originalvideofilename></originalvideofilename>
															<originalaudiofilename></originalaudiofilename>
														</logginginfo>
														<colorinfo>
															<lut></lut>
															<lut1></lut1>
															<asc_sop></asc_sop>
															<asc_sat></asc_sat>
															<lut2></lut2>
														</colorinfo>
														<labels>
															<label2>Iris</label2>
														</labels>
													</clipitem>
													<transitionitem>
														<start>236</start>
														<end>266</end>
														<pproTicksIn>2000257459200</pproTicksIn>
														<pproTicksOut>2254527475200</pproTicksOut>
														<alignment>end-black</alignment>
														<cutPointTicks>254270016000</cutPointTicks>
														<rate>
															<timebase>30</timebase>
															<ntsc>TRUE</ntsc>
														</rate>
														<effect>
															<name>Cross Fade (+3dB)</name>
															<effectid>KGAudioTransCrossFade3dB</effectid>
															<effecttype>transition</effecttype>
															<mediatype>audio</mediatype>
															<wipecode>0</wipecode>
															<wipeaccuracy>100</wipeaccuracy>
															<startratio>0</startratio>
															<endratio>1</endratio>
															<reverse>FALSE</reverse>
														</effect>
													</transitionitem>
													<transitionitem>
														<start>297</start>
														<end>327</end>
														<pproTicksIn>2517273158400</pproTicksIn>
														<pproTicksOut>2771543174400</pproTicksOut>
														<alignment>start-black</alignment>
														<cutPointTicks>0</cutPointTicks>
														<rate>
															<timebase>30</timebase>
															<ntsc>TRUE</ntsc>
														</rate>
														<effect>
															<name>Cross Fade (+3dB)</name>
															<effectid>KGAudioTransCrossFade3dB</effectid>
															<effecttype>transition</effecttype>
															<mediatype>audio</mediatype>
															<wipecode>0</wipecode>
															<wipeaccuracy>100</wipeaccuracy>
															<startratio>0</startratio>
															<endratio>1</endratio>
															<reverse>FALSE</reverse>
														</effect>
													</transitionitem>
													<clipitem id="clipitem-718" premiereChannelType="stereo">
														<masterclipid>masterclip-185</masterclipid>
														<name>(chalktingzz)_Bxgo8qGFfF7_IG.mp4</name>
														<enabled>TRUE</enabled>
														<duration>1788</duration>
														<rate>
															<timebase>30</timebase>
															<ntsc>TRUE</ntsc>
														</rate>
														<start>-1</start>
														<end>1160</end>
														<in>333</in>
														<out>1196</out>
														<pproTicksIn>2822397177600</pproTicksIn>
														<pproTicksOut>10136897971200</pproTicksOut>
														<file id="file-179"/>
														<sourcetrack>
															<mediatype>audio</mediatype>
															<trackindex>2</trackindex>
														</sourcetrack>
														<link>
															<linkclipref>clipitem-715</linkclipref>
															<mediatype>audio</mediatype>
															<trackindex>1</trackindex>
															<clipindex>5</clipindex>
															<groupindex>1</groupindex>
														</link>
														<link>
															<linkclipref>clipitem-718</linkclipref>
															<mediatype>audio</mediatype>
															<trackindex>2</trackindex>
															<clipindex>5</clipindex>
															<groupindex>1</groupindex>
														</link>
														<logginginfo>
															<description></description>
															<scene></scene>
															<shottake></shottake>
															<lognote></lognote>
															<good></good>
															<originalvideofilename></originalvideofilename>
															<originalaudiofilename></originalaudiofilename>
														</logginginfo>
														<colorinfo>
															<lut></lut>
															<lut1></lut1>
															<asc_sop></asc_sop>
															<asc_sat></asc_sat>
															<lut2></lut2>
														</colorinfo>
														<labels>
															<label2>Iris</label2>
														</labels>
													</clipitem>
													<clipitem id="clipitem-719" premiereChannelType="stereo">
														<masterclipid>masterclip-186</masterclipid>
														<name>(all_that_glitters_asmr)_B1ebLFPhpz2 - 2_IG.mp4</name>
														<enabled>TRUE</enabled>
														<duration>1594</duration>
														<rate>
															<timebase>30</timebase>
															<ntsc>TRUE</ntsc>
														</rate>
														<start>1160</start>
														<end>-1</end>
														<in>5</in>
														<out>1303</out>
														<pproTicksIn>42378336000</pproTicksIn>
														<pproTicksOut>11043794361600</pproTicksOut>
														<file id="file-180"/>
														<sourcetrack>
															<mediatype>audio</mediatype>
															<trackindex>2</trackindex>
														</sourcetrack>
														<link>
															<linkclipref>clipitem-709</linkclipref>
															<mediatype>video</mediatype>
															<trackindex>2</trackindex>
															<clipindex>2</clipindex>
														</link>
														<link>
															<linkclipref>clipitem-716</linkclipref>
															<mediatype>audio</mediatype>
															<trackindex>1</trackindex>
															<clipindex>6</clipindex>
															<groupindex>1</groupindex>
														</link>
														<link>
															<linkclipref>clipitem-719</linkclipref>
															<mediatype>audio</mediatype>
															<trackindex>2</trackindex>
															<clipindex>6</clipindex>
															<groupindex>1</groupindex>
														</link>
														<logginginfo>
															<description></description>
															<scene></scene>
															<shottake></shottake>
															<lognote></lognote>
															<good></good>
															<originalvideofilename></originalvideofilename>
															<originalaudiofilename></originalaudiofilename>
														</logginginfo>
														<colorinfo>
															<lut></lut>
															<lut1></lut1>
															<asc_sop></asc_sop>
															<asc_sat></asc_sat>
															<lut2></lut2>
														</colorinfo>
														<labels>
															<label2>Iris</label2>
														</labels>
													</clipitem>
													<transitionitem>
														<start>2428</start>
														<end>2458</end>
														<pproTicksIn>20578919961600</pproTicksIn>
														<pproTicksOut>20833189977600</pproTicksOut>
														<alignment>end-black</alignment>
														<cutPointTicks>254270016000</cutPointTicks>
														<rate>
															<timebase>30</timebase>
															<ntsc>TRUE</ntsc>
														</rate>
														<effect>
															<name>Cross Fade (+3dB)</name>
															<effectid>KGAudioTransCrossFade3dB</effectid>
															<effecttype>transition</effecttype>
															<mediatype>audio</mediatype>
															<wipecode>0</wipecode>
															<wipeaccuracy>100</wipeaccuracy>
															<startratio>0</startratio>
															<endratio>1</endratio>
															<reverse>FALSE</reverse>
														</effect>
													</transitionitem>
													<enabled>TRUE</enabled>
													<locked>FALSE</locked>
													<filter>
														<effect>
															<name>Audio Levels</name>
															<effectid>audiolevels</effectid>
															<effectcategory>audiolevels</effectcategory>
															<effecttype>audiolevels</effecttype>
															<mediatype>audio</mediatype>
															<parameter authoringApp="PremierePro">
																<parameterid>level</parameterid>
																<name>Level</name>
																<valuemin>0</valuemin>
																<valuemax>3.98109</valuemax>
																<value>11.1937</value>
															</parameter>
														</effect>
													</filter>
													<outputchannelindex>2</outputchannelindex>
												</track>
												<track TL.SQTrackAudioKeyframeStyle="0" TL.SQTrackShy="0" TL.SQTrackExpandedHeight="25" TL.SQTrackExpanded="0" MZ.TrackTargeted="0" PannerCurrentValue="0.5" PannerIsInverted="true" PannerStartKeyframe="-91445760000000000,0.5,0,0,0,0,0,0" PannerName="Balance" currentExplodedTrackIndex="0" totalExplodedTrackCount="2" premiereTrackType="Stereo">
													<transitionitem>
														<start>0</start>
														<end>30</end>
														<pproTicksIn>0</pproTicksIn>
														<pproTicksOut>254270016000</pproTicksOut>
														<alignment>start-black</alignment>
														<cutPointTicks>0</cutPointTicks>
														<rate>
															<timebase>30</timebase>
															<ntsc>TRUE</ntsc>
														</rate>
														<effect>
															<name>Cross Fade (+3dB)</name>
															<effectid>KGAudioTransCrossFade3dB</effectid>
															<effecttype>transition</effecttype>
															<mediatype>audio</mediatype>
															<wipecode>0</wipecode>
															<wipeaccuracy>100</wipeaccuracy>
															<startratio>0</startratio>
															<endratio>1</endratio>
															<reverse>FALSE</reverse>
														</effect>
													</transitionitem>
													<clipitem id="clipitem-720" premiereChannelType="stereo">
														<masterclipid>masterclip-28</masterclipid>
														<name>ES_With Tim - Guustavv.mp3</name>
														<enabled>TRUE</enabled>
														<duration>4510</duration>
														<rate>
															<timebase>30</timebase>
															<ntsc>TRUE</ntsc>
														</rate>
														<start>-1</start>
														<end>-1</end>
														<in>0</in>
														<out>2458</out>
														<pproTicksIn>0</pproTicksIn>
														<pproTicksOut>20833189977600</pproTicksOut>
														<file id="file-28"/>
														<sourcetrack>
															<mediatype>audio</mediatype>
															<trackindex>1</trackindex>
														</sourcetrack>
														<link>
															<linkclipref>clipitem-720</linkclipref>
															<mediatype>audio</mediatype>
															<trackindex>3</trackindex>
															<clipindex>2</clipindex>
															<groupindex>1</groupindex>
														</link>
														<link>
															<linkclipref>clipitem-721</linkclipref>
															<mediatype>audio</mediatype>
															<trackindex>4</trackindex>
															<clipindex>2</clipindex>
															<groupindex>1</groupindex>
														</link>
														<logginginfo>
															<description></description>
															<scene></scene>
															<shottake></shottake>
															<lognote></lognote>
															<good></good>
															<originalvideofilename></originalvideofilename>
															<originalaudiofilename></originalaudiofilename>
														</logginginfo>
														<colorinfo>
															<lut></lut>
															<lut1></lut1>
															<asc_sop></asc_sop>
															<asc_sat></asc_sat>
															<lut2></lut2>
														</colorinfo>
														<labels>
															<label2>Caribbean</label2>
														</labels>
													</clipitem>
													<transitionitem>
														<start>2369</start>
														<end>2458</end>
														<pproTicksIn>20070380160000</pproTicksIn>
														<pproTicksOut>20833189977600</pproTicksOut>
														<alignment>end-black</alignment>
														<cutPointTicks>762809817600</cutPointTicks>
														<rate>
															<timebase>30</timebase>
															<ntsc>TRUE</ntsc>
														</rate>
														<effect>
															<name>Cross Fade (+3dB)</name>
															<effectid>KGAudioTransCrossFade3dB</effectid>
															<effecttype>transition</effecttype>
															<mediatype>audio</mediatype>
															<wipecode>0</wipecode>
															<wipeaccuracy>100</wipeaccuracy>
															<startratio>0</startratio>
															<endratio>1</endratio>
															<reverse>FALSE</reverse>
														</effect>
													</transitionitem>
													<enabled>TRUE</enabled>
													<locked>FALSE</locked>
													<filter>
														<effect>
															<name>Audio Levels</name>
															<effectid>audiolevels</effectid>
															<effectcategory>audiolevels</effectcategory>
															<effecttype>audiolevels</effecttype>
															<mediatype>audio</mediatype>
															<parameter authoringApp="PremierePro">
																<parameterid>level</parameterid>
																<name>Level</name>
																<valuemin>0</valuemin>
																<valuemax>3.98109</valuemax>
																<value>0.706272</value>
															</parameter>
														</effect>
													</filter>
													<outputchannelindex>1</outputchannelindex>
												</track>
												<track TL.SQTrackAudioKeyframeStyle="0" TL.SQTrackShy="0" TL.SQTrackExpandedHeight="25" TL.SQTrackExpanded="0" MZ.TrackTargeted="0" PannerCurrentValue="0.5" PannerIsInverted="true" PannerStartKeyframe="-91445760000000000,0.5,0,0,0,0,0,0" PannerName="Balance" currentExplodedTrackIndex="1" totalExplodedTrackCount="2" premiereTrackType="Stereo">
													<transitionitem>
														<start>0</start>
														<end>30</end>
														<pproTicksIn>0</pproTicksIn>
														<pproTicksOut>254270016000</pproTicksOut>
														<alignment>start-black</alignment>
														<cutPointTicks>0</cutPointTicks>
														<rate>
															<timebase>30</timebase>
															<ntsc>TRUE</ntsc>
														</rate>
														<effect>
															<name>Cross Fade (+3dB)</name>
															<effectid>KGAudioTransCrossFade3dB</effectid>
															<effecttype>transition</effecttype>
															<mediatype>audio</mediatype>
															<wipecode>0</wipecode>
															<wipeaccuracy>100</wipeaccuracy>
															<startratio>0</startratio>
															<endratio>1</endratio>
															<reverse>FALSE</reverse>
														</effect>
													</transitionitem>
													<clipitem id="clipitem-721" premiereChannelType="stereo">
														<masterclipid>masterclip-28</masterclipid>
														<name>ES_With Tim - Guustavv.mp3</name>
														<enabled>TRUE</enabled>
														<duration>4510</duration>
														<rate>
															<timebase>30</timebase>
															<ntsc>TRUE</ntsc>
														</rate>
														<start>-1</start>
														<end>-1</end>
														<in>0</in>
														<out>2458</out>
														<pproTicksIn>0</pproTicksIn>
														<pproTicksOut>20833189977600</pproTicksOut>
														<file id="file-28"/>
														<sourcetrack>
															<mediatype>audio</mediatype>
															<trackindex>2</trackindex>
														</sourcetrack>
														<link>
															<linkclipref>clipitem-720</linkclipref>
															<mediatype>audio</mediatype>
															<trackindex>3</trackindex>
															<clipindex>2</clipindex>
															<groupindex>1</groupindex>
														</link>
														<link>
															<linkclipref>clipitem-721</linkclipref>
															<mediatype>audio</mediatype>
															<trackindex>4</trackindex>
															<clipindex>2</clipindex>
															<groupindex>1</groupindex>
														</link>
														<logginginfo>
															<description></description>
															<scene></scene>
															<shottake></shottake>
															<lognote></lognote>
															<good></good>
															<originalvideofilename></originalvideofilename>
															<originalaudiofilename></originalaudiofilename>
														</logginginfo>
														<colorinfo>
															<lut></lut>
															<lut1></lut1>
															<asc_sop></asc_sop>
															<asc_sat></asc_sat>
															<lut2></lut2>
														</colorinfo>
														<labels>
															<label2>Caribbean</label2>
														</labels>
													</clipitem>
													<transitionitem>
														<start>2369</start>
														<end>2458</end>
														<pproTicksIn>20070380160000</pproTicksIn>
														<pproTicksOut>20833189977600</pproTicksOut>
														<alignment>end-black</alignment>
														<cutPointTicks>762809817600</cutPointTicks>
														<rate>
															<timebase>30</timebase>
															<ntsc>TRUE</ntsc>
														</rate>
														<effect>
															<name>Cross Fade (+3dB)</name>
															<effectid>KGAudioTransCrossFade3dB</effectid>
															<effecttype>transition</effecttype>
															<mediatype>audio</mediatype>
															<wipecode>0</wipecode>
															<wipeaccuracy>100</wipeaccuracy>
															<startratio>0</startratio>
															<endratio>1</endratio>
															<reverse>FALSE</reverse>
														</effect>
													</transitionitem>
													<enabled>TRUE</enabled>
													<locked>FALSE</locked>
													<filter>
														<effect>
															<name>Audio Levels</name>
															<effectid>audiolevels</effectid>
															<effectcategory>audiolevels</effectcategory>
															<effecttype>audiolevels</effecttype>
															<mediatype>audio</mediatype>
															<parameter authoringApp="PremierePro">
																<parameterid>level</parameterid>
																<name>Level</name>
																<valuemin>0</valuemin>
																<valuemax>3.98109</valuemax>
																<value>0.706272</value>
															</parameter>
														</effect>
													</filter>
													<outputchannelindex>2</outputchannelindex>
												</track>
											</audio>
										</media>
										<timecode>
											<rate>
												<timebase>30</timebase>
												<ntsc>TRUE</ntsc>
											</rate>
											<string>00:00:00:00</string>
											<frame>0</frame>
											<displayformat>NDF</displayformat>
										</timecode>
										<labels>
											<label2>Forest</label2>
										</labels>
										<logginginfo>
											<description></description>
											<scene></scene>
											<shottake></shottake>
											<lognote></lognote>
											<good></good>
											<originalvideofilename></originalvideofilename>
											<originalaudiofilename></originalaudiofilename>
										</logginginfo>
									</sequence>
								</children>
							</bin>
						</children>
					</bin>
				</children>
			</bin>
			<bin>
				<name>01_Footage</name>
				<labels>
					<label2>Brown</label2>
				</labels>
				<children>
					<bin>
						<name>01 This week's date</name>
						<children>
							<bin>
								<name>Used</name>
								<children>
									<bin>
										<name>04-17</name>
										<children>
											<clip id="masterclip-102" explodedTracks="true">
												<uuid>ab76281d-7fe0-4be9-bae1-aade49d281e1</uuid>
												<masterclipid>masterclip-102</masterclipid>
												<ismasterclip>TRUE</ismasterclip>
												<duration>3157</duration>
												<rate>
													<timebase>30</timebase>
													<ntsc>TRUE</ntsc>
												</rate>
												<name>1273 - ART_@_artisticlifestyle6_1m50s.mp4</name>
												<media>
													<video>
														<track>
															<clipitem id="clipitem-722">
																<masterclipid>masterclip-102</masterclipid>
																<name>1273 - ART_@_artisticlifestyle6_1m50s.mp4</name>
																<rate>
																	<timebase>30</timebase>
																	<ntsc>TRUE</ntsc>
																</rate>
																<alphatype>none</alphatype>
																<file id="file-102"/>
																<link>
																	<linkclipref>clipitem-722</linkclipref>
																	<mediatype>video</mediatype>
																	<trackindex>1</trackindex>
																	<clipindex>1</clipindex>
																</link>
																<link>
																	<linkclipref>clipitem-723</linkclipref>
																	<mediatype>audio</mediatype>
																	<trackindex>1</trackindex>
																	<clipindex>1</clipindex>
																	<groupindex>1</groupindex>
																</link>
																<link>
																	<linkclipref>clipitem-724</linkclipref>
																	<mediatype>audio</mediatype>
																	<trackindex>2</trackindex>
																	<clipindex>1</clipindex>
																	<groupindex>1</groupindex>
																</link>
															</clipitem>
														</track>
													</video>
													<audio>
														<track>
															<clipitem id="clipitem-723">
																<masterclipid>masterclip-102</masterclipid>
																<name>1273 - ART_@_artisticlifestyle6_1m50s.mp4</name>
																<rate>
																	<timebase>30</timebase>
																	<ntsc>TRUE</ntsc>
																</rate>
																<file id="file-102"/>
																<sourcetrack>
																	<mediatype>audio</mediatype>
																	<trackindex>1</trackindex>
																</sourcetrack>
																<link>
																	<linkclipref>clipitem-722</linkclipref>
																	<mediatype>video</mediatype>
																	<trackindex>1</trackindex>
																	<clipindex>1</clipindex>
																</link>
																<link>
																	<linkclipref>clipitem-723</linkclipref>
																	<mediatype>audio</mediatype>
																	<trackindex>1</trackindex>
																	<clipindex>1</clipindex>
																	<groupindex>1</groupindex>
																</link>
																<link>
																	<linkclipref>clipitem-724</linkclipref>
																	<mediatype>audio</mediatype>
																	<trackindex>2</trackindex>
																	<clipindex>1</clipindex>
																	<groupindex>1</groupindex>
																</link>
															</clipitem>
														</track>
														<track>
															<clipitem id="clipitem-724">
																<masterclipid>masterclip-102</masterclipid>
																<name>1273 - ART_@_artisticlifestyle6_1m50s.mp4</name>
																<rate>
																	<timebase>30</timebase>
																	<ntsc>TRUE</ntsc>
																</rate>
																<file id="file-102"/>
																<sourcetrack>
																	<mediatype>audio</mediatype>
																	<trackindex>2</trackindex>
																</sourcetrack>
																<link>
																	<linkclipref>clipitem-722</linkclipref>
																	<mediatype>video</mediatype>
																	<trackindex>1</trackindex>
																	<clipindex>1</clipindex>
																</link>
																<link>
																	<linkclipref>clipitem-723</linkclipref>
																	<mediatype>audio</mediatype>
																	<trackindex>1</trackindex>
																	<clipindex>1</clipindex>
																	<groupindex>1</groupindex>
																</link>
																<link>
																	<linkclipref>clipitem-724</linkclipref>
																	<mediatype>audio</mediatype>
																	<trackindex>2</trackindex>
																	<clipindex>1</clipindex>
																	<groupindex>1</groupindex>
																</link>
															</clipitem>
														</track>
													</audio>
												</media>
												<logginginfo>
													<description></description>
													<scene></scene>
													<shottake></shottake>
													<lognote></lognote>
													<good></good>
													<originalvideofilename></originalvideofilename>
													<originalaudiofilename></originalaudiofilename>
												</logginginfo>
												<colorinfo>
													<lut></lut>
													<lut1></lut1>
													<asc_sop></asc_sop>
													<asc_sat></asc_sat>
													<lut2></lut2>
												</colorinfo>
												<labels>
													<label2>Iris</label2>
												</labels>
											</clip>
											<clip id="masterclip-103" explodedTracks="true">
												<uuid>4ebc77ec-b145-4475-b56d-712ce5ace954</uuid>
												<masterclipid>masterclip-103</masterclipid>
												<ismasterclip>TRUE</ismasterclip>
												<duration>2201</duration>
												<rate>
													<timebase>30</timebase>
													<ntsc>TRUE</ntsc>
												</rate>
												<name>1273 - SAT_illuminatedbymia_1m15s.mp4</name>
												<media>
													<video>
														<track>
															<clipitem id="clipitem-725">
																<masterclipid>masterclip-103</masterclipid>
																<name>1273 - SAT_illuminatedbymia_1m15s.mp4</name>
																<rate>
																	<timebase>30</timebase>
																	<ntsc>TRUE</ntsc>
																</rate>
																<alphatype>none</alphatype>
																<file id="file-103"/>
																<link>
																	<linkclipref>clipitem-725</linkclipref>
																	<mediatype>video</mediatype>
																	<trackindex>1</trackindex>
																	<clipindex>1</clipindex>
																</link>
																<link>
																	<linkclipref>clipitem-726</linkclipref>
																	<mediatype>audio</mediatype>
																	<trackindex>1</trackindex>
																	<clipindex>1</clipindex>
																	<groupindex>1</groupindex>
																</link>
																<link>
																	<linkclipref>clipitem-727</linkclipref>
																	<mediatype>audio</mediatype>
																	<trackindex>2</trackindex>
																	<clipindex>1</clipindex>
																	<groupindex>1</groupindex>
																</link>
															</clipitem>
														</track>
													</video>
													<audio>
														<track>
															<clipitem id="clipitem-726">
																<masterclipid>masterclip-103</masterclipid>
																<name>1273 - SAT_illuminatedbymia_1m15s.mp4</name>
																<rate>
																	<timebase>30</timebase>
																	<ntsc>TRUE</ntsc>
																</rate>
																<file id="file-103"/>
																<sourcetrack>
																	<mediatype>audio</mediatype>
																	<trackindex>1</trackindex>
																</sourcetrack>
																<link>
																	<linkclipref>clipitem-725</linkclipref>
																	<mediatype>video</mediatype>
																	<trackindex>1</trackindex>
																	<clipindex>1</clipindex>
																</link>
																<link>
																	<linkclipref>clipitem-726</linkclipref>
																	<mediatype>audio</mediatype>
																	<trackindex>1</trackindex>
																	<clipindex>1</clipindex>
																	<groupindex>1</groupindex>
																</link>
																<link>
																	<linkclipref>clipitem-727</linkclipref>
																	<mediatype>audio</mediatype>
																	<trackindex>2</trackindex>
																	<clipindex>1</clipindex>
																	<groupindex>1</groupindex>
																</link>
															</clipitem>
														</track>
														<track>
															<clipitem id="clipitem-727">
																<masterclipid>masterclip-103</masterclipid>
																<name>1273 - SAT_illuminatedbymia_1m15s.mp4</name>
																<rate>
																	<timebase>30</timebase>
																	<ntsc>TRUE</ntsc>
																</rate>
																<file id="file-103"/>
																<sourcetrack>
																	<mediatype>audio</mediatype>
																	<trackindex>2</trackindex>
																</sourcetrack>
																<link>
																	<linkclipref>clipitem-725</linkclipref>
																	<mediatype>video</mediatype>
																	<trackindex>1</trackindex>
																	<clipindex>1</clipindex>
																</link>
																<link>
																	<linkclipref>clipitem-726</linkclipref>
																	<mediatype>audio</mediatype>
																	<trackindex>1</trackindex>
																	<clipindex>1</clipindex>
																	<groupindex>1</groupindex>
																</link>
																<link>
																	<linkclipref>clipitem-727</linkclipref>
																	<mediatype>audio</mediatype>
																	<trackindex>2</trackindex>
																	<clipindex>1</clipindex>
																	<groupindex>1</groupindex>
																</link>
															</clipitem>
														</track>
													</audio>
												</media>
												<logginginfo>
													<description></description>
													<scene></scene>
													<shottake></shottake>
													<lognote></lognote>
													<good></good>
													<originalvideofilename></originalvideofilename>
													<originalaudiofilename></originalaudiofilename>
												</logginginfo>
												<colorinfo>
													<lut></lut>
													<lut1></lut1>
													<asc_sop></asc_sop>
													<asc_sat></asc_sat>
													<lut2></lut2>
												</colorinfo>
												<labels>
													<label2>Iris</label2>
												</labels>
											</clip>
											<clip id="masterclip-133" explodedTracks="true">
												<uuid>4c6363db-24da-4528-96f9-a8ee350e9299</uuid>
												<masterclipid>masterclip-133</masterclipid>
												<ismasterclip>TRUE</ismasterclip>
												<duration>2242</duration>
												<rate>
													<timebase>30</timebase>
													<ntsc>TRUE</ntsc>
												</rate>
												<name>1274 - SAT_crazy russian experiements_1m35s.mp4</name>
												<media>
													<video>
														<track>
															<clipitem id="clipitem-728">
																<masterclipid>masterclip-133</masterclipid>
																<name>1274 - SAT_crazy russian experiements_1m35s.mp4</name>
																<rate>
																	<timebase>30</timebase>
																	<ntsc>TRUE</ntsc>
																</rate>
																<alphatype>none</alphatype>
																<file id="file-130"/>
																<link>
																	<linkclipref>clipitem-728</linkclipref>
																	<mediatype>video</mediatype>
																	<trackindex>1</trackindex>
																	<clipindex>1</clipindex>
																</link>
																<link>
																	<linkclipref>clipitem-729</linkclipref>
																	<mediatype>audio</mediatype>
																	<trackindex>1</trackindex>
																	<clipindex>1</clipindex>
																	<groupindex>1</groupindex>
																</link>
																<link>
																	<linkclipref>clipitem-730</linkclipref>
																	<mediatype>audio</mediatype>
																	<trackindex>2</trackindex>
																	<clipindex>1</clipindex>
																	<groupindex>1</groupindex>
																</link>
															</clipitem>
														</track>
													</video>
													<audio>
														<track>
															<clipitem id="clipitem-729">
																<masterclipid>masterclip-133</masterclipid>
																<name>1274 - SAT_crazy russian experiements_1m35s.mp4</name>
																<rate>
																	<timebase>30</timebase>
																	<ntsc>TRUE</ntsc>
																</rate>
																<file id="file-130"/>
																<sourcetrack>
																	<mediatype>audio</mediatype>
																	<trackindex>1</trackindex>
																</sourcetrack>
																<link>
																	<linkclipref>clipitem-728</linkclipref>
																	<mediatype>video</mediatype>
																	<trackindex>1</trackindex>
																	<clipindex>1</clipindex>
																</link>
																<link>
																	<linkclipref>clipitem-729</linkclipref>
																	<mediatype>audio</mediatype>
																	<trackindex>1</trackindex>
																	<clipindex>1</clipindex>
																	<groupindex>1</groupindex>
																</link>
																<link>
																	<linkclipref>clipitem-730</linkclipref>
																	<mediatype>audio</mediatype>
																	<trackindex>2</trackindex>
																	<clipindex>1</clipindex>
																	<groupindex>1</groupindex>
																</link>
															</clipitem>
														</track>
														<track>
															<clipitem id="clipitem-730">
																<masterclipid>masterclip-133</masterclipid>
																<name>1274 - SAT_crazy russian experiements_1m35s.mp4</name>
																<rate>
																	<timebase>30</timebase>
																	<ntsc>TRUE</ntsc>
																</rate>
																<file id="file-130"/>
																<sourcetrack>
																	<mediatype>audio</mediatype>
																	<trackindex>2</trackindex>
																</sourcetrack>
																<link>
																	<linkclipref>clipitem-728</linkclipref>
																	<mediatype>video</mediatype>
																	<trackindex>1</trackindex>
																	<clipindex>1</clipindex>
																</link>
																<link>
																	<linkclipref>clipitem-729</linkclipref>
																	<mediatype>audio</mediatype>
																	<trackindex>1</trackindex>
																	<clipindex>1</clipindex>
																	<groupindex>1</groupindex>
																</link>
																<link>
																	<linkclipref>clipitem-730</linkclipref>
																	<mediatype>audio</mediatype>
																	<trackindex>2</trackindex>
																	<clipindex>1</clipindex>
																	<groupindex>1</groupindex>
																</link>
															</clipitem>
														</track>
													</audio>
												</media>
												<logginginfo>
													<description></description>
													<scene></scene>
													<shottake></shottake>
													<lognote></lognote>
													<good></good>
													<originalvideofilename></originalvideofilename>
													<originalaudiofilename></originalaudiofilename>
												</logginginfo>
												<colorinfo>
													<lut></lut>
													<lut1></lut1>
													<asc_sop></asc_sop>
													<asc_sat></asc_sat>
													<lut2></lut2>
												</colorinfo>
												<labels>
													<label2>Iris</label2>
												</labels>
											</clip>
											<clip id="masterclip-134" explodedTracks="true">
												<uuid>1ced251a-c73f-4543-9687-03f1647f9864</uuid>
												<masterclipid>masterclip-134</masterclipid>
												<ismasterclip>TRUE</ismasterclip>
												<duration>2979</duration>
												<rate>
													<timebase>30</timebase>
													<ntsc>TRUE</ntsc>
												</rate>
												<name>1274 - DIY_Hanabira_1m40s.mp4</name>
												<media>
													<video>
														<track>
															<clipitem id="clipitem-731">
																<masterclipid>masterclip-134</masterclipid>
																<name>1274 - DIY_Hanabira_1m40s.mp4</name>
																<rate>
																	<timebase>30</timebase>
																	<ntsc>TRUE</ntsc>
																</rate>
																<alphatype>none</alphatype>
																<file id="file-131"/>
																<link>
																	<linkclipref>clipitem-731</linkclipref>
																	<mediatype>video</mediatype>
																	<trackindex>1</trackindex>
																	<clipindex>1</clipindex>
																</link>
																<link>
																	<linkclipref>clipitem-732</linkclipref>
																	<mediatype>audio</mediatype>
																	<trackindex>1</trackindex>
																	<clipindex>1</clipindex>
																	<groupindex>1</groupindex>
																</link>
																<link>
																	<linkclipref>clipitem-733</linkclipref>
																	<mediatype>audio</mediatype>
																	<trackindex>2</trackindex>
																	<clipindex>1</clipindex>
																	<groupindex>1</groupindex>
																</link>
															</clipitem>
														</track>
													</video>
													<audio>
														<track>
															<clipitem id="clipitem-732">
																<masterclipid>masterclip-134</masterclipid>
																<name>1274 - DIY_Hanabira_1m40s.mp4</name>
																<rate>
																	<timebase>30</timebase>
																	<ntsc>TRUE</ntsc>
																</rate>
																<file id="file-131"/>
																<sourcetrack>
																	<mediatype>audio</mediatype>
																	<trackindex>1</trackindex>
																</sourcetrack>
																<link>
																	<linkclipref>clipitem-731</linkclipref>
																	<mediatype>video</mediatype>
																	<trackindex>1</trackindex>
																	<clipindex>1</clipindex>
																</link>
																<link>
																	<linkclipref>clipitem-732</linkclipref>
																	<mediatype>audio</mediatype>
																	<trackindex>1</trackindex>
																	<clipindex>1</clipindex>
																	<groupindex>1</groupindex>
																</link>
																<link>
																	<linkclipref>clipitem-733</linkclipref>
																	<mediatype>audio</mediatype>
																	<trackindex>2</trackindex>
																	<clipindex>1</clipindex>
																	<groupindex>1</groupindex>
																</link>
															</clipitem>
														</track>
														<track>
															<clipitem id="clipitem-733">
																<masterclipid>masterclip-134</masterclipid>
																<name>1274 - DIY_Hanabira_1m40s.mp4</name>
																<rate>
																	<timebase>30</timebase>
																	<ntsc>TRUE</ntsc>
																</rate>
																<file id="file-131"/>
																<sourcetrack>
																	<mediatype>audio</mediatype>
																	<trackindex>2</trackindex>
																</sourcetrack>
																<link>
																	<linkclipref>clipitem-731</linkclipref>
																	<mediatype>video</mediatype>
																	<trackindex>1</trackindex>
																	<clipindex>1</clipindex>
																</link>
																<link>
																	<linkclipref>clipitem-732</linkclipref>
																	<mediatype>audio</mediatype>
																	<trackindex>1</trackindex>
																	<clipindex>1</clipindex>
																	<groupindex>1</groupindex>
																</link>
																<link>
																	<linkclipref>clipitem-733</linkclipref>
																	<mediatype>audio</mediatype>
																	<trackindex>2</trackindex>
																	<clipindex>1</clipindex>
																	<groupindex>1</groupindex>
																</link>
															</clipitem>
														</track>
													</audio>
												</media>
												<logginginfo>
													<description></description>
													<scene></scene>
													<shottake></shottake>
													<lognote></lognote>
													<good></good>
													<originalvideofilename></originalvideofilename>
													<originalaudiofilename></originalaudiofilename>
												</logginginfo>
												<colorinfo>
													<lut></lut>
													<lut1></lut1>
													<asc_sop></asc_sop>
													<asc_sat></asc_sat>
													<lut2></lut2>
												</colorinfo>
												<labels>
													<label2>Iris</label2>
												</labels>
											</clip>
										</children>
									</bin>
									<clip id="masterclip-104" explodedTracks="true">
										<uuid>578afd5b-6540-4ed0-b103-d265fdda276c</uuid>
										<masterclipid>masterclip-104</masterclipid>
										<ismasterclip>TRUE</ismasterclip>
										<duration>2650</duration>
										<rate>
											<timebase>30</timebase>
											<ntsc>TRUE</ntsc>
										</rate>
										<name>1237 - SAT_Squishybunnii_1m30s.mp4</name>
										<media>
											<video>
												<track>
													<clipitem id="clipitem-734">
														<masterclipid>masterclip-104</masterclipid>
														<name>1237 - SAT_Squishybunnii_1m30s.mp4</name>
														<rate>
															<timebase>30</timebase>
															<ntsc>TRUE</ntsc>
														</rate>
														<alphatype>none</alphatype>
														<file id="file-104"/>
														<link>
															<linkclipref>clipitem-734</linkclipref>
															<mediatype>video</mediatype>
															<trackindex>1</trackindex>
															<clipindex>1</clipindex>
														</link>
														<link>
															<linkclipref>clipitem-735</linkclipref>
															<mediatype>audio</mediatype>
															<trackindex>1</trackindex>
															<clipindex>1</clipindex>
															<groupindex>1</groupindex>
														</link>
														<link>
															<linkclipref>clipitem-736</linkclipref>
															<mediatype>audio</mediatype>
															<trackindex>2</trackindex>
															<clipindex>1</clipindex>
															<groupindex>1</groupindex>
														</link>
													</clipitem>
												</track>
											</video>
											<audio>
												<track>
													<clipitem id="clipitem-735">
														<masterclipid>masterclip-104</masterclipid>
														<name>1237 - SAT_Squishybunnii_1m30s.mp4</name>
														<rate>
															<timebase>30</timebase>
															<ntsc>TRUE</ntsc>
														</rate>
														<file id="file-104"/>
														<sourcetrack>
															<mediatype>audio</mediatype>
															<trackindex>1</trackindex>
														</sourcetrack>
														<link>
															<linkclipref>clipitem-734</linkclipref>
															<mediatype>video</mediatype>
															<trackindex>1</trackindex>
															<clipindex>1</clipindex>
														</link>
														<link>
															<linkclipref>clipitem-735</linkclipref>
															<mediatype>audio</mediatype>
															<trackindex>1</trackindex>
															<clipindex>1</clipindex>
															<groupindex>1</groupindex>
														</link>
														<link>
															<linkclipref>clipitem-736</linkclipref>
															<mediatype>audio</mediatype>
															<trackindex>2</trackindex>
															<clipindex>1</clipindex>
															<groupindex>1</groupindex>
														</link>
													</clipitem>
												</track>
												<track>
													<clipitem id="clipitem-736">
														<masterclipid>masterclip-104</masterclipid>
														<name>1237 - SAT_Squishybunnii_1m30s.mp4</name>
														<rate>
															<timebase>30</timebase>
															<ntsc>TRUE</ntsc>
														</rate>
														<file id="file-104"/>
														<sourcetrack>
															<mediatype>audio</mediatype>
															<trackindex>2</trackindex>
														</sourcetrack>
														<link>
															<linkclipref>clipitem-734</linkclipref>
															<mediatype>video</mediatype>
															<trackindex>1</trackindex>
															<clipindex>1</clipindex>
														</link>
														<link>
															<linkclipref>clipitem-735</linkclipref>
															<mediatype>audio</mediatype>
															<trackindex>1</trackindex>
															<clipindex>1</clipindex>
															<groupindex>1</groupindex>
														</link>
														<link>
															<linkclipref>clipitem-736</linkclipref>
															<mediatype>audio</mediatype>
															<trackindex>2</trackindex>
															<clipindex>1</clipindex>
															<groupindex>1</groupindex>
														</link>
													</clipitem>
												</track>
											</audio>
										</media>
										<logginginfo>
											<description></description>
											<scene></scene>
											<shottake></shottake>
											<lognote></lognote>
											<good></good>
											<originalvideofilename></originalvideofilename>
											<originalaudiofilename></originalaudiofilename>
										</logginginfo>
										<colorinfo>
											<lut></lut>
											<lut1></lut1>
											<asc_sop></asc_sop>
											<asc_sat></asc_sat>
											<lut2></lut2>
										</colorinfo>
										<labels>
											<label2>Iris</label2>
										</labels>
									</clip>
									<clip id="masterclip-105" explodedTracks="true">
										<uuid>262f6c64-90a2-4c30-a363-53253711fce4</uuid>
										<masterclipid>masterclip-105</masterclipid>
										<ismasterclip>TRUE</ismasterclip>
										<duration>2707</duration>
										<rate>
											<timebase>30</timebase>
											<ntsc>TRUE</ntsc>
										</rate>
										<name>1237 - SAT_clean ceramic coating Throttle unbranded_1m30s.mp4</name>
										<media>
											<video>
												<track>
													<clipitem id="clipitem-737">
														<masterclipid>masterclip-105</masterclipid>
														<name>1237 - SAT_clean ceramic coating Throttle unbranded_1m30s.mp4</name>
														<rate>
															<timebase>30</timebase>
															<ntsc>TRUE</ntsc>
														</rate>
														<alphatype>none</alphatype>
														<file id="file-105"/>
														<link>
															<linkclipref>clipitem-737</linkclipref>
															<mediatype>video</mediatype>
															<trackindex>1</trackindex>
															<clipindex>1</clipindex>
														</link>
														<link>
															<linkclipref>clipitem-738</linkclipref>
															<mediatype>audio</mediatype>
															<trackindex>1</trackindex>
															<clipindex>1</clipindex>
															<groupindex>1</groupindex>
														</link>
														<link>
															<linkclipref>clipitem-739</linkclipref>
															<mediatype>audio</mediatype>
															<trackindex>2</trackindex>
															<clipindex>1</clipindex>
															<groupindex>1</groupindex>
														</link>
													</clipitem>
												</track>
											</video>
											<audio>
												<track>
													<clipitem id="clipitem-738">
														<masterclipid>masterclip-105</masterclipid>
														<name>1237 - SAT_clean ceramic coating Throttle unbranded_1m30s.mp4</name>
														<rate>
															<timebase>30</timebase>
															<ntsc>TRUE</ntsc>
														</rate>
														<file id="file-105"/>
														<sourcetrack>
															<mediatype>audio</mediatype>
															<trackindex>1</trackindex>
														</sourcetrack>
														<link>
															<linkclipref>clipitem-737</linkclipref>
															<mediatype>video</mediatype>
															<trackindex>1</trackindex>
															<clipindex>1</clipindex>
														</link>
														<link>
															<linkclipref>clipitem-738</linkclipref>
															<mediatype>audio</mediatype>
															<trackindex>1</trackindex>
															<clipindex>1</clipindex>
															<groupindex>1</groupindex>
														</link>
														<link>
															<linkclipref>clipitem-739</linkclipref>
															<mediatype>audio</mediatype>
															<trackindex>2</trackindex>
															<clipindex>1</clipindex>
															<groupindex>1</groupindex>
														</link>
													</clipitem>
												</track>
												<track>
													<clipitem id="clipitem-739">
														<masterclipid>masterclip-105</masterclipid>
														<name>1237 - SAT_clean ceramic coating Throttle unbranded_1m30s.mp4</name>
														<rate>
															<timebase>30</timebase>
															<ntsc>TRUE</ntsc>
														</rate>
														<file id="file-105"/>
														<sourcetrack>
															<mediatype>audio</mediatype>
															<trackindex>2</trackindex>
														</sourcetrack>
														<link>
															<linkclipref>clipitem-737</linkclipref>
															<mediatype>video</mediatype>
															<trackindex>1</trackindex>
															<clipindex>1</clipindex>
														</link>
														<link>
															<linkclipref>clipitem-738</linkclipref>
															<mediatype>audio</mediatype>
															<trackindex>1</trackindex>
															<clipindex>1</clipindex>
															<groupindex>1</groupindex>
														</link>
														<link>
															<linkclipref>clipitem-739</linkclipref>
															<mediatype>audio</mediatype>
															<trackindex>2</trackindex>
															<clipindex>1</clipindex>
															<groupindex>1</groupindex>
														</link>
													</clipitem>
												</track>
											</audio>
										</media>
										<logginginfo>
											<description></description>
											<scene></scene>
											<shottake></shottake>
											<lognote></lognote>
											<good></good>
											<originalvideofilename></originalvideofilename>
											<originalaudiofilename></originalaudiofilename>
										</logginginfo>
										<colorinfo>
											<lut></lut>
											<lut1></lut1>
											<asc_sop></asc_sop>
											<asc_sat></asc_sat>
											<lut2></lut2>
										</colorinfo>
										<labels>
											<label2>Iris</label2>
										</labels>
									</clip>
									<clip id="masterclip-107" explodedTracks="true">
										<uuid>c98fd94e-3645-4159-afd5-a59853106698</uuid>
										<masterclipid>masterclip-107</masterclipid>
										<ismasterclip>TRUE</ismasterclip>
										<duration>2442</duration>
										<rate>
											<timebase>30</timebase>
											<ntsc>TRUE</ntsc>
										</rate>
										<name>1238 - SAT_BR Turner art_1m20s.mp4</name>
										<media>
											<video>
												<track>
													<clipitem id="clipitem-740">
														<masterclipid>masterclip-107</masterclipid>
														<name>1238 - SAT_BR Turner art_1m20s.mp4</name>
														<rate>
															<timebase>30</timebase>
															<ntsc>TRUE</ntsc>
														</rate>
														<alphatype>none</alphatype>
														<file id="file-106"/>
														<link>
															<linkclipref>clipitem-740</linkclipref>
															<mediatype>video</mediatype>
															<trackindex>1</trackindex>
															<clipindex>1</clipindex>
														</link>
														<link>
															<linkclipref>clipitem-741</linkclipref>
															<mediatype>audio</mediatype>
															<trackindex>1</trackindex>
															<clipindex>1</clipindex>
															<groupindex>1</groupindex>
														</link>
														<link>
															<linkclipref>clipitem-742</linkclipref>
															<mediatype>audio</mediatype>
															<trackindex>2</trackindex>
															<clipindex>1</clipindex>
															<groupindex>1</groupindex>
														</link>
													</clipitem>
												</track>
											</video>
											<audio>
												<track>
													<clipitem id="clipitem-741">
														<masterclipid>masterclip-107</masterclipid>
														<name>1238 - SAT_BR Turner art_1m20s.mp4</name>
														<rate>
															<timebase>30</timebase>
															<ntsc>TRUE</ntsc>
														</rate>
														<file id="file-106"/>
														<sourcetrack>
															<mediatype>audio</mediatype>
															<trackindex>1</trackindex>
														</sourcetrack>
														<link>
															<linkclipref>clipitem-740</linkclipref>
															<mediatype>video</mediatype>
															<trackindex>1</trackindex>
															<clipindex>1</clipindex>
														</link>
														<link>
															<linkclipref>clipitem-741</linkclipref>
															<mediatype>audio</mediatype>
															<trackindex>1</trackindex>
															<clipindex>1</clipindex>
															<groupindex>1</groupindex>
														</link>
														<link>
															<linkclipref>clipitem-742</linkclipref>
															<mediatype>audio</mediatype>
															<trackindex>2</trackindex>
															<clipindex>1</clipindex>
															<groupindex>1</groupindex>
														</link>
													</clipitem>
												</track>
												<track>
													<clipitem id="clipitem-742">
														<masterclipid>masterclip-107</masterclipid>
														<name>1238 - SAT_BR Turner art_1m20s.mp4</name>
														<rate>
															<timebase>30</timebase>
															<ntsc>TRUE</ntsc>
														</rate>
														<file id="file-106"/>
														<sourcetrack>
															<mediatype>audio</mediatype>
															<trackindex>2</trackindex>
														</sourcetrack>
														<link>
															<linkclipref>clipitem-740</linkclipref>
															<mediatype>video</mediatype>
															<trackindex>1</trackindex>
															<clipindex>1</clipindex>
														</link>
														<link>
															<linkclipref>clipitem-741</linkclipref>
															<mediatype>audio</mediatype>
															<trackindex>1</trackindex>
															<clipindex>1</clipindex>
															<groupindex>1</groupindex>
														</link>
														<link>
															<linkclipref>clipitem-742</linkclipref>
															<mediatype>audio</mediatype>
															<trackindex>2</trackindex>
															<clipindex>1</clipindex>
															<groupindex>1</groupindex>
														</link>
													</clipitem>
												</track>
											</audio>
										</media>
										<logginginfo>
											<description></description>
											<scene></scene>
											<shottake></shottake>
											<lognote></lognote>
											<good></good>
											<originalvideofilename></originalvideofilename>
											<originalaudiofilename></originalaudiofilename>
										</logginginfo>
										<colorinfo>
											<lut></lut>
											<lut1></lut1>
											<asc_sop></asc_sop>
											<asc_sat></asc_sat>
											<lut2></lut2>
										</colorinfo>
										<labels>
											<label2>Iris</label2>
										</labels>
									</clip>
									<clip id="masterclip-108" explodedTracks="true">
										<uuid>216f6c79-cc72-463d-8e52-c24ee8fc4499</uuid>
										<masterclipid>masterclip-108</masterclipid>
										<ismasterclip>TRUE</ismasterclip>
										<duration>2921</duration>
										<rate>
											<timebase>30</timebase>
											<ntsc>TRUE</ntsc>
										</rate>
										<name>1238 - SAT_pexels kelly lacy_1m35s.mp4</name>
										<media>
											<video>
												<track>
													<clipitem id="clipitem-743">
														<masterclipid>masterclip-108</masterclipid>
														<name>1238 - SAT_pexels kelly lacy_1m35s.mp4</name>
														<rate>
															<timebase>30</timebase>
															<ntsc>TRUE</ntsc>
														</rate>
														<alphatype>none</alphatype>
														<file id="file-107"/>
														<link>
															<linkclipref>clipitem-743</linkclipref>
															<mediatype>video</mediatype>
															<trackindex>1</trackindex>
															<clipindex>1</clipindex>
														</link>
														<link>
															<linkclipref>clipitem-744</linkclipref>
															<mediatype>audio</mediatype>
															<trackindex>1</trackindex>
															<clipindex>1</clipindex>
															<groupindex>1</groupindex>
														</link>
														<link>
															<linkclipref>clipitem-745</linkclipref>
															<mediatype>audio</mediatype>
															<trackindex>2</trackindex>
															<clipindex>1</clipindex>
															<groupindex>1</groupindex>
														</link>
													</clipitem>
												</track>
											</video>
											<audio>
												<track>
													<clipitem id="clipitem-744">
														<masterclipid>masterclip-108</masterclipid>
														<name>1238 - SAT_pexels kelly lacy_1m35s.mp4</name>
														<rate>
															<timebase>30</timebase>
															<ntsc>TRUE</ntsc>
														</rate>
														<file id="file-107"/>
														<sourcetrack>
															<mediatype>audio</mediatype>
															<trackindex>1</trackindex>
														</sourcetrack>
														<link>
															<linkclipref>clipitem-743</linkclipref>
															<mediatype>video</mediatype>
															<trackindex>1</trackindex>
															<clipindex>1</clipindex>
														</link>
														<link>
															<linkclipref>clipitem-744</linkclipref>
															<mediatype>audio</mediatype>
															<trackindex>1</trackindex>
															<clipindex>1</clipindex>
															<groupindex>1</groupindex>
														</link>
														<link>
															<linkclipref>clipitem-745</linkclipref>
															<mediatype>audio</mediatype>
															<trackindex>2</trackindex>
															<clipindex>1</clipindex>
															<groupindex>1</groupindex>
														</link>
													</clipitem>
												</track>
												<track>
													<clipitem id="clipitem-745">
														<masterclipid>masterclip-108</masterclipid>
														<name>1238 - SAT_pexels kelly lacy_1m35s.mp4</name>
														<rate>
															<timebase>30</timebase>
															<ntsc>TRUE</ntsc>
														</rate>
														<file id="file-107"/>
														<sourcetrack>
															<mediatype>audio</mediatype>
															<trackindex>2</trackindex>
														</sourcetrack>
														<link>
															<linkclipref>clipitem-743</linkclipref>
															<mediatype>video</mediatype>
															<trackindex>1</trackindex>
															<clipindex>1</clipindex>
														</link>
														<link>
															<linkclipref>clipitem-744</linkclipref>
															<mediatype>audio</mediatype>
															<trackindex>1</trackindex>
															<clipindex>1</clipindex>
															<groupindex>1</groupindex>
														</link>
														<link>
															<linkclipref>clipitem-745</linkclipref>
															<mediatype>audio</mediatype>
															<trackindex>2</trackindex>
															<clipindex>1</clipindex>
															<groupindex>1</groupindex>
														</link>
													</clipitem>
												</track>
											</audio>
										</media>
										<logginginfo>
											<description></description>
											<scene></scene>
											<shottake></shottake>
											<lognote></lognote>
											<good></good>
											<originalvideofilename></originalvideofilename>
											<originalaudiofilename></originalaudiofilename>
										</logginginfo>
										<colorinfo>
											<lut></lut>
											<lut1></lut1>
											<asc_sop></asc_sop>
											<asc_sat></asc_sat>
											<lut2></lut2>
										</colorinfo>
										<labels>
											<label2>Iris</label2>
										</labels>
									</clip>
									<clip id="masterclip-109" explodedTracks="true">
										<uuid>23e16d7a-2395-41eb-895c-b5c68edae309</uuid>
										<masterclipid>masterclip-109</masterclipid>
										<ismasterclip>TRUE</ismasterclip>
										<duration>2588</duration>
										<rate>
											<timebase>30</timebase>
											<ntsc>TRUE</ntsc>
										</rate>
										<name>1239 - SCI_my microscopic world_1m30s.mp4</name>
										<media>
											<video>
												<track>
													<clipitem id="clipitem-746">
														<masterclipid>masterclip-109</masterclipid>
														<name>1239 - SCI_my microscopic world_1m30s.mp4</name>
														<rate>
															<timebase>30</timebase>
															<ntsc>TRUE</ntsc>
														</rate>
														<alphatype>none</alphatype>
														<file id="file-108"/>
														<link>
															<linkclipref>clipitem-746</linkclipref>
															<mediatype>video</mediatype>
															<trackindex>1</trackindex>
															<clipindex>1</clipindex>
														</link>
														<link>
															<linkclipref>clipitem-747</linkclipref>
															<mediatype>audio</mediatype>
															<trackindex>1</trackindex>
															<clipindex>1</clipindex>
															<groupindex>1</groupindex>
														</link>
														<link>
															<linkclipref>clipitem-748</linkclipref>
															<mediatype>audio</mediatype>
															<trackindex>2</trackindex>
															<clipindex>1</clipindex>
															<groupindex>1</groupindex>
														</link>
													</clipitem>
												</track>
											</video>
											<audio>
												<track>
													<clipitem id="clipitem-747">
														<masterclipid>masterclip-109</masterclipid>
														<name>1239 - SCI_my microscopic world_1m30s.mp4</name>
														<rate>
															<timebase>30</timebase>
															<ntsc>TRUE</ntsc>
														</rate>
														<file id="file-108"/>
														<sourcetrack>
															<mediatype>audio</mediatype>
															<trackindex>1</trackindex>
														</sourcetrack>
														<link>
															<linkclipref>clipitem-746</linkclipref>
															<mediatype>video</mediatype>
															<trackindex>1</trackindex>
															<clipindex>1</clipindex>
														</link>
														<link>
															<linkclipref>clipitem-747</linkclipref>
															<mediatype>audio</mediatype>
															<trackindex>1</trackindex>
															<clipindex>1</clipindex>
															<groupindex>1</groupindex>
														</link>
														<link>
															<linkclipref>clipitem-748</linkclipref>
															<mediatype>audio</mediatype>
															<trackindex>2</trackindex>
															<clipindex>1</clipindex>
															<groupindex>1</groupindex>
														</link>
													</clipitem>
												</track>
												<track>
													<clipitem id="clipitem-748">
														<masterclipid>masterclip-109</masterclipid>
														<name>1239 - SCI_my microscopic world_1m30s.mp4</name>
														<rate>
															<timebase>30</timebase>
															<ntsc>TRUE</ntsc>
														</rate>
														<file id="file-108"/>
														<sourcetrack>
															<mediatype>audio</mediatype>
															<trackindex>2</trackindex>
														</sourcetrack>
														<link>
															<linkclipref>clipitem-746</linkclipref>
															<mediatype>video</mediatype>
															<trackindex>1</trackindex>
															<clipindex>1</clipindex>
														</link>
														<link>
															<linkclipref>clipitem-747</linkclipref>
															<mediatype>audio</mediatype>
															<trackindex>1</trackindex>
															<clipindex>1</clipindex>
															<groupindex>1</groupindex>
														</link>
														<link>
															<linkclipref>clipitem-748</linkclipref>
															<mediatype>audio</mediatype>
															<trackindex>2</trackindex>
															<clipindex>1</clipindex>
															<groupindex>1</groupindex>
														</link>
													</clipitem>
												</track>
											</audio>
										</media>
										<logginginfo>
											<description></description>
											<scene></scene>
											<shottake></shottake>
											<lognote></lognote>
											<good></good>
											<originalvideofilename></originalvideofilename>
											<originalaudiofilename></originalaudiofilename>
										</logginginfo>
										<colorinfo>
											<lut></lut>
											<lut1></lut1>
											<asc_sop></asc_sop>
											<asc_sat></asc_sat>
											<lut2></lut2>
										</colorinfo>
										<labels>
											<label2>Iris</label2>
										</labels>
									</clip>
									<clip id="masterclip-110" explodedTracks="true">
										<uuid>490e46f2-3591-49ab-a180-b171fc673685</uuid>
										<masterclipid>masterclip-110</masterclipid>
										<ismasterclip>TRUE</ismasterclip>
										<duration>2868</duration>
										<rate>
											<timebase>30</timebase>
											<ntsc>TRUE</ntsc>
										</rate>
										<name>1239 - DIY_duka heritage_1m35s.mp4</name>
										<media>
											<video>
												<track>
													<clipitem id="clipitem-749">
														<masterclipid>masterclip-110</masterclipid>
														<name>1239 - DIY_duka heritage_1m35s.mp4</name>
														<rate>
															<timebase>30</timebase>
															<ntsc>TRUE</ntsc>
														</rate>
														<alphatype>none</alphatype>
														<file id="file-109"/>
														<link>
															<linkclipref>clipitem-749</linkclipref>
															<mediatype>video</mediatype>
															<trackindex>1</trackindex>
															<clipindex>1</clipindex>
														</link>
														<link>
															<linkclipref>clipitem-750</linkclipref>
															<mediatype>audio</mediatype>
															<trackindex>1</trackindex>
															<clipindex>1</clipindex>
															<groupindex>1</groupindex>
														</link>
														<link>
															<linkclipref>clipitem-751</linkclipref>
															<mediatype>audio</mediatype>
															<trackindex>2</trackindex>
															<clipindex>1</clipindex>
															<groupindex>1</groupindex>
														</link>
													</clipitem>
												</track>
											</video>
											<audio>
												<track>
													<clipitem id="clipitem-750">
														<masterclipid>masterclip-110</masterclipid>
														<name>1239 - DIY_duka heritage_1m35s.mp4</name>
														<rate>
															<timebase>30</timebase>
															<ntsc>TRUE</ntsc>
														</rate>
														<file id="file-109"/>
														<sourcetrack>
															<mediatype>audio</mediatype>
															<trackindex>1</trackindex>
														</sourcetrack>
														<link>
															<linkclipref>clipitem-749</linkclipref>
															<mediatype>video</mediatype>
															<trackindex>1</trackindex>
															<clipindex>1</clipindex>
														</link>
														<link>
															<linkclipref>clipitem-750</linkclipref>
															<mediatype>audio</mediatype>
															<trackindex>1</trackindex>
															<clipindex>1</clipindex>
															<groupindex>1</groupindex>
														</link>
														<link>
															<linkclipref>clipitem-751</linkclipref>
															<mediatype>audio</mediatype>
															<trackindex>2</trackindex>
															<clipindex>1</clipindex>
															<groupindex>1</groupindex>
														</link>
													</clipitem>
												</track>
												<track>
													<clipitem id="clipitem-751">
														<masterclipid>masterclip-110</masterclipid>
														<name>1239 - DIY_duka heritage_1m35s.mp4</name>
														<rate>
															<timebase>30</timebase>
															<ntsc>TRUE</ntsc>
														</rate>
														<file id="file-109"/>
														<sourcetrack>
															<mediatype>audio</mediatype>
															<trackindex>2</trackindex>
														</sourcetrack>
														<link>
															<linkclipref>clipitem-749</linkclipref>
															<mediatype>video</mediatype>
															<trackindex>1</trackindex>
															<clipindex>1</clipindex>
														</link>
														<link>
															<linkclipref>clipitem-750</linkclipref>
															<mediatype>audio</mediatype>
															<trackindex>1</trackindex>
															<clipindex>1</clipindex>
															<groupindex>1</groupindex>
														</link>
														<link>
															<linkclipref>clipitem-751</linkclipref>
															<mediatype>audio</mediatype>
															<trackindex>2</trackindex>
															<clipindex>1</clipindex>
															<groupindex>1</groupindex>
														</link>
													</clipitem>
												</track>
											</audio>
										</media>
										<logginginfo>
											<description></description>
											<scene></scene>
											<shottake></shottake>
											<lognote></lognote>
											<good></good>
											<originalvideofilename></originalvideofilename>
											<originalaudiofilename></originalaudiofilename>
										</logginginfo>
										<colorinfo>
											<lut></lut>
											<lut1></lut1>
											<asc_sop></asc_sop>
											<asc_sat></asc_sat>
											<lut2></lut2>
										</colorinfo>
										<labels>
											<label2>Iris</label2>
										</labels>
									</clip>
									<bin>
										<name>04-03</name>
										<children>
											<clip id="masterclip-111" explodedTracks="true">
												<uuid>355c06a3-2f28-4e9e-86e2-5f86312eb48b</uuid>
												<masterclipid>masterclip-111</masterclipid>
												<ismasterclip>TRUE</ismasterclip>
												<duration>2737</duration>
												<rate>
													<timebase>30</timebase>
													<ntsc>TRUE</ntsc>
												</rate>
												<name>1251 - SAT_waterballet_1m30s.mp4</name>
												<media>
													<video>
														<track>
															<clipitem id="clipitem-752">
																<masterclipid>masterclip-111</masterclipid>
																<name>1251 - SAT_waterballet_1m30s.mp4</name>
																<rate>
																	<timebase>30</timebase>
																	<ntsc>TRUE</ntsc>
																</rate>
																<alphatype>none</alphatype>
																<file id="file-110"/>
																<link>
																	<linkclipref>clipitem-752</linkclipref>
																	<mediatype>video</mediatype>
																	<trackindex>1</trackindex>
																	<clipindex>1</clipindex>
																</link>
																<link>
																	<linkclipref>clipitem-753</linkclipref>
																	<mediatype>audio</mediatype>
																	<trackindex>1</trackindex>
																	<clipindex>1</clipindex>
																	<groupindex>1</groupindex>
																</link>
																<link>
																	<linkclipref>clipitem-754</linkclipref>
																	<mediatype>audio</mediatype>
																	<trackindex>2</trackindex>
																	<clipindex>1</clipindex>
																	<groupindex>1</groupindex>
																</link>
															</clipitem>
														</track>
													</video>
													<audio>
														<track>
															<clipitem id="clipitem-753">
																<masterclipid>masterclip-111</masterclipid>
																<name>1251 - SAT_waterballet_1m30s.mp4</name>
																<rate>
																	<timebase>30</timebase>
																	<ntsc>TRUE</ntsc>
																</rate>
																<file id="file-110"/>
																<sourcetrack>
																	<mediatype>audio</mediatype>
																	<trackindex>1</trackindex>
																</sourcetrack>
																<link>
																	<linkclipref>clipitem-752</linkclipref>
																	<mediatype>video</mediatype>
																	<trackindex>1</trackindex>
																	<clipindex>1</clipindex>
																</link>
																<link>
																	<linkclipref>clipitem-753</linkclipref>
																	<mediatype>audio</mediatype>
																	<trackindex>1</trackindex>
																	<clipindex>1</clipindex>
																	<groupindex>1</groupindex>
																</link>
																<link>
																	<linkclipref>clipitem-754</linkclipref>
																	<mediatype>audio</mediatype>
																	<trackindex>2</trackindex>
																	<clipindex>1</clipindex>
																	<groupindex>1</groupindex>
																</link>
															</clipitem>
														</track>
														<track>
															<clipitem id="clipitem-754">
																<masterclipid>masterclip-111</masterclipid>
																<name>1251 - SAT_waterballet_1m30s.mp4</name>
																<rate>
																	<timebase>30</timebase>
																	<ntsc>TRUE</ntsc>
																</rate>
																<file id="file-110"/>
																<sourcetrack>
																	<mediatype>audio</mediatype>
																	<trackindex>2</trackindex>
																</sourcetrack>
																<link>
																	<linkclipref>clipitem-752</linkclipref>
																	<mediatype>video</mediatype>
																	<trackindex>1</trackindex>
																	<clipindex>1</clipindex>
																</link>
																<link>
																	<linkclipref>clipitem-753</linkclipref>
																	<mediatype>audio</mediatype>
																	<trackindex>1</trackindex>
																	<clipindex>1</clipindex>
																	<groupindex>1</groupindex>
																</link>
																<link>
																	<linkclipref>clipitem-754</linkclipref>
																	<mediatype>audio</mediatype>
																	<trackindex>2</trackindex>
																	<clipindex>1</clipindex>
																	<groupindex>1</groupindex>
																</link>
															</clipitem>
														</track>
													</audio>
												</media>
												<logginginfo>
													<description></description>
													<scene></scene>
													<shottake></shottake>
													<lognote></lognote>
													<good></good>
													<originalvideofilename></originalvideofilename>
													<originalaudiofilename></originalaudiofilename>
												</logginginfo>
												<colorinfo>
													<lut></lut>
													<lut1></lut1>
													<asc_sop></asc_sop>
													<asc_sat></asc_sat>
													<lut2></lut2>
												</colorinfo>
												<labels>
													<label2>Iris</label2>
												</labels>
											</clip>
											<clip id="masterclip-112" explodedTracks="true">
												<uuid>5a67a019-69fb-47cd-b33f-97acce3565e5</uuid>
												<masterclipid>masterclip-112</masterclipid>
												<ismasterclip>TRUE</ismasterclip>
												<duration>2725</duration>
												<rate>
													<timebase>30</timebase>
													<ntsc>TRUE</ntsc>
												</rate>
												<name>1251 - FND_Pinoy Tambay_1m35s.mp4</name>
												<media>
													<video>
														<track>
															<clipitem id="clipitem-755">
																<masterclipid>masterclip-112</masterclipid>
																<name>1251 - FND_Pinoy Tambay_1m35s.mp4</name>
																<rate>
																	<timebase>30</timebase>
																	<ntsc>TRUE</ntsc>
																</rate>
																<alphatype>none</alphatype>
																<file id="file-111"/>
																<link>
																	<linkclipref>clipitem-755</linkclipref>
																	<mediatype>video</mediatype>
																	<trackindex>1</trackindex>
																	<clipindex>1</clipindex>
																</link>
																<link>
																	<linkclipref>clipitem-756</linkclipref>
																	<mediatype>audio</mediatype>
																	<trackindex>1</trackindex>
																	<clipindex>1</clipindex>
																	<groupindex>1</groupindex>
																</link>
																<link>
																	<linkclipref>clipitem-757</linkclipref>
																	<mediatype>audio</mediatype>
																	<trackindex>2</trackindex>
																	<clipindex>1</clipindex>
																	<groupindex>1</groupindex>
																</link>
															</clipitem>
														</track>
													</video>
													<audio>
														<track>
															<clipitem id="clipitem-756">
																<masterclipid>masterclip-112</masterclipid>
																<name>1251 - FND_Pinoy Tambay_1m35s.mp4</name>
																<rate>
																	<timebase>30</timebase>
																	<ntsc>TRUE</ntsc>
																</rate>
																<file id="file-111"/>
																<sourcetrack>
																	<mediatype>audio</mediatype>
																	<trackindex>1</trackindex>
																</sourcetrack>
																<link>
																	<linkclipref>clipitem-755</linkclipref>
																	<mediatype>video</mediatype>
																	<trackindex>1</trackindex>
																	<clipindex>1</clipindex>
																</link>
																<link>
																	<linkclipref>clipitem-756</linkclipref>
																	<mediatype>audio</mediatype>
																	<trackindex>1</trackindex>
																	<clipindex>1</clipindex>
																	<groupindex>1</groupindex>
																</link>
																<link>
																	<linkclipref>clipitem-757</linkclipref>
																	<mediatype>audio</mediatype>
																	<trackindex>2</trackindex>
																	<clipindex>1</clipindex>
																	<groupindex>1</groupindex>
																</link>
															</clipitem>
														</track>
														<track>
															<clipitem id="clipitem-757">
																<masterclipid>masterclip-112</masterclipid>
																<name>1251 - FND_Pinoy Tambay_1m35s.mp4</name>
																<rate>
																	<timebase>30</timebase>
																	<ntsc>TRUE</ntsc>
																</rate>
																<file id="file-111"/>
																<sourcetrack>
																	<mediatype>audio</mediatype>
																	<trackindex>2</trackindex>
																</sourcetrack>
																<link>
																	<linkclipref>clipitem-755</linkclipref>
																	<mediatype>video</mediatype>
																	<trackindex>1</trackindex>
																	<clipindex>1</clipindex>
																</link>
																<link>
																	<linkclipref>clipitem-756</linkclipref>
																	<mediatype>audio</mediatype>
																	<trackindex>1</trackindex>
																	<clipindex>1</clipindex>
																	<groupindex>1</groupindex>
																</link>
																<link>
																	<linkclipref>clipitem-757</linkclipref>
																	<mediatype>audio</mediatype>
																	<trackindex>2</trackindex>
																	<clipindex>1</clipindex>
																	<groupindex>1</groupindex>
																</link>
															</clipitem>
														</track>
													</audio>
												</media>
												<logginginfo>
													<description></description>
													<scene></scene>
													<shottake></shottake>
													<lognote></lognote>
													<good></good>
													<originalvideofilename></originalvideofilename>
													<originalaudiofilename></originalaudiofilename>
												</logginginfo>
												<colorinfo>
													<lut></lut>
													<lut1></lut1>
													<asc_sop></asc_sop>
													<asc_sat></asc_sat>
													<lut2></lut2>
												</colorinfo>
												<labels>
													<label2>Iris</label2>
												</labels>
											</clip>
										</children>
									</bin>
									<clip id="masterclip-135" explodedTracks="true">
										<uuid>a6a90f0b-84f3-40ca-965b-b148fc3bfce2</uuid>
										<masterclipid>masterclip-135</masterclipid>
										<ismasterclip>TRUE</ismasterclip>
										<duration>138482</duration>
										<rate>
											<timebase>60</timebase>
											<ntsc>FALSE</ntsc>
										</rate>
										<name>(Fill's Lawn Care)_He Lost A LOVED ONE After Buying This HOUSE, I Told Him No Need To Pay Me_4YVy3LH-nKQ_YT.mp4</name>
										<media>
											<video>
												<track>
													<clipitem id="clipitem-758">
														<masterclipid>masterclip-135</masterclipid>
														<name>(Fill's Lawn Care)_He Lost A LOVED ONE After Buying This HOUSE, I Told Him No Need To Pay Me_4YVy3LH-nKQ_YT.mp4</name>
														<rate>
															<timebase>60</timebase>
															<ntsc>FALSE</ntsc>
														</rate>
														<alphatype>none</alphatype>
														<file id="file-132"/>
														<link>
															<linkclipref>clipitem-758</linkclipref>
															<mediatype>video</mediatype>
															<trackindex>1</trackindex>
															<clipindex>1</clipindex>
														</link>
														<link>
															<linkclipref>clipitem-759</linkclipref>
															<mediatype>audio</mediatype>
															<trackindex>1</trackindex>
															<clipindex>1</clipindex>
															<groupindex>1</groupindex>
														</link>
														<link>
															<linkclipref>clipitem-760</linkclipref>
															<mediatype>audio</mediatype>
															<trackindex>2</trackindex>
															<clipindex>1</clipindex>
															<groupindex>1</groupindex>
														</link>
													</clipitem>
												</track>
											</video>
											<audio>
												<track>
													<clipitem id="clipitem-759">
														<masterclipid>masterclip-135</masterclipid>
														<name>(Fill's Lawn Care)_He Lost A LOVED ONE After Buying This HOUSE, I Told Him No Need To Pay Me_4YVy3LH-nKQ_YT.mp4</name>
														<rate>
															<timebase>60</timebase>
															<ntsc>FALSE</ntsc>
														</rate>
														<file id="file-132"/>
														<sourcetrack>
															<mediatype>audio</mediatype>
															<trackindex>1</trackindex>
														</sourcetrack>
														<link>
															<linkclipref>clipitem-758</linkclipref>
															<mediatype>video</mediatype>
															<trackindex>1</trackindex>
															<clipindex>1</clipindex>
														</link>
														<link>
															<linkclipref>clipitem-759</linkclipref>
															<mediatype>audio</mediatype>
															<trackindex>1</trackindex>
															<clipindex>1</clipindex>
															<groupindex>1</groupindex>
														</link>
														<link>
															<linkclipref>clipitem-760</linkclipref>
															<mediatype>audio</mediatype>
															<trackindex>2</trackindex>
															<clipindex>1</clipindex>
															<groupindex>1</groupindex>
														</link>
													</clipitem>
												</track>
												<track>
													<clipitem id="clipitem-760">
														<masterclipid>masterclip-135</masterclipid>
														<name>(Fill's Lawn Care)_He Lost A LOVED ONE After Buying This HOUSE, I Told Him No Need To Pay Me_4YVy3LH-nKQ_YT.mp4</name>
														<rate>
															<timebase>60</timebase>
															<ntsc>FALSE</ntsc>
														</rate>
														<file id="file-132"/>
														<sourcetrack>
															<mediatype>audio</mediatype>
															<trackindex>2</trackindex>
														</sourcetrack>
														<link>
															<linkclipref>clipitem-758</linkclipref>
															<mediatype>video</mediatype>
															<trackindex>1</trackindex>
															<clipindex>1</clipindex>
														</link>
														<link>
															<linkclipref>clipitem-759</linkclipref>
															<mediatype>audio</mediatype>
															<trackindex>1</trackindex>
															<clipindex>1</clipindex>
															<groupindex>1</groupindex>
														</link>
														<link>
															<linkclipref>clipitem-760</linkclipref>
															<mediatype>audio</mediatype>
															<trackindex>2</trackindex>
															<clipindex>1</clipindex>
															<groupindex>1</groupindex>
														</link>
													</clipitem>
												</track>
											</audio>
										</media>
										<logginginfo>
											<description></description>
											<scene></scene>
											<shottake></shottake>
											<lognote>https://www.youtube.com/watch?v=4YVy3LH-nKQ</lognote>
											<good></good>
											<originalvideofilename></originalvideofilename>
											<originalaudiofilename></originalaudiofilename>
										</logginginfo>
										<colorinfo>
											<lut></lut>
											<lut1></lut1>
											<asc_sop></asc_sop>
											<asc_sat></asc_sat>
											<lut2></lut2>
										</colorinfo>
										<labels>
											<label2>Iris</label2>
										</labels>
									</clip>
									<clip id="masterclip-136" explodedTracks="true">
										<uuid>6e72551a-7a59-4e65-9d56-15d8e1101151</uuid>
										<masterclipid>masterclip-136</masterclipid>
										<ismasterclip>TRUE</ismasterclip>
										<duration>35167</duration>
										<rate>
											<timebase>60</timebase>
											<ntsc>TRUE</ntsc>
										</rate>
										<name>(3D Prints&amp;Builds)_3D Printed Tools #5 - Useful and Functional 3D Prints_rbFzWOcB3TA_YT.mp4</name>
										<media>
											<video>
												<track>
													<clipitem id="clipitem-761">
														<masterclipid>masterclip-136</masterclipid>
														<name>(3D Prints&amp;Builds)_3D Printed Tools #5 - Useful and Functional 3D Prints_rbFzWOcB3TA_YT.mp4</name>
														<rate>
															<timebase>60</timebase>
															<ntsc>TRUE</ntsc>
														</rate>
														<alphatype>none</alphatype>
														<file id="file-133"/>
														<link>
															<linkclipref>clipitem-761</linkclipref>
															<mediatype>video</mediatype>
															<trackindex>1</trackindex>
															<clipindex>1</clipindex>
														</link>
														<link>
															<linkclipref>clipitem-762</linkclipref>
															<mediatype>audio</mediatype>
															<trackindex>1</trackindex>
															<clipindex>1</clipindex>
															<groupindex>1</groupindex>
														</link>
														<link>
															<linkclipref>clipitem-763</linkclipref>
															<mediatype>audio</mediatype>
															<trackindex>2</trackindex>
															<clipindex>1</clipindex>
															<groupindex>1</groupindex>
														</link>
													</clipitem>
												</track>
											</video>
											<audio>
												<track>
													<clipitem id="clipitem-762">
														<masterclipid>masterclip-136</masterclipid>
														<name>(3D Prints&amp;Builds)_3D Printed Tools #5 - Useful and Functional 3D Prints_rbFzWOcB3TA_YT.mp4</name>
														<rate>
															<timebase>60</timebase>
															<ntsc>TRUE</ntsc>
														</rate>
														<file id="file-133"/>
														<sourcetrack>
															<mediatype>audio</mediatype>
															<trackindex>1</trackindex>
														</sourcetrack>
														<link>
															<linkclipref>clipitem-761</linkclipref>
															<mediatype>video</mediatype>
															<trackindex>1</trackindex>
															<clipindex>1</clipindex>
														</link>
														<link>
															<linkclipref>clipitem-762</linkclipref>
															<mediatype>audio</mediatype>
															<trackindex>1</trackindex>
															<clipindex>1</clipindex>
															<groupindex>1</groupindex>
														</link>
														<link>
															<linkclipref>clipitem-763</linkclipref>
															<mediatype>audio</mediatype>
															<trackindex>2</trackindex>
															<clipindex>1</clipindex>
															<groupindex>1</groupindex>
														</link>
													</clipitem>
												</track>
												<track>
													<clipitem id="clipitem-763">
														<masterclipid>masterclip-136</masterclipid>
														<name>(3D Prints&amp;Builds)_3D Printed Tools #5 - Useful and Functional 3D Prints_rbFzWOcB3TA_YT.mp4</name>
														<rate>
															<timebase>60</timebase>
															<ntsc>TRUE</ntsc>
														</rate>
														<file id="file-133"/>
														<sourcetrack>
															<mediatype>audio</mediatype>
															<trackindex>2</trackindex>
														</sourcetrack>
														<link>
															<linkclipref>clipitem-761</linkclipref>
															<mediatype>video</mediatype>
															<trackindex>1</trackindex>
															<clipindex>1</clipindex>
														</link>
														<link>
															<linkclipref>clipitem-762</linkclipref>
															<mediatype>audio</mediatype>
															<trackindex>1</trackindex>
															<clipindex>1</clipindex>
															<groupindex>1</groupindex>
														</link>
														<link>
															<linkclipref>clipitem-763</linkclipref>
															<mediatype>audio</mediatype>
															<trackindex>2</trackindex>
															<clipindex>1</clipindex>
															<groupindex>1</groupindex>
														</link>
													</clipitem>
												</track>
											</audio>
										</media>
										<logginginfo>
											<description></description>
											<scene></scene>
											<shottake></shottake>
											<lognote>https://www.youtube.com/watch?v=rbFzWOcB3TA</lognote>
											<good></good>
											<originalvideofilename></originalvideofilename>
											<originalaudiofilename></originalaudiofilename>
										</logginginfo>
										<colorinfo>
											<lut></lut>
											<lut1></lut1>
											<asc_sop></asc_sop>
											<asc_sat></asc_sat>
											<lut2></lut2>
										</colorinfo>
										<labels>
											<label2>Iris</label2>
										</labels>
									</clip>
									<clip id="masterclip-137" explodedTracks="true">
										<uuid>5a9073ff-8194-407a-b77f-77999c2d48b4</uuid>
										<masterclipid>masterclip-137</masterclipid>
										<ismasterclip>TRUE</ismasterclip>
										<duration>5544</duration>
										<rate>
											<timebase>30</timebase>
											<ntsc>TRUE</ntsc>
										</rate>
										<name>(Droolsss)_EASY CHICKEN BIRYANI _ Eid Special _ Droolsss_fk4Z0mhP98I_YT.mp4</name>
										<media>
											<video>
												<track>
													<clipitem id="clipitem-764">
														<masterclipid>masterclip-137</masterclipid>
														<name>(Droolsss)_EASY CHICKEN BIRYANI _ Eid Special _ Droolsss_fk4Z0mhP98I_YT.mp4</name>
														<rate>
															<timebase>30</timebase>
															<ntsc>TRUE</ntsc>
														</rate>
														<alphatype>none</alphatype>
														<file id="file-134"/>
														<link>
															<linkclipref>clipitem-764</linkclipref>
															<mediatype>video</mediatype>
															<trackindex>1</trackindex>
															<clipindex>1</clipindex>
														</link>
														<link>
															<linkclipref>clipitem-765</linkclipref>
															<mediatype>audio</mediatype>
															<trackindex>1</trackindex>
															<clipindex>1</clipindex>
															<groupindex>1</groupindex>
														</link>
														<link>
															<linkclipref>clipitem-766</linkclipref>
															<mediatype>audio</mediatype>
															<trackindex>2</trackindex>
															<clipindex>1</clipindex>
															<groupindex>1</groupindex>
														</link>
													</clipitem>
												</track>
											</video>
											<audio>
												<track>
													<clipitem id="clipitem-765">
														<masterclipid>masterclip-137</masterclipid>
														<name>(Droolsss)_EASY CHICKEN BIRYANI _ Eid Special _ Droolsss_fk4Z0mhP98I_YT.mp4</name>
														<rate>
															<timebase>30</timebase>
															<ntsc>TRUE</ntsc>
														</rate>
														<file id="file-134"/>
														<sourcetrack>
															<mediatype>audio</mediatype>
															<trackindex>1</trackindex>
														</sourcetrack>
														<link>
															<linkclipref>clipitem-764</linkclipref>
															<mediatype>video</mediatype>
															<trackindex>1</trackindex>
															<clipindex>1</clipindex>
														</link>
														<link>
															<linkclipref>clipitem-765</linkclipref>
															<mediatype>audio</mediatype>
															<trackindex>1</trackindex>
															<clipindex>1</clipindex>
															<groupindex>1</groupindex>
														</link>
														<link>
															<linkclipref>clipitem-766</linkclipref>
															<mediatype>audio</mediatype>
															<trackindex>2</trackindex>
															<clipindex>1</clipindex>
															<groupindex>1</groupindex>
														</link>
													</clipitem>
												</track>
												<track>
													<clipitem id="clipitem-766">
														<masterclipid>masterclip-137</masterclipid>
														<name>(Droolsss)_EASY CHICKEN BIRYANI _ Eid Special _ Droolsss_fk4Z0mhP98I_YT.mp4</name>
														<rate>
															<timebase>30</timebase>
															<ntsc>TRUE</ntsc>
														</rate>
														<file id="file-134"/>
														<sourcetrack>
															<mediatype>audio</mediatype>
															<trackindex>2</trackindex>
														</sourcetrack>
														<link>
															<linkclipref>clipitem-764</linkclipref>
															<mediatype>video</mediatype>
															<trackindex>1</trackindex>
															<clipindex>1</clipindex>
														</link>
														<link>
															<linkclipref>clipitem-765</linkclipref>
															<mediatype>audio</mediatype>
															<trackindex>1</trackindex>
															<clipindex>1</clipindex>
															<groupindex>1</groupindex>
														</link>
														<link>
															<linkclipref>clipitem-766</linkclipref>
															<mediatype>audio</mediatype>
															<trackindex>2</trackindex>
															<clipindex>1</clipindex>
															<groupindex>1</groupindex>
														</link>
													</clipitem>
												</track>
											</audio>
										</media>
										<logginginfo>
											<description></description>
											<scene></scene>
											<shottake></shottake>
											<lognote>https://www.youtube.com/watch?v=fk4Z0mhP98I</lognote>
											<good></good>
											<originalvideofilename></originalvideofilename>
											<originalaudiofilename></originalaudiofilename>
										</logginginfo>
										<colorinfo>
											<lut></lut>
											<lut1></lut1>
											<asc_sop></asc_sop>
											<asc_sat></asc_sat>
											<lut2></lut2>
										</colorinfo>
										<labels>
											<label2>Iris</label2>
										</labels>
									</clip>
									<clip id="masterclip-138" explodedTracks="true">
										<uuid>15e2382f-0687-45a9-893f-72f4b68f6290</uuid>
										<masterclipid>masterclip-138</masterclipid>
										<ismasterclip>TRUE</ismasterclip>
										<duration>1190</duration>
										<rate>
											<timebase>30</timebase>
											<ntsc>TRUE</ntsc>
										</rate>
										<name>All the Colors of the Rainbow_HAPPY.mp4</name>
										<media>
											<video>
												<track>
													<clipitem id="clipitem-767">
														<masterclipid>masterclip-138</masterclipid>
														<name>All the Colors of the Rainbow_HAPPY.mp4</name>
														<rate>
															<timebase>30</timebase>
															<ntsc>TRUE</ntsc>
														</rate>
														<alphatype>none</alphatype>
														<file id="file-135"/>
														<link>
															<linkclipref>clipitem-767</linkclipref>
															<mediatype>video</mediatype>
															<trackindex>1</trackindex>
															<clipindex>1</clipindex>
														</link>
														<link>
															<linkclipref>clipitem-768</linkclipref>
															<mediatype>audio</mediatype>
															<trackindex>1</trackindex>
															<clipindex>1</clipindex>
															<groupindex>1</groupindex>
														</link>
														<link>
															<linkclipref>clipitem-769</linkclipref>
															<mediatype>audio</mediatype>
															<trackindex>2</trackindex>
															<clipindex>1</clipindex>
															<groupindex>1</groupindex>
														</link>
													</clipitem>
												</track>
											</video>
											<audio>
												<track>
													<clipitem id="clipitem-768">
														<masterclipid>masterclip-138</masterclipid>
														<name>All the Colors of the Rainbow_HAPPY.mp4</name>
														<rate>
															<timebase>30</timebase>
															<ntsc>TRUE</ntsc>
														</rate>
														<file id="file-135"/>
														<sourcetrack>
															<mediatype>audio</mediatype>
															<trackindex>1</trackindex>
														</sourcetrack>
														<link>
															<linkclipref>clipitem-767</linkclipref>
															<mediatype>video</mediatype>
															<trackindex>1</trackindex>
															<clipindex>1</clipindex>
														</link>
														<link>
															<linkclipref>clipitem-768</linkclipref>
															<mediatype>audio</mediatype>
															<trackindex>1</trackindex>
															<clipindex>1</clipindex>
															<groupindex>1</groupindex>
														</link>
														<link>
															<linkclipref>clipitem-769</linkclipref>
															<mediatype>audio</mediatype>
															<trackindex>2</trackindex>
															<clipindex>1</clipindex>
															<groupindex>1</groupindex>
														</link>
													</clipitem>
												</track>
												<track>
													<clipitem id="clipitem-769">
														<masterclipid>masterclip-138</masterclipid>
														<name>All the Colors of the Rainbow_HAPPY.mp4</name>
														<rate>
															<timebase>30</timebase>
															<ntsc>TRUE</ntsc>
														</rate>
														<file id="file-135"/>
														<sourcetrack>
															<mediatype>audio</mediatype>
															<trackindex>2</trackindex>
														</sourcetrack>
														<link>
															<linkclipref>clipitem-767</linkclipref>
															<mediatype>video</mediatype>
															<trackindex>1</trackindex>
															<clipindex>1</clipindex>
														</link>
														<link>
															<linkclipref>clipitem-768</linkclipref>
															<mediatype>audio</mediatype>
															<trackindex>1</trackindex>
															<clipindex>1</clipindex>
															<groupindex>1</groupindex>
														</link>
														<link>
															<linkclipref>clipitem-769</linkclipref>
															<mediatype>audio</mediatype>
															<trackindex>2</trackindex>
															<clipindex>1</clipindex>
															<groupindex>1</groupindex>
														</link>
													</clipitem>
												</track>
											</audio>
										</media>
										<logginginfo>
											<description></description>
											<scene></scene>
											<shottake></shottake>
											<lognote></lognote>
											<good></good>
											<originalvideofilename></originalvideofilename>
											<originalaudiofilename></originalaudiofilename>
										</logginginfo>
										<colorinfo>
											<lut></lut>
											<lut1></lut1>
											<asc_sop></asc_sop>
											<asc_sat></asc_sat>
											<lut2></lut2>
										</colorinfo>
										<labels>
											<label2>Iris</label2>
										</labels>
									</clip>
									<clip id="masterclip-139" explodedTracks="true">
										<uuid>b324f8ba-27bf-4477-9cc2-11b3b5c18444</uuid>
										<masterclipid>masterclip-139</masterclipid>
										<ismasterclip>TRUE</ismasterclip>
										<duration>12047</duration>
										<rate>
											<timebase>30</timebase>
											<ntsc>FALSE</ntsc>
										</rate>
										<name>(Right Choice Shearing)_Shearing the Belly and Legs of Llamas- SO SATISFYING!_wevJwrmd9bk_YT.mp4</name>
										<media>
											<video>
												<track>
													<clipitem id="clipitem-770">
														<masterclipid>masterclip-139</masterclipid>
														<name>(Right Choice Shearing)_Shearing the Belly and Legs of Llamas- SO SATISFYING!_wevJwrmd9bk_YT.mp4</name>
														<rate>
															<timebase>30</timebase>
															<ntsc>FALSE</ntsc>
														</rate>
														<alphatype>none</alphatype>
														<file id="file-136"/>
														<link>
															<linkclipref>clipitem-770</linkclipref>
															<mediatype>video</mediatype>
															<trackindex>1</trackindex>
															<clipindex>1</clipindex>
														</link>
														<link>
															<linkclipref>clipitem-771</linkclipref>
															<mediatype>audio</mediatype>
															<trackindex>1</trackindex>
															<clipindex>1</clipindex>
															<groupindex>1</groupindex>
														</link>
														<link>
															<linkclipref>clipitem-772</linkclipref>
															<mediatype>audio</mediatype>
															<trackindex>2</trackindex>
															<clipindex>1</clipindex>
															<groupindex>1</groupindex>
														</link>
													</clipitem>
												</track>
											</video>
											<audio>
												<track>
													<clipitem id="clipitem-771">
														<masterclipid>masterclip-139</masterclipid>
														<name>(Right Choice Shearing)_Shearing the Belly and Legs of Llamas- SO SATISFYING!_wevJwrmd9bk_YT.mp4</name>
														<rate>
															<timebase>30</timebase>
															<ntsc>FALSE</ntsc>
														</rate>
														<file id="file-136"/>
														<sourcetrack>
															<mediatype>audio</mediatype>
															<trackindex>1</trackindex>
														</sourcetrack>
														<link>
															<linkclipref>clipitem-770</linkclipref>
															<mediatype>video</mediatype>
															<trackindex>1</trackindex>
															<clipindex>1</clipindex>
														</link>
														<link>
															<linkclipref>clipitem-771</linkclipref>
															<mediatype>audio</mediatype>
															<trackindex>1</trackindex>
															<clipindex>1</clipindex>
															<groupindex>1</groupindex>
														</link>
														<link>
															<linkclipref>clipitem-772</linkclipref>
															<mediatype>audio</mediatype>
															<trackindex>2</trackindex>
															<clipindex>1</clipindex>
															<groupindex>1</groupindex>
														</link>
													</clipitem>
												</track>
												<track>
													<clipitem id="clipitem-772">
														<masterclipid>masterclip-139</masterclipid>
														<name>(Right Choice Shearing)_Shearing the Belly and Legs of Llamas- SO SATISFYING!_wevJwrmd9bk_YT.mp4</name>
														<rate>
															<timebase>30</timebase>
															<ntsc>FALSE</ntsc>
														</rate>
														<file id="file-136"/>
														<sourcetrack>
															<mediatype>audio</mediatype>
															<trackindex>2</trackindex>
														</sourcetrack>
														<link>
															<linkclipref>clipitem-770</linkclipref>
															<mediatype>video</mediatype>
															<trackindex>1</trackindex>
															<clipindex>1</clipindex>
														</link>
														<link>
															<linkclipref>clipitem-771</linkclipref>
															<mediatype>audio</mediatype>
															<trackindex>1</trackindex>
															<clipindex>1</clipindex>
															<groupindex>1</groupindex>
														</link>
														<link>
															<linkclipref>clipitem-772</linkclipref>
															<mediatype>audio</mediatype>
															<trackindex>2</trackindex>
															<clipindex>1</clipindex>
															<groupindex>1</groupindex>
														</link>
													</clipitem>
												</track>
											</audio>
										</media>
										<logginginfo>
											<description></description>
											<scene></scene>
											<shottake></shottake>
											<lognote>https://www.youtube.com/watch?v=wevJwrmd9bk</lognote>
											<good></good>
											<originalvideofilename></originalvideofilename>
											<originalaudiofilename></originalaudiofilename>
										</logginginfo>
										<colorinfo>
											<lut></lut>
											<lut1></lut1>
											<asc_sop></asc_sop>
											<asc_sat></asc_sat>
											<lut2></lut2>
										</colorinfo>
										<labels>
											<label2>Iris</label2>
										</labels>
									</clip>
									<clip id="masterclip-113" explodedTracks="true">
										<uuid>20260799-dce2-4cbc-836d-f1d60220f710</uuid>
										<masterclipid>masterclip-113</masterclipid>
										<ismasterclip>TRUE</ismasterclip>
										<duration>2598</duration>
										<rate>
											<timebase>30</timebase>
											<ntsc>TRUE</ntsc>
										</rate>
										<name>ART_I love you a latte_1.3_HAPPY.mp4</name>
										<media>
											<video>
												<track>
													<clipitem id="clipitem-773">
														<masterclipid>masterclip-113</masterclipid>
														<name>ART_I love you a latte_1.3_HAPPY.mp4</name>
														<rate>
															<timebase>30</timebase>
															<ntsc>TRUE</ntsc>
														</rate>
														<alphatype>none</alphatype>
														<file id="file-112"/>
														<link>
															<linkclipref>clipitem-773</linkclipref>
															<mediatype>video</mediatype>
															<trackindex>1</trackindex>
															<clipindex>1</clipindex>
														</link>
														<link>
															<linkclipref>clipitem-774</linkclipref>
															<mediatype>audio</mediatype>
															<trackindex>1</trackindex>
															<clipindex>1</clipindex>
															<groupindex>1</groupindex>
														</link>
														<link>
															<linkclipref>clipitem-775</linkclipref>
															<mediatype>audio</mediatype>
															<trackindex>2</trackindex>
															<clipindex>1</clipindex>
															<groupindex>1</groupindex>
														</link>
													</clipitem>
												</track>
											</video>
											<audio>
												<track>
													<clipitem id="clipitem-774">
														<masterclipid>masterclip-113</masterclipid>
														<name>ART_I love you a latte_1.3_HAPPY.mp4</name>
														<rate>
															<timebase>30</timebase>
															<ntsc>TRUE</ntsc>
														</rate>
														<file id="file-112"/>
														<sourcetrack>
															<mediatype>audio</mediatype>
															<trackindex>1</trackindex>
														</sourcetrack>
														<link>
															<linkclipref>clipitem-773</linkclipref>
															<mediatype>video</mediatype>
															<trackindex>1</trackindex>
															<clipindex>1</clipindex>
														</link>
														<link>
															<linkclipref>clipitem-774</linkclipref>
															<mediatype>audio</mediatype>
															<trackindex>1</trackindex>
															<clipindex>1</clipindex>
															<groupindex>1</groupindex>
														</link>
														<link>
															<linkclipref>clipitem-775</linkclipref>
															<mediatype>audio</mediatype>
															<trackindex>2</trackindex>
															<clipindex>1</clipindex>
															<groupindex>1</groupindex>
														</link>
													</clipitem>
												</track>
												<track>
													<clipitem id="clipitem-775">
														<masterclipid>masterclip-113</masterclipid>
														<name>ART_I love you a latte_1.3_HAPPY.mp4</name>
														<rate>
															<timebase>30</timebase>
															<ntsc>TRUE</ntsc>
														</rate>
														<file id="file-112"/>
														<sourcetrack>
															<mediatype>audio</mediatype>
															<trackindex>2</trackindex>
														</sourcetrack>
														<link>
															<linkclipref>clipitem-773</linkclipref>
															<mediatype>video</mediatype>
															<trackindex>1</trackindex>
															<clipindex>1</clipindex>
														</link>
														<link>
															<linkclipref>clipitem-774</linkclipref>
															<mediatype>audio</mediatype>
															<trackindex>1</trackindex>
															<clipindex>1</clipindex>
															<groupindex>1</groupindex>
														</link>
														<link>
															<linkclipref>clipitem-775</linkclipref>
															<mediatype>audio</mediatype>
															<trackindex>2</trackindex>
															<clipindex>1</clipindex>
															<groupindex>1</groupindex>
														</link>
													</clipitem>
												</track>
											</audio>
										</media>
										<logginginfo>
											<description></description>
											<scene></scene>
											<shottake></shottake>
											<lognote></lognote>
											<good></good>
											<originalvideofilename></originalvideofilename>
											<originalaudiofilename></originalaudiofilename>
										</logginginfo>
										<colorinfo>
											<lut></lut>
											<lut1></lut1>
											<asc_sop></asc_sop>
											<asc_sat></asc_sat>
											<lut2></lut2>
										</colorinfo>
										<labels>
											<label2>Iris</label2>
										</labels>
									</clip>
									<bin>
										<name>colorful cleaning</name>
										<children>
											<clip id="masterclip-141" explodedTracks="true">
												<uuid>cd8715af-d0fd-4569-9f92-f463b564df9b</uuid>
												<masterclipid>masterclip-141</masterclipid>
												<ismasterclip>TRUE</ismasterclip>
												<duration>92715</duration>
												<rate>
													<timebase>60</timebase>
													<ntsc>FALSE</ntsc>
												</rate>
												<name>(Tino Car Care)_How MILLIONAIRES Take Care of Their Cars__mNGGvsqRR7s_YT.mp4</name>
												<media>
													<video>
														<track>
															<clipitem id="clipitem-776">
																<masterclipid>masterclip-141</masterclipid>
																<name>(Tino Car Care)_How MILLIONAIRES Take Care of Their Cars__mNGGvsqRR7s_YT.mp4</name>
																<rate>
																	<timebase>60</timebase>
																	<ntsc>FALSE</ntsc>
																</rate>
																<alphatype>none</alphatype>
																<file id="file-137"/>
																<link>
																	<linkclipref>clipitem-776</linkclipref>
																	<mediatype>video</mediatype>
																	<trackindex>1</trackindex>
																	<clipindex>1</clipindex>
																</link>
																<link>
																	<linkclipref>clipitem-777</linkclipref>
																	<mediatype>audio</mediatype>
																	<trackindex>1</trackindex>
																	<clipindex>1</clipindex>
																	<groupindex>1</groupindex>
																</link>
																<link>
																	<linkclipref>clipitem-778</linkclipref>
																	<mediatype>audio</mediatype>
																	<trackindex>2</trackindex>
																	<clipindex>1</clipindex>
																	<groupindex>1</groupindex>
																</link>
															</clipitem>
														</track>
													</video>
													<audio>
														<track>
															<clipitem id="clipitem-777">
																<masterclipid>masterclip-141</masterclipid>
																<name>(Tino Car Care)_How MILLIONAIRES Take Care of Their Cars__mNGGvsqRR7s_YT.mp4</name>
																<rate>
																	<timebase>60</timebase>
																	<ntsc>FALSE</ntsc>
																</rate>
																<file id="file-137"/>
																<sourcetrack>
																	<mediatype>audio</mediatype>
																	<trackindex>1</trackindex>
																</sourcetrack>
																<link>
																	<linkclipref>clipitem-776</linkclipref>
																	<mediatype>video</mediatype>
																	<trackindex>1</trackindex>
																	<clipindex>1</clipindex>
																</link>
																<link>
																	<linkclipref>clipitem-777</linkclipref>
																	<mediatype>audio</mediatype>
																	<trackindex>1</trackindex>
																	<clipindex>1</clipindex>
																	<groupindex>1</groupindex>
																</link>
																<link>
																	<linkclipref>clipitem-778</linkclipref>
																	<mediatype>audio</mediatype>
																	<trackindex>2</trackindex>
																	<clipindex>1</clipindex>
																	<groupindex>1</groupindex>
																</link>
															</clipitem>
														</track>
														<track>
															<clipitem id="clipitem-778">
																<masterclipid>masterclip-141</masterclipid>
																<name>(Tino Car Care)_How MILLIONAIRES Take Care of Their Cars__mNGGvsqRR7s_YT.mp4</name>
																<rate>
																	<timebase>60</timebase>
																	<ntsc>FALSE</ntsc>
																</rate>
																<file id="file-137"/>
																<sourcetrack>
																	<mediatype>audio</mediatype>
																	<trackindex>2</trackindex>
																</sourcetrack>
																<link>
																	<linkclipref>clipitem-776</linkclipref>
																	<mediatype>video</mediatype>
																	<trackindex>1</trackindex>
																	<clipindex>1</clipindex>
																</link>
																<link>
																	<linkclipref>clipitem-777</linkclipref>
																	<mediatype>audio</mediatype>
																	<trackindex>1</trackindex>
																	<clipindex>1</clipindex>
																	<groupindex>1</groupindex>
																</link>
																<link>
																	<linkclipref>clipitem-778</linkclipref>
																	<mediatype>audio</mediatype>
																	<trackindex>2</trackindex>
																	<clipindex>1</clipindex>
																	<groupindex>1</groupindex>
																</link>
															</clipitem>
														</track>
													</audio>
												</media>
												<logginginfo>
													<description>How MILLIONAIRES Take Care of Their Cars?</description>
													<scene></scene>
													<shottake></shottake>
													<lognote>https://www.youtube.com/watch?v=mNGGvsqRR7s</lognote>
													<good></good>
													<originalvideofilename></originalvideofilename>
													<originalaudiofilename></originalaudiofilename>
												</logginginfo>
												<colorinfo>
													<lut></lut>
													<lut1></lut1>
													<asc_sop></asc_sop>
													<asc_sat></asc_sat>
													<lut2></lut2>
												</colorinfo>
												<labels>
													<label2>Iris</label2>
												</labels>
											</clip>
										</children>
									</bin>
									<clip id="masterclip-142" explodedTracks="true">
										<uuid>fc484eed-24c7-4d43-909c-3ad7ae6d0cf1</uuid>
										<masterclipid>masterclip-142</masterclipid>
										<ismasterclip>TRUE</ismasterclip>
										<duration>97166</duration>
										<rate>
											<timebase>60</timebase>
											<ntsc>TRUE</ntsc>
										</rate>
										<name>(Paint Society)_How To Prepare a Vehicle’s Surface to Lay The Smoothest Paint!__HTTTZes8-o_YT.mp4</name>
										<media>
											<video>
												<track>
													<clipitem id="clipitem-779">
														<masterclipid>masterclip-142</masterclipid>
														<name>(Paint Society)_How To Prepare a Vehicle’s Surface to Lay The Smoothest Paint!__HTTTZes8-o_YT.mp4</name>
														<rate>
															<timebase>60</timebase>
															<ntsc>TRUE</ntsc>
														</rate>
														<alphatype>none</alphatype>
														<file id="file-138"/>
														<link>
															<linkclipref>clipitem-779</linkclipref>
															<mediatype>video</mediatype>
															<trackindex>1</trackindex>
															<clipindex>1</clipindex>
														</link>
														<link>
															<linkclipref>clipitem-780</linkclipref>
															<mediatype>audio</mediatype>
															<trackindex>1</trackindex>
															<clipindex>1</clipindex>
															<groupindex>1</groupindex>
														</link>
														<link>
															<linkclipref>clipitem-781</linkclipref>
															<mediatype>audio</mediatype>
															<trackindex>2</trackindex>
															<clipindex>1</clipindex>
															<groupindex>1</groupindex>
														</link>
													</clipitem>
												</track>
											</video>
											<audio>
												<track>
													<clipitem id="clipitem-780">
														<masterclipid>masterclip-142</masterclipid>
														<name>(Paint Society)_How To Prepare a Vehicle’s Surface to Lay The Smoothest Paint!__HTTTZes8-o_YT.mp4</name>
														<rate>
															<timebase>60</timebase>
															<ntsc>TRUE</ntsc>
														</rate>
														<file id="file-138"/>
														<sourcetrack>
															<mediatype>audio</mediatype>
															<trackindex>1</trackindex>
														</sourcetrack>
														<link>
															<linkclipref>clipitem-779</linkclipref>
															<mediatype>video</mediatype>
															<trackindex>1</trackindex>
															<clipindex>1</clipindex>
														</link>
														<link>
															<linkclipref>clipitem-780</linkclipref>
															<mediatype>audio</mediatype>
															<trackindex>1</trackindex>
															<clipindex>1</clipindex>
															<groupindex>1</groupindex>
														</link>
														<link>
															<linkclipref>clipitem-781</linkclipref>
															<mediatype>audio</mediatype>
															<trackindex>2</trackindex>
															<clipindex>1</clipindex>
															<groupindex>1</groupindex>
														</link>
													</clipitem>
												</track>
												<track>
													<clipitem id="clipitem-781">
														<masterclipid>masterclip-142</masterclipid>
														<name>(Paint Society)_How To Prepare a Vehicle’s Surface to Lay The Smoothest Paint!__HTTTZes8-o_YT.mp4</name>
														<rate>
															<timebase>60</timebase>
															<ntsc>TRUE</ntsc>
														</rate>
														<file id="file-138"/>
														<sourcetrack>
															<mediatype>audio</mediatype>
															<trackindex>2</trackindex>
														</sourcetrack>
														<link>
															<linkclipref>clipitem-779</linkclipref>
															<mediatype>video</mediatype>
															<trackindex>1</trackindex>
															<clipindex>1</clipindex>
														</link>
														<link>
															<linkclipref>clipitem-780</linkclipref>
															<mediatype>audio</mediatype>
															<trackindex>1</trackindex>
															<clipindex>1</clipindex>
															<groupindex>1</groupindex>
														</link>
														<link>
															<linkclipref>clipitem-781</linkclipref>
															<mediatype>audio</mediatype>
															<trackindex>2</trackindex>
															<clipindex>1</clipindex>
															<groupindex>1</groupindex>
														</link>
													</clipitem>
												</track>
											</audio>
										</media>
										<logginginfo>
											<description></description>
											<scene></scene>
											<shottake></shottake>
											<lognote>https://www.youtube.com/watch?v=_HTTTZes8-o</lognote>
											<good></good>
											<originalvideofilename></originalvideofilename>
											<originalaudiofilename></originalaudiofilename>
										</logginginfo>
										<colorinfo>
											<lut></lut>
											<lut1></lut1>
											<asc_sop></asc_sop>
											<asc_sat></asc_sat>
											<lut2></lut2>
										</colorinfo>
										<labels>
											<label2>Iris</label2>
										</labels>
									</clip>
									<bin>
										<name>French Toast</name>
										<children>
											<clip id="masterclip-114" explodedTracks="true">
												<uuid>39e9b956-871b-460b-ad05-a8c8e4a619ac</uuid>
												<masterclipid>masterclip-114</masterclipid>
												<ismasterclip>TRUE</ismasterclip>
												<duration>673</duration>
												<rate>
													<timebase>30</timebase>
													<ntsc>FALSE</ntsc>
												</rate>
												<name>(viviannecafe)_CYG0ZEHoo10_IG.mp4</name>
												<media>
													<video>
														<track>
															<clipitem id="clipitem-782">
																<masterclipid>masterclip-114</masterclipid>
																<name>(viviannecafe)_CYG0ZEHoo10_IG.mp4</name>
																<rate>
																	<timebase>30</timebase>
																	<ntsc>FALSE</ntsc>
																</rate>
																<alphatype>none</alphatype>
																<file id="file-113"/>
																<link>
																	<linkclipref>clipitem-782</linkclipref>
																	<mediatype>video</mediatype>
																	<trackindex>1</trackindex>
																	<clipindex>1</clipindex>
																</link>
																<link>
																	<linkclipref>clipitem-783</linkclipref>
																	<mediatype>audio</mediatype>
																	<trackindex>1</trackindex>
																	<clipindex>1</clipindex>
																</link>
															</clipitem>
														</track>
													</video>
													<audio>
														<track>
															<clipitem id="clipitem-783">
																<masterclipid>masterclip-114</masterclipid>
																<name>(viviannecafe)_CYG0ZEHoo10_IG.mp4</name>
																<rate>
																	<timebase>30</timebase>
																	<ntsc>FALSE</ntsc>
																</rate>
																<file id="file-113"/>
																<sourcetrack>
																	<mediatype>audio</mediatype>
																	<trackindex>1</trackindex>
																</sourcetrack>
																<link>
																	<linkclipref>clipitem-782</linkclipref>
																	<mediatype>video</mediatype>
																	<trackindex>1</trackindex>
																	<clipindex>1</clipindex>
																</link>
																<link>
																	<linkclipref>clipitem-783</linkclipref>
																	<mediatype>audio</mediatype>
																	<trackindex>1</trackindex>
																	<clipindex>1</clipindex>
																</link>
															</clipitem>
														</track>
													</audio>
												</media>
												<logginginfo>
													<description></description>
													<scene></scene>
													<shottake></shottake>
													<lognote></lognote>
													<good></good>
													<originalvideofilename></originalvideofilename>
													<originalaudiofilename></originalaudiofilename>
												</logginginfo>
												<colorinfo>
													<lut></lut>
													<lut1></lut1>
													<asc_sop></asc_sop>
													<asc_sat></asc_sat>
													<lut2></lut2>
												</colorinfo>
												<labels>
													<label2>Iris</label2>
												</labels>
											</clip>
											<clip id="masterclip-115" explodedTracks="true">
												<uuid>d4b38980-9af5-41f0-be69-7ecaf29eefef</uuid>
												<masterclipid>masterclip-115</masterclipid>
												<ismasterclip>TRUE</ismasterclip>
												<duration>444</duration>
												<rate>
													<timebase>30</timebase>
													<ntsc>FALSE</ntsc>
												</rate>
												<name>(hangryblogger)_CjHPMBXDTs2_IG.mp4</name>
												<media>
													<video>
														<track>
															<clipitem id="clipitem-784">
																<masterclipid>masterclip-115</masterclipid>
																<name>(hangryblogger)_CjHPMBXDTs2_IG.mp4</name>
																<rate>
																	<timebase>30</timebase>
																	<ntsc>FALSE</ntsc>
																</rate>
																<alphatype>none</alphatype>
																<file id="file-114"/>
																<link>
																	<linkclipref>clipitem-784</linkclipref>
																	<mediatype>video</mediatype>
																	<trackindex>1</trackindex>
																	<clipindex>1</clipindex>
																</link>
																<link>
																	<linkclipref>clipitem-785</linkclipref>
																	<mediatype>audio</mediatype>
																	<trackindex>1</trackindex>
																	<clipindex>1</clipindex>
																	<groupindex>1</groupindex>
																</link>
																<link>
																	<linkclipref>clipitem-786</linkclipref>
																	<mediatype>audio</mediatype>
																	<trackindex>2</trackindex>
																	<clipindex>1</clipindex>
																	<groupindex>1</groupindex>
																</link>
															</clipitem>
														</track>
													</video>
													<audio>
														<track>
															<clipitem id="clipitem-785">
																<masterclipid>masterclip-115</masterclipid>
																<name>(hangryblogger)_CjHPMBXDTs2_IG.mp4</name>
																<rate>
																	<timebase>30</timebase>
																	<ntsc>FALSE</ntsc>
																</rate>
																<file id="file-114"/>
																<sourcetrack>
																	<mediatype>audio</mediatype>
																	<trackindex>1</trackindex>
																</sourcetrack>
																<link>
																	<linkclipref>clipitem-784</linkclipref>
																	<mediatype>video</mediatype>
																	<trackindex>1</trackindex>
																	<clipindex>1</clipindex>
																</link>
																<link>
																	<linkclipref>clipitem-785</linkclipref>
																	<mediatype>audio</mediatype>
																	<trackindex>1</trackindex>
																	<clipindex>1</clipindex>
																	<groupindex>1</groupindex>
																</link>
																<link>
																	<linkclipref>clipitem-786</linkclipref>
																	<mediatype>audio</mediatype>
																	<trackindex>2</trackindex>
																	<clipindex>1</clipindex>
																	<groupindex>1</groupindex>
																</link>
															</clipitem>
														</track>
														<track>
															<clipitem id="clipitem-786">
																<masterclipid>masterclip-115</masterclipid>
																<name>(hangryblogger)_CjHPMBXDTs2_IG.mp4</name>
																<rate>
																	<timebase>30</timebase>
																	<ntsc>FALSE</ntsc>
																</rate>
																<file id="file-114"/>
																<sourcetrack>
																	<mediatype>audio</mediatype>
																	<trackindex>2</trackindex>
																</sourcetrack>
																<link>
																	<linkclipref>clipitem-784</linkclipref>
																	<mediatype>video</mediatype>
																	<trackindex>1</trackindex>
																	<clipindex>1</clipindex>
																</link>
																<link>
																	<linkclipref>clipitem-785</linkclipref>
																	<mediatype>audio</mediatype>
																	<trackindex>1</trackindex>
																	<clipindex>1</clipindex>
																	<groupindex>1</groupindex>
																</link>
																<link>
																	<linkclipref>clipitem-786</linkclipref>
																	<mediatype>audio</mediatype>
																	<trackindex>2</trackindex>
																	<clipindex>1</clipindex>
																	<groupindex>1</groupindex>
																</link>
															</clipitem>
														</track>
													</audio>
												</media>
												<logginginfo>
													<description></description>
													<scene></scene>
													<shottake></shottake>
													<lognote></lognote>
													<good></good>
													<originalvideofilename></originalvideofilename>
													<originalaudiofilename></originalaudiofilename>
												</logginginfo>
												<colorinfo>
													<lut></lut>
													<lut1></lut1>
													<asc_sop></asc_sop>
													<asc_sat></asc_sat>
													<lut2></lut2>
												</colorinfo>
												<labels>
													<label2>Iris</label2>
												</labels>
											</clip>
											<clip id="masterclip-116" explodedTracks="true">
												<uuid>4621327a-b630-4013-a32b-3266823b67cd</uuid>
												<masterclipid>masterclip-116</masterclipid>
												<ismasterclip>TRUE</ismasterclip>
												<duration>737</duration>
												<rate>
													<timebase>30</timebase>
													<ntsc>FALSE</ntsc>
												</rate>
												<name>(viviannecafe)_6982123489222200603_TT.mp4</name>
												<media>
													<video>
														<track>
															<clipitem id="clipitem-787">
																<masterclipid>masterclip-116</masterclipid>
																<name>(viviannecafe)_6982123489222200603_TT.mp4</name>
																<rate>
																	<timebase>30</timebase>
																	<ntsc>FALSE</ntsc>
																</rate>
																<alphatype>none</alphatype>
																<file id="file-115"/>
																<link>
																	<linkclipref>clipitem-787</linkclipref>
																	<mediatype>video</mediatype>
																	<trackindex>1</trackindex>
																	<clipindex>1</clipindex>
																</link>
																<link>
																	<linkclipref>clipitem-788</linkclipref>
																	<mediatype>audio</mediatype>
																	<trackindex>1</trackindex>
																	<clipindex>1</clipindex>
																	<groupindex>1</groupindex>
																</link>
																<link>
																	<linkclipref>clipitem-789</linkclipref>
																	<mediatype>audio</mediatype>
																	<trackindex>2</trackindex>
																	<clipindex>1</clipindex>
																	<groupindex>1</groupindex>
																</link>
															</clipitem>
														</track>
													</video>
													<audio>
														<track>
															<clipitem id="clipitem-788">
																<masterclipid>masterclip-116</masterclipid>
																<name>(viviannecafe)_6982123489222200603_TT.mp4</name>
																<rate>
																	<timebase>30</timebase>
																	<ntsc>FALSE</ntsc>
																</rate>
																<file id="file-115"/>
																<sourcetrack>
																	<mediatype>audio</mediatype>
																	<trackindex>1</trackindex>
																</sourcetrack>
																<link>
																	<linkclipref>clipitem-787</linkclipref>
																	<mediatype>video</mediatype>
																	<trackindex>1</trackindex>
																	<clipindex>1</clipindex>
																</link>
																<link>
																	<linkclipref>clipitem-788</linkclipref>
																	<mediatype>audio</mediatype>
																	<trackindex>1</trackindex>
																	<clipindex>1</clipindex>
																	<groupindex>1</groupindex>
																</link>
																<link>
																	<linkclipref>clipitem-789</linkclipref>
																	<mediatype>audio</mediatype>
																	<trackindex>2</trackindex>
																	<clipindex>1</clipindex>
																	<groupindex>1</groupindex>
																</link>
															</clipitem>
														</track>
														<track>
															<clipitem id="clipitem-789">
																<masterclipid>masterclip-116</masterclipid>
																<name>(viviannecafe)_6982123489222200603_TT.mp4</name>
																<rate>
																	<timebase>30</timebase>
																	<ntsc>FALSE</ntsc>
																</rate>
																<file id="file-115"/>
																<sourcetrack>
																	<mediatype>audio</mediatype>
																	<trackindex>2</trackindex>
																</sourcetrack>
																<link>
																	<linkclipref>clipitem-787</linkclipref>
																	<mediatype>video</mediatype>
																	<trackindex>1</trackindex>
																	<clipindex>1</clipindex>
																</link>
																<link>
																	<linkclipref>clipitem-788</linkclipref>
																	<mediatype>audio</mediatype>
																	<trackindex>1</trackindex>
																	<clipindex>1</clipindex>
																	<groupindex>1</groupindex>
																</link>
																<link>
																	<linkclipref>clipitem-789</linkclipref>
																	<mediatype>audio</mediatype>
																	<trackindex>2</trackindex>
																	<clipindex>1</clipindex>
																	<groupindex>1</groupindex>
																</link>
															</clipitem>
														</track>
													</audio>
												</media>
												<logginginfo>
													<description></description>
													<scene></scene>
													<shottake></shottake>
													<lognote></lognote>
													<good></good>
													<originalvideofilename></originalvideofilename>
													<originalaudiofilename></originalaudiofilename>
												</logginginfo>
												<colorinfo>
													<lut></lut>
													<lut1></lut1>
													<asc_sop></asc_sop>
													<asc_sat></asc_sat>
													<lut2></lut2>
												</colorinfo>
												<labels>
													<label2>Iris</label2>
												</labels>
											</clip>
										</children>
									</bin>
									<clip id="masterclip-144" explodedTracks="true">
										<uuid>78fd66a5-3c51-4e50-8ec2-332f15881afa</uuid>
										<masterclipid>masterclip-144</masterclipid>
										<ismasterclip>TRUE</ismasterclip>
										<duration>2793</duration>
										<rate>
											<timebase>30</timebase>
											<ntsc>TRUE</ntsc>
										</rate>
										<name>ART_THE_STING_1.5_CRAFTY.mp4</name>
										<media>
											<video>
												<track>
													<clipitem id="clipitem-790">
														<masterclipid>masterclip-144</masterclipid>
														<name>ART_THE_STING_1.5_CRAFTY.mp4</name>
														<rate>
															<timebase>30</timebase>
															<ntsc>TRUE</ntsc>
														</rate>
														<alphatype>none</alphatype>
														<file id="file-139"/>
														<link>
															<linkclipref>clipitem-790</linkclipref>
															<mediatype>video</mediatype>
															<trackindex>1</trackindex>
															<clipindex>1</clipindex>
														</link>
														<link>
															<linkclipref>clipitem-791</linkclipref>
															<mediatype>audio</mediatype>
															<trackindex>1</trackindex>
															<clipindex>1</clipindex>
															<groupindex>1</groupindex>
														</link>
														<link>
															<linkclipref>clipitem-792</linkclipref>
															<mediatype>audio</mediatype>
															<trackindex>2</trackindex>
															<clipindex>1</clipindex>
															<groupindex>1</groupindex>
														</link>
													</clipitem>
												</track>
											</video>
											<audio>
												<track>
													<clipitem id="clipitem-791">
														<masterclipid>masterclip-144</masterclipid>
														<name>ART_THE_STING_1.5_CRAFTY.mp4</name>
														<rate>
															<timebase>30</timebase>
															<ntsc>TRUE</ntsc>
														</rate>
														<file id="file-139"/>
														<sourcetrack>
															<mediatype>audio</mediatype>
															<trackindex>1</trackindex>
														</sourcetrack>
														<link>
															<linkclipref>clipitem-790</linkclipref>
															<mediatype>video</mediatype>
															<trackindex>1</trackindex>
															<clipindex>1</clipindex>
														</link>
														<link>
															<linkclipref>clipitem-791</linkclipref>
															<mediatype>audio</mediatype>
															<trackindex>1</trackindex>
															<clipindex>1</clipindex>
															<groupindex>1</groupindex>
														</link>
														<link>
															<linkclipref>clipitem-792</linkclipref>
															<mediatype>audio</mediatype>
															<trackindex>2</trackindex>
															<clipindex>1</clipindex>
															<groupindex>1</groupindex>
														</link>
													</clipitem>
												</track>
												<track>
													<clipitem id="clipitem-792">
														<masterclipid>masterclip-144</masterclipid>
														<name>ART_THE_STING_1.5_CRAFTY.mp4</name>
														<rate>
															<timebase>30</timebase>
															<ntsc>TRUE</ntsc>
														</rate>
														<file id="file-139"/>
														<sourcetrack>
															<mediatype>audio</mediatype>
															<trackindex>2</trackindex>
														</sourcetrack>
														<link>
															<linkclipref>clipitem-790</linkclipref>
															<mediatype>video</mediatype>
															<trackindex>1</trackindex>
															<clipindex>1</clipindex>
														</link>
														<link>
															<linkclipref>clipitem-791</linkclipref>
															<mediatype>audio</mediatype>
															<trackindex>1</trackindex>
															<clipindex>1</clipindex>
															<groupindex>1</groupindex>
														</link>
														<link>
															<linkclipref>clipitem-792</linkclipref>
															<mediatype>audio</mediatype>
															<trackindex>2</trackindex>
															<clipindex>1</clipindex>
															<groupindex>1</groupindex>
														</link>
													</clipitem>
												</track>
											</audio>
										</media>
										<logginginfo>
											<description></description>
											<scene></scene>
											<shottake></shottake>
											<lognote></lognote>
											<good></good>
											<originalvideofilename></originalvideofilename>
											<originalaudiofilename></originalaudiofilename>
										</logginginfo>
										<colorinfo>
											<lut></lut>
											<lut1></lut1>
											<asc_sop></asc_sop>
											<asc_sat></asc_sat>
											<lut2></lut2>
										</colorinfo>
										<labels>
											<label2>Iris</label2>
										</labels>
									</clip>
									<clip id="masterclip-145" explodedTracks="true">
										<uuid>8e2d48f0-2e06-464f-9321-fbbf249841ee</uuid>
										<masterclipid>masterclip-145</masterclipid>
										<ismasterclip>TRUE</ismasterclip>
										<duration>21386</duration>
										<rate>
											<timebase>30</timebase>
											<ntsc>FALSE</ntsc>
										</rate>
										<name>SLIME SHOP RESTOCK! OCT 19 @SQUISHYBUNNII (1080p_30fps_H264-128kbit_AAC)_Squishybunnii.mp4</name>
										<media>
											<video>
												<track>
													<clipitem id="clipitem-793">
														<masterclipid>masterclip-145</masterclipid>
														<name>SLIME SHOP RESTOCK! OCT 19 @SQUISHYBUNNII (1080p_30fps_H264-128kbit_AAC)_Squishybunnii.mp4</name>
														<rate>
															<timebase>30</timebase>
															<ntsc>FALSE</ntsc>
														</rate>
														<alphatype>none</alphatype>
														<file id="file-140"/>
														<link>
															<linkclipref>clipitem-793</linkclipref>
															<mediatype>video</mediatype>
															<trackindex>1</trackindex>
															<clipindex>1</clipindex>
														</link>
														<link>
															<linkclipref>clipitem-794</linkclipref>
															<mediatype>audio</mediatype>
															<trackindex>1</trackindex>
															<clipindex>1</clipindex>
															<groupindex>1</groupindex>
														</link>
														<link>
															<linkclipref>clipitem-795</linkclipref>
															<mediatype>audio</mediatype>
															<trackindex>2</trackindex>
															<clipindex>1</clipindex>
															<groupindex>1</groupindex>
														</link>
													</clipitem>
												</track>
											</video>
											<audio>
												<track>
													<clipitem id="clipitem-794">
														<masterclipid>masterclip-145</masterclipid>
														<name>SLIME SHOP RESTOCK! OCT 19 @SQUISHYBUNNII (1080p_30fps_H264-128kbit_AAC)_Squishybunnii.mp4</name>
														<rate>
															<timebase>30</timebase>
															<ntsc>FALSE</ntsc>
														</rate>
														<file id="file-140"/>
														<sourcetrack>
															<mediatype>audio</mediatype>
															<trackindex>1</trackindex>
														</sourcetrack>
														<link>
															<linkclipref>clipitem-793</linkclipref>
															<mediatype>video</mediatype>
															<trackindex>1</trackindex>
															<clipindex>1</clipindex>
														</link>
														<link>
															<linkclipref>clipitem-794</linkclipref>
															<mediatype>audio</mediatype>
															<trackindex>1</trackindex>
															<clipindex>1</clipindex>
															<groupindex>1</groupindex>
														</link>
														<link>
															<linkclipref>clipitem-795</linkclipref>
															<mediatype>audio</mediatype>
															<trackindex>2</trackindex>
															<clipindex>1</clipindex>
															<groupindex>1</groupindex>
														</link>
													</clipitem>
												</track>
												<track>
													<clipitem id="clipitem-795">
														<masterclipid>masterclip-145</masterclipid>
														<name>SLIME SHOP RESTOCK! OCT 19 @SQUISHYBUNNII (1080p_30fps_H264-128kbit_AAC)_Squishybunnii.mp4</name>
														<rate>
															<timebase>30</timebase>
															<ntsc>FALSE</ntsc>
														</rate>
														<file id="file-140"/>
														<sourcetrack>
															<mediatype>audio</mediatype>
															<trackindex>2</trackindex>
														</sourcetrack>
														<link>
															<linkclipref>clipitem-793</linkclipref>
															<mediatype>video</mediatype>
															<trackindex>1</trackindex>
															<clipindex>1</clipindex>
														</link>
														<link>
															<linkclipref>clipitem-794</linkclipref>
															<mediatype>audio</mediatype>
															<trackindex>1</trackindex>
															<clipindex>1</clipindex>
															<groupindex>1</groupindex>
														</link>
														<link>
															<linkclipref>clipitem-795</linkclipref>
															<mediatype>audio</mediatype>
															<trackindex>2</trackindex>
															<clipindex>1</clipindex>
															<groupindex>1</groupindex>
														</link>
													</clipitem>
												</track>
											</audio>
										</media>
										<logginginfo>
											<description></description>
											<scene></scene>
											<shottake></shottake>
											<lognote>https://www.youtube.com/watch?v=JPeFQObgq54</lognote>
											<good></good>
											<originalvideofilename></originalvideofilename>
											<originalaudiofilename></originalaudiofilename>
										</logginginfo>
										<colorinfo>
											<lut></lut>
											<lut1></lut1>
											<asc_sop></asc_sop>
											<asc_sat></asc_sat>
											<lut2></lut2>
										</colorinfo>
										<labels>
											<label2>Iris</label2>
										</labels>
									</clip>
									<clip id="masterclip-152" explodedTracks="true">
										<uuid>8d573dea-eb11-4f17-ad23-1b88532c7d50</uuid>
										<masterclipid>masterclip-152</masterclipid>
										<ismasterclip>TRUE</ismasterclip>
										<duration>31691</duration>
										<rate>
											<timebase>60</timebase>
											<ntsc>TRUE</ntsc>
										</rate>
										<name>(Sand Tagious)_Best of Satisfying Drop Squish Kinetic Sand ASMR 2023_zflX9k-35qM_YT.mp4</name>
										<media>
											<video>
												<track>
													<clipitem id="clipitem-796">
														<masterclipid>masterclip-152</masterclipid>
														<name>(Sand Tagious)_Best of Satisfying Drop Squish Kinetic Sand ASMR 2023_zflX9k-35qM_YT.mp4</name>
														<rate>
															<timebase>60</timebase>
															<ntsc>TRUE</ntsc>
														</rate>
														<alphatype>none</alphatype>
														<file id="file-147"/>
														<link>
															<linkclipref>clipitem-796</linkclipref>
															<mediatype>video</mediatype>
															<trackindex>1</trackindex>
															<clipindex>1</clipindex>
														</link>
														<link>
															<linkclipref>clipitem-797</linkclipref>
															<mediatype>audio</mediatype>
															<trackindex>1</trackindex>
															<clipindex>1</clipindex>
															<groupindex>1</groupindex>
														</link>
														<link>
															<linkclipref>clipitem-798</linkclipref>
															<mediatype>audio</mediatype>
															<trackindex>2</trackindex>
															<clipindex>1</clipindex>
															<groupindex>1</groupindex>
														</link>
													</clipitem>
												</track>
											</video>
											<audio>
												<track>
													<clipitem id="clipitem-797">
														<masterclipid>masterclip-152</masterclipid>
														<name>(Sand Tagious)_Best of Satisfying Drop Squish Kinetic Sand ASMR 2023_zflX9k-35qM_YT.mp4</name>
														<rate>
															<timebase>60</timebase>
															<ntsc>TRUE</ntsc>
														</rate>
														<file id="file-147"/>
														<sourcetrack>
															<mediatype>audio</mediatype>
															<trackindex>1</trackindex>
														</sourcetrack>
														<link>
															<linkclipref>clipitem-796</linkclipref>
															<mediatype>video</mediatype>
															<trackindex>1</trackindex>
															<clipindex>1</clipindex>
														</link>
														<link>
															<linkclipref>clipitem-797</linkclipref>
															<mediatype>audio</mediatype>
															<trackindex>1</trackindex>
															<clipindex>1</clipindex>
															<groupindex>1</groupindex>
														</link>
														<link>
															<linkclipref>clipitem-798</linkclipref>
															<mediatype>audio</mediatype>
															<trackindex>2</trackindex>
															<clipindex>1</clipindex>
															<groupindex>1</groupindex>
														</link>
													</clipitem>
												</track>
												<track>
													<clipitem id="clipitem-798">
														<masterclipid>masterclip-152</masterclipid>
														<name>(Sand Tagious)_Best of Satisfying Drop Squish Kinetic Sand ASMR 2023_zflX9k-35qM_YT.mp4</name>
														<rate>
															<timebase>60</timebase>
															<ntsc>TRUE</ntsc>
														</rate>
														<file id="file-147"/>
														<sourcetrack>
															<mediatype>audio</mediatype>
															<trackindex>2</trackindex>
														</sourcetrack>
														<link>
															<linkclipref>clipitem-796</linkclipref>
															<mediatype>video</mediatype>
															<trackindex>1</trackindex>
															<clipindex>1</clipindex>
														</link>
														<link>
															<linkclipref>clipitem-797</linkclipref>
															<mediatype>audio</mediatype>
															<trackindex>1</trackindex>
															<clipindex>1</clipindex>
															<groupindex>1</groupindex>
														</link>
														<link>
															<linkclipref>clipitem-798</linkclipref>
															<mediatype>audio</mediatype>
															<trackindex>2</trackindex>
															<clipindex>1</clipindex>
															<groupindex>1</groupindex>
														</link>
													</clipitem>
												</track>
											</audio>
										</media>
										<logginginfo>
											<description></description>
											<scene></scene>
											<shottake></shottake>
											<lognote>https://www.youtube.com/watch?v=zflX9k-35qM</lognote>
											<good></good>
											<originalvideofilename></originalvideofilename>
											<originalaudiofilename></originalaudiofilename>
										</logginginfo>
										<colorinfo>
											<lut></lut>
											<lut1></lut1>
											<asc_sop></asc_sop>
											<asc_sat></asc_sat>
											<lut2></lut2>
										</colorinfo>
										<labels>
											<label2>Iris</label2>
										</labels>
									</clip>
									<clip id="masterclip-153" explodedTracks="true">
										<uuid>a4f42c5c-cc46-471e-be85-11840c3ef9f3</uuid>
										<masterclipid>masterclip-153</masterclipid>
										<ismasterclip>TRUE</ismasterclip>
										<duration>6846</duration>
										<rate>
											<timebase>23</timebase>
											<ntsc>FALSE</ntsc>
										</rate>
										<name>Cardistry ASMR 3   More Captivating Card-Shuffling_@Rise Magic.mp4</name>
										<media>
											<video>
												<track>
													<clipitem id="clipitem-799">
														<masterclipid>masterclip-153</masterclipid>
														<name>Cardistry ASMR 3   More Captivating Card-Shuffling_@Rise Magic.mp4</name>
														<rate>
															<timebase>23</timebase>
															<ntsc>FALSE</ntsc>
														</rate>
														<alphatype>none</alphatype>
														<file id="file-148"/>
														<link>
															<linkclipref>clipitem-799</linkclipref>
															<mediatype>video</mediatype>
															<trackindex>1</trackindex>
															<clipindex>1</clipindex>
														</link>
														<link>
															<linkclipref>clipitem-800</linkclipref>
															<mediatype>audio</mediatype>
															<trackindex>1</trackindex>
															<clipindex>1</clipindex>
															<groupindex>1</groupindex>
														</link>
														<link>
															<linkclipref>clipitem-801</linkclipref>
															<mediatype>audio</mediatype>
															<trackindex>2</trackindex>
															<clipindex>1</clipindex>
															<groupindex>1</groupindex>
														</link>
													</clipitem>
												</track>
											</video>
											<audio>
												<track>
													<clipitem id="clipitem-800">
														<masterclipid>masterclip-153</masterclipid>
														<name>Cardistry ASMR 3   More Captivating Card-Shuffling_@Rise Magic.mp4</name>
														<rate>
															<timebase>23</timebase>
															<ntsc>FALSE</ntsc>
														</rate>
														<file id="file-148"/>
														<sourcetrack>
															<mediatype>audio</mediatype>
															<trackindex>1</trackindex>
														</sourcetrack>
														<link>
															<linkclipref>clipitem-799</linkclipref>
															<mediatype>video</mediatype>
															<trackindex>1</trackindex>
															<clipindex>1</clipindex>
														</link>
														<link>
															<linkclipref>clipitem-800</linkclipref>
															<mediatype>audio</mediatype>
															<trackindex>1</trackindex>
															<clipindex>1</clipindex>
															<groupindex>1</groupindex>
														</link>
														<link>
															<linkclipref>clipitem-801</linkclipref>
															<mediatype>audio</mediatype>
															<trackindex>2</trackindex>
															<clipindex>1</clipindex>
															<groupindex>1</groupindex>
														</link>
													</clipitem>
												</track>
												<track>
													<clipitem id="clipitem-801">
														<masterclipid>masterclip-153</masterclipid>
														<name>Cardistry ASMR 3   More Captivating Card-Shuffling_@Rise Magic.mp4</name>
														<rate>
															<timebase>23</timebase>
															<ntsc>FALSE</ntsc>
														</rate>
														<file id="file-148"/>
														<sourcetrack>
															<mediatype>audio</mediatype>
															<trackindex>2</trackindex>
														</sourcetrack>
														<link>
															<linkclipref>clipitem-799</linkclipref>
															<mediatype>video</mediatype>
															<trackindex>1</trackindex>
															<clipindex>1</clipindex>
														</link>
														<link>
															<linkclipref>clipitem-800</linkclipref>
															<mediatype>audio</mediatype>
															<trackindex>1</trackindex>
															<clipindex>1</clipindex>
															<groupindex>1</groupindex>
														</link>
														<link>
															<linkclipref>clipitem-801</linkclipref>
															<mediatype>audio</mediatype>
															<trackindex>2</trackindex>
															<clipindex>1</clipindex>
															<groupindex>1</groupindex>
														</link>
													</clipitem>
												</track>
											</audio>
										</media>
										<logginginfo>
											<description></description>
											<scene></scene>
											<shottake></shottake>
											<lognote></lognote>
											<good></good>
											<originalvideofilename></originalvideofilename>
											<originalaudiofilename></originalaudiofilename>
										</logginginfo>
										<colorinfo>
											<lut></lut>
											<lut1></lut1>
											<asc_sop></asc_sop>
											<asc_sat></asc_sat>
											<lut2></lut2>
										</colorinfo>
										<labels>
											<label2>Iris</label2>
										</labels>
									</clip>
									<clip id="masterclip-160" explodedTracks="true">
										<uuid>a266df89-5d0f-4a87-9679-3bd591bd1cea</uuid>
										<masterclipid>masterclip-160</masterclipid>
										<ismasterclip>TRUE</ismasterclip>
										<duration>166797</duration>
										<rate>
											<timebase>60</timebase>
											<ntsc>TRUE</ntsc>
										</rate>
										<name>(Hanabira工房)_DIY☺︎埃を被ったシルバニアの家を買ったので綺麗にしたい。のと最後に【重大発表】があります。_cGsBZHwIcaU_YT.mp4</name>
										<media>
											<video>
												<track>
													<clipitem id="clipitem-802">
														<masterclipid>masterclip-160</masterclipid>
														<name>(Hanabira工房)_DIY☺︎埃を被ったシルバニアの家を買ったので綺麗にしたい。のと最後に【重大発表】があります。_cGsBZHwIcaU_YT.mp4</name>
														<rate>
															<timebase>60</timebase>
															<ntsc>TRUE</ntsc>
														</rate>
														<alphatype>none</alphatype>
														<file id="file-155"/>
														<link>
															<linkclipref>clipitem-802</linkclipref>
															<mediatype>video</mediatype>
															<trackindex>1</trackindex>
															<clipindex>1</clipindex>
														</link>
														<link>
															<linkclipref>clipitem-803</linkclipref>
															<mediatype>audio</mediatype>
															<trackindex>1</trackindex>
															<clipindex>1</clipindex>
															<groupindex>1</groupindex>
														</link>
														<link>
															<linkclipref>clipitem-804</linkclipref>
															<mediatype>audio</mediatype>
															<trackindex>2</trackindex>
															<clipindex>1</clipindex>
															<groupindex>1</groupindex>
														</link>
													</clipitem>
												</track>
											</video>
											<audio>
												<track>
													<clipitem id="clipitem-803">
														<masterclipid>masterclip-160</masterclipid>
														<name>(Hanabira工房)_DIY☺︎埃を被ったシルバニアの家を買ったので綺麗にしたい。のと最後に【重大発表】があります。_cGsBZHwIcaU_YT.mp4</name>
														<rate>
															<timebase>60</timebase>
															<ntsc>TRUE</ntsc>
														</rate>
														<file id="file-155"/>
														<sourcetrack>
															<mediatype>audio</mediatype>
															<trackindex>1</trackindex>
														</sourcetrack>
														<link>
															<linkclipref>clipitem-802</linkclipref>
															<mediatype>video</mediatype>
															<trackindex>1</trackindex>
															<clipindex>1</clipindex>
														</link>
														<link>
															<linkclipref>clipitem-803</linkclipref>
															<mediatype>audio</mediatype>
															<trackindex>1</trackindex>
															<clipindex>1</clipindex>
															<groupindex>1</groupindex>
														</link>
														<link>
															<linkclipref>clipitem-804</linkclipref>
															<mediatype>audio</mediatype>
															<trackindex>2</trackindex>
															<clipindex>1</clipindex>
															<groupindex>1</groupindex>
														</link>
													</clipitem>
												</track>
												<track>
													<clipitem id="clipitem-804">
														<masterclipid>masterclip-160</masterclipid>
														<name>(Hanabira工房)_DIY☺︎埃を被ったシルバニアの家を買ったので綺麗にしたい。のと最後に【重大発表】があります。_cGsBZHwIcaU_YT.mp4</name>
														<rate>
															<timebase>60</timebase>
															<ntsc>TRUE</ntsc>
														</rate>
														<file id="file-155"/>
														<sourcetrack>
															<mediatype>audio</mediatype>
															<trackindex>2</trackindex>
														</sourcetrack>
														<link>
															<linkclipref>clipitem-802</linkclipref>
															<mediatype>video</mediatype>
															<trackindex>1</trackindex>
															<clipindex>1</clipindex>
														</link>
														<link>
															<linkclipref>clipitem-803</linkclipref>
															<mediatype>audio</mediatype>
															<trackindex>1</trackindex>
															<clipindex>1</clipindex>
															<groupindex>1</groupindex>
														</link>
														<link>
															<linkclipref>clipitem-804</linkclipref>
															<mediatype>audio</mediatype>
															<trackindex>2</trackindex>
															<clipindex>1</clipindex>
															<groupindex>1</groupindex>
														</link>
													</clipitem>
												</track>
											</audio>
										</media>
										<logginginfo>
											<description></description>
											<scene></scene>
											<shottake></shottake>
											<lognote>https://www.youtube.com/watch?v=cGsBZHwIcaU</lognote>
											<good></good>
											<originalvideofilename></originalvideofilename>
											<originalaudiofilename></originalaudiofilename>
										</logginginfo>
										<colorinfo>
											<lut></lut>
											<lut1></lut1>
											<asc_sop></asc_sop>
											<asc_sat></asc_sat>
											<lut2></lut2>
										</colorinfo>
										<labels>
											<label2>Iris</label2>
										</labels>
									</clip>
									<clip id="masterclip-161" explodedTracks="true">
										<uuid>86e124a4-4a43-4730-9ffa-803d7e32cd79</uuid>
										<masterclipid>masterclip-161</masterclipid>
										<ismasterclip>TRUE</ismasterclip>
										<duration>14016</duration>
										<rate>
											<timebase>24</timebase>
											<ntsc>TRUE</ntsc>
										</rate>
										<name>Forging Viking style Arrowheads (forgewelded) (1080p_24fps_H264-128kbit_AAC)_@Asoberra YT.mp4</name>
										<media>
											<video>
												<track>
													<clipitem id="clipitem-805">
														<masterclipid>masterclip-161</masterclipid>
														<name>Forging Viking style Arrowheads (forgewelded) (1080p_24fps_H264-128kbit_AAC)_@Asoberra YT.mp4</name>
														<rate>
															<timebase>24</timebase>
															<ntsc>TRUE</ntsc>
														</rate>
														<alphatype>none</alphatype>
														<file id="file-156"/>
														<link>
															<linkclipref>clipitem-805</linkclipref>
															<mediatype>video</mediatype>
															<trackindex>1</trackindex>
															<clipindex>1</clipindex>
														</link>
														<link>
															<linkclipref>clipitem-806</linkclipref>
															<mediatype>audio</mediatype>
															<trackindex>1</trackindex>
															<clipindex>1</clipindex>
															<groupindex>1</groupindex>
														</link>
														<link>
															<linkclipref>clipitem-807</linkclipref>
															<mediatype>audio</mediatype>
															<trackindex>2</trackindex>
															<clipindex>1</clipindex>
															<groupindex>1</groupindex>
														</link>
													</clipitem>
												</track>
											</video>
											<audio>
												<track>
													<clipitem id="clipitem-806">
														<masterclipid>masterclip-161</masterclipid>
														<name>Forging Viking style Arrowheads (forgewelded) (1080p_24fps_H264-128kbit_AAC)_@Asoberra YT.mp4</name>
														<rate>
															<timebase>24</timebase>
															<ntsc>TRUE</ntsc>
														</rate>
														<file id="file-156"/>
														<sourcetrack>
															<mediatype>audio</mediatype>
															<trackindex>1</trackindex>
														</sourcetrack>
														<link>
															<linkclipref>clipitem-805</linkclipref>
															<mediatype>video</mediatype>
															<trackindex>1</trackindex>
															<clipindex>1</clipindex>
														</link>
														<link>
															<linkclipref>clipitem-806</linkclipref>
															<mediatype>audio</mediatype>
															<trackindex>1</trackindex>
															<clipindex>1</clipindex>
															<groupindex>1</groupindex>
														</link>
														<link>
															<linkclipref>clipitem-807</linkclipref>
															<mediatype>audio</mediatype>
															<trackindex>2</trackindex>
															<clipindex>1</clipindex>
															<groupindex>1</groupindex>
														</link>
													</clipitem>
												</track>
												<track>
													<clipitem id="clipitem-807">
														<masterclipid>masterclip-161</masterclipid>
														<name>Forging Viking style Arrowheads (forgewelded) (1080p_24fps_H264-128kbit_AAC)_@Asoberra YT.mp4</name>
														<rate>
															<timebase>24</timebase>
															<ntsc>TRUE</ntsc>
														</rate>
														<file id="file-156"/>
														<sourcetrack>
															<mediatype>audio</mediatype>
															<trackindex>2</trackindex>
														</sourcetrack>
														<link>
															<linkclipref>clipitem-805</linkclipref>
															<mediatype>video</mediatype>
															<trackindex>1</trackindex>
															<clipindex>1</clipindex>
														</link>
														<link>
															<linkclipref>clipitem-806</linkclipref>
															<mediatype>audio</mediatype>
															<trackindex>1</trackindex>
															<clipindex>1</clipindex>
															<groupindex>1</groupindex>
														</link>
														<link>
															<linkclipref>clipitem-807</linkclipref>
															<mediatype>audio</mediatype>
															<trackindex>2</trackindex>
															<clipindex>1</clipindex>
															<groupindex>1</groupindex>
														</link>
													</clipitem>
												</track>
											</audio>
										</media>
										<logginginfo>
											<description></description>
											<scene></scene>
											<shottake></shottake>
											<lognote>https://www.youtube.com/watch?v=M7VLs_Q4jKg</lognote>
											<good></good>
											<originalvideofilename></originalvideofilename>
											<originalaudiofilename></originalaudiofilename>
										</logginginfo>
										<colorinfo>
											<lut></lut>
											<lut1></lut1>
											<asc_sop></asc_sop>
											<asc_sat></asc_sat>
											<lut2></lut2>
										</colorinfo>
										<labels>
											<label2>Iris</label2>
										</labels>
									</clip>
									<clip id="masterclip-162" explodedTracks="true">
										<uuid>127e8139-cab5-4185-92ef-a96f647c9aa2</uuid>
										<masterclipid>masterclip-162</masterclipid>
										<ismasterclip>TRUE</ismasterclip>
										<duration>39939</duration>
										<rate>
											<timebase>60</timebase>
											<ntsc>FALSE</ntsc>
										</rate>
										<name>(Asmr Soap Startseva)_Asmr cutting painted soap _ Резка Сухого Мыла #asmrsoap_oHZJmNv_Rz0_YT.mp4</name>
										<media>
											<video>
												<track>
													<clipitem id="clipitem-808">
														<masterclipid>masterclip-162</masterclipid>
														<name>(Asmr Soap Startseva)_Asmr cutting painted soap _ Резка Сухого Мыла #asmrsoap_oHZJmNv_Rz0_YT.mp4</name>
														<rate>
															<timebase>60</timebase>
															<ntsc>FALSE</ntsc>
														</rate>
														<alphatype>none</alphatype>
														<file id="file-157"/>
														<link>
															<linkclipref>clipitem-808</linkclipref>
															<mediatype>video</mediatype>
															<trackindex>1</trackindex>
															<clipindex>1</clipindex>
														</link>
														<link>
															<linkclipref>clipitem-809</linkclipref>
															<mediatype>audio</mediatype>
															<trackindex>1</trackindex>
															<clipindex>1</clipindex>
															<groupindex>1</groupindex>
														</link>
														<link>
															<linkclipref>clipitem-810</linkclipref>
															<mediatype>audio</mediatype>
															<trackindex>2</trackindex>
															<clipindex>1</clipindex>
															<groupindex>1</groupindex>
														</link>
													</clipitem>
												</track>
											</video>
											<audio>
												<track>
													<clipitem id="clipitem-809">
														<masterclipid>masterclip-162</masterclipid>
														<name>(Asmr Soap Startseva)_Asmr cutting painted soap _ Резка Сухого Мыла #asmrsoap_oHZJmNv_Rz0_YT.mp4</name>
														<rate>
															<timebase>60</timebase>
															<ntsc>FALSE</ntsc>
														</rate>
														<file id="file-157"/>
														<sourcetrack>
															<mediatype>audio</mediatype>
															<trackindex>1</trackindex>
														</sourcetrack>
														<link>
															<linkclipref>clipitem-808</linkclipref>
															<mediatype>video</mediatype>
															<trackindex>1</trackindex>
															<clipindex>1</clipindex>
														</link>
														<link>
															<linkclipref>clipitem-809</linkclipref>
															<mediatype>audio</mediatype>
															<trackindex>1</trackindex>
															<clipindex>1</clipindex>
															<groupindex>1</groupindex>
														</link>
														<link>
															<linkclipref>clipitem-810</linkclipref>
															<mediatype>audio</mediatype>
															<trackindex>2</trackindex>
															<clipindex>1</clipindex>
															<groupindex>1</groupindex>
														</link>
													</clipitem>
												</track>
												<track>
													<clipitem id="clipitem-810">
														<masterclipid>masterclip-162</masterclipid>
														<name>(Asmr Soap Startseva)_Asmr cutting painted soap _ Резка Сухого Мыла #asmrsoap_oHZJmNv_Rz0_YT.mp4</name>
														<rate>
															<timebase>60</timebase>
															<ntsc>FALSE</ntsc>
														</rate>
														<file id="file-157"/>
														<sourcetrack>
															<mediatype>audio</mediatype>
															<trackindex>2</trackindex>
														</sourcetrack>
														<link>
															<linkclipref>clipitem-808</linkclipref>
															<mediatype>video</mediatype>
															<trackindex>1</trackindex>
															<clipindex>1</clipindex>
														</link>
														<link>
															<linkclipref>clipitem-809</linkclipref>
															<mediatype>audio</mediatype>
															<trackindex>1</trackindex>
															<clipindex>1</clipindex>
															<groupindex>1</groupindex>
														</link>
														<link>
															<linkclipref>clipitem-810</linkclipref>
															<mediatype>audio</mediatype>
															<trackindex>2</trackindex>
															<clipindex>1</clipindex>
															<groupindex>1</groupindex>
														</link>
													</clipitem>
												</track>
											</audio>
										</media>
										<logginginfo>
											<description></description>
											<scene></scene>
											<shottake></shottake>
											<lognote>https://www.youtube.com/watch?v=oHZJmNv_Rz0</lognote>
											<good></good>
											<originalvideofilename></originalvideofilename>
											<originalaudiofilename></originalaudiofilename>
										</logginginfo>
										<colorinfo>
											<lut></lut>
											<lut1></lut1>
											<asc_sop></asc_sop>
											<asc_sat></asc_sat>
											<lut2></lut2>
										</colorinfo>
										<labels>
											<label2>Iris</label2>
										</labels>
									</clip>
									<clip id="masterclip-117" explodedTracks="true">
										<uuid>bf0019f7-ed08-4264-a53b-716c3bdceac7</uuid>
										<masterclipid>masterclip-117</masterclipid>
										<ismasterclip>TRUE</ismasterclip>
										<duration>3152</duration>
										<rate>
											<timebase>30</timebase>
											<ntsc>TRUE</ntsc>
										</rate>
										<name>ART_OILPAINTEXPERTS_2_CRAFTY.mp4</name>
										<media>
											<video>
												<track>
													<clipitem id="clipitem-811">
														<masterclipid>masterclip-117</masterclipid>
														<name>ART_OILPAINTEXPERTS_2_CRAFTY.mp4</name>
														<rate>
															<timebase>30</timebase>
															<ntsc>TRUE</ntsc>
														</rate>
														<alphatype>none</alphatype>
														<file id="file-116"/>
														<link>
															<linkclipref>clipitem-811</linkclipref>
															<mediatype>video</mediatype>
															<trackindex>1</trackindex>
															<clipindex>1</clipindex>
														</link>
														<link>
															<linkclipref>clipitem-812</linkclipref>
															<mediatype>audio</mediatype>
															<trackindex>1</trackindex>
															<clipindex>1</clipindex>
															<groupindex>1</groupindex>
														</link>
														<link>
															<linkclipref>clipitem-813</linkclipref>
															<mediatype>audio</mediatype>
															<trackindex>2</trackindex>
															<clipindex>1</clipindex>
															<groupindex>1</groupindex>
														</link>
													</clipitem>
												</track>
											</video>
											<audio>
												<track>
													<clipitem id="clipitem-812">
														<masterclipid>masterclip-117</masterclipid>
														<name>ART_OILPAINTEXPERTS_2_CRAFTY.mp4</name>
														<rate>
															<timebase>30</timebase>
															<ntsc>TRUE</ntsc>
														</rate>
														<file id="file-116"/>
														<sourcetrack>
															<mediatype>audio</mediatype>
															<trackindex>1</trackindex>
														</sourcetrack>
														<link>
															<linkclipref>clipitem-811</linkclipref>
															<mediatype>video</mediatype>
															<trackindex>1</trackindex>
															<clipindex>1</clipindex>
														</link>
														<link>
															<linkclipref>clipitem-812</linkclipref>
															<mediatype>audio</mediatype>
															<trackindex>1</trackindex>
															<clipindex>1</clipindex>
															<groupindex>1</groupindex>
														</link>
														<link>
															<linkclipref>clipitem-813</linkclipref>
															<mediatype>audio</mediatype>
															<trackindex>2</trackindex>
															<clipindex>1</clipindex>
															<groupindex>1</groupindex>
														</link>
													</clipitem>
												</track>
												<track>
													<clipitem id="clipitem-813">
														<masterclipid>masterclip-117</masterclipid>
														<name>ART_OILPAINTEXPERTS_2_CRAFTY.mp4</name>
														<rate>
															<timebase>30</timebase>
															<ntsc>TRUE</ntsc>
														</rate>
														<file id="file-116"/>
														<sourcetrack>
															<mediatype>audio</mediatype>
															<trackindex>2</trackindex>
														</sourcetrack>
														<link>
															<linkclipref>clipitem-811</linkclipref>
															<mediatype>video</mediatype>
															<trackindex>1</trackindex>
															<clipindex>1</clipindex>
														</link>
														<link>
															<linkclipref>clipitem-812</linkclipref>
															<mediatype>audio</mediatype>
															<trackindex>1</trackindex>
															<clipindex>1</clipindex>
															<groupindex>1</groupindex>
														</link>
														<link>
															<linkclipref>clipitem-813</linkclipref>
															<mediatype>audio</mediatype>
															<trackindex>2</trackindex>
															<clipindex>1</clipindex>
															<groupindex>1</groupindex>
														</link>
													</clipitem>
												</track>
											</audio>
										</media>
										<logginginfo>
											<description></description>
											<scene></scene>
											<shottake></shottake>
											<lognote></lognote>
											<good></good>
											<originalvideofilename></originalvideofilename>
											<originalaudiofilename></originalaudiofilename>
										</logginginfo>
										<colorinfo>
											<lut></lut>
											<lut1></lut1>
											<asc_sop></asc_sop>
											<asc_sat></asc_sat>
											<lut2></lut2>
										</colorinfo>
										<labels>
											<label2>Iris</label2>
										</labels>
									</clip>
									<clip id="masterclip-164" explodedTracks="true">
										<uuid>25e25168-652b-4168-a0e2-a109d2785105</uuid>
										<masterclipid>masterclip-164</masterclipid>
										<ismasterclip>TRUE</ismasterclip>
										<duration>24583</duration>
										<rate>
											<timebase>25</timebase>
											<ntsc>FALSE</ntsc>
										</rate>
										<name>(wAw Creator)_I made the epic battle against saddler in resident evil_hsYOIn8UH2k_YT.mp4</name>
										<media>
											<video>
												<track>
													<clipitem id="clipitem-814">
														<masterclipid>masterclip-164</masterclipid>
														<name>(wAw Creator)_I made the epic battle against saddler in resident evil_hsYOIn8UH2k_YT.mp4</name>
														<rate>
															<timebase>25</timebase>
															<ntsc>FALSE</ntsc>
														</rate>
														<alphatype>none</alphatype>
														<file id="file-158"/>
														<link>
															<linkclipref>clipitem-814</linkclipref>
															<mediatype>video</mediatype>
															<trackindex>1</trackindex>
															<clipindex>1</clipindex>
														</link>
														<link>
															<linkclipref>clipitem-815</linkclipref>
															<mediatype>audio</mediatype>
															<trackindex>1</trackindex>
															<clipindex>1</clipindex>
															<groupindex>1</groupindex>
														</link>
														<link>
															<linkclipref>clipitem-816</linkclipref>
															<mediatype>audio</mediatype>
															<trackindex>2</trackindex>
															<clipindex>1</clipindex>
															<groupindex>1</groupindex>
														</link>
													</clipitem>
												</track>
											</video>
											<audio>
												<track>
													<clipitem id="clipitem-815">
														<masterclipid>masterclip-164</masterclipid>
														<name>(wAw Creator)_I made the epic battle against saddler in resident evil_hsYOIn8UH2k_YT.mp4</name>
														<rate>
															<timebase>25</timebase>
															<ntsc>FALSE</ntsc>
														</rate>
														<file id="file-158"/>
														<sourcetrack>
															<mediatype>audio</mediatype>
															<trackindex>1</trackindex>
														</sourcetrack>
														<link>
															<linkclipref>clipitem-814</linkclipref>
															<mediatype>video</mediatype>
															<trackindex>1</trackindex>
															<clipindex>1</clipindex>
														</link>
														<link>
															<linkclipref>clipitem-815</linkclipref>
															<mediatype>audio</mediatype>
															<trackindex>1</trackindex>
															<clipindex>1</clipindex>
															<groupindex>1</groupindex>
														</link>
														<link>
															<linkclipref>clipitem-816</linkclipref>
															<mediatype>audio</mediatype>
															<trackindex>2</trackindex>
															<clipindex>1</clipindex>
															<groupindex>1</groupindex>
														</link>
													</clipitem>
												</track>
												<track>
													<clipitem id="clipitem-816">
														<masterclipid>masterclip-164</masterclipid>
														<name>(wAw Creator)_I made the epic battle against saddler in resident evil_hsYOIn8UH2k_YT.mp4</name>
														<rate>
															<timebase>25</timebase>
															<ntsc>FALSE</ntsc>
														</rate>
														<file id="file-158"/>
														<sourcetrack>
															<mediatype>audio</mediatype>
															<trackindex>2</trackindex>
														</sourcetrack>
														<link>
															<linkclipref>clipitem-814</linkclipref>
															<mediatype>video</mediatype>
															<trackindex>1</trackindex>
															<clipindex>1</clipindex>
														</link>
														<link>
															<linkclipref>clipitem-815</linkclipref>
															<mediatype>audio</mediatype>
															<trackindex>1</trackindex>
															<clipindex>1</clipindex>
															<groupindex>1</groupindex>
														</link>
														<link>
															<linkclipref>clipitem-816</linkclipref>
															<mediatype>audio</mediatype>
															<trackindex>2</trackindex>
															<clipindex>1</clipindex>
															<groupindex>1</groupindex>
														</link>
													</clipitem>
												</track>
											</audio>
										</media>
										<logginginfo>
											<description></description>
											<scene></scene>
											<shottake></shottake>
											<lognote>https://www.youtube.com/watch?v=hsYOIn8UH2k</lognote>
											<good></good>
											<originalvideofilename></originalvideofilename>
											<originalaudiofilename></originalaudiofilename>
										</logginginfo>
										<colorinfo>
											<lut></lut>
											<lut1></lut1>
											<asc_sop></asc_sop>
											<asc_sat></asc_sat>
											<lut2></lut2>
										</colorinfo>
										<labels>
											<label2>Iris</label2>
										</labels>
									</clip>
									<bin>
										<name>Pour</name>
										<children>
											<clip id="masterclip-178" explodedTracks="true">
												<uuid>84914285-486f-492f-a9e0-313c09202456</uuid>
												<masterclipid>masterclip-178</masterclipid>
												<ismasterclip>TRUE</ismasterclip>
												<duration>14400</duration>
												<rate>
													<timebase>24</timebase>
													<ntsc>TRUE</ntsc>
												</rate>
												<name>(Callen Schaub)_Satisfaction, inspo, and relaxation during dark times._YBSJ4rCN-Fg_YT.mp4</name>
												<media>
													<video>
														<track>
															<clipitem id="clipitem-817">
																<masterclipid>masterclip-178</masterclipid>
																<name>(Callen Schaub)_Satisfaction, inspo, and relaxation during dark times._YBSJ4rCN-Fg_YT.mp4</name>
																<rate>
																	<timebase>24</timebase>
																	<ntsc>TRUE</ntsc>
																</rate>
																<alphatype>none</alphatype>
																<file id="file-172"/>
																<link>
																	<linkclipref>clipitem-817</linkclipref>
																	<mediatype>video</mediatype>
																	<trackindex>1</trackindex>
																	<clipindex>1</clipindex>
																</link>
																<link>
																	<linkclipref>clipitem-818</linkclipref>
																	<mediatype>audio</mediatype>
																	<trackindex>1</trackindex>
																	<clipindex>1</clipindex>
																	<groupindex>1</groupindex>
																</link>
																<link>
																	<linkclipref>clipitem-819</linkclipref>
																	<mediatype>audio</mediatype>
																	<trackindex>2</trackindex>
																	<clipindex>1</clipindex>
																	<groupindex>1</groupindex>
																</link>
															</clipitem>
														</track>
													</video>
													<audio>
														<track>
															<clipitem id="clipitem-818">
																<masterclipid>masterclip-178</masterclipid>
																<name>(Callen Schaub)_Satisfaction, inspo, and relaxation during dark times._YBSJ4rCN-Fg_YT.mp4</name>
																<rate>
																	<timebase>24</timebase>
																	<ntsc>TRUE</ntsc>
																</rate>
																<file id="file-172"/>
																<sourcetrack>
																	<mediatype>audio</mediatype>
																	<trackindex>1</trackindex>
																</sourcetrack>
																<link>
																	<linkclipref>clipitem-817</linkclipref>
																	<mediatype>video</mediatype>
																	<trackindex>1</trackindex>
																	<clipindex>1</clipindex>
																</link>
																<link>
																	<linkclipref>clipitem-818</linkclipref>
																	<mediatype>audio</mediatype>
																	<trackindex>1</trackindex>
																	<clipindex>1</clipindex>
																	<groupindex>1</groupindex>
																</link>
																<link>
																	<linkclipref>clipitem-819</linkclipref>
																	<mediatype>audio</mediatype>
																	<trackindex>2</trackindex>
																	<clipindex>1</clipindex>
																	<groupindex>1</groupindex>
																</link>
															</clipitem>
														</track>
														<track>
															<clipitem id="clipitem-819">
																<masterclipid>masterclip-178</masterclipid>
																<name>(Callen Schaub)_Satisfaction, inspo, and relaxation during dark times._YBSJ4rCN-Fg_YT.mp4</name>
																<rate>
																	<timebase>24</timebase>
																	<ntsc>TRUE</ntsc>
																</rate>
																<file id="file-172"/>
																<sourcetrack>
																	<mediatype>audio</mediatype>
																	<trackindex>2</trackindex>
																</sourcetrack>
																<link>
																	<linkclipref>clipitem-817</linkclipref>
																	<mediatype>video</mediatype>
																	<trackindex>1</trackindex>
																	<clipindex>1</clipindex>
																</link>
																<link>
																	<linkclipref>clipitem-818</linkclipref>
																	<mediatype>audio</mediatype>
																	<trackindex>1</trackindex>
																	<clipindex>1</clipindex>
																	<groupindex>1</groupindex>
																</link>
																<link>
																	<linkclipref>clipitem-819</linkclipref>
																	<mediatype>audio</mediatype>
																	<trackindex>2</trackindex>
																	<clipindex>1</clipindex>
																	<groupindex>1</groupindex>
																</link>
															</clipitem>
														</track>
													</audio>
												</media>
												<logginginfo>
													<description>Satisfaction, inspo, and relaxation during dark times.</description>
													<scene></scene>
													<shottake></shottake>
													<lognote>https://www.youtube.com/watch?v=YBSJ4rCN-Fg</lognote>
													<good></good>
													<originalvideofilename></originalvideofilename>
													<originalaudiofilename></originalaudiofilename>
												</logginginfo>
												<colorinfo>
													<lut></lut>
													<lut1></lut1>
													<asc_sop></asc_sop>
													<asc_sat></asc_sat>
													<lut2></lut2>
												</colorinfo>
												<labels>
													<label2>Iris</label2>
												</labels>
											</clip>
										</children>
									</bin>
									<bin>
										<name>Construction</name>
										<children>
											<clip id="masterclip-179" explodedTracks="true">
												<uuid>42db5af8-72f9-4745-b124-8f400e78f2f9</uuid>
												<masterclipid>masterclip-179</masterclipid>
												<ismasterclip>TRUE</ismasterclip>
												<duration>20349</duration>
												<rate>
													<timebase>30</timebase>
													<ntsc>FALSE</ntsc>
												</rate>
												<name>(WINNI)_Watch a Shower Tile Installation from Start to Finish in Time Lapse. WINNI_0q1N42uRoQ0_YT.mp4</name>
												<media>
													<video>
														<track>
															<clipitem id="clipitem-820">
																<masterclipid>masterclip-179</masterclipid>
																<name>(WINNI)_Watch a Shower Tile Installation from Start to Finish in Time Lapse. WINNI_0q1N42uRoQ0_YT.mp4</name>
																<rate>
																	<timebase>30</timebase>
																	<ntsc>FALSE</ntsc>
																</rate>
																<alphatype>none</alphatype>
																<file id="file-173"/>
																<link>
																	<linkclipref>clipitem-820</linkclipref>
																	<mediatype>video</mediatype>
																	<trackindex>1</trackindex>
																	<clipindex>1</clipindex>
																</link>
																<link>
																	<linkclipref>clipitem-821</linkclipref>
																	<mediatype>audio</mediatype>
																	<trackindex>1</trackindex>
																	<clipindex>1</clipindex>
																	<groupindex>1</groupindex>
																</link>
																<link>
																	<linkclipref>clipitem-822</linkclipref>
																	<mediatype>audio</mediatype>
																	<trackindex>2</trackindex>
																	<clipindex>1</clipindex>
																	<groupindex>1</groupindex>
																</link>
															</clipitem>
														</track>
													</video>
													<audio>
														<track>
															<clipitem id="clipitem-821">
																<masterclipid>masterclip-179</masterclipid>
																<name>(WINNI)_Watch a Shower Tile Installation from Start to Finish in Time Lapse. WINNI_0q1N42uRoQ0_YT.mp4</name>
																<rate>
																	<timebase>30</timebase>
																	<ntsc>FALSE</ntsc>
																</rate>
																<file id="file-173"/>
																<sourcetrack>
																	<mediatype>audio</mediatype>
																	<trackindex>1</trackindex>
																</sourcetrack>
																<link>
																	<linkclipref>clipitem-820</linkclipref>
																	<mediatype>video</mediatype>
																	<trackindex>1</trackindex>
																	<clipindex>1</clipindex>
																</link>
																<link>
																	<linkclipref>clipitem-821</linkclipref>
																	<mediatype>audio</mediatype>
																	<trackindex>1</trackindex>
																	<clipindex>1</clipindex>
																	<groupindex>1</groupindex>
																</link>
																<link>
																	<linkclipref>clipitem-822</linkclipref>
																	<mediatype>audio</mediatype>
																	<trackindex>2</trackindex>
																	<clipindex>1</clipindex>
																	<groupindex>1</groupindex>
																</link>
															</clipitem>
														</track>
														<track>
															<clipitem id="clipitem-822">
																<masterclipid>masterclip-179</masterclipid>
																<name>(WINNI)_Watch a Shower Tile Installation from Start to Finish in Time Lapse. WINNI_0q1N42uRoQ0_YT.mp4</name>
																<rate>
																	<timebase>30</timebase>
																	<ntsc>FALSE</ntsc>
																</rate>
																<file id="file-173"/>
																<sourcetrack>
																	<mediatype>audio</mediatype>
																	<trackindex>2</trackindex>
																</sourcetrack>
																<link>
																	<linkclipref>clipitem-820</linkclipref>
																	<mediatype>video</mediatype>
																	<trackindex>1</trackindex>
																	<clipindex>1</clipindex>
																</link>
																<link>
																	<linkclipref>clipitem-821</linkclipref>
																	<mediatype>audio</mediatype>
																	<trackindex>1</trackindex>
																	<clipindex>1</clipindex>
																	<groupindex>1</groupindex>
																</link>
																<link>
																	<linkclipref>clipitem-822</linkclipref>
																	<mediatype>audio</mediatype>
																	<trackindex>2</trackindex>
																	<clipindex>1</clipindex>
																	<groupindex>1</groupindex>
																</link>
															</clipitem>
														</track>
													</audio>
												</media>
												<logginginfo>
													<description>Watch a Shower Tile Installation from Start to Finish in Time Lapse. WINNI</description>
													<scene></scene>
													<shottake></shottake>
													<lognote>https://www.youtube.com/watch?v=0q1N42uRoQ0</lognote>
													<good></good>
													<originalvideofilename></originalvideofilename>
													<originalaudiofilename></originalaudiofilename>
												</logginginfo>
												<colorinfo>
													<lut></lut>
													<lut1></lut1>
													<asc_sop></asc_sop>
													<asc_sat></asc_sat>
													<lut2></lut2>
												</colorinfo>
												<labels>
													<label2>Iris</label2>
												</labels>
											</clip>
										</children>
									</bin>
									<clip id="masterclip-184" explodedTracks="true">
										<uuid>ff60b553-3fb9-4f29-86f4-4b17fa1cb6b9</uuid>
										<masterclipid>masterclip-184</masterclipid>
										<ismasterclip>TRUE</ismasterclip>
										<duration>14408</duration>
										<rate>
											<timebase>30</timebase>
											<ntsc>TRUE</ntsc>
										</rate>
										<name>(YT Object)_New Compilation Of The Best Close-Up Videos from OBJECT_Lyv_K_vVcuU_YT.mp4</name>
										<media>
											<video>
												<track>
													<clipitem id="clipitem-823">
														<masterclipid>masterclip-184</masterclipid>
														<name>(YT Object)_New Compilation Of The Best Close-Up Videos from OBJECT_Lyv_K_vVcuU_YT.mp4</name>
														<rate>
															<timebase>30</timebase>
															<ntsc>TRUE</ntsc>
														</rate>
														<alphatype>none</alphatype>
														<file id="file-178"/>
														<link>
															<linkclipref>clipitem-823</linkclipref>
															<mediatype>video</mediatype>
															<trackindex>1</trackindex>
															<clipindex>1</clipindex>
														</link>
														<link>
															<linkclipref>clipitem-824</linkclipref>
															<mediatype>audio</mediatype>
															<trackindex>1</trackindex>
															<clipindex>1</clipindex>
															<groupindex>1</groupindex>
														</link>
														<link>
															<linkclipref>clipitem-825</linkclipref>
															<mediatype>audio</mediatype>
															<trackindex>2</trackindex>
															<clipindex>1</clipindex>
															<groupindex>1</groupindex>
														</link>
													</clipitem>
												</track>
											</video>
											<audio>
												<track>
													<clipitem id="clipitem-824">
														<masterclipid>masterclip-184</masterclipid>
														<name>(YT Object)_New Compilation Of The Best Close-Up Videos from OBJECT_Lyv_K_vVcuU_YT.mp4</name>
														<rate>
															<timebase>30</timebase>
															<ntsc>TRUE</ntsc>
														</rate>
														<file id="file-178"/>
														<sourcetrack>
															<mediatype>audio</mediatype>
															<trackindex>1</trackindex>
														</sourcetrack>
														<link>
															<linkclipref>clipitem-823</linkclipref>
															<mediatype>video</mediatype>
															<trackindex>1</trackindex>
															<clipindex>1</clipindex>
														</link>
														<link>
															<linkclipref>clipitem-824</linkclipref>
															<mediatype>audio</mediatype>
															<trackindex>1</trackindex>
															<clipindex>1</clipindex>
															<groupindex>1</groupindex>
														</link>
														<link>
															<linkclipref>clipitem-825</linkclipref>
															<mediatype>audio</mediatype>
															<trackindex>2</trackindex>
															<clipindex>1</clipindex>
															<groupindex>1</groupindex>
														</link>
													</clipitem>
												</track>
												<track>
													<clipitem id="clipitem-825">
														<masterclipid>masterclip-184</masterclipid>
														<name>(YT Object)_New Compilation Of The Best Close-Up Videos from OBJECT_Lyv_K_vVcuU_YT.mp4</name>
														<rate>
															<timebase>30</timebase>
															<ntsc>TRUE</ntsc>
														</rate>
														<file id="file-178"/>
														<sourcetrack>
															<mediatype>audio</mediatype>
															<trackindex>2</trackindex>
														</sourcetrack>
														<link>
															<linkclipref>clipitem-823</linkclipref>
															<mediatype>video</mediatype>
															<trackindex>1</trackindex>
															<clipindex>1</clipindex>
														</link>
														<link>
															<linkclipref>clipitem-824</linkclipref>
															<mediatype>audio</mediatype>
															<trackindex>1</trackindex>
															<clipindex>1</clipindex>
															<groupindex>1</groupindex>
														</link>
														<link>
															<linkclipref>clipitem-825</linkclipref>
															<mediatype>audio</mediatype>
															<trackindex>2</trackindex>
															<clipindex>1</clipindex>
															<groupindex>1</groupindex>
														</link>
													</clipitem>
												</track>
											</audio>
										</media>
										<logginginfo>
											<description></description>
											<scene></scene>
											<shottake></shottake>
											<lognote>https://www.youtube.com/watch?v=Lyv_K_vVcuU</lognote>
											<good></good>
											<originalvideofilename></originalvideofilename>
											<originalaudiofilename></originalaudiofilename>
										</logginginfo>
										<colorinfo>
											<lut></lut>
											<lut1></lut1>
											<asc_sop></asc_sop>
											<asc_sat></asc_sat>
											<lut2></lut2>
										</colorinfo>
										<labels>
											<label2>Iris</label2>
										</labels>
									</clip>
									<clip id="masterclip-118" explodedTracks="true">
										<uuid>2daca44d-ff7e-41a0-8e19-d85582ddf264</uuid>
										<masterclipid>masterclip-118</masterclipid>
										<ismasterclip>TRUE</ismasterclip>
										<duration>2870</duration>
										<rate>
											<timebase>30</timebase>
											<ntsc>TRUE</ntsc>
										</rate>
										<name>1254 - WCARD_Ketrin Niki_1m35s.mp4</name>
										<media>
											<video>
												<track>
													<clipitem id="clipitem-826">
														<masterclipid>masterclip-118</masterclipid>
														<name>1254 - WCARD_Ketrin Niki_1m35s.mp4</name>
														<rate>
															<timebase>30</timebase>
															<ntsc>TRUE</ntsc>
														</rate>
														<alphatype>none</alphatype>
														<file id="file-117"/>
														<link>
															<linkclipref>clipitem-826</linkclipref>
															<mediatype>video</mediatype>
															<trackindex>1</trackindex>
															<clipindex>1</clipindex>
														</link>
														<link>
															<linkclipref>clipitem-827</linkclipref>
															<mediatype>audio</mediatype>
															<trackindex>1</trackindex>
															<clipindex>1</clipindex>
															<groupindex>1</groupindex>
														</link>
														<link>
															<linkclipref>clipitem-828</linkclipref>
															<mediatype>audio</mediatype>
															<trackindex>2</trackindex>
															<clipindex>1</clipindex>
															<groupindex>1</groupindex>
														</link>
													</clipitem>
												</track>
											</video>
											<audio>
												<track>
													<clipitem id="clipitem-827">
														<masterclipid>masterclip-118</masterclipid>
														<name>1254 - WCARD_Ketrin Niki_1m35s.mp4</name>
														<rate>
															<timebase>30</timebase>
															<ntsc>TRUE</ntsc>
														</rate>
														<file id="file-117"/>
														<sourcetrack>
															<mediatype>audio</mediatype>
															<trackindex>1</trackindex>
														</sourcetrack>
														<link>
															<linkclipref>clipitem-826</linkclipref>
															<mediatype>video</mediatype>
															<trackindex>1</trackindex>
															<clipindex>1</clipindex>
														</link>
														<link>
															<linkclipref>clipitem-827</linkclipref>
															<mediatype>audio</mediatype>
															<trackindex>1</trackindex>
															<clipindex>1</clipindex>
															<groupindex>1</groupindex>
														</link>
														<link>
															<linkclipref>clipitem-828</linkclipref>
															<mediatype>audio</mediatype>
															<trackindex>2</trackindex>
															<clipindex>1</clipindex>
															<groupindex>1</groupindex>
														</link>
													</clipitem>
												</track>
												<track>
													<clipitem id="clipitem-828">
														<masterclipid>masterclip-118</masterclipid>
														<name>1254 - WCARD_Ketrin Niki_1m35s.mp4</name>
														<rate>
															<timebase>30</timebase>
															<ntsc>TRUE</ntsc>
														</rate>
														<file id="file-117"/>
														<sourcetrack>
															<mediatype>audio</mediatype>
															<trackindex>2</trackindex>
														</sourcetrack>
														<link>
															<linkclipref>clipitem-826</linkclipref>
															<mediatype>video</mediatype>
															<trackindex>1</trackindex>
															<clipindex>1</clipindex>
														</link>
														<link>
															<linkclipref>clipitem-827</linkclipref>
															<mediatype>audio</mediatype>
															<trackindex>1</trackindex>
															<clipindex>1</clipindex>
															<groupindex>1</groupindex>
														</link>
														<link>
															<linkclipref>clipitem-828</linkclipref>
															<mediatype>audio</mediatype>
															<trackindex>2</trackindex>
															<clipindex>1</clipindex>
															<groupindex>1</groupindex>
														</link>
													</clipitem>
												</track>
											</audio>
										</media>
										<logginginfo>
											<description></description>
											<scene></scene>
											<shottake></shottake>
											<lognote></lognote>
											<good></good>
											<originalvideofilename></originalvideofilename>
											<originalaudiofilename></originalaudiofilename>
										</logginginfo>
										<colorinfo>
											<lut></lut>
											<lut1></lut1>
											<asc_sop></asc_sop>
											<asc_sat></asc_sat>
											<lut2></lut2>
										</colorinfo>
										<labels>
											<label2>Iris</label2>
										</labels>
									</clip>
									<clip id="masterclip-119" explodedTracks="true">
										<uuid>cc71e476-073a-4d76-b806-4c401bf5c88e</uuid>
										<masterclipid>masterclip-119</masterclipid>
										<ismasterclip>TRUE</ismasterclip>
										<duration>2452</duration>
										<rate>
											<timebase>30</timebase>
											<ntsc>TRUE</ntsc>
										</rate>
										<name>1254 - DIGART_trippy everything_1m35s.mp4</name>
										<media>
											<video>
												<track>
													<clipitem id="clipitem-829">
														<masterclipid>masterclip-119</masterclipid>
														<name>1254 - DIGART_trippy everything_1m35s.mp4</name>
														<rate>
															<timebase>30</timebase>
															<ntsc>TRUE</ntsc>
														</rate>
														<alphatype>none</alphatype>
														<file id="file-118"/>
														<link>
															<linkclipref>clipitem-829</linkclipref>
															<mediatype>video</mediatype>
															<trackindex>1</trackindex>
															<clipindex>1</clipindex>
														</link>
														<link>
															<linkclipref>clipitem-830</linkclipref>
															<mediatype>audio</mediatype>
															<trackindex>1</trackindex>
															<clipindex>1</clipindex>
															<groupindex>1</groupindex>
														</link>
														<link>
															<linkclipref>clipitem-831</linkclipref>
															<mediatype>audio</mediatype>
															<trackindex>2</trackindex>
															<clipindex>1</clipindex>
															<groupindex>1</groupindex>
														</link>
													</clipitem>
												</track>
											</video>
											<audio>
												<track>
													<clipitem id="clipitem-830">
														<masterclipid>masterclip-119</masterclipid>
														<name>1254 - DIGART_trippy everything_1m35s.mp4</name>
														<rate>
															<timebase>30</timebase>
															<ntsc>TRUE</ntsc>
														</rate>
														<file id="file-118"/>
														<sourcetrack>
															<mediatype>audio</mediatype>
															<trackindex>1</trackindex>
														</sourcetrack>
														<link>
															<linkclipref>clipitem-829</linkclipref>
															<mediatype>video</mediatype>
															<trackindex>1</trackindex>
															<clipindex>1</clipindex>
														</link>
														<link>
															<linkclipref>clipitem-830</linkclipref>
															<mediatype>audio</mediatype>
															<trackindex>1</trackindex>
															<clipindex>1</clipindex>
															<groupindex>1</groupindex>
														</link>
														<link>
															<linkclipref>clipitem-831</linkclipref>
															<mediatype>audio</mediatype>
															<trackindex>2</trackindex>
															<clipindex>1</clipindex>
															<groupindex>1</groupindex>
														</link>
													</clipitem>
												</track>
												<track>
													<clipitem id="clipitem-831">
														<masterclipid>masterclip-119</masterclipid>
														<name>1254 - DIGART_trippy everything_1m35s.mp4</name>
														<rate>
															<timebase>30</timebase>
															<ntsc>TRUE</ntsc>
														</rate>
														<file id="file-118"/>
														<sourcetrack>
															<mediatype>audio</mediatype>
															<trackindex>2</trackindex>
														</sourcetrack>
														<link>
															<linkclipref>clipitem-829</linkclipref>
															<mediatype>video</mediatype>
															<trackindex>1</trackindex>
															<clipindex>1</clipindex>
														</link>
														<link>
															<linkclipref>clipitem-830</linkclipref>
															<mediatype>audio</mediatype>
															<trackindex>1</trackindex>
															<clipindex>1</clipindex>
															<groupindex>1</groupindex>
														</link>
														<link>
															<linkclipref>clipitem-831</linkclipref>
															<mediatype>audio</mediatype>
															<trackindex>2</trackindex>
															<clipindex>1</clipindex>
															<groupindex>1</groupindex>
														</link>
													</clipitem>
												</track>
											</audio>
										</media>
										<logginginfo>
											<description></description>
											<scene></scene>
											<shottake></shottake>
											<lognote></lognote>
											<good></good>
											<originalvideofilename></originalvideofilename>
											<originalaudiofilename></originalaudiofilename>
										</logginginfo>
										<colorinfo>
											<lut></lut>
											<lut1></lut1>
											<asc_sop></asc_sop>
											<asc_sat></asc_sat>
											<lut2></lut2>
										</colorinfo>
										<labels>
											<label2>Iris</label2>
										</labels>
									</clip>
									<clip id="masterclip-120" explodedTracks="true">
										<uuid>83b81be9-fae4-4d07-8bc0-283d8a5a204c</uuid>
										<masterclipid>masterclip-120</masterclipid>
										<ismasterclip>TRUE</ismasterclip>
										<duration>2994</duration>
										<rate>
											<timebase>30</timebase>
											<ntsc>TRUE</ntsc>
										</rate>
										<name>1259 - FND_soyoungpapiccio_1m45s.mp4</name>
										<media>
											<video>
												<track>
													<clipitem id="clipitem-832">
														<masterclipid>masterclip-120</masterclipid>
														<name>1259 - FND_soyoungpapiccio_1m45s.mp4</name>
														<rate>
															<timebase>30</timebase>
															<ntsc>TRUE</ntsc>
														</rate>
														<alphatype>none</alphatype>
														<file id="file-119"/>
														<link>
															<linkclipref>clipitem-832</linkclipref>
															<mediatype>video</mediatype>
															<trackindex>1</trackindex>
															<clipindex>1</clipindex>
														</link>
														<link>
															<linkclipref>clipitem-833</linkclipref>
															<mediatype>audio</mediatype>
															<trackindex>1</trackindex>
															<clipindex>1</clipindex>
															<groupindex>1</groupindex>
														</link>
														<link>
															<linkclipref>clipitem-834</linkclipref>
															<mediatype>audio</mediatype>
															<trackindex>2</trackindex>
															<clipindex>1</clipindex>
															<groupindex>1</groupindex>
														</link>
													</clipitem>
												</track>
											</video>
											<audio>
												<track>
													<clipitem id="clipitem-833">
														<masterclipid>masterclip-120</masterclipid>
														<name>1259 - FND_soyoungpapiccio_1m45s.mp4</name>
														<rate>
															<timebase>30</timebase>
															<ntsc>TRUE</ntsc>
														</rate>
														<file id="file-119"/>
														<sourcetrack>
															<mediatype>audio</mediatype>
															<trackindex>1</trackindex>
														</sourcetrack>
														<link>
															<linkclipref>clipitem-832</linkclipref>
															<mediatype>video</mediatype>
															<trackindex>1</trackindex>
															<clipindex>1</clipindex>
														</link>
														<link>
															<linkclipref>clipitem-833</linkclipref>
															<mediatype>audio</mediatype>
															<trackindex>1</trackindex>
															<clipindex>1</clipindex>
															<groupindex>1</groupindex>
														</link>
														<link>
															<linkclipref>clipitem-834</linkclipref>
															<mediatype>audio</mediatype>
															<trackindex>2</trackindex>
															<clipindex>1</clipindex>
															<groupindex>1</groupindex>
														</link>
													</clipitem>
												</track>
												<track>
													<clipitem id="clipitem-834">
														<masterclipid>masterclip-120</masterclipid>
														<name>1259 - FND_soyoungpapiccio_1m45s.mp4</name>
														<rate>
															<timebase>30</timebase>
															<ntsc>TRUE</ntsc>
														</rate>
														<file id="file-119"/>
														<sourcetrack>
															<mediatype>audio</mediatype>
															<trackindex>2</trackindex>
														</sourcetrack>
														<link>
															<linkclipref>clipitem-832</linkclipref>
															<mediatype>video</mediatype>
															<trackindex>1</trackindex>
															<clipindex>1</clipindex>
														</link>
														<link>
															<linkclipref>clipitem-833</linkclipref>
															<mediatype>audio</mediatype>
															<trackindex>1</trackindex>
															<clipindex>1</clipindex>
															<groupindex>1</groupindex>
														</link>
														<link>
															<linkclipref>clipitem-834</linkclipref>
															<mediatype>audio</mediatype>
															<trackindex>2</trackindex>
															<clipindex>1</clipindex>
															<groupindex>1</groupindex>
														</link>
													</clipitem>
												</track>
											</audio>
										</media>
										<logginginfo>
											<description></description>
											<scene></scene>
											<shottake></shottake>
											<lognote></lognote>
											<good></good>
											<originalvideofilename></originalvideofilename>
											<originalaudiofilename></originalaudiofilename>
										</logginginfo>
										<colorinfo>
											<lut></lut>
											<lut1></lut1>
											<asc_sop></asc_sop>
											<asc_sat></asc_sat>
											<lut2></lut2>
										</colorinfo>
										<labels>
											<label2>Iris</label2>
										</labels>
									</clip>
									<clip id="masterclip-121" explodedTracks="true">
										<uuid>a5ec8c99-50ee-4081-87bc-0342870e57e2</uuid>
										<masterclipid>masterclip-121</masterclipid>
										<ismasterclip>TRUE</ismasterclip>
										<duration>2618</duration>
										<rate>
											<timebase>30</timebase>
											<ntsc>TRUE</ntsc>
										</rate>
										<name>1259 - SAT_modernmilt_1m25s.mp4</name>
										<media>
											<video>
												<track>
													<clipitem id="clipitem-835">
														<masterclipid>masterclip-121</masterclipid>
														<name>1259 - SAT_modernmilt_1m25s.mp4</name>
														<rate>
															<timebase>30</timebase>
															<ntsc>TRUE</ntsc>
														</rate>
														<alphatype>none</alphatype>
														<file id="file-120"/>
														<link>
															<linkclipref>clipitem-835</linkclipref>
															<mediatype>video</mediatype>
															<trackindex>1</trackindex>
															<clipindex>1</clipindex>
														</link>
														<link>
															<linkclipref>clipitem-836</linkclipref>
															<mediatype>audio</mediatype>
															<trackindex>1</trackindex>
															<clipindex>1</clipindex>
															<groupindex>1</groupindex>
														</link>
														<link>
															<linkclipref>clipitem-837</linkclipref>
															<mediatype>audio</mediatype>
															<trackindex>2</trackindex>
															<clipindex>1</clipindex>
															<groupindex>1</groupindex>
														</link>
													</clipitem>
												</track>
											</video>
											<audio>
												<track>
													<clipitem id="clipitem-836">
														<masterclipid>masterclip-121</masterclipid>
														<name>1259 - SAT_modernmilt_1m25s.mp4</name>
														<rate>
															<timebase>30</timebase>
															<ntsc>TRUE</ntsc>
														</rate>
														<file id="file-120"/>
														<sourcetrack>
															<mediatype>audio</mediatype>
															<trackindex>1</trackindex>
														</sourcetrack>
														<link>
															<linkclipref>clipitem-835</linkclipref>
															<mediatype>video</mediatype>
															<trackindex>1</trackindex>
															<clipindex>1</clipindex>
														</link>
														<link>
															<linkclipref>clipitem-836</linkclipref>
															<mediatype>audio</mediatype>
															<trackindex>1</trackindex>
															<clipindex>1</clipindex>
															<groupindex>1</groupindex>
														</link>
														<link>
															<linkclipref>clipitem-837</linkclipref>
															<mediatype>audio</mediatype>
															<trackindex>2</trackindex>
															<clipindex>1</clipindex>
															<groupindex>1</groupindex>
														</link>
													</clipitem>
												</track>
												<track>
													<clipitem id="clipitem-837">
														<masterclipid>masterclip-121</masterclipid>
														<name>1259 - SAT_modernmilt_1m25s.mp4</name>
														<rate>
															<timebase>30</timebase>
															<ntsc>TRUE</ntsc>
														</rate>
														<file id="file-120"/>
														<sourcetrack>
															<mediatype>audio</mediatype>
															<trackindex>2</trackindex>
														</sourcetrack>
														<link>
															<linkclipref>clipitem-835</linkclipref>
															<mediatype>video</mediatype>
															<trackindex>1</trackindex>
															<clipindex>1</clipindex>
														</link>
														<link>
															<linkclipref>clipitem-836</linkclipref>
															<mediatype>audio</mediatype>
															<trackindex>1</trackindex>
															<clipindex>1</clipindex>
															<groupindex>1</groupindex>
														</link>
														<link>
															<linkclipref>clipitem-837</linkclipref>
															<mediatype>audio</mediatype>
															<trackindex>2</trackindex>
															<clipindex>1</clipindex>
															<groupindex>1</groupindex>
														</link>
													</clipitem>
												</track>
											</audio>
										</media>
										<logginginfo>
											<description></description>
											<scene></scene>
											<shottake></shottake>
											<lognote></lognote>
											<good></good>
											<originalvideofilename></originalvideofilename>
											<originalaudiofilename></originalaudiofilename>
										</logginginfo>
										<colorinfo>
											<lut></lut>
											<lut1></lut1>
											<asc_sop></asc_sop>
											<asc_sat></asc_sat>
											<lut2></lut2>
										</colorinfo>
										<labels>
											<label2>Iris</label2>
										</labels>
									</clip>
									<clip id="masterclip-123" explodedTracks="true">
										<uuid>b8092129-e8ff-4f0c-a7d9-2d37b534766c</uuid>
										<masterclipid>masterclip-123</masterclipid>
										<ismasterclip>TRUE</ismasterclip>
										<duration>2975</duration>
										<rate>
											<timebase>30</timebase>
											<ntsc>TRUE</ntsc>
										</rate>
										<name>1260 - DIY_populuxe_1m50s.mp4</name>
										<media>
											<video>
												<track>
													<clipitem id="clipitem-838">
														<masterclipid>masterclip-123</masterclipid>
														<name>1260 - DIY_populuxe_1m50s.mp4</name>
														<rate>
															<timebase>30</timebase>
															<ntsc>TRUE</ntsc>
														</rate>
														<alphatype>none</alphatype>
														<file id="file-122"/>
														<link>
															<linkclipref>clipitem-838</linkclipref>
															<mediatype>video</mediatype>
															<trackindex>1</trackindex>
															<clipindex>1</clipindex>
														</link>
														<link>
															<linkclipref>clipitem-839</linkclipref>
															<mediatype>audio</mediatype>
															<trackindex>1</trackindex>
															<clipindex>1</clipindex>
															<groupindex>1</groupindex>
														</link>
														<link>
															<linkclipref>clipitem-840</linkclipref>
															<mediatype>audio</mediatype>
															<trackindex>2</trackindex>
															<clipindex>1</clipindex>
															<groupindex>1</groupindex>
														</link>
													</clipitem>
												</track>
											</video>
											<audio>
												<track>
													<clipitem id="clipitem-839">
														<masterclipid>masterclip-123</masterclipid>
														<name>1260 - DIY_populuxe_1m50s.mp4</name>
														<rate>
															<timebase>30</timebase>
															<ntsc>TRUE</ntsc>
														</rate>
														<file id="file-122"/>
														<sourcetrack>
															<mediatype>audio</mediatype>
															<trackindex>1</trackindex>
														</sourcetrack>
														<link>
															<linkclipref>clipitem-838</linkclipref>
															<mediatype>video</mediatype>
															<trackindex>1</trackindex>
															<clipindex>1</clipindex>
														</link>
														<link>
															<linkclipref>clipitem-839</linkclipref>
															<mediatype>audio</mediatype>
															<trackindex>1</trackindex>
															<clipindex>1</clipindex>
															<groupindex>1</groupindex>
														</link>
														<link>
															<linkclipref>clipitem-840</linkclipref>
															<mediatype>audio</mediatype>
															<trackindex>2</trackindex>
															<clipindex>1</clipindex>
															<groupindex>1</groupindex>
														</link>
													</clipitem>
												</track>
												<track>
													<clipitem id="clipitem-840">
														<masterclipid>masterclip-123</masterclipid>
														<name>1260 - DIY_populuxe_1m50s.mp4</name>
														<rate>
															<timebase>30</timebase>
															<ntsc>TRUE</ntsc>
														</rate>
														<file id="file-122"/>
														<sourcetrack>
															<mediatype>audio</mediatype>
															<trackindex>2</trackindex>
														</sourcetrack>
														<link>
															<linkclipref>clipitem-838</linkclipref>
															<mediatype>video</mediatype>
															<trackindex>1</trackindex>
															<clipindex>1</clipindex>
														</link>
														<link>
															<linkclipref>clipitem-839</linkclipref>
															<mediatype>audio</mediatype>
															<trackindex>1</trackindex>
															<clipindex>1</clipindex>
															<groupindex>1</groupindex>
														</link>
														<link>
															<linkclipref>clipitem-840</linkclipref>
															<mediatype>audio</mediatype>
															<trackindex>2</trackindex>
															<clipindex>1</clipindex>
															<groupindex>1</groupindex>
														</link>
													</clipitem>
												</track>
											</audio>
										</media>
										<logginginfo>
											<description></description>
											<scene></scene>
											<shottake></shottake>
											<lognote></lognote>
											<good></good>
											<originalvideofilename></originalvideofilename>
											<originalaudiofilename></originalaudiofilename>
										</logginginfo>
										<colorinfo>
											<lut></lut>
											<lut1></lut1>
											<asc_sop></asc_sop>
											<asc_sat></asc_sat>
											<lut2></lut2>
										</colorinfo>
										<labels>
											<label2>Iris</label2>
										</labels>
									</clip>
									<clip id="masterclip-124" explodedTracks="true">
										<uuid>45ca5c0e-1991-453f-b429-224aca590411</uuid>
										<masterclipid>masterclip-124</masterclipid>
										<ismasterclip>TRUE</ismasterclip>
										<duration>2333</duration>
										<rate>
											<timebase>30</timebase>
											<ntsc>TRUE</ntsc>
										</rate>
										<name>1260 - FND_extra icy eyecandy unbranded_1m15s.mp4</name>
										<media>
											<video>
												<track>
													<clipitem id="clipitem-841">
														<masterclipid>masterclip-124</masterclipid>
														<name>1260 - FND_extra icy eyecandy unbranded_1m15s.mp4</name>
														<rate>
															<timebase>30</timebase>
															<ntsc>TRUE</ntsc>
														</rate>
														<alphatype>none</alphatype>
														<file id="file-123"/>
														<link>
															<linkclipref>clipitem-841</linkclipref>
															<mediatype>video</mediatype>
															<trackindex>1</trackindex>
															<clipindex>1</clipindex>
														</link>
														<link>
															<linkclipref>clipitem-842</linkclipref>
															<mediatype>audio</mediatype>
															<trackindex>1</trackindex>
															<clipindex>1</clipindex>
															<groupindex>1</groupindex>
														</link>
														<link>
															<linkclipref>clipitem-843</linkclipref>
															<mediatype>audio</mediatype>
															<trackindex>2</trackindex>
															<clipindex>1</clipindex>
															<groupindex>1</groupindex>
														</link>
													</clipitem>
												</track>
											</video>
											<audio>
												<track>
													<clipitem id="clipitem-842">
														<masterclipid>masterclip-124</masterclipid>
														<name>1260 - FND_extra icy eyecandy unbranded_1m15s.mp4</name>
														<rate>
															<timebase>30</timebase>
															<ntsc>TRUE</ntsc>
														</rate>
														<file id="file-123"/>
														<sourcetrack>
															<mediatype>audio</mediatype>
															<trackindex>1</trackindex>
														</sourcetrack>
														<link>
															<linkclipref>clipitem-841</linkclipref>
															<mediatype>video</mediatype>
															<trackindex>1</trackindex>
															<clipindex>1</clipindex>
														</link>
														<link>
															<linkclipref>clipitem-842</linkclipref>
															<mediatype>audio</mediatype>
															<trackindex>1</trackindex>
															<clipindex>1</clipindex>
															<groupindex>1</groupindex>
														</link>
														<link>
															<linkclipref>clipitem-843</linkclipref>
															<mediatype>audio</mediatype>
															<trackindex>2</trackindex>
															<clipindex>1</clipindex>
															<groupindex>1</groupindex>
														</link>
													</clipitem>
												</track>
												<track>
													<clipitem id="clipitem-843">
														<masterclipid>masterclip-124</masterclipid>
														<name>1260 - FND_extra icy eyecandy unbranded_1m15s.mp4</name>
														<rate>
															<timebase>30</timebase>
															<ntsc>TRUE</ntsc>
														</rate>
														<file id="file-123"/>
														<sourcetrack>
															<mediatype>audio</mediatype>
															<trackindex>2</trackindex>
														</sourcetrack>
														<link>
															<linkclipref>clipitem-841</linkclipref>
															<mediatype>video</mediatype>
															<trackindex>1</trackindex>
															<clipindex>1</clipindex>
														</link>
														<link>
															<linkclipref>clipitem-842</linkclipref>
															<mediatype>audio</mediatype>
															<trackindex>1</trackindex>
															<clipindex>1</clipindex>
															<groupindex>1</groupindex>
														</link>
														<link>
															<linkclipref>clipitem-843</linkclipref>
															<mediatype>audio</mediatype>
															<trackindex>2</trackindex>
															<clipindex>1</clipindex>
															<groupindex>1</groupindex>
														</link>
													</clipitem>
												</track>
											</audio>
										</media>
										<logginginfo>
											<description></description>
											<scene></scene>
											<shottake></shottake>
											<lognote></lognote>
											<good></good>
											<originalvideofilename></originalvideofilename>
											<originalaudiofilename></originalaudiofilename>
										</logginginfo>
										<colorinfo>
											<lut></lut>
											<lut1></lut1>
											<asc_sop></asc_sop>
											<asc_sat></asc_sat>
											<lut2></lut2>
										</colorinfo>
										<labels>
											<label2>Iris</label2>
										</labels>
									</clip>
									<clip id="masterclip-126" explodedTracks="true">
										<uuid>fd668ddd-7ca2-4723-8712-1fbdc3ab21ec</uuid>
										<masterclipid>masterclip-126</masterclipid>
										<ismasterclip>TRUE</ismasterclip>
										<duration>2501</duration>
										<rate>
											<timebase>30</timebase>
											<ntsc>TRUE</ntsc>
										</rate>
										<name>1264 - MACRO_YT object_1m35s.mp4</name>
										<media>
											<video>
												<track>
													<clipitem id="clipitem-844">
														<masterclipid>masterclip-126</masterclipid>
														<name>1264 - MACRO_YT object_1m35s.mp4</name>
														<rate>
															<timebase>30</timebase>
															<ntsc>TRUE</ntsc>
														</rate>
														<alphatype>none</alphatype>
														<file id="file-124"/>
														<link>
															<linkclipref>clipitem-844</linkclipref>
															<mediatype>video</mediatype>
															<trackindex>1</trackindex>
															<clipindex>1</clipindex>
														</link>
														<link>
															<linkclipref>clipitem-845</linkclipref>
															<mediatype>audio</mediatype>
															<trackindex>1</trackindex>
															<clipindex>1</clipindex>
															<groupindex>1</groupindex>
														</link>
														<link>
															<linkclipref>clipitem-846</linkclipref>
															<mediatype>audio</mediatype>
															<trackindex>2</trackindex>
															<clipindex>1</clipindex>
															<groupindex>1</groupindex>
														</link>
													</clipitem>
												</track>
											</video>
											<audio>
												<track>
													<clipitem id="clipitem-845">
														<masterclipid>masterclip-126</masterclipid>
														<name>1264 - MACRO_YT object_1m35s.mp4</name>
														<rate>
															<timebase>30</timebase>
															<ntsc>TRUE</ntsc>
														</rate>
														<file id="file-124"/>
														<sourcetrack>
															<mediatype>audio</mediatype>
															<trackindex>1</trackindex>
														</sourcetrack>
														<link>
															<linkclipref>clipitem-844</linkclipref>
															<mediatype>video</mediatype>
															<trackindex>1</trackindex>
															<clipindex>1</clipindex>
														</link>
														<link>
															<linkclipref>clipitem-845</linkclipref>
															<mediatype>audio</mediatype>
															<trackindex>1</trackindex>
															<clipindex>1</clipindex>
															<groupindex>1</groupindex>
														</link>
														<link>
															<linkclipref>clipitem-846</linkclipref>
															<mediatype>audio</mediatype>
															<trackindex>2</trackindex>
															<clipindex>1</clipindex>
															<groupindex>1</groupindex>
														</link>
													</clipitem>
												</track>
												<track>
													<clipitem id="clipitem-846">
														<masterclipid>masterclip-126</masterclipid>
														<name>1264 - MACRO_YT object_1m35s.mp4</name>
														<rate>
															<timebase>30</timebase>
															<ntsc>TRUE</ntsc>
														</rate>
														<file id="file-124"/>
														<sourcetrack>
															<mediatype>audio</mediatype>
															<trackindex>2</trackindex>
														</sourcetrack>
														<link>
															<linkclipref>clipitem-844</linkclipref>
															<mediatype>video</mediatype>
															<trackindex>1</trackindex>
															<clipindex>1</clipindex>
														</link>
														<link>
															<linkclipref>clipitem-845</linkclipref>
															<mediatype>audio</mediatype>
															<trackindex>1</trackindex>
															<clipindex>1</clipindex>
															<groupindex>1</groupindex>
														</link>
														<link>
															<linkclipref>clipitem-846</linkclipref>
															<mediatype>audio</mediatype>
															<trackindex>2</trackindex>
															<clipindex>1</clipindex>
															<groupindex>1</groupindex>
														</link>
													</clipitem>
												</track>
											</audio>
										</media>
										<logginginfo>
											<description></description>
											<scene></scene>
											<shottake></shottake>
											<lognote></lognote>
											<good></good>
											<originalvideofilename></originalvideofilename>
											<originalaudiofilename></originalaudiofilename>
										</logginginfo>
										<colorinfo>
											<lut></lut>
											<lut1></lut1>
											<asc_sop></asc_sop>
											<asc_sat></asc_sat>
											<lut2></lut2>
										</colorinfo>
										<labels>
											<label2>Iris</label2>
										</labels>
									</clip>
									<clip id="masterclip-127" explodedTracks="true">
										<uuid>59f201c1-b930-4dca-844b-ff35c621b7c7</uuid>
										<masterclipid>masterclip-127</masterclipid>
										<ismasterclip>TRUE</ismasterclip>
										<duration>2495</duration>
										<rate>
											<timebase>30</timebase>
											<ntsc>TRUE</ntsc>
										</rate>
										<name>1264 - ART_art of all methods_1m25s.mp4</name>
										<media>
											<video>
												<track>
													<clipitem id="clipitem-847">
														<masterclipid>masterclip-127</masterclipid>
														<name>1264 - ART_art of all methods_1m25s.mp4</name>
														<rate>
															<timebase>30</timebase>
															<ntsc>TRUE</ntsc>
														</rate>
														<alphatype>none</alphatype>
														<file id="file-125"/>
														<link>
															<linkclipref>clipitem-847</linkclipref>
															<mediatype>video</mediatype>
															<trackindex>1</trackindex>
															<clipindex>1</clipindex>
														</link>
														<link>
															<linkclipref>clipitem-848</linkclipref>
															<mediatype>audio</mediatype>
															<trackindex>1</trackindex>
															<clipindex>1</clipindex>
															<groupindex>1</groupindex>
														</link>
														<link>
															<linkclipref>clipitem-849</linkclipref>
															<mediatype>audio</mediatype>
															<trackindex>2</trackindex>
															<clipindex>1</clipindex>
															<groupindex>1</groupindex>
														</link>
													</clipitem>
												</track>
											</video>
											<audio>
												<track>
													<clipitem id="clipitem-848">
														<masterclipid>masterclip-127</masterclipid>
														<name>1264 - ART_art of all methods_1m25s.mp4</name>
														<rate>
															<timebase>30</timebase>
															<ntsc>TRUE</ntsc>
														</rate>
														<file id="file-125"/>
														<sourcetrack>
															<mediatype>audio</mediatype>
															<trackindex>1</trackindex>
														</sourcetrack>
														<link>
															<linkclipref>clipitem-847</linkclipref>
															<mediatype>video</mediatype>
															<trackindex>1</trackindex>
															<clipindex>1</clipindex>
														</link>
														<link>
															<linkclipref>clipitem-848</linkclipref>
															<mediatype>audio</mediatype>
															<trackindex>1</trackindex>
															<clipindex>1</clipindex>
															<groupindex>1</groupindex>
														</link>
														<link>
															<linkclipref>clipitem-849</linkclipref>
															<mediatype>audio</mediatype>
															<trackindex>2</trackindex>
															<clipindex>1</clipindex>
															<groupindex>1</groupindex>
														</link>
													</clipitem>
												</track>
												<track>
													<clipitem id="clipitem-849">
														<masterclipid>masterclip-127</masterclipid>
														<name>1264 - ART_art of all methods_1m25s.mp4</name>
														<rate>
															<timebase>30</timebase>
															<ntsc>TRUE</ntsc>
														</rate>
														<file id="file-125"/>
														<sourcetrack>
															<mediatype>audio</mediatype>
															<trackindex>2</trackindex>
														</sourcetrack>
														<link>
															<linkclipref>clipitem-847</linkclipref>
															<mediatype>video</mediatype>
															<trackindex>1</trackindex>
															<clipindex>1</clipindex>
														</link>
														<link>
															<linkclipref>clipitem-848</linkclipref>
															<mediatype>audio</mediatype>
															<trackindex>1</trackindex>
															<clipindex>1</clipindex>
															<groupindex>1</groupindex>
														</link>
														<link>
															<linkclipref>clipitem-849</linkclipref>
															<mediatype>audio</mediatype>
															<trackindex>2</trackindex>
															<clipindex>1</clipindex>
															<groupindex>1</groupindex>
														</link>
													</clipitem>
												</track>
											</audio>
										</media>
										<logginginfo>
											<description></description>
											<scene></scene>
											<shottake></shottake>
											<lognote></lognote>
											<good></good>
											<originalvideofilename></originalvideofilename>
											<originalaudiofilename></originalaudiofilename>
										</logginginfo>
										<colorinfo>
											<lut></lut>
											<lut1></lut1>
											<asc_sop></asc_sop>
											<asc_sat></asc_sat>
											<lut2></lut2>
										</colorinfo>
										<labels>
											<label2>Iris</label2>
										</labels>
									</clip>
									<clip id="masterclip-129" explodedTracks="true">
										<uuid>7473e40e-4b2b-4baa-83bd-8caf74276f43</uuid>
										<masterclipid>masterclip-129</masterclipid>
										<ismasterclip>TRUE</ismasterclip>
										<duration>2867</duration>
										<rate>
											<timebase>30</timebase>
											<ntsc>TRUE</ntsc>
										</rate>
										<name>1265 - SAT_noriakiichikawa_1m45s.mp4</name>
										<media>
											<video>
												<track>
													<clipitem id="clipitem-850">
														<masterclipid>masterclip-129</masterclipid>
														<name>1265 - SAT_noriakiichikawa_1m45s.mp4</name>
														<rate>
															<timebase>30</timebase>
															<ntsc>TRUE</ntsc>
														</rate>
														<alphatype>none</alphatype>
														<file id="file-126"/>
														<link>
															<linkclipref>clipitem-850</linkclipref>
															<mediatype>video</mediatype>
															<trackindex>1</trackindex>
															<clipindex>1</clipindex>
														</link>
														<link>
															<linkclipref>clipitem-851</linkclipref>
															<mediatype>audio</mediatype>
															<trackindex>1</trackindex>
															<clipindex>1</clipindex>
															<groupindex>1</groupindex>
														</link>
														<link>
															<linkclipref>clipitem-852</linkclipref>
															<mediatype>audio</mediatype>
															<trackindex>2</trackindex>
															<clipindex>1</clipindex>
															<groupindex>1</groupindex>
														</link>
													</clipitem>
												</track>
											</video>
											<audio>
												<track>
													<clipitem id="clipitem-851">
														<masterclipid>masterclip-129</masterclipid>
														<name>1265 - SAT_noriakiichikawa_1m45s.mp4</name>
														<rate>
															<timebase>30</timebase>
															<ntsc>TRUE</ntsc>
														</rate>
														<file id="file-126"/>
														<sourcetrack>
															<mediatype>audio</mediatype>
															<trackindex>1</trackindex>
														</sourcetrack>
														<link>
															<linkclipref>clipitem-850</linkclipref>
															<mediatype>video</mediatype>
															<trackindex>1</trackindex>
															<clipindex>1</clipindex>
														</link>
														<link>
															<linkclipref>clipitem-851</linkclipref>
															<mediatype>audio</mediatype>
															<trackindex>1</trackindex>
															<clipindex>1</clipindex>
															<groupindex>1</groupindex>
														</link>
														<link>
															<linkclipref>clipitem-852</linkclipref>
															<mediatype>audio</mediatype>
															<trackindex>2</trackindex>
															<clipindex>1</clipindex>
															<groupindex>1</groupindex>
														</link>
													</clipitem>
												</track>
												<track>
													<clipitem id="clipitem-852">
														<masterclipid>masterclip-129</masterclipid>
														<name>1265 - SAT_noriakiichikawa_1m45s.mp4</name>
														<rate>
															<timebase>30</timebase>
															<ntsc>TRUE</ntsc>
														</rate>
														<file id="file-126"/>
														<sourcetrack>
															<mediatype>audio</mediatype>
															<trackindex>2</trackindex>
														</sourcetrack>
														<link>
															<linkclipref>clipitem-850</linkclipref>
															<mediatype>video</mediatype>
															<trackindex>1</trackindex>
															<clipindex>1</clipindex>
														</link>
														<link>
															<linkclipref>clipitem-851</linkclipref>
															<mediatype>audio</mediatype>
															<trackindex>1</trackindex>
															<clipindex>1</clipindex>
															<groupindex>1</groupindex>
														</link>
														<link>
															<linkclipref>clipitem-852</linkclipref>
															<mediatype>audio</mediatype>
															<trackindex>2</trackindex>
															<clipindex>1</clipindex>
															<groupindex>1</groupindex>
														</link>
													</clipitem>
												</track>
											</audio>
										</media>
										<logginginfo>
											<description></description>
											<scene></scene>
											<shottake></shottake>
											<lognote></lognote>
											<good></good>
											<originalvideofilename></originalvideofilename>
											<originalaudiofilename></originalaudiofilename>
										</logginginfo>
										<colorinfo>
											<lut></lut>
											<lut1></lut1>
											<asc_sop></asc_sop>
											<asc_sat></asc_sat>
											<lut2></lut2>
										</colorinfo>
										<labels>
											<label2>Iris</label2>
										</labels>
									</clip>
									<clip id="masterclip-130" explodedTracks="true">
										<uuid>81edca74-b25c-4681-a978-07f2bd08def6</uuid>
										<masterclipid>masterclip-130</masterclipid>
										<ismasterclip>TRUE</ismasterclip>
										<duration>2649</duration>
										<rate>
											<timebase>30</timebase>
											<ntsc>TRUE</ntsc>
										</rate>
										<name>1265 - SAT_c3 laundry_1m30s.mp4</name>
										<media>
											<video>
												<track>
													<clipitem id="clipitem-853">
														<masterclipid>masterclip-130</masterclipid>
														<name>1265 - SAT_c3 laundry_1m30s.mp4</name>
														<rate>
															<timebase>30</timebase>
															<ntsc>TRUE</ntsc>
														</rate>
														<alphatype>none</alphatype>
														<file id="file-127"/>
														<link>
															<linkclipref>clipitem-853</linkclipref>
															<mediatype>video</mediatype>
															<trackindex>1</trackindex>
															<clipindex>1</clipindex>
														</link>
														<link>
															<linkclipref>clipitem-854</linkclipref>
															<mediatype>audio</mediatype>
															<trackindex>1</trackindex>
															<clipindex>1</clipindex>
															<groupindex>1</groupindex>
														</link>
														<link>
															<linkclipref>clipitem-855</linkclipref>
															<mediatype>audio</mediatype>
															<trackindex>2</trackindex>
															<clipindex>1</clipindex>
															<groupindex>1</groupindex>
														</link>
													</clipitem>
												</track>
											</video>
											<audio>
												<track>
													<clipitem id="clipitem-854">
														<masterclipid>masterclip-130</masterclipid>
														<name>1265 - SAT_c3 laundry_1m30s.mp4</name>
														<rate>
															<timebase>30</timebase>
															<ntsc>TRUE</ntsc>
														</rate>
														<file id="file-127"/>
														<sourcetrack>
															<mediatype>audio</mediatype>
															<trackindex>1</trackindex>
														</sourcetrack>
														<link>
															<linkclipref>clipitem-853</linkclipref>
															<mediatype>video</mediatype>
															<trackindex>1</trackindex>
															<clipindex>1</clipindex>
														</link>
														<link>
															<linkclipref>clipitem-854</linkclipref>
															<mediatype>audio</mediatype>
															<trackindex>1</trackindex>
															<clipindex>1</clipindex>
															<groupindex>1</groupindex>
														</link>
														<link>
															<linkclipref>clipitem-855</linkclipref>
															<mediatype>audio</mediatype>
															<trackindex>2</trackindex>
															<clipindex>1</clipindex>
															<groupindex>1</groupindex>
														</link>
													</clipitem>
												</track>
												<track>
													<clipitem id="clipitem-855">
														<masterclipid>masterclip-130</masterclipid>
														<name>1265 - SAT_c3 laundry_1m30s.mp4</name>
														<rate>
															<timebase>30</timebase>
															<ntsc>TRUE</ntsc>
														</rate>
														<file id="file-127"/>
														<sourcetrack>
															<mediatype>audio</mediatype>
															<trackindex>2</trackindex>
														</sourcetrack>
														<link>
															<linkclipref>clipitem-853</linkclipref>
															<mediatype>video</mediatype>
															<trackindex>1</trackindex>
															<clipindex>1</clipindex>
														</link>
														<link>
															<linkclipref>clipitem-854</linkclipref>
															<mediatype>audio</mediatype>
															<trackindex>1</trackindex>
															<clipindex>1</clipindex>
															<groupindex>1</groupindex>
														</link>
														<link>
															<linkclipref>clipitem-855</linkclipref>
															<mediatype>audio</mediatype>
															<trackindex>2</trackindex>
															<clipindex>1</clipindex>
															<groupindex>1</groupindex>
														</link>
													</clipitem>
												</track>
											</audio>
										</media>
										<logginginfo>
											<description></description>
											<scene></scene>
											<shottake></shottake>
											<lognote></lognote>
											<good></good>
											<originalvideofilename></originalvideofilename>
											<originalaudiofilename></originalaudiofilename>
										</logginginfo>
										<colorinfo>
											<lut></lut>
											<lut1></lut1>
											<asc_sop></asc_sop>
											<asc_sat></asc_sat>
											<lut2></lut2>
										</colorinfo>
										<labels>
											<label2>Iris</label2>
										</labels>
									</clip>
									<bin>
										<name>04-10</name>
										<children>
											<clip id="masterclip-131" explodedTracks="true">
												<uuid>7090ceb0-c73a-4855-a279-358b65a0c565</uuid>
												<masterclipid>masterclip-131</masterclipid>
												<ismasterclip>TRUE</ismasterclip>
												<duration>3422</duration>
												<rate>
													<timebase>30</timebase>
													<ntsc>TRUE</ntsc>
												</rate>
												<name>1255 - SAT_obzorovna_1m55s.mp4</name>
												<media>
													<video>
														<track>
															<clipitem id="clipitem-856">
																<masterclipid>masterclip-131</masterclipid>
																<name>1255 - SAT_obzorovna_1m55s.mp4</name>
																<rate>
																	<timebase>30</timebase>
																	<ntsc>TRUE</ntsc>
																</rate>
																<alphatype>none</alphatype>
																<file id="file-128"/>
																<link>
																	<linkclipref>clipitem-856</linkclipref>
																	<mediatype>video</mediatype>
																	<trackindex>1</trackindex>
																	<clipindex>1</clipindex>
																</link>
																<link>
																	<linkclipref>clipitem-857</linkclipref>
																	<mediatype>audio</mediatype>
																	<trackindex>1</trackindex>
																	<clipindex>1</clipindex>
																	<groupindex>1</groupindex>
																</link>
																<link>
																	<linkclipref>clipitem-858</linkclipref>
																	<mediatype>audio</mediatype>
																	<trackindex>2</trackindex>
																	<clipindex>1</clipindex>
																	<groupindex>1</groupindex>
																</link>
															</clipitem>
														</track>
													</video>
													<audio>
														<track>
															<clipitem id="clipitem-857">
																<masterclipid>masterclip-131</masterclipid>
																<name>1255 - SAT_obzorovna_1m55s.mp4</name>
																<rate>
																	<timebase>30</timebase>
																	<ntsc>TRUE</ntsc>
																</rate>
																<file id="file-128"/>
																<sourcetrack>
																	<mediatype>audio</mediatype>
																	<trackindex>1</trackindex>
																</sourcetrack>
																<link>
																	<linkclipref>clipitem-856</linkclipref>
																	<mediatype>video</mediatype>
																	<trackindex>1</trackindex>
																	<clipindex>1</clipindex>
																</link>
																<link>
																	<linkclipref>clipitem-857</linkclipref>
																	<mediatype>audio</mediatype>
																	<trackindex>1</trackindex>
																	<clipindex>1</clipindex>
																	<groupindex>1</groupindex>
																</link>
																<link>
																	<linkclipref>clipitem-858</linkclipref>
																	<mediatype>audio</mediatype>
																	<trackindex>2</trackindex>
																	<clipindex>1</clipindex>
																	<groupindex>1</groupindex>
																</link>
															</clipitem>
														</track>
														<track>
															<clipitem id="clipitem-858">
																<masterclipid>masterclip-131</masterclipid>
																<name>1255 - SAT_obzorovna_1m55s.mp4</name>
																<rate>
																	<timebase>30</timebase>
																	<ntsc>TRUE</ntsc>
																</rate>
																<file id="file-128"/>
																<sourcetrack>
																	<mediatype>audio</mediatype>
																	<trackindex>2</trackindex>
																</sourcetrack>
																<link>
																	<linkclipref>clipitem-856</linkclipref>
																	<mediatype>video</mediatype>
																	<trackindex>1</trackindex>
																	<clipindex>1</clipindex>
																</link>
																<link>
																	<linkclipref>clipitem-857</linkclipref>
																	<mediatype>audio</mediatype>
																	<trackindex>1</trackindex>
																	<clipindex>1</clipindex>
																	<groupindex>1</groupindex>
																</link>
																<link>
																	<linkclipref>clipitem-858</linkclipref>
																	<mediatype>audio</mediatype>
																	<trackindex>2</trackindex>
																	<clipindex>1</clipindex>
																	<groupindex>1</groupindex>
																</link>
															</clipitem>
														</track>
													</audio>
												</media>
												<logginginfo>
													<description></description>
													<scene></scene>
													<shottake></shottake>
													<lognote></lognote>
													<good></good>
													<originalvideofilename></originalvideofilename>
													<originalaudiofilename></originalaudiofilename>
												</logginginfo>
												<colorinfo>
													<lut></lut>
													<lut1></lut1>
													<asc_sop></asc_sop>
													<asc_sat></asc_sat>
													<lut2></lut2>
												</colorinfo>
												<labels>
													<label2>Iris</label2>
												</labels>
											</clip>
											<clip id="masterclip-132" explodedTracks="true">
												<uuid>74c8459d-dda1-41e2-b5ab-eca489a0b4bb</uuid>
												<masterclipid>masterclip-132</masterclipid>
												<ismasterclip>TRUE</ismasterclip>
												<duration>1922</duration>
												<rate>
													<timebase>30</timebase>
													<ntsc>TRUE</ntsc>
												</rate>
												<name>1255 - WCARD_shadows on the wall Chive unbranded_1m05s.mp4</name>
												<media>
													<video>
														<track>
															<clipitem id="clipitem-859">
																<masterclipid>masterclip-132</masterclipid>
																<name>1255 - WCARD_shadows on the wall Chive unbranded_1m05s.mp4</name>
																<rate>
																	<timebase>30</timebase>
																	<ntsc>TRUE</ntsc>
																</rate>
																<alphatype>none</alphatype>
																<file id="file-129"/>
																<link>
																	<linkclipref>clipitem-859</linkclipref>
																	<mediatype>video</mediatype>
																	<trackindex>1</trackindex>
																	<clipindex>1</clipindex>
																</link>
																<link>
																	<linkclipref>clipitem-860</linkclipref>
																	<mediatype>audio</mediatype>
																	<trackindex>1</trackindex>
																	<clipindex>1</clipindex>
																	<groupindex>1</groupindex>
																</link>
																<link>
																	<linkclipref>clipitem-861</linkclipref>
																	<mediatype>audio</mediatype>
																	<trackindex>2</trackindex>
																	<clipindex>1</clipindex>
																	<groupindex>1</groupindex>
																</link>
															</clipitem>
														</track>
													</video>
													<audio>
														<track>
															<clipitem id="clipitem-860">
																<masterclipid>masterclip-132</masterclipid>
																<name>1255 - WCARD_shadows on the wall Chive unbranded_1m05s.mp4</name>
																<rate>
																	<timebase>30</timebase>
																	<ntsc>TRUE</ntsc>
																</rate>
																<file id="file-129"/>
																<sourcetrack>
																	<mediatype>audio</mediatype>
																	<trackindex>1</trackindex>
																</sourcetrack>
																<link>
																	<linkclipref>clipitem-859</linkclipref>
																	<mediatype>video</mediatype>
																	<trackindex>1</trackindex>
																	<clipindex>1</clipindex>
																</link>
																<link>
																	<linkclipref>clipitem-860</linkclipref>
																	<mediatype>audio</mediatype>
																	<trackindex>1</trackindex>
																	<clipindex>1</clipindex>
																	<groupindex>1</groupindex>
																</link>
																<link>
																	<linkclipref>clipitem-861</linkclipref>
																	<mediatype>audio</mediatype>
																	<trackindex>2</trackindex>
																	<clipindex>1</clipindex>
																	<groupindex>1</groupindex>
																</link>
															</clipitem>
														</track>
														<track>
															<clipitem id="clipitem-861">
																<masterclipid>masterclip-132</masterclipid>
																<name>1255 - WCARD_shadows on the wall Chive unbranded_1m05s.mp4</name>
																<rate>
																	<timebase>30</timebase>
																	<ntsc>TRUE</ntsc>
																</rate>
																<file id="file-129"/>
																<sourcetrack>
																	<mediatype>audio</mediatype>
																	<trackindex>2</trackindex>
																</sourcetrack>
																<link>
																	<linkclipref>clipitem-859</linkclipref>
																	<mediatype>video</mediatype>
																	<trackindex>1</trackindex>
																	<clipindex>1</clipindex>
																</link>
																<link>
																	<linkclipref>clipitem-860</linkclipref>
																	<mediatype>audio</mediatype>
																	<trackindex>1</trackindex>
																	<clipindex>1</clipindex>
																	<groupindex>1</groupindex>
																</link>
																<link>
																	<linkclipref>clipitem-861</linkclipref>
																	<mediatype>audio</mediatype>
																	<trackindex>2</trackindex>
																	<clipindex>1</clipindex>
																	<groupindex>1</groupindex>
																</link>
															</clipitem>
														</track>
													</audio>
												</media>
												<logginginfo>
													<description></description>
													<scene></scene>
													<shottake></shottake>
													<lognote></lognote>
													<good></good>
													<originalvideofilename></originalvideofilename>
													<originalaudiofilename></originalaudiofilename>
												</logginginfo>
												<colorinfo>
													<lut></lut>
													<lut1></lut1>
													<asc_sop></asc_sop>
													<asc_sat></asc_sat>
													<lut2></lut2>
												</colorinfo>
												<labels>
													<label2>Iris</label2>
												</labels>
											</clip>
										</children>
									</bin>
								</children>
							</bin>
						</children>
					</bin>
					<bin>
						<name>03 Clip Provider Footage COPY</name>
						<children>
							<bin>
								<name>fobs_slime</name>
								<children>
									<clip id="masterclip-146" explodedTracks="true">
										<uuid>b8c1cafc-4c2d-4d1e-907f-549401e1e2ea</uuid>
										<masterclipid>masterclip-146</masterclipid>
										<ismasterclip>TRUE</ismasterclip>
										<duration>1239</duration>
										<rate>
											<timebase>30</timebase>
											<ntsc>FALSE</ntsc>
										</rate>
										<name>(fobs_slime)_BxDTAgPHefR_IG.mp4</name>
										<media>
											<video>
												<track>
													<clipitem id="clipitem-862">
														<masterclipid>masterclip-146</masterclipid>
														<name>(fobs_slime)_BxDTAgPHefR_IG.mp4</name>
														<rate>
															<timebase>30</timebase>
															<ntsc>FALSE</ntsc>
														</rate>
														<alphatype>none</alphatype>
														<file id="file-141"/>
														<link>
															<linkclipref>clipitem-862</linkclipref>
															<mediatype>video</mediatype>
															<trackindex>1</trackindex>
															<clipindex>1</clipindex>
														</link>
														<link>
															<linkclipref>clipitem-863</linkclipref>
															<mediatype>audio</mediatype>
															<trackindex>1</trackindex>
															<clipindex>1</clipindex>
															<groupindex>1</groupindex>
														</link>
														<link>
															<linkclipref>clipitem-864</linkclipref>
															<mediatype>audio</mediatype>
															<trackindex>2</trackindex>
															<clipindex>1</clipindex>
															<groupindex>1</groupindex>
														</link>
													</clipitem>
												</track>
											</video>
											<audio>
												<track>
													<clipitem id="clipitem-863">
														<masterclipid>masterclip-146</masterclipid>
														<name>(fobs_slime)_BxDTAgPHefR_IG.mp4</name>
														<rate>
															<timebase>30</timebase>
															<ntsc>FALSE</ntsc>
														</rate>
														<file id="file-141"/>
														<sourcetrack>
															<mediatype>audio</mediatype>
															<trackindex>1</trackindex>
														</sourcetrack>
														<link>
															<linkclipref>clipitem-862</linkclipref>
															<mediatype>video</mediatype>
															<trackindex>1</trackindex>
															<clipindex>1</clipindex>
														</link>
														<link>
															<linkclipref>clipitem-863</linkclipref>
															<mediatype>audio</mediatype>
															<trackindex>1</trackindex>
															<clipindex>1</clipindex>
															<groupindex>1</groupindex>
														</link>
														<link>
															<linkclipref>clipitem-864</linkclipref>
															<mediatype>audio</mediatype>
															<trackindex>2</trackindex>
															<clipindex>1</clipindex>
															<groupindex>1</groupindex>
														</link>
													</clipitem>
												</track>
												<track>
													<clipitem id="clipitem-864">
														<masterclipid>masterclip-146</masterclipid>
														<name>(fobs_slime)_BxDTAgPHefR_IG.mp4</name>
														<rate>
															<timebase>30</timebase>
															<ntsc>FALSE</ntsc>
														</rate>
														<file id="file-141"/>
														<sourcetrack>
															<mediatype>audio</mediatype>
															<trackindex>2</trackindex>
														</sourcetrack>
														<link>
															<linkclipref>clipitem-862</linkclipref>
															<mediatype>video</mediatype>
															<trackindex>1</trackindex>
															<clipindex>1</clipindex>
														</link>
														<link>
															<linkclipref>clipitem-863</linkclipref>
															<mediatype>audio</mediatype>
															<trackindex>1</trackindex>
															<clipindex>1</clipindex>
															<groupindex>1</groupindex>
														</link>
														<link>
															<linkclipref>clipitem-864</linkclipref>
															<mediatype>audio</mediatype>
															<trackindex>2</trackindex>
															<clipindex>1</clipindex>
															<groupindex>1</groupindex>
														</link>
													</clipitem>
												</track>
											</audio>
										</media>
										<logginginfo>
											<description></description>
											<scene></scene>
											<shottake></shottake>
											<lognote></lognote>
											<good></good>
											<originalvideofilename></originalvideofilename>
											<originalaudiofilename></originalaudiofilename>
										</logginginfo>
										<colorinfo>
											<lut></lut>
											<lut1></lut1>
											<asc_sop></asc_sop>
											<asc_sat></asc_sat>
											<lut2></lut2>
										</colorinfo>
										<labels>
											<label2>Iris</label2>
										</labels>
									</clip>
								</children>
							</bin>
							<bin>
								<name>hammerlyceramics</name>
								<children>
									<clip id="masterclip-148" explodedTracks="true">
										<uuid>18d6e568-45fd-480a-9d07-0a86ca2db914</uuid>
										<masterclipid>masterclip-148</masterclipid>
										<ismasterclip>TRUE</ismasterclip>
										<duration>15608</duration>
										<rate>
											<timebase>30</timebase>
											<ntsc>FALSE</ntsc>
										</rate>
										<name>hammerlyceramics - BuEwEz2FE7M.mp4</name>
										<media>
											<video>
												<track>
													<clipitem id="clipitem-865">
														<masterclipid>masterclip-148</masterclipid>
														<name>hammerlyceramics - BuEwEz2FE7M.mp4</name>
														<rate>
															<timebase>30</timebase>
															<ntsc>FALSE</ntsc>
														</rate>
														<alphatype>none</alphatype>
														<file id="file-143"/>
														<link>
															<linkclipref>clipitem-865</linkclipref>
															<mediatype>video</mediatype>
															<trackindex>1</trackindex>
															<clipindex>1</clipindex>
														</link>
														<link>
															<linkclipref>clipitem-866</linkclipref>
															<mediatype>audio</mediatype>
															<trackindex>1</trackindex>
															<clipindex>1</clipindex>
														</link>
													</clipitem>
												</track>
											</video>
											<audio>
												<track>
													<clipitem id="clipitem-866">
														<masterclipid>masterclip-148</masterclipid>
														<name>hammerlyceramics - BuEwEz2FE7M.mp4</name>
														<rate>
															<timebase>30</timebase>
															<ntsc>FALSE</ntsc>
														</rate>
														<file id="file-143"/>
														<sourcetrack>
															<mediatype>audio</mediatype>
															<trackindex>1</trackindex>
														</sourcetrack>
														<link>
															<linkclipref>clipitem-865</linkclipref>
															<mediatype>video</mediatype>
															<trackindex>1</trackindex>
															<clipindex>1</clipindex>
														</link>
														<link>
															<linkclipref>clipitem-866</linkclipref>
															<mediatype>audio</mediatype>
															<trackindex>1</trackindex>
															<clipindex>1</clipindex>
														</link>
													</clipitem>
												</track>
											</audio>
										</media>
										<logginginfo>
											<description></description>
											<scene></scene>
											<shottake></shottake>
											<lognote></lognote>
											<good></good>
											<originalvideofilename></originalvideofilename>
											<originalaudiofilename></originalaudiofilename>
										</logginginfo>
										<colorinfo>
											<lut></lut>
											<lut1></lut1>
											<asc_sop></asc_sop>
											<asc_sat></asc_sat>
											<lut2></lut2>
										</colorinfo>
										<labels>
											<label2>Iris</label2>
										</labels>
									</clip>
								</children>
							</bin>
							<bin>
								<name>tortus 051921</name>
								<children>
									<clip id="masterclip-149" explodedTracks="true">
										<uuid>cfe80d55-4109-4f31-91eb-b52b6a202560</uuid>
										<masterclipid>masterclip-149</masterclipid>
										<ismasterclip>TRUE</ismasterclip>
										<duration>262</duration>
										<rate>
											<timebase>29</timebase>
											<ntsc>FALSE</ntsc>
										</rate>
										<name>tortus - 34kZuTlkHp.mp4</name>
										<media>
											<video>
												<track>
													<clipitem id="clipitem-867">
														<masterclipid>masterclip-149</masterclipid>
														<name>tortus - 34kZuTlkHp.mp4</name>
														<rate>
															<timebase>29</timebase>
															<ntsc>FALSE</ntsc>
														</rate>
														<alphatype>none</alphatype>
														<file id="file-144"/>
														<link>
															<linkclipref>clipitem-867</linkclipref>
															<mediatype>video</mediatype>
															<trackindex>1</trackindex>
															<clipindex>1</clipindex>
														</link>
														<link>
															<linkclipref>clipitem-868</linkclipref>
															<mediatype>audio</mediatype>
															<trackindex>1</trackindex>
															<clipindex>1</clipindex>
														</link>
													</clipitem>
												</track>
											</video>
											<audio>
												<track>
													<clipitem id="clipitem-868">
														<masterclipid>masterclip-149</masterclipid>
														<name>tortus - 34kZuTlkHp.mp4</name>
														<rate>
															<timebase>29</timebase>
															<ntsc>FALSE</ntsc>
														</rate>
														<file id="file-144"/>
														<sourcetrack>
															<mediatype>audio</mediatype>
															<trackindex>1</trackindex>
														</sourcetrack>
														<link>
															<linkclipref>clipitem-867</linkclipref>
															<mediatype>video</mediatype>
															<trackindex>1</trackindex>
															<clipindex>1</clipindex>
														</link>
														<link>
															<linkclipref>clipitem-868</linkclipref>
															<mediatype>audio</mediatype>
															<trackindex>1</trackindex>
															<clipindex>1</clipindex>
														</link>
													</clipitem>
												</track>
											</audio>
										</media>
										<logginginfo>
											<description></description>
											<scene></scene>
											<shottake></shottake>
											<lognote></lognote>
											<good></good>
											<originalvideofilename></originalvideofilename>
											<originalaudiofilename></originalaudiofilename>
										</logginginfo>
										<colorinfo>
											<lut></lut>
											<lut1></lut1>
											<asc_sop></asc_sop>
											<asc_sat></asc_sat>
											<lut2></lut2>
										</colorinfo>
										<labels>
											<label2>Iris</label2>
										</labels>
									</clip>
									<clip id="masterclip-150" explodedTracks="true">
										<uuid>42460eea-0852-4dec-8036-48f99477d435</uuid>
										<masterclipid>masterclip-150</masterclipid>
										<ismasterclip>TRUE</ismasterclip>
										<duration>317</duration>
										<rate>
											<timebase>29</timebase>
											<ntsc>FALSE</ntsc>
										</rate>
										<name>tortus - 26VZxTFkJ3.mp4</name>
										<media>
											<video>
												<track>
													<clipitem id="clipitem-869">
														<masterclipid>masterclip-150</masterclipid>
														<name>tortus - 26VZxTFkJ3.mp4</name>
														<rate>
															<timebase>29</timebase>
															<ntsc>FALSE</ntsc>
														</rate>
														<alphatype>none</alphatype>
														<file id="file-145"/>
														<link>
															<linkclipref>clipitem-869</linkclipref>
															<mediatype>video</mediatype>
															<trackindex>1</trackindex>
															<clipindex>1</clipindex>
														</link>
														<link>
															<linkclipref>clipitem-870</linkclipref>
															<mediatype>audio</mediatype>
															<trackindex>1</trackindex>
															<clipindex>1</clipindex>
															<groupindex>1</groupindex>
														</link>
														<link>
															<linkclipref>clipitem-871</linkclipref>
															<mediatype>audio</mediatype>
															<trackindex>2</trackindex>
															<clipindex>1</clipindex>
															<groupindex>1</groupindex>
														</link>
													</clipitem>
												</track>
											</video>
											<audio>
												<track>
													<clipitem id="clipitem-870">
														<masterclipid>masterclip-150</masterclipid>
														<name>tortus - 26VZxTFkJ3.mp4</name>
														<rate>
															<timebase>29</timebase>
															<ntsc>FALSE</ntsc>
														</rate>
														<file id="file-145"/>
														<sourcetrack>
															<mediatype>audio</mediatype>
															<trackindex>1</trackindex>
														</sourcetrack>
														<link>
															<linkclipref>clipitem-869</linkclipref>
															<mediatype>video</mediatype>
															<trackindex>1</trackindex>
															<clipindex>1</clipindex>
														</link>
														<link>
															<linkclipref>clipitem-870</linkclipref>
															<mediatype>audio</mediatype>
															<trackindex>1</trackindex>
															<clipindex>1</clipindex>
															<groupindex>1</groupindex>
														</link>
														<link>
															<linkclipref>clipitem-871</linkclipref>
															<mediatype>audio</mediatype>
															<trackindex>2</trackindex>
															<clipindex>1</clipindex>
															<groupindex>1</groupindex>
														</link>
													</clipitem>
												</track>
												<track>
													<clipitem id="clipitem-871">
														<masterclipid>masterclip-150</masterclipid>
														<name>tortus - 26VZxTFkJ3.mp4</name>
														<rate>
															<timebase>29</timebase>
															<ntsc>FALSE</ntsc>
														</rate>
														<file id="file-145"/>
														<sourcetrack>
															<mediatype>audio</mediatype>
															<trackindex>2</trackindex>
														</sourcetrack>
														<link>
															<linkclipref>clipitem-869</linkclipref>
															<mediatype>video</mediatype>
															<trackindex>1</trackindex>
															<clipindex>1</clipindex>
														</link>
														<link>
															<linkclipref>clipitem-870</linkclipref>
															<mediatype>audio</mediatype>
															<trackindex>1</trackindex>
															<clipindex>1</clipindex>
															<groupindex>1</groupindex>
														</link>
														<link>
															<linkclipref>clipitem-871</linkclipref>
															<mediatype>audio</mediatype>
															<trackindex>2</trackindex>
															<clipindex>1</clipindex>
															<groupindex>1</groupindex>
														</link>
													</clipitem>
												</track>
											</audio>
										</media>
										<logginginfo>
											<description></description>
											<scene></scene>
											<shottake></shottake>
											<lognote></lognote>
											<good></good>
											<originalvideofilename></originalvideofilename>
											<originalaudiofilename></originalaudiofilename>
										</logginginfo>
										<colorinfo>
											<lut></lut>
											<lut1></lut1>
											<asc_sop></asc_sop>
											<asc_sat></asc_sat>
											<lut2></lut2>
										</colorinfo>
										<labels>
											<label2>Iris</label2>
										</labels>
									</clip>
									<clip id="masterclip-151" explodedTracks="true">
										<uuid>3fc214e2-c45c-4472-ab64-726c44101e2d</uuid>
										<masterclipid>masterclip-151</masterclipid>
										<ismasterclip>TRUE</ismasterclip>
										<duration>433</duration>
										<rate>
											<timebase>29</timebase>
											<ntsc>FALSE</ntsc>
										</rate>
										<name>tortus - 96KwSzlkIE.mp4</name>
										<media>
											<video>
												<track>
													<clipitem id="clipitem-872">
														<masterclipid>masterclip-151</masterclipid>
														<name>tortus - 96KwSzlkIE.mp4</name>
														<rate>
															<timebase>29</timebase>
															<ntsc>FALSE</ntsc>
														</rate>
														<alphatype>none</alphatype>
														<file id="file-146"/>
													</clipitem>
												</track>
											</video>
										</media>
										<logginginfo>
											<description></description>
											<scene></scene>
											<shottake></shottake>
											<lognote></lognote>
											<good></good>
											<originalvideofilename></originalvideofilename>
											<originalaudiofilename></originalaudiofilename>
										</logginginfo>
										<colorinfo>
											<lut></lut>
											<lut1></lut1>
											<asc_sop></asc_sop>
											<asc_sat></asc_sat>
											<lut2></lut2>
										</colorinfo>
										<labels>
											<label2>Violet</label2>
										</labels>
									</clip>
								</children>
							</bin>
							<bin>
								<name>cornelius_creations</name>
								<children>
									<clip id="masterclip-154" explodedTracks="true">
										<uuid>e4e5d0fb-a5c6-4d16-a2e5-d23557943809</uuid>
										<masterclipid>masterclip-154</masterclipid>
										<ismasterclip>TRUE</ismasterclip>
										<duration>3370</duration>
										<rate>
											<timebase>30</timebase>
											<ntsc>FALSE</ntsc>
										</rate>
										<name>cornelius_creations_B-K0yVODJgb_IG.mp4</name>
										<media>
											<video>
												<track>
													<clipitem id="clipitem-873">
														<masterclipid>masterclip-154</masterclipid>
														<name>cornelius_creations_B-K0yVODJgb_IG.mp4</name>
														<rate>
															<timebase>30</timebase>
															<ntsc>FALSE</ntsc>
														</rate>
														<alphatype>none</alphatype>
														<file id="file-149"/>
														<link>
															<linkclipref>clipitem-873</linkclipref>
															<mediatype>video</mediatype>
															<trackindex>1</trackindex>
															<clipindex>1</clipindex>
														</link>
														<link>
															<linkclipref>clipitem-874</linkclipref>
															<mediatype>audio</mediatype>
															<trackindex>1</trackindex>
															<clipindex>1</clipindex>
															<groupindex>1</groupindex>
														</link>
														<link>
															<linkclipref>clipitem-875</linkclipref>
															<mediatype>audio</mediatype>
															<trackindex>2</trackindex>
															<clipindex>1</clipindex>
															<groupindex>1</groupindex>
														</link>
													</clipitem>
												</track>
											</video>
											<audio>
												<track>
													<clipitem id="clipitem-874">
														<masterclipid>masterclip-154</masterclipid>
														<name>cornelius_creations_B-K0yVODJgb_IG.mp4</name>
														<rate>
															<timebase>30</timebase>
															<ntsc>FALSE</ntsc>
														</rate>
														<file id="file-149"/>
														<sourcetrack>
															<mediatype>audio</mediatype>
															<trackindex>1</trackindex>
														</sourcetrack>
														<link>
															<linkclipref>clipitem-873</linkclipref>
															<mediatype>video</mediatype>
															<trackindex>1</trackindex>
															<clipindex>1</clipindex>
														</link>
														<link>
															<linkclipref>clipitem-874</linkclipref>
															<mediatype>audio</mediatype>
															<trackindex>1</trackindex>
															<clipindex>1</clipindex>
															<groupindex>1</groupindex>
														</link>
														<link>
															<linkclipref>clipitem-875</linkclipref>
															<mediatype>audio</mediatype>
															<trackindex>2</trackindex>
															<clipindex>1</clipindex>
															<groupindex>1</groupindex>
														</link>
													</clipitem>
												</track>
												<track>
													<clipitem id="clipitem-875">
														<masterclipid>masterclip-154</masterclipid>
														<name>cornelius_creations_B-K0yVODJgb_IG.mp4</name>
														<rate>
															<timebase>30</timebase>
															<ntsc>FALSE</ntsc>
														</rate>
														<file id="file-149"/>
														<sourcetrack>
															<mediatype>audio</mediatype>
															<trackindex>2</trackindex>
														</sourcetrack>
														<link>
															<linkclipref>clipitem-873</linkclipref>
															<mediatype>video</mediatype>
															<trackindex>1</trackindex>
															<clipindex>1</clipindex>
														</link>
														<link>
															<linkclipref>clipitem-874</linkclipref>
															<mediatype>audio</mediatype>
															<trackindex>1</trackindex>
															<clipindex>1</clipindex>
															<groupindex>1</groupindex>
														</link>
														<link>
															<linkclipref>clipitem-875</linkclipref>
															<mediatype>audio</mediatype>
															<trackindex>2</trackindex>
															<clipindex>1</clipindex>
															<groupindex>1</groupindex>
														</link>
													</clipitem>
												</track>
											</audio>
										</media>
										<logginginfo>
											<description></description>
											<scene></scene>
											<shottake></shottake>
											<lognote></lognote>
											<good></good>
											<originalvideofilename></originalvideofilename>
											<originalaudiofilename></originalaudiofilename>
										</logginginfo>
										<colorinfo>
											<lut></lut>
											<lut1></lut1>
											<asc_sop></asc_sop>
											<asc_sat></asc_sat>
											<lut2></lut2>
										</colorinfo>
										<labels>
											<label2>Iris</label2>
										</labels>
									</clip>
								</children>
							</bin>
							<bin>
								<name>missmacsbakery</name>
								<children>
									<clip id="masterclip-155" explodedTracks="true">
										<uuid>6cc34287-98fd-4e1b-b7d0-5b3641bb3f6c</uuid>
										<masterclipid>masterclip-155</masterclipid>
										<ismasterclip>TRUE</ismasterclip>
										<duration>592</duration>
										<rate>
											<timebase>30</timebase>
											<ntsc>FALSE</ntsc>
										</rate>
										<name>(missmacsbakery)_CjEESZ3gl7j_IG.mp4</name>
										<media>
											<video>
												<track>
													<clipitem id="clipitem-876">
														<masterclipid>masterclip-155</masterclipid>
														<name>(missmacsbakery)_CjEESZ3gl7j_IG.mp4</name>
														<rate>
															<timebase>30</timebase>
															<ntsc>FALSE</ntsc>
														</rate>
														<alphatype>none</alphatype>
														<file id="file-150"/>
														<link>
															<linkclipref>clipitem-876</linkclipref>
															<mediatype>video</mediatype>
															<trackindex>1</trackindex>
															<clipindex>1</clipindex>
														</link>
														<link>
															<linkclipref>clipitem-877</linkclipref>
															<mediatype>audio</mediatype>
															<trackindex>1</trackindex>
															<clipindex>1</clipindex>
															<groupindex>1</groupindex>
														</link>
														<link>
															<linkclipref>clipitem-878</linkclipref>
															<mediatype>audio</mediatype>
															<trackindex>2</trackindex>
															<clipindex>1</clipindex>
															<groupindex>1</groupindex>
														</link>
													</clipitem>
												</track>
											</video>
											<audio>
												<track>
													<clipitem id="clipitem-877">
														<masterclipid>masterclip-155</masterclipid>
														<name>(missmacsbakery)_CjEESZ3gl7j_IG.mp4</name>
														<rate>
															<timebase>30</timebase>
															<ntsc>FALSE</ntsc>
														</rate>
														<file id="file-150"/>
														<sourcetrack>
															<mediatype>audio</mediatype>
															<trackindex>1</trackindex>
														</sourcetrack>
														<link>
															<linkclipref>clipitem-876</linkclipref>
															<mediatype>video</mediatype>
															<trackindex>1</trackindex>
															<clipindex>1</clipindex>
														</link>
														<link>
															<linkclipref>clipitem-877</linkclipref>
															<mediatype>audio</mediatype>
															<trackindex>1</trackindex>
															<clipindex>1</clipindex>
															<groupindex>1</groupindex>
														</link>
														<link>
															<linkclipref>clipitem-878</linkclipref>
															<mediatype>audio</mediatype>
															<trackindex>2</trackindex>
															<clipindex>1</clipindex>
															<groupindex>1</groupindex>
														</link>
													</clipitem>
												</track>
												<track>
													<clipitem id="clipitem-878">
														<masterclipid>masterclip-155</masterclipid>
														<name>(missmacsbakery)_CjEESZ3gl7j_IG.mp4</name>
														<rate>
															<timebase>30</timebase>
															<ntsc>FALSE</ntsc>
														</rate>
														<file id="file-150"/>
														<sourcetrack>
															<mediatype>audio</mediatype>
															<trackindex>2</trackindex>
														</sourcetrack>
														<link>
															<linkclipref>clipitem-876</linkclipref>
															<mediatype>video</mediatype>
															<trackindex>1</trackindex>
															<clipindex>1</clipindex>
														</link>
														<link>
															<linkclipref>clipitem-877</linkclipref>
															<mediatype>audio</mediatype>
															<trackindex>1</trackindex>
															<clipindex>1</clipindex>
															<groupindex>1</groupindex>
														</link>
														<link>
															<linkclipref>clipitem-878</linkclipref>
															<mediatype>audio</mediatype>
															<trackindex>2</trackindex>
															<clipindex>1</clipindex>
															<groupindex>1</groupindex>
														</link>
													</clipitem>
												</track>
											</audio>
										</media>
										<logginginfo>
											<description></description>
											<scene></scene>
											<shottake></shottake>
											<lognote></lognote>
											<good></good>
											<originalvideofilename></originalvideofilename>
											<originalaudiofilename></originalaudiofilename>
										</logginginfo>
										<colorinfo>
											<lut></lut>
											<lut1></lut1>
											<asc_sop></asc_sop>
											<asc_sat></asc_sat>
											<lut2></lut2>
										</colorinfo>
										<labels>
											<label2>Iris</label2>
										</labels>
									</clip>
									<clip id="masterclip-156" explodedTracks="true">
										<uuid>c63a4195-f5c0-41c4-b4bf-48c769208445</uuid>
										<masterclipid>masterclip-156</masterclipid>
										<ismasterclip>TRUE</ismasterclip>
										<duration>873</duration>
										<rate>
											<timebase>30</timebase>
											<ntsc>FALSE</ntsc>
										</rate>
										<name>(missmacsbakery)_ClCDId7gMGb_IG.mp4</name>
										<media>
											<video>
												<track>
													<clipitem id="clipitem-879">
														<masterclipid>masterclip-156</masterclipid>
														<name>(missmacsbakery)_ClCDId7gMGb_IG.mp4</name>
														<rate>
															<timebase>30</timebase>
															<ntsc>FALSE</ntsc>
														</rate>
														<alphatype>none</alphatype>
														<file id="file-151"/>
														<link>
															<linkclipref>clipitem-879</linkclipref>
															<mediatype>video</mediatype>
															<trackindex>1</trackindex>
															<clipindex>1</clipindex>
														</link>
														<link>
															<linkclipref>clipitem-880</linkclipref>
															<mediatype>audio</mediatype>
															<trackindex>1</trackindex>
															<clipindex>1</clipindex>
															<groupindex>1</groupindex>
														</link>
														<link>
															<linkclipref>clipitem-881</linkclipref>
															<mediatype>audio</mediatype>
															<trackindex>2</trackindex>
															<clipindex>1</clipindex>
															<groupindex>1</groupindex>
														</link>
													</clipitem>
												</track>
											</video>
											<audio>
												<track>
													<clipitem id="clipitem-880">
														<masterclipid>masterclip-156</masterclipid>
														<name>(missmacsbakery)_ClCDId7gMGb_IG.mp4</name>
														<rate>
															<timebase>30</timebase>
															<ntsc>FALSE</ntsc>
														</rate>
														<file id="file-151"/>
														<sourcetrack>
															<mediatype>audio</mediatype>
															<trackindex>1</trackindex>
														</sourcetrack>
														<link>
															<linkclipref>clipitem-879</linkclipref>
															<mediatype>video</mediatype>
															<trackindex>1</trackindex>
															<clipindex>1</clipindex>
														</link>
														<link>
															<linkclipref>clipitem-880</linkclipref>
															<mediatype>audio</mediatype>
															<trackindex>1</trackindex>
															<clipindex>1</clipindex>
															<groupindex>1</groupindex>
														</link>
														<link>
															<linkclipref>clipitem-881</linkclipref>
															<mediatype>audio</mediatype>
															<trackindex>2</trackindex>
															<clipindex>1</clipindex>
															<groupindex>1</groupindex>
														</link>
													</clipitem>
												</track>
												<track>
													<clipitem id="clipitem-881">
														<masterclipid>masterclip-156</masterclipid>
														<name>(missmacsbakery)_ClCDId7gMGb_IG.mp4</name>
														<rate>
															<timebase>30</timebase>
															<ntsc>FALSE</ntsc>
														</rate>
														<file id="file-151"/>
														<sourcetrack>
															<mediatype>audio</mediatype>
															<trackindex>2</trackindex>
														</sourcetrack>
														<link>
															<linkclipref>clipitem-879</linkclipref>
															<mediatype>video</mediatype>
															<trackindex>1</trackindex>
															<clipindex>1</clipindex>
														</link>
														<link>
															<linkclipref>clipitem-880</linkclipref>
															<mediatype>audio</mediatype>
															<trackindex>1</trackindex>
															<clipindex>1</clipindex>
															<groupindex>1</groupindex>
														</link>
														<link>
															<linkclipref>clipitem-881</linkclipref>
															<mediatype>audio</mediatype>
															<trackindex>2</trackindex>
															<clipindex>1</clipindex>
															<groupindex>1</groupindex>
														</link>
													</clipitem>
												</track>
											</audio>
										</media>
										<logginginfo>
											<description></description>
											<scene></scene>
											<shottake></shottake>
											<lognote></lognote>
											<good></good>
											<originalvideofilename></originalvideofilename>
											<originalaudiofilename></originalaudiofilename>
										</logginginfo>
										<colorinfo>
											<lut></lut>
											<lut1></lut1>
											<asc_sop></asc_sop>
											<asc_sat></asc_sat>
											<lut2></lut2>
										</colorinfo>
										<labels>
											<label2>Iris</label2>
										</labels>
									</clip>
									<clip id="masterclip-157" explodedTracks="true">
										<uuid>a1386f8a-73ef-48e7-b5dc-37fb244434d8</uuid>
										<masterclipid>masterclip-157</masterclipid>
										<ismasterclip>TRUE</ismasterclip>
										<duration>764</duration>
										<rate>
											<timebase>30</timebase>
											<ntsc>FALSE</ntsc>
										</rate>
										<name>(missmacsbakery)_Cm7U34WK1_p_IG.mp4</name>
										<media>
											<video>
												<track>
													<clipitem id="clipitem-882">
														<masterclipid>masterclip-157</masterclipid>
														<name>(missmacsbakery)_Cm7U34WK1_p_IG.mp4</name>
														<rate>
															<timebase>30</timebase>
															<ntsc>FALSE</ntsc>
														</rate>
														<alphatype>none</alphatype>
														<file id="file-152"/>
														<link>
															<linkclipref>clipitem-882</linkclipref>
															<mediatype>video</mediatype>
															<trackindex>1</trackindex>
															<clipindex>1</clipindex>
														</link>
														<link>
															<linkclipref>clipitem-883</linkclipref>
															<mediatype>audio</mediatype>
															<trackindex>1</trackindex>
															<clipindex>1</clipindex>
															<groupindex>1</groupindex>
														</link>
														<link>
															<linkclipref>clipitem-884</linkclipref>
															<mediatype>audio</mediatype>
															<trackindex>2</trackindex>
															<clipindex>1</clipindex>
															<groupindex>1</groupindex>
														</link>
													</clipitem>
												</track>
											</video>
											<audio>
												<track>
													<clipitem id="clipitem-883">
														<masterclipid>masterclip-157</masterclipid>
														<name>(missmacsbakery)_Cm7U34WK1_p_IG.mp4</name>
														<rate>
															<timebase>30</timebase>
															<ntsc>FALSE</ntsc>
														</rate>
														<file id="file-152"/>
														<sourcetrack>
															<mediatype>audio</mediatype>
															<trackindex>1</trackindex>
														</sourcetrack>
														<link>
															<linkclipref>clipitem-882</linkclipref>
															<mediatype>video</mediatype>
															<trackindex>1</trackindex>
															<clipindex>1</clipindex>
														</link>
														<link>
															<linkclipref>clipitem-883</linkclipref>
															<mediatype>audio</mediatype>
															<trackindex>1</trackindex>
															<clipindex>1</clipindex>
															<groupindex>1</groupindex>
														</link>
														<link>
															<linkclipref>clipitem-884</linkclipref>
															<mediatype>audio</mediatype>
															<trackindex>2</trackindex>
															<clipindex>1</clipindex>
															<groupindex>1</groupindex>
														</link>
													</clipitem>
												</track>
												<track>
													<clipitem id="clipitem-884">
														<masterclipid>masterclip-157</masterclipid>
														<name>(missmacsbakery)_Cm7U34WK1_p_IG.mp4</name>
														<rate>
															<timebase>30</timebase>
															<ntsc>FALSE</ntsc>
														</rate>
														<file id="file-152"/>
														<sourcetrack>
															<mediatype>audio</mediatype>
															<trackindex>2</trackindex>
														</sourcetrack>
														<link>
															<linkclipref>clipitem-882</linkclipref>
															<mediatype>video</mediatype>
															<trackindex>1</trackindex>
															<clipindex>1</clipindex>
														</link>
														<link>
															<linkclipref>clipitem-883</linkclipref>
															<mediatype>audio</mediatype>
															<trackindex>1</trackindex>
															<clipindex>1</clipindex>
															<groupindex>1</groupindex>
														</link>
														<link>
															<linkclipref>clipitem-884</linkclipref>
															<mediatype>audio</mediatype>
															<trackindex>2</trackindex>
															<clipindex>1</clipindex>
															<groupindex>1</groupindex>
														</link>
													</clipitem>
												</track>
											</audio>
										</media>
										<logginginfo>
											<description></description>
											<scene></scene>
											<shottake></shottake>
											<lognote></lognote>
											<good></good>
											<originalvideofilename></originalvideofilename>
											<originalaudiofilename></originalaudiofilename>
										</logginginfo>
										<colorinfo>
											<lut></lut>
											<lut1></lut1>
											<asc_sop></asc_sop>
											<asc_sat></asc_sat>
											<lut2></lut2>
										</colorinfo>
										<labels>
											<label2>Iris</label2>
										</labels>
									</clip>
									<clip id="masterclip-158" explodedTracks="true">
										<uuid>69dbe370-a5ac-4cea-8075-815a6831becc</uuid>
										<masterclipid>masterclip-158</masterclipid>
										<ismasterclip>TRUE</ismasterclip>
										<duration>534</duration>
										<rate>
											<timebase>30</timebase>
											<ntsc>FALSE</ntsc>
										</rate>
										<name>(missmacsbakery)_CKRylqdFHvW - 4_IG.mp4</name>
										<media>
											<video>
												<track>
													<clipitem id="clipitem-885">
														<masterclipid>masterclip-158</masterclipid>
														<name>(missmacsbakery)_CKRylqdFHvW - 4_IG.mp4</name>
														<rate>
															<timebase>30</timebase>
															<ntsc>FALSE</ntsc>
														</rate>
														<alphatype>none</alphatype>
														<file id="file-153"/>
													</clipitem>
												</track>
											</video>
										</media>
										<logginginfo>
											<description></description>
											<scene></scene>
											<shottake></shottake>
											<lognote></lognote>
											<good></good>
											<originalvideofilename></originalvideofilename>
											<originalaudiofilename></originalaudiofilename>
										</logginginfo>
										<colorinfo>
											<lut></lut>
											<lut1></lut1>
											<asc_sop></asc_sop>
											<asc_sat></asc_sat>
											<lut2></lut2>
										</colorinfo>
										<labels>
											<label2>Violet</label2>
										</labels>
									</clip>
									<clip id="masterclip-159" explodedTracks="true">
										<uuid>2bdde75a-ab50-44b6-ba04-ccb1a685e3d7</uuid>
										<masterclipid>masterclip-159</masterclipid>
										<ismasterclip>TRUE</ismasterclip>
										<duration>492</duration>
										<rate>
											<timebase>30</timebase>
											<ntsc>FALSE</ntsc>
										</rate>
										<name>(missmacsbakery)_CLXgYq5hnoR_IG.mp4</name>
										<media>
											<video>
												<track>
													<clipitem id="clipitem-886">
														<masterclipid>masterclip-159</masterclipid>
														<name>(missmacsbakery)_CLXgYq5hnoR_IG.mp4</name>
														<rate>
															<timebase>30</timebase>
															<ntsc>FALSE</ntsc>
														</rate>
														<alphatype>none</alphatype>
														<file id="file-154"/>
														<link>
															<linkclipref>clipitem-886</linkclipref>
															<mediatype>video</mediatype>
															<trackindex>1</trackindex>
															<clipindex>1</clipindex>
														</link>
														<link>
															<linkclipref>clipitem-887</linkclipref>
															<mediatype>audio</mediatype>
															<trackindex>1</trackindex>
															<clipindex>1</clipindex>
															<groupindex>1</groupindex>
														</link>
														<link>
															<linkclipref>clipitem-888</linkclipref>
															<mediatype>audio</mediatype>
															<trackindex>2</trackindex>
															<clipindex>1</clipindex>
															<groupindex>1</groupindex>
														</link>
													</clipitem>
												</track>
											</video>
											<audio>
												<track>
													<clipitem id="clipitem-887">
														<masterclipid>masterclip-159</masterclipid>
														<name>(missmacsbakery)_CLXgYq5hnoR_IG.mp4</name>
														<rate>
															<timebase>30</timebase>
															<ntsc>FALSE</ntsc>
														</rate>
														<file id="file-154"/>
														<sourcetrack>
															<mediatype>audio</mediatype>
															<trackindex>1</trackindex>
														</sourcetrack>
														<link>
															<linkclipref>clipitem-886</linkclipref>
															<mediatype>video</mediatype>
															<trackindex>1</trackindex>
															<clipindex>1</clipindex>
														</link>
														<link>
															<linkclipref>clipitem-887</linkclipref>
															<mediatype>audio</mediatype>
															<trackindex>1</trackindex>
															<clipindex>1</clipindex>
															<groupindex>1</groupindex>
														</link>
														<link>
															<linkclipref>clipitem-888</linkclipref>
															<mediatype>audio</mediatype>
															<trackindex>2</trackindex>
															<clipindex>1</clipindex>
															<groupindex>1</groupindex>
														</link>
													</clipitem>
												</track>
												<track>
													<clipitem id="clipitem-888">
														<masterclipid>masterclip-159</masterclipid>
														<name>(missmacsbakery)_CLXgYq5hnoR_IG.mp4</name>
														<rate>
															<timebase>30</timebase>
															<ntsc>FALSE</ntsc>
														</rate>
														<file id="file-154"/>
														<sourcetrack>
															<mediatype>audio</mediatype>
															<trackindex>2</trackindex>
														</sourcetrack>
														<link>
															<linkclipref>clipitem-886</linkclipref>
															<mediatype>video</mediatype>
															<trackindex>1</trackindex>
															<clipindex>1</clipindex>
														</link>
														<link>
															<linkclipref>clipitem-887</linkclipref>
															<mediatype>audio</mediatype>
															<trackindex>1</trackindex>
															<clipindex>1</clipindex>
															<groupindex>1</groupindex>
														</link>
														<link>
															<linkclipref>clipitem-888</linkclipref>
															<mediatype>audio</mediatype>
															<trackindex>2</trackindex>
															<clipindex>1</clipindex>
															<groupindex>1</groupindex>
														</link>
													</clipitem>
												</track>
											</audio>
										</media>
										<logginginfo>
											<description></description>
											<scene></scene>
											<shottake></shottake>
											<lognote></lognote>
											<good></good>
											<originalvideofilename></originalvideofilename>
											<originalaudiofilename></originalaudiofilename>
										</logginginfo>
										<colorinfo>
											<lut></lut>
											<lut1></lut1>
											<asc_sop></asc_sop>
											<asc_sat></asc_sat>
											<lut2></lut2>
										</colorinfo>
										<labels>
											<label2>Iris</label2>
										</labels>
									</clip>
								</children>
							</bin>
							<bin>
								<name>czferro</name>
								<children>
									<clip id="masterclip-166" explodedTracks="true">
										<uuid>fd613387-8ed5-4972-8a09-80e9c250b5bf</uuid>
										<masterclipid>masterclip-166</masterclipid>
										<ismasterclip>TRUE</ismasterclip>
										<duration>406</duration>
										<rate>
											<timebase>29</timebase>
											<ntsc>FALSE</ntsc>
										</rate>
										<name>czferro_-2AxQnJS9P_IG.mp4</name>
										<media>
											<video>
												<track>
													<clipitem id="clipitem-889">
														<masterclipid>masterclip-166</masterclipid>
														<name>czferro_-2AxQnJS9P_IG.mp4</name>
														<rate>
															<timebase>29</timebase>
															<ntsc>FALSE</ntsc>
														</rate>
														<alphatype>none</alphatype>
														<file id="file-160"/>
														<link>
															<linkclipref>clipitem-889</linkclipref>
															<mediatype>video</mediatype>
															<trackindex>1</trackindex>
															<clipindex>1</clipindex>
														</link>
														<link>
															<linkclipref>clipitem-890</linkclipref>
															<mediatype>audio</mediatype>
															<trackindex>1</trackindex>
															<clipindex>1</clipindex>
														</link>
													</clipitem>
												</track>
											</video>
											<audio>
												<track>
													<clipitem id="clipitem-890">
														<masterclipid>masterclip-166</masterclipid>
														<name>czferro_-2AxQnJS9P_IG.mp4</name>
														<rate>
															<timebase>29</timebase>
															<ntsc>FALSE</ntsc>
														</rate>
														<file id="file-160"/>
														<sourcetrack>
															<mediatype>audio</mediatype>
															<trackindex>1</trackindex>
														</sourcetrack>
														<link>
															<linkclipref>clipitem-889</linkclipref>
															<mediatype>video</mediatype>
															<trackindex>1</trackindex>
															<clipindex>1</clipindex>
														</link>
														<link>
															<linkclipref>clipitem-890</linkclipref>
															<mediatype>audio</mediatype>
															<trackindex>1</trackindex>
															<clipindex>1</clipindex>
														</link>
													</clipitem>
												</track>
											</audio>
										</media>
										<logginginfo>
											<description></description>
											<scene></scene>
											<shottake></shottake>
											<lognote></lognote>
											<good></good>
											<originalvideofilename></originalvideofilename>
											<originalaudiofilename></originalaudiofilename>
										</logginginfo>
										<colorinfo>
											<lut></lut>
											<lut1></lut1>
											<asc_sop></asc_sop>
											<asc_sat></asc_sat>
											<lut2></lut2>
										</colorinfo>
										<labels>
											<label2>Iris</label2>
										</labels>
									</clip>
									<clip id="masterclip-167" explodedTracks="true">
										<uuid>3a9b24c2-f374-42a0-9443-de3fb8045096</uuid>
										<masterclipid>masterclip-167</masterclipid>
										<ismasterclip>TRUE</ismasterclip>
										<duration>407</duration>
										<rate>
											<timebase>29</timebase>
											<ntsc>FALSE</ntsc>
										</rate>
										<name>czferro_BBZzGzRJSwn_IG.mp4</name>
										<media>
											<video>
												<track>
													<clipitem id="clipitem-891">
														<masterclipid>masterclip-167</masterclipid>
														<name>czferro_BBZzGzRJSwn_IG.mp4</name>
														<rate>
															<timebase>29</timebase>
															<ntsc>FALSE</ntsc>
														</rate>
														<alphatype>none</alphatype>
														<file id="file-161"/>
														<link>
															<linkclipref>clipitem-891</linkclipref>
															<mediatype>video</mediatype>
															<trackindex>1</trackindex>
															<clipindex>1</clipindex>
														</link>
														<link>
															<linkclipref>clipitem-892</linkclipref>
															<mediatype>audio</mediatype>
															<trackindex>1</trackindex>
															<clipindex>1</clipindex>
														</link>
													</clipitem>
												</track>
											</video>
											<audio>
												<track>
													<clipitem id="clipitem-892">
														<masterclipid>masterclip-167</masterclipid>
														<name>czferro_BBZzGzRJSwn_IG.mp4</name>
														<rate>
															<timebase>29</timebase>
															<ntsc>FALSE</ntsc>
														</rate>
														<file id="file-161"/>
														<sourcetrack>
															<mediatype>audio</mediatype>
															<trackindex>1</trackindex>
														</sourcetrack>
														<link>
															<linkclipref>clipitem-891</linkclipref>
															<mediatype>video</mediatype>
															<trackindex>1</trackindex>
															<clipindex>1</clipindex>
														</link>
														<link>
															<linkclipref>clipitem-892</linkclipref>
															<mediatype>audio</mediatype>
															<trackindex>1</trackindex>
															<clipindex>1</clipindex>
														</link>
													</clipitem>
												</track>
											</audio>
										</media>
										<logginginfo>
											<description></description>
											<scene></scene>
											<shottake></shottake>
											<lognote></lognote>
											<good></good>
											<originalvideofilename></originalvideofilename>
											<originalaudiofilename></originalaudiofilename>
										</logginginfo>
										<colorinfo>
											<lut></lut>
											<lut1></lut1>
											<asc_sop></asc_sop>
											<asc_sat></asc_sat>
											<lut2></lut2>
										</colorinfo>
										<labels>
											<label2>Iris</label2>
										</labels>
									</clip>
									<clip id="masterclip-168" explodedTracks="true">
										<uuid>94e4924e-38ce-4f79-b546-74a8eecb2caa</uuid>
										<masterclipid>masterclip-168</masterclipid>
										<ismasterclip>TRUE</ismasterclip>
										<duration>191</duration>
										<rate>
											<timebase>29</timebase>
											<ntsc>FALSE</ntsc>
										</rate>
										<name>czferro_BFsdmZVpS4M_IG.mp4</name>
										<media>
											<video>
												<track>
													<clipitem id="clipitem-893">
														<masterclipid>masterclip-168</masterclipid>
														<name>czferro_BFsdmZVpS4M_IG.mp4</name>
														<rate>
															<timebase>29</timebase>
															<ntsc>FALSE</ntsc>
														</rate>
														<alphatype>none</alphatype>
														<file id="file-162"/>
														<link>
															<linkclipref>clipitem-893</linkclipref>
															<mediatype>video</mediatype>
															<trackindex>1</trackindex>
															<clipindex>1</clipindex>
														</link>
														<link>
															<linkclipref>clipitem-894</linkclipref>
															<mediatype>audio</mediatype>
															<trackindex>1</trackindex>
															<clipindex>1</clipindex>
														</link>
													</clipitem>
												</track>
											</video>
											<audio>
												<track>
													<clipitem id="clipitem-894">
														<masterclipid>masterclip-168</masterclipid>
														<name>czferro_BFsdmZVpS4M_IG.mp4</name>
														<rate>
															<timebase>29</timebase>
															<ntsc>FALSE</ntsc>
														</rate>
														<file id="file-162"/>
														<sourcetrack>
															<mediatype>audio</mediatype>
															<trackindex>1</trackindex>
														</sourcetrack>
														<link>
															<linkclipref>clipitem-893</linkclipref>
															<mediatype>video</mediatype>
															<trackindex>1</trackindex>
															<clipindex>1</clipindex>
														</link>
														<link>
															<linkclipref>clipitem-894</linkclipref>
															<mediatype>audio</mediatype>
															<trackindex>1</trackindex>
															<clipindex>1</clipindex>
														</link>
													</clipitem>
												</track>
											</audio>
										</media>
										<logginginfo>
											<description></description>
											<scene></scene>
											<shottake></shottake>
											<lognote></lognote>
											<good></good>
											<originalvideofilename></originalvideofilename>
											<originalaudiofilename></originalaudiofilename>
										</logginginfo>
										<colorinfo>
											<lut></lut>
											<lut1></lut1>
											<asc_sop></asc_sop>
											<asc_sat></asc_sat>
											<lut2></lut2>
										</colorinfo>
										<labels>
											<label2>Iris</label2>
										</labels>
									</clip>
									<clip id="masterclip-169" explodedTracks="true">
										<uuid>d156f489-b429-4a34-b03e-b7982125758d</uuid>
										<masterclipid>masterclip-169</masterclipid>
										<ismasterclip>TRUE</ismasterclip>
										<duration>212</duration>
										<rate>
											<timebase>30</timebase>
											<ntsc>FALSE</ntsc>
										</rate>
										<name>czferro_BbgtS2xlsIH - 1_IG.mp4</name>
										<media>
											<video>
												<track>
													<clipitem id="clipitem-895">
														<masterclipid>masterclip-169</masterclipid>
														<name>czferro_BbgtS2xlsIH - 1_IG.mp4</name>
														<rate>
															<timebase>30</timebase>
															<ntsc>FALSE</ntsc>
														</rate>
														<alphatype>none</alphatype>
														<file id="file-163"/>
														<link>
															<linkclipref>clipitem-895</linkclipref>
															<mediatype>video</mediatype>
															<trackindex>1</trackindex>
															<clipindex>1</clipindex>
														</link>
														<link>
															<linkclipref>clipitem-896</linkclipref>
															<mediatype>audio</mediatype>
															<trackindex>1</trackindex>
															<clipindex>1</clipindex>
														</link>
													</clipitem>
												</track>
											</video>
											<audio>
												<track>
													<clipitem id="clipitem-896">
														<masterclipid>masterclip-169</masterclipid>
														<name>czferro_BbgtS2xlsIH - 1_IG.mp4</name>
														<rate>
															<timebase>30</timebase>
															<ntsc>FALSE</ntsc>
														</rate>
														<file id="file-163"/>
														<sourcetrack>
															<mediatype>audio</mediatype>
															<trackindex>1</trackindex>
														</sourcetrack>
														<link>
															<linkclipref>clipitem-895</linkclipref>
															<mediatype>video</mediatype>
															<trackindex>1</trackindex>
															<clipindex>1</clipindex>
														</link>
														<link>
															<linkclipref>clipitem-896</linkclipref>
															<mediatype>audio</mediatype>
															<trackindex>1</trackindex>
															<clipindex>1</clipindex>
														</link>
													</clipitem>
												</track>
											</audio>
										</media>
										<logginginfo>
											<description></description>
											<scene></scene>
											<shottake></shottake>
											<lognote></lognote>
											<good></good>
											<originalvideofilename></originalvideofilename>
											<originalaudiofilename></originalaudiofilename>
										</logginginfo>
										<colorinfo>
											<lut></lut>
											<lut1></lut1>
											<asc_sop></asc_sop>
											<asc_sat></asc_sat>
											<lut2></lut2>
										</colorinfo>
										<labels>
											<label2>Iris</label2>
										</labels>
									</clip>
									<clip id="masterclip-170" explodedTracks="true">
										<uuid>e258ed30-3be9-44c1-acb9-71e1a3118693</uuid>
										<masterclipid>masterclip-170</masterclipid>
										<ismasterclip>TRUE</ismasterclip>
										<duration>418</duration>
										<rate>
											<timebase>30</timebase>
											<ntsc>FALSE</ntsc>
										</rate>
										<name>czferro_BbgtS2xlsIH - 2_IG.mp4</name>
										<media>
											<video>
												<track>
													<clipitem id="clipitem-897">
														<masterclipid>masterclip-170</masterclipid>
														<name>czferro_BbgtS2xlsIH - 2_IG.mp4</name>
														<rate>
															<timebase>30</timebase>
															<ntsc>FALSE</ntsc>
														</rate>
														<alphatype>none</alphatype>
														<file id="file-164"/>
														<link>
															<linkclipref>clipitem-897</linkclipref>
															<mediatype>video</mediatype>
															<trackindex>1</trackindex>
															<clipindex>1</clipindex>
														</link>
														<link>
															<linkclipref>clipitem-898</linkclipref>
															<mediatype>audio</mediatype>
															<trackindex>1</trackindex>
															<clipindex>1</clipindex>
														</link>
													</clipitem>
												</track>
											</video>
											<audio>
												<track>
													<clipitem id="clipitem-898">
														<masterclipid>masterclip-170</masterclipid>
														<name>czferro_BbgtS2xlsIH - 2_IG.mp4</name>
														<rate>
															<timebase>30</timebase>
															<ntsc>FALSE</ntsc>
														</rate>
														<file id="file-164"/>
														<sourcetrack>
															<mediatype>audio</mediatype>
															<trackindex>1</trackindex>
														</sourcetrack>
														<link>
															<linkclipref>clipitem-897</linkclipref>
															<mediatype>video</mediatype>
															<trackindex>1</trackindex>
															<clipindex>1</clipindex>
														</link>
														<link>
															<linkclipref>clipitem-898</linkclipref>
															<mediatype>audio</mediatype>
															<trackindex>1</trackindex>
															<clipindex>1</clipindex>
														</link>
													</clipitem>
												</track>
											</audio>
										</media>
										<logginginfo>
											<description></description>
											<scene></scene>
											<shottake></shottake>
											<lognote></lognote>
											<good></good>
											<originalvideofilename></originalvideofilename>
											<originalaudiofilename></originalaudiofilename>
										</logginginfo>
										<colorinfo>
											<lut></lut>
											<lut1></lut1>
											<asc_sop></asc_sop>
											<asc_sat></asc_sat>
											<lut2></lut2>
										</colorinfo>
										<labels>
											<label2>Iris</label2>
										</labels>
									</clip>
									<clip id="masterclip-171" explodedTracks="true">
										<uuid>6d73a219-b5f9-41ef-a862-31064acc6a4f</uuid>
										<masterclipid>masterclip-171</masterclipid>
										<ismasterclip>TRUE</ismasterclip>
										<duration>860</duration>
										<rate>
											<timebase>30</timebase>
											<ntsc>FALSE</ntsc>
										</rate>
										<name>czferro_BXpLYTZFN4f_IG.mp4</name>
										<media>
											<video>
												<track>
													<clipitem id="clipitem-899">
														<masterclipid>masterclip-171</masterclipid>
														<name>czferro_BXpLYTZFN4f_IG.mp4</name>
														<rate>
															<timebase>30</timebase>
															<ntsc>FALSE</ntsc>
														</rate>
														<alphatype>none</alphatype>
														<file id="file-165"/>
														<link>
															<linkclipref>clipitem-899</linkclipref>
															<mediatype>video</mediatype>
															<trackindex>1</trackindex>
															<clipindex>1</clipindex>
														</link>
														<link>
															<linkclipref>clipitem-900</linkclipref>
															<mediatype>audio</mediatype>
															<trackindex>1</trackindex>
															<clipindex>1</clipindex>
														</link>
													</clipitem>
												</track>
											</video>
											<audio>
												<track>
													<clipitem id="clipitem-900">
														<masterclipid>masterclip-171</masterclipid>
														<name>czferro_BXpLYTZFN4f_IG.mp4</name>
														<rate>
															<timebase>30</timebase>
															<ntsc>FALSE</ntsc>
														</rate>
														<file id="file-165"/>
														<sourcetrack>
															<mediatype>audio</mediatype>
															<trackindex>1</trackindex>
														</sourcetrack>
														<link>
															<linkclipref>clipitem-899</linkclipref>
															<mediatype>video</mediatype>
															<trackindex>1</trackindex>
															<clipindex>1</clipindex>
														</link>
														<link>
															<linkclipref>clipitem-900</linkclipref>
															<mediatype>audio</mediatype>
															<trackindex>1</trackindex>
															<clipindex>1</clipindex>
														</link>
													</clipitem>
												</track>
											</audio>
										</media>
										<logginginfo>
											<description></description>
											<scene></scene>
											<shottake></shottake>
											<lognote></lognote>
											<good></good>
											<originalvideofilename></originalvideofilename>
											<originalaudiofilename></originalaudiofilename>
										</logginginfo>
										<colorinfo>
											<lut></lut>
											<lut1></lut1>
											<asc_sop></asc_sop>
											<asc_sat></asc_sat>
											<lut2></lut2>
										</colorinfo>
										<labels>
											<label2>Iris</label2>
										</labels>
									</clip>
								</children>
							</bin>
							<bin>
								<name>modfoxwatercolors</name>
								<children>
									<clip id="masterclip-172" explodedTracks="true">
										<uuid>680663d9-8179-449c-a8d8-f8a7538fc8f3</uuid>
										<masterclipid>masterclip-172</masterclipid>
										<ismasterclip>TRUE</ismasterclip>
										<duration>1527</duration>
										<rate>
											<timebase>30</timebase>
											<ntsc>FALSE</ntsc>
										</rate>
										<name>(modfoxwatercolors)_ChLnG02DBx3_IG.mp4</name>
										<media>
											<video>
												<track>
													<clipitem id="clipitem-901">
														<masterclipid>masterclip-172</masterclipid>
														<name>(modfoxwatercolors)_ChLnG02DBx3_IG.mp4</name>
														<rate>
															<timebase>30</timebase>
															<ntsc>FALSE</ntsc>
														</rate>
														<alphatype>none</alphatype>
														<file id="file-166"/>
														<link>
															<linkclipref>clipitem-901</linkclipref>
															<mediatype>video</mediatype>
															<trackindex>1</trackindex>
															<clipindex>1</clipindex>
														</link>
														<link>
															<linkclipref>clipitem-902</linkclipref>
															<mediatype>audio</mediatype>
															<trackindex>1</trackindex>
															<clipindex>1</clipindex>
															<groupindex>1</groupindex>
														</link>
														<link>
															<linkclipref>clipitem-903</linkclipref>
															<mediatype>audio</mediatype>
															<trackindex>2</trackindex>
															<clipindex>1</clipindex>
															<groupindex>1</groupindex>
														</link>
													</clipitem>
												</track>
											</video>
											<audio>
												<track>
													<clipitem id="clipitem-902">
														<masterclipid>masterclip-172</masterclipid>
														<name>(modfoxwatercolors)_ChLnG02DBx3_IG.mp4</name>
														<rate>
															<timebase>30</timebase>
															<ntsc>FALSE</ntsc>
														</rate>
														<file id="file-166"/>
														<sourcetrack>
															<mediatype>audio</mediatype>
															<trackindex>1</trackindex>
														</sourcetrack>
														<link>
															<linkclipref>clipitem-901</linkclipref>
															<mediatype>video</mediatype>
															<trackindex>1</trackindex>
															<clipindex>1</clipindex>
														</link>
														<link>
															<linkclipref>clipitem-902</linkclipref>
															<mediatype>audio</mediatype>
															<trackindex>1</trackindex>
															<clipindex>1</clipindex>
															<groupindex>1</groupindex>
														</link>
														<link>
															<linkclipref>clipitem-903</linkclipref>
															<mediatype>audio</mediatype>
															<trackindex>2</trackindex>
															<clipindex>1</clipindex>
															<groupindex>1</groupindex>
														</link>
													</clipitem>
												</track>
												<track>
													<clipitem id="clipitem-903">
														<masterclipid>masterclip-172</masterclipid>
														<name>(modfoxwatercolors)_ChLnG02DBx3_IG.mp4</name>
														<rate>
															<timebase>30</timebase>
															<ntsc>FALSE</ntsc>
														</rate>
														<file id="file-166"/>
														<sourcetrack>
															<mediatype>audio</mediatype>
															<trackindex>2</trackindex>
														</sourcetrack>
														<link>
															<linkclipref>clipitem-901</linkclipref>
															<mediatype>video</mediatype>
															<trackindex>1</trackindex>
															<clipindex>1</clipindex>
														</link>
														<link>
															<linkclipref>clipitem-902</linkclipref>
															<mediatype>audio</mediatype>
															<trackindex>1</trackindex>
															<clipindex>1</clipindex>
															<groupindex>1</groupindex>
														</link>
														<link>
															<linkclipref>clipitem-903</linkclipref>
															<mediatype>audio</mediatype>
															<trackindex>2</trackindex>
															<clipindex>1</clipindex>
															<groupindex>1</groupindex>
														</link>
													</clipitem>
												</track>
											</audio>
										</media>
										<logginginfo>
											<description></description>
											<scene></scene>
											<shottake></shottake>
											<lognote></lognote>
											<good></good>
											<originalvideofilename></originalvideofilename>
											<originalaudiofilename></originalaudiofilename>
										</logginginfo>
										<colorinfo>
											<lut></lut>
											<lut1></lut1>
											<asc_sop></asc_sop>
											<asc_sat></asc_sat>
											<lut2></lut2>
										</colorinfo>
										<labels>
											<label2>Iris</label2>
										</labels>
									</clip>
									<clip id="masterclip-173" explodedTracks="true">
										<uuid>0f4202da-6654-4e33-9938-7e1806ecdd9d</uuid>
										<masterclipid>masterclip-173</masterclipid>
										<ismasterclip>TRUE</ismasterclip>
										<duration>1814</duration>
										<rate>
											<timebase>30</timebase>
											<ntsc>FALSE</ntsc>
										</rate>
										<name>(modfoxwatercolors)_Cgpi5E6JOaM_IG.mp4</name>
										<media>
											<video>
												<track>
													<clipitem id="clipitem-904">
														<masterclipid>masterclip-173</masterclipid>
														<name>(modfoxwatercolors)_Cgpi5E6JOaM_IG.mp4</name>
														<rate>
															<timebase>30</timebase>
															<ntsc>FALSE</ntsc>
														</rate>
														<alphatype>none</alphatype>
														<file id="file-167"/>
														<link>
															<linkclipref>clipitem-904</linkclipref>
															<mediatype>video</mediatype>
															<trackindex>1</trackindex>
															<clipindex>1</clipindex>
														</link>
														<link>
															<linkclipref>clipitem-905</linkclipref>
															<mediatype>audio</mediatype>
															<trackindex>1</trackindex>
															<clipindex>1</clipindex>
															<groupindex>1</groupindex>
														</link>
														<link>
															<linkclipref>clipitem-906</linkclipref>
															<mediatype>audio</mediatype>
															<trackindex>2</trackindex>
															<clipindex>1</clipindex>
															<groupindex>1</groupindex>
														</link>
													</clipitem>
												</track>
											</video>
											<audio>
												<track>
													<clipitem id="clipitem-905">
														<masterclipid>masterclip-173</masterclipid>
														<name>(modfoxwatercolors)_Cgpi5E6JOaM_IG.mp4</name>
														<rate>
															<timebase>30</timebase>
															<ntsc>FALSE</ntsc>
														</rate>
														<file id="file-167"/>
														<sourcetrack>
															<mediatype>audio</mediatype>
															<trackindex>1</trackindex>
														</sourcetrack>
														<link>
															<linkclipref>clipitem-904</linkclipref>
															<mediatype>video</mediatype>
															<trackindex>1</trackindex>
															<clipindex>1</clipindex>
														</link>
														<link>
															<linkclipref>clipitem-905</linkclipref>
															<mediatype>audio</mediatype>
															<trackindex>1</trackindex>
															<clipindex>1</clipindex>
															<groupindex>1</groupindex>
														</link>
														<link>
															<linkclipref>clipitem-906</linkclipref>
															<mediatype>audio</mediatype>
															<trackindex>2</trackindex>
															<clipindex>1</clipindex>
															<groupindex>1</groupindex>
														</link>
													</clipitem>
												</track>
												<track>
													<clipitem id="clipitem-906">
														<masterclipid>masterclip-173</masterclipid>
														<name>(modfoxwatercolors)_Cgpi5E6JOaM_IG.mp4</name>
														<rate>
															<timebase>30</timebase>
															<ntsc>FALSE</ntsc>
														</rate>
														<file id="file-167"/>
														<sourcetrack>
															<mediatype>audio</mediatype>
															<trackindex>2</trackindex>
														</sourcetrack>
														<link>
															<linkclipref>clipitem-904</linkclipref>
															<mediatype>video</mediatype>
															<trackindex>1</trackindex>
															<clipindex>1</clipindex>
														</link>
														<link>
															<linkclipref>clipitem-905</linkclipref>
															<mediatype>audio</mediatype>
															<trackindex>1</trackindex>
															<clipindex>1</clipindex>
															<groupindex>1</groupindex>
														</link>
														<link>
															<linkclipref>clipitem-906</linkclipref>
															<mediatype>audio</mediatype>
															<trackindex>2</trackindex>
															<clipindex>1</clipindex>
															<groupindex>1</groupindex>
														</link>
													</clipitem>
												</track>
											</audio>
										</media>
										<logginginfo>
											<description></description>
											<scene></scene>
											<shottake></shottake>
											<lognote></lognote>
											<good></good>
											<originalvideofilename></originalvideofilename>
											<originalaudiofilename></originalaudiofilename>
										</logginginfo>
										<colorinfo>
											<lut></lut>
											<lut1></lut1>
											<asc_sop></asc_sop>
											<asc_sat></asc_sat>
											<lut2></lut2>
										</colorinfo>
										<labels>
											<label2>Iris</label2>
										</labels>
									</clip>
								</children>
							</bin>
							<bin>
								<name>lemonade inc 04-20</name>
								<children>
									<clip id="masterclip-174" explodedTracks="true">
										<uuid>c3763e33-d1c9-4647-bc18-995ed3099f9f</uuid>
										<masterclipid>masterclip-174</masterclipid>
										<ismasterclip>TRUE</ismasterclip>
										<duration>839</duration>
										<rate>
											<timebase>29</timebase>
											<ntsc>FALSE</ntsc>
										</rate>
										<name>lemonade_inc - B2PDw4TgvsI.mp4</name>
										<media>
											<video>
												<track>
													<clipitem id="clipitem-907">
														<masterclipid>masterclip-174</masterclipid>
														<name>lemonade_inc - B2PDw4TgvsI.mp4</name>
														<rate>
															<timebase>29</timebase>
															<ntsc>FALSE</ntsc>
														</rate>
														<alphatype>none</alphatype>
														<file id="file-168"/>
														<link>
															<linkclipref>clipitem-907</linkclipref>
															<mediatype>video</mediatype>
															<trackindex>1</trackindex>
															<clipindex>1</clipindex>
														</link>
														<link>
															<linkclipref>clipitem-908</linkclipref>
															<mediatype>audio</mediatype>
															<trackindex>1</trackindex>
															<clipindex>1</clipindex>
															<groupindex>1</groupindex>
														</link>
														<link>
															<linkclipref>clipitem-909</linkclipref>
															<mediatype>audio</mediatype>
															<trackindex>2</trackindex>
															<clipindex>1</clipindex>
															<groupindex>1</groupindex>
														</link>
													</clipitem>
												</track>
											</video>
											<audio>
												<track>
													<clipitem id="clipitem-908">
														<masterclipid>masterclip-174</masterclipid>
														<name>lemonade_inc - B2PDw4TgvsI.mp4</name>
														<rate>
															<timebase>29</timebase>
															<ntsc>FALSE</ntsc>
														</rate>
														<file id="file-168"/>
														<sourcetrack>
															<mediatype>audio</mediatype>
															<trackindex>1</trackindex>
														</sourcetrack>
														<link>
															<linkclipref>clipitem-907</linkclipref>
															<mediatype>video</mediatype>
															<trackindex>1</trackindex>
															<clipindex>1</clipindex>
														</link>
														<link>
															<linkclipref>clipitem-908</linkclipref>
															<mediatype>audio</mediatype>
															<trackindex>1</trackindex>
															<clipindex>1</clipindex>
															<groupindex>1</groupindex>
														</link>
														<link>
															<linkclipref>clipitem-909</linkclipref>
															<mediatype>audio</mediatype>
															<trackindex>2</trackindex>
															<clipindex>1</clipindex>
															<groupindex>1</groupindex>
														</link>
													</clipitem>
												</track>
												<track>
													<clipitem id="clipitem-909">
														<masterclipid>masterclip-174</masterclipid>
														<name>lemonade_inc - B2PDw4TgvsI.mp4</name>
														<rate>
															<timebase>29</timebase>
															<ntsc>FALSE</ntsc>
														</rate>
														<file id="file-168"/>
														<sourcetrack>
															<mediatype>audio</mediatype>
															<trackindex>2</trackindex>
														</sourcetrack>
														<link>
															<linkclipref>clipitem-907</linkclipref>
															<mediatype>video</mediatype>
															<trackindex>1</trackindex>
															<clipindex>1</clipindex>
														</link>
														<link>
															<linkclipref>clipitem-908</linkclipref>
															<mediatype>audio</mediatype>
															<trackindex>1</trackindex>
															<clipindex>1</clipindex>
															<groupindex>1</groupindex>
														</link>
														<link>
															<linkclipref>clipitem-909</linkclipref>
															<mediatype>audio</mediatype>
															<trackindex>2</trackindex>
															<clipindex>1</clipindex>
															<groupindex>1</groupindex>
														</link>
													</clipitem>
												</track>
											</audio>
										</media>
										<logginginfo>
											<description></description>
											<scene></scene>
											<shottake></shottake>
											<lognote></lognote>
											<good></good>
											<originalvideofilename></originalvideofilename>
											<originalaudiofilename></originalaudiofilename>
										</logginginfo>
										<colorinfo>
											<lut></lut>
											<lut1></lut1>
											<asc_sop></asc_sop>
											<asc_sat></asc_sat>
											<lut2></lut2>
										</colorinfo>
										<labels>
											<label2>Iris</label2>
										</labels>
									</clip>
									<clip id="masterclip-175" explodedTracks="true">
										<uuid>728bc7d1-d218-4e9f-aa71-5063348579a7</uuid>
										<masterclipid>masterclip-175</masterclipid>
										<ismasterclip>TRUE</ismasterclip>
										<duration>649</duration>
										<rate>
											<timebase>30</timebase>
											<ntsc>FALSE</ntsc>
										</rate>
										<name>lemonade_inc - BzfyXYzgJDI.mp4</name>
										<media>
											<video>
												<track>
													<clipitem id="clipitem-910">
														<masterclipid>masterclip-175</masterclipid>
														<name>lemonade_inc - BzfyXYzgJDI.mp4</name>
														<rate>
															<timebase>30</timebase>
															<ntsc>FALSE</ntsc>
														</rate>
														<alphatype>none</alphatype>
														<file id="file-169"/>
														<link>
															<linkclipref>clipitem-910</linkclipref>
															<mediatype>video</mediatype>
															<trackindex>1</trackindex>
															<clipindex>1</clipindex>
														</link>
														<link>
															<linkclipref>clipitem-911</linkclipref>
															<mediatype>audio</mediatype>
															<trackindex>1</trackindex>
															<clipindex>1</clipindex>
															<groupindex>1</groupindex>
														</link>
														<link>
															<linkclipref>clipitem-912</linkclipref>
															<mediatype>audio</mediatype>
															<trackindex>2</trackindex>
															<clipindex>1</clipindex>
															<groupindex>1</groupindex>
														</link>
													</clipitem>
												</track>
											</video>
											<audio>
												<track>
													<clipitem id="clipitem-911">
														<masterclipid>masterclip-175</masterclipid>
														<name>lemonade_inc - BzfyXYzgJDI.mp4</name>
														<rate>
															<timebase>30</timebase>
															<ntsc>FALSE</ntsc>
														</rate>
														<file id="file-169"/>
														<sourcetrack>
															<mediatype>audio</mediatype>
															<trackindex>1</trackindex>
														</sourcetrack>
														<link>
															<linkclipref>clipitem-910</linkclipref>
															<mediatype>video</mediatype>
															<trackindex>1</trackindex>
															<clipindex>1</clipindex>
														</link>
														<link>
															<linkclipref>clipitem-911</linkclipref>
															<mediatype>audio</mediatype>
															<trackindex>1</trackindex>
															<clipindex>1</clipindex>
															<groupindex>1</groupindex>
														</link>
														<link>
															<linkclipref>clipitem-912</linkclipref>
															<mediatype>audio</mediatype>
															<trackindex>2</trackindex>
															<clipindex>1</clipindex>
															<groupindex>1</groupindex>
														</link>
													</clipitem>
												</track>
												<track>
													<clipitem id="clipitem-912">
														<masterclipid>masterclip-175</masterclipid>
														<name>lemonade_inc - BzfyXYzgJDI.mp4</name>
														<rate>
															<timebase>30</timebase>
															<ntsc>FALSE</ntsc>
														</rate>
														<file id="file-169"/>
														<sourcetrack>
															<mediatype>audio</mediatype>
															<trackindex>2</trackindex>
														</sourcetrack>
														<link>
															<linkclipref>clipitem-910</linkclipref>
															<mediatype>video</mediatype>
															<trackindex>1</trackindex>
															<clipindex>1</clipindex>
														</link>
														<link>
															<linkclipref>clipitem-911</linkclipref>
															<mediatype>audio</mediatype>
															<trackindex>1</trackindex>
															<clipindex>1</clipindex>
															<groupindex>1</groupindex>
														</link>
														<link>
															<linkclipref>clipitem-912</linkclipref>
															<mediatype>audio</mediatype>
															<trackindex>2</trackindex>
															<clipindex>1</clipindex>
															<groupindex>1</groupindex>
														</link>
													</clipitem>
												</track>
											</audio>
										</media>
										<logginginfo>
											<description></description>
											<scene></scene>
											<shottake></shottake>
											<lognote></lognote>
											<good></good>
											<originalvideofilename></originalvideofilename>
											<originalaudiofilename></originalaudiofilename>
										</logginginfo>
										<colorinfo>
											<lut></lut>
											<lut1></lut1>
											<asc_sop></asc_sop>
											<asc_sat></asc_sat>
											<lut2></lut2>
										</colorinfo>
										<labels>
											<label2>Iris</label2>
										</labels>
									</clip>
									<clip id="masterclip-176" explodedTracks="true">
										<uuid>7de72104-5040-48bd-8775-7faab08c8b3e</uuid>
										<masterclipid>masterclip-176</masterclipid>
										<ismasterclip>TRUE</ismasterclip>
										<duration>946</duration>
										<rate>
											<timebase>29</timebase>
											<ntsc>FALSE</ntsc>
										</rate>
										<name>lemonade_inc - B8yyZ1Eg__x.mp4</name>
										<media>
											<video>
												<track>
													<clipitem id="clipitem-913">
														<masterclipid>masterclip-176</masterclipid>
														<name>lemonade_inc - B8yyZ1Eg__x.mp4</name>
														<rate>
															<timebase>29</timebase>
															<ntsc>FALSE</ntsc>
														</rate>
														<alphatype>none</alphatype>
														<file id="file-170"/>
														<link>
															<linkclipref>clipitem-913</linkclipref>
															<mediatype>video</mediatype>
															<trackindex>1</trackindex>
															<clipindex>1</clipindex>
														</link>
														<link>
															<linkclipref>clipitem-914</linkclipref>
															<mediatype>audio</mediatype>
															<trackindex>1</trackindex>
															<clipindex>1</clipindex>
															<groupindex>1</groupindex>
														</link>
														<link>
															<linkclipref>clipitem-915</linkclipref>
															<mediatype>audio</mediatype>
															<trackindex>2</trackindex>
															<clipindex>1</clipindex>
															<groupindex>1</groupindex>
														</link>
													</clipitem>
												</track>
											</video>
											<audio>
												<track>
													<clipitem id="clipitem-914">
														<masterclipid>masterclip-176</masterclipid>
														<name>lemonade_inc - B8yyZ1Eg__x.mp4</name>
														<rate>
															<timebase>29</timebase>
															<ntsc>FALSE</ntsc>
														</rate>
														<file id="file-170"/>
														<sourcetrack>
															<mediatype>audio</mediatype>
															<trackindex>1</trackindex>
														</sourcetrack>
														<link>
															<linkclipref>clipitem-913</linkclipref>
															<mediatype>video</mediatype>
															<trackindex>1</trackindex>
															<clipindex>1</clipindex>
														</link>
														<link>
															<linkclipref>clipitem-914</linkclipref>
															<mediatype>audio</mediatype>
															<trackindex>1</trackindex>
															<clipindex>1</clipindex>
															<groupindex>1</groupindex>
														</link>
														<link>
															<linkclipref>clipitem-915</linkclipref>
															<mediatype>audio</mediatype>
															<trackindex>2</trackindex>
															<clipindex>1</clipindex>
															<groupindex>1</groupindex>
														</link>
													</clipitem>
												</track>
												<track>
													<clipitem id="clipitem-915">
														<masterclipid>masterclip-176</masterclipid>
														<name>lemonade_inc - B8yyZ1Eg__x.mp4</name>
														<rate>
															<timebase>29</timebase>
															<ntsc>FALSE</ntsc>
														</rate>
														<file id="file-170"/>
														<sourcetrack>
															<mediatype>audio</mediatype>
															<trackindex>2</trackindex>
														</sourcetrack>
														<link>
															<linkclipref>clipitem-913</linkclipref>
															<mediatype>video</mediatype>
															<trackindex>1</trackindex>
															<clipindex>1</clipindex>
														</link>
														<link>
															<linkclipref>clipitem-914</linkclipref>
															<mediatype>audio</mediatype>
															<trackindex>1</trackindex>
															<clipindex>1</clipindex>
															<groupindex>1</groupindex>
														</link>
														<link>
															<linkclipref>clipitem-915</linkclipref>
															<mediatype>audio</mediatype>
															<trackindex>2</trackindex>
															<clipindex>1</clipindex>
															<groupindex>1</groupindex>
														</link>
													</clipitem>
												</track>
											</audio>
										</media>
										<logginginfo>
											<description></description>
											<scene></scene>
											<shottake></shottake>
											<lognote></lognote>
											<good></good>
											<originalvideofilename></originalvideofilename>
											<originalaudiofilename></originalaudiofilename>
										</logginginfo>
										<colorinfo>
											<lut></lut>
											<lut1></lut1>
											<asc_sop></asc_sop>
											<asc_sat></asc_sat>
											<lut2></lut2>
										</colorinfo>
										<labels>
											<label2>Iris</label2>
										</labels>
									</clip>
									<clip id="masterclip-177" explodedTracks="true">
										<uuid>88c30119-54d6-4774-8586-6aebf891a54d</uuid>
										<masterclipid>masterclip-177</masterclipid>
										<ismasterclip>TRUE</ismasterclip>
										<duration>690</duration>
										<rate>
											<timebase>29</timebase>
											<ntsc>FALSE</ntsc>
										</rate>
										<name>lemonade_inc - BzqLOTlAjxp.mp4</name>
										<media>
											<video>
												<track>
													<clipitem id="clipitem-916">
														<masterclipid>masterclip-177</masterclipid>
														<name>lemonade_inc - BzqLOTlAjxp.mp4</name>
														<rate>
															<timebase>29</timebase>
															<ntsc>FALSE</ntsc>
														</rate>
														<alphatype>none</alphatype>
														<file id="file-171"/>
														<link>
															<linkclipref>clipitem-916</linkclipref>
															<mediatype>video</mediatype>
															<trackindex>1</trackindex>
															<clipindex>1</clipindex>
														</link>
														<link>
															<linkclipref>clipitem-917</linkclipref>
															<mediatype>audio</mediatype>
															<trackindex>1</trackindex>
															<clipindex>1</clipindex>
															<groupindex>1</groupindex>
														</link>
														<link>
															<linkclipref>clipitem-918</linkclipref>
															<mediatype>audio</mediatype>
															<trackindex>2</trackindex>
															<clipindex>1</clipindex>
															<groupindex>1</groupindex>
														</link>
													</clipitem>
												</track>
											</video>
											<audio>
												<track>
													<clipitem id="clipitem-917">
														<masterclipid>masterclip-177</masterclipid>
														<name>lemonade_inc - BzqLOTlAjxp.mp4</name>
														<rate>
															<timebase>29</timebase>
															<ntsc>FALSE</ntsc>
														</rate>
														<file id="file-171"/>
														<sourcetrack>
															<mediatype>audio</mediatype>
															<trackindex>1</trackindex>
														</sourcetrack>
														<link>
															<linkclipref>clipitem-916</linkclipref>
															<mediatype>video</mediatype>
															<trackindex>1</trackindex>
															<clipindex>1</clipindex>
														</link>
														<link>
															<linkclipref>clipitem-917</linkclipref>
															<mediatype>audio</mediatype>
															<trackindex>1</trackindex>
															<clipindex>1</clipindex>
															<groupindex>1</groupindex>
														</link>
														<link>
															<linkclipref>clipitem-918</linkclipref>
															<mediatype>audio</mediatype>
															<trackindex>2</trackindex>
															<clipindex>1</clipindex>
															<groupindex>1</groupindex>
														</link>
													</clipitem>
												</track>
												<track>
													<clipitem id="clipitem-918">
														<masterclipid>masterclip-177</masterclipid>
														<name>lemonade_inc - BzqLOTlAjxp.mp4</name>
														<rate>
															<timebase>29</timebase>
															<ntsc>FALSE</ntsc>
														</rate>
														<file id="file-171"/>
														<sourcetrack>
															<mediatype>audio</mediatype>
															<trackindex>2</trackindex>
														</sourcetrack>
														<link>
															<linkclipref>clipitem-916</linkclipref>
															<mediatype>video</mediatype>
															<trackindex>1</trackindex>
															<clipindex>1</clipindex>
														</link>
														<link>
															<linkclipref>clipitem-917</linkclipref>
															<mediatype>audio</mediatype>
															<trackindex>1</trackindex>
															<clipindex>1</clipindex>
															<groupindex>1</groupindex>
														</link>
														<link>
															<linkclipref>clipitem-918</linkclipref>
															<mediatype>audio</mediatype>
															<trackindex>2</trackindex>
															<clipindex>1</clipindex>
															<groupindex>1</groupindex>
														</link>
													</clipitem>
												</track>
											</audio>
										</media>
										<logginginfo>
											<description></description>
											<scene></scene>
											<shottake></shottake>
											<lognote></lognote>
											<good></good>
											<originalvideofilename></originalvideofilename>
											<originalaudiofilename></originalaudiofilename>
										</logginginfo>
										<colorinfo>
											<lut></lut>
											<lut1></lut1>
											<asc_sop></asc_sop>
											<asc_sat></asc_sat>
											<lut2></lut2>
										</colorinfo>
										<labels>
											<label2>Iris</label2>
										</labels>
									</clip>
								</children>
							</bin>
							<bin>
								<name>chalktingzz</name>
								<children>
									<clip id="masterclip-185" explodedTracks="true">
										<uuid>f6adc5d1-1d34-4c48-b65f-c00652115e17</uuid>
										<masterclipid>masterclip-185</masterclipid>
										<ismasterclip>TRUE</ismasterclip>
										<duration>1790</duration>
										<rate>
											<timebase>30</timebase>
											<ntsc>FALSE</ntsc>
										</rate>
										<name>(chalktingzz)_Bxgo8qGFfF7_IG.mp4</name>
										<media>
											<video>
												<track>
													<clipitem id="clipitem-919">
														<masterclipid>masterclip-185</masterclipid>
														<name>(chalktingzz)_Bxgo8qGFfF7_IG.mp4</name>
														<rate>
															<timebase>30</timebase>
															<ntsc>FALSE</ntsc>
														</rate>
														<alphatype>none</alphatype>
														<file id="file-179"/>
														<link>
															<linkclipref>clipitem-919</linkclipref>
															<mediatype>video</mediatype>
															<trackindex>1</trackindex>
															<clipindex>1</clipindex>
														</link>
														<link>
															<linkclipref>clipitem-920</linkclipref>
															<mediatype>audio</mediatype>
															<trackindex>1</trackindex>
															<clipindex>1</clipindex>
															<groupindex>1</groupindex>
														</link>
														<link>
															<linkclipref>clipitem-921</linkclipref>
															<mediatype>audio</mediatype>
															<trackindex>2</trackindex>
															<clipindex>1</clipindex>
															<groupindex>1</groupindex>
														</link>
													</clipitem>
												</track>
											</video>
											<audio>
												<track>
													<clipitem id="clipitem-920">
														<masterclipid>masterclip-185</masterclipid>
														<name>(chalktingzz)_Bxgo8qGFfF7_IG.mp4</name>
														<rate>
															<timebase>30</timebase>
															<ntsc>FALSE</ntsc>
														</rate>
														<file id="file-179"/>
														<sourcetrack>
															<mediatype>audio</mediatype>
															<trackindex>1</trackindex>
														</sourcetrack>
														<link>
															<linkclipref>clipitem-919</linkclipref>
															<mediatype>video</mediatype>
															<trackindex>1</trackindex>
															<clipindex>1</clipindex>
														</link>
														<link>
															<linkclipref>clipitem-920</linkclipref>
															<mediatype>audio</mediatype>
															<trackindex>1</trackindex>
															<clipindex>1</clipindex>
															<groupindex>1</groupindex>
														</link>
														<link>
															<linkclipref>clipitem-921</linkclipref>
															<mediatype>audio</mediatype>
															<trackindex>2</trackindex>
															<clipindex>1</clipindex>
															<groupindex>1</groupindex>
														</link>
													</clipitem>
												</track>
												<track>
													<clipitem id="clipitem-921">
														<masterclipid>masterclip-185</masterclipid>
														<name>(chalktingzz)_Bxgo8qGFfF7_IG.mp4</name>
														<rate>
															<timebase>30</timebase>
															<ntsc>FALSE</ntsc>
														</rate>
														<file id="file-179"/>
														<sourcetrack>
															<mediatype>audio</mediatype>
															<trackindex>2</trackindex>
														</sourcetrack>
														<link>
															<linkclipref>clipitem-919</linkclipref>
															<mediatype>video</mediatype>
															<trackindex>1</trackindex>
															<clipindex>1</clipindex>
														</link>
														<link>
															<linkclipref>clipitem-920</linkclipref>
															<mediatype>audio</mediatype>
															<trackindex>1</trackindex>
															<clipindex>1</clipindex>
															<groupindex>1</groupindex>
														</link>
														<link>
															<linkclipref>clipitem-921</linkclipref>
															<mediatype>audio</mediatype>
															<trackindex>2</trackindex>
															<clipindex>1</clipindex>
															<groupindex>1</groupindex>
														</link>
													</clipitem>
												</track>
											</audio>
										</media>
										<logginginfo>
											<description></description>
											<scene></scene>
											<shottake></shottake>
											<lognote></lognote>
											<good></good>
											<originalvideofilename></originalvideofilename>
											<originalaudiofilename></originalaudiofilename>
										</logginginfo>
										<colorinfo>
											<lut></lut>
											<lut1></lut1>
											<asc_sop></asc_sop>
											<asc_sat></asc_sat>
											<lut2></lut2>
										</colorinfo>
										<labels>
											<label2>Iris</label2>
										</labels>
									</clip>
								</children>
							</bin>
							<bin>
								<name>all_that_glitters_asmr 3-20</name>
								<children>
									<clip id="masterclip-186" explodedTracks="true">
										<uuid>8bf5ec59-e3f7-4d9a-b647-7ae0906cc5fe</uuid>
										<masterclipid>masterclip-186</masterclipid>
										<ismasterclip>TRUE</ismasterclip>
										<duration>1596</duration>
										<rate>
											<timebase>30</timebase>
											<ntsc>FALSE</ntsc>
										</rate>
										<name>(all_that_glitters_asmr)_B1ebLFPhpz2 - 2_IG.mp4</name>
										<media>
											<video>
												<track>
													<clipitem id="clipitem-922">
														<masterclipid>masterclip-186</masterclipid>
														<name>(all_that_glitters_asmr)_B1ebLFPhpz2 - 2_IG.mp4</name>
														<rate>
															<timebase>30</timebase>
															<ntsc>FALSE</ntsc>
														</rate>
														<alphatype>none</alphatype>
														<file id="file-180"/>
														<link>
															<linkclipref>clipitem-922</linkclipref>
															<mediatype>video</mediatype>
															<trackindex>1</trackindex>
															<clipindex>1</clipindex>
														</link>
														<link>
															<linkclipref>clipitem-923</linkclipref>
															<mediatype>audio</mediatype>
															<trackindex>1</trackindex>
															<clipindex>1</clipindex>
															<groupindex>1</groupindex>
														</link>
														<link>
															<linkclipref>clipitem-924</linkclipref>
															<mediatype>audio</mediatype>
															<trackindex>2</trackindex>
															<clipindex>1</clipindex>
															<groupindex>1</groupindex>
														</link>
													</clipitem>
												</track>
											</video>
											<audio>
												<track>
													<clipitem id="clipitem-923">
														<masterclipid>masterclip-186</masterclipid>
														<name>(all_that_glitters_asmr)_B1ebLFPhpz2 - 2_IG.mp4</name>
														<rate>
															<timebase>30</timebase>
															<ntsc>FALSE</ntsc>
														</rate>
														<file id="file-180"/>
														<sourcetrack>
															<mediatype>audio</mediatype>
															<trackindex>1</trackindex>
														</sourcetrack>
														<link>
															<linkclipref>clipitem-922</linkclipref>
															<mediatype>video</mediatype>
															<trackindex>1</trackindex>
															<clipindex>1</clipindex>
														</link>
														<link>
															<linkclipref>clipitem-923</linkclipref>
															<mediatype>audio</mediatype>
															<trackindex>1</trackindex>
															<clipindex>1</clipindex>
															<groupindex>1</groupindex>
														</link>
														<link>
															<linkclipref>clipitem-924</linkclipref>
															<mediatype>audio</mediatype>
															<trackindex>2</trackindex>
															<clipindex>1</clipindex>
															<groupindex>1</groupindex>
														</link>
													</clipitem>
												</track>
												<track>
													<clipitem id="clipitem-924">
														<masterclipid>masterclip-186</masterclipid>
														<name>(all_that_glitters_asmr)_B1ebLFPhpz2 - 2_IG.mp4</name>
														<rate>
															<timebase>30</timebase>
															<ntsc>FALSE</ntsc>
														</rate>
														<file id="file-180"/>
														<sourcetrack>
															<mediatype>audio</mediatype>
															<trackindex>2</trackindex>
														</sourcetrack>
														<link>
															<linkclipref>clipitem-922</linkclipref>
															<mediatype>video</mediatype>
															<trackindex>1</trackindex>
															<clipindex>1</clipindex>
														</link>
														<link>
															<linkclipref>clipitem-923</linkclipref>
															<mediatype>audio</mediatype>
															<trackindex>1</trackindex>
															<clipindex>1</clipindex>
															<groupindex>1</groupindex>
														</link>
														<link>
															<linkclipref>clipitem-924</linkclipref>
															<mediatype>audio</mediatype>
															<trackindex>2</trackindex>
															<clipindex>1</clipindex>
															<groupindex>1</groupindex>
														</link>
													</clipitem>
												</track>
											</audio>
										</media>
										<logginginfo>
											<description></description>
											<scene></scene>
											<shottake></shottake>
											<lognote></lognote>
											<good></good>
											<originalvideofilename></originalvideofilename>
											<originalaudiofilename></originalaudiofilename>
										</logginginfo>
										<colorinfo>
											<lut></lut>
											<lut1></lut1>
											<asc_sop></asc_sop>
											<asc_sat></asc_sat>
											<lut2></lut2>
										</colorinfo>
										<labels>
											<label2>Iris</label2>
										</labels>
									</clip>
								</children>
							</bin>
						</children>
					</bin>
				</children>
			</bin>
			<clip id="masterclip-122" explodedTracks="true">
				<uuid>8f68d673-6780-4455-8ad5-da822c407ba3</uuid>
				<masterclipid>masterclip-122</masterclipid>
				<ismasterclip>TRUE</ismasterclip>
				<duration>150</duration>
				<rate>
					<timebase>30</timebase>
					<ntsc>TRUE</ntsc>
				</rate>
				<in>0</in>
				<out>149</out>
				<name>Adjustment Layer</name>
				<media>
					<video>
						<track>
							<clipitem id="clipitem-925">
								<masterclipid>masterclip-122</masterclipid>
								<name>Adjustment Layer</name>
								<rate>
									<timebase>30</timebase>
									<ntsc>TRUE</ntsc>
								</rate>
								<alphatype>none</alphatype>
								<file id="file-121"/>
							</clipitem>
						</track>
					</video>
				</media>
				<logginginfo>
					<description></description>
					<scene></scene>
					<shottake></shottake>
					<lognote></lognote>
					<good></good>
					<originalvideofilename></originalvideofilename>
					<originalaudiofilename></originalaudiofilename>
				</logginginfo>
				<colorinfo>
					<lut></lut>
					<lut1></lut1>
					<asc_sop></asc_sop>
					<asc_sat></asc_sat>
					<lut2></lut2>
				</colorinfo>
				<labels>
					<label2>Lavender</label2>
				</labels>
			</clip>
			<bin>
				<name>06_Misc</name>
				<labels>
					<label2>Brown</label2>
				</labels>
				<children>
					<bin>
						<name>04_Template Assets</name>
						<children>
							<bin>
								<name>00_OSTV</name>
								<children>
									<bin>
										<name>L3</name>
										<children>
											<clip id="masterclip-85" explodedTracks="true">
												<uuid>d91bbe3a-621c-4ec6-99b5-64cf3ea10705</uuid>
												<masterclipid>masterclip-85</masterclipid>
												<ismasterclip>TRUE</ismasterclip>
												<duration>421</duration>
												<rate>
													<timebase>30</timebase>
													<ntsc>FALSE</ntsc>
												</rate>
												<name># Oddly Watermark.mov</name>
												<media>
													<video>
														<track>
															<clipitem id="clipitem-926">
																<masterclipid>masterclip-85</masterclipid>
																<name># Oddly Watermark.mov</name>
																<rate>
																	<timebase>30</timebase>
																	<ntsc>FALSE</ntsc>
																</rate>
																<alphatype>none</alphatype>
																<file id="file-85"/>
															</clipitem>
														</track>
													</video>
												</media>
												<logginginfo>
													<description></description>
													<scene></scene>
													<shottake></shottake>
													<lognote></lognote>
													<good></good>
													<originalvideofilename></originalvideofilename>
													<originalaudiofilename></originalaudiofilename>
												</logginginfo>
												<colorinfo>
													<lut></lut>
													<lut1></lut1>
													<asc_sop></asc_sop>
													<asc_sat></asc_sat>
													<lut2></lut2>
												</colorinfo>
												<labels>
													<label2>Violet</label2>
												</labels>
											</clip>
											<clip id="masterclip-86" explodedTracks="true">
												<uuid>324953a0-dd54-4747-b0e2-11a7510909c7</uuid>
												<masterclipid>masterclip-86</masterclipid>
												<ismasterclip>TRUE</ismasterclip>
												<duration>150</duration>
												<rate>
													<timebase>30</timebase>
													<ntsc>TRUE</ntsc>
												</rate>
												<in>0</in>
												<out>149</out>
												<name>Lower still.png</name>
												<media>
													<video>
														<track>
															<clipitem id="clipitem-927">
																<masterclipid>masterclip-86</masterclipid>
																<name>Lower still.png</name>
																<rate>
																	<timebase>30</timebase>
																	<ntsc>TRUE</ntsc>
																</rate>
																<alphatype>straight</alphatype>
																<file id="file-86"/>
															</clipitem>
														</track>
													</video>
												</media>
												<logginginfo>
													<description></description>
													<scene></scene>
													<shottake></shottake>
													<lognote></lognote>
													<good></good>
													<originalvideofilename></originalvideofilename>
													<originalaudiofilename></originalaudiofilename>
												</logginginfo>
												<colorinfo>
													<lut></lut>
													<lut1></lut1>
													<asc_sop></asc_sop>
													<asc_sat></asc_sat>
													<lut2></lut2>
												</colorinfo>
												<labels>
													<label2>Lavender</label2>
												</labels>
											</clip>
										</children>
									</bin>
								</children>
							</bin>
						</children>
					</bin>
					<bin>
						<name>01_Footage</name>
						<children>
							<bin>
								<name>01 This week's date</name>
								<children>
									<bin>
										<name>Used</name>
										<children>
											<clip id="masterclip-147" explodedTracks="true">
												<uuid>ecfa4638-a311-45a7-ab4c-d6255fc74fa9</uuid>
												<masterclipid>masterclip-147</masterclipid>
												<ismasterclip>TRUE</ismasterclip>
												<duration>24989</duration>
												<rate>
													<timebase>30</timebase>
													<ntsc>TRUE</ntsc>
												</rate>
												<name>(TysyTube Restoration)_Zippo Lighter Restoration D-Day WW2 - 1944 Largest Amphibious Invasion_dmguX9q_DLM_YT.mp4</name>
												<media>
													<video>
														<track>
															<clipitem id="clipitem-928">
																<masterclipid>masterclip-147</masterclipid>
																<name>(TysyTube Restoration)_Zippo Lighter Restoration D-Day WW2 - 1944 Largest Amphibious Invasion_dmguX9q_DLM_YT.mp4</name>
																<rate>
																	<timebase>30</timebase>
																	<ntsc>TRUE</ntsc>
																</rate>
																<alphatype>none</alphatype>
																<file id="file-142"/>
																<link>
																	<linkclipref>clipitem-928</linkclipref>
																	<mediatype>video</mediatype>
																	<trackindex>1</trackindex>
																	<clipindex>1</clipindex>
																</link>
																<link>
																	<linkclipref>clipitem-929</linkclipref>
																	<mediatype>audio</mediatype>
																	<trackindex>1</trackindex>
																	<clipindex>1</clipindex>
																	<groupindex>1</groupindex>
																</link>
																<link>
																	<linkclipref>clipitem-930</linkclipref>
																	<mediatype>audio</mediatype>
																	<trackindex>2</trackindex>
																	<clipindex>1</clipindex>
																	<groupindex>1</groupindex>
																</link>
															</clipitem>
														</track>
													</video>
													<audio>
														<track>
															<clipitem id="clipitem-929">
																<masterclipid>masterclip-147</masterclipid>
																<name>(TysyTube Restoration)_Zippo Lighter Restoration D-Day WW2 - 1944 Largest Amphibious Invasion_dmguX9q_DLM_YT.mp4</name>
																<rate>
																	<timebase>30</timebase>
																	<ntsc>TRUE</ntsc>
																</rate>
																<file id="file-142"/>
																<sourcetrack>
																	<mediatype>audio</mediatype>
																	<trackindex>1</trackindex>
																</sourcetrack>
																<link>
																	<linkclipref>clipitem-928</linkclipref>
																	<mediatype>video</mediatype>
																	<trackindex>1</trackindex>
																	<clipindex>1</clipindex>
																</link>
																<link>
																	<linkclipref>clipitem-929</linkclipref>
																	<mediatype>audio</mediatype>
																	<trackindex>1</trackindex>
																	<clipindex>1</clipindex>
																	<groupindex>1</groupindex>
																</link>
																<link>
																	<linkclipref>clipitem-930</linkclipref>
																	<mediatype>audio</mediatype>
																	<trackindex>2</trackindex>
																	<clipindex>1</clipindex>
																	<groupindex>1</groupindex>
																</link>
															</clipitem>
														</track>
														<track>
															<clipitem id="clipitem-930">
																<masterclipid>masterclip-147</masterclipid>
																<name>(TysyTube Restoration)_Zippo Lighter Restoration D-Day WW2 - 1944 Largest Amphibious Invasion_dmguX9q_DLM_YT.mp4</name>
																<rate>
																	<timebase>30</timebase>
																	<ntsc>TRUE</ntsc>
																</rate>
																<file id="file-142"/>
																<sourcetrack>
																	<mediatype>audio</mediatype>
																	<trackindex>2</trackindex>
																</sourcetrack>
																<link>
																	<linkclipref>clipitem-928</linkclipref>
																	<mediatype>video</mediatype>
																	<trackindex>1</trackindex>
																	<clipindex>1</clipindex>
																</link>
																<link>
																	<linkclipref>clipitem-929</linkclipref>
																	<mediatype>audio</mediatype>
																	<trackindex>1</trackindex>
																	<clipindex>1</clipindex>
																	<groupindex>1</groupindex>
																</link>
																<link>
																	<linkclipref>clipitem-930</linkclipref>
																	<mediatype>audio</mediatype>
																	<trackindex>2</trackindex>
																	<clipindex>1</clipindex>
																	<groupindex>1</groupindex>
																</link>
															</clipitem>
														</track>
													</audio>
												</media>
												<logginginfo>
													<description></description>
													<scene></scene>
													<shottake></shottake>
													<lognote>https://www.youtube.com/watch?v=dmguX9q_DLM</lognote>
													<good></good>
													<originalvideofilename></originalvideofilename>
													<originalaudiofilename></originalaudiofilename>
												</logginginfo>
												<colorinfo>
													<lut></lut>
													<lut1></lut1>
													<asc_sop></asc_sop>
													<asc_sat></asc_sat>
													<lut2></lut2>
												</colorinfo>
												<labels>
													<label2>Iris</label2>
												</labels>
											</clip>
											<clip id="masterclip-165" explodedTracks="true">
												<uuid>83ec1a9e-4c57-4d21-bedf-f9bd0a08b945</uuid>
												<masterclipid>masterclip-165</masterclipid>
												<ismasterclip>TRUE</ismasterclip>
												<duration>16121</duration>
												<rate>
													<timebase>30</timebase>
													<ntsc>TRUE</ntsc>
												</rate>
												<name>(TAS Visuals)_Mandala Meditation TAS Visuals x Maneesh de Moor - Mother's Heartbeat_T7hGCejvAug_YT.mp4</name>
												<media>
													<video>
														<track>
															<clipitem id="clipitem-931">
																<masterclipid>masterclip-165</masterclipid>
																<name>(TAS Visuals)_Mandala Meditation TAS Visuals x Maneesh de Moor - Mother's Heartbeat_T7hGCejvAug_YT.mp4</name>
																<rate>
																	<timebase>30</timebase>
																	<ntsc>TRUE</ntsc>
																</rate>
																<alphatype>none</alphatype>
																<file id="file-159"/>
																<link>
																	<linkclipref>clipitem-931</linkclipref>
																	<mediatype>video</mediatype>
																	<trackindex>1</trackindex>
																	<clipindex>1</clipindex>
																</link>
																<link>
																	<linkclipref>clipitem-932</linkclipref>
																	<mediatype>audio</mediatype>
																	<trackindex>1</trackindex>
																	<clipindex>1</clipindex>
																	<groupindex>1</groupindex>
																</link>
																<link>
																	<linkclipref>clipitem-933</linkclipref>
																	<mediatype>audio</mediatype>
																	<trackindex>2</trackindex>
																	<clipindex>1</clipindex>
																	<groupindex>1</groupindex>
																</link>
															</clipitem>
														</track>
													</video>
													<audio>
														<track>
															<clipitem id="clipitem-932">
																<masterclipid>masterclip-165</masterclipid>
																<name>(TAS Visuals)_Mandala Meditation TAS Visuals x Maneesh de Moor - Mother's Heartbeat_T7hGCejvAug_YT.mp4</name>
																<rate>
																	<timebase>30</timebase>
																	<ntsc>TRUE</ntsc>
																</rate>
																<file id="file-159"/>
																<sourcetrack>
																	<mediatype>audio</mediatype>
																	<trackindex>1</trackindex>
																</sourcetrack>
																<link>
																	<linkclipref>clipitem-931</linkclipref>
																	<mediatype>video</mediatype>
																	<trackindex>1</trackindex>
																	<clipindex>1</clipindex>
																</link>
																<link>
																	<linkclipref>clipitem-932</linkclipref>
																	<mediatype>audio</mediatype>
																	<trackindex>1</trackindex>
																	<clipindex>1</clipindex>
																	<groupindex>1</groupindex>
																</link>
																<link>
																	<linkclipref>clipitem-933</linkclipref>
																	<mediatype>audio</mediatype>
																	<trackindex>2</trackindex>
																	<clipindex>1</clipindex>
																	<groupindex>1</groupindex>
																</link>
															</clipitem>
														</track>
														<track>
															<clipitem id="clipitem-933">
																<masterclipid>masterclip-165</masterclipid>
																<name>(TAS Visuals)_Mandala Meditation TAS Visuals x Maneesh de Moor - Mother's Heartbeat_T7hGCejvAug_YT.mp4</name>
																<rate>
																	<timebase>30</timebase>
																	<ntsc>TRUE</ntsc>
																</rate>
																<file id="file-159"/>
																<sourcetrack>
																	<mediatype>audio</mediatype>
																	<trackindex>2</trackindex>
																</sourcetrack>
																<link>
																	<linkclipref>clipitem-931</linkclipref>
																	<mediatype>video</mediatype>
																	<trackindex>1</trackindex>
																	<clipindex>1</clipindex>
																</link>
																<link>
																	<linkclipref>clipitem-932</linkclipref>
																	<mediatype>audio</mediatype>
																	<trackindex>1</trackindex>
																	<clipindex>1</clipindex>
																	<groupindex>1</groupindex>
																</link>
																<link>
																	<linkclipref>clipitem-933</linkclipref>
																	<mediatype>audio</mediatype>
																	<trackindex>2</trackindex>
																	<clipindex>1</clipindex>
																	<groupindex>1</groupindex>
																</link>
															</clipitem>
														</track>
													</audio>
												</media>
												<logginginfo>
													<description></description>
													<scene></scene>
													<shottake></shottake>
													<lognote>https://www.youtube.com/watch?v=T7hGCejvAug</lognote>
													<good></good>
													<originalvideofilename></originalvideofilename>
													<originalaudiofilename></originalaudiofilename>
												</logginginfo>
												<colorinfo>
													<lut></lut>
													<lut1></lut1>
													<asc_sop></asc_sop>
													<asc_sat></asc_sat>
													<lut2></lut2>
												</colorinfo>
												<labels>
													<label2>Iris</label2>
												</labels>
											</clip>
											<bin>
												<name>s'mores</name>
												<children>
													<clip id="masterclip-180" explodedTracks="true">
														<uuid>41fbc9d0-b3a4-455f-b696-5095ac3b07a5</uuid>
														<masterclipid>masterclip-180</masterclipid>
														<ismasterclip>TRUE</ismasterclip>
														<duration>1188</duration>
														<rate>
															<timebase>30</timebase>
															<ntsc>FALSE</ntsc>
														</rate>
														<name>(sophiabakessometimes)_7109657964843142406_TT.mp4</name>
														<media>
															<video>
																<track>
																	<clipitem id="clipitem-934">
																		<masterclipid>masterclip-180</masterclipid>
																		<name>(sophiabakessometimes)_7109657964843142406_TT.mp4</name>
																		<rate>
																			<timebase>30</timebase>
																			<ntsc>FALSE</ntsc>
																		</rate>
																		<alphatype>none</alphatype>
																		<file id="file-174"/>
																		<link>
																			<linkclipref>clipitem-934</linkclipref>
																			<mediatype>video</mediatype>
																			<trackindex>1</trackindex>
																			<clipindex>1</clipindex>
																		</link>
																		<link>
																			<linkclipref>clipitem-935</linkclipref>
																			<mediatype>audio</mediatype>
																			<trackindex>1</trackindex>
																			<clipindex>1</clipindex>
																			<groupindex>1</groupindex>
																		</link>
																		<link>
																			<linkclipref>clipitem-936</linkclipref>
																			<mediatype>audio</mediatype>
																			<trackindex>2</trackindex>
																			<clipindex>1</clipindex>
																			<groupindex>1</groupindex>
																		</link>
																	</clipitem>
																</track>
															</video>
															<audio>
																<track>
																	<clipitem id="clipitem-935">
																		<masterclipid>masterclip-180</masterclipid>
																		<name>(sophiabakessometimes)_7109657964843142406_TT.mp4</name>
																		<rate>
																			<timebase>30</timebase>
																			<ntsc>FALSE</ntsc>
																		</rate>
																		<file id="file-174"/>
																		<sourcetrack>
																			<mediatype>audio</mediatype>
																			<trackindex>1</trackindex>
																		</sourcetrack>
																		<link>
																			<linkclipref>clipitem-934</linkclipref>
																			<mediatype>video</mediatype>
																			<trackindex>1</trackindex>
																			<clipindex>1</clipindex>
																		</link>
																		<link>
																			<linkclipref>clipitem-935</linkclipref>
																			<mediatype>audio</mediatype>
																			<trackindex>1</trackindex>
																			<clipindex>1</clipindex>
																			<groupindex>1</groupindex>
																		</link>
																		<link>
																			<linkclipref>clipitem-936</linkclipref>
																			<mediatype>audio</mediatype>
																			<trackindex>2</trackindex>
																			<clipindex>1</clipindex>
																			<groupindex>1</groupindex>
																		</link>
																	</clipitem>
																</track>
																<track>
																	<clipitem id="clipitem-936">
																		<masterclipid>masterclip-180</masterclipid>
																		<name>(sophiabakessometimes)_7109657964843142406_TT.mp4</name>
																		<rate>
																			<timebase>30</timebase>
																			<ntsc>FALSE</ntsc>
																		</rate>
																		<file id="file-174"/>
																		<sourcetrack>
																			<mediatype>audio</mediatype>
																			<trackindex>2</trackindex>
																		</sourcetrack>
																		<link>
																			<linkclipref>clipitem-934</linkclipref>
																			<mediatype>video</mediatype>
																			<trackindex>1</trackindex>
																			<clipindex>1</clipindex>
																		</link>
																		<link>
																			<linkclipref>clipitem-935</linkclipref>
																			<mediatype>audio</mediatype>
																			<trackindex>1</trackindex>
																			<clipindex>1</clipindex>
																			<groupindex>1</groupindex>
																		</link>
																		<link>
																			<linkclipref>clipitem-936</linkclipref>
																			<mediatype>audio</mediatype>
																			<trackindex>2</trackindex>
																			<clipindex>1</clipindex>
																			<groupindex>1</groupindex>
																		</link>
																	</clipitem>
																</track>
															</audio>
														</media>
														<logginginfo>
															<description></description>
															<scene></scene>
															<shottake></shottake>
															<lognote></lognote>
															<good></good>
															<originalvideofilename></originalvideofilename>
															<originalaudiofilename></originalaudiofilename>
														</logginginfo>
														<colorinfo>
															<lut></lut>
															<lut1></lut1>
															<asc_sop></asc_sop>
															<asc_sat></asc_sat>
															<lut2></lut2>
														</colorinfo>
														<labels>
															<label2>Iris</label2>
														</labels>
													</clip>
													<clip id="masterclip-181" explodedTracks="true">
														<uuid>1ef4cf01-8224-40fc-a25a-82c055ff4760</uuid>
														<masterclipid>masterclip-181</masterclipid>
														<ismasterclip>TRUE</ismasterclip>
														<duration>901</duration>
														<rate>
															<timebase>30</timebase>
															<ntsc>FALSE</ntsc>
														</rate>
														<name>_sophieskitchen_CYSxdOaFpSB_IG.mp4</name>
														<media>
															<video>
																<track>
																	<clipitem id="clipitem-937">
																		<masterclipid>masterclip-181</masterclipid>
																		<name>_sophieskitchen_CYSxdOaFpSB_IG.mp4</name>
																		<rate>
																			<timebase>30</timebase>
																			<ntsc>FALSE</ntsc>
																		</rate>
																		<alphatype>none</alphatype>
																		<file id="file-175"/>
																	</clipitem>
																</track>
															</video>
														</media>
														<logginginfo>
															<description></description>
															<scene></scene>
															<shottake></shottake>
															<lognote></lognote>
															<good></good>
															<originalvideofilename></originalvideofilename>
															<originalaudiofilename></originalaudiofilename>
														</logginginfo>
														<colorinfo>
															<lut></lut>
															<lut1></lut1>
															<asc_sop></asc_sop>
															<asc_sat></asc_sat>
															<lut2></lut2>
														</colorinfo>
														<labels>
															<label2>Violet</label2>
														</labels>
													</clip>
													<clip id="masterclip-182" explodedTracks="true">
														<uuid>895659f8-bd61-413c-8361-02113db9c51b</uuid>
														<masterclipid>masterclip-182</masterclipid>
														<ismasterclip>TRUE</ismasterclip>
														<duration>864</duration>
														<rate>
															<timebase>30</timebase>
															<ntsc>FALSE</ntsc>
														</rate>
														<name>(thesqueakymixer)_6973281507968355590_TT.mp4</name>
														<media>
															<video>
																<track>
																	<clipitem id="clipitem-938">
																		<masterclipid>masterclip-182</masterclipid>
																		<name>(thesqueakymixer)_6973281507968355590_TT.mp4</name>
																		<rate>
																			<timebase>30</timebase>
																			<ntsc>FALSE</ntsc>
																		</rate>
																		<alphatype>none</alphatype>
																		<file id="file-176"/>
																		<link>
																			<linkclipref>clipitem-938</linkclipref>
																			<mediatype>video</mediatype>
																			<trackindex>1</trackindex>
																			<clipindex>1</clipindex>
																		</link>
																		<link>
																			<linkclipref>clipitem-939</linkclipref>
																			<mediatype>audio</mediatype>
																			<trackindex>1</trackindex>
																			<clipindex>1</clipindex>
																			<groupindex>1</groupindex>
																		</link>
																		<link>
																			<linkclipref>clipitem-940</linkclipref>
																			<mediatype>audio</mediatype>
																			<trackindex>2</trackindex>
																			<clipindex>1</clipindex>
																			<groupindex>1</groupindex>
																		</link>
																	</clipitem>
																</track>
															</video>
															<audio>
																<track>
																	<clipitem id="clipitem-939">
																		<masterclipid>masterclip-182</masterclipid>
																		<name>(thesqueakymixer)_6973281507968355590_TT.mp4</name>
																		<rate>
																			<timebase>30</timebase>
																			<ntsc>FALSE</ntsc>
																		</rate>
																		<file id="file-176"/>
																		<sourcetrack>
																			<mediatype>audio</mediatype>
																			<trackindex>1</trackindex>
																		</sourcetrack>
																		<link>
																			<linkclipref>clipitem-938</linkclipref>
																			<mediatype>video</mediatype>
																			<trackindex>1</trackindex>
																			<clipindex>1</clipindex>
																		</link>
																		<link>
																			<linkclipref>clipitem-939</linkclipref>
																			<mediatype>audio</mediatype>
																			<trackindex>1</trackindex>
																			<clipindex>1</clipindex>
																			<groupindex>1</groupindex>
																		</link>
																		<link>
																			<linkclipref>clipitem-940</linkclipref>
																			<mediatype>audio</mediatype>
																			<trackindex>2</trackindex>
																			<clipindex>1</clipindex>
																			<groupindex>1</groupindex>
																		</link>
																	</clipitem>
																</track>
																<track>
																	<clipitem id="clipitem-940">
																		<masterclipid>masterclip-182</masterclipid>
																		<name>(thesqueakymixer)_6973281507968355590_TT.mp4</name>
																		<rate>
																			<timebase>30</timebase>
																			<ntsc>FALSE</ntsc>
																		</rate>
																		<file id="file-176"/>
																		<sourcetrack>
																			<mediatype>audio</mediatype>
																			<trackindex>2</trackindex>
																		</sourcetrack>
																		<link>
																			<linkclipref>clipitem-938</linkclipref>
																			<mediatype>video</mediatype>
																			<trackindex>1</trackindex>
																			<clipindex>1</clipindex>
																		</link>
																		<link>
																			<linkclipref>clipitem-939</linkclipref>
																			<mediatype>audio</mediatype>
																			<trackindex>1</trackindex>
																			<clipindex>1</clipindex>
																			<groupindex>1</groupindex>
																		</link>
																		<link>
																			<linkclipref>clipitem-940</linkclipref>
																			<mediatype>audio</mediatype>
																			<trackindex>2</trackindex>
																			<clipindex>1</clipindex>
																			<groupindex>1</groupindex>
																		</link>
																	</clipitem>
																</track>
															</audio>
														</media>
														<logginginfo>
															<description></description>
															<scene></scene>
															<shottake></shottake>
															<lognote></lognote>
															<good></good>
															<originalvideofilename></originalvideofilename>
															<originalaudiofilename></originalaudiofilename>
														</logginginfo>
														<colorinfo>
															<lut></lut>
															<lut1></lut1>
															<asc_sop></asc_sop>
															<asc_sat></asc_sat>
															<lut2></lut2>
														</colorinfo>
														<labels>
															<label2>Iris</label2>
														</labels>
													</clip>
													<clip id="masterclip-183" explodedTracks="true">
														<uuid>9ddc31f8-944c-445e-9ac2-6d638482914a</uuid>
														<masterclipid>masterclip-183</masterclipid>
														<ismasterclip>TRUE</ismasterclip>
														<duration>456</duration>
														<rate>
															<timebase>30</timebase>
															<ntsc>FALSE</ntsc>
														</rate>
														<name>(hamptonchocolatefactory)_7135104754333584683_TT.mp4</name>
														<media>
															<video>
																<track>
																	<clipitem id="clipitem-941">
																		<masterclipid>masterclip-183</masterclipid>
																		<name>(hamptonchocolatefactory)_7135104754333584683_TT.mp4</name>
																		<rate>
																			<timebase>30</timebase>
																			<ntsc>FALSE</ntsc>
																		</rate>
																		<alphatype>none</alphatype>
																		<file id="file-177"/>
																		<link>
																			<linkclipref>clipitem-941</linkclipref>
																			<mediatype>video</mediatype>
																			<trackindex>1</trackindex>
																			<clipindex>1</clipindex>
																		</link>
																		<link>
																			<linkclipref>clipitem-942</linkclipref>
																			<mediatype>audio</mediatype>
																			<trackindex>1</trackindex>
																			<clipindex>1</clipindex>
																			<groupindex>1</groupindex>
																		</link>
																		<link>
																			<linkclipref>clipitem-943</linkclipref>
																			<mediatype>audio</mediatype>
																			<trackindex>2</trackindex>
																			<clipindex>1</clipindex>
																			<groupindex>1</groupindex>
																		</link>
																	</clipitem>
																</track>
															</video>
															<audio>
																<track>
																	<clipitem id="clipitem-942">
																		<masterclipid>masterclip-183</masterclipid>
																		<name>(hamptonchocolatefactory)_7135104754333584683_TT.mp4</name>
																		<rate>
																			<timebase>30</timebase>
																			<ntsc>FALSE</ntsc>
																		</rate>
																		<file id="file-177"/>
																		<sourcetrack>
																			<mediatype>audio</mediatype>
																			<trackindex>1</trackindex>
																		</sourcetrack>
																		<link>
																			<linkclipref>clipitem-941</linkclipref>
																			<mediatype>video</mediatype>
																			<trackindex>1</trackindex>
																			<clipindex>1</clipindex>
																		</link>
																		<link>
																			<linkclipref>clipitem-942</linkclipref>
																			<mediatype>audio</mediatype>
																			<trackindex>1</trackindex>
																			<clipindex>1</clipindex>
																			<groupindex>1</groupindex>
																		</link>
																		<link>
																			<linkclipref>clipitem-943</linkclipref>
																			<mediatype>audio</mediatype>
																			<trackindex>2</trackindex>
																			<clipindex>1</clipindex>
																			<groupindex>1</groupindex>
																		</link>
																	</clipitem>
																</track>
																<track>
																	<clipitem id="clipitem-943">
																		<masterclipid>masterclip-183</masterclipid>
																		<name>(hamptonchocolatefactory)_7135104754333584683_TT.mp4</name>
																		<rate>
																			<timebase>30</timebase>
																			<ntsc>FALSE</ntsc>
																		</rate>
																		<file id="file-177"/>
																		<sourcetrack>
																			<mediatype>audio</mediatype>
																			<trackindex>2</trackindex>
																		</sourcetrack>
																		<link>
																			<linkclipref>clipitem-941</linkclipref>
																			<mediatype>video</mediatype>
																			<trackindex>1</trackindex>
																			<clipindex>1</clipindex>
																		</link>
																		<link>
																			<linkclipref>clipitem-942</linkclipref>
																			<mediatype>audio</mediatype>
																			<trackindex>1</trackindex>
																			<clipindex>1</clipindex>
																			<groupindex>1</groupindex>
																		</link>
																		<link>
																			<linkclipref>clipitem-943</linkclipref>
																			<mediatype>audio</mediatype>
																			<trackindex>2</trackindex>
																			<clipindex>1</clipindex>
																			<groupindex>1</groupindex>
																		</link>
																	</clipitem>
																</track>
															</audio>
														</media>
														<logginginfo>
															<description></description>
															<scene></scene>
															<shottake></shottake>
															<lognote></lognote>
															<good></good>
															<originalvideofilename></originalvideofilename>
															<originalaudiofilename></originalaudiofilename>
														</logginginfo>
														<colorinfo>
															<lut></lut>
															<lut1></lut1>
															<asc_sop></asc_sop>
															<asc_sat></asc_sat>
															<lut2></lut2>
														</colorinfo>
														<labels>
															<label2>Iris</label2>
														</labels>
													</clip>
												</children>
											</bin>
										</children>
									</bin>
								</children>
							</bin>
						</children>
					</bin>
				</children>
			</bin>
			<bin>
				<name>00_Final Sequences</name>
				<labels>
					<label2>Mango</label2>
				</labels>
				<children>
					<sequence id="sequence-70" TL.SQAudioVisibleBase="0" TL.SQVideoVisibleBase="0" TL.SQVisibleBaseTime="0" TL.SQAVDividerPosition="0.51990634203" TL.SQHideShyTracks="0" TL.SQHeaderWidth="236" Monitor.ProgramZoomOut="16815723724800" Monitor.ProgramZoomIn="10467448992000" TL.SQTimePerPixel="2.0142227873697292" AM.TrackVScrollPosition="0" AM.TrackScrollPosition="0" MZ.EditLine="14137412889600" MZ.Sequence.PreviewFrameSizeHeight="720" MZ.Sequence.PreviewFrameSizeWidth="1280" MZ.Sequence.AudioTimeDisplayFormat="200" MZ.Sequence.PreviewRenderingClassID="1297106761" MZ.Sequence.PreviewRenderingPresetCodec="1297107278" MZ.Sequence.PreviewRenderingPresetPath="EncoderPresets/SequencePreview/795454d9-d3c2-429d-9474-923ab13b7018/I-Frame Only MPEG.epr" MZ.Sequence.PreviewUseMaxRenderQuality="false" MZ.Sequence.PreviewUseMaxBitDepth="false" MZ.Sequence.EditingModeGUID="795454d9-d3c2-429d-9474-923ab13b7018" MZ.Sequence.VideoTimeDisplayFormat="103" MZ.WorkOutPoint="1662230899929600" MZ.WorkInPoint="0" explodedTracks="true">
						<uuid>229b844c-a5de-4d7f-9191-72cb0f759afb</uuid>
						<duration>111383</duration>
						<rate>
							<timebase>30</timebase>
							<ntsc>TRUE</ntsc>
						</rate>
						<name>ZRENAMING(date) Stringout</name>
						<media>
							<video>
								<format>
									<samplecharacteristics>
										<rate>
											<timebase>30</timebase>
											<ntsc>TRUE</ntsc>
										</rate>
										<codec>
											<name>Apple ProRes 422</name>
											<appspecificdata>
												<appname>Final Cut Pro</appname>
												<appmanufacturer>Apple Inc.</appmanufacturer>
												<appversion>7.0</appversion>
												<data>
													<qtcodec>
														<codecname>Apple ProRes 422</codecname>
														<codectypename>Apple ProRes 422</codectypename>
														<codectypecode>apcn</codectypecode>
														<codecvendorcode>appl</codecvendorcode>
														<spatialquality>1024</spatialquality>
														<temporalquality>0</temporalquality>
														<keyframerate>0</keyframerate>
														<datarate>0</datarate>
													</qtcodec>
												</data>
											</appspecificdata>
										</codec>
										<width>1280</width>
										<height>720</height>
										<anamorphic>FALSE</anamorphic>
										<pixelaspectratio>square</pixelaspectratio>
										<fielddominance>none</fielddominance>
										<colordepth>24</colordepth>
									</samplecharacteristics>
								</format>
								<track TL.SQTrackShy="0" TL.SQTrackExpandedHeight="15" TL.SQTrackExpanded="0" MZ.TrackTargeted="1">
									<clipitem id="clipitem-944">
										<masterclipid>masterclip-187</masterclipid>
										<name>AA</name>
										<enabled>TRUE</enabled>
										<duration>5195</duration>
										<rate>
											<timebase>30</timebase>
											<ntsc>TRUE</ntsc>
										</rate>
										<start>0</start>
										<end>5042</end>
										<in>0</in>
										<out>5042</out>
										<pproTicksIn>0</pproTicksIn>
										<pproTicksOut>42734314022400</pproTicksOut>
										<sequence id="sequence-71" TL.SQAudioVisibleBase="0" TL.SQVideoVisibleBase="0" TL.SQVisibleBaseTime="0" TL.SQAVDividerPosition="0.5" TL.SQHideShyTracks="0" TL.SQHeaderWidth="236" TL.SQDataTrackViewControlState="0" Monitor.ProgramZoomOut="44031091104000" Monitor.ProgramZoomIn="0" TL.SQTimePerPixel="0.35621364962382873" AM.TrackVScrollPosition="0" AM.TrackScrollPosition="0" MZ.EditLine="0" MZ.Sequence.PreviewFrameSizeHeight="720" MZ.Sequence.PreviewFrameSizeWidth="1280" MZ.Sequence.AudioTimeDisplayFormat="200" MZ.Sequence.PreviewRenderingClassID="1297106761" MZ.Sequence.PreviewRenderingPresetCodec="1297107278" MZ.Sequence.PreviewRenderingPresetPath="EncoderPresets/SequencePreview/795454d9-d3c2-429d-9474-923ab13b7018/I-Frame Only MPEG.epr" MZ.Sequence.PreviewUseMaxRenderQuality="false" MZ.Sequence.PreviewUseMaxBitDepth="false" MZ.Sequence.EditingModeGUID="795454d9-d3c2-429d-9474-923ab13b7018" MZ.Sequence.VideoTimeDisplayFormat="103" MZ.WorkOutPoint="42734314022400" MZ.WorkInPoint="0">
											<duration>5195</duration>
											<rate>
												<timebase>30</timebase>
												<ntsc>TRUE</ntsc>
											</rate>
											<name>ATM_ODDLY SATISFYING_1543</name>
											<media>
												<video>
													<format>
														<samplecharacteristics>
															<rate>
																<timebase>30</timebase>
																<ntsc>TRUE</ntsc>
															</rate>
															<codec>
																<name>Apple ProRes 422</name>
																<appspecificdata>
																	<appname>Final Cut Pro</appname>
																	<appmanufacturer>Apple Inc.</appmanufacturer>
																	<appversion>7.0</appversion>
																	<data>
																		<qtcodec>
																			<codecname>Apple ProRes 422</codecname>
																			<codectypename>Apple ProRes 422</codectypename>
																			<codectypecode>apcn</codectypecode>
																			<codecvendorcode>appl</codecvendorcode>
																			<spatialquality>1024</spatialquality>
																			<temporalquality>0</temporalquality>
																			<keyframerate>0</keyframerate>
																			<datarate>0</datarate>
																		</qtcodec>
																	</data>
																</appspecificdata>
															</codec>
															<width>1280</width>
															<height>720</height>
															<anamorphic>FALSE</anamorphic>
															<pixelaspectratio>square</pixelaspectratio>
															<fielddominance>none</fielddominance>
															<colordepth>24</colordepth>
														</samplecharacteristics>
													</format>
													<track TL.SQTrackShy="0" TL.SQTrackExpandedHeight="25" TL.SQTrackExpanded="0" MZ.TrackTargeted="1">
														<clipitem id="clipitem-945">
															<masterclipid>masterclip-188</masterclipid>
															<name>FND_droolsss_2m15s</name>
															<enabled>TRUE</enabled>
															<duration>6133</duration>
															<rate>
																<timebase>30</timebase>
																<ntsc>TRUE</ntsc>
															</rate>
															<start>0</start>
															<end>4090</end>
															<in>0</in>
															<out>4090</out>
															<pproTicksIn>0</pproTicksIn>
															<pproTicksOut>34665478848000</pproTicksOut>
															<sequence id="sequence-42"/>
															<filter>
																<effect>
																	<name>Basic Motion</name>
																	<effectid>basic</effectid>
																	<effectcategory>motion</effectcategory>
																	<effecttype>motion</effecttype>
																	<mediatype>video</mediatype>
																	<pproBypass>false</pproBypass>
																	<parameter authoringApp="PremierePro">
																		<parameterid>scale</parameterid>
																		<name>Scale</name>
																		<valuemin>0</valuemin>
																		<valuemax>1000</valuemax>
																		<value>66.6667</value>
																	</parameter>
																	<parameter authoringApp="PremierePro">
																		<parameterid>rotation</parameterid>
																		<name>Rotation</name>
																		<valuemin>-8640</valuemin>
																		<valuemax>8640</valuemax>
																		<value>0</value>
																	</parameter>
																	<parameter authoringApp="PremierePro">
																		<parameterid>center</parameterid>
																		<name>Center</name>
																		<value>
																			<horiz>-0.5</horiz>
																			<vert>-0.5</vert>
																		</value>
																	</parameter>
																	<parameter authoringApp="PremierePro">
																		<parameterid>centerOffset</parameterid>
																		<name>Anchor Point</name>
																		<value>
																			<horiz>0</horiz>
																			<vert>0</vert>
																		</value>
																	</parameter>
																	<parameter authoringApp="PremierePro">
																		<parameterid>antiflicker</parameterid>
																		<name>Anti-flicker Filter</name>
																		<valuemin>0.0</valuemin>
																		<valuemax>1.0</valuemax>
																		<value>0</value>
																	</parameter>
																</effect>
															</filter>
															<link>
																<linkclipref>clipitem-945</linkclipref>
																<mediatype>video</mediatype>
																<trackindex>1</trackindex>
																<clipindex>1</clipindex>
															</link>
															<link>
																<linkclipref>clipitem-948</linkclipref>
																<mediatype>audio</mediatype>
																<trackindex>1</trackindex>
																<clipindex>1</clipindex>
																<groupindex>1</groupindex>
															</link>
															<link>
																<linkclipref>clipitem-950</linkclipref>
																<mediatype>audio</mediatype>
																<trackindex>2</trackindex>
																<clipindex>1</clipindex>
																<groupindex>1</groupindex>
															</link>
															<labels>
																<label2>Forest</label2>
															</labels>
														</clipitem>
														<clipitem id="clipitem-946">
															<masterclipid>masterclip-189</masterclipid>
															<name>WCARD_all the colors of the rainbow Happy unbranded_.5</name>
															<enabled>TRUE</enabled>
															<duration>4356</duration>
															<rate>
																<timebase>30</timebase>
																<ntsc>TRUE</ntsc>
															</rate>
															<start>4243</start>
															<end>-1</end>
															<in>0</in>
															<out>952</out>
															<pproTicksIn>0</pproTicksIn>
															<pproTicksOut>8068835174400</pproTicksOut>
															<sequence id="sequence-43"/>
															<filter>
																<effect>
																	<name>Basic Motion</name>
																	<effectid>basic</effectid>
																	<effectcategory>motion</effectcategory>
																	<effecttype>motion</effecttype>
																	<mediatype>video</mediatype>
																	<pproBypass>false</pproBypass>
																	<parameter authoringApp="PremierePro">
																		<parameterid>scale</parameterid>
																		<name>Scale</name>
																		<valuemin>0</valuemin>
																		<valuemax>1000</valuemax>
																		<value>66.6667</value>
																	</parameter>
																	<parameter authoringApp="PremierePro">
																		<parameterid>rotation</parameterid>
																		<name>Rotation</name>
																		<valuemin>-8640</valuemin>
																		<valuemax>8640</valuemax>
																		<value>0</value>
																	</parameter>
																	<parameter authoringApp="PremierePro">
																		<parameterid>center</parameterid>
																		<name>Center</name>
																		<value>
																			<horiz>-0.5</horiz>
																			<vert>-0.5</vert>
																		</value>
																	</parameter>
																	<parameter authoringApp="PremierePro">
																		<parameterid>centerOffset</parameterid>
																		<name>Anchor Point</name>
																		<value>
																			<horiz>0</horiz>
																			<vert>0</vert>
																		</value>
																	</parameter>
																	<parameter authoringApp="PremierePro">
																		<parameterid>antiflicker</parameterid>
																		<name>Anti-flicker Filter</name>
																		<valuemin>0.0</valuemin>
																		<valuemax>1.0</valuemax>
																		<value>0</value>
																	</parameter>
																</effect>
															</filter>
															<link>
																<linkclipref>clipitem-946</linkclipref>
																<mediatype>video</mediatype>
																<trackindex>1</trackindex>
																<clipindex>2</clipindex>
															</link>
															<link>
																<linkclipref>clipitem-949</linkclipref>
																<mediatype>audio</mediatype>
																<trackindex>1</trackindex>
																<clipindex>2</clipindex>
																<groupindex>1</groupindex>
															</link>
															<link>
																<linkclipref>clipitem-951</linkclipref>
																<mediatype>audio</mediatype>
																<trackindex>2</trackindex>
																<clipindex>2</clipindex>
																<groupindex>1</groupindex>
															</link>
															<labels>
																<label2>Forest</label2>
															</labels>
														</clipitem>
														<transitionitem>
															<start>5165</start>
															<end>5195</end>
															<alignment>end-black</alignment>
															<cutPointTicks>254270016000</cutPointTicks>
															<rate>
																<timebase>30</timebase>
																<ntsc>TRUE</ntsc>
															</rate>
															<effect>
																<name>Cross Dissolve</name>
																<effectid>Cross Dissolve</effectid>
																<effectcategory>Dissolve</effectcategory>
																<effecttype>transition</effecttype>
																<mediatype>video</mediatype>
																<wipecode>0</wipecode>
																<wipeaccuracy>100</wipeaccuracy>
																<startratio>0</startratio>
																<endratio>1</endratio>
																<reverse>FALSE</reverse>
															</effect>
														</transitionitem>
														<enabled>TRUE</enabled>
														<locked>FALSE</locked>
													</track>
													<track TL.SQTrackShy="0" TL.SQTrackExpandedHeight="25" TL.SQTrackExpanded="0" MZ.TrackTargeted="0">
														<clipitem id="clipitem-947">
															<masterclipid>masterclip-190</masterclipid>
															<name>00_Grid Transition</name>
															<enabled>TRUE</enabled>
															<duration>389</duration>
															<rate>
																<timebase>30</timebase>
																<ntsc>TRUE</ntsc>
															</rate>
															<start>4080</start>
															<end>4265</end>
															<in>0</in>
															<out>185</out>
															<pproTicksIn>0</pproTicksIn>
															<pproTicksOut>1567998432000</pproTicksOut>
															<sequence id="sequence-7"/>
															<filter>
																<effect>
																	<name>Basic Motion</name>
																	<effectid>basic</effectid>
																	<effectcategory>motion</effectcategory>
																	<effecttype>motion</effecttype>
																	<mediatype>video</mediatype>
																	<pproBypass>false</pproBypass>
																	<parameter authoringApp="PremierePro">
																		<parameterid>scale</parameterid>
																		<name>Scale</name>
																		<valuemin>0</valuemin>
																		<valuemax>1000</valuemax>
																		<value>66.6667</value>
																	</parameter>
																	<parameter authoringApp="PremierePro">
																		<parameterid>rotation</parameterid>
																		<name>Rotation</name>
																		<valuemin>-8640</valuemin>
																		<valuemax>8640</valuemax>
																		<value>0</value>
																	</parameter>
																	<parameter authoringApp="PremierePro">
																		<parameterid>center</parameterid>
																		<name>Center</name>
																		<value>
																			<horiz>-0.5</horiz>
																			<vert>-0.5</vert>
																		</value>
																	</parameter>
																	<parameter authoringApp="PremierePro">
																		<parameterid>centerOffset</parameterid>
																		<name>Anchor Point</name>
																		<value>
																			<horiz>0</horiz>
																			<vert>0</vert>
																		</value>
																	</parameter>
																	<parameter authoringApp="PremierePro">
																		<parameterid>antiflicker</parameterid>
																		<name>Anti-flicker Filter</name>
																		<valuemin>0.0</valuemin>
																		<valuemax>1.0</valuemax>
																		<value>0</value>
																	</parameter>
																</effect>
															</filter>
																<marker>
																	<comment></comment>
																	<name></name>
																	<in>10</in>
																	<out>-1</out>
																</marker>
																<marker>
																	<comment></comment>
																	<name></name>
																	<in>163</in>
																	<out>-1</out>
																</marker>
															<link>
																<linkclipref>clipitem-947</linkclipref>
																<mediatype>video</mediatype>
																<trackindex>2</trackindex>
																<clipindex>1</clipindex>
															</link>
															<link>
																<linkclipref>clipitem-952</linkclipref>
																<mediatype>audio</mediatype>
																<trackindex>3</trackindex>
																<clipindex>1</clipindex>
																<groupindex>1</groupindex>
															</link>
															<link>
																<linkclipref>clipitem-953</linkclipref>
																<mediatype>audio</mediatype>
																<trackindex>4</trackindex>
																<clipindex>1</clipindex>
																<groupindex>1</groupindex>
															</link>
															<labels>
																<label2>Violet</label2>
															</labels>
														</clipitem>
														<enabled>TRUE</enabled>
														<locked>FALSE</locked>
													</track>
												</video>
												<audio>
													<numOutputChannels>2</numOutputChannels>
													<format>
														<samplecharacteristics>
															<depth>16</depth>
															<samplerate>44100</samplerate>
														</samplecharacteristics>
													</format>
													<outputs>
														<group>
															<index>1</index>
															<numchannels>1</numchannels>
															<downmix>0</downmix>
															<channel>
																<index>1</index>
															</channel>
														</group>
														<group>
															<index>2</index>
															<numchannels>1</numchannels>
															<downmix>0</downmix>
															<channel>
																<index>2</index>
															</channel>
														</group>
													</outputs>
													<track TL.SQTrackAudioKeyframeStyle="0" TL.SQTrackShy="0" TL.SQTrackExpandedHeight="25" TL.SQTrackExpanded="0" MZ.TrackTargeted="1" PannerCurrentValue="0.5" PannerIsInverted="true" PannerStartKeyframe="-91445760000000000,0.5,0,0,0,0,0,0" PannerName="Balance" currentExplodedTrackIndex="0" totalExplodedTrackCount="2" premiereTrackType="Stereo">
														<clipitem id="clipitem-948" premiereChannelType="stereo">
															<masterclipid>masterclip-188</masterclipid>
															<name>FND_droolsss_2m15s</name>
															<enabled>TRUE</enabled>
															<duration>6133</duration>
															<rate>
																<timebase>30</timebase>
																<ntsc>TRUE</ntsc>
															</rate>
															<start>0</start>
															<end>4090</end>
															<in>0</in>
															<out>4090</out>
															<pproTicksIn>0</pproTicksIn>
															<pproTicksOut>34665478848000</pproTicksOut>
															<sequence id="sequence-42"/>
															<sourcetrack>
																<mediatype>audio</mediatype>
																<trackindex>0</trackindex>
															</sourcetrack>
															<link>
																<linkclipref>clipitem-945</linkclipref>
																<mediatype>video</mediatype>
																<trackindex>1</trackindex>
																<clipindex>1</clipindex>
															</link>
															<link>
																<linkclipref>clipitem-948</linkclipref>
																<mediatype>audio</mediatype>
																<trackindex>1</trackindex>
																<clipindex>1</clipindex>
																<groupindex>1</groupindex>
															</link>
															<link>
																<linkclipref>clipitem-950</linkclipref>
																<mediatype>audio</mediatype>
																<trackindex>2</trackindex>
																<clipindex>1</clipindex>
																<groupindex>1</groupindex>
															</link>
															<labels>
																<label2>Forest</label2>
															</labels>
														</clipitem>
														<clipitem id="clipitem-949" premiereChannelType="stereo">
															<masterclipid>masterclip-189</masterclipid>
															<name>WCARD_all the colors of the rainbow Happy unbranded_.5</name>
															<enabled>TRUE</enabled>
															<duration>4356</duration>
															<rate>
																<timebase>30</timebase>
																<ntsc>TRUE</ntsc>
															</rate>
															<start>4243</start>
															<end>5195</end>
															<in>0</in>
															<out>952</out>
															<pproTicksIn>0</pproTicksIn>
															<pproTicksOut>8068835174400</pproTicksOut>
															<sequence id="sequence-43"/>
															<sourcetrack>
																<mediatype>audio</mediatype>
																<trackindex>0</trackindex>
															</sourcetrack>
															<link>
																<linkclipref>clipitem-946</linkclipref>
																<mediatype>video</mediatype>
																<trackindex>1</trackindex>
																<clipindex>2</clipindex>
															</link>
															<link>
																<linkclipref>clipitem-949</linkclipref>
																<mediatype>audio</mediatype>
																<trackindex>1</trackindex>
																<clipindex>2</clipindex>
																<groupindex>1</groupindex>
															</link>
															<link>
																<linkclipref>clipitem-951</linkclipref>
																<mediatype>audio</mediatype>
																<trackindex>2</trackindex>
																<clipindex>2</clipindex>
																<groupindex>1</groupindex>
															</link>
															<labels>
																<label2>Forest</label2>
															</labels>
														</clipitem>
														<enabled>TRUE</enabled>
														<locked>FALSE</locked>
														<outputchannelindex>1</outputchannelindex>
													</track>
													<track TL.SQTrackAudioKeyframeStyle="0" TL.SQTrackShy="0" TL.SQTrackExpandedHeight="25" TL.SQTrackExpanded="0" MZ.TrackTargeted="1" PannerCurrentValue="0.5" PannerIsInverted="true" PannerStartKeyframe="-91445760000000000,0.5,0,0,0,0,0,0" PannerName="Balance" currentExplodedTrackIndex="1" totalExplodedTrackCount="2" premiereTrackType="Stereo">
														<clipitem id="clipitem-950" premiereChannelType="stereo">
															<masterclipid>masterclip-188</masterclipid>
															<name>FND_droolsss_2m15s</name>
															<enabled>TRUE</enabled>
															<duration>6133</duration>
															<rate>
																<timebase>30</timebase>
																<ntsc>TRUE</ntsc>
															</rate>
															<start>0</start>
															<end>4090</end>
															<in>0</in>
															<out>4090</out>
															<pproTicksIn>0</pproTicksIn>
															<pproTicksOut>34665478848000</pproTicksOut>
															<sequence id="sequence-42"/>
															<sourcetrack>
																<mediatype>audio</mediatype>
																<trackindex>1</trackindex>
															</sourcetrack>
															<link>
																<linkclipref>clipitem-945</linkclipref>
																<mediatype>video</mediatype>
																<trackindex>1</trackindex>
																<clipindex>1</clipindex>
															</link>
															<link>
																<linkclipref>clipitem-948</linkclipref>
																<mediatype>audio</mediatype>
																<trackindex>1</trackindex>
																<clipindex>1</clipindex>
																<groupindex>1</groupindex>
															</link>
															<link>
																<linkclipref>clipitem-950</linkclipref>
																<mediatype>audio</mediatype>
																<trackindex>2</trackindex>
																<clipindex>1</clipindex>
																<groupindex>1</groupindex>
															</link>
															<labels>
																<label2>Forest</label2>
															</labels>
														</clipitem>
														<clipitem id="clipitem-951" premiereChannelType="stereo">
															<masterclipid>masterclip-189</masterclipid>
															<name>WCARD_all the colors of the rainbow Happy unbranded_.5</name>
															<enabled>TRUE</enabled>
															<duration>4356</duration>
															<rate>
																<timebase>30</timebase>
																<ntsc>TRUE</ntsc>
															</rate>
															<start>4243</start>
															<end>5195</end>
															<in>0</in>
															<out>952</out>
															<pproTicksIn>0</pproTicksIn>
															<pproTicksOut>8068835174400</pproTicksOut>
															<sequence id="sequence-43"/>
															<sourcetrack>
																<mediatype>audio</mediatype>
																<trackindex>1</trackindex>
															</sourcetrack>
															<link>
																<linkclipref>clipitem-946</linkclipref>
																<mediatype>video</mediatype>
																<trackindex>1</trackindex>
																<clipindex>2</clipindex>
															</link>
															<link>
																<linkclipref>clipitem-949</linkclipref>
																<mediatype>audio</mediatype>
																<trackindex>1</trackindex>
																<clipindex>2</clipindex>
																<groupindex>1</groupindex>
															</link>
															<link>
																<linkclipref>clipitem-951</linkclipref>
																<mediatype>audio</mediatype>
																<trackindex>2</trackindex>
																<clipindex>2</clipindex>
																<groupindex>1</groupindex>
															</link>
															<labels>
																<label2>Forest</label2>
															</labels>
														</clipitem>
														<enabled>TRUE</enabled>
														<locked>FALSE</locked>
														<outputchannelindex>2</outputchannelindex>
													</track>
													<track TL.SQTrackAudioKeyframeStyle="0" TL.SQTrackShy="0" TL.SQTrackExpandedHeight="25" TL.SQTrackExpanded="0" MZ.TrackTargeted="0" PannerCurrentValue="0.5" PannerIsInverted="true" PannerStartKeyframe="-91445760000000000,0.5,0,0,0,0,0,0" PannerName="Balance" currentExplodedTrackIndex="0" totalExplodedTrackCount="2" premiereTrackType="Stereo">
														<clipitem id="clipitem-952" premiereChannelType="stereo">
															<masterclipid>masterclip-190</masterclipid>
															<name>00_Grid Transition</name>
															<enabled>TRUE</enabled>
															<duration>389</duration>
															<rate>
																<timebase>30</timebase>
																<ntsc>TRUE</ntsc>
															</rate>
															<start>4080</start>
															<end>4265</end>
															<in>0</in>
															<out>185</out>
															<pproTicksIn>0</pproTicksIn>
															<pproTicksOut>1567998432000</pproTicksOut>
															<sequence id="sequence-7"/>
															<sourcetrack>
																<mediatype>audio</mediatype>
																<trackindex>0</trackindex>
															</sourcetrack>
																<marker>
																	<comment></comment>
																	<name></name>
																	<in>10</in>
																	<out>-1</out>
																</marker>
																<marker>
																	<comment></comment>
																	<name></name>
																	<in>163</in>
																	<out>-1</out>
																</marker>
															<link>
																<linkclipref>clipitem-947</linkclipref>
																<mediatype>video</mediatype>
																<trackindex>2</trackindex>
																<clipindex>1</clipindex>
															</link>
															<link>
																<linkclipref>clipitem-952</linkclipref>
																<mediatype>audio</mediatype>
																<trackindex>3</trackindex>
																<clipindex>1</clipindex>
																<groupindex>1</groupindex>
															</link>
															<link>
																<linkclipref>clipitem-953</linkclipref>
																<mediatype>audio</mediatype>
																<trackindex>4</trackindex>
																<clipindex>1</clipindex>
																<groupindex>1</groupindex>
															</link>
															<labels>
																<label2>Violet</label2>
															</labels>
														</clipitem>
														<enabled>TRUE</enabled>
														<locked>FALSE</locked>
														<outputchannelindex>1</outputchannelindex>
													</track>
													<track TL.SQTrackAudioKeyframeStyle="0" TL.SQTrackShy="0" TL.SQTrackExpandedHeight="25" TL.SQTrackExpanded="0" MZ.TrackTargeted="0" PannerCurrentValue="0.5" PannerIsInverted="true" PannerStartKeyframe="-91445760000000000,0.5,0,0,0,0,0,0" PannerName="Balance" currentExplodedTrackIndex="1" totalExplodedTrackCount="2" premiereTrackType="Stereo">
														<clipitem id="clipitem-953" premiereChannelType="stereo">
															<masterclipid>masterclip-190</masterclipid>
															<name>00_Grid Transition</name>
															<enabled>TRUE</enabled>
															<duration>389</duration>
															<rate>
																<timebase>30</timebase>
																<ntsc>TRUE</ntsc>
															</rate>
															<start>4080</start>
															<end>4265</end>
															<in>0</in>
															<out>185</out>
															<pproTicksIn>0</pproTicksIn>
															<pproTicksOut>1567998432000</pproTicksOut>
															<sequence id="sequence-7"/>
															<sourcetrack>
																<mediatype>audio</mediatype>
																<trackindex>1</trackindex>
															</sourcetrack>
																<marker>
																	<comment></comment>
																	<name></name>
																	<in>10</in>
																	<out>-1</out>
																</marker>
																<marker>
																	<comment></comment>
																	<name></name>
																	<in>163</in>
																	<out>-1</out>
																</marker>
															<link>
																<linkclipref>clipitem-947</linkclipref>
																<mediatype>video</mediatype>
																<trackindex>2</trackindex>
																<clipindex>1</clipindex>
															</link>
															<link>
																<linkclipref>clipitem-952</linkclipref>
																<mediatype>audio</mediatype>
																<trackindex>3</trackindex>
																<clipindex>1</clipindex>
																<groupindex>1</groupindex>
															</link>
															<link>
																<linkclipref>clipitem-953</linkclipref>
																<mediatype>audio</mediatype>
																<trackindex>4</trackindex>
																<clipindex>1</clipindex>
																<groupindex>1</groupindex>
															</link>
															<labels>
																<label2>Violet</label2>
															</labels>
														</clipitem>
														<enabled>TRUE</enabled>
														<locked>FALSE</locked>
														<outputchannelindex>2</outputchannelindex>
													</track>
												</audio>
											</media>
											<timecode>
												<rate>
													<timebase>30</timebase>
													<ntsc>TRUE</ntsc>
												</rate>
												<string>00:00:00:00</string>
												<frame>0</frame>
												<displayformat>NDF</displayformat>
											</timecode>
											<logginginfo>
												<description></description>
												<scene></scene>
												<shottake></shottake>
												<lognote></lognote>
												<good></good>
												<originalvideofilename></originalvideofilename>
												<originalaudiofilename></originalaudiofilename>
											</logginginfo>
										</sequence>
										<link>
											<linkclipref>clipitem-944</linkclipref>
											<mediatype>video</mediatype>
											<trackindex>1</trackindex>
											<clipindex>1</clipindex>
										</link>
										<link>
											<linkclipref>clipitem-1120</linkclipref>
											<mediatype>audio</mediatype>
											<trackindex>1</trackindex>
											<clipindex>1</clipindex>
											<groupindex>1</groupindex>
										</link>
										<link>
											<linkclipref>clipitem-1134</linkclipref>
											<mediatype>audio</mediatype>
											<trackindex>2</trackindex>
											<clipindex>1</clipindex>
											<groupindex>1</groupindex>
										</link>
										<labels>
											<label2>Forest</label2>
										</labels>
									</clipitem>
									<clipitem id="clipitem-954">
										<masterclipid>masterclip-191</masterclipid>
										<name>01</name>
										<enabled>TRUE</enabled>
										<duration>96212</duration>
										<rate>
											<timebase>30</timebase>
											<ntsc>TRUE</ntsc>
										</rate>
										<start>7314</start>
										<end>12671</end>
										<in>0</in>
										<out>5357</out>
										<pproTicksIn>0</pproTicksIn>
										<pproTicksOut>45404149190400</pproTicksOut>
										<sequence id="sequence-72" TL.SQAudioVisibleBase="0" TL.SQVideoVisibleBase="0" TL.SQVisibleBaseTime="0" TL.SQAVDividerPosition="0.5" TL.SQHideShyTracks="0" TL.SQHeaderWidth="236" TL.SQDataTrackViewControlState="0" Monitor.ProgramZoomOut="46344948249600" Monitor.ProgramZoomIn="0" TL.SQTimePerPixel="0.27637033625057528" AM.TrackVScrollPosition="0" AM.TrackScrollPosition="0" MZ.EditLine="8492618534400" MZ.Sequence.PreviewFrameSizeHeight="1080" MZ.Sequence.PreviewFrameSizeWidth="1920" MZ.Sequence.AudioTimeDisplayFormat="200" MZ.Sequence.PreviewRenderingClassID="1297106761" MZ.Sequence.PreviewRenderingPresetCodec="1297107278" MZ.Sequence.PreviewRenderingPresetPath="EncoderPresets/SequencePreview/795454d9-d3c2-429d-9474-923ab13b7018/I-Frame Only MPEG.epr" MZ.Sequence.PreviewUseMaxRenderQuality="false" MZ.Sequence.PreviewUseMaxBitDepth="false" MZ.Sequence.EditingModeGUID="795454d9-d3c2-429d-9474-923ab13b7018" MZ.Sequence.VideoTimeDisplayFormat="103" MZ.WorkOutPoint="15705411321600" MZ.WorkInPoint="0">
											<duration>5468</duration>
											<rate>
												<timebase>30</timebase>
												<ntsc>TRUE</ntsc>
											</rate>
											<name>ATM_ODDLY SATISFYING_1542</name>
											<media>
												<video>
													<format>
														<samplecharacteristics>
															<rate>
																<timebase>30</timebase>
																<ntsc>TRUE</ntsc>
															</rate>
															<codec>
																<name>Apple ProRes 422</name>
																<appspecificdata>
																	<appname>Final Cut Pro</appname>
																	<appmanufacturer>Apple Inc.</appmanufacturer>
																	<appversion>7.0</appversion>
																	<data>
																		<qtcodec>
																			<codecname>Apple ProRes 422</codecname>
																			<codectypename>Apple ProRes 422</codectypename>
																			<codectypecode>apcn</codectypecode>
																			<codecvendorcode>appl</codecvendorcode>
																			<spatialquality>1024</spatialquality>
																			<temporalquality>0</temporalquality>
																			<keyframerate>0</keyframerate>
																			<datarate>0</datarate>
																		</qtcodec>
																	</data>
																</appspecificdata>
															</codec>
															<width>1920</width>
															<height>1080</height>
															<anamorphic>FALSE</anamorphic>
															<pixelaspectratio>square</pixelaspectratio>
															<fielddominance>none</fielddominance>
															<colordepth>24</colordepth>
														</samplecharacteristics>
													</format>
													<track TL.SQTrackShy="0" TL.SQTrackExpandedHeight="25" TL.SQTrackExpanded="0" MZ.TrackTargeted="1">
														<clipitem id="clipitem-955">
															<masterclipid>masterclip-192</masterclipid>
															<name>4trackingnest01</name>
															<enabled>TRUE</enabled>
															<duration>2650</duration>
															<rate>
																<timebase>30</timebase>
																<ntsc>TRUE</ntsc>
															</rate>
															<start>0</start>
															<end>2650</end>
															<in>0</in>
															<out>2650</out>
															<pproTicksIn>0</pproTicksIn>
															<pproTicksOut>22460518080000</pproTicksOut>
															<sequence id="sequence-13"/>
															<labels>
																<label2>Forest</label2>
															</labels>
														</clipitem>
														<clipitem id="clipitem-956">
															<masterclipid>masterclip-193</masterclipid>
															<name>01nest</name>
															<enabled>TRUE</enabled>
															<duration>2707</duration>
															<rate>
																<timebase>30</timebase>
																<ntsc>TRUE</ntsc>
															</rate>
															<start>2761</start>
															<end>-1</end>
															<in>0</in>
															<out>2707</out>
															<pproTicksIn>0</pproTicksIn>
															<pproTicksOut>22943631110400</pproTicksOut>
															<sequence id="sequence-14"/>
															<link>
																<linkclipref>clipitem-956</linkclipref>
																<mediatype>video</mediatype>
																<trackindex>1</trackindex>
																<clipindex>2</clipindex>
															</link>
															<link>
																<linkclipref>clipitem-960</linkclipref>
																<mediatype>audio</mediatype>
																<trackindex>1</trackindex>
																<clipindex>4</clipindex>
																<groupindex>1</groupindex>
															</link>
															<link>
																<linkclipref>clipitem-962</linkclipref>
																<mediatype>audio</mediatype>
																<trackindex>2</trackindex>
																<clipindex>4</clipindex>
																<groupindex>1</groupindex>
															</link>
															<labels>
																<label2>Forest</label2>
															</labels>
														</clipitem>
														<transitionitem>
															<start>5438</start>
															<end>5468</end>
															<alignment>end-black</alignment>
															<cutPointTicks>254270016000</cutPointTicks>
															<rate>
																<timebase>30</timebase>
																<ntsc>TRUE</ntsc>
															</rate>
															<effect>
																<name>Cross Dissolve</name>
																<effectid>Cross Dissolve</effectid>
																<effectcategory>Dissolve</effectcategory>
																<effecttype>transition</effecttype>
																<mediatype>video</mediatype>
																<wipecode>0</wipecode>
																<wipeaccuracy>100</wipeaccuracy>
																<startratio>0</startratio>
																<endratio>1</endratio>
																<reverse>FALSE</reverse>
															</effect>
														</transitionitem>
														<enabled>TRUE</enabled>
														<locked>FALSE</locked>
													</track>
													<track TL.SQTrackShy="0" TL.SQTrackExpandedHeight="25" TL.SQTrackExpanded="0" MZ.TrackTargeted="0">
														<clipitem id="clipitem-957">
															<masterclipid>masterclip-106</masterclipid>
															<name>Bug and Lower Nest</name>
															<enabled>TRUE</enabled>
															<duration>14721</duration>
															<rate>
																<timebase>30</timebase>
																<ntsc>TRUE</ntsc>
															</rate>
															<start>0</start>
															<end>2650</end>
															<in>0</in>
															<out>2650</out>
															<pproTicksIn>0</pproTicksIn>
															<pproTicksOut>22460518080000</pproTicksOut>
															<sequence id="sequence-1"/>
															<labels>
																<label2>Cerulean</label2>
															</labels>
														</clipitem>
														<enabled>TRUE</enabled>
														<locked>FALSE</locked>
													</track>
													<track TL.SQTrackShy="0" TL.SQTrackExpandedHeight="25" TL.SQTrackExpanded="0" MZ.TrackTargeted="0">
														<clipitem id="clipitem-958">
															<masterclipid>masterclip-194</masterclipid>
															<name>OS Trans 01</name>
															<enabled>TRUE</enabled>
															<duration>417</duration>
															<rate>
																<timebase>30</timebase>
																<ntsc>TRUE</ntsc>
															</rate>
															<start>2628</start>
															<end>2817</end>
															<in>0</in>
															<out>189</out>
															<pproTicksIn>0</pproTicksIn>
															<pproTicksOut>1601901100800</pproTicksOut>
															<sequence id="sequence-5"/>
																<marker>
																	<comment></comment>
																	<name></name>
																	<in>133</in>
																	<out>-1</out>
																</marker>
																<marker>
																	<comment></comment>
																	<name></name>
																	<in>22</in>
																	<out>-1</out>
																</marker>
															<link>
																<linkclipref>clipitem-958</linkclipref>
																<mediatype>video</mediatype>
																<trackindex>3</trackindex>
																<clipindex>1</clipindex>
															</link>
															<link>
																<linkclipref>clipitem-963</linkclipref>
																<mediatype>audio</mediatype>
																<trackindex>3</trackindex>
																<clipindex>1</clipindex>
																<groupindex>1</groupindex>
															</link>
															<link>
																<linkclipref>clipitem-964</linkclipref>
																<mediatype>audio</mediatype>
																<trackindex>4</trackindex>
																<clipindex>1</clipindex>
																<groupindex>1</groupindex>
															</link>
															<labels>
																<label2>Teal</label2>
															</labels>
														</clipitem>
														<enabled>TRUE</enabled>
														<locked>FALSE</locked>
													</track>
													<track TL.SQTrackShy="0" TL.SQTrackExpandedHeight="25" TL.SQTrackExpanded="0" MZ.TrackTargeted="0">
														<enabled>TRUE</enabled>
														<locked>FALSE</locked>
													</track>
												</video>
												<audio>
													<numOutputChannels>2</numOutputChannels>
													<format>
														<samplecharacteristics>
															<depth>16</depth>
															<samplerate>44100</samplerate>
														</samplecharacteristics>
													</format>
													<outputs>
														<group>
															<index>1</index>
															<numchannels>1</numchannels>
															<downmix>0</downmix>
															<channel>
																<index>1</index>
															</channel>
														</group>
														<group>
															<index>2</index>
															<numchannels>1</numchannels>
															<downmix>0</downmix>
															<channel>
																<index>2</index>
															</channel>
														</group>
													</outputs>
													<track TL.SQTrackAudioKeyframeStyle="0" TL.SQTrackShy="0" TL.SQTrackExpandedHeight="25" TL.SQTrackExpanded="0" MZ.TrackTargeted="1" PannerCurrentValue="0.5" PannerIsInverted="true" PannerStartKeyframe="-91445760000000000,0.5,0,0,0,0,0,0" PannerName="Balance" currentExplodedTrackIndex="0" totalExplodedTrackCount="2" premiereTrackType="Stereo">
														<transitionitem>
															<start>0</start>
															<end>30</end>
															<pproTicksIn>0</pproTicksIn>
															<pproTicksOut>254270016000</pproTicksOut>
															<alignment>start-black</alignment>
															<cutPointTicks>0</cutPointTicks>
															<rate>
																<timebase>30</timebase>
																<ntsc>TRUE</ntsc>
															</rate>
															<effect>
																<name>Cross Fade (+3dB)</name>
																<effectid>KGAudioTransCrossFade3dB</effectid>
																<effecttype>transition</effecttype>
																<mediatype>audio</mediatype>
																<wipecode>0</wipecode>
																<wipeaccuracy>100</wipeaccuracy>
																<startratio>0</startratio>
																<endratio>1</endratio>
																<reverse>FALSE</reverse>
															</effect>
														</transitionitem>
														<clipitem id="clipitem-959" premiereChannelType="stereo">
															<masterclipid>masterclip-25</masterclipid>
															<name>ES_Pyrite - Sarah, the Illstrumentalist.mp3</name>
															<enabled>TRUE</enabled>
															<duration>3592</duration>
															<rate>
																<timebase>30</timebase>
																<ntsc>TRUE</ntsc>
															</rate>
															<start>-1</start>
															<end>-1</end>
															<in>0</in>
															<out>2650</out>
															<pproTicksIn>0</pproTicksIn>
															<pproTicksOut>22460518080000</pproTicksOut>
															<file id="file-25"/>
															<sourcetrack>
																<mediatype>audio</mediatype>
																<trackindex>1</trackindex>
															</sourcetrack>
															<link>
																<linkclipref>clipitem-959</linkclipref>
																<mediatype>audio</mediatype>
																<trackindex>1</trackindex>
																<clipindex>2</clipindex>
																<groupindex>1</groupindex>
															</link>
															<link>
																<linkclipref>clipitem-961</linkclipref>
																<mediatype>audio</mediatype>
																<trackindex>2</trackindex>
																<clipindex>2</clipindex>
																<groupindex>1</groupindex>
															</link>
															<logginginfo>
																<description></description>
																<scene></scene>
																<shottake></shottake>
																<lognote></lognote>
																<good></good>
																<originalvideofilename></originalvideofilename>
																<originalaudiofilename></originalaudiofilename>
															</logginginfo>
															<colorinfo>
																<lut></lut>
																<lut1></lut1>
																<asc_sop></asc_sop>
																<asc_sat></asc_sat>
																<lut2></lut2>
															</colorinfo>
															<labels>
																<label2>Forest</label2>
															</labels>
														</clipitem>
														<transitionitem>
															<start>2560</start>
															<end>2650</end>
															<pproTicksIn>21697708032000</pproTicksIn>
															<pproTicksOut>22460518080000</pproTicksOut>
															<alignment>end-black</alignment>
															<cutPointTicks>762810048000</cutPointTicks>
															<rate>
																<timebase>30</timebase>
																<ntsc>TRUE</ntsc>
															</rate>
															<effect>
																<name>Cross Fade (+3dB)</name>
																<effectid>KGAudioTransCrossFade3dB</effectid>
																<effecttype>transition</effecttype>
																<mediatype>audio</mediatype>
																<wipecode>0</wipecode>
																<wipeaccuracy>100</wipeaccuracy>
																<startratio>0</startratio>
																<endratio>1</endratio>
																<reverse>FALSE</reverse>
															</effect>
														</transitionitem>
														<clipitem id="clipitem-960" premiereChannelType="stereo">
															<masterclipid>masterclip-193</masterclipid>
															<name>01nest</name>
															<enabled>TRUE</enabled>
															<duration>2707</duration>
															<rate>
																<timebase>30</timebase>
																<ntsc>TRUE</ntsc>
															</rate>
															<start>2761</start>
															<end>5468</end>
															<in>0</in>
															<out>2707</out>
															<pproTicksIn>0</pproTicksIn>
															<pproTicksOut>22943631110400</pproTicksOut>
															<sequence id="sequence-14"/>
															<sourcetrack>
																<mediatype>audio</mediatype>
																<trackindex>0</trackindex>
															</sourcetrack>
															<link>
																<linkclipref>clipitem-956</linkclipref>
																<mediatype>video</mediatype>
																<trackindex>1</trackindex>
																<clipindex>2</clipindex>
															</link>
															<link>
																<linkclipref>clipitem-960</linkclipref>
																<mediatype>audio</mediatype>
																<trackindex>1</trackindex>
																<clipindex>4</clipindex>
																<groupindex>1</groupindex>
															</link>
															<link>
																<linkclipref>clipitem-962</linkclipref>
																<mediatype>audio</mediatype>
																<trackindex>2</trackindex>
																<clipindex>4</clipindex>
																<groupindex>1</groupindex>
															</link>
															<labels>
																<label2>Forest</label2>
															</labels>
														</clipitem>
														<enabled>TRUE</enabled>
														<locked>FALSE</locked>
														<filter>
															<effect>
																<name>Audio Levels</name>
																<effectid>audiolevels</effectid>
																<effectcategory>audiolevels</effectcategory>
																<effecttype>audiolevels</effecttype>
																<mediatype>audio</mediatype>
																<parameter authoringApp="PremierePro">
																	<parameterid>level</parameterid>
																	<name>Level</name>
																	<valuemin>0</valuemin>
																	<valuemax>3.98109</valuemax>
																	<value>0.706272</value>
																</parameter>
															</effect>
														</filter>
														<outputchannelindex>1</outputchannelindex>
													</track>
													<track TL.SQTrackAudioKeyframeStyle="0" TL.SQTrackShy="0" TL.SQTrackExpandedHeight="25" TL.SQTrackExpanded="0" MZ.TrackTargeted="1" PannerCurrentValue="0.5" PannerIsInverted="true" PannerStartKeyframe="-91445760000000000,0.5,0,0,0,0,0,0" PannerName="Balance" currentExplodedTrackIndex="1" totalExplodedTrackCount="2" premiereTrackType="Stereo">
														<transitionitem>
															<start>0</start>
															<end>30</end>
															<pproTicksIn>0</pproTicksIn>
															<pproTicksOut>254270016000</pproTicksOut>
															<alignment>start-black</alignment>
															<cutPointTicks>0</cutPointTicks>
															<rate>
																<timebase>30</timebase>
																<ntsc>TRUE</ntsc>
															</rate>
															<effect>
																<name>Cross Fade (+3dB)</name>
																<effectid>KGAudioTransCrossFade3dB</effectid>
																<effecttype>transition</effecttype>
																<mediatype>audio</mediatype>
																<wipecode>0</wipecode>
																<wipeaccuracy>100</wipeaccuracy>
																<startratio>0</startratio>
																<endratio>1</endratio>
																<reverse>FALSE</reverse>
															</effect>
														</transitionitem>
														<clipitem id="clipitem-961" premiereChannelType="stereo">
															<masterclipid>masterclip-25</masterclipid>
															<name>ES_Pyrite - Sarah, the Illstrumentalist.mp3</name>
															<enabled>TRUE</enabled>
															<duration>3592</duration>
															<rate>
																<timebase>30</timebase>
																<ntsc>TRUE</ntsc>
															</rate>
															<start>-1</start>
															<end>-1</end>
															<in>0</in>
															<out>2650</out>
															<pproTicksIn>0</pproTicksIn>
															<pproTicksOut>22460518080000</pproTicksOut>
															<file id="file-25"/>
															<sourcetrack>
																<mediatype>audio</mediatype>
																<trackindex>2</trackindex>
															</sourcetrack>
															<link>
																<linkclipref>clipitem-959</linkclipref>
																<mediatype>audio</mediatype>
																<trackindex>1</trackindex>
																<clipindex>2</clipindex>
																<groupindex>1</groupindex>
															</link>
															<link>
																<linkclipref>clipitem-961</linkclipref>
																<mediatype>audio</mediatype>
																<trackindex>2</trackindex>
																<clipindex>2</clipindex>
																<groupindex>1</groupindex>
															</link>
															<logginginfo>
																<description></description>
																<scene></scene>
																<shottake></shottake>
																<lognote></lognote>
																<good></good>
																<originalvideofilename></originalvideofilename>
																<originalaudiofilename></originalaudiofilename>
															</logginginfo>
															<colorinfo>
																<lut></lut>
																<lut1></lut1>
																<asc_sop></asc_sop>
																<asc_sat></asc_sat>
																<lut2></lut2>
															</colorinfo>
															<labels>
																<label2>Forest</label2>
															</labels>
														</clipitem>
														<transitionitem>
															<start>2560</start>
															<end>2650</end>
															<pproTicksIn>21697708032000</pproTicksIn>
															<pproTicksOut>22460518080000</pproTicksOut>
															<alignment>end-black</alignment>
															<cutPointTicks>762810048000</cutPointTicks>
															<rate>
																<timebase>30</timebase>
																<ntsc>TRUE</ntsc>
															</rate>
															<effect>
																<name>Cross Fade (+3dB)</name>
																<effectid>KGAudioTransCrossFade3dB</effectid>
																<effecttype>transition</effecttype>
																<mediatype>audio</mediatype>
																<wipecode>0</wipecode>
																<wipeaccuracy>100</wipeaccuracy>
																<startratio>0</startratio>
																<endratio>1</endratio>
																<reverse>FALSE</reverse>
															</effect>
														</transitionitem>
														<clipitem id="clipitem-962" premiereChannelType="stereo">
															<masterclipid>masterclip-193</masterclipid>
															<name>01nest</name>
															<enabled>TRUE</enabled>
															<duration>2707</duration>
															<rate>
																<timebase>30</timebase>
																<ntsc>TRUE</ntsc>
															</rate>
															<start>2761</start>
															<end>5468</end>
															<in>0</in>
															<out>2707</out>
															<pproTicksIn>0</pproTicksIn>
															<pproTicksOut>22943631110400</pproTicksOut>
															<sequence id="sequence-14"/>
															<sourcetrack>
																<mediatype>audio</mediatype>
																<trackindex>1</trackindex>
															</sourcetrack>
															<link>
																<linkclipref>clipitem-956</linkclipref>
																<mediatype>video</mediatype>
																<trackindex>1</trackindex>
																<clipindex>2</clipindex>
															</link>
															<link>
																<linkclipref>clipitem-960</linkclipref>
																<mediatype>audio</mediatype>
																<trackindex>1</trackindex>
																<clipindex>4</clipindex>
																<groupindex>1</groupindex>
															</link>
															<link>
																<linkclipref>clipitem-962</linkclipref>
																<mediatype>audio</mediatype>
																<trackindex>2</trackindex>
																<clipindex>4</clipindex>
																<groupindex>1</groupindex>
															</link>
															<labels>
																<label2>Forest</label2>
															</labels>
														</clipitem>
														<enabled>TRUE</enabled>
														<locked>FALSE</locked>
														<filter>
															<effect>
																<name>Audio Levels</name>
																<effectid>audiolevels</effectid>
																<effectcategory>audiolevels</effectcategory>
																<effecttype>audiolevels</effecttype>
																<mediatype>audio</mediatype>
																<parameter authoringApp="PremierePro">
																	<parameterid>level</parameterid>
																	<name>Level</name>
																	<valuemin>0</valuemin>
																	<valuemax>3.98109</valuemax>
																	<value>0.706272</value>
																</parameter>
															</effect>
														</filter>
														<outputchannelindex>2</outputchannelindex>
													</track>
													<track TL.SQTrackAudioKeyframeStyle="0" TL.SQTrackShy="0" TL.SQTrackExpandedHeight="25" TL.SQTrackExpanded="0" MZ.TrackTargeted="0" PannerCurrentValue="0.5" PannerIsInverted="true" PannerStartKeyframe="-91445760000000000,0.5,0,0,0,0,0,0" PannerName="Balance" currentExplodedTrackIndex="0" totalExplodedTrackCount="2" premiereTrackType="Stereo">
														<clipitem id="clipitem-963" premiereChannelType="stereo">
															<masterclipid>masterclip-194</masterclipid>
															<name>OS Trans 01</name>
															<enabled>TRUE</enabled>
															<duration>417</duration>
															<rate>
																<timebase>30</timebase>
																<ntsc>TRUE</ntsc>
															</rate>
															<start>2628</start>
															<end>2817</end>
															<in>0</in>
															<out>189</out>
															<pproTicksIn>0</pproTicksIn>
															<pproTicksOut>1601901100800</pproTicksOut>
															<sequence id="sequence-5"/>
															<sourcetrack>
																<mediatype>audio</mediatype>
																<trackindex>0</trackindex>
															</sourcetrack>
																<marker>
																	<comment></comment>
																	<name></name>
																	<in>133</in>
																	<out>-1</out>
																</marker>
																<marker>
																	<comment></comment>
																	<name></name>
																	<in>22</in>
																	<out>-1</out>
																</marker>
															<link>
																<linkclipref>clipitem-958</linkclipref>
																<mediatype>video</mediatype>
																<trackindex>3</trackindex>
																<clipindex>1</clipindex>
															</link>
															<link>
																<linkclipref>clipitem-963</linkclipref>
																<mediatype>audio</mediatype>
																<trackindex>3</trackindex>
																<clipindex>1</clipindex>
																<groupindex>1</groupindex>
															</link>
															<link>
																<linkclipref>clipitem-964</linkclipref>
																<mediatype>audio</mediatype>
																<trackindex>4</trackindex>
																<clipindex>1</clipindex>
																<groupindex>1</groupindex>
															</link>
															<labels>
																<label2>Teal</label2>
															</labels>
														</clipitem>
														<enabled>TRUE</enabled>
														<locked>FALSE</locked>
														<filter>
															<effect>
																<name>Audio Levels</name>
																<effectid>audiolevels</effectid>
																<effectcategory>audiolevels</effectcategory>
																<effecttype>audiolevels</effecttype>
																<mediatype>audio</mediatype>
																<parameter authoringApp="PremierePro">
																	<parameterid>level</parameterid>
																	<name>Level</name>
																	<valuemin>0</valuemin>
																	<valuemax>3.98109</valuemax>
																	<value>0.706272</value>
																</parameter>
															</effect>
														</filter>
														<outputchannelindex>1</outputchannelindex>
													</track>
													<track TL.SQTrackAudioKeyframeStyle="0" TL.SQTrackShy="0" TL.SQTrackExpandedHeight="25" TL.SQTrackExpanded="0" MZ.TrackTargeted="0" PannerCurrentValue="0.5" PannerIsInverted="true" PannerStartKeyframe="-91445760000000000,0.5,0,0,0,0,0,0" PannerName="Balance" currentExplodedTrackIndex="1" totalExplodedTrackCount="2" premiereTrackType="Stereo">
														<clipitem id="clipitem-964" premiereChannelType="stereo">
															<masterclipid>masterclip-194</masterclipid>
															<name>OS Trans 01</name>
															<enabled>TRUE</enabled>
															<duration>417</duration>
															<rate>
																<timebase>30</timebase>
																<ntsc>TRUE</ntsc>
															</rate>
															<start>2628</start>
															<end>2817</end>
															<in>0</in>
															<out>189</out>
															<pproTicksIn>0</pproTicksIn>
															<pproTicksOut>1601901100800</pproTicksOut>
															<sequence id="sequence-5"/>
															<sourcetrack>
																<mediatype>audio</mediatype>
																<trackindex>1</trackindex>
															</sourcetrack>
																<marker>
																	<comment></comment>
																	<name></name>
																	<in>133</in>
																	<out>-1</out>
																</marker>
																<marker>
																	<comment></comment>
																	<name></name>
																	<in>22</in>
																	<out>-1</out>
																</marker>
															<link>
																<linkclipref>clipitem-958</linkclipref>
																<mediatype>video</mediatype>
																<trackindex>3</trackindex>
																<clipindex>1</clipindex>
															</link>
															<link>
																<linkclipref>clipitem-963</linkclipref>
																<mediatype>audio</mediatype>
																<trackindex>3</trackindex>
																<clipindex>1</clipindex>
																<groupindex>1</groupindex>
															</link>
															<link>
																<linkclipref>clipitem-964</linkclipref>
																<mediatype>audio</mediatype>
																<trackindex>4</trackindex>
																<clipindex>1</clipindex>
																<groupindex>1</groupindex>
															</link>
															<labels>
																<label2>Teal</label2>
															</labels>
														</clipitem>
														<enabled>TRUE</enabled>
														<locked>FALSE</locked>
														<filter>
															<effect>
																<name>Audio Levels</name>
																<effectid>audiolevels</effectid>
																<effectcategory>audiolevels</effectcategory>
																<effecttype>audiolevels</effecttype>
																<mediatype>audio</mediatype>
																<parameter authoringApp="PremierePro">
																	<parameterid>level</parameterid>
																	<name>Level</name>
																	<valuemin>0</valuemin>
																	<valuemax>3.98109</valuemax>
																	<value>0.706272</value>
																</parameter>
															</effect>
														</filter>
														<outputchannelindex>2</outputchannelindex>
													</track>
													<track TL.SQTrackAudioKeyframeStyle="0" TL.SQTrackShy="0" TL.SQTrackExpandedHeight="25" TL.SQTrackExpanded="0" MZ.TrackTargeted="0" PannerCurrentValue="0.5" PannerIsInverted="true" PannerStartKeyframe="-91445760000000000,0.5,0,0,0,0,0,0" PannerName="Balance" currentExplodedTrackIndex="0" totalExplodedTrackCount="2" premiereTrackType="Stereo">
														<enabled>TRUE</enabled>
														<locked>FALSE</locked>
														<outputchannelindex>1</outputchannelindex>
													</track>
													<track TL.SQTrackAudioKeyframeStyle="0" TL.SQTrackShy="0" TL.SQTrackExpandedHeight="25" TL.SQTrackExpanded="0" MZ.TrackTargeted="0" PannerCurrentValue="0.5" PannerIsInverted="true" PannerStartKeyframe="-91445760000000000,0.5,0,0,0,0,0,0" PannerName="Balance" currentExplodedTrackIndex="1" totalExplodedTrackCount="2" premiereTrackType="Stereo">
														<enabled>TRUE</enabled>
														<locked>FALSE</locked>
														<outputchannelindex>2</outputchannelindex>
													</track>
												</audio>
											</media>
											<timecode>
												<rate>
													<timebase>30</timebase>
													<ntsc>TRUE</ntsc>
												</rate>
												<string>00:00:00:00</string>
												<frame>0</frame>
												<displayformat>NDF</displayformat>
											</timecode>
											<logginginfo>
												<description></description>
												<scene></scene>
												<shottake></shottake>
												<lognote></lognote>
												<good></good>
												<originalvideofilename></originalvideofilename>
												<originalaudiofilename></originalaudiofilename>
											</logginginfo>
										</sequence>
										<filter>
											<effect>
												<name>Basic Motion</name>
												<effectid>basic</effectid>
												<effectcategory>motion</effectcategory>
												<effecttype>motion</effecttype>
												<mediatype>video</mediatype>
												<pproBypass>false</pproBypass>
												<parameter authoringApp="PremierePro">
													<parameterid>scale</parameterid>
													<name>Scale</name>
													<valuemin>0</valuemin>
													<valuemax>1000</valuemax>
													<value>66.6667</value>
												</parameter>
												<parameter authoringApp="PremierePro">
													<parameterid>rotation</parameterid>
													<name>Rotation</name>
													<valuemin>-8640</valuemin>
													<valuemax>8640</valuemax>
													<value>0</value>
												</parameter>
												<parameter authoringApp="PremierePro">
													<parameterid>center</parameterid>
													<name>Center</name>
													<value>
														<horiz>-0.5</horiz>
														<vert>-0.5</vert>
													</value>
												</parameter>
												<parameter authoringApp="PremierePro">
													<parameterid>centerOffset</parameterid>
													<name>Anchor Point</name>
													<value>
														<horiz>0</horiz>
														<vert>0</vert>
													</value>
												</parameter>
												<parameter authoringApp="PremierePro">
													<parameterid>antiflicker</parameterid>
													<name>Anti-flicker Filter</name>
													<valuemin>0.0</valuemin>
													<valuemax>1.0</valuemax>
													<value>0</value>
												</parameter>
											</effect>
										</filter>
										<link>
											<linkclipref>clipitem-954</linkclipref>
											<mediatype>video</mediatype>
											<trackindex>1</trackindex>
											<clipindex>2</clipindex>
										</link>
										<link>
											<linkclipref>clipitem-1121</linkclipref>
											<mediatype>audio</mediatype>
											<trackindex>1</trackindex>
											<clipindex>2</clipindex>
											<groupindex>1</groupindex>
										</link>
										<link>
											<linkclipref>clipitem-1135</linkclipref>
											<mediatype>audio</mediatype>
											<trackindex>2</trackindex>
											<clipindex>2</clipindex>
											<groupindex>1</groupindex>
										</link>
										<labels>
											<label2>Forest</label2>
										</labels>
									</clipitem>
									<clipitem id="clipitem-965">
										<masterclipid>masterclip-195</masterclipid>
										<name>03</name>
										<enabled>TRUE</enabled>
										<duration>96212</duration>
										<rate>
											<timebase>30</timebase>
											<ntsc>TRUE</ntsc>
										</rate>
										<start>15027</start>
										<end>20483</end>
										<in>0</in>
										<out>5456</out>
										<pproTicksIn>0</pproTicksIn>
										<pproTicksOut>46243240243200</pproTicksOut>
										<sequence id="sequence-73" TL.SQAudioVisibleBase="0" TL.SQVideoVisibleBase="0" TL.SQVisibleBaseTime="0" TL.SQAVDividerPosition="0.5" TL.SQHideShyTracks="0" TL.SQHeaderWidth="236" TL.SQDataTrackViewControlState="0" Monitor.ProgramZoomOut="48497767718400" Monitor.ProgramZoomIn="0" TL.SQTimePerPixel="0.18453664644579251" AM.TrackVScrollPosition="0" AM.TrackScrollPosition="0" MZ.EditLine="0" MZ.Sequence.PreviewFrameSizeHeight="1080" MZ.Sequence.PreviewFrameSizeWidth="1920" MZ.Sequence.AudioTimeDisplayFormat="200" MZ.Sequence.PreviewRenderingClassID="1297106761" MZ.Sequence.PreviewRenderingPresetCodec="1297107278" MZ.Sequence.PreviewRenderingPresetPath="EncoderPresets/SequencePreview/795454d9-d3c2-429d-9474-923ab13b7018/I-Frame Only MPEG.epr" MZ.Sequence.PreviewUseMaxRenderQuality="false" MZ.Sequence.PreviewUseMaxBitDepth="false" MZ.Sequence.EditingModeGUID="795454d9-d3c2-429d-9474-923ab13b7018" MZ.Sequence.VideoTimeDisplayFormat="103" MZ.WorkOutPoint="15705411321600" MZ.WorkInPoint="0">
											<duration>5722</duration>
											<rate>
												<timebase>30</timebase>
												<ntsc>TRUE</ntsc>
											</rate>
											<name>ATM_ODDLY SATISFYING_1544</name>
											<media>
												<video>
													<format>
														<samplecharacteristics>
															<rate>
																<timebase>30</timebase>
																<ntsc>TRUE</ntsc>
															</rate>
															<codec>
																<name>Apple ProRes 422</name>
																<appspecificdata>
																	<appname>Final Cut Pro</appname>
																	<appmanufacturer>Apple Inc.</appmanufacturer>
																	<appversion>7.0</appversion>
																	<data>
																		<qtcodec>
																			<codecname>Apple ProRes 422</codecname>
																			<codectypename>Apple ProRes 422</codectypename>
																			<codectypecode>apcn</codectypecode>
																			<codecvendorcode>appl</codecvendorcode>
																			<spatialquality>1024</spatialquality>
																			<temporalquality>0</temporalquality>
																			<keyframerate>0</keyframerate>
																			<datarate>0</datarate>
																		</qtcodec>
																	</data>
																</appspecificdata>
															</codec>
															<width>1920</width>
															<height>1080</height>
															<anamorphic>FALSE</anamorphic>
															<pixelaspectratio>square</pixelaspectratio>
															<fielddominance>none</fielddominance>
															<colordepth>24</colordepth>
														</samplecharacteristics>
													</format>
													<track TL.SQTrackShy="0" TL.SQTrackExpandedHeight="25" TL.SQTrackExpanded="0" MZ.TrackTargeted="1">
														<clipitem id="clipitem-966">
															<masterclipid>masterclip-196</masterclipid>
															<name>4trackingnest02</name>
															<enabled>TRUE</enabled>
															<duration>2588</duration>
															<rate>
																<timebase>30</timebase>
																<ntsc>TRUE</ntsc>
															</rate>
															<start>0</start>
															<end>2588</end>
															<in>0</in>
															<out>2588</out>
															<pproTicksIn>0</pproTicksIn>
															<pproTicksOut>21935026713600</pproTicksOut>
															<sequence id="sequence-17"/>
															<labels>
																<label2>Forest</label2>
															</labels>
														</clipitem>
														<clipitem id="clipitem-967">
															<masterclipid>masterclip-197</masterclipid>
															<name>4trackingnest03</name>
															<enabled>TRUE</enabled>
															<duration>2868</duration>
															<rate>
																<timebase>30</timebase>
																<ntsc>TRUE</ntsc>
															</rate>
															<start>2615</start>
															<end>5483</end>
															<in>0</in>
															<out>2868</out>
															<pproTicksIn>0</pproTicksIn>
															<pproTicksOut>24308213529600</pproTicksOut>
															<sequence id="sequence-18"/>
															<labels>
																<label2>Forest</label2>
															</labels>
														</clipitem>
														<clipitem id="clipitem-968">
															<masterclipid>masterclip-198</masterclipid>
															<name>01_HouseAd Nest</name>
															<enabled>TRUE</enabled>
															<duration>239</duration>
															<rate>
																<timebase>30</timebase>
																<ntsc>TRUE</ntsc>
															</rate>
															<start>5483</start>
															<end>5722</end>
															<in>0</in>
															<out>239</out>
															<pproTicksIn>0</pproTicksIn>
															<pproTicksOut>2025684460800</pproTicksOut>
															<sequence id="sequence-2"/>
															<link>
																<linkclipref>clipitem-968</linkclipref>
																<mediatype>video</mediatype>
																<trackindex>1</trackindex>
																<clipindex>3</clipindex>
															</link>
															<link>
																<linkclipref>clipitem-974</linkclipref>
																<mediatype>audio</mediatype>
																<trackindex>1</trackindex>
																<clipindex>7</clipindex>
																<groupindex>1</groupindex>
															</link>
															<link>
																<linkclipref>clipitem-977</linkclipref>
																<mediatype>audio</mediatype>
																<trackindex>2</trackindex>
																<clipindex>7</clipindex>
																<groupindex>1</groupindex>
															</link>
															<labels>
																<label2>Yellow</label2>
															</labels>
														</clipitem>
														<enabled>TRUE</enabled>
														<locked>FALSE</locked>
													</track>
													<track TL.SQTrackShy="0" TL.SQTrackExpandedHeight="25" TL.SQTrackExpanded="0" MZ.TrackTargeted="0">
														<clipitem id="clipitem-969">
															<masterclipid>masterclip-106</masterclipid>
															<name>Bug and Lower Nest</name>
															<enabled>TRUE</enabled>
															<duration>14721</duration>
															<rate>
																<timebase>30</timebase>
																<ntsc>TRUE</ntsc>
															</rate>
															<start>0</start>
															<end>2588</end>
															<in>0</in>
															<out>2588</out>
															<pproTicksIn>0</pproTicksIn>
															<pproTicksOut>21935026713600</pproTicksOut>
															<sequence id="sequence-1"/>
															<labels>
																<label2>Cerulean</label2>
															</labels>
														</clipitem>
														<clipitem id="clipitem-970">
															<masterclipid>masterclip-106</masterclipid>
															<name>Bug and Lower Nest</name>
															<enabled>TRUE</enabled>
															<duration>14721</duration>
															<rate>
																<timebase>30</timebase>
																<ntsc>TRUE</ntsc>
															</rate>
															<start>2615</start>
															<end>5483</end>
															<in>0</in>
															<out>2868</out>
															<pproTicksIn>0</pproTicksIn>
															<pproTicksOut>24308213529600</pproTicksOut>
															<sequence id="sequence-1"/>
															<labels>
																<label2>Cerulean</label2>
															</labels>
														</clipitem>
														<enabled>TRUE</enabled>
														<locked>FALSE</locked>
													</track>
													<track TL.SQTrackShy="0" TL.SQTrackExpandedHeight="25" TL.SQTrackExpanded="0" MZ.TrackTargeted="0">
														<clipitem id="clipitem-971">
															<masterclipid>masterclip-199</masterclipid>
															<name>00_Quick Grid Transition</name>
															<enabled>TRUE</enabled>
															<duration>299</duration>
															<rate>
																<timebase>30</timebase>
																<ntsc>TRUE</ntsc>
															</rate>
															<start>2564</start>
															<end>2655</end>
															<in>0</in>
															<out>91</out>
															<pproTicksIn>0</pproTicksIn>
															<pproTicksOut>771285715200</pproTicksOut>
															<sequence id="sequence-8"/>
																<marker>
																	<comment></comment>
																	<name></name>
																	<in>51</in>
																	<out>-1</out>
																</marker>
																<marker>
																	<comment></comment>
																	<name></name>
																	<in>24</in>
																	<out>-1</out>
																</marker>
															<link>
																<linkclipref>clipitem-971</linkclipref>
																<mediatype>video</mediatype>
																<trackindex>3</trackindex>
																<clipindex>1</clipindex>
															</link>
															<link>
																<linkclipref>clipitem-978</linkclipref>
																<mediatype>audio</mediatype>
																<trackindex>3</trackindex>
																<clipindex>1</clipindex>
																<groupindex>1</groupindex>
															</link>
															<link>
																<linkclipref>clipitem-979</linkclipref>
																<mediatype>audio</mediatype>
																<trackindex>4</trackindex>
																<clipindex>1</clipindex>
																<groupindex>1</groupindex>
															</link>
															<labels>
																<label2>Lavender</label2>
															</labels>
														</clipitem>
														<enabled>TRUE</enabled>
														<locked>FALSE</locked>
													</track>
													<track TL.SQTrackShy="0" TL.SQTrackExpandedHeight="25" TL.SQTrackExpanded="0" MZ.TrackTargeted="0">
														<enabled>TRUE</enabled>
														<locked>FALSE</locked>
													</track>
												</video>
												<audio>
													<numOutputChannels>2</numOutputChannels>
													<format>
														<samplecharacteristics>
															<depth>16</depth>
															<samplerate>44100</samplerate>
														</samplecharacteristics>
													</format>
													<outputs>
														<group>
															<index>1</index>
															<numchannels>1</numchannels>
															<downmix>0</downmix>
															<channel>
																<index>1</index>
															</channel>
														</group>
														<group>
															<index>2</index>
															<numchannels>1</numchannels>
															<downmix>0</downmix>
															<channel>
																<index>2</index>
															</channel>
														</group>
													</outputs>
													<track TL.SQTrackAudioKeyframeStyle="0" TL.SQTrackShy="0" TL.SQTrackExpandedHeight="25" TL.SQTrackExpanded="0" MZ.TrackTargeted="1" PannerCurrentValue="0.5" PannerIsInverted="true" PannerStartKeyframe="-91445760000000000,0.5,0,0,0,0,0,0" PannerName="Balance" currentExplodedTrackIndex="0" totalExplodedTrackCount="2" premiereTrackType="Stereo">
														<transitionitem>
															<start>0</start>
															<end>30</end>
															<pproTicksIn>0</pproTicksIn>
															<pproTicksOut>254270016000</pproTicksOut>
															<alignment>start-black</alignment>
															<cutPointTicks>0</cutPointTicks>
															<rate>
																<timebase>30</timebase>
																<ntsc>TRUE</ntsc>
															</rate>
															<effect>
																<name>Cross Fade (+3dB)</name>
																<effectid>KGAudioTransCrossFade3dB</effectid>
																<effecttype>transition</effecttype>
																<mediatype>audio</mediatype>
																<wipecode>0</wipecode>
																<wipeaccuracy>100</wipeaccuracy>
																<startratio>0</startratio>
																<endratio>1</endratio>
																<reverse>FALSE</reverse>
															</effect>
														</transitionitem>
														<clipitem id="clipitem-972" premiereChannelType="stereo">
															<masterclipid>masterclip-26</masterclipid>
															<name>CTRL S - At the Sea.mp3</name>
															<enabled>TRUE</enabled>
															<duration>5635</duration>
															<rate>
																<timebase>30</timebase>
																<ntsc>TRUE</ntsc>
															</rate>
															<start>-1</start>
															<end>-1</end>
															<in>903</in>
															<out>3491</out>
															<pproTicksIn>7653527481600</pproTicksIn>
															<pproTicksOut>29588554195200</pproTicksOut>
															<file id="file-26"/>
															<sourcetrack>
																<mediatype>audio</mediatype>
																<trackindex>1</trackindex>
															</sourcetrack>
															<link>
																<linkclipref>clipitem-972</linkclipref>
																<mediatype>audio</mediatype>
																<trackindex>1</trackindex>
																<clipindex>2</clipindex>
																<groupindex>1</groupindex>
															</link>
															<link>
																<linkclipref>clipitem-975</linkclipref>
																<mediatype>audio</mediatype>
																<trackindex>2</trackindex>
																<clipindex>2</clipindex>
																<groupindex>1</groupindex>
															</link>
															<logginginfo>
																<description></description>
																<scene></scene>
																<shottake></shottake>
																<lognote></lognote>
																<good></good>
																<originalvideofilename></originalvideofilename>
																<originalaudiofilename></originalaudiofilename>
															</logginginfo>
															<colorinfo>
																<lut></lut>
																<lut1></lut1>
																<asc_sop></asc_sop>
																<asc_sat></asc_sat>
																<lut2></lut2>
															</colorinfo>
															<labels>
																<label2>Forest</label2>
															</labels>
														</clipitem>
														<transitionitem>
															<start>2498</start>
															<end>2588</end>
															<pproTicksIn>21172216665600</pproTicksIn>
															<pproTicksOut>21935026713600</pproTicksOut>
															<alignment>end-black</alignment>
															<cutPointTicks>762810048000</cutPointTicks>
															<rate>
																<timebase>30</timebase>
																<ntsc>TRUE</ntsc>
															</rate>
															<effect>
																<name>Cross Fade (+3dB)</name>
																<effectid>KGAudioTransCrossFade3dB</effectid>
																<effecttype>transition</effecttype>
																<mediatype>audio</mediatype>
																<wipecode>0</wipecode>
																<wipeaccuracy>100</wipeaccuracy>
																<startratio>0</startratio>
																<endratio>1</endratio>
																<reverse>FALSE</reverse>
															</effect>
														</transitionitem>
														<transitionitem>
															<start>2615</start>
															<end>2645</end>
															<pproTicksIn>22163869728000</pproTicksIn>
															<pproTicksOut>22418139744000</pproTicksOut>
															<alignment>start-black</alignment>
															<cutPointTicks>0</cutPointTicks>
															<rate>
																<timebase>30</timebase>
																<ntsc>TRUE</ntsc>
															</rate>
															<effect>
																<name>Cross Fade (+3dB)</name>
																<effectid>KGAudioTransCrossFade3dB</effectid>
																<effecttype>transition</effecttype>
																<mediatype>audio</mediatype>
																<wipecode>0</wipecode>
																<wipeaccuracy>100</wipeaccuracy>
																<startratio>0</startratio>
																<endratio>1</endratio>
																<reverse>FALSE</reverse>
															</effect>
														</transitionitem>
														<clipitem id="clipitem-973" premiereChannelType="stereo">
															<masterclipid>masterclip-5</masterclipid>
															<name>ES_English Breakfast - Jobii.mp3</name>
															<enabled>TRUE</enabled>
															<duration>4315</duration>
															<rate>
																<timebase>30</timebase>
																<ntsc>TRUE</ntsc>
															</rate>
															<start>-1</start>
															<end>-1</end>
															<in>351</in>
															<out>3219</out>
															<pproTicksIn>2974959187200</pproTicksIn>
															<pproTicksOut>27283172716800</pproTicksOut>
															<file id="file-5"/>
															<sourcetrack>
																<mediatype>audio</mediatype>
																<trackindex>1</trackindex>
															</sourcetrack>
															<link>
																<linkclipref>clipitem-973</linkclipref>
																<mediatype>audio</mediatype>
																<trackindex>1</trackindex>
																<clipindex>5</clipindex>
																<groupindex>1</groupindex>
															</link>
															<link>
																<linkclipref>clipitem-976</linkclipref>
																<mediatype>audio</mediatype>
																<trackindex>2</trackindex>
																<clipindex>5</clipindex>
																<groupindex>1</groupindex>
															</link>
															<logginginfo>
																<description></description>
																<scene></scene>
																<shottake></shottake>
																<lognote></lognote>
																<good></good>
																<originalvideofilename></originalvideofilename>
																<originalaudiofilename></originalaudiofilename>
															</logginginfo>
															<colorinfo>
																<lut></lut>
																<lut1></lut1>
																<asc_sop></asc_sop>
																<asc_sat></asc_sat>
																<lut2></lut2>
															</colorinfo>
															<labels>
																<label2>Caribbean</label2>
															</labels>
														</clipitem>
														<transitionitem>
															<start>5393</start>
															<end>5483</end>
															<pproTicksIn>45709273209600</pproTicksIn>
															<pproTicksOut>46472083257600</pproTicksOut>
															<alignment>end-black</alignment>
															<cutPointTicks>762810048000</cutPointTicks>
															<rate>
																<timebase>30</timebase>
																<ntsc>TRUE</ntsc>
															</rate>
															<effect>
																<name>Cross Fade (+3dB)</name>
																<effectid>KGAudioTransCrossFade3dB</effectid>
																<effecttype>transition</effecttype>
																<mediatype>audio</mediatype>
																<wipecode>0</wipecode>
																<wipeaccuracy>100</wipeaccuracy>
																<startratio>0</startratio>
																<endratio>1</endratio>
																<reverse>FALSE</reverse>
															</effect>
														</transitionitem>
														<clipitem id="clipitem-974" premiereChannelType="stereo">
															<masterclipid>masterclip-198</masterclipid>
															<name>01_HouseAd Nest</name>
															<enabled>TRUE</enabled>
															<duration>239</duration>
															<rate>
																<timebase>30</timebase>
																<ntsc>TRUE</ntsc>
															</rate>
															<start>5483</start>
															<end>5722</end>
															<in>0</in>
															<out>239</out>
															<pproTicksIn>0</pproTicksIn>
															<pproTicksOut>2025684460800</pproTicksOut>
															<sequence id="sequence-2"/>
															<sourcetrack>
																<mediatype>audio</mediatype>
																<trackindex>0</trackindex>
															</sourcetrack>
															<filter>
																<effect>
																	<name>Gain</name>
																	<effectid>{61756678, 4761696e, 4b657947}</effectid>
																	<effecttype>filter</effecttype>
																	<mediatype>audio</mediatype>
																	<parameter authoringApp="PremierePro">
																		<parameterid>Gain(dB)</parameterid>
																		<name>Gain(dB)</name>
																		<valuemin>-96</valuemin>
																		<valuemax>96</valuemax>
																		<value>9</value>
																	</parameter>
																</effect>
															</filter>
															<link>
																<linkclipref>clipitem-968</linkclipref>
																<mediatype>video</mediatype>
																<trackindex>1</trackindex>
																<clipindex>3</clipindex>
															</link>
															<link>
																<linkclipref>clipitem-974</linkclipref>
																<mediatype>audio</mediatype>
																<trackindex>1</trackindex>
																<clipindex>7</clipindex>
																<groupindex>1</groupindex>
															</link>
															<link>
																<linkclipref>clipitem-977</linkclipref>
																<mediatype>audio</mediatype>
																<trackindex>2</trackindex>
																<clipindex>7</clipindex>
																<groupindex>1</groupindex>
															</link>
															<labels>
																<label2>Yellow</label2>
															</labels>
														</clipitem>
														<enabled>TRUE</enabled>
														<locked>FALSE</locked>
														<filter>
															<effect>
																<name>Audio Levels</name>
																<effectid>audiolevels</effectid>
																<effectcategory>audiolevels</effectcategory>
																<effecttype>audiolevels</effecttype>
																<mediatype>audio</mediatype>
																<parameter authoringApp="PremierePro">
																	<parameterid>level</parameterid>
																	<name>Level</name>
																	<valuemin>0</valuemin>
																	<valuemax>3.98109</valuemax>
																	<value>0.706272</value>
																</parameter>
															</effect>
														</filter>
														<outputchannelindex>1</outputchannelindex>
													</track>
													<track TL.SQTrackAudioKeyframeStyle="0" TL.SQTrackShy="0" TL.SQTrackExpandedHeight="25" TL.SQTrackExpanded="0" MZ.TrackTargeted="1" PannerCurrentValue="0.5" PannerIsInverted="true" PannerStartKeyframe="-91445760000000000,0.5,0,0,0,0,0,0" PannerName="Balance" currentExplodedTrackIndex="1" totalExplodedTrackCount="2" premiereTrackType="Stereo">
														<transitionitem>
															<start>0</start>
															<end>30</end>
															<pproTicksIn>0</pproTicksIn>
															<pproTicksOut>254270016000</pproTicksOut>
															<alignment>start-black</alignment>
															<cutPointTicks>0</cutPointTicks>
															<rate>
																<timebase>30</timebase>
																<ntsc>TRUE</ntsc>
															</rate>
															<effect>
																<name>Cross Fade (+3dB)</name>
																<effectid>KGAudioTransCrossFade3dB</effectid>
																<effecttype>transition</effecttype>
																<mediatype>audio</mediatype>
																<wipecode>0</wipecode>
																<wipeaccuracy>100</wipeaccuracy>
																<startratio>0</startratio>
																<endratio>1</endratio>
																<reverse>FALSE</reverse>
															</effect>
														</transitionitem>
														<clipitem id="clipitem-975" premiereChannelType="stereo">
															<masterclipid>masterclip-26</masterclipid>
															<name>CTRL S - At the Sea.mp3</name>
															<enabled>TRUE</enabled>
															<duration>5635</duration>
															<rate>
																<timebase>30</timebase>
																<ntsc>TRUE</ntsc>
															</rate>
															<start>-1</start>
															<end>-1</end>
															<in>903</in>
															<out>3491</out>
															<pproTicksIn>7653527481600</pproTicksIn>
															<pproTicksOut>29588554195200</pproTicksOut>
															<file id="file-26"/>
															<sourcetrack>
																<mediatype>audio</mediatype>
																<trackindex>2</trackindex>
															</sourcetrack>
															<link>
																<linkclipref>clipitem-972</linkclipref>
																<mediatype>audio</mediatype>
																<trackindex>1</trackindex>
																<clipindex>2</clipindex>
																<groupindex>1</groupindex>
															</link>
															<link>
																<linkclipref>clipitem-975</linkclipref>
																<mediatype>audio</mediatype>
																<trackindex>2</trackindex>
																<clipindex>2</clipindex>
																<groupindex>1</groupindex>
															</link>
															<logginginfo>
																<description></description>
																<scene></scene>
																<shottake></shottake>
																<lognote></lognote>
																<good></good>
																<originalvideofilename></originalvideofilename>
																<originalaudiofilename></originalaudiofilename>
															</logginginfo>
															<colorinfo>
																<lut></lut>
																<lut1></lut1>
																<asc_sop></asc_sop>
																<asc_sat></asc_sat>
																<lut2></lut2>
															</colorinfo>
															<labels>
																<label2>Forest</label2>
															</labels>
														</clipitem>
														<transitionitem>
															<start>2498</start>
															<end>2588</end>
															<pproTicksIn>21172216665600</pproTicksIn>
															<pproTicksOut>21935026713600</pproTicksOut>
															<alignment>end-black</alignment>
															<cutPointTicks>762810048000</cutPointTicks>
															<rate>
																<timebase>30</timebase>
																<ntsc>TRUE</ntsc>
															</rate>
															<effect>
																<name>Cross Fade (+3dB)</name>
																<effectid>KGAudioTransCrossFade3dB</effectid>
																<effecttype>transition</effecttype>
																<mediatype>audio</mediatype>
																<wipecode>0</wipecode>
																<wipeaccuracy>100</wipeaccuracy>
																<startratio>0</startratio>
																<endratio>1</endratio>
																<reverse>FALSE</reverse>
															</effect>
														</transitionitem>
														<transitionitem>
															<start>2615</start>
															<end>2645</end>
															<pproTicksIn>22163869728000</pproTicksIn>
															<pproTicksOut>22418139744000</pproTicksOut>
															<alignment>start-black</alignment>
															<cutPointTicks>0</cutPointTicks>
															<rate>
																<timebase>30</timebase>
																<ntsc>TRUE</ntsc>
															</rate>
															<effect>
																<name>Cross Fade (+3dB)</name>
																<effectid>KGAudioTransCrossFade3dB</effectid>
																<effecttype>transition</effecttype>
																<mediatype>audio</mediatype>
																<wipecode>0</wipecode>
																<wipeaccuracy>100</wipeaccuracy>
																<startratio>0</startratio>
																<endratio>1</endratio>
																<reverse>FALSE</reverse>
															</effect>
														</transitionitem>
														<clipitem id="clipitem-976" premiereChannelType="stereo">
															<masterclipid>masterclip-5</masterclipid>
															<name>ES_English Breakfast - Jobii.mp3</name>
															<enabled>TRUE</enabled>
															<duration>4315</duration>
															<rate>
																<timebase>30</timebase>
																<ntsc>TRUE</ntsc>
															</rate>
															<start>-1</start>
															<end>-1</end>
															<in>351</in>
															<out>3219</out>
															<pproTicksIn>2974959187200</pproTicksIn>
															<pproTicksOut>27283172716800</pproTicksOut>
															<file id="file-5"/>
															<sourcetrack>
																<mediatype>audio</mediatype>
																<trackindex>2</trackindex>
															</sourcetrack>
															<link>
																<linkclipref>clipitem-973</linkclipref>
																<mediatype>audio</mediatype>
																<trackindex>1</trackindex>
																<clipindex>5</clipindex>
																<groupindex>1</groupindex>
															</link>
															<link>
																<linkclipref>clipitem-976</linkclipref>
																<mediatype>audio</mediatype>
																<trackindex>2</trackindex>
																<clipindex>5</clipindex>
																<groupindex>1</groupindex>
															</link>
															<logginginfo>
																<description></description>
																<scene></scene>
																<shottake></shottake>
																<lognote></lognote>
																<good></good>
																<originalvideofilename></originalvideofilename>
																<originalaudiofilename></originalaudiofilename>
															</logginginfo>
															<colorinfo>
																<lut></lut>
																<lut1></lut1>
																<asc_sop></asc_sop>
																<asc_sat></asc_sat>
																<lut2></lut2>
															</colorinfo>
															<labels>
																<label2>Caribbean</label2>
															</labels>
														</clipitem>
														<transitionitem>
															<start>5393</start>
															<end>5483</end>
															<pproTicksIn>45709273209600</pproTicksIn>
															<pproTicksOut>46472083257600</pproTicksOut>
															<alignment>end-black</alignment>
															<cutPointTicks>762810048000</cutPointTicks>
															<rate>
																<timebase>30</timebase>
																<ntsc>TRUE</ntsc>
															</rate>
															<effect>
																<name>Cross Fade (+3dB)</name>
																<effectid>KGAudioTransCrossFade3dB</effectid>
																<effecttype>transition</effecttype>
																<mediatype>audio</mediatype>
																<wipecode>0</wipecode>
																<wipeaccuracy>100</wipeaccuracy>
																<startratio>0</startratio>
																<endratio>1</endratio>
																<reverse>FALSE</reverse>
															</effect>
														</transitionitem>
														<clipitem id="clipitem-977" premiereChannelType="stereo">
															<masterclipid>masterclip-198</masterclipid>
															<name>01_HouseAd Nest</name>
															<enabled>TRUE</enabled>
															<duration>239</duration>
															<rate>
																<timebase>30</timebase>
																<ntsc>TRUE</ntsc>
															</rate>
															<start>5483</start>
															<end>5722</end>
															<in>0</in>
															<out>239</out>
															<pproTicksIn>0</pproTicksIn>
															<pproTicksOut>2025684460800</pproTicksOut>
															<sequence id="sequence-2"/>
															<sourcetrack>
																<mediatype>audio</mediatype>
																<trackindex>1</trackindex>
															</sourcetrack>
															<filter>
																<effect>
																	<name>Gain</name>
																	<effectid>{61756678, 4761696e, 4b657947}</effectid>
																	<effecttype>filter</effecttype>
																	<mediatype>audio</mediatype>
																	<parameter authoringApp="PremierePro">
																		<parameterid>Gain(dB)</parameterid>
																		<name>Gain(dB)</name>
																		<valuemin>-96</valuemin>
																		<valuemax>96</valuemax>
																		<value>9</value>
																	</parameter>
																</effect>
															</filter>
															<link>
																<linkclipref>clipitem-968</linkclipref>
																<mediatype>video</mediatype>
																<trackindex>1</trackindex>
																<clipindex>3</clipindex>
															</link>
															<link>
																<linkclipref>clipitem-974</linkclipref>
																<mediatype>audio</mediatype>
																<trackindex>1</trackindex>
																<clipindex>7</clipindex>
																<groupindex>1</groupindex>
															</link>
															<link>
																<linkclipref>clipitem-977</linkclipref>
																<mediatype>audio</mediatype>
																<trackindex>2</trackindex>
																<clipindex>7</clipindex>
																<groupindex>1</groupindex>
															</link>
															<labels>
																<label2>Yellow</label2>
															</labels>
														</clipitem>
														<enabled>TRUE</enabled>
														<locked>FALSE</locked>
														<filter>
															<effect>
																<name>Audio Levels</name>
																<effectid>audiolevels</effectid>
																<effectcategory>audiolevels</effectcategory>
																<effecttype>audiolevels</effecttype>
																<mediatype>audio</mediatype>
																<parameter authoringApp="PremierePro">
																	<parameterid>level</parameterid>
																	<name>Level</name>
																	<valuemin>0</valuemin>
																	<valuemax>3.98109</valuemax>
																	<value>0.706272</value>
																</parameter>
															</effect>
														</filter>
														<outputchannelindex>2</outputchannelindex>
													</track>
													<track TL.SQTrackAudioKeyframeStyle="0" TL.SQTrackShy="0" TL.SQTrackExpandedHeight="25" TL.SQTrackExpanded="0" MZ.TrackTargeted="0" PannerCurrentValue="0.5" PannerIsInverted="true" PannerStartKeyframe="-91445760000000000,0.5,0,0,0,0,0,0" PannerName="Balance" currentExplodedTrackIndex="0" totalExplodedTrackCount="2" premiereTrackType="Stereo">
														<clipitem id="clipitem-978" premiereChannelType="stereo">
															<masterclipid>masterclip-199</masterclipid>
															<name>00_Quick Grid Transition</name>
															<enabled>TRUE</enabled>
															<duration>299</duration>
															<rate>
																<timebase>30</timebase>
																<ntsc>TRUE</ntsc>
															</rate>
															<start>2564</start>
															<end>2655</end>
															<in>0</in>
															<out>91</out>
															<pproTicksIn>0</pproTicksIn>
															<pproTicksOut>771285715200</pproTicksOut>
															<sequence id="sequence-8"/>
															<sourcetrack>
																<mediatype>audio</mediatype>
																<trackindex>0</trackindex>
															</sourcetrack>
																<marker>
																	<comment></comment>
																	<name></name>
																	<in>51</in>
																	<out>-1</out>
																</marker>
																<marker>
																	<comment></comment>
																	<name></name>
																	<in>24</in>
																	<out>-1</out>
																</marker>
															<link>
																<linkclipref>clipitem-971</linkclipref>
																<mediatype>video</mediatype>
																<trackindex>3</trackindex>
																<clipindex>1</clipindex>
															</link>
															<link>
																<linkclipref>clipitem-978</linkclipref>
																<mediatype>audio</mediatype>
																<trackindex>3</trackindex>
																<clipindex>1</clipindex>
																<groupindex>1</groupindex>
															</link>
															<link>
																<linkclipref>clipitem-979</linkclipref>
																<mediatype>audio</mediatype>
																<trackindex>4</trackindex>
																<clipindex>1</clipindex>
																<groupindex>1</groupindex>
															</link>
															<labels>
																<label2>Lavender</label2>
															</labels>
														</clipitem>
														<enabled>TRUE</enabled>
														<locked>FALSE</locked>
														<filter>
															<effect>
																<name>Audio Levels</name>
																<effectid>audiolevels</effectid>
																<effectcategory>audiolevels</effectcategory>
																<effecttype>audiolevels</effecttype>
																<mediatype>audio</mediatype>
																<parameter authoringApp="PremierePro">
																	<parameterid>level</parameterid>
																	<name>Level</name>
																	<valuemin>0</valuemin>
																	<valuemax>3.98109</valuemax>
																	<value>0.706272</value>
																</parameter>
															</effect>
														</filter>
														<outputchannelindex>1</outputchannelindex>
													</track>
													<track TL.SQTrackAudioKeyframeStyle="0" TL.SQTrackShy="0" TL.SQTrackExpandedHeight="25" TL.SQTrackExpanded="0" MZ.TrackTargeted="0" PannerCurrentValue="0.5" PannerIsInverted="true" PannerStartKeyframe="-91445760000000000,0.5,0,0,0,0,0,0" PannerName="Balance" currentExplodedTrackIndex="1" totalExplodedTrackCount="2" premiereTrackType="Stereo">
														<clipitem id="clipitem-979" premiereChannelType="stereo">
															<masterclipid>masterclip-199</masterclipid>
															<name>00_Quick Grid Transition</name>
															<enabled>TRUE</enabled>
															<duration>299</duration>
															<rate>
																<timebase>30</timebase>
																<ntsc>TRUE</ntsc>
															</rate>
															<start>2564</start>
															<end>2655</end>
															<in>0</in>
															<out>91</out>
															<pproTicksIn>0</pproTicksIn>
															<pproTicksOut>771285715200</pproTicksOut>
															<sequence id="sequence-8"/>
															<sourcetrack>
																<mediatype>audio</mediatype>
																<trackindex>1</trackindex>
															</sourcetrack>
																<marker>
																	<comment></comment>
																	<name></name>
																	<in>51</in>
																	<out>-1</out>
																</marker>
																<marker>
																	<comment></comment>
																	<name></name>
																	<in>24</in>
																	<out>-1</out>
																</marker>
															<link>
																<linkclipref>clipitem-971</linkclipref>
																<mediatype>video</mediatype>
																<trackindex>3</trackindex>
																<clipindex>1</clipindex>
															</link>
															<link>
																<linkclipref>clipitem-978</linkclipref>
																<mediatype>audio</mediatype>
																<trackindex>3</trackindex>
																<clipindex>1</clipindex>
																<groupindex>1</groupindex>
															</link>
															<link>
																<linkclipref>clipitem-979</linkclipref>
																<mediatype>audio</mediatype>
																<trackindex>4</trackindex>
																<clipindex>1</clipindex>
																<groupindex>1</groupindex>
															</link>
															<labels>
																<label2>Lavender</label2>
															</labels>
														</clipitem>
														<enabled>TRUE</enabled>
														<locked>FALSE</locked>
														<filter>
															<effect>
																<name>Audio Levels</name>
																<effectid>audiolevels</effectid>
																<effectcategory>audiolevels</effectcategory>
																<effecttype>audiolevels</effecttype>
																<mediatype>audio</mediatype>
																<parameter authoringApp="PremierePro">
																	<parameterid>level</parameterid>
																	<name>Level</name>
																	<valuemin>0</valuemin>
																	<valuemax>3.98109</valuemax>
																	<value>0.706272</value>
																</parameter>
															</effect>
														</filter>
														<outputchannelindex>2</outputchannelindex>
													</track>
													<track TL.SQTrackAudioKeyframeStyle="0" TL.SQTrackShy="0" TL.SQTrackExpandedHeight="25" TL.SQTrackExpanded="0" MZ.TrackTargeted="0" PannerCurrentValue="0.5" PannerIsInverted="true" PannerStartKeyframe="-91445760000000000,0.5,0,0,0,0,0,0" PannerName="Balance" currentExplodedTrackIndex="0" totalExplodedTrackCount="2" premiereTrackType="Stereo">
														<enabled>TRUE</enabled>
														<locked>FALSE</locked>
														<outputchannelindex>1</outputchannelindex>
													</track>
													<track TL.SQTrackAudioKeyframeStyle="0" TL.SQTrackShy="0" TL.SQTrackExpandedHeight="25" TL.SQTrackExpanded="0" MZ.TrackTargeted="0" PannerCurrentValue="0.5" PannerIsInverted="true" PannerStartKeyframe="-91445760000000000,0.5,0,0,0,0,0,0" PannerName="Balance" currentExplodedTrackIndex="1" totalExplodedTrackCount="2" premiereTrackType="Stereo">
														<enabled>TRUE</enabled>
														<locked>FALSE</locked>
														<outputchannelindex>2</outputchannelindex>
													</track>
												</audio>
											</media>
											<timecode>
												<rate>
													<timebase>30</timebase>
													<ntsc>TRUE</ntsc>
												</rate>
												<string>00:00:00:00</string>
												<frame>0</frame>
												<displayformat>NDF</displayformat>
											</timecode>
											<logginginfo>
												<description></description>
												<scene></scene>
												<shottake></shottake>
												<lognote></lognote>
												<good></good>
												<originalvideofilename></originalvideofilename>
												<originalaudiofilename></originalaudiofilename>
											</logginginfo>
										</sequence>
										<filter>
											<effect>
												<name>Basic Motion</name>
												<effectid>basic</effectid>
												<effectcategory>motion</effectcategory>
												<effecttype>motion</effecttype>
												<mediatype>video</mediatype>
												<pproBypass>false</pproBypass>
												<parameter authoringApp="PremierePro">
													<parameterid>scale</parameterid>
													<name>Scale</name>
													<valuemin>0</valuemin>
													<valuemax>1000</valuemax>
													<value>66.6667</value>
												</parameter>
												<parameter authoringApp="PremierePro">
													<parameterid>rotation</parameterid>
													<name>Rotation</name>
													<valuemin>-8640</valuemin>
													<valuemax>8640</valuemax>
													<value>0</value>
												</parameter>
												<parameter authoringApp="PremierePro">
													<parameterid>center</parameterid>
													<name>Center</name>
													<value>
														<horiz>-0.5</horiz>
														<vert>-0.5</vert>
													</value>
												</parameter>
												<parameter authoringApp="PremierePro">
													<parameterid>centerOffset</parameterid>
													<name>Anchor Point</name>
													<value>
														<horiz>0</horiz>
														<vert>0</vert>
													</value>
												</parameter>
												<parameter authoringApp="PremierePro">
													<parameterid>antiflicker</parameterid>
													<name>Anti-flicker Filter</name>
													<valuemin>0.0</valuemin>
													<valuemax>1.0</valuemax>
													<value>0</value>
												</parameter>
											</effect>
										</filter>
										<link>
											<linkclipref>clipitem-965</linkclipref>
											<mediatype>video</mediatype>
											<trackindex>1</trackindex>
											<clipindex>3</clipindex>
										</link>
										<link>
											<linkclipref>clipitem-1122</linkclipref>
											<mediatype>audio</mediatype>
											<trackindex>1</trackindex>
											<clipindex>3</clipindex>
											<groupindex>1</groupindex>
										</link>
										<link>
											<linkclipref>clipitem-1136</linkclipref>
											<mediatype>audio</mediatype>
											<trackindex>2</trackindex>
											<clipindex>3</clipindex>
											<groupindex>1</groupindex>
										</link>
										<labels>
											<label2>Forest</label2>
										</labels>
									</clipitem>
									<clipitem id="clipitem-980">
										<masterclipid>masterclip-200</masterclipid>
										<name>07</name>
										<enabled>TRUE</enabled>
										<duration>96212</duration>
										<rate>
											<timebase>30</timebase>
											<ntsc>TRUE</ntsc>
										</rate>
										<start>22884</start>
										<end>28537</end>
										<in>0</in>
										<out>5653</out>
										<pproTicksIn>0</pproTicksIn>
										<pproTicksOut>47912946681600</pproTicksOut>
										<sequence id="sequence-74" TL.SQAudioVisibleBase="0" TL.SQVideoVisibleBase="0" TL.SQVisibleBaseTime="0" TL.SQAVDividerPosition="0.5" TL.SQHideShyTracks="0" TL.SQHeaderWidth="236" TL.SQDataTrackViewControlState="0" Monitor.ProgramZoomOut="43302183724800" Monitor.ProgramZoomIn="0" TL.SQTimePerPixel="0.13818516812528672" AM.TrackVScrollPosition="0" AM.TrackScrollPosition="0" MZ.EditLine="16739442720000" MZ.Sequence.PreviewFrameSizeHeight="1080" MZ.Sequence.PreviewFrameSizeWidth="1920" MZ.Sequence.AudioTimeDisplayFormat="200" MZ.Sequence.PreviewRenderingClassID="1297106761" MZ.Sequence.PreviewRenderingPresetCodec="1297107278" MZ.Sequence.PreviewRenderingPresetPath="EncoderPresets/SequencePreview/795454d9-d3c2-429d-9474-923ab13b7018/I-Frame Only MPEG.epr" MZ.Sequence.PreviewUseMaxRenderQuality="false" MZ.Sequence.PreviewUseMaxBitDepth="false" MZ.Sequence.EditingModeGUID="795454d9-d3c2-429d-9474-923ab13b7018" MZ.Sequence.VideoTimeDisplayFormat="103" MZ.WorkOutPoint="15705411321600" MZ.WorkInPoint="0">
											<duration>5109</duration>
											<rate>
												<timebase>30</timebase>
												<ntsc>TRUE</ntsc>
											</rate>
											<name>ATM_ODDLY SATISFYING_1545</name>
											<media>
												<video>
													<format>
														<samplecharacteristics>
															<rate>
																<timebase>30</timebase>
																<ntsc>TRUE</ntsc>
															</rate>
															<codec>
																<name>Apple ProRes 422</name>
																<appspecificdata>
																	<appname>Final Cut Pro</appname>
																	<appmanufacturer>Apple Inc.</appmanufacturer>
																	<appversion>7.0</appversion>
																	<data>
																		<qtcodec>
																			<codecname>Apple ProRes 422</codecname>
																			<codectypename>Apple ProRes 422</codectypename>
																			<codectypecode>apcn</codectypecode>
																			<codecvendorcode>appl</codecvendorcode>
																			<spatialquality>1024</spatialquality>
																			<temporalquality>0</temporalquality>
																			<keyframerate>0</keyframerate>
																			<datarate>0</datarate>
																		</qtcodec>
																	</data>
																</appspecificdata>
															</codec>
															<width>1920</width>
															<height>1080</height>
															<anamorphic>FALSE</anamorphic>
															<pixelaspectratio>square</pixelaspectratio>
															<fielddominance>none</fielddominance>
															<colordepth>24</colordepth>
														</samplecharacteristics>
													</format>
													<track TL.SQTrackShy="0" TL.SQTrackExpandedHeight="25" TL.SQTrackExpanded="0" MZ.TrackTargeted="1">
														<clipitem id="clipitem-981">
															<masterclipid>masterclip-201</masterclipid>
															<name>populuzenest</name>
															<enabled>TRUE</enabled>
															<duration>2975</duration>
															<rate>
																<timebase>30</timebase>
																<ntsc>TRUE</ntsc>
															</rate>
															<start>0</start>
															<end>2975</end>
															<in>0</in>
															<out>2975</out>
															<pproTicksIn>0</pproTicksIn>
															<pproTicksOut>25215109920000</pproTicksOut>
															<sequence id="sequence-28"/>
															<filter>
																<effect>
																	<name>Basic Motion</name>
																	<effectid>basic</effectid>
																	<effectcategory>motion</effectcategory>
																	<effecttype>motion</effecttype>
																	<mediatype>video</mediatype>
																	<pproBypass>false</pproBypass>
																	<parameter authoringApp="PremierePro">
																		<parameterid>scale</parameterid>
																		<name>Scale</name>
																		<valuemin>0</valuemin>
																		<valuemax>1000</valuemax>
																		<value>214</value>
																	</parameter>
																	<parameter authoringApp="PremierePro">
																		<parameterid>rotation</parameterid>
																		<name>Rotation</name>
																		<valuemin>-8640</valuemin>
																		<valuemax>8640</valuemax>
																		<value>0</value>
																	</parameter>
																	<parameter authoringApp="PremierePro">
																		<parameterid>center</parameterid>
																		<name>Center</name>
																		<value>
																			<horiz>-0.5</horiz>
																			<vert>-0.5</vert>
																		</value>
																	</parameter>
																	<parameter authoringApp="PremierePro">
																		<parameterid>centerOffset</parameterid>
																		<name>Anchor Point</name>
																		<value>
																			<horiz>0</horiz>
																			<vert>0</vert>
																		</value>
																	</parameter>
																	<parameter authoringApp="PremierePro">
																		<parameterid>antiflicker</parameterid>
																		<name>Anti-flicker Filter</name>
																		<valuemin>0.0</valuemin>
																		<valuemax>1.0</valuemax>
																		<value>0</value>
																	</parameter>
																</effect>
															</filter>
															<filter>
																<effect>
																	<name>Gaussian Blur</name>
																	<effectid>Gaussian Blur</effectid>
																	<effectcategory>Blur</effectcategory>
																	<effecttype>motion</effecttype>
																	<mediatype>video</mediatype>
																	<pproBypass>false</pproBypass>
																	<parameter authoringApp="PremierePro">
																		<parameterid>radius</parameterid>
																		<name>Radius</name>
																		<valuemin>0</valuemin>
																		<valuemax>100</valuemax>
																		<value>150</value>
																	</parameter>
																</effect>
															</filter>
															<labels>
																<label2>Forest</label2>
															</labels>
														</clipitem>
														<clipitem id="clipitem-982">
															<masterclipid>masterclip-202</masterclipid>
															<name>1260nestnest</name>
															<enabled>TRUE</enabled>
															<duration>2333</duration>
															<rate>
																<timebase>30</timebase>
																<ntsc>TRUE</ntsc>
															</rate>
															<start>3057</start>
															<end>-1</end>
															<in>0</in>
															<out>2052</out>
															<pproTicksIn>0</pproTicksIn>
															<pproTicksOut>17392069094400</pproTicksOut>
															<sequence id="sequence-30"/>
															<link>
																<linkclipref>clipitem-982</linkclipref>
																<mediatype>video</mediatype>
																<trackindex>1</trackindex>
																<clipindex>2</clipindex>
															</link>
															<link>
																<linkclipref>clipitem-988</linkclipref>
																<mediatype>audio</mediatype>
																<trackindex>1</trackindex>
																<clipindex>4</clipindex>
																<groupindex>1</groupindex>
															</link>
															<link>
																<linkclipref>clipitem-990</linkclipref>
																<mediatype>audio</mediatype>
																<trackindex>2</trackindex>
																<clipindex>4</clipindex>
																<groupindex>1</groupindex>
															</link>
															<labels>
																<label2>Forest</label2>
															</labels>
														</clipitem>
														<transitionitem>
															<start>5079</start>
															<end>5109</end>
															<alignment>end-black</alignment>
															<cutPointTicks>254270016000</cutPointTicks>
															<rate>
																<timebase>30</timebase>
																<ntsc>TRUE</ntsc>
															</rate>
															<effect>
																<name>Cross Dissolve</name>
																<effectid>Cross Dissolve</effectid>
																<effectcategory>Dissolve</effectcategory>
																<effecttype>transition</effecttype>
																<mediatype>video</mediatype>
																<wipecode>0</wipecode>
																<wipeaccuracy>100</wipeaccuracy>
																<startratio>0</startratio>
																<endratio>1</endratio>
																<reverse>FALSE</reverse>
															</effect>
														</transitionitem>
														<enabled>TRUE</enabled>
														<locked>FALSE</locked>
													</track>
													<track TL.SQTrackShy="0" TL.SQTrackExpandedHeight="25" TL.SQTrackExpanded="0" MZ.TrackTargeted="0">
														<clipitem id="clipitem-983">
															<masterclipid>masterclip-201</masterclipid>
															<name>populuzenest</name>
															<enabled>TRUE</enabled>
															<duration>2975</duration>
															<rate>
																<timebase>30</timebase>
																<ntsc>TRUE</ntsc>
															</rate>
															<start>0</start>
															<end>2975</end>
															<in>0</in>
															<out>2975</out>
															<pproTicksIn>0</pproTicksIn>
															<pproTicksOut>25215109920000</pproTicksOut>
															<sequence id="sequence-28"/>
															<labels>
																<label2>Forest</label2>
															</labels>
														</clipitem>
														<enabled>TRUE</enabled>
														<locked>FALSE</locked>
													</track>
													<track TL.SQTrackShy="0" TL.SQTrackExpandedHeight="25" TL.SQTrackExpanded="0" MZ.TrackTargeted="0">
														<clipitem id="clipitem-984">
															<masterclipid>masterclip-56</masterclipid>
															<name>@populuxe_</name>
															<enabled>TRUE</enabled>
															<duration>5844</duration>
															<rate>
																<timebase>30</timebase>
																<ntsc>TRUE</ntsc>
															</rate>
															<start>0</start>
															<end>2975</end>
															<in>0</in>
															<out>2975</out>
															<pproTicksIn>0</pproTicksIn>
															<pproTicksOut>25215109920000</pproTicksOut>
															<alphatype>straight</alphatype>
															<file id="file-56"/>
															<filter>
																<effect>
																	<name>Basic Motion</name>
																	<effectid>basic</effectid>
																	<effectcategory>motion</effectcategory>
																	<effecttype>motion</effecttype>
																	<mediatype>video</mediatype>
																	<pproBypass>false</pproBypass>
																	<parameter authoringApp="PremierePro">
																		<parameterid>scale</parameterid>
																		<name>Scale</name>
																		<valuemin>0</valuemin>
																		<valuemax>1000</valuemax>
																		<value>150</value>
																	</parameter>
																	<parameter authoringApp="PremierePro">
																		<parameterid>rotation</parameterid>
																		<name>Rotation</name>
																		<valuemin>-8640</valuemin>
																		<valuemax>8640</valuemax>
																		<value>0</value>
																	</parameter>
																	<parameter authoringApp="PremierePro">
																		<parameterid>center</parameterid>
																		<name>Center</name>
																		<value>
																			<horiz>0</horiz>
																			<vert>0</vert>
																		</value>
																	</parameter>
																	<parameter authoringApp="PremierePro">
																		<parameterid>centerOffset</parameterid>
																		<name>Anchor Point</name>
																		<value>
																			<horiz>0</horiz>
																			<vert>0</vert>
																		</value>
																	</parameter>
																	<parameter authoringApp="PremierePro">
																		<parameterid>antiflicker</parameterid>
																		<name>Anti-flicker Filter</name>
																		<valuemin>0.0</valuemin>
																		<valuemax>1.0</valuemax>
																		<value>0</value>
																	</parameter>
																</effect>
															</filter>
															<logginginfo>
																<description></description>
																<scene></scene>
																<shottake></shottake>
																<lognote></lognote>
																<good></good>
																<originalvideofilename></originalvideofilename>
																<originalaudiofilename></originalaudiofilename>
															</logginginfo>
															<colorinfo>
																<lut></lut>
																<lut1></lut1>
																<asc_sop></asc_sop>
																<asc_sat></asc_sat>
																<lut2></lut2>
															</colorinfo>
															<labels>
																<label2>Rose</label2>
															</labels>
														</clipitem>
														<enabled>TRUE</enabled>
														<locked>FALSE</locked>
													</track>
													<track TL.SQTrackShy="0" TL.SQTrackExpandedHeight="25" TL.SQTrackExpanded="0" MZ.TrackTargeted="0">
														<clipitem id="clipitem-985">
															<masterclipid>masterclip-106</masterclipid>
															<name>Bug and Lower Nest</name>
															<enabled>TRUE</enabled>
															<duration>14721</duration>
															<rate>
																<timebase>30</timebase>
																<ntsc>TRUE</ntsc>
															</rate>
															<start>0</start>
															<end>2975</end>
															<in>0</in>
															<out>2975</out>
															<pproTicksIn>0</pproTicksIn>
															<pproTicksOut>25215109920000</pproTicksOut>
															<sequence id="sequence-1"/>
															<labels>
																<label2>Cerulean</label2>
															</labels>
														</clipitem>
														<enabled>TRUE</enabled>
														<locked>FALSE</locked>
													</track>
													<track TL.SQTrackShy="0" TL.SQTrackExpandedHeight="25" TL.SQTrackExpanded="0" MZ.TrackTargeted="0">
														<clipitem id="clipitem-986">
															<masterclipid>masterclip-203</masterclipid>
															<name>OS Trans 03</name>
															<enabled>TRUE</enabled>
															<duration>2613</duration>
															<rate>
																<timebase>30</timebase>
																<ntsc>TRUE</ntsc>
															</rate>
															<start>2925</start>
															<end>3121</end>
															<in>0</in>
															<out>196</out>
															<pproTicksIn>0</pproTicksIn>
															<pproTicksOut>1661230771200</pproTicksOut>
															<sequence id="sequence-4"/>
																<marker>
																	<comment></comment>
																	<name></name>
																	<in>50</in>
																	<out>-1</out>
																</marker>
																<marker>
																	<comment></comment>
																	<name></name>
																	<in>132</in>
																	<out>-1</out>
																</marker>
															<link>
																<linkclipref>clipitem-986</linkclipref>
																<mediatype>video</mediatype>
																<trackindex>5</trackindex>
																<clipindex>1</clipindex>
															</link>
															<link>
																<linkclipref>clipitem-991</linkclipref>
																<mediatype>audio</mediatype>
																<trackindex>3</trackindex>
																<clipindex>1</clipindex>
																<groupindex>1</groupindex>
															</link>
															<link>
																<linkclipref>clipitem-992</linkclipref>
																<mediatype>audio</mediatype>
																<trackindex>4</trackindex>
																<clipindex>1</clipindex>
																<groupindex>1</groupindex>
															</link>
															<labels>
																<label2>Purple</label2>
															</labels>
														</clipitem>
														<enabled>TRUE</enabled>
														<locked>FALSE</locked>
													</track>
												</video>
												<audio>
													<numOutputChannels>2</numOutputChannels>
													<format>
														<samplecharacteristics>
															<depth>16</depth>
															<samplerate>44100</samplerate>
														</samplecharacteristics>
													</format>
													<outputs>
														<group>
															<index>1</index>
															<numchannels>1</numchannels>
															<downmix>0</downmix>
															<channel>
																<index>1</index>
															</channel>
														</group>
														<group>
															<index>2</index>
															<numchannels>1</numchannels>
															<downmix>0</downmix>
															<channel>
																<index>2</index>
															</channel>
														</group>
													</outputs>
													<track TL.SQTrackAudioKeyframeStyle="0" TL.SQTrackShy="0" TL.SQTrackExpandedHeight="25" TL.SQTrackExpanded="0" MZ.TrackTargeted="1" PannerCurrentValue="0.5" PannerIsInverted="true" PannerStartKeyframe="-91445760000000000,0.5,0,0,0,0,0,0" PannerName="Balance" currentExplodedTrackIndex="0" totalExplodedTrackCount="2" premiereTrackType="Stereo">
														<transitionitem>
															<start>0</start>
															<end>30</end>
															<pproTicksIn>0</pproTicksIn>
															<pproTicksOut>254270016000</pproTicksOut>
															<alignment>start-black</alignment>
															<cutPointTicks>0</cutPointTicks>
															<rate>
																<timebase>30</timebase>
																<ntsc>TRUE</ntsc>
															</rate>
															<effect>
																<name>Cross Fade (+3dB)</name>
																<effectid>KGAudioTransCrossFade3dB</effectid>
																<effecttype>transition</effecttype>
																<mediatype>audio</mediatype>
																<wipecode>0</wipecode>
																<wipeaccuracy>100</wipeaccuracy>
																<startratio>0</startratio>
																<endratio>1</endratio>
																<reverse>FALSE</reverse>
															</effect>
														</transitionitem>
														<clipitem id="clipitem-987" premiereChannelType="stereo">
															<masterclipid>masterclip-15</masterclipid>
															<name>ES_Training Montage - baegel.mp3</name>
															<enabled>TRUE</enabled>
															<duration>3853</duration>
															<rate>
																<timebase>30</timebase>
																<ntsc>TRUE</ntsc>
															</rate>
															<start>-1</start>
															<end>-1</end>
															<in>576</in>
															<out>3551</out>
															<pproTicksIn>4881984307200</pproTicksIn>
															<pproTicksOut>30097094227200</pproTicksOut>
															<file id="file-15"/>
															<sourcetrack>
																<mediatype>audio</mediatype>
																<trackindex>1</trackindex>
															</sourcetrack>
															<link>
																<linkclipref>clipitem-987</linkclipref>
																<mediatype>audio</mediatype>
																<trackindex>1</trackindex>
																<clipindex>2</clipindex>
																<groupindex>1</groupindex>
															</link>
															<link>
																<linkclipref>clipitem-989</linkclipref>
																<mediatype>audio</mediatype>
																<trackindex>2</trackindex>
																<clipindex>2</clipindex>
																<groupindex>1</groupindex>
															</link>
															<logginginfo>
																<description></description>
																<scene></scene>
																<shottake></shottake>
																<lognote></lognote>
																<good></good>
																<originalvideofilename></originalvideofilename>
																<originalaudiofilename></originalaudiofilename>
															</logginginfo>
															<colorinfo>
																<lut></lut>
																<lut1></lut1>
																<asc_sop></asc_sop>
																<asc_sat></asc_sat>
																<lut2></lut2>
															</colorinfo>
															<labels>
																<label2>Caribbean</label2>
															</labels>
														</clipitem>
														<transitionitem>
															<start>2885</start>
															<end>2975</end>
															<pproTicksIn>24452299872000</pproTicksIn>
															<pproTicksOut>25215109920000</pproTicksOut>
															<alignment>end-black</alignment>
															<cutPointTicks>762810048000</cutPointTicks>
															<rate>
																<timebase>30</timebase>
																<ntsc>TRUE</ntsc>
															</rate>
															<effect>
																<name>Cross Fade (+3dB)</name>
																<effectid>KGAudioTransCrossFade3dB</effectid>
																<effecttype>transition</effecttype>
																<mediatype>audio</mediatype>
																<wipecode>0</wipecode>
																<wipeaccuracy>100</wipeaccuracy>
																<startratio>0</startratio>
																<endratio>1</endratio>
																<reverse>FALSE</reverse>
															</effect>
														</transitionitem>
														<clipitem id="clipitem-988" premiereChannelType="stereo">
															<masterclipid>masterclip-202</masterclipid>
															<name>1260nestnest</name>
															<enabled>TRUE</enabled>
															<duration>2333</duration>
															<rate>
																<timebase>30</timebase>
																<ntsc>TRUE</ntsc>
															</rate>
															<start>3057</start>
															<end>5109</end>
															<in>0</in>
															<out>2052</out>
															<pproTicksIn>0</pproTicksIn>
															<pproTicksOut>17392069094400</pproTicksOut>
															<sequence id="sequence-30"/>
															<sourcetrack>
																<mediatype>audio</mediatype>
																<trackindex>0</trackindex>
															</sourcetrack>
															<link>
																<linkclipref>clipitem-982</linkclipref>
																<mediatype>video</mediatype>
																<trackindex>1</trackindex>
																<clipindex>2</clipindex>
															</link>
															<link>
																<linkclipref>clipitem-988</linkclipref>
																<mediatype>audio</mediatype>
																<trackindex>1</trackindex>
																<clipindex>4</clipindex>
																<groupindex>1</groupindex>
															</link>
															<link>
																<linkclipref>clipitem-990</linkclipref>
																<mediatype>audio</mediatype>
																<trackindex>2</trackindex>
																<clipindex>4</clipindex>
																<groupindex>1</groupindex>
															</link>
															<labels>
																<label2>Forest</label2>
															</labels>
														</clipitem>
														<enabled>TRUE</enabled>
														<locked>FALSE</locked>
														<filter>
															<effect>
																<name>Audio Levels</name>
																<effectid>audiolevels</effectid>
																<effectcategory>audiolevels</effectcategory>
																<effecttype>audiolevels</effecttype>
																<mediatype>audio</mediatype>
																<parameter authoringApp="PremierePro">
																	<parameterid>level</parameterid>
																	<name>Level</name>
																	<valuemin>0</valuemin>
																	<valuemax>3.98109</valuemax>
																	<value>0.706272</value>
																</parameter>
															</effect>
														</filter>
														<outputchannelindex>1</outputchannelindex>
													</track>
													<track TL.SQTrackAudioKeyframeStyle="0" TL.SQTrackShy="0" TL.SQTrackExpandedHeight="25" TL.SQTrackExpanded="0" MZ.TrackTargeted="1" PannerCurrentValue="0.5" PannerIsInverted="true" PannerStartKeyframe="-91445760000000000,0.5,0,0,0,0,0,0" PannerName="Balance" currentExplodedTrackIndex="1" totalExplodedTrackCount="2" premiereTrackType="Stereo">
														<transitionitem>
															<start>0</start>
															<end>30</end>
															<pproTicksIn>0</pproTicksIn>
															<pproTicksOut>254270016000</pproTicksOut>
															<alignment>start-black</alignment>
															<cutPointTicks>0</cutPointTicks>
															<rate>
																<timebase>30</timebase>
																<ntsc>TRUE</ntsc>
															</rate>
															<effect>
																<name>Cross Fade (+3dB)</name>
																<effectid>KGAudioTransCrossFade3dB</effectid>
																<effecttype>transition</effecttype>
																<mediatype>audio</mediatype>
																<wipecode>0</wipecode>
																<wipeaccuracy>100</wipeaccuracy>
																<startratio>0</startratio>
																<endratio>1</endratio>
																<reverse>FALSE</reverse>
															</effect>
														</transitionitem>
														<clipitem id="clipitem-989" premiereChannelType="stereo">
															<masterclipid>masterclip-15</masterclipid>
															<name>ES_Training Montage - baegel.mp3</name>
															<enabled>TRUE</enabled>
															<duration>3853</duration>
															<rate>
																<timebase>30</timebase>
																<ntsc>TRUE</ntsc>
															</rate>
															<start>-1</start>
															<end>-1</end>
															<in>576</in>
															<out>3551</out>
															<pproTicksIn>4881984307200</pproTicksIn>
															<pproTicksOut>30097094227200</pproTicksOut>
															<file id="file-15"/>
															<sourcetrack>
																<mediatype>audio</mediatype>
																<trackindex>2</trackindex>
															</sourcetrack>
															<link>
																<linkclipref>clipitem-987</linkclipref>
																<mediatype>audio</mediatype>
																<trackindex>1</trackindex>
																<clipindex>2</clipindex>
																<groupindex>1</groupindex>
															</link>
															<link>
																<linkclipref>clipitem-989</linkclipref>
																<mediatype>audio</mediatype>
																<trackindex>2</trackindex>
																<clipindex>2</clipindex>
																<groupindex>1</groupindex>
															</link>
															<logginginfo>
																<description></description>
																<scene></scene>
																<shottake></shottake>
																<lognote></lognote>
																<good></good>
																<originalvideofilename></originalvideofilename>
																<originalaudiofilename></originalaudiofilename>
															</logginginfo>
															<colorinfo>
																<lut></lut>
																<lut1></lut1>
																<asc_sop></asc_sop>
																<asc_sat></asc_sat>
																<lut2></lut2>
															</colorinfo>
															<labels>
																<label2>Caribbean</label2>
															</labels>
														</clipitem>
														<transitionitem>
															<start>2885</start>
															<end>2975</end>
															<pproTicksIn>24452299872000</pproTicksIn>
															<pproTicksOut>25215109920000</pproTicksOut>
															<alignment>end-black</alignment>
															<cutPointTicks>762810048000</cutPointTicks>
															<rate>
																<timebase>30</timebase>
																<ntsc>TRUE</ntsc>
															</rate>
															<effect>
																<name>Cross Fade (+3dB)</name>
																<effectid>KGAudioTransCrossFade3dB</effectid>
																<effecttype>transition</effecttype>
																<mediatype>audio</mediatype>
																<wipecode>0</wipecode>
																<wipeaccuracy>100</wipeaccuracy>
																<startratio>0</startratio>
																<endratio>1</endratio>
																<reverse>FALSE</reverse>
															</effect>
														</transitionitem>
														<clipitem id="clipitem-990" premiereChannelType="stereo">
															<masterclipid>masterclip-202</masterclipid>
															<name>1260nestnest</name>
															<enabled>TRUE</enabled>
															<duration>2333</duration>
															<rate>
																<timebase>30</timebase>
																<ntsc>TRUE</ntsc>
															</rate>
															<start>3057</start>
															<end>5109</end>
															<in>0</in>
															<out>2052</out>
															<pproTicksIn>0</pproTicksIn>
															<pproTicksOut>17392069094400</pproTicksOut>
															<sequence id="sequence-30"/>
															<sourcetrack>
																<mediatype>audio</mediatype>
																<trackindex>1</trackindex>
															</sourcetrack>
															<link>
																<linkclipref>clipitem-982</linkclipref>
																<mediatype>video</mediatype>
																<trackindex>1</trackindex>
																<clipindex>2</clipindex>
															</link>
															<link>
																<linkclipref>clipitem-988</linkclipref>
																<mediatype>audio</mediatype>
																<trackindex>1</trackindex>
																<clipindex>4</clipindex>
																<groupindex>1</groupindex>
															</link>
															<link>
																<linkclipref>clipitem-990</linkclipref>
																<mediatype>audio</mediatype>
																<trackindex>2</trackindex>
																<clipindex>4</clipindex>
																<groupindex>1</groupindex>
															</link>
															<labels>
																<label2>Forest</label2>
															</labels>
														</clipitem>
														<enabled>TRUE</enabled>
														<locked>FALSE</locked>
														<filter>
															<effect>
																<name>Audio Levels</name>
																<effectid>audiolevels</effectid>
																<effectcategory>audiolevels</effectcategory>
																<effecttype>audiolevels</effecttype>
																<mediatype>audio</mediatype>
																<parameter authoringApp="PremierePro">
																	<parameterid>level</parameterid>
																	<name>Level</name>
																	<valuemin>0</valuemin>
																	<valuemax>3.98109</valuemax>
																	<value>0.706272</value>
																</parameter>
															</effect>
														</filter>
														<outputchannelindex>2</outputchannelindex>
													</track>
													<track TL.SQTrackAudioKeyframeStyle="0" TL.SQTrackShy="0" TL.SQTrackExpandedHeight="25" TL.SQTrackExpanded="0" MZ.TrackTargeted="0" PannerCurrentValue="0.5" PannerIsInverted="true" PannerStartKeyframe="-91445760000000000,0.5,0,0,0,0,0,0" PannerName="Balance" currentExplodedTrackIndex="0" totalExplodedTrackCount="2" premiereTrackType="Stereo">
														<clipitem id="clipitem-991" premiereChannelType="stereo">
															<masterclipid>masterclip-203</masterclipid>
															<name>OS Trans 03</name>
															<enabled>TRUE</enabled>
															<duration>2613</duration>
															<rate>
																<timebase>30</timebase>
																<ntsc>TRUE</ntsc>
															</rate>
															<start>2925</start>
															<end>3121</end>
															<in>0</in>
															<out>196</out>
															<pproTicksIn>0</pproTicksIn>
															<pproTicksOut>1661230771200</pproTicksOut>
															<sequence id="sequence-4"/>
															<sourcetrack>
																<mediatype>audio</mediatype>
																<trackindex>0</trackindex>
															</sourcetrack>
																<marker>
																	<comment></comment>
																	<name></name>
																	<in>50</in>
																	<out>-1</out>
																</marker>
																<marker>
																	<comment></comment>
																	<name></name>
																	<in>132</in>
																	<out>-1</out>
																</marker>
															<link>
																<linkclipref>clipitem-986</linkclipref>
																<mediatype>video</mediatype>
																<trackindex>5</trackindex>
																<clipindex>1</clipindex>
															</link>
															<link>
																<linkclipref>clipitem-991</linkclipref>
																<mediatype>audio</mediatype>
																<trackindex>3</trackindex>
																<clipindex>1</clipindex>
																<groupindex>1</groupindex>
															</link>
															<link>
																<linkclipref>clipitem-992</linkclipref>
																<mediatype>audio</mediatype>
																<trackindex>4</trackindex>
																<clipindex>1</clipindex>
																<groupindex>1</groupindex>
															</link>
															<labels>
																<label2>Purple</label2>
															</labels>
														</clipitem>
														<enabled>TRUE</enabled>
														<locked>FALSE</locked>
														<filter>
															<effect>
																<name>Audio Levels</name>
																<effectid>audiolevels</effectid>
																<effectcategory>audiolevels</effectcategory>
																<effecttype>audiolevels</effecttype>
																<mediatype>audio</mediatype>
																<parameter authoringApp="PremierePro">
																	<parameterid>level</parameterid>
																	<name>Level</name>
																	<valuemin>0</valuemin>
																	<valuemax>3.98109</valuemax>
																	<value>0.706272</value>
																</parameter>
															</effect>
														</filter>
														<outputchannelindex>1</outputchannelindex>
													</track>
													<track TL.SQTrackAudioKeyframeStyle="0" TL.SQTrackShy="0" TL.SQTrackExpandedHeight="25" TL.SQTrackExpanded="0" MZ.TrackTargeted="0" PannerCurrentValue="0.5" PannerIsInverted="true" PannerStartKeyframe="-91445760000000000,0.5,0,0,0,0,0,0" PannerName="Balance" currentExplodedTrackIndex="1" totalExplodedTrackCount="2" premiereTrackType="Stereo">
														<clipitem id="clipitem-992" premiereChannelType="stereo">
															<masterclipid>masterclip-203</masterclipid>
															<name>OS Trans 03</name>
															<enabled>TRUE</enabled>
															<duration>2613</duration>
															<rate>
																<timebase>30</timebase>
																<ntsc>TRUE</ntsc>
															</rate>
															<start>2925</start>
															<end>3121</end>
															<in>0</in>
															<out>196</out>
															<pproTicksIn>0</pproTicksIn>
															<pproTicksOut>1661230771200</pproTicksOut>
															<sequence id="sequence-4"/>
															<sourcetrack>
																<mediatype>audio</mediatype>
																<trackindex>1</trackindex>
															</sourcetrack>
																<marker>
																	<comment></comment>
																	<name></name>
																	<in>50</in>
																	<out>-1</out>
																</marker>
																<marker>
																	<comment></comment>
																	<name></name>
																	<in>132</in>
																	<out>-1</out>
																</marker>
															<link>
																<linkclipref>clipitem-986</linkclipref>
																<mediatype>video</mediatype>
																<trackindex>5</trackindex>
																<clipindex>1</clipindex>
															</link>
															<link>
																<linkclipref>clipitem-991</linkclipref>
																<mediatype>audio</mediatype>
																<trackindex>3</trackindex>
																<clipindex>1</clipindex>
																<groupindex>1</groupindex>
															</link>
															<link>
																<linkclipref>clipitem-992</linkclipref>
																<mediatype>audio</mediatype>
																<trackindex>4</trackindex>
																<clipindex>1</clipindex>
																<groupindex>1</groupindex>
															</link>
															<labels>
																<label2>Purple</label2>
															</labels>
														</clipitem>
														<enabled>TRUE</enabled>
														<locked>FALSE</locked>
														<filter>
															<effect>
																<name>Audio Levels</name>
																<effectid>audiolevels</effectid>
																<effectcategory>audiolevels</effectcategory>
																<effecttype>audiolevels</effecttype>
																<mediatype>audio</mediatype>
																<parameter authoringApp="PremierePro">
																	<parameterid>level</parameterid>
																	<name>Level</name>
																	<valuemin>0</valuemin>
																	<valuemax>3.98109</valuemax>
																	<value>0.706272</value>
																</parameter>
															</effect>
														</filter>
														<outputchannelindex>2</outputchannelindex>
													</track>
													<track TL.SQTrackAudioKeyframeStyle="0" TL.SQTrackShy="0" TL.SQTrackExpandedHeight="25" TL.SQTrackExpanded="0" MZ.TrackTargeted="0" PannerCurrentValue="0.5" PannerIsInverted="true" PannerStartKeyframe="-91445760000000000,0.5,0,0,0,0,0,0" PannerName="Balance" currentExplodedTrackIndex="0" totalExplodedTrackCount="2" premiereTrackType="Stereo">
														<enabled>TRUE</enabled>
														<locked>FALSE</locked>
														<outputchannelindex>1</outputchannelindex>
													</track>
													<track TL.SQTrackAudioKeyframeStyle="0" TL.SQTrackShy="0" TL.SQTrackExpandedHeight="25" TL.SQTrackExpanded="0" MZ.TrackTargeted="0" PannerCurrentValue="0.5" PannerIsInverted="true" PannerStartKeyframe="-91445760000000000,0.5,0,0,0,0,0,0" PannerName="Balance" currentExplodedTrackIndex="1" totalExplodedTrackCount="2" premiereTrackType="Stereo">
														<enabled>TRUE</enabled>
														<locked>FALSE</locked>
														<outputchannelindex>2</outputchannelindex>
													</track>
												</audio>
											</media>
											<timecode>
												<rate>
													<timebase>30</timebase>
													<ntsc>TRUE</ntsc>
												</rate>
												<string>00:00:00:00</string>
												<frame>0</frame>
												<displayformat>NDF</displayformat>
											</timecode>
											<logginginfo>
												<description></description>
												<scene></scene>
												<shottake></shottake>
												<lognote></lognote>
												<good></good>
												<originalvideofilename></originalvideofilename>
												<originalaudiofilename></originalaudiofilename>
											</logginginfo>
										</sequence>
										<filter>
											<effect>
												<name>Basic Motion</name>
												<effectid>basic</effectid>
												<effectcategory>motion</effectcategory>
												<effecttype>motion</effecttype>
												<mediatype>video</mediatype>
												<pproBypass>false</pproBypass>
												<parameter authoringApp="PremierePro">
													<parameterid>scale</parameterid>
													<name>Scale</name>
													<valuemin>0</valuemin>
													<valuemax>1000</valuemax>
													<value>66.6667</value>
												</parameter>
												<parameter authoringApp="PremierePro">
													<parameterid>rotation</parameterid>
													<name>Rotation</name>
													<valuemin>-8640</valuemin>
													<valuemax>8640</valuemax>
													<value>0</value>
												</parameter>
												<parameter authoringApp="PremierePro">
													<parameterid>center</parameterid>
													<name>Center</name>
													<value>
														<horiz>-0.5</horiz>
														<vert>-0.5</vert>
													</value>
												</parameter>
												<parameter authoringApp="PremierePro">
													<parameterid>centerOffset</parameterid>
													<name>Anchor Point</name>
													<value>
														<horiz>0</horiz>
														<vert>0</vert>
													</value>
												</parameter>
												<parameter authoringApp="PremierePro">
													<parameterid>antiflicker</parameterid>
													<name>Anti-flicker Filter</name>
													<valuemin>0.0</valuemin>
													<valuemax>1.0</valuemax>
													<value>0</value>
												</parameter>
											</effect>
										</filter>
										<link>
											<linkclipref>clipitem-980</linkclipref>
											<mediatype>video</mediatype>
											<trackindex>1</trackindex>
											<clipindex>4</clipindex>
										</link>
										<link>
											<linkclipref>clipitem-1123</linkclipref>
											<mediatype>audio</mediatype>
											<trackindex>1</trackindex>
											<clipindex>4</clipindex>
											<groupindex>1</groupindex>
										</link>
										<link>
											<linkclipref>clipitem-1137</linkclipref>
											<mediatype>audio</mediatype>
											<trackindex>2</trackindex>
											<clipindex>4</clipindex>
											<groupindex>1</groupindex>
										</link>
										<labels>
											<label2>Forest</label2>
										</labels>
									</clipitem>
									<clipitem id="clipitem-993">
										<masterclipid>masterclip-204</masterclipid>
										<name>05</name>
										<enabled>TRUE</enabled>
										<duration>96212</duration>
										<rate>
											<timebase>30</timebase>
											<ntsc>TRUE</ntsc>
										</rate>
										<start>29977</start>
										<end>35299</end>
										<in>0</in>
										<out>5322</out>
										<pproTicksIn>0</pproTicksIn>
										<pproTicksOut>45107500838400</pproTicksOut>
										<sequence id="sequence-75" TL.SQAudioVisibleBase="0" TL.SQVideoVisibleBase="0" TL.SQVisibleBaseTime="0" TL.SQAVDividerPosition="0.5" TL.SQHideShyTracks="0" TL.SQHeaderWidth="236" TL.SQDataTrackViewControlState="0" Monitor.ProgramZoomOut="46531412928000" Monitor.ProgramZoomIn="0" TL.SQTimePerPixel="0.13818516812528672" AM.TrackVScrollPosition="0" AM.TrackScrollPosition="0" MZ.EditLine="14357780236800" MZ.Sequence.PreviewFrameSizeHeight="1080" MZ.Sequence.PreviewFrameSizeWidth="1920" MZ.Sequence.AudioTimeDisplayFormat="200" MZ.Sequence.PreviewRenderingClassID="1297106761" MZ.Sequence.PreviewRenderingPresetCodec="1297107278" MZ.Sequence.PreviewRenderingPresetPath="EncoderPresets/SequencePreview/795454d9-d3c2-429d-9474-923ab13b7018/I-Frame Only MPEG.epr" MZ.Sequence.PreviewUseMaxRenderQuality="false" MZ.Sequence.PreviewUseMaxBitDepth="false" MZ.Sequence.EditingModeGUID="795454d9-d3c2-429d-9474-923ab13b7018" MZ.Sequence.VideoTimeDisplayFormat="103" MZ.WorkOutPoint="15705411321600" MZ.WorkInPoint="0">
											<duration>5490</duration>
											<rate>
												<timebase>30</timebase>
												<ntsc>TRUE</ntsc>
											</rate>
											<name>ATM_ODDLY SATISFYING_1546</name>
											<media>
												<video>
													<format>
														<samplecharacteristics>
															<rate>
																<timebase>30</timebase>
																<ntsc>TRUE</ntsc>
															</rate>
															<codec>
																<name>Apple ProRes 422</name>
																<appspecificdata>
																	<appname>Final Cut Pro</appname>
																	<appmanufacturer>Apple Inc.</appmanufacturer>
																	<appversion>7.0</appversion>
																	<data>
																		<qtcodec>
																			<codecname>Apple ProRes 422</codecname>
																			<codectypename>Apple ProRes 422</codectypename>
																			<codectypecode>apcn</codectypecode>
																			<codecvendorcode>appl</codecvendorcode>
																			<spatialquality>1024</spatialquality>
																			<temporalquality>0</temporalquality>
																			<keyframerate>0</keyframerate>
																			<datarate>0</datarate>
																		</qtcodec>
																	</data>
																</appspecificdata>
															</codec>
															<width>1920</width>
															<height>1080</height>
															<anamorphic>FALSE</anamorphic>
															<pixelaspectratio>square</pixelaspectratio>
															<fielddominance>none</fielddominance>
															<colordepth>24</colordepth>
														</samplecharacteristics>
													</format>
													<track TL.SQTrackShy="0" TL.SQTrackExpandedHeight="25" TL.SQTrackExpanded="0" MZ.TrackTargeted="1">
														<clipitem id="clipitem-994">
															<masterclipid>masterclip-205</masterclipid>
															<name>4trackingnest04</name>
															<enabled>TRUE</enabled>
															<duration>2870</duration>
															<rate>
																<timebase>30</timebase>
																<ntsc>TRUE</ntsc>
															</rate>
															<start>0</start>
															<end>2870</end>
															<in>0</in>
															<out>2870</out>
															<pproTicksIn>0</pproTicksIn>
															<pproTicksOut>24325164864000</pproTicksOut>
															<sequence id="sequence-24"/>
															<labels>
																<label2>Forest</label2>
															</labels>
														</clipitem>
														<clipitem id="clipitem-995">
															<masterclipid>masterclip-206</masterclipid>
															<name>1254nest</name>
															<enabled>TRUE</enabled>
															<duration>2452</duration>
															<rate>
																<timebase>30</timebase>
																<ntsc>TRUE</ntsc>
															</rate>
															<start>3038</start>
															<end>-1</end>
															<in>0</in>
															<out>2452</out>
															<pproTicksIn>0</pproTicksIn>
															<pproTicksOut>20782335974400</pproTicksOut>
															<sequence id="sequence-25"/>
															<link>
																<linkclipref>clipitem-995</linkclipref>
																<mediatype>video</mediatype>
																<trackindex>1</trackindex>
																<clipindex>2</clipindex>
															</link>
															<link>
																<linkclipref>clipitem-999</linkclipref>
																<mediatype>audio</mediatype>
																<trackindex>1</trackindex>
																<clipindex>4</clipindex>
																<groupindex>1</groupindex>
															</link>
															<link>
																<linkclipref>clipitem-1001</linkclipref>
																<mediatype>audio</mediatype>
																<trackindex>2</trackindex>
																<clipindex>4</clipindex>
																<groupindex>1</groupindex>
															</link>
															<labels>
																<label2>Forest</label2>
															</labels>
														</clipitem>
														<transitionitem>
															<start>5460</start>
															<end>5490</end>
															<alignment>end-black</alignment>
															<cutPointTicks>254270016000</cutPointTicks>
															<rate>
																<timebase>30</timebase>
																<ntsc>TRUE</ntsc>
															</rate>
															<effect>
																<name>Cross Dissolve</name>
																<effectid>Cross Dissolve</effectid>
																<effectcategory>Dissolve</effectcategory>
																<effecttype>transition</effecttype>
																<mediatype>video</mediatype>
																<wipecode>0</wipecode>
																<wipeaccuracy>100</wipeaccuracy>
																<startratio>0</startratio>
																<endratio>1</endratio>
																<reverse>FALSE</reverse>
															</effect>
														</transitionitem>
														<enabled>TRUE</enabled>
														<locked>FALSE</locked>
													</track>
													<track TL.SQTrackShy="0" TL.SQTrackExpandedHeight="25" TL.SQTrackExpanded="0" MZ.TrackTargeted="0">
														<clipitem id="clipitem-996">
															<masterclipid>masterclip-106</masterclipid>
															<name>Bug and Lower Nest</name>
															<enabled>TRUE</enabled>
															<duration>14721</duration>
															<rate>
																<timebase>30</timebase>
																<ntsc>TRUE</ntsc>
															</rate>
															<start>0</start>
															<end>2870</end>
															<in>0</in>
															<out>2870</out>
															<pproTicksIn>0</pproTicksIn>
															<pproTicksOut>24325164864000</pproTicksOut>
															<sequence id="sequence-1"/>
															<labels>
																<label2>Cerulean</label2>
															</labels>
														</clipitem>
														<enabled>TRUE</enabled>
														<locked>FALSE</locked>
													</track>
													<track TL.SQTrackShy="0" TL.SQTrackExpandedHeight="25" TL.SQTrackExpanded="0" MZ.TrackTargeted="0">
														<clipitem id="clipitem-997">
															<masterclipid>masterclip-207</masterclipid>
															<name>OS Trans 04</name>
															<enabled>TRUE</enabled>
															<duration>2613</duration>
															<rate>
																<timebase>30</timebase>
																<ntsc>TRUE</ntsc>
															</rate>
															<start>2863</start>
															<end>3071</end>
															<in>0</in>
															<out>208</out>
															<pproTicksIn>0</pproTicksIn>
															<pproTicksOut>1762938777600</pproTicksOut>
															<sequence id="sequence-6"/>
																<marker>
																	<comment></comment>
																	<name></name>
																	<in>7</in>
																	<out>-1</out>
																</marker>
																<marker>
																	<comment></comment>
																	<name></name>
																	<in>175</in>
																	<out>-1</out>
																</marker>
															<link>
																<linkclipref>clipitem-997</linkclipref>
																<mediatype>video</mediatype>
																<trackindex>3</trackindex>
																<clipindex>1</clipindex>
															</link>
															<link>
																<linkclipref>clipitem-1002</linkclipref>
																<mediatype>audio</mediatype>
																<trackindex>3</trackindex>
																<clipindex>1</clipindex>
																<groupindex>1</groupindex>
															</link>
															<link>
																<linkclipref>clipitem-1003</linkclipref>
																<mediatype>audio</mediatype>
																<trackindex>4</trackindex>
																<clipindex>1</clipindex>
																<groupindex>1</groupindex>
															</link>
															<labels>
																<label2>Blue</label2>
															</labels>
														</clipitem>
														<enabled>TRUE</enabled>
														<locked>FALSE</locked>
													</track>
													<track TL.SQTrackShy="0" TL.SQTrackExpandedHeight="25" TL.SQTrackExpanded="0" MZ.TrackTargeted="0">
														<enabled>TRUE</enabled>
														<locked>FALSE</locked>
													</track>
												</video>
												<audio>
													<numOutputChannels>2</numOutputChannels>
													<format>
														<samplecharacteristics>
															<depth>16</depth>
															<samplerate>44100</samplerate>
														</samplecharacteristics>
													</format>
													<outputs>
														<group>
															<index>1</index>
															<numchannels>1</numchannels>
															<downmix>0</downmix>
															<channel>
																<index>1</index>
															</channel>
														</group>
														<group>
															<index>2</index>
															<numchannels>1</numchannels>
															<downmix>0</downmix>
															<channel>
																<index>2</index>
															</channel>
														</group>
													</outputs>
													<track TL.SQTrackAudioKeyframeStyle="0" TL.SQTrackShy="0" TL.SQTrackExpandedHeight="25" TL.SQTrackExpanded="0" MZ.TrackTargeted="1" PannerCurrentValue="0.5" PannerIsInverted="true" PannerStartKeyframe="-91445760000000000,0.5,0,0,0,0,0,0" PannerName="Balance" currentExplodedTrackIndex="0" totalExplodedTrackCount="2" premiereTrackType="Stereo">
														<transitionitem>
															<start>0</start>
															<end>30</end>
															<pproTicksIn>0</pproTicksIn>
															<pproTicksOut>254270016000</pproTicksOut>
															<alignment>start-black</alignment>
															<cutPointTicks>0</cutPointTicks>
															<rate>
																<timebase>30</timebase>
																<ntsc>TRUE</ntsc>
															</rate>
															<effect>
																<name>Cross Fade (+3dB)</name>
																<effectid>KGAudioTransCrossFade3dB</effectid>
																<effecttype>transition</effecttype>
																<mediatype>audio</mediatype>
																<wipecode>0</wipecode>
																<wipeaccuracy>100</wipeaccuracy>
																<startratio>0</startratio>
																<endratio>1</endratio>
																<reverse>FALSE</reverse>
															</effect>
														</transitionitem>
														<clipitem id="clipitem-998" premiereChannelType="stereo">
															<masterclipid>masterclip-13</masterclipid>
															<name>ES_Akira - AGST.mp3</name>
															<enabled>TRUE</enabled>
															<duration>5590</duration>
															<rate>
																<timebase>30</timebase>
																<ntsc>TRUE</ntsc>
															</rate>
															<start>-1</start>
															<end>-1</end>
															<in>645</in>
															<out>3515</out>
															<pproTicksIn>5466805344000</pproTicksIn>
															<pproTicksOut>29791970208000</pproTicksOut>
															<file id="file-13"/>
															<sourcetrack>
																<mediatype>audio</mediatype>
																<trackindex>1</trackindex>
															</sourcetrack>
															<link>
																<linkclipref>clipitem-998</linkclipref>
																<mediatype>audio</mediatype>
																<trackindex>1</trackindex>
																<clipindex>2</clipindex>
																<groupindex>1</groupindex>
															</link>
															<link>
																<linkclipref>clipitem-1000</linkclipref>
																<mediatype>audio</mediatype>
																<trackindex>2</trackindex>
																<clipindex>2</clipindex>
																<groupindex>1</groupindex>
															</link>
															<logginginfo>
																<description></description>
																<scene></scene>
																<shottake></shottake>
																<lognote></lognote>
																<good></good>
																<originalvideofilename></originalvideofilename>
																<originalaudiofilename></originalaudiofilename>
															</logginginfo>
															<colorinfo>
																<lut></lut>
																<lut1></lut1>
																<asc_sop></asc_sop>
																<asc_sat></asc_sat>
																<lut2></lut2>
															</colorinfo>
															<labels>
																<label2>Caribbean</label2>
															</labels>
														</clipitem>
														<transitionitem>
															<start>2780</start>
															<end>2870</end>
															<pproTicksIn>23562354816000</pproTicksIn>
															<pproTicksOut>24325164864000</pproTicksOut>
															<alignment>end-black</alignment>
															<cutPointTicks>762810048000</cutPointTicks>
															<rate>
																<timebase>30</timebase>
																<ntsc>TRUE</ntsc>
															</rate>
															<effect>
																<name>Cross Fade (+3dB)</name>
																<effectid>KGAudioTransCrossFade3dB</effectid>
																<effecttype>transition</effecttype>
																<mediatype>audio</mediatype>
																<wipecode>0</wipecode>
																<wipeaccuracy>100</wipeaccuracy>
																<startratio>0</startratio>
																<endratio>1</endratio>
																<reverse>FALSE</reverse>
															</effect>
														</transitionitem>
														<clipitem id="clipitem-999" premiereChannelType="stereo">
															<masterclipid>masterclip-206</masterclipid>
															<name>1254nest</name>
															<enabled>TRUE</enabled>
															<duration>2452</duration>
															<rate>
																<timebase>30</timebase>
																<ntsc>TRUE</ntsc>
															</rate>
															<start>3038</start>
															<end>5490</end>
															<in>0</in>
															<out>2452</out>
															<pproTicksIn>0</pproTicksIn>
															<pproTicksOut>20782335974400</pproTicksOut>
															<sequence id="sequence-25"/>
															<sourcetrack>
																<mediatype>audio</mediatype>
																<trackindex>0</trackindex>
															</sourcetrack>
															<link>
																<linkclipref>clipitem-995</linkclipref>
																<mediatype>video</mediatype>
																<trackindex>1</trackindex>
																<clipindex>2</clipindex>
															</link>
															<link>
																<linkclipref>clipitem-999</linkclipref>
																<mediatype>audio</mediatype>
																<trackindex>1</trackindex>
																<clipindex>4</clipindex>
																<groupindex>1</groupindex>
															</link>
															<link>
																<linkclipref>clipitem-1001</linkclipref>
																<mediatype>audio</mediatype>
																<trackindex>2</trackindex>
																<clipindex>4</clipindex>
																<groupindex>1</groupindex>
															</link>
															<labels>
																<label2>Forest</label2>
															</labels>
														</clipitem>
														<enabled>TRUE</enabled>
														<locked>FALSE</locked>
														<filter>
															<effect>
																<name>Audio Levels</name>
																<effectid>audiolevels</effectid>
																<effectcategory>audiolevels</effectcategory>
																<effecttype>audiolevels</effecttype>
																<mediatype>audio</mediatype>
																<parameter authoringApp="PremierePro">
																	<parameterid>level</parameterid>
																	<name>Level</name>
																	<valuemin>0</valuemin>
																	<valuemax>3.98109</valuemax>
																	<value>0.706272</value>
																</parameter>
															</effect>
														</filter>
														<outputchannelindex>1</outputchannelindex>
													</track>
													<track TL.SQTrackAudioKeyframeStyle="0" TL.SQTrackShy="0" TL.SQTrackExpandedHeight="25" TL.SQTrackExpanded="0" MZ.TrackTargeted="1" PannerCurrentValue="0.5" PannerIsInverted="true" PannerStartKeyframe="-91445760000000000,0.5,0,0,0,0,0,0" PannerName="Balance" currentExplodedTrackIndex="1" totalExplodedTrackCount="2" premiereTrackType="Stereo">
														<transitionitem>
															<start>0</start>
															<end>30</end>
															<pproTicksIn>0</pproTicksIn>
															<pproTicksOut>254270016000</pproTicksOut>
															<alignment>start-black</alignment>
															<cutPointTicks>0</cutPointTicks>
															<rate>
																<timebase>30</timebase>
																<ntsc>TRUE</ntsc>
															</rate>
															<effect>
																<name>Cross Fade (+3dB)</name>
																<effectid>KGAudioTransCrossFade3dB</effectid>
																<effecttype>transition</effecttype>
																<mediatype>audio</mediatype>
																<wipecode>0</wipecode>
																<wipeaccuracy>100</wipeaccuracy>
																<startratio>0</startratio>
																<endratio>1</endratio>
																<reverse>FALSE</reverse>
															</effect>
														</transitionitem>
														<clipitem id="clipitem-1000" premiereChannelType="stereo">
															<masterclipid>masterclip-13</masterclipid>
															<name>ES_Akira - AGST.mp3</name>
															<enabled>TRUE</enabled>
															<duration>5590</duration>
															<rate>
																<timebase>30</timebase>
																<ntsc>TRUE</ntsc>
															</rate>
															<start>-1</start>
															<end>-1</end>
															<in>645</in>
															<out>3515</out>
															<pproTicksIn>5466805344000</pproTicksIn>
															<pproTicksOut>29791970208000</pproTicksOut>
															<file id="file-13"/>
															<sourcetrack>
																<mediatype>audio</mediatype>
																<trackindex>2</trackindex>
															</sourcetrack>
															<link>
																<linkclipref>clipitem-998</linkclipref>
																<mediatype>audio</mediatype>
																<trackindex>1</trackindex>
																<clipindex>2</clipindex>
																<groupindex>1</groupindex>
															</link>
															<link>
																<linkclipref>clipitem-1000</linkclipref>
																<mediatype>audio</mediatype>
																<trackindex>2</trackindex>
																<clipindex>2</clipindex>
																<groupindex>1</groupindex>
															</link>
															<logginginfo>
																<description></description>
																<scene></scene>
																<shottake></shottake>
																<lognote></lognote>
																<good></good>
																<originalvideofilename></originalvideofilename>
																<originalaudiofilename></originalaudiofilename>
															</logginginfo>
															<colorinfo>
																<lut></lut>
																<lut1></lut1>
																<asc_sop></asc_sop>
																<asc_sat></asc_sat>
																<lut2></lut2>
															</colorinfo>
															<labels>
																<label2>Caribbean</label2>
															</labels>
														</clipitem>
														<transitionitem>
															<start>2780</start>
															<end>2870</end>
															<pproTicksIn>23562354816000</pproTicksIn>
															<pproTicksOut>24325164864000</pproTicksOut>
															<alignment>end-black</alignment>
															<cutPointTicks>762810048000</cutPointTicks>
															<rate>
																<timebase>30</timebase>
																<ntsc>TRUE</ntsc>
															</rate>
															<effect>
																<name>Cross Fade (+3dB)</name>
																<effectid>KGAudioTransCrossFade3dB</effectid>
																<effecttype>transition</effecttype>
																<mediatype>audio</mediatype>
																<wipecode>0</wipecode>
																<wipeaccuracy>100</wipeaccuracy>
																<startratio>0</startratio>
																<endratio>1</endratio>
																<reverse>FALSE</reverse>
															</effect>
														</transitionitem>
														<clipitem id="clipitem-1001" premiereChannelType="stereo">
															<masterclipid>masterclip-206</masterclipid>
															<name>1254nest</name>
															<enabled>TRUE</enabled>
															<duration>2452</duration>
															<rate>
																<timebase>30</timebase>
																<ntsc>TRUE</ntsc>
															</rate>
															<start>3038</start>
															<end>5490</end>
															<in>0</in>
															<out>2452</out>
															<pproTicksIn>0</pproTicksIn>
															<pproTicksOut>20782335974400</pproTicksOut>
															<sequence id="sequence-25"/>
															<sourcetrack>
																<mediatype>audio</mediatype>
																<trackindex>1</trackindex>
															</sourcetrack>
															<link>
																<linkclipref>clipitem-995</linkclipref>
																<mediatype>video</mediatype>
																<trackindex>1</trackindex>
																<clipindex>2</clipindex>
															</link>
															<link>
																<linkclipref>clipitem-999</linkclipref>
																<mediatype>audio</mediatype>
																<trackindex>1</trackindex>
																<clipindex>4</clipindex>
																<groupindex>1</groupindex>
															</link>
															<link>
																<linkclipref>clipitem-1001</linkclipref>
																<mediatype>audio</mediatype>
																<trackindex>2</trackindex>
																<clipindex>4</clipindex>
																<groupindex>1</groupindex>
															</link>
															<labels>
																<label2>Forest</label2>
															</labels>
														</clipitem>
														<enabled>TRUE</enabled>
														<locked>FALSE</locked>
														<filter>
															<effect>
																<name>Audio Levels</name>
																<effectid>audiolevels</effectid>
																<effectcategory>audiolevels</effectcategory>
																<effecttype>audiolevels</effecttype>
																<mediatype>audio</mediatype>
																<parameter authoringApp="PremierePro">
																	<parameterid>level</parameterid>
																	<name>Level</name>
																	<valuemin>0</valuemin>
																	<valuemax>3.98109</valuemax>
																	<value>0.706272</value>
																</parameter>
															</effect>
														</filter>
														<outputchannelindex>2</outputchannelindex>
													</track>
													<track TL.SQTrackAudioKeyframeStyle="0" TL.SQTrackShy="0" TL.SQTrackExpandedHeight="25" TL.SQTrackExpanded="0" MZ.TrackTargeted="0" PannerCurrentValue="0.5" PannerIsInverted="true" PannerStartKeyframe="-91445760000000000,0.5,0,0,0,0,0,0" PannerName="Balance" currentExplodedTrackIndex="0" totalExplodedTrackCount="2" premiereTrackType="Stereo">
														<clipitem id="clipitem-1002" premiereChannelType="stereo">
															<masterclipid>masterclip-207</masterclipid>
															<name>OS Trans 04</name>
															<enabled>TRUE</enabled>
															<duration>2613</duration>
															<rate>
																<timebase>30</timebase>
																<ntsc>TRUE</ntsc>
															</rate>
															<start>2863</start>
															<end>3071</end>
															<in>0</in>
															<out>208</out>
															<pproTicksIn>0</pproTicksIn>
															<pproTicksOut>1762938777600</pproTicksOut>
															<sequence id="sequence-6"/>
															<sourcetrack>
																<mediatype>audio</mediatype>
																<trackindex>0</trackindex>
															</sourcetrack>
																<marker>
																	<comment></comment>
																	<name></name>
																	<in>7</in>
																	<out>-1</out>
																</marker>
																<marker>
																	<comment></comment>
																	<name></name>
																	<in>175</in>
																	<out>-1</out>
																</marker>
															<link>
																<linkclipref>clipitem-997</linkclipref>
																<mediatype>video</mediatype>
																<trackindex>3</trackindex>
																<clipindex>1</clipindex>
															</link>
															<link>
																<linkclipref>clipitem-1002</linkclipref>
																<mediatype>audio</mediatype>
																<trackindex>3</trackindex>
																<clipindex>1</clipindex>
																<groupindex>1</groupindex>
															</link>
															<link>
																<linkclipref>clipitem-1003</linkclipref>
																<mediatype>audio</mediatype>
																<trackindex>4</trackindex>
																<clipindex>1</clipindex>
																<groupindex>1</groupindex>
															</link>
															<labels>
																<label2>Blue</label2>
															</labels>
														</clipitem>
														<enabled>TRUE</enabled>
														<locked>FALSE</locked>
														<filter>
															<effect>
																<name>Audio Levels</name>
																<effectid>audiolevels</effectid>
																<effectcategory>audiolevels</effectcategory>
																<effecttype>audiolevels</effecttype>
																<mediatype>audio</mediatype>
																<parameter authoringApp="PremierePro">
																	<parameterid>level</parameterid>
																	<name>Level</name>
																	<valuemin>0</valuemin>
																	<valuemax>3.98109</valuemax>
																	<value>0.706272</value>
																</parameter>
															</effect>
														</filter>
														<outputchannelindex>1</outputchannelindex>
													</track>
													<track TL.SQTrackAudioKeyframeStyle="0" TL.SQTrackShy="0" TL.SQTrackExpandedHeight="25" TL.SQTrackExpanded="0" MZ.TrackTargeted="0" PannerCurrentValue="0.5" PannerIsInverted="true" PannerStartKeyframe="-91445760000000000,0.5,0,0,0,0,0,0" PannerName="Balance" currentExplodedTrackIndex="1" totalExplodedTrackCount="2" premiereTrackType="Stereo">
														<clipitem id="clipitem-1003" premiereChannelType="stereo">
															<masterclipid>masterclip-207</masterclipid>
															<name>OS Trans 04</name>
															<enabled>TRUE</enabled>
															<duration>2613</duration>
															<rate>
																<timebase>30</timebase>
																<ntsc>TRUE</ntsc>
															</rate>
															<start>2863</start>
															<end>3071</end>
															<in>0</in>
															<out>208</out>
															<pproTicksIn>0</pproTicksIn>
															<pproTicksOut>1762938777600</pproTicksOut>
															<sequence id="sequence-6"/>
															<sourcetrack>
																<mediatype>audio</mediatype>
																<trackindex>1</trackindex>
															</sourcetrack>
																<marker>
																	<comment></comment>
																	<name></name>
																	<in>7</in>
																	<out>-1</out>
																</marker>
																<marker>
																	<comment></comment>
																	<name></name>
																	<in>175</in>
																	<out>-1</out>
																</marker>
															<link>
																<linkclipref>clipitem-997</linkclipref>
																<mediatype>video</mediatype>
																<trackindex>3</trackindex>
																<clipindex>1</clipindex>
															</link>
															<link>
																<linkclipref>clipitem-1002</linkclipref>
																<mediatype>audio</mediatype>
																<trackindex>3</trackindex>
																<clipindex>1</clipindex>
																<groupindex>1</groupindex>
															</link>
															<link>
																<linkclipref>clipitem-1003</linkclipref>
																<mediatype>audio</mediatype>
																<trackindex>4</trackindex>
																<clipindex>1</clipindex>
																<groupindex>1</groupindex>
															</link>
															<labels>
																<label2>Blue</label2>
															</labels>
														</clipitem>
														<enabled>TRUE</enabled>
														<locked>FALSE</locked>
														<filter>
															<effect>
																<name>Audio Levels</name>
																<effectid>audiolevels</effectid>
																<effectcategory>audiolevels</effectcategory>
																<effecttype>audiolevels</effecttype>
																<mediatype>audio</mediatype>
																<parameter authoringApp="PremierePro">
																	<parameterid>level</parameterid>
																	<name>Level</name>
																	<valuemin>0</valuemin>
																	<valuemax>3.98109</valuemax>
																	<value>0.706272</value>
																</parameter>
															</effect>
														</filter>
														<outputchannelindex>2</outputchannelindex>
													</track>
													<track TL.SQTrackAudioKeyframeStyle="0" TL.SQTrackShy="0" TL.SQTrackExpandedHeight="25" TL.SQTrackExpanded="0" MZ.TrackTargeted="0" PannerCurrentValue="0.5" PannerIsInverted="true" PannerStartKeyframe="-91445760000000000,0.5,0,0,0,0,0,0" PannerName="Balance" currentExplodedTrackIndex="0" totalExplodedTrackCount="2" premiereTrackType="Stereo">
														<enabled>TRUE</enabled>
														<locked>FALSE</locked>
														<outputchannelindex>1</outputchannelindex>
													</track>
													<track TL.SQTrackAudioKeyframeStyle="0" TL.SQTrackShy="0" TL.SQTrackExpandedHeight="25" TL.SQTrackExpanded="0" MZ.TrackTargeted="0" PannerCurrentValue="0.5" PannerIsInverted="true" PannerStartKeyframe="-91445760000000000,0.5,0,0,0,0,0,0" PannerName="Balance" currentExplodedTrackIndex="1" totalExplodedTrackCount="2" premiereTrackType="Stereo">
														<enabled>TRUE</enabled>
														<locked>FALSE</locked>
														<outputchannelindex>2</outputchannelindex>
													</track>
												</audio>
											</media>
											<timecode>
												<rate>
													<timebase>30</timebase>
													<ntsc>TRUE</ntsc>
												</rate>
												<string>00:00:00:00</string>
												<frame>0</frame>
												<displayformat>NDF</displayformat>
											</timecode>
											<logginginfo>
												<description></description>
												<scene></scene>
												<shottake></shottake>
												<lognote></lognote>
												<good></good>
												<originalvideofilename></originalvideofilename>
												<originalaudiofilename></originalaudiofilename>
											</logginginfo>
										</sequence>
										<filter>
											<effect>
												<name>Basic Motion</name>
												<effectid>basic</effectid>
												<effectcategory>motion</effectcategory>
												<effecttype>motion</effecttype>
												<mediatype>video</mediatype>
												<pproBypass>false</pproBypass>
												<parameter authoringApp="PremierePro">
													<parameterid>scale</parameterid>
													<name>Scale</name>
													<valuemin>0</valuemin>
													<valuemax>1000</valuemax>
													<value>66.6667</value>
												</parameter>
												<parameter authoringApp="PremierePro">
													<parameterid>rotation</parameterid>
													<name>Rotation</name>
													<valuemin>-8640</valuemin>
													<valuemax>8640</valuemax>
													<value>0</value>
												</parameter>
												<parameter authoringApp="PremierePro">
													<parameterid>center</parameterid>
													<name>Center</name>
													<value>
														<horiz>-0.5</horiz>
														<vert>-0.5</vert>
													</value>
												</parameter>
												<parameter authoringApp="PremierePro">
													<parameterid>centerOffset</parameterid>
													<name>Anchor Point</name>
													<value>
														<horiz>0</horiz>
														<vert>0</vert>
													</value>
												</parameter>
												<parameter authoringApp="PremierePro">
													<parameterid>antiflicker</parameterid>
													<name>Anti-flicker Filter</name>
													<valuemin>0.0</valuemin>
													<valuemax>1.0</valuemax>
													<value>0</value>
												</parameter>
											</effect>
										</filter>
										<link>
											<linkclipref>clipitem-993</linkclipref>
											<mediatype>video</mediatype>
											<trackindex>1</trackindex>
											<clipindex>5</clipindex>
										</link>
										<link>
											<linkclipref>clipitem-1124</linkclipref>
											<mediatype>audio</mediatype>
											<trackindex>1</trackindex>
											<clipindex>5</clipindex>
											<groupindex>1</groupindex>
										</link>
										<link>
											<linkclipref>clipitem-1138</linkclipref>
											<mediatype>audio</mediatype>
											<trackindex>2</trackindex>
											<clipindex>5</clipindex>
											<groupindex>1</groupindex>
										</link>
										<labels>
											<label2>Forest</label2>
										</labels>
									</clipitem>
									<clipitem id="clipitem-1004">
										<masterclipid>masterclip-208</masterclipid>
										<name>09</name>
										<enabled>TRUE</enabled>
										<duration>96212</duration>
										<rate>
											<timebase>30</timebase>
											<ntsc>TRUE</ntsc>
										</rate>
										<start>37316</start>
										<end>42940</end>
										<in>0</in>
										<out>5624</out>
										<pproTicksIn>0</pproTicksIn>
										<pproTicksOut>47667152332800</pproTicksOut>
										<sequence id="sequence-76" TL.SQAudioVisibleBase="0" TL.SQVideoVisibleBase="0" TL.SQVisibleBaseTime="0" TL.SQAVDividerPosition="0.5" TL.SQHideShyTracks="0" TL.SQHeaderWidth="236" TL.SQDataTrackViewControlState="0" Monitor.ProgramZoomOut="46158483571200" Monitor.ProgramZoomIn="0" TL.SQTimePerPixel="0.13818516812528672" AM.TrackVScrollPosition="0" AM.TrackScrollPosition="0" MZ.EditLine="17866706457600" MZ.Sequence.PreviewFrameSizeHeight="1080" MZ.Sequence.PreviewFrameSizeWidth="1920" MZ.Sequence.AudioTimeDisplayFormat="200" MZ.Sequence.PreviewRenderingClassID="1297106761" MZ.Sequence.PreviewRenderingPresetCodec="1297107278" MZ.Sequence.PreviewRenderingPresetPath="EncoderPresets/SequencePreview/795454d9-d3c2-429d-9474-923ab13b7018/I-Frame Only MPEG.epr" MZ.Sequence.PreviewUseMaxRenderQuality="false" MZ.Sequence.PreviewUseMaxBitDepth="false" MZ.Sequence.EditingModeGUID="795454d9-d3c2-429d-9474-923ab13b7018" MZ.Sequence.VideoTimeDisplayFormat="103" MZ.WorkOutPoint="15705411321600" MZ.WorkInPoint="0">
											<duration>5446</duration>
											<rate>
												<timebase>30</timebase>
												<ntsc>TRUE</ntsc>
											</rate>
											<name>ATM_ODDLY SATISFYING_1547</name>
											<media>
												<video>
													<format>
														<samplecharacteristics>
															<rate>
																<timebase>30</timebase>
																<ntsc>TRUE</ntsc>
															</rate>
															<codec>
																<name>Apple ProRes 422</name>
																<appspecificdata>
																	<appname>Final Cut Pro</appname>
																	<appmanufacturer>Apple Inc.</appmanufacturer>
																	<appversion>7.0</appversion>
																	<data>
																		<qtcodec>
																			<codecname>Apple ProRes 422</codecname>
																			<codectypename>Apple ProRes 422</codectypename>
																			<codectypecode>apcn</codectypecode>
																			<codecvendorcode>appl</codecvendorcode>
																			<spatialquality>1024</spatialquality>
																			<temporalquality>0</temporalquality>
																			<keyframerate>0</keyframerate>
																			<datarate>0</datarate>
																		</qtcodec>
																	</data>
																</appspecificdata>
															</codec>
															<width>1920</width>
															<height>1080</height>
															<anamorphic>FALSE</anamorphic>
															<pixelaspectratio>square</pixelaspectratio>
															<fielddominance>none</fielddominance>
															<colordepth>24</colordepth>
														</samplecharacteristics>
													</format>
													<track TL.SQTrackShy="0" TL.SQTrackExpandedHeight="25" TL.SQTrackExpanded="0" MZ.TrackTargeted="1">
														<clipitem id="clipitem-1005">
															<masterclipid>masterclip-209</masterclipid>
															<name>4trackingnest05</name>
															<enabled>TRUE</enabled>
															<duration>2544</duration>
															<rate>
																<timebase>30</timebase>
																<ntsc>TRUE</ntsc>
															</rate>
															<start>0</start>
															<end>2544</end>
															<in>0</in>
															<out>2544</out>
															<pproTicksIn>0</pproTicksIn>
															<pproTicksOut>21562097356800</pproTicksOut>
															<sequence id="sequence-34"/>
															<labels>
																<label2>Forest</label2>
															</labels>
														</clipitem>
														<clipitem id="clipitem-1006">
															<masterclipid>masterclip-210</masterclipid>
															<name>4trackingnest06</name>
															<enabled>TRUE</enabled>
															<duration>2577</duration>
															<rate>
																<timebase>30</timebase>
																<ntsc>TRUE</ntsc>
															</rate>
															<start>2570</start>
															<end>5147</end>
															<in>0</in>
															<out>2577</out>
															<pproTicksIn>0</pproTicksIn>
															<pproTicksOut>21841794374400</pproTicksOut>
															<sequence id="sequence-35"/>
															<labels>
																<label2>Forest</label2>
															</labels>
														</clipitem>
														<clipitem id="clipitem-1007">
															<masterclipid>masterclip-33</masterclipid>
															<name>01.5_ATM_Content Submit QR_Music 2.mp4</name>
															<enabled>TRUE</enabled>
															<duration>299</duration>
															<rate>
																<timebase>30</timebase>
																<ntsc>TRUE</ntsc>
															</rate>
															<start>5147</start>
															<end>5446</end>
															<in>0</in>
															<out>299</out>
															<pproTicksIn>0</pproTicksIn>
															<pproTicksOut>2534224492800</pproTicksOut>
															<alphatype>none</alphatype>
															<file id="file-33"/>
															<link>
																<linkclipref>clipitem-1007</linkclipref>
																<mediatype>video</mediatype>
																<trackindex>1</trackindex>
																<clipindex>3</clipindex>
															</link>
															<link>
																<linkclipref>clipitem-1013</linkclipref>
																<mediatype>audio</mediatype>
																<trackindex>1</trackindex>
																<clipindex>7</clipindex>
																<groupindex>1</groupindex>
															</link>
															<link>
																<linkclipref>clipitem-1016</linkclipref>
																<mediatype>audio</mediatype>
																<trackindex>2</trackindex>
																<clipindex>7</clipindex>
																<groupindex>1</groupindex>
															</link>
															<logginginfo>
																<description></description>
																<scene></scene>
																<shottake></shottake>
																<lognote></lognote>
																<good></good>
																<originalvideofilename></originalvideofilename>
																<originalaudiofilename></originalaudiofilename>
															</logginginfo>
															<colorinfo>
																<lut></lut>
																<lut1></lut1>
																<asc_sop></asc_sop>
																<asc_sat></asc_sat>
																<lut2></lut2>
															</colorinfo>
															<labels>
																<label2>Iris</label2>
															</labels>
														</clipitem>
														<enabled>TRUE</enabled>
														<locked>FALSE</locked>
													</track>
													<track TL.SQTrackShy="0" TL.SQTrackExpandedHeight="25" TL.SQTrackExpanded="0" MZ.TrackTargeted="0">
														<clipitem id="clipitem-1008">
															<masterclipid>masterclip-106</masterclipid>
															<name>Bug and Lower Nest</name>
															<enabled>TRUE</enabled>
															<duration>14721</duration>
															<rate>
																<timebase>30</timebase>
																<ntsc>TRUE</ntsc>
															</rate>
															<start>0</start>
															<end>2544</end>
															<in>0</in>
															<out>2544</out>
															<pproTicksIn>0</pproTicksIn>
															<pproTicksOut>21562097356800</pproTicksOut>
															<sequence id="sequence-1"/>
															<labels>
																<label2>Cerulean</label2>
															</labels>
														</clipitem>
														<clipitem id="clipitem-1009">
															<masterclipid>masterclip-106</masterclipid>
															<name>Bug and Lower Nest</name>
															<enabled>TRUE</enabled>
															<duration>14721</duration>
															<rate>
																<timebase>30</timebase>
																<ntsc>TRUE</ntsc>
															</rate>
															<start>2570</start>
															<end>5147</end>
															<in>0</in>
															<out>2577</out>
															<pproTicksIn>0</pproTicksIn>
															<pproTicksOut>21841794374400</pproTicksOut>
															<sequence id="sequence-1"/>
															<labels>
																<label2>Cerulean</label2>
															</labels>
														</clipitem>
														<enabled>TRUE</enabled>
														<locked>FALSE</locked>
													</track>
													<track TL.SQTrackShy="0" TL.SQTrackExpandedHeight="25" TL.SQTrackExpanded="0" MZ.TrackTargeted="0">
														<clipitem id="clipitem-1010">
															<masterclipid>masterclip-211</masterclipid>
															<name>00_Quick Logo</name>
															<enabled>TRUE</enabled>
															<duration>953</duration>
															<rate>
																<timebase>30</timebase>
																<ntsc>TRUE</ntsc>
															</rate>
															<start>2530</start>
															<end>2594</end>
															<in>0</in>
															<out>64</out>
															<pproTicksIn>0</pproTicksIn>
															<pproTicksOut>542442700800</pproTicksOut>
															<sequence id="sequence-9"/>
																<marker>
																	<comment></comment>
																	<name></name>
																	<in>14</in>
																	<out>-1</out>
																</marker>
																<marker>
																	<comment></comment>
																	<name></name>
																	<in>40</in>
																	<out>-1</out>
																</marker>
															<link>
																<linkclipref>clipitem-1010</linkclipref>
																<mediatype>video</mediatype>
																<trackindex>3</trackindex>
																<clipindex>1</clipindex>
															</link>
															<link>
																<linkclipref>clipitem-1017</linkclipref>
																<mediatype>audio</mediatype>
																<trackindex>3</trackindex>
																<clipindex>1</clipindex>
																<groupindex>1</groupindex>
															</link>
															<link>
																<linkclipref>clipitem-1018</linkclipref>
																<mediatype>audio</mediatype>
																<trackindex>4</trackindex>
																<clipindex>1</clipindex>
																<groupindex>1</groupindex>
															</link>
															<labels>
																<label2>Cerulean</label2>
															</labels>
														</clipitem>
														<enabled>TRUE</enabled>
														<locked>FALSE</locked>
													</track>
													<track TL.SQTrackShy="0" TL.SQTrackExpandedHeight="25" TL.SQTrackExpanded="0" MZ.TrackTargeted="0">
														<enabled>TRUE</enabled>
														<locked>FALSE</locked>
													</track>
												</video>
												<audio>
													<numOutputChannels>2</numOutputChannels>
													<format>
														<samplecharacteristics>
															<depth>16</depth>
															<samplerate>44100</samplerate>
														</samplecharacteristics>
													</format>
													<outputs>
														<group>
															<index>1</index>
															<numchannels>1</numchannels>
															<downmix>0</downmix>
															<channel>
																<index>1</index>
															</channel>
														</group>
														<group>
															<index>2</index>
															<numchannels>1</numchannels>
															<downmix>0</downmix>
															<channel>
																<index>2</index>
															</channel>
														</group>
													</outputs>
													<track TL.SQTrackAudioKeyframeStyle="0" TL.SQTrackShy="0" TL.SQTrackExpandedHeight="25" TL.SQTrackExpanded="0" MZ.TrackTargeted="1" PannerCurrentValue="0.5" PannerIsInverted="true" PannerStartKeyframe="-91445760000000000,0.5,0,0,0,0,0,0" PannerName="Balance" currentExplodedTrackIndex="0" totalExplodedTrackCount="2" premiereTrackType="Stereo">
														<transitionitem>
															<start>0</start>
															<end>30</end>
															<pproTicksIn>0</pproTicksIn>
															<pproTicksOut>254270016000</pproTicksOut>
															<alignment>start-black</alignment>
															<cutPointTicks>0</cutPointTicks>
															<rate>
																<timebase>30</timebase>
																<ntsc>TRUE</ntsc>
															</rate>
															<effect>
																<name>Cross Fade (+3dB)</name>
																<effectid>KGAudioTransCrossFade3dB</effectid>
																<effecttype>transition</effecttype>
																<mediatype>audio</mediatype>
																<wipecode>0</wipecode>
																<wipeaccuracy>100</wipeaccuracy>
																<startratio>0</startratio>
																<endratio>1</endratio>
																<reverse>FALSE</reverse>
															</effect>
														</transitionitem>
														<clipitem id="clipitem-1011" premiereChannelType="stereo">
															<masterclipid>masterclip-19</masterclipid>
															<name>ES_23 Til Infinity - Matt Large.mp3</name>
															<enabled>TRUE</enabled>
															<duration>5436</duration>
															<rate>
																<timebase>30</timebase>
																<ntsc>TRUE</ntsc>
															</rate>
															<start>-1</start>
															<end>-1</end>
															<in>353</in>
															<out>2897</out>
															<pproTicksIn>2991910521600</pproTicksIn>
															<pproTicksOut>24554007878400</pproTicksOut>
															<file id="file-19"/>
															<sourcetrack>
																<mediatype>audio</mediatype>
																<trackindex>1</trackindex>
															</sourcetrack>
															<link>
																<linkclipref>clipitem-1011</linkclipref>
																<mediatype>audio</mediatype>
																<trackindex>1</trackindex>
																<clipindex>2</clipindex>
																<groupindex>1</groupindex>
															</link>
															<link>
																<linkclipref>clipitem-1014</linkclipref>
																<mediatype>audio</mediatype>
																<trackindex>2</trackindex>
																<clipindex>2</clipindex>
																<groupindex>1</groupindex>
															</link>
															<logginginfo>
																<description></description>
																<scene></scene>
																<shottake></shottake>
																<lognote></lognote>
																<good></good>
																<originalvideofilename></originalvideofilename>
																<originalaudiofilename></originalaudiofilename>
															</logginginfo>
															<colorinfo>
																<lut></lut>
																<lut1></lut1>
																<asc_sop></asc_sop>
																<asc_sat></asc_sat>
																<lut2></lut2>
															</colorinfo>
															<labels>
																<label2>Caribbean</label2>
															</labels>
														</clipitem>
														<transitionitem>
															<start>2454</start>
															<end>2544</end>
															<pproTicksIn>20799287308800</pproTicksIn>
															<pproTicksOut>21562097356800</pproTicksOut>
															<alignment>end-black</alignment>
															<cutPointTicks>762810048000</cutPointTicks>
															<rate>
																<timebase>30</timebase>
																<ntsc>TRUE</ntsc>
															</rate>
															<effect>
																<name>Cross Fade (+3dB)</name>
																<effectid>KGAudioTransCrossFade3dB</effectid>
																<effecttype>transition</effecttype>
																<mediatype>audio</mediatype>
																<wipecode>0</wipecode>
																<wipeaccuracy>100</wipeaccuracy>
																<startratio>0</startratio>
																<endratio>1</endratio>
																<reverse>FALSE</reverse>
															</effect>
														</transitionitem>
														<transitionitem>
															<start>2570</start>
															<end>2600</end>
															<pproTicksIn>21782464704000</pproTicksIn>
															<pproTicksOut>22036734720000</pproTicksOut>
															<alignment>start-black</alignment>
															<cutPointTicks>0</cutPointTicks>
															<rate>
																<timebase>30</timebase>
																<ntsc>TRUE</ntsc>
															</rate>
															<effect>
																<name>Cross Fade (+3dB)</name>
																<effectid>KGAudioTransCrossFade3dB</effectid>
																<effecttype>transition</effecttype>
																<mediatype>audio</mediatype>
																<wipecode>0</wipecode>
																<wipeaccuracy>100</wipeaccuracy>
																<startratio>0</startratio>
																<endratio>1</endratio>
																<reverse>FALSE</reverse>
															</effect>
														</transitionitem>
														<clipitem id="clipitem-1012" premiereChannelType="stereo">
															<masterclipid>masterclip-20</masterclipid>
															<name>Steven Beddall - Ice Cream Social.mp3</name>
															<enabled>TRUE</enabled>
															<duration>3744</duration>
															<rate>
																<timebase>30</timebase>
																<ntsc>TRUE</ntsc>
															</rate>
															<start>-1</start>
															<end>-1</end>
															<in>373</in>
															<out>2950</out>
															<pproTicksIn>3161423865600</pproTicksIn>
															<pproTicksOut>25003218240000</pproTicksOut>
															<file id="file-20"/>
															<sourcetrack>
																<mediatype>audio</mediatype>
																<trackindex>1</trackindex>
															</sourcetrack>
															<link>
																<linkclipref>clipitem-1012</linkclipref>
																<mediatype>audio</mediatype>
																<trackindex>1</trackindex>
																<clipindex>5</clipindex>
																<groupindex>1</groupindex>
															</link>
															<link>
																<linkclipref>clipitem-1015</linkclipref>
																<mediatype>audio</mediatype>
																<trackindex>2</trackindex>
																<clipindex>5</clipindex>
																<groupindex>1</groupindex>
															</link>
															<logginginfo>
																<description></description>
																<scene></scene>
																<shottake></shottake>
																<lognote>All Rights Reserved to www.Art-list.io</lognote>
																<good></good>
																<originalvideofilename></originalvideofilename>
																<originalaudiofilename></originalaudiofilename>
															</logginginfo>
															<colorinfo>
																<lut></lut>
																<lut1></lut1>
																<asc_sop></asc_sop>
																<asc_sat></asc_sat>
																<lut2></lut2>
															</colorinfo>
															<labels>
																<label2>Cerulean</label2>
															</labels>
														</clipitem>
														<transitionitem>
															<start>5057</start>
															<end>5147</end>
															<pproTicksIn>42861449030400</pproTicksIn>
															<pproTicksOut>43624259078400</pproTicksOut>
															<alignment>end-black</alignment>
															<cutPointTicks>762810048000</cutPointTicks>
															<rate>
																<timebase>30</timebase>
																<ntsc>TRUE</ntsc>
															</rate>
															<effect>
																<name>Cross Fade (+3dB)</name>
																<effectid>KGAudioTransCrossFade3dB</effectid>
																<effecttype>transition</effecttype>
																<mediatype>audio</mediatype>
																<wipecode>0</wipecode>
																<wipeaccuracy>100</wipeaccuracy>
																<startratio>0</startratio>
																<endratio>1</endratio>
																<reverse>FALSE</reverse>
															</effect>
														</transitionitem>
														<clipitem id="clipitem-1013" premiereChannelType="stereo">
															<masterclipid>masterclip-33</masterclipid>
															<name>01.5_ATM_Content Submit QR_Music 2.mp4</name>
															<enabled>TRUE</enabled>
															<duration>299</duration>
															<rate>
																<timebase>30</timebase>
																<ntsc>TRUE</ntsc>
															</rate>
															<start>5147</start>
															<end>5446</end>
															<in>0</in>
															<out>299</out>
															<pproTicksIn>0</pproTicksIn>
															<pproTicksOut>2534224492800</pproTicksOut>
															<file id="file-33"/>
															<sourcetrack>
																<mediatype>audio</mediatype>
																<trackindex>1</trackindex>
															</sourcetrack>
															<filter>
																<effect>
																	<name>Gain</name>
																	<effectid>{61756678, 4761696e, 4b657947}</effectid>
																	<effecttype>filter</effecttype>
																	<mediatype>audio</mediatype>
																	<parameter authoringApp="PremierePro">
																		<parameterid>Gain(dB)</parameterid>
																		<name>Gain(dB)</name>
																		<valuemin>-96</valuemin>
																		<valuemax>96</valuemax>
																		<value>15</value>
																	</parameter>
																</effect>
															</filter>
															<link>
																<linkclipref>clipitem-1007</linkclipref>
																<mediatype>video</mediatype>
																<trackindex>1</trackindex>
																<clipindex>3</clipindex>
															</link>
															<link>
																<linkclipref>clipitem-1013</linkclipref>
																<mediatype>audio</mediatype>
																<trackindex>1</trackindex>
																<clipindex>7</clipindex>
																<groupindex>1</groupindex>
															</link>
															<link>
																<linkclipref>clipitem-1016</linkclipref>
																<mediatype>audio</mediatype>
																<trackindex>2</trackindex>
																<clipindex>7</clipindex>
																<groupindex>1</groupindex>
															</link>
															<logginginfo>
																<description></description>
																<scene></scene>
																<shottake></shottake>
																<lognote></lognote>
																<good></good>
																<originalvideofilename></originalvideofilename>
																<originalaudiofilename></originalaudiofilename>
															</logginginfo>
															<colorinfo>
																<lut></lut>
																<lut1></lut1>
																<asc_sop></asc_sop>
																<asc_sat></asc_sat>
																<lut2></lut2>
															</colorinfo>
															<labels>
																<label2>Iris</label2>
															</labels>
														</clipitem>
														<enabled>TRUE</enabled>
														<locked>FALSE</locked>
														<filter>
															<effect>
																<name>Audio Levels</name>
																<effectid>audiolevels</effectid>
																<effectcategory>audiolevels</effectcategory>
																<effecttype>audiolevels</effecttype>
																<mediatype>audio</mediatype>
																<parameter authoringApp="PremierePro">
																	<parameterid>level</parameterid>
																	<name>Level</name>
																	<valuemin>0</valuemin>
																	<valuemax>3.98109</valuemax>
																	<value>0.706272</value>
																</parameter>
															</effect>
														</filter>
														<outputchannelindex>1</outputchannelindex>
													</track>
													<track TL.SQTrackAudioKeyframeStyle="0" TL.SQTrackShy="0" TL.SQTrackExpandedHeight="25" TL.SQTrackExpanded="0" MZ.TrackTargeted="1" PannerCurrentValue="0.5" PannerIsInverted="true" PannerStartKeyframe="-91445760000000000,0.5,0,0,0,0,0,0" PannerName="Balance" currentExplodedTrackIndex="1" totalExplodedTrackCount="2" premiereTrackType="Stereo">
														<transitionitem>
															<start>0</start>
															<end>30</end>
															<pproTicksIn>0</pproTicksIn>
															<pproTicksOut>254270016000</pproTicksOut>
															<alignment>start-black</alignment>
															<cutPointTicks>0</cutPointTicks>
															<rate>
																<timebase>30</timebase>
																<ntsc>TRUE</ntsc>
															</rate>
															<effect>
																<name>Cross Fade (+3dB)</name>
																<effectid>KGAudioTransCrossFade3dB</effectid>
																<effecttype>transition</effecttype>
																<mediatype>audio</mediatype>
																<wipecode>0</wipecode>
																<wipeaccuracy>100</wipeaccuracy>
																<startratio>0</startratio>
																<endratio>1</endratio>
																<reverse>FALSE</reverse>
															</effect>
														</transitionitem>
														<clipitem id="clipitem-1014" premiereChannelType="stereo">
															<masterclipid>masterclip-19</masterclipid>
															<name>ES_23 Til Infinity - Matt Large.mp3</name>
															<enabled>TRUE</enabled>
															<duration>5436</duration>
															<rate>
																<timebase>30</timebase>
																<ntsc>TRUE</ntsc>
															</rate>
															<start>-1</start>
															<end>-1</end>
															<in>353</in>
															<out>2897</out>
															<pproTicksIn>2991910521600</pproTicksIn>
															<pproTicksOut>24554007878400</pproTicksOut>
															<file id="file-19"/>
															<sourcetrack>
																<mediatype>audio</mediatype>
																<trackindex>2</trackindex>
															</sourcetrack>
															<link>
																<linkclipref>clipitem-1011</linkclipref>
																<mediatype>audio</mediatype>
																<trackindex>1</trackindex>
																<clipindex>2</clipindex>
																<groupindex>1</groupindex>
															</link>
															<link>
																<linkclipref>clipitem-1014</linkclipref>
																<mediatype>audio</mediatype>
																<trackindex>2</trackindex>
																<clipindex>2</clipindex>
																<groupindex>1</groupindex>
															</link>
															<logginginfo>
																<description></description>
																<scene></scene>
																<shottake></shottake>
																<lognote></lognote>
																<good></good>
																<originalvideofilename></originalvideofilename>
																<originalaudiofilename></originalaudiofilename>
															</logginginfo>
															<colorinfo>
																<lut></lut>
																<lut1></lut1>
																<asc_sop></asc_sop>
																<asc_sat></asc_sat>
																<lut2></lut2>
															</colorinfo>
															<labels>
																<label2>Caribbean</label2>
															</labels>
														</clipitem>
														<transitionitem>
															<start>2454</start>
															<end>2544</end>
															<pproTicksIn>20799287308800</pproTicksIn>
															<pproTicksOut>21562097356800</pproTicksOut>
															<alignment>end-black</alignment>
															<cutPointTicks>762810048000</cutPointTicks>
															<rate>
																<timebase>30</timebase>
																<ntsc>TRUE</ntsc>
															</rate>
															<effect>
																<name>Cross Fade (+3dB)</name>
																<effectid>KGAudioTransCrossFade3dB</effectid>
																<effecttype>transition</effecttype>
																<mediatype>audio</mediatype>
																<wipecode>0</wipecode>
																<wipeaccuracy>100</wipeaccuracy>
																<startratio>0</startratio>
																<endratio>1</endratio>
																<reverse>FALSE</reverse>
															</effect>
														</transitionitem>
														<transitionitem>
															<start>2570</start>
															<end>2600</end>
															<pproTicksIn>21782464704000</pproTicksIn>
															<pproTicksOut>22036734720000</pproTicksOut>
															<alignment>start-black</alignment>
															<cutPointTicks>0</cutPointTicks>
															<rate>
																<timebase>30</timebase>
																<ntsc>TRUE</ntsc>
															</rate>
															<effect>
																<name>Cross Fade (+3dB)</name>
																<effectid>KGAudioTransCrossFade3dB</effectid>
																<effecttype>transition</effecttype>
																<mediatype>audio</mediatype>
																<wipecode>0</wipecode>
																<wipeaccuracy>100</wipeaccuracy>
																<startratio>0</startratio>
																<endratio>1</endratio>
																<reverse>FALSE</reverse>
															</effect>
														</transitionitem>
														<clipitem id="clipitem-1015" premiereChannelType="stereo">
															<masterclipid>masterclip-20</masterclipid>
															<name>Steven Beddall - Ice Cream Social.mp3</name>
															<enabled>TRUE</enabled>
															<duration>3744</duration>
															<rate>
																<timebase>30</timebase>
																<ntsc>TRUE</ntsc>
															</rate>
															<start>-1</start>
															<end>-1</end>
															<in>373</in>
															<out>2950</out>
															<pproTicksIn>3161423865600</pproTicksIn>
															<pproTicksOut>25003218240000</pproTicksOut>
															<file id="file-20"/>
															<sourcetrack>
																<mediatype>audio</mediatype>
																<trackindex>2</trackindex>
															</sourcetrack>
															<link>
																<linkclipref>clipitem-1012</linkclipref>
																<mediatype>audio</mediatype>
																<trackindex>1</trackindex>
																<clipindex>5</clipindex>
																<groupindex>1</groupindex>
															</link>
															<link>
																<linkclipref>clipitem-1015</linkclipref>
																<mediatype>audio</mediatype>
																<trackindex>2</trackindex>
																<clipindex>5</clipindex>
																<groupindex>1</groupindex>
															</link>
															<logginginfo>
																<description></description>
																<scene></scene>
																<shottake></shottake>
																<lognote>All Rights Reserved to www.Art-list.io</lognote>
																<good></good>
																<originalvideofilename></originalvideofilename>
																<originalaudiofilename></originalaudiofilename>
															</logginginfo>
															<colorinfo>
																<lut></lut>
																<lut1></lut1>
																<asc_sop></asc_sop>
																<asc_sat></asc_sat>
																<lut2></lut2>
															</colorinfo>
															<labels>
																<label2>Cerulean</label2>
															</labels>
														</clipitem>
														<transitionitem>
															<start>5057</start>
															<end>5147</end>
															<pproTicksIn>42861449030400</pproTicksIn>
															<pproTicksOut>43624259078400</pproTicksOut>
															<alignment>end-black</alignment>
															<cutPointTicks>762810048000</cutPointTicks>
															<rate>
																<timebase>30</timebase>
																<ntsc>TRUE</ntsc>
															</rate>
															<effect>
																<name>Cross Fade (+3dB)</name>
																<effectid>KGAudioTransCrossFade3dB</effectid>
																<effecttype>transition</effecttype>
																<mediatype>audio</mediatype>
																<wipecode>0</wipecode>
																<wipeaccuracy>100</wipeaccuracy>
																<startratio>0</startratio>
																<endratio>1</endratio>
																<reverse>FALSE</reverse>
															</effect>
														</transitionitem>
														<clipitem id="clipitem-1016" premiereChannelType="stereo">
															<masterclipid>masterclip-33</masterclipid>
															<name>01.5_ATM_Content Submit QR_Music 2.mp4</name>
															<enabled>TRUE</enabled>
															<duration>299</duration>
															<rate>
																<timebase>30</timebase>
																<ntsc>TRUE</ntsc>
															</rate>
															<start>5147</start>
															<end>5446</end>
															<in>0</in>
															<out>299</out>
															<pproTicksIn>0</pproTicksIn>
															<pproTicksOut>2534224492800</pproTicksOut>
															<file id="file-33"/>
															<sourcetrack>
																<mediatype>audio</mediatype>
																<trackindex>2</trackindex>
															</sourcetrack>
															<filter>
																<effect>
																	<name>Gain</name>
																	<effectid>{61756678, 4761696e, 4b657947}</effectid>
																	<effecttype>filter</effecttype>
																	<mediatype>audio</mediatype>
																	<parameter authoringApp="PremierePro">
																		<parameterid>Gain(dB)</parameterid>
																		<name>Gain(dB)</name>
																		<valuemin>-96</valuemin>
																		<valuemax>96</valuemax>
																		<value>15</value>
																	</parameter>
																</effect>
															</filter>
															<link>
																<linkclipref>clipitem-1007</linkclipref>
																<mediatype>video</mediatype>
																<trackindex>1</trackindex>
																<clipindex>3</clipindex>
															</link>
															<link>
																<linkclipref>clipitem-1013</linkclipref>
																<mediatype>audio</mediatype>
																<trackindex>1</trackindex>
																<clipindex>7</clipindex>
																<groupindex>1</groupindex>
															</link>
															<link>
																<linkclipref>clipitem-1016</linkclipref>
																<mediatype>audio</mediatype>
																<trackindex>2</trackindex>
																<clipindex>7</clipindex>
																<groupindex>1</groupindex>
															</link>
															<logginginfo>
																<description></description>
																<scene></scene>
																<shottake></shottake>
																<lognote></lognote>
																<good></good>
																<originalvideofilename></originalvideofilename>
																<originalaudiofilename></originalaudiofilename>
															</logginginfo>
															<colorinfo>
																<lut></lut>
																<lut1></lut1>
																<asc_sop></asc_sop>
																<asc_sat></asc_sat>
																<lut2></lut2>
															</colorinfo>
															<labels>
																<label2>Iris</label2>
															</labels>
														</clipitem>
														<enabled>TRUE</enabled>
														<locked>FALSE</locked>
														<filter>
															<effect>
																<name>Audio Levels</name>
																<effectid>audiolevels</effectid>
																<effectcategory>audiolevels</effectcategory>
																<effecttype>audiolevels</effecttype>
																<mediatype>audio</mediatype>
																<parameter authoringApp="PremierePro">
																	<parameterid>level</parameterid>
																	<name>Level</name>
																	<valuemin>0</valuemin>
																	<valuemax>3.98109</valuemax>
																	<value>0.706272</value>
																</parameter>
															</effect>
														</filter>
														<outputchannelindex>2</outputchannelindex>
													</track>
													<track TL.SQTrackAudioKeyframeStyle="0" TL.SQTrackShy="0" TL.SQTrackExpandedHeight="25" TL.SQTrackExpanded="0" MZ.TrackTargeted="0" PannerCurrentValue="0.5" PannerIsInverted="true" PannerStartKeyframe="-91445760000000000,0.5,0,0,0,0,0,0" PannerName="Balance" currentExplodedTrackIndex="0" totalExplodedTrackCount="2" premiereTrackType="Stereo">
														<clipitem id="clipitem-1017" premiereChannelType="stereo">
															<masterclipid>masterclip-211</masterclipid>
															<name>00_Quick Logo</name>
															<enabled>TRUE</enabled>
															<duration>953</duration>
															<rate>
																<timebase>30</timebase>
																<ntsc>TRUE</ntsc>
															</rate>
															<start>2530</start>
															<end>2594</end>
															<in>0</in>
															<out>64</out>
															<pproTicksIn>0</pproTicksIn>
															<pproTicksOut>542442700800</pproTicksOut>
															<sequence id="sequence-9"/>
															<sourcetrack>
																<mediatype>audio</mediatype>
																<trackindex>0</trackindex>
															</sourcetrack>
																<marker>
																	<comment></comment>
																	<name></name>
																	<in>14</in>
																	<out>-1</out>
																</marker>
																<marker>
																	<comment></comment>
																	<name></name>
																	<in>40</in>
																	<out>-1</out>
																</marker>
															<link>
																<linkclipref>clipitem-1010</linkclipref>
																<mediatype>video</mediatype>
																<trackindex>3</trackindex>
																<clipindex>1</clipindex>
															</link>
															<link>
																<linkclipref>clipitem-1017</linkclipref>
																<mediatype>audio</mediatype>
																<trackindex>3</trackindex>
																<clipindex>1</clipindex>
																<groupindex>1</groupindex>
															</link>
															<link>
																<linkclipref>clipitem-1018</linkclipref>
																<mediatype>audio</mediatype>
																<trackindex>4</trackindex>
																<clipindex>1</clipindex>
																<groupindex>1</groupindex>
															</link>
															<labels>
																<label2>Cerulean</label2>
															</labels>
														</clipitem>
														<enabled>TRUE</enabled>
														<locked>FALSE</locked>
														<filter>
															<effect>
																<name>Audio Levels</name>
																<effectid>audiolevels</effectid>
																<effectcategory>audiolevels</effectcategory>
																<effecttype>audiolevels</effecttype>
																<mediatype>audio</mediatype>
																<parameter authoringApp="PremierePro">
																	<parameterid>level</parameterid>
																	<name>Level</name>
																	<valuemin>0</valuemin>
																	<valuemax>3.98109</valuemax>
																	<value>0.706272</value>
																</parameter>
															</effect>
														</filter>
														<outputchannelindex>1</outputchannelindex>
													</track>
													<track TL.SQTrackAudioKeyframeStyle="0" TL.SQTrackShy="0" TL.SQTrackExpandedHeight="25" TL.SQTrackExpanded="0" MZ.TrackTargeted="0" PannerCurrentValue="0.5" PannerIsInverted="true" PannerStartKeyframe="-91445760000000000,0.5,0,0,0,0,0,0" PannerName="Balance" currentExplodedTrackIndex="1" totalExplodedTrackCount="2" premiereTrackType="Stereo">
														<clipitem id="clipitem-1018" premiereChannelType="stereo">
															<masterclipid>masterclip-211</masterclipid>
															<name>00_Quick Logo</name>
															<enabled>TRUE</enabled>
															<duration>953</duration>
															<rate>
																<timebase>30</timebase>
																<ntsc>TRUE</ntsc>
															</rate>
															<start>2530</start>
															<end>2594</end>
															<in>0</in>
															<out>64</out>
															<pproTicksIn>0</pproTicksIn>
															<pproTicksOut>542442700800</pproTicksOut>
															<sequence id="sequence-9"/>
															<sourcetrack>
																<mediatype>audio</mediatype>
																<trackindex>1</trackindex>
															</sourcetrack>
																<marker>
																	<comment></comment>
																	<name></name>
																	<in>14</in>
																	<out>-1</out>
																</marker>
																<marker>
																	<comment></comment>
																	<name></name>
																	<in>40</in>
																	<out>-1</out>
																</marker>
															<link>
																<linkclipref>clipitem-1010</linkclipref>
																<mediatype>video</mediatype>
																<trackindex>3</trackindex>
																<clipindex>1</clipindex>
															</link>
															<link>
																<linkclipref>clipitem-1017</linkclipref>
																<mediatype>audio</mediatype>
																<trackindex>3</trackindex>
																<clipindex>1</clipindex>
																<groupindex>1</groupindex>
															</link>
															<link>
																<linkclipref>clipitem-1018</linkclipref>
																<mediatype>audio</mediatype>
																<trackindex>4</trackindex>
																<clipindex>1</clipindex>
																<groupindex>1</groupindex>
															</link>
															<labels>
																<label2>Cerulean</label2>
															</labels>
														</clipitem>
														<enabled>TRUE</enabled>
														<locked>FALSE</locked>
														<filter>
															<effect>
																<name>Audio Levels</name>
																<effectid>audiolevels</effectid>
																<effectcategory>audiolevels</effectcategory>
																<effecttype>audiolevels</effecttype>
																<mediatype>audio</mediatype>
																<parameter authoringApp="PremierePro">
																	<parameterid>level</parameterid>
																	<name>Level</name>
																	<valuemin>0</valuemin>
																	<valuemax>3.98109</valuemax>
																	<value>0.706272</value>
																</parameter>
															</effect>
														</filter>
														<outputchannelindex>2</outputchannelindex>
													</track>
													<track TL.SQTrackAudioKeyframeStyle="0" TL.SQTrackShy="0" TL.SQTrackExpandedHeight="25" TL.SQTrackExpanded="0" MZ.TrackTargeted="0" PannerCurrentValue="0.5" PannerIsInverted="true" PannerStartKeyframe="-91445760000000000,0.5,0,0,0,0,0,0" PannerName="Balance" currentExplodedTrackIndex="0" totalExplodedTrackCount="2" premiereTrackType="Stereo">
														<enabled>TRUE</enabled>
														<locked>FALSE</locked>
														<outputchannelindex>1</outputchannelindex>
													</track>
													<track TL.SQTrackAudioKeyframeStyle="0" TL.SQTrackShy="0" TL.SQTrackExpandedHeight="25" TL.SQTrackExpanded="0" MZ.TrackTargeted="0" PannerCurrentValue="0.5" PannerIsInverted="true" PannerStartKeyframe="-91445760000000000,0.5,0,0,0,0,0,0" PannerName="Balance" currentExplodedTrackIndex="1" totalExplodedTrackCount="2" premiereTrackType="Stereo">
														<enabled>TRUE</enabled>
														<locked>FALSE</locked>
														<outputchannelindex>2</outputchannelindex>
													</track>
												</audio>
											</media>
											<timecode>
												<rate>
													<timebase>30</timebase>
													<ntsc>TRUE</ntsc>
												</rate>
												<string>00:00:00:00</string>
												<frame>0</frame>
												<displayformat>NDF</displayformat>
											</timecode>
											<logginginfo>
												<description></description>
												<scene></scene>
												<shottake></shottake>
												<lognote></lognote>
												<good></good>
												<originalvideofilename></originalvideofilename>
												<originalaudiofilename></originalaudiofilename>
											</logginginfo>
										</sequence>
										<filter>
											<effect>
												<name>Basic Motion</name>
												<effectid>basic</effectid>
												<effectcategory>motion</effectcategory>
												<effecttype>motion</effecttype>
												<mediatype>video</mediatype>
												<pproBypass>false</pproBypass>
												<parameter authoringApp="PremierePro">
													<parameterid>scale</parameterid>
													<name>Scale</name>
													<valuemin>0</valuemin>
													<valuemax>1000</valuemax>
													<value>66.6667</value>
												</parameter>
												<parameter authoringApp="PremierePro">
													<parameterid>rotation</parameterid>
													<name>Rotation</name>
													<valuemin>-8640</valuemin>
													<valuemax>8640</valuemax>
													<value>0</value>
												</parameter>
												<parameter authoringApp="PremierePro">
													<parameterid>center</parameterid>
													<name>Center</name>
													<value>
														<horiz>-0.5</horiz>
														<vert>-0.5</vert>
													</value>
												</parameter>
												<parameter authoringApp="PremierePro">
													<parameterid>centerOffset</parameterid>
													<name>Anchor Point</name>
													<value>
														<horiz>0</horiz>
														<vert>0</vert>
													</value>
												</parameter>
												<parameter authoringApp="PremierePro">
													<parameterid>antiflicker</parameterid>
													<name>Anti-flicker Filter</name>
													<valuemin>0.0</valuemin>
													<valuemax>1.0</valuemax>
													<value>0</value>
												</parameter>
											</effect>
										</filter>
										<link>
											<linkclipref>clipitem-1004</linkclipref>
											<mediatype>video</mediatype>
											<trackindex>1</trackindex>
											<clipindex>6</clipindex>
										</link>
										<link>
											<linkclipref>clipitem-1125</linkclipref>
											<mediatype>audio</mediatype>
											<trackindex>1</trackindex>
											<clipindex>6</clipindex>
											<groupindex>1</groupindex>
										</link>
										<link>
											<linkclipref>clipitem-1139</linkclipref>
											<mediatype>audio</mediatype>
											<trackindex>2</trackindex>
											<clipindex>6</clipindex>
											<groupindex>1</groupindex>
										</link>
										<labels>
											<label2>Forest</label2>
										</labels>
									</clipitem>
									<clipitem id="clipitem-1019">
										<masterclipid>masterclip-212</masterclipid>
										<name>06</name>
										<enabled>TRUE</enabled>
										<duration>96212</duration>
										<rate>
											<timebase>30</timebase>
											<ntsc>TRUE</ntsc>
										</rate>
										<start>45144</start>
										<end>50913</end>
										<in>0</in>
										<out>5769</out>
										<pproTicksIn>0</pproTicksIn>
										<pproTicksOut>48896124076800</pproTicksOut>
										<sequence id="sequence-77" TL.SQAudioVisibleBase="0" TL.SQVideoVisibleBase="0" TL.SQVisibleBaseTime="0" TL.SQAVDividerPosition="0.5" TL.SQHideShyTracks="0" TL.SQHeaderWidth="236" TL.SQDataTrackViewControlState="0" Monitor.ProgramZoomOut="48260449036800" Monitor.ProgramZoomIn="0" TL.SQTimePerPixel="0.27637033625057528" AM.TrackVScrollPosition="0" AM.TrackScrollPosition="0" MZ.EditLine="13832288870400" MZ.Sequence.PreviewFrameSizeHeight="1080" MZ.Sequence.PreviewFrameSizeWidth="1920" MZ.Sequence.AudioTimeDisplayFormat="200" MZ.Sequence.PreviewRenderingClassID="1297106761" MZ.Sequence.PreviewRenderingPresetCodec="1297107278" MZ.Sequence.PreviewRenderingPresetPath="EncoderPresets/SequencePreview/795454d9-d3c2-429d-9474-923ab13b7018/I-Frame Only MPEG.epr" MZ.Sequence.PreviewUseMaxRenderQuality="false" MZ.Sequence.PreviewUseMaxBitDepth="false" MZ.Sequence.EditingModeGUID="795454d9-d3c2-429d-9474-923ab13b7018" MZ.Sequence.VideoTimeDisplayFormat="103" MZ.WorkOutPoint="15705411321600" MZ.WorkInPoint="0">
											<duration>5694</duration>
											<rate>
												<timebase>30</timebase>
												<ntsc>TRUE</ntsc>
											</rate>
											<name>ATM_ODDLY SATISFYING_1548</name>
											<media>
												<video>
													<format>
														<samplecharacteristics>
															<rate>
																<timebase>30</timebase>
																<ntsc>TRUE</ntsc>
															</rate>
															<codec>
																<name>Apple ProRes 422</name>
																<appspecificdata>
																	<appname>Final Cut Pro</appname>
																	<appmanufacturer>Apple Inc.</appmanufacturer>
																	<appversion>7.0</appversion>
																	<data>
																		<qtcodec>
																			<codecname>Apple ProRes 422</codecname>
																			<codectypename>Apple ProRes 422</codectypename>
																			<codectypecode>apcn</codectypecode>
																			<codecvendorcode>appl</codecvendorcode>
																			<spatialquality>1024</spatialquality>
																			<temporalquality>0</temporalquality>
																			<keyframerate>0</keyframerate>
																			<datarate>0</datarate>
																		</qtcodec>
																	</data>
																</appspecificdata>
															</codec>
															<width>1920</width>
															<height>1080</height>
															<anamorphic>FALSE</anamorphic>
															<pixelaspectratio>square</pixelaspectratio>
															<fielddominance>none</fielddominance>
															<colordepth>24</colordepth>
														</samplecharacteristics>
													</format>
													<track TL.SQTrackShy="0" TL.SQTrackExpandedHeight="25" TL.SQTrackExpanded="0" MZ.TrackTargeted="1">
														<clipitem id="clipitem-1020">
															<masterclipid>masterclip-120</masterclipid>
															<name>1259 - FND_soyoungpapiccio_1m45s.mp4</name>
															<enabled>TRUE</enabled>
															<duration>2994</duration>
															<rate>
																<timebase>30</timebase>
																<ntsc>TRUE</ntsc>
															</rate>
															<start>0</start>
															<end>2994</end>
															<in>0</in>
															<out>2994</out>
															<pproTicksIn>0</pproTicksIn>
															<pproTicksOut>25376147596800</pproTicksOut>
															<alphatype>none</alphatype>
															<file id="file-119"/>
															<filter>
																<effect>
																	<name>Basic Motion</name>
																	<effectid>basic</effectid>
																	<effectcategory>motion</effectcategory>
																	<effecttype>motion</effecttype>
																	<mediatype>video</mediatype>
																	<pproBypass>false</pproBypass>
																	<parameter authoringApp="PremierePro">
																		<parameterid>scale</parameterid>
																		<name>Scale</name>
																		<valuemin>0</valuemin>
																		<valuemax>1000</valuemax>
																		<value>393</value>
																	</parameter>
																	<parameter authoringApp="PremierePro">
																		<parameterid>rotation</parameterid>
																		<name>Rotation</name>
																		<valuemin>-8640</valuemin>
																		<valuemax>8640</valuemax>
																		<value>0</value>
																	</parameter>
																	<parameter authoringApp="PremierePro">
																		<parameterid>center</parameterid>
																		<name>Center</name>
																		<value>
																			<horiz>0</horiz>
																			<vert>0</vert>
																		</value>
																	</parameter>
																	<parameter authoringApp="PremierePro">
																		<parameterid>centerOffset</parameterid>
																		<name>Anchor Point</name>
																		<value>
																			<horiz>0</horiz>
																			<vert>0</vert>
																		</value>
																	</parameter>
																	<parameter authoringApp="PremierePro">
																		<parameterid>antiflicker</parameterid>
																		<name>Anti-flicker Filter</name>
																		<valuemin>0.0</valuemin>
																		<valuemax>1.0</valuemax>
																		<value>0</value>
																	</parameter>
																</effect>
															</filter>
															<filter>
																<effect>
																	<name>Gaussian Blur</name>
																	<effectid>Gaussian Blur</effectid>
																	<effectcategory>Blur</effectcategory>
																	<effecttype>motion</effecttype>
																	<mediatype>video</mediatype>
																	<pproBypass>false</pproBypass>
																	<parameter authoringApp="PremierePro">
																		<parameterid>radius</parameterid>
																		<name>Radius</name>
																		<valuemin>0</valuemin>
																		<valuemax>100</valuemax>
																		<value>150</value>
																	</parameter>
																</effect>
															</filter>
															<logginginfo>
																<description></description>
																<scene></scene>
																<shottake></shottake>
																<lognote></lognote>
																<good></good>
																<originalvideofilename></originalvideofilename>
																<originalaudiofilename></originalaudiofilename>
															</logginginfo>
															<colorinfo>
																<lut></lut>
																<lut1></lut1>
																<asc_sop></asc_sop>
																<asc_sat></asc_sat>
																<lut2></lut2>
															</colorinfo>
															<labels>
																<label2>Iris</label2>
															</labels>
														</clipitem>
														<clipitem id="clipitem-1021">
															<masterclipid>masterclip-213</masterclipid>
															<name>1259nest</name>
															<enabled>TRUE</enabled>
															<duration>2618</duration>
															<rate>
																<timebase>30</timebase>
																<ntsc>TRUE</ntsc>
															</rate>
															<start>3076</start>
															<end>-1</end>
															<in>0</in>
															<out>2618</out>
															<pproTicksIn>0</pproTicksIn>
															<pproTicksOut>22189296729600</pproTicksOut>
															<sequence id="sequence-27"/>
															<link>
																<linkclipref>clipitem-1021</linkclipref>
																<mediatype>video</mediatype>
																<trackindex>1</trackindex>
																<clipindex>2</clipindex>
															</link>
															<link>
																<linkclipref>clipitem-1027</linkclipref>
																<mediatype>audio</mediatype>
																<trackindex>1</trackindex>
																<clipindex>4</clipindex>
																<groupindex>1</groupindex>
															</link>
															<link>
																<linkclipref>clipitem-1029</linkclipref>
																<mediatype>audio</mediatype>
																<trackindex>2</trackindex>
																<clipindex>4</clipindex>
																<groupindex>1</groupindex>
															</link>
															<labels>
																<label2>Forest</label2>
															</labels>
														</clipitem>
														<transitionitem>
															<start>5664</start>
															<end>5694</end>
															<alignment>end-black</alignment>
															<cutPointTicks>254270016000</cutPointTicks>
															<rate>
																<timebase>30</timebase>
																<ntsc>TRUE</ntsc>
															</rate>
															<effect>
																<name>Cross Dissolve</name>
																<effectid>Cross Dissolve</effectid>
																<effectcategory>Dissolve</effectcategory>
																<effecttype>transition</effecttype>
																<mediatype>video</mediatype>
																<wipecode>0</wipecode>
																<wipeaccuracy>100</wipeaccuracy>
																<startratio>0</startratio>
																<endratio>1</endratio>
																<reverse>FALSE</reverse>
															</effect>
														</transitionitem>
														<enabled>TRUE</enabled>
														<locked>FALSE</locked>
													</track>
													<track TL.SQTrackShy="0" TL.SQTrackExpandedHeight="25" TL.SQTrackExpanded="0" MZ.TrackTargeted="0">
														<clipitem id="clipitem-1022">
															<masterclipid>masterclip-214</masterclipid>
															<name>soyoungnest</name>
															<enabled>TRUE</enabled>
															<duration>2994</duration>
															<rate>
																<timebase>30</timebase>
																<ntsc>TRUE</ntsc>
															</rate>
															<start>0</start>
															<end>2994</end>
															<in>0</in>
															<out>2994</out>
															<pproTicksIn>0</pproTicksIn>
															<pproTicksOut>25376147596800</pproTicksOut>
															<sequence id="sequence-26"/>
															<labels>
																<label2>Forest</label2>
															</labels>
														</clipitem>
														<enabled>TRUE</enabled>
														<locked>FALSE</locked>
													</track>
													<track TL.SQTrackShy="0" TL.SQTrackExpandedHeight="25" TL.SQTrackExpanded="0" MZ.TrackTargeted="0">
														<clipitem id="clipitem-1023">
															<masterclipid>masterclip-54</masterclipid>
															<name>@soyoungpapiccio</name>
															<enabled>TRUE</enabled>
															<duration>5844</duration>
															<rate>
																<timebase>30</timebase>
																<ntsc>TRUE</ntsc>
															</rate>
															<start>0</start>
															<end>2994</end>
															<in>0</in>
															<out>2994</out>
															<pproTicksIn>0</pproTicksIn>
															<pproTicksOut>25376147596800</pproTicksOut>
															<alphatype>straight</alphatype>
															<file id="file-54"/>
															<filter>
																<effect>
																	<name>Basic Motion</name>
																	<effectid>basic</effectid>
																	<effectcategory>motion</effectcategory>
																	<effecttype>motion</effecttype>
																	<mediatype>video</mediatype>
																	<pproBypass>false</pproBypass>
																	<parameter authoringApp="PremierePro">
																		<parameterid>scale</parameterid>
																		<name>Scale</name>
																		<valuemin>0</valuemin>
																		<valuemax>1000</valuemax>
																		<value>150</value>
																	</parameter>
																	<parameter authoringApp="PremierePro">
																		<parameterid>rotation</parameterid>
																		<name>Rotation</name>
																		<valuemin>-8640</valuemin>
																		<valuemax>8640</valuemax>
																		<value>0</value>
																	</parameter>
																	<parameter authoringApp="PremierePro">
																		<parameterid>center</parameterid>
																		<name>Center</name>
																		<value>
																			<horiz>0</horiz>
																			<vert>0</vert>
																		</value>
																	</parameter>
																	<parameter authoringApp="PremierePro">
																		<parameterid>centerOffset</parameterid>
																		<name>Anchor Point</name>
																		<value>
																			<horiz>0</horiz>
																			<vert>0</vert>
																		</value>
																	</parameter>
																	<parameter authoringApp="PremierePro">
																		<parameterid>antiflicker</parameterid>
																		<name>Anti-flicker Filter</name>
																		<valuemin>0.0</valuemin>
																		<valuemax>1.0</valuemax>
																		<value>0</value>
																	</parameter>
																</effect>
															</filter>
															<logginginfo>
																<description></description>
																<scene></scene>
																<shottake></shottake>
																<lognote></lognote>
																<good></good>
																<originalvideofilename></originalvideofilename>
																<originalaudiofilename></originalaudiofilename>
															</logginginfo>
															<colorinfo>
																<lut></lut>
																<lut1></lut1>
																<asc_sop></asc_sop>
																<asc_sat></asc_sat>
																<lut2></lut2>
															</colorinfo>
															<labels>
																<label2>Rose</label2>
															</labels>
														</clipitem>
														<enabled>TRUE</enabled>
														<locked>FALSE</locked>
													</track>
													<track TL.SQTrackShy="0" TL.SQTrackExpandedHeight="25" TL.SQTrackExpanded="0" MZ.TrackTargeted="0">
														<clipitem id="clipitem-1024">
															<masterclipid>masterclip-106</masterclipid>
															<name>Bug and Lower Nest</name>
															<enabled>TRUE</enabled>
															<duration>14721</duration>
															<rate>
																<timebase>30</timebase>
																<ntsc>TRUE</ntsc>
															</rate>
															<start>0</start>
															<end>2994</end>
															<in>0</in>
															<out>2994</out>
															<pproTicksIn>0</pproTicksIn>
															<pproTicksOut>25376147596800</pproTicksOut>
															<sequence id="sequence-1"/>
															<labels>
																<label2>Cerulean</label2>
															</labels>
														</clipitem>
														<enabled>TRUE</enabled>
														<locked>FALSE</locked>
													</track>
													<track TL.SQTrackShy="0" TL.SQTrackExpandedHeight="25" TL.SQTrackExpanded="0" MZ.TrackTargeted="0">
														<clipitem id="clipitem-1025">
															<masterclipid>masterclip-203</masterclipid>
															<name>OS Trans 03</name>
															<enabled>TRUE</enabled>
															<duration>2613</duration>
															<rate>
																<timebase>30</timebase>
																<ntsc>TRUE</ntsc>
															</rate>
															<start>2944</start>
															<end>3140</end>
															<in>0</in>
															<out>196</out>
															<pproTicksIn>0</pproTicksIn>
															<pproTicksOut>1661230771200</pproTicksOut>
															<sequence id="sequence-4"/>
																<marker>
																	<comment></comment>
																	<name></name>
																	<in>50</in>
																	<out>-1</out>
																</marker>
																<marker>
																	<comment></comment>
																	<name></name>
																	<in>132</in>
																	<out>-1</out>
																</marker>
															<link>
																<linkclipref>clipitem-1025</linkclipref>
																<mediatype>video</mediatype>
																<trackindex>5</trackindex>
																<clipindex>1</clipindex>
															</link>
															<link>
																<linkclipref>clipitem-1030</linkclipref>
																<mediatype>audio</mediatype>
																<trackindex>3</trackindex>
																<clipindex>1</clipindex>
																<groupindex>1</groupindex>
															</link>
															<link>
																<linkclipref>clipitem-1031</linkclipref>
																<mediatype>audio</mediatype>
																<trackindex>4</trackindex>
																<clipindex>1</clipindex>
																<groupindex>1</groupindex>
															</link>
															<labels>
																<label2>Purple</label2>
															</labels>
														</clipitem>
														<enabled>TRUE</enabled>
														<locked>FALSE</locked>
													</track>
												</video>
												<audio>
													<numOutputChannels>2</numOutputChannels>
													<format>
														<samplecharacteristics>
															<depth>16</depth>
															<samplerate>44100</samplerate>
														</samplecharacteristics>
													</format>
													<outputs>
														<group>
															<index>1</index>
															<numchannels>1</numchannels>
															<downmix>0</downmix>
															<channel>
																<index>1</index>
															</channel>
														</group>
														<group>
															<index>2</index>
															<numchannels>1</numchannels>
															<downmix>0</downmix>
															<channel>
																<index>2</index>
															</channel>
														</group>
													</outputs>
													<track TL.SQTrackAudioKeyframeStyle="0" TL.SQTrackShy="0" TL.SQTrackExpandedHeight="25" TL.SQTrackExpanded="0" MZ.TrackTargeted="1" PannerCurrentValue="0.5" PannerIsInverted="true" PannerStartKeyframe="-91445760000000000,0.5,0,0,0,0,0,0" PannerName="Balance" currentExplodedTrackIndex="0" totalExplodedTrackCount="2" premiereTrackType="Stereo">
														<transitionitem>
															<start>0</start>
															<end>30</end>
															<pproTicksIn>0</pproTicksIn>
															<pproTicksOut>254270016000</pproTicksOut>
															<alignment>start-black</alignment>
															<cutPointTicks>0</cutPointTicks>
															<rate>
																<timebase>30</timebase>
																<ntsc>TRUE</ntsc>
															</rate>
															<effect>
																<name>Cross Fade (+3dB)</name>
																<effectid>KGAudioTransCrossFade3dB</effectid>
																<effecttype>transition</effecttype>
																<mediatype>audio</mediatype>
																<wipecode>0</wipecode>
																<wipeaccuracy>100</wipeaccuracy>
																<startratio>0</startratio>
																<endratio>1</endratio>
																<reverse>FALSE</reverse>
															</effect>
														</transitionitem>
														<clipitem id="clipitem-1026" premiereChannelType="stereo">
															<masterclipid>masterclip-14</masterclipid>
															<name>ES_ORANGE - SINY copy.mp3</name>
															<enabled>TRUE</enabled>
															<duration>4808</duration>
															<rate>
																<timebase>30</timebase>
																<ntsc>TRUE</ntsc>
															</rate>
															<start>-1</start>
															<end>-1</end>
															<in>333</in>
															<out>3327</out>
															<pproTicksIn>2822397177600</pproTicksIn>
															<pproTicksOut>28198544774400</pproTicksOut>
															<file id="file-14"/>
															<sourcetrack>
																<mediatype>audio</mediatype>
																<trackindex>1</trackindex>
															</sourcetrack>
															<link>
																<linkclipref>clipitem-1026</linkclipref>
																<mediatype>audio</mediatype>
																<trackindex>1</trackindex>
																<clipindex>2</clipindex>
																<groupindex>1</groupindex>
															</link>
															<link>
																<linkclipref>clipitem-1028</linkclipref>
																<mediatype>audio</mediatype>
																<trackindex>2</trackindex>
																<clipindex>2</clipindex>
																<groupindex>1</groupindex>
															</link>
															<logginginfo>
																<description></description>
																<scene></scene>
																<shottake></shottake>
																<lognote></lognote>
																<good></good>
																<originalvideofilename></originalvideofilename>
																<originalaudiofilename></originalaudiofilename>
															</logginginfo>
															<colorinfo>
																<lut></lut>
																<lut1></lut1>
																<asc_sop></asc_sop>
																<asc_sat></asc_sat>
																<lut2></lut2>
															</colorinfo>
															<labels>
																<label2>Forest</label2>
															</labels>
														</clipitem>
														<transitionitem>
															<start>2904</start>
															<end>2994</end>
															<pproTicksIn>24613337548800</pproTicksIn>
															<pproTicksOut>25376147596800</pproTicksOut>
															<alignment>end-black</alignment>
															<cutPointTicks>762810048000</cutPointTicks>
															<rate>
																<timebase>30</timebase>
																<ntsc>TRUE</ntsc>
															</rate>
															<effect>
																<name>Cross Fade (+3dB)</name>
																<effectid>KGAudioTransCrossFade3dB</effectid>
																<effecttype>transition</effecttype>
																<mediatype>audio</mediatype>
																<wipecode>0</wipecode>
																<wipeaccuracy>100</wipeaccuracy>
																<startratio>0</startratio>
																<endratio>1</endratio>
																<reverse>FALSE</reverse>
															</effect>
														</transitionitem>
														<clipitem id="clipitem-1027" premiereChannelType="stereo">
															<masterclipid>masterclip-213</masterclipid>
															<name>1259nest</name>
															<enabled>TRUE</enabled>
															<duration>2618</duration>
															<rate>
																<timebase>30</timebase>
																<ntsc>TRUE</ntsc>
															</rate>
															<start>3076</start>
															<end>5694</end>
															<in>0</in>
															<out>2618</out>
															<pproTicksIn>0</pproTicksIn>
															<pproTicksOut>22189296729600</pproTicksOut>
															<sequence id="sequence-27"/>
															<sourcetrack>
																<mediatype>audio</mediatype>
																<trackindex>0</trackindex>
															</sourcetrack>
															<link>
																<linkclipref>clipitem-1021</linkclipref>
																<mediatype>video</mediatype>
																<trackindex>1</trackindex>
																<clipindex>2</clipindex>
															</link>
															<link>
																<linkclipref>clipitem-1027</linkclipref>
																<mediatype>audio</mediatype>
																<trackindex>1</trackindex>
																<clipindex>4</clipindex>
																<groupindex>1</groupindex>
															</link>
															<link>
																<linkclipref>clipitem-1029</linkclipref>
																<mediatype>audio</mediatype>
																<trackindex>2</trackindex>
																<clipindex>4</clipindex>
																<groupindex>1</groupindex>
															</link>
															<labels>
																<label2>Forest</label2>
															</labels>
														</clipitem>
														<enabled>TRUE</enabled>
														<locked>FALSE</locked>
														<filter>
															<effect>
																<name>Audio Levels</name>
																<effectid>audiolevels</effectid>
																<effectcategory>audiolevels</effectcategory>
																<effecttype>audiolevels</effecttype>
																<mediatype>audio</mediatype>
																<parameter authoringApp="PremierePro">
																	<parameterid>level</parameterid>
																	<name>Level</name>
																	<valuemin>0</valuemin>
																	<valuemax>3.98109</valuemax>
																	<value>0.706272</value>
																</parameter>
															</effect>
														</filter>
														<outputchannelindex>1</outputchannelindex>
													</track>
													<track TL.SQTrackAudioKeyframeStyle="0" TL.SQTrackShy="0" TL.SQTrackExpandedHeight="25" TL.SQTrackExpanded="0" MZ.TrackTargeted="1" PannerCurrentValue="0.5" PannerIsInverted="true" PannerStartKeyframe="-91445760000000000,0.5,0,0,0,0,0,0" PannerName="Balance" currentExplodedTrackIndex="1" totalExplodedTrackCount="2" premiereTrackType="Stereo">
														<transitionitem>
															<start>0</start>
															<end>30</end>
															<pproTicksIn>0</pproTicksIn>
															<pproTicksOut>254270016000</pproTicksOut>
															<alignment>start-black</alignment>
															<cutPointTicks>0</cutPointTicks>
															<rate>
																<timebase>30</timebase>
																<ntsc>TRUE</ntsc>
															</rate>
															<effect>
																<name>Cross Fade (+3dB)</name>
																<effectid>KGAudioTransCrossFade3dB</effectid>
																<effecttype>transition</effecttype>
																<mediatype>audio</mediatype>
																<wipecode>0</wipecode>
																<wipeaccuracy>100</wipeaccuracy>
																<startratio>0</startratio>
																<endratio>1</endratio>
																<reverse>FALSE</reverse>
															</effect>
														</transitionitem>
														<clipitem id="clipitem-1028" premiereChannelType="stereo">
															<masterclipid>masterclip-14</masterclipid>
															<name>ES_ORANGE - SINY copy.mp3</name>
															<enabled>TRUE</enabled>
															<duration>4808</duration>
															<rate>
																<timebase>30</timebase>
																<ntsc>TRUE</ntsc>
															</rate>
															<start>-1</start>
															<end>-1</end>
															<in>333</in>
															<out>3327</out>
															<pproTicksIn>2822397177600</pproTicksIn>
															<pproTicksOut>28198544774400</pproTicksOut>
															<file id="file-14"/>
															<sourcetrack>
																<mediatype>audio</mediatype>
																<trackindex>2</trackindex>
															</sourcetrack>
															<link>
																<linkclipref>clipitem-1026</linkclipref>
																<mediatype>audio</mediatype>
																<trackindex>1</trackindex>
																<clipindex>2</clipindex>
																<groupindex>1</groupindex>
															</link>
															<link>
																<linkclipref>clipitem-1028</linkclipref>
																<mediatype>audio</mediatype>
																<trackindex>2</trackindex>
																<clipindex>2</clipindex>
																<groupindex>1</groupindex>
															</link>
															<logginginfo>
																<description></description>
																<scene></scene>
																<shottake></shottake>
																<lognote></lognote>
																<good></good>
																<originalvideofilename></originalvideofilename>
																<originalaudiofilename></originalaudiofilename>
															</logginginfo>
															<colorinfo>
																<lut></lut>
																<lut1></lut1>
																<asc_sop></asc_sop>
																<asc_sat></asc_sat>
																<lut2></lut2>
															</colorinfo>
															<labels>
																<label2>Forest</label2>
															</labels>
														</clipitem>
														<transitionitem>
															<start>2904</start>
															<end>2994</end>
															<pproTicksIn>24613337548800</pproTicksIn>
															<pproTicksOut>25376147596800</pproTicksOut>
															<alignment>end-black</alignment>
															<cutPointTicks>762810048000</cutPointTicks>
															<rate>
																<timebase>30</timebase>
																<ntsc>TRUE</ntsc>
															</rate>
															<effect>
																<name>Cross Fade (+3dB)</name>
																<effectid>KGAudioTransCrossFade3dB</effectid>
																<effecttype>transition</effecttype>
																<mediatype>audio</mediatype>
																<wipecode>0</wipecode>
																<wipeaccuracy>100</wipeaccuracy>
																<startratio>0</startratio>
																<endratio>1</endratio>
																<reverse>FALSE</reverse>
															</effect>
														</transitionitem>
														<clipitem id="clipitem-1029" premiereChannelType="stereo">
															<masterclipid>masterclip-213</masterclipid>
															<name>1259nest</name>
															<enabled>TRUE</enabled>
															<duration>2618</duration>
															<rate>
																<timebase>30</timebase>
																<ntsc>TRUE</ntsc>
															</rate>
															<start>3076</start>
															<end>5694</end>
															<in>0</in>
															<out>2618</out>
															<pproTicksIn>0</pproTicksIn>
															<pproTicksOut>22189296729600</pproTicksOut>
															<sequence id="sequence-27"/>
															<sourcetrack>
																<mediatype>audio</mediatype>
																<trackindex>1</trackindex>
															</sourcetrack>
															<link>
																<linkclipref>clipitem-1021</linkclipref>
																<mediatype>video</mediatype>
																<trackindex>1</trackindex>
																<clipindex>2</clipindex>
															</link>
															<link>
																<linkclipref>clipitem-1027</linkclipref>
																<mediatype>audio</mediatype>
																<trackindex>1</trackindex>
																<clipindex>4</clipindex>
																<groupindex>1</groupindex>
															</link>
															<link>
																<linkclipref>clipitem-1029</linkclipref>
																<mediatype>audio</mediatype>
																<trackindex>2</trackindex>
																<clipindex>4</clipindex>
																<groupindex>1</groupindex>
															</link>
															<labels>
																<label2>Forest</label2>
															</labels>
														</clipitem>
														<enabled>TRUE</enabled>
														<locked>FALSE</locked>
														<filter>
															<effect>
																<name>Audio Levels</name>
																<effectid>audiolevels</effectid>
																<effectcategory>audiolevels</effectcategory>
																<effecttype>audiolevels</effecttype>
																<mediatype>audio</mediatype>
																<parameter authoringApp="PremierePro">
																	<parameterid>level</parameterid>
																	<name>Level</name>
																	<valuemin>0</valuemin>
																	<valuemax>3.98109</valuemax>
																	<value>0.706272</value>
																</parameter>
															</effect>
														</filter>
														<outputchannelindex>2</outputchannelindex>
													</track>
													<track TL.SQTrackAudioKeyframeStyle="0" TL.SQTrackShy="0" TL.SQTrackExpandedHeight="25" TL.SQTrackExpanded="0" MZ.TrackTargeted="0" PannerCurrentValue="0.5" PannerIsInverted="true" PannerStartKeyframe="-91445760000000000,0.5,0,0,0,0,0,0" PannerName="Balance" currentExplodedTrackIndex="0" totalExplodedTrackCount="2" premiereTrackType="Stereo">
														<clipitem id="clipitem-1030" premiereChannelType="stereo">
															<masterclipid>masterclip-203</masterclipid>
															<name>OS Trans 03</name>
															<enabled>TRUE</enabled>
															<duration>2613</duration>
															<rate>
																<timebase>30</timebase>
																<ntsc>TRUE</ntsc>
															</rate>
															<start>2944</start>
															<end>3140</end>
															<in>0</in>
															<out>196</out>
															<pproTicksIn>0</pproTicksIn>
															<pproTicksOut>1661230771200</pproTicksOut>
															<sequence id="sequence-4"/>
															<sourcetrack>
																<mediatype>audio</mediatype>
																<trackindex>0</trackindex>
															</sourcetrack>
																<marker>
																	<comment></comment>
																	<name></name>
																	<in>50</in>
																	<out>-1</out>
																</marker>
																<marker>
																	<comment></comment>
																	<name></name>
																	<in>132</in>
																	<out>-1</out>
																</marker>
															<link>
																<linkclipref>clipitem-1025</linkclipref>
																<mediatype>video</mediatype>
																<trackindex>5</trackindex>
																<clipindex>1</clipindex>
															</link>
															<link>
																<linkclipref>clipitem-1030</linkclipref>
																<mediatype>audio</mediatype>
																<trackindex>3</trackindex>
																<clipindex>1</clipindex>
																<groupindex>1</groupindex>
															</link>
															<link>
																<linkclipref>clipitem-1031</linkclipref>
																<mediatype>audio</mediatype>
																<trackindex>4</trackindex>
																<clipindex>1</clipindex>
																<groupindex>1</groupindex>
															</link>
															<labels>
																<label2>Purple</label2>
															</labels>
														</clipitem>
														<enabled>TRUE</enabled>
														<locked>FALSE</locked>
														<filter>
															<effect>
																<name>Audio Levels</name>
																<effectid>audiolevels</effectid>
																<effectcategory>audiolevels</effectcategory>
																<effecttype>audiolevels</effecttype>
																<mediatype>audio</mediatype>
																<parameter authoringApp="PremierePro">
																	<parameterid>level</parameterid>
																	<name>Level</name>
																	<valuemin>0</valuemin>
																	<valuemax>3.98109</valuemax>
																	<value>0.706272</value>
																</parameter>
															</effect>
														</filter>
														<outputchannelindex>1</outputchannelindex>
													</track>
													<track TL.SQTrackAudioKeyframeStyle="0" TL.SQTrackShy="0" TL.SQTrackExpandedHeight="25" TL.SQTrackExpanded="0" MZ.TrackTargeted="0" PannerCurrentValue="0.5" PannerIsInverted="true" PannerStartKeyframe="-91445760000000000,0.5,0,0,0,0,0,0" PannerName="Balance" currentExplodedTrackIndex="1" totalExplodedTrackCount="2" premiereTrackType="Stereo">
														<clipitem id="clipitem-1031" premiereChannelType="stereo">
															<masterclipid>masterclip-203</masterclipid>
															<name>OS Trans 03</name>
															<enabled>TRUE</enabled>
															<duration>2613</duration>
															<rate>
																<timebase>30</timebase>
																<ntsc>TRUE</ntsc>
															</rate>
															<start>2944</start>
															<end>3140</end>
															<in>0</in>
															<out>196</out>
															<pproTicksIn>0</pproTicksIn>
															<pproTicksOut>1661230771200</pproTicksOut>
															<sequence id="sequence-4"/>
															<sourcetrack>
																<mediatype>audio</mediatype>
																<trackindex>1</trackindex>
															</sourcetrack>
																<marker>
																	<comment></comment>
																	<name></name>
																	<in>50</in>
																	<out>-1</out>
																</marker>
																<marker>
																	<comment></comment>
																	<name></name>
																	<in>132</in>
																	<out>-1</out>
																</marker>
															<link>
																<linkclipref>clipitem-1025</linkclipref>
																<mediatype>video</mediatype>
																<trackindex>5</trackindex>
																<clipindex>1</clipindex>
															</link>
															<link>
																<linkclipref>clipitem-1030</linkclipref>
																<mediatype>audio</mediatype>
																<trackindex>3</trackindex>
																<clipindex>1</clipindex>
																<groupindex>1</groupindex>
															</link>
															<link>
																<linkclipref>clipitem-1031</linkclipref>
																<mediatype>audio</mediatype>
																<trackindex>4</trackindex>
																<clipindex>1</clipindex>
																<groupindex>1</groupindex>
															</link>
															<labels>
																<label2>Purple</label2>
															</labels>
														</clipitem>
														<enabled>TRUE</enabled>
														<locked>FALSE</locked>
														<filter>
															<effect>
																<name>Audio Levels</name>
																<effectid>audiolevels</effectid>
																<effectcategory>audiolevels</effectcategory>
																<effecttype>audiolevels</effecttype>
																<mediatype>audio</mediatype>
																<parameter authoringApp="PremierePro">
																	<parameterid>level</parameterid>
																	<name>Level</name>
																	<valuemin>0</valuemin>
																	<valuemax>3.98109</valuemax>
																	<value>0.706272</value>
																</parameter>
															</effect>
														</filter>
														<outputchannelindex>2</outputchannelindex>
													</track>
													<track TL.SQTrackAudioKeyframeStyle="0" TL.SQTrackShy="0" TL.SQTrackExpandedHeight="25" TL.SQTrackExpanded="0" MZ.TrackTargeted="0" PannerCurrentValue="0.5" PannerIsInverted="true" PannerStartKeyframe="-91445760000000000,0.5,0,0,0,0,0,0" PannerName="Balance" currentExplodedTrackIndex="0" totalExplodedTrackCount="2" premiereTrackType="Stereo">
														<enabled>TRUE</enabled>
														<locked>FALSE</locked>
														<outputchannelindex>1</outputchannelindex>
													</track>
													<track TL.SQTrackAudioKeyframeStyle="0" TL.SQTrackShy="0" TL.SQTrackExpandedHeight="25" TL.SQTrackExpanded="0" MZ.TrackTargeted="0" PannerCurrentValue="0.5" PannerIsInverted="true" PannerStartKeyframe="-91445760000000000,0.5,0,0,0,0,0,0" PannerName="Balance" currentExplodedTrackIndex="1" totalExplodedTrackCount="2" premiereTrackType="Stereo">
														<enabled>TRUE</enabled>
														<locked>FALSE</locked>
														<outputchannelindex>2</outputchannelindex>
													</track>
												</audio>
											</media>
											<timecode>
												<rate>
													<timebase>30</timebase>
													<ntsc>TRUE</ntsc>
												</rate>
												<string>00:00:00:00</string>
												<frame>0</frame>
												<displayformat>NDF</displayformat>
											</timecode>
											<logginginfo>
												<description></description>
												<scene></scene>
												<shottake></shottake>
												<lognote></lognote>
												<good></good>
												<originalvideofilename></originalvideofilename>
												<originalaudiofilename></originalaudiofilename>
											</logginginfo>
										</sequence>
										<filter>
											<effect>
												<name>Basic Motion</name>
												<effectid>basic</effectid>
												<effectcategory>motion</effectcategory>
												<effecttype>motion</effecttype>
												<mediatype>video</mediatype>
												<pproBypass>false</pproBypass>
												<parameter authoringApp="PremierePro">
													<parameterid>scale</parameterid>
													<name>Scale</name>
													<valuemin>0</valuemin>
													<valuemax>1000</valuemax>
													<value>66.6667</value>
												</parameter>
												<parameter authoringApp="PremierePro">
													<parameterid>rotation</parameterid>
													<name>Rotation</name>
													<valuemin>-8640</valuemin>
													<valuemax>8640</valuemax>
													<value>0</value>
												</parameter>
												<parameter authoringApp="PremierePro">
													<parameterid>center</parameterid>
													<name>Center</name>
													<value>
														<horiz>-0.5</horiz>
														<vert>-0.5</vert>
													</value>
												</parameter>
												<parameter authoringApp="PremierePro">
													<parameterid>centerOffset</parameterid>
													<name>Anchor Point</name>
													<value>
														<horiz>0</horiz>
														<vert>0</vert>
													</value>
												</parameter>
												<parameter authoringApp="PremierePro">
													<parameterid>antiflicker</parameterid>
													<name>Anti-flicker Filter</name>
													<valuemin>0.0</valuemin>
													<valuemax>1.0</valuemax>
													<value>0</value>
												</parameter>
											</effect>
										</filter>
										<link>
											<linkclipref>clipitem-1019</linkclipref>
											<mediatype>video</mediatype>
											<trackindex>1</trackindex>
											<clipindex>7</clipindex>
										</link>
										<link>
											<linkclipref>clipitem-1126</linkclipref>
											<mediatype>audio</mediatype>
											<trackindex>1</trackindex>
											<clipindex>7</clipindex>
											<groupindex>1</groupindex>
										</link>
										<link>
											<linkclipref>clipitem-1140</linkclipref>
											<mediatype>audio</mediatype>
											<trackindex>2</trackindex>
											<clipindex>7</clipindex>
											<groupindex>1</groupindex>
										</link>
										<labels>
											<label2>Forest</label2>
										</labels>
									</clipitem>
									<clipitem id="clipitem-1032">
										<masterclipid>masterclip-215</masterclipid>
										<name>08</name>
										<enabled>TRUE</enabled>
										<duration>96212</duration>
										<rate>
											<timebase>30</timebase>
											<ntsc>TRUE</ntsc>
										</rate>
										<start>53695</start>
										<end>59192</end>
										<in>0</in>
										<out>5497</out>
										<pproTicksIn>0</pproTicksIn>
										<pproTicksOut>46590742598400</pproTicksOut>
										<sequence id="sequence-78" TL.SQAudioVisibleBase="0" TL.SQVideoVisibleBase="0" TL.SQVisibleBaseTime="0" TL.SQAVDividerPosition="0.5" TL.SQHideShyTracks="0" TL.SQHeaderWidth="236" TL.SQDataTrackViewControlState="0" Monitor.ProgramZoomOut="43581880742400" Monitor.ProgramZoomIn="0" TL.SQTimePerPixel="0.17934402706486235" AM.TrackVScrollPosition="0" AM.TrackScrollPosition="0" MZ.EditLine="16764869721600" MZ.Sequence.PreviewFrameSizeHeight="1080" MZ.Sequence.PreviewFrameSizeWidth="1920" MZ.Sequence.AudioTimeDisplayFormat="200" MZ.Sequence.PreviewRenderingClassID="1297106761" MZ.Sequence.PreviewRenderingPresetCodec="1297107278" MZ.Sequence.PreviewRenderingPresetPath="EncoderPresets/SequencePreview/795454d9-d3c2-429d-9474-923ab13b7018/I-Frame Only MPEG.epr" MZ.Sequence.PreviewUseMaxRenderQuality="false" MZ.Sequence.PreviewUseMaxBitDepth="false" MZ.Sequence.EditingModeGUID="795454d9-d3c2-429d-9474-923ab13b7018" MZ.Sequence.VideoTimeDisplayFormat="103" MZ.WorkOutPoint="15705411321600" MZ.WorkInPoint="0">
											<duration>5142</duration>
											<rate>
												<timebase>30</timebase>
												<ntsc>TRUE</ntsc>
											</rate>
											<name>ATM_ODDLY SATISFYING_1549</name>
											<media>
												<video>
													<format>
														<samplecharacteristics>
															<rate>
																<timebase>30</timebase>
																<ntsc>TRUE</ntsc>
															</rate>
															<codec>
																<name>Apple ProRes 422</name>
																<appspecificdata>
																	<appname>Final Cut Pro</appname>
																	<appmanufacturer>Apple Inc.</appmanufacturer>
																	<appversion>7.0</appversion>
																	<data>
																		<qtcodec>
																			<codecname>Apple ProRes 422</codecname>
																			<codectypename>Apple ProRes 422</codectypename>
																			<codectypecode>apcn</codectypecode>
																			<codecvendorcode>appl</codecvendorcode>
																			<spatialquality>1024</spatialquality>
																			<temporalquality>0</temporalquality>
																			<keyframerate>0</keyframerate>
																			<datarate>0</datarate>
																		</qtcodec>
																	</data>
																</appspecificdata>
															</codec>
															<width>1920</width>
															<height>1080</height>
															<anamorphic>FALSE</anamorphic>
															<pixelaspectratio>square</pixelaspectratio>
															<fielddominance>none</fielddominance>
															<colordepth>24</colordepth>
														</samplecharacteristics>
													</format>
													<track TL.SQTrackShy="0" TL.SQTrackExpandedHeight="25" TL.SQTrackExpanded="0" MZ.TrackTargeted="1">
														<clipitem id="clipitem-1033">
															<masterclipid>masterclip-216</masterclipid>
															<name>tynest</name>
															<enabled>TRUE</enabled>
															<duration>2590</duration>
															<rate>
																<timebase>30</timebase>
																<ntsc>TRUE</ntsc>
															</rate>
															<start>0</start>
															<end>2524</end>
															<in>0</in>
															<out>2524</out>
															<pproTicksIn>0</pproTicksIn>
															<pproTicksOut>20655200966400</pproTicksOut>
															<sequence id="sequence-31"/>
															<filter>
																<effect>
																	<name>Basic Motion</name>
																	<effectid>basic</effectid>
																	<effectcategory>motion</effectcategory>
																	<effecttype>motion</effecttype>
																	<mediatype>video</mediatype>
																	<pproBypass>false</pproBypass>
																	<parameter authoringApp="PremierePro">
																		<parameterid>scale</parameterid>
																		<name>Scale</name>
																		<valuemin>0</valuemin>
																		<valuemax>1000</valuemax>
																		<value>316</value>
																	</parameter>
																	<parameter authoringApp="PremierePro">
																		<parameterid>rotation</parameterid>
																		<name>Rotation</name>
																		<valuemin>-8640</valuemin>
																		<valuemax>8640</valuemax>
																		<value>0</value>
																	</parameter>
																	<parameter authoringApp="PremierePro">
																		<parameterid>center</parameterid>
																		<name>Center</name>
																		<value>
																			<horiz>-0.5</horiz>
																			<vert>-0.5</vert>
																		</value>
																	</parameter>
																	<parameter authoringApp="PremierePro">
																		<parameterid>centerOffset</parameterid>
																		<name>Anchor Point</name>
																		<value>
																			<horiz>0</horiz>
																			<vert>0</vert>
																		</value>
																	</parameter>
																	<parameter authoringApp="PremierePro">
																		<parameterid>antiflicker</parameterid>
																		<name>Anti-flicker Filter</name>
																		<valuemin>0.0</valuemin>
																		<valuemax>1.0</valuemax>
																		<value>0</value>
																	</parameter>
																</effect>
															</filter>
															<filter>
																<effect>
																	<name>Gaussian Blur</name>
																	<effectid>Gaussian Blur</effectid>
																	<effectcategory>Blur</effectcategory>
																	<effecttype>motion</effecttype>
																	<mediatype>video</mediatype>
																	<pproBypass>false</pproBypass>
																	<parameter authoringApp="PremierePro">
																		<parameterid>radius</parameterid>
																		<name>Radius</name>
																		<valuemin>0</valuemin>
																		<valuemax>100</valuemax>
																		<value>150</value>
																	</parameter>
																</effect>
															</filter>
															<filter>
																<effect>
																	<name>Time Remap</name>
																	<effectid>timeremap</effectid>
																	<effectcategory>motion</effectcategory>
																	<effecttype>motion</effecttype>
																	<mediatype>video</mediatype>
																	<parameter authoringApp="PremierePro">
																		<parameterid>variablespeed</parameterid>
																		<name>variablespeed</name>
																		<valuemin>0</valuemin>
																		<valuemax>1</valuemax>
																		<value>0</value>
																	</parameter>
																	<parameter authoringApp="PremierePro">
																		<parameterid>speed</parameterid>
																		<name>speed</name>
																		<valuemin>-100000</valuemin>
																		<valuemax>100000</valuemax>
																		<value>96.5531</value>
																	</parameter>
																	<parameter authoringApp="PremierePro">
																		<parameterid>reverse</parameterid>
																		<name>reverse</name>
																		<value>FALSE</value>
																	</parameter>
																	<parameter authoringApp="PremierePro">
																		<parameterid>frameblending</parameterid>
																		<name>frameblending</name>
																		<value>FALSE</value>
																	</parameter>
																	<parameter authoringApp="PremierePro">
																		<parameterid>graphdict</parameterid>
																		<name>graphdict</name>
																		<valuemin>0</valuemin>
																		<valuemax>2500</valuemax>
																		<value>0</value>
																		<keyframe>
																			<when>0</when>
																			<value>0</value>
																			<speedvirtualkf>TRUE</speedvirtualkf>
																			<speedkfin>TRUE</speedkfin>
																		</keyframe>
																		<keyframe>
																			<when>2524</when>
																			<value>2436</value>
																			<speedvirtualkf>TRUE</speedvirtualkf>
																			<speedkfout>TRUE</speedkfout>
																		</keyframe>
																		<keyframe>
																			<when>2590</when>
																			<value>2500</value>
																			<speedvirtualkf>TRUE</speedvirtualkf>
																			<speedkfend>TRUE</speedkfend>
																		</keyframe>
																		<interpolation>
																			<name>FCPCurve</name>
																		</interpolation>
																	</parameter>
																</effect>
															</filter>
															<labels>
																<label2>Forest</label2>
															</labels>
														</clipitem>
														<clipitem id="clipitem-1034">
															<masterclipid>masterclip-217</masterclipid>
															<name>1264nestnest</name>
															<enabled>TRUE</enabled>
															<duration>2454</duration>
															<rate>
																<timebase>30</timebase>
																<ntsc>TRUE</ntsc>
															</rate>
															<start>2688</start>
															<end>-1</end>
															<in>0</in>
															<out>2454</out>
															<pproTicksIn>0</pproTicksIn>
															<pproTicksOut>20799287308800</pproTicksOut>
															<sequence id="sequence-33"/>
															<link>
																<linkclipref>clipitem-1034</linkclipref>
																<mediatype>video</mediatype>
																<trackindex>1</trackindex>
																<clipindex>2</clipindex>
															</link>
															<link>
																<linkclipref>clipitem-1040</linkclipref>
																<mediatype>audio</mediatype>
																<trackindex>1</trackindex>
																<clipindex>4</clipindex>
																<groupindex>1</groupindex>
															</link>
															<link>
																<linkclipref>clipitem-1042</linkclipref>
																<mediatype>audio</mediatype>
																<trackindex>2</trackindex>
																<clipindex>4</clipindex>
																<groupindex>1</groupindex>
															</link>
															<labels>
																<label2>Forest</label2>
															</labels>
														</clipitem>
														<transitionitem>
															<start>5112</start>
															<end>5142</end>
															<alignment>end-black</alignment>
															<cutPointTicks>254270016000</cutPointTicks>
															<rate>
																<timebase>30</timebase>
																<ntsc>TRUE</ntsc>
															</rate>
															<effect>
																<name>Cross Dissolve</name>
																<effectid>Cross Dissolve</effectid>
																<effectcategory>Dissolve</effectcategory>
																<effecttype>transition</effecttype>
																<mediatype>video</mediatype>
																<wipecode>0</wipecode>
																<wipeaccuracy>100</wipeaccuracy>
																<startratio>0</startratio>
																<endratio>1</endratio>
																<reverse>FALSE</reverse>
															</effect>
														</transitionitem>
														<enabled>TRUE</enabled>
														<locked>FALSE</locked>
													</track>
													<track TL.SQTrackShy="0" TL.SQTrackExpandedHeight="25" TL.SQTrackExpanded="0" MZ.TrackTargeted="0">
														<clipitem id="clipitem-1035">
															<masterclipid>masterclip-216</masterclipid>
															<name>tynest</name>
															<enabled>TRUE</enabled>
															<duration>2590</duration>
															<rate>
																<timebase>30</timebase>
																<ntsc>TRUE</ntsc>
															</rate>
															<start>0</start>
															<end>2524</end>
															<in>0</in>
															<out>2524</out>
															<pproTicksIn>0</pproTicksIn>
															<pproTicksOut>20655200966400</pproTicksOut>
															<sequence id="sequence-31"/>
															<filter>
																<effect>
																	<name>Time Remap</name>
																	<effectid>timeremap</effectid>
																	<effectcategory>motion</effectcategory>
																	<effecttype>motion</effecttype>
																	<mediatype>video</mediatype>
																	<parameter authoringApp="PremierePro">
																		<parameterid>variablespeed</parameterid>
																		<name>variablespeed</name>
																		<valuemin>0</valuemin>
																		<valuemax>1</valuemax>
																		<value>0</value>
																	</parameter>
																	<parameter authoringApp="PremierePro">
																		<parameterid>speed</parameterid>
																		<name>speed</name>
																		<valuemin>-100000</valuemin>
																		<valuemax>100000</valuemax>
																		<value>96.5531</value>
																	</parameter>
																	<parameter authoringApp="PremierePro">
																		<parameterid>reverse</parameterid>
																		<name>reverse</name>
																		<value>FALSE</value>
																	</parameter>
																	<parameter authoringApp="PremierePro">
																		<parameterid>frameblending</parameterid>
																		<name>frameblending</name>
																		<value>FALSE</value>
																	</parameter>
																	<parameter authoringApp="PremierePro">
																		<parameterid>graphdict</parameterid>
																		<name>graphdict</name>
																		<valuemin>0</valuemin>
																		<valuemax>2500</valuemax>
																		<value>0</value>
																		<keyframe>
																			<when>0</when>
																			<value>0</value>
																			<speedvirtualkf>TRUE</speedvirtualkf>
																			<speedkfin>TRUE</speedkfin>
																		</keyframe>
																		<keyframe>
																			<when>2524</when>
																			<value>2436</value>
																			<speedvirtualkf>TRUE</speedvirtualkf>
																			<speedkfout>TRUE</speedkfout>
																		</keyframe>
																		<keyframe>
																			<when>2590</when>
																			<value>2500</value>
																			<speedvirtualkf>TRUE</speedvirtualkf>
																			<speedkfend>TRUE</speedkfend>
																		</keyframe>
																		<interpolation>
																			<name>FCPCurve</name>
																		</interpolation>
																	</parameter>
																</effect>
															</filter>
															<labels>
																<label2>Forest</label2>
															</labels>
														</clipitem>
														<enabled>TRUE</enabled>
														<locked>FALSE</locked>
													</track>
													<track TL.SQTrackShy="0" TL.SQTrackExpandedHeight="25" TL.SQTrackExpanded="0" MZ.TrackTargeted="0">
														<clipitem id="clipitem-1036">
															<masterclipid>masterclip-83</masterclipid>
															<name>YT Object YT confirmed</name>
															<enabled>TRUE</enabled>
															<duration>5844</duration>
															<rate>
																<timebase>30</timebase>
																<ntsc>TRUE</ntsc>
															</rate>
															<start>0</start>
															<end>2524</end>
															<in>0</in>
															<out>2524</out>
															<pproTicksIn>0</pproTicksIn>
															<pproTicksOut>21392584012800</pproTicksOut>
															<alphatype>straight</alphatype>
															<file id="file-83"/>
															<filter>
																<effect>
																	<name>Basic Motion</name>
																	<effectid>basic</effectid>
																	<effectcategory>motion</effectcategory>
																	<effecttype>motion</effecttype>
																	<mediatype>video</mediatype>
																	<pproBypass>false</pproBypass>
																	<parameter authoringApp="PremierePro">
																		<parameterid>scale</parameterid>
																		<name>Scale</name>
																		<valuemin>0</valuemin>
																		<valuemax>1000</valuemax>
																		<value>150</value>
																	</parameter>
																	<parameter authoringApp="PremierePro">
																		<parameterid>rotation</parameterid>
																		<name>Rotation</name>
																		<valuemin>-8640</valuemin>
																		<valuemax>8640</valuemax>
																		<value>0</value>
																	</parameter>
																	<parameter authoringApp="PremierePro">
																		<parameterid>center</parameterid>
																		<name>Center</name>
																		<value>
																			<horiz>0</horiz>
																			<vert>0</vert>
																		</value>
																	</parameter>
																	<parameter authoringApp="PremierePro">
																		<parameterid>centerOffset</parameterid>
																		<name>Anchor Point</name>
																		<value>
																			<horiz>0</horiz>
																			<vert>0</vert>
																		</value>
																	</parameter>
																	<parameter authoringApp="PremierePro">
																		<parameterid>antiflicker</parameterid>
																		<name>Anti-flicker Filter</name>
																		<valuemin>0.0</valuemin>
																		<valuemax>1.0</valuemax>
																		<value>0</value>
																	</parameter>
																</effect>
															</filter>
															<logginginfo>
																<description></description>
																<scene></scene>
																<shottake></shottake>
																<lognote></lognote>
																<good></good>
																<originalvideofilename></originalvideofilename>
																<originalaudiofilename></originalaudiofilename>
															</logginginfo>
															<colorinfo>
																<lut></lut>
																<lut1></lut1>
																<asc_sop></asc_sop>
																<asc_sat></asc_sat>
																<lut2></lut2>
															</colorinfo>
															<labels>
																<label2>Rose</label2>
															</labels>
														</clipitem>
														<enabled>TRUE</enabled>
														<locked>FALSE</locked>
													</track>
													<track TL.SQTrackShy="0" TL.SQTrackExpandedHeight="25" TL.SQTrackExpanded="0" MZ.TrackTargeted="0">
														<clipitem id="clipitem-1037">
															<masterclipid>masterclip-106</masterclipid>
															<name>Bug and Lower Nest</name>
															<enabled>TRUE</enabled>
															<duration>14721</duration>
															<rate>
																<timebase>30</timebase>
																<ntsc>TRUE</ntsc>
															</rate>
															<start>0</start>
															<end>2524</end>
															<in>0</in>
															<out>2524</out>
															<pproTicksIn>0</pproTicksIn>
															<pproTicksOut>21392584012800</pproTicksOut>
															<sequence id="sequence-1"/>
															<labels>
																<label2>Cerulean</label2>
															</labels>
														</clipitem>
														<enabled>TRUE</enabled>
														<locked>FALSE</locked>
													</track>
													<track TL.SQTrackShy="0" TL.SQTrackExpandedHeight="25" TL.SQTrackExpanded="0" MZ.TrackTargeted="0">
														<clipitem id="clipitem-1038">
															<masterclipid>masterclip-218</masterclipid>
															<name>00_Slime Transition</name>
															<enabled>TRUE</enabled>
															<duration>180</duration>
															<rate>
																<timebase>30</timebase>
																<ntsc>TRUE</ntsc>
															</rate>
															<start>2524</start>
															<end>2704</end>
															<in>0</in>
															<out>180</out>
															<pproTicksIn>0</pproTicksIn>
															<pproTicksOut>1525620096000</pproTicksOut>
															<sequence id="sequence-10"/>
																<marker>
																	<comment></comment>
																	<name></name>
																	<in>164</in>
																	<out>-1</out>
																</marker>
															<link>
																<linkclipref>clipitem-1038</linkclipref>
																<mediatype>video</mediatype>
																<trackindex>5</trackindex>
																<clipindex>1</clipindex>
															</link>
															<link>
																<linkclipref>clipitem-1043</linkclipref>
																<mediatype>audio</mediatype>
																<trackindex>3</trackindex>
																<clipindex>1</clipindex>
																<groupindex>1</groupindex>
															</link>
															<link>
																<linkclipref>clipitem-1044</linkclipref>
																<mediatype>audio</mediatype>
																<trackindex>4</trackindex>
																<clipindex>1</clipindex>
																<groupindex>1</groupindex>
															</link>
															<labels>
																<label2>Iris</label2>
															</labels>
														</clipitem>
														<enabled>TRUE</enabled>
														<locked>FALSE</locked>
													</track>
												</video>
												<audio>
													<numOutputChannels>2</numOutputChannels>
													<format>
														<samplecharacteristics>
															<depth>16</depth>
															<samplerate>44100</samplerate>
														</samplecharacteristics>
													</format>
													<outputs>
														<group>
															<index>1</index>
															<numchannels>1</numchannels>
															<downmix>0</downmix>
															<channel>
																<index>1</index>
															</channel>
														</group>
														<group>
															<index>2</index>
															<numchannels>1</numchannels>
															<downmix>0</downmix>
															<channel>
																<index>2</index>
															</channel>
														</group>
													</outputs>
													<track TL.SQTrackAudioKeyframeStyle="0" TL.SQTrackShy="0" TL.SQTrackExpandedHeight="25" TL.SQTrackExpanded="0" MZ.TrackTargeted="1" PannerCurrentValue="0.5" PannerIsInverted="true" PannerStartKeyframe="-91445760000000000,0.5,0,0,0,0,0,0" PannerName="Balance" currentExplodedTrackIndex="0" totalExplodedTrackCount="2" premiereTrackType="Stereo">
														<transitionitem>
															<start>0</start>
															<end>30</end>
															<pproTicksIn>0</pproTicksIn>
															<pproTicksOut>254270016000</pproTicksOut>
															<alignment>start-black</alignment>
															<cutPointTicks>0</cutPointTicks>
															<rate>
																<timebase>30</timebase>
																<ntsc>TRUE</ntsc>
															</rate>
															<effect>
																<name>Cross Fade (+3dB)</name>
																<effectid>KGAudioTransCrossFade3dB</effectid>
																<effecttype>transition</effecttype>
																<mediatype>audio</mediatype>
																<wipecode>0</wipecode>
																<wipeaccuracy>100</wipeaccuracy>
																<startratio>0</startratio>
																<endratio>1</endratio>
																<reverse>FALSE</reverse>
															</effect>
														</transitionitem>
														<clipitem id="clipitem-1039" premiereChannelType="stereo">
															<masterclipid>masterclip-17</masterclipid>
															<name>KOLA - Love Drug - Instrumental Version.mp3</name>
															<enabled>TRUE</enabled>
															<duration>6899</duration>
															<rate>
																<timebase>30</timebase>
																<ntsc>TRUE</ntsc>
															</rate>
															<start>-1</start>
															<end>-1</end>
															<in>688</in>
															<out>3212</out>
															<pproTicksIn>5831259033600</pproTicksIn>
															<pproTicksOut>27223843046400</pproTicksOut>
															<file id="file-17"/>
															<sourcetrack>
																<mediatype>audio</mediatype>
																<trackindex>1</trackindex>
															</sourcetrack>
															<link>
																<linkclipref>clipitem-1039</linkclipref>
																<mediatype>audio</mediatype>
																<trackindex>1</trackindex>
																<clipindex>2</clipindex>
																<groupindex>1</groupindex>
															</link>
															<link>
																<linkclipref>clipitem-1041</linkclipref>
																<mediatype>audio</mediatype>
																<trackindex>2</trackindex>
																<clipindex>2</clipindex>
																<groupindex>1</groupindex>
															</link>
															<logginginfo>
																<description></description>
																<scene></scene>
																<shottake></shottake>
																<lognote></lognote>
																<good></good>
																<originalvideofilename></originalvideofilename>
																<originalaudiofilename></originalaudiofilename>
															</logginginfo>
															<colorinfo>
																<lut></lut>
																<lut1></lut1>
																<asc_sop></asc_sop>
																<asc_sat></asc_sat>
																<lut2></lut2>
															</colorinfo>
															<labels>
																<label2>Caribbean</label2>
															</labels>
														</clipitem>
														<transitionitem>
															<start>2434</start>
															<end>2524</end>
															<pproTicksIn>20629773964800</pproTicksIn>
															<pproTicksOut>21392584012800</pproTicksOut>
															<alignment>end-black</alignment>
															<cutPointTicks>762810048000</cutPointTicks>
															<rate>
																<timebase>30</timebase>
																<ntsc>TRUE</ntsc>
															</rate>
															<effect>
																<name>Cross Fade (+3dB)</name>
																<effectid>KGAudioTransCrossFade3dB</effectid>
																<effecttype>transition</effecttype>
																<mediatype>audio</mediatype>
																<wipecode>0</wipecode>
																<wipeaccuracy>100</wipeaccuracy>
																<startratio>0</startratio>
																<endratio>1</endratio>
																<reverse>FALSE</reverse>
															</effect>
														</transitionitem>
														<clipitem id="clipitem-1040" premiereChannelType="stereo">
															<masterclipid>masterclip-217</masterclipid>
															<name>1264nestnest</name>
															<enabled>TRUE</enabled>
															<duration>2454</duration>
															<rate>
																<timebase>30</timebase>
																<ntsc>TRUE</ntsc>
															</rate>
															<start>2688</start>
															<end>5142</end>
															<in>0</in>
															<out>2454</out>
															<pproTicksIn>0</pproTicksIn>
															<pproTicksOut>20799287308800</pproTicksOut>
															<sequence id="sequence-33"/>
															<sourcetrack>
																<mediatype>audio</mediatype>
																<trackindex>0</trackindex>
															</sourcetrack>
															<link>
																<linkclipref>clipitem-1034</linkclipref>
																<mediatype>video</mediatype>
																<trackindex>1</trackindex>
																<clipindex>2</clipindex>
															</link>
															<link>
																<linkclipref>clipitem-1040</linkclipref>
																<mediatype>audio</mediatype>
																<trackindex>1</trackindex>
																<clipindex>4</clipindex>
																<groupindex>1</groupindex>
															</link>
															<link>
																<linkclipref>clipitem-1042</linkclipref>
																<mediatype>audio</mediatype>
																<trackindex>2</trackindex>
																<clipindex>4</clipindex>
																<groupindex>1</groupindex>
															</link>
															<labels>
																<label2>Forest</label2>
															</labels>
														</clipitem>
														<enabled>TRUE</enabled>
														<locked>FALSE</locked>
														<filter>
															<effect>
																<name>Audio Levels</name>
																<effectid>audiolevels</effectid>
																<effectcategory>audiolevels</effectcategory>
																<effecttype>audiolevels</effecttype>
																<mediatype>audio</mediatype>
																<parameter authoringApp="PremierePro">
																	<parameterid>level</parameterid>
																	<name>Level</name>
																	<valuemin>0</valuemin>
																	<valuemax>3.98109</valuemax>
																	<value>0.706272</value>
																</parameter>
															</effect>
														</filter>
														<outputchannelindex>1</outputchannelindex>
													</track>
													<track TL.SQTrackAudioKeyframeStyle="0" TL.SQTrackShy="0" TL.SQTrackExpandedHeight="25" TL.SQTrackExpanded="0" MZ.TrackTargeted="1" PannerCurrentValue="0.5" PannerIsInverted="true" PannerStartKeyframe="-91445760000000000,0.5,0,0,0,0,0,0" PannerName="Balance" currentExplodedTrackIndex="1" totalExplodedTrackCount="2" premiereTrackType="Stereo">
														<transitionitem>
															<start>0</start>
															<end>30</end>
															<pproTicksIn>0</pproTicksIn>
															<pproTicksOut>254270016000</pproTicksOut>
															<alignment>start-black</alignment>
															<cutPointTicks>0</cutPointTicks>
															<rate>
																<timebase>30</timebase>
																<ntsc>TRUE</ntsc>
															</rate>
															<effect>
																<name>Cross Fade (+3dB)</name>
																<effectid>KGAudioTransCrossFade3dB</effectid>
																<effecttype>transition</effecttype>
																<mediatype>audio</mediatype>
																<wipecode>0</wipecode>
																<wipeaccuracy>100</wipeaccuracy>
																<startratio>0</startratio>
																<endratio>1</endratio>
																<reverse>FALSE</reverse>
															</effect>
														</transitionitem>
														<clipitem id="clipitem-1041" premiereChannelType="stereo">
															<masterclipid>masterclip-17</masterclipid>
															<name>KOLA - Love Drug - Instrumental Version.mp3</name>
															<enabled>TRUE</enabled>
															<duration>6899</duration>
															<rate>
																<timebase>30</timebase>
																<ntsc>TRUE</ntsc>
															</rate>
															<start>-1</start>
															<end>-1</end>
															<in>688</in>
															<out>3212</out>
															<pproTicksIn>5831259033600</pproTicksIn>
															<pproTicksOut>27223843046400</pproTicksOut>
															<file id="file-17"/>
															<sourcetrack>
																<mediatype>audio</mediatype>
																<trackindex>2</trackindex>
															</sourcetrack>
															<link>
																<linkclipref>clipitem-1039</linkclipref>
																<mediatype>audio</mediatype>
																<trackindex>1</trackindex>
																<clipindex>2</clipindex>
																<groupindex>1</groupindex>
															</link>
															<link>
																<linkclipref>clipitem-1041</linkclipref>
																<mediatype>audio</mediatype>
																<trackindex>2</trackindex>
																<clipindex>2</clipindex>
																<groupindex>1</groupindex>
															</link>
															<logginginfo>
																<description></description>
																<scene></scene>
																<shottake></shottake>
																<lognote></lognote>
																<good></good>
																<originalvideofilename></originalvideofilename>
																<originalaudiofilename></originalaudiofilename>
															</logginginfo>
															<colorinfo>
																<lut></lut>
																<lut1></lut1>
																<asc_sop></asc_sop>
																<asc_sat></asc_sat>
																<lut2></lut2>
															</colorinfo>
															<labels>
																<label2>Caribbean</label2>
															</labels>
														</clipitem>
														<transitionitem>
															<start>2434</start>
															<end>2524</end>
															<pproTicksIn>20629773964800</pproTicksIn>
															<pproTicksOut>21392584012800</pproTicksOut>
															<alignment>end-black</alignment>
															<cutPointTicks>762810048000</cutPointTicks>
															<rate>
																<timebase>30</timebase>
																<ntsc>TRUE</ntsc>
															</rate>
															<effect>
																<name>Cross Fade (+3dB)</name>
																<effectid>KGAudioTransCrossFade3dB</effectid>
																<effecttype>transition</effecttype>
																<mediatype>audio</mediatype>
																<wipecode>0</wipecode>
																<wipeaccuracy>100</wipeaccuracy>
																<startratio>0</startratio>
																<endratio>1</endratio>
																<reverse>FALSE</reverse>
															</effect>
														</transitionitem>
														<clipitem id="clipitem-1042" premiereChannelType="stereo">
															<masterclipid>masterclip-217</masterclipid>
															<name>1264nestnest</name>
															<enabled>TRUE</enabled>
															<duration>2454</duration>
															<rate>
																<timebase>30</timebase>
																<ntsc>TRUE</ntsc>
															</rate>
															<start>2688</start>
															<end>5142</end>
															<in>0</in>
															<out>2454</out>
															<pproTicksIn>0</pproTicksIn>
															<pproTicksOut>20799287308800</pproTicksOut>
															<sequence id="sequence-33"/>
															<sourcetrack>
																<mediatype>audio</mediatype>
																<trackindex>1</trackindex>
															</sourcetrack>
															<link>
																<linkclipref>clipitem-1034</linkclipref>
																<mediatype>video</mediatype>
																<trackindex>1</trackindex>
																<clipindex>2</clipindex>
															</link>
															<link>
																<linkclipref>clipitem-1040</linkclipref>
																<mediatype>audio</mediatype>
																<trackindex>1</trackindex>
																<clipindex>4</clipindex>
																<groupindex>1</groupindex>
															</link>
															<link>
																<linkclipref>clipitem-1042</linkclipref>
																<mediatype>audio</mediatype>
																<trackindex>2</trackindex>
																<clipindex>4</clipindex>
																<groupindex>1</groupindex>
															</link>
															<labels>
																<label2>Forest</label2>
															</labels>
														</clipitem>
														<enabled>TRUE</enabled>
														<locked>FALSE</locked>
														<filter>
															<effect>
																<name>Audio Levels</name>
																<effectid>audiolevels</effectid>
																<effectcategory>audiolevels</effectcategory>
																<effecttype>audiolevels</effecttype>
																<mediatype>audio</mediatype>
																<parameter authoringApp="PremierePro">
																	<parameterid>level</parameterid>
																	<name>Level</name>
																	<valuemin>0</valuemin>
																	<valuemax>3.98109</valuemax>
																	<value>0.706272</value>
																</parameter>
															</effect>
														</filter>
														<outputchannelindex>2</outputchannelindex>
													</track>
													<track TL.SQTrackAudioKeyframeStyle="0" TL.SQTrackShy="0" TL.SQTrackExpandedHeight="25" TL.SQTrackExpanded="0" MZ.TrackTargeted="0" PannerCurrentValue="0.5" PannerIsInverted="true" PannerStartKeyframe="-91445760000000000,0.5,0,0,0,0,0,0" PannerName="Balance" currentExplodedTrackIndex="0" totalExplodedTrackCount="2" premiereTrackType="Stereo">
														<clipitem id="clipitem-1043" premiereChannelType="stereo">
															<masterclipid>masterclip-218</masterclipid>
															<name>00_Slime Transition</name>
															<enabled>TRUE</enabled>
															<duration>180</duration>
															<rate>
																<timebase>30</timebase>
																<ntsc>TRUE</ntsc>
															</rate>
															<start>2524</start>
															<end>2704</end>
															<in>0</in>
															<out>180</out>
															<pproTicksIn>0</pproTicksIn>
															<pproTicksOut>1525620096000</pproTicksOut>
															<sequence id="sequence-10"/>
															<sourcetrack>
																<mediatype>audio</mediatype>
																<trackindex>0</trackindex>
															</sourcetrack>
																<marker>
																	<comment></comment>
																	<name></name>
																	<in>164</in>
																	<out>-1</out>
																</marker>
															<link>
																<linkclipref>clipitem-1038</linkclipref>
																<mediatype>video</mediatype>
																<trackindex>5</trackindex>
																<clipindex>1</clipindex>
															</link>
															<link>
																<linkclipref>clipitem-1043</linkclipref>
																<mediatype>audio</mediatype>
																<trackindex>3</trackindex>
																<clipindex>1</clipindex>
																<groupindex>1</groupindex>
															</link>
															<link>
																<linkclipref>clipitem-1044</linkclipref>
																<mediatype>audio</mediatype>
																<trackindex>4</trackindex>
																<clipindex>1</clipindex>
																<groupindex>1</groupindex>
															</link>
															<labels>
																<label2>Iris</label2>
															</labels>
														</clipitem>
														<enabled>TRUE</enabled>
														<locked>FALSE</locked>
														<filter>
															<effect>
																<name>Audio Levels</name>
																<effectid>audiolevels</effectid>
																<effectcategory>audiolevels</effectcategory>
																<effecttype>audiolevels</effecttype>
																<mediatype>audio</mediatype>
																<parameter authoringApp="PremierePro">
																	<parameterid>level</parameterid>
																	<name>Level</name>
																	<valuemin>0</valuemin>
																	<valuemax>3.98109</valuemax>
																	<value>0.706272</value>
																</parameter>
															</effect>
														</filter>
														<outputchannelindex>1</outputchannelindex>
													</track>
													<track TL.SQTrackAudioKeyframeStyle="0" TL.SQTrackShy="0" TL.SQTrackExpandedHeight="25" TL.SQTrackExpanded="0" MZ.TrackTargeted="0" PannerCurrentValue="0.5" PannerIsInverted="true" PannerStartKeyframe="-91445760000000000,0.5,0,0,0,0,0,0" PannerName="Balance" currentExplodedTrackIndex="1" totalExplodedTrackCount="2" premiereTrackType="Stereo">
														<clipitem id="clipitem-1044" premiereChannelType="stereo">
															<masterclipid>masterclip-218</masterclipid>
															<name>00_Slime Transition</name>
															<enabled>TRUE</enabled>
															<duration>180</duration>
															<rate>
																<timebase>30</timebase>
																<ntsc>TRUE</ntsc>
															</rate>
															<start>2524</start>
															<end>2704</end>
															<in>0</in>
															<out>180</out>
															<pproTicksIn>0</pproTicksIn>
															<pproTicksOut>1525620096000</pproTicksOut>
															<sequence id="sequence-10"/>
															<sourcetrack>
																<mediatype>audio</mediatype>
																<trackindex>1</trackindex>
															</sourcetrack>
																<marker>
																	<comment></comment>
																	<name></name>
																	<in>164</in>
																	<out>-1</out>
																</marker>
															<link>
																<linkclipref>clipitem-1038</linkclipref>
																<mediatype>video</mediatype>
																<trackindex>5</trackindex>
																<clipindex>1</clipindex>
															</link>
															<link>
																<linkclipref>clipitem-1043</linkclipref>
																<mediatype>audio</mediatype>
																<trackindex>3</trackindex>
																<clipindex>1</clipindex>
																<groupindex>1</groupindex>
															</link>
															<link>
																<linkclipref>clipitem-1044</linkclipref>
																<mediatype>audio</mediatype>
																<trackindex>4</trackindex>
																<clipindex>1</clipindex>
																<groupindex>1</groupindex>
															</link>
															<labels>
																<label2>Iris</label2>
															</labels>
														</clipitem>
														<enabled>TRUE</enabled>
														<locked>FALSE</locked>
														<filter>
															<effect>
																<name>Audio Levels</name>
																<effectid>audiolevels</effectid>
																<effectcategory>audiolevels</effectcategory>
																<effecttype>audiolevels</effecttype>
																<mediatype>audio</mediatype>
																<parameter authoringApp="PremierePro">
																	<parameterid>level</parameterid>
																	<name>Level</name>
																	<valuemin>0</valuemin>
																	<valuemax>3.98109</valuemax>
																	<value>0.706272</value>
																</parameter>
															</effect>
														</filter>
														<outputchannelindex>2</outputchannelindex>
													</track>
													<track TL.SQTrackAudioKeyframeStyle="0" TL.SQTrackShy="0" TL.SQTrackExpandedHeight="25" TL.SQTrackExpanded="0" MZ.TrackTargeted="0" PannerCurrentValue="0.5" PannerIsInverted="true" PannerStartKeyframe="-91445760000000000,0.5,0,0,0,0,0,0" PannerName="Balance" currentExplodedTrackIndex="0" totalExplodedTrackCount="2" premiereTrackType="Stereo">
														<enabled>TRUE</enabled>
														<locked>FALSE</locked>
														<outputchannelindex>1</outputchannelindex>
													</track>
													<track TL.SQTrackAudioKeyframeStyle="0" TL.SQTrackShy="0" TL.SQTrackExpandedHeight="25" TL.SQTrackExpanded="0" MZ.TrackTargeted="0" PannerCurrentValue="0.5" PannerIsInverted="true" PannerStartKeyframe="-91445760000000000,0.5,0,0,0,0,0,0" PannerName="Balance" currentExplodedTrackIndex="1" totalExplodedTrackCount="2" premiereTrackType="Stereo">
														<enabled>TRUE</enabled>
														<locked>FALSE</locked>
														<outputchannelindex>2</outputchannelindex>
													</track>
												</audio>
											</media>
											<timecode>
												<rate>
													<timebase>30</timebase>
													<ntsc>TRUE</ntsc>
												</rate>
												<string>00:00:00:00</string>
												<frame>0</frame>
												<displayformat>NDF</displayformat>
											</timecode>
											<logginginfo>
												<description></description>
												<scene></scene>
												<shottake></shottake>
												<lognote></lognote>
												<good></good>
												<originalvideofilename></originalvideofilename>
												<originalaudiofilename></originalaudiofilename>
											</logginginfo>
										</sequence>
										<filter>
											<effect>
												<name>Basic Motion</name>
												<effectid>basic</effectid>
												<effectcategory>motion</effectcategory>
												<effecttype>motion</effecttype>
												<mediatype>video</mediatype>
												<pproBypass>false</pproBypass>
												<parameter authoringApp="PremierePro">
													<parameterid>scale</parameterid>
													<name>Scale</name>
													<valuemin>0</valuemin>
													<valuemax>1000</valuemax>
													<value>66.6667</value>
												</parameter>
												<parameter authoringApp="PremierePro">
													<parameterid>rotation</parameterid>
													<name>Rotation</name>
													<valuemin>-8640</valuemin>
													<valuemax>8640</valuemax>
													<value>0</value>
												</parameter>
												<parameter authoringApp="PremierePro">
													<parameterid>center</parameterid>
													<name>Center</name>
													<value>
														<horiz>-0.5</horiz>
														<vert>-0.5</vert>
													</value>
												</parameter>
												<parameter authoringApp="PremierePro">
													<parameterid>centerOffset</parameterid>
													<name>Anchor Point</name>
													<value>
														<horiz>0</horiz>
														<vert>0</vert>
													</value>
												</parameter>
												<parameter authoringApp="PremierePro">
													<parameterid>antiflicker</parameterid>
													<name>Anti-flicker Filter</name>
													<valuemin>0.0</valuemin>
													<valuemax>1.0</valuemax>
													<value>0</value>
												</parameter>
											</effect>
										</filter>
										<link>
											<linkclipref>clipitem-1032</linkclipref>
											<mediatype>video</mediatype>
											<trackindex>1</trackindex>
											<clipindex>8</clipindex>
										</link>
										<link>
											<linkclipref>clipitem-1127</linkclipref>
											<mediatype>audio</mediatype>
											<trackindex>1</trackindex>
											<clipindex>8</clipindex>
											<groupindex>1</groupindex>
										</link>
										<link>
											<linkclipref>clipitem-1141</linkclipref>
											<mediatype>audio</mediatype>
											<trackindex>2</trackindex>
											<clipindex>8</clipindex>
											<groupindex>1</groupindex>
										</link>
										<labels>
											<label2>Forest</label2>
										</labels>
									</clipitem>
									<clipitem id="clipitem-1045">
										<masterclipid>masterclip-219</masterclipid>
										<name>04</name>
										<enabled>TRUE</enabled>
										<duration>96212</duration>
										<rate>
											<timebase>30</timebase>
											<ntsc>TRUE</ntsc>
										</rate>
										<start>61910</start>
										<end>67372</end>
										<in>0</in>
										<out>5462</out>
										<pproTicksIn>0</pproTicksIn>
										<pproTicksOut>46294094246400</pproTicksOut>
										<sequence id="sequence-79" TL.SQAudioVisibleBase="0" TL.SQVideoVisibleBase="0" TL.SQVisibleBaseTime="0" TL.SQAVDividerPosition="0.5" TL.SQHideShyTracks="0" TL.SQHeaderWidth="236" TL.SQDataTrackViewControlState="0" Monitor.ProgramZoomOut="47090806963200" Monitor.ProgramZoomIn="0" TL.SQTimePerPixel="0.13818516812528489" AM.TrackVScrollPosition="0" AM.TrackScrollPosition="0" MZ.EditLine="19968671923200" MZ.Sequence.PreviewFrameSizeHeight="1080" MZ.Sequence.PreviewFrameSizeWidth="1920" MZ.Sequence.AudioTimeDisplayFormat="200" MZ.Sequence.PreviewRenderingClassID="1297106761" MZ.Sequence.PreviewRenderingPresetCodec="1297107278" MZ.Sequence.PreviewRenderingPresetPath="EncoderPresets/SequencePreview/795454d9-d3c2-429d-9474-923ab13b7018/I-Frame Only MPEG.epr" MZ.Sequence.PreviewUseMaxRenderQuality="false" MZ.Sequence.PreviewUseMaxBitDepth="false" MZ.Sequence.EditingModeGUID="795454d9-d3c2-429d-9474-923ab13b7018" MZ.Sequence.VideoTimeDisplayFormat="103" MZ.WorkOutPoint="15705411321600" MZ.WorkInPoint="0">
											<duration>5556</duration>
											<rate>
												<timebase>30</timebase>
												<ntsc>TRUE</ntsc>
											</rate>
											<name>ATM_ODDLY SATISFYING_1550</name>
											<media>
												<video>
													<format>
														<samplecharacteristics>
															<rate>
																<timebase>30</timebase>
																<ntsc>TRUE</ntsc>
															</rate>
															<codec>
																<name>Apple ProRes 422</name>
																<appspecificdata>
																	<appname>Final Cut Pro</appname>
																	<appmanufacturer>Apple Inc.</appmanufacturer>
																	<appversion>7.0</appversion>
																	<data>
																		<qtcodec>
																			<codecname>Apple ProRes 422</codecname>
																			<codectypename>Apple ProRes 422</codectypename>
																			<codectypecode>apcn</codectypecode>
																			<codecvendorcode>appl</codecvendorcode>
																			<spatialquality>1024</spatialquality>
																			<temporalquality>0</temporalquality>
																			<keyframerate>0</keyframerate>
																			<datarate>0</datarate>
																		</qtcodec>
																	</data>
																</appspecificdata>
															</codec>
															<width>1920</width>
															<height>1080</height>
															<anamorphic>FALSE</anamorphic>
															<pixelaspectratio>square</pixelaspectratio>
															<fielddominance>none</fielddominance>
															<colordepth>24</colordepth>
														</samplecharacteristics>
													</format>
													<track TL.SQTrackShy="0" TL.SQTrackExpandedHeight="25" TL.SQTrackExpanded="0" MZ.TrackTargeted="1">
														<clipitem id="clipitem-1046">
															<masterclipid>masterclip-220</masterclipid>
															<name>4trackingnest07</name>
															<enabled>TRUE</enabled>
															<duration>2505</duration>
															<rate>
																<timebase>30</timebase>
																<ntsc>TRUE</ntsc>
															</rate>
															<start>0</start>
															<end>2505</end>
															<in>0</in>
															<out>2505</out>
															<pproTicksIn>0</pproTicksIn>
															<pproTicksOut>21231546336000</pproTicksOut>
															<sequence id="sequence-19"/>
															<labels>
																<label2>Forest</label2>
															</labels>
														</clipitem>
														<clipitem id="clipitem-1047">
															<masterclipid>masterclip-221</masterclipid>
															<name>4trackingnest08</name>
															<enabled>TRUE</enabled>
															<duration>2725</duration>
															<rate>
																<timebase>30</timebase>
																<ntsc>TRUE</ntsc>
															</rate>
															<start>2532</start>
															<end>5257</end>
															<in>0</in>
															<out>2725</out>
															<pproTicksIn>0</pproTicksIn>
															<pproTicksOut>23096193120000</pproTicksOut>
															<sequence id="sequence-20"/>
															<labels>
																<label2>Forest</label2>
															</labels>
														</clipitem>
														<clipitem id="clipitem-1048">
															<masterclipid>masterclip-222</masterclipid>
															<name>02_TFWnest</name>
															<enabled>TRUE</enabled>
															<duration>299</duration>
															<rate>
																<timebase>30</timebase>
																<ntsc>TRUE</ntsc>
															</rate>
															<start>5257</start>
															<end>5556</end>
															<in>0</in>
															<out>299</out>
															<pproTicksIn>0</pproTicksIn>
															<pproTicksOut>2534224492800</pproTicksOut>
															<sequence id="sequence-3"/>
															<link>
																<linkclipref>clipitem-1048</linkclipref>
																<mediatype>video</mediatype>
																<trackindex>1</trackindex>
																<clipindex>3</clipindex>
															</link>
															<link>
																<linkclipref>clipitem-1054</linkclipref>
																<mediatype>audio</mediatype>
																<trackindex>1</trackindex>
																<clipindex>7</clipindex>
																<groupindex>1</groupindex>
															</link>
															<link>
																<linkclipref>clipitem-1057</linkclipref>
																<mediatype>audio</mediatype>
																<trackindex>2</trackindex>
																<clipindex>7</clipindex>
																<groupindex>1</groupindex>
															</link>
															<labels>
																<label2>Yellow</label2>
															</labels>
														</clipitem>
														<enabled>TRUE</enabled>
														<locked>FALSE</locked>
													</track>
													<track TL.SQTrackShy="0" TL.SQTrackExpandedHeight="25" TL.SQTrackExpanded="0" MZ.TrackTargeted="0">
														<clipitem id="clipitem-1049">
															<masterclipid>masterclip-106</masterclipid>
															<name>Bug and Lower Nest</name>
															<enabled>TRUE</enabled>
															<duration>14721</duration>
															<rate>
																<timebase>30</timebase>
																<ntsc>TRUE</ntsc>
															</rate>
															<start>0</start>
															<end>2505</end>
															<in>0</in>
															<out>2505</out>
															<pproTicksIn>0</pproTicksIn>
															<pproTicksOut>21231546336000</pproTicksOut>
															<sequence id="sequence-1"/>
															<labels>
																<label2>Cerulean</label2>
															</labels>
														</clipitem>
														<clipitem id="clipitem-1050">
															<masterclipid>masterclip-106</masterclipid>
															<name>Bug and Lower Nest</name>
															<enabled>TRUE</enabled>
															<duration>14721</duration>
															<rate>
																<timebase>30</timebase>
																<ntsc>TRUE</ntsc>
															</rate>
															<start>2532</start>
															<end>5257</end>
															<in>0</in>
															<out>2725</out>
															<pproTicksIn>0</pproTicksIn>
															<pproTicksOut>23096193120000</pproTicksOut>
															<sequence id="sequence-1"/>
															<labels>
																<label2>Cerulean</label2>
															</labels>
														</clipitem>
														<enabled>TRUE</enabled>
														<locked>FALSE</locked>
													</track>
													<track TL.SQTrackShy="0" TL.SQTrackExpandedHeight="25" TL.SQTrackExpanded="0" MZ.TrackTargeted="0">
														<clipitem id="clipitem-1051">
															<masterclipid>masterclip-199</masterclipid>
															<name>00_Quick Grid Transition</name>
															<enabled>TRUE</enabled>
															<duration>299</duration>
															<rate>
																<timebase>30</timebase>
																<ntsc>TRUE</ntsc>
															</rate>
															<start>2481</start>
															<end>2572</end>
															<in>0</in>
															<out>91</out>
															<pproTicksIn>0</pproTicksIn>
															<pproTicksOut>771285715200</pproTicksOut>
															<sequence id="sequence-8"/>
																<marker>
																	<comment></comment>
																	<name></name>
																	<in>51</in>
																	<out>-1</out>
																</marker>
																<marker>
																	<comment></comment>
																	<name></name>
																	<in>24</in>
																	<out>-1</out>
																</marker>
															<link>
																<linkclipref>clipitem-1051</linkclipref>
																<mediatype>video</mediatype>
																<trackindex>3</trackindex>
																<clipindex>1</clipindex>
															</link>
															<link>
																<linkclipref>clipitem-1058</linkclipref>
																<mediatype>audio</mediatype>
																<trackindex>3</trackindex>
																<clipindex>1</clipindex>
																<groupindex>1</groupindex>
															</link>
															<link>
																<linkclipref>clipitem-1059</linkclipref>
																<mediatype>audio</mediatype>
																<trackindex>4</trackindex>
																<clipindex>1</clipindex>
																<groupindex>1</groupindex>
															</link>
															<labels>
																<label2>Lavender</label2>
															</labels>
														</clipitem>
														<enabled>TRUE</enabled>
														<locked>FALSE</locked>
													</track>
													<track TL.SQTrackShy="0" TL.SQTrackExpandedHeight="25" TL.SQTrackExpanded="0" MZ.TrackTargeted="0">
														<enabled>TRUE</enabled>
														<locked>FALSE</locked>
													</track>
												</video>
												<audio>
													<numOutputChannels>2</numOutputChannels>
													<format>
														<samplecharacteristics>
															<depth>16</depth>
															<samplerate>44100</samplerate>
														</samplecharacteristics>
													</format>
													<outputs>
														<group>
															<index>1</index>
															<numchannels>1</numchannels>
															<downmix>0</downmix>
															<channel>
																<index>1</index>
															</channel>
														</group>
														<group>
															<index>2</index>
															<numchannels>1</numchannels>
															<downmix>0</downmix>
															<channel>
																<index>2</index>
															</channel>
														</group>
													</outputs>
													<track TL.SQTrackAudioKeyframeStyle="0" TL.SQTrackShy="0" TL.SQTrackExpandedHeight="25" TL.SQTrackExpanded="0" MZ.TrackTargeted="1" PannerCurrentValue="0.5" PannerIsInverted="true" PannerStartKeyframe="-91445760000000000,0.5,0,0,0,0,0,0" PannerName="Balance" currentExplodedTrackIndex="0" totalExplodedTrackCount="2" premiereTrackType="Stereo">
														<transitionitem>
															<start>0</start>
															<end>30</end>
															<pproTicksIn>0</pproTicksIn>
															<pproTicksOut>254270016000</pproTicksOut>
															<alignment>start-black</alignment>
															<cutPointTicks>0</cutPointTicks>
															<rate>
																<timebase>30</timebase>
																<ntsc>TRUE</ntsc>
															</rate>
															<effect>
																<name>Cross Fade (+3dB)</name>
																<effectid>KGAudioTransCrossFade3dB</effectid>
																<effecttype>transition</effecttype>
																<mediatype>audio</mediatype>
																<wipecode>0</wipecode>
																<wipeaccuracy>100</wipeaccuracy>
																<startratio>0</startratio>
																<endratio>1</endratio>
																<reverse>FALSE</reverse>
															</effect>
														</transitionitem>
														<clipitem id="clipitem-1052" premiereChannelType="stereo">
															<masterclipid>masterclip-6</masterclipid>
															<name>mellow-trip by nbdy-nprtnt Artlist.mp3</name>
															<enabled>TRUE</enabled>
															<duration>5604</duration>
															<rate>
																<timebase>30</timebase>
																<ntsc>TRUE</ntsc>
															</rate>
															<start>-1</start>
															<end>-1</end>
															<in>703</in>
															<out>3208</out>
															<pproTicksIn>5958394041600</pproTicksIn>
															<pproTicksOut>27189940377600</pproTicksOut>
															<file id="file-6"/>
															<sourcetrack>
																<mediatype>audio</mediatype>
																<trackindex>1</trackindex>
															</sourcetrack>
															<link>
																<linkclipref>clipitem-1052</linkclipref>
																<mediatype>audio</mediatype>
																<trackindex>1</trackindex>
																<clipindex>2</clipindex>
																<groupindex>1</groupindex>
															</link>
															<link>
																<linkclipref>clipitem-1055</linkclipref>
																<mediatype>audio</mediatype>
																<trackindex>2</trackindex>
																<clipindex>2</clipindex>
																<groupindex>1</groupindex>
															</link>
															<logginginfo>
																<description></description>
																<scene></scene>
																<shottake></shottake>
																<lognote>All Rights Reserved to www.Art-list.io</lognote>
																<good></good>
																<originalvideofilename></originalvideofilename>
																<originalaudiofilename></originalaudiofilename>
															</logginginfo>
															<colorinfo>
																<lut></lut>
																<lut1></lut1>
																<asc_sop></asc_sop>
																<asc_sat></asc_sat>
																<lut2></lut2>
															</colorinfo>
															<labels>
																<label2>Cerulean</label2>
															</labels>
														</clipitem>
														<transitionitem>
															<start>2415</start>
															<end>2505</end>
															<pproTicksIn>20468736288000</pproTicksIn>
															<pproTicksOut>21231546336000</pproTicksOut>
															<alignment>end-black</alignment>
															<cutPointTicks>762810048000</cutPointTicks>
															<rate>
																<timebase>30</timebase>
																<ntsc>TRUE</ntsc>
															</rate>
															<effect>
																<name>Cross Fade (+3dB)</name>
																<effectid>KGAudioTransCrossFade3dB</effectid>
																<effecttype>transition</effecttype>
																<mediatype>audio</mediatype>
																<wipecode>0</wipecode>
																<wipeaccuracy>100</wipeaccuracy>
																<startratio>0</startratio>
																<endratio>1</endratio>
																<reverse>FALSE</reverse>
															</effect>
														</transitionitem>
														<transitionitem>
															<start>2532</start>
															<end>2562</end>
															<pproTicksIn>21460389350400</pproTicksIn>
															<pproTicksOut>21714659366400</pproTicksOut>
															<alignment>start-black</alignment>
															<cutPointTicks>0</cutPointTicks>
															<rate>
																<timebase>30</timebase>
																<ntsc>TRUE</ntsc>
															</rate>
															<effect>
																<name>Cross Fade (+3dB)</name>
																<effectid>KGAudioTransCrossFade3dB</effectid>
																<effecttype>transition</effecttype>
																<mediatype>audio</mediatype>
																<wipecode>0</wipecode>
																<wipeaccuracy>100</wipeaccuracy>
																<startratio>0</startratio>
																<endratio>1</endratio>
																<reverse>FALSE</reverse>
															</effect>
														</transitionitem>
														<clipitem id="clipitem-1053" premiereChannelType="stereo">
															<masterclipid>masterclip-7</masterclipid>
															<name>ES_Anne Arbour - baegel.mp3</name>
															<enabled>TRUE</enabled>
															<duration>3802</duration>
															<rate>
																<timebase>30</timebase>
																<ntsc>TRUE</ntsc>
															</rate>
															<start>-1</start>
															<end>-1</end>
															<in>925</in>
															<out>3650</out>
															<pproTicksIn>7839992160000</pproTicksIn>
															<pproTicksOut>30936185280000</pproTicksOut>
															<file id="file-7"/>
															<sourcetrack>
																<mediatype>audio</mediatype>
																<trackindex>1</trackindex>
															</sourcetrack>
															<link>
																<linkclipref>clipitem-1053</linkclipref>
																<mediatype>audio</mediatype>
																<trackindex>1</trackindex>
																<clipindex>5</clipindex>
																<groupindex>1</groupindex>
															</link>
															<link>
																<linkclipref>clipitem-1056</linkclipref>
																<mediatype>audio</mediatype>
																<trackindex>2</trackindex>
																<clipindex>5</clipindex>
																<groupindex>1</groupindex>
															</link>
															<logginginfo>
																<description></description>
																<scene></scene>
																<shottake></shottake>
																<lognote></lognote>
																<good></good>
																<originalvideofilename></originalvideofilename>
																<originalaudiofilename></originalaudiofilename>
															</logginginfo>
															<colorinfo>
																<lut></lut>
																<lut1></lut1>
																<asc_sop></asc_sop>
																<asc_sat></asc_sat>
																<lut2></lut2>
															</colorinfo>
															<labels>
																<label2>Caribbean</label2>
															</labels>
														</clipitem>
														<transitionitem>
															<start>5167</start>
															<end>5257</end>
															<pproTicksIn>43793772422400</pproTicksIn>
															<pproTicksOut>44556582470400</pproTicksOut>
															<alignment>end-black</alignment>
															<cutPointTicks>762810048000</cutPointTicks>
															<rate>
																<timebase>30</timebase>
																<ntsc>TRUE</ntsc>
															</rate>
															<effect>
																<name>Cross Fade (+3dB)</name>
																<effectid>KGAudioTransCrossFade3dB</effectid>
																<effecttype>transition</effecttype>
																<mediatype>audio</mediatype>
																<wipecode>0</wipecode>
																<wipeaccuracy>100</wipeaccuracy>
																<startratio>0</startratio>
																<endratio>1</endratio>
																<reverse>FALSE</reverse>
															</effect>
														</transitionitem>
														<clipitem id="clipitem-1054" premiereChannelType="stereo">
															<masterclipid>masterclip-222</masterclipid>
															<name>02_TFWnest</name>
															<enabled>TRUE</enabled>
															<duration>299</duration>
															<rate>
																<timebase>30</timebase>
																<ntsc>TRUE</ntsc>
															</rate>
															<start>5257</start>
															<end>5556</end>
															<in>0</in>
															<out>299</out>
															<pproTicksIn>0</pproTicksIn>
															<pproTicksOut>2534224492800</pproTicksOut>
															<sequence id="sequence-3"/>
															<sourcetrack>
																<mediatype>audio</mediatype>
																<trackindex>0</trackindex>
															</sourcetrack>
															<filter>
																<effect>
																	<name>Gain</name>
																	<effectid>{61756678, 4761696e, 4b657947}</effectid>
																	<effecttype>filter</effecttype>
																	<mediatype>audio</mediatype>
																	<parameter authoringApp="PremierePro">
																		<parameterid>Gain(dB)</parameterid>
																		<name>Gain(dB)</name>
																		<valuemin>-96</valuemin>
																		<valuemax>96</valuemax>
																		<value>9</value>
																	</parameter>
																</effect>
															</filter>
															<link>
																<linkclipref>clipitem-1048</linkclipref>
																<mediatype>video</mediatype>
																<trackindex>1</trackindex>
																<clipindex>3</clipindex>
															</link>
															<link>
																<linkclipref>clipitem-1054</linkclipref>
																<mediatype>audio</mediatype>
																<trackindex>1</trackindex>
																<clipindex>7</clipindex>
																<groupindex>1</groupindex>
															</link>
															<link>
																<linkclipref>clipitem-1057</linkclipref>
																<mediatype>audio</mediatype>
																<trackindex>2</trackindex>
																<clipindex>7</clipindex>
																<groupindex>1</groupindex>
															</link>
															<labels>
																<label2>Yellow</label2>
															</labels>
														</clipitem>
														<enabled>TRUE</enabled>
														<locked>FALSE</locked>
														<filter>
															<effect>
																<name>Audio Levels</name>
																<effectid>audiolevels</effectid>
																<effectcategory>audiolevels</effectcategory>
																<effecttype>audiolevels</effecttype>
																<mediatype>audio</mediatype>
																<parameter authoringApp="PremierePro">
																	<parameterid>level</parameterid>
																	<name>Level</name>
																	<valuemin>0</valuemin>
																	<valuemax>3.98109</valuemax>
																	<value>0.706272</value>
																</parameter>
															</effect>
														</filter>
														<outputchannelindex>1</outputchannelindex>
													</track>
													<track TL.SQTrackAudioKeyframeStyle="0" TL.SQTrackShy="0" TL.SQTrackExpandedHeight="25" TL.SQTrackExpanded="0" MZ.TrackTargeted="1" PannerCurrentValue="0.5" PannerIsInverted="true" PannerStartKeyframe="-91445760000000000,0.5,0,0,0,0,0,0" PannerName="Balance" currentExplodedTrackIndex="1" totalExplodedTrackCount="2" premiereTrackType="Stereo">
														<transitionitem>
															<start>0</start>
															<end>30</end>
															<pproTicksIn>0</pproTicksIn>
															<pproTicksOut>254270016000</pproTicksOut>
															<alignment>start-black</alignment>
															<cutPointTicks>0</cutPointTicks>
															<rate>
																<timebase>30</timebase>
																<ntsc>TRUE</ntsc>
															</rate>
															<effect>
																<name>Cross Fade (+3dB)</name>
																<effectid>KGAudioTransCrossFade3dB</effectid>
																<effecttype>transition</effecttype>
																<mediatype>audio</mediatype>
																<wipecode>0</wipecode>
																<wipeaccuracy>100</wipeaccuracy>
																<startratio>0</startratio>
																<endratio>1</endratio>
																<reverse>FALSE</reverse>
															</effect>
														</transitionitem>
														<clipitem id="clipitem-1055" premiereChannelType="stereo">
															<masterclipid>masterclip-6</masterclipid>
															<name>mellow-trip by nbdy-nprtnt Artlist.mp3</name>
															<enabled>TRUE</enabled>
															<duration>5604</duration>
															<rate>
																<timebase>30</timebase>
																<ntsc>TRUE</ntsc>
															</rate>
															<start>-1</start>
															<end>-1</end>
															<in>703</in>
															<out>3208</out>
															<pproTicksIn>5958394041600</pproTicksIn>
															<pproTicksOut>27189940377600</pproTicksOut>
															<file id="file-6"/>
															<sourcetrack>
																<mediatype>audio</mediatype>
																<trackindex>2</trackindex>
															</sourcetrack>
															<link>
																<linkclipref>clipitem-1052</linkclipref>
																<mediatype>audio</mediatype>
																<trackindex>1</trackindex>
																<clipindex>2</clipindex>
																<groupindex>1</groupindex>
															</link>
															<link>
																<linkclipref>clipitem-1055</linkclipref>
																<mediatype>audio</mediatype>
																<trackindex>2</trackindex>
																<clipindex>2</clipindex>
																<groupindex>1</groupindex>
															</link>
															<logginginfo>
																<description></description>
																<scene></scene>
																<shottake></shottake>
																<lognote>All Rights Reserved to www.Art-list.io</lognote>
																<good></good>
																<originalvideofilename></originalvideofilename>
																<originalaudiofilename></originalaudiofilename>
															</logginginfo>
															<colorinfo>
																<lut></lut>
																<lut1></lut1>
																<asc_sop></asc_sop>
																<asc_sat></asc_sat>
																<lut2></lut2>
															</colorinfo>
															<labels>
																<label2>Cerulean</label2>
															</labels>
														</clipitem>
														<transitionitem>
															<start>2415</start>
															<end>2505</end>
															<pproTicksIn>20468736288000</pproTicksIn>
															<pproTicksOut>21231546336000</pproTicksOut>
															<alignment>end-black</alignment>
															<cutPointTicks>762810048000</cutPointTicks>
															<rate>
																<timebase>30</timebase>
																<ntsc>TRUE</ntsc>
															</rate>
															<effect>
																<name>Cross Fade (+3dB)</name>
																<effectid>KGAudioTransCrossFade3dB</effectid>
																<effecttype>transition</effecttype>
																<mediatype>audio</mediatype>
																<wipecode>0</wipecode>
																<wipeaccuracy>100</wipeaccuracy>
																<startratio>0</startratio>
																<endratio>1</endratio>
																<reverse>FALSE</reverse>
															</effect>
														</transitionitem>
														<transitionitem>
															<start>2532</start>
															<end>2562</end>
															<pproTicksIn>21460389350400</pproTicksIn>
															<pproTicksOut>21714659366400</pproTicksOut>
															<alignment>start-black</alignment>
															<cutPointTicks>0</cutPointTicks>
															<rate>
																<timebase>30</timebase>
																<ntsc>TRUE</ntsc>
															</rate>
															<effect>
																<name>Cross Fade (+3dB)</name>
																<effectid>KGAudioTransCrossFade3dB</effectid>
																<effecttype>transition</effecttype>
																<mediatype>audio</mediatype>
																<wipecode>0</wipecode>
																<wipeaccuracy>100</wipeaccuracy>
																<startratio>0</startratio>
																<endratio>1</endratio>
																<reverse>FALSE</reverse>
															</effect>
														</transitionitem>
														<clipitem id="clipitem-1056" premiereChannelType="stereo">
															<masterclipid>masterclip-7</masterclipid>
															<name>ES_Anne Arbour - baegel.mp3</name>
															<enabled>TRUE</enabled>
															<duration>3802</duration>
															<rate>
																<timebase>30</timebase>
																<ntsc>TRUE</ntsc>
															</rate>
															<start>-1</start>
															<end>-1</end>
															<in>925</in>
															<out>3650</out>
															<pproTicksIn>7839992160000</pproTicksIn>
															<pproTicksOut>30936185280000</pproTicksOut>
															<file id="file-7"/>
															<sourcetrack>
																<mediatype>audio</mediatype>
																<trackindex>2</trackindex>
															</sourcetrack>
															<link>
																<linkclipref>clipitem-1053</linkclipref>
																<mediatype>audio</mediatype>
																<trackindex>1</trackindex>
																<clipindex>5</clipindex>
																<groupindex>1</groupindex>
															</link>
															<link>
																<linkclipref>clipitem-1056</linkclipref>
																<mediatype>audio</mediatype>
																<trackindex>2</trackindex>
																<clipindex>5</clipindex>
																<groupindex>1</groupindex>
															</link>
															<logginginfo>
																<description></description>
																<scene></scene>
																<shottake></shottake>
																<lognote></lognote>
																<good></good>
																<originalvideofilename></originalvideofilename>
																<originalaudiofilename></originalaudiofilename>
															</logginginfo>
															<colorinfo>
																<lut></lut>
																<lut1></lut1>
																<asc_sop></asc_sop>
																<asc_sat></asc_sat>
																<lut2></lut2>
															</colorinfo>
															<labels>
																<label2>Caribbean</label2>
															</labels>
														</clipitem>
														<transitionitem>
															<start>5167</start>
															<end>5257</end>
															<pproTicksIn>43793772422400</pproTicksIn>
															<pproTicksOut>44556582470400</pproTicksOut>
															<alignment>end-black</alignment>
															<cutPointTicks>762810048000</cutPointTicks>
															<rate>
																<timebase>30</timebase>
																<ntsc>TRUE</ntsc>
															</rate>
															<effect>
																<name>Cross Fade (+3dB)</name>
																<effectid>KGAudioTransCrossFade3dB</effectid>
																<effecttype>transition</effecttype>
																<mediatype>audio</mediatype>
																<wipecode>0</wipecode>
																<wipeaccuracy>100</wipeaccuracy>
																<startratio>0</startratio>
																<endratio>1</endratio>
																<reverse>FALSE</reverse>
															</effect>
														</transitionitem>
														<clipitem id="clipitem-1057" premiereChannelType="stereo">
															<masterclipid>masterclip-222</masterclipid>
															<name>02_TFWnest</name>
															<enabled>TRUE</enabled>
															<duration>299</duration>
															<rate>
																<timebase>30</timebase>
																<ntsc>TRUE</ntsc>
															</rate>
															<start>5257</start>
															<end>5556</end>
															<in>0</in>
															<out>299</out>
															<pproTicksIn>0</pproTicksIn>
															<pproTicksOut>2534224492800</pproTicksOut>
															<sequence id="sequence-3"/>
															<sourcetrack>
																<mediatype>audio</mediatype>
																<trackindex>1</trackindex>
															</sourcetrack>
															<filter>
																<effect>
																	<name>Gain</name>
																	<effectid>{61756678, 4761696e, 4b657947}</effectid>
																	<effecttype>filter</effecttype>
																	<mediatype>audio</mediatype>
																	<parameter authoringApp="PremierePro">
																		<parameterid>Gain(dB)</parameterid>
																		<name>Gain(dB)</name>
																		<valuemin>-96</valuemin>
																		<valuemax>96</valuemax>
																		<value>9</value>
																	</parameter>
																</effect>
															</filter>
															<link>
																<linkclipref>clipitem-1048</linkclipref>
																<mediatype>video</mediatype>
																<trackindex>1</trackindex>
																<clipindex>3</clipindex>
															</link>
															<link>
																<linkclipref>clipitem-1054</linkclipref>
																<mediatype>audio</mediatype>
																<trackindex>1</trackindex>
																<clipindex>7</clipindex>
																<groupindex>1</groupindex>
															</link>
															<link>
																<linkclipref>clipitem-1057</linkclipref>
																<mediatype>audio</mediatype>
																<trackindex>2</trackindex>
																<clipindex>7</clipindex>
																<groupindex>1</groupindex>
															</link>
															<labels>
																<label2>Yellow</label2>
															</labels>
														</clipitem>
														<enabled>TRUE</enabled>
														<locked>FALSE</locked>
														<filter>
															<effect>
																<name>Audio Levels</name>
																<effectid>audiolevels</effectid>
																<effectcategory>audiolevels</effectcategory>
																<effecttype>audiolevels</effecttype>
																<mediatype>audio</mediatype>
																<parameter authoringApp="PremierePro">
																	<parameterid>level</parameterid>
																	<name>Level</name>
																	<valuemin>0</valuemin>
																	<valuemax>3.98109</valuemax>
																	<value>0.706272</value>
																</parameter>
															</effect>
														</filter>
														<outputchannelindex>2</outputchannelindex>
													</track>
													<track TL.SQTrackAudioKeyframeStyle="0" TL.SQTrackShy="0" TL.SQTrackExpandedHeight="25" TL.SQTrackExpanded="0" MZ.TrackTargeted="0" PannerCurrentValue="0.5" PannerIsInverted="true" PannerStartKeyframe="-91445760000000000,0.5,0,0,0,0,0,0" PannerName="Balance" currentExplodedTrackIndex="0" totalExplodedTrackCount="2" premiereTrackType="Stereo">
														<clipitem id="clipitem-1058" premiereChannelType="stereo">
															<masterclipid>masterclip-199</masterclipid>
															<name>00_Quick Grid Transition</name>
															<enabled>TRUE</enabled>
															<duration>299</duration>
															<rate>
																<timebase>30</timebase>
																<ntsc>TRUE</ntsc>
															</rate>
															<start>2481</start>
															<end>2572</end>
															<in>0</in>
															<out>91</out>
															<pproTicksIn>0</pproTicksIn>
															<pproTicksOut>771285715200</pproTicksOut>
															<sequence id="sequence-8"/>
															<sourcetrack>
																<mediatype>audio</mediatype>
																<trackindex>0</trackindex>
															</sourcetrack>
																<marker>
																	<comment></comment>
																	<name></name>
																	<in>51</in>
																	<out>-1</out>
																</marker>
																<marker>
																	<comment></comment>
																	<name></name>
																	<in>24</in>
																	<out>-1</out>
																</marker>
															<link>
																<linkclipref>clipitem-1051</linkclipref>
																<mediatype>video</mediatype>
																<trackindex>3</trackindex>
																<clipindex>1</clipindex>
															</link>
															<link>
																<linkclipref>clipitem-1058</linkclipref>
																<mediatype>audio</mediatype>
																<trackindex>3</trackindex>
																<clipindex>1</clipindex>
																<groupindex>1</groupindex>
															</link>
															<link>
																<linkclipref>clipitem-1059</linkclipref>
																<mediatype>audio</mediatype>
																<trackindex>4</trackindex>
																<clipindex>1</clipindex>
																<groupindex>1</groupindex>
															</link>
															<labels>
																<label2>Lavender</label2>
															</labels>
														</clipitem>
														<enabled>TRUE</enabled>
														<locked>FALSE</locked>
														<filter>
															<effect>
																<name>Audio Levels</name>
																<effectid>audiolevels</effectid>
																<effectcategory>audiolevels</effectcategory>
																<effecttype>audiolevels</effecttype>
																<mediatype>audio</mediatype>
																<parameter authoringApp="PremierePro">
																	<parameterid>level</parameterid>
																	<name>Level</name>
																	<valuemin>0</valuemin>
																	<valuemax>3.98109</valuemax>
																	<value>0.706272</value>
																</parameter>
															</effect>
														</filter>
														<outputchannelindex>1</outputchannelindex>
													</track>
													<track TL.SQTrackAudioKeyframeStyle="0" TL.SQTrackShy="0" TL.SQTrackExpandedHeight="25" TL.SQTrackExpanded="0" MZ.TrackTargeted="0" PannerCurrentValue="0.5" PannerIsInverted="true" PannerStartKeyframe="-91445760000000000,0.5,0,0,0,0,0,0" PannerName="Balance" currentExplodedTrackIndex="1" totalExplodedTrackCount="2" premiereTrackType="Stereo">
														<clipitem id="clipitem-1059" premiereChannelType="stereo">
															<masterclipid>masterclip-199</masterclipid>
															<name>00_Quick Grid Transition</name>
															<enabled>TRUE</enabled>
															<duration>299</duration>
															<rate>
																<timebase>30</timebase>
																<ntsc>TRUE</ntsc>
															</rate>
															<start>2481</start>
															<end>2572</end>
															<in>0</in>
															<out>91</out>
															<pproTicksIn>0</pproTicksIn>
															<pproTicksOut>771285715200</pproTicksOut>
															<sequence id="sequence-8"/>
															<sourcetrack>
																<mediatype>audio</mediatype>
																<trackindex>1</trackindex>
															</sourcetrack>
																<marker>
																	<comment></comment>
																	<name></name>
																	<in>51</in>
																	<out>-1</out>
																</marker>
																<marker>
																	<comment></comment>
																	<name></name>
																	<in>24</in>
																	<out>-1</out>
																</marker>
															<link>
																<linkclipref>clipitem-1051</linkclipref>
																<mediatype>video</mediatype>
																<trackindex>3</trackindex>
																<clipindex>1</clipindex>
															</link>
															<link>
																<linkclipref>clipitem-1058</linkclipref>
																<mediatype>audio</mediatype>
																<trackindex>3</trackindex>
																<clipindex>1</clipindex>
																<groupindex>1</groupindex>
															</link>
															<link>
																<linkclipref>clipitem-1059</linkclipref>
																<mediatype>audio</mediatype>
																<trackindex>4</trackindex>
																<clipindex>1</clipindex>
																<groupindex>1</groupindex>
															</link>
															<labels>
																<label2>Lavender</label2>
															</labels>
														</clipitem>
														<enabled>TRUE</enabled>
														<locked>FALSE</locked>
														<filter>
															<effect>
																<name>Audio Levels</name>
																<effectid>audiolevels</effectid>
																<effectcategory>audiolevels</effectcategory>
																<effecttype>audiolevels</effecttype>
																<mediatype>audio</mediatype>
																<parameter authoringApp="PremierePro">
																	<parameterid>level</parameterid>
																	<name>Level</name>
																	<valuemin>0</valuemin>
																	<valuemax>3.98109</valuemax>
																	<value>0.706272</value>
																</parameter>
															</effect>
														</filter>
														<outputchannelindex>2</outputchannelindex>
													</track>
													<track TL.SQTrackAudioKeyframeStyle="0" TL.SQTrackShy="0" TL.SQTrackExpandedHeight="25" TL.SQTrackExpanded="0" MZ.TrackTargeted="0" PannerCurrentValue="0.5" PannerIsInverted="true" PannerStartKeyframe="-91445760000000000,0.5,0,0,0,0,0,0" PannerName="Balance" currentExplodedTrackIndex="0" totalExplodedTrackCount="2" premiereTrackType="Stereo">
														<enabled>TRUE</enabled>
														<locked>FALSE</locked>
														<outputchannelindex>1</outputchannelindex>
													</track>
													<track TL.SQTrackAudioKeyframeStyle="0" TL.SQTrackShy="0" TL.SQTrackExpandedHeight="25" TL.SQTrackExpanded="0" MZ.TrackTargeted="0" PannerCurrentValue="0.5" PannerIsInverted="true" PannerStartKeyframe="-91445760000000000,0.5,0,0,0,0,0,0" PannerName="Balance" currentExplodedTrackIndex="1" totalExplodedTrackCount="2" premiereTrackType="Stereo">
														<enabled>TRUE</enabled>
														<locked>FALSE</locked>
														<outputchannelindex>2</outputchannelindex>
													</track>
												</audio>
											</media>
											<timecode>
												<rate>
													<timebase>30</timebase>
													<ntsc>TRUE</ntsc>
												</rate>
												<string>00:00:00:00</string>
												<frame>0</frame>
												<displayformat>NDF</displayformat>
											</timecode>
											<logginginfo>
												<description></description>
												<scene></scene>
												<shottake></shottake>
												<lognote></lognote>
												<good></good>
												<originalvideofilename></originalvideofilename>
												<originalaudiofilename></originalaudiofilename>
											</logginginfo>
										</sequence>
										<filter>
											<effect>
												<name>Basic Motion</name>
												<effectid>basic</effectid>
												<effectcategory>motion</effectcategory>
												<effecttype>motion</effecttype>
												<mediatype>video</mediatype>
												<pproBypass>false</pproBypass>
												<parameter authoringApp="PremierePro">
													<parameterid>scale</parameterid>
													<name>Scale</name>
													<valuemin>0</valuemin>
													<valuemax>1000</valuemax>
													<value>66.6667</value>
												</parameter>
												<parameter authoringApp="PremierePro">
													<parameterid>rotation</parameterid>
													<name>Rotation</name>
													<valuemin>-8640</valuemin>
													<valuemax>8640</valuemax>
													<value>0</value>
												</parameter>
												<parameter authoringApp="PremierePro">
													<parameterid>center</parameterid>
													<name>Center</name>
													<value>
														<horiz>-0.5</horiz>
														<vert>-0.5</vert>
													</value>
												</parameter>
												<parameter authoringApp="PremierePro">
													<parameterid>centerOffset</parameterid>
													<name>Anchor Point</name>
													<value>
														<horiz>0</horiz>
														<vert>0</vert>
													</value>
												</parameter>
												<parameter authoringApp="PremierePro">
													<parameterid>antiflicker</parameterid>
													<name>Anti-flicker Filter</name>
													<valuemin>0.0</valuemin>
													<valuemax>1.0</valuemax>
													<value>0</value>
												</parameter>
											</effect>
										</filter>
										<link>
											<linkclipref>clipitem-1045</linkclipref>
											<mediatype>video</mediatype>
											<trackindex>1</trackindex>
											<clipindex>9</clipindex>
										</link>
										<link>
											<linkclipref>clipitem-1128</linkclipref>
											<mediatype>audio</mediatype>
											<trackindex>1</trackindex>
											<clipindex>9</clipindex>
											<groupindex>1</groupindex>
										</link>
										<link>
											<linkclipref>clipitem-1142</linkclipref>
											<mediatype>audio</mediatype>
											<trackindex>2</trackindex>
											<clipindex>9</clipindex>
											<groupindex>1</groupindex>
										</link>
										<labels>
											<label2>Forest</label2>
										</labels>
									</clipitem>
									<clipitem id="clipitem-1060">
										<masterclipid>masterclip-223</masterclipid>
										<name>02</name>
										<enabled>TRUE</enabled>
										<duration>96212</duration>
										<rate>
											<timebase>30</timebase>
											<ntsc>TRUE</ntsc>
										</rate>
										<start>69275</start>
										<end>74638</end>
										<in>0</in>
										<out>5363</out>
										<pproTicksIn>0</pproTicksIn>
										<pproTicksOut>45455003193600</pproTicksOut>
										<sequence id="sequence-80" TL.SQAudioVisibleBase="0" TL.SQVideoVisibleBase="0" TL.SQVisibleBaseTime="0" TL.SQAVDividerPosition="0.5" TL.SQHideShyTracks="0" TL.SQHeaderWidth="236" TL.SQDataTrackViewControlState="0" Monitor.ProgramZoomOut="46251715910400" Monitor.ProgramZoomIn="0" TL.SQTimePerPixel="0.13818516812528264" AM.TrackVScrollPosition="0" AM.TrackScrollPosition="0" MZ.EditLine="17163226080000" MZ.Sequence.PreviewFrameSizeHeight="1080" MZ.Sequence.PreviewFrameSizeWidth="1920" MZ.Sequence.AudioTimeDisplayFormat="200" MZ.Sequence.PreviewRenderingClassID="1297106761" MZ.Sequence.PreviewRenderingPresetCodec="1297107278" MZ.Sequence.PreviewRenderingPresetPath="EncoderPresets/SequencePreview/795454d9-d3c2-429d-9474-923ab13b7018/I-Frame Only MPEG.epr" MZ.Sequence.PreviewUseMaxRenderQuality="false" MZ.Sequence.PreviewUseMaxBitDepth="false" MZ.Sequence.EditingModeGUID="795454d9-d3c2-429d-9474-923ab13b7018" MZ.Sequence.VideoTimeDisplayFormat="103" MZ.WorkOutPoint="15705411321600" MZ.WorkInPoint="0">
											<duration>5457</duration>
											<rate>
												<timebase>30</timebase>
												<ntsc>TRUE</ntsc>
											</rate>
											<name>ATM_ODDLY SATISFYING_1551</name>
											<media>
												<video>
													<format>
														<samplecharacteristics>
															<rate>
																<timebase>30</timebase>
																<ntsc>TRUE</ntsc>
															</rate>
															<codec>
																<name>Apple ProRes 422</name>
																<appspecificdata>
																	<appname>Final Cut Pro</appname>
																	<appmanufacturer>Apple Inc.</appmanufacturer>
																	<appversion>7.0</appversion>
																	<data>
																		<qtcodec>
																			<codecname>Apple ProRes 422</codecname>
																			<codectypename>Apple ProRes 422</codectypename>
																			<codectypecode>apcn</codectypecode>
																			<codecvendorcode>appl</codecvendorcode>
																			<spatialquality>1024</spatialquality>
																			<temporalquality>0</temporalquality>
																			<keyframerate>0</keyframerate>
																			<datarate>0</datarate>
																		</qtcodec>
																	</data>
																</appspecificdata>
															</codec>
															<width>1920</width>
															<height>1080</height>
															<anamorphic>FALSE</anamorphic>
															<pixelaspectratio>square</pixelaspectratio>
															<fielddominance>none</fielddominance>
															<colordepth>24</colordepth>
														</samplecharacteristics>
													</format>
													<track TL.SQTrackShy="0" TL.SQTrackExpandedHeight="25" TL.SQTrackExpanded="0" MZ.TrackTargeted="1">
														<clipitem id="clipitem-1061">
															<masterclipid>masterclip-224</masterclipid>
															<name>4trackingnest09</name>
															<enabled>TRUE</enabled>
															<duration>2342</duration>
															<rate>
																<timebase>30</timebase>
																<ntsc>TRUE</ntsc>
															</rate>
															<start>0</start>
															<end>2342</end>
															<in>0</in>
															<out>2342</out>
															<pproTicksIn>0</pproTicksIn>
															<pproTicksOut>19850012582400</pproTicksOut>
															<sequence id="sequence-15"/>
															<labels>
																<label2>Forest</label2>
															</labels>
														</clipitem>
														<clipitem id="clipitem-1062">
															<masterclipid>masterclip-107</masterclipid>
															<name>1238 - SAT_BR Turner art_1m20s.mp4</name>
															<enabled>TRUE</enabled>
															<duration>2442</duration>
															<rate>
																<timebase>30</timebase>
																<ntsc>TRUE</ntsc>
															</rate>
															<start>2342</start>
															<end>2383</end>
															<in>2342</in>
															<out>2383</out>
															<pproTicksIn>19850012582400</pproTicksIn>
															<pproTicksOut>20197514937600</pproTicksOut>
															<alphatype>none</alphatype>
															<file id="file-106"/>
															<filter>
																<effect>
																	<name>Basic Motion</name>
																	<effectid>basic</effectid>
																	<effectcategory>motion</effectcategory>
																	<effecttype>motion</effecttype>
																	<mediatype>video</mediatype>
																	<pproBypass>false</pproBypass>
																	<parameter authoringApp="PremierePro">
																		<parameterid>scale</parameterid>
																		<name>Scale</name>
																		<valuemin>0</valuemin>
																		<valuemax>1000</valuemax>
																		<value>150</value>
																		<keyframe>
																			<when>2342</when>
																			<value>188</value>
																		</keyframe>
																		<keyframe>
																			<when>2383</when>
																			<value>193</value>
																		</keyframe>
																	</parameter>
																	<parameter authoringApp="PremierePro">
																		<parameterid>rotation</parameterid>
																		<name>Rotation</name>
																		<valuemin>-8640</valuemin>
																		<valuemax>8640</valuemax>
																		<value>0</value>
																	</parameter>
																	<parameter authoringApp="PremierePro">
																		<parameterid>center</parameterid>
																		<name>Center</name>
																		<value>
																			<horiz>0</horiz>
																			<vert>0</vert>
																		</value>
																	</parameter>
																	<parameter authoringApp="PremierePro">
																		<parameterid>centerOffset</parameterid>
																		<name>Anchor Point</name>
																		<value>
																			<horiz>0</horiz>
																			<vert>0</vert>
																		</value>
																	</parameter>
																	<parameter authoringApp="PremierePro">
																		<parameterid>antiflicker</parameterid>
																		<name>Anti-flicker Filter</name>
																		<valuemin>0.0</valuemin>
																		<valuemax>1.0</valuemax>
																		<value>0</value>
																	</parameter>
																</effect>
															</filter>
															<logginginfo>
																<description></description>
																<scene></scene>
																<shottake></shottake>
																<lognote></lognote>
																<good></good>
																<originalvideofilename></originalvideofilename>
																<originalaudiofilename></originalaudiofilename>
															</logginginfo>
															<colorinfo>
																<lut></lut>
																<lut1></lut1>
																<asc_sop></asc_sop>
																<asc_sat></asc_sat>
																<lut2></lut2>
															</colorinfo>
															<labels>
																<label2>Iris</label2>
															</labels>
														</clipitem>
														<clipitem id="clipitem-1063">
															<masterclipid>masterclip-225</masterclipid>
															<name>1238nest</name>
															<enabled>TRUE</enabled>
															<duration>2921</duration>
															<rate>
																<timebase>30</timebase>
																<ntsc>TRUE</ntsc>
															</rate>
															<start>2536</start>
															<end>-1</end>
															<in>0</in>
															<out>2921</out>
															<pproTicksIn>0</pproTicksIn>
															<pproTicksOut>24757423891200</pproTicksOut>
															<sequence id="sequence-16"/>
															<link>
																<linkclipref>clipitem-1063</linkclipref>
																<mediatype>video</mediatype>
																<trackindex>1</trackindex>
																<clipindex>3</clipindex>
															</link>
															<link>
																<linkclipref>clipitem-1068</linkclipref>
																<mediatype>audio</mediatype>
																<trackindex>1</trackindex>
																<clipindex>4</clipindex>
																<groupindex>1</groupindex>
															</link>
															<link>
																<linkclipref>clipitem-1070</linkclipref>
																<mediatype>audio</mediatype>
																<trackindex>2</trackindex>
																<clipindex>4</clipindex>
																<groupindex>1</groupindex>
															</link>
															<labels>
																<label2>Forest</label2>
															</labels>
														</clipitem>
														<transitionitem>
															<start>5427</start>
															<end>5457</end>
															<alignment>end-black</alignment>
															<cutPointTicks>254270016000</cutPointTicks>
															<rate>
																<timebase>30</timebase>
																<ntsc>TRUE</ntsc>
															</rate>
															<effect>
																<name>Cross Dissolve</name>
																<effectid>Cross Dissolve</effectid>
																<effectcategory>Dissolve</effectcategory>
																<effecttype>transition</effecttype>
																<mediatype>video</mediatype>
																<wipecode>0</wipecode>
																<wipeaccuracy>100</wipeaccuracy>
																<startratio>0</startratio>
																<endratio>1</endratio>
																<reverse>FALSE</reverse>
															</effect>
														</transitionitem>
														<enabled>TRUE</enabled>
														<locked>FALSE</locked>
													</track>
													<track TL.SQTrackShy="0" TL.SQTrackExpandedHeight="25" TL.SQTrackExpanded="0" MZ.TrackTargeted="0">
														<clipitem id="clipitem-1064">
															<masterclipid>masterclip-64</masterclipid>
															<name>br turner art</name>
															<enabled>TRUE</enabled>
															<duration>5844</duration>
															<rate>
																<timebase>30</timebase>
																<ntsc>TRUE</ntsc>
															</rate>
															<start>2342</start>
															<end>2383</end>
															<in>0</in>
															<out>41</out>
															<pproTicksIn>0</pproTicksIn>
															<pproTicksOut>347502355200</pproTicksOut>
															<alphatype>straight</alphatype>
															<file id="file-64"/>
															<filter>
																<effect>
																	<name>Basic Motion</name>
																	<effectid>basic</effectid>
																	<effectcategory>motion</effectcategory>
																	<effecttype>motion</effecttype>
																	<mediatype>video</mediatype>
																	<pproBypass>false</pproBypass>
																	<parameter authoringApp="PremierePro">
																		<parameterid>scale</parameterid>
																		<name>Scale</name>
																		<valuemin>0</valuemin>
																		<valuemax>1000</valuemax>
																		<value>150</value>
																	</parameter>
																	<parameter authoringApp="PremierePro">
																		<parameterid>rotation</parameterid>
																		<name>Rotation</name>
																		<valuemin>-8640</valuemin>
																		<valuemax>8640</valuemax>
																		<value>0</value>
																	</parameter>
																	<parameter authoringApp="PremierePro">
																		<parameterid>center</parameterid>
																		<name>Center</name>
																		<value>
																			<horiz>0</horiz>
																			<vert>0</vert>
																		</value>
																	</parameter>
																	<parameter authoringApp="PremierePro">
																		<parameterid>centerOffset</parameterid>
																		<name>Anchor Point</name>
																		<value>
																			<horiz>0</horiz>
																			<vert>0</vert>
																		</value>
																	</parameter>
																	<parameter authoringApp="PremierePro">
																		<parameterid>antiflicker</parameterid>
																		<name>Anti-flicker Filter</name>
																		<valuemin>0.0</valuemin>
																		<valuemax>1.0</valuemax>
																		<value>0</value>
																	</parameter>
																</effect>
															</filter>
															<logginginfo>
																<description></description>
																<scene></scene>
																<shottake></shottake>
																<lognote></lognote>
																<good></good>
																<originalvideofilename></originalvideofilename>
																<originalaudiofilename></originalaudiofilename>
															</logginginfo>
															<colorinfo>
																<lut></lut>
																<lut1></lut1>
																<asc_sop></asc_sop>
																<asc_sat></asc_sat>
																<lut2></lut2>
															</colorinfo>
															<labels>
																<label2>Rose</label2>
															</labels>
														</clipitem>
														<enabled>TRUE</enabled>
														<locked>FALSE</locked>
													</track>
													<track TL.SQTrackShy="0" TL.SQTrackExpandedHeight="25" TL.SQTrackExpanded="0" MZ.TrackTargeted="0">
														<clipitem id="clipitem-1065">
															<masterclipid>masterclip-106</masterclipid>
															<name>Bug and Lower Nest</name>
															<enabled>TRUE</enabled>
															<duration>14721</duration>
															<rate>
																<timebase>30</timebase>
																<ntsc>TRUE</ntsc>
															</rate>
															<start>0</start>
															<end>2383</end>
															<in>0</in>
															<out>2383</out>
															<pproTicksIn>0</pproTicksIn>
															<pproTicksOut>20197514937600</pproTicksOut>
															<sequence id="sequence-1"/>
															<labels>
																<label2>Cerulean</label2>
															</labels>
														</clipitem>
														<enabled>TRUE</enabled>
														<locked>FALSE</locked>
													</track>
													<track TL.SQTrackShy="0" TL.SQTrackExpandedHeight="25" TL.SQTrackExpanded="0" MZ.TrackTargeted="0">
														<clipitem id="clipitem-1066">
															<masterclipid>masterclip-190</masterclipid>
															<name>00_Grid Transition</name>
															<enabled>TRUE</enabled>
															<duration>389</duration>
															<rate>
																<timebase>30</timebase>
																<ntsc>TRUE</ntsc>
															</rate>
															<start>2373</start>
															<end>2558</end>
															<in>0</in>
															<out>185</out>
															<pproTicksIn>0</pproTicksIn>
															<pproTicksOut>1567998432000</pproTicksOut>
															<sequence id="sequence-7"/>
																<marker>
																	<comment></comment>
																	<name></name>
																	<in>10</in>
																	<out>-1</out>
																</marker>
																<marker>
																	<comment></comment>
																	<name></name>
																	<in>163</in>
																	<out>-1</out>
																</marker>
															<link>
																<linkclipref>clipitem-1066</linkclipref>
																<mediatype>video</mediatype>
																<trackindex>4</trackindex>
																<clipindex>1</clipindex>
															</link>
															<link>
																<linkclipref>clipitem-1071</linkclipref>
																<mediatype>audio</mediatype>
																<trackindex>3</trackindex>
																<clipindex>1</clipindex>
																<groupindex>1</groupindex>
															</link>
															<link>
																<linkclipref>clipitem-1072</linkclipref>
																<mediatype>audio</mediatype>
																<trackindex>4</trackindex>
																<clipindex>1</clipindex>
																<groupindex>1</groupindex>
															</link>
															<labels>
																<label2>Violet</label2>
															</labels>
														</clipitem>
														<enabled>TRUE</enabled>
														<locked>FALSE</locked>
													</track>
													<track TL.SQTrackShy="0" TL.SQTrackExpandedHeight="25" TL.SQTrackExpanded="0" MZ.TrackTargeted="0">
														<enabled>TRUE</enabled>
														<locked>FALSE</locked>
													</track>
													<track TL.SQTrackShy="0" TL.SQTrackExpandedHeight="25" TL.SQTrackExpanded="0" MZ.TrackTargeted="0">
														<enabled>TRUE</enabled>
														<locked>FALSE</locked>
													</track>
												</video>
												<audio>
													<numOutputChannels>2</numOutputChannels>
													<format>
														<samplecharacteristics>
															<depth>16</depth>
															<samplerate>44100</samplerate>
														</samplecharacteristics>
													</format>
													<outputs>
														<group>
															<index>1</index>
															<numchannels>1</numchannels>
															<downmix>0</downmix>
															<channel>
																<index>1</index>
															</channel>
														</group>
														<group>
															<index>2</index>
															<numchannels>1</numchannels>
															<downmix>0</downmix>
															<channel>
																<index>2</index>
															</channel>
														</group>
													</outputs>
													<track TL.SQTrackAudioKeyframeStyle="0" TL.SQTrackShy="0" TL.SQTrackExpandedHeight="25" TL.SQTrackExpanded="0" MZ.TrackTargeted="1" PannerCurrentValue="0.5" PannerIsInverted="true" PannerStartKeyframe="-91445760000000000,0.5,0,0,0,0,0,0" PannerName="Balance" currentExplodedTrackIndex="0" totalExplodedTrackCount="2" premiereTrackType="Stereo">
														<transitionitem>
															<start>0</start>
															<end>30</end>
															<pproTicksIn>0</pproTicksIn>
															<pproTicksOut>254270016000</pproTicksOut>
															<alignment>start-black</alignment>
															<cutPointTicks>0</cutPointTicks>
															<rate>
																<timebase>30</timebase>
																<ntsc>TRUE</ntsc>
															</rate>
															<effect>
																<name>Cross Fade (+3dB)</name>
																<effectid>KGAudioTransCrossFade3dB</effectid>
																<effecttype>transition</effecttype>
																<mediatype>audio</mediatype>
																<wipecode>0</wipecode>
																<wipeaccuracy>100</wipeaccuracy>
																<startratio>0</startratio>
																<endratio>1</endratio>
																<reverse>FALSE</reverse>
															</effect>
														</transitionitem>
														<clipitem id="clipitem-1067" premiereChannelType="stereo">
															<masterclipid>masterclip-3</masterclipid>
															<name>ES_Some Days Ago - Dylan Sitts.mp3</name>
															<enabled>TRUE</enabled>
															<duration>4178</duration>
															<rate>
																<timebase>30</timebase>
																<ntsc>TRUE</ntsc>
															</rate>
															<start>-1</start>
															<end>-1</end>
															<in>421</in>
															<out>2804</out>
															<pproTicksIn>3568255891200</pproTicksIn>
															<pproTicksOut>23765770828800</pproTicksOut>
															<file id="file-3"/>
															<sourcetrack>
																<mediatype>audio</mediatype>
																<trackindex>1</trackindex>
															</sourcetrack>
															<link>
																<linkclipref>clipitem-1067</linkclipref>
																<mediatype>audio</mediatype>
																<trackindex>1</trackindex>
																<clipindex>2</clipindex>
																<groupindex>1</groupindex>
															</link>
															<link>
																<linkclipref>clipitem-1069</linkclipref>
																<mediatype>audio</mediatype>
																<trackindex>2</trackindex>
																<clipindex>2</clipindex>
																<groupindex>1</groupindex>
															</link>
															<logginginfo>
																<description></description>
																<scene></scene>
																<shottake></shottake>
																<lognote></lognote>
																<good></good>
																<originalvideofilename></originalvideofilename>
																<originalaudiofilename></originalaudiofilename>
															</logginginfo>
															<colorinfo>
																<lut></lut>
																<lut1></lut1>
																<asc_sop></asc_sop>
																<asc_sat></asc_sat>
																<lut2></lut2>
															</colorinfo>
															<labels>
																<label2>Forest</label2>
															</labels>
														</clipitem>
														<transitionitem>
															<start>2293</start>
															<end>2383</end>
															<pproTicksIn>19434704889600</pproTicksIn>
															<pproTicksOut>20197514937600</pproTicksOut>
															<alignment>end-black</alignment>
															<cutPointTicks>762810048000</cutPointTicks>
															<rate>
																<timebase>30</timebase>
																<ntsc>TRUE</ntsc>
															</rate>
															<effect>
																<name>Cross Fade (+3dB)</name>
																<effectid>KGAudioTransCrossFade3dB</effectid>
																<effecttype>transition</effecttype>
																<mediatype>audio</mediatype>
																<wipecode>0</wipecode>
																<wipeaccuracy>100</wipeaccuracy>
																<startratio>0</startratio>
																<endratio>1</endratio>
																<reverse>FALSE</reverse>
															</effect>
														</transitionitem>
														<clipitem id="clipitem-1068" premiereChannelType="stereo">
															<masterclipid>masterclip-225</masterclipid>
															<name>1238nest</name>
															<enabled>TRUE</enabled>
															<duration>2921</duration>
															<rate>
																<timebase>30</timebase>
																<ntsc>TRUE</ntsc>
															</rate>
															<start>2536</start>
															<end>5457</end>
															<in>0</in>
															<out>2921</out>
															<pproTicksIn>0</pproTicksIn>
															<pproTicksOut>24757423891200</pproTicksOut>
															<sequence id="sequence-16"/>
															<sourcetrack>
																<mediatype>audio</mediatype>
																<trackindex>0</trackindex>
															</sourcetrack>
															<link>
																<linkclipref>clipitem-1063</linkclipref>
																<mediatype>video</mediatype>
																<trackindex>1</trackindex>
																<clipindex>3</clipindex>
															</link>
															<link>
																<linkclipref>clipitem-1068</linkclipref>
																<mediatype>audio</mediatype>
																<trackindex>1</trackindex>
																<clipindex>4</clipindex>
																<groupindex>1</groupindex>
															</link>
															<link>
																<linkclipref>clipitem-1070</linkclipref>
																<mediatype>audio</mediatype>
																<trackindex>2</trackindex>
																<clipindex>4</clipindex>
																<groupindex>1</groupindex>
															</link>
															<labels>
																<label2>Forest</label2>
															</labels>
														</clipitem>
														<enabled>TRUE</enabled>
														<locked>FALSE</locked>
														<filter>
															<effect>
																<name>Audio Levels</name>
																<effectid>audiolevels</effectid>
																<effectcategory>audiolevels</effectcategory>
																<effecttype>audiolevels</effecttype>
																<mediatype>audio</mediatype>
																<parameter authoringApp="PremierePro">
																	<parameterid>level</parameterid>
																	<name>Level</name>
																	<valuemin>0</valuemin>
																	<valuemax>3.98109</valuemax>
																	<value>0.706272</value>
																</parameter>
															</effect>
														</filter>
														<outputchannelindex>1</outputchannelindex>
													</track>
													<track TL.SQTrackAudioKeyframeStyle="0" TL.SQTrackShy="0" TL.SQTrackExpandedHeight="25" TL.SQTrackExpanded="0" MZ.TrackTargeted="1" PannerCurrentValue="0.5" PannerIsInverted="true" PannerStartKeyframe="-91445760000000000,0.5,0,0,0,0,0,0" PannerName="Balance" currentExplodedTrackIndex="1" totalExplodedTrackCount="2" premiereTrackType="Stereo">
														<transitionitem>
															<start>0</start>
															<end>30</end>
															<pproTicksIn>0</pproTicksIn>
															<pproTicksOut>254270016000</pproTicksOut>
															<alignment>start-black</alignment>
															<cutPointTicks>0</cutPointTicks>
															<rate>
																<timebase>30</timebase>
																<ntsc>TRUE</ntsc>
															</rate>
															<effect>
																<name>Cross Fade (+3dB)</name>
																<effectid>KGAudioTransCrossFade3dB</effectid>
																<effecttype>transition</effecttype>
																<mediatype>audio</mediatype>
																<wipecode>0</wipecode>
																<wipeaccuracy>100</wipeaccuracy>
																<startratio>0</startratio>
																<endratio>1</endratio>
																<reverse>FALSE</reverse>
															</effect>
														</transitionitem>
														<clipitem id="clipitem-1069" premiereChannelType="stereo">
															<masterclipid>masterclip-3</masterclipid>
															<name>ES_Some Days Ago - Dylan Sitts.mp3</name>
															<enabled>TRUE</enabled>
															<duration>4178</duration>
															<rate>
																<timebase>30</timebase>
																<ntsc>TRUE</ntsc>
															</rate>
															<start>-1</start>
															<end>-1</end>
															<in>421</in>
															<out>2804</out>
															<pproTicksIn>3568255891200</pproTicksIn>
															<pproTicksOut>23765770828800</pproTicksOut>
															<file id="file-3"/>
															<sourcetrack>
																<mediatype>audio</mediatype>
																<trackindex>2</trackindex>
															</sourcetrack>
															<link>
																<linkclipref>clipitem-1067</linkclipref>
																<mediatype>audio</mediatype>
																<trackindex>1</trackindex>
																<clipindex>2</clipindex>
																<groupindex>1</groupindex>
															</link>
															<link>
																<linkclipref>clipitem-1069</linkclipref>
																<mediatype>audio</mediatype>
																<trackindex>2</trackindex>
																<clipindex>2</clipindex>
																<groupindex>1</groupindex>
															</link>
															<logginginfo>
																<description></description>
																<scene></scene>
																<shottake></shottake>
																<lognote></lognote>
																<good></good>
																<originalvideofilename></originalvideofilename>
																<originalaudiofilename></originalaudiofilename>
															</logginginfo>
															<colorinfo>
																<lut></lut>
																<lut1></lut1>
																<asc_sop></asc_sop>
																<asc_sat></asc_sat>
																<lut2></lut2>
															</colorinfo>
															<labels>
																<label2>Forest</label2>
															</labels>
														</clipitem>
														<transitionitem>
															<start>2293</start>
															<end>2383</end>
															<pproTicksIn>19434704889600</pproTicksIn>
															<pproTicksOut>20197514937600</pproTicksOut>
															<alignment>end-black</alignment>
															<cutPointTicks>762810048000</cutPointTicks>
															<rate>
																<timebase>30</timebase>
																<ntsc>TRUE</ntsc>
															</rate>
															<effect>
																<name>Cross Fade (+3dB)</name>
																<effectid>KGAudioTransCrossFade3dB</effectid>
																<effecttype>transition</effecttype>
																<mediatype>audio</mediatype>
																<wipecode>0</wipecode>
																<wipeaccuracy>100</wipeaccuracy>
																<startratio>0</startratio>
																<endratio>1</endratio>
																<reverse>FALSE</reverse>
															</effect>
														</transitionitem>
														<clipitem id="clipitem-1070" premiereChannelType="stereo">
															<masterclipid>masterclip-225</masterclipid>
															<name>1238nest</name>
															<enabled>TRUE</enabled>
															<duration>2921</duration>
															<rate>
																<timebase>30</timebase>
																<ntsc>TRUE</ntsc>
															</rate>
															<start>2536</start>
															<end>5457</end>
															<in>0</in>
															<out>2921</out>
															<pproTicksIn>0</pproTicksIn>
															<pproTicksOut>24757423891200</pproTicksOut>
															<sequence id="sequence-16"/>
															<sourcetrack>
																<mediatype>audio</mediatype>
																<trackindex>1</trackindex>
															</sourcetrack>
															<link>
																<linkclipref>clipitem-1063</linkclipref>
																<mediatype>video</mediatype>
																<trackindex>1</trackindex>
																<clipindex>3</clipindex>
															</link>
															<link>
																<linkclipref>clipitem-1068</linkclipref>
																<mediatype>audio</mediatype>
																<trackindex>1</trackindex>
																<clipindex>4</clipindex>
																<groupindex>1</groupindex>
															</link>
															<link>
																<linkclipref>clipitem-1070</linkclipref>
																<mediatype>audio</mediatype>
																<trackindex>2</trackindex>
																<clipindex>4</clipindex>
																<groupindex>1</groupindex>
															</link>
															<labels>
																<label2>Forest</label2>
															</labels>
														</clipitem>
														<enabled>TRUE</enabled>
														<locked>FALSE</locked>
														<filter>
															<effect>
																<name>Audio Levels</name>
																<effectid>audiolevels</effectid>
																<effectcategory>audiolevels</effectcategory>
																<effecttype>audiolevels</effecttype>
																<mediatype>audio</mediatype>
																<parameter authoringApp="PremierePro">
																	<parameterid>level</parameterid>
																	<name>Level</name>
																	<valuemin>0</valuemin>
																	<valuemax>3.98109</valuemax>
																	<value>0.706272</value>
																</parameter>
															</effect>
														</filter>
														<outputchannelindex>2</outputchannelindex>
													</track>
													<track TL.SQTrackAudioKeyframeStyle="0" TL.SQTrackShy="0" TL.SQTrackExpandedHeight="25" TL.SQTrackExpanded="0" MZ.TrackTargeted="0" PannerCurrentValue="0.5" PannerIsInverted="true" PannerStartKeyframe="-91445760000000000,0.5,0,0,0,0,0,0" PannerName="Balance" currentExplodedTrackIndex="0" totalExplodedTrackCount="2" premiereTrackType="Stereo">
														<clipitem id="clipitem-1071" premiereChannelType="stereo">
															<masterclipid>masterclip-190</masterclipid>
															<name>00_Grid Transition</name>
															<enabled>TRUE</enabled>
															<duration>389</duration>
															<rate>
																<timebase>30</timebase>
																<ntsc>TRUE</ntsc>
															</rate>
															<start>2373</start>
															<end>2558</end>
															<in>0</in>
															<out>185</out>
															<pproTicksIn>0</pproTicksIn>
															<pproTicksOut>1567998432000</pproTicksOut>
															<sequence id="sequence-7"/>
															<sourcetrack>
																<mediatype>audio</mediatype>
																<trackindex>0</trackindex>
															</sourcetrack>
																<marker>
																	<comment></comment>
																	<name></name>
																	<in>10</in>
																	<out>-1</out>
																</marker>
																<marker>
																	<comment></comment>
																	<name></name>
																	<in>163</in>
																	<out>-1</out>
																</marker>
															<link>
																<linkclipref>clipitem-1066</linkclipref>
																<mediatype>video</mediatype>
																<trackindex>4</trackindex>
																<clipindex>1</clipindex>
															</link>
															<link>
																<linkclipref>clipitem-1071</linkclipref>
																<mediatype>audio</mediatype>
																<trackindex>3</trackindex>
																<clipindex>1</clipindex>
																<groupindex>1</groupindex>
															</link>
															<link>
																<linkclipref>clipitem-1072</linkclipref>
																<mediatype>audio</mediatype>
																<trackindex>4</trackindex>
																<clipindex>1</clipindex>
																<groupindex>1</groupindex>
															</link>
															<labels>
																<label2>Violet</label2>
															</labels>
														</clipitem>
														<enabled>TRUE</enabled>
														<locked>FALSE</locked>
														<filter>
															<effect>
																<name>Audio Levels</name>
																<effectid>audiolevels</effectid>
																<effectcategory>audiolevels</effectcategory>
																<effecttype>audiolevels</effecttype>
																<mediatype>audio</mediatype>
																<parameter authoringApp="PremierePro">
																	<parameterid>level</parameterid>
																	<name>Level</name>
																	<valuemin>0</valuemin>
																	<valuemax>3.98109</valuemax>
																	<value>0.706272</value>
																</parameter>
															</effect>
														</filter>
														<outputchannelindex>1</outputchannelindex>
													</track>
													<track TL.SQTrackAudioKeyframeStyle="0" TL.SQTrackShy="0" TL.SQTrackExpandedHeight="25" TL.SQTrackExpanded="0" MZ.TrackTargeted="0" PannerCurrentValue="0.5" PannerIsInverted="true" PannerStartKeyframe="-91445760000000000,0.5,0,0,0,0,0,0" PannerName="Balance" currentExplodedTrackIndex="1" totalExplodedTrackCount="2" premiereTrackType="Stereo">
														<clipitem id="clipitem-1072" premiereChannelType="stereo">
															<masterclipid>masterclip-190</masterclipid>
															<name>00_Grid Transition</name>
															<enabled>TRUE</enabled>
															<duration>389</duration>
															<rate>
																<timebase>30</timebase>
																<ntsc>TRUE</ntsc>
															</rate>
															<start>2373</start>
															<end>2558</end>
															<in>0</in>
															<out>185</out>
															<pproTicksIn>0</pproTicksIn>
															<pproTicksOut>1567998432000</pproTicksOut>
															<sequence id="sequence-7"/>
															<sourcetrack>
																<mediatype>audio</mediatype>
																<trackindex>1</trackindex>
															</sourcetrack>
																<marker>
																	<comment></comment>
																	<name></name>
																	<in>10</in>
																	<out>-1</out>
																</marker>
																<marker>
																	<comment></comment>
																	<name></name>
																	<in>163</in>
																	<out>-1</out>
																</marker>
															<link>
																<linkclipref>clipitem-1066</linkclipref>
																<mediatype>video</mediatype>
																<trackindex>4</trackindex>
																<clipindex>1</clipindex>
															</link>
															<link>
																<linkclipref>clipitem-1071</linkclipref>
																<mediatype>audio</mediatype>
																<trackindex>3</trackindex>
																<clipindex>1</clipindex>
																<groupindex>1</groupindex>
															</link>
															<link>
																<linkclipref>clipitem-1072</linkclipref>
																<mediatype>audio</mediatype>
																<trackindex>4</trackindex>
																<clipindex>1</clipindex>
																<groupindex>1</groupindex>
															</link>
															<labels>
																<label2>Violet</label2>
															</labels>
														</clipitem>
														<enabled>TRUE</enabled>
														<locked>FALSE</locked>
														<filter>
															<effect>
																<name>Audio Levels</name>
																<effectid>audiolevels</effectid>
																<effectcategory>audiolevels</effectcategory>
																<effecttype>audiolevels</effecttype>
																<mediatype>audio</mediatype>
																<parameter authoringApp="PremierePro">
																	<parameterid>level</parameterid>
																	<name>Level</name>
																	<valuemin>0</valuemin>
																	<valuemax>3.98109</valuemax>
																	<value>0.706272</value>
																</parameter>
															</effect>
														</filter>
														<outputchannelindex>2</outputchannelindex>
													</track>
													<track TL.SQTrackAudioKeyframeStyle="0" TL.SQTrackShy="0" TL.SQTrackExpandedHeight="25" TL.SQTrackExpanded="0" MZ.TrackTargeted="0" PannerCurrentValue="0.5" PannerIsInverted="true" PannerStartKeyframe="-91445760000000000,0.5,0,0,0,0,0,0" PannerName="Balance" currentExplodedTrackIndex="0" totalExplodedTrackCount="2" premiereTrackType="Stereo">
														<enabled>TRUE</enabled>
														<locked>FALSE</locked>
														<outputchannelindex>1</outputchannelindex>
													</track>
													<track TL.SQTrackAudioKeyframeStyle="0" TL.SQTrackShy="0" TL.SQTrackExpandedHeight="25" TL.SQTrackExpanded="0" MZ.TrackTargeted="0" PannerCurrentValue="0.5" PannerIsInverted="true" PannerStartKeyframe="-91445760000000000,0.5,0,0,0,0,0,0" PannerName="Balance" currentExplodedTrackIndex="1" totalExplodedTrackCount="2" premiereTrackType="Stereo">
														<enabled>TRUE</enabled>
														<locked>FALSE</locked>
														<outputchannelindex>2</outputchannelindex>
													</track>
												</audio>
											</media>
											<timecode>
												<rate>
													<timebase>30</timebase>
													<ntsc>TRUE</ntsc>
												</rate>
												<string>00:00:00:00</string>
												<frame>0</frame>
												<displayformat>NDF</displayformat>
											</timecode>
											<logginginfo>
												<description></description>
												<scene></scene>
												<shottake></shottake>
												<lognote></lognote>
												<good></good>
												<originalvideofilename></originalvideofilename>
												<originalaudiofilename></originalaudiofilename>
											</logginginfo>
										</sequence>
										<filter>
											<effect>
												<name>Basic Motion</name>
												<effectid>basic</effectid>
												<effectcategory>motion</effectcategory>
												<effecttype>motion</effecttype>
												<mediatype>video</mediatype>
												<pproBypass>false</pproBypass>
												<parameter authoringApp="PremierePro">
													<parameterid>scale</parameterid>
													<name>Scale</name>
													<valuemin>0</valuemin>
													<valuemax>1000</valuemax>
													<value>66.6667</value>
												</parameter>
												<parameter authoringApp="PremierePro">
													<parameterid>rotation</parameterid>
													<name>Rotation</name>
													<valuemin>-8640</valuemin>
													<valuemax>8640</valuemax>
													<value>0</value>
												</parameter>
												<parameter authoringApp="PremierePro">
													<parameterid>center</parameterid>
													<name>Center</name>
													<value>
														<horiz>-0.5</horiz>
														<vert>-0.5</vert>
													</value>
												</parameter>
												<parameter authoringApp="PremierePro">
													<parameterid>centerOffset</parameterid>
													<name>Anchor Point</name>
													<value>
														<horiz>0</horiz>
														<vert>0</vert>
													</value>
												</parameter>
												<parameter authoringApp="PremierePro">
													<parameterid>antiflicker</parameterid>
													<name>Anti-flicker Filter</name>
													<valuemin>0.0</valuemin>
													<valuemax>1.0</valuemax>
													<value>0</value>
												</parameter>
											</effect>
										</filter>
										<link>
											<linkclipref>clipitem-1060</linkclipref>
											<mediatype>video</mediatype>
											<trackindex>1</trackindex>
											<clipindex>10</clipindex>
										</link>
										<link>
											<linkclipref>clipitem-1129</linkclipref>
											<mediatype>audio</mediatype>
											<trackindex>1</trackindex>
											<clipindex>10</clipindex>
											<groupindex>1</groupindex>
										</link>
										<link>
											<linkclipref>clipitem-1143</linkclipref>
											<mediatype>audio</mediatype>
											<trackindex>2</trackindex>
											<clipindex>10</clipindex>
											<groupindex>1</groupindex>
										</link>
										<labels>
											<label2>Forest</label2>
										</labels>
									</clipitem>
									<clipitem id="clipitem-1073">
										<masterclipid>masterclip-226</masterclipid>
										<name>TEMPLATE Copy 2532</name>
										<enabled>TRUE</enabled>
										<duration>96212</duration>
										<rate>
											<timebase>30</timebase>
											<ntsc>TRUE</ntsc>
										</rate>
										<start>76684</start>
										<end>82227</end>
										<in>0</in>
										<out>5543</out>
										<pproTicksIn>0</pproTicksIn>
										<pproTicksOut>46980623289600</pproTicksOut>
										<sequence id="sequence-81" TL.SQAudioVisibleBase="0" TL.SQVideoVisibleBase="0" TL.SQVisibleBaseTime="0" TL.SQAVDividerPosition="0.5" TL.SQHideShyTracks="0" TL.SQHeaderWidth="236" TL.SQDataTrackViewControlState="0" Monitor.ProgramZoomOut="46234764576000" Monitor.ProgramZoomIn="0" TL.SQTimePerPixel="0.13818516812528556" AM.TrackVScrollPosition="0" AM.TrackScrollPosition="0" MZ.EditLine="46234764576000" MZ.Sequence.PreviewFrameSizeHeight="1080" MZ.Sequence.PreviewFrameSizeWidth="1920" MZ.Sequence.AudioTimeDisplayFormat="200" MZ.Sequence.PreviewRenderingClassID="1297106761" MZ.Sequence.PreviewRenderingPresetCodec="1297107278" MZ.Sequence.PreviewRenderingPresetPath="EncoderPresets/SequencePreview/795454d9-d3c2-429d-9474-923ab13b7018/I-Frame Only MPEG.epr" MZ.Sequence.PreviewUseMaxRenderQuality="false" MZ.Sequence.PreviewUseMaxBitDepth="false" MZ.Sequence.EditingModeGUID="795454d9-d3c2-429d-9474-923ab13b7018" MZ.Sequence.VideoTimeDisplayFormat="103" MZ.WorkOutPoint="45293965516800" MZ.WorkInPoint="0">
											<duration>5455</duration>
											<rate>
												<timebase>30</timebase>
												<ntsc>TRUE</ntsc>
											</rate>
											<name>ATM_ODDLY SATISFYING_1552</name>
											<media>
												<video>
													<format>
														<samplecharacteristics>
															<rate>
																<timebase>30</timebase>
																<ntsc>TRUE</ntsc>
															</rate>
															<codec>
																<name>Apple ProRes 422</name>
																<appspecificdata>
																	<appname>Final Cut Pro</appname>
																	<appmanufacturer>Apple Inc.</appmanufacturer>
																	<appversion>7.0</appversion>
																	<data>
																		<qtcodec>
																			<codecname>Apple ProRes 422</codecname>
																			<codectypename>Apple ProRes 422</codectypename>
																			<codectypecode>apcn</codectypecode>
																			<codecvendorcode>appl</codecvendorcode>
																			<spatialquality>1024</spatialquality>
																			<temporalquality>0</temporalquality>
																			<keyframerate>0</keyframerate>
																			<datarate>0</datarate>
																		</qtcodec>
																	</data>
																</appspecificdata>
															</codec>
															<width>1920</width>
															<height>1080</height>
															<anamorphic>FALSE</anamorphic>
															<pixelaspectratio>square</pixelaspectratio>
															<fielddominance>none</fielddominance>
															<colordepth>24</colordepth>
														</samplecharacteristics>
													</format>
													<track TL.SQTrackShy="0" TL.SQTrackExpandedHeight="25" TL.SQTrackExpanded="0" MZ.TrackTargeted="1">
														<clipitem id="clipitem-1074">
															<masterclipid>masterclip-227</masterclipid>
															<name>4trackingnest10</name>
															<enabled>TRUE</enabled>
															<duration>3422</duration>
															<rate>
																<timebase>30</timebase>
																<ntsc>TRUE</ntsc>
															</rate>
															<start>0</start>
															<end>3422</end>
															<in>0</in>
															<out>3422</out>
															<pproTicksIn>0</pproTicksIn>
															<pproTicksOut>29003733158400</pproTicksOut>
															<sequence id="sequence-36"/>
															<labels>
																<label2>Forest</label2>
															</labels>
														</clipitem>
														<clipitem id="clipitem-1075">
															<masterclipid>masterclip-228</masterclipid>
															<name>1255nest</name>
															<enabled>TRUE</enabled>
															<duration>1922</duration>
															<rate>
																<timebase>30</timebase>
																<ntsc>TRUE</ntsc>
															</rate>
															<start>3533</start>
															<end>-1</end>
															<in>0</in>
															<out>1922</out>
															<pproTicksIn>0</pproTicksIn>
															<pproTicksOut>16290232358400</pproTicksOut>
															<sequence id="sequence-37"/>
															<link>
																<linkclipref>clipitem-1075</linkclipref>
																<mediatype>video</mediatype>
																<trackindex>1</trackindex>
																<clipindex>2</clipindex>
															</link>
															<link>
																<linkclipref>clipitem-1081</linkclipref>
																<mediatype>audio</mediatype>
																<trackindex>1</trackindex>
																<clipindex>4</clipindex>
																<groupindex>1</groupindex>
															</link>
															<link>
																<linkclipref>clipitem-1083</linkclipref>
																<mediatype>audio</mediatype>
																<trackindex>2</trackindex>
																<clipindex>4</clipindex>
																<groupindex>1</groupindex>
															</link>
															<labels>
																<label2>Forest</label2>
															</labels>
														</clipitem>
														<transitionitem>
															<start>5425</start>
															<end>5455</end>
															<alignment>end-black</alignment>
															<cutPointTicks>254270016000</cutPointTicks>
															<rate>
																<timebase>30</timebase>
																<ntsc>TRUE</ntsc>
															</rate>
															<effect>
																<name>Cross Dissolve</name>
																<effectid>Cross Dissolve</effectid>
																<effectcategory>Dissolve</effectcategory>
																<effecttype>transition</effecttype>
																<mediatype>video</mediatype>
																<wipecode>0</wipecode>
																<wipeaccuracy>100</wipeaccuracy>
																<startratio>0</startratio>
																<endratio>1</endratio>
																<reverse>FALSE</reverse>
															</effect>
														</transitionitem>
														<enabled>TRUE</enabled>
														<locked>FALSE</locked>
													</track>
													<track TL.SQTrackShy="0" TL.SQTrackExpandedHeight="25" TL.SQTrackExpanded="0" MZ.TrackTargeted="0">
														<clipitem id="clipitem-1076">
															<masterclipid>masterclip-122</masterclipid>
															<name>Adjustment Layer</name>
															<enabled>TRUE</enabled>
															<duration>1294705</duration>
															<rate>
																<timebase>30</timebase>
																<ntsc>TRUE</ntsc>
															</rate>
															<start>0</start>
															<end>3422</end>
															<in>107892</in>
															<out>111314</out>
															<pproTicksIn>914456685542400</pproTicksIn>
															<pproTicksOut>943460418700800</pproTicksOut>
															<alphatype>none</alphatype>
															<file id="file-121"/>
															<filter>
																<effect>
																	<name>Basic Motion</name>
																	<effectid>basic</effectid>
																	<effectcategory>motion</effectcategory>
																	<effecttype>motion</effecttype>
																	<mediatype>video</mediatype>
																	<pproBypass>false</pproBypass>
																	<parameter authoringApp="PremierePro">
																		<parameterid>scale</parameterid>
																		<name>Scale</name>
																		<valuemin>0</valuemin>
																		<valuemax>1000</valuemax>
																		<value>150</value>
																	</parameter>
																	<parameter authoringApp="PremierePro">
																		<parameterid>rotation</parameterid>
																		<name>Rotation</name>
																		<valuemin>-8640</valuemin>
																		<valuemax>8640</valuemax>
																		<value>0</value>
																	</parameter>
																	<parameter authoringApp="PremierePro">
																		<parameterid>center</parameterid>
																		<name>Center</name>
																		<value>
																			<horiz>0</horiz>
																			<vert>0</vert>
																		</value>
																	</parameter>
																	<parameter authoringApp="PremierePro">
																		<parameterid>centerOffset</parameterid>
																		<name>Anchor Point</name>
																		<value>
																			<horiz>0</horiz>
																			<vert>0</vert>
																		</value>
																	</parameter>
																	<parameter authoringApp="PremierePro">
																		<parameterid>antiflicker</parameterid>
																		<name>Anti-flicker Filter</name>
																		<valuemin>0.0</valuemin>
																		<valuemax>1.0</valuemax>
																		<value>0</value>
																	</parameter>
																</effect>
															</filter>
															<filter>
																<effect>
																	<name>Gaussian Blur</name>
																	<effectid>Gaussian Blur</effectid>
																	<effectcategory>Blur</effectcategory>
																	<effecttype>motion</effecttype>
																	<mediatype>video</mediatype>
																	<pproBypass>false</pproBypass>
																	<parameter authoringApp="PremierePro">
																		<parameterid>radius</parameterid>
																		<name>Radius</name>
																		<valuemin>0</valuemin>
																		<valuemax>100</valuemax>
																		<value>57</value>
																	</parameter>
																</effect>
															</filter>
															<logginginfo>
																<description></description>
																<scene></scene>
																<shottake></shottake>
																<lognote></lognote>
																<good></good>
																<originalvideofilename></originalvideofilename>
																<originalaudiofilename></originalaudiofilename>
															</logginginfo>
															<colorinfo>
																<lut></lut>
																<lut1></lut1>
																<asc_sop></asc_sop>
																<asc_sat></asc_sat>
																<lut2></lut2>
															</colorinfo>
															<labels>
																<label2>Lavender</label2>
															</labels>
														</clipitem>
														<enabled>TRUE</enabled>
														<locked>FALSE</locked>
													</track>
													<track TL.SQTrackShy="0" TL.SQTrackExpandedHeight="25" TL.SQTrackExpanded="0" MZ.TrackTargeted="0">
														<clipitem id="clipitem-1077">
															<masterclipid>masterclip-62</masterclipid>
															<name>@obzorovna</name>
															<enabled>TRUE</enabled>
															<duration>5844</duration>
															<rate>
																<timebase>30</timebase>
																<ntsc>TRUE</ntsc>
															</rate>
															<start>0</start>
															<end>3422</end>
															<in>0</in>
															<out>3422</out>
															<pproTicksIn>0</pproTicksIn>
															<pproTicksOut>29003733158400</pproTicksOut>
															<alphatype>straight</alphatype>
															<file id="file-62"/>
															<filter>
																<effect>
																	<name>Basic Motion</name>
																	<effectid>basic</effectid>
																	<effectcategory>motion</effectcategory>
																	<effecttype>motion</effecttype>
																	<mediatype>video</mediatype>
																	<pproBypass>false</pproBypass>
																	<parameter authoringApp="PremierePro">
																		<parameterid>scale</parameterid>
																		<name>Scale</name>
																		<valuemin>0</valuemin>
																		<valuemax>1000</valuemax>
																		<value>150</value>
																	</parameter>
																	<parameter authoringApp="PremierePro">
																		<parameterid>rotation</parameterid>
																		<name>Rotation</name>
																		<valuemin>-8640</valuemin>
																		<valuemax>8640</valuemax>
																		<value>0</value>
																	</parameter>
																	<parameter authoringApp="PremierePro">
																		<parameterid>center</parameterid>
																		<name>Center</name>
																		<value>
																			<horiz>0</horiz>
																			<vert>0</vert>
																		</value>
																	</parameter>
																	<parameter authoringApp="PremierePro">
																		<parameterid>centerOffset</parameterid>
																		<name>Anchor Point</name>
																		<value>
																			<horiz>0</horiz>
																			<vert>0</vert>
																		</value>
																	</parameter>
																	<parameter authoringApp="PremierePro">
																		<parameterid>antiflicker</parameterid>
																		<name>Anti-flicker Filter</name>
																		<valuemin>0.0</valuemin>
																		<valuemax>1.0</valuemax>
																		<value>0</value>
																	</parameter>
																</effect>
															</filter>
															<logginginfo>
																<description></description>
																<scene></scene>
																<shottake></shottake>
																<lognote></lognote>
																<good></good>
																<originalvideofilename></originalvideofilename>
																<originalaudiofilename></originalaudiofilename>
															</logginginfo>
															<colorinfo>
																<lut></lut>
																<lut1></lut1>
																<asc_sop></asc_sop>
																<asc_sat></asc_sat>
																<lut2></lut2>
															</colorinfo>
															<labels>
																<label2>Rose</label2>
															</labels>
														</clipitem>
														<enabled>TRUE</enabled>
														<locked>FALSE</locked>
													</track>
													<track TL.SQTrackShy="0" TL.SQTrackExpandedHeight="25" TL.SQTrackExpanded="0" MZ.TrackTargeted="0">
														<clipitem id="clipitem-1078">
															<masterclipid>masterclip-106</masterclipid>
															<name>Bug and Lower Nest</name>
															<enabled>TRUE</enabled>
															<duration>14721</duration>
															<rate>
																<timebase>30</timebase>
																<ntsc>TRUE</ntsc>
															</rate>
															<start>0</start>
															<end>3422</end>
															<in>0</in>
															<out>3422</out>
															<pproTicksIn>0</pproTicksIn>
															<pproTicksOut>29003733158400</pproTicksOut>
															<sequence id="sequence-1"/>
															<labels>
																<label2>Cerulean</label2>
															</labels>
														</clipitem>
														<enabled>TRUE</enabled>
														<locked>FALSE</locked>
													</track>
													<track TL.SQTrackShy="0" TL.SQTrackExpandedHeight="25" TL.SQTrackExpanded="0" MZ.TrackTargeted="0">
														<clipitem id="clipitem-1079">
															<masterclipid>masterclip-194</masterclipid>
															<name>OS Trans 01</name>
															<enabled>TRUE</enabled>
															<duration>417</duration>
															<rate>
																<timebase>30</timebase>
																<ntsc>TRUE</ntsc>
															</rate>
															<start>3400</start>
															<end>3589</end>
															<in>0</in>
															<out>189</out>
															<pproTicksIn>0</pproTicksIn>
															<pproTicksOut>1601901100800</pproTicksOut>
															<sequence id="sequence-5"/>
																<marker>
																	<comment></comment>
																	<name></name>
																	<in>133</in>
																	<out>-1</out>
																</marker>
																<marker>
																	<comment></comment>
																	<name></name>
																	<in>22</in>
																	<out>-1</out>
																</marker>
															<link>
																<linkclipref>clipitem-1079</linkclipref>
																<mediatype>video</mediatype>
																<trackindex>5</trackindex>
																<clipindex>1</clipindex>
															</link>
															<link>
																<linkclipref>clipitem-1084</linkclipref>
																<mediatype>audio</mediatype>
																<trackindex>7</trackindex>
																<clipindex>1</clipindex>
																<groupindex>1</groupindex>
															</link>
															<link>
																<linkclipref>clipitem-1085</linkclipref>
																<mediatype>audio</mediatype>
																<trackindex>8</trackindex>
																<clipindex>1</clipindex>
																<groupindex>1</groupindex>
															</link>
															<labels>
																<label2>Teal</label2>
															</labels>
														</clipitem>
														<enabled>TRUE</enabled>
														<locked>FALSE</locked>
													</track>
												</video>
												<audio>
													<numOutputChannels>2</numOutputChannels>
													<format>
														<samplecharacteristics>
															<depth>16</depth>
															<samplerate>44100</samplerate>
														</samplecharacteristics>
													</format>
													<outputs>
														<group>
															<index>1</index>
															<numchannels>1</numchannels>
															<downmix>0</downmix>
															<channel>
																<index>1</index>
															</channel>
														</group>
														<group>
															<index>2</index>
															<numchannels>1</numchannels>
															<downmix>0</downmix>
															<channel>
																<index>2</index>
															</channel>
														</group>
													</outputs>
													<track TL.SQTrackAudioKeyframeStyle="0" TL.SQTrackShy="0" TL.SQTrackExpandedHeight="25" TL.SQTrackExpanded="0" MZ.TrackTargeted="1" PannerCurrentValue="0.5" PannerIsInverted="true" PannerStartKeyframe="-91445760000000000,0.5,0,0,0,0,0,0" PannerName="Balance" currentExplodedTrackIndex="0" totalExplodedTrackCount="2" premiereTrackType="Stereo">
														<transitionitem>
															<start>0</start>
															<end>30</end>
															<pproTicksIn>0</pproTicksIn>
															<pproTicksOut>254270016000</pproTicksOut>
															<alignment>start-black</alignment>
															<cutPointTicks>0</cutPointTicks>
															<rate>
																<timebase>30</timebase>
																<ntsc>TRUE</ntsc>
															</rate>
															<effect>
																<name>Cross Fade (+3dB)</name>
																<effectid>KGAudioTransCrossFade3dB</effectid>
																<effecttype>transition</effecttype>
																<mediatype>audio</mediatype>
																<wipecode>0</wipecode>
																<wipeaccuracy>100</wipeaccuracy>
																<startratio>0</startratio>
																<endratio>1</endratio>
																<reverse>FALSE</reverse>
															</effect>
														</transitionitem>
														<clipitem id="clipitem-1080" premiereChannelType="stereo">
															<masterclipid>masterclip-21</masterclipid>
															<name>ES_Girl Like You (Instrumental Version) - Flux Vortex.mp3</name>
															<enabled>TRUE</enabled>
															<duration>7073</duration>
															<rate>
																<timebase>30</timebase>
																<ntsc>TRUE</ntsc>
															</rate>
															<start>-1</start>
															<end>-1</end>
															<in>1599</in>
															<out>5021</out>
															<pproTicksIn>13552591852800</pproTicksIn>
															<pproTicksOut>42556325011200</pproTicksOut>
															<file id="file-21"/>
															<sourcetrack>
																<mediatype>audio</mediatype>
																<trackindex>1</trackindex>
															</sourcetrack>
															<link>
																<linkclipref>clipitem-1080</linkclipref>
																<mediatype>audio</mediatype>
																<trackindex>1</trackindex>
																<clipindex>2</clipindex>
																<groupindex>1</groupindex>
															</link>
															<link>
																<linkclipref>clipitem-1082</linkclipref>
																<mediatype>audio</mediatype>
																<trackindex>2</trackindex>
																<clipindex>2</clipindex>
																<groupindex>1</groupindex>
															</link>
															<logginginfo>
																<description></description>
																<scene></scene>
																<shottake></shottake>
																<lognote></lognote>
																<good></good>
																<originalvideofilename></originalvideofilename>
																<originalaudiofilename></originalaudiofilename>
															</logginginfo>
															<colorinfo>
																<lut></lut>
																<lut1></lut1>
																<asc_sop></asc_sop>
																<asc_sat></asc_sat>
																<lut2></lut2>
															</colorinfo>
															<labels>
																<label2>Forest</label2>
															</labels>
														</clipitem>
														<transitionitem>
															<start>3332</start>
															<end>3422</end>
															<pproTicksIn>28240923110400</pproTicksIn>
															<pproTicksOut>29003733158400</pproTicksOut>
															<alignment>end-black</alignment>
															<cutPointTicks>762810048000</cutPointTicks>
															<rate>
																<timebase>30</timebase>
																<ntsc>TRUE</ntsc>
															</rate>
															<effect>
																<name>Cross Fade (+3dB)</name>
																<effectid>KGAudioTransCrossFade3dB</effectid>
																<effecttype>transition</effecttype>
																<mediatype>audio</mediatype>
																<wipecode>0</wipecode>
																<wipeaccuracy>100</wipeaccuracy>
																<startratio>0</startratio>
																<endratio>1</endratio>
																<reverse>FALSE</reverse>
															</effect>
														</transitionitem>
														<clipitem id="clipitem-1081" premiereChannelType="stereo">
															<masterclipid>masterclip-228</masterclipid>
															<name>1255nest</name>
															<enabled>TRUE</enabled>
															<duration>1922</duration>
															<rate>
																<timebase>30</timebase>
																<ntsc>TRUE</ntsc>
															</rate>
															<start>3533</start>
															<end>5455</end>
															<in>0</in>
															<out>1922</out>
															<pproTicksIn>0</pproTicksIn>
															<pproTicksOut>16290232358400</pproTicksOut>
															<sequence id="sequence-37"/>
															<sourcetrack>
																<mediatype>audio</mediatype>
																<trackindex>0</trackindex>
															</sourcetrack>
															<link>
																<linkclipref>clipitem-1075</linkclipref>
																<mediatype>video</mediatype>
																<trackindex>1</trackindex>
																<clipindex>2</clipindex>
															</link>
															<link>
																<linkclipref>clipitem-1081</linkclipref>
																<mediatype>audio</mediatype>
																<trackindex>1</trackindex>
																<clipindex>4</clipindex>
																<groupindex>1</groupindex>
															</link>
															<link>
																<linkclipref>clipitem-1083</linkclipref>
																<mediatype>audio</mediatype>
																<trackindex>2</trackindex>
																<clipindex>4</clipindex>
																<groupindex>1</groupindex>
															</link>
															<labels>
																<label2>Forest</label2>
															</labels>
														</clipitem>
														<enabled>TRUE</enabled>
														<locked>FALSE</locked>
														<filter>
															<effect>
																<name>Audio Levels</name>
																<effectid>audiolevels</effectid>
																<effectcategory>audiolevels</effectcategory>
																<effecttype>audiolevels</effecttype>
																<mediatype>audio</mediatype>
																<parameter authoringApp="PremierePro">
																	<parameterid>level</parameterid>
																	<name>Level</name>
																	<valuemin>0</valuemin>
																	<valuemax>3.98109</valuemax>
																	<value>0.706272</value>
																</parameter>
															</effect>
														</filter>
														<outputchannelindex>1</outputchannelindex>
													</track>
													<track TL.SQTrackAudioKeyframeStyle="0" TL.SQTrackShy="0" TL.SQTrackExpandedHeight="25" TL.SQTrackExpanded="0" MZ.TrackTargeted="1" PannerCurrentValue="0.5" PannerIsInverted="true" PannerStartKeyframe="-91445760000000000,0.5,0,0,0,0,0,0" PannerName="Balance" currentExplodedTrackIndex="1" totalExplodedTrackCount="2" premiereTrackType="Stereo">
														<transitionitem>
															<start>0</start>
															<end>30</end>
															<pproTicksIn>0</pproTicksIn>
															<pproTicksOut>254270016000</pproTicksOut>
															<alignment>start-black</alignment>
															<cutPointTicks>0</cutPointTicks>
															<rate>
																<timebase>30</timebase>
																<ntsc>TRUE</ntsc>
															</rate>
															<effect>
																<name>Cross Fade (+3dB)</name>
																<effectid>KGAudioTransCrossFade3dB</effectid>
																<effecttype>transition</effecttype>
																<mediatype>audio</mediatype>
																<wipecode>0</wipecode>
																<wipeaccuracy>100</wipeaccuracy>
																<startratio>0</startratio>
																<endratio>1</endratio>
																<reverse>FALSE</reverse>
															</effect>
														</transitionitem>
														<clipitem id="clipitem-1082" premiereChannelType="stereo">
															<masterclipid>masterclip-21</masterclipid>
															<name>ES_Girl Like You (Instrumental Version) - Flux Vortex.mp3</name>
															<enabled>TRUE</enabled>
															<duration>7073</duration>
															<rate>
																<timebase>30</timebase>
																<ntsc>TRUE</ntsc>
															</rate>
															<start>-1</start>
															<end>-1</end>
															<in>1599</in>
															<out>5021</out>
															<pproTicksIn>13552591852800</pproTicksIn>
															<pproTicksOut>42556325011200</pproTicksOut>
															<file id="file-21"/>
															<sourcetrack>
																<mediatype>audio</mediatype>
																<trackindex>2</trackindex>
															</sourcetrack>
															<link>
																<linkclipref>clipitem-1080</linkclipref>
																<mediatype>audio</mediatype>
																<trackindex>1</trackindex>
																<clipindex>2</clipindex>
																<groupindex>1</groupindex>
															</link>
															<link>
																<linkclipref>clipitem-1082</linkclipref>
																<mediatype>audio</mediatype>
																<trackindex>2</trackindex>
																<clipindex>2</clipindex>
																<groupindex>1</groupindex>
															</link>
															<logginginfo>
																<description></description>
																<scene></scene>
																<shottake></shottake>
																<lognote></lognote>
																<good></good>
																<originalvideofilename></originalvideofilename>
																<originalaudiofilename></originalaudiofilename>
															</logginginfo>
															<colorinfo>
																<lut></lut>
																<lut1></lut1>
																<asc_sop></asc_sop>
																<asc_sat></asc_sat>
																<lut2></lut2>
															</colorinfo>
															<labels>
																<label2>Forest</label2>
															</labels>
														</clipitem>
														<transitionitem>
															<start>3332</start>
															<end>3422</end>
															<pproTicksIn>28240923110400</pproTicksIn>
															<pproTicksOut>29003733158400</pproTicksOut>
															<alignment>end-black</alignment>
															<cutPointTicks>762810048000</cutPointTicks>
															<rate>
																<timebase>30</timebase>
																<ntsc>TRUE</ntsc>
															</rate>
															<effect>
																<name>Cross Fade (+3dB)</name>
																<effectid>KGAudioTransCrossFade3dB</effectid>
																<effecttype>transition</effecttype>
																<mediatype>audio</mediatype>
																<wipecode>0</wipecode>
																<wipeaccuracy>100</wipeaccuracy>
																<startratio>0</startratio>
																<endratio>1</endratio>
																<reverse>FALSE</reverse>
															</effect>
														</transitionitem>
														<clipitem id="clipitem-1083" premiereChannelType="stereo">
															<masterclipid>masterclip-228</masterclipid>
															<name>1255nest</name>
															<enabled>TRUE</enabled>
															<duration>1922</duration>
															<rate>
																<timebase>30</timebase>
																<ntsc>TRUE</ntsc>
															</rate>
															<start>3533</start>
															<end>5455</end>
															<in>0</in>
															<out>1922</out>
															<pproTicksIn>0</pproTicksIn>
															<pproTicksOut>16290232358400</pproTicksOut>
															<sequence id="sequence-37"/>
															<sourcetrack>
																<mediatype>audio</mediatype>
																<trackindex>1</trackindex>
															</sourcetrack>
															<link>
																<linkclipref>clipitem-1075</linkclipref>
																<mediatype>video</mediatype>
																<trackindex>1</trackindex>
																<clipindex>2</clipindex>
															</link>
															<link>
																<linkclipref>clipitem-1081</linkclipref>
																<mediatype>audio</mediatype>
																<trackindex>1</trackindex>
																<clipindex>4</clipindex>
																<groupindex>1</groupindex>
															</link>
															<link>
																<linkclipref>clipitem-1083</linkclipref>
																<mediatype>audio</mediatype>
																<trackindex>2</trackindex>
																<clipindex>4</clipindex>
																<groupindex>1</groupindex>
															</link>
															<labels>
																<label2>Forest</label2>
															</labels>
														</clipitem>
														<enabled>TRUE</enabled>
														<locked>FALSE</locked>
														<filter>
															<effect>
																<name>Audio Levels</name>
																<effectid>audiolevels</effectid>
																<effectcategory>audiolevels</effectcategory>
																<effecttype>audiolevels</effecttype>
																<mediatype>audio</mediatype>
																<parameter authoringApp="PremierePro">
																	<parameterid>level</parameterid>
																	<name>Level</name>
																	<valuemin>0</valuemin>
																	<valuemax>3.98109</valuemax>
																	<value>0.706272</value>
																</parameter>
															</effect>
														</filter>
														<outputchannelindex>2</outputchannelindex>
													</track>
													<track TL.SQTrackAudioKeyframeStyle="0" TL.SQTrackShy="0" TL.SQTrackExpandedHeight="25" TL.SQTrackExpanded="0" MZ.TrackTargeted="0" PannerCurrentValue="0.5" PannerIsInverted="true" PannerStartKeyframe="-91445760000000000,0.5,0,0,0,0,0,0" PannerName="Balance" currentExplodedTrackIndex="0" totalExplodedTrackCount="2" premiereTrackType="Stereo">
														<enabled>TRUE</enabled>
														<locked>FALSE</locked>
														<filter>
															<effect>
																<name>Audio Levels</name>
																<effectid>audiolevels</effectid>
																<effectcategory>audiolevels</effectcategory>
																<effecttype>audiolevels</effecttype>
																<mediatype>audio</mediatype>
																<parameter authoringApp="PremierePro">
																	<parameterid>level</parameterid>
																	<name>Level</name>
																	<valuemin>0</valuemin>
																	<valuemax>3.98109</valuemax>
																	<value>0.706272</value>
																</parameter>
															</effect>
														</filter>
														<outputchannelindex>1</outputchannelindex>
													</track>
													<track TL.SQTrackAudioKeyframeStyle="0" TL.SQTrackShy="0" TL.SQTrackExpandedHeight="25" TL.SQTrackExpanded="0" MZ.TrackTargeted="0" PannerCurrentValue="0.5" PannerIsInverted="true" PannerStartKeyframe="-91445760000000000,0.5,0,0,0,0,0,0" PannerName="Balance" currentExplodedTrackIndex="1" totalExplodedTrackCount="2" premiereTrackType="Stereo">
														<enabled>TRUE</enabled>
														<locked>FALSE</locked>
														<filter>
															<effect>
																<name>Audio Levels</name>
																<effectid>audiolevels</effectid>
																<effectcategory>audiolevels</effectcategory>
																<effecttype>audiolevels</effecttype>
																<mediatype>audio</mediatype>
																<parameter authoringApp="PremierePro">
																	<parameterid>level</parameterid>
																	<name>Level</name>
																	<valuemin>0</valuemin>
																	<valuemax>3.98109</valuemax>
																	<value>0.706272</value>
																</parameter>
															</effect>
														</filter>
														<outputchannelindex>2</outputchannelindex>
													</track>
													<track TL.SQTrackAudioKeyframeStyle="0" TL.SQTrackShy="0" TL.SQTrackExpandedHeight="25" TL.SQTrackExpanded="0" MZ.TrackTargeted="0" PannerCurrentValue="0.5" PannerIsInverted="true" PannerStartKeyframe="-91445760000000000,0.5,0,0,0,0,0,0" PannerName="Balance" currentExplodedTrackIndex="0" totalExplodedTrackCount="2" premiereTrackType="Stereo">
														<enabled>TRUE</enabled>
														<locked>FALSE</locked>
														<outputchannelindex>1</outputchannelindex>
													</track>
													<track TL.SQTrackAudioKeyframeStyle="0" TL.SQTrackShy="0" TL.SQTrackExpandedHeight="25" TL.SQTrackExpanded="0" MZ.TrackTargeted="0" PannerCurrentValue="0.5" PannerIsInverted="true" PannerStartKeyframe="-91445760000000000,0.5,0,0,0,0,0,0" PannerName="Balance" currentExplodedTrackIndex="1" totalExplodedTrackCount="2" premiereTrackType="Stereo">
														<enabled>TRUE</enabled>
														<locked>FALSE</locked>
														<outputchannelindex>2</outputchannelindex>
													</track>
													<track TL.SQTrackAudioKeyframeStyle="0" TL.SQTrackShy="0" TL.SQTrackExpandedHeight="25" TL.SQTrackExpanded="0" MZ.TrackTargeted="0" PannerCurrentValue="0.5" PannerIsInverted="true" PannerStartKeyframe="-91445760000000000,0.5,0,0,0,0,0,0" PannerName="Balance" currentExplodedTrackIndex="0" totalExplodedTrackCount="2" premiereTrackType="Stereo">
														<clipitem id="clipitem-1084" premiereChannelType="stereo">
															<masterclipid>masterclip-194</masterclipid>
															<name>OS Trans 01</name>
															<enabled>TRUE</enabled>
															<duration>417</duration>
															<rate>
																<timebase>30</timebase>
																<ntsc>TRUE</ntsc>
															</rate>
															<start>3400</start>
															<end>3589</end>
															<in>0</in>
															<out>189</out>
															<pproTicksIn>0</pproTicksIn>
															<pproTicksOut>1601901100800</pproTicksOut>
															<sequence id="sequence-5"/>
															<sourcetrack>
																<mediatype>audio</mediatype>
																<trackindex>0</trackindex>
															</sourcetrack>
																<marker>
																	<comment></comment>
																	<name></name>
																	<in>133</in>
																	<out>-1</out>
																</marker>
																<marker>
																	<comment></comment>
																	<name></name>
																	<in>22</in>
																	<out>-1</out>
																</marker>
															<link>
																<linkclipref>clipitem-1079</linkclipref>
																<mediatype>video</mediatype>
																<trackindex>5</trackindex>
																<clipindex>1</clipindex>
															</link>
															<link>
																<linkclipref>clipitem-1084</linkclipref>
																<mediatype>audio</mediatype>
																<trackindex>7</trackindex>
																<clipindex>1</clipindex>
																<groupindex>1</groupindex>
															</link>
															<link>
																<linkclipref>clipitem-1085</linkclipref>
																<mediatype>audio</mediatype>
																<trackindex>8</trackindex>
																<clipindex>1</clipindex>
																<groupindex>1</groupindex>
															</link>
															<labels>
																<label2>Teal</label2>
															</labels>
														</clipitem>
														<enabled>TRUE</enabled>
														<locked>FALSE</locked>
														<outputchannelindex>1</outputchannelindex>
													</track>
													<track TL.SQTrackAudioKeyframeStyle="0" TL.SQTrackShy="0" TL.SQTrackExpandedHeight="25" TL.SQTrackExpanded="0" MZ.TrackTargeted="0" PannerCurrentValue="0.5" PannerIsInverted="true" PannerStartKeyframe="-91445760000000000,0.5,0,0,0,0,0,0" PannerName="Balance" currentExplodedTrackIndex="1" totalExplodedTrackCount="2" premiereTrackType="Stereo">
														<clipitem id="clipitem-1085" premiereChannelType="stereo">
															<masterclipid>masterclip-194</masterclipid>
															<name>OS Trans 01</name>
															<enabled>TRUE</enabled>
															<duration>417</duration>
															<rate>
																<timebase>30</timebase>
																<ntsc>TRUE</ntsc>
															</rate>
															<start>3400</start>
															<end>3589</end>
															<in>0</in>
															<out>189</out>
															<pproTicksIn>0</pproTicksIn>
															<pproTicksOut>1601901100800</pproTicksOut>
															<sequence id="sequence-5"/>
															<sourcetrack>
																<mediatype>audio</mediatype>
																<trackindex>1</trackindex>
															</sourcetrack>
																<marker>
																	<comment></comment>
																	<name></name>
																	<in>133</in>
																	<out>-1</out>
																</marker>
																<marker>
																	<comment></comment>
																	<name></name>
																	<in>22</in>
																	<out>-1</out>
																</marker>
															<link>
																<linkclipref>clipitem-1079</linkclipref>
																<mediatype>video</mediatype>
																<trackindex>5</trackindex>
																<clipindex>1</clipindex>
															</link>
															<link>
																<linkclipref>clipitem-1084</linkclipref>
																<mediatype>audio</mediatype>
																<trackindex>7</trackindex>
																<clipindex>1</clipindex>
																<groupindex>1</groupindex>
															</link>
															<link>
																<linkclipref>clipitem-1085</linkclipref>
																<mediatype>audio</mediatype>
																<trackindex>8</trackindex>
																<clipindex>1</clipindex>
																<groupindex>1</groupindex>
															</link>
															<labels>
																<label2>Teal</label2>
															</labels>
														</clipitem>
														<enabled>TRUE</enabled>
														<locked>FALSE</locked>
														<outputchannelindex>2</outputchannelindex>
													</track>
												</audio>
											</media>
											<timecode>
												<rate>
													<timebase>30</timebase>
													<ntsc>TRUE</ntsc>
												</rate>
												<string>00:00:00:00</string>
												<frame>0</frame>
												<displayformat>NDF</displayformat>
											</timecode>
											<logginginfo>
												<description></description>
												<scene></scene>
												<shottake></shottake>
												<lognote></lognote>
												<good></good>
												<originalvideofilename></originalvideofilename>
												<originalaudiofilename></originalaudiofilename>
											</logginginfo>
										</sequence>
										<filter>
											<effect>
												<name>Basic Motion</name>
												<effectid>basic</effectid>
												<effectcategory>motion</effectcategory>
												<effecttype>motion</effecttype>
												<mediatype>video</mediatype>
												<pproBypass>false</pproBypass>
												<parameter authoringApp="PremierePro">
													<parameterid>scale</parameterid>
													<name>Scale</name>
													<valuemin>0</valuemin>
													<valuemax>1000</valuemax>
													<value>66.6667</value>
												</parameter>
												<parameter authoringApp="PremierePro">
													<parameterid>rotation</parameterid>
													<name>Rotation</name>
													<valuemin>-8640</valuemin>
													<valuemax>8640</valuemax>
													<value>0</value>
												</parameter>
												<parameter authoringApp="PremierePro">
													<parameterid>center</parameterid>
													<name>Center</name>
													<value>
														<horiz>-0.5</horiz>
														<vert>-0.5</vert>
													</value>
												</parameter>
												<parameter authoringApp="PremierePro">
													<parameterid>centerOffset</parameterid>
													<name>Anchor Point</name>
													<value>
														<horiz>0</horiz>
														<vert>0</vert>
													</value>
												</parameter>
												<parameter authoringApp="PremierePro">
													<parameterid>antiflicker</parameterid>
													<name>Anti-flicker Filter</name>
													<valuemin>0.0</valuemin>
													<valuemax>1.0</valuemax>
													<value>0</value>
												</parameter>
											</effect>
										</filter>
										<link>
											<linkclipref>clipitem-1073</linkclipref>
											<mediatype>video</mediatype>
											<trackindex>1</trackindex>
											<clipindex>11</clipindex>
										</link>
										<link>
											<linkclipref>clipitem-1130</linkclipref>
											<mediatype>audio</mediatype>
											<trackindex>1</trackindex>
											<clipindex>11</clipindex>
											<groupindex>1</groupindex>
										</link>
										<link>
											<linkclipref>clipitem-1144</linkclipref>
											<mediatype>audio</mediatype>
											<trackindex>2</trackindex>
											<clipindex>11</clipindex>
											<groupindex>1</groupindex>
										</link>
										<labels>
											<label2>Forest</label2>
										</labels>
									</clipitem>
									<clipitem id="clipitem-1086">
										<masterclipid>masterclip-229</masterclipid>
										<name>TEMPLATE Copy 2534</name>
										<enabled>TRUE</enabled>
										<duration>96212</duration>
										<rate>
											<timebase>30</timebase>
											<ntsc>TRUE</ntsc>
										</rate>
										<start>89880</start>
										<end>95268</end>
										<in>0</in>
										<out>5388</out>
										<pproTicksIn>0</pproTicksIn>
										<pproTicksOut>45666894873600</pproTicksOut>
										<sequence id="sequence-82" TL.SQAudioVisibleBase="0" TL.SQVideoVisibleBase="0" TL.SQVisibleBaseTime="0" TL.SQAVDividerPosition="0.5" TL.SQHideShyTracks="0" TL.SQHeaderWidth="236" TL.SQDataTrackViewControlState="0" Monitor.ProgramZoomOut="45675370540800" Monitor.ProgramZoomIn="0" TL.SQTimePerPixel="0.13818516812528556" AM.TrackVScrollPosition="0" AM.TrackScrollPosition="0" MZ.EditLine="0" MZ.Sequence.PreviewFrameSizeHeight="1080" MZ.Sequence.PreviewFrameSizeWidth="1920" MZ.Sequence.AudioTimeDisplayFormat="200" MZ.Sequence.PreviewRenderingClassID="1297106761" MZ.Sequence.PreviewRenderingPresetCodec="1297107278" MZ.Sequence.PreviewRenderingPresetPath="EncoderPresets/SequencePreview/795454d9-d3c2-429d-9474-923ab13b7018/I-Frame Only MPEG.epr" MZ.Sequence.PreviewUseMaxRenderQuality="false" MZ.Sequence.PreviewUseMaxBitDepth="false" MZ.Sequence.EditingModeGUID="795454d9-d3c2-429d-9474-923ab13b7018" MZ.Sequence.VideoTimeDisplayFormat="103" MZ.WorkOutPoint="15705411321600" MZ.WorkInPoint="0">
											<duration>5389</duration>
											<rate>
												<timebase>30</timebase>
												<ntsc>TRUE</ntsc>
											</rate>
											<name>ATM_ODDLY SATISFYING_1554</name>
											<media>
												<video>
													<format>
														<samplecharacteristics>
															<rate>
																<timebase>30</timebase>
																<ntsc>TRUE</ntsc>
															</rate>
															<codec>
																<name>Apple ProRes 422</name>
																<appspecificdata>
																	<appname>Final Cut Pro</appname>
																	<appmanufacturer>Apple Inc.</appmanufacturer>
																	<appversion>7.0</appversion>
																	<data>
																		<qtcodec>
																			<codecname>Apple ProRes 422</codecname>
																			<codectypename>Apple ProRes 422</codectypename>
																			<codectypecode>apcn</codectypecode>
																			<codecvendorcode>appl</codecvendorcode>
																			<spatialquality>1024</spatialquality>
																			<temporalquality>0</temporalquality>
																			<keyframerate>0</keyframerate>
																			<datarate>0</datarate>
																		</qtcodec>
																	</data>
																</appspecificdata>
															</codec>
															<width>1920</width>
															<height>1080</height>
															<anamorphic>FALSE</anamorphic>
															<pixelaspectratio>square</pixelaspectratio>
															<fielddominance>none</fielddominance>
															<colordepth>24</colordepth>
														</samplecharacteristics>
													</format>
													<track TL.SQTrackShy="0" TL.SQTrackExpandedHeight="25" TL.SQTrackExpanded="0" MZ.TrackTargeted="1">
														<clipitem id="clipitem-1087">
															<masterclipid>masterclip-230</masterclipid>
															<name>4trackingnest11</name>
															<enabled>TRUE</enabled>
															<duration>2242</duration>
															<rate>
																<timebase>30</timebase>
																<ntsc>TRUE</ntsc>
															</rate>
															<start>0</start>
															<end>2242</end>
															<in>0</in>
															<out>2242</out>
															<pproTicksIn>0</pproTicksIn>
															<pproTicksOut>19002445862400</pproTicksOut>
															<sequence id="sequence-38"/>
															<labels>
																<label2>Forest</label2>
															</labels>
														</clipitem>
														<clipitem id="clipitem-1088">
															<masterclipid>masterclip-231</masterclipid>
															<name>1274nest</name>
															<enabled>TRUE</enabled>
															<duration>2979</duration>
															<rate>
																<timebase>30</timebase>
																<ntsc>TRUE</ntsc>
															</rate>
															<start>2410</start>
															<end>-1</end>
															<in>0</in>
															<out>2979</out>
															<pproTicksIn>0</pproTicksIn>
															<pproTicksOut>25249012588800</pproTicksOut>
															<sequence id="sequence-39"/>
															<link>
																<linkclipref>clipitem-1088</linkclipref>
																<mediatype>video</mediatype>
																<trackindex>1</trackindex>
																<clipindex>2</clipindex>
															</link>
															<link>
																<linkclipref>clipitem-1092</linkclipref>
																<mediatype>audio</mediatype>
																<trackindex>1</trackindex>
																<clipindex>4</clipindex>
																<groupindex>1</groupindex>
															</link>
															<link>
																<linkclipref>clipitem-1094</linkclipref>
																<mediatype>audio</mediatype>
																<trackindex>2</trackindex>
																<clipindex>4</clipindex>
																<groupindex>1</groupindex>
															</link>
															<labels>
																<label2>Forest</label2>
															</labels>
														</clipitem>
														<transitionitem>
															<start>5359</start>
															<end>5389</end>
															<alignment>end-black</alignment>
															<cutPointTicks>254270016000</cutPointTicks>
															<rate>
																<timebase>30</timebase>
																<ntsc>TRUE</ntsc>
															</rate>
															<effect>
																<name>Cross Dissolve</name>
																<effectid>Cross Dissolve</effectid>
																<effectcategory>Dissolve</effectcategory>
																<effecttype>transition</effecttype>
																<mediatype>video</mediatype>
																<wipecode>0</wipecode>
																<wipeaccuracy>100</wipeaccuracy>
																<startratio>0</startratio>
																<endratio>1</endratio>
																<reverse>FALSE</reverse>
															</effect>
														</transitionitem>
														<enabled>TRUE</enabled>
														<locked>FALSE</locked>
													</track>
													<track TL.SQTrackShy="0" TL.SQTrackExpandedHeight="25" TL.SQTrackExpanded="0" MZ.TrackTargeted="0">
														<clipitem id="clipitem-1089">
															<masterclipid>masterclip-106</masterclipid>
															<name>Bug and Lower Nest</name>
															<enabled>TRUE</enabled>
															<duration>14721</duration>
															<rate>
																<timebase>30</timebase>
																<ntsc>TRUE</ntsc>
															</rate>
															<start>0</start>
															<end>2242</end>
															<in>0</in>
															<out>2242</out>
															<pproTicksIn>0</pproTicksIn>
															<pproTicksOut>19002445862400</pproTicksOut>
															<sequence id="sequence-1"/>
															<labels>
																<label2>Cerulean</label2>
															</labels>
														</clipitem>
														<enabled>TRUE</enabled>
														<locked>FALSE</locked>
													</track>
													<track TL.SQTrackShy="0" TL.SQTrackExpandedHeight="25" TL.SQTrackExpanded="0" MZ.TrackTargeted="0">
														<clipitem id="clipitem-1090">
															<masterclipid>masterclip-207</masterclipid>
															<name>OS Trans 04</name>
															<enabled>TRUE</enabled>
															<duration>2613</duration>
															<rate>
																<timebase>30</timebase>
																<ntsc>TRUE</ntsc>
															</rate>
															<start>2235</start>
															<end>2443</end>
															<in>0</in>
															<out>208</out>
															<pproTicksIn>0</pproTicksIn>
															<pproTicksOut>1762938777600</pproTicksOut>
															<sequence id="sequence-6"/>
																<marker>
																	<comment></comment>
																	<name></name>
																	<in>7</in>
																	<out>-1</out>
																</marker>
																<marker>
																	<comment></comment>
																	<name></name>
																	<in>175</in>
																	<out>-1</out>
																</marker>
															<link>
																<linkclipref>clipitem-1090</linkclipref>
																<mediatype>video</mediatype>
																<trackindex>3</trackindex>
																<clipindex>1</clipindex>
															</link>
															<link>
																<linkclipref>clipitem-1095</linkclipref>
																<mediatype>audio</mediatype>
																<trackindex>5</trackindex>
																<clipindex>1</clipindex>
																<groupindex>1</groupindex>
															</link>
															<link>
																<linkclipref>clipitem-1096</linkclipref>
																<mediatype>audio</mediatype>
																<trackindex>6</trackindex>
																<clipindex>1</clipindex>
																<groupindex>1</groupindex>
															</link>
															<labels>
																<label2>Blue</label2>
															</labels>
														</clipitem>
														<enabled>TRUE</enabled>
														<locked>FALSE</locked>
													</track>
													<track TL.SQTrackShy="0" TL.SQTrackExpandedHeight="25" TL.SQTrackExpanded="0" MZ.TrackTargeted="0">
														<enabled>TRUE</enabled>
														<locked>FALSE</locked>
													</track>
												</video>
												<audio>
													<numOutputChannels>2</numOutputChannels>
													<format>
														<samplecharacteristics>
															<depth>16</depth>
															<samplerate>44100</samplerate>
														</samplecharacteristics>
													</format>
													<outputs>
														<group>
															<index>1</index>
															<numchannels>1</numchannels>
															<downmix>0</downmix>
															<channel>
																<index>1</index>
															</channel>
														</group>
														<group>
															<index>2</index>
															<numchannels>1</numchannels>
															<downmix>0</downmix>
															<channel>
																<index>2</index>
															</channel>
														</group>
													</outputs>
													<track TL.SQTrackAudioKeyframeStyle="0" TL.SQTrackShy="0" TL.SQTrackExpandedHeight="25" TL.SQTrackExpanded="0" MZ.TrackTargeted="1" PannerCurrentValue="0.5" PannerIsInverted="true" PannerStartKeyframe="-91445760000000000,0.5,0,0,0,0,0,0" PannerName="Balance" currentExplodedTrackIndex="0" totalExplodedTrackCount="2" premiereTrackType="Stereo">
														<transitionitem>
															<start>0</start>
															<end>30</end>
															<pproTicksIn>0</pproTicksIn>
															<pproTicksOut>254270016000</pproTicksOut>
															<alignment>start-black</alignment>
															<cutPointTicks>0</cutPointTicks>
															<rate>
																<timebase>30</timebase>
																<ntsc>TRUE</ntsc>
															</rate>
															<effect>
																<name>Cross Fade (+3dB)</name>
																<effectid>KGAudioTransCrossFade3dB</effectid>
																<effecttype>transition</effecttype>
																<mediatype>audio</mediatype>
																<wipecode>0</wipecode>
																<wipeaccuracy>100</wipeaccuracy>
																<startratio>0</startratio>
																<endratio>1</endratio>
																<reverse>FALSE</reverse>
															</effect>
														</transitionitem>
														<clipitem id="clipitem-1091" premiereChannelType="stereo">
															<masterclipid>masterclip-23</masterclipid>
															<name>ES_I Don't Mind (Instrumental Version) - Particle House.mp3</name>
															<enabled>TRUE</enabled>
															<duration>5971</duration>
															<rate>
																<timebase>30</timebase>
																<ntsc>TRUE</ntsc>
															</rate>
															<start>-1</start>
															<end>-1</end>
															<in>274</in>
															<out>2516</out>
															<pproTicksIn>2322332812800</pproTicksIn>
															<pproTicksOut>21324778675200</pproTicksOut>
															<file id="file-23"/>
															<sourcetrack>
																<mediatype>audio</mediatype>
																<trackindex>1</trackindex>
															</sourcetrack>
															<link>
																<linkclipref>clipitem-1091</linkclipref>
																<mediatype>audio</mediatype>
																<trackindex>1</trackindex>
																<clipindex>2</clipindex>
																<groupindex>1</groupindex>
															</link>
															<link>
																<linkclipref>clipitem-1093</linkclipref>
																<mediatype>audio</mediatype>
																<trackindex>2</trackindex>
																<clipindex>2</clipindex>
																<groupindex>1</groupindex>
															</link>
															<logginginfo>
																<description></description>
																<scene></scene>
																<shottake></shottake>
																<lognote></lognote>
																<good></good>
																<originalvideofilename></originalvideofilename>
																<originalaudiofilename></originalaudiofilename>
															</logginginfo>
															<colorinfo>
																<lut></lut>
																<lut1></lut1>
																<asc_sop></asc_sop>
																<asc_sat></asc_sat>
																<lut2></lut2>
															</colorinfo>
															<labels>
																<label2>Cerulean</label2>
															</labels>
														</clipitem>
														<transitionitem>
															<start>2153</start>
															<end>2242</end>
															<pproTicksIn>18239639040000</pproTicksIn>
															<pproTicksOut>19002445862400</pproTicksOut>
															<alignment>end-black</alignment>
															<cutPointTicks>762806822400</cutPointTicks>
															<rate>
																<timebase>30</timebase>
																<ntsc>TRUE</ntsc>
															</rate>
															<effect>
																<name>Cross Fade (+3dB)</name>
																<effectid>KGAudioTransCrossFade3dB</effectid>
																<effecttype>transition</effecttype>
																<mediatype>audio</mediatype>
																<wipecode>0</wipecode>
																<wipeaccuracy>100</wipeaccuracy>
																<startratio>0</startratio>
																<endratio>1</endratio>
																<reverse>FALSE</reverse>
															</effect>
														</transitionitem>
														<clipitem id="clipitem-1092" premiereChannelType="stereo">
															<masterclipid>masterclip-231</masterclipid>
															<name>1274nest</name>
															<enabled>TRUE</enabled>
															<duration>2979</duration>
															<rate>
																<timebase>30</timebase>
																<ntsc>TRUE</ntsc>
															</rate>
															<start>2410</start>
															<end>5389</end>
															<in>0</in>
															<out>2979</out>
															<pproTicksIn>0</pproTicksIn>
															<pproTicksOut>25249012588800</pproTicksOut>
															<sequence id="sequence-39"/>
															<sourcetrack>
																<mediatype>audio</mediatype>
																<trackindex>0</trackindex>
															</sourcetrack>
															<link>
																<linkclipref>clipitem-1088</linkclipref>
																<mediatype>video</mediatype>
																<trackindex>1</trackindex>
																<clipindex>2</clipindex>
															</link>
															<link>
																<linkclipref>clipitem-1092</linkclipref>
																<mediatype>audio</mediatype>
																<trackindex>1</trackindex>
																<clipindex>4</clipindex>
																<groupindex>1</groupindex>
															</link>
															<link>
																<linkclipref>clipitem-1094</linkclipref>
																<mediatype>audio</mediatype>
																<trackindex>2</trackindex>
																<clipindex>4</clipindex>
																<groupindex>1</groupindex>
															</link>
															<labels>
																<label2>Forest</label2>
															</labels>
														</clipitem>
														<enabled>TRUE</enabled>
														<locked>FALSE</locked>
														<filter>
															<effect>
																<name>Audio Levels</name>
																<effectid>audiolevels</effectid>
																<effectcategory>audiolevels</effectcategory>
																<effecttype>audiolevels</effecttype>
																<mediatype>audio</mediatype>
																<parameter authoringApp="PremierePro">
																	<parameterid>level</parameterid>
																	<name>Level</name>
																	<valuemin>0</valuemin>
																	<valuemax>3.98109</valuemax>
																	<value>0.706272</value>
																</parameter>
															</effect>
														</filter>
														<outputchannelindex>1</outputchannelindex>
													</track>
													<track TL.SQTrackAudioKeyframeStyle="0" TL.SQTrackShy="0" TL.SQTrackExpandedHeight="25" TL.SQTrackExpanded="0" MZ.TrackTargeted="1" PannerCurrentValue="0.5" PannerIsInverted="true" PannerStartKeyframe="-91445760000000000,0.5,0,0,0,0,0,0" PannerName="Balance" currentExplodedTrackIndex="1" totalExplodedTrackCount="2" premiereTrackType="Stereo">
														<transitionitem>
															<start>0</start>
															<end>30</end>
															<pproTicksIn>0</pproTicksIn>
															<pproTicksOut>254270016000</pproTicksOut>
															<alignment>start-black</alignment>
															<cutPointTicks>0</cutPointTicks>
															<rate>
																<timebase>30</timebase>
																<ntsc>TRUE</ntsc>
															</rate>
															<effect>
																<name>Cross Fade (+3dB)</name>
																<effectid>KGAudioTransCrossFade3dB</effectid>
																<effecttype>transition</effecttype>
																<mediatype>audio</mediatype>
																<wipecode>0</wipecode>
																<wipeaccuracy>100</wipeaccuracy>
																<startratio>0</startratio>
																<endratio>1</endratio>
																<reverse>FALSE</reverse>
															</effect>
														</transitionitem>
														<clipitem id="clipitem-1093" premiereChannelType="stereo">
															<masterclipid>masterclip-23</masterclipid>
															<name>ES_I Don't Mind (Instrumental Version) - Particle House.mp3</name>
															<enabled>TRUE</enabled>
															<duration>5971</duration>
															<rate>
																<timebase>30</timebase>
																<ntsc>TRUE</ntsc>
															</rate>
															<start>-1</start>
															<end>-1</end>
															<in>274</in>
															<out>2516</out>
															<pproTicksIn>2322332812800</pproTicksIn>
															<pproTicksOut>21324778675200</pproTicksOut>
															<file id="file-23"/>
															<sourcetrack>
																<mediatype>audio</mediatype>
																<trackindex>2</trackindex>
															</sourcetrack>
															<link>
																<linkclipref>clipitem-1091</linkclipref>
																<mediatype>audio</mediatype>
																<trackindex>1</trackindex>
																<clipindex>2</clipindex>
																<groupindex>1</groupindex>
															</link>
															<link>
																<linkclipref>clipitem-1093</linkclipref>
																<mediatype>audio</mediatype>
																<trackindex>2</trackindex>
																<clipindex>2</clipindex>
																<groupindex>1</groupindex>
															</link>
															<logginginfo>
																<description></description>
																<scene></scene>
																<shottake></shottake>
																<lognote></lognote>
																<good></good>
																<originalvideofilename></originalvideofilename>
																<originalaudiofilename></originalaudiofilename>
															</logginginfo>
															<colorinfo>
																<lut></lut>
																<lut1></lut1>
																<asc_sop></asc_sop>
																<asc_sat></asc_sat>
																<lut2></lut2>
															</colorinfo>
															<labels>
																<label2>Cerulean</label2>
															</labels>
														</clipitem>
														<transitionitem>
															<start>2153</start>
															<end>2242</end>
															<pproTicksIn>18239639040000</pproTicksIn>
															<pproTicksOut>19002445862400</pproTicksOut>
															<alignment>end-black</alignment>
															<cutPointTicks>762806822400</cutPointTicks>
															<rate>
																<timebase>30</timebase>
																<ntsc>TRUE</ntsc>
															</rate>
															<effect>
																<name>Cross Fade (+3dB)</name>
																<effectid>KGAudioTransCrossFade3dB</effectid>
																<effecttype>transition</effecttype>
																<mediatype>audio</mediatype>
																<wipecode>0</wipecode>
																<wipeaccuracy>100</wipeaccuracy>
																<startratio>0</startratio>
																<endratio>1</endratio>
																<reverse>FALSE</reverse>
															</effect>
														</transitionitem>
														<clipitem id="clipitem-1094" premiereChannelType="stereo">
															<masterclipid>masterclip-231</masterclipid>
															<name>1274nest</name>
															<enabled>TRUE</enabled>
															<duration>2979</duration>
															<rate>
																<timebase>30</timebase>
																<ntsc>TRUE</ntsc>
															</rate>
															<start>2410</start>
															<end>5389</end>
															<in>0</in>
															<out>2979</out>
															<pproTicksIn>0</pproTicksIn>
															<pproTicksOut>25249012588800</pproTicksOut>
															<sequence id="sequence-39"/>
															<sourcetrack>
																<mediatype>audio</mediatype>
																<trackindex>1</trackindex>
															</sourcetrack>
															<link>
																<linkclipref>clipitem-1088</linkclipref>
																<mediatype>video</mediatype>
																<trackindex>1</trackindex>
																<clipindex>2</clipindex>
															</link>
															<link>
																<linkclipref>clipitem-1092</linkclipref>
																<mediatype>audio</mediatype>
																<trackindex>1</trackindex>
																<clipindex>4</clipindex>
																<groupindex>1</groupindex>
															</link>
															<link>
																<linkclipref>clipitem-1094</linkclipref>
																<mediatype>audio</mediatype>
																<trackindex>2</trackindex>
																<clipindex>4</clipindex>
																<groupindex>1</groupindex>
															</link>
															<labels>
																<label2>Forest</label2>
															</labels>
														</clipitem>
														<enabled>TRUE</enabled>
														<locked>FALSE</locked>
														<filter>
															<effect>
																<name>Audio Levels</name>
																<effectid>audiolevels</effectid>
																<effectcategory>audiolevels</effectcategory>
																<effecttype>audiolevels</effecttype>
																<mediatype>audio</mediatype>
																<parameter authoringApp="PremierePro">
																	<parameterid>level</parameterid>
																	<name>Level</name>
																	<valuemin>0</valuemin>
																	<valuemax>3.98109</valuemax>
																	<value>0.706272</value>
																</parameter>
															</effect>
														</filter>
														<outputchannelindex>2</outputchannelindex>
													</track>
													<track TL.SQTrackAudioKeyframeStyle="0" TL.SQTrackShy="0" TL.SQTrackExpandedHeight="25" TL.SQTrackExpanded="0" MZ.TrackTargeted="0" PannerCurrentValue="0.5" PannerIsInverted="true" PannerStartKeyframe="-91445760000000000,0.5,0,0,0,0,0,0" PannerName="Balance" currentExplodedTrackIndex="0" totalExplodedTrackCount="2" premiereTrackType="Stereo">
														<enabled>TRUE</enabled>
														<locked>FALSE</locked>
														<filter>
															<effect>
																<name>Audio Levels</name>
																<effectid>audiolevels</effectid>
																<effectcategory>audiolevels</effectcategory>
																<effecttype>audiolevels</effecttype>
																<mediatype>audio</mediatype>
																<parameter authoringApp="PremierePro">
																	<parameterid>level</parameterid>
																	<name>Level</name>
																	<valuemin>0</valuemin>
																	<valuemax>3.98109</valuemax>
																	<value>0.706272</value>
																</parameter>
															</effect>
														</filter>
														<outputchannelindex>1</outputchannelindex>
													</track>
													<track TL.SQTrackAudioKeyframeStyle="0" TL.SQTrackShy="0" TL.SQTrackExpandedHeight="25" TL.SQTrackExpanded="0" MZ.TrackTargeted="0" PannerCurrentValue="0.5" PannerIsInverted="true" PannerStartKeyframe="-91445760000000000,0.5,0,0,0,0,0,0" PannerName="Balance" currentExplodedTrackIndex="1" totalExplodedTrackCount="2" premiereTrackType="Stereo">
														<enabled>TRUE</enabled>
														<locked>FALSE</locked>
														<filter>
															<effect>
																<name>Audio Levels</name>
																<effectid>audiolevels</effectid>
																<effectcategory>audiolevels</effectcategory>
																<effecttype>audiolevels</effecttype>
																<mediatype>audio</mediatype>
																<parameter authoringApp="PremierePro">
																	<parameterid>level</parameterid>
																	<name>Level</name>
																	<valuemin>0</valuemin>
																	<valuemax>3.98109</valuemax>
																	<value>0.706272</value>
																</parameter>
															</effect>
														</filter>
														<outputchannelindex>2</outputchannelindex>
													</track>
													<track TL.SQTrackAudioKeyframeStyle="0" TL.SQTrackShy="0" TL.SQTrackExpandedHeight="25" TL.SQTrackExpanded="0" MZ.TrackTargeted="0" PannerCurrentValue="0.5" PannerIsInverted="true" PannerStartKeyframe="-91445760000000000,0.5,0,0,0,0,0,0" PannerName="Balance" currentExplodedTrackIndex="0" totalExplodedTrackCount="2" premiereTrackType="Stereo">
														<clipitem id="clipitem-1095" premiereChannelType="stereo">
															<masterclipid>masterclip-207</masterclipid>
															<name>OS Trans 04</name>
															<enabled>TRUE</enabled>
															<duration>2613</duration>
															<rate>
																<timebase>30</timebase>
																<ntsc>TRUE</ntsc>
															</rate>
															<start>2235</start>
															<end>2443</end>
															<in>0</in>
															<out>208</out>
															<pproTicksIn>0</pproTicksIn>
															<pproTicksOut>1762938777600</pproTicksOut>
															<sequence id="sequence-6"/>
															<sourcetrack>
																<mediatype>audio</mediatype>
																<trackindex>0</trackindex>
															</sourcetrack>
																<marker>
																	<comment></comment>
																	<name></name>
																	<in>7</in>
																	<out>-1</out>
																</marker>
																<marker>
																	<comment></comment>
																	<name></name>
																	<in>175</in>
																	<out>-1</out>
																</marker>
															<link>
																<linkclipref>clipitem-1090</linkclipref>
																<mediatype>video</mediatype>
																<trackindex>3</trackindex>
																<clipindex>1</clipindex>
															</link>
															<link>
																<linkclipref>clipitem-1095</linkclipref>
																<mediatype>audio</mediatype>
																<trackindex>5</trackindex>
																<clipindex>1</clipindex>
																<groupindex>1</groupindex>
															</link>
															<link>
																<linkclipref>clipitem-1096</linkclipref>
																<mediatype>audio</mediatype>
																<trackindex>6</trackindex>
																<clipindex>1</clipindex>
																<groupindex>1</groupindex>
															</link>
															<labels>
																<label2>Blue</label2>
															</labels>
														</clipitem>
														<enabled>TRUE</enabled>
														<locked>FALSE</locked>
														<outputchannelindex>1</outputchannelindex>
													</track>
													<track TL.SQTrackAudioKeyframeStyle="0" TL.SQTrackShy="0" TL.SQTrackExpandedHeight="25" TL.SQTrackExpanded="0" MZ.TrackTargeted="0" PannerCurrentValue="0.5" PannerIsInverted="true" PannerStartKeyframe="-91445760000000000,0.5,0,0,0,0,0,0" PannerName="Balance" currentExplodedTrackIndex="1" totalExplodedTrackCount="2" premiereTrackType="Stereo">
														<clipitem id="clipitem-1096" premiereChannelType="stereo">
															<masterclipid>masterclip-207</masterclipid>
															<name>OS Trans 04</name>
															<enabled>TRUE</enabled>
															<duration>2613</duration>
															<rate>
																<timebase>30</timebase>
																<ntsc>TRUE</ntsc>
															</rate>
															<start>2235</start>
															<end>2443</end>
															<in>0</in>
															<out>208</out>
															<pproTicksIn>0</pproTicksIn>
															<pproTicksOut>1762938777600</pproTicksOut>
															<sequence id="sequence-6"/>
															<sourcetrack>
																<mediatype>audio</mediatype>
																<trackindex>1</trackindex>
															</sourcetrack>
																<marker>
																	<comment></comment>
																	<name></name>
																	<in>7</in>
																	<out>-1</out>
																</marker>
																<marker>
																	<comment></comment>
																	<name></name>
																	<in>175</in>
																	<out>-1</out>
																</marker>
															<link>
																<linkclipref>clipitem-1090</linkclipref>
																<mediatype>video</mediatype>
																<trackindex>3</trackindex>
																<clipindex>1</clipindex>
															</link>
															<link>
																<linkclipref>clipitem-1095</linkclipref>
																<mediatype>audio</mediatype>
																<trackindex>5</trackindex>
																<clipindex>1</clipindex>
																<groupindex>1</groupindex>
															</link>
															<link>
																<linkclipref>clipitem-1096</linkclipref>
																<mediatype>audio</mediatype>
																<trackindex>6</trackindex>
																<clipindex>1</clipindex>
																<groupindex>1</groupindex>
															</link>
															<labels>
																<label2>Blue</label2>
															</labels>
														</clipitem>
														<enabled>TRUE</enabled>
														<locked>FALSE</locked>
														<outputchannelindex>2</outputchannelindex>
													</track>
												</audio>
											</media>
											<timecode>
												<rate>
													<timebase>30</timebase>
													<ntsc>TRUE</ntsc>
												</rate>
												<string>00:00:00:00</string>
												<frame>0</frame>
												<displayformat>NDF</displayformat>
											</timecode>
											<logginginfo>
												<description></description>
												<scene></scene>
												<shottake></shottake>
												<lognote></lognote>
												<good></good>
												<originalvideofilename></originalvideofilename>
												<originalaudiofilename></originalaudiofilename>
											</logginginfo>
										</sequence>
										<filter>
											<effect>
												<name>Basic Motion</name>
												<effectid>basic</effectid>
												<effectcategory>motion</effectcategory>
												<effecttype>motion</effecttype>
												<mediatype>video</mediatype>
												<pproBypass>false</pproBypass>
												<parameter authoringApp="PremierePro">
													<parameterid>scale</parameterid>
													<name>Scale</name>
													<valuemin>0</valuemin>
													<valuemax>1000</valuemax>
													<value>66.6667</value>
												</parameter>
												<parameter authoringApp="PremierePro">
													<parameterid>rotation</parameterid>
													<name>Rotation</name>
													<valuemin>-8640</valuemin>
													<valuemax>8640</valuemax>
													<value>0</value>
												</parameter>
												<parameter authoringApp="PremierePro">
													<parameterid>center</parameterid>
													<name>Center</name>
													<value>
														<horiz>-0.5</horiz>
														<vert>-0.5</vert>
													</value>
												</parameter>
												<parameter authoringApp="PremierePro">
													<parameterid>centerOffset</parameterid>
													<name>Anchor Point</name>
													<value>
														<horiz>0</horiz>
														<vert>0</vert>
													</value>
												</parameter>
												<parameter authoringApp="PremierePro">
													<parameterid>antiflicker</parameterid>
													<name>Anti-flicker Filter</name>
													<valuemin>0.0</valuemin>
													<valuemax>1.0</valuemax>
													<value>0</value>
												</parameter>
											</effect>
										</filter>
										<link>
											<linkclipref>clipitem-1086</linkclipref>
											<mediatype>video</mediatype>
											<trackindex>1</trackindex>
											<clipindex>12</clipindex>
										</link>
										<link>
											<linkclipref>clipitem-1131</linkclipref>
											<mediatype>audio</mediatype>
											<trackindex>1</trackindex>
											<clipindex>12</clipindex>
											<groupindex>1</groupindex>
										</link>
										<link>
											<linkclipref>clipitem-1145</linkclipref>
											<mediatype>audio</mediatype>
											<trackindex>2</trackindex>
											<clipindex>12</clipindex>
											<groupindex>1</groupindex>
										</link>
										<labels>
											<label2>Forest</label2>
										</labels>
									</clipitem>
									<clipitem id="clipitem-1097">
										<masterclipid>masterclip-232</masterclipid>
										<name>NN</name>
										<enabled>TRUE</enabled>
										<duration>5956</duration>
										<rate>
											<timebase>30</timebase>
											<ntsc>TRUE</ntsc>
										</rate>
										<start>97310</start>
										<end>102879</end>
										<in>0</in>
										<out>5569</out>
										<pproTicksIn>0</pproTicksIn>
										<pproTicksOut>47200990636800</pproTicksOut>
										<sequence id="sequence-83" TL.SQAudioVisibleBase="0" TL.SQVideoVisibleBase="0" TL.SQVisibleBaseTime="0" TL.SQAVDividerPosition="0.5" TL.SQHideShyTracks="0" TL.SQHeaderWidth="236" TL.SQDataTrackViewControlState="0" Monitor.ProgramZoomOut="47048428627200" Monitor.ProgramZoomIn="0" TL.SQTimePerPixel="0.18334553585316393" AM.TrackVScrollPosition="0" AM.TrackScrollPosition="0" MZ.EditLine="25138828915200" MZ.Sequence.PreviewFrameSizeHeight="720" MZ.Sequence.PreviewFrameSizeWidth="1280" MZ.Sequence.AudioTimeDisplayFormat="200" MZ.Sequence.PreviewRenderingClassID="1297106761" MZ.Sequence.PreviewRenderingPresetCodec="1297107278" MZ.Sequence.PreviewRenderingPresetPath="EncoderPresets/SequencePreview/795454d9-d3c2-429d-9474-923ab13b7018/I-Frame Only MPEG.epr" MZ.Sequence.PreviewUseMaxRenderQuality="false" MZ.Sequence.PreviewUseMaxBitDepth="false" MZ.Sequence.EditingModeGUID="795454d9-d3c2-429d-9474-923ab13b7018" MZ.Sequence.VideoTimeDisplayFormat="103" MZ.WorkOutPoint="47200990636800" MZ.WorkInPoint="0">
											<duration>5551</duration>
											<rate>
												<timebase>30</timebase>
												<ntsc>TRUE</ntsc>
											</rate>
											<name>ATM_ODDLY SATISFYING_1555</name>
											<media>
												<video>
													<format>
														<samplecharacteristics>
															<rate>
																<timebase>30</timebase>
																<ntsc>TRUE</ntsc>
															</rate>
															<codec>
																<name>Apple ProRes 422</name>
																<appspecificdata>
																	<appname>Final Cut Pro</appname>
																	<appmanufacturer>Apple Inc.</appmanufacturer>
																	<appversion>7.0</appversion>
																	<data>
																		<qtcodec>
																			<codecname>Apple ProRes 422</codecname>
																			<codectypename>Apple ProRes 422</codectypename>
																			<codectypecode>apcn</codectypecode>
																			<codecvendorcode>appl</codecvendorcode>
																			<spatialquality>1024</spatialquality>
																			<temporalquality>0</temporalquality>
																			<keyframerate>0</keyframerate>
																			<datarate>0</datarate>
																		</qtcodec>
																	</data>
																</appspecificdata>
															</codec>
															<width>1280</width>
															<height>720</height>
															<anamorphic>FALSE</anamorphic>
															<pixelaspectratio>square</pixelaspectratio>
															<fielddominance>none</fielddominance>
															<colordepth>24</colordepth>
														</samplecharacteristics>
													</format>
													<track TL.SQTrackShy="0" TL.SQTrackExpandedHeight="25" TL.SQTrackExpanded="0" MZ.TrackTargeted="1">
														<clipitem id="clipitem-1098">
															<masterclipid>masterclip-233</masterclipid>
															<name>SAT_rightchoiceshearing_1m40s</name>
															<enabled>TRUE</enabled>
															<duration>5809</duration>
															<rate>
																<timebase>30</timebase>
																<ntsc>TRUE</ntsc>
															</rate>
															<start>0</start>
															<end>2927</end>
															<in>0</in>
															<out>2927</out>
															<pproTicksIn>0</pproTicksIn>
															<pproTicksOut>24808277894400</pproTicksOut>
															<sequence id="sequence-44"/>
															<filter>
																<effect>
																	<name>Basic Motion</name>
																	<effectid>basic</effectid>
																	<effectcategory>motion</effectcategory>
																	<effecttype>motion</effecttype>
																	<mediatype>video</mediatype>
																	<pproBypass>false</pproBypass>
																	<parameter authoringApp="PremierePro">
																		<parameterid>scale</parameterid>
																		<name>Scale</name>
																		<valuemin>0</valuemin>
																		<valuemax>1000</valuemax>
																		<value>66.6667</value>
																	</parameter>
																	<parameter authoringApp="PremierePro">
																		<parameterid>rotation</parameterid>
																		<name>Rotation</name>
																		<valuemin>-8640</valuemin>
																		<valuemax>8640</valuemax>
																		<value>0</value>
																	</parameter>
																	<parameter authoringApp="PremierePro">
																		<parameterid>center</parameterid>
																		<name>Center</name>
																		<value>
																			<horiz>-0.5</horiz>
																			<vert>-0.5</vert>
																		</value>
																	</parameter>
																	<parameter authoringApp="PremierePro">
																		<parameterid>centerOffset</parameterid>
																		<name>Anchor Point</name>
																		<value>
																			<horiz>0</horiz>
																			<vert>0</vert>
																		</value>
																	</parameter>
																	<parameter authoringApp="PremierePro">
																		<parameterid>antiflicker</parameterid>
																		<name>Anti-flicker Filter</name>
																		<valuemin>0.0</valuemin>
																		<valuemax>1.0</valuemax>
																		<value>0</value>
																	</parameter>
																</effect>
															</filter>
															<link>
																<linkclipref>clipitem-1098</linkclipref>
																<mediatype>video</mediatype>
																<trackindex>1</trackindex>
																<clipindex>1</clipindex>
															</link>
															<link>
																<linkclipref>clipitem-1101</linkclipref>
																<mediatype>audio</mediatype>
																<trackindex>1</trackindex>
																<clipindex>1</clipindex>
																<groupindex>1</groupindex>
															</link>
															<link>
																<linkclipref>clipitem-1103</linkclipref>
																<mediatype>audio</mediatype>
																<trackindex>2</trackindex>
																<clipindex>1</clipindex>
																<groupindex>1</groupindex>
															</link>
															<labels>
																<label2>Forest</label2>
															</labels>
														</clipitem>
														<clipitem id="clipitem-1099">
															<masterclipid>masterclip-234</masterclipid>
															<name>FND_i love you a latte Happy unbranded_1m25s</name>
															<enabled>TRUE</enabled>
															<duration>8217</duration>
															<rate>
																<timebase>30</timebase>
																<ntsc>TRUE</ntsc>
															</rate>
															<start>2953</start>
															<end>-1</end>
															<in>0</in>
															<out>2598</out>
															<pproTicksIn>0</pproTicksIn>
															<pproTicksOut>22019783385600</pproTicksOut>
															<sequence id="sequence-45"/>
															<filter>
																<effect>
																	<name>Basic Motion</name>
																	<effectid>basic</effectid>
																	<effectcategory>motion</effectcategory>
																	<effecttype>motion</effecttype>
																	<mediatype>video</mediatype>
																	<pproBypass>false</pproBypass>
																	<parameter authoringApp="PremierePro">
																		<parameterid>scale</parameterid>
																		<name>Scale</name>
																		<valuemin>0</valuemin>
																		<valuemax>1000</valuemax>
																		<value>66.6667</value>
																	</parameter>
																	<parameter authoringApp="PremierePro">
																		<parameterid>rotation</parameterid>
																		<name>Rotation</name>
																		<valuemin>-8640</valuemin>
																		<valuemax>8640</valuemax>
																		<value>0</value>
																	</parameter>
																	<parameter authoringApp="PremierePro">
																		<parameterid>center</parameterid>
																		<name>Center</name>
																		<value>
																			<horiz>-0.5</horiz>
																			<vert>-0.5</vert>
																		</value>
																	</parameter>
																	<parameter authoringApp="PremierePro">
																		<parameterid>centerOffset</parameterid>
																		<name>Anchor Point</name>
																		<value>
																			<horiz>0</horiz>
																			<vert>0</vert>
																		</value>
																	</parameter>
																	<parameter authoringApp="PremierePro">
																		<parameterid>antiflicker</parameterid>
																		<name>Anti-flicker Filter</name>
																		<valuemin>0.0</valuemin>
																		<valuemax>1.0</valuemax>
																		<value>0</value>
																	</parameter>
																</effect>
															</filter>
															<link>
																<linkclipref>clipitem-1099</linkclipref>
																<mediatype>video</mediatype>
																<trackindex>1</trackindex>
																<clipindex>2</clipindex>
															</link>
															<link>
																<linkclipref>clipitem-1102</linkclipref>
																<mediatype>audio</mediatype>
																<trackindex>1</trackindex>
																<clipindex>2</clipindex>
																<groupindex>1</groupindex>
															</link>
															<link>
																<linkclipref>clipitem-1104</linkclipref>
																<mediatype>audio</mediatype>
																<trackindex>2</trackindex>
																<clipindex>2</clipindex>
																<groupindex>1</groupindex>
															</link>
															<labels>
																<label2>Forest</label2>
															</labels>
														</clipitem>
														<transitionitem>
															<start>5521</start>
															<end>5551</end>
															<alignment>end-black</alignment>
															<cutPointTicks>254270016000</cutPointTicks>
															<rate>
																<timebase>30</timebase>
																<ntsc>TRUE</ntsc>
															</rate>
															<effect>
																<name>Cross Dissolve</name>
																<effectid>Cross Dissolve</effectid>
																<effectcategory>Dissolve</effectcategory>
																<effecttype>transition</effecttype>
																<mediatype>video</mediatype>
																<wipecode>0</wipecode>
																<wipeaccuracy>100</wipeaccuracy>
																<startratio>0</startratio>
																<endratio>1</endratio>
																<reverse>FALSE</reverse>
															</effect>
														</transitionitem>
														<enabled>TRUE</enabled>
														<locked>FALSE</locked>
													</track>
													<track TL.SQTrackShy="0" TL.SQTrackExpandedHeight="25" TL.SQTrackExpanded="0" MZ.TrackTargeted="0">
														<clipitem id="clipitem-1100">
															<masterclipid>masterclip-199</masterclipid>
															<name>00_Quick Grid Transition</name>
															<enabled>TRUE</enabled>
															<duration>299</duration>
															<rate>
																<timebase>30</timebase>
																<ntsc>TRUE</ntsc>
															</rate>
															<start>2902</start>
															<end>2993</end>
															<in>0</in>
															<out>91</out>
															<pproTicksIn>0</pproTicksIn>
															<pproTicksOut>771285715200</pproTicksOut>
															<sequence id="sequence-8"/>
															<filter>
																<effect>
																	<name>Basic Motion</name>
																	<effectid>basic</effectid>
																	<effectcategory>motion</effectcategory>
																	<effecttype>motion</effecttype>
																	<mediatype>video</mediatype>
																	<pproBypass>false</pproBypass>
																	<parameter authoringApp="PremierePro">
																		<parameterid>scale</parameterid>
																		<name>Scale</name>
																		<valuemin>0</valuemin>
																		<valuemax>1000</valuemax>
																		<value>66.6667</value>
																	</parameter>
																	<parameter authoringApp="PremierePro">
																		<parameterid>rotation</parameterid>
																		<name>Rotation</name>
																		<valuemin>-8640</valuemin>
																		<valuemax>8640</valuemax>
																		<value>0</value>
																	</parameter>
																	<parameter authoringApp="PremierePro">
																		<parameterid>center</parameterid>
																		<name>Center</name>
																		<value>
																			<horiz>-0.5</horiz>
																			<vert>-0.5</vert>
																		</value>
																	</parameter>
																	<parameter authoringApp="PremierePro">
																		<parameterid>centerOffset</parameterid>
																		<name>Anchor Point</name>
																		<value>
																			<horiz>0</horiz>
																			<vert>0</vert>
																		</value>
																	</parameter>
																	<parameter authoringApp="PremierePro">
																		<parameterid>antiflicker</parameterid>
																		<name>Anti-flicker Filter</name>
																		<valuemin>0.0</valuemin>
																		<valuemax>1.0</valuemax>
																		<value>0</value>
																	</parameter>
																</effect>
															</filter>
																<marker>
																	<comment></comment>
																	<name></name>
																	<in>51</in>
																	<out>-1</out>
																</marker>
																<marker>
																	<comment></comment>
																	<name></name>
																	<in>24</in>
																	<out>-1</out>
																</marker>
															<link>
																<linkclipref>clipitem-1100</linkclipref>
																<mediatype>video</mediatype>
																<trackindex>2</trackindex>
																<clipindex>1</clipindex>
															</link>
															<link>
																<linkclipref>clipitem-1105</linkclipref>
																<mediatype>audio</mediatype>
																<trackindex>3</trackindex>
																<clipindex>1</clipindex>
																<groupindex>1</groupindex>
															</link>
															<link>
																<linkclipref>clipitem-1106</linkclipref>
																<mediatype>audio</mediatype>
																<trackindex>4</trackindex>
																<clipindex>1</clipindex>
																<groupindex>1</groupindex>
															</link>
															<labels>
																<label2>Lavender</label2>
															</labels>
														</clipitem>
														<enabled>TRUE</enabled>
														<locked>FALSE</locked>
													</track>
												</video>
												<audio>
													<numOutputChannels>2</numOutputChannels>
													<format>
														<samplecharacteristics>
															<depth>16</depth>
															<samplerate>44100</samplerate>
														</samplecharacteristics>
													</format>
													<outputs>
														<group>
															<index>1</index>
															<numchannels>1</numchannels>
															<downmix>0</downmix>
															<channel>
																<index>1</index>
															</channel>
														</group>
														<group>
															<index>2</index>
															<numchannels>1</numchannels>
															<downmix>0</downmix>
															<channel>
																<index>2</index>
															</channel>
														</group>
													</outputs>
													<track TL.SQTrackAudioKeyframeStyle="0" TL.SQTrackShy="0" TL.SQTrackExpandedHeight="25" TL.SQTrackExpanded="0" MZ.TrackTargeted="1" PannerCurrentValue="0.5" PannerIsInverted="true" PannerStartKeyframe="-91445760000000000,0.5,0,0,0,0,0,0" PannerName="Balance" currentExplodedTrackIndex="0" totalExplodedTrackCount="2" premiereTrackType="Stereo">
														<clipitem id="clipitem-1101" premiereChannelType="stereo">
															<masterclipid>masterclip-233</masterclipid>
															<name>SAT_rightchoiceshearing_1m40s</name>
															<enabled>TRUE</enabled>
															<duration>5809</duration>
															<rate>
																<timebase>30</timebase>
																<ntsc>TRUE</ntsc>
															</rate>
															<start>0</start>
															<end>2927</end>
															<in>0</in>
															<out>2927</out>
															<pproTicksIn>0</pproTicksIn>
															<pproTicksOut>24808277894400</pproTicksOut>
															<sequence id="sequence-44"/>
															<sourcetrack>
																<mediatype>audio</mediatype>
																<trackindex>0</trackindex>
															</sourcetrack>
															<link>
																<linkclipref>clipitem-1098</linkclipref>
																<mediatype>video</mediatype>
																<trackindex>1</trackindex>
																<clipindex>1</clipindex>
															</link>
															<link>
																<linkclipref>clipitem-1101</linkclipref>
																<mediatype>audio</mediatype>
																<trackindex>1</trackindex>
																<clipindex>1</clipindex>
																<groupindex>1</groupindex>
															</link>
															<link>
																<linkclipref>clipitem-1103</linkclipref>
																<mediatype>audio</mediatype>
																<trackindex>2</trackindex>
																<clipindex>1</clipindex>
																<groupindex>1</groupindex>
															</link>
															<labels>
																<label2>Forest</label2>
															</labels>
														</clipitem>
														<clipitem id="clipitem-1102" premiereChannelType="stereo">
															<masterclipid>masterclip-234</masterclipid>
															<name>FND_i love you a latte Happy unbranded_1m25s</name>
															<enabled>TRUE</enabled>
															<duration>8217</duration>
															<rate>
																<timebase>30</timebase>
																<ntsc>TRUE</ntsc>
															</rate>
															<start>2953</start>
															<end>5551</end>
															<in>0</in>
															<out>2598</out>
															<pproTicksIn>0</pproTicksIn>
															<pproTicksOut>22019783385600</pproTicksOut>
															<sequence id="sequence-45"/>
															<sourcetrack>
																<mediatype>audio</mediatype>
																<trackindex>0</trackindex>
															</sourcetrack>
															<link>
																<linkclipref>clipitem-1099</linkclipref>
																<mediatype>video</mediatype>
																<trackindex>1</trackindex>
																<clipindex>2</clipindex>
															</link>
															<link>
																<linkclipref>clipitem-1102</linkclipref>
																<mediatype>audio</mediatype>
																<trackindex>1</trackindex>
																<clipindex>2</clipindex>
																<groupindex>1</groupindex>
															</link>
															<link>
																<linkclipref>clipitem-1104</linkclipref>
																<mediatype>audio</mediatype>
																<trackindex>2</trackindex>
																<clipindex>2</clipindex>
																<groupindex>1</groupindex>
															</link>
															<labels>
																<label2>Forest</label2>
															</labels>
														</clipitem>
														<enabled>TRUE</enabled>
														<locked>FALSE</locked>
														<outputchannelindex>1</outputchannelindex>
													</track>
													<track TL.SQTrackAudioKeyframeStyle="0" TL.SQTrackShy="0" TL.SQTrackExpandedHeight="25" TL.SQTrackExpanded="0" MZ.TrackTargeted="1" PannerCurrentValue="0.5" PannerIsInverted="true" PannerStartKeyframe="-91445760000000000,0.5,0,0,0,0,0,0" PannerName="Balance" currentExplodedTrackIndex="1" totalExplodedTrackCount="2" premiereTrackType="Stereo">
														<clipitem id="clipitem-1103" premiereChannelType="stereo">
															<masterclipid>masterclip-233</masterclipid>
															<name>SAT_rightchoiceshearing_1m40s</name>
															<enabled>TRUE</enabled>
															<duration>5809</duration>
															<rate>
																<timebase>30</timebase>
																<ntsc>TRUE</ntsc>
															</rate>
															<start>0</start>
															<end>2927</end>
															<in>0</in>
															<out>2927</out>
															<pproTicksIn>0</pproTicksIn>
															<pproTicksOut>24808277894400</pproTicksOut>
															<sequence id="sequence-44"/>
															<sourcetrack>
																<mediatype>audio</mediatype>
																<trackindex>1</trackindex>
															</sourcetrack>
															<link>
																<linkclipref>clipitem-1098</linkclipref>
																<mediatype>video</mediatype>
																<trackindex>1</trackindex>
																<clipindex>1</clipindex>
															</link>
															<link>
																<linkclipref>clipitem-1101</linkclipref>
																<mediatype>audio</mediatype>
																<trackindex>1</trackindex>
																<clipindex>1</clipindex>
																<groupindex>1</groupindex>
															</link>
															<link>
																<linkclipref>clipitem-1103</linkclipref>
																<mediatype>audio</mediatype>
																<trackindex>2</trackindex>
																<clipindex>1</clipindex>
																<groupindex>1</groupindex>
															</link>
															<labels>
																<label2>Forest</label2>
															</labels>
														</clipitem>
														<clipitem id="clipitem-1104" premiereChannelType="stereo">
															<masterclipid>masterclip-234</masterclipid>
															<name>FND_i love you a latte Happy unbranded_1m25s</name>
															<enabled>TRUE</enabled>
															<duration>8217</duration>
															<rate>
																<timebase>30</timebase>
																<ntsc>TRUE</ntsc>
															</rate>
															<start>2953</start>
															<end>5551</end>
															<in>0</in>
															<out>2598</out>
															<pproTicksIn>0</pproTicksIn>
															<pproTicksOut>22019783385600</pproTicksOut>
															<sequence id="sequence-45"/>
															<sourcetrack>
																<mediatype>audio</mediatype>
																<trackindex>1</trackindex>
															</sourcetrack>
															<link>
																<linkclipref>clipitem-1099</linkclipref>
																<mediatype>video</mediatype>
																<trackindex>1</trackindex>
																<clipindex>2</clipindex>
															</link>
															<link>
																<linkclipref>clipitem-1102</linkclipref>
																<mediatype>audio</mediatype>
																<trackindex>1</trackindex>
																<clipindex>2</clipindex>
																<groupindex>1</groupindex>
															</link>
															<link>
																<linkclipref>clipitem-1104</linkclipref>
																<mediatype>audio</mediatype>
																<trackindex>2</trackindex>
																<clipindex>2</clipindex>
																<groupindex>1</groupindex>
															</link>
															<labels>
																<label2>Forest</label2>
															</labels>
														</clipitem>
														<enabled>TRUE</enabled>
														<locked>FALSE</locked>
														<outputchannelindex>2</outputchannelindex>
													</track>
													<track TL.SQTrackAudioKeyframeStyle="0" TL.SQTrackShy="0" TL.SQTrackExpandedHeight="25" TL.SQTrackExpanded="0" MZ.TrackTargeted="0" PannerCurrentValue="0.5" PannerIsInverted="true" PannerStartKeyframe="-91445760000000000,0.5,0,0,0,0,0,0" PannerName="Balance" currentExplodedTrackIndex="0" totalExplodedTrackCount="2" premiereTrackType="Stereo">
														<clipitem id="clipitem-1105" premiereChannelType="stereo">
															<masterclipid>masterclip-199</masterclipid>
															<name>00_Quick Grid Transition</name>
															<enabled>TRUE</enabled>
															<duration>299</duration>
															<rate>
																<timebase>30</timebase>
																<ntsc>TRUE</ntsc>
															</rate>
															<start>2902</start>
															<end>2993</end>
															<in>0</in>
															<out>91</out>
															<pproTicksIn>0</pproTicksIn>
															<pproTicksOut>771285715200</pproTicksOut>
															<sequence id="sequence-8"/>
															<sourcetrack>
																<mediatype>audio</mediatype>
																<trackindex>0</trackindex>
															</sourcetrack>
																<marker>
																	<comment></comment>
																	<name></name>
																	<in>51</in>
																	<out>-1</out>
																</marker>
																<marker>
																	<comment></comment>
																	<name></name>
																	<in>24</in>
																	<out>-1</out>
																</marker>
															<link>
																<linkclipref>clipitem-1100</linkclipref>
																<mediatype>video</mediatype>
																<trackindex>2</trackindex>
																<clipindex>1</clipindex>
															</link>
															<link>
																<linkclipref>clipitem-1105</linkclipref>
																<mediatype>audio</mediatype>
																<trackindex>3</trackindex>
																<clipindex>1</clipindex>
																<groupindex>1</groupindex>
															</link>
															<link>
																<linkclipref>clipitem-1106</linkclipref>
																<mediatype>audio</mediatype>
																<trackindex>4</trackindex>
																<clipindex>1</clipindex>
																<groupindex>1</groupindex>
															</link>
															<labels>
																<label2>Lavender</label2>
															</labels>
														</clipitem>
														<enabled>TRUE</enabled>
														<locked>FALSE</locked>
														<outputchannelindex>1</outputchannelindex>
													</track>
													<track TL.SQTrackAudioKeyframeStyle="0" TL.SQTrackShy="0" TL.SQTrackExpandedHeight="25" TL.SQTrackExpanded="0" MZ.TrackTargeted="0" PannerCurrentValue="0.5" PannerIsInverted="true" PannerStartKeyframe="-91445760000000000,0.5,0,0,0,0,0,0" PannerName="Balance" currentExplodedTrackIndex="1" totalExplodedTrackCount="2" premiereTrackType="Stereo">
														<clipitem id="clipitem-1106" premiereChannelType="stereo">
															<masterclipid>masterclip-199</masterclipid>
															<name>00_Quick Grid Transition</name>
															<enabled>TRUE</enabled>
															<duration>299</duration>
															<rate>
																<timebase>30</timebase>
																<ntsc>TRUE</ntsc>
															</rate>
															<start>2902</start>
															<end>2993</end>
															<in>0</in>
															<out>91</out>
															<pproTicksIn>0</pproTicksIn>
															<pproTicksOut>771285715200</pproTicksOut>
															<sequence id="sequence-8"/>
															<sourcetrack>
																<mediatype>audio</mediatype>
																<trackindex>1</trackindex>
															</sourcetrack>
																<marker>
																	<comment></comment>
																	<name></name>
																	<in>51</in>
																	<out>-1</out>
																</marker>
																<marker>
																	<comment></comment>
																	<name></name>
																	<in>24</in>
																	<out>-1</out>
																</marker>
															<link>
																<linkclipref>clipitem-1100</linkclipref>
																<mediatype>video</mediatype>
																<trackindex>2</trackindex>
																<clipindex>1</clipindex>
															</link>
															<link>
																<linkclipref>clipitem-1105</linkclipref>
																<mediatype>audio</mediatype>
																<trackindex>3</trackindex>
																<clipindex>1</clipindex>
																<groupindex>1</groupindex>
															</link>
															<link>
																<linkclipref>clipitem-1106</linkclipref>
																<mediatype>audio</mediatype>
																<trackindex>4</trackindex>
																<clipindex>1</clipindex>
																<groupindex>1</groupindex>
															</link>
															<labels>
																<label2>Lavender</label2>
															</labels>
														</clipitem>
														<enabled>TRUE</enabled>
														<locked>FALSE</locked>
														<outputchannelindex>2</outputchannelindex>
													</track>
												</audio>
											</media>
											<timecode>
												<rate>
													<timebase>30</timebase>
													<ntsc>TRUE</ntsc>
												</rate>
												<string>00:00:00:00</string>
												<frame>0</frame>
												<displayformat>NDF</displayformat>
											</timecode>
											<logginginfo>
												<description></description>
												<scene></scene>
												<shottake></shottake>
												<lognote></lognote>
												<good></good>
												<originalvideofilename></originalvideofilename>
												<originalaudiofilename></originalaudiofilename>
											</logginginfo>
										</sequence>
										<link>
											<linkclipref>clipitem-1097</linkclipref>
											<mediatype>video</mediatype>
											<trackindex>1</trackindex>
											<clipindex>13</clipindex>
										</link>
										<link>
											<linkclipref>clipitem-1132</linkclipref>
											<mediatype>audio</mediatype>
											<trackindex>1</trackindex>
											<clipindex>13</clipindex>
											<groupindex>1</groupindex>
										</link>
										<link>
											<linkclipref>clipitem-1146</linkclipref>
											<mediatype>audio</mediatype>
											<trackindex>2</trackindex>
											<clipindex>13</clipindex>
											<groupindex>1</groupindex>
										</link>
										<labels>
											<label2>Forest</label2>
										</labels>
									</clipitem>
									<clipitem id="clipitem-1107">
										<masterclipid>masterclip-235</masterclipid>
										<name>OO</name>
										<enabled>TRUE</enabled>
										<duration>5971</duration>
										<rate>
											<timebase>30</timebase>
											<ntsc>TRUE</ntsc>
										</rate>
										<start>105843</start>
										<end>111383</end>
										<in>0</in>
										<out>5540</out>
										<pproTicksIn>0</pproTicksIn>
										<pproTicksOut>46955196288000</pproTicksOut>
										<sequence id="sequence-84" TL.SQAudioVisibleBase="0" TL.SQVideoVisibleBase="0" TL.SQVisibleBaseTime="0" TL.SQAVDividerPosition="0.5" TL.SQHideShyTracks="0" TL.SQHeaderWidth="236" TL.SQDataTrackViewControlState="0" Monitor.ProgramZoomOut="47294222976000" Monitor.ProgramZoomIn="0" TL.SQTimePerPixel="0.18311976979312292" AM.TrackVScrollPosition="0" AM.TrackScrollPosition="0" MZ.EditLine="0" MZ.Sequence.PreviewFrameSizeHeight="1080" MZ.Sequence.PreviewFrameSizeWidth="1920" MZ.Sequence.AudioTimeDisplayFormat="200" MZ.Sequence.PreviewRenderingClassID="1297106761" MZ.Sequence.PreviewRenderingPresetCodec="1297107278" MZ.Sequence.PreviewRenderingPresetPath="EncoderPresets/SequencePreview/795454d9-d3c2-429d-9474-923ab13b7018/I-Frame Only MPEG.epr" MZ.Sequence.PreviewUseMaxRenderQuality="false" MZ.Sequence.PreviewUseMaxBitDepth="false" MZ.Sequence.EditingModeGUID="795454d9-d3c2-429d-9474-923ab13b7018" MZ.Sequence.VideoTimeDisplayFormat="103" MZ.WorkOutPoint="46955196288000" MZ.WorkInPoint="0">
											<duration>5580</duration>
											<rate>
												<timebase>30</timebase>
												<ntsc>TRUE</ntsc>
											</rate>
											<name>ATM_ODDLY SATISFYING_1556</name>
											<media>
												<video>
													<format>
														<samplecharacteristics>
															<rate>
																<timebase>30</timebase>
																<ntsc>TRUE</ntsc>
															</rate>
															<codec>
																<name>Apple ProRes 422</name>
																<appspecificdata>
																	<appname>Final Cut Pro</appname>
																	<appmanufacturer>Apple Inc.</appmanufacturer>
																	<appversion>7.0</appversion>
																	<data>
																		<qtcodec>
																			<codecname>Apple ProRes 422</codecname>
																			<codectypename>Apple ProRes 422</codectypename>
																			<codectypecode>apcn</codectypecode>
																			<codecvendorcode>appl</codecvendorcode>
																			<spatialquality>1024</spatialquality>
																			<temporalquality>0</temporalquality>
																			<keyframerate>0</keyframerate>
																			<datarate>0</datarate>
																		</qtcodec>
																	</data>
																</appspecificdata>
															</codec>
															<width>1920</width>
															<height>1080</height>
															<anamorphic>FALSE</anamorphic>
															<pixelaspectratio>square</pixelaspectratio>
															<fielddominance>none</fielddominance>
															<colordepth>24</colordepth>
														</samplecharacteristics>
													</format>
													<track TL.SQTrackShy="0" TL.SQTrackExpandedHeight="25" TL.SQTrackExpanded="0" MZ.TrackTargeted="1">
														<clipitem id="clipitem-1108">
															<masterclipid>masterclip-236</masterclipid>
															<name>SAT_fills lawn care_1m45s</name>
															<enabled>TRUE</enabled>
															<duration>7276</duration>
															<rate>
																<timebase>30</timebase>
																<ntsc>TRUE</ntsc>
															</rate>
															<start>0</start>
															<end>2964</end>
															<in>0</in>
															<out>2964</out>
															<pproTicksIn>0</pproTicksIn>
															<pproTicksOut>25121877580800</pproTicksOut>
															<sequence id="sequence-40"/>
															<link>
																<linkclipref>clipitem-1108</linkclipref>
																<mediatype>video</mediatype>
																<trackindex>1</trackindex>
																<clipindex>1</clipindex>
															</link>
															<link>
																<linkclipref>clipitem-1112</linkclipref>
																<mediatype>audio</mediatype>
																<trackindex>1</trackindex>
																<clipindex>1</clipindex>
																<groupindex>1</groupindex>
															</link>
															<link>
																<linkclipref>clipitem-1115</linkclipref>
																<mediatype>audio</mediatype>
																<trackindex>2</trackindex>
																<clipindex>1</clipindex>
																<groupindex>1</groupindex>
															</link>
															<labels>
																<label2>Forest</label2>
															</labels>
														</clipitem>
														<clipitem id="clipitem-1109">
															<masterclipid>masterclip-237</masterclipid>
															<name>SCI_3D prints and builds_1m40s</name>
															<enabled>TRUE</enabled>
															<duration>8432</duration>
															<rate>
																<timebase>30</timebase>
																<ntsc>TRUE</ntsc>
															</rate>
															<start>2990</start>
															<end>5341</end>
															<in>0</in>
															<out>2351</out>
															<pproTicksIn>0</pproTicksIn>
															<pproTicksOut>19926293587200</pproTicksOut>
															<sequence id="sequence-41"/>
															<link>
																<linkclipref>clipitem-1109</linkclipref>
																<mediatype>video</mediatype>
																<trackindex>1</trackindex>
																<clipindex>2</clipindex>
															</link>
															<link>
																<linkclipref>clipitem-1113</linkclipref>
																<mediatype>audio</mediatype>
																<trackindex>1</trackindex>
																<clipindex>2</clipindex>
																<groupindex>1</groupindex>
															</link>
															<link>
																<linkclipref>clipitem-1116</linkclipref>
																<mediatype>audio</mediatype>
																<trackindex>2</trackindex>
																<clipindex>2</clipindex>
																<groupindex>1</groupindex>
															</link>
															<labels>
																<label2>Forest</label2>
															</labels>
														</clipitem>
														<clipitem id="clipitem-1110">
															<masterclipid>masterclip-198</masterclipid>
															<name>01_HouseAd Nest</name>
															<enabled>TRUE</enabled>
															<duration>239</duration>
															<rate>
																<timebase>30</timebase>
																<ntsc>TRUE</ntsc>
															</rate>
															<start>5341</start>
															<end>5580</end>
															<in>0</in>
															<out>239</out>
															<pproTicksIn>0</pproTicksIn>
															<pproTicksOut>2025684460800</pproTicksOut>
															<sequence id="sequence-2"/>
															<link>
																<linkclipref>clipitem-1110</linkclipref>
																<mediatype>video</mediatype>
																<trackindex>1</trackindex>
																<clipindex>3</clipindex>
															</link>
															<link>
																<linkclipref>clipitem-1114</linkclipref>
																<mediatype>audio</mediatype>
																<trackindex>1</trackindex>
																<clipindex>3</clipindex>
																<groupindex>1</groupindex>
															</link>
															<link>
																<linkclipref>clipitem-1117</linkclipref>
																<mediatype>audio</mediatype>
																<trackindex>2</trackindex>
																<clipindex>3</clipindex>
																<groupindex>1</groupindex>
															</link>
															<labels>
																<label2>Yellow</label2>
															</labels>
														</clipitem>
														<enabled>TRUE</enabled>
														<locked>FALSE</locked>
													</track>
													<track TL.SQTrackShy="0" TL.SQTrackExpandedHeight="25" TL.SQTrackExpanded="0" MZ.TrackTargeted="0">
														<clipitem id="clipitem-1111">
															<masterclipid>masterclip-211</masterclipid>
															<name>00_Quick Logo</name>
															<enabled>TRUE</enabled>
															<duration>953</duration>
															<rate>
																<timebase>30</timebase>
																<ntsc>TRUE</ntsc>
															</rate>
															<start>2950</start>
															<end>3014</end>
															<in>0</in>
															<out>64</out>
															<pproTicksIn>0</pproTicksIn>
															<pproTicksOut>542442700800</pproTicksOut>
															<sequence id="sequence-9"/>
																<marker>
																	<comment></comment>
																	<name></name>
																	<in>14</in>
																	<out>-1</out>
																</marker>
																<marker>
																	<comment></comment>
																	<name></name>
																	<in>40</in>
																	<out>-1</out>
																</marker>
															<link>
																<linkclipref>clipitem-1111</linkclipref>
																<mediatype>video</mediatype>
																<trackindex>2</trackindex>
																<clipindex>1</clipindex>
															</link>
															<link>
																<linkclipref>clipitem-1118</linkclipref>
																<mediatype>audio</mediatype>
																<trackindex>3</trackindex>
																<clipindex>1</clipindex>
																<groupindex>1</groupindex>
															</link>
															<link>
																<linkclipref>clipitem-1119</linkclipref>
																<mediatype>audio</mediatype>
																<trackindex>4</trackindex>
																<clipindex>1</clipindex>
																<groupindex>1</groupindex>
															</link>
															<labels>
																<label2>Cerulean</label2>
															</labels>
														</clipitem>
														<enabled>TRUE</enabled>
														<locked>FALSE</locked>
													</track>
												</video>
												<audio>
													<numOutputChannels>2</numOutputChannels>
													<format>
														<samplecharacteristics>
															<depth>16</depth>
															<samplerate>44100</samplerate>
														</samplecharacteristics>
													</format>
													<outputs>
														<group>
															<index>1</index>
															<numchannels>1</numchannels>
															<downmix>0</downmix>
															<channel>
																<index>1</index>
															</channel>
														</group>
														<group>
															<index>2</index>
															<numchannels>1</numchannels>
															<downmix>0</downmix>
															<channel>
																<index>2</index>
															</channel>
														</group>
													</outputs>
													<track TL.SQTrackAudioKeyframeStyle="0" TL.SQTrackShy="0" TL.SQTrackExpandedHeight="25" TL.SQTrackExpanded="0" MZ.TrackTargeted="1" PannerCurrentValue="0.5" PannerIsInverted="true" PannerStartKeyframe="-91445760000000000,0.5,0,0,0,0,0,0" PannerName="Balance" currentExplodedTrackIndex="0" totalExplodedTrackCount="2" premiereTrackType="Stereo">
														<clipitem id="clipitem-1112" premiereChannelType="stereo">
															<masterclipid>masterclip-236</masterclipid>
															<name>SAT_fills lawn care_1m45s</name>
															<enabled>TRUE</enabled>
															<duration>7276</duration>
															<rate>
																<timebase>30</timebase>
																<ntsc>TRUE</ntsc>
															</rate>
															<start>0</start>
															<end>2964</end>
															<in>0</in>
															<out>2964</out>
															<pproTicksIn>0</pproTicksIn>
															<pproTicksOut>25121877580800</pproTicksOut>
															<sequence id="sequence-40"/>
															<sourcetrack>
																<mediatype>audio</mediatype>
																<trackindex>0</trackindex>
															</sourcetrack>
															<link>
																<linkclipref>clipitem-1108</linkclipref>
																<mediatype>video</mediatype>
																<trackindex>1</trackindex>
																<clipindex>1</clipindex>
															</link>
															<link>
																<linkclipref>clipitem-1112</linkclipref>
																<mediatype>audio</mediatype>
																<trackindex>1</trackindex>
																<clipindex>1</clipindex>
																<groupindex>1</groupindex>
															</link>
															<link>
																<linkclipref>clipitem-1115</linkclipref>
																<mediatype>audio</mediatype>
																<trackindex>2</trackindex>
																<clipindex>1</clipindex>
																<groupindex>1</groupindex>
															</link>
															<labels>
																<label2>Forest</label2>
															</labels>
														</clipitem>
														<clipitem id="clipitem-1113" premiereChannelType="stereo">
															<masterclipid>masterclip-237</masterclipid>
															<name>SCI_3D prints and builds_1m40s</name>
															<enabled>TRUE</enabled>
															<duration>8432</duration>
															<rate>
																<timebase>30</timebase>
																<ntsc>TRUE</ntsc>
															</rate>
															<start>2990</start>
															<end>5341</end>
															<in>0</in>
															<out>2351</out>
															<pproTicksIn>0</pproTicksIn>
															<pproTicksOut>19926293587200</pproTicksOut>
															<sequence id="sequence-41"/>
															<sourcetrack>
																<mediatype>audio</mediatype>
																<trackindex>0</trackindex>
															</sourcetrack>
															<link>
																<linkclipref>clipitem-1109</linkclipref>
																<mediatype>video</mediatype>
																<trackindex>1</trackindex>
																<clipindex>2</clipindex>
															</link>
															<link>
																<linkclipref>clipitem-1113</linkclipref>
																<mediatype>audio</mediatype>
																<trackindex>1</trackindex>
																<clipindex>2</clipindex>
																<groupindex>1</groupindex>
															</link>
															<link>
																<linkclipref>clipitem-1116</linkclipref>
																<mediatype>audio</mediatype>
																<trackindex>2</trackindex>
																<clipindex>2</clipindex>
																<groupindex>1</groupindex>
															</link>
															<labels>
																<label2>Forest</label2>
															</labels>
														</clipitem>
														<clipitem id="clipitem-1114" premiereChannelType="stereo">
															<masterclipid>masterclip-198</masterclipid>
															<name>01_HouseAd Nest</name>
															<enabled>TRUE</enabled>
															<duration>239</duration>
															<rate>
																<timebase>30</timebase>
																<ntsc>TRUE</ntsc>
															</rate>
															<start>5341</start>
															<end>5580</end>
															<in>0</in>
															<out>239</out>
															<pproTicksIn>0</pproTicksIn>
															<pproTicksOut>2025684460800</pproTicksOut>
															<sequence id="sequence-2"/>
															<sourcetrack>
																<mediatype>audio</mediatype>
																<trackindex>0</trackindex>
															</sourcetrack>
															<link>
																<linkclipref>clipitem-1110</linkclipref>
																<mediatype>video</mediatype>
																<trackindex>1</trackindex>
																<clipindex>3</clipindex>
															</link>
															<link>
																<linkclipref>clipitem-1114</linkclipref>
																<mediatype>audio</mediatype>
																<trackindex>1</trackindex>
																<clipindex>3</clipindex>
																<groupindex>1</groupindex>
															</link>
															<link>
																<linkclipref>clipitem-1117</linkclipref>
																<mediatype>audio</mediatype>
																<trackindex>2</trackindex>
																<clipindex>3</clipindex>
																<groupindex>1</groupindex>
															</link>
															<labels>
																<label2>Yellow</label2>
															</labels>
														</clipitem>
														<enabled>TRUE</enabled>
														<locked>FALSE</locked>
														<outputchannelindex>1</outputchannelindex>
													</track>
													<track TL.SQTrackAudioKeyframeStyle="0" TL.SQTrackShy="0" TL.SQTrackExpandedHeight="25" TL.SQTrackExpanded="0" MZ.TrackTargeted="1" PannerCurrentValue="0.5" PannerIsInverted="true" PannerStartKeyframe="-91445760000000000,0.5,0,0,0,0,0,0" PannerName="Balance" currentExplodedTrackIndex="1" totalExplodedTrackCount="2" premiereTrackType="Stereo">
														<clipitem id="clipitem-1115" premiereChannelType="stereo">
															<masterclipid>masterclip-236</masterclipid>
															<name>SAT_fills lawn care_1m45s</name>
															<enabled>TRUE</enabled>
															<duration>7276</duration>
															<rate>
																<timebase>30</timebase>
																<ntsc>TRUE</ntsc>
															</rate>
															<start>0</start>
															<end>2964</end>
															<in>0</in>
															<out>2964</out>
															<pproTicksIn>0</pproTicksIn>
															<pproTicksOut>25121877580800</pproTicksOut>
															<sequence id="sequence-40"/>
															<sourcetrack>
																<mediatype>audio</mediatype>
																<trackindex>1</trackindex>
															</sourcetrack>
															<link>
																<linkclipref>clipitem-1108</linkclipref>
																<mediatype>video</mediatype>
																<trackindex>1</trackindex>
																<clipindex>1</clipindex>
															</link>
															<link>
																<linkclipref>clipitem-1112</linkclipref>
																<mediatype>audio</mediatype>
																<trackindex>1</trackindex>
																<clipindex>1</clipindex>
																<groupindex>1</groupindex>
															</link>
															<link>
																<linkclipref>clipitem-1115</linkclipref>
																<mediatype>audio</mediatype>
																<trackindex>2</trackindex>
																<clipindex>1</clipindex>
																<groupindex>1</groupindex>
															</link>
															<labels>
																<label2>Forest</label2>
															</labels>
														</clipitem>
														<clipitem id="clipitem-1116" premiereChannelType="stereo">
															<masterclipid>masterclip-237</masterclipid>
															<name>SCI_3D prints and builds_1m40s</name>
															<enabled>TRUE</enabled>
															<duration>8432</duration>
															<rate>
																<timebase>30</timebase>
																<ntsc>TRUE</ntsc>
															</rate>
															<start>2990</start>
															<end>5341</end>
															<in>0</in>
															<out>2351</out>
															<pproTicksIn>0</pproTicksIn>
															<pproTicksOut>19926293587200</pproTicksOut>
															<sequence id="sequence-41"/>
															<sourcetrack>
																<mediatype>audio</mediatype>
																<trackindex>1</trackindex>
															</sourcetrack>
															<link>
																<linkclipref>clipitem-1109</linkclipref>
																<mediatype>video</mediatype>
																<trackindex>1</trackindex>
																<clipindex>2</clipindex>
															</link>
															<link>
																<linkclipref>clipitem-1113</linkclipref>
																<mediatype>audio</mediatype>
																<trackindex>1</trackindex>
																<clipindex>2</clipindex>
																<groupindex>1</groupindex>
															</link>
															<link>
																<linkclipref>clipitem-1116</linkclipref>
																<mediatype>audio</mediatype>
																<trackindex>2</trackindex>
																<clipindex>2</clipindex>
																<groupindex>1</groupindex>
															</link>
															<labels>
																<label2>Forest</label2>
															</labels>
														</clipitem>
														<clipitem id="clipitem-1117" premiereChannelType="stereo">
															<masterclipid>masterclip-198</masterclipid>
															<name>01_HouseAd Nest</name>
															<enabled>TRUE</enabled>
															<duration>239</duration>
															<rate>
																<timebase>30</timebase>
																<ntsc>TRUE</ntsc>
															</rate>
															<start>5341</start>
															<end>5580</end>
															<in>0</in>
															<out>239</out>
															<pproTicksIn>0</pproTicksIn>
															<pproTicksOut>2025684460800</pproTicksOut>
															<sequence id="sequence-2"/>
															<sourcetrack>
																<mediatype>audio</mediatype>
																<trackindex>1</trackindex>
															</sourcetrack>
															<link>
																<linkclipref>clipitem-1110</linkclipref>
																<mediatype>video</mediatype>
																<trackindex>1</trackindex>
																<clipindex>3</clipindex>
															</link>
															<link>
																<linkclipref>clipitem-1114</linkclipref>
																<mediatype>audio</mediatype>
																<trackindex>1</trackindex>
																<clipindex>3</clipindex>
																<groupindex>1</groupindex>
															</link>
															<link>
																<linkclipref>clipitem-1117</linkclipref>
																<mediatype>audio</mediatype>
																<trackindex>2</trackindex>
																<clipindex>3</clipindex>
																<groupindex>1</groupindex>
															</link>
															<labels>
																<label2>Yellow</label2>
															</labels>
														</clipitem>
														<enabled>TRUE</enabled>
														<locked>FALSE</locked>
														<outputchannelindex>2</outputchannelindex>
													</track>
													<track TL.SQTrackAudioKeyframeStyle="0" TL.SQTrackShy="0" TL.SQTrackExpandedHeight="25" TL.SQTrackExpanded="0" MZ.TrackTargeted="0" PannerCurrentValue="0.5" PannerIsInverted="true" PannerStartKeyframe="-91445760000000000,0.5,0,0,0,0,0,0" PannerName="Balance" currentExplodedTrackIndex="0" totalExplodedTrackCount="2" premiereTrackType="Stereo">
														<clipitem id="clipitem-1118" premiereChannelType="stereo">
															<masterclipid>masterclip-211</masterclipid>
															<name>00_Quick Logo</name>
															<enabled>TRUE</enabled>
															<duration>953</duration>
															<rate>
																<timebase>30</timebase>
																<ntsc>TRUE</ntsc>
															</rate>
															<start>2950</start>
															<end>3014</end>
															<in>0</in>
															<out>64</out>
															<pproTicksIn>0</pproTicksIn>
															<pproTicksOut>542442700800</pproTicksOut>
															<sequence id="sequence-9"/>
															<sourcetrack>
																<mediatype>audio</mediatype>
																<trackindex>0</trackindex>
															</sourcetrack>
																<marker>
																	<comment></comment>
																	<name></name>
																	<in>14</in>
																	<out>-1</out>
																</marker>
																<marker>
																	<comment></comment>
																	<name></name>
																	<in>40</in>
																	<out>-1</out>
																</marker>
															<link>
																<linkclipref>clipitem-1111</linkclipref>
																<mediatype>video</mediatype>
																<trackindex>2</trackindex>
																<clipindex>1</clipindex>
															</link>
															<link>
																<linkclipref>clipitem-1118</linkclipref>
																<mediatype>audio</mediatype>
																<trackindex>3</trackindex>
																<clipindex>1</clipindex>
																<groupindex>1</groupindex>
															</link>
															<link>
																<linkclipref>clipitem-1119</linkclipref>
																<mediatype>audio</mediatype>
																<trackindex>4</trackindex>
																<clipindex>1</clipindex>
																<groupindex>1</groupindex>
															</link>
															<labels>
																<label2>Cerulean</label2>
															</labels>
														</clipitem>
														<enabled>TRUE</enabled>
														<locked>FALSE</locked>
														<outputchannelindex>1</outputchannelindex>
													</track>
													<track TL.SQTrackAudioKeyframeStyle="0" TL.SQTrackShy="0" TL.SQTrackExpandedHeight="25" TL.SQTrackExpanded="0" MZ.TrackTargeted="0" PannerCurrentValue="0.5" PannerIsInverted="true" PannerStartKeyframe="-91445760000000000,0.5,0,0,0,0,0,0" PannerName="Balance" currentExplodedTrackIndex="1" totalExplodedTrackCount="2" premiereTrackType="Stereo">
														<clipitem id="clipitem-1119" premiereChannelType="stereo">
															<masterclipid>masterclip-211</masterclipid>
															<name>00_Quick Logo</name>
															<enabled>TRUE</enabled>
															<duration>953</duration>
															<rate>
																<timebase>30</timebase>
																<ntsc>TRUE</ntsc>
															</rate>
															<start>2950</start>
															<end>3014</end>
															<in>0</in>
															<out>64</out>
															<pproTicksIn>0</pproTicksIn>
															<pproTicksOut>542442700800</pproTicksOut>
															<sequence id="sequence-9"/>
															<sourcetrack>
																<mediatype>audio</mediatype>
																<trackindex>1</trackindex>
															</sourcetrack>
																<marker>
																	<comment></comment>
																	<name></name>
																	<in>14</in>
																	<out>-1</out>
																</marker>
																<marker>
																	<comment></comment>
																	<name></name>
																	<in>40</in>
																	<out>-1</out>
																</marker>
															<link>
																<linkclipref>clipitem-1111</linkclipref>
																<mediatype>video</mediatype>
																<trackindex>2</trackindex>
																<clipindex>1</clipindex>
															</link>
															<link>
																<linkclipref>clipitem-1118</linkclipref>
																<mediatype>audio</mediatype>
																<trackindex>3</trackindex>
																<clipindex>1</clipindex>
																<groupindex>1</groupindex>
															</link>
															<link>
																<linkclipref>clipitem-1119</linkclipref>
																<mediatype>audio</mediatype>
																<trackindex>4</trackindex>
																<clipindex>1</clipindex>
																<groupindex>1</groupindex>
															</link>
															<labels>
																<label2>Cerulean</label2>
															</labels>
														</clipitem>
														<enabled>TRUE</enabled>
														<locked>FALSE</locked>
														<outputchannelindex>2</outputchannelindex>
													</track>
												</audio>
											</media>
											<timecode>
												<rate>
													<timebase>30</timebase>
													<ntsc>TRUE</ntsc>
												</rate>
												<string>00:00:00:00</string>
												<frame>0</frame>
												<displayformat>NDF</displayformat>
											</timecode>
											<logginginfo>
												<description></description>
												<scene></scene>
												<shottake></shottake>
												<lognote></lognote>
												<good></good>
												<originalvideofilename></originalvideofilename>
												<originalaudiofilename></originalaudiofilename>
											</logginginfo>
										</sequence>
										<link>
											<linkclipref>clipitem-1107</linkclipref>
											<mediatype>video</mediatype>
											<trackindex>1</trackindex>
											<clipindex>14</clipindex>
										</link>
										<link>
											<linkclipref>clipitem-1133</linkclipref>
											<mediatype>audio</mediatype>
											<trackindex>1</trackindex>
											<clipindex>14</clipindex>
											<groupindex>1</groupindex>
										</link>
										<link>
											<linkclipref>clipitem-1147</linkclipref>
											<mediatype>audio</mediatype>
											<trackindex>2</trackindex>
											<clipindex>14</clipindex>
											<groupindex>1</groupindex>
										</link>
										<labels>
											<label2>Forest</label2>
										</labels>
									</clipitem>
									<enabled>TRUE</enabled>
									<locked>FALSE</locked>
								</track>
								<track TL.SQTrackShy="0" TL.SQTrackExpandedHeight="15" TL.SQTrackExpanded="0" MZ.TrackTargeted="0">
									<enabled>TRUE</enabled>
									<locked>FALSE</locked>
								</track>
								<track TL.SQTrackShy="0" TL.SQTrackExpandedHeight="15" TL.SQTrackExpanded="0" MZ.TrackTargeted="0">
									<enabled>TRUE</enabled>
									<locked>FALSE</locked>
								</track>
								<track TL.SQTrackShy="0" TL.SQTrackExpandedHeight="15" TL.SQTrackExpanded="0" MZ.TrackTargeted="0">
									<enabled>TRUE</enabled>
									<locked>FALSE</locked>
								</track>
								<track TL.SQTrackShy="0" TL.SQTrackExpandedHeight="15" TL.SQTrackExpanded="0" MZ.TrackTargeted="0">
									<enabled>TRUE</enabled>
									<locked>FALSE</locked>
								</track>
								<track TL.SQTrackShy="0" TL.SQTrackExpandedHeight="15" TL.SQTrackExpanded="0" MZ.TrackTargeted="0">
									<enabled>TRUE</enabled>
									<locked>FALSE</locked>
								</track>
								<track TL.SQTrackShy="0" TL.SQTrackExpandedHeight="15" TL.SQTrackExpanded="0" MZ.TrackTargeted="0">
									<enabled>TRUE</enabled>
									<locked>FALSE</locked>
								</track>
								<track TL.SQTrackShy="0" TL.SQTrackExpandedHeight="15" TL.SQTrackExpanded="0" MZ.TrackTargeted="0">
									<enabled>TRUE</enabled>
									<locked>FALSE</locked>
								</track>
							</video>
							<audio>
								<numOutputChannels>2</numOutputChannels>
								<format>
									<samplecharacteristics>
										<depth>16</depth>
										<samplerate>44100</samplerate>
									</samplecharacteristics>
								</format>
								<outputs>
									<group>
										<index>1</index>
										<numchannels>1</numchannels>
										<downmix>0</downmix>
										<channel>
											<index>1</index>
										</channel>
									</group>
									<group>
										<index>2</index>
										<numchannels>1</numchannels>
										<downmix>0</downmix>
										<channel>
											<index>2</index>
										</channel>
									</group>
								</outputs>
								<track TL.SQTrackAudioKeyframeStyle="0" TL.SQTrackShy="0" TL.SQTrackExpandedHeight="25" TL.SQTrackExpanded="0" MZ.TrackTargeted="1" PannerCurrentValue="0.5" PannerIsInverted="true" PannerStartKeyframe="-91445760000000000,0.5,0,0,0,0,0,0" PannerName="Balance" currentExplodedTrackIndex="0" totalExplodedTrackCount="2" premiereTrackType="Stereo">
									<clipitem id="clipitem-1120" premiereChannelType="stereo">
										<masterclipid>masterclip-187</masterclipid>
										<name>AA</name>
										<enabled>TRUE</enabled>
										<duration>5195</duration>
										<rate>
											<timebase>30</timebase>
											<ntsc>TRUE</ntsc>
										</rate>
										<start>0</start>
										<end>5042</end>
										<in>0</in>
										<out>5042</out>
										<pproTicksIn>0</pproTicksIn>
										<pproTicksOut>42734314022400</pproTicksOut>
										<sequence id="sequence-71"/>
										<sourcetrack>
											<mediatype>audio</mediatype>
											<trackindex>0</trackindex>
										</sourcetrack>
										<link>
											<linkclipref>clipitem-944</linkclipref>
											<mediatype>video</mediatype>
											<trackindex>1</trackindex>
											<clipindex>1</clipindex>
										</link>
										<link>
											<linkclipref>clipitem-1120</linkclipref>
											<mediatype>audio</mediatype>
											<trackindex>1</trackindex>
											<clipindex>1</clipindex>
											<groupindex>1</groupindex>
										</link>
										<link>
											<linkclipref>clipitem-1134</linkclipref>
											<mediatype>audio</mediatype>
											<trackindex>2</trackindex>
											<clipindex>1</clipindex>
											<groupindex>1</groupindex>
										</link>
										<labels>
											<label2>Forest</label2>
										</labels>
									</clipitem>
									<clipitem id="clipitem-1121" premiereChannelType="stereo">
										<masterclipid>masterclip-191</masterclipid>
										<name>01</name>
										<enabled>TRUE</enabled>
										<duration>96212</duration>
										<rate>
											<timebase>30</timebase>
											<ntsc>TRUE</ntsc>
										</rate>
										<start>7314</start>
										<end>12671</end>
										<in>0</in>
										<out>5357</out>
										<pproTicksIn>0</pproTicksIn>
										<pproTicksOut>45404149190400</pproTicksOut>
										<sequence id="sequence-72"/>
										<sourcetrack>
											<mediatype>audio</mediatype>
											<trackindex>0</trackindex>
										</sourcetrack>
										<link>
											<linkclipref>clipitem-954</linkclipref>
											<mediatype>video</mediatype>
											<trackindex>1</trackindex>
											<clipindex>2</clipindex>
										</link>
										<link>
											<linkclipref>clipitem-1121</linkclipref>
											<mediatype>audio</mediatype>
											<trackindex>1</trackindex>
											<clipindex>2</clipindex>
											<groupindex>1</groupindex>
										</link>
										<link>
											<linkclipref>clipitem-1135</linkclipref>
											<mediatype>audio</mediatype>
											<trackindex>2</trackindex>
											<clipindex>2</clipindex>
											<groupindex>1</groupindex>
										</link>
										<labels>
											<label2>Forest</label2>
										</labels>
									</clipitem>
									<clipitem id="clipitem-1122" premiereChannelType="stereo">
										<masterclipid>masterclip-195</masterclipid>
										<name>03</name>
										<enabled>TRUE</enabled>
										<duration>96212</duration>
										<rate>
											<timebase>30</timebase>
											<ntsc>TRUE</ntsc>
										</rate>
										<start>15027</start>
										<end>20483</end>
										<in>0</in>
										<out>5456</out>
										<pproTicksIn>0</pproTicksIn>
										<pproTicksOut>46243240243200</pproTicksOut>
										<sequence id="sequence-73"/>
										<sourcetrack>
											<mediatype>audio</mediatype>
											<trackindex>0</trackindex>
										</sourcetrack>
										<link>
											<linkclipref>clipitem-965</linkclipref>
											<mediatype>video</mediatype>
											<trackindex>1</trackindex>
											<clipindex>3</clipindex>
										</link>
										<link>
											<linkclipref>clipitem-1122</linkclipref>
											<mediatype>audio</mediatype>
											<trackindex>1</trackindex>
											<clipindex>3</clipindex>
											<groupindex>1</groupindex>
										</link>
										<link>
											<linkclipref>clipitem-1136</linkclipref>
											<mediatype>audio</mediatype>
											<trackindex>2</trackindex>
											<clipindex>3</clipindex>
											<groupindex>1</groupindex>
										</link>
										<labels>
											<label2>Forest</label2>
										</labels>
									</clipitem>
									<clipitem id="clipitem-1123" premiereChannelType="stereo">
										<masterclipid>masterclip-200</masterclipid>
										<name>07</name>
										<enabled>TRUE</enabled>
										<duration>96212</duration>
										<rate>
											<timebase>30</timebase>
											<ntsc>TRUE</ntsc>
										</rate>
										<start>22884</start>
										<end>28537</end>
										<in>0</in>
										<out>5653</out>
										<pproTicksIn>0</pproTicksIn>
										<pproTicksOut>47912946681600</pproTicksOut>
										<sequence id="sequence-74"/>
										<sourcetrack>
											<mediatype>audio</mediatype>
											<trackindex>0</trackindex>
										</sourcetrack>
										<link>
											<linkclipref>clipitem-980</linkclipref>
											<mediatype>video</mediatype>
											<trackindex>1</trackindex>
											<clipindex>4</clipindex>
										</link>
										<link>
											<linkclipref>clipitem-1123</linkclipref>
											<mediatype>audio</mediatype>
											<trackindex>1</trackindex>
											<clipindex>4</clipindex>
											<groupindex>1</groupindex>
										</link>
										<link>
											<linkclipref>clipitem-1137</linkclipref>
											<mediatype>audio</mediatype>
											<trackindex>2</trackindex>
											<clipindex>4</clipindex>
											<groupindex>1</groupindex>
										</link>
										<labels>
											<label2>Forest</label2>
										</labels>
									</clipitem>
									<clipitem id="clipitem-1124" premiereChannelType="stereo">
										<masterclipid>masterclip-204</masterclipid>
										<name>05</name>
										<enabled>TRUE</enabled>
										<duration>96212</duration>
										<rate>
											<timebase>30</timebase>
											<ntsc>TRUE</ntsc>
										</rate>
										<start>29977</start>
										<end>35299</end>
										<in>0</in>
										<out>5322</out>
										<pproTicksIn>0</pproTicksIn>
										<pproTicksOut>45107500838400</pproTicksOut>
										<sequence id="sequence-75"/>
										<sourcetrack>
											<mediatype>audio</mediatype>
											<trackindex>0</trackindex>
										</sourcetrack>
										<link>
											<linkclipref>clipitem-993</linkclipref>
											<mediatype>video</mediatype>
											<trackindex>1</trackindex>
											<clipindex>5</clipindex>
										</link>
										<link>
											<linkclipref>clipitem-1124</linkclipref>
											<mediatype>audio</mediatype>
											<trackindex>1</trackindex>
											<clipindex>5</clipindex>
											<groupindex>1</groupindex>
										</link>
										<link>
											<linkclipref>clipitem-1138</linkclipref>
											<mediatype>audio</mediatype>
											<trackindex>2</trackindex>
											<clipindex>5</clipindex>
											<groupindex>1</groupindex>
										</link>
										<labels>
											<label2>Forest</label2>
										</labels>
									</clipitem>
									<clipitem id="clipitem-1125" premiereChannelType="stereo">
										<masterclipid>masterclip-208</masterclipid>
										<name>09</name>
										<enabled>TRUE</enabled>
										<duration>96212</duration>
										<rate>
											<timebase>30</timebase>
											<ntsc>TRUE</ntsc>
										</rate>
										<start>37316</start>
										<end>42940</end>
										<in>0</in>
										<out>5624</out>
										<pproTicksIn>0</pproTicksIn>
										<pproTicksOut>47667152332800</pproTicksOut>
										<sequence id="sequence-76"/>
										<sourcetrack>
											<mediatype>audio</mediatype>
											<trackindex>0</trackindex>
										</sourcetrack>
										<link>
											<linkclipref>clipitem-1004</linkclipref>
											<mediatype>video</mediatype>
											<trackindex>1</trackindex>
											<clipindex>6</clipindex>
										</link>
										<link>
											<linkclipref>clipitem-1125</linkclipref>
											<mediatype>audio</mediatype>
											<trackindex>1</trackindex>
											<clipindex>6</clipindex>
											<groupindex>1</groupindex>
										</link>
										<link>
											<linkclipref>clipitem-1139</linkclipref>
											<mediatype>audio</mediatype>
											<trackindex>2</trackindex>
											<clipindex>6</clipindex>
											<groupindex>1</groupindex>
										</link>
										<labels>
											<label2>Forest</label2>
										</labels>
									</clipitem>
									<clipitem id="clipitem-1126" premiereChannelType="stereo">
										<masterclipid>masterclip-212</masterclipid>
										<name>06</name>
										<enabled>TRUE</enabled>
										<duration>96212</duration>
										<rate>
											<timebase>30</timebase>
											<ntsc>TRUE</ntsc>
										</rate>
										<start>45144</start>
										<end>50913</end>
										<in>0</in>
										<out>5769</out>
										<pproTicksIn>0</pproTicksIn>
										<pproTicksOut>48896124076800</pproTicksOut>
										<sequence id="sequence-77"/>
										<sourcetrack>
											<mediatype>audio</mediatype>
											<trackindex>0</trackindex>
										</sourcetrack>
										<link>
											<linkclipref>clipitem-1019</linkclipref>
											<mediatype>video</mediatype>
											<trackindex>1</trackindex>
											<clipindex>7</clipindex>
										</link>
										<link>
											<linkclipref>clipitem-1126</linkclipref>
											<mediatype>audio</mediatype>
											<trackindex>1</trackindex>
											<clipindex>7</clipindex>
											<groupindex>1</groupindex>
										</link>
										<link>
											<linkclipref>clipitem-1140</linkclipref>
											<mediatype>audio</mediatype>
											<trackindex>2</trackindex>
											<clipindex>7</clipindex>
											<groupindex>1</groupindex>
										</link>
										<labels>
											<label2>Forest</label2>
										</labels>
									</clipitem>
									<clipitem id="clipitem-1127" premiereChannelType="stereo">
										<masterclipid>masterclip-215</masterclipid>
										<name>08</name>
										<enabled>TRUE</enabled>
										<duration>96212</duration>
										<rate>
											<timebase>30</timebase>
											<ntsc>TRUE</ntsc>
										</rate>
										<start>53695</start>
										<end>59192</end>
										<in>0</in>
										<out>5497</out>
										<pproTicksIn>0</pproTicksIn>
										<pproTicksOut>46590742598400</pproTicksOut>
										<sequence id="sequence-78"/>
										<sourcetrack>
											<mediatype>audio</mediatype>
											<trackindex>0</trackindex>
										</sourcetrack>
										<link>
											<linkclipref>clipitem-1032</linkclipref>
											<mediatype>video</mediatype>
											<trackindex>1</trackindex>
											<clipindex>8</clipindex>
										</link>
										<link>
											<linkclipref>clipitem-1127</linkclipref>
											<mediatype>audio</mediatype>
											<trackindex>1</trackindex>
											<clipindex>8</clipindex>
											<groupindex>1</groupindex>
										</link>
										<link>
											<linkclipref>clipitem-1141</linkclipref>
											<mediatype>audio</mediatype>
											<trackindex>2</trackindex>
											<clipindex>8</clipindex>
											<groupindex>1</groupindex>
										</link>
										<labels>
											<label2>Forest</label2>
										</labels>
									</clipitem>
									<clipitem id="clipitem-1128" premiereChannelType="stereo">
										<masterclipid>masterclip-219</masterclipid>
										<name>04</name>
										<enabled>TRUE</enabled>
										<duration>96212</duration>
										<rate>
											<timebase>30</timebase>
											<ntsc>TRUE</ntsc>
										</rate>
										<start>61910</start>
										<end>67372</end>
										<in>0</in>
										<out>5462</out>
										<pproTicksIn>0</pproTicksIn>
										<pproTicksOut>46294094246400</pproTicksOut>
										<sequence id="sequence-79"/>
										<sourcetrack>
											<mediatype>audio</mediatype>
											<trackindex>0</trackindex>
										</sourcetrack>
										<link>
											<linkclipref>clipitem-1045</linkclipref>
											<mediatype>video</mediatype>
											<trackindex>1</trackindex>
											<clipindex>9</clipindex>
										</link>
										<link>
											<linkclipref>clipitem-1128</linkclipref>
											<mediatype>audio</mediatype>
											<trackindex>1</trackindex>
											<clipindex>9</clipindex>
											<groupindex>1</groupindex>
										</link>
										<link>
											<linkclipref>clipitem-1142</linkclipref>
											<mediatype>audio</mediatype>
											<trackindex>2</trackindex>
											<clipindex>9</clipindex>
											<groupindex>1</groupindex>
										</link>
										<labels>
											<label2>Forest</label2>
										</labels>
									</clipitem>
									<clipitem id="clipitem-1129" premiereChannelType="stereo">
										<masterclipid>masterclip-223</masterclipid>
										<name>02</name>
										<enabled>TRUE</enabled>
										<duration>96212</duration>
										<rate>
											<timebase>30</timebase>
											<ntsc>TRUE</ntsc>
										</rate>
										<start>69275</start>
										<end>74638</end>
										<in>0</in>
										<out>5363</out>
										<pproTicksIn>0</pproTicksIn>
										<pproTicksOut>45455003193600</pproTicksOut>
										<sequence id="sequence-80"/>
										<sourcetrack>
											<mediatype>audio</mediatype>
											<trackindex>0</trackindex>
										</sourcetrack>
										<link>
											<linkclipref>clipitem-1060</linkclipref>
											<mediatype>video</mediatype>
											<trackindex>1</trackindex>
											<clipindex>10</clipindex>
										</link>
										<link>
											<linkclipref>clipitem-1129</linkclipref>
											<mediatype>audio</mediatype>
											<trackindex>1</trackindex>
											<clipindex>10</clipindex>
											<groupindex>1</groupindex>
										</link>
										<link>
											<linkclipref>clipitem-1143</linkclipref>
											<mediatype>audio</mediatype>
											<trackindex>2</trackindex>
											<clipindex>10</clipindex>
											<groupindex>1</groupindex>
										</link>
										<labels>
											<label2>Forest</label2>
										</labels>
									</clipitem>
									<clipitem id="clipitem-1130" premiereChannelType="stereo">
										<masterclipid>masterclip-226</masterclipid>
										<name>TEMPLATE Copy 2532</name>
										<enabled>TRUE</enabled>
										<duration>96212</duration>
										<rate>
											<timebase>30</timebase>
											<ntsc>TRUE</ntsc>
										</rate>
										<start>76684</start>
										<end>82227</end>
										<in>0</in>
										<out>5543</out>
										<pproTicksIn>0</pproTicksIn>
										<pproTicksOut>46980623289600</pproTicksOut>
										<sequence id="sequence-81"/>
										<sourcetrack>
											<mediatype>audio</mediatype>
											<trackindex>0</trackindex>
										</sourcetrack>
										<link>
											<linkclipref>clipitem-1073</linkclipref>
											<mediatype>video</mediatype>
											<trackindex>1</trackindex>
											<clipindex>11</clipindex>
										</link>
										<link>
											<linkclipref>clipitem-1130</linkclipref>
											<mediatype>audio</mediatype>
											<trackindex>1</trackindex>
											<clipindex>11</clipindex>
											<groupindex>1</groupindex>
										</link>
										<link>
											<linkclipref>clipitem-1144</linkclipref>
											<mediatype>audio</mediatype>
											<trackindex>2</trackindex>
											<clipindex>11</clipindex>
											<groupindex>1</groupindex>
										</link>
										<labels>
											<label2>Forest</label2>
										</labels>
									</clipitem>
									<clipitem id="clipitem-1131" premiereChannelType="stereo">
										<masterclipid>masterclip-229</masterclipid>
										<name>TEMPLATE Copy 2534</name>
										<enabled>TRUE</enabled>
										<duration>96212</duration>
										<rate>
											<timebase>30</timebase>
											<ntsc>TRUE</ntsc>
										</rate>
										<start>89880</start>
										<end>95268</end>
										<in>0</in>
										<out>5388</out>
										<pproTicksIn>0</pproTicksIn>
										<pproTicksOut>45666894873600</pproTicksOut>
										<sequence id="sequence-82"/>
										<sourcetrack>
											<mediatype>audio</mediatype>
											<trackindex>0</trackindex>
										</sourcetrack>
										<link>
											<linkclipref>clipitem-1086</linkclipref>
											<mediatype>video</mediatype>
											<trackindex>1</trackindex>
											<clipindex>12</clipindex>
										</link>
										<link>
											<linkclipref>clipitem-1131</linkclipref>
											<mediatype>audio</mediatype>
											<trackindex>1</trackindex>
											<clipindex>12</clipindex>
											<groupindex>1</groupindex>
										</link>
										<link>
											<linkclipref>clipitem-1145</linkclipref>
											<mediatype>audio</mediatype>
											<trackindex>2</trackindex>
											<clipindex>12</clipindex>
											<groupindex>1</groupindex>
										</link>
										<labels>
											<label2>Forest</label2>
										</labels>
									</clipitem>
									<clipitem id="clipitem-1132" premiereChannelType="stereo">
										<masterclipid>masterclip-232</masterclipid>
										<name>NN</name>
										<enabled>TRUE</enabled>
										<duration>5956</duration>
										<rate>
											<timebase>30</timebase>
											<ntsc>TRUE</ntsc>
										</rate>
										<start>97310</start>
										<end>102879</end>
										<in>0</in>
										<out>5569</out>
										<pproTicksIn>0</pproTicksIn>
										<pproTicksOut>47200990636800</pproTicksOut>
										<sequence id="sequence-83"/>
										<sourcetrack>
											<mediatype>audio</mediatype>
											<trackindex>0</trackindex>
										</sourcetrack>
										<link>
											<linkclipref>clipitem-1097</linkclipref>
											<mediatype>video</mediatype>
											<trackindex>1</trackindex>
											<clipindex>13</clipindex>
										</link>
										<link>
											<linkclipref>clipitem-1132</linkclipref>
											<mediatype>audio</mediatype>
											<trackindex>1</trackindex>
											<clipindex>13</clipindex>
											<groupindex>1</groupindex>
										</link>
										<link>
											<linkclipref>clipitem-1146</linkclipref>
											<mediatype>audio</mediatype>
											<trackindex>2</trackindex>
											<clipindex>13</clipindex>
											<groupindex>1</groupindex>
										</link>
										<labels>
											<label2>Forest</label2>
										</labels>
									</clipitem>
									<clipitem id="clipitem-1133" premiereChannelType="stereo">
										<masterclipid>masterclip-235</masterclipid>
										<name>OO</name>
										<enabled>TRUE</enabled>
										<duration>5971</duration>
										<rate>
											<timebase>30</timebase>
											<ntsc>TRUE</ntsc>
										</rate>
										<start>105843</start>
										<end>111383</end>
										<in>0</in>
										<out>5540</out>
										<pproTicksIn>0</pproTicksIn>
										<pproTicksOut>46955196288000</pproTicksOut>
										<sequence id="sequence-84"/>
										<sourcetrack>
											<mediatype>audio</mediatype>
											<trackindex>0</trackindex>
										</sourcetrack>
										<link>
											<linkclipref>clipitem-1107</linkclipref>
											<mediatype>video</mediatype>
											<trackindex>1</trackindex>
											<clipindex>14</clipindex>
										</link>
										<link>
											<linkclipref>clipitem-1133</linkclipref>
											<mediatype>audio</mediatype>
											<trackindex>1</trackindex>
											<clipindex>14</clipindex>
											<groupindex>1</groupindex>
										</link>
										<link>
											<linkclipref>clipitem-1147</linkclipref>
											<mediatype>audio</mediatype>
											<trackindex>2</trackindex>
											<clipindex>14</clipindex>
											<groupindex>1</groupindex>
										</link>
										<labels>
											<label2>Forest</label2>
										</labels>
									</clipitem>
									<enabled>TRUE</enabled>
									<locked>FALSE</locked>
									<outputchannelindex>1</outputchannelindex>
								</track>
								<track TL.SQTrackAudioKeyframeStyle="0" TL.SQTrackShy="0" TL.SQTrackExpandedHeight="25" TL.SQTrackExpanded="0" MZ.TrackTargeted="1" PannerCurrentValue="0.5" PannerIsInverted="true" PannerStartKeyframe="-91445760000000000,0.5,0,0,0,0,0,0" PannerName="Balance" currentExplodedTrackIndex="1" totalExplodedTrackCount="2" premiereTrackType="Stereo">
									<clipitem id="clipitem-1134" premiereChannelType="stereo">
										<masterclipid>masterclip-187</masterclipid>
										<name>AA</name>
										<enabled>TRUE</enabled>
										<duration>5195</duration>
										<rate>
											<timebase>30</timebase>
											<ntsc>TRUE</ntsc>
										</rate>
										<start>0</start>
										<end>5042</end>
										<in>0</in>
										<out>5042</out>
										<pproTicksIn>0</pproTicksIn>
										<pproTicksOut>42734314022400</pproTicksOut>
										<sequence id="sequence-71"/>
										<sourcetrack>
											<mediatype>audio</mediatype>
											<trackindex>1</trackindex>
										</sourcetrack>
										<link>
											<linkclipref>clipitem-944</linkclipref>
											<mediatype>video</mediatype>
											<trackindex>1</trackindex>
											<clipindex>1</clipindex>
										</link>
										<link>
											<linkclipref>clipitem-1120</linkclipref>
											<mediatype>audio</mediatype>
											<trackindex>1</trackindex>
											<clipindex>1</clipindex>
											<groupindex>1</groupindex>
										</link>
										<link>
											<linkclipref>clipitem-1134</linkclipref>
											<mediatype>audio</mediatype>
											<trackindex>2</trackindex>
											<clipindex>1</clipindex>
											<groupindex>1</groupindex>
										</link>
										<labels>
											<label2>Forest</label2>
										</labels>
									</clipitem>
									<clipitem id="clipitem-1135" premiereChannelType="stereo">
										<masterclipid>masterclip-191</masterclipid>
										<name>01</name>
										<enabled>TRUE</enabled>
										<duration>96212</duration>
										<rate>
											<timebase>30</timebase>
											<ntsc>TRUE</ntsc>
										</rate>
										<start>7314</start>
										<end>12671</end>
										<in>0</in>
										<out>5357</out>
										<pproTicksIn>0</pproTicksIn>
										<pproTicksOut>45404149190400</pproTicksOut>
										<sequence id="sequence-72"/>
										<sourcetrack>
											<mediatype>audio</mediatype>
											<trackindex>1</trackindex>
										</sourcetrack>
										<link>
											<linkclipref>clipitem-954</linkclipref>
											<mediatype>video</mediatype>
											<trackindex>1</trackindex>
											<clipindex>2</clipindex>
										</link>
										<link>
											<linkclipref>clipitem-1121</linkclipref>
											<mediatype>audio</mediatype>
											<trackindex>1</trackindex>
											<clipindex>2</clipindex>
											<groupindex>1</groupindex>
										</link>
										<link>
											<linkclipref>clipitem-1135</linkclipref>
											<mediatype>audio</mediatype>
											<trackindex>2</trackindex>
											<clipindex>2</clipindex>
											<groupindex>1</groupindex>
										</link>
										<labels>
											<label2>Forest</label2>
										</labels>
									</clipitem>
									<clipitem id="clipitem-1136" premiereChannelType="stereo">
										<masterclipid>masterclip-195</masterclipid>
										<name>03</name>
										<enabled>TRUE</enabled>
										<duration>96212</duration>
										<rate>
											<timebase>30</timebase>
											<ntsc>TRUE</ntsc>
										</rate>
										<start>15027</start>
										<end>20483</end>
										<in>0</in>
										<out>5456</out>
										<pproTicksIn>0</pproTicksIn>
										<pproTicksOut>46243240243200</pproTicksOut>
										<sequence id="sequence-73"/>
										<sourcetrack>
											<mediatype>audio</mediatype>
											<trackindex>1</trackindex>
										</sourcetrack>
										<link>
											<linkclipref>clipitem-965</linkclipref>
											<mediatype>video</mediatype>
											<trackindex>1</trackindex>
											<clipindex>3</clipindex>
										</link>
										<link>
											<linkclipref>clipitem-1122</linkclipref>
											<mediatype>audio</mediatype>
											<trackindex>1</trackindex>
											<clipindex>3</clipindex>
											<groupindex>1</groupindex>
										</link>
										<link>
											<linkclipref>clipitem-1136</linkclipref>
											<mediatype>audio</mediatype>
											<trackindex>2</trackindex>
											<clipindex>3</clipindex>
											<groupindex>1</groupindex>
										</link>
										<labels>
											<label2>Forest</label2>
										</labels>
									</clipitem>
									<clipitem id="clipitem-1137" premiereChannelType="stereo">
										<masterclipid>masterclip-200</masterclipid>
										<name>07</name>
										<enabled>TRUE</enabled>
										<duration>96212</duration>
										<rate>
											<timebase>30</timebase>
											<ntsc>TRUE</ntsc>
										</rate>
										<start>22884</start>
										<end>28537</end>
										<in>0</in>
										<out>5653</out>
										<pproTicksIn>0</pproTicksIn>
										<pproTicksOut>47912946681600</pproTicksOut>
										<sequence id="sequence-74"/>
										<sourcetrack>
											<mediatype>audio</mediatype>
											<trackindex>1</trackindex>
										</sourcetrack>
										<link>
											<linkclipref>clipitem-980</linkclipref>
											<mediatype>video</mediatype>
											<trackindex>1</trackindex>
											<clipindex>4</clipindex>
										</link>
										<link>
											<linkclipref>clipitem-1123</linkclipref>
											<mediatype>audio</mediatype>
											<trackindex>1</trackindex>
											<clipindex>4</clipindex>
											<groupindex>1</groupindex>
										</link>
										<link>
											<linkclipref>clipitem-1137</linkclipref>
											<mediatype>audio</mediatype>
											<trackindex>2</trackindex>
											<clipindex>4</clipindex>
											<groupindex>1</groupindex>
										</link>
										<labels>
											<label2>Forest</label2>
										</labels>
									</clipitem>
									<clipitem id="clipitem-1138" premiereChannelType="stereo">
										<masterclipid>masterclip-204</masterclipid>
										<name>05</name>
										<enabled>TRUE</enabled>
										<duration>96212</duration>
										<rate>
											<timebase>30</timebase>
											<ntsc>TRUE</ntsc>
										</rate>
										<start>29977</start>
										<end>35299</end>
										<in>0</in>
										<out>5322</out>
										<pproTicksIn>0</pproTicksIn>
										<pproTicksOut>45107500838400</pproTicksOut>
										<sequence id="sequence-75"/>
										<sourcetrack>
											<mediatype>audio</mediatype>
											<trackindex>1</trackindex>
										</sourcetrack>
										<link>
											<linkclipref>clipitem-993</linkclipref>
											<mediatype>video</mediatype>
											<trackindex>1</trackindex>
											<clipindex>5</clipindex>
										</link>
										<link>
											<linkclipref>clipitem-1124</linkclipref>
											<mediatype>audio</mediatype>
											<trackindex>1</trackindex>
											<clipindex>5</clipindex>
											<groupindex>1</groupindex>
										</link>
										<link>
											<linkclipref>clipitem-1138</linkclipref>
											<mediatype>audio</mediatype>
											<trackindex>2</trackindex>
											<clipindex>5</clipindex>
											<groupindex>1</groupindex>
										</link>
										<labels>
											<label2>Forest</label2>
										</labels>
									</clipitem>
									<clipitem id="clipitem-1139" premiereChannelType="stereo">
										<masterclipid>masterclip-208</masterclipid>
										<name>09</name>
										<enabled>TRUE</enabled>
										<duration>96212</duration>
										<rate>
											<timebase>30</timebase>
											<ntsc>TRUE</ntsc>
										</rate>
										<start>37316</start>
										<end>42940</end>
										<in>0</in>
										<out>5624</out>
										<pproTicksIn>0</pproTicksIn>
										<pproTicksOut>47667152332800</pproTicksOut>
										<sequence id="sequence-76"/>
										<sourcetrack>
											<mediatype>audio</mediatype>
											<trackindex>1</trackindex>
										</sourcetrack>
										<link>
											<linkclipref>clipitem-1004</linkclipref>
											<mediatype>video</mediatype>
											<trackindex>1</trackindex>
											<clipindex>6</clipindex>
										</link>
										<link>
											<linkclipref>clipitem-1125</linkclipref>
											<mediatype>audio</mediatype>
											<trackindex>1</trackindex>
											<clipindex>6</clipindex>
											<groupindex>1</groupindex>
										</link>
										<link>
											<linkclipref>clipitem-1139</linkclipref>
											<mediatype>audio</mediatype>
											<trackindex>2</trackindex>
											<clipindex>6</clipindex>
											<groupindex>1</groupindex>
										</link>
										<labels>
											<label2>Forest</label2>
										</labels>
									</clipitem>
									<clipitem id="clipitem-1140" premiereChannelType="stereo">
										<masterclipid>masterclip-212</masterclipid>
										<name>06</name>
										<enabled>TRUE</enabled>
										<duration>96212</duration>
										<rate>
											<timebase>30</timebase>
											<ntsc>TRUE</ntsc>
										</rate>
										<start>45144</start>
										<end>50913</end>
										<in>0</in>
										<out>5769</out>
										<pproTicksIn>0</pproTicksIn>
										<pproTicksOut>48896124076800</pproTicksOut>
										<sequence id="sequence-77"/>
										<sourcetrack>
											<mediatype>audio</mediatype>
											<trackindex>1</trackindex>
										</sourcetrack>
										<link>
											<linkclipref>clipitem-1019</linkclipref>
											<mediatype>video</mediatype>
											<trackindex>1</trackindex>
											<clipindex>7</clipindex>
										</link>
										<link>
											<linkclipref>clipitem-1126</linkclipref>
											<mediatype>audio</mediatype>
											<trackindex>1</trackindex>
											<clipindex>7</clipindex>
											<groupindex>1</groupindex>
										</link>
										<link>
											<linkclipref>clipitem-1140</linkclipref>
											<mediatype>audio</mediatype>
											<trackindex>2</trackindex>
											<clipindex>7</clipindex>
											<groupindex>1</groupindex>
										</link>
										<labels>
											<label2>Forest</label2>
										</labels>
									</clipitem>
									<clipitem id="clipitem-1141" premiereChannelType="stereo">
										<masterclipid>masterclip-215</masterclipid>
										<name>08</name>
										<enabled>TRUE</enabled>
										<duration>96212</duration>
										<rate>
											<timebase>30</timebase>
											<ntsc>TRUE</ntsc>
										</rate>
										<start>53695</start>
										<end>59192</end>
										<in>0</in>
										<out>5497</out>
										<pproTicksIn>0</pproTicksIn>
										<pproTicksOut>46590742598400</pproTicksOut>
										<sequence id="sequence-78"/>
										<sourcetrack>
											<mediatype>audio</mediatype>
											<trackindex>1</trackindex>
										</sourcetrack>
										<link>
											<linkclipref>clipitem-1032</linkclipref>
											<mediatype>video</mediatype>
											<trackindex>1</trackindex>
											<clipindex>8</clipindex>
										</link>
										<link>
											<linkclipref>clipitem-1127</linkclipref>
											<mediatype>audio</mediatype>
											<trackindex>1</trackindex>
											<clipindex>8</clipindex>
											<groupindex>1</groupindex>
										</link>
										<link>
											<linkclipref>clipitem-1141</linkclipref>
											<mediatype>audio</mediatype>
											<trackindex>2</trackindex>
											<clipindex>8</clipindex>
											<groupindex>1</groupindex>
										</link>
										<labels>
											<label2>Forest</label2>
										</labels>
									</clipitem>
									<clipitem id="clipitem-1142" premiereChannelType="stereo">
										<masterclipid>masterclip-219</masterclipid>
										<name>04</name>
										<enabled>TRUE</enabled>
										<duration>96212</duration>
										<rate>
											<timebase>30</timebase>
											<ntsc>TRUE</ntsc>
										</rate>
										<start>61910</start>
										<end>67372</end>
										<in>0</in>
										<out>5462</out>
										<pproTicksIn>0</pproTicksIn>
										<pproTicksOut>46294094246400</pproTicksOut>
										<sequence id="sequence-79"/>
										<sourcetrack>
											<mediatype>audio</mediatype>
											<trackindex>1</trackindex>
										</sourcetrack>
										<link>
											<linkclipref>clipitem-1045</linkclipref>
											<mediatype>video</mediatype>
											<trackindex>1</trackindex>
											<clipindex>9</clipindex>
										</link>
										<link>
											<linkclipref>clipitem-1128</linkclipref>
											<mediatype>audio</mediatype>
											<trackindex>1</trackindex>
											<clipindex>9</clipindex>
											<groupindex>1</groupindex>
										</link>
										<link>
											<linkclipref>clipitem-1142</linkclipref>
											<mediatype>audio</mediatype>
											<trackindex>2</trackindex>
											<clipindex>9</clipindex>
											<groupindex>1</groupindex>
										</link>
										<labels>
											<label2>Forest</label2>
										</labels>
									</clipitem>
									<clipitem id="clipitem-1143" premiereChannelType="stereo">
										<masterclipid>masterclip-223</masterclipid>
										<name>02</name>
										<enabled>TRUE</enabled>
										<duration>96212</duration>
										<rate>
											<timebase>30</timebase>
											<ntsc>TRUE</ntsc>
										</rate>
										<start>69275</start>
										<end>74638</end>
										<in>0</in>
										<out>5363</out>
										<pproTicksIn>0</pproTicksIn>
										<pproTicksOut>45455003193600</pproTicksOut>
										<sequence id="sequence-80"/>
										<sourcetrack>
											<mediatype>audio</mediatype>
											<trackindex>1</trackindex>
										</sourcetrack>
										<link>
											<linkclipref>clipitem-1060</linkclipref>
											<mediatype>video</mediatype>
											<trackindex>1</trackindex>
											<clipindex>10</clipindex>
										</link>
										<link>
											<linkclipref>clipitem-1129</linkclipref>
											<mediatype>audio</mediatype>
											<trackindex>1</trackindex>
											<clipindex>10</clipindex>
											<groupindex>1</groupindex>
										</link>
										<link>
											<linkclipref>clipitem-1143</linkclipref>
											<mediatype>audio</mediatype>
											<trackindex>2</trackindex>
											<clipindex>10</clipindex>
											<groupindex>1</groupindex>
										</link>
										<labels>
											<label2>Forest</label2>
										</labels>
									</clipitem>
									<clipitem id="clipitem-1144" premiereChannelType="stereo">
										<masterclipid>masterclip-226</masterclipid>
										<name>TEMPLATE Copy 2532</name>
										<enabled>TRUE</enabled>
										<duration>96212</duration>
										<rate>
											<timebase>30</timebase>
											<ntsc>TRUE</ntsc>
										</rate>
										<start>76684</start>
										<end>82227</end>
										<in>0</in>
										<out>5543</out>
										<pproTicksIn>0</pproTicksIn>
										<pproTicksOut>46980623289600</pproTicksOut>
										<sequence id="sequence-81"/>
										<sourcetrack>
											<mediatype>audio</mediatype>
											<trackindex>1</trackindex>
										</sourcetrack>
										<link>
											<linkclipref>clipitem-1073</linkclipref>
											<mediatype>video</mediatype>
											<trackindex>1</trackindex>
											<clipindex>11</clipindex>
										</link>
										<link>
											<linkclipref>clipitem-1130</linkclipref>
											<mediatype>audio</mediatype>
											<trackindex>1</trackindex>
											<clipindex>11</clipindex>
											<groupindex>1</groupindex>
										</link>
										<link>
											<linkclipref>clipitem-1144</linkclipref>
											<mediatype>audio</mediatype>
											<trackindex>2</trackindex>
											<clipindex>11</clipindex>
											<groupindex>1</groupindex>
										</link>
										<labels>
											<label2>Forest</label2>
										</labels>
									</clipitem>
									<clipitem id="clipitem-1145" premiereChannelType="stereo">
										<masterclipid>masterclip-229</masterclipid>
										<name>TEMPLATE Copy 2534</name>
										<enabled>TRUE</enabled>
										<duration>96212</duration>
										<rate>
											<timebase>30</timebase>
											<ntsc>TRUE</ntsc>
										</rate>
										<start>89880</start>
										<end>95268</end>
										<in>0</in>
										<out>5388</out>
										<pproTicksIn>0</pproTicksIn>
										<pproTicksOut>45666894873600</pproTicksOut>
										<sequence id="sequence-82"/>
										<sourcetrack>
											<mediatype>audio</mediatype>
											<trackindex>1</trackindex>
										</sourcetrack>
										<link>
											<linkclipref>clipitem-1086</linkclipref>
											<mediatype>video</mediatype>
											<trackindex>1</trackindex>
											<clipindex>12</clipindex>
										</link>
										<link>
											<linkclipref>clipitem-1131</linkclipref>
											<mediatype>audio</mediatype>
											<trackindex>1</trackindex>
											<clipindex>12</clipindex>
											<groupindex>1</groupindex>
										</link>
										<link>
											<linkclipref>clipitem-1145</linkclipref>
											<mediatype>audio</mediatype>
											<trackindex>2</trackindex>
											<clipindex>12</clipindex>
											<groupindex>1</groupindex>
										</link>
										<labels>
											<label2>Forest</label2>
										</labels>
									</clipitem>
									<clipitem id="clipitem-1146" premiereChannelType="stereo">
										<masterclipid>masterclip-232</masterclipid>
										<name>NN</name>
										<enabled>TRUE</enabled>
										<duration>5956</duration>
										<rate>
											<timebase>30</timebase>
											<ntsc>TRUE</ntsc>
										</rate>
										<start>97310</start>
										<end>102879</end>
										<in>0</in>
										<out>5569</out>
										<pproTicksIn>0</pproTicksIn>
										<pproTicksOut>47200990636800</pproTicksOut>
										<sequence id="sequence-83"/>
										<sourcetrack>
											<mediatype>audio</mediatype>
											<trackindex>1</trackindex>
										</sourcetrack>
										<link>
											<linkclipref>clipitem-1097</linkclipref>
											<mediatype>video</mediatype>
											<trackindex>1</trackindex>
											<clipindex>13</clipindex>
										</link>
										<link>
											<linkclipref>clipitem-1132</linkclipref>
											<mediatype>audio</mediatype>
											<trackindex>1</trackindex>
											<clipindex>13</clipindex>
											<groupindex>1</groupindex>
										</link>
										<link>
											<linkclipref>clipitem-1146</linkclipref>
											<mediatype>audio</mediatype>
											<trackindex>2</trackindex>
											<clipindex>13</clipindex>
											<groupindex>1</groupindex>
										</link>
										<labels>
											<label2>Forest</label2>
										</labels>
									</clipitem>
									<clipitem id="clipitem-1147" premiereChannelType="stereo">
										<masterclipid>masterclip-235</masterclipid>
										<name>OO</name>
										<enabled>TRUE</enabled>
										<duration>5971</duration>
										<rate>
											<timebase>30</timebase>
											<ntsc>TRUE</ntsc>
										</rate>
										<start>105843</start>
										<end>111383</end>
										<in>0</in>
										<out>5540</out>
										<pproTicksIn>0</pproTicksIn>
										<pproTicksOut>46955196288000</pproTicksOut>
										<sequence id="sequence-84"/>
										<sourcetrack>
											<mediatype>audio</mediatype>
											<trackindex>1</trackindex>
										</sourcetrack>
										<link>
											<linkclipref>clipitem-1107</linkclipref>
											<mediatype>video</mediatype>
											<trackindex>1</trackindex>
											<clipindex>14</clipindex>
										</link>
										<link>
											<linkclipref>clipitem-1133</linkclipref>
											<mediatype>audio</mediatype>
											<trackindex>1</trackindex>
											<clipindex>14</clipindex>
											<groupindex>1</groupindex>
										</link>
										<link>
											<linkclipref>clipitem-1147</linkclipref>
											<mediatype>audio</mediatype>
											<trackindex>2</trackindex>
											<clipindex>14</clipindex>
											<groupindex>1</groupindex>
										</link>
										<labels>
											<label2>Forest</label2>
										</labels>
									</clipitem>
									<enabled>TRUE</enabled>
									<locked>FALSE</locked>
									<outputchannelindex>2</outputchannelindex>
								</track>
								<track TL.SQTrackAudioKeyframeStyle="0" TL.SQTrackShy="0" TL.SQTrackExpandedHeight="25" TL.SQTrackExpanded="0" MZ.TrackTargeted="1" PannerCurrentValue="0.5" PannerIsInverted="true" PannerStartKeyframe="-91445760000000000,0.5,0,0,0,0,0,0" PannerName="Balance" currentExplodedTrackIndex="0" totalExplodedTrackCount="2" premiereTrackType="Stereo">
									<enabled>TRUE</enabled>
									<locked>FALSE</locked>
									<outputchannelindex>1</outputchannelindex>
								</track>
								<track TL.SQTrackAudioKeyframeStyle="0" TL.SQTrackShy="0" TL.SQTrackExpandedHeight="25" TL.SQTrackExpanded="0" MZ.TrackTargeted="1" PannerCurrentValue="0.5" PannerIsInverted="true" PannerStartKeyframe="-91445760000000000,0.5,0,0,0,0,0,0" PannerName="Balance" currentExplodedTrackIndex="1" totalExplodedTrackCount="2" premiereTrackType="Stereo">
									<enabled>TRUE</enabled>
									<locked>FALSE</locked>
									<outputchannelindex>2</outputchannelindex>
								</track>
								<track TL.SQTrackAudioKeyframeStyle="0" TL.SQTrackShy="0" TL.SQTrackExpandedHeight="25" TL.SQTrackExpanded="0" MZ.TrackTargeted="1" PannerCurrentValue="0.5" PannerIsInverted="true" PannerStartKeyframe="-91445760000000000,0.5,0,0,0,0,0,0" PannerName="Balance" currentExplodedTrackIndex="0" totalExplodedTrackCount="2" premiereTrackType="Stereo">
									<enabled>TRUE</enabled>
									<locked>FALSE</locked>
									<outputchannelindex>1</outputchannelindex>
								</track>
								<track TL.SQTrackAudioKeyframeStyle="0" TL.SQTrackShy="0" TL.SQTrackExpandedHeight="25" TL.SQTrackExpanded="0" MZ.TrackTargeted="1" PannerCurrentValue="0.5" PannerIsInverted="true" PannerStartKeyframe="-91445760000000000,0.5,0,0,0,0,0,0" PannerName="Balance" currentExplodedTrackIndex="1" totalExplodedTrackCount="2" premiereTrackType="Stereo">
									<enabled>TRUE</enabled>
									<locked>FALSE</locked>
									<outputchannelindex>2</outputchannelindex>
								</track>
								<track TL.SQTrackAudioKeyframeStyle="0" TL.SQTrackShy="0" TL.SQTrackExpandedHeight="25" TL.SQTrackExpanded="0" MZ.TrackTargeted="1" PannerCurrentValue="0.5" PannerIsInverted="true" PannerStartKeyframe="-91445760000000000,0.5,0,0,0,0,0,0" PannerName="Balance" currentExplodedTrackIndex="0" totalExplodedTrackCount="2" premiereTrackType="Stereo">
									<enabled>TRUE</enabled>
									<locked>FALSE</locked>
									<outputchannelindex>1</outputchannelindex>
								</track>
								<track TL.SQTrackAudioKeyframeStyle="0" TL.SQTrackShy="0" TL.SQTrackExpandedHeight="25" TL.SQTrackExpanded="0" MZ.TrackTargeted="1" PannerCurrentValue="0.5" PannerIsInverted="true" PannerStartKeyframe="-91445760000000000,0.5,0,0,0,0,0,0" PannerName="Balance" currentExplodedTrackIndex="1" totalExplodedTrackCount="2" premiereTrackType="Stereo">
									<enabled>TRUE</enabled>
									<locked>FALSE</locked>
									<outputchannelindex>2</outputchannelindex>
								</track>
							</audio>
						</media>
						<timecode>
							<rate>
								<timebase>30</timebase>
								<ntsc>TRUE</ntsc>
							</rate>
							<string>00:00:00:00</string>
							<frame>0</frame>
							<displayformat>NDF</displayformat>
						</timecode>
						<labels>
							<label2>Mango</label2>
						</labels>
						<logginginfo>
							<description></description>
							<scene></scene>
							<shottake></shottake>
							<lognote></lognote>
							<good></good>
							<originalvideofilename></originalvideofilename>
							<originalaudiofilename></originalaudiofilename>
						</logginginfo>
						<filter>
							<effect>
								<name>Audio Levels</name>
								<effectid>audiolevels</effectid>
								<effectcategory>audiolevels</effectcategory>
								<effecttype>audiolevels</effecttype>
								<mediatype>audio</mediatype>
								<parameter authoringApp="PremierePro">
									<parameterid>level</parameterid>
									<name>Level</name>
									<valuemin>0</valuemin>
									<valuemax>3.98109</valuemax>
									<value>3.1548</value>
								</parameter>
							</effect>
						</filter>
					</sequence>
					<sequence id="sequence-85" TL.SQAudioVisibleBase="0" TL.SQVideoVisibleBase="0" TL.SQVisibleBaseTime="0" TL.SQAVDividerPosition="0.5" TL.SQHideShyTracks="0" TL.SQHeaderWidth="236" Monitor.ProgramZoomOut="0" Monitor.ProgramZoomIn="0" TL.SQTimePerPixel="0.069092584062642445" MZ.EditLine="0" MZ.Sequence.PreviewFrameSizeHeight="720" MZ.Sequence.PreviewFrameSizeWidth="1280" MZ.Sequence.AudioTimeDisplayFormat="200" MZ.Sequence.PreviewRenderingClassID="1297106761" MZ.Sequence.PreviewRenderingPresetCodec="1297107278" MZ.Sequence.PreviewRenderingPresetPath="EncoderPresets/SequencePreview/795454d9-d3c2-429d-9474-923ab13b7018/I-Frame Only MPEG.epr" MZ.Sequence.PreviewUseMaxRenderQuality="false" MZ.Sequence.PreviewUseMaxBitDepth="false" MZ.Sequence.EditingModeGUID="795454d9-d3c2-429d-9474-923ab13b7018" MZ.Sequence.VideoTimeDisplayFormat="103" MZ.WorkOutPoint="15705411321600" MZ.WorkInPoint="0" explodedTracks="true">
						<uuid>3bbb3c40-1a9b-4e65-b108-b97aa4e39d10</uuid>
						<duration>0</duration>
						<rate>
							<timebase>30</timebase>
							<ntsc>TRUE</ntsc>
						</rate>
						<name>TEMPLATE</name>
						<media>
							<video>
								<format>
									<samplecharacteristics>
										<rate>
											<timebase>30</timebase>
											<ntsc>TRUE</ntsc>
										</rate>
										<codec>
											<name>Apple ProRes 422</name>
											<appspecificdata>
												<appname>Final Cut Pro</appname>
												<appmanufacturer>Apple Inc.</appmanufacturer>
												<appversion>7.0</appversion>
												<data>
													<qtcodec>
														<codecname>Apple ProRes 422</codecname>
														<codectypename>Apple ProRes 422</codectypename>
														<codectypecode>apcn</codectypecode>
														<codecvendorcode>appl</codecvendorcode>
														<spatialquality>1024</spatialquality>
														<temporalquality>0</temporalquality>
														<keyframerate>0</keyframerate>
														<datarate>0</datarate>
													</qtcodec>
												</data>
											</appspecificdata>
										</codec>
										<width>1280</width>
										<height>720</height>
										<anamorphic>FALSE</anamorphic>
										<pixelaspectratio>square</pixelaspectratio>
										<fielddominance>none</fielddominance>
										<colordepth>24</colordepth>
									</samplecharacteristics>
								</format>
								<track TL.SQTrackShy="0" TL.SQTrackExpandedHeight="25" TL.SQTrackExpanded="0" MZ.TrackTargeted="1">
									<enabled>TRUE</enabled>
									<locked>FALSE</locked>
								</track>
								<track TL.SQTrackShy="0" TL.SQTrackExpandedHeight="25" TL.SQTrackExpanded="0" MZ.TrackTargeted="0">
									<enabled>TRUE</enabled>
									<locked>FALSE</locked>
								</track>
								<track TL.SQTrackShy="0" TL.SQTrackExpandedHeight="25" TL.SQTrackExpanded="0" MZ.TrackTargeted="0">
									<enabled>TRUE</enabled>
									<locked>FALSE</locked>
								</track>
								<track TL.SQTrackShy="0" TL.SQTrackExpandedHeight="25" TL.SQTrackExpanded="0" MZ.TrackTargeted="0">
									<enabled>TRUE</enabled>
									<locked>FALSE</locked>
								</track>
							</video>
							<audio>
								<numOutputChannels>2</numOutputChannels>
								<format>
									<samplecharacteristics>
										<depth>16</depth>
										<samplerate>44100</samplerate>
									</samplecharacteristics>
								</format>
								<outputs>
									<group>
										<index>1</index>
										<numchannels>1</numchannels>
										<downmix>0</downmix>
										<channel>
											<index>1</index>
										</channel>
									</group>
									<group>
										<index>2</index>
										<numchannels>1</numchannels>
										<downmix>0</downmix>
										<channel>
											<index>2</index>
										</channel>
									</group>
								</outputs>
								<track TL.SQTrackAudioKeyframeStyle="0" TL.SQTrackShy="0" TL.SQTrackExpandedHeight="25" TL.SQTrackExpanded="0" MZ.TrackTargeted="1" PannerCurrentValue="0.5" PannerIsInverted="true" PannerStartKeyframe="-91445760000000000,0.5,0,0,0,0,0,0" PannerName="Balance" currentExplodedTrackIndex="0" totalExplodedTrackCount="2" premiereTrackType="Stereo">
									<enabled>TRUE</enabled>
									<locked>FALSE</locked>
									<outputchannelindex>1</outputchannelindex>
								</track>
								<track TL.SQTrackAudioKeyframeStyle="0" TL.SQTrackShy="0" TL.SQTrackExpandedHeight="25" TL.SQTrackExpanded="0" MZ.TrackTargeted="1" PannerCurrentValue="0.5" PannerIsInverted="true" PannerStartKeyframe="-91445760000000000,0.5,0,0,0,0,0,0" PannerName="Balance" currentExplodedTrackIndex="1" totalExplodedTrackCount="2" premiereTrackType="Stereo">
									<enabled>TRUE</enabled>
									<locked>FALSE</locked>
									<outputchannelindex>2</outputchannelindex>
								</track>
							</audio>
						</media>
						<timecode>
							<rate>
								<timebase>30</timebase>
								<ntsc>TRUE</ntsc>
							</rate>
							<string>00:00:00:00</string>
							<frame>0</frame>
							<displayformat>NDF</displayformat>
						</timecode>
						<labels>
							<label2>Forest</label2>
						</labels>
						<logginginfo>
							<description></description>
							<scene></scene>
							<shottake></shottake>
							<lognote></lognote>
							<good></good>
							<originalvideofilename></originalvideofilename>
							<originalaudiofilename></originalaudiofilename>
						</logginginfo>
					</sequence>
					<sequence id="sequence-72"/>
					<sequence id="sequence-80"/>
					<sequence id="sequence-73"/>
					<sequence id="sequence-79"/>
					<sequence id="sequence-84"/>
					<sequence id="sequence-71"/>
					<sequence id="sequence-83"/>
					<bin>
						<name>MOVE</name>
						<labels>
							<label2>Mango</label2>
						</labels>
						<children>
							<sequence id="sequence-86" TL.SQAudioVisibleBase="0" TL.SQVideoVisibleBase="0" TL.SQVisibleBaseTime="0" TL.SQAVDividerPosition="0.5" TL.SQHideShyTracks="0" TL.SQHeaderWidth="236" TL.SQDataTrackViewControlState="0" Monitor.ProgramZoomOut="47904471014400" Monitor.ProgramZoomIn="0" TL.SQTimePerPixel="0.18268380774615026" AM.TrackVScrollPosition="0" AM.TrackScrollPosition="0" MZ.EditLine="8534996870400" MZ.Sequence.PreviewFrameSizeHeight="720" MZ.Sequence.PreviewFrameSizeWidth="1280" MZ.Sequence.AudioTimeDisplayFormat="200" MZ.Sequence.PreviewRenderingClassID="1297106761" MZ.Sequence.PreviewRenderingPresetCodec="1297107278" MZ.Sequence.PreviewRenderingPresetPath="EncoderPresets/SequencePreview/795454d9-d3c2-429d-9474-923ab13b7018/I-Frame Only MPEG.epr" MZ.Sequence.PreviewUseMaxRenderQuality="false" MZ.Sequence.PreviewUseMaxBitDepth="false" MZ.Sequence.EditingModeGUID="795454d9-d3c2-429d-9474-923ab13b7018" MZ.Sequence.VideoTimeDisplayFormat="103" MZ.WorkOutPoint="46480558924800" MZ.WorkInPoint="0" explodedTracks="true">
								<uuid>d6988b44-5303-48d8-83f4-1bb9a57f2c4b</uuid>
								<duration>5652</duration>
								<rate>
									<timebase>30</timebase>
									<ntsc>TRUE</ntsc>
								</rate>
								<name>formerlyATM_ODDLY SATISFYING_1554</name>
								<media>
									<video>
										<format>
											<samplecharacteristics>
												<rate>
													<timebase>30</timebase>
													<ntsc>TRUE</ntsc>
												</rate>
												<codec>
													<name>Apple ProRes 422</name>
													<appspecificdata>
														<appname>Final Cut Pro</appname>
														<appmanufacturer>Apple Inc.</appmanufacturer>
														<appversion>7.0</appversion>
														<data>
															<qtcodec>
																<codecname>Apple ProRes 422</codecname>
																<codectypename>Apple ProRes 422</codectypename>
																<codectypecode>apcn</codectypecode>
																<codecvendorcode>appl</codecvendorcode>
																<spatialquality>1024</spatialquality>
																<temporalquality>0</temporalquality>
																<keyframerate>0</keyframerate>
																<datarate>0</datarate>
															</qtcodec>
														</data>
													</appspecificdata>
												</codec>
												<width>1280</width>
												<height>720</height>
												<anamorphic>FALSE</anamorphic>
												<pixelaspectratio>square</pixelaspectratio>
												<fielddominance>none</fielddominance>
												<colordepth>24</colordepth>
											</samplecharacteristics>
										</format>
										<track TL.SQTrackShy="0" TL.SQTrackExpandedHeight="25" TL.SQTrackExpanded="0" MZ.TrackTargeted="1">
											<clipitem id="clipitem-1148">
												<masterclipid>masterclip-238</masterclipid>
												<name>SAT_car paint_2m10s</name>
												<enabled>TRUE</enabled>
												<duration>5474</duration>
												<rate>
													<timebase>30</timebase>
													<ntsc>TRUE</ntsc>
												</rate>
												<start>0</start>
												<end>3882</end>
												<in>0</in>
												<out>3882</out>
												<pproTicksIn>0</pproTicksIn>
												<pproTicksOut>32902540070400</pproTicksOut>
												<sequence id="sequence-46"/>
												<filter>
													<effect>
														<name>Basic Motion</name>
														<effectid>basic</effectid>
														<effectcategory>motion</effectcategory>
														<effecttype>motion</effecttype>
														<mediatype>video</mediatype>
														<pproBypass>false</pproBypass>
														<parameter authoringApp="PremierePro">
															<parameterid>scale</parameterid>
															<name>Scale</name>
															<valuemin>0</valuemin>
															<valuemax>1000</valuemax>
															<value>66.6667</value>
														</parameter>
														<parameter authoringApp="PremierePro">
															<parameterid>rotation</parameterid>
															<name>Rotation</name>
															<valuemin>-8640</valuemin>
															<valuemax>8640</valuemax>
															<value>0</value>
														</parameter>
														<parameter authoringApp="PremierePro">
															<parameterid>center</parameterid>
															<name>Center</name>
															<value>
																<horiz>-0.5</horiz>
																<vert>-0.5</vert>
															</value>
														</parameter>
														<parameter authoringApp="PremierePro">
															<parameterid>centerOffset</parameterid>
															<name>Anchor Point</name>
															<value>
																<horiz>0</horiz>
																<vert>0</vert>
															</value>
														</parameter>
														<parameter authoringApp="PremierePro">
															<parameterid>antiflicker</parameterid>
															<name>Anti-flicker Filter</name>
															<valuemin>0.0</valuemin>
															<valuemax>1.0</valuemax>
															<value>0</value>
														</parameter>
													</effect>
												</filter>
												<link>
													<linkclipref>clipitem-1148</linkclipref>
													<mediatype>video</mediatype>
													<trackindex>1</trackindex>
													<clipindex>1</clipindex>
												</link>
												<link>
													<linkclipref>clipitem-1151</linkclipref>
													<mediatype>audio</mediatype>
													<trackindex>1</trackindex>
													<clipindex>1</clipindex>
													<groupindex>1</groupindex>
												</link>
												<link>
													<linkclipref>clipitem-1153</linkclipref>
													<mediatype>audio</mediatype>
													<trackindex>2</trackindex>
													<clipindex>1</clipindex>
													<groupindex>1</groupindex>
												</link>
												<labels>
													<label2>Forest</label2>
												</labels>
											</clipitem>
											<clipitem id="clipitem-1149">
												<masterclipid>masterclip-239</masterclipid>
												<name>FND_frenchtoast_55s</name>
												<enabled>TRUE</enabled>
												<duration>2951</duration>
												<rate>
													<timebase>30</timebase>
													<ntsc>TRUE</ntsc>
												</rate>
												<start>4050</start>
												<end>-1</end>
												<in>0</in>
												<out>1602</out>
												<pproTicksIn>0</pproTicksIn>
												<pproTicksOut>13578018854400</pproTicksOut>
												<sequence id="sequence-47"/>
												<filter>
													<effect>
														<name>Basic Motion</name>
														<effectid>basic</effectid>
														<effectcategory>motion</effectcategory>
														<effecttype>motion</effecttype>
														<mediatype>video</mediatype>
														<pproBypass>false</pproBypass>
														<parameter authoringApp="PremierePro">
															<parameterid>scale</parameterid>
															<name>Scale</name>
															<valuemin>0</valuemin>
															<valuemax>1000</valuemax>
															<value>66.6667</value>
														</parameter>
														<parameter authoringApp="PremierePro">
															<parameterid>rotation</parameterid>
															<name>Rotation</name>
															<valuemin>-8640</valuemin>
															<valuemax>8640</valuemax>
															<value>0</value>
														</parameter>
														<parameter authoringApp="PremierePro">
															<parameterid>center</parameterid>
															<name>Center</name>
															<value>
																<horiz>-0.5</horiz>
																<vert>-0.5</vert>
															</value>
														</parameter>
														<parameter authoringApp="PremierePro">
															<parameterid>centerOffset</parameterid>
															<name>Anchor Point</name>
															<value>
																<horiz>0</horiz>
																<vert>0</vert>
															</value>
														</parameter>
														<parameter authoringApp="PremierePro">
															<parameterid>antiflicker</parameterid>
															<name>Anti-flicker Filter</name>
															<valuemin>0.0</valuemin>
															<valuemax>1.0</valuemax>
															<value>0</value>
														</parameter>
													</effect>
												</filter>
												<link>
													<linkclipref>clipitem-1149</linkclipref>
													<mediatype>video</mediatype>
													<trackindex>1</trackindex>
													<clipindex>2</clipindex>
												</link>
												<link>
													<linkclipref>clipitem-1152</linkclipref>
													<mediatype>audio</mediatype>
													<trackindex>1</trackindex>
													<clipindex>2</clipindex>
													<groupindex>1</groupindex>
												</link>
												<link>
													<linkclipref>clipitem-1154</linkclipref>
													<mediatype>audio</mediatype>
													<trackindex>2</trackindex>
													<clipindex>2</clipindex>
													<groupindex>1</groupindex>
												</link>
												<labels>
													<label2>Forest</label2>
												</labels>
											</clipitem>
											<transitionitem>
												<start>5622</start>
												<end>5652</end>
												<alignment>end-black</alignment>
												<cutPointTicks>254270016000</cutPointTicks>
												<rate>
													<timebase>30</timebase>
													<ntsc>TRUE</ntsc>
												</rate>
												<effect>
													<name>Cross Dissolve</name>
													<effectid>Cross Dissolve</effectid>
													<effectcategory>Dissolve</effectcategory>
													<effecttype>transition</effecttype>
													<mediatype>video</mediatype>
													<wipecode>0</wipecode>
													<wipeaccuracy>100</wipeaccuracy>
													<startratio>0</startratio>
													<endratio>1</endratio>
													<reverse>FALSE</reverse>
												</effect>
											</transitionitem>
											<enabled>TRUE</enabled>
											<locked>FALSE</locked>
										</track>
										<track TL.SQTrackShy="0" TL.SQTrackExpandedHeight="25" TL.SQTrackExpanded="0" MZ.TrackTargeted="0">
											<clipitem id="clipitem-1150">
												<masterclipid>masterclip-207</masterclipid>
												<name>OS Trans 04</name>
												<enabled>TRUE</enabled>
												<duration>2613</duration>
												<rate>
													<timebase>30</timebase>
													<ntsc>TRUE</ntsc>
												</rate>
												<start>3875</start>
												<end>4083</end>
												<in>0</in>
												<out>208</out>
												<pproTicksIn>0</pproTicksIn>
												<pproTicksOut>1762938777600</pproTicksOut>
												<sequence id="sequence-6"/>
												<filter>
													<effect>
														<name>Basic Motion</name>
														<effectid>basic</effectid>
														<effectcategory>motion</effectcategory>
														<effecttype>motion</effecttype>
														<mediatype>video</mediatype>
														<pproBypass>false</pproBypass>
														<parameter authoringApp="PremierePro">
															<parameterid>scale</parameterid>
															<name>Scale</name>
															<valuemin>0</valuemin>
															<valuemax>1000</valuemax>
															<value>66.6667</value>
														</parameter>
														<parameter authoringApp="PremierePro">
															<parameterid>rotation</parameterid>
															<name>Rotation</name>
															<valuemin>-8640</valuemin>
															<valuemax>8640</valuemax>
															<value>0</value>
														</parameter>
														<parameter authoringApp="PremierePro">
															<parameterid>center</parameterid>
															<name>Center</name>
															<value>
																<horiz>-0.5</horiz>
																<vert>-0.5</vert>
															</value>
														</parameter>
														<parameter authoringApp="PremierePro">
															<parameterid>centerOffset</parameterid>
															<name>Anchor Point</name>
															<value>
																<horiz>0</horiz>
																<vert>0</vert>
															</value>
														</parameter>
														<parameter authoringApp="PremierePro">
															<parameterid>antiflicker</parameterid>
															<name>Anti-flicker Filter</name>
															<valuemin>0.0</valuemin>
															<valuemax>1.0</valuemax>
															<value>0</value>
														</parameter>
													</effect>
												</filter>
													<marker>
														<comment></comment>
														<name></name>
														<in>7</in>
														<out>-1</out>
													</marker>
													<marker>
														<comment></comment>
														<name></name>
														<in>175</in>
														<out>-1</out>
													</marker>
												<link>
													<linkclipref>clipitem-1150</linkclipref>
													<mediatype>video</mediatype>
													<trackindex>2</trackindex>
													<clipindex>1</clipindex>
												</link>
												<link>
													<linkclipref>clipitem-1155</linkclipref>
													<mediatype>audio</mediatype>
													<trackindex>3</trackindex>
													<clipindex>1</clipindex>
													<groupindex>1</groupindex>
												</link>
												<link>
													<linkclipref>clipitem-1156</linkclipref>
													<mediatype>audio</mediatype>
													<trackindex>4</trackindex>
													<clipindex>1</clipindex>
													<groupindex>1</groupindex>
												</link>
												<labels>
													<label2>Blue</label2>
												</labels>
											</clipitem>
											<enabled>TRUE</enabled>
											<locked>FALSE</locked>
										</track>
									</video>
									<audio>
										<numOutputChannels>2</numOutputChannels>
										<format>
											<samplecharacteristics>
												<depth>16</depth>
												<samplerate>44100</samplerate>
											</samplecharacteristics>
										</format>
										<outputs>
											<group>
												<index>1</index>
												<numchannels>1</numchannels>
												<downmix>0</downmix>
												<channel>
													<index>1</index>
												</channel>
											</group>
											<group>
												<index>2</index>
												<numchannels>1</numchannels>
												<downmix>0</downmix>
												<channel>
													<index>2</index>
												</channel>
											</group>
										</outputs>
										<track TL.SQTrackAudioKeyframeStyle="0" TL.SQTrackShy="0" TL.SQTrackExpandedHeight="25" TL.SQTrackExpanded="0" MZ.TrackTargeted="1" PannerCurrentValue="0.5" PannerIsInverted="true" PannerStartKeyframe="-91445760000000000,0.5,0,0,0,0,0,0" PannerName="Balance" currentExplodedTrackIndex="0" totalExplodedTrackCount="2" premiereTrackType="Stereo">
											<clipitem id="clipitem-1151" premiereChannelType="stereo">
												<masterclipid>masterclip-238</masterclipid>
												<name>SAT_car paint_2m10s</name>
												<enabled>TRUE</enabled>
												<duration>5474</duration>
												<rate>
													<timebase>30</timebase>
													<ntsc>TRUE</ntsc>
												</rate>
												<start>0</start>
												<end>3882</end>
												<in>0</in>
												<out>3882</out>
												<pproTicksIn>0</pproTicksIn>
												<pproTicksOut>32902540070400</pproTicksOut>
												<sequence id="sequence-46"/>
												<sourcetrack>
													<mediatype>audio</mediatype>
													<trackindex>0</trackindex>
												</sourcetrack>
												<link>
													<linkclipref>clipitem-1148</linkclipref>
													<mediatype>video</mediatype>
													<trackindex>1</trackindex>
													<clipindex>1</clipindex>
												</link>
												<link>
													<linkclipref>clipitem-1151</linkclipref>
													<mediatype>audio</mediatype>
													<trackindex>1</trackindex>
													<clipindex>1</clipindex>
													<groupindex>1</groupindex>
												</link>
												<link>
													<linkclipref>clipitem-1153</linkclipref>
													<mediatype>audio</mediatype>
													<trackindex>2</trackindex>
													<clipindex>1</clipindex>
													<groupindex>1</groupindex>
												</link>
												<labels>
													<label2>Forest</label2>
												</labels>
											</clipitem>
											<clipitem id="clipitem-1152" premiereChannelType="stereo">
												<masterclipid>masterclip-239</masterclipid>
												<name>FND_frenchtoast_55s</name>
												<enabled>TRUE</enabled>
												<duration>2951</duration>
												<rate>
													<timebase>30</timebase>
													<ntsc>TRUE</ntsc>
												</rate>
												<start>4050</start>
												<end>5652</end>
												<in>0</in>
												<out>1602</out>
												<pproTicksIn>0</pproTicksIn>
												<pproTicksOut>13578018854400</pproTicksOut>
												<sequence id="sequence-47"/>
												<sourcetrack>
													<mediatype>audio</mediatype>
													<trackindex>0</trackindex>
												</sourcetrack>
												<link>
													<linkclipref>clipitem-1149</linkclipref>
													<mediatype>video</mediatype>
													<trackindex>1</trackindex>
													<clipindex>2</clipindex>
												</link>
												<link>
													<linkclipref>clipitem-1152</linkclipref>
													<mediatype>audio</mediatype>
													<trackindex>1</trackindex>
													<clipindex>2</clipindex>
													<groupindex>1</groupindex>
												</link>
												<link>
													<linkclipref>clipitem-1154</linkclipref>
													<mediatype>audio</mediatype>
													<trackindex>2</trackindex>
													<clipindex>2</clipindex>
													<groupindex>1</groupindex>
												</link>
												<labels>
													<label2>Forest</label2>
												</labels>
											</clipitem>
											<enabled>TRUE</enabled>
											<locked>FALSE</locked>
											<outputchannelindex>1</outputchannelindex>
										</track>
										<track TL.SQTrackAudioKeyframeStyle="0" TL.SQTrackShy="0" TL.SQTrackExpandedHeight="25" TL.SQTrackExpanded="0" MZ.TrackTargeted="1" PannerCurrentValue="0.5" PannerIsInverted="true" PannerStartKeyframe="-91445760000000000,0.5,0,0,0,0,0,0" PannerName="Balance" currentExplodedTrackIndex="1" totalExplodedTrackCount="2" premiereTrackType="Stereo">
											<clipitem id="clipitem-1153" premiereChannelType="stereo">
												<masterclipid>masterclip-238</masterclipid>
												<name>SAT_car paint_2m10s</name>
												<enabled>TRUE</enabled>
												<duration>5474</duration>
												<rate>
													<timebase>30</timebase>
													<ntsc>TRUE</ntsc>
												</rate>
												<start>0</start>
												<end>3882</end>
												<in>0</in>
												<out>3882</out>
												<pproTicksIn>0</pproTicksIn>
												<pproTicksOut>32902540070400</pproTicksOut>
												<sequence id="sequence-46"/>
												<sourcetrack>
													<mediatype>audio</mediatype>
													<trackindex>1</trackindex>
												</sourcetrack>
												<link>
													<linkclipref>clipitem-1148</linkclipref>
													<mediatype>video</mediatype>
													<trackindex>1</trackindex>
													<clipindex>1</clipindex>
												</link>
												<link>
													<linkclipref>clipitem-1151</linkclipref>
													<mediatype>audio</mediatype>
													<trackindex>1</trackindex>
													<clipindex>1</clipindex>
													<groupindex>1</groupindex>
												</link>
												<link>
													<linkclipref>clipitem-1153</linkclipref>
													<mediatype>audio</mediatype>
													<trackindex>2</trackindex>
													<clipindex>1</clipindex>
													<groupindex>1</groupindex>
												</link>
												<labels>
													<label2>Forest</label2>
												</labels>
											</clipitem>
											<clipitem id="clipitem-1154" premiereChannelType="stereo">
												<masterclipid>masterclip-239</masterclipid>
												<name>FND_frenchtoast_55s</name>
												<enabled>TRUE</enabled>
												<duration>2951</duration>
												<rate>
													<timebase>30</timebase>
													<ntsc>TRUE</ntsc>
												</rate>
												<start>4050</start>
												<end>5652</end>
												<in>0</in>
												<out>1602</out>
												<pproTicksIn>0</pproTicksIn>
												<pproTicksOut>13578018854400</pproTicksOut>
												<sequence id="sequence-47"/>
												<sourcetrack>
													<mediatype>audio</mediatype>
													<trackindex>1</trackindex>
												</sourcetrack>
												<link>
													<linkclipref>clipitem-1149</linkclipref>
													<mediatype>video</mediatype>
													<trackindex>1</trackindex>
													<clipindex>2</clipindex>
												</link>
												<link>
													<linkclipref>clipitem-1152</linkclipref>
													<mediatype>audio</mediatype>
													<trackindex>1</trackindex>
													<clipindex>2</clipindex>
													<groupindex>1</groupindex>
												</link>
												<link>
													<linkclipref>clipitem-1154</linkclipref>
													<mediatype>audio</mediatype>
													<trackindex>2</trackindex>
													<clipindex>2</clipindex>
													<groupindex>1</groupindex>
												</link>
												<labels>
													<label2>Forest</label2>
												</labels>
											</clipitem>
											<enabled>TRUE</enabled>
											<locked>FALSE</locked>
											<outputchannelindex>2</outputchannelindex>
										</track>
										<track TL.SQTrackAudioKeyframeStyle="0" TL.SQTrackShy="0" TL.SQTrackExpandedHeight="25" TL.SQTrackExpanded="0" MZ.TrackTargeted="0" PannerCurrentValue="0.5" PannerIsInverted="true" PannerStartKeyframe="-91445760000000000,0.5,0,0,0,0,0,0" PannerName="Balance" currentExplodedTrackIndex="0" totalExplodedTrackCount="2" premiereTrackType="Stereo">
											<clipitem id="clipitem-1155" premiereChannelType="stereo">
												<masterclipid>masterclip-207</masterclipid>
												<name>OS Trans 04</name>
												<enabled>TRUE</enabled>
												<duration>2613</duration>
												<rate>
													<timebase>30</timebase>
													<ntsc>TRUE</ntsc>
												</rate>
												<start>3875</start>
												<end>4083</end>
												<in>0</in>
												<out>208</out>
												<pproTicksIn>0</pproTicksIn>
												<pproTicksOut>1762938777600</pproTicksOut>
												<sequence id="sequence-6"/>
												<sourcetrack>
													<mediatype>audio</mediatype>
													<trackindex>0</trackindex>
												</sourcetrack>
													<marker>
														<comment></comment>
														<name></name>
														<in>7</in>
														<out>-1</out>
													</marker>
													<marker>
														<comment></comment>
														<name></name>
														<in>175</in>
														<out>-1</out>
													</marker>
												<link>
													<linkclipref>clipitem-1150</linkclipref>
													<mediatype>video</mediatype>
													<trackindex>2</trackindex>
													<clipindex>1</clipindex>
												</link>
												<link>
													<linkclipref>clipitem-1155</linkclipref>
													<mediatype>audio</mediatype>
													<trackindex>3</trackindex>
													<clipindex>1</clipindex>
													<groupindex>1</groupindex>
												</link>
												<link>
													<linkclipref>clipitem-1156</linkclipref>
													<mediatype>audio</mediatype>
													<trackindex>4</trackindex>
													<clipindex>1</clipindex>
													<groupindex>1</groupindex>
												</link>
												<labels>
													<label2>Blue</label2>
												</labels>
											</clipitem>
											<enabled>TRUE</enabled>
											<locked>FALSE</locked>
											<outputchannelindex>1</outputchannelindex>
										</track>
										<track TL.SQTrackAudioKeyframeStyle="0" TL.SQTrackShy="0" TL.SQTrackExpandedHeight="25" TL.SQTrackExpanded="0" MZ.TrackTargeted="0" PannerCurrentValue="0.5" PannerIsInverted="true" PannerStartKeyframe="-91445760000000000,0.5,0,0,0,0,0,0" PannerName="Balance" currentExplodedTrackIndex="1" totalExplodedTrackCount="2" premiereTrackType="Stereo">
											<clipitem id="clipitem-1156" premiereChannelType="stereo">
												<masterclipid>masterclip-207</masterclipid>
												<name>OS Trans 04</name>
												<enabled>TRUE</enabled>
												<duration>2613</duration>
												<rate>
													<timebase>30</timebase>
													<ntsc>TRUE</ntsc>
												</rate>
												<start>3875</start>
												<end>4083</end>
												<in>0</in>
												<out>208</out>
												<pproTicksIn>0</pproTicksIn>
												<pproTicksOut>1762938777600</pproTicksOut>
												<sequence id="sequence-6"/>
												<sourcetrack>
													<mediatype>audio</mediatype>
													<trackindex>1</trackindex>
												</sourcetrack>
													<marker>
														<comment></comment>
														<name></name>
														<in>7</in>
														<out>-1</out>
													</marker>
													<marker>
														<comment></comment>
														<name></name>
														<in>175</in>
														<out>-1</out>
													</marker>
												<link>
													<linkclipref>clipitem-1150</linkclipref>
													<mediatype>video</mediatype>
													<trackindex>2</trackindex>
													<clipindex>1</clipindex>
												</link>
												<link>
													<linkclipref>clipitem-1155</linkclipref>
													<mediatype>audio</mediatype>
													<trackindex>3</trackindex>
													<clipindex>1</clipindex>
													<groupindex>1</groupindex>
												</link>
												<link>
													<linkclipref>clipitem-1156</linkclipref>
													<mediatype>audio</mediatype>
													<trackindex>4</trackindex>
													<clipindex>1</clipindex>
													<groupindex>1</groupindex>
												</link>
												<labels>
													<label2>Blue</label2>
												</labels>
											</clipitem>
											<enabled>TRUE</enabled>
											<locked>FALSE</locked>
											<outputchannelindex>2</outputchannelindex>
										</track>
									</audio>
								</media>
								<timecode>
									<rate>
										<timebase>30</timebase>
										<ntsc>TRUE</ntsc>
									</rate>
									<string>00:00:00:00</string>
									<frame>0</frame>
									<displayformat>NDF</displayformat>
								</timecode>
								<labels>
									<label2>Forest</label2>
								</labels>
								<logginginfo>
									<description></description>
									<scene></scene>
									<shottake></shottake>
									<lognote></lognote>
									<good></good>
									<originalvideofilename></originalvideofilename>
									<originalaudiofilename></originalaudiofilename>
								</logginginfo>
							</sequence>
							<sequence id="sequence-87" TL.SQAudioVisibleBase="0" TL.SQVideoVisibleBase="0" TL.SQVisibleBaseTime="0" TL.SQAVDividerPosition="0.5" TL.SQHideShyTracks="0" TL.SQHeaderWidth="236" TL.SQDataTrackViewControlState="0" Monitor.ProgramZoomOut="47582395660800" Monitor.ProgramZoomIn="0" TL.SQTimePerPixel="0.36566344688131902" AM.TrackVScrollPosition="0" AM.TrackScrollPosition="0" MZ.EditLine="16069865011200" MZ.Sequence.PreviewFrameSizeHeight="720" MZ.Sequence.PreviewFrameSizeWidth="1280" MZ.Sequence.AudioTimeDisplayFormat="200" MZ.Sequence.PreviewRenderingClassID="1297106761" MZ.Sequence.PreviewRenderingPresetCodec="1297107278" MZ.Sequence.PreviewRenderingPresetPath="EncoderPresets/SequencePreview/795454d9-d3c2-429d-9474-923ab13b7018/I-Frame Only MPEG.epr" MZ.Sequence.PreviewUseMaxRenderQuality="false" MZ.Sequence.PreviewUseMaxBitDepth="false" MZ.Sequence.EditingModeGUID="795454d9-d3c2-429d-9474-923ab13b7018" MZ.Sequence.VideoTimeDisplayFormat="103" MZ.WorkOutPoint="46641596601600" MZ.WorkInPoint="0" explodedTracks="true">
								<uuid>3a9a4fe4-f584-4bc3-a1e6-8a9b5149ecaf</uuid>
								<duration>5614</duration>
								<rate>
									<timebase>30</timebase>
									<ntsc>TRUE</ntsc>
								</rate>
								<name>formerlyATM_ODDLY SATISFYING_1543</name>
								<media>
									<video>
										<format>
											<samplecharacteristics>
												<rate>
													<timebase>30</timebase>
													<ntsc>TRUE</ntsc>
												</rate>
												<codec>
													<name>Apple ProRes 422</name>
													<appspecificdata>
														<appname>Final Cut Pro</appname>
														<appmanufacturer>Apple Inc.</appmanufacturer>
														<appversion>7.0</appversion>
														<data>
															<qtcodec>
																<codecname>Apple ProRes 422</codecname>
																<codectypename>Apple ProRes 422</codectypename>
																<codectypecode>apcn</codectypecode>
																<codecvendorcode>appl</codecvendorcode>
																<spatialquality>1024</spatialquality>
																<temporalquality>0</temporalquality>
																<keyframerate>0</keyframerate>
																<datarate>0</datarate>
															</qtcodec>
														</data>
													</appspecificdata>
												</codec>
												<width>1280</width>
												<height>720</height>
												<anamorphic>FALSE</anamorphic>
												<pixelaspectratio>square</pixelaspectratio>
												<fielddominance>none</fielddominance>
												<colordepth>24</colordepth>
											</samplecharacteristics>
										</format>
										<track TL.SQTrackShy="0" TL.SQTrackExpandedHeight="25" TL.SQTrackExpanded="0" MZ.TrackTargeted="1">
											<clipitem id="clipitem-1157">
												<masterclipid>masterclip-240</masterclipid>
												<name>SAT_the sting Crafty unbranded_1.5</name>
												<enabled>TRUE</enabled>
												<duration>5083</duration>
												<rate>
													<timebase>30</timebase>
													<ntsc>TRUE</ntsc>
												</rate>
												<start>0</start>
												<end>2793</end>
												<in>0</in>
												<out>2793</out>
												<pproTicksIn>0</pproTicksIn>
												<pproTicksOut>23672538489600</pproTicksOut>
												<sequence id="sequence-48"/>
												<filter>
													<effect>
														<name>Basic Motion</name>
														<effectid>basic</effectid>
														<effectcategory>motion</effectcategory>
														<effecttype>motion</effecttype>
														<mediatype>video</mediatype>
														<pproBypass>false</pproBypass>
														<parameter authoringApp="PremierePro">
															<parameterid>scale</parameterid>
															<name>Scale</name>
															<valuemin>0</valuemin>
															<valuemax>1000</valuemax>
															<value>66.6667</value>
														</parameter>
														<parameter authoringApp="PremierePro">
															<parameterid>rotation</parameterid>
															<name>Rotation</name>
															<valuemin>-8640</valuemin>
															<valuemax>8640</valuemax>
															<value>0</value>
														</parameter>
														<parameter authoringApp="PremierePro">
															<parameterid>center</parameterid>
															<name>Center</name>
															<value>
																<horiz>-0.5</horiz>
																<vert>-0.5</vert>
															</value>
														</parameter>
														<parameter authoringApp="PremierePro">
															<parameterid>centerOffset</parameterid>
															<name>Anchor Point</name>
															<value>
																<horiz>0</horiz>
																<vert>0</vert>
															</value>
														</parameter>
														<parameter authoringApp="PremierePro">
															<parameterid>antiflicker</parameterid>
															<name>Anti-flicker Filter</name>
															<valuemin>0.0</valuemin>
															<valuemax>1.0</valuemax>
															<value>0</value>
														</parameter>
													</effect>
												</filter>
												<link>
													<linkclipref>clipitem-1157</linkclipref>
													<mediatype>video</mediatype>
													<trackindex>1</trackindex>
													<clipindex>1</clipindex>
												</link>
												<link>
													<linkclipref>clipitem-1159</linkclipref>
													<mediatype>audio</mediatype>
													<trackindex>1</trackindex>
													<clipindex>1</clipindex>
													<groupindex>1</groupindex>
												</link>
												<link>
													<linkclipref>clipitem-1161</linkclipref>
													<mediatype>audio</mediatype>
													<trackindex>2</trackindex>
													<clipindex>1</clipindex>
													<groupindex>1</groupindex>
												</link>
												<labels>
													<label2>Forest</label2>
												</labels>
											</clipitem>
											<clipitem id="clipitem-1158">
												<masterclipid>masterclip-241</masterclipid>
												<name>SAT_slime_1.5</name>
												<enabled>TRUE</enabled>
												<duration>9210</duration>
												<rate>
													<timebase>30</timebase>
													<ntsc>TRUE</ntsc>
												</rate>
												<start>2904</start>
												<end>-1</end>
												<in>0</in>
												<out>2710</out>
												<pproTicksIn>0</pproTicksIn>
												<pproTicksOut>22969058112000</pproTicksOut>
												<sequence id="sequence-49"/>
												<filter>
													<effect>
														<name>Basic Motion</name>
														<effectid>basic</effectid>
														<effectcategory>motion</effectcategory>
														<effecttype>motion</effecttype>
														<mediatype>video</mediatype>
														<pproBypass>false</pproBypass>
														<parameter authoringApp="PremierePro">
															<parameterid>scale</parameterid>
															<name>Scale</name>
															<valuemin>0</valuemin>
															<valuemax>1000</valuemax>
															<value>66.6667</value>
														</parameter>
														<parameter authoringApp="PremierePro">
															<parameterid>rotation</parameterid>
															<name>Rotation</name>
															<valuemin>-8640</valuemin>
															<valuemax>8640</valuemax>
															<value>0</value>
														</parameter>
														<parameter authoringApp="PremierePro">
															<parameterid>center</parameterid>
															<name>Center</name>
															<value>
																<horiz>-0.5</horiz>
																<vert>-0.5</vert>
															</value>
														</parameter>
														<parameter authoringApp="PremierePro">
															<parameterid>centerOffset</parameterid>
															<name>Anchor Point</name>
															<value>
																<horiz>0</horiz>
																<vert>0</vert>
															</value>
														</parameter>
														<parameter authoringApp="PremierePro">
															<parameterid>antiflicker</parameterid>
															<name>Anti-flicker Filter</name>
															<valuemin>0.0</valuemin>
															<valuemax>1.0</valuemax>
															<value>0</value>
														</parameter>
													</effect>
												</filter>
												<link>
													<linkclipref>clipitem-1158</linkclipref>
													<mediatype>video</mediatype>
													<trackindex>1</trackindex>
													<clipindex>2</clipindex>
												</link>
												<link>
													<linkclipref>clipitem-1160</linkclipref>
													<mediatype>audio</mediatype>
													<trackindex>1</trackindex>
													<clipindex>2</clipindex>
													<groupindex>1</groupindex>
												</link>
												<link>
													<linkclipref>clipitem-1162</linkclipref>
													<mediatype>audio</mediatype>
													<trackindex>2</trackindex>
													<clipindex>2</clipindex>
													<groupindex>1</groupindex>
												</link>
												<labels>
													<label2>Forest</label2>
												</labels>
											</clipitem>
											<transitionitem>
												<start>5584</start>
												<end>5614</end>
												<alignment>end-black</alignment>
												<cutPointTicks>254270016000</cutPointTicks>
												<rate>
													<timebase>30</timebase>
													<ntsc>TRUE</ntsc>
												</rate>
												<effect>
													<name>Cross Dissolve</name>
													<effectid>Cross Dissolve</effectid>
													<effectcategory>Dissolve</effectcategory>
													<effecttype>transition</effecttype>
													<mediatype>video</mediatype>
													<wipecode>0</wipecode>
													<wipeaccuracy>100</wipeaccuracy>
													<startratio>0</startratio>
													<endratio>1</endratio>
													<reverse>FALSE</reverse>
												</effect>
											</transitionitem>
											<enabled>TRUE</enabled>
											<locked>FALSE</locked>
										</track>
										<track TL.SQTrackShy="0" TL.SQTrackExpandedHeight="25" TL.SQTrackExpanded="0" MZ.TrackTargeted="0">
											<enabled>TRUE</enabled>
											<locked>FALSE</locked>
										</track>
									</video>
									<audio>
										<numOutputChannels>2</numOutputChannels>
										<format>
											<samplecharacteristics>
												<depth>16</depth>
												<samplerate>44100</samplerate>
											</samplecharacteristics>
										</format>
										<outputs>
											<group>
												<index>1</index>
												<numchannels>1</numchannels>
												<downmix>0</downmix>
												<channel>
													<index>1</index>
												</channel>
											</group>
											<group>
												<index>2</index>
												<numchannels>1</numchannels>
												<downmix>0</downmix>
												<channel>
													<index>2</index>
												</channel>
											</group>
										</outputs>
										<track TL.SQTrackAudioKeyframeStyle="0" TL.SQTrackShy="0" TL.SQTrackExpandedHeight="25" TL.SQTrackExpanded="0" MZ.TrackTargeted="1" PannerCurrentValue="0.5" PannerIsInverted="true" PannerStartKeyframe="-91445760000000000,0.5,0,0,0,0,0,0" PannerName="Balance" currentExplodedTrackIndex="0" totalExplodedTrackCount="2" premiereTrackType="Stereo">
											<clipitem id="clipitem-1159" premiereChannelType="stereo">
												<masterclipid>masterclip-240</masterclipid>
												<name>SAT_the sting Crafty unbranded_1.5</name>
												<enabled>TRUE</enabled>
												<duration>5083</duration>
												<rate>
													<timebase>30</timebase>
													<ntsc>TRUE</ntsc>
												</rate>
												<start>0</start>
												<end>2793</end>
												<in>0</in>
												<out>2793</out>
												<pproTicksIn>0</pproTicksIn>
												<pproTicksOut>23672538489600</pproTicksOut>
												<sequence id="sequence-48"/>
												<sourcetrack>
													<mediatype>audio</mediatype>
													<trackindex>0</trackindex>
												</sourcetrack>
												<link>
													<linkclipref>clipitem-1157</linkclipref>
													<mediatype>video</mediatype>
													<trackindex>1</trackindex>
													<clipindex>1</clipindex>
												</link>
												<link>
													<linkclipref>clipitem-1159</linkclipref>
													<mediatype>audio</mediatype>
													<trackindex>1</trackindex>
													<clipindex>1</clipindex>
													<groupindex>1</groupindex>
												</link>
												<link>
													<linkclipref>clipitem-1161</linkclipref>
													<mediatype>audio</mediatype>
													<trackindex>2</trackindex>
													<clipindex>1</clipindex>
													<groupindex>1</groupindex>
												</link>
												<labels>
													<label2>Forest</label2>
												</labels>
											</clipitem>
											<clipitem id="clipitem-1160" premiereChannelType="stereo">
												<masterclipid>masterclip-241</masterclipid>
												<name>SAT_slime_1.5</name>
												<enabled>TRUE</enabled>
												<duration>9210</duration>
												<rate>
													<timebase>30</timebase>
													<ntsc>TRUE</ntsc>
												</rate>
												<start>2904</start>
												<end>5614</end>
												<in>0</in>
												<out>2710</out>
												<pproTicksIn>0</pproTicksIn>
												<pproTicksOut>22969058112000</pproTicksOut>
												<sequence id="sequence-49"/>
												<sourcetrack>
													<mediatype>audio</mediatype>
													<trackindex>0</trackindex>
												</sourcetrack>
												<link>
													<linkclipref>clipitem-1158</linkclipref>
													<mediatype>video</mediatype>
													<trackindex>1</trackindex>
													<clipindex>2</clipindex>
												</link>
												<link>
													<linkclipref>clipitem-1160</linkclipref>
													<mediatype>audio</mediatype>
													<trackindex>1</trackindex>
													<clipindex>2</clipindex>
													<groupindex>1</groupindex>
												</link>
												<link>
													<linkclipref>clipitem-1162</linkclipref>
													<mediatype>audio</mediatype>
													<trackindex>2</trackindex>
													<clipindex>2</clipindex>
													<groupindex>1</groupindex>
												</link>
												<labels>
													<label2>Forest</label2>
												</labels>
											</clipitem>
											<enabled>TRUE</enabled>
											<locked>FALSE</locked>
											<outputchannelindex>1</outputchannelindex>
										</track>
										<track TL.SQTrackAudioKeyframeStyle="0" TL.SQTrackShy="0" TL.SQTrackExpandedHeight="25" TL.SQTrackExpanded="0" MZ.TrackTargeted="1" PannerCurrentValue="0.5" PannerIsInverted="true" PannerStartKeyframe="-91445760000000000,0.5,0,0,0,0,0,0" PannerName="Balance" currentExplodedTrackIndex="1" totalExplodedTrackCount="2" premiereTrackType="Stereo">
											<clipitem id="clipitem-1161" premiereChannelType="stereo">
												<masterclipid>masterclip-240</masterclipid>
												<name>SAT_the sting Crafty unbranded_1.5</name>
												<enabled>TRUE</enabled>
												<duration>5083</duration>
												<rate>
													<timebase>30</timebase>
													<ntsc>TRUE</ntsc>
												</rate>
												<start>0</start>
												<end>2793</end>
												<in>0</in>
												<out>2793</out>
												<pproTicksIn>0</pproTicksIn>
												<pproTicksOut>23672538489600</pproTicksOut>
												<sequence id="sequence-48"/>
												<sourcetrack>
													<mediatype>audio</mediatype>
													<trackindex>1</trackindex>
												</sourcetrack>
												<link>
													<linkclipref>clipitem-1157</linkclipref>
													<mediatype>video</mediatype>
													<trackindex>1</trackindex>
													<clipindex>1</clipindex>
												</link>
												<link>
													<linkclipref>clipitem-1159</linkclipref>
													<mediatype>audio</mediatype>
													<trackindex>1</trackindex>
													<clipindex>1</clipindex>
													<groupindex>1</groupindex>
												</link>
												<link>
													<linkclipref>clipitem-1161</linkclipref>
													<mediatype>audio</mediatype>
													<trackindex>2</trackindex>
													<clipindex>1</clipindex>
													<groupindex>1</groupindex>
												</link>
												<labels>
													<label2>Forest</label2>
												</labels>
											</clipitem>
											<clipitem id="clipitem-1162" premiereChannelType="stereo">
												<masterclipid>masterclip-241</masterclipid>
												<name>SAT_slime_1.5</name>
												<enabled>TRUE</enabled>
												<duration>9210</duration>
												<rate>
													<timebase>30</timebase>
													<ntsc>TRUE</ntsc>
												</rate>
												<start>2904</start>
												<end>5614</end>
												<in>0</in>
												<out>2710</out>
												<pproTicksIn>0</pproTicksIn>
												<pproTicksOut>22969058112000</pproTicksOut>
												<sequence id="sequence-49"/>
												<sourcetrack>
													<mediatype>audio</mediatype>
													<trackindex>1</trackindex>
												</sourcetrack>
												<link>
													<linkclipref>clipitem-1158</linkclipref>
													<mediatype>video</mediatype>
													<trackindex>1</trackindex>
													<clipindex>2</clipindex>
												</link>
												<link>
													<linkclipref>clipitem-1160</linkclipref>
													<mediatype>audio</mediatype>
													<trackindex>1</trackindex>
													<clipindex>2</clipindex>
													<groupindex>1</groupindex>
												</link>
												<link>
													<linkclipref>clipitem-1162</linkclipref>
													<mediatype>audio</mediatype>
													<trackindex>2</trackindex>
													<clipindex>2</clipindex>
													<groupindex>1</groupindex>
												</link>
												<labels>
													<label2>Forest</label2>
												</labels>
											</clipitem>
											<enabled>TRUE</enabled>
											<locked>FALSE</locked>
											<outputchannelindex>2</outputchannelindex>
										</track>
										<track TL.SQTrackAudioKeyframeStyle="0" TL.SQTrackShy="0" TL.SQTrackExpandedHeight="25" TL.SQTrackExpanded="0" MZ.TrackTargeted="0" PannerCurrentValue="0.5" PannerIsInverted="true" PannerStartKeyframe="-91445760000000000,0.5,0,0,0,0,0,0" PannerName="Balance" currentExplodedTrackIndex="0" totalExplodedTrackCount="2" premiereTrackType="Stereo">
											<enabled>TRUE</enabled>
											<locked>FALSE</locked>
											<outputchannelindex>1</outputchannelindex>
										</track>
										<track TL.SQTrackAudioKeyframeStyle="0" TL.SQTrackShy="0" TL.SQTrackExpandedHeight="25" TL.SQTrackExpanded="0" MZ.TrackTargeted="0" PannerCurrentValue="0.5" PannerIsInverted="true" PannerStartKeyframe="-91445760000000000,0.5,0,0,0,0,0,0" PannerName="Balance" currentExplodedTrackIndex="1" totalExplodedTrackCount="2" premiereTrackType="Stereo">
											<enabled>TRUE</enabled>
											<locked>FALSE</locked>
											<outputchannelindex>2</outputchannelindex>
										</track>
									</audio>
								</media>
								<timecode>
									<rate>
										<timebase>30</timebase>
										<ntsc>TRUE</ntsc>
									</rate>
									<string>00:00:00:00</string>
									<frame>0</frame>
									<displayformat>NDF</displayformat>
								</timecode>
								<labels>
									<label2>Forest</label2>
								</labels>
								<logginginfo>
									<description></description>
									<scene></scene>
									<shottake></shottake>
									<lognote></lognote>
									<good></good>
									<originalvideofilename></originalvideofilename>
									<originalaudiofilename></originalaudiofilename>
								</logginginfo>
							</sequence>
							<sequence id="sequence-88" TL.SQAudioVisibleBase="0" TL.SQVideoVisibleBase="0" TL.SQVisibleBaseTime="22900720663800" TL.SQAVDividerPosition="0.5" TL.SQHideShyTracks="0" TL.SQHeaderWidth="236" TL.SQDataTrackViewControlState="0" Monitor.ProgramZoomOut="46870439616000" Monitor.ProgramZoomIn="0" TL.SQTimePerPixel="0.011492668960958158" AM.TrackVScrollPosition="0" AM.TrackScrollPosition="0" MZ.EditLine="26723778681600" MZ.Sequence.PreviewFrameSizeHeight="720" MZ.Sequence.PreviewFrameSizeWidth="1280" MZ.Sequence.AudioTimeDisplayFormat="200" MZ.Sequence.PreviewRenderingClassID="1297106761" MZ.Sequence.PreviewRenderingPresetCodec="1297107278" MZ.Sequence.PreviewRenderingPresetPath="EncoderPresets/SequencePreview/795454d9-d3c2-429d-9474-923ab13b7018/I-Frame Only MPEG.epr" MZ.Sequence.PreviewUseMaxRenderQuality="false" MZ.Sequence.PreviewUseMaxBitDepth="false" MZ.Sequence.EditingModeGUID="795454d9-d3c2-429d-9474-923ab13b7018" MZ.Sequence.VideoTimeDisplayFormat="103" MZ.WorkOutPoint="47785811673600" MZ.WorkInPoint="0" explodedTracks="true">
								<uuid>68558c64-babe-4205-a39e-558f54de1055</uuid>
								<duration>5530</duration>
								<rate>
									<timebase>30</timebase>
									<ntsc>TRUE</ntsc>
								</rate>
								<name>formerlyATM_ODDLY SATISFYING_1544</name>
								<media>
									<video>
										<format>
											<samplecharacteristics>
												<rate>
													<timebase>30</timebase>
													<ntsc>TRUE</ntsc>
												</rate>
												<codec>
													<name>Apple ProRes 422</name>
													<appspecificdata>
														<appname>Final Cut Pro</appname>
														<appmanufacturer>Apple Inc.</appmanufacturer>
														<appversion>7.0</appversion>
														<data>
															<qtcodec>
																<codecname>Apple ProRes 422</codecname>
																<codectypename>Apple ProRes 422</codectypename>
																<codectypecode>apcn</codectypecode>
																<codecvendorcode>appl</codecvendorcode>
																<spatialquality>1024</spatialquality>
																<temporalquality>0</temporalquality>
																<keyframerate>0</keyframerate>
																<datarate>0</datarate>
															</qtcodec>
														</data>
													</appspecificdata>
												</codec>
												<width>1280</width>
												<height>720</height>
												<anamorphic>FALSE</anamorphic>
												<pixelaspectratio>square</pixelaspectratio>
												<fielddominance>none</fielddominance>
												<colordepth>24</colordepth>
											</samplecharacteristics>
										</format>
										<track TL.SQTrackShy="0" TL.SQTrackExpandedHeight="25" TL.SQTrackExpanded="0" MZ.TrackTargeted="1">
											<clipitem id="clipitem-1163">
												<masterclipid>masterclip-242</masterclipid>
												<name>DIY_tysytube restoration_1m40s</name>
												<enabled>TRUE</enabled>
												<duration>8823</duration>
												<rate>
													<timebase>30</timebase>
													<ntsc>TRUE</ntsc>
												</rate>
												<start>0</start>
												<end>3004</end>
												<in>0</in>
												<out>3004</out>
												<pproTicksIn>0</pproTicksIn>
												<pproTicksOut>25460904268800</pproTicksOut>
												<sequence id="sequence-50"/>
												<filter>
													<effect>
														<name>Basic Motion</name>
														<effectid>basic</effectid>
														<effectcategory>motion</effectcategory>
														<effecttype>motion</effecttype>
														<mediatype>video</mediatype>
														<pproBypass>false</pproBypass>
														<parameter authoringApp="PremierePro">
															<parameterid>scale</parameterid>
															<name>Scale</name>
															<valuemin>0</valuemin>
															<valuemax>1000</valuemax>
															<value>66.6667</value>
														</parameter>
														<parameter authoringApp="PremierePro">
															<parameterid>rotation</parameterid>
															<name>Rotation</name>
															<valuemin>-8640</valuemin>
															<valuemax>8640</valuemax>
															<value>0</value>
														</parameter>
														<parameter authoringApp="PremierePro">
															<parameterid>center</parameterid>
															<name>Center</name>
															<value>
																<horiz>-0.5</horiz>
																<vert>-0.5</vert>
															</value>
														</parameter>
														<parameter authoringApp="PremierePro">
															<parameterid>centerOffset</parameterid>
															<name>Anchor Point</name>
															<value>
																<horiz>0</horiz>
																<vert>0</vert>
															</value>
														</parameter>
														<parameter authoringApp="PremierePro">
															<parameterid>antiflicker</parameterid>
															<name>Anti-flicker Filter</name>
															<valuemin>0.0</valuemin>
															<valuemax>1.0</valuemax>
															<value>0</value>
														</parameter>
													</effect>
												</filter>
												<link>
													<linkclipref>clipitem-1163</linkclipref>
													<mediatype>video</mediatype>
													<trackindex>1</trackindex>
													<clipindex>1</clipindex>
												</link>
												<link>
													<linkclipref>clipitem-1166</linkclipref>
													<mediatype>audio</mediatype>
													<trackindex>1</trackindex>
													<clipindex>1</clipindex>
													<groupindex>1</groupindex>
												</link>
												<link>
													<linkclipref>clipitem-1169</linkclipref>
													<mediatype>audio</mediatype>
													<trackindex>2</trackindex>
													<clipindex>1</clipindex>
													<groupindex>1</groupindex>
												</link>
												<labels>
													<label2>Forest</label2>
												</labels>
											</clipitem>
											<clipitem id="clipitem-1164">
												<masterclipid>masterclip-243</masterclipid>
												<name>SAT_pottery_1m40s</name>
												<enabled>TRUE</enabled>
												<duration>5152</duration>
												<rate>
													<timebase>30</timebase>
													<ntsc>TRUE</ntsc>
												</rate>
												<start>3031</start>
												<end>5291</end>
												<in>0</in>
												<out>2260</out>
												<pproTicksIn>0</pproTicksIn>
												<pproTicksOut>19155007872000</pproTicksOut>
												<sequence id="sequence-51"/>
												<filter>
													<effect>
														<name>Basic Motion</name>
														<effectid>basic</effectid>
														<effectcategory>motion</effectcategory>
														<effecttype>motion</effecttype>
														<mediatype>video</mediatype>
														<pproBypass>false</pproBypass>
														<parameter authoringApp="PremierePro">
															<parameterid>scale</parameterid>
															<name>Scale</name>
															<valuemin>0</valuemin>
															<valuemax>1000</valuemax>
															<value>66.6667</value>
														</parameter>
														<parameter authoringApp="PremierePro">
															<parameterid>rotation</parameterid>
															<name>Rotation</name>
															<valuemin>-8640</valuemin>
															<valuemax>8640</valuemax>
															<value>0</value>
														</parameter>
														<parameter authoringApp="PremierePro">
															<parameterid>center</parameterid>
															<name>Center</name>
															<value>
																<horiz>-0.5</horiz>
																<vert>-0.5</vert>
															</value>
														</parameter>
														<parameter authoringApp="PremierePro">
															<parameterid>centerOffset</parameterid>
															<name>Anchor Point</name>
															<value>
																<horiz>0</horiz>
																<vert>0</vert>
															</value>
														</parameter>
														<parameter authoringApp="PremierePro">
															<parameterid>antiflicker</parameterid>
															<name>Anti-flicker Filter</name>
															<valuemin>0.0</valuemin>
															<valuemax>1.0</valuemax>
															<value>0</value>
														</parameter>
													</effect>
												</filter>
												<link>
													<linkclipref>clipitem-1164</linkclipref>
													<mediatype>video</mediatype>
													<trackindex>1</trackindex>
													<clipindex>2</clipindex>
												</link>
												<link>
													<linkclipref>clipitem-1167</linkclipref>
													<mediatype>audio</mediatype>
													<trackindex>1</trackindex>
													<clipindex>2</clipindex>
													<groupindex>1</groupindex>
												</link>
												<link>
													<linkclipref>clipitem-1170</linkclipref>
													<mediatype>audio</mediatype>
													<trackindex>2</trackindex>
													<clipindex>2</clipindex>
													<groupindex>1</groupindex>
												</link>
												<labels>
													<label2>Forest</label2>
												</labels>
											</clipitem>
											<clipitem id="clipitem-1165">
												<masterclipid>masterclip-198</masterclipid>
												<name>01_HouseAd Nest</name>
												<enabled>TRUE</enabled>
												<duration>239</duration>
												<rate>
													<timebase>30</timebase>
													<ntsc>TRUE</ntsc>
												</rate>
												<start>5291</start>
												<end>5530</end>
												<in>0</in>
												<out>239</out>
												<pproTicksIn>0</pproTicksIn>
												<pproTicksOut>2025684460800</pproTicksOut>
												<sequence id="sequence-2"/>
												<filter>
													<effect>
														<name>Basic Motion</name>
														<effectid>basic</effectid>
														<effectcategory>motion</effectcategory>
														<effecttype>motion</effecttype>
														<mediatype>video</mediatype>
														<pproBypass>false</pproBypass>
														<parameter authoringApp="PremierePro">
															<parameterid>scale</parameterid>
															<name>Scale</name>
															<valuemin>0</valuemin>
															<valuemax>1000</valuemax>
															<value>66.6667</value>
														</parameter>
														<parameter authoringApp="PremierePro">
															<parameterid>rotation</parameterid>
															<name>Rotation</name>
															<valuemin>-8640</valuemin>
															<valuemax>8640</valuemax>
															<value>0</value>
														</parameter>
														<parameter authoringApp="PremierePro">
															<parameterid>center</parameterid>
															<name>Center</name>
															<value>
																<horiz>-0.5</horiz>
																<vert>-0.5</vert>
															</value>
														</parameter>
														<parameter authoringApp="PremierePro">
															<parameterid>centerOffset</parameterid>
															<name>Anchor Point</name>
															<value>
																<horiz>0</horiz>
																<vert>0</vert>
															</value>
														</parameter>
														<parameter authoringApp="PremierePro">
															<parameterid>antiflicker</parameterid>
															<name>Anti-flicker Filter</name>
															<valuemin>0.0</valuemin>
															<valuemax>1.0</valuemax>
															<value>0</value>
														</parameter>
													</effect>
												</filter>
												<link>
													<linkclipref>clipitem-1165</linkclipref>
													<mediatype>video</mediatype>
													<trackindex>1</trackindex>
													<clipindex>3</clipindex>
												</link>
												<link>
													<linkclipref>clipitem-1168</linkclipref>
													<mediatype>audio</mediatype>
													<trackindex>1</trackindex>
													<clipindex>3</clipindex>
													<groupindex>1</groupindex>
												</link>
												<link>
													<linkclipref>clipitem-1171</linkclipref>
													<mediatype>audio</mediatype>
													<trackindex>2</trackindex>
													<clipindex>3</clipindex>
													<groupindex>1</groupindex>
												</link>
												<labels>
													<label2>Yellow</label2>
												</labels>
											</clipitem>
											<enabled>TRUE</enabled>
											<locked>FALSE</locked>
										</track>
										<track TL.SQTrackShy="0" TL.SQTrackExpandedHeight="25" TL.SQTrackExpanded="0" MZ.TrackTargeted="0">
											<enabled>TRUE</enabled>
											<locked>FALSE</locked>
										</track>
									</video>
									<audio>
										<numOutputChannels>2</numOutputChannels>
										<format>
											<samplecharacteristics>
												<depth>16</depth>
												<samplerate>44100</samplerate>
											</samplecharacteristics>
										</format>
										<outputs>
											<group>
												<index>1</index>
												<numchannels>1</numchannels>
												<downmix>0</downmix>
												<channel>
													<index>1</index>
												</channel>
											</group>
											<group>
												<index>2</index>
												<numchannels>1</numchannels>
												<downmix>0</downmix>
												<channel>
													<index>2</index>
												</channel>
											</group>
										</outputs>
										<track TL.SQTrackAudioKeyframeStyle="0" TL.SQTrackShy="0" TL.SQTrackExpandedHeight="25" TL.SQTrackExpanded="0" MZ.TrackTargeted="1" PannerCurrentValue="0.5" PannerIsInverted="true" PannerStartKeyframe="-91445760000000000,0.5,0,0,0,0,0,0" PannerName="Balance" currentExplodedTrackIndex="0" totalExplodedTrackCount="2" premiereTrackType="Stereo">
											<clipitem id="clipitem-1166" premiereChannelType="stereo">
												<masterclipid>masterclip-242</masterclipid>
												<name>DIY_tysytube restoration_1m40s</name>
												<enabled>TRUE</enabled>
												<duration>8823</duration>
												<rate>
													<timebase>30</timebase>
													<ntsc>TRUE</ntsc>
												</rate>
												<start>0</start>
												<end>3004</end>
												<in>0</in>
												<out>3004</out>
												<pproTicksIn>0</pproTicksIn>
												<pproTicksOut>25460904268800</pproTicksOut>
												<sequence id="sequence-50"/>
												<sourcetrack>
													<mediatype>audio</mediatype>
													<trackindex>0</trackindex>
												</sourcetrack>
												<link>
													<linkclipref>clipitem-1163</linkclipref>
													<mediatype>video</mediatype>
													<trackindex>1</trackindex>
													<clipindex>1</clipindex>
												</link>
												<link>
													<linkclipref>clipitem-1166</linkclipref>
													<mediatype>audio</mediatype>
													<trackindex>1</trackindex>
													<clipindex>1</clipindex>
													<groupindex>1</groupindex>
												</link>
												<link>
													<linkclipref>clipitem-1169</linkclipref>
													<mediatype>audio</mediatype>
													<trackindex>2</trackindex>
													<clipindex>1</clipindex>
													<groupindex>1</groupindex>
												</link>
												<labels>
													<label2>Forest</label2>
												</labels>
											</clipitem>
											<clipitem id="clipitem-1167" premiereChannelType="stereo">
												<masterclipid>masterclip-243</masterclipid>
												<name>SAT_pottery_1m40s</name>
												<enabled>TRUE</enabled>
												<duration>5152</duration>
												<rate>
													<timebase>30</timebase>
													<ntsc>TRUE</ntsc>
												</rate>
												<start>3031</start>
												<end>5291</end>
												<in>0</in>
												<out>2260</out>
												<pproTicksIn>0</pproTicksIn>
												<pproTicksOut>19155007872000</pproTicksOut>
												<sequence id="sequence-51"/>
												<sourcetrack>
													<mediatype>audio</mediatype>
													<trackindex>0</trackindex>
												</sourcetrack>
												<link>
													<linkclipref>clipitem-1164</linkclipref>
													<mediatype>video</mediatype>
													<trackindex>1</trackindex>
													<clipindex>2</clipindex>
												</link>
												<link>
													<linkclipref>clipitem-1167</linkclipref>
													<mediatype>audio</mediatype>
													<trackindex>1</trackindex>
													<clipindex>2</clipindex>
													<groupindex>1</groupindex>
												</link>
												<link>
													<linkclipref>clipitem-1170</linkclipref>
													<mediatype>audio</mediatype>
													<trackindex>2</trackindex>
													<clipindex>2</clipindex>
													<groupindex>1</groupindex>
												</link>
												<labels>
													<label2>Forest</label2>
												</labels>
											</clipitem>
											<clipitem id="clipitem-1168" premiereChannelType="stereo">
												<masterclipid>masterclip-198</masterclipid>
												<name>01_HouseAd Nest</name>
												<enabled>TRUE</enabled>
												<duration>239</duration>
												<rate>
													<timebase>30</timebase>
													<ntsc>TRUE</ntsc>
												</rate>
												<start>5291</start>
												<end>5530</end>
												<in>0</in>
												<out>239</out>
												<pproTicksIn>0</pproTicksIn>
												<pproTicksOut>2025684460800</pproTicksOut>
												<sequence id="sequence-2"/>
												<sourcetrack>
													<mediatype>audio</mediatype>
													<trackindex>0</trackindex>
												</sourcetrack>
												<link>
													<linkclipref>clipitem-1165</linkclipref>
													<mediatype>video</mediatype>
													<trackindex>1</trackindex>
													<clipindex>3</clipindex>
												</link>
												<link>
													<linkclipref>clipitem-1168</linkclipref>
													<mediatype>audio</mediatype>
													<trackindex>1</trackindex>
													<clipindex>3</clipindex>
													<groupindex>1</groupindex>
												</link>
												<link>
													<linkclipref>clipitem-1171</linkclipref>
													<mediatype>audio</mediatype>
													<trackindex>2</trackindex>
													<clipindex>3</clipindex>
													<groupindex>1</groupindex>
												</link>
												<labels>
													<label2>Yellow</label2>
												</labels>
											</clipitem>
											<enabled>TRUE</enabled>
											<locked>FALSE</locked>
											<outputchannelindex>1</outputchannelindex>
										</track>
										<track TL.SQTrackAudioKeyframeStyle="0" TL.SQTrackShy="0" TL.SQTrackExpandedHeight="25" TL.SQTrackExpanded="0" MZ.TrackTargeted="1" PannerCurrentValue="0.5" PannerIsInverted="true" PannerStartKeyframe="-91445760000000000,0.5,0,0,0,0,0,0" PannerName="Balance" currentExplodedTrackIndex="1" totalExplodedTrackCount="2" premiereTrackType="Stereo">
											<clipitem id="clipitem-1169" premiereChannelType="stereo">
												<masterclipid>masterclip-242</masterclipid>
												<name>DIY_tysytube restoration_1m40s</name>
												<enabled>TRUE</enabled>
												<duration>8823</duration>
												<rate>
													<timebase>30</timebase>
													<ntsc>TRUE</ntsc>
												</rate>
												<start>0</start>
												<end>3004</end>
												<in>0</in>
												<out>3004</out>
												<pproTicksIn>0</pproTicksIn>
												<pproTicksOut>25460904268800</pproTicksOut>
												<sequence id="sequence-50"/>
												<sourcetrack>
													<mediatype>audio</mediatype>
													<trackindex>1</trackindex>
												</sourcetrack>
												<link>
													<linkclipref>clipitem-1163</linkclipref>
													<mediatype>video</mediatype>
													<trackindex>1</trackindex>
													<clipindex>1</clipindex>
												</link>
												<link>
													<linkclipref>clipitem-1166</linkclipref>
													<mediatype>audio</mediatype>
													<trackindex>1</trackindex>
													<clipindex>1</clipindex>
													<groupindex>1</groupindex>
												</link>
												<link>
													<linkclipref>clipitem-1169</linkclipref>
													<mediatype>audio</mediatype>
													<trackindex>2</trackindex>
													<clipindex>1</clipindex>
													<groupindex>1</groupindex>
												</link>
												<labels>
													<label2>Forest</label2>
												</labels>
											</clipitem>
											<clipitem id="clipitem-1170" premiereChannelType="stereo">
												<masterclipid>masterclip-243</masterclipid>
												<name>SAT_pottery_1m40s</name>
												<enabled>TRUE</enabled>
												<duration>5152</duration>
												<rate>
													<timebase>30</timebase>
													<ntsc>TRUE</ntsc>
												</rate>
												<start>3031</start>
												<end>5291</end>
												<in>0</in>
												<out>2260</out>
												<pproTicksIn>0</pproTicksIn>
												<pproTicksOut>19155007872000</pproTicksOut>
												<sequence id="sequence-51"/>
												<sourcetrack>
													<mediatype>audio</mediatype>
													<trackindex>1</trackindex>
												</sourcetrack>
												<link>
													<linkclipref>clipitem-1164</linkclipref>
													<mediatype>video</mediatype>
													<trackindex>1</trackindex>
													<clipindex>2</clipindex>
												</link>
												<link>
													<linkclipref>clipitem-1167</linkclipref>
													<mediatype>audio</mediatype>
													<trackindex>1</trackindex>
													<clipindex>2</clipindex>
													<groupindex>1</groupindex>
												</link>
												<link>
													<linkclipref>clipitem-1170</linkclipref>
													<mediatype>audio</mediatype>
													<trackindex>2</trackindex>
													<clipindex>2</clipindex>
													<groupindex>1</groupindex>
												</link>
												<labels>
													<label2>Forest</label2>
												</labels>
											</clipitem>
											<clipitem id="clipitem-1171" premiereChannelType="stereo">
												<masterclipid>masterclip-198</masterclipid>
												<name>01_HouseAd Nest</name>
												<enabled>TRUE</enabled>
												<duration>239</duration>
												<rate>
													<timebase>30</timebase>
													<ntsc>TRUE</ntsc>
												</rate>
												<start>5291</start>
												<end>5530</end>
												<in>0</in>
												<out>239</out>
												<pproTicksIn>0</pproTicksIn>
												<pproTicksOut>2025684460800</pproTicksOut>
												<sequence id="sequence-2"/>
												<sourcetrack>
													<mediatype>audio</mediatype>
													<trackindex>1</trackindex>
												</sourcetrack>
												<link>
													<linkclipref>clipitem-1165</linkclipref>
													<mediatype>video</mediatype>
													<trackindex>1</trackindex>
													<clipindex>3</clipindex>
												</link>
												<link>
													<linkclipref>clipitem-1168</linkclipref>
													<mediatype>audio</mediatype>
													<trackindex>1</trackindex>
													<clipindex>3</clipindex>
													<groupindex>1</groupindex>
												</link>
												<link>
													<linkclipref>clipitem-1171</linkclipref>
													<mediatype>audio</mediatype>
													<trackindex>2</trackindex>
													<clipindex>3</clipindex>
													<groupindex>1</groupindex>
												</link>
												<labels>
													<label2>Yellow</label2>
												</labels>
											</clipitem>
											<enabled>TRUE</enabled>
											<locked>FALSE</locked>
											<outputchannelindex>2</outputchannelindex>
										</track>
										<track TL.SQTrackAudioKeyframeStyle="0" TL.SQTrackShy="0" TL.SQTrackExpandedHeight="25" TL.SQTrackExpanded="0" MZ.TrackTargeted="0" PannerCurrentValue="0.5" PannerIsInverted="true" PannerStartKeyframe="-91445760000000000,0.5,0,0,0,0,0,0" PannerName="Balance" currentExplodedTrackIndex="0" totalExplodedTrackCount="2" premiereTrackType="Stereo">
											<enabled>TRUE</enabled>
											<locked>FALSE</locked>
											<outputchannelindex>1</outputchannelindex>
										</track>
										<track TL.SQTrackAudioKeyframeStyle="0" TL.SQTrackShy="0" TL.SQTrackExpandedHeight="25" TL.SQTrackExpanded="0" MZ.TrackTargeted="0" PannerCurrentValue="0.5" PannerIsInverted="true" PannerStartKeyframe="-91445760000000000,0.5,0,0,0,0,0,0" PannerName="Balance" currentExplodedTrackIndex="1" totalExplodedTrackCount="2" premiereTrackType="Stereo">
											<enabled>TRUE</enabled>
											<locked>FALSE</locked>
											<outputchannelindex>2</outputchannelindex>
										</track>
									</audio>
								</media>
								<timecode>
									<rate>
										<timebase>30</timebase>
										<ntsc>TRUE</ntsc>
									</rate>
									<string>00:00:00:00</string>
									<frame>0</frame>
									<displayformat>NDF</displayformat>
								</timecode>
								<labels>
									<label2>Forest</label2>
								</labels>
								<logginginfo>
									<description></description>
									<scene></scene>
									<shottake></shottake>
									<lognote></lognote>
									<good></good>
									<originalvideofilename></originalvideofilename>
									<originalaudiofilename></originalaudiofilename>
								</logginginfo>
							</sequence>
							<sequence id="sequence-89" TL.SQAudioVisibleBase="0" TL.SQVideoVisibleBase="0" TL.SQVisibleBaseTime="0" TL.SQAVDividerPosition="0.5" TL.SQHideShyTracks="0" TL.SQHeaderWidth="236" TL.SQDataTrackViewControlState="0" Monitor.ProgramZoomOut="48031606022400" Monitor.ProgramZoomIn="0" TL.SQTimePerPixel="0.36694019287603052" AM.TrackVScrollPosition="0" AM.TrackScrollPosition="0" MZ.EditLine="39988197849600" MZ.Sequence.PreviewFrameSizeHeight="720" MZ.Sequence.PreviewFrameSizeWidth="1280" MZ.Sequence.AudioTimeDisplayFormat="200" MZ.Sequence.PreviewRenderingClassID="1297106761" MZ.Sequence.PreviewRenderingPresetCodec="1297107278" MZ.Sequence.PreviewRenderingPresetPath="EncoderPresets/SequencePreview/795454d9-d3c2-429d-9474-923ab13b7018/I-Frame Only MPEG.epr" MZ.Sequence.PreviewUseMaxRenderQuality="false" MZ.Sequence.PreviewUseMaxBitDepth="false" MZ.Sequence.EditingModeGUID="795454d9-d3c2-429d-9474-923ab13b7018" MZ.Sequence.VideoTimeDisplayFormat="103" MZ.WorkOutPoint="47336601312000" MZ.WorkInPoint="0" explodedTracks="true">
								<uuid>02a5e52c-6755-4e5a-a4ad-30d59a55c5a5</uuid>
								<duration>5667</duration>
								<rate>
									<timebase>30</timebase>
									<ntsc>TRUE</ntsc>
								</rate>
								<name>formerlyATM_ODDLY SATISFYING_1545</name>
								<media>
									<video>
										<format>
											<samplecharacteristics>
												<rate>
													<timebase>30</timebase>
													<ntsc>TRUE</ntsc>
												</rate>
												<codec>
													<name>Apple ProRes 422</name>
													<appspecificdata>
														<appname>Final Cut Pro</appname>
														<appmanufacturer>Apple Inc.</appmanufacturer>
														<appversion>7.0</appversion>
														<data>
															<qtcodec>
																<codecname>Apple ProRes 422</codecname>
																<codectypename>Apple ProRes 422</codectypename>
																<codectypecode>apcn</codectypecode>
																<codecvendorcode>appl</codecvendorcode>
																<spatialquality>1024</spatialquality>
																<temporalquality>0</temporalquality>
																<keyframerate>0</keyframerate>
																<datarate>0</datarate>
															</qtcodec>
														</data>
													</appspecificdata>
												</codec>
												<width>1280</width>
												<height>720</height>
												<anamorphic>FALSE</anamorphic>
												<pixelaspectratio>square</pixelaspectratio>
												<fielddominance>none</fielddominance>
												<colordepth>24</colordepth>
											</samplecharacteristics>
										</format>
										<track TL.SQTrackShy="0" TL.SQTrackExpandedHeight="25" TL.SQTrackExpanded="0" MZ.TrackTargeted="1">
											<clipitem id="clipitem-1172">
												<masterclipid>masterclip-244</masterclipid>
												<name>SAT_sandtagious_2</name>
												<enabled>TRUE</enabled>
												<duration>8993</duration>
												<rate>
													<timebase>30</timebase>
													<ntsc>TRUE</ntsc>
												</rate>
												<start>0</start>
												<end>3601</end>
												<in>0</in>
												<out>3601</out>
												<pproTicksIn>0</pproTicksIn>
												<pproTicksOut>30520877587200</pproTicksOut>
												<sequence id="sequence-52"/>
												<filter>
													<effect>
														<name>Basic Motion</name>
														<effectid>basic</effectid>
														<effectcategory>motion</effectcategory>
														<effecttype>motion</effecttype>
														<mediatype>video</mediatype>
														<pproBypass>false</pproBypass>
														<parameter authoringApp="PremierePro">
															<parameterid>scale</parameterid>
															<name>Scale</name>
															<valuemin>0</valuemin>
															<valuemax>1000</valuemax>
															<value>66.6667</value>
														</parameter>
														<parameter authoringApp="PremierePro">
															<parameterid>rotation</parameterid>
															<name>Rotation</name>
															<valuemin>-8640</valuemin>
															<valuemax>8640</valuemax>
															<value>0</value>
														</parameter>
														<parameter authoringApp="PremierePro">
															<parameterid>center</parameterid>
															<name>Center</name>
															<value>
																<horiz>-0.5</horiz>
																<vert>-0.5</vert>
															</value>
														</parameter>
														<parameter authoringApp="PremierePro">
															<parameterid>centerOffset</parameterid>
															<name>Anchor Point</name>
															<value>
																<horiz>0</horiz>
																<vert>0</vert>
															</value>
														</parameter>
														<parameter authoringApp="PremierePro">
															<parameterid>antiflicker</parameterid>
															<name>Anti-flicker Filter</name>
															<valuemin>0.0</valuemin>
															<valuemax>1.0</valuemax>
															<value>0</value>
														</parameter>
													</effect>
												</filter>
												<link>
													<linkclipref>clipitem-1172</linkclipref>
													<mediatype>video</mediatype>
													<trackindex>1</trackindex>
													<clipindex>1</clipindex>
												</link>
												<link>
													<linkclipref>clipitem-1174</linkclipref>
													<mediatype>audio</mediatype>
													<trackindex>1</trackindex>
													<clipindex>1</clipindex>
													<groupindex>1</groupindex>
												</link>
												<link>
													<linkclipref>clipitem-1176</linkclipref>
													<mediatype>audio</mediatype>
													<trackindex>2</trackindex>
													<clipindex>1</clipindex>
													<groupindex>1</groupindex>
												</link>
												<labels>
													<label2>Forest</label2>
												</labels>
											</clipitem>
											<clipitem id="clipitem-1173">
												<masterclipid>masterclip-245</masterclipid>
												<name>SAT_rise magic_1m05s</name>
												<enabled>TRUE</enabled>
												<duration>4945</duration>
												<rate>
													<timebase>30</timebase>
													<ntsc>TRUE</ntsc>
												</rate>
												<start>3683</start>
												<end>-1</end>
												<in>0</in>
												<out>1984</out>
												<pproTicksIn>0</pproTicksIn>
												<pproTicksOut>16815723724800</pproTicksOut>
												<sequence id="sequence-53"/>
												<filter>
													<effect>
														<name>Basic Motion</name>
														<effectid>basic</effectid>
														<effectcategory>motion</effectcategory>
														<effecttype>motion</effecttype>
														<mediatype>video</mediatype>
														<pproBypass>false</pproBypass>
														<parameter authoringApp="PremierePro">
															<parameterid>scale</parameterid>
															<name>Scale</name>
															<valuemin>0</valuemin>
															<valuemax>1000</valuemax>
															<value>66.6667</value>
														</parameter>
														<parameter authoringApp="PremierePro">
															<parameterid>rotation</parameterid>
															<name>Rotation</name>
															<valuemin>-8640</valuemin>
															<valuemax>8640</valuemax>
															<value>0</value>
														</parameter>
														<parameter authoringApp="PremierePro">
															<parameterid>center</parameterid>
															<name>Center</name>
															<value>
																<horiz>-0.5</horiz>
																<vert>-0.5</vert>
															</value>
														</parameter>
														<parameter authoringApp="PremierePro">
															<parameterid>centerOffset</parameterid>
															<name>Anchor Point</name>
															<value>
																<horiz>0</horiz>
																<vert>0</vert>
															</value>
														</parameter>
														<parameter authoringApp="PremierePro">
															<parameterid>antiflicker</parameterid>
															<name>Anti-flicker Filter</name>
															<valuemin>0.0</valuemin>
															<valuemax>1.0</valuemax>
															<value>0</value>
														</parameter>
													</effect>
												</filter>
												<link>
													<linkclipref>clipitem-1173</linkclipref>
													<mediatype>video</mediatype>
													<trackindex>1</trackindex>
													<clipindex>2</clipindex>
												</link>
												<link>
													<linkclipref>clipitem-1175</linkclipref>
													<mediatype>audio</mediatype>
													<trackindex>1</trackindex>
													<clipindex>2</clipindex>
													<groupindex>1</groupindex>
												</link>
												<link>
													<linkclipref>clipitem-1177</linkclipref>
													<mediatype>audio</mediatype>
													<trackindex>2</trackindex>
													<clipindex>2</clipindex>
													<groupindex>1</groupindex>
												</link>
												<labels>
													<label2>Forest</label2>
												</labels>
											</clipitem>
											<transitionitem>
												<start>5637</start>
												<end>5667</end>
												<alignment>end-black</alignment>
												<cutPointTicks>254270016000</cutPointTicks>
												<rate>
													<timebase>30</timebase>
													<ntsc>TRUE</ntsc>
												</rate>
												<effect>
													<name>Cross Dissolve</name>
													<effectid>Cross Dissolve</effectid>
													<effectcategory>Dissolve</effectcategory>
													<effecttype>transition</effecttype>
													<mediatype>video</mediatype>
													<wipecode>0</wipecode>
													<wipeaccuracy>100</wipeaccuracy>
													<startratio>0</startratio>
													<endratio>1</endratio>
													<reverse>FALSE</reverse>
												</effect>
											</transitionitem>
											<enabled>TRUE</enabled>
											<locked>FALSE</locked>
										</track>
										<track TL.SQTrackShy="0" TL.SQTrackExpandedHeight="25" TL.SQTrackExpanded="0" MZ.TrackTargeted="0">
											<enabled>TRUE</enabled>
											<locked>FALSE</locked>
										</track>
									</video>
									<audio>
										<numOutputChannels>2</numOutputChannels>
										<format>
											<samplecharacteristics>
												<depth>16</depth>
												<samplerate>44100</samplerate>
											</samplecharacteristics>
										</format>
										<outputs>
											<group>
												<index>1</index>
												<numchannels>1</numchannels>
												<downmix>0</downmix>
												<channel>
													<index>1</index>
												</channel>
											</group>
											<group>
												<index>2</index>
												<numchannels>1</numchannels>
												<downmix>0</downmix>
												<channel>
													<index>2</index>
												</channel>
											</group>
										</outputs>
										<track TL.SQTrackAudioKeyframeStyle="0" TL.SQTrackShy="0" TL.SQTrackExpandedHeight="25" TL.SQTrackExpanded="0" MZ.TrackTargeted="1" PannerCurrentValue="0.5" PannerIsInverted="true" PannerStartKeyframe="-91445760000000000,0.5,0,0,0,0,0,0" PannerName="Balance" currentExplodedTrackIndex="0" totalExplodedTrackCount="2" premiereTrackType="Stereo">
											<clipitem id="clipitem-1174" premiereChannelType="stereo">
												<masterclipid>masterclip-244</masterclipid>
												<name>SAT_sandtagious_2</name>
												<enabled>TRUE</enabled>
												<duration>8993</duration>
												<rate>
													<timebase>30</timebase>
													<ntsc>TRUE</ntsc>
												</rate>
												<start>0</start>
												<end>3601</end>
												<in>0</in>
												<out>3601</out>
												<pproTicksIn>0</pproTicksIn>
												<pproTicksOut>30520877587200</pproTicksOut>
												<sequence id="sequence-52"/>
												<sourcetrack>
													<mediatype>audio</mediatype>
													<trackindex>0</trackindex>
												</sourcetrack>
												<link>
													<linkclipref>clipitem-1172</linkclipref>
													<mediatype>video</mediatype>
													<trackindex>1</trackindex>
													<clipindex>1</clipindex>
												</link>
												<link>
													<linkclipref>clipitem-1174</linkclipref>
													<mediatype>audio</mediatype>
													<trackindex>1</trackindex>
													<clipindex>1</clipindex>
													<groupindex>1</groupindex>
												</link>
												<link>
													<linkclipref>clipitem-1176</linkclipref>
													<mediatype>audio</mediatype>
													<trackindex>2</trackindex>
													<clipindex>1</clipindex>
													<groupindex>1</groupindex>
												</link>
												<labels>
													<label2>Forest</label2>
												</labels>
											</clipitem>
											<clipitem id="clipitem-1175" premiereChannelType="stereo">
												<masterclipid>masterclip-245</masterclipid>
												<name>SAT_rise magic_1m05s</name>
												<enabled>TRUE</enabled>
												<duration>4945</duration>
												<rate>
													<timebase>30</timebase>
													<ntsc>TRUE</ntsc>
												</rate>
												<start>3683</start>
												<end>5667</end>
												<in>0</in>
												<out>1984</out>
												<pproTicksIn>0</pproTicksIn>
												<pproTicksOut>16815723724800</pproTicksOut>
												<sequence id="sequence-53"/>
												<sourcetrack>
													<mediatype>audio</mediatype>
													<trackindex>0</trackindex>
												</sourcetrack>
												<link>
													<linkclipref>clipitem-1173</linkclipref>
													<mediatype>video</mediatype>
													<trackindex>1</trackindex>
													<clipindex>2</clipindex>
												</link>
												<link>
													<linkclipref>clipitem-1175</linkclipref>
													<mediatype>audio</mediatype>
													<trackindex>1</trackindex>
													<clipindex>2</clipindex>
													<groupindex>1</groupindex>
												</link>
												<link>
													<linkclipref>clipitem-1177</linkclipref>
													<mediatype>audio</mediatype>
													<trackindex>2</trackindex>
													<clipindex>2</clipindex>
													<groupindex>1</groupindex>
												</link>
												<labels>
													<label2>Forest</label2>
												</labels>
											</clipitem>
											<enabled>TRUE</enabled>
											<locked>FALSE</locked>
											<outputchannelindex>1</outputchannelindex>
										</track>
										<track TL.SQTrackAudioKeyframeStyle="0" TL.SQTrackShy="0" TL.SQTrackExpandedHeight="25" TL.SQTrackExpanded="0" MZ.TrackTargeted="1" PannerCurrentValue="0.5" PannerIsInverted="true" PannerStartKeyframe="-91445760000000000,0.5,0,0,0,0,0,0" PannerName="Balance" currentExplodedTrackIndex="1" totalExplodedTrackCount="2" premiereTrackType="Stereo">
											<clipitem id="clipitem-1176" premiereChannelType="stereo">
												<masterclipid>masterclip-244</masterclipid>
												<name>SAT_sandtagious_2</name>
												<enabled>TRUE</enabled>
												<duration>8993</duration>
												<rate>
													<timebase>30</timebase>
													<ntsc>TRUE</ntsc>
												</rate>
												<start>0</start>
												<end>3601</end>
												<in>0</in>
												<out>3601</out>
												<pproTicksIn>0</pproTicksIn>
												<pproTicksOut>30520877587200</pproTicksOut>
												<sequence id="sequence-52"/>
												<sourcetrack>
													<mediatype>audio</mediatype>
													<trackindex>1</trackindex>
												</sourcetrack>
												<link>
													<linkclipref>clipitem-1172</linkclipref>
													<mediatype>video</mediatype>
													<trackindex>1</trackindex>
													<clipindex>1</clipindex>
												</link>
												<link>
													<linkclipref>clipitem-1174</linkclipref>
													<mediatype>audio</mediatype>
													<trackindex>1</trackindex>
													<clipindex>1</clipindex>
													<groupindex>1</groupindex>
												</link>
												<link>
													<linkclipref>clipitem-1176</linkclipref>
													<mediatype>audio</mediatype>
													<trackindex>2</trackindex>
													<clipindex>1</clipindex>
													<groupindex>1</groupindex>
												</link>
												<labels>
													<label2>Forest</label2>
												</labels>
											</clipitem>
											<clipitem id="clipitem-1177" premiereChannelType="stereo">
												<masterclipid>masterclip-245</masterclipid>
												<name>SAT_rise magic_1m05s</name>
												<enabled>TRUE</enabled>
												<duration>4945</duration>
												<rate>
													<timebase>30</timebase>
													<ntsc>TRUE</ntsc>
												</rate>
												<start>3683</start>
												<end>5667</end>
												<in>0</in>
												<out>1984</out>
												<pproTicksIn>0</pproTicksIn>
												<pproTicksOut>16815723724800</pproTicksOut>
												<sequence id="sequence-53"/>
												<sourcetrack>
													<mediatype>audio</mediatype>
													<trackindex>1</trackindex>
												</sourcetrack>
												<link>
													<linkclipref>clipitem-1173</linkclipref>
													<mediatype>video</mediatype>
													<trackindex>1</trackindex>
													<clipindex>2</clipindex>
												</link>
												<link>
													<linkclipref>clipitem-1175</linkclipref>
													<mediatype>audio</mediatype>
													<trackindex>1</trackindex>
													<clipindex>2</clipindex>
													<groupindex>1</groupindex>
												</link>
												<link>
													<linkclipref>clipitem-1177</linkclipref>
													<mediatype>audio</mediatype>
													<trackindex>2</trackindex>
													<clipindex>2</clipindex>
													<groupindex>1</groupindex>
												</link>
												<labels>
													<label2>Forest</label2>
												</labels>
											</clipitem>
											<enabled>TRUE</enabled>
											<locked>FALSE</locked>
											<outputchannelindex>2</outputchannelindex>
										</track>
										<track TL.SQTrackAudioKeyframeStyle="0" TL.SQTrackShy="0" TL.SQTrackExpandedHeight="25" TL.SQTrackExpanded="0" MZ.TrackTargeted="0" PannerCurrentValue="0.5" PannerIsInverted="true" PannerStartKeyframe="-91445760000000000,0.5,0,0,0,0,0,0" PannerName="Balance" currentExplodedTrackIndex="0" totalExplodedTrackCount="2" premiereTrackType="Stereo">
											<enabled>TRUE</enabled>
											<locked>FALSE</locked>
											<outputchannelindex>1</outputchannelindex>
										</track>
										<track TL.SQTrackAudioKeyframeStyle="0" TL.SQTrackShy="0" TL.SQTrackExpandedHeight="25" TL.SQTrackExpanded="0" MZ.TrackTargeted="0" PannerCurrentValue="0.5" PannerIsInverted="true" PannerStartKeyframe="-91445760000000000,0.5,0,0,0,0,0,0" PannerName="Balance" currentExplodedTrackIndex="1" totalExplodedTrackCount="2" premiereTrackType="Stereo">
											<enabled>TRUE</enabled>
											<locked>FALSE</locked>
											<outputchannelindex>2</outputchannelindex>
										</track>
									</audio>
								</media>
								<timecode>
									<rate>
										<timebase>30</timebase>
										<ntsc>TRUE</ntsc>
									</rate>
									<string>00:00:00:00</string>
									<frame>0</frame>
									<displayformat>NDF</displayformat>
								</timecode>
								<labels>
									<label2>Forest</label2>
								</labels>
								<logginginfo>
									<description></description>
									<scene></scene>
									<shottake></shottake>
									<lognote></lognote>
									<good></good>
									<originalvideofilename></originalvideofilename>
									<originalaudiofilename></originalaudiofilename>
								</logginginfo>
							</sequence>
							<sequence id="sequence-90" TL.SQAudioVisibleBase="0" TL.SQVideoVisibleBase="0" TL.SQVisibleBaseTime="10082326338000" TL.SQAVDividerPosition="0.5" TL.SQHideShyTracks="0" TL.SQHeaderWidth="236" TL.SQDataTrackViewControlState="0" Monitor.ProgramZoomOut="48014654688000" Monitor.ProgramZoomIn="0" TL.SQTimePerPixel="0.045696253305335201" AM.TrackVScrollPosition="0" AM.TrackScrollPosition="0" MZ.EditLine="25147304582400" MZ.Sequence.PreviewFrameSizeHeight="720" MZ.Sequence.PreviewFrameSizeWidth="1280" MZ.Sequence.AudioTimeDisplayFormat="200" MZ.Sequence.PreviewRenderingClassID="1297106761" MZ.Sequence.PreviewRenderingPresetCodec="1297107278" MZ.Sequence.PreviewRenderingPresetPath="EncoderPresets/SequencePreview/795454d9-d3c2-429d-9474-923ab13b7018/I-Frame Only MPEG.epr" MZ.Sequence.PreviewUseMaxRenderQuality="false" MZ.Sequence.PreviewUseMaxBitDepth="false" MZ.Sequence.EditingModeGUID="795454d9-d3c2-429d-9474-923ab13b7018" MZ.Sequence.VideoTimeDisplayFormat="103" MZ.WorkOutPoint="46590742598400" MZ.WorkInPoint="0" explodedTracks="true">
								<uuid>8cb3378b-7153-4516-8807-e69b5fc88588</uuid>
								<duration>5665</duration>
								<rate>
									<timebase>30</timebase>
									<ntsc>TRUE</ntsc>
								</rate>
								<name>formerlyATM_ODDLY SATISFYING_1546</name>
								<media>
									<video>
										<format>
											<samplecharacteristics>
												<rate>
													<timebase>30</timebase>
													<ntsc>TRUE</ntsc>
												</rate>
												<codec>
													<name>Apple ProRes 422</name>
													<appspecificdata>
														<appname>Final Cut Pro</appname>
														<appmanufacturer>Apple Inc.</appmanufacturer>
														<appversion>7.0</appversion>
														<data>
															<qtcodec>
																<codecname>Apple ProRes 422</codecname>
																<codectypename>Apple ProRes 422</codectypename>
																<codectypecode>apcn</codectypecode>
																<codecvendorcode>appl</codecvendorcode>
																<spatialquality>1024</spatialquality>
																<temporalquality>0</temporalquality>
																<keyframerate>0</keyframerate>
																<datarate>0</datarate>
															</qtcodec>
														</data>
													</appspecificdata>
												</codec>
												<width>1280</width>
												<height>720</height>
												<anamorphic>FALSE</anamorphic>
												<pixelaspectratio>square</pixelaspectratio>
												<fielddominance>none</fielddominance>
												<colordepth>24</colordepth>
											</samplecharacteristics>
										</format>
										<track TL.SQTrackShy="0" TL.SQTrackExpandedHeight="25" TL.SQTrackExpanded="0" MZ.TrackTargeted="1">
											<clipitem id="clipitem-1178">
												<masterclipid>masterclip-246</masterclipid>
												<name>DIY_cornelius_creations_1m35s</name>
												<enabled>TRUE</enabled>
												<duration>10089</duration>
												<rate>
													<timebase>30</timebase>
													<ntsc>TRUE</ntsc>
												</rate>
												<start>0</start>
												<end>2334</end>
												<in>0</in>
												<out>2334</out>
												<pproTicksIn>0</pproTicksIn>
												<pproTicksOut>19782207244800</pproTicksOut>
												<sequence id="sequence-54"/>
												<filter>
													<effect>
														<name>Basic Motion</name>
														<effectid>basic</effectid>
														<effectcategory>motion</effectcategory>
														<effecttype>motion</effecttype>
														<mediatype>video</mediatype>
														<pproBypass>false</pproBypass>
														<parameter authoringApp="PremierePro">
															<parameterid>scale</parameterid>
															<name>Scale</name>
															<valuemin>0</valuemin>
															<valuemax>1000</valuemax>
															<value>66.6667</value>
														</parameter>
														<parameter authoringApp="PremierePro">
															<parameterid>rotation</parameterid>
															<name>Rotation</name>
															<valuemin>-8640</valuemin>
															<valuemax>8640</valuemax>
															<value>0</value>
														</parameter>
														<parameter authoringApp="PremierePro">
															<parameterid>center</parameterid>
															<name>Center</name>
															<value>
																<horiz>-0.5</horiz>
																<vert>-0.5</vert>
															</value>
														</parameter>
														<parameter authoringApp="PremierePro">
															<parameterid>centerOffset</parameterid>
															<name>Anchor Point</name>
															<value>
																<horiz>0</horiz>
																<vert>0</vert>
															</value>
														</parameter>
														<parameter authoringApp="PremierePro">
															<parameterid>antiflicker</parameterid>
															<name>Anti-flicker Filter</name>
															<valuemin>0.0</valuemin>
															<valuemax>1.0</valuemax>
															<value>0</value>
														</parameter>
													</effect>
												</filter>
												<link>
													<linkclipref>clipitem-1178</linkclipref>
													<mediatype>video</mediatype>
													<trackindex>1</trackindex>
													<clipindex>1</clipindex>
												</link>
												<link>
													<linkclipref>clipitem-1180</linkclipref>
													<mediatype>audio</mediatype>
													<trackindex>1</trackindex>
													<clipindex>1</clipindex>
													<groupindex>1</groupindex>
												</link>
												<link>
													<linkclipref>clipitem-1182</linkclipref>
													<mediatype>audio</mediatype>
													<trackindex>2</trackindex>
													<clipindex>1</clipindex>
													<groupindex>1</groupindex>
												</link>
												<labels>
													<label2>Forest</label2>
												</labels>
											</clipitem>
											<clipitem id="clipitem-1179">
												<masterclipid>masterclip-247</masterclipid>
												<name>FND_ missmacsbakery_1m45s</name>
												<enabled>TRUE</enabled>
												<duration>3277</duration>
												<rate>
													<timebase>30</timebase>
													<ntsc>TRUE</ntsc>
												</rate>
												<start>2502</start>
												<end>-1</end>
												<in>0</in>
												<out>3163</out>
												<pproTicksIn>0</pproTicksIn>
												<pproTicksOut>26808535353600</pproTicksOut>
												<sequence id="sequence-55"/>
												<filter>
													<effect>
														<name>Basic Motion</name>
														<effectid>basic</effectid>
														<effectcategory>motion</effectcategory>
														<effecttype>motion</effecttype>
														<mediatype>video</mediatype>
														<pproBypass>false</pproBypass>
														<parameter authoringApp="PremierePro">
															<parameterid>scale</parameterid>
															<name>Scale</name>
															<valuemin>0</valuemin>
															<valuemax>1000</valuemax>
															<value>66.6667</value>
														</parameter>
														<parameter authoringApp="PremierePro">
															<parameterid>rotation</parameterid>
															<name>Rotation</name>
															<valuemin>-8640</valuemin>
															<valuemax>8640</valuemax>
															<value>0</value>
														</parameter>
														<parameter authoringApp="PremierePro">
															<parameterid>center</parameterid>
															<name>Center</name>
															<value>
																<horiz>-0.5</horiz>
																<vert>-0.5</vert>
															</value>
														</parameter>
														<parameter authoringApp="PremierePro">
															<parameterid>centerOffset</parameterid>
															<name>Anchor Point</name>
															<value>
																<horiz>0</horiz>
																<vert>0</vert>
															</value>
														</parameter>
														<parameter authoringApp="PremierePro">
															<parameterid>antiflicker</parameterid>
															<name>Anti-flicker Filter</name>
															<valuemin>0.0</valuemin>
															<valuemax>1.0</valuemax>
															<value>0</value>
														</parameter>
													</effect>
												</filter>
												<link>
													<linkclipref>clipitem-1179</linkclipref>
													<mediatype>video</mediatype>
													<trackindex>1</trackindex>
													<clipindex>2</clipindex>
												</link>
												<link>
													<linkclipref>clipitem-1181</linkclipref>
													<mediatype>audio</mediatype>
													<trackindex>1</trackindex>
													<clipindex>2</clipindex>
													<groupindex>1</groupindex>
												</link>
												<link>
													<linkclipref>clipitem-1183</linkclipref>
													<mediatype>audio</mediatype>
													<trackindex>2</trackindex>
													<clipindex>2</clipindex>
													<groupindex>1</groupindex>
												</link>
												<labels>
													<label2>Forest</label2>
												</labels>
											</clipitem>
											<transitionitem>
												<start>5635</start>
												<end>5665</end>
												<alignment>end-black</alignment>
												<cutPointTicks>254270016000</cutPointTicks>
												<rate>
													<timebase>30</timebase>
													<ntsc>TRUE</ntsc>
												</rate>
												<effect>
													<name>Cross Dissolve</name>
													<effectid>Cross Dissolve</effectid>
													<effectcategory>Dissolve</effectcategory>
													<effecttype>transition</effecttype>
													<mediatype>video</mediatype>
													<wipecode>0</wipecode>
													<wipeaccuracy>100</wipeaccuracy>
													<startratio>0</startratio>
													<endratio>1</endratio>
													<reverse>FALSE</reverse>
												</effect>
											</transitionitem>
											<enabled>TRUE</enabled>
											<locked>FALSE</locked>
										</track>
										<track TL.SQTrackShy="0" TL.SQTrackExpandedHeight="25" TL.SQTrackExpanded="0" MZ.TrackTargeted="0">
											<enabled>TRUE</enabled>
											<locked>FALSE</locked>
										</track>
									</video>
									<audio>
										<numOutputChannels>2</numOutputChannels>
										<format>
											<samplecharacteristics>
												<depth>16</depth>
												<samplerate>44100</samplerate>
											</samplecharacteristics>
										</format>
										<outputs>
											<group>
												<index>1</index>
												<numchannels>1</numchannels>
												<downmix>0</downmix>
												<channel>
													<index>1</index>
												</channel>
											</group>
											<group>
												<index>2</index>
												<numchannels>1</numchannels>
												<downmix>0</downmix>
												<channel>
													<index>2</index>
												</channel>
											</group>
										</outputs>
										<track TL.SQTrackAudioKeyframeStyle="0" TL.SQTrackShy="0" TL.SQTrackExpandedHeight="25" TL.SQTrackExpanded="0" MZ.TrackTargeted="1" PannerCurrentValue="0.5" PannerIsInverted="true" PannerStartKeyframe="-91445760000000000,0.5,0,0,0,0,0,0" PannerName="Balance" currentExplodedTrackIndex="0" totalExplodedTrackCount="2" premiereTrackType="Stereo">
											<clipitem id="clipitem-1180" premiereChannelType="stereo">
												<masterclipid>masterclip-246</masterclipid>
												<name>DIY_cornelius_creations_1m35s</name>
												<enabled>TRUE</enabled>
												<duration>10089</duration>
												<rate>
													<timebase>30</timebase>
													<ntsc>TRUE</ntsc>
												</rate>
												<start>0</start>
												<end>2334</end>
												<in>0</in>
												<out>2334</out>
												<pproTicksIn>0</pproTicksIn>
												<pproTicksOut>19782207244800</pproTicksOut>
												<sequence id="sequence-54"/>
												<sourcetrack>
													<mediatype>audio</mediatype>
													<trackindex>0</trackindex>
												</sourcetrack>
												<link>
													<linkclipref>clipitem-1178</linkclipref>
													<mediatype>video</mediatype>
													<trackindex>1</trackindex>
													<clipindex>1</clipindex>
												</link>
												<link>
													<linkclipref>clipitem-1180</linkclipref>
													<mediatype>audio</mediatype>
													<trackindex>1</trackindex>
													<clipindex>1</clipindex>
													<groupindex>1</groupindex>
												</link>
												<link>
													<linkclipref>clipitem-1182</linkclipref>
													<mediatype>audio</mediatype>
													<trackindex>2</trackindex>
													<clipindex>1</clipindex>
													<groupindex>1</groupindex>
												</link>
												<labels>
													<label2>Forest</label2>
												</labels>
											</clipitem>
											<clipitem id="clipitem-1181" premiereChannelType="stereo">
												<masterclipid>masterclip-247</masterclipid>
												<name>FND_ missmacsbakery_1m45s</name>
												<enabled>TRUE</enabled>
												<duration>3277</duration>
												<rate>
													<timebase>30</timebase>
													<ntsc>TRUE</ntsc>
												</rate>
												<start>2502</start>
												<end>5665</end>
												<in>0</in>
												<out>3163</out>
												<pproTicksIn>0</pproTicksIn>
												<pproTicksOut>26808535353600</pproTicksOut>
												<sequence id="sequence-55"/>
												<sourcetrack>
													<mediatype>audio</mediatype>
													<trackindex>0</trackindex>
												</sourcetrack>
												<link>
													<linkclipref>clipitem-1179</linkclipref>
													<mediatype>video</mediatype>
													<trackindex>1</trackindex>
													<clipindex>2</clipindex>
												</link>
												<link>
													<linkclipref>clipitem-1181</linkclipref>
													<mediatype>audio</mediatype>
													<trackindex>1</trackindex>
													<clipindex>2</clipindex>
													<groupindex>1</groupindex>
												</link>
												<link>
													<linkclipref>clipitem-1183</linkclipref>
													<mediatype>audio</mediatype>
													<trackindex>2</trackindex>
													<clipindex>2</clipindex>
													<groupindex>1</groupindex>
												</link>
												<labels>
													<label2>Forest</label2>
												</labels>
											</clipitem>
											<enabled>TRUE</enabled>
											<locked>FALSE</locked>
											<outputchannelindex>1</outputchannelindex>
										</track>
										<track TL.SQTrackAudioKeyframeStyle="0" TL.SQTrackShy="0" TL.SQTrackExpandedHeight="25" TL.SQTrackExpanded="0" MZ.TrackTargeted="1" PannerCurrentValue="0.5" PannerIsInverted="true" PannerStartKeyframe="-91445760000000000,0.5,0,0,0,0,0,0" PannerName="Balance" currentExplodedTrackIndex="1" totalExplodedTrackCount="2" premiereTrackType="Stereo">
											<clipitem id="clipitem-1182" premiereChannelType="stereo">
												<masterclipid>masterclip-246</masterclipid>
												<name>DIY_cornelius_creations_1m35s</name>
												<enabled>TRUE</enabled>
												<duration>10089</duration>
												<rate>
													<timebase>30</timebase>
													<ntsc>TRUE</ntsc>
												</rate>
												<start>0</start>
												<end>2334</end>
												<in>0</in>
												<out>2334</out>
												<pproTicksIn>0</pproTicksIn>
												<pproTicksOut>19782207244800</pproTicksOut>
												<sequence id="sequence-54"/>
												<sourcetrack>
													<mediatype>audio</mediatype>
													<trackindex>1</trackindex>
												</sourcetrack>
												<link>
													<linkclipref>clipitem-1178</linkclipref>
													<mediatype>video</mediatype>
													<trackindex>1</trackindex>
													<clipindex>1</clipindex>
												</link>
												<link>
													<linkclipref>clipitem-1180</linkclipref>
													<mediatype>audio</mediatype>
													<trackindex>1</trackindex>
													<clipindex>1</clipindex>
													<groupindex>1</groupindex>
												</link>
												<link>
													<linkclipref>clipitem-1182</linkclipref>
													<mediatype>audio</mediatype>
													<trackindex>2</trackindex>
													<clipindex>1</clipindex>
													<groupindex>1</groupindex>
												</link>
												<labels>
													<label2>Forest</label2>
												</labels>
											</clipitem>
											<clipitem id="clipitem-1183" premiereChannelType="stereo">
												<masterclipid>masterclip-247</masterclipid>
												<name>FND_ missmacsbakery_1m45s</name>
												<enabled>TRUE</enabled>
												<duration>3277</duration>
												<rate>
													<timebase>30</timebase>
													<ntsc>TRUE</ntsc>
												</rate>
												<start>2502</start>
												<end>5665</end>
												<in>0</in>
												<out>3163</out>
												<pproTicksIn>0</pproTicksIn>
												<pproTicksOut>26808535353600</pproTicksOut>
												<sequence id="sequence-55"/>
												<sourcetrack>
													<mediatype>audio</mediatype>
													<trackindex>1</trackindex>
												</sourcetrack>
												<link>
													<linkclipref>clipitem-1179</linkclipref>
													<mediatype>video</mediatype>
													<trackindex>1</trackindex>
													<clipindex>2</clipindex>
												</link>
												<link>
													<linkclipref>clipitem-1181</linkclipref>
													<mediatype>audio</mediatype>
													<trackindex>1</trackindex>
													<clipindex>2</clipindex>
													<groupindex>1</groupindex>
												</link>
												<link>
													<linkclipref>clipitem-1183</linkclipref>
													<mediatype>audio</mediatype>
													<trackindex>2</trackindex>
													<clipindex>2</clipindex>
													<groupindex>1</groupindex>
												</link>
												<labels>
													<label2>Forest</label2>
												</labels>
											</clipitem>
											<enabled>TRUE</enabled>
											<locked>FALSE</locked>
											<outputchannelindex>2</outputchannelindex>
										</track>
										<track TL.SQTrackAudioKeyframeStyle="0" TL.SQTrackShy="0" TL.SQTrackExpandedHeight="25" TL.SQTrackExpanded="0" MZ.TrackTargeted="0" PannerCurrentValue="0.5" PannerIsInverted="true" PannerStartKeyframe="-91445760000000000,0.5,0,0,0,0,0,0" PannerName="Balance" currentExplodedTrackIndex="0" totalExplodedTrackCount="2" premiereTrackType="Stereo">
											<enabled>TRUE</enabled>
											<locked>FALSE</locked>
											<outputchannelindex>1</outputchannelindex>
										</track>
										<track TL.SQTrackAudioKeyframeStyle="0" TL.SQTrackShy="0" TL.SQTrackExpandedHeight="25" TL.SQTrackExpanded="0" MZ.TrackTargeted="0" PannerCurrentValue="0.5" PannerIsInverted="true" PannerStartKeyframe="-91445760000000000,0.5,0,0,0,0,0,0" PannerName="Balance" currentExplodedTrackIndex="1" totalExplodedTrackCount="2" premiereTrackType="Stereo">
											<enabled>TRUE</enabled>
											<locked>FALSE</locked>
											<outputchannelindex>2</outputchannelindex>
										</track>
									</audio>
								</media>
								<timecode>
									<rate>
										<timebase>30</timebase>
										<ntsc>TRUE</ntsc>
									</rate>
									<string>00:00:00:00</string>
									<frame>0</frame>
									<displayformat>NDF</displayformat>
								</timecode>
								<labels>
									<label2>Forest</label2>
								</labels>
								<logginginfo>
									<description></description>
									<scene></scene>
									<shottake></shottake>
									<lognote></lognote>
									<good></good>
									<originalvideofilename></originalvideofilename>
									<originalaudiofilename></originalaudiofilename>
								</logginginfo>
							</sequence>
							<sequence id="sequence-91" TL.SQAudioVisibleBase="0" TL.SQVideoVisibleBase="0" TL.SQVisibleBaseTime="17444377471500" TL.SQAVDividerPosition="0.5" TL.SQHideShyTracks="0" TL.SQHeaderWidth="236" TL.SQDataTrackViewControlState="0" Monitor.ProgramZoomOut="46904342284800" Monitor.ProgramZoomIn="0" TL.SQTimePerPixel="0.011391950050552185" AM.TrackVScrollPosition="0" AM.TrackScrollPosition="0" MZ.EditLine="21663805363200" MZ.Sequence.PreviewFrameSizeHeight="720" MZ.Sequence.PreviewFrameSizeWidth="1280" MZ.Sequence.AudioTimeDisplayFormat="200" MZ.Sequence.PreviewRenderingClassID="1297106761" MZ.Sequence.PreviewRenderingPresetCodec="1297107278" MZ.Sequence.PreviewRenderingPresetPath="EncoderPresets/SequencePreview/795454d9-d3c2-429d-9474-923ab13b7018/I-Frame Only MPEG.epr" MZ.Sequence.PreviewUseMaxRenderQuality="false" MZ.Sequence.PreviewUseMaxBitDepth="false" MZ.Sequence.EditingModeGUID="795454d9-d3c2-429d-9474-923ab13b7018" MZ.Sequence.VideoTimeDisplayFormat="103" MZ.WorkOutPoint="46031348563200" MZ.WorkInPoint="0" explodedTracks="true">
								<uuid>ccc3d6ba-ab7d-44f8-b784-e9a1219b1cd7</uuid>
								<duration>5534</duration>
								<rate>
									<timebase>30</timebase>
									<ntsc>TRUE</ntsc>
								</rate>
								<name>formerlyATM_ODDLY SATISFYING_1547</name>
								<media>
									<video>
										<format>
											<samplecharacteristics>
												<rate>
													<timebase>30</timebase>
													<ntsc>TRUE</ntsc>
												</rate>
												<codec>
													<name>Apple ProRes 422</name>
													<appspecificdata>
														<appname>Final Cut Pro</appname>
														<appmanufacturer>Apple Inc.</appmanufacturer>
														<appversion>7.0</appversion>
														<data>
															<qtcodec>
																<codecname>Apple ProRes 422</codecname>
																<codectypename>Apple ProRes 422</codectypename>
																<codectypecode>apcn</codectypecode>
																<codecvendorcode>appl</codecvendorcode>
																<spatialquality>1024</spatialquality>
																<temporalquality>0</temporalquality>
																<keyframerate>0</keyframerate>
																<datarate>0</datarate>
															</qtcodec>
														</data>
													</appspecificdata>
												</codec>
												<width>1280</width>
												<height>720</height>
												<anamorphic>FALSE</anamorphic>
												<pixelaspectratio>square</pixelaspectratio>
												<fielddominance>none</fielddominance>
												<colordepth>24</colordepth>
											</samplecharacteristics>
										</format>
										<track TL.SQTrackShy="0" TL.SQTrackExpandedHeight="25" TL.SQTrackExpanded="0" MZ.TrackTargeted="1">
											<clipitem id="clipitem-1184">
												<masterclipid>masterclip-248</masterclipid>
												<name>DIY_hanabira_1.5</name>
												<enabled>TRUE</enabled>
												<duration>3371</duration>
												<rate>
													<timebase>30</timebase>
													<ntsc>TRUE</ntsc>
												</rate>
												<start>0</start>
												<end>2530</end>
												<in>0</in>
												<out>2530</out>
												<pproTicksIn>0</pproTicksIn>
												<pproTicksOut>21443438016000</pproTicksOut>
												<sequence id="sequence-56"/>
												<filter>
													<effect>
														<name>Basic Motion</name>
														<effectid>basic</effectid>
														<effectcategory>motion</effectcategory>
														<effecttype>motion</effecttype>
														<mediatype>video</mediatype>
														<pproBypass>false</pproBypass>
														<parameter authoringApp="PremierePro">
															<parameterid>scale</parameterid>
															<name>Scale</name>
															<valuemin>0</valuemin>
															<valuemax>1000</valuemax>
															<value>66.6667</value>
														</parameter>
														<parameter authoringApp="PremierePro">
															<parameterid>rotation</parameterid>
															<name>Rotation</name>
															<valuemin>-8640</valuemin>
															<valuemax>8640</valuemax>
															<value>0</value>
														</parameter>
														<parameter authoringApp="PremierePro">
															<parameterid>center</parameterid>
															<name>Center</name>
															<value>
																<horiz>-0.5</horiz>
																<vert>-0.5</vert>
															</value>
														</parameter>
														<parameter authoringApp="PremierePro">
															<parameterid>centerOffset</parameterid>
															<name>Anchor Point</name>
															<value>
																<horiz>0</horiz>
																<vert>0</vert>
															</value>
														</parameter>
														<parameter authoringApp="PremierePro">
															<parameterid>antiflicker</parameterid>
															<name>Anti-flicker Filter</name>
															<valuemin>0.0</valuemin>
															<valuemax>1.0</valuemax>
															<value>0</value>
														</parameter>
													</effect>
												</filter>
												<link>
													<linkclipref>clipitem-1184</linkclipref>
													<mediatype>video</mediatype>
													<trackindex>1</trackindex>
													<clipindex>1</clipindex>
												</link>
												<link>
													<linkclipref>clipitem-1187</linkclipref>
													<mediatype>audio</mediatype>
													<trackindex>1</trackindex>
													<clipindex>1</clipindex>
													<groupindex>1</groupindex>
												</link>
												<link>
													<linkclipref>clipitem-1190</linkclipref>
													<mediatype>audio</mediatype>
													<trackindex>2</trackindex>
													<clipindex>1</clipindex>
													<groupindex>1</groupindex>
												</link>
												<labels>
													<label2>Forest</label2>
												</labels>
											</clipitem>
											<clipitem id="clipitem-1185">
												<masterclipid>masterclip-249</masterclipid>
												<name>SAT_anders soberra_1.5</name>
												<enabled>TRUE</enabled>
												<duration>9370</duration>
												<rate>
													<timebase>30</timebase>
													<ntsc>TRUE</ntsc>
												</rate>
												<start>2556</start>
												<end>5235</end>
												<in>0</in>
												<out>2679</out>
												<pproTicksIn>0</pproTicksIn>
												<pproTicksOut>22706312428800</pproTicksOut>
												<sequence id="sequence-57"/>
												<filter>
													<effect>
														<name>Basic Motion</name>
														<effectid>basic</effectid>
														<effectcategory>motion</effectcategory>
														<effecttype>motion</effecttype>
														<mediatype>video</mediatype>
														<pproBypass>false</pproBypass>
														<parameter authoringApp="PremierePro">
															<parameterid>scale</parameterid>
															<name>Scale</name>
															<valuemin>0</valuemin>
															<valuemax>1000</valuemax>
															<value>66.6667</value>
														</parameter>
														<parameter authoringApp="PremierePro">
															<parameterid>rotation</parameterid>
															<name>Rotation</name>
															<valuemin>-8640</valuemin>
															<valuemax>8640</valuemax>
															<value>0</value>
														</parameter>
														<parameter authoringApp="PremierePro">
															<parameterid>center</parameterid>
															<name>Center</name>
															<value>
																<horiz>-0.5</horiz>
																<vert>-0.5</vert>
															</value>
														</parameter>
														<parameter authoringApp="PremierePro">
															<parameterid>centerOffset</parameterid>
															<name>Anchor Point</name>
															<value>
																<horiz>0</horiz>
																<vert>0</vert>
															</value>
														</parameter>
														<parameter authoringApp="PremierePro">
															<parameterid>antiflicker</parameterid>
															<name>Anti-flicker Filter</name>
															<valuemin>0.0</valuemin>
															<valuemax>1.0</valuemax>
															<value>0</value>
														</parameter>
													</effect>
												</filter>
												<link>
													<linkclipref>clipitem-1185</linkclipref>
													<mediatype>video</mediatype>
													<trackindex>1</trackindex>
													<clipindex>2</clipindex>
												</link>
												<link>
													<linkclipref>clipitem-1188</linkclipref>
													<mediatype>audio</mediatype>
													<trackindex>1</trackindex>
													<clipindex>2</clipindex>
													<groupindex>1</groupindex>
												</link>
												<link>
													<linkclipref>clipitem-1191</linkclipref>
													<mediatype>audio</mediatype>
													<trackindex>2</trackindex>
													<clipindex>2</clipindex>
													<groupindex>1</groupindex>
												</link>
												<labels>
													<label2>Forest</label2>
												</labels>
											</clipitem>
											<clipitem id="clipitem-1186">
												<masterclipid>masterclip-33</masterclipid>
												<name>01.5_ATM_Content Submit QR_Music 2.mp4</name>
												<enabled>TRUE</enabled>
												<duration>299</duration>
												<rate>
													<timebase>30</timebase>
													<ntsc>TRUE</ntsc>
												</rate>
												<start>5235</start>
												<end>5534</end>
												<in>0</in>
												<out>299</out>
												<pproTicksIn>0</pproTicksIn>
												<pproTicksOut>2534224492800</pproTicksOut>
												<alphatype>none</alphatype>
												<file id="file-33"/>
												<filter>
													<effect>
														<name>Basic Motion</name>
														<effectid>basic</effectid>
														<effectcategory>motion</effectcategory>
														<effecttype>motion</effecttype>
														<mediatype>video</mediatype>
														<pproBypass>false</pproBypass>
														<parameter authoringApp="PremierePro">
															<parameterid>scale</parameterid>
															<name>Scale</name>
															<valuemin>0</valuemin>
															<valuemax>1000</valuemax>
															<value>66.6667</value>
														</parameter>
														<parameter authoringApp="PremierePro">
															<parameterid>rotation</parameterid>
															<name>Rotation</name>
															<valuemin>-8640</valuemin>
															<valuemax>8640</valuemax>
															<value>0</value>
														</parameter>
														<parameter authoringApp="PremierePro">
															<parameterid>center</parameterid>
															<name>Center</name>
															<value>
																<horiz>0</horiz>
																<vert>0</vert>
															</value>
														</parameter>
														<parameter authoringApp="PremierePro">
															<parameterid>centerOffset</parameterid>
															<name>Anchor Point</name>
															<value>
																<horiz>0</horiz>
																<vert>0</vert>
															</value>
														</parameter>
														<parameter authoringApp="PremierePro">
															<parameterid>antiflicker</parameterid>
															<name>Anti-flicker Filter</name>
															<valuemin>0.0</valuemin>
															<valuemax>1.0</valuemax>
															<value>0</value>
														</parameter>
													</effect>
												</filter>
												<link>
													<linkclipref>clipitem-1186</linkclipref>
													<mediatype>video</mediatype>
													<trackindex>1</trackindex>
													<clipindex>3</clipindex>
												</link>
												<link>
													<linkclipref>clipitem-1189</linkclipref>
													<mediatype>audio</mediatype>
													<trackindex>1</trackindex>
													<clipindex>3</clipindex>
													<groupindex>1</groupindex>
												</link>
												<link>
													<linkclipref>clipitem-1192</linkclipref>
													<mediatype>audio</mediatype>
													<trackindex>2</trackindex>
													<clipindex>3</clipindex>
													<groupindex>1</groupindex>
												</link>
												<logginginfo>
													<description></description>
													<scene></scene>
													<shottake></shottake>
													<lognote></lognote>
													<good></good>
													<originalvideofilename></originalvideofilename>
													<originalaudiofilename></originalaudiofilename>
												</logginginfo>
												<colorinfo>
													<lut></lut>
													<lut1></lut1>
													<asc_sop></asc_sop>
													<asc_sat></asc_sat>
													<lut2></lut2>
												</colorinfo>
												<labels>
													<label2>Iris</label2>
												</labels>
											</clipitem>
											<enabled>TRUE</enabled>
											<locked>FALSE</locked>
										</track>
										<track TL.SQTrackShy="0" TL.SQTrackExpandedHeight="25" TL.SQTrackExpanded="0" MZ.TrackTargeted="0">
											<enabled>TRUE</enabled>
											<locked>FALSE</locked>
										</track>
									</video>
									<audio>
										<numOutputChannels>2</numOutputChannels>
										<format>
											<samplecharacteristics>
												<depth>16</depth>
												<samplerate>44100</samplerate>
											</samplecharacteristics>
										</format>
										<outputs>
											<group>
												<index>1</index>
												<numchannels>1</numchannels>
												<downmix>0</downmix>
												<channel>
													<index>1</index>
												</channel>
											</group>
											<group>
												<index>2</index>
												<numchannels>1</numchannels>
												<downmix>0</downmix>
												<channel>
													<index>2</index>
												</channel>
											</group>
										</outputs>
										<track TL.SQTrackAudioKeyframeStyle="0" TL.SQTrackShy="0" TL.SQTrackExpandedHeight="25" TL.SQTrackExpanded="0" MZ.TrackTargeted="1" PannerCurrentValue="0.5" PannerIsInverted="true" PannerStartKeyframe="-91445760000000000,0.5,0,0,0,0,0,0" PannerName="Balance" currentExplodedTrackIndex="0" totalExplodedTrackCount="2" premiereTrackType="Stereo">
											<clipitem id="clipitem-1187" premiereChannelType="stereo">
												<masterclipid>masterclip-248</masterclipid>
												<name>DIY_hanabira_1.5</name>
												<enabled>TRUE</enabled>
												<duration>3371</duration>
												<rate>
													<timebase>30</timebase>
													<ntsc>TRUE</ntsc>
												</rate>
												<start>0</start>
												<end>2530</end>
												<in>0</in>
												<out>2530</out>
												<pproTicksIn>0</pproTicksIn>
												<pproTicksOut>21443438016000</pproTicksOut>
												<sequence id="sequence-56"/>
												<sourcetrack>
													<mediatype>audio</mediatype>
													<trackindex>0</trackindex>
												</sourcetrack>
												<link>
													<linkclipref>clipitem-1184</linkclipref>
													<mediatype>video</mediatype>
													<trackindex>1</trackindex>
													<clipindex>1</clipindex>
												</link>
												<link>
													<linkclipref>clipitem-1187</linkclipref>
													<mediatype>audio</mediatype>
													<trackindex>1</trackindex>
													<clipindex>1</clipindex>
													<groupindex>1</groupindex>
												</link>
												<link>
													<linkclipref>clipitem-1190</linkclipref>
													<mediatype>audio</mediatype>
													<trackindex>2</trackindex>
													<clipindex>1</clipindex>
													<groupindex>1</groupindex>
												</link>
												<labels>
													<label2>Forest</label2>
												</labels>
											</clipitem>
											<clipitem id="clipitem-1188" premiereChannelType="stereo">
												<masterclipid>masterclip-249</masterclipid>
												<name>SAT_anders soberra_1.5</name>
												<enabled>TRUE</enabled>
												<duration>9370</duration>
												<rate>
													<timebase>30</timebase>
													<ntsc>TRUE</ntsc>
												</rate>
												<start>2556</start>
												<end>5235</end>
												<in>0</in>
												<out>2679</out>
												<pproTicksIn>0</pproTicksIn>
												<pproTicksOut>22706312428800</pproTicksOut>
												<sequence id="sequence-57"/>
												<sourcetrack>
													<mediatype>audio</mediatype>
													<trackindex>0</trackindex>
												</sourcetrack>
												<link>
													<linkclipref>clipitem-1185</linkclipref>
													<mediatype>video</mediatype>
													<trackindex>1</trackindex>
													<clipindex>2</clipindex>
												</link>
												<link>
													<linkclipref>clipitem-1188</linkclipref>
													<mediatype>audio</mediatype>
													<trackindex>1</trackindex>
													<clipindex>2</clipindex>
													<groupindex>1</groupindex>
												</link>
												<link>
													<linkclipref>clipitem-1191</linkclipref>
													<mediatype>audio</mediatype>
													<trackindex>2</trackindex>
													<clipindex>2</clipindex>
													<groupindex>1</groupindex>
												</link>
												<labels>
													<label2>Forest</label2>
												</labels>
											</clipitem>
											<clipitem id="clipitem-1189" premiereChannelType="stereo">
												<masterclipid>masterclip-33</masterclipid>
												<name>01.5_ATM_Content Submit QR_Music 2.mp4</name>
												<enabled>TRUE</enabled>
												<duration>299</duration>
												<rate>
													<timebase>30</timebase>
													<ntsc>TRUE</ntsc>
												</rate>
												<start>5235</start>
												<end>5534</end>
												<in>0</in>
												<out>299</out>
												<pproTicksIn>0</pproTicksIn>
												<pproTicksOut>2534224492800</pproTicksOut>
												<file id="file-33"/>
												<sourcetrack>
													<mediatype>audio</mediatype>
													<trackindex>1</trackindex>
												</sourcetrack>
												<link>
													<linkclipref>clipitem-1186</linkclipref>
													<mediatype>video</mediatype>
													<trackindex>1</trackindex>
													<clipindex>3</clipindex>
												</link>
												<link>
													<linkclipref>clipitem-1189</linkclipref>
													<mediatype>audio</mediatype>
													<trackindex>1</trackindex>
													<clipindex>3</clipindex>
													<groupindex>1</groupindex>
												</link>
												<link>
													<linkclipref>clipitem-1192</linkclipref>
													<mediatype>audio</mediatype>
													<trackindex>2</trackindex>
													<clipindex>3</clipindex>
													<groupindex>1</groupindex>
												</link>
												<logginginfo>
													<description></description>
													<scene></scene>
													<shottake></shottake>
													<lognote></lognote>
													<good></good>
													<originalvideofilename></originalvideofilename>
													<originalaudiofilename></originalaudiofilename>
												</logginginfo>
												<colorinfo>
													<lut></lut>
													<lut1></lut1>
													<asc_sop></asc_sop>
													<asc_sat></asc_sat>
													<lut2></lut2>
												</colorinfo>
												<labels>
													<label2>Iris</label2>
												</labels>
											</clipitem>
											<enabled>TRUE</enabled>
											<locked>FALSE</locked>
											<outputchannelindex>1</outputchannelindex>
										</track>
										<track TL.SQTrackAudioKeyframeStyle="0" TL.SQTrackShy="0" TL.SQTrackExpandedHeight="25" TL.SQTrackExpanded="0" MZ.TrackTargeted="1" PannerCurrentValue="0.5" PannerIsInverted="true" PannerStartKeyframe="-91445760000000000,0.5,0,0,0,0,0,0" PannerName="Balance" currentExplodedTrackIndex="1" totalExplodedTrackCount="2" premiereTrackType="Stereo">
											<clipitem id="clipitem-1190" premiereChannelType="stereo">
												<masterclipid>masterclip-248</masterclipid>
												<name>DIY_hanabira_1.5</name>
												<enabled>TRUE</enabled>
												<duration>3371</duration>
												<rate>
													<timebase>30</timebase>
													<ntsc>TRUE</ntsc>
												</rate>
												<start>0</start>
												<end>2530</end>
												<in>0</in>
												<out>2530</out>
												<pproTicksIn>0</pproTicksIn>
												<pproTicksOut>21443438016000</pproTicksOut>
												<sequence id="sequence-56"/>
												<sourcetrack>
													<mediatype>audio</mediatype>
													<trackindex>1</trackindex>
												</sourcetrack>
												<link>
													<linkclipref>clipitem-1184</linkclipref>
													<mediatype>video</mediatype>
													<trackindex>1</trackindex>
													<clipindex>1</clipindex>
												</link>
												<link>
													<linkclipref>clipitem-1187</linkclipref>
													<mediatype>audio</mediatype>
													<trackindex>1</trackindex>
													<clipindex>1</clipindex>
													<groupindex>1</groupindex>
												</link>
												<link>
													<linkclipref>clipitem-1190</linkclipref>
													<mediatype>audio</mediatype>
													<trackindex>2</trackindex>
													<clipindex>1</clipindex>
													<groupindex>1</groupindex>
												</link>
												<labels>
													<label2>Forest</label2>
												</labels>
											</clipitem>
											<clipitem id="clipitem-1191" premiereChannelType="stereo">
												<masterclipid>masterclip-249</masterclipid>
												<name>SAT_anders soberra_1.5</name>
												<enabled>TRUE</enabled>
												<duration>9370</duration>
												<rate>
													<timebase>30</timebase>
													<ntsc>TRUE</ntsc>
												</rate>
												<start>2556</start>
												<end>5235</end>
												<in>0</in>
												<out>2679</out>
												<pproTicksIn>0</pproTicksIn>
												<pproTicksOut>22706312428800</pproTicksOut>
												<sequence id="sequence-57"/>
												<sourcetrack>
													<mediatype>audio</mediatype>
													<trackindex>1</trackindex>
												</sourcetrack>
												<link>
													<linkclipref>clipitem-1185</linkclipref>
													<mediatype>video</mediatype>
													<trackindex>1</trackindex>
													<clipindex>2</clipindex>
												</link>
												<link>
													<linkclipref>clipitem-1188</linkclipref>
													<mediatype>audio</mediatype>
													<trackindex>1</trackindex>
													<clipindex>2</clipindex>
													<groupindex>1</groupindex>
												</link>
												<link>
													<linkclipref>clipitem-1191</linkclipref>
													<mediatype>audio</mediatype>
													<trackindex>2</trackindex>
													<clipindex>2</clipindex>
													<groupindex>1</groupindex>
												</link>
												<labels>
													<label2>Forest</label2>
												</labels>
											</clipitem>
											<clipitem id="clipitem-1192" premiereChannelType="stereo">
												<masterclipid>masterclip-33</masterclipid>
												<name>01.5_ATM_Content Submit QR_Music 2.mp4</name>
												<enabled>TRUE</enabled>
												<duration>299</duration>
												<rate>
													<timebase>30</timebase>
													<ntsc>TRUE</ntsc>
												</rate>
												<start>5235</start>
												<end>5534</end>
												<in>0</in>
												<out>299</out>
												<pproTicksIn>0</pproTicksIn>
												<pproTicksOut>2534224492800</pproTicksOut>
												<file id="file-33"/>
												<sourcetrack>
													<mediatype>audio</mediatype>
													<trackindex>2</trackindex>
												</sourcetrack>
												<link>
													<linkclipref>clipitem-1186</linkclipref>
													<mediatype>video</mediatype>
													<trackindex>1</trackindex>
													<clipindex>3</clipindex>
												</link>
												<link>
													<linkclipref>clipitem-1189</linkclipref>
													<mediatype>audio</mediatype>
													<trackindex>1</trackindex>
													<clipindex>3</clipindex>
													<groupindex>1</groupindex>
												</link>
												<link>
													<linkclipref>clipitem-1192</linkclipref>
													<mediatype>audio</mediatype>
													<trackindex>2</trackindex>
													<clipindex>3</clipindex>
													<groupindex>1</groupindex>
												</link>
												<logginginfo>
													<description></description>
													<scene></scene>
													<shottake></shottake>
													<lognote></lognote>
													<good></good>
													<originalvideofilename></originalvideofilename>
													<originalaudiofilename></originalaudiofilename>
												</logginginfo>
												<colorinfo>
													<lut></lut>
													<lut1></lut1>
													<asc_sop></asc_sop>
													<asc_sat></asc_sat>
													<lut2></lut2>
												</colorinfo>
												<labels>
													<label2>Iris</label2>
												</labels>
											</clipitem>
											<enabled>TRUE</enabled>
											<locked>FALSE</locked>
											<outputchannelindex>2</outputchannelindex>
										</track>
										<track TL.SQTrackAudioKeyframeStyle="0" TL.SQTrackShy="0" TL.SQTrackExpandedHeight="25" TL.SQTrackExpanded="0" MZ.TrackTargeted="0" PannerCurrentValue="0.5" PannerIsInverted="true" PannerStartKeyframe="-91445760000000000,0.5,0,0,0,0,0,0" PannerName="Balance" currentExplodedTrackIndex="0" totalExplodedTrackCount="2" premiereTrackType="Stereo">
											<enabled>TRUE</enabled>
											<locked>FALSE</locked>
											<outputchannelindex>1</outputchannelindex>
										</track>
										<track TL.SQTrackAudioKeyframeStyle="0" TL.SQTrackShy="0" TL.SQTrackExpandedHeight="25" TL.SQTrackExpanded="0" MZ.TrackTargeted="0" PannerCurrentValue="0.5" PannerIsInverted="true" PannerStartKeyframe="-91445760000000000,0.5,0,0,0,0,0,0" PannerName="Balance" currentExplodedTrackIndex="1" totalExplodedTrackCount="2" premiereTrackType="Stereo">
											<enabled>TRUE</enabled>
											<locked>FALSE</locked>
											<outputchannelindex>2</outputchannelindex>
										</track>
									</audio>
								</media>
								<timecode>
									<rate>
										<timebase>30</timebase>
										<ntsc>TRUE</ntsc>
									</rate>
									<string>00:00:00:00</string>
									<frame>0</frame>
									<displayformat>NDF</displayformat>
								</timecode>
								<labels>
									<label2>Forest</label2>
								</labels>
								<logginginfo>
									<description></description>
									<scene></scene>
									<shottake></shottake>
									<lognote></lognote>
									<good></good>
									<originalvideofilename></originalvideofilename>
									<originalaudiofilename></originalaudiofilename>
								</logginginfo>
							</sequence>
							<sequence id="sequence-92" TL.SQAudioVisibleBase="0" TL.SQVideoVisibleBase="0" TL.SQVisibleBaseTime="0" TL.SQAVDividerPosition="0.5" TL.SQHideShyTracks="0" TL.SQHeaderWidth="236" TL.SQDataTrackViewControlState="0" Monitor.ProgramZoomOut="47031477292800" Monitor.ProgramZoomIn="0" TL.SQTimePerPixel="0.18255146212474724" AM.TrackVScrollPosition="0" AM.TrackScrollPosition="0" MZ.EditLine="32970345408000" MZ.Sequence.PreviewFrameSizeHeight="720" MZ.Sequence.PreviewFrameSizeWidth="1280" MZ.Sequence.AudioTimeDisplayFormat="200" MZ.Sequence.PreviewRenderingClassID="1297106761" MZ.Sequence.PreviewRenderingPresetCodec="1297107278" MZ.Sequence.PreviewRenderingPresetPath="EncoderPresets/SequencePreview/795454d9-d3c2-429d-9474-923ab13b7018/I-Frame Only MPEG.epr" MZ.Sequence.PreviewUseMaxRenderQuality="false" MZ.Sequence.PreviewUseMaxBitDepth="false" MZ.Sequence.EditingModeGUID="795454d9-d3c2-429d-9474-923ab13b7018" MZ.Sequence.VideoTimeDisplayFormat="103" MZ.WorkOutPoint="46336472582400" MZ.WorkInPoint="0" explodedTracks="true">
								<uuid>e1debe79-23ad-41be-9c9b-99ae0e25769d</uuid>
								<duration>5549</duration>
								<rate>
									<timebase>30</timebase>
									<ntsc>TRUE</ntsc>
								</rate>
								<name>formerlyATM_ODDLY SATISFYING_1548</name>
								<media>
									<video>
										<format>
											<samplecharacteristics>
												<rate>
													<timebase>30</timebase>
													<ntsc>TRUE</ntsc>
												</rate>
												<codec>
													<name>Apple ProRes 422</name>
													<appspecificdata>
														<appname>Final Cut Pro</appname>
														<appmanufacturer>Apple Inc.</appmanufacturer>
														<appversion>7.0</appversion>
														<data>
															<qtcodec>
																<codecname>Apple ProRes 422</codecname>
																<codectypename>Apple ProRes 422</codectypename>
																<codectypecode>apcn</codectypecode>
																<codecvendorcode>appl</codecvendorcode>
																<spatialquality>1024</spatialquality>
																<temporalquality>0</temporalquality>
																<keyframerate>0</keyframerate>
																<datarate>0</datarate>
															</qtcodec>
														</data>
													</appspecificdata>
												</codec>
												<width>1280</width>
												<height>720</height>
												<anamorphic>FALSE</anamorphic>
												<pixelaspectratio>square</pixelaspectratio>
												<fielddominance>none</fielddominance>
												<colordepth>24</colordepth>
											</samplecharacteristics>
										</format>
										<track TL.SQTrackShy="0" TL.SQTrackExpandedHeight="25" TL.SQTrackExpanded="0" MZ.TrackTargeted="1">
											<clipitem id="clipitem-1193">
												<masterclipid>masterclip-250</masterclipid>
												<name>SAT_asmr soap startseva_1m45s</name>
												<enabled>TRUE</enabled>
												<duration>9135</duration>
												<rate>
													<timebase>30</timebase>
													<ntsc>TRUE</ntsc>
												</rate>
												<start>0</start>
												<end>2315</end>
												<in>0</in>
												<out>2315</out>
												<pproTicksIn>0</pproTicksIn>
												<pproTicksOut>19621169568000</pproTicksOut>
												<sequence id="sequence-58"/>
												<filter>
													<effect>
														<name>Basic Motion</name>
														<effectid>basic</effectid>
														<effectcategory>motion</effectcategory>
														<effecttype>motion</effecttype>
														<mediatype>video</mediatype>
														<pproBypass>false</pproBypass>
														<parameter authoringApp="PremierePro">
															<parameterid>scale</parameterid>
															<name>Scale</name>
															<valuemin>0</valuemin>
															<valuemax>1000</valuemax>
															<value>66.6667</value>
														</parameter>
														<parameter authoringApp="PremierePro">
															<parameterid>rotation</parameterid>
															<name>Rotation</name>
															<valuemin>-8640</valuemin>
															<valuemax>8640</valuemax>
															<value>0</value>
														</parameter>
														<parameter authoringApp="PremierePro">
															<parameterid>center</parameterid>
															<name>Center</name>
															<value>
																<horiz>-0.5</horiz>
																<vert>-0.5</vert>
															</value>
														</parameter>
														<parameter authoringApp="PremierePro">
															<parameterid>centerOffset</parameterid>
															<name>Anchor Point</name>
															<value>
																<horiz>0</horiz>
																<vert>0</vert>
															</value>
														</parameter>
														<parameter authoringApp="PremierePro">
															<parameterid>antiflicker</parameterid>
															<name>Anti-flicker Filter</name>
															<valuemin>0.0</valuemin>
															<valuemax>1.0</valuemax>
															<value>0</value>
														</parameter>
													</effect>
												</filter>
												<link>
													<linkclipref>clipitem-1193</linkclipref>
													<mediatype>video</mediatype>
													<trackindex>1</trackindex>
													<clipindex>1</clipindex>
												</link>
												<link>
													<linkclipref>clipitem-1195</linkclipref>
													<mediatype>audio</mediatype>
													<trackindex>1</trackindex>
													<clipindex>1</clipindex>
													<groupindex>1</groupindex>
												</link>
												<link>
													<linkclipref>clipitem-1197</linkclipref>
													<mediatype>audio</mediatype>
													<trackindex>2</trackindex>
													<clipindex>1</clipindex>
													<groupindex>1</groupindex>
												</link>
												<labels>
													<label2>Forest</label2>
												</labels>
											</clipitem>
											<clipitem id="clipitem-1194">
												<masterclipid>masterclip-251</masterclipid>
												<name>DIY_oil paint experts Crafty unbranded_1m45s</name>
												<enabled>TRUE</enabled>
												<duration>6427</duration>
												<rate>
													<timebase>30</timebase>
													<ntsc>TRUE</ntsc>
												</rate>
												<start>2397</start>
												<end>-1</end>
												<in>0</in>
												<out>3152</out>
												<pproTicksIn>0</pproTicksIn>
												<pproTicksOut>26715303014400</pproTicksOut>
												<sequence id="sequence-59"/>
												<filter>
													<effect>
														<name>Basic Motion</name>
														<effectid>basic</effectid>
														<effectcategory>motion</effectcategory>
														<effecttype>motion</effecttype>
														<mediatype>video</mediatype>
														<pproBypass>false</pproBypass>
														<parameter authoringApp="PremierePro">
															<parameterid>scale</parameterid>
															<name>Scale</name>
															<valuemin>0</valuemin>
															<valuemax>1000</valuemax>
															<value>66.6667</value>
														</parameter>
														<parameter authoringApp="PremierePro">
															<parameterid>rotation</parameterid>
															<name>Rotation</name>
															<valuemin>-8640</valuemin>
															<valuemax>8640</valuemax>
															<value>0</value>
														</parameter>
														<parameter authoringApp="PremierePro">
															<parameterid>center</parameterid>
															<name>Center</name>
															<value>
																<horiz>-0.5</horiz>
																<vert>-0.5</vert>
															</value>
														</parameter>
														<parameter authoringApp="PremierePro">
															<parameterid>centerOffset</parameterid>
															<name>Anchor Point</name>
															<value>
																<horiz>0</horiz>
																<vert>0</vert>
															</value>
														</parameter>
														<parameter authoringApp="PremierePro">
															<parameterid>antiflicker</parameterid>
															<name>Anti-flicker Filter</name>
															<valuemin>0.0</valuemin>
															<valuemax>1.0</valuemax>
															<value>0</value>
														</parameter>
													</effect>
												</filter>
												<link>
													<linkclipref>clipitem-1194</linkclipref>
													<mediatype>video</mediatype>
													<trackindex>1</trackindex>
													<clipindex>2</clipindex>
												</link>
												<link>
													<linkclipref>clipitem-1196</linkclipref>
													<mediatype>audio</mediatype>
													<trackindex>1</trackindex>
													<clipindex>2</clipindex>
													<groupindex>1</groupindex>
												</link>
												<link>
													<linkclipref>clipitem-1198</linkclipref>
													<mediatype>audio</mediatype>
													<trackindex>2</trackindex>
													<clipindex>2</clipindex>
													<groupindex>1</groupindex>
												</link>
												<labels>
													<label2>Forest</label2>
												</labels>
											</clipitem>
											<transitionitem>
												<start>5519</start>
												<end>5549</end>
												<alignment>end-black</alignment>
												<cutPointTicks>254270016000</cutPointTicks>
												<rate>
													<timebase>30</timebase>
													<ntsc>TRUE</ntsc>
												</rate>
												<effect>
													<name>Cross Dissolve</name>
													<effectid>Cross Dissolve</effectid>
													<effectcategory>Dissolve</effectcategory>
													<effecttype>transition</effecttype>
													<mediatype>video</mediatype>
													<wipecode>0</wipecode>
													<wipeaccuracy>100</wipeaccuracy>
													<startratio>0</startratio>
													<endratio>1</endratio>
													<reverse>FALSE</reverse>
												</effect>
											</transitionitem>
											<enabled>TRUE</enabled>
											<locked>FALSE</locked>
										</track>
										<track TL.SQTrackShy="0" TL.SQTrackExpandedHeight="25" TL.SQTrackExpanded="0" MZ.TrackTargeted="0">
											<enabled>TRUE</enabled>
											<locked>FALSE</locked>
										</track>
									</video>
									<audio>
										<numOutputChannels>2</numOutputChannels>
										<format>
											<samplecharacteristics>
												<depth>16</depth>
												<samplerate>44100</samplerate>
											</samplecharacteristics>
										</format>
										<outputs>
											<group>
												<index>1</index>
												<numchannels>1</numchannels>
												<downmix>0</downmix>
												<channel>
													<index>1</index>
												</channel>
											</group>
											<group>
												<index>2</index>
												<numchannels>1</numchannels>
												<downmix>0</downmix>
												<channel>
													<index>2</index>
												</channel>
											</group>
										</outputs>
										<track TL.SQTrackAudioKeyframeStyle="0" TL.SQTrackShy="0" TL.SQTrackExpandedHeight="25" TL.SQTrackExpanded="0" MZ.TrackTargeted="1" PannerCurrentValue="0.5" PannerIsInverted="true" PannerStartKeyframe="-91445760000000000,0.5,0,0,0,0,0,0" PannerName="Balance" currentExplodedTrackIndex="0" totalExplodedTrackCount="2" premiereTrackType="Stereo">
											<clipitem id="clipitem-1195" premiereChannelType="stereo">
												<masterclipid>masterclip-250</masterclipid>
												<name>SAT_asmr soap startseva_1m45s</name>
												<enabled>TRUE</enabled>
												<duration>9135</duration>
												<rate>
													<timebase>30</timebase>
													<ntsc>TRUE</ntsc>
												</rate>
												<start>0</start>
												<end>2315</end>
												<in>0</in>
												<out>2315</out>
												<pproTicksIn>0</pproTicksIn>
												<pproTicksOut>19621169568000</pproTicksOut>
												<sequence id="sequence-58"/>
												<sourcetrack>
													<mediatype>audio</mediatype>
													<trackindex>0</trackindex>
												</sourcetrack>
												<link>
													<linkclipref>clipitem-1193</linkclipref>
													<mediatype>video</mediatype>
													<trackindex>1</trackindex>
													<clipindex>1</clipindex>
												</link>
												<link>
													<linkclipref>clipitem-1195</linkclipref>
													<mediatype>audio</mediatype>
													<trackindex>1</trackindex>
													<clipindex>1</clipindex>
													<groupindex>1</groupindex>
												</link>
												<link>
													<linkclipref>clipitem-1197</linkclipref>
													<mediatype>audio</mediatype>
													<trackindex>2</trackindex>
													<clipindex>1</clipindex>
													<groupindex>1</groupindex>
												</link>
												<labels>
													<label2>Forest</label2>
												</labels>
											</clipitem>
											<clipitem id="clipitem-1196" premiereChannelType="stereo">
												<masterclipid>masterclip-251</masterclipid>
												<name>DIY_oil paint experts Crafty unbranded_1m45s</name>
												<enabled>TRUE</enabled>
												<duration>6427</duration>
												<rate>
													<timebase>30</timebase>
													<ntsc>TRUE</ntsc>
												</rate>
												<start>2397</start>
												<end>5549</end>
												<in>0</in>
												<out>3152</out>
												<pproTicksIn>0</pproTicksIn>
												<pproTicksOut>26715303014400</pproTicksOut>
												<sequence id="sequence-59"/>
												<sourcetrack>
													<mediatype>audio</mediatype>
													<trackindex>0</trackindex>
												</sourcetrack>
												<link>
													<linkclipref>clipitem-1194</linkclipref>
													<mediatype>video</mediatype>
													<trackindex>1</trackindex>
													<clipindex>2</clipindex>
												</link>
												<link>
													<linkclipref>clipitem-1196</linkclipref>
													<mediatype>audio</mediatype>
													<trackindex>1</trackindex>
													<clipindex>2</clipindex>
													<groupindex>1</groupindex>
												</link>
												<link>
													<linkclipref>clipitem-1198</linkclipref>
													<mediatype>audio</mediatype>
													<trackindex>2</trackindex>
													<clipindex>2</clipindex>
													<groupindex>1</groupindex>
												</link>
												<labels>
													<label2>Forest</label2>
												</labels>
											</clipitem>
											<enabled>TRUE</enabled>
											<locked>FALSE</locked>
											<outputchannelindex>1</outputchannelindex>
										</track>
										<track TL.SQTrackAudioKeyframeStyle="0" TL.SQTrackShy="0" TL.SQTrackExpandedHeight="25" TL.SQTrackExpanded="0" MZ.TrackTargeted="1" PannerCurrentValue="0.5" PannerIsInverted="true" PannerStartKeyframe="-91445760000000000,0.5,0,0,0,0,0,0" PannerName="Balance" currentExplodedTrackIndex="1" totalExplodedTrackCount="2" premiereTrackType="Stereo">
											<clipitem id="clipitem-1197" premiereChannelType="stereo">
												<masterclipid>masterclip-250</masterclipid>
												<name>SAT_asmr soap startseva_1m45s</name>
												<enabled>TRUE</enabled>
												<duration>9135</duration>
												<rate>
													<timebase>30</timebase>
													<ntsc>TRUE</ntsc>
												</rate>
												<start>0</start>
												<end>2315</end>
												<in>0</in>
												<out>2315</out>
												<pproTicksIn>0</pproTicksIn>
												<pproTicksOut>19621169568000</pproTicksOut>
												<sequence id="sequence-58"/>
												<sourcetrack>
													<mediatype>audio</mediatype>
													<trackindex>1</trackindex>
												</sourcetrack>
												<link>
													<linkclipref>clipitem-1193</linkclipref>
													<mediatype>video</mediatype>
													<trackindex>1</trackindex>
													<clipindex>1</clipindex>
												</link>
												<link>
													<linkclipref>clipitem-1195</linkclipref>
													<mediatype>audio</mediatype>
													<trackindex>1</trackindex>
													<clipindex>1</clipindex>
													<groupindex>1</groupindex>
												</link>
												<link>
													<linkclipref>clipitem-1197</linkclipref>
													<mediatype>audio</mediatype>
													<trackindex>2</trackindex>
													<clipindex>1</clipindex>
													<groupindex>1</groupindex>
												</link>
												<labels>
													<label2>Forest</label2>
												</labels>
											</clipitem>
											<clipitem id="clipitem-1198" premiereChannelType="stereo">
												<masterclipid>masterclip-251</masterclipid>
												<name>DIY_oil paint experts Crafty unbranded_1m45s</name>
												<enabled>TRUE</enabled>
												<duration>6427</duration>
												<rate>
													<timebase>30</timebase>
													<ntsc>TRUE</ntsc>
												</rate>
												<start>2397</start>
												<end>5549</end>
												<in>0</in>
												<out>3152</out>
												<pproTicksIn>0</pproTicksIn>
												<pproTicksOut>26715303014400</pproTicksOut>
												<sequence id="sequence-59"/>
												<sourcetrack>
													<mediatype>audio</mediatype>
													<trackindex>1</trackindex>
												</sourcetrack>
												<link>
													<linkclipref>clipitem-1194</linkclipref>
													<mediatype>video</mediatype>
													<trackindex>1</trackindex>
													<clipindex>2</clipindex>
												</link>
												<link>
													<linkclipref>clipitem-1196</linkclipref>
													<mediatype>audio</mediatype>
													<trackindex>1</trackindex>
													<clipindex>2</clipindex>
													<groupindex>1</groupindex>
												</link>
												<link>
													<linkclipref>clipitem-1198</linkclipref>
													<mediatype>audio</mediatype>
													<trackindex>2</trackindex>
													<clipindex>2</clipindex>
													<groupindex>1</groupindex>
												</link>
												<labels>
													<label2>Forest</label2>
												</labels>
											</clipitem>
											<enabled>TRUE</enabled>
											<locked>FALSE</locked>
											<outputchannelindex>2</outputchannelindex>
										</track>
										<track TL.SQTrackAudioKeyframeStyle="0" TL.SQTrackShy="0" TL.SQTrackExpandedHeight="25" TL.SQTrackExpanded="0" MZ.TrackTargeted="0" PannerCurrentValue="0.5" PannerIsInverted="true" PannerStartKeyframe="-91445760000000000,0.5,0,0,0,0,0,0" PannerName="Balance" currentExplodedTrackIndex="0" totalExplodedTrackCount="2" premiereTrackType="Stereo">
											<enabled>TRUE</enabled>
											<locked>FALSE</locked>
											<outputchannelindex>1</outputchannelindex>
										</track>
										<track TL.SQTrackAudioKeyframeStyle="0" TL.SQTrackShy="0" TL.SQTrackExpandedHeight="25" TL.SQTrackExpanded="0" MZ.TrackTargeted="0" PannerCurrentValue="0.5" PannerIsInverted="true" PannerStartKeyframe="-91445760000000000,0.5,0,0,0,0,0,0" PannerName="Balance" currentExplodedTrackIndex="1" totalExplodedTrackCount="2" premiereTrackType="Stereo">
											<enabled>TRUE</enabled>
											<locked>FALSE</locked>
											<outputchannelindex>2</outputchannelindex>
										</track>
									</audio>
								</media>
								<timecode>
									<rate>
										<timebase>30</timebase>
										<ntsc>TRUE</ntsc>
									</rate>
									<string>00:00:00:00</string>
									<frame>0</frame>
									<displayformat>NDF</displayformat>
								</timecode>
								<labels>
									<label2>Forest</label2>
								</labels>
								<logginginfo>
									<description></description>
									<scene></scene>
									<shottake></shottake>
									<lognote></lognote>
									<good></good>
									<originalvideofilename></originalvideofilename>
									<originalaudiofilename></originalaudiofilename>
								</logginginfo>
							</sequence>
							<sequence id="sequence-93" TL.SQAudioVisibleBase="0" TL.SQVideoVisibleBase="0" TL.SQVisibleBaseTime="0" TL.SQAVDividerPosition="0.5" TL.SQHideShyTracks="0" TL.SQHeaderWidth="236" TL.SQDataTrackViewControlState="0" Monitor.ProgramZoomOut="45861835219200" Monitor.ProgramZoomIn="0" TL.SQTimePerPixel="0.18083875408306113" AM.TrackVScrollPosition="0" AM.TrackScrollPosition="0" MZ.EditLine="35419813228800" MZ.Sequence.PreviewFrameSizeHeight="720" MZ.Sequence.PreviewFrameSizeWidth="1280" MZ.Sequence.AudioTimeDisplayFormat="200" MZ.Sequence.PreviewRenderingClassID="1297106761" MZ.Sequence.PreviewRenderingPresetCodec="1297107278" MZ.Sequence.PreviewRenderingPresetPath="EncoderPresets/SequencePreview/795454d9-d3c2-429d-9474-923ab13b7018/I-Frame Only MPEG.epr" MZ.Sequence.PreviewUseMaxRenderQuality="false" MZ.Sequence.PreviewUseMaxBitDepth="false" MZ.Sequence.EditingModeGUID="795454d9-d3c2-429d-9474-923ab13b7018" MZ.Sequence.VideoTimeDisplayFormat="103" MZ.WorkOutPoint="44471825798400" MZ.WorkInPoint="0" explodedTracks="true">
								<uuid>d7129ea1-062d-468e-8cd4-4a7c4729b4bc</uuid>
								<duration>5411</duration>
								<rate>
									<timebase>30</timebase>
									<ntsc>TRUE</ntsc>
								</rate>
								<name>formerlyATM_ODDLY SATISFYING_1549</name>
								<media>
									<video>
										<format>
											<samplecharacteristics>
												<rate>
													<timebase>30</timebase>
													<ntsc>TRUE</ntsc>
												</rate>
												<codec>
													<name>Apple ProRes 422</name>
													<appspecificdata>
														<appname>Final Cut Pro</appname>
														<appmanufacturer>Apple Inc.</appmanufacturer>
														<appversion>7.0</appversion>
														<data>
															<qtcodec>
																<codecname>Apple ProRes 422</codecname>
																<codectypename>Apple ProRes 422</codectypename>
																<codectypecode>apcn</codectypecode>
																<codecvendorcode>appl</codecvendorcode>
																<spatialquality>1024</spatialquality>
																<temporalquality>0</temporalquality>
																<keyframerate>0</keyframerate>
																<datarate>0</datarate>
															</qtcodec>
														</data>
													</appspecificdata>
												</codec>
												<width>1280</width>
												<height>720</height>
												<anamorphic>FALSE</anamorphic>
												<pixelaspectratio>square</pixelaspectratio>
												<fielddominance>none</fielddominance>
												<colordepth>24</colordepth>
											</samplecharacteristics>
										</format>
										<track TL.SQTrackShy="0" TL.SQTrackExpandedHeight="25" TL.SQTrackExpanded="0" MZ.TrackTargeted="1">
											<clipitem id="clipitem-1199">
												<masterclipid>masterclip-252</masterclipid>
												<name>DIY_WAW Creator_1m45s</name>
												<enabled>TRUE</enabled>
												<duration>3757</duration>
												<rate>
													<timebase>30</timebase>
													<ntsc>TRUE</ntsc>
												</rate>
												<start>0</start>
												<end>3209</end>
												<in>0</in>
												<out>3209</out>
												<pproTicksIn>0</pproTicksIn>
												<pproTicksOut>27198416044800</pproTicksOut>
												<sequence id="sequence-60"/>
												<filter>
													<effect>
														<name>Basic Motion</name>
														<effectid>basic</effectid>
														<effectcategory>motion</effectcategory>
														<effecttype>motion</effecttype>
														<mediatype>video</mediatype>
														<pproBypass>false</pproBypass>
														<parameter authoringApp="PremierePro">
															<parameterid>scale</parameterid>
															<name>Scale</name>
															<valuemin>0</valuemin>
															<valuemax>1000</valuemax>
															<value>66.6667</value>
														</parameter>
														<parameter authoringApp="PremierePro">
															<parameterid>rotation</parameterid>
															<name>Rotation</name>
															<valuemin>-8640</valuemin>
															<valuemax>8640</valuemax>
															<value>0</value>
														</parameter>
														<parameter authoringApp="PremierePro">
															<parameterid>center</parameterid>
															<name>Center</name>
															<value>
																<horiz>-0.5</horiz>
																<vert>-0.5</vert>
															</value>
														</parameter>
														<parameter authoringApp="PremierePro">
															<parameterid>centerOffset</parameterid>
															<name>Anchor Point</name>
															<value>
																<horiz>0</horiz>
																<vert>0</vert>
															</value>
														</parameter>
														<parameter authoringApp="PremierePro">
															<parameterid>antiflicker</parameterid>
															<name>Anti-flicker Filter</name>
															<valuemin>0.0</valuemin>
															<valuemax>1.0</valuemax>
															<value>0</value>
														</parameter>
													</effect>
												</filter>
												<link>
													<linkclipref>clipitem-1199</linkclipref>
													<mediatype>video</mediatype>
													<trackindex>1</trackindex>
													<clipindex>1</clipindex>
												</link>
												<link>
													<linkclipref>clipitem-1201</linkclipref>
													<mediatype>audio</mediatype>
													<trackindex>1</trackindex>
													<clipindex>1</clipindex>
													<groupindex>1</groupindex>
												</link>
												<link>
													<linkclipref>clipitem-1203</linkclipref>
													<mediatype>audio</mediatype>
													<trackindex>2</trackindex>
													<clipindex>1</clipindex>
													<groupindex>1</groupindex>
												</link>
												<labels>
													<label2>Forest</label2>
												</labels>
											</clipitem>
											<clipitem id="clipitem-1200">
												<masterclipid>masterclip-253</masterclipid>
												<name>DIGART_tas visuals_1m15s</name>
												<enabled>TRUE</enabled>
												<duration>6915</duration>
												<rate>
													<timebase>30</timebase>
													<ntsc>TRUE</ntsc>
												</rate>
												<start>3373</start>
												<end>-1</end>
												<in>0</in>
												<out>2038</out>
												<pproTicksIn>0</pproTicksIn>
												<pproTicksOut>17273409753600</pproTicksOut>
												<sequence id="sequence-61"/>
												<filter>
													<effect>
														<name>Basic Motion</name>
														<effectid>basic</effectid>
														<effectcategory>motion</effectcategory>
														<effecttype>motion</effecttype>
														<mediatype>video</mediatype>
														<pproBypass>false</pproBypass>
														<parameter authoringApp="PremierePro">
															<parameterid>scale</parameterid>
															<name>Scale</name>
															<valuemin>0</valuemin>
															<valuemax>1000</valuemax>
															<value>66.6667</value>
														</parameter>
														<parameter authoringApp="PremierePro">
															<parameterid>rotation</parameterid>
															<name>Rotation</name>
															<valuemin>-8640</valuemin>
															<valuemax>8640</valuemax>
															<value>0</value>
														</parameter>
														<parameter authoringApp="PremierePro">
															<parameterid>center</parameterid>
															<name>Center</name>
															<value>
																<horiz>-0.5</horiz>
																<vert>-0.5</vert>
															</value>
														</parameter>
														<parameter authoringApp="PremierePro">
															<parameterid>centerOffset</parameterid>
															<name>Anchor Point</name>
															<value>
																<horiz>0</horiz>
																<vert>0</vert>
															</value>
														</parameter>
														<parameter authoringApp="PremierePro">
															<parameterid>antiflicker</parameterid>
															<name>Anti-flicker Filter</name>
															<valuemin>0.0</valuemin>
															<valuemax>1.0</valuemax>
															<value>0</value>
														</parameter>
													</effect>
												</filter>
												<link>
													<linkclipref>clipitem-1200</linkclipref>
													<mediatype>video</mediatype>
													<trackindex>1</trackindex>
													<clipindex>2</clipindex>
												</link>
												<link>
													<linkclipref>clipitem-1202</linkclipref>
													<mediatype>audio</mediatype>
													<trackindex>1</trackindex>
													<clipindex>2</clipindex>
													<groupindex>1</groupindex>
												</link>
												<link>
													<linkclipref>clipitem-1204</linkclipref>
													<mediatype>audio</mediatype>
													<trackindex>2</trackindex>
													<clipindex>2</clipindex>
													<groupindex>1</groupindex>
												</link>
												<labels>
													<label2>Forest</label2>
												</labels>
											</clipitem>
											<transitionitem>
												<start>5381</start>
												<end>5411</end>
												<alignment>end-black</alignment>
												<cutPointTicks>254270016000</cutPointTicks>
												<rate>
													<timebase>30</timebase>
													<ntsc>TRUE</ntsc>
												</rate>
												<effect>
													<name>Cross Dissolve</name>
													<effectid>Cross Dissolve</effectid>
													<effectcategory>Dissolve</effectcategory>
													<effecttype>transition</effecttype>
													<mediatype>video</mediatype>
													<wipecode>0</wipecode>
													<wipeaccuracy>100</wipeaccuracy>
													<startratio>0</startratio>
													<endratio>1</endratio>
													<reverse>FALSE</reverse>
												</effect>
											</transitionitem>
											<enabled>TRUE</enabled>
											<locked>FALSE</locked>
										</track>
										<track TL.SQTrackShy="0" TL.SQTrackExpandedHeight="25" TL.SQTrackExpanded="0" MZ.TrackTargeted="0">
											<enabled>TRUE</enabled>
											<locked>FALSE</locked>
										</track>
									</video>
									<audio>
										<numOutputChannels>2</numOutputChannels>
										<format>
											<samplecharacteristics>
												<depth>16</depth>
												<samplerate>44100</samplerate>
											</samplecharacteristics>
										</format>
										<outputs>
											<group>
												<index>1</index>
												<numchannels>1</numchannels>
												<downmix>0</downmix>
												<channel>
													<index>1</index>
												</channel>
											</group>
											<group>
												<index>2</index>
												<numchannels>1</numchannels>
												<downmix>0</downmix>
												<channel>
													<index>2</index>
												</channel>
											</group>
										</outputs>
										<track TL.SQTrackAudioKeyframeStyle="0" TL.SQTrackShy="0" TL.SQTrackExpandedHeight="25" TL.SQTrackExpanded="0" MZ.TrackTargeted="1" PannerCurrentValue="0.5" PannerIsInverted="true" PannerStartKeyframe="-91445760000000000,0.5,0,0,0,0,0,0" PannerName="Balance" currentExplodedTrackIndex="0" totalExplodedTrackCount="2" premiereTrackType="Stereo">
											<clipitem id="clipitem-1201" premiereChannelType="stereo">
												<masterclipid>masterclip-252</masterclipid>
												<name>DIY_WAW Creator_1m45s</name>
												<enabled>TRUE</enabled>
												<duration>3757</duration>
												<rate>
													<timebase>30</timebase>
													<ntsc>TRUE</ntsc>
												</rate>
												<start>0</start>
												<end>3209</end>
												<in>0</in>
												<out>3209</out>
												<pproTicksIn>0</pproTicksIn>
												<pproTicksOut>27198416044800</pproTicksOut>
												<sequence id="sequence-60"/>
												<sourcetrack>
													<mediatype>audio</mediatype>
													<trackindex>0</trackindex>
												</sourcetrack>
												<link>
													<linkclipref>clipitem-1199</linkclipref>
													<mediatype>video</mediatype>
													<trackindex>1</trackindex>
													<clipindex>1</clipindex>
												</link>
												<link>
													<linkclipref>clipitem-1201</linkclipref>
													<mediatype>audio</mediatype>
													<trackindex>1</trackindex>
													<clipindex>1</clipindex>
													<groupindex>1</groupindex>
												</link>
												<link>
													<linkclipref>clipitem-1203</linkclipref>
													<mediatype>audio</mediatype>
													<trackindex>2</trackindex>
													<clipindex>1</clipindex>
													<groupindex>1</groupindex>
												</link>
												<labels>
													<label2>Forest</label2>
												</labels>
											</clipitem>
											<clipitem id="clipitem-1202" premiereChannelType="stereo">
												<masterclipid>masterclip-253</masterclipid>
												<name>DIGART_tas visuals_1m15s</name>
												<enabled>TRUE</enabled>
												<duration>6915</duration>
												<rate>
													<timebase>30</timebase>
													<ntsc>TRUE</ntsc>
												</rate>
												<start>3373</start>
												<end>5411</end>
												<in>0</in>
												<out>2038</out>
												<pproTicksIn>0</pproTicksIn>
												<pproTicksOut>17273409753600</pproTicksOut>
												<sequence id="sequence-61"/>
												<sourcetrack>
													<mediatype>audio</mediatype>
													<trackindex>0</trackindex>
												</sourcetrack>
												<link>
													<linkclipref>clipitem-1200</linkclipref>
													<mediatype>video</mediatype>
													<trackindex>1</trackindex>
													<clipindex>2</clipindex>
												</link>
												<link>
													<linkclipref>clipitem-1202</linkclipref>
													<mediatype>audio</mediatype>
													<trackindex>1</trackindex>
													<clipindex>2</clipindex>
													<groupindex>1</groupindex>
												</link>
												<link>
													<linkclipref>clipitem-1204</linkclipref>
													<mediatype>audio</mediatype>
													<trackindex>2</trackindex>
													<clipindex>2</clipindex>
													<groupindex>1</groupindex>
												</link>
												<labels>
													<label2>Forest</label2>
												</labels>
											</clipitem>
											<enabled>TRUE</enabled>
											<locked>FALSE</locked>
											<outputchannelindex>1</outputchannelindex>
										</track>
										<track TL.SQTrackAudioKeyframeStyle="0" TL.SQTrackShy="0" TL.SQTrackExpandedHeight="25" TL.SQTrackExpanded="0" MZ.TrackTargeted="1" PannerCurrentValue="0.5" PannerIsInverted="true" PannerStartKeyframe="-91445760000000000,0.5,0,0,0,0,0,0" PannerName="Balance" currentExplodedTrackIndex="1" totalExplodedTrackCount="2" premiereTrackType="Stereo">
											<clipitem id="clipitem-1203" premiereChannelType="stereo">
												<masterclipid>masterclip-252</masterclipid>
												<name>DIY_WAW Creator_1m45s</name>
												<enabled>TRUE</enabled>
												<duration>3757</duration>
												<rate>
													<timebase>30</timebase>
													<ntsc>TRUE</ntsc>
												</rate>
												<start>0</start>
												<end>3209</end>
												<in>0</in>
												<out>3209</out>
												<pproTicksIn>0</pproTicksIn>
												<pproTicksOut>27198416044800</pproTicksOut>
												<sequence id="sequence-60"/>
												<sourcetrack>
													<mediatype>audio</mediatype>
													<trackindex>1</trackindex>
												</sourcetrack>
												<link>
													<linkclipref>clipitem-1199</linkclipref>
													<mediatype>video</mediatype>
													<trackindex>1</trackindex>
													<clipindex>1</clipindex>
												</link>
												<link>
													<linkclipref>clipitem-1201</linkclipref>
													<mediatype>audio</mediatype>
													<trackindex>1</trackindex>
													<clipindex>1</clipindex>
													<groupindex>1</groupindex>
												</link>
												<link>
													<linkclipref>clipitem-1203</linkclipref>
													<mediatype>audio</mediatype>
													<trackindex>2</trackindex>
													<clipindex>1</clipindex>
													<groupindex>1</groupindex>
												</link>
												<labels>
													<label2>Forest</label2>
												</labels>
											</clipitem>
											<clipitem id="clipitem-1204" premiereChannelType="stereo">
												<masterclipid>masterclip-253</masterclipid>
												<name>DIGART_tas visuals_1m15s</name>
												<enabled>TRUE</enabled>
												<duration>6915</duration>
												<rate>
													<timebase>30</timebase>
													<ntsc>TRUE</ntsc>
												</rate>
												<start>3373</start>
												<end>5411</end>
												<in>0</in>
												<out>2038</out>
												<pproTicksIn>0</pproTicksIn>
												<pproTicksOut>17273409753600</pproTicksOut>
												<sequence id="sequence-61"/>
												<sourcetrack>
													<mediatype>audio</mediatype>
													<trackindex>1</trackindex>
												</sourcetrack>
												<link>
													<linkclipref>clipitem-1200</linkclipref>
													<mediatype>video</mediatype>
													<trackindex>1</trackindex>
													<clipindex>2</clipindex>
												</link>
												<link>
													<linkclipref>clipitem-1202</linkclipref>
													<mediatype>audio</mediatype>
													<trackindex>1</trackindex>
													<clipindex>2</clipindex>
													<groupindex>1</groupindex>
												</link>
												<link>
													<linkclipref>clipitem-1204</linkclipref>
													<mediatype>audio</mediatype>
													<trackindex>2</trackindex>
													<clipindex>2</clipindex>
													<groupindex>1</groupindex>
												</link>
												<labels>
													<label2>Forest</label2>
												</labels>
											</clipitem>
											<enabled>TRUE</enabled>
											<locked>FALSE</locked>
											<outputchannelindex>2</outputchannelindex>
										</track>
										<track TL.SQTrackAudioKeyframeStyle="0" TL.SQTrackShy="0" TL.SQTrackExpandedHeight="25" TL.SQTrackExpanded="0" MZ.TrackTargeted="0" PannerCurrentValue="0.5" PannerIsInverted="true" PannerStartKeyframe="-91445760000000000,0.5,0,0,0,0,0,0" PannerName="Balance" currentExplodedTrackIndex="0" totalExplodedTrackCount="2" premiereTrackType="Stereo">
											<enabled>TRUE</enabled>
											<locked>FALSE</locked>
											<outputchannelindex>1</outputchannelindex>
										</track>
										<track TL.SQTrackAudioKeyframeStyle="0" TL.SQTrackShy="0" TL.SQTrackExpandedHeight="25" TL.SQTrackExpanded="0" MZ.TrackTargeted="0" PannerCurrentValue="0.5" PannerIsInverted="true" PannerStartKeyframe="-91445760000000000,0.5,0,0,0,0,0,0" PannerName="Balance" currentExplodedTrackIndex="1" totalExplodedTrackCount="2" premiereTrackType="Stereo">
											<enabled>TRUE</enabled>
											<locked>FALSE</locked>
											<outputchannelindex>2</outputchannelindex>
										</track>
									</audio>
								</media>
								<timecode>
									<rate>
										<timebase>30</timebase>
										<ntsc>TRUE</ntsc>
									</rate>
									<string>00:00:00:00</string>
									<frame>0</frame>
									<displayformat>NDF</displayformat>
								</timecode>
								<labels>
									<label2>Forest</label2>
								</labels>
								<logginginfo>
									<description></description>
									<scene></scene>
									<shottake></shottake>
									<lognote></lognote>
									<good></good>
									<originalvideofilename></originalvideofilename>
									<originalaudiofilename></originalaudiofilename>
								</logginginfo>
							</sequence>
							<sequence id="sequence-94" TL.SQAudioVisibleBase="0" TL.SQVideoVisibleBase="0" TL.SQVisibleBaseTime="0" TL.SQAVDividerPosition="0.5" TL.SQHideShyTracks="0" TL.SQHeaderWidth="236" TL.SQDataTrackViewControlState="0" Monitor.ProgramZoomOut="48040081689600" Monitor.ProgramZoomIn="0" TL.SQTimePerPixel="0.090789166277803701" AM.TrackVScrollPosition="0" AM.TrackScrollPosition="0" MZ.EditLine="28207020441600" MZ.Sequence.PreviewFrameSizeHeight="720" MZ.Sequence.PreviewFrameSizeWidth="1280" MZ.Sequence.AudioTimeDisplayFormat="200" MZ.Sequence.PreviewRenderingClassID="1297106761" MZ.Sequence.PreviewRenderingPresetCodec="1297107278" MZ.Sequence.PreviewRenderingPresetPath="EncoderPresets/SequencePreview/795454d9-d3c2-429d-9474-923ab13b7018/I-Frame Only MPEG.epr" MZ.Sequence.PreviewUseMaxRenderQuality="false" MZ.Sequence.PreviewUseMaxBitDepth="false" MZ.Sequence.EditingModeGUID="795454d9-d3c2-429d-9474-923ab13b7018" MZ.Sequence.VideoTimeDisplayFormat="103" MZ.WorkOutPoint="45277014182400" MZ.WorkInPoint="0" explodedTracks="true">
								<uuid>2f74382b-7177-4ee2-b2ee-833e2101aa81</uuid>
								<duration>5668</duration>
								<rate>
									<timebase>30</timebase>
									<ntsc>TRUE</ntsc>
								</rate>
								<name>formerlyATM_ODDLY SATISFYING_1550</name>
								<media>
									<video>
										<format>
											<samplecharacteristics>
												<rate>
													<timebase>30</timebase>
													<ntsc>TRUE</ntsc>
												</rate>
												<codec>
													<name>Apple ProRes 422</name>
													<appspecificdata>
														<appname>Final Cut Pro</appname>
														<appmanufacturer>Apple Inc.</appmanufacturer>
														<appversion>7.0</appversion>
														<data>
															<qtcodec>
																<codecname>Apple ProRes 422</codecname>
																<codectypename>Apple ProRes 422</codectypename>
																<codectypecode>apcn</codectypecode>
																<codecvendorcode>appl</codecvendorcode>
																<spatialquality>1024</spatialquality>
																<temporalquality>0</temporalquality>
																<keyframerate>0</keyframerate>
																<datarate>0</datarate>
															</qtcodec>
														</data>
													</appspecificdata>
												</codec>
												<width>1280</width>
												<height>720</height>
												<anamorphic>FALSE</anamorphic>
												<pixelaspectratio>square</pixelaspectratio>
												<fielddominance>none</fielddominance>
												<colordepth>24</colordepth>
											</samplecharacteristics>
										</format>
										<track TL.SQTrackShy="0" TL.SQTrackExpandedHeight="25" TL.SQTrackExpanded="0" MZ.TrackTargeted="1">
											<clipitem id="clipitem-1205">
												<masterclipid>masterclip-254</masterclipid>
												<name>SCI_czferro_1.5</name>
												<enabled>TRUE</enabled>
												<duration>7911</duration>
												<rate>
													<timebase>30</timebase>
													<ntsc>TRUE</ntsc>
												</rate>
												<start>0</start>
												<end>2351</end>
												<in>0</in>
												<out>2351</out>
												<pproTicksIn>0</pproTicksIn>
												<pproTicksOut>19926293587200</pproTicksOut>
												<sequence id="sequence-62"/>
												<filter>
													<effect>
														<name>Basic Motion</name>
														<effectid>basic</effectid>
														<effectcategory>motion</effectcategory>
														<effecttype>motion</effecttype>
														<mediatype>video</mediatype>
														<pproBypass>false</pproBypass>
														<parameter authoringApp="PremierePro">
															<parameterid>scale</parameterid>
															<name>Scale</name>
															<valuemin>0</valuemin>
															<valuemax>1000</valuemax>
															<value>66.6667</value>
														</parameter>
														<parameter authoringApp="PremierePro">
															<parameterid>rotation</parameterid>
															<name>Rotation</name>
															<valuemin>-8640</valuemin>
															<valuemax>8640</valuemax>
															<value>0</value>
														</parameter>
														<parameter authoringApp="PremierePro">
															<parameterid>center</parameterid>
															<name>Center</name>
															<value>
																<horiz>-0.5</horiz>
																<vert>-0.5</vert>
															</value>
														</parameter>
														<parameter authoringApp="PremierePro">
															<parameterid>centerOffset</parameterid>
															<name>Anchor Point</name>
															<value>
																<horiz>0</horiz>
																<vert>0</vert>
															</value>
														</parameter>
														<parameter authoringApp="PremierePro">
															<parameterid>antiflicker</parameterid>
															<name>Anti-flicker Filter</name>
															<valuemin>0.0</valuemin>
															<valuemax>1.0</valuemax>
															<value>0</value>
														</parameter>
													</effect>
												</filter>
												<link>
													<linkclipref>clipitem-1205</linkclipref>
													<mediatype>video</mediatype>
													<trackindex>1</trackindex>
													<clipindex>1</clipindex>
												</link>
												<link>
													<linkclipref>clipitem-1208</linkclipref>
													<mediatype>audio</mediatype>
													<trackindex>1</trackindex>
													<clipindex>1</clipindex>
													<groupindex>1</groupindex>
												</link>
												<link>
													<linkclipref>clipitem-1211</linkclipref>
													<mediatype>audio</mediatype>
													<trackindex>2</trackindex>
													<clipindex>1</clipindex>
													<groupindex>1</groupindex>
												</link>
												<labels>
													<label2>Forest</label2>
												</labels>
											</clipitem>
											<clipitem id="clipitem-1206">
												<masterclipid>masterclip-255</masterclipid>
												<name>DIY_ modfoxwatercolors_1m40s</name>
												<enabled>TRUE</enabled>
												<duration>5503</duration>
												<rate>
													<timebase>30</timebase>
													<ntsc>TRUE</ntsc>
												</rate>
												<start>2378</start>
												<end>5369</end>
												<in>0</in>
												<out>2991</out>
												<pproTicksIn>0</pproTicksIn>
												<pproTicksOut>25350720595200</pproTicksOut>
												<sequence id="sequence-63"/>
												<filter>
													<effect>
														<name>Basic Motion</name>
														<effectid>basic</effectid>
														<effectcategory>motion</effectcategory>
														<effecttype>motion</effecttype>
														<mediatype>video</mediatype>
														<pproBypass>false</pproBypass>
														<parameter authoringApp="PremierePro">
															<parameterid>scale</parameterid>
															<name>Scale</name>
															<valuemin>0</valuemin>
															<valuemax>1000</valuemax>
															<value>66.6667</value>
														</parameter>
														<parameter authoringApp="PremierePro">
															<parameterid>rotation</parameterid>
															<name>Rotation</name>
															<valuemin>-8640</valuemin>
															<valuemax>8640</valuemax>
															<value>0</value>
														</parameter>
														<parameter authoringApp="PremierePro">
															<parameterid>center</parameterid>
															<name>Center</name>
															<value>
																<horiz>-0.5</horiz>
																<vert>-0.5</vert>
															</value>
														</parameter>
														<parameter authoringApp="PremierePro">
															<parameterid>centerOffset</parameterid>
															<name>Anchor Point</name>
															<value>
																<horiz>0</horiz>
																<vert>0</vert>
															</value>
														</parameter>
														<parameter authoringApp="PremierePro">
															<parameterid>antiflicker</parameterid>
															<name>Anti-flicker Filter</name>
															<valuemin>0.0</valuemin>
															<valuemax>1.0</valuemax>
															<value>0</value>
														</parameter>
													</effect>
												</filter>
												<link>
													<linkclipref>clipitem-1206</linkclipref>
													<mediatype>video</mediatype>
													<trackindex>1</trackindex>
													<clipindex>2</clipindex>
												</link>
												<link>
													<linkclipref>clipitem-1209</linkclipref>
													<mediatype>audio</mediatype>
													<trackindex>1</trackindex>
													<clipindex>2</clipindex>
													<groupindex>1</groupindex>
												</link>
												<link>
													<linkclipref>clipitem-1212</linkclipref>
													<mediatype>audio</mediatype>
													<trackindex>2</trackindex>
													<clipindex>2</clipindex>
													<groupindex>1</groupindex>
												</link>
												<labels>
													<label2>Forest</label2>
												</labels>
											</clipitem>
											<clipitem id="clipitem-1207">
												<masterclipid>masterclip-222</masterclipid>
												<name>02_TFWnest</name>
												<enabled>TRUE</enabled>
												<duration>299</duration>
												<rate>
													<timebase>30</timebase>
													<ntsc>TRUE</ntsc>
												</rate>
												<start>5369</start>
												<end>5668</end>
												<in>0</in>
												<out>299</out>
												<pproTicksIn>0</pproTicksIn>
												<pproTicksOut>2534224492800</pproTicksOut>
												<sequence id="sequence-3"/>
												<filter>
													<effect>
														<name>Basic Motion</name>
														<effectid>basic</effectid>
														<effectcategory>motion</effectcategory>
														<effecttype>motion</effecttype>
														<mediatype>video</mediatype>
														<pproBypass>false</pproBypass>
														<parameter authoringApp="PremierePro">
															<parameterid>scale</parameterid>
															<name>Scale</name>
															<valuemin>0</valuemin>
															<valuemax>1000</valuemax>
															<value>66.6667</value>
														</parameter>
														<parameter authoringApp="PremierePro">
															<parameterid>rotation</parameterid>
															<name>Rotation</name>
															<valuemin>-8640</valuemin>
															<valuemax>8640</valuemax>
															<value>0</value>
														</parameter>
														<parameter authoringApp="PremierePro">
															<parameterid>center</parameterid>
															<name>Center</name>
															<value>
																<horiz>-0.5</horiz>
																<vert>-0.5</vert>
															</value>
														</parameter>
														<parameter authoringApp="PremierePro">
															<parameterid>centerOffset</parameterid>
															<name>Anchor Point</name>
															<value>
																<horiz>0</horiz>
																<vert>0</vert>
															</value>
														</parameter>
														<parameter authoringApp="PremierePro">
															<parameterid>antiflicker</parameterid>
															<name>Anti-flicker Filter</name>
															<valuemin>0.0</valuemin>
															<valuemax>1.0</valuemax>
															<value>0</value>
														</parameter>
													</effect>
												</filter>
												<link>
													<linkclipref>clipitem-1207</linkclipref>
													<mediatype>video</mediatype>
													<trackindex>1</trackindex>
													<clipindex>3</clipindex>
												</link>
												<link>
													<linkclipref>clipitem-1210</linkclipref>
													<mediatype>audio</mediatype>
													<trackindex>1</trackindex>
													<clipindex>3</clipindex>
													<groupindex>1</groupindex>
												</link>
												<link>
													<linkclipref>clipitem-1213</linkclipref>
													<mediatype>audio</mediatype>
													<trackindex>2</trackindex>
													<clipindex>3</clipindex>
													<groupindex>1</groupindex>
												</link>
												<labels>
													<label2>Yellow</label2>
												</labels>
											</clipitem>
											<enabled>TRUE</enabled>
											<locked>FALSE</locked>
										</track>
										<track TL.SQTrackShy="0" TL.SQTrackExpandedHeight="25" TL.SQTrackExpanded="0" MZ.TrackTargeted="0">
											<enabled>TRUE</enabled>
											<locked>FALSE</locked>
										</track>
									</video>
									<audio>
										<numOutputChannels>2</numOutputChannels>
										<format>
											<samplecharacteristics>
												<depth>16</depth>
												<samplerate>44100</samplerate>
											</samplecharacteristics>
										</format>
										<outputs>
											<group>
												<index>1</index>
												<numchannels>1</numchannels>
												<downmix>0</downmix>
												<channel>
													<index>1</index>
												</channel>
											</group>
											<group>
												<index>2</index>
												<numchannels>1</numchannels>
												<downmix>0</downmix>
												<channel>
													<index>2</index>
												</channel>
											</group>
										</outputs>
										<track TL.SQTrackAudioKeyframeStyle="0" TL.SQTrackShy="0" TL.SQTrackExpandedHeight="25" TL.SQTrackExpanded="0" MZ.TrackTargeted="1" PannerCurrentValue="0.5" PannerIsInverted="true" PannerStartKeyframe="-91445760000000000,0.5,0,0,0,0,0,0" PannerName="Balance" currentExplodedTrackIndex="0" totalExplodedTrackCount="2" premiereTrackType="Stereo">
											<clipitem id="clipitem-1208" premiereChannelType="stereo">
												<masterclipid>masterclip-254</masterclipid>
												<name>SCI_czferro_1.5</name>
												<enabled>TRUE</enabled>
												<duration>7911</duration>
												<rate>
													<timebase>30</timebase>
													<ntsc>TRUE</ntsc>
												</rate>
												<start>0</start>
												<end>2351</end>
												<in>0</in>
												<out>2351</out>
												<pproTicksIn>0</pproTicksIn>
												<pproTicksOut>19926293587200</pproTicksOut>
												<sequence id="sequence-62"/>
												<sourcetrack>
													<mediatype>audio</mediatype>
													<trackindex>0</trackindex>
												</sourcetrack>
												<link>
													<linkclipref>clipitem-1205</linkclipref>
													<mediatype>video</mediatype>
													<trackindex>1</trackindex>
													<clipindex>1</clipindex>
												</link>
												<link>
													<linkclipref>clipitem-1208</linkclipref>
													<mediatype>audio</mediatype>
													<trackindex>1</trackindex>
													<clipindex>1</clipindex>
													<groupindex>1</groupindex>
												</link>
												<link>
													<linkclipref>clipitem-1211</linkclipref>
													<mediatype>audio</mediatype>
													<trackindex>2</trackindex>
													<clipindex>1</clipindex>
													<groupindex>1</groupindex>
												</link>
												<labels>
													<label2>Forest</label2>
												</labels>
											</clipitem>
											<clipitem id="clipitem-1209" premiereChannelType="stereo">
												<masterclipid>masterclip-255</masterclipid>
												<name>DIY_ modfoxwatercolors_1m40s</name>
												<enabled>TRUE</enabled>
												<duration>5503</duration>
												<rate>
													<timebase>30</timebase>
													<ntsc>TRUE</ntsc>
												</rate>
												<start>2378</start>
												<end>5369</end>
												<in>0</in>
												<out>2991</out>
												<pproTicksIn>0</pproTicksIn>
												<pproTicksOut>25350720595200</pproTicksOut>
												<sequence id="sequence-63"/>
												<sourcetrack>
													<mediatype>audio</mediatype>
													<trackindex>0</trackindex>
												</sourcetrack>
												<link>
													<linkclipref>clipitem-1206</linkclipref>
													<mediatype>video</mediatype>
													<trackindex>1</trackindex>
													<clipindex>2</clipindex>
												</link>
												<link>
													<linkclipref>clipitem-1209</linkclipref>
													<mediatype>audio</mediatype>
													<trackindex>1</trackindex>
													<clipindex>2</clipindex>
													<groupindex>1</groupindex>
												</link>
												<link>
													<linkclipref>clipitem-1212</linkclipref>
													<mediatype>audio</mediatype>
													<trackindex>2</trackindex>
													<clipindex>2</clipindex>
													<groupindex>1</groupindex>
												</link>
												<labels>
													<label2>Forest</label2>
												</labels>
											</clipitem>
											<clipitem id="clipitem-1210" premiereChannelType="stereo">
												<masterclipid>masterclip-222</masterclipid>
												<name>02_TFWnest</name>
												<enabled>TRUE</enabled>
												<duration>299</duration>
												<rate>
													<timebase>30</timebase>
													<ntsc>TRUE</ntsc>
												</rate>
												<start>5369</start>
												<end>5668</end>
												<in>0</in>
												<out>299</out>
												<pproTicksIn>0</pproTicksIn>
												<pproTicksOut>2534224492800</pproTicksOut>
												<sequence id="sequence-3"/>
												<sourcetrack>
													<mediatype>audio</mediatype>
													<trackindex>0</trackindex>
												</sourcetrack>
												<link>
													<linkclipref>clipitem-1207</linkclipref>
													<mediatype>video</mediatype>
													<trackindex>1</trackindex>
													<clipindex>3</clipindex>
												</link>
												<link>
													<linkclipref>clipitem-1210</linkclipref>
													<mediatype>audio</mediatype>
													<trackindex>1</trackindex>
													<clipindex>3</clipindex>
													<groupindex>1</groupindex>
												</link>
												<link>
													<linkclipref>clipitem-1213</linkclipref>
													<mediatype>audio</mediatype>
													<trackindex>2</trackindex>
													<clipindex>3</clipindex>
													<groupindex>1</groupindex>
												</link>
												<labels>
													<label2>Yellow</label2>
												</labels>
											</clipitem>
											<enabled>TRUE</enabled>
											<locked>FALSE</locked>
											<outputchannelindex>1</outputchannelindex>
										</track>
										<track TL.SQTrackAudioKeyframeStyle="0" TL.SQTrackShy="0" TL.SQTrackExpandedHeight="25" TL.SQTrackExpanded="0" MZ.TrackTargeted="1" PannerCurrentValue="0.5" PannerIsInverted="true" PannerStartKeyframe="-91445760000000000,0.5,0,0,0,0,0,0" PannerName="Balance" currentExplodedTrackIndex="1" totalExplodedTrackCount="2" premiereTrackType="Stereo">
											<clipitem id="clipitem-1211" premiereChannelType="stereo">
												<masterclipid>masterclip-254</masterclipid>
												<name>SCI_czferro_1.5</name>
												<enabled>TRUE</enabled>
												<duration>7911</duration>
												<rate>
													<timebase>30</timebase>
													<ntsc>TRUE</ntsc>
												</rate>
												<start>0</start>
												<end>2351</end>
												<in>0</in>
												<out>2351</out>
												<pproTicksIn>0</pproTicksIn>
												<pproTicksOut>19926293587200</pproTicksOut>
												<sequence id="sequence-62"/>
												<sourcetrack>
													<mediatype>audio</mediatype>
													<trackindex>1</trackindex>
												</sourcetrack>
												<link>
													<linkclipref>clipitem-1205</linkclipref>
													<mediatype>video</mediatype>
													<trackindex>1</trackindex>
													<clipindex>1</clipindex>
												</link>
												<link>
													<linkclipref>clipitem-1208</linkclipref>
													<mediatype>audio</mediatype>
													<trackindex>1</trackindex>
													<clipindex>1</clipindex>
													<groupindex>1</groupindex>
												</link>
												<link>
													<linkclipref>clipitem-1211</linkclipref>
													<mediatype>audio</mediatype>
													<trackindex>2</trackindex>
													<clipindex>1</clipindex>
													<groupindex>1</groupindex>
												</link>
												<labels>
													<label2>Forest</label2>
												</labels>
											</clipitem>
											<clipitem id="clipitem-1212" premiereChannelType="stereo">
												<masterclipid>masterclip-255</masterclipid>
												<name>DIY_ modfoxwatercolors_1m40s</name>
												<enabled>TRUE</enabled>
												<duration>5503</duration>
												<rate>
													<timebase>30</timebase>
													<ntsc>TRUE</ntsc>
												</rate>
												<start>2378</start>
												<end>5369</end>
												<in>0</in>
												<out>2991</out>
												<pproTicksIn>0</pproTicksIn>
												<pproTicksOut>25350720595200</pproTicksOut>
												<sequence id="sequence-63"/>
												<sourcetrack>
													<mediatype>audio</mediatype>
													<trackindex>1</trackindex>
												</sourcetrack>
												<link>
													<linkclipref>clipitem-1206</linkclipref>
													<mediatype>video</mediatype>
													<trackindex>1</trackindex>
													<clipindex>2</clipindex>
												</link>
												<link>
													<linkclipref>clipitem-1209</linkclipref>
													<mediatype>audio</mediatype>
													<trackindex>1</trackindex>
													<clipindex>2</clipindex>
													<groupindex>1</groupindex>
												</link>
												<link>
													<linkclipref>clipitem-1212</linkclipref>
													<mediatype>audio</mediatype>
													<trackindex>2</trackindex>
													<clipindex>2</clipindex>
													<groupindex>1</groupindex>
												</link>
												<labels>
													<label2>Forest</label2>
												</labels>
											</clipitem>
											<clipitem id="clipitem-1213" premiereChannelType="stereo">
												<masterclipid>masterclip-222</masterclipid>
												<name>02_TFWnest</name>
												<enabled>TRUE</enabled>
												<duration>299</duration>
												<rate>
													<timebase>30</timebase>
													<ntsc>TRUE</ntsc>
												</rate>
												<start>5369</start>
												<end>5668</end>
												<in>0</in>
												<out>299</out>
												<pproTicksIn>0</pproTicksIn>
												<pproTicksOut>2534224492800</pproTicksOut>
												<sequence id="sequence-3"/>
												<sourcetrack>
													<mediatype>audio</mediatype>
													<trackindex>1</trackindex>
												</sourcetrack>
												<link>
													<linkclipref>clipitem-1207</linkclipref>
													<mediatype>video</mediatype>
													<trackindex>1</trackindex>
													<clipindex>3</clipindex>
												</link>
												<link>
													<linkclipref>clipitem-1210</linkclipref>
													<mediatype>audio</mediatype>
													<trackindex>1</trackindex>
													<clipindex>3</clipindex>
													<groupindex>1</groupindex>
												</link>
												<link>
													<linkclipref>clipitem-1213</linkclipref>
													<mediatype>audio</mediatype>
													<trackindex>2</trackindex>
													<clipindex>3</clipindex>
													<groupindex>1</groupindex>
												</link>
												<labels>
													<label2>Yellow</label2>
												</labels>
											</clipitem>
											<enabled>TRUE</enabled>
											<locked>FALSE</locked>
											<outputchannelindex>2</outputchannelindex>
										</track>
										<track TL.SQTrackAudioKeyframeStyle="0" TL.SQTrackShy="0" TL.SQTrackExpandedHeight="25" TL.SQTrackExpanded="0" MZ.TrackTargeted="0" PannerCurrentValue="0.5" PannerIsInverted="true" PannerStartKeyframe="-91445760000000000,0.5,0,0,0,0,0,0" PannerName="Balance" currentExplodedTrackIndex="0" totalExplodedTrackCount="2" premiereTrackType="Stereo">
											<enabled>TRUE</enabled>
											<locked>FALSE</locked>
											<outputchannelindex>1</outputchannelindex>
										</track>
										<track TL.SQTrackAudioKeyframeStyle="0" TL.SQTrackShy="0" TL.SQTrackExpandedHeight="25" TL.SQTrackExpanded="0" MZ.TrackTargeted="0" PannerCurrentValue="0.5" PannerIsInverted="true" PannerStartKeyframe="-91445760000000000,0.5,0,0,0,0,0,0" PannerName="Balance" currentExplodedTrackIndex="1" totalExplodedTrackCount="2" premiereTrackType="Stereo">
											<enabled>TRUE</enabled>
											<locked>FALSE</locked>
											<outputchannelindex>2</outputchannelindex>
										</track>
									</audio>
								</media>
								<timecode>
									<rate>
										<timebase>30</timebase>
										<ntsc>TRUE</ntsc>
									</rate>
									<string>00:00:00:00</string>
									<frame>0</frame>
									<displayformat>NDF</displayformat>
								</timecode>
								<labels>
									<label2>Forest</label2>
								</labels>
								<logginginfo>
									<description></description>
									<scene></scene>
									<shottake></shottake>
									<lognote></lognote>
									<good></good>
									<originalvideofilename></originalvideofilename>
									<originalaudiofilename></originalaudiofilename>
								</logginginfo>
							</sequence>
							<sequence id="sequence-95" TL.SQAudioVisibleBase="0" TL.SQVideoVisibleBase="0" TL.SQVisibleBaseTime="0" TL.SQAVDividerPosition="0.5" TL.SQHideShyTracks="0" TL.SQHeaderWidth="236" TL.SQDataTrackViewControlState="0" Monitor.ProgramZoomOut="47116233964800" Monitor.ProgramZoomIn="0" TL.SQTimePerPixel="0.18207657489500698" AM.TrackVScrollPosition="0" AM.TrackScrollPosition="0" MZ.EditLine="10959037689600" MZ.Sequence.PreviewFrameSizeHeight="720" MZ.Sequence.PreviewFrameSizeWidth="1280" MZ.Sequence.AudioTimeDisplayFormat="200" MZ.Sequence.PreviewRenderingClassID="1297106761" MZ.Sequence.PreviewRenderingPresetCodec="1297107278" MZ.Sequence.PreviewRenderingPresetPath="EncoderPresets/SequencePreview/795454d9-d3c2-429d-9474-923ab13b7018/I-Frame Only MPEG.epr" MZ.Sequence.PreviewUseMaxRenderQuality="false" MZ.Sequence.PreviewUseMaxBitDepth="false" MZ.Sequence.EditingModeGUID="795454d9-d3c2-429d-9474-923ab13b7018" MZ.Sequence.VideoTimeDisplayFormat="103" MZ.WorkOutPoint="45819456883200" MZ.WorkInPoint="0" explodedTracks="true">
								<uuid>e29b4b82-698a-4631-85a4-170a02665742</uuid>
								<duration>5559</duration>
								<rate>
									<timebase>30</timebase>
									<ntsc>TRUE</ntsc>
								</rate>
								<name>formerlyATM_ODDLY SATISFYING_1551</name>
								<media>
									<video>
										<format>
											<samplecharacteristics>
												<rate>
													<timebase>30</timebase>
													<ntsc>TRUE</ntsc>
												</rate>
												<codec>
													<name>Apple ProRes 422</name>
													<appspecificdata>
														<appname>Final Cut Pro</appname>
														<appmanufacturer>Apple Inc.</appmanufacturer>
														<appversion>7.0</appversion>
														<data>
															<qtcodec>
																<codecname>Apple ProRes 422</codecname>
																<codectypename>Apple ProRes 422</codectypename>
																<codectypecode>apcn</codectypecode>
																<codecvendorcode>appl</codecvendorcode>
																<spatialquality>1024</spatialquality>
																<temporalquality>0</temporalquality>
																<keyframerate>0</keyframerate>
																<datarate>0</datarate>
															</qtcodec>
														</data>
													</appspecificdata>
												</codec>
												<width>1280</width>
												<height>720</height>
												<anamorphic>FALSE</anamorphic>
												<pixelaspectratio>square</pixelaspectratio>
												<fielddominance>none</fielddominance>
												<colordepth>24</colordepth>
											</samplecharacteristics>
										</format>
										<track TL.SQTrackShy="0" TL.SQTrackExpandedHeight="25" TL.SQTrackExpanded="0" MZ.TrackTargeted="1">
											<clipitem id="clipitem-1214">
												<masterclipid>masterclip-256</masterclipid>
												<name>SAT_lemonade_inc_1.5</name>
												<enabled>TRUE</enabled>
												<duration>6923</duration>
												<rate>
													<timebase>30</timebase>
													<ntsc>TRUE</ntsc>
												</rate>
												<start>0</start>
												<end>2702</end>
												<in>0</in>
												<out>2702</out>
												<pproTicksIn>0</pproTicksIn>
												<pproTicksOut>22901252774400</pproTicksOut>
												<sequence id="sequence-64"/>
												<filter>
													<effect>
														<name>Basic Motion</name>
														<effectid>basic</effectid>
														<effectcategory>motion</effectcategory>
														<effecttype>motion</effecttype>
														<mediatype>video</mediatype>
														<pproBypass>false</pproBypass>
														<parameter authoringApp="PremierePro">
															<parameterid>scale</parameterid>
															<name>Scale</name>
															<valuemin>0</valuemin>
															<valuemax>1000</valuemax>
															<value>66.6667</value>
														</parameter>
														<parameter authoringApp="PremierePro">
															<parameterid>rotation</parameterid>
															<name>Rotation</name>
															<valuemin>-8640</valuemin>
															<valuemax>8640</valuemax>
															<value>0</value>
														</parameter>
														<parameter authoringApp="PremierePro">
															<parameterid>center</parameterid>
															<name>Center</name>
															<value>
																<horiz>-0.5</horiz>
																<vert>-0.5</vert>
															</value>
														</parameter>
														<parameter authoringApp="PremierePro">
															<parameterid>centerOffset</parameterid>
															<name>Anchor Point</name>
															<value>
																<horiz>0</horiz>
																<vert>0</vert>
															</value>
														</parameter>
														<parameter authoringApp="PremierePro">
															<parameterid>antiflicker</parameterid>
															<name>Anti-flicker Filter</name>
															<valuemin>0.0</valuemin>
															<valuemax>1.0</valuemax>
															<value>0</value>
														</parameter>
													</effect>
												</filter>
												<link>
													<linkclipref>clipitem-1214</linkclipref>
													<mediatype>video</mediatype>
													<trackindex>1</trackindex>
													<clipindex>1</clipindex>
												</link>
												<link>
													<linkclipref>clipitem-1216</linkclipref>
													<mediatype>audio</mediatype>
													<trackindex>1</trackindex>
													<clipindex>1</clipindex>
													<groupindex>1</groupindex>
												</link>
												<link>
													<linkclipref>clipitem-1218</linkclipref>
													<mediatype>audio</mediatype>
													<trackindex>2</trackindex>
													<clipindex>1</clipindex>
													<groupindex>1</groupindex>
												</link>
												<labels>
													<label2>Forest</label2>
												</labels>
											</clipitem>
											<clipitem id="clipitem-1215">
												<masterclipid>masterclip-257</masterclipid>
												<name>SAT_callen schaub_1.5</name>
												<enabled>TRUE</enabled>
												<duration>6286</duration>
												<rate>
													<timebase>30</timebase>
													<ntsc>TRUE</ntsc>
												</rate>
												<start>2855</start>
												<end>-1</end>
												<in>0</in>
												<out>2704</out>
												<pproTicksIn>0</pproTicksIn>
												<pproTicksOut>22918204108800</pproTicksOut>
												<sequence id="sequence-65"/>
												<filter>
													<effect>
														<name>Basic Motion</name>
														<effectid>basic</effectid>
														<effectcategory>motion</effectcategory>
														<effecttype>motion</effecttype>
														<mediatype>video</mediatype>
														<pproBypass>false</pproBypass>
														<parameter authoringApp="PremierePro">
															<parameterid>scale</parameterid>
															<name>Scale</name>
															<valuemin>0</valuemin>
															<valuemax>1000</valuemax>
															<value>66.6667</value>
														</parameter>
														<parameter authoringApp="PremierePro">
															<parameterid>rotation</parameterid>
															<name>Rotation</name>
															<valuemin>-8640</valuemin>
															<valuemax>8640</valuemax>
															<value>0</value>
														</parameter>
														<parameter authoringApp="PremierePro">
															<parameterid>center</parameterid>
															<name>Center</name>
															<value>
																<horiz>-0.5</horiz>
																<vert>-0.5</vert>
															</value>
														</parameter>
														<parameter authoringApp="PremierePro">
															<parameterid>centerOffset</parameterid>
															<name>Anchor Point</name>
															<value>
																<horiz>0</horiz>
																<vert>0</vert>
															</value>
														</parameter>
														<parameter authoringApp="PremierePro">
															<parameterid>antiflicker</parameterid>
															<name>Anti-flicker Filter</name>
															<valuemin>0.0</valuemin>
															<valuemax>1.0</valuemax>
															<value>0</value>
														</parameter>
													</effect>
												</filter>
												<link>
													<linkclipref>clipitem-1215</linkclipref>
													<mediatype>video</mediatype>
													<trackindex>1</trackindex>
													<clipindex>2</clipindex>
												</link>
												<link>
													<linkclipref>clipitem-1217</linkclipref>
													<mediatype>audio</mediatype>
													<trackindex>1</trackindex>
													<clipindex>2</clipindex>
													<groupindex>1</groupindex>
												</link>
												<link>
													<linkclipref>clipitem-1219</linkclipref>
													<mediatype>audio</mediatype>
													<trackindex>2</trackindex>
													<clipindex>2</clipindex>
													<groupindex>1</groupindex>
												</link>
												<labels>
													<label2>Forest</label2>
												</labels>
											</clipitem>
											<transitionitem>
												<start>5529</start>
												<end>5559</end>
												<alignment>end-black</alignment>
												<cutPointTicks>254270016000</cutPointTicks>
												<rate>
													<timebase>30</timebase>
													<ntsc>TRUE</ntsc>
												</rate>
												<effect>
													<name>Cross Dissolve</name>
													<effectid>Cross Dissolve</effectid>
													<effectcategory>Dissolve</effectcategory>
													<effecttype>transition</effecttype>
													<mediatype>video</mediatype>
													<wipecode>0</wipecode>
													<wipeaccuracy>100</wipeaccuracy>
													<startratio>0</startratio>
													<endratio>1</endratio>
													<reverse>FALSE</reverse>
												</effect>
											</transitionitem>
											<enabled>TRUE</enabled>
											<locked>FALSE</locked>
										</track>
										<track TL.SQTrackShy="0" TL.SQTrackExpandedHeight="25" TL.SQTrackExpanded="0" MZ.TrackTargeted="0">
											<enabled>TRUE</enabled>
											<locked>FALSE</locked>
										</track>
									</video>
									<audio>
										<numOutputChannels>2</numOutputChannels>
										<format>
											<samplecharacteristics>
												<depth>16</depth>
												<samplerate>44100</samplerate>
											</samplecharacteristics>
										</format>
										<outputs>
											<group>
												<index>1</index>
												<numchannels>1</numchannels>
												<downmix>0</downmix>
												<channel>
													<index>1</index>
												</channel>
											</group>
											<group>
												<index>2</index>
												<numchannels>1</numchannels>
												<downmix>0</downmix>
												<channel>
													<index>2</index>
												</channel>
											</group>
										</outputs>
										<track TL.SQTrackAudioKeyframeStyle="0" TL.SQTrackShy="0" TL.SQTrackExpandedHeight="25" TL.SQTrackExpanded="0" MZ.TrackTargeted="1" PannerCurrentValue="0.5" PannerIsInverted="true" PannerStartKeyframe="-91445760000000000,0.5,0,0,0,0,0,0" PannerName="Balance" currentExplodedTrackIndex="0" totalExplodedTrackCount="2" premiereTrackType="Stereo">
											<clipitem id="clipitem-1216" premiereChannelType="stereo">
												<masterclipid>masterclip-256</masterclipid>
												<name>SAT_lemonade_inc_1.5</name>
												<enabled>TRUE</enabled>
												<duration>6923</duration>
												<rate>
													<timebase>30</timebase>
													<ntsc>TRUE</ntsc>
												</rate>
												<start>0</start>
												<end>2702</end>
												<in>0</in>
												<out>2702</out>
												<pproTicksIn>0</pproTicksIn>
												<pproTicksOut>22901252774400</pproTicksOut>
												<sequence id="sequence-64"/>
												<sourcetrack>
													<mediatype>audio</mediatype>
													<trackindex>0</trackindex>
												</sourcetrack>
												<link>
													<linkclipref>clipitem-1214</linkclipref>
													<mediatype>video</mediatype>
													<trackindex>1</trackindex>
													<clipindex>1</clipindex>
												</link>
												<link>
													<linkclipref>clipitem-1216</linkclipref>
													<mediatype>audio</mediatype>
													<trackindex>1</trackindex>
													<clipindex>1</clipindex>
													<groupindex>1</groupindex>
												</link>
												<link>
													<linkclipref>clipitem-1218</linkclipref>
													<mediatype>audio</mediatype>
													<trackindex>2</trackindex>
													<clipindex>1</clipindex>
													<groupindex>1</groupindex>
												</link>
												<labels>
													<label2>Forest</label2>
												</labels>
											</clipitem>
											<clipitem id="clipitem-1217" premiereChannelType="stereo">
												<masterclipid>masterclip-257</masterclipid>
												<name>SAT_callen schaub_1.5</name>
												<enabled>TRUE</enabled>
												<duration>6286</duration>
												<rate>
													<timebase>30</timebase>
													<ntsc>TRUE</ntsc>
												</rate>
												<start>2855</start>
												<end>5559</end>
												<in>0</in>
												<out>2704</out>
												<pproTicksIn>0</pproTicksIn>
												<pproTicksOut>22918204108800</pproTicksOut>
												<sequence id="sequence-65"/>
												<sourcetrack>
													<mediatype>audio</mediatype>
													<trackindex>0</trackindex>
												</sourcetrack>
												<link>
													<linkclipref>clipitem-1215</linkclipref>
													<mediatype>video</mediatype>
													<trackindex>1</trackindex>
													<clipindex>2</clipindex>
												</link>
												<link>
													<linkclipref>clipitem-1217</linkclipref>
													<mediatype>audio</mediatype>
													<trackindex>1</trackindex>
													<clipindex>2</clipindex>
													<groupindex>1</groupindex>
												</link>
												<link>
													<linkclipref>clipitem-1219</linkclipref>
													<mediatype>audio</mediatype>
													<trackindex>2</trackindex>
													<clipindex>2</clipindex>
													<groupindex>1</groupindex>
												</link>
												<labels>
													<label2>Forest</label2>
												</labels>
											</clipitem>
											<enabled>TRUE</enabled>
											<locked>FALSE</locked>
											<outputchannelindex>1</outputchannelindex>
										</track>
										<track TL.SQTrackAudioKeyframeStyle="0" TL.SQTrackShy="0" TL.SQTrackExpandedHeight="25" TL.SQTrackExpanded="0" MZ.TrackTargeted="1" PannerCurrentValue="0.5" PannerIsInverted="true" PannerStartKeyframe="-91445760000000000,0.5,0,0,0,0,0,0" PannerName="Balance" currentExplodedTrackIndex="1" totalExplodedTrackCount="2" premiereTrackType="Stereo">
											<clipitem id="clipitem-1218" premiereChannelType="stereo">
												<masterclipid>masterclip-256</masterclipid>
												<name>SAT_lemonade_inc_1.5</name>
												<enabled>TRUE</enabled>
												<duration>6923</duration>
												<rate>
													<timebase>30</timebase>
													<ntsc>TRUE</ntsc>
												</rate>
												<start>0</start>
												<end>2702</end>
												<in>0</in>
												<out>2702</out>
												<pproTicksIn>0</pproTicksIn>
												<pproTicksOut>22901252774400</pproTicksOut>
												<sequence id="sequence-64"/>
												<sourcetrack>
													<mediatype>audio</mediatype>
													<trackindex>1</trackindex>
												</sourcetrack>
												<link>
													<linkclipref>clipitem-1214</linkclipref>
													<mediatype>video</mediatype>
													<trackindex>1</trackindex>
													<clipindex>1</clipindex>
												</link>
												<link>
													<linkclipref>clipitem-1216</linkclipref>
													<mediatype>audio</mediatype>
													<trackindex>1</trackindex>
													<clipindex>1</clipindex>
													<groupindex>1</groupindex>
												</link>
												<link>
													<linkclipref>clipitem-1218</linkclipref>
													<mediatype>audio</mediatype>
													<trackindex>2</trackindex>
													<clipindex>1</clipindex>
													<groupindex>1</groupindex>
												</link>
												<labels>
													<label2>Forest</label2>
												</labels>
											</clipitem>
											<clipitem id="clipitem-1219" premiereChannelType="stereo">
												<masterclipid>masterclip-257</masterclipid>
												<name>SAT_callen schaub_1.5</name>
												<enabled>TRUE</enabled>
												<duration>6286</duration>
												<rate>
													<timebase>30</timebase>
													<ntsc>TRUE</ntsc>
												</rate>
												<start>2855</start>
												<end>5559</end>
												<in>0</in>
												<out>2704</out>
												<pproTicksIn>0</pproTicksIn>
												<pproTicksOut>22918204108800</pproTicksOut>
												<sequence id="sequence-65"/>
												<sourcetrack>
													<mediatype>audio</mediatype>
													<trackindex>1</trackindex>
												</sourcetrack>
												<link>
													<linkclipref>clipitem-1215</linkclipref>
													<mediatype>video</mediatype>
													<trackindex>1</trackindex>
													<clipindex>2</clipindex>
												</link>
												<link>
													<linkclipref>clipitem-1217</linkclipref>
													<mediatype>audio</mediatype>
													<trackindex>1</trackindex>
													<clipindex>2</clipindex>
													<groupindex>1</groupindex>
												</link>
												<link>
													<linkclipref>clipitem-1219</linkclipref>
													<mediatype>audio</mediatype>
													<trackindex>2</trackindex>
													<clipindex>2</clipindex>
													<groupindex>1</groupindex>
												</link>
												<labels>
													<label2>Forest</label2>
												</labels>
											</clipitem>
											<enabled>TRUE</enabled>
											<locked>FALSE</locked>
											<outputchannelindex>2</outputchannelindex>
										</track>
										<track TL.SQTrackAudioKeyframeStyle="0" TL.SQTrackShy="0" TL.SQTrackExpandedHeight="25" TL.SQTrackExpanded="0" MZ.TrackTargeted="0" PannerCurrentValue="0.5" PannerIsInverted="true" PannerStartKeyframe="-91445760000000000,0.5,0,0,0,0,0,0" PannerName="Balance" currentExplodedTrackIndex="0" totalExplodedTrackCount="2" premiereTrackType="Stereo">
											<enabled>TRUE</enabled>
											<locked>FALSE</locked>
											<outputchannelindex>1</outputchannelindex>
										</track>
										<track TL.SQTrackAudioKeyframeStyle="0" TL.SQTrackShy="0" TL.SQTrackExpandedHeight="25" TL.SQTrackExpanded="0" MZ.TrackTargeted="0" PannerCurrentValue="0.5" PannerIsInverted="true" PannerStartKeyframe="-91445760000000000,0.5,0,0,0,0,0,0" PannerName="Balance" currentExplodedTrackIndex="1" totalExplodedTrackCount="2" premiereTrackType="Stereo">
											<enabled>TRUE</enabled>
											<locked>FALSE</locked>
											<outputchannelindex>2</outputchannelindex>
										</track>
									</audio>
								</media>
								<timecode>
									<rate>
										<timebase>30</timebase>
										<ntsc>TRUE</ntsc>
									</rate>
									<string>00:00:00:00</string>
									<frame>0</frame>
									<displayformat>NDF</displayformat>
								</timecode>
								<labels>
									<label2>Forest</label2>
								</labels>
								<logginginfo>
									<description></description>
									<scene></scene>
									<shottake></shottake>
									<lognote></lognote>
									<good></good>
									<originalvideofilename></originalvideofilename>
									<originalaudiofilename></originalaudiofilename>
								</logginginfo>
							</sequence>
							<sequence id="sequence-96" TL.SQAudioVisibleBase="0" TL.SQVideoVisibleBase="0" TL.SQVisibleBaseTime="0" TL.SQAVDividerPosition="0.5" TL.SQHideShyTracks="0" TL.SQHeaderWidth="236" TL.SQDataTrackViewControlState="0" Monitor.ProgramZoomOut="46709401939200" Monitor.ProgramZoomIn="0" TL.SQTimePerPixel="0.18158611759216053" AM.TrackVScrollPosition="0" AM.TrackScrollPosition="0" MZ.EditLine="28596901132800" MZ.Sequence.PreviewFrameSizeHeight="720" MZ.Sequence.PreviewFrameSizeWidth="1280" MZ.Sequence.AudioTimeDisplayFormat="200" MZ.Sequence.PreviewRenderingClassID="1297106761" MZ.Sequence.PreviewRenderingPresetCodec="1297107278" MZ.Sequence.PreviewRenderingPresetPath="EncoderPresets/SequencePreview/795454d9-d3c2-429d-9474-923ab13b7018/I-Frame Only MPEG.epr" MZ.Sequence.PreviewUseMaxRenderQuality="false" MZ.Sequence.PreviewUseMaxBitDepth="false" MZ.Sequence.EditingModeGUID="795454d9-d3c2-429d-9474-923ab13b7018" MZ.Sequence.VideoTimeDisplayFormat="103" MZ.WorkOutPoint="45285489849600" MZ.WorkInPoint="0" explodedTracks="true">
								<uuid>87b6ebd2-9acc-4de9-8dc0-56f0fdc40525</uuid>
								<duration>5511</duration>
								<rate>
									<timebase>30</timebase>
									<ntsc>TRUE</ntsc>
								</rate>
								<name>formerlyATM_ODDLY SATISFYING_1552</name>
								<media>
									<video>
										<format>
											<samplecharacteristics>
												<rate>
													<timebase>30</timebase>
													<ntsc>TRUE</ntsc>
												</rate>
												<codec>
													<name>Apple ProRes 422</name>
													<appspecificdata>
														<appname>Final Cut Pro</appname>
														<appmanufacturer>Apple Inc.</appmanufacturer>
														<appversion>7.0</appversion>
														<data>
															<qtcodec>
																<codecname>Apple ProRes 422</codecname>
																<codectypename>Apple ProRes 422</codectypename>
																<codectypecode>apcn</codectypecode>
																<codecvendorcode>appl</codecvendorcode>
																<spatialquality>1024</spatialquality>
																<temporalquality>0</temporalquality>
																<keyframerate>0</keyframerate>
																<datarate>0</datarate>
															</qtcodec>
														</data>
													</appspecificdata>
												</codec>
												<width>1280</width>
												<height>720</height>
												<anamorphic>FALSE</anamorphic>
												<pixelaspectratio>square</pixelaspectratio>
												<fielddominance>none</fielddominance>
												<colordepth>24</colordepth>
											</samplecharacteristics>
										</format>
										<track TL.SQTrackShy="0" TL.SQTrackExpandedHeight="25" TL.SQTrackExpanded="0" MZ.TrackTargeted="1">
											<clipitem id="clipitem-1220">
												<masterclipid>masterclip-258</masterclipid>
												<name>SAT_WINNI_1m20s</name>
												<enabled>TRUE</enabled>
												<duration>4487</duration>
												<rate>
													<timebase>30</timebase>
													<ntsc>TRUE</ntsc>
												</rate>
												<start>0</start>
												<end>2475</end>
												<in>0</in>
												<out>2475</out>
												<pproTicksIn>0</pproTicksIn>
												<pproTicksOut>20977276320000</pproTicksOut>
												<sequence id="sequence-66"/>
												<filter>
													<effect>
														<name>Basic Motion</name>
														<effectid>basic</effectid>
														<effectcategory>motion</effectcategory>
														<effecttype>motion</effecttype>
														<mediatype>video</mediatype>
														<pproBypass>false</pproBypass>
														<parameter authoringApp="PremierePro">
															<parameterid>scale</parameterid>
															<name>Scale</name>
															<valuemin>0</valuemin>
															<valuemax>1000</valuemax>
															<value>66.6667</value>
														</parameter>
														<parameter authoringApp="PremierePro">
															<parameterid>rotation</parameterid>
															<name>Rotation</name>
															<valuemin>-8640</valuemin>
															<valuemax>8640</valuemax>
															<value>0</value>
														</parameter>
														<parameter authoringApp="PremierePro">
															<parameterid>center</parameterid>
															<name>Center</name>
															<value>
																<horiz>-0.5</horiz>
																<vert>-0.5</vert>
															</value>
														</parameter>
														<parameter authoringApp="PremierePro">
															<parameterid>centerOffset</parameterid>
															<name>Anchor Point</name>
															<value>
																<horiz>0</horiz>
																<vert>0</vert>
															</value>
														</parameter>
														<parameter authoringApp="PremierePro">
															<parameterid>antiflicker</parameterid>
															<name>Anti-flicker Filter</name>
															<valuemin>0.0</valuemin>
															<valuemax>1.0</valuemax>
															<value>0</value>
														</parameter>
													</effect>
												</filter>
												<link>
													<linkclipref>clipitem-1220</linkclipref>
													<mediatype>video</mediatype>
													<trackindex>1</trackindex>
													<clipindex>1</clipindex>
												</link>
												<link>
													<linkclipref>clipitem-1223</linkclipref>
													<mediatype>audio</mediatype>
													<trackindex>1</trackindex>
													<clipindex>1</clipindex>
													<groupindex>1</groupindex>
												</link>
												<link>
													<linkclipref>clipitem-1225</linkclipref>
													<mediatype>audio</mediatype>
													<trackindex>2</trackindex>
													<clipindex>1</clipindex>
													<groupindex>1</groupindex>
												</link>
												<labels>
													<label2>Forest</label2>
												</labels>
											</clipitem>
											<clipitem id="clipitem-1221">
												<masterclipid>masterclip-259</masterclipid>
												<name>FND_smores_2</name>
												<enabled>TRUE</enabled>
												<duration>5491</duration>
												<rate>
													<timebase>30</timebase>
													<ntsc>TRUE</ntsc>
												</rate>
												<start>2643</start>
												<end>-1</end>
												<in>0</in>
												<out>2868</out>
												<pproTicksIn>0</pproTicksIn>
												<pproTicksOut>24308213529600</pproTicksOut>
												<sequence id="sequence-67"/>
												<filter>
													<effect>
														<name>Basic Motion</name>
														<effectid>basic</effectid>
														<effectcategory>motion</effectcategory>
														<effecttype>motion</effecttype>
														<mediatype>video</mediatype>
														<pproBypass>false</pproBypass>
														<parameter authoringApp="PremierePro">
															<parameterid>scale</parameterid>
															<name>Scale</name>
															<valuemin>0</valuemin>
															<valuemax>1000</valuemax>
															<value>66.6667</value>
														</parameter>
														<parameter authoringApp="PremierePro">
															<parameterid>rotation</parameterid>
															<name>Rotation</name>
															<valuemin>-8640</valuemin>
															<valuemax>8640</valuemax>
															<value>0</value>
														</parameter>
														<parameter authoringApp="PremierePro">
															<parameterid>center</parameterid>
															<name>Center</name>
															<value>
																<horiz>-0.5</horiz>
																<vert>-0.5</vert>
															</value>
														</parameter>
														<parameter authoringApp="PremierePro">
															<parameterid>centerOffset</parameterid>
															<name>Anchor Point</name>
															<value>
																<horiz>0</horiz>
																<vert>0</vert>
															</value>
														</parameter>
														<parameter authoringApp="PremierePro">
															<parameterid>antiflicker</parameterid>
															<name>Anti-flicker Filter</name>
															<valuemin>0.0</valuemin>
															<valuemax>1.0</valuemax>
															<value>0</value>
														</parameter>
													</effect>
												</filter>
												<link>
													<linkclipref>clipitem-1221</linkclipref>
													<mediatype>video</mediatype>
													<trackindex>1</trackindex>
													<clipindex>2</clipindex>
												</link>
												<link>
													<linkclipref>clipitem-1224</linkclipref>
													<mediatype>audio</mediatype>
													<trackindex>1</trackindex>
													<clipindex>2</clipindex>
													<groupindex>1</groupindex>
												</link>
												<link>
													<linkclipref>clipitem-1226</linkclipref>
													<mediatype>audio</mediatype>
													<trackindex>2</trackindex>
													<clipindex>2</clipindex>
													<groupindex>1</groupindex>
												</link>
												<labels>
													<label2>Forest</label2>
												</labels>
											</clipitem>
											<transitionitem>
												<start>5481</start>
												<end>5511</end>
												<alignment>end-black</alignment>
												<cutPointTicks>254270016000</cutPointTicks>
												<rate>
													<timebase>30</timebase>
													<ntsc>TRUE</ntsc>
												</rate>
												<effect>
													<name>Cross Dissolve</name>
													<effectid>Cross Dissolve</effectid>
													<effectcategory>Dissolve</effectcategory>
													<effecttype>transition</effecttype>
													<mediatype>video</mediatype>
													<wipecode>0</wipecode>
													<wipeaccuracy>100</wipeaccuracy>
													<startratio>0</startratio>
													<endratio>1</endratio>
													<reverse>FALSE</reverse>
												</effect>
											</transitionitem>
											<enabled>TRUE</enabled>
											<locked>FALSE</locked>
										</track>
										<track TL.SQTrackShy="0" TL.SQTrackExpandedHeight="25" TL.SQTrackExpanded="0" MZ.TrackTargeted="0">
											<clipitem id="clipitem-1222">
												<masterclipid>masterclip-207</masterclipid>
												<name>OS Trans 04</name>
												<enabled>TRUE</enabled>
												<duration>2613</duration>
												<rate>
													<timebase>30</timebase>
													<ntsc>TRUE</ntsc>
												</rate>
												<start>2468</start>
												<end>2676</end>
												<in>0</in>
												<out>208</out>
												<pproTicksIn>0</pproTicksIn>
												<pproTicksOut>1762938777600</pproTicksOut>
												<sequence id="sequence-6"/>
												<filter>
													<effect>
														<name>Basic Motion</name>
														<effectid>basic</effectid>
														<effectcategory>motion</effectcategory>
														<effecttype>motion</effecttype>
														<mediatype>video</mediatype>
														<pproBypass>false</pproBypass>
														<parameter authoringApp="PremierePro">
															<parameterid>scale</parameterid>
															<name>Scale</name>
															<valuemin>0</valuemin>
															<valuemax>1000</valuemax>
															<value>66.6667</value>
														</parameter>
														<parameter authoringApp="PremierePro">
															<parameterid>rotation</parameterid>
															<name>Rotation</name>
															<valuemin>-8640</valuemin>
															<valuemax>8640</valuemax>
															<value>0</value>
														</parameter>
														<parameter authoringApp="PremierePro">
															<parameterid>center</parameterid>
															<name>Center</name>
															<value>
																<horiz>-0.5</horiz>
																<vert>-0.5</vert>
															</value>
														</parameter>
														<parameter authoringApp="PremierePro">
															<parameterid>centerOffset</parameterid>
															<name>Anchor Point</name>
															<value>
																<horiz>0</horiz>
																<vert>0</vert>
															</value>
														</parameter>
														<parameter authoringApp="PremierePro">
															<parameterid>antiflicker</parameterid>
															<name>Anti-flicker Filter</name>
															<valuemin>0.0</valuemin>
															<valuemax>1.0</valuemax>
															<value>0</value>
														</parameter>
													</effect>
												</filter>
													<marker>
														<comment></comment>
														<name></name>
														<in>7</in>
														<out>-1</out>
													</marker>
													<marker>
														<comment></comment>
														<name></name>
														<in>175</in>
														<out>-1</out>
													</marker>
												<link>
													<linkclipref>clipitem-1222</linkclipref>
													<mediatype>video</mediatype>
													<trackindex>2</trackindex>
													<clipindex>1</clipindex>
												</link>
												<link>
													<linkclipref>clipitem-1227</linkclipref>
													<mediatype>audio</mediatype>
													<trackindex>3</trackindex>
													<clipindex>1</clipindex>
													<groupindex>1</groupindex>
												</link>
												<link>
													<linkclipref>clipitem-1228</linkclipref>
													<mediatype>audio</mediatype>
													<trackindex>4</trackindex>
													<clipindex>1</clipindex>
													<groupindex>1</groupindex>
												</link>
												<labels>
													<label2>Blue</label2>
												</labels>
											</clipitem>
											<enabled>TRUE</enabled>
											<locked>FALSE</locked>
										</track>
									</video>
									<audio>
										<numOutputChannels>2</numOutputChannels>
										<format>
											<samplecharacteristics>
												<depth>16</depth>
												<samplerate>44100</samplerate>
											</samplecharacteristics>
										</format>
										<outputs>
											<group>
												<index>1</index>
												<numchannels>1</numchannels>
												<downmix>0</downmix>
												<channel>
													<index>1</index>
												</channel>
											</group>
											<group>
												<index>2</index>
												<numchannels>1</numchannels>
												<downmix>0</downmix>
												<channel>
													<index>2</index>
												</channel>
											</group>
										</outputs>
										<track TL.SQTrackAudioKeyframeStyle="0" TL.SQTrackShy="0" TL.SQTrackExpandedHeight="25" TL.SQTrackExpanded="0" MZ.TrackTargeted="1" PannerCurrentValue="0.5" PannerIsInverted="true" PannerStartKeyframe="-91445760000000000,0.5,0,0,0,0,0,0" PannerName="Balance" currentExplodedTrackIndex="0" totalExplodedTrackCount="2" premiereTrackType="Stereo">
											<clipitem id="clipitem-1223" premiereChannelType="stereo">
												<masterclipid>masterclip-258</masterclipid>
												<name>SAT_WINNI_1m20s</name>
												<enabled>TRUE</enabled>
												<duration>4487</duration>
												<rate>
													<timebase>30</timebase>
													<ntsc>TRUE</ntsc>
												</rate>
												<start>0</start>
												<end>2475</end>
												<in>0</in>
												<out>2475</out>
												<pproTicksIn>0</pproTicksIn>
												<pproTicksOut>20977276320000</pproTicksOut>
												<sequence id="sequence-66"/>
												<sourcetrack>
													<mediatype>audio</mediatype>
													<trackindex>0</trackindex>
												</sourcetrack>
												<link>
													<linkclipref>clipitem-1220</linkclipref>
													<mediatype>video</mediatype>
													<trackindex>1</trackindex>
													<clipindex>1</clipindex>
												</link>
												<link>
													<linkclipref>clipitem-1223</linkclipref>
													<mediatype>audio</mediatype>
													<trackindex>1</trackindex>
													<clipindex>1</clipindex>
													<groupindex>1</groupindex>
												</link>
												<link>
													<linkclipref>clipitem-1225</linkclipref>
													<mediatype>audio</mediatype>
													<trackindex>2</trackindex>
													<clipindex>1</clipindex>
													<groupindex>1</groupindex>
												</link>
												<labels>
													<label2>Forest</label2>
												</labels>
											</clipitem>
											<clipitem id="clipitem-1224" premiereChannelType="stereo">
												<masterclipid>masterclip-259</masterclipid>
												<name>FND_smores_2</name>
												<enabled>TRUE</enabled>
												<duration>5491</duration>
												<rate>
													<timebase>30</timebase>
													<ntsc>TRUE</ntsc>
												</rate>
												<start>2643</start>
												<end>5511</end>
												<in>0</in>
												<out>2868</out>
												<pproTicksIn>0</pproTicksIn>
												<pproTicksOut>24308213529600</pproTicksOut>
												<sequence id="sequence-67"/>
												<sourcetrack>
													<mediatype>audio</mediatype>
													<trackindex>0</trackindex>
												</sourcetrack>
												<link>
													<linkclipref>clipitem-1221</linkclipref>
													<mediatype>video</mediatype>
													<trackindex>1</trackindex>
													<clipindex>2</clipindex>
												</link>
												<link>
													<linkclipref>clipitem-1224</linkclipref>
													<mediatype>audio</mediatype>
													<trackindex>1</trackindex>
													<clipindex>2</clipindex>
													<groupindex>1</groupindex>
												</link>
												<link>
													<linkclipref>clipitem-1226</linkclipref>
													<mediatype>audio</mediatype>
													<trackindex>2</trackindex>
													<clipindex>2</clipindex>
													<groupindex>1</groupindex>
												</link>
												<labels>
													<label2>Forest</label2>
												</labels>
											</clipitem>
											<enabled>TRUE</enabled>
											<locked>FALSE</locked>
											<outputchannelindex>1</outputchannelindex>
										</track>
										<track TL.SQTrackAudioKeyframeStyle="0" TL.SQTrackShy="0" TL.SQTrackExpandedHeight="25" TL.SQTrackExpanded="0" MZ.TrackTargeted="1" PannerCurrentValue="0.5" PannerIsInverted="true" PannerStartKeyframe="-91445760000000000,0.5,0,0,0,0,0,0" PannerName="Balance" currentExplodedTrackIndex="1" totalExplodedTrackCount="2" premiereTrackType="Stereo">
											<clipitem id="clipitem-1225" premiereChannelType="stereo">
												<masterclipid>masterclip-258</masterclipid>
												<name>SAT_WINNI_1m20s</name>
												<enabled>TRUE</enabled>
												<duration>4487</duration>
												<rate>
													<timebase>30</timebase>
													<ntsc>TRUE</ntsc>
												</rate>
												<start>0</start>
												<end>2475</end>
												<in>0</in>
												<out>2475</out>
												<pproTicksIn>0</pproTicksIn>
												<pproTicksOut>20977276320000</pproTicksOut>
												<sequence id="sequence-66"/>
												<sourcetrack>
													<mediatype>audio</mediatype>
													<trackindex>1</trackindex>
												</sourcetrack>
												<link>
													<linkclipref>clipitem-1220</linkclipref>
													<mediatype>video</mediatype>
													<trackindex>1</trackindex>
													<clipindex>1</clipindex>
												</link>
												<link>
													<linkclipref>clipitem-1223</linkclipref>
													<mediatype>audio</mediatype>
													<trackindex>1</trackindex>
													<clipindex>1</clipindex>
													<groupindex>1</groupindex>
												</link>
												<link>
													<linkclipref>clipitem-1225</linkclipref>
													<mediatype>audio</mediatype>
													<trackindex>2</trackindex>
													<clipindex>1</clipindex>
													<groupindex>1</groupindex>
												</link>
												<labels>
													<label2>Forest</label2>
												</labels>
											</clipitem>
											<clipitem id="clipitem-1226" premiereChannelType="stereo">
												<masterclipid>masterclip-259</masterclipid>
												<name>FND_smores_2</name>
												<enabled>TRUE</enabled>
												<duration>5491</duration>
												<rate>
													<timebase>30</timebase>
													<ntsc>TRUE</ntsc>
												</rate>
												<start>2643</start>
												<end>5511</end>
												<in>0</in>
												<out>2868</out>
												<pproTicksIn>0</pproTicksIn>
												<pproTicksOut>24308213529600</pproTicksOut>
												<sequence id="sequence-67"/>
												<sourcetrack>
													<mediatype>audio</mediatype>
													<trackindex>1</trackindex>
												</sourcetrack>
												<link>
													<linkclipref>clipitem-1221</linkclipref>
													<mediatype>video</mediatype>
													<trackindex>1</trackindex>
													<clipindex>2</clipindex>
												</link>
												<link>
													<linkclipref>clipitem-1224</linkclipref>
													<mediatype>audio</mediatype>
													<trackindex>1</trackindex>
													<clipindex>2</clipindex>
													<groupindex>1</groupindex>
												</link>
												<link>
													<linkclipref>clipitem-1226</linkclipref>
													<mediatype>audio</mediatype>
													<trackindex>2</trackindex>
													<clipindex>2</clipindex>
													<groupindex>1</groupindex>
												</link>
												<labels>
													<label2>Forest</label2>
												</labels>
											</clipitem>
											<enabled>TRUE</enabled>
											<locked>FALSE</locked>
											<outputchannelindex>2</outputchannelindex>
										</track>
										<track TL.SQTrackAudioKeyframeStyle="0" TL.SQTrackShy="0" TL.SQTrackExpandedHeight="25" TL.SQTrackExpanded="0" MZ.TrackTargeted="0" PannerCurrentValue="0.5" PannerIsInverted="true" PannerStartKeyframe="-91445760000000000,0.5,0,0,0,0,0,0" PannerName="Balance" currentExplodedTrackIndex="0" totalExplodedTrackCount="2" premiereTrackType="Stereo">
											<clipitem id="clipitem-1227" premiereChannelType="stereo">
												<masterclipid>masterclip-207</masterclipid>
												<name>OS Trans 04</name>
												<enabled>TRUE</enabled>
												<duration>2613</duration>
												<rate>
													<timebase>30</timebase>
													<ntsc>TRUE</ntsc>
												</rate>
												<start>2468</start>
												<end>2676</end>
												<in>0</in>
												<out>208</out>
												<pproTicksIn>0</pproTicksIn>
												<pproTicksOut>1762938777600</pproTicksOut>
												<sequence id="sequence-6"/>
												<sourcetrack>
													<mediatype>audio</mediatype>
													<trackindex>0</trackindex>
												</sourcetrack>
													<marker>
														<comment></comment>
														<name></name>
														<in>7</in>
														<out>-1</out>
													</marker>
													<marker>
														<comment></comment>
														<name></name>
														<in>175</in>
														<out>-1</out>
													</marker>
												<link>
													<linkclipref>clipitem-1222</linkclipref>
													<mediatype>video</mediatype>
													<trackindex>2</trackindex>
													<clipindex>1</clipindex>
												</link>
												<link>
													<linkclipref>clipitem-1227</linkclipref>
													<mediatype>audio</mediatype>
													<trackindex>3</trackindex>
													<clipindex>1</clipindex>
													<groupindex>1</groupindex>
												</link>
												<link>
													<linkclipref>clipitem-1228</linkclipref>
													<mediatype>audio</mediatype>
													<trackindex>4</trackindex>
													<clipindex>1</clipindex>
													<groupindex>1</groupindex>
												</link>
												<labels>
													<label2>Blue</label2>
												</labels>
											</clipitem>
											<enabled>TRUE</enabled>
											<locked>FALSE</locked>
											<outputchannelindex>1</outputchannelindex>
										</track>
										<track TL.SQTrackAudioKeyframeStyle="0" TL.SQTrackShy="0" TL.SQTrackExpandedHeight="25" TL.SQTrackExpanded="0" MZ.TrackTargeted="0" PannerCurrentValue="0.5" PannerIsInverted="true" PannerStartKeyframe="-91445760000000000,0.5,0,0,0,0,0,0" PannerName="Balance" currentExplodedTrackIndex="1" totalExplodedTrackCount="2" premiereTrackType="Stereo">
											<clipitem id="clipitem-1228" premiereChannelType="stereo">
												<masterclipid>masterclip-207</masterclipid>
												<name>OS Trans 04</name>
												<enabled>TRUE</enabled>
												<duration>2613</duration>
												<rate>
													<timebase>30</timebase>
													<ntsc>TRUE</ntsc>
												</rate>
												<start>2468</start>
												<end>2676</end>
												<in>0</in>
												<out>208</out>
												<pproTicksIn>0</pproTicksIn>
												<pproTicksOut>1762938777600</pproTicksOut>
												<sequence id="sequence-6"/>
												<sourcetrack>
													<mediatype>audio</mediatype>
													<trackindex>1</trackindex>
												</sourcetrack>
													<marker>
														<comment></comment>
														<name></name>
														<in>7</in>
														<out>-1</out>
													</marker>
													<marker>
														<comment></comment>
														<name></name>
														<in>175</in>
														<out>-1</out>
													</marker>
												<link>
													<linkclipref>clipitem-1222</linkclipref>
													<mediatype>video</mediatype>
													<trackindex>2</trackindex>
													<clipindex>1</clipindex>
												</link>
												<link>
													<linkclipref>clipitem-1227</linkclipref>
													<mediatype>audio</mediatype>
													<trackindex>3</trackindex>
													<clipindex>1</clipindex>
													<groupindex>1</groupindex>
												</link>
												<link>
													<linkclipref>clipitem-1228</linkclipref>
													<mediatype>audio</mediatype>
													<trackindex>4</trackindex>
													<clipindex>1</clipindex>
													<groupindex>1</groupindex>
												</link>
												<labels>
													<label2>Blue</label2>
												</labels>
											</clipitem>
											<enabled>TRUE</enabled>
											<locked>FALSE</locked>
											<outputchannelindex>2</outputchannelindex>
										</track>
									</audio>
								</media>
								<timecode>
									<rate>
										<timebase>30</timebase>
										<ntsc>TRUE</ntsc>
									</rate>
									<string>00:00:00:00</string>
									<frame>0</frame>
									<displayformat>NDF</displayformat>
								</timecode>
								<labels>
									<label2>Forest</label2>
								</labels>
								<logginginfo>
									<description></description>
									<scene></scene>
									<shottake></shottake>
									<lognote></lognote>
									<good></good>
									<originalvideofilename></originalvideofilename>
									<originalaudiofilename></originalaudiofilename>
								</logginginfo>
							</sequence>
							<sequence id="sequence-97" TL.SQAudioVisibleBase="0" TL.SQVideoVisibleBase="0" TL.SQVisibleBaseTime="0" TL.SQAVDividerPosition="0.5" TL.SQHideShyTracks="0" TL.SQHeaderWidth="236" TL.SQDataTrackViewControlState="0" Monitor.ProgramZoomOut="46861963948800" Monitor.ProgramZoomIn="0" TL.SQTimePerPixel="0.18309641468346555" AM.TrackVScrollPosition="0" AM.TrackScrollPosition="0" MZ.EditLine="30885331276800" MZ.Sequence.PreviewFrameSizeHeight="720" MZ.Sequence.PreviewFrameSizeWidth="1280" MZ.Sequence.AudioTimeDisplayFormat="200" MZ.Sequence.PreviewRenderingClassID="1297106761" MZ.Sequence.PreviewRenderingPresetCodec="1297107278" MZ.Sequence.PreviewRenderingPresetPath="EncoderPresets/SequencePreview/795454d9-d3c2-429d-9474-923ab13b7018/I-Frame Only MPEG.epr" MZ.Sequence.PreviewUseMaxRenderQuality="false" MZ.Sequence.PreviewUseMaxBitDepth="false" MZ.Sequence.EditingModeGUID="795454d9-d3c2-429d-9474-923ab13b7018" MZ.Sequence.VideoTimeDisplayFormat="103" MZ.WorkOutPoint="46929769286400" MZ.WorkInPoint="0" explodedTracks="true">
								<uuid>bba5ad3d-10b5-4498-94d8-70d3b31dd658</uuid>
								<duration>5529</duration>
								<rate>
									<timebase>30</timebase>
									<ntsc>TRUE</ntsc>
								</rate>
								<name>formerlyATM_ODDLY SATISFYING_1553</name>
								<media>
									<video>
										<format>
											<samplecharacteristics>
												<rate>
													<timebase>30</timebase>
													<ntsc>TRUE</ntsc>
												</rate>
												<codec>
													<name>Apple ProRes 422</name>
													<appspecificdata>
														<appname>Final Cut Pro</appname>
														<appmanufacturer>Apple Inc.</appmanufacturer>
														<appversion>7.0</appversion>
														<data>
															<qtcodec>
																<codecname>Apple ProRes 422</codecname>
																<codectypename>Apple ProRes 422</codectypename>
																<codectypecode>apcn</codectypecode>
																<codecvendorcode>appl</codecvendorcode>
																<spatialquality>1024</spatialquality>
																<temporalquality>0</temporalquality>
																<keyframerate>0</keyframerate>
																<datarate>0</datarate>
															</qtcodec>
														</data>
													</appspecificdata>
												</codec>
												<width>1280</width>
												<height>720</height>
												<anamorphic>FALSE</anamorphic>
												<pixelaspectratio>square</pixelaspectratio>
												<fielddominance>none</fielddominance>
												<colordepth>24</colordepth>
											</samplecharacteristics>
										</format>
										<track TL.SQTrackShy="0" TL.SQTrackExpandedHeight="25" TL.SQTrackExpanded="0" MZ.TrackTargeted="1">
											<clipitem id="clipitem-1229">
												<masterclipid>masterclip-260</masterclipid>
												<name>MACRO_yt object_1m40s</name>
												<enabled>TRUE</enabled>
												<duration>12795</duration>
												<rate>
													<timebase>30</timebase>
													<ntsc>TRUE</ntsc>
												</rate>
												<start>0</start>
												<end>2661</end>
												<in>0</in>
												<out>2661</out>
												<pproTicksIn>0</pproTicksIn>
												<pproTicksOut>22553750419200</pproTicksOut>
												<sequence id="sequence-68"/>
												<filter>
													<effect>
														<name>Basic Motion</name>
														<effectid>basic</effectid>
														<effectcategory>motion</effectcategory>
														<effecttype>motion</effecttype>
														<mediatype>video</mediatype>
														<pproBypass>false</pproBypass>
														<parameter authoringApp="PremierePro">
															<parameterid>scale</parameterid>
															<name>Scale</name>
															<valuemin>0</valuemin>
															<valuemax>1000</valuemax>
															<value>66.6667</value>
														</parameter>
														<parameter authoringApp="PremierePro">
															<parameterid>rotation</parameterid>
															<name>Rotation</name>
															<valuemin>-8640</valuemin>
															<valuemax>8640</valuemax>
															<value>0</value>
														</parameter>
														<parameter authoringApp="PremierePro">
															<parameterid>center</parameterid>
															<name>Center</name>
															<value>
																<horiz>-0.5</horiz>
																<vert>-0.5</vert>
															</value>
														</parameter>
														<parameter authoringApp="PremierePro">
															<parameterid>centerOffset</parameterid>
															<name>Anchor Point</name>
															<value>
																<horiz>0</horiz>
																<vert>0</vert>
															</value>
														</parameter>
														<parameter authoringApp="PremierePro">
															<parameterid>antiflicker</parameterid>
															<name>Anti-flicker Filter</name>
															<valuemin>0.0</valuemin>
															<valuemax>1.0</valuemax>
															<value>0</value>
														</parameter>
													</effect>
												</filter>
												<link>
													<linkclipref>clipitem-1229</linkclipref>
													<mediatype>video</mediatype>
													<trackindex>1</trackindex>
													<clipindex>1</clipindex>
												</link>
												<link>
													<linkclipref>clipitem-1233</linkclipref>
													<mediatype>audio</mediatype>
													<trackindex>1</trackindex>
													<clipindex>1</clipindex>
													<groupindex>1</groupindex>
												</link>
												<link>
													<linkclipref>clipitem-1236</linkclipref>
													<mediatype>audio</mediatype>
													<trackindex>2</trackindex>
													<clipindex>1</clipindex>
													<groupindex>1</groupindex>
												</link>
												<labels>
													<label2>Forest</label2>
												</labels>
											</clipitem>
											<clipitem id="clipitem-1230">
												<masterclipid>masterclip-261</masterclipid>
												<name>SAT_chalk_1m40s</name>
												<enabled>TRUE</enabled>
												<duration>4510</duration>
												<rate>
													<timebase>30</timebase>
													<ntsc>TRUE</ntsc>
												</rate>
												<start>2772</start>
												<end>5230</end>
												<in>0</in>
												<out>2458</out>
												<pproTicksIn>0</pproTicksIn>
												<pproTicksOut>20833189977600</pproTicksOut>
												<sequence id="sequence-69"/>
												<filter>
													<effect>
														<name>Basic Motion</name>
														<effectid>basic</effectid>
														<effectcategory>motion</effectcategory>
														<effecttype>motion</effecttype>
														<mediatype>video</mediatype>
														<pproBypass>false</pproBypass>
														<parameter authoringApp="PremierePro">
															<parameterid>scale</parameterid>
															<name>Scale</name>
															<valuemin>0</valuemin>
															<valuemax>1000</valuemax>
															<value>66.6667</value>
														</parameter>
														<parameter authoringApp="PremierePro">
															<parameterid>rotation</parameterid>
															<name>Rotation</name>
															<valuemin>-8640</valuemin>
															<valuemax>8640</valuemax>
															<value>0</value>
														</parameter>
														<parameter authoringApp="PremierePro">
															<parameterid>center</parameterid>
															<name>Center</name>
															<value>
																<horiz>-0.5</horiz>
																<vert>-0.5</vert>
															</value>
														</parameter>
														<parameter authoringApp="PremierePro">
															<parameterid>centerOffset</parameterid>
															<name>Anchor Point</name>
															<value>
																<horiz>0</horiz>
																<vert>0</vert>
															</value>
														</parameter>
														<parameter authoringApp="PremierePro">
															<parameterid>antiflicker</parameterid>
															<name>Anti-flicker Filter</name>
															<valuemin>0.0</valuemin>
															<valuemax>1.0</valuemax>
															<value>0</value>
														</parameter>
													</effect>
												</filter>
												<link>
													<linkclipref>clipitem-1230</linkclipref>
													<mediatype>video</mediatype>
													<trackindex>1</trackindex>
													<clipindex>2</clipindex>
												</link>
												<link>
													<linkclipref>clipitem-1234</linkclipref>
													<mediatype>audio</mediatype>
													<trackindex>1</trackindex>
													<clipindex>2</clipindex>
													<groupindex>1</groupindex>
												</link>
												<link>
													<linkclipref>clipitem-1237</linkclipref>
													<mediatype>audio</mediatype>
													<trackindex>2</trackindex>
													<clipindex>2</clipindex>
													<groupindex>1</groupindex>
												</link>
												<labels>
													<label2>Forest</label2>
												</labels>
											</clipitem>
											<clipitem id="clipitem-1231">
												<masterclipid>masterclip-33</masterclipid>
												<name>01.5_ATM_Content Submit QR_Music 2.mp4</name>
												<enabled>TRUE</enabled>
												<duration>299</duration>
												<rate>
													<timebase>30</timebase>
													<ntsc>TRUE</ntsc>
												</rate>
												<start>5230</start>
												<end>5529</end>
												<in>0</in>
												<out>299</out>
												<pproTicksIn>0</pproTicksIn>
												<pproTicksOut>2534224492800</pproTicksOut>
												<alphatype>none</alphatype>
												<file id="file-33"/>
												<filter>
													<effect>
														<name>Basic Motion</name>
														<effectid>basic</effectid>
														<effectcategory>motion</effectcategory>
														<effecttype>motion</effecttype>
														<mediatype>video</mediatype>
														<pproBypass>false</pproBypass>
														<parameter authoringApp="PremierePro">
															<parameterid>scale</parameterid>
															<name>Scale</name>
															<valuemin>0</valuemin>
															<valuemax>1000</valuemax>
															<value>66.6667</value>
														</parameter>
														<parameter authoringApp="PremierePro">
															<parameterid>rotation</parameterid>
															<name>Rotation</name>
															<valuemin>-8640</valuemin>
															<valuemax>8640</valuemax>
															<value>0</value>
														</parameter>
														<parameter authoringApp="PremierePro">
															<parameterid>center</parameterid>
															<name>Center</name>
															<value>
																<horiz>0</horiz>
																<vert>0</vert>
															</value>
														</parameter>
														<parameter authoringApp="PremierePro">
															<parameterid>centerOffset</parameterid>
															<name>Anchor Point</name>
															<value>
																<horiz>0</horiz>
																<vert>0</vert>
															</value>
														</parameter>
														<parameter authoringApp="PremierePro">
															<parameterid>antiflicker</parameterid>
															<name>Anti-flicker Filter</name>
															<valuemin>0.0</valuemin>
															<valuemax>1.0</valuemax>
															<value>0</value>
														</parameter>
													</effect>
												</filter>
												<link>
													<linkclipref>clipitem-1231</linkclipref>
													<mediatype>video</mediatype>
													<trackindex>1</trackindex>
													<clipindex>3</clipindex>
												</link>
												<link>
													<linkclipref>clipitem-1235</linkclipref>
													<mediatype>audio</mediatype>
													<trackindex>1</trackindex>
													<clipindex>3</clipindex>
													<groupindex>1</groupindex>
												</link>
												<link>
													<linkclipref>clipitem-1238</linkclipref>
													<mediatype>audio</mediatype>
													<trackindex>2</trackindex>
													<clipindex>3</clipindex>
													<groupindex>1</groupindex>
												</link>
												<logginginfo>
													<description></description>
													<scene></scene>
													<shottake></shottake>
													<lognote></lognote>
													<good></good>
													<originalvideofilename></originalvideofilename>
													<originalaudiofilename></originalaudiofilename>
												</logginginfo>
												<colorinfo>
													<lut></lut>
													<lut1></lut1>
													<asc_sop></asc_sop>
													<asc_sat></asc_sat>
													<lut2></lut2>
												</colorinfo>
												<labels>
													<label2>Iris</label2>
												</labels>
											</clipitem>
											<enabled>TRUE</enabled>
											<locked>FALSE</locked>
										</track>
										<track TL.SQTrackShy="0" TL.SQTrackExpandedHeight="25" TL.SQTrackExpanded="0" MZ.TrackTargeted="0">
											<clipitem id="clipitem-1232">
												<masterclipid>masterclip-194</masterclipid>
												<name>OS Trans 01</name>
												<enabled>TRUE</enabled>
												<duration>417</duration>
												<rate>
													<timebase>30</timebase>
													<ntsc>TRUE</ntsc>
												</rate>
												<start>2639</start>
												<end>2828</end>
												<in>0</in>
												<out>189</out>
												<pproTicksIn>0</pproTicksIn>
												<pproTicksOut>1601901100800</pproTicksOut>
												<sequence id="sequence-5"/>
												<filter>
													<effect>
														<name>Basic Motion</name>
														<effectid>basic</effectid>
														<effectcategory>motion</effectcategory>
														<effecttype>motion</effecttype>
														<mediatype>video</mediatype>
														<pproBypass>false</pproBypass>
														<parameter authoringApp="PremierePro">
															<parameterid>scale</parameterid>
															<name>Scale</name>
															<valuemin>0</valuemin>
															<valuemax>1000</valuemax>
															<value>66.6667</value>
														</parameter>
														<parameter authoringApp="PremierePro">
															<parameterid>rotation</parameterid>
															<name>Rotation</name>
															<valuemin>-8640</valuemin>
															<valuemax>8640</valuemax>
															<value>0</value>
														</parameter>
														<parameter authoringApp="PremierePro">
															<parameterid>center</parameterid>
															<name>Center</name>
															<value>
																<horiz>-0.5</horiz>
																<vert>-0.5</vert>
															</value>
														</parameter>
														<parameter authoringApp="PremierePro">
															<parameterid>centerOffset</parameterid>
															<name>Anchor Point</name>
															<value>
																<horiz>0</horiz>
																<vert>0</vert>
															</value>
														</parameter>
														<parameter authoringApp="PremierePro">
															<parameterid>antiflicker</parameterid>
															<name>Anti-flicker Filter</name>
															<valuemin>0.0</valuemin>
															<valuemax>1.0</valuemax>
															<value>0</value>
														</parameter>
													</effect>
												</filter>
													<marker>
														<comment></comment>
														<name></name>
														<in>133</in>
														<out>-1</out>
													</marker>
													<marker>
														<comment></comment>
														<name></name>
														<in>22</in>
														<out>-1</out>
													</marker>
												<link>
													<linkclipref>clipitem-1232</linkclipref>
													<mediatype>video</mediatype>
													<trackindex>2</trackindex>
													<clipindex>1</clipindex>
												</link>
												<link>
													<linkclipref>clipitem-1239</linkclipref>
													<mediatype>audio</mediatype>
													<trackindex>3</trackindex>
													<clipindex>1</clipindex>
													<groupindex>1</groupindex>
												</link>
												<link>
													<linkclipref>clipitem-1240</linkclipref>
													<mediatype>audio</mediatype>
													<trackindex>4</trackindex>
													<clipindex>1</clipindex>
													<groupindex>1</groupindex>
												</link>
												<labels>
													<label2>Teal</label2>
												</labels>
											</clipitem>
											<enabled>TRUE</enabled>
											<locked>FALSE</locked>
										</track>
									</video>
									<audio>
										<numOutputChannels>2</numOutputChannels>
										<format>
											<samplecharacteristics>
												<depth>16</depth>
												<samplerate>44100</samplerate>
											</samplecharacteristics>
										</format>
										<outputs>
											<group>
												<index>1</index>
												<numchannels>1</numchannels>
												<downmix>0</downmix>
												<channel>
													<index>1</index>
												</channel>
											</group>
											<group>
												<index>2</index>
												<numchannels>1</numchannels>
												<downmix>0</downmix>
												<channel>
													<index>2</index>
												</channel>
											</group>
										</outputs>
										<track TL.SQTrackAudioKeyframeStyle="0" TL.SQTrackShy="0" TL.SQTrackExpandedHeight="25" TL.SQTrackExpanded="0" MZ.TrackTargeted="1" PannerCurrentValue="0.5" PannerIsInverted="true" PannerStartKeyframe="-91445760000000000,0.5,0,0,0,0,0,0" PannerName="Balance" currentExplodedTrackIndex="0" totalExplodedTrackCount="2" premiereTrackType="Stereo">
											<clipitem id="clipitem-1233" premiereChannelType="stereo">
												<masterclipid>masterclip-260</masterclipid>
												<name>MACRO_yt object_1m40s</name>
												<enabled>TRUE</enabled>
												<duration>12795</duration>
												<rate>
													<timebase>30</timebase>
													<ntsc>TRUE</ntsc>
												</rate>
												<start>0</start>
												<end>2661</end>
												<in>0</in>
												<out>2661</out>
												<pproTicksIn>0</pproTicksIn>
												<pproTicksOut>22553750419200</pproTicksOut>
												<sequence id="sequence-68"/>
												<sourcetrack>
													<mediatype>audio</mediatype>
													<trackindex>0</trackindex>
												</sourcetrack>
												<link>
													<linkclipref>clipitem-1229</linkclipref>
													<mediatype>video</mediatype>
													<trackindex>1</trackindex>
													<clipindex>1</clipindex>
												</link>
												<link>
													<linkclipref>clipitem-1233</linkclipref>
													<mediatype>audio</mediatype>
													<trackindex>1</trackindex>
													<clipindex>1</clipindex>
													<groupindex>1</groupindex>
												</link>
												<link>
													<linkclipref>clipitem-1236</linkclipref>
													<mediatype>audio</mediatype>
													<trackindex>2</trackindex>
													<clipindex>1</clipindex>
													<groupindex>1</groupindex>
												</link>
												<labels>
													<label2>Forest</label2>
												</labels>
											</clipitem>
											<clipitem id="clipitem-1234" premiereChannelType="stereo">
												<masterclipid>masterclip-261</masterclipid>
												<name>SAT_chalk_1m40s</name>
												<enabled>TRUE</enabled>
												<duration>4510</duration>
												<rate>
													<timebase>30</timebase>
													<ntsc>TRUE</ntsc>
												</rate>
												<start>2772</start>
												<end>5230</end>
												<in>0</in>
												<out>2458</out>
												<pproTicksIn>0</pproTicksIn>
												<pproTicksOut>20833189977600</pproTicksOut>
												<sequence id="sequence-69"/>
												<sourcetrack>
													<mediatype>audio</mediatype>
													<trackindex>0</trackindex>
												</sourcetrack>
												<link>
													<linkclipref>clipitem-1230</linkclipref>
													<mediatype>video</mediatype>
													<trackindex>1</trackindex>
													<clipindex>2</clipindex>
												</link>
												<link>
													<linkclipref>clipitem-1234</linkclipref>
													<mediatype>audio</mediatype>
													<trackindex>1</trackindex>
													<clipindex>2</clipindex>
													<groupindex>1</groupindex>
												</link>
												<link>
													<linkclipref>clipitem-1237</linkclipref>
													<mediatype>audio</mediatype>
													<trackindex>2</trackindex>
													<clipindex>2</clipindex>
													<groupindex>1</groupindex>
												</link>
												<labels>
													<label2>Forest</label2>
												</labels>
											</clipitem>
											<clipitem id="clipitem-1235" premiereChannelType="stereo">
												<masterclipid>masterclip-33</masterclipid>
												<name>01.5_ATM_Content Submit QR_Music 2.mp4</name>
												<enabled>TRUE</enabled>
												<duration>299</duration>
												<rate>
													<timebase>30</timebase>
													<ntsc>TRUE</ntsc>
												</rate>
												<start>5230</start>
												<end>5529</end>
												<in>0</in>
												<out>299</out>
												<pproTicksIn>0</pproTicksIn>
												<pproTicksOut>2534224492800</pproTicksOut>
												<file id="file-33"/>
												<sourcetrack>
													<mediatype>audio</mediatype>
													<trackindex>1</trackindex>
												</sourcetrack>
												<link>
													<linkclipref>clipitem-1231</linkclipref>
													<mediatype>video</mediatype>
													<trackindex>1</trackindex>
													<clipindex>3</clipindex>
												</link>
												<link>
													<linkclipref>clipitem-1235</linkclipref>
													<mediatype>audio</mediatype>
													<trackindex>1</trackindex>
													<clipindex>3</clipindex>
													<groupindex>1</groupindex>
												</link>
												<link>
													<linkclipref>clipitem-1238</linkclipref>
													<mediatype>audio</mediatype>
													<trackindex>2</trackindex>
													<clipindex>3</clipindex>
													<groupindex>1</groupindex>
												</link>
												<logginginfo>
													<description></description>
													<scene></scene>
													<shottake></shottake>
													<lognote></lognote>
													<good></good>
													<originalvideofilename></originalvideofilename>
													<originalaudiofilename></originalaudiofilename>
												</logginginfo>
												<colorinfo>
													<lut></lut>
													<lut1></lut1>
													<asc_sop></asc_sop>
													<asc_sat></asc_sat>
													<lut2></lut2>
												</colorinfo>
												<labels>
													<label2>Iris</label2>
												</labels>
											</clipitem>
											<enabled>TRUE</enabled>
											<locked>FALSE</locked>
											<outputchannelindex>1</outputchannelindex>
										</track>
										<track TL.SQTrackAudioKeyframeStyle="0" TL.SQTrackShy="0" TL.SQTrackExpandedHeight="25" TL.SQTrackExpanded="0" MZ.TrackTargeted="1" PannerCurrentValue="0.5" PannerIsInverted="true" PannerStartKeyframe="-91445760000000000,0.5,0,0,0,0,0,0" PannerName="Balance" currentExplodedTrackIndex="1" totalExplodedTrackCount="2" premiereTrackType="Stereo">
											<clipitem id="clipitem-1236" premiereChannelType="stereo">
												<masterclipid>masterclip-260</masterclipid>
												<name>MACRO_yt object_1m40s</name>
												<enabled>TRUE</enabled>
												<duration>12795</duration>
												<rate>
													<timebase>30</timebase>
													<ntsc>TRUE</ntsc>
												</rate>
												<start>0</start>
												<end>2661</end>
												<in>0</in>
												<out>2661</out>
												<pproTicksIn>0</pproTicksIn>
												<pproTicksOut>22553750419200</pproTicksOut>
												<sequence id="sequence-68"/>
												<sourcetrack>
													<mediatype>audio</mediatype>
													<trackindex>1</trackindex>
												</sourcetrack>
												<link>
													<linkclipref>clipitem-1229</linkclipref>
													<mediatype>video</mediatype>
													<trackindex>1</trackindex>
													<clipindex>1</clipindex>
												</link>
												<link>
													<linkclipref>clipitem-1233</linkclipref>
													<mediatype>audio</mediatype>
													<trackindex>1</trackindex>
													<clipindex>1</clipindex>
													<groupindex>1</groupindex>
												</link>
												<link>
													<linkclipref>clipitem-1236</linkclipref>
													<mediatype>audio</mediatype>
													<trackindex>2</trackindex>
													<clipindex>1</clipindex>
													<groupindex>1</groupindex>
												</link>
												<labels>
													<label2>Forest</label2>
												</labels>
											</clipitem>
											<clipitem id="clipitem-1237" premiereChannelType="stereo">
												<masterclipid>masterclip-261</masterclipid>
												<name>SAT_chalk_1m40s</name>
												<enabled>TRUE</enabled>
												<duration>4510</duration>
												<rate>
													<timebase>30</timebase>
													<ntsc>TRUE</ntsc>
												</rate>
												<start>2772</start>
												<end>5230</end>
												<in>0</in>
												<out>2458</out>
												<pproTicksIn>0</pproTicksIn>
												<pproTicksOut>20833189977600</pproTicksOut>
												<sequence id="sequence-69"/>
												<sourcetrack>
													<mediatype>audio</mediatype>
													<trackindex>1</trackindex>
												</sourcetrack>
												<link>
													<linkclipref>clipitem-1230</linkclipref>
													<mediatype>video</mediatype>
													<trackindex>1</trackindex>
													<clipindex>2</clipindex>
												</link>
												<link>
													<linkclipref>clipitem-1234</linkclipref>
													<mediatype>audio</mediatype>
													<trackindex>1</trackindex>
													<clipindex>2</clipindex>
													<groupindex>1</groupindex>
												</link>
												<link>
													<linkclipref>clipitem-1237</linkclipref>
													<mediatype>audio</mediatype>
													<trackindex>2</trackindex>
													<clipindex>2</clipindex>
													<groupindex>1</groupindex>
												</link>
												<labels>
													<label2>Forest</label2>
												</labels>
											</clipitem>
											<clipitem id="clipitem-1238" premiereChannelType="stereo">
												<masterclipid>masterclip-33</masterclipid>
												<name>01.5_ATM_Content Submit QR_Music 2.mp4</name>
												<enabled>TRUE</enabled>
												<duration>299</duration>
												<rate>
													<timebase>30</timebase>
													<ntsc>TRUE</ntsc>
												</rate>
												<start>5230</start>
												<end>5529</end>
												<in>0</in>
												<out>299</out>
												<pproTicksIn>0</pproTicksIn>
												<pproTicksOut>2534224492800</pproTicksOut>
												<file id="file-33"/>
												<sourcetrack>
													<mediatype>audio</mediatype>
													<trackindex>2</trackindex>
												</sourcetrack>
												<link>
													<linkclipref>clipitem-1231</linkclipref>
													<mediatype>video</mediatype>
													<trackindex>1</trackindex>
													<clipindex>3</clipindex>
												</link>
												<link>
													<linkclipref>clipitem-1235</linkclipref>
													<mediatype>audio</mediatype>
													<trackindex>1</trackindex>
													<clipindex>3</clipindex>
													<groupindex>1</groupindex>
												</link>
												<link>
													<linkclipref>clipitem-1238</linkclipref>
													<mediatype>audio</mediatype>
													<trackindex>2</trackindex>
													<clipindex>3</clipindex>
													<groupindex>1</groupindex>
												</link>
												<logginginfo>
													<description></description>
													<scene></scene>
													<shottake></shottake>
													<lognote></lognote>
													<good></good>
													<originalvideofilename></originalvideofilename>
													<originalaudiofilename></originalaudiofilename>
												</logginginfo>
												<colorinfo>
													<lut></lut>
													<lut1></lut1>
													<asc_sop></asc_sop>
													<asc_sat></asc_sat>
													<lut2></lut2>
												</colorinfo>
												<labels>
													<label2>Iris</label2>
												</labels>
											</clipitem>
											<enabled>TRUE</enabled>
											<locked>FALSE</locked>
											<outputchannelindex>2</outputchannelindex>
										</track>
										<track TL.SQTrackAudioKeyframeStyle="0" TL.SQTrackShy="0" TL.SQTrackExpandedHeight="25" TL.SQTrackExpanded="0" MZ.TrackTargeted="0" PannerCurrentValue="0.5" PannerIsInverted="true" PannerStartKeyframe="-91445760000000000,0.5,0,0,0,0,0,0" PannerName="Balance" currentExplodedTrackIndex="0" totalExplodedTrackCount="2" premiereTrackType="Stereo">
											<clipitem id="clipitem-1239" premiereChannelType="stereo">
												<masterclipid>masterclip-194</masterclipid>
												<name>OS Trans 01</name>
												<enabled>TRUE</enabled>
												<duration>417</duration>
												<rate>
													<timebase>30</timebase>
													<ntsc>TRUE</ntsc>
												</rate>
												<start>2639</start>
												<end>2828</end>
												<in>0</in>
												<out>189</out>
												<pproTicksIn>0</pproTicksIn>
												<pproTicksOut>1601901100800</pproTicksOut>
												<sequence id="sequence-5"/>
												<sourcetrack>
													<mediatype>audio</mediatype>
													<trackindex>0</trackindex>
												</sourcetrack>
													<marker>
														<comment></comment>
														<name></name>
														<in>133</in>
														<out>-1</out>
													</marker>
													<marker>
														<comment></comment>
														<name></name>
														<in>22</in>
														<out>-1</out>
													</marker>
												<link>
													<linkclipref>clipitem-1232</linkclipref>
													<mediatype>video</mediatype>
													<trackindex>2</trackindex>
													<clipindex>1</clipindex>
												</link>
												<link>
													<linkclipref>clipitem-1239</linkclipref>
													<mediatype>audio</mediatype>
													<trackindex>3</trackindex>
													<clipindex>1</clipindex>
													<groupindex>1</groupindex>
												</link>
												<link>
													<linkclipref>clipitem-1240</linkclipref>
													<mediatype>audio</mediatype>
													<trackindex>4</trackindex>
													<clipindex>1</clipindex>
													<groupindex>1</groupindex>
												</link>
												<labels>
													<label2>Teal</label2>
												</labels>
											</clipitem>
											<enabled>TRUE</enabled>
											<locked>FALSE</locked>
											<outputchannelindex>1</outputchannelindex>
										</track>
										<track TL.SQTrackAudioKeyframeStyle="0" TL.SQTrackShy="0" TL.SQTrackExpandedHeight="25" TL.SQTrackExpanded="0" MZ.TrackTargeted="0" PannerCurrentValue="0.5" PannerIsInverted="true" PannerStartKeyframe="-91445760000000000,0.5,0,0,0,0,0,0" PannerName="Balance" currentExplodedTrackIndex="1" totalExplodedTrackCount="2" premiereTrackType="Stereo">
											<clipitem id="clipitem-1240" premiereChannelType="stereo">
												<masterclipid>masterclip-194</masterclipid>
												<name>OS Trans 01</name>
												<enabled>TRUE</enabled>
												<duration>417</duration>
												<rate>
													<timebase>30</timebase>
													<ntsc>TRUE</ntsc>
												</rate>
												<start>2639</start>
												<end>2828</end>
												<in>0</in>
												<out>189</out>
												<pproTicksIn>0</pproTicksIn>
												<pproTicksOut>1601901100800</pproTicksOut>
												<sequence id="sequence-5"/>
												<sourcetrack>
													<mediatype>audio</mediatype>
													<trackindex>1</trackindex>
												</sourcetrack>
													<marker>
														<comment></comment>
														<name></name>
														<in>133</in>
														<out>-1</out>
													</marker>
													<marker>
														<comment></comment>
														<name></name>
														<in>22</in>
														<out>-1</out>
													</marker>
												<link>
													<linkclipref>clipitem-1232</linkclipref>
													<mediatype>video</mediatype>
													<trackindex>2</trackindex>
													<clipindex>1</clipindex>
												</link>
												<link>
													<linkclipref>clipitem-1239</linkclipref>
													<mediatype>audio</mediatype>
													<trackindex>3</trackindex>
													<clipindex>1</clipindex>
													<groupindex>1</groupindex>
												</link>
												<link>
													<linkclipref>clipitem-1240</linkclipref>
													<mediatype>audio</mediatype>
													<trackindex>4</trackindex>
													<clipindex>1</clipindex>
													<groupindex>1</groupindex>
												</link>
												<labels>
													<label2>Teal</label2>
												</labels>
											</clipitem>
											<enabled>TRUE</enabled>
											<locked>FALSE</locked>
											<outputchannelindex>2</outputchannelindex>
										</track>
									</audio>
								</media>
								<timecode>
									<rate>
										<timebase>30</timebase>
										<ntsc>TRUE</ntsc>
									</rate>
									<string>00:00:00:00</string>
									<frame>0</frame>
									<displayformat>NDF</displayformat>
								</timecode>
								<labels>
									<label2>Forest</label2>
								</labels>
								<logginginfo>
									<description></description>
									<scene></scene>
									<shottake></shottake>
									<lognote></lognote>
									<good></good>
									<originalvideofilename></originalvideofilename>
									<originalaudiofilename></originalaudiofilename>
								</logginginfo>
							</sequence>
						</children>
					</bin>
					<sequence id="sequence-75"/>
					<sequence id="sequence-77"/>
					<sequence id="sequence-74"/>
					<sequence id="sequence-78"/>
					<sequence id="sequence-76"/>
					<sequence id="sequence-81"/>
					<sequence id="sequence-98" TL.SQAudioVisibleBase="0" TL.SQVideoVisibleBase="0" TL.SQVisibleBaseTime="0" TL.SQAVDividerPosition="0.5" TL.SQHideShyTracks="0" TL.SQHeaderWidth="236" TL.SQDataTrackViewControlState="0" Monitor.ProgramZoomOut="48548621721600" Monitor.ProgramZoomIn="0" TL.SQTimePerPixel="0.27637033625056823" AM.TrackVScrollPosition="0" AM.TrackScrollPosition="0" MZ.EditLine="15586751980800" MZ.Sequence.PreviewFrameSizeHeight="1080" MZ.Sequence.PreviewFrameSizeWidth="1920" MZ.Sequence.AudioTimeDisplayFormat="200" MZ.Sequence.PreviewRenderingClassID="1297106761" MZ.Sequence.PreviewRenderingPresetCodec="1297107278" MZ.Sequence.PreviewRenderingPresetPath="EncoderPresets/SequencePreview/795454d9-d3c2-429d-9474-923ab13b7018/I-Frame Only MPEG.epr" MZ.Sequence.PreviewUseMaxRenderQuality="false" MZ.Sequence.PreviewUseMaxBitDepth="false" MZ.Sequence.EditingModeGUID="795454d9-d3c2-429d-9474-923ab13b7018" MZ.Sequence.VideoTimeDisplayFormat="103" MZ.WorkOutPoint="15705411321600" MZ.WorkInPoint="0" explodedTracks="true">
						<uuid>02ccd807-53aa-44f7-864d-16fcd929558a</uuid>
						<duration>5728</duration>
						<rate>
							<timebase>30</timebase>
							<ntsc>TRUE</ntsc>
						</rate>
						<name>ATM_ODDLY SATISFYING_1553</name>
						<media>
							<video>
								<format>
									<samplecharacteristics>
										<rate>
											<timebase>30</timebase>
											<ntsc>TRUE</ntsc>
										</rate>
										<codec>
											<name>Apple ProRes 422</name>
											<appspecificdata>
												<appname>Final Cut Pro</appname>
												<appmanufacturer>Apple Inc.</appmanufacturer>
												<appversion>7.0</appversion>
												<data>
													<qtcodec>
														<codecname>Apple ProRes 422</codecname>
														<codectypename>Apple ProRes 422</codectypename>
														<codectypecode>apcn</codectypecode>
														<codecvendorcode>appl</codecvendorcode>
														<spatialquality>1024</spatialquality>
														<temporalquality>0</temporalquality>
														<keyframerate>0</keyframerate>
														<datarate>0</datarate>
													</qtcodec>
												</data>
											</appspecificdata>
										</codec>
										<width>1920</width>
										<height>1080</height>
										<anamorphic>FALSE</anamorphic>
										<pixelaspectratio>square</pixelaspectratio>
										<fielddominance>none</fielddominance>
										<colordepth>24</colordepth>
									</samplecharacteristics>
								</format>
								<track TL.SQTrackShy="0" TL.SQTrackExpandedHeight="25" TL.SQTrackExpanded="0" MZ.TrackTargeted="1">
									<clipitem id="clipitem-1241">
										<masterclipid>masterclip-262</masterclipid>
										<name>artnest</name>
										<enabled>TRUE</enabled>
										<duration>3157</duration>
										<rate>
											<timebase>30</timebase>
											<ntsc>TRUE</ntsc>
										</rate>
										<start>0</start>
										<end>2065</end>
										<in>0</in>
										<out>2065</out>
										<pproTicksIn>0</pproTicksIn>
										<pproTicksOut>17502252768000</pproTicksOut>
										<sequence id="sequence-11"/>
										<filter>
											<effect>
												<name>Basic Motion</name>
												<effectid>basic</effectid>
												<effectcategory>motion</effectcategory>
												<effecttype>motion</effecttype>
												<mediatype>video</mediatype>
												<pproBypass>false</pproBypass>
												<parameter authoringApp="PremierePro">
													<parameterid>scale</parameterid>
													<name>Scale</name>
													<valuemin>0</valuemin>
													<valuemax>1000</valuemax>
													<value>245</value>
												</parameter>
												<parameter authoringApp="PremierePro">
													<parameterid>rotation</parameterid>
													<name>Rotation</name>
													<valuemin>-8640</valuemin>
													<valuemax>8640</valuemax>
													<value>0</value>
												</parameter>
												<parameter authoringApp="PremierePro">
													<parameterid>center</parameterid>
													<name>Center</name>
													<value>
														<horiz>-0.5</horiz>
														<vert>-0.5</vert>
													</value>
												</parameter>
												<parameter authoringApp="PremierePro">
													<parameterid>centerOffset</parameterid>
													<name>Anchor Point</name>
													<value>
														<horiz>0</horiz>
														<vert>0</vert>
													</value>
												</parameter>
												<parameter authoringApp="PremierePro">
													<parameterid>antiflicker</parameterid>
													<name>Anti-flicker Filter</name>
													<valuemin>0.0</valuemin>
													<valuemax>1.0</valuemax>
													<value>0</value>
												</parameter>
											</effect>
										</filter>
										<filter>
											<effect>
												<name>Gaussian Blur</name>
												<effectid>Gaussian Blur</effectid>
												<effectcategory>Blur</effectcategory>
												<effecttype>motion</effecttype>
												<mediatype>video</mediatype>
												<pproBypass>false</pproBypass>
												<parameter authoringApp="PremierePro">
													<parameterid>radius</parameterid>
													<name>Radius</name>
													<valuemin>0</valuemin>
													<valuemax>100</valuemax>
													<value>150</value>
												</parameter>
											</effect>
										</filter>
										<labels>
											<label2>Forest</label2>
										</labels>
									</clipitem>
									<clipitem id="clipitem-1242">
										<masterclipid>masterclip-102</masterclipid>
										<name>1273 - ART_@_artisticlifestyle6_1m50s.mp4</name>
										<enabled>TRUE</enabled>
										<duration>3157</duration>
										<rate>
											<timebase>30</timebase>
											<ntsc>TRUE</ntsc>
										</rate>
										<start>2065</start>
										<end>3146</end>
										<in>2076</in>
										<out>3157</out>
										<pproTicksIn>17595485107200</pproTicksIn>
										<pproTicksOut>26757681350400</pproTicksOut>
										<alphatype>none</alphatype>
										<file id="file-102"/>
										<filter>
											<effect>
												<name>Basic Motion</name>
												<effectid>basic</effectid>
												<effectcategory>motion</effectcategory>
												<effecttype>motion</effecttype>
												<mediatype>video</mediatype>
												<pproBypass>false</pproBypass>
												<parameter authoringApp="PremierePro">
													<parameterid>scale</parameterid>
													<name>Scale</name>
													<valuemin>0</valuemin>
													<valuemax>1000</valuemax>
													<value>150</value>
												</parameter>
												<parameter authoringApp="PremierePro">
													<parameterid>rotation</parameterid>
													<name>Rotation</name>
													<valuemin>-8640</valuemin>
													<valuemax>8640</valuemax>
													<value>0</value>
												</parameter>
												<parameter authoringApp="PremierePro">
													<parameterid>center</parameterid>
													<name>Center</name>
													<value>
														<horiz>0</horiz>
														<vert>0</vert>
													</value>
												</parameter>
												<parameter authoringApp="PremierePro">
													<parameterid>centerOffset</parameterid>
													<name>Anchor Point</name>
													<value>
														<horiz>0</horiz>
														<vert>0</vert>
													</value>
												</parameter>
												<parameter authoringApp="PremierePro">
													<parameterid>antiflicker</parameterid>
													<name>Anti-flicker Filter</name>
													<valuemin>0.0</valuemin>
													<valuemax>1.0</valuemax>
													<value>0</value>
												</parameter>
											</effect>
										</filter>
										<logginginfo>
											<description></description>
											<scene></scene>
											<shottake></shottake>
											<lognote></lognote>
											<good></good>
											<originalvideofilename></originalvideofilename>
											<originalaudiofilename></originalaudiofilename>
										</logginginfo>
										<colorinfo>
											<lut></lut>
											<lut1></lut1>
											<asc_sop></asc_sop>
											<asc_sat></asc_sat>
											<lut2></lut2>
										</colorinfo>
										<labels>
											<label2>Iris</label2>
										</labels>
									</clipitem>
									<clipitem id="clipitem-1243">
										<masterclipid>masterclip-263</masterclipid>
										<name>illuminatednest</name>
										<enabled>TRUE</enabled>
										<duration>2201</duration>
										<rate>
											<timebase>30</timebase>
											<ntsc>TRUE</ntsc>
										</rate>
										<start>3228</start>
										<end>5429</end>
										<in>0</in>
										<out>2201</out>
										<pproTicksIn>0</pproTicksIn>
										<pproTicksOut>18654943507200</pproTicksOut>
										<sequence id="sequence-12"/>
										<filter>
											<effect>
												<name>Basic Motion</name>
												<effectid>basic</effectid>
												<effectcategory>motion</effectcategory>
												<effecttype>motion</effecttype>
												<mediatype>video</mediatype>
												<pproBypass>false</pproBypass>
												<parameter authoringApp="PremierePro">
													<parameterid>scale</parameterid>
													<name>Scale</name>
													<valuemin>0</valuemin>
													<valuemax>1000</valuemax>
													<value>304</value>
												</parameter>
												<parameter authoringApp="PremierePro">
													<parameterid>rotation</parameterid>
													<name>Rotation</name>
													<valuemin>-8640</valuemin>
													<valuemax>8640</valuemax>
													<value>0</value>
												</parameter>
												<parameter authoringApp="PremierePro">
													<parameterid>center</parameterid>
													<name>Center</name>
													<value>
														<horiz>-0.5</horiz>
														<vert>-0.5</vert>
													</value>
												</parameter>
												<parameter authoringApp="PremierePro">
													<parameterid>centerOffset</parameterid>
													<name>Anchor Point</name>
													<value>
														<horiz>0</horiz>
														<vert>0</vert>
													</value>
												</parameter>
												<parameter authoringApp="PremierePro">
													<parameterid>antiflicker</parameterid>
													<name>Anti-flicker Filter</name>
													<valuemin>0.0</valuemin>
													<valuemax>1.0</valuemax>
													<value>0</value>
												</parameter>
											</effect>
										</filter>
										<filter>
											<effect>
												<name>Gaussian Blur</name>
												<effectid>Gaussian Blur</effectid>
												<effectcategory>Blur</effectcategory>
												<effecttype>motion</effecttype>
												<mediatype>video</mediatype>
												<pproBypass>false</pproBypass>
												<parameter authoringApp="PremierePro">
													<parameterid>radius</parameterid>
													<name>Radius</name>
													<valuemin>0</valuemin>
													<valuemax>100</valuemax>
													<value>150</value>
												</parameter>
											</effect>
										</filter>
										<labels>
											<label2>Forest</label2>
										</labels>
									</clipitem>
									<clipitem id="clipitem-1244">
										<masterclipid>masterclip-33</masterclipid>
										<name>01.5_ATM_Content Submit QR_Music 2.mp4</name>
										<enabled>TRUE</enabled>
										<duration>299</duration>
										<rate>
											<timebase>30</timebase>
											<ntsc>TRUE</ntsc>
										</rate>
										<start>5429</start>
										<end>5728</end>
										<in>0</in>
										<out>299</out>
										<pproTicksIn>0</pproTicksIn>
										<pproTicksOut>2534224492800</pproTicksOut>
										<alphatype>none</alphatype>
										<file id="file-33"/>
										<link>
											<linkclipref>clipitem-1244</linkclipref>
											<mediatype>video</mediatype>
											<trackindex>1</trackindex>
											<clipindex>4</clipindex>
										</link>
										<link>
											<linkclipref>clipitem-1254</linkclipref>
											<mediatype>audio</mediatype>
											<trackindex>1</trackindex>
											<clipindex>4</clipindex>
											<groupindex>1</groupindex>
										</link>
										<link>
											<linkclipref>clipitem-1256</linkclipref>
											<mediatype>audio</mediatype>
											<trackindex>2</trackindex>
											<clipindex>4</clipindex>
											<groupindex>1</groupindex>
										</link>
										<logginginfo>
											<description></description>
											<scene></scene>
											<shottake></shottake>
											<lognote></lognote>
											<good></good>
											<originalvideofilename></originalvideofilename>
											<originalaudiofilename></originalaudiofilename>
										</logginginfo>
										<colorinfo>
											<lut></lut>
											<lut1></lut1>
											<asc_sop></asc_sop>
											<asc_sat></asc_sat>
											<lut2></lut2>
										</colorinfo>
										<labels>
											<label2>Iris</label2>
										</labels>
									</clipitem>
									<enabled>TRUE</enabled>
									<locked>FALSE</locked>
								</track>
								<track TL.SQTrackShy="0" TL.SQTrackExpandedHeight="25" TL.SQTrackExpanded="0" MZ.TrackTargeted="0">
									<clipitem id="clipitem-1245">
										<masterclipid>masterclip-262</masterclipid>
										<name>artnest</name>
										<enabled>TRUE</enabled>
										<duration>3157</duration>
										<rate>
											<timebase>30</timebase>
											<ntsc>TRUE</ntsc>
										</rate>
										<start>0</start>
										<end>2065</end>
										<in>0</in>
										<out>2065</out>
										<pproTicksIn>0</pproTicksIn>
										<pproTicksOut>17502252768000</pproTicksOut>
										<sequence id="sequence-11"/>
										<labels>
											<label2>Forest</label2>
										</labels>
									</clipitem>
									<clipitem id="clipitem-1246">
										<masterclipid>masterclip-122</masterclipid>
										<name>Adjustment Layer</name>
										<enabled>TRUE</enabled>
										<duration>1294705</duration>
										<rate>
											<timebase>30</timebase>
											<ntsc>TRUE</ntsc>
										</rate>
										<start>2065</start>
										<end>3146</end>
										<in>107892</in>
										<out>108973</out>
										<pproTicksIn>914456685542400</pproTicksIn>
										<pproTicksOut>923618881785600</pproTicksOut>
										<alphatype>none</alphatype>
										<file id="file-121"/>
										<filter>
											<effect>
												<name>Basic Motion</name>
												<effectid>basic</effectid>
												<effectcategory>motion</effectcategory>
												<effecttype>motion</effecttype>
												<mediatype>video</mediatype>
												<pproBypass>false</pproBypass>
												<parameter authoringApp="PremierePro">
													<parameterid>scale</parameterid>
													<name>Scale</name>
													<valuemin>0</valuemin>
													<valuemax>1000</valuemax>
													<value>150</value>
												</parameter>
												<parameter authoringApp="PremierePro">
													<parameterid>rotation</parameterid>
													<name>Rotation</name>
													<valuemin>-8640</valuemin>
													<valuemax>8640</valuemax>
													<value>0</value>
												</parameter>
												<parameter authoringApp="PremierePro">
													<parameterid>center</parameterid>
													<name>Center</name>
													<value>
														<horiz>0</horiz>
														<vert>0</vert>
													</value>
												</parameter>
												<parameter authoringApp="PremierePro">
													<parameterid>centerOffset</parameterid>
													<name>Anchor Point</name>
													<value>
														<horiz>0</horiz>
														<vert>0</vert>
													</value>
												</parameter>
												<parameter authoringApp="PremierePro">
													<parameterid>antiflicker</parameterid>
													<name>Anti-flicker Filter</name>
													<valuemin>0.0</valuemin>
													<valuemax>1.0</valuemax>
													<value>0</value>
												</parameter>
											</effect>
										</filter>
										<filter>
											<effect>
												<name>Gaussian Blur</name>
												<effectid>Gaussian Blur</effectid>
												<effectcategory>Blur</effectcategory>
												<effecttype>motion</effecttype>
												<mediatype>video</mediatype>
												<pproBypass>false</pproBypass>
												<parameter authoringApp="PremierePro">
													<parameterid>radius</parameterid>
													<name>Radius</name>
													<valuemin>0</valuemin>
													<valuemax>100</valuemax>
													<value>63</value>
												</parameter>
											</effect>
										</filter>
										<logginginfo>
											<description></description>
											<scene></scene>
											<shottake></shottake>
											<lognote></lognote>
											<good></good>
											<originalvideofilename></originalvideofilename>
											<originalaudiofilename></originalaudiofilename>
										</logginginfo>
										<colorinfo>
											<lut></lut>
											<lut1></lut1>
											<asc_sop></asc_sop>
											<asc_sat></asc_sat>
											<lut2></lut2>
										</colorinfo>
										<labels>
											<label2>Lavender</label2>
										</labels>
									</clipitem>
									<clipitem id="clipitem-1247">
										<masterclipid>masterclip-263</masterclipid>
										<name>illuminatednest</name>
										<enabled>TRUE</enabled>
										<duration>2201</duration>
										<rate>
											<timebase>30</timebase>
											<ntsc>TRUE</ntsc>
										</rate>
										<start>3228</start>
										<end>5429</end>
										<in>0</in>
										<out>2201</out>
										<pproTicksIn>0</pproTicksIn>
										<pproTicksOut>18654943507200</pproTicksOut>
										<sequence id="sequence-12"/>
										<labels>
											<label2>Forest</label2>
										</labels>
									</clipitem>
									<enabled>TRUE</enabled>
									<locked>FALSE</locked>
								</track>
								<track TL.SQTrackShy="0" TL.SQTrackExpandedHeight="25" TL.SQTrackExpanded="0" MZ.TrackTargeted="0">
									<clipitem id="clipitem-1248">
										<masterclipid>masterclip-34</masterclipid>
										<name>artisticlifestyle6</name>
										<enabled>TRUE</enabled>
										<duration>5844</duration>
										<rate>
											<timebase>30</timebase>
											<ntsc>TRUE</ntsc>
										</rate>
										<start>0</start>
										<end>3146</end>
										<in>0</in>
										<out>3146</out>
										<pproTicksIn>0</pproTicksIn>
										<pproTicksOut>26664449011200</pproTicksOut>
										<alphatype>straight</alphatype>
										<file id="file-34"/>
										<filter>
											<effect>
												<name>Basic Motion</name>
												<effectid>basic</effectid>
												<effectcategory>motion</effectcategory>
												<effecttype>motion</effecttype>
												<mediatype>video</mediatype>
												<pproBypass>false</pproBypass>
												<parameter authoringApp="PremierePro">
													<parameterid>scale</parameterid>
													<name>Scale</name>
													<valuemin>0</valuemin>
													<valuemax>1000</valuemax>
													<value>150</value>
												</parameter>
												<parameter authoringApp="PremierePro">
													<parameterid>rotation</parameterid>
													<name>Rotation</name>
													<valuemin>-8640</valuemin>
													<valuemax>8640</valuemax>
													<value>0</value>
												</parameter>
												<parameter authoringApp="PremierePro">
													<parameterid>center</parameterid>
													<name>Center</name>
													<value>
														<horiz>0</horiz>
														<vert>0</vert>
													</value>
												</parameter>
												<parameter authoringApp="PremierePro">
													<parameterid>centerOffset</parameterid>
													<name>Anchor Point</name>
													<value>
														<horiz>0</horiz>
														<vert>0</vert>
													</value>
												</parameter>
												<parameter authoringApp="PremierePro">
													<parameterid>antiflicker</parameterid>
													<name>Anti-flicker Filter</name>
													<valuemin>0.0</valuemin>
													<valuemax>1.0</valuemax>
													<value>0</value>
												</parameter>
											</effect>
										</filter>
										<logginginfo>
											<description></description>
											<scene></scene>
											<shottake></shottake>
											<lognote></lognote>
											<good></good>
											<originalvideofilename></originalvideofilename>
											<originalaudiofilename></originalaudiofilename>
										</logginginfo>
										<colorinfo>
											<lut></lut>
											<lut1></lut1>
											<asc_sop></asc_sop>
											<asc_sat></asc_sat>
											<lut2></lut2>
										</colorinfo>
										<labels>
											<label2>Rose</label2>
										</labels>
									</clipitem>
									<clipitem id="clipitem-1249">
										<masterclipid>masterclip-35</masterclipid>
										<name>@illuminatedbymia</name>
										<enabled>TRUE</enabled>
										<duration>5844</duration>
										<rate>
											<timebase>30</timebase>
											<ntsc>TRUE</ntsc>
										</rate>
										<start>3228</start>
										<end>5429</end>
										<in>0</in>
										<out>2201</out>
										<pproTicksIn>0</pproTicksIn>
										<pproTicksOut>18654943507200</pproTicksOut>
										<alphatype>straight</alphatype>
										<file id="file-35"/>
										<filter>
											<effect>
												<name>Basic Motion</name>
												<effectid>basic</effectid>
												<effectcategory>motion</effectcategory>
												<effecttype>motion</effecttype>
												<mediatype>video</mediatype>
												<pproBypass>false</pproBypass>
												<parameter authoringApp="PremierePro">
													<parameterid>scale</parameterid>
													<name>Scale</name>
													<valuemin>0</valuemin>
													<valuemax>1000</valuemax>
													<value>150</value>
												</parameter>
												<parameter authoringApp="PremierePro">
													<parameterid>rotation</parameterid>
													<name>Rotation</name>
													<valuemin>-8640</valuemin>
													<valuemax>8640</valuemax>
													<value>0</value>
												</parameter>
												<parameter authoringApp="PremierePro">
													<parameterid>center</parameterid>
													<name>Center</name>
													<value>
														<horiz>0</horiz>
														<vert>0</vert>
													</value>
												</parameter>
												<parameter authoringApp="PremierePro">
													<parameterid>centerOffset</parameterid>
													<name>Anchor Point</name>
													<value>
														<horiz>0</horiz>
														<vert>0</vert>
													</value>
												</parameter>
												<parameter authoringApp="PremierePro">
													<parameterid>antiflicker</parameterid>
													<name>Anti-flicker Filter</name>
													<valuemin>0.0</valuemin>
													<valuemax>1.0</valuemax>
													<value>0</value>
												</parameter>
											</effect>
										</filter>
										<logginginfo>
											<description></description>
											<scene></scene>
											<shottake></shottake>
											<lognote></lognote>
											<good></good>
											<originalvideofilename></originalvideofilename>
											<originalaudiofilename></originalaudiofilename>
										</logginginfo>
										<colorinfo>
											<lut></lut>
											<lut1></lut1>
											<asc_sop></asc_sop>
											<asc_sat></asc_sat>
											<lut2></lut2>
										</colorinfo>
										<labels>
											<label2>Rose</label2>
										</labels>
									</clipitem>
									<enabled>TRUE</enabled>
									<locked>FALSE</locked>
								</track>
								<track TL.SQTrackShy="0" TL.SQTrackExpandedHeight="25" TL.SQTrackExpanded="0" MZ.TrackTargeted="0">
									<clipitem id="clipitem-1250">
										<masterclipid>masterclip-106</masterclipid>
										<name>Bug and Lower Nest</name>
										<enabled>TRUE</enabled>
										<duration>14721</duration>
										<rate>
											<timebase>30</timebase>
											<ntsc>TRUE</ntsc>
										</rate>
										<start>0</start>
										<end>3146</end>
										<in>0</in>
										<out>3146</out>
										<pproTicksIn>0</pproTicksIn>
										<pproTicksOut>26664449011200</pproTicksOut>
										<sequence id="sequence-1"/>
										<labels>
											<label2>Cerulean</label2>
										</labels>
									</clipitem>
									<clipitem id="clipitem-1251">
										<masterclipid>masterclip-106</masterclipid>
										<name>Bug and Lower Nest</name>
										<enabled>TRUE</enabled>
										<duration>14721</duration>
										<rate>
											<timebase>30</timebase>
											<ntsc>TRUE</ntsc>
										</rate>
										<start>3228</start>
										<end>5429</end>
										<in>0</in>
										<out>2201</out>
										<pproTicksIn>0</pproTicksIn>
										<pproTicksOut>18654943507200</pproTicksOut>
										<sequence id="sequence-1"/>
										<labels>
											<label2>Cerulean</label2>
										</labels>
									</clipitem>
									<enabled>TRUE</enabled>
									<locked>FALSE</locked>
								</track>
								<track TL.SQTrackShy="0" TL.SQTrackExpandedHeight="25" TL.SQTrackExpanded="0" MZ.TrackTargeted="0">
									<clipitem id="clipitem-1252">
										<masterclipid>masterclip-203</masterclipid>
										<name>OS Trans 03</name>
										<enabled>TRUE</enabled>
										<duration>2613</duration>
										<rate>
											<timebase>30</timebase>
											<ntsc>TRUE</ntsc>
										</rate>
										<start>3096</start>
										<end>3292</end>
										<in>0</in>
										<out>196</out>
										<pproTicksIn>0</pproTicksIn>
										<pproTicksOut>1661230771200</pproTicksOut>
										<sequence id="sequence-4"/>
											<marker>
												<comment></comment>
												<name></name>
												<in>50</in>
												<out>-1</out>
											</marker>
											<marker>
												<comment></comment>
												<name></name>
												<in>132</in>
												<out>-1</out>
											</marker>
										<link>
											<linkclipref>clipitem-1252</linkclipref>
											<mediatype>video</mediatype>
											<trackindex>5</trackindex>
											<clipindex>1</clipindex>
										</link>
										<link>
											<linkclipref>clipitem-1257</linkclipref>
											<mediatype>audio</mediatype>
											<trackindex>7</trackindex>
											<clipindex>1</clipindex>
											<groupindex>1</groupindex>
										</link>
										<link>
											<linkclipref>clipitem-1258</linkclipref>
											<mediatype>audio</mediatype>
											<trackindex>8</trackindex>
											<clipindex>1</clipindex>
											<groupindex>1</groupindex>
										</link>
										<labels>
											<label2>Purple</label2>
										</labels>
									</clipitem>
									<enabled>TRUE</enabled>
									<locked>FALSE</locked>
								</track>
							</video>
							<audio>
								<numOutputChannels>2</numOutputChannels>
								<format>
									<samplecharacteristics>
										<depth>16</depth>
										<samplerate>44100</samplerate>
									</samplecharacteristics>
								</format>
								<outputs>
									<group>
										<index>1</index>
										<numchannels>1</numchannels>
										<downmix>0</downmix>
										<channel>
											<index>1</index>
										</channel>
									</group>
									<group>
										<index>2</index>
										<numchannels>1</numchannels>
										<downmix>0</downmix>
										<channel>
											<index>2</index>
										</channel>
									</group>
								</outputs>
								<track TL.SQTrackAudioKeyframeStyle="0" TL.SQTrackShy="0" TL.SQTrackExpandedHeight="25" TL.SQTrackExpanded="0" MZ.TrackTargeted="1" PannerCurrentValue="0.5" PannerIsInverted="true" PannerStartKeyframe="-91445760000000000,0.5,0,0,0,0,0,0" PannerName="Balance" currentExplodedTrackIndex="0" totalExplodedTrackCount="2" premiereTrackType="Stereo">
									<transitionitem>
										<start>3228</start>
										<end>3258</end>
										<pproTicksIn>27359453721600</pproTicksIn>
										<pproTicksOut>27613723737600</pproTicksOut>
										<alignment>start-black</alignment>
										<cutPointTicks>0</cutPointTicks>
										<rate>
											<timebase>30</timebase>
											<ntsc>TRUE</ntsc>
										</rate>
										<effect>
											<name>Cross Fade (+3dB)</name>
											<effectid>KGAudioTransCrossFade3dB</effectid>
											<effecttype>transition</effecttype>
											<mediatype>audio</mediatype>
											<wipecode>0</wipecode>
											<wipeaccuracy>100</wipeaccuracy>
											<startratio>0</startratio>
											<endratio>1</endratio>
											<reverse>FALSE</reverse>
										</effect>
									</transitionitem>
									<clipitem id="clipitem-1253" premiereChannelType="stereo">
										<masterclipid>masterclip-1</masterclipid>
										<name>ES_NEAR - SINY.mp3</name>
										<enabled>TRUE</enabled>
										<duration>2854</duration>
										<rate>
											<timebase>30</timebase>
											<ntsc>TRUE</ntsc>
										</rate>
										<start>-1</start>
										<end>-1</end>
										<in>0</in>
										<out>2201</out>
										<pproTicksIn>0</pproTicksIn>
										<pproTicksOut>18654943507200</pproTicksOut>
										<file id="file-1"/>
										<sourcetrack>
											<mediatype>audio</mediatype>
											<trackindex>1</trackindex>
										</sourcetrack>
										<link>
											<linkclipref>clipitem-1253</linkclipref>
											<mediatype>audio</mediatype>
											<trackindex>1</trackindex>
											<clipindex>2</clipindex>
											<groupindex>1</groupindex>
										</link>
										<link>
											<linkclipref>clipitem-1255</linkclipref>
											<mediatype>audio</mediatype>
											<trackindex>2</trackindex>
											<clipindex>2</clipindex>
											<groupindex>1</groupindex>
										</link>
										<logginginfo>
											<description></description>
											<scene></scene>
											<shottake></shottake>
											<lognote></lognote>
											<good></good>
											<originalvideofilename></originalvideofilename>
											<originalaudiofilename></originalaudiofilename>
										</logginginfo>
										<colorinfo>
											<lut></lut>
											<lut1></lut1>
											<asc_sop></asc_sop>
											<asc_sat></asc_sat>
											<lut2></lut2>
										</colorinfo>
										<labels>
											<label2>Forest</label2>
										</labels>
									</clipitem>
									<transitionitem>
										<start>5339</start>
										<end>5429</end>
										<pproTicksIn>45251587180800</pproTicksIn>
										<pproTicksOut>46014397228800</pproTicksOut>
										<alignment>end-black</alignment>
										<cutPointTicks>762810048000</cutPointTicks>
										<rate>
											<timebase>30</timebase>
											<ntsc>TRUE</ntsc>
										</rate>
										<effect>
											<name>Cross Fade (+3dB)</name>
											<effectid>KGAudioTransCrossFade3dB</effectid>
											<effecttype>transition</effecttype>
											<mediatype>audio</mediatype>
											<wipecode>0</wipecode>
											<wipeaccuracy>100</wipeaccuracy>
											<startratio>0</startratio>
											<endratio>1</endratio>
											<reverse>FALSE</reverse>
										</effect>
									</transitionitem>
									<clipitem id="clipitem-1254" premiereChannelType="stereo">
										<masterclipid>masterclip-33</masterclipid>
										<name>01.5_ATM_Content Submit QR_Music 2.mp4</name>
										<enabled>TRUE</enabled>
										<duration>299</duration>
										<rate>
											<timebase>30</timebase>
											<ntsc>TRUE</ntsc>
										</rate>
										<start>5429</start>
										<end>5728</end>
										<in>0</in>
										<out>299</out>
										<pproTicksIn>0</pproTicksIn>
										<pproTicksOut>2534224492800</pproTicksOut>
										<file id="file-33"/>
										<sourcetrack>
											<mediatype>audio</mediatype>
											<trackindex>1</trackindex>
										</sourcetrack>
										<filter>
											<effect>
												<name>Gain</name>
												<effectid>{61756678, 4761696e, 4b657947}</effectid>
												<effecttype>filter</effecttype>
												<mediatype>audio</mediatype>
												<parameter authoringApp="PremierePro">
													<parameterid>Gain(dB)</parameterid>
													<name>Gain(dB)</name>
													<valuemin>-96</valuemin>
													<valuemax>96</valuemax>
													<value>15</value>
												</parameter>
											</effect>
										</filter>
										<link>
											<linkclipref>clipitem-1244</linkclipref>
											<mediatype>video</mediatype>
											<trackindex>1</trackindex>
											<clipindex>4</clipindex>
										</link>
										<link>
											<linkclipref>clipitem-1254</linkclipref>
											<mediatype>audio</mediatype>
											<trackindex>1</trackindex>
											<clipindex>4</clipindex>
											<groupindex>1</groupindex>
										</link>
										<link>
											<linkclipref>clipitem-1256</linkclipref>
											<mediatype>audio</mediatype>
											<trackindex>2</trackindex>
											<clipindex>4</clipindex>
											<groupindex>1</groupindex>
										</link>
										<logginginfo>
											<description></description>
											<scene></scene>
											<shottake></shottake>
											<lognote></lognote>
											<good></good>
											<originalvideofilename></originalvideofilename>
											<originalaudiofilename></originalaudiofilename>
										</logginginfo>
										<colorinfo>
											<lut></lut>
											<lut1></lut1>
											<asc_sop></asc_sop>
											<asc_sat></asc_sat>
											<lut2></lut2>
										</colorinfo>
										<labels>
											<label2>Iris</label2>
										</labels>
									</clipitem>
									<enabled>TRUE</enabled>
									<locked>FALSE</locked>
									<filter>
										<effect>
											<name>Audio Levels</name>
											<effectid>audiolevels</effectid>
											<effectcategory>audiolevels</effectcategory>
											<effecttype>audiolevels</effecttype>
											<mediatype>audio</mediatype>
											<parameter authoringApp="PremierePro">
												<parameterid>level</parameterid>
												<name>Level</name>
												<valuemin>0</valuemin>
												<valuemax>3.98109</valuemax>
												<value>0.706272</value>
											</parameter>
										</effect>
									</filter>
									<outputchannelindex>1</outputchannelindex>
								</track>
								<track TL.SQTrackAudioKeyframeStyle="0" TL.SQTrackShy="0" TL.SQTrackExpandedHeight="25" TL.SQTrackExpanded="0" MZ.TrackTargeted="1" PannerCurrentValue="0.5" PannerIsInverted="true" PannerStartKeyframe="-91445760000000000,0.5,0,0,0,0,0,0" PannerName="Balance" currentExplodedTrackIndex="1" totalExplodedTrackCount="2" premiereTrackType="Stereo">
									<transitionitem>
										<start>3228</start>
										<end>3258</end>
										<pproTicksIn>27359453721600</pproTicksIn>
										<pproTicksOut>27613723737600</pproTicksOut>
										<alignment>start-black</alignment>
										<cutPointTicks>0</cutPointTicks>
										<rate>
											<timebase>30</timebase>
											<ntsc>TRUE</ntsc>
										</rate>
										<effect>
											<name>Cross Fade (+3dB)</name>
											<effectid>KGAudioTransCrossFade3dB</effectid>
											<effecttype>transition</effecttype>
											<mediatype>audio</mediatype>
											<wipecode>0</wipecode>
											<wipeaccuracy>100</wipeaccuracy>
											<startratio>0</startratio>
											<endratio>1</endratio>
											<reverse>FALSE</reverse>
										</effect>
									</transitionitem>
									<clipitem id="clipitem-1255" premiereChannelType="stereo">
										<masterclipid>masterclip-1</masterclipid>
										<name>ES_NEAR - SINY.mp3</name>
										<enabled>TRUE</enabled>
										<duration>2854</duration>
										<rate>
											<timebase>30</timebase>
											<ntsc>TRUE</ntsc>
										</rate>
										<start>-1</start>
										<end>-1</end>
										<in>0</in>
										<out>2201</out>
										<pproTicksIn>0</pproTicksIn>
										<pproTicksOut>18654943507200</pproTicksOut>
										<file id="file-1"/>
										<sourcetrack>
											<mediatype>audio</mediatype>
											<trackindex>2</trackindex>
										</sourcetrack>
										<link>
											<linkclipref>clipitem-1253</linkclipref>
											<mediatype>audio</mediatype>
											<trackindex>1</trackindex>
											<clipindex>2</clipindex>
											<groupindex>1</groupindex>
										</link>
										<link>
											<linkclipref>clipitem-1255</linkclipref>
											<mediatype>audio</mediatype>
											<trackindex>2</trackindex>
											<clipindex>2</clipindex>
											<groupindex>1</groupindex>
										</link>
										<logginginfo>
											<description></description>
											<scene></scene>
											<shottake></shottake>
											<lognote></lognote>
											<good></good>
											<originalvideofilename></originalvideofilename>
											<originalaudiofilename></originalaudiofilename>
										</logginginfo>
										<colorinfo>
											<lut></lut>
											<lut1></lut1>
											<asc_sop></asc_sop>
											<asc_sat></asc_sat>
											<lut2></lut2>
										</colorinfo>
										<labels>
											<label2>Forest</label2>
										</labels>
									</clipitem>
									<transitionitem>
										<start>5339</start>
										<end>5429</end>
										<pproTicksIn>45251587180800</pproTicksIn>
										<pproTicksOut>46014397228800</pproTicksOut>
										<alignment>end-black</alignment>
										<cutPointTicks>762810048000</cutPointTicks>
										<rate>
											<timebase>30</timebase>
											<ntsc>TRUE</ntsc>
										</rate>
										<effect>
											<name>Cross Fade (+3dB)</name>
											<effectid>KGAudioTransCrossFade3dB</effectid>
											<effecttype>transition</effecttype>
											<mediatype>audio</mediatype>
											<wipecode>0</wipecode>
											<wipeaccuracy>100</wipeaccuracy>
											<startratio>0</startratio>
											<endratio>1</endratio>
											<reverse>FALSE</reverse>
										</effect>
									</transitionitem>
									<clipitem id="clipitem-1256" premiereChannelType="stereo">
										<masterclipid>masterclip-33</masterclipid>
										<name>01.5_ATM_Content Submit QR_Music 2.mp4</name>
										<enabled>TRUE</enabled>
										<duration>299</duration>
										<rate>
											<timebase>30</timebase>
											<ntsc>TRUE</ntsc>
										</rate>
										<start>5429</start>
										<end>5728</end>
										<in>0</in>
										<out>299</out>
										<pproTicksIn>0</pproTicksIn>
										<pproTicksOut>2534224492800</pproTicksOut>
										<file id="file-33"/>
										<sourcetrack>
											<mediatype>audio</mediatype>
											<trackindex>2</trackindex>
										</sourcetrack>
										<filter>
											<effect>
												<name>Gain</name>
												<effectid>{61756678, 4761696e, 4b657947}</effectid>
												<effecttype>filter</effecttype>
												<mediatype>audio</mediatype>
												<parameter authoringApp="PremierePro">
													<parameterid>Gain(dB)</parameterid>
													<name>Gain(dB)</name>
													<valuemin>-96</valuemin>
													<valuemax>96</valuemax>
													<value>15</value>
												</parameter>
											</effect>
										</filter>
										<link>
											<linkclipref>clipitem-1244</linkclipref>
											<mediatype>video</mediatype>
											<trackindex>1</trackindex>
											<clipindex>4</clipindex>
										</link>
										<link>
											<linkclipref>clipitem-1254</linkclipref>
											<mediatype>audio</mediatype>
											<trackindex>1</trackindex>
											<clipindex>4</clipindex>
											<groupindex>1</groupindex>
										</link>
										<link>
											<linkclipref>clipitem-1256</linkclipref>
											<mediatype>audio</mediatype>
											<trackindex>2</trackindex>
											<clipindex>4</clipindex>
											<groupindex>1</groupindex>
										</link>
										<logginginfo>
											<description></description>
											<scene></scene>
											<shottake></shottake>
											<lognote></lognote>
											<good></good>
											<originalvideofilename></originalvideofilename>
											<originalaudiofilename></originalaudiofilename>
										</logginginfo>
										<colorinfo>
											<lut></lut>
											<lut1></lut1>
											<asc_sop></asc_sop>
											<asc_sat></asc_sat>
											<lut2></lut2>
										</colorinfo>
										<labels>
											<label2>Iris</label2>
										</labels>
									</clipitem>
									<enabled>TRUE</enabled>
									<locked>FALSE</locked>
									<filter>
										<effect>
											<name>Audio Levels</name>
											<effectid>audiolevels</effectid>
											<effectcategory>audiolevels</effectcategory>
											<effecttype>audiolevels</effecttype>
											<mediatype>audio</mediatype>
											<parameter authoringApp="PremierePro">
												<parameterid>level</parameterid>
												<name>Level</name>
												<valuemin>0</valuemin>
												<valuemax>3.98109</valuemax>
												<value>0.706272</value>
											</parameter>
										</effect>
									</filter>
									<outputchannelindex>2</outputchannelindex>
								</track>
								<track TL.SQTrackAudioKeyframeStyle="0" TL.SQTrackShy="0" TL.SQTrackExpandedHeight="25" TL.SQTrackExpanded="0" MZ.TrackTargeted="0" PannerCurrentValue="0.5" PannerIsInverted="true" PannerStartKeyframe="-91445760000000000,0.5,0,0,0,0,0,0" PannerName="Balance" currentExplodedTrackIndex="0" totalExplodedTrackCount="2" premiereTrackType="Stereo">
									<enabled>TRUE</enabled>
									<locked>FALSE</locked>
									<filter>
										<effect>
											<name>Audio Levels</name>
											<effectid>audiolevels</effectid>
											<effectcategory>audiolevels</effectcategory>
											<effecttype>audiolevels</effecttype>
											<mediatype>audio</mediatype>
											<parameter authoringApp="PremierePro">
												<parameterid>level</parameterid>
												<name>Level</name>
												<valuemin>0</valuemin>
												<valuemax>3.98109</valuemax>
												<value>0.706272</value>
											</parameter>
										</effect>
									</filter>
									<outputchannelindex>1</outputchannelindex>
								</track>
								<track TL.SQTrackAudioKeyframeStyle="0" TL.SQTrackShy="0" TL.SQTrackExpandedHeight="25" TL.SQTrackExpanded="0" MZ.TrackTargeted="0" PannerCurrentValue="0.5" PannerIsInverted="true" PannerStartKeyframe="-91445760000000000,0.5,0,0,0,0,0,0" PannerName="Balance" currentExplodedTrackIndex="1" totalExplodedTrackCount="2" premiereTrackType="Stereo">
									<enabled>TRUE</enabled>
									<locked>FALSE</locked>
									<filter>
										<effect>
											<name>Audio Levels</name>
											<effectid>audiolevels</effectid>
											<effectcategory>audiolevels</effectcategory>
											<effecttype>audiolevels</effecttype>
											<mediatype>audio</mediatype>
											<parameter authoringApp="PremierePro">
												<parameterid>level</parameterid>
												<name>Level</name>
												<valuemin>0</valuemin>
												<valuemax>3.98109</valuemax>
												<value>0.706272</value>
											</parameter>
										</effect>
									</filter>
									<outputchannelindex>2</outputchannelindex>
								</track>
								<track TL.SQTrackAudioKeyframeStyle="0" TL.SQTrackShy="0" TL.SQTrackExpandedHeight="25" TL.SQTrackExpanded="0" MZ.TrackTargeted="0" PannerCurrentValue="0.5" PannerIsInverted="true" PannerStartKeyframe="-91445760000000000,0.5,0,0,0,0,0,0" PannerName="Balance" currentExplodedTrackIndex="0" totalExplodedTrackCount="2" premiereTrackType="Stereo">
									<enabled>TRUE</enabled>
									<locked>FALSE</locked>
									<outputchannelindex>1</outputchannelindex>
								</track>
								<track TL.SQTrackAudioKeyframeStyle="0" TL.SQTrackShy="0" TL.SQTrackExpandedHeight="25" TL.SQTrackExpanded="0" MZ.TrackTargeted="0" PannerCurrentValue="0.5" PannerIsInverted="true" PannerStartKeyframe="-91445760000000000,0.5,0,0,0,0,0,0" PannerName="Balance" currentExplodedTrackIndex="1" totalExplodedTrackCount="2" premiereTrackType="Stereo">
									<enabled>TRUE</enabled>
									<locked>FALSE</locked>
									<outputchannelindex>2</outputchannelindex>
								</track>
								<track TL.SQTrackAudioKeyframeStyle="0" TL.SQTrackShy="0" TL.SQTrackExpandedHeight="25" TL.SQTrackExpanded="0" MZ.TrackTargeted="0" PannerCurrentValue="0.5" PannerIsInverted="true" PannerStartKeyframe="-91445760000000000,0.5,0,0,0,0,0,0" PannerName="Balance" currentExplodedTrackIndex="0" totalExplodedTrackCount="2" premiereTrackType="Stereo">
									<clipitem id="clipitem-1257" premiereChannelType="stereo">
										<masterclipid>masterclip-203</masterclipid>
										<name>OS Trans 03</name>
										<enabled>TRUE</enabled>
										<duration>2613</duration>
										<rate>
											<timebase>30</timebase>
											<ntsc>TRUE</ntsc>
										</rate>
										<start>3096</start>
										<end>3292</end>
										<in>0</in>
										<out>196</out>
										<pproTicksIn>0</pproTicksIn>
										<pproTicksOut>1661230771200</pproTicksOut>
										<sequence id="sequence-4"/>
										<sourcetrack>
											<mediatype>audio</mediatype>
											<trackindex>0</trackindex>
										</sourcetrack>
											<marker>
												<comment></comment>
												<name></name>
												<in>50</in>
												<out>-1</out>
											</marker>
											<marker>
												<comment></comment>
												<name></name>
												<in>132</in>
												<out>-1</out>
											</marker>
										<link>
											<linkclipref>clipitem-1252</linkclipref>
											<mediatype>video</mediatype>
											<trackindex>5</trackindex>
											<clipindex>1</clipindex>
										</link>
										<link>
											<linkclipref>clipitem-1257</linkclipref>
											<mediatype>audio</mediatype>
											<trackindex>7</trackindex>
											<clipindex>1</clipindex>
											<groupindex>1</groupindex>
										</link>
										<link>
											<linkclipref>clipitem-1258</linkclipref>
											<mediatype>audio</mediatype>
											<trackindex>8</trackindex>
											<clipindex>1</clipindex>
											<groupindex>1</groupindex>
										</link>
										<labels>
											<label2>Purple</label2>
										</labels>
									</clipitem>
									<enabled>TRUE</enabled>
									<locked>FALSE</locked>
									<outputchannelindex>1</outputchannelindex>
								</track>
								<track TL.SQTrackAudioKeyframeStyle="0" TL.SQTrackShy="0" TL.SQTrackExpandedHeight="25" TL.SQTrackExpanded="0" MZ.TrackTargeted="0" PannerCurrentValue="0.5" PannerIsInverted="true" PannerStartKeyframe="-91445760000000000,0.5,0,0,0,0,0,0" PannerName="Balance" currentExplodedTrackIndex="1" totalExplodedTrackCount="2" premiereTrackType="Stereo">
									<clipitem id="clipitem-1258" premiereChannelType="stereo">
										<masterclipid>masterclip-203</masterclipid>
										<name>OS Trans 03</name>
										<enabled>TRUE</enabled>
										<duration>2613</duration>
										<rate>
											<timebase>30</timebase>
											<ntsc>TRUE</ntsc>
										</rate>
										<start>3096</start>
										<end>3292</end>
										<in>0</in>
										<out>196</out>
										<pproTicksIn>0</pproTicksIn>
										<pproTicksOut>1661230771200</pproTicksOut>
										<sequence id="sequence-4"/>
										<sourcetrack>
											<mediatype>audio</mediatype>
											<trackindex>1</trackindex>
										</sourcetrack>
											<marker>
												<comment></comment>
												<name></name>
												<in>50</in>
												<out>-1</out>
											</marker>
											<marker>
												<comment></comment>
												<name></name>
												<in>132</in>
												<out>-1</out>
											</marker>
										<link>
											<linkclipref>clipitem-1252</linkclipref>
											<mediatype>video</mediatype>
											<trackindex>5</trackindex>
											<clipindex>1</clipindex>
										</link>
										<link>
											<linkclipref>clipitem-1257</linkclipref>
											<mediatype>audio</mediatype>
											<trackindex>7</trackindex>
											<clipindex>1</clipindex>
											<groupindex>1</groupindex>
										</link>
										<link>
											<linkclipref>clipitem-1258</linkclipref>
											<mediatype>audio</mediatype>
											<trackindex>8</trackindex>
											<clipindex>1</clipindex>
											<groupindex>1</groupindex>
										</link>
										<labels>
											<label2>Purple</label2>
										</labels>
									</clipitem>
									<enabled>TRUE</enabled>
									<locked>FALSE</locked>
									<outputchannelindex>2</outputchannelindex>
								</track>
							</audio>
						</media>
						<timecode>
							<rate>
								<timebase>30</timebase>
								<ntsc>TRUE</ntsc>
							</rate>
							<string>00:00:00:00</string>
							<frame>0</frame>
							<displayformat>NDF</displayformat>
						</timecode>
						<labels>
							<label2>Forest</label2>
						</labels>
						<logginginfo>
							<description></description>
							<scene></scene>
							<shottake></shottake>
							<lognote></lognote>
							<good></good>
							<originalvideofilename></originalvideofilename>
							<originalaudiofilename></originalaudiofilename>
						</logginginfo>
					</sequence>
<sequence id="sequence-82"/>
					<sequence id="sequence-99" TL.SQAudioVisibleBase="0" TL.SQVideoVisibleBase="0" TL.SQVisibleBaseTime="0" TL.SQAVDividerPosition="0.5" TL.SQHideShyTracks="0" TL.SQHeaderWidth="236" TL.SQDataTrackViewControlState="0" Monitor.ProgramZoomOut="18053171136000" Monitor.ProgramZoomIn="0" TL.SQTimePerPixel="0.27637033625057528" AM.TrackVScrollPosition="0" AM.TrackScrollPosition="0" MZ.EditLine="0" MZ.Sequence.PreviewFrameSizeHeight="1080" MZ.Sequence.PreviewFrameSizeWidth="1920" MZ.Sequence.AudioTimeDisplayFormat="200" MZ.Sequence.PreviewRenderingClassID="1297106761" MZ.Sequence.PreviewRenderingPresetCodec="1297107278" MZ.Sequence.PreviewRenderingPresetPath="EncoderPresets/SequencePreview/795454d9-d3c2-429d-9474-923ab13b7018/I-Frame Only MPEG.epr" MZ.Sequence.PreviewUseMaxRenderQuality="false" MZ.Sequence.PreviewUseMaxBitDepth="false" MZ.Sequence.EditingModeGUID="795454d9-d3c2-429d-9474-923ab13b7018" MZ.Sequence.VideoTimeDisplayFormat="103" MZ.WorkOutPoint="15705411321600" MZ.WorkInPoint="0" explodedTracks="true">
						<uuid>e7f754bd-ffa0-407c-a6cb-09aa5b303711</uuid>
						<duration>0</duration>
						<rate>
							<timebase>30</timebase>
							<ntsc>TRUE</ntsc>
						</rate>
						<name>TEMPLATE Copy 2535</name>
						<media>
							<video>
								<format>
									<samplecharacteristics>
										<rate>
											<timebase>30</timebase>
											<ntsc>TRUE</ntsc>
										</rate>
										<codec>
											<name>Apple ProRes 422</name>
											<appspecificdata>
												<appname>Final Cut Pro</appname>
												<appmanufacturer>Apple Inc.</appmanufacturer>
												<appversion>7.0</appversion>
												<data>
													<qtcodec>
														<codecname>Apple ProRes 422</codecname>
														<codectypename>Apple ProRes 422</codectypename>
														<codectypecode>apcn</codectypecode>
														<codecvendorcode>appl</codecvendorcode>
														<spatialquality>1024</spatialquality>
														<temporalquality>0</temporalquality>
														<keyframerate>0</keyframerate>
														<datarate>0</datarate>
													</qtcodec>
												</data>
											</appspecificdata>
										</codec>
										<width>1920</width>
										<height>1080</height>
										<anamorphic>FALSE</anamorphic>
										<pixelaspectratio>square</pixelaspectratio>
										<fielddominance>none</fielddominance>
										<colordepth>24</colordepth>
									</samplecharacteristics>
								</format>
								<track TL.SQTrackShy="0" TL.SQTrackExpandedHeight="25" TL.SQTrackExpanded="0" MZ.TrackTargeted="1">
									<enabled>TRUE</enabled>
									<locked>FALSE</locked>
								</track>
								<track TL.SQTrackShy="0" TL.SQTrackExpandedHeight="25" TL.SQTrackExpanded="0" MZ.TrackTargeted="0">
									<enabled>TRUE</enabled>
									<locked>FALSE</locked>
								</track>
								<track TL.SQTrackShy="0" TL.SQTrackExpandedHeight="25" TL.SQTrackExpanded="0" MZ.TrackTargeted="0">
									<clipitem id="clipitem-1259">
										<masterclipid>masterclip-106</masterclipid>
										<name>Bug and Lower Nest</name>
										<enabled>TRUE</enabled>
										<duration>14721</duration>
										<rate>
											<timebase>30</timebase>
											<ntsc>TRUE</ntsc>
										</rate>
										<start>0</start>
										<end>2130</end>
										<in>0</in>
										<out>2130</out>
										<pproTicksIn>0</pproTicksIn>
										<pproTicksOut>18053171136000</pproTicksOut>
										<sequence id="sequence-1"/>
										<labels>
											<label2>Cerulean</label2>
										</labels>
									</clipitem>
									<enabled>TRUE</enabled>
									<locked>FALSE</locked>
								</track>
								<track TL.SQTrackShy="0" TL.SQTrackExpandedHeight="25" TL.SQTrackExpanded="0" MZ.TrackTargeted="0">
									<enabled>TRUE</enabled>
									<locked>FALSE</locked>
								</track>
							</video>
							<audio>
								<numOutputChannels>2</numOutputChannels>
								<format>
									<samplecharacteristics>
										<depth>16</depth>
										<samplerate>44100</samplerate>
									</samplecharacteristics>
								</format>
								<outputs>
									<group>
										<index>1</index>
										<numchannels>1</numchannels>
										<downmix>0</downmix>
										<channel>
											<index>1</index>
										</channel>
									</group>
									<group>
										<index>2</index>
										<numchannels>1</numchannels>
										<downmix>0</downmix>
										<channel>
											<index>2</index>
										</channel>
									</group>
								</outputs>
								<track TL.SQTrackAudioKeyframeStyle="0" TL.SQTrackShy="0" TL.SQTrackExpandedHeight="25" TL.SQTrackExpanded="0" MZ.TrackTargeted="1" PannerCurrentValue="0.5" PannerIsInverted="true" PannerStartKeyframe="-91445760000000000,0.5,0,0,0,0,0,0" PannerName="Balance" currentExplodedTrackIndex="0" totalExplodedTrackCount="2" premiereTrackType="Stereo">
									<enabled>TRUE</enabled>
									<locked>FALSE</locked>
									<filter>
										<effect>
											<name>Audio Levels</name>
											<effectid>audiolevels</effectid>
											<effectcategory>audiolevels</effectcategory>
											<effecttype>audiolevels</effecttype>
											<mediatype>audio</mediatype>
											<parameter authoringApp="PremierePro">
												<parameterid>level</parameterid>
												<name>Level</name>
												<valuemin>0</valuemin>
												<valuemax>3.98109</valuemax>
												<value>0.706272</value>
											</parameter>
										</effect>
									</filter>
									<outputchannelindex>1</outputchannelindex>
								</track>
								<track TL.SQTrackAudioKeyframeStyle="0" TL.SQTrackShy="0" TL.SQTrackExpandedHeight="25" TL.SQTrackExpanded="0" MZ.TrackTargeted="1" PannerCurrentValue="0.5" PannerIsInverted="true" PannerStartKeyframe="-91445760000000000,0.5,0,0,0,0,0,0" PannerName="Balance" currentExplodedTrackIndex="1" totalExplodedTrackCount="2" premiereTrackType="Stereo">
									<enabled>TRUE</enabled>
									<locked>FALSE</locked>
									<filter>
										<effect>
											<name>Audio Levels</name>
											<effectid>audiolevels</effectid>
											<effectcategory>audiolevels</effectcategory>
											<effecttype>audiolevels</effecttype>
											<mediatype>audio</mediatype>
											<parameter authoringApp="PremierePro">
												<parameterid>level</parameterid>
												<name>Level</name>
												<valuemin>0</valuemin>
												<valuemax>3.98109</valuemax>
												<value>0.706272</value>
											</parameter>
										</effect>
									</filter>
									<outputchannelindex>2</outputchannelindex>
								</track>
								<track TL.SQTrackAudioKeyframeStyle="0" TL.SQTrackShy="0" TL.SQTrackExpandedHeight="25" TL.SQTrackExpanded="0" MZ.TrackTargeted="0" PannerCurrentValue="0.5" PannerIsInverted="true" PannerStartKeyframe="-91445760000000000,0.5,0,0,0,0,0,0" PannerName="Balance" currentExplodedTrackIndex="0" totalExplodedTrackCount="2" premiereTrackType="Stereo">
									<enabled>TRUE</enabled>
									<locked>FALSE</locked>
									<filter>
										<effect>
											<name>Audio Levels</name>
											<effectid>audiolevels</effectid>
											<effectcategory>audiolevels</effectcategory>
											<effecttype>audiolevels</effecttype>
											<mediatype>audio</mediatype>
											<parameter authoringApp="PremierePro">
												<parameterid>level</parameterid>
												<name>Level</name>
												<valuemin>0</valuemin>
												<valuemax>3.98109</valuemax>
												<value>0.706272</value>
											</parameter>
										</effect>
									</filter>
									<outputchannelindex>1</outputchannelindex>
								</track>
								<track TL.SQTrackAudioKeyframeStyle="0" TL.SQTrackShy="0" TL.SQTrackExpandedHeight="25" TL.SQTrackExpanded="0" MZ.TrackTargeted="0" PannerCurrentValue="0.5" PannerIsInverted="true" PannerStartKeyframe="-91445760000000000,0.5,0,0,0,0,0,0" PannerName="Balance" currentExplodedTrackIndex="1" totalExplodedTrackCount="2" premiereTrackType="Stereo">
									<enabled>TRUE</enabled>
									<locked>FALSE</locked>
									<filter>
										<effect>
											<name>Audio Levels</name>
											<effectid>audiolevels</effectid>
											<effectcategory>audiolevels</effectcategory>
											<effecttype>audiolevels</effecttype>
											<mediatype>audio</mediatype>
											<parameter authoringApp="PremierePro">
												<parameterid>level</parameterid>
												<name>Level</name>
												<valuemin>0</valuemin>
												<valuemax>3.98109</valuemax>
												<value>0.706272</value>
											</parameter>
										</effect>
									</filter>
									<outputchannelindex>2</outputchannelindex>
								</track>
								<track TL.SQTrackAudioKeyframeStyle="0" TL.SQTrackShy="0" TL.SQTrackExpandedHeight="25" TL.SQTrackExpanded="0" MZ.TrackTargeted="0" PannerCurrentValue="0.5" PannerIsInverted="true" PannerStartKeyframe="-91445760000000000,0.5,0,0,0,0,0,0" PannerName="Balance" currentExplodedTrackIndex="0" totalExplodedTrackCount="2" premiereTrackType="Stereo">
									<enabled>TRUE</enabled>
									<locked>FALSE</locked>
									<outputchannelindex>1</outputchannelindex>
								</track>
								<track TL.SQTrackAudioKeyframeStyle="0" TL.SQTrackShy="0" TL.SQTrackExpandedHeight="25" TL.SQTrackExpanded="0" MZ.TrackTargeted="0" PannerCurrentValue="0.5" PannerIsInverted="true" PannerStartKeyframe="-91445760000000000,0.5,0,0,0,0,0,0" PannerName="Balance" currentExplodedTrackIndex="1" totalExplodedTrackCount="2" premiereTrackType="Stereo">
									<enabled>TRUE</enabled>
									<locked>FALSE</locked>
									<outputchannelindex>2</outputchannelindex>
								</track>
							</audio>
						</media>
						<timecode>
							<rate>
								<timebase>30</timebase>
								<ntsc>TRUE</ntsc>
							</rate>
							<string>00:00:00:00</string>
							<frame>0</frame>
							<displayformat>NDF</displayformat>
						</timecode>
						<labels>
							<label2>Forest</label2>
						</labels>
						<logginginfo>
							<description></description>
							<scene></scene>
							<shottake></shottake>
							<lognote></lognote>
							<good></good>
							<originalvideofilename></originalvideofilename>
							<originalaudiofilename></originalaudiofilename>
						</logginginfo>
					</sequence>
					<sequence id="sequence-100" TL.SQAudioVisibleBase="0" TL.SQVideoVisibleBase="0" TL.SQVisibleBaseTime="0" TL.SQAVDividerPosition="0.5" TL.SQHideShyTracks="0" TL.SQHeaderWidth="236" TL.SQDataTrackViewControlState="0" Monitor.ProgramZoomOut="18053171136000" Monitor.ProgramZoomIn="0" TL.SQTimePerPixel="0.27637033625057528" AM.TrackVScrollPosition="0" AM.TrackScrollPosition="0" MZ.EditLine="0" MZ.Sequence.PreviewFrameSizeHeight="1080" MZ.Sequence.PreviewFrameSizeWidth="1920" MZ.Sequence.AudioTimeDisplayFormat="200" MZ.Sequence.PreviewRenderingClassID="1297106761" MZ.Sequence.PreviewRenderingPresetCodec="1297107278" MZ.Sequence.PreviewRenderingPresetPath="EncoderPresets/SequencePreview/795454d9-d3c2-429d-9474-923ab13b7018/I-Frame Only MPEG.epr" MZ.Sequence.PreviewUseMaxRenderQuality="false" MZ.Sequence.PreviewUseMaxBitDepth="false" MZ.Sequence.EditingModeGUID="795454d9-d3c2-429d-9474-923ab13b7018" MZ.Sequence.VideoTimeDisplayFormat="103" MZ.WorkOutPoint="15705411321600" MZ.WorkInPoint="0" explodedTracks="true">
						<uuid>49995101-c977-4d5e-bc6f-9119075034a0</uuid>
						<duration>0</duration>
						<rate>
							<timebase>30</timebase>
							<ntsc>TRUE</ntsc>
						</rate>
						<name>TEMPLATE Copy 2536</name>
						<media>
							<video>
								<format>
									<samplecharacteristics>
										<rate>
											<timebase>30</timebase>
											<ntsc>TRUE</ntsc>
										</rate>
										<codec>
											<name>Apple ProRes 422</name>
											<appspecificdata>
												<appname>Final Cut Pro</appname>
												<appmanufacturer>Apple Inc.</appmanufacturer>
												<appversion>7.0</appversion>
												<data>
													<qtcodec>
														<codecname>Apple ProRes 422</codecname>
														<codectypename>Apple ProRes 422</codectypename>
														<codectypecode>apcn</codectypecode>
														<codecvendorcode>appl</codecvendorcode>
														<spatialquality>1024</spatialquality>
														<temporalquality>0</temporalquality>
														<keyframerate>0</keyframerate>
														<datarate>0</datarate>
													</qtcodec>
												</data>
											</appspecificdata>
										</codec>
										<width>1920</width>
										<height>1080</height>
										<anamorphic>FALSE</anamorphic>
										<pixelaspectratio>square</pixelaspectratio>
										<fielddominance>none</fielddominance>
										<colordepth>24</colordepth>
									</samplecharacteristics>
								</format>
								<track TL.SQTrackShy="0" TL.SQTrackExpandedHeight="25" TL.SQTrackExpanded="0" MZ.TrackTargeted="1">
									<enabled>TRUE</enabled>
									<locked>FALSE</locked>
								</track>
								<track TL.SQTrackShy="0" TL.SQTrackExpandedHeight="25" TL.SQTrackExpanded="0" MZ.TrackTargeted="0">
									<enabled>TRUE</enabled>
									<locked>FALSE</locked>
								</track>
								<track TL.SQTrackShy="0" TL.SQTrackExpandedHeight="25" TL.SQTrackExpanded="0" MZ.TrackTargeted="0">
									<clipitem id="clipitem-1260">
										<masterclipid>masterclip-106</masterclipid>
										<name>Bug and Lower Nest</name>
										<enabled>TRUE</enabled>
										<duration>14721</duration>
										<rate>
											<timebase>30</timebase>
											<ntsc>TRUE</ntsc>
										</rate>
										<start>0</start>
										<end>2130</end>
										<in>0</in>
										<out>2130</out>
										<pproTicksIn>0</pproTicksIn>
										<pproTicksOut>18053171136000</pproTicksOut>
										<sequence id="sequence-1"/>
										<labels>
											<label2>Cerulean</label2>
										</labels>
									</clipitem>
									<enabled>TRUE</enabled>
									<locked>FALSE</locked>
								</track>
								<track TL.SQTrackShy="0" TL.SQTrackExpandedHeight="25" TL.SQTrackExpanded="0" MZ.TrackTargeted="0">
									<enabled>TRUE</enabled>
									<locked>FALSE</locked>
								</track>
							</video>
							<audio>
								<numOutputChannels>2</numOutputChannels>
								<format>
									<samplecharacteristics>
										<depth>16</depth>
										<samplerate>44100</samplerate>
									</samplecharacteristics>
								</format>
								<outputs>
									<group>
										<index>1</index>
										<numchannels>1</numchannels>
										<downmix>0</downmix>
										<channel>
											<index>1</index>
										</channel>
									</group>
									<group>
										<index>2</index>
										<numchannels>1</numchannels>
										<downmix>0</downmix>
										<channel>
											<index>2</index>
										</channel>
									</group>
								</outputs>
								<track TL.SQTrackAudioKeyframeStyle="0" TL.SQTrackShy="0" TL.SQTrackExpandedHeight="25" TL.SQTrackExpanded="0" MZ.TrackTargeted="1" PannerCurrentValue="0.5" PannerIsInverted="true" PannerStartKeyframe="-91445760000000000,0.5,0,0,0,0,0,0" PannerName="Balance" currentExplodedTrackIndex="0" totalExplodedTrackCount="2" premiereTrackType="Stereo">
									<enabled>TRUE</enabled>
									<locked>FALSE</locked>
									<filter>
										<effect>
											<name>Audio Levels</name>
											<effectid>audiolevels</effectid>
											<effectcategory>audiolevels</effectcategory>
											<effecttype>audiolevels</effecttype>
											<mediatype>audio</mediatype>
											<parameter authoringApp="PremierePro">
												<parameterid>level</parameterid>
												<name>Level</name>
												<valuemin>0</valuemin>
												<valuemax>3.98109</valuemax>
												<value>0.706272</value>
											</parameter>
										</effect>
									</filter>
									<outputchannelindex>1</outputchannelindex>
								</track>
								<track TL.SQTrackAudioKeyframeStyle="0" TL.SQTrackShy="0" TL.SQTrackExpandedHeight="25" TL.SQTrackExpanded="0" MZ.TrackTargeted="1" PannerCurrentValue="0.5" PannerIsInverted="true" PannerStartKeyframe="-91445760000000000,0.5,0,0,0,0,0,0" PannerName="Balance" currentExplodedTrackIndex="1" totalExplodedTrackCount="2" premiereTrackType="Stereo">
									<enabled>TRUE</enabled>
									<locked>FALSE</locked>
									<filter>
										<effect>
											<name>Audio Levels</name>
											<effectid>audiolevels</effectid>
											<effectcategory>audiolevels</effectcategory>
											<effecttype>audiolevels</effecttype>
											<mediatype>audio</mediatype>
											<parameter authoringApp="PremierePro">
												<parameterid>level</parameterid>
												<name>Level</name>
												<valuemin>0</valuemin>
												<valuemax>3.98109</valuemax>
												<value>0.706272</value>
											</parameter>
										</effect>
									</filter>
									<outputchannelindex>2</outputchannelindex>
								</track>
								<track TL.SQTrackAudioKeyframeStyle="0" TL.SQTrackShy="0" TL.SQTrackExpandedHeight="25" TL.SQTrackExpanded="0" MZ.TrackTargeted="0" PannerCurrentValue="0.5" PannerIsInverted="true" PannerStartKeyframe="-91445760000000000,0.5,0,0,0,0,0,0" PannerName="Balance" currentExplodedTrackIndex="0" totalExplodedTrackCount="2" premiereTrackType="Stereo">
									<enabled>TRUE</enabled>
									<locked>FALSE</locked>
									<filter>
										<effect>
											<name>Audio Levels</name>
											<effectid>audiolevels</effectid>
											<effectcategory>audiolevels</effectcategory>
											<effecttype>audiolevels</effecttype>
											<mediatype>audio</mediatype>
											<parameter authoringApp="PremierePro">
												<parameterid>level</parameterid>
												<name>Level</name>
												<valuemin>0</valuemin>
												<valuemax>3.98109</valuemax>
												<value>0.706272</value>
											</parameter>
										</effect>
									</filter>
									<outputchannelindex>1</outputchannelindex>
								</track>
								<track TL.SQTrackAudioKeyframeStyle="0" TL.SQTrackShy="0" TL.SQTrackExpandedHeight="25" TL.SQTrackExpanded="0" MZ.TrackTargeted="0" PannerCurrentValue="0.5" PannerIsInverted="true" PannerStartKeyframe="-91445760000000000,0.5,0,0,0,0,0,0" PannerName="Balance" currentExplodedTrackIndex="1" totalExplodedTrackCount="2" premiereTrackType="Stereo">
									<enabled>TRUE</enabled>
									<locked>FALSE</locked>
									<filter>
										<effect>
											<name>Audio Levels</name>
											<effectid>audiolevels</effectid>
											<effectcategory>audiolevels</effectcategory>
											<effecttype>audiolevels</effecttype>
											<mediatype>audio</mediatype>
											<parameter authoringApp="PremierePro">
												<parameterid>level</parameterid>
												<name>Level</name>
												<valuemin>0</valuemin>
												<valuemax>3.98109</valuemax>
												<value>0.706272</value>
											</parameter>
										</effect>
									</filter>
									<outputchannelindex>2</outputchannelindex>
								</track>
								<track TL.SQTrackAudioKeyframeStyle="0" TL.SQTrackShy="0" TL.SQTrackExpandedHeight="25" TL.SQTrackExpanded="0" MZ.TrackTargeted="0" PannerCurrentValue="0.5" PannerIsInverted="true" PannerStartKeyframe="-91445760000000000,0.5,0,0,0,0,0,0" PannerName="Balance" currentExplodedTrackIndex="0" totalExplodedTrackCount="2" premiereTrackType="Stereo">
									<enabled>TRUE</enabled>
									<locked>FALSE</locked>
									<outputchannelindex>1</outputchannelindex>
								</track>
								<track TL.SQTrackAudioKeyframeStyle="0" TL.SQTrackShy="0" TL.SQTrackExpandedHeight="25" TL.SQTrackExpanded="0" MZ.TrackTargeted="0" PannerCurrentValue="0.5" PannerIsInverted="true" PannerStartKeyframe="-91445760000000000,0.5,0,0,0,0,0,0" PannerName="Balance" currentExplodedTrackIndex="1" totalExplodedTrackCount="2" premiereTrackType="Stereo">
									<enabled>TRUE</enabled>
									<locked>FALSE</locked>
									<outputchannelindex>2</outputchannelindex>
								</track>
							</audio>
						</media>
						<timecode>
							<rate>
								<timebase>30</timebase>
								<ntsc>TRUE</ntsc>
							</rate>
							<string>00:00:00:00</string>
							<frame>0</frame>
							<displayformat>NDF</displayformat>
						</timecode>
						<labels>
							<label2>Forest</label2>
						</labels>
						<logginginfo>
							<description></description>
							<scene></scene>
							<shottake></shottake>
							<lognote></lognote>
							<good></good>
							<originalvideofilename></originalvideofilename>
							<originalaudiofilename></originalaudiofilename>
						</logginginfo>
					</sequence>
					<sequence id="sequence-101" TL.SQAudioVisibleBase="0" TL.SQVideoVisibleBase="0" TL.SQVisibleBaseTime="0" TL.SQAVDividerPosition="0.5" TL.SQHideShyTracks="0" TL.SQHeaderWidth="236" TL.SQDataTrackViewControlState="0" Monitor.ProgramZoomOut="18053171136000" Monitor.ProgramZoomIn="0" TL.SQTimePerPixel="0.27637033625057528" AM.TrackVScrollPosition="0" AM.TrackScrollPosition="0" MZ.EditLine="0" MZ.Sequence.PreviewFrameSizeHeight="1080" MZ.Sequence.PreviewFrameSizeWidth="1920" MZ.Sequence.AudioTimeDisplayFormat="200" MZ.Sequence.PreviewRenderingClassID="1297106761" MZ.Sequence.PreviewRenderingPresetCodec="1297107278" MZ.Sequence.PreviewRenderingPresetPath="EncoderPresets/SequencePreview/795454d9-d3c2-429d-9474-923ab13b7018/I-Frame Only MPEG.epr" MZ.Sequence.PreviewUseMaxRenderQuality="false" MZ.Sequence.PreviewUseMaxBitDepth="false" MZ.Sequence.EditingModeGUID="795454d9-d3c2-429d-9474-923ab13b7018" MZ.Sequence.VideoTimeDisplayFormat="103" MZ.WorkOutPoint="15705411321600" MZ.WorkInPoint="0" explodedTracks="true">
						<uuid>6b23b1c4-e6c6-4e01-9ef4-a16d9faea0f4</uuid>
						<duration>0</duration>
						<rate>
							<timebase>30</timebase>
							<ntsc>TRUE</ntsc>
						</rate>
						<name>TEMPLATE Copy 2537</name>
						<media>
							<video>
								<format>
									<samplecharacteristics>
										<rate>
											<timebase>30</timebase>
											<ntsc>TRUE</ntsc>
										</rate>
										<codec>
											<name>Apple ProRes 422</name>
											<appspecificdata>
												<appname>Final Cut Pro</appname>
												<appmanufacturer>Apple Inc.</appmanufacturer>
												<appversion>7.0</appversion>
												<data>
													<qtcodec>
														<codecname>Apple ProRes 422</codecname>
														<codectypename>Apple ProRes 422</codectypename>
														<codectypecode>apcn</codectypecode>
														<codecvendorcode>appl</codecvendorcode>
														<spatialquality>1024</spatialquality>
														<temporalquality>0</temporalquality>
														<keyframerate>0</keyframerate>
														<datarate>0</datarate>
													</qtcodec>
												</data>
											</appspecificdata>
										</codec>
										<width>1920</width>
										<height>1080</height>
										<anamorphic>FALSE</anamorphic>
										<pixelaspectratio>square</pixelaspectratio>
										<fielddominance>none</fielddominance>
										<colordepth>24</colordepth>
									</samplecharacteristics>
								</format>
								<track TL.SQTrackShy="0" TL.SQTrackExpandedHeight="25" TL.SQTrackExpanded="0" MZ.TrackTargeted="1">
									<enabled>TRUE</enabled>
									<locked>FALSE</locked>
								</track>
								<track TL.SQTrackShy="0" TL.SQTrackExpandedHeight="25" TL.SQTrackExpanded="0" MZ.TrackTargeted="0">
									<enabled>TRUE</enabled>
									<locked>FALSE</locked>
								</track>
								<track TL.SQTrackShy="0" TL.SQTrackExpandedHeight="25" TL.SQTrackExpanded="0" MZ.TrackTargeted="0">
									<clipitem id="clipitem-1261">
										<masterclipid>masterclip-106</masterclipid>
										<name>Bug and Lower Nest</name>
										<enabled>TRUE</enabled>
										<duration>14721</duration>
										<rate>
											<timebase>30</timebase>
											<ntsc>TRUE</ntsc>
										</rate>
										<start>0</start>
										<end>2130</end>
										<in>0</in>
										<out>2130</out>
										<pproTicksIn>0</pproTicksIn>
										<pproTicksOut>18053171136000</pproTicksOut>
										<sequence id="sequence-1"/>
										<labels>
											<label2>Cerulean</label2>
										</labels>
									</clipitem>
									<enabled>TRUE</enabled>
									<locked>FALSE</locked>
								</track>
								<track TL.SQTrackShy="0" TL.SQTrackExpandedHeight="25" TL.SQTrackExpanded="0" MZ.TrackTargeted="0">
									<enabled>TRUE</enabled>
									<locked>FALSE</locked>
								</track>
							</video>
							<audio>
								<numOutputChannels>2</numOutputChannels>
								<format>
									<samplecharacteristics>
										<depth>16</depth>
										<samplerate>44100</samplerate>
									</samplecharacteristics>
								</format>
								<outputs>
									<group>
										<index>1</index>
										<numchannels>1</numchannels>
										<downmix>0</downmix>
										<channel>
											<index>1</index>
										</channel>
									</group>
									<group>
										<index>2</index>
										<numchannels>1</numchannels>
										<downmix>0</downmix>
										<channel>
											<index>2</index>
										</channel>
									</group>
								</outputs>
								<track TL.SQTrackAudioKeyframeStyle="0" TL.SQTrackShy="0" TL.SQTrackExpandedHeight="25" TL.SQTrackExpanded="0" MZ.TrackTargeted="1" PannerCurrentValue="0.5" PannerIsInverted="true" PannerStartKeyframe="-91445760000000000,0.5,0,0,0,0,0,0" PannerName="Balance" currentExplodedTrackIndex="0" totalExplodedTrackCount="2" premiereTrackType="Stereo">
									<enabled>TRUE</enabled>
									<locked>FALSE</locked>
									<filter>
										<effect>
											<name>Audio Levels</name>
											<effectid>audiolevels</effectid>
											<effectcategory>audiolevels</effectcategory>
											<effecttype>audiolevels</effecttype>
											<mediatype>audio</mediatype>
											<parameter authoringApp="PremierePro">
												<parameterid>level</parameterid>
												<name>Level</name>
												<valuemin>0</valuemin>
												<valuemax>3.98109</valuemax>
												<value>0.706272</value>
											</parameter>
										</effect>
									</filter>
									<outputchannelindex>1</outputchannelindex>
								</track>
								<track TL.SQTrackAudioKeyframeStyle="0" TL.SQTrackShy="0" TL.SQTrackExpandedHeight="25" TL.SQTrackExpanded="0" MZ.TrackTargeted="1" PannerCurrentValue="0.5" PannerIsInverted="true" PannerStartKeyframe="-91445760000000000,0.5,0,0,0,0,0,0" PannerName="Balance" currentExplodedTrackIndex="1" totalExplodedTrackCount="2" premiereTrackType="Stereo">
									<enabled>TRUE</enabled>
									<locked>FALSE</locked>
									<filter>
										<effect>
											<name>Audio Levels</name>
											<effectid>audiolevels</effectid>
											<effectcategory>audiolevels</effectcategory>
											<effecttype>audiolevels</effecttype>
											<mediatype>audio</mediatype>
											<parameter authoringApp="PremierePro">
												<parameterid>level</parameterid>
												<name>Level</name>
												<valuemin>0</valuemin>
												<valuemax>3.98109</valuemax>
												<value>0.706272</value>
											</parameter>
										</effect>
									</filter>
									<outputchannelindex>2</outputchannelindex>
								</track>
								<track TL.SQTrackAudioKeyframeStyle="0" TL.SQTrackShy="0" TL.SQTrackExpandedHeight="25" TL.SQTrackExpanded="0" MZ.TrackTargeted="0" PannerCurrentValue="0.5" PannerIsInverted="true" PannerStartKeyframe="-91445760000000000,0.5,0,0,0,0,0,0" PannerName="Balance" currentExplodedTrackIndex="0" totalExplodedTrackCount="2" premiereTrackType="Stereo">
									<enabled>TRUE</enabled>
									<locked>FALSE</locked>
									<filter>
										<effect>
											<name>Audio Levels</name>
											<effectid>audiolevels</effectid>
											<effectcategory>audiolevels</effectcategory>
											<effecttype>audiolevels</effecttype>
											<mediatype>audio</mediatype>
											<parameter authoringApp="PremierePro">
												<parameterid>level</parameterid>
												<name>Level</name>
												<valuemin>0</valuemin>
												<valuemax>3.98109</valuemax>
												<value>0.706272</value>
											</parameter>
										</effect>
									</filter>
									<outputchannelindex>1</outputchannelindex>
								</track>
								<track TL.SQTrackAudioKeyframeStyle="0" TL.SQTrackShy="0" TL.SQTrackExpandedHeight="25" TL.SQTrackExpanded="0" MZ.TrackTargeted="0" PannerCurrentValue="0.5" PannerIsInverted="true" PannerStartKeyframe="-91445760000000000,0.5,0,0,0,0,0,0" PannerName="Balance" currentExplodedTrackIndex="1" totalExplodedTrackCount="2" premiereTrackType="Stereo">
									<enabled>TRUE</enabled>
									<locked>FALSE</locked>
									<filter>
										<effect>
											<name>Audio Levels</name>
											<effectid>audiolevels</effectid>
											<effectcategory>audiolevels</effectcategory>
											<effecttype>audiolevels</effecttype>
											<mediatype>audio</mediatype>
											<parameter authoringApp="PremierePro">
												<parameterid>level</parameterid>
												<name>Level</name>
												<valuemin>0</valuemin>
												<valuemax>3.98109</valuemax>
												<value>0.706272</value>
											</parameter>
										</effect>
									</filter>
									<outputchannelindex>2</outputchannelindex>
								</track>
								<track TL.SQTrackAudioKeyframeStyle="0" TL.SQTrackShy="0" TL.SQTrackExpandedHeight="25" TL.SQTrackExpanded="0" MZ.TrackTargeted="0" PannerCurrentValue="0.5" PannerIsInverted="true" PannerStartKeyframe="-91445760000000000,0.5,0,0,0,0,0,0" PannerName="Balance" currentExplodedTrackIndex="0" totalExplodedTrackCount="2" premiereTrackType="Stereo">
									<enabled>TRUE</enabled>
									<locked>FALSE</locked>
									<outputchannelindex>1</outputchannelindex>
								</track>
								<track TL.SQTrackAudioKeyframeStyle="0" TL.SQTrackShy="0" TL.SQTrackExpandedHeight="25" TL.SQTrackExpanded="0" MZ.TrackTargeted="0" PannerCurrentValue="0.5" PannerIsInverted="true" PannerStartKeyframe="-91445760000000000,0.5,0,0,0,0,0,0" PannerName="Balance" currentExplodedTrackIndex="1" totalExplodedTrackCount="2" premiereTrackType="Stereo">
									<enabled>TRUE</enabled>
									<locked>FALSE</locked>
									<outputchannelindex>2</outputchannelindex>
								</track>
							</audio>
						</media>
						<timecode>
							<rate>
								<timebase>30</timebase>
								<ntsc>TRUE</ntsc>
							</rate>
							<string>00:00:00:00</string>
							<frame>0</frame>
							<displayformat>NDF</displayformat>
						</timecode>
						<labels>
							<label2>Forest</label2>
						</labels>
						<logginginfo>
							<description></description>
							<scene></scene>
							<shottake></shottake>
							<lognote></lognote>
							<good></good>
							<originalvideofilename></originalvideofilename>
							<originalaudiofilename></originalaudiofilename>
						</logginginfo>
					</sequence>
					<sequence id="sequence-102" TL.SQAudioVisibleBase="0" TL.SQVideoVisibleBase="0" TL.SQVisibleBaseTime="0" TL.SQAVDividerPosition="0.5" TL.SQHideShyTracks="0" TL.SQHeaderWidth="236" TL.SQDataTrackViewControlState="0" Monitor.ProgramZoomOut="18053171136000" Monitor.ProgramZoomIn="0" TL.SQTimePerPixel="0.27637033625057528" AM.TrackVScrollPosition="0" AM.TrackScrollPosition="0" MZ.EditLine="0" MZ.Sequence.PreviewFrameSizeHeight="1080" MZ.Sequence.PreviewFrameSizeWidth="1920" MZ.Sequence.AudioTimeDisplayFormat="200" MZ.Sequence.PreviewRenderingClassID="1297106761" MZ.Sequence.PreviewRenderingPresetCodec="1297107278" MZ.Sequence.PreviewRenderingPresetPath="EncoderPresets/SequencePreview/795454d9-d3c2-429d-9474-923ab13b7018/I-Frame Only MPEG.epr" MZ.Sequence.PreviewUseMaxRenderQuality="false" MZ.Sequence.PreviewUseMaxBitDepth="false" MZ.Sequence.EditingModeGUID="795454d9-d3c2-429d-9474-923ab13b7018" MZ.Sequence.VideoTimeDisplayFormat="103" MZ.WorkOutPoint="15705411321600" MZ.WorkInPoint="0" explodedTracks="true">
						<uuid>f14077e8-f636-4f34-b725-7c1451426062</uuid>
						<duration>0</duration>
						<rate>
							<timebase>30</timebase>
							<ntsc>TRUE</ntsc>
						</rate>
						<name>TEMPLATE Copy 2538</name>
						<media>
							<video>
								<format>
									<samplecharacteristics>
										<rate>
											<timebase>30</timebase>
											<ntsc>TRUE</ntsc>
										</rate>
										<codec>
											<name>Apple ProRes 422</name>
											<appspecificdata>
												<appname>Final Cut Pro</appname>
												<appmanufacturer>Apple Inc.</appmanufacturer>
												<appversion>7.0</appversion>
												<data>
													<qtcodec>
														<codecname>Apple ProRes 422</codecname>
														<codectypename>Apple ProRes 422</codectypename>
														<codectypecode>apcn</codectypecode>
														<codecvendorcode>appl</codecvendorcode>
														<spatialquality>1024</spatialquality>
														<temporalquality>0</temporalquality>
														<keyframerate>0</keyframerate>
														<datarate>0</datarate>
													</qtcodec>
												</data>
											</appspecificdata>
										</codec>
										<width>1920</width>
										<height>1080</height>
										<anamorphic>FALSE</anamorphic>
										<pixelaspectratio>square</pixelaspectratio>
										<fielddominance>none</fielddominance>
										<colordepth>24</colordepth>
									</samplecharacteristics>
								</format>
								<track TL.SQTrackShy="0" TL.SQTrackExpandedHeight="25" TL.SQTrackExpanded="0" MZ.TrackTargeted="1">
									<enabled>TRUE</enabled>
									<locked>FALSE</locked>
								</track>
								<track TL.SQTrackShy="0" TL.SQTrackExpandedHeight="25" TL.SQTrackExpanded="0" MZ.TrackTargeted="0">
									<enabled>TRUE</enabled>
									<locked>FALSE</locked>
								</track>
								<track TL.SQTrackShy="0" TL.SQTrackExpandedHeight="25" TL.SQTrackExpanded="0" MZ.TrackTargeted="0">
									<clipitem id="clipitem-1262">
										<masterclipid>masterclip-106</masterclipid>
										<name>Bug and Lower Nest</name>
										<enabled>TRUE</enabled>
										<duration>14721</duration>
										<rate>
											<timebase>30</timebase>
											<ntsc>TRUE</ntsc>
										</rate>
										<start>0</start>
										<end>2130</end>
										<in>0</in>
										<out>2130</out>
										<pproTicksIn>0</pproTicksIn>
										<pproTicksOut>18053171136000</pproTicksOut>
										<sequence id="sequence-1"/>
										<labels>
											<label2>Cerulean</label2>
										</labels>
									</clipitem>
									<enabled>TRUE</enabled>
									<locked>FALSE</locked>
								</track>
								<track TL.SQTrackShy="0" TL.SQTrackExpandedHeight="25" TL.SQTrackExpanded="0" MZ.TrackTargeted="0">
									<enabled>TRUE</enabled>
									<locked>FALSE</locked>
								</track>
							</video>
							<audio>
								<numOutputChannels>2</numOutputChannels>
								<format>
									<samplecharacteristics>
										<depth>16</depth>
										<samplerate>44100</samplerate>
									</samplecharacteristics>
								</format>
								<outputs>
									<group>
										<index>1</index>
										<numchannels>1</numchannels>
										<downmix>0</downmix>
										<channel>
											<index>1</index>
										</channel>
									</group>
									<group>
										<index>2</index>
										<numchannels>1</numchannels>
										<downmix>0</downmix>
										<channel>
											<index>2</index>
										</channel>
									</group>
								</outputs>
								<track TL.SQTrackAudioKeyframeStyle="0" TL.SQTrackShy="0" TL.SQTrackExpandedHeight="25" TL.SQTrackExpanded="0" MZ.TrackTargeted="1" PannerCurrentValue="0.5" PannerIsInverted="true" PannerStartKeyframe="-91445760000000000,0.5,0,0,0,0,0,0" PannerName="Balance" currentExplodedTrackIndex="0" totalExplodedTrackCount="2" premiereTrackType="Stereo">
									<enabled>TRUE</enabled>
									<locked>FALSE</locked>
									<filter>
										<effect>
											<name>Audio Levels</name>
											<effectid>audiolevels</effectid>
											<effectcategory>audiolevels</effectcategory>
											<effecttype>audiolevels</effecttype>
											<mediatype>audio</mediatype>
											<parameter authoringApp="PremierePro">
												<parameterid>level</parameterid>
												<name>Level</name>
												<valuemin>0</valuemin>
												<valuemax>3.98109</valuemax>
												<value>0.706272</value>
											</parameter>
										</effect>
									</filter>
									<outputchannelindex>1</outputchannelindex>
								</track>
								<track TL.SQTrackAudioKeyframeStyle="0" TL.SQTrackShy="0" TL.SQTrackExpandedHeight="25" TL.SQTrackExpanded="0" MZ.TrackTargeted="1" PannerCurrentValue="0.5" PannerIsInverted="true" PannerStartKeyframe="-91445760000000000,0.5,0,0,0,0,0,0" PannerName="Balance" currentExplodedTrackIndex="1" totalExplodedTrackCount="2" premiereTrackType="Stereo">
									<enabled>TRUE</enabled>
									<locked>FALSE</locked>
									<filter>
										<effect>
											<name>Audio Levels</name>
											<effectid>audiolevels</effectid>
											<effectcategory>audiolevels</effectcategory>
											<effecttype>audiolevels</effecttype>
											<mediatype>audio</mediatype>
											<parameter authoringApp="PremierePro">
												<parameterid>level</parameterid>
												<name>Level</name>
												<valuemin>0</valuemin>
												<valuemax>3.98109</valuemax>
												<value>0.706272</value>
											</parameter>
										</effect>
									</filter>
									<outputchannelindex>2</outputchannelindex>
								</track>
								<track TL.SQTrackAudioKeyframeStyle="0" TL.SQTrackShy="0" TL.SQTrackExpandedHeight="25" TL.SQTrackExpanded="0" MZ.TrackTargeted="0" PannerCurrentValue="0.5" PannerIsInverted="true" PannerStartKeyframe="-91445760000000000,0.5,0,0,0,0,0,0" PannerName="Balance" currentExplodedTrackIndex="0" totalExplodedTrackCount="2" premiereTrackType="Stereo">
									<enabled>TRUE</enabled>
									<locked>FALSE</locked>
									<filter>
										<effect>
											<name>Audio Levels</name>
											<effectid>audiolevels</effectid>
											<effectcategory>audiolevels</effectcategory>
											<effecttype>audiolevels</effecttype>
											<mediatype>audio</mediatype>
											<parameter authoringApp="PremierePro">
												<parameterid>level</parameterid>
												<name>Level</name>
												<valuemin>0</valuemin>
												<valuemax>3.98109</valuemax>
												<value>0.706272</value>
											</parameter>
										</effect>
									</filter>
									<outputchannelindex>1</outputchannelindex>
								</track>
								<track TL.SQTrackAudioKeyframeStyle="0" TL.SQTrackShy="0" TL.SQTrackExpandedHeight="25" TL.SQTrackExpanded="0" MZ.TrackTargeted="0" PannerCurrentValue="0.5" PannerIsInverted="true" PannerStartKeyframe="-91445760000000000,0.5,0,0,0,0,0,0" PannerName="Balance" currentExplodedTrackIndex="1" totalExplodedTrackCount="2" premiereTrackType="Stereo">
									<enabled>TRUE</enabled>
									<locked>FALSE</locked>
									<filter>
										<effect>
											<name>Audio Levels</name>
											<effectid>audiolevels</effectid>
											<effectcategory>audiolevels</effectcategory>
											<effecttype>audiolevels</effecttype>
											<mediatype>audio</mediatype>
											<parameter authoringApp="PremierePro">
												<parameterid>level</parameterid>
												<name>Level</name>
												<valuemin>0</valuemin>
												<valuemax>3.98109</valuemax>
												<value>0.706272</value>
											</parameter>
										</effect>
									</filter>
									<outputchannelindex>2</outputchannelindex>
								</track>
								<track TL.SQTrackAudioKeyframeStyle="0" TL.SQTrackShy="0" TL.SQTrackExpandedHeight="25" TL.SQTrackExpanded="0" MZ.TrackTargeted="0" PannerCurrentValue="0.5" PannerIsInverted="true" PannerStartKeyframe="-91445760000000000,0.5,0,0,0,0,0,0" PannerName="Balance" currentExplodedTrackIndex="0" totalExplodedTrackCount="2" premiereTrackType="Stereo">
									<enabled>TRUE</enabled>
									<locked>FALSE</locked>
									<outputchannelindex>1</outputchannelindex>
								</track>
								<track TL.SQTrackAudioKeyframeStyle="0" TL.SQTrackShy="0" TL.SQTrackExpandedHeight="25" TL.SQTrackExpanded="0" MZ.TrackTargeted="0" PannerCurrentValue="0.5" PannerIsInverted="true" PannerStartKeyframe="-91445760000000000,0.5,0,0,0,0,0,0" PannerName="Balance" currentExplodedTrackIndex="1" totalExplodedTrackCount="2" premiereTrackType="Stereo">
									<enabled>TRUE</enabled>
									<locked>FALSE</locked>
									<outputchannelindex>2</outputchannelindex>
								</track>
							</audio>
						</media>
						<timecode>
							<rate>
								<timebase>30</timebase>
								<ntsc>TRUE</ntsc>
							</rate>
							<string>00:00:00:00</string>
							<frame>0</frame>
							<displayformat>NDF</displayformat>
						</timecode>
						<labels>
							<label2>Forest</label2>
						</labels>
						<logginginfo>
							<description></description>
							<scene></scene>
							<shottake></shottake>
							<lognote></lognote>
							<good></good>
							<originalvideofilename></originalvideofilename>
							<originalaudiofilename></originalaudiofilename>
						</logginginfo>
					</sequence>
					<sequence id="sequence-103" TL.SQAudioVisibleBase="0" TL.SQVideoVisibleBase="0" TL.SQVisibleBaseTime="0" TL.SQAVDividerPosition="0.51990634203" TL.SQHideShyTracks="0" TL.SQHeaderWidth="236" Monitor.ProgramZoomOut="42734314022400" Monitor.ProgramZoomIn="0" TL.SQTimePerPixel="0.27998133457769481" AM.TrackVScrollPosition="0" AM.TrackScrollPosition="0" MZ.EditLine="0" MZ.Sequence.PreviewFrameSizeHeight="720" MZ.Sequence.PreviewFrameSizeWidth="1280" MZ.Sequence.AudioTimeDisplayFormat="200" MZ.Sequence.PreviewRenderingClassID="1297106761" MZ.Sequence.PreviewRenderingPresetCodec="1297107278" MZ.Sequence.PreviewRenderingPresetPath="EncoderPresets/SequencePreview/795454d9-d3c2-429d-9474-923ab13b7018/I-Frame Only MPEG.epr" MZ.Sequence.PreviewUseMaxRenderQuality="false" MZ.Sequence.PreviewUseMaxBitDepth="false" MZ.Sequence.EditingModeGUID="795454d9-d3c2-429d-9474-923ab13b7018" MZ.Sequence.VideoTimeDisplayFormat="103" MZ.WorkOutPoint="1662230899929600" MZ.WorkInPoint="0" explodedTracks="true">
						<uuid>393e5b22-6236-434f-a009-05eb1e0708bb</uuid>
						<duration>5042</duration>
						<rate>
							<timebase>30</timebase>
							<ntsc>TRUE</ntsc>
						</rate>
						<name>XML test</name>
						<media>
							<video>
								<format>
									<samplecharacteristics>
										<rate>
											<timebase>30</timebase>
											<ntsc>TRUE</ntsc>
										</rate>
										<codec>
											<name>Apple ProRes 422</name>
											<appspecificdata>
												<appname>Final Cut Pro</appname>
												<appmanufacturer>Apple Inc.</appmanufacturer>
												<appversion>7.0</appversion>
												<data>
													<qtcodec>
														<codecname>Apple ProRes 422</codecname>
														<codectypename>Apple ProRes 422</codectypename>
														<codectypecode>apcn</codectypecode>
														<codecvendorcode>appl</codecvendorcode>
														<spatialquality>1024</spatialquality>
														<temporalquality>0</temporalquality>
														<keyframerate>0</keyframerate>
														<datarate>0</datarate>
													</qtcodec>
												</data>
											</appspecificdata>
										</codec>
										<width>1280</width>
										<height>720</height>
										<anamorphic>FALSE</anamorphic>
										<pixelaspectratio>square</pixelaspectratio>
										<fielddominance>none</fielddominance>
										<colordepth>24</colordepth>
									</samplecharacteristics>
								</format>
								<track TL.SQTrackShy="0" TL.SQTrackExpandedHeight="15" TL.SQTrackExpanded="0" MZ.TrackTargeted="1">
									<clipitem id="clipitem-1263">
										<masterclipid>masterclip-137</masterclipid>
										<name>(Droolsss)_EASY CHICKEN BIRYANI _ Eid Special _ Droolsss_fk4Z0mhP98I_YT.mp4</name>
										<enabled>TRUE</enabled>
										<duration>5544</duration>
										<rate>
											<timebase>30</timebase>
											<ntsc>TRUE</ntsc>
										</rate>
										<start>0</start>
										<end>278</end>
										<in>207</in>
										<out>485</out>
										<pproTicksIn>1754463110400</pproTicksIn>
										<pproTicksOut>4110698592000</pproTicksOut>
										<alphatype>none</alphatype>
										<file id="file-134"/>
										<filter>
											<effect>
												<name>Basic Motion</name>
												<effectid>basic</effectid>
												<effectcategory>motion</effectcategory>
												<effecttype>motion</effecttype>
												<mediatype>video</mediatype>
												<pproBypass>false</pproBypass>
												<parameter authoringApp="PremierePro">
													<parameterid>scale</parameterid>
													<name>Scale</name>
													<valuemin>0</valuemin>
													<valuemax>1000</valuemax>
													<value>124</value>
												</parameter>
												<parameter authoringApp="PremierePro">
													<parameterid>rotation</parameterid>
													<name>Rotation</name>
													<valuemin>-8640</valuemin>
													<valuemax>8640</valuemax>
													<value>0</value>
												</parameter>
												<parameter authoringApp="PremierePro">
													<parameterid>center</parameterid>
													<name>Center</name>
													<value>
														<horiz>0</horiz>
														<vert>0.0861111</vert>
													</value>
												</parameter>
												<parameter authoringApp="PremierePro">
													<parameterid>centerOffset</parameterid>
													<name>Anchor Point</name>
													<value>
														<horiz>0</horiz>
														<vert>0</vert>
													</value>
												</parameter>
												<parameter authoringApp="PremierePro">
													<parameterid>antiflicker</parameterid>
													<name>Anti-flicker Filter</name>
													<valuemin>0.0</valuemin>
													<valuemax>1.0</valuemax>
													<value>0</value>
												</parameter>
											</effect>
										</filter>
										<logginginfo>
											<description></description>
											<scene></scene>
											<shottake></shottake>
											<lognote>https://www.youtube.com/watch?v=fk4Z0mhP98I</lognote>
											<good></good>
											<originalvideofilename></originalvideofilename>
											<originalaudiofilename></originalaudiofilename>
										</logginginfo>
										<colorinfo>
											<lut></lut>
											<lut1></lut1>
											<asc_sop></asc_sop>
											<asc_sat></asc_sat>
											<lut2></lut2>
										</colorinfo>
										<labels>
											<label2>Iris</label2>
										</labels>
									</clipitem>
									<clipitem id="clipitem-1264">
										<masterclipid>masterclip-137</masterclipid>
										<name>(Droolsss)_EASY CHICKEN BIRYANI _ Eid Special _ Droolsss_fk4Z0mhP98I_YT.mp4</name>
										<enabled>TRUE</enabled>
										<duration>5544</duration>
										<rate>
											<timebase>30</timebase>
											<ntsc>TRUE</ntsc>
										</rate>
										<start>278</start>
										<end>380</end>
										<in>485</in>
										<out>587</out>
										<pproTicksIn>4110698592000</pproTicksIn>
										<pproTicksOut>4975216646400</pproTicksOut>
										<alphatype>none</alphatype>
										<file id="file-134"/>
										<logginginfo>
											<description></description>
											<scene></scene>
											<shottake></shottake>
											<lognote>https://www.youtube.com/watch?v=fk4Z0mhP98I</lognote>
											<good></good>
											<originalvideofilename></originalvideofilename>
											<originalaudiofilename></originalaudiofilename>
										</logginginfo>
										<colorinfo>
											<lut></lut>
											<lut1></lut1>
											<asc_sop></asc_sop>
											<asc_sat></asc_sat>
											<lut2></lut2>
										</colorinfo>
										<labels>
											<label2>Iris</label2>
										</labels>
									</clipitem>
									<clipitem id="clipitem-1265">
										<masterclipid>masterclip-137</masterclipid>
										<name>(Droolsss)_EASY CHICKEN BIRYANI _ Eid Special _ Droolsss_fk4Z0mhP98I_YT.mp4</name>
										<enabled>TRUE</enabled>
										<duration>5544</duration>
										<rate>
											<timebase>30</timebase>
											<ntsc>TRUE</ntsc>
										</rate>
										<start>380</start>
										<end>470</end>
										<in>766</in>
										<out>856</out>
										<pproTicksIn>6492361075200</pproTicksIn>
										<pproTicksOut>7255171123200</pproTicksOut>
										<alphatype>none</alphatype>
										<file id="file-134"/>
										<logginginfo>
											<description></description>
											<scene></scene>
											<shottake></shottake>
											<lognote>https://www.youtube.com/watch?v=fk4Z0mhP98I</lognote>
											<good></good>
											<originalvideofilename></originalvideofilename>
											<originalaudiofilename></originalaudiofilename>
										</logginginfo>
										<colorinfo>
											<lut></lut>
											<lut1></lut1>
											<asc_sop></asc_sop>
											<asc_sat></asc_sat>
											<lut2></lut2>
										</colorinfo>
										<labels>
											<label2>Iris</label2>
										</labels>
									</clipitem>
									<clipitem id="clipitem-1266">
										<masterclipid>masterclip-137</masterclipid>
										<name>(Droolsss)_EASY CHICKEN BIRYANI _ Eid Special _ Droolsss_fk4Z0mhP98I_YT.mp4</name>
										<enabled>TRUE</enabled>
										<duration>5544</duration>
										<rate>
											<timebase>30</timebase>
											<ntsc>TRUE</ntsc>
										</rate>
										<start>470</start>
										<end>947</end>
										<in>856</in>
										<out>1333</out>
										<pproTicksIn>7255171123200</pproTicksIn>
										<pproTicksOut>11298064377600</pproTicksOut>
										<alphatype>none</alphatype>
										<file id="file-134"/>
										<filter>
											<effect>
												<name>Basic Motion</name>
												<effectid>basic</effectid>
												<effectcategory>motion</effectcategory>
												<effecttype>motion</effecttype>
												<mediatype>video</mediatype>
												<pproBypass>false</pproBypass>
												<parameter authoringApp="PremierePro">
													<parameterid>scale</parameterid>
													<name>Scale</name>
													<valuemin>0</valuemin>
													<valuemax>1000</valuemax>
													<value>124</value>
												</parameter>
												<parameter authoringApp="PremierePro">
													<parameterid>rotation</parameterid>
													<name>Rotation</name>
													<valuemin>-8640</valuemin>
													<valuemax>8640</valuemax>
													<value>0</value>
												</parameter>
												<parameter authoringApp="PremierePro">
													<parameterid>center</parameterid>
													<name>Center</name>
													<value>
														<horiz>0</horiz>
														<vert>0.0861111</vert>
													</value>
												</parameter>
												<parameter authoringApp="PremierePro">
													<parameterid>centerOffset</parameterid>
													<name>Anchor Point</name>
													<value>
														<horiz>0</horiz>
														<vert>0</vert>
													</value>
												</parameter>
												<parameter authoringApp="PremierePro">
													<parameterid>antiflicker</parameterid>
													<name>Anti-flicker Filter</name>
													<valuemin>0.0</valuemin>
													<valuemax>1.0</valuemax>
													<value>0</value>
												</parameter>
											</effect>
										</filter>
										<logginginfo>
											<description></description>
											<scene></scene>
											<shottake></shottake>
											<lognote>https://www.youtube.com/watch?v=fk4Z0mhP98I</lognote>
											<good></good>
											<originalvideofilename></originalvideofilename>
											<originalaudiofilename></originalaudiofilename>
										</logginginfo>
										<colorinfo>
											<lut></lut>
											<lut1></lut1>
											<asc_sop></asc_sop>
											<asc_sat></asc_sat>
											<lut2></lut2>
										</colorinfo>
										<labels>
											<label2>Iris</label2>
										</labels>
									</clipitem>
									<clipitem id="clipitem-1267">
										<masterclipid>masterclip-137</masterclipid>
										<name>(Droolsss)_EASY CHICKEN BIRYANI _ Eid Special _ Droolsss_fk4Z0mhP98I_YT.mp4</name>
										<enabled>TRUE</enabled>
										<duration>5544</duration>
										<rate>
											<timebase>30</timebase>
											<ntsc>TRUE</ntsc>
										</rate>
										<start>947</start>
										<end>1145</end>
										<in>1536</in>
										<out>1734</out>
										<pproTicksIn>13018624819200</pproTicksIn>
										<pproTicksOut>14696806924800</pproTicksOut>
										<alphatype>none</alphatype>
										<file id="file-134"/>
										<logginginfo>
											<description></description>
											<scene></scene>
											<shottake></shottake>
											<lognote>https://www.youtube.com/watch?v=fk4Z0mhP98I</lognote>
											<good></good>
											<originalvideofilename></originalvideofilename>
											<originalaudiofilename></originalaudiofilename>
										</logginginfo>
										<colorinfo>
											<lut></lut>
											<lut1></lut1>
											<asc_sop></asc_sop>
											<asc_sat></asc_sat>
											<lut2></lut2>
										</colorinfo>
										<labels>
											<label2>Iris</label2>
										</labels>
									</clipitem>
									<clipitem id="clipitem-1268">
										<masterclipid>masterclip-137</masterclipid>
										<name>(Droolsss)_EASY CHICKEN BIRYANI _ Eid Special _ Droolsss_fk4Z0mhP98I_YT.mp4</name>
										<enabled>TRUE</enabled>
										<duration>5544</duration>
										<rate>
											<timebase>30</timebase>
											<ntsc>TRUE</ntsc>
										</rate>
										<start>1145</start>
										<end>1303</end>
										<in>1804</in>
										<out>1962</out>
										<pproTicksIn>15290103628800</pproTicksIn>
										<pproTicksOut>16629259046400</pproTicksOut>
										<alphatype>none</alphatype>
										<file id="file-134"/>
										<filter>
											<effect>
												<name>Basic Motion</name>
												<effectid>basic</effectid>
												<effectcategory>motion</effectcategory>
												<effecttype>motion</effecttype>
												<mediatype>video</mediatype>
												<pproBypass>false</pproBypass>
												<parameter authoringApp="PremierePro">
													<parameterid>scale</parameterid>
													<name>Scale</name>
													<valuemin>0</valuemin>
													<valuemax>1000</valuemax>
													<value>124</value>
												</parameter>
												<parameter authoringApp="PremierePro">
													<parameterid>rotation</parameterid>
													<name>Rotation</name>
													<valuemin>-8640</valuemin>
													<valuemax>8640</valuemax>
													<value>0</value>
												</parameter>
												<parameter authoringApp="PremierePro">
													<parameterid>center</parameterid>
													<name>Center</name>
													<value>
														<horiz>0</horiz>
														<vert>0.0861111</vert>
													</value>
												</parameter>
												<parameter authoringApp="PremierePro">
													<parameterid>centerOffset</parameterid>
													<name>Anchor Point</name>
													<value>
														<horiz>0</horiz>
														<vert>0</vert>
													</value>
												</parameter>
												<parameter authoringApp="PremierePro">
													<parameterid>antiflicker</parameterid>
													<name>Anti-flicker Filter</name>
													<valuemin>0.0</valuemin>
													<valuemax>1.0</valuemax>
													<value>0</value>
												</parameter>
											</effect>
										</filter>
										<logginginfo>
											<description></description>
											<scene></scene>
											<shottake></shottake>
											<lognote>https://www.youtube.com/watch?v=fk4Z0mhP98I</lognote>
											<good></good>
											<originalvideofilename></originalvideofilename>
											<originalaudiofilename></originalaudiofilename>
										</logginginfo>
										<colorinfo>
											<lut></lut>
											<lut1></lut1>
											<asc_sop></asc_sop>
											<asc_sat></asc_sat>
											<lut2></lut2>
										</colorinfo>
										<labels>
											<label2>Iris</label2>
										</labels>
									</clipitem>
									<clipitem id="clipitem-1269">
										<masterclipid>masterclip-137</masterclipid>
										<name>(Droolsss)_EASY CHICKEN BIRYANI _ Eid Special _ Droolsss_fk4Z0mhP98I_YT.mp4</name>
										<enabled>TRUE</enabled>
										<duration>5544</duration>
										<rate>
											<timebase>30</timebase>
											<ntsc>TRUE</ntsc>
										</rate>
										<start>1303</start>
										<end>1445</end>
										<in>2010</in>
										<out>2152</out>
										<pproTicksIn>17036091072000</pproTicksIn>
										<pproTicksOut>18239635814400</pproTicksOut>
										<alphatype>none</alphatype>
										<file id="file-134"/>
										<logginginfo>
											<description></description>
											<scene></scene>
											<shottake></shottake>
											<lognote>https://www.youtube.com/watch?v=fk4Z0mhP98I</lognote>
											<good></good>
											<originalvideofilename></originalvideofilename>
											<originalaudiofilename></originalaudiofilename>
										</logginginfo>
										<colorinfo>
											<lut></lut>
											<lut1></lut1>
											<asc_sop></asc_sop>
											<asc_sat></asc_sat>
											<lut2></lut2>
										</colorinfo>
										<labels>
											<label2>Iris</label2>
										</labels>
									</clipitem>
									<clipitem id="clipitem-1270">
										<masterclipid>masterclip-137</masterclipid>
										<name>(Droolsss)_EASY CHICKEN BIRYANI _ Eid Special _ Droolsss_fk4Z0mhP98I_YT.mp4</name>
										<enabled>TRUE</enabled>
										<duration>5544</duration>
										<rate>
											<timebase>30</timebase>
											<ntsc>TRUE</ntsc>
										</rate>
										<start>1445</start>
										<end>1588</end>
										<in>2345</in>
										<out>2488</out>
										<pproTicksIn>19875439584000</pproTicksIn>
										<pproTicksOut>21087459993600</pproTicksOut>
										<alphatype>none</alphatype>
										<file id="file-134"/>
										<filter>
											<effect>
												<name>Basic Motion</name>
												<effectid>basic</effectid>
												<effectcategory>motion</effectcategory>
												<effecttype>motion</effecttype>
												<mediatype>video</mediatype>
												<pproBypass>false</pproBypass>
												<parameter authoringApp="PremierePro">
													<parameterid>scale</parameterid>
													<name>Scale</name>
													<valuemin>0</valuemin>
													<valuemax>1000</valuemax>
													<value>124</value>
												</parameter>
												<parameter authoringApp="PremierePro">
													<parameterid>rotation</parameterid>
													<name>Rotation</name>
													<valuemin>-8640</valuemin>
													<valuemax>8640</valuemax>
													<value>0</value>
												</parameter>
												<parameter authoringApp="PremierePro">
													<parameterid>center</parameterid>
													<name>Center</name>
													<value>
														<horiz>0</horiz>
														<vert>0.0861111</vert>
													</value>
												</parameter>
												<parameter authoringApp="PremierePro">
													<parameterid>centerOffset</parameterid>
													<name>Anchor Point</name>
													<value>
														<horiz>0</horiz>
														<vert>0</vert>
													</value>
												</parameter>
												<parameter authoringApp="PremierePro">
													<parameterid>antiflicker</parameterid>
													<name>Anti-flicker Filter</name>
													<valuemin>0.0</valuemin>
													<valuemax>1.0</valuemax>
													<value>0</value>
												</parameter>
											</effect>
										</filter>
										<logginginfo>
											<description></description>
											<scene></scene>
											<shottake></shottake>
											<lognote>https://www.youtube.com/watch?v=fk4Z0mhP98I</lognote>
											<good></good>
											<originalvideofilename></originalvideofilename>
											<originalaudiofilename></originalaudiofilename>
										</logginginfo>
										<colorinfo>
											<lut></lut>
											<lut1></lut1>
											<asc_sop></asc_sop>
											<asc_sat></asc_sat>
											<lut2></lut2>
										</colorinfo>
										<labels>
											<label2>Iris</label2>
										</labels>
									</clipitem>
									<clipitem id="clipitem-1271">
										<masterclipid>masterclip-137</masterclipid>
										<name>(Droolsss)_EASY CHICKEN BIRYANI _ Eid Special _ Droolsss_fk4Z0mhP98I_YT.mp4</name>
										<enabled>TRUE</enabled>
										<duration>5544</duration>
										<rate>
											<timebase>30</timebase>
											<ntsc>TRUE</ntsc>
										</rate>
										<start>1588</start>
										<end>1643</end>
										<in>2488</in>
										<out>2543</out>
										<pproTicksIn>21087459993600</pproTicksIn>
										<pproTicksOut>21553621689600</pproTicksOut>
										<alphatype>none</alphatype>
										<file id="file-134"/>
										<logginginfo>
											<description></description>
											<scene></scene>
											<shottake></shottake>
											<lognote>https://www.youtube.com/watch?v=fk4Z0mhP98I</lognote>
											<good></good>
											<originalvideofilename></originalvideofilename>
											<originalaudiofilename></originalaudiofilename>
										</logginginfo>
										<colorinfo>
											<lut></lut>
											<lut1></lut1>
											<asc_sop></asc_sop>
											<asc_sat></asc_sat>
											<lut2></lut2>
										</colorinfo>
										<labels>
											<label2>Iris</label2>
										</labels>
									</clipitem>
									<clipitem id="clipitem-1272">
										<masterclipid>masterclip-137</masterclipid>
										<name>(Droolsss)_EASY CHICKEN BIRYANI _ Eid Special _ Droolsss_fk4Z0mhP98I_YT.mp4</name>
										<enabled>TRUE</enabled>
										<duration>5544</duration>
										<rate>
											<timebase>30</timebase>
											<ntsc>TRUE</ntsc>
										</rate>
										<start>1643</start>
										<end>2711</end>
										<in>2543</in>
										<out>3611</out>
										<pproTicksIn>21553621689600</pproTicksIn>
										<pproTicksOut>30605634259200</pproTicksOut>
										<alphatype>none</alphatype>
										<file id="file-134"/>
										<filter>
											<effect>
												<name>Basic Motion</name>
												<effectid>basic</effectid>
												<effectcategory>motion</effectcategory>
												<effecttype>motion</effecttype>
												<mediatype>video</mediatype>
												<pproBypass>false</pproBypass>
												<parameter authoringApp="PremierePro">
													<parameterid>scale</parameterid>
													<name>Scale</name>
													<valuemin>0</valuemin>
													<valuemax>1000</valuemax>
													<value>124</value>
												</parameter>
												<parameter authoringApp="PremierePro">
													<parameterid>rotation</parameterid>
													<name>Rotation</name>
													<valuemin>-8640</valuemin>
													<valuemax>8640</valuemax>
													<value>0</value>
												</parameter>
												<parameter authoringApp="PremierePro">
													<parameterid>center</parameterid>
													<name>Center</name>
													<value>
														<horiz>0</horiz>
														<vert>0.0861111</vert>
													</value>
												</parameter>
												<parameter authoringApp="PremierePro">
													<parameterid>centerOffset</parameterid>
													<name>Anchor Point</name>
													<value>
														<horiz>0</horiz>
														<vert>0</vert>
													</value>
												</parameter>
												<parameter authoringApp="PremierePro">
													<parameterid>antiflicker</parameterid>
													<name>Anti-flicker Filter</name>
													<valuemin>0.0</valuemin>
													<valuemax>1.0</valuemax>
													<value>0</value>
												</parameter>
											</effect>
										</filter>
										<logginginfo>
											<description></description>
											<scene></scene>
											<shottake></shottake>
											<lognote>https://www.youtube.com/watch?v=fk4Z0mhP98I</lognote>
											<good></good>
											<originalvideofilename></originalvideofilename>
											<originalaudiofilename></originalaudiofilename>
										</logginginfo>
										<colorinfo>
											<lut></lut>
											<lut1></lut1>
											<asc_sop></asc_sop>
											<asc_sat></asc_sat>
											<lut2></lut2>
										</colorinfo>
										<labels>
											<label2>Iris</label2>
										</labels>
									</clipitem>
									<clipitem id="clipitem-1273">
										<masterclipid>masterclip-137</masterclipid>
										<name>(Droolsss)_EASY CHICKEN BIRYANI _ Eid Special _ Droolsss_fk4Z0mhP98I_YT.mp4</name>
										<enabled>TRUE</enabled>
										<duration>5544</duration>
										<rate>
											<timebase>30</timebase>
											<ntsc>TRUE</ntsc>
										</rate>
										<start>2711</start>
										<end>2875</end>
										<in>3611</in>
										<out>3775</out>
										<pproTicksIn>30605634259200</pproTicksIn>
										<pproTicksOut>31995643680000</pproTicksOut>
										<alphatype>none</alphatype>
										<file id="file-134"/>
										<filter>
											<effect>
												<name>Basic Motion</name>
												<effectid>basic</effectid>
												<effectcategory>motion</effectcategory>
												<effecttype>motion</effecttype>
												<mediatype>video</mediatype>
												<pproBypass>false</pproBypass>
												<parameter authoringApp="PremierePro">
													<parameterid>scale</parameterid>
													<name>Scale</name>
													<valuemin>0</valuemin>
													<valuemax>1000</valuemax>
													<value>139</value>
												</parameter>
												<parameter authoringApp="PremierePro">
													<parameterid>rotation</parameterid>
													<name>Rotation</name>
													<valuemin>-8640</valuemin>
													<valuemax>8640</valuemax>
													<value>0</value>
												</parameter>
												<parameter authoringApp="PremierePro">
													<parameterid>center</parameterid>
													<name>Center</name>
													<value>
														<horiz>0</horiz>
														<vert>0.0861111</vert>
													</value>
												</parameter>
												<parameter authoringApp="PremierePro">
													<parameterid>centerOffset</parameterid>
													<name>Anchor Point</name>
													<value>
														<horiz>0</horiz>
														<vert>0</vert>
													</value>
												</parameter>
												<parameter authoringApp="PremierePro">
													<parameterid>antiflicker</parameterid>
													<name>Anti-flicker Filter</name>
													<valuemin>0.0</valuemin>
													<valuemax>1.0</valuemax>
													<value>0</value>
												</parameter>
											</effect>
										</filter>
										<logginginfo>
											<description></description>
											<scene></scene>
											<shottake></shottake>
											<lognote>https://www.youtube.com/watch?v=fk4Z0mhP98I</lognote>
											<good></good>
											<originalvideofilename></originalvideofilename>
											<originalaudiofilename></originalaudiofilename>
										</logginginfo>
										<colorinfo>
											<lut></lut>
											<lut1></lut1>
											<asc_sop></asc_sop>
											<asc_sat></asc_sat>
											<lut2></lut2>
										</colorinfo>
										<labels>
											<label2>Iris</label2>
										</labels>
									</clipitem>
									<clipitem id="clipitem-1274">
										<masterclipid>masterclip-137</masterclipid>
										<name>(Droolsss)_EASY CHICKEN BIRYANI _ Eid Special _ Droolsss_fk4Z0mhP98I_YT.mp4</name>
										<enabled>TRUE</enabled>
										<duration>5544</duration>
										<rate>
											<timebase>30</timebase>
											<ntsc>TRUE</ntsc>
										</rate>
										<start>2875</start>
										<end>2955</end>
										<in>3775</in>
										<out>3855</out>
										<pproTicksIn>31995643680000</pproTicksIn>
										<pproTicksOut>32673697056000</pproTicksOut>
										<alphatype>none</alphatype>
										<file id="file-134"/>
										<filter>
											<effect>
												<name>Basic Motion</name>
												<effectid>basic</effectid>
												<effectcategory>motion</effectcategory>
												<effecttype>motion</effecttype>
												<mediatype>video</mediatype>
												<pproBypass>false</pproBypass>
												<parameter authoringApp="PremierePro">
													<parameterid>scale</parameterid>
													<name>Scale</name>
													<valuemin>0</valuemin>
													<valuemax>1000</valuemax>
													<value>124</value>
												</parameter>
												<parameter authoringApp="PremierePro">
													<parameterid>rotation</parameterid>
													<name>Rotation</name>
													<valuemin>-8640</valuemin>
													<valuemax>8640</valuemax>
													<value>0</value>
												</parameter>
												<parameter authoringApp="PremierePro">
													<parameterid>center</parameterid>
													<name>Center</name>
													<value>
														<horiz>0</horiz>
														<vert>0.0861111</vert>
													</value>
												</parameter>
												<parameter authoringApp="PremierePro">
													<parameterid>centerOffset</parameterid>
													<name>Anchor Point</name>
													<value>
														<horiz>0</horiz>
														<vert>0</vert>
													</value>
												</parameter>
												<parameter authoringApp="PremierePro">
													<parameterid>antiflicker</parameterid>
													<name>Anti-flicker Filter</name>
													<valuemin>0.0</valuemin>
													<valuemax>1.0</valuemax>
													<value>0</value>
												</parameter>
											</effect>
										</filter>
										<logginginfo>
											<description></description>
											<scene></scene>
											<shottake></shottake>
											<lognote>https://www.youtube.com/watch?v=fk4Z0mhP98I</lognote>
											<good></good>
											<originalvideofilename></originalvideofilename>
											<originalaudiofilename></originalaudiofilename>
										</logginginfo>
										<colorinfo>
											<lut></lut>
											<lut1></lut1>
											<asc_sop></asc_sop>
											<asc_sat></asc_sat>
											<lut2></lut2>
										</colorinfo>
										<labels>
											<label2>Iris</label2>
										</labels>
									</clipitem>
									<clipitem id="clipitem-1275">
										<masterclipid>masterclip-137</masterclipid>
										<name>(Droolsss)_EASY CHICKEN BIRYANI _ Eid Special _ Droolsss_fk4Z0mhP98I_YT.mp4</name>
										<enabled>TRUE</enabled>
										<duration>5544</duration>
										<rate>
											<timebase>30</timebase>
											<ntsc>TRUE</ntsc>
										</rate>
										<start>2955</start>
										<end>3063</end>
										<in>3855</in>
										<out>3963</out>
										<pproTicksIn>32673697056000</pproTicksIn>
										<pproTicksOut>33589069113600</pproTicksOut>
										<alphatype>none</alphatype>
										<file id="file-134"/>
										<filter>
											<effect>
												<name>Basic Motion</name>
												<effectid>basic</effectid>
												<effectcategory>motion</effectcategory>
												<effecttype>motion</effecttype>
												<mediatype>video</mediatype>
												<pproBypass>false</pproBypass>
												<parameter authoringApp="PremierePro">
													<parameterid>scale</parameterid>
													<name>Scale</name>
													<valuemin>0</valuemin>
													<valuemax>1000</valuemax>
													<value>156</value>
												</parameter>
												<parameter authoringApp="PremierePro">
													<parameterid>rotation</parameterid>
													<name>Rotation</name>
													<valuemin>-8640</valuemin>
													<valuemax>8640</valuemax>
													<value>0</value>
												</parameter>
												<parameter authoringApp="PremierePro">
													<parameterid>center</parameterid>
													<name>Center</name>
													<value>
														<horiz>-0.127604</horiz>
														<vert>0.112963</vert>
													</value>
												</parameter>
												<parameter authoringApp="PremierePro">
													<parameterid>centerOffset</parameterid>
													<name>Anchor Point</name>
													<value>
														<horiz>0</horiz>
														<vert>0</vert>
													</value>
												</parameter>
												<parameter authoringApp="PremierePro">
													<parameterid>antiflicker</parameterid>
													<name>Anti-flicker Filter</name>
													<valuemin>0.0</valuemin>
													<valuemax>1.0</valuemax>
													<value>0</value>
												</parameter>
											</effect>
										</filter>
										<logginginfo>
											<description></description>
											<scene></scene>
											<shottake></shottake>
											<lognote>https://www.youtube.com/watch?v=fk4Z0mhP98I</lognote>
											<good></good>
											<originalvideofilename></originalvideofilename>
											<originalaudiofilename></originalaudiofilename>
										</logginginfo>
										<colorinfo>
											<lut></lut>
											<lut1></lut1>
											<asc_sop></asc_sop>
											<asc_sat></asc_sat>
											<lut2></lut2>
										</colorinfo>
										<labels>
											<label2>Iris</label2>
										</labels>
									</clipitem>
									<clipitem id="clipitem-1276">
										<masterclipid>masterclip-137</masterclipid>
										<name>(Droolsss)_EASY CHICKEN BIRYANI _ Eid Special _ Droolsss_fk4Z0mhP98I_YT.mp4</name>
										<enabled>TRUE</enabled>
										<duration>5544</duration>
										<rate>
											<timebase>30</timebase>
											<ntsc>TRUE</ntsc>
										</rate>
										<start>3063</start>
										<end>3125</end>
										<in>3963</in>
										<out>4025</out>
										<pproTicksIn>33589069113600</pproTicksIn>
										<pproTicksOut>34114560480000</pproTicksOut>
										<alphatype>none</alphatype>
										<file id="file-134"/>
										<filter>
											<effect>
												<name>Basic Motion</name>
												<effectid>basic</effectid>
												<effectcategory>motion</effectcategory>
												<effecttype>motion</effecttype>
												<mediatype>video</mediatype>
												<pproBypass>false</pproBypass>
												<parameter authoringApp="PremierePro">
													<parameterid>scale</parameterid>
													<name>Scale</name>
													<valuemin>0</valuemin>
													<valuemax>1000</valuemax>
													<value>124</value>
												</parameter>
												<parameter authoringApp="PremierePro">
													<parameterid>rotation</parameterid>
													<name>Rotation</name>
													<valuemin>-8640</valuemin>
													<valuemax>8640</valuemax>
													<value>0</value>
												</parameter>
												<parameter authoringApp="PremierePro">
													<parameterid>center</parameterid>
													<name>Center</name>
													<value>
														<horiz>0</horiz>
														<vert>0.0861111</vert>
													</value>
												</parameter>
												<parameter authoringApp="PremierePro">
													<parameterid>centerOffset</parameterid>
													<name>Anchor Point</name>
													<value>
														<horiz>0</horiz>
														<vert>0</vert>
													</value>
												</parameter>
												<parameter authoringApp="PremierePro">
													<parameterid>antiflicker</parameterid>
													<name>Anti-flicker Filter</name>
													<valuemin>0.0</valuemin>
													<valuemax>1.0</valuemax>
													<value>0</value>
												</parameter>
											</effect>
										</filter>
										<logginginfo>
											<description></description>
											<scene></scene>
											<shottake></shottake>
											<lognote>https://www.youtube.com/watch?v=fk4Z0mhP98I</lognote>
											<good></good>
											<originalvideofilename></originalvideofilename>
											<originalaudiofilename></originalaudiofilename>
										</logginginfo>
										<colorinfo>
											<lut></lut>
											<lut1></lut1>
											<asc_sop></asc_sop>
											<asc_sat></asc_sat>
											<lut2></lut2>
										</colorinfo>
										<labels>
											<label2>Iris</label2>
										</labels>
									</clipitem>
									<clipitem id="clipitem-1277">
										<masterclipid>masterclip-137</masterclipid>
										<name>(Droolsss)_EASY CHICKEN BIRYANI _ Eid Special _ Droolsss_fk4Z0mhP98I_YT.mp4</name>
										<enabled>TRUE</enabled>
										<duration>5544</duration>
										<rate>
											<timebase>30</timebase>
											<ntsc>TRUE</ntsc>
										</rate>
										<start>3125</start>
										<end>3453</end>
										<in>4143</in>
										<out>4471</out>
										<pproTicksIn>35114689209600</pproTicksIn>
										<pproTicksOut>37894708051200</pproTicksOut>
										<alphatype>none</alphatype>
										<file id="file-134"/>
										<filter>
											<effect>
												<name>Basic Motion</name>
												<effectid>basic</effectid>
												<effectcategory>motion</effectcategory>
												<effecttype>motion</effecttype>
												<mediatype>video</mediatype>
												<pproBypass>false</pproBypass>
												<parameter authoringApp="PremierePro">
													<parameterid>scale</parameterid>
													<name>Scale</name>
													<valuemin>0</valuemin>
													<valuemax>1000</valuemax>
													<value>124</value>
												</parameter>
												<parameter authoringApp="PremierePro">
													<parameterid>rotation</parameterid>
													<name>Rotation</name>
													<valuemin>-8640</valuemin>
													<valuemax>8640</valuemax>
													<value>0</value>
												</parameter>
												<parameter authoringApp="PremierePro">
													<parameterid>center</parameterid>
													<name>Center</name>
													<value>
														<horiz>0</horiz>
														<vert>0.0861111</vert>
													</value>
												</parameter>
												<parameter authoringApp="PremierePro">
													<parameterid>centerOffset</parameterid>
													<name>Anchor Point</name>
													<value>
														<horiz>0</horiz>
														<vert>0</vert>
													</value>
												</parameter>
												<parameter authoringApp="PremierePro">
													<parameterid>antiflicker</parameterid>
													<name>Anti-flicker Filter</name>
													<valuemin>0.0</valuemin>
													<valuemax>1.0</valuemax>
													<value>0</value>
												</parameter>
											</effect>
										</filter>
										<logginginfo>
											<description></description>
											<scene></scene>
											<shottake></shottake>
											<lognote>https://www.youtube.com/watch?v=fk4Z0mhP98I</lognote>
											<good></good>
											<originalvideofilename></originalvideofilename>
											<originalaudiofilename></originalaudiofilename>
										</logginginfo>
										<colorinfo>
											<lut></lut>
											<lut1></lut1>
											<asc_sop></asc_sop>
											<asc_sat></asc_sat>
											<lut2></lut2>
										</colorinfo>
										<labels>
											<label2>Iris</label2>
										</labels>
									</clipitem>
									<clipitem id="clipitem-1278">
										<masterclipid>masterclip-137</masterclipid>
										<name>(Droolsss)_EASY CHICKEN BIRYANI _ Eid Special _ Droolsss_fk4Z0mhP98I_YT.mp4</name>
										<enabled>TRUE</enabled>
										<duration>5544</duration>
										<rate>
											<timebase>30</timebase>
											<ntsc>TRUE</ntsc>
										</rate>
										<start>3453</start>
										<end>3922</end>
										<in>4593</in>
										<out>5062</out>
										<pproTicksIn>38928739449600</pproTicksIn>
										<pproTicksOut>42903827366400</pproTicksOut>
										<alphatype>none</alphatype>
										<file id="file-134"/>
										<filter>
											<effect>
												<name>Basic Motion</name>
												<effectid>basic</effectid>
												<effectcategory>motion</effectcategory>
												<effecttype>motion</effecttype>
												<mediatype>video</mediatype>
												<pproBypass>false</pproBypass>
												<parameter authoringApp="PremierePro">
													<parameterid>scale</parameterid>
													<name>Scale</name>
													<valuemin>0</valuemin>
													<valuemax>1000</valuemax>
													<value>124</value>
												</parameter>
												<parameter authoringApp="PremierePro">
													<parameterid>rotation</parameterid>
													<name>Rotation</name>
													<valuemin>-8640</valuemin>
													<valuemax>8640</valuemax>
													<value>0</value>
												</parameter>
												<parameter authoringApp="PremierePro">
													<parameterid>center</parameterid>
													<name>Center</name>
													<value>
														<horiz>0</horiz>
														<vert>0.0861111</vert>
													</value>
												</parameter>
												<parameter authoringApp="PremierePro">
													<parameterid>centerOffset</parameterid>
													<name>Anchor Point</name>
													<value>
														<horiz>0</horiz>
														<vert>0</vert>
													</value>
												</parameter>
												<parameter authoringApp="PremierePro">
													<parameterid>antiflicker</parameterid>
													<name>Anti-flicker Filter</name>
													<valuemin>0.0</valuemin>
													<valuemax>1.0</valuemax>
													<value>0</value>
												</parameter>
											</effect>
										</filter>
										<logginginfo>
											<description></description>
											<scene></scene>
											<shottake></shottake>
											<lognote>https://www.youtube.com/watch?v=fk4Z0mhP98I</lognote>
											<good></good>
											<originalvideofilename></originalvideofilename>
											<originalaudiofilename></originalaudiofilename>
										</logginginfo>
										<colorinfo>
											<lut></lut>
											<lut1></lut1>
											<asc_sop></asc_sop>
											<asc_sat></asc_sat>
											<lut2></lut2>
										</colorinfo>
										<labels>
											<label2>Iris</label2>
										</labels>
									</clipitem>
									<clipitem id="clipitem-1279">
										<masterclipid>masterclip-137</masterclipid>
										<name>(Droolsss)_EASY CHICKEN BIRYANI _ Eid Special _ Droolsss_fk4Z0mhP98I_YT.mp4</name>
										<enabled>TRUE</enabled>
										<duration>5544</duration>
										<rate>
											<timebase>30</timebase>
											<ntsc>TRUE</ntsc>
										</rate>
										<start>3922</start>
										<end>4030</end>
										<in>5062</in>
										<out>5170</out>
										<pproTicksIn>42903827366400</pproTicksIn>
										<pproTicksOut>43819199424000</pproTicksOut>
										<alphatype>none</alphatype>
										<file id="file-134"/>
										<filter>
											<effect>
												<name>Basic Motion</name>
												<effectid>basic</effectid>
												<effectcategory>motion</effectcategory>
												<effecttype>motion</effecttype>
												<mediatype>video</mediatype>
												<pproBypass>false</pproBypass>
												<parameter authoringApp="PremierePro">
													<parameterid>scale</parameterid>
													<name>Scale</name>
													<valuemin>0</valuemin>
													<valuemax>1000</valuemax>
													<value>124</value>
												</parameter>
												<parameter authoringApp="PremierePro">
													<parameterid>rotation</parameterid>
													<name>Rotation</name>
													<valuemin>-8640</valuemin>
													<valuemax>8640</valuemax>
													<value>0</value>
												</parameter>
												<parameter authoringApp="PremierePro">
													<parameterid>center</parameterid>
													<name>Center</name>
													<value>
														<horiz>0</horiz>
														<vert>0.0861111</vert>
													</value>
												</parameter>
												<parameter authoringApp="PremierePro">
													<parameterid>centerOffset</parameterid>
													<name>Anchor Point</name>
													<value>
														<horiz>0</horiz>
														<vert>0</vert>
													</value>
												</parameter>
												<parameter authoringApp="PremierePro">
													<parameterid>antiflicker</parameterid>
													<name>Anti-flicker Filter</name>
													<valuemin>0.0</valuemin>
													<valuemax>1.0</valuemax>
													<value>0</value>
												</parameter>
											</effect>
										</filter>
										<logginginfo>
											<description></description>
											<scene></scene>
											<shottake></shottake>
											<lognote>https://www.youtube.com/watch?v=fk4Z0mhP98I</lognote>
											<good></good>
											<originalvideofilename></originalvideofilename>
											<originalaudiofilename></originalaudiofilename>
										</logginginfo>
										<colorinfo>
											<lut></lut>
											<lut1></lut1>
											<asc_sop></asc_sop>
											<asc_sat></asc_sat>
											<lut2></lut2>
										</colorinfo>
										<labels>
											<label2>Iris</label2>
										</labels>
									</clipitem>
									<clipitem id="clipitem-1280">
										<masterclipid>masterclip-137</masterclipid>
										<name>(Droolsss)_EASY CHICKEN BIRYANI _ Eid Special _ Droolsss_fk4Z0mhP98I_YT.mp4</name>
										<enabled>TRUE</enabled>
										<duration>5544</duration>
										<rate>
											<timebase>30</timebase>
											<ntsc>TRUE</ntsc>
										</rate>
										<start>4030</start>
										<end>4090</end>
										<in>5387</in>
										<out>5447</out>
										<pproTicksIn>45658419206400</pproTicksIn>
										<pproTicksOut>46166959238400</pproTicksOut>
										<alphatype>none</alphatype>
										<file id="file-134"/>
										<filter>
											<effect>
												<name>Basic Motion</name>
												<effectid>basic</effectid>
												<effectcategory>motion</effectcategory>
												<effecttype>motion</effecttype>
												<mediatype>video</mediatype>
												<pproBypass>false</pproBypass>
												<parameter authoringApp="PremierePro">
													<parameterid>scale</parameterid>
													<name>Scale</name>
													<valuemin>0</valuemin>
													<valuemax>1000</valuemax>
													<value>124</value>
												</parameter>
												<parameter authoringApp="PremierePro">
													<parameterid>rotation</parameterid>
													<name>Rotation</name>
													<valuemin>-8640</valuemin>
													<valuemax>8640</valuemax>
													<value>0</value>
												</parameter>
												<parameter authoringApp="PremierePro">
													<parameterid>center</parameterid>
													<name>Center</name>
													<value>
														<horiz>0</horiz>
														<vert>-0.0657407</vert>
													</value>
												</parameter>
												<parameter authoringApp="PremierePro">
													<parameterid>centerOffset</parameterid>
													<name>Anchor Point</name>
													<value>
														<horiz>0</horiz>
														<vert>0</vert>
													</value>
												</parameter>
												<parameter authoringApp="PremierePro">
													<parameterid>antiflicker</parameterid>
													<name>Anti-flicker Filter</name>
													<valuemin>0.0</valuemin>
													<valuemax>1.0</valuemax>
													<value>0</value>
												</parameter>
											</effect>
										</filter>
										<logginginfo>
											<description></description>
											<scene></scene>
											<shottake></shottake>
											<lognote>https://www.youtube.com/watch?v=fk4Z0mhP98I</lognote>
											<good></good>
											<originalvideofilename></originalvideofilename>
											<originalaudiofilename></originalaudiofilename>
										</logginginfo>
										<colorinfo>
											<lut></lut>
											<lut1></lut1>
											<asc_sop></asc_sop>
											<asc_sat></asc_sat>
											<lut2></lut2>
										</colorinfo>
										<labels>
											<label2>Iris</label2>
										</labels>
									</clipitem>
									<clipitem id="clipitem-1281">
										<masterclipid>masterclip-138</masterclipid>
										<name>All the Colors of the Rainbow_HAPPY.mp4</name>
										<enabled>TRUE</enabled>
										<duration>1190</duration>
										<rate>
											<timebase>30</timebase>
											<ntsc>TRUE</ntsc>
										</rate>
										<start>4090</start>
										<end>4372</end>
										<in>85</in>
										<out>367</out>
										<pproTicksIn>720431712000</pproTicksIn>
										<pproTicksOut>3110569862400</pproTicksOut>
										<alphatype>none</alphatype>
										<file id="file-135"/>
										<filter>
											<effect>
												<name>Basic Motion</name>
												<effectid>basic</effectid>
												<effectcategory>motion</effectcategory>
												<effecttype>motion</effecttype>
												<mediatype>video</mediatype>
												<pproBypass>false</pproBypass>
												<parameter authoringApp="PremierePro">
													<parameterid>scale</parameterid>
													<name>Scale</name>
													<valuemin>0</valuemin>
													<valuemax>1000</valuemax>
													<value>150</value>
												</parameter>
												<parameter authoringApp="PremierePro">
													<parameterid>rotation</parameterid>
													<name>Rotation</name>
													<valuemin>-8640</valuemin>
													<valuemax>8640</valuemax>
													<value>0</value>
												</parameter>
												<parameter authoringApp="PremierePro">
													<parameterid>center</parameterid>
													<name>Center</name>
													<value>
														<horiz>0</horiz>
														<vert>0</vert>
													</value>
												</parameter>
												<parameter authoringApp="PremierePro">
													<parameterid>centerOffset</parameterid>
													<name>Anchor Point</name>
													<value>
														<horiz>0</horiz>
														<vert>0</vert>
													</value>
												</parameter>
												<parameter authoringApp="PremierePro">
													<parameterid>antiflicker</parameterid>
													<name>Anti-flicker Filter</name>
													<valuemin>0.0</valuemin>
													<valuemax>1.0</valuemax>
													<value>0</value>
												</parameter>
											</effect>
										</filter>
										<logginginfo>
											<description></description>
											<scene></scene>
											<shottake></shottake>
											<lognote></lognote>
											<good></good>
											<originalvideofilename></originalvideofilename>
											<originalaudiofilename></originalaudiofilename>
										</logginginfo>
										<colorinfo>
											<lut></lut>
											<lut1></lut1>
											<asc_sop></asc_sop>
											<asc_sat></asc_sat>
											<lut2></lut2>
										</colorinfo>
										<labels>
											<label2>Iris</label2>
										</labels>
									</clipitem>
									<clipitem id="clipitem-1282">
										<masterclipid>masterclip-138</masterclipid>
										<name>All the Colors of the Rainbow_HAPPY.mp4</name>
										<enabled>TRUE</enabled>
										<duration>1190</duration>
										<rate>
											<timebase>30</timebase>
											<ntsc>TRUE</ntsc>
										</rate>
										<start>4372</start>
										<end>4554</end>
										<in>405</in>
										<out>587</out>
										<pproTicksIn>3432645216000</pproTicksIn>
										<pproTicksOut>4975216646400</pproTicksOut>
										<alphatype>none</alphatype>
										<file id="file-135"/>
										<filter>
											<effect>
												<name>Basic Motion</name>
												<effectid>basic</effectid>
												<effectcategory>motion</effectcategory>
												<effecttype>motion</effecttype>
												<mediatype>video</mediatype>
												<pproBypass>false</pproBypass>
												<parameter authoringApp="PremierePro">
													<parameterid>scale</parameterid>
													<name>Scale</name>
													<valuemin>0</valuemin>
													<valuemax>1000</valuemax>
													<value>150</value>
												</parameter>
												<parameter authoringApp="PremierePro">
													<parameterid>rotation</parameterid>
													<name>Rotation</name>
													<valuemin>-8640</valuemin>
													<valuemax>8640</valuemax>
													<value>0</value>
												</parameter>
												<parameter authoringApp="PremierePro">
													<parameterid>center</parameterid>
													<name>Center</name>
													<value>
														<horiz>0</horiz>
														<vert>0</vert>
													</value>
												</parameter>
												<parameter authoringApp="PremierePro">
													<parameterid>centerOffset</parameterid>
													<name>Anchor Point</name>
													<value>
														<horiz>0</horiz>
														<vert>0</vert>
													</value>
												</parameter>
												<parameter authoringApp="PremierePro">
													<parameterid>antiflicker</parameterid>
													<name>Anti-flicker Filter</name>
													<valuemin>0.0</valuemin>
													<valuemax>1.0</valuemax>
													<value>0</value>
												</parameter>
											</effect>
										</filter>
										<logginginfo>
											<description></description>
											<scene></scene>
											<shottake></shottake>
											<lognote></lognote>
											<good></good>
											<originalvideofilename></originalvideofilename>
											<originalaudiofilename></originalaudiofilename>
										</logginginfo>
										<colorinfo>
											<lut></lut>
											<lut1></lut1>
											<asc_sop></asc_sop>
											<asc_sat></asc_sat>
											<lut2></lut2>
										</colorinfo>
										<labels>
											<label2>Iris</label2>
										</labels>
									</clipitem>
									<clipitem id="clipitem-1283">
										<masterclipid>masterclip-138</masterclipid>
										<name>All the Colors of the Rainbow_HAPPY.mp4</name>
										<enabled>TRUE</enabled>
										<duration>1190</duration>
										<rate>
											<timebase>30</timebase>
											<ntsc>TRUE</ntsc>
										</rate>
										<start>4554</start>
										<end>4784</end>
										<in>647</in>
										<out>877</out>
										<pproTicksIn>5483756678400</pproTicksIn>
										<pproTicksOut>7433160134400</pproTicksOut>
										<alphatype>none</alphatype>
										<file id="file-135"/>
										<filter>
											<effect>
												<name>Basic Motion</name>
												<effectid>basic</effectid>
												<effectcategory>motion</effectcategory>
												<effecttype>motion</effecttype>
												<mediatype>video</mediatype>
												<pproBypass>false</pproBypass>
												<parameter authoringApp="PremierePro">
													<parameterid>scale</parameterid>
													<name>Scale</name>
													<valuemin>0</valuemin>
													<valuemax>1000</valuemax>
													<value>150</value>
												</parameter>
												<parameter authoringApp="PremierePro">
													<parameterid>rotation</parameterid>
													<name>Rotation</name>
													<valuemin>-8640</valuemin>
													<valuemax>8640</valuemax>
													<value>0</value>
												</parameter>
												<parameter authoringApp="PremierePro">
													<parameterid>center</parameterid>
													<name>Center</name>
													<value>
														<horiz>0</horiz>
														<vert>0</vert>
													</value>
												</parameter>
												<parameter authoringApp="PremierePro">
													<parameterid>centerOffset</parameterid>
													<name>Anchor Point</name>
													<value>
														<horiz>0</horiz>
														<vert>0</vert>
													</value>
												</parameter>
												<parameter authoringApp="PremierePro">
													<parameterid>antiflicker</parameterid>
													<name>Anti-flicker Filter</name>
													<valuemin>0.0</valuemin>
													<valuemax>1.0</valuemax>
													<value>0</value>
												</parameter>
											</effect>
										</filter>
										<logginginfo>
											<description></description>
											<scene></scene>
											<shottake></shottake>
											<lognote></lognote>
											<good></good>
											<originalvideofilename></originalvideofilename>
											<originalaudiofilename></originalaudiofilename>
										</logginginfo>
										<colorinfo>
											<lut></lut>
											<lut1></lut1>
											<asc_sop></asc_sop>
											<asc_sat></asc_sat>
											<lut2></lut2>
										</colorinfo>
										<labels>
											<label2>Iris</label2>
										</labels>
									</clipitem>
									<clipitem id="clipitem-1284">
										<masterclipid>masterclip-138</masterclipid>
										<name>All the Colors of the Rainbow_HAPPY.mp4</name>
										<enabled>TRUE</enabled>
										<duration>1190</duration>
										<rate>
											<timebase>30</timebase>
											<ntsc>TRUE</ntsc>
										</rate>
										<start>4784</start>
										<end>5042</end>
										<in>932</in>
										<out>1190</out>
										<pproTicksIn>7899321830400</pproTicksIn>
										<pproTicksOut>10086043968000</pproTicksOut>
										<alphatype>none</alphatype>
										<file id="file-135"/>
										<filter>
											<effect>
												<name>Basic Motion</name>
												<effectid>basic</effectid>
												<effectcategory>motion</effectcategory>
												<effecttype>motion</effecttype>
												<mediatype>video</mediatype>
												<pproBypass>false</pproBypass>
												<parameter authoringApp="PremierePro">
													<parameterid>scale</parameterid>
													<name>Scale</name>
													<valuemin>0</valuemin>
													<valuemax>1000</valuemax>
													<value>150</value>
												</parameter>
												<parameter authoringApp="PremierePro">
													<parameterid>rotation</parameterid>
													<name>Rotation</name>
													<valuemin>-8640</valuemin>
													<valuemax>8640</valuemax>
													<value>0</value>
												</parameter>
												<parameter authoringApp="PremierePro">
													<parameterid>center</parameterid>
													<name>Center</name>
													<value>
														<horiz>0</horiz>
														<vert>0</vert>
													</value>
												</parameter>
												<parameter authoringApp="PremierePro">
													<parameterid>centerOffset</parameterid>
													<name>Anchor Point</name>
													<value>
														<horiz>0</horiz>
														<vert>0</vert>
													</value>
												</parameter>
												<parameter authoringApp="PremierePro">
													<parameterid>antiflicker</parameterid>
													<name>Anti-flicker Filter</name>
													<valuemin>0.0</valuemin>
													<valuemax>1.0</valuemax>
													<value>0</value>
												</parameter>
											</effect>
										</filter>
										<logginginfo>
											<description></description>
											<scene></scene>
											<shottake></shottake>
											<lognote></lognote>
											<good></good>
											<originalvideofilename></originalvideofilename>
											<originalaudiofilename></originalaudiofilename>
										</logginginfo>
										<colorinfo>
											<lut></lut>
											<lut1></lut1>
											<asc_sop></asc_sop>
											<asc_sat></asc_sat>
											<lut2></lut2>
										</colorinfo>
										<labels>
											<label2>Iris</label2>
										</labels>
									</clipitem>
									<enabled>TRUE</enabled>
									<locked>FALSE</locked>
								</track>
								<track TL.SQTrackShy="0" TL.SQTrackExpandedHeight="15" TL.SQTrackExpanded="0" MZ.TrackTargeted="0">
									<clipitem id="clipitem-1285">
										<masterclipid>masterclip-67</masterclipid>
										<name>droolsss</name>
										<enabled>TRUE</enabled>
										<duration>5844</duration>
										<rate>
											<timebase>30</timebase>
											<ntsc>TRUE</ntsc>
										</rate>
										<start>0</start>
										<end>4090</end>
										<in>0</in>
										<out>4090</out>
										<pproTicksIn>0</pproTicksIn>
										<pproTicksOut>34665478848000</pproTicksOut>
										<alphatype>straight</alphatype>
										<file id="file-67"/>
										<filter>
											<effect>
												<name>Basic Motion</name>
												<effectid>basic</effectid>
												<effectcategory>motion</effectcategory>
												<effecttype>motion</effecttype>
												<mediatype>video</mediatype>
												<pproBypass>false</pproBypass>
												<parameter authoringApp="PremierePro">
													<parameterid>scale</parameterid>
													<name>Scale</name>
													<valuemin>0</valuemin>
													<valuemax>1000</valuemax>
													<value>150</value>
												</parameter>
												<parameter authoringApp="PremierePro">
													<parameterid>rotation</parameterid>
													<name>Rotation</name>
													<valuemin>-8640</valuemin>
													<valuemax>8640</valuemax>
													<value>0</value>
												</parameter>
												<parameter authoringApp="PremierePro">
													<parameterid>center</parameterid>
													<name>Center</name>
													<value>
														<horiz>0</horiz>
														<vert>0</vert>
													</value>
												</parameter>
												<parameter authoringApp="PremierePro">
													<parameterid>centerOffset</parameterid>
													<name>Anchor Point</name>
													<value>
														<horiz>0</horiz>
														<vert>0</vert>
													</value>
												</parameter>
												<parameter authoringApp="PremierePro">
													<parameterid>antiflicker</parameterid>
													<name>Anti-flicker Filter</name>
													<valuemin>0.0</valuemin>
													<valuemax>1.0</valuemax>
													<value>0</value>
												</parameter>
											</effect>
										</filter>
										<logginginfo>
											<description></description>
											<scene></scene>
											<shottake></shottake>
											<lognote></lognote>
											<good></good>
											<originalvideofilename></originalvideofilename>
											<originalaudiofilename></originalaudiofilename>
										</logginginfo>
										<colorinfo>
											<lut></lut>
											<lut1></lut1>
											<asc_sop></asc_sop>
											<asc_sat></asc_sat>
											<lut2></lut2>
										</colorinfo>
										<labels>
											<label2>Rose</label2>
										</labels>
									</clipitem>
									<clipitem id="clipitem-1286">
										<masterclipid>masterclip-122</masterclipid>
										<name>Adjustment Layer</name>
										<enabled>TRUE</enabled>
										<duration>1294705</duration>
										<rate>
											<timebase>30</timebase>
											<ntsc>TRUE</ntsc>
										</rate>
										<start>4090</start>
										<end>5042</end>
										<in>107892</in>
										<out>108844</out>
										<pproTicksIn>914456685542400</pproTicksIn>
										<pproTicksOut>922525520716800</pproTicksOut>
										<alphatype>none</alphatype>
										<file id="file-121"/>
										<filter>
											<effect>
												<name>Basic Motion</name>
												<effectid>basic</effectid>
												<effectcategory>motion</effectcategory>
												<effecttype>motion</effecttype>
												<mediatype>video</mediatype>
												<pproBypass>false</pproBypass>
												<parameter authoringApp="PremierePro">
													<parameterid>scale</parameterid>
													<name>Scale</name>
													<valuemin>0</valuemin>
													<valuemax>1000</valuemax>
													<value>150</value>
												</parameter>
												<parameter authoringApp="PremierePro">
													<parameterid>rotation</parameterid>
													<name>Rotation</name>
													<valuemin>-8640</valuemin>
													<valuemax>8640</valuemax>
													<value>0</value>
												</parameter>
												<parameter authoringApp="PremierePro">
													<parameterid>center</parameterid>
													<name>Center</name>
													<value>
														<horiz>0</horiz>
														<vert>0</vert>
													</value>
												</parameter>
												<parameter authoringApp="PremierePro">
													<parameterid>centerOffset</parameterid>
													<name>Anchor Point</name>
													<value>
														<horiz>0</horiz>
														<vert>0</vert>
													</value>
												</parameter>
												<parameter authoringApp="PremierePro">
													<parameterid>antiflicker</parameterid>
													<name>Anti-flicker Filter</name>
													<valuemin>0.0</valuemin>
													<valuemax>1.0</valuemax>
													<value>0</value>
												</parameter>
											</effect>
										</filter>
										<filter>
											<effect>
												<name>Gaussian Blur</name>
												<effectid>Gaussian Blur</effectid>
												<effectcategory>Blur</effectcategory>
												<effecttype>motion</effecttype>
												<mediatype>video</mediatype>
												<pproBypass>false</pproBypass>
												<parameter authoringApp="PremierePro">
													<parameterid>radius</parameterid>
													<name>Radius</name>
													<valuemin>0</valuemin>
													<valuemax>100</valuemax>
													<value>150</value>
												</parameter>
											</effect>
										</filter>
										<logginginfo>
											<description></description>
											<scene></scene>
											<shottake></shottake>
											<lognote></lognote>
											<good></good>
											<originalvideofilename></originalvideofilename>
											<originalaudiofilename></originalaudiofilename>
										</logginginfo>
										<colorinfo>
											<lut></lut>
											<lut1></lut1>
											<asc_sop></asc_sop>
											<asc_sat></asc_sat>
											<lut2></lut2>
										</colorinfo>
										<labels>
											<label2>Lavender</label2>
										</labels>
									</clipitem>
									<enabled>TRUE</enabled>
									<locked>FALSE</locked>
								</track>
								<track TL.SQTrackShy="0" TL.SQTrackExpandedHeight="15" TL.SQTrackExpanded="0" MZ.TrackTargeted="0">
									<clipitem id="clipitem-1287">
										<masterclipid>masterclip-106</masterclipid>
										<name>Bug and Lower Nest</name>
										<enabled>TRUE</enabled>
										<duration>14721</duration>
										<rate>
											<timebase>30</timebase>
											<ntsc>TRUE</ntsc>
										</rate>
										<start>0</start>
										<end>4090</end>
										<in>0</in>
										<out>4090</out>
										<pproTicksIn>0</pproTicksIn>
										<pproTicksOut>34665478848000</pproTicksOut>
										<sequence id="sequence-1"/>
										<labels>
											<label2>Cerulean</label2>
										</labels>
									</clipitem>
									<clipitem id="clipitem-1288">
										<masterclipid>masterclip-36</masterclipid>
										<name>thejesjewel</name>
										<enabled>TRUE</enabled>
										<duration>5844</duration>
										<rate>
											<timebase>30</timebase>
											<ntsc>TRUE</ntsc>
										</rate>
										<start>4090</start>
										<end>5042</end>
										<in>0</in>
										<out>952</out>
										<pproTicksIn>0</pproTicksIn>
										<pproTicksOut>8068835174400</pproTicksOut>
										<alphatype>straight</alphatype>
										<file id="file-36"/>
										<filter>
											<effect>
												<name>Basic Motion</name>
												<effectid>basic</effectid>
												<effectcategory>motion</effectcategory>
												<effecttype>motion</effecttype>
												<mediatype>video</mediatype>
												<pproBypass>false</pproBypass>
												<parameter authoringApp="PremierePro">
													<parameterid>scale</parameterid>
													<name>Scale</name>
													<valuemin>0</valuemin>
													<valuemax>1000</valuemax>
													<value>150</value>
												</parameter>
												<parameter authoringApp="PremierePro">
													<parameterid>rotation</parameterid>
													<name>Rotation</name>
													<valuemin>-8640</valuemin>
													<valuemax>8640</valuemax>
													<value>0</value>
												</parameter>
												<parameter authoringApp="PremierePro">
													<parameterid>center</parameterid>
													<name>Center</name>
													<value>
														<horiz>0</horiz>
														<vert>0</vert>
													</value>
												</parameter>
												<parameter authoringApp="PremierePro">
													<parameterid>centerOffset</parameterid>
													<name>Anchor Point</name>
													<value>
														<horiz>0</horiz>
														<vert>0</vert>
													</value>
												</parameter>
												<parameter authoringApp="PremierePro">
													<parameterid>antiflicker</parameterid>
													<name>Anti-flicker Filter</name>
													<valuemin>0.0</valuemin>
													<valuemax>1.0</valuemax>
													<value>0</value>
												</parameter>
											</effect>
										</filter>
										<logginginfo>
											<description></description>
											<scene></scene>
											<shottake></shottake>
											<lognote></lognote>
											<good></good>
											<originalvideofilename></originalvideofilename>
											<originalaudiofilename></originalaudiofilename>
										</logginginfo>
										<colorinfo>
											<lut></lut>
											<lut1></lut1>
											<asc_sop></asc_sop>
											<asc_sat></asc_sat>
											<lut2></lut2>
										</colorinfo>
										<labels>
											<label2>Rose</label2>
										</labels>
									</clipitem>
									<enabled>TRUE</enabled>
									<locked>FALSE</locked>
								</track>
								<track TL.SQTrackShy="0" TL.SQTrackExpandedHeight="15" TL.SQTrackExpanded="0" MZ.TrackTargeted="0">
									<clipitem id="clipitem-1289">
										<masterclipid>masterclip-106</masterclipid>
										<name>Bug and Lower Nest</name>
										<enabled>TRUE</enabled>
										<duration>14721</duration>
										<rate>
											<timebase>30</timebase>
											<ntsc>TRUE</ntsc>
										</rate>
										<start>4090</start>
										<end>5042</end>
										<in>0</in>
										<out>952</out>
										<pproTicksIn>0</pproTicksIn>
										<pproTicksOut>8068835174400</pproTicksOut>
										<sequence id="sequence-1"/>
										<labels>
											<label2>Cerulean</label2>
										</labels>
									</clipitem>
									<enabled>TRUE</enabled>
									<locked>FALSE</locked>
								</track>
								<track TL.SQTrackShy="0" TL.SQTrackExpandedHeight="15" TL.SQTrackExpanded="0" MZ.TrackTargeted="0">
									<enabled>TRUE</enabled>
									<locked>FALSE</locked>
								</track>
								<track TL.SQTrackShy="0" TL.SQTrackExpandedHeight="15" TL.SQTrackExpanded="0" MZ.TrackTargeted="0">
									<enabled>TRUE</enabled>
									<locked>FALSE</locked>
								</track>
								<track TL.SQTrackShy="0" TL.SQTrackExpandedHeight="15" TL.SQTrackExpanded="0" MZ.TrackTargeted="0">
									<enabled>TRUE</enabled>
									<locked>FALSE</locked>
								</track>
								<track TL.SQTrackShy="0" TL.SQTrackExpandedHeight="15" TL.SQTrackExpanded="0" MZ.TrackTargeted="0">
									<enabled>TRUE</enabled>
									<locked>FALSE</locked>
								</track>
							</video>
							<audio>
								<numOutputChannels>2</numOutputChannels>
								<format>
									<samplecharacteristics>
										<depth>16</depth>
										<samplerate>44100</samplerate>
									</samplecharacteristics>
								</format>
								<outputs>
									<group>
										<index>1</index>
										<numchannels>1</numchannels>
										<downmix>0</downmix>
										<channel>
											<index>1</index>
										</channel>
									</group>
									<group>
										<index>2</index>
										<numchannels>1</numchannels>
										<downmix>0</downmix>
										<channel>
											<index>2</index>
										</channel>
									</group>
								</outputs>
								<track TL.SQTrackAudioKeyframeStyle="0" TL.SQTrackShy="0" TL.SQTrackExpandedHeight="25" TL.SQTrackExpanded="0" MZ.TrackTargeted="1" PannerCurrentValue="0.5" PannerIsInverted="true" PannerStartKeyframe="-91445760000000000,0.5,0,0,0,0,0,0" PannerName="Balance" currentExplodedTrackIndex="0" totalExplodedTrackCount="2" premiereTrackType="Stereo">
									<transitionitem>
										<start>0</start>
										<end>30</end>
										<pproTicksIn>0</pproTicksIn>
										<pproTicksOut>254270016000</pproTicksOut>
										<alignment>start-black</alignment>
										<cutPointTicks>0</cutPointTicks>
										<rate>
											<timebase>30</timebase>
											<ntsc>TRUE</ntsc>
										</rate>
										<effect>
											<name>Cross Fade (+3dB)</name>
											<effectid>KGAudioTransCrossFade3dB</effectid>
											<effecttype>transition</effecttype>
											<mediatype>audio</mediatype>
											<wipecode>0</wipecode>
											<wipeaccuracy>100</wipeaccuracy>
											<startratio>0</startratio>
											<endratio>1</endratio>
											<reverse>FALSE</reverse>
										</effect>
									</transitionitem>
									<clipitem id="clipitem-1290" premiereChannelType="stereo">
										<masterclipid>masterclip-29</masterclipid>
										<name>ES_I See Blue - Dye O.mp3</name>
										<enabled>TRUE</enabled>
										<duration>7405</duration>
										<rate>
											<timebase>30</timebase>
											<ntsc>TRUE</ntsc>
										</rate>
										<start>-1</start>
										<end>-1</end>
										<in>1601</in>
										<out>5691</out>
										<pproTicksIn>13569543187200</pproTicksIn>
										<pproTicksOut>48235022035200</pproTicksOut>
										<file id="file-29"/>
										<sourcetrack>
											<mediatype>audio</mediatype>
											<trackindex>1</trackindex>
										</sourcetrack>
										<link>
											<linkclipref>clipitem-1290</linkclipref>
											<mediatype>audio</mediatype>
											<trackindex>1</trackindex>
											<clipindex>2</clipindex>
											<groupindex>1</groupindex>
										</link>
										<link>
											<linkclipref>clipitem-1292</linkclipref>
											<mediatype>audio</mediatype>
											<trackindex>2</trackindex>
											<clipindex>2</clipindex>
											<groupindex>1</groupindex>
										</link>
										<logginginfo>
											<description></description>
											<scene></scene>
											<shottake></shottake>
											<lognote></lognote>
											<good></good>
											<originalvideofilename></originalvideofilename>
											<originalaudiofilename></originalaudiofilename>
										</logginginfo>
										<colorinfo>
											<lut></lut>
											<lut1></lut1>
											<asc_sop></asc_sop>
											<asc_sat></asc_sat>
											<lut2></lut2>
										</colorinfo>
										<labels>
											<label2>Caribbean</label2>
										</labels>
									</clipitem>
									<transitionitem>
										<start>4000</start>
										<end>4090</end>
										<pproTicksIn>33902668800000</pproTicksIn>
										<pproTicksOut>34665478848000</pproTicksOut>
										<alignment>end-black</alignment>
										<cutPointTicks>762810048000</cutPointTicks>
										<rate>
											<timebase>30</timebase>
											<ntsc>TRUE</ntsc>
										</rate>
										<effect>
											<name>Cross Fade (+3dB)</name>
											<effectid>KGAudioTransCrossFade3dB</effectid>
											<effecttype>transition</effecttype>
											<mediatype>audio</mediatype>
											<wipecode>0</wipecode>
											<wipeaccuracy>100</wipeaccuracy>
											<startratio>0</startratio>
											<endratio>1</endratio>
											<reverse>FALSE</reverse>
										</effect>
									</transitionitem>
									<transitionitem>
										<start>4090</start>
										<end>4120</end>
										<pproTicksIn>34665478848000</pproTicksIn>
										<pproTicksOut>34919748864000</pproTicksOut>
										<alignment>start-black</alignment>
										<cutPointTicks>0</cutPointTicks>
										<rate>
											<timebase>30</timebase>
											<ntsc>TRUE</ntsc>
										</rate>
										<effect>
											<name>Cross Fade (+3dB)</name>
											<effectid>KGAudioTransCrossFade3dB</effectid>
											<effecttype>transition</effecttype>
											<mediatype>audio</mediatype>
											<wipecode>0</wipecode>
											<wipeaccuracy>100</wipeaccuracy>
											<startratio>0</startratio>
											<endratio>1</endratio>
											<reverse>FALSE</reverse>
										</effect>
									</transitionitem>
									<clipitem id="clipitem-1291" premiereChannelType="stereo">
										<masterclipid>masterclip-30</masterclipid>
										<name>ES_Blitz - Ballpoint.mp3</name>
										<enabled>TRUE</enabled>
										<duration>4356</duration>
										<rate>
											<timebase>30</timebase>
											<ntsc>TRUE</ntsc>
										</rate>
										<start>-1</start>
										<end>-1</end>
										<in>426</in>
										<out>1378</out>
										<pproTicksIn>3610634227200</pproTicksIn>
										<pproTicksOut>11679469401600</pproTicksOut>
										<file id="file-30"/>
										<sourcetrack>
											<mediatype>audio</mediatype>
											<trackindex>1</trackindex>
										</sourcetrack>
											<marker>
												<comment></comment>
												<name></name>
												<in>427</in>
												<out>-1</out>
											</marker>
										<link>
											<linkclipref>clipitem-1291</linkclipref>
											<mediatype>audio</mediatype>
											<trackindex>1</trackindex>
											<clipindex>5</clipindex>
											<groupindex>1</groupindex>
										</link>
										<link>
											<linkclipref>clipitem-1293</linkclipref>
											<mediatype>audio</mediatype>
											<trackindex>2</trackindex>
											<clipindex>5</clipindex>
											<groupindex>1</groupindex>
										</link>
										<logginginfo>
											<description></description>
											<scene></scene>
											<shottake></shottake>
											<lognote></lognote>
											<good></good>
											<originalvideofilename></originalvideofilename>
											<originalaudiofilename></originalaudiofilename>
										</logginginfo>
										<colorinfo>
											<lut></lut>
											<lut1></lut1>
											<asc_sop></asc_sop>
											<asc_sat></asc_sat>
											<lut2></lut2>
										</colorinfo>
										<labels>
											<label2>Forest</label2>
										</labels>
									</clipitem>
									<transitionitem>
										<start>4952</start>
										<end>5042</end>
										<pproTicksIn>41971503974400</pproTicksIn>
										<pproTicksOut>42734314022400</pproTicksOut>
										<alignment>end-black</alignment>
										<cutPointTicks>762810048000</cutPointTicks>
										<rate>
											<timebase>30</timebase>
											<ntsc>TRUE</ntsc>
										</rate>
										<effect>
											<name>Cross Fade (+3dB)</name>
											<effectid>KGAudioTransCrossFade3dB</effectid>
											<effecttype>transition</effecttype>
											<mediatype>audio</mediatype>
											<wipecode>0</wipecode>
											<wipeaccuracy>100</wipeaccuracy>
											<startratio>0</startratio>
											<endratio>1</endratio>
											<reverse>FALSE</reverse>
										</effect>
									</transitionitem>
									<enabled>TRUE</enabled>
									<locked>FALSE</locked>
									<outputchannelindex>1</outputchannelindex>
								</track>
								<track TL.SQTrackAudioKeyframeStyle="0" TL.SQTrackShy="0" TL.SQTrackExpandedHeight="25" TL.SQTrackExpanded="0" MZ.TrackTargeted="1" PannerCurrentValue="0.5" PannerIsInverted="true" PannerStartKeyframe="-91445760000000000,0.5,0,0,0,0,0,0" PannerName="Balance" currentExplodedTrackIndex="1" totalExplodedTrackCount="2" premiereTrackType="Stereo">
									<transitionitem>
										<start>0</start>
										<end>30</end>
										<pproTicksIn>0</pproTicksIn>
										<pproTicksOut>254270016000</pproTicksOut>
										<alignment>start-black</alignment>
										<cutPointTicks>0</cutPointTicks>
										<rate>
											<timebase>30</timebase>
											<ntsc>TRUE</ntsc>
										</rate>
										<effect>
											<name>Cross Fade (+3dB)</name>
											<effectid>KGAudioTransCrossFade3dB</effectid>
											<effecttype>transition</effecttype>
											<mediatype>audio</mediatype>
											<wipecode>0</wipecode>
											<wipeaccuracy>100</wipeaccuracy>
											<startratio>0</startratio>
											<endratio>1</endratio>
											<reverse>FALSE</reverse>
										</effect>
									</transitionitem>
									<clipitem id="clipitem-1292" premiereChannelType="stereo">
										<masterclipid>masterclip-29</masterclipid>
										<name>ES_I See Blue - Dye O.mp3</name>
										<enabled>TRUE</enabled>
										<duration>7405</duration>
										<rate>
											<timebase>30</timebase>
											<ntsc>TRUE</ntsc>
										</rate>
										<start>-1</start>
										<end>-1</end>
										<in>1601</in>
										<out>5691</out>
										<pproTicksIn>13569543187200</pproTicksIn>
										<pproTicksOut>48235022035200</pproTicksOut>
										<file id="file-29"/>
										<sourcetrack>
											<mediatype>audio</mediatype>
											<trackindex>2</trackindex>
										</sourcetrack>
										<link>
											<linkclipref>clipitem-1290</linkclipref>
											<mediatype>audio</mediatype>
											<trackindex>1</trackindex>
											<clipindex>2</clipindex>
											<groupindex>1</groupindex>
										</link>
										<link>
											<linkclipref>clipitem-1292</linkclipref>
											<mediatype>audio</mediatype>
											<trackindex>2</trackindex>
											<clipindex>2</clipindex>
											<groupindex>1</groupindex>
										</link>
										<logginginfo>
											<description></description>
											<scene></scene>
											<shottake></shottake>
											<lognote></lognote>
											<good></good>
											<originalvideofilename></originalvideofilename>
											<originalaudiofilename></originalaudiofilename>
										</logginginfo>
										<colorinfo>
											<lut></lut>
											<lut1></lut1>
											<asc_sop></asc_sop>
											<asc_sat></asc_sat>
											<lut2></lut2>
										</colorinfo>
										<labels>
											<label2>Caribbean</label2>
										</labels>
									</clipitem>
									<transitionitem>
										<start>4000</start>
										<end>4090</end>
										<pproTicksIn>33902668800000</pproTicksIn>
										<pproTicksOut>34665478848000</pproTicksOut>
										<alignment>end-black</alignment>
										<cutPointTicks>762810048000</cutPointTicks>
										<rate>
											<timebase>30</timebase>
											<ntsc>TRUE</ntsc>
										</rate>
										<effect>
											<name>Cross Fade (+3dB)</name>
											<effectid>KGAudioTransCrossFade3dB</effectid>
											<effecttype>transition</effecttype>
											<mediatype>audio</mediatype>
											<wipecode>0</wipecode>
											<wipeaccuracy>100</wipeaccuracy>
											<startratio>0</startratio>
											<endratio>1</endratio>
											<reverse>FALSE</reverse>
										</effect>
									</transitionitem>
									<transitionitem>
										<start>4090</start>
										<end>4120</end>
										<pproTicksIn>34665478848000</pproTicksIn>
										<pproTicksOut>34919748864000</pproTicksOut>
										<alignment>start-black</alignment>
										<cutPointTicks>0</cutPointTicks>
										<rate>
											<timebase>30</timebase>
											<ntsc>TRUE</ntsc>
										</rate>
										<effect>
											<name>Cross Fade (+3dB)</name>
											<effectid>KGAudioTransCrossFade3dB</effectid>
											<effecttype>transition</effecttype>
											<mediatype>audio</mediatype>
											<wipecode>0</wipecode>
											<wipeaccuracy>100</wipeaccuracy>
											<startratio>0</startratio>
											<endratio>1</endratio>
											<reverse>FALSE</reverse>
										</effect>
									</transitionitem>
									<clipitem id="clipitem-1293" premiereChannelType="stereo">
										<masterclipid>masterclip-30</masterclipid>
										<name>ES_Blitz - Ballpoint.mp3</name>
										<enabled>TRUE</enabled>
										<duration>4356</duration>
										<rate>
											<timebase>30</timebase>
											<ntsc>TRUE</ntsc>
										</rate>
										<start>-1</start>
										<end>-1</end>
										<in>426</in>
										<out>1378</out>
										<pproTicksIn>3610634227200</pproTicksIn>
										<pproTicksOut>11679469401600</pproTicksOut>
										<file id="file-30"/>
										<sourcetrack>
											<mediatype>audio</mediatype>
											<trackindex>2</trackindex>
										</sourcetrack>
											<marker>
												<comment></comment>
												<name></name>
												<in>427</in>
												<out>-1</out>
											</marker>
										<link>
											<linkclipref>clipitem-1291</linkclipref>
											<mediatype>audio</mediatype>
											<trackindex>1</trackindex>
											<clipindex>5</clipindex>
											<groupindex>1</groupindex>
										</link>
										<link>
											<linkclipref>clipitem-1293</linkclipref>
											<mediatype>audio</mediatype>
											<trackindex>2</trackindex>
											<clipindex>5</clipindex>
											<groupindex>1</groupindex>
										</link>
										<logginginfo>
											<description></description>
											<scene></scene>
											<shottake></shottake>
											<lognote></lognote>
											<good></good>
											<originalvideofilename></originalvideofilename>
											<originalaudiofilename></originalaudiofilename>
										</logginginfo>
										<colorinfo>
											<lut></lut>
											<lut1></lut1>
											<asc_sop></asc_sop>
											<asc_sat></asc_sat>
											<lut2></lut2>
										</colorinfo>
										<labels>
											<label2>Forest</label2>
										</labels>
									</clipitem>
									<transitionitem>
										<start>4952</start>
										<end>5042</end>
										<pproTicksIn>41971503974400</pproTicksIn>
										<pproTicksOut>42734314022400</pproTicksOut>
										<alignment>end-black</alignment>
										<cutPointTicks>762810048000</cutPointTicks>
										<rate>
											<timebase>30</timebase>
											<ntsc>TRUE</ntsc>
										</rate>
										<effect>
											<name>Cross Fade (+3dB)</name>
											<effectid>KGAudioTransCrossFade3dB</effectid>
											<effecttype>transition</effecttype>
											<mediatype>audio</mediatype>
											<wipecode>0</wipecode>
											<wipeaccuracy>100</wipeaccuracy>
											<startratio>0</startratio>
											<endratio>1</endratio>
											<reverse>FALSE</reverse>
										</effect>
									</transitionitem>
									<enabled>TRUE</enabled>
									<locked>FALSE</locked>
									<outputchannelindex>2</outputchannelindex>
								</track>
								<track TL.SQTrackAudioKeyframeStyle="0" TL.SQTrackShy="0" TL.SQTrackExpandedHeight="25" TL.SQTrackExpanded="0" MZ.TrackTargeted="1" PannerCurrentValue="0.5" PannerIsInverted="true" PannerStartKeyframe="-91445760000000000,0.5,0,0,0,0,0,0" PannerName="Balance" currentExplodedTrackIndex="0" totalExplodedTrackCount="2" premiereTrackType="Stereo">
									<enabled>TRUE</enabled>
									<locked>FALSE</locked>
									<outputchannelindex>1</outputchannelindex>
								</track>
								<track TL.SQTrackAudioKeyframeStyle="0" TL.SQTrackShy="0" TL.SQTrackExpandedHeight="25" TL.SQTrackExpanded="0" MZ.TrackTargeted="1" PannerCurrentValue="0.5" PannerIsInverted="true" PannerStartKeyframe="-91445760000000000,0.5,0,0,0,0,0,0" PannerName="Balance" currentExplodedTrackIndex="1" totalExplodedTrackCount="2" premiereTrackType="Stereo">
									<enabled>TRUE</enabled>
									<locked>FALSE</locked>
									<outputchannelindex>2</outputchannelindex>
								</track>
								<track TL.SQTrackAudioKeyframeStyle="0" TL.SQTrackShy="0" TL.SQTrackExpandedHeight="25" TL.SQTrackExpanded="0" MZ.TrackTargeted="1" PannerCurrentValue="0.5" PannerIsInverted="true" PannerStartKeyframe="-91445760000000000,0.5,0,0,0,0,0,0" PannerName="Balance" currentExplodedTrackIndex="0" totalExplodedTrackCount="2" premiereTrackType="Stereo">
									<enabled>TRUE</enabled>
									<locked>FALSE</locked>
									<outputchannelindex>1</outputchannelindex>
								</track>
								<track TL.SQTrackAudioKeyframeStyle="0" TL.SQTrackShy="0" TL.SQTrackExpandedHeight="25" TL.SQTrackExpanded="0" MZ.TrackTargeted="1" PannerCurrentValue="0.5" PannerIsInverted="true" PannerStartKeyframe="-91445760000000000,0.5,0,0,0,0,0,0" PannerName="Balance" currentExplodedTrackIndex="1" totalExplodedTrackCount="2" premiereTrackType="Stereo">
									<enabled>TRUE</enabled>
									<locked>FALSE</locked>
									<outputchannelindex>2</outputchannelindex>
								</track>
								<track TL.SQTrackAudioKeyframeStyle="0" TL.SQTrackShy="0" TL.SQTrackExpandedHeight="25" TL.SQTrackExpanded="0" MZ.TrackTargeted="1" PannerCurrentValue="0.5" PannerIsInverted="true" PannerStartKeyframe="-91445760000000000,0.5,0,0,0,0,0,0" PannerName="Balance" currentExplodedTrackIndex="0" totalExplodedTrackCount="2" premiereTrackType="Stereo">
									<enabled>TRUE</enabled>
									<locked>FALSE</locked>
									<outputchannelindex>1</outputchannelindex>
								</track>
								<track TL.SQTrackAudioKeyframeStyle="0" TL.SQTrackShy="0" TL.SQTrackExpandedHeight="25" TL.SQTrackExpanded="0" MZ.TrackTargeted="1" PannerCurrentValue="0.5" PannerIsInverted="true" PannerStartKeyframe="-91445760000000000,0.5,0,0,0,0,0,0" PannerName="Balance" currentExplodedTrackIndex="1" totalExplodedTrackCount="2" premiereTrackType="Stereo">
									<enabled>TRUE</enabled>
									<locked>FALSE</locked>
									<outputchannelindex>2</outputchannelindex>
								</track>
							</audio>
						</media>
						<timecode>
							<rate>
								<timebase>30</timebase>
								<ntsc>TRUE</ntsc>
							</rate>
							<string>00:00:00:00</string>
							<frame>0</frame>
							<displayformat>NDF</displayformat>
						</timecode>
						<labels>
							<label2>Mango</label2>
						</labels>
						<logginginfo>
							<description></description>
							<scene></scene>
							<shottake></shottake>
							<lognote></lognote>
							<good></good>
							<originalvideofilename></originalvideofilename>
							<originalaudiofilename></originalaudiofilename>
						</logginginfo>
						<filter>
							<effect>
								<name>Audio Levels</name>
								<effectid>audiolevels</effectid>
								<effectcategory>audiolevels</effectcategory>
								<effecttype>audiolevels</effecttype>
								<mediatype>audio</mediatype>
								<parameter authoringApp="PremierePro">
									<parameterid>level</parameterid>
									<name>Level</name>
									<valuemin>0</valuemin>
									<valuemax>3.98109</valuemax>
									<value>3.1548</value>
								</parameter>
							</effect>
						</filter>
					</sequence>
				</children>
			</bin>
			<bin>
				<name>Recovered Clips</name>
				<children>
					<clip id="masterclip-264" explodedTracks="true">
						<uuid>819c16e4-8795-4f8b-ae23-9e2f070f0e90</uuid>
						<masterclipid>masterclip-264</masterclipid>
						<ismasterclip>TRUE</ismasterclip>
						<duration>3772</duration>
						<rate>
							<timebase>30</timebase>
							<ntsc>TRUE</ntsc>
						</rate>
						<in>767</in>
						<name>ES_Sloppy - Timothy Infinite.mp3</name>
						<media>
							<audio>
								<track>
									<clipitem id="clipitem-1294">
										<masterclipid>masterclip-264</masterclipid>
										<name>ES_Sloppy - Timothy Infinite.mp3</name>
										<rate>
											<timebase>30</timebase>
											<ntsc>TRUE</ntsc>
										</rate>
										<file id="file-181">
											<name>ES_Sloppy - Timothy Infinite.mp3</name>
											<pathurl>file://localhost/Volumes/Satisfactum%20Satisfactorum/00_Hub%20World/5_Assets/MUSIC/New%20music%2002-03-22/ES_Sloppy%20-%20Timothy%20Infinite.mp3</pathurl>
											<rate>
												<timebase>30</timebase>
												<ntsc>TRUE</ntsc>
											</rate>
											<duration>3772</duration>
											<timecode>
												<rate>
													<timebase>30</timebase>
													<ntsc>TRUE</ntsc>
												</rate>
												<string>00;00;00;00</string>
												<frame>0</frame>
												<displayformat>DF</displayformat>
											</timecode>
											<media>
												<audio>
													<samplecharacteristics>
														<depth>16</depth>
														<samplerate>48000</samplerate>
													</samplecharacteristics>
													<channelcount>2</channelcount>
												</audio>
											</media>
										</file>
										<sourcetrack>
											<mediatype>audio</mediatype>
											<trackindex>1</trackindex>
										</sourcetrack>
										<link>
											<linkclipref>clipitem-1294</linkclipref>
											<mediatype>audio</mediatype>
											<trackindex>1</trackindex>
											<clipindex>1</clipindex>
											<groupindex>1</groupindex>
										</link>
										<link>
											<linkclipref>clipitem-1295</linkclipref>
											<mediatype>audio</mediatype>
											<trackindex>2</trackindex>
											<clipindex>1</clipindex>
											<groupindex>1</groupindex>
										</link>
									</clipitem>
								</track>
								<track>
									<clipitem id="clipitem-1295">
										<masterclipid>masterclip-264</masterclipid>
										<name>ES_Sloppy - Timothy Infinite.mp3</name>
										<rate>
											<timebase>30</timebase>
											<ntsc>TRUE</ntsc>
										</rate>
										<file id="file-181"/>
										<sourcetrack>
											<mediatype>audio</mediatype>
											<trackindex>2</trackindex>
										</sourcetrack>
										<link>
											<linkclipref>clipitem-1294</linkclipref>
											<mediatype>audio</mediatype>
											<trackindex>1</trackindex>
											<clipindex>1</clipindex>
											<groupindex>1</groupindex>
										</link>
										<link>
											<linkclipref>clipitem-1295</linkclipref>
											<mediatype>audio</mediatype>
											<trackindex>2</trackindex>
											<clipindex>1</clipindex>
											<groupindex>1</groupindex>
										</link>
									</clipitem>
								</track>
							</audio>
						</media>
						<logginginfo>
							<description></description>
							<scene></scene>
							<shottake></shottake>
							<lognote></lognote>
							<good></good>
							<originalvideofilename></originalvideofilename>
							<originalaudiofilename></originalaudiofilename>
						</logginginfo>
						<colorinfo>
							<lut></lut>
							<lut1></lut1>
							<asc_sop></asc_sop>
							<asc_sat></asc_sat>
							<lut2></lut2>
						</colorinfo>
					</clip>
				</children>
			</bin>
		</children>
	</project>
</xmeml>
