<?xml version="1.0" encoding="UTF-8"?>
<!DOCTYPE xmeml>
<xmeml version="4">
	<project>
		<name>XML test - DRONE_08.18.2023</name>
		<children>
			<bin>
				<name>1_Main Segments</name>
				<labels>
					<label2>Mango</label2>
				</labels>
				<children>
					<sequence id="sequence-2" TL.SQAudioVisibleBase="0" TL.SQVideoVisibleBase="0" TL.SQVisibleBaseTime="0" TL.SQAVDividerPosition="0.5" TL.SQHideShyTracks="0" TL.SQHeaderWidth="236" TL.SQDataTrackViewControlState="0" Monitor.ProgramZoomOut="39801733171200" Monitor.ProgramZoomIn="34572246508800" TL.SQTimePerPixel="0.54411286555418692" MZ.EditLine="36521649964800" MZ.Sequence.PreviewFrameSizeHeight="1080" MZ.Sequence.PreviewFrameSizeWidth="1920" MZ.Sequence.AudioTimeDisplayFormat="200" MZ.Sequence.PreviewRenderingClassID="1297106761" MZ.Sequence.PreviewRenderingPresetCodec="1297107278" MZ.Sequence.PreviewRenderingPresetPath="EncoderPresets/SequencePreview/795454d9-d3c2-429d-9474-923ab13b7018/I-Frame Only MPEG.epr" MZ.Sequence.PreviewUseMaxRenderQuality="false" MZ.Sequence.PreviewUseMaxBitDepth="false" MZ.Sequence.EditingModeGUID="795454d9-d3c2-429d-9474-923ab13b7018" MZ.Sequence.VideoTimeDisplayFormat="102" MZ.WorkOutPoint="15239249625600" MZ.WorkInPoint="0" explodedTracks="true">
						<uuid>00f1a103-66be-4850-a69c-ebf022b5362a</uuid>
						<duration>5463</duration>
						<rate>
							<timebase>30</timebase>
							<ntsc>TRUE</ntsc>
						</rate>
						<name>ATM_DRONE_494</name>
						<media>
							<video>
								<format>
									<samplecharacteristics>
										<rate>
											<timebase>30</timebase>
											<ntsc>TRUE</ntsc>
										</rate>
										<codec>
											<name>Apple ProRes 422</name>
											<appspecificdata>
												<appname>Final Cut Pro</appname>
												<appmanufacturer>Apple Inc.</appmanufacturer>
												<appversion>7.0</appversion>
												<data>
													<qtcodec>
														<codecname>Apple ProRes 422</codecname>
														<codectypename>Apple ProRes 422</codectypename>
														<codectypecode>apcn</codectypecode>
														<codecvendorcode>appl</codecvendorcode>
														<spatialquality>1024</spatialquality>
														<temporalquality>0</temporalquality>
														<keyframerate>0</keyframerate>
														<datarate>0</datarate>
													</qtcodec>
												</data>
											</appspecificdata>
										</codec>
										<width>1920</width>
										<height>1080</height>
										<anamorphic>FALSE</anamorphic>
										<pixelaspectratio>square</pixelaspectratio>
										<fielddominance>none</fielddominance>
										<colordepth>24</colordepth>
									</samplecharacteristics>
								</format>
								<track TL.SQTrackShy="0" TL.SQTrackExpandedHeight="25" TL.SQTrackExpanded="0" MZ.TrackTargeted="1">
									<clipitem id="clipitem-186">
										<masterclipid>masterclip-131</masterclipid>
										<name>DRONE_The Pamir Desert_2</name>
										<enabled>TRUE</enabled>
										<duration>5420</duration>
										<rate>
											<timebase>30</timebase>
											<ntsc>TRUE</ntsc>
										</rate>
										<start>0</start>
										<end>3756</end>
										<in>0</in>
										<out>3756</out>
										<pproTicksIn>0</pproTicksIn>
										<pproTicksOut>31834606003200</pproTicksOut>
										<sequence id="sequence-3" TL.SQAudioVisibleBase="0" TL.SQVideoVisibleBase="0" TL.SQVisibleBaseTime="30738885643702" TL.SQAVDividerPosition="0.5" TL.SQHideShyTracks="0" TL.SQHeaderWidth="236" Monitor.ProgramZoomOut="31834606003200" Monitor.ProgramZoomIn="0" TL.SQTimePerPixel="0.0076010360546021321" MZ.EditLine="31834606003200" MZ.Sequence.PreviewFrameSizeHeight="1080" MZ.Sequence.PreviewFrameSizeWidth="1920" MZ.Sequence.AudioTimeDisplayFormat="200" MZ.Sequence.PreviewRenderingClassID="1061109567" MZ.Sequence.PreviewRenderingPresetCodec="1634755443" MZ.Sequence.PreviewRenderingPresetPath="EncoderPresets/SequencePreview/35d109db-457b-43c1-9452-9cb7be9f121c/QuickTime.epr" MZ.Sequence.PreviewUseMaxRenderQuality="false" MZ.Sequence.PreviewUseMaxBitDepth="false" MZ.Sequence.EditingModeGUID="35d109db-457b-43c1-9452-9cb7be9f121c" MZ.Sequence.VideoTimeDisplayFormat="102" MZ.WorkOutPoint="15239249625600" MZ.WorkInPoint="0">
											<duration>3756</duration>
											<rate>
												<timebase>30</timebase>
												<ntsc>TRUE</ntsc>
											</rate>
											<name>DRONE_The Pamir Desert_2</name>
											<media>
												<video>
													<format>
														<samplecharacteristics>
															<rate>
																<timebase>30</timebase>
																<ntsc>TRUE</ntsc>
															</rate>
															<codec>
																<name>Apple ProRes 422</name>
																<appspecificdata>
																	<appname>Final Cut Pro</appname>
																	<appmanufacturer>Apple Inc.</appmanufacturer>
																	<appversion>7.0</appversion>
																	<data>
																		<qtcodec>
																			<codecname>Apple ProRes 422</codecname>
																			<codectypename>Apple ProRes 422</codectypename>
																			<codectypecode>apcn</codectypecode>
																			<codecvendorcode>appl</codecvendorcode>
																			<spatialquality>1024</spatialquality>
																			<temporalquality>0</temporalquality>
																			<keyframerate>0</keyframerate>
																			<datarate>0</datarate>
																		</qtcodec>
																	</data>
																</appspecificdata>
															</codec>
															<width>1920</width>
															<height>1080</height>
															<anamorphic>FALSE</anamorphic>
															<pixelaspectratio>square</pixelaspectratio>
															<fielddominance>none</fielddominance>
															<colordepth>24</colordepth>
														</samplecharacteristics>
													</format>
													<track TL.SQTrackShy="0" TL.SQTrackExpandedHeight="25" TL.SQTrackExpanded="0" MZ.TrackTargeted="1">
														<clipitem id="clipitem-187">
															<masterclipid>masterclip-132</masterclipid>
															<name>640266_Tajikistan Drone Sand Mountains_By_Timelab_Pro_Artlist_HD.mp4</name>
															<enabled>TRUE</enabled>
															<duration>1047</duration>
															<rate>
																<timebase>30</timebase>
																<ntsc>TRUE</ntsc>
															</rate>
															<start>0</start>
															<end>-1</end>
															<in>400</in>
															<out>841</out>
															<pproTicksIn>3390266880000</pproTicksIn>
															<pproTicksOut>7128036115200</pproTicksOut>
															<alphatype>none</alphatype>
															<pixelaspectratio>PAL-601</pixelaspectratio>
															<anamorphic>FALSE</anamorphic>
															<file id="file-131">
																<name>640266_Tajikistan Drone Sand Mountains_By_Timelab_Pro_Artlist_HD.mp4</name>
																<pathurl>file://localhost/Volumes/T7/DRONE_08.18.2023/3_Raw%20Files/Tajikistan/640266_Tajikistan%20Drone%20Sand%20Mountains_By_Timelab_Pro_Artlist_HD.mp4</pathurl>
																<rate>
																	<timebase>25</timebase>
																	<ntsc>FALSE</ntsc>
																</rate>
																<duration>874</duration>
																<timecode>
																	<rate>
																		<timebase>25</timebase>
																		<ntsc>FALSE</ntsc>
																	</rate>
																	<string>00:00:01:16</string>
																	<frame>41</frame>
																	<displayformat>NDF</displayformat>
																</timecode>
																<media>
																	<video>
																		<samplecharacteristics>
																			<rate>
																				<timebase>25</timebase>
																				<ntsc>FALSE</ntsc>
																			</rate>
																			<width>1920</width>
																			<height>1080</height>
																			<anamorphic>FALSE</anamorphic>
																			<pixelaspectratio>PAL-601</pixelaspectratio>
																			<fielddominance>none</fielddominance>
																		</samplecharacteristics>
																	</video>
																</media>
															</file>
															<filter>
																<effect>
																	<name>Distort</name>
																	<effectid>deformation</effectid>
																	<effectcategory>motion</effectcategory>
																	<effecttype>motion</effecttype>
																	<mediatype>video</mediatype>
																	<parameter authoringApp="PremierePro">
																		<parameterid>aspect</parameterid>
																		<name>Aspect</name>
																		<valuemin>-10000</valuemin>
																		<valuemax>10000</valuemax>
																		<value>-9.40171</value>
																	</parameter>
																</effect>
															</filter>
															<filter>
																<effect>
																	<name>Basic Motion</name>
																	<effectid>basic</effectid>
																	<effectcategory>motion</effectcategory>
																	<effecttype>motion</effecttype>
																	<mediatype>video</mediatype>
																	<parameter authoringApp="PremierePro">
																		<parameterid>scale</parameterid>
																		<name>Scale</name>
																		<value>109.402</value>
																	</parameter>
																</effect>
															</filter>
															<logginginfo>
																<description></description>
																<scene></scene>
																<shottake></shottake>
																<lognote></lognote>
																<good></good>
																<originalvideofilename></originalvideofilename>
																<originalaudiofilename></originalaudiofilename>
															</logginginfo>
															<colorinfo>
																<lut></lut>
																<lut1></lut1>
																<asc_sop></asc_sop>
																<asc_sat></asc_sat>
																<lut2></lut2>
															</colorinfo>
															<labels>
																<label2>Violet</label2>
															</labels>
														</clipitem>
														<transitionitem>
															<start>426</start>
															<end>441</end>
															<alignment>start</alignment>
															<cutPointTicks>0</cutPointTicks>
															<rate>
																<timebase>30</timebase>
																<ntsc>TRUE</ntsc>
															</rate>
															<effect>
																<name>Cross Dissolve</name>
																<effectid>Cross Dissolve</effectid>
																<effectcategory>Dissolve</effectcategory>
																<effecttype>transition</effecttype>
																<mediatype>video</mediatype>
																<wipecode>0</wipecode>
																<wipeaccuracy>100</wipeaccuracy>
																<startratio>0</startratio>
																<endratio>1</endratio>
																<reverse>FALSE</reverse>
															</effect>
														</transitionitem>
														<clipitem id="clipitem-188">
															<masterclipid>masterclip-133</masterclipid>
															<name>640286_Car Driving Tajikistan Drone_By_Timelab_Pro_Artlist_HD.mp4</name>
															<enabled>TRUE</enabled>
															<duration>745</duration>
															<rate>
																<timebase>30</timebase>
																<ntsc>TRUE</ntsc>
															</rate>
															<start>-1</start>
															<end>648</end>
															<in>0</in>
															<out>222</out>
															<pproTicksIn>0</pproTicksIn>
															<pproTicksOut>1881598118400</pproTicksOut>
															<alphatype>none</alphatype>
															<pixelaspectratio>PAL-601</pixelaspectratio>
															<anamorphic>FALSE</anamorphic>
															<file id="file-132">
																<name>640286_Car Driving Tajikistan Drone_By_Timelab_Pro_Artlist_HD.mp4</name>
																<pathurl>file://localhost/Volumes/T7/DRONE_08.18.2023/3_Raw%20Files/Tajikistan/640286_Car%20Driving%20Tajikistan%20Drone_By_Timelab_Pro_Artlist_HD.mp4</pathurl>
																<rate>
																	<timebase>25</timebase>
																	<ntsc>FALSE</ntsc>
																</rate>
																<duration>622</duration>
																<timecode>
																	<rate>
																		<timebase>25</timebase>
																		<ntsc>FALSE</ntsc>
																	</rate>
																	<string>00:00:01:11</string>
																	<frame>36</frame>
																	<displayformat>NDF</displayformat>
																</timecode>
																<media>
																	<video>
																		<samplecharacteristics>
																			<rate>
																				<timebase>25</timebase>
																				<ntsc>FALSE</ntsc>
																			</rate>
																			<width>1920</width>
																			<height>1080</height>
																			<anamorphic>FALSE</anamorphic>
																			<pixelaspectratio>PAL-601</pixelaspectratio>
																			<fielddominance>none</fielddominance>
																		</samplecharacteristics>
																	</video>
																</media>
															</file>
															<filter>
																<effect>
																	<name>Distort</name>
																	<effectid>deformation</effectid>
																	<effectcategory>motion</effectcategory>
																	<effecttype>motion</effecttype>
																	<mediatype>video</mediatype>
																	<parameter authoringApp="PremierePro">
																		<parameterid>aspect</parameterid>
																		<name>Aspect</name>
																		<valuemin>-10000</valuemin>
																		<valuemax>10000</valuemax>
																		<value>-9.40171</value>
																	</parameter>
																</effect>
															</filter>
															<filter>
																<effect>
																	<name>Basic Motion</name>
																	<effectid>basic</effectid>
																	<effectcategory>motion</effectcategory>
																	<effecttype>motion</effecttype>
																	<mediatype>video</mediatype>
																	<parameter authoringApp="PremierePro">
																		<parameterid>scale</parameterid>
																		<name>Scale</name>
																		<value>109.402</value>
																	</parameter>
																</effect>
															</filter>
															<logginginfo>
																<description></description>
																<scene></scene>
																<shottake></shottake>
																<lognote></lognote>
																<good></good>
																<originalvideofilename></originalvideofilename>
																<originalaudiofilename></originalaudiofilename>
															</logginginfo>
															<colorinfo>
																<lut></lut>
																<lut1></lut1>
																<asc_sop></asc_sop>
																<asc_sat></asc_sat>
																<lut2></lut2>
															</colorinfo>
															<labels>
																<label2>Violet</label2>
															</labels>
														</clipitem>
														<clipitem id="clipitem-189">
															<masterclipid>masterclip-134</masterclipid>
															<name>640281_Car Driving Tajikistan Drone_By_Timelab_Pro_Artlist_HD.mp4</name>
															<enabled>TRUE</enabled>
															<duration>851</duration>
															<rate>
																<timebase>30</timebase>
																<ntsc>TRUE</ntsc>
															</rate>
															<start>648</start>
															<end>856</end>
															<in>333</in>
															<out>541</out>
															<pproTicksIn>2822397177600</pproTicksIn>
															<pproTicksOut>4585335955200</pproTicksOut>
															<alphatype>none</alphatype>
															<pixelaspectratio>PAL-601</pixelaspectratio>
															<anamorphic>FALSE</anamorphic>
															<file id="file-133">
																<name>640281_Car Driving Tajikistan Drone_By_Timelab_Pro_Artlist_HD.mp4</name>
																<pathurl>file://localhost/Volumes/T7/DRONE_08.18.2023/3_Raw%20Files/Tajikistan/640281_Car%20Driving%20Tajikistan%20Drone_By_Timelab_Pro_Artlist_HD.mp4</pathurl>
																<rate>
																	<timebase>25</timebase>
																	<ntsc>FALSE</ntsc>
																</rate>
																<duration>710</duration>
																<timecode>
																	<rate>
																		<timebase>25</timebase>
																		<ntsc>FALSE</ntsc>
																	</rate>
																	<string>00:00:27:12</string>
																	<frame>687</frame>
																	<displayformat>NDF</displayformat>
																</timecode>
																<media>
																	<video>
																		<samplecharacteristics>
																			<rate>
																				<timebase>25</timebase>
																				<ntsc>FALSE</ntsc>
																			</rate>
																			<width>1920</width>
																			<height>1080</height>
																			<anamorphic>FALSE</anamorphic>
																			<pixelaspectratio>PAL-601</pixelaspectratio>
																			<fielddominance>none</fielddominance>
																		</samplecharacteristics>
																	</video>
																</media>
															</file>
															<filter>
																<effect>
																	<name>Distort</name>
																	<effectid>deformation</effectid>
																	<effectcategory>motion</effectcategory>
																	<effecttype>motion</effecttype>
																	<mediatype>video</mediatype>
																	<parameter authoringApp="PremierePro">
																		<parameterid>aspect</parameterid>
																		<name>Aspect</name>
																		<valuemin>-10000</valuemin>
																		<valuemax>10000</valuemax>
																		<value>-9.40171</value>
																	</parameter>
																</effect>
															</filter>
															<filter>
																<effect>
																	<name>Basic Motion</name>
																	<effectid>basic</effectid>
																	<effectcategory>motion</effectcategory>
																	<effecttype>motion</effecttype>
																	<mediatype>video</mediatype>
																	<parameter authoringApp="PremierePro">
																		<parameterid>scale</parameterid>
																		<name>Scale</name>
																		<value>109.402</value>
																	</parameter>
																</effect>
															</filter>
															<logginginfo>
																<description></description>
																<scene></scene>
																<shottake></shottake>
																<lognote></lognote>
																<good></good>
																<originalvideofilename></originalvideofilename>
																<originalaudiofilename></originalaudiofilename>
															</logginginfo>
															<colorinfo>
																<lut></lut>
																<lut1></lut1>
																<asc_sop></asc_sop>
																<asc_sat></asc_sat>
																<lut2></lut2>
															</colorinfo>
															<labels>
																<label2>Violet</label2>
															</labels>
														</clipitem>
														<clipitem id="clipitem-190">
															<masterclipid>masterclip-135</masterclipid>
															<name>640283_Car Driving Tajikistan Drone_By_Timelab_Pro_Artlist_HD.mp4</name>
															<enabled>TRUE</enabled>
															<duration>1301</duration>
															<rate>
																<timebase>30</timebase>
																<ntsc>TRUE</ntsc>
															</rate>
															<start>856</start>
															<end>1295</end>
															<in>0</in>
															<out>439</out>
															<pproTicksIn>0</pproTicksIn>
															<pproTicksOut>3720817900800</pproTicksOut>
															<alphatype>none</alphatype>
															<pixelaspectratio>PAL-601</pixelaspectratio>
															<anamorphic>FALSE</anamorphic>
															<file id="file-134">
																<name>640283_Car Driving Tajikistan Drone_By_Timelab_Pro_Artlist_HD.mp4</name>
																<pathurl>file://localhost/Volumes/T7/DRONE_08.18.2023/3_Raw%20Files/Tajikistan/640283_Car%20Driving%20Tajikistan%20Drone_By_Timelab_Pro_Artlist_HD.mp4</pathurl>
																<rate>
																	<timebase>25</timebase>
																	<ntsc>FALSE</ntsc>
																</rate>
																<duration>1086</duration>
																<timecode>
																	<rate>
																		<timebase>25</timebase>
																		<ntsc>FALSE</ntsc>
																	</rate>
																	<string>00:00:03:07</string>
																	<frame>82</frame>
																	<displayformat>NDF</displayformat>
																</timecode>
																<media>
																	<video>
																		<samplecharacteristics>
																			<rate>
																				<timebase>25</timebase>
																				<ntsc>FALSE</ntsc>
																			</rate>
																			<width>1920</width>
																			<height>1080</height>
																			<anamorphic>FALSE</anamorphic>
																			<pixelaspectratio>PAL-601</pixelaspectratio>
																			<fielddominance>none</fielddominance>
																		</samplecharacteristics>
																	</video>
																</media>
															</file>
															<filter>
																<effect>
																	<name>Distort</name>
																	<effectid>deformation</effectid>
																	<effectcategory>motion</effectcategory>
																	<effecttype>motion</effecttype>
																	<mediatype>video</mediatype>
																	<parameter authoringApp="PremierePro">
																		<parameterid>aspect</parameterid>
																		<name>Aspect</name>
																		<valuemin>-10000</valuemin>
																		<valuemax>10000</valuemax>
																		<value>-9.40171</value>
																	</parameter>
																</effect>
															</filter>
															<filter>
																<effect>
																	<name>Basic Motion</name>
																	<effectid>basic</effectid>
																	<effectcategory>motion</effectcategory>
																	<effecttype>motion</effecttype>
																	<mediatype>video</mediatype>
																	<parameter authoringApp="PremierePro">
																		<parameterid>scale</parameterid>
																		<name>Scale</name>
																		<value>109.402</value>
																	</parameter>
																</effect>
															</filter>
															<logginginfo>
																<description></description>
																<scene></scene>
																<shottake></shottake>
																<lognote></lognote>
																<good></good>
																<originalvideofilename></originalvideofilename>
																<originalaudiofilename></originalaudiofilename>
															</logginginfo>
															<colorinfo>
																<lut></lut>
																<lut1></lut1>
																<asc_sop></asc_sop>
																<asc_sat></asc_sat>
																<lut2></lut2>
															</colorinfo>
															<labels>
																<label2>Violet</label2>
															</labels>
														</clipitem>
														<clipitem id="clipitem-191">
															<masterclipid>masterclip-136</masterclipid>
															<name>640260_Tajikistan Drone Sand Mountains_By_Timelab_Pro_Artlist_HD.mp4</name>
															<enabled>TRUE</enabled>
															<duration>706</duration>
															<rate>
																<timebase>30</timebase>
																<ntsc>TRUE</ntsc>
															</rate>
															<start>1295</start>
															<end>1507</end>
															<in>0</in>
															<out>212</out>
															<pproTicksIn>0</pproTicksIn>
															<pproTicksOut>1796841446400</pproTicksOut>
															<alphatype>none</alphatype>
															<pixelaspectratio>PAL-601</pixelaspectratio>
															<anamorphic>FALSE</anamorphic>
															<file id="file-135">
																<name>640260_Tajikistan Drone Sand Mountains_By_Timelab_Pro_Artlist_HD.mp4</name>
																<pathurl>file://localhost/Volumes/T7/DRONE_08.18.2023/3_Raw%20Files/Tajikistan/640260_Tajikistan%20Drone%20Sand%20Mountains_By_Timelab_Pro_Artlist_HD.mp4</pathurl>
																<rate>
																	<timebase>25</timebase>
																	<ntsc>FALSE</ntsc>
																</rate>
																<duration>589</duration>
																<timecode>
																	<rate>
																		<timebase>25</timebase>
																		<ntsc>FALSE</ntsc>
																	</rate>
																	<string>00:00:00:00</string>
																	<frame>0</frame>
																	<displayformat>NDF</displayformat>
																</timecode>
																<media>
																	<video>
																		<samplecharacteristics>
																			<rate>
																				<timebase>25</timebase>
																				<ntsc>FALSE</ntsc>
																			</rate>
																			<width>1920</width>
																			<height>1080</height>
																			<anamorphic>FALSE</anamorphic>
																			<pixelaspectratio>PAL-601</pixelaspectratio>
																			<fielddominance>none</fielddominance>
																		</samplecharacteristics>
																	</video>
																</media>
															</file>
															<filter>
																<effect>
																	<name>Distort</name>
																	<effectid>deformation</effectid>
																	<effectcategory>motion</effectcategory>
																	<effecttype>motion</effecttype>
																	<mediatype>video</mediatype>
																	<parameter authoringApp="PremierePro">
																		<parameterid>aspect</parameterid>
																		<name>Aspect</name>
																		<valuemin>-10000</valuemin>
																		<valuemax>10000</valuemax>
																		<value>-9.40171</value>
																	</parameter>
																</effect>
															</filter>
															<filter>
																<effect>
																	<name>Basic Motion</name>
																	<effectid>basic</effectid>
																	<effectcategory>motion</effectcategory>
																	<effecttype>motion</effecttype>
																	<mediatype>video</mediatype>
																	<parameter authoringApp="PremierePro">
																		<parameterid>scale</parameterid>
																		<name>Scale</name>
																		<value>109.402</value>
																	</parameter>
																</effect>
															</filter>
															<logginginfo>
																<description></description>
																<scene></scene>
																<shottake></shottake>
																<lognote></lognote>
																<good></good>
																<originalvideofilename></originalvideofilename>
																<originalaudiofilename></originalaudiofilename>
															</logginginfo>
															<colorinfo>
																<lut></lut>
																<lut1></lut1>
																<asc_sop></asc_sop>
																<asc_sat></asc_sat>
																<lut2></lut2>
															</colorinfo>
															<labels>
																<label2>Violet</label2>
															</labels>
														</clipitem>
														<clipitem id="clipitem-192">
															<masterclipid>masterclip-137</masterclipid>
															<name>640263_Tajikistan Drone Sand Mountains_By_Timelab_Pro_Artlist_HD.mp4</name>
															<enabled>TRUE</enabled>
															<duration>388</duration>
															<rate>
																<timebase>30</timebase>
																<ntsc>TRUE</ntsc>
															</rate>
															<start>1507</start>
															<end>-1</end>
															<in>0</in>
															<out>227</out>
															<pproTicksIn>0</pproTicksIn>
															<pproTicksOut>1923976454400</pproTicksOut>
															<alphatype>none</alphatype>
															<pixelaspectratio>PAL-601</pixelaspectratio>
															<anamorphic>FALSE</anamorphic>
															<file id="file-136">
																<name>640263_Tajikistan Drone Sand Mountains_By_Timelab_Pro_Artlist_HD.mp4</name>
																<pathurl>file://localhost/Volumes/T7/DRONE_08.18.2023/3_Raw%20Files/Tajikistan/640263_Tajikistan%20Drone%20Sand%20Mountains_By_Timelab_Pro_Artlist_HD.mp4</pathurl>
																<rate>
																	<timebase>25</timebase>
																	<ntsc>FALSE</ntsc>
																</rate>
																<duration>324</duration>
																<timecode>
																	<rate>
																		<timebase>25</timebase>
																		<ntsc>FALSE</ntsc>
																	</rate>
																	<string>00:01:17:10</string>
																	<frame>1935</frame>
																	<displayformat>NDF</displayformat>
																</timecode>
																<media>
																	<video>
																		<samplecharacteristics>
																			<rate>
																				<timebase>25</timebase>
																				<ntsc>FALSE</ntsc>
																			</rate>
																			<width>1920</width>
																			<height>1080</height>
																			<anamorphic>FALSE</anamorphic>
																			<pixelaspectratio>PAL-601</pixelaspectratio>
																			<fielddominance>none</fielddominance>
																		</samplecharacteristics>
																	</video>
																</media>
															</file>
															<filter>
																<effect>
																	<name>Distort</name>
																	<effectid>deformation</effectid>
																	<effectcategory>motion</effectcategory>
																	<effecttype>motion</effecttype>
																	<mediatype>video</mediatype>
																	<parameter authoringApp="PremierePro">
																		<parameterid>aspect</parameterid>
																		<name>Aspect</name>
																		<valuemin>-10000</valuemin>
																		<valuemax>10000</valuemax>
																		<value>-9.40171</value>
																	</parameter>
																</effect>
															</filter>
															<filter>
																<effect>
																	<name>Basic Motion</name>
																	<effectid>basic</effectid>
																	<effectcategory>motion</effectcategory>
																	<effecttype>motion</effecttype>
																	<mediatype>video</mediatype>
																	<parameter authoringApp="PremierePro">
																		<parameterid>scale</parameterid>
																		<name>Scale</name>
																		<value>109.402</value>
																	</parameter>
																</effect>
															</filter>
															<logginginfo>
																<description></description>
																<scene></scene>
																<shottake></shottake>
																<lognote></lognote>
																<good></good>
																<originalvideofilename></originalvideofilename>
																<originalaudiofilename></originalaudiofilename>
															</logginginfo>
															<colorinfo>
																<lut></lut>
																<lut1></lut1>
																<asc_sop></asc_sop>
																<asc_sat></asc_sat>
																<lut2></lut2>
															</colorinfo>
															<labels>
																<label2>Violet</label2>
															</labels>
														</clipitem>
														<transitionitem>
															<start>1719</start>
															<end>1734</end>
															<alignment>start</alignment>
															<cutPointTicks>0</cutPointTicks>
															<rate>
																<timebase>30</timebase>
																<ntsc>TRUE</ntsc>
															</rate>
															<effect>
																<name>Cross Dissolve</name>
																<effectid>Cross Dissolve</effectid>
																<effectcategory>Dissolve</effectcategory>
																<effecttype>transition</effecttype>
																<mediatype>video</mediatype>
																<wipecode>0</wipecode>
																<wipeaccuracy>100</wipeaccuracy>
																<startratio>0</startratio>
																<endratio>1</endratio>
																<reverse>FALSE</reverse>
															</effect>
														</transitionitem>
														<clipitem id="clipitem-193">
															<masterclipid>masterclip-138</masterclipid>
															<name>640267_Car Driving Desert Tajikistan_By_Timelab_Pro_Artlist_HD.mp4</name>
															<enabled>TRUE</enabled>
															<duration>527</duration>
															<rate>
																<timebase>30</timebase>
																<ntsc>TRUE</ntsc>
															</rate>
															<start>-1</start>
															<end>1828</end>
															<in>0</in>
															<out>109</out>
															<pproTicksIn>0</pproTicksIn>
															<pproTicksOut>923847724800</pproTicksOut>
															<alphatype>none</alphatype>
															<pixelaspectratio>PAL-601</pixelaspectratio>
															<anamorphic>FALSE</anamorphic>
															<file id="file-137">
																<name>640267_Car Driving Desert Tajikistan_By_Timelab_Pro_Artlist_HD.mp4</name>
																<pathurl>file://localhost/Volumes/T7/DRONE_08.18.2023/3_Raw%20Files/Tajikistan/640267_Car%20Driving%20Desert%20Tajikistan_By_Timelab_Pro_Artlist_HD.mp4</pathurl>
																<rate>
																	<timebase>25</timebase>
																	<ntsc>FALSE</ntsc>
																</rate>
																<duration>440</duration>
																<timecode>
																	<rate>
																		<timebase>25</timebase>
																		<ntsc>FALSE</ntsc>
																	</rate>
																	<string>00:00:09:21</string>
																	<frame>246</frame>
																	<displayformat>NDF</displayformat>
																</timecode>
																<media>
																	<video>
																		<samplecharacteristics>
																			<rate>
																				<timebase>25</timebase>
																				<ntsc>FALSE</ntsc>
																			</rate>
																			<width>1920</width>
																			<height>1080</height>
																			<anamorphic>FALSE</anamorphic>
																			<pixelaspectratio>PAL-601</pixelaspectratio>
																			<fielddominance>none</fielddominance>
																		</samplecharacteristics>
																	</video>
																</media>
															</file>
															<filter>
																<effect>
																	<name>Distort</name>
																	<effectid>deformation</effectid>
																	<effectcategory>motion</effectcategory>
																	<effecttype>motion</effecttype>
																	<mediatype>video</mediatype>
																	<parameter authoringApp="PremierePro">
																		<parameterid>aspect</parameterid>
																		<name>Aspect</name>
																		<valuemin>-10000</valuemin>
																		<valuemax>10000</valuemax>
																		<value>-9.40171</value>
																	</parameter>
																</effect>
															</filter>
															<filter>
																<effect>
																	<name>Basic Motion</name>
																	<effectid>basic</effectid>
																	<effectcategory>motion</effectcategory>
																	<effecttype>motion</effecttype>
																	<mediatype>video</mediatype>
																	<parameter authoringApp="PremierePro">
																		<parameterid>scale</parameterid>
																		<name>Scale</name>
																		<value>109.402</value>
																	</parameter>
																</effect>
															</filter>
															<logginginfo>
																<description></description>
																<scene></scene>
																<shottake></shottake>
																<lognote></lognote>
																<good></good>
																<originalvideofilename></originalvideofilename>
																<originalaudiofilename></originalaudiofilename>
															</logginginfo>
															<colorinfo>
																<lut></lut>
																<lut1></lut1>
																<asc_sop></asc_sop>
																<asc_sat></asc_sat>
																<lut2></lut2>
															</colorinfo>
															<labels>
																<label2>Violet</label2>
															</labels>
														</clipitem>
														<clipitem id="clipitem-194">
															<masterclipid>masterclip-139</masterclipid>
															<name>640254_Car Driving Tajikistan Drone_By_Timelab_Pro_Artlist_HD.mp4</name>
															<enabled>TRUE</enabled>
															<duration>1455</duration>
															<rate>
																<timebase>30</timebase>
																<ntsc>TRUE</ntsc>
															</rate>
															<start>1828</start>
															<end>-1</end>
															<in>0</in>
															<out>338</out>
															<pproTicksIn>0</pproTicksIn>
															<pproTicksOut>2864775513600</pproTicksOut>
															<alphatype>none</alphatype>
															<pixelaspectratio>PAL-601</pixelaspectratio>
															<anamorphic>FALSE</anamorphic>
															<file id="file-138">
																<name>640254_Car Driving Tajikistan Drone_By_Timelab_Pro_Artlist_HD.mp4</name>
																<pathurl>file://localhost/Volumes/T7/DRONE_08.18.2023/3_Raw%20Files/Tajikistan/640254_Car%20Driving%20Tajikistan%20Drone_By_Timelab_Pro_Artlist_HD.mp4</pathurl>
																<rate>
																	<timebase>25</timebase>
																	<ntsc>FALSE</ntsc>
																</rate>
																<duration>1214</duration>
																<timecode>
																	<rate>
																		<timebase>25</timebase>
																		<ntsc>FALSE</ntsc>
																	</rate>
																	<string>00:00:14:04</string>
																	<frame>354</frame>
																	<displayformat>NDF</displayformat>
																</timecode>
																<media>
																	<video>
																		<samplecharacteristics>
																			<rate>
																				<timebase>25</timebase>
																				<ntsc>FALSE</ntsc>
																			</rate>
																			<width>1920</width>
																			<height>1080</height>
																			<anamorphic>FALSE</anamorphic>
																			<pixelaspectratio>PAL-601</pixelaspectratio>
																			<fielddominance>none</fielddominance>
																		</samplecharacteristics>
																	</video>
																</media>
															</file>
															<filter>
																<effect>
																	<name>Distort</name>
																	<effectid>deformation</effectid>
																	<effectcategory>motion</effectcategory>
																	<effecttype>motion</effecttype>
																	<mediatype>video</mediatype>
																	<parameter authoringApp="PremierePro">
																		<parameterid>aspect</parameterid>
																		<name>Aspect</name>
																		<valuemin>-10000</valuemin>
																		<valuemax>10000</valuemax>
																		<value>-9.40171</value>
																	</parameter>
																</effect>
															</filter>
															<filter>
																<effect>
																	<name>Basic Motion</name>
																	<effectid>basic</effectid>
																	<effectcategory>motion</effectcategory>
																	<effecttype>motion</effecttype>
																	<mediatype>video</mediatype>
																	<parameter authoringApp="PremierePro">
																		<parameterid>scale</parameterid>
																		<name>Scale</name>
																		<value>109.402</value>
																	</parameter>
																</effect>
															</filter>
															<logginginfo>
																<description></description>
																<scene></scene>
																<shottake></shottake>
																<lognote></lognote>
																<good></good>
																<originalvideofilename></originalvideofilename>
																<originalaudiofilename></originalaudiofilename>
															</logginginfo>
															<colorinfo>
																<lut></lut>
																<lut1></lut1>
																<asc_sop></asc_sop>
																<asc_sat></asc_sat>
																<lut2></lut2>
															</colorinfo>
															<labels>
																<label2>Violet</label2>
															</labels>
														</clipitem>
														<transitionitem>
															<start>2151</start>
															<end>2166</end>
															<alignment>center</alignment>
															<cutPointTicks>59329670400</cutPointTicks>
															<rate>
																<timebase>30</timebase>
																<ntsc>TRUE</ntsc>
															</rate>
															<effect>
																<name>Cross Dissolve</name>
																<effectid>Cross Dissolve</effectid>
																<effectcategory>Dissolve</effectcategory>
																<effecttype>transition</effecttype>
																<mediatype>video</mediatype>
																<wipecode>0</wipecode>
																<wipeaccuracy>100</wipeaccuracy>
																<startratio>0</startratio>
																<endratio>1</endratio>
																<reverse>FALSE</reverse>
															</effect>
														</transitionitem>
														<clipitem id="clipitem-195">
															<masterclipid>masterclip-140</masterclipid>
															<name>640269_Desert Tajikistan Drone Sand_By_Timelab_Pro_Artlist_HD.mp4</name>
															<enabled>TRUE</enabled>
															<duration>1357</duration>
															<rate>
																<timebase>30</timebase>
																<ntsc>TRUE</ntsc>
															</rate>
															<start>-1</start>
															<end>2585</end>
															<in>496</in>
															<out>930</out>
															<pproTicksIn>4203930931200</pproTicksIn>
															<pproTicksOut>7882370496000</pproTicksOut>
															<alphatype>none</alphatype>
															<pixelaspectratio>PAL-601</pixelaspectratio>
															<anamorphic>FALSE</anamorphic>
															<file id="file-139">
																<name>640269_Desert Tajikistan Drone Sand_By_Timelab_Pro_Artlist_HD.mp4</name>
																<pathurl>file://localhost/Volumes/T7/DRONE_08.18.2023/3_Raw%20Files/Tajikistan/640269_Desert%20Tajikistan%20Drone%20Sand_By_Timelab_Pro_Artlist_HD.mp4</pathurl>
																<rate>
																	<timebase>25</timebase>
																	<ntsc>FALSE</ntsc>
																</rate>
																<duration>1132</duration>
																<timecode>
																	<rate>
																		<timebase>25</timebase>
																		<ntsc>FALSE</ntsc>
																	</rate>
																	<string>00:00:03:21</string>
																	<frame>96</frame>
																	<displayformat>NDF</displayformat>
																</timecode>
																<media>
																	<video>
																		<samplecharacteristics>
																			<rate>
																				<timebase>25</timebase>
																				<ntsc>FALSE</ntsc>
																			</rate>
																			<width>1920</width>
																			<height>1080</height>
																			<anamorphic>FALSE</anamorphic>
																			<pixelaspectratio>PAL-601</pixelaspectratio>
																			<fielddominance>none</fielddominance>
																		</samplecharacteristics>
																	</video>
																</media>
															</file>
															<filter>
																<effect>
																	<name>Distort</name>
																	<effectid>deformation</effectid>
																	<effectcategory>motion</effectcategory>
																	<effecttype>motion</effecttype>
																	<mediatype>video</mediatype>
																	<parameter authoringApp="PremierePro">
																		<parameterid>aspect</parameterid>
																		<name>Aspect</name>
																		<valuemin>-10000</valuemin>
																		<valuemax>10000</valuemax>
																		<value>-9.40171</value>
																	</parameter>
																</effect>
															</filter>
															<filter>
																<effect>
																	<name>Basic Motion</name>
																	<effectid>basic</effectid>
																	<effectcategory>motion</effectcategory>
																	<effecttype>motion</effecttype>
																	<mediatype>video</mediatype>
																	<parameter authoringApp="PremierePro">
																		<parameterid>scale</parameterid>
																		<name>Scale</name>
																		<value>109.402</value>
																	</parameter>
																</effect>
															</filter>
															<logginginfo>
																<description></description>
																<scene></scene>
																<shottake></shottake>
																<lognote></lognote>
																<good></good>
																<originalvideofilename></originalvideofilename>
																<originalaudiofilename></originalaudiofilename>
															</logginginfo>
															<colorinfo>
																<lut></lut>
																<lut1></lut1>
																<asc_sop></asc_sop>
																<asc_sat></asc_sat>
																<lut2></lut2>
															</colorinfo>
															<labels>
																<label2>Violet</label2>
															</labels>
														</clipitem>
														<clipitem id="clipitem-196">
															<masterclipid>masterclip-141</masterclipid>
															<name>640251_Car Driving Desert Tajikistan_By_Timelab_Pro_Artlist_HD.mp4</name>
															<enabled>TRUE</enabled>
															<duration>419</duration>
															<rate>
																<timebase>30</timebase>
																<ntsc>TRUE</ntsc>
															</rate>
															<start>2585</start>
															<end>2935</end>
															<in>0</in>
															<out>350</out>
															<pproTicksIn>0</pproTicksIn>
															<pproTicksOut>2966483520000</pproTicksOut>
															<alphatype>none</alphatype>
															<pixelaspectratio>PAL-601</pixelaspectratio>
															<anamorphic>FALSE</anamorphic>
															<file id="file-140">
																<name>640251_Car Driving Desert Tajikistan_By_Timelab_Pro_Artlist_HD.mp4</name>
																<pathurl>file://localhost/Volumes/T7/DRONE_08.18.2023/3_Raw%20Files/Tajikistan/640251_Car%20Driving%20Desert%20Tajikistan_By_Timelab_Pro_Artlist_HD.mp4</pathurl>
																<rate>
																	<timebase>25</timebase>
																	<ntsc>FALSE</ntsc>
																</rate>
																<duration>350</duration>
																<timecode>
																	<rate>
																		<timebase>25</timebase>
																		<ntsc>FALSE</ntsc>
																	</rate>
																	<string>00:00:02:10</string>
																	<frame>60</frame>
																	<displayformat>NDF</displayformat>
																</timecode>
																<media>
																	<video>
																		<samplecharacteristics>
																			<rate>
																				<timebase>25</timebase>
																				<ntsc>FALSE</ntsc>
																			</rate>
																			<width>1920</width>
																			<height>1080</height>
																			<anamorphic>FALSE</anamorphic>
																			<pixelaspectratio>PAL-601</pixelaspectratio>
																			<fielddominance>none</fielddominance>
																		</samplecharacteristics>
																	</video>
																</media>
															</file>
															<filter>
																<effect>
																	<name>Distort</name>
																	<effectid>deformation</effectid>
																	<effectcategory>motion</effectcategory>
																	<effecttype>motion</effecttype>
																	<mediatype>video</mediatype>
																	<parameter authoringApp="PremierePro">
																		<parameterid>aspect</parameterid>
																		<name>Aspect</name>
																		<valuemin>-10000</valuemin>
																		<valuemax>10000</valuemax>
																		<value>-9.40171</value>
																	</parameter>
																</effect>
															</filter>
															<filter>
																<effect>
																	<name>Basic Motion</name>
																	<effectid>basic</effectid>
																	<effectcategory>motion</effectcategory>
																	<effecttype>motion</effecttype>
																	<mediatype>video</mediatype>
																	<parameter authoringApp="PremierePro">
																		<parameterid>scale</parameterid>
																		<name>Scale</name>
																		<value>109.402</value>
																	</parameter>
																</effect>
															</filter>
															<logginginfo>
																<description></description>
																<scene></scene>
																<shottake></shottake>
																<lognote></lognote>
																<good></good>
																<originalvideofilename></originalvideofilename>
																<originalaudiofilename></originalaudiofilename>
															</logginginfo>
															<colorinfo>
																<lut></lut>
																<lut1></lut1>
																<asc_sop></asc_sop>
																<asc_sat></asc_sat>
																<lut2></lut2>
															</colorinfo>
															<labels>
																<label2>Violet</label2>
															</labels>
														</clipitem>
														<clipitem id="clipitem-197">
															<masterclipid>masterclip-142</masterclipid>
															<name>640249_Car Driving Desert Tajikistan_By_Timelab_Pro_Artlist_HD.mp4</name>
															<enabled>TRUE</enabled>
															<duration>700</duration>
															<rate>
																<timebase>30</timebase>
																<ntsc>TRUE</ntsc>
															</rate>
															<start>2935</start>
															<end>3164</end>
															<in>0</in>
															<out>229</out>
															<pproTicksIn>0</pproTicksIn>
															<pproTicksOut>1940927788800</pproTicksOut>
															<alphatype>none</alphatype>
															<pixelaspectratio>PAL-601</pixelaspectratio>
															<anamorphic>FALSE</anamorphic>
															<file id="file-141">
																<name>640249_Car Driving Desert Tajikistan_By_Timelab_Pro_Artlist_HD.mp4</name>
																<pathurl>file://localhost/Volumes/T7/DRONE_08.18.2023/3_Raw%20Files/Tajikistan/640249_Car%20Driving%20Desert%20Tajikistan_By_Timelab_Pro_Artlist_HD.mp4</pathurl>
																<rate>
																	<timebase>25</timebase>
																	<ntsc>FALSE</ntsc>
																</rate>
																<duration>584</duration>
																<timecode>
																	<rate>
																		<timebase>25</timebase>
																		<ntsc>FALSE</ntsc>
																	</rate>
																	<string>00:00:05:06</string>
																	<frame>131</frame>
																	<displayformat>NDF</displayformat>
																</timecode>
																<media>
																	<video>
																		<samplecharacteristics>
																			<rate>
																				<timebase>25</timebase>
																				<ntsc>FALSE</ntsc>
																			</rate>
																			<width>1920</width>
																			<height>1080</height>
																			<anamorphic>FALSE</anamorphic>
																			<pixelaspectratio>PAL-601</pixelaspectratio>
																			<fielddominance>none</fielddominance>
																		</samplecharacteristics>
																	</video>
																</media>
															</file>
															<filter>
																<effect>
																	<name>Distort</name>
																	<effectid>deformation</effectid>
																	<effectcategory>motion</effectcategory>
																	<effecttype>motion</effecttype>
																	<mediatype>video</mediatype>
																	<parameter authoringApp="PremierePro">
																		<parameterid>aspect</parameterid>
																		<name>Aspect</name>
																		<valuemin>-10000</valuemin>
																		<valuemax>10000</valuemax>
																		<value>-9.40171</value>
																	</parameter>
																</effect>
															</filter>
															<filter>
																<effect>
																	<name>Basic Motion</name>
																	<effectid>basic</effectid>
																	<effectcategory>motion</effectcategory>
																	<effecttype>motion</effecttype>
																	<mediatype>video</mediatype>
																	<parameter authoringApp="PremierePro">
																		<parameterid>scale</parameterid>
																		<name>Scale</name>
																		<value>109.402</value>
																	</parameter>
																</effect>
															</filter>
															<logginginfo>
																<description></description>
																<scene></scene>
																<shottake></shottake>
																<lognote></lognote>
																<good></good>
																<originalvideofilename></originalvideofilename>
																<originalaudiofilename></originalaudiofilename>
															</logginginfo>
															<colorinfo>
																<lut></lut>
																<lut1></lut1>
																<asc_sop></asc_sop>
																<asc_sat></asc_sat>
																<lut2></lut2>
															</colorinfo>
															<labels>
																<label2>Violet</label2>
															</labels>
														</clipitem>
														<clipitem id="clipitem-198">
															<masterclipid>masterclip-143</masterclipid>
															<name>640268_Desert Tajikistan Drone Sand_By_Timelab_Pro_Artlist_HD.mp4</name>
															<enabled>TRUE</enabled>
															<duration>966</duration>
															<rate>
																<timebase>30</timebase>
																<ntsc>TRUE</ntsc>
															</rate>
															<start>3164</start>
															<end>3756</end>
															<in>0</in>
															<out>592</out>
															<pproTicksIn>0</pproTicksIn>
															<pproTicksOut>5017594982400</pproTicksOut>
															<alphatype>none</alphatype>
															<pixelaspectratio>PAL-601</pixelaspectratio>
															<anamorphic>FALSE</anamorphic>
															<file id="file-142">
																<name>640268_Desert Tajikistan Drone Sand_By_Timelab_Pro_Artlist_HD.mp4</name>
																<pathurl>file://localhost/Volumes/T7/DRONE_08.18.2023/3_Raw%20Files/Tajikistan/640268_Desert%20Tajikistan%20Drone%20Sand_By_Timelab_Pro_Artlist_HD.mp4</pathurl>
																<rate>
																	<timebase>25</timebase>
																	<ntsc>FALSE</ntsc>
																</rate>
																<duration>806</duration>
																<timecode>
																	<rate>
																		<timebase>25</timebase>
																		<ntsc>FALSE</ntsc>
																	</rate>
																	<string>00:00:10:18</string>
																	<frame>268</frame>
																	<displayformat>NDF</displayformat>
																</timecode>
																<media>
																	<video>
																		<samplecharacteristics>
																			<rate>
																				<timebase>25</timebase>
																				<ntsc>FALSE</ntsc>
																			</rate>
																			<width>1920</width>
																			<height>1080</height>
																			<anamorphic>FALSE</anamorphic>
																			<pixelaspectratio>PAL-601</pixelaspectratio>
																			<fielddominance>none</fielddominance>
																		</samplecharacteristics>
																	</video>
																</media>
															</file>
															<filter>
																<effect>
																	<name>Distort</name>
																	<effectid>deformation</effectid>
																	<effectcategory>motion</effectcategory>
																	<effecttype>motion</effecttype>
																	<mediatype>video</mediatype>
																	<parameter authoringApp="PremierePro">
																		<parameterid>aspect</parameterid>
																		<name>Aspect</name>
																		<valuemin>-10000</valuemin>
																		<valuemax>10000</valuemax>
																		<value>-9.40171</value>
																	</parameter>
																</effect>
															</filter>
															<filter>
																<effect>
																	<name>Basic Motion</name>
																	<effectid>basic</effectid>
																	<effectcategory>motion</effectcategory>
																	<effecttype>motion</effecttype>
																	<mediatype>video</mediatype>
																	<parameter authoringApp="PremierePro">
																		<parameterid>scale</parameterid>
																		<name>Scale</name>
																		<value>109.402</value>
																	</parameter>
																</effect>
															</filter>
															<logginginfo>
																<description></description>
																<scene></scene>
																<shottake></shottake>
																<lognote></lognote>
																<good></good>
																<originalvideofilename></originalvideofilename>
																<originalaudiofilename></originalaudiofilename>
															</logginginfo>
															<colorinfo>
																<lut></lut>
																<lut1></lut1>
																<asc_sop></asc_sop>
																<asc_sat></asc_sat>
																<lut2></lut2>
															</colorinfo>
															<labels>
																<label2>Violet</label2>
															</labels>
														</clipitem>
														<enabled>TRUE</enabled>
														<locked>FALSE</locked>
													</track>
													<track TL.SQTrackShy="0" TL.SQTrackExpandedHeight="25" TL.SQTrackExpanded="0" MZ.TrackTargeted="0">
														<enabled>TRUE</enabled>
														<locked>FALSE</locked>
													</track>
													<track TL.SQTrackShy="0" TL.SQTrackExpandedHeight="25" TL.SQTrackExpanded="0" MZ.TrackTargeted="0">
														<enabled>TRUE</enabled>
														<locked>FALSE</locked>
													</track>
												</video>
												<audio>
													<numOutputChannels>2</numOutputChannels>
													<format>
														<samplecharacteristics>
															<depth>16</depth>
															<samplerate>48000</samplerate>
														</samplecharacteristics>
													</format>
													<outputs>
														<group>
															<index>1</index>
															<numchannels>1</numchannels>
															<downmix>0</downmix>
															<channel>
																<index>1</index>
															</channel>
														</group>
														<group>
															<index>2</index>
															<numchannels>1</numchannels>
															<downmix>0</downmix>
															<channel>
																<index>2</index>
															</channel>
														</group>
													</outputs>
													<track TL.SQTrackAudioKeyframeStyle="0" TL.SQTrackShy="0" TL.SQTrackExpandedHeight="66" TL.SQTrackExpanded="0" MZ.TrackTargeted="1" MZ.TrackName="NAT SOUND" PannerCurrentValue="0.5" PannerIsInverted="true" PannerStartKeyframe="-91445760000000000,0.5,0,0,0,0,0,0" PannerName="Balance" currentExplodedTrackIndex="0" totalExplodedTrackCount="2" premiereTrackType="Stereo">
														<enabled>TRUE</enabled>
														<locked>FALSE</locked>
														<outputchannelindex>1</outputchannelindex>
													</track>
													<track TL.SQTrackAudioKeyframeStyle="0" TL.SQTrackShy="0" TL.SQTrackExpandedHeight="66" TL.SQTrackExpanded="0" MZ.TrackTargeted="1" MZ.TrackName="NAT SOUND" PannerCurrentValue="0.5" PannerIsInverted="true" PannerStartKeyframe="-91445760000000000,0.5,0,0,0,0,0,0" PannerName="Balance" currentExplodedTrackIndex="1" totalExplodedTrackCount="2" premiereTrackType="Stereo">
														<enabled>TRUE</enabled>
														<locked>FALSE</locked>
														<outputchannelindex>2</outputchannelindex>
													</track>
													<track TL.SQTrackAudioKeyframeStyle="0" TL.SQTrackShy="0" TL.SQTrackExpandedHeight="80" TL.SQTrackExpanded="0" MZ.TrackTargeted="1" MZ.TrackName="MUSIC" PannerCurrentValue="0.5" PannerIsInverted="true" PannerStartKeyframe="-91445760000000000,0.5,0,0,0,0,0,0" PannerName="Balance" currentExplodedTrackIndex="0" totalExplodedTrackCount="2" premiereTrackType="Stereo">
														<clipitem id="clipitem-199" premiereChannelType="stereo">
															<masterclipid>masterclip-144</masterclipid>
															<name>ES_El Khalil - Rymdklang Soundtracks.mp3</name>
															<enabled>TRUE</enabled>
															<duration>5070</duration>
															<rate>
																<timebase>30</timebase>
																<ntsc>TRUE</ntsc>
															</rate>
															<start>0</start>
															<end>-1</end>
															<in>0</in>
															<out>3756</out>
															<pproTicksIn>0</pproTicksIn>
															<pproTicksOut>31834606003200</pproTicksOut>
															<file id="file-143">
																<name>ES_El Khalil - Rymdklang Soundtracks.mp3</name>
																<pathurl>file://localhost/Volumes/T7/DRONE_08.18.2023/5_Music/ES_El%20Khalil%20-%20Rymdklang%20Soundtracks.mp3</pathurl>
																<rate>
																	<timebase>30</timebase>
																	<ntsc>TRUE</ntsc>
																</rate>
																<duration>5070</duration>
																<timecode>
																	<rate>
																		<timebase>30</timebase>
																		<ntsc>TRUE</ntsc>
																	</rate>
																	<string>00;00;00;00</string>
																	<frame>0</frame>
																	<displayformat>DF</displayformat>
																</timecode>
																<media>
																	<audio>
																		<samplecharacteristics>
																			<depth>16</depth>
																			<samplerate>48000</samplerate>
																		</samplecharacteristics>
																		<channelcount>2</channelcount>
																	</audio>
																</media>
															</file>
															<sourcetrack>
																<mediatype>audio</mediatype>
																<trackindex>1</trackindex>
															</sourcetrack>
															<link>
																<linkclipref>clipitem-199</linkclipref>
																<mediatype>audio</mediatype>
																<trackindex>3</trackindex>
																<clipindex>1</clipindex>
																<groupindex>1</groupindex>
															</link>
															<link>
																<linkclipref>clipitem-200</linkclipref>
																<mediatype>audio</mediatype>
																<trackindex>4</trackindex>
																<clipindex>1</clipindex>
																<groupindex>1</groupindex>
															</link>
															<logginginfo>
																<description></description>
																<scene></scene>
																<shottake></shottake>
																<lognote></lognote>
																<good></good>
																<originalvideofilename></originalvideofilename>
																<originalaudiofilename></originalaudiofilename>
															</logginginfo>
															<colorinfo>
																<lut></lut>
																<lut1></lut1>
																<asc_sop></asc_sop>
																<asc_sat></asc_sat>
																<lut2></lut2>
															</colorinfo>
															<labels>
																<label2>Caribbean</label2>
															</labels>
														</clipitem>
														<transitionitem>
															<start>3749</start>
															<end>3756</end>
															<pproTicksIn>31775276332800</pproTicksIn>
															<pproTicksOut>31834606003200</pproTicksOut>
															<alignment>end-black</alignment>
															<cutPointTicks>59329670400</cutPointTicks>
															<rate>
																<timebase>30</timebase>
																<ntsc>TRUE</ntsc>
															</rate>
															<effect>
																<name>Cross Fade ( 0dB)</name>
																<effectid>KGAudioTransCrossFade0dB</effectid>
																<effecttype>transition</effecttype>
																<mediatype>audio</mediatype>
																<wipecode>0</wipecode>
																<wipeaccuracy>100</wipeaccuracy>
																<startratio>0</startratio>
																<endratio>1</endratio>
																<reverse>FALSE</reverse>
															</effect>
														</transitionitem>
														<enabled>TRUE</enabled>
														<locked>FALSE</locked>
														<outputchannelindex>1</outputchannelindex>
													</track>
													<track TL.SQTrackAudioKeyframeStyle="0" TL.SQTrackShy="0" TL.SQTrackExpandedHeight="80" TL.SQTrackExpanded="0" MZ.TrackTargeted="1" MZ.TrackName="MUSIC" PannerCurrentValue="0.5" PannerIsInverted="true" PannerStartKeyframe="-91445760000000000,0.5,0,0,0,0,0,0" PannerName="Balance" currentExplodedTrackIndex="1" totalExplodedTrackCount="2" premiereTrackType="Stereo">
														<clipitem id="clipitem-200" premiereChannelType="stereo">
															<masterclipid>masterclip-144</masterclipid>
															<name>ES_El Khalil - Rymdklang Soundtracks.mp3</name>
															<enabled>TRUE</enabled>
															<duration>5070</duration>
															<rate>
																<timebase>30</timebase>
																<ntsc>TRUE</ntsc>
															</rate>
															<start>0</start>
															<end>-1</end>
															<in>0</in>
															<out>3756</out>
															<pproTicksIn>0</pproTicksIn>
															<pproTicksOut>31834606003200</pproTicksOut>
															<file id="file-143"/>
															<sourcetrack>
																<mediatype>audio</mediatype>
																<trackindex>2</trackindex>
															</sourcetrack>
															<link>
																<linkclipref>clipitem-199</linkclipref>
																<mediatype>audio</mediatype>
																<trackindex>3</trackindex>
																<clipindex>1</clipindex>
																<groupindex>1</groupindex>
															</link>
															<link>
																<linkclipref>clipitem-200</linkclipref>
																<mediatype>audio</mediatype>
																<trackindex>4</trackindex>
																<clipindex>1</clipindex>
																<groupindex>1</groupindex>
															</link>
															<logginginfo>
																<description></description>
																<scene></scene>
																<shottake></shottake>
																<lognote></lognote>
																<good></good>
																<originalvideofilename></originalvideofilename>
																<originalaudiofilename></originalaudiofilename>
															</logginginfo>
															<colorinfo>
																<lut></lut>
																<lut1></lut1>
																<asc_sop></asc_sop>
																<asc_sat></asc_sat>
																<lut2></lut2>
															</colorinfo>
															<labels>
																<label2>Caribbean</label2>
															</labels>
														</clipitem>
														<transitionitem>
															<start>3749</start>
															<end>3756</end>
															<pproTicksIn>31775276332800</pproTicksIn>
															<pproTicksOut>31834606003200</pproTicksOut>
															<alignment>end-black</alignment>
															<cutPointTicks>59329670400</cutPointTicks>
															<rate>
																<timebase>30</timebase>
																<ntsc>TRUE</ntsc>
															</rate>
															<effect>
																<name>Cross Fade ( 0dB)</name>
																<effectid>KGAudioTransCrossFade0dB</effectid>
																<effecttype>transition</effecttype>
																<mediatype>audio</mediatype>
																<wipecode>0</wipecode>
																<wipeaccuracy>100</wipeaccuracy>
																<startratio>0</startratio>
																<endratio>1</endratio>
																<reverse>FALSE</reverse>
															</effect>
														</transitionitem>
														<enabled>TRUE</enabled>
														<locked>FALSE</locked>
														<outputchannelindex>2</outputchannelindex>
													</track>
													<track TL.SQTrackAudioKeyframeStyle="0" TL.SQTrackShy="0" TL.SQTrackExpandedHeight="25" TL.SQTrackExpanded="0" MZ.TrackTargeted="1" PannerCurrentValue="0.5" PannerIsInverted="true" PannerStartKeyframe="-91445760000000000,0.5,0,0,0,0,0,0" PannerName="Balance" currentExplodedTrackIndex="0" totalExplodedTrackCount="2" premiereTrackType="Stereo">
														<enabled>TRUE</enabled>
														<locked>FALSE</locked>
														<outputchannelindex>1</outputchannelindex>
													</track>
													<track TL.SQTrackAudioKeyframeStyle="0" TL.SQTrackShy="0" TL.SQTrackExpandedHeight="25" TL.SQTrackExpanded="0" MZ.TrackTargeted="1" PannerCurrentValue="0.5" PannerIsInverted="true" PannerStartKeyframe="-91445760000000000,0.5,0,0,0,0,0,0" PannerName="Balance" currentExplodedTrackIndex="1" totalExplodedTrackCount="2" premiereTrackType="Stereo">
														<enabled>TRUE</enabled>
														<locked>FALSE</locked>
														<outputchannelindex>2</outputchannelindex>
													</track>
												</audio>
											</media>
											<timecode>
												<rate>
													<timebase>30</timebase>
													<ntsc>TRUE</ntsc>
												</rate>
												<string>00;00;00;00</string>
												<frame>0</frame>
												<displayformat>DF</displayformat>
											</timecode>
											<logginginfo>
												<description></description>
												<scene></scene>
												<shottake></shottake>
												<lognote></lognote>
												<good></good>
												<originalvideofilename></originalvideofilename>
												<originalaudiofilename></originalaudiofilename>
											</logginginfo>
											<filter>
												<effect>
													<name>Audio Levels</name>
													<effectid>audiolevels</effectid>
													<effectcategory>audiolevels</effectcategory>
													<effecttype>audiolevels</effecttype>
													<mediatype>audio</mediatype>
													<parameter authoringApp="PremierePro">
														<parameterid>level</parameterid>
														<name>Level</name>
														<valuemin>0</valuemin>
														<valuemax>3.98109</valuemax>
														<value>0.839406</value>
													</parameter>
												</effect>
											</filter>
										</sequence>
										<link>
											<linkclipref>clipitem-186</linkclipref>
											<mediatype>video</mediatype>
											<trackindex>1</trackindex>
											<clipindex>1</clipindex>
										</link>
										<link>
											<linkclipref>clipitem-230</linkclipref>
											<mediatype>audio</mediatype>
											<trackindex>1</trackindex>
											<clipindex>1</clipindex>
											<groupindex>1</groupindex>
										</link>
										<link>
											<linkclipref>clipitem-232</linkclipref>
											<mediatype>audio</mediatype>
											<trackindex>2</trackindex>
											<clipindex>1</clipindex>
											<groupindex>1</groupindex>
										</link>
										<labels>
											<label2>Forest</label2>
										</labels>
									</clipitem>
									<clipitem id="clipitem-201">
										<masterclipid>masterclip-145</masterclipid>
										<name>DRONE_Guan Yin_1</name>
										<enabled>TRUE</enabled>
										<duration>8001</duration>
										<rate>
											<timebase>30</timebase>
											<ntsc>TRUE</ntsc>
										</rate>
										<start>3879</start>
										<end>5463</end>
										<in>0</in>
										<out>1584</out>
										<pproTicksIn>0</pproTicksIn>
										<pproTicksOut>13425456844800</pproTicksOut>
										<sequence id="sequence-4" TL.SQAudioVisibleBase="0" TL.SQVideoVisibleBase="0" TL.SQVisibleBaseTime="0" TL.SQAVDividerPosition="0.5" TL.SQHideShyTracks="0" TL.SQHeaderWidth="236" Monitor.ProgramZoomOut="15391811635200" Monitor.ProgramZoomIn="0" TL.SQTimePerPixel="0.14972385252632114" MZ.EditLine="12628744128000" MZ.Sequence.PreviewFrameSizeHeight="1080" MZ.Sequence.PreviewFrameSizeWidth="1920" MZ.Sequence.AudioTimeDisplayFormat="200" MZ.Sequence.PreviewRenderingClassID="1061109567" MZ.Sequence.PreviewRenderingPresetCodec="1634755443" MZ.Sequence.PreviewRenderingPresetPath="EncoderPresets/SequencePreview/35d109db-457b-43c1-9452-9cb7be9f121c/QuickTime.epr" MZ.Sequence.PreviewUseMaxRenderQuality="false" MZ.Sequence.PreviewUseMaxBitDepth="false" MZ.Sequence.EditingModeGUID="35d109db-457b-43c1-9452-9cb7be9f121c" MZ.Sequence.VideoTimeDisplayFormat="102" MZ.WorkOutPoint="15264676627200" MZ.WorkInPoint="1144215072000">
											<duration>1816</duration>
											<rate>
												<timebase>30</timebase>
												<ntsc>TRUE</ntsc>
											</rate>
											<name>DRONE_Big Buddha of Chiang Rai_1</name>
											<media>
												<video>
													<format>
														<samplecharacteristics>
															<rate>
																<timebase>30</timebase>
																<ntsc>TRUE</ntsc>
															</rate>
															<codec>
																<name>Apple ProRes 422</name>
																<appspecificdata>
																	<appname>Final Cut Pro</appname>
																	<appmanufacturer>Apple Inc.</appmanufacturer>
																	<appversion>7.0</appversion>
																	<data>
																		<qtcodec>
																			<codecname>Apple ProRes 422</codecname>
																			<codectypename>Apple ProRes 422</codectypename>
																			<codectypecode>apcn</codectypecode>
																			<codecvendorcode>appl</codecvendorcode>
																			<spatialquality>1024</spatialquality>
																			<temporalquality>0</temporalquality>
																			<keyframerate>0</keyframerate>
																			<datarate>0</datarate>
																		</qtcodec>
																	</data>
																</appspecificdata>
															</codec>
															<width>1920</width>
															<height>1080</height>
															<anamorphic>FALSE</anamorphic>
															<pixelaspectratio>square</pixelaspectratio>
															<fielddominance>none</fielddominance>
															<colordepth>24</colordepth>
														</samplecharacteristics>
													</format>
													<track TL.SQTrackShy="0" TL.SQTrackExpandedHeight="25" TL.SQTrackExpanded="0" MZ.TrackTargeted="1">
														<clipitem id="clipitem-202">
															<masterclipid>masterclip-146</masterclipid>
															<name>aerial-view-of-statue-of-guan-yin-in-thailand-SBV-338964989-HD.mp4</name>
															<enabled>TRUE</enabled>
															<duration>1509</duration>
															<rate>
																<timebase>30</timebase>
																<ntsc>TRUE</ntsc>
															</rate>
															<start>0</start>
															<end>1053</end>
															<in>0</in>
															<out>1053</out>
															<pproTicksIn>0</pproTicksIn>
															<pproTicksOut>8924877561600</pproTicksOut>
															<alphatype>none</alphatype>
															<pixelaspectratio>square</pixelaspectratio>
															<anamorphic>FALSE</anamorphic>
															<file id="file-144">
																<name>aerial-view-of-statue-of-guan-yin-in-thailand-SBV-338964989-HD.mp4</name>
																<pathurl>file://localhost/Volumes/T7/DRONE_08.18.2023/3_Raw%20Files/Guan%20Yin,%20Thailand/aerial-view-of-statue-of-guan-yin-in-thailand-SBV-338964989-HD.mp4</pathurl>
																<rate>
																	<timebase>29</timebase>
																	<ntsc>FALSE</ntsc>
																</rate>
																<duration>1510</duration>
																<timecode>
																	<rate>
																		<timebase>29</timebase>
																		<ntsc>FALSE</ntsc>
																	</rate>
																	<string>00:00:00:00</string>
																	<frame>0</frame>
																	<displayformat>NDF</displayformat>
																</timecode>
																<media>
																	<video>
																		<samplecharacteristics>
																			<rate>
																				<timebase>29</timebase>
																				<ntsc>FALSE</ntsc>
																			</rate>
																			<width>1920</width>
																			<height>1080</height>
																			<anamorphic>FALSE</anamorphic>
																			<pixelaspectratio>square</pixelaspectratio>
																			<fielddominance>none</fielddominance>
																		</samplecharacteristics>
																	</video>
																</media>
															</file>
															<logginginfo>
																<description></description>
																<scene></scene>
																<shottake></shottake>
																<lognote></lognote>
																<good></good>
																<originalvideofilename></originalvideofilename>
																<originalaudiofilename></originalaudiofilename>
															</logginginfo>
															<colorinfo>
																<lut></lut>
																<lut1></lut1>
																<asc_sop></asc_sop>
																<asc_sat></asc_sat>
																<lut2></lut2>
															</colorinfo>
															<labels>
																<label2>Violet</label2>
															</labels>
														</clipitem>
														<clipitem id="clipitem-203">
															<masterclipid>masterclip-147</masterclipid>
															<name>aerial-view-of-statue-of-guan-yin-in-thailand-SBV-338964992-HD.mp4</name>
															<enabled>TRUE</enabled>
															<duration>1026</duration>
															<rate>
																<timebase>30</timebase>
																<ntsc>TRUE</ntsc>
															</rate>
															<start>1053</start>
															<end>1816</end>
															<in>0</in>
															<out>763</out>
															<pproTicksIn>0</pproTicksIn>
															<pproTicksOut>6466934073600</pproTicksOut>
															<alphatype>none</alphatype>
															<pixelaspectratio>square</pixelaspectratio>
															<anamorphic>FALSE</anamorphic>
															<file id="file-145">
																<name>aerial-view-of-statue-of-guan-yin-in-thailand-SBV-338964992-HD.mp4</name>
																<pathurl>file://localhost/Volumes/T7/DRONE_08.18.2023/3_Raw%20Files/Guan%20Yin,%20Thailand/aerial-view-of-statue-of-guan-yin-in-thailand-SBV-338964992-HD.mp4</pathurl>
																<rate>
																	<timebase>29</timebase>
																	<ntsc>FALSE</ntsc>
																</rate>
																<duration>1027</duration>
																<timecode>
																	<rate>
																		<timebase>29</timebase>
																		<ntsc>FALSE</ntsc>
																	</rate>
																	<string>00:00:00:00</string>
																	<frame>0</frame>
																	<displayformat>NDF</displayformat>
																</timecode>
																<media>
																	<video>
																		<samplecharacteristics>
																			<rate>
																				<timebase>29</timebase>
																				<ntsc>FALSE</ntsc>
																			</rate>
																			<width>1920</width>
																			<height>1080</height>
																			<anamorphic>FALSE</anamorphic>
																			<pixelaspectratio>square</pixelaspectratio>
																			<fielddominance>none</fielddominance>
																		</samplecharacteristics>
																	</video>
																</media>
															</file>
															<logginginfo>
																<description></description>
																<scene></scene>
																<shottake></shottake>
																<lognote></lognote>
																<good></good>
																<originalvideofilename></originalvideofilename>
																<originalaudiofilename></originalaudiofilename>
															</logginginfo>
															<colorinfo>
																<lut></lut>
																<lut1></lut1>
																<asc_sop></asc_sop>
																<asc_sat></asc_sat>
																<lut2></lut2>
															</colorinfo>
															<labels>
																<label2>Violet</label2>
															</labels>
														</clipitem>
														<enabled>TRUE</enabled>
														<locked>FALSE</locked>
													</track>
													<track TL.SQTrackShy="0" TL.SQTrackExpandedHeight="25" TL.SQTrackExpanded="0" MZ.TrackTargeted="0">
														<enabled>TRUE</enabled>
														<locked>FALSE</locked>
													</track>
													<track TL.SQTrackShy="0" TL.SQTrackExpandedHeight="25" TL.SQTrackExpanded="0" MZ.TrackTargeted="0">
														<enabled>TRUE</enabled>
														<locked>FALSE</locked>
													</track>
												</video>
												<audio>
													<numOutputChannels>2</numOutputChannels>
													<format>
														<samplecharacteristics>
															<depth>16</depth>
															<samplerate>48000</samplerate>
														</samplecharacteristics>
													</format>
													<outputs>
														<group>
															<index>1</index>
															<numchannels>1</numchannels>
															<downmix>0</downmix>
															<channel>
																<index>1</index>
															</channel>
														</group>
														<group>
															<index>2</index>
															<numchannels>1</numchannels>
															<downmix>0</downmix>
															<channel>
																<index>2</index>
															</channel>
														</group>
													</outputs>
													<track TL.SQTrackAudioKeyframeStyle="0" TL.SQTrackShy="0" TL.SQTrackExpandedHeight="25" TL.SQTrackExpanded="0" MZ.TrackTargeted="1" PannerCurrentValue="0.5" PannerIsInverted="true" PannerStartKeyframe="-91445760000000000,0.5,0,0,0,0,0,0" PannerName="Balance" currentExplodedTrackIndex="0" totalExplodedTrackCount="2" premiereTrackType="Stereo">
														<transitionitem>
															<start>0</start>
															<end>7</end>
															<pproTicksIn>0</pproTicksIn>
															<pproTicksOut>59329670400</pproTicksOut>
															<alignment>start-black</alignment>
															<cutPointTicks>0</cutPointTicks>
															<rate>
																<timebase>30</timebase>
																<ntsc>TRUE</ntsc>
															</rate>
															<effect>
																<name>Cross Fade ( 0dB)</name>
																<effectid>KGAudioTransCrossFade0dB</effectid>
																<effecttype>transition</effecttype>
																<mediatype>audio</mediatype>
																<wipecode>0</wipecode>
																<wipeaccuracy>100</wipeaccuracy>
																<startratio>0</startratio>
																<endratio>1</endratio>
																<reverse>FALSE</reverse>
															</effect>
														</transitionitem>
														<clipitem id="clipitem-204" premiereChannelType="stereo">
															<masterclipid>masterclip-148</masterclipid>
															<name>ES_That Space You're In - Far Orange.mp3</name>
															<enabled>TRUE</enabled>
															<duration>8001</duration>
															<rate>
																<timebase>30</timebase>
																<ntsc>TRUE</ntsc>
															</rate>
															<start>-1</start>
															<end>-1</end>
															<in>488</in>
															<out>2304</out>
															<pproTicksIn>4136125593600</pproTicksIn>
															<pproTicksOut>19527937228800</pproTicksOut>
															<file id="file-146">
																<name>ES_That Space You're In - Far Orange.mp3</name>
																<pathurl>file://localhost/Volumes/T7/DRONE_08.18.2023/5_Music/ES_That%20Space%20You're%20In%20-%20Far%20Orange.mp3</pathurl>
																<rate>
																	<timebase>30</timebase>
																	<ntsc>TRUE</ntsc>
																</rate>
																<duration>8001</duration>
																<timecode>
																	<rate>
																		<timebase>30</timebase>
																		<ntsc>TRUE</ntsc>
																	</rate>
																	<string>00;00;00;00</string>
																	<frame>0</frame>
																	<displayformat>DF</displayformat>
																</timecode>
																<media>
																	<audio>
																		<samplecharacteristics>
																			<depth>16</depth>
																			<samplerate>48000</samplerate>
																		</samplecharacteristics>
																		<channelcount>2</channelcount>
																	</audio>
																</media>
															</file>
															<sourcetrack>
																<mediatype>audio</mediatype>
																<trackindex>1</trackindex>
															</sourcetrack>
															<link>
																<linkclipref>clipitem-204</linkclipref>
																<mediatype>audio</mediatype>
																<trackindex>1</trackindex>
																<clipindex>2</clipindex>
																<groupindex>1</groupindex>
															</link>
															<link>
																<linkclipref>clipitem-205</linkclipref>
																<mediatype>audio</mediatype>
																<trackindex>2</trackindex>
																<clipindex>2</clipindex>
																<groupindex>1</groupindex>
															</link>
															<logginginfo>
																<description></description>
																<scene></scene>
																<shottake></shottake>
																<lognote></lognote>
																<good></good>
																<originalvideofilename></originalvideofilename>
																<originalaudiofilename></originalaudiofilename>
															</logginginfo>
															<colorinfo>
																<lut></lut>
																<lut1></lut1>
																<asc_sop></asc_sop>
																<asc_sat></asc_sat>
																<lut2></lut2>
															</colorinfo>
															<labels>
																<label2>Caribbean</label2>
															</labels>
														</clipitem>
														<transitionitem>
															<start>1809</start>
															<end>1816</end>
															<pproTicksIn>15332481964800</pproTicksIn>
															<pproTicksOut>15391811635200</pproTicksOut>
															<alignment>end-black</alignment>
															<cutPointTicks>59329670400</cutPointTicks>
															<rate>
																<timebase>30</timebase>
																<ntsc>TRUE</ntsc>
															</rate>
															<effect>
																<name>Cross Fade ( 0dB)</name>
																<effectid>KGAudioTransCrossFade0dB</effectid>
																<effecttype>transition</effecttype>
																<mediatype>audio</mediatype>
																<wipecode>0</wipecode>
																<wipeaccuracy>100</wipeaccuracy>
																<startratio>0</startratio>
																<endratio>1</endratio>
																<reverse>FALSE</reverse>
															</effect>
														</transitionitem>
														<enabled>TRUE</enabled>
														<locked>FALSE</locked>
														<outputchannelindex>1</outputchannelindex>
													</track>
													<track TL.SQTrackAudioKeyframeStyle="0" TL.SQTrackShy="0" TL.SQTrackExpandedHeight="25" TL.SQTrackExpanded="0" MZ.TrackTargeted="1" PannerCurrentValue="0.5" PannerIsInverted="true" PannerStartKeyframe="-91445760000000000,0.5,0,0,0,0,0,0" PannerName="Balance" currentExplodedTrackIndex="1" totalExplodedTrackCount="2" premiereTrackType="Stereo">
														<transitionitem>
															<start>0</start>
															<end>7</end>
															<pproTicksIn>0</pproTicksIn>
															<pproTicksOut>59329670400</pproTicksOut>
															<alignment>start-black</alignment>
															<cutPointTicks>0</cutPointTicks>
															<rate>
																<timebase>30</timebase>
																<ntsc>TRUE</ntsc>
															</rate>
															<effect>
																<name>Cross Fade ( 0dB)</name>
																<effectid>KGAudioTransCrossFade0dB</effectid>
																<effecttype>transition</effecttype>
																<mediatype>audio</mediatype>
																<wipecode>0</wipecode>
																<wipeaccuracy>100</wipeaccuracy>
																<startratio>0</startratio>
																<endratio>1</endratio>
																<reverse>FALSE</reverse>
															</effect>
														</transitionitem>
														<clipitem id="clipitem-205" premiereChannelType="stereo">
															<masterclipid>masterclip-148</masterclipid>
															<name>ES_That Space You're In - Far Orange.mp3</name>
															<enabled>TRUE</enabled>
															<duration>8001</duration>
															<rate>
																<timebase>30</timebase>
																<ntsc>TRUE</ntsc>
															</rate>
															<start>-1</start>
															<end>-1</end>
															<in>488</in>
															<out>2304</out>
															<pproTicksIn>4136125593600</pproTicksIn>
															<pproTicksOut>19527937228800</pproTicksOut>
															<file id="file-146"/>
															<sourcetrack>
																<mediatype>audio</mediatype>
																<trackindex>2</trackindex>
															</sourcetrack>
															<link>
																<linkclipref>clipitem-204</linkclipref>
																<mediatype>audio</mediatype>
																<trackindex>1</trackindex>
																<clipindex>2</clipindex>
																<groupindex>1</groupindex>
															</link>
															<link>
																<linkclipref>clipitem-205</linkclipref>
																<mediatype>audio</mediatype>
																<trackindex>2</trackindex>
																<clipindex>2</clipindex>
																<groupindex>1</groupindex>
															</link>
															<logginginfo>
																<description></description>
																<scene></scene>
																<shottake></shottake>
																<lognote></lognote>
																<good></good>
																<originalvideofilename></originalvideofilename>
																<originalaudiofilename></originalaudiofilename>
															</logginginfo>
															<colorinfo>
																<lut></lut>
																<lut1></lut1>
																<asc_sop></asc_sop>
																<asc_sat></asc_sat>
																<lut2></lut2>
															</colorinfo>
															<labels>
																<label2>Caribbean</label2>
															</labels>
														</clipitem>
														<transitionitem>
															<start>1809</start>
															<end>1816</end>
															<pproTicksIn>15332481964800</pproTicksIn>
															<pproTicksOut>15391811635200</pproTicksOut>
															<alignment>end-black</alignment>
															<cutPointTicks>59329670400</cutPointTicks>
															<rate>
																<timebase>30</timebase>
																<ntsc>TRUE</ntsc>
															</rate>
															<effect>
																<name>Cross Fade ( 0dB)</name>
																<effectid>KGAudioTransCrossFade0dB</effectid>
																<effecttype>transition</effecttype>
																<mediatype>audio</mediatype>
																<wipecode>0</wipecode>
																<wipeaccuracy>100</wipeaccuracy>
																<startratio>0</startratio>
																<endratio>1</endratio>
																<reverse>FALSE</reverse>
															</effect>
														</transitionitem>
														<enabled>TRUE</enabled>
														<locked>FALSE</locked>
														<outputchannelindex>2</outputchannelindex>
													</track>
													<track TL.SQTrackAudioKeyframeStyle="0" TL.SQTrackShy="0" TL.SQTrackExpandedHeight="25" TL.SQTrackExpanded="0" MZ.TrackTargeted="1" PannerCurrentValue="0.5" PannerIsInverted="true" PannerStartKeyframe="-91445760000000000,0.5,0,0,0,0,0,0" PannerName="Balance" currentExplodedTrackIndex="0" totalExplodedTrackCount="2" premiereTrackType="Stereo">
														<enabled>TRUE</enabled>
														<locked>FALSE</locked>
														<outputchannelindex>1</outputchannelindex>
													</track>
													<track TL.SQTrackAudioKeyframeStyle="0" TL.SQTrackShy="0" TL.SQTrackExpandedHeight="25" TL.SQTrackExpanded="0" MZ.TrackTargeted="1" PannerCurrentValue="0.5" PannerIsInverted="true" PannerStartKeyframe="-91445760000000000,0.5,0,0,0,0,0,0" PannerName="Balance" currentExplodedTrackIndex="1" totalExplodedTrackCount="2" premiereTrackType="Stereo">
														<enabled>TRUE</enabled>
														<locked>FALSE</locked>
														<outputchannelindex>2</outputchannelindex>
													</track>
													<track TL.SQTrackAudioKeyframeStyle="0" TL.SQTrackShy="0" TL.SQTrackExpandedHeight="25" TL.SQTrackExpanded="0" MZ.TrackTargeted="1" PannerCurrentValue="0.5" PannerIsInverted="true" PannerStartKeyframe="-91445760000000000,0.5,0,0,0,0,0,0" PannerName="Balance" currentExplodedTrackIndex="0" totalExplodedTrackCount="2" premiereTrackType="Stereo">
														<enabled>TRUE</enabled>
														<locked>FALSE</locked>
														<outputchannelindex>1</outputchannelindex>
													</track>
													<track TL.SQTrackAudioKeyframeStyle="0" TL.SQTrackShy="0" TL.SQTrackExpandedHeight="25" TL.SQTrackExpanded="0" MZ.TrackTargeted="1" PannerCurrentValue="0.5" PannerIsInverted="true" PannerStartKeyframe="-91445760000000000,0.5,0,0,0,0,0,0" PannerName="Balance" currentExplodedTrackIndex="1" totalExplodedTrackCount="2" premiereTrackType="Stereo">
														<enabled>TRUE</enabled>
														<locked>FALSE</locked>
														<outputchannelindex>2</outputchannelindex>
													</track>
												</audio>
											</media>
											<timecode>
												<rate>
													<timebase>30</timebase>
													<ntsc>TRUE</ntsc>
												</rate>
												<string>00;00;00;00</string>
												<frame>0</frame>
												<displayformat>DF</displayformat>
											</timecode>
											<logginginfo>
												<description></description>
												<scene></scene>
												<shottake></shottake>
												<lognote></lognote>
												<good></good>
												<originalvideofilename></originalvideofilename>
												<originalaudiofilename></originalaudiofilename>
											</logginginfo>
											<filter>
												<effect>
													<name>Audio Levels</name>
													<effectid>audiolevels</effectid>
													<effectcategory>audiolevels</effectcategory>
													<effecttype>audiolevels</effecttype>
													<mediatype>audio</mediatype>
													<parameter authoringApp="PremierePro">
														<parameterid>level</parameterid>
														<name>Level</name>
														<valuemin>0</valuemin>
														<valuemax>3.98109</valuemax>
														<value>0.839406</value>
													</parameter>
												</effect>
											</filter>
										</sequence>
										<filter>
											<effect>
												<name></name>
												<effectid>Lumetri</effectid>
												<effecttype>filter</effecttype>
												<mediatype>video</mediatype>
												<pproBypass>false</pproBypass>
												<parameter authoringApp="PremierePro">
													<parameterid>1</parameterid>
													<name>Blob</name>
													<hash>63866a15-9327-e4cb-ff31-c9ea0000000e</hash>
													<value>/v4=</value>
												</parameter>
												<parameter authoringApp="PremierePro">
													<parameterid>3</parameterid>
													<name> </name>
													<IsTimeVarying>false</IsTimeVarying>
													<ParameterControlType>4</ParameterControlType>
													<LowerBound>false</LowerBound>
													<UpperBound>true</UpperBound>
													<value>-91445760000000000,true,0,0,0,0,0,0</value>
												</parameter>
												<parameter authoringApp="PremierePro">
													<parameterid>4</parameterid>
													<name> </name>
													<hash>63866a15-9327-e4cb-ff31-c9ea0000000e</hash>
												</parameter>
												<parameter authoringApp="PremierePro">
													<parameterid>5</parameterid>
													<name>Input LUT</name>
													<IsTimeVarying>false</IsTimeVarying>
													<ParameterControlType>7</ParameterControlType>
													<LowerBound>0</LowerBound>
													<UpperBound>998</UpperBound>
													<value>-91445760000000000,0,0,0,0,0,0,0</value>
												</parameter>
												<parameter authoringApp="PremierePro">
													<parameterid>7</parameterid>
													<name>Temperature</name>
													<IsTimeVarying>false</IsTimeVarying>
													<ParameterControlType>8</ParameterControlType>
													<LowerBound>-300</LowerBound>
													<UpperBound>300</UpperBound>
													<LowerUIBound>-100</LowerUIBound>
													<UpperUIBound>100</UpperUIBound>
													<value>-91445760000000000,0.,0,0,0,0,0,0</value>
												</parameter>
												<parameter authoringApp="PremierePro">
													<parameterid>8</parameterid>
													<name>Tint</name>
													<IsTimeVarying>false</IsTimeVarying>
													<ParameterControlType>8</ParameterControlType>
													<LowerBound>-300</LowerBound>
													<UpperBound>300</UpperBound>
													<LowerUIBound>-100</LowerUIBound>
													<UpperUIBound>100</UpperUIBound>
													<value>-91445760000000000,0.,0,0,0,0,0,0</value>
												</parameter>
												<parameter authoringApp="PremierePro">
													<parameterid>20</parameterid>
													<name>Saturation</name>
													<IsTimeVarying>false</IsTimeVarying>
													<ParameterControlType>8</ParameterControlType>
													<LowerBound>0</LowerBound>
													<UpperBound>300</UpperBound>
													<UpperUIBound>200</UpperUIBound>
													<value>-91445760000000000,100.,0,0,0,0,0,0</value>
												</parameter>
												<parameter authoringApp="PremierePro">
													<parameterid>11</parameterid>
													<name>Exposure</name>
													<IsTimeVarying>false</IsTimeVarying>
													<ParameterControlType>8</ParameterControlType>
													<LowerBound>-7</LowerBound>
													<UpperBound>7</UpperBound>
													<LowerUIBound>-5</LowerUIBound>
													<UpperUIBound>5</UpperUIBound>
													<value>-91445760000000000,0.,0,0,0,0,0,0</value>
												</parameter>
												<parameter authoringApp="PremierePro">
													<parameterid>12</parameterid>
													<name>Contrast</name>
													<IsTimeVarying>false</IsTimeVarying>
													<ParameterControlType>8</ParameterControlType>
													<LowerBound>-150</LowerBound>
													<UpperBound>150</UpperBound>
													<LowerUIBound>-100</LowerUIBound>
													<UpperUIBound>100</UpperUIBound>
													<value>-91445760000000000,0.,0,0,0,0,0,0</value>
												</parameter>
												<parameter authoringApp="PremierePro">
													<parameterid>13</parameterid>
													<name>Highlights</name>
													<IsTimeVarying>false</IsTimeVarying>
													<ParameterControlType>8</ParameterControlType>
													<LowerBound>-150</LowerBound>
													<UpperBound>150</UpperBound>
													<LowerUIBound>-100</LowerUIBound>
													<UpperUIBound>100</UpperUIBound>
													<value>-91445760000000000,0.,0,0,0,0,0,0</value>
												</parameter>
												<parameter authoringApp="PremierePro">
													<parameterid>14</parameterid>
													<name>Shadows</name>
													<IsTimeVarying>false</IsTimeVarying>
													<ParameterControlType>8</ParameterControlType>
													<LowerBound>-150</LowerBound>
													<UpperBound>150</UpperBound>
													<LowerUIBound>-100</LowerUIBound>
													<UpperUIBound>100</UpperUIBound>
													<value>-91445760000000000,0.,0,0,0,0,0,0</value>
												</parameter>
												<parameter authoringApp="PremierePro">
													<parameterid>15</parameterid>
													<name>Whites</name>
													<IsTimeVarying>false</IsTimeVarying>
													<ParameterControlType>8</ParameterControlType>
													<LowerBound>-150</LowerBound>
													<UpperBound>150</UpperBound>
													<LowerUIBound>-100</LowerUIBound>
													<UpperUIBound>100</UpperUIBound>
													<value>-91445760000000000,0.,0,0,0,0,0,0</value>
												</parameter>
												<parameter authoringApp="PremierePro">
													<parameterid>16</parameterid>
													<name>Blacks</name>
													<IsTimeVarying>false</IsTimeVarying>
													<ParameterControlType>8</ParameterControlType>
													<LowerBound>-150</LowerBound>
													<UpperBound>150</UpperBound>
													<LowerUIBound>-100</LowerUIBound>
													<UpperUIBound>100</UpperUIBound>
													<value>-91445760000000000,0.,0,0,0,0,0,0</value>
												</parameter>
												<parameter authoringApp="PremierePro">
													<parameterid>23</parameterid>
													<name> </name>
													<IsTimeVarying>false</IsTimeVarying>
													<ParameterControlType>4</ParameterControlType>
													<LowerBound>false</LowerBound>
													<UpperBound>true</UpperBound>
													<value>-91445760000000000,true,0,0,0,0,0,0</value>
												</parameter>
												<parameter authoringApp="PremierePro">
													<parameterid>24</parameterid>
													<name> </name>
													<hash>63866a15-9327-e4cb-ff31-c9ea0000000e</hash>
												</parameter>
												<parameter authoringApp="PremierePro">
													<parameterid>25</parameterid>
													<name>Look</name>
													<IsTimeVarying>false</IsTimeVarying>
													<ParameterControlType>7</ParameterControlType>
													<LowerBound>0</LowerBound>
													<UpperBound>998</UpperBound>
													<value>-91445760000000000,0,0,0,0,0,0,0</value>
												</parameter>
												<parameter authoringApp="PremierePro">
													<parameterid>26</parameterid>
													<name>Intensity</name>
													<IsTimeVarying>false</IsTimeVarying>
													<ParameterControlType>8</ParameterControlType>
													<LowerBound>0</LowerBound>
													<UpperBound>200</UpperBound>
													<value>-91445760000000000,100.,0,0,0,0,0,0</value>
												</parameter>
												<parameter authoringApp="PremierePro">
													<parameterid>28</parameterid>
													<name>Faded Film</name>
													<IsTimeVarying>false</IsTimeVarying>
													<ParameterControlType>8</ParameterControlType>
													<LowerBound>0</LowerBound>
													<UpperBound>150</UpperBound>
													<UpperUIBound>100</UpperUIBound>
													<value>-91445760000000000,0.,0,0,0,0,0,0</value>
												</parameter>
												<parameter authoringApp="PremierePro">
													<parameterid>29</parameterid>
													<name>Sharpen</name>
													<IsTimeVarying>false</IsTimeVarying>
													<ParameterControlType>8</ParameterControlType>
													<LowerBound>-100</LowerBound>
													<UpperBound>100</UpperBound>
													<value>-91445760000000000,0.,0,0,0,0,0,0</value>
												</parameter>
												<parameter authoringApp="PremierePro">
													<parameterid>30</parameterid>
													<name>Vibrance</name>
													<IsTimeVarying>false</IsTimeVarying>
													<ParameterControlType>8</ParameterControlType>
													<LowerBound>-100</LowerBound>
													<UpperBound>100</UpperBound>
													<value>-91445760000000000,0.,0,0,0,0,0,0</value>
												</parameter>
												<parameter authoringApp="PremierePro">
													<parameterid>31</parameterid>
													<name>Saturation</name>
													<IsTimeVarying>false</IsTimeVarying>
													<ParameterControlType>8</ParameterControlType>
													<LowerBound>0</LowerBound>
													<UpperBound>300</UpperBound>
													<UpperUIBound>200</UpperUIBound>
													<value>-91445760000000000,100.,0,0,0,0,0,0</value>
												</parameter>
												<parameter authoringApp="PremierePro">
													<parameterid>32</parameterid>
													<name></name>
													<hash>49d2fca5-ddd1-a393-0544-f6d80000002c</hash>
													<value>AAAAAAAAAAAAAAAAAAAAAAAAAAAAAAAAAAAAAAAAAAA=</value>
												</parameter>
												<parameter authoringApp="PremierePro">
													<parameterid>33</parameterid>
													<name>Tint Balance</name>
													<IsTimeVarying>false</IsTimeVarying>
													<ParameterControlType>8</ParameterControlType>
													<LowerBound>-150</LowerBound>
													<UpperBound>150</UpperBound>
													<LowerUIBound>-100</LowerUIBound>
													<UpperUIBound>100</UpperUIBound>
													<value>-91445760000000000,0.,0,0,0,0,0,0</value>
												</parameter>
												<parameter authoringApp="PremierePro">
													<parameterid>37</parameterid>
													<name> </name>
													<IsTimeVarying>false</IsTimeVarying>
													<ParameterControlType>4</ParameterControlType>
													<LowerBound>false</LowerBound>
													<UpperBound>true</UpperBound>
													<value>-91445760000000000,true,0,0,0,0,0,0</value>
												</parameter>
												<parameter authoringApp="PremierePro">
													<parameterid>39</parameterid>
													<name> </name>
													<hash>261f3840-e8cf-a8cd-fa5e-bac10000082c</hash>
													<value>AAAAAAIAAAAAAAAAAAAAAAAAAAAAAAAAAAAAAAAA8D8AAAAAAADwPwAAAAAAAAAAAAAAAAAAAAAAAAAAAAAAAAAAAAAAAAAAAAAAAAAAAAAAAAAAAAAAAAAAAAAAAAAAAAAAAAAAAAAAAAAAAAAAAAAAAAAAAAAAAAAAAAAAAAAAAAAAAAAAAAAAAAAAAAAAAAAAAAAAAAAAAAAAAAAAAAAAAAAAAAAAAAAAAAAAAAAAAAAAAAAAAAAAAAAAAAAAAAAAAAAAAAAAAAAAAAAAAAAAAAAAAAAAAAAAAAAAAAAAAAAAAAAAAAAAAAAAAAAAAAAAAAAAAAAAAAAAAAAAAAAAAAAAAAAAAAAAAAAAAAAAAAAAAAAAAAAAAAAAAAAAAAAAAAAAAAAAAAAAAAAAAAAAAAAAAAAAAAAAAAAAAAAAAAAAAAAAAAAAAAAAAAAAAAAAAAAAAAAAAAAAAAAAAAAAAAAAAAAAAAAAAAAAAAAAAAAAAAAAAAAAAAAAAAAAAAAAAAAAAAAAAAAAAAAAAAAAAAAAAAAAAAAAAAAAAAAAAAAAAAAAAAAAAAAAAAAAAAAAAAAAAAAAAAAAAAAAAAAAAAAAAAAAAAAAAAAAAAAAAAAAAAAAAAAAAAAAAAAAAAAAAAAAAAAAAAAAAAAAAAAAAAAAAAAAAAAAAAAAAAAAAAAAAAAAAAAAAAACAAAAAAAAAAAAAAAAAAAAAAAAAAAAAAAAAPA/AAAAAAAA8D8AAAAAAAAAAAAAAAAAAAAAAAAAAAAAAAAAAAAAAAAAAAAAAAAAAAAAAAAAAAAAAAAAAAAAAAAAAAAAAAAAAAAAAAAAAAAAAAAAAAAAAAAAAAAAAAAAAAAAAAAAAAAAAAAAAAAAAAAAAAAAAAAAAAAAAAAAAAAAAAAAAAAAAAAAAAAAAAAAAAAAAAAAAAAAAAAAAAAAAAAAAAAAAAAAAAAAAAAAAAAAAAAAAAAAAAAAAAAAAAAAAAAAAAAAAAAAAAAAAAAAAAAAAAAAAAAAAAAAAAAAAAAAAAAAAAAAAAAAAAAAAAAAAAAAAAAAAAAAAAAAAAAAAAAAAAAAAAAAAAAAAAAAAAAAAAAAAAAAAAAAAAAAAAAAAAAAAAAAAAAAAAAAAAAAAAAAAAAAAAAAAAAAAAAAAAAAAAAAAAAAAAAAAAAAAAAAAAAAAAAAAAAAAAAAAAAAAAAAAAAAAAAAAAAAAAAAAAAAAAAAAAAAAAAAAAAAAAAAAAAAAAAAAAAAAAAAAAAAAAAAAAAAAAAAAAAAAAAAAAAAAAAAAAAAAAAAAAAAAAAAAAAAAAAAAAAAAAAAAAAAAAAAAAAAAAAAAAAAAAAAAAAAAAAAAAAAAAAAAAAAAAAAAAAAAAAAAAAAAAAAAAAAAgAAAAAAAAAAAAAAAAAAAAAAAAAAAAAAAADwPwAAAAAAAPA/AAAAAAAAAAAAAAAAAAAAAAAAAAAAAAAAAAAAAAAAAAAAAAAAAAAAAAAAAAAAAAAAAAAAAAAAAAAAAAAAAAAAAAAAAAAAAAAAAAAAAAAAAAAAAAAAAAAAAAAAAAAAAAAAAAAAAAAAAAAAAAAAAAAAAAAAAAAAAAAAAAAAAAAAAAAAAAAAAAAAAAAAAAAAAAAAAAAAAAAAAAAAAAAAAAAAAAAAAAAAAAAAAAAAAAAAAAAAAAAAAAAAAAAAAAAAAAAAAAAAAAAAAAAAAAAAAAAAAAAAAAAAAAAAAAAAAAAAAAAAAAAAAAAAAAAAAAAAAAAAAAAAAAAAAAAAAAAAAAAAAAAAAAAAAAAAAAAAAAAAAAAAAAAAAAAAAAAAAAAAAAAAAAAAAAAAAAAAAAAAAAAAAAAAAAAAAAAAAAAAAAAAAAAAAAAAAAAAAAAAAAAAAAAAAAAAAAAAAAAAAAAAAAAAAAAAAAAAAAAAAAAAAAAAAAAAAAAAAAAAAAAAAAAAAAAAAAAAAAAAAAAAAAAAAAAAAAAAAAAAAAAAAAAAAAAAAAAAAAAAAAAAAAAAAAAAAAAAAAAAAAAAAAAAAAAAAAAAAAAAAAAAAAAAAAAAAAAAAAAAAAAAAAAAAAAAAAAAAAAAAAAAAAIAAAAAAAAAAAAAAAAAAAAAAAAAAAAAAAAA8D8AAAAAAADwPwAAAAAAAAAAAAAAAAAAAAAAAAAAAAAAAAAAAAAAAAAAAAAAAAAAAAAAAAAAAAAAAAAAAAAAAAAAAAAAAAAAAAAAAAAAAAAAAAAAAAAAAAAAAAAAAAAAAAAAAAAAAAAAAAAAAAAAAAAAAAAAAAAAAAAAAAAAAAAAAAAAAAAAAAAAAAAAAAAAAAAAAAAAAAAAAAAAAAAAAAAAAAAAAAAAAAAAAAAAAAAAAAAAAAAAAAAAAAAAAAAAAAAAAAAAAAAAAAAAAAAAAAAAAAAAAAAAAAAAAAAAAAAAAAAAAAAAAAAAAAAAAAAAAAAAAAAAAAAAAAAAAAAAAAAAAAAAAAAAAAAAAAAAAAAAAAAAAAAAAAAAAAAAAAAAAAAAAAAAAAAAAAAAAAAAAAAAAAAAAAAAAAAAAAAAAAAAAAAAAAAAAAAAAAAAAAAAAAAAAAAAAAAAAAAAAAAAAAAAAAAAAAAAAAAAAAAAAAAAAAAAAAAAAAAAAAAAAAAAAAAAAAAAAAAAAAAAAAAAAAAAAAAAAAAAAAAAAAAAAAAAAAAAAAAAAAAAAAAAAAAAAAAAAAAAAAAAAAAAAAAAAAAAAAAAAAAAAAAAAAAAAAAAAAAAAAAAAAAAAAAAAAAAAAAAAAAAAAAAAA==</value>
												</parameter>
												<parameter authoringApp="PremierePro">
													<parameterid>42</parameterid>
													<name>Hue vs Sat</name>
													<hash>f146cafe-eab3-19ed-0ee8-de0e00000214</hash>
													<value>AwAAAAAAAAAAAAAAAAAAAAAAAAAAAAAAAAAAAAAA8D8AAAAAAADwPwAAAAAAAAAAAAAAAAAAAAAAAAAAAAAAAAAAAAAAAAAAAAAAAAAAAAAAAAAAAAAAAAAAAAAAAAAAAAAAAAAAAAAAAAAAAAAAAAAAAAAAAAAAAAAAAAAAAAAAAAAAAAAAAAAAAAAAAAAAAAAAAAAAAAAAAAAAAAAAAAAAAAAAAAAAAAAAAAAAAAAAAAAAAAAAAAAAAAAAAAAAAAAAAAAAAAAAAAAAAAAAAAAAAAAAAAAAAAAAAAAAAAAAAAAAAAAAAAAAAAAAAAAAAAAAAAAAAAAAAAAAAAAAAAAAAAAAAAAAAAAAAAAAAAAAAAAAAAAAAAAAAAAAAAAAAAAAAAAAAAAAAAAAAAAAAAAAAAAAAAAAAAAAAAAAAAAAAAAAAAAAAAAAAAAAAAAAAAAAAAAAAAAAAAAAAAAAAAAAAAAAAAAAAAAAAAAAAAAAAAAAAAAAAAAAAAAAAAAAAAAAAAAAAAAAAAAAAAAAAAAAAAAAAAAAAAAAAAAAAAAAAAAAAAAAAAAAAAAAAAAAAAAAAAAAAAAAAAAAAAAAAAAAAAAAAAAAAAAAAAAAAAAAAAAAAAAAAAAAAAAAAAAAAAAAAAAAAAAAAAAAAAAAAAAAAAAAAAAAAAAAAAAAAAAAAAAAAAAAAA==</value>
												</parameter>
												<parameter authoringApp="PremierePro">
													<parameterid>46</parameterid>
													<name> </name>
													<IsTimeVarying>false</IsTimeVarying>
													<ParameterControlType>4</ParameterControlType>
													<LowerBound>false</LowerBound>
													<UpperBound>true</UpperBound>
													<value>-91445760000000000,true,0,0,0,0,0,0</value>
												</parameter>
												<parameter authoringApp="PremierePro">
													<parameterid>47</parameterid>
													<name> </name>
													<hash>0b5436c4-bae0-bb64-a2f6-c8c40000006c</hash>
													<value>AAAAAAAAAAAAAAAAAADgPwAAAAAAAAAAAAAAAAAAAAAAAAAAAADgPwAAAAAAAAAAAAAAAAAAAAAAAAAAAADgPwAAAAAAAAAAAAAAAAAAAAAAAAAAAADgPwAAAAAAAAAA</value>
												</parameter>
												<parameter authoringApp="PremierePro">
													<parameterid>50</parameterid>
													<name> </name>
													<IsTimeVarying>false</IsTimeVarying>
													<ParameterControlType>4</ParameterControlType>
													<LowerBound>false</LowerBound>
													<UpperBound>true</UpperBound>
													<value>-91445760000000000,true,0,0,0,0,0,0</value>
												</parameter>
												<parameter authoringApp="PremierePro">
													<parameterid>51</parameterid>
													<name>Amount</name>
													<IsTimeVarying>false</IsTimeVarying>
													<ParameterControlType>8</ParameterControlType>
													<LowerBound>-5</LowerBound>
													<UpperBound>5</UpperBound>
													<LowerUIBound>-3</LowerUIBound>
													<UpperUIBound>3</UpperUIBound>
													<value>-91445760000000000,-1.745980739593505859375,0,0,0,0,0,0</value>
												</parameter>
												<parameter authoringApp="PremierePro">
													<parameterid>52</parameterid>
													<name>Midpoint</name>
													<IsTimeVarying>false</IsTimeVarying>
													<ParameterControlType>8</ParameterControlType>
													<LowerBound>0</LowerBound>
													<UpperBound>100</UpperBound>
													<value>-91445760000000000,50.,0,0,0,0,0,0</value>
												</parameter>
												<parameter authoringApp="PremierePro">
													<parameterid>53</parameterid>
													<name>Roundness</name>
													<IsTimeVarying>false</IsTimeVarying>
													<ParameterControlType>8</ParameterControlType>
													<LowerBound>-100</LowerBound>
													<UpperBound>100</UpperBound>
													<value>-91445760000000000,60.1286163330078125,0,0,0,0,0,0</value>
												</parameter>
												<parameter authoringApp="PremierePro">
													<parameterid>54</parameterid>
													<name>Feather</name>
													<IsTimeVarying>false</IsTimeVarying>
													<ParameterControlType>8</ParameterControlType>
													<LowerBound>0</LowerBound>
													<UpperBound>100</UpperBound>
													<value>-91445760000000000,94.53376007080078125,0,0,0,0,0,0</value>
												</parameter>
											</effect>
										</filter>
										<link>
											<linkclipref>clipitem-201</linkclipref>
											<mediatype>video</mediatype>
											<trackindex>1</trackindex>
											<clipindex>2</clipindex>
										</link>
										<link>
											<linkclipref>clipitem-231</linkclipref>
											<mediatype>audio</mediatype>
											<trackindex>1</trackindex>
											<clipindex>2</clipindex>
											<groupindex>1</groupindex>
										</link>
										<link>
											<linkclipref>clipitem-233</linkclipref>
											<mediatype>audio</mediatype>
											<trackindex>2</trackindex>
											<clipindex>2</clipindex>
											<groupindex>1</groupindex>
										</link>
										<labels>
											<label2>Forest</label2>
										</labels>
									</clipitem>
									<enabled>TRUE</enabled>
									<locked>FALSE</locked>
								</track>
								<track TL.SQTrackShy="0" TL.SQTrackExpandedHeight="25" TL.SQTrackExpanded="0" MZ.TrackTargeted="0">
									<clipitem id="clipitem-206">
										<masterclipid>masterclip-149</masterclipid>
										<name>NEW DRONE L3.aep</name>
										<enabled>TRUE</enabled>
										<duration>5694</duration>
										<rate>
											<timebase>30</timebase>
											<ntsc>TRUE</ntsc>
										</rate>
										<start>0</start>
										<end>3756</end>
										<in>0</in>
										<out>3756</out>
										<pproTicksIn>0</pproTicksIn>
										<pproTicksOut>31834606003200</pproTicksOut>
										<alphatype>straight</alphatype>
										<pixelaspectratio>square</pixelaspectratio>
										<anamorphic>FALSE</anamorphic>
										<file id="file-147">
											<name>DRONE_LOWER_A/NEW DRONE L3.aep</name>
											<pathurl>file://localhost/Volumes/T7/DRONE_08.18.2023/4_Project%20Files/Drone%202023%20Master%20Assets/01_Bugs/NEW%20DRONE%20L3/NEW%20DRONE%20L3.aep</pathurl>
											<rate>
												<timebase>30</timebase>
												<ntsc>TRUE</ntsc>
											</rate>
											<duration>5694</duration>
											<timecode>
												<rate>
													<timebase>30</timebase>
													<ntsc>TRUE</ntsc>
												</rate>
												<string>00;00;00;00</string>
												<frame>0</frame>
												<displayformat>DF</displayformat>
											</timecode>
											<media>
												<video>
													<samplecharacteristics>
														<rate>
															<timebase>30</timebase>
															<ntsc>TRUE</ntsc>
														</rate>
														<width>1920</width>
														<height>1080</height>
														<anamorphic>FALSE</anamorphic>
														<pixelaspectratio>square</pixelaspectratio>
														<fielddominance>lower</fielddominance>
													</samplecharacteristics>
												</video>
											</media>
										</file>
										<logginginfo>
											<description></description>
											<scene></scene>
											<shottake></shottake>
											<lognote></lognote>
											<good></good>
											<originalvideofilename></originalvideofilename>
											<originalaudiofilename></originalaudiofilename>
										</logginginfo>
										<colorinfo>
											<lut></lut>
											<lut1></lut1>
											<asc_sop></asc_sop>
											<asc_sat></asc_sat>
											<lut2></lut2>
										</colorinfo>
										<labels>
											<label2>Rose</label2>
										</labels>
									</clipitem>
									<clipitem id="clipitem-207">
										<masterclipid>masterclip-150</masterclipid>
										<name>NEW DRONE L3.aep Copy 01</name>
										<enabled>TRUE</enabled>
										<duration>5694</duration>
										<rate>
											<timebase>30</timebase>
											<ntsc>TRUE</ntsc>
										</rate>
										<start>3902</start>
										<end>5463</end>
										<in>0</in>
										<out>1561</out>
										<pproTicksIn>0</pproTicksIn>
										<pproTicksOut>13230516499200</pproTicksOut>
										<alphatype>straight</alphatype>
										<pixelaspectratio>square</pixelaspectratio>
										<anamorphic>FALSE</anamorphic>
										<file id="file-148">
											<name>DRONE_LOWER_A/NEW DRONE L3.aep</name>
											<pathurl>file://localhost/Volumes/T7/DRONE_08.18.2023/4_Project%20Files/Drone%202023%20Master%20Assets/01_Bugs/NEW%20DRONE%20L3/NEW%20DRONE%20L3.aep</pathurl>
											<rate>
												<timebase>30</timebase>
												<ntsc>TRUE</ntsc>
											</rate>
											<duration>5694</duration>
											<timecode>
												<rate>
													<timebase>30</timebase>
													<ntsc>TRUE</ntsc>
												</rate>
												<string>00;00;00;00</string>
												<frame>0</frame>
												<displayformat>DF</displayformat>
											</timecode>
											<media>
												<video>
													<samplecharacteristics>
														<rate>
															<timebase>30</timebase>
															<ntsc>TRUE</ntsc>
														</rate>
														<width>1920</width>
														<height>1080</height>
														<anamorphic>FALSE</anamorphic>
														<pixelaspectratio>square</pixelaspectratio>
														<fielddominance>lower</fielddominance>
													</samplecharacteristics>
												</video>
											</media>
										</file>
										<logginginfo>
											<description></description>
											<scene></scene>
											<shottake></shottake>
											<lognote></lognote>
											<good></good>
											<originalvideofilename></originalvideofilename>
											<originalaudiofilename></originalaudiofilename>
										</logginginfo>
										<colorinfo>
											<lut></lut>
											<lut1></lut1>
											<asc_sop></asc_sop>
											<asc_sat></asc_sat>
											<lut2></lut2>
										</colorinfo>
										<labels>
											<label2>Rose</label2>
										</labels>
									</clipitem>
									<enabled>TRUE</enabled>
									<locked>FALSE</locked>
								</track>
								<track TL.SQTrackShy="0" TL.SQTrackExpandedHeight="25" TL.SQTrackExpanded="0" MZ.TrackTargeted="0">
									<clipitem id="clipitem-208">
										<masterclipid>masterclip-151</masterclipid>
										<name>DRONE_PIN/DRONE_PIN.aep</name>
										<enabled>TRUE</enabled>
										<duration>5694</duration>
										<rate>
											<timebase>30</timebase>
											<ntsc>TRUE</ntsc>
										</rate>
										<start>264</start>
										<end>3756</end>
										<in>0</in>
										<out>3492</out>
										<pproTicksIn>0</pproTicksIn>
										<pproTicksOut>29597029862400</pproTicksOut>
										<alphatype>straight</alphatype>
										<pixelaspectratio>square</pixelaspectratio>
										<anamorphic>FALSE</anamorphic>
										<file id="file-149">
											<name>DRONE_PIN/DRONE_PIN.aep</name>
											<pathurl>file://localhost/Volumes/T7/DRONE_08.18.2023/4_Project%20Files/Drone%202023%20Master%20Assets/01_Bugs/DRIVE_LOCATION%20PIN/DRONE_PIN.aep</pathurl>
											<rate>
												<timebase>30</timebase>
												<ntsc>TRUE</ntsc>
											</rate>
											<duration>5694</duration>
											<timecode>
												<rate>
													<timebase>30</timebase>
													<ntsc>TRUE</ntsc>
												</rate>
												<string>00;00;00;00</string>
												<frame>0</frame>
												<displayformat>DF</displayformat>
											</timecode>
											<media>
												<video>
													<samplecharacteristics>
														<rate>
															<timebase>30</timebase>
															<ntsc>TRUE</ntsc>
														</rate>
														<width>1920</width>
														<height>1080</height>
														<anamorphic>FALSE</anamorphic>
														<pixelaspectratio>square</pixelaspectratio>
														<fielddominance>lower</fielddominance>
													</samplecharacteristics>
												</video>
											</media>
										</file>
										<logginginfo>
											<description></description>
											<scene></scene>
											<shottake></shottake>
											<lognote></lognote>
											<good></good>
											<originalvideofilename></originalvideofilename>
											<originalaudiofilename></originalaudiofilename>
										</logginginfo>
										<colorinfo>
											<lut></lut>
											<lut1></lut1>
											<asc_sop></asc_sop>
											<asc_sat></asc_sat>
											<lut2></lut2>
										</colorinfo>
										<labels>
											<label2>Cerulean</label2>
										</labels>
									</clipitem>
									<clipitem id="clipitem-209">
										<masterclipid>masterclip-152</masterclipid>
										<name>DRONE_PIN/DRONE_PIN.aep Copy 01</name>
										<enabled>TRUE</enabled>
										<duration>5694</duration>
										<rate>
											<timebase>30</timebase>
											<ntsc>TRUE</ntsc>
										</rate>
										<start>4150</start>
										<end>5463</end>
										<in>0</in>
										<out>1313</out>
										<pproTicksIn>0</pproTicksIn>
										<pproTicksOut>11128551033600</pproTicksOut>
										<alphatype>straight</alphatype>
										<pixelaspectratio>square</pixelaspectratio>
										<anamorphic>FALSE</anamorphic>
										<file id="file-150">
											<name>DRONE_PIN/DRONE_PIN.aep</name>
											<pathurl>file://localhost/Volumes/T7/DRONE_08.18.2023/4_Project%20Files/Drone%202023%20Master%20Assets/01_Bugs/DRIVE_LOCATION%20PIN/DRONE_PIN.aep</pathurl>
											<rate>
												<timebase>30</timebase>
												<ntsc>TRUE</ntsc>
											</rate>
											<duration>5694</duration>
											<timecode>
												<rate>
													<timebase>30</timebase>
													<ntsc>TRUE</ntsc>
												</rate>
												<string>00;00;00;00</string>
												<frame>0</frame>
												<displayformat>DF</displayformat>
											</timecode>
											<media>
												<video>
													<samplecharacteristics>
														<rate>
															<timebase>30</timebase>
															<ntsc>TRUE</ntsc>
														</rate>
														<width>1920</width>
														<height>1080</height>
														<anamorphic>FALSE</anamorphic>
														<pixelaspectratio>square</pixelaspectratio>
														<fielddominance>lower</fielddominance>
													</samplecharacteristics>
												</video>
											</media>
										</file>
										<logginginfo>
											<description></description>
											<scene></scene>
											<shottake></shottake>
											<lognote></lognote>
											<good></good>
											<originalvideofilename></originalvideofilename>
											<originalaudiofilename></originalaudiofilename>
										</logginginfo>
										<colorinfo>
											<lut></lut>
											<lut1></lut1>
											<asc_sop></asc_sop>
											<asc_sat></asc_sat>
											<lut2></lut2>
										</colorinfo>
										<labels>
											<label2>Cerulean</label2>
										</labels>
									</clipitem>
									<enabled>TRUE</enabled>
									<locked>FALSE</locked>
								</track>
								<track TL.SQTrackShy="0" TL.SQTrackExpandedHeight="25" TL.SQTrackExpanded="0" MZ.TrackTargeted="0">
									<clipitem id="clipitem-210">
										<masterclipid>masterclip-153</masterclipid>
										<name>ATM BUG</name>
										<enabled>TRUE</enabled>
										<duration>5818</duration>
										<rate>
											<timebase>30</timebase>
											<ntsc>TRUE</ntsc>
										</rate>
										<start>0</start>
										<end>5463</end>
										<in>0</in>
										<out>5463</out>
										<pproTicksIn>0</pproTicksIn>
										<pproTicksOut>46302569913600</pproTicksOut>
										<sequence id="sequence-5" TL.SQAudioVisibleBase="0" TL.SQVideoVisibleBase="0" TL.SQVisibleBaseTime="35141166144000" TL.SQAVDividerPosition="0.5" TL.SQHideShyTracks="0" TL.SQHeaderWidth="236" Monitor.ProgramZoomOut="48336730041600" Monitor.ProgramZoomIn="0" TL.SQTimePerPixel="0.082583263364119794" MZ.EditLine="48336730041600" MZ.Sequence.PreviewFrameSizeHeight="1080" MZ.Sequence.PreviewFrameSizeWidth="1920" MZ.Sequence.AudioTimeDisplayFormat="200" MZ.Sequence.PreviewRenderingClassID="1297106761" MZ.Sequence.PreviewRenderingPresetCodec="1297107278" MZ.Sequence.PreviewRenderingPresetPath="EncoderPresets/SequencePreview/795454d9-d3c2-429d-9474-923ab13b7018/I-Frame Only MPEG.epr" MZ.Sequence.PreviewUseMaxRenderQuality="false" MZ.Sequence.PreviewUseMaxBitDepth="false" MZ.Sequence.EditingModeGUID="795454d9-d3c2-429d-9474-923ab13b7018" MZ.Sequence.VideoTimeDisplayFormat="102" MZ.WorkOutPoint="15239249625600" MZ.WorkInPoint="0">
											<duration>0</duration>
											<rate>
												<timebase>30</timebase>
												<ntsc>TRUE</ntsc>
											</rate>
											<name>ATM BUG</name>
											<media>
												<video>
													<format>
														<samplecharacteristics>
															<rate>
																<timebase>30</timebase>
																<ntsc>TRUE</ntsc>
															</rate>
															<codec>
																<name>Apple ProRes 422</name>
																<appspecificdata>
																	<appname>Final Cut Pro</appname>
																	<appmanufacturer>Apple Inc.</appmanufacturer>
																	<appversion>7.0</appversion>
																	<data>
																		<qtcodec>
																			<codecname>Apple ProRes 422</codecname>
																			<codectypename>Apple ProRes 422</codectypename>
																			<codectypecode>apcn</codectypecode>
																			<codecvendorcode>appl</codecvendorcode>
																			<spatialquality>1024</spatialquality>
																			<temporalquality>0</temporalquality>
																			<keyframerate>0</keyframerate>
																			<datarate>0</datarate>
																		</qtcodec>
																	</data>
																</appspecificdata>
															</codec>
															<width>1920</width>
															<height>1080</height>
															<anamorphic>FALSE</anamorphic>
															<pixelaspectratio>square</pixelaspectratio>
															<fielddominance>none</fielddominance>
															<colordepth>24</colordepth>
														</samplecharacteristics>
													</format>
													<track TL.SQTrackShy="0" TL.SQTrackExpandedHeight="25" TL.SQTrackExpanded="0" MZ.TrackTargeted="1">
														<enabled>TRUE</enabled>
														<locked>FALSE</locked>
													</track>
													<track TL.SQTrackShy="0" TL.SQTrackExpandedHeight="25" TL.SQTrackExpanded="0" MZ.TrackTargeted="0">
														<clipitem id="clipitem-211">
															<masterclipid>masterclip-154</masterclipid>
															<name>Atmosphere_Bug_Transparent.png</name>
															<enabled>TRUE</enabled>
															<duration>1294705</duration>
															<rate>
																<timebase>30</timebase>
																<ntsc>TRUE</ntsc>
															</rate>
															<start>0</start>
															<end>5703</end>
															<in>107891</in>
															<out>113594</out>
															<pproTicksIn>914448209875200</pproTicksIn>
															<pproTicksOut>962784939916800</pproTicksOut>
															<alphatype>straight</alphatype>
															<pixelaspectratio>square</pixelaspectratio>
															<anamorphic>FALSE</anamorphic>
															<file id="file-151">
																<name>ATM BUG_1080_Top Right.png</name>
																<pathurl>file://localhost/Volumes/T7/DRONE_08.18.2023/4_Project%20Files/Drone%202023%20Master%20Assets/01_Bugs/ATM%20NEW%20BUG/ATM%20BUG_1080_Top%20Right.png</pathurl>
																<rate>
																	<timebase>30</timebase>
																	<ntsc>TRUE</ntsc>
																</rate>
																<timecode>
																	<rate>
																		<timebase>30</timebase>
																		<ntsc>TRUE</ntsc>
																	</rate>
																	<string>00:00:00:00</string>
																	<frame>0</frame>
																	<displayformat>NDF</displayformat>
																</timecode>
																<media>
																	<video>
																		<samplecharacteristics>
																			<rate>
																				<timebase>30</timebase>
																				<ntsc>TRUE</ntsc>
																			</rate>
																			<width>1920</width>
																			<height>1080</height>
																			<anamorphic>FALSE</anamorphic>
																			<pixelaspectratio>square</pixelaspectratio>
																			<fielddominance>none</fielddominance>
																		</samplecharacteristics>
																	</video>
																</media>
															</file>
															<logginginfo>
																<description></description>
																<scene></scene>
																<shottake></shottake>
																<lognote></lognote>
																<good></good>
																<originalvideofilename></originalvideofilename>
																<originalaudiofilename></originalaudiofilename>
															</logginginfo>
															<colorinfo>
																<lut></lut>
																<lut1></lut1>
																<asc_sop></asc_sop>
																<asc_sat></asc_sat>
																<lut2></lut2>
															</colorinfo>
															<labels>
																<label2>Lavender</label2>
															</labels>
														</clipitem>
														<enabled>TRUE</enabled>
														<locked>FALSE</locked>
													</track>
													<track TL.SQTrackShy="0" TL.SQTrackExpandedHeight="25" TL.SQTrackExpanded="0" MZ.TrackTargeted="0">
														<enabled>TRUE</enabled>
														<locked>FALSE</locked>
													</track>
												</video>
												<audio>
													<numOutputChannels>2</numOutputChannels>
													<format>
														<samplecharacteristics>
															<depth>16</depth>
															<samplerate>32000</samplerate>
														</samplecharacteristics>
													</format>
													<outputs>
														<group>
															<index>1</index>
															<numchannels>1</numchannels>
															<downmix>0</downmix>
															<channel>
																<index>1</index>
															</channel>
														</group>
														<group>
															<index>2</index>
															<numchannels>1</numchannels>
															<downmix>0</downmix>
															<channel>
																<index>2</index>
															</channel>
														</group>
													</outputs>
													<track TL.SQTrackAudioKeyframeStyle="0" TL.SQTrackShy="0" TL.SQTrackExpandedHeight="25" TL.SQTrackExpanded="0" MZ.TrackTargeted="1" PannerCurrentValue="0.5" PannerIsInverted="true" PannerStartKeyframe="-91445760000000000,0.5,0,0,0,0,0,0" PannerName="Balance" currentExplodedTrackIndex="0" totalExplodedTrackCount="2" premiereTrackType="Stereo">
														<enabled>TRUE</enabled>
														<locked>FALSE</locked>
														<outputchannelindex>1</outputchannelindex>
													</track>
													<track TL.SQTrackAudioKeyframeStyle="0" TL.SQTrackShy="0" TL.SQTrackExpandedHeight="25" TL.SQTrackExpanded="0" MZ.TrackTargeted="1" PannerCurrentValue="0.5" PannerIsInverted="true" PannerStartKeyframe="-91445760000000000,0.5,0,0,0,0,0,0" PannerName="Balance" currentExplodedTrackIndex="1" totalExplodedTrackCount="2" premiereTrackType="Stereo">
														<enabled>TRUE</enabled>
														<locked>FALSE</locked>
														<outputchannelindex>2</outputchannelindex>
													</track>
													<track TL.SQTrackAudioKeyframeStyle="0" TL.SQTrackShy="0" TL.SQTrackExpandedHeight="25" TL.SQTrackExpanded="0" MZ.TrackTargeted="1" PannerCurrentValue="0.5" PannerIsInverted="true" PannerStartKeyframe="-91445760000000000,0.5,0,0,0,0,0,0" PannerName="Balance" currentExplodedTrackIndex="0" totalExplodedTrackCount="2" premiereTrackType="Stereo">
														<enabled>TRUE</enabled>
														<locked>FALSE</locked>
														<outputchannelindex>1</outputchannelindex>
													</track>
													<track TL.SQTrackAudioKeyframeStyle="0" TL.SQTrackShy="0" TL.SQTrackExpandedHeight="25" TL.SQTrackExpanded="0" MZ.TrackTargeted="1" PannerCurrentValue="0.5" PannerIsInverted="true" PannerStartKeyframe="-91445760000000000,0.5,0,0,0,0,0,0" PannerName="Balance" currentExplodedTrackIndex="1" totalExplodedTrackCount="2" premiereTrackType="Stereo">
														<enabled>TRUE</enabled>
														<locked>FALSE</locked>
														<outputchannelindex>2</outputchannelindex>
													</track>
													<track TL.SQTrackAudioKeyframeStyle="0" TL.SQTrackShy="0" TL.SQTrackExpandedHeight="25" TL.SQTrackExpanded="0" MZ.TrackTargeted="1" PannerCurrentValue="0.5" PannerIsInverted="true" PannerStartKeyframe="-91445760000000000,0.5,0,0,0,0,0,0" PannerName="Balance" currentExplodedTrackIndex="0" totalExplodedTrackCount="2" premiereTrackType="Stereo">
														<enabled>TRUE</enabled>
														<locked>FALSE</locked>
														<outputchannelindex>1</outputchannelindex>
													</track>
													<track TL.SQTrackAudioKeyframeStyle="0" TL.SQTrackShy="0" TL.SQTrackExpandedHeight="25" TL.SQTrackExpanded="0" MZ.TrackTargeted="1" PannerCurrentValue="0.5" PannerIsInverted="true" PannerStartKeyframe="-91445760000000000,0.5,0,0,0,0,0,0" PannerName="Balance" currentExplodedTrackIndex="1" totalExplodedTrackCount="2" premiereTrackType="Stereo">
														<enabled>TRUE</enabled>
														<locked>FALSE</locked>
														<outputchannelindex>2</outputchannelindex>
													</track>
												</audio>
											</media>
											<timecode>
												<rate>
													<timebase>30</timebase>
													<ntsc>TRUE</ntsc>
												</rate>
												<string>00;00;00;00</string>
												<frame>0</frame>
												<displayformat>DF</displayformat>
											</timecode>
											<logginginfo>
												<description></description>
												<scene></scene>
												<shottake></shottake>
												<lognote></lognote>
												<good></good>
												<originalvideofilename></originalvideofilename>
												<originalaudiofilename></originalaudiofilename>
											</logginginfo>
										</sequence>
										<labels>
											<label2>Violet</label2>
										</labels>
									</clipitem>
									<enabled>TRUE</enabled>
									<locked>FALSE</locked>
								</track>
								<track TL.SQTrackShy="0" TL.SQTrackExpandedHeight="25" TL.SQTrackExpanded="0" MZ.TrackTargeted="0">
									<clipitem id="clipitem-212">
										<masterclipid>masterclip-155</masterclipid>
										<name>Trans B</name>
										<enabled>TRUE</enabled>
										<duration>5697</duration>
										<rate>
											<timebase>30</timebase>
											<ntsc>TRUE</ntsc>
										</rate>
										<start>3747</start>
										<end>3902</end>
										<in>0</in>
										<out>155</out>
										<pproTicksIn>0</pproTicksIn>
										<pproTicksOut>1313728416000</pproTicksOut>
										<sequence id="sequence-6" TL.SQAudioVisibleBase="0" TL.SQVideoVisibleBase="0" TL.SQVisibleBaseTime="227712925440" TL.SQAVDividerPosition="0.5" TL.SQHideShyTracks="0" TL.SQHeaderWidth="236" Monitor.ProgramZoomOut="1313728416000" Monitor.ProgramZoomIn="0" TL.SQTimePerPixel="0.0011122222222222221" MZ.EditLine="228843014400" MZ.Sequence.PreviewFrameSizeHeight="1080" MZ.Sequence.PreviewFrameSizeWidth="1920" MZ.Sequence.AudioTimeDisplayFormat="200" MZ.Sequence.PreviewRenderingClassID="1297106761" MZ.Sequence.PreviewRenderingPresetCodec="1297107278" MZ.Sequence.PreviewRenderingPresetPath="EncoderPresets/SequencePreview/795454d9-d3c2-429d-9474-923ab13b7018/I-Frame Only MPEG.epr" MZ.Sequence.PreviewUseMaxRenderQuality="false" MZ.Sequence.PreviewUseMaxBitDepth="false" MZ.Sequence.EditingModeGUID="795454d9-d3c2-429d-9474-923ab13b7018" MZ.Sequence.VideoTimeDisplayFormat="102" MZ.WorkOutPoint="15239249625600" MZ.WorkInPoint="0">
											<duration>155</duration>
											<rate>
												<timebase>30</timebase>
												<ntsc>TRUE</ntsc>
											</rate>
											<name>Trans B</name>
											<media>
												<video>
													<format>
														<samplecharacteristics>
															<rate>
																<timebase>30</timebase>
																<ntsc>TRUE</ntsc>
															</rate>
															<codec>
																<name>Apple ProRes 422</name>
																<appspecificdata>
																	<appname>Final Cut Pro</appname>
																	<appmanufacturer>Apple Inc.</appmanufacturer>
																	<appversion>7.0</appversion>
																	<data>
																		<qtcodec>
																			<codecname>Apple ProRes 422</codecname>
																			<codectypename>Apple ProRes 422</codectypename>
																			<codectypecode>apcn</codectypecode>
																			<codecvendorcode>appl</codecvendorcode>
																			<spatialquality>1024</spatialquality>
																			<temporalquality>0</temporalquality>
																			<keyframerate>0</keyframerate>
																			<datarate>0</datarate>
																		</qtcodec>
																	</data>
																</appspecificdata>
															</codec>
															<width>1920</width>
															<height>1080</height>
															<anamorphic>FALSE</anamorphic>
															<pixelaspectratio>square</pixelaspectratio>
															<fielddominance>none</fielddominance>
															<colordepth>24</colordepth>
														</samplecharacteristics>
													</format>
													<track TL.SQTrackShy="0" TL.SQTrackExpandedHeight="25" TL.SQTrackExpanded="0" MZ.TrackTargeted="1">
														<clipitem id="clipitem-213">
															<masterclipid>masterclip-156</masterclipid>
															<name>ATM_DRONE_TRANS_B.mov</name>
															<enabled>TRUE</enabled>
															<duration>155</duration>
															<rate>
																<timebase>30</timebase>
																<ntsc>TRUE</ntsc>
															</rate>
															<start>9</start>
															<end>144</end>
															<in>12</in>
															<out>147</out>
															<pproTicksIn>101708006400</pproTicksIn>
															<pproTicksOut>1245923078400</pproTicksOut>
															<alphatype>straight</alphatype>
															<pixelaspectratio>square</pixelaspectratio>
															<anamorphic>FALSE</anamorphic>
															<file id="file-152">
																<name>ATM_DRONE_TRANS_B.mov</name>
																<pathurl>file://localhost/Volumes/T7/DRONE_08.18.2023/4_Project%20Files/Drone%202023%20Master%20Assets/02_Transitions/DRONE%20transitions%20(30fps)/ATM_DRONE_TRANS_B.mov</pathurl>
																<rate>
																	<timebase>30</timebase>
																	<ntsc>TRUE</ntsc>
																</rate>
																<duration>155</duration>
																<timecode>
																	<rate>
																		<timebase>30</timebase>
																		<ntsc>TRUE</ntsc>
																	</rate>
																	<string>00;01;02;13</string>
																	<frame>1871</frame>
																	<displayformat>DF</displayformat>
																</timecode>
																<media>
																	<video>
																		<samplecharacteristics>
																			<rate>
																				<timebase>30</timebase>
																				<ntsc>TRUE</ntsc>
																			</rate>
																			<width>1920</width>
																			<height>1080</height>
																			<anamorphic>FALSE</anamorphic>
																			<pixelaspectratio>square</pixelaspectratio>
																			<fielddominance>none</fielddominance>
																		</samplecharacteristics>
																	</video>
																	<audio>
																		<samplecharacteristics>
																			<depth>16</depth>
																			<samplerate>48000</samplerate>
																		</samplecharacteristics>
																		<channelcount>2</channelcount>
																	</audio>
																</media>
															</file>
															<logginginfo>
																<description></description>
																<scene></scene>
																<shottake></shottake>
																<lognote></lognote>
																<good></good>
																<originalvideofilename></originalvideofilename>
																<originalaudiofilename></originalaudiofilename>
															</logginginfo>
															<colorinfo>
																<lut></lut>
																<lut1></lut1>
																<asc_sop></asc_sop>
																<asc_sat></asc_sat>
																<lut2></lut2>
															</colorinfo>
															<labels>
																<label2>Iris</label2>
															</labels>
														</clipitem>
														<enabled>TRUE</enabled>
														<locked>FALSE</locked>
													</track>
													<track TL.SQTrackShy="0" TL.SQTrackExpandedHeight="25" TL.SQTrackExpanded="0" MZ.TrackTargeted="0">
														<clipitem id="clipitem-214">
															<masterclipid>masterclip-157</masterclipid>
															<name>02 Zoom In - Quick / Transform Out</name>
															<enabled>TRUE</enabled>
															<duration>1294705</duration>
															<rate>
																<timebase>30</timebase>
																<ntsc>TRUE</ntsc>
															</rate>
															<start>0</start>
															<end>9</end>
															<in>0</in>
															<out>9</out>
															<pproTicksIn>0</pproTicksIn>
															<pproTicksOut>76281004800</pproTicksOut>
															<sequence id="sequence-7" TL.SQAudioVisibleBase="0" TL.SQVideoVisibleBase="0" TL.SQVisibleBaseTime="0" TL.SQAVDividerPosition="0.5" TL.SQHideShyTracks="0" TL.SQHeaderWidth="236" Monitor.ProgramZoomOut="1262874412800" Monitor.ProgramZoomIn="0" TL.SQTimePerPixel="0.0092238095237990401" MZ.EditLine="262745683200" MZ.Sequence.PreviewFrameSizeHeight="1080" MZ.Sequence.PreviewFrameSizeWidth="1920" MZ.Sequence.AudioTimeDisplayFormat="200" MZ.Sequence.PreviewRenderingClassID="1297106761" MZ.Sequence.PreviewRenderingPresetCodec="1297107278" MZ.Sequence.PreviewRenderingPresetPath="EncoderPresets\SequencePreview\cc7991f5-c236-4db1-957e-2c71f924e81c\I-Frame Only MPEG.epr" MZ.Sequence.PreviewUseMaxRenderQuality="false" MZ.Sequence.PreviewUseMaxBitDepth="false" MZ.Sequence.EditingModeGUID="cc7991f5-c236-4db1-957e-2c71f924e81c" MZ.Sequence.VideoTimeDisplayFormat="102" MZ.WorkOutPoint="1262874412800" MZ.WorkInPoint="0">
																<duration>149</duration>
																<rate>
																	<timebase>30</timebase>
																	<ntsc>TRUE</ntsc>
																</rate>
																<name>Do Not Delete 1</name>
																<media>
																	<video>
																		<format>
																			<samplecharacteristics>
																				<rate>
																					<timebase>30</timebase>
																					<ntsc>TRUE</ntsc>
																				</rate>
																				<codec>
																					<name>Apple ProRes 422</name>
																					<appspecificdata>
																						<appname>Final Cut Pro</appname>
																						<appmanufacturer>Apple Inc.</appmanufacturer>
																						<appversion>7.0</appversion>
																						<data>
																							<qtcodec>
																								<codecname>Apple ProRes 422</codecname>
																								<codectypename>Apple ProRes 422</codectypename>
																								<codectypecode>apcn</codectypecode>
																								<codecvendorcode>appl</codecvendorcode>
																								<spatialquality>1024</spatialquality>
																								<temporalquality>0</temporalquality>
																								<keyframerate>0</keyframerate>
																								<datarate>0</datarate>
																							</qtcodec>
																						</data>
																					</appspecificdata>
																				</codec>
																				<width>1920</width>
																				<height>1080</height>
																				<anamorphic>FALSE</anamorphic>
																				<pixelaspectratio>square</pixelaspectratio>
																				<fielddominance>none</fielddominance>
																				<colordepth>24</colordepth>
																			</samplecharacteristics>
																		</format>
																		<track TL.SQTrackShy="0" TL.SQTrackExpandedHeight="25" TL.SQTrackExpanded="0" MZ.TrackTargeted="1">
																			<generatoritem id="clipitem-215">
																				<name>Do Not Delete</name>
																				<enabled>TRUE</enabled>
																				<duration>1294705</duration>
																				<start>0</start>
																				<end>149</end>
																				<in>107892</in>
																				<out>108041</out>
																				<rate>
																					<timebase>30</timebase>
																					<ntsc>TRUE</ntsc>
																				</rate>
																				<effect>
																					<name>Color</name>
																					<effectid>Color</effectid>
																					<effectcategory>Matte</effectcategory>
																					<effecttype>generator</effecttype>
																					<mediatype>video</mediatype>
																					<parameter authoringApp="PremierePro">
																						<parameterid>fillcolor</parameterid>
																						<name>Color</name>
																						<value>
																							<alpha>0</alpha>
																							<red>0</red>
																							<green>0</green>
																							<blue>0</blue>
																						</value>
																					</parameter>
																				</effect>
																			</generatoritem>
																			<enabled>TRUE</enabled>
																			<locked>FALSE</locked>
																		</track>
																	</video>
																	<audio>
																		<numOutputChannels>2</numOutputChannels>
																		<format>
																			<samplecharacteristics>
																				<depth>16</depth>
																				<samplerate>48000</samplerate>
																			</samplecharacteristics>
																		</format>
																		<outputs>
																			<group>
																				<index>1</index>
																				<numchannels>1</numchannels>
																				<downmix>0</downmix>
																				<channel>
																					<index>1</index>
																				</channel>
																			</group>
																			<group>
																				<index>2</index>
																				<numchannels>1</numchannels>
																				<downmix>0</downmix>
																				<channel>
																					<index>2</index>
																				</channel>
																			</group>
																		</outputs>
																		<track TL.SQTrackAudioKeyframeStyle="0" TL.SQTrackShy="0" TL.SQTrackExpandedHeight="50" TL.SQTrackExpanded="1" MZ.TrackTargeted="1" PannerCurrentValue="0.5" PannerIsInverted="true" PannerStartKeyframe="-91445760000000000,0.5,0,0,0,0,0,0" PannerName="Balance" currentExplodedTrackIndex="0" totalExplodedTrackCount="2" premiereTrackType="Stereo">
																			<enabled>TRUE</enabled>
																			<locked>FALSE</locked>
																			<outputchannelindex>1</outputchannelindex>
																		</track>
																		<track TL.SQTrackAudioKeyframeStyle="0" TL.SQTrackShy="0" TL.SQTrackExpandedHeight="50" TL.SQTrackExpanded="1" MZ.TrackTargeted="1" PannerCurrentValue="0.5" PannerIsInverted="true" PannerStartKeyframe="-91445760000000000,0.5,0,0,0,0,0,0" PannerName="Balance" currentExplodedTrackIndex="1" totalExplodedTrackCount="2" premiereTrackType="Stereo">
																			<enabled>TRUE</enabled>
																			<locked>FALSE</locked>
																			<outputchannelindex>2</outputchannelindex>
																		</track>
																	</audio>
																</media>
																<timecode>
																	<rate>
																		<timebase>30</timebase>
																		<ntsc>TRUE</ntsc>
																	</rate>
																	<string>00;00;00;00</string>
																	<frame>0</frame>
																	<displayformat>DF</displayformat>
																</timecode>
																	<marker>
																		<comment></comment>
																		<name></name>
																		<in>20</in>
																		<out>-1</out>
																	</marker>
																<logginginfo>
																	<description></description>
																	<scene></scene>
																	<shottake></shottake>
																	<lognote></lognote>
																	<good></good>
																	<originalvideofilename></originalvideofilename>
																	<originalaudiofilename></originalaudiofilename>
																</logginginfo>
															</sequence>
																<marker>
																	<comment></comment>
																	<name></name>
																	<in>20</in>
																	<out>-1</out>
																</marker>
															<labels>
																<label2>Iris</label2>
															</labels>
														</clipitem>
														<clipitem id="clipitem-216">
															<masterclipid>masterclip-159</masterclipid>
															<name>02 Zoom In - Quick / Transform In</name>
															<enabled>TRUE</enabled>
															<duration>1294705</duration>
															<rate>
																<timebase>30</timebase>
																<ntsc>TRUE</ntsc>
															</rate>
															<start>9</start>
															<end>17</end>
															<in>0</in>
															<out>8</out>
															<pproTicksIn>0</pproTicksIn>
															<pproTicksOut>67805337600</pproTicksOut>
															<sequence id="sequence-8" TL.SQAudioVisibleBase="0" TL.SQVideoVisibleBase="0" TL.SQVisibleBaseTime="0" TL.SQAVDividerPosition="0.5" TL.SQHideShyTracks="0" TL.SQHeaderWidth="236" Monitor.ProgramZoomOut="1262874412800" Monitor.ProgramZoomIn="0" TL.SQTimePerPixel="0.054505813953484999" MZ.EditLine="372929356800" MZ.Sequence.PreviewFrameSizeHeight="1080" MZ.Sequence.PreviewFrameSizeWidth="1920" MZ.Sequence.AudioTimeDisplayFormat="200" MZ.Sequence.PreviewRenderingClassID="1297106761" MZ.Sequence.PreviewRenderingPresetCodec="1297107278" MZ.Sequence.PreviewRenderingPresetPath="EncoderPresets\SequencePreview\cc7991f5-c236-4db1-957e-2c71f924e81c\I-Frame Only MPEG.epr" MZ.Sequence.PreviewUseMaxRenderQuality="false" MZ.Sequence.PreviewUseMaxBitDepth="false" MZ.Sequence.EditingModeGUID="cc7991f5-c236-4db1-957e-2c71f924e81c" MZ.Sequence.VideoTimeDisplayFormat="102" MZ.WorkOutPoint="10973488702176000" MZ.WorkInPoint="0">
																<duration>149</duration>
																<rate>
																	<timebase>30</timebase>
																	<ntsc>TRUE</ntsc>
																</rate>
																<name>Do Not Delete 2</name>
																<media>
																	<video>
																		<format>
																			<samplecharacteristics>
																				<rate>
																					<timebase>30</timebase>
																					<ntsc>TRUE</ntsc>
																				</rate>
																				<codec>
																					<name>Apple ProRes 422</name>
																					<appspecificdata>
																						<appname>Final Cut Pro</appname>
																						<appmanufacturer>Apple Inc.</appmanufacturer>
																						<appversion>7.0</appversion>
																						<data>
																							<qtcodec>
																								<codecname>Apple ProRes 422</codecname>
																								<codectypename>Apple ProRes 422</codectypename>
																								<codectypecode>apcn</codectypecode>
																								<codecvendorcode>appl</codecvendorcode>
																								<spatialquality>1024</spatialquality>
																								<temporalquality>0</temporalquality>
																								<keyframerate>0</keyframerate>
																								<datarate>0</datarate>
																							</qtcodec>
																						</data>
																					</appspecificdata>
																				</codec>
																				<width>1920</width>
																				<height>1080</height>
																				<anamorphic>FALSE</anamorphic>
																				<pixelaspectratio>square</pixelaspectratio>
																				<fielddominance>none</fielddominance>
																				<colordepth>24</colordepth>
																			</samplecharacteristics>
																		</format>
																		<track TL.SQTrackShy="0" TL.SQTrackExpandedHeight="25" TL.SQTrackExpanded="0" MZ.TrackTargeted="1">
																			<generatoritem id="clipitem-217">
																				<name>Do Not Delete</name>
																				<enabled>TRUE</enabled>
																				<duration>1294705</duration>
																				<start>0</start>
																				<end>149</end>
																				<in>107892</in>
																				<out>108041</out>
																				<rate>
																					<timebase>30</timebase>
																					<ntsc>TRUE</ntsc>
																				</rate>
																				<effect>
																					<name>Color</name>
																					<effectid>Color</effectid>
																					<effectcategory>Matte</effectcategory>
																					<effecttype>generator</effecttype>
																					<mediatype>video</mediatype>
																					<parameter authoringApp="PremierePro">
																						<parameterid>fillcolor</parameterid>
																						<name>Color</name>
																						<value>
																							<alpha>0</alpha>
																							<red>0</red>
																							<green>0</green>
																							<blue>0</blue>
																						</value>
																					</parameter>
																				</effect>
																			</generatoritem>
																			<enabled>TRUE</enabled>
																			<locked>FALSE</locked>
																		</track>
																	</video>
																	<audio>
																		<numOutputChannels>2</numOutputChannels>
																		<format>
																			<samplecharacteristics>
																				<depth>16</depth>
																				<samplerate>48000</samplerate>
																			</samplecharacteristics>
																		</format>
																		<outputs>
																			<group>
																				<index>1</index>
																				<numchannels>1</numchannels>
																				<downmix>0</downmix>
																				<channel>
																					<index>1</index>
																				</channel>
																			</group>
																			<group>
																				<index>2</index>
																				<numchannels>1</numchannels>
																				<downmix>0</downmix>
																				<channel>
																					<index>2</index>
																				</channel>
																			</group>
																		</outputs>
																		<track TL.SQTrackAudioKeyframeStyle="0" TL.SQTrackShy="0" TL.SQTrackExpandedHeight="50" TL.SQTrackExpanded="1" MZ.TrackTargeted="1" PannerCurrentValue="0.5" PannerIsInverted="true" PannerStartKeyframe="-91445760000000000,0.5,0,0,0,0,0,0" PannerName="Balance" currentExplodedTrackIndex="0" totalExplodedTrackCount="2" premiereTrackType="Stereo">
																			<enabled>TRUE</enabled>
																			<locked>FALSE</locked>
																			<outputchannelindex>1</outputchannelindex>
																		</track>
																		<track TL.SQTrackAudioKeyframeStyle="0" TL.SQTrackShy="0" TL.SQTrackExpandedHeight="50" TL.SQTrackExpanded="1" MZ.TrackTargeted="1" PannerCurrentValue="0.5" PannerIsInverted="true" PannerStartKeyframe="-91445760000000000,0.5,0,0,0,0,0,0" PannerName="Balance" currentExplodedTrackIndex="1" totalExplodedTrackCount="2" premiereTrackType="Stereo">
																			<enabled>TRUE</enabled>
																			<locked>FALSE</locked>
																			<outputchannelindex>2</outputchannelindex>
																		</track>
																	</audio>
																</media>
																<timecode>
																	<rate>
																		<timebase>30</timebase>
																		<ntsc>TRUE</ntsc>
																	</rate>
																	<string>00;00;00;00</string>
																	<frame>0</frame>
																	<displayformat>DF</displayformat>
																</timecode>
																<logginginfo>
																	<description></description>
																	<scene></scene>
																	<shottake></shottake>
																	<lognote></lognote>
																	<good></good>
																	<originalvideofilename></originalvideofilename>
																	<originalaudiofilename></originalaudiofilename>
																</logginginfo>
															</sequence>
															<labels>
																<label2>Iris</label2>
															</labels>
														</clipitem>
														<clipitem id="clipitem-218">
															<masterclipid>masterclip-157</masterclipid>
															<name>03 Zoom Out - Quick / Transform Out</name>
															<enabled>TRUE</enabled>
															<duration>1294705</duration>
															<rate>
																<timebase>30</timebase>
																<ntsc>TRUE</ntsc>
															</rate>
															<start>135</start>
															<end>144</end>
															<in>0</in>
															<out>9</out>
															<pproTicksIn>0</pproTicksIn>
															<pproTicksOut>76281004800</pproTicksOut>
															<sequence id="sequence-7"/>
																<marker>
																	<comment></comment>
																	<name></name>
																	<in>20</in>
																	<out>-1</out>
																</marker>
															<labels>
																<label2>Iris</label2>
															</labels>
														</clipitem>
														<clipitem id="clipitem-219">
															<masterclipid>masterclip-159</masterclipid>
															<name>03 Zoom Out - Quick / Transform In</name>
															<enabled>TRUE</enabled>
															<duration>1294705</duration>
															<rate>
																<timebase>30</timebase>
																<ntsc>TRUE</ntsc>
															</rate>
															<start>144</start>
															<end>153</end>
															<in>0</in>
															<out>9</out>
															<pproTicksIn>0</pproTicksIn>
															<pproTicksOut>76281004800</pproTicksOut>
															<sequence id="sequence-8"/>
															<filter>
																<effect>
																	<name>Basic Motion</name>
																	<effectid>basic</effectid>
																	<effectcategory>motion</effectcategory>
																	<effecttype>motion</effecttype>
																	<mediatype>video</mediatype>
																	<pproBypass>false</pproBypass>
																	<parameter authoringApp="PremierePro">
																		<parameterid>scale</parameterid>
																		<name>Scale</name>
																		<valuemin>0</valuemin>
																		<valuemax>1000</valuemax>
																		<value>100</value>
																	</parameter>
																	<parameter authoringApp="PremierePro">
																		<parameterid>rotation</parameterid>
																		<name>Rotation</name>
																		<valuemin>-8640</valuemin>
																		<valuemax>8640</valuemax>
																		<value>0</value>
																	</parameter>
																	<parameter authoringApp="PremierePro">
																		<parameterid>center</parameterid>
																		<name>Center</name>
																		<value>
																			<horiz>-0.5</horiz>
																			<vert>-0.499394</vert>
																		</value>
																	</parameter>
																	<parameter authoringApp="PremierePro">
																		<parameterid>centerOffset</parameterid>
																		<name>Anchor Point</name>
																		<value>
																			<horiz>0</horiz>
																			<vert>-0.00060606</vert>
																		</value>
																	</parameter>
																	<parameter authoringApp="PremierePro">
																		<parameterid>antiflicker</parameterid>
																		<name>Anti-flicker Filter</name>
																		<valuemin>0.0</valuemin>
																		<valuemax>1.0</valuemax>
																		<value>0</value>
																	</parameter>
																</effect>
															</filter>
															<labels>
																<label2>Iris</label2>
															</labels>
														</clipitem>
														<enabled>TRUE</enabled>
														<locked>FALSE</locked>
													</track>
													<track TL.SQTrackShy="0" TL.SQTrackExpandedHeight="25" TL.SQTrackExpanded="0" MZ.TrackTargeted="0">
														<enabled>TRUE</enabled>
														<locked>FALSE</locked>
													</track>
												</video>
												<audio>
													<numOutputChannels>2</numOutputChannels>
													<format>
														<samplecharacteristics>
															<depth>16</depth>
															<samplerate>32000</samplerate>
														</samplecharacteristics>
													</format>
													<outputs>
														<group>
															<index>1</index>
															<numchannels>1</numchannels>
															<downmix>0</downmix>
															<channel>
																<index>1</index>
															</channel>
														</group>
														<group>
															<index>2</index>
															<numchannels>1</numchannels>
															<downmix>0</downmix>
															<channel>
																<index>2</index>
															</channel>
														</group>
													</outputs>
													<track TL.SQTrackAudioKeyframeStyle="0" TL.SQTrackShy="0" TL.SQTrackExpandedHeight="25" TL.SQTrackExpanded="0" MZ.TrackTargeted="1" PannerCurrentValue="0.5" PannerIsInverted="true" PannerStartKeyframe="-91445760000000000,0.5,0,0,0,0,0,0" PannerName="Balance" currentExplodedTrackIndex="0" totalExplodedTrackCount="2" premiereTrackType="Stereo">
														<clipitem id="clipitem-220" premiereChannelType="stereo">
															<masterclipid>masterclip-156</masterclipid>
															<name>ATM_DRONE_TRANS_B.mov</name>
															<enabled>TRUE</enabled>
															<duration>155</duration>
															<rate>
																<timebase>30</timebase>
																<ntsc>TRUE</ntsc>
															</rate>
															<start>0</start>
															<end>155</end>
															<in>0</in>
															<out>155</out>
															<pproTicksIn>0</pproTicksIn>
															<pproTicksOut>1313728416000</pproTicksOut>
															<file id="file-152"/>
															<sourcetrack>
																<mediatype>audio</mediatype>
																<trackindex>1</trackindex>
															</sourcetrack>
															<filter>
																<effect>
																	<name>Gain</name>
																	<effectid>{61756678, 4761696e, 4b657947}</effectid>
																	<effecttype>filter</effecttype>
																	<mediatype>audio</mediatype>
																	<parameter authoringApp="PremierePro">
																		<parameterid>Gain(dB)</parameterid>
																		<name>Gain(dB)</name>
																		<valuemin>-96</valuemin>
																		<valuemax>96</valuemax>
																		<value>-9</value>
																	</parameter>
																</effect>
															</filter>
															<link>
																<linkclipref>clipitem-220</linkclipref>
																<mediatype>audio</mediatype>
																<trackindex>1</trackindex>
																<clipindex>1</clipindex>
																<groupindex>1</groupindex>
															</link>
															<link>
																<linkclipref>clipitem-221</linkclipref>
																<mediatype>audio</mediatype>
																<trackindex>2</trackindex>
																<clipindex>1</clipindex>
																<groupindex>1</groupindex>
															</link>
															<logginginfo>
																<description></description>
																<scene></scene>
																<shottake></shottake>
																<lognote></lognote>
																<good></good>
																<originalvideofilename></originalvideofilename>
																<originalaudiofilename></originalaudiofilename>
															</logginginfo>
															<colorinfo>
																<lut></lut>
																<lut1></lut1>
																<asc_sop></asc_sop>
																<asc_sat></asc_sat>
																<lut2></lut2>
															</colorinfo>
															<labels>
																<label2>Iris</label2>
															</labels>
														</clipitem>
														<enabled>TRUE</enabled>
														<locked>FALSE</locked>
														<outputchannelindex>1</outputchannelindex>
													</track>
													<track TL.SQTrackAudioKeyframeStyle="0" TL.SQTrackShy="0" TL.SQTrackExpandedHeight="25" TL.SQTrackExpanded="0" MZ.TrackTargeted="1" PannerCurrentValue="0.5" PannerIsInverted="true" PannerStartKeyframe="-91445760000000000,0.5,0,0,0,0,0,0" PannerName="Balance" currentExplodedTrackIndex="1" totalExplodedTrackCount="2" premiereTrackType="Stereo">
														<clipitem id="clipitem-221" premiereChannelType="stereo">
															<masterclipid>masterclip-156</masterclipid>
															<name>ATM_DRONE_TRANS_B.mov</name>
															<enabled>TRUE</enabled>
															<duration>155</duration>
															<rate>
																<timebase>30</timebase>
																<ntsc>TRUE</ntsc>
															</rate>
															<start>0</start>
															<end>155</end>
															<in>0</in>
															<out>155</out>
															<pproTicksIn>0</pproTicksIn>
															<pproTicksOut>1313728416000</pproTicksOut>
															<file id="file-152"/>
															<sourcetrack>
																<mediatype>audio</mediatype>
																<trackindex>2</trackindex>
															</sourcetrack>
															<filter>
																<effect>
																	<name>Gain</name>
																	<effectid>{61756678, 4761696e, 4b657947}</effectid>
																	<effecttype>filter</effecttype>
																	<mediatype>audio</mediatype>
																	<parameter authoringApp="PremierePro">
																		<parameterid>Gain(dB)</parameterid>
																		<name>Gain(dB)</name>
																		<valuemin>-96</valuemin>
																		<valuemax>96</valuemax>
																		<value>-9</value>
																	</parameter>
																</effect>
															</filter>
															<link>
																<linkclipref>clipitem-220</linkclipref>
																<mediatype>audio</mediatype>
																<trackindex>1</trackindex>
																<clipindex>1</clipindex>
																<groupindex>1</groupindex>
															</link>
															<link>
																<linkclipref>clipitem-221</linkclipref>
																<mediatype>audio</mediatype>
																<trackindex>2</trackindex>
																<clipindex>1</clipindex>
																<groupindex>1</groupindex>
															</link>
															<logginginfo>
																<description></description>
																<scene></scene>
																<shottake></shottake>
																<lognote></lognote>
																<good></good>
																<originalvideofilename></originalvideofilename>
																<originalaudiofilename></originalaudiofilename>
															</logginginfo>
															<colorinfo>
																<lut></lut>
																<lut1></lut1>
																<asc_sop></asc_sop>
																<asc_sat></asc_sat>
																<lut2></lut2>
															</colorinfo>
															<labels>
																<label2>Iris</label2>
															</labels>
														</clipitem>
														<enabled>TRUE</enabled>
														<locked>FALSE</locked>
														<outputchannelindex>2</outputchannelindex>
													</track>
													<track TL.SQTrackAudioKeyframeStyle="0" TL.SQTrackShy="0" TL.SQTrackExpandedHeight="25" TL.SQTrackExpanded="0" MZ.TrackTargeted="1" PannerCurrentValue="0.5" PannerIsInverted="true" PannerStartKeyframe="-91445760000000000,0.5,0,0,0,0,0,0" PannerName="Balance" currentExplodedTrackIndex="0" totalExplodedTrackCount="2" premiereTrackType="Stereo">
														<enabled>TRUE</enabled>
														<locked>FALSE</locked>
														<outputchannelindex>1</outputchannelindex>
													</track>
													<track TL.SQTrackAudioKeyframeStyle="0" TL.SQTrackShy="0" TL.SQTrackExpandedHeight="25" TL.SQTrackExpanded="0" MZ.TrackTargeted="1" PannerCurrentValue="0.5" PannerIsInverted="true" PannerStartKeyframe="-91445760000000000,0.5,0,0,0,0,0,0" PannerName="Balance" currentExplodedTrackIndex="1" totalExplodedTrackCount="2" premiereTrackType="Stereo">
														<enabled>TRUE</enabled>
														<locked>FALSE</locked>
														<outputchannelindex>2</outputchannelindex>
													</track>
													<track TL.SQTrackAudioKeyframeStyle="0" TL.SQTrackShy="0" TL.SQTrackExpandedHeight="25" TL.SQTrackExpanded="0" MZ.TrackTargeted="1" PannerCurrentValue="0.5" PannerIsInverted="true" PannerStartKeyframe="-91445760000000000,0.5,0,0,0,0,0,0" PannerName="Balance" currentExplodedTrackIndex="0" totalExplodedTrackCount="2" premiereTrackType="Stereo">
														<enabled>TRUE</enabled>
														<locked>FALSE</locked>
														<outputchannelindex>1</outputchannelindex>
													</track>
													<track TL.SQTrackAudioKeyframeStyle="0" TL.SQTrackShy="0" TL.SQTrackExpandedHeight="25" TL.SQTrackExpanded="0" MZ.TrackTargeted="1" PannerCurrentValue="0.5" PannerIsInverted="true" PannerStartKeyframe="-91445760000000000,0.5,0,0,0,0,0,0" PannerName="Balance" currentExplodedTrackIndex="1" totalExplodedTrackCount="2" premiereTrackType="Stereo">
														<enabled>TRUE</enabled>
														<locked>FALSE</locked>
														<outputchannelindex>2</outputchannelindex>
													</track>
												</audio>
											</media>
											<timecode>
												<rate>
													<timebase>30</timebase>
													<ntsc>TRUE</ntsc>
												</rate>
												<string>00;00;00;00</string>
												<frame>0</frame>
												<displayformat>DF</displayformat>
											</timecode>
												<marker>
													<comment></comment>
													<name></name>
													<in>9</in>
													<out>-1</out>
													<pproColor>4281828977</pproColor>
												</marker>
												<marker>
													<comment></comment>
													<name></name>
													<in>144</in>
													<out>-1</out>
													<pproColor>4281828977</pproColor>
												</marker>
											<logginginfo>
												<description></description>
												<scene></scene>
												<shottake></shottake>
												<lognote></lognote>
												<good></good>
												<originalvideofilename></originalvideofilename>
												<originalaudiofilename></originalaudiofilename>
											</logginginfo>
										</sequence>
											<marker>
												<comment></comment>
												<name></name>
												<in>9</in>
												<out>-1</out>
												<pproColor>4281828977</pproColor>
											</marker>
											<marker>
												<comment></comment>
												<name></name>
												<in>144</in>
												<out>-1</out>
												<pproColor>4281828977</pproColor>
											</marker>
										<link>
											<linkclipref>clipitem-212</linkclipref>
											<mediatype>video</mediatype>
											<trackindex>5</trackindex>
											<clipindex>1</clipindex>
										</link>
										<link>
											<linkclipref>clipitem-234</linkclipref>
											<mediatype>audio</mediatype>
											<trackindex>9</trackindex>
											<clipindex>1</clipindex>
											<groupindex>1</groupindex>
										</link>
										<link>
											<linkclipref>clipitem-236</linkclipref>
											<mediatype>audio</mediatype>
											<trackindex>10</trackindex>
											<clipindex>1</clipindex>
											<groupindex>1</groupindex>
										</link>
										<labels>
											<label2>Tan</label2>
										</labels>
									</clipitem>
									<clipitem id="clipitem-222">
										<masterclipid>masterclip-160</masterclipid>
										<name>Trans D</name>
										<enabled>TRUE</enabled>
										<duration>5697</duration>
										<rate>
											<timebase>30</timebase>
											<ntsc>TRUE</ntsc>
										</rate>
										<start>5448</start>
										<end>5688</end>
										<in>0</in>
										<out>240</out>
										<pproTicksIn>0</pproTicksIn>
										<pproTicksOut>2034160128000</pproTicksOut>
										<sequence id="sequence-9" TL.SQAudioVisibleBase="0" TL.SQVideoVisibleBase="0" TL.SQVisibleBaseTime="0" TL.SQAVDividerPosition="0.5" TL.SQHideShyTracks="0" TL.SQHeaderWidth="236" Monitor.ProgramZoomOut="2034160128000" Monitor.ProgramZoomIn="0" TL.SQTimePerPixel="0.002482710581934275" MZ.EditLine="76281004800" MZ.Sequence.PreviewFrameSizeHeight="1080" MZ.Sequence.PreviewFrameSizeWidth="1920" MZ.Sequence.AudioTimeDisplayFormat="200" MZ.Sequence.PreviewRenderingClassID="1297106761" MZ.Sequence.PreviewRenderingPresetCodec="1297107278" MZ.Sequence.PreviewRenderingPresetPath="EncoderPresets/SequencePreview/795454d9-d3c2-429d-9474-923ab13b7018/I-Frame Only MPEG.epr" MZ.Sequence.PreviewUseMaxRenderQuality="false" MZ.Sequence.PreviewUseMaxBitDepth="false" MZ.Sequence.EditingModeGUID="795454d9-d3c2-429d-9474-923ab13b7018" MZ.Sequence.VideoTimeDisplayFormat="102" MZ.WorkOutPoint="15239249625600" MZ.WorkInPoint="0">
											<duration>240</duration>
											<rate>
												<timebase>30</timebase>
												<ntsc>TRUE</ntsc>
											</rate>
											<name>Trans D</name>
											<media>
												<video>
													<format>
														<samplecharacteristics>
															<rate>
																<timebase>30</timebase>
																<ntsc>TRUE</ntsc>
															</rate>
															<codec>
																<name>Apple ProRes 422</name>
																<appspecificdata>
																	<appname>Final Cut Pro</appname>
																	<appmanufacturer>Apple Inc.</appmanufacturer>
																	<appversion>7.0</appversion>
																	<data>
																		<qtcodec>
																			<codecname>Apple ProRes 422</codecname>
																			<codectypename>Apple ProRes 422</codectypename>
																			<codectypecode>apcn</codectypecode>
																			<codecvendorcode>appl</codecvendorcode>
																			<spatialquality>1024</spatialquality>
																			<temporalquality>0</temporalquality>
																			<keyframerate>0</keyframerate>
																			<datarate>0</datarate>
																		</qtcodec>
																	</data>
																</appspecificdata>
															</codec>
															<width>1920</width>
															<height>1080</height>
															<anamorphic>FALSE</anamorphic>
															<pixelaspectratio>square</pixelaspectratio>
															<fielddominance>none</fielddominance>
															<colordepth>24</colordepth>
														</samplecharacteristics>
													</format>
													<track TL.SQTrackShy="0" TL.SQTrackExpandedHeight="25" TL.SQTrackExpanded="0" MZ.TrackTargeted="1">
														<clipitem id="clipitem-223">
															<masterclipid>masterclip-161</masterclipid>
															<name>ATM_DRONE_TRANS_D.mov</name>
															<enabled>TRUE</enabled>
															<duration>240</duration>
															<rate>
																<timebase>30</timebase>
																<ntsc>TRUE</ntsc>
															</rate>
															<start>9</start>
															<end>229</end>
															<in>12</in>
															<out>232</out>
															<pproTicksIn>101708006400</pproTicksIn>
															<pproTicksOut>1966354790400</pproTicksOut>
															<alphatype>straight</alphatype>
															<pixelaspectratio>square</pixelaspectratio>
															<anamorphic>FALSE</anamorphic>
															<file id="file-153">
																<name>ATM_DRONE_TRANS_D.mov</name>
																<pathurl>file://localhost/Volumes/T7/DRONE_08.18.2023/4_Project%20Files/Drone%202023%20Master%20Assets/02_Transitions/DRONE%20transitions%20(30fps)/ATM_DRONE_TRANS_D.mov</pathurl>
																<rate>
																	<timebase>30</timebase>
																	<ntsc>TRUE</ntsc>
																</rate>
																<duration>240</duration>
																<timecode>
																	<rate>
																		<timebase>30</timebase>
																		<ntsc>TRUE</ntsc>
																	</rate>
																	<string>00;00;44;26</string>
																	<frame>1346</frame>
																	<displayformat>DF</displayformat>
																</timecode>
																<media>
																	<video>
																		<samplecharacteristics>
																			<rate>
																				<timebase>30</timebase>
																				<ntsc>TRUE</ntsc>
																			</rate>
																			<width>1920</width>
																			<height>1080</height>
																			<anamorphic>FALSE</anamorphic>
																			<pixelaspectratio>square</pixelaspectratio>
																			<fielddominance>none</fielddominance>
																		</samplecharacteristics>
																	</video>
																	<audio>
																		<samplecharacteristics>
																			<depth>16</depth>
																			<samplerate>48000</samplerate>
																		</samplecharacteristics>
																		<channelcount>2</channelcount>
																	</audio>
																</media>
															</file>
															<logginginfo>
																<description></description>
																<scene></scene>
																<shottake></shottake>
																<lognote></lognote>
																<good></good>
																<originalvideofilename></originalvideofilename>
																<originalaudiofilename></originalaudiofilename>
															</logginginfo>
															<colorinfo>
																<lut></lut>
																<lut1></lut1>
																<asc_sop></asc_sop>
																<asc_sat></asc_sat>
																<lut2></lut2>
															</colorinfo>
															<labels>
																<label2>Iris</label2>
															</labels>
														</clipitem>
														<enabled>TRUE</enabled>
														<locked>FALSE</locked>
													</track>
													<track TL.SQTrackShy="0" TL.SQTrackExpandedHeight="25" TL.SQTrackExpanded="0" MZ.TrackTargeted="0">
														<clipitem id="clipitem-224">
															<masterclipid>masterclip-157</masterclipid>
															<name>02 Zoom In - Quick / Transform Out</name>
															<enabled>TRUE</enabled>
															<duration>1294705</duration>
															<rate>
																<timebase>30</timebase>
																<ntsc>TRUE</ntsc>
															</rate>
															<start>0</start>
															<end>9</end>
															<in>0</in>
															<out>9</out>
															<pproTicksIn>0</pproTicksIn>
															<pproTicksOut>76281004800</pproTicksOut>
															<sequence id="sequence-7"/>
																<marker>
																	<comment></comment>
																	<name></name>
																	<in>20</in>
																	<out>-1</out>
																</marker>
															<labels>
																<label2>Iris</label2>
															</labels>
														</clipitem>
														<clipitem id="clipitem-225">
															<masterclipid>masterclip-159</masterclipid>
															<name>02 Zoom In - Quick / Transform In</name>
															<enabled>TRUE</enabled>
															<duration>1294705</duration>
															<rate>
																<timebase>30</timebase>
																<ntsc>TRUE</ntsc>
															</rate>
															<start>9</start>
															<end>17</end>
															<in>0</in>
															<out>8</out>
															<pproTicksIn>0</pproTicksIn>
															<pproTicksOut>67805337600</pproTicksOut>
															<sequence id="sequence-8"/>
															<labels>
																<label2>Iris</label2>
															</labels>
														</clipitem>
														<clipitem id="clipitem-226">
															<masterclipid>masterclip-157</masterclipid>
															<name>03 Zoom Out - Quick / Transform Out</name>
															<enabled>TRUE</enabled>
															<duration>1294705</duration>
															<rate>
																<timebase>30</timebase>
																<ntsc>TRUE</ntsc>
															</rate>
															<start>220</start>
															<end>229</end>
															<in>0</in>
															<out>9</out>
															<pproTicksIn>0</pproTicksIn>
															<pproTicksOut>76281004800</pproTicksOut>
															<sequence id="sequence-7"/>
																<marker>
																	<comment></comment>
																	<name></name>
																	<in>20</in>
																	<out>-1</out>
																</marker>
															<labels>
																<label2>Iris</label2>
															</labels>
														</clipitem>
														<clipitem id="clipitem-227">
															<masterclipid>masterclip-159</masterclipid>
															<name>03 Zoom Out - Quick / Transform In</name>
															<enabled>TRUE</enabled>
															<duration>1294705</duration>
															<rate>
																<timebase>30</timebase>
																<ntsc>TRUE</ntsc>
															</rate>
															<start>229</start>
															<end>238</end>
															<in>0</in>
															<out>9</out>
															<pproTicksIn>0</pproTicksIn>
															<pproTicksOut>76281004800</pproTicksOut>
															<sequence id="sequence-8"/>
															<filter>
																<effect>
																	<name>Basic Motion</name>
																	<effectid>basic</effectid>
																	<effectcategory>motion</effectcategory>
																	<effecttype>motion</effecttype>
																	<mediatype>video</mediatype>
																	<pproBypass>false</pproBypass>
																	<parameter authoringApp="PremierePro">
																		<parameterid>scale</parameterid>
																		<name>Scale</name>
																		<valuemin>0</valuemin>
																		<valuemax>1000</valuemax>
																		<value>100</value>
																	</parameter>
																	<parameter authoringApp="PremierePro">
																		<parameterid>rotation</parameterid>
																		<name>Rotation</name>
																		<valuemin>-8640</valuemin>
																		<valuemax>8640</valuemax>
																		<value>0</value>
																	</parameter>
																	<parameter authoringApp="PremierePro">
																		<parameterid>center</parameterid>
																		<name>Center</name>
																		<value>
																			<horiz>-0.5</horiz>
																			<vert>-0.499394</vert>
																		</value>
																	</parameter>
																	<parameter authoringApp="PremierePro">
																		<parameterid>centerOffset</parameterid>
																		<name>Anchor Point</name>
																		<value>
																			<horiz>0</horiz>
																			<vert>-0.00060606</vert>
																		</value>
																	</parameter>
																	<parameter authoringApp="PremierePro">
																		<parameterid>antiflicker</parameterid>
																		<name>Anti-flicker Filter</name>
																		<valuemin>0.0</valuemin>
																		<valuemax>1.0</valuemax>
																		<value>0</value>
																	</parameter>
																</effect>
															</filter>
															<labels>
																<label2>Iris</label2>
															</labels>
														</clipitem>
														<enabled>TRUE</enabled>
														<locked>FALSE</locked>
													</track>
													<track TL.SQTrackShy="0" TL.SQTrackExpandedHeight="25" TL.SQTrackExpanded="0" MZ.TrackTargeted="0">
														<enabled>TRUE</enabled>
														<locked>FALSE</locked>
													</track>
												</video>
												<audio>
													<numOutputChannels>2</numOutputChannels>
													<format>
														<samplecharacteristics>
															<depth>16</depth>
															<samplerate>32000</samplerate>
														</samplecharacteristics>
													</format>
													<outputs>
														<group>
															<index>1</index>
															<numchannels>1</numchannels>
															<downmix>0</downmix>
															<channel>
																<index>1</index>
															</channel>
														</group>
														<group>
															<index>2</index>
															<numchannels>1</numchannels>
															<downmix>0</downmix>
															<channel>
																<index>2</index>
															</channel>
														</group>
													</outputs>
													<track TL.SQTrackAudioKeyframeStyle="0" TL.SQTrackShy="0" TL.SQTrackExpandedHeight="25" TL.SQTrackExpanded="0" MZ.TrackTargeted="1" PannerCurrentValue="0.5" PannerIsInverted="true" PannerStartKeyframe="-91445760000000000,0.5,0,0,0,0,0,0" PannerName="Balance" currentExplodedTrackIndex="0" totalExplodedTrackCount="2" premiereTrackType="Stereo">
														<clipitem id="clipitem-228" premiereChannelType="stereo">
															<masterclipid>masterclip-161</masterclipid>
															<name>ATM_DRONE_TRANS_D.mov</name>
															<enabled>TRUE</enabled>
															<duration>240</duration>
															<rate>
																<timebase>30</timebase>
																<ntsc>TRUE</ntsc>
															</rate>
															<start>0</start>
															<end>240</end>
															<in>0</in>
															<out>240</out>
															<pproTicksIn>0</pproTicksIn>
															<pproTicksOut>2034160128000</pproTicksOut>
															<file id="file-153"/>
															<sourcetrack>
																<mediatype>audio</mediatype>
																<trackindex>1</trackindex>
															</sourcetrack>
															<filter>
																<effect>
																	<name>Gain</name>
																	<effectid>{61756678, 4761696e, 4b657947}</effectid>
																	<effecttype>filter</effecttype>
																	<mediatype>audio</mediatype>
																	<parameter authoringApp="PremierePro">
																		<parameterid>Gain(dB)</parameterid>
																		<name>Gain(dB)</name>
																		<valuemin>-96</valuemin>
																		<valuemax>96</valuemax>
																		<value>-9</value>
																	</parameter>
																</effect>
															</filter>
															<link>
																<linkclipref>clipitem-228</linkclipref>
																<mediatype>audio</mediatype>
																<trackindex>1</trackindex>
																<clipindex>1</clipindex>
																<groupindex>1</groupindex>
															</link>
															<link>
																<linkclipref>clipitem-229</linkclipref>
																<mediatype>audio</mediatype>
																<trackindex>2</trackindex>
																<clipindex>1</clipindex>
																<groupindex>1</groupindex>
															</link>
															<logginginfo>
																<description></description>
																<scene></scene>
																<shottake></shottake>
																<lognote></lognote>
																<good></good>
																<originalvideofilename></originalvideofilename>
																<originalaudiofilename></originalaudiofilename>
															</logginginfo>
															<colorinfo>
																<lut></lut>
																<lut1></lut1>
																<asc_sop></asc_sop>
																<asc_sat></asc_sat>
																<lut2></lut2>
															</colorinfo>
															<labels>
																<label2>Iris</label2>
															</labels>
														</clipitem>
														<enabled>TRUE</enabled>
														<locked>FALSE</locked>
														<outputchannelindex>1</outputchannelindex>
													</track>
													<track TL.SQTrackAudioKeyframeStyle="0" TL.SQTrackShy="0" TL.SQTrackExpandedHeight="25" TL.SQTrackExpanded="0" MZ.TrackTargeted="1" PannerCurrentValue="0.5" PannerIsInverted="true" PannerStartKeyframe="-91445760000000000,0.5,0,0,0,0,0,0" PannerName="Balance" currentExplodedTrackIndex="1" totalExplodedTrackCount="2" premiereTrackType="Stereo">
														<clipitem id="clipitem-229" premiereChannelType="stereo">
															<masterclipid>masterclip-161</masterclipid>
															<name>ATM_DRONE_TRANS_D.mov</name>
															<enabled>TRUE</enabled>
															<duration>240</duration>
															<rate>
																<timebase>30</timebase>
																<ntsc>TRUE</ntsc>
															</rate>
															<start>0</start>
															<end>240</end>
															<in>0</in>
															<out>240</out>
															<pproTicksIn>0</pproTicksIn>
															<pproTicksOut>2034160128000</pproTicksOut>
															<file id="file-153"/>
															<sourcetrack>
																<mediatype>audio</mediatype>
																<trackindex>2</trackindex>
															</sourcetrack>
															<filter>
																<effect>
																	<name>Gain</name>
																	<effectid>{61756678, 4761696e, 4b657947}</effectid>
																	<effecttype>filter</effecttype>
																	<mediatype>audio</mediatype>
																	<parameter authoringApp="PremierePro">
																		<parameterid>Gain(dB)</parameterid>
																		<name>Gain(dB)</name>
																		<valuemin>-96</valuemin>
																		<valuemax>96</valuemax>
																		<value>-9</value>
																	</parameter>
																</effect>
															</filter>
															<link>
																<linkclipref>clipitem-228</linkclipref>
																<mediatype>audio</mediatype>
																<trackindex>1</trackindex>
																<clipindex>1</clipindex>
																<groupindex>1</groupindex>
															</link>
															<link>
																<linkclipref>clipitem-229</linkclipref>
																<mediatype>audio</mediatype>
																<trackindex>2</trackindex>
																<clipindex>1</clipindex>
																<groupindex>1</groupindex>
															</link>
															<logginginfo>
																<description></description>
																<scene></scene>
																<shottake></shottake>
																<lognote></lognote>
																<good></good>
																<originalvideofilename></originalvideofilename>
																<originalaudiofilename></originalaudiofilename>
															</logginginfo>
															<colorinfo>
																<lut></lut>
																<lut1></lut1>
																<asc_sop></asc_sop>
																<asc_sat></asc_sat>
																<lut2></lut2>
															</colorinfo>
															<labels>
																<label2>Iris</label2>
															</labels>
														</clipitem>
														<enabled>TRUE</enabled>
														<locked>FALSE</locked>
														<outputchannelindex>2</outputchannelindex>
													</track>
													<track TL.SQTrackAudioKeyframeStyle="0" TL.SQTrackShy="0" TL.SQTrackExpandedHeight="25" TL.SQTrackExpanded="0" MZ.TrackTargeted="1" PannerCurrentValue="0.5" PannerIsInverted="true" PannerStartKeyframe="-91445760000000000,0.5,0,0,0,0,0,0" PannerName="Balance" currentExplodedTrackIndex="0" totalExplodedTrackCount="2" premiereTrackType="Stereo">
														<enabled>TRUE</enabled>
														<locked>FALSE</locked>
														<outputchannelindex>1</outputchannelindex>
													</track>
													<track TL.SQTrackAudioKeyframeStyle="0" TL.SQTrackShy="0" TL.SQTrackExpandedHeight="25" TL.SQTrackExpanded="0" MZ.TrackTargeted="1" PannerCurrentValue="0.5" PannerIsInverted="true" PannerStartKeyframe="-91445760000000000,0.5,0,0,0,0,0,0" PannerName="Balance" currentExplodedTrackIndex="1" totalExplodedTrackCount="2" premiereTrackType="Stereo">
														<enabled>TRUE</enabled>
														<locked>FALSE</locked>
														<outputchannelindex>2</outputchannelindex>
													</track>
													<track TL.SQTrackAudioKeyframeStyle="0" TL.SQTrackShy="0" TL.SQTrackExpandedHeight="25" TL.SQTrackExpanded="0" MZ.TrackTargeted="1" PannerCurrentValue="0.5" PannerIsInverted="true" PannerStartKeyframe="-91445760000000000,0.5,0,0,0,0,0,0" PannerName="Balance" currentExplodedTrackIndex="0" totalExplodedTrackCount="2" premiereTrackType="Stereo">
														<enabled>TRUE</enabled>
														<locked>FALSE</locked>
														<outputchannelindex>1</outputchannelindex>
													</track>
													<track TL.SQTrackAudioKeyframeStyle="0" TL.SQTrackShy="0" TL.SQTrackExpandedHeight="25" TL.SQTrackExpanded="0" MZ.TrackTargeted="1" PannerCurrentValue="0.5" PannerIsInverted="true" PannerStartKeyframe="-91445760000000000,0.5,0,0,0,0,0,0" PannerName="Balance" currentExplodedTrackIndex="1" totalExplodedTrackCount="2" premiereTrackType="Stereo">
														<enabled>TRUE</enabled>
														<locked>FALSE</locked>
														<outputchannelindex>2</outputchannelindex>
													</track>
												</audio>
											</media>
											<timecode>
												<rate>
													<timebase>30</timebase>
													<ntsc>TRUE</ntsc>
												</rate>
												<string>00;00;00;00</string>
												<frame>0</frame>
												<displayformat>DF</displayformat>
											</timecode>
												<marker>
													<comment></comment>
													<name></name>
													<in>229</in>
													<out>-1</out>
													<pproColor>4281828977</pproColor>
												</marker>
												<marker>
													<comment></comment>
													<name></name>
													<in>9</in>
													<out>-1</out>
													<pproColor>4281828977</pproColor>
												</marker>
											<logginginfo>
												<description></description>
												<scene></scene>
												<shottake></shottake>
												<lognote></lognote>
												<good></good>
												<originalvideofilename></originalvideofilename>
												<originalaudiofilename></originalaudiofilename>
											</logginginfo>
										</sequence>
											<marker>
												<comment></comment>
												<name></name>
												<in>229</in>
												<out>-1</out>
												<pproColor>4281828977</pproColor>
											</marker>
											<marker>
												<comment></comment>
												<name></name>
												<in>9</in>
												<out>-1</out>
												<pproColor>4281828977</pproColor>
											</marker>
										<link>
											<linkclipref>clipitem-222</linkclipref>
											<mediatype>video</mediatype>
											<trackindex>5</trackindex>
											<clipindex>2</clipindex>
										</link>
										<link>
											<linkclipref>clipitem-235</linkclipref>
											<mediatype>audio</mediatype>
											<trackindex>9</trackindex>
											<clipindex>2</clipindex>
											<groupindex>1</groupindex>
										</link>
										<link>
											<linkclipref>clipitem-237</linkclipref>
											<mediatype>audio</mediatype>
											<trackindex>10</trackindex>
											<clipindex>2</clipindex>
											<groupindex>1</groupindex>
										</link>
										<labels>
											<label2>Tan</label2>
										</labels>
									</clipitem>
									<enabled>TRUE</enabled>
									<locked>FALSE</locked>
								</track>
							</video>
							<audio>
								<numOutputChannels>2</numOutputChannels>
								<format>
									<samplecharacteristics>
										<depth>16</depth>
										<samplerate>32000</samplerate>
									</samplecharacteristics>
								</format>
								<outputs>
									<group>
										<index>1</index>
										<numchannels>1</numchannels>
										<downmix>0</downmix>
										<channel>
											<index>1</index>
										</channel>
									</group>
									<group>
										<index>2</index>
										<numchannels>1</numchannels>
										<downmix>0</downmix>
										<channel>
											<index>2</index>
										</channel>
									</group>
								</outputs>
								<track TL.SQTrackAudioKeyframeStyle="0" TL.SQTrackShy="0" TL.SQTrackExpandedHeight="25" TL.SQTrackExpanded="0" MZ.TrackTargeted="1" PannerCurrentValue="0.5" PannerIsInverted="true" PannerStartKeyframe="-91445760000000000,0.5,0,0,0,0,0,0" PannerName="Balance" currentExplodedTrackIndex="0" totalExplodedTrackCount="2" premiereTrackType="Stereo">
									<clipitem id="clipitem-230" premiereChannelType="stereo">
										<masterclipid>masterclip-131</masterclipid>
										<name>DRONE_The Pamir Desert_2</name>
										<enabled>TRUE</enabled>
										<duration>5420</duration>
										<rate>
											<timebase>30</timebase>
											<ntsc>TRUE</ntsc>
										</rate>
										<start>0</start>
										<end>3756</end>
										<in>0</in>
										<out>3756</out>
										<pproTicksIn>0</pproTicksIn>
										<pproTicksOut>31834606003200</pproTicksOut>
										<sequence id="sequence-3"/>
										<sourcetrack>
											<mediatype>audio</mediatype>
											<trackindex>0</trackindex>
										</sourcetrack>
										<link>
											<linkclipref>clipitem-186</linkclipref>
											<mediatype>video</mediatype>
											<trackindex>1</trackindex>
											<clipindex>1</clipindex>
										</link>
										<link>
											<linkclipref>clipitem-230</linkclipref>
											<mediatype>audio</mediatype>
											<trackindex>1</trackindex>
											<clipindex>1</clipindex>
											<groupindex>1</groupindex>
										</link>
										<link>
											<linkclipref>clipitem-232</linkclipref>
											<mediatype>audio</mediatype>
											<trackindex>2</trackindex>
											<clipindex>1</clipindex>
											<groupindex>1</groupindex>
										</link>
										<labels>
											<label2>Forest</label2>
										</labels>
									</clipitem>
									<clipitem id="clipitem-231" premiereChannelType="stereo">
										<masterclipid>masterclip-145</masterclipid>
										<name>DRONE_Guan Yin_1</name>
										<enabled>TRUE</enabled>
										<duration>8001</duration>
										<rate>
											<timebase>30</timebase>
											<ntsc>TRUE</ntsc>
										</rate>
										<start>3879</start>
										<end>-1</end>
										<in>0</in>
										<out>1584</out>
										<pproTicksIn>0</pproTicksIn>
										<pproTicksOut>13425456844800</pproTicksOut>
										<sequence id="sequence-4"/>
										<sourcetrack>
											<mediatype>audio</mediatype>
											<trackindex>0</trackindex>
										</sourcetrack>
										<link>
											<linkclipref>clipitem-201</linkclipref>
											<mediatype>video</mediatype>
											<trackindex>1</trackindex>
											<clipindex>2</clipindex>
										</link>
										<link>
											<linkclipref>clipitem-231</linkclipref>
											<mediatype>audio</mediatype>
											<trackindex>1</trackindex>
											<clipindex>2</clipindex>
											<groupindex>1</groupindex>
										</link>
										<link>
											<linkclipref>clipitem-233</linkclipref>
											<mediatype>audio</mediatype>
											<trackindex>2</trackindex>
											<clipindex>2</clipindex>
											<groupindex>1</groupindex>
										</link>
										<labels>
											<label2>Forest</label2>
										</labels>
									</clipitem>
									<transitionitem>
										<start>5456</start>
										<end>5463</end>
										<pproTicksIn>46243240243200</pproTicksIn>
										<pproTicksOut>46302569913600</pproTicksOut>
										<alignment>end-black</alignment>
										<cutPointTicks>59329670400</cutPointTicks>
										<rate>
											<timebase>30</timebase>
											<ntsc>TRUE</ntsc>
										</rate>
										<effect>
											<name>Cross Fade ( 0dB)</name>
											<effectid>KGAudioTransCrossFade0dB</effectid>
											<effecttype>transition</effecttype>
											<mediatype>audio</mediatype>
											<wipecode>0</wipecode>
											<wipeaccuracy>100</wipeaccuracy>
											<startratio>0</startratio>
											<endratio>1</endratio>
											<reverse>FALSE</reverse>
										</effect>
									</transitionitem>
									<enabled>TRUE</enabled>
									<locked>FALSE</locked>
									<outputchannelindex>1</outputchannelindex>
								</track>
								<track TL.SQTrackAudioKeyframeStyle="0" TL.SQTrackShy="0" TL.SQTrackExpandedHeight="25" TL.SQTrackExpanded="0" MZ.TrackTargeted="1" PannerCurrentValue="0.5" PannerIsInverted="true" PannerStartKeyframe="-91445760000000000,0.5,0,0,0,0,0,0" PannerName="Balance" currentExplodedTrackIndex="1" totalExplodedTrackCount="2" premiereTrackType="Stereo">
									<clipitem id="clipitem-232" premiereChannelType="stereo">
										<masterclipid>masterclip-131</masterclipid>
										<name>DRONE_The Pamir Desert_2</name>
										<enabled>TRUE</enabled>
										<duration>5420</duration>
										<rate>
											<timebase>30</timebase>
											<ntsc>TRUE</ntsc>
										</rate>
										<start>0</start>
										<end>3756</end>
										<in>0</in>
										<out>3756</out>
										<pproTicksIn>0</pproTicksIn>
										<pproTicksOut>31834606003200</pproTicksOut>
										<sequence id="sequence-3"/>
										<sourcetrack>
											<mediatype>audio</mediatype>
											<trackindex>1</trackindex>
										</sourcetrack>
										<link>
											<linkclipref>clipitem-186</linkclipref>
											<mediatype>video</mediatype>
											<trackindex>1</trackindex>
											<clipindex>1</clipindex>
										</link>
										<link>
											<linkclipref>clipitem-230</linkclipref>
											<mediatype>audio</mediatype>
											<trackindex>1</trackindex>
											<clipindex>1</clipindex>
											<groupindex>1</groupindex>
										</link>
										<link>
											<linkclipref>clipitem-232</linkclipref>
											<mediatype>audio</mediatype>
											<trackindex>2</trackindex>
											<clipindex>1</clipindex>
											<groupindex>1</groupindex>
										</link>
										<labels>
											<label2>Forest</label2>
										</labels>
									</clipitem>
									<clipitem id="clipitem-233" premiereChannelType="stereo">
										<masterclipid>masterclip-145</masterclipid>
										<name>DRONE_Guan Yin_1</name>
										<enabled>TRUE</enabled>
										<duration>8001</duration>
										<rate>
											<timebase>30</timebase>
											<ntsc>TRUE</ntsc>
										</rate>
										<start>3879</start>
										<end>-1</end>
										<in>0</in>
										<out>1584</out>
										<pproTicksIn>0</pproTicksIn>
										<pproTicksOut>13425456844800</pproTicksOut>
										<sequence id="sequence-4"/>
										<sourcetrack>
											<mediatype>audio</mediatype>
											<trackindex>1</trackindex>
										</sourcetrack>
										<link>
											<linkclipref>clipitem-201</linkclipref>
											<mediatype>video</mediatype>
											<trackindex>1</trackindex>
											<clipindex>2</clipindex>
										</link>
										<link>
											<linkclipref>clipitem-231</linkclipref>
											<mediatype>audio</mediatype>
											<trackindex>1</trackindex>
											<clipindex>2</clipindex>
											<groupindex>1</groupindex>
										</link>
										<link>
											<linkclipref>clipitem-233</linkclipref>
											<mediatype>audio</mediatype>
											<trackindex>2</trackindex>
											<clipindex>2</clipindex>
											<groupindex>1</groupindex>
										</link>
										<labels>
											<label2>Forest</label2>
										</labels>
									</clipitem>
									<transitionitem>
										<start>5456</start>
										<end>5463</end>
										<pproTicksIn>46243240243200</pproTicksIn>
										<pproTicksOut>46302569913600</pproTicksOut>
										<alignment>end-black</alignment>
										<cutPointTicks>59329670400</cutPointTicks>
										<rate>
											<timebase>30</timebase>
											<ntsc>TRUE</ntsc>
										</rate>
										<effect>
											<name>Cross Fade ( 0dB)</name>
											<effectid>KGAudioTransCrossFade0dB</effectid>
											<effecttype>transition</effecttype>
											<mediatype>audio</mediatype>
											<wipecode>0</wipecode>
											<wipeaccuracy>100</wipeaccuracy>
											<startratio>0</startratio>
											<endratio>1</endratio>
											<reverse>FALSE</reverse>
										</effect>
									</transitionitem>
									<enabled>TRUE</enabled>
									<locked>FALSE</locked>
									<outputchannelindex>2</outputchannelindex>
								</track>
								<track TL.SQTrackAudioKeyframeStyle="0" TL.SQTrackShy="0" TL.SQTrackExpandedHeight="25" TL.SQTrackExpanded="0" MZ.TrackTargeted="1" PannerCurrentValue="0.5" PannerIsInverted="true" PannerStartKeyframe="-91445760000000000,0.5,0,0,0,0,0,0" PannerName="Balance" currentExplodedTrackIndex="0" totalExplodedTrackCount="2" premiereTrackType="Stereo">
									<enabled>TRUE</enabled>
									<locked>FALSE</locked>
									<outputchannelindex>1</outputchannelindex>
								</track>
								<track TL.SQTrackAudioKeyframeStyle="0" TL.SQTrackShy="0" TL.SQTrackExpandedHeight="25" TL.SQTrackExpanded="0" MZ.TrackTargeted="1" PannerCurrentValue="0.5" PannerIsInverted="true" PannerStartKeyframe="-91445760000000000,0.5,0,0,0,0,0,0" PannerName="Balance" currentExplodedTrackIndex="1" totalExplodedTrackCount="2" premiereTrackType="Stereo">
									<enabled>TRUE</enabled>
									<locked>FALSE</locked>
									<outputchannelindex>2</outputchannelindex>
								</track>
								<track TL.SQTrackAudioKeyframeStyle="0" TL.SQTrackShy="0" TL.SQTrackExpandedHeight="25" TL.SQTrackExpanded="0" MZ.TrackTargeted="1" PannerCurrentValue="0.5" PannerIsInverted="true" PannerStartKeyframe="-91445760000000000,0.5,0,0,0,0,0,0" PannerName="Balance" currentExplodedTrackIndex="0" totalExplodedTrackCount="2" premiereTrackType="Stereo">
									<enabled>TRUE</enabled>
									<locked>FALSE</locked>
									<outputchannelindex>1</outputchannelindex>
								</track>
								<track TL.SQTrackAudioKeyframeStyle="0" TL.SQTrackShy="0" TL.SQTrackExpandedHeight="25" TL.SQTrackExpanded="0" MZ.TrackTargeted="1" PannerCurrentValue="0.5" PannerIsInverted="true" PannerStartKeyframe="-91445760000000000,0.5,0,0,0,0,0,0" PannerName="Balance" currentExplodedTrackIndex="1" totalExplodedTrackCount="2" premiereTrackType="Stereo">
									<enabled>TRUE</enabled>
									<locked>FALSE</locked>
									<outputchannelindex>2</outputchannelindex>
								</track>
								<track TL.SQTrackAudioKeyframeStyle="0" TL.SQTrackShy="0" TL.SQTrackExpandedHeight="25" TL.SQTrackExpanded="0" MZ.TrackTargeted="0" PannerCurrentValue="0.5" PannerIsInverted="true" PannerStartKeyframe="-91445760000000000,0.5,0,0,0,0,0,0" PannerName="Balance" currentExplodedTrackIndex="0" totalExplodedTrackCount="2" premiereTrackType="Stereo">
									<enabled>TRUE</enabled>
									<locked>FALSE</locked>
									<outputchannelindex>1</outputchannelindex>
								</track>
								<track TL.SQTrackAudioKeyframeStyle="0" TL.SQTrackShy="0" TL.SQTrackExpandedHeight="25" TL.SQTrackExpanded="0" MZ.TrackTargeted="0" PannerCurrentValue="0.5" PannerIsInverted="true" PannerStartKeyframe="-91445760000000000,0.5,0,0,0,0,0,0" PannerName="Balance" currentExplodedTrackIndex="1" totalExplodedTrackCount="2" premiereTrackType="Stereo">
									<enabled>TRUE</enabled>
									<locked>FALSE</locked>
									<outputchannelindex>2</outputchannelindex>
								</track>
								<track TL.SQTrackAudioKeyframeStyle="0" TL.SQTrackShy="0" TL.SQTrackExpandedHeight="25" TL.SQTrackExpanded="0" MZ.TrackTargeted="0" PannerCurrentValue="0.5" PannerIsInverted="true" PannerStartKeyframe="-91445760000000000,0.5,0,0,0,0,0,0" PannerName="Balance" currentExplodedTrackIndex="0" totalExplodedTrackCount="2" premiereTrackType="Stereo">
									<clipitem id="clipitem-234" premiereChannelType="stereo">
										<masterclipid>masterclip-155</masterclipid>
										<name>Trans B</name>
										<enabled>TRUE</enabled>
										<duration>5697</duration>
										<rate>
											<timebase>30</timebase>
											<ntsc>TRUE</ntsc>
										</rate>
										<start>3747</start>
										<end>3902</end>
										<in>0</in>
										<out>155</out>
										<pproTicksIn>0</pproTicksIn>
										<pproTicksOut>1313728416000</pproTicksOut>
										<sequence id="sequence-6"/>
										<sourcetrack>
											<mediatype>audio</mediatype>
											<trackindex>0</trackindex>
										</sourcetrack>
											<marker>
												<comment></comment>
												<name></name>
												<in>9</in>
												<out>-1</out>
												<pproColor>4281828977</pproColor>
											</marker>
											<marker>
												<comment></comment>
												<name></name>
												<in>144</in>
												<out>-1</out>
												<pproColor>4281828977</pproColor>
											</marker>
										<link>
											<linkclipref>clipitem-212</linkclipref>
											<mediatype>video</mediatype>
											<trackindex>5</trackindex>
											<clipindex>1</clipindex>
										</link>
										<link>
											<linkclipref>clipitem-234</linkclipref>
											<mediatype>audio</mediatype>
											<trackindex>9</trackindex>
											<clipindex>1</clipindex>
											<groupindex>1</groupindex>
										</link>
										<link>
											<linkclipref>clipitem-236</linkclipref>
											<mediatype>audio</mediatype>
											<trackindex>10</trackindex>
											<clipindex>1</clipindex>
											<groupindex>1</groupindex>
										</link>
										<labels>
											<label2>Tan</label2>
										</labels>
									</clipitem>
									<clipitem id="clipitem-235" premiereChannelType="stereo">
										<masterclipid>masterclip-160</masterclipid>
										<name>Trans D</name>
										<enabled>TRUE</enabled>
										<duration>5697</duration>
										<rate>
											<timebase>30</timebase>
											<ntsc>TRUE</ntsc>
										</rate>
										<start>5448</start>
										<end>5688</end>
										<in>0</in>
										<out>240</out>
										<pproTicksIn>0</pproTicksIn>
										<pproTicksOut>2034160128000</pproTicksOut>
										<sequence id="sequence-9"/>
										<sourcetrack>
											<mediatype>audio</mediatype>
											<trackindex>0</trackindex>
										</sourcetrack>
											<marker>
												<comment></comment>
												<name></name>
												<in>229</in>
												<out>-1</out>
												<pproColor>4281828977</pproColor>
											</marker>
											<marker>
												<comment></comment>
												<name></name>
												<in>9</in>
												<out>-1</out>
												<pproColor>4281828977</pproColor>
											</marker>
										<link>
											<linkclipref>clipitem-222</linkclipref>
											<mediatype>video</mediatype>
											<trackindex>5</trackindex>
											<clipindex>2</clipindex>
										</link>
										<link>
											<linkclipref>clipitem-235</linkclipref>
											<mediatype>audio</mediatype>
											<trackindex>9</trackindex>
											<clipindex>2</clipindex>
											<groupindex>1</groupindex>
										</link>
										<link>
											<linkclipref>clipitem-237</linkclipref>
											<mediatype>audio</mediatype>
											<trackindex>10</trackindex>
											<clipindex>2</clipindex>
											<groupindex>1</groupindex>
										</link>
										<labels>
											<label2>Tan</label2>
										</labels>
									</clipitem>
									<enabled>TRUE</enabled>
									<locked>FALSE</locked>
									<outputchannelindex>1</outputchannelindex>
								</track>
								<track TL.SQTrackAudioKeyframeStyle="0" TL.SQTrackShy="0" TL.SQTrackExpandedHeight="25" TL.SQTrackExpanded="0" MZ.TrackTargeted="0" PannerCurrentValue="0.5" PannerIsInverted="true" PannerStartKeyframe="-91445760000000000,0.5,0,0,0,0,0,0" PannerName="Balance" currentExplodedTrackIndex="1" totalExplodedTrackCount="2" premiereTrackType="Stereo">
									<clipitem id="clipitem-236" premiereChannelType="stereo">
										<masterclipid>masterclip-155</masterclipid>
										<name>Trans B</name>
										<enabled>TRUE</enabled>
										<duration>5697</duration>
										<rate>
											<timebase>30</timebase>
											<ntsc>TRUE</ntsc>
										</rate>
										<start>3747</start>
										<end>3902</end>
										<in>0</in>
										<out>155</out>
										<pproTicksIn>0</pproTicksIn>
										<pproTicksOut>1313728416000</pproTicksOut>
										<sequence id="sequence-6"/>
										<sourcetrack>
											<mediatype>audio</mediatype>
											<trackindex>1</trackindex>
										</sourcetrack>
											<marker>
												<comment></comment>
												<name></name>
												<in>9</in>
												<out>-1</out>
												<pproColor>4281828977</pproColor>
											</marker>
											<marker>
												<comment></comment>
												<name></name>
												<in>144</in>
												<out>-1</out>
												<pproColor>4281828977</pproColor>
											</marker>
										<link>
											<linkclipref>clipitem-212</linkclipref>
											<mediatype>video</mediatype>
											<trackindex>5</trackindex>
											<clipindex>1</clipindex>
										</link>
										<link>
											<linkclipref>clipitem-234</linkclipref>
											<mediatype>audio</mediatype>
											<trackindex>9</trackindex>
											<clipindex>1</clipindex>
											<groupindex>1</groupindex>
										</link>
										<link>
											<linkclipref>clipitem-236</linkclipref>
											<mediatype>audio</mediatype>
											<trackindex>10</trackindex>
											<clipindex>1</clipindex>
											<groupindex>1</groupindex>
										</link>
										<labels>
											<label2>Tan</label2>
										</labels>
									</clipitem>
									<clipitem id="clipitem-237" premiereChannelType="stereo">
										<masterclipid>masterclip-160</masterclipid>
										<name>Trans D</name>
										<enabled>TRUE</enabled>
										<duration>5697</duration>
										<rate>
											<timebase>30</timebase>
											<ntsc>TRUE</ntsc>
										</rate>
										<start>5448</start>
										<end>5688</end>
										<in>0</in>
										<out>240</out>
										<pproTicksIn>0</pproTicksIn>
										<pproTicksOut>2034160128000</pproTicksOut>
										<sequence id="sequence-9"/>
										<sourcetrack>
											<mediatype>audio</mediatype>
											<trackindex>1</trackindex>
										</sourcetrack>
											<marker>
												<comment></comment>
												<name></name>
												<in>229</in>
												<out>-1</out>
												<pproColor>4281828977</pproColor>
											</marker>
											<marker>
												<comment></comment>
												<name></name>
												<in>9</in>
												<out>-1</out>
												<pproColor>4281828977</pproColor>
											</marker>
										<link>
											<linkclipref>clipitem-222</linkclipref>
											<mediatype>video</mediatype>
											<trackindex>5</trackindex>
											<clipindex>2</clipindex>
										</link>
										<link>
											<linkclipref>clipitem-235</linkclipref>
											<mediatype>audio</mediatype>
											<trackindex>9</trackindex>
											<clipindex>2</clipindex>
											<groupindex>1</groupindex>
										</link>
										<link>
											<linkclipref>clipitem-237</linkclipref>
											<mediatype>audio</mediatype>
											<trackindex>10</trackindex>
											<clipindex>2</clipindex>
											<groupindex>1</groupindex>
										</link>
										<labels>
											<label2>Tan</label2>
										</labels>
									</clipitem>
									<enabled>TRUE</enabled>
									<locked>FALSE</locked>
									<outputchannelindex>2</outputchannelindex>
								</track>
							</audio>
						</media>
						<timecode>
							<rate>
								<timebase>30</timebase>
								<ntsc>TRUE</ntsc>
							</rate>
							<string>00;00;00;00</string>
							<frame>0</frame>
							<displayformat>DF</displayformat>
						</timecode>
							<marker>
								<comment></comment>
								<name></name>
								<in>264</in>
								<out>-1</out>
								<pproColor>4281828977</pproColor>
							</marker>
						<labels>
							<label2>Forest</label2>
						</labels>
						<logginginfo>
							<description></description>
							<scene></scene>
							<shottake></shottake>
							<lognote></lognote>
							<good></good>
							<originalvideofilename></originalvideofilename>
							<originalaudiofilename></originalaudiofilename>
						</logginginfo>
					</sequence>
					<sequence id="sequence-10" TL.SQAudioVisibleBase="0" TL.SQVideoVisibleBase="0" TL.SQVisibleBaseTime="0" TL.SQAVDividerPosition="0.5" TL.SQHideShyTracks="0" TL.SQHeaderWidth="236" TL.SQDataTrackViewControlState="0" Monitor.ProgramZoomOut="48285876038400" Monitor.ProgramZoomIn="0" TL.SQTimePerPixel="0.64899687239893478" MZ.EditLine="39564414489600" MZ.Sequence.PreviewFrameSizeHeight="1080" MZ.Sequence.PreviewFrameSizeWidth="1920" MZ.Sequence.AudioTimeDisplayFormat="200" MZ.Sequence.PreviewRenderingClassID="1297106761" MZ.Sequence.PreviewRenderingPresetCodec="1297107278" MZ.Sequence.PreviewRenderingPresetPath="EncoderPresets/SequencePreview/795454d9-d3c2-429d-9474-923ab13b7018/I-Frame Only MPEG.epr" MZ.Sequence.PreviewUseMaxRenderQuality="false" MZ.Sequence.PreviewUseMaxBitDepth="false" MZ.Sequence.EditingModeGUID="795454d9-d3c2-429d-9474-923ab13b7018" MZ.Sequence.VideoTimeDisplayFormat="102" MZ.WorkOutPoint="15239249625600" MZ.WorkInPoint="0" explodedTracks="true">
						<uuid>30a39079-2c75-4d0c-a556-75e672f72bdb</uuid>
						<duration>5697</duration>
						<rate>
							<timebase>30</timebase>
							<ntsc>TRUE</ntsc>
						</rate>
						<name>ATM_DRONE_495</name>
						<media>
							<video>
								<format>
									<samplecharacteristics>
										<rate>
											<timebase>30</timebase>
											<ntsc>TRUE</ntsc>
										</rate>
										<codec>
											<name>Apple ProRes 422</name>
											<appspecificdata>
												<appname>Final Cut Pro</appname>
												<appmanufacturer>Apple Inc.</appmanufacturer>
												<appversion>7.0</appversion>
												<data>
													<qtcodec>
														<codecname>Apple ProRes 422</codecname>
														<codectypename>Apple ProRes 422</codectypename>
														<codectypecode>apcn</codectypecode>
														<codecvendorcode>appl</codecvendorcode>
														<spatialquality>1024</spatialquality>
														<temporalquality>0</temporalquality>
														<keyframerate>0</keyframerate>
														<datarate>0</datarate>
													</qtcodec>
												</data>
											</appspecificdata>
										</codec>
										<width>1920</width>
										<height>1080</height>
										<anamorphic>FALSE</anamorphic>
										<pixelaspectratio>square</pixelaspectratio>
										<fielddominance>none</fielddominance>
										<colordepth>24</colordepth>
									</samplecharacteristics>
								</format>
								<track TL.SQTrackShy="0" TL.SQTrackExpandedHeight="25" TL.SQTrackExpanded="0" MZ.TrackTargeted="1">
									<clipitem id="clipitem-238">
										<masterclipid>masterclip-162</masterclipid>
										<name>DRONE_Longboard Chase_2</name>
										<enabled>TRUE</enabled>
										<duration>4844</duration>
										<rate>
											<timebase>30</timebase>
											<ntsc>TRUE</ntsc>
										</rate>
										<start>0</start>
										<end>3689</end>
										<in>0</in>
										<out>3689</out>
										<pproTicksIn>0</pproTicksIn>
										<pproTicksOut>31266736300800</pproTicksOut>
										<sequence id="sequence-11" TL.SQAudioVisibleBase="0" TL.SQVideoVisibleBase="0" TL.SQVisibleBaseTime="0" TL.SQAVDividerPosition="0.5" TL.SQHideShyTracks="0" TL.SQHeaderWidth="236" Monitor.ProgramZoomOut="31266736300800" Monitor.ProgramZoomIn="0" TL.SQTimePerPixel="0.15731451792970411" MZ.EditLine="31266736300800" MZ.Sequence.PreviewFrameSizeHeight="1080" MZ.Sequence.PreviewFrameSizeWidth="1920" MZ.Sequence.AudioTimeDisplayFormat="200" MZ.Sequence.PreviewRenderingClassID="1061109567" MZ.Sequence.PreviewRenderingPresetCodec="1634755443" MZ.Sequence.PreviewRenderingPresetPath="EncoderPresets/SequencePreview/35d109db-457b-43c1-9452-9cb7be9f121c/QuickTime.epr" MZ.Sequence.PreviewUseMaxRenderQuality="false" MZ.Sequence.PreviewUseMaxBitDepth="false" MZ.Sequence.EditingModeGUID="35d109db-457b-43c1-9452-9cb7be9f121c" MZ.Sequence.VideoTimeDisplayFormat="102" MZ.WorkOutPoint="15239249625600" MZ.WorkInPoint="0">
											<duration>3689</duration>
											<rate>
												<timebase>30</timebase>
												<ntsc>TRUE</ntsc>
											</rate>
											<name>DRONE_Longboard Chase_2</name>
											<media>
												<video>
													<format>
														<samplecharacteristics>
															<rate>
																<timebase>30</timebase>
																<ntsc>TRUE</ntsc>
															</rate>
															<codec>
																<name>Apple ProRes 422</name>
																<appspecificdata>
																	<appname>Final Cut Pro</appname>
																	<appmanufacturer>Apple Inc.</appmanufacturer>
																	<appversion>7.0</appversion>
																	<data>
																		<qtcodec>
																			<codecname>Apple ProRes 422</codecname>
																			<codectypename>Apple ProRes 422</codectypename>
																			<codectypecode>apcn</codectypecode>
																			<codecvendorcode>appl</codecvendorcode>
																			<spatialquality>1024</spatialquality>
																			<temporalquality>0</temporalquality>
																			<keyframerate>0</keyframerate>
																			<datarate>0</datarate>
																		</qtcodec>
																	</data>
																</appspecificdata>
															</codec>
															<width>1920</width>
															<height>1080</height>
															<anamorphic>FALSE</anamorphic>
															<pixelaspectratio>square</pixelaspectratio>
															<fielddominance>none</fielddominance>
															<colordepth>24</colordepth>
														</samplecharacteristics>
													</format>
													<track TL.SQTrackShy="0" TL.SQTrackExpandedHeight="25" TL.SQTrackExpanded="0" MZ.TrackTargeted="1">
														<clipitem id="clipitem-239">
															<masterclipid>masterclip-163</masterclipid>
															<name>726057_Mountains Road Austria Hills_By_Mirko_Paoloni_Artlist_HD.mp4</name>
															<enabled>TRUE</enabled>
															<duration>591</duration>
															<rate>
																<timebase>30</timebase>
																<ntsc>TRUE</ntsc>
															</rate>
															<start>0</start>
															<end>344</end>
															<in>0</in>
															<out>344</out>
															<pproTicksIn>0</pproTicksIn>
															<pproTicksOut>2915629516800</pproTicksOut>
															<alphatype>none</alphatype>
															<pixelaspectratio>square</pixelaspectratio>
															<anamorphic>FALSE</anamorphic>
															<file id="file-154">
																<name>726057_Mountains Road Austria Hills_By_Mirko_Paoloni_Artlist_HD.mp4</name>
																<pathurl>file://localhost/Volumes/T7/DRONE_08.18.2023/3_Raw%20Files/Longboarding/726057_Mountains%20Road%20Austria%20Hills_By_Mirko_Paoloni_Artlist_HD.mp4</pathurl>
																<rate>
																	<timebase>25</timebase>
																	<ntsc>FALSE</ntsc>
																</rate>
																<duration>493</duration>
																<timecode>
																	<rate>
																		<timebase>25</timebase>
																		<ntsc>FALSE</ntsc>
																	</rate>
																	<string>00:00:00:00</string>
																	<frame>0</frame>
																	<displayformat>NDF</displayformat>
																</timecode>
																<media>
																	<video>
																		<samplecharacteristics>
																			<rate>
																				<timebase>25</timebase>
																				<ntsc>FALSE</ntsc>
																			</rate>
																			<width>1920</width>
																			<height>1080</height>
																			<anamorphic>FALSE</anamorphic>
																			<pixelaspectratio>square</pixelaspectratio>
																			<fielddominance>none</fielddominance>
																		</samplecharacteristics>
																	</video>
																</media>
															</file>
															<logginginfo>
																<description></description>
																<scene></scene>
																<shottake></shottake>
																<lognote></lognote>
																<good></good>
																<originalvideofilename></originalvideofilename>
																<originalaudiofilename></originalaudiofilename>
															</logginginfo>
															<colorinfo>
																<lut></lut>
																<lut1></lut1>
																<asc_sop></asc_sop>
																<asc_sat></asc_sat>
																<lut2></lut2>
															</colorinfo>
															<labels>
																<label2>Violet</label2>
															</labels>
														</clipitem>
														<clipitem id="clipitem-240">
															<masterclipid>masterclip-164</masterclipid>
															<name>726018_Longboard Hills Fast Ride  Thrilling_By_Mirko_Paoloni_Artlist_HD.mp4</name>
															<enabled>TRUE</enabled>
															<duration>360</duration>
															<rate>
																<timebase>30</timebase>
																<ntsc>TRUE</ntsc>
															</rate>
															<start>344</start>
															<end>624</end>
															<in>0</in>
															<out>280</out>
															<pproTicksIn>0</pproTicksIn>
															<pproTicksOut>2373186816000</pproTicksOut>
															<alphatype>none</alphatype>
															<pixelaspectratio>square</pixelaspectratio>
															<anamorphic>FALSE</anamorphic>
															<file id="file-155">
																<name>726018_Longboard Hills Fast Ride  Thrilling_By_Mirko_Paoloni_Artlist_HD.mp4</name>
																<pathurl>file://localhost/Volumes/T7/DRONE_08.18.2023/3_Raw%20Files/Longboarding/726018_Longboard%20Hills%20Fast%20Ride%20%20Thrilling_By_Mirko_Paoloni_Artlist_HD.mp4</pathurl>
																<rate>
																	<timebase>25</timebase>
																	<ntsc>FALSE</ntsc>
																</rate>
																<duration>301</duration>
																<timecode>
																	<rate>
																		<timebase>25</timebase>
																		<ntsc>FALSE</ntsc>
																	</rate>
																	<string>00:00:00:00</string>
																	<frame>0</frame>
																	<displayformat>NDF</displayformat>
																</timecode>
																<media>
																	<video>
																		<samplecharacteristics>
																			<rate>
																				<timebase>25</timebase>
																				<ntsc>FALSE</ntsc>
																			</rate>
																			<width>1920</width>
																			<height>1080</height>
																			<anamorphic>FALSE</anamorphic>
																			<pixelaspectratio>square</pixelaspectratio>
																			<fielddominance>none</fielddominance>
																		</samplecharacteristics>
																	</video>
																</media>
															</file>
															<logginginfo>
																<description></description>
																<scene></scene>
																<shottake></shottake>
																<lognote></lognote>
																<good></good>
																<originalvideofilename></originalvideofilename>
																<originalaudiofilename></originalaudiofilename>
															</logginginfo>
															<colorinfo>
																<lut></lut>
																<lut1></lut1>
																<asc_sop></asc_sop>
																<asc_sat></asc_sat>
																<lut2></lut2>
															</colorinfo>
															<labels>
																<label2>Violet</label2>
															</labels>
														</clipitem>
														<clipitem id="clipitem-241">
															<masterclipid>masterclip-165</masterclipid>
															<name>726016_Longboard Road Downhill Riding_By_Mirko_Paoloni_Artlist_HD.mp4</name>
															<enabled>TRUE</enabled>
															<duration>937</duration>
															<rate>
																<timebase>30</timebase>
																<ntsc>TRUE</ntsc>
															</rate>
															<start>624</start>
															<end>1065</end>
															<in>0</in>
															<out>441</out>
															<pproTicksIn>0</pproTicksIn>
															<pproTicksOut>3737769235200</pproTicksOut>
															<alphatype>none</alphatype>
															<pixelaspectratio>square</pixelaspectratio>
															<anamorphic>FALSE</anamorphic>
															<file id="file-156">
																<name>726016_Longboard Road Downhill Riding_By_Mirko_Paoloni_Artlist_HD.mp4</name>
																<pathurl>file://localhost/Volumes/T7/DRONE_08.18.2023/3_Raw%20Files/Longboarding/726016_Longboard%20Road%20Downhill%20Riding_By_Mirko_Paoloni_Artlist_HD.mp4</pathurl>
																<rate>
																	<timebase>25</timebase>
																	<ntsc>FALSE</ntsc>
																</rate>
																<duration>782</duration>
																<timecode>
																	<rate>
																		<timebase>25</timebase>
																		<ntsc>FALSE</ntsc>
																	</rate>
																	<string>00:00:00:00</string>
																	<frame>0</frame>
																	<displayformat>NDF</displayformat>
																</timecode>
																<media>
																	<video>
																		<samplecharacteristics>
																			<rate>
																				<timebase>25</timebase>
																				<ntsc>FALSE</ntsc>
																			</rate>
																			<width>1920</width>
																			<height>1080</height>
																			<anamorphic>FALSE</anamorphic>
																			<pixelaspectratio>square</pixelaspectratio>
																			<fielddominance>none</fielddominance>
																		</samplecharacteristics>
																	</video>
																</media>
															</file>
															<logginginfo>
																<description></description>
																<scene></scene>
																<shottake></shottake>
																<lognote></lognote>
																<good></good>
																<originalvideofilename></originalvideofilename>
																<originalaudiofilename></originalaudiofilename>
															</logginginfo>
															<colorinfo>
																<lut></lut>
																<lut1></lut1>
																<asc_sop></asc_sop>
																<asc_sat></asc_sat>
																<lut2></lut2>
															</colorinfo>
															<labels>
																<label2>Violet</label2>
															</labels>
														</clipitem>
														<clipitem id="clipitem-242">
															<masterclipid>masterclip-166</masterclipid>
															<name>726010_Longboarding   Riding Mountains Fpv Drone_By_Mirko_Paoloni_Artlist_HD.mp4</name>
															<enabled>TRUE</enabled>
															<duration>676</duration>
															<rate>
																<timebase>30</timebase>
																<ntsc>TRUE</ntsc>
															</rate>
															<start>1065</start>
															<end>1413</end>
															<in>0</in>
															<out>348</out>
															<pproTicksIn>0</pproTicksIn>
															<pproTicksOut>2949532185600</pproTicksOut>
															<alphatype>none</alphatype>
															<pixelaspectratio>square</pixelaspectratio>
															<anamorphic>FALSE</anamorphic>
															<file id="file-157">
																<name>726010_Longboarding   Riding Mountains Fpv Drone_By_Mirko_Paoloni_Artlist_HD.mp4</name>
																<pathurl>file://localhost/Volumes/T7/DRONE_08.18.2023/3_Raw%20Files/Longboarding/726010_Longboarding%20%20%20Riding%20Mountains%20Fpv%20Drone_By_Mirko_Paoloni_Artlist_HD.mp4</pathurl>
																<rate>
																	<timebase>25</timebase>
																	<ntsc>FALSE</ntsc>
																</rate>
																<duration>564</duration>
																<timecode>
																	<rate>
																		<timebase>25</timebase>
																		<ntsc>FALSE</ntsc>
																	</rate>
																	<string>00:00:00:00</string>
																	<frame>0</frame>
																	<displayformat>NDF</displayformat>
																</timecode>
																<media>
																	<video>
																		<samplecharacteristics>
																			<rate>
																				<timebase>25</timebase>
																				<ntsc>FALSE</ntsc>
																			</rate>
																			<width>1920</width>
																			<height>1080</height>
																			<anamorphic>FALSE</anamorphic>
																			<pixelaspectratio>square</pixelaspectratio>
																			<fielddominance>none</fielddominance>
																		</samplecharacteristics>
																	</video>
																</media>
															</file>
															<logginginfo>
																<description></description>
																<scene></scene>
																<shottake></shottake>
																<lognote></lognote>
																<good></good>
																<originalvideofilename></originalvideofilename>
																<originalaudiofilename></originalaudiofilename>
															</logginginfo>
															<colorinfo>
																<lut></lut>
																<lut1></lut1>
																<asc_sop></asc_sop>
																<asc_sat></asc_sat>
																<lut2></lut2>
															</colorinfo>
															<labels>
																<label2>Violet</label2>
															</labels>
														</clipitem>
														<clipitem id="clipitem-243">
															<masterclipid>masterclip-167</masterclipid>
															<name>726024_Longboarding   Mountains Fpv Drone Downhill_By_Mirko_Paoloni_Artlist_HD.mp4</name>
															<enabled>TRUE</enabled>
															<duration>977</duration>
															<rate>
																<timebase>30</timebase>
																<ntsc>TRUE</ntsc>
															</rate>
															<start>1413</start>
															<end>1952</end>
															<in>0</in>
															<out>539</out>
															<pproTicksIn>0</pproTicksIn>
															<pproTicksOut>4568384620800</pproTicksOut>
															<alphatype>none</alphatype>
															<pixelaspectratio>square</pixelaspectratio>
															<anamorphic>FALSE</anamorphic>
															<file id="file-158">
																<name>726024_Longboarding   Mountains Fpv Drone Downhill_By_Mirko_Paoloni_Artlist_HD.mp4</name>
																<pathurl>file://localhost/Volumes/T7/DRONE_08.18.2023/3_Raw%20Files/Longboarding/726024_Longboarding%20%20%20Mountains%20Fpv%20Drone%20Downhill_By_Mirko_Paoloni_Artlist_HD.mp4</pathurl>
																<rate>
																	<timebase>25</timebase>
																	<ntsc>FALSE</ntsc>
																</rate>
																<duration>815</duration>
																<timecode>
																	<rate>
																		<timebase>25</timebase>
																		<ntsc>FALSE</ntsc>
																	</rate>
																	<string>00:00:00:00</string>
																	<frame>0</frame>
																	<displayformat>NDF</displayformat>
																</timecode>
																<media>
																	<video>
																		<samplecharacteristics>
																			<rate>
																				<timebase>25</timebase>
																				<ntsc>FALSE</ntsc>
																			</rate>
																			<width>1920</width>
																			<height>1080</height>
																			<anamorphic>FALSE</anamorphic>
																			<pixelaspectratio>square</pixelaspectratio>
																			<fielddominance>none</fielddominance>
																		</samplecharacteristics>
																	</video>
																</media>
															</file>
															<logginginfo>
																<description></description>
																<scene></scene>
																<shottake></shottake>
																<lognote></lognote>
																<good></good>
																<originalvideofilename></originalvideofilename>
																<originalaudiofilename></originalaudiofilename>
															</logginginfo>
															<colorinfo>
																<lut></lut>
																<lut1></lut1>
																<asc_sop></asc_sop>
																<asc_sat></asc_sat>
																<lut2></lut2>
															</colorinfo>
															<labels>
																<label2>Violet</label2>
															</labels>
														</clipitem>
														<clipitem id="clipitem-244">
															<masterclipid>masterclip-168</masterclipid>
															<name>726014_Longboard Hills Fast Ride  Thrilling_By_Mirko_Paoloni_Artlist_HD.mp4</name>
															<enabled>TRUE</enabled>
															<duration>622</duration>
															<rate>
																<timebase>30</timebase>
																<ntsc>TRUE</ntsc>
															</rate>
															<start>1952</start>
															<end>2400</end>
															<in>0</in>
															<out>448</out>
															<pproTicksIn>0</pproTicksIn>
															<pproTicksOut>3797098905600</pproTicksOut>
															<alphatype>none</alphatype>
															<pixelaspectratio>square</pixelaspectratio>
															<anamorphic>FALSE</anamorphic>
															<file id="file-159">
																<name>726014_Longboard Hills Fast Ride  Thrilling_By_Mirko_Paoloni_Artlist_HD.mp4</name>
																<pathurl>file://localhost/Volumes/T7/DRONE_08.18.2023/3_Raw%20Files/Longboarding/726014_Longboard%20Hills%20Fast%20Ride%20%20Thrilling_By_Mirko_Paoloni_Artlist_HD.mp4</pathurl>
																<rate>
																	<timebase>25</timebase>
																	<ntsc>FALSE</ntsc>
																</rate>
																<duration>519</duration>
																<timecode>
																	<rate>
																		<timebase>25</timebase>
																		<ntsc>FALSE</ntsc>
																	</rate>
																	<string>00:00:00:00</string>
																	<frame>0</frame>
																	<displayformat>NDF</displayformat>
																</timecode>
																<media>
																	<video>
																		<samplecharacteristics>
																			<rate>
																				<timebase>25</timebase>
																				<ntsc>FALSE</ntsc>
																			</rate>
																			<width>1920</width>
																			<height>1080</height>
																			<anamorphic>FALSE</anamorphic>
																			<pixelaspectratio>square</pixelaspectratio>
																			<fielddominance>none</fielddominance>
																		</samplecharacteristics>
																	</video>
																</media>
															</file>
															<logginginfo>
																<description></description>
																<scene></scene>
																<shottake></shottake>
																<lognote></lognote>
																<good></good>
																<originalvideofilename></originalvideofilename>
																<originalaudiofilename></originalaudiofilename>
															</logginginfo>
															<colorinfo>
																<lut></lut>
																<lut1></lut1>
																<asc_sop></asc_sop>
																<asc_sat></asc_sat>
																<lut2></lut2>
															</colorinfo>
															<labels>
																<label2>Violet</label2>
															</labels>
														</clipitem>
														<clipitem id="clipitem-245">
															<masterclipid>masterclip-169</masterclipid>
															<name>726048_Longboarding   Downhill Mountains Thrilling_By_Mirko_Paoloni_Artlist_HD.mp4</name>
															<enabled>TRUE</enabled>
															<duration>1009</duration>
															<rate>
																<timebase>30</timebase>
																<ntsc>TRUE</ntsc>
															</rate>
															<start>2400</start>
															<end>2828</end>
															<in>0</in>
															<out>428</out>
															<pproTicksIn>0</pproTicksIn>
															<pproTicksOut>3627585561600</pproTicksOut>
															<alphatype>none</alphatype>
															<pixelaspectratio>square</pixelaspectratio>
															<anamorphic>FALSE</anamorphic>
															<file id="file-160">
																<name>726048_Longboarding   Downhill Mountains Thrilling_By_Mirko_Paoloni_Artlist_HD.mp4</name>
																<pathurl>file://localhost/Volumes/T7/DRONE_08.18.2023/3_Raw%20Files/Longboarding/726048_Longboarding%20%20%20Downhill%20Mountains%20Thrilling_By_Mirko_Paoloni_Artlist_HD.mp4</pathurl>
																<rate>
																	<timebase>25</timebase>
																	<ntsc>FALSE</ntsc>
																</rate>
																<duration>842</duration>
																<timecode>
																	<rate>
																		<timebase>25</timebase>
																		<ntsc>FALSE</ntsc>
																	</rate>
																	<string>00:00:00:00</string>
																	<frame>0</frame>
																	<displayformat>NDF</displayformat>
																</timecode>
																<media>
																	<video>
																		<samplecharacteristics>
																			<rate>
																				<timebase>25</timebase>
																				<ntsc>FALSE</ntsc>
																			</rate>
																			<width>1920</width>
																			<height>1080</height>
																			<anamorphic>FALSE</anamorphic>
																			<pixelaspectratio>square</pixelaspectratio>
																			<fielddominance>none</fielddominance>
																		</samplecharacteristics>
																	</video>
																</media>
															</file>
															<logginginfo>
																<description></description>
																<scene></scene>
																<shottake></shottake>
																<lognote></lognote>
																<good></good>
																<originalvideofilename></originalvideofilename>
																<originalaudiofilename></originalaudiofilename>
															</logginginfo>
															<colorinfo>
																<lut></lut>
																<lut1></lut1>
																<asc_sop></asc_sop>
																<asc_sat></asc_sat>
																<lut2></lut2>
															</colorinfo>
															<labels>
																<label2>Violet</label2>
															</labels>
														</clipitem>
														<clipitem id="clipitem-246">
															<masterclipid>masterclip-170</masterclipid>
															<name>726023_Riding Boardsport Downhill Longboarding  _By_Mirko_Paoloni_Artlist_HD.mp4</name>
															<enabled>TRUE</enabled>
															<duration>106</duration>
															<rate>
																<timebase>30</timebase>
																<ntsc>TRUE</ntsc>
															</rate>
															<start>2828</start>
															<end>2917</end>
															<in>0</in>
															<out>89</out>
															<pproTicksIn>0</pproTicksIn>
															<pproTicksOut>754334380800</pproTicksOut>
															<alphatype>none</alphatype>
															<pixelaspectratio>square</pixelaspectratio>
															<anamorphic>FALSE</anamorphic>
															<file id="file-161">
																<name>726023_Riding Boardsport Downhill Longboarding  _By_Mirko_Paoloni_Artlist_HD.mp4</name>
																<pathurl>file://localhost/Volumes/T7/DRONE_08.18.2023/3_Raw%20Files/Longboarding/726023_Riding%20Boardsport%20Downhill%20Longboarding%20%20_By_Mirko_Paoloni_Artlist_HD.mp4</pathurl>
																<rate>
																	<timebase>25</timebase>
																	<ntsc>FALSE</ntsc>
																</rate>
																<duration>89</duration>
																<timecode>
																	<rate>
																		<timebase>25</timebase>
																		<ntsc>FALSE</ntsc>
																	</rate>
																	<string>00:00:00:00</string>
																	<frame>0</frame>
																	<displayformat>NDF</displayformat>
																</timecode>
																<media>
																	<video>
																		<samplecharacteristics>
																			<rate>
																				<timebase>25</timebase>
																				<ntsc>FALSE</ntsc>
																			</rate>
																			<width>1920</width>
																			<height>1080</height>
																			<anamorphic>FALSE</anamorphic>
																			<pixelaspectratio>square</pixelaspectratio>
																			<fielddominance>none</fielddominance>
																		</samplecharacteristics>
																	</video>
																</media>
															</file>
															<logginginfo>
																<description></description>
																<scene></scene>
																<shottake></shottake>
																<lognote></lognote>
																<good></good>
																<originalvideofilename></originalvideofilename>
																<originalaudiofilename></originalaudiofilename>
															</logginginfo>
															<colorinfo>
																<lut></lut>
																<lut1></lut1>
																<asc_sop></asc_sop>
																<asc_sat></asc_sat>
																<lut2></lut2>
															</colorinfo>
															<labels>
																<label2>Violet</label2>
															</labels>
														</clipitem>
														<clipitem id="clipitem-247">
															<masterclipid>masterclip-171</masterclipid>
															<name>726008_Riding Thrilling Downhill Longboard_By_Mirko_Paoloni_Artlist_HD.mp4</name>
															<enabled>TRUE</enabled>
															<duration>304</duration>
															<rate>
																<timebase>30</timebase>
																<ntsc>TRUE</ntsc>
															</rate>
															<start>2917</start>
															<end>3171</end>
															<in>0</in>
															<out>254</out>
															<pproTicksIn>0</pproTicksIn>
															<pproTicksOut>2152819468800</pproTicksOut>
															<alphatype>none</alphatype>
															<pixelaspectratio>square</pixelaspectratio>
															<anamorphic>FALSE</anamorphic>
															<file id="file-162">
																<name>726008_Riding Thrilling Downhill Longboard_By_Mirko_Paoloni_Artlist_HD.mp4</name>
																<pathurl>file://localhost/Volumes/T7/DRONE_08.18.2023/3_Raw%20Files/Longboarding/726008_Riding%20Thrilling%20Downhill%20Longboard_By_Mirko_Paoloni_Artlist_HD.mp4</pathurl>
																<rate>
																	<timebase>25</timebase>
																	<ntsc>FALSE</ntsc>
																</rate>
																<duration>254</duration>
																<timecode>
																	<rate>
																		<timebase>25</timebase>
																		<ntsc>FALSE</ntsc>
																	</rate>
																	<string>00:00:00:00</string>
																	<frame>0</frame>
																	<displayformat>NDF</displayformat>
																</timecode>
																<media>
																	<video>
																		<samplecharacteristics>
																			<rate>
																				<timebase>25</timebase>
																				<ntsc>FALSE</ntsc>
																			</rate>
																			<width>1920</width>
																			<height>1080</height>
																			<anamorphic>FALSE</anamorphic>
																			<pixelaspectratio>square</pixelaspectratio>
																			<fielddominance>none</fielddominance>
																		</samplecharacteristics>
																	</video>
																</media>
															</file>
															<logginginfo>
																<description></description>
																<scene></scene>
																<shottake></shottake>
																<lognote></lognote>
																<good></good>
																<originalvideofilename></originalvideofilename>
																<originalaudiofilename></originalaudiofilename>
															</logginginfo>
															<colorinfo>
																<lut></lut>
																<lut1></lut1>
																<asc_sop></asc_sop>
																<asc_sat></asc_sat>
																<lut2></lut2>
															</colorinfo>
															<labels>
																<label2>Violet</label2>
															</labels>
														</clipitem>
														<clipitem id="clipitem-248">
															<masterclipid>masterclip-172</masterclipid>
															<name>726030_Downhill Longboarding   Hills Fpv Drone_By_Mirko_Paoloni_Artlist_HD.mp4</name>
															<enabled>TRUE</enabled>
															<duration>620</duration>
															<rate>
																<timebase>30</timebase>
																<ntsc>TRUE</ntsc>
															</rate>
															<start>3171</start>
															<end>3689</end>
															<in>0</in>
															<out>518</out>
															<pproTicksIn>0</pproTicksIn>
															<pproTicksOut>4390395609600</pproTicksOut>
															<alphatype>none</alphatype>
															<pixelaspectratio>square</pixelaspectratio>
															<anamorphic>FALSE</anamorphic>
															<file id="file-163">
																<name>726030_Downhill Longboarding   Hills Fpv Drone_By_Mirko_Paoloni_Artlist_HD.mp4</name>
																<pathurl>file://localhost/Volumes/T7/DRONE_08.18.2023/3_Raw%20Files/Longboarding/726030_Downhill%20Longboarding%20%20%20Hills%20Fpv%20Drone_By_Mirko_Paoloni_Artlist_HD.mp4</pathurl>
																<rate>
																	<timebase>25</timebase>
																	<ntsc>FALSE</ntsc>
																</rate>
																<duration>518</duration>
																<timecode>
																	<rate>
																		<timebase>25</timebase>
																		<ntsc>FALSE</ntsc>
																	</rate>
																	<string>00:00:00:00</string>
																	<frame>0</frame>
																	<displayformat>NDF</displayformat>
																</timecode>
																<media>
																	<video>
																		<samplecharacteristics>
																			<rate>
																				<timebase>25</timebase>
																				<ntsc>FALSE</ntsc>
																			</rate>
																			<width>1920</width>
																			<height>1080</height>
																			<anamorphic>FALSE</anamorphic>
																			<pixelaspectratio>square</pixelaspectratio>
																			<fielddominance>none</fielddominance>
																		</samplecharacteristics>
																	</video>
																</media>
															</file>
															<logginginfo>
																<description></description>
																<scene></scene>
																<shottake></shottake>
																<lognote></lognote>
																<good></good>
																<originalvideofilename></originalvideofilename>
																<originalaudiofilename></originalaudiofilename>
															</logginginfo>
															<colorinfo>
																<lut></lut>
																<lut1></lut1>
																<asc_sop></asc_sop>
																<asc_sat></asc_sat>
																<lut2></lut2>
															</colorinfo>
															<labels>
																<label2>Violet</label2>
															</labels>
														</clipitem>
														<enabled>TRUE</enabled>
														<locked>FALSE</locked>
													</track>
													<track TL.SQTrackShy="0" TL.SQTrackExpandedHeight="25" TL.SQTrackExpanded="0" MZ.TrackTargeted="0">
														<enabled>TRUE</enabled>
														<locked>FALSE</locked>
													</track>
													<track TL.SQTrackShy="0" TL.SQTrackExpandedHeight="25" TL.SQTrackExpanded="0" MZ.TrackTargeted="0">
														<enabled>TRUE</enabled>
														<locked>FALSE</locked>
													</track>
												</video>
												<audio>
													<numOutputChannels>2</numOutputChannels>
													<format>
														<samplecharacteristics>
															<depth>16</depth>
															<samplerate>48000</samplerate>
														</samplecharacteristics>
													</format>
													<outputs>
														<group>
															<index>1</index>
															<numchannels>1</numchannels>
															<downmix>0</downmix>
															<channel>
																<index>1</index>
															</channel>
														</group>
														<group>
															<index>2</index>
															<numchannels>1</numchannels>
															<downmix>0</downmix>
															<channel>
																<index>2</index>
															</channel>
														</group>
													</outputs>
													<track TL.SQTrackAudioKeyframeStyle="0" TL.SQTrackShy="0" TL.SQTrackExpandedHeight="25" TL.SQTrackExpanded="0" MZ.TrackTargeted="1" PannerCurrentValue="0.5" PannerIsInverted="true" PannerStartKeyframe="-91445760000000000,0.5,0,0,0,0,0,0" PannerName="Balance" currentExplodedTrackIndex="0" totalExplodedTrackCount="2" premiereTrackType="Stereo">
														<transitionitem>
															<start>0</start>
															<end>7</end>
															<pproTicksIn>0</pproTicksIn>
															<pproTicksOut>59329670400</pproTicksOut>
															<alignment>start-black</alignment>
															<cutPointTicks>0</cutPointTicks>
															<rate>
																<timebase>30</timebase>
																<ntsc>TRUE</ntsc>
															</rate>
															<effect>
																<name>Cross Fade ( 0dB)</name>
																<effectid>KGAudioTransCrossFade0dB</effectid>
																<effecttype>transition</effecttype>
																<mediatype>audio</mediatype>
																<wipecode>0</wipecode>
																<wipeaccuracy>100</wipeaccuracy>
																<startratio>0</startratio>
																<endratio>1</endratio>
																<reverse>FALSE</reverse>
															</effect>
														</transitionitem>
														<clipitem id="clipitem-249" premiereChannelType="stereo">
															<masterclipid>masterclip-173</masterclipid>
															<name>ES_Envied - dreem.mp3</name>
															<enabled>TRUE</enabled>
															<duration>4397</duration>
															<rate>
																<timebase>30</timebase>
																<ntsc>TRUE</ntsc>
															</rate>
															<start>-1</start>
															<end>-1</end>
															<in>347</in>
															<out>4036</out>
															<pproTicksIn>2941056518400</pproTicksIn>
															<pproTicksOut>34207792819200</pproTicksOut>
															<file id="file-164">
																<name>ES_Envied - dreem.mp3</name>
																<pathurl>file://localhost/Volumes/T7/DRONE_08.18.2023/5_Music/ES_Envied%20-%20dreem.mp3</pathurl>
																<rate>
																	<timebase>30</timebase>
																	<ntsc>TRUE</ntsc>
																</rate>
																<duration>4397</duration>
																<timecode>
																	<rate>
																		<timebase>30</timebase>
																		<ntsc>TRUE</ntsc>
																	</rate>
																	<string>00;00;00;00</string>
																	<frame>0</frame>
																	<displayformat>DF</displayformat>
																</timecode>
																<media>
																	<audio>
																		<samplecharacteristics>
																			<depth>16</depth>
																			<samplerate>48000</samplerate>
																		</samplecharacteristics>
																		<channelcount>2</channelcount>
																	</audio>
																</media>
															</file>
															<sourcetrack>
																<mediatype>audio</mediatype>
																<trackindex>1</trackindex>
															</sourcetrack>
															<link>
																<linkclipref>clipitem-249</linkclipref>
																<mediatype>audio</mediatype>
																<trackindex>1</trackindex>
																<clipindex>2</clipindex>
																<groupindex>1</groupindex>
															</link>
															<link>
																<linkclipref>clipitem-250</linkclipref>
																<mediatype>audio</mediatype>
																<trackindex>2</trackindex>
																<clipindex>2</clipindex>
																<groupindex>1</groupindex>
															</link>
															<logginginfo>
																<description></description>
																<scene></scene>
																<shottake></shottake>
																<lognote></lognote>
																<good></good>
																<originalvideofilename></originalvideofilename>
																<originalaudiofilename></originalaudiofilename>
															</logginginfo>
															<colorinfo>
																<lut></lut>
																<lut1></lut1>
																<asc_sop></asc_sop>
																<asc_sat></asc_sat>
																<lut2></lut2>
															</colorinfo>
															<labels>
																<label2>Caribbean</label2>
															</labels>
														</clipitem>
														<transitionitem>
															<start>3682</start>
															<end>3689</end>
															<pproTicksIn>31207406630400</pproTicksIn>
															<pproTicksOut>31266736300800</pproTicksOut>
															<alignment>end-black</alignment>
															<cutPointTicks>59329670400</cutPointTicks>
															<rate>
																<timebase>30</timebase>
																<ntsc>TRUE</ntsc>
															</rate>
															<effect>
																<name>Cross Fade ( 0dB)</name>
																<effectid>KGAudioTransCrossFade0dB</effectid>
																<effecttype>transition</effecttype>
																<mediatype>audio</mediatype>
																<wipecode>0</wipecode>
																<wipeaccuracy>100</wipeaccuracy>
																<startratio>0</startratio>
																<endratio>1</endratio>
																<reverse>FALSE</reverse>
															</effect>
														</transitionitem>
														<enabled>TRUE</enabled>
														<locked>FALSE</locked>
														<outputchannelindex>1</outputchannelindex>
													</track>
													<track TL.SQTrackAudioKeyframeStyle="0" TL.SQTrackShy="0" TL.SQTrackExpandedHeight="25" TL.SQTrackExpanded="0" MZ.TrackTargeted="1" PannerCurrentValue="0.5" PannerIsInverted="true" PannerStartKeyframe="-91445760000000000,0.5,0,0,0,0,0,0" PannerName="Balance" currentExplodedTrackIndex="1" totalExplodedTrackCount="2" premiereTrackType="Stereo">
														<transitionitem>
															<start>0</start>
															<end>7</end>
															<pproTicksIn>0</pproTicksIn>
															<pproTicksOut>59329670400</pproTicksOut>
															<alignment>start-black</alignment>
															<cutPointTicks>0</cutPointTicks>
															<rate>
																<timebase>30</timebase>
																<ntsc>TRUE</ntsc>
															</rate>
															<effect>
																<name>Cross Fade ( 0dB)</name>
																<effectid>KGAudioTransCrossFade0dB</effectid>
																<effecttype>transition</effecttype>
																<mediatype>audio</mediatype>
																<wipecode>0</wipecode>
																<wipeaccuracy>100</wipeaccuracy>
																<startratio>0</startratio>
																<endratio>1</endratio>
																<reverse>FALSE</reverse>
															</effect>
														</transitionitem>
														<clipitem id="clipitem-250" premiereChannelType="stereo">
															<masterclipid>masterclip-173</masterclipid>
															<name>ES_Envied - dreem.mp3</name>
															<enabled>TRUE</enabled>
															<duration>4397</duration>
															<rate>
																<timebase>30</timebase>
																<ntsc>TRUE</ntsc>
															</rate>
															<start>-1</start>
															<end>-1</end>
															<in>347</in>
															<out>4036</out>
															<pproTicksIn>2941056518400</pproTicksIn>
															<pproTicksOut>34207792819200</pproTicksOut>
															<file id="file-164"/>
															<sourcetrack>
																<mediatype>audio</mediatype>
																<trackindex>2</trackindex>
															</sourcetrack>
															<link>
																<linkclipref>clipitem-249</linkclipref>
																<mediatype>audio</mediatype>
																<trackindex>1</trackindex>
																<clipindex>2</clipindex>
																<groupindex>1</groupindex>
															</link>
															<link>
																<linkclipref>clipitem-250</linkclipref>
																<mediatype>audio</mediatype>
																<trackindex>2</trackindex>
																<clipindex>2</clipindex>
																<groupindex>1</groupindex>
															</link>
															<logginginfo>
																<description></description>
																<scene></scene>
																<shottake></shottake>
																<lognote></lognote>
																<good></good>
																<originalvideofilename></originalvideofilename>
																<originalaudiofilename></originalaudiofilename>
															</logginginfo>
															<colorinfo>
																<lut></lut>
																<lut1></lut1>
																<asc_sop></asc_sop>
																<asc_sat></asc_sat>
																<lut2></lut2>
															</colorinfo>
															<labels>
																<label2>Caribbean</label2>
															</labels>
														</clipitem>
														<transitionitem>
															<start>3682</start>
															<end>3689</end>
															<pproTicksIn>31207406630400</pproTicksIn>
															<pproTicksOut>31266736300800</pproTicksOut>
															<alignment>end-black</alignment>
															<cutPointTicks>59329670400</cutPointTicks>
															<rate>
																<timebase>30</timebase>
																<ntsc>TRUE</ntsc>
															</rate>
															<effect>
																<name>Cross Fade ( 0dB)</name>
																<effectid>KGAudioTransCrossFade0dB</effectid>
																<effecttype>transition</effecttype>
																<mediatype>audio</mediatype>
																<wipecode>0</wipecode>
																<wipeaccuracy>100</wipeaccuracy>
																<startratio>0</startratio>
																<endratio>1</endratio>
																<reverse>FALSE</reverse>
															</effect>
														</transitionitem>
														<enabled>TRUE</enabled>
														<locked>FALSE</locked>
														<outputchannelindex>2</outputchannelindex>
													</track>
													<track TL.SQTrackAudioKeyframeStyle="0" TL.SQTrackShy="0" TL.SQTrackExpandedHeight="25" TL.SQTrackExpanded="0" MZ.TrackTargeted="1" PannerCurrentValue="0.5" PannerIsInverted="true" PannerStartKeyframe="-91445760000000000,0.5,0,0,0,0,0,0" PannerName="Balance" currentExplodedTrackIndex="0" totalExplodedTrackCount="2" premiereTrackType="Stereo">
														<enabled>TRUE</enabled>
														<locked>FALSE</locked>
														<outputchannelindex>1</outputchannelindex>
													</track>
													<track TL.SQTrackAudioKeyframeStyle="0" TL.SQTrackShy="0" TL.SQTrackExpandedHeight="25" TL.SQTrackExpanded="0" MZ.TrackTargeted="1" PannerCurrentValue="0.5" PannerIsInverted="true" PannerStartKeyframe="-91445760000000000,0.5,0,0,0,0,0,0" PannerName="Balance" currentExplodedTrackIndex="1" totalExplodedTrackCount="2" premiereTrackType="Stereo">
														<enabled>TRUE</enabled>
														<locked>FALSE</locked>
														<outputchannelindex>2</outputchannelindex>
													</track>
													<track TL.SQTrackAudioKeyframeStyle="0" TL.SQTrackShy="0" TL.SQTrackExpandedHeight="25" TL.SQTrackExpanded="0" MZ.TrackTargeted="1" PannerCurrentValue="0.5" PannerIsInverted="true" PannerStartKeyframe="-91445760000000000,0.5,0,0,0,0,0,0" PannerName="Balance" currentExplodedTrackIndex="0" totalExplodedTrackCount="2" premiereTrackType="Stereo">
														<enabled>TRUE</enabled>
														<locked>FALSE</locked>
														<outputchannelindex>1</outputchannelindex>
													</track>
													<track TL.SQTrackAudioKeyframeStyle="0" TL.SQTrackShy="0" TL.SQTrackExpandedHeight="25" TL.SQTrackExpanded="0" MZ.TrackTargeted="1" PannerCurrentValue="0.5" PannerIsInverted="true" PannerStartKeyframe="-91445760000000000,0.5,0,0,0,0,0,0" PannerName="Balance" currentExplodedTrackIndex="1" totalExplodedTrackCount="2" premiereTrackType="Stereo">
														<enabled>TRUE</enabled>
														<locked>FALSE</locked>
														<outputchannelindex>2</outputchannelindex>
													</track>
												</audio>
											</media>
											<timecode>
												<rate>
													<timebase>30</timebase>
													<ntsc>TRUE</ntsc>
												</rate>
												<string>00;00;00;00</string>
												<frame>0</frame>
												<displayformat>DF</displayformat>
											</timecode>
											<logginginfo>
												<description></description>
												<scene></scene>
												<shottake></shottake>
												<lognote></lognote>
												<good></good>
												<originalvideofilename></originalvideofilename>
												<originalaudiofilename></originalaudiofilename>
											</logginginfo>
											<filter>
												<effect>
													<name>Audio Levels</name>
													<effectid>audiolevels</effectid>
													<effectcategory>audiolevels</effectcategory>
													<effecttype>audiolevels</effecttype>
													<mediatype>audio</mediatype>
													<parameter authoringApp="PremierePro">
														<parameterid>level</parameterid>
														<name>Level</name>
														<valuemin>0</valuemin>
														<valuemax>3.98109</valuemax>
														<value>0.839406</value>
													</parameter>
												</effect>
											</filter>
										</sequence>
										<link>
											<linkclipref>clipitem-238</linkclipref>
											<mediatype>video</mediatype>
											<trackindex>1</trackindex>
											<clipindex>1</clipindex>
										</link>
										<link>
											<linkclipref>clipitem-270</linkclipref>
											<mediatype>audio</mediatype>
											<trackindex>1</trackindex>
											<clipindex>1</clipindex>
											<groupindex>1</groupindex>
										</link>
										<link>
											<linkclipref>clipitem-273</linkclipref>
											<mediatype>audio</mediatype>
											<trackindex>2</trackindex>
											<clipindex>1</clipindex>
											<groupindex>1</groupindex>
										</link>
										<labels>
											<label2>Forest</label2>
										</labels>
									</clipitem>
									<clipitem id="clipitem-251">
										<masterclipid>masterclip-174</masterclipid>
										<name>DRONE_Fireworks_1</name>
										<enabled>TRUE</enabled>
										<duration>5844</duration>
										<rate>
											<timebase>30</timebase>
											<ntsc>TRUE</ntsc>
										</rate>
										<start>3913</start>
										<end>5397</end>
										<in>0</in>
										<out>1484</out>
										<pproTicksIn>0</pproTicksIn>
										<pproTicksOut>12577890124800</pproTicksOut>
										<sequence id="sequence-12" TL.SQAudioVisibleBase="0" TL.SQVideoVisibleBase="0" TL.SQVisibleBaseTime="0" TL.SQAVDividerPosition="0.5" TL.SQHideShyTracks="0" TL.SQHeaderWidth="236" TL.SQDataTrackViewControlState="0" Monitor.ProgramZoomOut="12984722150400" Monitor.ProgramZoomIn="839091052800" TL.SQTimePerPixel="0.25182274130493454" MZ.EditLine="839091052800" MZ.Sequence.PreviewFrameSizeHeight="1080" MZ.Sequence.PreviewFrameSizeWidth="1920" MZ.Sequence.AudioTimeDisplayFormat="200" MZ.Sequence.PreviewRenderingClassID="1297106761" MZ.Sequence.PreviewRenderingPresetCodec="1297107278" MZ.Sequence.PreviewRenderingPresetPath="EncoderPresets/SequencePreview/795454d9-d3c2-429d-9474-923ab13b7018/I-Frame Only MPEG.epr" MZ.Sequence.PreviewUseMaxRenderQuality="false" MZ.Sequence.PreviewUseMaxBitDepth="false" MZ.Sequence.EditingModeGUID="795454d9-d3c2-429d-9474-923ab13b7018" MZ.Sequence.VideoTimeDisplayFormat="102" MZ.WorkOutPoint="12984722150400" MZ.WorkInPoint="0">
											<duration>1532</duration>
											<rate>
												<timebase>30</timebase>
												<ntsc>TRUE</ntsc>
											</rate>
											<name>DRONE_Fireworks in Faridabad_1</name>
											<media>
												<video>
													<format>
														<samplecharacteristics>
															<rate>
																<timebase>30</timebase>
																<ntsc>TRUE</ntsc>
															</rate>
															<codec>
																<name>Apple ProRes 422</name>
																<appspecificdata>
																	<appname>Final Cut Pro</appname>
																	<appmanufacturer>Apple Inc.</appmanufacturer>
																	<appversion>7.0</appversion>
																	<data>
																		<qtcodec>
																			<codecname>Apple ProRes 422</codecname>
																			<codectypename>Apple ProRes 422</codectypename>
																			<codectypecode>apcn</codectypecode>
																			<codecvendorcode>appl</codecvendorcode>
																			<spatialquality>1024</spatialquality>
																			<temporalquality>0</temporalquality>
																			<keyframerate>0</keyframerate>
																			<datarate>0</datarate>
																		</qtcodec>
																	</data>
																</appspecificdata>
															</codec>
															<width>1920</width>
															<height>1080</height>
															<anamorphic>FALSE</anamorphic>
															<pixelaspectratio>square</pixelaspectratio>
															<fielddominance>none</fielddominance>
															<colordepth>24</colordepth>
														</samplecharacteristics>
													</format>
													<track TL.SQTrackShy="0" TL.SQTrackExpandedHeight="25" TL.SQTrackExpanded="0" MZ.TrackTargeted="1">
														<clipitem id="clipitem-252">
															<masterclipid>masterclip-175</masterclipid>
															<name>(Prohdigyy)_FIREWORKS with FPV Drone _ India_e7w5lkml0wE_YT.mp4</name>
															<enabled>TRUE</enabled>
															<duration>1532</duration>
															<rate>
																<timebase>30</timebase>
																<ntsc>TRUE</ntsc>
															</rate>
															<start>0</start>
															<end>1532</end>
															<in>0</in>
															<out>1532</out>
															<pproTicksIn>0</pproTicksIn>
															<pproTicksOut>12984722150400</pproTicksOut>
															<alphatype>none</alphatype>
															<pixelaspectratio>square</pixelaspectratio>
															<anamorphic>FALSE</anamorphic>
															<file id="file-165">
																<name>(Prohdigyy)_FIREWORKS with FPV Drone _ India_e7w5lkml0wE_YT.mp4</name>
																<pathurl>file://localhost/Volumes/T7/DRONE_08.18.2023/3_Raw%20Files/Various%20Files/(Prohdigyy)_FIREWORKS%20with%20FPV%20Drone%20_%20India_e7w5lkml0wE_YT.mp4</pathurl>
																<rate>
																	<timebase>25</timebase>
																	<ntsc>FALSE</ntsc>
																</rate>
																<duration>1278</duration>
																<timecode>
																	<rate>
																		<timebase>25</timebase>
																		<ntsc>FALSE</ntsc>
																	</rate>
																	<string>00:00:00:00</string>
																	<frame>0</frame>
																	<displayformat>NDF</displayformat>
																</timecode>
																<media>
																	<video>
																		<samplecharacteristics>
																			<rate>
																				<timebase>25</timebase>
																				<ntsc>FALSE</ntsc>
																			</rate>
																			<width>1920</width>
																			<height>1080</height>
																			<anamorphic>FALSE</anamorphic>
																			<pixelaspectratio>square</pixelaspectratio>
																			<fielddominance>none</fielddominance>
																		</samplecharacteristics>
																	</video>
																	<audio>
																		<samplecharacteristics>
																			<depth>16</depth>
																			<samplerate>44100</samplerate>
																		</samplecharacteristics>
																		<channelcount>2</channelcount>
																	</audio>
																</media>
															</file>
															<filter>
																<effect>
																	<name>Basic Motion</name>
																	<effectid>basic</effectid>
																	<effectcategory>motion</effectcategory>
																	<effecttype>motion</effecttype>
																	<mediatype>video</mediatype>
																	<pproBypass>false</pproBypass>
																	<parameter authoringApp="PremierePro">
																		<parameterid>scale</parameterid>
																		<name>Scale</name>
																		<valuemin>0</valuemin>
																		<valuemax>1000</valuemax>
																		<value>145</value>
																	</parameter>
																	<parameter authoringApp="PremierePro">
																		<parameterid>rotation</parameterid>
																		<name>Rotation</name>
																		<valuemin>-8640</valuemin>
																		<valuemax>8640</valuemax>
																		<value>0</value>
																	</parameter>
																	<parameter authoringApp="PremierePro">
																		<parameterid>center</parameterid>
																		<name>Center</name>
																		<value>
																			<horiz>0</horiz>
																			<vert>0.0953704</vert>
																		</value>
																	</parameter>
																	<parameter authoringApp="PremierePro">
																		<parameterid>centerOffset</parameterid>
																		<name>Anchor Point</name>
																		<value>
																			<horiz>0</horiz>
																			<vert>0</vert>
																		</value>
																	</parameter>
																	<parameter authoringApp="PremierePro">
																		<parameterid>antiflicker</parameterid>
																		<name>Anti-flicker Filter</name>
																		<valuemin>0.0</valuemin>
																		<valuemax>1.0</valuemax>
																		<value>0</value>
																	</parameter>
																</effect>
															</filter>
															<logginginfo>
																<description></description>
																<scene></scene>
																<shottake></shottake>
																<lognote>https://www.youtube.com/watch?v=e7w5lkml0wE</lognote>
																<good></good>
																<originalvideofilename></originalvideofilename>
																<originalaudiofilename></originalaudiofilename>
															</logginginfo>
															<colorinfo>
																<lut></lut>
																<lut1></lut1>
																<asc_sop></asc_sop>
																<asc_sat></asc_sat>
																<lut2></lut2>
															</colorinfo>
															<labels>
																<label2>Iris</label2>
															</labels>
														</clipitem>
														<enabled>TRUE</enabled>
														<locked>FALSE</locked>
													</track>
													<track TL.SQTrackShy="0" TL.SQTrackExpandedHeight="25" TL.SQTrackExpanded="0" MZ.TrackTargeted="0">
														<clipitem id="clipitem-253">
															<masterclipid>masterclip-176</masterclipid>
															<name>Attribution</name>
															<enabled>TRUE</enabled>
															<duration>5844</duration>
															<rate>
																<timebase>30</timebase>
																<ntsc>TRUE</ntsc>
															</rate>
															<start>0</start>
															<end>1532</end>
															<in>0</in>
															<out>1532</out>
															<pproTicksIn>0</pproTicksIn>
															<pproTicksOut>12984722150400</pproTicksOut>
															<alphatype>straight</alphatype>
															<pixelaspectratio>square</pixelaspectratio>
															<anamorphic>FALSE</anamorphic>
															<file id="file-166">
																<name>1080/AE Attribution.aep</name>
																<pathurl>file://localhost/Volumes/T7/DRONE_08.18.2023/4_Project%20Files/Drone%202023%20Master%20Assets/01_Bugs/AE%20Attribution.aep</pathurl>
																<rate>
																	<timebase>30</timebase>
																	<ntsc>TRUE</ntsc>
																</rate>
																<duration>5844</duration>
																<timecode>
																	<rate>
																		<timebase>30</timebase>
																		<ntsc>TRUE</ntsc>
																	</rate>
																	<string>00;00;00;00</string>
																	<frame>0</frame>
																	<displayformat>DF</displayformat>
																</timecode>
																<media>
																	<video>
																		<samplecharacteristics>
																			<rate>
																				<timebase>30</timebase>
																				<ntsc>TRUE</ntsc>
																			</rate>
																			<width>1920</width>
																			<height>1080</height>
																			<anamorphic>FALSE</anamorphic>
																			<pixelaspectratio>square</pixelaspectratio>
																			<fielddominance>lower</fielddominance>
																		</samplecharacteristics>
																	</video>
																</media>
															</file>
															<logginginfo>
																<description></description>
																<scene></scene>
																<shottake></shottake>
																<lognote></lognote>
																<good></good>
																<originalvideofilename></originalvideofilename>
																<originalaudiofilename></originalaudiofilename>
															</logginginfo>
															<colorinfo>
																<lut></lut>
																<lut1></lut1>
																<asc_sop></asc_sop>
																<asc_sat></asc_sat>
																<lut2></lut2>
															</colorinfo>
															<labels>
																<label2>Yellow</label2>
															</labels>
														</clipitem>
														<enabled>TRUE</enabled>
														<locked>FALSE</locked>
													</track>
												</video>
												<audio>
													<numOutputChannels>2</numOutputChannels>
													<format>
														<samplecharacteristics>
															<depth>16</depth>
															<samplerate>32000</samplerate>
														</samplecharacteristics>
													</format>
													<outputs>
														<group>
															<index>1</index>
															<numchannels>1</numchannels>
															<downmix>0</downmix>
															<channel>
																<index>1</index>
															</channel>
														</group>
														<group>
															<index>2</index>
															<numchannels>1</numchannels>
															<downmix>0</downmix>
															<channel>
																<index>2</index>
															</channel>
														</group>
													</outputs>
													<track TL.SQTrackAudioKeyframeStyle="0" TL.SQTrackShy="0" TL.SQTrackExpandedHeight="25" TL.SQTrackExpanded="0" MZ.TrackTargeted="1" PannerCurrentValue="0.5" PannerIsInverted="true" PannerStartKeyframe="-91445760000000000,0.5,0,0,0,0,0,0" PannerName="Balance" currentExplodedTrackIndex="0" totalExplodedTrackCount="2" premiereTrackType="Stereo">
														<transitionitem>
															<start>0</start>
															<end>7</end>
															<pproTicksIn>0</pproTicksIn>
															<pproTicksOut>59329670400</pproTicksOut>
															<alignment>start-black</alignment>
															<cutPointTicks>0</cutPointTicks>
															<rate>
																<timebase>30</timebase>
																<ntsc>TRUE</ntsc>
															</rate>
															<effect>
																<name>Cross Fade ( 0dB)</name>
																<effectid>KGAudioTransCrossFade0dB</effectid>
																<effecttype>transition</effecttype>
																<mediatype>audio</mediatype>
																<wipecode>0</wipecode>
																<wipeaccuracy>100</wipeaccuracy>
																<startratio>0</startratio>
																<endratio>1</endratio>
																<reverse>FALSE</reverse>
															</effect>
														</transitionitem>
														<clipitem id="clipitem-254" premiereChannelType="stereo">
															<masterclipid>masterclip-177</masterclipid>
															<name>ES_Chemistry! (Instrumental Version) - Flux Vortex.mp3</name>
															<enabled>TRUE</enabled>
															<duration>5985</duration>
															<rate>
																<timebase>30</timebase>
																<ntsc>TRUE</ntsc>
															</rate>
															<start>-1</start>
															<end>1532</end>
															<in>676</in>
															<out>2208</out>
															<pproTicksIn>5729551027200</pproTicksIn>
															<pproTicksOut>18714273177600</pproTicksOut>
															<file id="file-167">
																<name>ES_Chemistry! (Instrumental Version) - Flux Vortex.mp3</name>
																<pathurl>file://localhost/Volumes/T7/DRONE_08.18.2023/5_Music/ES_Chemistry!%20(Instrumental%20Version)%20-%20Flux%20Vortex.mp3</pathurl>
																<rate>
																	<timebase>30</timebase>
																	<ntsc>TRUE</ntsc>
																</rate>
																<duration>5985</duration>
																<timecode>
																	<rate>
																		<timebase>30</timebase>
																		<ntsc>TRUE</ntsc>
																	</rate>
																	<string>00;00;00;00</string>
																	<frame>0</frame>
																	<displayformat>DF</displayformat>
																</timecode>
																<media>
																	<audio>
																		<samplecharacteristics>
																			<depth>16</depth>
																			<samplerate>48000</samplerate>
																		</samplecharacteristics>
																		<channelcount>2</channelcount>
																	</audio>
																</media>
															</file>
															<sourcetrack>
																<mediatype>audio</mediatype>
																<trackindex>1</trackindex>
															</sourcetrack>
															<link>
																<linkclipref>clipitem-254</linkclipref>
																<mediatype>audio</mediatype>
																<trackindex>1</trackindex>
																<clipindex>2</clipindex>
																<groupindex>1</groupindex>
															</link>
															<link>
																<linkclipref>clipitem-255</linkclipref>
																<mediatype>audio</mediatype>
																<trackindex>2</trackindex>
																<clipindex>2</clipindex>
																<groupindex>1</groupindex>
															</link>
															<logginginfo>
																<description></description>
																<scene></scene>
																<shottake></shottake>
																<lognote></lognote>
																<good></good>
																<originalvideofilename></originalvideofilename>
																<originalaudiofilename></originalaudiofilename>
															</logginginfo>
															<colorinfo>
																<lut></lut>
																<lut1></lut1>
																<asc_sop></asc_sop>
																<asc_sat></asc_sat>
																<lut2></lut2>
															</colorinfo>
															<labels>
																<label2>Caribbean</label2>
															</labels>
														</clipitem>
														<enabled>TRUE</enabled>
														<locked>FALSE</locked>
														<outputchannelindex>1</outputchannelindex>
													</track>
													<track TL.SQTrackAudioKeyframeStyle="0" TL.SQTrackShy="0" TL.SQTrackExpandedHeight="25" TL.SQTrackExpanded="0" MZ.TrackTargeted="1" PannerCurrentValue="0.5" PannerIsInverted="true" PannerStartKeyframe="-91445760000000000,0.5,0,0,0,0,0,0" PannerName="Balance" currentExplodedTrackIndex="1" totalExplodedTrackCount="2" premiereTrackType="Stereo">
														<transitionitem>
															<start>0</start>
															<end>7</end>
															<pproTicksIn>0</pproTicksIn>
															<pproTicksOut>59329670400</pproTicksOut>
															<alignment>start-black</alignment>
															<cutPointTicks>0</cutPointTicks>
															<rate>
																<timebase>30</timebase>
																<ntsc>TRUE</ntsc>
															</rate>
															<effect>
																<name>Cross Fade ( 0dB)</name>
																<effectid>KGAudioTransCrossFade0dB</effectid>
																<effecttype>transition</effecttype>
																<mediatype>audio</mediatype>
																<wipecode>0</wipecode>
																<wipeaccuracy>100</wipeaccuracy>
																<startratio>0</startratio>
																<endratio>1</endratio>
																<reverse>FALSE</reverse>
															</effect>
														</transitionitem>
														<clipitem id="clipitem-255" premiereChannelType="stereo">
															<masterclipid>masterclip-177</masterclipid>
															<name>ES_Chemistry! (Instrumental Version) - Flux Vortex.mp3</name>
															<enabled>TRUE</enabled>
															<duration>5985</duration>
															<rate>
																<timebase>30</timebase>
																<ntsc>TRUE</ntsc>
															</rate>
															<start>-1</start>
															<end>1532</end>
															<in>676</in>
															<out>2208</out>
															<pproTicksIn>5729551027200</pproTicksIn>
															<pproTicksOut>18714273177600</pproTicksOut>
															<file id="file-167"/>
															<sourcetrack>
																<mediatype>audio</mediatype>
																<trackindex>2</trackindex>
															</sourcetrack>
															<link>
																<linkclipref>clipitem-254</linkclipref>
																<mediatype>audio</mediatype>
																<trackindex>1</trackindex>
																<clipindex>2</clipindex>
																<groupindex>1</groupindex>
															</link>
															<link>
																<linkclipref>clipitem-255</linkclipref>
																<mediatype>audio</mediatype>
																<trackindex>2</trackindex>
																<clipindex>2</clipindex>
																<groupindex>1</groupindex>
															</link>
															<logginginfo>
																<description></description>
																<scene></scene>
																<shottake></shottake>
																<lognote></lognote>
																<good></good>
																<originalvideofilename></originalvideofilename>
																<originalaudiofilename></originalaudiofilename>
															</logginginfo>
															<colorinfo>
																<lut></lut>
																<lut1></lut1>
																<asc_sop></asc_sop>
																<asc_sat></asc_sat>
																<lut2></lut2>
															</colorinfo>
															<labels>
																<label2>Caribbean</label2>
															</labels>
														</clipitem>
														<enabled>TRUE</enabled>
														<locked>FALSE</locked>
														<outputchannelindex>2</outputchannelindex>
													</track>
												</audio>
											</media>
											<timecode>
												<rate>
													<timebase>30</timebase>
													<ntsc>TRUE</ntsc>
												</rate>
												<string>00;00;00;00</string>
												<frame>0</frame>
												<displayformat>DF</displayformat>
											</timecode>
											<logginginfo>
												<description></description>
												<scene></scene>
												<shottake></shottake>
												<lognote></lognote>
												<good></good>
												<originalvideofilename></originalvideofilename>
												<originalaudiofilename></originalaudiofilename>
											</logginginfo>
											<filter>
												<effect>
													<name>Audio Levels</name>
													<effectid>audiolevels</effectid>
													<effectcategory>audiolevels</effectcategory>
													<effecttype>audiolevels</effecttype>
													<mediatype>audio</mediatype>
													<parameter authoringApp="PremierePro">
														<parameterid>level</parameterid>
														<name>Level</name>
														<valuemin>0</valuemin>
														<valuemax>3.98109</valuemax>
														<value>0.839406</value>
													</parameter>
												</effect>
											</filter>
										</sequence>
										<link>
											<linkclipref>clipitem-251</linkclipref>
											<mediatype>video</mediatype>
											<trackindex>1</trackindex>
											<clipindex>2</clipindex>
										</link>
										<link>
											<linkclipref>clipitem-271</linkclipref>
											<mediatype>audio</mediatype>
											<trackindex>1</trackindex>
											<clipindex>2</clipindex>
											<groupindex>1</groupindex>
										</link>
										<link>
											<linkclipref>clipitem-274</linkclipref>
											<mediatype>audio</mediatype>
											<trackindex>2</trackindex>
											<clipindex>2</clipindex>
											<groupindex>1</groupindex>
										</link>
										<labels>
											<label2>Forest</label2>
										</labels>
									</clipitem>
									<clipitem id="clipitem-256">
										<masterclipid>masterclip-178</masterclipid>
										<name>ATM_YouAreWatching_2.mp4</name>
										<enabled>TRUE</enabled>
										<duration>300</duration>
										<rate>
											<timebase>30</timebase>
											<ntsc>TRUE</ntsc>
										</rate>
										<start>5397</start>
										<end>5697</end>
										<in>0</in>
										<out>300</out>
										<pproTicksIn>0</pproTicksIn>
										<pproTicksOut>2542700160000</pproTicksOut>
										<alphatype>none</alphatype>
										<pixelaspectratio>square</pixelaspectratio>
										<anamorphic>FALSE</anamorphic>
										<file id="file-168">
											<name>ATM_YouAreWatching_2.mp4</name>
											<pathurl>file://localhost/Volumes/T7/DRONE_08.18.2023/4_Project%20Files/Drone%202023%20Master%20Assets/ATM_YouAreWatching_2.mp4</pathurl>
											<rate>
												<timebase>30</timebase>
												<ntsc>TRUE</ntsc>
											</rate>
											<duration>300</duration>
											<timecode>
												<rate>
													<timebase>30</timebase>
													<ntsc>TRUE</ntsc>
												</rate>
												<string>00:00:00:00</string>
												<frame>0</frame>
												<displayformat>NDF</displayformat>
											</timecode>
											<media>
												<video>
													<samplecharacteristics>
														<rate>
															<timebase>30</timebase>
															<ntsc>TRUE</ntsc>
														</rate>
														<width>1920</width>
														<height>1080</height>
														<anamorphic>FALSE</anamorphic>
														<pixelaspectratio>square</pixelaspectratio>
														<fielddominance>none</fielddominance>
													</samplecharacteristics>
												</video>
												<audio>
													<samplecharacteristics>
														<depth>16</depth>
														<samplerate>48000</samplerate>
													</samplecharacteristics>
													<channelcount>2</channelcount>
												</audio>
											</media>
										</file>
										<link>
											<linkclipref>clipitem-256</linkclipref>
											<mediatype>video</mediatype>
											<trackindex>1</trackindex>
											<clipindex>3</clipindex>
										</link>
										<link>
											<linkclipref>clipitem-272</linkclipref>
											<mediatype>audio</mediatype>
											<trackindex>1</trackindex>
											<clipindex>4</clipindex>
											<groupindex>1</groupindex>
										</link>
										<link>
											<linkclipref>clipitem-275</linkclipref>
											<mediatype>audio</mediatype>
											<trackindex>2</trackindex>
											<clipindex>4</clipindex>
											<groupindex>1</groupindex>
										</link>
										<logginginfo>
											<description></description>
											<scene></scene>
											<shottake></shottake>
											<lognote></lognote>
											<good></good>
											<originalvideofilename></originalvideofilename>
											<originalaudiofilename></originalaudiofilename>
										</logginginfo>
										<colorinfo>
											<lut></lut>
											<lut1></lut1>
											<asc_sop></asc_sop>
											<asc_sat></asc_sat>
											<lut2></lut2>
										</colorinfo>
										<labels>
											<label2>Iris</label2>
										</labels>
									</clipitem>
									<enabled>TRUE</enabled>
									<locked>FALSE</locked>
								</track>
								<track TL.SQTrackShy="0" TL.SQTrackExpandedHeight="25" TL.SQTrackExpanded="0" MZ.TrackTargeted="0">
									<clipitem id="clipitem-257">
										<masterclipid>masterclip-179</masterclipid>
										<name>Longboard Chase</name>
										<enabled>TRUE</enabled>
										<duration>5694</duration>
										<rate>
											<timebase>30</timebase>
											<ntsc>TRUE</ntsc>
										</rate>
										<start>0</start>
										<end>3761</end>
										<in>0</in>
										<out>3761</out>
										<pproTicksIn>0</pproTicksIn>
										<pproTicksOut>31876984339200</pproTicksOut>
										<alphatype>straight</alphatype>
										<pixelaspectratio>square</pixelaspectratio>
										<anamorphic>FALSE</anamorphic>
										<file id="file-169">
											<name>DRONE_LOWER_A/NEW DRONE L3.aep</name>
											<pathurl>file://localhost/Volumes/T7/DRONE_08.18.2023/4_Project%20Files/Drone%202023%20Master%20Assets/01_Bugs/NEW%20DRONE%20L3/NEW%20DRONE%20L3.aep</pathurl>
											<rate>
												<timebase>30</timebase>
												<ntsc>TRUE</ntsc>
											</rate>
											<duration>5694</duration>
											<timecode>
												<rate>
													<timebase>30</timebase>
													<ntsc>TRUE</ntsc>
												</rate>
												<string>00;00;00;00</string>
												<frame>0</frame>
												<displayformat>DF</displayformat>
											</timecode>
											<media>
												<video>
													<samplecharacteristics>
														<rate>
															<timebase>30</timebase>
															<ntsc>TRUE</ntsc>
														</rate>
														<width>1920</width>
														<height>1080</height>
														<anamorphic>FALSE</anamorphic>
														<pixelaspectratio>square</pixelaspectratio>
														<fielddominance>lower</fielddominance>
													</samplecharacteristics>
												</video>
											</media>
										</file>
										<logginginfo>
											<description></description>
											<scene></scene>
											<shottake></shottake>
											<lognote></lognote>
											<good></good>
											<originalvideofilename></originalvideofilename>
											<originalaudiofilename></originalaudiofilename>
										</logginginfo>
										<colorinfo>
											<lut></lut>
											<lut1></lut1>
											<asc_sop></asc_sop>
											<asc_sat></asc_sat>
											<lut2></lut2>
										</colorinfo>
										<labels>
											<label2>Rose</label2>
										</labels>
									</clipitem>
									<clipitem id="clipitem-258">
										<masterclipid>masterclip-180</masterclipid>
										<name>FIREWORKS IN FARIDABAD</name>
										<enabled>TRUE</enabled>
										<duration>5694</duration>
										<rate>
											<timebase>30</timebase>
											<ntsc>TRUE</ntsc>
										</rate>
										<start>3913</start>
										<end>5397</end>
										<in>0</in>
										<out>1484</out>
										<pproTicksIn>0</pproTicksIn>
										<pproTicksOut>12577890124800</pproTicksOut>
										<alphatype>straight</alphatype>
										<pixelaspectratio>square</pixelaspectratio>
										<anamorphic>FALSE</anamorphic>
										<file id="file-170">
											<name>DRONE_LOWER_A/NEW DRONE L3.aep</name>
											<pathurl>file://localhost/Volumes/T7/DRONE_08.18.2023/4_Project%20Files/Drone%202023%20Master%20Assets/01_Bugs/NEW%20DRONE%20L3/NEW%20DRONE%20L3.aep</pathurl>
											<rate>
												<timebase>30</timebase>
												<ntsc>TRUE</ntsc>
											</rate>
											<duration>5694</duration>
											<timecode>
												<rate>
													<timebase>30</timebase>
													<ntsc>TRUE</ntsc>
												</rate>
												<string>00;00;00;00</string>
												<frame>0</frame>
												<displayformat>DF</displayformat>
											</timecode>
											<media>
												<video>
													<samplecharacteristics>
														<rate>
															<timebase>30</timebase>
															<ntsc>TRUE</ntsc>
														</rate>
														<width>1920</width>
														<height>1080</height>
														<anamorphic>FALSE</anamorphic>
														<pixelaspectratio>square</pixelaspectratio>
														<fielddominance>lower</fielddominance>
													</samplecharacteristics>
												</video>
											</media>
										</file>
										<logginginfo>
											<description></description>
											<scene></scene>
											<shottake></shottake>
											<lognote></lognote>
											<good></good>
											<originalvideofilename></originalvideofilename>
											<originalaudiofilename></originalaudiofilename>
										</logginginfo>
										<colorinfo>
											<lut></lut>
											<lut1></lut1>
											<asc_sop></asc_sop>
											<asc_sat></asc_sat>
											<lut2></lut2>
										</colorinfo>
										<labels>
											<label2>Rose</label2>
										</labels>
									</clipitem>
									<enabled>TRUE</enabled>
									<locked>FALSE</locked>
								</track>
								<track TL.SQTrackShy="0" TL.SQTrackExpandedHeight="25" TL.SQTrackExpanded="0" MZ.TrackTargeted="0">
									<clipitem id="clipitem-259">
										<masterclipid>masterclip-181</masterclipid>
										<name>India Pin</name>
										<enabled>TRUE</enabled>
										<duration>5694</duration>
										<rate>
											<timebase>30</timebase>
											<ntsc>TRUE</ntsc>
										</rate>
										<start>4220</start>
										<end>5397</end>
										<in>0</in>
										<out>1177</out>
										<pproTicksIn>0</pproTicksIn>
										<pproTicksOut>9975860294400</pproTicksOut>
										<alphatype>straight</alphatype>
										<pixelaspectratio>square</pixelaspectratio>
										<anamorphic>FALSE</anamorphic>
										<file id="file-171">
											<name>DRONE_PIN/DRONE_PIN.aep</name>
											<pathurl>file://localhost/Volumes/T7/DRONE_08.18.2023/4_Project%20Files/Drone%202023%20Master%20Assets/01_Bugs/DRIVE_LOCATION%20PIN/DRONE_PIN.aep</pathurl>
											<rate>
												<timebase>30</timebase>
												<ntsc>TRUE</ntsc>
											</rate>
											<duration>5694</duration>
											<timecode>
												<rate>
													<timebase>30</timebase>
													<ntsc>TRUE</ntsc>
												</rate>
												<string>00;00;00;00</string>
												<frame>0</frame>
												<displayformat>DF</displayformat>
											</timecode>
											<media>
												<video>
													<samplecharacteristics>
														<rate>
															<timebase>30</timebase>
															<ntsc>TRUE</ntsc>
														</rate>
														<width>1920</width>
														<height>1080</height>
														<anamorphic>FALSE</anamorphic>
														<pixelaspectratio>square</pixelaspectratio>
														<fielddominance>lower</fielddominance>
													</samplecharacteristics>
												</video>
											</media>
										</file>
										<logginginfo>
											<description></description>
											<scene></scene>
											<shottake></shottake>
											<lognote></lognote>
											<good></good>
											<originalvideofilename></originalvideofilename>
											<originalaudiofilename></originalaudiofilename>
										</logginginfo>
										<colorinfo>
											<lut></lut>
											<lut1></lut1>
											<asc_sop></asc_sop>
											<asc_sat></asc_sat>
											<lut2></lut2>
										</colorinfo>
										<labels>
											<label2>Cerulean</label2>
										</labels>
									</clipitem>
									<enabled>TRUE</enabled>
									<locked>FALSE</locked>
								</track>
								<track TL.SQTrackShy="0" TL.SQTrackExpandedHeight="25" TL.SQTrackExpanded="0" MZ.TrackTargeted="0">
									<clipitem id="clipitem-260">
										<masterclipid>masterclip-153</masterclipid>
										<name>ATM BUG</name>
										<enabled>TRUE</enabled>
										<duration>5818</duration>
										<rate>
											<timebase>30</timebase>
											<ntsc>TRUE</ntsc>
										</rate>
										<start>0</start>
										<end>5397</end>
										<in>0</in>
										<out>5397</out>
										<pproTicksIn>0</pproTicksIn>
										<pproTicksOut>45743175878400</pproTicksOut>
										<sequence id="sequence-5"/>
										<labels>
											<label2>Violet</label2>
										</labels>
									</clipitem>
									<enabled>TRUE</enabled>
									<locked>FALSE</locked>
								</track>
								<track TL.SQTrackShy="0" TL.SQTrackExpandedHeight="25" TL.SQTrackExpanded="0" MZ.TrackTargeted="0">
									<clipitem id="clipitem-261">
										<masterclipid>masterclip-182</masterclipid>
										<name>Trans I</name>
										<enabled>TRUE</enabled>
										<duration>5697</duration>
										<rate>
											<timebase>30</timebase>
											<ntsc>TRUE</ntsc>
										</rate>
										<start>3680</start>
										<end>3922</end>
										<in>0</in>
										<out>242</out>
										<pproTicksIn>0</pproTicksIn>
										<pproTicksOut>2051111462400</pproTicksOut>
										<sequence id="sequence-13" TL.SQAudioVisibleBase="0" TL.SQVideoVisibleBase="0" TL.SQVisibleBaseTime="0" TL.SQAVDividerPosition="0.5" TL.SQHideShyTracks="0" TL.SQHeaderWidth="236" Monitor.ProgramZoomOut="2051111462400" Monitor.ProgramZoomIn="0" TL.SQTimePerPixel="0.15887768915106323" MZ.EditLine="93232339200" MZ.Sequence.PreviewFrameSizeHeight="1080" MZ.Sequence.PreviewFrameSizeWidth="1920" MZ.Sequence.AudioTimeDisplayFormat="200" MZ.Sequence.PreviewRenderingClassID="1297106761" MZ.Sequence.PreviewRenderingPresetCodec="1297107278" MZ.Sequence.PreviewRenderingPresetPath="EncoderPresets/SequencePreview/795454d9-d3c2-429d-9474-923ab13b7018/I-Frame Only MPEG.epr" MZ.Sequence.PreviewUseMaxRenderQuality="false" MZ.Sequence.PreviewUseMaxBitDepth="false" MZ.Sequence.EditingModeGUID="795454d9-d3c2-429d-9474-923ab13b7018" MZ.Sequence.VideoTimeDisplayFormat="102" MZ.WorkOutPoint="15239249625600" MZ.WorkInPoint="0">
											<duration>242</duration>
											<rate>
												<timebase>30</timebase>
												<ntsc>TRUE</ntsc>
											</rate>
											<name>Trans I</name>
											<media>
												<video>
													<format>
														<samplecharacteristics>
															<rate>
																<timebase>30</timebase>
																<ntsc>TRUE</ntsc>
															</rate>
															<codec>
																<name>Apple ProRes 422</name>
																<appspecificdata>
																	<appname>Final Cut Pro</appname>
																	<appmanufacturer>Apple Inc.</appmanufacturer>
																	<appversion>7.0</appversion>
																	<data>
																		<qtcodec>
																			<codecname>Apple ProRes 422</codecname>
																			<codectypename>Apple ProRes 422</codectypename>
																			<codectypecode>apcn</codectypecode>
																			<codecvendorcode>appl</codecvendorcode>
																			<spatialquality>1024</spatialquality>
																			<temporalquality>0</temporalquality>
																			<keyframerate>0</keyframerate>
																			<datarate>0</datarate>
																		</qtcodec>
																	</data>
																</appspecificdata>
															</codec>
															<width>1920</width>
															<height>1080</height>
															<anamorphic>FALSE</anamorphic>
															<pixelaspectratio>square</pixelaspectratio>
															<fielddominance>none</fielddominance>
															<colordepth>24</colordepth>
														</samplecharacteristics>
													</format>
													<track TL.SQTrackShy="0" TL.SQTrackExpandedHeight="25" TL.SQTrackExpanded="0" MZ.TrackTargeted="1">
														<clipitem id="clipitem-262">
															<masterclipid>masterclip-183</masterclipid>
															<name>ATM_DRONE_TRANS_I.mov</name>
															<enabled>TRUE</enabled>
															<duration>245</duration>
															<rate>
																<timebase>30</timebase>
																<ntsc>TRUE</ntsc>
															</rate>
															<start>9</start>
															<end>233</end>
															<in>12</in>
															<out>236</out>
															<pproTicksIn>101708006400</pproTicksIn>
															<pproTicksOut>2000257459200</pproTicksOut>
															<alphatype>straight</alphatype>
															<pixelaspectratio>square</pixelaspectratio>
															<anamorphic>FALSE</anamorphic>
															<file id="file-172">
																<name>ATM_DRONE_TRANS_I.mov</name>
																<pathurl>file://localhost/Volumes/T7/DRONE_08.18.2023/4_Project%20Files/Drone%202023%20Master%20Assets/02_Transitions/DRONE%20transitions%20(30fps)/ATM_DRONE_TRANS_I.mov</pathurl>
																<rate>
																	<timebase>30</timebase>
																	<ntsc>TRUE</ntsc>
																</rate>
																<duration>245</duration>
																<timecode>
																	<rate>
																		<timebase>30</timebase>
																		<ntsc>TRUE</ntsc>
																	</rate>
																	<string>00;00;53;16</string>
																	<frame>1606</frame>
																	<displayformat>DF</displayformat>
																</timecode>
																<media>
																	<video>
																		<samplecharacteristics>
																			<rate>
																				<timebase>30</timebase>
																				<ntsc>TRUE</ntsc>
																			</rate>
																			<width>1920</width>
																			<height>1080</height>
																			<anamorphic>FALSE</anamorphic>
																			<pixelaspectratio>square</pixelaspectratio>
																			<fielddominance>none</fielddominance>
																		</samplecharacteristics>
																	</video>
																	<audio>
																		<samplecharacteristics>
																			<depth>16</depth>
																			<samplerate>48000</samplerate>
																		</samplecharacteristics>
																		<channelcount>2</channelcount>
																	</audio>
																</media>
															</file>
															<logginginfo>
																<description></description>
																<scene></scene>
																<shottake></shottake>
																<lognote></lognote>
																<good></good>
																<originalvideofilename></originalvideofilename>
																<originalaudiofilename></originalaudiofilename>
															</logginginfo>
															<colorinfo>
																<lut></lut>
																<lut1></lut1>
																<asc_sop></asc_sop>
																<asc_sat></asc_sat>
																<lut2></lut2>
															</colorinfo>
															<labels>
																<label2>Iris</label2>
															</labels>
														</clipitem>
														<enabled>TRUE</enabled>
														<locked>FALSE</locked>
													</track>
													<track TL.SQTrackShy="0" TL.SQTrackExpandedHeight="25" TL.SQTrackExpanded="0" MZ.TrackTargeted="0">
														<clipitem id="clipitem-263">
															<masterclipid>masterclip-157</masterclipid>
															<name>02 Zoom In - Quick / Transform Out</name>
															<enabled>TRUE</enabled>
															<duration>1294705</duration>
															<rate>
																<timebase>30</timebase>
																<ntsc>TRUE</ntsc>
															</rate>
															<start>0</start>
															<end>9</end>
															<in>0</in>
															<out>9</out>
															<pproTicksIn>0</pproTicksIn>
															<pproTicksOut>76281004800</pproTicksOut>
															<sequence id="sequence-7"/>
																<marker>
																	<comment></comment>
																	<name></name>
																	<in>20</in>
																	<out>-1</out>
																</marker>
															<labels>
																<label2>Iris</label2>
															</labels>
														</clipitem>
														<clipitem id="clipitem-264">
															<masterclipid>masterclip-159</masterclipid>
															<name>02 Zoom In - Quick / Transform In</name>
															<enabled>TRUE</enabled>
															<duration>1294705</duration>
															<rate>
																<timebase>30</timebase>
																<ntsc>TRUE</ntsc>
															</rate>
															<start>9</start>
															<end>17</end>
															<in>0</in>
															<out>8</out>
															<pproTicksIn>0</pproTicksIn>
															<pproTicksOut>67805337600</pproTicksOut>
															<sequence id="sequence-8"/>
															<labels>
																<label2>Iris</label2>
															</labels>
														</clipitem>
														<clipitem id="clipitem-265">
															<masterclipid>masterclip-157</masterclipid>
															<name>12 Zoom Out - left - Quick / Transform Out</name>
															<enabled>TRUE</enabled>
															<duration>1294705</duration>
															<rate>
																<timebase>30</timebase>
																<ntsc>TRUE</ntsc>
															</rate>
															<start>223</start>
															<end>233</end>
															<in>0</in>
															<out>10</out>
															<pproTicksIn>0</pproTicksIn>
															<pproTicksOut>84756672000</pproTicksOut>
															<sequence id="sequence-7"/>
															<filter>
																<effect>
																	<name>Opacity</name>
																	<effectid>opacity</effectid>
																	<effectcategory>motion</effectcategory>
																	<effecttype>motion</effecttype>
																	<mediatype>video</mediatype>
																	<pproBypass>false</pproBypass>
																	<parameter authoringApp="PremierePro">
																		<parameterid>opacity</parameterid>
																		<name>opacity</name>
																		<valuemin>0</valuemin>
																		<valuemax>100</valuemax>
																		<value>100</value>
																		<keyframe>
																			<when>0</when>
																			<value>0</value>
																		</keyframe>
																		<keyframe>
																			<when>1</when>
																			<value>100</value>
																		</keyframe>
																	</parameter>
																</effect>
															</filter>
																<marker>
																	<comment></comment>
																	<name></name>
																	<in>20</in>
																	<out>-1</out>
																</marker>
															<labels>
																<label2>Iris</label2>
															</labels>
														</clipitem>
														<clipitem id="clipitem-266">
															<masterclipid>masterclip-159</masterclipid>
															<name>12 Zoom Out - left - Quick / Transform In</name>
															<enabled>TRUE</enabled>
															<duration>1294705</duration>
															<rate>
																<timebase>30</timebase>
																<ntsc>TRUE</ntsc>
															</rate>
															<start>233</start>
															<end>242</end>
															<in>0</in>
															<out>9</out>
															<pproTicksIn>0</pproTicksIn>
															<pproTicksOut>76281004800</pproTicksOut>
															<sequence id="sequence-8"/>
															<filter>
																<effect>
																	<name>Basic Motion</name>
																	<effectid>basic</effectid>
																	<effectcategory>motion</effectcategory>
																	<effecttype>motion</effecttype>
																	<mediatype>video</mediatype>
																	<pproBypass>false</pproBypass>
																	<parameter authoringApp="PremierePro">
																		<parameterid>scale</parameterid>
																		<name>Scale</name>
																		<valuemin>0</valuemin>
																		<valuemax>1000</valuemax>
																		<value>100</value>
																	</parameter>
																	<parameter authoringApp="PremierePro">
																		<parameterid>rotation</parameterid>
																		<name>Rotation</name>
																		<valuemin>-8640</valuemin>
																		<valuemax>8640</valuemax>
																		<value>0</value>
																	</parameter>
																	<parameter authoringApp="PremierePro">
																		<parameterid>center</parameterid>
																		<name>Center</name>
																		<value>
																			<horiz>-0.5</horiz>
																			<vert>-0.499394</vert>
																		</value>
																	</parameter>
																	<parameter authoringApp="PremierePro">
																		<parameterid>centerOffset</parameterid>
																		<name>Anchor Point</name>
																		<value>
																			<horiz>0</horiz>
																			<vert>-0.00060606</vert>
																		</value>
																	</parameter>
																	<parameter authoringApp="PremierePro">
																		<parameterid>antiflicker</parameterid>
																		<name>Anti-flicker Filter</name>
																		<valuemin>0.0</valuemin>
																		<valuemax>1.0</valuemax>
																		<value>0</value>
																	</parameter>
																</effect>
															</filter>
															<labels>
																<label2>Iris</label2>
															</labels>
														</clipitem>
														<enabled>TRUE</enabled>
														<locked>FALSE</locked>
													</track>
													<track TL.SQTrackShy="0" TL.SQTrackExpandedHeight="25" TL.SQTrackExpanded="0" MZ.TrackTargeted="0">
														<enabled>TRUE</enabled>
														<locked>FALSE</locked>
													</track>
												</video>
												<audio>
													<numOutputChannels>2</numOutputChannels>
													<format>
														<samplecharacteristics>
															<depth>16</depth>
															<samplerate>32000</samplerate>
														</samplecharacteristics>
													</format>
													<outputs>
														<group>
															<index>1</index>
															<numchannels>1</numchannels>
															<downmix>0</downmix>
															<channel>
																<index>1</index>
															</channel>
														</group>
														<group>
															<index>2</index>
															<numchannels>1</numchannels>
															<downmix>0</downmix>
															<channel>
																<index>2</index>
															</channel>
														</group>
													</outputs>
													<track TL.SQTrackAudioKeyframeStyle="0" TL.SQTrackShy="0" TL.SQTrackExpandedHeight="25" TL.SQTrackExpanded="0" MZ.TrackTargeted="1" PannerCurrentValue="0.5" PannerIsInverted="true" PannerStartKeyframe="-91445760000000000,0.5,0,0,0,0,0,0" PannerName="Balance" currentExplodedTrackIndex="0" totalExplodedTrackCount="2" premiereTrackType="Stereo">
														<clipitem id="clipitem-267" premiereChannelType="stereo">
															<masterclipid>masterclip-183</masterclipid>
															<name>ATM_DRONE_TRANS_I.mov</name>
															<enabled>TRUE</enabled>
															<duration>245</duration>
															<rate>
																<timebase>30</timebase>
																<ntsc>TRUE</ntsc>
															</rate>
															<start>0</start>
															<end>242</end>
															<in>3</in>
															<out>245</out>
															<pproTicksIn>25427001600</pproTicksIn>
															<pproTicksOut>2076538464000</pproTicksOut>
															<file id="file-172"/>
															<sourcetrack>
																<mediatype>audio</mediatype>
																<trackindex>1</trackindex>
															</sourcetrack>
															<filter>
																<effect>
																	<name>Gain</name>
																	<effectid>{61756678, 4761696e, 4b657947}</effectid>
																	<effecttype>filter</effecttype>
																	<mediatype>audio</mediatype>
																	<parameter authoringApp="PremierePro">
																		<parameterid>Gain(dB)</parameterid>
																		<name>Gain(dB)</name>
																		<valuemin>-96</valuemin>
																		<valuemax>96</valuemax>
																		<value>-9</value>
																	</parameter>
																</effect>
															</filter>
															<link>
																<linkclipref>clipitem-267</linkclipref>
																<mediatype>audio</mediatype>
																<trackindex>1</trackindex>
																<clipindex>1</clipindex>
																<groupindex>1</groupindex>
															</link>
															<link>
																<linkclipref>clipitem-268</linkclipref>
																<mediatype>audio</mediatype>
																<trackindex>2</trackindex>
																<clipindex>1</clipindex>
																<groupindex>1</groupindex>
															</link>
															<logginginfo>
																<description></description>
																<scene></scene>
																<shottake></shottake>
																<lognote></lognote>
																<good></good>
																<originalvideofilename></originalvideofilename>
																<originalaudiofilename></originalaudiofilename>
															</logginginfo>
															<colorinfo>
																<lut></lut>
																<lut1></lut1>
																<asc_sop></asc_sop>
																<asc_sat></asc_sat>
																<lut2></lut2>
															</colorinfo>
															<labels>
																<label2>Iris</label2>
															</labels>
														</clipitem>
														<enabled>TRUE</enabled>
														<locked>FALSE</locked>
														<outputchannelindex>1</outputchannelindex>
													</track>
													<track TL.SQTrackAudioKeyframeStyle="0" TL.SQTrackShy="0" TL.SQTrackExpandedHeight="25" TL.SQTrackExpanded="0" MZ.TrackTargeted="1" PannerCurrentValue="0.5" PannerIsInverted="true" PannerStartKeyframe="-91445760000000000,0.5,0,0,0,0,0,0" PannerName="Balance" currentExplodedTrackIndex="1" totalExplodedTrackCount="2" premiereTrackType="Stereo">
														<clipitem id="clipitem-268" premiereChannelType="stereo">
															<masterclipid>masterclip-183</masterclipid>
															<name>ATM_DRONE_TRANS_I.mov</name>
															<enabled>TRUE</enabled>
															<duration>245</duration>
															<rate>
																<timebase>30</timebase>
																<ntsc>TRUE</ntsc>
															</rate>
															<start>0</start>
															<end>242</end>
															<in>3</in>
															<out>245</out>
															<pproTicksIn>25427001600</pproTicksIn>
															<pproTicksOut>2076538464000</pproTicksOut>
															<file id="file-172"/>
															<sourcetrack>
																<mediatype>audio</mediatype>
																<trackindex>2</trackindex>
															</sourcetrack>
															<filter>
																<effect>
																	<name>Gain</name>
																	<effectid>{61756678, 4761696e, 4b657947}</effectid>
																	<effecttype>filter</effecttype>
																	<mediatype>audio</mediatype>
																	<parameter authoringApp="PremierePro">
																		<parameterid>Gain(dB)</parameterid>
																		<name>Gain(dB)</name>
																		<valuemin>-96</valuemin>
																		<valuemax>96</valuemax>
																		<value>-9</value>
																	</parameter>
																</effect>
															</filter>
															<link>
																<linkclipref>clipitem-267</linkclipref>
																<mediatype>audio</mediatype>
																<trackindex>1</trackindex>
																<clipindex>1</clipindex>
																<groupindex>1</groupindex>
															</link>
															<link>
																<linkclipref>clipitem-268</linkclipref>
																<mediatype>audio</mediatype>
																<trackindex>2</trackindex>
																<clipindex>1</clipindex>
																<groupindex>1</groupindex>
															</link>
															<logginginfo>
																<description></description>
																<scene></scene>
																<shottake></shottake>
																<lognote></lognote>
																<good></good>
																<originalvideofilename></originalvideofilename>
																<originalaudiofilename></originalaudiofilename>
															</logginginfo>
															<colorinfo>
																<lut></lut>
																<lut1></lut1>
																<asc_sop></asc_sop>
																<asc_sat></asc_sat>
																<lut2></lut2>
															</colorinfo>
															<labels>
																<label2>Iris</label2>
															</labels>
														</clipitem>
														<enabled>TRUE</enabled>
														<locked>FALSE</locked>
														<outputchannelindex>2</outputchannelindex>
													</track>
													<track TL.SQTrackAudioKeyframeStyle="0" TL.SQTrackShy="0" TL.SQTrackExpandedHeight="25" TL.SQTrackExpanded="0" MZ.TrackTargeted="1" PannerCurrentValue="0.5" PannerIsInverted="true" PannerStartKeyframe="-91445760000000000,0.5,0,0,0,0,0,0" PannerName="Balance" currentExplodedTrackIndex="0" totalExplodedTrackCount="2" premiereTrackType="Stereo">
														<enabled>TRUE</enabled>
														<locked>FALSE</locked>
														<outputchannelindex>1</outputchannelindex>
													</track>
													<track TL.SQTrackAudioKeyframeStyle="0" TL.SQTrackShy="0" TL.SQTrackExpandedHeight="25" TL.SQTrackExpanded="0" MZ.TrackTargeted="1" PannerCurrentValue="0.5" PannerIsInverted="true" PannerStartKeyframe="-91445760000000000,0.5,0,0,0,0,0,0" PannerName="Balance" currentExplodedTrackIndex="1" totalExplodedTrackCount="2" premiereTrackType="Stereo">
														<enabled>TRUE</enabled>
														<locked>FALSE</locked>
														<outputchannelindex>2</outputchannelindex>
													</track>
													<track TL.SQTrackAudioKeyframeStyle="0" TL.SQTrackShy="0" TL.SQTrackExpandedHeight="25" TL.SQTrackExpanded="0" MZ.TrackTargeted="1" PannerCurrentValue="0.5" PannerIsInverted="true" PannerStartKeyframe="-91445760000000000,0.5,0,0,0,0,0,0" PannerName="Balance" currentExplodedTrackIndex="0" totalExplodedTrackCount="2" premiereTrackType="Stereo">
														<enabled>TRUE</enabled>
														<locked>FALSE</locked>
														<outputchannelindex>1</outputchannelindex>
													</track>
													<track TL.SQTrackAudioKeyframeStyle="0" TL.SQTrackShy="0" TL.SQTrackExpandedHeight="25" TL.SQTrackExpanded="0" MZ.TrackTargeted="1" PannerCurrentValue="0.5" PannerIsInverted="true" PannerStartKeyframe="-91445760000000000,0.5,0,0,0,0,0,0" PannerName="Balance" currentExplodedTrackIndex="1" totalExplodedTrackCount="2" premiereTrackType="Stereo">
														<enabled>TRUE</enabled>
														<locked>FALSE</locked>
														<outputchannelindex>2</outputchannelindex>
													</track>
												</audio>
											</media>
											<timecode>
												<rate>
													<timebase>30</timebase>
													<ntsc>TRUE</ntsc>
												</rate>
												<string>00;00;00;00</string>
												<frame>0</frame>
												<displayformat>DF</displayformat>
											</timecode>
												<marker>
													<comment></comment>
													<name></name>
													<in>233</in>
													<out>-1</out>
													<pproColor>4281828977</pproColor>
												</marker>
												<marker>
													<comment></comment>
													<name></name>
													<in>9</in>
													<out>-1</out>
													<pproColor>4281828977</pproColor>
												</marker>
											<logginginfo>
												<description></description>
												<scene></scene>
												<shottake></shottake>
												<lognote></lognote>
												<good></good>
												<originalvideofilename></originalvideofilename>
												<originalaudiofilename></originalaudiofilename>
											</logginginfo>
										</sequence>
											<marker>
												<comment></comment>
												<name></name>
												<in>233</in>
												<out>-1</out>
												<pproColor>4281828977</pproColor>
											</marker>
											<marker>
												<comment></comment>
												<name></name>
												<in>9</in>
												<out>-1</out>
												<pproColor>4281828977</pproColor>
											</marker>
										<link>
											<linkclipref>clipitem-261</linkclipref>
											<mediatype>video</mediatype>
											<trackindex>5</trackindex>
											<clipindex>1</clipindex>
										</link>
										<link>
											<linkclipref>clipitem-276</linkclipref>
											<mediatype>audio</mediatype>
											<trackindex>9</trackindex>
											<clipindex>1</clipindex>
											<groupindex>1</groupindex>
										</link>
										<link>
											<linkclipref>clipitem-277</linkclipref>
											<mediatype>audio</mediatype>
											<trackindex>10</trackindex>
											<clipindex>1</clipindex>
											<groupindex>1</groupindex>
										</link>
										<labels>
											<label2>Tan</label2>
										</labels>
									</clipitem>
									<clipitem id="clipitem-269">
										<masterclipid>masterclip-184</masterclipid>
										<name>Disclaimer_1080_Flashing Lights.mov</name>
										<enabled>TRUE</enabled>
										<duration>180</duration>
										<rate>
											<timebase>30</timebase>
											<ntsc>TRUE</ntsc>
										</rate>
										<start>4151</start>
										<end>4331</end>
										<in>0</in>
										<out>180</out>
										<pproTicksIn>0</pproTicksIn>
										<pproTicksOut>1525620096000</pproTicksOut>
										<alphatype>straight</alphatype>
										<pixelaspectratio>square</pixelaspectratio>
										<anamorphic>FALSE</anamorphic>
										<file id="file-173">
											<name>Disclaimer_1080_Flashing Lights.mov</name>
											<pathurl>file://localhost/Volumes/T7/DRONE_08.18.2023/4_Project%20Files/Disclaimer_1080_Flashing%20Lights.mov</pathurl>
											<rate>
												<timebase>30</timebase>
												<ntsc>TRUE</ntsc>
											</rate>
											<duration>180</duration>
											<timecode>
												<rate>
													<timebase>30</timebase>
													<ntsc>TRUE</ntsc>
												</rate>
												<string>00;00;00;00</string>
												<frame>0</frame>
												<displayformat>DF</displayformat>
											</timecode>
											<media>
												<video>
													<samplecharacteristics>
														<rate>
															<timebase>30</timebase>
															<ntsc>TRUE</ntsc>
														</rate>
														<width>1920</width>
														<height>1080</height>
														<anamorphic>FALSE</anamorphic>
														<pixelaspectratio>square</pixelaspectratio>
														<fielddominance>none</fielddominance>
													</samplecharacteristics>
												</video>
											</media>
										</file>
										<logginginfo>
											<description></description>
											<scene></scene>
											<shottake></shottake>
											<lognote></lognote>
											<good></good>
											<originalvideofilename></originalvideofilename>
											<originalaudiofilename></originalaudiofilename>
										</logginginfo>
										<colorinfo>
											<lut></lut>
											<lut1></lut1>
											<asc_sop></asc_sop>
											<asc_sat></asc_sat>
											<lut2></lut2>
										</colorinfo>
										<labels>
											<label2>Violet</label2>
										</labels>
									</clipitem>
									<enabled>TRUE</enabled>
									<locked>FALSE</locked>
								</track>
							</video>
							<audio>
								<numOutputChannels>2</numOutputChannels>
								<format>
									<samplecharacteristics>
										<depth>16</depth>
										<samplerate>32000</samplerate>
									</samplecharacteristics>
								</format>
								<outputs>
									<group>
										<index>1</index>
										<numchannels>1</numchannels>
										<downmix>0</downmix>
										<channel>
											<index>1</index>
										</channel>
									</group>
									<group>
										<index>2</index>
										<numchannels>1</numchannels>
										<downmix>0</downmix>
										<channel>
											<index>2</index>
										</channel>
									</group>
								</outputs>
								<track TL.SQTrackAudioKeyframeStyle="0" TL.SQTrackShy="0" TL.SQTrackExpandedHeight="25" TL.SQTrackExpanded="0" MZ.TrackTargeted="1" PannerCurrentValue="0.5" PannerIsInverted="true" PannerStartKeyframe="-91445760000000000,0.5,0,0,0,0,0,0" PannerName="Balance" currentExplodedTrackIndex="0" totalExplodedTrackCount="2" premiereTrackType="Stereo">
									<clipitem id="clipitem-270" premiereChannelType="stereo">
										<masterclipid>masterclip-162</masterclipid>
										<name>DRONE_Longboard Chase_2</name>
										<enabled>TRUE</enabled>
										<duration>4844</duration>
										<rate>
											<timebase>30</timebase>
											<ntsc>TRUE</ntsc>
										</rate>
										<start>0</start>
										<end>3689</end>
										<in>0</in>
										<out>3689</out>
										<pproTicksIn>0</pproTicksIn>
										<pproTicksOut>31266736300800</pproTicksOut>
										<sequence id="sequence-11"/>
										<sourcetrack>
											<mediatype>audio</mediatype>
											<trackindex>0</trackindex>
										</sourcetrack>
										<link>
											<linkclipref>clipitem-238</linkclipref>
											<mediatype>video</mediatype>
											<trackindex>1</trackindex>
											<clipindex>1</clipindex>
										</link>
										<link>
											<linkclipref>clipitem-270</linkclipref>
											<mediatype>audio</mediatype>
											<trackindex>1</trackindex>
											<clipindex>1</clipindex>
											<groupindex>1</groupindex>
										</link>
										<link>
											<linkclipref>clipitem-273</linkclipref>
											<mediatype>audio</mediatype>
											<trackindex>2</trackindex>
											<clipindex>1</clipindex>
											<groupindex>1</groupindex>
										</link>
										<labels>
											<label2>Forest</label2>
										</labels>
									</clipitem>
									<clipitem id="clipitem-271" premiereChannelType="stereo">
										<masterclipid>masterclip-174</masterclipid>
										<name>DRONE_Fireworks_1</name>
										<enabled>TRUE</enabled>
										<duration>5844</duration>
										<rate>
											<timebase>30</timebase>
											<ntsc>TRUE</ntsc>
										</rate>
										<start>3913</start>
										<end>-1</end>
										<in>0</in>
										<out>1484</out>
										<pproTicksIn>0</pproTicksIn>
										<pproTicksOut>12577890124800</pproTicksOut>
										<sequence id="sequence-12"/>
										<sourcetrack>
											<mediatype>audio</mediatype>
											<trackindex>0</trackindex>
										</sourcetrack>
										<link>
											<linkclipref>clipitem-251</linkclipref>
											<mediatype>video</mediatype>
											<trackindex>1</trackindex>
											<clipindex>2</clipindex>
										</link>
										<link>
											<linkclipref>clipitem-271</linkclipref>
											<mediatype>audio</mediatype>
											<trackindex>1</trackindex>
											<clipindex>2</clipindex>
											<groupindex>1</groupindex>
										</link>
										<link>
											<linkclipref>clipitem-274</linkclipref>
											<mediatype>audio</mediatype>
											<trackindex>2</trackindex>
											<clipindex>2</clipindex>
											<groupindex>1</groupindex>
										</link>
										<labels>
											<label2>Forest</label2>
										</labels>
									</clipitem>
									<transitionitem>
										<start>5385</start>
										<end>5397</end>
										<pproTicksIn>45641467872000</pproTicksIn>
										<pproTicksOut>45743175878400</pproTicksOut>
										<alignment>end-black</alignment>
										<cutPointTicks>101708006400</cutPointTicks>
										<rate>
											<timebase>30</timebase>
											<ntsc>TRUE</ntsc>
										</rate>
										<effect>
											<name>Cross Fade ( 0dB)</name>
											<effectid>KGAudioTransCrossFade0dB</effectid>
											<effecttype>transition</effecttype>
											<mediatype>audio</mediatype>
											<wipecode>0</wipecode>
											<wipeaccuracy>100</wipeaccuracy>
											<startratio>0</startratio>
											<endratio>1</endratio>
											<reverse>FALSE</reverse>
										</effect>
									</transitionitem>
									<clipitem id="clipitem-272" premiereChannelType="stereo">
										<masterclipid>masterclip-178</masterclipid>
										<name>ATM_YouAreWatching_2.mp4</name>
										<enabled>TRUE</enabled>
										<duration>300</duration>
										<rate>
											<timebase>30</timebase>
											<ntsc>TRUE</ntsc>
										</rate>
										<start>5397</start>
										<end>5697</end>
										<in>0</in>
										<out>300</out>
										<pproTicksIn>0</pproTicksIn>
										<pproTicksOut>2542700160000</pproTicksOut>
										<file id="file-168"/>
										<sourcetrack>
											<mediatype>audio</mediatype>
											<trackindex>1</trackindex>
										</sourcetrack>
										<filter>
											<effect>
												<name>Audio Levels</name>
												<effectid>audiolevels</effectid>
												<effectcategory>audiolevels</effectcategory>
												<effecttype>audiolevels</effecttype>
												<mediatype>audio</mediatype>
												<pproBypass>false</pproBypass>
												<parameter authoringApp="PremierePro">
													<parameterid>level</parameterid>
													<name>Level</name>
													<valuemin>0</valuemin>
													<valuemax>3.98109</valuemax>
													<value>0.398107</value>
												</parameter>
											</effect>
										</filter>
										<link>
											<linkclipref>clipitem-256</linkclipref>
											<mediatype>video</mediatype>
											<trackindex>1</trackindex>
											<clipindex>3</clipindex>
										</link>
										<link>
											<linkclipref>clipitem-272</linkclipref>
											<mediatype>audio</mediatype>
											<trackindex>1</trackindex>
											<clipindex>4</clipindex>
											<groupindex>1</groupindex>
										</link>
										<link>
											<linkclipref>clipitem-275</linkclipref>
											<mediatype>audio</mediatype>
											<trackindex>2</trackindex>
											<clipindex>4</clipindex>
											<groupindex>1</groupindex>
										</link>
										<logginginfo>
											<description></description>
											<scene></scene>
											<shottake></shottake>
											<lognote></lognote>
											<good></good>
											<originalvideofilename></originalvideofilename>
											<originalaudiofilename></originalaudiofilename>
										</logginginfo>
										<colorinfo>
											<lut></lut>
											<lut1></lut1>
											<asc_sop></asc_sop>
											<asc_sat></asc_sat>
											<lut2></lut2>
										</colorinfo>
										<labels>
											<label2>Iris</label2>
										</labels>
									</clipitem>
									<enabled>TRUE</enabled>
									<locked>FALSE</locked>
									<outputchannelindex>1</outputchannelindex>
								</track>
								<track TL.SQTrackAudioKeyframeStyle="0" TL.SQTrackShy="0" TL.SQTrackExpandedHeight="25" TL.SQTrackExpanded="0" MZ.TrackTargeted="1" PannerCurrentValue="0.5" PannerIsInverted="true" PannerStartKeyframe="-91445760000000000,0.5,0,0,0,0,0,0" PannerName="Balance" currentExplodedTrackIndex="1" totalExplodedTrackCount="2" premiereTrackType="Stereo">
									<clipitem id="clipitem-273" premiereChannelType="stereo">
										<masterclipid>masterclip-162</masterclipid>
										<name>DRONE_Longboard Chase_2</name>
										<enabled>TRUE</enabled>
										<duration>4844</duration>
										<rate>
											<timebase>30</timebase>
											<ntsc>TRUE</ntsc>
										</rate>
										<start>0</start>
										<end>3689</end>
										<in>0</in>
										<out>3689</out>
										<pproTicksIn>0</pproTicksIn>
										<pproTicksOut>31266736300800</pproTicksOut>
										<sequence id="sequence-11"/>
										<sourcetrack>
											<mediatype>audio</mediatype>
											<trackindex>1</trackindex>
										</sourcetrack>
										<link>
											<linkclipref>clipitem-238</linkclipref>
											<mediatype>video</mediatype>
											<trackindex>1</trackindex>
											<clipindex>1</clipindex>
										</link>
										<link>
											<linkclipref>clipitem-270</linkclipref>
											<mediatype>audio</mediatype>
											<trackindex>1</trackindex>
											<clipindex>1</clipindex>
											<groupindex>1</groupindex>
										</link>
										<link>
											<linkclipref>clipitem-273</linkclipref>
											<mediatype>audio</mediatype>
											<trackindex>2</trackindex>
											<clipindex>1</clipindex>
											<groupindex>1</groupindex>
										</link>
										<labels>
											<label2>Forest</label2>
										</labels>
									</clipitem>
									<clipitem id="clipitem-274" premiereChannelType="stereo">
										<masterclipid>masterclip-174</masterclipid>
										<name>DRONE_Fireworks_1</name>
										<enabled>TRUE</enabled>
										<duration>5844</duration>
										<rate>
											<timebase>30</timebase>
											<ntsc>TRUE</ntsc>
										</rate>
										<start>3913</start>
										<end>-1</end>
										<in>0</in>
										<out>1484</out>
										<pproTicksIn>0</pproTicksIn>
										<pproTicksOut>12577890124800</pproTicksOut>
										<sequence id="sequence-12"/>
										<sourcetrack>
											<mediatype>audio</mediatype>
											<trackindex>1</trackindex>
										</sourcetrack>
										<link>
											<linkclipref>clipitem-251</linkclipref>
											<mediatype>video</mediatype>
											<trackindex>1</trackindex>
											<clipindex>2</clipindex>
										</link>
										<link>
											<linkclipref>clipitem-271</linkclipref>
											<mediatype>audio</mediatype>
											<trackindex>1</trackindex>
											<clipindex>2</clipindex>
											<groupindex>1</groupindex>
										</link>
										<link>
											<linkclipref>clipitem-274</linkclipref>
											<mediatype>audio</mediatype>
											<trackindex>2</trackindex>
											<clipindex>2</clipindex>
											<groupindex>1</groupindex>
										</link>
										<labels>
											<label2>Forest</label2>
										</labels>
									</clipitem>
									<transitionitem>
										<start>5385</start>
										<end>5397</end>
										<pproTicksIn>45641467872000</pproTicksIn>
										<pproTicksOut>45743175878400</pproTicksOut>
										<alignment>end-black</alignment>
										<cutPointTicks>101708006400</cutPointTicks>
										<rate>
											<timebase>30</timebase>
											<ntsc>TRUE</ntsc>
										</rate>
										<effect>
											<name>Cross Fade ( 0dB)</name>
											<effectid>KGAudioTransCrossFade0dB</effectid>
											<effecttype>transition</effecttype>
											<mediatype>audio</mediatype>
											<wipecode>0</wipecode>
											<wipeaccuracy>100</wipeaccuracy>
											<startratio>0</startratio>
											<endratio>1</endratio>
											<reverse>FALSE</reverse>
										</effect>
									</transitionitem>
									<clipitem id="clipitem-275" premiereChannelType="stereo">
										<masterclipid>masterclip-178</masterclipid>
										<name>ATM_YouAreWatching_2.mp4</name>
										<enabled>TRUE</enabled>
										<duration>300</duration>
										<rate>
											<timebase>30</timebase>
											<ntsc>TRUE</ntsc>
										</rate>
										<start>5397</start>
										<end>5697</end>
										<in>0</in>
										<out>300</out>
										<pproTicksIn>0</pproTicksIn>
										<pproTicksOut>2542700160000</pproTicksOut>
										<file id="file-168"/>
										<sourcetrack>
											<mediatype>audio</mediatype>
											<trackindex>2</trackindex>
										</sourcetrack>
										<filter>
											<effect>
												<name>Audio Levels</name>
												<effectid>audiolevels</effectid>
												<effectcategory>audiolevels</effectcategory>
												<effecttype>audiolevels</effecttype>
												<mediatype>audio</mediatype>
												<pproBypass>false</pproBypass>
												<parameter authoringApp="PremierePro">
													<parameterid>level</parameterid>
													<name>Level</name>
													<valuemin>0</valuemin>
													<valuemax>3.98109</valuemax>
													<value>0.398107</value>
												</parameter>
											</effect>
										</filter>
										<link>
											<linkclipref>clipitem-256</linkclipref>
											<mediatype>video</mediatype>
											<trackindex>1</trackindex>
											<clipindex>3</clipindex>
										</link>
										<link>
											<linkclipref>clipitem-272</linkclipref>
											<mediatype>audio</mediatype>
											<trackindex>1</trackindex>
											<clipindex>4</clipindex>
											<groupindex>1</groupindex>
										</link>
										<link>
											<linkclipref>clipitem-275</linkclipref>
											<mediatype>audio</mediatype>
											<trackindex>2</trackindex>
											<clipindex>4</clipindex>
											<groupindex>1</groupindex>
										</link>
										<logginginfo>
											<description></description>
											<scene></scene>
											<shottake></shottake>
											<lognote></lognote>
											<good></good>
											<originalvideofilename></originalvideofilename>
											<originalaudiofilename></originalaudiofilename>
										</logginginfo>
										<colorinfo>
											<lut></lut>
											<lut1></lut1>
											<asc_sop></asc_sop>
											<asc_sat></asc_sat>
											<lut2></lut2>
										</colorinfo>
										<labels>
											<label2>Iris</label2>
										</labels>
									</clipitem>
									<enabled>TRUE</enabled>
									<locked>FALSE</locked>
									<outputchannelindex>2</outputchannelindex>
								</track>
								<track TL.SQTrackAudioKeyframeStyle="0" TL.SQTrackShy="0" TL.SQTrackExpandedHeight="25" TL.SQTrackExpanded="0" MZ.TrackTargeted="1" PannerCurrentValue="0.5" PannerIsInverted="true" PannerStartKeyframe="-91445760000000000,0.5,0,0,0,0,0,0" PannerName="Balance" currentExplodedTrackIndex="0" totalExplodedTrackCount="2" premiereTrackType="Stereo">
									<enabled>TRUE</enabled>
									<locked>FALSE</locked>
									<outputchannelindex>1</outputchannelindex>
								</track>
								<track TL.SQTrackAudioKeyframeStyle="0" TL.SQTrackShy="0" TL.SQTrackExpandedHeight="25" TL.SQTrackExpanded="0" MZ.TrackTargeted="1" PannerCurrentValue="0.5" PannerIsInverted="true" PannerStartKeyframe="-91445760000000000,0.5,0,0,0,0,0,0" PannerName="Balance" currentExplodedTrackIndex="1" totalExplodedTrackCount="2" premiereTrackType="Stereo">
									<enabled>TRUE</enabled>
									<locked>FALSE</locked>
									<outputchannelindex>2</outputchannelindex>
								</track>
								<track TL.SQTrackAudioKeyframeStyle="0" TL.SQTrackShy="0" TL.SQTrackExpandedHeight="25" TL.SQTrackExpanded="0" MZ.TrackTargeted="1" PannerCurrentValue="0.5" PannerIsInverted="true" PannerStartKeyframe="-91445760000000000,0.5,0,0,0,0,0,0" PannerName="Balance" currentExplodedTrackIndex="0" totalExplodedTrackCount="2" premiereTrackType="Stereo">
									<enabled>TRUE</enabled>
									<locked>FALSE</locked>
									<outputchannelindex>1</outputchannelindex>
								</track>
								<track TL.SQTrackAudioKeyframeStyle="0" TL.SQTrackShy="0" TL.SQTrackExpandedHeight="25" TL.SQTrackExpanded="0" MZ.TrackTargeted="1" PannerCurrentValue="0.5" PannerIsInverted="true" PannerStartKeyframe="-91445760000000000,0.5,0,0,0,0,0,0" PannerName="Balance" currentExplodedTrackIndex="1" totalExplodedTrackCount="2" premiereTrackType="Stereo">
									<enabled>TRUE</enabled>
									<locked>FALSE</locked>
									<outputchannelindex>2</outputchannelindex>
								</track>
								<track TL.SQTrackAudioKeyframeStyle="0" TL.SQTrackShy="0" TL.SQTrackExpandedHeight="25" TL.SQTrackExpanded="0" MZ.TrackTargeted="0" PannerCurrentValue="0.5" PannerIsInverted="true" PannerStartKeyframe="-91445760000000000,0.5,0,0,0,0,0,0" PannerName="Balance" currentExplodedTrackIndex="0" totalExplodedTrackCount="2" premiereTrackType="Stereo">
									<enabled>TRUE</enabled>
									<locked>FALSE</locked>
									<outputchannelindex>1</outputchannelindex>
								</track>
								<track TL.SQTrackAudioKeyframeStyle="0" TL.SQTrackShy="0" TL.SQTrackExpandedHeight="25" TL.SQTrackExpanded="0" MZ.TrackTargeted="0" PannerCurrentValue="0.5" PannerIsInverted="true" PannerStartKeyframe="-91445760000000000,0.5,0,0,0,0,0,0" PannerName="Balance" currentExplodedTrackIndex="1" totalExplodedTrackCount="2" premiereTrackType="Stereo">
									<enabled>TRUE</enabled>
									<locked>FALSE</locked>
									<outputchannelindex>2</outputchannelindex>
								</track>
								<track TL.SQTrackAudioKeyframeStyle="0" TL.SQTrackShy="0" TL.SQTrackExpandedHeight="25" TL.SQTrackExpanded="0" MZ.TrackTargeted="0" PannerCurrentValue="0.5" PannerIsInverted="true" PannerStartKeyframe="-91445760000000000,0.5,0,0,0,0,0,0" PannerName="Balance" currentExplodedTrackIndex="0" totalExplodedTrackCount="2" premiereTrackType="Stereo">
									<clipitem id="clipitem-276" premiereChannelType="stereo">
										<masterclipid>masterclip-182</masterclipid>
										<name>Trans I</name>
										<enabled>TRUE</enabled>
										<duration>5697</duration>
										<rate>
											<timebase>30</timebase>
											<ntsc>TRUE</ntsc>
										</rate>
										<start>3680</start>
										<end>3922</end>
										<in>0</in>
										<out>242</out>
										<pproTicksIn>0</pproTicksIn>
										<pproTicksOut>2051111462400</pproTicksOut>
										<sequence id="sequence-13"/>
										<sourcetrack>
											<mediatype>audio</mediatype>
											<trackindex>0</trackindex>
										</sourcetrack>
											<marker>
												<comment></comment>
												<name></name>
												<in>233</in>
												<out>-1</out>
												<pproColor>4281828977</pproColor>
											</marker>
											<marker>
												<comment></comment>
												<name></name>
												<in>9</in>
												<out>-1</out>
												<pproColor>4281828977</pproColor>
											</marker>
										<link>
											<linkclipref>clipitem-261</linkclipref>
											<mediatype>video</mediatype>
											<trackindex>5</trackindex>
											<clipindex>1</clipindex>
										</link>
										<link>
											<linkclipref>clipitem-276</linkclipref>
											<mediatype>audio</mediatype>
											<trackindex>9</trackindex>
											<clipindex>1</clipindex>
											<groupindex>1</groupindex>
										</link>
										<link>
											<linkclipref>clipitem-277</linkclipref>
											<mediatype>audio</mediatype>
											<trackindex>10</trackindex>
											<clipindex>1</clipindex>
											<groupindex>1</groupindex>
										</link>
										<labels>
											<label2>Tan</label2>
										</labels>
									</clipitem>
									<enabled>TRUE</enabled>
									<locked>FALSE</locked>
									<outputchannelindex>1</outputchannelindex>
								</track>
								<track TL.SQTrackAudioKeyframeStyle="0" TL.SQTrackShy="0" TL.SQTrackExpandedHeight="25" TL.SQTrackExpanded="0" MZ.TrackTargeted="0" PannerCurrentValue="0.5" PannerIsInverted="true" PannerStartKeyframe="-91445760000000000,0.5,0,0,0,0,0,0" PannerName="Balance" currentExplodedTrackIndex="1" totalExplodedTrackCount="2" premiereTrackType="Stereo">
									<clipitem id="clipitem-277" premiereChannelType="stereo">
										<masterclipid>masterclip-182</masterclipid>
										<name>Trans I</name>
										<enabled>TRUE</enabled>
										<duration>5697</duration>
										<rate>
											<timebase>30</timebase>
											<ntsc>TRUE</ntsc>
										</rate>
										<start>3680</start>
										<end>3922</end>
										<in>0</in>
										<out>242</out>
										<pproTicksIn>0</pproTicksIn>
										<pproTicksOut>2051111462400</pproTicksOut>
										<sequence id="sequence-13"/>
										<sourcetrack>
											<mediatype>audio</mediatype>
											<trackindex>1</trackindex>
										</sourcetrack>
											<marker>
												<comment></comment>
												<name></name>
												<in>233</in>
												<out>-1</out>
												<pproColor>4281828977</pproColor>
											</marker>
											<marker>
												<comment></comment>
												<name></name>
												<in>9</in>
												<out>-1</out>
												<pproColor>4281828977</pproColor>
											</marker>
										<link>
											<linkclipref>clipitem-261</linkclipref>
											<mediatype>video</mediatype>
											<trackindex>5</trackindex>
											<clipindex>1</clipindex>
										</link>
										<link>
											<linkclipref>clipitem-276</linkclipref>
											<mediatype>audio</mediatype>
											<trackindex>9</trackindex>
											<clipindex>1</clipindex>
											<groupindex>1</groupindex>
										</link>
										<link>
											<linkclipref>clipitem-277</linkclipref>
											<mediatype>audio</mediatype>
											<trackindex>10</trackindex>
											<clipindex>1</clipindex>
											<groupindex>1</groupindex>
										</link>
										<labels>
											<label2>Tan</label2>
										</labels>
									</clipitem>
									<enabled>TRUE</enabled>
									<locked>FALSE</locked>
									<outputchannelindex>2</outputchannelindex>
								</track>
							</audio>
						</media>
						<timecode>
							<rate>
								<timebase>30</timebase>
								<ntsc>TRUE</ntsc>
							</rate>
							<string>00;00;00;00</string>
							<frame>0</frame>
							<displayformat>DF</displayformat>
						</timecode>
							<marker>
								<comment></comment>
								<name></name>
								<in>264</in>
								<out>-1</out>
								<pproColor>4281828977</pproColor>
							</marker>
						<labels>
							<label2>Forest</label2>
						</labels>
						<logginginfo>
							<description></description>
							<scene></scene>
							<shottake></shottake>
							<lognote></lognote>
							<good></good>
							<originalvideofilename></originalvideofilename>
							<originalaudiofilename></originalaudiofilename>
						</logginginfo>
					</sequence>
					<sequence id="sequence-14" TL.SQAudioVisibleBase="0" TL.SQVideoVisibleBase="0" TL.SQVisibleBaseTime="31631066173737" TL.SQAVDividerPosition="0.5" TL.SQHideShyTracks="0" TL.SQHeaderWidth="236" TL.SQDataTrackViewControlState="0" Monitor.ProgramZoomOut="48285876038400" Monitor.ProgramZoomIn="0" TL.SQTimePerPixel="0.11553477962373662" MZ.EditLine="46438180588800" MZ.Sequence.PreviewFrameSizeHeight="1080" MZ.Sequence.PreviewFrameSizeWidth="1920" MZ.Sequence.AudioTimeDisplayFormat="200" MZ.Sequence.PreviewRenderingClassID="1297106761" MZ.Sequence.PreviewRenderingPresetCodec="1297107278" MZ.Sequence.PreviewRenderingPresetPath="EncoderPresets/SequencePreview/795454d9-d3c2-429d-9474-923ab13b7018/I-Frame Only MPEG.epr" MZ.Sequence.PreviewUseMaxRenderQuality="false" MZ.Sequence.PreviewUseMaxBitDepth="false" MZ.Sequence.EditingModeGUID="795454d9-d3c2-429d-9474-923ab13b7018" MZ.Sequence.VideoTimeDisplayFormat="102" MZ.WorkOutPoint="15239249625600" MZ.WorkInPoint="0" explodedTracks="true">
						<uuid>8cb94bad-eaa0-4837-8fbd-e69f606d6338</uuid>
						<duration>5469</duration>
						<rate>
							<timebase>30</timebase>
							<ntsc>TRUE</ntsc>
						</rate>
						<name>ATM_DRONE_496</name>
						<media>
							<video>
								<format>
									<samplecharacteristics>
										<rate>
											<timebase>30</timebase>
											<ntsc>TRUE</ntsc>
										</rate>
										<codec>
											<name>Apple ProRes 422</name>
											<appspecificdata>
												<appname>Final Cut Pro</appname>
												<appmanufacturer>Apple Inc.</appmanufacturer>
												<appversion>7.0</appversion>
												<data>
													<qtcodec>
														<codecname>Apple ProRes 422</codecname>
														<codectypename>Apple ProRes 422</codectypename>
														<codectypecode>apcn</codectypecode>
														<codecvendorcode>appl</codecvendorcode>
														<spatialquality>1024</spatialquality>
														<temporalquality>0</temporalquality>
														<keyframerate>0</keyframerate>
														<datarate>0</datarate>
													</qtcodec>
												</data>
											</appspecificdata>
										</codec>
										<width>1920</width>
										<height>1080</height>
										<anamorphic>FALSE</anamorphic>
										<pixelaspectratio>square</pixelaspectratio>
										<fielddominance>none</fielddominance>
										<colordepth>24</colordepth>
									</samplecharacteristics>
								</format>
								<track TL.SQTrackShy="0" TL.SQTrackExpandedHeight="25" TL.SQTrackExpanded="0" MZ.TrackTargeted="1">
									<clipitem id="clipitem-278">
										<masterclipid>masterclip-185</masterclipid>
										<name>DRONE_Coastal Town Ireland_1</name>
										<enabled>TRUE</enabled>
										<duration>4491</duration>
										<rate>
											<timebase>30</timebase>
											<ntsc>TRUE</ntsc>
										</rate>
										<start>0</start>
										<end>2674</end>
										<in>0</in>
										<out>2674</out>
										<pproTicksIn>0</pproTicksIn>
										<pproTicksOut>22663934092800</pproTicksOut>
										<sequence id="sequence-15" TL.SQAudioVisibleBase="0" TL.SQVideoVisibleBase="0" TL.SQVisibleBaseTime="0" TL.SQAVDividerPosition="0.5" TL.SQHideShyTracks="0" TL.SQHeaderWidth="236" Monitor.ProgramZoomOut="22663934092800" Monitor.ProgramZoomIn="0" TL.SQTimePerPixel="0.34954560446769872" MZ.EditLine="22663934092800" MZ.Sequence.PreviewFrameSizeHeight="1080" MZ.Sequence.PreviewFrameSizeWidth="1920" MZ.Sequence.AudioTimeDisplayFormat="200" MZ.Sequence.PreviewRenderingClassID="1061109567" MZ.Sequence.PreviewRenderingPresetCodec="1634755443" MZ.Sequence.PreviewRenderingPresetPath="EncoderPresets/SequencePreview/35d109db-457b-43c1-9452-9cb7be9f121c/QuickTime.epr" MZ.Sequence.PreviewUseMaxRenderQuality="false" MZ.Sequence.PreviewUseMaxBitDepth="false" MZ.Sequence.EditingModeGUID="35d109db-457b-43c1-9452-9cb7be9f121c" MZ.Sequence.VideoTimeDisplayFormat="102" MZ.WorkOutPoint="15239249625600" MZ.WorkInPoint="0">
											<duration>2674</duration>
											<rate>
												<timebase>30</timebase>
												<ntsc>TRUE</ntsc>
											</rate>
											<name>DRONE_A Sleepy Coastal Town_1</name>
											<media>
												<video>
													<format>
														<samplecharacteristics>
															<rate>
																<timebase>30</timebase>
																<ntsc>TRUE</ntsc>
															</rate>
															<codec>
																<name>Apple ProRes 422</name>
																<appspecificdata>
																	<appname>Final Cut Pro</appname>
																	<appmanufacturer>Apple Inc.</appmanufacturer>
																	<appversion>7.0</appversion>
																	<data>
																		<qtcodec>
																			<codecname>Apple ProRes 422</codecname>
																			<codectypename>Apple ProRes 422</codectypename>
																			<codectypecode>apcn</codectypecode>
																			<codecvendorcode>appl</codecvendorcode>
																			<spatialquality>1024</spatialquality>
																			<temporalquality>0</temporalquality>
																			<keyframerate>0</keyframerate>
																			<datarate>0</datarate>
																		</qtcodec>
																	</data>
																</appspecificdata>
															</codec>
															<width>1920</width>
															<height>1080</height>
															<anamorphic>FALSE</anamorphic>
															<pixelaspectratio>square</pixelaspectratio>
															<fielddominance>none</fielddominance>
															<colordepth>24</colordepth>
														</samplecharacteristics>
													</format>
													<track TL.SQTrackShy="0" TL.SQTrackExpandedHeight="25" TL.SQTrackExpanded="0" MZ.TrackTargeted="1">
														<clipitem id="clipitem-279">
															<masterclipid>masterclip-186</masterclipid>
															<name>393466_Coastal Town Church Houses Clouds_By_21_Aerials_Artlist_HD.mp4</name>
															<enabled>TRUE</enabled>
															<duration>775</duration>
															<rate>
																<timebase>30</timebase>
																<ntsc>TRUE</ntsc>
															</rate>
															<start>0</start>
															<end>343</end>
															<in>0</in>
															<out>343</out>
															<pproTicksIn>0</pproTicksIn>
															<pproTicksOut>2907153849600</pproTicksOut>
															<alphatype>none</alphatype>
															<pixelaspectratio>square</pixelaspectratio>
															<anamorphic>FALSE</anamorphic>
															<file id="file-174">
																<name>393466_Coastal Town Church Houses Clouds_By_21_Aerials_Artlist_HD.mp4</name>
																<pathurl>file://localhost/Volumes/T7/DRONE_08.18.2023/3_Raw%20Files/Ireland/393466_Coastal%20Town%20Church%20Houses%20Clouds_By_21_Aerials_Artlist_HD.mp4</pathurl>
																<rate>
																	<timebase>25</timebase>
																	<ntsc>FALSE</ntsc>
																</rate>
																<duration>647</duration>
																<timecode>
																	<rate>
																		<timebase>25</timebase>
																		<ntsc>FALSE</ntsc>
																	</rate>
																	<string>00:00:00:00</string>
																	<frame>0</frame>
																	<displayformat>NDF</displayformat>
																</timecode>
																<media>
																	<video>
																		<samplecharacteristics>
																			<rate>
																				<timebase>25</timebase>
																				<ntsc>FALSE</ntsc>
																			</rate>
																			<width>1920</width>
																			<height>1080</height>
																			<anamorphic>FALSE</anamorphic>
																			<pixelaspectratio>square</pixelaspectratio>
																			<fielddominance>none</fielddominance>
																		</samplecharacteristics>
																	</video>
																</media>
															</file>
															<logginginfo>
																<description></description>
																<scene></scene>
																<shottake></shottake>
																<lognote></lognote>
																<good></good>
																<originalvideofilename></originalvideofilename>
																<originalaudiofilename></originalaudiofilename>
															</logginginfo>
															<colorinfo>
																<lut></lut>
																<lut1></lut1>
																<asc_sop></asc_sop>
																<asc_sat></asc_sat>
																<lut2></lut2>
															</colorinfo>
															<labels>
																<label2>Violet</label2>
															</labels>
														</clipitem>
														<clipitem id="clipitem-280">
															<masterclipid>masterclip-187</masterclipid>
															<name>393472_Coastal Town Roads Church Clouds_By_21_Aerials_Artlist_HD.mp4</name>
															<enabled>TRUE</enabled>
															<duration>581</duration>
															<rate>
																<timebase>30</timebase>
																<ntsc>TRUE</ntsc>
															</rate>
															<start>343</start>
															<end>690</end>
															<in>0</in>
															<out>347</out>
															<pproTicksIn>0</pproTicksIn>
															<pproTicksOut>2941056518400</pproTicksOut>
															<alphatype>none</alphatype>
															<pixelaspectratio>square</pixelaspectratio>
															<anamorphic>FALSE</anamorphic>
															<file id="file-175">
																<name>393472_Coastal Town Roads Church Clouds_By_21_Aerials_Artlist_HD.mp4</name>
																<pathurl>file://localhost/Volumes/T7/DRONE_08.18.2023/3_Raw%20Files/Ireland/393472_Coastal%20Town%20Roads%20Church%20Clouds_By_21_Aerials_Artlist_HD.mp4</pathurl>
																<rate>
																	<timebase>25</timebase>
																	<ntsc>FALSE</ntsc>
																</rate>
																<duration>485</duration>
																<timecode>
																	<rate>
																		<timebase>25</timebase>
																		<ntsc>FALSE</ntsc>
																	</rate>
																	<string>00:00:00:00</string>
																	<frame>0</frame>
																	<displayformat>NDF</displayformat>
																</timecode>
																<media>
																	<video>
																		<samplecharacteristics>
																			<rate>
																				<timebase>25</timebase>
																				<ntsc>FALSE</ntsc>
																			</rate>
																			<width>1920</width>
																			<height>1080</height>
																			<anamorphic>FALSE</anamorphic>
																			<pixelaspectratio>square</pixelaspectratio>
																			<fielddominance>none</fielddominance>
																		</samplecharacteristics>
																	</video>
																</media>
															</file>
															<logginginfo>
																<description></description>
																<scene></scene>
																<shottake></shottake>
																<lognote></lognote>
																<good></good>
																<originalvideofilename></originalvideofilename>
																<originalaudiofilename></originalaudiofilename>
															</logginginfo>
															<colorinfo>
																<lut></lut>
																<lut1></lut1>
																<asc_sop></asc_sop>
																<asc_sat></asc_sat>
																<lut2></lut2>
															</colorinfo>
															<labels>
																<label2>Violet</label2>
															</labels>
														</clipitem>
														<clipitem id="clipitem-281">
															<masterclipid>masterclip-188</masterclipid>
															<name>393462_Town Houses Roads Hills_By_21_Aerials_Artlist_HD.mp4</name>
															<enabled>TRUE</enabled>
															<duration>496</duration>
															<rate>
																<timebase>30</timebase>
																<ntsc>TRUE</ntsc>
															</rate>
															<start>690</start>
															<end>1036</end>
															<in>0</in>
															<out>346</out>
															<pproTicksIn>0</pproTicksIn>
															<pproTicksOut>2932580851200</pproTicksOut>
															<alphatype>none</alphatype>
															<pixelaspectratio>square</pixelaspectratio>
															<anamorphic>FALSE</anamorphic>
															<file id="file-176">
																<name>393462_Town Houses Roads Hills_By_21_Aerials_Artlist_HD.mp4</name>
																<pathurl>file://localhost/Volumes/T7/DRONE_08.18.2023/3_Raw%20Files/Ireland/393462_Town%20Houses%20Roads%20Hills_By_21_Aerials_Artlist_HD.mp4</pathurl>
																<rate>
																	<timebase>25</timebase>
																	<ntsc>FALSE</ntsc>
																</rate>
																<duration>414</duration>
																<timecode>
																	<rate>
																		<timebase>25</timebase>
																		<ntsc>FALSE</ntsc>
																	</rate>
																	<string>00:00:00:00</string>
																	<frame>0</frame>
																	<displayformat>NDF</displayformat>
																</timecode>
																<media>
																	<video>
																		<samplecharacteristics>
																			<rate>
																				<timebase>25</timebase>
																				<ntsc>FALSE</ntsc>
																			</rate>
																			<width>1920</width>
																			<height>1080</height>
																			<anamorphic>FALSE</anamorphic>
																			<pixelaspectratio>square</pixelaspectratio>
																			<fielddominance>none</fielddominance>
																		</samplecharacteristics>
																	</video>
																</media>
															</file>
															<logginginfo>
																<description></description>
																<scene></scene>
																<shottake></shottake>
																<lognote></lognote>
																<good></good>
																<originalvideofilename></originalvideofilename>
																<originalaudiofilename></originalaudiofilename>
															</logginginfo>
															<colorinfo>
																<lut></lut>
																<lut1></lut1>
																<asc_sop></asc_sop>
																<asc_sat></asc_sat>
																<lut2></lut2>
															</colorinfo>
															<labels>
																<label2>Violet</label2>
															</labels>
														</clipitem>
														<clipitem id="clipitem-282">
															<masterclipid>masterclip-189</masterclipid>
															<name>393467_Church Coastal Town Houses Roads_By_21_Aerials_Artlist_HD.mp4</name>
															<enabled>TRUE</enabled>
															<duration>571</duration>
															<rate>
																<timebase>30</timebase>
																<ntsc>TRUE</ntsc>
															</rate>
															<start>1036</start>
															<end>1384</end>
															<in>0</in>
															<out>348</out>
															<pproTicksIn>0</pproTicksIn>
															<pproTicksOut>2949532185600</pproTicksOut>
															<alphatype>none</alphatype>
															<pixelaspectratio>square</pixelaspectratio>
															<anamorphic>FALSE</anamorphic>
															<file id="file-177">
																<name>393467_Church Coastal Town Houses Roads_By_21_Aerials_Artlist_HD.mp4</name>
																<pathurl>file://localhost/Volumes/T7/DRONE_08.18.2023/3_Raw%20Files/Ireland/393467_Church%20Coastal%20Town%20Houses%20Roads_By_21_Aerials_Artlist_HD.mp4</pathurl>
																<rate>
																	<timebase>25</timebase>
																	<ntsc>FALSE</ntsc>
																</rate>
																<duration>477</duration>
																<timecode>
																	<rate>
																		<timebase>25</timebase>
																		<ntsc>FALSE</ntsc>
																	</rate>
																	<string>00:00:00:00</string>
																	<frame>0</frame>
																	<displayformat>NDF</displayformat>
																</timecode>
																<media>
																	<video>
																		<samplecharacteristics>
																			<rate>
																				<timebase>25</timebase>
																				<ntsc>FALSE</ntsc>
																			</rate>
																			<width>1920</width>
																			<height>1080</height>
																			<anamorphic>FALSE</anamorphic>
																			<pixelaspectratio>square</pixelaspectratio>
																			<fielddominance>none</fielddominance>
																		</samplecharacteristics>
																	</video>
																</media>
															</file>
															<logginginfo>
																<description></description>
																<scene></scene>
																<shottake></shottake>
																<lognote></lognote>
																<good></good>
																<originalvideofilename></originalvideofilename>
																<originalaudiofilename></originalaudiofilename>
															</logginginfo>
															<colorinfo>
																<lut></lut>
																<lut1></lut1>
																<asc_sop></asc_sop>
																<asc_sat></asc_sat>
																<lut2></lut2>
															</colorinfo>
															<labels>
																<label2>Violet</label2>
															</labels>
														</clipitem>
														<clipitem id="clipitem-283">
															<masterclipid>masterclip-190</masterclipid>
															<name>393470_Town Church Houses Mountains_By_21_Aerials_Artlist_HD.mp4</name>
															<enabled>TRUE</enabled>
															<duration>676</duration>
															<rate>
																<timebase>30</timebase>
																<ntsc>TRUE</ntsc>
															</rate>
															<start>1384</start>
															<end>1732</end>
															<in>0</in>
															<out>348</out>
															<pproTicksIn>0</pproTicksIn>
															<pproTicksOut>2949532185600</pproTicksOut>
															<alphatype>none</alphatype>
															<pixelaspectratio>square</pixelaspectratio>
															<anamorphic>FALSE</anamorphic>
															<file id="file-178">
																<name>393470_Town Church Houses Mountains_By_21_Aerials_Artlist_HD.mp4</name>
																<pathurl>file://localhost/Volumes/T7/DRONE_08.18.2023/3_Raw%20Files/Ireland/393470_Town%20Church%20Houses%20Mountains_By_21_Aerials_Artlist_HD.mp4</pathurl>
																<rate>
																	<timebase>25</timebase>
																	<ntsc>FALSE</ntsc>
																</rate>
																<duration>564</duration>
																<timecode>
																	<rate>
																		<timebase>25</timebase>
																		<ntsc>FALSE</ntsc>
																	</rate>
																	<string>00:00:00:00</string>
																	<frame>0</frame>
																	<displayformat>NDF</displayformat>
																</timecode>
																<media>
																	<video>
																		<samplecharacteristics>
																			<rate>
																				<timebase>25</timebase>
																				<ntsc>FALSE</ntsc>
																			</rate>
																			<width>1920</width>
																			<height>1080</height>
																			<anamorphic>FALSE</anamorphic>
																			<pixelaspectratio>square</pixelaspectratio>
																			<fielddominance>none</fielddominance>
																		</samplecharacteristics>
																	</video>
																</media>
															</file>
															<logginginfo>
																<description></description>
																<scene></scene>
																<shottake></shottake>
																<lognote></lognote>
																<good></good>
																<originalvideofilename></originalvideofilename>
																<originalaudiofilename></originalaudiofilename>
															</logginginfo>
															<colorinfo>
																<lut></lut>
																<lut1></lut1>
																<asc_sop></asc_sop>
																<asc_sat></asc_sat>
																<lut2></lut2>
															</colorinfo>
															<labels>
																<label2>Violet</label2>
															</labels>
														</clipitem>
														<clipitem id="clipitem-284">
															<masterclipid>masterclip-191</masterclipid>
															<name>393485_Coastal Town Roundabout Cars Houses_By_21_Aerials_Artlist_HD.mp4</name>
															<enabled>TRUE</enabled>
															<duration>784</duration>
															<rate>
																<timebase>30</timebase>
																<ntsc>TRUE</ntsc>
															</rate>
															<start>1732</start>
															<end>2337</end>
															<in>0</in>
															<out>605</out>
															<pproTicksIn>0</pproTicksIn>
															<pproTicksOut>5127778656000</pproTicksOut>
															<alphatype>none</alphatype>
															<pixelaspectratio>square</pixelaspectratio>
															<anamorphic>FALSE</anamorphic>
															<file id="file-179">
																<name>393485_Coastal Town Roundabout Cars Houses_By_21_Aerials_Artlist_HD.mp4</name>
																<pathurl>file://localhost/Volumes/T7/DRONE_08.18.2023/3_Raw%20Files/Ireland/393485_Coastal%20Town%20Roundabout%20Cars%20Houses_By_21_Aerials_Artlist_HD.mp4</pathurl>
																<rate>
																	<timebase>25</timebase>
																	<ntsc>FALSE</ntsc>
																</rate>
																<duration>654</duration>
																<timecode>
																	<rate>
																		<timebase>25</timebase>
																		<ntsc>FALSE</ntsc>
																	</rate>
																	<string>00:00:00:00</string>
																	<frame>0</frame>
																	<displayformat>NDF</displayformat>
																</timecode>
																<media>
																	<video>
																		<samplecharacteristics>
																			<rate>
																				<timebase>25</timebase>
																				<ntsc>FALSE</ntsc>
																			</rate>
																			<width>1920</width>
																			<height>1080</height>
																			<anamorphic>FALSE</anamorphic>
																			<pixelaspectratio>square</pixelaspectratio>
																			<fielddominance>none</fielddominance>
																		</samplecharacteristics>
																	</video>
																</media>
															</file>
															<logginginfo>
																<description></description>
																<scene></scene>
																<shottake></shottake>
																<lognote></lognote>
																<good></good>
																<originalvideofilename></originalvideofilename>
																<originalaudiofilename></originalaudiofilename>
															</logginginfo>
															<colorinfo>
																<lut></lut>
																<lut1></lut1>
																<asc_sop></asc_sop>
																<asc_sat></asc_sat>
																<lut2></lut2>
															</colorinfo>
															<labels>
																<label2>Violet</label2>
															</labels>
														</clipitem>
														<clipitem id="clipitem-285">
															<masterclipid>masterclip-192</masterclipid>
															<name>393476_Coastal Town Houses Clouds Mountains_By_21_Aerials_Artlist_HD.mp4</name>
															<enabled>TRUE</enabled>
															<duration>336</duration>
															<rate>
																<timebase>30</timebase>
																<ntsc>TRUE</ntsc>
															</rate>
															<start>2337</start>
															<end>2674</end>
															<in>0</in>
															<out>337</out>
															<pproTicksIn>0</pproTicksIn>
															<pproTicksOut>2856299846400</pproTicksOut>
															<alphatype>none</alphatype>
															<pixelaspectratio>square</pixelaspectratio>
															<anamorphic>FALSE</anamorphic>
															<file id="file-180">
																<name>393476_Coastal Town Houses Clouds Mountains_By_21_Aerials_Artlist_HD.mp4</name>
																<pathurl>file://localhost/Volumes/T7/DRONE_08.18.2023/3_Raw%20Files/Ireland/393476_Coastal%20Town%20Houses%20Clouds%20Mountains_By_21_Aerials_Artlist_HD.mp4</pathurl>
																<rate>
																	<timebase>25</timebase>
																	<ntsc>FALSE</ntsc>
																</rate>
																<duration>281</duration>
																<timecode>
																	<rate>
																		<timebase>25</timebase>
																		<ntsc>FALSE</ntsc>
																	</rate>
																	<string>00:00:00:00</string>
																	<frame>0</frame>
																	<displayformat>NDF</displayformat>
																</timecode>
																<media>
																	<video>
																		<samplecharacteristics>
																			<rate>
																				<timebase>25</timebase>
																				<ntsc>FALSE</ntsc>
																			</rate>
																			<width>1920</width>
																			<height>1080</height>
																			<anamorphic>FALSE</anamorphic>
																			<pixelaspectratio>square</pixelaspectratio>
																			<fielddominance>none</fielddominance>
																		</samplecharacteristics>
																	</video>
																</media>
															</file>
															<logginginfo>
																<description></description>
																<scene></scene>
																<shottake></shottake>
																<lognote></lognote>
																<good></good>
																<originalvideofilename></originalvideofilename>
																<originalaudiofilename></originalaudiofilename>
															</logginginfo>
															<colorinfo>
																<lut></lut>
																<lut1></lut1>
																<asc_sop></asc_sop>
																<asc_sat></asc_sat>
																<lut2></lut2>
															</colorinfo>
															<labels>
																<label2>Violet</label2>
															</labels>
														</clipitem>
														<enabled>TRUE</enabled>
														<locked>FALSE</locked>
													</track>
													<track TL.SQTrackShy="0" TL.SQTrackExpandedHeight="25" TL.SQTrackExpanded="0" MZ.TrackTargeted="0">
														<enabled>TRUE</enabled>
														<locked>FALSE</locked>
													</track>
													<track TL.SQTrackShy="0" TL.SQTrackExpandedHeight="25" TL.SQTrackExpanded="0" MZ.TrackTargeted="0">
														<enabled>TRUE</enabled>
														<locked>FALSE</locked>
													</track>
												</video>
												<audio>
													<numOutputChannels>2</numOutputChannels>
													<format>
														<samplecharacteristics>
															<depth>16</depth>
															<samplerate>48000</samplerate>
														</samplecharacteristics>
													</format>
													<outputs>
														<group>
															<index>1</index>
															<numchannels>1</numchannels>
															<downmix>0</downmix>
															<channel>
																<index>1</index>
															</channel>
														</group>
														<group>
															<index>2</index>
															<numchannels>1</numchannels>
															<downmix>0</downmix>
															<channel>
																<index>2</index>
															</channel>
														</group>
													</outputs>
													<track TL.SQTrackAudioKeyframeStyle="0" TL.SQTrackShy="0" TL.SQTrackExpandedHeight="25" TL.SQTrackExpanded="0" MZ.TrackTargeted="1" PannerCurrentValue="0.5" PannerIsInverted="true" PannerStartKeyframe="-91445760000000000,0.5,0,0,0,0,0,0" PannerName="Balance" currentExplodedTrackIndex="0" totalExplodedTrackCount="2" premiereTrackType="Stereo">
														<clipitem id="clipitem-286" premiereChannelType="stereo">
															<masterclipid>masterclip-193</masterclipid>
															<name>ES_Odd Sensibility - Jules Gaia.mp3</name>
															<enabled>TRUE</enabled>
															<duration>4491</duration>
															<rate>
																<timebase>30</timebase>
																<ntsc>TRUE</ntsc>
															</rate>
															<start>0</start>
															<end>-1</end>
															<in>0</in>
															<out>2674</out>
															<pproTicksIn>0</pproTicksIn>
															<pproTicksOut>22663934092800</pproTicksOut>
															<file id="file-181">
																<name>ES_Odd Sensibility - Jules Gaia.mp3</name>
																<pathurl>file://localhost/Volumes/T7/DRONE_08.18.2023/5_Music/ES_Odd%20Sensibility%20-%20Jules%20Gaia.mp3</pathurl>
																<rate>
																	<timebase>30</timebase>
																	<ntsc>TRUE</ntsc>
																</rate>
																<duration>4491</duration>
																<timecode>
																	<rate>
																		<timebase>30</timebase>
																		<ntsc>TRUE</ntsc>
																	</rate>
																	<string>00;00;00;00</string>
																	<frame>0</frame>
																	<displayformat>DF</displayformat>
																</timecode>
																<media>
																	<audio>
																		<samplecharacteristics>
																			<depth>16</depth>
																			<samplerate>48000</samplerate>
																		</samplecharacteristics>
																		<channelcount>2</channelcount>
																	</audio>
																</media>
															</file>
															<sourcetrack>
																<mediatype>audio</mediatype>
																<trackindex>1</trackindex>
															</sourcetrack>
															<link>
																<linkclipref>clipitem-286</linkclipref>
																<mediatype>audio</mediatype>
																<trackindex>1</trackindex>
																<clipindex>1</clipindex>
																<groupindex>1</groupindex>
															</link>
															<link>
																<linkclipref>clipitem-287</linkclipref>
																<mediatype>audio</mediatype>
																<trackindex>2</trackindex>
																<clipindex>1</clipindex>
																<groupindex>1</groupindex>
															</link>
															<logginginfo>
																<description></description>
																<scene></scene>
																<shottake></shottake>
																<lognote></lognote>
																<good></good>
																<originalvideofilename></originalvideofilename>
																<originalaudiofilename></originalaudiofilename>
															</logginginfo>
															<colorinfo>
																<lut></lut>
																<lut1></lut1>
																<asc_sop></asc_sop>
																<asc_sat></asc_sat>
																<lut2></lut2>
															</colorinfo>
														</clipitem>
														<transitionitem>
															<start>2661</start>
															<end>2674</end>
															<pproTicksIn>22553750419200</pproTicksIn>
															<pproTicksOut>22663934092800</pproTicksOut>
															<alignment>end-black</alignment>
															<cutPointTicks>110183673600</cutPointTicks>
															<rate>
																<timebase>30</timebase>
																<ntsc>TRUE</ntsc>
															</rate>
															<effect>
																<name>Cross Fade ( 0dB)</name>
																<effectid>KGAudioTransCrossFade0dB</effectid>
																<effecttype>transition</effecttype>
																<mediatype>audio</mediatype>
																<wipecode>0</wipecode>
																<wipeaccuracy>100</wipeaccuracy>
																<startratio>0</startratio>
																<endratio>1</endratio>
																<reverse>FALSE</reverse>
															</effect>
														</transitionitem>
														<enabled>TRUE</enabled>
														<locked>FALSE</locked>
														<outputchannelindex>1</outputchannelindex>
													</track>
													<track TL.SQTrackAudioKeyframeStyle="0" TL.SQTrackShy="0" TL.SQTrackExpandedHeight="25" TL.SQTrackExpanded="0" MZ.TrackTargeted="1" PannerCurrentValue="0.5" PannerIsInverted="true" PannerStartKeyframe="-91445760000000000,0.5,0,0,0,0,0,0" PannerName="Balance" currentExplodedTrackIndex="1" totalExplodedTrackCount="2" premiereTrackType="Stereo">
														<clipitem id="clipitem-287" premiereChannelType="stereo">
															<masterclipid>masterclip-193</masterclipid>
															<name>ES_Odd Sensibility - Jules Gaia.mp3</name>
															<enabled>TRUE</enabled>
															<duration>4491</duration>
															<rate>
																<timebase>30</timebase>
																<ntsc>TRUE</ntsc>
															</rate>
															<start>0</start>
															<end>-1</end>
															<in>0</in>
															<out>2674</out>
															<pproTicksIn>0</pproTicksIn>
															<pproTicksOut>22663934092800</pproTicksOut>
															<file id="file-181"/>
															<sourcetrack>
																<mediatype>audio</mediatype>
																<trackindex>2</trackindex>
															</sourcetrack>
															<link>
																<linkclipref>clipitem-286</linkclipref>
																<mediatype>audio</mediatype>
																<trackindex>1</trackindex>
																<clipindex>1</clipindex>
																<groupindex>1</groupindex>
															</link>
															<link>
																<linkclipref>clipitem-287</linkclipref>
																<mediatype>audio</mediatype>
																<trackindex>2</trackindex>
																<clipindex>1</clipindex>
																<groupindex>1</groupindex>
															</link>
															<logginginfo>
																<description></description>
																<scene></scene>
																<shottake></shottake>
																<lognote></lognote>
																<good></good>
																<originalvideofilename></originalvideofilename>
																<originalaudiofilename></originalaudiofilename>
															</logginginfo>
															<colorinfo>
																<lut></lut>
																<lut1></lut1>
																<asc_sop></asc_sop>
																<asc_sat></asc_sat>
																<lut2></lut2>
															</colorinfo>
														</clipitem>
														<transitionitem>
															<start>2661</start>
															<end>2674</end>
															<pproTicksIn>22553750419200</pproTicksIn>
															<pproTicksOut>22663934092800</pproTicksOut>
															<alignment>end-black</alignment>
															<cutPointTicks>110183673600</cutPointTicks>
															<rate>
																<timebase>30</timebase>
																<ntsc>TRUE</ntsc>
															</rate>
															<effect>
																<name>Cross Fade ( 0dB)</name>
																<effectid>KGAudioTransCrossFade0dB</effectid>
																<effecttype>transition</effecttype>
																<mediatype>audio</mediatype>
																<wipecode>0</wipecode>
																<wipeaccuracy>100</wipeaccuracy>
																<startratio>0</startratio>
																<endratio>1</endratio>
																<reverse>FALSE</reverse>
															</effect>
														</transitionitem>
														<enabled>TRUE</enabled>
														<locked>FALSE</locked>
														<outputchannelindex>2</outputchannelindex>
													</track>
													<track TL.SQTrackAudioKeyframeStyle="0" TL.SQTrackShy="0" TL.SQTrackExpandedHeight="25" TL.SQTrackExpanded="0" MZ.TrackTargeted="1" PannerCurrentValue="0.5" PannerIsInverted="true" PannerStartKeyframe="-91445760000000000,0.5,0,0,0,0,0,0" PannerName="Balance" currentExplodedTrackIndex="0" totalExplodedTrackCount="2" premiereTrackType="Stereo">
														<enabled>TRUE</enabled>
														<locked>FALSE</locked>
														<outputchannelindex>1</outputchannelindex>
													</track>
													<track TL.SQTrackAudioKeyframeStyle="0" TL.SQTrackShy="0" TL.SQTrackExpandedHeight="25" TL.SQTrackExpanded="0" MZ.TrackTargeted="1" PannerCurrentValue="0.5" PannerIsInverted="true" PannerStartKeyframe="-91445760000000000,0.5,0,0,0,0,0,0" PannerName="Balance" currentExplodedTrackIndex="1" totalExplodedTrackCount="2" premiereTrackType="Stereo">
														<enabled>TRUE</enabled>
														<locked>FALSE</locked>
														<outputchannelindex>2</outputchannelindex>
													</track>
													<track TL.SQTrackAudioKeyframeStyle="0" TL.SQTrackShy="0" TL.SQTrackExpandedHeight="25" TL.SQTrackExpanded="0" MZ.TrackTargeted="1" PannerCurrentValue="0.5" PannerIsInverted="true" PannerStartKeyframe="-91445760000000000,0.5,0,0,0,0,0,0" PannerName="Balance" currentExplodedTrackIndex="0" totalExplodedTrackCount="2" premiereTrackType="Stereo">
														<enabled>TRUE</enabled>
														<locked>FALSE</locked>
														<outputchannelindex>1</outputchannelindex>
													</track>
													<track TL.SQTrackAudioKeyframeStyle="0" TL.SQTrackShy="0" TL.SQTrackExpandedHeight="25" TL.SQTrackExpanded="0" MZ.TrackTargeted="1" PannerCurrentValue="0.5" PannerIsInverted="true" PannerStartKeyframe="-91445760000000000,0.5,0,0,0,0,0,0" PannerName="Balance" currentExplodedTrackIndex="1" totalExplodedTrackCount="2" premiereTrackType="Stereo">
														<enabled>TRUE</enabled>
														<locked>FALSE</locked>
														<outputchannelindex>2</outputchannelindex>
													</track>
												</audio>
											</media>
											<timecode>
												<rate>
													<timebase>30</timebase>
													<ntsc>TRUE</ntsc>
												</rate>
												<string>00;00;00;00</string>
												<frame>0</frame>
												<displayformat>DF</displayformat>
											</timecode>
											<logginginfo>
												<description></description>
												<scene></scene>
												<shottake></shottake>
												<lognote></lognote>
												<good></good>
												<originalvideofilename></originalvideofilename>
												<originalaudiofilename></originalaudiofilename>
											</logginginfo>
											<filter>
												<effect>
													<name>Audio Levels</name>
													<effectid>audiolevels</effectid>
													<effectcategory>audiolevels</effectcategory>
													<effecttype>audiolevels</effecttype>
													<mediatype>audio</mediatype>
													<parameter authoringApp="PremierePro">
														<parameterid>level</parameterid>
														<name>Level</name>
														<valuemin>0</valuemin>
														<valuemax>3.98109</valuemax>
														<value>0.839406</value>
													</parameter>
												</effect>
											</filter>
										</sequence>
										<link>
											<linkclipref>clipitem-278</linkclipref>
											<mediatype>video</mediatype>
											<trackindex>1</trackindex>
											<clipindex>1</clipindex>
										</link>
										<link>
											<linkclipref>clipitem-351</linkclipref>
											<mediatype>audio</mediatype>
											<trackindex>1</trackindex>
											<clipindex>1</clipindex>
											<groupindex>1</groupindex>
										</link>
										<link>
											<linkclipref>clipitem-353</linkclipref>
											<mediatype>audio</mediatype>
											<trackindex>2</trackindex>
											<clipindex>1</clipindex>
											<groupindex>1</groupindex>
										</link>
										<labels>
											<label2>Forest</label2>
										</labels>
									</clipitem>
									<clipitem id="clipitem-288">
										<masterclipid>masterclip-194</masterclipid>
										<name>DRONE_Lapland &amp; Lofoten_2</name>
										<enabled>TRUE</enabled>
										<duration>14871</duration>
										<rate>
											<timebase>30</timebase>
											<ntsc>TRUE</ntsc>
										</rate>
										<start>2894</start>
										<end>5461</end>
										<in>0</in>
										<out>2567</out>
										<pproTicksIn>0</pproTicksIn>
										<pproTicksOut>21757037702400</pproTicksOut>
										<sequence id="sequence-16" TL.SQAudioVisibleBase="0" TL.SQVideoVisibleBase="0" TL.SQVisibleBaseTime="0" TL.SQAVDividerPosition="0.5" TL.SQHideShyTracks="0" TL.SQHeaderWidth="236" Monitor.ProgramZoomOut="24952364236800" Monitor.ProgramZoomIn="0" TL.SQTimePerPixel="0.16867250546687615" MZ.EditLine="24952364236800" MZ.Sequence.PreviewFrameSizeHeight="1080" MZ.Sequence.PreviewFrameSizeWidth="1920" MZ.Sequence.AudioTimeDisplayFormat="200" MZ.Sequence.PreviewRenderingClassID="1061109567" MZ.Sequence.PreviewRenderingPresetCodec="1634755443" MZ.Sequence.PreviewRenderingPresetPath="EncoderPresets/SequencePreview/35d109db-457b-43c1-9452-9cb7be9f121c/QuickTime.epr" MZ.Sequence.PreviewUseMaxRenderQuality="false" MZ.Sequence.PreviewUseMaxBitDepth="false" MZ.Sequence.EditingModeGUID="35d109db-457b-43c1-9452-9cb7be9f121c" MZ.Sequence.VideoTimeDisplayFormat="102" MZ.WorkOutPoint="15239249625600" MZ.WorkInPoint="0">
											<duration>2944</duration>
											<rate>
												<timebase>30</timebase>
												<ntsc>TRUE</ntsc>
											</rate>
											<name>DRONE_Lapland &amp; Lofoten_1.5</name>
											<media>
												<video>
													<format>
														<samplecharacteristics>
															<rate>
																<timebase>30</timebase>
																<ntsc>TRUE</ntsc>
															</rate>
															<codec>
																<name>Apple ProRes 422</name>
																<appspecificdata>
																	<appname>Final Cut Pro</appname>
																	<appmanufacturer>Apple Inc.</appmanufacturer>
																	<appversion>7.0</appversion>
																	<data>
																		<qtcodec>
																			<codecname>Apple ProRes 422</codecname>
																			<codectypename>Apple ProRes 422</codectypename>
																			<codectypecode>apcn</codectypecode>
																			<codecvendorcode>appl</codecvendorcode>
																			<spatialquality>1024</spatialquality>
																			<temporalquality>0</temporalquality>
																			<keyframerate>0</keyframerate>
																			<datarate>0</datarate>
																		</qtcodec>
																	</data>
																</appspecificdata>
															</codec>
															<width>1920</width>
															<height>1080</height>
															<anamorphic>FALSE</anamorphic>
															<pixelaspectratio>square</pixelaspectratio>
															<fielddominance>none</fielddominance>
															<colordepth>24</colordepth>
														</samplecharacteristics>
													</format>
													<track TL.SQTrackShy="0" TL.SQTrackExpandedHeight="25" TL.SQTrackExpanded="0" MZ.TrackTargeted="1">
														<clipitem id="clipitem-289">
															<masterclipid>masterclip-195</masterclipid>
															<name>(Loci)_The North (Arctic life in Lapland &amp; Lofoten) - LÓCI_inZ9KZPq1mQ_YT.mp4</name>
															<enabled>TRUE</enabled>
															<duration>7749</duration>
															<rate>
																<timebase>30</timebase>
																<ntsc>TRUE</ntsc>
															</rate>
															<start>0</start>
															<end>123</end>
															<in>835</in>
															<out>958</out>
															<pproTicksIn>7077182112000</pproTicksIn>
															<pproTicksOut>8119689177600</pproTicksOut>
															<alphatype>none</alphatype>
															<pixelaspectratio>square</pixelaspectratio>
															<anamorphic>FALSE</anamorphic>
															<file id="file-182">
																<name>(Loci)_The North (Arctic life in Lapland &amp; Lofoten) - LÓCI_inZ9KZPq1mQ_YT.mp4</name>
																<pathurl>file://localhost/Volumes/T7/DRONE_08.18.2023/3_Raw%20Files/Various%20Files/(Loci)_The%20North%20(Arctic%20life%20in%20Lapland%20&amp;%20Lofoten)%20-%20LO%cc%81CI_inZ9KZPq1mQ_YT.mp4</pathurl>
																<rate>
																	<timebase>30</timebase>
																	<ntsc>TRUE</ntsc>
																</rate>
																<duration>7749</duration>
																<timecode>
																	<rate>
																		<timebase>30</timebase>
																		<ntsc>TRUE</ntsc>
																	</rate>
																	<string>00:00:00:00</string>
																	<frame>0</frame>
																	<displayformat>NDF</displayformat>
																</timecode>
																<media>
																	<video>
																		<samplecharacteristics>
																			<rate>
																				<timebase>30</timebase>
																				<ntsc>TRUE</ntsc>
																			</rate>
																			<width>1920</width>
																			<height>1080</height>
																			<anamorphic>FALSE</anamorphic>
																			<pixelaspectratio>square</pixelaspectratio>
																			<fielddominance>none</fielddominance>
																		</samplecharacteristics>
																	</video>
																	<audio>
																		<samplecharacteristics>
																			<depth>16</depth>
																			<samplerate>44100</samplerate>
																		</samplecharacteristics>
																		<channelcount>2</channelcount>
																	</audio>
																</media>
															</file>
															<filter>
																<effect>
																	<name>Basic Motion</name>
																	<effectid>basic</effectid>
																	<effectcategory>motion</effectcategory>
																	<effecttype>motion</effecttype>
																	<mediatype>video</mediatype>
																	<pproBypass>false</pproBypass>
																	<parameter authoringApp="PremierePro">
																		<parameterid>scale</parameterid>
																		<name>Scale</name>
																		<valuemin>0</valuemin>
																		<valuemax>1000</valuemax>
																		<value>133</value>
																	</parameter>
																	<parameter authoringApp="PremierePro">
																		<parameterid>rotation</parameterid>
																		<name>Rotation</name>
																		<valuemin>-8640</valuemin>
																		<valuemax>8640</valuemax>
																		<value>0</value>
																	</parameter>
																	<parameter authoringApp="PremierePro">
																		<parameterid>center</parameterid>
																		<name>Center</name>
																		<value>
																			<horiz>0</horiz>
																			<vert>0</vert>
																		</value>
																	</parameter>
																	<parameter authoringApp="PremierePro">
																		<parameterid>centerOffset</parameterid>
																		<name>Anchor Point</name>
																		<value>
																			<horiz>0</horiz>
																			<vert>0</vert>
																		</value>
																	</parameter>
																	<parameter authoringApp="PremierePro">
																		<parameterid>antiflicker</parameterid>
																		<name>Anti-flicker Filter</name>
																		<valuemin>0.0</valuemin>
																		<valuemax>1.0</valuemax>
																		<value>0</value>
																	</parameter>
																</effect>
															</filter>
															<logginginfo>
																<description></description>
																<scene></scene>
																<shottake></shottake>
																<lognote>https://www.youtube.com/watch?v=inZ9KZPq1mQ</lognote>
																<good></good>
																<originalvideofilename></originalvideofilename>
																<originalaudiofilename></originalaudiofilename>
															</logginginfo>
															<colorinfo>
																<lut></lut>
																<lut1></lut1>
																<asc_sop></asc_sop>
																<asc_sat></asc_sat>
																<lut2></lut2>
															</colorinfo>
															<labels>
																<label2>Iris</label2>
															</labels>
														</clipitem>
														<clipitem id="clipitem-290">
															<masterclipid>masterclip-195</masterclipid>
															<name>(Loci)_The North (Arctic life in Lapland &amp; Lofoten) - LÓCI_inZ9KZPq1mQ_YT.mp4</name>
															<enabled>TRUE</enabled>
															<duration>7749</duration>
															<rate>
																<timebase>30</timebase>
																<ntsc>TRUE</ntsc>
															</rate>
															<start>123</start>
															<end>178</end>
															<in>1744</in>
															<out>1799</out>
															<pproTicksIn>14781563596800</pproTicksIn>
															<pproTicksOut>15247725292800</pproTicksOut>
															<alphatype>none</alphatype>
															<file id="file-182"/>
															<filter>
																<effect>
																	<name>Basic Motion</name>
																	<effectid>basic</effectid>
																	<effectcategory>motion</effectcategory>
																	<effecttype>motion</effecttype>
																	<mediatype>video</mediatype>
																	<pproBypass>false</pproBypass>
																	<parameter authoringApp="PremierePro">
																		<parameterid>scale</parameterid>
																		<name>Scale</name>
																		<valuemin>0</valuemin>
																		<valuemax>1000</valuemax>
																		<value>133</value>
																	</parameter>
																	<parameter authoringApp="PremierePro">
																		<parameterid>rotation</parameterid>
																		<name>Rotation</name>
																		<valuemin>-8640</valuemin>
																		<valuemax>8640</valuemax>
																		<value>0</value>
																	</parameter>
																	<parameter authoringApp="PremierePro">
																		<parameterid>center</parameterid>
																		<name>Center</name>
																		<value>
																			<horiz>0</horiz>
																			<vert>0</vert>
																		</value>
																	</parameter>
																	<parameter authoringApp="PremierePro">
																		<parameterid>centerOffset</parameterid>
																		<name>Anchor Point</name>
																		<value>
																			<horiz>0</horiz>
																			<vert>0</vert>
																		</value>
																	</parameter>
																	<parameter authoringApp="PremierePro">
																		<parameterid>antiflicker</parameterid>
																		<name>Anti-flicker Filter</name>
																		<valuemin>0.0</valuemin>
																		<valuemax>1.0</valuemax>
																		<value>0</value>
																	</parameter>
																</effect>
															</filter>
															<logginginfo>
																<description></description>
																<scene></scene>
																<shottake></shottake>
																<lognote>https://www.youtube.com/watch?v=inZ9KZPq1mQ</lognote>
																<good></good>
																<originalvideofilename></originalvideofilename>
																<originalaudiofilename></originalaudiofilename>
															</logginginfo>
															<colorinfo>
																<lut></lut>
																<lut1></lut1>
																<asc_sop></asc_sop>
																<asc_sat></asc_sat>
																<lut2></lut2>
															</colorinfo>
															<labels>
																<label2>Iris</label2>
															</labels>
														</clipitem>
														<clipitem id="clipitem-291">
															<masterclipid>masterclip-195</masterclipid>
															<name>(Loci)_The North (Arctic life in Lapland &amp; Lofoten) - LÓCI_inZ9KZPq1mQ_YT.mp4</name>
															<enabled>TRUE</enabled>
															<duration>7749</duration>
															<rate>
																<timebase>30</timebase>
																<ntsc>TRUE</ntsc>
															</rate>
															<start>178</start>
															<end>294</end>
															<in>1926</in>
															<out>2042</out>
															<pproTicksIn>16324135027200</pproTicksIn>
															<pproTicksOut>17307312422400</pproTicksOut>
															<alphatype>none</alphatype>
															<file id="file-182"/>
															<filter>
																<effect>
																	<name>Basic Motion</name>
																	<effectid>basic</effectid>
																	<effectcategory>motion</effectcategory>
																	<effecttype>motion</effecttype>
																	<mediatype>video</mediatype>
																	<pproBypass>false</pproBypass>
																	<parameter authoringApp="PremierePro">
																		<parameterid>scale</parameterid>
																		<name>Scale</name>
																		<valuemin>0</valuemin>
																		<valuemax>1000</valuemax>
																		<value>133</value>
																	</parameter>
																	<parameter authoringApp="PremierePro">
																		<parameterid>rotation</parameterid>
																		<name>Rotation</name>
																		<valuemin>-8640</valuemin>
																		<valuemax>8640</valuemax>
																		<value>0</value>
																	</parameter>
																	<parameter authoringApp="PremierePro">
																		<parameterid>center</parameterid>
																		<name>Center</name>
																		<value>
																			<horiz>0</horiz>
																			<vert>0</vert>
																		</value>
																	</parameter>
																	<parameter authoringApp="PremierePro">
																		<parameterid>centerOffset</parameterid>
																		<name>Anchor Point</name>
																		<value>
																			<horiz>0</horiz>
																			<vert>0</vert>
																		</value>
																	</parameter>
																	<parameter authoringApp="PremierePro">
																		<parameterid>antiflicker</parameterid>
																		<name>Anti-flicker Filter</name>
																		<valuemin>0.0</valuemin>
																		<valuemax>1.0</valuemax>
																		<value>0</value>
																	</parameter>
																</effect>
															</filter>
															<logginginfo>
																<description></description>
																<scene></scene>
																<shottake></shottake>
																<lognote>https://www.youtube.com/watch?v=inZ9KZPq1mQ</lognote>
																<good></good>
																<originalvideofilename></originalvideofilename>
																<originalaudiofilename></originalaudiofilename>
															</logginginfo>
															<colorinfo>
																<lut></lut>
																<lut1></lut1>
																<asc_sop></asc_sop>
																<asc_sat></asc_sat>
																<lut2></lut2>
															</colorinfo>
															<labels>
																<label2>Iris</label2>
															</labels>
														</clipitem>
														<clipitem id="clipitem-292">
															<masterclipid>masterclip-195</masterclipid>
															<name>(Loci)_The North (Arctic life in Lapland &amp; Lofoten) - LÓCI_inZ9KZPq1mQ_YT.mp4</name>
															<enabled>TRUE</enabled>
															<duration>7749</duration>
															<rate>
																<timebase>30</timebase>
																<ntsc>TRUE</ntsc>
															</rate>
															<start>294</start>
															<end>376</end>
															<in>2042</in>
															<out>2124</out>
															<pproTicksIn>17307312422400</pproTicksIn>
															<pproTicksOut>18002317132800</pproTicksOut>
															<alphatype>none</alphatype>
															<file id="file-182"/>
															<filter>
																<effect>
																	<name>Basic Motion</name>
																	<effectid>basic</effectid>
																	<effectcategory>motion</effectcategory>
																	<effecttype>motion</effecttype>
																	<mediatype>video</mediatype>
																	<pproBypass>false</pproBypass>
																	<parameter authoringApp="PremierePro">
																		<parameterid>scale</parameterid>
																		<name>Scale</name>
																		<valuemin>0</valuemin>
																		<valuemax>1000</valuemax>
																		<value>133</value>
																	</parameter>
																	<parameter authoringApp="PremierePro">
																		<parameterid>rotation</parameterid>
																		<name>Rotation</name>
																		<valuemin>-8640</valuemin>
																		<valuemax>8640</valuemax>
																		<value>0</value>
																	</parameter>
																	<parameter authoringApp="PremierePro">
																		<parameterid>center</parameterid>
																		<name>Center</name>
																		<value>
																			<horiz>0</horiz>
																			<vert>0</vert>
																		</value>
																	</parameter>
																	<parameter authoringApp="PremierePro">
																		<parameterid>centerOffset</parameterid>
																		<name>Anchor Point</name>
																		<value>
																			<horiz>0</horiz>
																			<vert>0</vert>
																		</value>
																	</parameter>
																	<parameter authoringApp="PremierePro">
																		<parameterid>antiflicker</parameterid>
																		<name>Anti-flicker Filter</name>
																		<valuemin>0.0</valuemin>
																		<valuemax>1.0</valuemax>
																		<value>0</value>
																	</parameter>
																</effect>
															</filter>
															<logginginfo>
																<description></description>
																<scene></scene>
																<shottake></shottake>
																<lognote>https://www.youtube.com/watch?v=inZ9KZPq1mQ</lognote>
																<good></good>
																<originalvideofilename></originalvideofilename>
																<originalaudiofilename></originalaudiofilename>
															</logginginfo>
															<colorinfo>
																<lut></lut>
																<lut1></lut1>
																<asc_sop></asc_sop>
																<asc_sat></asc_sat>
																<lut2></lut2>
															</colorinfo>
															<labels>
																<label2>Iris</label2>
															</labels>
														</clipitem>
														<clipitem id="clipitem-293">
															<masterclipid>masterclip-195</masterclipid>
															<name>(Loci)_The North (Arctic life in Lapland &amp; Lofoten) - LÓCI_inZ9KZPq1mQ_YT.mp4</name>
															<enabled>TRUE</enabled>
															<duration>7749</duration>
															<rate>
																<timebase>30</timebase>
																<ntsc>TRUE</ntsc>
															</rate>
															<start>376</start>
															<end>477</end>
															<in>2124</in>
															<out>2225</out>
															<pproTicksIn>18002317132800</pproTicksIn>
															<pproTicksOut>18858359520000</pproTicksOut>
															<alphatype>none</alphatype>
															<file id="file-182"/>
															<filter>
																<effect>
																	<name>Basic Motion</name>
																	<effectid>basic</effectid>
																	<effectcategory>motion</effectcategory>
																	<effecttype>motion</effecttype>
																	<mediatype>video</mediatype>
																	<pproBypass>false</pproBypass>
																	<parameter authoringApp="PremierePro">
																		<parameterid>scale</parameterid>
																		<name>Scale</name>
																		<valuemin>0</valuemin>
																		<valuemax>1000</valuemax>
																		<value>133</value>
																	</parameter>
																	<parameter authoringApp="PremierePro">
																		<parameterid>rotation</parameterid>
																		<name>Rotation</name>
																		<valuemin>-8640</valuemin>
																		<valuemax>8640</valuemax>
																		<value>0</value>
																	</parameter>
																	<parameter authoringApp="PremierePro">
																		<parameterid>center</parameterid>
																		<name>Center</name>
																		<value>
																			<horiz>0</horiz>
																			<vert>0</vert>
																		</value>
																	</parameter>
																	<parameter authoringApp="PremierePro">
																		<parameterid>centerOffset</parameterid>
																		<name>Anchor Point</name>
																		<value>
																			<horiz>0</horiz>
																			<vert>0</vert>
																		</value>
																	</parameter>
																	<parameter authoringApp="PremierePro">
																		<parameterid>antiflicker</parameterid>
																		<name>Anti-flicker Filter</name>
																		<valuemin>0.0</valuemin>
																		<valuemax>1.0</valuemax>
																		<value>0</value>
																	</parameter>
																</effect>
															</filter>
															<logginginfo>
																<description></description>
																<scene></scene>
																<shottake></shottake>
																<lognote>https://www.youtube.com/watch?v=inZ9KZPq1mQ</lognote>
																<good></good>
																<originalvideofilename></originalvideofilename>
																<originalaudiofilename></originalaudiofilename>
															</logginginfo>
															<colorinfo>
																<lut></lut>
																<lut1></lut1>
																<asc_sop></asc_sop>
																<asc_sat></asc_sat>
																<lut2></lut2>
															</colorinfo>
															<labels>
																<label2>Iris</label2>
															</labels>
														</clipitem>
														<clipitem id="clipitem-294">
															<masterclipid>masterclip-195</masterclipid>
															<name>(Loci)_The North (Arctic life in Lapland &amp; Lofoten) - LÓCI_inZ9KZPq1mQ_YT.mp4</name>
															<enabled>TRUE</enabled>
															<duration>7749</duration>
															<rate>
																<timebase>30</timebase>
																<ntsc>TRUE</ntsc>
															</rate>
															<start>477</start>
															<end>583</end>
															<in>2362</in>
															<out>2468</out>
															<pproTicksIn>20019525926400</pproTicksIn>
															<pproTicksOut>20917946649600</pproTicksOut>
															<alphatype>none</alphatype>
															<file id="file-182"/>
															<filter>
																<effect>
																	<name>Basic Motion</name>
																	<effectid>basic</effectid>
																	<effectcategory>motion</effectcategory>
																	<effecttype>motion</effecttype>
																	<mediatype>video</mediatype>
																	<pproBypass>false</pproBypass>
																	<parameter authoringApp="PremierePro">
																		<parameterid>scale</parameterid>
																		<name>Scale</name>
																		<valuemin>0</valuemin>
																		<valuemax>1000</valuemax>
																		<value>133</value>
																	</parameter>
																	<parameter authoringApp="PremierePro">
																		<parameterid>rotation</parameterid>
																		<name>Rotation</name>
																		<valuemin>-8640</valuemin>
																		<valuemax>8640</valuemax>
																		<value>0</value>
																	</parameter>
																	<parameter authoringApp="PremierePro">
																		<parameterid>center</parameterid>
																		<name>Center</name>
																		<value>
																			<horiz>0</horiz>
																			<vert>0</vert>
																		</value>
																	</parameter>
																	<parameter authoringApp="PremierePro">
																		<parameterid>centerOffset</parameterid>
																		<name>Anchor Point</name>
																		<value>
																			<horiz>0</horiz>
																			<vert>0</vert>
																		</value>
																	</parameter>
																	<parameter authoringApp="PremierePro">
																		<parameterid>antiflicker</parameterid>
																		<name>Anti-flicker Filter</name>
																		<valuemin>0.0</valuemin>
																		<valuemax>1.0</valuemax>
																		<value>0</value>
																	</parameter>
																</effect>
															</filter>
															<logginginfo>
																<description></description>
																<scene></scene>
																<shottake></shottake>
																<lognote>https://www.youtube.com/watch?v=inZ9KZPq1mQ</lognote>
																<good></good>
																<originalvideofilename></originalvideofilename>
																<originalaudiofilename></originalaudiofilename>
															</logginginfo>
															<colorinfo>
																<lut></lut>
																<lut1></lut1>
																<asc_sop></asc_sop>
																<asc_sat></asc_sat>
																<lut2></lut2>
															</colorinfo>
															<labels>
																<label2>Iris</label2>
															</labels>
														</clipitem>
														<clipitem id="clipitem-295">
															<masterclipid>masterclip-195</masterclipid>
															<name>(Loci)_The North (Arctic life in Lapland &amp; Lofoten) - LÓCI_inZ9KZPq1mQ_YT.mp4</name>
															<enabled>TRUE</enabled>
															<duration>7749</duration>
															<rate>
																<timebase>30</timebase>
																<ntsc>TRUE</ntsc>
															</rate>
															<start>583</start>
															<end>665</end>
															<in>2678</in>
															<out>2760</out>
															<pproTicksIn>22697836761600</pproTicksIn>
															<pproTicksOut>23392841472000</pproTicksOut>
															<alphatype>none</alphatype>
															<file id="file-182"/>
															<filter>
																<effect>
																	<name>Basic Motion</name>
																	<effectid>basic</effectid>
																	<effectcategory>motion</effectcategory>
																	<effecttype>motion</effecttype>
																	<mediatype>video</mediatype>
																	<pproBypass>false</pproBypass>
																	<parameter authoringApp="PremierePro">
																		<parameterid>scale</parameterid>
																		<name>Scale</name>
																		<valuemin>0</valuemin>
																		<valuemax>1000</valuemax>
																		<value>133</value>
																	</parameter>
																	<parameter authoringApp="PremierePro">
																		<parameterid>rotation</parameterid>
																		<name>Rotation</name>
																		<valuemin>-8640</valuemin>
																		<valuemax>8640</valuemax>
																		<value>0</value>
																	</parameter>
																	<parameter authoringApp="PremierePro">
																		<parameterid>center</parameterid>
																		<name>Center</name>
																		<value>
																			<horiz>0</horiz>
																			<vert>0</vert>
																		</value>
																	</parameter>
																	<parameter authoringApp="PremierePro">
																		<parameterid>centerOffset</parameterid>
																		<name>Anchor Point</name>
																		<value>
																			<horiz>0</horiz>
																			<vert>0</vert>
																		</value>
																	</parameter>
																	<parameter authoringApp="PremierePro">
																		<parameterid>antiflicker</parameterid>
																		<name>Anti-flicker Filter</name>
																		<valuemin>0.0</valuemin>
																		<valuemax>1.0</valuemax>
																		<value>0</value>
																	</parameter>
																</effect>
															</filter>
															<logginginfo>
																<description></description>
																<scene></scene>
																<shottake></shottake>
																<lognote>https://www.youtube.com/watch?v=inZ9KZPq1mQ</lognote>
																<good></good>
																<originalvideofilename></originalvideofilename>
																<originalaudiofilename></originalaudiofilename>
															</logginginfo>
															<colorinfo>
																<lut></lut>
																<lut1></lut1>
																<asc_sop></asc_sop>
																<asc_sat></asc_sat>
																<lut2></lut2>
															</colorinfo>
															<labels>
																<label2>Iris</label2>
															</labels>
														</clipitem>
														<clipitem id="clipitem-296">
															<masterclipid>masterclip-195</masterclipid>
															<name>(Loci)_The North (Arctic life in Lapland &amp; Lofoten) - LÓCI_inZ9KZPq1mQ_YT.mp4</name>
															<enabled>TRUE</enabled>
															<duration>7749</duration>
															<rate>
																<timebase>30</timebase>
																<ntsc>TRUE</ntsc>
															</rate>
															<start>665</start>
															<end>747</end>
															<in>2760</in>
															<out>2842</out>
															<pproTicksIn>23392841472000</pproTicksIn>
															<pproTicksOut>24087846182400</pproTicksOut>
															<alphatype>none</alphatype>
															<file id="file-182"/>
															<filter>
																<effect>
																	<name>Basic Motion</name>
																	<effectid>basic</effectid>
																	<effectcategory>motion</effectcategory>
																	<effecttype>motion</effecttype>
																	<mediatype>video</mediatype>
																	<pproBypass>false</pproBypass>
																	<parameter authoringApp="PremierePro">
																		<parameterid>scale</parameterid>
																		<name>Scale</name>
																		<valuemin>0</valuemin>
																		<valuemax>1000</valuemax>
																		<value>133</value>
																	</parameter>
																	<parameter authoringApp="PremierePro">
																		<parameterid>rotation</parameterid>
																		<name>Rotation</name>
																		<valuemin>-8640</valuemin>
																		<valuemax>8640</valuemax>
																		<value>0</value>
																	</parameter>
																	<parameter authoringApp="PremierePro">
																		<parameterid>center</parameterid>
																		<name>Center</name>
																		<value>
																			<horiz>0</horiz>
																			<vert>0</vert>
																		</value>
																	</parameter>
																	<parameter authoringApp="PremierePro">
																		<parameterid>centerOffset</parameterid>
																		<name>Anchor Point</name>
																		<value>
																			<horiz>0</horiz>
																			<vert>0</vert>
																		</value>
																	</parameter>
																	<parameter authoringApp="PremierePro">
																		<parameterid>antiflicker</parameterid>
																		<name>Anti-flicker Filter</name>
																		<valuemin>0.0</valuemin>
																		<valuemax>1.0</valuemax>
																		<value>0</value>
																	</parameter>
																</effect>
															</filter>
															<logginginfo>
																<description></description>
																<scene></scene>
																<shottake></shottake>
																<lognote>https://www.youtube.com/watch?v=inZ9KZPq1mQ</lognote>
																<good></good>
																<originalvideofilename></originalvideofilename>
																<originalaudiofilename></originalaudiofilename>
															</logginginfo>
															<colorinfo>
																<lut></lut>
																<lut1></lut1>
																<asc_sop></asc_sop>
																<asc_sat></asc_sat>
																<lut2></lut2>
															</colorinfo>
															<labels>
																<label2>Iris</label2>
															</labels>
														</clipitem>
														<clipitem id="clipitem-297">
															<masterclipid>masterclip-195</masterclipid>
															<name>(Loci)_The North (Arctic life in Lapland &amp; Lofoten) - LÓCI_inZ9KZPq1mQ_YT.mp4</name>
															<enabled>TRUE</enabled>
															<duration>7749</duration>
															<rate>
																<timebase>30</timebase>
																<ntsc>TRUE</ntsc>
															</rate>
															<start>747</start>
															<end>808</end>
															<in>3330</in>
															<out>3391</out>
															<pproTicksIn>28223971776000</pproTicksIn>
															<pproTicksOut>28740987475200</pproTicksOut>
															<alphatype>none</alphatype>
															<file id="file-182"/>
															<filter>
																<effect>
																	<name>Basic Motion</name>
																	<effectid>basic</effectid>
																	<effectcategory>motion</effectcategory>
																	<effecttype>motion</effecttype>
																	<mediatype>video</mediatype>
																	<pproBypass>false</pproBypass>
																	<parameter authoringApp="PremierePro">
																		<parameterid>scale</parameterid>
																		<name>Scale</name>
																		<valuemin>0</valuemin>
																		<valuemax>1000</valuemax>
																		<value>133</value>
																	</parameter>
																	<parameter authoringApp="PremierePro">
																		<parameterid>rotation</parameterid>
																		<name>Rotation</name>
																		<valuemin>-8640</valuemin>
																		<valuemax>8640</valuemax>
																		<value>0</value>
																	</parameter>
																	<parameter authoringApp="PremierePro">
																		<parameterid>center</parameterid>
																		<name>Center</name>
																		<value>
																			<horiz>0</horiz>
																			<vert>0</vert>
																		</value>
																	</parameter>
																	<parameter authoringApp="PremierePro">
																		<parameterid>centerOffset</parameterid>
																		<name>Anchor Point</name>
																		<value>
																			<horiz>0</horiz>
																			<vert>0</vert>
																		</value>
																	</parameter>
																	<parameter authoringApp="PremierePro">
																		<parameterid>antiflicker</parameterid>
																		<name>Anti-flicker Filter</name>
																		<valuemin>0.0</valuemin>
																		<valuemax>1.0</valuemax>
																		<value>0</value>
																	</parameter>
																</effect>
															</filter>
															<logginginfo>
																<description></description>
																<scene></scene>
																<shottake></shottake>
																<lognote>https://www.youtube.com/watch?v=inZ9KZPq1mQ</lognote>
																<good></good>
																<originalvideofilename></originalvideofilename>
																<originalaudiofilename></originalaudiofilename>
															</logginginfo>
															<colorinfo>
																<lut></lut>
																<lut1></lut1>
																<asc_sop></asc_sop>
																<asc_sat></asc_sat>
																<lut2></lut2>
															</colorinfo>
															<labels>
																<label2>Iris</label2>
															</labels>
														</clipitem>
														<clipitem id="clipitem-298">
															<masterclipid>masterclip-195</masterclipid>
															<name>(Loci)_The North (Arctic life in Lapland &amp; Lofoten) - LÓCI_inZ9KZPq1mQ_YT.mp4</name>
															<enabled>TRUE</enabled>
															<duration>7749</duration>
															<rate>
																<timebase>30</timebase>
																<ntsc>TRUE</ntsc>
															</rate>
															<start>808</start>
															<end>873</end>
															<in>3580</in>
															<out>3645</out>
															<pproTicksIn>30342888576000</pproTicksIn>
															<pproTicksOut>30893806944000</pproTicksOut>
															<alphatype>none</alphatype>
															<file id="file-182"/>
															<filter>
																<effect>
																	<name>Basic Motion</name>
																	<effectid>basic</effectid>
																	<effectcategory>motion</effectcategory>
																	<effecttype>motion</effecttype>
																	<mediatype>video</mediatype>
																	<pproBypass>false</pproBypass>
																	<parameter authoringApp="PremierePro">
																		<parameterid>scale</parameterid>
																		<name>Scale</name>
																		<valuemin>0</valuemin>
																		<valuemax>1000</valuemax>
																		<value>133</value>
																	</parameter>
																	<parameter authoringApp="PremierePro">
																		<parameterid>rotation</parameterid>
																		<name>Rotation</name>
																		<valuemin>-8640</valuemin>
																		<valuemax>8640</valuemax>
																		<value>0</value>
																	</parameter>
																	<parameter authoringApp="PremierePro">
																		<parameterid>center</parameterid>
																		<name>Center</name>
																		<value>
																			<horiz>0</horiz>
																			<vert>0</vert>
																		</value>
																	</parameter>
																	<parameter authoringApp="PremierePro">
																		<parameterid>centerOffset</parameterid>
																		<name>Anchor Point</name>
																		<value>
																			<horiz>0</horiz>
																			<vert>0</vert>
																		</value>
																	</parameter>
																	<parameter authoringApp="PremierePro">
																		<parameterid>antiflicker</parameterid>
																		<name>Anti-flicker Filter</name>
																		<valuemin>0.0</valuemin>
																		<valuemax>1.0</valuemax>
																		<value>0</value>
																	</parameter>
																</effect>
															</filter>
															<logginginfo>
																<description></description>
																<scene></scene>
																<shottake></shottake>
																<lognote>https://www.youtube.com/watch?v=inZ9KZPq1mQ</lognote>
																<good></good>
																<originalvideofilename></originalvideofilename>
																<originalaudiofilename></originalaudiofilename>
															</logginginfo>
															<colorinfo>
																<lut></lut>
																<lut1></lut1>
																<asc_sop></asc_sop>
																<asc_sat></asc_sat>
																<lut2></lut2>
															</colorinfo>
															<labels>
																<label2>Iris</label2>
															</labels>
														</clipitem>
														<clipitem id="clipitem-299">
															<masterclipid>masterclip-195</masterclipid>
															<name>(Loci)_The North (Arctic life in Lapland &amp; Lofoten) - LÓCI_inZ9KZPq1mQ_YT.mp4</name>
															<enabled>TRUE</enabled>
															<duration>7749</duration>
															<rate>
																<timebase>30</timebase>
																<ntsc>TRUE</ntsc>
															</rate>
															<start>873</start>
															<end>935</end>
															<in>3692</in>
															<out>3754</out>
															<pproTicksIn>31292163302400</pproTicksIn>
															<pproTicksOut>31817654668800</pproTicksOut>
															<alphatype>none</alphatype>
															<file id="file-182"/>
															<filter>
																<effect>
																	<name>Basic Motion</name>
																	<effectid>basic</effectid>
																	<effectcategory>motion</effectcategory>
																	<effecttype>motion</effecttype>
																	<mediatype>video</mediatype>
																	<pproBypass>false</pproBypass>
																	<parameter authoringApp="PremierePro">
																		<parameterid>scale</parameterid>
																		<name>Scale</name>
																		<valuemin>0</valuemin>
																		<valuemax>1000</valuemax>
																		<value>133</value>
																	</parameter>
																	<parameter authoringApp="PremierePro">
																		<parameterid>rotation</parameterid>
																		<name>Rotation</name>
																		<valuemin>-8640</valuemin>
																		<valuemax>8640</valuemax>
																		<value>0</value>
																	</parameter>
																	<parameter authoringApp="PremierePro">
																		<parameterid>center</parameterid>
																		<name>Center</name>
																		<value>
																			<horiz>0</horiz>
																			<vert>0</vert>
																		</value>
																	</parameter>
																	<parameter authoringApp="PremierePro">
																		<parameterid>centerOffset</parameterid>
																		<name>Anchor Point</name>
																		<value>
																			<horiz>0</horiz>
																			<vert>0</vert>
																		</value>
																	</parameter>
																	<parameter authoringApp="PremierePro">
																		<parameterid>antiflicker</parameterid>
																		<name>Anti-flicker Filter</name>
																		<valuemin>0.0</valuemin>
																		<valuemax>1.0</valuemax>
																		<value>0</value>
																	</parameter>
																</effect>
															</filter>
															<logginginfo>
																<description></description>
																<scene></scene>
																<shottake></shottake>
																<lognote>https://www.youtube.com/watch?v=inZ9KZPq1mQ</lognote>
																<good></good>
																<originalvideofilename></originalvideofilename>
																<originalaudiofilename></originalaudiofilename>
															</logginginfo>
															<colorinfo>
																<lut></lut>
																<lut1></lut1>
																<asc_sop></asc_sop>
																<asc_sat></asc_sat>
																<lut2></lut2>
															</colorinfo>
															<labels>
																<label2>Iris</label2>
															</labels>
														</clipitem>
														<clipitem id="clipitem-300">
															<masterclipid>masterclip-195</masterclipid>
															<name>(Loci)_The North (Arctic life in Lapland &amp; Lofoten) - LÓCI_inZ9KZPq1mQ_YT.mp4</name>
															<enabled>TRUE</enabled>
															<duration>7749</duration>
															<rate>
																<timebase>30</timebase>
																<ntsc>TRUE</ntsc>
															</rate>
															<start>935</start>
															<end>998</end>
															<in>3754</in>
															<out>3817</out>
															<pproTicksIn>31817654668800</pproTicksIn>
															<pproTicksOut>32351621702400</pproTicksOut>
															<alphatype>none</alphatype>
															<file id="file-182"/>
															<filter>
																<effect>
																	<name>Basic Motion</name>
																	<effectid>basic</effectid>
																	<effectcategory>motion</effectcategory>
																	<effecttype>motion</effecttype>
																	<mediatype>video</mediatype>
																	<pproBypass>false</pproBypass>
																	<parameter authoringApp="PremierePro">
																		<parameterid>scale</parameterid>
																		<name>Scale</name>
																		<valuemin>0</valuemin>
																		<valuemax>1000</valuemax>
																		<value>133</value>
																	</parameter>
																	<parameter authoringApp="PremierePro">
																		<parameterid>rotation</parameterid>
																		<name>Rotation</name>
																		<valuemin>-8640</valuemin>
																		<valuemax>8640</valuemax>
																		<value>0</value>
																	</parameter>
																	<parameter authoringApp="PremierePro">
																		<parameterid>center</parameterid>
																		<name>Center</name>
																		<value>
																			<horiz>0</horiz>
																			<vert>0</vert>
																		</value>
																	</parameter>
																	<parameter authoringApp="PremierePro">
																		<parameterid>centerOffset</parameterid>
																		<name>Anchor Point</name>
																		<value>
																			<horiz>0</horiz>
																			<vert>0</vert>
																		</value>
																	</parameter>
																	<parameter authoringApp="PremierePro">
																		<parameterid>antiflicker</parameterid>
																		<name>Anti-flicker Filter</name>
																		<valuemin>0.0</valuemin>
																		<valuemax>1.0</valuemax>
																		<value>0</value>
																	</parameter>
																</effect>
															</filter>
															<logginginfo>
																<description></description>
																<scene></scene>
																<shottake></shottake>
																<lognote>https://www.youtube.com/watch?v=inZ9KZPq1mQ</lognote>
																<good></good>
																<originalvideofilename></originalvideofilename>
																<originalaudiofilename></originalaudiofilename>
															</logginginfo>
															<colorinfo>
																<lut></lut>
																<lut1></lut1>
																<asc_sop></asc_sop>
																<asc_sat></asc_sat>
																<lut2></lut2>
															</colorinfo>
															<labels>
																<label2>Iris</label2>
															</labels>
														</clipitem>
														<clipitem id="clipitem-301">
															<masterclipid>masterclip-195</masterclipid>
															<name>(Loci)_The North (Arctic life in Lapland &amp; Lofoten) - LÓCI_inZ9KZPq1mQ_YT.mp4</name>
															<enabled>TRUE</enabled>
															<duration>7749</duration>
															<rate>
																<timebase>30</timebase>
																<ntsc>TRUE</ntsc>
															</rate>
															<start>998</start>
															<end>1037</end>
															<in>3859</in>
															<out>3898</out>
															<pproTicksIn>32707599724800</pproTicksIn>
															<pproTicksOut>33038150745600</pproTicksOut>
															<alphatype>none</alphatype>
															<file id="file-182"/>
															<filter>
																<effect>
																	<name>Basic Motion</name>
																	<effectid>basic</effectid>
																	<effectcategory>motion</effectcategory>
																	<effecttype>motion</effecttype>
																	<mediatype>video</mediatype>
																	<pproBypass>false</pproBypass>
																	<parameter authoringApp="PremierePro">
																		<parameterid>scale</parameterid>
																		<name>Scale</name>
																		<valuemin>0</valuemin>
																		<valuemax>1000</valuemax>
																		<value>133</value>
																	</parameter>
																	<parameter authoringApp="PremierePro">
																		<parameterid>rotation</parameterid>
																		<name>Rotation</name>
																		<valuemin>-8640</valuemin>
																		<valuemax>8640</valuemax>
																		<value>0</value>
																	</parameter>
																	<parameter authoringApp="PremierePro">
																		<parameterid>center</parameterid>
																		<name>Center</name>
																		<value>
																			<horiz>0</horiz>
																			<vert>0</vert>
																		</value>
																	</parameter>
																	<parameter authoringApp="PremierePro">
																		<parameterid>centerOffset</parameterid>
																		<name>Anchor Point</name>
																		<value>
																			<horiz>0</horiz>
																			<vert>0</vert>
																		</value>
																	</parameter>
																	<parameter authoringApp="PremierePro">
																		<parameterid>antiflicker</parameterid>
																		<name>Anti-flicker Filter</name>
																		<valuemin>0.0</valuemin>
																		<valuemax>1.0</valuemax>
																		<value>0</value>
																	</parameter>
																</effect>
															</filter>
															<logginginfo>
																<description></description>
																<scene></scene>
																<shottake></shottake>
																<lognote>https://www.youtube.com/watch?v=inZ9KZPq1mQ</lognote>
																<good></good>
																<originalvideofilename></originalvideofilename>
																<originalaudiofilename></originalaudiofilename>
															</logginginfo>
															<colorinfo>
																<lut></lut>
																<lut1></lut1>
																<asc_sop></asc_sop>
																<asc_sat></asc_sat>
																<lut2></lut2>
															</colorinfo>
															<labels>
																<label2>Iris</label2>
															</labels>
														</clipitem>
														<clipitem id="clipitem-302">
															<masterclipid>masterclip-195</masterclipid>
															<name>(Loci)_The North (Arctic life in Lapland &amp; Lofoten) - LÓCI_inZ9KZPq1mQ_YT.mp4</name>
															<enabled>TRUE</enabled>
															<duration>7749</duration>
															<rate>
																<timebase>30</timebase>
																<ntsc>TRUE</ntsc>
															</rate>
															<start>1037</start>
															<end>1116</end>
															<in>3898</in>
															<out>3977</out>
															<pproTicksIn>33038150745600</pproTicksIn>
															<pproTicksOut>33707728454400</pproTicksOut>
															<alphatype>none</alphatype>
															<file id="file-182"/>
															<filter>
																<effect>
																	<name>Basic Motion</name>
																	<effectid>basic</effectid>
																	<effectcategory>motion</effectcategory>
																	<effecttype>motion</effecttype>
																	<mediatype>video</mediatype>
																	<pproBypass>false</pproBypass>
																	<parameter authoringApp="PremierePro">
																		<parameterid>scale</parameterid>
																		<name>Scale</name>
																		<valuemin>0</valuemin>
																		<valuemax>1000</valuemax>
																		<value>133</value>
																	</parameter>
																	<parameter authoringApp="PremierePro">
																		<parameterid>rotation</parameterid>
																		<name>Rotation</name>
																		<valuemin>-8640</valuemin>
																		<valuemax>8640</valuemax>
																		<value>0</value>
																	</parameter>
																	<parameter authoringApp="PremierePro">
																		<parameterid>center</parameterid>
																		<name>Center</name>
																		<value>
																			<horiz>0</horiz>
																			<vert>0</vert>
																		</value>
																	</parameter>
																	<parameter authoringApp="PremierePro">
																		<parameterid>centerOffset</parameterid>
																		<name>Anchor Point</name>
																		<value>
																			<horiz>0</horiz>
																			<vert>0</vert>
																		</value>
																	</parameter>
																	<parameter authoringApp="PremierePro">
																		<parameterid>antiflicker</parameterid>
																		<name>Anti-flicker Filter</name>
																		<valuemin>0.0</valuemin>
																		<valuemax>1.0</valuemax>
																		<value>0</value>
																	</parameter>
																</effect>
															</filter>
															<logginginfo>
																<description></description>
																<scene></scene>
																<shottake></shottake>
																<lognote>https://www.youtube.com/watch?v=inZ9KZPq1mQ</lognote>
																<good></good>
																<originalvideofilename></originalvideofilename>
																<originalaudiofilename></originalaudiofilename>
															</logginginfo>
															<colorinfo>
																<lut></lut>
																<lut1></lut1>
																<asc_sop></asc_sop>
																<asc_sat></asc_sat>
																<lut2></lut2>
															</colorinfo>
															<labels>
																<label2>Iris</label2>
															</labels>
														</clipitem>
														<clipitem id="clipitem-303">
															<masterclipid>masterclip-195</masterclipid>
															<name>(Loci)_The North (Arctic life in Lapland &amp; Lofoten) - LÓCI_inZ9KZPq1mQ_YT.mp4</name>
															<enabled>TRUE</enabled>
															<duration>7749</duration>
															<rate>
																<timebase>30</timebase>
																<ntsc>TRUE</ntsc>
															</rate>
															<start>1116</start>
															<end>1200</end>
															<in>3977</in>
															<out>4061</out>
															<pproTicksIn>33707728454400</pproTicksIn>
															<pproTicksOut>34419684499200</pproTicksOut>
															<alphatype>none</alphatype>
															<file id="file-182"/>
															<filter>
																<effect>
																	<name>Basic Motion</name>
																	<effectid>basic</effectid>
																	<effectcategory>motion</effectcategory>
																	<effecttype>motion</effecttype>
																	<mediatype>video</mediatype>
																	<pproBypass>false</pproBypass>
																	<parameter authoringApp="PremierePro">
																		<parameterid>scale</parameterid>
																		<name>Scale</name>
																		<valuemin>0</valuemin>
																		<valuemax>1000</valuemax>
																		<value>133</value>
																	</parameter>
																	<parameter authoringApp="PremierePro">
																		<parameterid>rotation</parameterid>
																		<name>Rotation</name>
																		<valuemin>-8640</valuemin>
																		<valuemax>8640</valuemax>
																		<value>0</value>
																	</parameter>
																	<parameter authoringApp="PremierePro">
																		<parameterid>center</parameterid>
																		<name>Center</name>
																		<value>
																			<horiz>0</horiz>
																			<vert>0</vert>
																		</value>
																	</parameter>
																	<parameter authoringApp="PremierePro">
																		<parameterid>centerOffset</parameterid>
																		<name>Anchor Point</name>
																		<value>
																			<horiz>0</horiz>
																			<vert>0</vert>
																		</value>
																	</parameter>
																	<parameter authoringApp="PremierePro">
																		<parameterid>antiflicker</parameterid>
																		<name>Anti-flicker Filter</name>
																		<valuemin>0.0</valuemin>
																		<valuemax>1.0</valuemax>
																		<value>0</value>
																	</parameter>
																</effect>
															</filter>
															<logginginfo>
																<description></description>
																<scene></scene>
																<shottake></shottake>
																<lognote>https://www.youtube.com/watch?v=inZ9KZPq1mQ</lognote>
																<good></good>
																<originalvideofilename></originalvideofilename>
																<originalaudiofilename></originalaudiofilename>
															</logginginfo>
															<colorinfo>
																<lut></lut>
																<lut1></lut1>
																<asc_sop></asc_sop>
																<asc_sat></asc_sat>
																<lut2></lut2>
															</colorinfo>
															<labels>
																<label2>Iris</label2>
															</labels>
														</clipitem>
														<clipitem id="clipitem-304">
															<masterclipid>masterclip-195</masterclipid>
															<name>(Loci)_The North (Arctic life in Lapland &amp; Lofoten) - LÓCI_inZ9KZPq1mQ_YT.mp4</name>
															<enabled>TRUE</enabled>
															<duration>7749</duration>
															<rate>
																<timebase>30</timebase>
																<ntsc>TRUE</ntsc>
															</rate>
															<start>1200</start>
															<end>1252</end>
															<in>4138</in>
															<out>4190</out>
															<pproTicksIn>35072310873600</pproTicksIn>
															<pproTicksOut>35513045568000</pproTicksOut>
															<alphatype>none</alphatype>
															<file id="file-182"/>
															<filter>
																<effect>
																	<name>Basic Motion</name>
																	<effectid>basic</effectid>
																	<effectcategory>motion</effectcategory>
																	<effecttype>motion</effecttype>
																	<mediatype>video</mediatype>
																	<pproBypass>false</pproBypass>
																	<parameter authoringApp="PremierePro">
																		<parameterid>scale</parameterid>
																		<name>Scale</name>
																		<valuemin>0</valuemin>
																		<valuemax>1000</valuemax>
																		<value>133</value>
																	</parameter>
																	<parameter authoringApp="PremierePro">
																		<parameterid>rotation</parameterid>
																		<name>Rotation</name>
																		<valuemin>-8640</valuemin>
																		<valuemax>8640</valuemax>
																		<value>0</value>
																	</parameter>
																	<parameter authoringApp="PremierePro">
																		<parameterid>center</parameterid>
																		<name>Center</name>
																		<value>
																			<horiz>0</horiz>
																			<vert>0</vert>
																		</value>
																	</parameter>
																	<parameter authoringApp="PremierePro">
																		<parameterid>centerOffset</parameterid>
																		<name>Anchor Point</name>
																		<value>
																			<horiz>0</horiz>
																			<vert>0</vert>
																		</value>
																	</parameter>
																	<parameter authoringApp="PremierePro">
																		<parameterid>antiflicker</parameterid>
																		<name>Anti-flicker Filter</name>
																		<valuemin>0.0</valuemin>
																		<valuemax>1.0</valuemax>
																		<value>0</value>
																	</parameter>
																</effect>
															</filter>
															<logginginfo>
																<description></description>
																<scene></scene>
																<shottake></shottake>
																<lognote>https://www.youtube.com/watch?v=inZ9KZPq1mQ</lognote>
																<good></good>
																<originalvideofilename></originalvideofilename>
																<originalaudiofilename></originalaudiofilename>
															</logginginfo>
															<colorinfo>
																<lut></lut>
																<lut1></lut1>
																<asc_sop></asc_sop>
																<asc_sat></asc_sat>
																<lut2></lut2>
															</colorinfo>
															<labels>
																<label2>Iris</label2>
															</labels>
														</clipitem>
														<clipitem id="clipitem-305">
															<masterclipid>masterclip-195</masterclipid>
															<name>(Loci)_The North (Arctic life in Lapland &amp; Lofoten) - LÓCI_inZ9KZPq1mQ_YT.mp4</name>
															<enabled>TRUE</enabled>
															<duration>7749</duration>
															<rate>
																<timebase>30</timebase>
																<ntsc>TRUE</ntsc>
															</rate>
															<start>1252</start>
															<end>1313</end>
															<in>4322</in>
															<out>4383</out>
															<pproTicksIn>36631833638400</pproTicksIn>
															<pproTicksOut>37148849337600</pproTicksOut>
															<alphatype>none</alphatype>
															<file id="file-182"/>
															<filter>
																<effect>
																	<name>Basic Motion</name>
																	<effectid>basic</effectid>
																	<effectcategory>motion</effectcategory>
																	<effecttype>motion</effecttype>
																	<mediatype>video</mediatype>
																	<pproBypass>false</pproBypass>
																	<parameter authoringApp="PremierePro">
																		<parameterid>scale</parameterid>
																		<name>Scale</name>
																		<valuemin>0</valuemin>
																		<valuemax>1000</valuemax>
																		<value>133</value>
																	</parameter>
																	<parameter authoringApp="PremierePro">
																		<parameterid>rotation</parameterid>
																		<name>Rotation</name>
																		<valuemin>-8640</valuemin>
																		<valuemax>8640</valuemax>
																		<value>0</value>
																	</parameter>
																	<parameter authoringApp="PremierePro">
																		<parameterid>center</parameterid>
																		<name>Center</name>
																		<value>
																			<horiz>0</horiz>
																			<vert>0</vert>
																		</value>
																	</parameter>
																	<parameter authoringApp="PremierePro">
																		<parameterid>centerOffset</parameterid>
																		<name>Anchor Point</name>
																		<value>
																			<horiz>0</horiz>
																			<vert>0</vert>
																		</value>
																	</parameter>
																	<parameter authoringApp="PremierePro">
																		<parameterid>antiflicker</parameterid>
																		<name>Anti-flicker Filter</name>
																		<valuemin>0.0</valuemin>
																		<valuemax>1.0</valuemax>
																		<value>0</value>
																	</parameter>
																</effect>
															</filter>
															<logginginfo>
																<description></description>
																<scene></scene>
																<shottake></shottake>
																<lognote>https://www.youtube.com/watch?v=inZ9KZPq1mQ</lognote>
																<good></good>
																<originalvideofilename></originalvideofilename>
																<originalaudiofilename></originalaudiofilename>
															</logginginfo>
															<colorinfo>
																<lut></lut>
																<lut1></lut1>
																<asc_sop></asc_sop>
																<asc_sat></asc_sat>
																<lut2></lut2>
															</colorinfo>
															<labels>
																<label2>Iris</label2>
															</labels>
														</clipitem>
														<clipitem id="clipitem-306">
															<masterclipid>masterclip-195</masterclipid>
															<name>(Loci)_The North (Arctic life in Lapland &amp; Lofoten) - LÓCI_inZ9KZPq1mQ_YT.mp4</name>
															<enabled>TRUE</enabled>
															<duration>7749</duration>
															<rate>
																<timebase>30</timebase>
																<ntsc>TRUE</ntsc>
															</rate>
															<start>1313</start>
															<end>1361</end>
															<in>4546</in>
															<out>4594</out>
															<pproTicksIn>38530383091200</pproTicksIn>
															<pproTicksOut>38937215116800</pproTicksOut>
															<alphatype>none</alphatype>
															<file id="file-182"/>
															<filter>
																<effect>
																	<name>Basic Motion</name>
																	<effectid>basic</effectid>
																	<effectcategory>motion</effectcategory>
																	<effecttype>motion</effecttype>
																	<mediatype>video</mediatype>
																	<pproBypass>false</pproBypass>
																	<parameter authoringApp="PremierePro">
																		<parameterid>scale</parameterid>
																		<name>Scale</name>
																		<valuemin>0</valuemin>
																		<valuemax>1000</valuemax>
																		<value>133</value>
																	</parameter>
																	<parameter authoringApp="PremierePro">
																		<parameterid>rotation</parameterid>
																		<name>Rotation</name>
																		<valuemin>-8640</valuemin>
																		<valuemax>8640</valuemax>
																		<value>0</value>
																	</parameter>
																	<parameter authoringApp="PremierePro">
																		<parameterid>center</parameterid>
																		<name>Center</name>
																		<value>
																			<horiz>0</horiz>
																			<vert>0</vert>
																		</value>
																	</parameter>
																	<parameter authoringApp="PremierePro">
																		<parameterid>centerOffset</parameterid>
																		<name>Anchor Point</name>
																		<value>
																			<horiz>0</horiz>
																			<vert>0</vert>
																		</value>
																	</parameter>
																	<parameter authoringApp="PremierePro">
																		<parameterid>antiflicker</parameterid>
																		<name>Anti-flicker Filter</name>
																		<valuemin>0.0</valuemin>
																		<valuemax>1.0</valuemax>
																		<value>0</value>
																	</parameter>
																</effect>
															</filter>
															<logginginfo>
																<description></description>
																<scene></scene>
																<shottake></shottake>
																<lognote>https://www.youtube.com/watch?v=inZ9KZPq1mQ</lognote>
																<good></good>
																<originalvideofilename></originalvideofilename>
																<originalaudiofilename></originalaudiofilename>
															</logginginfo>
															<colorinfo>
																<lut></lut>
																<lut1></lut1>
																<asc_sop></asc_sop>
																<asc_sat></asc_sat>
																<lut2></lut2>
															</colorinfo>
															<labels>
																<label2>Iris</label2>
															</labels>
														</clipitem>
														<clipitem id="clipitem-307">
															<masterclipid>masterclip-195</masterclipid>
															<name>(Loci)_The North (Arctic life in Lapland &amp; Lofoten) - LÓCI_inZ9KZPq1mQ_YT.mp4</name>
															<enabled>TRUE</enabled>
															<duration>7749</duration>
															<rate>
																<timebase>30</timebase>
																<ntsc>TRUE</ntsc>
															</rate>
															<start>1361</start>
															<end>1446</end>
															<in>4594</in>
															<out>4679</out>
															<pproTicksIn>38937215116800</pproTicksIn>
															<pproTicksOut>39657646828800</pproTicksOut>
															<alphatype>none</alphatype>
															<file id="file-182"/>
															<filter>
																<effect>
																	<name>Basic Motion</name>
																	<effectid>basic</effectid>
																	<effectcategory>motion</effectcategory>
																	<effecttype>motion</effecttype>
																	<mediatype>video</mediatype>
																	<pproBypass>false</pproBypass>
																	<parameter authoringApp="PremierePro">
																		<parameterid>scale</parameterid>
																		<name>Scale</name>
																		<valuemin>0</valuemin>
																		<valuemax>1000</valuemax>
																		<value>133</value>
																	</parameter>
																	<parameter authoringApp="PremierePro">
																		<parameterid>rotation</parameterid>
																		<name>Rotation</name>
																		<valuemin>-8640</valuemin>
																		<valuemax>8640</valuemax>
																		<value>0</value>
																	</parameter>
																	<parameter authoringApp="PremierePro">
																		<parameterid>center</parameterid>
																		<name>Center</name>
																		<value>
																			<horiz>0</horiz>
																			<vert>0</vert>
																		</value>
																	</parameter>
																	<parameter authoringApp="PremierePro">
																		<parameterid>centerOffset</parameterid>
																		<name>Anchor Point</name>
																		<value>
																			<horiz>0</horiz>
																			<vert>0</vert>
																		</value>
																	</parameter>
																	<parameter authoringApp="PremierePro">
																		<parameterid>antiflicker</parameterid>
																		<name>Anti-flicker Filter</name>
																		<valuemin>0.0</valuemin>
																		<valuemax>1.0</valuemax>
																		<value>0</value>
																	</parameter>
																</effect>
															</filter>
															<logginginfo>
																<description></description>
																<scene></scene>
																<shottake></shottake>
																<lognote>https://www.youtube.com/watch?v=inZ9KZPq1mQ</lognote>
																<good></good>
																<originalvideofilename></originalvideofilename>
																<originalaudiofilename></originalaudiofilename>
															</logginginfo>
															<colorinfo>
																<lut></lut>
																<lut1></lut1>
																<asc_sop></asc_sop>
																<asc_sat></asc_sat>
																<lut2></lut2>
															</colorinfo>
															<labels>
																<label2>Iris</label2>
															</labels>
														</clipitem>
														<clipitem id="clipitem-308">
															<masterclipid>masterclip-195</masterclipid>
															<name>(Loci)_The North (Arctic life in Lapland &amp; Lofoten) - LÓCI_inZ9KZPq1mQ_YT.mp4</name>
															<enabled>TRUE</enabled>
															<duration>7749</duration>
															<rate>
																<timebase>30</timebase>
																<ntsc>TRUE</ntsc>
															</rate>
															<start>1446</start>
															<end>1497</end>
															<in>4961</in>
															<out>5012</out>
															<pproTicksIn>42047784979200</pproTicksIn>
															<pproTicksOut>42480044006400</pproTicksOut>
															<alphatype>none</alphatype>
															<file id="file-182"/>
															<filter>
																<effect>
																	<name>Basic Motion</name>
																	<effectid>basic</effectid>
																	<effectcategory>motion</effectcategory>
																	<effecttype>motion</effecttype>
																	<mediatype>video</mediatype>
																	<pproBypass>false</pproBypass>
																	<parameter authoringApp="PremierePro">
																		<parameterid>scale</parameterid>
																		<name>Scale</name>
																		<valuemin>0</valuemin>
																		<valuemax>1000</valuemax>
																		<value>133</value>
																	</parameter>
																	<parameter authoringApp="PremierePro">
																		<parameterid>rotation</parameterid>
																		<name>Rotation</name>
																		<valuemin>-8640</valuemin>
																		<valuemax>8640</valuemax>
																		<value>0</value>
																	</parameter>
																	<parameter authoringApp="PremierePro">
																		<parameterid>center</parameterid>
																		<name>Center</name>
																		<value>
																			<horiz>0</horiz>
																			<vert>0</vert>
																		</value>
																	</parameter>
																	<parameter authoringApp="PremierePro">
																		<parameterid>centerOffset</parameterid>
																		<name>Anchor Point</name>
																		<value>
																			<horiz>0</horiz>
																			<vert>0</vert>
																		</value>
																	</parameter>
																	<parameter authoringApp="PremierePro">
																		<parameterid>antiflicker</parameterid>
																		<name>Anti-flicker Filter</name>
																		<valuemin>0.0</valuemin>
																		<valuemax>1.0</valuemax>
																		<value>0</value>
																	</parameter>
																</effect>
															</filter>
															<logginginfo>
																<description></description>
																<scene></scene>
																<shottake></shottake>
																<lognote>https://www.youtube.com/watch?v=inZ9KZPq1mQ</lognote>
																<good></good>
																<originalvideofilename></originalvideofilename>
																<originalaudiofilename></originalaudiofilename>
															</logginginfo>
															<colorinfo>
																<lut></lut>
																<lut1></lut1>
																<asc_sop></asc_sop>
																<asc_sat></asc_sat>
																<lut2></lut2>
															</colorinfo>
															<labels>
																<label2>Iris</label2>
															</labels>
														</clipitem>
														<clipitem id="clipitem-309">
															<masterclipid>masterclip-195</masterclipid>
															<name>(Loci)_The North (Arctic life in Lapland &amp; Lofoten) - LÓCI_inZ9KZPq1mQ_YT.mp4</name>
															<enabled>TRUE</enabled>
															<duration>7749</duration>
															<rate>
																<timebase>30</timebase>
																<ntsc>TRUE</ntsc>
															</rate>
															<start>1497</start>
															<end>1585</end>
															<in>5012</in>
															<out>5100</out>
															<pproTicksIn>42480044006400</pproTicksIn>
															<pproTicksOut>43225902720000</pproTicksOut>
															<alphatype>none</alphatype>
															<file id="file-182"/>
															<filter>
																<effect>
																	<name>Basic Motion</name>
																	<effectid>basic</effectid>
																	<effectcategory>motion</effectcategory>
																	<effecttype>motion</effecttype>
																	<mediatype>video</mediatype>
																	<pproBypass>false</pproBypass>
																	<parameter authoringApp="PremierePro">
																		<parameterid>scale</parameterid>
																		<name>Scale</name>
																		<valuemin>0</valuemin>
																		<valuemax>1000</valuemax>
																		<value>133</value>
																	</parameter>
																	<parameter authoringApp="PremierePro">
																		<parameterid>rotation</parameterid>
																		<name>Rotation</name>
																		<valuemin>-8640</valuemin>
																		<valuemax>8640</valuemax>
																		<value>0</value>
																	</parameter>
																	<parameter authoringApp="PremierePro">
																		<parameterid>center</parameterid>
																		<name>Center</name>
																		<value>
																			<horiz>0</horiz>
																			<vert>0</vert>
																		</value>
																	</parameter>
																	<parameter authoringApp="PremierePro">
																		<parameterid>centerOffset</parameterid>
																		<name>Anchor Point</name>
																		<value>
																			<horiz>0</horiz>
																			<vert>0</vert>
																		</value>
																	</parameter>
																	<parameter authoringApp="PremierePro">
																		<parameterid>antiflicker</parameterid>
																		<name>Anti-flicker Filter</name>
																		<valuemin>0.0</valuemin>
																		<valuemax>1.0</valuemax>
																		<value>0</value>
																	</parameter>
																</effect>
															</filter>
															<logginginfo>
																<description></description>
																<scene></scene>
																<shottake></shottake>
																<lognote>https://www.youtube.com/watch?v=inZ9KZPq1mQ</lognote>
																<good></good>
																<originalvideofilename></originalvideofilename>
																<originalaudiofilename></originalaudiofilename>
															</logginginfo>
															<colorinfo>
																<lut></lut>
																<lut1></lut1>
																<asc_sop></asc_sop>
																<asc_sat></asc_sat>
																<lut2></lut2>
															</colorinfo>
															<labels>
																<label2>Iris</label2>
															</labels>
														</clipitem>
														<clipitem id="clipitem-310">
															<masterclipid>masterclip-195</masterclipid>
															<name>(Loci)_The North (Arctic life in Lapland &amp; Lofoten) - LÓCI_inZ9KZPq1mQ_YT.mp4</name>
															<enabled>TRUE</enabled>
															<duration>7749</duration>
															<rate>
																<timebase>30</timebase>
																<ntsc>TRUE</ntsc>
															</rate>
															<start>1585</start>
															<end>1720</end>
															<in>5143</in>
															<out>5278</out>
															<pproTicksIn>43590356409600</pproTicksIn>
															<pproTicksOut>44734571481600</pproTicksOut>
															<alphatype>none</alphatype>
															<file id="file-182"/>
															<filter>
																<effect>
																	<name>Basic Motion</name>
																	<effectid>basic</effectid>
																	<effectcategory>motion</effectcategory>
																	<effecttype>motion</effecttype>
																	<mediatype>video</mediatype>
																	<pproBypass>false</pproBypass>
																	<parameter authoringApp="PremierePro">
																		<parameterid>scale</parameterid>
																		<name>Scale</name>
																		<valuemin>0</valuemin>
																		<valuemax>1000</valuemax>
																		<value>133</value>
																	</parameter>
																	<parameter authoringApp="PremierePro">
																		<parameterid>rotation</parameterid>
																		<name>Rotation</name>
																		<valuemin>-8640</valuemin>
																		<valuemax>8640</valuemax>
																		<value>0</value>
																	</parameter>
																	<parameter authoringApp="PremierePro">
																		<parameterid>center</parameterid>
																		<name>Center</name>
																		<value>
																			<horiz>0</horiz>
																			<vert>0</vert>
																		</value>
																	</parameter>
																	<parameter authoringApp="PremierePro">
																		<parameterid>centerOffset</parameterid>
																		<name>Anchor Point</name>
																		<value>
																			<horiz>0</horiz>
																			<vert>0</vert>
																		</value>
																	</parameter>
																	<parameter authoringApp="PremierePro">
																		<parameterid>antiflicker</parameterid>
																		<name>Anti-flicker Filter</name>
																		<valuemin>0.0</valuemin>
																		<valuemax>1.0</valuemax>
																		<value>0</value>
																	</parameter>
																</effect>
															</filter>
															<logginginfo>
																<description></description>
																<scene></scene>
																<shottake></shottake>
																<lognote>https://www.youtube.com/watch?v=inZ9KZPq1mQ</lognote>
																<good></good>
																<originalvideofilename></originalvideofilename>
																<originalaudiofilename></originalaudiofilename>
															</logginginfo>
															<colorinfo>
																<lut></lut>
																<lut1></lut1>
																<asc_sop></asc_sop>
																<asc_sat></asc_sat>
																<lut2></lut2>
															</colorinfo>
															<labels>
																<label2>Iris</label2>
															</labels>
														</clipitem>
														<clipitem id="clipitem-311">
															<masterclipid>masterclip-195</masterclipid>
															<name>(Loci)_The North (Arctic life in Lapland &amp; Lofoten) - LÓCI_inZ9KZPq1mQ_YT.mp4</name>
															<enabled>TRUE</enabled>
															<duration>7749</duration>
															<rate>
																<timebase>30</timebase>
																<ntsc>TRUE</ntsc>
															</rate>
															<start>1720</start>
															<end>1813</end>
															<in>5278</in>
															<out>5371</out>
															<pproTicksIn>44734571481600</pproTicksIn>
															<pproTicksOut>45522808531200</pproTicksOut>
															<alphatype>none</alphatype>
															<file id="file-182"/>
															<filter>
																<effect>
																	<name>Basic Motion</name>
																	<effectid>basic</effectid>
																	<effectcategory>motion</effectcategory>
																	<effecttype>motion</effecttype>
																	<mediatype>video</mediatype>
																	<pproBypass>false</pproBypass>
																	<parameter authoringApp="PremierePro">
																		<parameterid>scale</parameterid>
																		<name>Scale</name>
																		<valuemin>0</valuemin>
																		<valuemax>1000</valuemax>
																		<value>133</value>
																	</parameter>
																	<parameter authoringApp="PremierePro">
																		<parameterid>rotation</parameterid>
																		<name>Rotation</name>
																		<valuemin>-8640</valuemin>
																		<valuemax>8640</valuemax>
																		<value>0</value>
																	</parameter>
																	<parameter authoringApp="PremierePro">
																		<parameterid>center</parameterid>
																		<name>Center</name>
																		<value>
																			<horiz>0</horiz>
																			<vert>0</vert>
																		</value>
																	</parameter>
																	<parameter authoringApp="PremierePro">
																		<parameterid>centerOffset</parameterid>
																		<name>Anchor Point</name>
																		<value>
																			<horiz>0</horiz>
																			<vert>0</vert>
																		</value>
																	</parameter>
																	<parameter authoringApp="PremierePro">
																		<parameterid>antiflicker</parameterid>
																		<name>Anti-flicker Filter</name>
																		<valuemin>0.0</valuemin>
																		<valuemax>1.0</valuemax>
																		<value>0</value>
																	</parameter>
																</effect>
															</filter>
															<logginginfo>
																<description></description>
																<scene></scene>
																<shottake></shottake>
																<lognote>https://www.youtube.com/watch?v=inZ9KZPq1mQ</lognote>
																<good></good>
																<originalvideofilename></originalvideofilename>
																<originalaudiofilename></originalaudiofilename>
															</logginginfo>
															<colorinfo>
																<lut></lut>
																<lut1></lut1>
																<asc_sop></asc_sop>
																<asc_sat></asc_sat>
																<lut2></lut2>
															</colorinfo>
															<labels>
																<label2>Iris</label2>
															</labels>
														</clipitem>
														<clipitem id="clipitem-312">
															<masterclipid>masterclip-195</masterclipid>
															<name>(Loci)_The North (Arctic life in Lapland &amp; Lofoten) - LÓCI_inZ9KZPq1mQ_YT.mp4</name>
															<enabled>TRUE</enabled>
															<duration>7749</duration>
															<rate>
																<timebase>30</timebase>
																<ntsc>TRUE</ntsc>
															</rate>
															<start>1813</start>
															<end>1881</end>
															<in>5371</in>
															<out>5439</out>
															<pproTicksIn>45522808531200</pproTicksIn>
															<pproTicksOut>46099153900800</pproTicksOut>
															<alphatype>none</alphatype>
															<file id="file-182"/>
															<filter>
																<effect>
																	<name>Basic Motion</name>
																	<effectid>basic</effectid>
																	<effectcategory>motion</effectcategory>
																	<effecttype>motion</effecttype>
																	<mediatype>video</mediatype>
																	<pproBypass>false</pproBypass>
																	<parameter authoringApp="PremierePro">
																		<parameterid>scale</parameterid>
																		<name>Scale</name>
																		<valuemin>0</valuemin>
																		<valuemax>1000</valuemax>
																		<value>133</value>
																	</parameter>
																	<parameter authoringApp="PremierePro">
																		<parameterid>rotation</parameterid>
																		<name>Rotation</name>
																		<valuemin>-8640</valuemin>
																		<valuemax>8640</valuemax>
																		<value>0</value>
																	</parameter>
																	<parameter authoringApp="PremierePro">
																		<parameterid>center</parameterid>
																		<name>Center</name>
																		<value>
																			<horiz>0</horiz>
																			<vert>0</vert>
																		</value>
																	</parameter>
																	<parameter authoringApp="PremierePro">
																		<parameterid>centerOffset</parameterid>
																		<name>Anchor Point</name>
																		<value>
																			<horiz>0</horiz>
																			<vert>0</vert>
																		</value>
																	</parameter>
																	<parameter authoringApp="PremierePro">
																		<parameterid>antiflicker</parameterid>
																		<name>Anti-flicker Filter</name>
																		<valuemin>0.0</valuemin>
																		<valuemax>1.0</valuemax>
																		<value>0</value>
																	</parameter>
																</effect>
															</filter>
															<logginginfo>
																<description></description>
																<scene></scene>
																<shottake></shottake>
																<lognote>https://www.youtube.com/watch?v=inZ9KZPq1mQ</lognote>
																<good></good>
																<originalvideofilename></originalvideofilename>
																<originalaudiofilename></originalaudiofilename>
															</logginginfo>
															<colorinfo>
																<lut></lut>
																<lut1></lut1>
																<asc_sop></asc_sop>
																<asc_sat></asc_sat>
																<lut2></lut2>
															</colorinfo>
															<labels>
																<label2>Iris</label2>
															</labels>
														</clipitem>
														<clipitem id="clipitem-313">
															<masterclipid>masterclip-195</masterclipid>
															<name>(Loci)_The North (Arctic life in Lapland &amp; Lofoten) - LÓCI_inZ9KZPq1mQ_YT.mp4</name>
															<enabled>TRUE</enabled>
															<duration>7749</duration>
															<rate>
																<timebase>30</timebase>
																<ntsc>TRUE</ntsc>
															</rate>
															<start>1881</start>
															<end>1931</end>
															<in>5598</in>
															<out>5648</out>
															<pproTicksIn>47446784985600</pproTicksIn>
															<pproTicksOut>47870568345600</pproTicksOut>
															<alphatype>none</alphatype>
															<file id="file-182"/>
															<filter>
																<effect>
																	<name>Basic Motion</name>
																	<effectid>basic</effectid>
																	<effectcategory>motion</effectcategory>
																	<effecttype>motion</effecttype>
																	<mediatype>video</mediatype>
																	<pproBypass>false</pproBypass>
																	<parameter authoringApp="PremierePro">
																		<parameterid>scale</parameterid>
																		<name>Scale</name>
																		<valuemin>0</valuemin>
																		<valuemax>1000</valuemax>
																		<value>133</value>
																	</parameter>
																	<parameter authoringApp="PremierePro">
																		<parameterid>rotation</parameterid>
																		<name>Rotation</name>
																		<valuemin>-8640</valuemin>
																		<valuemax>8640</valuemax>
																		<value>0</value>
																	</parameter>
																	<parameter authoringApp="PremierePro">
																		<parameterid>center</parameterid>
																		<name>Center</name>
																		<value>
																			<horiz>0</horiz>
																			<vert>0</vert>
																		</value>
																	</parameter>
																	<parameter authoringApp="PremierePro">
																		<parameterid>centerOffset</parameterid>
																		<name>Anchor Point</name>
																		<value>
																			<horiz>0</horiz>
																			<vert>0</vert>
																		</value>
																	</parameter>
																	<parameter authoringApp="PremierePro">
																		<parameterid>antiflicker</parameterid>
																		<name>Anti-flicker Filter</name>
																		<valuemin>0.0</valuemin>
																		<valuemax>1.0</valuemax>
																		<value>0</value>
																	</parameter>
																</effect>
															</filter>
															<logginginfo>
																<description></description>
																<scene></scene>
																<shottake></shottake>
																<lognote>https://www.youtube.com/watch?v=inZ9KZPq1mQ</lognote>
																<good></good>
																<originalvideofilename></originalvideofilename>
																<originalaudiofilename></originalaudiofilename>
															</logginginfo>
															<colorinfo>
																<lut></lut>
																<lut1></lut1>
																<asc_sop></asc_sop>
																<asc_sat></asc_sat>
																<lut2></lut2>
															</colorinfo>
															<labels>
																<label2>Iris</label2>
															</labels>
														</clipitem>
														<clipitem id="clipitem-314">
															<masterclipid>masterclip-195</masterclipid>
															<name>(Loci)_The North (Arctic life in Lapland &amp; Lofoten) - LÓCI_inZ9KZPq1mQ_YT.mp4</name>
															<enabled>TRUE</enabled>
															<duration>7749</duration>
															<rate>
																<timebase>30</timebase>
																<ntsc>TRUE</ntsc>
															</rate>
															<start>1931</start>
															<end>2017</end>
															<in>5762</in>
															<out>5848</out>
															<pproTicksIn>48836794406400</pproTicksIn>
															<pproTicksOut>49565701785600</pproTicksOut>
															<alphatype>none</alphatype>
															<file id="file-182"/>
															<filter>
																<effect>
																	<name>Basic Motion</name>
																	<effectid>basic</effectid>
																	<effectcategory>motion</effectcategory>
																	<effecttype>motion</effecttype>
																	<mediatype>video</mediatype>
																	<pproBypass>false</pproBypass>
																	<parameter authoringApp="PremierePro">
																		<parameterid>scale</parameterid>
																		<name>Scale</name>
																		<valuemin>0</valuemin>
																		<valuemax>1000</valuemax>
																		<value>133</value>
																	</parameter>
																	<parameter authoringApp="PremierePro">
																		<parameterid>rotation</parameterid>
																		<name>Rotation</name>
																		<valuemin>-8640</valuemin>
																		<valuemax>8640</valuemax>
																		<value>0</value>
																	</parameter>
																	<parameter authoringApp="PremierePro">
																		<parameterid>center</parameterid>
																		<name>Center</name>
																		<value>
																			<horiz>0</horiz>
																			<vert>0</vert>
																		</value>
																	</parameter>
																	<parameter authoringApp="PremierePro">
																		<parameterid>centerOffset</parameterid>
																		<name>Anchor Point</name>
																		<value>
																			<horiz>0</horiz>
																			<vert>0</vert>
																		</value>
																	</parameter>
																	<parameter authoringApp="PremierePro">
																		<parameterid>antiflicker</parameterid>
																		<name>Anti-flicker Filter</name>
																		<valuemin>0.0</valuemin>
																		<valuemax>1.0</valuemax>
																		<value>0</value>
																	</parameter>
																</effect>
															</filter>
															<logginginfo>
																<description></description>
																<scene></scene>
																<shottake></shottake>
																<lognote>https://www.youtube.com/watch?v=inZ9KZPq1mQ</lognote>
																<good></good>
																<originalvideofilename></originalvideofilename>
																<originalaudiofilename></originalaudiofilename>
															</logginginfo>
															<colorinfo>
																<lut></lut>
																<lut1></lut1>
																<asc_sop></asc_sop>
																<asc_sat></asc_sat>
																<lut2></lut2>
															</colorinfo>
															<labels>
																<label2>Iris</label2>
															</labels>
														</clipitem>
														<clipitem id="clipitem-315">
															<masterclipid>masterclip-195</masterclipid>
															<name>(Loci)_The North (Arctic life in Lapland &amp; Lofoten) - LÓCI_inZ9KZPq1mQ_YT.mp4</name>
															<enabled>TRUE</enabled>
															<duration>7749</duration>
															<rate>
																<timebase>30</timebase>
																<ntsc>TRUE</ntsc>
															</rate>
															<start>2017</start>
															<end>2282</end>
															<in>6030</in>
															<out>6295</out>
															<pproTicksIn>51108273216000</pproTicksIn>
															<pproTicksOut>53354325024000</pproTicksOut>
															<alphatype>none</alphatype>
															<file id="file-182"/>
															<filter>
																<effect>
																	<name>Basic Motion</name>
																	<effectid>basic</effectid>
																	<effectcategory>motion</effectcategory>
																	<effecttype>motion</effecttype>
																	<mediatype>video</mediatype>
																	<pproBypass>false</pproBypass>
																	<parameter authoringApp="PremierePro">
																		<parameterid>scale</parameterid>
																		<name>Scale</name>
																		<valuemin>0</valuemin>
																		<valuemax>1000</valuemax>
																		<value>133</value>
																	</parameter>
																	<parameter authoringApp="PremierePro">
																		<parameterid>rotation</parameterid>
																		<name>Rotation</name>
																		<valuemin>-8640</valuemin>
																		<valuemax>8640</valuemax>
																		<value>0</value>
																	</parameter>
																	<parameter authoringApp="PremierePro">
																		<parameterid>center</parameterid>
																		<name>Center</name>
																		<value>
																			<horiz>0</horiz>
																			<vert>0</vert>
																		</value>
																	</parameter>
																	<parameter authoringApp="PremierePro">
																		<parameterid>centerOffset</parameterid>
																		<name>Anchor Point</name>
																		<value>
																			<horiz>0</horiz>
																			<vert>0</vert>
																		</value>
																	</parameter>
																	<parameter authoringApp="PremierePro">
																		<parameterid>antiflicker</parameterid>
																		<name>Anti-flicker Filter</name>
																		<valuemin>0.0</valuemin>
																		<valuemax>1.0</valuemax>
																		<value>0</value>
																	</parameter>
																</effect>
															</filter>
															<logginginfo>
																<description></description>
																<scene></scene>
																<shottake></shottake>
																<lognote>https://www.youtube.com/watch?v=inZ9KZPq1mQ</lognote>
																<good></good>
																<originalvideofilename></originalvideofilename>
																<originalaudiofilename></originalaudiofilename>
															</logginginfo>
															<colorinfo>
																<lut></lut>
																<lut1></lut1>
																<asc_sop></asc_sop>
																<asc_sat></asc_sat>
																<lut2></lut2>
															</colorinfo>
															<labels>
																<label2>Iris</label2>
															</labels>
														</clipitem>
														<clipitem id="clipitem-316">
															<masterclipid>masterclip-195</masterclipid>
															<name>(Loci)_The North (Arctic life in Lapland &amp; Lofoten) - LÓCI_inZ9KZPq1mQ_YT.mp4</name>
															<enabled>TRUE</enabled>
															<duration>7749</duration>
															<rate>
																<timebase>30</timebase>
																<ntsc>TRUE</ntsc>
															</rate>
															<start>2282</start>
															<end>2399</end>
															<in>6413</in>
															<out>6530</out>
															<pproTicksIn>54354453753600</pproTicksIn>
															<pproTicksOut>55346106816000</pproTicksOut>
															<alphatype>none</alphatype>
															<file id="file-182"/>
															<filter>
																<effect>
																	<name>Basic Motion</name>
																	<effectid>basic</effectid>
																	<effectcategory>motion</effectcategory>
																	<effecttype>motion</effecttype>
																	<mediatype>video</mediatype>
																	<pproBypass>false</pproBypass>
																	<parameter authoringApp="PremierePro">
																		<parameterid>scale</parameterid>
																		<name>Scale</name>
																		<valuemin>0</valuemin>
																		<valuemax>1000</valuemax>
																		<value>133</value>
																	</parameter>
																	<parameter authoringApp="PremierePro">
																		<parameterid>rotation</parameterid>
																		<name>Rotation</name>
																		<valuemin>-8640</valuemin>
																		<valuemax>8640</valuemax>
																		<value>0</value>
																	</parameter>
																	<parameter authoringApp="PremierePro">
																		<parameterid>center</parameterid>
																		<name>Center</name>
																		<value>
																			<horiz>0</horiz>
																			<vert>0</vert>
																		</value>
																	</parameter>
																	<parameter authoringApp="PremierePro">
																		<parameterid>centerOffset</parameterid>
																		<name>Anchor Point</name>
																		<value>
																			<horiz>0</horiz>
																			<vert>0</vert>
																		</value>
																	</parameter>
																	<parameter authoringApp="PremierePro">
																		<parameterid>antiflicker</parameterid>
																		<name>Anti-flicker Filter</name>
																		<valuemin>0.0</valuemin>
																		<valuemax>1.0</valuemax>
																		<value>0</value>
																	</parameter>
																</effect>
															</filter>
															<logginginfo>
																<description></description>
																<scene></scene>
																<shottake></shottake>
																<lognote>https://www.youtube.com/watch?v=inZ9KZPq1mQ</lognote>
																<good></good>
																<originalvideofilename></originalvideofilename>
																<originalaudiofilename></originalaudiofilename>
															</logginginfo>
															<colorinfo>
																<lut></lut>
																<lut1></lut1>
																<asc_sop></asc_sop>
																<asc_sat></asc_sat>
																<lut2></lut2>
															</colorinfo>
															<labels>
																<label2>Iris</label2>
															</labels>
														</clipitem>
														<clipitem id="clipitem-317">
															<masterclipid>masterclip-195</masterclipid>
															<name>(Loci)_The North (Arctic life in Lapland &amp; Lofoten) - LÓCI_inZ9KZPq1mQ_YT.mp4</name>
															<enabled>TRUE</enabled>
															<duration>7749</duration>
															<rate>
																<timebase>30</timebase>
																<ntsc>TRUE</ntsc>
															</rate>
															<start>2399</start>
															<end>2703</end>
															<in>6530</in>
															<out>6834</out>
															<pproTicksIn>55346106816000</pproTicksIn>
															<pproTicksOut>57922709644800</pproTicksOut>
															<alphatype>none</alphatype>
															<file id="file-182"/>
															<filter>
																<effect>
																	<name>Basic Motion</name>
																	<effectid>basic</effectid>
																	<effectcategory>motion</effectcategory>
																	<effecttype>motion</effecttype>
																	<mediatype>video</mediatype>
																	<pproBypass>false</pproBypass>
																	<parameter authoringApp="PremierePro">
																		<parameterid>scale</parameterid>
																		<name>Scale</name>
																		<valuemin>0</valuemin>
																		<valuemax>1000</valuemax>
																		<value>133</value>
																	</parameter>
																	<parameter authoringApp="PremierePro">
																		<parameterid>rotation</parameterid>
																		<name>Rotation</name>
																		<valuemin>-8640</valuemin>
																		<valuemax>8640</valuemax>
																		<value>0</value>
																	</parameter>
																	<parameter authoringApp="PremierePro">
																		<parameterid>center</parameterid>
																		<name>Center</name>
																		<value>
																			<horiz>0</horiz>
																			<vert>0</vert>
																		</value>
																	</parameter>
																	<parameter authoringApp="PremierePro">
																		<parameterid>centerOffset</parameterid>
																		<name>Anchor Point</name>
																		<value>
																			<horiz>0</horiz>
																			<vert>0</vert>
																		</value>
																	</parameter>
																	<parameter authoringApp="PremierePro">
																		<parameterid>antiflicker</parameterid>
																		<name>Anti-flicker Filter</name>
																		<valuemin>0.0</valuemin>
																		<valuemax>1.0</valuemax>
																		<value>0</value>
																	</parameter>
																</effect>
															</filter>
															<logginginfo>
																<description></description>
																<scene></scene>
																<shottake></shottake>
																<lognote>https://www.youtube.com/watch?v=inZ9KZPq1mQ</lognote>
																<good></good>
																<originalvideofilename></originalvideofilename>
																<originalaudiofilename></originalaudiofilename>
															</logginginfo>
															<colorinfo>
																<lut></lut>
																<lut1></lut1>
																<asc_sop></asc_sop>
																<asc_sat></asc_sat>
																<lut2></lut2>
															</colorinfo>
															<labels>
																<label2>Iris</label2>
															</labels>
														</clipitem>
														<clipitem id="clipitem-318">
															<masterclipid>masterclip-195</masterclipid>
															<name>(Loci)_The North (Arctic life in Lapland &amp; Lofoten) - LÓCI_inZ9KZPq1mQ_YT.mp4</name>
															<enabled>TRUE</enabled>
															<duration>7749</duration>
															<rate>
																<timebase>30</timebase>
																<ntsc>TRUE</ntsc>
															</rate>
															<start>2703</start>
															<end>2770</end>
															<in>6996</in>
															<out>7063</out>
															<pproTicksIn>59295767731200</pproTicksIn>
															<pproTicksOut>59863637433600</pproTicksOut>
															<alphatype>none</alphatype>
															<file id="file-182"/>
															<filter>
																<effect>
																	<name>Basic Motion</name>
																	<effectid>basic</effectid>
																	<effectcategory>motion</effectcategory>
																	<effecttype>motion</effecttype>
																	<mediatype>video</mediatype>
																	<pproBypass>false</pproBypass>
																	<parameter authoringApp="PremierePro">
																		<parameterid>scale</parameterid>
																		<name>Scale</name>
																		<valuemin>0</valuemin>
																		<valuemax>1000</valuemax>
																		<value>133</value>
																	</parameter>
																	<parameter authoringApp="PremierePro">
																		<parameterid>rotation</parameterid>
																		<name>Rotation</name>
																		<valuemin>-8640</valuemin>
																		<valuemax>8640</valuemax>
																		<value>0</value>
																	</parameter>
																	<parameter authoringApp="PremierePro">
																		<parameterid>center</parameterid>
																		<name>Center</name>
																		<value>
																			<horiz>0</horiz>
																			<vert>0</vert>
																		</value>
																	</parameter>
																	<parameter authoringApp="PremierePro">
																		<parameterid>centerOffset</parameterid>
																		<name>Anchor Point</name>
																		<value>
																			<horiz>0</horiz>
																			<vert>0</vert>
																		</value>
																	</parameter>
																	<parameter authoringApp="PremierePro">
																		<parameterid>antiflicker</parameterid>
																		<name>Anti-flicker Filter</name>
																		<valuemin>0.0</valuemin>
																		<valuemax>1.0</valuemax>
																		<value>0</value>
																	</parameter>
																</effect>
															</filter>
															<logginginfo>
																<description></description>
																<scene></scene>
																<shottake></shottake>
																<lognote>https://www.youtube.com/watch?v=inZ9KZPq1mQ</lognote>
																<good></good>
																<originalvideofilename></originalvideofilename>
																<originalaudiofilename></originalaudiofilename>
															</logginginfo>
															<colorinfo>
																<lut></lut>
																<lut1></lut1>
																<asc_sop></asc_sop>
																<asc_sat></asc_sat>
																<lut2></lut2>
															</colorinfo>
															<labels>
																<label2>Iris</label2>
															</labels>
														</clipitem>
														<clipitem id="clipitem-319">
															<masterclipid>masterclip-195</masterclipid>
															<name>(Loci)_The North (Arctic life in Lapland &amp; Lofoten) - LÓCI_inZ9KZPq1mQ_YT.mp4</name>
															<enabled>TRUE</enabled>
															<duration>7749</duration>
															<rate>
																<timebase>30</timebase>
																<ntsc>TRUE</ntsc>
															</rate>
															<start>2770</start>
															<end>2854</end>
															<in>7063</in>
															<out>7147</out>
															<pproTicksIn>59863637433600</pproTicksIn>
															<pproTicksOut>60575593478400</pproTicksOut>
															<alphatype>none</alphatype>
															<file id="file-182"/>
															<filter>
																<effect>
																	<name>Basic Motion</name>
																	<effectid>basic</effectid>
																	<effectcategory>motion</effectcategory>
																	<effecttype>motion</effecttype>
																	<mediatype>video</mediatype>
																	<pproBypass>false</pproBypass>
																	<parameter authoringApp="PremierePro">
																		<parameterid>scale</parameterid>
																		<name>Scale</name>
																		<valuemin>0</valuemin>
																		<valuemax>1000</valuemax>
																		<value>133</value>
																	</parameter>
																	<parameter authoringApp="PremierePro">
																		<parameterid>rotation</parameterid>
																		<name>Rotation</name>
																		<valuemin>-8640</valuemin>
																		<valuemax>8640</valuemax>
																		<value>0</value>
																	</parameter>
																	<parameter authoringApp="PremierePro">
																		<parameterid>center</parameterid>
																		<name>Center</name>
																		<value>
																			<horiz>0</horiz>
																			<vert>0</vert>
																		</value>
																	</parameter>
																	<parameter authoringApp="PremierePro">
																		<parameterid>centerOffset</parameterid>
																		<name>Anchor Point</name>
																		<value>
																			<horiz>0</horiz>
																			<vert>0</vert>
																		</value>
																	</parameter>
																	<parameter authoringApp="PremierePro">
																		<parameterid>antiflicker</parameterid>
																		<name>Anti-flicker Filter</name>
																		<valuemin>0.0</valuemin>
																		<valuemax>1.0</valuemax>
																		<value>0</value>
																	</parameter>
																</effect>
															</filter>
															<logginginfo>
																<description></description>
																<scene></scene>
																<shottake></shottake>
																<lognote>https://www.youtube.com/watch?v=inZ9KZPq1mQ</lognote>
																<good></good>
																<originalvideofilename></originalvideofilename>
																<originalaudiofilename></originalaudiofilename>
															</logginginfo>
															<colorinfo>
																<lut></lut>
																<lut1></lut1>
																<asc_sop></asc_sop>
																<asc_sat></asc_sat>
																<lut2></lut2>
															</colorinfo>
															<labels>
																<label2>Iris</label2>
															</labels>
														</clipitem>
														<clipitem id="clipitem-320">
															<masterclipid>masterclip-195</masterclipid>
															<name>(Loci)_The North (Arctic life in Lapland &amp; Lofoten) - LÓCI_inZ9KZPq1mQ_YT.mp4</name>
															<enabled>TRUE</enabled>
															<duration>7749</duration>
															<rate>
																<timebase>30</timebase>
																<ntsc>TRUE</ntsc>
															</rate>
															<start>2854</start>
															<end>2944</end>
															<in>7147</in>
															<out>7237</out>
															<pproTicksIn>60575593478400</pproTicksIn>
															<pproTicksOut>61338403526400</pproTicksOut>
															<alphatype>none</alphatype>
															<file id="file-182"/>
															<filter>
																<effect>
																	<name>Basic Motion</name>
																	<effectid>basic</effectid>
																	<effectcategory>motion</effectcategory>
																	<effecttype>motion</effecttype>
																	<mediatype>video</mediatype>
																	<pproBypass>false</pproBypass>
																	<parameter authoringApp="PremierePro">
																		<parameterid>scale</parameterid>
																		<name>Scale</name>
																		<valuemin>0</valuemin>
																		<valuemax>1000</valuemax>
																		<value>133</value>
																	</parameter>
																	<parameter authoringApp="PremierePro">
																		<parameterid>rotation</parameterid>
																		<name>Rotation</name>
																		<valuemin>-8640</valuemin>
																		<valuemax>8640</valuemax>
																		<value>0</value>
																	</parameter>
																	<parameter authoringApp="PremierePro">
																		<parameterid>center</parameterid>
																		<name>Center</name>
																		<value>
																			<horiz>0</horiz>
																			<vert>0</vert>
																		</value>
																	</parameter>
																	<parameter authoringApp="PremierePro">
																		<parameterid>centerOffset</parameterid>
																		<name>Anchor Point</name>
																		<value>
																			<horiz>0</horiz>
																			<vert>0</vert>
																		</value>
																	</parameter>
																	<parameter authoringApp="PremierePro">
																		<parameterid>antiflicker</parameterid>
																		<name>Anti-flicker Filter</name>
																		<valuemin>0.0</valuemin>
																		<valuemax>1.0</valuemax>
																		<value>0</value>
																	</parameter>
																</effect>
															</filter>
															<logginginfo>
																<description></description>
																<scene></scene>
																<shottake></shottake>
																<lognote>https://www.youtube.com/watch?v=inZ9KZPq1mQ</lognote>
																<good></good>
																<originalvideofilename></originalvideofilename>
																<originalaudiofilename></originalaudiofilename>
															</logginginfo>
															<colorinfo>
																<lut></lut>
																<lut1></lut1>
																<asc_sop></asc_sop>
																<asc_sat></asc_sat>
																<lut2></lut2>
															</colorinfo>
															<labels>
																<label2>Iris</label2>
															</labels>
														</clipitem>
														<enabled>TRUE</enabled>
														<locked>FALSE</locked>
													</track>
													<track TL.SQTrackShy="0" TL.SQTrackExpandedHeight="25" TL.SQTrackExpanded="0" MZ.TrackTargeted="0">
														<clipitem id="clipitem-321">
															<masterclipid>masterclip-196</masterclipid>
															<name>LÓCI</name>
															<enabled>TRUE</enabled>
															<duration>5844</duration>
															<rate>
																<timebase>30</timebase>
																<ntsc>TRUE</ntsc>
															</rate>
															<start>0</start>
															<end>808</end>
															<in>0</in>
															<out>808</out>
															<pproTicksIn>0</pproTicksIn>
															<pproTicksOut>6848339097600</pproTicksOut>
															<alphatype>straight</alphatype>
															<pixelaspectratio>square</pixelaspectratio>
															<anamorphic>FALSE</anamorphic>
															<file id="file-183">
																<name>1080/AE Attribution.aep</name>
																<pathurl>file://localhost/Volumes/T7/DRONE_08.18.2023/4_Project%20Files/Drone%202023%20Master%20Assets/01_Bugs/AE%20Attribution.aep</pathurl>
																<rate>
																	<timebase>30</timebase>
																	<ntsc>TRUE</ntsc>
																</rate>
																<duration>5844</duration>
																<timecode>
																	<rate>
																		<timebase>30</timebase>
																		<ntsc>TRUE</ntsc>
																	</rate>
																	<string>00;00;00;00</string>
																	<frame>0</frame>
																	<displayformat>DF</displayformat>
																</timecode>
																<media>
																	<video>
																		<samplecharacteristics>
																			<rate>
																				<timebase>30</timebase>
																				<ntsc>TRUE</ntsc>
																			</rate>
																			<width>1920</width>
																			<height>1080</height>
																			<anamorphic>FALSE</anamorphic>
																			<pixelaspectratio>square</pixelaspectratio>
																			<fielddominance>lower</fielddominance>
																		</samplecharacteristics>
																	</video>
																</media>
															</file>
															<logginginfo>
																<description></description>
																<scene></scene>
																<shottake></shottake>
																<lognote></lognote>
																<good></good>
																<originalvideofilename></originalvideofilename>
																<originalaudiofilename></originalaudiofilename>
															</logginginfo>
															<colorinfo>
																<lut></lut>
																<lut1></lut1>
																<asc_sop></asc_sop>
																<asc_sat></asc_sat>
																<lut2></lut2>
															</colorinfo>
															<labels>
																<label2>Yellow</label2>
															</labels>
														</clipitem>
														<clipitem id="clipitem-322">
															<masterclipid>masterclip-196</masterclipid>
															<name>LÓCI</name>
															<enabled>TRUE</enabled>
															<duration>5844</duration>
															<rate>
																<timebase>30</timebase>
																<ntsc>TRUE</ntsc>
															</rate>
															<start>808</start>
															<end>873</end>
															<in>816</in>
															<out>881</out>
															<pproTicksIn>6916144435200</pproTicksIn>
															<pproTicksOut>7467062803200</pproTicksOut>
															<alphatype>straight</alphatype>
															<file id="file-183"/>
															<logginginfo>
																<description></description>
																<scene></scene>
																<shottake></shottake>
																<lognote></lognote>
																<good></good>
																<originalvideofilename></originalvideofilename>
																<originalaudiofilename></originalaudiofilename>
															</logginginfo>
															<colorinfo>
																<lut></lut>
																<lut1></lut1>
																<asc_sop></asc_sop>
																<asc_sat></asc_sat>
																<lut2></lut2>
															</colorinfo>
															<labels>
																<label2>Yellow</label2>
															</labels>
														</clipitem>
														<clipitem id="clipitem-323">
															<masterclipid>masterclip-196</masterclipid>
															<name>LÓCI</name>
															<enabled>TRUE</enabled>
															<duration>5844</duration>
															<rate>
																<timebase>30</timebase>
																<ntsc>TRUE</ntsc>
															</rate>
															<start>873</start>
															<end>998</end>
															<in>928</in>
															<out>1053</out>
															<pproTicksIn>7865419161600</pproTicksIn>
															<pproTicksOut>8924877561600</pproTicksOut>
															<alphatype>straight</alphatype>
															<file id="file-183"/>
															<logginginfo>
																<description></description>
																<scene></scene>
																<shottake></shottake>
																<lognote></lognote>
																<good></good>
																<originalvideofilename></originalvideofilename>
																<originalaudiofilename></originalaudiofilename>
															</logginginfo>
															<colorinfo>
																<lut></lut>
																<lut1></lut1>
																<asc_sop></asc_sop>
																<asc_sat></asc_sat>
																<lut2></lut2>
															</colorinfo>
															<labels>
																<label2>Yellow</label2>
															</labels>
														</clipitem>
														<clipitem id="clipitem-324">
															<masterclipid>masterclip-196</masterclipid>
															<name>LÓCI</name>
															<enabled>TRUE</enabled>
															<duration>5844</duration>
															<rate>
																<timebase>30</timebase>
																<ntsc>TRUE</ntsc>
															</rate>
															<start>998</start>
															<end>1200</end>
															<in>1063</in>
															<out>1265</out>
															<pproTicksIn>9009634233600</pproTicksIn>
															<pproTicksOut>10721719008000</pproTicksOut>
															<alphatype>straight</alphatype>
															<file id="file-183"/>
															<logginginfo>
																<description></description>
																<scene></scene>
																<shottake></shottake>
																<lognote></lognote>
																<good></good>
																<originalvideofilename></originalvideofilename>
																<originalaudiofilename></originalaudiofilename>
															</logginginfo>
															<colorinfo>
																<lut></lut>
																<lut1></lut1>
																<asc_sop></asc_sop>
																<asc_sat></asc_sat>
																<lut2></lut2>
															</colorinfo>
															<labels>
																<label2>Yellow</label2>
															</labels>
														</clipitem>
														<clipitem id="clipitem-325">
															<masterclipid>masterclip-196</masterclipid>
															<name>LÓCI</name>
															<enabled>TRUE</enabled>
															<duration>5844</duration>
															<rate>
																<timebase>30</timebase>
																<ntsc>TRUE</ntsc>
															</rate>
															<start>1200</start>
															<end>1313</end>
															<in>1285</in>
															<out>1398</out>
															<pproTicksIn>10891232352000</pproTicksIn>
															<pproTicksOut>11848982745600</pproTicksOut>
															<alphatype>straight</alphatype>
															<file id="file-183"/>
															<logginginfo>
																<description></description>
																<scene></scene>
																<shottake></shottake>
																<lognote></lognote>
																<good></good>
																<originalvideofilename></originalvideofilename>
																<originalaudiofilename></originalaudiofilename>
															</logginginfo>
															<colorinfo>
																<lut></lut>
																<lut1></lut1>
																<asc_sop></asc_sop>
																<asc_sat></asc_sat>
																<lut2></lut2>
															</colorinfo>
															<labels>
																<label2>Yellow</label2>
															</labels>
														</clipitem>
														<clipitem id="clipitem-326">
															<masterclipid>masterclip-196</masterclipid>
															<name>LÓCI</name>
															<enabled>TRUE</enabled>
															<duration>5844</duration>
															<rate>
																<timebase>30</timebase>
																<ntsc>TRUE</ntsc>
															</rate>
															<start>1313</start>
															<end>1881</end>
															<in>1430</in>
															<out>1998</out>
															<pproTicksIn>12120204096000</pproTicksIn>
															<pproTicksOut>16934383065600</pproTicksOut>
															<alphatype>straight</alphatype>
															<file id="file-183"/>
															<logginginfo>
																<description></description>
																<scene></scene>
																<shottake></shottake>
																<lognote></lognote>
																<good></good>
																<originalvideofilename></originalvideofilename>
																<originalaudiofilename></originalaudiofilename>
															</logginginfo>
															<colorinfo>
																<lut></lut>
																<lut1></lut1>
																<asc_sop></asc_sop>
																<asc_sat></asc_sat>
																<lut2></lut2>
															</colorinfo>
															<labels>
																<label2>Yellow</label2>
															</labels>
														</clipitem>
														<clipitem id="clipitem-327">
															<masterclipid>masterclip-196</masterclipid>
															<name>LÓCI</name>
															<enabled>TRUE</enabled>
															<duration>5844</duration>
															<rate>
																<timebase>30</timebase>
																<ntsc>TRUE</ntsc>
															</rate>
															<start>1881</start>
															<end>2944</end>
															<in>2101</in>
															<out>3164</out>
															<pproTicksIn>17807376787200</pproTicksIn>
															<pproTicksOut>26817011020800</pproTicksOut>
															<alphatype>straight</alphatype>
															<file id="file-183"/>
															<logginginfo>
																<description></description>
																<scene></scene>
																<shottake></shottake>
																<lognote></lognote>
																<good></good>
																<originalvideofilename></originalvideofilename>
																<originalaudiofilename></originalaudiofilename>
															</logginginfo>
															<colorinfo>
																<lut></lut>
																<lut1></lut1>
																<asc_sop></asc_sop>
																<asc_sat></asc_sat>
																<lut2></lut2>
															</colorinfo>
															<labels>
																<label2>Yellow</label2>
															</labels>
														</clipitem>
														<enabled>TRUE</enabled>
														<locked>FALSE</locked>
													</track>
													<track TL.SQTrackShy="0" TL.SQTrackExpandedHeight="25" TL.SQTrackExpanded="0" MZ.TrackTargeted="0">
														<enabled>TRUE</enabled>
														<locked>FALSE</locked>
													</track>
												</video>
												<audio>
													<numOutputChannels>2</numOutputChannels>
													<format>
														<samplecharacteristics>
															<depth>16</depth>
															<samplerate>48000</samplerate>
														</samplecharacteristics>
													</format>
													<outputs>
														<group>
															<index>1</index>
															<numchannels>1</numchannels>
															<downmix>0</downmix>
															<channel>
																<index>1</index>
															</channel>
														</group>
														<group>
															<index>2</index>
															<numchannels>1</numchannels>
															<downmix>0</downmix>
															<channel>
																<index>2</index>
															</channel>
														</group>
													</outputs>
													<track TL.SQTrackAudioKeyframeStyle="0" TL.SQTrackShy="0" TL.SQTrackExpandedHeight="58" TL.SQTrackExpanded="0" MZ.TrackTargeted="1" PannerCurrentValue="0.5" PannerIsInverted="true" PannerStartKeyframe="-91445760000000000,0.5,0,0,0,0,0,0" PannerName="Balance" currentExplodedTrackIndex="0" totalExplodedTrackCount="2" premiereTrackType="Stereo">
														<transitionitem>
															<start>0</start>
															<end>7</end>
															<pproTicksIn>0</pproTicksIn>
															<pproTicksOut>59329670400</pproTicksOut>
															<alignment>start-black</alignment>
															<cutPointTicks>0</cutPointTicks>
															<rate>
																<timebase>30</timebase>
																<ntsc>TRUE</ntsc>
															</rate>
															<effect>
																<name>Cross Fade ( 0dB)</name>
																<effectid>KGAudioTransCrossFade0dB</effectid>
																<effecttype>transition</effecttype>
																<mediatype>audio</mediatype>
																<wipecode>0</wipecode>
																<wipeaccuracy>100</wipeaccuracy>
																<startratio>0</startratio>
																<endratio>1</endratio>
																<reverse>FALSE</reverse>
															</effect>
														</transitionitem>
														<clipitem id="clipitem-328" premiereChannelType="stereo">
															<masterclipid>masterclip-197</masterclipid>
															<name>ES_Port Said - Far Orange.mp3</name>
															<enabled>TRUE</enabled>
															<duration>7430</duration>
															<rate>
																<timebase>30</timebase>
																<ntsc>TRUE</ntsc>
															</rate>
															<start>-1</start>
															<end>-1</end>
															<in>3288</in>
															<out>6232</out>
															<pproTicksIn>27867993753600</pproTicksIn>
															<pproTicksOut>52820357990400</pproTicksOut>
															<file id="file-184">
																<name>ES_Port Said - Far Orange.mp3</name>
																<pathurl>file://localhost/Volumes/T7/DRONE_08.18.2023/5_Music/ES_Port%20Said%20-%20Far%20Orange.mp3</pathurl>
																<rate>
																	<timebase>30</timebase>
																	<ntsc>TRUE</ntsc>
																</rate>
																<duration>7430</duration>
																<timecode>
																	<rate>
																		<timebase>30</timebase>
																		<ntsc>TRUE</ntsc>
																	</rate>
																	<string>00;00;00;00</string>
																	<frame>0</frame>
																	<displayformat>DF</displayformat>
																</timecode>
																<media>
																	<audio>
																		<samplecharacteristics>
																			<depth>16</depth>
																			<samplerate>48000</samplerate>
																		</samplecharacteristics>
																		<channelcount>2</channelcount>
																	</audio>
																</media>
															</file>
															<sourcetrack>
																<mediatype>audio</mediatype>
																<trackindex>1</trackindex>
															</sourcetrack>
															<link>
																<linkclipref>clipitem-328</linkclipref>
																<mediatype>audio</mediatype>
																<trackindex>1</trackindex>
																<clipindex>2</clipindex>
																<groupindex>1</groupindex>
															</link>
															<link>
																<linkclipref>clipitem-329</linkclipref>
																<mediatype>audio</mediatype>
																<trackindex>2</trackindex>
																<clipindex>2</clipindex>
																<groupindex>1</groupindex>
															</link>
															<logginginfo>
																<description></description>
																<scene></scene>
																<shottake></shottake>
																<lognote></lognote>
																<good></good>
																<originalvideofilename></originalvideofilename>
																<originalaudiofilename></originalaudiofilename>
															</logginginfo>
															<colorinfo>
																<lut></lut>
																<lut1></lut1>
																<asc_sop></asc_sop>
																<asc_sat></asc_sat>
																<lut2></lut2>
															</colorinfo>
															<labels>
																<label2>Caribbean</label2>
															</labels>
														</clipitem>
														<transitionitem>
															<start>2937</start>
															<end>2944</end>
															<pproTicksIn>24893034566400</pproTicksIn>
															<pproTicksOut>24952364236800</pproTicksOut>
															<alignment>end-black</alignment>
															<cutPointTicks>59329670400</cutPointTicks>
															<rate>
																<timebase>30</timebase>
																<ntsc>TRUE</ntsc>
															</rate>
															<effect>
																<name>Cross Fade ( 0dB)</name>
																<effectid>KGAudioTransCrossFade0dB</effectid>
																<effecttype>transition</effecttype>
																<mediatype>audio</mediatype>
																<wipecode>0</wipecode>
																<wipeaccuracy>100</wipeaccuracy>
																<startratio>0</startratio>
																<endratio>1</endratio>
																<reverse>FALSE</reverse>
															</effect>
														</transitionitem>
														<enabled>TRUE</enabled>
														<locked>FALSE</locked>
														<outputchannelindex>1</outputchannelindex>
													</track>
													<track TL.SQTrackAudioKeyframeStyle="0" TL.SQTrackShy="0" TL.SQTrackExpandedHeight="58" TL.SQTrackExpanded="0" MZ.TrackTargeted="1" PannerCurrentValue="0.5" PannerIsInverted="true" PannerStartKeyframe="-91445760000000000,0.5,0,0,0,0,0,0" PannerName="Balance" currentExplodedTrackIndex="1" totalExplodedTrackCount="2" premiereTrackType="Stereo">
														<transitionitem>
															<start>0</start>
															<end>7</end>
															<pproTicksIn>0</pproTicksIn>
															<pproTicksOut>59329670400</pproTicksOut>
															<alignment>start-black</alignment>
															<cutPointTicks>0</cutPointTicks>
															<rate>
																<timebase>30</timebase>
																<ntsc>TRUE</ntsc>
															</rate>
															<effect>
																<name>Cross Fade ( 0dB)</name>
																<effectid>KGAudioTransCrossFade0dB</effectid>
																<effecttype>transition</effecttype>
																<mediatype>audio</mediatype>
																<wipecode>0</wipecode>
																<wipeaccuracy>100</wipeaccuracy>
																<startratio>0</startratio>
																<endratio>1</endratio>
																<reverse>FALSE</reverse>
															</effect>
														</transitionitem>
														<clipitem id="clipitem-329" premiereChannelType="stereo">
															<masterclipid>masterclip-197</masterclipid>
															<name>ES_Port Said - Far Orange.mp3</name>
															<enabled>TRUE</enabled>
															<duration>7430</duration>
															<rate>
																<timebase>30</timebase>
																<ntsc>TRUE</ntsc>
															</rate>
															<start>-1</start>
															<end>-1</end>
															<in>3288</in>
															<out>6232</out>
															<pproTicksIn>27867993753600</pproTicksIn>
															<pproTicksOut>52820357990400</pproTicksOut>
															<file id="file-184"/>
															<sourcetrack>
																<mediatype>audio</mediatype>
																<trackindex>2</trackindex>
															</sourcetrack>
															<link>
																<linkclipref>clipitem-328</linkclipref>
																<mediatype>audio</mediatype>
																<trackindex>1</trackindex>
																<clipindex>2</clipindex>
																<groupindex>1</groupindex>
															</link>
															<link>
																<linkclipref>clipitem-329</linkclipref>
																<mediatype>audio</mediatype>
																<trackindex>2</trackindex>
																<clipindex>2</clipindex>
																<groupindex>1</groupindex>
															</link>
															<logginginfo>
																<description></description>
																<scene></scene>
																<shottake></shottake>
																<lognote></lognote>
																<good></good>
																<originalvideofilename></originalvideofilename>
																<originalaudiofilename></originalaudiofilename>
															</logginginfo>
															<colorinfo>
																<lut></lut>
																<lut1></lut1>
																<asc_sop></asc_sop>
																<asc_sat></asc_sat>
																<lut2></lut2>
															</colorinfo>
															<labels>
																<label2>Caribbean</label2>
															</labels>
														</clipitem>
														<transitionitem>
															<start>2937</start>
															<end>2944</end>
															<pproTicksIn>24893034566400</pproTicksIn>
															<pproTicksOut>24952364236800</pproTicksOut>
															<alignment>end-black</alignment>
															<cutPointTicks>59329670400</cutPointTicks>
															<rate>
																<timebase>30</timebase>
																<ntsc>TRUE</ntsc>
															</rate>
															<effect>
																<name>Cross Fade ( 0dB)</name>
																<effectid>KGAudioTransCrossFade0dB</effectid>
																<effecttype>transition</effecttype>
																<mediatype>audio</mediatype>
																<wipecode>0</wipecode>
																<wipeaccuracy>100</wipeaccuracy>
																<startratio>0</startratio>
																<endratio>1</endratio>
																<reverse>FALSE</reverse>
															</effect>
														</transitionitem>
														<enabled>TRUE</enabled>
														<locked>FALSE</locked>
														<outputchannelindex>2</outputchannelindex>
													</track>
													<track TL.SQTrackAudioKeyframeStyle="0" TL.SQTrackShy="0" TL.SQTrackExpandedHeight="25" TL.SQTrackExpanded="0" MZ.TrackTargeted="1" PannerCurrentValue="0.5" PannerIsInverted="true" PannerStartKeyframe="-91445760000000000,0.5,0,0,0,0,0,0" PannerName="Balance" currentExplodedTrackIndex="0" totalExplodedTrackCount="2" premiereTrackType="Stereo">
														<enabled>TRUE</enabled>
														<locked>FALSE</locked>
														<outputchannelindex>1</outputchannelindex>
													</track>
													<track TL.SQTrackAudioKeyframeStyle="0" TL.SQTrackShy="0" TL.SQTrackExpandedHeight="25" TL.SQTrackExpanded="0" MZ.TrackTargeted="1" PannerCurrentValue="0.5" PannerIsInverted="true" PannerStartKeyframe="-91445760000000000,0.5,0,0,0,0,0,0" PannerName="Balance" currentExplodedTrackIndex="1" totalExplodedTrackCount="2" premiereTrackType="Stereo">
														<enabled>TRUE</enabled>
														<locked>FALSE</locked>
														<outputchannelindex>2</outputchannelindex>
													</track>
													<track TL.SQTrackAudioKeyframeStyle="0" TL.SQTrackShy="0" TL.SQTrackExpandedHeight="25" TL.SQTrackExpanded="0" MZ.TrackTargeted="1" PannerCurrentValue="0.5" PannerIsInverted="true" PannerStartKeyframe="-91445760000000000,0.5,0,0,0,0,0,0" PannerName="Balance" currentExplodedTrackIndex="0" totalExplodedTrackCount="2" premiereTrackType="Stereo">
														<enabled>TRUE</enabled>
														<locked>FALSE</locked>
														<outputchannelindex>1</outputchannelindex>
													</track>
													<track TL.SQTrackAudioKeyframeStyle="0" TL.SQTrackShy="0" TL.SQTrackExpandedHeight="25" TL.SQTrackExpanded="0" MZ.TrackTargeted="1" PannerCurrentValue="0.5" PannerIsInverted="true" PannerStartKeyframe="-91445760000000000,0.5,0,0,0,0,0,0" PannerName="Balance" currentExplodedTrackIndex="1" totalExplodedTrackCount="2" premiereTrackType="Stereo">
														<enabled>TRUE</enabled>
														<locked>FALSE</locked>
														<outputchannelindex>2</outputchannelindex>
													</track>
												</audio>
											</media>
											<timecode>
												<rate>
													<timebase>30</timebase>
													<ntsc>TRUE</ntsc>
												</rate>
												<string>00;00;00;00</string>
												<frame>0</frame>
												<displayformat>DF</displayformat>
											</timecode>
											<logginginfo>
												<description></description>
												<scene></scene>
												<shottake></shottake>
												<lognote></lognote>
												<good></good>
												<originalvideofilename></originalvideofilename>
												<originalaudiofilename></originalaudiofilename>
											</logginginfo>
											<filter>
												<effect>
													<name>Audio Levels</name>
													<effectid>audiolevels</effectid>
													<effectcategory>audiolevels</effectcategory>
													<effecttype>audiolevels</effecttype>
													<mediatype>audio</mediatype>
													<parameter authoringApp="PremierePro">
														<parameterid>level</parameterid>
														<name>Level</name>
														<valuemin>0</valuemin>
														<valuemax>3.98109</valuemax>
														<value>0.839406</value>
													</parameter>
												</effect>
											</filter>
										</sequence>
										<link>
											<linkclipref>clipitem-288</linkclipref>
											<mediatype>video</mediatype>
											<trackindex>1</trackindex>
											<clipindex>2</clipindex>
										</link>
										<link>
											<linkclipref>clipitem-352</linkclipref>
											<mediatype>audio</mediatype>
											<trackindex>1</trackindex>
											<clipindex>2</clipindex>
											<groupindex>1</groupindex>
										</link>
										<link>
											<linkclipref>clipitem-354</linkclipref>
											<mediatype>audio</mediatype>
											<trackindex>2</trackindex>
											<clipindex>2</clipindex>
											<groupindex>1</groupindex>
										</link>
										<labels>
											<label2>Forest</label2>
										</labels>
									</clipitem>
									<enabled>TRUE</enabled>
									<locked>FALSE</locked>
								</track>
								<track TL.SQTrackShy="0" TL.SQTrackExpandedHeight="25" TL.SQTrackExpanded="0" MZ.TrackTargeted="0">
									<clipitem id="clipitem-330">
										<masterclipid>masterclip-198</masterclipid>
										<name>A Sleepy Coastal Town</name>
										<enabled>TRUE</enabled>
										<duration>5694</duration>
										<rate>
											<timebase>30</timebase>
											<ntsc>TRUE</ntsc>
										</rate>
										<start>0</start>
										<end>2674</end>
										<in>0</in>
										<out>2674</out>
										<pproTicksIn>0</pproTicksIn>
										<pproTicksOut>22663934092800</pproTicksOut>
										<alphatype>straight</alphatype>
										<pixelaspectratio>square</pixelaspectratio>
										<anamorphic>FALSE</anamorphic>
										<file id="file-185">
											<name>DRONE_LOWER_A/NEW DRONE L3.aep</name>
											<pathurl>file://localhost/Volumes/T7/DRONE_08.18.2023/4_Project%20Files/Drone%202023%20Master%20Assets/01_Bugs/NEW%20DRONE%20L3/NEW%20DRONE%20L3.aep</pathurl>
											<rate>
												<timebase>30</timebase>
												<ntsc>TRUE</ntsc>
											</rate>
											<duration>5694</duration>
											<timecode>
												<rate>
													<timebase>30</timebase>
													<ntsc>TRUE</ntsc>
												</rate>
												<string>00;00;00;00</string>
												<frame>0</frame>
												<displayformat>DF</displayformat>
											</timecode>
											<media>
												<video>
													<samplecharacteristics>
														<rate>
															<timebase>30</timebase>
															<ntsc>TRUE</ntsc>
														</rate>
														<width>1920</width>
														<height>1080</height>
														<anamorphic>FALSE</anamorphic>
														<pixelaspectratio>square</pixelaspectratio>
														<fielddominance>lower</fielddominance>
													</samplecharacteristics>
												</video>
											</media>
										</file>
										<logginginfo>
											<description></description>
											<scene></scene>
											<shottake></shottake>
											<lognote></lognote>
											<good></good>
											<originalvideofilename></originalvideofilename>
											<originalaudiofilename></originalaudiofilename>
										</logginginfo>
										<colorinfo>
											<lut></lut>
											<lut1></lut1>
											<asc_sop></asc_sop>
											<asc_sat></asc_sat>
											<lut2></lut2>
										</colorinfo>
										<labels>
											<label2>Rose</label2>
										</labels>
									</clipitem>
									<clipitem id="clipitem-331">
										<masterclipid>masterclip-199</masterclipid>
										<name>A Sleepy Coastal Town Copy 01</name>
										<enabled>TRUE</enabled>
										<duration>5694</duration>
										<rate>
											<timebase>30</timebase>
											<ntsc>TRUE</ntsc>
										</rate>
										<start>2910</start>
										<end>5461</end>
										<in>0</in>
										<out>2551</out>
										<pproTicksIn>0</pproTicksIn>
										<pproTicksOut>21621427027200</pproTicksOut>
										<alphatype>straight</alphatype>
										<pixelaspectratio>square</pixelaspectratio>
										<anamorphic>FALSE</anamorphic>
										<file id="file-186">
											<name>DRONE_LOWER_A/NEW DRONE L3.aep</name>
											<pathurl>file://localhost/Volumes/T7/DRONE_08.18.2023/4_Project%20Files/Drone%202023%20Master%20Assets/01_Bugs/NEW%20DRONE%20L3/NEW%20DRONE%20L3.aep</pathurl>
											<rate>
												<timebase>30</timebase>
												<ntsc>TRUE</ntsc>
											</rate>
											<duration>5694</duration>
											<timecode>
												<rate>
													<timebase>30</timebase>
													<ntsc>TRUE</ntsc>
												</rate>
												<string>00;00;00;00</string>
												<frame>0</frame>
												<displayformat>DF</displayformat>
											</timecode>
											<media>
												<video>
													<samplecharacteristics>
														<rate>
															<timebase>30</timebase>
															<ntsc>TRUE</ntsc>
														</rate>
														<width>1920</width>
														<height>1080</height>
														<anamorphic>FALSE</anamorphic>
														<pixelaspectratio>square</pixelaspectratio>
														<fielddominance>lower</fielddominance>
													</samplecharacteristics>
												</video>
											</media>
										</file>
										<logginginfo>
											<description></description>
											<scene></scene>
											<shottake></shottake>
											<lognote></lognote>
											<good></good>
											<originalvideofilename></originalvideofilename>
											<originalaudiofilename></originalaudiofilename>
										</logginginfo>
										<colorinfo>
											<lut></lut>
											<lut1></lut1>
											<asc_sop></asc_sop>
											<asc_sat></asc_sat>
											<lut2></lut2>
										</colorinfo>
										<labels>
											<label2>Rose</label2>
										</labels>
									</clipitem>
									<enabled>TRUE</enabled>
									<locked>FALSE</locked>
								</track>
								<track TL.SQTrackShy="0" TL.SQTrackExpandedHeight="25" TL.SQTrackExpanded="0" MZ.TrackTargeted="0">
									<clipitem id="clipitem-332">
										<masterclipid>masterclip-200</masterclipid>
										<name>Ireland Pin</name>
										<enabled>TRUE</enabled>
										<duration>5694</duration>
										<rate>
											<timebase>30</timebase>
											<ntsc>TRUE</ntsc>
										</rate>
										<start>264</start>
										<end>2674</end>
										<in>0</in>
										<out>2410</out>
										<pproTicksIn>0</pproTicksIn>
										<pproTicksOut>20426357952000</pproTicksOut>
										<alphatype>straight</alphatype>
										<pixelaspectratio>square</pixelaspectratio>
										<anamorphic>FALSE</anamorphic>
										<file id="file-187">
											<name>DRONE_PIN/DRONE_PIN.aep</name>
											<pathurl>file://localhost/Volumes/T7/DRONE_08.18.2023/4_Project%20Files/Drone%202023%20Master%20Assets/01_Bugs/DRIVE_LOCATION%20PIN/DRONE_PIN.aep</pathurl>
											<rate>
												<timebase>30</timebase>
												<ntsc>TRUE</ntsc>
											</rate>
											<duration>5694</duration>
											<timecode>
												<rate>
													<timebase>30</timebase>
													<ntsc>TRUE</ntsc>
												</rate>
												<string>00;00;00;00</string>
												<frame>0</frame>
												<displayformat>DF</displayformat>
											</timecode>
											<media>
												<video>
													<samplecharacteristics>
														<rate>
															<timebase>30</timebase>
															<ntsc>TRUE</ntsc>
														</rate>
														<width>1920</width>
														<height>1080</height>
														<anamorphic>FALSE</anamorphic>
														<pixelaspectratio>square</pixelaspectratio>
														<fielddominance>lower</fielddominance>
													</samplecharacteristics>
												</video>
											</media>
										</file>
										<logginginfo>
											<description></description>
											<scene></scene>
											<shottake></shottake>
											<lognote></lognote>
											<good></good>
											<originalvideofilename></originalvideofilename>
											<originalaudiofilename></originalaudiofilename>
										</logginginfo>
										<colorinfo>
											<lut></lut>
											<lut1></lut1>
											<asc_sop></asc_sop>
											<asc_sat></asc_sat>
											<lut2></lut2>
										</colorinfo>
										<labels>
											<label2>Cerulean</label2>
										</labels>
									</clipitem>
									<clipitem id="clipitem-333">
										<masterclipid>masterclip-201</masterclipid>
										<name>Ireland Pin Copy 01</name>
										<enabled>TRUE</enabled>
										<duration>5694</duration>
										<rate>
											<timebase>30</timebase>
											<ntsc>TRUE</ntsc>
										</rate>
										<start>3174</start>
										<end>5461</end>
										<in>0</in>
										<out>2287</out>
										<pproTicksIn>0</pproTicksIn>
										<pproTicksOut>19383850886400</pproTicksOut>
										<alphatype>straight</alphatype>
										<pixelaspectratio>square</pixelaspectratio>
										<anamorphic>FALSE</anamorphic>
										<file id="file-188">
											<name>DRONE_PIN/DRONE_PIN.aep</name>
											<pathurl>file://localhost/Volumes/T7/DRONE_08.18.2023/4_Project%20Files/Drone%202023%20Master%20Assets/01_Bugs/DRIVE_LOCATION%20PIN/DRONE_PIN.aep</pathurl>
											<rate>
												<timebase>30</timebase>
												<ntsc>TRUE</ntsc>
											</rate>
											<duration>5694</duration>
											<timecode>
												<rate>
													<timebase>30</timebase>
													<ntsc>TRUE</ntsc>
												</rate>
												<string>00;00;00;00</string>
												<frame>0</frame>
												<displayformat>DF</displayformat>
											</timecode>
											<media>
												<video>
													<samplecharacteristics>
														<rate>
															<timebase>30</timebase>
															<ntsc>TRUE</ntsc>
														</rate>
														<width>1920</width>
														<height>1080</height>
														<anamorphic>FALSE</anamorphic>
														<pixelaspectratio>square</pixelaspectratio>
														<fielddominance>lower</fielddominance>
													</samplecharacteristics>
												</video>
											</media>
										</file>
										<logginginfo>
											<description></description>
											<scene></scene>
											<shottake></shottake>
											<lognote></lognote>
											<good></good>
											<originalvideofilename></originalvideofilename>
											<originalaudiofilename></originalaudiofilename>
										</logginginfo>
										<colorinfo>
											<lut></lut>
											<lut1></lut1>
											<asc_sop></asc_sop>
											<asc_sat></asc_sat>
											<lut2></lut2>
										</colorinfo>
										<labels>
											<label2>Cerulean</label2>
										</labels>
									</clipitem>
									<enabled>TRUE</enabled>
									<locked>FALSE</locked>
								</track>
								<track TL.SQTrackShy="0" TL.SQTrackExpandedHeight="25" TL.SQTrackExpanded="0" MZ.TrackTargeted="0">
									<clipitem id="clipitem-334">
										<masterclipid>masterclip-153</masterclipid>
										<name>ATM BUG</name>
										<enabled>TRUE</enabled>
										<duration>5818</duration>
										<rate>
											<timebase>30</timebase>
											<ntsc>TRUE</ntsc>
										</rate>
										<start>0</start>
										<end>5461</end>
										<in>0</in>
										<out>5461</out>
										<pproTicksIn>0</pproTicksIn>
										<pproTicksOut>46285618579200</pproTicksOut>
										<sequence id="sequence-5"/>
										<labels>
											<label2>Violet</label2>
										</labels>
									</clipitem>
									<enabled>TRUE</enabled>
									<locked>FALSE</locked>
								</track>
								<track TL.SQTrackShy="0" TL.SQTrackExpandedHeight="25" TL.SQTrackExpanded="0" MZ.TrackTargeted="0">
									<clipitem id="clipitem-335">
										<masterclipid>masterclip-202</masterclipid>
										<name>Trans G</name>
										<enabled>TRUE</enabled>
										<duration>5697</duration>
										<rate>
											<timebase>30</timebase>
											<ntsc>TRUE</ntsc>
										</rate>
										<start>2665</start>
										<end>2910</end>
										<in>0</in>
										<out>245</out>
										<pproTicksIn>0</pproTicksIn>
										<pproTicksOut>2076538464000</pproTicksOut>
										<sequence id="sequence-17" TL.SQAudioVisibleBase="0" TL.SQVideoVisibleBase="0" TL.SQVisibleBaseTime="1779890112000" TL.SQAVDividerPosition="0.5" TL.SQHideShyTracks="0" TL.SQHeaderWidth="236" Monitor.ProgramZoomOut="2076538464000" Monitor.ProgramZoomIn="0" TL.SQTimePerPixel="0.0022537745419311059" MZ.EditLine="1805317113600" MZ.Sequence.PreviewFrameSizeHeight="1080" MZ.Sequence.PreviewFrameSizeWidth="1920" MZ.Sequence.AudioTimeDisplayFormat="200" MZ.Sequence.PreviewRenderingClassID="1297106761" MZ.Sequence.PreviewRenderingPresetCodec="1297107278" MZ.Sequence.PreviewRenderingPresetPath="EncoderPresets/SequencePreview/795454d9-d3c2-429d-9474-923ab13b7018/I-Frame Only MPEG.epr" MZ.Sequence.PreviewUseMaxRenderQuality="false" MZ.Sequence.PreviewUseMaxBitDepth="false" MZ.Sequence.EditingModeGUID="795454d9-d3c2-429d-9474-923ab13b7018" MZ.Sequence.VideoTimeDisplayFormat="102" MZ.WorkOutPoint="15239249625600" MZ.WorkInPoint="0">
											<duration>245</duration>
											<rate>
												<timebase>30</timebase>
												<ntsc>TRUE</ntsc>
											</rate>
											<name>Trans G</name>
											<media>
												<video>
													<format>
														<samplecharacteristics>
															<rate>
																<timebase>30</timebase>
																<ntsc>TRUE</ntsc>
															</rate>
															<codec>
																<name>Apple ProRes 422</name>
																<appspecificdata>
																	<appname>Final Cut Pro</appname>
																	<appmanufacturer>Apple Inc.</appmanufacturer>
																	<appversion>7.0</appversion>
																	<data>
																		<qtcodec>
																			<codecname>Apple ProRes 422</codecname>
																			<codectypename>Apple ProRes 422</codectypename>
																			<codectypecode>apcn</codectypecode>
																			<codecvendorcode>appl</codecvendorcode>
																			<spatialquality>1024</spatialquality>
																			<temporalquality>0</temporalquality>
																			<keyframerate>0</keyframerate>
																			<datarate>0</datarate>
																		</qtcodec>
																	</data>
																</appspecificdata>
															</codec>
															<width>1920</width>
															<height>1080</height>
															<anamorphic>FALSE</anamorphic>
															<pixelaspectratio>square</pixelaspectratio>
															<fielddominance>none</fielddominance>
															<colordepth>24</colordepth>
														</samplecharacteristics>
													</format>
													<track TL.SQTrackShy="0" TL.SQTrackExpandedHeight="25" TL.SQTrackExpanded="0" MZ.TrackTargeted="1">
														<clipitem id="clipitem-336">
															<masterclipid>masterclip-203</masterclipid>
															<name>ATM_DRONE_TRANS_G.mov</name>
															<enabled>TRUE</enabled>
															<duration>245</duration>
															<rate>
																<timebase>30</timebase>
																<ntsc>TRUE</ntsc>
															</rate>
															<start>9</start>
															<end>229</end>
															<in>12</in>
															<out>232</out>
															<pproTicksIn>101708006400</pproTicksIn>
															<pproTicksOut>1966354790400</pproTicksOut>
															<alphatype>straight</alphatype>
															<pixelaspectratio>square</pixelaspectratio>
															<anamorphic>FALSE</anamorphic>
															<file id="file-189">
																<name>ATM_DRONE_TRANS_G.mov</name>
																<pathurl>file://localhost/Volumes/T7/DRONE_08.18.2023/4_Project%20Files/Drone%202023%20Master%20Assets/02_Transitions/DRONE%20transitions%20(30fps)/ATM_DRONE_TRANS_G.mov</pathurl>
																<rate>
																	<timebase>30</timebase>
																	<ntsc>TRUE</ntsc>
																</rate>
																<duration>245</duration>
																<timecode>
																	<rate>
																		<timebase>30</timebase>
																		<ntsc>TRUE</ntsc>
																	</rate>
																	<string>00;00;21;20</string>
																	<frame>650</frame>
																	<displayformat>DF</displayformat>
																</timecode>
																<media>
																	<video>
																		<samplecharacteristics>
																			<rate>
																				<timebase>30</timebase>
																				<ntsc>TRUE</ntsc>
																			</rate>
																			<width>1920</width>
																			<height>1080</height>
																			<anamorphic>FALSE</anamorphic>
																			<pixelaspectratio>square</pixelaspectratio>
																			<fielddominance>none</fielddominance>
																		</samplecharacteristics>
																	</video>
																	<audio>
																		<samplecharacteristics>
																			<depth>16</depth>
																			<samplerate>48000</samplerate>
																		</samplecharacteristics>
																		<channelcount>2</channelcount>
																	</audio>
																</media>
															</file>
																<marker>
																	<comment></comment>
																	<name></name>
																	<in>10</in>
																	<out>-1</out>
																</marker>
																<marker>
																	<comment></comment>
																	<name></name>
																	<in>9</in>
																	<out>-1</out>
																</marker>
															<logginginfo>
																<description></description>
																<scene></scene>
																<shottake></shottake>
																<lognote></lognote>
																<good></good>
																<originalvideofilename></originalvideofilename>
																<originalaudiofilename></originalaudiofilename>
															</logginginfo>
															<colorinfo>
																<lut></lut>
																<lut1></lut1>
																<asc_sop></asc_sop>
																<asc_sat></asc_sat>
																<lut2></lut2>
															</colorinfo>
															<labels>
																<label2>Iris</label2>
															</labels>
														</clipitem>
														<enabled>TRUE</enabled>
														<locked>FALSE</locked>
													</track>
													<track TL.SQTrackShy="0" TL.SQTrackExpandedHeight="25" TL.SQTrackExpanded="0" MZ.TrackTargeted="0">
														<clipitem id="clipitem-337">
															<masterclipid>masterclip-157</masterclipid>
															<name>02 Zoom In - Quick / Transform Out</name>
															<enabled>TRUE</enabled>
															<duration>1294705</duration>
															<rate>
																<timebase>30</timebase>
																<ntsc>TRUE</ntsc>
															</rate>
															<start>0</start>
															<end>9</end>
															<in>0</in>
															<out>9</out>
															<pproTicksIn>0</pproTicksIn>
															<pproTicksOut>76281004800</pproTicksOut>
															<sequence id="sequence-7"/>
																<marker>
																	<comment></comment>
																	<name></name>
																	<in>20</in>
																	<out>-1</out>
																</marker>
															<labels>
																<label2>Iris</label2>
															</labels>
														</clipitem>
														<clipitem id="clipitem-338">
															<masterclipid>masterclip-159</masterclipid>
															<name>02 Zoom In - Quick / Transform In</name>
															<enabled>TRUE</enabled>
															<duration>1294705</duration>
															<rate>
																<timebase>30</timebase>
																<ntsc>TRUE</ntsc>
															</rate>
															<start>9</start>
															<end>17</end>
															<in>0</in>
															<out>8</out>
															<pproTicksIn>0</pproTicksIn>
															<pproTicksOut>67805337600</pproTicksOut>
															<sequence id="sequence-8"/>
															<labels>
																<label2>Iris</label2>
															</labels>
														</clipitem>
														<clipitem id="clipitem-339">
															<masterclipid>masterclip-157</masterclipid>
															<name>03 Zoom Out - Quick / Transform Out</name>
															<enabled>TRUE</enabled>
															<duration>1294705</duration>
															<rate>
																<timebase>30</timebase>
																<ntsc>TRUE</ntsc>
															</rate>
															<start>220</start>
															<end>229</end>
															<in>0</in>
															<out>9</out>
															<pproTicksIn>0</pproTicksIn>
															<pproTicksOut>76281004800</pproTicksOut>
															<sequence id="sequence-7"/>
																<marker>
																	<comment></comment>
																	<name></name>
																	<in>20</in>
																	<out>-1</out>
																</marker>
															<labels>
																<label2>Iris</label2>
															</labels>
														</clipitem>
														<clipitem id="clipitem-340">
															<masterclipid>masterclip-159</masterclipid>
															<name>03 Zoom Out - Quick / Transform In</name>
															<enabled>TRUE</enabled>
															<duration>1294705</duration>
															<rate>
																<timebase>30</timebase>
																<ntsc>TRUE</ntsc>
															</rate>
															<start>229</start>
															<end>238</end>
															<in>0</in>
															<out>9</out>
															<pproTicksIn>0</pproTicksIn>
															<pproTicksOut>76281004800</pproTicksOut>
															<sequence id="sequence-8"/>
															<filter>
																<effect>
																	<name>Basic Motion</name>
																	<effectid>basic</effectid>
																	<effectcategory>motion</effectcategory>
																	<effecttype>motion</effecttype>
																	<mediatype>video</mediatype>
																	<pproBypass>false</pproBypass>
																	<parameter authoringApp="PremierePro">
																		<parameterid>scale</parameterid>
																		<name>Scale</name>
																		<valuemin>0</valuemin>
																		<valuemax>1000</valuemax>
																		<value>100</value>
																	</parameter>
																	<parameter authoringApp="PremierePro">
																		<parameterid>rotation</parameterid>
																		<name>Rotation</name>
																		<valuemin>-8640</valuemin>
																		<valuemax>8640</valuemax>
																		<value>0</value>
																	</parameter>
																	<parameter authoringApp="PremierePro">
																		<parameterid>center</parameterid>
																		<name>Center</name>
																		<value>
																			<horiz>-0.5</horiz>
																			<vert>-0.499394</vert>
																		</value>
																	</parameter>
																	<parameter authoringApp="PremierePro">
																		<parameterid>centerOffset</parameterid>
																		<name>Anchor Point</name>
																		<value>
																			<horiz>0</horiz>
																			<vert>-0.00060606</vert>
																		</value>
																	</parameter>
																	<parameter authoringApp="PremierePro">
																		<parameterid>antiflicker</parameterid>
																		<name>Anti-flicker Filter</name>
																		<valuemin>0.0</valuemin>
																		<valuemax>1.0</valuemax>
																		<value>0</value>
																	</parameter>
																</effect>
															</filter>
															<labels>
																<label2>Iris</label2>
															</labels>
														</clipitem>
														<enabled>TRUE</enabled>
														<locked>FALSE</locked>
													</track>
													<track TL.SQTrackShy="0" TL.SQTrackExpandedHeight="25" TL.SQTrackExpanded="0" MZ.TrackTargeted="0">
														<enabled>TRUE</enabled>
														<locked>FALSE</locked>
													</track>
												</video>
												<audio>
													<numOutputChannels>2</numOutputChannels>
													<format>
														<samplecharacteristics>
															<depth>16</depth>
															<samplerate>32000</samplerate>
														</samplecharacteristics>
													</format>
													<outputs>
														<group>
															<index>1</index>
															<numchannels>1</numchannels>
															<downmix>0</downmix>
															<channel>
																<index>1</index>
															</channel>
														</group>
														<group>
															<index>2</index>
															<numchannels>1</numchannels>
															<downmix>0</downmix>
															<channel>
																<index>2</index>
															</channel>
														</group>
													</outputs>
													<track TL.SQTrackAudioKeyframeStyle="0" TL.SQTrackShy="0" TL.SQTrackExpandedHeight="25" TL.SQTrackExpanded="0" MZ.TrackTargeted="1" PannerCurrentValue="0.5" PannerIsInverted="true" PannerStartKeyframe="-91445760000000000,0.5,0,0,0,0,0,0" PannerName="Balance" currentExplodedTrackIndex="0" totalExplodedTrackCount="2" premiereTrackType="Stereo">
														<clipitem id="clipitem-341" premiereChannelType="stereo">
															<masterclipid>masterclip-203</masterclipid>
															<name>ATM_DRONE_TRANS_G.mov</name>
															<enabled>TRUE</enabled>
															<duration>245</duration>
															<rate>
																<timebase>30</timebase>
																<ntsc>TRUE</ntsc>
															</rate>
															<start>0</start>
															<end>245</end>
															<in>0</in>
															<out>245</out>
															<pproTicksIn>0</pproTicksIn>
															<pproTicksOut>2076538464000</pproTicksOut>
															<file id="file-189"/>
															<sourcetrack>
																<mediatype>audio</mediatype>
																<trackindex>1</trackindex>
															</sourcetrack>
															<filter>
																<effect>
																	<name>Gain</name>
																	<effectid>{61756678, 4761696e, 4b657947}</effectid>
																	<effecttype>filter</effecttype>
																	<mediatype>audio</mediatype>
																	<parameter authoringApp="PremierePro">
																		<parameterid>Gain(dB)</parameterid>
																		<name>Gain(dB)</name>
																		<valuemin>-96</valuemin>
																		<valuemax>96</valuemax>
																		<value>-9</value>
																	</parameter>
																</effect>
															</filter>
																<marker>
																	<comment></comment>
																	<name></name>
																	<in>10</in>
																	<out>-1</out>
																</marker>
																<marker>
																	<comment></comment>
																	<name></name>
																	<in>9</in>
																	<out>-1</out>
																</marker>
															<link>
																<linkclipref>clipitem-341</linkclipref>
																<mediatype>audio</mediatype>
																<trackindex>1</trackindex>
																<clipindex>1</clipindex>
																<groupindex>1</groupindex>
															</link>
															<link>
																<linkclipref>clipitem-342</linkclipref>
																<mediatype>audio</mediatype>
																<trackindex>2</trackindex>
																<clipindex>1</clipindex>
																<groupindex>1</groupindex>
															</link>
															<logginginfo>
																<description></description>
																<scene></scene>
																<shottake></shottake>
																<lognote></lognote>
																<good></good>
																<originalvideofilename></originalvideofilename>
																<originalaudiofilename></originalaudiofilename>
															</logginginfo>
															<colorinfo>
																<lut></lut>
																<lut1></lut1>
																<asc_sop></asc_sop>
																<asc_sat></asc_sat>
																<lut2></lut2>
															</colorinfo>
															<labels>
																<label2>Iris</label2>
															</labels>
														</clipitem>
														<enabled>TRUE</enabled>
														<locked>FALSE</locked>
														<outputchannelindex>1</outputchannelindex>
													</track>
													<track TL.SQTrackAudioKeyframeStyle="0" TL.SQTrackShy="0" TL.SQTrackExpandedHeight="25" TL.SQTrackExpanded="0" MZ.TrackTargeted="1" PannerCurrentValue="0.5" PannerIsInverted="true" PannerStartKeyframe="-91445760000000000,0.5,0,0,0,0,0,0" PannerName="Balance" currentExplodedTrackIndex="1" totalExplodedTrackCount="2" premiereTrackType="Stereo">
														<clipitem id="clipitem-342" premiereChannelType="stereo">
															<masterclipid>masterclip-203</masterclipid>
															<name>ATM_DRONE_TRANS_G.mov</name>
															<enabled>TRUE</enabled>
															<duration>245</duration>
															<rate>
																<timebase>30</timebase>
																<ntsc>TRUE</ntsc>
															</rate>
															<start>0</start>
															<end>245</end>
															<in>0</in>
															<out>245</out>
															<pproTicksIn>0</pproTicksIn>
															<pproTicksOut>2076538464000</pproTicksOut>
															<file id="file-189"/>
															<sourcetrack>
																<mediatype>audio</mediatype>
																<trackindex>2</trackindex>
															</sourcetrack>
															<filter>
																<effect>
																	<name>Gain</name>
																	<effectid>{61756678, 4761696e, 4b657947}</effectid>
																	<effecttype>filter</effecttype>
																	<mediatype>audio</mediatype>
																	<parameter authoringApp="PremierePro">
																		<parameterid>Gain(dB)</parameterid>
																		<name>Gain(dB)</name>
																		<valuemin>-96</valuemin>
																		<valuemax>96</valuemax>
																		<value>-9</value>
																	</parameter>
																</effect>
															</filter>
																<marker>
																	<comment></comment>
																	<name></name>
																	<in>10</in>
																	<out>-1</out>
																</marker>
																<marker>
																	<comment></comment>
																	<name></name>
																	<in>9</in>
																	<out>-1</out>
																</marker>
															<link>
																<linkclipref>clipitem-341</linkclipref>
																<mediatype>audio</mediatype>
																<trackindex>1</trackindex>
																<clipindex>1</clipindex>
																<groupindex>1</groupindex>
															</link>
															<link>
																<linkclipref>clipitem-342</linkclipref>
																<mediatype>audio</mediatype>
																<trackindex>2</trackindex>
																<clipindex>1</clipindex>
																<groupindex>1</groupindex>
															</link>
															<logginginfo>
																<description></description>
																<scene></scene>
																<shottake></shottake>
																<lognote></lognote>
																<good></good>
																<originalvideofilename></originalvideofilename>
																<originalaudiofilename></originalaudiofilename>
															</logginginfo>
															<colorinfo>
																<lut></lut>
																<lut1></lut1>
																<asc_sop></asc_sop>
																<asc_sat></asc_sat>
																<lut2></lut2>
															</colorinfo>
															<labels>
																<label2>Iris</label2>
															</labels>
														</clipitem>
														<enabled>TRUE</enabled>
														<locked>FALSE</locked>
														<outputchannelindex>2</outputchannelindex>
													</track>
													<track TL.SQTrackAudioKeyframeStyle="0" TL.SQTrackShy="0" TL.SQTrackExpandedHeight="25" TL.SQTrackExpanded="0" MZ.TrackTargeted="1" PannerCurrentValue="0.5" PannerIsInverted="true" PannerStartKeyframe="-91445760000000000,0.5,0,0,0,0,0,0" PannerName="Balance" currentExplodedTrackIndex="0" totalExplodedTrackCount="2" premiereTrackType="Stereo">
														<enabled>TRUE</enabled>
														<locked>FALSE</locked>
														<outputchannelindex>1</outputchannelindex>
													</track>
													<track TL.SQTrackAudioKeyframeStyle="0" TL.SQTrackShy="0" TL.SQTrackExpandedHeight="25" TL.SQTrackExpanded="0" MZ.TrackTargeted="1" PannerCurrentValue="0.5" PannerIsInverted="true" PannerStartKeyframe="-91445760000000000,0.5,0,0,0,0,0,0" PannerName="Balance" currentExplodedTrackIndex="1" totalExplodedTrackCount="2" premiereTrackType="Stereo">
														<enabled>TRUE</enabled>
														<locked>FALSE</locked>
														<outputchannelindex>2</outputchannelindex>
													</track>
													<track TL.SQTrackAudioKeyframeStyle="0" TL.SQTrackShy="0" TL.SQTrackExpandedHeight="25" TL.SQTrackExpanded="0" MZ.TrackTargeted="1" PannerCurrentValue="0.5" PannerIsInverted="true" PannerStartKeyframe="-91445760000000000,0.5,0,0,0,0,0,0" PannerName="Balance" currentExplodedTrackIndex="0" totalExplodedTrackCount="2" premiereTrackType="Stereo">
														<enabled>TRUE</enabled>
														<locked>FALSE</locked>
														<outputchannelindex>1</outputchannelindex>
													</track>
													<track TL.SQTrackAudioKeyframeStyle="0" TL.SQTrackShy="0" TL.SQTrackExpandedHeight="25" TL.SQTrackExpanded="0" MZ.TrackTargeted="1" PannerCurrentValue="0.5" PannerIsInverted="true" PannerStartKeyframe="-91445760000000000,0.5,0,0,0,0,0,0" PannerName="Balance" currentExplodedTrackIndex="1" totalExplodedTrackCount="2" premiereTrackType="Stereo">
														<enabled>TRUE</enabled>
														<locked>FALSE</locked>
														<outputchannelindex>2</outputchannelindex>
													</track>
												</audio>
											</media>
											<timecode>
												<rate>
													<timebase>30</timebase>
													<ntsc>TRUE</ntsc>
												</rate>
												<string>00;00;00;00</string>
												<frame>0</frame>
												<displayformat>DF</displayformat>
											</timecode>
												<marker>
													<comment></comment>
													<name></name>
													<in>229</in>
													<out>-1</out>
													<pproColor>4281828977</pproColor>
												</marker>
												<marker>
													<comment></comment>
													<name></name>
													<in>9</in>
													<out>-1</out>
													<pproColor>4281828977</pproColor>
												</marker>
											<logginginfo>
												<description></description>
												<scene></scene>
												<shottake></shottake>
												<lognote></lognote>
												<good></good>
												<originalvideofilename></originalvideofilename>
												<originalaudiofilename></originalaudiofilename>
											</logginginfo>
										</sequence>
											<marker>
												<comment></comment>
												<name></name>
												<in>229</in>
												<out>-1</out>
												<pproColor>4281828977</pproColor>
											</marker>
											<marker>
												<comment></comment>
												<name></name>
												<in>9</in>
												<out>-1</out>
												<pproColor>4281828977</pproColor>
											</marker>
										<link>
											<linkclipref>clipitem-335</linkclipref>
											<mediatype>video</mediatype>
											<trackindex>5</trackindex>
											<clipindex>1</clipindex>
										</link>
										<link>
											<linkclipref>clipitem-355</linkclipref>
											<mediatype>audio</mediatype>
											<trackindex>9</trackindex>
											<clipindex>1</clipindex>
											<groupindex>1</groupindex>
										</link>
										<link>
											<linkclipref>clipitem-357</linkclipref>
											<mediatype>audio</mediatype>
											<trackindex>10</trackindex>
											<clipindex>1</clipindex>
											<groupindex>1</groupindex>
										</link>
										<labels>
											<label2>Tan</label2>
										</labels>
									</clipitem>
									<clipitem id="clipitem-343">
										<masterclipid>masterclip-204</masterclipid>
										<name>Trans H</name>
										<enabled>TRUE</enabled>
										<duration>5697</duration>
										<rate>
											<timebase>30</timebase>
											<ntsc>TRUE</ntsc>
										</rate>
										<start>5452</start>
										<end>5697</end>
										<in>0</in>
										<out>245</out>
										<pproTicksIn>0</pproTicksIn>
										<pproTicksOut>2076538464000</pproTicksOut>
										<sequence id="sequence-18" TL.SQAudioVisibleBase="0" TL.SQVideoVisibleBase="0" TL.SQVisibleBaseTime="1825594136437" TL.SQAVDividerPosition="0.5" TL.SQHideShyTracks="0" TL.SQHeaderWidth="236" Monitor.ProgramZoomOut="2076538464000" Monitor.ProgramZoomIn="0" TL.SQTimePerPixel="0.0012530256908649411" MZ.EditLine="1847695449600" MZ.Sequence.PreviewFrameSizeHeight="1080" MZ.Sequence.PreviewFrameSizeWidth="1920" MZ.Sequence.AudioTimeDisplayFormat="200" MZ.Sequence.PreviewRenderingClassID="1297106761" MZ.Sequence.PreviewRenderingPresetCodec="1297107278" MZ.Sequence.PreviewRenderingPresetPath="EncoderPresets/SequencePreview/795454d9-d3c2-429d-9474-923ab13b7018/I-Frame Only MPEG.epr" MZ.Sequence.PreviewUseMaxRenderQuality="false" MZ.Sequence.PreviewUseMaxBitDepth="false" MZ.Sequence.EditingModeGUID="795454d9-d3c2-429d-9474-923ab13b7018" MZ.Sequence.VideoTimeDisplayFormat="102" MZ.WorkOutPoint="15239249625600" MZ.WorkInPoint="0">
											<duration>245</duration>
											<rate>
												<timebase>30</timebase>
												<ntsc>TRUE</ntsc>
											</rate>
											<name>Trans H</name>
											<media>
												<video>
													<format>
														<samplecharacteristics>
															<rate>
																<timebase>30</timebase>
																<ntsc>TRUE</ntsc>
															</rate>
															<codec>
																<name>Apple ProRes 422</name>
																<appspecificdata>
																	<appname>Final Cut Pro</appname>
																	<appmanufacturer>Apple Inc.</appmanufacturer>
																	<appversion>7.0</appversion>
																	<data>
																		<qtcodec>
																			<codecname>Apple ProRes 422</codecname>
																			<codectypename>Apple ProRes 422</codectypename>
																			<codectypecode>apcn</codectypecode>
																			<codecvendorcode>appl</codecvendorcode>
																			<spatialquality>1024</spatialquality>
																			<temporalquality>0</temporalquality>
																			<keyframerate>0</keyframerate>
																			<datarate>0</datarate>
																		</qtcodec>
																	</data>
																</appspecificdata>
															</codec>
															<width>1920</width>
															<height>1080</height>
															<anamorphic>FALSE</anamorphic>
															<pixelaspectratio>square</pixelaspectratio>
															<fielddominance>none</fielddominance>
															<colordepth>24</colordepth>
														</samplecharacteristics>
													</format>
													<track TL.SQTrackShy="0" TL.SQTrackExpandedHeight="25" TL.SQTrackExpanded="0" MZ.TrackTargeted="1">
														<clipitem id="clipitem-344">
															<masterclipid>masterclip-205</masterclipid>
															<name>ATM_DRONE_TRANS_H.mov</name>
															<enabled>TRUE</enabled>
															<duration>245</duration>
															<rate>
																<timebase>30</timebase>
																<ntsc>TRUE</ntsc>
															</rate>
															<start>9</start>
															<end>233</end>
															<in>12</in>
															<out>236</out>
															<pproTicksIn>101708006400</pproTicksIn>
															<pproTicksOut>2000257459200</pproTicksOut>
															<alphatype>straight</alphatype>
															<pixelaspectratio>square</pixelaspectratio>
															<anamorphic>FALSE</anamorphic>
															<file id="file-190">
																<name>ATM_DRONE_TRANS_H.mov</name>
																<pathurl>file://localhost/Volumes/T7/DRONE_08.18.2023/4_Project%20Files/Drone%202023%20Master%20Assets/02_Transitions/DRONE%20transitions%20(30fps)/ATM_DRONE_TRANS_H.mov</pathurl>
																<rate>
																	<timebase>30</timebase>
																	<ntsc>TRUE</ntsc>
																</rate>
																<duration>245</duration>
																<timecode>
																	<rate>
																		<timebase>30</timebase>
																		<ntsc>TRUE</ntsc>
																	</rate>
																	<string>00;00;33;00</string>
																	<frame>990</frame>
																	<displayformat>DF</displayformat>
																</timecode>
																<media>
																	<video>
																		<samplecharacteristics>
																			<rate>
																				<timebase>30</timebase>
																				<ntsc>TRUE</ntsc>
																			</rate>
																			<width>1920</width>
																			<height>1080</height>
																			<anamorphic>FALSE</anamorphic>
																			<pixelaspectratio>square</pixelaspectratio>
																			<fielddominance>none</fielddominance>
																		</samplecharacteristics>
																	</video>
																	<audio>
																		<samplecharacteristics>
																			<depth>16</depth>
																			<samplerate>48000</samplerate>
																		</samplecharacteristics>
																		<channelcount>2</channelcount>
																	</audio>
																</media>
															</file>
															<logginginfo>
																<description></description>
																<scene></scene>
																<shottake></shottake>
																<lognote></lognote>
																<good></good>
																<originalvideofilename></originalvideofilename>
																<originalaudiofilename></originalaudiofilename>
															</logginginfo>
															<colorinfo>
																<lut></lut>
																<lut1></lut1>
																<asc_sop></asc_sop>
																<asc_sat></asc_sat>
																<lut2></lut2>
															</colorinfo>
															<labels>
																<label2>Iris</label2>
															</labels>
														</clipitem>
														<enabled>TRUE</enabled>
														<locked>FALSE</locked>
													</track>
													<track TL.SQTrackShy="0" TL.SQTrackExpandedHeight="25" TL.SQTrackExpanded="0" MZ.TrackTargeted="0">
														<clipitem id="clipitem-345">
															<masterclipid>masterclip-157</masterclipid>
															<name>02 Zoom In - Quick / Transform Out</name>
															<enabled>TRUE</enabled>
															<duration>1294705</duration>
															<rate>
																<timebase>30</timebase>
																<ntsc>TRUE</ntsc>
															</rate>
															<start>0</start>
															<end>9</end>
															<in>0</in>
															<out>9</out>
															<pproTicksIn>0</pproTicksIn>
															<pproTicksOut>76281004800</pproTicksOut>
															<sequence id="sequence-7"/>
																<marker>
																	<comment></comment>
																	<name></name>
																	<in>20</in>
																	<out>-1</out>
																</marker>
															<labels>
																<label2>Iris</label2>
															</labels>
														</clipitem>
														<clipitem id="clipitem-346">
															<masterclipid>masterclip-159</masterclipid>
															<name>02 Zoom In - Quick / Transform In</name>
															<enabled>TRUE</enabled>
															<duration>1294705</duration>
															<rate>
																<timebase>30</timebase>
																<ntsc>TRUE</ntsc>
															</rate>
															<start>9</start>
															<end>17</end>
															<in>0</in>
															<out>8</out>
															<pproTicksIn>0</pproTicksIn>
															<pproTicksOut>67805337600</pproTicksOut>
															<sequence id="sequence-8"/>
															<labels>
																<label2>Iris</label2>
															</labels>
														</clipitem>
														<clipitem id="clipitem-347">
															<masterclipid>masterclip-157</masterclipid>
															<name>03 Zoom Out - Quick / Transform Out</name>
															<enabled>TRUE</enabled>
															<duration>1294705</duration>
															<rate>
																<timebase>30</timebase>
																<ntsc>TRUE</ntsc>
															</rate>
															<start>224</start>
															<end>233</end>
															<in>0</in>
															<out>9</out>
															<pproTicksIn>0</pproTicksIn>
															<pproTicksOut>76281004800</pproTicksOut>
															<sequence id="sequence-7"/>
																<marker>
																	<comment></comment>
																	<name></name>
																	<in>20</in>
																	<out>-1</out>
																</marker>
															<labels>
																<label2>Iris</label2>
															</labels>
														</clipitem>
														<clipitem id="clipitem-348">
															<masterclipid>masterclip-159</masterclipid>
															<name>03 Zoom Out - Quick / Transform In</name>
															<enabled>TRUE</enabled>
															<duration>1294705</duration>
															<rate>
																<timebase>30</timebase>
																<ntsc>TRUE</ntsc>
															</rate>
															<start>233</start>
															<end>242</end>
															<in>0</in>
															<out>9</out>
															<pproTicksIn>0</pproTicksIn>
															<pproTicksOut>76281004800</pproTicksOut>
															<sequence id="sequence-8"/>
															<filter>
																<effect>
																	<name>Basic Motion</name>
																	<effectid>basic</effectid>
																	<effectcategory>motion</effectcategory>
																	<effecttype>motion</effecttype>
																	<mediatype>video</mediatype>
																	<pproBypass>false</pproBypass>
																	<parameter authoringApp="PremierePro">
																		<parameterid>scale</parameterid>
																		<name>Scale</name>
																		<valuemin>0</valuemin>
																		<valuemax>1000</valuemax>
																		<value>100</value>
																	</parameter>
																	<parameter authoringApp="PremierePro">
																		<parameterid>rotation</parameterid>
																		<name>Rotation</name>
																		<valuemin>-8640</valuemin>
																		<valuemax>8640</valuemax>
																		<value>0</value>
																	</parameter>
																	<parameter authoringApp="PremierePro">
																		<parameterid>center</parameterid>
																		<name>Center</name>
																		<value>
																			<horiz>-0.5</horiz>
																			<vert>-0.499394</vert>
																		</value>
																	</parameter>
																	<parameter authoringApp="PremierePro">
																		<parameterid>centerOffset</parameterid>
																		<name>Anchor Point</name>
																		<value>
																			<horiz>0</horiz>
																			<vert>-0.00060606</vert>
																		</value>
																	</parameter>
																	<parameter authoringApp="PremierePro">
																		<parameterid>antiflicker</parameterid>
																		<name>Anti-flicker Filter</name>
																		<valuemin>0.0</valuemin>
																		<valuemax>1.0</valuemax>
																		<value>0</value>
																	</parameter>
																</effect>
															</filter>
															<labels>
																<label2>Iris</label2>
															</labels>
														</clipitem>
														<enabled>TRUE</enabled>
														<locked>FALSE</locked>
													</track>
													<track TL.SQTrackShy="0" TL.SQTrackExpandedHeight="25" TL.SQTrackExpanded="0" MZ.TrackTargeted="0">
														<enabled>TRUE</enabled>
														<locked>FALSE</locked>
													</track>
												</video>
												<audio>
													<numOutputChannels>2</numOutputChannels>
													<format>
														<samplecharacteristics>
															<depth>16</depth>
															<samplerate>32000</samplerate>
														</samplecharacteristics>
													</format>
													<outputs>
														<group>
															<index>1</index>
															<numchannels>1</numchannels>
															<downmix>0</downmix>
															<channel>
																<index>1</index>
															</channel>
														</group>
														<group>
															<index>2</index>
															<numchannels>1</numchannels>
															<downmix>0</downmix>
															<channel>
																<index>2</index>
															</channel>
														</group>
													</outputs>
													<track TL.SQTrackAudioKeyframeStyle="0" TL.SQTrackShy="0" TL.SQTrackExpandedHeight="25" TL.SQTrackExpanded="0" MZ.TrackTargeted="1" PannerCurrentValue="0.5" PannerIsInverted="true" PannerStartKeyframe="-91445760000000000,0.5,0,0,0,0,0,0" PannerName="Balance" currentExplodedTrackIndex="0" totalExplodedTrackCount="2" premiereTrackType="Stereo">
														<clipitem id="clipitem-349" premiereChannelType="stereo">
															<masterclipid>masterclip-205</masterclipid>
															<name>ATM_DRONE_TRANS_H.mov</name>
															<enabled>TRUE</enabled>
															<duration>245</duration>
															<rate>
																<timebase>30</timebase>
																<ntsc>TRUE</ntsc>
															</rate>
															<start>0</start>
															<end>245</end>
															<in>0</in>
															<out>245</out>
															<pproTicksIn>0</pproTicksIn>
															<pproTicksOut>2076538464000</pproTicksOut>
															<file id="file-190"/>
															<sourcetrack>
																<mediatype>audio</mediatype>
																<trackindex>1</trackindex>
															</sourcetrack>
															<filter>
																<effect>
																	<name>Gain</name>
																	<effectid>{61756678, 4761696e, 4b657947}</effectid>
																	<effecttype>filter</effecttype>
																	<mediatype>audio</mediatype>
																	<parameter authoringApp="PremierePro">
																		<parameterid>Gain(dB)</parameterid>
																		<name>Gain(dB)</name>
																		<valuemin>-96</valuemin>
																		<valuemax>96</valuemax>
																		<value>-9</value>
																	</parameter>
																</effect>
															</filter>
															<link>
																<linkclipref>clipitem-349</linkclipref>
																<mediatype>audio</mediatype>
																<trackindex>1</trackindex>
																<clipindex>1</clipindex>
																<groupindex>1</groupindex>
															</link>
															<link>
																<linkclipref>clipitem-350</linkclipref>
																<mediatype>audio</mediatype>
																<trackindex>2</trackindex>
																<clipindex>1</clipindex>
																<groupindex>1</groupindex>
															</link>
															<logginginfo>
																<description></description>
																<scene></scene>
																<shottake></shottake>
																<lognote></lognote>
																<good></good>
																<originalvideofilename></originalvideofilename>
																<originalaudiofilename></originalaudiofilename>
															</logginginfo>
															<colorinfo>
																<lut></lut>
																<lut1></lut1>
																<asc_sop></asc_sop>
																<asc_sat></asc_sat>
																<lut2></lut2>
															</colorinfo>
															<labels>
																<label2>Iris</label2>
															</labels>
														</clipitem>
														<enabled>TRUE</enabled>
														<locked>FALSE</locked>
														<outputchannelindex>1</outputchannelindex>
													</track>
													<track TL.SQTrackAudioKeyframeStyle="0" TL.SQTrackShy="0" TL.SQTrackExpandedHeight="25" TL.SQTrackExpanded="0" MZ.TrackTargeted="1" PannerCurrentValue="0.5" PannerIsInverted="true" PannerStartKeyframe="-91445760000000000,0.5,0,0,0,0,0,0" PannerName="Balance" currentExplodedTrackIndex="1" totalExplodedTrackCount="2" premiereTrackType="Stereo">
														<clipitem id="clipitem-350" premiereChannelType="stereo">
															<masterclipid>masterclip-205</masterclipid>
															<name>ATM_DRONE_TRANS_H.mov</name>
															<enabled>TRUE</enabled>
															<duration>245</duration>
															<rate>
																<timebase>30</timebase>
																<ntsc>TRUE</ntsc>
															</rate>
															<start>0</start>
															<end>245</end>
															<in>0</in>
															<out>245</out>
															<pproTicksIn>0</pproTicksIn>
															<pproTicksOut>2076538464000</pproTicksOut>
															<file id="file-190"/>
															<sourcetrack>
																<mediatype>audio</mediatype>
																<trackindex>2</trackindex>
															</sourcetrack>
															<filter>
																<effect>
																	<name>Gain</name>
																	<effectid>{61756678, 4761696e, 4b657947}</effectid>
																	<effecttype>filter</effecttype>
																	<mediatype>audio</mediatype>
																	<parameter authoringApp="PremierePro">
																		<parameterid>Gain(dB)</parameterid>
																		<name>Gain(dB)</name>
																		<valuemin>-96</valuemin>
																		<valuemax>96</valuemax>
																		<value>-9</value>
																	</parameter>
																</effect>
															</filter>
															<link>
																<linkclipref>clipitem-349</linkclipref>
																<mediatype>audio</mediatype>
																<trackindex>1</trackindex>
																<clipindex>1</clipindex>
																<groupindex>1</groupindex>
															</link>
															<link>
																<linkclipref>clipitem-350</linkclipref>
																<mediatype>audio</mediatype>
																<trackindex>2</trackindex>
																<clipindex>1</clipindex>
																<groupindex>1</groupindex>
															</link>
															<logginginfo>
																<description></description>
																<scene></scene>
																<shottake></shottake>
																<lognote></lognote>
																<good></good>
																<originalvideofilename></originalvideofilename>
																<originalaudiofilename></originalaudiofilename>
															</logginginfo>
															<colorinfo>
																<lut></lut>
																<lut1></lut1>
																<asc_sop></asc_sop>
																<asc_sat></asc_sat>
																<lut2></lut2>
															</colorinfo>
															<labels>
																<label2>Iris</label2>
															</labels>
														</clipitem>
														<enabled>TRUE</enabled>
														<locked>FALSE</locked>
														<outputchannelindex>2</outputchannelindex>
													</track>
													<track TL.SQTrackAudioKeyframeStyle="0" TL.SQTrackShy="0" TL.SQTrackExpandedHeight="25" TL.SQTrackExpanded="0" MZ.TrackTargeted="1" PannerCurrentValue="0.5" PannerIsInverted="true" PannerStartKeyframe="-91445760000000000,0.5,0,0,0,0,0,0" PannerName="Balance" currentExplodedTrackIndex="0" totalExplodedTrackCount="2" premiereTrackType="Stereo">
														<enabled>TRUE</enabled>
														<locked>FALSE</locked>
														<outputchannelindex>1</outputchannelindex>
													</track>
													<track TL.SQTrackAudioKeyframeStyle="0" TL.SQTrackShy="0" TL.SQTrackExpandedHeight="25" TL.SQTrackExpanded="0" MZ.TrackTargeted="1" PannerCurrentValue="0.5" PannerIsInverted="true" PannerStartKeyframe="-91445760000000000,0.5,0,0,0,0,0,0" PannerName="Balance" currentExplodedTrackIndex="1" totalExplodedTrackCount="2" premiereTrackType="Stereo">
														<enabled>TRUE</enabled>
														<locked>FALSE</locked>
														<outputchannelindex>2</outputchannelindex>
													</track>
													<track TL.SQTrackAudioKeyframeStyle="0" TL.SQTrackShy="0" TL.SQTrackExpandedHeight="25" TL.SQTrackExpanded="0" MZ.TrackTargeted="1" PannerCurrentValue="0.5" PannerIsInverted="true" PannerStartKeyframe="-91445760000000000,0.5,0,0,0,0,0,0" PannerName="Balance" currentExplodedTrackIndex="0" totalExplodedTrackCount="2" premiereTrackType="Stereo">
														<enabled>TRUE</enabled>
														<locked>FALSE</locked>
														<outputchannelindex>1</outputchannelindex>
													</track>
													<track TL.SQTrackAudioKeyframeStyle="0" TL.SQTrackShy="0" TL.SQTrackExpandedHeight="25" TL.SQTrackExpanded="0" MZ.TrackTargeted="1" PannerCurrentValue="0.5" PannerIsInverted="true" PannerStartKeyframe="-91445760000000000,0.5,0,0,0,0,0,0" PannerName="Balance" currentExplodedTrackIndex="1" totalExplodedTrackCount="2" premiereTrackType="Stereo">
														<enabled>TRUE</enabled>
														<locked>FALSE</locked>
														<outputchannelindex>2</outputchannelindex>
													</track>
												</audio>
											</media>
											<timecode>
												<rate>
													<timebase>30</timebase>
													<ntsc>TRUE</ntsc>
												</rate>
												<string>00;00;00;00</string>
												<frame>0</frame>
												<displayformat>DF</displayformat>
											</timecode>
												<marker>
													<comment></comment>
													<name></name>
													<in>233</in>
													<out>-1</out>
													<pproColor>4281828977</pproColor>
												</marker>
												<marker>
													<comment></comment>
													<name></name>
													<in>9</in>
													<out>-1</out>
													<pproColor>4281828977</pproColor>
												</marker>
											<logginginfo>
												<description></description>
												<scene></scene>
												<shottake></shottake>
												<lognote></lognote>
												<good></good>
												<originalvideofilename></originalvideofilename>
												<originalaudiofilename></originalaudiofilename>
											</logginginfo>
										</sequence>
											<marker>
												<comment></comment>
												<name></name>
												<in>233</in>
												<out>-1</out>
												<pproColor>4281828977</pproColor>
											</marker>
											<marker>
												<comment></comment>
												<name></name>
												<in>9</in>
												<out>-1</out>
												<pproColor>4281828977</pproColor>
											</marker>
										<link>
											<linkclipref>clipitem-343</linkclipref>
											<mediatype>video</mediatype>
											<trackindex>5</trackindex>
											<clipindex>2</clipindex>
										</link>
										<link>
											<linkclipref>clipitem-356</linkclipref>
											<mediatype>audio</mediatype>
											<trackindex>9</trackindex>
											<clipindex>2</clipindex>
											<groupindex>1</groupindex>
										</link>
										<link>
											<linkclipref>clipitem-358</linkclipref>
											<mediatype>audio</mediatype>
											<trackindex>10</trackindex>
											<clipindex>2</clipindex>
											<groupindex>1</groupindex>
										</link>
										<labels>
											<label2>Tan</label2>
										</labels>
									</clipitem>
									<enabled>TRUE</enabled>
									<locked>FALSE</locked>
								</track>
							</video>
							<audio>
								<numOutputChannels>2</numOutputChannels>
								<format>
									<samplecharacteristics>
										<depth>16</depth>
										<samplerate>32000</samplerate>
									</samplecharacteristics>
								</format>
								<outputs>
									<group>
										<index>1</index>
										<numchannels>1</numchannels>
										<downmix>0</downmix>
										<channel>
											<index>1</index>
										</channel>
									</group>
									<group>
										<index>2</index>
										<numchannels>1</numchannels>
										<downmix>0</downmix>
										<channel>
											<index>2</index>
										</channel>
									</group>
								</outputs>
								<track TL.SQTrackAudioKeyframeStyle="0" TL.SQTrackShy="0" TL.SQTrackExpandedHeight="25" TL.SQTrackExpanded="0" MZ.TrackTargeted="1" PannerCurrentValue="0.5" PannerIsInverted="true" PannerStartKeyframe="-91445760000000000,0.5,0,0,0,0,0,0" PannerName="Balance" currentExplodedTrackIndex="0" totalExplodedTrackCount="2" premiereTrackType="Stereo">
									<clipitem id="clipitem-351" premiereChannelType="stereo">
										<masterclipid>masterclip-185</masterclipid>
										<name>DRONE_Coastal Town Ireland_1</name>
										<enabled>TRUE</enabled>
										<duration>4491</duration>
										<rate>
											<timebase>30</timebase>
											<ntsc>TRUE</ntsc>
										</rate>
										<start>0</start>
										<end>2674</end>
										<in>0</in>
										<out>2674</out>
										<pproTicksIn>0</pproTicksIn>
										<pproTicksOut>22663934092800</pproTicksOut>
										<sequence id="sequence-15"/>
										<sourcetrack>
											<mediatype>audio</mediatype>
											<trackindex>0</trackindex>
										</sourcetrack>
										<link>
											<linkclipref>clipitem-278</linkclipref>
											<mediatype>video</mediatype>
											<trackindex>1</trackindex>
											<clipindex>1</clipindex>
										</link>
										<link>
											<linkclipref>clipitem-351</linkclipref>
											<mediatype>audio</mediatype>
											<trackindex>1</trackindex>
											<clipindex>1</clipindex>
											<groupindex>1</groupindex>
										</link>
										<link>
											<linkclipref>clipitem-353</linkclipref>
											<mediatype>audio</mediatype>
											<trackindex>2</trackindex>
											<clipindex>1</clipindex>
											<groupindex>1</groupindex>
										</link>
										<labels>
											<label2>Forest</label2>
										</labels>
									</clipitem>
									<clipitem id="clipitem-352" premiereChannelType="stereo">
										<masterclipid>masterclip-194</masterclipid>
										<name>DRONE_Lapland &amp; Lofoten_2</name>
										<enabled>TRUE</enabled>
										<duration>14871</duration>
										<rate>
											<timebase>30</timebase>
											<ntsc>TRUE</ntsc>
										</rate>
										<start>2894</start>
										<end>-1</end>
										<in>0</in>
										<out>2575</out>
										<pproTicksIn>0</pproTicksIn>
										<pproTicksOut>21824843040000</pproTicksOut>
										<sequence id="sequence-16"/>
										<sourcetrack>
											<mediatype>audio</mediatype>
											<trackindex>0</trackindex>
										</sourcetrack>
										<link>
											<linkclipref>clipitem-288</linkclipref>
											<mediatype>video</mediatype>
											<trackindex>1</trackindex>
											<clipindex>2</clipindex>
										</link>
										<link>
											<linkclipref>clipitem-352</linkclipref>
											<mediatype>audio</mediatype>
											<trackindex>1</trackindex>
											<clipindex>2</clipindex>
											<groupindex>1</groupindex>
										</link>
										<link>
											<linkclipref>clipitem-354</linkclipref>
											<mediatype>audio</mediatype>
											<trackindex>2</trackindex>
											<clipindex>2</clipindex>
											<groupindex>1</groupindex>
										</link>
										<labels>
											<label2>Forest</label2>
										</labels>
									</clipitem>
									<transitionitem>
										<start>5443</start>
										<end>5469</end>
										<pproTicksIn>46133056569600</pproTicksIn>
										<pproTicksOut>46353423916800</pproTicksOut>
										<alignment>end-black</alignment>
										<cutPointTicks>220367347200</cutPointTicks>
										<rate>
											<timebase>30</timebase>
											<ntsc>TRUE</ntsc>
										</rate>
										<effect>
											<name>Cross Fade ( 0dB)</name>
											<effectid>KGAudioTransCrossFade0dB</effectid>
											<effecttype>transition</effecttype>
											<mediatype>audio</mediatype>
											<wipecode>0</wipecode>
											<wipeaccuracy>100</wipeaccuracy>
											<startratio>0</startratio>
											<endratio>1</endratio>
											<reverse>FALSE</reverse>
										</effect>
									</transitionitem>
									<enabled>TRUE</enabled>
									<locked>FALSE</locked>
									<outputchannelindex>1</outputchannelindex>
								</track>
								<track TL.SQTrackAudioKeyframeStyle="0" TL.SQTrackShy="0" TL.SQTrackExpandedHeight="25" TL.SQTrackExpanded="0" MZ.TrackTargeted="1" PannerCurrentValue="0.5" PannerIsInverted="true" PannerStartKeyframe="-91445760000000000,0.5,0,0,0,0,0,0" PannerName="Balance" currentExplodedTrackIndex="1" totalExplodedTrackCount="2" premiereTrackType="Stereo">
									<clipitem id="clipitem-353" premiereChannelType="stereo">
										<masterclipid>masterclip-185</masterclipid>
										<name>DRONE_Coastal Town Ireland_1</name>
										<enabled>TRUE</enabled>
										<duration>4491</duration>
										<rate>
											<timebase>30</timebase>
											<ntsc>TRUE</ntsc>
										</rate>
										<start>0</start>
										<end>2674</end>
										<in>0</in>
										<out>2674</out>
										<pproTicksIn>0</pproTicksIn>
										<pproTicksOut>22663934092800</pproTicksOut>
										<sequence id="sequence-15"/>
										<sourcetrack>
											<mediatype>audio</mediatype>
											<trackindex>1</trackindex>
										</sourcetrack>
										<link>
											<linkclipref>clipitem-278</linkclipref>
											<mediatype>video</mediatype>
											<trackindex>1</trackindex>
											<clipindex>1</clipindex>
										</link>
										<link>
											<linkclipref>clipitem-351</linkclipref>
											<mediatype>audio</mediatype>
											<trackindex>1</trackindex>
											<clipindex>1</clipindex>
											<groupindex>1</groupindex>
										</link>
										<link>
											<linkclipref>clipitem-353</linkclipref>
											<mediatype>audio</mediatype>
											<trackindex>2</trackindex>
											<clipindex>1</clipindex>
											<groupindex>1</groupindex>
										</link>
										<labels>
											<label2>Forest</label2>
										</labels>
									</clipitem>
									<clipitem id="clipitem-354" premiereChannelType="stereo">
										<masterclipid>masterclip-194</masterclipid>
										<name>DRONE_Lapland &amp; Lofoten_2</name>
										<enabled>TRUE</enabled>
										<duration>14871</duration>
										<rate>
											<timebase>30</timebase>
											<ntsc>TRUE</ntsc>
										</rate>
										<start>2894</start>
										<end>-1</end>
										<in>0</in>
										<out>2575</out>
										<pproTicksIn>0</pproTicksIn>
										<pproTicksOut>21824843040000</pproTicksOut>
										<sequence id="sequence-16"/>
										<sourcetrack>
											<mediatype>audio</mediatype>
											<trackindex>1</trackindex>
										</sourcetrack>
										<link>
											<linkclipref>clipitem-288</linkclipref>
											<mediatype>video</mediatype>
											<trackindex>1</trackindex>
											<clipindex>2</clipindex>
										</link>
										<link>
											<linkclipref>clipitem-352</linkclipref>
											<mediatype>audio</mediatype>
											<trackindex>1</trackindex>
											<clipindex>2</clipindex>
											<groupindex>1</groupindex>
										</link>
										<link>
											<linkclipref>clipitem-354</linkclipref>
											<mediatype>audio</mediatype>
											<trackindex>2</trackindex>
											<clipindex>2</clipindex>
											<groupindex>1</groupindex>
										</link>
										<labels>
											<label2>Forest</label2>
										</labels>
									</clipitem>
									<transitionitem>
										<start>5443</start>
										<end>5469</end>
										<pproTicksIn>46133056569600</pproTicksIn>
										<pproTicksOut>46353423916800</pproTicksOut>
										<alignment>end-black</alignment>
										<cutPointTicks>220367347200</cutPointTicks>
										<rate>
											<timebase>30</timebase>
											<ntsc>TRUE</ntsc>
										</rate>
										<effect>
											<name>Cross Fade ( 0dB)</name>
											<effectid>KGAudioTransCrossFade0dB</effectid>
											<effecttype>transition</effecttype>
											<mediatype>audio</mediatype>
											<wipecode>0</wipecode>
											<wipeaccuracy>100</wipeaccuracy>
											<startratio>0</startratio>
											<endratio>1</endratio>
											<reverse>FALSE</reverse>
										</effect>
									</transitionitem>
									<enabled>TRUE</enabled>
									<locked>FALSE</locked>
									<outputchannelindex>2</outputchannelindex>
								</track>
								<track TL.SQTrackAudioKeyframeStyle="0" TL.SQTrackShy="0" TL.SQTrackExpandedHeight="25" TL.SQTrackExpanded="0" MZ.TrackTargeted="1" PannerCurrentValue="0.5" PannerIsInverted="true" PannerStartKeyframe="-91445760000000000,0.5,0,0,0,0,0,0" PannerName="Balance" currentExplodedTrackIndex="0" totalExplodedTrackCount="2" premiereTrackType="Stereo">
									<enabled>TRUE</enabled>
									<locked>FALSE</locked>
									<outputchannelindex>1</outputchannelindex>
								</track>
								<track TL.SQTrackAudioKeyframeStyle="0" TL.SQTrackShy="0" TL.SQTrackExpandedHeight="25" TL.SQTrackExpanded="0" MZ.TrackTargeted="1" PannerCurrentValue="0.5" PannerIsInverted="true" PannerStartKeyframe="-91445760000000000,0.5,0,0,0,0,0,0" PannerName="Balance" currentExplodedTrackIndex="1" totalExplodedTrackCount="2" premiereTrackType="Stereo">
									<enabled>TRUE</enabled>
									<locked>FALSE</locked>
									<outputchannelindex>2</outputchannelindex>
								</track>
								<track TL.SQTrackAudioKeyframeStyle="0" TL.SQTrackShy="0" TL.SQTrackExpandedHeight="25" TL.SQTrackExpanded="0" MZ.TrackTargeted="1" PannerCurrentValue="0.5" PannerIsInverted="true" PannerStartKeyframe="-91445760000000000,0.5,0,0,0,0,0,0" PannerName="Balance" currentExplodedTrackIndex="0" totalExplodedTrackCount="2" premiereTrackType="Stereo">
									<enabled>TRUE</enabled>
									<locked>FALSE</locked>
									<outputchannelindex>1</outputchannelindex>
								</track>
								<track TL.SQTrackAudioKeyframeStyle="0" TL.SQTrackShy="0" TL.SQTrackExpandedHeight="25" TL.SQTrackExpanded="0" MZ.TrackTargeted="1" PannerCurrentValue="0.5" PannerIsInverted="true" PannerStartKeyframe="-91445760000000000,0.5,0,0,0,0,0,0" PannerName="Balance" currentExplodedTrackIndex="1" totalExplodedTrackCount="2" premiereTrackType="Stereo">
									<enabled>TRUE</enabled>
									<locked>FALSE</locked>
									<outputchannelindex>2</outputchannelindex>
								</track>
								<track TL.SQTrackAudioKeyframeStyle="0" TL.SQTrackShy="0" TL.SQTrackExpandedHeight="25" TL.SQTrackExpanded="0" MZ.TrackTargeted="0" PannerCurrentValue="0.5" PannerIsInverted="true" PannerStartKeyframe="-91445760000000000,0.5,0,0,0,0,0,0" PannerName="Balance" currentExplodedTrackIndex="0" totalExplodedTrackCount="2" premiereTrackType="Stereo">
									<enabled>TRUE</enabled>
									<locked>FALSE</locked>
									<outputchannelindex>1</outputchannelindex>
								</track>
								<track TL.SQTrackAudioKeyframeStyle="0" TL.SQTrackShy="0" TL.SQTrackExpandedHeight="25" TL.SQTrackExpanded="0" MZ.TrackTargeted="0" PannerCurrentValue="0.5" PannerIsInverted="true" PannerStartKeyframe="-91445760000000000,0.5,0,0,0,0,0,0" PannerName="Balance" currentExplodedTrackIndex="1" totalExplodedTrackCount="2" premiereTrackType="Stereo">
									<enabled>TRUE</enabled>
									<locked>FALSE</locked>
									<outputchannelindex>2</outputchannelindex>
								</track>
								<track TL.SQTrackAudioKeyframeStyle="0" TL.SQTrackShy="0" TL.SQTrackExpandedHeight="25" TL.SQTrackExpanded="0" MZ.TrackTargeted="0" PannerCurrentValue="0.5" PannerIsInverted="true" PannerStartKeyframe="-91445760000000000,0.5,0,0,0,0,0,0" PannerName="Balance" currentExplodedTrackIndex="0" totalExplodedTrackCount="2" premiereTrackType="Stereo">
									<clipitem id="clipitem-355" premiereChannelType="stereo">
										<masterclipid>masterclip-202</masterclipid>
										<name>Trans G</name>
										<enabled>TRUE</enabled>
										<duration>5697</duration>
										<rate>
											<timebase>30</timebase>
											<ntsc>TRUE</ntsc>
										</rate>
										<start>2665</start>
										<end>2910</end>
										<in>0</in>
										<out>245</out>
										<pproTicksIn>0</pproTicksIn>
										<pproTicksOut>2076538464000</pproTicksOut>
										<sequence id="sequence-17"/>
										<sourcetrack>
											<mediatype>audio</mediatype>
											<trackindex>0</trackindex>
										</sourcetrack>
											<marker>
												<comment></comment>
												<name></name>
												<in>229</in>
												<out>-1</out>
												<pproColor>4281828977</pproColor>
											</marker>
											<marker>
												<comment></comment>
												<name></name>
												<in>9</in>
												<out>-1</out>
												<pproColor>4281828977</pproColor>
											</marker>
										<link>
											<linkclipref>clipitem-335</linkclipref>
											<mediatype>video</mediatype>
											<trackindex>5</trackindex>
											<clipindex>1</clipindex>
										</link>
										<link>
											<linkclipref>clipitem-355</linkclipref>
											<mediatype>audio</mediatype>
											<trackindex>9</trackindex>
											<clipindex>1</clipindex>
											<groupindex>1</groupindex>
										</link>
										<link>
											<linkclipref>clipitem-357</linkclipref>
											<mediatype>audio</mediatype>
											<trackindex>10</trackindex>
											<clipindex>1</clipindex>
											<groupindex>1</groupindex>
										</link>
										<labels>
											<label2>Tan</label2>
										</labels>
									</clipitem>
									<clipitem id="clipitem-356" premiereChannelType="stereo">
										<masterclipid>masterclip-204</masterclipid>
										<name>Trans H</name>
										<enabled>TRUE</enabled>
										<duration>5697</duration>
										<rate>
											<timebase>30</timebase>
											<ntsc>TRUE</ntsc>
										</rate>
										<start>5452</start>
										<end>5697</end>
										<in>0</in>
										<out>245</out>
										<pproTicksIn>0</pproTicksIn>
										<pproTicksOut>2076538464000</pproTicksOut>
										<sequence id="sequence-18"/>
										<sourcetrack>
											<mediatype>audio</mediatype>
											<trackindex>0</trackindex>
										</sourcetrack>
											<marker>
												<comment></comment>
												<name></name>
												<in>233</in>
												<out>-1</out>
												<pproColor>4281828977</pproColor>
											</marker>
											<marker>
												<comment></comment>
												<name></name>
												<in>9</in>
												<out>-1</out>
												<pproColor>4281828977</pproColor>
											</marker>
										<link>
											<linkclipref>clipitem-343</linkclipref>
											<mediatype>video</mediatype>
											<trackindex>5</trackindex>
											<clipindex>2</clipindex>
										</link>
										<link>
											<linkclipref>clipitem-356</linkclipref>
											<mediatype>audio</mediatype>
											<trackindex>9</trackindex>
											<clipindex>2</clipindex>
											<groupindex>1</groupindex>
										</link>
										<link>
											<linkclipref>clipitem-358</linkclipref>
											<mediatype>audio</mediatype>
											<trackindex>10</trackindex>
											<clipindex>2</clipindex>
											<groupindex>1</groupindex>
										</link>
										<labels>
											<label2>Tan</label2>
										</labels>
									</clipitem>
									<enabled>TRUE</enabled>
									<locked>FALSE</locked>
									<outputchannelindex>1</outputchannelindex>
								</track>
								<track TL.SQTrackAudioKeyframeStyle="0" TL.SQTrackShy="0" TL.SQTrackExpandedHeight="25" TL.SQTrackExpanded="0" MZ.TrackTargeted="0" PannerCurrentValue="0.5" PannerIsInverted="true" PannerStartKeyframe="-91445760000000000,0.5,0,0,0,0,0,0" PannerName="Balance" currentExplodedTrackIndex="1" totalExplodedTrackCount="2" premiereTrackType="Stereo">
									<clipitem id="clipitem-357" premiereChannelType="stereo">
										<masterclipid>masterclip-202</masterclipid>
										<name>Trans G</name>
										<enabled>TRUE</enabled>
										<duration>5697</duration>
										<rate>
											<timebase>30</timebase>
											<ntsc>TRUE</ntsc>
										</rate>
										<start>2665</start>
										<end>2910</end>
										<in>0</in>
										<out>245</out>
										<pproTicksIn>0</pproTicksIn>
										<pproTicksOut>2076538464000</pproTicksOut>
										<sequence id="sequence-17"/>
										<sourcetrack>
											<mediatype>audio</mediatype>
											<trackindex>1</trackindex>
										</sourcetrack>
											<marker>
												<comment></comment>
												<name></name>
												<in>229</in>
												<out>-1</out>
												<pproColor>4281828977</pproColor>
											</marker>
											<marker>
												<comment></comment>
												<name></name>
												<in>9</in>
												<out>-1</out>
												<pproColor>4281828977</pproColor>
											</marker>
										<link>
											<linkclipref>clipitem-335</linkclipref>
											<mediatype>video</mediatype>
											<trackindex>5</trackindex>
											<clipindex>1</clipindex>
										</link>
										<link>
											<linkclipref>clipitem-355</linkclipref>
											<mediatype>audio</mediatype>
											<trackindex>9</trackindex>
											<clipindex>1</clipindex>
											<groupindex>1</groupindex>
										</link>
										<link>
											<linkclipref>clipitem-357</linkclipref>
											<mediatype>audio</mediatype>
											<trackindex>10</trackindex>
											<clipindex>1</clipindex>
											<groupindex>1</groupindex>
										</link>
										<labels>
											<label2>Tan</label2>
										</labels>
									</clipitem>
									<clipitem id="clipitem-358" premiereChannelType="stereo">
										<masterclipid>masterclip-204</masterclipid>
										<name>Trans H</name>
										<enabled>TRUE</enabled>
										<duration>5697</duration>
										<rate>
											<timebase>30</timebase>
											<ntsc>TRUE</ntsc>
										</rate>
										<start>5452</start>
										<end>5697</end>
										<in>0</in>
										<out>245</out>
										<pproTicksIn>0</pproTicksIn>
										<pproTicksOut>2076538464000</pproTicksOut>
										<sequence id="sequence-18"/>
										<sourcetrack>
											<mediatype>audio</mediatype>
											<trackindex>1</trackindex>
										</sourcetrack>
											<marker>
												<comment></comment>
												<name></name>
												<in>233</in>
												<out>-1</out>
												<pproColor>4281828977</pproColor>
											</marker>
											<marker>
												<comment></comment>
												<name></name>
												<in>9</in>
												<out>-1</out>
												<pproColor>4281828977</pproColor>
											</marker>
										<link>
											<linkclipref>clipitem-343</linkclipref>
											<mediatype>video</mediatype>
											<trackindex>5</trackindex>
											<clipindex>2</clipindex>
										</link>
										<link>
											<linkclipref>clipitem-356</linkclipref>
											<mediatype>audio</mediatype>
											<trackindex>9</trackindex>
											<clipindex>2</clipindex>
											<groupindex>1</groupindex>
										</link>
										<link>
											<linkclipref>clipitem-358</linkclipref>
											<mediatype>audio</mediatype>
											<trackindex>10</trackindex>
											<clipindex>2</clipindex>
											<groupindex>1</groupindex>
										</link>
										<labels>
											<label2>Tan</label2>
										</labels>
									</clipitem>
									<enabled>TRUE</enabled>
									<locked>FALSE</locked>
									<outputchannelindex>2</outputchannelindex>
								</track>
							</audio>
						</media>
						<timecode>
							<rate>
								<timebase>30</timebase>
								<ntsc>TRUE</ntsc>
							</rate>
							<string>00;00;00;00</string>
							<frame>0</frame>
							<displayformat>DF</displayformat>
						</timecode>
							<marker>
								<comment></comment>
								<name></name>
								<in>264</in>
								<out>-1</out>
								<pproColor>4281828977</pproColor>
							</marker>
						<labels>
							<label2>Forest</label2>
						</labels>
						<logginginfo>
							<description></description>
							<scene></scene>
							<shottake></shottake>
							<lognote></lognote>
							<good></good>
							<originalvideofilename></originalvideofilename>
							<originalaudiofilename></originalaudiofilename>
						</logginginfo>
					</sequence>
					<sequence id="sequence-19" TL.SQAudioVisibleBase="0" TL.SQVideoVisibleBase="0" TL.SQVisibleBaseTime="0" TL.SQAVDividerPosition="0.5" TL.SQHideShyTracks="0" TL.SQHeaderWidth="236" TL.SQDataTrackViewControlState="0" Monitor.ProgramZoomOut="12696549465599" Monitor.ProgramZoomIn="0" TL.SQTimePerPixel="0.88448446907589562" MZ.EditLine="5170156992000" MZ.Sequence.PreviewFrameSizeHeight="1080" MZ.Sequence.PreviewFrameSizeWidth="1920" MZ.Sequence.AudioTimeDisplayFormat="200" MZ.Sequence.PreviewRenderingClassID="1297106761" MZ.Sequence.PreviewRenderingPresetCodec="1297107278" MZ.Sequence.PreviewRenderingPresetPath="EncoderPresets/SequencePreview/795454d9-d3c2-429d-9474-923ab13b7018/I-Frame Only MPEG.epr" MZ.Sequence.PreviewUseMaxRenderQuality="false" MZ.Sequence.PreviewUseMaxBitDepth="false" MZ.Sequence.EditingModeGUID="795454d9-d3c2-429d-9474-923ab13b7018" MZ.Sequence.VideoTimeDisplayFormat="102" MZ.WorkOutPoint="15239249625600" MZ.WorkInPoint="0" explodedTracks="true">
						<uuid>70169e52-15df-43c2-9603-9abccf4ee388</uuid>
						<duration>5339</duration>
						<rate>
							<timebase>30</timebase>
							<ntsc>TRUE</ntsc>
						</rate>
						<name>ATM_DRONE_497</name>
						<media>
							<video>
								<format>
									<samplecharacteristics>
										<rate>
											<timebase>30</timebase>
											<ntsc>TRUE</ntsc>
										</rate>
										<codec>
											<name>Apple ProRes 422</name>
											<appspecificdata>
												<appname>Final Cut Pro</appname>
												<appmanufacturer>Apple Inc.</appmanufacturer>
												<appversion>7.0</appversion>
												<data>
													<qtcodec>
														<codecname>Apple ProRes 422</codecname>
														<codectypename>Apple ProRes 422</codectypename>
														<codectypecode>apcn</codectypecode>
														<codecvendorcode>appl</codecvendorcode>
														<spatialquality>1024</spatialquality>
														<temporalquality>0</temporalquality>
														<keyframerate>0</keyframerate>
														<datarate>0</datarate>
													</qtcodec>
												</data>
											</appspecificdata>
										</codec>
										<width>1920</width>
										<height>1080</height>
										<anamorphic>FALSE</anamorphic>
										<pixelaspectratio>square</pixelaspectratio>
										<fielddominance>none</fielddominance>
										<colordepth>24</colordepth>
									</samplecharacteristics>
								</format>
								<track TL.SQTrackShy="0" TL.SQTrackExpandedHeight="25" TL.SQTrackExpanded="0" MZ.TrackTargeted="1">
									<clipitem id="clipitem-359">
										<masterclipid>masterclip-206</masterclipid>
										<name>DRONE_Dunebashing_1</name>
										<enabled>TRUE</enabled>
										<duration>2529</duration>
										<rate>
											<timebase>30</timebase>
											<ntsc>TRUE</ntsc>
										</rate>
										<start>0</start>
										<end>1843</end>
										<in>0</in>
										<out>1843</out>
										<pproTicksIn>0</pproTicksIn>
										<pproTicksOut>15620654649600</pproTicksOut>
										<sequence id="sequence-20" TL.SQAudioVisibleBase="0" TL.SQVideoVisibleBase="0" TL.SQVisibleBaseTime="15156282773423" TL.SQAVDividerPosition="0.5" TL.SQHideShyTracks="0" TL.SQHeaderWidth="236" Monitor.ProgramZoomOut="15620654649600" Monitor.ProgramZoomIn="0" TL.SQTimePerPixel="0.0032213578427853031" MZ.EditLine="15620654649600" MZ.Sequence.PreviewFrameSizeHeight="1080" MZ.Sequence.PreviewFrameSizeWidth="1920" MZ.Sequence.AudioTimeDisplayFormat="200" MZ.Sequence.PreviewRenderingClassID="1061109567" MZ.Sequence.PreviewRenderingPresetCodec="1634755443" MZ.Sequence.PreviewRenderingPresetPath="EncoderPresets/SequencePreview/35d109db-457b-43c1-9452-9cb7be9f121c/QuickTime.epr" MZ.Sequence.PreviewUseMaxRenderQuality="false" MZ.Sequence.PreviewUseMaxBitDepth="false" MZ.Sequence.EditingModeGUID="35d109db-457b-43c1-9452-9cb7be9f121c" MZ.Sequence.VideoTimeDisplayFormat="102" MZ.WorkOutPoint="15239249625600" MZ.WorkInPoint="0">
											<duration>1843</duration>
											<rate>
												<timebase>30</timebase>
												<ntsc>TRUE</ntsc>
											</rate>
											<name>DRONE_Dunebashing_1</name>
											<media>
												<video>
													<format>
														<samplecharacteristics>
															<rate>
																<timebase>30</timebase>
																<ntsc>TRUE</ntsc>
															</rate>
															<codec>
																<name>Apple ProRes 422</name>
																<appspecificdata>
																	<appname>Final Cut Pro</appname>
																	<appmanufacturer>Apple Inc.</appmanufacturer>
																	<appversion>7.0</appversion>
																	<data>
																		<qtcodec>
																			<codecname>Apple ProRes 422</codecname>
																			<codectypename>Apple ProRes 422</codectypename>
																			<codectypecode>apcn</codectypecode>
																			<codecvendorcode>appl</codecvendorcode>
																			<spatialquality>1024</spatialquality>
																			<temporalquality>0</temporalquality>
																			<keyframerate>0</keyframerate>
																			<datarate>0</datarate>
																		</qtcodec>
																	</data>
																</appspecificdata>
															</codec>
															<width>1920</width>
															<height>1080</height>
															<anamorphic>FALSE</anamorphic>
															<pixelaspectratio>square</pixelaspectratio>
															<fielddominance>none</fielddominance>
															<colordepth>24</colordepth>
														</samplecharacteristics>
													</format>
													<track TL.SQTrackShy="0" TL.SQTrackExpandedHeight="25" TL.SQTrackExpanded="0" MZ.TrackTargeted="1">
														<clipitem id="clipitem-360">
															<masterclipid>masterclip-207</masterclipid>
															<name>a-birds-eye-view-from-a-drone-of-sand-dunes-with-traces-of-cars-engaged-in-off-road-SBV-347562051-HD.mp4</name>
															<enabled>TRUE</enabled>
															<duration>509</duration>
															<rate>
																<timebase>30</timebase>
																<ntsc>TRUE</ntsc>
															</rate>
															<start>0</start>
															<end>131</end>
															<in>0</in>
															<out>131</out>
															<pproTicksIn>0</pproTicksIn>
															<pproTicksOut>1110312403200</pproTicksOut>
															<alphatype>none</alphatype>
															<pixelaspectratio>square</pixelaspectratio>
															<anamorphic>FALSE</anamorphic>
															<file id="file-191">
																<name>a-birds-eye-view-from-a-drone-of-sand-dunes-with-traces-of-cars-engaged-in-off-road-SBV-347562051-HD.mp4</name>
																<pathurl>file://localhost/Volumes/T7/DRONE_08.18.2023/3_Raw%20Files/Dunebashing/a-birds-eye-view-from-a-drone-of-sand-dunes-with-traces-of-cars-engaged-in-off-road-SBV-347562051-HD.mp4</pathurl>
																<rate>
																	<timebase>59</timebase>
																	<ntsc>FALSE</ntsc>
																</rate>
																<duration>1019</duration>
																<timecode>
																	<rate>
																		<timebase>59</timebase>
																		<ntsc>FALSE</ntsc>
																	</rate>
																	<string>00:00:02:02</string>
																	<frame>120</frame>
																	<displayformat>NDF</displayformat>
																</timecode>
																<media>
																	<video>
																		<samplecharacteristics>
																			<rate>
																				<timebase>59</timebase>
																				<ntsc>FALSE</ntsc>
																			</rate>
																			<width>1920</width>
																			<height>1080</height>
																			<anamorphic>FALSE</anamorphic>
																			<pixelaspectratio>square</pixelaspectratio>
																			<fielddominance>none</fielddominance>
																		</samplecharacteristics>
																	</video>
																</media>
															</file>
															<logginginfo>
																<description></description>
																<scene></scene>
																<shottake></shottake>
																<lognote></lognote>
																<good></good>
																<originalvideofilename></originalvideofilename>
																<originalaudiofilename></originalaudiofilename>
															</logginginfo>
															<colorinfo>
																<lut></lut>
																<lut1></lut1>
																<asc_sop></asc_sop>
																<asc_sat></asc_sat>
																<lut2></lut2>
															</colorinfo>
															<labels>
																<label2>Violet</label2>
															</labels>
														</clipitem>
														<clipitem id="clipitem-361">
															<masterclipid>masterclip-208</masterclipid>
															<name>cars-driving-off-road-among-sand-dunes-in-the-desert-drone-view-SBV-347562140-HD.mp4</name>
															<enabled>TRUE</enabled>
															<duration>250</duration>
															<rate>
																<timebase>30</timebase>
																<ntsc>TRUE</ntsc>
															</rate>
															<start>131</start>
															<end>363</end>
															<in>0</in>
															<out>232</out>
															<pproTicksIn>0</pproTicksIn>
															<pproTicksOut>1966354790400</pproTicksOut>
															<alphatype>none</alphatype>
															<pixelaspectratio>square</pixelaspectratio>
															<anamorphic>FALSE</anamorphic>
															<file id="file-192">
																<name>cars-driving-off-road-among-sand-dunes-in-the-desert-drone-view-SBV-347562140-HD.mp4</name>
																<pathurl>file://localhost/Volumes/T7/DRONE_08.18.2023/3_Raw%20Files/Dunebashing/cars-driving-off-road-among-sand-dunes-in-the-desert-drone-view-SBV-347562140-HD.mp4</pathurl>
																<rate>
																	<timebase>59</timebase>
																	<ntsc>FALSE</ntsc>
																</rate>
																<duration>501</duration>
																<timecode>
																	<rate>
																		<timebase>59</timebase>
																		<ntsc>FALSE</ntsc>
																	</rate>
																	<string>00:00:00:00</string>
																	<frame>0</frame>
																	<displayformat>NDF</displayformat>
																</timecode>
																<media>
																	<video>
																		<samplecharacteristics>
																			<rate>
																				<timebase>59</timebase>
																				<ntsc>FALSE</ntsc>
																			</rate>
																			<width>1920</width>
																			<height>1080</height>
																			<anamorphic>FALSE</anamorphic>
																			<pixelaspectratio>square</pixelaspectratio>
																			<fielddominance>none</fielddominance>
																		</samplecharacteristics>
																	</video>
																</media>
															</file>
															<logginginfo>
																<description></description>
																<scene></scene>
																<shottake></shottake>
																<lognote></lognote>
																<good></good>
																<originalvideofilename></originalvideofilename>
																<originalaudiofilename></originalaudiofilename>
															</logginginfo>
															<colorinfo>
																<lut></lut>
																<lut1></lut1>
																<asc_sop></asc_sop>
																<asc_sat></asc_sat>
																<lut2></lut2>
															</colorinfo>
															<labels>
																<label2>Violet</label2>
															</labels>
														</clipitem>
														<clipitem id="clipitem-362">
															<masterclipid>masterclip-209</masterclipid>
															<name>the-car-is-driving-off-road-on-the-red-sand-dunes-of-the-desert-with-sparse-vegetat-SBV-347561899-HD.mp4</name>
															<enabled>TRUE</enabled>
															<duration>267</duration>
															<rate>
																<timebase>30</timebase>
																<ntsc>TRUE</ntsc>
															</rate>
															<start>363</start>
															<end>422</end>
															<in>0</in>
															<out>59</out>
															<pproTicksIn>0</pproTicksIn>
															<pproTicksOut>500064364800</pproTicksOut>
															<alphatype>none</alphatype>
															<pixelaspectratio>square</pixelaspectratio>
															<anamorphic>FALSE</anamorphic>
															<file id="file-193">
																<name>the-car-is-driving-off-road-on-the-red-sand-dunes-of-the-desert-with-sparse-vegetat-SBV-347561899-HD.mp4</name>
																<pathurl>file://localhost/Volumes/T7/DRONE_08.18.2023/3_Raw%20Files/Dunebashing/the-car-is-driving-off-road-on-the-red-sand-dunes-of-the-desert-with-sparse-vegetat-SBV-347561899-HD.mp4</pathurl>
																<rate>
																	<timebase>59</timebase>
																	<ntsc>FALSE</ntsc>
																</rate>
																<duration>536</duration>
																<timecode>
																	<rate>
																		<timebase>59</timebase>
																		<ntsc>FALSE</ntsc>
																	</rate>
																	<string>00:00:17:41</string>
																	<frame>1044</frame>
																	<displayformat>NDF</displayformat>
																</timecode>
																<media>
																	<video>
																		<samplecharacteristics>
																			<rate>
																				<timebase>59</timebase>
																				<ntsc>FALSE</ntsc>
																			</rate>
																			<width>1920</width>
																			<height>1080</height>
																			<anamorphic>FALSE</anamorphic>
																			<pixelaspectratio>square</pixelaspectratio>
																			<fielddominance>none</fielddominance>
																		</samplecharacteristics>
																	</video>
																</media>
															</file>
															<logginginfo>
																<description></description>
																<scene></scene>
																<shottake></shottake>
																<lognote></lognote>
																<good></good>
																<originalvideofilename></originalvideofilename>
																<originalaudiofilename></originalaudiofilename>
															</logginginfo>
															<colorinfo>
																<lut></lut>
																<lut1></lut1>
																<asc_sop></asc_sop>
																<asc_sat></asc_sat>
																<lut2></lut2>
															</colorinfo>
															<labels>
																<label2>Violet</label2>
															</labels>
														</clipitem>
														<clipitem id="clipitem-363">
															<masterclipid>masterclip-210</masterclipid>
															<name>the-car-drives-off-road-sand-dunes-leaving-footprints-in-the-sand-aerial-view-from--SBV-347562013-HD.mp4</name>
															<enabled>TRUE</enabled>
															<duration>289</duration>
															<rate>
																<timebase>30</timebase>
																<ntsc>TRUE</ntsc>
															</rate>
															<start>422</start>
															<end>603</end>
															<in>56</in>
															<out>237</out>
															<pproTicksIn>474637363200</pproTicksIn>
															<pproTicksOut>2008733126400</pproTicksOut>
															<alphatype>none</alphatype>
															<pixelaspectratio>square</pixelaspectratio>
															<anamorphic>FALSE</anamorphic>
															<file id="file-194">
																<name>the-car-drives-off-road-sand-dunes-leaving-footprints-in-the-sand-aerial-view-from--SBV-347562013-HD.mp4</name>
																<pathurl>file://localhost/Volumes/T7/DRONE_08.18.2023/3_Raw%20Files/Dunebashing/the-car-drives-off-road-sand-dunes-leaving-footprints-in-the-sand-aerial-view-from--SBV-347562013-HD.mp4</pathurl>
																<rate>
																	<timebase>59</timebase>
																	<ntsc>FALSE</ntsc>
																</rate>
																<duration>580</duration>
																<timecode>
																	<rate>
																		<timebase>59</timebase>
																		<ntsc>FALSE</ntsc>
																	</rate>
																	<string>00:00:12:12</string>
																	<frame>720</frame>
																	<displayformat>NDF</displayformat>
																</timecode>
																<media>
																	<video>
																		<samplecharacteristics>
																			<rate>
																				<timebase>59</timebase>
																				<ntsc>FALSE</ntsc>
																			</rate>
																			<width>1920</width>
																			<height>1080</height>
																			<anamorphic>FALSE</anamorphic>
																			<pixelaspectratio>square</pixelaspectratio>
																			<fielddominance>none</fielddominance>
																		</samplecharacteristics>
																	</video>
																</media>
															</file>
															<logginginfo>
																<description></description>
																<scene></scene>
																<shottake></shottake>
																<lognote></lognote>
																<good></good>
																<originalvideofilename></originalvideofilename>
																<originalaudiofilename></originalaudiofilename>
															</logginginfo>
															<colorinfo>
																<lut></lut>
																<lut1></lut1>
																<asc_sop></asc_sop>
																<asc_sat></asc_sat>
																<lut2></lut2>
															</colorinfo>
															<labels>
																<label2>Violet</label2>
															</labels>
														</clipitem>
														<clipitem id="clipitem-364">
															<masterclipid>masterclip-211</masterclipid>
															<name>cars-driving-off-road-among-sand-dunes-in-the-desert-drone-view-SBV-347562252-HD.mp4</name>
															<enabled>TRUE</enabled>
															<duration>410</duration>
															<rate>
																<timebase>30</timebase>
																<ntsc>TRUE</ntsc>
															</rate>
															<start>603</start>
															<end>776</end>
															<in>0</in>
															<out>173</out>
															<pproTicksIn>0</pproTicksIn>
															<pproTicksOut>1466290425600</pproTicksOut>
															<alphatype>none</alphatype>
															<pixelaspectratio>square</pixelaspectratio>
															<anamorphic>FALSE</anamorphic>
															<file id="file-195">
																<name>cars-driving-off-road-among-sand-dunes-in-the-desert-drone-view-SBV-347562252-HD.mp4</name>
																<pathurl>file://localhost/Volumes/T7/DRONE_08.18.2023/3_Raw%20Files/Dunebashing/cars-driving-off-road-among-sand-dunes-in-the-desert-drone-view-SBV-347562252-HD.mp4</pathurl>
																<rate>
																	<timebase>59</timebase>
																	<ntsc>FALSE</ntsc>
																</rate>
																<duration>821</duration>
																<timecode>
																	<rate>
																		<timebase>59</timebase>
																		<ntsc>FALSE</ntsc>
																	</rate>
																	<string>00:00:18:30</string>
																	<frame>1092</frame>
																	<displayformat>NDF</displayformat>
																</timecode>
																<media>
																	<video>
																		<samplecharacteristics>
																			<rate>
																				<timebase>59</timebase>
																				<ntsc>FALSE</ntsc>
																			</rate>
																			<width>1920</width>
																			<height>1080</height>
																			<anamorphic>FALSE</anamorphic>
																			<pixelaspectratio>square</pixelaspectratio>
																			<fielddominance>none</fielddominance>
																		</samplecharacteristics>
																	</video>
																</media>
															</file>
															<logginginfo>
																<description></description>
																<scene></scene>
																<shottake></shottake>
																<lognote></lognote>
																<good></good>
																<originalvideofilename></originalvideofilename>
																<originalaudiofilename></originalaudiofilename>
															</logginginfo>
															<colorinfo>
																<lut></lut>
																<lut1></lut1>
																<asc_sop></asc_sop>
																<asc_sat></asc_sat>
																<lut2></lut2>
															</colorinfo>
															<labels>
																<label2>Violet</label2>
															</labels>
														</clipitem>
														<clipitem id="clipitem-365">
															<masterclipid>masterclip-212</masterclipid>
															<name>a-birds-eye-view-from-a-drone-of-cars-drifting-among-the-sand-dunes-off-road-drivin-SBV-347562086-HD.mp4</name>
															<enabled>TRUE</enabled>
															<duration>199</duration>
															<rate>
																<timebase>30</timebase>
																<ntsc>TRUE</ntsc>
															</rate>
															<start>776</start>
															<end>975</end>
															<in>0</in>
															<out>199</out>
															<pproTicksIn>0</pproTicksIn>
															<pproTicksOut>1686657772800</pproTicksOut>
															<alphatype>none</alphatype>
															<pixelaspectratio>square</pixelaspectratio>
															<anamorphic>FALSE</anamorphic>
															<file id="file-196">
																<name>a-birds-eye-view-from-a-drone-of-cars-drifting-among-the-sand-dunes-off-road-drivin-SBV-347562086-HD.mp4</name>
																<pathurl>file://localhost/Volumes/T7/DRONE_08.18.2023/3_Raw%20Files/Dunebashing/a-birds-eye-view-from-a-drone-of-cars-drifting-among-the-sand-dunes-off-road-drivin-SBV-347562086-HD.mp4</pathurl>
																<rate>
																	<timebase>59</timebase>
																	<ntsc>FALSE</ntsc>
																</rate>
																<duration>399</duration>
																<timecode>
																	<rate>
																		<timebase>59</timebase>
																		<ntsc>FALSE</ntsc>
																	</rate>
																	<string>00:00:39:03</string>
																	<frame>2304</frame>
																	<displayformat>NDF</displayformat>
																</timecode>
																<media>
																	<video>
																		<samplecharacteristics>
																			<rate>
																				<timebase>59</timebase>
																				<ntsc>FALSE</ntsc>
																			</rate>
																			<width>1920</width>
																			<height>1080</height>
																			<anamorphic>FALSE</anamorphic>
																			<pixelaspectratio>square</pixelaspectratio>
																			<fielddominance>none</fielddominance>
																		</samplecharacteristics>
																	</video>
																</media>
															</file>
															<logginginfo>
																<description></description>
																<scene></scene>
																<shottake></shottake>
																<lognote></lognote>
																<good></good>
																<originalvideofilename></originalvideofilename>
																<originalaudiofilename></originalaudiofilename>
															</logginginfo>
															<colorinfo>
																<lut></lut>
																<lut1></lut1>
																<asc_sop></asc_sop>
																<asc_sat></asc_sat>
																<lut2></lut2>
															</colorinfo>
															<labels>
																<label2>Violet</label2>
															</labels>
														</clipitem>
														<clipitem id="clipitem-366">
															<masterclipid>masterclip-213</masterclipid>
															<name>the-car-goes-off-road-on-the-sand-dunes-of-the-desert-drone-video-SBV-347561829-HD.mp4</name>
															<enabled>TRUE</enabled>
															<duration>445</duration>
															<rate>
																<timebase>30</timebase>
																<ntsc>TRUE</ntsc>
															</rate>
															<start>975</start>
															<end>1307</end>
															<in>0</in>
															<out>332</out>
															<pproTicksIn>0</pproTicksIn>
															<pproTicksOut>2813921510400</pproTicksOut>
															<alphatype>none</alphatype>
															<pixelaspectratio>square</pixelaspectratio>
															<anamorphic>FALSE</anamorphic>
															<file id="file-197">
																<name>the-car-goes-off-road-on-the-sand-dunes-of-the-desert-drone-video-SBV-347561829-HD.mp4</name>
																<pathurl>file://localhost/Volumes/T7/DRONE_08.18.2023/3_Raw%20Files/Dunebashing/the-car-goes-off-road-on-the-sand-dunes-of-the-desert-drone-video-SBV-347561829-HD.mp4</pathurl>
																<rate>
																	<timebase>59</timebase>
																	<ntsc>FALSE</ntsc>
																</rate>
																<duration>892</duration>
																<timecode>
																	<rate>
																		<timebase>59</timebase>
																		<ntsc>FALSE</ntsc>
																	</rate>
																	<string>00:00:45:33</string>
																	<frame>2688</frame>
																	<displayformat>NDF</displayformat>
																</timecode>
																<media>
																	<video>
																		<samplecharacteristics>
																			<rate>
																				<timebase>59</timebase>
																				<ntsc>FALSE</ntsc>
																			</rate>
																			<width>1920</width>
																			<height>1080</height>
																			<anamorphic>FALSE</anamorphic>
																			<pixelaspectratio>square</pixelaspectratio>
																			<fielddominance>none</fielddominance>
																		</samplecharacteristics>
																	</video>
																</media>
															</file>
															<logginginfo>
																<description></description>
																<scene></scene>
																<shottake></shottake>
																<lognote></lognote>
																<good></good>
																<originalvideofilename></originalvideofilename>
																<originalaudiofilename></originalaudiofilename>
															</logginginfo>
															<colorinfo>
																<lut></lut>
																<lut1></lut1>
																<asc_sop></asc_sop>
																<asc_sat></asc_sat>
																<lut2></lut2>
															</colorinfo>
															<labels>
																<label2>Violet</label2>
															</labels>
														</clipitem>
														<clipitem id="clipitem-367">
															<masterclipid>masterclip-214</masterclipid>
															<name>a-birds-eye-view-from-a-drone-of-car-drifting-among-the-sand-dunes-off-road-driving-SBV-347562128-HD.mp4</name>
															<enabled>TRUE</enabled>
															<duration>355</duration>
															<rate>
																<timebase>30</timebase>
																<ntsc>TRUE</ntsc>
															</rate>
															<start>1307</start>
															<end>1544</end>
															<in>0</in>
															<out>237</out>
															<pproTicksIn>0</pproTicksIn>
															<pproTicksOut>2008733126400</pproTicksOut>
															<alphatype>none</alphatype>
															<pixelaspectratio>square</pixelaspectratio>
															<anamorphic>FALSE</anamorphic>
															<file id="file-198">
																<name>a-birds-eye-view-from-a-drone-of-car-drifting-among-the-sand-dunes-off-road-driving-SBV-347562128-HD.mp4</name>
																<pathurl>file://localhost/Volumes/T7/DRONE_08.18.2023/3_Raw%20Files/Dunebashing/a-birds-eye-view-from-a-drone-of-car-drifting-among-the-sand-dunes-off-road-driving-SBV-347562128-HD.mp4</pathurl>
																<rate>
																	<timebase>59</timebase>
																	<ntsc>FALSE</ntsc>
																</rate>
																<duration>712</duration>
																<timecode>
																	<rate>
																		<timebase>59</timebase>
																		<ntsc>FALSE</ntsc>
																	</rate>
																	<string>00:00:01:01</string>
																	<frame>60</frame>
																	<displayformat>NDF</displayformat>
																</timecode>
																<media>
																	<video>
																		<samplecharacteristics>
																			<rate>
																				<timebase>59</timebase>
																				<ntsc>FALSE</ntsc>
																			</rate>
																			<width>1920</width>
																			<height>1080</height>
																			<anamorphic>FALSE</anamorphic>
																			<pixelaspectratio>square</pixelaspectratio>
																			<fielddominance>none</fielddominance>
																		</samplecharacteristics>
																	</video>
																</media>
															</file>
															<logginginfo>
																<description></description>
																<scene></scene>
																<shottake></shottake>
																<lognote></lognote>
																<good></good>
																<originalvideofilename></originalvideofilename>
																<originalaudiofilename></originalaudiofilename>
															</logginginfo>
															<colorinfo>
																<lut></lut>
																<lut1></lut1>
																<asc_sop></asc_sop>
																<asc_sat></asc_sat>
																<lut2></lut2>
															</colorinfo>
															<labels>
																<label2>Violet</label2>
															</labels>
														</clipitem>
														<clipitem id="clipitem-368">
															<masterclipid>masterclip-215</masterclipid>
															<name>cars-driving-off-road-among-sand-dunes-in-the-desert-drone-view-SBV-347562138-HD.mp4</name>
															<enabled>TRUE</enabled>
															<duration>417</duration>
															<rate>
																<timebase>30</timebase>
																<ntsc>TRUE</ntsc>
															</rate>
															<start>1544</start>
															<end>1837</end>
															<in>124</in>
															<out>417</out>
															<pproTicksIn>1050982732800</pproTicksIn>
															<pproTicksOut>3534353222400</pproTicksOut>
															<alphatype>none</alphatype>
															<pixelaspectratio>square</pixelaspectratio>
															<anamorphic>FALSE</anamorphic>
															<file id="file-199">
																<name>cars-driving-off-road-among-sand-dunes-in-the-desert-drone-view-SBV-347562138-HD.mp4</name>
																<pathurl>file://localhost/Volumes/T7/DRONE_08.18.2023/3_Raw%20Files/Dunebashing/cars-driving-off-road-among-sand-dunes-in-the-desert-drone-view-SBV-347562138-HD.mp4</pathurl>
																<rate>
																	<timebase>59</timebase>
																	<ntsc>FALSE</ntsc>
																</rate>
																<duration>836</duration>
																<timecode>
																	<rate>
																		<timebase>59</timebase>
																		<ntsc>FALSE</ntsc>
																	</rate>
																	<string>00:00:28:40</string>
																	<frame>1692</frame>
																	<displayformat>NDF</displayformat>
																</timecode>
																<media>
																	<video>
																		<samplecharacteristics>
																			<rate>
																				<timebase>59</timebase>
																				<ntsc>FALSE</ntsc>
																			</rate>
																			<width>1920</width>
																			<height>1080</height>
																			<anamorphic>FALSE</anamorphic>
																			<pixelaspectratio>square</pixelaspectratio>
																			<fielddominance>none</fielddominance>
																		</samplecharacteristics>
																	</video>
																</media>
															</file>
															<logginginfo>
																<description></description>
																<scene></scene>
																<shottake></shottake>
																<lognote></lognote>
																<good></good>
																<originalvideofilename></originalvideofilename>
																<originalaudiofilename></originalaudiofilename>
															</logginginfo>
															<colorinfo>
																<lut></lut>
																<lut1></lut1>
																<asc_sop></asc_sop>
																<asc_sat></asc_sat>
																<lut2></lut2>
															</colorinfo>
															<labels>
																<label2>Violet</label2>
															</labels>
														</clipitem>
														<enabled>TRUE</enabled>
														<locked>FALSE</locked>
													</track>
													<track TL.SQTrackShy="0" TL.SQTrackExpandedHeight="25" TL.SQTrackExpanded="0" MZ.TrackTargeted="0">
														<enabled>TRUE</enabled>
														<locked>FALSE</locked>
													</track>
													<track TL.SQTrackShy="0" TL.SQTrackExpandedHeight="25" TL.SQTrackExpanded="0" MZ.TrackTargeted="0">
														<enabled>TRUE</enabled>
														<locked>FALSE</locked>
													</track>
												</video>
												<audio>
													<numOutputChannels>2</numOutputChannels>
													<format>
														<samplecharacteristics>
															<depth>16</depth>
															<samplerate>48000</samplerate>
														</samplecharacteristics>
													</format>
													<outputs>
														<group>
															<index>1</index>
															<numchannels>1</numchannels>
															<downmix>0</downmix>
															<channel>
																<index>1</index>
															</channel>
														</group>
														<group>
															<index>2</index>
															<numchannels>1</numchannels>
															<downmix>0</downmix>
															<channel>
																<index>2</index>
															</channel>
														</group>
													</outputs>
													<track TL.SQTrackAudioKeyframeStyle="0" TL.SQTrackShy="0" TL.SQTrackExpandedHeight="25" TL.SQTrackExpanded="0" MZ.TrackTargeted="1" PannerCurrentValue="0.5" PannerIsInverted="true" PannerStartKeyframe="-91445760000000000,0.5,0,0,0,0,0,0" PannerName="Balance" currentExplodedTrackIndex="0" totalExplodedTrackCount="2" premiereTrackType="Stereo">
														<transitionitem>
															<start>0</start>
															<end>7</end>
															<pproTicksIn>0</pproTicksIn>
															<pproTicksOut>59329670400</pproTicksOut>
															<alignment>start-black</alignment>
															<cutPointTicks>0</cutPointTicks>
															<rate>
																<timebase>30</timebase>
																<ntsc>TRUE</ntsc>
															</rate>
															<effect>
																<name>Cross Fade ( 0dB)</name>
																<effectid>KGAudioTransCrossFade0dB</effectid>
																<effecttype>transition</effecttype>
																<mediatype>audio</mediatype>
																<wipecode>0</wipecode>
																<wipeaccuracy>100</wipeaccuracy>
																<startratio>0</startratio>
																<endratio>1</endratio>
																<reverse>FALSE</reverse>
															</effect>
														</transitionitem>
														<clipitem id="clipitem-369" premiereChannelType="stereo">
															<masterclipid>masterclip-216</masterclipid>
															<name>ES_Malhana - DEX 1200.mp3</name>
															<enabled>TRUE</enabled>
															<duration>7247</duration>
															<rate>
																<timebase>30</timebase>
																<ntsc>TRUE</ntsc>
															</rate>
															<start>-1</start>
															<end>-1</end>
															<in>4823</in>
															<out>6666</out>
															<pproTicksIn>40878142905600</pproTicksIn>
															<pproTicksOut>56498797555200</pproTicksOut>
															<file id="file-200">
																<name>ES_Malhana - DEX 1200.mp3</name>
																<pathurl>file://localhost/Volumes/T7/DRONE_08.18.2023/5_Music/ES_Malhana%20-%20DEX%201200.mp3</pathurl>
																<rate>
																	<timebase>30</timebase>
																	<ntsc>TRUE</ntsc>
																</rate>
																<duration>7247</duration>
																<timecode>
																	<rate>
																		<timebase>30</timebase>
																		<ntsc>TRUE</ntsc>
																	</rate>
																	<string>00;00;00;00</string>
																	<frame>0</frame>
																	<displayformat>DF</displayformat>
																</timecode>
																<media>
																	<audio>
																		<samplecharacteristics>
																			<depth>16</depth>
																			<samplerate>48000</samplerate>
																		</samplecharacteristics>
																		<channelcount>2</channelcount>
																	</audio>
																</media>
															</file>
															<sourcetrack>
																<mediatype>audio</mediatype>
																<trackindex>1</trackindex>
															</sourcetrack>
															<link>
																<linkclipref>clipitem-369</linkclipref>
																<mediatype>audio</mediatype>
																<trackindex>1</trackindex>
																<clipindex>2</clipindex>
																<groupindex>1</groupindex>
															</link>
															<link>
																<linkclipref>clipitem-370</linkclipref>
																<mediatype>audio</mediatype>
																<trackindex>2</trackindex>
																<clipindex>2</clipindex>
																<groupindex>1</groupindex>
															</link>
															<logginginfo>
																<description></description>
																<scene></scene>
																<shottake></shottake>
																<lognote></lognote>
																<good></good>
																<originalvideofilename></originalvideofilename>
																<originalaudiofilename></originalaudiofilename>
															</logginginfo>
															<colorinfo>
																<lut></lut>
																<lut1></lut1>
																<asc_sop></asc_sop>
																<asc_sat></asc_sat>
																<lut2></lut2>
															</colorinfo>
															<labels>
																<label2>Caribbean</label2>
															</labels>
														</clipitem>
														<transitionitem>
															<start>1829</start>
															<end>1843</end>
															<pproTicksIn>15501995308800</pproTicksIn>
															<pproTicksOut>15620654649600</pproTicksOut>
															<alignment>end-black</alignment>
															<cutPointTicks>118659340800</cutPointTicks>
															<rate>
																<timebase>30</timebase>
																<ntsc>TRUE</ntsc>
															</rate>
															<effect>
																<name>Cross Fade ( 0dB)</name>
																<effectid>KGAudioTransCrossFade0dB</effectid>
																<effecttype>transition</effecttype>
																<mediatype>audio</mediatype>
																<wipecode>0</wipecode>
																<wipeaccuracy>100</wipeaccuracy>
																<startratio>0</startratio>
																<endratio>1</endratio>
																<reverse>FALSE</reverse>
															</effect>
														</transitionitem>
														<enabled>TRUE</enabled>
														<locked>FALSE</locked>
														<outputchannelindex>1</outputchannelindex>
													</track>
													<track TL.SQTrackAudioKeyframeStyle="0" TL.SQTrackShy="0" TL.SQTrackExpandedHeight="25" TL.SQTrackExpanded="0" MZ.TrackTargeted="1" PannerCurrentValue="0.5" PannerIsInverted="true" PannerStartKeyframe="-91445760000000000,0.5,0,0,0,0,0,0" PannerName="Balance" currentExplodedTrackIndex="1" totalExplodedTrackCount="2" premiereTrackType="Stereo">
														<transitionitem>
															<start>0</start>
															<end>7</end>
															<pproTicksIn>0</pproTicksIn>
															<pproTicksOut>59329670400</pproTicksOut>
															<alignment>start-black</alignment>
															<cutPointTicks>0</cutPointTicks>
															<rate>
																<timebase>30</timebase>
																<ntsc>TRUE</ntsc>
															</rate>
															<effect>
																<name>Cross Fade ( 0dB)</name>
																<effectid>KGAudioTransCrossFade0dB</effectid>
																<effecttype>transition</effecttype>
																<mediatype>audio</mediatype>
																<wipecode>0</wipecode>
																<wipeaccuracy>100</wipeaccuracy>
																<startratio>0</startratio>
																<endratio>1</endratio>
																<reverse>FALSE</reverse>
															</effect>
														</transitionitem>
														<clipitem id="clipitem-370" premiereChannelType="stereo">
															<masterclipid>masterclip-216</masterclipid>
															<name>ES_Malhana - DEX 1200.mp3</name>
															<enabled>TRUE</enabled>
															<duration>7247</duration>
															<rate>
																<timebase>30</timebase>
																<ntsc>TRUE</ntsc>
															</rate>
															<start>-1</start>
															<end>-1</end>
															<in>4823</in>
															<out>6666</out>
															<pproTicksIn>40878142905600</pproTicksIn>
															<pproTicksOut>56498797555200</pproTicksOut>
															<file id="file-200"/>
															<sourcetrack>
																<mediatype>audio</mediatype>
																<trackindex>2</trackindex>
															</sourcetrack>
															<link>
																<linkclipref>clipitem-369</linkclipref>
																<mediatype>audio</mediatype>
																<trackindex>1</trackindex>
																<clipindex>2</clipindex>
																<groupindex>1</groupindex>
															</link>
															<link>
																<linkclipref>clipitem-370</linkclipref>
																<mediatype>audio</mediatype>
																<trackindex>2</trackindex>
																<clipindex>2</clipindex>
																<groupindex>1</groupindex>
															</link>
															<logginginfo>
																<description></description>
																<scene></scene>
																<shottake></shottake>
																<lognote></lognote>
																<good></good>
																<originalvideofilename></originalvideofilename>
																<originalaudiofilename></originalaudiofilename>
															</logginginfo>
															<colorinfo>
																<lut></lut>
																<lut1></lut1>
																<asc_sop></asc_sop>
																<asc_sat></asc_sat>
																<lut2></lut2>
															</colorinfo>
															<labels>
																<label2>Caribbean</label2>
															</labels>
														</clipitem>
														<transitionitem>
															<start>1829</start>
															<end>1843</end>
															<pproTicksIn>15501995308800</pproTicksIn>
															<pproTicksOut>15620654649600</pproTicksOut>
															<alignment>end-black</alignment>
															<cutPointTicks>118659340800</cutPointTicks>
															<rate>
																<timebase>30</timebase>
																<ntsc>TRUE</ntsc>
															</rate>
															<effect>
																<name>Cross Fade ( 0dB)</name>
																<effectid>KGAudioTransCrossFade0dB</effectid>
																<effecttype>transition</effecttype>
																<mediatype>audio</mediatype>
																<wipecode>0</wipecode>
																<wipeaccuracy>100</wipeaccuracy>
																<startratio>0</startratio>
																<endratio>1</endratio>
																<reverse>FALSE</reverse>
															</effect>
														</transitionitem>
														<enabled>TRUE</enabled>
														<locked>FALSE</locked>
														<outputchannelindex>2</outputchannelindex>
													</track>
													<track TL.SQTrackAudioKeyframeStyle="0" TL.SQTrackShy="0" TL.SQTrackExpandedHeight="25" TL.SQTrackExpanded="0" MZ.TrackTargeted="1" PannerCurrentValue="0.5" PannerIsInverted="true" PannerStartKeyframe="-91445760000000000,0.5,0,0,0,0,0,0" PannerName="Balance" currentExplodedTrackIndex="0" totalExplodedTrackCount="2" premiereTrackType="Stereo">
														<enabled>TRUE</enabled>
														<locked>FALSE</locked>
														<outputchannelindex>1</outputchannelindex>
													</track>
													<track TL.SQTrackAudioKeyframeStyle="0" TL.SQTrackShy="0" TL.SQTrackExpandedHeight="25" TL.SQTrackExpanded="0" MZ.TrackTargeted="1" PannerCurrentValue="0.5" PannerIsInverted="true" PannerStartKeyframe="-91445760000000000,0.5,0,0,0,0,0,0" PannerName="Balance" currentExplodedTrackIndex="1" totalExplodedTrackCount="2" premiereTrackType="Stereo">
														<enabled>TRUE</enabled>
														<locked>FALSE</locked>
														<outputchannelindex>2</outputchannelindex>
													</track>
													<track TL.SQTrackAudioKeyframeStyle="0" TL.SQTrackShy="0" TL.SQTrackExpandedHeight="25" TL.SQTrackExpanded="0" MZ.TrackTargeted="1" PannerCurrentValue="0.5" PannerIsInverted="true" PannerStartKeyframe="-91445760000000000,0.5,0,0,0,0,0,0" PannerName="Balance" currentExplodedTrackIndex="0" totalExplodedTrackCount="2" premiereTrackType="Stereo">
														<enabled>TRUE</enabled>
														<locked>FALSE</locked>
														<outputchannelindex>1</outputchannelindex>
													</track>
													<track TL.SQTrackAudioKeyframeStyle="0" TL.SQTrackShy="0" TL.SQTrackExpandedHeight="25" TL.SQTrackExpanded="0" MZ.TrackTargeted="1" PannerCurrentValue="0.5" PannerIsInverted="true" PannerStartKeyframe="-91445760000000000,0.5,0,0,0,0,0,0" PannerName="Balance" currentExplodedTrackIndex="1" totalExplodedTrackCount="2" premiereTrackType="Stereo">
														<enabled>TRUE</enabled>
														<locked>FALSE</locked>
														<outputchannelindex>2</outputchannelindex>
													</track>
												</audio>
											</media>
											<timecode>
												<rate>
													<timebase>30</timebase>
													<ntsc>TRUE</ntsc>
												</rate>
												<string>00;00;00;00</string>
												<frame>0</frame>
												<displayformat>DF</displayformat>
											</timecode>
											<logginginfo>
												<description></description>
												<scene></scene>
												<shottake></shottake>
												<lognote></lognote>
												<good></good>
												<originalvideofilename></originalvideofilename>
												<originalaudiofilename></originalaudiofilename>
											</logginginfo>
											<filter>
												<effect>
													<name>Audio Levels</name>
													<effectid>audiolevels</effectid>
													<effectcategory>audiolevels</effectcategory>
													<effecttype>audiolevels</effecttype>
													<mediatype>audio</mediatype>
													<parameter authoringApp="PremierePro">
														<parameterid>level</parameterid>
														<name>Level</name>
														<valuemin>0</valuemin>
														<valuemax>3.98109</valuemax>
														<value>0.839406</value>
													</parameter>
												</effect>
											</filter>
										</sequence>
										<link>
											<linkclipref>clipitem-359</linkclipref>
											<mediatype>video</mediatype>
											<trackindex>1</trackindex>
											<clipindex>1</clipindex>
										</link>
										<link>
											<linkclipref>clipitem-405</linkclipref>
											<mediatype>audio</mediatype>
											<trackindex>1</trackindex>
											<clipindex>1</clipindex>
											<groupindex>1</groupindex>
										</link>
										<link>
											<linkclipref>clipitem-407</linkclipref>
											<mediatype>audio</mediatype>
											<trackindex>2</trackindex>
											<clipindex>1</clipindex>
											<groupindex>1</groupindex>
										</link>
										<labels>
											<label2>Forest</label2>
										</labels>
									</clipitem>
									<clipitem id="clipitem-371">
										<masterclipid>masterclip-217</masterclipid>
										<name>DRONE_Hollywood_2</name>
										<enabled>TRUE</enabled>
										<duration>6740</duration>
										<rate>
											<timebase>30</timebase>
											<ntsc>TRUE</ntsc>
										</rate>
										<start>2061</start>
										<end>5339</end>
										<in>0</in>
										<out>3278</out>
										<pproTicksIn>0</pproTicksIn>
										<pproTicksOut>27783237081600</pproTicksOut>
										<sequence id="sequence-21" TL.SQAudioVisibleBase="0" TL.SQVideoVisibleBase="0" TL.SQVisibleBaseTime="0" TL.SQAVDividerPosition="0.5" TL.SQHideShyTracks="0" TL.SQHeaderWidth="236" Monitor.ProgramZoomOut="27783237081600" Monitor.ProgramZoomIn="0" TL.SQTimePerPixel="0.83081324791313582" MZ.EditLine="27783237081600" MZ.Sequence.PreviewFrameSizeHeight="1080" MZ.Sequence.PreviewFrameSizeWidth="1920" MZ.Sequence.AudioTimeDisplayFormat="200" MZ.Sequence.PreviewRenderingClassID="1061109567" MZ.Sequence.PreviewRenderingPresetCodec="1634755443" MZ.Sequence.PreviewRenderingPresetPath="EncoderPresets/SequencePreview/35d109db-457b-43c1-9452-9cb7be9f121c/QuickTime.epr" MZ.Sequence.PreviewUseMaxRenderQuality="false" MZ.Sequence.PreviewUseMaxBitDepth="false" MZ.Sequence.EditingModeGUID="35d109db-457b-43c1-9452-9cb7be9f121c" MZ.Sequence.VideoTimeDisplayFormat="102" MZ.WorkOutPoint="15239249625600" MZ.WorkInPoint="0">
											<duration>3278</duration>
											<rate>
												<timebase>30</timebase>
												<ntsc>TRUE</ntsc>
											</rate>
											<name>DRONE_Hollywood_2</name>
											<media>
												<video>
													<format>
														<samplecharacteristics>
															<rate>
																<timebase>30</timebase>
																<ntsc>TRUE</ntsc>
															</rate>
															<codec>
																<name>Apple ProRes 422</name>
																<appspecificdata>
																	<appname>Final Cut Pro</appname>
																	<appmanufacturer>Apple Inc.</appmanufacturer>
																	<appversion>7.0</appversion>
																	<data>
																		<qtcodec>
																			<codecname>Apple ProRes 422</codecname>
																			<codectypename>Apple ProRes 422</codectypename>
																			<codectypecode>apcn</codectypecode>
																			<codecvendorcode>appl</codecvendorcode>
																			<spatialquality>1024</spatialquality>
																			<temporalquality>0</temporalquality>
																			<keyframerate>0</keyframerate>
																			<datarate>0</datarate>
																		</qtcodec>
																	</data>
																</appspecificdata>
															</codec>
															<width>1920</width>
															<height>1080</height>
															<anamorphic>FALSE</anamorphic>
															<pixelaspectratio>square</pixelaspectratio>
															<fielddominance>none</fielddominance>
															<colordepth>24</colordepth>
														</samplecharacteristics>
													</format>
													<track TL.SQTrackShy="0" TL.SQTrackExpandedHeight="25" TL.SQTrackExpanded="0" MZ.TrackTargeted="1">
														<clipitem id="clipitem-372">
															<masterclipid>masterclip-218</masterclipid>
															<name>cinematic-close-up-hollywood-sign-on-beautiful-green-hills-at-sunny-summer-4k-SBV-347523891-HD.mp4</name>
															<enabled>TRUE</enabled>
															<duration>536</duration>
															<rate>
																<timebase>30</timebase>
																<ntsc>TRUE</ntsc>
															</rate>
															<start>0</start>
															<end>429</end>
															<in>0</in>
															<out>429</out>
															<pproTicksIn>0</pproTicksIn>
															<pproTicksOut>3636061228800</pproTicksOut>
															<alphatype>none</alphatype>
															<pixelaspectratio>square</pixelaspectratio>
															<anamorphic>FALSE</anamorphic>
															<file id="file-201">
																<name>cinematic-close-up-hollywood-sign-on-beautiful-green-hills-at-sunny-summer-4k-SBV-347523891-HD.mp4</name>
																<pathurl>file://localhost/Volumes/T7/DRONE_08.18.2023/3_Raw%20Files/Hollywood%20Sign/cinematic-close-up-hollywood-sign-on-beautiful-green-hills-at-sunny-summer-4k-SBV-347523891-HD.mp4</pathurl>
																<rate>
																	<timebase>23</timebase>
																	<ntsc>FALSE</ntsc>
																</rate>
																<duration>429</duration>
																<timecode>
																	<rate>
																		<timebase>23</timebase>
																		<ntsc>FALSE</ntsc>
																	</rate>
																	<string>00:00:00:00</string>
																	<frame>0</frame>
																	<displayformat>NDF</displayformat>
																</timecode>
																<media>
																	<video>
																		<samplecharacteristics>
																			<rate>
																				<timebase>23</timebase>
																				<ntsc>FALSE</ntsc>
																			</rate>
																			<width>1920</width>
																			<height>1080</height>
																			<anamorphic>FALSE</anamorphic>
																			<pixelaspectratio>square</pixelaspectratio>
																			<fielddominance>none</fielddominance>
																		</samplecharacteristics>
																	</video>
																</media>
															</file>
															<logginginfo>
																<description></description>
																<scene></scene>
																<shottake></shottake>
																<lognote></lognote>
																<good></good>
																<originalvideofilename></originalvideofilename>
																<originalaudiofilename></originalaudiofilename>
															</logginginfo>
															<colorinfo>
																<lut></lut>
																<lut1></lut1>
																<asc_sop></asc_sop>
																<asc_sat></asc_sat>
																<lut2></lut2>
															</colorinfo>
															<labels>
																<label2>Violet</label2>
															</labels>
														</clipitem>
														<clipitem id="clipitem-373">
															<masterclipid>masterclip-219</masterclipid>
															<name>amazing-high-end-residential-house-settled-on-top-of-a-grassy-area-beautiful-home-o-SBV-347760362-HD.mp4</name>
															<enabled>TRUE</enabled>
															<duration>749</duration>
															<rate>
																<timebase>30</timebase>
																<ntsc>TRUE</ntsc>
															</rate>
															<start>429</start>
															<end>693</end>
															<in>0</in>
															<out>264</out>
															<pproTicksIn>0</pproTicksIn>
															<pproTicksOut>2237576140800</pproTicksOut>
															<alphatype>none</alphatype>
															<pixelaspectratio>square</pixelaspectratio>
															<anamorphic>FALSE</anamorphic>
															<file id="file-202">
																<name>amazing-high-end-residential-house-settled-on-top-of-a-grassy-area-beautiful-home-o-SBV-347760362-HD.mp4</name>
																<pathurl>file://localhost/Volumes/T7/DRONE_08.18.2023/3_Raw%20Files/Hollywood%20Sign/amazing-high-end-residential-house-settled-on-top-of-a-grassy-area-beautiful-home-o-SBV-347760362-HD.mp4</pathurl>
																<rate>
																	<timebase>23</timebase>
																	<ntsc>FALSE</ntsc>
																</rate>
																<duration>600</duration>
																<timecode>
																	<rate>
																		<timebase>23</timebase>
																		<ntsc>FALSE</ntsc>
																	</rate>
																	<string>00:00:00:00</string>
																	<frame>0</frame>
																	<displayformat>NDF</displayformat>
																</timecode>
																<media>
																	<video>
																		<samplecharacteristics>
																			<rate>
																				<timebase>23</timebase>
																				<ntsc>FALSE</ntsc>
																			</rate>
																			<width>1920</width>
																			<height>1080</height>
																			<anamorphic>FALSE</anamorphic>
																			<pixelaspectratio>square</pixelaspectratio>
																			<fielddominance>none</fielddominance>
																		</samplecharacteristics>
																	</video>
																</media>
															</file>
															<logginginfo>
																<description></description>
																<scene></scene>
																<shottake></shottake>
																<lognote></lognote>
																<good></good>
																<originalvideofilename></originalvideofilename>
																<originalaudiofilename></originalaudiofilename>
															</logginginfo>
															<colorinfo>
																<lut></lut>
																<lut1></lut1>
																<asc_sop></asc_sop>
																<asc_sat></asc_sat>
																<lut2></lut2>
															</colorinfo>
															<labels>
																<label2>Violet</label2>
															</labels>
														</clipitem>
														<clipitem id="clipitem-374">
															<masterclipid>masterclip-220</masterclipid>
															<name>drone-shots-of-mansions-on-hollywood-hills-in-los-feliz-area-in-los-angeles-ca-SBV-347525696-HD.mp4</name>
															<enabled>TRUE</enabled>
															<duration>703</duration>
															<rate>
																<timebase>30</timebase>
																<ntsc>TRUE</ntsc>
															</rate>
															<start>693</start>
															<end>954</end>
															<in>0</in>
															<out>261</out>
															<pproTicksIn>0</pproTicksIn>
															<pproTicksOut>2212149139200</pproTicksOut>
															<alphatype>none</alphatype>
															<pixelaspectratio>square</pixelaspectratio>
															<anamorphic>FALSE</anamorphic>
															<file id="file-203">
																<name>drone-shots-of-mansions-on-hollywood-hills-in-los-feliz-area-in-los-angeles-ca-SBV-347525696-HD.mp4</name>
																<pathurl>file://localhost/Volumes/T7/DRONE_08.18.2023/3_Raw%20Files/Hollywood%20Sign/drone-shots-of-mansions-on-hollywood-hills-in-los-feliz-area-in-los-angeles-ca-SBV-347525696-HD.mp4</pathurl>
																<rate>
																	<timebase>23</timebase>
																	<ntsc>FALSE</ntsc>
																</rate>
																<duration>563</duration>
																<timecode>
																	<rate>
																		<timebase>23</timebase>
																		<ntsc>FALSE</ntsc>
																	</rate>
																	<string>00:00:00:00</string>
																	<frame>0</frame>
																	<displayformat>NDF</displayformat>
																</timecode>
																<media>
																	<video>
																		<samplecharacteristics>
																			<rate>
																				<timebase>23</timebase>
																				<ntsc>FALSE</ntsc>
																			</rate>
																			<width>1920</width>
																			<height>1080</height>
																			<anamorphic>FALSE</anamorphic>
																			<pixelaspectratio>square</pixelaspectratio>
																			<fielddominance>none</fielddominance>
																		</samplecharacteristics>
																	</video>
																</media>
															</file>
															<logginginfo>
																<description></description>
																<scene></scene>
																<shottake></shottake>
																<lognote></lognote>
																<good></good>
																<originalvideofilename></originalvideofilename>
																<originalaudiofilename></originalaudiofilename>
															</logginginfo>
															<colorinfo>
																<lut></lut>
																<lut1></lut1>
																<asc_sop></asc_sop>
																<asc_sat></asc_sat>
																<lut2></lut2>
															</colorinfo>
															<labels>
																<label2>Violet</label2>
															</labels>
														</clipitem>
														<clipitem id="clipitem-375">
															<masterclipid>masterclip-221</masterclipid>
															<name>los-angeles-at-golden-sunset-hour-california-usa-aerial-drone-griffith-park-SBV-347440326-HD.mp4</name>
															<enabled>TRUE</enabled>
															<duration>449</duration>
															<rate>
																<timebase>30</timebase>
																<ntsc>TRUE</ntsc>
															</rate>
															<start>954</start>
															<end>1216</end>
															<in>0</in>
															<out>262</out>
															<pproTicksIn>0</pproTicksIn>
															<pproTicksOut>2220624806400</pproTicksOut>
															<alphatype>none</alphatype>
															<pixelaspectratio>square</pixelaspectratio>
															<anamorphic>FALSE</anamorphic>
															<file id="file-204">
																<name>los-angeles-at-golden-sunset-hour-california-usa-aerial-drone-griffith-park-SBV-347440326-HD.mp4</name>
																<pathurl>file://localhost/Volumes/T7/DRONE_08.18.2023/3_Raw%20Files/Hollywood%20Sign/los-angeles-at-golden-sunset-hour-california-usa-aerial-drone-griffith-park-SBV-347440326-HD.mp4</pathurl>
																<rate>
																	<timebase>23</timebase>
																	<ntsc>FALSE</ntsc>
																</rate>
																<duration>360</duration>
																<timecode>
																	<rate>
																		<timebase>23</timebase>
																		<ntsc>FALSE</ntsc>
																	</rate>
																	<string>00:00:00:00</string>
																	<frame>0</frame>
																	<displayformat>NDF</displayformat>
																</timecode>
																<media>
																	<video>
																		<samplecharacteristics>
																			<rate>
																				<timebase>23</timebase>
																				<ntsc>FALSE</ntsc>
																			</rate>
																			<width>1920</width>
																			<height>1080</height>
																			<anamorphic>FALSE</anamorphic>
																			<pixelaspectratio>square</pixelaspectratio>
																			<fielddominance>none</fielddominance>
																		</samplecharacteristics>
																	</video>
																</media>
															</file>
															<logginginfo>
																<description></description>
																<scene></scene>
																<shottake></shottake>
																<lognote></lognote>
																<good></good>
																<originalvideofilename></originalvideofilename>
																<originalaudiofilename></originalaudiofilename>
															</logginginfo>
															<colorinfo>
																<lut></lut>
																<lut1></lut1>
																<asc_sop></asc_sop>
																<asc_sat></asc_sat>
																<lut2></lut2>
															</colorinfo>
															<labels>
																<label2>Violet</label2>
															</labels>
														</clipitem>
														<clipitem id="clipitem-376">
															<masterclipid>masterclip-222</masterclipid>
															<name>los-angeles-california-usa-scenic-aerial-view-of-world-famous-griffith-observatory--SBV-347584311-HD.mp4</name>
															<enabled>TRUE</enabled>
															<duration>472</duration>
															<rate>
																<timebase>30</timebase>
																<ntsc>TRUE</ntsc>
															</rate>
															<start>1216</start>
															<end>1477</end>
															<in>0</in>
															<out>261</out>
															<pproTicksIn>0</pproTicksIn>
															<pproTicksOut>2212149139200</pproTicksOut>
															<alphatype>none</alphatype>
															<pixelaspectratio>square</pixelaspectratio>
															<anamorphic>FALSE</anamorphic>
															<file id="file-205">
																<name>los-angeles-california-usa-scenic-aerial-view-of-world-famous-griffith-observatory--SBV-347584311-HD.mp4</name>
																<pathurl>file://localhost/Volumes/T7/DRONE_08.18.2023/3_Raw%20Files/Hollywood%20Sign/los-angeles-california-usa-scenic-aerial-view-of-world-famous-griffith-observatory--SBV-347584311-HD.mp4</pathurl>
																<rate>
																	<timebase>23</timebase>
																	<ntsc>FALSE</ntsc>
																</rate>
																<duration>378</duration>
																<timecode>
																	<rate>
																		<timebase>23</timebase>
																		<ntsc>FALSE</ntsc>
																	</rate>
																	<string>00:00:00:00</string>
																	<frame>0</frame>
																	<displayformat>NDF</displayformat>
																</timecode>
																<media>
																	<video>
																		<samplecharacteristics>
																			<rate>
																				<timebase>23</timebase>
																				<ntsc>FALSE</ntsc>
																			</rate>
																			<width>1920</width>
																			<height>1080</height>
																			<anamorphic>FALSE</anamorphic>
																			<pixelaspectratio>square</pixelaspectratio>
																			<fielddominance>none</fielddominance>
																		</samplecharacteristics>
																	</video>
																</media>
															</file>
															<logginginfo>
																<description></description>
																<scene></scene>
																<shottake></shottake>
																<lognote></lognote>
																<good></good>
																<originalvideofilename></originalvideofilename>
																<originalaudiofilename></originalaudiofilename>
															</logginginfo>
															<colorinfo>
																<lut></lut>
																<lut1></lut1>
																<asc_sop></asc_sop>
																<asc_sat></asc_sat>
																<lut2></lut2>
															</colorinfo>
															<labels>
																<label2>Violet</label2>
															</labels>
														</clipitem>
														<clipitem id="clipitem-377">
															<masterclipid>masterclip-223</masterclipid>
															<name>iconic-american-landmark-travel-to-west-coast-in-california-hollywood-at-sunset-SBV-347502180-HD.mp4</name>
															<enabled>TRUE</enabled>
															<duration>381</duration>
															<rate>
																<timebase>30</timebase>
																<ntsc>TRUE</ntsc>
															</rate>
															<start>1477</start>
															<end>1739</end>
															<in>76</in>
															<out>338</out>
															<pproTicksIn>644150707200</pproTicksIn>
															<pproTicksOut>2864775513600</pproTicksOut>
															<alphatype>none</alphatype>
															<pixelaspectratio>square</pixelaspectratio>
															<anamorphic>FALSE</anamorphic>
															<file id="file-206">
																<name>iconic-american-landmark-travel-to-west-coast-in-california-hollywood-at-sunset-SBV-347502180-HD.mp4</name>
																<pathurl>file://localhost/Volumes/T7/DRONE_08.18.2023/3_Raw%20Files/Hollywood%20Sign/iconic-american-landmark-travel-to-west-coast-in-california-hollywood-at-sunset-SBV-347502180-HD.mp4</pathurl>
																<rate>
																	<timebase>23</timebase>
																	<ntsc>FALSE</ntsc>
																</rate>
																<duration>305</duration>
																<timecode>
																	<rate>
																		<timebase>23</timebase>
																		<ntsc>FALSE</ntsc>
																	</rate>
																	<string>00:00:00:00</string>
																	<frame>0</frame>
																	<displayformat>NDF</displayformat>
																</timecode>
																<media>
																	<video>
																		<samplecharacteristics>
																			<rate>
																				<timebase>23</timebase>
																				<ntsc>FALSE</ntsc>
																			</rate>
																			<width>1920</width>
																			<height>1080</height>
																			<anamorphic>FALSE</anamorphic>
																			<pixelaspectratio>square</pixelaspectratio>
																			<fielddominance>none</fielddominance>
																		</samplecharacteristics>
																	</video>
																</media>
															</file>
															<filter>
																<effect>
																	<name>Time Remap</name>
																	<effectid>timeremap</effectid>
																	<effectcategory>motion</effectcategory>
																	<effecttype>motion</effecttype>
																	<mediatype>video</mediatype>
																	<parameter authoringApp="PremierePro">
																		<parameterid>variablespeed</parameterid>
																		<name>variablespeed</name>
																		<valuemin>0</valuemin>
																		<valuemax>1</valuemax>
																		<value>0</value>
																	</parameter>
																	<parameter authoringApp="PremierePro">
																		<parameterid>speed</parameterid>
																		<name>speed</name>
																		<valuemin>-100000</valuemin>
																		<valuemax>100000</valuemax>
																		<value>100</value>
																	</parameter>
																	<parameter authoringApp="PremierePro">
																		<parameterid>reverse</parameterid>
																		<name>reverse</name>
																		<value>TRUE</value>
																	</parameter>
																	<parameter authoringApp="PremierePro">
																		<parameterid>frameblending</parameterid>
																		<name>frameblending</name>
																		<value>FALSE</value>
																	</parameter>
																	<parameter authoringApp="PremierePro">
																		<parameterid>graphdict</parameterid>
																		<name>graphdict</name>
																		<valuemin>0</valuemin>
																		<valuemax>381</valuemax>
																		<value>0</value>
																		<keyframe>
																			<when>0</when>
																			<value>381</value>
																			<speedvirtualkf>TRUE</speedvirtualkf>
																			<speedkfstart>TRUE</speedkfstart>
																		</keyframe>
																		<keyframe>
																			<when>43</when>
																			<value>338</value>
																			<speedvirtualkf>TRUE</speedvirtualkf>
																			<speedkfin>TRUE</speedkfin>
																		</keyframe>
																		<keyframe>
																			<when>305</when>
																			<value>76</value>
																			<speedvirtualkf>TRUE</speedvirtualkf>
																			<speedkfout>TRUE</speedkfout>
																		</keyframe>
																		<keyframe>
																			<when>381</when>
																			<value>1</value>
																			<speedvirtualkf>TRUE</speedvirtualkf>
																			<speedkfend>TRUE</speedkfend>
																		</keyframe>
																		<interpolation>
																			<name>FCPCurve</name>
																		</interpolation>
																	</parameter>
																</effect>
															</filter>
															<logginginfo>
																<description></description>
																<scene></scene>
																<shottake></shottake>
																<lognote></lognote>
																<good></good>
																<originalvideofilename></originalvideofilename>
																<originalaudiofilename></originalaudiofilename>
															</logginginfo>
															<colorinfo>
																<lut></lut>
																<lut1></lut1>
																<asc_sop></asc_sop>
																<asc_sat></asc_sat>
																<lut2></lut2>
															</colorinfo>
															<labels>
																<label2>Violet</label2>
															</labels>
														</clipitem>
														<clipitem id="clipitem-378">
															<masterclipid>masterclip-224</masterclipid>
															<name>los-angeles-downtown-view-cinematic-sunset-drone-flying-fast-above-palm-trees-SBV-347440314-HD.mp4</name>
															<enabled>TRUE</enabled>
															<duration>443</duration>
															<rate>
																<timebase>30</timebase>
																<ntsc>TRUE</ntsc>
															</rate>
															<start>1739</start>
															<end>2001</end>
															<in>29</in>
															<out>291</out>
															<pproTicksIn>245794348800</pproTicksIn>
															<pproTicksOut>2466419155200</pproTicksOut>
															<alphatype>none</alphatype>
															<pixelaspectratio>square</pixelaspectratio>
															<anamorphic>FALSE</anamorphic>
															<file id="file-207">
																<name>los-angeles-downtown-view-cinematic-sunset-drone-flying-fast-above-palm-trees-SBV-347440314-HD.mp4</name>
																<pathurl>file://localhost/Volumes/T7/DRONE_08.18.2023/3_Raw%20Files/Hollywood%20Sign/los-angeles-downtown-view-cinematic-sunset-drone-flying-fast-above-palm-trees-SBV-347440314-HD.mp4</pathurl>
																<rate>
																	<timebase>23</timebase>
																	<ntsc>FALSE</ntsc>
																</rate>
																<duration>355</duration>
																<timecode>
																	<rate>
																		<timebase>23</timebase>
																		<ntsc>FALSE</ntsc>
																	</rate>
																	<string>00:00:00:00</string>
																	<frame>0</frame>
																	<displayformat>NDF</displayformat>
																</timecode>
																<media>
																	<video>
																		<samplecharacteristics>
																			<rate>
																				<timebase>23</timebase>
																				<ntsc>FALSE</ntsc>
																			</rate>
																			<width>1920</width>
																			<height>1080</height>
																			<anamorphic>FALSE</anamorphic>
																			<pixelaspectratio>square</pixelaspectratio>
																			<fielddominance>none</fielddominance>
																		</samplecharacteristics>
																	</video>
																</media>
															</file>
															<logginginfo>
																<description></description>
																<scene></scene>
																<shottake></shottake>
																<lognote></lognote>
																<good></good>
																<originalvideofilename></originalvideofilename>
																<originalaudiofilename></originalaudiofilename>
															</logginginfo>
															<colorinfo>
																<lut></lut>
																<lut1></lut1>
																<asc_sop></asc_sop>
																<asc_sat></asc_sat>
																<lut2></lut2>
															</colorinfo>
															<labels>
																<label2>Violet</label2>
															</labels>
														</clipitem>
														<clipitem id="clipitem-379">
															<masterclipid>masterclip-225</masterclipid>
															<name>top-view-drone-rising-above-incredible-complex-highway-junction-in-los-angeles-with-SBV-327556319-HD.mp4</name>
															<enabled>TRUE</enabled>
															<duration>452</duration>
															<rate>
																<timebase>30</timebase>
																<ntsc>TRUE</ntsc>
															</rate>
															<start>2001</start>
															<end>2264</end>
															<in>0</in>
															<out>263</out>
															<pproTicksIn>0</pproTicksIn>
															<pproTicksOut>2229100473600</pproTicksOut>
															<alphatype>none</alphatype>
															<pixelaspectratio>square</pixelaspectratio>
															<anamorphic>FALSE</anamorphic>
															<file id="file-208">
																<name>top-view-drone-rising-above-incredible-complex-highway-junction-in-los-angeles-with-SBV-327556319-HD.mp4</name>
																<pathurl>file://localhost/Volumes/T7/DRONE_08.18.2023/3_Raw%20Files/Hollywood%20Sign/top-view-drone-rising-above-incredible-complex-highway-junction-in-los-angeles-with-SBV-327556319-HD.mp4</pathurl>
																<rate>
																	<timebase>23</timebase>
																	<ntsc>FALSE</ntsc>
																</rate>
																<duration>362</duration>
																<timecode>
																	<rate>
																		<timebase>23</timebase>
																		<ntsc>FALSE</ntsc>
																	</rate>
																	<string>00:00:00:00</string>
																	<frame>0</frame>
																	<displayformat>NDF</displayformat>
																</timecode>
																<media>
																	<video>
																		<samplecharacteristics>
																			<rate>
																				<timebase>23</timebase>
																				<ntsc>FALSE</ntsc>
																			</rate>
																			<width>1920</width>
																			<height>1080</height>
																			<anamorphic>FALSE</anamorphic>
																			<pixelaspectratio>square</pixelaspectratio>
																			<fielddominance>none</fielddominance>
																		</samplecharacteristics>
																	</video>
																	<audio>
																		<samplecharacteristics>
																			<depth>16</depth>
																			<samplerate>48000</samplerate>
																		</samplecharacteristics>
																		<channelcount>2</channelcount>
																	</audio>
																</media>
															</file>
															<logginginfo>
																<description></description>
																<scene></scene>
																<shottake></shottake>
																<lognote></lognote>
																<good></good>
																<originalvideofilename></originalvideofilename>
																<originalaudiofilename></originalaudiofilename>
															</logginginfo>
															<colorinfo>
																<lut></lut>
																<lut1></lut1>
																<asc_sop></asc_sop>
																<asc_sat></asc_sat>
																<lut2></lut2>
															</colorinfo>
															<labels>
																<label2>Iris</label2>
															</labels>
														</clipitem>
														<clipitem id="clipitem-380">
															<masterclipid>masterclip-226</masterclipid>
															<name>aerial-drone-shot-of-residential-los-angeles-suburban-housing-district-area-4k-SBV-347658818-HD.mp4</name>
															<enabled>TRUE</enabled>
															<duration>468</duration>
															<rate>
																<timebase>30</timebase>
																<ntsc>TRUE</ntsc>
															</rate>
															<start>2264</start>
															<end>2524</end>
															<in>0</in>
															<out>260</out>
															<pproTicksIn>0</pproTicksIn>
															<pproTicksOut>2203673472000</pproTicksOut>
															<alphatype>none</alphatype>
															<pixelaspectratio>square</pixelaspectratio>
															<anamorphic>FALSE</anamorphic>
															<file id="file-209">
																<name>aerial-drone-shot-of-residential-los-angeles-suburban-housing-district-area-4k-SBV-347658818-HD.mp4</name>
																<pathurl>file://localhost/Volumes/T7/DRONE_08.18.2023/3_Raw%20Files/Hollywood%20Sign/aerial-drone-shot-of-residential-los-angeles-suburban-housing-district-area-4k-SBV-347658818-HD.mp4</pathurl>
																<rate>
																	<timebase>23</timebase>
																	<ntsc>FALSE</ntsc>
																</rate>
																<duration>375</duration>
																<timecode>
																	<rate>
																		<timebase>23</timebase>
																		<ntsc>FALSE</ntsc>
																	</rate>
																	<string>00:00:00:00</string>
																	<frame>0</frame>
																	<displayformat>NDF</displayformat>
																</timecode>
																<media>
																	<video>
																		<samplecharacteristics>
																			<rate>
																				<timebase>23</timebase>
																				<ntsc>FALSE</ntsc>
																			</rate>
																			<width>1920</width>
																			<height>1080</height>
																			<anamorphic>FALSE</anamorphic>
																			<pixelaspectratio>square</pixelaspectratio>
																			<fielddominance>none</fielddominance>
																		</samplecharacteristics>
																	</video>
																</media>
															</file>
															<logginginfo>
																<description></description>
																<scene></scene>
																<shottake></shottake>
																<lognote></lognote>
																<good></good>
																<originalvideofilename></originalvideofilename>
																<originalaudiofilename></originalaudiofilename>
															</logginginfo>
															<colorinfo>
																<lut></lut>
																<lut1></lut1>
																<asc_sop></asc_sop>
																<asc_sat></asc_sat>
																<lut2></lut2>
															</colorinfo>
															<labels>
																<label2>Violet</label2>
															</labels>
														</clipitem>
														<clipitem id="clipitem-381">
															<masterclipid>masterclip-227</masterclipid>
															<name>forwards-fly-above-road-lined-by-palm-trees-and-luxurious-residencies-famous-beverl-SBV-347678063-HD.mp4</name>
															<enabled>TRUE</enabled>
															<duration>576</duration>
															<rate>
																<timebase>30</timebase>
																<ntsc>TRUE</ntsc>
															</rate>
															<start>2524</start>
															<end>2985</end>
															<in>0</in>
															<out>461</out>
															<pproTicksIn>0</pproTicksIn>
															<pproTicksOut>3907282579200</pproTicksOut>
															<alphatype>none</alphatype>
															<pixelaspectratio>square</pixelaspectratio>
															<anamorphic>FALSE</anamorphic>
															<file id="file-210">
																<name>forwards-fly-above-road-lined-by-palm-trees-and-luxurious-residencies-famous-beverl-SBV-347678063-HD.mp4</name>
																<pathurl>file://localhost/Volumes/T7/DRONE_08.18.2023/3_Raw%20Files/Hollywood%20Sign/forwards-fly-above-road-lined-by-palm-trees-and-luxurious-residencies-famous-beverl-SBV-347678063-HD.mp4</pathurl>
																<rate>
																	<timebase>23</timebase>
																	<ntsc>FALSE</ntsc>
																</rate>
																<duration>461</duration>
																<timecode>
																	<rate>
																		<timebase>23</timebase>
																		<ntsc>FALSE</ntsc>
																	</rate>
																	<string>00:00:00:00</string>
																	<frame>0</frame>
																	<displayformat>NDF</displayformat>
																</timecode>
																<media>
																	<video>
																		<samplecharacteristics>
																			<rate>
																				<timebase>23</timebase>
																				<ntsc>FALSE</ntsc>
																			</rate>
																			<width>1920</width>
																			<height>1080</height>
																			<anamorphic>FALSE</anamorphic>
																			<pixelaspectratio>square</pixelaspectratio>
																			<fielddominance>none</fielddominance>
																		</samplecharacteristics>
																	</video>
																</media>
															</file>
															<logginginfo>
																<description></description>
																<scene></scene>
																<shottake></shottake>
																<lognote></lognote>
																<good></good>
																<originalvideofilename></originalvideofilename>
																<originalaudiofilename></originalaudiofilename>
															</logginginfo>
															<colorinfo>
																<lut></lut>
																<lut1></lut1>
																<asc_sop></asc_sop>
																<asc_sat></asc_sat>
																<lut2></lut2>
															</colorinfo>
															<labels>
																<label2>Violet</label2>
															</labels>
														</clipitem>
														<clipitem id="clipitem-382">
															<masterclipid>masterclip-228</masterclipid>
															<name>los-angeles-california-usa-aerial-drone-landmark-hollywood-sign-on-green-hills-SBV-347440328-HD.mp4</name>
															<enabled>TRUE</enabled>
															<duration>366</duration>
															<rate>
																<timebase>30</timebase>
																<ntsc>TRUE</ntsc>
															</rate>
															<start>2985</start>
															<end>3278</end>
															<in>0</in>
															<out>293</out>
															<pproTicksIn>0</pproTicksIn>
															<pproTicksOut>2483370489600</pproTicksOut>
															<alphatype>none</alphatype>
															<pixelaspectratio>square</pixelaspectratio>
															<anamorphic>FALSE</anamorphic>
															<file id="file-211">
																<name>los-angeles-california-usa-aerial-drone-landmark-hollywood-sign-on-green-hills-SBV-347440328-HD.mp4</name>
																<pathurl>file://localhost/Volumes/T7/DRONE_08.18.2023/3_Raw%20Files/Hollywood%20Sign/los-angeles-california-usa-aerial-drone-landmark-hollywood-sign-on-green-hills-SBV-347440328-HD.mp4</pathurl>
																<rate>
																	<timebase>23</timebase>
																	<ntsc>FALSE</ntsc>
																</rate>
																<duration>293</duration>
																<timecode>
																	<rate>
																		<timebase>23</timebase>
																		<ntsc>FALSE</ntsc>
																	</rate>
																	<string>00:00:00:00</string>
																	<frame>0</frame>
																	<displayformat>NDF</displayformat>
																</timecode>
																<media>
																	<video>
																		<samplecharacteristics>
																			<rate>
																				<timebase>23</timebase>
																				<ntsc>FALSE</ntsc>
																			</rate>
																			<width>1920</width>
																			<height>1080</height>
																			<anamorphic>FALSE</anamorphic>
																			<pixelaspectratio>square</pixelaspectratio>
																			<fielddominance>none</fielddominance>
																		</samplecharacteristics>
																	</video>
																</media>
															</file>
															<logginginfo>
																<description></description>
																<scene></scene>
																<shottake></shottake>
																<lognote></lognote>
																<good></good>
																<originalvideofilename></originalvideofilename>
																<originalaudiofilename></originalaudiofilename>
															</logginginfo>
															<colorinfo>
																<lut></lut>
																<lut1></lut1>
																<asc_sop></asc_sop>
																<asc_sat></asc_sat>
																<lut2></lut2>
															</colorinfo>
															<labels>
																<label2>Violet</label2>
															</labels>
														</clipitem>
														<enabled>TRUE</enabled>
														<locked>FALSE</locked>
													</track>
													<track TL.SQTrackShy="0" TL.SQTrackExpandedHeight="25" TL.SQTrackExpanded="0" MZ.TrackTargeted="0">
														<enabled>TRUE</enabled>
														<locked>FALSE</locked>
													</track>
													<track TL.SQTrackShy="0" TL.SQTrackExpandedHeight="25" TL.SQTrackExpanded="0" MZ.TrackTargeted="0">
														<enabled>TRUE</enabled>
														<locked>FALSE</locked>
													</track>
												</video>
												<audio>
													<numOutputChannels>2</numOutputChannels>
													<format>
														<samplecharacteristics>
															<depth>16</depth>
															<samplerate>48000</samplerate>
														</samplecharacteristics>
													</format>
													<outputs>
														<group>
															<index>1</index>
															<numchannels>1</numchannels>
															<downmix>0</downmix>
															<channel>
																<index>1</index>
															</channel>
														</group>
														<group>
															<index>2</index>
															<numchannels>1</numchannels>
															<downmix>0</downmix>
															<channel>
																<index>2</index>
															</channel>
														</group>
													</outputs>
													<track TL.SQTrackAudioKeyframeStyle="0" TL.SQTrackShy="0" TL.SQTrackExpandedHeight="25" TL.SQTrackExpanded="0" MZ.TrackTargeted="1" PannerCurrentValue="0.5" PannerIsInverted="true" PannerStartKeyframe="-91445760000000000,0.5,0,0,0,0,0,0" PannerName="Balance" currentExplodedTrackIndex="0" totalExplodedTrackCount="2" premiereTrackType="Stereo">
														<transitionitem>
															<start>0</start>
															<end>13</end>
															<pproTicksIn>0</pproTicksIn>
															<pproTicksOut>110183673600</pproTicksOut>
															<alignment>start-black</alignment>
															<cutPointTicks>0</cutPointTicks>
															<rate>
																<timebase>30</timebase>
																<ntsc>TRUE</ntsc>
															</rate>
															<effect>
																<name>Cross Fade ( 0dB)</name>
																<effectid>KGAudioTransCrossFade0dB</effectid>
																<effecttype>transition</effecttype>
																<mediatype>audio</mediatype>
																<wipecode>0</wipecode>
																<wipeaccuracy>100</wipeaccuracy>
																<startratio>0</startratio>
																<endratio>1</endratio>
																<reverse>FALSE</reverse>
															</effect>
														</transitionitem>
														<clipitem id="clipitem-383" premiereChannelType="stereo">
															<masterclipid>masterclip-229</masterclipid>
															<name>ES_Blue Gold - Far Orange.mp3</name>
															<enabled>TRUE</enabled>
															<duration>6740</duration>
															<rate>
																<timebase>30</timebase>
																<ntsc>TRUE</ntsc>
															</rate>
															<start>-1</start>
															<end>-1</end>
															<in>92</in>
															<out>3370</out>
															<pproTicksIn>779761382400</pproTicksIn>
															<pproTicksOut>28562998464000</pproTicksOut>
															<file id="file-212">
																<name>ES_Blue Gold - Far Orange.mp3</name>
																<pathurl>file://localhost/Volumes/T7/DRONE_08.18.2023/5_Music/ES_Blue%20Gold%20-%20Far%20Orange.mp3</pathurl>
																<rate>
																	<timebase>30</timebase>
																	<ntsc>TRUE</ntsc>
																</rate>
																<duration>6740</duration>
																<timecode>
																	<rate>
																		<timebase>30</timebase>
																		<ntsc>TRUE</ntsc>
																	</rate>
																	<string>00;00;00;00</string>
																	<frame>0</frame>
																	<displayformat>DF</displayformat>
																</timecode>
																<media>
																	<audio>
																		<samplecharacteristics>
																			<depth>16</depth>
																			<samplerate>48000</samplerate>
																		</samplecharacteristics>
																		<channelcount>2</channelcount>
																	</audio>
																</media>
															</file>
															<sourcetrack>
																<mediatype>audio</mediatype>
																<trackindex>1</trackindex>
															</sourcetrack>
															<link>
																<linkclipref>clipitem-383</linkclipref>
																<mediatype>audio</mediatype>
																<trackindex>1</trackindex>
																<clipindex>2</clipindex>
																<groupindex>1</groupindex>
															</link>
															<link>
																<linkclipref>clipitem-384</linkclipref>
																<mediatype>audio</mediatype>
																<trackindex>2</trackindex>
																<clipindex>2</clipindex>
																<groupindex>1</groupindex>
															</link>
															<logginginfo>
																<description></description>
																<scene></scene>
																<shottake></shottake>
																<lognote></lognote>
																<good></good>
																<originalvideofilename></originalvideofilename>
																<originalaudiofilename></originalaudiofilename>
															</logginginfo>
															<colorinfo>
																<lut></lut>
																<lut1></lut1>
																<asc_sop></asc_sop>
																<asc_sat></asc_sat>
																<lut2></lut2>
															</colorinfo>
															<labels>
																<label2>Caribbean</label2>
															</labels>
														</clipitem>
														<transitionitem>
															<start>3271</start>
															<end>3278</end>
															<pproTicksIn>27723907411200</pproTicksIn>
															<pproTicksOut>27783237081600</pproTicksOut>
															<alignment>end-black</alignment>
															<cutPointTicks>59329670400</cutPointTicks>
															<rate>
																<timebase>30</timebase>
																<ntsc>TRUE</ntsc>
															</rate>
															<effect>
																<name>Cross Fade ( 0dB)</name>
																<effectid>KGAudioTransCrossFade0dB</effectid>
																<effecttype>transition</effecttype>
																<mediatype>audio</mediatype>
																<wipecode>0</wipecode>
																<wipeaccuracy>100</wipeaccuracy>
																<startratio>0</startratio>
																<endratio>1</endratio>
																<reverse>FALSE</reverse>
															</effect>
														</transitionitem>
														<enabled>TRUE</enabled>
														<locked>FALSE</locked>
														<outputchannelindex>1</outputchannelindex>
													</track>
													<track TL.SQTrackAudioKeyframeStyle="0" TL.SQTrackShy="0" TL.SQTrackExpandedHeight="25" TL.SQTrackExpanded="0" MZ.TrackTargeted="1" PannerCurrentValue="0.5" PannerIsInverted="true" PannerStartKeyframe="-91445760000000000,0.5,0,0,0,0,0,0" PannerName="Balance" currentExplodedTrackIndex="1" totalExplodedTrackCount="2" premiereTrackType="Stereo">
														<transitionitem>
															<start>0</start>
															<end>13</end>
															<pproTicksIn>0</pproTicksIn>
															<pproTicksOut>110183673600</pproTicksOut>
															<alignment>start-black</alignment>
															<cutPointTicks>0</cutPointTicks>
															<rate>
																<timebase>30</timebase>
																<ntsc>TRUE</ntsc>
															</rate>
															<effect>
																<name>Cross Fade ( 0dB)</name>
																<effectid>KGAudioTransCrossFade0dB</effectid>
																<effecttype>transition</effecttype>
																<mediatype>audio</mediatype>
																<wipecode>0</wipecode>
																<wipeaccuracy>100</wipeaccuracy>
																<startratio>0</startratio>
																<endratio>1</endratio>
																<reverse>FALSE</reverse>
															</effect>
														</transitionitem>
														<clipitem id="clipitem-384" premiereChannelType="stereo">
															<masterclipid>masterclip-229</masterclipid>
															<name>ES_Blue Gold - Far Orange.mp3</name>
															<enabled>TRUE</enabled>
															<duration>6740</duration>
															<rate>
																<timebase>30</timebase>
																<ntsc>TRUE</ntsc>
															</rate>
															<start>-1</start>
															<end>-1</end>
															<in>92</in>
															<out>3370</out>
															<pproTicksIn>779761382400</pproTicksIn>
															<pproTicksOut>28562998464000</pproTicksOut>
															<file id="file-212"/>
															<sourcetrack>
																<mediatype>audio</mediatype>
																<trackindex>2</trackindex>
															</sourcetrack>
															<link>
																<linkclipref>clipitem-383</linkclipref>
																<mediatype>audio</mediatype>
																<trackindex>1</trackindex>
																<clipindex>2</clipindex>
																<groupindex>1</groupindex>
															</link>
															<link>
																<linkclipref>clipitem-384</linkclipref>
																<mediatype>audio</mediatype>
																<trackindex>2</trackindex>
																<clipindex>2</clipindex>
																<groupindex>1</groupindex>
															</link>
															<logginginfo>
																<description></description>
																<scene></scene>
																<shottake></shottake>
																<lognote></lognote>
																<good></good>
																<originalvideofilename></originalvideofilename>
																<originalaudiofilename></originalaudiofilename>
															</logginginfo>
															<colorinfo>
																<lut></lut>
																<lut1></lut1>
																<asc_sop></asc_sop>
																<asc_sat></asc_sat>
																<lut2></lut2>
															</colorinfo>
															<labels>
																<label2>Caribbean</label2>
															</labels>
														</clipitem>
														<transitionitem>
															<start>3271</start>
															<end>3278</end>
															<pproTicksIn>27723907411200</pproTicksIn>
															<pproTicksOut>27783237081600</pproTicksOut>
															<alignment>end-black</alignment>
															<cutPointTicks>59329670400</cutPointTicks>
															<rate>
																<timebase>30</timebase>
																<ntsc>TRUE</ntsc>
															</rate>
															<effect>
																<name>Cross Fade ( 0dB)</name>
																<effectid>KGAudioTransCrossFade0dB</effectid>
																<effecttype>transition</effecttype>
																<mediatype>audio</mediatype>
																<wipecode>0</wipecode>
																<wipeaccuracy>100</wipeaccuracy>
																<startratio>0</startratio>
																<endratio>1</endratio>
																<reverse>FALSE</reverse>
															</effect>
														</transitionitem>
														<enabled>TRUE</enabled>
														<locked>FALSE</locked>
														<outputchannelindex>2</outputchannelindex>
													</track>
													<track TL.SQTrackAudioKeyframeStyle="0" TL.SQTrackShy="0" TL.SQTrackExpandedHeight="25" TL.SQTrackExpanded="0" MZ.TrackTargeted="1" PannerCurrentValue="0.5" PannerIsInverted="true" PannerStartKeyframe="-91445760000000000,0.5,0,0,0,0,0,0" PannerName="Balance" currentExplodedTrackIndex="0" totalExplodedTrackCount="2" premiereTrackType="Stereo">
														<enabled>TRUE</enabled>
														<locked>FALSE</locked>
														<outputchannelindex>1</outputchannelindex>
													</track>
													<track TL.SQTrackAudioKeyframeStyle="0" TL.SQTrackShy="0" TL.SQTrackExpandedHeight="25" TL.SQTrackExpanded="0" MZ.TrackTargeted="1" PannerCurrentValue="0.5" PannerIsInverted="true" PannerStartKeyframe="-91445760000000000,0.5,0,0,0,0,0,0" PannerName="Balance" currentExplodedTrackIndex="1" totalExplodedTrackCount="2" premiereTrackType="Stereo">
														<enabled>TRUE</enabled>
														<locked>FALSE</locked>
														<outputchannelindex>2</outputchannelindex>
													</track>
													<track TL.SQTrackAudioKeyframeStyle="0" TL.SQTrackShy="0" TL.SQTrackExpandedHeight="25" TL.SQTrackExpanded="0" MZ.TrackTargeted="1" PannerCurrentValue="0.5" PannerIsInverted="true" PannerStartKeyframe="-91445760000000000,0.5,0,0,0,0,0,0" PannerName="Balance" currentExplodedTrackIndex="0" totalExplodedTrackCount="2" premiereTrackType="Stereo">
														<enabled>TRUE</enabled>
														<locked>FALSE</locked>
														<outputchannelindex>1</outputchannelindex>
													</track>
													<track TL.SQTrackAudioKeyframeStyle="0" TL.SQTrackShy="0" TL.SQTrackExpandedHeight="25" TL.SQTrackExpanded="0" MZ.TrackTargeted="1" PannerCurrentValue="0.5" PannerIsInverted="true" PannerStartKeyframe="-91445760000000000,0.5,0,0,0,0,0,0" PannerName="Balance" currentExplodedTrackIndex="1" totalExplodedTrackCount="2" premiereTrackType="Stereo">
														<enabled>TRUE</enabled>
														<locked>FALSE</locked>
														<outputchannelindex>2</outputchannelindex>
													</track>
												</audio>
											</media>
											<timecode>
												<rate>
													<timebase>30</timebase>
													<ntsc>TRUE</ntsc>
												</rate>
												<string>00;00;00;00</string>
												<frame>0</frame>
												<displayformat>DF</displayformat>
											</timecode>
											<logginginfo>
												<description></description>
												<scene></scene>
												<shottake></shottake>
												<lognote></lognote>
												<good></good>
												<originalvideofilename></originalvideofilename>
												<originalaudiofilename></originalaudiofilename>
											</logginginfo>
											<filter>
												<effect>
													<name>Audio Levels</name>
													<effectid>audiolevels</effectid>
													<effectcategory>audiolevels</effectcategory>
													<effecttype>audiolevels</effecttype>
													<mediatype>audio</mediatype>
													<parameter authoringApp="PremierePro">
														<parameterid>level</parameterid>
														<name>Level</name>
														<valuemin>0</valuemin>
														<valuemax>3.98109</valuemax>
														<value>0.839406</value>
													</parameter>
												</effect>
											</filter>
										</sequence>
										<link>
											<linkclipref>clipitem-371</linkclipref>
											<mediatype>video</mediatype>
											<trackindex>1</trackindex>
											<clipindex>2</clipindex>
										</link>
										<link>
											<linkclipref>clipitem-406</linkclipref>
											<mediatype>audio</mediatype>
											<trackindex>1</trackindex>
											<clipindex>3</clipindex>
											<groupindex>1</groupindex>
										</link>
										<link>
											<linkclipref>clipitem-408</linkclipref>
											<mediatype>audio</mediatype>
											<trackindex>2</trackindex>
											<clipindex>3</clipindex>
											<groupindex>1</groupindex>
										</link>
										<labels>
											<label2>Forest</label2>
										</labels>
									</clipitem>
									<enabled>TRUE</enabled>
									<locked>FALSE</locked>
								</track>
								<track TL.SQTrackShy="0" TL.SQTrackExpandedHeight="25" TL.SQTrackExpanded="0" MZ.TrackTargeted="0">
									<clipitem id="clipitem-385">
										<masterclipid>masterclip-230</masterclipid>
										<name>DUNEBASHING</name>
										<enabled>TRUE</enabled>
										<duration>5694</duration>
										<rate>
											<timebase>30</timebase>
											<ntsc>TRUE</ntsc>
										</rate>
										<start>0</start>
										<end>1962</end>
										<in>0</in>
										<out>1962</out>
										<pproTicksIn>0</pproTicksIn>
										<pproTicksOut>16629259046400</pproTicksOut>
										<alphatype>straight</alphatype>
										<pixelaspectratio>square</pixelaspectratio>
										<anamorphic>FALSE</anamorphic>
										<file id="file-213">
											<name>DRONE_LOWER_A/NEW DRONE L3.aep</name>
											<pathurl>file://localhost/Volumes/T7/DRONE_08.18.2023/4_Project%20Files/Drone%202023%20Master%20Assets/01_Bugs/NEW%20DRONE%20L3/NEW%20DRONE%20L3.aep</pathurl>
											<rate>
												<timebase>30</timebase>
												<ntsc>TRUE</ntsc>
											</rate>
											<duration>5694</duration>
											<timecode>
												<rate>
													<timebase>30</timebase>
													<ntsc>TRUE</ntsc>
												</rate>
												<string>00;00;00;00</string>
												<frame>0</frame>
												<displayformat>DF</displayformat>
											</timecode>
											<media>
												<video>
													<samplecharacteristics>
														<rate>
															<timebase>30</timebase>
															<ntsc>TRUE</ntsc>
														</rate>
														<width>1920</width>
														<height>1080</height>
														<anamorphic>FALSE</anamorphic>
														<pixelaspectratio>square</pixelaspectratio>
														<fielddominance>lower</fielddominance>
													</samplecharacteristics>
												</video>
											</media>
										</file>
										<logginginfo>
											<description></description>
											<scene></scene>
											<shottake></shottake>
											<lognote></lognote>
											<good></good>
											<originalvideofilename></originalvideofilename>
											<originalaudiofilename></originalaudiofilename>
										</logginginfo>
										<colorinfo>
											<lut></lut>
											<lut1></lut1>
											<asc_sop></asc_sop>
											<asc_sat></asc_sat>
											<lut2></lut2>
										</colorinfo>
										<labels>
											<label2>Rose</label2>
										</labels>
									</clipitem>
									<clipitem id="clipitem-386">
										<masterclipid>masterclip-231</masterclipid>
										<name>A DAY IN L.A.</name>
										<enabled>TRUE</enabled>
										<duration>5694</duration>
										<rate>
											<timebase>30</timebase>
											<ntsc>TRUE</ntsc>
										</rate>
										<start>2070</start>
										<end>5339</end>
										<in>0</in>
										<out>3269</out>
										<pproTicksIn>0</pproTicksIn>
										<pproTicksOut>27706956076800</pproTicksOut>
										<alphatype>straight</alphatype>
										<pixelaspectratio>square</pixelaspectratio>
										<anamorphic>FALSE</anamorphic>
										<file id="file-214">
											<name>DRONE_LOWER_A/NEW DRONE L3.aep</name>
											<pathurl>file://localhost/Volumes/T7/DRONE_08.18.2023/4_Project%20Files/Drone%202023%20Master%20Assets/01_Bugs/NEW%20DRONE%20L3/NEW%20DRONE%20L3.aep</pathurl>
											<rate>
												<timebase>30</timebase>
												<ntsc>TRUE</ntsc>
											</rate>
											<duration>5694</duration>
											<timecode>
												<rate>
													<timebase>30</timebase>
													<ntsc>TRUE</ntsc>
												</rate>
												<string>00;00;00;00</string>
												<frame>0</frame>
												<displayformat>DF</displayformat>
											</timecode>
											<media>
												<video>
													<samplecharacteristics>
														<rate>
															<timebase>30</timebase>
															<ntsc>TRUE</ntsc>
														</rate>
														<width>1920</width>
														<height>1080</height>
														<anamorphic>FALSE</anamorphic>
														<pixelaspectratio>square</pixelaspectratio>
														<fielddominance>lower</fielddominance>
													</samplecharacteristics>
												</video>
											</media>
										</file>
										<logginginfo>
											<description></description>
											<scene></scene>
											<shottake></shottake>
											<lognote></lognote>
											<good></good>
											<originalvideofilename></originalvideofilename>
											<originalaudiofilename></originalaudiofilename>
										</logginginfo>
										<colorinfo>
											<lut></lut>
											<lut1></lut1>
											<asc_sop></asc_sop>
											<asc_sat></asc_sat>
											<lut2></lut2>
										</colorinfo>
										<labels>
											<label2>Rose</label2>
										</labels>
									</clipitem>
									<enabled>TRUE</enabled>
									<locked>FALSE</locked>
								</track>
								<track TL.SQTrackShy="0" TL.SQTrackExpandedHeight="25" TL.SQTrackExpanded="0" MZ.TrackTargeted="0">
									<clipitem id="clipitem-387">
										<masterclipid>masterclip-232</masterclipid>
										<name>LOS ANGELES, CA</name>
										<enabled>TRUE</enabled>
										<duration>5694</duration>
										<rate>
											<timebase>30</timebase>
											<ntsc>TRUE</ntsc>
										</rate>
										<start>2339</start>
										<end>5339</end>
										<in>0</in>
										<out>3000</out>
										<pproTicksIn>0</pproTicksIn>
										<pproTicksOut>25427001600000</pproTicksOut>
										<alphatype>straight</alphatype>
										<pixelaspectratio>square</pixelaspectratio>
										<anamorphic>FALSE</anamorphic>
										<file id="file-215">
											<name>DRONE_PIN/DRONE_PIN.aep</name>
											<pathurl>file://localhost/Volumes/T7/DRONE_08.18.2023/4_Project%20Files/Drone%202023%20Master%20Assets/01_Bugs/DRIVE_LOCATION%20PIN/DRONE_PIN.aep</pathurl>
											<rate>
												<timebase>30</timebase>
												<ntsc>TRUE</ntsc>
											</rate>
											<duration>5694</duration>
											<timecode>
												<rate>
													<timebase>30</timebase>
													<ntsc>TRUE</ntsc>
												</rate>
												<string>00;00;00;00</string>
												<frame>0</frame>
												<displayformat>DF</displayformat>
											</timecode>
											<media>
												<video>
													<samplecharacteristics>
														<rate>
															<timebase>30</timebase>
															<ntsc>TRUE</ntsc>
														</rate>
														<width>1920</width>
														<height>1080</height>
														<anamorphic>FALSE</anamorphic>
														<pixelaspectratio>square</pixelaspectratio>
														<fielddominance>lower</fielddominance>
													</samplecharacteristics>
												</video>
											</media>
										</file>
										<logginginfo>
											<description></description>
											<scene></scene>
											<shottake></shottake>
											<lognote></lognote>
											<good></good>
											<originalvideofilename></originalvideofilename>
											<originalaudiofilename></originalaudiofilename>
										</logginginfo>
										<colorinfo>
											<lut></lut>
											<lut1></lut1>
											<asc_sop></asc_sop>
											<asc_sat></asc_sat>
											<lut2></lut2>
										</colorinfo>
										<labels>
											<label2>Cerulean</label2>
										</labels>
									</clipitem>
									<enabled>TRUE</enabled>
									<locked>FALSE</locked>
								</track>
								<track TL.SQTrackShy="0" TL.SQTrackExpandedHeight="25" TL.SQTrackExpanded="0" MZ.TrackTargeted="0">
									<clipitem id="clipitem-388">
										<masterclipid>masterclip-153</masterclipid>
										<name>ATM BUG</name>
										<enabled>TRUE</enabled>
										<duration>5818</duration>
										<rate>
											<timebase>30</timebase>
											<ntsc>TRUE</ntsc>
										</rate>
										<start>0</start>
										<end>5339</end>
										<in>0</in>
										<out>5339</out>
										<pproTicksIn>0</pproTicksIn>
										<pproTicksOut>45251587180800</pproTicksOut>
										<sequence id="sequence-5"/>
										<labels>
											<label2>Violet</label2>
										</labels>
									</clipitem>
									<enabled>TRUE</enabled>
									<locked>FALSE</locked>
								</track>
								<track TL.SQTrackShy="0" TL.SQTrackExpandedHeight="25" TL.SQTrackExpanded="0" MZ.TrackTargeted="0">
									<clipitem id="clipitem-389">
										<masterclipid>masterclip-233</masterclipid>
										<name>Trans A</name>
										<enabled>TRUE</enabled>
										<duration>5697</duration>
										<rate>
											<timebase>30</timebase>
											<ntsc>TRUE</ntsc>
										</rate>
										<start>1825</start>
										<end>2070</end>
										<in>0</in>
										<out>245</out>
										<pproTicksIn>0</pproTicksIn>
										<pproTicksOut>2076538464000</pproTicksOut>
										<sequence id="sequence-22" TL.SQAudioVisibleBase="0" TL.SQVideoVisibleBase="0" TL.SQVisibleBaseTime="0" TL.SQAVDividerPosition="0.5" TL.SQHideShyTracks="0" TL.SQHeaderWidth="236" TL.SQDataTrackViewControlState="0" Monitor.ProgramZoomOut="2076538464000" Monitor.ProgramZoomIn="0" TL.SQTimePerPixel="0.026977760700425547" MZ.EditLine="779761382400" MZ.Sequence.PreviewFrameSizeHeight="1080" MZ.Sequence.PreviewFrameSizeWidth="1920" MZ.Sequence.AudioTimeDisplayFormat="200" MZ.Sequence.PreviewRenderingClassID="1297106761" MZ.Sequence.PreviewRenderingPresetCodec="1297107278" MZ.Sequence.PreviewRenderingPresetPath="EncoderPresets/SequencePreview/795454d9-d3c2-429d-9474-923ab13b7018/I-Frame Only MPEG.epr" MZ.Sequence.PreviewUseMaxRenderQuality="false" MZ.Sequence.PreviewUseMaxBitDepth="false" MZ.Sequence.EditingModeGUID="795454d9-d3c2-429d-9474-923ab13b7018" MZ.Sequence.VideoTimeDisplayFormat="102" MZ.WorkOutPoint="15239249625600" MZ.WorkInPoint="0">
											<duration>245</duration>
											<rate>
												<timebase>30</timebase>
												<ntsc>TRUE</ntsc>
											</rate>
											<name>Trans A</name>
											<media>
												<video>
													<format>
														<samplecharacteristics>
															<rate>
																<timebase>30</timebase>
																<ntsc>TRUE</ntsc>
															</rate>
															<codec>
																<name>Apple ProRes 422</name>
																<appspecificdata>
																	<appname>Final Cut Pro</appname>
																	<appmanufacturer>Apple Inc.</appmanufacturer>
																	<appversion>7.0</appversion>
																	<data>
																		<qtcodec>
																			<codecname>Apple ProRes 422</codecname>
																			<codectypename>Apple ProRes 422</codectypename>
																			<codectypecode>apcn</codectypecode>
																			<codecvendorcode>appl</codecvendorcode>
																			<spatialquality>1024</spatialquality>
																			<temporalquality>0</temporalquality>
																			<keyframerate>0</keyframerate>
																			<datarate>0</datarate>
																		</qtcodec>
																	</data>
																</appspecificdata>
															</codec>
															<width>1920</width>
															<height>1080</height>
															<anamorphic>FALSE</anamorphic>
															<pixelaspectratio>square</pixelaspectratio>
															<fielddominance>none</fielddominance>
															<colordepth>24</colordepth>
														</samplecharacteristics>
													</format>
													<track TL.SQTrackShy="0" TL.SQTrackExpandedHeight="25" TL.SQTrackExpanded="0" MZ.TrackTargeted="1">
														<clipitem id="clipitem-390">
															<masterclipid>masterclip-234</masterclipid>
															<name>ATM_DRONE_TRANS_A.mov</name>
															<enabled>TRUE</enabled>
															<duration>248</duration>
															<rate>
																<timebase>30</timebase>
																<ntsc>TRUE</ntsc>
															</rate>
															<start>9</start>
															<end>236</end>
															<in>12</in>
															<out>239</out>
															<pproTicksIn>101708006400</pproTicksIn>
															<pproTicksOut>2025684460800</pproTicksOut>
															<alphatype>straight</alphatype>
															<pixelaspectratio>square</pixelaspectratio>
															<anamorphic>FALSE</anamorphic>
															<file id="file-216">
																<name>ATM_DRONE_TRANS_A.mov</name>
																<pathurl>file://localhost/Volumes/T7/DRONE_08.18.2023/4_Project%20Files/Drone%202023%20Master%20Assets/02_Transitions/DRONE%20transitions%20(30fps)/ATM_DRONE_TRANS_A.mov</pathurl>
																<rate>
																	<timebase>30</timebase>
																	<ntsc>TRUE</ntsc>
																</rate>
																<duration>248</duration>
																<timecode>
																	<rate>
																		<timebase>30</timebase>
																		<ntsc>TRUE</ntsc>
																	</rate>
																	<string>00;01;18;04</string>
																	<frame>2342</frame>
																	<displayformat>DF</displayformat>
																</timecode>
																<media>
																	<video>
																		<samplecharacteristics>
																			<rate>
																				<timebase>30</timebase>
																				<ntsc>TRUE</ntsc>
																			</rate>
																			<width>1920</width>
																			<height>1080</height>
																			<anamorphic>FALSE</anamorphic>
																			<pixelaspectratio>square</pixelaspectratio>
																			<fielddominance>none</fielddominance>
																		</samplecharacteristics>
																	</video>
																	<audio>
																		<samplecharacteristics>
																			<depth>16</depth>
																			<samplerate>48000</samplerate>
																		</samplecharacteristics>
																		<channelcount>2</channelcount>
																	</audio>
																</media>
															</file>
															<logginginfo>
																<description></description>
																<scene></scene>
																<shottake></shottake>
																<lognote></lognote>
																<good></good>
																<originalvideofilename></originalvideofilename>
																<originalaudiofilename></originalaudiofilename>
															</logginginfo>
															<colorinfo>
																<lut></lut>
																<lut1></lut1>
																<asc_sop></asc_sop>
																<asc_sat></asc_sat>
																<lut2></lut2>
															</colorinfo>
															<labels>
																<label2>Iris</label2>
															</labels>
														</clipitem>
														<enabled>TRUE</enabled>
														<locked>FALSE</locked>
													</track>
													<track TL.SQTrackShy="0" TL.SQTrackExpandedHeight="25" TL.SQTrackExpanded="0" MZ.TrackTargeted="0">
														<clipitem id="clipitem-391">
															<masterclipid>masterclip-157</masterclipid>
															<name>02 Zoom In - Quick / Transform Out</name>
															<enabled>TRUE</enabled>
															<duration>1294705</duration>
															<rate>
																<timebase>30</timebase>
																<ntsc>TRUE</ntsc>
															</rate>
															<start>0</start>
															<end>9</end>
															<in>0</in>
															<out>9</out>
															<pproTicksIn>0</pproTicksIn>
															<pproTicksOut>76281004800</pproTicksOut>
															<sequence id="sequence-7"/>
																<marker>
																	<comment></comment>
																	<name></name>
																	<in>20</in>
																	<out>-1</out>
																</marker>
															<labels>
																<label2>Iris</label2>
															</labels>
														</clipitem>
														<clipitem id="clipitem-392">
															<masterclipid>masterclip-159</masterclipid>
															<name>02 Zoom In - Quick / Transform In</name>
															<enabled>TRUE</enabled>
															<duration>1294705</duration>
															<rate>
																<timebase>30</timebase>
																<ntsc>TRUE</ntsc>
															</rate>
															<start>9</start>
															<end>17</end>
															<in>0</in>
															<out>8</out>
															<pproTicksIn>0</pproTicksIn>
															<pproTicksOut>67805337600</pproTicksOut>
															<sequence id="sequence-8"/>
															<labels>
																<label2>Iris</label2>
															</labels>
														</clipitem>
														<clipitem id="clipitem-393">
															<masterclipid>masterclip-157</masterclipid>
															<name>03 Zoom Out - Quick / Transform Out</name>
															<enabled>TRUE</enabled>
															<duration>1294705</duration>
															<rate>
																<timebase>30</timebase>
																<ntsc>TRUE</ntsc>
															</rate>
															<start>227</start>
															<end>236</end>
															<in>0</in>
															<out>9</out>
															<pproTicksIn>0</pproTicksIn>
															<pproTicksOut>76281004800</pproTicksOut>
															<sequence id="sequence-7"/>
																<marker>
																	<comment></comment>
																	<name></name>
																	<in>20</in>
																	<out>-1</out>
																</marker>
															<labels>
																<label2>Iris</label2>
															</labels>
														</clipitem>
														<clipitem id="clipitem-394">
															<masterclipid>masterclip-159</masterclipid>
															<name>03 Zoom Out - Quick / Transform In</name>
															<enabled>TRUE</enabled>
															<duration>1294705</duration>
															<rate>
																<timebase>30</timebase>
																<ntsc>TRUE</ntsc>
															</rate>
															<start>236</start>
															<end>245</end>
															<in>0</in>
															<out>9</out>
															<pproTicksIn>0</pproTicksIn>
															<pproTicksOut>76281004800</pproTicksOut>
															<sequence id="sequence-8"/>
															<filter>
																<effect>
																	<name>Basic Motion</name>
																	<effectid>basic</effectid>
																	<effectcategory>motion</effectcategory>
																	<effecttype>motion</effecttype>
																	<mediatype>video</mediatype>
																	<pproBypass>false</pproBypass>
																	<parameter authoringApp="PremierePro">
																		<parameterid>scale</parameterid>
																		<name>Scale</name>
																		<valuemin>0</valuemin>
																		<valuemax>1000</valuemax>
																		<value>100</value>
																	</parameter>
																	<parameter authoringApp="PremierePro">
																		<parameterid>rotation</parameterid>
																		<name>Rotation</name>
																		<valuemin>-8640</valuemin>
																		<valuemax>8640</valuemax>
																		<value>0</value>
																	</parameter>
																	<parameter authoringApp="PremierePro">
																		<parameterid>center</parameterid>
																		<name>Center</name>
																		<value>
																			<horiz>-0.5</horiz>
																			<vert>-0.499394</vert>
																		</value>
																	</parameter>
																	<parameter authoringApp="PremierePro">
																		<parameterid>centerOffset</parameterid>
																		<name>Anchor Point</name>
																		<value>
																			<horiz>0</horiz>
																			<vert>-0.00060606</vert>
																		</value>
																	</parameter>
																	<parameter authoringApp="PremierePro">
																		<parameterid>antiflicker</parameterid>
																		<name>Anti-flicker Filter</name>
																		<valuemin>0.0</valuemin>
																		<valuemax>1.0</valuemax>
																		<value>0</value>
																	</parameter>
																</effect>
															</filter>
															<labels>
																<label2>Iris</label2>
															</labels>
														</clipitem>
														<enabled>TRUE</enabled>
														<locked>FALSE</locked>
													</track>
													<track TL.SQTrackShy="0" TL.SQTrackExpandedHeight="25" TL.SQTrackExpanded="0" MZ.TrackTargeted="0">
														<enabled>TRUE</enabled>
														<locked>FALSE</locked>
													</track>
													<track TL.SQTrackShy="0" TL.SQTrackExpandedHeight="25" TL.SQTrackExpanded="0" MZ.TrackTargeted="0">
														<enabled>TRUE</enabled>
														<locked>FALSE</locked>
													</track>
												</video>
												<audio>
													<numOutputChannels>2</numOutputChannels>
													<format>
														<samplecharacteristics>
															<depth>16</depth>
															<samplerate>32000</samplerate>
														</samplecharacteristics>
													</format>
													<outputs>
														<group>
															<index>1</index>
															<numchannels>1</numchannels>
															<downmix>0</downmix>
															<channel>
																<index>1</index>
															</channel>
														</group>
														<group>
															<index>2</index>
															<numchannels>1</numchannels>
															<downmix>0</downmix>
															<channel>
																<index>2</index>
															</channel>
														</group>
													</outputs>
													<track TL.SQTrackAudioKeyframeStyle="0" TL.SQTrackShy="0" TL.SQTrackExpandedHeight="25" TL.SQTrackExpanded="0" MZ.TrackTargeted="1" PannerCurrentValue="0.5" PannerIsInverted="true" PannerStartKeyframe="-91445760000000000,0.5,0,0,0,0,0,0" PannerName="Balance" currentExplodedTrackIndex="0" totalExplodedTrackCount="2" premiereTrackType="Stereo">
														<clipitem id="clipitem-395" premiereChannelType="stereo">
															<masterclipid>masterclip-234</masterclipid>
															<name>ATM_DRONE_TRANS_A.mov</name>
															<enabled>TRUE</enabled>
															<duration>248</duration>
															<rate>
																<timebase>30</timebase>
																<ntsc>TRUE</ntsc>
															</rate>
															<start>0</start>
															<end>245</end>
															<in>3</in>
															<out>248</out>
															<pproTicksIn>25427001600</pproTicksIn>
															<pproTicksOut>2101965465600</pproTicksOut>
															<file id="file-216"/>
															<sourcetrack>
																<mediatype>audio</mediatype>
																<trackindex>1</trackindex>
															</sourcetrack>
															<filter>
																<effect>
																	<name>Gain</name>
																	<effectid>{61756678, 4761696e, 4b657947}</effectid>
																	<effecttype>filter</effecttype>
																	<mediatype>audio</mediatype>
																	<parameter authoringApp="PremierePro">
																		<parameterid>Gain(dB)</parameterid>
																		<name>Gain(dB)</name>
																		<valuemin>-96</valuemin>
																		<valuemax>96</valuemax>
																		<value>-9</value>
																	</parameter>
																</effect>
															</filter>
															<link>
																<linkclipref>clipitem-395</linkclipref>
																<mediatype>audio</mediatype>
																<trackindex>1</trackindex>
																<clipindex>1</clipindex>
																<groupindex>1</groupindex>
															</link>
															<link>
																<linkclipref>clipitem-396</linkclipref>
																<mediatype>audio</mediatype>
																<trackindex>2</trackindex>
																<clipindex>1</clipindex>
																<groupindex>1</groupindex>
															</link>
															<logginginfo>
																<description></description>
																<scene></scene>
																<shottake></shottake>
																<lognote></lognote>
																<good></good>
																<originalvideofilename></originalvideofilename>
																<originalaudiofilename></originalaudiofilename>
															</logginginfo>
															<colorinfo>
																<lut></lut>
																<lut1></lut1>
																<asc_sop></asc_sop>
																<asc_sat></asc_sat>
																<lut2></lut2>
															</colorinfo>
															<labels>
																<label2>Iris</label2>
															</labels>
														</clipitem>
														<enabled>TRUE</enabled>
														<locked>FALSE</locked>
														<outputchannelindex>1</outputchannelindex>
													</track>
													<track TL.SQTrackAudioKeyframeStyle="0" TL.SQTrackShy="0" TL.SQTrackExpandedHeight="25" TL.SQTrackExpanded="0" MZ.TrackTargeted="1" PannerCurrentValue="0.5" PannerIsInverted="true" PannerStartKeyframe="-91445760000000000,0.5,0,0,0,0,0,0" PannerName="Balance" currentExplodedTrackIndex="1" totalExplodedTrackCount="2" premiereTrackType="Stereo">
														<clipitem id="clipitem-396" premiereChannelType="stereo">
															<masterclipid>masterclip-234</masterclipid>
															<name>ATM_DRONE_TRANS_A.mov</name>
															<enabled>TRUE</enabled>
															<duration>248</duration>
															<rate>
																<timebase>30</timebase>
																<ntsc>TRUE</ntsc>
															</rate>
															<start>0</start>
															<end>245</end>
															<in>3</in>
															<out>248</out>
															<pproTicksIn>25427001600</pproTicksIn>
															<pproTicksOut>2101965465600</pproTicksOut>
															<file id="file-216"/>
															<sourcetrack>
																<mediatype>audio</mediatype>
																<trackindex>2</trackindex>
															</sourcetrack>
															<filter>
																<effect>
																	<name>Gain</name>
																	<effectid>{61756678, 4761696e, 4b657947}</effectid>
																	<effecttype>filter</effecttype>
																	<mediatype>audio</mediatype>
																	<parameter authoringApp="PremierePro">
																		<parameterid>Gain(dB)</parameterid>
																		<name>Gain(dB)</name>
																		<valuemin>-96</valuemin>
																		<valuemax>96</valuemax>
																		<value>-9</value>
																	</parameter>
																</effect>
															</filter>
															<link>
																<linkclipref>clipitem-395</linkclipref>
																<mediatype>audio</mediatype>
																<trackindex>1</trackindex>
																<clipindex>1</clipindex>
																<groupindex>1</groupindex>
															</link>
															<link>
																<linkclipref>clipitem-396</linkclipref>
																<mediatype>audio</mediatype>
																<trackindex>2</trackindex>
																<clipindex>1</clipindex>
																<groupindex>1</groupindex>
															</link>
															<logginginfo>
																<description></description>
																<scene></scene>
																<shottake></shottake>
																<lognote></lognote>
																<good></good>
																<originalvideofilename></originalvideofilename>
																<originalaudiofilename></originalaudiofilename>
															</logginginfo>
															<colorinfo>
																<lut></lut>
																<lut1></lut1>
																<asc_sop></asc_sop>
																<asc_sat></asc_sat>
																<lut2></lut2>
															</colorinfo>
															<labels>
																<label2>Iris</label2>
															</labels>
														</clipitem>
														<enabled>TRUE</enabled>
														<locked>FALSE</locked>
														<outputchannelindex>2</outputchannelindex>
													</track>
													<track TL.SQTrackAudioKeyframeStyle="0" TL.SQTrackShy="0" TL.SQTrackExpandedHeight="25" TL.SQTrackExpanded="0" MZ.TrackTargeted="1" PannerCurrentValue="0.5" PannerIsInverted="true" PannerStartKeyframe="-91445760000000000,0.5,0,0,0,0,0,0" PannerName="Balance" currentExplodedTrackIndex="0" totalExplodedTrackCount="2" premiereTrackType="Stereo">
														<enabled>TRUE</enabled>
														<locked>FALSE</locked>
														<outputchannelindex>1</outputchannelindex>
													</track>
													<track TL.SQTrackAudioKeyframeStyle="0" TL.SQTrackShy="0" TL.SQTrackExpandedHeight="25" TL.SQTrackExpanded="0" MZ.TrackTargeted="1" PannerCurrentValue="0.5" PannerIsInverted="true" PannerStartKeyframe="-91445760000000000,0.5,0,0,0,0,0,0" PannerName="Balance" currentExplodedTrackIndex="1" totalExplodedTrackCount="2" premiereTrackType="Stereo">
														<enabled>TRUE</enabled>
														<locked>FALSE</locked>
														<outputchannelindex>2</outputchannelindex>
													</track>
													<track TL.SQTrackAudioKeyframeStyle="0" TL.SQTrackShy="0" TL.SQTrackExpandedHeight="25" TL.SQTrackExpanded="0" MZ.TrackTargeted="1" PannerCurrentValue="0.5" PannerIsInverted="true" PannerStartKeyframe="-91445760000000000,0.5,0,0,0,0,0,0" PannerName="Balance" currentExplodedTrackIndex="0" totalExplodedTrackCount="2" premiereTrackType="Stereo">
														<enabled>TRUE</enabled>
														<locked>FALSE</locked>
														<outputchannelindex>1</outputchannelindex>
													</track>
													<track TL.SQTrackAudioKeyframeStyle="0" TL.SQTrackShy="0" TL.SQTrackExpandedHeight="25" TL.SQTrackExpanded="0" MZ.TrackTargeted="1" PannerCurrentValue="0.5" PannerIsInverted="true" PannerStartKeyframe="-91445760000000000,0.5,0,0,0,0,0,0" PannerName="Balance" currentExplodedTrackIndex="1" totalExplodedTrackCount="2" premiereTrackType="Stereo">
														<enabled>TRUE</enabled>
														<locked>FALSE</locked>
														<outputchannelindex>2</outputchannelindex>
													</track>
												</audio>
											</media>
											<timecode>
												<rate>
													<timebase>30</timebase>
													<ntsc>TRUE</ntsc>
												</rate>
												<string>00;00;00;00</string>
												<frame>0</frame>
												<displayformat>DF</displayformat>
											</timecode>
												<marker>
													<comment></comment>
													<name></name>
													<in>9</in>
													<out>-1</out>
													<pproColor>4281828977</pproColor>
												</marker>
												<marker>
													<comment></comment>
													<name></name>
													<in>236</in>
													<out>-1</out>
													<pproColor>4281828977</pproColor>
												</marker>
											<logginginfo>
												<description></description>
												<scene></scene>
												<shottake></shottake>
												<lognote></lognote>
												<good></good>
												<originalvideofilename></originalvideofilename>
												<originalaudiofilename></originalaudiofilename>
											</logginginfo>
										</sequence>
											<marker>
												<comment></comment>
												<name></name>
												<in>9</in>
												<out>-1</out>
												<pproColor>4281828977</pproColor>
											</marker>
											<marker>
												<comment></comment>
												<name></name>
												<in>236</in>
												<out>-1</out>
												<pproColor>4281828977</pproColor>
											</marker>
										<link>
											<linkclipref>clipitem-389</linkclipref>
											<mediatype>video</mediatype>
											<trackindex>5</trackindex>
											<clipindex>1</clipindex>
										</link>
										<link>
											<linkclipref>clipitem-409</linkclipref>
											<mediatype>audio</mediatype>
											<trackindex>9</trackindex>
											<clipindex>1</clipindex>
											<groupindex>1</groupindex>
										</link>
										<link>
											<linkclipref>clipitem-411</linkclipref>
											<mediatype>audio</mediatype>
											<trackindex>10</trackindex>
											<clipindex>1</clipindex>
											<groupindex>1</groupindex>
										</link>
										<labels>
											<label2>Tan</label2>
										</labels>
									</clipitem>
									<clipitem id="clipitem-397">
										<masterclipid>masterclip-235</masterclipid>
										<name>Trans C</name>
										<enabled>TRUE</enabled>
										<duration>5697</duration>
										<rate>
											<timebase>30</timebase>
											<ntsc>TRUE</ntsc>
										</rate>
										<start>5330</start>
										<end>5570</end>
										<in>0</in>
										<out>240</out>
										<pproTicksIn>0</pproTicksIn>
										<pproTicksOut>2034160128000</pproTicksOut>
										<sequence id="sequence-23" TL.SQAudioVisibleBase="0" TL.SQVideoVisibleBase="0" TL.SQVisibleBaseTime="288172684800" TL.SQAVDividerPosition="0.5" TL.SQHideShyTracks="0" TL.SQHeaderWidth="236" Monitor.ProgramZoomOut="2034160128000" Monitor.ProgramZoomIn="0" TL.SQTimePerPixel="0.0017296979344659084" MZ.EditLine="576345369600" MZ.Sequence.PreviewFrameSizeHeight="1080" MZ.Sequence.PreviewFrameSizeWidth="1920" MZ.Sequence.AudioTimeDisplayFormat="200" MZ.Sequence.PreviewRenderingClassID="1297106761" MZ.Sequence.PreviewRenderingPresetCodec="1297107278" MZ.Sequence.PreviewRenderingPresetPath="EncoderPresets/SequencePreview/795454d9-d3c2-429d-9474-923ab13b7018/I-Frame Only MPEG.epr" MZ.Sequence.PreviewUseMaxRenderQuality="false" MZ.Sequence.PreviewUseMaxBitDepth="false" MZ.Sequence.EditingModeGUID="795454d9-d3c2-429d-9474-923ab13b7018" MZ.Sequence.VideoTimeDisplayFormat="102" MZ.WorkOutPoint="15239249625600" MZ.WorkInPoint="0">
											<duration>240</duration>
											<rate>
												<timebase>30</timebase>
												<ntsc>TRUE</ntsc>
											</rate>
											<name>Trans C</name>
											<media>
												<video>
													<format>
														<samplecharacteristics>
															<rate>
																<timebase>30</timebase>
																<ntsc>TRUE</ntsc>
															</rate>
															<codec>
																<name>Apple ProRes 422</name>
																<appspecificdata>
																	<appname>Final Cut Pro</appname>
																	<appmanufacturer>Apple Inc.</appmanufacturer>
																	<appversion>7.0</appversion>
																	<data>
																		<qtcodec>
																			<codecname>Apple ProRes 422</codecname>
																			<codectypename>Apple ProRes 422</codectypename>
																			<codectypecode>apcn</codectypecode>
																			<codecvendorcode>appl</codecvendorcode>
																			<spatialquality>1024</spatialquality>
																			<temporalquality>0</temporalquality>
																			<keyframerate>0</keyframerate>
																			<datarate>0</datarate>
																		</qtcodec>
																	</data>
																</appspecificdata>
															</codec>
															<width>1920</width>
															<height>1080</height>
															<anamorphic>FALSE</anamorphic>
															<pixelaspectratio>square</pixelaspectratio>
															<fielddominance>none</fielddominance>
															<colordepth>24</colordepth>
														</samplecharacteristics>
													</format>
													<track TL.SQTrackShy="0" TL.SQTrackExpandedHeight="25" TL.SQTrackExpanded="0" MZ.TrackTargeted="1">
														<clipitem id="clipitem-398">
															<masterclipid>masterclip-236</masterclipid>
															<name>ATM_DRONE_TRANS_C.mov</name>
															<enabled>TRUE</enabled>
															<duration>240</duration>
															<rate>
																<timebase>30</timebase>
																<ntsc>TRUE</ntsc>
															</rate>
															<start>9</start>
															<end>229</end>
															<in>12</in>
															<out>232</out>
															<pproTicksIn>101708006400</pproTicksIn>
															<pproTicksOut>1966354790400</pproTicksOut>
															<alphatype>straight</alphatype>
															<pixelaspectratio>square</pixelaspectratio>
															<anamorphic>FALSE</anamorphic>
															<file id="file-217">
																<name>ATM_DRONE_TRANS_C.mov</name>
																<pathurl>file://localhost/Volumes/T7/DRONE_08.18.2023/4_Project%20Files/Drone%202023%20Master%20Assets/02_Transitions/DRONE%20transitions%20(30fps)/ATM_DRONE_TRANS_C.mov</pathurl>
																<rate>
																	<timebase>30</timebase>
																	<ntsc>TRUE</ntsc>
																</rate>
																<duration>240</duration>
																<timecode>
																	<rate>
																		<timebase>30</timebase>
																		<ntsc>TRUE</ntsc>
																	</rate>
																	<string>00;01;09;06</string>
																	<frame>2074</frame>
																	<displayformat>DF</displayformat>
																</timecode>
																<media>
																	<video>
																		<samplecharacteristics>
																			<rate>
																				<timebase>30</timebase>
																				<ntsc>TRUE</ntsc>
																			</rate>
																			<width>1920</width>
																			<height>1080</height>
																			<anamorphic>FALSE</anamorphic>
																			<pixelaspectratio>square</pixelaspectratio>
																			<fielddominance>none</fielddominance>
																		</samplecharacteristics>
																	</video>
																	<audio>
																		<samplecharacteristics>
																			<depth>16</depth>
																			<samplerate>48000</samplerate>
																		</samplecharacteristics>
																		<channelcount>2</channelcount>
																	</audio>
																</media>
															</file>
															<logginginfo>
																<description></description>
																<scene></scene>
																<shottake></shottake>
																<lognote></lognote>
																<good></good>
																<originalvideofilename></originalvideofilename>
																<originalaudiofilename></originalaudiofilename>
															</logginginfo>
															<colorinfo>
																<lut></lut>
																<lut1></lut1>
																<asc_sop></asc_sop>
																<asc_sat></asc_sat>
																<lut2></lut2>
															</colorinfo>
															<labels>
																<label2>Iris</label2>
															</labels>
														</clipitem>
														<enabled>TRUE</enabled>
														<locked>FALSE</locked>
													</track>
													<track TL.SQTrackShy="0" TL.SQTrackExpandedHeight="25" TL.SQTrackExpanded="0" MZ.TrackTargeted="0">
														<clipitem id="clipitem-399">
															<masterclipid>masterclip-157</masterclipid>
															<name>02 Zoom In - Quick / Transform Out</name>
															<enabled>TRUE</enabled>
															<duration>1294705</duration>
															<rate>
																<timebase>30</timebase>
																<ntsc>TRUE</ntsc>
															</rate>
															<start>0</start>
															<end>9</end>
															<in>0</in>
															<out>9</out>
															<pproTicksIn>0</pproTicksIn>
															<pproTicksOut>76281004800</pproTicksOut>
															<sequence id="sequence-7"/>
																<marker>
																	<comment></comment>
																	<name></name>
																	<in>20</in>
																	<out>-1</out>
																</marker>
															<labels>
																<label2>Iris</label2>
															</labels>
														</clipitem>
														<clipitem id="clipitem-400">
															<masterclipid>masterclip-159</masterclipid>
															<name>02 Zoom In - Quick / Transform In</name>
															<enabled>TRUE</enabled>
															<duration>1294705</duration>
															<rate>
																<timebase>30</timebase>
																<ntsc>TRUE</ntsc>
															</rate>
															<start>9</start>
															<end>17</end>
															<in>0</in>
															<out>8</out>
															<pproTicksIn>0</pproTicksIn>
															<pproTicksOut>67805337600</pproTicksOut>
															<sequence id="sequence-8"/>
															<labels>
																<label2>Iris</label2>
															</labels>
														</clipitem>
														<clipitem id="clipitem-401">
															<masterclipid>masterclip-157</masterclipid>
															<name>03 Zoom Out - Quick / Transform Out</name>
															<enabled>TRUE</enabled>
															<duration>1294705</duration>
															<rate>
																<timebase>30</timebase>
																<ntsc>TRUE</ntsc>
															</rate>
															<start>220</start>
															<end>229</end>
															<in>0</in>
															<out>9</out>
															<pproTicksIn>0</pproTicksIn>
															<pproTicksOut>76281004800</pproTicksOut>
															<sequence id="sequence-7"/>
																<marker>
																	<comment></comment>
																	<name></name>
																	<in>20</in>
																	<out>-1</out>
																</marker>
															<labels>
																<label2>Iris</label2>
															</labels>
														</clipitem>
														<clipitem id="clipitem-402">
															<masterclipid>masterclip-159</masterclipid>
															<name>03 Zoom Out - Quick / Transform In</name>
															<enabled>TRUE</enabled>
															<duration>1294705</duration>
															<rate>
																<timebase>30</timebase>
																<ntsc>TRUE</ntsc>
															</rate>
															<start>229</start>
															<end>238</end>
															<in>0</in>
															<out>9</out>
															<pproTicksIn>0</pproTicksIn>
															<pproTicksOut>76281004800</pproTicksOut>
															<sequence id="sequence-8"/>
															<filter>
																<effect>
																	<name>Basic Motion</name>
																	<effectid>basic</effectid>
																	<effectcategory>motion</effectcategory>
																	<effecttype>motion</effecttype>
																	<mediatype>video</mediatype>
																	<pproBypass>false</pproBypass>
																	<parameter authoringApp="PremierePro">
																		<parameterid>scale</parameterid>
																		<name>Scale</name>
																		<valuemin>0</valuemin>
																		<valuemax>1000</valuemax>
																		<value>100</value>
																	</parameter>
																	<parameter authoringApp="PremierePro">
																		<parameterid>rotation</parameterid>
																		<name>Rotation</name>
																		<valuemin>-8640</valuemin>
																		<valuemax>8640</valuemax>
																		<value>0</value>
																	</parameter>
																	<parameter authoringApp="PremierePro">
																		<parameterid>center</parameterid>
																		<name>Center</name>
																		<value>
																			<horiz>-0.5</horiz>
																			<vert>-0.499394</vert>
																		</value>
																	</parameter>
																	<parameter authoringApp="PremierePro">
																		<parameterid>centerOffset</parameterid>
																		<name>Anchor Point</name>
																		<value>
																			<horiz>0</horiz>
																			<vert>-0.00060606</vert>
																		</value>
																	</parameter>
																	<parameter authoringApp="PremierePro">
																		<parameterid>antiflicker</parameterid>
																		<name>Anti-flicker Filter</name>
																		<valuemin>0.0</valuemin>
																		<valuemax>1.0</valuemax>
																		<value>0</value>
																	</parameter>
																</effect>
															</filter>
															<labels>
																<label2>Iris</label2>
															</labels>
														</clipitem>
														<enabled>TRUE</enabled>
														<locked>FALSE</locked>
													</track>
													<track TL.SQTrackShy="0" TL.SQTrackExpandedHeight="25" TL.SQTrackExpanded="0" MZ.TrackTargeted="0">
														<enabled>TRUE</enabled>
														<locked>FALSE</locked>
													</track>
												</video>
												<audio>
													<numOutputChannels>2</numOutputChannels>
													<format>
														<samplecharacteristics>
															<depth>16</depth>
															<samplerate>32000</samplerate>
														</samplecharacteristics>
													</format>
													<outputs>
														<group>
															<index>1</index>
															<numchannels>1</numchannels>
															<downmix>0</downmix>
															<channel>
																<index>1</index>
															</channel>
														</group>
														<group>
															<index>2</index>
															<numchannels>1</numchannels>
															<downmix>0</downmix>
															<channel>
																<index>2</index>
															</channel>
														</group>
													</outputs>
													<track TL.SQTrackAudioKeyframeStyle="0" TL.SQTrackShy="0" TL.SQTrackExpandedHeight="25" TL.SQTrackExpanded="0" MZ.TrackTargeted="1" PannerCurrentValue="0.5" PannerIsInverted="true" PannerStartKeyframe="-91445760000000000,0.5,0,0,0,0,0,0" PannerName="Balance" currentExplodedTrackIndex="0" totalExplodedTrackCount="2" premiereTrackType="Stereo">
														<clipitem id="clipitem-403" premiereChannelType="stereo">
															<masterclipid>masterclip-236</masterclipid>
															<name>ATM_DRONE_TRANS_C.mov</name>
															<enabled>TRUE</enabled>
															<duration>240</duration>
															<rate>
																<timebase>30</timebase>
																<ntsc>TRUE</ntsc>
															</rate>
															<start>0</start>
															<end>240</end>
															<in>0</in>
															<out>240</out>
															<pproTicksIn>0</pproTicksIn>
															<pproTicksOut>2034160128000</pproTicksOut>
															<file id="file-217"/>
															<sourcetrack>
																<mediatype>audio</mediatype>
																<trackindex>1</trackindex>
															</sourcetrack>
															<filter>
																<effect>
																	<name>Gain</name>
																	<effectid>{61756678, 4761696e, 4b657947}</effectid>
																	<effecttype>filter</effecttype>
																	<mediatype>audio</mediatype>
																	<parameter authoringApp="PremierePro">
																		<parameterid>Gain(dB)</parameterid>
																		<name>Gain(dB)</name>
																		<valuemin>-96</valuemin>
																		<valuemax>96</valuemax>
																		<value>-9</value>
																	</parameter>
																</effect>
															</filter>
															<link>
																<linkclipref>clipitem-403</linkclipref>
																<mediatype>audio</mediatype>
																<trackindex>1</trackindex>
																<clipindex>1</clipindex>
																<groupindex>1</groupindex>
															</link>
															<link>
																<linkclipref>clipitem-404</linkclipref>
																<mediatype>audio</mediatype>
																<trackindex>2</trackindex>
																<clipindex>1</clipindex>
																<groupindex>1</groupindex>
															</link>
															<logginginfo>
																<description></description>
																<scene></scene>
																<shottake></shottake>
																<lognote></lognote>
																<good></good>
																<originalvideofilename></originalvideofilename>
																<originalaudiofilename></originalaudiofilename>
															</logginginfo>
															<colorinfo>
																<lut></lut>
																<lut1></lut1>
																<asc_sop></asc_sop>
																<asc_sat></asc_sat>
																<lut2></lut2>
															</colorinfo>
															<labels>
																<label2>Iris</label2>
															</labels>
														</clipitem>
														<enabled>TRUE</enabled>
														<locked>FALSE</locked>
														<outputchannelindex>1</outputchannelindex>
													</track>
													<track TL.SQTrackAudioKeyframeStyle="0" TL.SQTrackShy="0" TL.SQTrackExpandedHeight="25" TL.SQTrackExpanded="0" MZ.TrackTargeted="1" PannerCurrentValue="0.5" PannerIsInverted="true" PannerStartKeyframe="-91445760000000000,0.5,0,0,0,0,0,0" PannerName="Balance" currentExplodedTrackIndex="1" totalExplodedTrackCount="2" premiereTrackType="Stereo">
														<clipitem id="clipitem-404" premiereChannelType="stereo">
															<masterclipid>masterclip-236</masterclipid>
															<name>ATM_DRONE_TRANS_C.mov</name>
															<enabled>TRUE</enabled>
															<duration>240</duration>
															<rate>
																<timebase>30</timebase>
																<ntsc>TRUE</ntsc>
															</rate>
															<start>0</start>
															<end>240</end>
															<in>0</in>
															<out>240</out>
															<pproTicksIn>0</pproTicksIn>
															<pproTicksOut>2034160128000</pproTicksOut>
															<file id="file-217"/>
															<sourcetrack>
																<mediatype>audio</mediatype>
																<trackindex>2</trackindex>
															</sourcetrack>
															<filter>
																<effect>
																	<name>Gain</name>
																	<effectid>{61756678, 4761696e, 4b657947}</effectid>
																	<effecttype>filter</effecttype>
																	<mediatype>audio</mediatype>
																	<parameter authoringApp="PremierePro">
																		<parameterid>Gain(dB)</parameterid>
																		<name>Gain(dB)</name>
																		<valuemin>-96</valuemin>
																		<valuemax>96</valuemax>
																		<value>-9</value>
																	</parameter>
																</effect>
															</filter>
															<link>
																<linkclipref>clipitem-403</linkclipref>
																<mediatype>audio</mediatype>
																<trackindex>1</trackindex>
																<clipindex>1</clipindex>
																<groupindex>1</groupindex>
															</link>
															<link>
																<linkclipref>clipitem-404</linkclipref>
																<mediatype>audio</mediatype>
																<trackindex>2</trackindex>
																<clipindex>1</clipindex>
																<groupindex>1</groupindex>
															</link>
															<logginginfo>
																<description></description>
																<scene></scene>
																<shottake></shottake>
																<lognote></lognote>
																<good></good>
																<originalvideofilename></originalvideofilename>
																<originalaudiofilename></originalaudiofilename>
															</logginginfo>
															<colorinfo>
																<lut></lut>
																<lut1></lut1>
																<asc_sop></asc_sop>
																<asc_sat></asc_sat>
																<lut2></lut2>
															</colorinfo>
															<labels>
																<label2>Iris</label2>
															</labels>
														</clipitem>
														<enabled>TRUE</enabled>
														<locked>FALSE</locked>
														<outputchannelindex>2</outputchannelindex>
													</track>
													<track TL.SQTrackAudioKeyframeStyle="0" TL.SQTrackShy="0" TL.SQTrackExpandedHeight="25" TL.SQTrackExpanded="0" MZ.TrackTargeted="1" PannerCurrentValue="0.5" PannerIsInverted="true" PannerStartKeyframe="-91445760000000000,0.5,0,0,0,0,0,0" PannerName="Balance" currentExplodedTrackIndex="0" totalExplodedTrackCount="2" premiereTrackType="Stereo">
														<enabled>TRUE</enabled>
														<locked>FALSE</locked>
														<outputchannelindex>1</outputchannelindex>
													</track>
													<track TL.SQTrackAudioKeyframeStyle="0" TL.SQTrackShy="0" TL.SQTrackExpandedHeight="25" TL.SQTrackExpanded="0" MZ.TrackTargeted="1" PannerCurrentValue="0.5" PannerIsInverted="true" PannerStartKeyframe="-91445760000000000,0.5,0,0,0,0,0,0" PannerName="Balance" currentExplodedTrackIndex="1" totalExplodedTrackCount="2" premiereTrackType="Stereo">
														<enabled>TRUE</enabled>
														<locked>FALSE</locked>
														<outputchannelindex>2</outputchannelindex>
													</track>
													<track TL.SQTrackAudioKeyframeStyle="0" TL.SQTrackShy="0" TL.SQTrackExpandedHeight="25" TL.SQTrackExpanded="0" MZ.TrackTargeted="1" PannerCurrentValue="0.5" PannerIsInverted="true" PannerStartKeyframe="-91445760000000000,0.5,0,0,0,0,0,0" PannerName="Balance" currentExplodedTrackIndex="0" totalExplodedTrackCount="2" premiereTrackType="Stereo">
														<enabled>TRUE</enabled>
														<locked>FALSE</locked>
														<outputchannelindex>1</outputchannelindex>
													</track>
													<track TL.SQTrackAudioKeyframeStyle="0" TL.SQTrackShy="0" TL.SQTrackExpandedHeight="25" TL.SQTrackExpanded="0" MZ.TrackTargeted="1" PannerCurrentValue="0.5" PannerIsInverted="true" PannerStartKeyframe="-91445760000000000,0.5,0,0,0,0,0,0" PannerName="Balance" currentExplodedTrackIndex="1" totalExplodedTrackCount="2" premiereTrackType="Stereo">
														<enabled>TRUE</enabled>
														<locked>FALSE</locked>
														<outputchannelindex>2</outputchannelindex>
													</track>
												</audio>
											</media>
											<timecode>
												<rate>
													<timebase>30</timebase>
													<ntsc>TRUE</ntsc>
												</rate>
												<string>00;00;00;00</string>
												<frame>0</frame>
												<displayformat>DF</displayformat>
											</timecode>
												<marker>
													<comment></comment>
													<name></name>
													<in>9</in>
													<out>-1</out>
													<pproColor>4281828977</pproColor>
												</marker>
												<marker>
													<comment></comment>
													<name></name>
													<in>229</in>
													<out>-1</out>
													<pproColor>4281828977</pproColor>
												</marker>
											<logginginfo>
												<description></description>
												<scene></scene>
												<shottake></shottake>
												<lognote></lognote>
												<good></good>
												<originalvideofilename></originalvideofilename>
												<originalaudiofilename></originalaudiofilename>
											</logginginfo>
										</sequence>
											<marker>
												<comment></comment>
												<name></name>
												<in>9</in>
												<out>-1</out>
												<pproColor>4281828977</pproColor>
											</marker>
											<marker>
												<comment></comment>
												<name></name>
												<in>229</in>
												<out>-1</out>
												<pproColor>4281828977</pproColor>
											</marker>
										<link>
											<linkclipref>clipitem-397</linkclipref>
											<mediatype>video</mediatype>
											<trackindex>5</trackindex>
											<clipindex>2</clipindex>
										</link>
										<link>
											<linkclipref>clipitem-410</linkclipref>
											<mediatype>audio</mediatype>
											<trackindex>9</trackindex>
											<clipindex>2</clipindex>
											<groupindex>1</groupindex>
										</link>
										<link>
											<linkclipref>clipitem-412</linkclipref>
											<mediatype>audio</mediatype>
											<trackindex>10</trackindex>
											<clipindex>2</clipindex>
											<groupindex>1</groupindex>
										</link>
										<labels>
											<label2>Tan</label2>
										</labels>
									</clipitem>
									<enabled>TRUE</enabled>
									<locked>FALSE</locked>
								</track>
							</video>
							<audio>
								<numOutputChannels>2</numOutputChannels>
								<format>
									<samplecharacteristics>
										<depth>16</depth>
										<samplerate>32000</samplerate>
									</samplecharacteristics>
								</format>
								<outputs>
									<group>
										<index>1</index>
										<numchannels>1</numchannels>
										<downmix>0</downmix>
										<channel>
											<index>1</index>
										</channel>
									</group>
									<group>
										<index>2</index>
										<numchannels>1</numchannels>
										<downmix>0</downmix>
										<channel>
											<index>2</index>
										</channel>
									</group>
								</outputs>
								<track TL.SQTrackAudioKeyframeStyle="0" TL.SQTrackShy="0" TL.SQTrackExpandedHeight="25" TL.SQTrackExpanded="0" MZ.TrackTargeted="1" PannerCurrentValue="0.5" PannerIsInverted="true" PannerStartKeyframe="-91445760000000000,0.5,0,0,0,0,0,0" PannerName="Balance" currentExplodedTrackIndex="0" totalExplodedTrackCount="2" premiereTrackType="Stereo">
									<clipitem id="clipitem-405" premiereChannelType="stereo">
										<masterclipid>masterclip-206</masterclipid>
										<name>DRONE_Dunebashing_1</name>
										<enabled>TRUE</enabled>
										<duration>2529</duration>
										<rate>
											<timebase>30</timebase>
											<ntsc>TRUE</ntsc>
										</rate>
										<start>0</start>
										<end>-1</end>
										<in>0</in>
										<out>1843</out>
										<pproTicksIn>0</pproTicksIn>
										<pproTicksOut>15620654649600</pproTicksOut>
										<sequence id="sequence-20"/>
										<sourcetrack>
											<mediatype>audio</mediatype>
											<trackindex>0</trackindex>
										</sourcetrack>
										<link>
											<linkclipref>clipitem-359</linkclipref>
											<mediatype>video</mediatype>
											<trackindex>1</trackindex>
											<clipindex>1</clipindex>
										</link>
										<link>
											<linkclipref>clipitem-405</linkclipref>
											<mediatype>audio</mediatype>
											<trackindex>1</trackindex>
											<clipindex>1</clipindex>
											<groupindex>1</groupindex>
										</link>
										<link>
											<linkclipref>clipitem-407</linkclipref>
											<mediatype>audio</mediatype>
											<trackindex>2</trackindex>
											<clipindex>1</clipindex>
											<groupindex>1</groupindex>
										</link>
										<labels>
											<label2>Forest</label2>
										</labels>
									</clipitem>
									<transitionitem>
										<start>1812</start>
										<end>1843</end>
										<pproTicksIn>15357908966400</pproTicksIn>
										<pproTicksOut>15620654649600</pproTicksOut>
										<alignment>end-black</alignment>
										<cutPointTicks>262745683200</cutPointTicks>
										<rate>
											<timebase>30</timebase>
											<ntsc>TRUE</ntsc>
										</rate>
										<effect>
											<name>Cross Fade ( 0dB)</name>
											<effectid>KGAudioTransCrossFade0dB</effectid>
											<effecttype>transition</effecttype>
											<mediatype>audio</mediatype>
											<wipecode>0</wipecode>
											<wipeaccuracy>100</wipeaccuracy>
											<startratio>0</startratio>
											<endratio>1</endratio>
											<reverse>FALSE</reverse>
										</effect>
									</transitionitem>
									<clipitem id="clipitem-406" premiereChannelType="stereo">
										<masterclipid>masterclip-217</masterclipid>
										<name>DRONE_Hollywood_2</name>
										<enabled>TRUE</enabled>
										<duration>6740</duration>
										<rate>
											<timebase>30</timebase>
											<ntsc>TRUE</ntsc>
										</rate>
										<start>2061</start>
										<end>5339</end>
										<in>0</in>
										<out>3278</out>
										<pproTicksIn>0</pproTicksIn>
										<pproTicksOut>27783237081600</pproTicksOut>
										<sequence id="sequence-21"/>
										<sourcetrack>
											<mediatype>audio</mediatype>
											<trackindex>0</trackindex>
										</sourcetrack>
										<link>
											<linkclipref>clipitem-371</linkclipref>
											<mediatype>video</mediatype>
											<trackindex>1</trackindex>
											<clipindex>2</clipindex>
										</link>
										<link>
											<linkclipref>clipitem-406</linkclipref>
											<mediatype>audio</mediatype>
											<trackindex>1</trackindex>
											<clipindex>3</clipindex>
											<groupindex>1</groupindex>
										</link>
										<link>
											<linkclipref>clipitem-408</linkclipref>
											<mediatype>audio</mediatype>
											<trackindex>2</trackindex>
											<clipindex>3</clipindex>
											<groupindex>1</groupindex>
										</link>
										<labels>
											<label2>Forest</label2>
										</labels>
									</clipitem>
									<enabled>TRUE</enabled>
									<locked>FALSE</locked>
									<outputchannelindex>1</outputchannelindex>
								</track>
								<track TL.SQTrackAudioKeyframeStyle="0" TL.SQTrackShy="0" TL.SQTrackExpandedHeight="25" TL.SQTrackExpanded="0" MZ.TrackTargeted="1" PannerCurrentValue="0.5" PannerIsInverted="true" PannerStartKeyframe="-91445760000000000,0.5,0,0,0,0,0,0" PannerName="Balance" currentExplodedTrackIndex="1" totalExplodedTrackCount="2" premiereTrackType="Stereo">
									<clipitem id="clipitem-407" premiereChannelType="stereo">
										<masterclipid>masterclip-206</masterclipid>
										<name>DRONE_Dunebashing_1</name>
										<enabled>TRUE</enabled>
										<duration>2529</duration>
										<rate>
											<timebase>30</timebase>
											<ntsc>TRUE</ntsc>
										</rate>
										<start>0</start>
										<end>-1</end>
										<in>0</in>
										<out>1843</out>
										<pproTicksIn>0</pproTicksIn>
										<pproTicksOut>15620654649600</pproTicksOut>
										<sequence id="sequence-20"/>
										<sourcetrack>
											<mediatype>audio</mediatype>
											<trackindex>1</trackindex>
										</sourcetrack>
										<link>
											<linkclipref>clipitem-359</linkclipref>
											<mediatype>video</mediatype>
											<trackindex>1</trackindex>
											<clipindex>1</clipindex>
										</link>
										<link>
											<linkclipref>clipitem-405</linkclipref>
											<mediatype>audio</mediatype>
											<trackindex>1</trackindex>
											<clipindex>1</clipindex>
											<groupindex>1</groupindex>
										</link>
										<link>
											<linkclipref>clipitem-407</linkclipref>
											<mediatype>audio</mediatype>
											<trackindex>2</trackindex>
											<clipindex>1</clipindex>
											<groupindex>1</groupindex>
										</link>
										<labels>
											<label2>Forest</label2>
										</labels>
									</clipitem>
									<transitionitem>
										<start>1812</start>
										<end>1843</end>
										<pproTicksIn>15357908966400</pproTicksIn>
										<pproTicksOut>15620654649600</pproTicksOut>
										<alignment>end-black</alignment>
										<cutPointTicks>262745683200</cutPointTicks>
										<rate>
											<timebase>30</timebase>
											<ntsc>TRUE</ntsc>
										</rate>
										<effect>
											<name>Cross Fade ( 0dB)</name>
											<effectid>KGAudioTransCrossFade0dB</effectid>
											<effecttype>transition</effecttype>
											<mediatype>audio</mediatype>
											<wipecode>0</wipecode>
											<wipeaccuracy>100</wipeaccuracy>
											<startratio>0</startratio>
											<endratio>1</endratio>
											<reverse>FALSE</reverse>
										</effect>
									</transitionitem>
									<clipitem id="clipitem-408" premiereChannelType="stereo">
										<masterclipid>masterclip-217</masterclipid>
										<name>DRONE_Hollywood_2</name>
										<enabled>TRUE</enabled>
										<duration>6740</duration>
										<rate>
											<timebase>30</timebase>
											<ntsc>TRUE</ntsc>
										</rate>
										<start>2061</start>
										<end>5339</end>
										<in>0</in>
										<out>3278</out>
										<pproTicksIn>0</pproTicksIn>
										<pproTicksOut>27783237081600</pproTicksOut>
										<sequence id="sequence-21"/>
										<sourcetrack>
											<mediatype>audio</mediatype>
											<trackindex>1</trackindex>
										</sourcetrack>
										<link>
											<linkclipref>clipitem-371</linkclipref>
											<mediatype>video</mediatype>
											<trackindex>1</trackindex>
											<clipindex>2</clipindex>
										</link>
										<link>
											<linkclipref>clipitem-406</linkclipref>
											<mediatype>audio</mediatype>
											<trackindex>1</trackindex>
											<clipindex>3</clipindex>
											<groupindex>1</groupindex>
										</link>
										<link>
											<linkclipref>clipitem-408</linkclipref>
											<mediatype>audio</mediatype>
											<trackindex>2</trackindex>
											<clipindex>3</clipindex>
											<groupindex>1</groupindex>
										</link>
										<labels>
											<label2>Forest</label2>
										</labels>
									</clipitem>
									<enabled>TRUE</enabled>
									<locked>FALSE</locked>
									<outputchannelindex>2</outputchannelindex>
								</track>
								<track TL.SQTrackAudioKeyframeStyle="0" TL.SQTrackShy="0" TL.SQTrackExpandedHeight="25" TL.SQTrackExpanded="0" MZ.TrackTargeted="1" PannerCurrentValue="0.5" PannerIsInverted="true" PannerStartKeyframe="-91445760000000000,0.5,0,0,0,0,0,0" PannerName="Balance" currentExplodedTrackIndex="0" totalExplodedTrackCount="2" premiereTrackType="Stereo">
									<enabled>TRUE</enabled>
									<locked>FALSE</locked>
									<outputchannelindex>1</outputchannelindex>
								</track>
								<track TL.SQTrackAudioKeyframeStyle="0" TL.SQTrackShy="0" TL.SQTrackExpandedHeight="25" TL.SQTrackExpanded="0" MZ.TrackTargeted="1" PannerCurrentValue="0.5" PannerIsInverted="true" PannerStartKeyframe="-91445760000000000,0.5,0,0,0,0,0,0" PannerName="Balance" currentExplodedTrackIndex="1" totalExplodedTrackCount="2" premiereTrackType="Stereo">
									<enabled>TRUE</enabled>
									<locked>FALSE</locked>
									<outputchannelindex>2</outputchannelindex>
								</track>
								<track TL.SQTrackAudioKeyframeStyle="0" TL.SQTrackShy="0" TL.SQTrackExpandedHeight="25" TL.SQTrackExpanded="0" MZ.TrackTargeted="1" PannerCurrentValue="0.5" PannerIsInverted="true" PannerStartKeyframe="-91445760000000000,0.5,0,0,0,0,0,0" PannerName="Balance" currentExplodedTrackIndex="0" totalExplodedTrackCount="2" premiereTrackType="Stereo">
									<enabled>TRUE</enabled>
									<locked>FALSE</locked>
									<outputchannelindex>1</outputchannelindex>
								</track>
								<track TL.SQTrackAudioKeyframeStyle="0" TL.SQTrackShy="0" TL.SQTrackExpandedHeight="25" TL.SQTrackExpanded="0" MZ.TrackTargeted="1" PannerCurrentValue="0.5" PannerIsInverted="true" PannerStartKeyframe="-91445760000000000,0.5,0,0,0,0,0,0" PannerName="Balance" currentExplodedTrackIndex="1" totalExplodedTrackCount="2" premiereTrackType="Stereo">
									<enabled>TRUE</enabled>
									<locked>FALSE</locked>
									<outputchannelindex>2</outputchannelindex>
								</track>
								<track TL.SQTrackAudioKeyframeStyle="0" TL.SQTrackShy="0" TL.SQTrackExpandedHeight="25" TL.SQTrackExpanded="0" MZ.TrackTargeted="0" PannerCurrentValue="0.5" PannerIsInverted="true" PannerStartKeyframe="-91445760000000000,0.5,0,0,0,0,0,0" PannerName="Balance" currentExplodedTrackIndex="0" totalExplodedTrackCount="2" premiereTrackType="Stereo">
									<enabled>TRUE</enabled>
									<locked>FALSE</locked>
									<outputchannelindex>1</outputchannelindex>
								</track>
								<track TL.SQTrackAudioKeyframeStyle="0" TL.SQTrackShy="0" TL.SQTrackExpandedHeight="25" TL.SQTrackExpanded="0" MZ.TrackTargeted="0" PannerCurrentValue="0.5" PannerIsInverted="true" PannerStartKeyframe="-91445760000000000,0.5,0,0,0,0,0,0" PannerName="Balance" currentExplodedTrackIndex="1" totalExplodedTrackCount="2" premiereTrackType="Stereo">
									<enabled>TRUE</enabled>
									<locked>FALSE</locked>
									<outputchannelindex>2</outputchannelindex>
								</track>
								<track TL.SQTrackAudioKeyframeStyle="0" TL.SQTrackShy="0" TL.SQTrackExpandedHeight="25" TL.SQTrackExpanded="0" MZ.TrackTargeted="0" PannerCurrentValue="0.5" PannerIsInverted="true" PannerStartKeyframe="-91445760000000000,0.5,0,0,0,0,0,0" PannerName="Balance" currentExplodedTrackIndex="0" totalExplodedTrackCount="2" premiereTrackType="Stereo">
									<clipitem id="clipitem-409" premiereChannelType="stereo">
										<masterclipid>masterclip-233</masterclipid>
										<name>Trans A</name>
										<enabled>TRUE</enabled>
										<duration>5697</duration>
										<rate>
											<timebase>30</timebase>
											<ntsc>TRUE</ntsc>
										</rate>
										<start>1825</start>
										<end>2070</end>
										<in>0</in>
										<out>245</out>
										<pproTicksIn>0</pproTicksIn>
										<pproTicksOut>2076538464000</pproTicksOut>
										<sequence id="sequence-22"/>
										<sourcetrack>
											<mediatype>audio</mediatype>
											<trackindex>0</trackindex>
										</sourcetrack>
											<marker>
												<comment></comment>
												<name></name>
												<in>9</in>
												<out>-1</out>
												<pproColor>4281828977</pproColor>
											</marker>
											<marker>
												<comment></comment>
												<name></name>
												<in>236</in>
												<out>-1</out>
												<pproColor>4281828977</pproColor>
											</marker>
										<link>
											<linkclipref>clipitem-389</linkclipref>
											<mediatype>video</mediatype>
											<trackindex>5</trackindex>
											<clipindex>1</clipindex>
										</link>
										<link>
											<linkclipref>clipitem-409</linkclipref>
											<mediatype>audio</mediatype>
											<trackindex>9</trackindex>
											<clipindex>1</clipindex>
											<groupindex>1</groupindex>
										</link>
										<link>
											<linkclipref>clipitem-411</linkclipref>
											<mediatype>audio</mediatype>
											<trackindex>10</trackindex>
											<clipindex>1</clipindex>
											<groupindex>1</groupindex>
										</link>
										<labels>
											<label2>Tan</label2>
										</labels>
									</clipitem>
									<clipitem id="clipitem-410" premiereChannelType="stereo">
										<masterclipid>masterclip-235</masterclipid>
										<name>Trans C</name>
										<enabled>TRUE</enabled>
										<duration>5697</duration>
										<rate>
											<timebase>30</timebase>
											<ntsc>TRUE</ntsc>
										</rate>
										<start>5330</start>
										<end>5570</end>
										<in>0</in>
										<out>240</out>
										<pproTicksIn>0</pproTicksIn>
										<pproTicksOut>2034160128000</pproTicksOut>
										<sequence id="sequence-23"/>
										<sourcetrack>
											<mediatype>audio</mediatype>
											<trackindex>0</trackindex>
										</sourcetrack>
											<marker>
												<comment></comment>
												<name></name>
												<in>9</in>
												<out>-1</out>
												<pproColor>4281828977</pproColor>
											</marker>
											<marker>
												<comment></comment>
												<name></name>
												<in>229</in>
												<out>-1</out>
												<pproColor>4281828977</pproColor>
											</marker>
										<link>
											<linkclipref>clipitem-397</linkclipref>
											<mediatype>video</mediatype>
											<trackindex>5</trackindex>
											<clipindex>2</clipindex>
										</link>
										<link>
											<linkclipref>clipitem-410</linkclipref>
											<mediatype>audio</mediatype>
											<trackindex>9</trackindex>
											<clipindex>2</clipindex>
											<groupindex>1</groupindex>
										</link>
										<link>
											<linkclipref>clipitem-412</linkclipref>
											<mediatype>audio</mediatype>
											<trackindex>10</trackindex>
											<clipindex>2</clipindex>
											<groupindex>1</groupindex>
										</link>
										<labels>
											<label2>Tan</label2>
										</labels>
									</clipitem>
									<enabled>TRUE</enabled>
									<locked>FALSE</locked>
									<outputchannelindex>1</outputchannelindex>
								</track>
								<track TL.SQTrackAudioKeyframeStyle="0" TL.SQTrackShy="0" TL.SQTrackExpandedHeight="25" TL.SQTrackExpanded="0" MZ.TrackTargeted="0" PannerCurrentValue="0.5" PannerIsInverted="true" PannerStartKeyframe="-91445760000000000,0.5,0,0,0,0,0,0" PannerName="Balance" currentExplodedTrackIndex="1" totalExplodedTrackCount="2" premiereTrackType="Stereo">
									<clipitem id="clipitem-411" premiereChannelType="stereo">
										<masterclipid>masterclip-233</masterclipid>
										<name>Trans A</name>
										<enabled>TRUE</enabled>
										<duration>5697</duration>
										<rate>
											<timebase>30</timebase>
											<ntsc>TRUE</ntsc>
										</rate>
										<start>1825</start>
										<end>2070</end>
										<in>0</in>
										<out>245</out>
										<pproTicksIn>0</pproTicksIn>
										<pproTicksOut>2076538464000</pproTicksOut>
										<sequence id="sequence-22"/>
										<sourcetrack>
											<mediatype>audio</mediatype>
											<trackindex>1</trackindex>
										</sourcetrack>
											<marker>
												<comment></comment>
												<name></name>
												<in>9</in>
												<out>-1</out>
												<pproColor>4281828977</pproColor>
											</marker>
											<marker>
												<comment></comment>
												<name></name>
												<in>236</in>
												<out>-1</out>
												<pproColor>4281828977</pproColor>
											</marker>
										<link>
											<linkclipref>clipitem-389</linkclipref>
											<mediatype>video</mediatype>
											<trackindex>5</trackindex>
											<clipindex>1</clipindex>
										</link>
										<link>
											<linkclipref>clipitem-409</linkclipref>
											<mediatype>audio</mediatype>
											<trackindex>9</trackindex>
											<clipindex>1</clipindex>
											<groupindex>1</groupindex>
										</link>
										<link>
											<linkclipref>clipitem-411</linkclipref>
											<mediatype>audio</mediatype>
											<trackindex>10</trackindex>
											<clipindex>1</clipindex>
											<groupindex>1</groupindex>
										</link>
										<labels>
											<label2>Tan</label2>
										</labels>
									</clipitem>
									<clipitem id="clipitem-412" premiereChannelType="stereo">
										<masterclipid>masterclip-235</masterclipid>
										<name>Trans C</name>
										<enabled>TRUE</enabled>
										<duration>5697</duration>
										<rate>
											<timebase>30</timebase>
											<ntsc>TRUE</ntsc>
										</rate>
										<start>5330</start>
										<end>5570</end>
										<in>0</in>
										<out>240</out>
										<pproTicksIn>0</pproTicksIn>
										<pproTicksOut>2034160128000</pproTicksOut>
										<sequence id="sequence-23"/>
										<sourcetrack>
											<mediatype>audio</mediatype>
											<trackindex>1</trackindex>
										</sourcetrack>
											<marker>
												<comment></comment>
												<name></name>
												<in>9</in>
												<out>-1</out>
												<pproColor>4281828977</pproColor>
											</marker>
											<marker>
												<comment></comment>
												<name></name>
												<in>229</in>
												<out>-1</out>
												<pproColor>4281828977</pproColor>
											</marker>
										<link>
											<linkclipref>clipitem-397</linkclipref>
											<mediatype>video</mediatype>
											<trackindex>5</trackindex>
											<clipindex>2</clipindex>
										</link>
										<link>
											<linkclipref>clipitem-410</linkclipref>
											<mediatype>audio</mediatype>
											<trackindex>9</trackindex>
											<clipindex>2</clipindex>
											<groupindex>1</groupindex>
										</link>
										<link>
											<linkclipref>clipitem-412</linkclipref>
											<mediatype>audio</mediatype>
											<trackindex>10</trackindex>
											<clipindex>2</clipindex>
											<groupindex>1</groupindex>
										</link>
										<labels>
											<label2>Tan</label2>
										</labels>
									</clipitem>
									<enabled>TRUE</enabled>
									<locked>FALSE</locked>
									<outputchannelindex>2</outputchannelindex>
								</track>
							</audio>
						</media>
						<timecode>
							<rate>
								<timebase>30</timebase>
								<ntsc>TRUE</ntsc>
							</rate>
							<string>00;00;00;00</string>
							<frame>0</frame>
							<displayformat>DF</displayformat>
						</timecode>
							<marker>
								<comment></comment>
								<name></name>
								<in>264</in>
								<out>-1</out>
								<pproColor>4281828977</pproColor>
							</marker>
						<labels>
							<label2>Forest</label2>
						</labels>
						<logginginfo>
							<description></description>
							<scene></scene>
							<shottake></shottake>
							<lognote></lognote>
							<good></good>
							<originalvideofilename></originalvideofilename>
							<originalaudiofilename></originalaudiofilename>
						</logginginfo>
					</sequence>
					<sequence id="sequence-24" TL.SQAudioVisibleBase="0" TL.SQVideoVisibleBase="0" TL.SQVisibleBaseTime="1472272669292" TL.SQAVDividerPosition="0.5" TL.SQHideShyTracks="0" TL.SQHeaderWidth="236" TL.SQDataTrackViewControlState="0" Monitor.ProgramZoomOut="48201119366400" Monitor.ProgramZoomIn="0" TL.SQTimePerPixel="0.51841257761033654" MZ.EditLine="36106342272000" MZ.Sequence.PreviewFrameSizeHeight="1080" MZ.Sequence.PreviewFrameSizeWidth="1920" MZ.Sequence.AudioTimeDisplayFormat="200" MZ.Sequence.PreviewRenderingClassID="1297106761" MZ.Sequence.PreviewRenderingPresetCodec="1297107278" MZ.Sequence.PreviewRenderingPresetPath="EncoderPresets/SequencePreview/795454d9-d3c2-429d-9474-923ab13b7018/I-Frame Only MPEG.epr" MZ.Sequence.PreviewUseMaxRenderQuality="false" MZ.Sequence.PreviewUseMaxBitDepth="false" MZ.Sequence.EditingModeGUID="795454d9-d3c2-429d-9474-923ab13b7018" MZ.Sequence.VideoTimeDisplayFormat="102" MZ.WorkOutPoint="15239249625600" MZ.WorkInPoint="0" explodedTracks="true">
						<uuid>1e314fdf-3161-4e2e-b8bb-5fad8ae76801</uuid>
						<duration>5687</duration>
						<rate>
							<timebase>30</timebase>
							<ntsc>TRUE</ntsc>
						</rate>
						<name>ATM_DRONE_498</name>
						<media>
							<video>
								<format>
									<samplecharacteristics>
										<rate>
											<timebase>30</timebase>
											<ntsc>TRUE</ntsc>
										</rate>
										<codec>
											<name>Apple ProRes 422</name>
											<appspecificdata>
												<appname>Final Cut Pro</appname>
												<appmanufacturer>Apple Inc.</appmanufacturer>
												<appversion>7.0</appversion>
												<data>
													<qtcodec>
														<codecname>Apple ProRes 422</codecname>
														<codectypename>Apple ProRes 422</codectypename>
														<codectypecode>apcn</codectypecode>
														<codecvendorcode>appl</codecvendorcode>
														<spatialquality>1024</spatialquality>
														<temporalquality>0</temporalquality>
														<keyframerate>0</keyframerate>
														<datarate>0</datarate>
													</qtcodec>
												</data>
											</appspecificdata>
										</codec>
										<width>1920</width>
										<height>1080</height>
										<anamorphic>FALSE</anamorphic>
										<pixelaspectratio>square</pixelaspectratio>
										<fielddominance>none</fielddominance>
										<colordepth>24</colordepth>
									</samplecharacteristics>
								</format>
								<track TL.SQTrackShy="0" TL.SQTrackExpandedHeight="25" TL.SQTrackExpanded="0" MZ.TrackTargeted="1">
									<clipitem id="clipitem-413">
										<masterclipid>masterclip-237</masterclipid>
										<name>DRONE_Flying by the Beach_1.5</name>
										<enabled>TRUE</enabled>
										<duration>14299</duration>
										<rate>
											<timebase>30</timebase>
											<ntsc>TRUE</ntsc>
										</rate>
										<start>0</start>
										<end>2867</end>
										<in>0</in>
										<out>2867</out>
										<pproTicksIn>0</pproTicksIn>
										<pproTicksOut>24299737862400</pproTicksOut>
										<sequence id="sequence-25" TL.SQAudioVisibleBase="0" TL.SQVideoVisibleBase="0" TL.SQVisibleBaseTime="23387052782408" TL.SQAVDividerPosition="0.5" TL.SQHideShyTracks="0" TL.SQHeaderWidth="236" Monitor.ProgramZoomOut="24299737862400" Monitor.ProgramZoomIn="0" TL.SQTimePerPixel="0.010199728886919699" MZ.EditLine="25087974912000" MZ.Sequence.PreviewFrameSizeHeight="1080" MZ.Sequence.PreviewFrameSizeWidth="1920" MZ.Sequence.AudioTimeDisplayFormat="200" MZ.Sequence.PreviewRenderingClassID="1061109567" MZ.Sequence.PreviewRenderingPresetCodec="1634755443" MZ.Sequence.PreviewRenderingPresetPath="EncoderPresets/SequencePreview/35d109db-457b-43c1-9452-9cb7be9f121c/QuickTime.epr" MZ.Sequence.PreviewUseMaxRenderQuality="false" MZ.Sequence.PreviewUseMaxBitDepth="false" MZ.Sequence.EditingModeGUID="35d109db-457b-43c1-9452-9cb7be9f121c" MZ.Sequence.VideoTimeDisplayFormat="102" MZ.WorkOutPoint="15239249625600" MZ.WorkInPoint="0">
											<duration>2867</duration>
											<rate>
												<timebase>30</timebase>
												<ntsc>TRUE</ntsc>
											</rate>
											<name>DRONE_Flying by the Beach_1.5</name>
											<media>
												<video>
													<format>
														<samplecharacteristics>
															<rate>
																<timebase>30</timebase>
																<ntsc>TRUE</ntsc>
															</rate>
															<codec>
																<name>Apple ProRes 422</name>
																<appspecificdata>
																	<appname>Final Cut Pro</appname>
																	<appmanufacturer>Apple Inc.</appmanufacturer>
																	<appversion>7.0</appversion>
																	<data>
																		<qtcodec>
																			<codecname>Apple ProRes 422</codecname>
																			<codectypename>Apple ProRes 422</codectypename>
																			<codectypecode>apcn</codectypecode>
																			<codecvendorcode>appl</codecvendorcode>
																			<spatialquality>1024</spatialquality>
																			<temporalquality>0</temporalquality>
																			<keyframerate>0</keyframerate>
																			<datarate>0</datarate>
																		</qtcodec>
																	</data>
																</appspecificdata>
															</codec>
															<width>1920</width>
															<height>1080</height>
															<anamorphic>FALSE</anamorphic>
															<pixelaspectratio>square</pixelaspectratio>
															<fielddominance>none</fielddominance>
															<colordepth>24</colordepth>
														</samplecharacteristics>
													</format>
													<track TL.SQTrackShy="0" TL.SQTrackExpandedHeight="25" TL.SQTrackExpanded="0" MZ.TrackTargeted="1">
														<clipitem id="clipitem-414">
															<masterclipid>masterclip-238</masterclipid>
															<name>fpv-aerial-drone-veiw-of-the-beach-in-zeeland-the-netherlands-holland-summer-dunes--SBV-347187359-HD.mp4</name>
															<enabled>TRUE</enabled>
															<duration>560</duration>
															<rate>
																<timebase>30</timebase>
																<ntsc>TRUE</ntsc>
															</rate>
															<start>0</start>
															<end>553</end>
															<in>0</in>
															<out>553</out>
															<pproTicksIn>0</pproTicksIn>
															<pproTicksOut>4687043961600</pproTicksOut>
															<alphatype>none</alphatype>
															<pixelaspectratio>square</pixelaspectratio>
															<anamorphic>FALSE</anamorphic>
															<file id="file-218">
																<name>fpv-aerial-drone-veiw-of-the-beach-in-zeeland-the-netherlands-holland-summer-dunes--SBV-347187359-HD.mp4</name>
																<pathurl>file://localhost/Volumes/T7/DRONE_08.18.2023/3_Raw%20Files/Zeeland/fpv-aerial-drone-veiw-of-the-beach-in-zeeland-the-netherlands-holland-summer-dunes--SBV-347187359-HD.mp4</pathurl>
																<rate>
																	<timebase>29</timebase>
																	<ntsc>FALSE</ntsc>
																</rate>
																<duration>561</duration>
																<timecode>
																	<rate>
																		<timebase>29</timebase>
																		<ntsc>FALSE</ntsc>
																	</rate>
																	<string>00:00:00:00</string>
																	<frame>0</frame>
																	<displayformat>NDF</displayformat>
																</timecode>
																<media>
																	<video>
																		<samplecharacteristics>
																			<rate>
																				<timebase>29</timebase>
																				<ntsc>FALSE</ntsc>
																			</rate>
																			<width>1920</width>
																			<height>1080</height>
																			<anamorphic>FALSE</anamorphic>
																			<pixelaspectratio>square</pixelaspectratio>
																			<fielddominance>none</fielddominance>
																		</samplecharacteristics>
																	</video>
																</media>
															</file>
															<logginginfo>
																<description></description>
																<scene></scene>
																<shottake></shottake>
																<lognote></lognote>
																<good></good>
																<originalvideofilename></originalvideofilename>
																<originalaudiofilename></originalaudiofilename>
															</logginginfo>
															<colorinfo>
																<lut></lut>
																<lut1></lut1>
																<asc_sop></asc_sop>
																<asc_sat></asc_sat>
																<lut2></lut2>
															</colorinfo>
															<labels>
																<label2>Violet</label2>
															</labels>
														</clipitem>
														<clipitem id="clipitem-415">
															<masterclipid>masterclip-239</masterclipid>
															<name>fpv-aerial-drone-veiw-of-the-beach-in-zeeland-the-netherlands-holland-summer-dunes--SBV-347187363-HD.mp4</name>
															<enabled>TRUE</enabled>
															<duration>1499</duration>
															<rate>
																<timebase>30</timebase>
																<ntsc>TRUE</ntsc>
															</rate>
															<start>553</start>
															<end>1838</end>
															<in>38</in>
															<out>1323</out>
															<pproTicksIn>322075353600</pproTicksIn>
															<pproTicksOut>11213307705600</pproTicksOut>
															<alphatype>none</alphatype>
															<pixelaspectratio>square</pixelaspectratio>
															<anamorphic>FALSE</anamorphic>
															<file id="file-219">
																<name>fpv-aerial-drone-veiw-of-the-beach-in-zeeland-the-netherlands-holland-summer-dunes--SBV-347187363-HD.mp4</name>
																<pathurl>file://localhost/Volumes/T7/DRONE_08.18.2023/3_Raw%20Files/Zeeland/fpv-aerial-drone-veiw-of-the-beach-in-zeeland-the-netherlands-holland-summer-dunes--SBV-347187363-HD.mp4</pathurl>
																<rate>
																	<timebase>29</timebase>
																	<ntsc>FALSE</ntsc>
																</rate>
																<duration>1500</duration>
																<timecode>
																	<rate>
																		<timebase>29</timebase>
																		<ntsc>FALSE</ntsc>
																	</rate>
																	<string>00:00:00:00</string>
																	<frame>0</frame>
																	<displayformat>NDF</displayformat>
																</timecode>
																<media>
																	<video>
																		<samplecharacteristics>
																			<rate>
																				<timebase>29</timebase>
																				<ntsc>FALSE</ntsc>
																			</rate>
																			<width>1920</width>
																			<height>1080</height>
																			<anamorphic>FALSE</anamorphic>
																			<pixelaspectratio>square</pixelaspectratio>
																			<fielddominance>none</fielddominance>
																		</samplecharacteristics>
																	</video>
																</media>
															</file>
															<logginginfo>
																<description></description>
																<scene></scene>
																<shottake></shottake>
																<lognote></lognote>
																<good></good>
																<originalvideofilename></originalvideofilename>
																<originalaudiofilename></originalaudiofilename>
															</logginginfo>
															<colorinfo>
																<lut></lut>
																<lut1></lut1>
																<asc_sop></asc_sop>
																<asc_sat></asc_sat>
																<lut2></lut2>
															</colorinfo>
															<labels>
																<label2>Violet</label2>
															</labels>
														</clipitem>
														<clipitem id="clipitem-416">
															<masterclipid>masterclip-240</masterclipid>
															<name>fpv-aerial-drone-veiw-of-the-beach-in-zeeland-the-netherlands-holland-summer-dunes--SBV-347187369-HD.mp4</name>
															<enabled>TRUE</enabled>
															<duration>971</duration>
															<rate>
																<timebase>30</timebase>
																<ntsc>TRUE</ntsc>
															</rate>
															<start>1838</start>
															<end>2564</end>
															<in>0</in>
															<out>726</out>
															<pproTicksIn>0</pproTicksIn>
															<pproTicksOut>6153334387200</pproTicksOut>
															<alphatype>none</alphatype>
															<pixelaspectratio>square</pixelaspectratio>
															<anamorphic>FALSE</anamorphic>
															<file id="file-220">
																<name>fpv-aerial-drone-veiw-of-the-beach-in-zeeland-the-netherlands-holland-summer-dunes--SBV-347187369-HD.mp4</name>
																<pathurl>file://localhost/Volumes/T7/DRONE_08.18.2023/3_Raw%20Files/Zeeland/fpv-aerial-drone-veiw-of-the-beach-in-zeeland-the-netherlands-holland-summer-dunes--SBV-347187369-HD.mp4</pathurl>
																<rate>
																	<timebase>29</timebase>
																	<ntsc>FALSE</ntsc>
																</rate>
																<duration>972</duration>
																<timecode>
																	<rate>
																		<timebase>29</timebase>
																		<ntsc>FALSE</ntsc>
																	</rate>
																	<string>00:00:00:00</string>
																	<frame>0</frame>
																	<displayformat>NDF</displayformat>
																</timecode>
																<media>
																	<video>
																		<samplecharacteristics>
																			<rate>
																				<timebase>29</timebase>
																				<ntsc>FALSE</ntsc>
																			</rate>
																			<width>1920</width>
																			<height>1080</height>
																			<anamorphic>FALSE</anamorphic>
																			<pixelaspectratio>square</pixelaspectratio>
																			<fielddominance>none</fielddominance>
																		</samplecharacteristics>
																	</video>
																</media>
															</file>
															<logginginfo>
																<description></description>
																<scene></scene>
																<shottake></shottake>
																<lognote></lognote>
																<good></good>
																<originalvideofilename></originalvideofilename>
																<originalaudiofilename></originalaudiofilename>
															</logginginfo>
															<colorinfo>
																<lut></lut>
																<lut1></lut1>
																<asc_sop></asc_sop>
																<asc_sat></asc_sat>
																<lut2></lut2>
															</colorinfo>
															<labels>
																<label2>Violet</label2>
															</labels>
														</clipitem>
														<clipitem id="clipitem-417">
															<masterclipid>masterclip-241</masterclipid>
															<name>fpv-aerial-drone-veiw-of-the-beach-in-zeeland-the-netherlands-holland-summer-dunes--SBV-347187365-HD.mp4</name>
															<enabled>TRUE</enabled>
															<duration>483</duration>
															<rate>
																<timebase>30</timebase>
																<ntsc>TRUE</ntsc>
															</rate>
															<start>2564</start>
															<end>2867</end>
															<in>0</in>
															<out>303</out>
															<pproTicksIn>0</pproTicksIn>
															<pproTicksOut>2568127161600</pproTicksOut>
															<alphatype>none</alphatype>
															<pixelaspectratio>square</pixelaspectratio>
															<anamorphic>FALSE</anamorphic>
															<file id="file-221">
																<name>fpv-aerial-drone-veiw-of-the-beach-in-zeeland-the-netherlands-holland-summer-dunes--SBV-347187365-HD.mp4</name>
																<pathurl>file://localhost/Volumes/T7/DRONE_08.18.2023/3_Raw%20Files/Zeeland/fpv-aerial-drone-veiw-of-the-beach-in-zeeland-the-netherlands-holland-summer-dunes--SBV-347187365-HD.mp4</pathurl>
																<rate>
																	<timebase>29</timebase>
																	<ntsc>FALSE</ntsc>
																</rate>
																<duration>484</duration>
																<timecode>
																	<rate>
																		<timebase>29</timebase>
																		<ntsc>FALSE</ntsc>
																	</rate>
																	<string>00:00:00:00</string>
																	<frame>0</frame>
																	<displayformat>NDF</displayformat>
																</timecode>
																<media>
																	<video>
																		<samplecharacteristics>
																			<rate>
																				<timebase>29</timebase>
																				<ntsc>FALSE</ntsc>
																			</rate>
																			<width>1920</width>
																			<height>1080</height>
																			<anamorphic>FALSE</anamorphic>
																			<pixelaspectratio>square</pixelaspectratio>
																			<fielddominance>none</fielddominance>
																		</samplecharacteristics>
																	</video>
																</media>
															</file>
															<logginginfo>
																<description></description>
																<scene></scene>
																<shottake></shottake>
																<lognote></lognote>
																<good></good>
																<originalvideofilename></originalvideofilename>
																<originalaudiofilename></originalaudiofilename>
															</logginginfo>
															<colorinfo>
																<lut></lut>
																<lut1></lut1>
																<asc_sop></asc_sop>
																<asc_sat></asc_sat>
																<lut2></lut2>
															</colorinfo>
															<labels>
																<label2>Violet</label2>
															</labels>
														</clipitem>
														<enabled>TRUE</enabled>
														<locked>FALSE</locked>
													</track>
													<track TL.SQTrackShy="0" TL.SQTrackExpandedHeight="25" TL.SQTrackExpanded="0" MZ.TrackTargeted="0">
														<enabled>TRUE</enabled>
														<locked>FALSE</locked>
													</track>
													<track TL.SQTrackShy="0" TL.SQTrackExpandedHeight="25" TL.SQTrackExpanded="0" MZ.TrackTargeted="0">
														<enabled>TRUE</enabled>
														<locked>FALSE</locked>
													</track>
												</video>
												<audio>
													<numOutputChannels>2</numOutputChannels>
													<format>
														<samplecharacteristics>
															<depth>16</depth>
															<samplerate>48000</samplerate>
														</samplecharacteristics>
													</format>
													<outputs>
														<group>
															<index>1</index>
															<numchannels>1</numchannels>
															<downmix>0</downmix>
															<channel>
																<index>1</index>
															</channel>
														</group>
														<group>
															<index>2</index>
															<numchannels>1</numchannels>
															<downmix>0</downmix>
															<channel>
																<index>2</index>
															</channel>
														</group>
													</outputs>
													<track TL.SQTrackAudioKeyframeStyle="0" TL.SQTrackShy="0" TL.SQTrackExpandedHeight="25" TL.SQTrackExpanded="0" MZ.TrackTargeted="1" PannerCurrentValue="0.5" PannerIsInverted="true" PannerStartKeyframe="-91445760000000000,0.5,0,0,0,0,0,0" PannerName="Balance" currentExplodedTrackIndex="0" totalExplodedTrackCount="2" premiereTrackType="Stereo">
														<clipitem id="clipitem-418" premiereChannelType="stereo">
															<masterclipid>masterclip-242</masterclipid>
															<name>ES_Solar Healing - Sum Wave.mp3</name>
															<enabled>TRUE</enabled>
															<duration>5896</duration>
															<rate>
																<timebase>30</timebase>
																<ntsc>TRUE</ntsc>
															</rate>
															<start>0</start>
															<end>-1</end>
															<in>0</in>
															<out>2867</out>
															<pproTicksIn>0</pproTicksIn>
															<pproTicksOut>24299737862400</pproTicksOut>
															<file id="file-222">
																<name>ES_Solar Healing - Sum Wave.mp3</name>
																<pathurl>file://localhost/Volumes/T7/DRONE_08.18.2023/5_Music/ES_Solar%20Healing%20-%20Sum%20Wave.mp3</pathurl>
																<rate>
																	<timebase>30</timebase>
																	<ntsc>TRUE</ntsc>
																</rate>
																<duration>5896</duration>
																<timecode>
																	<rate>
																		<timebase>30</timebase>
																		<ntsc>TRUE</ntsc>
																	</rate>
																	<string>00;00;00;00</string>
																	<frame>0</frame>
																	<displayformat>DF</displayformat>
																</timecode>
																<media>
																	<audio>
																		<samplecharacteristics>
																			<depth>16</depth>
																			<samplerate>48000</samplerate>
																		</samplecharacteristics>
																		<channelcount>2</channelcount>
																	</audio>
																</media>
															</file>
															<sourcetrack>
																<mediatype>audio</mediatype>
																<trackindex>1</trackindex>
															</sourcetrack>
															<link>
																<linkclipref>clipitem-418</linkclipref>
																<mediatype>audio</mediatype>
																<trackindex>1</trackindex>
																<clipindex>1</clipindex>
																<groupindex>1</groupindex>
															</link>
															<link>
																<linkclipref>clipitem-419</linkclipref>
																<mediatype>audio</mediatype>
																<trackindex>2</trackindex>
																<clipindex>1</clipindex>
																<groupindex>1</groupindex>
															</link>
															<logginginfo>
																<description></description>
																<scene></scene>
																<shottake></shottake>
																<lognote></lognote>
																<good></good>
																<originalvideofilename></originalvideofilename>
																<originalaudiofilename></originalaudiofilename>
															</logginginfo>
															<colorinfo>
																<lut></lut>
																<lut1></lut1>
																<asc_sop></asc_sop>
																<asc_sat></asc_sat>
																<lut2></lut2>
															</colorinfo>
															<labels>
																<label2>Caribbean</label2>
															</labels>
														</clipitem>
														<transitionitem>
															<start>2798</start>
															<end>2867</end>
															<pproTicksIn>23714916825600</pproTicksIn>
															<pproTicksOut>24299737862400</pproTicksOut>
															<alignment>end-black</alignment>
															<cutPointTicks>584821036800</cutPointTicks>
															<rate>
																<timebase>30</timebase>
																<ntsc>TRUE</ntsc>
															</rate>
															<effect>
																<name>Cross Fade ( 0dB)</name>
																<effectid>KGAudioTransCrossFade0dB</effectid>
																<effecttype>transition</effecttype>
																<mediatype>audio</mediatype>
																<wipecode>0</wipecode>
																<wipeaccuracy>100</wipeaccuracy>
																<startratio>0</startratio>
																<endratio>1</endratio>
																<reverse>FALSE</reverse>
															</effect>
														</transitionitem>
														<enabled>TRUE</enabled>
														<locked>FALSE</locked>
														<outputchannelindex>1</outputchannelindex>
													</track>
													<track TL.SQTrackAudioKeyframeStyle="0" TL.SQTrackShy="0" TL.SQTrackExpandedHeight="25" TL.SQTrackExpanded="0" MZ.TrackTargeted="1" PannerCurrentValue="0.5" PannerIsInverted="true" PannerStartKeyframe="-91445760000000000,0.5,0,0,0,0,0,0" PannerName="Balance" currentExplodedTrackIndex="1" totalExplodedTrackCount="2" premiereTrackType="Stereo">
														<clipitem id="clipitem-419" premiereChannelType="stereo">
															<masterclipid>masterclip-242</masterclipid>
															<name>ES_Solar Healing - Sum Wave.mp3</name>
															<enabled>TRUE</enabled>
															<duration>5896</duration>
															<rate>
																<timebase>30</timebase>
																<ntsc>TRUE</ntsc>
															</rate>
															<start>0</start>
															<end>-1</end>
															<in>0</in>
															<out>2867</out>
															<pproTicksIn>0</pproTicksIn>
															<pproTicksOut>24299737862400</pproTicksOut>
															<file id="file-222"/>
															<sourcetrack>
																<mediatype>audio</mediatype>
																<trackindex>2</trackindex>
															</sourcetrack>
															<link>
																<linkclipref>clipitem-418</linkclipref>
																<mediatype>audio</mediatype>
																<trackindex>1</trackindex>
																<clipindex>1</clipindex>
																<groupindex>1</groupindex>
															</link>
															<link>
																<linkclipref>clipitem-419</linkclipref>
																<mediatype>audio</mediatype>
																<trackindex>2</trackindex>
																<clipindex>1</clipindex>
																<groupindex>1</groupindex>
															</link>
															<logginginfo>
																<description></description>
																<scene></scene>
																<shottake></shottake>
																<lognote></lognote>
																<good></good>
																<originalvideofilename></originalvideofilename>
																<originalaudiofilename></originalaudiofilename>
															</logginginfo>
															<colorinfo>
																<lut></lut>
																<lut1></lut1>
																<asc_sop></asc_sop>
																<asc_sat></asc_sat>
																<lut2></lut2>
															</colorinfo>
															<labels>
																<label2>Caribbean</label2>
															</labels>
														</clipitem>
														<transitionitem>
															<start>2798</start>
															<end>2867</end>
															<pproTicksIn>23714916825600</pproTicksIn>
															<pproTicksOut>24299737862400</pproTicksOut>
															<alignment>end-black</alignment>
															<cutPointTicks>584821036800</cutPointTicks>
															<rate>
																<timebase>30</timebase>
																<ntsc>TRUE</ntsc>
															</rate>
															<effect>
																<name>Cross Fade ( 0dB)</name>
																<effectid>KGAudioTransCrossFade0dB</effectid>
																<effecttype>transition</effecttype>
																<mediatype>audio</mediatype>
																<wipecode>0</wipecode>
																<wipeaccuracy>100</wipeaccuracy>
																<startratio>0</startratio>
																<endratio>1</endratio>
																<reverse>FALSE</reverse>
															</effect>
														</transitionitem>
														<enabled>TRUE</enabled>
														<locked>FALSE</locked>
														<outputchannelindex>2</outputchannelindex>
													</track>
													<track TL.SQTrackAudioKeyframeStyle="0" TL.SQTrackShy="0" TL.SQTrackExpandedHeight="25" TL.SQTrackExpanded="0" MZ.TrackTargeted="1" PannerCurrentValue="0.5" PannerIsInverted="true" PannerStartKeyframe="-91445760000000000,0.5,0,0,0,0,0,0" PannerName="Balance" currentExplodedTrackIndex="0" totalExplodedTrackCount="2" premiereTrackType="Stereo">
														<enabled>TRUE</enabled>
														<locked>FALSE</locked>
														<outputchannelindex>1</outputchannelindex>
													</track>
													<track TL.SQTrackAudioKeyframeStyle="0" TL.SQTrackShy="0" TL.SQTrackExpandedHeight="25" TL.SQTrackExpanded="0" MZ.TrackTargeted="1" PannerCurrentValue="0.5" PannerIsInverted="true" PannerStartKeyframe="-91445760000000000,0.5,0,0,0,0,0,0" PannerName="Balance" currentExplodedTrackIndex="1" totalExplodedTrackCount="2" premiereTrackType="Stereo">
														<enabled>TRUE</enabled>
														<locked>FALSE</locked>
														<outputchannelindex>2</outputchannelindex>
													</track>
													<track TL.SQTrackAudioKeyframeStyle="0" TL.SQTrackShy="0" TL.SQTrackExpandedHeight="25" TL.SQTrackExpanded="0" MZ.TrackTargeted="1" PannerCurrentValue="0.5" PannerIsInverted="true" PannerStartKeyframe="-91445760000000000,0.5,0,0,0,0,0,0" PannerName="Balance" currentExplodedTrackIndex="0" totalExplodedTrackCount="2" premiereTrackType="Stereo">
														<enabled>TRUE</enabled>
														<locked>FALSE</locked>
														<outputchannelindex>1</outputchannelindex>
													</track>
													<track TL.SQTrackAudioKeyframeStyle="0" TL.SQTrackShy="0" TL.SQTrackExpandedHeight="25" TL.SQTrackExpanded="0" MZ.TrackTargeted="1" PannerCurrentValue="0.5" PannerIsInverted="true" PannerStartKeyframe="-91445760000000000,0.5,0,0,0,0,0,0" PannerName="Balance" currentExplodedTrackIndex="1" totalExplodedTrackCount="2" premiereTrackType="Stereo">
														<enabled>TRUE</enabled>
														<locked>FALSE</locked>
														<outputchannelindex>2</outputchannelindex>
													</track>
												</audio>
											</media>
											<timecode>
												<rate>
													<timebase>30</timebase>
													<ntsc>TRUE</ntsc>
												</rate>
												<string>00;00;00;00</string>
												<frame>0</frame>
												<displayformat>DF</displayformat>
											</timecode>
											<logginginfo>
												<description></description>
												<scene></scene>
												<shottake></shottake>
												<lognote></lognote>
												<good></good>
												<originalvideofilename></originalvideofilename>
												<originalaudiofilename></originalaudiofilename>
											</logginginfo>
											<filter>
												<effect>
													<name>Audio Levels</name>
													<effectid>audiolevels</effectid>
													<effectcategory>audiolevels</effectcategory>
													<effecttype>audiolevels</effecttype>
													<mediatype>audio</mediatype>
													<parameter authoringApp="PremierePro">
														<parameterid>level</parameterid>
														<name>Level</name>
														<valuemin>0</valuemin>
														<valuemax>3.98109</valuemax>
														<value>0.839406</value>
													</parameter>
												</effect>
											</filter>
										</sequence>
										<link>
											<linkclipref>clipitem-413</linkclipref>
											<mediatype>video</mediatype>
											<trackindex>1</trackindex>
											<clipindex>1</clipindex>
										</link>
										<link>
											<linkclipref>clipitem-438</linkclipref>
											<mediatype>audio</mediatype>
											<trackindex>1</trackindex>
											<clipindex>1</clipindex>
											<groupindex>1</groupindex>
										</link>
										<link>
											<linkclipref>clipitem-441</linkclipref>
											<mediatype>audio</mediatype>
											<trackindex>2</trackindex>
											<clipindex>1</clipindex>
											<groupindex>1</groupindex>
										</link>
										<labels>
											<label2>Forest</label2>
										</labels>
									</clipitem>
									<clipitem id="clipitem-420">
										<masterclipid>masterclip-243</masterclipid>
										<name>DRONE_Masters of Dirt_1.5</name>
										<enabled>TRUE</enabled>
										<duration>4358</duration>
										<rate>
											<timebase>30</timebase>
											<ntsc>TRUE</ntsc>
										</rate>
										<start>3078</start>
										<end>5388</end>
										<in>0</in>
										<out>2310</out>
										<pproTicksIn>0</pproTicksIn>
										<pproTicksOut>19578791232000</pproTicksOut>
										<sequence id="sequence-26" TL.SQAudioVisibleBase="0" TL.SQVideoVisibleBase="0" TL.SQVisibleBaseTime="0" TL.SQAVDividerPosition="0.5" TL.SQHideShyTracks="0" TL.SQHeaderWidth="236" Monitor.ProgramZoomOut="19578791232000" Monitor.ProgramZoomIn="0" TL.SQTimePerPixel="0.43992551211117881" MZ.EditLine="8348532192000" MZ.Sequence.PreviewFrameSizeHeight="1080" MZ.Sequence.PreviewFrameSizeWidth="1920" MZ.Sequence.AudioTimeDisplayFormat="200" MZ.Sequence.PreviewRenderingClassID="1061109567" MZ.Sequence.PreviewRenderingPresetCodec="1634755443" MZ.Sequence.PreviewRenderingPresetPath="EncoderPresets/SequencePreview/35d109db-457b-43c1-9452-9cb7be9f121c/QuickTime.epr" MZ.Sequence.PreviewUseMaxRenderQuality="false" MZ.Sequence.PreviewUseMaxBitDepth="false" MZ.Sequence.EditingModeGUID="35d109db-457b-43c1-9452-9cb7be9f121c" MZ.Sequence.VideoTimeDisplayFormat="102" MZ.WorkOutPoint="15239249625600" MZ.WorkInPoint="0">
											<duration>2310</duration>
											<rate>
												<timebase>30</timebase>
												<ntsc>TRUE</ntsc>
											</rate>
											<name>DRONE_Masters of Dirt_1.5</name>
											<media>
												<video>
													<format>
														<samplecharacteristics>
															<rate>
																<timebase>30</timebase>
																<ntsc>TRUE</ntsc>
															</rate>
															<codec>
																<name>Apple ProRes 422</name>
																<appspecificdata>
																	<appname>Final Cut Pro</appname>
																	<appmanufacturer>Apple Inc.</appmanufacturer>
																	<appversion>7.0</appversion>
																	<data>
																		<qtcodec>
																			<codecname>Apple ProRes 422</codecname>
																			<codectypename>Apple ProRes 422</codectypename>
																			<codectypecode>apcn</codectypecode>
																			<codecvendorcode>appl</codecvendorcode>
																			<spatialquality>1024</spatialquality>
																			<temporalquality>0</temporalquality>
																			<keyframerate>0</keyframerate>
																			<datarate>0</datarate>
																		</qtcodec>
																	</data>
																</appspecificdata>
															</codec>
															<width>1920</width>
															<height>1080</height>
															<anamorphic>FALSE</anamorphic>
															<pixelaspectratio>square</pixelaspectratio>
															<fielddominance>none</fielddominance>
															<colordepth>24</colordepth>
														</samplecharacteristics>
													</format>
													<track TL.SQTrackShy="0" TL.SQTrackExpandedHeight="25" TL.SQTrackExpanded="0" MZ.TrackTargeted="1">
														<clipitem id="clipitem-421">
															<masterclipid>masterclip-244</masterclipid>
															<name>(Tomz FPV)_Masters Of Dirt's Backyard_2TOm5fufLrM_YT.mp4</name>
															<enabled>TRUE</enabled>
															<duration>2679</duration>
															<rate>
																<timebase>30</timebase>
																<ntsc>TRUE</ntsc>
															</rate>
															<start>0</start>
															<end>2310</end>
															<in>49</in>
															<out>2359</out>
															<pproTicksIn>415307692800</pproTicksIn>
															<pproTicksOut>19994098924800</pproTicksOut>
															<alphatype>none</alphatype>
															<pixelaspectratio>square</pixelaspectratio>
															<anamorphic>FALSE</anamorphic>
															<file id="file-223">
																<name>(Tomz FPV)_Masters Of Dirt's Backyard_2TOm5fufLrM_YT.mp4</name>
																<pathurl>file://localhost/Volumes/T7/DRONE_08.18.2023/3_Raw%20Files/Various%20Files/(Tomz%20FPV)_Masters%20Of%20Dirt's%20Backyard_2TOm5fufLrM_YT.mp4</pathurl>
																<rate>
																	<timebase>50</timebase>
																	<ntsc>FALSE</ntsc>
																</rate>
																<duration>4470</duration>
																<timecode>
																	<rate>
																		<timebase>50</timebase>
																		<ntsc>FALSE</ntsc>
																	</rate>
																	<string>00:00:00:00</string>
																	<frame>0</frame>
																	<displayformat>NDF</displayformat>
																</timecode>
																<media>
																	<video>
																		<samplecharacteristics>
																			<rate>
																				<timebase>50</timebase>
																				<ntsc>FALSE</ntsc>
																			</rate>
																			<width>1920</width>
																			<height>1080</height>
																			<anamorphic>FALSE</anamorphic>
																			<pixelaspectratio>square</pixelaspectratio>
																			<fielddominance>none</fielddominance>
																		</samplecharacteristics>
																	</video>
																	<audio>
																		<samplecharacteristics>
																			<depth>16</depth>
																			<samplerate>44100</samplerate>
																		</samplecharacteristics>
																		<channelcount>2</channelcount>
																	</audio>
																</media>
															</file>
															<logginginfo>
																<description></description>
																<scene></scene>
																<shottake></shottake>
																<lognote>https://www.youtube.com/watch?v=2TOm5fufLrM</lognote>
																<good></good>
																<originalvideofilename></originalvideofilename>
																<originalaudiofilename></originalaudiofilename>
															</logginginfo>
															<colorinfo>
																<lut></lut>
																<lut1></lut1>
																<asc_sop></asc_sop>
																<asc_sat></asc_sat>
																<lut2></lut2>
															</colorinfo>
															<labels>
																<label2>Iris</label2>
															</labels>
														</clipitem>
														<enabled>TRUE</enabled>
														<locked>FALSE</locked>
													</track>
													<track TL.SQTrackShy="0" TL.SQTrackExpandedHeight="25" TL.SQTrackExpanded="0" MZ.TrackTargeted="0">
														<clipitem id="clipitem-422">
															<masterclipid>masterclip-245</masterclipid>
															<name>TOMZ FPV</name>
															<enabled>TRUE</enabled>
															<duration>5844</duration>
															<rate>
																<timebase>30</timebase>
																<ntsc>TRUE</ntsc>
															</rate>
															<start>0</start>
															<end>2310</end>
															<in>0</in>
															<out>2310</out>
															<pproTicksIn>0</pproTicksIn>
															<pproTicksOut>19578791232000</pproTicksOut>
															<alphatype>straight</alphatype>
															<pixelaspectratio>square</pixelaspectratio>
															<anamorphic>FALSE</anamorphic>
															<file id="file-224">
																<name>1080/AE Attribution.aep</name>
																<pathurl>file://localhost/Volumes/T7/DRONE_08.18.2023/4_Project%20Files/Drone%202023%20Master%20Assets/01_Bugs/AE%20Attribution.aep</pathurl>
																<rate>
																	<timebase>30</timebase>
																	<ntsc>TRUE</ntsc>
																</rate>
																<duration>5844</duration>
																<timecode>
																	<rate>
																		<timebase>30</timebase>
																		<ntsc>TRUE</ntsc>
																	</rate>
																	<string>00;00;00;00</string>
																	<frame>0</frame>
																	<displayformat>DF</displayformat>
																</timecode>
																<media>
																	<video>
																		<samplecharacteristics>
																			<rate>
																				<timebase>30</timebase>
																				<ntsc>TRUE</ntsc>
																			</rate>
																			<width>1920</width>
																			<height>1080</height>
																			<anamorphic>FALSE</anamorphic>
																			<pixelaspectratio>square</pixelaspectratio>
																			<fielddominance>lower</fielddominance>
																		</samplecharacteristics>
																	</video>
																</media>
															</file>
															<logginginfo>
																<description></description>
																<scene></scene>
																<shottake></shottake>
																<lognote></lognote>
																<good></good>
																<originalvideofilename></originalvideofilename>
																<originalaudiofilename></originalaudiofilename>
															</logginginfo>
															<colorinfo>
																<lut></lut>
																<lut1></lut1>
																<asc_sop></asc_sop>
																<asc_sat></asc_sat>
																<lut2></lut2>
															</colorinfo>
															<labels>
																<label2>Yellow</label2>
															</labels>
														</clipitem>
														<enabled>TRUE</enabled>
														<locked>FALSE</locked>
													</track>
													<track TL.SQTrackShy="0" TL.SQTrackExpandedHeight="25" TL.SQTrackExpanded="0" MZ.TrackTargeted="0">
														<enabled>TRUE</enabled>
														<locked>FALSE</locked>
													</track>
												</video>
												<audio>
													<numOutputChannels>2</numOutputChannels>
													<format>
														<samplecharacteristics>
															<depth>16</depth>
															<samplerate>48000</samplerate>
														</samplecharacteristics>
													</format>
													<outputs>
														<group>
															<index>1</index>
															<numchannels>1</numchannels>
															<downmix>0</downmix>
															<channel>
																<index>1</index>
															</channel>
														</group>
														<group>
															<index>2</index>
															<numchannels>1</numchannels>
															<downmix>0</downmix>
															<channel>
																<index>2</index>
															</channel>
														</group>
													</outputs>
													<track TL.SQTrackAudioKeyframeStyle="0" TL.SQTrackShy="0" TL.SQTrackExpandedHeight="25" TL.SQTrackExpanded="0" MZ.TrackTargeted="1" PannerCurrentValue="0.5" PannerIsInverted="true" PannerStartKeyframe="-91445760000000000,0.5,0,0,0,0,0,0" PannerName="Balance" currentExplodedTrackIndex="0" totalExplodedTrackCount="2" premiereTrackType="Stereo">
														<transitionitem>
															<start>0</start>
															<end>7</end>
															<pproTicksIn>0</pproTicksIn>
															<pproTicksOut>59329670400</pproTicksOut>
															<alignment>start-black</alignment>
															<cutPointTicks>0</cutPointTicks>
															<rate>
																<timebase>30</timebase>
																<ntsc>TRUE</ntsc>
															</rate>
															<effect>
																<name>Cross Fade ( 0dB)</name>
																<effectid>KGAudioTransCrossFade0dB</effectid>
																<effecttype>transition</effecttype>
																<mediatype>audio</mediatype>
																<wipecode>0</wipecode>
																<wipeaccuracy>100</wipeaccuracy>
																<startratio>0</startratio>
																<endratio>1</endratio>
																<reverse>FALSE</reverse>
															</effect>
														</transitionitem>
														<clipitem id="clipitem-423" premiereChannelType="stereo">
															<masterclipid>masterclip-246</masterclipid>
															<name>ES_Maharajah - Ava Low.mp3</name>
															<enabled>TRUE</enabled>
															<duration>4358</duration>
															<rate>
																<timebase>30</timebase>
																<ntsc>TRUE</ntsc>
															</rate>
															<start>-1</start>
															<end>-1</end>
															<in>383</in>
															<out>2693</out>
															<pproTicksIn>3246180537600</pproTicksIn>
															<pproTicksOut>22824971769600</pproTicksOut>
															<file id="file-225">
																<name>ES_Maharajah - Ava Low.mp3</name>
																<pathurl>file://localhost/Volumes/T7/DRONE_08.18.2023/5_Music/ES_Maharajah%20-%20Ava%20Low.mp3</pathurl>
																<rate>
																	<timebase>30</timebase>
																	<ntsc>TRUE</ntsc>
																</rate>
																<duration>4358</duration>
																<timecode>
																	<rate>
																		<timebase>30</timebase>
																		<ntsc>TRUE</ntsc>
																	</rate>
																	<string>00;00;00;00</string>
																	<frame>0</frame>
																	<displayformat>DF</displayformat>
																</timecode>
																<media>
																	<audio>
																		<samplecharacteristics>
																			<depth>16</depth>
																			<samplerate>48000</samplerate>
																		</samplecharacteristics>
																		<channelcount>2</channelcount>
																	</audio>
																</media>
															</file>
															<sourcetrack>
																<mediatype>audio</mediatype>
																<trackindex>1</trackindex>
															</sourcetrack>
															<link>
																<linkclipref>clipitem-423</linkclipref>
																<mediatype>audio</mediatype>
																<trackindex>1</trackindex>
																<clipindex>2</clipindex>
																<groupindex>1</groupindex>
															</link>
															<link>
																<linkclipref>clipitem-424</linkclipref>
																<mediatype>audio</mediatype>
																<trackindex>2</trackindex>
																<clipindex>2</clipindex>
																<groupindex>1</groupindex>
															</link>
															<logginginfo>
																<description></description>
																<scene></scene>
																<shottake></shottake>
																<lognote></lognote>
																<good></good>
																<originalvideofilename></originalvideofilename>
																<originalaudiofilename></originalaudiofilename>
															</logginginfo>
															<colorinfo>
																<lut></lut>
																<lut1></lut1>
																<asc_sop></asc_sop>
																<asc_sat></asc_sat>
																<lut2></lut2>
															</colorinfo>
															<labels>
																<label2>Caribbean</label2>
															</labels>
														</clipitem>
														<transitionitem>
															<start>2303</start>
															<end>2310</end>
															<pproTicksIn>19519461561600</pproTicksIn>
															<pproTicksOut>19578791232000</pproTicksOut>
															<alignment>end-black</alignment>
															<cutPointTicks>59329670400</cutPointTicks>
															<rate>
																<timebase>30</timebase>
																<ntsc>TRUE</ntsc>
															</rate>
															<effect>
																<name>Cross Fade ( 0dB)</name>
																<effectid>KGAudioTransCrossFade0dB</effectid>
																<effecttype>transition</effecttype>
																<mediatype>audio</mediatype>
																<wipecode>0</wipecode>
																<wipeaccuracy>100</wipeaccuracy>
																<startratio>0</startratio>
																<endratio>1</endratio>
																<reverse>FALSE</reverse>
															</effect>
														</transitionitem>
														<enabled>TRUE</enabled>
														<locked>FALSE</locked>
														<outputchannelindex>1</outputchannelindex>
													</track>
													<track TL.SQTrackAudioKeyframeStyle="0" TL.SQTrackShy="0" TL.SQTrackExpandedHeight="25" TL.SQTrackExpanded="0" MZ.TrackTargeted="1" PannerCurrentValue="0.5" PannerIsInverted="true" PannerStartKeyframe="-91445760000000000,0.5,0,0,0,0,0,0" PannerName="Balance" currentExplodedTrackIndex="1" totalExplodedTrackCount="2" premiereTrackType="Stereo">
														<transitionitem>
															<start>0</start>
															<end>7</end>
															<pproTicksIn>0</pproTicksIn>
															<pproTicksOut>59329670400</pproTicksOut>
															<alignment>start-black</alignment>
															<cutPointTicks>0</cutPointTicks>
															<rate>
																<timebase>30</timebase>
																<ntsc>TRUE</ntsc>
															</rate>
															<effect>
																<name>Cross Fade ( 0dB)</name>
																<effectid>KGAudioTransCrossFade0dB</effectid>
																<effecttype>transition</effecttype>
																<mediatype>audio</mediatype>
																<wipecode>0</wipecode>
																<wipeaccuracy>100</wipeaccuracy>
																<startratio>0</startratio>
																<endratio>1</endratio>
																<reverse>FALSE</reverse>
															</effect>
														</transitionitem>
														<clipitem id="clipitem-424" premiereChannelType="stereo">
															<masterclipid>masterclip-246</masterclipid>
															<name>ES_Maharajah - Ava Low.mp3</name>
															<enabled>TRUE</enabled>
															<duration>4358</duration>
															<rate>
																<timebase>30</timebase>
																<ntsc>TRUE</ntsc>
															</rate>
															<start>-1</start>
															<end>-1</end>
															<in>383</in>
															<out>2693</out>
															<pproTicksIn>3246180537600</pproTicksIn>
															<pproTicksOut>22824971769600</pproTicksOut>
															<file id="file-225"/>
															<sourcetrack>
																<mediatype>audio</mediatype>
																<trackindex>2</trackindex>
															</sourcetrack>
															<link>
																<linkclipref>clipitem-423</linkclipref>
																<mediatype>audio</mediatype>
																<trackindex>1</trackindex>
																<clipindex>2</clipindex>
																<groupindex>1</groupindex>
															</link>
															<link>
																<linkclipref>clipitem-424</linkclipref>
																<mediatype>audio</mediatype>
																<trackindex>2</trackindex>
																<clipindex>2</clipindex>
																<groupindex>1</groupindex>
															</link>
															<logginginfo>
																<description></description>
																<scene></scene>
																<shottake></shottake>
																<lognote></lognote>
																<good></good>
																<originalvideofilename></originalvideofilename>
																<originalaudiofilename></originalaudiofilename>
															</logginginfo>
															<colorinfo>
																<lut></lut>
																<lut1></lut1>
																<asc_sop></asc_sop>
																<asc_sat></asc_sat>
																<lut2></lut2>
															</colorinfo>
															<labels>
																<label2>Caribbean</label2>
															</labels>
														</clipitem>
														<transitionitem>
															<start>2303</start>
															<end>2310</end>
															<pproTicksIn>19519461561600</pproTicksIn>
															<pproTicksOut>19578791232000</pproTicksOut>
															<alignment>end-black</alignment>
															<cutPointTicks>59329670400</cutPointTicks>
															<rate>
																<timebase>30</timebase>
																<ntsc>TRUE</ntsc>
															</rate>
															<effect>
																<name>Cross Fade ( 0dB)</name>
																<effectid>KGAudioTransCrossFade0dB</effectid>
																<effecttype>transition</effecttype>
																<mediatype>audio</mediatype>
																<wipecode>0</wipecode>
																<wipeaccuracy>100</wipeaccuracy>
																<startratio>0</startratio>
																<endratio>1</endratio>
																<reverse>FALSE</reverse>
															</effect>
														</transitionitem>
														<enabled>TRUE</enabled>
														<locked>FALSE</locked>
														<outputchannelindex>2</outputchannelindex>
													</track>
													<track TL.SQTrackAudioKeyframeStyle="0" TL.SQTrackShy="0" TL.SQTrackExpandedHeight="25" TL.SQTrackExpanded="0" MZ.TrackTargeted="1" PannerCurrentValue="0.5" PannerIsInverted="true" PannerStartKeyframe="-91445760000000000,0.5,0,0,0,0,0,0" PannerName="Balance" currentExplodedTrackIndex="0" totalExplodedTrackCount="2" premiereTrackType="Stereo">
														<enabled>TRUE</enabled>
														<locked>FALSE</locked>
														<outputchannelindex>1</outputchannelindex>
													</track>
													<track TL.SQTrackAudioKeyframeStyle="0" TL.SQTrackShy="0" TL.SQTrackExpandedHeight="25" TL.SQTrackExpanded="0" MZ.TrackTargeted="1" PannerCurrentValue="0.5" PannerIsInverted="true" PannerStartKeyframe="-91445760000000000,0.5,0,0,0,0,0,0" PannerName="Balance" currentExplodedTrackIndex="1" totalExplodedTrackCount="2" premiereTrackType="Stereo">
														<enabled>TRUE</enabled>
														<locked>FALSE</locked>
														<outputchannelindex>2</outputchannelindex>
													</track>
													<track TL.SQTrackAudioKeyframeStyle="0" TL.SQTrackShy="0" TL.SQTrackExpandedHeight="25" TL.SQTrackExpanded="0" MZ.TrackTargeted="1" PannerCurrentValue="0.5" PannerIsInverted="true" PannerStartKeyframe="-91445760000000000,0.5,0,0,0,0,0,0" PannerName="Balance" currentExplodedTrackIndex="0" totalExplodedTrackCount="2" premiereTrackType="Stereo">
														<enabled>TRUE</enabled>
														<locked>FALSE</locked>
														<outputchannelindex>1</outputchannelindex>
													</track>
													<track TL.SQTrackAudioKeyframeStyle="0" TL.SQTrackShy="0" TL.SQTrackExpandedHeight="25" TL.SQTrackExpanded="0" MZ.TrackTargeted="1" PannerCurrentValue="0.5" PannerIsInverted="true" PannerStartKeyframe="-91445760000000000,0.5,0,0,0,0,0,0" PannerName="Balance" currentExplodedTrackIndex="1" totalExplodedTrackCount="2" premiereTrackType="Stereo">
														<enabled>TRUE</enabled>
														<locked>FALSE</locked>
														<outputchannelindex>2</outputchannelindex>
													</track>
												</audio>
											</media>
											<timecode>
												<rate>
													<timebase>30</timebase>
													<ntsc>TRUE</ntsc>
												</rate>
												<string>00;00;00;00</string>
												<frame>0</frame>
												<displayformat>DF</displayformat>
											</timecode>
											<logginginfo>
												<description></description>
												<scene></scene>
												<shottake></shottake>
												<lognote></lognote>
												<good></good>
												<originalvideofilename></originalvideofilename>
												<originalaudiofilename></originalaudiofilename>
											</logginginfo>
											<filter>
												<effect>
													<name>Audio Levels</name>
													<effectid>audiolevels</effectid>
													<effectcategory>audiolevels</effectcategory>
													<effecttype>audiolevels</effecttype>
													<mediatype>audio</mediatype>
													<parameter authoringApp="PremierePro">
														<parameterid>level</parameterid>
														<name>Level</name>
														<valuemin>0</valuemin>
														<valuemax>3.98109</valuemax>
														<value>0.748121</value>
													</parameter>
												</effect>
											</filter>
										</sequence>
										<link>
											<linkclipref>clipitem-420</linkclipref>
											<mediatype>video</mediatype>
											<trackindex>1</trackindex>
											<clipindex>2</clipindex>
										</link>
										<link>
											<linkclipref>clipitem-439</linkclipref>
											<mediatype>audio</mediatype>
											<trackindex>1</trackindex>
											<clipindex>2</clipindex>
											<groupindex>1</groupindex>
										</link>
										<link>
											<linkclipref>clipitem-442</linkclipref>
											<mediatype>audio</mediatype>
											<trackindex>2</trackindex>
											<clipindex>2</clipindex>
											<groupindex>1</groupindex>
										</link>
										<labels>
											<label2>Forest</label2>
										</labels>
									</clipitem>
									<clipitem id="clipitem-425">
										<masterclipid>masterclip-247</masterclipid>
										<name>ATM_Content Submit QR.mp4</name>
										<enabled>TRUE</enabled>
										<duration>299</duration>
										<rate>
											<timebase>30</timebase>
											<ntsc>TRUE</ntsc>
										</rate>
										<start>5388</start>
										<end>5687</end>
										<in>0</in>
										<out>299</out>
										<pproTicksIn>0</pproTicksIn>
										<pproTicksOut>2534224492800</pproTicksOut>
										<alphatype>none</alphatype>
										<pixelaspectratio>square</pixelaspectratio>
										<anamorphic>FALSE</anamorphic>
										<file id="file-226">
											<name>ATM_Content Submit QR.mp4</name>
											<pathurl>file://localhost/Volumes/T7/DRONE_08.18.2023/4_Project%20Files/Drone%202023%20Master%20Assets/ATM_Content%20Submit%20QR.mp4</pathurl>
											<rate>
												<timebase>30</timebase>
												<ntsc>FALSE</ntsc>
											</rate>
											<duration>300</duration>
											<timecode>
												<rate>
													<timebase>30</timebase>
													<ntsc>FALSE</ntsc>
												</rate>
												<string>00:00:00:00</string>
												<frame>0</frame>
												<displayformat>NDF</displayformat>
											</timecode>
											<media>
												<video>
													<samplecharacteristics>
														<rate>
															<timebase>30</timebase>
															<ntsc>FALSE</ntsc>
														</rate>
														<width>1920</width>
														<height>1080</height>
														<anamorphic>FALSE</anamorphic>
														<pixelaspectratio>square</pixelaspectratio>
														<fielddominance>none</fielddominance>
													</samplecharacteristics>
												</video>
												<audio>
													<samplecharacteristics>
														<depth>16</depth>
														<samplerate>44100</samplerate>
													</samplecharacteristics>
													<channelcount>2</channelcount>
												</audio>
											</media>
										</file>
										<link>
											<linkclipref>clipitem-425</linkclipref>
											<mediatype>video</mediatype>
											<trackindex>1</trackindex>
											<clipindex>3</clipindex>
										</link>
										<link>
											<linkclipref>clipitem-440</linkclipref>
											<mediatype>audio</mediatype>
											<trackindex>1</trackindex>
											<clipindex>4</clipindex>
											<groupindex>1</groupindex>
										</link>
										<link>
											<linkclipref>clipitem-443</linkclipref>
											<mediatype>audio</mediatype>
											<trackindex>2</trackindex>
											<clipindex>4</clipindex>
											<groupindex>1</groupindex>
										</link>
										<logginginfo>
											<description></description>
											<scene></scene>
											<shottake></shottake>
											<lognote></lognote>
											<good></good>
											<originalvideofilename></originalvideofilename>
											<originalaudiofilename></originalaudiofilename>
										</logginginfo>
										<colorinfo>
											<lut></lut>
											<lut1></lut1>
											<asc_sop></asc_sop>
											<asc_sat></asc_sat>
											<lut2></lut2>
										</colorinfo>
										<labels>
											<label2>Iris</label2>
										</labels>
									</clipitem>
									<enabled>TRUE</enabled>
									<locked>FALSE</locked>
								</track>
								<track TL.SQTrackShy="0" TL.SQTrackExpandedHeight="25" TL.SQTrackExpanded="0" MZ.TrackTargeted="0">
									<clipitem id="clipitem-426">
										<masterclipid>masterclip-248</masterclipid>
										<name>Flying by the Beach</name>
										<enabled>TRUE</enabled>
										<duration>5694</duration>
										<rate>
											<timebase>30</timebase>
											<ntsc>TRUE</ntsc>
										</rate>
										<start>0</start>
										<end>2867</end>
										<in>0</in>
										<out>2867</out>
										<pproTicksIn>0</pproTicksIn>
										<pproTicksOut>24299737862400</pproTicksOut>
										<alphatype>straight</alphatype>
										<pixelaspectratio>square</pixelaspectratio>
										<anamorphic>FALSE</anamorphic>
										<file id="file-227">
											<name>DRONE_LOWER_A/NEW DRONE L3.aep</name>
											<pathurl>file://localhost/Volumes/T7/DRONE_08.18.2023/4_Project%20Files/Drone%202023%20Master%20Assets/01_Bugs/NEW%20DRONE%20L3/NEW%20DRONE%20L3.aep</pathurl>
											<rate>
												<timebase>30</timebase>
												<ntsc>TRUE</ntsc>
											</rate>
											<duration>5694</duration>
											<timecode>
												<rate>
													<timebase>30</timebase>
													<ntsc>TRUE</ntsc>
												</rate>
												<string>00;00;00;00</string>
												<frame>0</frame>
												<displayformat>DF</displayformat>
											</timecode>
											<media>
												<video>
													<samplecharacteristics>
														<rate>
															<timebase>30</timebase>
															<ntsc>TRUE</ntsc>
														</rate>
														<width>1920</width>
														<height>1080</height>
														<anamorphic>FALSE</anamorphic>
														<pixelaspectratio>square</pixelaspectratio>
														<fielddominance>lower</fielddominance>
													</samplecharacteristics>
												</video>
											</media>
										</file>
										<logginginfo>
											<description></description>
											<scene></scene>
											<shottake></shottake>
											<lognote></lognote>
											<good></good>
											<originalvideofilename></originalvideofilename>
											<originalaudiofilename></originalaudiofilename>
										</logginginfo>
										<colorinfo>
											<lut></lut>
											<lut1></lut1>
											<asc_sop></asc_sop>
											<asc_sat></asc_sat>
											<lut2></lut2>
										</colorinfo>
										<labels>
											<label2>Rose</label2>
										</labels>
									</clipitem>
									<clipitem id="clipitem-427">
										<masterclipid>masterclip-249</masterclipid>
										<name>Flying by the Beach Copy 01</name>
										<enabled>TRUE</enabled>
										<duration>5694</duration>
										<rate>
											<timebase>30</timebase>
											<ntsc>TRUE</ntsc>
										</rate>
										<start>3078</start>
										<end>5388</end>
										<in>0</in>
										<out>2310</out>
										<pproTicksIn>0</pproTicksIn>
										<pproTicksOut>19578791232000</pproTicksOut>
										<alphatype>straight</alphatype>
										<pixelaspectratio>square</pixelaspectratio>
										<anamorphic>FALSE</anamorphic>
										<file id="file-228">
											<name>DRONE_LOWER_A/NEW DRONE L3.aep</name>
											<pathurl>file://localhost/Volumes/T7/DRONE_08.18.2023/4_Project%20Files/Drone%202023%20Master%20Assets/01_Bugs/NEW%20DRONE%20L3/NEW%20DRONE%20L3.aep</pathurl>
											<rate>
												<timebase>30</timebase>
												<ntsc>TRUE</ntsc>
											</rate>
											<duration>5694</duration>
											<timecode>
												<rate>
													<timebase>30</timebase>
													<ntsc>TRUE</ntsc>
												</rate>
												<string>00;00;00;00</string>
												<frame>0</frame>
												<displayformat>DF</displayformat>
											</timecode>
											<media>
												<video>
													<samplecharacteristics>
														<rate>
															<timebase>30</timebase>
															<ntsc>TRUE</ntsc>
														</rate>
														<width>1920</width>
														<height>1080</height>
														<anamorphic>FALSE</anamorphic>
														<pixelaspectratio>square</pixelaspectratio>
														<fielddominance>lower</fielddominance>
													</samplecharacteristics>
												</video>
											</media>
										</file>
										<logginginfo>
											<description></description>
											<scene></scene>
											<shottake></shottake>
											<lognote></lognote>
											<good></good>
											<originalvideofilename></originalvideofilename>
											<originalaudiofilename></originalaudiofilename>
										</logginginfo>
										<colorinfo>
											<lut></lut>
											<lut1></lut1>
											<asc_sop></asc_sop>
											<asc_sat></asc_sat>
											<lut2></lut2>
										</colorinfo>
										<labels>
											<label2>Rose</label2>
										</labels>
									</clipitem>
									<enabled>TRUE</enabled>
									<locked>FALSE</locked>
								</track>
								<track TL.SQTrackShy="0" TL.SQTrackExpandedHeight="25" TL.SQTrackExpanded="0" MZ.TrackTargeted="0">
									<clipitem id="clipitem-428">
										<masterclipid>masterclip-250</masterclipid>
										<name>Zeeland</name>
										<enabled>TRUE</enabled>
										<duration>5694</duration>
										<rate>
											<timebase>30</timebase>
											<ntsc>TRUE</ntsc>
										</rate>
										<start>264</start>
										<end>2867</end>
										<in>0</in>
										<out>2603</out>
										<pproTicksIn>0</pproTicksIn>
										<pproTicksOut>22062161721600</pproTicksOut>
										<alphatype>straight</alphatype>
										<pixelaspectratio>square</pixelaspectratio>
										<anamorphic>FALSE</anamorphic>
										<file id="file-229">
											<name>DRONE_PIN/DRONE_PIN.aep</name>
											<pathurl>file://localhost/Volumes/T7/DRONE_08.18.2023/4_Project%20Files/Drone%202023%20Master%20Assets/01_Bugs/DRIVE_LOCATION%20PIN/DRONE_PIN.aep</pathurl>
											<rate>
												<timebase>30</timebase>
												<ntsc>TRUE</ntsc>
											</rate>
											<duration>5694</duration>
											<timecode>
												<rate>
													<timebase>30</timebase>
													<ntsc>TRUE</ntsc>
												</rate>
												<string>00;00;00;00</string>
												<frame>0</frame>
												<displayformat>DF</displayformat>
											</timecode>
											<media>
												<video>
													<samplecharacteristics>
														<rate>
															<timebase>30</timebase>
															<ntsc>TRUE</ntsc>
														</rate>
														<width>1920</width>
														<height>1080</height>
														<anamorphic>FALSE</anamorphic>
														<pixelaspectratio>square</pixelaspectratio>
														<fielddominance>lower</fielddominance>
													</samplecharacteristics>
												</video>
											</media>
										</file>
										<logginginfo>
											<description></description>
											<scene></scene>
											<shottake></shottake>
											<lognote></lognote>
											<good></good>
											<originalvideofilename></originalvideofilename>
											<originalaudiofilename></originalaudiofilename>
										</logginginfo>
										<colorinfo>
											<lut></lut>
											<lut1></lut1>
											<asc_sop></asc_sop>
											<asc_sat></asc_sat>
											<lut2></lut2>
										</colorinfo>
										<labels>
											<label2>Cerulean</label2>
										</labels>
									</clipitem>
									<enabled>TRUE</enabled>
									<locked>FALSE</locked>
								</track>
								<track TL.SQTrackShy="0" TL.SQTrackExpandedHeight="25" TL.SQTrackExpanded="0" MZ.TrackTargeted="0">
									<clipitem id="clipitem-429">
										<masterclipid>masterclip-153</masterclipid>
										<name>ATM BUG</name>
										<enabled>TRUE</enabled>
										<duration>5818</duration>
										<rate>
											<timebase>30</timebase>
											<ntsc>TRUE</ntsc>
										</rate>
										<start>0</start>
										<end>5388</end>
										<in>0</in>
										<out>5388</out>
										<pproTicksIn>0</pproTicksIn>
										<pproTicksOut>45666894873600</pproTicksOut>
										<sequence id="sequence-5"/>
										<labels>
											<label2>Violet</label2>
										</labels>
									</clipitem>
									<enabled>TRUE</enabled>
									<locked>FALSE</locked>
								</track>
								<track TL.SQTrackShy="0" TL.SQTrackExpandedHeight="25" TL.SQTrackExpanded="0" MZ.TrackTargeted="0">
									<clipitem id="clipitem-430">
										<masterclipid>masterclip-251</masterclipid>
										<name>Trans F</name>
										<enabled>TRUE</enabled>
										<duration>5697</duration>
										<rate>
											<timebase>30</timebase>
											<ntsc>TRUE</ntsc>
										</rate>
										<start>2849</start>
										<end>3094</end>
										<in>0</in>
										<out>245</out>
										<pproTicksIn>0</pproTicksIn>
										<pproTicksOut>2076538464000</pproTicksOut>
										<sequence id="sequence-27" TL.SQAudioVisibleBase="0" TL.SQVideoVisibleBase="0" TL.SQVisibleBaseTime="0" TL.SQAVDividerPosition="0.5" TL.SQHideShyTracks="0" TL.SQHeaderWidth="236" Monitor.ProgramZoomOut="2076538464000" Monitor.ProgramZoomIn="0" TL.SQTimePerPixel="0.0035931307196854921" MZ.EditLine="194940345600" MZ.Sequence.PreviewFrameSizeHeight="1080" MZ.Sequence.PreviewFrameSizeWidth="1920" MZ.Sequence.AudioTimeDisplayFormat="200" MZ.Sequence.PreviewRenderingClassID="1297106761" MZ.Sequence.PreviewRenderingPresetCodec="1297107278" MZ.Sequence.PreviewRenderingPresetPath="EncoderPresets/SequencePreview/795454d9-d3c2-429d-9474-923ab13b7018/I-Frame Only MPEG.epr" MZ.Sequence.PreviewUseMaxRenderQuality="false" MZ.Sequence.PreviewUseMaxBitDepth="false" MZ.Sequence.EditingModeGUID="795454d9-d3c2-429d-9474-923ab13b7018" MZ.Sequence.VideoTimeDisplayFormat="102" MZ.WorkOutPoint="15239249625600" MZ.WorkInPoint="0">
											<duration>245</duration>
											<rate>
												<timebase>30</timebase>
												<ntsc>TRUE</ntsc>
											</rate>
											<name>Trans F</name>
											<media>
												<video>
													<format>
														<samplecharacteristics>
															<rate>
																<timebase>30</timebase>
																<ntsc>TRUE</ntsc>
															</rate>
															<codec>
																<name>Apple ProRes 422</name>
																<appspecificdata>
																	<appname>Final Cut Pro</appname>
																	<appmanufacturer>Apple Inc.</appmanufacturer>
																	<appversion>7.0</appversion>
																	<data>
																		<qtcodec>
																			<codecname>Apple ProRes 422</codecname>
																			<codectypename>Apple ProRes 422</codectypename>
																			<codectypecode>apcn</codectypecode>
																			<codecvendorcode>appl</codecvendorcode>
																			<spatialquality>1024</spatialquality>
																			<temporalquality>0</temporalquality>
																			<keyframerate>0</keyframerate>
																			<datarate>0</datarate>
																		</qtcodec>
																	</data>
																</appspecificdata>
															</codec>
															<width>1920</width>
															<height>1080</height>
															<anamorphic>FALSE</anamorphic>
															<pixelaspectratio>square</pixelaspectratio>
															<fielddominance>none</fielddominance>
															<colordepth>24</colordepth>
														</samplecharacteristics>
													</format>
													<track TL.SQTrackShy="0" TL.SQTrackExpandedHeight="25" TL.SQTrackExpanded="0" MZ.TrackTargeted="1">
														<clipitem id="clipitem-431">
															<masterclipid>masterclip-252</masterclipid>
															<name>ATM_DRONE_TRANS_F.mov</name>
															<enabled>TRUE</enabled>
															<duration>245</duration>
															<rate>
																<timebase>30</timebase>
																<ntsc>TRUE</ntsc>
															</rate>
															<start>9</start>
															<end>229</end>
															<in>12</in>
															<out>232</out>
															<pproTicksIn>101708006400</pproTicksIn>
															<pproTicksOut>1966354790400</pproTicksOut>
															<alphatype>straight</alphatype>
															<pixelaspectratio>square</pixelaspectratio>
															<anamorphic>FALSE</anamorphic>
															<file id="file-230">
																<name>ATM_DRONE_TRANS_F.mov</name>
																<pathurl>file://localhost/Volumes/T7/DRONE_08.18.2023/4_Project%20Files/Drone%202023%20Master%20Assets/02_Transitions/DRONE%20transitions%20(30fps)/ATM_DRONE_TRANS_F.mov</pathurl>
																<rate>
																	<timebase>30</timebase>
																	<ntsc>TRUE</ntsc>
																</rate>
																<duration>245</duration>
																<timecode>
																	<rate>
																		<timebase>30</timebase>
																		<ntsc>TRUE</ntsc>
																	</rate>
																	<string>00;00;00;00</string>
																	<frame>0</frame>
																	<displayformat>DF</displayformat>
																</timecode>
																<media>
																	<video>
																		<samplecharacteristics>
																			<rate>
																				<timebase>30</timebase>
																				<ntsc>TRUE</ntsc>
																			</rate>
																			<width>1920</width>
																			<height>1080</height>
																			<anamorphic>FALSE</anamorphic>
																			<pixelaspectratio>square</pixelaspectratio>
																			<fielddominance>none</fielddominance>
																		</samplecharacteristics>
																	</video>
																	<audio>
																		<samplecharacteristics>
																			<depth>16</depth>
																			<samplerate>48000</samplerate>
																		</samplecharacteristics>
																		<channelcount>2</channelcount>
																	</audio>
																</media>
															</file>
															<logginginfo>
																<description></description>
																<scene></scene>
																<shottake></shottake>
																<lognote></lognote>
																<good></good>
																<originalvideofilename></originalvideofilename>
																<originalaudiofilename></originalaudiofilename>
															</logginginfo>
															<colorinfo>
																<lut></lut>
																<lut1></lut1>
																<asc_sop></asc_sop>
																<asc_sat></asc_sat>
																<lut2></lut2>
															</colorinfo>
															<labels>
																<label2>Iris</label2>
															</labels>
														</clipitem>
														<enabled>TRUE</enabled>
														<locked>FALSE</locked>
													</track>
													<track TL.SQTrackShy="0" TL.SQTrackExpandedHeight="25" TL.SQTrackExpanded="0" MZ.TrackTargeted="0">
														<clipitem id="clipitem-432">
															<masterclipid>masterclip-157</masterclipid>
															<name>02 Zoom In - Quick / Transform Out</name>
															<enabled>TRUE</enabled>
															<duration>1294705</duration>
															<rate>
																<timebase>30</timebase>
																<ntsc>TRUE</ntsc>
															</rate>
															<start>0</start>
															<end>9</end>
															<in>0</in>
															<out>9</out>
															<pproTicksIn>0</pproTicksIn>
															<pproTicksOut>76281004800</pproTicksOut>
															<sequence id="sequence-7"/>
																<marker>
																	<comment></comment>
																	<name></name>
																	<in>20</in>
																	<out>-1</out>
																</marker>
															<labels>
																<label2>Iris</label2>
															</labels>
														</clipitem>
														<clipitem id="clipitem-433">
															<masterclipid>masterclip-159</masterclipid>
															<name>02 Zoom In - Quick / Transform In</name>
															<enabled>TRUE</enabled>
															<duration>1294705</duration>
															<rate>
																<timebase>30</timebase>
																<ntsc>TRUE</ntsc>
															</rate>
															<start>9</start>
															<end>17</end>
															<in>0</in>
															<out>8</out>
															<pproTicksIn>0</pproTicksIn>
															<pproTicksOut>67805337600</pproTicksOut>
															<sequence id="sequence-8"/>
															<labels>
																<label2>Iris</label2>
															</labels>
														</clipitem>
														<clipitem id="clipitem-434">
															<masterclipid>masterclip-157</masterclipid>
															<name>03 Zoom Out - Quick / Transform Out</name>
															<enabled>TRUE</enabled>
															<duration>1294705</duration>
															<rate>
																<timebase>30</timebase>
																<ntsc>TRUE</ntsc>
															</rate>
															<start>220</start>
															<end>229</end>
															<in>0</in>
															<out>9</out>
															<pproTicksIn>0</pproTicksIn>
															<pproTicksOut>76281004800</pproTicksOut>
															<sequence id="sequence-7"/>
																<marker>
																	<comment></comment>
																	<name></name>
																	<in>20</in>
																	<out>-1</out>
																</marker>
															<labels>
																<label2>Iris</label2>
															</labels>
														</clipitem>
														<clipitem id="clipitem-435">
															<masterclipid>masterclip-159</masterclipid>
															<name>03 Zoom Out - Quick / Transform In</name>
															<enabled>TRUE</enabled>
															<duration>1294705</duration>
															<rate>
																<timebase>30</timebase>
																<ntsc>TRUE</ntsc>
															</rate>
															<start>229</start>
															<end>238</end>
															<in>0</in>
															<out>9</out>
															<pproTicksIn>0</pproTicksIn>
															<pproTicksOut>76281004800</pproTicksOut>
															<sequence id="sequence-8"/>
															<filter>
																<effect>
																	<name>Basic Motion</name>
																	<effectid>basic</effectid>
																	<effectcategory>motion</effectcategory>
																	<effecttype>motion</effecttype>
																	<mediatype>video</mediatype>
																	<pproBypass>false</pproBypass>
																	<parameter authoringApp="PremierePro">
																		<parameterid>scale</parameterid>
																		<name>Scale</name>
																		<valuemin>0</valuemin>
																		<valuemax>1000</valuemax>
																		<value>100</value>
																	</parameter>
																	<parameter authoringApp="PremierePro">
																		<parameterid>rotation</parameterid>
																		<name>Rotation</name>
																		<valuemin>-8640</valuemin>
																		<valuemax>8640</valuemax>
																		<value>0</value>
																	</parameter>
																	<parameter authoringApp="PremierePro">
																		<parameterid>center</parameterid>
																		<name>Center</name>
																		<value>
																			<horiz>-0.5</horiz>
																			<vert>-0.499394</vert>
																		</value>
																	</parameter>
																	<parameter authoringApp="PremierePro">
																		<parameterid>centerOffset</parameterid>
																		<name>Anchor Point</name>
																		<value>
																			<horiz>0</horiz>
																			<vert>-0.00060606</vert>
																		</value>
																	</parameter>
																	<parameter authoringApp="PremierePro">
																		<parameterid>antiflicker</parameterid>
																		<name>Anti-flicker Filter</name>
																		<valuemin>0.0</valuemin>
																		<valuemax>1.0</valuemax>
																		<value>0</value>
																	</parameter>
																</effect>
															</filter>
															<labels>
																<label2>Iris</label2>
															</labels>
														</clipitem>
														<enabled>TRUE</enabled>
														<locked>FALSE</locked>
													</track>
													<track TL.SQTrackShy="0" TL.SQTrackExpandedHeight="25" TL.SQTrackExpanded="0" MZ.TrackTargeted="0">
														<enabled>TRUE</enabled>
														<locked>FALSE</locked>
													</track>
												</video>
												<audio>
													<numOutputChannels>2</numOutputChannels>
													<format>
														<samplecharacteristics>
															<depth>16</depth>
															<samplerate>32000</samplerate>
														</samplecharacteristics>
													</format>
													<outputs>
														<group>
															<index>1</index>
															<numchannels>1</numchannels>
															<downmix>0</downmix>
															<channel>
																<index>1</index>
															</channel>
														</group>
														<group>
															<index>2</index>
															<numchannels>1</numchannels>
															<downmix>0</downmix>
															<channel>
																<index>2</index>
															</channel>
														</group>
													</outputs>
													<track TL.SQTrackAudioKeyframeStyle="0" TL.SQTrackShy="0" TL.SQTrackExpandedHeight="25" TL.SQTrackExpanded="0" MZ.TrackTargeted="1" PannerCurrentValue="0.5" PannerIsInverted="true" PannerStartKeyframe="-91445760000000000,0.5,0,0,0,0,0,0" PannerName="Balance" currentExplodedTrackIndex="0" totalExplodedTrackCount="2" premiereTrackType="Stereo">
														<clipitem id="clipitem-436" premiereChannelType="stereo">
															<masterclipid>masterclip-252</masterclipid>
															<name>ATM_DRONE_TRANS_F.mov</name>
															<enabled>TRUE</enabled>
															<duration>245</duration>
															<rate>
																<timebase>30</timebase>
																<ntsc>TRUE</ntsc>
															</rate>
															<start>0</start>
															<end>245</end>
															<in>0</in>
															<out>245</out>
															<pproTicksIn>0</pproTicksIn>
															<pproTicksOut>2076538464000</pproTicksOut>
															<file id="file-230"/>
															<sourcetrack>
																<mediatype>audio</mediatype>
																<trackindex>1</trackindex>
															</sourcetrack>
															<filter>
																<effect>
																	<name>Gain</name>
																	<effectid>{61756678, 4761696e, 4b657947}</effectid>
																	<effecttype>filter</effecttype>
																	<mediatype>audio</mediatype>
																	<parameter authoringApp="PremierePro">
																		<parameterid>Gain(dB)</parameterid>
																		<name>Gain(dB)</name>
																		<valuemin>-96</valuemin>
																		<valuemax>96</valuemax>
																		<value>-9</value>
																	</parameter>
																</effect>
															</filter>
															<link>
																<linkclipref>clipitem-436</linkclipref>
																<mediatype>audio</mediatype>
																<trackindex>1</trackindex>
																<clipindex>1</clipindex>
																<groupindex>1</groupindex>
															</link>
															<link>
																<linkclipref>clipitem-437</linkclipref>
																<mediatype>audio</mediatype>
																<trackindex>2</trackindex>
																<clipindex>1</clipindex>
																<groupindex>1</groupindex>
															</link>
															<logginginfo>
																<description></description>
																<scene></scene>
																<shottake></shottake>
																<lognote></lognote>
																<good></good>
																<originalvideofilename></originalvideofilename>
																<originalaudiofilename></originalaudiofilename>
															</logginginfo>
															<colorinfo>
																<lut></lut>
																<lut1></lut1>
																<asc_sop></asc_sop>
																<asc_sat></asc_sat>
																<lut2></lut2>
															</colorinfo>
															<labels>
																<label2>Iris</label2>
															</labels>
														</clipitem>
														<enabled>TRUE</enabled>
														<locked>FALSE</locked>
														<outputchannelindex>1</outputchannelindex>
													</track>
													<track TL.SQTrackAudioKeyframeStyle="0" TL.SQTrackShy="0" TL.SQTrackExpandedHeight="25" TL.SQTrackExpanded="0" MZ.TrackTargeted="1" PannerCurrentValue="0.5" PannerIsInverted="true" PannerStartKeyframe="-91445760000000000,0.5,0,0,0,0,0,0" PannerName="Balance" currentExplodedTrackIndex="1" totalExplodedTrackCount="2" premiereTrackType="Stereo">
														<clipitem id="clipitem-437" premiereChannelType="stereo">
															<masterclipid>masterclip-252</masterclipid>
															<name>ATM_DRONE_TRANS_F.mov</name>
															<enabled>TRUE</enabled>
															<duration>245</duration>
															<rate>
																<timebase>30</timebase>
																<ntsc>TRUE</ntsc>
															</rate>
															<start>0</start>
															<end>245</end>
															<in>0</in>
															<out>245</out>
															<pproTicksIn>0</pproTicksIn>
															<pproTicksOut>2076538464000</pproTicksOut>
															<file id="file-230"/>
															<sourcetrack>
																<mediatype>audio</mediatype>
																<trackindex>2</trackindex>
															</sourcetrack>
															<filter>
																<effect>
																	<name>Gain</name>
																	<effectid>{61756678, 4761696e, 4b657947}</effectid>
																	<effecttype>filter</effecttype>
																	<mediatype>audio</mediatype>
																	<parameter authoringApp="PremierePro">
																		<parameterid>Gain(dB)</parameterid>
																		<name>Gain(dB)</name>
																		<valuemin>-96</valuemin>
																		<valuemax>96</valuemax>
																		<value>-9</value>
																	</parameter>
																</effect>
															</filter>
															<link>
																<linkclipref>clipitem-436</linkclipref>
																<mediatype>audio</mediatype>
																<trackindex>1</trackindex>
																<clipindex>1</clipindex>
																<groupindex>1</groupindex>
															</link>
															<link>
																<linkclipref>clipitem-437</linkclipref>
																<mediatype>audio</mediatype>
																<trackindex>2</trackindex>
																<clipindex>1</clipindex>
																<groupindex>1</groupindex>
															</link>
															<logginginfo>
																<description></description>
																<scene></scene>
																<shottake></shottake>
																<lognote></lognote>
																<good></good>
																<originalvideofilename></originalvideofilename>
																<originalaudiofilename></originalaudiofilename>
															</logginginfo>
															<colorinfo>
																<lut></lut>
																<lut1></lut1>
																<asc_sop></asc_sop>
																<asc_sat></asc_sat>
																<lut2></lut2>
															</colorinfo>
															<labels>
																<label2>Iris</label2>
															</labels>
														</clipitem>
														<enabled>TRUE</enabled>
														<locked>FALSE</locked>
														<outputchannelindex>2</outputchannelindex>
													</track>
													<track TL.SQTrackAudioKeyframeStyle="0" TL.SQTrackShy="0" TL.SQTrackExpandedHeight="25" TL.SQTrackExpanded="0" MZ.TrackTargeted="1" PannerCurrentValue="0.5" PannerIsInverted="true" PannerStartKeyframe="-91445760000000000,0.5,0,0,0,0,0,0" PannerName="Balance" currentExplodedTrackIndex="0" totalExplodedTrackCount="2" premiereTrackType="Stereo">
														<enabled>TRUE</enabled>
														<locked>FALSE</locked>
														<outputchannelindex>1</outputchannelindex>
													</track>
													<track TL.SQTrackAudioKeyframeStyle="0" TL.SQTrackShy="0" TL.SQTrackExpandedHeight="25" TL.SQTrackExpanded="0" MZ.TrackTargeted="1" PannerCurrentValue="0.5" PannerIsInverted="true" PannerStartKeyframe="-91445760000000000,0.5,0,0,0,0,0,0" PannerName="Balance" currentExplodedTrackIndex="1" totalExplodedTrackCount="2" premiereTrackType="Stereo">
														<enabled>TRUE</enabled>
														<locked>FALSE</locked>
														<outputchannelindex>2</outputchannelindex>
													</track>
													<track TL.SQTrackAudioKeyframeStyle="0" TL.SQTrackShy="0" TL.SQTrackExpandedHeight="25" TL.SQTrackExpanded="0" MZ.TrackTargeted="1" PannerCurrentValue="0.5" PannerIsInverted="true" PannerStartKeyframe="-91445760000000000,0.5,0,0,0,0,0,0" PannerName="Balance" currentExplodedTrackIndex="0" totalExplodedTrackCount="2" premiereTrackType="Stereo">
														<enabled>TRUE</enabled>
														<locked>FALSE</locked>
														<outputchannelindex>1</outputchannelindex>
													</track>
													<track TL.SQTrackAudioKeyframeStyle="0" TL.SQTrackShy="0" TL.SQTrackExpandedHeight="25" TL.SQTrackExpanded="0" MZ.TrackTargeted="1" PannerCurrentValue="0.5" PannerIsInverted="true" PannerStartKeyframe="-91445760000000000,0.5,0,0,0,0,0,0" PannerName="Balance" currentExplodedTrackIndex="1" totalExplodedTrackCount="2" premiereTrackType="Stereo">
														<enabled>TRUE</enabled>
														<locked>FALSE</locked>
														<outputchannelindex>2</outputchannelindex>
													</track>
												</audio>
											</media>
											<timecode>
												<rate>
													<timebase>30</timebase>
													<ntsc>TRUE</ntsc>
												</rate>
												<string>00;00;00;00</string>
												<frame>0</frame>
												<displayformat>DF</displayformat>
											</timecode>
												<marker>
													<comment></comment>
													<name></name>
													<in>9</in>
													<out>-1</out>
													<pproColor>4281828977</pproColor>
												</marker>
												<marker>
													<comment></comment>
													<name></name>
													<in>229</in>
													<out>-1</out>
													<pproColor>4281828977</pproColor>
												</marker>
											<logginginfo>
												<description></description>
												<scene></scene>
												<shottake></shottake>
												<lognote></lognote>
												<good></good>
												<originalvideofilename></originalvideofilename>
												<originalaudiofilename></originalaudiofilename>
											</logginginfo>
										</sequence>
											<marker>
												<comment></comment>
												<name></name>
												<in>9</in>
												<out>-1</out>
												<pproColor>4281828977</pproColor>
											</marker>
											<marker>
												<comment></comment>
												<name></name>
												<in>229</in>
												<out>-1</out>
												<pproColor>4281828977</pproColor>
											</marker>
										<link>
											<linkclipref>clipitem-430</linkclipref>
											<mediatype>video</mediatype>
											<trackindex>5</trackindex>
											<clipindex>1</clipindex>
										</link>
										<link>
											<linkclipref>clipitem-444</linkclipref>
											<mediatype>audio</mediatype>
											<trackindex>9</trackindex>
											<clipindex>1</clipindex>
											<groupindex>1</groupindex>
										</link>
										<link>
											<linkclipref>clipitem-445</linkclipref>
											<mediatype>audio</mediatype>
											<trackindex>10</trackindex>
											<clipindex>1</clipindex>
											<groupindex>1</groupindex>
										</link>
										<labels>
											<label2>Tan</label2>
										</labels>
									</clipitem>
									<enabled>TRUE</enabled>
									<locked>FALSE</locked>
								</track>
							</video>
							<audio>
								<numOutputChannels>2</numOutputChannels>
								<format>
									<samplecharacteristics>
										<depth>16</depth>
										<samplerate>32000</samplerate>
									</samplecharacteristics>
								</format>
								<outputs>
									<group>
										<index>1</index>
										<numchannels>1</numchannels>
										<downmix>0</downmix>
										<channel>
											<index>1</index>
										</channel>
									</group>
									<group>
										<index>2</index>
										<numchannels>1</numchannels>
										<downmix>0</downmix>
										<channel>
											<index>2</index>
										</channel>
									</group>
								</outputs>
								<track TL.SQTrackAudioKeyframeStyle="0" TL.SQTrackShy="0" TL.SQTrackExpandedHeight="25" TL.SQTrackExpanded="0" MZ.TrackTargeted="1" PannerCurrentValue="0.5" PannerIsInverted="true" PannerStartKeyframe="-91445760000000000,0.5,0,0,0,0,0,0" PannerName="Balance" currentExplodedTrackIndex="0" totalExplodedTrackCount="2" premiereTrackType="Stereo">
									<clipitem id="clipitem-438" premiereChannelType="stereo">
										<masterclipid>masterclip-237</masterclipid>
										<name>DRONE_Flying by the Beach_1.5</name>
										<enabled>TRUE</enabled>
										<duration>14299</duration>
										<rate>
											<timebase>30</timebase>
											<ntsc>TRUE</ntsc>
										</rate>
										<start>0</start>
										<end>2867</end>
										<in>0</in>
										<out>2867</out>
										<pproTicksIn>0</pproTicksIn>
										<pproTicksOut>24299737862400</pproTicksOut>
										<sequence id="sequence-25"/>
										<sourcetrack>
											<mediatype>audio</mediatype>
											<trackindex>0</trackindex>
										</sourcetrack>
										<link>
											<linkclipref>clipitem-413</linkclipref>
											<mediatype>video</mediatype>
											<trackindex>1</trackindex>
											<clipindex>1</clipindex>
										</link>
										<link>
											<linkclipref>clipitem-438</linkclipref>
											<mediatype>audio</mediatype>
											<trackindex>1</trackindex>
											<clipindex>1</clipindex>
											<groupindex>1</groupindex>
										</link>
										<link>
											<linkclipref>clipitem-441</linkclipref>
											<mediatype>audio</mediatype>
											<trackindex>2</trackindex>
											<clipindex>1</clipindex>
											<groupindex>1</groupindex>
										</link>
										<labels>
											<label2>Forest</label2>
										</labels>
									</clipitem>
									<clipitem id="clipitem-439" premiereChannelType="stereo">
										<masterclipid>masterclip-243</masterclipid>
										<name>DRONE_Masters of Dirt_1.5</name>
										<enabled>TRUE</enabled>
										<duration>4358</duration>
										<rate>
											<timebase>30</timebase>
											<ntsc>TRUE</ntsc>
										</rate>
										<start>3078</start>
										<end>-1</end>
										<in>0</in>
										<out>2310</out>
										<pproTicksIn>0</pproTicksIn>
										<pproTicksOut>19578791232000</pproTicksOut>
										<sequence id="sequence-26"/>
										<sourcetrack>
											<mediatype>audio</mediatype>
											<trackindex>0</trackindex>
										</sourcetrack>
										<link>
											<linkclipref>clipitem-420</linkclipref>
											<mediatype>video</mediatype>
											<trackindex>1</trackindex>
											<clipindex>2</clipindex>
										</link>
										<link>
											<linkclipref>clipitem-439</linkclipref>
											<mediatype>audio</mediatype>
											<trackindex>1</trackindex>
											<clipindex>2</clipindex>
											<groupindex>1</groupindex>
										</link>
										<link>
											<linkclipref>clipitem-442</linkclipref>
											<mediatype>audio</mediatype>
											<trackindex>2</trackindex>
											<clipindex>2</clipindex>
											<groupindex>1</groupindex>
										</link>
										<labels>
											<label2>Forest</label2>
										</labels>
									</clipitem>
									<transitionitem>
										<start>5374</start>
										<end>5388</end>
										<pproTicksIn>45548235532800</pproTicksIn>
										<pproTicksOut>45666894873600</pproTicksOut>
										<alignment>end-black</alignment>
										<cutPointTicks>118659340800</cutPointTicks>
										<rate>
											<timebase>30</timebase>
											<ntsc>TRUE</ntsc>
										</rate>
										<effect>
											<name>Cross Fade ( 0dB)</name>
											<effectid>KGAudioTransCrossFade0dB</effectid>
											<effecttype>transition</effecttype>
											<mediatype>audio</mediatype>
											<wipecode>0</wipecode>
											<wipeaccuracy>100</wipeaccuracy>
											<startratio>0</startratio>
											<endratio>1</endratio>
											<reverse>FALSE</reverse>
										</effect>
									</transitionitem>
									<clipitem id="clipitem-440" premiereChannelType="stereo">
										<masterclipid>masterclip-247</masterclipid>
										<name>ATM_Content Submit QR.mp4</name>
										<enabled>TRUE</enabled>
										<duration>299</duration>
										<rate>
											<timebase>30</timebase>
											<ntsc>TRUE</ntsc>
										</rate>
										<start>5388</start>
										<end>5687</end>
										<in>0</in>
										<out>299</out>
										<pproTicksIn>0</pproTicksIn>
										<pproTicksOut>2534224492800</pproTicksOut>
										<file id="file-226"/>
										<sourcetrack>
											<mediatype>audio</mediatype>
											<trackindex>1</trackindex>
										</sourcetrack>
										<link>
											<linkclipref>clipitem-425</linkclipref>
											<mediatype>video</mediatype>
											<trackindex>1</trackindex>
											<clipindex>3</clipindex>
										</link>
										<link>
											<linkclipref>clipitem-440</linkclipref>
											<mediatype>audio</mediatype>
											<trackindex>1</trackindex>
											<clipindex>4</clipindex>
											<groupindex>1</groupindex>
										</link>
										<link>
											<linkclipref>clipitem-443</linkclipref>
											<mediatype>audio</mediatype>
											<trackindex>2</trackindex>
											<clipindex>4</clipindex>
											<groupindex>1</groupindex>
										</link>
										<logginginfo>
											<description></description>
											<scene></scene>
											<shottake></shottake>
											<lognote></lognote>
											<good></good>
											<originalvideofilename></originalvideofilename>
											<originalaudiofilename></originalaudiofilename>
										</logginginfo>
										<colorinfo>
											<lut></lut>
											<lut1></lut1>
											<asc_sop></asc_sop>
											<asc_sat></asc_sat>
											<lut2></lut2>
										</colorinfo>
										<labels>
											<label2>Iris</label2>
										</labels>
									</clipitem>
									<enabled>TRUE</enabled>
									<locked>FALSE</locked>
									<outputchannelindex>1</outputchannelindex>
								</track>
								<track TL.SQTrackAudioKeyframeStyle="0" TL.SQTrackShy="0" TL.SQTrackExpandedHeight="25" TL.SQTrackExpanded="0" MZ.TrackTargeted="1" PannerCurrentValue="0.5" PannerIsInverted="true" PannerStartKeyframe="-91445760000000000,0.5,0,0,0,0,0,0" PannerName="Balance" currentExplodedTrackIndex="1" totalExplodedTrackCount="2" premiereTrackType="Stereo">
									<clipitem id="clipitem-441" premiereChannelType="stereo">
										<masterclipid>masterclip-237</masterclipid>
										<name>DRONE_Flying by the Beach_1.5</name>
										<enabled>TRUE</enabled>
										<duration>14299</duration>
										<rate>
											<timebase>30</timebase>
											<ntsc>TRUE</ntsc>
										</rate>
										<start>0</start>
										<end>2867</end>
										<in>0</in>
										<out>2867</out>
										<pproTicksIn>0</pproTicksIn>
										<pproTicksOut>24299737862400</pproTicksOut>
										<sequence id="sequence-25"/>
										<sourcetrack>
											<mediatype>audio</mediatype>
											<trackindex>1</trackindex>
										</sourcetrack>
										<link>
											<linkclipref>clipitem-413</linkclipref>
											<mediatype>video</mediatype>
											<trackindex>1</trackindex>
											<clipindex>1</clipindex>
										</link>
										<link>
											<linkclipref>clipitem-438</linkclipref>
											<mediatype>audio</mediatype>
											<trackindex>1</trackindex>
											<clipindex>1</clipindex>
											<groupindex>1</groupindex>
										</link>
										<link>
											<linkclipref>clipitem-441</linkclipref>
											<mediatype>audio</mediatype>
											<trackindex>2</trackindex>
											<clipindex>1</clipindex>
											<groupindex>1</groupindex>
										</link>
										<labels>
											<label2>Forest</label2>
										</labels>
									</clipitem>
									<clipitem id="clipitem-442" premiereChannelType="stereo">
										<masterclipid>masterclip-243</masterclipid>
										<name>DRONE_Masters of Dirt_1.5</name>
										<enabled>TRUE</enabled>
										<duration>4358</duration>
										<rate>
											<timebase>30</timebase>
											<ntsc>TRUE</ntsc>
										</rate>
										<start>3078</start>
										<end>-1</end>
										<in>0</in>
										<out>2310</out>
										<pproTicksIn>0</pproTicksIn>
										<pproTicksOut>19578791232000</pproTicksOut>
										<sequence id="sequence-26"/>
										<sourcetrack>
											<mediatype>audio</mediatype>
											<trackindex>1</trackindex>
										</sourcetrack>
										<link>
											<linkclipref>clipitem-420</linkclipref>
											<mediatype>video</mediatype>
											<trackindex>1</trackindex>
											<clipindex>2</clipindex>
										</link>
										<link>
											<linkclipref>clipitem-439</linkclipref>
											<mediatype>audio</mediatype>
											<trackindex>1</trackindex>
											<clipindex>2</clipindex>
											<groupindex>1</groupindex>
										</link>
										<link>
											<linkclipref>clipitem-442</linkclipref>
											<mediatype>audio</mediatype>
											<trackindex>2</trackindex>
											<clipindex>2</clipindex>
											<groupindex>1</groupindex>
										</link>
										<labels>
											<label2>Forest</label2>
										</labels>
									</clipitem>
									<transitionitem>
										<start>5374</start>
										<end>5388</end>
										<pproTicksIn>45548235532800</pproTicksIn>
										<pproTicksOut>45666894873600</pproTicksOut>
										<alignment>end-black</alignment>
										<cutPointTicks>118659340800</cutPointTicks>
										<rate>
											<timebase>30</timebase>
											<ntsc>TRUE</ntsc>
										</rate>
										<effect>
											<name>Cross Fade ( 0dB)</name>
											<effectid>KGAudioTransCrossFade0dB</effectid>
											<effecttype>transition</effecttype>
											<mediatype>audio</mediatype>
											<wipecode>0</wipecode>
											<wipeaccuracy>100</wipeaccuracy>
											<startratio>0</startratio>
											<endratio>1</endratio>
											<reverse>FALSE</reverse>
										</effect>
									</transitionitem>
									<clipitem id="clipitem-443" premiereChannelType="stereo">
										<masterclipid>masterclip-247</masterclipid>
										<name>ATM_Content Submit QR.mp4</name>
										<enabled>TRUE</enabled>
										<duration>299</duration>
										<rate>
											<timebase>30</timebase>
											<ntsc>TRUE</ntsc>
										</rate>
										<start>5388</start>
										<end>5687</end>
										<in>0</in>
										<out>299</out>
										<pproTicksIn>0</pproTicksIn>
										<pproTicksOut>2534224492800</pproTicksOut>
										<file id="file-226"/>
										<sourcetrack>
											<mediatype>audio</mediatype>
											<trackindex>2</trackindex>
										</sourcetrack>
										<link>
											<linkclipref>clipitem-425</linkclipref>
											<mediatype>video</mediatype>
											<trackindex>1</trackindex>
											<clipindex>3</clipindex>
										</link>
										<link>
											<linkclipref>clipitem-440</linkclipref>
											<mediatype>audio</mediatype>
											<trackindex>1</trackindex>
											<clipindex>4</clipindex>
											<groupindex>1</groupindex>
										</link>
										<link>
											<linkclipref>clipitem-443</linkclipref>
											<mediatype>audio</mediatype>
											<trackindex>2</trackindex>
											<clipindex>4</clipindex>
											<groupindex>1</groupindex>
										</link>
										<logginginfo>
											<description></description>
											<scene></scene>
											<shottake></shottake>
											<lognote></lognote>
											<good></good>
											<originalvideofilename></originalvideofilename>
											<originalaudiofilename></originalaudiofilename>
										</logginginfo>
										<colorinfo>
											<lut></lut>
											<lut1></lut1>
											<asc_sop></asc_sop>
											<asc_sat></asc_sat>
											<lut2></lut2>
										</colorinfo>
										<labels>
											<label2>Iris</label2>
										</labels>
									</clipitem>
									<enabled>TRUE</enabled>
									<locked>FALSE</locked>
									<outputchannelindex>2</outputchannelindex>
								</track>
								<track TL.SQTrackAudioKeyframeStyle="0" TL.SQTrackShy="0" TL.SQTrackExpandedHeight="25" TL.SQTrackExpanded="0" MZ.TrackTargeted="1" PannerCurrentValue="0.5" PannerIsInverted="true" PannerStartKeyframe="-91445760000000000,0.5,0,0,0,0,0,0" PannerName="Balance" currentExplodedTrackIndex="0" totalExplodedTrackCount="2" premiereTrackType="Stereo">
									<enabled>TRUE</enabled>
									<locked>FALSE</locked>
									<outputchannelindex>1</outputchannelindex>
								</track>
								<track TL.SQTrackAudioKeyframeStyle="0" TL.SQTrackShy="0" TL.SQTrackExpandedHeight="25" TL.SQTrackExpanded="0" MZ.TrackTargeted="1" PannerCurrentValue="0.5" PannerIsInverted="true" PannerStartKeyframe="-91445760000000000,0.5,0,0,0,0,0,0" PannerName="Balance" currentExplodedTrackIndex="1" totalExplodedTrackCount="2" premiereTrackType="Stereo">
									<enabled>TRUE</enabled>
									<locked>FALSE</locked>
									<outputchannelindex>2</outputchannelindex>
								</track>
								<track TL.SQTrackAudioKeyframeStyle="0" TL.SQTrackShy="0" TL.SQTrackExpandedHeight="25" TL.SQTrackExpanded="0" MZ.TrackTargeted="1" PannerCurrentValue="0.5" PannerIsInverted="true" PannerStartKeyframe="-91445760000000000,0.5,0,0,0,0,0,0" PannerName="Balance" currentExplodedTrackIndex="0" totalExplodedTrackCount="2" premiereTrackType="Stereo">
									<enabled>TRUE</enabled>
									<locked>FALSE</locked>
									<outputchannelindex>1</outputchannelindex>
								</track>
								<track TL.SQTrackAudioKeyframeStyle="0" TL.SQTrackShy="0" TL.SQTrackExpandedHeight="25" TL.SQTrackExpanded="0" MZ.TrackTargeted="1" PannerCurrentValue="0.5" PannerIsInverted="true" PannerStartKeyframe="-91445760000000000,0.5,0,0,0,0,0,0" PannerName="Balance" currentExplodedTrackIndex="1" totalExplodedTrackCount="2" premiereTrackType="Stereo">
									<enabled>TRUE</enabled>
									<locked>FALSE</locked>
									<outputchannelindex>2</outputchannelindex>
								</track>
								<track TL.SQTrackAudioKeyframeStyle="0" TL.SQTrackShy="0" TL.SQTrackExpandedHeight="25" TL.SQTrackExpanded="0" MZ.TrackTargeted="0" PannerCurrentValue="0.5" PannerIsInverted="true" PannerStartKeyframe="-91445760000000000,0.5,0,0,0,0,0,0" PannerName="Balance" currentExplodedTrackIndex="0" totalExplodedTrackCount="2" premiereTrackType="Stereo">
									<enabled>TRUE</enabled>
									<locked>FALSE</locked>
									<outputchannelindex>1</outputchannelindex>
								</track>
								<track TL.SQTrackAudioKeyframeStyle="0" TL.SQTrackShy="0" TL.SQTrackExpandedHeight="25" TL.SQTrackExpanded="0" MZ.TrackTargeted="0" PannerCurrentValue="0.5" PannerIsInverted="true" PannerStartKeyframe="-91445760000000000,0.5,0,0,0,0,0,0" PannerName="Balance" currentExplodedTrackIndex="1" totalExplodedTrackCount="2" premiereTrackType="Stereo">
									<enabled>TRUE</enabled>
									<locked>FALSE</locked>
									<outputchannelindex>2</outputchannelindex>
								</track>
								<track TL.SQTrackAudioKeyframeStyle="0" TL.SQTrackShy="0" TL.SQTrackExpandedHeight="25" TL.SQTrackExpanded="0" MZ.TrackTargeted="0" PannerCurrentValue="0.5" PannerIsInverted="true" PannerStartKeyframe="-91445760000000000,0.5,0,0,0,0,0,0" PannerName="Balance" currentExplodedTrackIndex="0" totalExplodedTrackCount="2" premiereTrackType="Stereo">
									<clipitem id="clipitem-444" premiereChannelType="stereo">
										<masterclipid>masterclip-251</masterclipid>
										<name>Trans F</name>
										<enabled>TRUE</enabled>
										<duration>5697</duration>
										<rate>
											<timebase>30</timebase>
											<ntsc>TRUE</ntsc>
										</rate>
										<start>2849</start>
										<end>3094</end>
										<in>0</in>
										<out>245</out>
										<pproTicksIn>0</pproTicksIn>
										<pproTicksOut>2076538464000</pproTicksOut>
										<sequence id="sequence-27"/>
										<sourcetrack>
											<mediatype>audio</mediatype>
											<trackindex>0</trackindex>
										</sourcetrack>
											<marker>
												<comment></comment>
												<name></name>
												<in>9</in>
												<out>-1</out>
												<pproColor>4281828977</pproColor>
											</marker>
											<marker>
												<comment></comment>
												<name></name>
												<in>229</in>
												<out>-1</out>
												<pproColor>4281828977</pproColor>
											</marker>
										<link>
											<linkclipref>clipitem-430</linkclipref>
											<mediatype>video</mediatype>
											<trackindex>5</trackindex>
											<clipindex>1</clipindex>
										</link>
										<link>
											<linkclipref>clipitem-444</linkclipref>
											<mediatype>audio</mediatype>
											<trackindex>9</trackindex>
											<clipindex>1</clipindex>
											<groupindex>1</groupindex>
										</link>
										<link>
											<linkclipref>clipitem-445</linkclipref>
											<mediatype>audio</mediatype>
											<trackindex>10</trackindex>
											<clipindex>1</clipindex>
											<groupindex>1</groupindex>
										</link>
										<labels>
											<label2>Tan</label2>
										</labels>
									</clipitem>
									<enabled>TRUE</enabled>
									<locked>FALSE</locked>
									<outputchannelindex>1</outputchannelindex>
								</track>
								<track TL.SQTrackAudioKeyframeStyle="0" TL.SQTrackShy="0" TL.SQTrackExpandedHeight="25" TL.SQTrackExpanded="0" MZ.TrackTargeted="0" PannerCurrentValue="0.5" PannerIsInverted="true" PannerStartKeyframe="-91445760000000000,0.5,0,0,0,0,0,0" PannerName="Balance" currentExplodedTrackIndex="1" totalExplodedTrackCount="2" premiereTrackType="Stereo">
									<clipitem id="clipitem-445" premiereChannelType="stereo">
										<masterclipid>masterclip-251</masterclipid>
										<name>Trans F</name>
										<enabled>TRUE</enabled>
										<duration>5697</duration>
										<rate>
											<timebase>30</timebase>
											<ntsc>TRUE</ntsc>
										</rate>
										<start>2849</start>
										<end>3094</end>
										<in>0</in>
										<out>245</out>
										<pproTicksIn>0</pproTicksIn>
										<pproTicksOut>2076538464000</pproTicksOut>
										<sequence id="sequence-27"/>
										<sourcetrack>
											<mediatype>audio</mediatype>
											<trackindex>1</trackindex>
										</sourcetrack>
											<marker>
												<comment></comment>
												<name></name>
												<in>9</in>
												<out>-1</out>
												<pproColor>4281828977</pproColor>
											</marker>
											<marker>
												<comment></comment>
												<name></name>
												<in>229</in>
												<out>-1</out>
												<pproColor>4281828977</pproColor>
											</marker>
										<link>
											<linkclipref>clipitem-430</linkclipref>
											<mediatype>video</mediatype>
											<trackindex>5</trackindex>
											<clipindex>1</clipindex>
										</link>
										<link>
											<linkclipref>clipitem-444</linkclipref>
											<mediatype>audio</mediatype>
											<trackindex>9</trackindex>
											<clipindex>1</clipindex>
											<groupindex>1</groupindex>
										</link>
										<link>
											<linkclipref>clipitem-445</linkclipref>
											<mediatype>audio</mediatype>
											<trackindex>10</trackindex>
											<clipindex>1</clipindex>
											<groupindex>1</groupindex>
										</link>
										<labels>
											<label2>Tan</label2>
										</labels>
									</clipitem>
									<enabled>TRUE</enabled>
									<locked>FALSE</locked>
									<outputchannelindex>2</outputchannelindex>
								</track>
							</audio>
						</media>
						<timecode>
							<rate>
								<timebase>30</timebase>
								<ntsc>TRUE</ntsc>
							</rate>
							<string>00;00;00;00</string>
							<frame>0</frame>
							<displayformat>DF</displayformat>
						</timecode>
							<marker>
								<comment></comment>
								<name></name>
								<in>264</in>
								<out>-1</out>
								<pproColor>4281828977</pproColor>
							</marker>
						<labels>
							<label2>Forest</label2>
						</labels>
						<logginginfo>
							<description></description>
							<scene></scene>
							<shottake></shottake>
							<lognote></lognote>
							<good></good>
							<originalvideofilename></originalvideofilename>
							<originalaudiofilename></originalaudiofilename>
						</logginginfo>
					</sequence>
					<sequence id="sequence-28" TL.SQAudioVisibleBase="0" TL.SQVideoVisibleBase="0" TL.SQVisibleBaseTime="0" TL.SQAVDividerPosition="0.5" TL.SQHideShyTracks="0" TL.SQHeaderWidth="236" TL.SQDataTrackViewControlState="0" Monitor.ProgramZoomOut="47150136633600" Monitor.ProgramZoomIn="0" TL.SQTimePerPixel="0.44193906028498003" MZ.EditLine="45802505548800" MZ.Sequence.PreviewFrameSizeHeight="1080" MZ.Sequence.PreviewFrameSizeWidth="1920" MZ.Sequence.AudioTimeDisplayFormat="200" MZ.Sequence.PreviewRenderingClassID="1297106761" MZ.Sequence.PreviewRenderingPresetCodec="1297107278" MZ.Sequence.PreviewRenderingPresetPath="EncoderPresets/SequencePreview/795454d9-d3c2-429d-9474-923ab13b7018/I-Frame Only MPEG.epr" MZ.Sequence.PreviewUseMaxRenderQuality="false" MZ.Sequence.PreviewUseMaxBitDepth="false" MZ.Sequence.EditingModeGUID="795454d9-d3c2-429d-9474-923ab13b7018" MZ.Sequence.VideoTimeDisplayFormat="102" MZ.WorkOutPoint="15239249625600" MZ.WorkInPoint="0" explodedTracks="true">
						<uuid>cf524264-d83d-455b-835a-59606c8b2fde</uuid>
						<duration>5332</duration>
						<rate>
							<timebase>30</timebase>
							<ntsc>TRUE</ntsc>
						</rate>
						<name>ATM_DRONE_499</name>
						<media>
							<video>
								<format>
									<samplecharacteristics>
										<rate>
											<timebase>30</timebase>
											<ntsc>TRUE</ntsc>
										</rate>
										<codec>
											<name>Apple ProRes 422</name>
											<appspecificdata>
												<appname>Final Cut Pro</appname>
												<appmanufacturer>Apple Inc.</appmanufacturer>
												<appversion>7.0</appversion>
												<data>
													<qtcodec>
														<codecname>Apple ProRes 422</codecname>
														<codectypename>Apple ProRes 422</codectypename>
														<codectypecode>apcn</codectypecode>
														<codecvendorcode>appl</codecvendorcode>
														<spatialquality>1024</spatialquality>
														<temporalquality>0</temporalquality>
														<keyframerate>0</keyframerate>
														<datarate>0</datarate>
													</qtcodec>
												</data>
											</appspecificdata>
										</codec>
										<width>1920</width>
										<height>1080</height>
										<anamorphic>FALSE</anamorphic>
										<pixelaspectratio>square</pixelaspectratio>
										<fielddominance>none</fielddominance>
										<colordepth>24</colordepth>
									</samplecharacteristics>
								</format>
								<track TL.SQTrackShy="0" TL.SQTrackExpandedHeight="25" TL.SQTrackExpanded="0" MZ.TrackTargeted="1">
									<clipitem id="clipitem-446">
										<masterclipid>masterclip-253</masterclipid>
										<name>DRONE_Toronto From Above_3</name>
										<enabled>TRUE</enabled>
										<duration>9032</duration>
										<rate>
											<timebase>30</timebase>
											<ntsc>TRUE</ntsc>
										</rate>
										<start>0</start>
										<end>5332</end>
										<in>0</in>
										<out>5332</out>
										<pproTicksIn>0</pproTicksIn>
										<pproTicksOut>45192257510400</pproTicksOut>
										<sequence id="sequence-29" TL.SQAudioVisibleBase="0" TL.SQVideoVisibleBase="0" TL.SQVisibleBaseTime="27406679330653" TL.SQAVDividerPosition="0.5" TL.SQHideShyTracks="0" TL.SQHeaderWidth="236" Monitor.ProgramZoomOut="45192257510400" Monitor.ProgramZoomIn="0" TL.SQTimePerPixel="0.0062990929967781696" MZ.EditLine="27681529075200" MZ.Sequence.PreviewFrameSizeHeight="1080" MZ.Sequence.PreviewFrameSizeWidth="1920" MZ.Sequence.AudioTimeDisplayFormat="200" MZ.Sequence.PreviewRenderingClassID="1061109567" MZ.Sequence.PreviewRenderingPresetCodec="1634755443" MZ.Sequence.PreviewRenderingPresetPath="EncoderPresets/SequencePreview/35d109db-457b-43c1-9452-9cb7be9f121c/QuickTime.epr" MZ.Sequence.PreviewUseMaxRenderQuality="false" MZ.Sequence.PreviewUseMaxBitDepth="false" MZ.Sequence.EditingModeGUID="35d109db-457b-43c1-9452-9cb7be9f121c" MZ.Sequence.VideoTimeDisplayFormat="102" MZ.WorkOutPoint="15239249625600" MZ.WorkInPoint="0">
											<duration>5332</duration>
											<rate>
												<timebase>30</timebase>
												<ntsc>TRUE</ntsc>
											</rate>
											<name>DRONE_Toronto From Above_3</name>
											<media>
												<video>
													<format>
														<samplecharacteristics>
															<rate>
																<timebase>30</timebase>
																<ntsc>TRUE</ntsc>
															</rate>
															<codec>
																<name>Apple ProRes 422</name>
																<appspecificdata>
																	<appname>Final Cut Pro</appname>
																	<appmanufacturer>Apple Inc.</appmanufacturer>
																	<appversion>7.0</appversion>
																	<data>
																		<qtcodec>
																			<codecname>Apple ProRes 422</codecname>
																			<codectypename>Apple ProRes 422</codectypename>
																			<codectypecode>apcn</codectypecode>
																			<codecvendorcode>appl</codecvendorcode>
																			<spatialquality>1024</spatialquality>
																			<temporalquality>0</temporalquality>
																			<keyframerate>0</keyframerate>
																			<datarate>0</datarate>
																		</qtcodec>
																	</data>
																</appspecificdata>
															</codec>
															<width>1920</width>
															<height>1080</height>
															<anamorphic>FALSE</anamorphic>
															<pixelaspectratio>square</pixelaspectratio>
															<fielddominance>none</fielddominance>
															<colordepth>24</colordepth>
														</samplecharacteristics>
													</format>
													<track TL.SQTrackShy="0" TL.SQTrackExpandedHeight="25" TL.SQTrackExpanded="0" MZ.TrackTargeted="1">
														<clipitem id="clipitem-447">
															<masterclipid>masterclip-254</masterclipid>
															<name>303794_Toronto City Cityscape Lake_By_Via_Films_Artlist_HD.mp4</name>
															<enabled>TRUE</enabled>
															<duration>876</duration>
															<rate>
																<timebase>30</timebase>
																<ntsc>TRUE</ntsc>
															</rate>
															<start>0</start>
															<end>652</end>
															<in>0</in>
															<out>652</out>
															<pproTicksIn>0</pproTicksIn>
															<pproTicksOut>5526135014400</pproTicksOut>
															<alphatype>none</alphatype>
															<pixelaspectratio>square</pixelaspectratio>
															<anamorphic>FALSE</anamorphic>
															<file id="file-231">
																<name>303794_Toronto City Cityscape Lake_By_Via_Films_Artlist_HD.mp4</name>
																<pathurl>file://localhost/Volumes/T7/DRONE_08.18.2023/3_Raw%20Files/Toronto%20from%20Above/303794_Toronto%20City%20Cityscape%20Lake_By_Via_Films_Artlist_HD.mp4</pathurl>
																<rate>
																	<timebase>24</timebase>
																	<ntsc>TRUE</ntsc>
																</rate>
																<duration>701</duration>
																<timecode>
																	<rate>
																		<timebase>24</timebase>
																		<ntsc>TRUE</ntsc>
																	</rate>
																	<string>02:28:47:11</string>
																	<frame>214259</frame>
																	<displayformat>NDF</displayformat>
																</timecode>
																<media>
																	<video>
																		<samplecharacteristics>
																			<rate>
																				<timebase>24</timebase>
																				<ntsc>TRUE</ntsc>
																			</rate>
																			<width>1920</width>
																			<height>1080</height>
																			<anamorphic>FALSE</anamorphic>
																			<pixelaspectratio>square</pixelaspectratio>
																			<fielddominance>none</fielddominance>
																		</samplecharacteristics>
																	</video>
																</media>
															</file>
															<logginginfo>
																<description></description>
																<scene></scene>
																<shottake></shottake>
																<lognote></lognote>
																<good></good>
																<originalvideofilename></originalvideofilename>
																<originalaudiofilename></originalaudiofilename>
															</logginginfo>
															<colorinfo>
																<lut></lut>
																<lut1></lut1>
																<asc_sop></asc_sop>
																<asc_sat></asc_sat>
																<lut2></lut2>
															</colorinfo>
															<labels>
																<label2>Violet</label2>
															</labels>
														</clipitem>
														<clipitem id="clipitem-448">
															<masterclipid>masterclip-255</masterclipid>
															<name>303779_Toronto City Cityscape Buldings_By_Via_Films_Artlist_HD.mp4</name>
															<enabled>TRUE</enabled>
															<duration>885</duration>
															<rate>
																<timebase>30</timebase>
																<ntsc>TRUE</ntsc>
															</rate>
															<start>652</start>
															<end>986</end>
															<in>0</in>
															<out>334</out>
															<pproTicksIn>0</pproTicksIn>
															<pproTicksOut>2830872844800</pproTicksOut>
															<alphatype>none</alphatype>
															<pixelaspectratio>square</pixelaspectratio>
															<anamorphic>FALSE</anamorphic>
															<file id="file-232">
																<name>303779_Toronto City Cityscape Buldings_By_Via_Films_Artlist_HD.mp4</name>
																<pathurl>file://localhost/Volumes/T7/DRONE_08.18.2023/3_Raw%20Files/Toronto%20from%20Above/303779_Toronto%20City%20Cityscape%20Buldings_By_Via_Films_Artlist_HD.mp4</pathurl>
																<rate>
																	<timebase>24</timebase>
																	<ntsc>TRUE</ntsc>
																</rate>
																<duration>708</duration>
																<timecode>
																	<rate>
																		<timebase>24</timebase>
																		<ntsc>TRUE</ntsc>
																	</rate>
																	<string>02:05:04:13</string>
																	<frame>180109</frame>
																	<displayformat>NDF</displayformat>
																</timecode>
																<media>
																	<video>
																		<samplecharacteristics>
																			<rate>
																				<timebase>24</timebase>
																				<ntsc>TRUE</ntsc>
																			</rate>
																			<width>1920</width>
																			<height>1080</height>
																			<anamorphic>FALSE</anamorphic>
																			<pixelaspectratio>square</pixelaspectratio>
																			<fielddominance>none</fielddominance>
																		</samplecharacteristics>
																	</video>
																</media>
															</file>
															<logginginfo>
																<description></description>
																<scene></scene>
																<shottake></shottake>
																<lognote></lognote>
																<good></good>
																<originalvideofilename></originalvideofilename>
																<originalaudiofilename></originalaudiofilename>
															</logginginfo>
															<colorinfo>
																<lut></lut>
																<lut1></lut1>
																<asc_sop></asc_sop>
																<asc_sat></asc_sat>
																<lut2></lut2>
															</colorinfo>
															<labels>
																<label2>Violet</label2>
															</labels>
														</clipitem>
														<clipitem id="clipitem-449">
															<masterclipid>masterclip-256</masterclipid>
															<name>303775_Toronto City Cityscape Buldings_By_Via_Films_Artlist_HD.mp4</name>
															<enabled>TRUE</enabled>
															<duration>866</duration>
															<rate>
																<timebase>30</timebase>
																<ntsc>TRUE</ntsc>
															</rate>
															<start>986</start>
															<end>1656</end>
															<in>0</in>
															<out>670</out>
															<pproTicksIn>0</pproTicksIn>
															<pproTicksOut>5678697024000</pproTicksOut>
															<alphatype>none</alphatype>
															<pixelaspectratio>square</pixelaspectratio>
															<anamorphic>FALSE</anamorphic>
															<file id="file-233">
																<name>303775_Toronto City Cityscape Buldings_By_Via_Films_Artlist_HD.mp4</name>
																<pathurl>file://localhost/Volumes/T7/DRONE_08.18.2023/3_Raw%20Files/Toronto%20from%20Above/303775_Toronto%20City%20Cityscape%20Buldings_By_Via_Films_Artlist_HD.mp4</pathurl>
																<rate>
																	<timebase>24</timebase>
																	<ntsc>TRUE</ntsc>
																</rate>
																<duration>693</duration>
																<timecode>
																	<rate>
																		<timebase>24</timebase>
																		<ntsc>TRUE</ntsc>
																	</rate>
																	<string>02:03:04:16</string>
																	<frame>177232</frame>
																	<displayformat>NDF</displayformat>
																</timecode>
																<media>
																	<video>
																		<samplecharacteristics>
																			<rate>
																				<timebase>24</timebase>
																				<ntsc>TRUE</ntsc>
																			</rate>
																			<width>1920</width>
																			<height>1080</height>
																			<anamorphic>FALSE</anamorphic>
																			<pixelaspectratio>square</pixelaspectratio>
																			<fielddominance>none</fielddominance>
																		</samplecharacteristics>
																	</video>
																</media>
															</file>
															<logginginfo>
																<description></description>
																<scene></scene>
																<shottake></shottake>
																<lognote></lognote>
																<good></good>
																<originalvideofilename></originalvideofilename>
																<originalaudiofilename></originalaudiofilename>
															</logginginfo>
															<colorinfo>
																<lut></lut>
																<lut1></lut1>
																<asc_sop></asc_sop>
																<asc_sat></asc_sat>
																<lut2></lut2>
															</colorinfo>
															<labels>
																<label2>Violet</label2>
															</labels>
														</clipitem>
														<clipitem id="clipitem-450">
															<masterclipid>masterclip-257</masterclipid>
															<name>303782_Toronto City Cityscape Buldings_By_Via_Films_Artlist_HD.mp4</name>
															<enabled>TRUE</enabled>
															<duration>868</duration>
															<rate>
																<timebase>30</timebase>
																<ntsc>TRUE</ntsc>
															</rate>
															<start>1656</start>
															<end>1990</end>
															<in>0</in>
															<out>334</out>
															<pproTicksIn>0</pproTicksIn>
															<pproTicksOut>2830872844800</pproTicksOut>
															<alphatype>none</alphatype>
															<pixelaspectratio>square</pixelaspectratio>
															<anamorphic>FALSE</anamorphic>
															<file id="file-234">
																<name>303782_Toronto City Cityscape Buldings_By_Via_Films_Artlist_HD.mp4</name>
																<pathurl>file://localhost/Volumes/T7/DRONE_08.18.2023/3_Raw%20Files/Toronto%20from%20Above/303782_Toronto%20City%20Cityscape%20Buldings_By_Via_Films_Artlist_HD.mp4</pathurl>
																<rate>
																	<timebase>24</timebase>
																	<ntsc>TRUE</ntsc>
																</rate>
																<duration>695</duration>
																<timecode>
																	<rate>
																		<timebase>24</timebase>
																		<ntsc>TRUE</ntsc>
																	</rate>
																	<string>02:06:39:19</string>
																	<frame>182395</frame>
																	<displayformat>NDF</displayformat>
																</timecode>
																<media>
																	<video>
																		<samplecharacteristics>
																			<rate>
																				<timebase>24</timebase>
																				<ntsc>TRUE</ntsc>
																			</rate>
																			<width>1920</width>
																			<height>1080</height>
																			<anamorphic>FALSE</anamorphic>
																			<pixelaspectratio>square</pixelaspectratio>
																			<fielddominance>none</fielddominance>
																		</samplecharacteristics>
																	</video>
																</media>
															</file>
															<logginginfo>
																<description></description>
																<scene></scene>
																<shottake></shottake>
																<lognote></lognote>
																<good></good>
																<originalvideofilename></originalvideofilename>
																<originalaudiofilename></originalaudiofilename>
															</logginginfo>
															<colorinfo>
																<lut></lut>
																<lut1></lut1>
																<asc_sop></asc_sop>
																<asc_sat></asc_sat>
																<lut2></lut2>
															</colorinfo>
															<labels>
																<label2>Violet</label2>
															</labels>
														</clipitem>
														<clipitem id="clipitem-451">
															<masterclipid>masterclip-258</masterclipid>
															<name>303807_Toronto City Cityscape Buldings_By_Via_Films_Artlist_HD.mp4</name>
															<enabled>TRUE</enabled>
															<duration>898</duration>
															<rate>
																<timebase>30</timebase>
																<ntsc>TRUE</ntsc>
															</rate>
															<start>1990</start>
															<end>2660</end>
															<in>0</in>
															<out>670</out>
															<pproTicksIn>0</pproTicksIn>
															<pproTicksOut>5678697024000</pproTicksOut>
															<alphatype>none</alphatype>
															<pixelaspectratio>square</pixelaspectratio>
															<anamorphic>FALSE</anamorphic>
															<file id="file-235">
																<name>303807_Toronto City Cityscape Buldings_By_Via_Films_Artlist_HD.mp4</name>
																<pathurl>file://localhost/Volumes/T7/DRONE_08.18.2023/3_Raw%20Files/Toronto%20from%20Above/303807_Toronto%20City%20Cityscape%20Buldings_By_Via_Films_Artlist_HD.mp4</pathurl>
																<rate>
																	<timebase>24</timebase>
																	<ntsc>TRUE</ntsc>
																</rate>
																<duration>719</duration>
																<timecode>
																	<rate>
																		<timebase>24</timebase>
																		<ntsc>TRUE</ntsc>
																	</rate>
																	<string>02:59:14:08</string>
																	<frame>258104</frame>
																	<displayformat>NDF</displayformat>
																</timecode>
																<media>
																	<video>
																		<samplecharacteristics>
																			<rate>
																				<timebase>24</timebase>
																				<ntsc>TRUE</ntsc>
																			</rate>
																			<width>1920</width>
																			<height>1080</height>
																			<anamorphic>FALSE</anamorphic>
																			<pixelaspectratio>square</pixelaspectratio>
																			<fielddominance>none</fielddominance>
																		</samplecharacteristics>
																	</video>
																</media>
															</file>
															<logginginfo>
																<description></description>
																<scene></scene>
																<shottake></shottake>
																<lognote></lognote>
																<good></good>
																<originalvideofilename></originalvideofilename>
																<originalaudiofilename></originalaudiofilename>
															</logginginfo>
															<colorinfo>
																<lut></lut>
																<lut1></lut1>
																<asc_sop></asc_sop>
																<asc_sat></asc_sat>
																<lut2></lut2>
															</colorinfo>
															<labels>
																<label2>Violet</label2>
															</labels>
														</clipitem>
														<clipitem id="clipitem-452">
															<masterclipid>masterclip-259</masterclipid>
															<name>303812_Toronto City Cityscape Buldings_By_Via_Films_Artlist_HD.mp4</name>
															<enabled>TRUE</enabled>
															<duration>897</duration>
															<rate>
																<timebase>30</timebase>
																<ntsc>TRUE</ntsc>
															</rate>
															<start>2660</start>
															<end>3327</end>
															<in>0</in>
															<out>667</out>
															<pproTicksIn>0</pproTicksIn>
															<pproTicksOut>5653270022400</pproTicksOut>
															<alphatype>none</alphatype>
															<pixelaspectratio>square</pixelaspectratio>
															<anamorphic>FALSE</anamorphic>
															<file id="file-236">
																<name>303812_Toronto City Cityscape Buldings_By_Via_Films_Artlist_HD.mp4</name>
																<pathurl>file://localhost/Volumes/T7/DRONE_08.18.2023/3_Raw%20Files/Toronto%20from%20Above/303812_Toronto%20City%20Cityscape%20Buldings_By_Via_Films_Artlist_HD.mp4</pathurl>
																<rate>
																	<timebase>24</timebase>
																	<ntsc>TRUE</ntsc>
																</rate>
																<duration>718</duration>
																<timecode>
																	<rate>
																		<timebase>24</timebase>
																		<ntsc>TRUE</ntsc>
																	</rate>
																	<string>03:00:47:10</string>
																	<frame>260338</frame>
																	<displayformat>NDF</displayformat>
																</timecode>
																<media>
																	<video>
																		<samplecharacteristics>
																			<rate>
																				<timebase>24</timebase>
																				<ntsc>TRUE</ntsc>
																			</rate>
																			<width>1920</width>
																			<height>1080</height>
																			<anamorphic>FALSE</anamorphic>
																			<pixelaspectratio>square</pixelaspectratio>
																			<fielddominance>none</fielddominance>
																		</samplecharacteristics>
																	</video>
																</media>
															</file>
															<logginginfo>
																<description></description>
																<scene></scene>
																<shottake></shottake>
																<lognote></lognote>
																<good></good>
																<originalvideofilename></originalvideofilename>
																<originalaudiofilename></originalaudiofilename>
															</logginginfo>
															<colorinfo>
																<lut></lut>
																<lut1></lut1>
																<asc_sop></asc_sop>
																<asc_sat></asc_sat>
																<lut2></lut2>
															</colorinfo>
															<labels>
																<label2>Violet</label2>
															</labels>
														</clipitem>
														<clipitem id="clipitem-453">
															<masterclipid>masterclip-260</masterclipid>
															<name>303855_Toronto City Cityscape Lake_By_Via_Films_Artlist_HD.mp4</name>
															<enabled>TRUE</enabled>
															<duration>872</duration>
															<rate>
																<timebase>30</timebase>
																<ntsc>TRUE</ntsc>
															</rate>
															<start>3327</start>
															<end>3998</end>
															<in>0</in>
															<out>671</out>
															<pproTicksIn>0</pproTicksIn>
															<pproTicksOut>5687172691200</pproTicksOut>
															<alphatype>none</alphatype>
															<pixelaspectratio>square</pixelaspectratio>
															<anamorphic>FALSE</anamorphic>
															<file id="file-237">
																<name>303855_Toronto City Cityscape Lake_By_Via_Films_Artlist_HD.mp4</name>
																<pathurl>file://localhost/Volumes/T7/DRONE_08.18.2023/3_Raw%20Files/Toronto%20from%20Above/303855_Toronto%20City%20Cityscape%20Lake_By_Via_Films_Artlist_HD.mp4</pathurl>
																<rate>
																	<timebase>24</timebase>
																	<ntsc>TRUE</ntsc>
																</rate>
																<duration>698</duration>
																<timecode>
																	<rate>
																		<timebase>24</timebase>
																		<ntsc>TRUE</ntsc>
																	</rate>
																	<string>03:20:17:13</string>
																	<frame>288421</frame>
																	<displayformat>NDF</displayformat>
																</timecode>
																<media>
																	<video>
																		<samplecharacteristics>
																			<rate>
																				<timebase>24</timebase>
																				<ntsc>TRUE</ntsc>
																			</rate>
																			<width>1920</width>
																			<height>1080</height>
																			<anamorphic>FALSE</anamorphic>
																			<pixelaspectratio>square</pixelaspectratio>
																			<fielddominance>none</fielddominance>
																		</samplecharacteristics>
																	</video>
																</media>
															</file>
															<logginginfo>
																<description></description>
																<scene></scene>
																<shottake></shottake>
																<lognote></lognote>
																<good></good>
																<originalvideofilename></originalvideofilename>
																<originalaudiofilename></originalaudiofilename>
															</logginginfo>
															<colorinfo>
																<lut></lut>
																<lut1></lut1>
																<asc_sop></asc_sop>
																<asc_sat></asc_sat>
																<lut2></lut2>
															</colorinfo>
															<labels>
																<label2>Violet</label2>
															</labels>
														</clipitem>
														<clipitem id="clipitem-454">
															<masterclipid>masterclip-261</masterclipid>
															<name>303908_Toronto City Cityscape Buldings_By_Via_Films_Artlist_HD.mp4</name>
															<enabled>TRUE</enabled>
															<duration>897</duration>
															<rate>
																<timebase>30</timebase>
																<ntsc>TRUE</ntsc>
															</rate>
															<start>3998</start>
															<end>4332</end>
															<in>0</in>
															<out>334</out>
															<pproTicksIn>0</pproTicksIn>
															<pproTicksOut>2830872844800</pproTicksOut>
															<alphatype>none</alphatype>
															<pixelaspectratio>square</pixelaspectratio>
															<anamorphic>FALSE</anamorphic>
															<file id="file-238">
																<name>303908_Toronto City Cityscape Buldings_By_Via_Films_Artlist_HD.mp4</name>
																<pathurl>file://localhost/Volumes/T7/DRONE_08.18.2023/3_Raw%20Files/Toronto%20from%20Above/303908_Toronto%20City%20Cityscape%20Buldings_By_Via_Films_Artlist_HD.mp4</pathurl>
																<rate>
																	<timebase>24</timebase>
																	<ntsc>TRUE</ntsc>
																</rate>
																<duration>718</duration>
																<timecode>
																	<rate>
																		<timebase>24</timebase>
																		<ntsc>TRUE</ntsc>
																	</rate>
																	<string>03:39:33:23</string>
																	<frame>316175</frame>
																	<displayformat>NDF</displayformat>
																</timecode>
																<media>
																	<video>
																		<samplecharacteristics>
																			<rate>
																				<timebase>24</timebase>
																				<ntsc>TRUE</ntsc>
																			</rate>
																			<width>1920</width>
																			<height>1080</height>
																			<anamorphic>FALSE</anamorphic>
																			<pixelaspectratio>square</pixelaspectratio>
																			<fielddominance>none</fielddominance>
																		</samplecharacteristics>
																	</video>
																</media>
															</file>
															<logginginfo>
																<description></description>
																<scene></scene>
																<shottake></shottake>
																<lognote></lognote>
																<good></good>
																<originalvideofilename></originalvideofilename>
																<originalaudiofilename></originalaudiofilename>
															</logginginfo>
															<colorinfo>
																<lut></lut>
																<lut1></lut1>
																<asc_sop></asc_sop>
																<asc_sat></asc_sat>
																<lut2></lut2>
															</colorinfo>
															<labels>
																<label2>Violet</label2>
															</labels>
														</clipitem>
														<clipitem id="clipitem-455">
															<masterclipid>masterclip-262</masterclipid>
															<name>303903_Toronto City Cityscape Buldings_By_Via_Films_Artlist_HD.mp4</name>
															<enabled>TRUE</enabled>
															<duration>862</duration>
															<rate>
																<timebase>30</timebase>
																<ntsc>TRUE</ntsc>
															</rate>
															<start>4332</start>
															<end>4672</end>
															<in>0</in>
															<out>340</out>
															<pproTicksIn>0</pproTicksIn>
															<pproTicksOut>2881726848000</pproTicksOut>
															<alphatype>none</alphatype>
															<pixelaspectratio>square</pixelaspectratio>
															<anamorphic>FALSE</anamorphic>
															<file id="file-239">
																<name>303903_Toronto City Cityscape Buldings_By_Via_Films_Artlist_HD.mp4</name>
																<pathurl>file://localhost/Volumes/T7/DRONE_08.18.2023/3_Raw%20Files/Toronto%20from%20Above/303903_Toronto%20City%20Cityscape%20Buldings_By_Via_Films_Artlist_HD.mp4</pathurl>
																<rate>
																	<timebase>24</timebase>
																	<ntsc>TRUE</ntsc>
																</rate>
																<duration>690</duration>
																<timecode>
																	<rate>
																		<timebase>24</timebase>
																		<ntsc>TRUE</ntsc>
																	</rate>
																	<string>03:37:19:17</string>
																	<frame>312953</frame>
																	<displayformat>NDF</displayformat>
																</timecode>
																<media>
																	<video>
																		<samplecharacteristics>
																			<rate>
																				<timebase>24</timebase>
																				<ntsc>TRUE</ntsc>
																			</rate>
																			<width>1920</width>
																			<height>1080</height>
																			<anamorphic>FALSE</anamorphic>
																			<pixelaspectratio>square</pixelaspectratio>
																			<fielddominance>none</fielddominance>
																		</samplecharacteristics>
																	</video>
																</media>
															</file>
															<logginginfo>
																<description></description>
																<scene></scene>
																<shottake></shottake>
																<lognote></lognote>
																<good></good>
																<originalvideofilename></originalvideofilename>
																<originalaudiofilename></originalaudiofilename>
															</logginginfo>
															<colorinfo>
																<lut></lut>
																<lut1></lut1>
																<asc_sop></asc_sop>
																<asc_sat></asc_sat>
																<lut2></lut2>
															</colorinfo>
															<labels>
																<label2>Violet</label2>
															</labels>
														</clipitem>
														<clipitem id="clipitem-456">
															<masterclipid>masterclip-263</masterclipid>
															<name>303942_Toronto City Cityscape Buldings_By_Via_Films_Artlist_HD.mp4</name>
															<enabled>TRUE</enabled>
															<duration>896</duration>
															<rate>
																<timebase>30</timebase>
																<ntsc>TRUE</ntsc>
															</rate>
															<start>4672</start>
															<end>5332</end>
															<in>0</in>
															<out>660</out>
															<pproTicksIn>0</pproTicksIn>
															<pproTicksOut>5593940352000</pproTicksOut>
															<alphatype>none</alphatype>
															<pixelaspectratio>square</pixelaspectratio>
															<anamorphic>FALSE</anamorphic>
															<file id="file-240">
																<name>303942_Toronto City Cityscape Buldings_By_Via_Films_Artlist_HD.mp4</name>
																<pathurl>file://localhost/Volumes/T7/DRONE_08.18.2023/3_Raw%20Files/Toronto%20from%20Above/303942_Toronto%20City%20Cityscape%20Buldings_By_Via_Films_Artlist_HD.mp4</pathurl>
																<rate>
																	<timebase>24</timebase>
																	<ntsc>TRUE</ntsc>
																</rate>
																<duration>717</duration>
																<timecode>
																	<rate>
																		<timebase>24</timebase>
																		<ntsc>TRUE</ntsc>
																	</rate>
																	<string>03:47:39:10</string>
																	<frame>327826</frame>
																	<displayformat>NDF</displayformat>
																</timecode>
																<media>
																	<video>
																		<samplecharacteristics>
																			<rate>
																				<timebase>24</timebase>
																				<ntsc>TRUE</ntsc>
																			</rate>
																			<width>1920</width>
																			<height>1080</height>
																			<anamorphic>FALSE</anamorphic>
																			<pixelaspectratio>square</pixelaspectratio>
																			<fielddominance>none</fielddominance>
																		</samplecharacteristics>
																	</video>
																</media>
															</file>
															<logginginfo>
																<description></description>
																<scene></scene>
																<shottake></shottake>
																<lognote></lognote>
																<good></good>
																<originalvideofilename></originalvideofilename>
																<originalaudiofilename></originalaudiofilename>
															</logginginfo>
															<colorinfo>
																<lut></lut>
																<lut1></lut1>
																<asc_sop></asc_sop>
																<asc_sat></asc_sat>
																<lut2></lut2>
															</colorinfo>
															<labels>
																<label2>Violet</label2>
															</labels>
														</clipitem>
														<enabled>TRUE</enabled>
														<locked>FALSE</locked>
													</track>
													<track TL.SQTrackShy="0" TL.SQTrackExpandedHeight="25" TL.SQTrackExpanded="0" MZ.TrackTargeted="0">
														<enabled>TRUE</enabled>
														<locked>FALSE</locked>
													</track>
													<track TL.SQTrackShy="0" TL.SQTrackExpandedHeight="25" TL.SQTrackExpanded="0" MZ.TrackTargeted="0">
														<enabled>TRUE</enabled>
														<locked>FALSE</locked>
													</track>
												</video>
												<audio>
													<numOutputChannels>2</numOutputChannels>
													<format>
														<samplecharacteristics>
															<depth>16</depth>
															<samplerate>48000</samplerate>
														</samplecharacteristics>
													</format>
													<outputs>
														<group>
															<index>1</index>
															<numchannels>1</numchannels>
															<downmix>0</downmix>
															<channel>
																<index>1</index>
															</channel>
														</group>
														<group>
															<index>2</index>
															<numchannels>1</numchannels>
															<downmix>0</downmix>
															<channel>
																<index>2</index>
															</channel>
														</group>
													</outputs>
													<track TL.SQTrackAudioKeyframeStyle="0" TL.SQTrackShy="0" TL.SQTrackExpandedHeight="25" TL.SQTrackExpanded="0" MZ.TrackTargeted="1" PannerCurrentValue="0.5" PannerIsInverted="true" PannerStartKeyframe="-91445760000000000,0.5,0,0,0,0,0,0" PannerName="Balance" currentExplodedTrackIndex="0" totalExplodedTrackCount="2" premiereTrackType="Stereo">
														<transitionitem>
															<start>0</start>
															<end>7</end>
															<pproTicksIn>0</pproTicksIn>
															<pproTicksOut>59329670400</pproTicksOut>
															<alignment>start-black</alignment>
															<cutPointTicks>0</cutPointTicks>
															<rate>
																<timebase>30</timebase>
																<ntsc>TRUE</ntsc>
															</rate>
															<effect>
																<name>Cross Fade ( 0dB)</name>
																<effectid>KGAudioTransCrossFade0dB</effectid>
																<effecttype>transition</effecttype>
																<mediatype>audio</mediatype>
																<wipecode>0</wipecode>
																<wipeaccuracy>100</wipeaccuracy>
																<startratio>0</startratio>
																<endratio>1</endratio>
																<reverse>FALSE</reverse>
															</effect>
														</transitionitem>
														<clipitem id="clipitem-457" premiereChannelType="stereo">
															<masterclipid>masterclip-264</masterclipid>
															<name>ES_Urban Stories - Chill Cole.mp3</name>
															<enabled>TRUE</enabled>
															<duration>9032</duration>
															<rate>
																<timebase>30</timebase>
																<ntsc>TRUE</ntsc>
															</rate>
															<start>-1</start>
															<end>-1</end>
															<in>686</in>
															<out>6018</out>
															<pproTicksIn>5814307699200</pproTicksIn>
															<pproTicksOut>51006565209600</pproTicksOut>
															<file id="file-241">
																<name>ES_Urban Stories - Chill Cole.mp3</name>
																<pathurl>file://localhost/Volumes/T7/DRONE_08.18.2023/5_Music/ES_Urban%20Stories%20-%20Chill%20Cole.mp3</pathurl>
																<rate>
																	<timebase>30</timebase>
																	<ntsc>TRUE</ntsc>
																</rate>
																<duration>9032</duration>
																<timecode>
																	<rate>
																		<timebase>30</timebase>
																		<ntsc>TRUE</ntsc>
																	</rate>
																	<string>00;00;00;00</string>
																	<frame>0</frame>
																	<displayformat>DF</displayformat>
																</timecode>
																<media>
																	<audio>
																		<samplecharacteristics>
																			<depth>16</depth>
																			<samplerate>48000</samplerate>
																		</samplecharacteristics>
																		<channelcount>2</channelcount>
																	</audio>
																</media>
															</file>
															<sourcetrack>
																<mediatype>audio</mediatype>
																<trackindex>1</trackindex>
															</sourcetrack>
															<link>
																<linkclipref>clipitem-457</linkclipref>
																<mediatype>audio</mediatype>
																<trackindex>1</trackindex>
																<clipindex>2</clipindex>
																<groupindex>1</groupindex>
															</link>
															<link>
																<linkclipref>clipitem-458</linkclipref>
																<mediatype>audio</mediatype>
																<trackindex>2</trackindex>
																<clipindex>2</clipindex>
																<groupindex>1</groupindex>
															</link>
															<logginginfo>
																<description></description>
																<scene></scene>
																<shottake></shottake>
																<lognote></lognote>
																<good></good>
																<originalvideofilename></originalvideofilename>
																<originalaudiofilename></originalaudiofilename>
															</logginginfo>
															<colorinfo>
																<lut></lut>
																<lut1></lut1>
																<asc_sop></asc_sop>
																<asc_sat></asc_sat>
																<lut2></lut2>
															</colorinfo>
															<labels>
																<label2>Caribbean</label2>
															</labels>
														</clipitem>
														<transitionitem>
															<start>5309</start>
															<end>5332</end>
															<pproTicksIn>44997317164800</pproTicksIn>
															<pproTicksOut>45192257510400</pproTicksOut>
															<alignment>end-black</alignment>
															<cutPointTicks>194940345600</cutPointTicks>
															<rate>
																<timebase>30</timebase>
																<ntsc>TRUE</ntsc>
															</rate>
															<effect>
																<name>Cross Fade ( 0dB)</name>
																<effectid>KGAudioTransCrossFade0dB</effectid>
																<effecttype>transition</effecttype>
																<mediatype>audio</mediatype>
																<wipecode>0</wipecode>
																<wipeaccuracy>100</wipeaccuracy>
																<startratio>0</startratio>
																<endratio>1</endratio>
																<reverse>FALSE</reverse>
															</effect>
														</transitionitem>
														<enabled>TRUE</enabled>
														<locked>FALSE</locked>
														<outputchannelindex>1</outputchannelindex>
													</track>
													<track TL.SQTrackAudioKeyframeStyle="0" TL.SQTrackShy="0" TL.SQTrackExpandedHeight="25" TL.SQTrackExpanded="0" MZ.TrackTargeted="1" PannerCurrentValue="0.5" PannerIsInverted="true" PannerStartKeyframe="-91445760000000000,0.5,0,0,0,0,0,0" PannerName="Balance" currentExplodedTrackIndex="1" totalExplodedTrackCount="2" premiereTrackType="Stereo">
														<transitionitem>
															<start>0</start>
															<end>7</end>
															<pproTicksIn>0</pproTicksIn>
															<pproTicksOut>59329670400</pproTicksOut>
															<alignment>start-black</alignment>
															<cutPointTicks>0</cutPointTicks>
															<rate>
																<timebase>30</timebase>
																<ntsc>TRUE</ntsc>
															</rate>
															<effect>
																<name>Cross Fade ( 0dB)</name>
																<effectid>KGAudioTransCrossFade0dB</effectid>
																<effecttype>transition</effecttype>
																<mediatype>audio</mediatype>
																<wipecode>0</wipecode>
																<wipeaccuracy>100</wipeaccuracy>
																<startratio>0</startratio>
																<endratio>1</endratio>
																<reverse>FALSE</reverse>
															</effect>
														</transitionitem>
														<clipitem id="clipitem-458" premiereChannelType="stereo">
															<masterclipid>masterclip-264</masterclipid>
															<name>ES_Urban Stories - Chill Cole.mp3</name>
															<enabled>TRUE</enabled>
															<duration>9032</duration>
															<rate>
																<timebase>30</timebase>
																<ntsc>TRUE</ntsc>
															</rate>
															<start>-1</start>
															<end>-1</end>
															<in>686</in>
															<out>6018</out>
															<pproTicksIn>5814307699200</pproTicksIn>
															<pproTicksOut>51006565209600</pproTicksOut>
															<file id="file-241"/>
															<sourcetrack>
																<mediatype>audio</mediatype>
																<trackindex>2</trackindex>
															</sourcetrack>
															<link>
																<linkclipref>clipitem-457</linkclipref>
																<mediatype>audio</mediatype>
																<trackindex>1</trackindex>
																<clipindex>2</clipindex>
																<groupindex>1</groupindex>
															</link>
															<link>
																<linkclipref>clipitem-458</linkclipref>
																<mediatype>audio</mediatype>
																<trackindex>2</trackindex>
																<clipindex>2</clipindex>
																<groupindex>1</groupindex>
															</link>
															<logginginfo>
																<description></description>
																<scene></scene>
																<shottake></shottake>
																<lognote></lognote>
																<good></good>
																<originalvideofilename></originalvideofilename>
																<originalaudiofilename></originalaudiofilename>
															</logginginfo>
															<colorinfo>
																<lut></lut>
																<lut1></lut1>
																<asc_sop></asc_sop>
																<asc_sat></asc_sat>
																<lut2></lut2>
															</colorinfo>
															<labels>
																<label2>Caribbean</label2>
															</labels>
														</clipitem>
														<transitionitem>
															<start>5309</start>
															<end>5332</end>
															<pproTicksIn>44997317164800</pproTicksIn>
															<pproTicksOut>45192257510400</pproTicksOut>
															<alignment>end-black</alignment>
															<cutPointTicks>194940345600</cutPointTicks>
															<rate>
																<timebase>30</timebase>
																<ntsc>TRUE</ntsc>
															</rate>
															<effect>
																<name>Cross Fade ( 0dB)</name>
																<effectid>KGAudioTransCrossFade0dB</effectid>
																<effecttype>transition</effecttype>
																<mediatype>audio</mediatype>
																<wipecode>0</wipecode>
																<wipeaccuracy>100</wipeaccuracy>
																<startratio>0</startratio>
																<endratio>1</endratio>
																<reverse>FALSE</reverse>
															</effect>
														</transitionitem>
														<enabled>TRUE</enabled>
														<locked>FALSE</locked>
														<outputchannelindex>2</outputchannelindex>
													</track>
													<track TL.SQTrackAudioKeyframeStyle="0" TL.SQTrackShy="0" TL.SQTrackExpandedHeight="25" TL.SQTrackExpanded="0" MZ.TrackTargeted="1" PannerCurrentValue="0.5" PannerIsInverted="true" PannerStartKeyframe="-91445760000000000,0.5,0,0,0,0,0,0" PannerName="Balance" currentExplodedTrackIndex="0" totalExplodedTrackCount="2" premiereTrackType="Stereo">
														<enabled>TRUE</enabled>
														<locked>FALSE</locked>
														<outputchannelindex>1</outputchannelindex>
													</track>
													<track TL.SQTrackAudioKeyframeStyle="0" TL.SQTrackShy="0" TL.SQTrackExpandedHeight="25" TL.SQTrackExpanded="0" MZ.TrackTargeted="1" PannerCurrentValue="0.5" PannerIsInverted="true" PannerStartKeyframe="-91445760000000000,0.5,0,0,0,0,0,0" PannerName="Balance" currentExplodedTrackIndex="1" totalExplodedTrackCount="2" premiereTrackType="Stereo">
														<enabled>TRUE</enabled>
														<locked>FALSE</locked>
														<outputchannelindex>2</outputchannelindex>
													</track>
													<track TL.SQTrackAudioKeyframeStyle="0" TL.SQTrackShy="0" TL.SQTrackExpandedHeight="25" TL.SQTrackExpanded="0" MZ.TrackTargeted="1" PannerCurrentValue="0.5" PannerIsInverted="true" PannerStartKeyframe="-91445760000000000,0.5,0,0,0,0,0,0" PannerName="Balance" currentExplodedTrackIndex="0" totalExplodedTrackCount="2" premiereTrackType="Stereo">
														<enabled>TRUE</enabled>
														<locked>FALSE</locked>
														<outputchannelindex>1</outputchannelindex>
													</track>
													<track TL.SQTrackAudioKeyframeStyle="0" TL.SQTrackShy="0" TL.SQTrackExpandedHeight="25" TL.SQTrackExpanded="0" MZ.TrackTargeted="1" PannerCurrentValue="0.5" PannerIsInverted="true" PannerStartKeyframe="-91445760000000000,0.5,0,0,0,0,0,0" PannerName="Balance" currentExplodedTrackIndex="1" totalExplodedTrackCount="2" premiereTrackType="Stereo">
														<enabled>TRUE</enabled>
														<locked>FALSE</locked>
														<outputchannelindex>2</outputchannelindex>
													</track>
												</audio>
											</media>
											<timecode>
												<rate>
													<timebase>30</timebase>
													<ntsc>TRUE</ntsc>
												</rate>
												<string>00;00;00;00</string>
												<frame>0</frame>
												<displayformat>DF</displayformat>
											</timecode>
											<logginginfo>
												<description></description>
												<scene></scene>
												<shottake></shottake>
												<lognote></lognote>
												<good></good>
												<originalvideofilename></originalvideofilename>
												<originalaudiofilename></originalaudiofilename>
											</logginginfo>
											<filter>
												<effect>
													<name>Audio Levels</name>
													<effectid>audiolevels</effectid>
													<effectcategory>audiolevels</effectcategory>
													<effecttype>audiolevels</effecttype>
													<mediatype>audio</mediatype>
													<parameter authoringApp="PremierePro">
														<parameterid>level</parameterid>
														<name>Level</name>
														<valuemin>0</valuemin>
														<valuemax>3.98109</valuemax>
														<value>0.997636</value>
													</parameter>
												</effect>
											</filter>
										</sequence>
										<link>
											<linkclipref>clipitem-446</linkclipref>
											<mediatype>video</mediatype>
											<trackindex>1</trackindex>
											<clipindex>1</clipindex>
										</link>
										<link>
											<linkclipref>clipitem-470</linkclipref>
											<mediatype>audio</mediatype>
											<trackindex>1</trackindex>
											<clipindex>1</clipindex>
											<groupindex>1</groupindex>
										</link>
										<link>
											<linkclipref>clipitem-471</linkclipref>
											<mediatype>audio</mediatype>
											<trackindex>2</trackindex>
											<clipindex>1</clipindex>
											<groupindex>1</groupindex>
										</link>
										<labels>
											<label2>Forest</label2>
										</labels>
									</clipitem>
									<enabled>TRUE</enabled>
									<locked>FALSE</locked>
								</track>
								<track TL.SQTrackShy="0" TL.SQTrackExpandedHeight="25" TL.SQTrackExpanded="0" MZ.TrackTargeted="0">
									<clipitem id="clipitem-459">
										<masterclipid>masterclip-265</masterclipid>
										<name>TORONTO FROM ABOVE</name>
										<enabled>TRUE</enabled>
										<duration>5694</duration>
										<rate>
											<timebase>30</timebase>
											<ntsc>TRUE</ntsc>
										</rate>
										<start>0</start>
										<end>5332</end>
										<in>0</in>
										<out>5332</out>
										<pproTicksIn>0</pproTicksIn>
										<pproTicksOut>45192257510400</pproTicksOut>
										<alphatype>straight</alphatype>
										<pixelaspectratio>square</pixelaspectratio>
										<anamorphic>FALSE</anamorphic>
										<file id="file-242">
											<name>DRONE_LOWER_A/NEW DRONE L3.aep</name>
											<pathurl>file://localhost/Volumes/T7/DRONE_08.18.2023/4_Project%20Files/Drone%202023%20Master%20Assets/01_Bugs/NEW%20DRONE%20L3/NEW%20DRONE%20L3.aep</pathurl>
											<rate>
												<timebase>30</timebase>
												<ntsc>TRUE</ntsc>
											</rate>
											<duration>5694</duration>
											<timecode>
												<rate>
													<timebase>30</timebase>
													<ntsc>TRUE</ntsc>
												</rate>
												<string>00;00;00;00</string>
												<frame>0</frame>
												<displayformat>DF</displayformat>
											</timecode>
											<media>
												<video>
													<samplecharacteristics>
														<rate>
															<timebase>30</timebase>
															<ntsc>TRUE</ntsc>
														</rate>
														<width>1920</width>
														<height>1080</height>
														<anamorphic>FALSE</anamorphic>
														<pixelaspectratio>square</pixelaspectratio>
														<fielddominance>lower</fielddominance>
													</samplecharacteristics>
												</video>
											</media>
										</file>
										<logginginfo>
											<description></description>
											<scene></scene>
											<shottake></shottake>
											<lognote></lognote>
											<good></good>
											<originalvideofilename></originalvideofilename>
											<originalaudiofilename></originalaudiofilename>
										</logginginfo>
										<colorinfo>
											<lut></lut>
											<lut1></lut1>
											<asc_sop></asc_sop>
											<asc_sat></asc_sat>
											<lut2></lut2>
										</colorinfo>
										<labels>
											<label2>Rose</label2>
										</labels>
									</clipitem>
									<enabled>TRUE</enabled>
									<locked>FALSE</locked>
								</track>
								<track TL.SQTrackShy="0" TL.SQTrackExpandedHeight="25" TL.SQTrackExpanded="0" MZ.TrackTargeted="0">
									<clipitem id="clipitem-460">
										<masterclipid>masterclip-266</masterclipid>
										<name>Toronto, ON</name>
										<enabled>TRUE</enabled>
										<duration>5694</duration>
										<rate>
											<timebase>30</timebase>
											<ntsc>TRUE</ntsc>
										</rate>
										<start>264</start>
										<end>5332</end>
										<in>0</in>
										<out>5068</out>
										<pproTicksIn>0</pproTicksIn>
										<pproTicksOut>42954681369600</pproTicksOut>
										<alphatype>straight</alphatype>
										<pixelaspectratio>square</pixelaspectratio>
										<anamorphic>FALSE</anamorphic>
										<file id="file-243">
											<name>DRONE_PIN/DRONE_PIN.aep</name>
											<pathurl>file://localhost/Volumes/T7/DRONE_08.18.2023/4_Project%20Files/Drone%202023%20Master%20Assets/01_Bugs/DRIVE_LOCATION%20PIN/DRONE_PIN.aep</pathurl>
											<rate>
												<timebase>30</timebase>
												<ntsc>TRUE</ntsc>
											</rate>
											<duration>5694</duration>
											<timecode>
												<rate>
													<timebase>30</timebase>
													<ntsc>TRUE</ntsc>
												</rate>
												<string>00;00;00;00</string>
												<frame>0</frame>
												<displayformat>DF</displayformat>
											</timecode>
											<media>
												<video>
													<samplecharacteristics>
														<rate>
															<timebase>30</timebase>
															<ntsc>TRUE</ntsc>
														</rate>
														<width>1920</width>
														<height>1080</height>
														<anamorphic>FALSE</anamorphic>
														<pixelaspectratio>square</pixelaspectratio>
														<fielddominance>lower</fielddominance>
													</samplecharacteristics>
												</video>
											</media>
										</file>
										<logginginfo>
											<description></description>
											<scene></scene>
											<shottake></shottake>
											<lognote></lognote>
											<good></good>
											<originalvideofilename></originalvideofilename>
											<originalaudiofilename></originalaudiofilename>
										</logginginfo>
										<colorinfo>
											<lut></lut>
											<lut1></lut1>
											<asc_sop></asc_sop>
											<asc_sat></asc_sat>
											<lut2></lut2>
										</colorinfo>
										<labels>
											<label2>Cerulean</label2>
										</labels>
									</clipitem>
									<enabled>TRUE</enabled>
									<locked>FALSE</locked>
								</track>
								<track TL.SQTrackShy="0" TL.SQTrackExpandedHeight="25" TL.SQTrackExpanded="0" MZ.TrackTargeted="0">
									<clipitem id="clipitem-461">
										<masterclipid>masterclip-153</masterclipid>
										<name>ATM BUG</name>
										<enabled>TRUE</enabled>
										<duration>5818</duration>
										<rate>
											<timebase>30</timebase>
											<ntsc>TRUE</ntsc>
										</rate>
										<start>0</start>
										<end>5332</end>
										<in>0</in>
										<out>5332</out>
										<pproTicksIn>0</pproTicksIn>
										<pproTicksOut>45192257510400</pproTicksOut>
										<sequence id="sequence-5"/>
										<labels>
											<label2>Violet</label2>
										</labels>
									</clipitem>
									<enabled>TRUE</enabled>
									<locked>FALSE</locked>
								</track>
								<track TL.SQTrackShy="0" TL.SQTrackExpandedHeight="25" TL.SQTrackExpanded="0" MZ.TrackTargeted="0">
									<clipitem id="clipitem-462">
										<masterclipid>masterclip-267</masterclipid>
										<name>Trans E</name>
										<enabled>TRUE</enabled>
										<duration>5697</duration>
										<rate>
											<timebase>30</timebase>
											<ntsc>TRUE</ntsc>
										</rate>
										<start>5323</start>
										<end>5563</end>
										<in>0</in>
										<out>240</out>
										<pproTicksIn>0</pproTicksIn>
										<pproTicksOut>2034160128000</pproTicksOut>
										<sequence id="sequence-30" TL.SQAudioVisibleBase="0" TL.SQVideoVisibleBase="0" TL.SQVisibleBaseTime="0" TL.SQAVDividerPosition="0.5" TL.SQHideShyTracks="0" TL.SQHeaderWidth="236" Monitor.ProgramZoomOut="2034160128000" Monitor.ProgramZoomIn="0" TL.SQTimePerPixel="0.027017256158112211" MZ.EditLine="186464678400" MZ.Sequence.PreviewFrameSizeHeight="1080" MZ.Sequence.PreviewFrameSizeWidth="1920" MZ.Sequence.AudioTimeDisplayFormat="200" MZ.Sequence.PreviewRenderingClassID="1297106761" MZ.Sequence.PreviewRenderingPresetCodec="1297107278" MZ.Sequence.PreviewRenderingPresetPath="EncoderPresets/SequencePreview/795454d9-d3c2-429d-9474-923ab13b7018/I-Frame Only MPEG.epr" MZ.Sequence.PreviewUseMaxRenderQuality="false" MZ.Sequence.PreviewUseMaxBitDepth="false" MZ.Sequence.EditingModeGUID="795454d9-d3c2-429d-9474-923ab13b7018" MZ.Sequence.VideoTimeDisplayFormat="102" MZ.WorkOutPoint="15239249625600" MZ.WorkInPoint="0">
											<duration>240</duration>
											<rate>
												<timebase>30</timebase>
												<ntsc>TRUE</ntsc>
											</rate>
											<name>Trans E</name>
											<media>
												<video>
													<format>
														<samplecharacteristics>
															<rate>
																<timebase>30</timebase>
																<ntsc>TRUE</ntsc>
															</rate>
															<codec>
																<name>Apple ProRes 422</name>
																<appspecificdata>
																	<appname>Final Cut Pro</appname>
																	<appmanufacturer>Apple Inc.</appmanufacturer>
																	<appversion>7.0</appversion>
																	<data>
																		<qtcodec>
																			<codecname>Apple ProRes 422</codecname>
																			<codectypename>Apple ProRes 422</codectypename>
																			<codectypecode>apcn</codectypecode>
																			<codecvendorcode>appl</codecvendorcode>
																			<spatialquality>1024</spatialquality>
																			<temporalquality>0</temporalquality>
																			<keyframerate>0</keyframerate>
																			<datarate>0</datarate>
																		</qtcodec>
																	</data>
																</appspecificdata>
															</codec>
															<width>1920</width>
															<height>1080</height>
															<anamorphic>FALSE</anamorphic>
															<pixelaspectratio>square</pixelaspectratio>
															<fielddominance>none</fielddominance>
															<colordepth>24</colordepth>
														</samplecharacteristics>
													</format>
													<track TL.SQTrackShy="0" TL.SQTrackExpandedHeight="25" TL.SQTrackExpanded="0" MZ.TrackTargeted="1">
														<clipitem id="clipitem-463">
															<masterclipid>masterclip-268</masterclipid>
															<name>ATM_DRONE_TRANS_E..mov</name>
															<enabled>TRUE</enabled>
															<duration>240</duration>
															<rate>
																<timebase>30</timebase>
																<ntsc>TRUE</ntsc>
															</rate>
															<start>9</start>
															<end>229</end>
															<in>12</in>
															<out>232</out>
															<pproTicksIn>101708006400</pproTicksIn>
															<pproTicksOut>1966354790400</pproTicksOut>
															<alphatype>straight</alphatype>
															<pixelaspectratio>square</pixelaspectratio>
															<anamorphic>FALSE</anamorphic>
															<file id="file-244">
																<name>ATM_DRONE_TRANS_E..mov</name>
																<pathurl>file://localhost/Volumes/T7/DRONE_08.18.2023/4_Project%20Files/Drone%202023%20Master%20Assets/02_Transitions/DRONE%20transitions%20(30fps)/ATM_DRONE_TRANS_E..mov</pathurl>
																<rate>
																	<timebase>30</timebase>
																	<ntsc>TRUE</ntsc>
																</rate>
																<duration>240</duration>
																<timecode>
																	<rate>
																		<timebase>30</timebase>
																		<ntsc>TRUE</ntsc>
																	</rate>
																	<string>00;00;10;19</string>
																	<frame>319</frame>
																	<displayformat>DF</displayformat>
																</timecode>
																<media>
																	<video>
																		<samplecharacteristics>
																			<rate>
																				<timebase>30</timebase>
																				<ntsc>TRUE</ntsc>
																			</rate>
																			<width>1920</width>
																			<height>1080</height>
																			<anamorphic>FALSE</anamorphic>
																			<pixelaspectratio>square</pixelaspectratio>
																			<fielddominance>none</fielddominance>
																		</samplecharacteristics>
																	</video>
																	<audio>
																		<samplecharacteristics>
																			<depth>16</depth>
																			<samplerate>48000</samplerate>
																		</samplecharacteristics>
																		<channelcount>2</channelcount>
																	</audio>
																</media>
															</file>
															<logginginfo>
																<description></description>
																<scene></scene>
																<shottake></shottake>
																<lognote></lognote>
																<good></good>
																<originalvideofilename></originalvideofilename>
																<originalaudiofilename></originalaudiofilename>
															</logginginfo>
															<colorinfo>
																<lut></lut>
																<lut1></lut1>
																<asc_sop></asc_sop>
																<asc_sat></asc_sat>
																<lut2></lut2>
															</colorinfo>
															<labels>
																<label2>Iris</label2>
															</labels>
														</clipitem>
														<enabled>TRUE</enabled>
														<locked>FALSE</locked>
													</track>
													<track TL.SQTrackShy="0" TL.SQTrackExpandedHeight="25" TL.SQTrackExpanded="0" MZ.TrackTargeted="0">
														<clipitem id="clipitem-464">
															<masterclipid>masterclip-157</masterclipid>
															<name>02 Zoom In - Quick / Transform Out</name>
															<enabled>TRUE</enabled>
															<duration>1294705</duration>
															<rate>
																<timebase>30</timebase>
																<ntsc>TRUE</ntsc>
															</rate>
															<start>0</start>
															<end>9</end>
															<in>0</in>
															<out>9</out>
															<pproTicksIn>0</pproTicksIn>
															<pproTicksOut>76281004800</pproTicksOut>
															<sequence id="sequence-7"/>
																<marker>
																	<comment></comment>
																	<name></name>
																	<in>20</in>
																	<out>-1</out>
																</marker>
															<labels>
																<label2>Iris</label2>
															</labels>
														</clipitem>
														<clipitem id="clipitem-465">
															<masterclipid>masterclip-159</masterclipid>
															<name>02 Zoom In - Quick / Transform In</name>
															<enabled>TRUE</enabled>
															<duration>1294705</duration>
															<rate>
																<timebase>30</timebase>
																<ntsc>TRUE</ntsc>
															</rate>
															<start>9</start>
															<end>17</end>
															<in>0</in>
															<out>8</out>
															<pproTicksIn>0</pproTicksIn>
															<pproTicksOut>67805337600</pproTicksOut>
															<sequence id="sequence-8"/>
															<labels>
																<label2>Iris</label2>
															</labels>
														</clipitem>
														<clipitem id="clipitem-466">
															<masterclipid>masterclip-157</masterclipid>
															<name>03 Zoom Out - Quick / Transform Out</name>
															<enabled>TRUE</enabled>
															<duration>1294705</duration>
															<rate>
																<timebase>30</timebase>
																<ntsc>TRUE</ntsc>
															</rate>
															<start>220</start>
															<end>229</end>
															<in>0</in>
															<out>9</out>
															<pproTicksIn>0</pproTicksIn>
															<pproTicksOut>76281004800</pproTicksOut>
															<sequence id="sequence-7"/>
																<marker>
																	<comment></comment>
																	<name></name>
																	<in>20</in>
																	<out>-1</out>
																</marker>
															<labels>
																<label2>Iris</label2>
															</labels>
														</clipitem>
														<clipitem id="clipitem-467">
															<masterclipid>masterclip-159</masterclipid>
															<name>03 Zoom Out - Quick / Transform In</name>
															<enabled>TRUE</enabled>
															<duration>1294705</duration>
															<rate>
																<timebase>30</timebase>
																<ntsc>TRUE</ntsc>
															</rate>
															<start>229</start>
															<end>238</end>
															<in>0</in>
															<out>9</out>
															<pproTicksIn>0</pproTicksIn>
															<pproTicksOut>76281004800</pproTicksOut>
															<sequence id="sequence-8"/>
															<filter>
																<effect>
																	<name>Basic Motion</name>
																	<effectid>basic</effectid>
																	<effectcategory>motion</effectcategory>
																	<effecttype>motion</effecttype>
																	<mediatype>video</mediatype>
																	<pproBypass>false</pproBypass>
																	<parameter authoringApp="PremierePro">
																		<parameterid>scale</parameterid>
																		<name>Scale</name>
																		<valuemin>0</valuemin>
																		<valuemax>1000</valuemax>
																		<value>100</value>
																	</parameter>
																	<parameter authoringApp="PremierePro">
																		<parameterid>rotation</parameterid>
																		<name>Rotation</name>
																		<valuemin>-8640</valuemin>
																		<valuemax>8640</valuemax>
																		<value>0</value>
																	</parameter>
																	<parameter authoringApp="PremierePro">
																		<parameterid>center</parameterid>
																		<name>Center</name>
																		<value>
																			<horiz>-0.5</horiz>
																			<vert>-0.499394</vert>
																		</value>
																	</parameter>
																	<parameter authoringApp="PremierePro">
																		<parameterid>centerOffset</parameterid>
																		<name>Anchor Point</name>
																		<value>
																			<horiz>0</horiz>
																			<vert>-0.00060606</vert>
																		</value>
																	</parameter>
																	<parameter authoringApp="PremierePro">
																		<parameterid>antiflicker</parameterid>
																		<name>Anti-flicker Filter</name>
																		<valuemin>0.0</valuemin>
																		<valuemax>1.0</valuemax>
																		<value>0</value>
																	</parameter>
																</effect>
															</filter>
															<labels>
																<label2>Iris</label2>
															</labels>
														</clipitem>
														<enabled>TRUE</enabled>
														<locked>FALSE</locked>
													</track>
													<track TL.SQTrackShy="0" TL.SQTrackExpandedHeight="25" TL.SQTrackExpanded="0" MZ.TrackTargeted="0">
														<enabled>TRUE</enabled>
														<locked>FALSE</locked>
													</track>
												</video>
												<audio>
													<numOutputChannels>2</numOutputChannels>
													<format>
														<samplecharacteristics>
															<depth>16</depth>
															<samplerate>32000</samplerate>
														</samplecharacteristics>
													</format>
													<outputs>
														<group>
															<index>1</index>
															<numchannels>1</numchannels>
															<downmix>0</downmix>
															<channel>
																<index>1</index>
															</channel>
														</group>
														<group>
															<index>2</index>
															<numchannels>1</numchannels>
															<downmix>0</downmix>
															<channel>
																<index>2</index>
															</channel>
														</group>
													</outputs>
													<track TL.SQTrackAudioKeyframeStyle="0" TL.SQTrackShy="0" TL.SQTrackExpandedHeight="25" TL.SQTrackExpanded="0" MZ.TrackTargeted="1" PannerCurrentValue="0.5" PannerIsInverted="true" PannerStartKeyframe="-91445760000000000,0.5,0,0,0,0,0,0" PannerName="Balance" currentExplodedTrackIndex="0" totalExplodedTrackCount="2" premiereTrackType="Stereo">
														<clipitem id="clipitem-468" premiereChannelType="stereo">
															<masterclipid>masterclip-268</masterclipid>
															<name>ATM_DRONE_TRANS_E..mov</name>
															<enabled>TRUE</enabled>
															<duration>240</duration>
															<rate>
																<timebase>30</timebase>
																<ntsc>TRUE</ntsc>
															</rate>
															<start>0</start>
															<end>240</end>
															<in>0</in>
															<out>240</out>
															<pproTicksIn>0</pproTicksIn>
															<pproTicksOut>2034160128000</pproTicksOut>
															<file id="file-244"/>
															<sourcetrack>
																<mediatype>audio</mediatype>
																<trackindex>1</trackindex>
															</sourcetrack>
															<filter>
																<effect>
																	<name>Gain</name>
																	<effectid>{61756678, 4761696e, 4b657947}</effectid>
																	<effecttype>filter</effecttype>
																	<mediatype>audio</mediatype>
																	<parameter authoringApp="PremierePro">
																		<parameterid>Gain(dB)</parameterid>
																		<name>Gain(dB)</name>
																		<valuemin>-96</valuemin>
																		<valuemax>96</valuemax>
																		<value>-9</value>
																	</parameter>
																</effect>
															</filter>
															<link>
																<linkclipref>clipitem-468</linkclipref>
																<mediatype>audio</mediatype>
																<trackindex>1</trackindex>
																<clipindex>1</clipindex>
																<groupindex>1</groupindex>
															</link>
															<link>
																<linkclipref>clipitem-469</linkclipref>
																<mediatype>audio</mediatype>
																<trackindex>2</trackindex>
																<clipindex>1</clipindex>
																<groupindex>1</groupindex>
															</link>
															<logginginfo>
																<description></description>
																<scene></scene>
																<shottake></shottake>
																<lognote></lognote>
																<good></good>
																<originalvideofilename></originalvideofilename>
																<originalaudiofilename></originalaudiofilename>
															</logginginfo>
															<colorinfo>
																<lut></lut>
																<lut1></lut1>
																<asc_sop></asc_sop>
																<asc_sat></asc_sat>
																<lut2></lut2>
															</colorinfo>
															<labels>
																<label2>Iris</label2>
															</labels>
														</clipitem>
														<enabled>TRUE</enabled>
														<locked>FALSE</locked>
														<outputchannelindex>1</outputchannelindex>
													</track>
													<track TL.SQTrackAudioKeyframeStyle="0" TL.SQTrackShy="0" TL.SQTrackExpandedHeight="25" TL.SQTrackExpanded="0" MZ.TrackTargeted="1" PannerCurrentValue="0.5" PannerIsInverted="true" PannerStartKeyframe="-91445760000000000,0.5,0,0,0,0,0,0" PannerName="Balance" currentExplodedTrackIndex="1" totalExplodedTrackCount="2" premiereTrackType="Stereo">
														<clipitem id="clipitem-469" premiereChannelType="stereo">
															<masterclipid>masterclip-268</masterclipid>
															<name>ATM_DRONE_TRANS_E..mov</name>
															<enabled>TRUE</enabled>
															<duration>240</duration>
															<rate>
																<timebase>30</timebase>
																<ntsc>TRUE</ntsc>
															</rate>
															<start>0</start>
															<end>240</end>
															<in>0</in>
															<out>240</out>
															<pproTicksIn>0</pproTicksIn>
															<pproTicksOut>2034160128000</pproTicksOut>
															<file id="file-244"/>
															<sourcetrack>
																<mediatype>audio</mediatype>
																<trackindex>2</trackindex>
															</sourcetrack>
															<filter>
																<effect>
																	<name>Gain</name>
																	<effectid>{61756678, 4761696e, 4b657947}</effectid>
																	<effecttype>filter</effecttype>
																	<mediatype>audio</mediatype>
																	<parameter authoringApp="PremierePro">
																		<parameterid>Gain(dB)</parameterid>
																		<name>Gain(dB)</name>
																		<valuemin>-96</valuemin>
																		<valuemax>96</valuemax>
																		<value>-9</value>
																	</parameter>
																</effect>
															</filter>
															<link>
																<linkclipref>clipitem-468</linkclipref>
																<mediatype>audio</mediatype>
																<trackindex>1</trackindex>
																<clipindex>1</clipindex>
																<groupindex>1</groupindex>
															</link>
															<link>
																<linkclipref>clipitem-469</linkclipref>
																<mediatype>audio</mediatype>
																<trackindex>2</trackindex>
																<clipindex>1</clipindex>
																<groupindex>1</groupindex>
															</link>
															<logginginfo>
																<description></description>
																<scene></scene>
																<shottake></shottake>
																<lognote></lognote>
																<good></good>
																<originalvideofilename></originalvideofilename>
																<originalaudiofilename></originalaudiofilename>
															</logginginfo>
															<colorinfo>
																<lut></lut>
																<lut1></lut1>
																<asc_sop></asc_sop>
																<asc_sat></asc_sat>
																<lut2></lut2>
															</colorinfo>
															<labels>
																<label2>Iris</label2>
															</labels>
														</clipitem>
														<enabled>TRUE</enabled>
														<locked>FALSE</locked>
														<outputchannelindex>2</outputchannelindex>
													</track>
													<track TL.SQTrackAudioKeyframeStyle="0" TL.SQTrackShy="0" TL.SQTrackExpandedHeight="25" TL.SQTrackExpanded="0" MZ.TrackTargeted="1" PannerCurrentValue="0.5" PannerIsInverted="true" PannerStartKeyframe="-91445760000000000,0.5,0,0,0,0,0,0" PannerName="Balance" currentExplodedTrackIndex="0" totalExplodedTrackCount="2" premiereTrackType="Stereo">
														<enabled>TRUE</enabled>
														<locked>FALSE</locked>
														<outputchannelindex>1</outputchannelindex>
													</track>
													<track TL.SQTrackAudioKeyframeStyle="0" TL.SQTrackShy="0" TL.SQTrackExpandedHeight="25" TL.SQTrackExpanded="0" MZ.TrackTargeted="1" PannerCurrentValue="0.5" PannerIsInverted="true" PannerStartKeyframe="-91445760000000000,0.5,0,0,0,0,0,0" PannerName="Balance" currentExplodedTrackIndex="1" totalExplodedTrackCount="2" premiereTrackType="Stereo">
														<enabled>TRUE</enabled>
														<locked>FALSE</locked>
														<outputchannelindex>2</outputchannelindex>
													</track>
													<track TL.SQTrackAudioKeyframeStyle="0" TL.SQTrackShy="0" TL.SQTrackExpandedHeight="25" TL.SQTrackExpanded="0" MZ.TrackTargeted="1" PannerCurrentValue="0.5" PannerIsInverted="true" PannerStartKeyframe="-91445760000000000,0.5,0,0,0,0,0,0" PannerName="Balance" currentExplodedTrackIndex="0" totalExplodedTrackCount="2" premiereTrackType="Stereo">
														<enabled>TRUE</enabled>
														<locked>FALSE</locked>
														<outputchannelindex>1</outputchannelindex>
													</track>
													<track TL.SQTrackAudioKeyframeStyle="0" TL.SQTrackShy="0" TL.SQTrackExpandedHeight="25" TL.SQTrackExpanded="0" MZ.TrackTargeted="1" PannerCurrentValue="0.5" PannerIsInverted="true" PannerStartKeyframe="-91445760000000000,0.5,0,0,0,0,0,0" PannerName="Balance" currentExplodedTrackIndex="1" totalExplodedTrackCount="2" premiereTrackType="Stereo">
														<enabled>TRUE</enabled>
														<locked>FALSE</locked>
														<outputchannelindex>2</outputchannelindex>
													</track>
												</audio>
											</media>
											<timecode>
												<rate>
													<timebase>30</timebase>
													<ntsc>TRUE</ntsc>
												</rate>
												<string>00;00;00;00</string>
												<frame>0</frame>
												<displayformat>DF</displayformat>
											</timecode>
												<marker>
													<comment></comment>
													<name></name>
													<in>9</in>
													<out>-1</out>
													<pproColor>4281828977</pproColor>
												</marker>
												<marker>
													<comment></comment>
													<name></name>
													<in>229</in>
													<out>-1</out>
													<pproColor>4281828977</pproColor>
												</marker>
											<logginginfo>
												<description></description>
												<scene></scene>
												<shottake></shottake>
												<lognote></lognote>
												<good></good>
												<originalvideofilename></originalvideofilename>
												<originalaudiofilename></originalaudiofilename>
											</logginginfo>
										</sequence>
											<marker>
												<comment></comment>
												<name></name>
												<in>9</in>
												<out>-1</out>
												<pproColor>4281828977</pproColor>
											</marker>
											<marker>
												<comment></comment>
												<name></name>
												<in>229</in>
												<out>-1</out>
												<pproColor>4281828977</pproColor>
											</marker>
										<link>
											<linkclipref>clipitem-462</linkclipref>
											<mediatype>video</mediatype>
											<trackindex>5</trackindex>
											<clipindex>1</clipindex>
										</link>
										<link>
											<linkclipref>clipitem-472</linkclipref>
											<mediatype>audio</mediatype>
											<trackindex>9</trackindex>
											<clipindex>1</clipindex>
											<groupindex>1</groupindex>
										</link>
										<link>
											<linkclipref>clipitem-473</linkclipref>
											<mediatype>audio</mediatype>
											<trackindex>10</trackindex>
											<clipindex>1</clipindex>
											<groupindex>1</groupindex>
										</link>
										<labels>
											<label2>Tan</label2>
										</labels>
									</clipitem>
									<enabled>TRUE</enabled>
									<locked>FALSE</locked>
								</track>
							</video>
							<audio>
								<numOutputChannels>2</numOutputChannels>
								<format>
									<samplecharacteristics>
										<depth>16</depth>
										<samplerate>32000</samplerate>
									</samplecharacteristics>
								</format>
								<outputs>
									<group>
										<index>1</index>
										<numchannels>1</numchannels>
										<downmix>0</downmix>
										<channel>
											<index>1</index>
										</channel>
									</group>
									<group>
										<index>2</index>
										<numchannels>1</numchannels>
										<downmix>0</downmix>
										<channel>
											<index>2</index>
										</channel>
									</group>
								</outputs>
								<track TL.SQTrackAudioKeyframeStyle="0" TL.SQTrackShy="0" TL.SQTrackExpandedHeight="25" TL.SQTrackExpanded="0" MZ.TrackTargeted="1" PannerCurrentValue="0.5" PannerIsInverted="true" PannerStartKeyframe="-91445760000000000,0.5,0,0,0,0,0,0" PannerName="Balance" currentExplodedTrackIndex="0" totalExplodedTrackCount="2" premiereTrackType="Stereo">
									<clipitem id="clipitem-470" premiereChannelType="stereo">
										<masterclipid>masterclip-253</masterclipid>
										<name>DRONE_Toronto From Above_3</name>
										<enabled>TRUE</enabled>
										<duration>9032</duration>
										<rate>
											<timebase>30</timebase>
											<ntsc>TRUE</ntsc>
										</rate>
										<start>0</start>
										<end>5332</end>
										<in>0</in>
										<out>5332</out>
										<pproTicksIn>0</pproTicksIn>
										<pproTicksOut>45192257510400</pproTicksOut>
										<sequence id="sequence-29"/>
										<sourcetrack>
											<mediatype>audio</mediatype>
											<trackindex>0</trackindex>
										</sourcetrack>
										<link>
											<linkclipref>clipitem-446</linkclipref>
											<mediatype>video</mediatype>
											<trackindex>1</trackindex>
											<clipindex>1</clipindex>
										</link>
										<link>
											<linkclipref>clipitem-470</linkclipref>
											<mediatype>audio</mediatype>
											<trackindex>1</trackindex>
											<clipindex>1</clipindex>
											<groupindex>1</groupindex>
										</link>
										<link>
											<linkclipref>clipitem-471</linkclipref>
											<mediatype>audio</mediatype>
											<trackindex>2</trackindex>
											<clipindex>1</clipindex>
											<groupindex>1</groupindex>
										</link>
										<labels>
											<label2>Forest</label2>
										</labels>
									</clipitem>
									<enabled>TRUE</enabled>
									<locked>FALSE</locked>
									<outputchannelindex>1</outputchannelindex>
								</track>
								<track TL.SQTrackAudioKeyframeStyle="0" TL.SQTrackShy="0" TL.SQTrackExpandedHeight="25" TL.SQTrackExpanded="0" MZ.TrackTargeted="1" PannerCurrentValue="0.5" PannerIsInverted="true" PannerStartKeyframe="-91445760000000000,0.5,0,0,0,0,0,0" PannerName="Balance" currentExplodedTrackIndex="1" totalExplodedTrackCount="2" premiereTrackType="Stereo">
									<clipitem id="clipitem-471" premiereChannelType="stereo">
										<masterclipid>masterclip-253</masterclipid>
										<name>DRONE_Toronto From Above_3</name>
										<enabled>TRUE</enabled>
										<duration>9032</duration>
										<rate>
											<timebase>30</timebase>
											<ntsc>TRUE</ntsc>
										</rate>
										<start>0</start>
										<end>5332</end>
										<in>0</in>
										<out>5332</out>
										<pproTicksIn>0</pproTicksIn>
										<pproTicksOut>45192257510400</pproTicksOut>
										<sequence id="sequence-29"/>
										<sourcetrack>
											<mediatype>audio</mediatype>
											<trackindex>1</trackindex>
										</sourcetrack>
										<link>
											<linkclipref>clipitem-446</linkclipref>
											<mediatype>video</mediatype>
											<trackindex>1</trackindex>
											<clipindex>1</clipindex>
										</link>
										<link>
											<linkclipref>clipitem-470</linkclipref>
											<mediatype>audio</mediatype>
											<trackindex>1</trackindex>
											<clipindex>1</clipindex>
											<groupindex>1</groupindex>
										</link>
										<link>
											<linkclipref>clipitem-471</linkclipref>
											<mediatype>audio</mediatype>
											<trackindex>2</trackindex>
											<clipindex>1</clipindex>
											<groupindex>1</groupindex>
										</link>
										<labels>
											<label2>Forest</label2>
										</labels>
									</clipitem>
									<enabled>TRUE</enabled>
									<locked>FALSE</locked>
									<outputchannelindex>2</outputchannelindex>
								</track>
								<track TL.SQTrackAudioKeyframeStyle="0" TL.SQTrackShy="0" TL.SQTrackExpandedHeight="25" TL.SQTrackExpanded="0" MZ.TrackTargeted="1" PannerCurrentValue="0.5" PannerIsInverted="true" PannerStartKeyframe="-91445760000000000,0.5,0,0,0,0,0,0" PannerName="Balance" currentExplodedTrackIndex="0" totalExplodedTrackCount="2" premiereTrackType="Stereo">
									<enabled>TRUE</enabled>
									<locked>FALSE</locked>
									<outputchannelindex>1</outputchannelindex>
								</track>
								<track TL.SQTrackAudioKeyframeStyle="0" TL.SQTrackShy="0" TL.SQTrackExpandedHeight="25" TL.SQTrackExpanded="0" MZ.TrackTargeted="1" PannerCurrentValue="0.5" PannerIsInverted="true" PannerStartKeyframe="-91445760000000000,0.5,0,0,0,0,0,0" PannerName="Balance" currentExplodedTrackIndex="1" totalExplodedTrackCount="2" premiereTrackType="Stereo">
									<enabled>TRUE</enabled>
									<locked>FALSE</locked>
									<outputchannelindex>2</outputchannelindex>
								</track>
								<track TL.SQTrackAudioKeyframeStyle="0" TL.SQTrackShy="0" TL.SQTrackExpandedHeight="25" TL.SQTrackExpanded="0" MZ.TrackTargeted="1" PannerCurrentValue="0.5" PannerIsInverted="true" PannerStartKeyframe="-91445760000000000,0.5,0,0,0,0,0,0" PannerName="Balance" currentExplodedTrackIndex="0" totalExplodedTrackCount="2" premiereTrackType="Stereo">
									<enabled>TRUE</enabled>
									<locked>FALSE</locked>
									<outputchannelindex>1</outputchannelindex>
								</track>
								<track TL.SQTrackAudioKeyframeStyle="0" TL.SQTrackShy="0" TL.SQTrackExpandedHeight="25" TL.SQTrackExpanded="0" MZ.TrackTargeted="1" PannerCurrentValue="0.5" PannerIsInverted="true" PannerStartKeyframe="-91445760000000000,0.5,0,0,0,0,0,0" PannerName="Balance" currentExplodedTrackIndex="1" totalExplodedTrackCount="2" premiereTrackType="Stereo">
									<enabled>TRUE</enabled>
									<locked>FALSE</locked>
									<outputchannelindex>2</outputchannelindex>
								</track>
								<track TL.SQTrackAudioKeyframeStyle="0" TL.SQTrackShy="0" TL.SQTrackExpandedHeight="25" TL.SQTrackExpanded="0" MZ.TrackTargeted="0" PannerCurrentValue="0.5" PannerIsInverted="true" PannerStartKeyframe="-91445760000000000,0.5,0,0,0,0,0,0" PannerName="Balance" currentExplodedTrackIndex="0" totalExplodedTrackCount="2" premiereTrackType="Stereo">
									<enabled>TRUE</enabled>
									<locked>FALSE</locked>
									<outputchannelindex>1</outputchannelindex>
								</track>
								<track TL.SQTrackAudioKeyframeStyle="0" TL.SQTrackShy="0" TL.SQTrackExpandedHeight="25" TL.SQTrackExpanded="0" MZ.TrackTargeted="0" PannerCurrentValue="0.5" PannerIsInverted="true" PannerStartKeyframe="-91445760000000000,0.5,0,0,0,0,0,0" PannerName="Balance" currentExplodedTrackIndex="1" totalExplodedTrackCount="2" premiereTrackType="Stereo">
									<enabled>TRUE</enabled>
									<locked>FALSE</locked>
									<outputchannelindex>2</outputchannelindex>
								</track>
								<track TL.SQTrackAudioKeyframeStyle="0" TL.SQTrackShy="0" TL.SQTrackExpandedHeight="25" TL.SQTrackExpanded="0" MZ.TrackTargeted="0" PannerCurrentValue="0.5" PannerIsInverted="true" PannerStartKeyframe="-91445760000000000,0.5,0,0,0,0,0,0" PannerName="Balance" currentExplodedTrackIndex="0" totalExplodedTrackCount="2" premiereTrackType="Stereo">
									<clipitem id="clipitem-472" premiereChannelType="stereo">
										<masterclipid>masterclip-267</masterclipid>
										<name>Trans E</name>
										<enabled>TRUE</enabled>
										<duration>5697</duration>
										<rate>
											<timebase>30</timebase>
											<ntsc>TRUE</ntsc>
										</rate>
										<start>5323</start>
										<end>5563</end>
										<in>0</in>
										<out>240</out>
										<pproTicksIn>0</pproTicksIn>
										<pproTicksOut>2034160128000</pproTicksOut>
										<sequence id="sequence-30"/>
										<sourcetrack>
											<mediatype>audio</mediatype>
											<trackindex>0</trackindex>
										</sourcetrack>
											<marker>
												<comment></comment>
												<name></name>
												<in>9</in>
												<out>-1</out>
												<pproColor>4281828977</pproColor>
											</marker>
											<marker>
												<comment></comment>
												<name></name>
												<in>229</in>
												<out>-1</out>
												<pproColor>4281828977</pproColor>
											</marker>
										<link>
											<linkclipref>clipitem-462</linkclipref>
											<mediatype>video</mediatype>
											<trackindex>5</trackindex>
											<clipindex>1</clipindex>
										</link>
										<link>
											<linkclipref>clipitem-472</linkclipref>
											<mediatype>audio</mediatype>
											<trackindex>9</trackindex>
											<clipindex>1</clipindex>
											<groupindex>1</groupindex>
										</link>
										<link>
											<linkclipref>clipitem-473</linkclipref>
											<mediatype>audio</mediatype>
											<trackindex>10</trackindex>
											<clipindex>1</clipindex>
											<groupindex>1</groupindex>
										</link>
										<labels>
											<label2>Tan</label2>
										</labels>
									</clipitem>
									<enabled>TRUE</enabled>
									<locked>FALSE</locked>
									<outputchannelindex>1</outputchannelindex>
								</track>
								<track TL.SQTrackAudioKeyframeStyle="0" TL.SQTrackShy="0" TL.SQTrackExpandedHeight="25" TL.SQTrackExpanded="0" MZ.TrackTargeted="0" PannerCurrentValue="0.5" PannerIsInverted="true" PannerStartKeyframe="-91445760000000000,0.5,0,0,0,0,0,0" PannerName="Balance" currentExplodedTrackIndex="1" totalExplodedTrackCount="2" premiereTrackType="Stereo">
									<clipitem id="clipitem-473" premiereChannelType="stereo">
										<masterclipid>masterclip-267</masterclipid>
										<name>Trans E</name>
										<enabled>TRUE</enabled>
										<duration>5697</duration>
										<rate>
											<timebase>30</timebase>
											<ntsc>TRUE</ntsc>
										</rate>
										<start>5323</start>
										<end>5563</end>
										<in>0</in>
										<out>240</out>
										<pproTicksIn>0</pproTicksIn>
										<pproTicksOut>2034160128000</pproTicksOut>
										<sequence id="sequence-30"/>
										<sourcetrack>
											<mediatype>audio</mediatype>
											<trackindex>1</trackindex>
										</sourcetrack>
											<marker>
												<comment></comment>
												<name></name>
												<in>9</in>
												<out>-1</out>
												<pproColor>4281828977</pproColor>
											</marker>
											<marker>
												<comment></comment>
												<name></name>
												<in>229</in>
												<out>-1</out>
												<pproColor>4281828977</pproColor>
											</marker>
										<link>
											<linkclipref>clipitem-462</linkclipref>
											<mediatype>video</mediatype>
											<trackindex>5</trackindex>
											<clipindex>1</clipindex>
										</link>
										<link>
											<linkclipref>clipitem-472</linkclipref>
											<mediatype>audio</mediatype>
											<trackindex>9</trackindex>
											<clipindex>1</clipindex>
											<groupindex>1</groupindex>
										</link>
										<link>
											<linkclipref>clipitem-473</linkclipref>
											<mediatype>audio</mediatype>
											<trackindex>10</trackindex>
											<clipindex>1</clipindex>
											<groupindex>1</groupindex>
										</link>
										<labels>
											<label2>Tan</label2>
										</labels>
									</clipitem>
									<enabled>TRUE</enabled>
									<locked>FALSE</locked>
									<outputchannelindex>2</outputchannelindex>
								</track>
							</audio>
						</media>
						<timecode>
							<rate>
								<timebase>30</timebase>
								<ntsc>TRUE</ntsc>
							</rate>
							<string>00;00;00;00</string>
							<frame>0</frame>
							<displayformat>DF</displayformat>
						</timecode>
							<marker>
								<comment></comment>
								<name></name>
								<in>264</in>
								<out>-1</out>
								<pproColor>4281828977</pproColor>
							</marker>
						<labels>
							<label2>Forest</label2>
						</labels>
						<logginginfo>
							<description></description>
							<scene></scene>
							<shottake></shottake>
							<lognote></lognote>
							<good></good>
							<originalvideofilename></originalvideofilename>
							<originalaudiofilename></originalaudiofilename>
						</logginginfo>
					</sequence>
					<sequence id="sequence-31" TL.SQAudioVisibleBase="0" TL.SQVideoVisibleBase="0" TL.SQVisibleBaseTime="0" TL.SQAVDividerPosition="0.5" TL.SQHideShyTracks="0" TL.SQHeaderWidth="236" TL.SQDataTrackViewControlState="0" Monitor.ProgramZoomOut="46700926272000" Monitor.ProgramZoomIn="0" TL.SQTimePerPixel="0.86781039764892542" MZ.EditLine="41624001619200" MZ.Sequence.PreviewFrameSizeHeight="1080" MZ.Sequence.PreviewFrameSizeWidth="1920" MZ.Sequence.AudioTimeDisplayFormat="200" MZ.Sequence.PreviewRenderingClassID="1297106761" MZ.Sequence.PreviewRenderingPresetCodec="1297107278" MZ.Sequence.PreviewRenderingPresetPath="EncoderPresets/SequencePreview/795454d9-d3c2-429d-9474-923ab13b7018/I-Frame Only MPEG.epr" MZ.Sequence.PreviewUseMaxRenderQuality="false" MZ.Sequence.PreviewUseMaxBitDepth="false" MZ.Sequence.EditingModeGUID="795454d9-d3c2-429d-9474-923ab13b7018" MZ.Sequence.VideoTimeDisplayFormat="102" MZ.WorkOutPoint="15239249625600" MZ.WorkInPoint="0" explodedTracks="true">
						<uuid>b7c4a37e-2e70-4ce3-ac4a-5f6e7e620806</uuid>
						<duration>5288</duration>
						<rate>
							<timebase>30</timebase>
							<ntsc>TRUE</ntsc>
						</rate>
						<name>ATM_DRONE_500</name>
						<media>
							<video>
								<format>
									<samplecharacteristics>
										<rate>
											<timebase>30</timebase>
											<ntsc>TRUE</ntsc>
										</rate>
										<codec>
											<name>Apple ProRes 422</name>
											<appspecificdata>
												<appname>Final Cut Pro</appname>
												<appmanufacturer>Apple Inc.</appmanufacturer>
												<appversion>7.0</appversion>
												<data>
													<qtcodec>
														<codecname>Apple ProRes 422</codecname>
														<codectypename>Apple ProRes 422</codectypename>
														<codectypecode>apcn</codectypecode>
														<codecvendorcode>appl</codecvendorcode>
														<spatialquality>1024</spatialquality>
														<temporalquality>0</temporalquality>
														<keyframerate>0</keyframerate>
														<datarate>0</datarate>
													</qtcodec>
												</data>
											</appspecificdata>
										</codec>
										<width>1920</width>
										<height>1080</height>
										<anamorphic>FALSE</anamorphic>
										<pixelaspectratio>square</pixelaspectratio>
										<fielddominance>none</fielddominance>
										<colordepth>24</colordepth>
									</samplecharacteristics>
								</format>
								<track TL.SQTrackShy="0" TL.SQTrackExpandedHeight="25" TL.SQTrackExpanded="0" MZ.TrackTargeted="1">
									<clipitem id="clipitem-474">
										<masterclipid>masterclip-269</masterclipid>
										<name>DRONE_Great Wall of China_3</name>
										<enabled>TRUE</enabled>
										<duration>6569</duration>
										<rate>
											<timebase>30</timebase>
											<ntsc>TRUE</ntsc>
										</rate>
										<start>0</start>
										<end>5288</end>
										<in>0</in>
										<out>5288</out>
										<pproTicksIn>0</pproTicksIn>
										<pproTicksOut>44819328153600</pproTicksOut>
										<sequence id="sequence-32" TL.SQAudioVisibleBase="0" TL.SQVideoVisibleBase="0" TL.SQVisibleBaseTime="32572469606348" TL.SQAVDividerPosition="0.5" TL.SQHideShyTracks="0" TL.SQHeaderWidth="236" Monitor.ProgramZoomOut="44819328153600" Monitor.ProgramZoomIn="0" TL.SQTimePerPixel="0.054184654420372055" MZ.EditLine="38064221395200" MZ.Sequence.PreviewFrameSizeHeight="1080" MZ.Sequence.PreviewFrameSizeWidth="1920" MZ.Sequence.AudioTimeDisplayFormat="200" MZ.Sequence.PreviewRenderingClassID="1061109567" MZ.Sequence.PreviewRenderingPresetCodec="1634755443" MZ.Sequence.PreviewRenderingPresetPath="EncoderPresets/SequencePreview/35d109db-457b-43c1-9452-9cb7be9f121c/QuickTime.epr" MZ.Sequence.PreviewUseMaxRenderQuality="false" MZ.Sequence.PreviewUseMaxBitDepth="false" MZ.Sequence.EditingModeGUID="35d109db-457b-43c1-9452-9cb7be9f121c" MZ.Sequence.VideoTimeDisplayFormat="102" MZ.WorkOutPoint="15239249625600" MZ.WorkInPoint="0">
											<duration>5288</duration>
											<rate>
												<timebase>30</timebase>
												<ntsc>TRUE</ntsc>
											</rate>
											<name>DRONE_Great Wall of China_3</name>
											<media>
												<video>
													<format>
														<samplecharacteristics>
															<rate>
																<timebase>30</timebase>
																<ntsc>TRUE</ntsc>
															</rate>
															<codec>
																<name>Apple ProRes 422</name>
																<appspecificdata>
																	<appname>Final Cut Pro</appname>
																	<appmanufacturer>Apple Inc.</appmanufacturer>
																	<appversion>7.0</appversion>
																	<data>
																		<qtcodec>
																			<codecname>Apple ProRes 422</codecname>
																			<codectypename>Apple ProRes 422</codectypename>
																			<codectypecode>apcn</codectypecode>
																			<codecvendorcode>appl</codecvendorcode>
																			<spatialquality>1024</spatialquality>
																			<temporalquality>0</temporalquality>
																			<keyframerate>0</keyframerate>
																			<datarate>0</datarate>
																		</qtcodec>
																	</data>
																</appspecificdata>
															</codec>
															<width>1920</width>
															<height>1080</height>
															<anamorphic>FALSE</anamorphic>
															<pixelaspectratio>square</pixelaspectratio>
															<fielddominance>none</fielddominance>
															<colordepth>24</colordepth>
														</samplecharacteristics>
													</format>
													<track TL.SQTrackShy="0" TL.SQTrackExpandedHeight="25" TL.SQTrackExpanded="0" MZ.TrackTargeted="1">
														<clipitem id="clipitem-475">
															<masterclipid>masterclip-270</masterclipid>
															<name>descending-over-great-wall-of-china-towards-sun-001-SBV-311902901-HD.mp4</name>
															<enabled>TRUE</enabled>
															<duration>204</duration>
															<rate>
																<timebase>30</timebase>
																<ntsc>TRUE</ntsc>
															</rate>
															<start>0</start>
															<end>146</end>
															<in>0</in>
															<out>146</out>
															<pproTicksIn>0</pproTicksIn>
															<pproTicksOut>1237447411200</pproTicksOut>
															<alphatype>none</alphatype>
															<pixelaspectratio>square</pixelaspectratio>
															<anamorphic>FALSE</anamorphic>
															<file id="file-245">
																<name>descending-over-great-wall-of-china-towards-sun-001-SBV-311902901-HD.mp4</name>
																<pathurl>file://localhost/Volumes/T7/DRONE_08.18.2023/3_Raw%20Files/Great%20Wall%20of%20China/descending-over-great-wall-of-china-towards-sun-001-SBV-311902901-HD.mp4</pathurl>
																<rate>
																	<timebase>23</timebase>
																	<ntsc>FALSE</ntsc>
																</rate>
																<duration>164</duration>
																<timecode>
																	<rate>
																		<timebase>23</timebase>
																		<ntsc>FALSE</ntsc>
																	</rate>
																	<string>00:00:00:00</string>
																	<frame>0</frame>
																	<displayformat>NDF</displayformat>
																</timecode>
																<media>
																	<video>
																		<samplecharacteristics>
																			<rate>
																				<timebase>23</timebase>
																				<ntsc>FALSE</ntsc>
																			</rate>
																			<width>1920</width>
																			<height>1080</height>
																			<anamorphic>FALSE</anamorphic>
																			<pixelaspectratio>square</pixelaspectratio>
																			<fielddominance>none</fielddominance>
																		</samplecharacteristics>
																	</video>
																</media>
															</file>
															<logginginfo>
																<description></description>
																<scene></scene>
																<shottake></shottake>
																<lognote></lognote>
																<good></good>
																<originalvideofilename></originalvideofilename>
																<originalaudiofilename></originalaudiofilename>
															</logginginfo>
															<colorinfo>
																<lut></lut>
																<lut1></lut1>
																<asc_sop></asc_sop>
																<asc_sat></asc_sat>
																<lut2></lut2>
															</colorinfo>
															<labels>
																<label2>Violet</label2>
															</labels>
														</clipitem>
														<clipitem id="clipitem-476">
															<masterclipid>masterclip-271</masterclipid>
															<name>descending-over-great-wall-of-china-001-SBV-311902857-HD.mp4</name>
															<enabled>TRUE</enabled>
															<duration>228</duration>
															<rate>
																<timebase>30</timebase>
																<ntsc>TRUE</ntsc>
															</rate>
															<start>146</start>
															<end>292</end>
															<in>0</in>
															<out>146</out>
															<pproTicksIn>0</pproTicksIn>
															<pproTicksOut>1237447411200</pproTicksOut>
															<alphatype>none</alphatype>
															<pixelaspectratio>square</pixelaspectratio>
															<anamorphic>FALSE</anamorphic>
															<file id="file-246">
																<name>descending-over-great-wall-of-china-001-SBV-311902857-HD.mp4</name>
																<pathurl>file://localhost/Volumes/T7/DRONE_08.18.2023/3_Raw%20Files/Great%20Wall%20of%20China/descending-over-great-wall-of-china-001-SBV-311902857-HD.mp4</pathurl>
																<rate>
																	<timebase>23</timebase>
																	<ntsc>FALSE</ntsc>
																</rate>
																<duration>183</duration>
																<timecode>
																	<rate>
																		<timebase>23</timebase>
																		<ntsc>FALSE</ntsc>
																	</rate>
																	<string>00:00:00:00</string>
																	<frame>0</frame>
																	<displayformat>NDF</displayformat>
																</timecode>
																<media>
																	<video>
																		<samplecharacteristics>
																			<rate>
																				<timebase>23</timebase>
																				<ntsc>FALSE</ntsc>
																			</rate>
																			<width>1920</width>
																			<height>1080</height>
																			<anamorphic>FALSE</anamorphic>
																			<pixelaspectratio>square</pixelaspectratio>
																			<fielddominance>none</fielddominance>
																		</samplecharacteristics>
																	</video>
																</media>
															</file>
															<logginginfo>
																<description></description>
																<scene></scene>
																<shottake></shottake>
																<lognote></lognote>
																<good></good>
																<originalvideofilename></originalvideofilename>
																<originalaudiofilename></originalaudiofilename>
															</logginginfo>
															<colorinfo>
																<lut></lut>
																<lut1></lut1>
																<asc_sop></asc_sop>
																<asc_sat></asc_sat>
																<lut2></lut2>
															</colorinfo>
															<labels>
																<label2>Violet</label2>
															</labels>
														</clipitem>
														<clipitem id="clipitem-477">
															<masterclipid>masterclip-272</masterclipid>
															<name>flying-over-large-tower-on-great-wall-of-china-001-SBV-311947403-HD.mp4</name>
															<enabled>TRUE</enabled>
															<duration>324</duration>
															<rate>
																<timebase>30</timebase>
																<ntsc>TRUE</ntsc>
															</rate>
															<start>292</start>
															<end>511</end>
															<in>0</in>
															<out>219</out>
															<pproTicksIn>0</pproTicksIn>
															<pproTicksOut>1856171116800</pproTicksOut>
															<alphatype>none</alphatype>
															<pixelaspectratio>square</pixelaspectratio>
															<anamorphic>FALSE</anamorphic>
															<file id="file-247">
																<name>flying-over-large-tower-on-great-wall-of-china-001-SBV-311947403-HD.mp4</name>
																<pathurl>file://localhost/Volumes/T7/DRONE_08.18.2023/3_Raw%20Files/Great%20Wall%20of%20China/flying-over-large-tower-on-great-wall-of-china-001-SBV-311947403-HD.mp4</pathurl>
																<rate>
																	<timebase>23</timebase>
																	<ntsc>FALSE</ntsc>
																</rate>
																<duration>260</duration>
																<timecode>
																	<rate>
																		<timebase>23</timebase>
																		<ntsc>FALSE</ntsc>
																	</rate>
																	<string>00:00:00:00</string>
																	<frame>0</frame>
																	<displayformat>NDF</displayformat>
																</timecode>
																<media>
																	<video>
																		<samplecharacteristics>
																			<rate>
																				<timebase>23</timebase>
																				<ntsc>FALSE</ntsc>
																			</rate>
																			<width>1920</width>
																			<height>1080</height>
																			<anamorphic>FALSE</anamorphic>
																			<pixelaspectratio>square</pixelaspectratio>
																			<fielddominance>none</fielddominance>
																		</samplecharacteristics>
																	</video>
																</media>
															</file>
															<logginginfo>
																<description></description>
																<scene></scene>
																<shottake></shottake>
																<lognote></lognote>
																<good></good>
																<originalvideofilename></originalvideofilename>
																<originalaudiofilename></originalaudiofilename>
															</logginginfo>
															<colorinfo>
																<lut></lut>
																<lut1></lut1>
																<asc_sop></asc_sop>
																<asc_sat></asc_sat>
																<lut2></lut2>
															</colorinfo>
															<labels>
																<label2>Violet</label2>
															</labels>
														</clipitem>
														<clipitem id="clipitem-478">
															<masterclipid>masterclip-273</masterclipid>
															<name>great-wall-of-china-and-green-mountains-aerial-view-drone-flies-forward-reveal-shot-SBV-347366074-HD.mp4</name>
															<enabled>TRUE</enabled>
															<duration>526</duration>
															<rate>
																<timebase>30</timebase>
																<ntsc>TRUE</ntsc>
															</rate>
															<start>511</start>
															<end>1026</end>
															<in>0</in>
															<out>515</out>
															<pproTicksIn>0</pproTicksIn>
															<pproTicksOut>4364968608000</pproTicksOut>
															<alphatype>none</alphatype>
															<pixelaspectratio>square</pixelaspectratio>
															<anamorphic>FALSE</anamorphic>
															<file id="file-248">
																<name>great-wall-of-china-and-green-mountains-aerial-view-drone-flies-forward-reveal-shot-SBV-347366074-HD.mp4</name>
																<pathurl>file://localhost/Volumes/T7/DRONE_08.18.2023/3_Raw%20Files/Great%20Wall%20of%20China/great-wall-of-china-and-green-mountains-aerial-view-drone-flies-forward-reveal-shot-SBV-347366074-HD.mp4</pathurl>
																<rate>
																	<timebase>29</timebase>
																	<ntsc>FALSE</ntsc>
																</rate>
																<duration>526</duration>
																<timecode>
																	<rate>
																		<timebase>29</timebase>
																		<ntsc>FALSE</ntsc>
																	</rate>
																	<string>00:00:00:00</string>
																	<frame>0</frame>
																	<displayformat>NDF</displayformat>
																</timecode>
																<media>
																	<video>
																		<samplecharacteristics>
																			<rate>
																				<timebase>29</timebase>
																				<ntsc>FALSE</ntsc>
																			</rate>
																			<width>1920</width>
																			<height>1080</height>
																			<anamorphic>FALSE</anamorphic>
																			<pixelaspectratio>square</pixelaspectratio>
																			<fielddominance>none</fielddominance>
																		</samplecharacteristics>
																	</video>
																</media>
															</file>
															<logginginfo>
																<description></description>
																<scene></scene>
																<shottake></shottake>
																<lognote></lognote>
																<good></good>
																<originalvideofilename></originalvideofilename>
																<originalaudiofilename></originalaudiofilename>
															</logginginfo>
															<colorinfo>
																<lut></lut>
																<lut1></lut1>
																<asc_sop></asc_sop>
																<asc_sat></asc_sat>
																<lut2></lut2>
															</colorinfo>
															<labels>
																<label2>Violet</label2>
															</labels>
														</clipitem>
														<clipitem id="clipitem-479">
															<masterclipid>masterclip-274</masterclipid>
															<name>flying-over-large-tower-on-great-wall-of-china-002-SBV-311947474-HD.mp4</name>
															<enabled>TRUE</enabled>
															<duration>257</duration>
															<rate>
																<timebase>30</timebase>
																<ntsc>TRUE</ntsc>
															</rate>
															<start>1026</start>
															<end>1171</end>
															<in>0</in>
															<out>145</out>
															<pproTicksIn>0</pproTicksIn>
															<pproTicksOut>1228971744000</pproTicksOut>
															<alphatype>none</alphatype>
															<pixelaspectratio>square</pixelaspectratio>
															<anamorphic>FALSE</anamorphic>
															<file id="file-249">
																<name>flying-over-large-tower-on-great-wall-of-china-002-SBV-311947474-HD.mp4</name>
																<pathurl>file://localhost/Volumes/T7/DRONE_08.18.2023/3_Raw%20Files/Great%20Wall%20of%20China/flying-over-large-tower-on-great-wall-of-china-002-SBV-311947474-HD.mp4</pathurl>
																<rate>
																	<timebase>23</timebase>
																	<ntsc>FALSE</ntsc>
																</rate>
																<duration>206</duration>
																<timecode>
																	<rate>
																		<timebase>23</timebase>
																		<ntsc>FALSE</ntsc>
																	</rate>
																	<string>00:00:00:00</string>
																	<frame>0</frame>
																	<displayformat>NDF</displayformat>
																</timecode>
																<media>
																	<video>
																		<samplecharacteristics>
																			<rate>
																				<timebase>23</timebase>
																				<ntsc>FALSE</ntsc>
																			</rate>
																			<width>1920</width>
																			<height>1080</height>
																			<anamorphic>FALSE</anamorphic>
																			<pixelaspectratio>square</pixelaspectratio>
																			<fielddominance>none</fielddominance>
																		</samplecharacteristics>
																	</video>
																</media>
															</file>
															<logginginfo>
																<description></description>
																<scene></scene>
																<shottake></shottake>
																<lognote></lognote>
																<good></good>
																<originalvideofilename></originalvideofilename>
																<originalaudiofilename></originalaudiofilename>
															</logginginfo>
															<colorinfo>
																<lut></lut>
																<lut1></lut1>
																<asc_sop></asc_sop>
																<asc_sat></asc_sat>
																<lut2></lut2>
															</colorinfo>
															<labels>
																<label2>Violet</label2>
															</labels>
														</clipitem>
														<clipitem id="clipitem-480">
															<masterclipid>masterclip-275</masterclipid>
															<name>tower-of-great-wall-of-china-and-green-mountains-at-sunset-badaling-aerial-view-dro-SBV-347366067-HD.mp4</name>
															<enabled>TRUE</enabled>
															<duration>511</duration>
															<rate>
																<timebase>30</timebase>
																<ntsc>TRUE</ntsc>
															</rate>
															<start>1171</start>
															<end>1616</end>
															<in>0</in>
															<out>445</out>
															<pproTicksIn>0</pproTicksIn>
															<pproTicksOut>3771671904000</pproTicksOut>
															<alphatype>none</alphatype>
															<pixelaspectratio>square</pixelaspectratio>
															<anamorphic>FALSE</anamorphic>
															<file id="file-250">
																<name>tower-of-great-wall-of-china-and-green-mountains-at-sunset-badaling-aerial-view-dro-SBV-347366067-HD.mp4</name>
																<pathurl>file://localhost/Volumes/T7/DRONE_08.18.2023/3_Raw%20Files/Great%20Wall%20of%20China/tower-of-great-wall-of-china-and-green-mountains-at-sunset-badaling-aerial-view-dro-SBV-347366067-HD.mp4</pathurl>
																<rate>
																	<timebase>29</timebase>
																	<ntsc>FALSE</ntsc>
																</rate>
																<duration>511</duration>
																<timecode>
																	<rate>
																		<timebase>29</timebase>
																		<ntsc>FALSE</ntsc>
																	</rate>
																	<string>00:00:00:00</string>
																	<frame>0</frame>
																	<displayformat>NDF</displayformat>
																</timecode>
																<media>
																	<video>
																		<samplecharacteristics>
																			<rate>
																				<timebase>29</timebase>
																				<ntsc>FALSE</ntsc>
																			</rate>
																			<width>1920</width>
																			<height>1080</height>
																			<anamorphic>FALSE</anamorphic>
																			<pixelaspectratio>square</pixelaspectratio>
																			<fielddominance>none</fielddominance>
																		</samplecharacteristics>
																	</video>
																</media>
															</file>
															<logginginfo>
																<description></description>
																<scene></scene>
																<shottake></shottake>
																<lognote></lognote>
																<good></good>
																<originalvideofilename></originalvideofilename>
																<originalaudiofilename></originalaudiofilename>
															</logginginfo>
															<colorinfo>
																<lut></lut>
																<lut1></lut1>
																<asc_sop></asc_sop>
																<asc_sat></asc_sat>
																<lut2></lut2>
															</colorinfo>
															<labels>
																<label2>Violet</label2>
															</labels>
														</clipitem>
														<clipitem id="clipitem-481">
															<masterclipid>masterclip-276</masterclipid>
															<name>great-wall-of-china-and-green-mountains-in-summer-sunset-aerial-view-drone-is-orbit-SBV-347366071-HD.mp4</name>
															<enabled>TRUE</enabled>
															<duration>481</duration>
															<rate>
																<timebase>30</timebase>
																<ntsc>TRUE</ntsc>
															</rate>
															<start>1616</start>
															<end>2052</end>
															<in>0</in>
															<out>436</out>
															<pproTicksIn>0</pproTicksIn>
															<pproTicksOut>3695390899200</pproTicksOut>
															<alphatype>none</alphatype>
															<pixelaspectratio>square</pixelaspectratio>
															<anamorphic>FALSE</anamorphic>
															<file id="file-251">
																<name>great-wall-of-china-and-green-mountains-in-summer-sunset-aerial-view-drone-is-orbit-SBV-347366071-HD.mp4</name>
																<pathurl>file://localhost/Volumes/T7/DRONE_08.18.2023/3_Raw%20Files/Great%20Wall%20of%20China/great-wall-of-china-and-green-mountains-in-summer-sunset-aerial-view-drone-is-orbit-SBV-347366071-HD.mp4</pathurl>
																<rate>
																	<timebase>29</timebase>
																	<ntsc>FALSE</ntsc>
																</rate>
																<duration>481</duration>
																<timecode>
																	<rate>
																		<timebase>29</timebase>
																		<ntsc>FALSE</ntsc>
																	</rate>
																	<string>00:00:00:00</string>
																	<frame>0</frame>
																	<displayformat>NDF</displayformat>
																</timecode>
																<media>
																	<video>
																		<samplecharacteristics>
																			<rate>
																				<timebase>29</timebase>
																				<ntsc>FALSE</ntsc>
																			</rate>
																			<width>1920</width>
																			<height>1080</height>
																			<anamorphic>FALSE</anamorphic>
																			<pixelaspectratio>square</pixelaspectratio>
																			<fielddominance>none</fielddominance>
																		</samplecharacteristics>
																	</video>
																</media>
															</file>
															<logginginfo>
																<description></description>
																<scene></scene>
																<shottake></shottake>
																<lognote></lognote>
																<good></good>
																<originalvideofilename></originalvideofilename>
																<originalaudiofilename></originalaudiofilename>
															</logginginfo>
															<colorinfo>
																<lut></lut>
																<lut1></lut1>
																<asc_sop></asc_sop>
																<asc_sat></asc_sat>
																<lut2></lut2>
															</colorinfo>
															<labels>
																<label2>Violet</label2>
															</labels>
														</clipitem>
														<clipitem id="clipitem-482">
															<masterclipid>masterclip-277</masterclipid>
															<name>birds-eye-view-over-great-wall-of-china-002-SBV-311899868-HD.mp4</name>
															<enabled>TRUE</enabled>
															<duration>691</duration>
															<rate>
																<timebase>30</timebase>
																<ntsc>TRUE</ntsc>
															</rate>
															<start>2052</start>
															<end>2349</end>
															<in>0</in>
															<out>297</out>
															<pproTicksIn>0</pproTicksIn>
															<pproTicksOut>2517273158400</pproTicksOut>
															<alphatype>none</alphatype>
															<pixelaspectratio>square</pixelaspectratio>
															<anamorphic>FALSE</anamorphic>
															<file id="file-252">
																<name>birds-eye-view-over-great-wall-of-china-002-SBV-311899868-HD.mp4</name>
																<pathurl>file://localhost/Volumes/T7/DRONE_08.18.2023/3_Raw%20Files/Great%20Wall%20of%20China/birds-eye-view-over-great-wall-of-china-002-SBV-311899868-HD.mp4</pathurl>
																<rate>
																	<timebase>23</timebase>
																	<ntsc>FALSE</ntsc>
																</rate>
																<duration>553</duration>
																<timecode>
																	<rate>
																		<timebase>23</timebase>
																		<ntsc>FALSE</ntsc>
																	</rate>
																	<string>00:00:00:00</string>
																	<frame>0</frame>
																	<displayformat>NDF</displayformat>
																</timecode>
																<media>
																	<video>
																		<samplecharacteristics>
																			<rate>
																				<timebase>23</timebase>
																				<ntsc>FALSE</ntsc>
																			</rate>
																			<width>1920</width>
																			<height>1080</height>
																			<anamorphic>FALSE</anamorphic>
																			<pixelaspectratio>square</pixelaspectratio>
																			<fielddominance>none</fielddominance>
																		</samplecharacteristics>
																	</video>
																</media>
															</file>
															<logginginfo>
																<description></description>
																<scene></scene>
																<shottake></shottake>
																<lognote></lognote>
																<good></good>
																<originalvideofilename></originalvideofilename>
																<originalaudiofilename></originalaudiofilename>
															</logginginfo>
															<colorinfo>
																<lut></lut>
																<lut1></lut1>
																<asc_sop></asc_sop>
																<asc_sat></asc_sat>
																<lut2></lut2>
															</colorinfo>
															<labels>
																<label2>Violet</label2>
															</labels>
														</clipitem>
														<clipitem id="clipitem-483">
															<masterclipid>masterclip-278</masterclipid>
															<name>great-wall-of-china-at-sunset-in-spring-badaling-aerial-view-drone-flies-forward-me-SBV-347366072-HD.mp4</name>
															<enabled>TRUE</enabled>
															<duration>391</duration>
															<rate>
																<timebase>30</timebase>
																<ntsc>TRUE</ntsc>
															</rate>
															<start>2349</start>
															<end>2713</end>
															<in>0</in>
															<out>364</out>
															<pproTicksIn>0</pproTicksIn>
															<pproTicksOut>3085142860800</pproTicksOut>
															<alphatype>none</alphatype>
															<pixelaspectratio>square</pixelaspectratio>
															<anamorphic>FALSE</anamorphic>
															<file id="file-253">
																<name>great-wall-of-china-at-sunset-in-spring-badaling-aerial-view-drone-flies-forward-me-SBV-347366072-HD.mp4</name>
																<pathurl>file://localhost/Volumes/T7/DRONE_08.18.2023/3_Raw%20Files/Great%20Wall%20of%20China/great-wall-of-china-at-sunset-in-spring-badaling-aerial-view-drone-flies-forward-me-SBV-347366072-HD.mp4</pathurl>
																<rate>
																	<timebase>29</timebase>
																	<ntsc>FALSE</ntsc>
																</rate>
																<duration>391</duration>
																<timecode>
																	<rate>
																		<timebase>29</timebase>
																		<ntsc>FALSE</ntsc>
																	</rate>
																	<string>00:00:00:00</string>
																	<frame>0</frame>
																	<displayformat>NDF</displayformat>
																</timecode>
																<media>
																	<video>
																		<samplecharacteristics>
																			<rate>
																				<timebase>29</timebase>
																				<ntsc>FALSE</ntsc>
																			</rate>
																			<width>1920</width>
																			<height>1080</height>
																			<anamorphic>FALSE</anamorphic>
																			<pixelaspectratio>square</pixelaspectratio>
																			<fielddominance>none</fielddominance>
																		</samplecharacteristics>
																	</video>
																</media>
															</file>
															<logginginfo>
																<description></description>
																<scene></scene>
																<shottake></shottake>
																<lognote></lognote>
																<good></good>
																<originalvideofilename></originalvideofilename>
																<originalaudiofilename></originalaudiofilename>
															</logginginfo>
															<colorinfo>
																<lut></lut>
																<lut1></lut1>
																<asc_sop></asc_sop>
																<asc_sat></asc_sat>
																<lut2></lut2>
															</colorinfo>
															<labels>
																<label2>Violet</label2>
															</labels>
														</clipitem>
														<clipitem id="clipitem-484">
															<masterclipid>masterclip-279</masterclipid>
															<name>birds-eye-view-over-great-wall-of-china-001-SBV-311899756-HD.mp4</name>
															<enabled>TRUE</enabled>
															<duration>667</duration>
															<rate>
																<timebase>30</timebase>
																<ntsc>TRUE</ntsc>
															</rate>
															<start>2713</start>
															<end>3229</end>
															<in>0</in>
															<out>516</out>
															<pproTicksIn>0</pproTicksIn>
															<pproTicksOut>4373444275200</pproTicksOut>
															<alphatype>none</alphatype>
															<pixelaspectratio>square</pixelaspectratio>
															<anamorphic>FALSE</anamorphic>
															<file id="file-254">
																<name>birds-eye-view-over-great-wall-of-china-001-SBV-311899756-HD.mp4</name>
																<pathurl>file://localhost/Volumes/T7/DRONE_08.18.2023/3_Raw%20Files/Great%20Wall%20of%20China/birds-eye-view-over-great-wall-of-china-001-SBV-311899756-HD.mp4</pathurl>
																<rate>
																	<timebase>23</timebase>
																	<ntsc>FALSE</ntsc>
																</rate>
																<duration>534</duration>
																<timecode>
																	<rate>
																		<timebase>23</timebase>
																		<ntsc>FALSE</ntsc>
																	</rate>
																	<string>00:00:00:00</string>
																	<frame>0</frame>
																	<displayformat>NDF</displayformat>
																</timecode>
																<media>
																	<video>
																		<samplecharacteristics>
																			<rate>
																				<timebase>23</timebase>
																				<ntsc>FALSE</ntsc>
																			</rate>
																			<width>1920</width>
																			<height>1080</height>
																			<anamorphic>FALSE</anamorphic>
																			<pixelaspectratio>square</pixelaspectratio>
																			<fielddominance>none</fielddominance>
																		</samplecharacteristics>
																	</video>
																</media>
															</file>
															<logginginfo>
																<description></description>
																<scene></scene>
																<shottake></shottake>
																<lognote></lognote>
																<good></good>
																<originalvideofilename></originalvideofilename>
																<originalaudiofilename></originalaudiofilename>
															</logginginfo>
															<colorinfo>
																<lut></lut>
																<lut1></lut1>
																<asc_sop></asc_sop>
																<asc_sat></asc_sat>
																<lut2></lut2>
															</colorinfo>
															<labels>
																<label2>Violet</label2>
															</labels>
														</clipitem>
														<clipitem id="clipitem-485">
															<masterclipid>masterclip-280</masterclipid>
															<name>long-epic-flight-up-mountain-ridge-of-the-great-wall-of-china-SBV-326183861-HD.mp4</name>
															<enabled>TRUE</enabled>
															<duration>801</duration>
															<rate>
																<timebase>30</timebase>
																<ntsc>TRUE</ntsc>
															</rate>
															<start>3229</start>
															<end>3520</end>
															<in>0</in>
															<out>291</out>
															<pproTicksIn>0</pproTicksIn>
															<pproTicksOut>2466419155200</pproTicksOut>
															<alphatype>none</alphatype>
															<pixelaspectratio>square</pixelaspectratio>
															<anamorphic>FALSE</anamorphic>
															<file id="file-255">
																<name>long-epic-flight-up-mountain-ridge-of-the-great-wall-of-china-SBV-326183861-HD.mp4</name>
																<pathurl>file://localhost/Volumes/T7/DRONE_08.18.2023/3_Raw%20Files/Great%20Wall%20of%20China/long-epic-flight-up-mountain-ridge-of-the-great-wall-of-china-SBV-326183861-HD.mp4</pathurl>
																<rate>
																	<timebase>29</timebase>
																	<ntsc>FALSE</ntsc>
																</rate>
																<duration>801</duration>
																<timecode>
																	<rate>
																		<timebase>29</timebase>
																		<ntsc>FALSE</ntsc>
																	</rate>
																	<string>00:00:00:00</string>
																	<frame>0</frame>
																	<displayformat>NDF</displayformat>
																</timecode>
																<media>
																	<video>
																		<samplecharacteristics>
																			<rate>
																				<timebase>29</timebase>
																				<ntsc>FALSE</ntsc>
																			</rate>
																			<width>1920</width>
																			<height>1080</height>
																			<anamorphic>FALSE</anamorphic>
																			<pixelaspectratio>square</pixelaspectratio>
																			<fielddominance>none</fielddominance>
																		</samplecharacteristics>
																	</video>
																</media>
															</file>
															<logginginfo>
																<description></description>
																<scene></scene>
																<shottake></shottake>
																<lognote></lognote>
																<good></good>
																<originalvideofilename></originalvideofilename>
																<originalaudiofilename></originalaudiofilename>
															</logginginfo>
															<colorinfo>
																<lut></lut>
																<lut1></lut1>
																<asc_sop></asc_sop>
																<asc_sat></asc_sat>
																<lut2></lut2>
															</colorinfo>
															<labels>
																<label2>Violet</label2>
															</labels>
														</clipitem>
														<clipitem id="clipitem-486">
															<masterclipid>masterclip-281</masterclipid>
															<name>approaching-tower-on-great-wall-of-china-in-fog-SBV-326182816-HD.mp4</name>
															<enabled>TRUE</enabled>
															<duration>767</duration>
															<rate>
																<timebase>30</timebase>
																<ntsc>TRUE</ntsc>
															</rate>
															<start>3520</start>
															<end>4107</end>
															<in>0</in>
															<out>587</out>
															<pproTicksIn>0</pproTicksIn>
															<pproTicksOut>4975216646400</pproTicksOut>
															<alphatype>none</alphatype>
															<pixelaspectratio>square</pixelaspectratio>
															<anamorphic>FALSE</anamorphic>
															<file id="file-256">
																<name>approaching-tower-on-great-wall-of-china-in-fog-SBV-326182816-HD.mp4</name>
																<pathurl>file://localhost/Volumes/T7/DRONE_08.18.2023/3_Raw%20Files/Great%20Wall%20of%20China/approaching-tower-on-great-wall-of-china-in-fog-SBV-326182816-HD.mp4</pathurl>
																<rate>
																	<timebase>29</timebase>
																	<ntsc>FALSE</ntsc>
																</rate>
																<duration>767</duration>
																<timecode>
																	<rate>
																		<timebase>29</timebase>
																		<ntsc>FALSE</ntsc>
																	</rate>
																	<string>00:00:00:00</string>
																	<frame>0</frame>
																	<displayformat>NDF</displayformat>
																</timecode>
																<media>
																	<video>
																		<samplecharacteristics>
																			<rate>
																				<timebase>29</timebase>
																				<ntsc>FALSE</ntsc>
																			</rate>
																			<width>1920</width>
																			<height>1080</height>
																			<anamorphic>FALSE</anamorphic>
																			<pixelaspectratio>square</pixelaspectratio>
																			<fielddominance>none</fielddominance>
																		</samplecharacteristics>
																	</video>
																</media>
															</file>
															<logginginfo>
																<description></description>
																<scene></scene>
																<shottake></shottake>
																<lognote></lognote>
																<good></good>
																<originalvideofilename></originalvideofilename>
																<originalaudiofilename></originalaudiofilename>
															</logginginfo>
															<colorinfo>
																<lut></lut>
																<lut1></lut1>
																<asc_sop></asc_sop>
																<asc_sat></asc_sat>
																<lut2></lut2>
															</colorinfo>
															<labels>
																<label2>Violet</label2>
															</labels>
														</clipitem>
														<clipitem id="clipitem-487">
															<masterclipid>masterclip-282</masterclipid>
															<name>extremely-crowded-great-wall-of-china-at-peak-season-many-people-during-high-season-SBV-334024999-HD.mp4</name>
															<enabled>TRUE</enabled>
															<duration>898</duration>
															<rate>
																<timebase>30</timebase>
																<ntsc>TRUE</ntsc>
															</rate>
															<start>4107</start>
															<end>4695</end>
															<in>0</in>
															<out>588</out>
															<pproTicksIn>0</pproTicksIn>
															<pproTicksOut>4983692313600</pproTicksOut>
															<alphatype>none</alphatype>
															<pixelaspectratio>square</pixelaspectratio>
															<anamorphic>FALSE</anamorphic>
															<file id="file-257">
																<name>extremely-crowded-great-wall-of-china-at-peak-season-many-people-during-high-season-SBV-334024999-HD.mp4</name>
																<pathurl>file://localhost/Volumes/T7/DRONE_08.18.2023/3_Raw%20Files/Great%20Wall%20of%20China/extremely-crowded-great-wall-of-china-at-peak-season-many-people-during-high-season-SBV-334024999-HD.mp4</pathurl>
																<rate>
																	<timebase>23</timebase>
																	<ntsc>FALSE</ntsc>
																</rate>
																<duration>719</duration>
																<timecode>
																	<rate>
																		<timebase>23</timebase>
																		<ntsc>FALSE</ntsc>
																	</rate>
																	<string>00:00:00:00</string>
																	<frame>0</frame>
																	<displayformat>NDF</displayformat>
																</timecode>
																<media>
																	<video>
																		<samplecharacteristics>
																			<rate>
																				<timebase>23</timebase>
																				<ntsc>FALSE</ntsc>
																			</rate>
																			<width>1920</width>
																			<height>1080</height>
																			<anamorphic>FALSE</anamorphic>
																			<pixelaspectratio>square</pixelaspectratio>
																			<fielddominance>none</fielddominance>
																		</samplecharacteristics>
																	</video>
																</media>
															</file>
															<logginginfo>
																<description></description>
																<scene></scene>
																<shottake></shottake>
																<lognote></lognote>
																<good></good>
																<originalvideofilename></originalvideofilename>
																<originalaudiofilename></originalaudiofilename>
															</logginginfo>
															<colorinfo>
																<lut></lut>
																<lut1></lut1>
																<asc_sop></asc_sop>
																<asc_sat></asc_sat>
																<lut2></lut2>
															</colorinfo>
															<labels>
																<label2>Violet</label2>
															</labels>
														</clipitem>
														<clipitem id="clipitem-488">
															<masterclipid>masterclip-280</masterclipid>
															<name>long-epic-flight-up-mountain-ridge-of-the-great-wall-of-china-SBV-326183861-HD.mp4</name>
															<enabled>TRUE</enabled>
															<duration>801</duration>
															<rate>
																<timebase>30</timebase>
																<ntsc>TRUE</ntsc>
															</rate>
															<start>4695</start>
															<end>4841</end>
															<in>604</in>
															<out>750</out>
															<pproTicksIn>5119302988800</pproTicksIn>
															<pproTicksOut>6356750400000</pproTicksOut>
															<alphatype>none</alphatype>
															<file id="file-255"/>
															<logginginfo>
																<description></description>
																<scene></scene>
																<shottake></shottake>
																<lognote></lognote>
																<good></good>
																<originalvideofilename></originalvideofilename>
																<originalaudiofilename></originalaudiofilename>
															</logginginfo>
															<colorinfo>
																<lut></lut>
																<lut1></lut1>
																<asc_sop></asc_sop>
																<asc_sat></asc_sat>
																<lut2></lut2>
															</colorinfo>
															<labels>
																<label2>Violet</label2>
															</labels>
														</clipitem>
														<clipitem id="clipitem-489">
															<masterclipid>masterclip-283</masterclipid>
															<name>great-wall-of-china-aerial-drone-shot-drone-flies-backwards-and-upwards-SBV-347366055-HD.mp4</name>
															<enabled>TRUE</enabled>
															<duration>480</duration>
															<rate>
																<timebase>30</timebase>
																<ntsc>TRUE</ntsc>
															</rate>
															<start>4841</start>
															<end>5288</end>
															<in>0</in>
															<out>447</out>
															<pproTicksIn>0</pproTicksIn>
															<pproTicksOut>3788623238400</pproTicksOut>
															<alphatype>none</alphatype>
															<pixelaspectratio>square</pixelaspectratio>
															<anamorphic>FALSE</anamorphic>
															<file id="file-258">
																<name>great-wall-of-china-aerial-drone-shot-drone-flies-backwards-and-upwards-SBV-347366055-HD.mp4</name>
																<pathurl>file://localhost/Volumes/T7/DRONE_08.18.2023/3_Raw%20Files/Great%20Wall%20of%20China/great-wall-of-china-aerial-drone-shot-drone-flies-backwards-and-upwards-SBV-347366055-HD.mp4</pathurl>
																<rate>
																	<timebase>29</timebase>
																	<ntsc>FALSE</ntsc>
																</rate>
																<duration>480</duration>
																<timecode>
																	<rate>
																		<timebase>29</timebase>
																		<ntsc>FALSE</ntsc>
																	</rate>
																	<string>00:00:00:00</string>
																	<frame>0</frame>
																	<displayformat>NDF</displayformat>
																</timecode>
																<media>
																	<video>
																		<samplecharacteristics>
																			<rate>
																				<timebase>29</timebase>
																				<ntsc>FALSE</ntsc>
																			</rate>
																			<width>1920</width>
																			<height>1080</height>
																			<anamorphic>FALSE</anamorphic>
																			<pixelaspectratio>square</pixelaspectratio>
																			<fielddominance>none</fielddominance>
																		</samplecharacteristics>
																	</video>
																</media>
															</file>
															<logginginfo>
																<description></description>
																<scene></scene>
																<shottake></shottake>
																<lognote></lognote>
																<good></good>
																<originalvideofilename></originalvideofilename>
																<originalaudiofilename></originalaudiofilename>
															</logginginfo>
															<colorinfo>
																<lut></lut>
																<lut1></lut1>
																<asc_sop></asc_sop>
																<asc_sat></asc_sat>
																<lut2></lut2>
															</colorinfo>
															<labels>
																<label2>Violet</label2>
															</labels>
														</clipitem>
														<enabled>TRUE</enabled>
														<locked>FALSE</locked>
													</track>
													<track TL.SQTrackShy="0" TL.SQTrackExpandedHeight="25" TL.SQTrackExpanded="0" MZ.TrackTargeted="0">
														<enabled>TRUE</enabled>
														<locked>FALSE</locked>
													</track>
													<track TL.SQTrackShy="0" TL.SQTrackExpandedHeight="25" TL.SQTrackExpanded="0" MZ.TrackTargeted="0">
														<enabled>TRUE</enabled>
														<locked>FALSE</locked>
													</track>
												</video>
												<audio>
													<numOutputChannels>2</numOutputChannels>
													<format>
														<samplecharacteristics>
															<depth>16</depth>
															<samplerate>48000</samplerate>
														</samplecharacteristics>
													</format>
													<outputs>
														<group>
															<index>1</index>
															<numchannels>1</numchannels>
															<downmix>0</downmix>
															<channel>
																<index>1</index>
															</channel>
														</group>
														<group>
															<index>2</index>
															<numchannels>1</numchannels>
															<downmix>0</downmix>
															<channel>
																<index>2</index>
															</channel>
														</group>
													</outputs>
													<track TL.SQTrackAudioKeyframeStyle="0" TL.SQTrackShy="0" TL.SQTrackExpandedHeight="25" TL.SQTrackExpanded="0" MZ.TrackTargeted="1" PannerCurrentValue="0.5" PannerIsInverted="true" PannerStartKeyframe="-91445760000000000,0.5,0,0,0,0,0,0" PannerName="Balance" currentExplodedTrackIndex="0" totalExplodedTrackCount="2" premiereTrackType="Stereo">
														<transitionitem>
															<start>0</start>
															<end>7</end>
															<pproTicksIn>0</pproTicksIn>
															<pproTicksOut>59329670400</pproTicksOut>
															<alignment>start-black</alignment>
															<cutPointTicks>0</cutPointTicks>
															<rate>
																<timebase>30</timebase>
																<ntsc>TRUE</ntsc>
															</rate>
															<effect>
																<name>Cross Fade ( 0dB)</name>
																<effectid>KGAudioTransCrossFade0dB</effectid>
																<effecttype>transition</effecttype>
																<mediatype>audio</mediatype>
																<wipecode>0</wipecode>
																<wipeaccuracy>100</wipeaccuracy>
																<startratio>0</startratio>
																<endratio>1</endratio>
																<reverse>FALSE</reverse>
															</effect>
														</transitionitem>
														<clipitem id="clipitem-490" premiereChannelType="stereo">
															<masterclipid>masterclip-284</masterclipid>
															<name>ES_Succulent Chinese Meal - Jones Meadow.mp3</name>
															<enabled>TRUE</enabled>
															<duration>6569</duration>
															<rate>
																<timebase>30</timebase>
																<ntsc>TRUE</ntsc>
															</rate>
															<start>-1</start>
															<end>-1</end>
															<in>0</in>
															<out>5288</out>
															<pproTicksIn>0</pproTicksIn>
															<pproTicksOut>44819328153600</pproTicksOut>
															<file id="file-259">
																<name>ES_Succulent Chinese Meal - Jones Meadow.mp3</name>
																<pathurl>file://localhost/Volumes/T7/DRONE_08.18.2023/5_Music/ES_Succulent%20Chinese%20Meal%20-%20Jones%20Meadow.mp3</pathurl>
																<rate>
																	<timebase>30</timebase>
																	<ntsc>TRUE</ntsc>
																</rate>
																<duration>6569</duration>
																<timecode>
																	<rate>
																		<timebase>30</timebase>
																		<ntsc>TRUE</ntsc>
																	</rate>
																	<string>00;00;00;00</string>
																	<frame>0</frame>
																	<displayformat>DF</displayformat>
																</timecode>
																<media>
																	<audio>
																		<samplecharacteristics>
																			<depth>16</depth>
																			<samplerate>48000</samplerate>
																		</samplecharacteristics>
																		<channelcount>2</channelcount>
																	</audio>
																</media>
															</file>
															<sourcetrack>
																<mediatype>audio</mediatype>
																<trackindex>1</trackindex>
															</sourcetrack>
															<link>
																<linkclipref>clipitem-490</linkclipref>
																<mediatype>audio</mediatype>
																<trackindex>1</trackindex>
																<clipindex>2</clipindex>
																<groupindex>1</groupindex>
															</link>
															<link>
																<linkclipref>clipitem-491</linkclipref>
																<mediatype>audio</mediatype>
																<trackindex>2</trackindex>
																<clipindex>2</clipindex>
																<groupindex>1</groupindex>
															</link>
															<logginginfo>
																<description></description>
																<scene></scene>
																<shottake></shottake>
																<lognote></lognote>
																<good></good>
																<originalvideofilename></originalvideofilename>
																<originalaudiofilename></originalaudiofilename>
															</logginginfo>
															<colorinfo>
																<lut></lut>
																<lut1></lut1>
																<asc_sop></asc_sop>
																<asc_sat></asc_sat>
																<lut2></lut2>
															</colorinfo>
															<labels>
																<label2>Caribbean</label2>
															</labels>
														</clipitem>
														<transitionitem>
															<start>5249</start>
															<end>5288</end>
															<pproTicksIn>44488777132800</pproTicksIn>
															<pproTicksOut>44819328153600</pproTicksOut>
															<alignment>end-black</alignment>
															<cutPointTicks>330551020800</cutPointTicks>
															<rate>
																<timebase>30</timebase>
																<ntsc>TRUE</ntsc>
															</rate>
															<effect>
																<name>Cross Fade ( 0dB)</name>
																<effectid>KGAudioTransCrossFade0dB</effectid>
																<effecttype>transition</effecttype>
																<mediatype>audio</mediatype>
																<wipecode>0</wipecode>
																<wipeaccuracy>100</wipeaccuracy>
																<startratio>0</startratio>
																<endratio>1</endratio>
																<reverse>FALSE</reverse>
															</effect>
														</transitionitem>
														<enabled>TRUE</enabled>
														<locked>FALSE</locked>
														<outputchannelindex>1</outputchannelindex>
													</track>
													<track TL.SQTrackAudioKeyframeStyle="0" TL.SQTrackShy="0" TL.SQTrackExpandedHeight="25" TL.SQTrackExpanded="0" MZ.TrackTargeted="1" PannerCurrentValue="0.5" PannerIsInverted="true" PannerStartKeyframe="-91445760000000000,0.5,0,0,0,0,0,0" PannerName="Balance" currentExplodedTrackIndex="1" totalExplodedTrackCount="2" premiereTrackType="Stereo">
														<transitionitem>
															<start>0</start>
															<end>7</end>
															<pproTicksIn>0</pproTicksIn>
															<pproTicksOut>59329670400</pproTicksOut>
															<alignment>start-black</alignment>
															<cutPointTicks>0</cutPointTicks>
															<rate>
																<timebase>30</timebase>
																<ntsc>TRUE</ntsc>
															</rate>
															<effect>
																<name>Cross Fade ( 0dB)</name>
																<effectid>KGAudioTransCrossFade0dB</effectid>
																<effecttype>transition</effecttype>
																<mediatype>audio</mediatype>
																<wipecode>0</wipecode>
																<wipeaccuracy>100</wipeaccuracy>
																<startratio>0</startratio>
																<endratio>1</endratio>
																<reverse>FALSE</reverse>
															</effect>
														</transitionitem>
														<clipitem id="clipitem-491" premiereChannelType="stereo">
															<masterclipid>masterclip-284</masterclipid>
															<name>ES_Succulent Chinese Meal - Jones Meadow.mp3</name>
															<enabled>TRUE</enabled>
															<duration>6569</duration>
															<rate>
																<timebase>30</timebase>
																<ntsc>TRUE</ntsc>
															</rate>
															<start>-1</start>
															<end>-1</end>
															<in>0</in>
															<out>5288</out>
															<pproTicksIn>0</pproTicksIn>
															<pproTicksOut>44819328153600</pproTicksOut>
															<file id="file-259"/>
															<sourcetrack>
																<mediatype>audio</mediatype>
																<trackindex>2</trackindex>
															</sourcetrack>
															<link>
																<linkclipref>clipitem-490</linkclipref>
																<mediatype>audio</mediatype>
																<trackindex>1</trackindex>
																<clipindex>2</clipindex>
																<groupindex>1</groupindex>
															</link>
															<link>
																<linkclipref>clipitem-491</linkclipref>
																<mediatype>audio</mediatype>
																<trackindex>2</trackindex>
																<clipindex>2</clipindex>
																<groupindex>1</groupindex>
															</link>
															<logginginfo>
																<description></description>
																<scene></scene>
																<shottake></shottake>
																<lognote></lognote>
																<good></good>
																<originalvideofilename></originalvideofilename>
																<originalaudiofilename></originalaudiofilename>
															</logginginfo>
															<colorinfo>
																<lut></lut>
																<lut1></lut1>
																<asc_sop></asc_sop>
																<asc_sat></asc_sat>
																<lut2></lut2>
															</colorinfo>
															<labels>
																<label2>Caribbean</label2>
															</labels>
														</clipitem>
														<transitionitem>
															<start>5249</start>
															<end>5288</end>
															<pproTicksIn>44488777132800</pproTicksIn>
															<pproTicksOut>44819328153600</pproTicksOut>
															<alignment>end-black</alignment>
															<cutPointTicks>330551020800</cutPointTicks>
															<rate>
																<timebase>30</timebase>
																<ntsc>TRUE</ntsc>
															</rate>
															<effect>
																<name>Cross Fade ( 0dB)</name>
																<effectid>KGAudioTransCrossFade0dB</effectid>
																<effecttype>transition</effecttype>
																<mediatype>audio</mediatype>
																<wipecode>0</wipecode>
																<wipeaccuracy>100</wipeaccuracy>
																<startratio>0</startratio>
																<endratio>1</endratio>
																<reverse>FALSE</reverse>
															</effect>
														</transitionitem>
														<enabled>TRUE</enabled>
														<locked>FALSE</locked>
														<outputchannelindex>2</outputchannelindex>
													</track>
													<track TL.SQTrackAudioKeyframeStyle="0" TL.SQTrackShy="0" TL.SQTrackExpandedHeight="25" TL.SQTrackExpanded="0" MZ.TrackTargeted="1" PannerCurrentValue="0.5" PannerIsInverted="true" PannerStartKeyframe="-91445760000000000,0.5,0,0,0,0,0,0" PannerName="Balance" currentExplodedTrackIndex="0" totalExplodedTrackCount="2" premiereTrackType="Stereo">
														<enabled>TRUE</enabled>
														<locked>FALSE</locked>
														<outputchannelindex>1</outputchannelindex>
													</track>
													<track TL.SQTrackAudioKeyframeStyle="0" TL.SQTrackShy="0" TL.SQTrackExpandedHeight="25" TL.SQTrackExpanded="0" MZ.TrackTargeted="1" PannerCurrentValue="0.5" PannerIsInverted="true" PannerStartKeyframe="-91445760000000000,0.5,0,0,0,0,0,0" PannerName="Balance" currentExplodedTrackIndex="1" totalExplodedTrackCount="2" premiereTrackType="Stereo">
														<enabled>TRUE</enabled>
														<locked>FALSE</locked>
														<outputchannelindex>2</outputchannelindex>
													</track>
													<track TL.SQTrackAudioKeyframeStyle="0" TL.SQTrackShy="0" TL.SQTrackExpandedHeight="25" TL.SQTrackExpanded="0" MZ.TrackTargeted="1" PannerCurrentValue="0.5" PannerIsInverted="true" PannerStartKeyframe="-91445760000000000,0.5,0,0,0,0,0,0" PannerName="Balance" currentExplodedTrackIndex="0" totalExplodedTrackCount="2" premiereTrackType="Stereo">
														<enabled>TRUE</enabled>
														<locked>FALSE</locked>
														<outputchannelindex>1</outputchannelindex>
													</track>
													<track TL.SQTrackAudioKeyframeStyle="0" TL.SQTrackShy="0" TL.SQTrackExpandedHeight="25" TL.SQTrackExpanded="0" MZ.TrackTargeted="1" PannerCurrentValue="0.5" PannerIsInverted="true" PannerStartKeyframe="-91445760000000000,0.5,0,0,0,0,0,0" PannerName="Balance" currentExplodedTrackIndex="1" totalExplodedTrackCount="2" premiereTrackType="Stereo">
														<enabled>TRUE</enabled>
														<locked>FALSE</locked>
														<outputchannelindex>2</outputchannelindex>
													</track>
												</audio>
											</media>
											<timecode>
												<rate>
													<timebase>30</timebase>
													<ntsc>TRUE</ntsc>
												</rate>
												<string>00;00;00;00</string>
												<frame>0</frame>
												<displayformat>DF</displayformat>
											</timecode>
											<logginginfo>
												<description></description>
												<scene></scene>
												<shottake></shottake>
												<lognote></lognote>
												<good></good>
												<originalvideofilename></originalvideofilename>
												<originalaudiofilename></originalaudiofilename>
											</logginginfo>
											<filter>
												<effect>
													<name>Audio Levels</name>
													<effectid>audiolevels</effectid>
													<effectcategory>audiolevels</effectcategory>
													<effecttype>audiolevels</effecttype>
													<mediatype>audio</mediatype>
													<parameter authoringApp="PremierePro">
														<parameterid>level</parameterid>
														<name>Level</name>
														<valuemin>0</valuemin>
														<valuemax>3.98109</valuemax>
														<value>0.839406</value>
													</parameter>
												</effect>
											</filter>
										</sequence>
										<link>
											<linkclipref>clipitem-474</linkclipref>
											<mediatype>video</mediatype>
											<trackindex>1</trackindex>
											<clipindex>1</clipindex>
										</link>
										<link>
											<linkclipref>clipitem-496</linkclipref>
											<mediatype>audio</mediatype>
											<trackindex>1</trackindex>
											<clipindex>1</clipindex>
											<groupindex>1</groupindex>
										</link>
										<link>
											<linkclipref>clipitem-497</linkclipref>
											<mediatype>audio</mediatype>
											<trackindex>2</trackindex>
											<clipindex>1</clipindex>
											<groupindex>1</groupindex>
										</link>
										<labels>
											<label2>Forest</label2>
										</labels>
									</clipitem>
									<enabled>TRUE</enabled>
									<locked>FALSE</locked>
								</track>
								<track TL.SQTrackShy="0" TL.SQTrackExpandedHeight="25" TL.SQTrackExpanded="0" MZ.TrackTargeted="0">
									<clipitem id="clipitem-492">
										<masterclipid>masterclip-285</masterclipid>
										<name>The Great Wall of China</name>
										<enabled>TRUE</enabled>
										<duration>5694</duration>
										<rate>
											<timebase>30</timebase>
											<ntsc>TRUE</ntsc>
										</rate>
										<start>0</start>
										<end>5288</end>
										<in>0</in>
										<out>5288</out>
										<pproTicksIn>0</pproTicksIn>
										<pproTicksOut>44819328153600</pproTicksOut>
										<alphatype>straight</alphatype>
										<pixelaspectratio>square</pixelaspectratio>
										<anamorphic>FALSE</anamorphic>
										<file id="file-260">
											<name>DRONE_LOWER_A/NEW DRONE L3.aep</name>
											<pathurl>file://localhost/Volumes/T7/DRONE_08.18.2023/4_Project%20Files/Drone%202023%20Master%20Assets/01_Bugs/NEW%20DRONE%20L3/NEW%20DRONE%20L3.aep</pathurl>
											<rate>
												<timebase>30</timebase>
												<ntsc>TRUE</ntsc>
											</rate>
											<duration>5694</duration>
											<timecode>
												<rate>
													<timebase>30</timebase>
													<ntsc>TRUE</ntsc>
												</rate>
												<string>00;00;00;00</string>
												<frame>0</frame>
												<displayformat>DF</displayformat>
											</timecode>
											<media>
												<video>
													<samplecharacteristics>
														<rate>
															<timebase>30</timebase>
															<ntsc>TRUE</ntsc>
														</rate>
														<width>1920</width>
														<height>1080</height>
														<anamorphic>FALSE</anamorphic>
														<pixelaspectratio>square</pixelaspectratio>
														<fielddominance>lower</fielddominance>
													</samplecharacteristics>
												</video>
											</media>
										</file>
										<logginginfo>
											<description></description>
											<scene></scene>
											<shottake></shottake>
											<lognote></lognote>
											<good></good>
											<originalvideofilename></originalvideofilename>
											<originalaudiofilename></originalaudiofilename>
										</logginginfo>
										<colorinfo>
											<lut></lut>
											<lut1></lut1>
											<asc_sop></asc_sop>
											<asc_sat></asc_sat>
											<lut2></lut2>
										</colorinfo>
										<labels>
											<label2>Rose</label2>
										</labels>
									</clipitem>
									<enabled>TRUE</enabled>
									<locked>FALSE</locked>
								</track>
								<track TL.SQTrackShy="0" TL.SQTrackExpandedHeight="25" TL.SQTrackExpanded="0" MZ.TrackTargeted="0">
									<clipitem id="clipitem-493">
										<masterclipid>masterclip-286</masterclipid>
										<name>China</name>
										<enabled>TRUE</enabled>
										<duration>5694</duration>
										<rate>
											<timebase>30</timebase>
											<ntsc>TRUE</ntsc>
										</rate>
										<start>264</start>
										<end>5288</end>
										<in>0</in>
										<out>5024</out>
										<pproTicksIn>0</pproTicksIn>
										<pproTicksOut>42581752012800</pproTicksOut>
										<alphatype>straight</alphatype>
										<pixelaspectratio>square</pixelaspectratio>
										<anamorphic>FALSE</anamorphic>
										<file id="file-261">
											<name>DRONE_PIN/DRONE_PIN.aep</name>
											<pathurl>file://localhost/Volumes/T7/DRONE_08.18.2023/4_Project%20Files/Drone%202023%20Master%20Assets/01_Bugs/DRIVE_LOCATION%20PIN/DRONE_PIN.aep</pathurl>
											<rate>
												<timebase>30</timebase>
												<ntsc>TRUE</ntsc>
											</rate>
											<duration>5694</duration>
											<timecode>
												<rate>
													<timebase>30</timebase>
													<ntsc>TRUE</ntsc>
												</rate>
												<string>00;00;00;00</string>
												<frame>0</frame>
												<displayformat>DF</displayformat>
											</timecode>
											<media>
												<video>
													<samplecharacteristics>
														<rate>
															<timebase>30</timebase>
															<ntsc>TRUE</ntsc>
														</rate>
														<width>1920</width>
														<height>1080</height>
														<anamorphic>FALSE</anamorphic>
														<pixelaspectratio>square</pixelaspectratio>
														<fielddominance>lower</fielddominance>
													</samplecharacteristics>
												</video>
											</media>
										</file>
										<logginginfo>
											<description></description>
											<scene></scene>
											<shottake></shottake>
											<lognote></lognote>
											<good></good>
											<originalvideofilename></originalvideofilename>
											<originalaudiofilename></originalaudiofilename>
										</logginginfo>
										<colorinfo>
											<lut></lut>
											<lut1></lut1>
											<asc_sop></asc_sop>
											<asc_sat></asc_sat>
											<lut2></lut2>
										</colorinfo>
										<labels>
											<label2>Cerulean</label2>
										</labels>
									</clipitem>
									<enabled>TRUE</enabled>
									<locked>FALSE</locked>
								</track>
								<track TL.SQTrackShy="0" TL.SQTrackExpandedHeight="25" TL.SQTrackExpanded="0" MZ.TrackTargeted="0">
									<clipitem id="clipitem-494">
										<masterclipid>masterclip-153</masterclipid>
										<name>ATM BUG</name>
										<enabled>TRUE</enabled>
										<duration>5818</duration>
										<rate>
											<timebase>30</timebase>
											<ntsc>TRUE</ntsc>
										</rate>
										<start>0</start>
										<end>5288</end>
										<in>0</in>
										<out>5288</out>
										<pproTicksIn>0</pproTicksIn>
										<pproTicksOut>44819328153600</pproTicksOut>
										<sequence id="sequence-5"/>
										<labels>
											<label2>Violet</label2>
										</labels>
									</clipitem>
									<enabled>TRUE</enabled>
									<locked>FALSE</locked>
								</track>
								<track TL.SQTrackShy="0" TL.SQTrackExpandedHeight="25" TL.SQTrackExpanded="0" MZ.TrackTargeted="0">
									<clipitem id="clipitem-495">
										<masterclipid>masterclip-160</masterclipid>
										<name>Trans D</name>
										<enabled>TRUE</enabled>
										<duration>5697</duration>
										<rate>
											<timebase>30</timebase>
											<ntsc>TRUE</ntsc>
										</rate>
										<start>5270</start>
										<end>5510</end>
										<in>0</in>
										<out>240</out>
										<pproTicksIn>0</pproTicksIn>
										<pproTicksOut>2034160128000</pproTicksOut>
										<sequence id="sequence-9"/>
											<marker>
												<comment></comment>
												<name></name>
												<in>229</in>
												<out>-1</out>
												<pproColor>4281828977</pproColor>
											</marker>
											<marker>
												<comment></comment>
												<name></name>
												<in>9</in>
												<out>-1</out>
												<pproColor>4281828977</pproColor>
											</marker>
										<link>
											<linkclipref>clipitem-495</linkclipref>
											<mediatype>video</mediatype>
											<trackindex>5</trackindex>
											<clipindex>1</clipindex>
										</link>
										<link>
											<linkclipref>clipitem-498</linkclipref>
											<mediatype>audio</mediatype>
											<trackindex>9</trackindex>
											<clipindex>1</clipindex>
											<groupindex>1</groupindex>
										</link>
										<link>
											<linkclipref>clipitem-499</linkclipref>
											<mediatype>audio</mediatype>
											<trackindex>10</trackindex>
											<clipindex>1</clipindex>
											<groupindex>1</groupindex>
										</link>
										<labels>
											<label2>Tan</label2>
										</labels>
									</clipitem>
									<enabled>TRUE</enabled>
									<locked>FALSE</locked>
								</track>
							</video>
							<audio>
								<numOutputChannels>2</numOutputChannels>
								<format>
									<samplecharacteristics>
										<depth>16</depth>
										<samplerate>32000</samplerate>
									</samplecharacteristics>
								</format>
								<outputs>
									<group>
										<index>1</index>
										<numchannels>1</numchannels>
										<downmix>0</downmix>
										<channel>
											<index>1</index>
										</channel>
									</group>
									<group>
										<index>2</index>
										<numchannels>1</numchannels>
										<downmix>0</downmix>
										<channel>
											<index>2</index>
										</channel>
									</group>
								</outputs>
								<track TL.SQTrackAudioKeyframeStyle="0" TL.SQTrackShy="0" TL.SQTrackExpandedHeight="25" TL.SQTrackExpanded="0" MZ.TrackTargeted="1" PannerCurrentValue="0.5" PannerIsInverted="true" PannerStartKeyframe="-91445760000000000,0.5,0,0,0,0,0,0" PannerName="Balance" currentExplodedTrackIndex="0" totalExplodedTrackCount="2" premiereTrackType="Stereo">
									<clipitem id="clipitem-496" premiereChannelType="stereo">
										<masterclipid>masterclip-269</masterclipid>
										<name>DRONE_Great Wall of China_3</name>
										<enabled>TRUE</enabled>
										<duration>6569</duration>
										<rate>
											<timebase>30</timebase>
											<ntsc>TRUE</ntsc>
										</rate>
										<start>0</start>
										<end>5288</end>
										<in>0</in>
										<out>5288</out>
										<pproTicksIn>0</pproTicksIn>
										<pproTicksOut>44819328153600</pproTicksOut>
										<sequence id="sequence-32"/>
										<sourcetrack>
											<mediatype>audio</mediatype>
											<trackindex>0</trackindex>
										</sourcetrack>
										<link>
											<linkclipref>clipitem-474</linkclipref>
											<mediatype>video</mediatype>
											<trackindex>1</trackindex>
											<clipindex>1</clipindex>
										</link>
										<link>
											<linkclipref>clipitem-496</linkclipref>
											<mediatype>audio</mediatype>
											<trackindex>1</trackindex>
											<clipindex>1</clipindex>
											<groupindex>1</groupindex>
										</link>
										<link>
											<linkclipref>clipitem-497</linkclipref>
											<mediatype>audio</mediatype>
											<trackindex>2</trackindex>
											<clipindex>1</clipindex>
											<groupindex>1</groupindex>
										</link>
										<labels>
											<label2>Forest</label2>
										</labels>
									</clipitem>
									<enabled>TRUE</enabled>
									<locked>FALSE</locked>
									<outputchannelindex>1</outputchannelindex>
								</track>
								<track TL.SQTrackAudioKeyframeStyle="0" TL.SQTrackShy="0" TL.SQTrackExpandedHeight="25" TL.SQTrackExpanded="0" MZ.TrackTargeted="1" PannerCurrentValue="0.5" PannerIsInverted="true" PannerStartKeyframe="-91445760000000000,0.5,0,0,0,0,0,0" PannerName="Balance" currentExplodedTrackIndex="1" totalExplodedTrackCount="2" premiereTrackType="Stereo">
									<clipitem id="clipitem-497" premiereChannelType="stereo">
										<masterclipid>masterclip-269</masterclipid>
										<name>DRONE_Great Wall of China_3</name>
										<enabled>TRUE</enabled>
										<duration>6569</duration>
										<rate>
											<timebase>30</timebase>
											<ntsc>TRUE</ntsc>
										</rate>
										<start>0</start>
										<end>5288</end>
										<in>0</in>
										<out>5288</out>
										<pproTicksIn>0</pproTicksIn>
										<pproTicksOut>44819328153600</pproTicksOut>
										<sequence id="sequence-32"/>
										<sourcetrack>
											<mediatype>audio</mediatype>
											<trackindex>1</trackindex>
										</sourcetrack>
										<link>
											<linkclipref>clipitem-474</linkclipref>
											<mediatype>video</mediatype>
											<trackindex>1</trackindex>
											<clipindex>1</clipindex>
										</link>
										<link>
											<linkclipref>clipitem-496</linkclipref>
											<mediatype>audio</mediatype>
											<trackindex>1</trackindex>
											<clipindex>1</clipindex>
											<groupindex>1</groupindex>
										</link>
										<link>
											<linkclipref>clipitem-497</linkclipref>
											<mediatype>audio</mediatype>
											<trackindex>2</trackindex>
											<clipindex>1</clipindex>
											<groupindex>1</groupindex>
										</link>
										<labels>
											<label2>Forest</label2>
										</labels>
									</clipitem>
									<enabled>TRUE</enabled>
									<locked>FALSE</locked>
									<outputchannelindex>2</outputchannelindex>
								</track>
								<track TL.SQTrackAudioKeyframeStyle="0" TL.SQTrackShy="0" TL.SQTrackExpandedHeight="25" TL.SQTrackExpanded="0" MZ.TrackTargeted="1" PannerCurrentValue="0.5" PannerIsInverted="true" PannerStartKeyframe="-91445760000000000,0.5,0,0,0,0,0,0" PannerName="Balance" currentExplodedTrackIndex="0" totalExplodedTrackCount="2" premiereTrackType="Stereo">
									<enabled>TRUE</enabled>
									<locked>FALSE</locked>
									<outputchannelindex>1</outputchannelindex>
								</track>
								<track TL.SQTrackAudioKeyframeStyle="0" TL.SQTrackShy="0" TL.SQTrackExpandedHeight="25" TL.SQTrackExpanded="0" MZ.TrackTargeted="1" PannerCurrentValue="0.5" PannerIsInverted="true" PannerStartKeyframe="-91445760000000000,0.5,0,0,0,0,0,0" PannerName="Balance" currentExplodedTrackIndex="1" totalExplodedTrackCount="2" premiereTrackType="Stereo">
									<enabled>TRUE</enabled>
									<locked>FALSE</locked>
									<outputchannelindex>2</outputchannelindex>
								</track>
								<track TL.SQTrackAudioKeyframeStyle="0" TL.SQTrackShy="0" TL.SQTrackExpandedHeight="25" TL.SQTrackExpanded="0" MZ.TrackTargeted="1" PannerCurrentValue="0.5" PannerIsInverted="true" PannerStartKeyframe="-91445760000000000,0.5,0,0,0,0,0,0" PannerName="Balance" currentExplodedTrackIndex="0" totalExplodedTrackCount="2" premiereTrackType="Stereo">
									<enabled>TRUE</enabled>
									<locked>FALSE</locked>
									<outputchannelindex>1</outputchannelindex>
								</track>
								<track TL.SQTrackAudioKeyframeStyle="0" TL.SQTrackShy="0" TL.SQTrackExpandedHeight="25" TL.SQTrackExpanded="0" MZ.TrackTargeted="1" PannerCurrentValue="0.5" PannerIsInverted="true" PannerStartKeyframe="-91445760000000000,0.5,0,0,0,0,0,0" PannerName="Balance" currentExplodedTrackIndex="1" totalExplodedTrackCount="2" premiereTrackType="Stereo">
									<enabled>TRUE</enabled>
									<locked>FALSE</locked>
									<outputchannelindex>2</outputchannelindex>
								</track>
								<track TL.SQTrackAudioKeyframeStyle="0" TL.SQTrackShy="0" TL.SQTrackExpandedHeight="25" TL.SQTrackExpanded="0" MZ.TrackTargeted="0" PannerCurrentValue="0.5" PannerIsInverted="true" PannerStartKeyframe="-91445760000000000,0.5,0,0,0,0,0,0" PannerName="Balance" currentExplodedTrackIndex="0" totalExplodedTrackCount="2" premiereTrackType="Stereo">
									<enabled>TRUE</enabled>
									<locked>FALSE</locked>
									<outputchannelindex>1</outputchannelindex>
								</track>
								<track TL.SQTrackAudioKeyframeStyle="0" TL.SQTrackShy="0" TL.SQTrackExpandedHeight="25" TL.SQTrackExpanded="0" MZ.TrackTargeted="0" PannerCurrentValue="0.5" PannerIsInverted="true" PannerStartKeyframe="-91445760000000000,0.5,0,0,0,0,0,0" PannerName="Balance" currentExplodedTrackIndex="1" totalExplodedTrackCount="2" premiereTrackType="Stereo">
									<enabled>TRUE</enabled>
									<locked>FALSE</locked>
									<outputchannelindex>2</outputchannelindex>
								</track>
								<track TL.SQTrackAudioKeyframeStyle="0" TL.SQTrackShy="0" TL.SQTrackExpandedHeight="25" TL.SQTrackExpanded="0" MZ.TrackTargeted="0" PannerCurrentValue="0.5" PannerIsInverted="true" PannerStartKeyframe="-91445760000000000,0.5,0,0,0,0,0,0" PannerName="Balance" currentExplodedTrackIndex="0" totalExplodedTrackCount="2" premiereTrackType="Stereo">
									<clipitem id="clipitem-498" premiereChannelType="stereo">
										<masterclipid>masterclip-160</masterclipid>
										<name>Trans D</name>
										<enabled>TRUE</enabled>
										<duration>5697</duration>
										<rate>
											<timebase>30</timebase>
											<ntsc>TRUE</ntsc>
										</rate>
										<start>5270</start>
										<end>5510</end>
										<in>0</in>
										<out>240</out>
										<pproTicksIn>0</pproTicksIn>
										<pproTicksOut>2034160128000</pproTicksOut>
										<sequence id="sequence-9"/>
										<sourcetrack>
											<mediatype>audio</mediatype>
											<trackindex>0</trackindex>
										</sourcetrack>
											<marker>
												<comment></comment>
												<name></name>
												<in>229</in>
												<out>-1</out>
												<pproColor>4281828977</pproColor>
											</marker>
											<marker>
												<comment></comment>
												<name></name>
												<in>9</in>
												<out>-1</out>
												<pproColor>4281828977</pproColor>
											</marker>
										<link>
											<linkclipref>clipitem-495</linkclipref>
											<mediatype>video</mediatype>
											<trackindex>5</trackindex>
											<clipindex>1</clipindex>
										</link>
										<link>
											<linkclipref>clipitem-498</linkclipref>
											<mediatype>audio</mediatype>
											<trackindex>9</trackindex>
											<clipindex>1</clipindex>
											<groupindex>1</groupindex>
										</link>
										<link>
											<linkclipref>clipitem-499</linkclipref>
											<mediatype>audio</mediatype>
											<trackindex>10</trackindex>
											<clipindex>1</clipindex>
											<groupindex>1</groupindex>
										</link>
										<labels>
											<label2>Tan</label2>
										</labels>
									</clipitem>
									<enabled>TRUE</enabled>
									<locked>FALSE</locked>
									<outputchannelindex>1</outputchannelindex>
								</track>
								<track TL.SQTrackAudioKeyframeStyle="0" TL.SQTrackShy="0" TL.SQTrackExpandedHeight="25" TL.SQTrackExpanded="0" MZ.TrackTargeted="0" PannerCurrentValue="0.5" PannerIsInverted="true" PannerStartKeyframe="-91445760000000000,0.5,0,0,0,0,0,0" PannerName="Balance" currentExplodedTrackIndex="1" totalExplodedTrackCount="2" premiereTrackType="Stereo">
									<clipitem id="clipitem-499" premiereChannelType="stereo">
										<masterclipid>masterclip-160</masterclipid>
										<name>Trans D</name>
										<enabled>TRUE</enabled>
										<duration>5697</duration>
										<rate>
											<timebase>30</timebase>
											<ntsc>TRUE</ntsc>
										</rate>
										<start>5270</start>
										<end>5510</end>
										<in>0</in>
										<out>240</out>
										<pproTicksIn>0</pproTicksIn>
										<pproTicksOut>2034160128000</pproTicksOut>
										<sequence id="sequence-9"/>
										<sourcetrack>
											<mediatype>audio</mediatype>
											<trackindex>1</trackindex>
										</sourcetrack>
											<marker>
												<comment></comment>
												<name></name>
												<in>229</in>
												<out>-1</out>
												<pproColor>4281828977</pproColor>
											</marker>
											<marker>
												<comment></comment>
												<name></name>
												<in>9</in>
												<out>-1</out>
												<pproColor>4281828977</pproColor>
											</marker>
										<link>
											<linkclipref>clipitem-495</linkclipref>
											<mediatype>video</mediatype>
											<trackindex>5</trackindex>
											<clipindex>1</clipindex>
										</link>
										<link>
											<linkclipref>clipitem-498</linkclipref>
											<mediatype>audio</mediatype>
											<trackindex>9</trackindex>
											<clipindex>1</clipindex>
											<groupindex>1</groupindex>
										</link>
										<link>
											<linkclipref>clipitem-499</linkclipref>
											<mediatype>audio</mediatype>
											<trackindex>10</trackindex>
											<clipindex>1</clipindex>
											<groupindex>1</groupindex>
										</link>
										<labels>
											<label2>Tan</label2>
										</labels>
									</clipitem>
									<enabled>TRUE</enabled>
									<locked>FALSE</locked>
									<outputchannelindex>2</outputchannelindex>
								</track>
							</audio>
						</media>
						<timecode>
							<rate>
								<timebase>30</timebase>
								<ntsc>TRUE</ntsc>
							</rate>
							<string>00;00;00;00</string>
							<frame>0</frame>
							<displayformat>DF</displayformat>
						</timecode>
							<marker>
								<comment></comment>
								<name></name>
								<in>264</in>
								<out>-1</out>
								<pproColor>4281828977</pproColor>
							</marker>
						<labels>
							<label2>Forest</label2>
						</labels>
						<logginginfo>
							<description></description>
							<scene></scene>
							<shottake></shottake>
							<lognote></lognote>
							<good></good>
							<originalvideofilename></originalvideofilename>
							<originalaudiofilename></originalaudiofilename>
						</logginginfo>
					</sequence>
					<sequence id="sequence-33" TL.SQAudioVisibleBase="0" TL.SQVideoVisibleBase="0" TL.SQVisibleBaseTime="0" TL.SQAVDividerPosition="0.5" TL.SQHideShyTracks="0" TL.SQHeaderWidth="236" TL.SQDataTrackViewControlState="0" Monitor.ProgramZoomOut="46472083257600" Monitor.ProgramZoomIn="0" TL.SQTimePerPixel="0.96521088644687791" MZ.EditLine="44132799110400" MZ.Sequence.PreviewFrameSizeHeight="1080" MZ.Sequence.PreviewFrameSizeWidth="1920" MZ.Sequence.AudioTimeDisplayFormat="200" MZ.Sequence.PreviewRenderingClassID="1297106761" MZ.Sequence.PreviewRenderingPresetCodec="1297107278" MZ.Sequence.PreviewRenderingPresetPath="EncoderPresets/SequencePreview/795454d9-d3c2-429d-9474-923ab13b7018/I-Frame Only MPEG.epr" MZ.Sequence.PreviewUseMaxRenderQuality="false" MZ.Sequence.PreviewUseMaxBitDepth="false" MZ.Sequence.EditingModeGUID="795454d9-d3c2-429d-9474-923ab13b7018" MZ.Sequence.VideoTimeDisplayFormat="102" MZ.WorkOutPoint="15239249625600" MZ.WorkInPoint="0" explodedTracks="true">
						<uuid>a5f9c932-18dc-4960-b2e5-07fb9dc5ab33</uuid>
						<duration>5483</duration>
						<rate>
							<timebase>30</timebase>
							<ntsc>TRUE</ntsc>
						</rate>
						<name>ATM_DRONE_501</name>
						<media>
							<video>
								<format>
									<samplecharacteristics>
										<rate>
											<timebase>30</timebase>
											<ntsc>TRUE</ntsc>
										</rate>
										<codec>
											<name>Apple ProRes 422</name>
											<appspecificdata>
												<appname>Final Cut Pro</appname>
												<appmanufacturer>Apple Inc.</appmanufacturer>
												<appversion>7.0</appversion>
												<data>
													<qtcodec>
														<codecname>Apple ProRes 422</codecname>
														<codectypename>Apple ProRes 422</codectypename>
														<codectypecode>apcn</codectypecode>
														<codecvendorcode>appl</codecvendorcode>
														<spatialquality>1024</spatialquality>
														<temporalquality>0</temporalquality>
														<keyframerate>0</keyframerate>
														<datarate>0</datarate>
													</qtcodec>
												</data>
											</appspecificdata>
										</codec>
										<width>1920</width>
										<height>1080</height>
										<anamorphic>FALSE</anamorphic>
										<pixelaspectratio>square</pixelaspectratio>
										<fielddominance>none</fielddominance>
										<colordepth>24</colordepth>
									</samplecharacteristics>
								</format>
								<track TL.SQTrackShy="0" TL.SQTrackExpandedHeight="25" TL.SQTrackExpanded="0" MZ.TrackTargeted="1">
									<clipitem id="clipitem-500">
										<masterclipid>masterclip-287</masterclipid>
										<name>DRONE_Lagos on the Coast_3</name>
										<enabled>TRUE</enabled>
										<duration>6027</duration>
										<rate>
											<timebase>30</timebase>
											<ntsc>TRUE</ntsc>
										</rate>
										<start>0</start>
										<end>5184</end>
										<in>0</in>
										<out>5184</out>
										<pproTicksIn>0</pproTicksIn>
										<pproTicksOut>43937858764800</pproTicksOut>
										<sequence id="sequence-34" TL.SQAudioVisibleBase="0" TL.SQVideoVisibleBase="0" TL.SQVisibleBaseTime="0" TL.SQAVDividerPosition="0.5" TL.SQHideShyTracks="0" TL.SQHeaderWidth="236" Monitor.ProgramZoomOut="43937858764800" Monitor.ProgramZoomIn="0" TL.SQTimePerPixel="0.52512817368329079" MZ.EditLine="12535511788800" MZ.Sequence.PreviewFrameSizeHeight="1080" MZ.Sequence.PreviewFrameSizeWidth="1920" MZ.Sequence.AudioTimeDisplayFormat="200" MZ.Sequence.PreviewRenderingClassID="1061109567" MZ.Sequence.PreviewRenderingPresetCodec="1634755443" MZ.Sequence.PreviewRenderingPresetPath="EncoderPresets/SequencePreview/35d109db-457b-43c1-9452-9cb7be9f121c/QuickTime.epr" MZ.Sequence.PreviewUseMaxRenderQuality="false" MZ.Sequence.PreviewUseMaxBitDepth="false" MZ.Sequence.EditingModeGUID="35d109db-457b-43c1-9452-9cb7be9f121c" MZ.Sequence.VideoTimeDisplayFormat="102" MZ.WorkOutPoint="15239249625600" MZ.WorkInPoint="0">
											<duration>5184</duration>
											<rate>
												<timebase>30</timebase>
												<ntsc>TRUE</ntsc>
											</rate>
											<name>DRONE_Lagos on the Coast_3</name>
											<media>
												<video>
													<format>
														<samplecharacteristics>
															<rate>
																<timebase>30</timebase>
																<ntsc>TRUE</ntsc>
															</rate>
															<codec>
																<name>Apple ProRes 422</name>
																<appspecificdata>
																	<appname>Final Cut Pro</appname>
																	<appmanufacturer>Apple Inc.</appmanufacturer>
																	<appversion>7.0</appversion>
																	<data>
																		<qtcodec>
																			<codecname>Apple ProRes 422</codecname>
																			<codectypename>Apple ProRes 422</codectypename>
																			<codectypecode>apcn</codectypecode>
																			<codecvendorcode>appl</codecvendorcode>
																			<spatialquality>1024</spatialquality>
																			<temporalquality>0</temporalquality>
																			<keyframerate>0</keyframerate>
																			<datarate>0</datarate>
																		</qtcodec>
																	</data>
																</appspecificdata>
															</codec>
															<width>1920</width>
															<height>1080</height>
															<anamorphic>FALSE</anamorphic>
															<pixelaspectratio>square</pixelaspectratio>
															<fielddominance>none</fielddominance>
															<colordepth>24</colordepth>
														</samplecharacteristics>
													</format>
													<track TL.SQTrackShy="0" TL.SQTrackExpandedHeight="25" TL.SQTrackExpanded="0" MZ.TrackTargeted="1">
														<clipitem id="clipitem-501">
															<masterclipid>masterclip-288</masterclipid>
															<name>319810_Rooftops Residential Aerial Neighborhood_By_21_Aerials_Artlist_HD.mp4</name>
															<enabled>TRUE</enabled>
															<duration>610</duration>
															<rate>
																<timebase>30</timebase>
																<ntsc>TRUE</ntsc>
															</rate>
															<start>0</start>
															<end>548</end>
															<in>0</in>
															<out>548</out>
															<pproTicksIn>0</pproTicksIn>
															<pproTicksOut>4644665625600</pproTicksOut>
															<alphatype>none</alphatype>
															<pixelaspectratio>square</pixelaspectratio>
															<anamorphic>FALSE</anamorphic>
															<file id="file-262">
																<name>319810_Rooftops Residential Aerial Neighborhood_By_21_Aerials_Artlist_HD.mp4</name>
																<pathurl>file://localhost/Volumes/T7/DRONE_08.18.2023/3_Raw%20Files/Lagos,%20Portugal/319810_Rooftops%20Residential%20Aerial%20Neighborhood_By_21_Aerials_Artlist_HD.mp4</pathurl>
																<rate>
																	<timebase>30</timebase>
																	<ntsc>TRUE</ntsc>
																</rate>
																<duration>610</duration>
																<timecode>
																	<rate>
																		<timebase>30</timebase>
																		<ntsc>TRUE</ntsc>
																	</rate>
																	<string>00:00:00:00</string>
																	<frame>0</frame>
																	<displayformat>NDF</displayformat>
																</timecode>
																<media>
																	<video>
																		<samplecharacteristics>
																			<rate>
																				<timebase>30</timebase>
																				<ntsc>TRUE</ntsc>
																			</rate>
																			<width>1920</width>
																			<height>1080</height>
																			<anamorphic>FALSE</anamorphic>
																			<pixelaspectratio>square</pixelaspectratio>
																			<fielddominance>none</fielddominance>
																		</samplecharacteristics>
																	</video>
																</media>
															</file>
															<logginginfo>
																<description></description>
																<scene></scene>
																<shottake></shottake>
																<lognote></lognote>
																<good></good>
																<originalvideofilename></originalvideofilename>
																<originalaudiofilename></originalaudiofilename>
															</logginginfo>
															<colorinfo>
																<lut></lut>
																<lut1></lut1>
																<asc_sop></asc_sop>
																<asc_sat></asc_sat>
																<lut2></lut2>
															</colorinfo>
															<labels>
																<label2>Violet</label2>
															</labels>
														</clipitem>
														<clipitem id="clipitem-502">
															<masterclipid>masterclip-289</masterclipid>
															<name>319815_Rooftops Town Buildings Coast Shore_By_21_Aerials_Artlist_HD.mp4</name>
															<enabled>TRUE</enabled>
															<duration>431</duration>
															<rate>
																<timebase>30</timebase>
																<ntsc>TRUE</ntsc>
															</rate>
															<start>548</start>
															<end>682</end>
															<in>0</in>
															<out>134</out>
															<pproTicksIn>0</pproTicksIn>
															<pproTicksOut>1135739404800</pproTicksOut>
															<alphatype>none</alphatype>
															<pixelaspectratio>square</pixelaspectratio>
															<anamorphic>FALSE</anamorphic>
															<file id="file-263">
																<name>319815_Rooftops Town Buildings Coast Shore_By_21_Aerials_Artlist_HD.mp4</name>
																<pathurl>file://localhost/Volumes/T7/DRONE_08.18.2023/3_Raw%20Files/Lagos,%20Portugal/319815_Rooftops%20Town%20Buildings%20Coast%20Shore_By_21_Aerials_Artlist_HD.mp4</pathurl>
																<rate>
																	<timebase>30</timebase>
																	<ntsc>TRUE</ntsc>
																</rate>
																<duration>431</duration>
																<timecode>
																	<rate>
																		<timebase>30</timebase>
																		<ntsc>TRUE</ntsc>
																	</rate>
																	<string>00:00:00:00</string>
																	<frame>0</frame>
																	<displayformat>NDF</displayformat>
																</timecode>
																<media>
																	<video>
																		<samplecharacteristics>
																			<rate>
																				<timebase>30</timebase>
																				<ntsc>TRUE</ntsc>
																			</rate>
																			<width>1920</width>
																			<height>1080</height>
																			<anamorphic>FALSE</anamorphic>
																			<pixelaspectratio>square</pixelaspectratio>
																			<fielddominance>none</fielddominance>
																		</samplecharacteristics>
																	</video>
																</media>
															</file>
															<logginginfo>
																<description></description>
																<scene></scene>
																<shottake></shottake>
																<lognote></lognote>
																<good></good>
																<originalvideofilename></originalvideofilename>
																<originalaudiofilename></originalaudiofilename>
															</logginginfo>
															<colorinfo>
																<lut></lut>
																<lut1></lut1>
																<asc_sop></asc_sop>
																<asc_sat></asc_sat>
																<lut2></lut2>
															</colorinfo>
															<labels>
																<label2>Violet</label2>
															</labels>
														</clipitem>
														<clipitem id="clipitem-503">
															<masterclipid>masterclip-290</masterclipid>
															<name>319824_Ocean Cliff Aerial Coast_By_21_Aerials_Artlist_HD.mp4</name>
															<enabled>TRUE</enabled>
															<duration>511</duration>
															<rate>
																<timebase>30</timebase>
																<ntsc>TRUE</ntsc>
															</rate>
															<start>682</start>
															<end>1096</end>
															<in>0</in>
															<out>414</out>
															<pproTicksIn>0</pproTicksIn>
															<pproTicksOut>3508926220800</pproTicksOut>
															<alphatype>none</alphatype>
															<pixelaspectratio>square</pixelaspectratio>
															<anamorphic>FALSE</anamorphic>
															<file id="file-264">
																<name>319824_Ocean Cliff Aerial Coast_By_21_Aerials_Artlist_HD.mp4</name>
																<pathurl>file://localhost/Volumes/T7/DRONE_08.18.2023/3_Raw%20Files/Lagos,%20Portugal/319824_Ocean%20Cliff%20Aerial%20Coast_By_21_Aerials_Artlist_HD.mp4</pathurl>
																<rate>
																	<timebase>30</timebase>
																	<ntsc>TRUE</ntsc>
																</rate>
																<duration>511</duration>
																<timecode>
																	<rate>
																		<timebase>30</timebase>
																		<ntsc>TRUE</ntsc>
																	</rate>
																	<string>00:00:00:00</string>
																	<frame>0</frame>
																	<displayformat>NDF</displayformat>
																</timecode>
																<media>
																	<video>
																		<samplecharacteristics>
																			<rate>
																				<timebase>30</timebase>
																				<ntsc>TRUE</ntsc>
																			</rate>
																			<width>1920</width>
																			<height>1080</height>
																			<anamorphic>FALSE</anamorphic>
																			<pixelaspectratio>square</pixelaspectratio>
																			<fielddominance>none</fielddominance>
																		</samplecharacteristics>
																	</video>
																</media>
															</file>
															<logginginfo>
																<description></description>
																<scene></scene>
																<shottake></shottake>
																<lognote></lognote>
																<good></good>
																<originalvideofilename></originalvideofilename>
																<originalaudiofilename></originalaudiofilename>
															</logginginfo>
															<colorinfo>
																<lut></lut>
																<lut1></lut1>
																<asc_sop></asc_sop>
																<asc_sat></asc_sat>
																<lut2></lut2>
															</colorinfo>
															<labels>
																<label2>Violet</label2>
															</labels>
														</clipitem>
														<clipitem id="clipitem-504">
															<masterclipid>masterclip-291</masterclipid>
															<name>319830_Town Buildings Waterway Ocean Canal Lagos_By_21_Aerials_Artlist_HD.mp4</name>
															<enabled>TRUE</enabled>
															<duration>394</duration>
															<rate>
																<timebase>30</timebase>
																<ntsc>TRUE</ntsc>
															</rate>
															<start>1096</start>
															<end>1368</end>
															<in>0</in>
															<out>272</out>
															<pproTicksIn>0</pproTicksIn>
															<pproTicksOut>2305381478400</pproTicksOut>
															<alphatype>none</alphatype>
															<pixelaspectratio>square</pixelaspectratio>
															<anamorphic>FALSE</anamorphic>
															<file id="file-265">
																<name>319830_Town Buildings Waterway Ocean Canal Lagos_By_21_Aerials_Artlist_HD.mp4</name>
																<pathurl>file://localhost/Volumes/T7/DRONE_08.18.2023/3_Raw%20Files/Lagos,%20Portugal/319830_Town%20Buildings%20Waterway%20Ocean%20Canal%20Lagos_By_21_Aerials_Artlist_HD.mp4</pathurl>
																<rate>
																	<timebase>30</timebase>
																	<ntsc>TRUE</ntsc>
																</rate>
																<duration>394</duration>
																<timecode>
																	<rate>
																		<timebase>30</timebase>
																		<ntsc>TRUE</ntsc>
																	</rate>
																	<string>00:00:00:00</string>
																	<frame>0</frame>
																	<displayformat>NDF</displayformat>
																</timecode>
																<media>
																	<video>
																		<samplecharacteristics>
																			<rate>
																				<timebase>30</timebase>
																				<ntsc>TRUE</ntsc>
																			</rate>
																			<width>1920</width>
																			<height>1080</height>
																			<anamorphic>FALSE</anamorphic>
																			<pixelaspectratio>square</pixelaspectratio>
																			<fielddominance>none</fielddominance>
																		</samplecharacteristics>
																	</video>
																</media>
															</file>
															<logginginfo>
																<description></description>
																<scene></scene>
																<shottake></shottake>
																<lognote></lognote>
																<good></good>
																<originalvideofilename></originalvideofilename>
																<originalaudiofilename></originalaudiofilename>
															</logginginfo>
															<colorinfo>
																<lut></lut>
																<lut1></lut1>
																<asc_sop></asc_sop>
																<asc_sat></asc_sat>
																<lut2></lut2>
															</colorinfo>
															<labels>
																<label2>Violet</label2>
															</labels>
														</clipitem>
														<clipitem id="clipitem-505">
															<masterclipid>masterclip-292</masterclipid>
															<name>319818_Rooftops Town Buildings Coast Shore_By_21_Aerials_Artlist_HD.mp4</name>
															<enabled>TRUE</enabled>
															<duration>693</duration>
															<rate>
																<timebase>30</timebase>
																<ntsc>TRUE</ntsc>
															</rate>
															<start>1368</start>
															<end>1642</end>
															<in>211</in>
															<out>485</out>
															<pproTicksIn>1788365779200</pproTicksIn>
															<pproTicksOut>4110698592000</pproTicksOut>
															<alphatype>none</alphatype>
															<pixelaspectratio>square</pixelaspectratio>
															<anamorphic>FALSE</anamorphic>
															<file id="file-266">
																<name>319818_Rooftops Town Buildings Coast Shore_By_21_Aerials_Artlist_HD.mp4</name>
																<pathurl>file://localhost/Volumes/T7/DRONE_08.18.2023/3_Raw%20Files/Lagos,%20Portugal/319818_Rooftops%20Town%20Buildings%20Coast%20Shore_By_21_Aerials_Artlist_HD.mp4</pathurl>
																<rate>
																	<timebase>30</timebase>
																	<ntsc>TRUE</ntsc>
																</rate>
																<duration>693</duration>
																<timecode>
																	<rate>
																		<timebase>30</timebase>
																		<ntsc>TRUE</ntsc>
																	</rate>
																	<string>00:00:00:00</string>
																	<frame>0</frame>
																	<displayformat>NDF</displayformat>
																</timecode>
																<media>
																	<video>
																		<samplecharacteristics>
																			<rate>
																				<timebase>30</timebase>
																				<ntsc>TRUE</ntsc>
																			</rate>
																			<width>1920</width>
																			<height>1080</height>
																			<anamorphic>FALSE</anamorphic>
																			<pixelaspectratio>square</pixelaspectratio>
																			<fielddominance>none</fielddominance>
																		</samplecharacteristics>
																	</video>
																</media>
															</file>
															<logginginfo>
																<description></description>
																<scene></scene>
																<shottake></shottake>
																<lognote></lognote>
																<good></good>
																<originalvideofilename></originalvideofilename>
																<originalaudiofilename></originalaudiofilename>
															</logginginfo>
															<colorinfo>
																<lut></lut>
																<lut1></lut1>
																<asc_sop></asc_sop>
																<asc_sat></asc_sat>
																<lut2></lut2>
															</colorinfo>
															<labels>
																<label2>Violet</label2>
															</labels>
														</clipitem>
														<clipitem id="clipitem-506">
															<masterclipid>masterclip-293</masterclipid>
															<name>319806_Road Coast Town Aerial_By_21_Aerials_Artlist_HD.mp4</name>
															<enabled>TRUE</enabled>
															<duration>883</duration>
															<rate>
																<timebase>30</timebase>
																<ntsc>TRUE</ntsc>
															</rate>
															<start>1642</start>
															<end>1916</end>
															<in>0</in>
															<out>274</out>
															<pproTicksIn>0</pproTicksIn>
															<pproTicksOut>2322332812800</pproTicksOut>
															<alphatype>none</alphatype>
															<pixelaspectratio>square</pixelaspectratio>
															<anamorphic>FALSE</anamorphic>
															<file id="file-267">
																<name>319806_Road Coast Town Aerial_By_21_Aerials_Artlist_HD.mp4</name>
																<pathurl>file://localhost/Volumes/T7/DRONE_08.18.2023/3_Raw%20Files/Lagos,%20Portugal/319806_Road%20Coast%20Town%20Aerial_By_21_Aerials_Artlist_HD.mp4</pathurl>
																<rate>
																	<timebase>30</timebase>
																	<ntsc>TRUE</ntsc>
																</rate>
																<duration>883</duration>
																<timecode>
																	<rate>
																		<timebase>30</timebase>
																		<ntsc>TRUE</ntsc>
																	</rate>
																	<string>00:00:00:00</string>
																	<frame>0</frame>
																	<displayformat>NDF</displayformat>
																</timecode>
																<media>
																	<video>
																		<samplecharacteristics>
																			<rate>
																				<timebase>30</timebase>
																				<ntsc>TRUE</ntsc>
																			</rate>
																			<width>1920</width>
																			<height>1080</height>
																			<anamorphic>FALSE</anamorphic>
																			<pixelaspectratio>square</pixelaspectratio>
																			<fielddominance>none</fielddominance>
																		</samplecharacteristics>
																	</video>
																</media>
															</file>
															<logginginfo>
																<description></description>
																<scene></scene>
																<shottake></shottake>
																<lognote></lognote>
																<good></good>
																<originalvideofilename></originalvideofilename>
																<originalaudiofilename></originalaudiofilename>
															</logginginfo>
															<colorinfo>
																<lut></lut>
																<lut1></lut1>
																<asc_sop></asc_sop>
																<asc_sat></asc_sat>
																<lut2></lut2>
															</colorinfo>
															<labels>
																<label2>Violet</label2>
															</labels>
														</clipitem>
														<clipitem id="clipitem-507">
															<masterclipid>masterclip-294</masterclipid>
															<name>319803_Footbridge Harbor Boats Aerial_By_21_Aerials_Artlist_HD.mp4</name>
															<enabled>TRUE</enabled>
															<duration>369</duration>
															<rate>
																<timebase>30</timebase>
																<ntsc>TRUE</ntsc>
															</rate>
															<start>1916</start>
															<end>2189</end>
															<in>58</in>
															<out>331</out>
															<pproTicksIn>491588697600</pproTicksIn>
															<pproTicksOut>2805445843200</pproTicksOut>
															<alphatype>none</alphatype>
															<pixelaspectratio>square</pixelaspectratio>
															<anamorphic>FALSE</anamorphic>
															<file id="file-268">
																<name>319803_Footbridge Harbor Boats Aerial_By_21_Aerials_Artlist_HD.mp4</name>
																<pathurl>file://localhost/Volumes/T7/DRONE_08.18.2023/3_Raw%20Files/Lagos,%20Portugal/319803_Footbridge%20Harbor%20Boats%20Aerial_By_21_Aerials_Artlist_HD.mp4</pathurl>
																<rate>
																	<timebase>30</timebase>
																	<ntsc>TRUE</ntsc>
																</rate>
																<duration>369</duration>
																<timecode>
																	<rate>
																		<timebase>30</timebase>
																		<ntsc>TRUE</ntsc>
																	</rate>
																	<string>00:00:00:00</string>
																	<frame>0</frame>
																	<displayformat>NDF</displayformat>
																</timecode>
																<media>
																	<video>
																		<samplecharacteristics>
																			<rate>
																				<timebase>30</timebase>
																				<ntsc>TRUE</ntsc>
																			</rate>
																			<width>1920</width>
																			<height>1080</height>
																			<anamorphic>FALSE</anamorphic>
																			<pixelaspectratio>square</pixelaspectratio>
																			<fielddominance>none</fielddominance>
																		</samplecharacteristics>
																	</video>
																</media>
															</file>
															<logginginfo>
																<description></description>
																<scene></scene>
																<shottake></shottake>
																<lognote></lognote>
																<good></good>
																<originalvideofilename></originalvideofilename>
																<originalaudiofilename></originalaudiofilename>
															</logginginfo>
															<colorinfo>
																<lut></lut>
																<lut1></lut1>
																<asc_sop></asc_sop>
																<asc_sat></asc_sat>
																<lut2></lut2>
															</colorinfo>
															<labels>
																<label2>Violet</label2>
															</labels>
														</clipitem>
														<clipitem id="clipitem-508">
															<masterclipid>masterclip-295</masterclipid>
															<name>319828_Harbor Wall Ocean Sea Waves_By_21_Aerials_Artlist_HD.mp4</name>
															<enabled>TRUE</enabled>
															<duration>455</duration>
															<rate>
																<timebase>30</timebase>
																<ntsc>TRUE</ntsc>
															</rate>
															<start>2189</start>
															<end>2464</end>
															<in>0</in>
															<out>275</out>
															<pproTicksIn>0</pproTicksIn>
															<pproTicksOut>2330808480000</pproTicksOut>
															<alphatype>none</alphatype>
															<pixelaspectratio>square</pixelaspectratio>
															<anamorphic>FALSE</anamorphic>
															<file id="file-269">
																<name>319828_Harbor Wall Ocean Sea Waves_By_21_Aerials_Artlist_HD.mp4</name>
																<pathurl>file://localhost/Volumes/T7/DRONE_08.18.2023/3_Raw%20Files/Lagos,%20Portugal/319828_Harbor%20Wall%20Ocean%20Sea%20Waves_By_21_Aerials_Artlist_HD.mp4</pathurl>
																<rate>
																	<timebase>30</timebase>
																	<ntsc>TRUE</ntsc>
																</rate>
																<duration>455</duration>
																<timecode>
																	<rate>
																		<timebase>30</timebase>
																		<ntsc>TRUE</ntsc>
																	</rate>
																	<string>00:00:00:00</string>
																	<frame>0</frame>
																	<displayformat>NDF</displayformat>
																</timecode>
																<media>
																	<video>
																		<samplecharacteristics>
																			<rate>
																				<timebase>30</timebase>
																				<ntsc>TRUE</ntsc>
																			</rate>
																			<width>1920</width>
																			<height>1080</height>
																			<anamorphic>FALSE</anamorphic>
																			<pixelaspectratio>square</pixelaspectratio>
																			<fielddominance>none</fielddominance>
																		</samplecharacteristics>
																	</video>
																</media>
															</file>
															<logginginfo>
																<description></description>
																<scene></scene>
																<shottake></shottake>
																<lognote></lognote>
																<good></good>
																<originalvideofilename></originalvideofilename>
																<originalaudiofilename></originalaudiofilename>
															</logginginfo>
															<colorinfo>
																<lut></lut>
																<lut1></lut1>
																<asc_sop></asc_sop>
																<asc_sat></asc_sat>
																<lut2></lut2>
															</colorinfo>
															<labels>
																<label2>Violet</label2>
															</labels>
														</clipitem>
														<clipitem id="clipitem-509">
															<masterclipid>masterclip-296</masterclipid>
															<name>319834_Road Coast Aerial Cars_By_21_Aerials_Artlist_HD.mp4</name>
															<enabled>TRUE</enabled>
															<duration>241</duration>
															<rate>
																<timebase>30</timebase>
																<ntsc>TRUE</ntsc>
															</rate>
															<start>2464</start>
															<end>2665</end>
															<in>0</in>
															<out>201</out>
															<pproTicksIn>0</pproTicksIn>
															<pproTicksOut>1703609107200</pproTicksOut>
															<alphatype>none</alphatype>
															<pixelaspectratio>square</pixelaspectratio>
															<anamorphic>FALSE</anamorphic>
															<file id="file-270">
																<name>319834_Road Coast Aerial Cars_By_21_Aerials_Artlist_HD.mp4</name>
																<pathurl>file://localhost/Volumes/T7/DRONE_08.18.2023/3_Raw%20Files/Lagos,%20Portugal/319834_Road%20Coast%20Aerial%20Cars_By_21_Aerials_Artlist_HD.mp4</pathurl>
																<rate>
																	<timebase>30</timebase>
																	<ntsc>TRUE</ntsc>
																</rate>
																<duration>241</duration>
																<timecode>
																	<rate>
																		<timebase>30</timebase>
																		<ntsc>TRUE</ntsc>
																	</rate>
																	<string>00:00:00:00</string>
																	<frame>0</frame>
																	<displayformat>NDF</displayformat>
																</timecode>
																<media>
																	<video>
																		<samplecharacteristics>
																			<rate>
																				<timebase>30</timebase>
																				<ntsc>TRUE</ntsc>
																			</rate>
																			<width>1920</width>
																			<height>1080</height>
																			<anamorphic>FALSE</anamorphic>
																			<pixelaspectratio>square</pixelaspectratio>
																			<fielddominance>none</fielddominance>
																		</samplecharacteristics>
																	</video>
																</media>
															</file>
															<logginginfo>
																<description></description>
																<scene></scene>
																<shottake></shottake>
																<lognote></lognote>
																<good></good>
																<originalvideofilename></originalvideofilename>
																<originalaudiofilename></originalaudiofilename>
															</logginginfo>
															<colorinfo>
																<lut></lut>
																<lut1></lut1>
																<asc_sop></asc_sop>
																<asc_sat></asc_sat>
																<lut2></lut2>
															</colorinfo>
															<labels>
																<label2>Violet</label2>
															</labels>
														</clipitem>
														<clipitem id="clipitem-510">
															<masterclipid>masterclip-291</masterclipid>
															<name>319830_Town Buildings Waterway Ocean Canal Lagos_By_21_Aerials_Artlist_HD.mp4</name>
															<enabled>TRUE</enabled>
															<duration>394</duration>
															<rate>
																<timebase>30</timebase>
																<ntsc>TRUE</ntsc>
															</rate>
															<start>2665</start>
															<end>3013</end>
															<in>0</in>
															<out>348</out>
															<pproTicksIn>0</pproTicksIn>
															<pproTicksOut>2949532185600</pproTicksOut>
															<alphatype>none</alphatype>
															<file id="file-265"/>
															<logginginfo>
																<description></description>
																<scene></scene>
																<shottake></shottake>
																<lognote></lognote>
																<good></good>
																<originalvideofilename></originalvideofilename>
																<originalaudiofilename></originalaudiofilename>
															</logginginfo>
															<colorinfo>
																<lut></lut>
																<lut1></lut1>
																<asc_sop></asc_sop>
																<asc_sat></asc_sat>
																<lut2></lut2>
															</colorinfo>
															<labels>
																<label2>Violet</label2>
															</labels>
														</clipitem>
														<clipitem id="clipitem-511">
															<masterclipid>masterclip-297</masterclipid>
															<name>319793_Cliff Coast Beacon Ocean_By_21_Aerials_Artlist_HD.mp4</name>
															<enabled>TRUE</enabled>
															<duration>618</duration>
															<rate>
																<timebase>30</timebase>
																<ntsc>TRUE</ntsc>
															</rate>
															<start>3013</start>
															<end>3286</end>
															<in>0</in>
															<out>273</out>
															<pproTicksIn>0</pproTicksIn>
															<pproTicksOut>2313857145600</pproTicksOut>
															<alphatype>none</alphatype>
															<pixelaspectratio>square</pixelaspectratio>
															<anamorphic>FALSE</anamorphic>
															<file id="file-271">
																<name>319793_Cliff Coast Beacon Ocean_By_21_Aerials_Artlist_HD.mp4</name>
																<pathurl>file://localhost/Volumes/T7/DRONE_08.18.2023/3_Raw%20Files/Lagos,%20Portugal/319793_Cliff%20Coast%20Beacon%20Ocean_By_21_Aerials_Artlist_HD.mp4</pathurl>
																<rate>
																	<timebase>30</timebase>
																	<ntsc>TRUE</ntsc>
																</rate>
																<duration>618</duration>
																<timecode>
																	<rate>
																		<timebase>30</timebase>
																		<ntsc>TRUE</ntsc>
																	</rate>
																	<string>00:00:00:00</string>
																	<frame>0</frame>
																	<displayformat>NDF</displayformat>
																</timecode>
																<media>
																	<video>
																		<samplecharacteristics>
																			<rate>
																				<timebase>30</timebase>
																				<ntsc>TRUE</ntsc>
																			</rate>
																			<width>1920</width>
																			<height>1080</height>
																			<anamorphic>FALSE</anamorphic>
																			<pixelaspectratio>square</pixelaspectratio>
																			<fielddominance>none</fielddominance>
																		</samplecharacteristics>
																	</video>
																</media>
															</file>
															<logginginfo>
																<description></description>
																<scene></scene>
																<shottake></shottake>
																<lognote></lognote>
																<good></good>
																<originalvideofilename></originalvideofilename>
																<originalaudiofilename></originalaudiofilename>
															</logginginfo>
															<colorinfo>
																<lut></lut>
																<lut1></lut1>
																<asc_sop></asc_sop>
																<asc_sat></asc_sat>
																<lut2></lut2>
															</colorinfo>
															<labels>
																<label2>Violet</label2>
															</labels>
														</clipitem>
														<clipitem id="clipitem-512">
															<masterclipid>masterclip-298</masterclipid>
															<name>319812_Town Buildings Lagos Aerial Ocean_By_21_Aerials_Artlist_HD.mp4</name>
															<enabled>TRUE</enabled>
															<duration>645</duration>
															<rate>
																<timebase>30</timebase>
																<ntsc>TRUE</ntsc>
															</rate>
															<start>3286</start>
															<end>3835</end>
															<in>0</in>
															<out>549</out>
															<pproTicksIn>0</pproTicksIn>
															<pproTicksOut>4653141292800</pproTicksOut>
															<alphatype>none</alphatype>
															<pixelaspectratio>square</pixelaspectratio>
															<anamorphic>FALSE</anamorphic>
															<file id="file-272">
																<name>319812_Town Buildings Lagos Aerial Ocean_By_21_Aerials_Artlist_HD.mp4</name>
																<pathurl>file://localhost/Volumes/T7/DRONE_08.18.2023/3_Raw%20Files/Lagos,%20Portugal/319812_Town%20Buildings%20Lagos%20Aerial%20Ocean_By_21_Aerials_Artlist_HD.mp4</pathurl>
																<rate>
																	<timebase>30</timebase>
																	<ntsc>TRUE</ntsc>
																</rate>
																<duration>645</duration>
																<timecode>
																	<rate>
																		<timebase>30</timebase>
																		<ntsc>TRUE</ntsc>
																	</rate>
																	<string>00:00:00:00</string>
																	<frame>0</frame>
																	<displayformat>NDF</displayformat>
																</timecode>
																<media>
																	<video>
																		<samplecharacteristics>
																			<rate>
																				<timebase>30</timebase>
																				<ntsc>TRUE</ntsc>
																			</rate>
																			<width>1920</width>
																			<height>1080</height>
																			<anamorphic>FALSE</anamorphic>
																			<pixelaspectratio>square</pixelaspectratio>
																			<fielddominance>none</fielddominance>
																		</samplecharacteristics>
																	</video>
																</media>
															</file>
															<logginginfo>
																<description></description>
																<scene></scene>
																<shottake></shottake>
																<lognote></lognote>
																<good></good>
																<originalvideofilename></originalvideofilename>
																<originalaudiofilename></originalaudiofilename>
															</logginginfo>
															<colorinfo>
																<lut></lut>
																<lut1></lut1>
																<asc_sop></asc_sop>
																<asc_sat></asc_sat>
																<lut2></lut2>
															</colorinfo>
															<labels>
																<label2>Violet</label2>
															</labels>
														</clipitem>
														<clipitem id="clipitem-513">
															<masterclipid>masterclip-299</masterclipid>
															<name>319802_Coast Ocean Cliff Aerial_By_21_Aerials_Artlist_HD.mp4</name>
															<enabled>TRUE</enabled>
															<duration>731</duration>
															<rate>
																<timebase>30</timebase>
																<ntsc>TRUE</ntsc>
															</rate>
															<start>3835</start>
															<end>4380</end>
															<in>0</in>
															<out>545</out>
															<pproTicksIn>0</pproTicksIn>
															<pproTicksOut>4619238624000</pproTicksOut>
															<alphatype>none</alphatype>
															<pixelaspectratio>square</pixelaspectratio>
															<anamorphic>FALSE</anamorphic>
															<file id="file-273">
																<name>319802_Coast Ocean Cliff Aerial_By_21_Aerials_Artlist_HD.mp4</name>
																<pathurl>file://localhost/Volumes/T7/DRONE_08.18.2023/3_Raw%20Files/Lagos,%20Portugal/319802_Coast%20Ocean%20Cliff%20Aerial_By_21_Aerials_Artlist_HD.mp4</pathurl>
																<rate>
																	<timebase>30</timebase>
																	<ntsc>TRUE</ntsc>
																</rate>
																<duration>731</duration>
																<timecode>
																	<rate>
																		<timebase>30</timebase>
																		<ntsc>TRUE</ntsc>
																	</rate>
																	<string>00:00:00:00</string>
																	<frame>0</frame>
																	<displayformat>NDF</displayformat>
																</timecode>
																<media>
																	<video>
																		<samplecharacteristics>
																			<rate>
																				<timebase>30</timebase>
																				<ntsc>TRUE</ntsc>
																			</rate>
																			<width>1920</width>
																			<height>1080</height>
																			<anamorphic>FALSE</anamorphic>
																			<pixelaspectratio>square</pixelaspectratio>
																			<fielddominance>none</fielddominance>
																		</samplecharacteristics>
																	</video>
																</media>
															</file>
															<logginginfo>
																<description></description>
																<scene></scene>
																<shottake></shottake>
																<lognote></lognote>
																<good></good>
																<originalvideofilename></originalvideofilename>
																<originalaudiofilename></originalaudiofilename>
															</logginginfo>
															<colorinfo>
																<lut></lut>
																<lut1></lut1>
																<asc_sop></asc_sop>
																<asc_sat></asc_sat>
																<lut2></lut2>
															</colorinfo>
															<labels>
																<label2>Violet</label2>
															</labels>
														</clipitem>
														<clipitem id="clipitem-514">
															<masterclipid>masterclip-300</masterclipid>
															<name>319839_Cliff Coast Erosion Beach_By_21_Aerials_Artlist_HD.mp4</name>
															<enabled>TRUE</enabled>
															<duration>441</duration>
															<rate>
																<timebase>30</timebase>
																<ntsc>TRUE</ntsc>
															</rate>
															<start>4380</start>
															<end>4792</end>
															<in>0</in>
															<out>412</out>
															<pproTicksIn>0</pproTicksIn>
															<pproTicksOut>3491974886400</pproTicksOut>
															<alphatype>none</alphatype>
															<pixelaspectratio>square</pixelaspectratio>
															<anamorphic>FALSE</anamorphic>
															<file id="file-274">
																<name>319839_Cliff Coast Erosion Beach_By_21_Aerials_Artlist_HD.mp4</name>
																<pathurl>file://localhost/Volumes/T7/DRONE_08.18.2023/3_Raw%20Files/Lagos,%20Portugal/319839_Cliff%20Coast%20Erosion%20Beach_By_21_Aerials_Artlist_HD.mp4</pathurl>
																<rate>
																	<timebase>30</timebase>
																	<ntsc>TRUE</ntsc>
																</rate>
																<duration>441</duration>
																<timecode>
																	<rate>
																		<timebase>30</timebase>
																		<ntsc>TRUE</ntsc>
																	</rate>
																	<string>00:00:00:00</string>
																	<frame>0</frame>
																	<displayformat>NDF</displayformat>
																</timecode>
																<media>
																	<video>
																		<samplecharacteristics>
																			<rate>
																				<timebase>30</timebase>
																				<ntsc>TRUE</ntsc>
																			</rate>
																			<width>1920</width>
																			<height>1080</height>
																			<anamorphic>FALSE</anamorphic>
																			<pixelaspectratio>square</pixelaspectratio>
																			<fielddominance>none</fielddominance>
																		</samplecharacteristics>
																	</video>
																</media>
															</file>
															<logginginfo>
																<description></description>
																<scene></scene>
																<shottake></shottake>
																<lognote></lognote>
																<good></good>
																<originalvideofilename></originalvideofilename>
																<originalaudiofilename></originalaudiofilename>
															</logginginfo>
															<colorinfo>
																<lut></lut>
																<lut1></lut1>
																<asc_sop></asc_sop>
																<asc_sat></asc_sat>
																<lut2></lut2>
															</colorinfo>
															<labels>
																<label2>Violet</label2>
															</labels>
														</clipitem>
														<clipitem id="clipitem-515">
															<masterclipid>masterclip-301</masterclipid>
															<name>319811_Rooftops Residential Aerial Neighborhood_By_21_Aerials_Artlist_HD.mp4</name>
															<enabled>TRUE</enabled>
															<duration>587</duration>
															<rate>
																<timebase>30</timebase>
																<ntsc>TRUE</ntsc>
															</rate>
															<start>4792</start>
															<end>5184</end>
															<in>0</in>
															<out>392</out>
															<pproTicksIn>0</pproTicksIn>
															<pproTicksOut>3322461542400</pproTicksOut>
															<alphatype>none</alphatype>
															<pixelaspectratio>square</pixelaspectratio>
															<anamorphic>FALSE</anamorphic>
															<file id="file-275">
																<name>319811_Rooftops Residential Aerial Neighborhood_By_21_Aerials_Artlist_HD.mp4</name>
																<pathurl>file://localhost/Volumes/T7/DRONE_08.18.2023/3_Raw%20Files/Lagos,%20Portugal/319811_Rooftops%20Residential%20Aerial%20Neighborhood_By_21_Aerials_Artlist_HD.mp4</pathurl>
																<rate>
																	<timebase>30</timebase>
																	<ntsc>TRUE</ntsc>
																</rate>
																<duration>587</duration>
																<timecode>
																	<rate>
																		<timebase>30</timebase>
																		<ntsc>TRUE</ntsc>
																	</rate>
																	<string>00:00:00:00</string>
																	<frame>0</frame>
																	<displayformat>NDF</displayformat>
																</timecode>
																<media>
																	<video>
																		<samplecharacteristics>
																			<rate>
																				<timebase>30</timebase>
																				<ntsc>TRUE</ntsc>
																			</rate>
																			<width>1920</width>
																			<height>1080</height>
																			<anamorphic>FALSE</anamorphic>
																			<pixelaspectratio>square</pixelaspectratio>
																			<fielddominance>none</fielddominance>
																		</samplecharacteristics>
																	</video>
																</media>
															</file>
															<logginginfo>
																<description></description>
																<scene></scene>
																<shottake></shottake>
																<lognote></lognote>
																<good></good>
																<originalvideofilename></originalvideofilename>
																<originalaudiofilename></originalaudiofilename>
															</logginginfo>
															<colorinfo>
																<lut></lut>
																<lut1></lut1>
																<asc_sop></asc_sop>
																<asc_sat></asc_sat>
																<lut2></lut2>
															</colorinfo>
															<labels>
																<label2>Violet</label2>
															</labels>
														</clipitem>
														<enabled>TRUE</enabled>
														<locked>FALSE</locked>
													</track>
													<track TL.SQTrackShy="0" TL.SQTrackExpandedHeight="25" TL.SQTrackExpanded="0" MZ.TrackTargeted="0">
														<enabled>TRUE</enabled>
														<locked>FALSE</locked>
													</track>
													<track TL.SQTrackShy="0" TL.SQTrackExpandedHeight="25" TL.SQTrackExpanded="0" MZ.TrackTargeted="0">
														<enabled>TRUE</enabled>
														<locked>FALSE</locked>
													</track>
												</video>
												<audio>
													<numOutputChannels>2</numOutputChannels>
													<format>
														<samplecharacteristics>
															<depth>16</depth>
															<samplerate>48000</samplerate>
														</samplecharacteristics>
													</format>
													<outputs>
														<group>
															<index>1</index>
															<numchannels>1</numchannels>
															<downmix>0</downmix>
															<channel>
																<index>1</index>
															</channel>
														</group>
														<group>
															<index>2</index>
															<numchannels>1</numchannels>
															<downmix>0</downmix>
															<channel>
																<index>2</index>
															</channel>
														</group>
													</outputs>
													<track TL.SQTrackAudioKeyframeStyle="0" TL.SQTrackShy="0" TL.SQTrackExpandedHeight="25" TL.SQTrackExpanded="0" MZ.TrackTargeted="1" PannerCurrentValue="0.5" PannerIsInverted="true" PannerStartKeyframe="-91445760000000000,0.5,0,0,0,0,0,0" PannerName="Balance" currentExplodedTrackIndex="0" totalExplodedTrackCount="2" premiereTrackType="Stereo">
														<enabled>TRUE</enabled>
														<locked>FALSE</locked>
														<outputchannelindex>1</outputchannelindex>
													</track>
													<track TL.SQTrackAudioKeyframeStyle="0" TL.SQTrackShy="0" TL.SQTrackExpandedHeight="25" TL.SQTrackExpanded="0" MZ.TrackTargeted="1" PannerCurrentValue="0.5" PannerIsInverted="true" PannerStartKeyframe="-91445760000000000,0.5,0,0,0,0,0,0" PannerName="Balance" currentExplodedTrackIndex="1" totalExplodedTrackCount="2" premiereTrackType="Stereo">
														<enabled>TRUE</enabled>
														<locked>FALSE</locked>
														<outputchannelindex>2</outputchannelindex>
													</track>
													<track TL.SQTrackAudioKeyframeStyle="0" TL.SQTrackShy="0" TL.SQTrackExpandedHeight="25" TL.SQTrackExpanded="0" MZ.TrackTargeted="1" PannerCurrentValue="0.5" PannerIsInverted="true" PannerStartKeyframe="-91445760000000000,0.5,0,0,0,0,0,0" PannerName="Balance" currentExplodedTrackIndex="0" totalExplodedTrackCount="2" premiereTrackType="Stereo">
														<enabled>TRUE</enabled>
														<locked>FALSE</locked>
														<outputchannelindex>1</outputchannelindex>
													</track>
													<track TL.SQTrackAudioKeyframeStyle="0" TL.SQTrackShy="0" TL.SQTrackExpandedHeight="25" TL.SQTrackExpanded="0" MZ.TrackTargeted="1" PannerCurrentValue="0.5" PannerIsInverted="true" PannerStartKeyframe="-91445760000000000,0.5,0,0,0,0,0,0" PannerName="Balance" currentExplodedTrackIndex="1" totalExplodedTrackCount="2" premiereTrackType="Stereo">
														<enabled>TRUE</enabled>
														<locked>FALSE</locked>
														<outputchannelindex>2</outputchannelindex>
													</track>
													<track TL.SQTrackAudioKeyframeStyle="0" TL.SQTrackShy="0" TL.SQTrackExpandedHeight="25" TL.SQTrackExpanded="0" MZ.TrackTargeted="1" PannerCurrentValue="0.5" PannerIsInverted="true" PannerStartKeyframe="-91445760000000000,0.5,0,0,0,0,0,0" PannerName="Balance" currentExplodedTrackIndex="0" totalExplodedTrackCount="2" premiereTrackType="Stereo">
														<enabled>TRUE</enabled>
														<locked>FALSE</locked>
														<outputchannelindex>1</outputchannelindex>
													</track>
													<track TL.SQTrackAudioKeyframeStyle="0" TL.SQTrackShy="0" TL.SQTrackExpandedHeight="25" TL.SQTrackExpanded="0" MZ.TrackTargeted="1" PannerCurrentValue="0.5" PannerIsInverted="true" PannerStartKeyframe="-91445760000000000,0.5,0,0,0,0,0,0" PannerName="Balance" currentExplodedTrackIndex="1" totalExplodedTrackCount="2" premiereTrackType="Stereo">
														<enabled>TRUE</enabled>
														<locked>FALSE</locked>
														<outputchannelindex>2</outputchannelindex>
													</track>
												</audio>
											</media>
											<timecode>
												<rate>
													<timebase>30</timebase>
													<ntsc>TRUE</ntsc>
												</rate>
												<string>00;00;00;00</string>
												<frame>0</frame>
												<displayformat>DF</displayformat>
											</timecode>
											<logginginfo>
												<description></description>
												<scene></scene>
												<shottake></shottake>
												<lognote></lognote>
												<good></good>
												<originalvideofilename></originalvideofilename>
												<originalaudiofilename></originalaudiofilename>
											</logginginfo>
											<filter>
												<effect>
													<name>Audio Levels</name>
													<effectid>audiolevels</effectid>
													<effectcategory>audiolevels</effectcategory>
													<effecttype>audiolevels</effecttype>
													<mediatype>audio</mediatype>
													<parameter authoringApp="PremierePro">
														<parameterid>level</parameterid>
														<name>Level</name>
														<valuemin>0</valuemin>
														<valuemax>3.98109</valuemax>
														<value>0.839406</value>
													</parameter>
												</effect>
											</filter>
										</sequence>
										<link>
											<linkclipref>clipitem-500</linkclipref>
											<mediatype>video</mediatype>
											<trackindex>1</trackindex>
											<clipindex>1</clipindex>
										</link>
										<link>
											<linkclipref>clipitem-520</linkclipref>
											<mediatype>audio</mediatype>
											<trackindex>1</trackindex>
											<clipindex>1</clipindex>
											<groupindex>1</groupindex>
										</link>
										<link>
											<linkclipref>clipitem-522</linkclipref>
											<mediatype>audio</mediatype>
											<trackindex>2</trackindex>
											<clipindex>1</clipindex>
											<groupindex>1</groupindex>
										</link>
										<labels>
											<label2>Forest</label2>
										</labels>
									</clipitem>
									<clipitem id="clipitem-516">
										<masterclipid>masterclip-302</masterclipid>
										<name>ATM_YouAreWatching_3.mp4</name>
										<enabled>TRUE</enabled>
										<duration>299</duration>
										<rate>
											<timebase>30</timebase>
											<ntsc>TRUE</ntsc>
										</rate>
										<start>5184</start>
										<end>5483</end>
										<in>0</in>
										<out>299</out>
										<pproTicksIn>0</pproTicksIn>
										<pproTicksOut>2534224492800</pproTicksOut>
										<alphatype>none</alphatype>
										<pixelaspectratio>square</pixelaspectratio>
										<anamorphic>FALSE</anamorphic>
										<file id="file-276">
											<name>ATM_YouAreWatching_3.mp4</name>
											<pathurl>file://localhost/Volumes/T7/DRONE_08.18.2023/4_Project%20Files/Drone%202023%20Master%20Assets/ATM_YouAreWatching_3.mp4</pathurl>
											<rate>
												<timebase>30</timebase>
												<ntsc>FALSE</ntsc>
											</rate>
											<duration>300</duration>
											<timecode>
												<rate>
													<timebase>30</timebase>
													<ntsc>FALSE</ntsc>
												</rate>
												<string>00:00:00:00</string>
												<frame>0</frame>
												<displayformat>NDF</displayformat>
											</timecode>
											<media>
												<video>
													<samplecharacteristics>
														<rate>
															<timebase>30</timebase>
															<ntsc>FALSE</ntsc>
														</rate>
														<width>1920</width>
														<height>1080</height>
														<anamorphic>FALSE</anamorphic>
														<pixelaspectratio>square</pixelaspectratio>
														<fielddominance>none</fielddominance>
													</samplecharacteristics>
												</video>
												<audio>
													<samplecharacteristics>
														<depth>16</depth>
														<samplerate>48000</samplerate>
													</samplecharacteristics>
													<channelcount>2</channelcount>
												</audio>
											</media>
										</file>
										<link>
											<linkclipref>clipitem-516</linkclipref>
											<mediatype>video</mediatype>
											<trackindex>1</trackindex>
											<clipindex>2</clipindex>
										</link>
										<link>
											<linkclipref>clipitem-521</linkclipref>
											<mediatype>audio</mediatype>
											<trackindex>1</trackindex>
											<clipindex>2</clipindex>
											<groupindex>1</groupindex>
										</link>
										<link>
											<linkclipref>clipitem-523</linkclipref>
											<mediatype>audio</mediatype>
											<trackindex>2</trackindex>
											<clipindex>2</clipindex>
											<groupindex>1</groupindex>
										</link>
										<logginginfo>
											<description></description>
											<scene></scene>
											<shottake></shottake>
											<lognote></lognote>
											<good></good>
											<originalvideofilename></originalvideofilename>
											<originalaudiofilename></originalaudiofilename>
										</logginginfo>
										<colorinfo>
											<lut></lut>
											<lut1></lut1>
											<asc_sop></asc_sop>
											<asc_sat></asc_sat>
											<lut2></lut2>
										</colorinfo>
										<labels>
											<label2>Iris</label2>
										</labels>
									</clipitem>
									<enabled>TRUE</enabled>
									<locked>FALSE</locked>
								</track>
								<track TL.SQTrackShy="0" TL.SQTrackExpandedHeight="25" TL.SQTrackExpanded="0" MZ.TrackTargeted="0">
									<transitionitem>
										<start>0</start>
										<end>15</end>
										<alignment>start-black</alignment>
										<cutPointTicks>0</cutPointTicks>
										<rate>
											<timebase>30</timebase>
											<ntsc>TRUE</ntsc>
										</rate>
										<effect>
											<name>Cross Dissolve</name>
											<effectid>Cross Dissolve</effectid>
											<effectcategory>Dissolve</effectcategory>
											<effecttype>transition</effecttype>
											<mediatype>video</mediatype>
											<wipecode>0</wipecode>
											<wipeaccuracy>100</wipeaccuracy>
											<startratio>0</startratio>
											<endratio>1</endratio>
											<reverse>FALSE</reverse>
										</effect>
									</transitionitem>
									<clipitem id="clipitem-517">
										<masterclipid>masterclip-303</masterclipid>
										<name>Lagos on the Coast</name>
										<enabled>TRUE</enabled>
										<duration>5694</duration>
										<rate>
											<timebase>30</timebase>
											<ntsc>TRUE</ntsc>
										</rate>
										<start>-1</start>
										<end>-1</end>
										<in>0</in>
										<out>5184</out>
										<pproTicksIn>0</pproTicksIn>
										<pproTicksOut>43937858764800</pproTicksOut>
										<alphatype>straight</alphatype>
										<pixelaspectratio>square</pixelaspectratio>
										<anamorphic>FALSE</anamorphic>
										<file id="file-277">
											<name>DRONE_LOWER_A/NEW DRONE L3.aep</name>
											<pathurl>file://localhost/Volumes/T7/DRONE_08.18.2023/4_Project%20Files/Drone%202023%20Master%20Assets/01_Bugs/NEW%20DRONE%20L3/NEW%20DRONE%20L3.aep</pathurl>
											<rate>
												<timebase>30</timebase>
												<ntsc>TRUE</ntsc>
											</rate>
											<duration>5694</duration>
											<timecode>
												<rate>
													<timebase>30</timebase>
													<ntsc>TRUE</ntsc>
												</rate>
												<string>00;00;00;00</string>
												<frame>0</frame>
												<displayformat>DF</displayformat>
											</timecode>
											<media>
												<video>
													<samplecharacteristics>
														<rate>
															<timebase>30</timebase>
															<ntsc>TRUE</ntsc>
														</rate>
														<width>1920</width>
														<height>1080</height>
														<anamorphic>FALSE</anamorphic>
														<pixelaspectratio>square</pixelaspectratio>
														<fielddominance>lower</fielddominance>
													</samplecharacteristics>
												</video>
											</media>
										</file>
										<logginginfo>
											<description></description>
											<scene></scene>
											<shottake></shottake>
											<lognote></lognote>
											<good></good>
											<originalvideofilename></originalvideofilename>
											<originalaudiofilename></originalaudiofilename>
										</logginginfo>
										<colorinfo>
											<lut></lut>
											<lut1></lut1>
											<asc_sop></asc_sop>
											<asc_sat></asc_sat>
											<lut2></lut2>
										</colorinfo>
										<labels>
											<label2>Rose</label2>
										</labels>
									</clipitem>
									<transitionitem>
										<start>5169</start>
										<end>5184</end>
										<alignment>end-black</alignment>
										<cutPointTicks>127135008000</cutPointTicks>
										<rate>
											<timebase>30</timebase>
											<ntsc>TRUE</ntsc>
										</rate>
										<effect>
											<name>Cross Dissolve</name>
											<effectid>Cross Dissolve</effectid>
											<effectcategory>Dissolve</effectcategory>
											<effecttype>transition</effecttype>
											<mediatype>video</mediatype>
											<wipecode>0</wipecode>
											<wipeaccuracy>100</wipeaccuracy>
											<startratio>0</startratio>
											<endratio>1</endratio>
											<reverse>FALSE</reverse>
										</effect>
									</transitionitem>
									<enabled>TRUE</enabled>
									<locked>FALSE</locked>
								</track>
								<track TL.SQTrackShy="0" TL.SQTrackExpandedHeight="25" TL.SQTrackExpanded="0" MZ.TrackTargeted="0">
									<clipitem id="clipitem-518">
										<masterclipid>masterclip-304</masterclipid>
										<name>Lagos, Portugal</name>
										<enabled>TRUE</enabled>
										<duration>5694</duration>
										<rate>
											<timebase>30</timebase>
											<ntsc>TRUE</ntsc>
										</rate>
										<start>264</start>
										<end>5184</end>
										<in>0</in>
										<out>4920</out>
										<pproTicksIn>0</pproTicksIn>
										<pproTicksOut>41700282624000</pproTicksOut>
										<alphatype>straight</alphatype>
										<pixelaspectratio>square</pixelaspectratio>
										<anamorphic>FALSE</anamorphic>
										<file id="file-278">
											<name>DRONE_PIN/DRONE_PIN.aep</name>
											<pathurl>file://localhost/Volumes/T7/DRONE_08.18.2023/4_Project%20Files/Drone%202023%20Master%20Assets/01_Bugs/DRIVE_LOCATION%20PIN/DRONE_PIN.aep</pathurl>
											<rate>
												<timebase>30</timebase>
												<ntsc>TRUE</ntsc>
											</rate>
											<duration>5694</duration>
											<timecode>
												<rate>
													<timebase>30</timebase>
													<ntsc>TRUE</ntsc>
												</rate>
												<string>00;00;00;00</string>
												<frame>0</frame>
												<displayformat>DF</displayformat>
											</timecode>
											<media>
												<video>
													<samplecharacteristics>
														<rate>
															<timebase>30</timebase>
															<ntsc>TRUE</ntsc>
														</rate>
														<width>1920</width>
														<height>1080</height>
														<anamorphic>FALSE</anamorphic>
														<pixelaspectratio>square</pixelaspectratio>
														<fielddominance>lower</fielddominance>
													</samplecharacteristics>
												</video>
											</media>
										</file>
										<logginginfo>
											<description></description>
											<scene></scene>
											<shottake></shottake>
											<lognote></lognote>
											<good></good>
											<originalvideofilename></originalvideofilename>
											<originalaudiofilename></originalaudiofilename>
										</logginginfo>
										<colorinfo>
											<lut></lut>
											<lut1></lut1>
											<asc_sop></asc_sop>
											<asc_sat></asc_sat>
											<lut2></lut2>
										</colorinfo>
										<labels>
											<label2>Cerulean</label2>
										</labels>
									</clipitem>
									<enabled>TRUE</enabled>
									<locked>FALSE</locked>
								</track>
								<track TL.SQTrackShy="0" TL.SQTrackExpandedHeight="25" TL.SQTrackExpanded="0" MZ.TrackTargeted="0">
									<clipitem id="clipitem-519">
										<masterclipid>masterclip-153</masterclipid>
										<name>ATM BUG</name>
										<enabled>TRUE</enabled>
										<duration>5818</duration>
										<rate>
											<timebase>30</timebase>
											<ntsc>TRUE</ntsc>
										</rate>
										<start>0</start>
										<end>5184</end>
										<in>0</in>
										<out>5184</out>
										<pproTicksIn>0</pproTicksIn>
										<pproTicksOut>43937858764800</pproTicksOut>
										<sequence id="sequence-5"/>
										<labels>
											<label2>Violet</label2>
										</labels>
									</clipitem>
									<enabled>TRUE</enabled>
									<locked>FALSE</locked>
								</track>
								<track TL.SQTrackShy="0" TL.SQTrackExpandedHeight="25" TL.SQTrackExpanded="0" MZ.TrackTargeted="0">
									<enabled>TRUE</enabled>
									<locked>FALSE</locked>
								</track>
							</video>
							<audio>
								<numOutputChannels>2</numOutputChannels>
								<format>
									<samplecharacteristics>
										<depth>16</depth>
										<samplerate>32000</samplerate>
									</samplecharacteristics>
								</format>
								<outputs>
									<group>
										<index>1</index>
										<numchannels>1</numchannels>
										<downmix>0</downmix>
										<channel>
											<index>1</index>
										</channel>
									</group>
									<group>
										<index>2</index>
										<numchannels>1</numchannels>
										<downmix>0</downmix>
										<channel>
											<index>2</index>
										</channel>
									</group>
								</outputs>
								<track TL.SQTrackAudioKeyframeStyle="0" TL.SQTrackShy="0" TL.SQTrackExpandedHeight="25" TL.SQTrackExpanded="0" MZ.TrackTargeted="1" PannerCurrentValue="0.5" PannerIsInverted="true" PannerStartKeyframe="-91445760000000000,0.5,0,0,0,0,0,0" PannerName="Balance" currentExplodedTrackIndex="0" totalExplodedTrackCount="2" premiereTrackType="Stereo">
									<clipitem id="clipitem-520" premiereChannelType="stereo">
										<masterclipid>masterclip-287</masterclipid>
										<name>DRONE_Lagos on the Coast_3</name>
										<enabled>TRUE</enabled>
										<duration>6027</duration>
										<rate>
											<timebase>30</timebase>
											<ntsc>TRUE</ntsc>
										</rate>
										<start>0</start>
										<end>5184</end>
										<in>0</in>
										<out>5184</out>
										<pproTicksIn>0</pproTicksIn>
										<pproTicksOut>43937858764800</pproTicksOut>
										<sequence id="sequence-34"/>
										<sourcetrack>
											<mediatype>audio</mediatype>
											<trackindex>0</trackindex>
										</sourcetrack>
										<link>
											<linkclipref>clipitem-500</linkclipref>
											<mediatype>video</mediatype>
											<trackindex>1</trackindex>
											<clipindex>1</clipindex>
										</link>
										<link>
											<linkclipref>clipitem-520</linkclipref>
											<mediatype>audio</mediatype>
											<trackindex>1</trackindex>
											<clipindex>1</clipindex>
											<groupindex>1</groupindex>
										</link>
										<link>
											<linkclipref>clipitem-522</linkclipref>
											<mediatype>audio</mediatype>
											<trackindex>2</trackindex>
											<clipindex>1</clipindex>
											<groupindex>1</groupindex>
										</link>
										<labels>
											<label2>Forest</label2>
										</labels>
									</clipitem>
									<clipitem id="clipitem-521" premiereChannelType="stereo">
										<masterclipid>masterclip-302</masterclipid>
										<name>ATM_YouAreWatching_3.mp4</name>
										<enabled>TRUE</enabled>
										<duration>299</duration>
										<rate>
											<timebase>30</timebase>
											<ntsc>TRUE</ntsc>
										</rate>
										<start>5184</start>
										<end>5483</end>
										<in>0</in>
										<out>299</out>
										<pproTicksIn>0</pproTicksIn>
										<pproTicksOut>2534224492800</pproTicksOut>
										<file id="file-276"/>
										<sourcetrack>
											<mediatype>audio</mediatype>
											<trackindex>1</trackindex>
										</sourcetrack>
										<filter>
											<effect>
												<name>Audio Levels</name>
												<effectid>audiolevels</effectid>
												<effectcategory>audiolevels</effectcategory>
												<effecttype>audiolevels</effecttype>
												<mediatype>audio</mediatype>
												<pproBypass>false</pproBypass>
												<parameter authoringApp="PremierePro">
													<parameterid>level</parameterid>
													<name>Level</name>
													<valuemin>0</valuemin>
													<valuemax>3.98109</valuemax>
													<value>0.354813</value>
												</parameter>
											</effect>
										</filter>
										<link>
											<linkclipref>clipitem-516</linkclipref>
											<mediatype>video</mediatype>
											<trackindex>1</trackindex>
											<clipindex>2</clipindex>
										</link>
										<link>
											<linkclipref>clipitem-521</linkclipref>
											<mediatype>audio</mediatype>
											<trackindex>1</trackindex>
											<clipindex>2</clipindex>
											<groupindex>1</groupindex>
										</link>
										<link>
											<linkclipref>clipitem-523</linkclipref>
											<mediatype>audio</mediatype>
											<trackindex>2</trackindex>
											<clipindex>2</clipindex>
											<groupindex>1</groupindex>
										</link>
										<logginginfo>
											<description></description>
											<scene></scene>
											<shottake></shottake>
											<lognote></lognote>
											<good></good>
											<originalvideofilename></originalvideofilename>
											<originalaudiofilename></originalaudiofilename>
										</logginginfo>
										<colorinfo>
											<lut></lut>
											<lut1></lut1>
											<asc_sop></asc_sop>
											<asc_sat></asc_sat>
											<lut2></lut2>
										</colorinfo>
										<labels>
											<label2>Iris</label2>
										</labels>
									</clipitem>
									<enabled>TRUE</enabled>
									<locked>FALSE</locked>
									<outputchannelindex>1</outputchannelindex>
								</track>
								<track TL.SQTrackAudioKeyframeStyle="0" TL.SQTrackShy="0" TL.SQTrackExpandedHeight="25" TL.SQTrackExpanded="0" MZ.TrackTargeted="1" PannerCurrentValue="0.5" PannerIsInverted="true" PannerStartKeyframe="-91445760000000000,0.5,0,0,0,0,0,0" PannerName="Balance" currentExplodedTrackIndex="1" totalExplodedTrackCount="2" premiereTrackType="Stereo">
									<clipitem id="clipitem-522" premiereChannelType="stereo">
										<masterclipid>masterclip-287</masterclipid>
										<name>DRONE_Lagos on the Coast_3</name>
										<enabled>TRUE</enabled>
										<duration>6027</duration>
										<rate>
											<timebase>30</timebase>
											<ntsc>TRUE</ntsc>
										</rate>
										<start>0</start>
										<end>5184</end>
										<in>0</in>
										<out>5184</out>
										<pproTicksIn>0</pproTicksIn>
										<pproTicksOut>43937858764800</pproTicksOut>
										<sequence id="sequence-34"/>
										<sourcetrack>
											<mediatype>audio</mediatype>
											<trackindex>1</trackindex>
										</sourcetrack>
										<link>
											<linkclipref>clipitem-500</linkclipref>
											<mediatype>video</mediatype>
											<trackindex>1</trackindex>
											<clipindex>1</clipindex>
										</link>
										<link>
											<linkclipref>clipitem-520</linkclipref>
											<mediatype>audio</mediatype>
											<trackindex>1</trackindex>
											<clipindex>1</clipindex>
											<groupindex>1</groupindex>
										</link>
										<link>
											<linkclipref>clipitem-522</linkclipref>
											<mediatype>audio</mediatype>
											<trackindex>2</trackindex>
											<clipindex>1</clipindex>
											<groupindex>1</groupindex>
										</link>
										<labels>
											<label2>Forest</label2>
										</labels>
									</clipitem>
									<clipitem id="clipitem-523" premiereChannelType="stereo">
										<masterclipid>masterclip-302</masterclipid>
										<name>ATM_YouAreWatching_3.mp4</name>
										<enabled>TRUE</enabled>
										<duration>299</duration>
										<rate>
											<timebase>30</timebase>
											<ntsc>TRUE</ntsc>
										</rate>
										<start>5184</start>
										<end>5483</end>
										<in>0</in>
										<out>299</out>
										<pproTicksIn>0</pproTicksIn>
										<pproTicksOut>2534224492800</pproTicksOut>
										<file id="file-276"/>
										<sourcetrack>
											<mediatype>audio</mediatype>
											<trackindex>2</trackindex>
										</sourcetrack>
										<filter>
											<effect>
												<name>Audio Levels</name>
												<effectid>audiolevels</effectid>
												<effectcategory>audiolevels</effectcategory>
												<effecttype>audiolevels</effecttype>
												<mediatype>audio</mediatype>
												<pproBypass>false</pproBypass>
												<parameter authoringApp="PremierePro">
													<parameterid>level</parameterid>
													<name>Level</name>
													<valuemin>0</valuemin>
													<valuemax>3.98109</valuemax>
													<value>0.354813</value>
												</parameter>
											</effect>
										</filter>
										<link>
											<linkclipref>clipitem-516</linkclipref>
											<mediatype>video</mediatype>
											<trackindex>1</trackindex>
											<clipindex>2</clipindex>
										</link>
										<link>
											<linkclipref>clipitem-521</linkclipref>
											<mediatype>audio</mediatype>
											<trackindex>1</trackindex>
											<clipindex>2</clipindex>
											<groupindex>1</groupindex>
										</link>
										<link>
											<linkclipref>clipitem-523</linkclipref>
											<mediatype>audio</mediatype>
											<trackindex>2</trackindex>
											<clipindex>2</clipindex>
											<groupindex>1</groupindex>
										</link>
										<logginginfo>
											<description></description>
											<scene></scene>
											<shottake></shottake>
											<lognote></lognote>
											<good></good>
											<originalvideofilename></originalvideofilename>
											<originalaudiofilename></originalaudiofilename>
										</logginginfo>
										<colorinfo>
											<lut></lut>
											<lut1></lut1>
											<asc_sop></asc_sop>
											<asc_sat></asc_sat>
											<lut2></lut2>
										</colorinfo>
										<labels>
											<label2>Iris</label2>
										</labels>
									</clipitem>
									<enabled>TRUE</enabled>
									<locked>FALSE</locked>
									<outputchannelindex>2</outputchannelindex>
								</track>
								<track TL.SQTrackAudioKeyframeStyle="0" TL.SQTrackShy="0" TL.SQTrackExpandedHeight="25" TL.SQTrackExpanded="0" MZ.TrackTargeted="1" PannerCurrentValue="0.5" PannerIsInverted="true" PannerStartKeyframe="-91445760000000000,0.5,0,0,0,0,0,0" PannerName="Balance" currentExplodedTrackIndex="0" totalExplodedTrackCount="2" premiereTrackType="Stereo">
									<enabled>TRUE</enabled>
									<locked>FALSE</locked>
									<outputchannelindex>1</outputchannelindex>
								</track>
								<track TL.SQTrackAudioKeyframeStyle="0" TL.SQTrackShy="0" TL.SQTrackExpandedHeight="25" TL.SQTrackExpanded="0" MZ.TrackTargeted="1" PannerCurrentValue="0.5" PannerIsInverted="true" PannerStartKeyframe="-91445760000000000,0.5,0,0,0,0,0,0" PannerName="Balance" currentExplodedTrackIndex="1" totalExplodedTrackCount="2" premiereTrackType="Stereo">
									<enabled>TRUE</enabled>
									<locked>FALSE</locked>
									<outputchannelindex>2</outputchannelindex>
								</track>
								<track TL.SQTrackAudioKeyframeStyle="0" TL.SQTrackShy="0" TL.SQTrackExpandedHeight="25" TL.SQTrackExpanded="0" MZ.TrackTargeted="1" PannerCurrentValue="0.5" PannerIsInverted="true" PannerStartKeyframe="-91445760000000000,0.5,0,0,0,0,0,0" PannerName="Balance" currentExplodedTrackIndex="0" totalExplodedTrackCount="2" premiereTrackType="Stereo">
									<enabled>TRUE</enabled>
									<locked>FALSE</locked>
									<outputchannelindex>1</outputchannelindex>
								</track>
								<track TL.SQTrackAudioKeyframeStyle="0" TL.SQTrackShy="0" TL.SQTrackExpandedHeight="25" TL.SQTrackExpanded="0" MZ.TrackTargeted="1" PannerCurrentValue="0.5" PannerIsInverted="true" PannerStartKeyframe="-91445760000000000,0.5,0,0,0,0,0,0" PannerName="Balance" currentExplodedTrackIndex="1" totalExplodedTrackCount="2" premiereTrackType="Stereo">
									<enabled>TRUE</enabled>
									<locked>FALSE</locked>
									<outputchannelindex>2</outputchannelindex>
								</track>
								<track TL.SQTrackAudioKeyframeStyle="0" TL.SQTrackShy="0" TL.SQTrackExpandedHeight="25" TL.SQTrackExpanded="0" MZ.TrackTargeted="0" PannerCurrentValue="0.5" PannerIsInverted="true" PannerStartKeyframe="-91445760000000000,0.5,0,0,0,0,0,0" PannerName="Balance" currentExplodedTrackIndex="0" totalExplodedTrackCount="2" premiereTrackType="Stereo">
									<enabled>TRUE</enabled>
									<locked>FALSE</locked>
									<outputchannelindex>1</outputchannelindex>
								</track>
								<track TL.SQTrackAudioKeyframeStyle="0" TL.SQTrackShy="0" TL.SQTrackExpandedHeight="25" TL.SQTrackExpanded="0" MZ.TrackTargeted="0" PannerCurrentValue="0.5" PannerIsInverted="true" PannerStartKeyframe="-91445760000000000,0.5,0,0,0,0,0,0" PannerName="Balance" currentExplodedTrackIndex="1" totalExplodedTrackCount="2" premiereTrackType="Stereo">
									<enabled>TRUE</enabled>
									<locked>FALSE</locked>
									<outputchannelindex>2</outputchannelindex>
								</track>
								<track TL.SQTrackAudioKeyframeStyle="0" TL.SQTrackShy="0" TL.SQTrackExpandedHeight="25" TL.SQTrackExpanded="0" MZ.TrackTargeted="0" PannerCurrentValue="0.5" PannerIsInverted="true" PannerStartKeyframe="-91445760000000000,0.5,0,0,0,0,0,0" PannerName="Balance" currentExplodedTrackIndex="0" totalExplodedTrackCount="2" premiereTrackType="Stereo">
									<enabled>TRUE</enabled>
									<locked>FALSE</locked>
									<outputchannelindex>1</outputchannelindex>
								</track>
								<track TL.SQTrackAudioKeyframeStyle="0" TL.SQTrackShy="0" TL.SQTrackExpandedHeight="25" TL.SQTrackExpanded="0" MZ.TrackTargeted="0" PannerCurrentValue="0.5" PannerIsInverted="true" PannerStartKeyframe="-91445760000000000,0.5,0,0,0,0,0,0" PannerName="Balance" currentExplodedTrackIndex="1" totalExplodedTrackCount="2" premiereTrackType="Stereo">
									<enabled>TRUE</enabled>
									<locked>FALSE</locked>
									<outputchannelindex>2</outputchannelindex>
								</track>
							</audio>
						</media>
						<timecode>
							<rate>
								<timebase>30</timebase>
								<ntsc>TRUE</ntsc>
							</rate>
							<string>00;00;00;00</string>
							<frame>0</frame>
							<displayformat>DF</displayformat>
						</timecode>
							<marker>
								<comment></comment>
								<name></name>
								<in>264</in>
								<out>-1</out>
								<pproColor>4281828977</pproColor>
							</marker>
						<labels>
							<label2>Forest</label2>
						</labels>
						<logginginfo>
							<description></description>
							<scene></scene>
							<shottake></shottake>
							<lognote></lognote>
							<good></good>
							<originalvideofilename></originalvideofilename>
							<originalaudiofilename></originalaudiofilename>
						</logginginfo>
					</sequence>
					<sequence id="sequence-35" TL.SQAudioVisibleBase="0" TL.SQVideoVisibleBase="0" TL.SQVisibleBaseTime="45077691534489" TL.SQAVDividerPosition="0.5" TL.SQHideShyTracks="0" TL.SQHeaderWidth="236" TL.SQDataTrackViewControlState="0" Monitor.ProgramZoomOut="48235022035200" Monitor.ProgramZoomIn="0" TL.SQTimePerPixel="0.02699878239440049" MZ.EditLine="48235022035200" MZ.Sequence.PreviewFrameSizeHeight="1080" MZ.Sequence.PreviewFrameSizeWidth="1920" MZ.Sequence.AudioTimeDisplayFormat="200" MZ.Sequence.PreviewRenderingClassID="1297106761" MZ.Sequence.PreviewRenderingPresetCodec="1297107278" MZ.Sequence.PreviewRenderingPresetPath="EncoderPresets/SequencePreview/795454d9-d3c2-429d-9474-923ab13b7018/I-Frame Only MPEG.epr" MZ.Sequence.PreviewUseMaxRenderQuality="false" MZ.Sequence.PreviewUseMaxBitDepth="false" MZ.Sequence.EditingModeGUID="795454d9-d3c2-429d-9474-923ab13b7018" MZ.Sequence.VideoTimeDisplayFormat="102" MZ.WorkOutPoint="15239249625600" MZ.WorkInPoint="0" explodedTracks="true">
						<uuid>335b19ac-f079-4923-9cd6-ad129193a2f2</uuid>
						<duration>5460</duration>
						<rate>
							<timebase>30</timebase>
							<ntsc>TRUE</ntsc>
						</rate>
						<name>ATM_DRONE_502</name>
						<media>
							<video>
								<format>
									<samplecharacteristics>
										<rate>
											<timebase>30</timebase>
											<ntsc>TRUE</ntsc>
										</rate>
										<codec>
											<name>Apple ProRes 422</name>
											<appspecificdata>
												<appname>Final Cut Pro</appname>
												<appmanufacturer>Apple Inc.</appmanufacturer>
												<appversion>7.0</appversion>
												<data>
													<qtcodec>
														<codecname>Apple ProRes 422</codecname>
														<codectypename>Apple ProRes 422</codectypename>
														<codectypecode>apcn</codectypecode>
														<codecvendorcode>appl</codecvendorcode>
														<spatialquality>1024</spatialquality>
														<temporalquality>0</temporalquality>
														<keyframerate>0</keyframerate>
														<datarate>0</datarate>
													</qtcodec>
												</data>
											</appspecificdata>
										</codec>
										<width>1920</width>
										<height>1080</height>
										<anamorphic>FALSE</anamorphic>
										<pixelaspectratio>square</pixelaspectratio>
										<fielddominance>none</fielddominance>
										<colordepth>24</colordepth>
									</samplecharacteristics>
								</format>
								<track TL.SQTrackShy="0" TL.SQTrackExpandedHeight="25" TL.SQTrackExpanded="0" MZ.TrackTargeted="1">
									<clipitem id="clipitem-524">
										<masterclipid>masterclip-305</masterclipid>
										<name>DRONE_Rainbow Mountain_3</name>
										<enabled>TRUE</enabled>
										<duration>6347</duration>
										<rate>
											<timebase>30</timebase>
											<ntsc>TRUE</ntsc>
										</rate>
										<start>0</start>
										<end>5460</end>
										<in>0</in>
										<out>5460</out>
										<pproTicksIn>0</pproTicksIn>
										<pproTicksOut>46277142912000</pproTicksOut>
										<sequence id="sequence-36" TL.SQAudioVisibleBase="0" TL.SQVideoVisibleBase="0" TL.SQVisibleBaseTime="28788991549078" TL.SQAVDividerPosition="0.5" TL.SQHideShyTracks="0" TL.SQHeaderWidth="236" Monitor.ProgramZoomOut="46548364262400" Monitor.ProgramZoomIn="0" TL.SQTimePerPixel="0.20532859369782783" MZ.EditLine="46548364262400" MZ.Sequence.PreviewFrameSizeHeight="1080" MZ.Sequence.PreviewFrameSizeWidth="1920" MZ.Sequence.AudioTimeDisplayFormat="200" MZ.Sequence.PreviewRenderingClassID="1061109567" MZ.Sequence.PreviewRenderingPresetCodec="1634755443" MZ.Sequence.PreviewRenderingPresetPath="EncoderPresets/SequencePreview/35d109db-457b-43c1-9452-9cb7be9f121c/QuickTime.epr" MZ.Sequence.PreviewUseMaxRenderQuality="false" MZ.Sequence.PreviewUseMaxBitDepth="false" MZ.Sequence.EditingModeGUID="35d109db-457b-43c1-9452-9cb7be9f121c" MZ.Sequence.VideoTimeDisplayFormat="102" MZ.WorkOutPoint="15239249625600" MZ.WorkInPoint="0">
											<duration>5492</duration>
											<rate>
												<timebase>30</timebase>
												<ntsc>TRUE</ntsc>
											</rate>
											<name>DRONE_Rainbow Mountain_3</name>
											<media>
												<video>
													<format>
														<samplecharacteristics>
															<rate>
																<timebase>30</timebase>
																<ntsc>TRUE</ntsc>
															</rate>
															<codec>
																<name>Apple ProRes 422</name>
																<appspecificdata>
																	<appname>Final Cut Pro</appname>
																	<appmanufacturer>Apple Inc.</appmanufacturer>
																	<appversion>7.0</appversion>
																	<data>
																		<qtcodec>
																			<codecname>Apple ProRes 422</codecname>
																			<codectypename>Apple ProRes 422</codectypename>
																			<codectypecode>apcn</codectypecode>
																			<codecvendorcode>appl</codecvendorcode>
																			<spatialquality>1024</spatialquality>
																			<temporalquality>0</temporalquality>
																			<keyframerate>0</keyframerate>
																			<datarate>0</datarate>
																		</qtcodec>
																	</data>
																</appspecificdata>
															</codec>
															<width>1920</width>
															<height>1080</height>
															<anamorphic>FALSE</anamorphic>
															<pixelaspectratio>square</pixelaspectratio>
															<fielddominance>none</fielddominance>
															<colordepth>24</colordepth>
														</samplecharacteristics>
													</format>
													<track TL.SQTrackShy="0" TL.SQTrackExpandedHeight="25" TL.SQTrackExpanded="0" MZ.TrackTargeted="1">
														<clipitem id="clipitem-525">
															<masterclipid>masterclip-306</masterclipid>
															<name>569133_Mountains View Summit Highland_By_Jmg-visuals__Artlist_HD.mp4</name>
															<enabled>TRUE</enabled>
															<duration>626</duration>
															<rate>
																<timebase>30</timebase>
																<ntsc>TRUE</ntsc>
															</rate>
															<start>0</start>
															<end>523</end>
															<in>0</in>
															<out>523</out>
															<pproTicksIn>0</pproTicksIn>
															<pproTicksOut>4432773945600</pproTicksOut>
															<alphatype>none</alphatype>
															<pixelaspectratio>square</pixelaspectratio>
															<anamorphic>FALSE</anamorphic>
															<file id="file-279">
																<name>569133_Mountains View Summit Highland_By_Jmg-visuals__Artlist_HD.mp4</name>
																<pathurl>file://localhost/Volumes/T7/DRONE_08.18.2023/3_Raw%20Files/Rainbow%20Mountains,%20Peru/569133_Mountains%20View%20Summit%20Highland_By_Jmg-visuals__Artlist_HD.mp4</pathurl>
																<rate>
																	<timebase>25</timebase>
																	<ntsc>FALSE</ntsc>
																</rate>
																<duration>523</duration>
																<timecode>
																	<rate>
																		<timebase>25</timebase>
																		<ntsc>FALSE</ntsc>
																	</rate>
																	<string>00:07:55:11</string>
																	<frame>11886</frame>
																	<displayformat>NDF</displayformat>
																</timecode>
																<media>
																	<video>
																		<samplecharacteristics>
																			<rate>
																				<timebase>25</timebase>
																				<ntsc>FALSE</ntsc>
																			</rate>
																			<width>1920</width>
																			<height>1080</height>
																			<anamorphic>FALSE</anamorphic>
																			<pixelaspectratio>square</pixelaspectratio>
																			<fielddominance>none</fielddominance>
																		</samplecharacteristics>
																	</video>
																</media>
															</file>
															<logginginfo>
																<description></description>
																<scene></scene>
																<shottake></shottake>
																<lognote></lognote>
																<good></good>
																<originalvideofilename></originalvideofilename>
																<originalaudiofilename></originalaudiofilename>
															</logginginfo>
															<colorinfo>
																<lut></lut>
																<lut1></lut1>
																<asc_sop></asc_sop>
																<asc_sat></asc_sat>
																<lut2></lut2>
															</colorinfo>
															<labels>
																<label2>Violet</label2>
															</labels>
														</clipitem>
														<clipitem id="clipitem-526">
															<masterclipid>masterclip-307</masterclipid>
															<name>569139_Mountains Fog View Summit_By_Jmg-visuals__Artlist_HD.mp4</name>
															<enabled>TRUE</enabled>
															<duration>841</duration>
															<rate>
																<timebase>30</timebase>
																<ntsc>TRUE</ntsc>
															</rate>
															<start>523</start>
															<end>783</end>
															<in>0</in>
															<out>260</out>
															<pproTicksIn>0</pproTicksIn>
															<pproTicksOut>2203673472000</pproTicksOut>
															<alphatype>none</alphatype>
															<pixelaspectratio>square</pixelaspectratio>
															<anamorphic>FALSE</anamorphic>
															<file id="file-280">
																<name>569139_Mountains Fog View Summit_By_Jmg-visuals__Artlist_HD.mp4</name>
																<pathurl>file://localhost/Volumes/T7/DRONE_08.18.2023/3_Raw%20Files/Rainbow%20Mountains,%20Peru/569139_Mountains%20Fog%20View%20Summit_By_Jmg-visuals__Artlist_HD.mp4</pathurl>
																<rate>
																	<timebase>25</timebase>
																	<ntsc>FALSE</ntsc>
																</rate>
																<duration>702</duration>
																<timecode>
																	<rate>
																		<timebase>25</timebase>
																		<ntsc>FALSE</ntsc>
																	</rate>
																	<string>00:10:30:20</string>
																	<frame>15770</frame>
																	<displayformat>NDF</displayformat>
																</timecode>
																<media>
																	<video>
																		<samplecharacteristics>
																			<rate>
																				<timebase>25</timebase>
																				<ntsc>FALSE</ntsc>
																			</rate>
																			<width>1920</width>
																			<height>1080</height>
																			<anamorphic>FALSE</anamorphic>
																			<pixelaspectratio>square</pixelaspectratio>
																			<fielddominance>none</fielddominance>
																		</samplecharacteristics>
																	</video>
																</media>
															</file>
															<logginginfo>
																<description></description>
																<scene></scene>
																<shottake></shottake>
																<lognote></lognote>
																<good></good>
																<originalvideofilename></originalvideofilename>
																<originalaudiofilename></originalaudiofilename>
															</logginginfo>
															<colorinfo>
																<lut></lut>
																<lut1></lut1>
																<asc_sop></asc_sop>
																<asc_sat></asc_sat>
																<lut2></lut2>
															</colorinfo>
															<labels>
																<label2>Violet</label2>
															</labels>
														</clipitem>
														<clipitem id="clipitem-527">
															<masterclipid>masterclip-308</masterclipid>
															<name>569120_Mountains Snow Drone Summit_By_Jmg-visuals__Artlist_HD.mp4</name>
															<enabled>TRUE</enabled>
															<duration>469</duration>
															<rate>
																<timebase>30</timebase>
																<ntsc>TRUE</ntsc>
															</rate>
															<start>783</start>
															<end>1040</end>
															<in>0</in>
															<out>257</out>
															<pproTicksIn>0</pproTicksIn>
															<pproTicksOut>2178246470400</pproTicksOut>
															<alphatype>none</alphatype>
															<pixelaspectratio>square</pixelaspectratio>
															<anamorphic>FALSE</anamorphic>
															<file id="file-281">
																<name>569120_Mountains Snow Drone Summit_By_Jmg-visuals__Artlist_HD.mp4</name>
																<pathurl>file://localhost/Volumes/T7/DRONE_08.18.2023/3_Raw%20Files/Rainbow%20Mountains,%20Peru/569120_Mountains%20Snow%20Drone%20Summit_By_Jmg-visuals__Artlist_HD.mp4</pathurl>
																<rate>
																	<timebase>25</timebase>
																	<ntsc>FALSE</ntsc>
																</rate>
																<duration>392</duration>
																<timecode>
																	<rate>
																		<timebase>25</timebase>
																		<ntsc>FALSE</ntsc>
																	</rate>
																	<string>00:03:08:18</string>
																	<frame>4718</frame>
																	<displayformat>NDF</displayformat>
																</timecode>
																<media>
																	<video>
																		<samplecharacteristics>
																			<rate>
																				<timebase>25</timebase>
																				<ntsc>FALSE</ntsc>
																			</rate>
																			<width>1920</width>
																			<height>1080</height>
																			<anamorphic>FALSE</anamorphic>
																			<pixelaspectratio>square</pixelaspectratio>
																			<fielddominance>none</fielddominance>
																		</samplecharacteristics>
																	</video>
																</media>
															</file>
															<logginginfo>
																<description></description>
																<scene></scene>
																<shottake></shottake>
																<lognote></lognote>
																<good></good>
																<originalvideofilename></originalvideofilename>
																<originalaudiofilename></originalaudiofilename>
															</logginginfo>
															<colorinfo>
																<lut></lut>
																<lut1></lut1>
																<asc_sop></asc_sop>
																<asc_sat></asc_sat>
																<lut2></lut2>
															</colorinfo>
															<labels>
																<label2>Violet</label2>
															</labels>
														</clipitem>
														<clipitem id="clipitem-528">
															<masterclipid>masterclip-309</masterclipid>
															<name>569130_Mountains Fog View Summit_By_Jmg-visuals__Artlist_HD.mp4</name>
															<enabled>TRUE</enabled>
															<duration>529</duration>
															<rate>
																<timebase>30</timebase>
																<ntsc>TRUE</ntsc>
															</rate>
															<start>1040</start>
															<end>1302</end>
															<in>0</in>
															<out>262</out>
															<pproTicksIn>0</pproTicksIn>
															<pproTicksOut>2220624806400</pproTicksOut>
															<alphatype>none</alphatype>
															<pixelaspectratio>square</pixelaspectratio>
															<anamorphic>FALSE</anamorphic>
															<file id="file-282">
																<name>569130_Mountains Fog View Summit_By_Jmg-visuals__Artlist_HD.mp4</name>
																<pathurl>file://localhost/Volumes/T7/DRONE_08.18.2023/3_Raw%20Files/Rainbow%20Mountains,%20Peru/569130_Mountains%20Fog%20View%20Summit_By_Jmg-visuals__Artlist_HD.mp4</pathurl>
																<rate>
																	<timebase>25</timebase>
																	<ntsc>FALSE</ntsc>
																</rate>
																<duration>442</duration>
																<timecode>
																	<rate>
																		<timebase>25</timebase>
																		<ntsc>FALSE</ntsc>
																	</rate>
																	<string>00:06:43:20</string>
																	<frame>10095</frame>
																	<displayformat>NDF</displayformat>
																</timecode>
																<media>
																	<video>
																		<samplecharacteristics>
																			<rate>
																				<timebase>25</timebase>
																				<ntsc>FALSE</ntsc>
																			</rate>
																			<width>1920</width>
																			<height>1080</height>
																			<anamorphic>FALSE</anamorphic>
																			<pixelaspectratio>square</pixelaspectratio>
																			<fielddominance>none</fielddominance>
																		</samplecharacteristics>
																	</video>
																</media>
															</file>
															<logginginfo>
																<description></description>
																<scene></scene>
																<shottake></shottake>
																<lognote></lognote>
																<good></good>
																<originalvideofilename></originalvideofilename>
																<originalaudiofilename></originalaudiofilename>
															</logginginfo>
															<colorinfo>
																<lut></lut>
																<lut1></lut1>
																<asc_sop></asc_sop>
																<asc_sat></asc_sat>
																<lut2></lut2>
															</colorinfo>
															<labels>
																<label2>Violet</label2>
															</labels>
														</clipitem>
														<clipitem id="clipitem-529">
															<masterclipid>masterclip-310</masterclipid>
															<name>569125_Mountains Fog View Summit_By_Jmg-visuals__Artlist_HD.mp4</name>
															<enabled>TRUE</enabled>
															<duration>322</duration>
															<rate>
																<timebase>30</timebase>
																<ntsc>TRUE</ntsc>
															</rate>
															<start>1302</start>
															<end>1571</end>
															<in>0</in>
															<out>269</out>
															<pproTicksIn>0</pproTicksIn>
															<pproTicksOut>2279954476800</pproTicksOut>
															<alphatype>none</alphatype>
															<pixelaspectratio>square</pixelaspectratio>
															<anamorphic>FALSE</anamorphic>
															<file id="file-283">
																<name>569125_Mountains Fog View Summit_By_Jmg-visuals__Artlist_HD.mp4</name>
																<pathurl>file://localhost/Volumes/T7/DRONE_08.18.2023/3_Raw%20Files/Rainbow%20Mountains,%20Peru/569125_Mountains%20Fog%20View%20Summit_By_Jmg-visuals__Artlist_HD.mp4</pathurl>
																<rate>
																	<timebase>25</timebase>
																	<ntsc>FALSE</ntsc>
																</rate>
																<duration>269</duration>
																<timecode>
																	<rate>
																		<timebase>25</timebase>
																		<ntsc>FALSE</ntsc>
																	</rate>
																	<string>00:05:26:21</string>
																	<frame>8171</frame>
																	<displayformat>NDF</displayformat>
																</timecode>
																<media>
																	<video>
																		<samplecharacteristics>
																			<rate>
																				<timebase>25</timebase>
																				<ntsc>FALSE</ntsc>
																			</rate>
																			<width>1920</width>
																			<height>1080</height>
																			<anamorphic>FALSE</anamorphic>
																			<pixelaspectratio>square</pixelaspectratio>
																			<fielddominance>none</fielddominance>
																		</samplecharacteristics>
																	</video>
																</media>
															</file>
															<logginginfo>
																<description></description>
																<scene></scene>
																<shottake></shottake>
																<lognote></lognote>
																<good></good>
																<originalvideofilename></originalvideofilename>
																<originalaudiofilename></originalaudiofilename>
															</logginginfo>
															<colorinfo>
																<lut></lut>
																<lut1></lut1>
																<asc_sop></asc_sop>
																<asc_sat></asc_sat>
																<lut2></lut2>
															</colorinfo>
															<labels>
																<label2>Violet</label2>
															</labels>
														</clipitem>
														<clipitem id="clipitem-530">
															<masterclipid>masterclip-311</masterclipid>
															<name>569136_Mountains View Summit Highland_By_Jmg-visuals__Artlist_HD.mp4</name>
															<enabled>TRUE</enabled>
															<duration>567</duration>
															<rate>
																<timebase>30</timebase>
																<ntsc>TRUE</ntsc>
															</rate>
															<start>1571</start>
															<end>1830</end>
															<in>0</in>
															<out>259</out>
															<pproTicksIn>0</pproTicksIn>
															<pproTicksOut>2195197804800</pproTicksOut>
															<alphatype>none</alphatype>
															<pixelaspectratio>square</pixelaspectratio>
															<anamorphic>FALSE</anamorphic>
															<file id="file-284">
																<name>569136_Mountains View Summit Highland_By_Jmg-visuals__Artlist_HD.mp4</name>
																<pathurl>file://localhost/Volumes/T7/DRONE_08.18.2023/3_Raw%20Files/Rainbow%20Mountains,%20Peru/569136_Mountains%20View%20Summit%20Highland_By_Jmg-visuals__Artlist_HD.mp4</pathurl>
																<rate>
																	<timebase>25</timebase>
																	<ntsc>FALSE</ntsc>
																</rate>
																<duration>473</duration>
																<timecode>
																	<rate>
																		<timebase>25</timebase>
																		<ntsc>FALSE</ntsc>
																	</rate>
																	<string>00:09:13:24</string>
																	<frame>13849</frame>
																	<displayformat>NDF</displayformat>
																</timecode>
																<media>
																	<video>
																		<samplecharacteristics>
																			<rate>
																				<timebase>25</timebase>
																				<ntsc>FALSE</ntsc>
																			</rate>
																			<width>1920</width>
																			<height>1080</height>
																			<anamorphic>FALSE</anamorphic>
																			<pixelaspectratio>square</pixelaspectratio>
																			<fielddominance>none</fielddominance>
																		</samplecharacteristics>
																	</video>
																</media>
															</file>
															<logginginfo>
																<description></description>
																<scene></scene>
																<shottake></shottake>
																<lognote></lognote>
																<good></good>
																<originalvideofilename></originalvideofilename>
																<originalaudiofilename></originalaudiofilename>
															</logginginfo>
															<colorinfo>
																<lut></lut>
																<lut1></lut1>
																<asc_sop></asc_sop>
																<asc_sat></asc_sat>
																<lut2></lut2>
															</colorinfo>
															<labels>
																<label2>Violet</label2>
															</labels>
														</clipitem>
														<clipitem id="clipitem-531">
															<masterclipid>masterclip-312</masterclipid>
															<name>569115_Mountains Drone Summit Above_By_Jmg-visuals__Artlist_HD.mp4</name>
															<enabled>TRUE</enabled>
															<duration>713</duration>
															<rate>
																<timebase>30</timebase>
																<ntsc>TRUE</ntsc>
															</rate>
															<start>1830</start>
															<end>2353</end>
															<in>0</in>
															<out>523</out>
															<pproTicksIn>0</pproTicksIn>
															<pproTicksOut>4432773945600</pproTicksOut>
															<alphatype>none</alphatype>
															<pixelaspectratio>square</pixelaspectratio>
															<anamorphic>FALSE</anamorphic>
															<file id="file-285">
																<name>569115_Mountains Drone Summit Above_By_Jmg-visuals__Artlist_HD.mp4</name>
																<pathurl>file://localhost/Volumes/T7/DRONE_08.18.2023/3_Raw%20Files/Rainbow%20Mountains,%20Peru/569115_Mountains%20Drone%20Summit%20Above_By_Jmg-visuals__Artlist_HD.mp4</pathurl>
																<rate>
																	<timebase>25</timebase>
																	<ntsc>FALSE</ntsc>
																</rate>
																<duration>595</duration>
																<timecode>
																	<rate>
																		<timebase>25</timebase>
																		<ntsc>FALSE</ntsc>
																	</rate>
																	<string>00:01:15:07</string>
																	<frame>1882</frame>
																	<displayformat>NDF</displayformat>
																</timecode>
																<media>
																	<video>
																		<samplecharacteristics>
																			<rate>
																				<timebase>25</timebase>
																				<ntsc>FALSE</ntsc>
																			</rate>
																			<width>1920</width>
																			<height>1080</height>
																			<anamorphic>FALSE</anamorphic>
																			<pixelaspectratio>square</pixelaspectratio>
																			<fielddominance>none</fielddominance>
																		</samplecharacteristics>
																	</video>
																</media>
															</file>
															<logginginfo>
																<description></description>
																<scene></scene>
																<shottake></shottake>
																<lognote></lognote>
																<good></good>
																<originalvideofilename></originalvideofilename>
																<originalaudiofilename></originalaudiofilename>
															</logginginfo>
															<colorinfo>
																<lut></lut>
																<lut1></lut1>
																<asc_sop></asc_sop>
																<asc_sat></asc_sat>
																<lut2></lut2>
															</colorinfo>
															<labels>
																<label2>Violet</label2>
															</labels>
														</clipitem>
														<clipitem id="clipitem-532">
															<masterclipid>masterclip-313</masterclipid>
															<name>569121_Valley Ponds Scenic Above_By_Jmg-visuals__Artlist_HD.mp4</name>
															<enabled>TRUE</enabled>
															<duration>1029</duration>
															<rate>
																<timebase>30</timebase>
																<ntsc>TRUE</ntsc>
															</rate>
															<start>2353</start>
															<end>2877</end>
															<in>0</in>
															<out>524</out>
															<pproTicksIn>0</pproTicksIn>
															<pproTicksOut>4441249612800</pproTicksOut>
															<alphatype>none</alphatype>
															<pixelaspectratio>square</pixelaspectratio>
															<anamorphic>FALSE</anamorphic>
															<file id="file-286">
																<name>569121_Valley Ponds Scenic Above_By_Jmg-visuals__Artlist_HD.mp4</name>
																<pathurl>file://localhost/Volumes/T7/DRONE_08.18.2023/3_Raw%20Files/Rainbow%20Mountains,%20Peru/569121_Valley%20Ponds%20Scenic%20Above_By_Jmg-visuals__Artlist_HD.mp4</pathurl>
																<rate>
																	<timebase>25</timebase>
																	<ntsc>FALSE</ntsc>
																</rate>
																<duration>859</duration>
																<timecode>
																	<rate>
																		<timebase>25</timebase>
																		<ntsc>FALSE</ntsc>
																	</rate>
																	<string>00:03:24:10</string>
																	<frame>5110</frame>
																	<displayformat>NDF</displayformat>
																</timecode>
																<media>
																	<video>
																		<samplecharacteristics>
																			<rate>
																				<timebase>25</timebase>
																				<ntsc>FALSE</ntsc>
																			</rate>
																			<width>1920</width>
																			<height>1080</height>
																			<anamorphic>FALSE</anamorphic>
																			<pixelaspectratio>square</pixelaspectratio>
																			<fielddominance>none</fielddominance>
																		</samplecharacteristics>
																	</video>
																</media>
															</file>
															<logginginfo>
																<description></description>
																<scene></scene>
																<shottake></shottake>
																<lognote></lognote>
																<good></good>
																<originalvideofilename></originalvideofilename>
																<originalaudiofilename></originalaudiofilename>
															</logginginfo>
															<colorinfo>
																<lut></lut>
																<lut1></lut1>
																<asc_sop></asc_sop>
																<asc_sat></asc_sat>
																<lut2></lut2>
															</colorinfo>
															<labels>
																<label2>Violet</label2>
															</labels>
														</clipitem>
														<clipitem id="clipitem-533">
															<masterclipid>masterclip-314</masterclipid>
															<name>569123_Valley Sheep Scenic Above_By_Jmg-visuals__Artlist_HD.mp4</name>
															<enabled>TRUE</enabled>
															<duration>1023</duration>
															<rate>
																<timebase>30</timebase>
																<ntsc>TRUE</ntsc>
															</rate>
															<start>2877</start>
															<end>3532</end>
															<in>0</in>
															<out>655</out>
															<pproTicksIn>0</pproTicksIn>
															<pproTicksOut>5551562016000</pproTicksOut>
															<alphatype>none</alphatype>
															<pixelaspectratio>square</pixelaspectratio>
															<anamorphic>FALSE</anamorphic>
															<file id="file-287">
																<name>569123_Valley Sheep Scenic Above_By_Jmg-visuals__Artlist_HD.mp4</name>
																<pathurl>file://localhost/Volumes/T7/DRONE_08.18.2023/3_Raw%20Files/Rainbow%20Mountains,%20Peru/569123_Valley%20Sheep%20Scenic%20Above_By_Jmg-visuals__Artlist_HD.mp4</pathurl>
																<rate>
																	<timebase>25</timebase>
																	<ntsc>FALSE</ntsc>
																</rate>
																<duration>854</duration>
																<timecode>
																	<rate>
																		<timebase>25</timebase>
																		<ntsc>FALSE</ntsc>
																	</rate>
																	<string>00:04:22:07</string>
																	<frame>6557</frame>
																	<displayformat>NDF</displayformat>
																</timecode>
																<media>
																	<video>
																		<samplecharacteristics>
																			<rate>
																				<timebase>25</timebase>
																				<ntsc>FALSE</ntsc>
																			</rate>
																			<width>1920</width>
																			<height>1080</height>
																			<anamorphic>FALSE</anamorphic>
																			<pixelaspectratio>square</pixelaspectratio>
																			<fielddominance>none</fielddominance>
																		</samplecharacteristics>
																	</video>
																</media>
															</file>
															<logginginfo>
																<description></description>
																<scene></scene>
																<shottake></shottake>
																<lognote></lognote>
																<good></good>
																<originalvideofilename></originalvideofilename>
																<originalaudiofilename></originalaudiofilename>
															</logginginfo>
															<colorinfo>
																<lut></lut>
																<lut1></lut1>
																<asc_sop></asc_sop>
																<asc_sat></asc_sat>
																<lut2></lut2>
															</colorinfo>
															<labels>
																<label2>Violet</label2>
															</labels>
														</clipitem>
														<clipitem id="clipitem-534">
															<masterclipid>masterclip-315</masterclipid>
															<name>569111_Mountains Drone Summit Above_By_Jmg-visuals__Artlist_HD.mp4</name>
															<enabled>TRUE</enabled>
															<duration>695</duration>
															<rate>
																<timebase>30</timebase>
																<ntsc>TRUE</ntsc>
															</rate>
															<start>3532</start>
															<end>3926</end>
															<in>0</in>
															<out>394</out>
															<pproTicksIn>0</pproTicksIn>
															<pproTicksOut>3339412876800</pproTicksOut>
															<alphatype>none</alphatype>
															<pixelaspectratio>square</pixelaspectratio>
															<anamorphic>FALSE</anamorphic>
															<file id="file-288">
																<name>569111_Mountains Drone Summit Above_By_Jmg-visuals__Artlist_HD.mp4</name>
																<pathurl>file://localhost/Volumes/T7/DRONE_08.18.2023/3_Raw%20Files/Rainbow%20Mountains,%20Peru/569111_Mountains%20Drone%20Summit%20Above_By_Jmg-visuals__Artlist_HD.mp4</pathurl>
																<rate>
																	<timebase>25</timebase>
																	<ntsc>FALSE</ntsc>
																</rate>
																<duration>580</duration>
																<timecode>
																	<rate>
																		<timebase>25</timebase>
																		<ntsc>FALSE</ntsc>
																	</rate>
																	<string>00:02:45:13</string>
																	<frame>4138</frame>
																	<displayformat>NDF</displayformat>
																</timecode>
																<media>
																	<video>
																		<samplecharacteristics>
																			<rate>
																				<timebase>25</timebase>
																				<ntsc>FALSE</ntsc>
																			</rate>
																			<width>1920</width>
																			<height>1080</height>
																			<anamorphic>FALSE</anamorphic>
																			<pixelaspectratio>square</pixelaspectratio>
																			<fielddominance>none</fielddominance>
																		</samplecharacteristics>
																	</video>
																</media>
															</file>
															<logginginfo>
																<description></description>
																<scene></scene>
																<shottake></shottake>
																<lognote></lognote>
																<good></good>
																<originalvideofilename></originalvideofilename>
																<originalaudiofilename></originalaudiofilename>
															</logginginfo>
															<colorinfo>
																<lut></lut>
																<lut1></lut1>
																<asc_sop></asc_sop>
																<asc_sat></asc_sat>
																<lut2></lut2>
															</colorinfo>
															<labels>
																<label2>Violet</label2>
															</labels>
														</clipitem>
														<clipitem id="clipitem-535">
															<masterclipid>masterclip-316</masterclipid>
															<name>569135_Mountains View Summit Highland_By_Jmg-visuals__Artlist_HD.mp4</name>
															<enabled>TRUE</enabled>
															<duration>1038</duration>
															<rate>
																<timebase>30</timebase>
																<ntsc>TRUE</ntsc>
															</rate>
															<start>3926</start>
															<end>4576</end>
															<in>0</in>
															<out>650</out>
															<pproTicksIn>0</pproTicksIn>
															<pproTicksOut>5509183680000</pproTicksOut>
															<alphatype>none</alphatype>
															<pixelaspectratio>square</pixelaspectratio>
															<anamorphic>FALSE</anamorphic>
															<file id="file-289">
																<name>569135_Mountains View Summit Highland_By_Jmg-visuals__Artlist_HD.mp4</name>
																<pathurl>file://localhost/Volumes/T7/DRONE_08.18.2023/3_Raw%20Files/Rainbow%20Mountains,%20Peru/569135_Mountains%20View%20Summit%20Highland_By_Jmg-visuals__Artlist_HD.mp4</pathurl>
																<rate>
																	<timebase>25</timebase>
																	<ntsc>FALSE</ntsc>
																</rate>
																<duration>866</duration>
																<timecode>
																	<rate>
																		<timebase>25</timebase>
																		<ntsc>FALSE</ntsc>
																	</rate>
																	<string>00:08:39:08</string>
																	<frame>12983</frame>
																	<displayformat>NDF</displayformat>
																</timecode>
																<media>
																	<video>
																		<samplecharacteristics>
																			<rate>
																				<timebase>25</timebase>
																				<ntsc>FALSE</ntsc>
																			</rate>
																			<width>1920</width>
																			<height>1080</height>
																			<anamorphic>FALSE</anamorphic>
																			<pixelaspectratio>square</pixelaspectratio>
																			<fielddominance>none</fielddominance>
																		</samplecharacteristics>
																	</video>
																</media>
															</file>
															<logginginfo>
																<description></description>
																<scene></scene>
																<shottake></shottake>
																<lognote></lognote>
																<good></good>
																<originalvideofilename></originalvideofilename>
																<originalaudiofilename></originalaudiofilename>
															</logginginfo>
															<colorinfo>
																<lut></lut>
																<lut1></lut1>
																<asc_sop></asc_sop>
																<asc_sat></asc_sat>
																<lut2></lut2>
															</colorinfo>
															<labels>
																<label2>Violet</label2>
															</labels>
														</clipitem>
														<clipitem id="clipitem-536">
															<masterclipid>masterclip-317</masterclipid>
															<name>569127_Mountains Fog View Summit_By_Jmg-visuals__Artlist_HD.mp4</name>
															<enabled>TRUE</enabled>
															<duration>845</duration>
															<rate>
																<timebase>30</timebase>
																<ntsc>TRUE</ntsc>
															</rate>
															<start>4576</start>
															<end>4776</end>
															<in>0</in>
															<out>200</out>
															<pproTicksIn>0</pproTicksIn>
															<pproTicksOut>1695133440000</pproTicksOut>
															<alphatype>none</alphatype>
															<pixelaspectratio>square</pixelaspectratio>
															<anamorphic>FALSE</anamorphic>
															<file id="file-290">
																<name>569127_Mountains Fog View Summit_By_Jmg-visuals__Artlist_HD.mp4</name>
																<pathurl>file://localhost/Volumes/T7/DRONE_08.18.2023/3_Raw%20Files/Rainbow%20Mountains,%20Peru/569127_Mountains%20Fog%20View%20Summit_By_Jmg-visuals__Artlist_HD.mp4</pathurl>
																<rate>
																	<timebase>25</timebase>
																	<ntsc>FALSE</ntsc>
																</rate>
																<duration>705</duration>
																<timecode>
																	<rate>
																		<timebase>25</timebase>
																		<ntsc>FALSE</ntsc>
																	</rate>
																	<string>00:05:45:13</string>
																	<frame>8638</frame>
																	<displayformat>NDF</displayformat>
																</timecode>
																<media>
																	<video>
																		<samplecharacteristics>
																			<rate>
																				<timebase>25</timebase>
																				<ntsc>FALSE</ntsc>
																			</rate>
																			<width>1920</width>
																			<height>1080</height>
																			<anamorphic>FALSE</anamorphic>
																			<pixelaspectratio>square</pixelaspectratio>
																			<fielddominance>none</fielddominance>
																		</samplecharacteristics>
																	</video>
																</media>
															</file>
															<logginginfo>
																<description></description>
																<scene></scene>
																<shottake></shottake>
																<lognote></lognote>
																<good></good>
																<originalvideofilename></originalvideofilename>
																<originalaudiofilename></originalaudiofilename>
															</logginginfo>
															<colorinfo>
																<lut></lut>
																<lut1></lut1>
																<asc_sop></asc_sop>
																<asc_sat></asc_sat>
																<lut2></lut2>
															</colorinfo>
															<labels>
																<label2>Violet</label2>
															</labels>
														</clipitem>
														<clipitem id="clipitem-537">
															<masterclipid>masterclip-318</masterclipid>
															<name>569114_Mountains Drone Summit Above_By_Jmg-visuals__Artlist_HD.mp4</name>
															<enabled>TRUE</enabled>
															<duration>556</duration>
															<rate>
																<timebase>30</timebase>
																<ntsc>TRUE</ntsc>
															</rate>
															<start>4776</start>
															<end>4969</end>
															<in>0</in>
															<out>193</out>
															<pproTicksIn>0</pproTicksIn>
															<pproTicksOut>1635803769600</pproTicksOut>
															<alphatype>none</alphatype>
															<pixelaspectratio>square</pixelaspectratio>
															<anamorphic>FALSE</anamorphic>
															<file id="file-291">
																<name>569114_Mountains Drone Summit Above_By_Jmg-visuals__Artlist_HD.mp4</name>
																<pathurl>file://localhost/Volumes/T7/DRONE_08.18.2023/3_Raw%20Files/Rainbow%20Mountains,%20Peru/569114_Mountains%20Drone%20Summit%20Above_By_Jmg-visuals__Artlist_HD.mp4</pathurl>
																<rate>
																	<timebase>25</timebase>
																	<ntsc>FALSE</ntsc>
																</rate>
																<duration>464</duration>
																<timecode>
																	<rate>
																		<timebase>25</timebase>
																		<ntsc>FALSE</ntsc>
																	</rate>
																	<string>00:00:56:18</string>
																	<frame>1418</frame>
																	<displayformat>NDF</displayformat>
																</timecode>
																<media>
																	<video>
																		<samplecharacteristics>
																			<rate>
																				<timebase>25</timebase>
																				<ntsc>FALSE</ntsc>
																			</rate>
																			<width>1920</width>
																			<height>1080</height>
																			<anamorphic>FALSE</anamorphic>
																			<pixelaspectratio>square</pixelaspectratio>
																			<fielddominance>none</fielddominance>
																		</samplecharacteristics>
																	</video>
																</media>
															</file>
															<logginginfo>
																<description></description>
																<scene></scene>
																<shottake></shottake>
																<lognote></lognote>
																<good></good>
																<originalvideofilename></originalvideofilename>
																<originalaudiofilename></originalaudiofilename>
															</logginginfo>
															<colorinfo>
																<lut></lut>
																<lut1></lut1>
																<asc_sop></asc_sop>
																<asc_sat></asc_sat>
																<lut2></lut2>
															</colorinfo>
															<labels>
																<label2>Violet</label2>
															</labels>
														</clipitem>
														<clipitem id="clipitem-538">
															<masterclipid>masterclip-319</masterclipid>
															<name>569126_Mountains Fog View Summit_By_Jmg-visuals__Artlist_HD.mp4</name>
															<enabled>TRUE</enabled>
															<duration>237</duration>
															<rate>
																<timebase>30</timebase>
																<ntsc>TRUE</ntsc>
															</rate>
															<start>4969</start>
															<end>5167</end>
															<in>0</in>
															<out>198</out>
															<pproTicksIn>0</pproTicksIn>
															<pproTicksOut>1678182105600</pproTicksOut>
															<alphatype>none</alphatype>
															<pixelaspectratio>square</pixelaspectratio>
															<anamorphic>FALSE</anamorphic>
															<file id="file-292">
																<name>569126_Mountains Fog View Summit_By_Jmg-visuals__Artlist_HD.mp4</name>
																<pathurl>file://localhost/Volumes/T7/DRONE_08.18.2023/3_Raw%20Files/Rainbow%20Mountains,%20Peru/569126_Mountains%20Fog%20View%20Summit_By_Jmg-visuals__Artlist_HD.mp4</pathurl>
																<rate>
																	<timebase>25</timebase>
																	<ntsc>FALSE</ntsc>
																</rate>
																<duration>198</duration>
																<timecode>
																	<rate>
																		<timebase>25</timebase>
																		<ntsc>FALSE</ntsc>
																	</rate>
																	<string>00:05:37:15</string>
																	<frame>8440</frame>
																	<displayformat>NDF</displayformat>
																</timecode>
																<media>
																	<video>
																		<samplecharacteristics>
																			<rate>
																				<timebase>25</timebase>
																				<ntsc>FALSE</ntsc>
																			</rate>
																			<width>1920</width>
																			<height>1080</height>
																			<anamorphic>FALSE</anamorphic>
																			<pixelaspectratio>square</pixelaspectratio>
																			<fielddominance>none</fielddominance>
																		</samplecharacteristics>
																	</video>
																</media>
															</file>
															<logginginfo>
																<description></description>
																<scene></scene>
																<shottake></shottake>
																<lognote></lognote>
																<good></good>
																<originalvideofilename></originalvideofilename>
																<originalaudiofilename></originalaudiofilename>
															</logginginfo>
															<colorinfo>
																<lut></lut>
																<lut1></lut1>
																<asc_sop></asc_sop>
																<asc_sat></asc_sat>
																<lut2></lut2>
															</colorinfo>
															<labels>
																<label2>Violet</label2>
															</labels>
														</clipitem>
														<clipitem id="clipitem-539">
															<masterclipid>masterclip-320</masterclipid>
															<name>569131_Mountains Fog View Summit_By_Jmg-visuals__Artlist_HD.mp4</name>
															<enabled>TRUE</enabled>
															<duration>644</duration>
															<rate>
																<timebase>30</timebase>
																<ntsc>TRUE</ntsc>
															</rate>
															<start>5167</start>
															<end>5492</end>
															<in>0</in>
															<out>325</out>
															<pproTicksIn>0</pproTicksIn>
															<pproTicksOut>2754591840000</pproTicksOut>
															<alphatype>none</alphatype>
															<pixelaspectratio>square</pixelaspectratio>
															<anamorphic>FALSE</anamorphic>
															<file id="file-293">
																<name>569131_Mountains Fog View Summit_By_Jmg-visuals__Artlist_HD.mp4</name>
																<pathurl>file://localhost/Volumes/T7/DRONE_08.18.2023/3_Raw%20Files/Rainbow%20Mountains,%20Peru/569131_Mountains%20Fog%20View%20Summit_By_Jmg-visuals__Artlist_HD.mp4</pathurl>
																<rate>
																	<timebase>25</timebase>
																	<ntsc>FALSE</ntsc>
																</rate>
																<duration>538</duration>
																<timecode>
																	<rate>
																		<timebase>25</timebase>
																		<ntsc>FALSE</ntsc>
																	</rate>
																	<string>00:07:01:12</string>
																	<frame>10537</frame>
																	<displayformat>NDF</displayformat>
																</timecode>
																<media>
																	<video>
																		<samplecharacteristics>
																			<rate>
																				<timebase>25</timebase>
																				<ntsc>FALSE</ntsc>
																			</rate>
																			<width>1920</width>
																			<height>1080</height>
																			<anamorphic>FALSE</anamorphic>
																			<pixelaspectratio>square</pixelaspectratio>
																			<fielddominance>none</fielddominance>
																		</samplecharacteristics>
																	</video>
																</media>
															</file>
															<logginginfo>
																<description></description>
																<scene></scene>
																<shottake></shottake>
																<lognote></lognote>
																<good></good>
																<originalvideofilename></originalvideofilename>
																<originalaudiofilename></originalaudiofilename>
															</logginginfo>
															<colorinfo>
																<lut></lut>
																<lut1></lut1>
																<asc_sop></asc_sop>
																<asc_sat></asc_sat>
																<lut2></lut2>
															</colorinfo>
															<labels>
																<label2>Violet</label2>
															</labels>
														</clipitem>
														<enabled>TRUE</enabled>
														<locked>FALSE</locked>
													</track>
													<track TL.SQTrackShy="0" TL.SQTrackExpandedHeight="25" TL.SQTrackExpanded="0" MZ.TrackTargeted="0">
														<enabled>TRUE</enabled>
														<locked>FALSE</locked>
													</track>
													<track TL.SQTrackShy="0" TL.SQTrackExpandedHeight="25" TL.SQTrackExpanded="0" MZ.TrackTargeted="0">
														<enabled>TRUE</enabled>
														<locked>FALSE</locked>
													</track>
												</video>
												<audio>
													<numOutputChannels>2</numOutputChannels>
													<format>
														<samplecharacteristics>
															<depth>16</depth>
															<samplerate>48000</samplerate>
														</samplecharacteristics>
													</format>
													<outputs>
														<group>
															<index>1</index>
															<numchannels>1</numchannels>
															<downmix>0</downmix>
															<channel>
																<index>1</index>
															</channel>
														</group>
														<group>
															<index>2</index>
															<numchannels>1</numchannels>
															<downmix>0</downmix>
															<channel>
																<index>2</index>
															</channel>
														</group>
													</outputs>
													<track TL.SQTrackAudioKeyframeStyle="0" TL.SQTrackShy="0" TL.SQTrackExpandedHeight="25" TL.SQTrackExpanded="0" MZ.TrackTargeted="1" PannerCurrentValue="0.5" PannerIsInverted="true" PannerStartKeyframe="-91445760000000000,0.5,0,0,0,0,0,0" PannerName="Balance" currentExplodedTrackIndex="0" totalExplodedTrackCount="2" premiereTrackType="Stereo">
														<clipitem id="clipitem-540" premiereChannelType="stereo">
															<masterclipid>masterclip-321</masterclipid>
															<name>ES_Beyond the Mountains - Experia.mp3</name>
															<enabled>TRUE</enabled>
															<duration>6022</duration>
															<rate>
																<timebase>30</timebase>
																<ntsc>TRUE</ntsc>
															</rate>
															<start>0</start>
															<end>-1</end>
															<in>0</in>
															<out>5492</out>
															<pproTicksIn>0</pproTicksIn>
															<pproTicksOut>46548364262400</pproTicksOut>
															<file id="file-294">
																<name>ES_Beyond the Mountains - Experia.mp3</name>
																<pathurl>file://localhost/Volumes/T7/DRONE_08.18.2023/5_Music/ES_Beyond%20the%20Mountains%20-%20Experia.mp3</pathurl>
																<rate>
																	<timebase>30</timebase>
																	<ntsc>TRUE</ntsc>
																</rate>
																<duration>6022</duration>
																<timecode>
																	<rate>
																		<timebase>30</timebase>
																		<ntsc>TRUE</ntsc>
																	</rate>
																	<string>00;00;00;00</string>
																	<frame>0</frame>
																	<displayformat>DF</displayformat>
																</timecode>
																<media>
																	<audio>
																		<samplecharacteristics>
																			<depth>16</depth>
																			<samplerate>48000</samplerate>
																		</samplecharacteristics>
																		<channelcount>2</channelcount>
																	</audio>
																</media>
															</file>
															<sourcetrack>
																<mediatype>audio</mediatype>
																<trackindex>1</trackindex>
															</sourcetrack>
															<link>
																<linkclipref>clipitem-540</linkclipref>
																<mediatype>audio</mediatype>
																<trackindex>1</trackindex>
																<clipindex>1</clipindex>
																<groupindex>1</groupindex>
															</link>
															<link>
																<linkclipref>clipitem-541</linkclipref>
																<mediatype>audio</mediatype>
																<trackindex>2</trackindex>
																<clipindex>1</clipindex>
																<groupindex>1</groupindex>
															</link>
															<logginginfo>
																<description></description>
																<scene></scene>
																<shottake></shottake>
																<lognote></lognote>
																<good></good>
																<originalvideofilename></originalvideofilename>
																<originalaudiofilename></originalaudiofilename>
															</logginginfo>
															<colorinfo>
																<lut></lut>
																<lut1></lut1>
																<asc_sop></asc_sop>
																<asc_sat></asc_sat>
																<lut2></lut2>
															</colorinfo>
															<labels>
																<label2>Caribbean</label2>
															</labels>
														</clipitem>
														<transitionitem>
															<start>5481</start>
															<end>5492</end>
															<pproTicksIn>46455131923200</pproTicksIn>
															<pproTicksOut>46548364262400</pproTicksOut>
															<alignment>end-black</alignment>
															<cutPointTicks>93232339200</cutPointTicks>
															<rate>
																<timebase>30</timebase>
																<ntsc>TRUE</ntsc>
															</rate>
															<effect>
																<name>Cross Fade ( 0dB)</name>
																<effectid>KGAudioTransCrossFade0dB</effectid>
																<effecttype>transition</effecttype>
																<mediatype>audio</mediatype>
																<wipecode>0</wipecode>
																<wipeaccuracy>100</wipeaccuracy>
																<startratio>0</startratio>
																<endratio>1</endratio>
																<reverse>FALSE</reverse>
															</effect>
														</transitionitem>
														<enabled>TRUE</enabled>
														<locked>FALSE</locked>
														<outputchannelindex>1</outputchannelindex>
													</track>
													<track TL.SQTrackAudioKeyframeStyle="0" TL.SQTrackShy="0" TL.SQTrackExpandedHeight="25" TL.SQTrackExpanded="0" MZ.TrackTargeted="1" PannerCurrentValue="0.5" PannerIsInverted="true" PannerStartKeyframe="-91445760000000000,0.5,0,0,0,0,0,0" PannerName="Balance" currentExplodedTrackIndex="1" totalExplodedTrackCount="2" premiereTrackType="Stereo">
														<clipitem id="clipitem-541" premiereChannelType="stereo">
															<masterclipid>masterclip-321</masterclipid>
															<name>ES_Beyond the Mountains - Experia.mp3</name>
															<enabled>TRUE</enabled>
															<duration>6022</duration>
															<rate>
																<timebase>30</timebase>
																<ntsc>TRUE</ntsc>
															</rate>
															<start>0</start>
															<end>-1</end>
															<in>0</in>
															<out>5492</out>
															<pproTicksIn>0</pproTicksIn>
															<pproTicksOut>46548364262400</pproTicksOut>
															<file id="file-294"/>
															<sourcetrack>
																<mediatype>audio</mediatype>
																<trackindex>2</trackindex>
															</sourcetrack>
															<link>
																<linkclipref>clipitem-540</linkclipref>
																<mediatype>audio</mediatype>
																<trackindex>1</trackindex>
																<clipindex>1</clipindex>
																<groupindex>1</groupindex>
															</link>
															<link>
																<linkclipref>clipitem-541</linkclipref>
																<mediatype>audio</mediatype>
																<trackindex>2</trackindex>
																<clipindex>1</clipindex>
																<groupindex>1</groupindex>
															</link>
															<logginginfo>
																<description></description>
																<scene></scene>
																<shottake></shottake>
																<lognote></lognote>
																<good></good>
																<originalvideofilename></originalvideofilename>
																<originalaudiofilename></originalaudiofilename>
															</logginginfo>
															<colorinfo>
																<lut></lut>
																<lut1></lut1>
																<asc_sop></asc_sop>
																<asc_sat></asc_sat>
																<lut2></lut2>
															</colorinfo>
															<labels>
																<label2>Caribbean</label2>
															</labels>
														</clipitem>
														<transitionitem>
															<start>5481</start>
															<end>5492</end>
															<pproTicksIn>46455131923200</pproTicksIn>
															<pproTicksOut>46548364262400</pproTicksOut>
															<alignment>end-black</alignment>
															<cutPointTicks>93232339200</cutPointTicks>
															<rate>
																<timebase>30</timebase>
																<ntsc>TRUE</ntsc>
															</rate>
															<effect>
																<name>Cross Fade ( 0dB)</name>
																<effectid>KGAudioTransCrossFade0dB</effectid>
																<effecttype>transition</effecttype>
																<mediatype>audio</mediatype>
																<wipecode>0</wipecode>
																<wipeaccuracy>100</wipeaccuracy>
																<startratio>0</startratio>
																<endratio>1</endratio>
																<reverse>FALSE</reverse>
															</effect>
														</transitionitem>
														<enabled>TRUE</enabled>
														<locked>FALSE</locked>
														<outputchannelindex>2</outputchannelindex>
													</track>
													<track TL.SQTrackAudioKeyframeStyle="0" TL.SQTrackShy="0" TL.SQTrackExpandedHeight="25" TL.SQTrackExpanded="0" MZ.TrackTargeted="1" PannerCurrentValue="0.5" PannerIsInverted="true" PannerStartKeyframe="-91445760000000000,0.5,0,0,0,0,0,0" PannerName="Balance" currentExplodedTrackIndex="0" totalExplodedTrackCount="2" premiereTrackType="Stereo">
														<enabled>TRUE</enabled>
														<locked>FALSE</locked>
														<outputchannelindex>1</outputchannelindex>
													</track>
													<track TL.SQTrackAudioKeyframeStyle="0" TL.SQTrackShy="0" TL.SQTrackExpandedHeight="25" TL.SQTrackExpanded="0" MZ.TrackTargeted="1" PannerCurrentValue="0.5" PannerIsInverted="true" PannerStartKeyframe="-91445760000000000,0.5,0,0,0,0,0,0" PannerName="Balance" currentExplodedTrackIndex="1" totalExplodedTrackCount="2" premiereTrackType="Stereo">
														<enabled>TRUE</enabled>
														<locked>FALSE</locked>
														<outputchannelindex>2</outputchannelindex>
													</track>
													<track TL.SQTrackAudioKeyframeStyle="0" TL.SQTrackShy="0" TL.SQTrackExpandedHeight="25" TL.SQTrackExpanded="0" MZ.TrackTargeted="1" PannerCurrentValue="0.5" PannerIsInverted="true" PannerStartKeyframe="-91445760000000000,0.5,0,0,0,0,0,0" PannerName="Balance" currentExplodedTrackIndex="0" totalExplodedTrackCount="2" premiereTrackType="Stereo">
														<enabled>TRUE</enabled>
														<locked>FALSE</locked>
														<outputchannelindex>1</outputchannelindex>
													</track>
													<track TL.SQTrackAudioKeyframeStyle="0" TL.SQTrackShy="0" TL.SQTrackExpandedHeight="25" TL.SQTrackExpanded="0" MZ.TrackTargeted="1" PannerCurrentValue="0.5" PannerIsInverted="true" PannerStartKeyframe="-91445760000000000,0.5,0,0,0,0,0,0" PannerName="Balance" currentExplodedTrackIndex="1" totalExplodedTrackCount="2" premiereTrackType="Stereo">
														<enabled>TRUE</enabled>
														<locked>FALSE</locked>
														<outputchannelindex>2</outputchannelindex>
													</track>
												</audio>
											</media>
											<timecode>
												<rate>
													<timebase>30</timebase>
													<ntsc>TRUE</ntsc>
												</rate>
												<string>00;00;00;00</string>
												<frame>0</frame>
												<displayformat>DF</displayformat>
											</timecode>
											<logginginfo>
												<description></description>
												<scene></scene>
												<shottake></shottake>
												<lognote></lognote>
												<good></good>
												<originalvideofilename></originalvideofilename>
												<originalaudiofilename></originalaudiofilename>
											</logginginfo>
											<filter>
												<effect>
													<name>Audio Levels</name>
													<effectid>audiolevels</effectid>
													<effectcategory>audiolevels</effectcategory>
													<effecttype>audiolevels</effecttype>
													<mediatype>audio</mediatype>
													<parameter authoringApp="PremierePro">
														<parameterid>level</parameterid>
														<name>Level</name>
														<valuemin>0</valuemin>
														<valuemax>3.98109</valuemax>
														<value>0.839406</value>
													</parameter>
												</effect>
											</filter>
										</sequence>
										<link>
											<linkclipref>clipitem-524</linkclipref>
											<mediatype>video</mediatype>
											<trackindex>1</trackindex>
											<clipindex>1</clipindex>
										</link>
										<link>
											<linkclipref>clipitem-546</linkclipref>
											<mediatype>audio</mediatype>
											<trackindex>1</trackindex>
											<clipindex>1</clipindex>
											<groupindex>1</groupindex>
										</link>
										<link>
											<linkclipref>clipitem-547</linkclipref>
											<mediatype>audio</mediatype>
											<trackindex>2</trackindex>
											<clipindex>1</clipindex>
											<groupindex>1</groupindex>
										</link>
										<labels>
											<label2>Forest</label2>
										</labels>
									</clipitem>
									<enabled>TRUE</enabled>
									<locked>FALSE</locked>
								</track>
								<track TL.SQTrackShy="0" TL.SQTrackExpandedHeight="25" TL.SQTrackExpanded="0" MZ.TrackTargeted="0">
									<clipitem id="clipitem-542">
										<masterclipid>masterclip-322</masterclipid>
										<name>The Rainbow Mountain</name>
										<enabled>TRUE</enabled>
										<duration>5694</duration>
										<rate>
											<timebase>30</timebase>
											<ntsc>TRUE</ntsc>
										</rate>
										<start>0</start>
										<end>5460</end>
										<in>0</in>
										<out>5460</out>
										<pproTicksIn>0</pproTicksIn>
										<pproTicksOut>46277142912000</pproTicksOut>
										<alphatype>straight</alphatype>
										<pixelaspectratio>square</pixelaspectratio>
										<anamorphic>FALSE</anamorphic>
										<file id="file-295">
											<name>DRONE_LOWER_A/NEW DRONE L3.aep</name>
											<pathurl>file://localhost/Volumes/T7/DRONE_08.18.2023/4_Project%20Files/Drone%202023%20Master%20Assets/01_Bugs/NEW%20DRONE%20L3/NEW%20DRONE%20L3.aep</pathurl>
											<rate>
												<timebase>30</timebase>
												<ntsc>TRUE</ntsc>
											</rate>
											<duration>5694</duration>
											<timecode>
												<rate>
													<timebase>30</timebase>
													<ntsc>TRUE</ntsc>
												</rate>
												<string>00;00;00;00</string>
												<frame>0</frame>
												<displayformat>DF</displayformat>
											</timecode>
											<media>
												<video>
													<samplecharacteristics>
														<rate>
															<timebase>30</timebase>
															<ntsc>TRUE</ntsc>
														</rate>
														<width>1920</width>
														<height>1080</height>
														<anamorphic>FALSE</anamorphic>
														<pixelaspectratio>square</pixelaspectratio>
														<fielddominance>lower</fielddominance>
													</samplecharacteristics>
												</video>
											</media>
										</file>
										<logginginfo>
											<description></description>
											<scene></scene>
											<shottake></shottake>
											<lognote></lognote>
											<good></good>
											<originalvideofilename></originalvideofilename>
											<originalaudiofilename></originalaudiofilename>
										</logginginfo>
										<colorinfo>
											<lut></lut>
											<lut1></lut1>
											<asc_sop></asc_sop>
											<asc_sat></asc_sat>
											<lut2></lut2>
										</colorinfo>
										<labels>
											<label2>Rose</label2>
										</labels>
									</clipitem>
									<enabled>TRUE</enabled>
									<locked>FALSE</locked>
								</track>
								<track TL.SQTrackShy="0" TL.SQTrackExpandedHeight="25" TL.SQTrackExpanded="0" MZ.TrackTargeted="0">
									<clipitem id="clipitem-543">
										<masterclipid>masterclip-323</masterclipid>
										<name>Vinicunca</name>
										<enabled>TRUE</enabled>
										<duration>5694</duration>
										<rate>
											<timebase>30</timebase>
											<ntsc>TRUE</ntsc>
										</rate>
										<start>264</start>
										<end>5460</end>
										<in>0</in>
										<out>5196</out>
										<pproTicksIn>0</pproTicksIn>
										<pproTicksOut>44039566771200</pproTicksOut>
										<alphatype>straight</alphatype>
										<pixelaspectratio>square</pixelaspectratio>
										<anamorphic>FALSE</anamorphic>
										<file id="file-296">
											<name>DRONE_PIN/DRONE_PIN.aep</name>
											<pathurl>file://localhost/Volumes/T7/DRONE_08.18.2023/4_Project%20Files/Drone%202023%20Master%20Assets/01_Bugs/DRIVE_LOCATION%20PIN/DRONE_PIN.aep</pathurl>
											<rate>
												<timebase>30</timebase>
												<ntsc>TRUE</ntsc>
											</rate>
											<duration>5694</duration>
											<timecode>
												<rate>
													<timebase>30</timebase>
													<ntsc>TRUE</ntsc>
												</rate>
												<string>00;00;00;00</string>
												<frame>0</frame>
												<displayformat>DF</displayformat>
											</timecode>
											<media>
												<video>
													<samplecharacteristics>
														<rate>
															<timebase>30</timebase>
															<ntsc>TRUE</ntsc>
														</rate>
														<width>1920</width>
														<height>1080</height>
														<anamorphic>FALSE</anamorphic>
														<pixelaspectratio>square</pixelaspectratio>
														<fielddominance>lower</fielddominance>
													</samplecharacteristics>
												</video>
											</media>
										</file>
										<logginginfo>
											<description></description>
											<scene></scene>
											<shottake></shottake>
											<lognote></lognote>
											<good></good>
											<originalvideofilename></originalvideofilename>
											<originalaudiofilename></originalaudiofilename>
										</logginginfo>
										<colorinfo>
											<lut></lut>
											<lut1></lut1>
											<asc_sop></asc_sop>
											<asc_sat></asc_sat>
											<lut2></lut2>
										</colorinfo>
										<labels>
											<label2>Cerulean</label2>
										</labels>
									</clipitem>
									<enabled>TRUE</enabled>
									<locked>FALSE</locked>
								</track>
								<track TL.SQTrackShy="0" TL.SQTrackExpandedHeight="25" TL.SQTrackExpanded="0" MZ.TrackTargeted="0">
									<clipitem id="clipitem-544">
										<masterclipid>masterclip-153</masterclipid>
										<name>ATM BUG</name>
										<enabled>TRUE</enabled>
										<duration>5818</duration>
										<rate>
											<timebase>30</timebase>
											<ntsc>TRUE</ntsc>
										</rate>
										<start>0</start>
										<end>5460</end>
										<in>0</in>
										<out>5460</out>
										<pproTicksIn>0</pproTicksIn>
										<pproTicksOut>46277142912000</pproTicksOut>
										<sequence id="sequence-5"/>
										<labels>
											<label2>Violet</label2>
										</labels>
									</clipitem>
									<enabled>TRUE</enabled>
									<locked>FALSE</locked>
								</track>
								<track TL.SQTrackShy="0" TL.SQTrackExpandedHeight="25" TL.SQTrackExpanded="0" MZ.TrackTargeted="0">
									<clipitem id="clipitem-545">
										<masterclipid>masterclip-267</masterclipid>
										<name>Trans E</name>
										<enabled>TRUE</enabled>
										<duration>5697</duration>
										<rate>
											<timebase>30</timebase>
											<ntsc>TRUE</ntsc>
										</rate>
										<start>5451</start>
										<end>5691</end>
										<in>0</in>
										<out>240</out>
										<pproTicksIn>0</pproTicksIn>
										<pproTicksOut>2034160128000</pproTicksOut>
										<sequence id="sequence-30"/>
											<marker>
												<comment></comment>
												<name></name>
												<in>9</in>
												<out>-1</out>
												<pproColor>4281828977</pproColor>
											</marker>
											<marker>
												<comment></comment>
												<name></name>
												<in>229</in>
												<out>-1</out>
												<pproColor>4281828977</pproColor>
											</marker>
										<link>
											<linkclipref>clipitem-545</linkclipref>
											<mediatype>video</mediatype>
											<trackindex>5</trackindex>
											<clipindex>1</clipindex>
										</link>
										<link>
											<linkclipref>clipitem-548</linkclipref>
											<mediatype>audio</mediatype>
											<trackindex>9</trackindex>
											<clipindex>1</clipindex>
											<groupindex>1</groupindex>
										</link>
										<link>
											<linkclipref>clipitem-549</linkclipref>
											<mediatype>audio</mediatype>
											<trackindex>10</trackindex>
											<clipindex>1</clipindex>
											<groupindex>1</groupindex>
										</link>
										<labels>
											<label2>Tan</label2>
										</labels>
									</clipitem>
									<enabled>TRUE</enabled>
									<locked>FALSE</locked>
								</track>
							</video>
							<audio>
								<numOutputChannels>2</numOutputChannels>
								<format>
									<samplecharacteristics>
										<depth>16</depth>
										<samplerate>32000</samplerate>
									</samplecharacteristics>
								</format>
								<outputs>
									<group>
										<index>1</index>
										<numchannels>1</numchannels>
										<downmix>0</downmix>
										<channel>
											<index>1</index>
										</channel>
									</group>
									<group>
										<index>2</index>
										<numchannels>1</numchannels>
										<downmix>0</downmix>
										<channel>
											<index>2</index>
										</channel>
									</group>
								</outputs>
								<track TL.SQTrackAudioKeyframeStyle="0" TL.SQTrackShy="0" TL.SQTrackExpandedHeight="25" TL.SQTrackExpanded="0" MZ.TrackTargeted="1" PannerCurrentValue="0.5" PannerIsInverted="true" PannerStartKeyframe="-91445760000000000,0.5,0,0,0,0,0,0" PannerName="Balance" currentExplodedTrackIndex="0" totalExplodedTrackCount="2" premiereTrackType="Stereo">
									<clipitem id="clipitem-546" premiereChannelType="stereo">
										<masterclipid>masterclip-305</masterclipid>
										<name>DRONE_Rainbow Mountain_3</name>
										<enabled>TRUE</enabled>
										<duration>6347</duration>
										<rate>
											<timebase>30</timebase>
											<ntsc>TRUE</ntsc>
										</rate>
										<start>0</start>
										<end>-1</end>
										<in>0</in>
										<out>5460</out>
										<pproTicksIn>0</pproTicksIn>
										<pproTicksOut>46277142912000</pproTicksOut>
										<sequence id="sequence-36"/>
										<sourcetrack>
											<mediatype>audio</mediatype>
											<trackindex>0</trackindex>
										</sourcetrack>
										<link>
											<linkclipref>clipitem-524</linkclipref>
											<mediatype>video</mediatype>
											<trackindex>1</trackindex>
											<clipindex>1</clipindex>
										</link>
										<link>
											<linkclipref>clipitem-546</linkclipref>
											<mediatype>audio</mediatype>
											<trackindex>1</trackindex>
											<clipindex>1</clipindex>
											<groupindex>1</groupindex>
										</link>
										<link>
											<linkclipref>clipitem-547</linkclipref>
											<mediatype>audio</mediatype>
											<trackindex>2</trackindex>
											<clipindex>1</clipindex>
											<groupindex>1</groupindex>
										</link>
										<labels>
											<label2>Forest</label2>
										</labels>
									</clipitem>
									<transitionitem>
										<start>5453</start>
										<end>5460</end>
										<pproTicksIn>46217813241600</pproTicksIn>
										<pproTicksOut>46277142912000</pproTicksOut>
										<alignment>end-black</alignment>
										<cutPointTicks>59329670400</cutPointTicks>
										<rate>
											<timebase>30</timebase>
											<ntsc>TRUE</ntsc>
										</rate>
										<effect>
											<name>Cross Fade ( 0dB)</name>
											<effectid>KGAudioTransCrossFade0dB</effectid>
											<effecttype>transition</effecttype>
											<mediatype>audio</mediatype>
											<wipecode>0</wipecode>
											<wipeaccuracy>100</wipeaccuracy>
											<startratio>0</startratio>
											<endratio>1</endratio>
											<reverse>FALSE</reverse>
										</effect>
									</transitionitem>
									<enabled>TRUE</enabled>
									<locked>FALSE</locked>
									<outputchannelindex>1</outputchannelindex>
								</track>
								<track TL.SQTrackAudioKeyframeStyle="0" TL.SQTrackShy="0" TL.SQTrackExpandedHeight="25" TL.SQTrackExpanded="0" MZ.TrackTargeted="1" PannerCurrentValue="0.5" PannerIsInverted="true" PannerStartKeyframe="-91445760000000000,0.5,0,0,0,0,0,0" PannerName="Balance" currentExplodedTrackIndex="1" totalExplodedTrackCount="2" premiereTrackType="Stereo">
									<clipitem id="clipitem-547" premiereChannelType="stereo">
										<masterclipid>masterclip-305</masterclipid>
										<name>DRONE_Rainbow Mountain_3</name>
										<enabled>TRUE</enabled>
										<duration>6347</duration>
										<rate>
											<timebase>30</timebase>
											<ntsc>TRUE</ntsc>
										</rate>
										<start>0</start>
										<end>-1</end>
										<in>0</in>
										<out>5460</out>
										<pproTicksIn>0</pproTicksIn>
										<pproTicksOut>46277142912000</pproTicksOut>
										<sequence id="sequence-36"/>
										<sourcetrack>
											<mediatype>audio</mediatype>
											<trackindex>1</trackindex>
										</sourcetrack>
										<link>
											<linkclipref>clipitem-524</linkclipref>
											<mediatype>video</mediatype>
											<trackindex>1</trackindex>
											<clipindex>1</clipindex>
										</link>
										<link>
											<linkclipref>clipitem-546</linkclipref>
											<mediatype>audio</mediatype>
											<trackindex>1</trackindex>
											<clipindex>1</clipindex>
											<groupindex>1</groupindex>
										</link>
										<link>
											<linkclipref>clipitem-547</linkclipref>
											<mediatype>audio</mediatype>
											<trackindex>2</trackindex>
											<clipindex>1</clipindex>
											<groupindex>1</groupindex>
										</link>
										<labels>
											<label2>Forest</label2>
										</labels>
									</clipitem>
									<transitionitem>
										<start>5453</start>
										<end>5460</end>
										<pproTicksIn>46217813241600</pproTicksIn>
										<pproTicksOut>46277142912000</pproTicksOut>
										<alignment>end-black</alignment>
										<cutPointTicks>59329670400</cutPointTicks>
										<rate>
											<timebase>30</timebase>
											<ntsc>TRUE</ntsc>
										</rate>
										<effect>
											<name>Cross Fade ( 0dB)</name>
											<effectid>KGAudioTransCrossFade0dB</effectid>
											<effecttype>transition</effecttype>
											<mediatype>audio</mediatype>
											<wipecode>0</wipecode>
											<wipeaccuracy>100</wipeaccuracy>
											<startratio>0</startratio>
											<endratio>1</endratio>
											<reverse>FALSE</reverse>
										</effect>
									</transitionitem>
									<enabled>TRUE</enabled>
									<locked>FALSE</locked>
									<outputchannelindex>2</outputchannelindex>
								</track>
								<track TL.SQTrackAudioKeyframeStyle="0" TL.SQTrackShy="0" TL.SQTrackExpandedHeight="25" TL.SQTrackExpanded="0" MZ.TrackTargeted="1" PannerCurrentValue="0.5" PannerIsInverted="true" PannerStartKeyframe="-91445760000000000,0.5,0,0,0,0,0,0" PannerName="Balance" currentExplodedTrackIndex="0" totalExplodedTrackCount="2" premiereTrackType="Stereo">
									<enabled>TRUE</enabled>
									<locked>FALSE</locked>
									<outputchannelindex>1</outputchannelindex>
								</track>
								<track TL.SQTrackAudioKeyframeStyle="0" TL.SQTrackShy="0" TL.SQTrackExpandedHeight="25" TL.SQTrackExpanded="0" MZ.TrackTargeted="1" PannerCurrentValue="0.5" PannerIsInverted="true" PannerStartKeyframe="-91445760000000000,0.5,0,0,0,0,0,0" PannerName="Balance" currentExplodedTrackIndex="1" totalExplodedTrackCount="2" premiereTrackType="Stereo">
									<enabled>TRUE</enabled>
									<locked>FALSE</locked>
									<outputchannelindex>2</outputchannelindex>
								</track>
								<track TL.SQTrackAudioKeyframeStyle="0" TL.SQTrackShy="0" TL.SQTrackExpandedHeight="25" TL.SQTrackExpanded="0" MZ.TrackTargeted="1" PannerCurrentValue="0.5" PannerIsInverted="true" PannerStartKeyframe="-91445760000000000,0.5,0,0,0,0,0,0" PannerName="Balance" currentExplodedTrackIndex="0" totalExplodedTrackCount="2" premiereTrackType="Stereo">
									<enabled>TRUE</enabled>
									<locked>FALSE</locked>
									<outputchannelindex>1</outputchannelindex>
								</track>
								<track TL.SQTrackAudioKeyframeStyle="0" TL.SQTrackShy="0" TL.SQTrackExpandedHeight="25" TL.SQTrackExpanded="0" MZ.TrackTargeted="1" PannerCurrentValue="0.5" PannerIsInverted="true" PannerStartKeyframe="-91445760000000000,0.5,0,0,0,0,0,0" PannerName="Balance" currentExplodedTrackIndex="1" totalExplodedTrackCount="2" premiereTrackType="Stereo">
									<enabled>TRUE</enabled>
									<locked>FALSE</locked>
									<outputchannelindex>2</outputchannelindex>
								</track>
								<track TL.SQTrackAudioKeyframeStyle="0" TL.SQTrackShy="0" TL.SQTrackExpandedHeight="25" TL.SQTrackExpanded="0" MZ.TrackTargeted="0" PannerCurrentValue="0.5" PannerIsInverted="true" PannerStartKeyframe="-91445760000000000,0.5,0,0,0,0,0,0" PannerName="Balance" currentExplodedTrackIndex="0" totalExplodedTrackCount="2" premiereTrackType="Stereo">
									<enabled>TRUE</enabled>
									<locked>FALSE</locked>
									<outputchannelindex>1</outputchannelindex>
								</track>
								<track TL.SQTrackAudioKeyframeStyle="0" TL.SQTrackShy="0" TL.SQTrackExpandedHeight="25" TL.SQTrackExpanded="0" MZ.TrackTargeted="0" PannerCurrentValue="0.5" PannerIsInverted="true" PannerStartKeyframe="-91445760000000000,0.5,0,0,0,0,0,0" PannerName="Balance" currentExplodedTrackIndex="1" totalExplodedTrackCount="2" premiereTrackType="Stereo">
									<enabled>TRUE</enabled>
									<locked>FALSE</locked>
									<outputchannelindex>2</outputchannelindex>
								</track>
								<track TL.SQTrackAudioKeyframeStyle="0" TL.SQTrackShy="0" TL.SQTrackExpandedHeight="25" TL.SQTrackExpanded="0" MZ.TrackTargeted="0" PannerCurrentValue="0.5" PannerIsInverted="true" PannerStartKeyframe="-91445760000000000,0.5,0,0,0,0,0,0" PannerName="Balance" currentExplodedTrackIndex="0" totalExplodedTrackCount="2" premiereTrackType="Stereo">
									<clipitem id="clipitem-548" premiereChannelType="stereo">
										<masterclipid>masterclip-267</masterclipid>
										<name>Trans E</name>
										<enabled>TRUE</enabled>
										<duration>5697</duration>
										<rate>
											<timebase>30</timebase>
											<ntsc>TRUE</ntsc>
										</rate>
										<start>5451</start>
										<end>5691</end>
										<in>0</in>
										<out>240</out>
										<pproTicksIn>0</pproTicksIn>
										<pproTicksOut>2034160128000</pproTicksOut>
										<sequence id="sequence-30"/>
										<sourcetrack>
											<mediatype>audio</mediatype>
											<trackindex>0</trackindex>
										</sourcetrack>
											<marker>
												<comment></comment>
												<name></name>
												<in>9</in>
												<out>-1</out>
												<pproColor>4281828977</pproColor>
											</marker>
											<marker>
												<comment></comment>
												<name></name>
												<in>229</in>
												<out>-1</out>
												<pproColor>4281828977</pproColor>
											</marker>
										<link>
											<linkclipref>clipitem-545</linkclipref>
											<mediatype>video</mediatype>
											<trackindex>5</trackindex>
											<clipindex>1</clipindex>
										</link>
										<link>
											<linkclipref>clipitem-548</linkclipref>
											<mediatype>audio</mediatype>
											<trackindex>9</trackindex>
											<clipindex>1</clipindex>
											<groupindex>1</groupindex>
										</link>
										<link>
											<linkclipref>clipitem-549</linkclipref>
											<mediatype>audio</mediatype>
											<trackindex>10</trackindex>
											<clipindex>1</clipindex>
											<groupindex>1</groupindex>
										</link>
										<labels>
											<label2>Tan</label2>
										</labels>
									</clipitem>
									<enabled>TRUE</enabled>
									<locked>FALSE</locked>
									<outputchannelindex>1</outputchannelindex>
								</track>
								<track TL.SQTrackAudioKeyframeStyle="0" TL.SQTrackShy="0" TL.SQTrackExpandedHeight="25" TL.SQTrackExpanded="0" MZ.TrackTargeted="0" PannerCurrentValue="0.5" PannerIsInverted="true" PannerStartKeyframe="-91445760000000000,0.5,0,0,0,0,0,0" PannerName="Balance" currentExplodedTrackIndex="1" totalExplodedTrackCount="2" premiereTrackType="Stereo">
									<clipitem id="clipitem-549" premiereChannelType="stereo">
										<masterclipid>masterclip-267</masterclipid>
										<name>Trans E</name>
										<enabled>TRUE</enabled>
										<duration>5697</duration>
										<rate>
											<timebase>30</timebase>
											<ntsc>TRUE</ntsc>
										</rate>
										<start>5451</start>
										<end>5691</end>
										<in>0</in>
										<out>240</out>
										<pproTicksIn>0</pproTicksIn>
										<pproTicksOut>2034160128000</pproTicksOut>
										<sequence id="sequence-30"/>
										<sourcetrack>
											<mediatype>audio</mediatype>
											<trackindex>1</trackindex>
										</sourcetrack>
											<marker>
												<comment></comment>
												<name></name>
												<in>9</in>
												<out>-1</out>
												<pproColor>4281828977</pproColor>
											</marker>
											<marker>
												<comment></comment>
												<name></name>
												<in>229</in>
												<out>-1</out>
												<pproColor>4281828977</pproColor>
											</marker>
										<link>
											<linkclipref>clipitem-545</linkclipref>
											<mediatype>video</mediatype>
											<trackindex>5</trackindex>
											<clipindex>1</clipindex>
										</link>
										<link>
											<linkclipref>clipitem-548</linkclipref>
											<mediatype>audio</mediatype>
											<trackindex>9</trackindex>
											<clipindex>1</clipindex>
											<groupindex>1</groupindex>
										</link>
										<link>
											<linkclipref>clipitem-549</linkclipref>
											<mediatype>audio</mediatype>
											<trackindex>10</trackindex>
											<clipindex>1</clipindex>
											<groupindex>1</groupindex>
										</link>
										<labels>
											<label2>Tan</label2>
										</labels>
									</clipitem>
									<enabled>TRUE</enabled>
									<locked>FALSE</locked>
									<outputchannelindex>2</outputchannelindex>
								</track>
							</audio>
						</media>
						<timecode>
							<rate>
								<timebase>30</timebase>
								<ntsc>TRUE</ntsc>
							</rate>
							<string>00;00;00;00</string>
							<frame>0</frame>
							<displayformat>DF</displayformat>
						</timecode>
							<marker>
								<comment></comment>
								<name></name>
								<in>264</in>
								<out>-1</out>
								<pproColor>4281828977</pproColor>
							</marker>
						<labels>
							<label2>Forest</label2>
						</labels>
						<logginginfo>
							<description></description>
							<scene></scene>
							<shottake></shottake>
							<lognote></lognote>
							<good></good>
							<originalvideofilename></originalvideofilename>
							<originalaudiofilename></originalaudiofilename>
						</logginginfo>
					</sequence>
					<sequence id="sequence-37" TL.SQAudioVisibleBase="0" TL.SQVideoVisibleBase="0" TL.SQVisibleBaseTime="0" TL.SQAVDividerPosition="0.5" TL.SQHideShyTracks="0" TL.SQHeaderWidth="236" TL.SQDataTrackViewControlState="0" Monitor.ProgramZoomOut="43980237100800" Monitor.ProgramZoomIn="0" TL.SQTimePerPixel="1.1353004894762604" MZ.EditLine="45565186867200" MZ.Sequence.PreviewFrameSizeHeight="1080" MZ.Sequence.PreviewFrameSizeWidth="1920" MZ.Sequence.AudioTimeDisplayFormat="200" MZ.Sequence.PreviewRenderingClassID="1297106761" MZ.Sequence.PreviewRenderingPresetCodec="1297107278" MZ.Sequence.PreviewRenderingPresetPath="EncoderPresets/SequencePreview/795454d9-d3c2-429d-9474-923ab13b7018/I-Frame Only MPEG.epr" MZ.Sequence.PreviewUseMaxRenderQuality="false" MZ.Sequence.PreviewUseMaxBitDepth="false" MZ.Sequence.EditingModeGUID="795454d9-d3c2-429d-9474-923ab13b7018" MZ.Sequence.VideoTimeDisplayFormat="102" MZ.WorkOutPoint="15239249625600" MZ.WorkInPoint="0" explodedTracks="true">
						<uuid>1bdb28d6-47b9-4ec2-8aa0-34d01d731860</uuid>
						<duration>5043</duration>
						<rate>
							<timebase>30</timebase>
							<ntsc>TRUE</ntsc>
						</rate>
						<name>ATM_DRONE_503</name>
						<media>
							<video>
								<format>
									<samplecharacteristics>
										<rate>
											<timebase>30</timebase>
											<ntsc>TRUE</ntsc>
										</rate>
										<codec>
											<name>Apple ProRes 422</name>
											<appspecificdata>
												<appname>Final Cut Pro</appname>
												<appmanufacturer>Apple Inc.</appmanufacturer>
												<appversion>7.0</appversion>
												<data>
													<qtcodec>
														<codecname>Apple ProRes 422</codecname>
														<codectypename>Apple ProRes 422</codectypename>
														<codectypecode>apcn</codectypecode>
														<codecvendorcode>appl</codecvendorcode>
														<spatialquality>1024</spatialquality>
														<temporalquality>0</temporalquality>
														<keyframerate>0</keyframerate>
														<datarate>0</datarate>
													</qtcodec>
												</data>
											</appspecificdata>
										</codec>
										<width>1920</width>
										<height>1080</height>
										<anamorphic>FALSE</anamorphic>
										<pixelaspectratio>square</pixelaspectratio>
										<fielddominance>none</fielddominance>
										<colordepth>24</colordepth>
									</samplecharacteristics>
								</format>
								<track TL.SQTrackShy="0" TL.SQTrackExpandedHeight="25" TL.SQTrackExpanded="0" MZ.TrackTargeted="1">
									<clipitem id="clipitem-550">
										<masterclipid>masterclip-324</masterclipid>
										<name>DRONE_Flying in the Field_3</name>
										<enabled>TRUE</enabled>
										<duration>5573</duration>
										<rate>
											<timebase>30</timebase>
											<ntsc>TRUE</ntsc>
										</rate>
										<start>0</start>
										<end>5043</end>
										<in>0</in>
										<out>5043</out>
										<pproTicksIn>0</pproTicksIn>
										<pproTicksOut>42742789689600</pproTicksOut>
										<sequence id="sequence-38" TL.SQAudioVisibleBase="0" TL.SQVideoVisibleBase="0" TL.SQVisibleBaseTime="35287642428394" TL.SQAVDividerPosition="0.5" TL.SQHideShyTracks="0" TL.SQHeaderWidth="236" Monitor.ProgramZoomOut="42742789689600" Monitor.ProgramZoomIn="0" TL.SQTimePerPixel="0.088448041230212368" MZ.EditLine="42742789689600" MZ.Sequence.PreviewFrameSizeHeight="1080" MZ.Sequence.PreviewFrameSizeWidth="1920" MZ.Sequence.AudioTimeDisplayFormat="200" MZ.Sequence.PreviewRenderingClassID="1061109567" MZ.Sequence.PreviewRenderingPresetCodec="1634755443" MZ.Sequence.PreviewRenderingPresetPath="EncoderPresets/SequencePreview/35d109db-457b-43c1-9452-9cb7be9f121c/QuickTime.epr" MZ.Sequence.PreviewUseMaxRenderQuality="false" MZ.Sequence.PreviewUseMaxBitDepth="false" MZ.Sequence.EditingModeGUID="35d109db-457b-43c1-9452-9cb7be9f121c" MZ.Sequence.VideoTimeDisplayFormat="102" MZ.WorkOutPoint="15239249625600" MZ.WorkInPoint="0">
											<duration>5043</duration>
											<rate>
												<timebase>30</timebase>
												<ntsc>TRUE</ntsc>
											</rate>
											<name>DRONE_Flying in the Field_3</name>
											<media>
												<video>
													<format>
														<samplecharacteristics>
															<rate>
																<timebase>30</timebase>
																<ntsc>TRUE</ntsc>
															</rate>
															<codec>
																<name>Apple ProRes 422</name>
																<appspecificdata>
																	<appname>Final Cut Pro</appname>
																	<appmanufacturer>Apple Inc.</appmanufacturer>
																	<appversion>7.0</appversion>
																	<data>
																		<qtcodec>
																			<codecname>Apple ProRes 422</codecname>
																			<codectypename>Apple ProRes 422</codectypename>
																			<codectypecode>apcn</codectypecode>
																			<codecvendorcode>appl</codecvendorcode>
																			<spatialquality>1024</spatialquality>
																			<temporalquality>0</temporalquality>
																			<keyframerate>0</keyframerate>
																			<datarate>0</datarate>
																		</qtcodec>
																	</data>
																</appspecificdata>
															</codec>
															<width>1920</width>
															<height>1080</height>
															<anamorphic>FALSE</anamorphic>
															<pixelaspectratio>square</pixelaspectratio>
															<fielddominance>none</fielddominance>
															<colordepth>24</colordepth>
														</samplecharacteristics>
													</format>
													<track TL.SQTrackShy="0" TL.SQTrackExpandedHeight="25" TL.SQTrackExpanded="0" MZ.TrackTargeted="1">
														<clipitem id="clipitem-551">
															<masterclipid>masterclip-325</masterclipid>
															<name>(LOUD fpv)_SUNSET_XuOQ1_yrYoE_YT.mp4</name>
															<enabled>TRUE</enabled>
															<duration>1540</duration>
															<rate>
																<timebase>30</timebase>
																<ntsc>TRUE</ntsc>
															</rate>
															<start>0</start>
															<end>301</end>
															<in>0</in>
															<out>301</out>
															<pproTicksIn>0</pproTicksIn>
															<pproTicksOut>2551175827200</pproTicksOut>
															<alphatype>none</alphatype>
															<pixelaspectratio>square</pixelaspectratio>
															<anamorphic>FALSE</anamorphic>
															<file id="file-297">
																<name>(LOUD fpv)_SUNSET_XuOQ1_yrYoE_YT.mp4</name>
																<pathurl>file://localhost/Volumes/T7/DRONE_08.18.2023/3_Raw%20Files/Various%20Files/(LOUD%20fpv)_SUNSET_XuOQ1_yrYoE_YT.mp4</pathurl>
																<rate>
																	<timebase>60</timebase>
																	<ntsc>TRUE</ntsc>
																</rate>
																<duration>3081</duration>
																<timecode>
																	<rate>
																		<timebase>60</timebase>
																		<ntsc>TRUE</ntsc>
																	</rate>
																	<string>00:00:00:00</string>
																	<frame>0</frame>
																	<displayformat>NDF</displayformat>
																</timecode>
																<media>
																	<video>
																		<samplecharacteristics>
																			<rate>
																				<timebase>60</timebase>
																				<ntsc>TRUE</ntsc>
																			</rate>
																			<width>1920</width>
																			<height>1080</height>
																			<anamorphic>FALSE</anamorphic>
																			<pixelaspectratio>square</pixelaspectratio>
																			<fielddominance>none</fielddominance>
																		</samplecharacteristics>
																	</video>
																	<audio>
																		<samplecharacteristics>
																			<depth>16</depth>
																			<samplerate>44100</samplerate>
																		</samplecharacteristics>
																		<channelcount>2</channelcount>
																	</audio>
																</media>
															</file>
															<logginginfo>
																<description></description>
																<scene></scene>
																<shottake></shottake>
																<lognote>https://www.youtube.com/watch?v=XuOQ1_yrYoE</lognote>
																<good></good>
																<originalvideofilename></originalvideofilename>
																<originalaudiofilename></originalaudiofilename>
															</logginginfo>
															<colorinfo>
																<lut></lut>
																<lut1></lut1>
																<asc_sop></asc_sop>
																<asc_sat></asc_sat>
																<lut2></lut2>
															</colorinfo>
															<labels>
																<label2>Iris</label2>
															</labels>
														</clipitem>
														<clipitem id="clipitem-552">
															<masterclipid>masterclip-325</masterclipid>
															<name>(LOUD fpv)_SUNSET_XuOQ1_yrYoE_YT.mp4</name>
															<enabled>TRUE</enabled>
															<duration>1540</duration>
															<rate>
																<timebase>30</timebase>
																<ntsc>TRUE</ntsc>
															</rate>
															<start>301</start>
															<end>957</end>
															<in>323</in>
															<out>979</out>
															<pproTicksIn>2737640505600</pproTicksIn>
															<pproTicksOut>8297678188800</pproTicksOut>
															<alphatype>none</alphatype>
															<file id="file-297"/>
															<logginginfo>
																<description></description>
																<scene></scene>
																<shottake></shottake>
																<lognote>https://www.youtube.com/watch?v=XuOQ1_yrYoE</lognote>
																<good></good>
																<originalvideofilename></originalvideofilename>
																<originalaudiofilename></originalaudiofilename>
															</logginginfo>
															<colorinfo>
																<lut></lut>
																<lut1></lut1>
																<asc_sop></asc_sop>
																<asc_sat></asc_sat>
																<lut2></lut2>
															</colorinfo>
															<labels>
																<label2>Iris</label2>
															</labels>
														</clipitem>
														<clipitem id="clipitem-553">
															<masterclipid>masterclip-325</masterclipid>
															<name>(LOUD fpv)_SUNSET_XuOQ1_yrYoE_YT.mp4</name>
															<enabled>TRUE</enabled>
															<duration>1540</duration>
															<rate>
																<timebase>30</timebase>
																<ntsc>TRUE</ntsc>
															</rate>
															<start>957</start>
															<end>-1</end>
															<in>989</in>
															<out>1396</out>
															<pproTicksIn>8382434860800</pproTicksIn>
															<pproTicksOut>11832031411200</pproTicksOut>
															<alphatype>none</alphatype>
															<file id="file-297"/>
															<logginginfo>
																<description></description>
																<scene></scene>
																<shottake></shottake>
																<lognote>https://www.youtube.com/watch?v=XuOQ1_yrYoE</lognote>
																<good></good>
																<originalvideofilename></originalvideofilename>
																<originalaudiofilename></originalaudiofilename>
															</logginginfo>
															<colorinfo>
																<lut></lut>
																<lut1></lut1>
																<asc_sop></asc_sop>
																<asc_sat></asc_sat>
																<lut2></lut2>
															</colorinfo>
															<labels>
																<label2>Iris</label2>
															</labels>
														</clipitem>
														<transitionitem>
															<start>1349</start>
															<end>1364</end>
															<alignment>start</alignment>
															<cutPointTicks>0</cutPointTicks>
															<rate>
																<timebase>30</timebase>
																<ntsc>TRUE</ntsc>
															</rate>
															<effect>
																<name>Cross Dissolve</name>
																<effectid>Cross Dissolve</effectid>
																<effectcategory>Dissolve</effectcategory>
																<effecttype>transition</effecttype>
																<mediatype>video</mediatype>
																<wipecode>0</wipecode>
																<wipeaccuracy>100</wipeaccuracy>
																<startratio>0</startratio>
																<endratio>1</endratio>
																<reverse>FALSE</reverse>
															</effect>
														</transitionitem>
														<clipitem id="clipitem-554">
															<masterclipid>masterclip-326</masterclipid>
															<name>(LOUD fpv)_Strolling after the harvest_bcD9SOmXz5o_YT.mp4</name>
															<enabled>TRUE</enabled>
															<duration>3726</duration>
															<rate>
																<timebase>30</timebase>
																<ntsc>TRUE</ntsc>
															</rate>
															<start>-1</start>
															<end>5043</end>
															<in>0</in>
															<out>3694</out>
															<pproTicksIn>0</pproTicksIn>
															<pproTicksOut>31309114636800</pproTicksOut>
															<alphatype>none</alphatype>
															<pixelaspectratio>square</pixelaspectratio>
															<anamorphic>FALSE</anamorphic>
															<file id="file-298">
																<name>(LOUD fpv)_Strolling after the harvest_bcD9SOmXz5o_YT.mp4</name>
																<pathurl>file://localhost/Volumes/T7/DRONE_08.18.2023/3_Raw%20Files/Various%20Files/Various%20Files/(LOUD%20fpv)_Strolling%20after%20the%20harvest_bcD9SOmXz5o_YT.mp4</pathurl>
																<rate>
																	<timebase>60</timebase>
																	<ntsc>TRUE</ntsc>
																</rate>
																<duration>7453</duration>
																<timecode>
																	<rate>
																		<timebase>60</timebase>
																		<ntsc>TRUE</ntsc>
																	</rate>
																	<string>00:00:00:00</string>
																	<frame>0</frame>
																	<displayformat>NDF</displayformat>
																</timecode>
																<media>
																	<video>
																		<samplecharacteristics>
																			<rate>
																				<timebase>60</timebase>
																				<ntsc>TRUE</ntsc>
																			</rate>
																			<width>1920</width>
																			<height>1080</height>
																			<anamorphic>FALSE</anamorphic>
																			<pixelaspectratio>square</pixelaspectratio>
																			<fielddominance>none</fielddominance>
																		</samplecharacteristics>
																	</video>
																	<audio>
																		<samplecharacteristics>
																			<depth>16</depth>
																			<samplerate>44100</samplerate>
																		</samplecharacteristics>
																		<channelcount>2</channelcount>
																	</audio>
																</media>
															</file>
															<logginginfo>
																<description></description>
																<scene></scene>
																<shottake></shottake>
																<lognote>https://www.youtube.com/watch?v=bcD9SOmXz5o</lognote>
																<good></good>
																<originalvideofilename></originalvideofilename>
																<originalaudiofilename></originalaudiofilename>
															</logginginfo>
															<colorinfo>
																<lut></lut>
																<lut1></lut1>
																<asc_sop></asc_sop>
																<asc_sat></asc_sat>
																<lut2></lut2>
															</colorinfo>
															<labels>
																<label2>Iris</label2>
															</labels>
														</clipitem>
														<enabled>TRUE</enabled>
														<locked>FALSE</locked>
													</track>
													<track TL.SQTrackShy="0" TL.SQTrackExpandedHeight="25" TL.SQTrackExpanded="0" MZ.TrackTargeted="0">
														<clipitem id="clipitem-555">
															<masterclipid>masterclip-327</masterclipid>
															<name>Loud FPV</name>
															<enabled>TRUE</enabled>
															<duration>5844</duration>
															<rate>
																<timebase>30</timebase>
																<ntsc>TRUE</ntsc>
															</rate>
															<start>0</start>
															<end>5043</end>
															<in>0</in>
															<out>5043</out>
															<pproTicksIn>0</pproTicksIn>
															<pproTicksOut>42742789689600</pproTicksOut>
															<alphatype>straight</alphatype>
															<pixelaspectratio>square</pixelaspectratio>
															<anamorphic>FALSE</anamorphic>
															<file id="file-299">
																<name>1080/AE Attribution.aep</name>
																<pathurl>file://localhost/Volumes/T7/DRONE_08.18.2023/4_Project%20Files/Drone%202023%20Master%20Assets/01_Bugs/AE%20Attribution.aep</pathurl>
																<rate>
																	<timebase>30</timebase>
																	<ntsc>TRUE</ntsc>
																</rate>
																<duration>5844</duration>
																<timecode>
																	<rate>
																		<timebase>30</timebase>
																		<ntsc>TRUE</ntsc>
																	</rate>
																	<string>00;00;00;00</string>
																	<frame>0</frame>
																	<displayformat>DF</displayformat>
																</timecode>
																<media>
																	<video>
																		<samplecharacteristics>
																			<rate>
																				<timebase>30</timebase>
																				<ntsc>TRUE</ntsc>
																			</rate>
																			<width>1920</width>
																			<height>1080</height>
																			<anamorphic>FALSE</anamorphic>
																			<pixelaspectratio>square</pixelaspectratio>
																			<fielddominance>lower</fielddominance>
																		</samplecharacteristics>
																	</video>
																</media>
															</file>
															<logginginfo>
																<description></description>
																<scene></scene>
																<shottake></shottake>
																<lognote></lognote>
																<good></good>
																<originalvideofilename></originalvideofilename>
																<originalaudiofilename></originalaudiofilename>
															</logginginfo>
															<colorinfo>
																<lut></lut>
																<lut1></lut1>
																<asc_sop></asc_sop>
																<asc_sat></asc_sat>
																<lut2></lut2>
															</colorinfo>
															<labels>
																<label2>Yellow</label2>
															</labels>
														</clipitem>
														<enabled>TRUE</enabled>
														<locked>FALSE</locked>
													</track>
													<track TL.SQTrackShy="0" TL.SQTrackExpandedHeight="25" TL.SQTrackExpanded="0" MZ.TrackTargeted="0">
														<enabled>TRUE</enabled>
														<locked>FALSE</locked>
													</track>
												</video>
												<audio>
													<numOutputChannels>2</numOutputChannels>
													<format>
														<samplecharacteristics>
															<depth>16</depth>
															<samplerate>48000</samplerate>
														</samplecharacteristics>
													</format>
													<outputs>
														<group>
															<index>1</index>
															<numchannels>1</numchannels>
															<downmix>0</downmix>
															<channel>
																<index>1</index>
															</channel>
														</group>
														<group>
															<index>2</index>
															<numchannels>1</numchannels>
															<downmix>0</downmix>
															<channel>
																<index>2</index>
															</channel>
														</group>
													</outputs>
													<track TL.SQTrackAudioKeyframeStyle="0" TL.SQTrackShy="0" TL.SQTrackExpandedHeight="25" TL.SQTrackExpanded="0" MZ.TrackTargeted="1" PannerCurrentValue="0.5" PannerIsInverted="true" PannerStartKeyframe="-91445760000000000,0.5,0,0,0,0,0,0" PannerName="Balance" currentExplodedTrackIndex="0" totalExplodedTrackCount="2" premiereTrackType="Stereo">
														<transitionitem>
															<start>0</start>
															<end>7</end>
															<pproTicksIn>0</pproTicksIn>
															<pproTicksOut>59329670400</pproTicksOut>
															<alignment>start-black</alignment>
															<cutPointTicks>0</cutPointTicks>
															<rate>
																<timebase>30</timebase>
																<ntsc>TRUE</ntsc>
															</rate>
															<effect>
																<name>Cross Fade ( 0dB)</name>
																<effectid>KGAudioTransCrossFade0dB</effectid>
																<effecttype>transition</effecttype>
																<mediatype>audio</mediatype>
																<wipecode>0</wipecode>
																<wipeaccuracy>100</wipeaccuracy>
																<startratio>0</startratio>
																<endratio>1</endratio>
																<reverse>FALSE</reverse>
															</effect>
														</transitionitem>
														<clipitem id="clipitem-556" premiereChannelType="stereo">
															<masterclipid>masterclip-328</masterclipid>
															<name>ES_Em Baixo (Instrumental Version) - Clara Mendes.mp3</name>
															<enabled>TRUE</enabled>
															<duration>5573</duration>
															<rate>
																<timebase>30</timebase>
																<ntsc>TRUE</ntsc>
															</rate>
															<start>-1</start>
															<end>-1</end>
															<in>218</in>
															<out>5261</out>
															<pproTicksIn>1847695449600</pproTicksIn>
															<pproTicksOut>44590485139200</pproTicksOut>
															<file id="file-300">
																<name>ES_Em Baixo (Instrumental Version) - Clara Mendes.mp3</name>
																<pathurl>file://localhost/Volumes/T7/DRONE_08.18.2023/5_Music/ES_Em%20Baixo%20(Instrumental%20Version)%20-%20Clara%20Mendes.mp3</pathurl>
																<rate>
																	<timebase>30</timebase>
																	<ntsc>TRUE</ntsc>
																</rate>
																<duration>5573</duration>
																<timecode>
																	<rate>
																		<timebase>30</timebase>
																		<ntsc>TRUE</ntsc>
																	</rate>
																	<string>00;00;00;00</string>
																	<frame>0</frame>
																	<displayformat>DF</displayformat>
																</timecode>
																<media>
																	<audio>
																		<samplecharacteristics>
																			<depth>16</depth>
																			<samplerate>48000</samplerate>
																		</samplecharacteristics>
																		<channelcount>2</channelcount>
																	</audio>
																</media>
															</file>
															<sourcetrack>
																<mediatype>audio</mediatype>
																<trackindex>1</trackindex>
															</sourcetrack>
															<link>
																<linkclipref>clipitem-556</linkclipref>
																<mediatype>audio</mediatype>
																<trackindex>1</trackindex>
																<clipindex>2</clipindex>
																<groupindex>1</groupindex>
															</link>
															<link>
																<linkclipref>clipitem-557</linkclipref>
																<mediatype>audio</mediatype>
																<trackindex>2</trackindex>
																<clipindex>2</clipindex>
																<groupindex>1</groupindex>
															</link>
															<logginginfo>
																<description></description>
																<scene></scene>
																<shottake></shottake>
																<lognote></lognote>
																<good></good>
																<originalvideofilename></originalvideofilename>
																<originalaudiofilename></originalaudiofilename>
															</logginginfo>
															<colorinfo>
																<lut></lut>
																<lut1></lut1>
																<asc_sop></asc_sop>
																<asc_sat></asc_sat>
																<lut2></lut2>
															</colorinfo>
															<labels>
																<label2>Caribbean</label2>
															</labels>
														</clipitem>
														<transitionitem>
															<start>5036</start>
															<end>5043</end>
															<pproTicksIn>42683460019200</pproTicksIn>
															<pproTicksOut>42742789689600</pproTicksOut>
															<alignment>end-black</alignment>
															<cutPointTicks>59329670400</cutPointTicks>
															<rate>
																<timebase>30</timebase>
																<ntsc>TRUE</ntsc>
															</rate>
															<effect>
																<name>Cross Fade ( 0dB)</name>
																<effectid>KGAudioTransCrossFade0dB</effectid>
																<effecttype>transition</effecttype>
																<mediatype>audio</mediatype>
																<wipecode>0</wipecode>
																<wipeaccuracy>100</wipeaccuracy>
																<startratio>0</startratio>
																<endratio>1</endratio>
																<reverse>FALSE</reverse>
															</effect>
														</transitionitem>
														<enabled>TRUE</enabled>
														<locked>FALSE</locked>
														<outputchannelindex>1</outputchannelindex>
													</track>
													<track TL.SQTrackAudioKeyframeStyle="0" TL.SQTrackShy="0" TL.SQTrackExpandedHeight="25" TL.SQTrackExpanded="0" MZ.TrackTargeted="1" PannerCurrentValue="0.5" PannerIsInverted="true" PannerStartKeyframe="-91445760000000000,0.5,0,0,0,0,0,0" PannerName="Balance" currentExplodedTrackIndex="1" totalExplodedTrackCount="2" premiereTrackType="Stereo">
														<transitionitem>
															<start>0</start>
															<end>7</end>
															<pproTicksIn>0</pproTicksIn>
															<pproTicksOut>59329670400</pproTicksOut>
															<alignment>start-black</alignment>
															<cutPointTicks>0</cutPointTicks>
															<rate>
																<timebase>30</timebase>
																<ntsc>TRUE</ntsc>
															</rate>
															<effect>
																<name>Cross Fade ( 0dB)</name>
																<effectid>KGAudioTransCrossFade0dB</effectid>
																<effecttype>transition</effecttype>
																<mediatype>audio</mediatype>
																<wipecode>0</wipecode>
																<wipeaccuracy>100</wipeaccuracy>
																<startratio>0</startratio>
																<endratio>1</endratio>
																<reverse>FALSE</reverse>
															</effect>
														</transitionitem>
														<clipitem id="clipitem-557" premiereChannelType="stereo">
															<masterclipid>masterclip-328</masterclipid>
															<name>ES_Em Baixo (Instrumental Version) - Clara Mendes.mp3</name>
															<enabled>TRUE</enabled>
															<duration>5573</duration>
															<rate>
																<timebase>30</timebase>
																<ntsc>TRUE</ntsc>
															</rate>
															<start>-1</start>
															<end>-1</end>
															<in>218</in>
															<out>5261</out>
															<pproTicksIn>1847695449600</pproTicksIn>
															<pproTicksOut>44590485139200</pproTicksOut>
															<file id="file-300"/>
															<sourcetrack>
																<mediatype>audio</mediatype>
																<trackindex>2</trackindex>
															</sourcetrack>
															<link>
																<linkclipref>clipitem-556</linkclipref>
																<mediatype>audio</mediatype>
																<trackindex>1</trackindex>
																<clipindex>2</clipindex>
																<groupindex>1</groupindex>
															</link>
															<link>
																<linkclipref>clipitem-557</linkclipref>
																<mediatype>audio</mediatype>
																<trackindex>2</trackindex>
																<clipindex>2</clipindex>
																<groupindex>1</groupindex>
															</link>
															<logginginfo>
																<description></description>
																<scene></scene>
																<shottake></shottake>
																<lognote></lognote>
																<good></good>
																<originalvideofilename></originalvideofilename>
																<originalaudiofilename></originalaudiofilename>
															</logginginfo>
															<colorinfo>
																<lut></lut>
																<lut1></lut1>
																<asc_sop></asc_sop>
																<asc_sat></asc_sat>
																<lut2></lut2>
															</colorinfo>
															<labels>
																<label2>Caribbean</label2>
															</labels>
														</clipitem>
														<transitionitem>
															<start>5036</start>
															<end>5043</end>
															<pproTicksIn>42683460019200</pproTicksIn>
															<pproTicksOut>42742789689600</pproTicksOut>
															<alignment>end-black</alignment>
															<cutPointTicks>59329670400</cutPointTicks>
															<rate>
																<timebase>30</timebase>
																<ntsc>TRUE</ntsc>
															</rate>
															<effect>
																<name>Cross Fade ( 0dB)</name>
																<effectid>KGAudioTransCrossFade0dB</effectid>
																<effecttype>transition</effecttype>
																<mediatype>audio</mediatype>
																<wipecode>0</wipecode>
																<wipeaccuracy>100</wipeaccuracy>
																<startratio>0</startratio>
																<endratio>1</endratio>
																<reverse>FALSE</reverse>
															</effect>
														</transitionitem>
														<enabled>TRUE</enabled>
														<locked>FALSE</locked>
														<outputchannelindex>2</outputchannelindex>
													</track>
													<track TL.SQTrackAudioKeyframeStyle="0" TL.SQTrackShy="0" TL.SQTrackExpandedHeight="25" TL.SQTrackExpanded="0" MZ.TrackTargeted="1" PannerCurrentValue="0.5" PannerIsInverted="true" PannerStartKeyframe="-91445760000000000,0.5,0,0,0,0,0,0" PannerName="Balance" currentExplodedTrackIndex="0" totalExplodedTrackCount="2" premiereTrackType="Stereo">
														<enabled>TRUE</enabled>
														<locked>FALSE</locked>
														<outputchannelindex>1</outputchannelindex>
													</track>
													<track TL.SQTrackAudioKeyframeStyle="0" TL.SQTrackShy="0" TL.SQTrackExpandedHeight="25" TL.SQTrackExpanded="0" MZ.TrackTargeted="1" PannerCurrentValue="0.5" PannerIsInverted="true" PannerStartKeyframe="-91445760000000000,0.5,0,0,0,0,0,0" PannerName="Balance" currentExplodedTrackIndex="1" totalExplodedTrackCount="2" premiereTrackType="Stereo">
														<enabled>TRUE</enabled>
														<locked>FALSE</locked>
														<outputchannelindex>2</outputchannelindex>
													</track>
													<track TL.SQTrackAudioKeyframeStyle="0" TL.SQTrackShy="0" TL.SQTrackExpandedHeight="25" TL.SQTrackExpanded="0" MZ.TrackTargeted="1" PannerCurrentValue="0.5" PannerIsInverted="true" PannerStartKeyframe="-91445760000000000,0.5,0,0,0,0,0,0" PannerName="Balance" currentExplodedTrackIndex="0" totalExplodedTrackCount="2" premiereTrackType="Stereo">
														<enabled>TRUE</enabled>
														<locked>FALSE</locked>
														<outputchannelindex>1</outputchannelindex>
													</track>
													<track TL.SQTrackAudioKeyframeStyle="0" TL.SQTrackShy="0" TL.SQTrackExpandedHeight="25" TL.SQTrackExpanded="0" MZ.TrackTargeted="1" PannerCurrentValue="0.5" PannerIsInverted="true" PannerStartKeyframe="-91445760000000000,0.5,0,0,0,0,0,0" PannerName="Balance" currentExplodedTrackIndex="1" totalExplodedTrackCount="2" premiereTrackType="Stereo">
														<enabled>TRUE</enabled>
														<locked>FALSE</locked>
														<outputchannelindex>2</outputchannelindex>
													</track>
												</audio>
											</media>
											<timecode>
												<rate>
													<timebase>30</timebase>
													<ntsc>TRUE</ntsc>
												</rate>
												<string>00;00;00;00</string>
												<frame>0</frame>
												<displayformat>DF</displayformat>
											</timecode>
											<logginginfo>
												<description></description>
												<scene></scene>
												<shottake></shottake>
												<lognote></lognote>
												<good></good>
												<originalvideofilename></originalvideofilename>
												<originalaudiofilename></originalaudiofilename>
											</logginginfo>
											<filter>
												<effect>
													<name>Audio Levels</name>
													<effectid>audiolevels</effectid>
													<effectcategory>audiolevels</effectcategory>
													<effecttype>audiolevels</effecttype>
													<mediatype>audio</mediatype>
													<parameter authoringApp="PremierePro">
														<parameterid>level</parameterid>
														<name>Level</name>
														<valuemin>0</valuemin>
														<valuemax>3.98109</valuemax>
														<value>0.839406</value>
													</parameter>
												</effect>
											</filter>
										</sequence>
										<link>
											<linkclipref>clipitem-550</linkclipref>
											<mediatype>video</mediatype>
											<trackindex>1</trackindex>
											<clipindex>1</clipindex>
										</link>
										<link>
											<linkclipref>clipitem-561</linkclipref>
											<mediatype>audio</mediatype>
											<trackindex>1</trackindex>
											<clipindex>1</clipindex>
											<groupindex>1</groupindex>
										</link>
										<link>
											<linkclipref>clipitem-562</linkclipref>
											<mediatype>audio</mediatype>
											<trackindex>2</trackindex>
											<clipindex>1</clipindex>
											<groupindex>1</groupindex>
										</link>
										<labels>
											<label2>Forest</label2>
										</labels>
									</clipitem>
									<enabled>TRUE</enabled>
									<locked>FALSE</locked>
								</track>
								<track TL.SQTrackShy="0" TL.SQTrackExpandedHeight="25" TL.SQTrackExpanded="0" MZ.TrackTargeted="0">
									<clipitem id="clipitem-558">
										<masterclipid>masterclip-329</masterclipid>
										<name>Flying in the Field</name>
										<enabled>TRUE</enabled>
										<duration>5694</duration>
										<rate>
											<timebase>30</timebase>
											<ntsc>TRUE</ntsc>
										</rate>
										<start>0</start>
										<end>5043</end>
										<in>0</in>
										<out>5043</out>
										<pproTicksIn>0</pproTicksIn>
										<pproTicksOut>42742789689600</pproTicksOut>
										<alphatype>straight</alphatype>
										<pixelaspectratio>square</pixelaspectratio>
										<anamorphic>FALSE</anamorphic>
										<file id="file-301">
											<name>DRONE_LOWER_A/NEW DRONE L3.aep</name>
											<pathurl>file://localhost/Volumes/T7/DRONE_08.18.2023/4_Project%20Files/Drone%202023%20Master%20Assets/01_Bugs/NEW%20DRONE%20L3/NEW%20DRONE%20L3.aep</pathurl>
											<rate>
												<timebase>30</timebase>
												<ntsc>TRUE</ntsc>
											</rate>
											<duration>5694</duration>
											<timecode>
												<rate>
													<timebase>30</timebase>
													<ntsc>TRUE</ntsc>
												</rate>
												<string>00;00;00;00</string>
												<frame>0</frame>
												<displayformat>DF</displayformat>
											</timecode>
											<media>
												<video>
													<samplecharacteristics>
														<rate>
															<timebase>30</timebase>
															<ntsc>TRUE</ntsc>
														</rate>
														<width>1920</width>
														<height>1080</height>
														<anamorphic>FALSE</anamorphic>
														<pixelaspectratio>square</pixelaspectratio>
														<fielddominance>lower</fielddominance>
													</samplecharacteristics>
												</video>
											</media>
										</file>
										<logginginfo>
											<description></description>
											<scene></scene>
											<shottake></shottake>
											<lognote></lognote>
											<good></good>
											<originalvideofilename></originalvideofilename>
											<originalaudiofilename></originalaudiofilename>
										</logginginfo>
										<colorinfo>
											<lut></lut>
											<lut1></lut1>
											<asc_sop></asc_sop>
											<asc_sat></asc_sat>
											<lut2></lut2>
										</colorinfo>
										<labels>
											<label2>Rose</label2>
										</labels>
									</clipitem>
									<enabled>TRUE</enabled>
									<locked>FALSE</locked>
								</track>
								<track TL.SQTrackShy="0" TL.SQTrackExpandedHeight="25" TL.SQTrackExpanded="0" MZ.TrackTargeted="0">
									<enabled>TRUE</enabled>
									<locked>FALSE</locked>
								</track>
								<track TL.SQTrackShy="0" TL.SQTrackExpandedHeight="25" TL.SQTrackExpanded="0" MZ.TrackTargeted="0">
									<clipitem id="clipitem-559">
										<masterclipid>masterclip-153</masterclipid>
										<name>ATM BUG</name>
										<enabled>TRUE</enabled>
										<duration>5818</duration>
										<rate>
											<timebase>30</timebase>
											<ntsc>TRUE</ntsc>
										</rate>
										<start>0</start>
										<end>5043</end>
										<in>0</in>
										<out>5043</out>
										<pproTicksIn>0</pproTicksIn>
										<pproTicksOut>42742789689600</pproTicksOut>
										<sequence id="sequence-5"/>
										<labels>
											<label2>Violet</label2>
										</labels>
									</clipitem>
									<enabled>TRUE</enabled>
									<locked>FALSE</locked>
								</track>
								<track TL.SQTrackShy="0" TL.SQTrackExpandedHeight="25" TL.SQTrackExpanded="0" MZ.TrackTargeted="0">
									<clipitem id="clipitem-560">
										<masterclipid>masterclip-155</masterclipid>
										<name>Trans B</name>
										<enabled>TRUE</enabled>
										<duration>5697</duration>
										<rate>
											<timebase>30</timebase>
											<ntsc>TRUE</ntsc>
										</rate>
										<start>5034</start>
										<end>5189</end>
										<in>0</in>
										<out>155</out>
										<pproTicksIn>0</pproTicksIn>
										<pproTicksOut>1313728416000</pproTicksOut>
										<sequence id="sequence-6"/>
											<marker>
												<comment></comment>
												<name></name>
												<in>9</in>
												<out>-1</out>
												<pproColor>4281828977</pproColor>
											</marker>
											<marker>
												<comment></comment>
												<name></name>
												<in>144</in>
												<out>-1</out>
												<pproColor>4281828977</pproColor>
											</marker>
										<link>
											<linkclipref>clipitem-560</linkclipref>
											<mediatype>video</mediatype>
											<trackindex>5</trackindex>
											<clipindex>1</clipindex>
										</link>
										<link>
											<linkclipref>clipitem-563</linkclipref>
											<mediatype>audio</mediatype>
											<trackindex>9</trackindex>
											<clipindex>1</clipindex>
											<groupindex>1</groupindex>
										</link>
										<link>
											<linkclipref>clipitem-564</linkclipref>
											<mediatype>audio</mediatype>
											<trackindex>10</trackindex>
											<clipindex>1</clipindex>
											<groupindex>1</groupindex>
										</link>
										<labels>
											<label2>Tan</label2>
										</labels>
									</clipitem>
									<enabled>TRUE</enabled>
									<locked>FALSE</locked>
								</track>
							</video>
							<audio>
								<numOutputChannels>2</numOutputChannels>
								<format>
									<samplecharacteristics>
										<depth>16</depth>
										<samplerate>32000</samplerate>
									</samplecharacteristics>
								</format>
								<outputs>
									<group>
										<index>1</index>
										<numchannels>1</numchannels>
										<downmix>0</downmix>
										<channel>
											<index>1</index>
										</channel>
									</group>
									<group>
										<index>2</index>
										<numchannels>1</numchannels>
										<downmix>0</downmix>
										<channel>
											<index>2</index>
										</channel>
									</group>
								</outputs>
								<track TL.SQTrackAudioKeyframeStyle="0" TL.SQTrackShy="0" TL.SQTrackExpandedHeight="25" TL.SQTrackExpanded="0" MZ.TrackTargeted="1" PannerCurrentValue="0.5" PannerIsInverted="true" PannerStartKeyframe="-91445760000000000,0.5,0,0,0,0,0,0" PannerName="Balance" currentExplodedTrackIndex="0" totalExplodedTrackCount="2" premiereTrackType="Stereo">
									<clipitem id="clipitem-561" premiereChannelType="stereo">
										<masterclipid>masterclip-324</masterclipid>
										<name>DRONE_Flying in the Field_3</name>
										<enabled>TRUE</enabled>
										<duration>5573</duration>
										<rate>
											<timebase>30</timebase>
											<ntsc>TRUE</ntsc>
										</rate>
										<start>0</start>
										<end>5043</end>
										<in>0</in>
										<out>5043</out>
										<pproTicksIn>0</pproTicksIn>
										<pproTicksOut>42742789689600</pproTicksOut>
										<sequence id="sequence-38"/>
										<sourcetrack>
											<mediatype>audio</mediatype>
											<trackindex>0</trackindex>
										</sourcetrack>
										<link>
											<linkclipref>clipitem-550</linkclipref>
											<mediatype>video</mediatype>
											<trackindex>1</trackindex>
											<clipindex>1</clipindex>
										</link>
										<link>
											<linkclipref>clipitem-561</linkclipref>
											<mediatype>audio</mediatype>
											<trackindex>1</trackindex>
											<clipindex>1</clipindex>
											<groupindex>1</groupindex>
										</link>
										<link>
											<linkclipref>clipitem-562</linkclipref>
											<mediatype>audio</mediatype>
											<trackindex>2</trackindex>
											<clipindex>1</clipindex>
											<groupindex>1</groupindex>
										</link>
										<labels>
											<label2>Forest</label2>
										</labels>
									</clipitem>
									<enabled>TRUE</enabled>
									<locked>FALSE</locked>
									<outputchannelindex>1</outputchannelindex>
								</track>
								<track TL.SQTrackAudioKeyframeStyle="0" TL.SQTrackShy="0" TL.SQTrackExpandedHeight="25" TL.SQTrackExpanded="0" MZ.TrackTargeted="1" PannerCurrentValue="0.5" PannerIsInverted="true" PannerStartKeyframe="-91445760000000000,0.5,0,0,0,0,0,0" PannerName="Balance" currentExplodedTrackIndex="1" totalExplodedTrackCount="2" premiereTrackType="Stereo">
									<clipitem id="clipitem-562" premiereChannelType="stereo">
										<masterclipid>masterclip-324</masterclipid>
										<name>DRONE_Flying in the Field_3</name>
										<enabled>TRUE</enabled>
										<duration>5573</duration>
										<rate>
											<timebase>30</timebase>
											<ntsc>TRUE</ntsc>
										</rate>
										<start>0</start>
										<end>5043</end>
										<in>0</in>
										<out>5043</out>
										<pproTicksIn>0</pproTicksIn>
										<pproTicksOut>42742789689600</pproTicksOut>
										<sequence id="sequence-38"/>
										<sourcetrack>
											<mediatype>audio</mediatype>
											<trackindex>1</trackindex>
										</sourcetrack>
										<link>
											<linkclipref>clipitem-550</linkclipref>
											<mediatype>video</mediatype>
											<trackindex>1</trackindex>
											<clipindex>1</clipindex>
										</link>
										<link>
											<linkclipref>clipitem-561</linkclipref>
											<mediatype>audio</mediatype>
											<trackindex>1</trackindex>
											<clipindex>1</clipindex>
											<groupindex>1</groupindex>
										</link>
										<link>
											<linkclipref>clipitem-562</linkclipref>
											<mediatype>audio</mediatype>
											<trackindex>2</trackindex>
											<clipindex>1</clipindex>
											<groupindex>1</groupindex>
										</link>
										<labels>
											<label2>Forest</label2>
										</labels>
									</clipitem>
									<enabled>TRUE</enabled>
									<locked>FALSE</locked>
									<outputchannelindex>2</outputchannelindex>
								</track>
								<track TL.SQTrackAudioKeyframeStyle="0" TL.SQTrackShy="0" TL.SQTrackExpandedHeight="25" TL.SQTrackExpanded="0" MZ.TrackTargeted="1" PannerCurrentValue="0.5" PannerIsInverted="true" PannerStartKeyframe="-91445760000000000,0.5,0,0,0,0,0,0" PannerName="Balance" currentExplodedTrackIndex="0" totalExplodedTrackCount="2" premiereTrackType="Stereo">
									<enabled>TRUE</enabled>
									<locked>FALSE</locked>
									<outputchannelindex>1</outputchannelindex>
								</track>
								<track TL.SQTrackAudioKeyframeStyle="0" TL.SQTrackShy="0" TL.SQTrackExpandedHeight="25" TL.SQTrackExpanded="0" MZ.TrackTargeted="1" PannerCurrentValue="0.5" PannerIsInverted="true" PannerStartKeyframe="-91445760000000000,0.5,0,0,0,0,0,0" PannerName="Balance" currentExplodedTrackIndex="1" totalExplodedTrackCount="2" premiereTrackType="Stereo">
									<enabled>TRUE</enabled>
									<locked>FALSE</locked>
									<outputchannelindex>2</outputchannelindex>
								</track>
								<track TL.SQTrackAudioKeyframeStyle="0" TL.SQTrackShy="0" TL.SQTrackExpandedHeight="25" TL.SQTrackExpanded="0" MZ.TrackTargeted="1" PannerCurrentValue="0.5" PannerIsInverted="true" PannerStartKeyframe="-91445760000000000,0.5,0,0,0,0,0,0" PannerName="Balance" currentExplodedTrackIndex="0" totalExplodedTrackCount="2" premiereTrackType="Stereo">
									<enabled>TRUE</enabled>
									<locked>FALSE</locked>
									<outputchannelindex>1</outputchannelindex>
								</track>
								<track TL.SQTrackAudioKeyframeStyle="0" TL.SQTrackShy="0" TL.SQTrackExpandedHeight="25" TL.SQTrackExpanded="0" MZ.TrackTargeted="1" PannerCurrentValue="0.5" PannerIsInverted="true" PannerStartKeyframe="-91445760000000000,0.5,0,0,0,0,0,0" PannerName="Balance" currentExplodedTrackIndex="1" totalExplodedTrackCount="2" premiereTrackType="Stereo">
									<enabled>TRUE</enabled>
									<locked>FALSE</locked>
									<outputchannelindex>2</outputchannelindex>
								</track>
								<track TL.SQTrackAudioKeyframeStyle="0" TL.SQTrackShy="0" TL.SQTrackExpandedHeight="25" TL.SQTrackExpanded="0" MZ.TrackTargeted="0" PannerCurrentValue="0.5" PannerIsInverted="true" PannerStartKeyframe="-91445760000000000,0.5,0,0,0,0,0,0" PannerName="Balance" currentExplodedTrackIndex="0" totalExplodedTrackCount="2" premiereTrackType="Stereo">
									<enabled>TRUE</enabled>
									<locked>FALSE</locked>
									<outputchannelindex>1</outputchannelindex>
								</track>
								<track TL.SQTrackAudioKeyframeStyle="0" TL.SQTrackShy="0" TL.SQTrackExpandedHeight="25" TL.SQTrackExpanded="0" MZ.TrackTargeted="0" PannerCurrentValue="0.5" PannerIsInverted="true" PannerStartKeyframe="-91445760000000000,0.5,0,0,0,0,0,0" PannerName="Balance" currentExplodedTrackIndex="1" totalExplodedTrackCount="2" premiereTrackType="Stereo">
									<enabled>TRUE</enabled>
									<locked>FALSE</locked>
									<outputchannelindex>2</outputchannelindex>
								</track>
								<track TL.SQTrackAudioKeyframeStyle="0" TL.SQTrackShy="0" TL.SQTrackExpandedHeight="25" TL.SQTrackExpanded="0" MZ.TrackTargeted="0" PannerCurrentValue="0.5" PannerIsInverted="true" PannerStartKeyframe="-91445760000000000,0.5,0,0,0,0,0,0" PannerName="Balance" currentExplodedTrackIndex="0" totalExplodedTrackCount="2" premiereTrackType="Stereo">
									<clipitem id="clipitem-563" premiereChannelType="stereo">
										<masterclipid>masterclip-155</masterclipid>
										<name>Trans B</name>
										<enabled>TRUE</enabled>
										<duration>5697</duration>
										<rate>
											<timebase>30</timebase>
											<ntsc>TRUE</ntsc>
										</rate>
										<start>5034</start>
										<end>5189</end>
										<in>0</in>
										<out>155</out>
										<pproTicksIn>0</pproTicksIn>
										<pproTicksOut>1313728416000</pproTicksOut>
										<sequence id="sequence-6"/>
										<sourcetrack>
											<mediatype>audio</mediatype>
											<trackindex>0</trackindex>
										</sourcetrack>
											<marker>
												<comment></comment>
												<name></name>
												<in>9</in>
												<out>-1</out>
												<pproColor>4281828977</pproColor>
											</marker>
											<marker>
												<comment></comment>
												<name></name>
												<in>144</in>
												<out>-1</out>
												<pproColor>4281828977</pproColor>
											</marker>
										<link>
											<linkclipref>clipitem-560</linkclipref>
											<mediatype>video</mediatype>
											<trackindex>5</trackindex>
											<clipindex>1</clipindex>
										</link>
										<link>
											<linkclipref>clipitem-563</linkclipref>
											<mediatype>audio</mediatype>
											<trackindex>9</trackindex>
											<clipindex>1</clipindex>
											<groupindex>1</groupindex>
										</link>
										<link>
											<linkclipref>clipitem-564</linkclipref>
											<mediatype>audio</mediatype>
											<trackindex>10</trackindex>
											<clipindex>1</clipindex>
											<groupindex>1</groupindex>
										</link>
										<labels>
											<label2>Tan</label2>
										</labels>
									</clipitem>
									<enabled>TRUE</enabled>
									<locked>FALSE</locked>
									<outputchannelindex>1</outputchannelindex>
								</track>
								<track TL.SQTrackAudioKeyframeStyle="0" TL.SQTrackShy="0" TL.SQTrackExpandedHeight="25" TL.SQTrackExpanded="0" MZ.TrackTargeted="0" PannerCurrentValue="0.5" PannerIsInverted="true" PannerStartKeyframe="-91445760000000000,0.5,0,0,0,0,0,0" PannerName="Balance" currentExplodedTrackIndex="1" totalExplodedTrackCount="2" premiereTrackType="Stereo">
									<clipitem id="clipitem-564" premiereChannelType="stereo">
										<masterclipid>masterclip-155</masterclipid>
										<name>Trans B</name>
										<enabled>TRUE</enabled>
										<duration>5697</duration>
										<rate>
											<timebase>30</timebase>
											<ntsc>TRUE</ntsc>
										</rate>
										<start>5034</start>
										<end>5189</end>
										<in>0</in>
										<out>155</out>
										<pproTicksIn>0</pproTicksIn>
										<pproTicksOut>1313728416000</pproTicksOut>
										<sequence id="sequence-6"/>
										<sourcetrack>
											<mediatype>audio</mediatype>
											<trackindex>1</trackindex>
										</sourcetrack>
											<marker>
												<comment></comment>
												<name></name>
												<in>9</in>
												<out>-1</out>
												<pproColor>4281828977</pproColor>
											</marker>
											<marker>
												<comment></comment>
												<name></name>
												<in>144</in>
												<out>-1</out>
												<pproColor>4281828977</pproColor>
											</marker>
										<link>
											<linkclipref>clipitem-560</linkclipref>
											<mediatype>video</mediatype>
											<trackindex>5</trackindex>
											<clipindex>1</clipindex>
										</link>
										<link>
											<linkclipref>clipitem-563</linkclipref>
											<mediatype>audio</mediatype>
											<trackindex>9</trackindex>
											<clipindex>1</clipindex>
											<groupindex>1</groupindex>
										</link>
										<link>
											<linkclipref>clipitem-564</linkclipref>
											<mediatype>audio</mediatype>
											<trackindex>10</trackindex>
											<clipindex>1</clipindex>
											<groupindex>1</groupindex>
										</link>
										<labels>
											<label2>Tan</label2>
										</labels>
									</clipitem>
									<enabled>TRUE</enabled>
									<locked>FALSE</locked>
									<outputchannelindex>2</outputchannelindex>
								</track>
							</audio>
						</media>
						<timecode>
							<rate>
								<timebase>30</timebase>
								<ntsc>TRUE</ntsc>
							</rate>
							<string>00;00;00;00</string>
							<frame>0</frame>
							<displayformat>DF</displayformat>
						</timecode>
							<marker>
								<comment></comment>
								<name></name>
								<in>264</in>
								<out>-1</out>
								<pproColor>4281828977</pproColor>
							</marker>
						<labels>
							<label2>Forest</label2>
						</labels>
						<logginginfo>
							<description></description>
							<scene></scene>
							<shottake></shottake>
							<lognote></lognote>
							<good></good>
							<originalvideofilename></originalvideofilename>
							<originalaudiofilename></originalaudiofilename>
						</logginginfo>
					</sequence>
				</children>
			</bin>
			<bin>
				<name>2_Unbranded Comps</name>
				<labels>
					<label2>Mango</label2>
				</labels>
				<children>
<sequence id="sequence-3"/>
<sequence id="sequence-11"/>
<sequence id="sequence-4"/>
					<sequence id="sequence-39" TL.SQAudioVisibleBase="0" TL.SQVideoVisibleBase="0" TL.SQVisibleBaseTime="0" TL.SQAVDividerPosition="0.5" TL.SQHideShyTracks="0" TL.SQHeaderWidth="236" Monitor.ProgramZoomOut="0" Monitor.ProgramZoomIn="0" TL.SQTimePerPixel="0.51590713671538813" MZ.EditLine="0" MZ.Sequence.PreviewFrameSizeHeight="1080" MZ.Sequence.PreviewFrameSizeWidth="1920" MZ.Sequence.AudioTimeDisplayFormat="200" MZ.Sequence.PreviewRenderingClassID="1061109567" MZ.Sequence.PreviewRenderingPresetCodec="1634755443" MZ.Sequence.PreviewRenderingPresetPath="EncoderPresets/SequencePreview/35d109db-457b-43c1-9452-9cb7be9f121c/QuickTime.epr" MZ.Sequence.PreviewUseMaxRenderQuality="false" MZ.Sequence.PreviewUseMaxBitDepth="false" MZ.Sequence.EditingModeGUID="35d109db-457b-43c1-9452-9cb7be9f121c" MZ.Sequence.VideoTimeDisplayFormat="102" MZ.WorkOutPoint="15239249625600" MZ.WorkInPoint="0" explodedTracks="true">
						<uuid>6b46f40e-3025-40eb-b671-2d06f8c7ae5a</uuid>
						<duration>0</duration>
						<rate>
							<timebase>30</timebase>
							<ntsc>TRUE</ntsc>
						</rate>
						<name>DRONE_NestTemplate_3</name>
						<media>
							<video>
								<format>
									<samplecharacteristics>
										<rate>
											<timebase>30</timebase>
											<ntsc>TRUE</ntsc>
										</rate>
										<codec>
											<name>Apple ProRes 422</name>
											<appspecificdata>
												<appname>Final Cut Pro</appname>
												<appmanufacturer>Apple Inc.</appmanufacturer>
												<appversion>7.0</appversion>
												<data>
													<qtcodec>
														<codecname>Apple ProRes 422</codecname>
														<codectypename>Apple ProRes 422</codectypename>
														<codectypecode>apcn</codectypecode>
														<codecvendorcode>appl</codecvendorcode>
														<spatialquality>1024</spatialquality>
														<temporalquality>0</temporalquality>
														<keyframerate>0</keyframerate>
														<datarate>0</datarate>
													</qtcodec>
												</data>
											</appspecificdata>
										</codec>
										<width>1920</width>
										<height>1080</height>
										<anamorphic>FALSE</anamorphic>
										<pixelaspectratio>square</pixelaspectratio>
										<fielddominance>none</fielddominance>
										<colordepth>24</colordepth>
									</samplecharacteristics>
								</format>
								<track TL.SQTrackShy="0" TL.SQTrackExpandedHeight="25" TL.SQTrackExpanded="0" MZ.TrackTargeted="1">
									<enabled>TRUE</enabled>
									<locked>FALSE</locked>
								</track>
								<track TL.SQTrackShy="0" TL.SQTrackExpandedHeight="25" TL.SQTrackExpanded="0" MZ.TrackTargeted="0">
									<enabled>TRUE</enabled>
									<locked>FALSE</locked>
								</track>
								<track TL.SQTrackShy="0" TL.SQTrackExpandedHeight="25" TL.SQTrackExpanded="0" MZ.TrackTargeted="0">
									<enabled>TRUE</enabled>
									<locked>FALSE</locked>
								</track>
							</video>
							<audio>
								<numOutputChannels>2</numOutputChannels>
								<format>
									<samplecharacteristics>
										<depth>16</depth>
										<samplerate>48000</samplerate>
									</samplecharacteristics>
								</format>
								<outputs>
									<group>
										<index>1</index>
										<numchannels>1</numchannels>
										<downmix>0</downmix>
										<channel>
											<index>1</index>
										</channel>
									</group>
									<group>
										<index>2</index>
										<numchannels>1</numchannels>
										<downmix>0</downmix>
										<channel>
											<index>2</index>
										</channel>
									</group>
								</outputs>
								<track TL.SQTrackAudioKeyframeStyle="0" TL.SQTrackShy="0" TL.SQTrackExpandedHeight="25" TL.SQTrackExpanded="0" MZ.TrackTargeted="1" PannerCurrentValue="0.5" PannerIsInverted="true" PannerStartKeyframe="-91445760000000000,0.5,0,0,0,0,0,0" PannerName="Balance" currentExplodedTrackIndex="0" totalExplodedTrackCount="2" premiereTrackType="Stereo">
									<enabled>TRUE</enabled>
									<locked>FALSE</locked>
									<outputchannelindex>1</outputchannelindex>
								</track>
								<track TL.SQTrackAudioKeyframeStyle="0" TL.SQTrackShy="0" TL.SQTrackExpandedHeight="25" TL.SQTrackExpanded="0" MZ.TrackTargeted="1" PannerCurrentValue="0.5" PannerIsInverted="true" PannerStartKeyframe="-91445760000000000,0.5,0,0,0,0,0,0" PannerName="Balance" currentExplodedTrackIndex="1" totalExplodedTrackCount="2" premiereTrackType="Stereo">
									<enabled>TRUE</enabled>
									<locked>FALSE</locked>
									<outputchannelindex>2</outputchannelindex>
								</track>
								<track TL.SQTrackAudioKeyframeStyle="0" TL.SQTrackShy="0" TL.SQTrackExpandedHeight="25" TL.SQTrackExpanded="0" MZ.TrackTargeted="1" PannerCurrentValue="0.5" PannerIsInverted="true" PannerStartKeyframe="-91445760000000000,0.5,0,0,0,0,0,0" PannerName="Balance" currentExplodedTrackIndex="0" totalExplodedTrackCount="2" premiereTrackType="Stereo">
									<enabled>TRUE</enabled>
									<locked>FALSE</locked>
									<outputchannelindex>1</outputchannelindex>
								</track>
								<track TL.SQTrackAudioKeyframeStyle="0" TL.SQTrackShy="0" TL.SQTrackExpandedHeight="25" TL.SQTrackExpanded="0" MZ.TrackTargeted="1" PannerCurrentValue="0.5" PannerIsInverted="true" PannerStartKeyframe="-91445760000000000,0.5,0,0,0,0,0,0" PannerName="Balance" currentExplodedTrackIndex="1" totalExplodedTrackCount="2" premiereTrackType="Stereo">
									<enabled>TRUE</enabled>
									<locked>FALSE</locked>
									<outputchannelindex>2</outputchannelindex>
								</track>
								<track TL.SQTrackAudioKeyframeStyle="0" TL.SQTrackShy="0" TL.SQTrackExpandedHeight="25" TL.SQTrackExpanded="0" MZ.TrackTargeted="1" PannerCurrentValue="0.5" PannerIsInverted="true" PannerStartKeyframe="-91445760000000000,0.5,0,0,0,0,0,0" PannerName="Balance" currentExplodedTrackIndex="0" totalExplodedTrackCount="2" premiereTrackType="Stereo">
									<enabled>TRUE</enabled>
									<locked>FALSE</locked>
									<outputchannelindex>1</outputchannelindex>
								</track>
								<track TL.SQTrackAudioKeyframeStyle="0" TL.SQTrackShy="0" TL.SQTrackExpandedHeight="25" TL.SQTrackExpanded="0" MZ.TrackTargeted="1" PannerCurrentValue="0.5" PannerIsInverted="true" PannerStartKeyframe="-91445760000000000,0.5,0,0,0,0,0,0" PannerName="Balance" currentExplodedTrackIndex="1" totalExplodedTrackCount="2" premiereTrackType="Stereo">
									<enabled>TRUE</enabled>
									<locked>FALSE</locked>
									<outputchannelindex>2</outputchannelindex>
								</track>
							</audio>
						</media>
						<timecode>
							<rate>
								<timebase>30</timebase>
								<ntsc>TRUE</ntsc>
							</rate>
							<string>00;00;00;00</string>
							<frame>0</frame>
							<displayformat>DF</displayformat>
						</timecode>
						<labels>
							<label2>Forest</label2>
						</labels>
						<logginginfo>
							<description></description>
							<scene></scene>
							<shottake></shottake>
							<lognote></lognote>
							<good></good>
							<originalvideofilename></originalvideofilename>
							<originalaudiofilename></originalaudiofilename>
						</logginginfo>
						<filter>
							<effect>
								<name>Audio Levels</name>
								<effectid>audiolevels</effectid>
								<effectcategory>audiolevels</effectcategory>
								<effecttype>audiolevels</effecttype>
								<mediatype>audio</mediatype>
								<parameter authoringApp="PremierePro">
									<parameterid>level</parameterid>
									<name>Level</name>
									<valuemin>0</valuemin>
									<valuemax>3.98109</valuemax>
									<value>0.839406</value>
								</parameter>
							</effect>
						</filter>
					</sequence>
<sequence id="sequence-15"/>
<sequence id="sequence-12"/>
<sequence id="sequence-16"/>
<sequence id="sequence-20"/>
<sequence id="sequence-21"/>
<sequence id="sequence-25"/>
<sequence id="sequence-26"/>
<sequence id="sequence-29"/>
<sequence id="sequence-32"/>
<sequence id="sequence-34"/>
<sequence id="sequence-36"/>
<sequence id="sequence-38"/>
				</children>
			</bin>
			<bin>
				<name>4_Assets</name>
				<labels>
					<label2>Mango</label2>
				</labels>
				<children>
					<bin>
						<name>Raw Bugs</name>
						<labels>
							<label2>Mango</label2>
						</labels>
						<children>
							<clip id="masterclip-154" explodedTracks="true">
								<uuid>a13c171e-0bcb-4dda-af78-ae36a05127a3</uuid>
								<masterclipid>masterclip-154</masterclipid>
								<ismasterclip>TRUE</ismasterclip>
								<duration>150</duration>
								<rate>
									<timebase>30</timebase>
									<ntsc>TRUE</ntsc>
								</rate>
								<in>0</in>
								<out>149</out>
								<name>Atmosphere_Bug_Transparent.png</name>
								<media>
									<video>
										<track>
											<clipitem id="clipitem-565">
												<masterclipid>masterclip-154</masterclipid>
												<name>Atmosphere_Bug_Transparent.png</name>
												<rate>
													<timebase>30</timebase>
													<ntsc>TRUE</ntsc>
												</rate>
												<alphatype>straight</alphatype>
												<file id="file-151"/>
											</clipitem>
										</track>
									</video>
								</media>
								<logginginfo>
									<description></description>
									<scene></scene>
									<shottake></shottake>
									<lognote></lognote>
									<good></good>
									<originalvideofilename></originalvideofilename>
									<originalaudiofilename></originalaudiofilename>
								</logginginfo>
								<colorinfo>
									<lut></lut>
									<lut1></lut1>
									<asc_sop></asc_sop>
									<asc_sat></asc_sat>
									<lut2></lut2>
								</colorinfo>
								<labels>
									<label2>Lavender</label2>
								</labels>
							</clip>
							<clip id="masterclip-330" explodedTracks="true">
								<uuid>6d83da97-1675-4bad-a2d0-099e72feebdc</uuid>
								<masterclipid>masterclip-330</masterclipid>
								<ismasterclip>TRUE</ismasterclip>
								<duration>150</duration>
								<rate>
									<timebase>30</timebase>
									<ntsc>TRUE</ntsc>
								</rate>
								<in>107892</in>
								<out>113317</out>
								<name>Thumbnail Logo.png</name>
								<media>
									<video>
										<track>
											<clipitem id="clipitem-566">
												<masterclipid>masterclip-330</masterclipid>
												<name>Thumbnail Logo.png</name>
												<rate>
													<timebase>30</timebase>
													<ntsc>TRUE</ntsc>
												</rate>
												<alphatype>straight</alphatype>
												<pixelaspectratio>square</pixelaspectratio>
												<anamorphic>FALSE</anamorphic>
												<file id="file-302">
													<name>Thumbnail Logo.png</name>
													<pathurl>file://localhost/Volumes/T7/DRONE_08.18.2023/4_Project%20Files/Drone%202023%20Master%20Assets/01_Bugs/Thumbnail%20Logo.png</pathurl>
													<rate>
														<timebase>30</timebase>
														<ntsc>TRUE</ntsc>
													</rate>
													<timecode>
														<rate>
															<timebase>30</timebase>
															<ntsc>TRUE</ntsc>
														</rate>
														<string>00:00:00:00</string>
														<frame>0</frame>
														<displayformat>NDF</displayformat>
													</timecode>
													<media>
														<video>
															<samplecharacteristics>
																<rate>
																	<timebase>30</timebase>
																	<ntsc>TRUE</ntsc>
																</rate>
																<width>1111</width>
																<height>185</height>
																<anamorphic>FALSE</anamorphic>
																<pixelaspectratio>square</pixelaspectratio>
																<fielddominance>none</fielddominance>
															</samplecharacteristics>
														</video>
													</media>
												</file>
											</clipitem>
										</track>
									</video>
								</media>
								<logginginfo>
									<description></description>
									<scene></scene>
									<shottake></shottake>
									<lognote></lognote>
									<good></good>
									<originalvideofilename></originalvideofilename>
									<originalaudiofilename></originalaudiofilename>
								</logginginfo>
								<colorinfo>
									<lut></lut>
									<lut1></lut1>
									<asc_sop></asc_sop>
									<asc_sat></asc_sat>
									<lut2></lut2>
								</colorinfo>
								<labels>
									<label2>Lavender</label2>
								</labels>
							</clip>
						</children>
					</bin>
<sequence id="sequence-5"/>
					<sequence id="sequence-40" TL.SQAudioVisibleBase="0" TL.SQVideoVisibleBase="0" TL.SQVisibleBaseTime="0" TL.SQAVDividerPosition="0.5" TL.SQHideShyTracks="0" TL.SQHeaderWidth="236" Monitor.ProgramZoomOut="0" Monitor.ProgramZoomIn="0" TL.SQTimePerPixel="0.002017658608957397" MZ.EditLine="0" MZ.Sequence.PreviewFrameSizeHeight="1080" MZ.Sequence.PreviewFrameSizeWidth="1920" MZ.Sequence.AudioTimeDisplayFormat="200" MZ.Sequence.PreviewRenderingClassID="1297106761" MZ.Sequence.PreviewRenderingPresetCodec="1297107278" MZ.Sequence.PreviewRenderingPresetPath="EncoderPresets/SequencePreview/795454d9-d3c2-429d-9474-923ab13b7018/I-Frame Only MPEG.epr" MZ.Sequence.PreviewUseMaxRenderQuality="false" MZ.Sequence.PreviewUseMaxBitDepth="false" MZ.Sequence.EditingModeGUID="795454d9-d3c2-429d-9474-923ab13b7018" MZ.Sequence.VideoTimeDisplayFormat="102" MZ.WorkOutPoint="15239249625600" MZ.WorkInPoint="0" explodedTracks="true">
						<uuid>a14ef3c1-9721-4660-8273-05935415c49e</uuid>
						<duration>0</duration>
						<rate>
							<timebase>30</timebase>
							<ntsc>TRUE</ntsc>
						</rate>
						<name>DRONE BUG</name>
						<media>
							<video>
								<format>
									<samplecharacteristics>
										<rate>
											<timebase>30</timebase>
											<ntsc>TRUE</ntsc>
										</rate>
										<codec>
											<name>Apple ProRes 422</name>
											<appspecificdata>
												<appname>Final Cut Pro</appname>
												<appmanufacturer>Apple Inc.</appmanufacturer>
												<appversion>7.0</appversion>
												<data>
													<qtcodec>
														<codecname>Apple ProRes 422</codecname>
														<codectypename>Apple ProRes 422</codectypename>
														<codectypecode>apcn</codectypecode>
														<codecvendorcode>appl</codecvendorcode>
														<spatialquality>1024</spatialquality>
														<temporalquality>0</temporalquality>
														<keyframerate>0</keyframerate>
														<datarate>0</datarate>
													</qtcodec>
												</data>
											</appspecificdata>
										</codec>
										<width>1920</width>
										<height>1080</height>
										<anamorphic>FALSE</anamorphic>
										<pixelaspectratio>square</pixelaspectratio>
										<fielddominance>none</fielddominance>
										<colordepth>24</colordepth>
									</samplecharacteristics>
								</format>
								<track TL.SQTrackShy="0" TL.SQTrackExpandedHeight="25" TL.SQTrackExpanded="0" MZ.TrackTargeted="1">
									<enabled>TRUE</enabled>
									<locked>FALSE</locked>
								</track>
								<track TL.SQTrackShy="0" TL.SQTrackExpandedHeight="25" TL.SQTrackExpanded="0" MZ.TrackTargeted="0">
									<enabled>TRUE</enabled>
									<locked>FALSE</locked>
								</track>
								<track TL.SQTrackShy="0" TL.SQTrackExpandedHeight="25" TL.SQTrackExpanded="0" MZ.TrackTargeted="0">
									<enabled>TRUE</enabled>
									<locked>FALSE</locked>
								</track>
							</video>
							<audio>
								<numOutputChannels>2</numOutputChannels>
								<format>
									<samplecharacteristics>
										<depth>16</depth>
										<samplerate>32000</samplerate>
									</samplecharacteristics>
								</format>
								<outputs>
									<group>
										<index>1</index>
										<numchannels>1</numchannels>
										<downmix>0</downmix>
										<channel>
											<index>1</index>
										</channel>
									</group>
									<group>
										<index>2</index>
										<numchannels>1</numchannels>
										<downmix>0</downmix>
										<channel>
											<index>2</index>
										</channel>
									</group>
								</outputs>
								<track TL.SQTrackAudioKeyframeStyle="0" TL.SQTrackShy="0" TL.SQTrackExpandedHeight="25" TL.SQTrackExpanded="0" MZ.TrackTargeted="1" PannerCurrentValue="0.5" PannerIsInverted="true" PannerStartKeyframe="-91445760000000000,0.5,0,0,0,0,0,0" PannerName="Balance" currentExplodedTrackIndex="0" totalExplodedTrackCount="2" premiereTrackType="Stereo">
									<enabled>TRUE</enabled>
									<locked>FALSE</locked>
									<outputchannelindex>1</outputchannelindex>
								</track>
								<track TL.SQTrackAudioKeyframeStyle="0" TL.SQTrackShy="0" TL.SQTrackExpandedHeight="25" TL.SQTrackExpanded="0" MZ.TrackTargeted="1" PannerCurrentValue="0.5" PannerIsInverted="true" PannerStartKeyframe="-91445760000000000,0.5,0,0,0,0,0,0" PannerName="Balance" currentExplodedTrackIndex="1" totalExplodedTrackCount="2" premiereTrackType="Stereo">
									<enabled>TRUE</enabled>
									<locked>FALSE</locked>
									<outputchannelindex>2</outputchannelindex>
								</track>
								<track TL.SQTrackAudioKeyframeStyle="0" TL.SQTrackShy="0" TL.SQTrackExpandedHeight="25" TL.SQTrackExpanded="0" MZ.TrackTargeted="1" PannerCurrentValue="0.5" PannerIsInverted="true" PannerStartKeyframe="-91445760000000000,0.5,0,0,0,0,0,0" PannerName="Balance" currentExplodedTrackIndex="0" totalExplodedTrackCount="2" premiereTrackType="Stereo">
									<enabled>TRUE</enabled>
									<locked>FALSE</locked>
									<outputchannelindex>1</outputchannelindex>
								</track>
								<track TL.SQTrackAudioKeyframeStyle="0" TL.SQTrackShy="0" TL.SQTrackExpandedHeight="25" TL.SQTrackExpanded="0" MZ.TrackTargeted="1" PannerCurrentValue="0.5" PannerIsInverted="true" PannerStartKeyframe="-91445760000000000,0.5,0,0,0,0,0,0" PannerName="Balance" currentExplodedTrackIndex="1" totalExplodedTrackCount="2" premiereTrackType="Stereo">
									<enabled>TRUE</enabled>
									<locked>FALSE</locked>
									<outputchannelindex>2</outputchannelindex>
								</track>
								<track TL.SQTrackAudioKeyframeStyle="0" TL.SQTrackShy="0" TL.SQTrackExpandedHeight="25" TL.SQTrackExpanded="0" MZ.TrackTargeted="1" PannerCurrentValue="0.5" PannerIsInverted="true" PannerStartKeyframe="-91445760000000000,0.5,0,0,0,0,0,0" PannerName="Balance" currentExplodedTrackIndex="0" totalExplodedTrackCount="2" premiereTrackType="Stereo">
									<enabled>TRUE</enabled>
									<locked>FALSE</locked>
									<outputchannelindex>1</outputchannelindex>
								</track>
								<track TL.SQTrackAudioKeyframeStyle="0" TL.SQTrackShy="0" TL.SQTrackExpandedHeight="25" TL.SQTrackExpanded="0" MZ.TrackTargeted="1" PannerCurrentValue="0.5" PannerIsInverted="true" PannerStartKeyframe="-91445760000000000,0.5,0,0,0,0,0,0" PannerName="Balance" currentExplodedTrackIndex="1" totalExplodedTrackCount="2" premiereTrackType="Stereo">
									<enabled>TRUE</enabled>
									<locked>FALSE</locked>
									<outputchannelindex>2</outputchannelindex>
								</track>
							</audio>
						</media>
						<timecode>
							<rate>
								<timebase>30</timebase>
								<ntsc>TRUE</ntsc>
							</rate>
							<string>00;00;00;00</string>
							<frame>0</frame>
							<displayformat>DF</displayformat>
						</timecode>
						<labels>
							<label2>Violet</label2>
						</labels>
						<logginginfo>
							<description></description>
							<scene></scene>
							<shottake></shottake>
							<lognote></lognote>
							<good></good>
							<originalvideofilename></originalvideofilename>
							<originalaudiofilename></originalaudiofilename>
						</logginginfo>
					</sequence>
					<bin>
						<name>House Ads</name>
						<labels>
							<label2>Mango</label2>
						</labels>
						<children>
							<clip id="masterclip-247" explodedTracks="true">
								<uuid>2c8c4c8d-1b58-49d7-bb63-395bba5aa379</uuid>
								<masterclipid>masterclip-247</masterclipid>
								<ismasterclip>TRUE</ismasterclip>
								<duration>300</duration>
								<rate>
									<timebase>30</timebase>
									<ntsc>FALSE</ntsc>
								</rate>
								<name>ATM_Content Submit QR.mp4</name>
								<media>
									<video>
										<track>
											<clipitem id="clipitem-567">
												<masterclipid>masterclip-247</masterclipid>
												<name>ATM_Content Submit QR.mp4</name>
												<rate>
													<timebase>30</timebase>
													<ntsc>FALSE</ntsc>
												</rate>
												<alphatype>none</alphatype>
												<file id="file-226"/>
												<link>
													<linkclipref>clipitem-567</linkclipref>
													<mediatype>video</mediatype>
													<trackindex>1</trackindex>
													<clipindex>1</clipindex>
												</link>
												<link>
													<linkclipref>clipitem-568</linkclipref>
													<mediatype>audio</mediatype>
													<trackindex>1</trackindex>
													<clipindex>1</clipindex>
													<groupindex>1</groupindex>
												</link>
												<link>
													<linkclipref>clipitem-569</linkclipref>
													<mediatype>audio</mediatype>
													<trackindex>2</trackindex>
													<clipindex>1</clipindex>
													<groupindex>1</groupindex>
												</link>
											</clipitem>
										</track>
									</video>
									<audio>
										<track>
											<clipitem id="clipitem-568">
												<masterclipid>masterclip-247</masterclipid>
												<name>ATM_Content Submit QR.mp4</name>
												<rate>
													<timebase>30</timebase>
													<ntsc>FALSE</ntsc>
												</rate>
												<file id="file-226"/>
												<sourcetrack>
													<mediatype>audio</mediatype>
													<trackindex>1</trackindex>
												</sourcetrack>
												<link>
													<linkclipref>clipitem-567</linkclipref>
													<mediatype>video</mediatype>
													<trackindex>1</trackindex>
													<clipindex>1</clipindex>
												</link>
												<link>
													<linkclipref>clipitem-568</linkclipref>
													<mediatype>audio</mediatype>
													<trackindex>1</trackindex>
													<clipindex>1</clipindex>
													<groupindex>1</groupindex>
												</link>
												<link>
													<linkclipref>clipitem-569</linkclipref>
													<mediatype>audio</mediatype>
													<trackindex>2</trackindex>
													<clipindex>1</clipindex>
													<groupindex>1</groupindex>
												</link>
											</clipitem>
										</track>
										<track>
											<clipitem id="clipitem-569">
												<masterclipid>masterclip-247</masterclipid>
												<name>ATM_Content Submit QR.mp4</name>
												<rate>
													<timebase>30</timebase>
													<ntsc>FALSE</ntsc>
												</rate>
												<file id="file-226"/>
												<sourcetrack>
													<mediatype>audio</mediatype>
													<trackindex>2</trackindex>
												</sourcetrack>
												<link>
													<linkclipref>clipitem-567</linkclipref>
													<mediatype>video</mediatype>
													<trackindex>1</trackindex>
													<clipindex>1</clipindex>
												</link>
												<link>
													<linkclipref>clipitem-568</linkclipref>
													<mediatype>audio</mediatype>
													<trackindex>1</trackindex>
													<clipindex>1</clipindex>
													<groupindex>1</groupindex>
												</link>
												<link>
													<linkclipref>clipitem-569</linkclipref>
													<mediatype>audio</mediatype>
													<trackindex>2</trackindex>
													<clipindex>1</clipindex>
													<groupindex>1</groupindex>
												</link>
											</clipitem>
										</track>
									</audio>
								</media>
								<logginginfo>
									<description></description>
									<scene></scene>
									<shottake></shottake>
									<lognote></lognote>
									<good></good>
									<originalvideofilename></originalvideofilename>
									<originalaudiofilename></originalaudiofilename>
								</logginginfo>
								<colorinfo>
									<lut></lut>
									<lut1></lut1>
									<asc_sop></asc_sop>
									<asc_sat></asc_sat>
									<lut2></lut2>
								</colorinfo>
								<labels>
									<label2>Iris</label2>
								</labels>
							</clip>
							<clip id="masterclip-331" explodedTracks="true">
								<uuid>a5b9e05f-5312-4046-9abc-15a89fd5d6aa</uuid>
								<masterclipid>masterclip-331</masterclipid>
								<ismasterclip>TRUE</ismasterclip>
								<duration>240</duration>
								<rate>
									<timebase>30</timebase>
									<ntsc>FALSE</ntsc>
								</rate>
								<name>ATM_HouseAd_2023.mp4</name>
								<media>
									<video>
										<track>
											<clipitem id="clipitem-570">
												<masterclipid>masterclip-331</masterclipid>
												<name>ATM_HouseAd_2023.mp4</name>
												<rate>
													<timebase>30</timebase>
													<ntsc>FALSE</ntsc>
												</rate>
												<alphatype>none</alphatype>
												<pixelaspectratio>square</pixelaspectratio>
												<anamorphic>FALSE</anamorphic>
												<file id="file-303">
													<name>ATM_HouseAd_2023.mp4</name>
													<pathurl>file://localhost/Volumes/T7/DRONE_08.18.2023/4_Project%20Files/Drone%202023%20Master%20Assets/ATM_HouseAd_2023.mp4</pathurl>
													<rate>
														<timebase>30</timebase>
														<ntsc>FALSE</ntsc>
													</rate>
													<duration>240</duration>
													<timecode>
														<rate>
															<timebase>30</timebase>
															<ntsc>FALSE</ntsc>
														</rate>
														<string>00:00:00:00</string>
														<frame>0</frame>
														<displayformat>NDF</displayformat>
													</timecode>
													<media>
														<video>
															<samplecharacteristics>
																<rate>
																	<timebase>30</timebase>
																	<ntsc>FALSE</ntsc>
																</rate>
																<width>1920</width>
																<height>1080</height>
																<anamorphic>FALSE</anamorphic>
																<pixelaspectratio>square</pixelaspectratio>
																<fielddominance>none</fielddominance>
															</samplecharacteristics>
														</video>
														<audio>
															<samplecharacteristics>
																<depth>16</depth>
																<samplerate>48000</samplerate>
															</samplecharacteristics>
															<channelcount>2</channelcount>
														</audio>
													</media>
												</file>
												<link>
													<linkclipref>clipitem-570</linkclipref>
													<mediatype>video</mediatype>
													<trackindex>1</trackindex>
													<clipindex>1</clipindex>
												</link>
												<link>
													<linkclipref>clipitem-571</linkclipref>
													<mediatype>audio</mediatype>
													<trackindex>1</trackindex>
													<clipindex>1</clipindex>
													<groupindex>1</groupindex>
												</link>
												<link>
													<linkclipref>clipitem-572</linkclipref>
													<mediatype>audio</mediatype>
													<trackindex>2</trackindex>
													<clipindex>1</clipindex>
													<groupindex>1</groupindex>
												</link>
											</clipitem>
										</track>
									</video>
									<audio>
										<track>
											<clipitem id="clipitem-571">
												<masterclipid>masterclip-331</masterclipid>
												<name>ATM_HouseAd_2023.mp4</name>
												<rate>
													<timebase>30</timebase>
													<ntsc>FALSE</ntsc>
												</rate>
												<file id="file-303"/>
												<sourcetrack>
													<mediatype>audio</mediatype>
													<trackindex>1</trackindex>
												</sourcetrack>
												<link>
													<linkclipref>clipitem-570</linkclipref>
													<mediatype>video</mediatype>
													<trackindex>1</trackindex>
													<clipindex>1</clipindex>
												</link>
												<link>
													<linkclipref>clipitem-571</linkclipref>
													<mediatype>audio</mediatype>
													<trackindex>1</trackindex>
													<clipindex>1</clipindex>
													<groupindex>1</groupindex>
												</link>
												<link>
													<linkclipref>clipitem-572</linkclipref>
													<mediatype>audio</mediatype>
													<trackindex>2</trackindex>
													<clipindex>1</clipindex>
													<groupindex>1</groupindex>
												</link>
											</clipitem>
										</track>
										<track>
											<clipitem id="clipitem-572">
												<masterclipid>masterclip-331</masterclipid>
												<name>ATM_HouseAd_2023.mp4</name>
												<rate>
													<timebase>30</timebase>
													<ntsc>FALSE</ntsc>
												</rate>
												<file id="file-303"/>
												<sourcetrack>
													<mediatype>audio</mediatype>
													<trackindex>2</trackindex>
												</sourcetrack>
												<link>
													<linkclipref>clipitem-570</linkclipref>
													<mediatype>video</mediatype>
													<trackindex>1</trackindex>
													<clipindex>1</clipindex>
												</link>
												<link>
													<linkclipref>clipitem-571</linkclipref>
													<mediatype>audio</mediatype>
													<trackindex>1</trackindex>
													<clipindex>1</clipindex>
													<groupindex>1</groupindex>
												</link>
												<link>
													<linkclipref>clipitem-572</linkclipref>
													<mediatype>audio</mediatype>
													<trackindex>2</trackindex>
													<clipindex>1</clipindex>
													<groupindex>1</groupindex>
												</link>
											</clipitem>
										</track>
									</audio>
								</media>
								<logginginfo>
									<description></description>
									<scene></scene>
									<shottake></shottake>
									<lognote></lognote>
									<good></good>
									<originalvideofilename></originalvideofilename>
									<originalaudiofilename></originalaudiofilename>
								</logginginfo>
								<colorinfo>
									<lut></lut>
									<lut1></lut1>
									<asc_sop></asc_sop>
									<asc_sat></asc_sat>
									<lut2></lut2>
								</colorinfo>
								<labels>
									<label2>Iris</label2>
								</labels>
							</clip>
							<clip id="masterclip-332" explodedTracks="true">
								<uuid>30094c9d-8e60-4dc5-9d71-64a465b156bb</uuid>
								<masterclipid>masterclip-332</masterclipid>
								<ismasterclip>TRUE</ismasterclip>
								<duration>300</duration>
								<rate>
									<timebase>30</timebase>
									<ntsc>FALSE</ntsc>
								</rate>
								<name>ATM_YouAreWatching.mp4</name>
								<media>
									<video>
										<track>
											<clipitem id="clipitem-573">
												<masterclipid>masterclip-332</masterclipid>
												<name>ATM_YouAreWatching.mp4</name>
												<rate>
													<timebase>30</timebase>
													<ntsc>FALSE</ntsc>
												</rate>
												<alphatype>none</alphatype>
												<pixelaspectratio>square</pixelaspectratio>
												<anamorphic>FALSE</anamorphic>
												<file id="file-304">
													<name>ATM_YouAreWatching.mp4</name>
													<pathurl>file://localhost/Volumes/T7/DRONE_08.18.2023/4_Project%20Files/Drone%202023%20Master%20Assets/ATM_YouAreWatching.mp4</pathurl>
													<rate>
														<timebase>30</timebase>
														<ntsc>FALSE</ntsc>
													</rate>
													<duration>300</duration>
													<timecode>
														<rate>
															<timebase>30</timebase>
															<ntsc>FALSE</ntsc>
														</rate>
														<string>00:00:00:00</string>
														<frame>0</frame>
														<displayformat>NDF</displayformat>
													</timecode>
													<media>
														<video>
															<samplecharacteristics>
																<rate>
																	<timebase>30</timebase>
																	<ntsc>FALSE</ntsc>
																</rate>
																<width>1920</width>
																<height>1080</height>
																<anamorphic>FALSE</anamorphic>
																<pixelaspectratio>square</pixelaspectratio>
																<fielddominance>none</fielddominance>
															</samplecharacteristics>
														</video>
														<audio>
															<samplecharacteristics>
																<depth>16</depth>
																<samplerate>48000</samplerate>
															</samplecharacteristics>
															<channelcount>2</channelcount>
														</audio>
													</media>
												</file>
												<link>
													<linkclipref>clipitem-573</linkclipref>
													<mediatype>video</mediatype>
													<trackindex>1</trackindex>
													<clipindex>1</clipindex>
												</link>
												<link>
													<linkclipref>clipitem-574</linkclipref>
													<mediatype>audio</mediatype>
													<trackindex>1</trackindex>
													<clipindex>1</clipindex>
													<groupindex>1</groupindex>
												</link>
												<link>
													<linkclipref>clipitem-575</linkclipref>
													<mediatype>audio</mediatype>
													<trackindex>2</trackindex>
													<clipindex>1</clipindex>
													<groupindex>1</groupindex>
												</link>
											</clipitem>
										</track>
									</video>
									<audio>
										<track>
											<clipitem id="clipitem-574">
												<masterclipid>masterclip-332</masterclipid>
												<name>ATM_YouAreWatching.mp4</name>
												<rate>
													<timebase>30</timebase>
													<ntsc>FALSE</ntsc>
												</rate>
												<file id="file-304"/>
												<sourcetrack>
													<mediatype>audio</mediatype>
													<trackindex>1</trackindex>
												</sourcetrack>
												<link>
													<linkclipref>clipitem-573</linkclipref>
													<mediatype>video</mediatype>
													<trackindex>1</trackindex>
													<clipindex>1</clipindex>
												</link>
												<link>
													<linkclipref>clipitem-574</linkclipref>
													<mediatype>audio</mediatype>
													<trackindex>1</trackindex>
													<clipindex>1</clipindex>
													<groupindex>1</groupindex>
												</link>
												<link>
													<linkclipref>clipitem-575</linkclipref>
													<mediatype>audio</mediatype>
													<trackindex>2</trackindex>
													<clipindex>1</clipindex>
													<groupindex>1</groupindex>
												</link>
											</clipitem>
										</track>
										<track>
											<clipitem id="clipitem-575">
												<masterclipid>masterclip-332</masterclipid>
												<name>ATM_YouAreWatching.mp4</name>
												<rate>
													<timebase>30</timebase>
													<ntsc>FALSE</ntsc>
												</rate>
												<file id="file-304"/>
												<sourcetrack>
													<mediatype>audio</mediatype>
													<trackindex>2</trackindex>
												</sourcetrack>
												<link>
													<linkclipref>clipitem-573</linkclipref>
													<mediatype>video</mediatype>
													<trackindex>1</trackindex>
													<clipindex>1</clipindex>
												</link>
												<link>
													<linkclipref>clipitem-574</linkclipref>
													<mediatype>audio</mediatype>
													<trackindex>1</trackindex>
													<clipindex>1</clipindex>
													<groupindex>1</groupindex>
												</link>
												<link>
													<linkclipref>clipitem-575</linkclipref>
													<mediatype>audio</mediatype>
													<trackindex>2</trackindex>
													<clipindex>1</clipindex>
													<groupindex>1</groupindex>
												</link>
											</clipitem>
										</track>
									</audio>
								</media>
								<logginginfo>
									<description></description>
									<scene></scene>
									<shottake></shottake>
									<lognote></lognote>
									<good></good>
									<originalvideofilename></originalvideofilename>
									<originalaudiofilename></originalaudiofilename>
								</logginginfo>
								<colorinfo>
									<lut></lut>
									<lut1></lut1>
									<asc_sop></asc_sop>
									<asc_sat></asc_sat>
									<lut2></lut2>
								</colorinfo>
								<labels>
									<label2>Iris</label2>
								</labels>
							</clip>
							<clip id="masterclip-178" explodedTracks="true">
								<uuid>dcd89e0e-0133-416a-bb86-9623330c00eb</uuid>
								<masterclipid>masterclip-178</masterclipid>
								<ismasterclip>TRUE</ismasterclip>
								<duration>300</duration>
								<rate>
									<timebase>30</timebase>
									<ntsc>TRUE</ntsc>
								</rate>
								<name>ATM_YouAreWatching_2.mp4</name>
								<media>
									<video>
										<track>
											<clipitem id="clipitem-576">
												<masterclipid>masterclip-178</masterclipid>
												<name>ATM_YouAreWatching_2.mp4</name>
												<rate>
													<timebase>30</timebase>
													<ntsc>TRUE</ntsc>
												</rate>
												<alphatype>none</alphatype>
												<file id="file-168"/>
												<link>
													<linkclipref>clipitem-576</linkclipref>
													<mediatype>video</mediatype>
													<trackindex>1</trackindex>
													<clipindex>1</clipindex>
												</link>
												<link>
													<linkclipref>clipitem-577</linkclipref>
													<mediatype>audio</mediatype>
													<trackindex>1</trackindex>
													<clipindex>1</clipindex>
													<groupindex>1</groupindex>
												</link>
												<link>
													<linkclipref>clipitem-578</linkclipref>
													<mediatype>audio</mediatype>
													<trackindex>2</trackindex>
													<clipindex>1</clipindex>
													<groupindex>1</groupindex>
												</link>
											</clipitem>
										</track>
									</video>
									<audio>
										<track>
											<clipitem id="clipitem-577">
												<masterclipid>masterclip-178</masterclipid>
												<name>ATM_YouAreWatching_2.mp4</name>
												<rate>
													<timebase>30</timebase>
													<ntsc>TRUE</ntsc>
												</rate>
												<file id="file-168"/>
												<sourcetrack>
													<mediatype>audio</mediatype>
													<trackindex>1</trackindex>
												</sourcetrack>
												<link>
													<linkclipref>clipitem-576</linkclipref>
													<mediatype>video</mediatype>
													<trackindex>1</trackindex>
													<clipindex>1</clipindex>
												</link>
												<link>
													<linkclipref>clipitem-577</linkclipref>
													<mediatype>audio</mediatype>
													<trackindex>1</trackindex>
													<clipindex>1</clipindex>
													<groupindex>1</groupindex>
												</link>
												<link>
													<linkclipref>clipitem-578</linkclipref>
													<mediatype>audio</mediatype>
													<trackindex>2</trackindex>
													<clipindex>1</clipindex>
													<groupindex>1</groupindex>
												</link>
											</clipitem>
										</track>
										<track>
											<clipitem id="clipitem-578">
												<masterclipid>masterclip-178</masterclipid>
												<name>ATM_YouAreWatching_2.mp4</name>
												<rate>
													<timebase>30</timebase>
													<ntsc>TRUE</ntsc>
												</rate>
												<file id="file-168"/>
												<sourcetrack>
													<mediatype>audio</mediatype>
													<trackindex>2</trackindex>
												</sourcetrack>
												<link>
													<linkclipref>clipitem-576</linkclipref>
													<mediatype>video</mediatype>
													<trackindex>1</trackindex>
													<clipindex>1</clipindex>
												</link>
												<link>
													<linkclipref>clipitem-577</linkclipref>
													<mediatype>audio</mediatype>
													<trackindex>1</trackindex>
													<clipindex>1</clipindex>
													<groupindex>1</groupindex>
												</link>
												<link>
													<linkclipref>clipitem-578</linkclipref>
													<mediatype>audio</mediatype>
													<trackindex>2</trackindex>
													<clipindex>1</clipindex>
													<groupindex>1</groupindex>
												</link>
											</clipitem>
										</track>
									</audio>
								</media>
								<logginginfo>
									<description></description>
									<scene></scene>
									<shottake></shottake>
									<lognote></lognote>
									<good></good>
									<originalvideofilename></originalvideofilename>
									<originalaudiofilename></originalaudiofilename>
								</logginginfo>
								<colorinfo>
									<lut></lut>
									<lut1></lut1>
									<asc_sop></asc_sop>
									<asc_sat></asc_sat>
									<lut2></lut2>
								</colorinfo>
								<labels>
									<label2>Iris</label2>
								</labels>
							</clip>
							<clip id="masterclip-302" explodedTracks="true">
								<uuid>430b1329-8bd1-41e9-bea1-dd8ede17c3b6</uuid>
								<masterclipid>masterclip-302</masterclipid>
								<ismasterclip>TRUE</ismasterclip>
								<duration>300</duration>
								<rate>
									<timebase>30</timebase>
									<ntsc>FALSE</ntsc>
								</rate>
								<name>ATM_YouAreWatching_3.mp4</name>
								<media>
									<video>
										<track>
											<clipitem id="clipitem-579">
												<masterclipid>masterclip-302</masterclipid>
												<name>ATM_YouAreWatching_3.mp4</name>
												<rate>
													<timebase>30</timebase>
													<ntsc>FALSE</ntsc>
												</rate>
												<alphatype>none</alphatype>
												<file id="file-276"/>
												<link>
													<linkclipref>clipitem-579</linkclipref>
													<mediatype>video</mediatype>
													<trackindex>1</trackindex>
													<clipindex>1</clipindex>
												</link>
												<link>
													<linkclipref>clipitem-580</linkclipref>
													<mediatype>audio</mediatype>
													<trackindex>1</trackindex>
													<clipindex>1</clipindex>
													<groupindex>1</groupindex>
												</link>
												<link>
													<linkclipref>clipitem-581</linkclipref>
													<mediatype>audio</mediatype>
													<trackindex>2</trackindex>
													<clipindex>1</clipindex>
													<groupindex>1</groupindex>
												</link>
											</clipitem>
										</track>
									</video>
									<audio>
										<track>
											<clipitem id="clipitem-580">
												<masterclipid>masterclip-302</masterclipid>
												<name>ATM_YouAreWatching_3.mp4</name>
												<rate>
													<timebase>30</timebase>
													<ntsc>FALSE</ntsc>
												</rate>
												<file id="file-276"/>
												<sourcetrack>
													<mediatype>audio</mediatype>
													<trackindex>1</trackindex>
												</sourcetrack>
												<link>
													<linkclipref>clipitem-579</linkclipref>
													<mediatype>video</mediatype>
													<trackindex>1</trackindex>
													<clipindex>1</clipindex>
												</link>
												<link>
													<linkclipref>clipitem-580</linkclipref>
													<mediatype>audio</mediatype>
													<trackindex>1</trackindex>
													<clipindex>1</clipindex>
													<groupindex>1</groupindex>
												</link>
												<link>
													<linkclipref>clipitem-581</linkclipref>
													<mediatype>audio</mediatype>
													<trackindex>2</trackindex>
													<clipindex>1</clipindex>
													<groupindex>1</groupindex>
												</link>
											</clipitem>
										</track>
										<track>
											<clipitem id="clipitem-581">
												<masterclipid>masterclip-302</masterclipid>
												<name>ATM_YouAreWatching_3.mp4</name>
												<rate>
													<timebase>30</timebase>
													<ntsc>FALSE</ntsc>
												</rate>
												<file id="file-276"/>
												<sourcetrack>
													<mediatype>audio</mediatype>
													<trackindex>2</trackindex>
												</sourcetrack>
												<link>
													<linkclipref>clipitem-579</linkclipref>
													<mediatype>video</mediatype>
													<trackindex>1</trackindex>
													<clipindex>1</clipindex>
												</link>
												<link>
													<linkclipref>clipitem-580</linkclipref>
													<mediatype>audio</mediatype>
													<trackindex>1</trackindex>
													<clipindex>1</clipindex>
													<groupindex>1</groupindex>
												</link>
												<link>
													<linkclipref>clipitem-581</linkclipref>
													<mediatype>audio</mediatype>
													<trackindex>2</trackindex>
													<clipindex>1</clipindex>
													<groupindex>1</groupindex>
												</link>
											</clipitem>
										</track>
									</audio>
								</media>
								<logginginfo>
									<description></description>
									<scene></scene>
									<shottake></shottake>
									<lognote></lognote>
									<good></good>
									<originalvideofilename></originalvideofilename>
									<originalaudiofilename></originalaudiofilename>
								</logginginfo>
								<colorinfo>
									<lut></lut>
									<lut1></lut1>
									<asc_sop></asc_sop>
									<asc_sat></asc_sat>
									<lut2></lut2>
								</colorinfo>
								<labels>
									<label2>Iris</label2>
								</labels>
							</clip>
						</children>
					</bin>
					<clip id="masterclip-176" explodedTracks="true">
						<uuid>b0973555-e8f5-44d9-b7b7-2b82b5bf9212</uuid>
						<masterclipid>masterclip-176</masterclipid>
						<ismasterclip>TRUE</ismasterclip>
						<duration>5844</duration>
						<rate>
							<timebase>30</timebase>
							<ntsc>TRUE</ntsc>
						</rate>
						<out>1532</out>
						<name>Attribution</name>
						<media>
							<video>
								<track>
									<clipitem id="clipitem-582">
										<masterclipid>masterclip-176</masterclipid>
										<name>Attribution</name>
										<rate>
											<timebase>30</timebase>
											<ntsc>TRUE</ntsc>
										</rate>
										<alphatype>straight</alphatype>
										<file id="file-166"/>
									</clipitem>
								</track>
							</video>
						</media>
						<logginginfo>
							<description></description>
							<scene></scene>
							<shottake></shottake>
							<lognote></lognote>
							<good></good>
							<originalvideofilename></originalvideofilename>
							<originalaudiofilename></originalaudiofilename>
						</logginginfo>
						<colorinfo>
							<lut></lut>
							<lut1></lut1>
							<asc_sop></asc_sop>
							<asc_sat></asc_sat>
							<lut2></lut2>
						</colorinfo>
						<labels>
							<label2>Yellow</label2>
						</labels>
					</clip>
					<clip id="masterclip-196" explodedTracks="true">
						<uuid>2bcb8ae0-0114-4458-b6a0-c73f8dfd1202</uuid>
						<masterclipid>masterclip-196</masterclipid>
						<ismasterclip>TRUE</ismasterclip>
						<duration>5844</duration>
						<rate>
							<timebase>30</timebase>
							<ntsc>TRUE</ntsc>
						</rate>
						<out>3734</out>
						<name>LÓCI</name>
						<media>
							<video>
								<track>
									<clipitem id="clipitem-583">
										<masterclipid>masterclip-196</masterclipid>
										<name>LÓCI</name>
										<rate>
											<timebase>30</timebase>
											<ntsc>TRUE</ntsc>
										</rate>
										<alphatype>straight</alphatype>
										<file id="file-183"/>
									</clipitem>
								</track>
							</video>
						</media>
						<logginginfo>
							<description></description>
							<scene></scene>
							<shottake></shottake>
							<lognote></lognote>
							<good></good>
							<originalvideofilename></originalvideofilename>
							<originalaudiofilename></originalaudiofilename>
						</logginginfo>
						<colorinfo>
							<lut></lut>
							<lut1></lut1>
							<asc_sop></asc_sop>
							<asc_sat></asc_sat>
							<lut2></lut2>
						</colorinfo>
						<labels>
							<label2>Yellow</label2>
						</labels>
					</clip>
					<clip id="masterclip-245" explodedTracks="true">
						<uuid>2aa87023-e94d-4d5a-b544-0845b1ed35f1</uuid>
						<masterclipid>masterclip-245</masterclipid>
						<ismasterclip>TRUE</ismasterclip>
						<duration>5844</duration>
						<rate>
							<timebase>30</timebase>
							<ntsc>TRUE</ntsc>
						</rate>
						<out>2310</out>
						<name>TOMZ FPV</name>
						<media>
							<video>
								<track>
									<clipitem id="clipitem-584">
										<masterclipid>masterclip-245</masterclipid>
										<name>TOMZ FPV</name>
										<rate>
											<timebase>30</timebase>
											<ntsc>TRUE</ntsc>
										</rate>
										<alphatype>straight</alphatype>
										<file id="file-224"/>
									</clipitem>
								</track>
							</video>
						</media>
						<logginginfo>
							<description></description>
							<scene></scene>
							<shottake></shottake>
							<lognote></lognote>
							<good></good>
							<originalvideofilename></originalvideofilename>
							<originalaudiofilename></originalaudiofilename>
						</logginginfo>
						<colorinfo>
							<lut></lut>
							<lut1></lut1>
							<asc_sop></asc_sop>
							<asc_sat></asc_sat>
							<lut2></lut2>
						</colorinfo>
						<labels>
							<label2>Yellow</label2>
						</labels>
					</clip>
					<clip id="masterclip-327" explodedTracks="true">
						<uuid>a57aaf5b-41e4-442c-8c00-55ae763dd7e6</uuid>
						<masterclipid>masterclip-327</masterclipid>
						<ismasterclip>TRUE</ismasterclip>
						<duration>5844</duration>
						<rate>
							<timebase>30</timebase>
							<ntsc>TRUE</ntsc>
						</rate>
						<out>3726</out>
						<name>Loud FPV</name>
						<media>
							<video>
								<track>
									<clipitem id="clipitem-585">
										<masterclipid>masterclip-327</masterclipid>
										<name>Loud FPV</name>
										<rate>
											<timebase>30</timebase>
											<ntsc>TRUE</ntsc>
										</rate>
										<alphatype>straight</alphatype>
										<file id="file-299"/>
									</clipitem>
								</track>
							</video>
						</media>
						<logginginfo>
							<description></description>
							<scene></scene>
							<shottake></shottake>
							<lognote></lognote>
							<good></good>
							<originalvideofilename></originalvideofilename>
							<originalaudiofilename></originalaudiofilename>
						</logginginfo>
						<colorinfo>
							<lut></lut>
							<lut1></lut1>
							<asc_sop></asc_sop>
							<asc_sat></asc_sat>
							<lut2></lut2>
						</colorinfo>
						<labels>
							<label2>Yellow</label2>
						</labels>
					</clip>
					<clip id="masterclip-184" explodedTracks="true">
						<uuid>733aa572-1eb5-462c-909b-0853aac42d61</uuid>
						<masterclipid>masterclip-184</masterclipid>
						<ismasterclip>TRUE</ismasterclip>
						<duration>180</duration>
						<rate>
							<timebase>30</timebase>
							<ntsc>TRUE</ntsc>
						</rate>
						<name>Disclaimer_1080_Flashing Lights.mov</name>
						<media>
							<video>
								<track>
									<clipitem id="clipitem-586">
										<masterclipid>masterclip-184</masterclipid>
										<name>Disclaimer_1080_Flashing Lights.mov</name>
										<rate>
											<timebase>30</timebase>
											<ntsc>TRUE</ntsc>
										</rate>
										<alphatype>straight</alphatype>
										<file id="file-173"/>
									</clipitem>
								</track>
							</video>
						</media>
						<logginginfo>
							<description></description>
							<scene></scene>
							<shottake></shottake>
							<lognote></lognote>
							<good></good>
							<originalvideofilename></originalvideofilename>
							<originalaudiofilename></originalaudiofilename>
						</logginginfo>
						<colorinfo>
							<lut></lut>
							<lut1></lut1>
							<asc_sop></asc_sop>
							<asc_sat></asc_sat>
							<lut2></lut2>
						</colorinfo>
						<labels>
							<label2>Violet</label2>
						</labels>
					</clip>
					<bin>
						<name>Assets</name>
						<labels>
							<label2>Mango</label2>
						</labels>
						<children>
							<bin>
								<name>DRIVE_LOCATION PIN</name>
								<labels>
									<label2>Mango</label2>
								</labels>
								<children>
									<bin>
										<name>other</name>
										<labels>
											<label2>Mango</label2>
										</labels>
										<children>
											<clip id="masterclip-333" explodedTracks="true">
												<uuid>afe49d5d-c645-49da-8da8-88fa682c8ca3</uuid>
												<masterclipid>masterclip-333</masterclipid>
												<ismasterclip>TRUE</ismasterclip>
												<duration>150</duration>
												<rate>
													<timebase>30</timebase>
													<ntsc>TRUE</ntsc>
												</rate>
												<in>0</in>
												<out>149</out>
												<name>noun-location-3182688.ai</name>
												<media>
													<video>
														<track>
															<clipitem id="clipitem-587">
																<masterclipid>masterclip-333</masterclipid>
																<name>noun-location-3182688.ai</name>
																<rate>
																	<timebase>30</timebase>
																	<ntsc>TRUE</ntsc>
																</rate>
																<alphatype>straight</alphatype>
																<pixelaspectratio>square</pixelaspectratio>
																<anamorphic>FALSE</anamorphic>
																<file id="file-305">
																	<name>noun-location-3182688.ai</name>
																	<pathurl>file://localhost/Volumes/T7/DRONE_08.18.2023/4_Project%20Files/Drone%202023%20Master%20Assets/01_Bugs/DRIVE_LOCATION%20PIN/(Footage)/Comps/Drive_Nav_LOWER_A.aep/other/noun-location-3182688.ai</pathurl>
																	<rate>
																		<timebase>30</timebase>
																		<ntsc>TRUE</ntsc>
																	</rate>
																	<timecode>
																		<rate>
																			<timebase>30</timebase>
																			<ntsc>TRUE</ntsc>
																		</rate>
																		<string>00:00:00:00</string>
																		<frame>0</frame>
																		<displayformat>NDF</displayformat>
																	</timecode>
																	<media>
																		<video>
																			<samplecharacteristics>
																				<rate>
																					<timebase>30</timebase>
																					<ntsc>TRUE</ntsc>
																				</rate>
																				<width>373</width>
																				<height>490</height>
																				<anamorphic>FALSE</anamorphic>
																				<pixelaspectratio>square</pixelaspectratio>
																				<fielddominance>none</fielddominance>
																			</samplecharacteristics>
																		</video>
																	</media>
																</file>
															</clipitem>
														</track>
													</video>
												</media>
												<logginginfo>
													<description></description>
													<scene></scene>
													<shottake></shottake>
													<lognote></lognote>
													<good></good>
													<originalvideofilename></originalvideofilename>
													<originalaudiofilename></originalaudiofilename>
												</logginginfo>
												<colorinfo>
													<lut></lut>
													<lut1></lut1>
													<asc_sop></asc_sop>
													<asc_sat></asc_sat>
													<lut2></lut2>
												</colorinfo>
												<labels>
													<label2>Lavender</label2>
												</labels>
											</clip>
											<clip id="masterclip-334" explodedTracks="true">
												<uuid>c209536c-bc60-4bc1-99f6-e392596b31a0</uuid>
												<masterclipid>masterclip-334</masterclipid>
												<ismasterclip>TRUE</ismasterclip>
												<duration>150</duration>
												<rate>
													<timebase>30</timebase>
													<ntsc>TRUE</ntsc>
												</rate>
												<in>0</in>
												<out>149</out>
												<name>noun-location-3182688_ATM.ai</name>
												<media>
													<video>
														<track>
															<clipitem id="clipitem-588">
																<masterclipid>masterclip-334</masterclipid>
																<name>noun-location-3182688_ATM.ai</name>
																<rate>
																	<timebase>30</timebase>
																	<ntsc>TRUE</ntsc>
																</rate>
																<alphatype>straight</alphatype>
																<pixelaspectratio>square</pixelaspectratio>
																<anamorphic>FALSE</anamorphic>
																<file id="file-306">
																	<name>noun-location-3182688_ATM.ai</name>
																	<pathurl>file://localhost/Volumes/T7/DRONE_08.18.2023/4_Project%20Files/Drone%202023%20Master%20Assets/01_Bugs/DRIVE_LOCATION%20PIN/(Footage)/Comps/Drive_Nav_LOWER_A.aep/other/noun-location-3182688_ATM.ai</pathurl>
																	<rate>
																		<timebase>30</timebase>
																		<ntsc>TRUE</ntsc>
																	</rate>
																	<timecode>
																		<rate>
																			<timebase>30</timebase>
																			<ntsc>TRUE</ntsc>
																		</rate>
																		<string>00:00:00:00</string>
																		<frame>0</frame>
																		<displayformat>NDF</displayformat>
																	</timecode>
																	<media>
																		<video>
																			<samplecharacteristics>
																				<rate>
																					<timebase>30</timebase>
																					<ntsc>TRUE</ntsc>
																				</rate>
																				<width>373</width>
																				<height>490</height>
																				<anamorphic>FALSE</anamorphic>
																				<pixelaspectratio>square</pixelaspectratio>
																				<fielddominance>none</fielddominance>
																			</samplecharacteristics>
																		</video>
																	</media>
																</file>
															</clipitem>
														</track>
													</video>
												</media>
												<logginginfo>
													<description></description>
													<scene></scene>
													<shottake></shottake>
													<lognote></lognote>
													<good></good>
													<originalvideofilename></originalvideofilename>
													<originalaudiofilename></originalaudiofilename>
												</logginginfo>
												<colorinfo>
													<lut></lut>
													<lut1></lut1>
													<asc_sop></asc_sop>
													<asc_sat></asc_sat>
													<lut2></lut2>
												</colorinfo>
												<labels>
													<label2>Lavender</label2>
												</labels>
											</clip>
										</children>
									</bin>
								</children>
							</bin>
							<bin>
								<name>NEW DRONE L3</name>
								<labels>
									<label2>Mango</label2>
								</labels>
								<children>
									<bin>
										<name>Ai</name>
										<labels>
											<label2>Mango</label2>
										</labels>
										<children>
											<bin>
												<name>Drone_SW 2 Layers</name>
												<labels>
													<label2>Mango</label2>
												</labels>
												<children>
													<clip id="masterclip-335" explodedTracks="true">
														<uuid>b3448b14-17de-4048-8107-34100b8cf38c</uuid>
														<masterclipid>masterclip-335</masterclipid>
														<ismasterclip>TRUE</ismasterclip>
														<duration>150</duration>
														<rate>
															<timebase>30</timebase>
															<ntsc>TRUE</ntsc>
														</rate>
														<in>0</in>
														<out>149</out>
														<name>Drone (2).psd</name>
														<media>
															<video>
																<track>
																	<clipitem id="clipitem-589">
																		<masterclipid>masterclip-335</masterclipid>
																		<name>Drone (2).psd</name>
																		<rate>
																			<timebase>30</timebase>
																			<ntsc>TRUE</ntsc>
																		</rate>
																		<alphatype>straight</alphatype>
																		<pixelaspectratio>square</pixelaspectratio>
																		<anamorphic>FALSE</anamorphic>
																		<file id="file-307">
																			<name>Drone (2).psd</name>
																			<pathurl>file://localhost/Volumes/T7/DRONE_08.18.2023/4_Project%20Files/Drone%202023%20Master%20Assets/01_Bugs/NEW%20DRONE%20L3/(Footage)/Ai/Drone_SW%202%20Layers/Drone%20(2).psd</pathurl>
																			<rate>
																				<timebase>30</timebase>
																				<ntsc>TRUE</ntsc>
																			</rate>
																			<timecode>
																				<rate>
																					<timebase>30</timebase>
																					<ntsc>TRUE</ntsc>
																				</rate>
																				<string>00:00:00:00</string>
																				<frame>0</frame>
																				<displayformat>NDF</displayformat>
																			</timecode>
																			<media>
																				<video>
																					<samplecharacteristics>
																						<rate>
																							<timebase>30</timebase>
																							<ntsc>TRUE</ntsc>
																						</rate>
																						<width>774</width>
																						<height>185</height>
																						<anamorphic>FALSE</anamorphic>
																						<pixelaspectratio>square</pixelaspectratio>
																						<fielddominance>none</fielddominance>
																					</samplecharacteristics>
																				</video>
																			</media>
																		</file>
																	</clipitem>
																</track>
															</video>
														</media>
														<logginginfo>
															<description></description>
															<scene></scene>
															<shottake></shottake>
															<lognote></lognote>
															<good></good>
															<originalvideofilename></originalvideofilename>
															<originalaudiofilename></originalaudiofilename>
														</logginginfo>
														<colorinfo>
															<lut></lut>
															<lut1></lut1>
															<asc_sop></asc_sop>
															<asc_sat></asc_sat>
															<lut2></lut2>
														</colorinfo>
														<labels>
															<label2>Lavender</label2>
														</labels>
													</clip>
													<clip id="masterclip-336" explodedTracks="true">
														<uuid>b62b64e5-e1ad-4225-9e8d-0e7c426123fa</uuid>
														<masterclipid>masterclip-336</masterclipid>
														<ismasterclip>TRUE</ismasterclip>
														<duration>150</duration>
														<rate>
															<timebase>30</timebase>
															<ntsc>TRUE</ntsc>
														</rate>
														<in>0</in>
														<out>149</out>
														<name>Drone_SW.psd</name>
														<media>
															<video>
																<track>
																	<clipitem id="clipitem-590">
																		<masterclipid>masterclip-336</masterclipid>
																		<name>Drone_SW.psd</name>
																		<rate>
																			<timebase>30</timebase>
																			<ntsc>TRUE</ntsc>
																		</rate>
																		<alphatype>straight</alphatype>
																		<pixelaspectratio>square</pixelaspectratio>
																		<anamorphic>FALSE</anamorphic>
																		<file id="file-308">
																			<name>Drone_SW.psd</name>
																			<pathurl>file://localhost/Volumes/T7/DRONE_08.18.2023/4_Project%20Files/Drone%202023%20Master%20Assets/01_Bugs/NEW%20DRONE%20L3/(Footage)/Ai/Drone_SW%202%20Layers/Drone_SW.psd</pathurl>
																			<rate>
																				<timebase>30</timebase>
																				<ntsc>TRUE</ntsc>
																			</rate>
																			<timecode>
																				<rate>
																					<timebase>30</timebase>
																					<ntsc>TRUE</ntsc>
																				</rate>
																				<string>00:00:00:00</string>
																				<frame>0</frame>
																				<displayformat>NDF</displayformat>
																			</timecode>
																			<media>
																				<video>
																					<samplecharacteristics>
																						<rate>
																							<timebase>30</timebase>
																							<ntsc>TRUE</ntsc>
																						</rate>
																						<width>1920</width>
																						<height>1080</height>
																						<anamorphic>FALSE</anamorphic>
																						<pixelaspectratio>square</pixelaspectratio>
																						<fielddominance>none</fielddominance>
																					</samplecharacteristics>
																				</video>
																			</media>
																		</file>
																	</clipitem>
																</track>
															</video>
														</media>
														<logginginfo>
															<description></description>
															<scene></scene>
															<shottake></shottake>
															<lognote></lognote>
															<good></good>
															<originalvideofilename></originalvideofilename>
															<originalaudiofilename></originalaudiofilename>
														</logginginfo>
														<colorinfo>
															<lut></lut>
															<lut1></lut1>
															<asc_sop></asc_sop>
															<asc_sat></asc_sat>
															<lut2></lut2>
														</colorinfo>
														<labels>
															<label2>Lavender</label2>
														</labels>
													</clip>
												</children>
											</bin>
											<clip id="masterclip-337" explodedTracks="true">
												<uuid>2c3e2681-2b57-4631-a44f-90a4ec80682c</uuid>
												<masterclipid>masterclip-337</masterclipid>
												<ismasterclip>TRUE</ismasterclip>
												<duration>150</duration>
												<rate>
													<timebase>30</timebase>
													<ntsc>TRUE</ntsc>
												</rate>
												<in>0</in>
												<out>149</out>
												<name>Channel Logo.png</name>
												<media>
													<video>
														<track>
															<clipitem id="clipitem-591">
																<masterclipid>masterclip-337</masterclipid>
																<name>Channel Logo.png</name>
																<rate>
																	<timebase>30</timebase>
																	<ntsc>TRUE</ntsc>
																</rate>
																<alphatype>straight</alphatype>
																<pixelaspectratio>square</pixelaspectratio>
																<anamorphic>FALSE</anamorphic>
																<file id="file-309">
																	<name>Channel Logo.png</name>
																	<pathurl>file://localhost/Volumes/T7/DRONE_08.18.2023/4_Project%20Files/Drone%202023%20Master%20Assets/01_Bugs/NEW%20DRONE%20L3/(Footage)/Ai/Channel%20Logo.png</pathurl>
																	<rate>
																		<timebase>30</timebase>
																		<ntsc>TRUE</ntsc>
																	</rate>
																	<timecode>
																		<rate>
																			<timebase>30</timebase>
																			<ntsc>TRUE</ntsc>
																		</rate>
																		<string>00:00:00:00</string>
																		<frame>0</frame>
																		<displayformat>NDF</displayformat>
																	</timecode>
																	<media>
																		<video>
																			<samplecharacteristics>
																				<rate>
																					<timebase>30</timebase>
																					<ntsc>TRUE</ntsc>
																				</rate>
																				<width>896</width>
																				<height>151</height>
																				<anamorphic>FALSE</anamorphic>
																				<pixelaspectratio>square</pixelaspectratio>
																				<fielddominance>none</fielddominance>
																			</samplecharacteristics>
																		</video>
																	</media>
																</file>
															</clipitem>
														</track>
													</video>
												</media>
												<logginginfo>
													<description></description>
													<scene></scene>
													<shottake></shottake>
													<lognote></lognote>
													<good></good>
													<originalvideofilename></originalvideofilename>
													<originalaudiofilename></originalaudiofilename>
												</logginginfo>
												<colorinfo>
													<lut></lut>
													<lut1></lut1>
													<asc_sop></asc_sop>
													<asc_sat></asc_sat>
													<lut2></lut2>
												</colorinfo>
												<labels>
													<label2>Lavender</label2>
												</labels>
											</clip>
											<clip id="masterclip-338" explodedTracks="true">
												<uuid>c620ca51-4779-4435-b963-815c17ebc9c6</uuid>
												<masterclipid>masterclip-338</masterclipid>
												<ismasterclip>TRUE</ismasterclip>
												<duration>150</duration>
												<rate>
													<timebase>30</timebase>
													<ntsc>TRUE</ntsc>
												</rate>
												<in>0</in>
												<out>149</out>
												<name>Drone_SW.psd</name>
												<media>
													<video>
														<track>
															<clipitem id="clipitem-592">
																<masterclipid>masterclip-338</masterclipid>
																<name>Drone_SW.psd</name>
																<rate>
																	<timebase>30</timebase>
																	<ntsc>TRUE</ntsc>
																</rate>
																<alphatype>straight</alphatype>
																<pixelaspectratio>square</pixelaspectratio>
																<anamorphic>FALSE</anamorphic>
																<file id="file-310">
																	<name>Drone_SW.psd</name>
																	<pathurl>file://localhost/Volumes/T7/DRONE_08.18.2023/4_Project%20Files/Drone%202023%20Master%20Assets/01_Bugs/NEW%20DRONE%20L3/(Footage)/Ai/Drone_SW%20Layers/Drone_SW.psd</pathurl>
																	<rate>
																		<timebase>30</timebase>
																		<ntsc>TRUE</ntsc>
																	</rate>
																	<timecode>
																		<rate>
																			<timebase>30</timebase>
																			<ntsc>TRUE</ntsc>
																		</rate>
																		<string>00:00:00:00</string>
																		<frame>0</frame>
																		<displayformat>NDF</displayformat>
																	</timecode>
																	<media>
																		<video>
																			<samplecharacteristics>
																				<rate>
																					<timebase>30</timebase>
																					<ntsc>TRUE</ntsc>
																				</rate>
																				<width>1920</width>
																				<height>1080</height>
																				<anamorphic>FALSE</anamorphic>
																				<pixelaspectratio>square</pixelaspectratio>
																				<fielddominance>none</fielddominance>
																			</samplecharacteristics>
																		</video>
																	</media>
																</file>
															</clipitem>
														</track>
													</video>
												</media>
												<logginginfo>
													<description></description>
													<scene></scene>
													<shottake></shottake>
													<lognote></lognote>
													<good></good>
													<originalvideofilename></originalvideofilename>
													<originalaudiofilename></originalaudiofilename>
												</logginginfo>
												<colorinfo>
													<lut></lut>
													<lut1></lut1>
													<asc_sop></asc_sop>
													<asc_sat></asc_sat>
													<lut2></lut2>
												</colorinfo>
												<labels>
													<label2>Lavender</label2>
												</labels>
											</clip>
										</children>
									</bin>
								</children>
							</bin>
						</children>
					</bin>
					<bin>
						<name>L3s</name>
						<labels>
							<label2>Forest</label2>
						</labels>
						<children>
							<clip id="masterclip-149" explodedTracks="true">
								<uuid>a53e9c06-14c9-406d-832d-8ecf6af60d18</uuid>
								<masterclipid>masterclip-149</masterclipid>
								<ismasterclip>TRUE</ismasterclip>
								<duration>5694</duration>
								<rate>
									<timebase>30</timebase>
									<ntsc>TRUE</ntsc>
								</rate>
								<name>NEW DRONE L3.aep</name>
								<media>
									<video>
										<track>
											<clipitem id="clipitem-593">
												<masterclipid>masterclip-149</masterclipid>
												<name>NEW DRONE L3.aep</name>
												<rate>
													<timebase>30</timebase>
													<ntsc>TRUE</ntsc>
												</rate>
												<alphatype>straight</alphatype>
												<file id="file-147"/>
											</clipitem>
										</track>
									</video>
								</media>
								<logginginfo>
									<description></description>
									<scene></scene>
									<shottake></shottake>
									<lognote></lognote>
									<good></good>
									<originalvideofilename></originalvideofilename>
									<originalaudiofilename></originalaudiofilename>
								</logginginfo>
								<colorinfo>
									<lut></lut>
									<lut1></lut1>
									<asc_sop></asc_sop>
									<asc_sat></asc_sat>
									<lut2></lut2>
								</colorinfo>
								<labels>
									<label2>Rose</label2>
								</labels>
							</clip>
							<clip id="masterclip-150" explodedTracks="true">
								<uuid>5431d1cf-ccef-4377-a920-b1497aa65932</uuid>
								<masterclipid>masterclip-150</masterclipid>
								<ismasterclip>TRUE</ismasterclip>
								<duration>5694</duration>
								<rate>
									<timebase>30</timebase>
									<ntsc>TRUE</ntsc>
								</rate>
								<out>3756</out>
								<name>Guan Yin</name>
								<media>
									<video>
										<track>
											<clipitem id="clipitem-594">
												<masterclipid>masterclip-150</masterclipid>
												<name>Guan Yin</name>
												<rate>
													<timebase>30</timebase>
													<ntsc>TRUE</ntsc>
												</rate>
												<alphatype>straight</alphatype>
												<file id="file-148"/>
											</clipitem>
										</track>
									</video>
								</media>
								<logginginfo>
									<description></description>
									<scene></scene>
									<shottake></shottake>
									<lognote></lognote>
									<good></good>
									<originalvideofilename></originalvideofilename>
									<originalaudiofilename></originalaudiofilename>
								</logginginfo>
								<colorinfo>
									<lut></lut>
									<lut1></lut1>
									<asc_sop></asc_sop>
									<asc_sat></asc_sat>
									<lut2></lut2>
								</colorinfo>
								<labels>
									<label2>Rose</label2>
								</labels>
							</clip>
							<clip id="masterclip-339" explodedTracks="true">
								<uuid>b909f071-7dc5-4f67-8e39-78dcd7cb8901</uuid>
								<masterclipid>masterclip-339</masterclipid>
								<ismasterclip>TRUE</ismasterclip>
								<duration>5694</duration>
								<rate>
									<timebase>30</timebase>
									<ntsc>TRUE</ntsc>
								</rate>
								<name>The Pamir Desert</name>
								<media>
									<video>
										<track>
											<clipitem id="clipitem-595">
												<masterclipid>masterclip-339</masterclipid>
												<name>The Pamir Desert</name>
												<rate>
													<timebase>30</timebase>
													<ntsc>TRUE</ntsc>
												</rate>
												<alphatype>straight</alphatype>
												<pixelaspectratio>square</pixelaspectratio>
												<anamorphic>FALSE</anamorphic>
												<file id="file-311">
													<name>DRONE_LOWER_A/NEW DRONE L3.aep</name>
													<pathurl>file://localhost/Volumes/T7/DRONE_08.18.2023/4_Project%20Files/Drone%202023%20Master%20Assets/01_Bugs/NEW%20DRONE%20L3/NEW%20DRONE%20L3.aep</pathurl>
													<rate>
														<timebase>30</timebase>
														<ntsc>TRUE</ntsc>
													</rate>
													<duration>5694</duration>
													<timecode>
														<rate>
															<timebase>30</timebase>
															<ntsc>TRUE</ntsc>
														</rate>
														<string>00;00;00;00</string>
														<frame>0</frame>
														<displayformat>DF</displayformat>
													</timecode>
													<media>
														<video>
															<samplecharacteristics>
																<rate>
																	<timebase>30</timebase>
																	<ntsc>TRUE</ntsc>
																</rate>
																<width>1920</width>
																<height>1080</height>
																<anamorphic>FALSE</anamorphic>
																<pixelaspectratio>square</pixelaspectratio>
																<fielddominance>lower</fielddominance>
															</samplecharacteristics>
														</video>
													</media>
												</file>
											</clipitem>
										</track>
									</video>
								</media>
								<logginginfo>
									<description></description>
									<scene></scene>
									<shottake></shottake>
									<lognote></lognote>
									<good></good>
									<originalvideofilename></originalvideofilename>
									<originalaudiofilename></originalaudiofilename>
								</logginginfo>
								<colorinfo>
									<lut></lut>
									<lut1></lut1>
									<asc_sop></asc_sop>
									<asc_sat></asc_sat>
									<lut2></lut2>
								</colorinfo>
								<labels>
									<label2>Rose</label2>
								</labels>
							</clip>
							<clip id="masterclip-179" explodedTracks="true">
								<uuid>d053e305-86c1-4e9e-b951-7e26295026d8</uuid>
								<masterclipid>masterclip-179</masterclipid>
								<ismasterclip>TRUE</ismasterclip>
								<duration>5694</duration>
								<rate>
									<timebase>30</timebase>
									<ntsc>TRUE</ntsc>
								</rate>
								<name>Longboard Chase</name>
								<media>
									<video>
										<track>
											<clipitem id="clipitem-596">
												<masterclipid>masterclip-179</masterclipid>
												<name>Longboard Chase</name>
												<rate>
													<timebase>30</timebase>
													<ntsc>TRUE</ntsc>
												</rate>
												<alphatype>straight</alphatype>
												<file id="file-169"/>
											</clipitem>
										</track>
									</video>
								</media>
								<logginginfo>
									<description></description>
									<scene></scene>
									<shottake></shottake>
									<lognote></lognote>
									<good></good>
									<originalvideofilename></originalvideofilename>
									<originalaudiofilename></originalaudiofilename>
								</logginginfo>
								<colorinfo>
									<lut></lut>
									<lut1></lut1>
									<asc_sop></asc_sop>
									<asc_sat></asc_sat>
									<lut2></lut2>
								</colorinfo>
								<labels>
									<label2>Rose</label2>
								</labels>
							</clip>
							<clip id="masterclip-180" explodedTracks="true">
								<uuid>7a126c5c-5fc8-4bb9-b825-83130a64e8f5</uuid>
								<masterclipid>masterclip-180</masterclipid>
								<ismasterclip>TRUE</ismasterclip>
								<duration>5694</duration>
								<rate>
									<timebase>30</timebase>
									<ntsc>TRUE</ntsc>
								</rate>
								<name>FIREWORKS IN FARIDABAD</name>
								<media>
									<video>
										<track>
											<clipitem id="clipitem-597">
												<masterclipid>masterclip-180</masterclipid>
												<name>FIREWORKS IN FARIDABAD</name>
												<rate>
													<timebase>30</timebase>
													<ntsc>TRUE</ntsc>
												</rate>
												<alphatype>straight</alphatype>
												<file id="file-170"/>
											</clipitem>
										</track>
									</video>
								</media>
								<logginginfo>
									<description></description>
									<scene></scene>
									<shottake></shottake>
									<lognote></lognote>
									<good></good>
									<originalvideofilename></originalvideofilename>
									<originalaudiofilename></originalaudiofilename>
								</logginginfo>
								<colorinfo>
									<lut></lut>
									<lut1></lut1>
									<asc_sop></asc_sop>
									<asc_sat></asc_sat>
									<lut2></lut2>
								</colorinfo>
								<labels>
									<label2>Rose</label2>
								</labels>
							</clip>
							<clip id="masterclip-198" explodedTracks="true">
								<uuid>c215ffc6-9f7f-4974-a6a4-a7fb141ae3bf</uuid>
								<masterclipid>masterclip-198</masterclipid>
								<ismasterclip>TRUE</ismasterclip>
								<duration>5694</duration>
								<rate>
									<timebase>30</timebase>
									<ntsc>TRUE</ntsc>
								</rate>
								<name>A Sleepy Coastal Town</name>
								<media>
									<video>
										<track>
											<clipitem id="clipitem-598">
												<masterclipid>masterclip-198</masterclipid>
												<name>A Sleepy Coastal Town</name>
												<rate>
													<timebase>30</timebase>
													<ntsc>TRUE</ntsc>
												</rate>
												<alphatype>straight</alphatype>
												<file id="file-185"/>
											</clipitem>
										</track>
									</video>
								</media>
								<logginginfo>
									<description></description>
									<scene></scene>
									<shottake></shottake>
									<lognote></lognote>
									<good></good>
									<originalvideofilename></originalvideofilename>
									<originalaudiofilename></originalaudiofilename>
								</logginginfo>
								<colorinfo>
									<lut></lut>
									<lut1></lut1>
									<asc_sop></asc_sop>
									<asc_sat></asc_sat>
									<lut2></lut2>
								</colorinfo>
								<labels>
									<label2>Rose</label2>
								</labels>
							</clip>
							<clip id="masterclip-199" explodedTracks="true">
								<uuid>877b9fab-1a6a-46dd-8894-0b1b3f6796d7</uuid>
								<masterclipid>masterclip-199</masterclipid>
								<ismasterclip>TRUE</ismasterclip>
								<duration>5694</duration>
								<rate>
									<timebase>30</timebase>
									<ntsc>TRUE</ntsc>
								</rate>
								<out>2674</out>
								<name>Far North</name>
								<media>
									<video>
										<track>
											<clipitem id="clipitem-599">
												<masterclipid>masterclip-199</masterclipid>
												<name>Far North</name>
												<rate>
													<timebase>30</timebase>
													<ntsc>TRUE</ntsc>
												</rate>
												<alphatype>straight</alphatype>
												<file id="file-186"/>
											</clipitem>
										</track>
									</video>
								</media>
								<logginginfo>
									<description></description>
									<scene></scene>
									<shottake></shottake>
									<lognote></lognote>
									<good></good>
									<originalvideofilename></originalvideofilename>
									<originalaudiofilename></originalaudiofilename>
								</logginginfo>
								<colorinfo>
									<lut></lut>
									<lut1></lut1>
									<asc_sop></asc_sop>
									<asc_sat></asc_sat>
									<lut2></lut2>
								</colorinfo>
								<labels>
									<label2>Rose</label2>
								</labels>
							</clip>
							<clip id="masterclip-230" explodedTracks="true">
								<uuid>1a5087b5-6f3f-4117-b318-cff7aa04e6ab</uuid>
								<masterclipid>masterclip-230</masterclipid>
								<ismasterclip>TRUE</ismasterclip>
								<duration>5694</duration>
								<rate>
									<timebase>30</timebase>
									<ntsc>TRUE</ntsc>
								</rate>
								<name>DUNEBASHING</name>
								<media>
									<video>
										<track>
											<clipitem id="clipitem-600">
												<masterclipid>masterclip-230</masterclipid>
												<name>DUNEBASHING</name>
												<rate>
													<timebase>30</timebase>
													<ntsc>TRUE</ntsc>
												</rate>
												<alphatype>straight</alphatype>
												<file id="file-213"/>
											</clipitem>
										</track>
									</video>
								</media>
								<logginginfo>
									<description></description>
									<scene></scene>
									<shottake></shottake>
									<lognote></lognote>
									<good></good>
									<originalvideofilename></originalvideofilename>
									<originalaudiofilename></originalaudiofilename>
								</logginginfo>
								<colorinfo>
									<lut></lut>
									<lut1></lut1>
									<asc_sop></asc_sop>
									<asc_sat></asc_sat>
									<lut2></lut2>
								</colorinfo>
								<labels>
									<label2>Rose</label2>
								</labels>
							</clip>
							<clip id="masterclip-231" explodedTracks="true">
								<uuid>585152b2-eeff-426b-9fe2-3cc8154d3a29</uuid>
								<masterclipid>masterclip-231</masterclipid>
								<ismasterclip>TRUE</ismasterclip>
								<duration>5694</duration>
								<rate>
									<timebase>30</timebase>
									<ntsc>TRUE</ntsc>
								</rate>
								<out>3221</out>
								<name>Hollywood</name>
								<media>
									<video>
										<track>
											<clipitem id="clipitem-601">
												<masterclipid>masterclip-231</masterclipid>
												<name>Hollywood</name>
												<rate>
													<timebase>30</timebase>
													<ntsc>TRUE</ntsc>
												</rate>
												<alphatype>straight</alphatype>
												<file id="file-214"/>
											</clipitem>
										</track>
									</video>
								</media>
								<logginginfo>
									<description></description>
									<scene></scene>
									<shottake></shottake>
									<lognote></lognote>
									<good></good>
									<originalvideofilename></originalvideofilename>
									<originalaudiofilename></originalaudiofilename>
								</logginginfo>
								<colorinfo>
									<lut></lut>
									<lut1></lut1>
									<asc_sop></asc_sop>
									<asc_sat></asc_sat>
									<lut2></lut2>
								</colorinfo>
								<labels>
									<label2>Rose</label2>
								</labels>
							</clip>
							<clip id="masterclip-248" explodedTracks="true">
								<uuid>74999e16-d981-40ce-b907-dfa1fea5753e</uuid>
								<masterclipid>masterclip-248</masterclipid>
								<ismasterclip>TRUE</ismasterclip>
								<duration>5694</duration>
								<rate>
									<timebase>30</timebase>
									<ntsc>TRUE</ntsc>
								</rate>
								<out>3221</out>
								<name>Flying by the Beach</name>
								<media>
									<video>
										<track>
											<clipitem id="clipitem-602">
												<masterclipid>masterclip-248</masterclipid>
												<name>Flying by the Beach</name>
												<rate>
													<timebase>30</timebase>
													<ntsc>TRUE</ntsc>
												</rate>
												<alphatype>straight</alphatype>
												<file id="file-227"/>
											</clipitem>
										</track>
									</video>
								</media>
								<logginginfo>
									<description></description>
									<scene></scene>
									<shottake></shottake>
									<lognote></lognote>
									<good></good>
									<originalvideofilename></originalvideofilename>
									<originalaudiofilename></originalaudiofilename>
								</logginginfo>
								<colorinfo>
									<lut></lut>
									<lut1></lut1>
									<asc_sop></asc_sop>
									<asc_sat></asc_sat>
									<lut2></lut2>
								</colorinfo>
								<labels>
									<label2>Rose</label2>
								</labels>
							</clip>
							<clip id="masterclip-249" explodedTracks="true">
								<uuid>e0a182ea-00f9-4789-8350-c3f93276cc9d</uuid>
								<masterclipid>masterclip-249</masterclipid>
								<ismasterclip>TRUE</ismasterclip>
								<duration>5694</duration>
								<rate>
									<timebase>30</timebase>
									<ntsc>TRUE</ntsc>
								</rate>
								<out>2867</out>
								<name>MASTERS OF DIRT</name>
								<media>
									<video>
										<track>
											<clipitem id="clipitem-603">
												<masterclipid>masterclip-249</masterclipid>
												<name>MASTERS OF DIRT</name>
												<rate>
													<timebase>30</timebase>
													<ntsc>TRUE</ntsc>
												</rate>
												<alphatype>straight</alphatype>
												<file id="file-228"/>
											</clipitem>
										</track>
									</video>
								</media>
								<logginginfo>
									<description></description>
									<scene></scene>
									<shottake></shottake>
									<lognote></lognote>
									<good></good>
									<originalvideofilename></originalvideofilename>
									<originalaudiofilename></originalaudiofilename>
								</logginginfo>
								<colorinfo>
									<lut></lut>
									<lut1></lut1>
									<asc_sop></asc_sop>
									<asc_sat></asc_sat>
									<lut2></lut2>
								</colorinfo>
								<labels>
									<label2>Rose</label2>
								</labels>
							</clip>
							<clip id="masterclip-265" explodedTracks="true">
								<uuid>c8586a94-7830-4b79-a7c6-112b75f3d158</uuid>
								<masterclipid>masterclip-265</masterclipid>
								<ismasterclip>TRUE</ismasterclip>
								<duration>5694</duration>
								<rate>
									<timebase>30</timebase>
									<ntsc>TRUE</ntsc>
								</rate>
								<out>3221</out>
								<name>TORONTO FROM ABOVE</name>
								<media>
									<video>
										<track>
											<clipitem id="clipitem-604">
												<masterclipid>masterclip-265</masterclipid>
												<name>TORONTO FROM ABOVE</name>
												<rate>
													<timebase>30</timebase>
													<ntsc>TRUE</ntsc>
												</rate>
												<alphatype>straight</alphatype>
												<file id="file-242"/>
											</clipitem>
										</track>
									</video>
								</media>
								<logginginfo>
									<description></description>
									<scene></scene>
									<shottake></shottake>
									<lognote></lognote>
									<good></good>
									<originalvideofilename></originalvideofilename>
									<originalaudiofilename></originalaudiofilename>
								</logginginfo>
								<colorinfo>
									<lut></lut>
									<lut1></lut1>
									<asc_sop></asc_sop>
									<asc_sat></asc_sat>
									<lut2></lut2>
								</colorinfo>
								<labels>
									<label2>Rose</label2>
								</labels>
							</clip>
							<clip id="masterclip-285" explodedTracks="true">
								<uuid>5cb387ad-6575-4f0a-9034-5c13a43454f3</uuid>
								<masterclipid>masterclip-285</masterclipid>
								<ismasterclip>TRUE</ismasterclip>
								<duration>5694</duration>
								<rate>
									<timebase>30</timebase>
									<ntsc>TRUE</ntsc>
								</rate>
								<out>5288</out>
								<name>The Great Wall of China</name>
								<media>
									<video>
										<track>
											<clipitem id="clipitem-605">
												<masterclipid>masterclip-285</masterclipid>
												<name>The Great Wall of China</name>
												<rate>
													<timebase>30</timebase>
													<ntsc>TRUE</ntsc>
												</rate>
												<alphatype>straight</alphatype>
												<file id="file-260"/>
											</clipitem>
										</track>
									</video>
								</media>
								<logginginfo>
									<description></description>
									<scene></scene>
									<shottake></shottake>
									<lognote></lognote>
									<good></good>
									<originalvideofilename></originalvideofilename>
									<originalaudiofilename></originalaudiofilename>
								</logginginfo>
								<colorinfo>
									<lut></lut>
									<lut1></lut1>
									<asc_sop></asc_sop>
									<asc_sat></asc_sat>
									<lut2></lut2>
								</colorinfo>
								<labels>
									<label2>Rose</label2>
								</labels>
							</clip>
							<clip id="masterclip-303" explodedTracks="true">
								<uuid>41a6fbee-86bf-4980-b679-4b0301c04ddf</uuid>
								<masterclipid>masterclip-303</masterclipid>
								<ismasterclip>TRUE</ismasterclip>
								<duration>5694</duration>
								<rate>
									<timebase>30</timebase>
									<ntsc>TRUE</ntsc>
								</rate>
								<name>Lagos on the Coast</name>
								<media>
									<video>
										<track>
											<clipitem id="clipitem-606">
												<masterclipid>masterclip-303</masterclipid>
												<name>Lagos on the Coast</name>
												<rate>
													<timebase>30</timebase>
													<ntsc>TRUE</ntsc>
												</rate>
												<alphatype>straight</alphatype>
												<file id="file-277"/>
											</clipitem>
										</track>
									</video>
								</media>
								<logginginfo>
									<description></description>
									<scene></scene>
									<shottake></shottake>
									<lognote></lognote>
									<good></good>
									<originalvideofilename></originalvideofilename>
									<originalaudiofilename></originalaudiofilename>
								</logginginfo>
								<colorinfo>
									<lut></lut>
									<lut1></lut1>
									<asc_sop></asc_sop>
									<asc_sat></asc_sat>
									<lut2></lut2>
								</colorinfo>
								<labels>
									<label2>Rose</label2>
								</labels>
							</clip>
							<clip id="masterclip-322" explodedTracks="true">
								<uuid>2162cf63-42ba-472b-90a7-ff60a491f0be</uuid>
								<masterclipid>masterclip-322</masterclipid>
								<ismasterclip>TRUE</ismasterclip>
								<duration>5694</duration>
								<rate>
									<timebase>30</timebase>
									<ntsc>TRUE</ntsc>
								</rate>
								<name>The Rainbow Mountain</name>
								<media>
									<video>
										<track>
											<clipitem id="clipitem-607">
												<masterclipid>masterclip-322</masterclipid>
												<name>The Rainbow Mountain</name>
												<rate>
													<timebase>30</timebase>
													<ntsc>TRUE</ntsc>
												</rate>
												<alphatype>straight</alphatype>
												<file id="file-295"/>
											</clipitem>
										</track>
									</video>
								</media>
								<logginginfo>
									<description></description>
									<scene></scene>
									<shottake></shottake>
									<lognote></lognote>
									<good></good>
									<originalvideofilename></originalvideofilename>
									<originalaudiofilename></originalaudiofilename>
								</logginginfo>
								<colorinfo>
									<lut></lut>
									<lut1></lut1>
									<asc_sop></asc_sop>
									<asc_sat></asc_sat>
									<lut2></lut2>
								</colorinfo>
								<labels>
									<label2>Rose</label2>
								</labels>
							</clip>
							<clip id="masterclip-329" explodedTracks="true">
								<uuid>58467048-4fcf-4804-94e7-87903adba72c</uuid>
								<masterclipid>masterclip-329</masterclipid>
								<ismasterclip>TRUE</ismasterclip>
								<duration>5694</duration>
								<rate>
									<timebase>30</timebase>
									<ntsc>TRUE</ntsc>
								</rate>
								<name>Flying in the Field</name>
								<media>
									<video>
										<track>
											<clipitem id="clipitem-608">
												<masterclipid>masterclip-329</masterclipid>
												<name>Flying in the Field</name>
												<rate>
													<timebase>30</timebase>
													<ntsc>TRUE</ntsc>
												</rate>
												<alphatype>straight</alphatype>
												<file id="file-301"/>
											</clipitem>
										</track>
									</video>
								</media>
								<logginginfo>
									<description></description>
									<scene></scene>
									<shottake></shottake>
									<lognote></lognote>
									<good></good>
									<originalvideofilename></originalvideofilename>
									<originalaudiofilename></originalaudiofilename>
								</logginginfo>
								<colorinfo>
									<lut></lut>
									<lut1></lut1>
									<asc_sop></asc_sop>
									<asc_sat></asc_sat>
									<lut2></lut2>
								</colorinfo>
								<labels>
									<label2>Rose</label2>
								</labels>
							</clip>
						</children>
					</bin>
					<clip id="masterclip-286" explodedTracks="true">
						<uuid>2ba2573d-779e-419f-914e-d9e2c5faa611</uuid>
						<masterclipid>masterclip-286</masterclipid>
						<ismasterclip>TRUE</ismasterclip>
						<duration>5694</duration>
						<rate>
							<timebase>30</timebase>
							<ntsc>TRUE</ntsc>
						</rate>
						<name>China</name>
						<media>
							<video>
								<track>
									<clipitem id="clipitem-609">
										<masterclipid>masterclip-286</masterclipid>
										<name>China</name>
										<rate>
											<timebase>30</timebase>
											<ntsc>TRUE</ntsc>
										</rate>
										<alphatype>straight</alphatype>
										<file id="file-261"/>
									</clipitem>
								</track>
							</video>
						</media>
						<logginginfo>
							<description></description>
							<scene></scene>
							<shottake></shottake>
							<lognote></lognote>
							<good></good>
							<originalvideofilename></originalvideofilename>
							<originalaudiofilename></originalaudiofilename>
						</logginginfo>
						<colorinfo>
							<lut></lut>
							<lut1></lut1>
							<asc_sop></asc_sop>
							<asc_sat></asc_sat>
							<lut2></lut2>
						</colorinfo>
						<labels>
							<label2>Cerulean</label2>
						</labels>
					</clip>
					<clip id="masterclip-151" explodedTracks="true">
						<uuid>e92a68e1-b8bb-47af-a1f2-70ceffeade16</uuid>
						<masterclipid>masterclip-151</masterclipid>
						<ismasterclip>TRUE</ismasterclip>
						<duration>5694</duration>
						<rate>
							<timebase>30</timebase>
							<ntsc>TRUE</ntsc>
						</rate>
						<name>DRONE_PIN/DRONE_PIN.aep</name>
						<media>
							<video>
								<track>
									<clipitem id="clipitem-610">
										<masterclipid>masterclip-151</masterclipid>
										<name>DRONE_PIN/DRONE_PIN.aep</name>
										<rate>
											<timebase>30</timebase>
											<ntsc>TRUE</ntsc>
										</rate>
										<alphatype>straight</alphatype>
										<file id="file-149"/>
									</clipitem>
								</track>
							</video>
						</media>
						<logginginfo>
							<description></description>
							<scene></scene>
							<shottake></shottake>
							<lognote></lognote>
							<good></good>
							<originalvideofilename></originalvideofilename>
							<originalaudiofilename></originalaudiofilename>
						</logginginfo>
						<colorinfo>
							<lut></lut>
							<lut1></lut1>
							<asc_sop></asc_sop>
							<asc_sat></asc_sat>
							<lut2></lut2>
						</colorinfo>
						<labels>
							<label2>Cerulean</label2>
						</labels>
					</clip>
					<clip id="masterclip-152" explodedTracks="true">
						<uuid>e3946d0c-af72-488a-b9ba-b66144b0bdea</uuid>
						<masterclipid>masterclip-152</masterclipid>
						<ismasterclip>TRUE</ismasterclip>
						<duration>5694</duration>
						<rate>
							<timebase>30</timebase>
							<ntsc>TRUE</ntsc>
						</rate>
						<out>3492</out>
						<name>DRONE_PIN/DRONE_PIN.aep Copy 01</name>
						<media>
							<video>
								<track>
									<clipitem id="clipitem-611">
										<masterclipid>masterclip-152</masterclipid>
										<name>DRONE_PIN/DRONE_PIN.aep Copy 01</name>
										<rate>
											<timebase>30</timebase>
											<ntsc>TRUE</ntsc>
										</rate>
										<alphatype>straight</alphatype>
										<file id="file-150"/>
									</clipitem>
								</track>
							</video>
						</media>
						<logginginfo>
							<description></description>
							<scene></scene>
							<shottake></shottake>
							<lognote></lognote>
							<good></good>
							<originalvideofilename></originalvideofilename>
							<originalaudiofilename></originalaudiofilename>
						</logginginfo>
						<colorinfo>
							<lut></lut>
							<lut1></lut1>
							<asc_sop></asc_sop>
							<asc_sat></asc_sat>
							<lut2></lut2>
						</colorinfo>
						<labels>
							<label2>Cerulean</label2>
						</labels>
					</clip>
					<clip id="masterclip-181" explodedTracks="true">
						<uuid>d113c8d2-793a-4ba8-9777-036f2d2cf438</uuid>
						<masterclipid>masterclip-181</masterclipid>
						<ismasterclip>TRUE</ismasterclip>
						<duration>5694</duration>
						<rate>
							<timebase>30</timebase>
							<ntsc>TRUE</ntsc>
						</rate>
						<name>India Pin</name>
						<media>
							<video>
								<track>
									<clipitem id="clipitem-612">
										<masterclipid>masterclip-181</masterclipid>
										<name>India Pin</name>
										<rate>
											<timebase>30</timebase>
											<ntsc>TRUE</ntsc>
										</rate>
										<alphatype>straight</alphatype>
										<file id="file-171"/>
									</clipitem>
								</track>
							</video>
						</media>
						<logginginfo>
							<description></description>
							<scene></scene>
							<shottake></shottake>
							<lognote></lognote>
							<good></good>
							<originalvideofilename></originalvideofilename>
							<originalaudiofilename></originalaudiofilename>
						</logginginfo>
						<colorinfo>
							<lut></lut>
							<lut1></lut1>
							<asc_sop></asc_sop>
							<asc_sat></asc_sat>
							<lut2></lut2>
						</colorinfo>
						<labels>
							<label2>Cerulean</label2>
						</labels>
					</clip>
					<clip id="masterclip-200" explodedTracks="true">
						<uuid>e1d37d8f-1911-4929-af77-8c2858b35908</uuid>
						<masterclipid>masterclip-200</masterclipid>
						<ismasterclip>TRUE</ismasterclip>
						<duration>5694</duration>
						<rate>
							<timebase>30</timebase>
							<ntsc>TRUE</ntsc>
						</rate>
						<name>Ireland Pin</name>
						<media>
							<video>
								<track>
									<clipitem id="clipitem-613">
										<masterclipid>masterclip-200</masterclipid>
										<name>Ireland Pin</name>
										<rate>
											<timebase>30</timebase>
											<ntsc>TRUE</ntsc>
										</rate>
										<alphatype>straight</alphatype>
										<file id="file-187"/>
									</clipitem>
								</track>
							</video>
						</media>
						<logginginfo>
							<description></description>
							<scene></scene>
							<shottake></shottake>
							<lognote></lognote>
							<good></good>
							<originalvideofilename></originalvideofilename>
							<originalaudiofilename></originalaudiofilename>
						</logginginfo>
						<colorinfo>
							<lut></lut>
							<lut1></lut1>
							<asc_sop></asc_sop>
							<asc_sat></asc_sat>
							<lut2></lut2>
						</colorinfo>
						<labels>
							<label2>Cerulean</label2>
						</labels>
					</clip>
					<clip id="masterclip-201" explodedTracks="true">
						<uuid>66328e9b-6f15-43a6-8a9c-433ecf8bb42a</uuid>
						<masterclipid>masterclip-201</masterclipid>
						<ismasterclip>TRUE</ismasterclip>
						<duration>5694</duration>
						<rate>
							<timebase>30</timebase>
							<ntsc>TRUE</ntsc>
						</rate>
						<out>2410</out>
						<name>Ireland Pin Copy 01</name>
						<media>
							<video>
								<track>
									<clipitem id="clipitem-614">
										<masterclipid>masterclip-201</masterclipid>
										<name>Ireland Pin Copy 01</name>
										<rate>
											<timebase>30</timebase>
											<ntsc>TRUE</ntsc>
										</rate>
										<alphatype>straight</alphatype>
										<file id="file-188"/>
									</clipitem>
								</track>
							</video>
						</media>
						<logginginfo>
							<description></description>
							<scene></scene>
							<shottake></shottake>
							<lognote></lognote>
							<good></good>
							<originalvideofilename></originalvideofilename>
							<originalaudiofilename></originalaudiofilename>
						</logginginfo>
						<colorinfo>
							<lut></lut>
							<lut1></lut1>
							<asc_sop></asc_sop>
							<asc_sat></asc_sat>
							<lut2></lut2>
						</colorinfo>
						<labels>
							<label2>Cerulean</label2>
						</labels>
					</clip>
					<clip id="masterclip-304" explodedTracks="true">
						<uuid>d8848372-5dee-4345-9cff-1665cad8c91b</uuid>
						<masterclipid>masterclip-304</masterclipid>
						<ismasterclip>TRUE</ismasterclip>
						<duration>5694</duration>
						<rate>
							<timebase>30</timebase>
							<ntsc>TRUE</ntsc>
						</rate>
						<name>Lagos, Portugal</name>
						<media>
							<video>
								<track>
									<clipitem id="clipitem-615">
										<masterclipid>masterclip-304</masterclipid>
										<name>Lagos, Portugal</name>
										<rate>
											<timebase>30</timebase>
											<ntsc>TRUE</ntsc>
										</rate>
										<alphatype>straight</alphatype>
										<file id="file-278"/>
									</clipitem>
								</track>
							</video>
						</media>
						<logginginfo>
							<description></description>
							<scene></scene>
							<shottake></shottake>
							<lognote></lognote>
							<good></good>
							<originalvideofilename></originalvideofilename>
							<originalaudiofilename></originalaudiofilename>
						</logginginfo>
						<colorinfo>
							<lut></lut>
							<lut1></lut1>
							<asc_sop></asc_sop>
							<asc_sat></asc_sat>
							<lut2></lut2>
						</colorinfo>
						<labels>
							<label2>Cerulean</label2>
						</labels>
					</clip>
					<clip id="masterclip-232" explodedTracks="true">
						<uuid>f9638454-e5e8-431b-8c28-d21d43d83889</uuid>
						<masterclipid>masterclip-232</masterclipid>
						<ismasterclip>TRUE</ismasterclip>
						<duration>5694</duration>
						<rate>
							<timebase>30</timebase>
							<ntsc>TRUE</ntsc>
						</rate>
						<name>LOS ANGELES, CA</name>
						<media>
							<video>
								<track>
									<clipitem id="clipitem-616">
										<masterclipid>masterclip-232</masterclipid>
										<name>LOS ANGELES, CA</name>
										<rate>
											<timebase>30</timebase>
											<ntsc>TRUE</ntsc>
										</rate>
										<alphatype>straight</alphatype>
										<file id="file-215"/>
									</clipitem>
								</track>
							</video>
						</media>
						<logginginfo>
							<description></description>
							<scene></scene>
							<shottake></shottake>
							<lognote></lognote>
							<good></good>
							<originalvideofilename></originalvideofilename>
							<originalaudiofilename></originalaudiofilename>
						</logginginfo>
						<colorinfo>
							<lut></lut>
							<lut1></lut1>
							<asc_sop></asc_sop>
							<asc_sat></asc_sat>
							<lut2></lut2>
						</colorinfo>
						<labels>
							<label2>Cerulean</label2>
						</labels>
					</clip>
					<clip id="masterclip-266" explodedTracks="true">
						<uuid>fa1200fa-cec0-4c55-a10d-4e514c28d2b5</uuid>
						<masterclipid>masterclip-266</masterclipid>
						<ismasterclip>TRUE</ismasterclip>
						<duration>5694</duration>
						<rate>
							<timebase>30</timebase>
							<ntsc>TRUE</ntsc>
						</rate>
						<out>5068</out>
						<name>Toronto, ON</name>
						<media>
							<video>
								<track>
									<clipitem id="clipitem-617">
										<masterclipid>masterclip-266</masterclipid>
										<name>Toronto, ON</name>
										<rate>
											<timebase>30</timebase>
											<ntsc>TRUE</ntsc>
										</rate>
										<alphatype>straight</alphatype>
										<file id="file-243"/>
									</clipitem>
								</track>
							</video>
						</media>
						<logginginfo>
							<description></description>
							<scene></scene>
							<shottake></shottake>
							<lognote></lognote>
							<good></good>
							<originalvideofilename></originalvideofilename>
							<originalaudiofilename></originalaudiofilename>
						</logginginfo>
						<colorinfo>
							<lut></lut>
							<lut1></lut1>
							<asc_sop></asc_sop>
							<asc_sat></asc_sat>
							<lut2></lut2>
						</colorinfo>
						<labels>
							<label2>Cerulean</label2>
						</labels>
					</clip>
					<clip id="masterclip-323" explodedTracks="true">
						<uuid>9696896c-5cc1-4069-8e9f-5efab063769f</uuid>
						<masterclipid>masterclip-323</masterclipid>
						<ismasterclip>TRUE</ismasterclip>
						<duration>5694</duration>
						<rate>
							<timebase>30</timebase>
							<ntsc>TRUE</ntsc>
						</rate>
						<name>Vinicunca</name>
						<media>
							<video>
								<track>
									<clipitem id="clipitem-618">
										<masterclipid>masterclip-323</masterclipid>
										<name>Vinicunca</name>
										<rate>
											<timebase>30</timebase>
											<ntsc>TRUE</ntsc>
										</rate>
										<alphatype>straight</alphatype>
										<file id="file-296"/>
									</clipitem>
								</track>
							</video>
						</media>
						<logginginfo>
							<description></description>
							<scene></scene>
							<shottake></shottake>
							<lognote></lognote>
							<good></good>
							<originalvideofilename></originalvideofilename>
							<originalaudiofilename></originalaudiofilename>
						</logginginfo>
						<colorinfo>
							<lut></lut>
							<lut1></lut1>
							<asc_sop></asc_sop>
							<asc_sat></asc_sat>
							<lut2></lut2>
						</colorinfo>
						<labels>
							<label2>Cerulean</label2>
						</labels>
					</clip>
					<clip id="masterclip-250" explodedTracks="true">
						<uuid>fdc8e009-92f7-4c95-b326-af9164d8091d</uuid>
						<masterclipid>masterclip-250</masterclipid>
						<ismasterclip>TRUE</ismasterclip>
						<duration>5694</duration>
						<rate>
							<timebase>30</timebase>
							<ntsc>TRUE</ntsc>
						</rate>
						<name>Zeeland</name>
						<media>
							<video>
								<track>
									<clipitem id="clipitem-619">
										<masterclipid>masterclip-250</masterclipid>
										<name>Zeeland</name>
										<rate>
											<timebase>30</timebase>
											<ntsc>TRUE</ntsc>
										</rate>
										<alphatype>straight</alphatype>
										<file id="file-229"/>
									</clipitem>
								</track>
							</video>
						</media>
						<logginginfo>
							<description></description>
							<scene></scene>
							<shottake></shottake>
							<lognote></lognote>
							<good></good>
							<originalvideofilename></originalvideofilename>
							<originalaudiofilename></originalaudiofilename>
						</logginginfo>
						<colorinfo>
							<lut></lut>
							<lut1></lut1>
							<asc_sop></asc_sop>
							<asc_sat></asc_sat>
							<lut2></lut2>
						</colorinfo>
						<labels>
							<label2>Cerulean</label2>
						</labels>
					</clip>
				</children>
			</bin>
			<bin>
				<name>6_Transitions</name>
				<labels>
					<label2>Mango</label2>
				</labels>
				<children>
					<bin>
						<name>25fps Nest</name>
						<labels>
							<label2>Mango</label2>
						</labels>
						<children>
							<sequence id="sequence-41" TL.SQAudioVisibleBase="0" TL.SQVideoVisibleBase="0" TL.SQVisibleBaseTime="0" TL.SQAVDividerPosition="0.5" TL.SQHideShyTracks="0" TL.SQHeaderWidth="236" Monitor.ProgramZoomOut="2072770560000" Monitor.ProgramZoomIn="0" TL.SQTimePerPixel="0.033919494833866706" MZ.EditLine="1737469440000" MZ.Sequence.PreviewFrameSizeHeight="1080" MZ.Sequence.PreviewFrameSizeWidth="1920" MZ.Sequence.AudioTimeDisplayFormat="200" MZ.Sequence.PreviewRenderingClassID="1297106761" MZ.Sequence.PreviewRenderingPresetCodec="1297107278" MZ.Sequence.PreviewRenderingPresetPath="EncoderPresets/SequencePreview/795454d9-d3c2-429d-9474-923ab13b7018/I-Frame Only MPEG.epr" MZ.Sequence.PreviewUseMaxRenderQuality="false" MZ.Sequence.PreviewUseMaxBitDepth="false" MZ.Sequence.EditingModeGUID="795454d9-d3c2-429d-9474-923ab13b7018" MZ.Sequence.VideoTimeDisplayFormat="101" MZ.WorkOutPoint="15239249625600" MZ.WorkInPoint="0" explodedTracks="true">
								<uuid>a5b99cb9-eb3f-45c1-94a0-a4d76f419bfc</uuid>
								<duration>204</duration>
								<rate>
									<timebase>25</timebase>
									<ntsc>FALSE</ntsc>
								</rate>
								<name>Trans H</name>
								<media>
									<video>
										<format>
											<samplecharacteristics>
												<rate>
													<timebase>25</timebase>
													<ntsc>FALSE</ntsc>
												</rate>
												<codec>
													<name>Apple ProRes 422</name>
													<appspecificdata>
														<appname>Final Cut Pro</appname>
														<appmanufacturer>Apple Inc.</appmanufacturer>
														<appversion>7.0</appversion>
														<data>
															<qtcodec>
																<codecname>Apple ProRes 422</codecname>
																<codectypename>Apple ProRes 422</codectypename>
																<codectypecode>apcn</codectypecode>
																<codecvendorcode>appl</codecvendorcode>
																<spatialquality>1024</spatialquality>
																<temporalquality>0</temporalquality>
																<keyframerate>0</keyframerate>
																<datarate>0</datarate>
															</qtcodec>
														</data>
													</appspecificdata>
												</codec>
												<width>1920</width>
												<height>1080</height>
												<anamorphic>FALSE</anamorphic>
												<pixelaspectratio>square</pixelaspectratio>
												<fielddominance>none</fielddominance>
												<colordepth>24</colordepth>
											</samplecharacteristics>
										</format>
										<track TL.SQTrackShy="0" TL.SQTrackExpandedHeight="25" TL.SQTrackExpanded="0" MZ.TrackTargeted="1">
											<clipitem id="clipitem-620">
												<masterclipid>masterclip-340</masterclipid>
												<name>ATM_DRONE_TRANS_H.mov</name>
												<enabled>TRUE</enabled>
												<duration>245</duration>
												<rate>
													<timebase>25</timebase>
													<ntsc>FALSE</ntsc>
												</rate>
												<start>8</start>
												<end>194</end>
												<in>21</in>
												<out>207</out>
												<pproTicksIn>213373440000</pproTicksIn>
												<pproTicksOut>2103252480000</pproTicksOut>
												<alphatype>straight</alphatype>
												<pixelaspectratio>square</pixelaspectratio>
												<anamorphic>FALSE</anamorphic>
												<file id="file-312">
													<name>ATM_DRONE_TRANS_H.mov</name>
													<pathurl>file://localhost/Volumes/T7/DRONE_08.18.2023/4_Project%20Files/Drone%202023%20Master%20Assets/02_Transitions/DRONE%20transitions%20(30fps)/ATM_DRONE_TRANS_H.mov</pathurl>
													<rate>
														<timebase>30</timebase>
														<ntsc>TRUE</ntsc>
													</rate>
													<duration>245</duration>
													<timecode>
														<rate>
															<timebase>30</timebase>
															<ntsc>TRUE</ntsc>
														</rate>
														<string>00;00;33;00</string>
														<frame>990</frame>
														<displayformat>DF</displayformat>
													</timecode>
													<media>
														<video>
															<samplecharacteristics>
																<rate>
																	<timebase>30</timebase>
																	<ntsc>TRUE</ntsc>
																</rate>
																<width>1920</width>
																<height>1080</height>
																<anamorphic>FALSE</anamorphic>
																<pixelaspectratio>square</pixelaspectratio>
																<fielddominance>none</fielddominance>
															</samplecharacteristics>
														</video>
														<audio>
															<samplecharacteristics>
																<depth>16</depth>
																<samplerate>48000</samplerate>
															</samplecharacteristics>
															<channelcount>2</channelcount>
														</audio>
													</media>
												</file>
												<logginginfo>
													<description></description>
													<scene></scene>
													<shottake></shottake>
													<lognote></lognote>
													<good></good>
													<originalvideofilename></originalvideofilename>
													<originalaudiofilename></originalaudiofilename>
												</logginginfo>
												<colorinfo>
													<lut></lut>
													<lut1></lut1>
													<asc_sop></asc_sop>
													<asc_sat></asc_sat>
													<lut2></lut2>
												</colorinfo>
												<labels>
													<label2>Iris</label2>
												</labels>
											</clipitem>
											<enabled>TRUE</enabled>
											<locked>FALSE</locked>
										</track>
										<track TL.SQTrackShy="0" TL.SQTrackExpandedHeight="25" TL.SQTrackExpanded="0" MZ.TrackTargeted="0">
											<clipitem id="clipitem-621">
												<masterclipid>masterclip-157</masterclipid>
												<name>02 Zoom In - Quick / Transform Out</name>
												<enabled>TRUE</enabled>
												<duration>1079999</duration>
												<rate>
													<timebase>25</timebase>
													<ntsc>FALSE</ntsc>
												</rate>
												<start>0</start>
												<end>8</end>
												<in>0</in>
												<out>8</out>
												<pproTicksIn>0</pproTicksIn>
												<pproTicksOut>81285120000</pproTicksOut>
												<sequence id="sequence-7"/>
													<marker>
														<comment></comment>
														<name></name>
														<in>17</in>
														<out>-1</out>
													</marker>
												<labels>
													<label2>Iris</label2>
												</labels>
											</clipitem>
											<clipitem id="clipitem-622">
												<masterclipid>masterclip-159</masterclipid>
												<name>02 Zoom In - Quick / Transform In</name>
												<enabled>TRUE</enabled>
												<duration>1079999</duration>
												<rate>
													<timebase>25</timebase>
													<ntsc>FALSE</ntsc>
												</rate>
												<start>8</start>
												<end>14</end>
												<in>0</in>
												<out>7</out>
												<pproTicksIn>0</pproTicksIn>
												<pproTicksOut>71124480000</pproTicksOut>
												<sequence id="sequence-8"/>
												<labels>
													<label2>Iris</label2>
												</labels>
											</clipitem>
											<clipitem id="clipitem-623">
												<masterclipid>masterclip-157</masterclipid>
												<name>03 Zoom Out - Quick / Transform Out</name>
												<enabled>TRUE</enabled>
												<duration>1079999</duration>
												<rate>
													<timebase>25</timebase>
													<ntsc>FALSE</ntsc>
												</rate>
												<start>187</start>
												<end>194</end>
												<in>0</in>
												<out>8</out>
												<pproTicksIn>0</pproTicksIn>
												<pproTicksOut>81285120000</pproTicksOut>
												<sequence id="sequence-7"/>
													<marker>
														<comment></comment>
														<name></name>
														<in>17</in>
														<out>-1</out>
													</marker>
												<labels>
													<label2>Iris</label2>
												</labels>
											</clipitem>
											<clipitem id="clipitem-624">
												<masterclipid>masterclip-159</masterclipid>
												<name>03 Zoom Out - Quick / Transform In</name>
												<enabled>TRUE</enabled>
												<duration>1079999</duration>
												<rate>
													<timebase>25</timebase>
													<ntsc>FALSE</ntsc>
												</rate>
												<start>194</start>
												<end>202</end>
												<in>0</in>
												<out>8</out>
												<pproTicksIn>0</pproTicksIn>
												<pproTicksOut>81285120000</pproTicksOut>
												<sequence id="sequence-8"/>
												<filter>
													<effect>
														<name>Basic Motion</name>
														<effectid>basic</effectid>
														<effectcategory>motion</effectcategory>
														<effecttype>motion</effecttype>
														<mediatype>video</mediatype>
														<pproBypass>false</pproBypass>
														<parameter authoringApp="PremierePro">
															<parameterid>scale</parameterid>
															<name>Scale</name>
															<valuemin>0</valuemin>
															<valuemax>1000</valuemax>
															<value>100</value>
														</parameter>
														<parameter authoringApp="PremierePro">
															<parameterid>rotation</parameterid>
															<name>Rotation</name>
															<valuemin>-8640</valuemin>
															<valuemax>8640</valuemax>
															<value>0</value>
														</parameter>
														<parameter authoringApp="PremierePro">
															<parameterid>center</parameterid>
															<name>Center</name>
															<value>
																<horiz>-0.5</horiz>
																<vert>-0.499394</vert>
															</value>
														</parameter>
														<parameter authoringApp="PremierePro">
															<parameterid>centerOffset</parameterid>
															<name>Anchor Point</name>
															<value>
																<horiz>0</horiz>
																<vert>-0.00060606</vert>
															</value>
														</parameter>
														<parameter authoringApp="PremierePro">
															<parameterid>antiflicker</parameterid>
															<name>Anti-flicker Filter</name>
															<valuemin>0.0</valuemin>
															<valuemax>1.0</valuemax>
															<value>0</value>
														</parameter>
													</effect>
												</filter>
												<labels>
													<label2>Iris</label2>
												</labels>
											</clipitem>
											<enabled>TRUE</enabled>
											<locked>FALSE</locked>
										</track>
										<track TL.SQTrackShy="0" TL.SQTrackExpandedHeight="25" TL.SQTrackExpanded="0" MZ.TrackTargeted="0">
											<enabled>TRUE</enabled>
											<locked>FALSE</locked>
										</track>
									</video>
									<audio>
										<numOutputChannels>2</numOutputChannels>
										<format>
											<samplecharacteristics>
												<depth>16</depth>
												<samplerate>32000</samplerate>
											</samplecharacteristics>
										</format>
										<outputs>
											<group>
												<index>1</index>
												<numchannels>1</numchannels>
												<downmix>0</downmix>
												<channel>
													<index>1</index>
												</channel>
											</group>
											<group>
												<index>2</index>
												<numchannels>1</numchannels>
												<downmix>0</downmix>
												<channel>
													<index>2</index>
												</channel>
											</group>
										</outputs>
										<track TL.SQTrackAudioKeyframeStyle="0" TL.SQTrackShy="0" TL.SQTrackExpandedHeight="25" TL.SQTrackExpanded="0" MZ.TrackTargeted="1" PannerCurrentValue="0.5" PannerIsInverted="true" PannerStartKeyframe="-91445760000000000,0.5,0,0,0,0,0,0" PannerName="Balance" currentExplodedTrackIndex="0" totalExplodedTrackCount="2" premiereTrackType="Stereo">
											<clipitem id="clipitem-625" premiereChannelType="stereo">
												<masterclipid>masterclip-205</masterclipid>
												<name>ATM_DRONE_TRANS_H.mov</name>
												<enabled>TRUE</enabled>
												<duration>204</duration>
												<rate>
													<timebase>25</timebase>
													<ntsc>FALSE</ntsc>
												</rate>
												<start>0</start>
												<end>204</end>
												<in>0</in>
												<out>204</out>
												<pproTicksIn>0</pproTicksIn>
												<pproTicksOut>2072770560000</pproTicksOut>
												<file id="file-190"/>
												<sourcetrack>
													<mediatype>audio</mediatype>
													<trackindex>1</trackindex>
												</sourcetrack>
												<filter>
													<effect>
														<name>Gain</name>
														<effectid>{61756678, 4761696e, 4b657947}</effectid>
														<effecttype>filter</effecttype>
														<mediatype>audio</mediatype>
														<parameter authoringApp="PremierePro">
															<parameterid>Gain(dB)</parameterid>
															<name>Gain(dB)</name>
															<valuemin>-96</valuemin>
															<valuemax>96</valuemax>
															<value>-9</value>
														</parameter>
													</effect>
												</filter>
												<link>
													<linkclipref>clipitem-625</linkclipref>
													<mediatype>audio</mediatype>
													<trackindex>1</trackindex>
													<clipindex>1</clipindex>
													<groupindex>1</groupindex>
												</link>
												<link>
													<linkclipref>clipitem-626</linkclipref>
													<mediatype>audio</mediatype>
													<trackindex>2</trackindex>
													<clipindex>1</clipindex>
													<groupindex>1</groupindex>
												</link>
												<logginginfo>
													<description></description>
													<scene></scene>
													<shottake></shottake>
													<lognote></lognote>
													<good></good>
													<originalvideofilename></originalvideofilename>
													<originalaudiofilename></originalaudiofilename>
												</logginginfo>
												<colorinfo>
													<lut></lut>
													<lut1></lut1>
													<asc_sop></asc_sop>
													<asc_sat></asc_sat>
													<lut2></lut2>
												</colorinfo>
												<labels>
													<label2>Iris</label2>
												</labels>
											</clipitem>
											<enabled>TRUE</enabled>
											<locked>FALSE</locked>
											<outputchannelindex>1</outputchannelindex>
										</track>
										<track TL.SQTrackAudioKeyframeStyle="0" TL.SQTrackShy="0" TL.SQTrackExpandedHeight="25" TL.SQTrackExpanded="0" MZ.TrackTargeted="1" PannerCurrentValue="0.5" PannerIsInverted="true" PannerStartKeyframe="-91445760000000000,0.5,0,0,0,0,0,0" PannerName="Balance" currentExplodedTrackIndex="1" totalExplodedTrackCount="2" premiereTrackType="Stereo">
											<clipitem id="clipitem-626" premiereChannelType="stereo">
												<masterclipid>masterclip-205</masterclipid>
												<name>ATM_DRONE_TRANS_H.mov</name>
												<enabled>TRUE</enabled>
												<duration>204</duration>
												<rate>
													<timebase>25</timebase>
													<ntsc>FALSE</ntsc>
												</rate>
												<start>0</start>
												<end>204</end>
												<in>0</in>
												<out>204</out>
												<pproTicksIn>0</pproTicksIn>
												<pproTicksOut>2072770560000</pproTicksOut>
												<file id="file-190"/>
												<sourcetrack>
													<mediatype>audio</mediatype>
													<trackindex>2</trackindex>
												</sourcetrack>
												<filter>
													<effect>
														<name>Gain</name>
														<effectid>{61756678, 4761696e, 4b657947}</effectid>
														<effecttype>filter</effecttype>
														<mediatype>audio</mediatype>
														<parameter authoringApp="PremierePro">
															<parameterid>Gain(dB)</parameterid>
															<name>Gain(dB)</name>
															<valuemin>-96</valuemin>
															<valuemax>96</valuemax>
															<value>-9</value>
														</parameter>
													</effect>
												</filter>
												<link>
													<linkclipref>clipitem-625</linkclipref>
													<mediatype>audio</mediatype>
													<trackindex>1</trackindex>
													<clipindex>1</clipindex>
													<groupindex>1</groupindex>
												</link>
												<link>
													<linkclipref>clipitem-626</linkclipref>
													<mediatype>audio</mediatype>
													<trackindex>2</trackindex>
													<clipindex>1</clipindex>
													<groupindex>1</groupindex>
												</link>
												<logginginfo>
													<description></description>
													<scene></scene>
													<shottake></shottake>
													<lognote></lognote>
													<good></good>
													<originalvideofilename></originalvideofilename>
													<originalaudiofilename></originalaudiofilename>
												</logginginfo>
												<colorinfo>
													<lut></lut>
													<lut1></lut1>
													<asc_sop></asc_sop>
													<asc_sat></asc_sat>
													<lut2></lut2>
												</colorinfo>
												<labels>
													<label2>Iris</label2>
												</labels>
											</clipitem>
											<enabled>TRUE</enabled>
											<locked>FALSE</locked>
											<outputchannelindex>2</outputchannelindex>
										</track>
										<track TL.SQTrackAudioKeyframeStyle="0" TL.SQTrackShy="0" TL.SQTrackExpandedHeight="25" TL.SQTrackExpanded="0" MZ.TrackTargeted="1" PannerCurrentValue="0.5" PannerIsInverted="true" PannerStartKeyframe="-91445760000000000,0.5,0,0,0,0,0,0" PannerName="Balance" currentExplodedTrackIndex="0" totalExplodedTrackCount="2" premiereTrackType="Stereo">
											<enabled>TRUE</enabled>
											<locked>FALSE</locked>
											<outputchannelindex>1</outputchannelindex>
										</track>
										<track TL.SQTrackAudioKeyframeStyle="0" TL.SQTrackShy="0" TL.SQTrackExpandedHeight="25" TL.SQTrackExpanded="0" MZ.TrackTargeted="1" PannerCurrentValue="0.5" PannerIsInverted="true" PannerStartKeyframe="-91445760000000000,0.5,0,0,0,0,0,0" PannerName="Balance" currentExplodedTrackIndex="1" totalExplodedTrackCount="2" premiereTrackType="Stereo">
											<enabled>TRUE</enabled>
											<locked>FALSE</locked>
											<outputchannelindex>2</outputchannelindex>
										</track>
										<track TL.SQTrackAudioKeyframeStyle="0" TL.SQTrackShy="0" TL.SQTrackExpandedHeight="25" TL.SQTrackExpanded="0" MZ.TrackTargeted="1" PannerCurrentValue="0.5" PannerIsInverted="true" PannerStartKeyframe="-91445760000000000,0.5,0,0,0,0,0,0" PannerName="Balance" currentExplodedTrackIndex="0" totalExplodedTrackCount="2" premiereTrackType="Stereo">
											<enabled>TRUE</enabled>
											<locked>FALSE</locked>
											<outputchannelindex>1</outputchannelindex>
										</track>
										<track TL.SQTrackAudioKeyframeStyle="0" TL.SQTrackShy="0" TL.SQTrackExpandedHeight="25" TL.SQTrackExpanded="0" MZ.TrackTargeted="1" PannerCurrentValue="0.5" PannerIsInverted="true" PannerStartKeyframe="-91445760000000000,0.5,0,0,0,0,0,0" PannerName="Balance" currentExplodedTrackIndex="1" totalExplodedTrackCount="2" premiereTrackType="Stereo">
											<enabled>TRUE</enabled>
											<locked>FALSE</locked>
											<outputchannelindex>2</outputchannelindex>
										</track>
									</audio>
								</media>
								<timecode>
									<rate>
										<timebase>25</timebase>
										<ntsc>FALSE</ntsc>
									</rate>
									<string>00:00:00:00</string>
									<frame>0</frame>
									<displayformat>NDF</displayformat>
								</timecode>
									<marker>
										<comment></comment>
										<name></name>
										<in>195</in>
										<out>-1</out>
										<pproColor>4281828977</pproColor>
									</marker>
									<marker>
										<comment></comment>
										<name></name>
										<in>11</in>
										<out>-1</out>
										<pproColor>4281828977</pproColor>
									</marker>
								<labels>
									<label2>Tan</label2>
								</labels>
								<logginginfo>
									<description></description>
									<scene></scene>
									<shottake></shottake>
									<lognote></lognote>
									<good></good>
									<originalvideofilename></originalvideofilename>
									<originalaudiofilename></originalaudiofilename>
								</logginginfo>
							</sequence>
							<sequence id="sequence-42" TL.SQAudioVisibleBase="0" TL.SQVideoVisibleBase="0" TL.SQVisibleBaseTime="1757790720000" TL.SQAVDividerPosition="0.5" TL.SQHideShyTracks="0" TL.SQHeaderWidth="236" Monitor.ProgramZoomOut="2072770560000" Monitor.ProgramZoomIn="0" TL.SQTimePerPixel="0.0018893764912559878" MZ.EditLine="1940682240000" MZ.Sequence.PreviewFrameSizeHeight="1080" MZ.Sequence.PreviewFrameSizeWidth="1920" MZ.Sequence.AudioTimeDisplayFormat="200" MZ.Sequence.PreviewRenderingClassID="1297106761" MZ.Sequence.PreviewRenderingPresetCodec="1297107278" MZ.Sequence.PreviewRenderingPresetPath="EncoderPresets/SequencePreview/795454d9-d3c2-429d-9474-923ab13b7018/I-Frame Only MPEG.epr" MZ.Sequence.PreviewUseMaxRenderQuality="false" MZ.Sequence.PreviewUseMaxBitDepth="false" MZ.Sequence.EditingModeGUID="795454d9-d3c2-429d-9474-923ab13b7018" MZ.Sequence.VideoTimeDisplayFormat="101" MZ.WorkOutPoint="15239249625600" MZ.WorkInPoint="0" explodedTracks="true">
								<uuid>6fe4c895-e6eb-45b2-9cae-b6f8a99e4738</uuid>
								<duration>204</duration>
								<rate>
									<timebase>25</timebase>
									<ntsc>FALSE</ntsc>
								</rate>
								<name>Trans G</name>
								<media>
									<video>
										<format>
											<samplecharacteristics>
												<rate>
													<timebase>25</timebase>
													<ntsc>FALSE</ntsc>
												</rate>
												<codec>
													<name>Apple ProRes 422</name>
													<appspecificdata>
														<appname>Final Cut Pro</appname>
														<appmanufacturer>Apple Inc.</appmanufacturer>
														<appversion>7.0</appversion>
														<data>
															<qtcodec>
																<codecname>Apple ProRes 422</codecname>
																<codectypename>Apple ProRes 422</codectypename>
																<codectypecode>apcn</codectypecode>
																<codecvendorcode>appl</codecvendorcode>
																<spatialquality>1024</spatialquality>
																<temporalquality>0</temporalquality>
																<keyframerate>0</keyframerate>
																<datarate>0</datarate>
															</qtcodec>
														</data>
													</appspecificdata>
												</codec>
												<width>1920</width>
												<height>1080</height>
												<anamorphic>FALSE</anamorphic>
												<pixelaspectratio>square</pixelaspectratio>
												<fielddominance>none</fielddominance>
												<colordepth>24</colordepth>
											</samplecharacteristics>
										</format>
										<track TL.SQTrackShy="0" TL.SQTrackExpandedHeight="25" TL.SQTrackExpanded="0" MZ.TrackTargeted="1">
											<clipitem id="clipitem-627">
												<masterclipid>masterclip-341</masterclipid>
												<name>ATM_DRONE_TRANS_G.mov</name>
												<enabled>TRUE</enabled>
												<duration>245</duration>
												<rate>
													<timebase>25</timebase>
													<ntsc>FALSE</ntsc>
												</rate>
												<start>8</start>
												<end>191</end>
												<in>26</in>
												<out>209</out>
												<pproTicksIn>264176640000</pproTicksIn>
												<pproTicksOut>2123573760000</pproTicksOut>
												<alphatype>straight</alphatype>
												<pixelaspectratio>square</pixelaspectratio>
												<anamorphic>FALSE</anamorphic>
												<file id="file-313">
													<name>ATM_DRONE_TRANS_G.mov</name>
													<pathurl>file://localhost/Volumes/T7/DRONE_08.18.2023/4_Project%20Files/Drone%202023%20Master%20Assets/02_Transitions/DRONE%20transitions%20(30fps)/ATM_DRONE_TRANS_G.mov</pathurl>
													<rate>
														<timebase>30</timebase>
														<ntsc>TRUE</ntsc>
													</rate>
													<duration>245</duration>
													<timecode>
														<rate>
															<timebase>30</timebase>
															<ntsc>TRUE</ntsc>
														</rate>
														<string>00;00;21;20</string>
														<frame>650</frame>
														<displayformat>DF</displayformat>
													</timecode>
													<media>
														<video>
															<samplecharacteristics>
																<rate>
																	<timebase>30</timebase>
																	<ntsc>TRUE</ntsc>
																</rate>
																<width>1920</width>
																<height>1080</height>
																<anamorphic>FALSE</anamorphic>
																<pixelaspectratio>square</pixelaspectratio>
																<fielddominance>none</fielddominance>
															</samplecharacteristics>
														</video>
														<audio>
															<samplecharacteristics>
																<depth>16</depth>
																<samplerate>48000</samplerate>
															</samplecharacteristics>
															<channelcount>2</channelcount>
														</audio>
													</media>
												</file>
												<logginginfo>
													<description></description>
													<scene></scene>
													<shottake></shottake>
													<lognote></lognote>
													<good></good>
													<originalvideofilename></originalvideofilename>
													<originalaudiofilename></originalaudiofilename>
												</logginginfo>
												<colorinfo>
													<lut></lut>
													<lut1></lut1>
													<asc_sop></asc_sop>
													<asc_sat></asc_sat>
													<lut2></lut2>
												</colorinfo>
												<labels>
													<label2>Iris</label2>
												</labels>
											</clipitem>
											<enabled>TRUE</enabled>
											<locked>FALSE</locked>
										</track>
										<track TL.SQTrackShy="0" TL.SQTrackExpandedHeight="25" TL.SQTrackExpanded="0" MZ.TrackTargeted="0">
											<clipitem id="clipitem-628">
												<masterclipid>masterclip-157</masterclipid>
												<name>02 Zoom In - Quick / Transform Out</name>
												<enabled>TRUE</enabled>
												<duration>1079999</duration>
												<rate>
													<timebase>25</timebase>
													<ntsc>FALSE</ntsc>
												</rate>
												<start>0</start>
												<end>8</end>
												<in>0</in>
												<out>8</out>
												<pproTicksIn>0</pproTicksIn>
												<pproTicksOut>81285120000</pproTicksOut>
												<sequence id="sequence-7"/>
													<marker>
														<comment></comment>
														<name></name>
														<in>17</in>
														<out>-1</out>
													</marker>
												<labels>
													<label2>Iris</label2>
												</labels>
											</clipitem>
											<clipitem id="clipitem-629">
												<masterclipid>masterclip-159</masterclipid>
												<name>02 Zoom In - Quick / Transform In</name>
												<enabled>TRUE</enabled>
												<duration>1079999</duration>
												<rate>
													<timebase>25</timebase>
													<ntsc>FALSE</ntsc>
												</rate>
												<start>8</start>
												<end>14</end>
												<in>0</in>
												<out>7</out>
												<pproTicksIn>0</pproTicksIn>
												<pproTicksOut>71124480000</pproTicksOut>
												<sequence id="sequence-8"/>
												<labels>
													<label2>Iris</label2>
												</labels>
											</clipitem>
											<clipitem id="clipitem-630">
												<masterclipid>masterclip-157</masterclipid>
												<name>03 Zoom Out - Quick / Transform Out</name>
												<enabled>TRUE</enabled>
												<duration>1079999</duration>
												<rate>
													<timebase>25</timebase>
													<ntsc>FALSE</ntsc>
												</rate>
												<start>184</start>
												<end>191</end>
												<in>0</in>
												<out>8</out>
												<pproTicksIn>0</pproTicksIn>
												<pproTicksOut>81285120000</pproTicksOut>
												<sequence id="sequence-7"/>
													<marker>
														<comment></comment>
														<name></name>
														<in>17</in>
														<out>-1</out>
													</marker>
												<labels>
													<label2>Iris</label2>
												</labels>
											</clipitem>
											<clipitem id="clipitem-631">
												<masterclipid>masterclip-159</masterclipid>
												<name>03 Zoom Out - Quick / Transform In</name>
												<enabled>TRUE</enabled>
												<duration>1079999</duration>
												<rate>
													<timebase>25</timebase>
													<ntsc>FALSE</ntsc>
												</rate>
												<start>191</start>
												<end>199</end>
												<in>0</in>
												<out>8</out>
												<pproTicksIn>0</pproTicksIn>
												<pproTicksOut>81285120000</pproTicksOut>
												<sequence id="sequence-8"/>
												<filter>
													<effect>
														<name>Basic Motion</name>
														<effectid>basic</effectid>
														<effectcategory>motion</effectcategory>
														<effecttype>motion</effecttype>
														<mediatype>video</mediatype>
														<pproBypass>false</pproBypass>
														<parameter authoringApp="PremierePro">
															<parameterid>scale</parameterid>
															<name>Scale</name>
															<valuemin>0</valuemin>
															<valuemax>1000</valuemax>
															<value>100</value>
														</parameter>
														<parameter authoringApp="PremierePro">
															<parameterid>rotation</parameterid>
															<name>Rotation</name>
															<valuemin>-8640</valuemin>
															<valuemax>8640</valuemax>
															<value>0</value>
														</parameter>
														<parameter authoringApp="PremierePro">
															<parameterid>center</parameterid>
															<name>Center</name>
															<value>
																<horiz>-0.5</horiz>
																<vert>-0.499394</vert>
															</value>
														</parameter>
														<parameter authoringApp="PremierePro">
															<parameterid>centerOffset</parameterid>
															<name>Anchor Point</name>
															<value>
																<horiz>0</horiz>
																<vert>-0.00060606</vert>
															</value>
														</parameter>
														<parameter authoringApp="PremierePro">
															<parameterid>antiflicker</parameterid>
															<name>Anti-flicker Filter</name>
															<valuemin>0.0</valuemin>
															<valuemax>1.0</valuemax>
															<value>0</value>
														</parameter>
													</effect>
												</filter>
												<labels>
													<label2>Iris</label2>
												</labels>
											</clipitem>
											<enabled>TRUE</enabled>
											<locked>FALSE</locked>
										</track>
										<track TL.SQTrackShy="0" TL.SQTrackExpandedHeight="25" TL.SQTrackExpanded="0" MZ.TrackTargeted="0">
											<enabled>TRUE</enabled>
											<locked>FALSE</locked>
										</track>
									</video>
									<audio>
										<numOutputChannels>2</numOutputChannels>
										<format>
											<samplecharacteristics>
												<depth>16</depth>
												<samplerate>32000</samplerate>
											</samplecharacteristics>
										</format>
										<outputs>
											<group>
												<index>1</index>
												<numchannels>1</numchannels>
												<downmix>0</downmix>
												<channel>
													<index>1</index>
												</channel>
											</group>
											<group>
												<index>2</index>
												<numchannels>1</numchannels>
												<downmix>0</downmix>
												<channel>
													<index>2</index>
												</channel>
											</group>
										</outputs>
										<track TL.SQTrackAudioKeyframeStyle="0" TL.SQTrackShy="0" TL.SQTrackExpandedHeight="25" TL.SQTrackExpanded="0" MZ.TrackTargeted="1" PannerCurrentValue="0.5" PannerIsInverted="true" PannerStartKeyframe="-91445760000000000,0.5,0,0,0,0,0,0" PannerName="Balance" currentExplodedTrackIndex="0" totalExplodedTrackCount="2" premiereTrackType="Stereo">
											<clipitem id="clipitem-632" premiereChannelType="stereo">
												<masterclipid>masterclip-203</masterclipid>
												<name>ATM_DRONE_TRANS_G.mov</name>
												<enabled>TRUE</enabled>
												<duration>204</duration>
												<rate>
													<timebase>25</timebase>
													<ntsc>FALSE</ntsc>
												</rate>
												<start>0</start>
												<end>204</end>
												<in>0</in>
												<out>204</out>
												<pproTicksIn>0</pproTicksIn>
												<pproTicksOut>2072770560000</pproTicksOut>
												<file id="file-189"/>
												<sourcetrack>
													<mediatype>audio</mediatype>
													<trackindex>1</trackindex>
												</sourcetrack>
												<filter>
													<effect>
														<name>Gain</name>
														<effectid>{61756678, 4761696e, 4b657947}</effectid>
														<effecttype>filter</effecttype>
														<mediatype>audio</mediatype>
														<parameter authoringApp="PremierePro">
															<parameterid>Gain(dB)</parameterid>
															<name>Gain(dB)</name>
															<valuemin>-96</valuemin>
															<valuemax>96</valuemax>
															<value>-9</value>
														</parameter>
													</effect>
												</filter>
													<marker>
														<comment></comment>
														<name></name>
														<in>9</in>
														<out>-1</out>
													</marker>
													<marker>
														<comment></comment>
														<name></name>
														<in>8</in>
														<out>-1</out>
													</marker>
												<link>
													<linkclipref>clipitem-632</linkclipref>
													<mediatype>audio</mediatype>
													<trackindex>1</trackindex>
													<clipindex>1</clipindex>
													<groupindex>1</groupindex>
												</link>
												<link>
													<linkclipref>clipitem-633</linkclipref>
													<mediatype>audio</mediatype>
													<trackindex>2</trackindex>
													<clipindex>1</clipindex>
													<groupindex>1</groupindex>
												</link>
												<logginginfo>
													<description></description>
													<scene></scene>
													<shottake></shottake>
													<lognote></lognote>
													<good></good>
													<originalvideofilename></originalvideofilename>
													<originalaudiofilename></originalaudiofilename>
												</logginginfo>
												<colorinfo>
													<lut></lut>
													<lut1></lut1>
													<asc_sop></asc_sop>
													<asc_sat></asc_sat>
													<lut2></lut2>
												</colorinfo>
												<labels>
													<label2>Iris</label2>
												</labels>
											</clipitem>
											<enabled>TRUE</enabled>
											<locked>FALSE</locked>
											<outputchannelindex>1</outputchannelindex>
										</track>
										<track TL.SQTrackAudioKeyframeStyle="0" TL.SQTrackShy="0" TL.SQTrackExpandedHeight="25" TL.SQTrackExpanded="0" MZ.TrackTargeted="1" PannerCurrentValue="0.5" PannerIsInverted="true" PannerStartKeyframe="-91445760000000000,0.5,0,0,0,0,0,0" PannerName="Balance" currentExplodedTrackIndex="1" totalExplodedTrackCount="2" premiereTrackType="Stereo">
											<clipitem id="clipitem-633" premiereChannelType="stereo">
												<masterclipid>masterclip-203</masterclipid>
												<name>ATM_DRONE_TRANS_G.mov</name>
												<enabled>TRUE</enabled>
												<duration>204</duration>
												<rate>
													<timebase>25</timebase>
													<ntsc>FALSE</ntsc>
												</rate>
												<start>0</start>
												<end>204</end>
												<in>0</in>
												<out>204</out>
												<pproTicksIn>0</pproTicksIn>
												<pproTicksOut>2072770560000</pproTicksOut>
												<file id="file-189"/>
												<sourcetrack>
													<mediatype>audio</mediatype>
													<trackindex>2</trackindex>
												</sourcetrack>
												<filter>
													<effect>
														<name>Gain</name>
														<effectid>{61756678, 4761696e, 4b657947}</effectid>
														<effecttype>filter</effecttype>
														<mediatype>audio</mediatype>
														<parameter authoringApp="PremierePro">
															<parameterid>Gain(dB)</parameterid>
															<name>Gain(dB)</name>
															<valuemin>-96</valuemin>
															<valuemax>96</valuemax>
															<value>-9</value>
														</parameter>
													</effect>
												</filter>
													<marker>
														<comment></comment>
														<name></name>
														<in>9</in>
														<out>-1</out>
													</marker>
													<marker>
														<comment></comment>
														<name></name>
														<in>8</in>
														<out>-1</out>
													</marker>
												<link>
													<linkclipref>clipitem-632</linkclipref>
													<mediatype>audio</mediatype>
													<trackindex>1</trackindex>
													<clipindex>1</clipindex>
													<groupindex>1</groupindex>
												</link>
												<link>
													<linkclipref>clipitem-633</linkclipref>
													<mediatype>audio</mediatype>
													<trackindex>2</trackindex>
													<clipindex>1</clipindex>
													<groupindex>1</groupindex>
												</link>
												<logginginfo>
													<description></description>
													<scene></scene>
													<shottake></shottake>
													<lognote></lognote>
													<good></good>
													<originalvideofilename></originalvideofilename>
													<originalaudiofilename></originalaudiofilename>
												</logginginfo>
												<colorinfo>
													<lut></lut>
													<lut1></lut1>
													<asc_sop></asc_sop>
													<asc_sat></asc_sat>
													<lut2></lut2>
												</colorinfo>
												<labels>
													<label2>Iris</label2>
												</labels>
											</clipitem>
											<enabled>TRUE</enabled>
											<locked>FALSE</locked>
											<outputchannelindex>2</outputchannelindex>
										</track>
										<track TL.SQTrackAudioKeyframeStyle="0" TL.SQTrackShy="0" TL.SQTrackExpandedHeight="25" TL.SQTrackExpanded="0" MZ.TrackTargeted="1" PannerCurrentValue="0.5" PannerIsInverted="true" PannerStartKeyframe="-91445760000000000,0.5,0,0,0,0,0,0" PannerName="Balance" currentExplodedTrackIndex="0" totalExplodedTrackCount="2" premiereTrackType="Stereo">
											<enabled>TRUE</enabled>
											<locked>FALSE</locked>
											<outputchannelindex>1</outputchannelindex>
										</track>
										<track TL.SQTrackAudioKeyframeStyle="0" TL.SQTrackShy="0" TL.SQTrackExpandedHeight="25" TL.SQTrackExpanded="0" MZ.TrackTargeted="1" PannerCurrentValue="0.5" PannerIsInverted="true" PannerStartKeyframe="-91445760000000000,0.5,0,0,0,0,0,0" PannerName="Balance" currentExplodedTrackIndex="1" totalExplodedTrackCount="2" premiereTrackType="Stereo">
											<enabled>TRUE</enabled>
											<locked>FALSE</locked>
											<outputchannelindex>2</outputchannelindex>
										</track>
										<track TL.SQTrackAudioKeyframeStyle="0" TL.SQTrackShy="0" TL.SQTrackExpandedHeight="25" TL.SQTrackExpanded="0" MZ.TrackTargeted="1" PannerCurrentValue="0.5" PannerIsInverted="true" PannerStartKeyframe="-91445760000000000,0.5,0,0,0,0,0,0" PannerName="Balance" currentExplodedTrackIndex="0" totalExplodedTrackCount="2" premiereTrackType="Stereo">
											<enabled>TRUE</enabled>
											<locked>FALSE</locked>
											<outputchannelindex>1</outputchannelindex>
										</track>
										<track TL.SQTrackAudioKeyframeStyle="0" TL.SQTrackShy="0" TL.SQTrackExpandedHeight="25" TL.SQTrackExpanded="0" MZ.TrackTargeted="1" PannerCurrentValue="0.5" PannerIsInverted="true" PannerStartKeyframe="-91445760000000000,0.5,0,0,0,0,0,0" PannerName="Balance" currentExplodedTrackIndex="1" totalExplodedTrackCount="2" premiereTrackType="Stereo">
											<enabled>TRUE</enabled>
											<locked>FALSE</locked>
											<outputchannelindex>2</outputchannelindex>
										</track>
									</audio>
								</media>
								<timecode>
									<rate>
										<timebase>25</timebase>
										<ntsc>FALSE</ntsc>
									</rate>
									<string>00:00:00:00</string>
									<frame>0</frame>
									<displayformat>NDF</displayformat>
								</timecode>
									<marker>
										<comment></comment>
										<name></name>
										<in>8</in>
										<out>-1</out>
										<pproColor>4281828977</pproColor>
									</marker>
									<marker>
										<comment></comment>
										<name></name>
										<in>191</in>
										<out>-1</out>
										<pproColor>4281828977</pproColor>
									</marker>
								<labels>
									<label2>Tan</label2>
								</labels>
								<logginginfo>
									<description></description>
									<scene></scene>
									<shottake></shottake>
									<lognote></lognote>
									<good></good>
									<originalvideofilename></originalvideofilename>
									<originalaudiofilename></originalaudiofilename>
								</logginginfo>
							</sequence>
							<sequence id="sequence-43" TL.SQAudioVisibleBase="0" TL.SQVideoVisibleBase="0" TL.SQVisibleBaseTime="0" TL.SQAVDividerPosition="0.5" TL.SQHideShyTracks="0" TL.SQHeaderWidth="236" Monitor.ProgramZoomOut="2072770560000" Monitor.ProgramZoomIn="0" TL.SQTimePerPixel="0.0097166589789220315" MZ.EditLine="1625702400000" MZ.Sequence.PreviewFrameSizeHeight="1080" MZ.Sequence.PreviewFrameSizeWidth="1920" MZ.Sequence.AudioTimeDisplayFormat="200" MZ.Sequence.PreviewRenderingClassID="1297106761" MZ.Sequence.PreviewRenderingPresetCodec="1297107278" MZ.Sequence.PreviewRenderingPresetPath="EncoderPresets/SequencePreview/795454d9-d3c2-429d-9474-923ab13b7018/I-Frame Only MPEG.epr" MZ.Sequence.PreviewUseMaxRenderQuality="false" MZ.Sequence.PreviewUseMaxBitDepth="false" MZ.Sequence.EditingModeGUID="795454d9-d3c2-429d-9474-923ab13b7018" MZ.Sequence.VideoTimeDisplayFormat="101" MZ.WorkOutPoint="15239249625600" MZ.WorkInPoint="0" explodedTracks="true">
								<uuid>a3a6b55e-72db-48d4-a118-c4ec1e4cf1bd</uuid>
								<duration>204</duration>
								<rate>
									<timebase>25</timebase>
									<ntsc>FALSE</ntsc>
								</rate>
								<name>Trans F</name>
								<media>
									<video>
										<format>
											<samplecharacteristics>
												<rate>
													<timebase>25</timebase>
													<ntsc>FALSE</ntsc>
												</rate>
												<codec>
													<name>Apple ProRes 422</name>
													<appspecificdata>
														<appname>Final Cut Pro</appname>
														<appmanufacturer>Apple Inc.</appmanufacturer>
														<appversion>7.0</appversion>
														<data>
															<qtcodec>
																<codecname>Apple ProRes 422</codecname>
																<codectypename>Apple ProRes 422</codectypename>
																<codectypecode>apcn</codectypecode>
																<codecvendorcode>appl</codecvendorcode>
																<spatialquality>1024</spatialquality>
																<temporalquality>0</temporalquality>
																<keyframerate>0</keyframerate>
																<datarate>0</datarate>
															</qtcodec>
														</data>
													</appspecificdata>
												</codec>
												<width>1920</width>
												<height>1080</height>
												<anamorphic>FALSE</anamorphic>
												<pixelaspectratio>square</pixelaspectratio>
												<fielddominance>none</fielddominance>
												<colordepth>24</colordepth>
											</samplecharacteristics>
										</format>
										<track TL.SQTrackShy="0" TL.SQTrackExpandedHeight="25" TL.SQTrackExpanded="0" MZ.TrackTargeted="1">
											<clipitem id="clipitem-634">
												<masterclipid>masterclip-342</masterclipid>
												<name>ATM_DRONE_TRANS_F.mov</name>
												<enabled>TRUE</enabled>
												<duration>245</duration>
												<rate>
													<timebase>25</timebase>
													<ntsc>FALSE</ntsc>
												</rate>
												<start>8</start>
												<end>191</end>
												<in>29</in>
												<out>212</out>
												<pproTicksIn>294658560000</pproTicksIn>
												<pproTicksOut>2154055680000</pproTicksOut>
												<alphatype>straight</alphatype>
												<pixelaspectratio>square</pixelaspectratio>
												<anamorphic>FALSE</anamorphic>
												<file id="file-314">
													<name>ATM_DRONE_TRANS_F.mov</name>
													<pathurl>file://localhost/Volumes/T7/DRONE_08.18.2023/4_Project%20Files/Drone%202023%20Master%20Assets/02_Transitions/DRONE%20transitions%20(30fps)/ATM_DRONE_TRANS_F.mov</pathurl>
													<rate>
														<timebase>30</timebase>
														<ntsc>TRUE</ntsc>
													</rate>
													<duration>245</duration>
													<timecode>
														<rate>
															<timebase>30</timebase>
															<ntsc>TRUE</ntsc>
														</rate>
														<string>00;00;00;00</string>
														<frame>0</frame>
														<displayformat>DF</displayformat>
													</timecode>
													<media>
														<video>
															<samplecharacteristics>
																<rate>
																	<timebase>30</timebase>
																	<ntsc>TRUE</ntsc>
																</rate>
																<width>1920</width>
																<height>1080</height>
																<anamorphic>FALSE</anamorphic>
																<pixelaspectratio>square</pixelaspectratio>
																<fielddominance>none</fielddominance>
															</samplecharacteristics>
														</video>
														<audio>
															<samplecharacteristics>
																<depth>16</depth>
																<samplerate>48000</samplerate>
															</samplecharacteristics>
															<channelcount>2</channelcount>
														</audio>
													</media>
												</file>
												<logginginfo>
													<description></description>
													<scene></scene>
													<shottake></shottake>
													<lognote></lognote>
													<good></good>
													<originalvideofilename></originalvideofilename>
													<originalaudiofilename></originalaudiofilename>
												</logginginfo>
												<colorinfo>
													<lut></lut>
													<lut1></lut1>
													<asc_sop></asc_sop>
													<asc_sat></asc_sat>
													<lut2></lut2>
												</colorinfo>
												<labels>
													<label2>Iris</label2>
												</labels>
											</clipitem>
											<enabled>TRUE</enabled>
											<locked>FALSE</locked>
										</track>
										<track TL.SQTrackShy="0" TL.SQTrackExpandedHeight="25" TL.SQTrackExpanded="0" MZ.TrackTargeted="0">
											<clipitem id="clipitem-635">
												<masterclipid>masterclip-157</masterclipid>
												<name>02 Zoom In - Quick / Transform Out</name>
												<enabled>TRUE</enabled>
												<duration>1079999</duration>
												<rate>
													<timebase>25</timebase>
													<ntsc>FALSE</ntsc>
												</rate>
												<start>0</start>
												<end>8</end>
												<in>0</in>
												<out>8</out>
												<pproTicksIn>0</pproTicksIn>
												<pproTicksOut>81285120000</pproTicksOut>
												<sequence id="sequence-7"/>
													<marker>
														<comment></comment>
														<name></name>
														<in>17</in>
														<out>-1</out>
													</marker>
												<labels>
													<label2>Iris</label2>
												</labels>
											</clipitem>
											<clipitem id="clipitem-636">
												<masterclipid>masterclip-159</masterclipid>
												<name>02 Zoom In - Quick / Transform In</name>
												<enabled>TRUE</enabled>
												<duration>1079999</duration>
												<rate>
													<timebase>25</timebase>
													<ntsc>FALSE</ntsc>
												</rate>
												<start>8</start>
												<end>14</end>
												<in>0</in>
												<out>7</out>
												<pproTicksIn>0</pproTicksIn>
												<pproTicksOut>71124480000</pproTicksOut>
												<sequence id="sequence-8"/>
												<labels>
													<label2>Iris</label2>
												</labels>
											</clipitem>
											<clipitem id="clipitem-637">
												<masterclipid>masterclip-157</masterclipid>
												<name>03 Zoom Out - Quick / Transform Out</name>
												<enabled>TRUE</enabled>
												<duration>1079999</duration>
												<rate>
													<timebase>25</timebase>
													<ntsc>FALSE</ntsc>
												</rate>
												<start>184</start>
												<end>191</end>
												<in>0</in>
												<out>8</out>
												<pproTicksIn>0</pproTicksIn>
												<pproTicksOut>81285120000</pproTicksOut>
												<sequence id="sequence-7"/>
													<marker>
														<comment></comment>
														<name></name>
														<in>17</in>
														<out>-1</out>
													</marker>
												<labels>
													<label2>Iris</label2>
												</labels>
											</clipitem>
											<clipitem id="clipitem-638">
												<masterclipid>masterclip-159</masterclipid>
												<name>03 Zoom Out - Quick / Transform In</name>
												<enabled>TRUE</enabled>
												<duration>1079999</duration>
												<rate>
													<timebase>25</timebase>
													<ntsc>FALSE</ntsc>
												</rate>
												<start>191</start>
												<end>199</end>
												<in>0</in>
												<out>8</out>
												<pproTicksIn>0</pproTicksIn>
												<pproTicksOut>81285120000</pproTicksOut>
												<sequence id="sequence-8"/>
												<filter>
													<effect>
														<name>Basic Motion</name>
														<effectid>basic</effectid>
														<effectcategory>motion</effectcategory>
														<effecttype>motion</effecttype>
														<mediatype>video</mediatype>
														<pproBypass>false</pproBypass>
														<parameter authoringApp="PremierePro">
															<parameterid>scale</parameterid>
															<name>Scale</name>
															<valuemin>0</valuemin>
															<valuemax>1000</valuemax>
															<value>100</value>
														</parameter>
														<parameter authoringApp="PremierePro">
															<parameterid>rotation</parameterid>
															<name>Rotation</name>
															<valuemin>-8640</valuemin>
															<valuemax>8640</valuemax>
															<value>0</value>
														</parameter>
														<parameter authoringApp="PremierePro">
															<parameterid>center</parameterid>
															<name>Center</name>
															<value>
																<horiz>-0.5</horiz>
																<vert>-0.499394</vert>
															</value>
														</parameter>
														<parameter authoringApp="PremierePro">
															<parameterid>centerOffset</parameterid>
															<name>Anchor Point</name>
															<value>
																<horiz>0</horiz>
																<vert>-0.00060606</vert>
															</value>
														</parameter>
														<parameter authoringApp="PremierePro">
															<parameterid>antiflicker</parameterid>
															<name>Anti-flicker Filter</name>
															<valuemin>0.0</valuemin>
															<valuemax>1.0</valuemax>
															<value>0</value>
														</parameter>
													</effect>
												</filter>
												<labels>
													<label2>Iris</label2>
												</labels>
											</clipitem>
											<enabled>TRUE</enabled>
											<locked>FALSE</locked>
										</track>
										<track TL.SQTrackShy="0" TL.SQTrackExpandedHeight="25" TL.SQTrackExpanded="0" MZ.TrackTargeted="0">
											<enabled>TRUE</enabled>
											<locked>FALSE</locked>
										</track>
									</video>
									<audio>
										<numOutputChannels>2</numOutputChannels>
										<format>
											<samplecharacteristics>
												<depth>16</depth>
												<samplerate>32000</samplerate>
											</samplecharacteristics>
										</format>
										<outputs>
											<group>
												<index>1</index>
												<numchannels>1</numchannels>
												<downmix>0</downmix>
												<channel>
													<index>1</index>
												</channel>
											</group>
											<group>
												<index>2</index>
												<numchannels>1</numchannels>
												<downmix>0</downmix>
												<channel>
													<index>2</index>
												</channel>
											</group>
										</outputs>
										<track TL.SQTrackAudioKeyframeStyle="0" TL.SQTrackShy="0" TL.SQTrackExpandedHeight="25" TL.SQTrackExpanded="0" MZ.TrackTargeted="1" PannerCurrentValue="0.5" PannerIsInverted="true" PannerStartKeyframe="-91445760000000000,0.5,0,0,0,0,0,0" PannerName="Balance" currentExplodedTrackIndex="0" totalExplodedTrackCount="2" premiereTrackType="Stereo">
											<clipitem id="clipitem-639" premiereChannelType="stereo">
												<masterclipid>masterclip-252</masterclipid>
												<name>ATM_DRONE_TRANS_F.mov</name>
												<enabled>TRUE</enabled>
												<duration>204</duration>
												<rate>
													<timebase>25</timebase>
													<ntsc>FALSE</ntsc>
												</rate>
												<start>0</start>
												<end>204</end>
												<in>0</in>
												<out>204</out>
												<pproTicksIn>0</pproTicksIn>
												<pproTicksOut>2072770560000</pproTicksOut>
												<file id="file-230"/>
												<sourcetrack>
													<mediatype>audio</mediatype>
													<trackindex>1</trackindex>
												</sourcetrack>
												<filter>
													<effect>
														<name>Gain</name>
														<effectid>{61756678, 4761696e, 4b657947}</effectid>
														<effecttype>filter</effecttype>
														<mediatype>audio</mediatype>
														<parameter authoringApp="PremierePro">
															<parameterid>Gain(dB)</parameterid>
															<name>Gain(dB)</name>
															<valuemin>-96</valuemin>
															<valuemax>96</valuemax>
															<value>-9</value>
														</parameter>
													</effect>
												</filter>
												<link>
													<linkclipref>clipitem-639</linkclipref>
													<mediatype>audio</mediatype>
													<trackindex>1</trackindex>
													<clipindex>1</clipindex>
													<groupindex>1</groupindex>
												</link>
												<link>
													<linkclipref>clipitem-640</linkclipref>
													<mediatype>audio</mediatype>
													<trackindex>2</trackindex>
													<clipindex>1</clipindex>
													<groupindex>1</groupindex>
												</link>
												<logginginfo>
													<description></description>
													<scene></scene>
													<shottake></shottake>
													<lognote></lognote>
													<good></good>
													<originalvideofilename></originalvideofilename>
													<originalaudiofilename></originalaudiofilename>
												</logginginfo>
												<colorinfo>
													<lut></lut>
													<lut1></lut1>
													<asc_sop></asc_sop>
													<asc_sat></asc_sat>
													<lut2></lut2>
												</colorinfo>
												<labels>
													<label2>Iris</label2>
												</labels>
											</clipitem>
											<enabled>TRUE</enabled>
											<locked>FALSE</locked>
											<outputchannelindex>1</outputchannelindex>
										</track>
										<track TL.SQTrackAudioKeyframeStyle="0" TL.SQTrackShy="0" TL.SQTrackExpandedHeight="25" TL.SQTrackExpanded="0" MZ.TrackTargeted="1" PannerCurrentValue="0.5" PannerIsInverted="true" PannerStartKeyframe="-91445760000000000,0.5,0,0,0,0,0,0" PannerName="Balance" currentExplodedTrackIndex="1" totalExplodedTrackCount="2" premiereTrackType="Stereo">
											<clipitem id="clipitem-640" premiereChannelType="stereo">
												<masterclipid>masterclip-252</masterclipid>
												<name>ATM_DRONE_TRANS_F.mov</name>
												<enabled>TRUE</enabled>
												<duration>204</duration>
												<rate>
													<timebase>25</timebase>
													<ntsc>FALSE</ntsc>
												</rate>
												<start>0</start>
												<end>204</end>
												<in>0</in>
												<out>204</out>
												<pproTicksIn>0</pproTicksIn>
												<pproTicksOut>2072770560000</pproTicksOut>
												<file id="file-230"/>
												<sourcetrack>
													<mediatype>audio</mediatype>
													<trackindex>2</trackindex>
												</sourcetrack>
												<filter>
													<effect>
														<name>Gain</name>
														<effectid>{61756678, 4761696e, 4b657947}</effectid>
														<effecttype>filter</effecttype>
														<mediatype>audio</mediatype>
														<parameter authoringApp="PremierePro">
															<parameterid>Gain(dB)</parameterid>
															<name>Gain(dB)</name>
															<valuemin>-96</valuemin>
															<valuemax>96</valuemax>
															<value>-9</value>
														</parameter>
													</effect>
												</filter>
												<link>
													<linkclipref>clipitem-639</linkclipref>
													<mediatype>audio</mediatype>
													<trackindex>1</trackindex>
													<clipindex>1</clipindex>
													<groupindex>1</groupindex>
												</link>
												<link>
													<linkclipref>clipitem-640</linkclipref>
													<mediatype>audio</mediatype>
													<trackindex>2</trackindex>
													<clipindex>1</clipindex>
													<groupindex>1</groupindex>
												</link>
												<logginginfo>
													<description></description>
													<scene></scene>
													<shottake></shottake>
													<lognote></lognote>
													<good></good>
													<originalvideofilename></originalvideofilename>
													<originalaudiofilename></originalaudiofilename>
												</logginginfo>
												<colorinfo>
													<lut></lut>
													<lut1></lut1>
													<asc_sop></asc_sop>
													<asc_sat></asc_sat>
													<lut2></lut2>
												</colorinfo>
												<labels>
													<label2>Iris</label2>
												</labels>
											</clipitem>
											<enabled>TRUE</enabled>
											<locked>FALSE</locked>
											<outputchannelindex>2</outputchannelindex>
										</track>
										<track TL.SQTrackAudioKeyframeStyle="0" TL.SQTrackShy="0" TL.SQTrackExpandedHeight="25" TL.SQTrackExpanded="0" MZ.TrackTargeted="1" PannerCurrentValue="0.5" PannerIsInverted="true" PannerStartKeyframe="-91445760000000000,0.5,0,0,0,0,0,0" PannerName="Balance" currentExplodedTrackIndex="0" totalExplodedTrackCount="2" premiereTrackType="Stereo">
											<enabled>TRUE</enabled>
											<locked>FALSE</locked>
											<outputchannelindex>1</outputchannelindex>
										</track>
										<track TL.SQTrackAudioKeyframeStyle="0" TL.SQTrackShy="0" TL.SQTrackExpandedHeight="25" TL.SQTrackExpanded="0" MZ.TrackTargeted="1" PannerCurrentValue="0.5" PannerIsInverted="true" PannerStartKeyframe="-91445760000000000,0.5,0,0,0,0,0,0" PannerName="Balance" currentExplodedTrackIndex="1" totalExplodedTrackCount="2" premiereTrackType="Stereo">
											<enabled>TRUE</enabled>
											<locked>FALSE</locked>
											<outputchannelindex>2</outputchannelindex>
										</track>
										<track TL.SQTrackAudioKeyframeStyle="0" TL.SQTrackShy="0" TL.SQTrackExpandedHeight="25" TL.SQTrackExpanded="0" MZ.TrackTargeted="1" PannerCurrentValue="0.5" PannerIsInverted="true" PannerStartKeyframe="-91445760000000000,0.5,0,0,0,0,0,0" PannerName="Balance" currentExplodedTrackIndex="0" totalExplodedTrackCount="2" premiereTrackType="Stereo">
											<enabled>TRUE</enabled>
											<locked>FALSE</locked>
											<outputchannelindex>1</outputchannelindex>
										</track>
										<track TL.SQTrackAudioKeyframeStyle="0" TL.SQTrackShy="0" TL.SQTrackExpandedHeight="25" TL.SQTrackExpanded="0" MZ.TrackTargeted="1" PannerCurrentValue="0.5" PannerIsInverted="true" PannerStartKeyframe="-91445760000000000,0.5,0,0,0,0,0,0" PannerName="Balance" currentExplodedTrackIndex="1" totalExplodedTrackCount="2" premiereTrackType="Stereo">
											<enabled>TRUE</enabled>
											<locked>FALSE</locked>
											<outputchannelindex>2</outputchannelindex>
										</track>
									</audio>
								</media>
								<timecode>
									<rate>
										<timebase>25</timebase>
										<ntsc>FALSE</ntsc>
									</rate>
									<string>00:00:00:00</string>
									<frame>0</frame>
									<displayformat>NDF</displayformat>
								</timecode>
									<marker>
										<comment></comment>
										<name></name>
										<in>8</in>
										<out>-1</out>
										<pproColor>4281828977</pproColor>
									</marker>
									<marker>
										<comment></comment>
										<name></name>
										<in>192</in>
										<out>-1</out>
										<pproColor>4281828977</pproColor>
									</marker>
								<labels>
									<label2>Tan</label2>
								</labels>
								<logginginfo>
									<description></description>
									<scene></scene>
									<shottake></shottake>
									<lognote></lognote>
									<good></good>
									<originalvideofilename></originalvideofilename>
									<originalaudiofilename></originalaudiofilename>
								</logginginfo>
							</sequence>
							<sequence id="sequence-44" TL.SQAudioVisibleBase="0" TL.SQVideoVisibleBase="0" TL.SQVisibleBaseTime="0" TL.SQAVDividerPosition="0.5" TL.SQHideShyTracks="0" TL.SQHeaderWidth="236" Monitor.ProgramZoomOut="2032128000000" Monitor.ProgramZoomIn="0" TL.SQTimePerPixel="0.0013333333333333333" MZ.EditLine="0" MZ.Sequence.PreviewFrameSizeHeight="1080" MZ.Sequence.PreviewFrameSizeWidth="1920" MZ.Sequence.AudioTimeDisplayFormat="200" MZ.Sequence.PreviewRenderingClassID="1297106761" MZ.Sequence.PreviewRenderingPresetCodec="1297107278" MZ.Sequence.PreviewRenderingPresetPath="EncoderPresets/SequencePreview/795454d9-d3c2-429d-9474-923ab13b7018/I-Frame Only MPEG.epr" MZ.Sequence.PreviewUseMaxRenderQuality="false" MZ.Sequence.PreviewUseMaxBitDepth="false" MZ.Sequence.EditingModeGUID="795454d9-d3c2-429d-9474-923ab13b7018" MZ.Sequence.VideoTimeDisplayFormat="101" MZ.WorkOutPoint="15239249625600" MZ.WorkInPoint="0" explodedTracks="true">
								<uuid>4e329172-7cf4-4bd8-ad46-069c7c8bbb75</uuid>
								<duration>200</duration>
								<rate>
									<timebase>25</timebase>
									<ntsc>FALSE</ntsc>
								</rate>
								<out>200</out>
								<name>Trans E</name>
								<media>
									<video>
										<format>
											<samplecharacteristics>
												<rate>
													<timebase>25</timebase>
													<ntsc>FALSE</ntsc>
												</rate>
												<codec>
													<name>Apple ProRes 422</name>
													<appspecificdata>
														<appname>Final Cut Pro</appname>
														<appmanufacturer>Apple Inc.</appmanufacturer>
														<appversion>7.0</appversion>
														<data>
															<qtcodec>
																<codecname>Apple ProRes 422</codecname>
																<codectypename>Apple ProRes 422</codectypename>
																<codectypecode>apcn</codectypecode>
																<codecvendorcode>appl</codecvendorcode>
																<spatialquality>1024</spatialquality>
																<temporalquality>0</temporalquality>
																<keyframerate>0</keyframerate>
																<datarate>0</datarate>
															</qtcodec>
														</data>
													</appspecificdata>
												</codec>
												<width>1920</width>
												<height>1080</height>
												<anamorphic>FALSE</anamorphic>
												<pixelaspectratio>square</pixelaspectratio>
												<fielddominance>none</fielddominance>
												<colordepth>24</colordepth>
											</samplecharacteristics>
										</format>
										<track TL.SQTrackShy="0" TL.SQTrackExpandedHeight="25" TL.SQTrackExpanded="0" MZ.TrackTargeted="1">
											<clipitem id="clipitem-641">
												<masterclipid>masterclip-343</masterclipid>
												<name>ATM_DRONE_TRANS_E..mov</name>
												<enabled>TRUE</enabled>
												<duration>240</duration>
												<rate>
													<timebase>25</timebase>
													<ntsc>FALSE</ntsc>
												</rate>
												<start>8</start>
												<end>191</end>
												<in>15</in>
												<out>198</out>
												<pproTicksIn>152409600000</pproTicksIn>
												<pproTicksOut>2011806720000</pproTicksOut>
												<alphatype>straight</alphatype>
												<pixelaspectratio>square</pixelaspectratio>
												<anamorphic>FALSE</anamorphic>
												<file id="file-315">
													<name>ATM_DRONE_TRANS_E..mov</name>
													<pathurl>file://localhost/Volumes/T7/DRONE_08.18.2023/4_Project%20Files/Drone%202023%20Master%20Assets/02_Transitions/DRONE%20transitions%20(30fps)/ATM_DRONE_TRANS_E..mov</pathurl>
													<rate>
														<timebase>30</timebase>
														<ntsc>TRUE</ntsc>
													</rate>
													<duration>240</duration>
													<timecode>
														<rate>
															<timebase>30</timebase>
															<ntsc>TRUE</ntsc>
														</rate>
														<string>00;00;10;19</string>
														<frame>319</frame>
														<displayformat>DF</displayformat>
													</timecode>
													<media>
														<video>
															<samplecharacteristics>
																<rate>
																	<timebase>30</timebase>
																	<ntsc>TRUE</ntsc>
																</rate>
																<width>1920</width>
																<height>1080</height>
																<anamorphic>FALSE</anamorphic>
																<pixelaspectratio>square</pixelaspectratio>
																<fielddominance>none</fielddominance>
															</samplecharacteristics>
														</video>
														<audio>
															<samplecharacteristics>
																<depth>16</depth>
																<samplerate>48000</samplerate>
															</samplecharacteristics>
															<channelcount>2</channelcount>
														</audio>
													</media>
												</file>
												<logginginfo>
													<description></description>
													<scene></scene>
													<shottake></shottake>
													<lognote></lognote>
													<good></good>
													<originalvideofilename></originalvideofilename>
													<originalaudiofilename></originalaudiofilename>
												</logginginfo>
												<colorinfo>
													<lut></lut>
													<lut1></lut1>
													<asc_sop></asc_sop>
													<asc_sat></asc_sat>
													<lut2></lut2>
												</colorinfo>
												<labels>
													<label2>Iris</label2>
												</labels>
											</clipitem>
											<enabled>TRUE</enabled>
											<locked>FALSE</locked>
										</track>
										<track TL.SQTrackShy="0" TL.SQTrackExpandedHeight="25" TL.SQTrackExpanded="0" MZ.TrackTargeted="0">
											<clipitem id="clipitem-642">
												<masterclipid>masterclip-157</masterclipid>
												<name>02 Zoom In - Quick / Transform Out</name>
												<enabled>TRUE</enabled>
												<duration>1079999</duration>
												<rate>
													<timebase>25</timebase>
													<ntsc>FALSE</ntsc>
												</rate>
												<start>0</start>
												<end>8</end>
												<in>0</in>
												<out>8</out>
												<pproTicksIn>0</pproTicksIn>
												<pproTicksOut>81285120000</pproTicksOut>
												<sequence id="sequence-7"/>
													<marker>
														<comment></comment>
														<name></name>
														<in>17</in>
														<out>-1</out>
													</marker>
												<labels>
													<label2>Iris</label2>
												</labels>
											</clipitem>
											<clipitem id="clipitem-643">
												<masterclipid>masterclip-159</masterclipid>
												<name>02 Zoom In - Quick / Transform In</name>
												<enabled>TRUE</enabled>
												<duration>1079999</duration>
												<rate>
													<timebase>25</timebase>
													<ntsc>FALSE</ntsc>
												</rate>
												<start>8</start>
												<end>14</end>
												<in>0</in>
												<out>7</out>
												<pproTicksIn>0</pproTicksIn>
												<pproTicksOut>71124480000</pproTicksOut>
												<sequence id="sequence-8"/>
												<labels>
													<label2>Iris</label2>
												</labels>
											</clipitem>
											<clipitem id="clipitem-644">
												<masterclipid>masterclip-157</masterclipid>
												<name>03 Zoom Out - Quick / Transform Out</name>
												<enabled>TRUE</enabled>
												<duration>1079999</duration>
												<rate>
													<timebase>25</timebase>
													<ntsc>FALSE</ntsc>
												</rate>
												<start>184</start>
												<end>191</end>
												<in>0</in>
												<out>8</out>
												<pproTicksIn>0</pproTicksIn>
												<pproTicksOut>81285120000</pproTicksOut>
												<sequence id="sequence-7"/>
													<marker>
														<comment></comment>
														<name></name>
														<in>17</in>
														<out>-1</out>
													</marker>
												<labels>
													<label2>Iris</label2>
												</labels>
											</clipitem>
											<clipitem id="clipitem-645">
												<masterclipid>masterclip-159</masterclipid>
												<name>03 Zoom Out - Quick / Transform In</name>
												<enabled>TRUE</enabled>
												<duration>1079999</duration>
												<rate>
													<timebase>25</timebase>
													<ntsc>FALSE</ntsc>
												</rate>
												<start>191</start>
												<end>199</end>
												<in>0</in>
												<out>8</out>
												<pproTicksIn>0</pproTicksIn>
												<pproTicksOut>81285120000</pproTicksOut>
												<sequence id="sequence-8"/>
												<filter>
													<effect>
														<name>Basic Motion</name>
														<effectid>basic</effectid>
														<effectcategory>motion</effectcategory>
														<effecttype>motion</effecttype>
														<mediatype>video</mediatype>
														<pproBypass>false</pproBypass>
														<parameter authoringApp="PremierePro">
															<parameterid>scale</parameterid>
															<name>Scale</name>
															<valuemin>0</valuemin>
															<valuemax>1000</valuemax>
															<value>100</value>
														</parameter>
														<parameter authoringApp="PremierePro">
															<parameterid>rotation</parameterid>
															<name>Rotation</name>
															<valuemin>-8640</valuemin>
															<valuemax>8640</valuemax>
															<value>0</value>
														</parameter>
														<parameter authoringApp="PremierePro">
															<parameterid>center</parameterid>
															<name>Center</name>
															<value>
																<horiz>-0.5</horiz>
																<vert>-0.499394</vert>
															</value>
														</parameter>
														<parameter authoringApp="PremierePro">
															<parameterid>centerOffset</parameterid>
															<name>Anchor Point</name>
															<value>
																<horiz>0</horiz>
																<vert>-0.00060606</vert>
															</value>
														</parameter>
														<parameter authoringApp="PremierePro">
															<parameterid>antiflicker</parameterid>
															<name>Anti-flicker Filter</name>
															<valuemin>0.0</valuemin>
															<valuemax>1.0</valuemax>
															<value>0</value>
														</parameter>
													</effect>
												</filter>
												<labels>
													<label2>Iris</label2>
												</labels>
											</clipitem>
											<enabled>TRUE</enabled>
											<locked>FALSE</locked>
										</track>
										<track TL.SQTrackShy="0" TL.SQTrackExpandedHeight="25" TL.SQTrackExpanded="0" MZ.TrackTargeted="0">
											<enabled>TRUE</enabled>
											<locked>FALSE</locked>
										</track>
									</video>
									<audio>
										<numOutputChannels>2</numOutputChannels>
										<format>
											<samplecharacteristics>
												<depth>16</depth>
												<samplerate>32000</samplerate>
											</samplecharacteristics>
										</format>
										<outputs>
											<group>
												<index>1</index>
												<numchannels>1</numchannels>
												<downmix>0</downmix>
												<channel>
													<index>1</index>
												</channel>
											</group>
											<group>
												<index>2</index>
												<numchannels>1</numchannels>
												<downmix>0</downmix>
												<channel>
													<index>2</index>
												</channel>
											</group>
										</outputs>
										<track TL.SQTrackAudioKeyframeStyle="0" TL.SQTrackShy="0" TL.SQTrackExpandedHeight="25" TL.SQTrackExpanded="0" MZ.TrackTargeted="1" PannerCurrentValue="0.5" PannerIsInverted="true" PannerStartKeyframe="-91445760000000000,0.5,0,0,0,0,0,0" PannerName="Balance" currentExplodedTrackIndex="0" totalExplodedTrackCount="2" premiereTrackType="Stereo">
											<clipitem id="clipitem-646" premiereChannelType="stereo">
												<masterclipid>masterclip-268</masterclipid>
												<name>ATM_DRONE_TRANS_E..mov</name>
												<enabled>TRUE</enabled>
												<duration>200</duration>
												<rate>
													<timebase>25</timebase>
													<ntsc>FALSE</ntsc>
												</rate>
												<start>0</start>
												<end>200</end>
												<in>0</in>
												<out>200</out>
												<pproTicksIn>0</pproTicksIn>
												<pproTicksOut>2032128000000</pproTicksOut>
												<file id="file-244"/>
												<sourcetrack>
													<mediatype>audio</mediatype>
													<trackindex>1</trackindex>
												</sourcetrack>
												<filter>
													<effect>
														<name>Gain</name>
														<effectid>{61756678, 4761696e, 4b657947}</effectid>
														<effecttype>filter</effecttype>
														<mediatype>audio</mediatype>
														<parameter authoringApp="PremierePro">
															<parameterid>Gain(dB)</parameterid>
															<name>Gain(dB)</name>
															<valuemin>-96</valuemin>
															<valuemax>96</valuemax>
															<value>-9</value>
														</parameter>
													</effect>
												</filter>
												<link>
													<linkclipref>clipitem-646</linkclipref>
													<mediatype>audio</mediatype>
													<trackindex>1</trackindex>
													<clipindex>1</clipindex>
													<groupindex>1</groupindex>
												</link>
												<link>
													<linkclipref>clipitem-647</linkclipref>
													<mediatype>audio</mediatype>
													<trackindex>2</trackindex>
													<clipindex>1</clipindex>
													<groupindex>1</groupindex>
												</link>
												<logginginfo>
													<description></description>
													<scene></scene>
													<shottake></shottake>
													<lognote></lognote>
													<good></good>
													<originalvideofilename></originalvideofilename>
													<originalaudiofilename></originalaudiofilename>
												</logginginfo>
												<colorinfo>
													<lut></lut>
													<lut1></lut1>
													<asc_sop></asc_sop>
													<asc_sat></asc_sat>
													<lut2></lut2>
												</colorinfo>
												<labels>
													<label2>Iris</label2>
												</labels>
											</clipitem>
											<enabled>TRUE</enabled>
											<locked>FALSE</locked>
											<outputchannelindex>1</outputchannelindex>
										</track>
										<track TL.SQTrackAudioKeyframeStyle="0" TL.SQTrackShy="0" TL.SQTrackExpandedHeight="25" TL.SQTrackExpanded="0" MZ.TrackTargeted="1" PannerCurrentValue="0.5" PannerIsInverted="true" PannerStartKeyframe="-91445760000000000,0.5,0,0,0,0,0,0" PannerName="Balance" currentExplodedTrackIndex="1" totalExplodedTrackCount="2" premiereTrackType="Stereo">
											<clipitem id="clipitem-647" premiereChannelType="stereo">
												<masterclipid>masterclip-268</masterclipid>
												<name>ATM_DRONE_TRANS_E..mov</name>
												<enabled>TRUE</enabled>
												<duration>200</duration>
												<rate>
													<timebase>25</timebase>
													<ntsc>FALSE</ntsc>
												</rate>
												<start>0</start>
												<end>200</end>
												<in>0</in>
												<out>200</out>
												<pproTicksIn>0</pproTicksIn>
												<pproTicksOut>2032128000000</pproTicksOut>
												<file id="file-244"/>
												<sourcetrack>
													<mediatype>audio</mediatype>
													<trackindex>2</trackindex>
												</sourcetrack>
												<filter>
													<effect>
														<name>Gain</name>
														<effectid>{61756678, 4761696e, 4b657947}</effectid>
														<effecttype>filter</effecttype>
														<mediatype>audio</mediatype>
														<parameter authoringApp="PremierePro">
															<parameterid>Gain(dB)</parameterid>
															<name>Gain(dB)</name>
															<valuemin>-96</valuemin>
															<valuemax>96</valuemax>
															<value>-9</value>
														</parameter>
													</effect>
												</filter>
												<link>
													<linkclipref>clipitem-646</linkclipref>
													<mediatype>audio</mediatype>
													<trackindex>1</trackindex>
													<clipindex>1</clipindex>
													<groupindex>1</groupindex>
												</link>
												<link>
													<linkclipref>clipitem-647</linkclipref>
													<mediatype>audio</mediatype>
													<trackindex>2</trackindex>
													<clipindex>1</clipindex>
													<groupindex>1</groupindex>
												</link>
												<logginginfo>
													<description></description>
													<scene></scene>
													<shottake></shottake>
													<lognote></lognote>
													<good></good>
													<originalvideofilename></originalvideofilename>
													<originalaudiofilename></originalaudiofilename>
												</logginginfo>
												<colorinfo>
													<lut></lut>
													<lut1></lut1>
													<asc_sop></asc_sop>
													<asc_sat></asc_sat>
													<lut2></lut2>
												</colorinfo>
												<labels>
													<label2>Iris</label2>
												</labels>
											</clipitem>
											<enabled>TRUE</enabled>
											<locked>FALSE</locked>
											<outputchannelindex>2</outputchannelindex>
										</track>
										<track TL.SQTrackAudioKeyframeStyle="0" TL.SQTrackShy="0" TL.SQTrackExpandedHeight="25" TL.SQTrackExpanded="0" MZ.TrackTargeted="1" PannerCurrentValue="0.5" PannerIsInverted="true" PannerStartKeyframe="-91445760000000000,0.5,0,0,0,0,0,0" PannerName="Balance" currentExplodedTrackIndex="0" totalExplodedTrackCount="2" premiereTrackType="Stereo">
											<enabled>TRUE</enabled>
											<locked>FALSE</locked>
											<outputchannelindex>1</outputchannelindex>
										</track>
										<track TL.SQTrackAudioKeyframeStyle="0" TL.SQTrackShy="0" TL.SQTrackExpandedHeight="25" TL.SQTrackExpanded="0" MZ.TrackTargeted="1" PannerCurrentValue="0.5" PannerIsInverted="true" PannerStartKeyframe="-91445760000000000,0.5,0,0,0,0,0,0" PannerName="Balance" currentExplodedTrackIndex="1" totalExplodedTrackCount="2" premiereTrackType="Stereo">
											<enabled>TRUE</enabled>
											<locked>FALSE</locked>
											<outputchannelindex>2</outputchannelindex>
										</track>
										<track TL.SQTrackAudioKeyframeStyle="0" TL.SQTrackShy="0" TL.SQTrackExpandedHeight="25" TL.SQTrackExpanded="0" MZ.TrackTargeted="1" PannerCurrentValue="0.5" PannerIsInverted="true" PannerStartKeyframe="-91445760000000000,0.5,0,0,0,0,0,0" PannerName="Balance" currentExplodedTrackIndex="0" totalExplodedTrackCount="2" premiereTrackType="Stereo">
											<enabled>TRUE</enabled>
											<locked>FALSE</locked>
											<outputchannelindex>1</outputchannelindex>
										</track>
										<track TL.SQTrackAudioKeyframeStyle="0" TL.SQTrackShy="0" TL.SQTrackExpandedHeight="25" TL.SQTrackExpanded="0" MZ.TrackTargeted="1" PannerCurrentValue="0.5" PannerIsInverted="true" PannerStartKeyframe="-91445760000000000,0.5,0,0,0,0,0,0" PannerName="Balance" currentExplodedTrackIndex="1" totalExplodedTrackCount="2" premiereTrackType="Stereo">
											<enabled>TRUE</enabled>
											<locked>FALSE</locked>
											<outputchannelindex>2</outputchannelindex>
										</track>
									</audio>
								</media>
								<timecode>
									<rate>
										<timebase>25</timebase>
										<ntsc>FALSE</ntsc>
									</rate>
									<string>00:00:00:00</string>
									<frame>0</frame>
									<displayformat>NDF</displayformat>
								</timecode>
									<marker>
										<comment></comment>
										<name></name>
										<in>8</in>
										<out>-1</out>
										<pproColor>4281828977</pproColor>
									</marker>
									<marker>
										<comment></comment>
										<name></name>
										<in>192</in>
										<out>-1</out>
										<pproColor>4281828977</pproColor>
									</marker>
								<labels>
									<label2>Tan</label2>
								</labels>
								<logginginfo>
									<description></description>
									<scene></scene>
									<shottake></shottake>
									<lognote></lognote>
									<good></good>
									<originalvideofilename></originalvideofilename>
									<originalaudiofilename></originalaudiofilename>
								</logginginfo>
							</sequence>
							<sequence id="sequence-45" TL.SQAudioVisibleBase="0" TL.SQVideoVisibleBase="0" TL.SQVisibleBaseTime="1646023680000" TL.SQAVDividerPosition="0.5" TL.SQHideShyTracks="0" TL.SQHeaderWidth="236" Monitor.ProgramZoomOut="2032128000000" Monitor.ProgramZoomIn="0" TL.SQTimePerPixel="0.0023262220352037429" MZ.EditLine="1940682240000" MZ.Sequence.PreviewFrameSizeHeight="1080" MZ.Sequence.PreviewFrameSizeWidth="1920" MZ.Sequence.AudioTimeDisplayFormat="200" MZ.Sequence.PreviewRenderingClassID="1297106761" MZ.Sequence.PreviewRenderingPresetCodec="1297107278" MZ.Sequence.PreviewRenderingPresetPath="EncoderPresets/SequencePreview/795454d9-d3c2-429d-9474-923ab13b7018/I-Frame Only MPEG.epr" MZ.Sequence.PreviewUseMaxRenderQuality="false" MZ.Sequence.PreviewUseMaxBitDepth="false" MZ.Sequence.EditingModeGUID="795454d9-d3c2-429d-9474-923ab13b7018" MZ.Sequence.VideoTimeDisplayFormat="101" MZ.WorkOutPoint="15239249625600" MZ.WorkInPoint="0" explodedTracks="true">
								<uuid>3507b379-131f-4fb1-b73c-c47104163f07</uuid>
								<duration>200</duration>
								<rate>
									<timebase>25</timebase>
									<ntsc>FALSE</ntsc>
								</rate>
								<name>Trans D</name>
								<media>
									<video>
										<format>
											<samplecharacteristics>
												<rate>
													<timebase>25</timebase>
													<ntsc>FALSE</ntsc>
												</rate>
												<codec>
													<name>Apple ProRes 422</name>
													<appspecificdata>
														<appname>Final Cut Pro</appname>
														<appmanufacturer>Apple Inc.</appmanufacturer>
														<appversion>7.0</appversion>
														<data>
															<qtcodec>
																<codecname>Apple ProRes 422</codecname>
																<codectypename>Apple ProRes 422</codectypename>
																<codectypecode>apcn</codectypecode>
																<codecvendorcode>appl</codecvendorcode>
																<spatialquality>1024</spatialquality>
																<temporalquality>0</temporalquality>
																<keyframerate>0</keyframerate>
																<datarate>0</datarate>
															</qtcodec>
														</data>
													</appspecificdata>
												</codec>
												<width>1920</width>
												<height>1080</height>
												<anamorphic>FALSE</anamorphic>
												<pixelaspectratio>square</pixelaspectratio>
												<fielddominance>none</fielddominance>
												<colordepth>24</colordepth>
											</samplecharacteristics>
										</format>
										<track TL.SQTrackShy="0" TL.SQTrackExpandedHeight="25" TL.SQTrackExpanded="0" MZ.TrackTargeted="1">
											<clipitem id="clipitem-648">
												<masterclipid>masterclip-344</masterclipid>
												<name>ATM_DRONE_TRANS_D.mov</name>
												<enabled>TRUE</enabled>
												<duration>240</duration>
												<rate>
													<timebase>25</timebase>
													<ntsc>FALSE</ntsc>
												</rate>
												<start>8</start>
												<end>191</end>
												<in>23</in>
												<out>206</out>
												<pproTicksIn>233694720000</pproTicksIn>
												<pproTicksOut>2093091840000</pproTicksOut>
												<alphatype>straight</alphatype>
												<pixelaspectratio>square</pixelaspectratio>
												<anamorphic>FALSE</anamorphic>
												<file id="file-316">
													<name>ATM_DRONE_TRANS_D.mov</name>
													<pathurl>file://localhost/Volumes/T7/DRONE_08.18.2023/4_Project%20Files/Drone%202023%20Master%20Assets/02_Transitions/DRONE%20transitions%20(30fps)/ATM_DRONE_TRANS_D.mov</pathurl>
													<rate>
														<timebase>30</timebase>
														<ntsc>TRUE</ntsc>
													</rate>
													<duration>240</duration>
													<timecode>
														<rate>
															<timebase>30</timebase>
															<ntsc>TRUE</ntsc>
														</rate>
														<string>00;00;44;26</string>
														<frame>1346</frame>
														<displayformat>DF</displayformat>
													</timecode>
													<media>
														<video>
															<samplecharacteristics>
																<rate>
																	<timebase>30</timebase>
																	<ntsc>TRUE</ntsc>
																</rate>
																<width>1920</width>
																<height>1080</height>
																<anamorphic>FALSE</anamorphic>
																<pixelaspectratio>square</pixelaspectratio>
																<fielddominance>none</fielddominance>
															</samplecharacteristics>
														</video>
														<audio>
															<samplecharacteristics>
																<depth>16</depth>
																<samplerate>48000</samplerate>
															</samplecharacteristics>
															<channelcount>2</channelcount>
														</audio>
													</media>
												</file>
												<logginginfo>
													<description></description>
													<scene></scene>
													<shottake></shottake>
													<lognote></lognote>
													<good></good>
													<originalvideofilename></originalvideofilename>
													<originalaudiofilename></originalaudiofilename>
												</logginginfo>
												<colorinfo>
													<lut></lut>
													<lut1></lut1>
													<asc_sop></asc_sop>
													<asc_sat></asc_sat>
													<lut2></lut2>
												</colorinfo>
												<labels>
													<label2>Iris</label2>
												</labels>
											</clipitem>
											<enabled>TRUE</enabled>
											<locked>FALSE</locked>
										</track>
										<track TL.SQTrackShy="0" TL.SQTrackExpandedHeight="25" TL.SQTrackExpanded="0" MZ.TrackTargeted="0">
											<clipitem id="clipitem-649">
												<masterclipid>masterclip-157</masterclipid>
												<name>02 Zoom In - Quick / Transform Out</name>
												<enabled>TRUE</enabled>
												<duration>1079999</duration>
												<rate>
													<timebase>25</timebase>
													<ntsc>FALSE</ntsc>
												</rate>
												<start>0</start>
												<end>8</end>
												<in>0</in>
												<out>8</out>
												<pproTicksIn>0</pproTicksIn>
												<pproTicksOut>81285120000</pproTicksOut>
												<sequence id="sequence-7"/>
													<marker>
														<comment></comment>
														<name></name>
														<in>17</in>
														<out>-1</out>
													</marker>
												<labels>
													<label2>Iris</label2>
												</labels>
											</clipitem>
											<clipitem id="clipitem-650">
												<masterclipid>masterclip-159</masterclipid>
												<name>02 Zoom In - Quick / Transform In</name>
												<enabled>TRUE</enabled>
												<duration>1079999</duration>
												<rate>
													<timebase>25</timebase>
													<ntsc>FALSE</ntsc>
												</rate>
												<start>8</start>
												<end>14</end>
												<in>0</in>
												<out>7</out>
												<pproTicksIn>0</pproTicksIn>
												<pproTicksOut>71124480000</pproTicksOut>
												<sequence id="sequence-8"/>
												<labels>
													<label2>Iris</label2>
												</labels>
											</clipitem>
											<clipitem id="clipitem-651">
												<masterclipid>masterclip-157</masterclipid>
												<name>03 Zoom Out - Quick / Transform Out</name>
												<enabled>TRUE</enabled>
												<duration>1079999</duration>
												<rate>
													<timebase>25</timebase>
													<ntsc>FALSE</ntsc>
												</rate>
												<start>184</start>
												<end>191</end>
												<in>0</in>
												<out>8</out>
												<pproTicksIn>0</pproTicksIn>
												<pproTicksOut>81285120000</pproTicksOut>
												<sequence id="sequence-7"/>
													<marker>
														<comment></comment>
														<name></name>
														<in>17</in>
														<out>-1</out>
													</marker>
												<labels>
													<label2>Iris</label2>
												</labels>
											</clipitem>
											<clipitem id="clipitem-652">
												<masterclipid>masterclip-159</masterclipid>
												<name>03 Zoom Out - Quick / Transform In</name>
												<enabled>TRUE</enabled>
												<duration>1079999</duration>
												<rate>
													<timebase>25</timebase>
													<ntsc>FALSE</ntsc>
												</rate>
												<start>191</start>
												<end>199</end>
												<in>0</in>
												<out>8</out>
												<pproTicksIn>0</pproTicksIn>
												<pproTicksOut>81285120000</pproTicksOut>
												<sequence id="sequence-8"/>
												<filter>
													<effect>
														<name>Basic Motion</name>
														<effectid>basic</effectid>
														<effectcategory>motion</effectcategory>
														<effecttype>motion</effecttype>
														<mediatype>video</mediatype>
														<pproBypass>false</pproBypass>
														<parameter authoringApp="PremierePro">
															<parameterid>scale</parameterid>
															<name>Scale</name>
															<valuemin>0</valuemin>
															<valuemax>1000</valuemax>
															<value>100</value>
														</parameter>
														<parameter authoringApp="PremierePro">
															<parameterid>rotation</parameterid>
															<name>Rotation</name>
															<valuemin>-8640</valuemin>
															<valuemax>8640</valuemax>
															<value>0</value>
														</parameter>
														<parameter authoringApp="PremierePro">
															<parameterid>center</parameterid>
															<name>Center</name>
															<value>
																<horiz>-0.5</horiz>
																<vert>-0.499394</vert>
															</value>
														</parameter>
														<parameter authoringApp="PremierePro">
															<parameterid>centerOffset</parameterid>
															<name>Anchor Point</name>
															<value>
																<horiz>0</horiz>
																<vert>-0.00060606</vert>
															</value>
														</parameter>
														<parameter authoringApp="PremierePro">
															<parameterid>antiflicker</parameterid>
															<name>Anti-flicker Filter</name>
															<valuemin>0.0</valuemin>
															<valuemax>1.0</valuemax>
															<value>0</value>
														</parameter>
													</effect>
												</filter>
												<labels>
													<label2>Iris</label2>
												</labels>
											</clipitem>
											<enabled>TRUE</enabled>
											<locked>FALSE</locked>
										</track>
										<track TL.SQTrackShy="0" TL.SQTrackExpandedHeight="25" TL.SQTrackExpanded="0" MZ.TrackTargeted="0">
											<enabled>TRUE</enabled>
											<locked>FALSE</locked>
										</track>
									</video>
									<audio>
										<numOutputChannels>2</numOutputChannels>
										<format>
											<samplecharacteristics>
												<depth>16</depth>
												<samplerate>32000</samplerate>
											</samplecharacteristics>
										</format>
										<outputs>
											<group>
												<index>1</index>
												<numchannels>1</numchannels>
												<downmix>0</downmix>
												<channel>
													<index>1</index>
												</channel>
											</group>
											<group>
												<index>2</index>
												<numchannels>1</numchannels>
												<downmix>0</downmix>
												<channel>
													<index>2</index>
												</channel>
											</group>
										</outputs>
										<track TL.SQTrackAudioKeyframeStyle="0" TL.SQTrackShy="0" TL.SQTrackExpandedHeight="25" TL.SQTrackExpanded="0" MZ.TrackTargeted="1" PannerCurrentValue="0.5" PannerIsInverted="true" PannerStartKeyframe="-91445760000000000,0.5,0,0,0,0,0,0" PannerName="Balance" currentExplodedTrackIndex="0" totalExplodedTrackCount="2" premiereTrackType="Stereo">
											<clipitem id="clipitem-653" premiereChannelType="stereo">
												<masterclipid>masterclip-161</masterclipid>
												<name>ATM_DRONE_TRANS_D.mov</name>
												<enabled>TRUE</enabled>
												<duration>200</duration>
												<rate>
													<timebase>25</timebase>
													<ntsc>FALSE</ntsc>
												</rate>
												<start>0</start>
												<end>200</end>
												<in>0</in>
												<out>200</out>
												<pproTicksIn>0</pproTicksIn>
												<pproTicksOut>2032128000000</pproTicksOut>
												<file id="file-153"/>
												<sourcetrack>
													<mediatype>audio</mediatype>
													<trackindex>1</trackindex>
												</sourcetrack>
												<filter>
													<effect>
														<name>Gain</name>
														<effectid>{61756678, 4761696e, 4b657947}</effectid>
														<effecttype>filter</effecttype>
														<mediatype>audio</mediatype>
														<parameter authoringApp="PremierePro">
															<parameterid>Gain(dB)</parameterid>
															<name>Gain(dB)</name>
															<valuemin>-96</valuemin>
															<valuemax>96</valuemax>
															<value>-9</value>
														</parameter>
													</effect>
												</filter>
												<link>
													<linkclipref>clipitem-653</linkclipref>
													<mediatype>audio</mediatype>
													<trackindex>1</trackindex>
													<clipindex>1</clipindex>
													<groupindex>1</groupindex>
												</link>
												<link>
													<linkclipref>clipitem-654</linkclipref>
													<mediatype>audio</mediatype>
													<trackindex>2</trackindex>
													<clipindex>1</clipindex>
													<groupindex>1</groupindex>
												</link>
												<logginginfo>
													<description></description>
													<scene></scene>
													<shottake></shottake>
													<lognote></lognote>
													<good></good>
													<originalvideofilename></originalvideofilename>
													<originalaudiofilename></originalaudiofilename>
												</logginginfo>
												<colorinfo>
													<lut></lut>
													<lut1></lut1>
													<asc_sop></asc_sop>
													<asc_sat></asc_sat>
													<lut2></lut2>
												</colorinfo>
												<labels>
													<label2>Iris</label2>
												</labels>
											</clipitem>
											<enabled>TRUE</enabled>
											<locked>FALSE</locked>
											<outputchannelindex>1</outputchannelindex>
										</track>
										<track TL.SQTrackAudioKeyframeStyle="0" TL.SQTrackShy="0" TL.SQTrackExpandedHeight="25" TL.SQTrackExpanded="0" MZ.TrackTargeted="1" PannerCurrentValue="0.5" PannerIsInverted="true" PannerStartKeyframe="-91445760000000000,0.5,0,0,0,0,0,0" PannerName="Balance" currentExplodedTrackIndex="1" totalExplodedTrackCount="2" premiereTrackType="Stereo">
											<clipitem id="clipitem-654" premiereChannelType="stereo">
												<masterclipid>masterclip-161</masterclipid>
												<name>ATM_DRONE_TRANS_D.mov</name>
												<enabled>TRUE</enabled>
												<duration>200</duration>
												<rate>
													<timebase>25</timebase>
													<ntsc>FALSE</ntsc>
												</rate>
												<start>0</start>
												<end>200</end>
												<in>0</in>
												<out>200</out>
												<pproTicksIn>0</pproTicksIn>
												<pproTicksOut>2032128000000</pproTicksOut>
												<file id="file-153"/>
												<sourcetrack>
													<mediatype>audio</mediatype>
													<trackindex>2</trackindex>
												</sourcetrack>
												<filter>
													<effect>
														<name>Gain</name>
														<effectid>{61756678, 4761696e, 4b657947}</effectid>
														<effecttype>filter</effecttype>
														<mediatype>audio</mediatype>
														<parameter authoringApp="PremierePro">
															<parameterid>Gain(dB)</parameterid>
															<name>Gain(dB)</name>
															<valuemin>-96</valuemin>
															<valuemax>96</valuemax>
															<value>-9</value>
														</parameter>
													</effect>
												</filter>
												<link>
													<linkclipref>clipitem-653</linkclipref>
													<mediatype>audio</mediatype>
													<trackindex>1</trackindex>
													<clipindex>1</clipindex>
													<groupindex>1</groupindex>
												</link>
												<link>
													<linkclipref>clipitem-654</linkclipref>
													<mediatype>audio</mediatype>
													<trackindex>2</trackindex>
													<clipindex>1</clipindex>
													<groupindex>1</groupindex>
												</link>
												<logginginfo>
													<description></description>
													<scene></scene>
													<shottake></shottake>
													<lognote></lognote>
													<good></good>
													<originalvideofilename></originalvideofilename>
													<originalaudiofilename></originalaudiofilename>
												</logginginfo>
												<colorinfo>
													<lut></lut>
													<lut1></lut1>
													<asc_sop></asc_sop>
													<asc_sat></asc_sat>
													<lut2></lut2>
												</colorinfo>
												<labels>
													<label2>Iris</label2>
												</labels>
											</clipitem>
											<enabled>TRUE</enabled>
											<locked>FALSE</locked>
											<outputchannelindex>2</outputchannelindex>
										</track>
										<track TL.SQTrackAudioKeyframeStyle="0" TL.SQTrackShy="0" TL.SQTrackExpandedHeight="25" TL.SQTrackExpanded="0" MZ.TrackTargeted="1" PannerCurrentValue="0.5" PannerIsInverted="true" PannerStartKeyframe="-91445760000000000,0.5,0,0,0,0,0,0" PannerName="Balance" currentExplodedTrackIndex="0" totalExplodedTrackCount="2" premiereTrackType="Stereo">
											<enabled>TRUE</enabled>
											<locked>FALSE</locked>
											<outputchannelindex>1</outputchannelindex>
										</track>
										<track TL.SQTrackAudioKeyframeStyle="0" TL.SQTrackShy="0" TL.SQTrackExpandedHeight="25" TL.SQTrackExpanded="0" MZ.TrackTargeted="1" PannerCurrentValue="0.5" PannerIsInverted="true" PannerStartKeyframe="-91445760000000000,0.5,0,0,0,0,0,0" PannerName="Balance" currentExplodedTrackIndex="1" totalExplodedTrackCount="2" premiereTrackType="Stereo">
											<enabled>TRUE</enabled>
											<locked>FALSE</locked>
											<outputchannelindex>2</outputchannelindex>
										</track>
										<track TL.SQTrackAudioKeyframeStyle="0" TL.SQTrackShy="0" TL.SQTrackExpandedHeight="25" TL.SQTrackExpanded="0" MZ.TrackTargeted="1" PannerCurrentValue="0.5" PannerIsInverted="true" PannerStartKeyframe="-91445760000000000,0.5,0,0,0,0,0,0" PannerName="Balance" currentExplodedTrackIndex="0" totalExplodedTrackCount="2" premiereTrackType="Stereo">
											<enabled>TRUE</enabled>
											<locked>FALSE</locked>
											<outputchannelindex>1</outputchannelindex>
										</track>
										<track TL.SQTrackAudioKeyframeStyle="0" TL.SQTrackShy="0" TL.SQTrackExpandedHeight="25" TL.SQTrackExpanded="0" MZ.TrackTargeted="1" PannerCurrentValue="0.5" PannerIsInverted="true" PannerStartKeyframe="-91445760000000000,0.5,0,0,0,0,0,0" PannerName="Balance" currentExplodedTrackIndex="1" totalExplodedTrackCount="2" premiereTrackType="Stereo">
											<enabled>TRUE</enabled>
											<locked>FALSE</locked>
											<outputchannelindex>2</outputchannelindex>
										</track>
									</audio>
								</media>
								<timecode>
									<rate>
										<timebase>25</timebase>
										<ntsc>FALSE</ntsc>
									</rate>
									<string>00:00:00:00</string>
									<frame>0</frame>
									<displayformat>NDF</displayformat>
								</timecode>
									<marker>
										<comment></comment>
										<name></name>
										<in>192</in>
										<out>-1</out>
										<pproColor>4281828977</pproColor>
									</marker>
									<marker>
										<comment></comment>
										<name></name>
										<in>8</in>
										<out>-1</out>
										<pproColor>4281828977</pproColor>
									</marker>
								<labels>
									<label2>Tan</label2>
								</labels>
								<logginginfo>
									<description></description>
									<scene></scene>
									<shottake></shottake>
									<lognote></lognote>
									<good></good>
									<originalvideofilename></originalvideofilename>
									<originalaudiofilename></originalaudiofilename>
								</logginginfo>
							</sequence>
							<sequence id="sequence-46" TL.SQAudioVisibleBase="0" TL.SQVideoVisibleBase="0" TL.SQVisibleBaseTime="0" TL.SQAVDividerPosition="0.5" TL.SQHideShyTracks="0" TL.SQHeaderWidth="236" Monitor.ProgramZoomOut="2032128000000" Monitor.ProgramZoomIn="0" TL.SQTimePerPixel="0.0013336929292056424" MZ.EditLine="81285120000" MZ.Sequence.PreviewFrameSizeHeight="1080" MZ.Sequence.PreviewFrameSizeWidth="1920" MZ.Sequence.AudioTimeDisplayFormat="200" MZ.Sequence.PreviewRenderingClassID="1297106761" MZ.Sequence.PreviewRenderingPresetCodec="1297107278" MZ.Sequence.PreviewRenderingPresetPath="EncoderPresets/SequencePreview/795454d9-d3c2-429d-9474-923ab13b7018/I-Frame Only MPEG.epr" MZ.Sequence.PreviewUseMaxRenderQuality="false" MZ.Sequence.PreviewUseMaxBitDepth="false" MZ.Sequence.EditingModeGUID="795454d9-d3c2-429d-9474-923ab13b7018" MZ.Sequence.VideoTimeDisplayFormat="101" MZ.WorkOutPoint="15239249625600" MZ.WorkInPoint="0" explodedTracks="true">
								<uuid>3d44eddd-78fb-4ec4-bcda-a90a7bd9ee5a</uuid>
								<duration>200</duration>
								<rate>
									<timebase>25</timebase>
									<ntsc>FALSE</ntsc>
								</rate>
								<out>200</out>
								<name>Trans C</name>
								<media>
									<video>
										<format>
											<samplecharacteristics>
												<rate>
													<timebase>25</timebase>
													<ntsc>FALSE</ntsc>
												</rate>
												<codec>
													<name>Apple ProRes 422</name>
													<appspecificdata>
														<appname>Final Cut Pro</appname>
														<appmanufacturer>Apple Inc.</appmanufacturer>
														<appversion>7.0</appversion>
														<data>
															<qtcodec>
																<codecname>Apple ProRes 422</codecname>
																<codectypename>Apple ProRes 422</codectypename>
																<codectypecode>apcn</codectypecode>
																<codecvendorcode>appl</codecvendorcode>
																<spatialquality>1024</spatialquality>
																<temporalquality>0</temporalquality>
																<keyframerate>0</keyframerate>
																<datarate>0</datarate>
															</qtcodec>
														</data>
													</appspecificdata>
												</codec>
												<width>1920</width>
												<height>1080</height>
												<anamorphic>FALSE</anamorphic>
												<pixelaspectratio>square</pixelaspectratio>
												<fielddominance>none</fielddominance>
												<colordepth>24</colordepth>
											</samplecharacteristics>
										</format>
										<track TL.SQTrackShy="0" TL.SQTrackExpandedHeight="25" TL.SQTrackExpanded="0" MZ.TrackTargeted="1">
											<clipitem id="clipitem-655">
												<masterclipid>masterclip-345</masterclipid>
												<name>ATM_DRONE_TRANS_C.mov</name>
												<enabled>TRUE</enabled>
												<duration>240</duration>
												<rate>
													<timebase>25</timebase>
													<ntsc>FALSE</ntsc>
												</rate>
												<start>8</start>
												<end>191</end>
												<in>18</in>
												<out>201</out>
												<pproTicksIn>182891520000</pproTicksIn>
												<pproTicksOut>2042288640000</pproTicksOut>
												<alphatype>straight</alphatype>
												<pixelaspectratio>square</pixelaspectratio>
												<anamorphic>FALSE</anamorphic>
												<file id="file-317">
													<name>ATM_DRONE_TRANS_C.mov</name>
													<pathurl>file://localhost/Volumes/T7/DRONE_08.18.2023/4_Project%20Files/Drone%202023%20Master%20Assets/02_Transitions/DRONE%20transitions%20(30fps)/ATM_DRONE_TRANS_C.mov</pathurl>
													<rate>
														<timebase>30</timebase>
														<ntsc>TRUE</ntsc>
													</rate>
													<duration>240</duration>
													<timecode>
														<rate>
															<timebase>30</timebase>
															<ntsc>TRUE</ntsc>
														</rate>
														<string>00;01;09;06</string>
														<frame>2074</frame>
														<displayformat>DF</displayformat>
													</timecode>
													<media>
														<video>
															<samplecharacteristics>
																<rate>
																	<timebase>30</timebase>
																	<ntsc>TRUE</ntsc>
																</rate>
																<width>1920</width>
																<height>1080</height>
																<anamorphic>FALSE</anamorphic>
																<pixelaspectratio>square</pixelaspectratio>
																<fielddominance>none</fielddominance>
															</samplecharacteristics>
														</video>
														<audio>
															<samplecharacteristics>
																<depth>16</depth>
																<samplerate>48000</samplerate>
															</samplecharacteristics>
															<channelcount>2</channelcount>
														</audio>
													</media>
												</file>
												<logginginfo>
													<description></description>
													<scene></scene>
													<shottake></shottake>
													<lognote></lognote>
													<good></good>
													<originalvideofilename></originalvideofilename>
													<originalaudiofilename></originalaudiofilename>
												</logginginfo>
												<colorinfo>
													<lut></lut>
													<lut1></lut1>
													<asc_sop></asc_sop>
													<asc_sat></asc_sat>
													<lut2></lut2>
												</colorinfo>
												<labels>
													<label2>Iris</label2>
												</labels>
											</clipitem>
											<enabled>TRUE</enabled>
											<locked>FALSE</locked>
										</track>
										<track TL.SQTrackShy="0" TL.SQTrackExpandedHeight="25" TL.SQTrackExpanded="0" MZ.TrackTargeted="0">
											<clipitem id="clipitem-656">
												<masterclipid>masterclip-157</masterclipid>
												<name>02 Zoom In - Quick / Transform Out</name>
												<enabled>TRUE</enabled>
												<duration>1079999</duration>
												<rate>
													<timebase>25</timebase>
													<ntsc>FALSE</ntsc>
												</rate>
												<start>0</start>
												<end>8</end>
												<in>0</in>
												<out>8</out>
												<pproTicksIn>0</pproTicksIn>
												<pproTicksOut>81285120000</pproTicksOut>
												<sequence id="sequence-7"/>
													<marker>
														<comment></comment>
														<name></name>
														<in>17</in>
														<out>-1</out>
													</marker>
												<labels>
													<label2>Iris</label2>
												</labels>
											</clipitem>
											<clipitem id="clipitem-657">
												<masterclipid>masterclip-159</masterclipid>
												<name>02 Zoom In - Quick / Transform In</name>
												<enabled>TRUE</enabled>
												<duration>1079999</duration>
												<rate>
													<timebase>25</timebase>
													<ntsc>FALSE</ntsc>
												</rate>
												<start>8</start>
												<end>14</end>
												<in>0</in>
												<out>7</out>
												<pproTicksIn>0</pproTicksIn>
												<pproTicksOut>71124480000</pproTicksOut>
												<sequence id="sequence-8"/>
												<labels>
													<label2>Iris</label2>
												</labels>
											</clipitem>
											<clipitem id="clipitem-658">
												<masterclipid>masterclip-157</masterclipid>
												<name>03 Zoom Out - Quick / Transform Out</name>
												<enabled>TRUE</enabled>
												<duration>1079999</duration>
												<rate>
													<timebase>25</timebase>
													<ntsc>FALSE</ntsc>
												</rate>
												<start>184</start>
												<end>191</end>
												<in>0</in>
												<out>8</out>
												<pproTicksIn>0</pproTicksIn>
												<pproTicksOut>81285120000</pproTicksOut>
												<sequence id="sequence-7"/>
													<marker>
														<comment></comment>
														<name></name>
														<in>17</in>
														<out>-1</out>
													</marker>
												<labels>
													<label2>Iris</label2>
												</labels>
											</clipitem>
											<clipitem id="clipitem-659">
												<masterclipid>masterclip-159</masterclipid>
												<name>03 Zoom Out - Quick / Transform In</name>
												<enabled>TRUE</enabled>
												<duration>1079999</duration>
												<rate>
													<timebase>25</timebase>
													<ntsc>FALSE</ntsc>
												</rate>
												<start>191</start>
												<end>199</end>
												<in>0</in>
												<out>8</out>
												<pproTicksIn>0</pproTicksIn>
												<pproTicksOut>81285120000</pproTicksOut>
												<sequence id="sequence-8"/>
												<filter>
													<effect>
														<name>Basic Motion</name>
														<effectid>basic</effectid>
														<effectcategory>motion</effectcategory>
														<effecttype>motion</effecttype>
														<mediatype>video</mediatype>
														<pproBypass>false</pproBypass>
														<parameter authoringApp="PremierePro">
															<parameterid>scale</parameterid>
															<name>Scale</name>
															<valuemin>0</valuemin>
															<valuemax>1000</valuemax>
															<value>100</value>
														</parameter>
														<parameter authoringApp="PremierePro">
															<parameterid>rotation</parameterid>
															<name>Rotation</name>
															<valuemin>-8640</valuemin>
															<valuemax>8640</valuemax>
															<value>0</value>
														</parameter>
														<parameter authoringApp="PremierePro">
															<parameterid>center</parameterid>
															<name>Center</name>
															<value>
																<horiz>-0.5</horiz>
																<vert>-0.499394</vert>
															</value>
														</parameter>
														<parameter authoringApp="PremierePro">
															<parameterid>centerOffset</parameterid>
															<name>Anchor Point</name>
															<value>
																<horiz>0</horiz>
																<vert>-0.00060606</vert>
															</value>
														</parameter>
														<parameter authoringApp="PremierePro">
															<parameterid>antiflicker</parameterid>
															<name>Anti-flicker Filter</name>
															<valuemin>0.0</valuemin>
															<valuemax>1.0</valuemax>
															<value>0</value>
														</parameter>
													</effect>
												</filter>
												<labels>
													<label2>Iris</label2>
												</labels>
											</clipitem>
											<enabled>TRUE</enabled>
											<locked>FALSE</locked>
										</track>
										<track TL.SQTrackShy="0" TL.SQTrackExpandedHeight="25" TL.SQTrackExpanded="0" MZ.TrackTargeted="0">
											<enabled>TRUE</enabled>
											<locked>FALSE</locked>
										</track>
									</video>
									<audio>
										<numOutputChannels>2</numOutputChannels>
										<format>
											<samplecharacteristics>
												<depth>16</depth>
												<samplerate>32000</samplerate>
											</samplecharacteristics>
										</format>
										<outputs>
											<group>
												<index>1</index>
												<numchannels>1</numchannels>
												<downmix>0</downmix>
												<channel>
													<index>1</index>
												</channel>
											</group>
											<group>
												<index>2</index>
												<numchannels>1</numchannels>
												<downmix>0</downmix>
												<channel>
													<index>2</index>
												</channel>
											</group>
										</outputs>
										<track TL.SQTrackAudioKeyframeStyle="0" TL.SQTrackShy="0" TL.SQTrackExpandedHeight="25" TL.SQTrackExpanded="0" MZ.TrackTargeted="1" PannerCurrentValue="0.5" PannerIsInverted="true" PannerStartKeyframe="-91445760000000000,0.5,0,0,0,0,0,0" PannerName="Balance" currentExplodedTrackIndex="0" totalExplodedTrackCount="2" premiereTrackType="Stereo">
											<clipitem id="clipitem-660" premiereChannelType="stereo">
												<masterclipid>masterclip-236</masterclipid>
												<name>ATM_DRONE_TRANS_C.mov</name>
												<enabled>TRUE</enabled>
												<duration>200</duration>
												<rate>
													<timebase>25</timebase>
													<ntsc>FALSE</ntsc>
												</rate>
												<start>0</start>
												<end>200</end>
												<in>0</in>
												<out>200</out>
												<pproTicksIn>0</pproTicksIn>
												<pproTicksOut>2032128000000</pproTicksOut>
												<file id="file-217"/>
												<sourcetrack>
													<mediatype>audio</mediatype>
													<trackindex>1</trackindex>
												</sourcetrack>
												<filter>
													<effect>
														<name>Gain</name>
														<effectid>{61756678, 4761696e, 4b657947}</effectid>
														<effecttype>filter</effecttype>
														<mediatype>audio</mediatype>
														<parameter authoringApp="PremierePro">
															<parameterid>Gain(dB)</parameterid>
															<name>Gain(dB)</name>
															<valuemin>-96</valuemin>
															<valuemax>96</valuemax>
															<value>-9</value>
														</parameter>
													</effect>
												</filter>
												<link>
													<linkclipref>clipitem-660</linkclipref>
													<mediatype>audio</mediatype>
													<trackindex>1</trackindex>
													<clipindex>1</clipindex>
													<groupindex>1</groupindex>
												</link>
												<link>
													<linkclipref>clipitem-661</linkclipref>
													<mediatype>audio</mediatype>
													<trackindex>2</trackindex>
													<clipindex>1</clipindex>
													<groupindex>1</groupindex>
												</link>
												<logginginfo>
													<description></description>
													<scene></scene>
													<shottake></shottake>
													<lognote></lognote>
													<good></good>
													<originalvideofilename></originalvideofilename>
													<originalaudiofilename></originalaudiofilename>
												</logginginfo>
												<colorinfo>
													<lut></lut>
													<lut1></lut1>
													<asc_sop></asc_sop>
													<asc_sat></asc_sat>
													<lut2></lut2>
												</colorinfo>
												<labels>
													<label2>Iris</label2>
												</labels>
											</clipitem>
											<enabled>TRUE</enabled>
											<locked>FALSE</locked>
											<outputchannelindex>1</outputchannelindex>
										</track>
										<track TL.SQTrackAudioKeyframeStyle="0" TL.SQTrackShy="0" TL.SQTrackExpandedHeight="25" TL.SQTrackExpanded="0" MZ.TrackTargeted="1" PannerCurrentValue="0.5" PannerIsInverted="true" PannerStartKeyframe="-91445760000000000,0.5,0,0,0,0,0,0" PannerName="Balance" currentExplodedTrackIndex="1" totalExplodedTrackCount="2" premiereTrackType="Stereo">
											<clipitem id="clipitem-661" premiereChannelType="stereo">
												<masterclipid>masterclip-236</masterclipid>
												<name>ATM_DRONE_TRANS_C.mov</name>
												<enabled>TRUE</enabled>
												<duration>200</duration>
												<rate>
													<timebase>25</timebase>
													<ntsc>FALSE</ntsc>
												</rate>
												<start>0</start>
												<end>200</end>
												<in>0</in>
												<out>200</out>
												<pproTicksIn>0</pproTicksIn>
												<pproTicksOut>2032128000000</pproTicksOut>
												<file id="file-217"/>
												<sourcetrack>
													<mediatype>audio</mediatype>
													<trackindex>2</trackindex>
												</sourcetrack>
												<filter>
													<effect>
														<name>Gain</name>
														<effectid>{61756678, 4761696e, 4b657947}</effectid>
														<effecttype>filter</effecttype>
														<mediatype>audio</mediatype>
														<parameter authoringApp="PremierePro">
															<parameterid>Gain(dB)</parameterid>
															<name>Gain(dB)</name>
															<valuemin>-96</valuemin>
															<valuemax>96</valuemax>
															<value>-9</value>
														</parameter>
													</effect>
												</filter>
												<link>
													<linkclipref>clipitem-660</linkclipref>
													<mediatype>audio</mediatype>
													<trackindex>1</trackindex>
													<clipindex>1</clipindex>
													<groupindex>1</groupindex>
												</link>
												<link>
													<linkclipref>clipitem-661</linkclipref>
													<mediatype>audio</mediatype>
													<trackindex>2</trackindex>
													<clipindex>1</clipindex>
													<groupindex>1</groupindex>
												</link>
												<logginginfo>
													<description></description>
													<scene></scene>
													<shottake></shottake>
													<lognote></lognote>
													<good></good>
													<originalvideofilename></originalvideofilename>
													<originalaudiofilename></originalaudiofilename>
												</logginginfo>
												<colorinfo>
													<lut></lut>
													<lut1></lut1>
													<asc_sop></asc_sop>
													<asc_sat></asc_sat>
													<lut2></lut2>
												</colorinfo>
												<labels>
													<label2>Iris</label2>
												</labels>
											</clipitem>
											<enabled>TRUE</enabled>
											<locked>FALSE</locked>
											<outputchannelindex>2</outputchannelindex>
										</track>
										<track TL.SQTrackAudioKeyframeStyle="0" TL.SQTrackShy="0" TL.SQTrackExpandedHeight="25" TL.SQTrackExpanded="0" MZ.TrackTargeted="1" PannerCurrentValue="0.5" PannerIsInverted="true" PannerStartKeyframe="-91445760000000000,0.5,0,0,0,0,0,0" PannerName="Balance" currentExplodedTrackIndex="0" totalExplodedTrackCount="2" premiereTrackType="Stereo">
											<enabled>TRUE</enabled>
											<locked>FALSE</locked>
											<outputchannelindex>1</outputchannelindex>
										</track>
										<track TL.SQTrackAudioKeyframeStyle="0" TL.SQTrackShy="0" TL.SQTrackExpandedHeight="25" TL.SQTrackExpanded="0" MZ.TrackTargeted="1" PannerCurrentValue="0.5" PannerIsInverted="true" PannerStartKeyframe="-91445760000000000,0.5,0,0,0,0,0,0" PannerName="Balance" currentExplodedTrackIndex="1" totalExplodedTrackCount="2" premiereTrackType="Stereo">
											<enabled>TRUE</enabled>
											<locked>FALSE</locked>
											<outputchannelindex>2</outputchannelindex>
										</track>
										<track TL.SQTrackAudioKeyframeStyle="0" TL.SQTrackShy="0" TL.SQTrackExpandedHeight="25" TL.SQTrackExpanded="0" MZ.TrackTargeted="1" PannerCurrentValue="0.5" PannerIsInverted="true" PannerStartKeyframe="-91445760000000000,0.5,0,0,0,0,0,0" PannerName="Balance" currentExplodedTrackIndex="0" totalExplodedTrackCount="2" premiereTrackType="Stereo">
											<enabled>TRUE</enabled>
											<locked>FALSE</locked>
											<outputchannelindex>1</outputchannelindex>
										</track>
										<track TL.SQTrackAudioKeyframeStyle="0" TL.SQTrackShy="0" TL.SQTrackExpandedHeight="25" TL.SQTrackExpanded="0" MZ.TrackTargeted="1" PannerCurrentValue="0.5" PannerIsInverted="true" PannerStartKeyframe="-91445760000000000,0.5,0,0,0,0,0,0" PannerName="Balance" currentExplodedTrackIndex="1" totalExplodedTrackCount="2" premiereTrackType="Stereo">
											<enabled>TRUE</enabled>
											<locked>FALSE</locked>
											<outputchannelindex>2</outputchannelindex>
										</track>
									</audio>
								</media>
								<timecode>
									<rate>
										<timebase>25</timebase>
										<ntsc>FALSE</ntsc>
									</rate>
									<string>00:00:00:00</string>
									<frame>0</frame>
									<displayformat>NDF</displayformat>
								</timecode>
									<marker>
										<comment></comment>
										<name></name>
										<in>8</in>
										<out>-1</out>
										<pproColor>4281828977</pproColor>
									</marker>
									<marker>
										<comment></comment>
										<name></name>
										<in>192</in>
										<out>-1</out>
										<pproColor>4281828977</pproColor>
									</marker>
								<labels>
									<label2>Tan</label2>
								</labels>
								<logginginfo>
									<description></description>
									<scene></scene>
									<shottake></shottake>
									<lognote></lognote>
									<good></good>
									<originalvideofilename></originalvideofilename>
									<originalaudiofilename></originalaudiofilename>
								</logginginfo>
							</sequence>
							<sequence id="sequence-47" TL.SQAudioVisibleBase="0" TL.SQVideoVisibleBase="0" TL.SQVisibleBaseTime="0" TL.SQAVDividerPosition="0.5" TL.SQHideShyTracks="0" TL.SQHeaderWidth="236" Monitor.ProgramZoomOut="1310722560000" Monitor.ProgramZoomIn="0" TL.SQTimePerPixel="0.0089765010657277614" MZ.EditLine="1310722560000" MZ.Sequence.PreviewFrameSizeHeight="1080" MZ.Sequence.PreviewFrameSizeWidth="1920" MZ.Sequence.AudioTimeDisplayFormat="200" MZ.Sequence.PreviewRenderingClassID="1297106761" MZ.Sequence.PreviewRenderingPresetCodec="1297107278" MZ.Sequence.PreviewRenderingPresetPath="EncoderPresets/SequencePreview/795454d9-d3c2-429d-9474-923ab13b7018/I-Frame Only MPEG.epr" MZ.Sequence.PreviewUseMaxRenderQuality="false" MZ.Sequence.PreviewUseMaxBitDepth="false" MZ.Sequence.EditingModeGUID="795454d9-d3c2-429d-9474-923ab13b7018" MZ.Sequence.VideoTimeDisplayFormat="101" MZ.WorkOutPoint="15239249625600" MZ.WorkInPoint="0" explodedTracks="true">
								<uuid>29f2c600-0064-4006-ad90-16c08f5f8b40</uuid>
								<duration>129</duration>
								<rate>
									<timebase>25</timebase>
									<ntsc>FALSE</ntsc>
								</rate>
								<name>Trans B</name>
								<media>
									<video>
										<format>
											<samplecharacteristics>
												<rate>
													<timebase>25</timebase>
													<ntsc>FALSE</ntsc>
												</rate>
												<codec>
													<name>Apple ProRes 422</name>
													<appspecificdata>
														<appname>Final Cut Pro</appname>
														<appmanufacturer>Apple Inc.</appmanufacturer>
														<appversion>7.0</appversion>
														<data>
															<qtcodec>
																<codecname>Apple ProRes 422</codecname>
																<codectypename>Apple ProRes 422</codectypename>
																<codectypecode>apcn</codectypecode>
																<codecvendorcode>appl</codecvendorcode>
																<spatialquality>1024</spatialquality>
																<temporalquality>0</temporalquality>
																<keyframerate>0</keyframerate>
																<datarate>0</datarate>
															</qtcodec>
														</data>
													</appspecificdata>
												</codec>
												<width>1920</width>
												<height>1080</height>
												<anamorphic>FALSE</anamorphic>
												<pixelaspectratio>square</pixelaspectratio>
												<fielddominance>none</fielddominance>
												<colordepth>24</colordepth>
											</samplecharacteristics>
										</format>
										<track TL.SQTrackShy="0" TL.SQTrackExpandedHeight="25" TL.SQTrackExpanded="0" MZ.TrackTargeted="1">
											<clipitem id="clipitem-662">
												<masterclipid>masterclip-346</masterclipid>
												<name>ATM_DRONE_TRANS_B.mov</name>
												<enabled>TRUE</enabled>
												<duration>155</duration>
												<rate>
													<timebase>25</timebase>
													<ntsc>FALSE</ntsc>
												</rate>
												<start>8</start>
												<end>120</end>
												<in>24</in>
												<out>136</out>
												<pproTicksIn>243855360000</pproTicksIn>
												<pproTicksOut>1381847040000</pproTicksOut>
												<alphatype>straight</alphatype>
												<pixelaspectratio>square</pixelaspectratio>
												<anamorphic>FALSE</anamorphic>
												<file id="file-318">
													<name>ATM_DRONE_TRANS_B.mov</name>
													<pathurl>file://localhost/Volumes/T7/DRONE_08.18.2023/4_Project%20Files/Drone%202023%20Master%20Assets/02_Transitions/DRONE%20transitions%20(30fps)/ATM_DRONE_TRANS_B.mov</pathurl>
													<rate>
														<timebase>30</timebase>
														<ntsc>TRUE</ntsc>
													</rate>
													<duration>155</duration>
													<timecode>
														<rate>
															<timebase>30</timebase>
															<ntsc>TRUE</ntsc>
														</rate>
														<string>00;01;02;13</string>
														<frame>1871</frame>
														<displayformat>DF</displayformat>
													</timecode>
													<media>
														<video>
															<samplecharacteristics>
																<rate>
																	<timebase>30</timebase>
																	<ntsc>TRUE</ntsc>
																</rate>
																<width>1920</width>
																<height>1080</height>
																<anamorphic>FALSE</anamorphic>
																<pixelaspectratio>square</pixelaspectratio>
																<fielddominance>none</fielddominance>
															</samplecharacteristics>
														</video>
														<audio>
															<samplecharacteristics>
																<depth>16</depth>
																<samplerate>48000</samplerate>
															</samplecharacteristics>
															<channelcount>2</channelcount>
														</audio>
													</media>
												</file>
												<logginginfo>
													<description></description>
													<scene></scene>
													<shottake></shottake>
													<lognote></lognote>
													<good></good>
													<originalvideofilename></originalvideofilename>
													<originalaudiofilename></originalaudiofilename>
												</logginginfo>
												<colorinfo>
													<lut></lut>
													<lut1></lut1>
													<asc_sop></asc_sop>
													<asc_sat></asc_sat>
													<lut2></lut2>
												</colorinfo>
												<labels>
													<label2>Iris</label2>
												</labels>
											</clipitem>
											<enabled>TRUE</enabled>
											<locked>FALSE</locked>
										</track>
										<track TL.SQTrackShy="0" TL.SQTrackExpandedHeight="25" TL.SQTrackExpanded="0" MZ.TrackTargeted="0">
											<clipitem id="clipitem-663">
												<masterclipid>masterclip-157</masterclipid>
												<name>02 Zoom In - Quick / Transform Out</name>
												<enabled>TRUE</enabled>
												<duration>1079999</duration>
												<rate>
													<timebase>25</timebase>
													<ntsc>FALSE</ntsc>
												</rate>
												<start>0</start>
												<end>8</end>
												<in>0</in>
												<out>8</out>
												<pproTicksIn>0</pproTicksIn>
												<pproTicksOut>81285120000</pproTicksOut>
												<sequence id="sequence-7"/>
													<marker>
														<comment></comment>
														<name></name>
														<in>17</in>
														<out>-1</out>
													</marker>
												<labels>
													<label2>Iris</label2>
												</labels>
											</clipitem>
											<clipitem id="clipitem-664">
												<masterclipid>masterclip-159</masterclipid>
												<name>02 Zoom In - Quick / Transform In</name>
												<enabled>TRUE</enabled>
												<duration>1079999</duration>
												<rate>
													<timebase>25</timebase>
													<ntsc>FALSE</ntsc>
												</rate>
												<start>8</start>
												<end>14</end>
												<in>0</in>
												<out>7</out>
												<pproTicksIn>0</pproTicksIn>
												<pproTicksOut>71124480000</pproTicksOut>
												<sequence id="sequence-8"/>
												<labels>
													<label2>Iris</label2>
												</labels>
											</clipitem>
											<clipitem id="clipitem-665">
												<masterclipid>masterclip-157</masterclipid>
												<name>03 Zoom Out - Quick / Transform Out</name>
												<enabled>TRUE</enabled>
												<duration>1079999</duration>
												<rate>
													<timebase>25</timebase>
													<ntsc>FALSE</ntsc>
												</rate>
												<start>113</start>
												<end>120</end>
												<in>0</in>
												<out>8</out>
												<pproTicksIn>0</pproTicksIn>
												<pproTicksOut>81285120000</pproTicksOut>
												<sequence id="sequence-7"/>
													<marker>
														<comment></comment>
														<name></name>
														<in>17</in>
														<out>-1</out>
													</marker>
												<labels>
													<label2>Iris</label2>
												</labels>
											</clipitem>
											<clipitem id="clipitem-666">
												<masterclipid>masterclip-159</masterclipid>
												<name>03 Zoom Out - Quick / Transform In</name>
												<enabled>TRUE</enabled>
												<duration>1079999</duration>
												<rate>
													<timebase>25</timebase>
													<ntsc>FALSE</ntsc>
												</rate>
												<start>120</start>
												<end>128</end>
												<in>0</in>
												<out>8</out>
												<pproTicksIn>0</pproTicksIn>
												<pproTicksOut>81285120000</pproTicksOut>
												<sequence id="sequence-8"/>
												<filter>
													<effect>
														<name>Basic Motion</name>
														<effectid>basic</effectid>
														<effectcategory>motion</effectcategory>
														<effecttype>motion</effecttype>
														<mediatype>video</mediatype>
														<pproBypass>false</pproBypass>
														<parameter authoringApp="PremierePro">
															<parameterid>scale</parameterid>
															<name>Scale</name>
															<valuemin>0</valuemin>
															<valuemax>1000</valuemax>
															<value>100</value>
														</parameter>
														<parameter authoringApp="PremierePro">
															<parameterid>rotation</parameterid>
															<name>Rotation</name>
															<valuemin>-8640</valuemin>
															<valuemax>8640</valuemax>
															<value>0</value>
														</parameter>
														<parameter authoringApp="PremierePro">
															<parameterid>center</parameterid>
															<name>Center</name>
															<value>
																<horiz>-0.5</horiz>
																<vert>-0.499394</vert>
															</value>
														</parameter>
														<parameter authoringApp="PremierePro">
															<parameterid>centerOffset</parameterid>
															<name>Anchor Point</name>
															<value>
																<horiz>0</horiz>
																<vert>-0.00060606</vert>
															</value>
														</parameter>
														<parameter authoringApp="PremierePro">
															<parameterid>antiflicker</parameterid>
															<name>Anti-flicker Filter</name>
															<valuemin>0.0</valuemin>
															<valuemax>1.0</valuemax>
															<value>0</value>
														</parameter>
													</effect>
												</filter>
												<labels>
													<label2>Iris</label2>
												</labels>
											</clipitem>
											<enabled>TRUE</enabled>
											<locked>FALSE</locked>
										</track>
										<track TL.SQTrackShy="0" TL.SQTrackExpandedHeight="25" TL.SQTrackExpanded="0" MZ.TrackTargeted="0">
											<enabled>TRUE</enabled>
											<locked>FALSE</locked>
										</track>
									</video>
									<audio>
										<numOutputChannels>2</numOutputChannels>
										<format>
											<samplecharacteristics>
												<depth>16</depth>
												<samplerate>32000</samplerate>
											</samplecharacteristics>
										</format>
										<outputs>
											<group>
												<index>1</index>
												<numchannels>1</numchannels>
												<downmix>0</downmix>
												<channel>
													<index>1</index>
												</channel>
											</group>
											<group>
												<index>2</index>
												<numchannels>1</numchannels>
												<downmix>0</downmix>
												<channel>
													<index>2</index>
												</channel>
											</group>
										</outputs>
										<track TL.SQTrackAudioKeyframeStyle="0" TL.SQTrackShy="0" TL.SQTrackExpandedHeight="25" TL.SQTrackExpanded="0" MZ.TrackTargeted="1" PannerCurrentValue="0.5" PannerIsInverted="true" PannerStartKeyframe="-91445760000000000,0.5,0,0,0,0,0,0" PannerName="Balance" currentExplodedTrackIndex="0" totalExplodedTrackCount="2" premiereTrackType="Stereo">
											<clipitem id="clipitem-667" premiereChannelType="stereo">
												<masterclipid>masterclip-156</masterclipid>
												<name>ATM_DRONE_TRANS_B.mov</name>
												<enabled>TRUE</enabled>
												<duration>129</duration>
												<rate>
													<timebase>25</timebase>
													<ntsc>FALSE</ntsc>
												</rate>
												<start>0</start>
												<end>129</end>
												<in>0</in>
												<out>129</out>
												<pproTicksIn>0</pproTicksIn>
												<pproTicksOut>1310722560000</pproTicksOut>
												<file id="file-152"/>
												<sourcetrack>
													<mediatype>audio</mediatype>
													<trackindex>1</trackindex>
												</sourcetrack>
												<filter>
													<effect>
														<name>Gain</name>
														<effectid>{61756678, 4761696e, 4b657947}</effectid>
														<effecttype>filter</effecttype>
														<mediatype>audio</mediatype>
														<parameter authoringApp="PremierePro">
															<parameterid>Gain(dB)</parameterid>
															<name>Gain(dB)</name>
															<valuemin>-96</valuemin>
															<valuemax>96</valuemax>
															<value>-9</value>
														</parameter>
													</effect>
												</filter>
												<link>
													<linkclipref>clipitem-667</linkclipref>
													<mediatype>audio</mediatype>
													<trackindex>1</trackindex>
													<clipindex>1</clipindex>
													<groupindex>1</groupindex>
												</link>
												<link>
													<linkclipref>clipitem-668</linkclipref>
													<mediatype>audio</mediatype>
													<trackindex>2</trackindex>
													<clipindex>1</clipindex>
													<groupindex>1</groupindex>
												</link>
												<logginginfo>
													<description></description>
													<scene></scene>
													<shottake></shottake>
													<lognote></lognote>
													<good></good>
													<originalvideofilename></originalvideofilename>
													<originalaudiofilename></originalaudiofilename>
												</logginginfo>
												<colorinfo>
													<lut></lut>
													<lut1></lut1>
													<asc_sop></asc_sop>
													<asc_sat></asc_sat>
													<lut2></lut2>
												</colorinfo>
												<labels>
													<label2>Iris</label2>
												</labels>
											</clipitem>
											<enabled>TRUE</enabled>
											<locked>FALSE</locked>
											<outputchannelindex>1</outputchannelindex>
										</track>
										<track TL.SQTrackAudioKeyframeStyle="0" TL.SQTrackShy="0" TL.SQTrackExpandedHeight="25" TL.SQTrackExpanded="0" MZ.TrackTargeted="1" PannerCurrentValue="0.5" PannerIsInverted="true" PannerStartKeyframe="-91445760000000000,0.5,0,0,0,0,0,0" PannerName="Balance" currentExplodedTrackIndex="1" totalExplodedTrackCount="2" premiereTrackType="Stereo">
											<clipitem id="clipitem-668" premiereChannelType="stereo">
												<masterclipid>masterclip-156</masterclipid>
												<name>ATM_DRONE_TRANS_B.mov</name>
												<enabled>TRUE</enabled>
												<duration>129</duration>
												<rate>
													<timebase>25</timebase>
													<ntsc>FALSE</ntsc>
												</rate>
												<start>0</start>
												<end>129</end>
												<in>0</in>
												<out>129</out>
												<pproTicksIn>0</pproTicksIn>
												<pproTicksOut>1310722560000</pproTicksOut>
												<file id="file-152"/>
												<sourcetrack>
													<mediatype>audio</mediatype>
													<trackindex>2</trackindex>
												</sourcetrack>
												<filter>
													<effect>
														<name>Gain</name>
														<effectid>{61756678, 4761696e, 4b657947}</effectid>
														<effecttype>filter</effecttype>
														<mediatype>audio</mediatype>
														<parameter authoringApp="PremierePro">
															<parameterid>Gain(dB)</parameterid>
															<name>Gain(dB)</name>
															<valuemin>-96</valuemin>
															<valuemax>96</valuemax>
															<value>-9</value>
														</parameter>
													</effect>
												</filter>
												<link>
													<linkclipref>clipitem-667</linkclipref>
													<mediatype>audio</mediatype>
													<trackindex>1</trackindex>
													<clipindex>1</clipindex>
													<groupindex>1</groupindex>
												</link>
												<link>
													<linkclipref>clipitem-668</linkclipref>
													<mediatype>audio</mediatype>
													<trackindex>2</trackindex>
													<clipindex>1</clipindex>
													<groupindex>1</groupindex>
												</link>
												<logginginfo>
													<description></description>
													<scene></scene>
													<shottake></shottake>
													<lognote></lognote>
													<good></good>
													<originalvideofilename></originalvideofilename>
													<originalaudiofilename></originalaudiofilename>
												</logginginfo>
												<colorinfo>
													<lut></lut>
													<lut1></lut1>
													<asc_sop></asc_sop>
													<asc_sat></asc_sat>
													<lut2></lut2>
												</colorinfo>
												<labels>
													<label2>Iris</label2>
												</labels>
											</clipitem>
											<enabled>TRUE</enabled>
											<locked>FALSE</locked>
											<outputchannelindex>2</outputchannelindex>
										</track>
										<track TL.SQTrackAudioKeyframeStyle="0" TL.SQTrackShy="0" TL.SQTrackExpandedHeight="25" TL.SQTrackExpanded="0" MZ.TrackTargeted="1" PannerCurrentValue="0.5" PannerIsInverted="true" PannerStartKeyframe="-91445760000000000,0.5,0,0,0,0,0,0" PannerName="Balance" currentExplodedTrackIndex="0" totalExplodedTrackCount="2" premiereTrackType="Stereo">
											<enabled>TRUE</enabled>
											<locked>FALSE</locked>
											<outputchannelindex>1</outputchannelindex>
										</track>
										<track TL.SQTrackAudioKeyframeStyle="0" TL.SQTrackShy="0" TL.SQTrackExpandedHeight="25" TL.SQTrackExpanded="0" MZ.TrackTargeted="1" PannerCurrentValue="0.5" PannerIsInverted="true" PannerStartKeyframe="-91445760000000000,0.5,0,0,0,0,0,0" PannerName="Balance" currentExplodedTrackIndex="1" totalExplodedTrackCount="2" premiereTrackType="Stereo">
											<enabled>TRUE</enabled>
											<locked>FALSE</locked>
											<outputchannelindex>2</outputchannelindex>
										</track>
										<track TL.SQTrackAudioKeyframeStyle="0" TL.SQTrackShy="0" TL.SQTrackExpandedHeight="25" TL.SQTrackExpanded="0" MZ.TrackTargeted="1" PannerCurrentValue="0.5" PannerIsInverted="true" PannerStartKeyframe="-91445760000000000,0.5,0,0,0,0,0,0" PannerName="Balance" currentExplodedTrackIndex="0" totalExplodedTrackCount="2" premiereTrackType="Stereo">
											<enabled>TRUE</enabled>
											<locked>FALSE</locked>
											<outputchannelindex>1</outputchannelindex>
										</track>
										<track TL.SQTrackAudioKeyframeStyle="0" TL.SQTrackShy="0" TL.SQTrackExpandedHeight="25" TL.SQTrackExpanded="0" MZ.TrackTargeted="1" PannerCurrentValue="0.5" PannerIsInverted="true" PannerStartKeyframe="-91445760000000000,0.5,0,0,0,0,0,0" PannerName="Balance" currentExplodedTrackIndex="1" totalExplodedTrackCount="2" premiereTrackType="Stereo">
											<enabled>TRUE</enabled>
											<locked>FALSE</locked>
											<outputchannelindex>2</outputchannelindex>
										</track>
									</audio>
								</media>
								<timecode>
									<rate>
										<timebase>25</timebase>
										<ntsc>FALSE</ntsc>
									</rate>
									<string>00:00:00:00</string>
									<frame>0</frame>
									<displayformat>NDF</displayformat>
								</timecode>
									<marker>
										<comment></comment>
										<name></name>
										<in>8</in>
										<out>-1</out>
										<pproColor>4281828977</pproColor>
									</marker>
									<marker>
										<comment></comment>
										<name></name>
										<in>121</in>
										<out>-1</out>
										<pproColor>4281828977</pproColor>
									</marker>
								<labels>
									<label2>Tan</label2>
								</labels>
								<logginginfo>
									<description></description>
									<scene></scene>
									<shottake></shottake>
									<lognote></lognote>
									<good></good>
									<originalvideofilename></originalvideofilename>
									<originalaudiofilename></originalaudiofilename>
								</logginginfo>
							</sequence>
							<sequence id="sequence-48" TL.SQAudioVisibleBase="0" TL.SQVideoVisibleBase="0" TL.SQVisibleBaseTime="0" TL.SQAVDividerPosition="0.5" TL.SQHideShyTracks="0" TL.SQHeaderWidth="236" TL.SQDataTrackViewControlState="0" Monitor.ProgramZoomOut="2072770560000" Monitor.ProgramZoomIn="0" TL.SQTimePerPixel="0.01449514964944904" MZ.EditLine="2072770560000" MZ.Sequence.PreviewFrameSizeHeight="1080" MZ.Sequence.PreviewFrameSizeWidth="1920" MZ.Sequence.AudioTimeDisplayFormat="200" MZ.Sequence.PreviewRenderingClassID="1297106761" MZ.Sequence.PreviewRenderingPresetCodec="1297107278" MZ.Sequence.PreviewRenderingPresetPath="EncoderPresets/SequencePreview/795454d9-d3c2-429d-9474-923ab13b7018/I-Frame Only MPEG.epr" MZ.Sequence.PreviewUseMaxRenderQuality="false" MZ.Sequence.PreviewUseMaxBitDepth="false" MZ.Sequence.EditingModeGUID="795454d9-d3c2-429d-9474-923ab13b7018" MZ.Sequence.VideoTimeDisplayFormat="101" MZ.WorkOutPoint="15239249625600" MZ.WorkInPoint="0" explodedTracks="true">
								<uuid>39b5f71b-0331-4dd6-858a-3f3bcdc46a65</uuid>
								<duration>204</duration>
								<rate>
									<timebase>25</timebase>
									<ntsc>FALSE</ntsc>
								</rate>
								<name>Trans A</name>
								<media>
									<video>
										<format>
											<samplecharacteristics>
												<rate>
													<timebase>25</timebase>
													<ntsc>FALSE</ntsc>
												</rate>
												<codec>
													<name>Apple ProRes 422</name>
													<appspecificdata>
														<appname>Final Cut Pro</appname>
														<appmanufacturer>Apple Inc.</appmanufacturer>
														<appversion>7.0</appversion>
														<data>
															<qtcodec>
																<codecname>Apple ProRes 422</codecname>
																<codectypename>Apple ProRes 422</codectypename>
																<codectypecode>apcn</codectypecode>
																<codecvendorcode>appl</codecvendorcode>
																<spatialquality>1024</spatialquality>
																<temporalquality>0</temporalquality>
																<keyframerate>0</keyframerate>
																<datarate>0</datarate>
															</qtcodec>
														</data>
													</appspecificdata>
												</codec>
												<width>1920</width>
												<height>1080</height>
												<anamorphic>FALSE</anamorphic>
												<pixelaspectratio>square</pixelaspectratio>
												<fielddominance>none</fielddominance>
												<colordepth>24</colordepth>
											</samplecharacteristics>
										</format>
										<track TL.SQTrackShy="0" TL.SQTrackExpandedHeight="25" TL.SQTrackExpanded="0" MZ.TrackTargeted="1">
											<clipitem id="clipitem-669">
												<masterclipid>masterclip-347</masterclipid>
												<name>ATM_DRONE_TRANS_A.mov</name>
												<enabled>TRUE</enabled>
												<duration>248</duration>
												<rate>
													<timebase>25</timebase>
													<ntsc>FALSE</ntsc>
												</rate>
												<start>8</start>
												<end>197</end>
												<in>29</in>
												<out>218</out>
												<pproTicksIn>294658560000</pproTicksIn>
												<pproTicksOut>2215019520000</pproTicksOut>
												<alphatype>straight</alphatype>
												<pixelaspectratio>square</pixelaspectratio>
												<anamorphic>FALSE</anamorphic>
												<file id="file-319">
													<name>ATM_DRONE_TRANS_A.mov</name>
													<pathurl>file://localhost/Volumes/T7/DRONE_08.18.2023/4_Project%20Files/Drone%202023%20Master%20Assets/02_Transitions/DRONE%20transitions%20(30fps)/ATM_DRONE_TRANS_A.mov</pathurl>
													<rate>
														<timebase>30</timebase>
														<ntsc>TRUE</ntsc>
													</rate>
													<duration>248</duration>
													<timecode>
														<rate>
															<timebase>30</timebase>
															<ntsc>TRUE</ntsc>
														</rate>
														<string>00;01;18;04</string>
														<frame>2342</frame>
														<displayformat>DF</displayformat>
													</timecode>
													<media>
														<video>
															<samplecharacteristics>
																<rate>
																	<timebase>30</timebase>
																	<ntsc>TRUE</ntsc>
																</rate>
																<width>1920</width>
																<height>1080</height>
																<anamorphic>FALSE</anamorphic>
																<pixelaspectratio>square</pixelaspectratio>
																<fielddominance>none</fielddominance>
															</samplecharacteristics>
														</video>
														<audio>
															<samplecharacteristics>
																<depth>16</depth>
																<samplerate>48000</samplerate>
															</samplecharacteristics>
															<channelcount>2</channelcount>
														</audio>
													</media>
												</file>
												<logginginfo>
													<description></description>
													<scene></scene>
													<shottake></shottake>
													<lognote></lognote>
													<good></good>
													<originalvideofilename></originalvideofilename>
													<originalaudiofilename></originalaudiofilename>
												</logginginfo>
												<colorinfo>
													<lut></lut>
													<lut1></lut1>
													<asc_sop></asc_sop>
													<asc_sat></asc_sat>
													<lut2></lut2>
												</colorinfo>
												<labels>
													<label2>Iris</label2>
												</labels>
											</clipitem>
											<enabled>TRUE</enabled>
											<locked>FALSE</locked>
										</track>
										<track TL.SQTrackShy="0" TL.SQTrackExpandedHeight="25" TL.SQTrackExpanded="0" MZ.TrackTargeted="0">
											<clipitem id="clipitem-670">
												<masterclipid>masterclip-157</masterclipid>
												<name>02 Zoom In - Quick / Transform Out</name>
												<enabled>TRUE</enabled>
												<duration>1079999</duration>
												<rate>
													<timebase>25</timebase>
													<ntsc>FALSE</ntsc>
												</rate>
												<start>0</start>
												<end>8</end>
												<in>0</in>
												<out>8</out>
												<pproTicksIn>0</pproTicksIn>
												<pproTicksOut>81285120000</pproTicksOut>
												<sequence id="sequence-7"/>
													<marker>
														<comment></comment>
														<name></name>
														<in>17</in>
														<out>-1</out>
													</marker>
												<labels>
													<label2>Iris</label2>
												</labels>
											</clipitem>
											<clipitem id="clipitem-671">
												<masterclipid>masterclip-159</masterclipid>
												<name>02 Zoom In - Quick / Transform In</name>
												<enabled>TRUE</enabled>
												<duration>1079999</duration>
												<rate>
													<timebase>25</timebase>
													<ntsc>FALSE</ntsc>
												</rate>
												<start>8</start>
												<end>14</end>
												<in>0</in>
												<out>7</out>
												<pproTicksIn>0</pproTicksIn>
												<pproTicksOut>71124480000</pproTicksOut>
												<sequence id="sequence-8"/>
												<labels>
													<label2>Iris</label2>
												</labels>
											</clipitem>
											<clipitem id="clipitem-672">
												<masterclipid>masterclip-157</masterclipid>
												<name>03 Zoom Out - Quick / Transform Out</name>
												<enabled>TRUE</enabled>
												<duration>1079999</duration>
												<rate>
													<timebase>25</timebase>
													<ntsc>FALSE</ntsc>
												</rate>
												<start>189</start>
												<end>197</end>
												<in>0</in>
												<out>8</out>
												<pproTicksIn>0</pproTicksIn>
												<pproTicksOut>81285120000</pproTicksOut>
												<sequence id="sequence-7"/>
													<marker>
														<comment></comment>
														<name></name>
														<in>17</in>
														<out>-1</out>
													</marker>
												<labels>
													<label2>Iris</label2>
												</labels>
											</clipitem>
											<clipitem id="clipitem-673">
												<masterclipid>masterclip-159</masterclipid>
												<name>03 Zoom Out - Quick / Transform In</name>
												<enabled>TRUE</enabled>
												<duration>1079999</duration>
												<rate>
													<timebase>25</timebase>
													<ntsc>FALSE</ntsc>
												</rate>
												<start>197</start>
												<end>204</end>
												<in>0</in>
												<out>8</out>
												<pproTicksIn>0</pproTicksIn>
												<pproTicksOut>81285120000</pproTicksOut>
												<sequence id="sequence-8"/>
												<filter>
													<effect>
														<name>Basic Motion</name>
														<effectid>basic</effectid>
														<effectcategory>motion</effectcategory>
														<effecttype>motion</effecttype>
														<mediatype>video</mediatype>
														<pproBypass>false</pproBypass>
														<parameter authoringApp="PremierePro">
															<parameterid>scale</parameterid>
															<name>Scale</name>
															<valuemin>0</valuemin>
															<valuemax>1000</valuemax>
															<value>100</value>
														</parameter>
														<parameter authoringApp="PremierePro">
															<parameterid>rotation</parameterid>
															<name>Rotation</name>
															<valuemin>-8640</valuemin>
															<valuemax>8640</valuemax>
															<value>0</value>
														</parameter>
														<parameter authoringApp="PremierePro">
															<parameterid>center</parameterid>
															<name>Center</name>
															<value>
																<horiz>-0.5</horiz>
																<vert>-0.499394</vert>
															</value>
														</parameter>
														<parameter authoringApp="PremierePro">
															<parameterid>centerOffset</parameterid>
															<name>Anchor Point</name>
															<value>
																<horiz>0</horiz>
																<vert>-0.00060606</vert>
															</value>
														</parameter>
														<parameter authoringApp="PremierePro">
															<parameterid>antiflicker</parameterid>
															<name>Anti-flicker Filter</name>
															<valuemin>0.0</valuemin>
															<valuemax>1.0</valuemax>
															<value>0</value>
														</parameter>
													</effect>
												</filter>
												<labels>
													<label2>Iris</label2>
												</labels>
											</clipitem>
											<enabled>TRUE</enabled>
											<locked>FALSE</locked>
										</track>
										<track TL.SQTrackShy="0" TL.SQTrackExpandedHeight="25" TL.SQTrackExpanded="0" MZ.TrackTargeted="0">
											<enabled>TRUE</enabled>
											<locked>FALSE</locked>
										</track>
										<track TL.SQTrackShy="0" TL.SQTrackExpandedHeight="25" TL.SQTrackExpanded="0" MZ.TrackTargeted="0">
											<enabled>TRUE</enabled>
											<locked>FALSE</locked>
										</track>
									</video>
									<audio>
										<numOutputChannels>2</numOutputChannels>
										<format>
											<samplecharacteristics>
												<depth>16</depth>
												<samplerate>32000</samplerate>
											</samplecharacteristics>
										</format>
										<outputs>
											<group>
												<index>1</index>
												<numchannels>1</numchannels>
												<downmix>0</downmix>
												<channel>
													<index>1</index>
												</channel>
											</group>
											<group>
												<index>2</index>
												<numchannels>1</numchannels>
												<downmix>0</downmix>
												<channel>
													<index>2</index>
												</channel>
											</group>
										</outputs>
										<track TL.SQTrackAudioKeyframeStyle="0" TL.SQTrackShy="0" TL.SQTrackExpandedHeight="25" TL.SQTrackExpanded="0" MZ.TrackTargeted="1" PannerCurrentValue="0.5" PannerIsInverted="true" PannerStartKeyframe="-91445760000000000,0.5,0,0,0,0,0,0" PannerName="Balance" currentExplodedTrackIndex="0" totalExplodedTrackCount="2" premiereTrackType="Stereo">
											<clipitem id="clipitem-674" premiereChannelType="stereo">
												<masterclipid>masterclip-234</masterclipid>
												<name>ATM_DRONE_TRANS_A.mov</name>
												<enabled>TRUE</enabled>
												<duration>206</duration>
												<rate>
													<timebase>25</timebase>
													<ntsc>FALSE</ntsc>
												</rate>
												<start>0</start>
												<end>204</end>
												<in>3</in>
												<out>207</out>
												<pproTicksIn>30481920000</pproTicksIn>
												<pproTicksOut>2103252480000</pproTicksOut>
												<file id="file-216"/>
												<sourcetrack>
													<mediatype>audio</mediatype>
													<trackindex>1</trackindex>
												</sourcetrack>
												<filter>
													<effect>
														<name>Gain</name>
														<effectid>{61756678, 4761696e, 4b657947}</effectid>
														<effecttype>filter</effecttype>
														<mediatype>audio</mediatype>
														<parameter authoringApp="PremierePro">
															<parameterid>Gain(dB)</parameterid>
															<name>Gain(dB)</name>
															<valuemin>-96</valuemin>
															<valuemax>96</valuemax>
															<value>-9</value>
														</parameter>
													</effect>
												</filter>
												<link>
													<linkclipref>clipitem-674</linkclipref>
													<mediatype>audio</mediatype>
													<trackindex>1</trackindex>
													<clipindex>1</clipindex>
													<groupindex>1</groupindex>
												</link>
												<link>
													<linkclipref>clipitem-675</linkclipref>
													<mediatype>audio</mediatype>
													<trackindex>2</trackindex>
													<clipindex>1</clipindex>
													<groupindex>1</groupindex>
												</link>
												<logginginfo>
													<description></description>
													<scene></scene>
													<shottake></shottake>
													<lognote></lognote>
													<good></good>
													<originalvideofilename></originalvideofilename>
													<originalaudiofilename></originalaudiofilename>
												</logginginfo>
												<colorinfo>
													<lut></lut>
													<lut1></lut1>
													<asc_sop></asc_sop>
													<asc_sat></asc_sat>
													<lut2></lut2>
												</colorinfo>
												<labels>
													<label2>Iris</label2>
												</labels>
											</clipitem>
											<enabled>TRUE</enabled>
											<locked>FALSE</locked>
											<outputchannelindex>1</outputchannelindex>
										</track>
										<track TL.SQTrackAudioKeyframeStyle="0" TL.SQTrackShy="0" TL.SQTrackExpandedHeight="25" TL.SQTrackExpanded="0" MZ.TrackTargeted="1" PannerCurrentValue="0.5" PannerIsInverted="true" PannerStartKeyframe="-91445760000000000,0.5,0,0,0,0,0,0" PannerName="Balance" currentExplodedTrackIndex="1" totalExplodedTrackCount="2" premiereTrackType="Stereo">
											<clipitem id="clipitem-675" premiereChannelType="stereo">
												<masterclipid>masterclip-234</masterclipid>
												<name>ATM_DRONE_TRANS_A.mov</name>
												<enabled>TRUE</enabled>
												<duration>206</duration>
												<rate>
													<timebase>25</timebase>
													<ntsc>FALSE</ntsc>
												</rate>
												<start>0</start>
												<end>204</end>
												<in>3</in>
												<out>207</out>
												<pproTicksIn>30481920000</pproTicksIn>
												<pproTicksOut>2103252480000</pproTicksOut>
												<file id="file-216"/>
												<sourcetrack>
													<mediatype>audio</mediatype>
													<trackindex>2</trackindex>
												</sourcetrack>
												<filter>
													<effect>
														<name>Gain</name>
														<effectid>{61756678, 4761696e, 4b657947}</effectid>
														<effecttype>filter</effecttype>
														<mediatype>audio</mediatype>
														<parameter authoringApp="PremierePro">
															<parameterid>Gain(dB)</parameterid>
															<name>Gain(dB)</name>
															<valuemin>-96</valuemin>
															<valuemax>96</valuemax>
															<value>-9</value>
														</parameter>
													</effect>
												</filter>
												<link>
													<linkclipref>clipitem-674</linkclipref>
													<mediatype>audio</mediatype>
													<trackindex>1</trackindex>
													<clipindex>1</clipindex>
													<groupindex>1</groupindex>
												</link>
												<link>
													<linkclipref>clipitem-675</linkclipref>
													<mediatype>audio</mediatype>
													<trackindex>2</trackindex>
													<clipindex>1</clipindex>
													<groupindex>1</groupindex>
												</link>
												<logginginfo>
													<description></description>
													<scene></scene>
													<shottake></shottake>
													<lognote></lognote>
													<good></good>
													<originalvideofilename></originalvideofilename>
													<originalaudiofilename></originalaudiofilename>
												</logginginfo>
												<colorinfo>
													<lut></lut>
													<lut1></lut1>
													<asc_sop></asc_sop>
													<asc_sat></asc_sat>
													<lut2></lut2>
												</colorinfo>
												<labels>
													<label2>Iris</label2>
												</labels>
											</clipitem>
											<enabled>TRUE</enabled>
											<locked>FALSE</locked>
											<outputchannelindex>2</outputchannelindex>
										</track>
										<track TL.SQTrackAudioKeyframeStyle="0" TL.SQTrackShy="0" TL.SQTrackExpandedHeight="25" TL.SQTrackExpanded="0" MZ.TrackTargeted="1" PannerCurrentValue="0.5" PannerIsInverted="true" PannerStartKeyframe="-91445760000000000,0.5,0,0,0,0,0,0" PannerName="Balance" currentExplodedTrackIndex="0" totalExplodedTrackCount="2" premiereTrackType="Stereo">
											<enabled>TRUE</enabled>
											<locked>FALSE</locked>
											<outputchannelindex>1</outputchannelindex>
										</track>
										<track TL.SQTrackAudioKeyframeStyle="0" TL.SQTrackShy="0" TL.SQTrackExpandedHeight="25" TL.SQTrackExpanded="0" MZ.TrackTargeted="1" PannerCurrentValue="0.5" PannerIsInverted="true" PannerStartKeyframe="-91445760000000000,0.5,0,0,0,0,0,0" PannerName="Balance" currentExplodedTrackIndex="1" totalExplodedTrackCount="2" premiereTrackType="Stereo">
											<enabled>TRUE</enabled>
											<locked>FALSE</locked>
											<outputchannelindex>2</outputchannelindex>
										</track>
										<track TL.SQTrackAudioKeyframeStyle="0" TL.SQTrackShy="0" TL.SQTrackExpandedHeight="25" TL.SQTrackExpanded="0" MZ.TrackTargeted="1" PannerCurrentValue="0.5" PannerIsInverted="true" PannerStartKeyframe="-91445760000000000,0.5,0,0,0,0,0,0" PannerName="Balance" currentExplodedTrackIndex="0" totalExplodedTrackCount="2" premiereTrackType="Stereo">
											<enabled>TRUE</enabled>
											<locked>FALSE</locked>
											<outputchannelindex>1</outputchannelindex>
										</track>
										<track TL.SQTrackAudioKeyframeStyle="0" TL.SQTrackShy="0" TL.SQTrackExpandedHeight="25" TL.SQTrackExpanded="0" MZ.TrackTargeted="1" PannerCurrentValue="0.5" PannerIsInverted="true" PannerStartKeyframe="-91445760000000000,0.5,0,0,0,0,0,0" PannerName="Balance" currentExplodedTrackIndex="1" totalExplodedTrackCount="2" premiereTrackType="Stereo">
											<enabled>TRUE</enabled>
											<locked>FALSE</locked>
											<outputchannelindex>2</outputchannelindex>
										</track>
									</audio>
								</media>
								<timecode>
									<rate>
										<timebase>25</timebase>
										<ntsc>FALSE</ntsc>
									</rate>
									<string>00:00:00:00</string>
									<frame>0</frame>
									<displayformat>NDF</displayformat>
								</timecode>
									<marker>
										<comment></comment>
										<name></name>
										<in>8</in>
										<out>-1</out>
										<pproColor>4281828977</pproColor>
									</marker>
									<marker>
										<comment></comment>
										<name></name>
										<in>197</in>
										<out>-1</out>
										<pproColor>4281828977</pproColor>
									</marker>
								<labels>
									<label2>Tan</label2>
								</labels>
								<logginginfo>
									<description></description>
									<scene></scene>
									<shottake></shottake>
									<lognote></lognote>
									<good></good>
									<originalvideofilename></originalvideofilename>
									<originalaudiofilename></originalaudiofilename>
								</logginginfo>
							</sequence>
							<sequence id="sequence-49" TL.SQAudioVisibleBase="0" TL.SQVideoVisibleBase="0" TL.SQVisibleBaseTime="0" TL.SQAVDividerPosition="0.5" TL.SQHideShyTracks="0" TL.SQHeaderWidth="236" Monitor.ProgramZoomOut="2052449280000" Monitor.ProgramZoomIn="0" TL.SQTimePerPixel="0.019365045731605548" MZ.EditLine="2052449280000" MZ.Sequence.PreviewFrameSizeHeight="1080" MZ.Sequence.PreviewFrameSizeWidth="1920" MZ.Sequence.AudioTimeDisplayFormat="200" MZ.Sequence.PreviewRenderingClassID="1297106761" MZ.Sequence.PreviewRenderingPresetCodec="1297107278" MZ.Sequence.PreviewRenderingPresetPath="EncoderPresets/SequencePreview/795454d9-d3c2-429d-9474-923ab13b7018/I-Frame Only MPEG.epr" MZ.Sequence.PreviewUseMaxRenderQuality="false" MZ.Sequence.PreviewUseMaxBitDepth="false" MZ.Sequence.EditingModeGUID="795454d9-d3c2-429d-9474-923ab13b7018" MZ.Sequence.VideoTimeDisplayFormat="101" MZ.WorkOutPoint="15239249625600" MZ.WorkInPoint="0" explodedTracks="true">
								<uuid>4acded84-b7ff-4b5c-b3fe-f9ddee25ed29</uuid>
								<duration>201</duration>
								<rate>
									<timebase>25</timebase>
									<ntsc>FALSE</ntsc>
								</rate>
								<name>Trans I</name>
								<media>
									<video>
										<format>
											<samplecharacteristics>
												<rate>
													<timebase>25</timebase>
													<ntsc>FALSE</ntsc>
												</rate>
												<codec>
													<name>Apple ProRes 422</name>
													<appspecificdata>
														<appname>Final Cut Pro</appname>
														<appmanufacturer>Apple Inc.</appmanufacturer>
														<appversion>7.0</appversion>
														<data>
															<qtcodec>
																<codecname>Apple ProRes 422</codecname>
																<codectypename>Apple ProRes 422</codectypename>
																<codectypecode>apcn</codectypecode>
																<codecvendorcode>appl</codecvendorcode>
																<spatialquality>1024</spatialquality>
																<temporalquality>0</temporalquality>
																<keyframerate>0</keyframerate>
																<datarate>0</datarate>
															</qtcodec>
														</data>
													</appspecificdata>
												</codec>
												<width>1920</width>
												<height>1080</height>
												<anamorphic>FALSE</anamorphic>
												<pixelaspectratio>square</pixelaspectratio>
												<fielddominance>none</fielddominance>
												<colordepth>24</colordepth>
											</samplecharacteristics>
										</format>
										<track TL.SQTrackShy="0" TL.SQTrackExpandedHeight="25" TL.SQTrackExpanded="0" MZ.TrackTargeted="1">
											<clipitem id="clipitem-676">
												<masterclipid>masterclip-348</masterclipid>
												<name>ATM_DRONE_TRANS_I.mov</name>
												<enabled>TRUE</enabled>
												<duration>245</duration>
												<rate>
													<timebase>25</timebase>
													<ntsc>FALSE</ntsc>
												</rate>
												<start>8</start>
												<end>194</end>
												<in>21</in>
												<out>207</out>
												<pproTicksIn>213373440000</pproTicksIn>
												<pproTicksOut>2103252480000</pproTicksOut>
												<alphatype>straight</alphatype>
												<pixelaspectratio>square</pixelaspectratio>
												<anamorphic>FALSE</anamorphic>
												<file id="file-320">
													<name>ATM_DRONE_TRANS_I.mov</name>
													<pathurl>file://localhost/Volumes/T7/DRONE_08.18.2023/4_Project%20Files/Drone%202023%20Master%20Assets/02_Transitions/DRONE%20transitions%20(30fps)/ATM_DRONE_TRANS_I.mov</pathurl>
													<rate>
														<timebase>30</timebase>
														<ntsc>TRUE</ntsc>
													</rate>
													<duration>245</duration>
													<timecode>
														<rate>
															<timebase>30</timebase>
															<ntsc>TRUE</ntsc>
														</rate>
														<string>00;00;53;16</string>
														<frame>1606</frame>
														<displayformat>DF</displayformat>
													</timecode>
													<media>
														<video>
															<samplecharacteristics>
																<rate>
																	<timebase>30</timebase>
																	<ntsc>TRUE</ntsc>
																</rate>
																<width>1920</width>
																<height>1080</height>
																<anamorphic>FALSE</anamorphic>
																<pixelaspectratio>square</pixelaspectratio>
																<fielddominance>none</fielddominance>
															</samplecharacteristics>
														</video>
														<audio>
															<samplecharacteristics>
																<depth>16</depth>
																<samplerate>48000</samplerate>
															</samplecharacteristics>
															<channelcount>2</channelcount>
														</audio>
													</media>
												</file>
												<logginginfo>
													<description></description>
													<scene></scene>
													<shottake></shottake>
													<lognote></lognote>
													<good></good>
													<originalvideofilename></originalvideofilename>
													<originalaudiofilename></originalaudiofilename>
												</logginginfo>
												<colorinfo>
													<lut></lut>
													<lut1></lut1>
													<asc_sop></asc_sop>
													<asc_sat></asc_sat>
													<lut2></lut2>
												</colorinfo>
												<labels>
													<label2>Iris</label2>
												</labels>
											</clipitem>
											<enabled>TRUE</enabled>
											<locked>FALSE</locked>
										</track>
										<track TL.SQTrackShy="0" TL.SQTrackExpandedHeight="25" TL.SQTrackExpanded="0" MZ.TrackTargeted="0">
											<clipitem id="clipitem-677">
												<masterclipid>masterclip-157</masterclipid>
												<name>02 Zoom In - Quick / Transform Out</name>
												<enabled>TRUE</enabled>
												<duration>1079999</duration>
												<rate>
													<timebase>25</timebase>
													<ntsc>FALSE</ntsc>
												</rate>
												<start>0</start>
												<end>8</end>
												<in>0</in>
												<out>8</out>
												<pproTicksIn>0</pproTicksIn>
												<pproTicksOut>81285120000</pproTicksOut>
												<sequence id="sequence-7"/>
													<marker>
														<comment></comment>
														<name></name>
														<in>17</in>
														<out>-1</out>
													</marker>
												<labels>
													<label2>Iris</label2>
												</labels>
											</clipitem>
											<clipitem id="clipitem-678">
												<masterclipid>masterclip-159</masterclipid>
												<name>02 Zoom In - Quick / Transform In</name>
												<enabled>TRUE</enabled>
												<duration>1079999</duration>
												<rate>
													<timebase>25</timebase>
													<ntsc>FALSE</ntsc>
												</rate>
												<start>8</start>
												<end>14</end>
												<in>0</in>
												<out>7</out>
												<pproTicksIn>0</pproTicksIn>
												<pproTicksOut>71124480000</pproTicksOut>
												<sequence id="sequence-8"/>
												<labels>
													<label2>Iris</label2>
												</labels>
											</clipitem>
											<clipitem id="clipitem-679">
												<masterclipid>masterclip-157</masterclipid>
												<name>12 Zoom Out - left - Quick / Transform Out</name>
												<enabled>TRUE</enabled>
												<duration>1079999</duration>
												<rate>
													<timebase>25</timebase>
													<ntsc>FALSE</ntsc>
												</rate>
												<start>186</start>
												<end>194</end>
												<in>0</in>
												<out>8</out>
												<pproTicksIn>0</pproTicksIn>
												<pproTicksOut>81285120000</pproTicksOut>
												<sequence id="sequence-7"/>
												<filter>
													<effect>
														<name>Opacity</name>
														<effectid>opacity</effectid>
														<effectcategory>motion</effectcategory>
														<effecttype>motion</effecttype>
														<mediatype>video</mediatype>
														<pproBypass>false</pproBypass>
														<parameter authoringApp="PremierePro">
															<parameterid>opacity</parameterid>
															<name>opacity</name>
															<valuemin>0</valuemin>
															<valuemax>100</valuemax>
															<value>100</value>
															<keyframe>
																<when>0</when>
																<value>0</value>
															</keyframe>
															<keyframe>
																<when>0</when>
																<value>100</value>
															</keyframe>
														</parameter>
													</effect>
												</filter>
													<marker>
														<comment></comment>
														<name></name>
														<in>17</in>
														<out>-1</out>
													</marker>
												<labels>
													<label2>Iris</label2>
												</labels>
											</clipitem>
											<clipitem id="clipitem-680">
												<masterclipid>masterclip-159</masterclipid>
												<name>12 Zoom Out - left - Quick / Transform In</name>
												<enabled>TRUE</enabled>
												<duration>1079999</duration>
												<rate>
													<timebase>25</timebase>
													<ntsc>FALSE</ntsc>
												</rate>
												<start>194</start>
												<end>202</end>
												<in>0</in>
												<out>8</out>
												<pproTicksIn>0</pproTicksIn>
												<pproTicksOut>81285120000</pproTicksOut>
												<sequence id="sequence-8"/>
												<filter>
													<effect>
														<name>Basic Motion</name>
														<effectid>basic</effectid>
														<effectcategory>motion</effectcategory>
														<effecttype>motion</effecttype>
														<mediatype>video</mediatype>
														<pproBypass>false</pproBypass>
														<parameter authoringApp="PremierePro">
															<parameterid>scale</parameterid>
															<name>Scale</name>
															<valuemin>0</valuemin>
															<valuemax>1000</valuemax>
															<value>100</value>
														</parameter>
														<parameter authoringApp="PremierePro">
															<parameterid>rotation</parameterid>
															<name>Rotation</name>
															<valuemin>-8640</valuemin>
															<valuemax>8640</valuemax>
															<value>0</value>
														</parameter>
														<parameter authoringApp="PremierePro">
															<parameterid>center</parameterid>
															<name>Center</name>
															<value>
																<horiz>-0.5</horiz>
																<vert>-0.499394</vert>
															</value>
														</parameter>
														<parameter authoringApp="PremierePro">
															<parameterid>centerOffset</parameterid>
															<name>Anchor Point</name>
															<value>
																<horiz>0</horiz>
																<vert>-0.00060606</vert>
															</value>
														</parameter>
														<parameter authoringApp="PremierePro">
															<parameterid>antiflicker</parameterid>
															<name>Anti-flicker Filter</name>
															<valuemin>0.0</valuemin>
															<valuemax>1.0</valuemax>
															<value>0</value>
														</parameter>
													</effect>
												</filter>
												<labels>
													<label2>Iris</label2>
												</labels>
											</clipitem>
											<enabled>TRUE</enabled>
											<locked>FALSE</locked>
										</track>
										<track TL.SQTrackShy="0" TL.SQTrackExpandedHeight="25" TL.SQTrackExpanded="0" MZ.TrackTargeted="0">
											<enabled>TRUE</enabled>
											<locked>FALSE</locked>
										</track>
									</video>
									<audio>
										<numOutputChannels>2</numOutputChannels>
										<format>
											<samplecharacteristics>
												<depth>16</depth>
												<samplerate>32000</samplerate>
											</samplecharacteristics>
										</format>
										<outputs>
											<group>
												<index>1</index>
												<numchannels>1</numchannels>
												<downmix>0</downmix>
												<channel>
													<index>1</index>
												</channel>
											</group>
											<group>
												<index>2</index>
												<numchannels>1</numchannels>
												<downmix>0</downmix>
												<channel>
													<index>2</index>
												</channel>
											</group>
										</outputs>
										<track TL.SQTrackAudioKeyframeStyle="0" TL.SQTrackShy="0" TL.SQTrackExpandedHeight="25" TL.SQTrackExpanded="0" MZ.TrackTargeted="1" PannerCurrentValue="0.5" PannerIsInverted="true" PannerStartKeyframe="-91445760000000000,0.5,0,0,0,0,0,0" PannerName="Balance" currentExplodedTrackIndex="0" totalExplodedTrackCount="2" premiereTrackType="Stereo">
											<clipitem id="clipitem-681" premiereChannelType="stereo">
												<masterclipid>masterclip-183</masterclipid>
												<name>ATM_DRONE_TRANS_I.mov</name>
												<enabled>TRUE</enabled>
												<duration>204</duration>
												<rate>
													<timebase>25</timebase>
													<ntsc>FALSE</ntsc>
												</rate>
												<start>0</start>
												<end>201</end>
												<in>3</in>
												<out>203</out>
												<pproTicksIn>30481920000</pproTicksIn>
												<pproTicksOut>2062609920000</pproTicksOut>
												<file id="file-172"/>
												<sourcetrack>
													<mediatype>audio</mediatype>
													<trackindex>1</trackindex>
												</sourcetrack>
												<filter>
													<effect>
														<name>Gain</name>
														<effectid>{61756678, 4761696e, 4b657947}</effectid>
														<effecttype>filter</effecttype>
														<mediatype>audio</mediatype>
														<parameter authoringApp="PremierePro">
															<parameterid>Gain(dB)</parameterid>
															<name>Gain(dB)</name>
															<valuemin>-96</valuemin>
															<valuemax>96</valuemax>
															<value>-9</value>
														</parameter>
													</effect>
												</filter>
												<link>
													<linkclipref>clipitem-681</linkclipref>
													<mediatype>audio</mediatype>
													<trackindex>1</trackindex>
													<clipindex>1</clipindex>
													<groupindex>1</groupindex>
												</link>
												<link>
													<linkclipref>clipitem-682</linkclipref>
													<mediatype>audio</mediatype>
													<trackindex>2</trackindex>
													<clipindex>1</clipindex>
													<groupindex>1</groupindex>
												</link>
												<logginginfo>
													<description></description>
													<scene></scene>
													<shottake></shottake>
													<lognote></lognote>
													<good></good>
													<originalvideofilename></originalvideofilename>
													<originalaudiofilename></originalaudiofilename>
												</logginginfo>
												<colorinfo>
													<lut></lut>
													<lut1></lut1>
													<asc_sop></asc_sop>
													<asc_sat></asc_sat>
													<lut2></lut2>
												</colorinfo>
												<labels>
													<label2>Iris</label2>
												</labels>
											</clipitem>
											<enabled>TRUE</enabled>
											<locked>FALSE</locked>
											<outputchannelindex>1</outputchannelindex>
										</track>
										<track TL.SQTrackAudioKeyframeStyle="0" TL.SQTrackShy="0" TL.SQTrackExpandedHeight="25" TL.SQTrackExpanded="0" MZ.TrackTargeted="1" PannerCurrentValue="0.5" PannerIsInverted="true" PannerStartKeyframe="-91445760000000000,0.5,0,0,0,0,0,0" PannerName="Balance" currentExplodedTrackIndex="1" totalExplodedTrackCount="2" premiereTrackType="Stereo">
											<clipitem id="clipitem-682" premiereChannelType="stereo">
												<masterclipid>masterclip-183</masterclipid>
												<name>ATM_DRONE_TRANS_I.mov</name>
												<enabled>TRUE</enabled>
												<duration>204</duration>
												<rate>
													<timebase>25</timebase>
													<ntsc>FALSE</ntsc>
												</rate>
												<start>0</start>
												<end>201</end>
												<in>3</in>
												<out>203</out>
												<pproTicksIn>30481920000</pproTicksIn>
												<pproTicksOut>2062609920000</pproTicksOut>
												<file id="file-172"/>
												<sourcetrack>
													<mediatype>audio</mediatype>
													<trackindex>2</trackindex>
												</sourcetrack>
												<filter>
													<effect>
														<name>Gain</name>
														<effectid>{61756678, 4761696e, 4b657947}</effectid>
														<effecttype>filter</effecttype>
														<mediatype>audio</mediatype>
														<parameter authoringApp="PremierePro">
															<parameterid>Gain(dB)</parameterid>
															<name>Gain(dB)</name>
															<valuemin>-96</valuemin>
															<valuemax>96</valuemax>
															<value>-9</value>
														</parameter>
													</effect>
												</filter>
												<link>
													<linkclipref>clipitem-681</linkclipref>
													<mediatype>audio</mediatype>
													<trackindex>1</trackindex>
													<clipindex>1</clipindex>
													<groupindex>1</groupindex>
												</link>
												<link>
													<linkclipref>clipitem-682</linkclipref>
													<mediatype>audio</mediatype>
													<trackindex>2</trackindex>
													<clipindex>1</clipindex>
													<groupindex>1</groupindex>
												</link>
												<logginginfo>
													<description></description>
													<scene></scene>
													<shottake></shottake>
													<lognote></lognote>
													<good></good>
													<originalvideofilename></originalvideofilename>
													<originalaudiofilename></originalaudiofilename>
												</logginginfo>
												<colorinfo>
													<lut></lut>
													<lut1></lut1>
													<asc_sop></asc_sop>
													<asc_sat></asc_sat>
													<lut2></lut2>
												</colorinfo>
												<labels>
													<label2>Iris</label2>
												</labels>
											</clipitem>
											<enabled>TRUE</enabled>
											<locked>FALSE</locked>
											<outputchannelindex>2</outputchannelindex>
										</track>
										<track TL.SQTrackAudioKeyframeStyle="0" TL.SQTrackShy="0" TL.SQTrackExpandedHeight="25" TL.SQTrackExpanded="0" MZ.TrackTargeted="1" PannerCurrentValue="0.5" PannerIsInverted="true" PannerStartKeyframe="-91445760000000000,0.5,0,0,0,0,0,0" PannerName="Balance" currentExplodedTrackIndex="0" totalExplodedTrackCount="2" premiereTrackType="Stereo">
											<enabled>TRUE</enabled>
											<locked>FALSE</locked>
											<outputchannelindex>1</outputchannelindex>
										</track>
										<track TL.SQTrackAudioKeyframeStyle="0" TL.SQTrackShy="0" TL.SQTrackExpandedHeight="25" TL.SQTrackExpanded="0" MZ.TrackTargeted="1" PannerCurrentValue="0.5" PannerIsInverted="true" PannerStartKeyframe="-91445760000000000,0.5,0,0,0,0,0,0" PannerName="Balance" currentExplodedTrackIndex="1" totalExplodedTrackCount="2" premiereTrackType="Stereo">
											<enabled>TRUE</enabled>
											<locked>FALSE</locked>
											<outputchannelindex>2</outputchannelindex>
										</track>
										<track TL.SQTrackAudioKeyframeStyle="0" TL.SQTrackShy="0" TL.SQTrackExpandedHeight="25" TL.SQTrackExpanded="0" MZ.TrackTargeted="1" PannerCurrentValue="0.5" PannerIsInverted="true" PannerStartKeyframe="-91445760000000000,0.5,0,0,0,0,0,0" PannerName="Balance" currentExplodedTrackIndex="0" totalExplodedTrackCount="2" premiereTrackType="Stereo">
											<enabled>TRUE</enabled>
											<locked>FALSE</locked>
											<outputchannelindex>1</outputchannelindex>
										</track>
										<track TL.SQTrackAudioKeyframeStyle="0" TL.SQTrackShy="0" TL.SQTrackExpandedHeight="25" TL.SQTrackExpanded="0" MZ.TrackTargeted="1" PannerCurrentValue="0.5" PannerIsInverted="true" PannerStartKeyframe="-91445760000000000,0.5,0,0,0,0,0,0" PannerName="Balance" currentExplodedTrackIndex="1" totalExplodedTrackCount="2" premiereTrackType="Stereo">
											<enabled>TRUE</enabled>
											<locked>FALSE</locked>
											<outputchannelindex>2</outputchannelindex>
										</track>
									</audio>
								</media>
								<timecode>
									<rate>
										<timebase>25</timebase>
										<ntsc>FALSE</ntsc>
									</rate>
									<string>00:00:00:00</string>
									<frame>0</frame>
									<displayformat>NDF</displayformat>
								</timecode>
									<marker>
										<comment></comment>
										<name></name>
										<in>195</in>
										<out>-1</out>
										<pproColor>4281828977</pproColor>
									</marker>
									<marker>
										<comment></comment>
										<name></name>
										<in>8</in>
										<out>-1</out>
										<pproColor>4281828977</pproColor>
									</marker>
								<labels>
									<label2>Tan</label2>
								</labels>
								<logginginfo>
									<description></description>
									<scene></scene>
									<shottake></shottake>
									<lognote></lognote>
									<good></good>
									<originalvideofilename></originalvideofilename>
									<originalaudiofilename></originalaudiofilename>
								</logginginfo>
							</sequence>
						</children>
					</bin>
					<bin>
						<name>29fps Nest </name>
						<labels>
							<label2>Mango</label2>
						</labels>
						<children>
<sequence id="sequence-18"/>
<sequence id="sequence-17"/>
<sequence id="sequence-27"/>
<sequence id="sequence-30"/>
<sequence id="sequence-9"/>
<sequence id="sequence-23"/>
<sequence id="sequence-6"/>
<sequence id="sequence-22"/>
<sequence id="sequence-13"/>
						</children>
					</bin>
					<bin>
						<name>RAW</name>
						<labels>
							<label2>Mango</label2>
						</labels>
						<children>
							<bin>
								<name>29fps Raw</name>
								<labels>
									<label2>Mango</label2>
								</labels>
								<children>
									<clip id="masterclip-234" explodedTracks="true">
										<uuid>6ed6322c-0694-4c02-90f9-d265b7f8df8b</uuid>
										<masterclipid>masterclip-234</masterclipid>
										<ismasterclip>TRUE</ismasterclip>
										<duration>248</duration>
										<rate>
											<timebase>30</timebase>
											<ntsc>TRUE</ntsc>
										</rate>
										<name>ATM_DRONE_TRANS_A.mov</name>
										<media>
											<video>
												<track>
													<clipitem id="clipitem-683">
														<masterclipid>masterclip-234</masterclipid>
														<name>ATM_DRONE_TRANS_A.mov</name>
														<rate>
															<timebase>30</timebase>
															<ntsc>TRUE</ntsc>
														</rate>
														<alphatype>straight</alphatype>
														<file id="file-216"/>
														<link>
															<linkclipref>clipitem-683</linkclipref>
															<mediatype>video</mediatype>
															<trackindex>1</trackindex>
															<clipindex>1</clipindex>
														</link>
														<link>
															<linkclipref>clipitem-684</linkclipref>
															<mediatype>audio</mediatype>
															<trackindex>1</trackindex>
															<clipindex>1</clipindex>
															<groupindex>1</groupindex>
														</link>
														<link>
															<linkclipref>clipitem-685</linkclipref>
															<mediatype>audio</mediatype>
															<trackindex>2</trackindex>
															<clipindex>1</clipindex>
															<groupindex>1</groupindex>
														</link>
													</clipitem>
												</track>
											</video>
											<audio>
												<track>
													<clipitem id="clipitem-684">
														<masterclipid>masterclip-234</masterclipid>
														<name>ATM_DRONE_TRANS_A.mov</name>
														<rate>
															<timebase>30</timebase>
															<ntsc>TRUE</ntsc>
														</rate>
														<file id="file-216"/>
														<sourcetrack>
															<mediatype>audio</mediatype>
															<trackindex>1</trackindex>
														</sourcetrack>
														<link>
															<linkclipref>clipitem-683</linkclipref>
															<mediatype>video</mediatype>
															<trackindex>1</trackindex>
															<clipindex>1</clipindex>
														</link>
														<link>
															<linkclipref>clipitem-684</linkclipref>
															<mediatype>audio</mediatype>
															<trackindex>1</trackindex>
															<clipindex>1</clipindex>
															<groupindex>1</groupindex>
														</link>
														<link>
															<linkclipref>clipitem-685</linkclipref>
															<mediatype>audio</mediatype>
															<trackindex>2</trackindex>
															<clipindex>1</clipindex>
															<groupindex>1</groupindex>
														</link>
													</clipitem>
												</track>
												<track>
													<clipitem id="clipitem-685">
														<masterclipid>masterclip-234</masterclipid>
														<name>ATM_DRONE_TRANS_A.mov</name>
														<rate>
															<timebase>30</timebase>
															<ntsc>TRUE</ntsc>
														</rate>
														<file id="file-216"/>
														<sourcetrack>
															<mediatype>audio</mediatype>
															<trackindex>2</trackindex>
														</sourcetrack>
														<link>
															<linkclipref>clipitem-683</linkclipref>
															<mediatype>video</mediatype>
															<trackindex>1</trackindex>
															<clipindex>1</clipindex>
														</link>
														<link>
															<linkclipref>clipitem-684</linkclipref>
															<mediatype>audio</mediatype>
															<trackindex>1</trackindex>
															<clipindex>1</clipindex>
															<groupindex>1</groupindex>
														</link>
														<link>
															<linkclipref>clipitem-685</linkclipref>
															<mediatype>audio</mediatype>
															<trackindex>2</trackindex>
															<clipindex>1</clipindex>
															<groupindex>1</groupindex>
														</link>
													</clipitem>
												</track>
											</audio>
										</media>
										<logginginfo>
											<description></description>
											<scene></scene>
											<shottake></shottake>
											<lognote></lognote>
											<good></good>
											<originalvideofilename></originalvideofilename>
											<originalaudiofilename></originalaudiofilename>
										</logginginfo>
										<colorinfo>
											<lut></lut>
											<lut1></lut1>
											<asc_sop></asc_sop>
											<asc_sat></asc_sat>
											<lut2></lut2>
										</colorinfo>
										<labels>
											<label2>Iris</label2>
										</labels>
									</clip>
									<clip id="masterclip-156" explodedTracks="true">
										<uuid>dcfeb1c4-d373-4831-be29-f373ba7deea1</uuid>
										<masterclipid>masterclip-156</masterclipid>
										<ismasterclip>TRUE</ismasterclip>
										<duration>155</duration>
										<rate>
											<timebase>30</timebase>
											<ntsc>TRUE</ntsc>
										</rate>
										<name>ATM_DRONE_TRANS_B.mov</name>
										<media>
											<video>
												<track>
													<clipitem id="clipitem-686">
														<masterclipid>masterclip-156</masterclipid>
														<name>ATM_DRONE_TRANS_B.mov</name>
														<rate>
															<timebase>30</timebase>
															<ntsc>TRUE</ntsc>
														</rate>
														<alphatype>straight</alphatype>
														<file id="file-152"/>
														<link>
															<linkclipref>clipitem-686</linkclipref>
															<mediatype>video</mediatype>
															<trackindex>1</trackindex>
															<clipindex>1</clipindex>
														</link>
														<link>
															<linkclipref>clipitem-687</linkclipref>
															<mediatype>audio</mediatype>
															<trackindex>1</trackindex>
															<clipindex>1</clipindex>
															<groupindex>1</groupindex>
														</link>
														<link>
															<linkclipref>clipitem-688</linkclipref>
															<mediatype>audio</mediatype>
															<trackindex>2</trackindex>
															<clipindex>1</clipindex>
															<groupindex>1</groupindex>
														</link>
													</clipitem>
												</track>
											</video>
											<audio>
												<track>
													<clipitem id="clipitem-687">
														<masterclipid>masterclip-156</masterclipid>
														<name>ATM_DRONE_TRANS_B.mov</name>
														<rate>
															<timebase>30</timebase>
															<ntsc>TRUE</ntsc>
														</rate>
														<file id="file-152"/>
														<sourcetrack>
															<mediatype>audio</mediatype>
															<trackindex>1</trackindex>
														</sourcetrack>
														<link>
															<linkclipref>clipitem-686</linkclipref>
															<mediatype>video</mediatype>
															<trackindex>1</trackindex>
															<clipindex>1</clipindex>
														</link>
														<link>
															<linkclipref>clipitem-687</linkclipref>
															<mediatype>audio</mediatype>
															<trackindex>1</trackindex>
															<clipindex>1</clipindex>
															<groupindex>1</groupindex>
														</link>
														<link>
															<linkclipref>clipitem-688</linkclipref>
															<mediatype>audio</mediatype>
															<trackindex>2</trackindex>
															<clipindex>1</clipindex>
															<groupindex>1</groupindex>
														</link>
													</clipitem>
												</track>
												<track>
													<clipitem id="clipitem-688">
														<masterclipid>masterclip-156</masterclipid>
														<name>ATM_DRONE_TRANS_B.mov</name>
														<rate>
															<timebase>30</timebase>
															<ntsc>TRUE</ntsc>
														</rate>
														<file id="file-152"/>
														<sourcetrack>
															<mediatype>audio</mediatype>
															<trackindex>2</trackindex>
														</sourcetrack>
														<link>
															<linkclipref>clipitem-686</linkclipref>
															<mediatype>video</mediatype>
															<trackindex>1</trackindex>
															<clipindex>1</clipindex>
														</link>
														<link>
															<linkclipref>clipitem-687</linkclipref>
															<mediatype>audio</mediatype>
															<trackindex>1</trackindex>
															<clipindex>1</clipindex>
															<groupindex>1</groupindex>
														</link>
														<link>
															<linkclipref>clipitem-688</linkclipref>
															<mediatype>audio</mediatype>
															<trackindex>2</trackindex>
															<clipindex>1</clipindex>
															<groupindex>1</groupindex>
														</link>
													</clipitem>
												</track>
											</audio>
										</media>
										<logginginfo>
											<description></description>
											<scene></scene>
											<shottake></shottake>
											<lognote></lognote>
											<good></good>
											<originalvideofilename></originalvideofilename>
											<originalaudiofilename></originalaudiofilename>
										</logginginfo>
										<colorinfo>
											<lut></lut>
											<lut1></lut1>
											<asc_sop></asc_sop>
											<asc_sat></asc_sat>
											<lut2></lut2>
										</colorinfo>
										<labels>
											<label2>Iris</label2>
										</labels>
									</clip>
									<clip id="masterclip-236" explodedTracks="true">
										<uuid>d33d5cf5-d85e-430d-8945-0232b8aa8948</uuid>
										<masterclipid>masterclip-236</masterclipid>
										<ismasterclip>TRUE</ismasterclip>
										<duration>240</duration>
										<rate>
											<timebase>30</timebase>
											<ntsc>TRUE</ntsc>
										</rate>
										<name>ATM_DRONE_TRANS_C.mov</name>
										<media>
											<video>
												<track>
													<clipitem id="clipitem-689">
														<masterclipid>masterclip-236</masterclipid>
														<name>ATM_DRONE_TRANS_C.mov</name>
														<rate>
															<timebase>30</timebase>
															<ntsc>TRUE</ntsc>
														</rate>
														<alphatype>straight</alphatype>
														<file id="file-217"/>
														<link>
															<linkclipref>clipitem-689</linkclipref>
															<mediatype>video</mediatype>
															<trackindex>1</trackindex>
															<clipindex>1</clipindex>
														</link>
														<link>
															<linkclipref>clipitem-690</linkclipref>
															<mediatype>audio</mediatype>
															<trackindex>1</trackindex>
															<clipindex>1</clipindex>
															<groupindex>1</groupindex>
														</link>
														<link>
															<linkclipref>clipitem-691</linkclipref>
															<mediatype>audio</mediatype>
															<trackindex>2</trackindex>
															<clipindex>1</clipindex>
															<groupindex>1</groupindex>
														</link>
													</clipitem>
												</track>
											</video>
											<audio>
												<track>
													<clipitem id="clipitem-690">
														<masterclipid>masterclip-236</masterclipid>
														<name>ATM_DRONE_TRANS_C.mov</name>
														<rate>
															<timebase>30</timebase>
															<ntsc>TRUE</ntsc>
														</rate>
														<file id="file-217"/>
														<sourcetrack>
															<mediatype>audio</mediatype>
															<trackindex>1</trackindex>
														</sourcetrack>
														<link>
															<linkclipref>clipitem-689</linkclipref>
															<mediatype>video</mediatype>
															<trackindex>1</trackindex>
															<clipindex>1</clipindex>
														</link>
														<link>
															<linkclipref>clipitem-690</linkclipref>
															<mediatype>audio</mediatype>
															<trackindex>1</trackindex>
															<clipindex>1</clipindex>
															<groupindex>1</groupindex>
														</link>
														<link>
															<linkclipref>clipitem-691</linkclipref>
															<mediatype>audio</mediatype>
															<trackindex>2</trackindex>
															<clipindex>1</clipindex>
															<groupindex>1</groupindex>
														</link>
													</clipitem>
												</track>
												<track>
													<clipitem id="clipitem-691">
														<masterclipid>masterclip-236</masterclipid>
														<name>ATM_DRONE_TRANS_C.mov</name>
														<rate>
															<timebase>30</timebase>
															<ntsc>TRUE</ntsc>
														</rate>
														<file id="file-217"/>
														<sourcetrack>
															<mediatype>audio</mediatype>
															<trackindex>2</trackindex>
														</sourcetrack>
														<link>
															<linkclipref>clipitem-689</linkclipref>
															<mediatype>video</mediatype>
															<trackindex>1</trackindex>
															<clipindex>1</clipindex>
														</link>
														<link>
															<linkclipref>clipitem-690</linkclipref>
															<mediatype>audio</mediatype>
															<trackindex>1</trackindex>
															<clipindex>1</clipindex>
															<groupindex>1</groupindex>
														</link>
														<link>
															<linkclipref>clipitem-691</linkclipref>
															<mediatype>audio</mediatype>
															<trackindex>2</trackindex>
															<clipindex>1</clipindex>
															<groupindex>1</groupindex>
														</link>
													</clipitem>
												</track>
											</audio>
										</media>
										<logginginfo>
											<description></description>
											<scene></scene>
											<shottake></shottake>
											<lognote></lognote>
											<good></good>
											<originalvideofilename></originalvideofilename>
											<originalaudiofilename></originalaudiofilename>
										</logginginfo>
										<colorinfo>
											<lut></lut>
											<lut1></lut1>
											<asc_sop></asc_sop>
											<asc_sat></asc_sat>
											<lut2></lut2>
										</colorinfo>
										<labels>
											<label2>Iris</label2>
										</labels>
									</clip>
									<clip id="masterclip-161" explodedTracks="true">
										<uuid>596bdf74-98f6-4a05-89b0-b7019bf7bdc8</uuid>
										<masterclipid>masterclip-161</masterclipid>
										<ismasterclip>TRUE</ismasterclip>
										<duration>240</duration>
										<rate>
											<timebase>30</timebase>
											<ntsc>TRUE</ntsc>
										</rate>
										<name>ATM_DRONE_TRANS_D.mov</name>
										<media>
											<video>
												<track>
													<clipitem id="clipitem-692">
														<masterclipid>masterclip-161</masterclipid>
														<name>ATM_DRONE_TRANS_D.mov</name>
														<rate>
															<timebase>30</timebase>
															<ntsc>TRUE</ntsc>
														</rate>
														<alphatype>straight</alphatype>
														<file id="file-153"/>
														<link>
															<linkclipref>clipitem-692</linkclipref>
															<mediatype>video</mediatype>
															<trackindex>1</trackindex>
															<clipindex>1</clipindex>
														</link>
														<link>
															<linkclipref>clipitem-693</linkclipref>
															<mediatype>audio</mediatype>
															<trackindex>1</trackindex>
															<clipindex>1</clipindex>
															<groupindex>1</groupindex>
														</link>
														<link>
															<linkclipref>clipitem-694</linkclipref>
															<mediatype>audio</mediatype>
															<trackindex>2</trackindex>
															<clipindex>1</clipindex>
															<groupindex>1</groupindex>
														</link>
													</clipitem>
												</track>
											</video>
											<audio>
												<track>
													<clipitem id="clipitem-693">
														<masterclipid>masterclip-161</masterclipid>
														<name>ATM_DRONE_TRANS_D.mov</name>
														<rate>
															<timebase>30</timebase>
															<ntsc>TRUE</ntsc>
														</rate>
														<file id="file-153"/>
														<sourcetrack>
															<mediatype>audio</mediatype>
															<trackindex>1</trackindex>
														</sourcetrack>
														<link>
															<linkclipref>clipitem-692</linkclipref>
															<mediatype>video</mediatype>
															<trackindex>1</trackindex>
															<clipindex>1</clipindex>
														</link>
														<link>
															<linkclipref>clipitem-693</linkclipref>
															<mediatype>audio</mediatype>
															<trackindex>1</trackindex>
															<clipindex>1</clipindex>
															<groupindex>1</groupindex>
														</link>
														<link>
															<linkclipref>clipitem-694</linkclipref>
															<mediatype>audio</mediatype>
															<trackindex>2</trackindex>
															<clipindex>1</clipindex>
															<groupindex>1</groupindex>
														</link>
													</clipitem>
												</track>
												<track>
													<clipitem id="clipitem-694">
														<masterclipid>masterclip-161</masterclipid>
														<name>ATM_DRONE_TRANS_D.mov</name>
														<rate>
															<timebase>30</timebase>
															<ntsc>TRUE</ntsc>
														</rate>
														<file id="file-153"/>
														<sourcetrack>
															<mediatype>audio</mediatype>
															<trackindex>2</trackindex>
														</sourcetrack>
														<link>
															<linkclipref>clipitem-692</linkclipref>
															<mediatype>video</mediatype>
															<trackindex>1</trackindex>
															<clipindex>1</clipindex>
														</link>
														<link>
															<linkclipref>clipitem-693</linkclipref>
															<mediatype>audio</mediatype>
															<trackindex>1</trackindex>
															<clipindex>1</clipindex>
															<groupindex>1</groupindex>
														</link>
														<link>
															<linkclipref>clipitem-694</linkclipref>
															<mediatype>audio</mediatype>
															<trackindex>2</trackindex>
															<clipindex>1</clipindex>
															<groupindex>1</groupindex>
														</link>
													</clipitem>
												</track>
											</audio>
										</media>
										<logginginfo>
											<description></description>
											<scene></scene>
											<shottake></shottake>
											<lognote></lognote>
											<good></good>
											<originalvideofilename></originalvideofilename>
											<originalaudiofilename></originalaudiofilename>
										</logginginfo>
										<colorinfo>
											<lut></lut>
											<lut1></lut1>
											<asc_sop></asc_sop>
											<asc_sat></asc_sat>
											<lut2></lut2>
										</colorinfo>
										<labels>
											<label2>Iris</label2>
										</labels>
									</clip>
									<clip id="masterclip-268" explodedTracks="true">
										<uuid>dda0290c-c5ac-4b6b-9f21-905373cfe879</uuid>
										<masterclipid>masterclip-268</masterclipid>
										<ismasterclip>TRUE</ismasterclip>
										<duration>240</duration>
										<rate>
											<timebase>30</timebase>
											<ntsc>TRUE</ntsc>
										</rate>
										<name>ATM_DRONE_TRANS_E..mov</name>
										<media>
											<video>
												<track>
													<clipitem id="clipitem-695">
														<masterclipid>masterclip-268</masterclipid>
														<name>ATM_DRONE_TRANS_E..mov</name>
														<rate>
															<timebase>30</timebase>
															<ntsc>TRUE</ntsc>
														</rate>
														<alphatype>straight</alphatype>
														<file id="file-244"/>
														<link>
															<linkclipref>clipitem-695</linkclipref>
															<mediatype>video</mediatype>
															<trackindex>1</trackindex>
															<clipindex>1</clipindex>
														</link>
														<link>
															<linkclipref>clipitem-696</linkclipref>
															<mediatype>audio</mediatype>
															<trackindex>1</trackindex>
															<clipindex>1</clipindex>
															<groupindex>1</groupindex>
														</link>
														<link>
															<linkclipref>clipitem-697</linkclipref>
															<mediatype>audio</mediatype>
															<trackindex>2</trackindex>
															<clipindex>1</clipindex>
															<groupindex>1</groupindex>
														</link>
													</clipitem>
												</track>
											</video>
											<audio>
												<track>
													<clipitem id="clipitem-696">
														<masterclipid>masterclip-268</masterclipid>
														<name>ATM_DRONE_TRANS_E..mov</name>
														<rate>
															<timebase>30</timebase>
															<ntsc>TRUE</ntsc>
														</rate>
														<file id="file-244"/>
														<sourcetrack>
															<mediatype>audio</mediatype>
															<trackindex>1</trackindex>
														</sourcetrack>
														<link>
															<linkclipref>clipitem-695</linkclipref>
															<mediatype>video</mediatype>
															<trackindex>1</trackindex>
															<clipindex>1</clipindex>
														</link>
														<link>
															<linkclipref>clipitem-696</linkclipref>
															<mediatype>audio</mediatype>
															<trackindex>1</trackindex>
															<clipindex>1</clipindex>
															<groupindex>1</groupindex>
														</link>
														<link>
															<linkclipref>clipitem-697</linkclipref>
															<mediatype>audio</mediatype>
															<trackindex>2</trackindex>
															<clipindex>1</clipindex>
															<groupindex>1</groupindex>
														</link>
													</clipitem>
												</track>
												<track>
													<clipitem id="clipitem-697">
														<masterclipid>masterclip-268</masterclipid>
														<name>ATM_DRONE_TRANS_E..mov</name>
														<rate>
															<timebase>30</timebase>
															<ntsc>TRUE</ntsc>
														</rate>
														<file id="file-244"/>
														<sourcetrack>
															<mediatype>audio</mediatype>
															<trackindex>2</trackindex>
														</sourcetrack>
														<link>
															<linkclipref>clipitem-695</linkclipref>
															<mediatype>video</mediatype>
															<trackindex>1</trackindex>
															<clipindex>1</clipindex>
														</link>
														<link>
															<linkclipref>clipitem-696</linkclipref>
															<mediatype>audio</mediatype>
															<trackindex>1</trackindex>
															<clipindex>1</clipindex>
															<groupindex>1</groupindex>
														</link>
														<link>
															<linkclipref>clipitem-697</linkclipref>
															<mediatype>audio</mediatype>
															<trackindex>2</trackindex>
															<clipindex>1</clipindex>
															<groupindex>1</groupindex>
														</link>
													</clipitem>
												</track>
											</audio>
										</media>
										<logginginfo>
											<description></description>
											<scene></scene>
											<shottake></shottake>
											<lognote></lognote>
											<good></good>
											<originalvideofilename></originalvideofilename>
											<originalaudiofilename></originalaudiofilename>
										</logginginfo>
										<colorinfo>
											<lut></lut>
											<lut1></lut1>
											<asc_sop></asc_sop>
											<asc_sat></asc_sat>
											<lut2></lut2>
										</colorinfo>
										<labels>
											<label2>Iris</label2>
										</labels>
									</clip>
									<clip id="masterclip-252" explodedTracks="true">
										<uuid>6b5ca367-4609-46c2-91d3-083a4fb5192e</uuid>
										<masterclipid>masterclip-252</masterclipid>
										<ismasterclip>TRUE</ismasterclip>
										<duration>245</duration>
										<rate>
											<timebase>30</timebase>
											<ntsc>TRUE</ntsc>
										</rate>
										<name>ATM_DRONE_TRANS_F.mov</name>
										<media>
											<video>
												<track>
													<clipitem id="clipitem-698">
														<masterclipid>masterclip-252</masterclipid>
														<name>ATM_DRONE_TRANS_F.mov</name>
														<rate>
															<timebase>30</timebase>
															<ntsc>TRUE</ntsc>
														</rate>
														<alphatype>straight</alphatype>
														<file id="file-230"/>
														<link>
															<linkclipref>clipitem-698</linkclipref>
															<mediatype>video</mediatype>
															<trackindex>1</trackindex>
															<clipindex>1</clipindex>
														</link>
														<link>
															<linkclipref>clipitem-699</linkclipref>
															<mediatype>audio</mediatype>
															<trackindex>1</trackindex>
															<clipindex>1</clipindex>
															<groupindex>1</groupindex>
														</link>
														<link>
															<linkclipref>clipitem-700</linkclipref>
															<mediatype>audio</mediatype>
															<trackindex>2</trackindex>
															<clipindex>1</clipindex>
															<groupindex>1</groupindex>
														</link>
													</clipitem>
												</track>
											</video>
											<audio>
												<track>
													<clipitem id="clipitem-699">
														<masterclipid>masterclip-252</masterclipid>
														<name>ATM_DRONE_TRANS_F.mov</name>
														<rate>
															<timebase>30</timebase>
															<ntsc>TRUE</ntsc>
														</rate>
														<file id="file-230"/>
														<sourcetrack>
															<mediatype>audio</mediatype>
															<trackindex>1</trackindex>
														</sourcetrack>
														<link>
															<linkclipref>clipitem-698</linkclipref>
															<mediatype>video</mediatype>
															<trackindex>1</trackindex>
															<clipindex>1</clipindex>
														</link>
														<link>
															<linkclipref>clipitem-699</linkclipref>
															<mediatype>audio</mediatype>
															<trackindex>1</trackindex>
															<clipindex>1</clipindex>
															<groupindex>1</groupindex>
														</link>
														<link>
															<linkclipref>clipitem-700</linkclipref>
															<mediatype>audio</mediatype>
															<trackindex>2</trackindex>
															<clipindex>1</clipindex>
															<groupindex>1</groupindex>
														</link>
													</clipitem>
												</track>
												<track>
													<clipitem id="clipitem-700">
														<masterclipid>masterclip-252</masterclipid>
														<name>ATM_DRONE_TRANS_F.mov</name>
														<rate>
															<timebase>30</timebase>
															<ntsc>TRUE</ntsc>
														</rate>
														<file id="file-230"/>
														<sourcetrack>
															<mediatype>audio</mediatype>
															<trackindex>2</trackindex>
														</sourcetrack>
														<link>
															<linkclipref>clipitem-698</linkclipref>
															<mediatype>video</mediatype>
															<trackindex>1</trackindex>
															<clipindex>1</clipindex>
														</link>
														<link>
															<linkclipref>clipitem-699</linkclipref>
															<mediatype>audio</mediatype>
															<trackindex>1</trackindex>
															<clipindex>1</clipindex>
															<groupindex>1</groupindex>
														</link>
														<link>
															<linkclipref>clipitem-700</linkclipref>
															<mediatype>audio</mediatype>
															<trackindex>2</trackindex>
															<clipindex>1</clipindex>
															<groupindex>1</groupindex>
														</link>
													</clipitem>
												</track>
											</audio>
										</media>
										<logginginfo>
											<description></description>
											<scene></scene>
											<shottake></shottake>
											<lognote></lognote>
											<good></good>
											<originalvideofilename></originalvideofilename>
											<originalaudiofilename></originalaudiofilename>
										</logginginfo>
										<colorinfo>
											<lut></lut>
											<lut1></lut1>
											<asc_sop></asc_sop>
											<asc_sat></asc_sat>
											<lut2></lut2>
										</colorinfo>
										<labels>
											<label2>Iris</label2>
										</labels>
									</clip>
									<clip id="masterclip-203" explodedTracks="true">
										<uuid>94a65583-f38e-4562-966a-cd2a5626c341</uuid>
										<masterclipid>masterclip-203</masterclipid>
										<ismasterclip>TRUE</ismasterclip>
										<duration>245</duration>
										<rate>
											<timebase>30</timebase>
											<ntsc>TRUE</ntsc>
										</rate>
										<name>ATM_DRONE_TRANS_G.mov</name>
										<media>
											<video>
												<track>
													<clipitem id="clipitem-701">
														<masterclipid>masterclip-203</masterclipid>
														<name>ATM_DRONE_TRANS_G.mov</name>
														<rate>
															<timebase>30</timebase>
															<ntsc>TRUE</ntsc>
														</rate>
														<alphatype>straight</alphatype>
														<file id="file-189"/>
														<link>
															<linkclipref>clipitem-701</linkclipref>
															<mediatype>video</mediatype>
															<trackindex>1</trackindex>
															<clipindex>1</clipindex>
														</link>
														<link>
															<linkclipref>clipitem-702</linkclipref>
															<mediatype>audio</mediatype>
															<trackindex>1</trackindex>
															<clipindex>1</clipindex>
															<groupindex>1</groupindex>
														</link>
														<link>
															<linkclipref>clipitem-703</linkclipref>
															<mediatype>audio</mediatype>
															<trackindex>2</trackindex>
															<clipindex>1</clipindex>
															<groupindex>1</groupindex>
														</link>
													</clipitem>
												</track>
											</video>
											<audio>
												<track>
													<clipitem id="clipitem-702">
														<masterclipid>masterclip-203</masterclipid>
														<name>ATM_DRONE_TRANS_G.mov</name>
														<rate>
															<timebase>30</timebase>
															<ntsc>TRUE</ntsc>
														</rate>
														<file id="file-189"/>
														<sourcetrack>
															<mediatype>audio</mediatype>
															<trackindex>1</trackindex>
														</sourcetrack>
														<link>
															<linkclipref>clipitem-701</linkclipref>
															<mediatype>video</mediatype>
															<trackindex>1</trackindex>
															<clipindex>1</clipindex>
														</link>
														<link>
															<linkclipref>clipitem-702</linkclipref>
															<mediatype>audio</mediatype>
															<trackindex>1</trackindex>
															<clipindex>1</clipindex>
															<groupindex>1</groupindex>
														</link>
														<link>
															<linkclipref>clipitem-703</linkclipref>
															<mediatype>audio</mediatype>
															<trackindex>2</trackindex>
															<clipindex>1</clipindex>
															<groupindex>1</groupindex>
														</link>
													</clipitem>
												</track>
												<track>
													<clipitem id="clipitem-703">
														<masterclipid>masterclip-203</masterclipid>
														<name>ATM_DRONE_TRANS_G.mov</name>
														<rate>
															<timebase>30</timebase>
															<ntsc>TRUE</ntsc>
														</rate>
														<file id="file-189"/>
														<sourcetrack>
															<mediatype>audio</mediatype>
															<trackindex>2</trackindex>
														</sourcetrack>
														<link>
															<linkclipref>clipitem-701</linkclipref>
															<mediatype>video</mediatype>
															<trackindex>1</trackindex>
															<clipindex>1</clipindex>
														</link>
														<link>
															<linkclipref>clipitem-702</linkclipref>
															<mediatype>audio</mediatype>
															<trackindex>1</trackindex>
															<clipindex>1</clipindex>
															<groupindex>1</groupindex>
														</link>
														<link>
															<linkclipref>clipitem-703</linkclipref>
															<mediatype>audio</mediatype>
															<trackindex>2</trackindex>
															<clipindex>1</clipindex>
															<groupindex>1</groupindex>
														</link>
													</clipitem>
												</track>
											</audio>
										</media>
											<marker>
												<comment></comment>
												<name></name>
												<in>10</in>
												<out>-1</out>
											</marker>
											<marker>
												<comment></comment>
												<name></name>
												<in>9</in>
												<out>-1</out>
											</marker>
										<logginginfo>
											<description></description>
											<scene></scene>
											<shottake></shottake>
											<lognote></lognote>
											<good></good>
											<originalvideofilename></originalvideofilename>
											<originalaudiofilename></originalaudiofilename>
										</logginginfo>
										<colorinfo>
											<lut></lut>
											<lut1></lut1>
											<asc_sop></asc_sop>
											<asc_sat></asc_sat>
											<lut2></lut2>
										</colorinfo>
										<labels>
											<label2>Iris</label2>
										</labels>
									</clip>
									<clip id="masterclip-205" explodedTracks="true">
										<uuid>66758770-e8d6-42c5-9579-470ca178033b</uuid>
										<masterclipid>masterclip-205</masterclipid>
										<ismasterclip>TRUE</ismasterclip>
										<duration>245</duration>
										<rate>
											<timebase>30</timebase>
											<ntsc>TRUE</ntsc>
										</rate>
										<name>ATM_DRONE_TRANS_H.mov</name>
										<media>
											<video>
												<track>
													<clipitem id="clipitem-704">
														<masterclipid>masterclip-205</masterclipid>
														<name>ATM_DRONE_TRANS_H.mov</name>
														<rate>
															<timebase>30</timebase>
															<ntsc>TRUE</ntsc>
														</rate>
														<alphatype>straight</alphatype>
														<file id="file-190"/>
														<link>
															<linkclipref>clipitem-704</linkclipref>
															<mediatype>video</mediatype>
															<trackindex>1</trackindex>
															<clipindex>1</clipindex>
														</link>
														<link>
															<linkclipref>clipitem-705</linkclipref>
															<mediatype>audio</mediatype>
															<trackindex>1</trackindex>
															<clipindex>1</clipindex>
															<groupindex>1</groupindex>
														</link>
														<link>
															<linkclipref>clipitem-706</linkclipref>
															<mediatype>audio</mediatype>
															<trackindex>2</trackindex>
															<clipindex>1</clipindex>
															<groupindex>1</groupindex>
														</link>
													</clipitem>
												</track>
											</video>
											<audio>
												<track>
													<clipitem id="clipitem-705">
														<masterclipid>masterclip-205</masterclipid>
														<name>ATM_DRONE_TRANS_H.mov</name>
														<rate>
															<timebase>30</timebase>
															<ntsc>TRUE</ntsc>
														</rate>
														<file id="file-190"/>
														<sourcetrack>
															<mediatype>audio</mediatype>
															<trackindex>1</trackindex>
														</sourcetrack>
														<link>
															<linkclipref>clipitem-704</linkclipref>
															<mediatype>video</mediatype>
															<trackindex>1</trackindex>
															<clipindex>1</clipindex>
														</link>
														<link>
															<linkclipref>clipitem-705</linkclipref>
															<mediatype>audio</mediatype>
															<trackindex>1</trackindex>
															<clipindex>1</clipindex>
															<groupindex>1</groupindex>
														</link>
														<link>
															<linkclipref>clipitem-706</linkclipref>
															<mediatype>audio</mediatype>
															<trackindex>2</trackindex>
															<clipindex>1</clipindex>
															<groupindex>1</groupindex>
														</link>
													</clipitem>
												</track>
												<track>
													<clipitem id="clipitem-706">
														<masterclipid>masterclip-205</masterclipid>
														<name>ATM_DRONE_TRANS_H.mov</name>
														<rate>
															<timebase>30</timebase>
															<ntsc>TRUE</ntsc>
														</rate>
														<file id="file-190"/>
														<sourcetrack>
															<mediatype>audio</mediatype>
															<trackindex>2</trackindex>
														</sourcetrack>
														<link>
															<linkclipref>clipitem-704</linkclipref>
															<mediatype>video</mediatype>
															<trackindex>1</trackindex>
															<clipindex>1</clipindex>
														</link>
														<link>
															<linkclipref>clipitem-705</linkclipref>
															<mediatype>audio</mediatype>
															<trackindex>1</trackindex>
															<clipindex>1</clipindex>
															<groupindex>1</groupindex>
														</link>
														<link>
															<linkclipref>clipitem-706</linkclipref>
															<mediatype>audio</mediatype>
															<trackindex>2</trackindex>
															<clipindex>1</clipindex>
															<groupindex>1</groupindex>
														</link>
													</clipitem>
												</track>
											</audio>
										</media>
										<logginginfo>
											<description></description>
											<scene></scene>
											<shottake></shottake>
											<lognote></lognote>
											<good></good>
											<originalvideofilename></originalvideofilename>
											<originalaudiofilename></originalaudiofilename>
										</logginginfo>
										<colorinfo>
											<lut></lut>
											<lut1></lut1>
											<asc_sop></asc_sop>
											<asc_sat></asc_sat>
											<lut2></lut2>
										</colorinfo>
										<labels>
											<label2>Iris</label2>
										</labels>
									</clip>
									<clip id="masterclip-183" explodedTracks="true">
										<uuid>3dd82d62-6af8-4d8e-ad79-0bc422eb3c8a</uuid>
										<masterclipid>masterclip-183</masterclipid>
										<ismasterclip>TRUE</ismasterclip>
										<duration>245</duration>
										<rate>
											<timebase>30</timebase>
											<ntsc>TRUE</ntsc>
										</rate>
										<name>ATM_DRONE_TRANS_I.mov</name>
										<media>
											<video>
												<track>
													<clipitem id="clipitem-707">
														<masterclipid>masterclip-183</masterclipid>
														<name>ATM_DRONE_TRANS_I.mov</name>
														<rate>
															<timebase>30</timebase>
															<ntsc>TRUE</ntsc>
														</rate>
														<alphatype>straight</alphatype>
														<file id="file-172"/>
														<link>
															<linkclipref>clipitem-707</linkclipref>
															<mediatype>video</mediatype>
															<trackindex>1</trackindex>
															<clipindex>1</clipindex>
														</link>
														<link>
															<linkclipref>clipitem-708</linkclipref>
															<mediatype>audio</mediatype>
															<trackindex>1</trackindex>
															<clipindex>1</clipindex>
															<groupindex>1</groupindex>
														</link>
														<link>
															<linkclipref>clipitem-709</linkclipref>
															<mediatype>audio</mediatype>
															<trackindex>2</trackindex>
															<clipindex>1</clipindex>
															<groupindex>1</groupindex>
														</link>
													</clipitem>
												</track>
											</video>
											<audio>
												<track>
													<clipitem id="clipitem-708">
														<masterclipid>masterclip-183</masterclipid>
														<name>ATM_DRONE_TRANS_I.mov</name>
														<rate>
															<timebase>30</timebase>
															<ntsc>TRUE</ntsc>
														</rate>
														<file id="file-172"/>
														<sourcetrack>
															<mediatype>audio</mediatype>
															<trackindex>1</trackindex>
														</sourcetrack>
														<link>
															<linkclipref>clipitem-707</linkclipref>
															<mediatype>video</mediatype>
															<trackindex>1</trackindex>
															<clipindex>1</clipindex>
														</link>
														<link>
															<linkclipref>clipitem-708</linkclipref>
															<mediatype>audio</mediatype>
															<trackindex>1</trackindex>
															<clipindex>1</clipindex>
															<groupindex>1</groupindex>
														</link>
														<link>
															<linkclipref>clipitem-709</linkclipref>
															<mediatype>audio</mediatype>
															<trackindex>2</trackindex>
															<clipindex>1</clipindex>
															<groupindex>1</groupindex>
														</link>
													</clipitem>
												</track>
												<track>
													<clipitem id="clipitem-709">
														<masterclipid>masterclip-183</masterclipid>
														<name>ATM_DRONE_TRANS_I.mov</name>
														<rate>
															<timebase>30</timebase>
															<ntsc>TRUE</ntsc>
														</rate>
														<file id="file-172"/>
														<sourcetrack>
															<mediatype>audio</mediatype>
															<trackindex>2</trackindex>
														</sourcetrack>
														<link>
															<linkclipref>clipitem-707</linkclipref>
															<mediatype>video</mediatype>
															<trackindex>1</trackindex>
															<clipindex>1</clipindex>
														</link>
														<link>
															<linkclipref>clipitem-708</linkclipref>
															<mediatype>audio</mediatype>
															<trackindex>1</trackindex>
															<clipindex>1</clipindex>
															<groupindex>1</groupindex>
														</link>
														<link>
															<linkclipref>clipitem-709</linkclipref>
															<mediatype>audio</mediatype>
															<trackindex>2</trackindex>
															<clipindex>1</clipindex>
															<groupindex>1</groupindex>
														</link>
													</clipitem>
												</track>
											</audio>
										</media>
										<logginginfo>
											<description></description>
											<scene></scene>
											<shottake></shottake>
											<lognote></lognote>
											<good></good>
											<originalvideofilename></originalvideofilename>
											<originalaudiofilename></originalaudiofilename>
										</logginginfo>
										<colorinfo>
											<lut></lut>
											<lut1></lut1>
											<asc_sop></asc_sop>
											<asc_sat></asc_sat>
											<lut2></lut2>
										</colorinfo>
										<labels>
											<label2>Iris</label2>
										</labels>
									</clip>
								</children>
							</bin>
							<bin>
								<name>Seamless Transitions</name>
								<labels>
									<label2>Mango</label2>
								</labels>
								<children>
									<sequence id="sequence-50" TL.SQAudioVisibleBase="0" TL.SQVideoVisibleBase="0" TL.SQVisibleBaseTime="0" TL.SQAVDividerPosition="0.662460565567" TL.SQHideShyTracks="0" TL.SQHeaderWidth="236" Monitor.ProgramZoomOut="271221350400" Monitor.ProgramZoomIn="0" TL.SQTimePerPixel="0.0023966017633061361" MZ.EditLine="254270016000" MZ.Sequence.PreviewFrameSizeHeight="1080" MZ.Sequence.PreviewFrameSizeWidth="1920" MZ.Sequence.AudioTimeDisplayFormat="200" MZ.Sequence.PreviewRenderingClassID="1297106761" MZ.Sequence.PreviewRenderingPresetCodec="1297107278" MZ.Sequence.PreviewRenderingPresetPath="EncoderPresets/SequencePreview/795454d9-d3c2-429d-9474-923ab13b7018/I-Frame Only MPEG.epr" MZ.Sequence.PreviewUseMaxRenderQuality="false" MZ.Sequence.PreviewUseMaxBitDepth="false" MZ.Sequence.EditingModeGUID="795454d9-d3c2-429d-9474-923ab13b7018" MZ.Sequence.VideoTimeDisplayFormat="102" MZ.WorkOutPoint="271221350400" MZ.WorkInPoint="0" explodedTracks="true">
										<uuid>b312eaef-7171-48d7-8d4f-b7b4f4322fe5</uuid>
										<duration>32</duration>
										<rate>
											<timebase>30</timebase>
											<ntsc>TRUE</ntsc>
										</rate>
										<name>01 Zoom Out - Left Rotation</name>
										<media>
											<video>
												<format>
													<samplecharacteristics>
														<rate>
															<timebase>30</timebase>
															<ntsc>TRUE</ntsc>
														</rate>
														<codec>
															<name>Apple ProRes 422</name>
															<appspecificdata>
																<appname>Final Cut Pro</appname>
																<appmanufacturer>Apple Inc.</appmanufacturer>
																<appversion>7.0</appversion>
																<data>
																	<qtcodec>
																		<codecname>Apple ProRes 422</codecname>
																		<codectypename>Apple ProRes 422</codectypename>
																		<codectypecode>apcn</codectypecode>
																		<codecvendorcode>appl</codecvendorcode>
																		<spatialquality>1024</spatialquality>
																		<temporalquality>0</temporalquality>
																		<keyframerate>0</keyframerate>
																		<datarate>0</datarate>
																	</qtcodec>
																</data>
															</appspecificdata>
														</codec>
														<width>1920</width>
														<height>1080</height>
														<anamorphic>FALSE</anamorphic>
														<pixelaspectratio>square</pixelaspectratio>
														<fielddominance>none</fielddominance>
														<colordepth>24</colordepth>
													</samplecharacteristics>
												</format>
												<track TL.SQTrackShy="0" TL.SQTrackExpandedHeight="25" TL.SQTrackExpanded="0" MZ.TrackTargeted="0">
													<clipitem id="clipitem-710">
														<masterclipid>masterclip-349</masterclipid>
														<name>Picture 01.jpeg</name>
														<enabled>TRUE</enabled>
														<duration>1294705</duration>
														<rate>
															<timebase>30</timebase>
															<ntsc>TRUE</ntsc>
														</rate>
														<start>0</start>
														<end>14</end>
														<in>107886</in>
														<out>107900</out>
														<pproTicksIn>914405831539200</pproTicksIn>
														<pproTicksOut>914524490880000</pproTicksOut>
														<alphatype>none</alphatype>
														<pixelaspectratio>square</pixelaspectratio>
														<anamorphic>FALSE</anamorphic>
														<file id="file-321">
															<name>Picture 01.jpeg</name>
															<pathurl>file://localhost/Volumes/T7/DRONE_08.18.2023/4_Project%20Files/Drone%202023%20Master%20Assets/02_Transitions/Seamless%20Transitions%20For%20Premiere%20Pro_DRONE/Premiere%20Pro%20project%20file/Assets/Picture%2001.jpeg</pathurl>
															<rate>
																<timebase>30</timebase>
																<ntsc>TRUE</ntsc>
															</rate>
															<timecode>
																<rate>
																	<timebase>30</timebase>
																	<ntsc>TRUE</ntsc>
																</rate>
																<string>00:00:00:00</string>
																<frame>0</frame>
																<displayformat>NDF</displayformat>
															</timecode>
															<media>
																<video>
																	<samplecharacteristics>
																		<rate>
																			<timebase>30</timebase>
																			<ntsc>TRUE</ntsc>
																		</rate>
																		<width>2500</width>
																		<height>1626</height>
																		<anamorphic>FALSE</anamorphic>
																		<pixelaspectratio>square</pixelaspectratio>
																		<fielddominance>none</fielddominance>
																	</samplecharacteristics>
																</video>
															</media>
														</file>
														<filter>
															<effect>
																<name>Basic Motion</name>
																<effectid>basic</effectid>
																<effectcategory>motion</effectcategory>
																<effecttype>motion</effecttype>
																<mediatype>video</mediatype>
																<pproBypass>false</pproBypass>
																<parameter authoringApp="PremierePro">
																	<parameterid>scale</parameterid>
																	<name>Scale</name>
																	<valuemin>0</valuemin>
																	<valuemax>1000</valuemax>
																	<value>77</value>
																</parameter>
																<parameter authoringApp="PremierePro">
																	<parameterid>rotation</parameterid>
																	<name>Rotation</name>
																	<valuemin>-8640</valuemin>
																	<valuemax>8640</valuemax>
																	<value>0</value>
																</parameter>
																<parameter authoringApp="PremierePro">
																	<parameterid>center</parameterid>
																	<name>Center</name>
																	<value>
																		<horiz>0</horiz>
																		<vert>0</vert>
																	</value>
																</parameter>
																<parameter authoringApp="PremierePro">
																	<parameterid>centerOffset</parameterid>
																	<name>Anchor Point</name>
																	<value>
																		<horiz>0</horiz>
																		<vert>0</vert>
																	</value>
																</parameter>
																<parameter authoringApp="PremierePro">
																	<parameterid>antiflicker</parameterid>
																	<name>Anti-flicker Filter</name>
																	<valuemin>0.0</valuemin>
																	<valuemax>1.0</valuemax>
																	<value>0</value>
																</parameter>
															</effect>
														</filter>
														<logginginfo>
															<description></description>
															<scene></scene>
															<shottake></shottake>
															<lognote></lognote>
															<good></good>
															<originalvideofilename></originalvideofilename>
															<originalaudiofilename></originalaudiofilename>
														</logginginfo>
														<colorinfo>
															<lut></lut>
															<lut1></lut1>
															<asc_sop></asc_sop>
															<asc_sat></asc_sat>
															<lut2></lut2>
														</colorinfo>
														<labels>
															<label2>Lavender</label2>
														</labels>
													</clipitem>
													<clipitem id="clipitem-711">
														<masterclipid>masterclip-350</masterclipid>
														<name>Picture 02.jpg</name>
														<enabled>TRUE</enabled>
														<duration>1294705</duration>
														<rate>
															<timebase>30</timebase>
															<ntsc>TRUE</ntsc>
														</rate>
														<start>14</start>
														<end>32</end>
														<in>107892</in>
														<out>107910</out>
														<pproTicksIn>914456685542400</pproTicksIn>
														<pproTicksOut>914609247552000</pproTicksOut>
														<alphatype>none</alphatype>
														<pixelaspectratio>square</pixelaspectratio>
														<anamorphic>FALSE</anamorphic>
														<file id="file-322">
															<name>Picture 02.jpg</name>
															<pathurl>file://localhost/Volumes/T7/DRONE_08.18.2023/4_Project%20Files/Drone%202023%20Master%20Assets/02_Transitions/Seamless%20Transitions%20For%20Premiere%20Pro_DRONE/Premiere%20Pro%20project%20file/Assets/Picture%2002.jpg</pathurl>
															<rate>
																<timebase>30</timebase>
																<ntsc>TRUE</ntsc>
															</rate>
															<timecode>
																<rate>
																	<timebase>30</timebase>
																	<ntsc>TRUE</ntsc>
																</rate>
																<string>00:00:00:00</string>
																<frame>0</frame>
																<displayformat>NDF</displayformat>
															</timecode>
															<media>
																<video>
																	<samplecharacteristics>
																		<rate>
																			<timebase>30</timebase>
																			<ntsc>TRUE</ntsc>
																		</rate>
																		<width>1920</width>
																		<height>1200</height>
																		<anamorphic>FALSE</anamorphic>
																		<pixelaspectratio>square</pixelaspectratio>
																		<fielddominance>none</fielddominance>
																	</samplecharacteristics>
																</video>
															</media>
														</file>
														<logginginfo>
															<description></description>
															<scene></scene>
															<shottake></shottake>
															<lognote></lognote>
															<good></good>
															<originalvideofilename></originalvideofilename>
															<originalaudiofilename></originalaudiofilename>
														</logginginfo>
														<colorinfo>
															<lut></lut>
															<lut1></lut1>
															<asc_sop></asc_sop>
															<asc_sat></asc_sat>
															<lut2></lut2>
														</colorinfo>
														<labels>
															<label2>Lavender</label2>
														</labels>
													</clipitem>
													<enabled>TRUE</enabled>
													<locked>FALSE</locked>
												</track>
												<track TL.SQTrackShy="0" TL.SQTrackExpandedHeight="25" TL.SQTrackExpanded="0" MZ.TrackTargeted="0">
													<clipitem id="clipitem-712">
														<masterclipid>masterclip-157</masterclipid>
														<name>01 Z zoom Out - Left Rotation / Transform Out</name>
														<enabled>TRUE</enabled>
														<duration>1294705</duration>
														<rate>
															<timebase>30</timebase>
															<ntsc>TRUE</ntsc>
														</rate>
														<start>0</start>
														<end>14</end>
														<in>0</in>
														<out>14</out>
														<pproTicksIn>0</pproTicksIn>
														<pproTicksOut>118659340800</pproTicksOut>
														<sequence id="sequence-7"/>
														<filter>
															<effect>
																<name>Opacity</name>
																<effectid>opacity</effectid>
																<effectcategory>motion</effectcategory>
																<effecttype>motion</effecttype>
																<mediatype>video</mediatype>
																<pproBypass>false</pproBypass>
																<parameter authoringApp="PremierePro">
																	<parameterid>opacity</parameterid>
																	<name>opacity</name>
																	<valuemin>0</valuemin>
																	<valuemax>100</valuemax>
																	<value>100</value>
																	<keyframe>
																		<when>0</when>
																		<value>0</value>
																	</keyframe>
																	<keyframe>
																		<when>1</when>
																		<value>100</value>
																	</keyframe>
																</parameter>
															</effect>
														</filter>
															<marker>
																<comment></comment>
																<name></name>
																<in>20</in>
																<out>-1</out>
															</marker>
														<labels>
															<label2>Iris</label2>
														</labels>
													</clipitem>
													<clipitem id="clipitem-713">
														<masterclipid>masterclip-159</masterclipid>
														<name>01 Z zoom Out - Left Rotation / Transform In</name>
														<enabled>TRUE</enabled>
														<duration>1294705</duration>
														<rate>
															<timebase>30</timebase>
															<ntsc>TRUE</ntsc>
														</rate>
														<start>14</start>
														<end>26</end>
														<in>0</in>
														<out>12</out>
														<pproTicksIn>0</pproTicksIn>
														<pproTicksOut>101708006400</pproTicksOut>
														<sequence id="sequence-8"/>
														<filter>
															<effect>
																<name>Basic Motion</name>
																<effectid>basic</effectid>
																<effectcategory>motion</effectcategory>
																<effecttype>motion</effecttype>
																<mediatype>video</mediatype>
																<pproBypass>false</pproBypass>
																<parameter authoringApp="PremierePro">
																	<parameterid>scale</parameterid>
																	<name>Scale</name>
																	<valuemin>0</valuemin>
																	<valuemax>1000</valuemax>
																	<value>100</value>
																</parameter>
																<parameter authoringApp="PremierePro">
																	<parameterid>rotation</parameterid>
																	<name>Rotation</name>
																	<valuemin>-8640</valuemin>
																	<valuemax>8640</valuemax>
																	<value>0</value>
																</parameter>
																<parameter authoringApp="PremierePro">
																	<parameterid>center</parameterid>
																	<name>Center</name>
																	<value>
																		<horiz>-0.5</horiz>
																		<vert>-0.499394</vert>
																	</value>
																</parameter>
																<parameter authoringApp="PremierePro">
																	<parameterid>centerOffset</parameterid>
																	<name>Anchor Point</name>
																	<value>
																		<horiz>0</horiz>
																		<vert>-0.00060606</vert>
																	</value>
																</parameter>
																<parameter authoringApp="PremierePro">
																	<parameterid>antiflicker</parameterid>
																	<name>Anti-flicker Filter</name>
																	<valuemin>0.0</valuemin>
																	<valuemax>1.0</valuemax>
																	<value>0</value>
																</parameter>
															</effect>
														</filter>
														<labels>
															<label2>Iris</label2>
														</labels>
													</clipitem>
													<enabled>TRUE</enabled>
													<locked>FALSE</locked>
												</track>
												<track TL.SQTrackShy="0" TL.SQTrackExpandedHeight="25" TL.SQTrackExpanded="0" MZ.TrackTargeted="0">
													<enabled>TRUE</enabled>
													<locked>FALSE</locked>
												</track>
												<track TL.SQTrackShy="0" TL.SQTrackExpandedHeight="25" TL.SQTrackExpanded="0" MZ.TrackTargeted="0">
													<enabled>TRUE</enabled>
													<locked>FALSE</locked>
												</track>
												<track TL.SQTrackShy="0" TL.SQTrackExpandedHeight="25" TL.SQTrackExpanded="0" MZ.TrackTargeted="0">
													<enabled>TRUE</enabled>
													<locked>FALSE</locked>
												</track>
												<track TL.SQTrackShy="0" TL.SQTrackExpandedHeight="25" TL.SQTrackExpanded="0" MZ.TrackTargeted="0">
													<enabled>TRUE</enabled>
													<locked>FALSE</locked>
												</track>
												<track TL.SQTrackShy="0" TL.SQTrackExpandedHeight="25" TL.SQTrackExpanded="0" MZ.TrackTargeted="0">
													<enabled>TRUE</enabled>
													<locked>FALSE</locked>
												</track>
											</video>
											<audio>
												<numOutputChannels>2</numOutputChannels>
												<format>
													<samplecharacteristics>
														<depth>16</depth>
														<samplerate>48000</samplerate>
													</samplecharacteristics>
												</format>
												<outputs>
													<group>
														<index>1</index>
														<numchannels>1</numchannels>
														<downmix>0</downmix>
														<channel>
															<index>1</index>
														</channel>
													</group>
													<group>
														<index>2</index>
														<numchannels>1</numchannels>
														<downmix>0</downmix>
														<channel>
															<index>2</index>
														</channel>
													</group>
												</outputs>
												<track TL.SQTrackAudioKeyframeStyle="0" TL.SQTrackShy="0" TL.SQTrackExpandedHeight="25" TL.SQTrackExpanded="1" MZ.TrackTargeted="1" PannerCurrentValue="0.5" PannerIsInverted="true" PannerStartKeyframe="-91445760000000000,0.5,0,0,0,0,0,0" PannerName="Balance" currentExplodedTrackIndex="0" totalExplodedTrackCount="2" premiereTrackType="Stereo">
													<enabled>TRUE</enabled>
													<locked>FALSE</locked>
													<outputchannelindex>1</outputchannelindex>
												</track>
												<track TL.SQTrackAudioKeyframeStyle="0" TL.SQTrackShy="0" TL.SQTrackExpandedHeight="25" TL.SQTrackExpanded="1" MZ.TrackTargeted="1" PannerCurrentValue="0.5" PannerIsInverted="true" PannerStartKeyframe="-91445760000000000,0.5,0,0,0,0,0,0" PannerName="Balance" currentExplodedTrackIndex="1" totalExplodedTrackCount="2" premiereTrackType="Stereo">
													<enabled>TRUE</enabled>
													<locked>FALSE</locked>
													<outputchannelindex>2</outputchannelindex>
												</track>
												<track TL.SQTrackAudioKeyframeStyle="0" TL.SQTrackShy="0" TL.SQTrackExpandedHeight="25" TL.SQTrackExpanded="1" MZ.TrackTargeted="1" PannerCurrentValue="0.5" PannerIsInverted="true" PannerStartKeyframe="-91445760000000000,0.5,0,0,0,0,0,0" PannerName="Balance" currentExplodedTrackIndex="0" totalExplodedTrackCount="2" premiereTrackType="Stereo">
													<enabled>TRUE</enabled>
													<locked>FALSE</locked>
													<outputchannelindex>1</outputchannelindex>
												</track>
												<track TL.SQTrackAudioKeyframeStyle="0" TL.SQTrackShy="0" TL.SQTrackExpandedHeight="25" TL.SQTrackExpanded="1" MZ.TrackTargeted="1" PannerCurrentValue="0.5" PannerIsInverted="true" PannerStartKeyframe="-91445760000000000,0.5,0,0,0,0,0,0" PannerName="Balance" currentExplodedTrackIndex="1" totalExplodedTrackCount="2" premiereTrackType="Stereo">
													<enabled>TRUE</enabled>
													<locked>FALSE</locked>
													<outputchannelindex>2</outputchannelindex>
												</track>
												<track TL.SQTrackAudioKeyframeStyle="0" TL.SQTrackShy="0" TL.SQTrackExpandedHeight="25" TL.SQTrackExpanded="1" MZ.TrackTargeted="1" PannerCurrentValue="0.5" PannerIsInverted="true" PannerStartKeyframe="-91445760000000000,0.5,0,0,0,0,0,0" PannerName="Balance" currentExplodedTrackIndex="0" totalExplodedTrackCount="2" premiereTrackType="Stereo">
													<enabled>TRUE</enabled>
													<locked>FALSE</locked>
													<outputchannelindex>1</outputchannelindex>
												</track>
												<track TL.SQTrackAudioKeyframeStyle="0" TL.SQTrackShy="0" TL.SQTrackExpandedHeight="25" TL.SQTrackExpanded="1" MZ.TrackTargeted="1" PannerCurrentValue="0.5" PannerIsInverted="true" PannerStartKeyframe="-91445760000000000,0.5,0,0,0,0,0,0" PannerName="Balance" currentExplodedTrackIndex="1" totalExplodedTrackCount="2" premiereTrackType="Stereo">
													<enabled>TRUE</enabled>
													<locked>FALSE</locked>
													<outputchannelindex>2</outputchannelindex>
												</track>
												<track TL.SQTrackAudioKeyframeStyle="0" TL.SQTrackShy="0" TL.SQTrackExpandedHeight="25" TL.SQTrackExpanded="0" MZ.TrackTargeted="0" PannerCurrentValue="0.5" PannerIsInverted="true" PannerStartKeyframe="-91445760000000000,0.5,0,0,0,0,0,0" PannerName="Balance" currentExplodedTrackIndex="0" totalExplodedTrackCount="2" premiereTrackType="Stereo">
													<enabled>TRUE</enabled>
													<locked>FALSE</locked>
													<outputchannelindex>1</outputchannelindex>
												</track>
												<track TL.SQTrackAudioKeyframeStyle="0" TL.SQTrackShy="0" TL.SQTrackExpandedHeight="25" TL.SQTrackExpanded="0" MZ.TrackTargeted="0" PannerCurrentValue="0.5" PannerIsInverted="true" PannerStartKeyframe="-91445760000000000,0.5,0,0,0,0,0,0" PannerName="Balance" currentExplodedTrackIndex="1" totalExplodedTrackCount="2" premiereTrackType="Stereo">
													<enabled>TRUE</enabled>
													<locked>FALSE</locked>
													<outputchannelindex>2</outputchannelindex>
												</track>
											</audio>
										</media>
										<timecode>
											<rate>
												<timebase>30</timebase>
												<ntsc>TRUE</ntsc>
											</rate>
											<string>00;00;00;00</string>
											<frame>0</frame>
											<displayformat>DF</displayformat>
										</timecode>
										<labels>
											<label2>Rose</label2>
										</labels>
										<logginginfo>
											<description></description>
											<scene></scene>
											<shottake></shottake>
											<lognote></lognote>
											<good></good>
											<originalvideofilename></originalvideofilename>
											<originalaudiofilename></originalaudiofilename>
										</logginginfo>
									</sequence>
									<sequence id="sequence-51" TL.SQAudioVisibleBase="0" TL.SQVideoVisibleBase="0" TL.SQVisibleBaseTime="0" TL.SQAVDividerPosition="0.662460565567" TL.SQHideShyTracks="0" TL.SQHeaderWidth="236" Monitor.ProgramZoomOut="228843014400" Monitor.ProgramZoomIn="0" TL.SQTimePerPixel="0.0023966017633082998" MZ.EditLine="271221350400" MZ.Sequence.PreviewFrameSizeHeight="1080" MZ.Sequence.PreviewFrameSizeWidth="1920" MZ.Sequence.AudioTimeDisplayFormat="200" MZ.Sequence.PreviewRenderingClassID="1297106761" MZ.Sequence.PreviewRenderingPresetCodec="1297107278" MZ.Sequence.PreviewRenderingPresetPath="EncoderPresets/SequencePreview/795454d9-d3c2-429d-9474-923ab13b7018/I-Frame Only MPEG.epr" MZ.Sequence.PreviewUseMaxRenderQuality="false" MZ.Sequence.PreviewUseMaxBitDepth="false" MZ.Sequence.EditingModeGUID="795454d9-d3c2-429d-9474-923ab13b7018" MZ.Sequence.VideoTimeDisplayFormat="102" MZ.WorkOutPoint="271221350400" MZ.WorkInPoint="0" explodedTracks="true">
										<uuid>6cdb9975-f87f-46cf-b7a2-fe6a60af369e</uuid>
										<duration>27</duration>
										<rate>
											<timebase>30</timebase>
											<ntsc>TRUE</ntsc>
										</rate>
										<name>02 Zoom In - Quick</name>
										<media>
											<video>
												<format>
													<samplecharacteristics>
														<rate>
															<timebase>30</timebase>
															<ntsc>TRUE</ntsc>
														</rate>
														<codec>
															<name>Apple ProRes 422</name>
															<appspecificdata>
																<appname>Final Cut Pro</appname>
																<appmanufacturer>Apple Inc.</appmanufacturer>
																<appversion>7.0</appversion>
																<data>
																	<qtcodec>
																		<codecname>Apple ProRes 422</codecname>
																		<codectypename>Apple ProRes 422</codectypename>
																		<codectypecode>apcn</codectypecode>
																		<codecvendorcode>appl</codecvendorcode>
																		<spatialquality>1024</spatialquality>
																		<temporalquality>0</temporalquality>
																		<keyframerate>0</keyframerate>
																		<datarate>0</datarate>
																	</qtcodec>
																</data>
															</appspecificdata>
														</codec>
														<width>1920</width>
														<height>1080</height>
														<anamorphic>FALSE</anamorphic>
														<pixelaspectratio>square</pixelaspectratio>
														<fielddominance>none</fielddominance>
														<colordepth>24</colordepth>
													</samplecharacteristics>
												</format>
												<track TL.SQTrackShy="0" TL.SQTrackExpandedHeight="25" TL.SQTrackExpanded="0" MZ.TrackTargeted="0">
													<clipitem id="clipitem-714">
														<masterclipid>masterclip-349</masterclipid>
														<name>Picture 01.jpeg</name>
														<enabled>TRUE</enabled>
														<duration>1294705</duration>
														<rate>
															<timebase>30</timebase>
															<ntsc>TRUE</ntsc>
														</rate>
														<start>0</start>
														<end>9</end>
														<in>107886</in>
														<out>107895</out>
														<pproTicksIn>914405831539200</pproTicksIn>
														<pproTicksOut>914482112544000</pproTicksOut>
														<alphatype>none</alphatype>
														<file id="file-321"/>
														<filter>
															<effect>
																<name>Basic Motion</name>
																<effectid>basic</effectid>
																<effectcategory>motion</effectcategory>
																<effecttype>motion</effecttype>
																<mediatype>video</mediatype>
																<pproBypass>false</pproBypass>
																<parameter authoringApp="PremierePro">
																	<parameterid>scale</parameterid>
																	<name>Scale</name>
																	<valuemin>0</valuemin>
																	<valuemax>1000</valuemax>
																	<value>77</value>
																</parameter>
																<parameter authoringApp="PremierePro">
																	<parameterid>rotation</parameterid>
																	<name>Rotation</name>
																	<valuemin>-8640</valuemin>
																	<valuemax>8640</valuemax>
																	<value>0</value>
																</parameter>
																<parameter authoringApp="PremierePro">
																	<parameterid>center</parameterid>
																	<name>Center</name>
																	<value>
																		<horiz>0</horiz>
																		<vert>0</vert>
																	</value>
																</parameter>
																<parameter authoringApp="PremierePro">
																	<parameterid>centerOffset</parameterid>
																	<name>Anchor Point</name>
																	<value>
																		<horiz>0</horiz>
																		<vert>0</vert>
																	</value>
																</parameter>
																<parameter authoringApp="PremierePro">
																	<parameterid>antiflicker</parameterid>
																	<name>Anti-flicker Filter</name>
																	<valuemin>0.0</valuemin>
																	<valuemax>1.0</valuemax>
																	<value>0</value>
																</parameter>
															</effect>
														</filter>
														<logginginfo>
															<description></description>
															<scene></scene>
															<shottake></shottake>
															<lognote></lognote>
															<good></good>
															<originalvideofilename></originalvideofilename>
															<originalaudiofilename></originalaudiofilename>
														</logginginfo>
														<colorinfo>
															<lut></lut>
															<lut1></lut1>
															<asc_sop></asc_sop>
															<asc_sat></asc_sat>
															<lut2></lut2>
														</colorinfo>
														<labels>
															<label2>Lavender</label2>
														</labels>
													</clipitem>
													<clipitem id="clipitem-715">
														<masterclipid>masterclip-350</masterclipid>
														<name>Picture 02.jpg</name>
														<enabled>TRUE</enabled>
														<duration>1294705</duration>
														<rate>
															<timebase>30</timebase>
															<ntsc>TRUE</ntsc>
														</rate>
														<start>9</start>
														<end>27</end>
														<in>107892</in>
														<out>107910</out>
														<pproTicksIn>914456685542400</pproTicksIn>
														<pproTicksOut>914609247552000</pproTicksOut>
														<alphatype>none</alphatype>
														<file id="file-322"/>
														<logginginfo>
															<description></description>
															<scene></scene>
															<shottake></shottake>
															<lognote></lognote>
															<good></good>
															<originalvideofilename></originalvideofilename>
															<originalaudiofilename></originalaudiofilename>
														</logginginfo>
														<colorinfo>
															<lut></lut>
															<lut1></lut1>
															<asc_sop></asc_sop>
															<asc_sat></asc_sat>
															<lut2></lut2>
														</colorinfo>
														<labels>
															<label2>Lavender</label2>
														</labels>
													</clipitem>
													<enabled>TRUE</enabled>
													<locked>FALSE</locked>
												</track>
												<track TL.SQTrackShy="0" TL.SQTrackExpandedHeight="25" TL.SQTrackExpanded="0" MZ.TrackTargeted="0">
													<clipitem id="clipitem-716">
														<masterclipid>masterclip-157</masterclipid>
														<name>02 Zoom In - Quick / Transform Out</name>
														<enabled>TRUE</enabled>
														<duration>1294705</duration>
														<rate>
															<timebase>30</timebase>
															<ntsc>TRUE</ntsc>
														</rate>
														<start>0</start>
														<end>9</end>
														<in>0</in>
														<out>9</out>
														<pproTicksIn>0</pproTicksIn>
														<pproTicksOut>76281004800</pproTicksOut>
														<sequence id="sequence-7"/>
															<marker>
																<comment></comment>
																<name></name>
																<in>20</in>
																<out>-1</out>
															</marker>
														<labels>
															<label2>Iris</label2>
														</labels>
													</clipitem>
													<clipitem id="clipitem-717">
														<masterclipid>masterclip-159</masterclipid>
														<name>02 Zoom In - Quick / Transform In</name>
														<enabled>TRUE</enabled>
														<duration>1294705</duration>
														<rate>
															<timebase>30</timebase>
															<ntsc>TRUE</ntsc>
														</rate>
														<start>9</start>
														<end>17</end>
														<in>0</in>
														<out>8</out>
														<pproTicksIn>0</pproTicksIn>
														<pproTicksOut>67805337600</pproTicksOut>
														<sequence id="sequence-8"/>
														<labels>
															<label2>Iris</label2>
														</labels>
													</clipitem>
													<enabled>TRUE</enabled>
													<locked>FALSE</locked>
												</track>
												<track TL.SQTrackShy="0" TL.SQTrackExpandedHeight="25" TL.SQTrackExpanded="0" MZ.TrackTargeted="0">
													<enabled>TRUE</enabled>
													<locked>FALSE</locked>
												</track>
												<track TL.SQTrackShy="0" TL.SQTrackExpandedHeight="25" TL.SQTrackExpanded="0" MZ.TrackTargeted="0">
													<enabled>TRUE</enabled>
													<locked>FALSE</locked>
												</track>
												<track TL.SQTrackShy="0" TL.SQTrackExpandedHeight="25" TL.SQTrackExpanded="0" MZ.TrackTargeted="0">
													<enabled>TRUE</enabled>
													<locked>FALSE</locked>
												</track>
												<track TL.SQTrackShy="0" TL.SQTrackExpandedHeight="25" TL.SQTrackExpanded="0" MZ.TrackTargeted="0">
													<enabled>TRUE</enabled>
													<locked>FALSE</locked>
												</track>
												<track TL.SQTrackShy="0" TL.SQTrackExpandedHeight="25" TL.SQTrackExpanded="0" MZ.TrackTargeted="0">
													<enabled>TRUE</enabled>
													<locked>FALSE</locked>
												</track>
											</video>
											<audio>
												<numOutputChannels>2</numOutputChannels>
												<format>
													<samplecharacteristics>
														<depth>16</depth>
														<samplerate>48000</samplerate>
													</samplecharacteristics>
												</format>
												<outputs>
													<group>
														<index>1</index>
														<numchannels>1</numchannels>
														<downmix>0</downmix>
														<channel>
															<index>1</index>
														</channel>
													</group>
													<group>
														<index>2</index>
														<numchannels>1</numchannels>
														<downmix>0</downmix>
														<channel>
															<index>2</index>
														</channel>
													</group>
												</outputs>
												<track TL.SQTrackAudioKeyframeStyle="0" TL.SQTrackShy="0" TL.SQTrackExpandedHeight="25" TL.SQTrackExpanded="1" MZ.TrackTargeted="1" PannerCurrentValue="0.5" PannerIsInverted="true" PannerStartKeyframe="-91445760000000000,0.5,0,0,0,0,0,0" PannerName="Balance" currentExplodedTrackIndex="0" totalExplodedTrackCount="2" premiereTrackType="Stereo">
													<enabled>TRUE</enabled>
													<locked>FALSE</locked>
													<outputchannelindex>1</outputchannelindex>
												</track>
												<track TL.SQTrackAudioKeyframeStyle="0" TL.SQTrackShy="0" TL.SQTrackExpandedHeight="25" TL.SQTrackExpanded="1" MZ.TrackTargeted="1" PannerCurrentValue="0.5" PannerIsInverted="true" PannerStartKeyframe="-91445760000000000,0.5,0,0,0,0,0,0" PannerName="Balance" currentExplodedTrackIndex="1" totalExplodedTrackCount="2" premiereTrackType="Stereo">
													<enabled>TRUE</enabled>
													<locked>FALSE</locked>
													<outputchannelindex>2</outputchannelindex>
												</track>
												<track TL.SQTrackAudioKeyframeStyle="0" TL.SQTrackShy="0" TL.SQTrackExpandedHeight="25" TL.SQTrackExpanded="1" MZ.TrackTargeted="1" PannerCurrentValue="0.5" PannerIsInverted="true" PannerStartKeyframe="-91445760000000000,0.5,0,0,0,0,0,0" PannerName="Balance" currentExplodedTrackIndex="0" totalExplodedTrackCount="2" premiereTrackType="Stereo">
													<enabled>TRUE</enabled>
													<locked>FALSE</locked>
													<outputchannelindex>1</outputchannelindex>
												</track>
												<track TL.SQTrackAudioKeyframeStyle="0" TL.SQTrackShy="0" TL.SQTrackExpandedHeight="25" TL.SQTrackExpanded="1" MZ.TrackTargeted="1" PannerCurrentValue="0.5" PannerIsInverted="true" PannerStartKeyframe="-91445760000000000,0.5,0,0,0,0,0,0" PannerName="Balance" currentExplodedTrackIndex="1" totalExplodedTrackCount="2" premiereTrackType="Stereo">
													<enabled>TRUE</enabled>
													<locked>FALSE</locked>
													<outputchannelindex>2</outputchannelindex>
												</track>
												<track TL.SQTrackAudioKeyframeStyle="0" TL.SQTrackShy="0" TL.SQTrackExpandedHeight="25" TL.SQTrackExpanded="1" MZ.TrackTargeted="1" PannerCurrentValue="0.5" PannerIsInverted="true" PannerStartKeyframe="-91445760000000000,0.5,0,0,0,0,0,0" PannerName="Balance" currentExplodedTrackIndex="0" totalExplodedTrackCount="2" premiereTrackType="Stereo">
													<enabled>TRUE</enabled>
													<locked>FALSE</locked>
													<outputchannelindex>1</outputchannelindex>
												</track>
												<track TL.SQTrackAudioKeyframeStyle="0" TL.SQTrackShy="0" TL.SQTrackExpandedHeight="25" TL.SQTrackExpanded="1" MZ.TrackTargeted="1" PannerCurrentValue="0.5" PannerIsInverted="true" PannerStartKeyframe="-91445760000000000,0.5,0,0,0,0,0,0" PannerName="Balance" currentExplodedTrackIndex="1" totalExplodedTrackCount="2" premiereTrackType="Stereo">
													<enabled>TRUE</enabled>
													<locked>FALSE</locked>
													<outputchannelindex>2</outputchannelindex>
												</track>
												<track TL.SQTrackAudioKeyframeStyle="0" TL.SQTrackShy="0" TL.SQTrackExpandedHeight="25" TL.SQTrackExpanded="0" MZ.TrackTargeted="0" PannerCurrentValue="0.5" PannerIsInverted="true" PannerStartKeyframe="-91445760000000000,0.5,0,0,0,0,0,0" PannerName="Balance" currentExplodedTrackIndex="0" totalExplodedTrackCount="2" premiereTrackType="Stereo">
													<enabled>TRUE</enabled>
													<locked>FALSE</locked>
													<outputchannelindex>1</outputchannelindex>
												</track>
												<track TL.SQTrackAudioKeyframeStyle="0" TL.SQTrackShy="0" TL.SQTrackExpandedHeight="25" TL.SQTrackExpanded="0" MZ.TrackTargeted="0" PannerCurrentValue="0.5" PannerIsInverted="true" PannerStartKeyframe="-91445760000000000,0.5,0,0,0,0,0,0" PannerName="Balance" currentExplodedTrackIndex="1" totalExplodedTrackCount="2" premiereTrackType="Stereo">
													<enabled>TRUE</enabled>
													<locked>FALSE</locked>
													<outputchannelindex>2</outputchannelindex>
												</track>
											</audio>
										</media>
										<timecode>
											<rate>
												<timebase>30</timebase>
												<ntsc>TRUE</ntsc>
											</rate>
											<string>00;00;00;00</string>
											<frame>0</frame>
											<displayformat>DF</displayformat>
										</timecode>
										<labels>
											<label2>Rose</label2>
										</labels>
										<logginginfo>
											<description></description>
											<scene></scene>
											<shottake></shottake>
											<lognote></lognote>
											<good></good>
											<originalvideofilename></originalvideofilename>
											<originalaudiofilename></originalaudiofilename>
										</logginginfo>
									</sequence>
									<sequence id="sequence-52" TL.SQAudioVisibleBase="0" TL.SQVideoVisibleBase="0" TL.SQVisibleBaseTime="0" TL.SQAVDividerPosition="0.662460565567" TL.SQHideShyTracks="0" TL.SQHeaderWidth="236" Monitor.ProgramZoomOut="220367347200" Monitor.ProgramZoomIn="0" TL.SQTimePerPixel="0.0023966017633039721" MZ.EditLine="271221350400" MZ.Sequence.PreviewFrameSizeHeight="1080" MZ.Sequence.PreviewFrameSizeWidth="1920" MZ.Sequence.AudioTimeDisplayFormat="200" MZ.Sequence.PreviewRenderingClassID="1297106761" MZ.Sequence.PreviewRenderingPresetCodec="1297107278" MZ.Sequence.PreviewRenderingPresetPath="EncoderPresets/SequencePreview/795454d9-d3c2-429d-9474-923ab13b7018/I-Frame Only MPEG.epr" MZ.Sequence.PreviewUseMaxRenderQuality="false" MZ.Sequence.PreviewUseMaxBitDepth="false" MZ.Sequence.EditingModeGUID="795454d9-d3c2-429d-9474-923ab13b7018" MZ.Sequence.VideoTimeDisplayFormat="102" MZ.WorkOutPoint="271221350400" MZ.WorkInPoint="0" explodedTracks="true">
										<uuid>1f8289b7-f3ad-4f69-ab35-6d07f80f7260</uuid>
										<duration>26</duration>
										<rate>
											<timebase>30</timebase>
											<ntsc>TRUE</ntsc>
										</rate>
										<name>03 Zoom Out - Quick</name>
										<media>
											<video>
												<format>
													<samplecharacteristics>
														<rate>
															<timebase>30</timebase>
															<ntsc>TRUE</ntsc>
														</rate>
														<codec>
															<name>Apple ProRes 422</name>
															<appspecificdata>
																<appname>Final Cut Pro</appname>
																<appmanufacturer>Apple Inc.</appmanufacturer>
																<appversion>7.0</appversion>
																<data>
																	<qtcodec>
																		<codecname>Apple ProRes 422</codecname>
																		<codectypename>Apple ProRes 422</codectypename>
																		<codectypecode>apcn</codectypecode>
																		<codecvendorcode>appl</codecvendorcode>
																		<spatialquality>1024</spatialquality>
																		<temporalquality>0</temporalquality>
																		<keyframerate>0</keyframerate>
																		<datarate>0</datarate>
																	</qtcodec>
																</data>
															</appspecificdata>
														</codec>
														<width>1920</width>
														<height>1080</height>
														<anamorphic>FALSE</anamorphic>
														<pixelaspectratio>square</pixelaspectratio>
														<fielddominance>none</fielddominance>
														<colordepth>24</colordepth>
													</samplecharacteristics>
												</format>
												<track TL.SQTrackShy="0" TL.SQTrackExpandedHeight="25" TL.SQTrackExpanded="0" MZ.TrackTargeted="0">
													<clipitem id="clipitem-718">
														<masterclipid>masterclip-349</masterclipid>
														<name>Picture 01.jpeg</name>
														<enabled>TRUE</enabled>
														<duration>1294705</duration>
														<rate>
															<timebase>30</timebase>
															<ntsc>TRUE</ntsc>
														</rate>
														<start>0</start>
														<end>9</end>
														<in>107886</in>
														<out>107895</out>
														<pproTicksIn>914405831539200</pproTicksIn>
														<pproTicksOut>914482112544000</pproTicksOut>
														<alphatype>none</alphatype>
														<file id="file-321"/>
														<filter>
															<effect>
																<name>Basic Motion</name>
																<effectid>basic</effectid>
																<effectcategory>motion</effectcategory>
																<effecttype>motion</effecttype>
																<mediatype>video</mediatype>
																<pproBypass>false</pproBypass>
																<parameter authoringApp="PremierePro">
																	<parameterid>scale</parameterid>
																	<name>Scale</name>
																	<valuemin>0</valuemin>
																	<valuemax>1000</valuemax>
																	<value>77</value>
																</parameter>
																<parameter authoringApp="PremierePro">
																	<parameterid>rotation</parameterid>
																	<name>Rotation</name>
																	<valuemin>-8640</valuemin>
																	<valuemax>8640</valuemax>
																	<value>0</value>
																</parameter>
																<parameter authoringApp="PremierePro">
																	<parameterid>center</parameterid>
																	<name>Center</name>
																	<value>
																		<horiz>0</horiz>
																		<vert>0</vert>
																	</value>
																</parameter>
																<parameter authoringApp="PremierePro">
																	<parameterid>centerOffset</parameterid>
																	<name>Anchor Point</name>
																	<value>
																		<horiz>0</horiz>
																		<vert>0</vert>
																	</value>
																</parameter>
																<parameter authoringApp="PremierePro">
																	<parameterid>antiflicker</parameterid>
																	<name>Anti-flicker Filter</name>
																	<valuemin>0.0</valuemin>
																	<valuemax>1.0</valuemax>
																	<value>0</value>
																</parameter>
															</effect>
														</filter>
														<logginginfo>
															<description></description>
															<scene></scene>
															<shottake></shottake>
															<lognote></lognote>
															<good></good>
															<originalvideofilename></originalvideofilename>
															<originalaudiofilename></originalaudiofilename>
														</logginginfo>
														<colorinfo>
															<lut></lut>
															<lut1></lut1>
															<asc_sop></asc_sop>
															<asc_sat></asc_sat>
															<lut2></lut2>
														</colorinfo>
														<labels>
															<label2>Lavender</label2>
														</labels>
													</clipitem>
													<clipitem id="clipitem-719">
														<masterclipid>masterclip-350</masterclipid>
														<name>Picture 02.jpg</name>
														<enabled>TRUE</enabled>
														<duration>1294705</duration>
														<rate>
															<timebase>30</timebase>
															<ntsc>TRUE</ntsc>
														</rate>
														<start>9</start>
														<end>26</end>
														<in>107892</in>
														<out>107909</out>
														<pproTicksIn>914456685542400</pproTicksIn>
														<pproTicksOut>914600771884800</pproTicksOut>
														<alphatype>none</alphatype>
														<file id="file-322"/>
														<logginginfo>
															<description></description>
															<scene></scene>
															<shottake></shottake>
															<lognote></lognote>
															<good></good>
															<originalvideofilename></originalvideofilename>
															<originalaudiofilename></originalaudiofilename>
														</logginginfo>
														<colorinfo>
															<lut></lut>
															<lut1></lut1>
															<asc_sop></asc_sop>
															<asc_sat></asc_sat>
															<lut2></lut2>
														</colorinfo>
														<labels>
															<label2>Lavender</label2>
														</labels>
													</clipitem>
													<enabled>TRUE</enabled>
													<locked>FALSE</locked>
												</track>
												<track TL.SQTrackShy="0" TL.SQTrackExpandedHeight="25" TL.SQTrackExpanded="0" MZ.TrackTargeted="0">
													<clipitem id="clipitem-720">
														<masterclipid>masterclip-157</masterclipid>
														<name>03 Zoom Out - Quick / Transform Out</name>
														<enabled>TRUE</enabled>
														<duration>1294705</duration>
														<rate>
															<timebase>30</timebase>
															<ntsc>TRUE</ntsc>
														</rate>
														<start>0</start>
														<end>9</end>
														<in>0</in>
														<out>9</out>
														<pproTicksIn>0</pproTicksIn>
														<pproTicksOut>76281004800</pproTicksOut>
														<sequence id="sequence-7"/>
															<marker>
																<comment></comment>
																<name></name>
																<in>20</in>
																<out>-1</out>
															</marker>
														<labels>
															<label2>Iris</label2>
														</labels>
													</clipitem>
													<clipitem id="clipitem-721">
														<masterclipid>masterclip-159</masterclipid>
														<name>03 Zoom Out - Quick / Transform In</name>
														<enabled>TRUE</enabled>
														<duration>1294705</duration>
														<rate>
															<timebase>30</timebase>
															<ntsc>TRUE</ntsc>
														</rate>
														<start>9</start>
														<end>18</end>
														<in>0</in>
														<out>9</out>
														<pproTicksIn>0</pproTicksIn>
														<pproTicksOut>76281004800</pproTicksOut>
														<sequence id="sequence-8"/>
														<filter>
															<effect>
																<name>Basic Motion</name>
																<effectid>basic</effectid>
																<effectcategory>motion</effectcategory>
																<effecttype>motion</effecttype>
																<mediatype>video</mediatype>
																<pproBypass>false</pproBypass>
																<parameter authoringApp="PremierePro">
																	<parameterid>scale</parameterid>
																	<name>Scale</name>
																	<valuemin>0</valuemin>
																	<valuemax>1000</valuemax>
																	<value>100</value>
																</parameter>
																<parameter authoringApp="PremierePro">
																	<parameterid>rotation</parameterid>
																	<name>Rotation</name>
																	<valuemin>-8640</valuemin>
																	<valuemax>8640</valuemax>
																	<value>0</value>
																</parameter>
																<parameter authoringApp="PremierePro">
																	<parameterid>center</parameterid>
																	<name>Center</name>
																	<value>
																		<horiz>-0.5</horiz>
																		<vert>-0.499394</vert>
																	</value>
																</parameter>
																<parameter authoringApp="PremierePro">
																	<parameterid>centerOffset</parameterid>
																	<name>Anchor Point</name>
																	<value>
																		<horiz>0</horiz>
																		<vert>-0.00060606</vert>
																	</value>
																</parameter>
																<parameter authoringApp="PremierePro">
																	<parameterid>antiflicker</parameterid>
																	<name>Anti-flicker Filter</name>
																	<valuemin>0.0</valuemin>
																	<valuemax>1.0</valuemax>
																	<value>0</value>
																</parameter>
															</effect>
														</filter>
														<labels>
															<label2>Iris</label2>
														</labels>
													</clipitem>
													<enabled>TRUE</enabled>
													<locked>FALSE</locked>
												</track>
												<track TL.SQTrackShy="0" TL.SQTrackExpandedHeight="25" TL.SQTrackExpanded="0" MZ.TrackTargeted="0">
													<enabled>TRUE</enabled>
													<locked>FALSE</locked>
												</track>
												<track TL.SQTrackShy="0" TL.SQTrackExpandedHeight="25" TL.SQTrackExpanded="0" MZ.TrackTargeted="0">
													<enabled>TRUE</enabled>
													<locked>FALSE</locked>
												</track>
												<track TL.SQTrackShy="0" TL.SQTrackExpandedHeight="25" TL.SQTrackExpanded="0" MZ.TrackTargeted="0">
													<enabled>TRUE</enabled>
													<locked>FALSE</locked>
												</track>
												<track TL.SQTrackShy="0" TL.SQTrackExpandedHeight="25" TL.SQTrackExpanded="0" MZ.TrackTargeted="0">
													<enabled>TRUE</enabled>
													<locked>FALSE</locked>
												</track>
												<track TL.SQTrackShy="0" TL.SQTrackExpandedHeight="25" TL.SQTrackExpanded="0" MZ.TrackTargeted="0">
													<enabled>TRUE</enabled>
													<locked>FALSE</locked>
												</track>
											</video>
											<audio>
												<numOutputChannels>2</numOutputChannels>
												<format>
													<samplecharacteristics>
														<depth>16</depth>
														<samplerate>48000</samplerate>
													</samplecharacteristics>
												</format>
												<outputs>
													<group>
														<index>1</index>
														<numchannels>1</numchannels>
														<downmix>0</downmix>
														<channel>
															<index>1</index>
														</channel>
													</group>
													<group>
														<index>2</index>
														<numchannels>1</numchannels>
														<downmix>0</downmix>
														<channel>
															<index>2</index>
														</channel>
													</group>
												</outputs>
												<track TL.SQTrackAudioKeyframeStyle="0" TL.SQTrackShy="0" TL.SQTrackExpandedHeight="25" TL.SQTrackExpanded="1" MZ.TrackTargeted="1" PannerCurrentValue="0.5" PannerIsInverted="true" PannerStartKeyframe="-91445760000000000,0.5,0,0,0,0,0,0" PannerName="Balance" currentExplodedTrackIndex="0" totalExplodedTrackCount="2" premiereTrackType="Stereo">
													<enabled>TRUE</enabled>
													<locked>FALSE</locked>
													<outputchannelindex>1</outputchannelindex>
												</track>
												<track TL.SQTrackAudioKeyframeStyle="0" TL.SQTrackShy="0" TL.SQTrackExpandedHeight="25" TL.SQTrackExpanded="1" MZ.TrackTargeted="1" PannerCurrentValue="0.5" PannerIsInverted="true" PannerStartKeyframe="-91445760000000000,0.5,0,0,0,0,0,0" PannerName="Balance" currentExplodedTrackIndex="1" totalExplodedTrackCount="2" premiereTrackType="Stereo">
													<enabled>TRUE</enabled>
													<locked>FALSE</locked>
													<outputchannelindex>2</outputchannelindex>
												</track>
												<track TL.SQTrackAudioKeyframeStyle="0" TL.SQTrackShy="0" TL.SQTrackExpandedHeight="25" TL.SQTrackExpanded="1" MZ.TrackTargeted="1" PannerCurrentValue="0.5" PannerIsInverted="true" PannerStartKeyframe="-91445760000000000,0.5,0,0,0,0,0,0" PannerName="Balance" currentExplodedTrackIndex="0" totalExplodedTrackCount="2" premiereTrackType="Stereo">
													<enabled>TRUE</enabled>
													<locked>FALSE</locked>
													<outputchannelindex>1</outputchannelindex>
												</track>
												<track TL.SQTrackAudioKeyframeStyle="0" TL.SQTrackShy="0" TL.SQTrackExpandedHeight="25" TL.SQTrackExpanded="1" MZ.TrackTargeted="1" PannerCurrentValue="0.5" PannerIsInverted="true" PannerStartKeyframe="-91445760000000000,0.5,0,0,0,0,0,0" PannerName="Balance" currentExplodedTrackIndex="1" totalExplodedTrackCount="2" premiereTrackType="Stereo">
													<enabled>TRUE</enabled>
													<locked>FALSE</locked>
													<outputchannelindex>2</outputchannelindex>
												</track>
												<track TL.SQTrackAudioKeyframeStyle="0" TL.SQTrackShy="0" TL.SQTrackExpandedHeight="25" TL.SQTrackExpanded="1" MZ.TrackTargeted="1" PannerCurrentValue="0.5" PannerIsInverted="true" PannerStartKeyframe="-91445760000000000,0.5,0,0,0,0,0,0" PannerName="Balance" currentExplodedTrackIndex="0" totalExplodedTrackCount="2" premiereTrackType="Stereo">
													<enabled>TRUE</enabled>
													<locked>FALSE</locked>
													<outputchannelindex>1</outputchannelindex>
												</track>
												<track TL.SQTrackAudioKeyframeStyle="0" TL.SQTrackShy="0" TL.SQTrackExpandedHeight="25" TL.SQTrackExpanded="1" MZ.TrackTargeted="1" PannerCurrentValue="0.5" PannerIsInverted="true" PannerStartKeyframe="-91445760000000000,0.5,0,0,0,0,0,0" PannerName="Balance" currentExplodedTrackIndex="1" totalExplodedTrackCount="2" premiereTrackType="Stereo">
													<enabled>TRUE</enabled>
													<locked>FALSE</locked>
													<outputchannelindex>2</outputchannelindex>
												</track>
												<track TL.SQTrackAudioKeyframeStyle="0" TL.SQTrackShy="0" TL.SQTrackExpandedHeight="25" TL.SQTrackExpanded="0" MZ.TrackTargeted="0" PannerCurrentValue="0.5" PannerIsInverted="true" PannerStartKeyframe="-91445760000000000,0.5,0,0,0,0,0,0" PannerName="Balance" currentExplodedTrackIndex="0" totalExplodedTrackCount="2" premiereTrackType="Stereo">
													<enabled>TRUE</enabled>
													<locked>FALSE</locked>
													<outputchannelindex>1</outputchannelindex>
												</track>
												<track TL.SQTrackAudioKeyframeStyle="0" TL.SQTrackShy="0" TL.SQTrackExpandedHeight="25" TL.SQTrackExpanded="0" MZ.TrackTargeted="0" PannerCurrentValue="0.5" PannerIsInverted="true" PannerStartKeyframe="-91445760000000000,0.5,0,0,0,0,0,0" PannerName="Balance" currentExplodedTrackIndex="1" totalExplodedTrackCount="2" premiereTrackType="Stereo">
													<enabled>TRUE</enabled>
													<locked>FALSE</locked>
													<outputchannelindex>2</outputchannelindex>
												</track>
											</audio>
										</media>
										<timecode>
											<rate>
												<timebase>30</timebase>
												<ntsc>TRUE</ntsc>
											</rate>
											<string>00;00;00;00</string>
											<frame>0</frame>
											<displayformat>DF</displayformat>
										</timecode>
										<labels>
											<label2>Rose</label2>
										</labels>
										<logginginfo>
											<description></description>
											<scene></scene>
											<shottake></shottake>
											<lognote></lognote>
											<good></good>
											<originalvideofilename></originalvideofilename>
											<originalaudiofilename></originalaudiofilename>
										</logginginfo>
									</sequence>
									<sequence id="sequence-53" TL.SQAudioVisibleBase="0" TL.SQVideoVisibleBase="0" TL.SQVisibleBaseTime="0" TL.SQAVDividerPosition="0.504587173462" TL.SQHideShyTracks="0" TL.SQHeaderWidth="236" Monitor.ProgramZoomOut="203416012800" Monitor.ProgramZoomIn="0" TL.SQTimePerPixel="0.0011122222222222221" MZ.EditLine="271221350400" MZ.Sequence.PreviewFrameSizeHeight="1080" MZ.Sequence.PreviewFrameSizeWidth="1920" MZ.Sequence.AudioTimeDisplayFormat="200" MZ.Sequence.PreviewRenderingClassID="1297106761" MZ.Sequence.PreviewRenderingPresetCodec="1297107278" MZ.Sequence.PreviewRenderingPresetPath="EncoderPresets/SequencePreview/795454d9-d3c2-429d-9474-923ab13b7018/I-Frame Only MPEG.epr" MZ.Sequence.PreviewUseMaxRenderQuality="false" MZ.Sequence.PreviewUseMaxBitDepth="false" MZ.Sequence.EditingModeGUID="795454d9-d3c2-429d-9474-923ab13b7018" MZ.Sequence.VideoTimeDisplayFormat="102" MZ.WorkOutPoint="440734694400" MZ.WorkInPoint="0" explodedTracks="true">
										<uuid>31393499-312e-4a7f-b48e-e3e3854db481</uuid>
										<duration>24</duration>
										<rate>
											<timebase>30</timebase>
											<ntsc>TRUE</ntsc>
										</rate>
										<name>04 Zoom In - Right Rotation Quick</name>
										<media>
											<video>
												<format>
													<samplecharacteristics>
														<rate>
															<timebase>30</timebase>
															<ntsc>TRUE</ntsc>
														</rate>
														<codec>
															<name>Apple ProRes 422</name>
															<appspecificdata>
																<appname>Final Cut Pro</appname>
																<appmanufacturer>Apple Inc.</appmanufacturer>
																<appversion>7.0</appversion>
																<data>
																	<qtcodec>
																		<codecname>Apple ProRes 422</codecname>
																		<codectypename>Apple ProRes 422</codectypename>
																		<codectypecode>apcn</codectypecode>
																		<codecvendorcode>appl</codecvendorcode>
																		<spatialquality>1024</spatialquality>
																		<temporalquality>0</temporalquality>
																		<keyframerate>0</keyframerate>
																		<datarate>0</datarate>
																	</qtcodec>
																</data>
															</appspecificdata>
														</codec>
														<width>1920</width>
														<height>1080</height>
														<anamorphic>FALSE</anamorphic>
														<pixelaspectratio>square</pixelaspectratio>
														<fielddominance>none</fielddominance>
														<colordepth>24</colordepth>
													</samplecharacteristics>
												</format>
												<track TL.SQTrackShy="0" TL.SQTrackExpandedHeight="25" TL.SQTrackExpanded="0" MZ.TrackTargeted="0">
													<clipitem id="clipitem-722">
														<masterclipid>masterclip-349</masterclipid>
														<name>Picture 01.jpeg</name>
														<enabled>TRUE</enabled>
														<duration>1294705</duration>
														<rate>
															<timebase>30</timebase>
															<ntsc>TRUE</ntsc>
														</rate>
														<start>0</start>
														<end>9</end>
														<in>107886</in>
														<out>107895</out>
														<pproTicksIn>914405831539200</pproTicksIn>
														<pproTicksOut>914482112544000</pproTicksOut>
														<alphatype>none</alphatype>
														<file id="file-321"/>
														<filter>
															<effect>
																<name>Basic Motion</name>
																<effectid>basic</effectid>
																<effectcategory>motion</effectcategory>
																<effecttype>motion</effecttype>
																<mediatype>video</mediatype>
																<pproBypass>false</pproBypass>
																<parameter authoringApp="PremierePro">
																	<parameterid>scale</parameterid>
																	<name>Scale</name>
																	<valuemin>0</valuemin>
																	<valuemax>1000</valuemax>
																	<value>77</value>
																</parameter>
																<parameter authoringApp="PremierePro">
																	<parameterid>rotation</parameterid>
																	<name>Rotation</name>
																	<valuemin>-8640</valuemin>
																	<valuemax>8640</valuemax>
																	<value>0</value>
																</parameter>
																<parameter authoringApp="PremierePro">
																	<parameterid>center</parameterid>
																	<name>Center</name>
																	<value>
																		<horiz>0</horiz>
																		<vert>0</vert>
																	</value>
																</parameter>
																<parameter authoringApp="PremierePro">
																	<parameterid>centerOffset</parameterid>
																	<name>Anchor Point</name>
																	<value>
																		<horiz>0</horiz>
																		<vert>0</vert>
																	</value>
																</parameter>
																<parameter authoringApp="PremierePro">
																	<parameterid>antiflicker</parameterid>
																	<name>Anti-flicker Filter</name>
																	<valuemin>0.0</valuemin>
																	<valuemax>1.0</valuemax>
																	<value>0</value>
																</parameter>
															</effect>
														</filter>
														<logginginfo>
															<description></description>
															<scene></scene>
															<shottake></shottake>
															<lognote></lognote>
															<good></good>
															<originalvideofilename></originalvideofilename>
															<originalaudiofilename></originalaudiofilename>
														</logginginfo>
														<colorinfo>
															<lut></lut>
															<lut1></lut1>
															<asc_sop></asc_sop>
															<asc_sat></asc_sat>
															<lut2></lut2>
														</colorinfo>
														<labels>
															<label2>Lavender</label2>
														</labels>
													</clipitem>
													<clipitem id="clipitem-723">
														<masterclipid>masterclip-350</masterclipid>
														<name>Picture 02.jpg</name>
														<enabled>TRUE</enabled>
														<duration>1294705</duration>
														<rate>
															<timebase>30</timebase>
															<ntsc>TRUE</ntsc>
														</rate>
														<start>9</start>
														<end>24</end>
														<in>107892</in>
														<out>107907</out>
														<pproTicksIn>914456685542400</pproTicksIn>
														<pproTicksOut>914583820550400</pproTicksOut>
														<alphatype>none</alphatype>
														<file id="file-322"/>
														<logginginfo>
															<description></description>
															<scene></scene>
															<shottake></shottake>
															<lognote></lognote>
															<good></good>
															<originalvideofilename></originalvideofilename>
															<originalaudiofilename></originalaudiofilename>
														</logginginfo>
														<colorinfo>
															<lut></lut>
															<lut1></lut1>
															<asc_sop></asc_sop>
															<asc_sat></asc_sat>
															<lut2></lut2>
														</colorinfo>
														<labels>
															<label2>Lavender</label2>
														</labels>
													</clipitem>
													<enabled>TRUE</enabled>
													<locked>FALSE</locked>
												</track>
												<track TL.SQTrackShy="0" TL.SQTrackExpandedHeight="25" TL.SQTrackExpanded="0" MZ.TrackTargeted="0">
													<clipitem id="clipitem-724">
														<masterclipid>masterclip-157</masterclipid>
														<name>04 Zoom In - Right Rotation Quick / Transform Out</name>
														<enabled>TRUE</enabled>
														<duration>1294705</duration>
														<rate>
															<timebase>30</timebase>
															<ntsc>TRUE</ntsc>
														</rate>
														<start>0</start>
														<end>9</end>
														<in>0</in>
														<out>9</out>
														<pproTicksIn>0</pproTicksIn>
														<pproTicksOut>76281004800</pproTicksOut>
														<sequence id="sequence-7"/>
															<marker>
																<comment></comment>
																<name></name>
																<in>20</in>
																<out>-1</out>
															</marker>
														<labels>
															<label2>Iris</label2>
														</labels>
													</clipitem>
													<clipitem id="clipitem-725">
														<masterclipid>masterclip-159</masterclipid>
														<name>04 Zoom In - Right Rotation Quick / Transform In</name>
														<enabled>TRUE</enabled>
														<duration>1294705</duration>
														<rate>
															<timebase>30</timebase>
															<ntsc>TRUE</ntsc>
														</rate>
														<start>9</start>
														<end>17</end>
														<in>0</in>
														<out>8</out>
														<pproTicksIn>0</pproTicksIn>
														<pproTicksOut>67805337600</pproTicksOut>
														<sequence id="sequence-8"/>
														<labels>
															<label2>Iris</label2>
														</labels>
													</clipitem>
													<enabled>TRUE</enabled>
													<locked>FALSE</locked>
												</track>
												<track TL.SQTrackShy="0" TL.SQTrackExpandedHeight="25" TL.SQTrackExpanded="0" MZ.TrackTargeted="0">
													<enabled>TRUE</enabled>
													<locked>FALSE</locked>
												</track>
												<track TL.SQTrackShy="0" TL.SQTrackExpandedHeight="25" TL.SQTrackExpanded="0" MZ.TrackTargeted="0">
													<enabled>TRUE</enabled>
													<locked>FALSE</locked>
												</track>
												<track TL.SQTrackShy="0" TL.SQTrackExpandedHeight="25" TL.SQTrackExpanded="0" MZ.TrackTargeted="0">
													<enabled>TRUE</enabled>
													<locked>FALSE</locked>
												</track>
												<track TL.SQTrackShy="0" TL.SQTrackExpandedHeight="25" TL.SQTrackExpanded="0" MZ.TrackTargeted="0">
													<enabled>TRUE</enabled>
													<locked>FALSE</locked>
												</track>
												<track TL.SQTrackShy="0" TL.SQTrackExpandedHeight="25" TL.SQTrackExpanded="0" MZ.TrackTargeted="0">
													<enabled>TRUE</enabled>
													<locked>FALSE</locked>
												</track>
											</video>
											<audio>
												<numOutputChannels>2</numOutputChannels>
												<format>
													<samplecharacteristics>
														<depth>16</depth>
														<samplerate>48000</samplerate>
													</samplecharacteristics>
												</format>
												<outputs>
													<group>
														<index>1</index>
														<numchannels>1</numchannels>
														<downmix>0</downmix>
														<channel>
															<index>1</index>
														</channel>
													</group>
													<group>
														<index>2</index>
														<numchannels>1</numchannels>
														<downmix>0</downmix>
														<channel>
															<index>2</index>
														</channel>
													</group>
												</outputs>
												<track TL.SQTrackAudioKeyframeStyle="0" TL.SQTrackShy="0" TL.SQTrackExpandedHeight="25" TL.SQTrackExpanded="1" MZ.TrackTargeted="1" PannerCurrentValue="0.5" PannerIsInverted="true" PannerStartKeyframe="-91445760000000000,0.5,0,0,0,0,0,0" PannerName="Balance" currentExplodedTrackIndex="0" totalExplodedTrackCount="2" premiereTrackType="Stereo">
													<enabled>TRUE</enabled>
													<locked>FALSE</locked>
													<outputchannelindex>1</outputchannelindex>
												</track>
												<track TL.SQTrackAudioKeyframeStyle="0" TL.SQTrackShy="0" TL.SQTrackExpandedHeight="25" TL.SQTrackExpanded="1" MZ.TrackTargeted="1" PannerCurrentValue="0.5" PannerIsInverted="true" PannerStartKeyframe="-91445760000000000,0.5,0,0,0,0,0,0" PannerName="Balance" currentExplodedTrackIndex="1" totalExplodedTrackCount="2" premiereTrackType="Stereo">
													<enabled>TRUE</enabled>
													<locked>FALSE</locked>
													<outputchannelindex>2</outputchannelindex>
												</track>
												<track TL.SQTrackAudioKeyframeStyle="0" TL.SQTrackShy="0" TL.SQTrackExpandedHeight="25" TL.SQTrackExpanded="1" MZ.TrackTargeted="1" PannerCurrentValue="0.5" PannerIsInverted="true" PannerStartKeyframe="-91445760000000000,0.5,0,0,0,0,0,0" PannerName="Balance" currentExplodedTrackIndex="0" totalExplodedTrackCount="2" premiereTrackType="Stereo">
													<enabled>TRUE</enabled>
													<locked>FALSE</locked>
													<outputchannelindex>1</outputchannelindex>
												</track>
												<track TL.SQTrackAudioKeyframeStyle="0" TL.SQTrackShy="0" TL.SQTrackExpandedHeight="25" TL.SQTrackExpanded="1" MZ.TrackTargeted="1" PannerCurrentValue="0.5" PannerIsInverted="true" PannerStartKeyframe="-91445760000000000,0.5,0,0,0,0,0,0" PannerName="Balance" currentExplodedTrackIndex="1" totalExplodedTrackCount="2" premiereTrackType="Stereo">
													<enabled>TRUE</enabled>
													<locked>FALSE</locked>
													<outputchannelindex>2</outputchannelindex>
												</track>
												<track TL.SQTrackAudioKeyframeStyle="0" TL.SQTrackShy="0" TL.SQTrackExpandedHeight="25" TL.SQTrackExpanded="1" MZ.TrackTargeted="1" PannerCurrentValue="0.5" PannerIsInverted="true" PannerStartKeyframe="-91445760000000000,0.5,0,0,0,0,0,0" PannerName="Balance" currentExplodedTrackIndex="0" totalExplodedTrackCount="2" premiereTrackType="Stereo">
													<enabled>TRUE</enabled>
													<locked>FALSE</locked>
													<outputchannelindex>1</outputchannelindex>
												</track>
												<track TL.SQTrackAudioKeyframeStyle="0" TL.SQTrackShy="0" TL.SQTrackExpandedHeight="25" TL.SQTrackExpanded="1" MZ.TrackTargeted="1" PannerCurrentValue="0.5" PannerIsInverted="true" PannerStartKeyframe="-91445760000000000,0.5,0,0,0,0,0,0" PannerName="Balance" currentExplodedTrackIndex="1" totalExplodedTrackCount="2" premiereTrackType="Stereo">
													<enabled>TRUE</enabled>
													<locked>FALSE</locked>
													<outputchannelindex>2</outputchannelindex>
												</track>
												<track TL.SQTrackAudioKeyframeStyle="0" TL.SQTrackShy="0" TL.SQTrackExpandedHeight="25" TL.SQTrackExpanded="0" MZ.TrackTargeted="0" PannerCurrentValue="0.5" PannerIsInverted="true" PannerStartKeyframe="-91445760000000000,0.5,0,0,0,0,0,0" PannerName="Balance" currentExplodedTrackIndex="0" totalExplodedTrackCount="2" premiereTrackType="Stereo">
													<enabled>TRUE</enabled>
													<locked>FALSE</locked>
													<outputchannelindex>1</outputchannelindex>
												</track>
												<track TL.SQTrackAudioKeyframeStyle="0" TL.SQTrackShy="0" TL.SQTrackExpandedHeight="25" TL.SQTrackExpanded="0" MZ.TrackTargeted="0" PannerCurrentValue="0.5" PannerIsInverted="true" PannerStartKeyframe="-91445760000000000,0.5,0,0,0,0,0,0" PannerName="Balance" currentExplodedTrackIndex="1" totalExplodedTrackCount="2" premiereTrackType="Stereo">
													<enabled>TRUE</enabled>
													<locked>FALSE</locked>
													<outputchannelindex>2</outputchannelindex>
												</track>
											</audio>
										</media>
										<timecode>
											<rate>
												<timebase>30</timebase>
												<ntsc>TRUE</ntsc>
											</rate>
											<string>00;00;00;00</string>
											<frame>0</frame>
											<displayformat>DF</displayformat>
										</timecode>
										<labels>
											<label2>Rose</label2>
										</labels>
										<logginginfo>
											<description></description>
											<scene></scene>
											<shottake></shottake>
											<lognote></lognote>
											<good></good>
											<originalvideofilename></originalvideofilename>
											<originalaudiofilename></originalaudiofilename>
										</logginginfo>
									</sequence>
									<sequence id="sequence-54" TL.SQAudioVisibleBase="0" TL.SQVideoVisibleBase="0" TL.SQVisibleBaseTime="0" TL.SQAVDividerPosition="0.504587173462" TL.SQHideShyTracks="0" TL.SQHeaderWidth="236" Monitor.ProgramZoomOut="262745683200" Monitor.ProgramZoomIn="0" TL.SQTimePerPixel="0.0011122222222222221" MZ.EditLine="271221350400" MZ.Sequence.PreviewFrameSizeHeight="1080" MZ.Sequence.PreviewFrameSizeWidth="1920" MZ.Sequence.AudioTimeDisplayFormat="200" MZ.Sequence.PreviewRenderingClassID="1297106761" MZ.Sequence.PreviewRenderingPresetCodec="1297107278" MZ.Sequence.PreviewRenderingPresetPath="EncoderPresets/SequencePreview/795454d9-d3c2-429d-9474-923ab13b7018/I-Frame Only MPEG.epr" MZ.Sequence.PreviewUseMaxRenderQuality="false" MZ.Sequence.PreviewUseMaxBitDepth="false" MZ.Sequence.EditingModeGUID="795454d9-d3c2-429d-9474-923ab13b7018" MZ.Sequence.VideoTimeDisplayFormat="102" MZ.WorkOutPoint="440734694400" MZ.WorkInPoint="0" explodedTracks="true">
										<uuid>40565b4a-3532-4696-af7e-d36b6a81dc32</uuid>
										<duration>31</duration>
										<rate>
											<timebase>30</timebase>
											<ntsc>TRUE</ntsc>
										</rate>
										<name>05 Zoom in - Right</name>
										<media>
											<video>
												<format>
													<samplecharacteristics>
														<rate>
															<timebase>30</timebase>
															<ntsc>TRUE</ntsc>
														</rate>
														<codec>
															<name>Apple ProRes 422</name>
															<appspecificdata>
																<appname>Final Cut Pro</appname>
																<appmanufacturer>Apple Inc.</appmanufacturer>
																<appversion>7.0</appversion>
																<data>
																	<qtcodec>
																		<codecname>Apple ProRes 422</codecname>
																		<codectypename>Apple ProRes 422</codectypename>
																		<codectypecode>apcn</codectypecode>
																		<codecvendorcode>appl</codecvendorcode>
																		<spatialquality>1024</spatialquality>
																		<temporalquality>0</temporalquality>
																		<keyframerate>0</keyframerate>
																		<datarate>0</datarate>
																	</qtcodec>
																</data>
															</appspecificdata>
														</codec>
														<width>1920</width>
														<height>1080</height>
														<anamorphic>FALSE</anamorphic>
														<pixelaspectratio>square</pixelaspectratio>
														<fielddominance>none</fielddominance>
														<colordepth>24</colordepth>
													</samplecharacteristics>
												</format>
												<track TL.SQTrackShy="0" TL.SQTrackExpandedHeight="25" TL.SQTrackExpanded="0" MZ.TrackTargeted="0">
													<clipitem id="clipitem-726">
														<masterclipid>masterclip-349</masterclipid>
														<name>Picture 01.jpeg</name>
														<enabled>TRUE</enabled>
														<duration>1294705</duration>
														<rate>
															<timebase>30</timebase>
															<ntsc>TRUE</ntsc>
														</rate>
														<start>0</start>
														<end>13</end>
														<in>107886</in>
														<out>107899</out>
														<pproTicksIn>914405831539200</pproTicksIn>
														<pproTicksOut>914516015212800</pproTicksOut>
														<alphatype>none</alphatype>
														<file id="file-321"/>
														<filter>
															<effect>
																<name>Basic Motion</name>
																<effectid>basic</effectid>
																<effectcategory>motion</effectcategory>
																<effecttype>motion</effecttype>
																<mediatype>video</mediatype>
																<pproBypass>false</pproBypass>
																<parameter authoringApp="PremierePro">
																	<parameterid>scale</parameterid>
																	<name>Scale</name>
																	<valuemin>0</valuemin>
																	<valuemax>1000</valuemax>
																	<value>77</value>
																</parameter>
																<parameter authoringApp="PremierePro">
																	<parameterid>rotation</parameterid>
																	<name>Rotation</name>
																	<valuemin>-8640</valuemin>
																	<valuemax>8640</valuemax>
																	<value>0</value>
																</parameter>
																<parameter authoringApp="PremierePro">
																	<parameterid>center</parameterid>
																	<name>Center</name>
																	<value>
																		<horiz>0</horiz>
																		<vert>0</vert>
																	</value>
																</parameter>
																<parameter authoringApp="PremierePro">
																	<parameterid>centerOffset</parameterid>
																	<name>Anchor Point</name>
																	<value>
																		<horiz>0</horiz>
																		<vert>0</vert>
																	</value>
																</parameter>
																<parameter authoringApp="PremierePro">
																	<parameterid>antiflicker</parameterid>
																	<name>Anti-flicker Filter</name>
																	<valuemin>0.0</valuemin>
																	<valuemax>1.0</valuemax>
																	<value>0</value>
																</parameter>
															</effect>
														</filter>
														<logginginfo>
															<description></description>
															<scene></scene>
															<shottake></shottake>
															<lognote></lognote>
															<good></good>
															<originalvideofilename></originalvideofilename>
															<originalaudiofilename></originalaudiofilename>
														</logginginfo>
														<colorinfo>
															<lut></lut>
															<lut1></lut1>
															<asc_sop></asc_sop>
															<asc_sat></asc_sat>
															<lut2></lut2>
														</colorinfo>
														<labels>
															<label2>Lavender</label2>
														</labels>
													</clipitem>
													<clipitem id="clipitem-727">
														<masterclipid>masterclip-350</masterclipid>
														<name>Picture 02.jpg</name>
														<enabled>TRUE</enabled>
														<duration>1294705</duration>
														<rate>
															<timebase>30</timebase>
															<ntsc>TRUE</ntsc>
														</rate>
														<start>13</start>
														<end>31</end>
														<in>107892</in>
														<out>107910</out>
														<pproTicksIn>914456685542400</pproTicksIn>
														<pproTicksOut>914609247552000</pproTicksOut>
														<alphatype>none</alphatype>
														<file id="file-322"/>
														<logginginfo>
															<description></description>
															<scene></scene>
															<shottake></shottake>
															<lognote></lognote>
															<good></good>
															<originalvideofilename></originalvideofilename>
															<originalaudiofilename></originalaudiofilename>
														</logginginfo>
														<colorinfo>
															<lut></lut>
															<lut1></lut1>
															<asc_sop></asc_sop>
															<asc_sat></asc_sat>
															<lut2></lut2>
														</colorinfo>
														<labels>
															<label2>Lavender</label2>
														</labels>
													</clipitem>
													<enabled>TRUE</enabled>
													<locked>FALSE</locked>
												</track>
												<track TL.SQTrackShy="0" TL.SQTrackExpandedHeight="25" TL.SQTrackExpanded="0" MZ.TrackTargeted="0">
													<clipitem id="clipitem-728">
														<masterclipid>masterclip-157</masterclipid>
														<name>05 Zoom in - Right / Transform Out</name>
														<enabled>TRUE</enabled>
														<duration>1294705</duration>
														<rate>
															<timebase>30</timebase>
															<ntsc>TRUE</ntsc>
														</rate>
														<start>0</start>
														<end>13</end>
														<in>0</in>
														<out>13</out>
														<pproTicksIn>0</pproTicksIn>
														<pproTicksOut>110183673600</pproTicksOut>
														<sequence id="sequence-7"/>
															<marker>
																<comment></comment>
																<name></name>
																<in>20</in>
																<out>-1</out>
															</marker>
														<labels>
															<label2>Iris</label2>
														</labels>
													</clipitem>
													<clipitem id="clipitem-729">
														<masterclipid>masterclip-159</masterclipid>
														<name>05 Zoom in - Right / Transform In</name>
														<enabled>TRUE</enabled>
														<duration>1294705</duration>
														<rate>
															<timebase>30</timebase>
															<ntsc>TRUE</ntsc>
														</rate>
														<start>13</start>
														<end>27</end>
														<in>0</in>
														<out>14</out>
														<pproTicksIn>0</pproTicksIn>
														<pproTicksOut>118659340800</pproTicksOut>
														<sequence id="sequence-8"/>
														<labels>
															<label2>Iris</label2>
														</labels>
													</clipitem>
													<enabled>TRUE</enabled>
													<locked>FALSE</locked>
												</track>
												<track TL.SQTrackShy="0" TL.SQTrackExpandedHeight="25" TL.SQTrackExpanded="0" MZ.TrackTargeted="0">
													<enabled>TRUE</enabled>
													<locked>FALSE</locked>
												</track>
												<track TL.SQTrackShy="0" TL.SQTrackExpandedHeight="25" TL.SQTrackExpanded="0" MZ.TrackTargeted="0">
													<enabled>TRUE</enabled>
													<locked>FALSE</locked>
												</track>
												<track TL.SQTrackShy="0" TL.SQTrackExpandedHeight="25" TL.SQTrackExpanded="0" MZ.TrackTargeted="0">
													<enabled>TRUE</enabled>
													<locked>FALSE</locked>
												</track>
												<track TL.SQTrackShy="0" TL.SQTrackExpandedHeight="25" TL.SQTrackExpanded="0" MZ.TrackTargeted="0">
													<enabled>TRUE</enabled>
													<locked>FALSE</locked>
												</track>
												<track TL.SQTrackShy="0" TL.SQTrackExpandedHeight="25" TL.SQTrackExpanded="0" MZ.TrackTargeted="0">
													<enabled>TRUE</enabled>
													<locked>FALSE</locked>
												</track>
											</video>
											<audio>
												<numOutputChannels>2</numOutputChannels>
												<format>
													<samplecharacteristics>
														<depth>16</depth>
														<samplerate>48000</samplerate>
													</samplecharacteristics>
												</format>
												<outputs>
													<group>
														<index>1</index>
														<numchannels>1</numchannels>
														<downmix>0</downmix>
														<channel>
															<index>1</index>
														</channel>
													</group>
													<group>
														<index>2</index>
														<numchannels>1</numchannels>
														<downmix>0</downmix>
														<channel>
															<index>2</index>
														</channel>
													</group>
												</outputs>
												<track TL.SQTrackAudioKeyframeStyle="0" TL.SQTrackShy="0" TL.SQTrackExpandedHeight="25" TL.SQTrackExpanded="1" MZ.TrackTargeted="1" PannerCurrentValue="0.5" PannerIsInverted="true" PannerStartKeyframe="-91445760000000000,0.5,0,0,0,0,0,0" PannerName="Balance" currentExplodedTrackIndex="0" totalExplodedTrackCount="2" premiereTrackType="Stereo">
													<enabled>TRUE</enabled>
													<locked>FALSE</locked>
													<outputchannelindex>1</outputchannelindex>
												</track>
												<track TL.SQTrackAudioKeyframeStyle="0" TL.SQTrackShy="0" TL.SQTrackExpandedHeight="25" TL.SQTrackExpanded="1" MZ.TrackTargeted="1" PannerCurrentValue="0.5" PannerIsInverted="true" PannerStartKeyframe="-91445760000000000,0.5,0,0,0,0,0,0" PannerName="Balance" currentExplodedTrackIndex="1" totalExplodedTrackCount="2" premiereTrackType="Stereo">
													<enabled>TRUE</enabled>
													<locked>FALSE</locked>
													<outputchannelindex>2</outputchannelindex>
												</track>
												<track TL.SQTrackAudioKeyframeStyle="0" TL.SQTrackShy="0" TL.SQTrackExpandedHeight="25" TL.SQTrackExpanded="1" MZ.TrackTargeted="1" PannerCurrentValue="0.5" PannerIsInverted="true" PannerStartKeyframe="-91445760000000000,0.5,0,0,0,0,0,0" PannerName="Balance" currentExplodedTrackIndex="0" totalExplodedTrackCount="2" premiereTrackType="Stereo">
													<enabled>TRUE</enabled>
													<locked>FALSE</locked>
													<outputchannelindex>1</outputchannelindex>
												</track>
												<track TL.SQTrackAudioKeyframeStyle="0" TL.SQTrackShy="0" TL.SQTrackExpandedHeight="25" TL.SQTrackExpanded="1" MZ.TrackTargeted="1" PannerCurrentValue="0.5" PannerIsInverted="true" PannerStartKeyframe="-91445760000000000,0.5,0,0,0,0,0,0" PannerName="Balance" currentExplodedTrackIndex="1" totalExplodedTrackCount="2" premiereTrackType="Stereo">
													<enabled>TRUE</enabled>
													<locked>FALSE</locked>
													<outputchannelindex>2</outputchannelindex>
												</track>
												<track TL.SQTrackAudioKeyframeStyle="0" TL.SQTrackShy="0" TL.SQTrackExpandedHeight="25" TL.SQTrackExpanded="1" MZ.TrackTargeted="1" PannerCurrentValue="0.5" PannerIsInverted="true" PannerStartKeyframe="-91445760000000000,0.5,0,0,0,0,0,0" PannerName="Balance" currentExplodedTrackIndex="0" totalExplodedTrackCount="2" premiereTrackType="Stereo">
													<enabled>TRUE</enabled>
													<locked>FALSE</locked>
													<outputchannelindex>1</outputchannelindex>
												</track>
												<track TL.SQTrackAudioKeyframeStyle="0" TL.SQTrackShy="0" TL.SQTrackExpandedHeight="25" TL.SQTrackExpanded="1" MZ.TrackTargeted="1" PannerCurrentValue="0.5" PannerIsInverted="true" PannerStartKeyframe="-91445760000000000,0.5,0,0,0,0,0,0" PannerName="Balance" currentExplodedTrackIndex="1" totalExplodedTrackCount="2" premiereTrackType="Stereo">
													<enabled>TRUE</enabled>
													<locked>FALSE</locked>
													<outputchannelindex>2</outputchannelindex>
												</track>
												<track TL.SQTrackAudioKeyframeStyle="0" TL.SQTrackShy="0" TL.SQTrackExpandedHeight="25" TL.SQTrackExpanded="0" MZ.TrackTargeted="0" PannerCurrentValue="0.5" PannerIsInverted="true" PannerStartKeyframe="-91445760000000000,0.5,0,0,0,0,0,0" PannerName="Balance" currentExplodedTrackIndex="0" totalExplodedTrackCount="2" premiereTrackType="Stereo">
													<enabled>TRUE</enabled>
													<locked>FALSE</locked>
													<outputchannelindex>1</outputchannelindex>
												</track>
												<track TL.SQTrackAudioKeyframeStyle="0" TL.SQTrackShy="0" TL.SQTrackExpandedHeight="25" TL.SQTrackExpanded="0" MZ.TrackTargeted="0" PannerCurrentValue="0.5" PannerIsInverted="true" PannerStartKeyframe="-91445760000000000,0.5,0,0,0,0,0,0" PannerName="Balance" currentExplodedTrackIndex="1" totalExplodedTrackCount="2" premiereTrackType="Stereo">
													<enabled>TRUE</enabled>
													<locked>FALSE</locked>
													<outputchannelindex>2</outputchannelindex>
												</track>
											</audio>
										</media>
										<timecode>
											<rate>
												<timebase>30</timebase>
												<ntsc>TRUE</ntsc>
											</rate>
											<string>00;00;00;00</string>
											<frame>0</frame>
											<displayformat>DF</displayformat>
										</timecode>
										<labels>
											<label2>Rose</label2>
										</labels>
										<logginginfo>
											<description></description>
											<scene></scene>
											<shottake></shottake>
											<lognote></lognote>
											<good></good>
											<originalvideofilename></originalvideofilename>
											<originalaudiofilename></originalaudiofilename>
										</logginginfo>
									</sequence>
									<sequence id="sequence-55" TL.SQAudioVisibleBase="0" TL.SQVideoVisibleBase="0" TL.SQVisibleBaseTime="0" TL.SQAVDividerPosition="0.504587173462" TL.SQHideShyTracks="0" TL.SQHeaderWidth="236" Monitor.ProgramZoomOut="186464678400" Monitor.ProgramZoomIn="0" TL.SQTimePerPixel="0.0011122222222222221" MZ.EditLine="271221350400" MZ.Sequence.PreviewFrameSizeHeight="1080" MZ.Sequence.PreviewFrameSizeWidth="1920" MZ.Sequence.AudioTimeDisplayFormat="200" MZ.Sequence.PreviewRenderingClassID="1297106761" MZ.Sequence.PreviewRenderingPresetCodec="1297107278" MZ.Sequence.PreviewRenderingPresetPath="EncoderPresets/SequencePreview/795454d9-d3c2-429d-9474-923ab13b7018/I-Frame Only MPEG.epr" MZ.Sequence.PreviewUseMaxRenderQuality="false" MZ.Sequence.PreviewUseMaxBitDepth="false" MZ.Sequence.EditingModeGUID="795454d9-d3c2-429d-9474-923ab13b7018" MZ.Sequence.VideoTimeDisplayFormat="102" MZ.WorkOutPoint="440734694400" MZ.WorkInPoint="0" explodedTracks="true">
										<uuid>f73cab34-bc41-4e7b-ade3-355fd4a0d197</uuid>
										<duration>22</duration>
										<rate>
											<timebase>30</timebase>
											<ntsc>TRUE</ntsc>
										</rate>
										<name>06 Zoom In - left - Quick</name>
										<media>
											<video>
												<format>
													<samplecharacteristics>
														<rate>
															<timebase>30</timebase>
															<ntsc>TRUE</ntsc>
														</rate>
														<codec>
															<name>Apple ProRes 422</name>
															<appspecificdata>
																<appname>Final Cut Pro</appname>
																<appmanufacturer>Apple Inc.</appmanufacturer>
																<appversion>7.0</appversion>
																<data>
																	<qtcodec>
																		<codecname>Apple ProRes 422</codecname>
																		<codectypename>Apple ProRes 422</codectypename>
																		<codectypecode>apcn</codectypecode>
																		<codecvendorcode>appl</codecvendorcode>
																		<spatialquality>1024</spatialquality>
																		<temporalquality>0</temporalquality>
																		<keyframerate>0</keyframerate>
																		<datarate>0</datarate>
																	</qtcodec>
																</data>
															</appspecificdata>
														</codec>
														<width>1920</width>
														<height>1080</height>
														<anamorphic>FALSE</anamorphic>
														<pixelaspectratio>square</pixelaspectratio>
														<fielddominance>none</fielddominance>
														<colordepth>24</colordepth>
													</samplecharacteristics>
												</format>
												<track TL.SQTrackShy="0" TL.SQTrackExpandedHeight="25" TL.SQTrackExpanded="0" MZ.TrackTargeted="0">
													<clipitem id="clipitem-730">
														<masterclipid>masterclip-349</masterclipid>
														<name>Picture 01.jpeg</name>
														<enabled>TRUE</enabled>
														<duration>1294705</duration>
														<rate>
															<timebase>30</timebase>
															<ntsc>TRUE</ntsc>
														</rate>
														<start>0</start>
														<end>9</end>
														<in>107886</in>
														<out>107895</out>
														<pproTicksIn>914405831539200</pproTicksIn>
														<pproTicksOut>914482112544000</pproTicksOut>
														<alphatype>none</alphatype>
														<file id="file-321"/>
														<filter>
															<effect>
																<name>Basic Motion</name>
																<effectid>basic</effectid>
																<effectcategory>motion</effectcategory>
																<effecttype>motion</effecttype>
																<mediatype>video</mediatype>
																<pproBypass>false</pproBypass>
																<parameter authoringApp="PremierePro">
																	<parameterid>scale</parameterid>
																	<name>Scale</name>
																	<valuemin>0</valuemin>
																	<valuemax>1000</valuemax>
																	<value>77</value>
																</parameter>
																<parameter authoringApp="PremierePro">
																	<parameterid>rotation</parameterid>
																	<name>Rotation</name>
																	<valuemin>-8640</valuemin>
																	<valuemax>8640</valuemax>
																	<value>0</value>
																</parameter>
																<parameter authoringApp="PremierePro">
																	<parameterid>center</parameterid>
																	<name>Center</name>
																	<value>
																		<horiz>0</horiz>
																		<vert>0</vert>
																	</value>
																</parameter>
																<parameter authoringApp="PremierePro">
																	<parameterid>centerOffset</parameterid>
																	<name>Anchor Point</name>
																	<value>
																		<horiz>0</horiz>
																		<vert>0</vert>
																	</value>
																</parameter>
																<parameter authoringApp="PremierePro">
																	<parameterid>antiflicker</parameterid>
																	<name>Anti-flicker Filter</name>
																	<valuemin>0.0</valuemin>
																	<valuemax>1.0</valuemax>
																	<value>0</value>
																</parameter>
															</effect>
														</filter>
														<logginginfo>
															<description></description>
															<scene></scene>
															<shottake></shottake>
															<lognote></lognote>
															<good></good>
															<originalvideofilename></originalvideofilename>
															<originalaudiofilename></originalaudiofilename>
														</logginginfo>
														<colorinfo>
															<lut></lut>
															<lut1></lut1>
															<asc_sop></asc_sop>
															<asc_sat></asc_sat>
															<lut2></lut2>
														</colorinfo>
														<labels>
															<label2>Lavender</label2>
														</labels>
													</clipitem>
													<clipitem id="clipitem-731">
														<masterclipid>masterclip-350</masterclipid>
														<name>Picture 02.jpg</name>
														<enabled>TRUE</enabled>
														<duration>1294705</duration>
														<rate>
															<timebase>30</timebase>
															<ntsc>TRUE</ntsc>
														</rate>
														<start>9</start>
														<end>22</end>
														<in>107892</in>
														<out>107905</out>
														<pproTicksIn>914456685542400</pproTicksIn>
														<pproTicksOut>914566869216000</pproTicksOut>
														<alphatype>none</alphatype>
														<file id="file-322"/>
														<logginginfo>
															<description></description>
															<scene></scene>
															<shottake></shottake>
															<lognote></lognote>
															<good></good>
															<originalvideofilename></originalvideofilename>
															<originalaudiofilename></originalaudiofilename>
														</logginginfo>
														<colorinfo>
															<lut></lut>
															<lut1></lut1>
															<asc_sop></asc_sop>
															<asc_sat></asc_sat>
															<lut2></lut2>
														</colorinfo>
														<labels>
															<label2>Lavender</label2>
														</labels>
													</clipitem>
													<enabled>TRUE</enabled>
													<locked>FALSE</locked>
												</track>
												<track TL.SQTrackShy="0" TL.SQTrackExpandedHeight="25" TL.SQTrackExpanded="0" MZ.TrackTargeted="0">
													<clipitem id="clipitem-732">
														<masterclipid>masterclip-157</masterclipid>
														<name>07 Zoom Out Slow / Transform Out</name>
														<enabled>TRUE</enabled>
														<duration>1294705</duration>
														<rate>
															<timebase>30</timebase>
															<ntsc>TRUE</ntsc>
														</rate>
														<start>0</start>
														<end>9</end>
														<in>0</in>
														<out>9</out>
														<pproTicksIn>0</pproTicksIn>
														<pproTicksOut>76281004800</pproTicksOut>
														<sequence id="sequence-7"/>
															<marker>
																<comment></comment>
																<name></name>
																<in>20</in>
																<out>-1</out>
															</marker>
														<labels>
															<label2>Iris</label2>
														</labels>
													</clipitem>
													<clipitem id="clipitem-733">
														<masterclipid>masterclip-159</masterclipid>
														<name>07 Zoom Out Slow / Transform In</name>
														<enabled>TRUE</enabled>
														<duration>1294705</duration>
														<rate>
															<timebase>30</timebase>
															<ntsc>TRUE</ntsc>
														</rate>
														<start>9</start>
														<end>17</end>
														<in>0</in>
														<out>8</out>
														<pproTicksIn>0</pproTicksIn>
														<pproTicksOut>67805337600</pproTicksOut>
														<sequence id="sequence-8"/>
														<labels>
															<label2>Iris</label2>
														</labels>
													</clipitem>
													<enabled>TRUE</enabled>
													<locked>FALSE</locked>
												</track>
												<track TL.SQTrackShy="0" TL.SQTrackExpandedHeight="25" TL.SQTrackExpanded="0" MZ.TrackTargeted="0">
													<enabled>TRUE</enabled>
													<locked>FALSE</locked>
												</track>
												<track TL.SQTrackShy="0" TL.SQTrackExpandedHeight="25" TL.SQTrackExpanded="0" MZ.TrackTargeted="0">
													<enabled>TRUE</enabled>
													<locked>FALSE</locked>
												</track>
												<track TL.SQTrackShy="0" TL.SQTrackExpandedHeight="25" TL.SQTrackExpanded="0" MZ.TrackTargeted="0">
													<enabled>TRUE</enabled>
													<locked>FALSE</locked>
												</track>
												<track TL.SQTrackShy="0" TL.SQTrackExpandedHeight="25" TL.SQTrackExpanded="0" MZ.TrackTargeted="0">
													<enabled>TRUE</enabled>
													<locked>FALSE</locked>
												</track>
												<track TL.SQTrackShy="0" TL.SQTrackExpandedHeight="25" TL.SQTrackExpanded="0" MZ.TrackTargeted="0">
													<enabled>TRUE</enabled>
													<locked>FALSE</locked>
												</track>
											</video>
											<audio>
												<numOutputChannels>2</numOutputChannels>
												<format>
													<samplecharacteristics>
														<depth>16</depth>
														<samplerate>48000</samplerate>
													</samplecharacteristics>
												</format>
												<outputs>
													<group>
														<index>1</index>
														<numchannels>1</numchannels>
														<downmix>0</downmix>
														<channel>
															<index>1</index>
														</channel>
													</group>
													<group>
														<index>2</index>
														<numchannels>1</numchannels>
														<downmix>0</downmix>
														<channel>
															<index>2</index>
														</channel>
													</group>
												</outputs>
												<track TL.SQTrackAudioKeyframeStyle="0" TL.SQTrackShy="0" TL.SQTrackExpandedHeight="25" TL.SQTrackExpanded="1" MZ.TrackTargeted="1" PannerCurrentValue="0.5" PannerIsInverted="true" PannerStartKeyframe="-91445760000000000,0.5,0,0,0,0,0,0" PannerName="Balance" currentExplodedTrackIndex="0" totalExplodedTrackCount="2" premiereTrackType="Stereo">
													<enabled>TRUE</enabled>
													<locked>FALSE</locked>
													<outputchannelindex>1</outputchannelindex>
												</track>
												<track TL.SQTrackAudioKeyframeStyle="0" TL.SQTrackShy="0" TL.SQTrackExpandedHeight="25" TL.SQTrackExpanded="1" MZ.TrackTargeted="1" PannerCurrentValue="0.5" PannerIsInverted="true" PannerStartKeyframe="-91445760000000000,0.5,0,0,0,0,0,0" PannerName="Balance" currentExplodedTrackIndex="1" totalExplodedTrackCount="2" premiereTrackType="Stereo">
													<enabled>TRUE</enabled>
													<locked>FALSE</locked>
													<outputchannelindex>2</outputchannelindex>
												</track>
												<track TL.SQTrackAudioKeyframeStyle="0" TL.SQTrackShy="0" TL.SQTrackExpandedHeight="25" TL.SQTrackExpanded="1" MZ.TrackTargeted="1" PannerCurrentValue="0.5" PannerIsInverted="true" PannerStartKeyframe="-91445760000000000,0.5,0,0,0,0,0,0" PannerName="Balance" currentExplodedTrackIndex="0" totalExplodedTrackCount="2" premiereTrackType="Stereo">
													<enabled>TRUE</enabled>
													<locked>FALSE</locked>
													<outputchannelindex>1</outputchannelindex>
												</track>
												<track TL.SQTrackAudioKeyframeStyle="0" TL.SQTrackShy="0" TL.SQTrackExpandedHeight="25" TL.SQTrackExpanded="1" MZ.TrackTargeted="1" PannerCurrentValue="0.5" PannerIsInverted="true" PannerStartKeyframe="-91445760000000000,0.5,0,0,0,0,0,0" PannerName="Balance" currentExplodedTrackIndex="1" totalExplodedTrackCount="2" premiereTrackType="Stereo">
													<enabled>TRUE</enabled>
													<locked>FALSE</locked>
													<outputchannelindex>2</outputchannelindex>
												</track>
												<track TL.SQTrackAudioKeyframeStyle="0" TL.SQTrackShy="0" TL.SQTrackExpandedHeight="25" TL.SQTrackExpanded="1" MZ.TrackTargeted="1" PannerCurrentValue="0.5" PannerIsInverted="true" PannerStartKeyframe="-91445760000000000,0.5,0,0,0,0,0,0" PannerName="Balance" currentExplodedTrackIndex="0" totalExplodedTrackCount="2" premiereTrackType="Stereo">
													<enabled>TRUE</enabled>
													<locked>FALSE</locked>
													<outputchannelindex>1</outputchannelindex>
												</track>
												<track TL.SQTrackAudioKeyframeStyle="0" TL.SQTrackShy="0" TL.SQTrackExpandedHeight="25" TL.SQTrackExpanded="1" MZ.TrackTargeted="1" PannerCurrentValue="0.5" PannerIsInverted="true" PannerStartKeyframe="-91445760000000000,0.5,0,0,0,0,0,0" PannerName="Balance" currentExplodedTrackIndex="1" totalExplodedTrackCount="2" premiereTrackType="Stereo">
													<enabled>TRUE</enabled>
													<locked>FALSE</locked>
													<outputchannelindex>2</outputchannelindex>
												</track>
												<track TL.SQTrackAudioKeyframeStyle="0" TL.SQTrackShy="0" TL.SQTrackExpandedHeight="25" TL.SQTrackExpanded="0" MZ.TrackTargeted="0" PannerCurrentValue="0.5" PannerIsInverted="true" PannerStartKeyframe="-91445760000000000,0.5,0,0,0,0,0,0" PannerName="Balance" currentExplodedTrackIndex="0" totalExplodedTrackCount="2" premiereTrackType="Stereo">
													<enabled>TRUE</enabled>
													<locked>FALSE</locked>
													<outputchannelindex>1</outputchannelindex>
												</track>
												<track TL.SQTrackAudioKeyframeStyle="0" TL.SQTrackShy="0" TL.SQTrackExpandedHeight="25" TL.SQTrackExpanded="0" MZ.TrackTargeted="0" PannerCurrentValue="0.5" PannerIsInverted="true" PannerStartKeyframe="-91445760000000000,0.5,0,0,0,0,0,0" PannerName="Balance" currentExplodedTrackIndex="1" totalExplodedTrackCount="2" premiereTrackType="Stereo">
													<enabled>TRUE</enabled>
													<locked>FALSE</locked>
													<outputchannelindex>2</outputchannelindex>
												</track>
											</audio>
										</media>
										<timecode>
											<rate>
												<timebase>30</timebase>
												<ntsc>TRUE</ntsc>
											</rate>
											<string>00;00;00;00</string>
											<frame>0</frame>
											<displayformat>DF</displayformat>
										</timecode>
										<labels>
											<label2>Rose</label2>
										</labels>
										<logginginfo>
											<description></description>
											<scene></scene>
											<shottake></shottake>
											<lognote></lognote>
											<good></good>
											<originalvideofilename></originalvideofilename>
											<originalaudiofilename></originalaudiofilename>
										</logginginfo>
									</sequence>
									<sequence id="sequence-56" TL.SQAudioVisibleBase="0" TL.SQVideoVisibleBase="0" TL.SQVisibleBaseTime="0" TL.SQAVDividerPosition="0.662460565567" TL.SQHideShyTracks="0" TL.SQHeaderWidth="236" Monitor.ProgramZoomOut="262745683200" Monitor.ProgramZoomIn="0" TL.SQTimePerPixel="0.0023966017633039721" MZ.EditLine="271221350400" MZ.Sequence.PreviewFrameSizeHeight="1080" MZ.Sequence.PreviewFrameSizeWidth="1920" MZ.Sequence.AudioTimeDisplayFormat="200" MZ.Sequence.PreviewRenderingClassID="1297106761" MZ.Sequence.PreviewRenderingPresetCodec="1297107278" MZ.Sequence.PreviewRenderingPresetPath="EncoderPresets/SequencePreview/795454d9-d3c2-429d-9474-923ab13b7018/I-Frame Only MPEG.epr" MZ.Sequence.PreviewUseMaxRenderQuality="false" MZ.Sequence.PreviewUseMaxBitDepth="false" MZ.Sequence.EditingModeGUID="795454d9-d3c2-429d-9474-923ab13b7018" MZ.Sequence.VideoTimeDisplayFormat="102" MZ.WorkOutPoint="262745683200" MZ.WorkInPoint="0" explodedTracks="true">
										<uuid>5e1574fc-cddc-43ba-90fb-80af6cab8f1e</uuid>
										<duration>31</duration>
										<rate>
											<timebase>30</timebase>
											<ntsc>TRUE</ntsc>
										</rate>
										<name>07 Zoom Out Slow</name>
										<media>
											<video>
												<format>
													<samplecharacteristics>
														<rate>
															<timebase>30</timebase>
															<ntsc>TRUE</ntsc>
														</rate>
														<codec>
															<name>Apple ProRes 422</name>
															<appspecificdata>
																<appname>Final Cut Pro</appname>
																<appmanufacturer>Apple Inc.</appmanufacturer>
																<appversion>7.0</appversion>
																<data>
																	<qtcodec>
																		<codecname>Apple ProRes 422</codecname>
																		<codectypename>Apple ProRes 422</codectypename>
																		<codectypecode>apcn</codectypecode>
																		<codecvendorcode>appl</codecvendorcode>
																		<spatialquality>1024</spatialquality>
																		<temporalquality>0</temporalquality>
																		<keyframerate>0</keyframerate>
																		<datarate>0</datarate>
																	</qtcodec>
																</data>
															</appspecificdata>
														</codec>
														<width>1920</width>
														<height>1080</height>
														<anamorphic>FALSE</anamorphic>
														<pixelaspectratio>square</pixelaspectratio>
														<fielddominance>none</fielddominance>
														<colordepth>24</colordepth>
													</samplecharacteristics>
												</format>
												<track TL.SQTrackShy="0" TL.SQTrackExpandedHeight="25" TL.SQTrackExpanded="0" MZ.TrackTargeted="0">
													<clipitem id="clipitem-734">
														<masterclipid>masterclip-349</masterclipid>
														<name>Picture 01.jpeg</name>
														<enabled>TRUE</enabled>
														<duration>1294705</duration>
														<rate>
															<timebase>30</timebase>
															<ntsc>TRUE</ntsc>
														</rate>
														<start>0</start>
														<end>14</end>
														<in>107886</in>
														<out>107900</out>
														<pproTicksIn>914405831539200</pproTicksIn>
														<pproTicksOut>914524490880000</pproTicksOut>
														<alphatype>none</alphatype>
														<file id="file-321"/>
														<filter>
															<effect>
																<name>Basic Motion</name>
																<effectid>basic</effectid>
																<effectcategory>motion</effectcategory>
																<effecttype>motion</effecttype>
																<mediatype>video</mediatype>
																<pproBypass>false</pproBypass>
																<parameter authoringApp="PremierePro">
																	<parameterid>scale</parameterid>
																	<name>Scale</name>
																	<valuemin>0</valuemin>
																	<valuemax>1000</valuemax>
																	<value>77</value>
																</parameter>
																<parameter authoringApp="PremierePro">
																	<parameterid>rotation</parameterid>
																	<name>Rotation</name>
																	<valuemin>-8640</valuemin>
																	<valuemax>8640</valuemax>
																	<value>0</value>
																</parameter>
																<parameter authoringApp="PremierePro">
																	<parameterid>center</parameterid>
																	<name>Center</name>
																	<value>
																		<horiz>0</horiz>
																		<vert>0</vert>
																	</value>
																</parameter>
																<parameter authoringApp="PremierePro">
																	<parameterid>centerOffset</parameterid>
																	<name>Anchor Point</name>
																	<value>
																		<horiz>0</horiz>
																		<vert>0</vert>
																	</value>
																</parameter>
																<parameter authoringApp="PremierePro">
																	<parameterid>antiflicker</parameterid>
																	<name>Anti-flicker Filter</name>
																	<valuemin>0.0</valuemin>
																	<valuemax>1.0</valuemax>
																	<value>0</value>
																</parameter>
															</effect>
														</filter>
														<logginginfo>
															<description></description>
															<scene></scene>
															<shottake></shottake>
															<lognote></lognote>
															<good></good>
															<originalvideofilename></originalvideofilename>
															<originalaudiofilename></originalaudiofilename>
														</logginginfo>
														<colorinfo>
															<lut></lut>
															<lut1></lut1>
															<asc_sop></asc_sop>
															<asc_sat></asc_sat>
															<lut2></lut2>
														</colorinfo>
														<labels>
															<label2>Lavender</label2>
														</labels>
													</clipitem>
													<clipitem id="clipitem-735">
														<masterclipid>masterclip-350</masterclipid>
														<name>Picture 02.jpg</name>
														<enabled>TRUE</enabled>
														<duration>1294705</duration>
														<rate>
															<timebase>30</timebase>
															<ntsc>TRUE</ntsc>
														</rate>
														<start>14</start>
														<end>31</end>
														<in>107892</in>
														<out>107909</out>
														<pproTicksIn>914456685542400</pproTicksIn>
														<pproTicksOut>914600771884800</pproTicksOut>
														<alphatype>none</alphatype>
														<file id="file-322"/>
														<logginginfo>
															<description></description>
															<scene></scene>
															<shottake></shottake>
															<lognote></lognote>
															<good></good>
															<originalvideofilename></originalvideofilename>
															<originalaudiofilename></originalaudiofilename>
														</logginginfo>
														<colorinfo>
															<lut></lut>
															<lut1></lut1>
															<asc_sop></asc_sop>
															<asc_sat></asc_sat>
															<lut2></lut2>
														</colorinfo>
														<labels>
															<label2>Lavender</label2>
														</labels>
													</clipitem>
													<enabled>TRUE</enabled>
													<locked>FALSE</locked>
												</track>
												<track TL.SQTrackShy="0" TL.SQTrackExpandedHeight="25" TL.SQTrackExpanded="0" MZ.TrackTargeted="0">
													<clipitem id="clipitem-736">
														<masterclipid>masterclip-157</masterclipid>
														<name>07 Zoom Out Slow / Transform Out</name>
														<enabled>TRUE</enabled>
														<duration>1294705</duration>
														<rate>
															<timebase>30</timebase>
															<ntsc>TRUE</ntsc>
														</rate>
														<start>0</start>
														<end>14</end>
														<in>0</in>
														<out>14</out>
														<pproTicksIn>0</pproTicksIn>
														<pproTicksOut>118659340800</pproTicksOut>
														<sequence id="sequence-7"/>
															<marker>
																<comment></comment>
																<name></name>
																<in>20</in>
																<out>-1</out>
															</marker>
														<labels>
															<label2>Iris</label2>
														</labels>
													</clipitem>
													<clipitem id="clipitem-737">
														<masterclipid>masterclip-159</masterclipid>
														<name>07 Zoom Out Slow / Transform In</name>
														<enabled>TRUE</enabled>
														<duration>1294705</duration>
														<rate>
															<timebase>30</timebase>
															<ntsc>TRUE</ntsc>
														</rate>
														<start>14</start>
														<end>23</end>
														<in>0</in>
														<out>9</out>
														<pproTicksIn>0</pproTicksIn>
														<pproTicksOut>76281004800</pproTicksOut>
														<sequence id="sequence-8"/>
														<filter>
															<effect>
																<name>Basic Motion</name>
																<effectid>basic</effectid>
																<effectcategory>motion</effectcategory>
																<effecttype>motion</effecttype>
																<mediatype>video</mediatype>
																<pproBypass>false</pproBypass>
																<parameter authoringApp="PremierePro">
																	<parameterid>scale</parameterid>
																	<name>Scale</name>
																	<valuemin>0</valuemin>
																	<valuemax>1000</valuemax>
																	<value>100</value>
																</parameter>
																<parameter authoringApp="PremierePro">
																	<parameterid>rotation</parameterid>
																	<name>Rotation</name>
																	<valuemin>-8640</valuemin>
																	<valuemax>8640</valuemax>
																	<value>0</value>
																</parameter>
																<parameter authoringApp="PremierePro">
																	<parameterid>center</parameterid>
																	<name>Center</name>
																	<value>
																		<horiz>-0.5</horiz>
																		<vert>-0.499394</vert>
																	</value>
																</parameter>
																<parameter authoringApp="PremierePro">
																	<parameterid>centerOffset</parameterid>
																	<name>Anchor Point</name>
																	<value>
																		<horiz>0</horiz>
																		<vert>-0.00060606</vert>
																	</value>
																</parameter>
																<parameter authoringApp="PremierePro">
																	<parameterid>antiflicker</parameterid>
																	<name>Anti-flicker Filter</name>
																	<valuemin>0.0</valuemin>
																	<valuemax>1.0</valuemax>
																	<value>0</value>
																</parameter>
															</effect>
														</filter>
														<labels>
															<label2>Iris</label2>
														</labels>
													</clipitem>
													<enabled>TRUE</enabled>
													<locked>FALSE</locked>
												</track>
												<track TL.SQTrackShy="0" TL.SQTrackExpandedHeight="25" TL.SQTrackExpanded="0" MZ.TrackTargeted="0">
													<enabled>TRUE</enabled>
													<locked>FALSE</locked>
												</track>
												<track TL.SQTrackShy="0" TL.SQTrackExpandedHeight="25" TL.SQTrackExpanded="0" MZ.TrackTargeted="0">
													<enabled>TRUE</enabled>
													<locked>FALSE</locked>
												</track>
												<track TL.SQTrackShy="0" TL.SQTrackExpandedHeight="25" TL.SQTrackExpanded="0" MZ.TrackTargeted="0">
													<enabled>TRUE</enabled>
													<locked>FALSE</locked>
												</track>
												<track TL.SQTrackShy="0" TL.SQTrackExpandedHeight="25" TL.SQTrackExpanded="0" MZ.TrackTargeted="0">
													<enabled>TRUE</enabled>
													<locked>FALSE</locked>
												</track>
												<track TL.SQTrackShy="0" TL.SQTrackExpandedHeight="25" TL.SQTrackExpanded="0" MZ.TrackTargeted="0">
													<enabled>TRUE</enabled>
													<locked>FALSE</locked>
												</track>
											</video>
											<audio>
												<numOutputChannels>2</numOutputChannels>
												<format>
													<samplecharacteristics>
														<depth>16</depth>
														<samplerate>48000</samplerate>
													</samplecharacteristics>
												</format>
												<outputs>
													<group>
														<index>1</index>
														<numchannels>1</numchannels>
														<downmix>0</downmix>
														<channel>
															<index>1</index>
														</channel>
													</group>
													<group>
														<index>2</index>
														<numchannels>1</numchannels>
														<downmix>0</downmix>
														<channel>
															<index>2</index>
														</channel>
													</group>
												</outputs>
												<track TL.SQTrackAudioKeyframeStyle="0" TL.SQTrackShy="0" TL.SQTrackExpandedHeight="25" TL.SQTrackExpanded="1" MZ.TrackTargeted="1" PannerCurrentValue="0.5" PannerIsInverted="true" PannerStartKeyframe="-91445760000000000,0.5,0,0,0,0,0,0" PannerName="Balance" currentExplodedTrackIndex="0" totalExplodedTrackCount="2" premiereTrackType="Stereo">
													<enabled>TRUE</enabled>
													<locked>FALSE</locked>
													<outputchannelindex>1</outputchannelindex>
												</track>
												<track TL.SQTrackAudioKeyframeStyle="0" TL.SQTrackShy="0" TL.SQTrackExpandedHeight="25" TL.SQTrackExpanded="1" MZ.TrackTargeted="1" PannerCurrentValue="0.5" PannerIsInverted="true" PannerStartKeyframe="-91445760000000000,0.5,0,0,0,0,0,0" PannerName="Balance" currentExplodedTrackIndex="1" totalExplodedTrackCount="2" premiereTrackType="Stereo">
													<enabled>TRUE</enabled>
													<locked>FALSE</locked>
													<outputchannelindex>2</outputchannelindex>
												</track>
												<track TL.SQTrackAudioKeyframeStyle="0" TL.SQTrackShy="0" TL.SQTrackExpandedHeight="25" TL.SQTrackExpanded="1" MZ.TrackTargeted="1" PannerCurrentValue="0.5" PannerIsInverted="true" PannerStartKeyframe="-91445760000000000,0.5,0,0,0,0,0,0" PannerName="Balance" currentExplodedTrackIndex="0" totalExplodedTrackCount="2" premiereTrackType="Stereo">
													<enabled>TRUE</enabled>
													<locked>FALSE</locked>
													<outputchannelindex>1</outputchannelindex>
												</track>
												<track TL.SQTrackAudioKeyframeStyle="0" TL.SQTrackShy="0" TL.SQTrackExpandedHeight="25" TL.SQTrackExpanded="1" MZ.TrackTargeted="1" PannerCurrentValue="0.5" PannerIsInverted="true" PannerStartKeyframe="-91445760000000000,0.5,0,0,0,0,0,0" PannerName="Balance" currentExplodedTrackIndex="1" totalExplodedTrackCount="2" premiereTrackType="Stereo">
													<enabled>TRUE</enabled>
													<locked>FALSE</locked>
													<outputchannelindex>2</outputchannelindex>
												</track>
												<track TL.SQTrackAudioKeyframeStyle="0" TL.SQTrackShy="0" TL.SQTrackExpandedHeight="25" TL.SQTrackExpanded="1" MZ.TrackTargeted="1" PannerCurrentValue="0.5" PannerIsInverted="true" PannerStartKeyframe="-91445760000000000,0.5,0,0,0,0,0,0" PannerName="Balance" currentExplodedTrackIndex="0" totalExplodedTrackCount="2" premiereTrackType="Stereo">
													<enabled>TRUE</enabled>
													<locked>FALSE</locked>
													<outputchannelindex>1</outputchannelindex>
												</track>
												<track TL.SQTrackAudioKeyframeStyle="0" TL.SQTrackShy="0" TL.SQTrackExpandedHeight="25" TL.SQTrackExpanded="1" MZ.TrackTargeted="1" PannerCurrentValue="0.5" PannerIsInverted="true" PannerStartKeyframe="-91445760000000000,0.5,0,0,0,0,0,0" PannerName="Balance" currentExplodedTrackIndex="1" totalExplodedTrackCount="2" premiereTrackType="Stereo">
													<enabled>TRUE</enabled>
													<locked>FALSE</locked>
													<outputchannelindex>2</outputchannelindex>
												</track>
												<track TL.SQTrackAudioKeyframeStyle="0" TL.SQTrackShy="0" TL.SQTrackExpandedHeight="25" TL.SQTrackExpanded="0" MZ.TrackTargeted="0" PannerCurrentValue="0.5" PannerIsInverted="true" PannerStartKeyframe="-91445760000000000,0.5,0,0,0,0,0,0" PannerName="Balance" currentExplodedTrackIndex="0" totalExplodedTrackCount="2" premiereTrackType="Stereo">
													<enabled>TRUE</enabled>
													<locked>FALSE</locked>
													<outputchannelindex>1</outputchannelindex>
												</track>
												<track TL.SQTrackAudioKeyframeStyle="0" TL.SQTrackShy="0" TL.SQTrackExpandedHeight="25" TL.SQTrackExpanded="0" MZ.TrackTargeted="0" PannerCurrentValue="0.5" PannerIsInverted="true" PannerStartKeyframe="-91445760000000000,0.5,0,0,0,0,0,0" PannerName="Balance" currentExplodedTrackIndex="1" totalExplodedTrackCount="2" premiereTrackType="Stereo">
													<enabled>TRUE</enabled>
													<locked>FALSE</locked>
													<outputchannelindex>2</outputchannelindex>
												</track>
											</audio>
										</media>
										<timecode>
											<rate>
												<timebase>30</timebase>
												<ntsc>TRUE</ntsc>
											</rate>
											<string>00;00;00;00</string>
											<frame>0</frame>
											<displayformat>DF</displayformat>
										</timecode>
										<labels>
											<label2>Rose</label2>
										</labels>
										<logginginfo>
											<description></description>
											<scene></scene>
											<shottake></shottake>
											<lognote></lognote>
											<good></good>
											<originalvideofilename></originalvideofilename>
											<originalaudiofilename></originalaudiofilename>
										</logginginfo>
									</sequence>
									<sequence id="sequence-57" TL.SQAudioVisibleBase="0" TL.SQVideoVisibleBase="0" TL.SQVisibleBaseTime="0" TL.SQAVDividerPosition="0.662460565567" TL.SQHideShyTracks="0" TL.SQHeaderWidth="236" Monitor.ProgramZoomOut="288172684800" Monitor.ProgramZoomIn="0" TL.SQTimePerPixel="0.0011122222222222221" MZ.EditLine="271221350400" MZ.Sequence.PreviewFrameSizeHeight="1080" MZ.Sequence.PreviewFrameSizeWidth="1920" MZ.Sequence.AudioTimeDisplayFormat="200" MZ.Sequence.PreviewRenderingClassID="1297106761" MZ.Sequence.PreviewRenderingPresetCodec="1297107278" MZ.Sequence.PreviewRenderingPresetPath="EncoderPresets/SequencePreview/795454d9-d3c2-429d-9474-923ab13b7018/I-Frame Only MPEG.epr" MZ.Sequence.PreviewUseMaxRenderQuality="false" MZ.Sequence.PreviewUseMaxBitDepth="false" MZ.Sequence.EditingModeGUID="795454d9-d3c2-429d-9474-923ab13b7018" MZ.Sequence.VideoTimeDisplayFormat="102" MZ.WorkOutPoint="271221350400" MZ.WorkInPoint="0" explodedTracks="true">
										<uuid>9c73057d-ff45-4a11-9da8-56d18f616aa6</uuid>
										<duration>34</duration>
										<rate>
											<timebase>30</timebase>
											<ntsc>TRUE</ntsc>
										</rate>
										<name>08 Zoom Out - Right Rotation</name>
										<media>
											<video>
												<format>
													<samplecharacteristics>
														<rate>
															<timebase>30</timebase>
															<ntsc>TRUE</ntsc>
														</rate>
														<codec>
															<name>Apple ProRes 422</name>
															<appspecificdata>
																<appname>Final Cut Pro</appname>
																<appmanufacturer>Apple Inc.</appmanufacturer>
																<appversion>7.0</appversion>
																<data>
																	<qtcodec>
																		<codecname>Apple ProRes 422</codecname>
																		<codectypename>Apple ProRes 422</codectypename>
																		<codectypecode>apcn</codectypecode>
																		<codecvendorcode>appl</codecvendorcode>
																		<spatialquality>1024</spatialquality>
																		<temporalquality>0</temporalquality>
																		<keyframerate>0</keyframerate>
																		<datarate>0</datarate>
																	</qtcodec>
																</data>
															</appspecificdata>
														</codec>
														<width>1920</width>
														<height>1080</height>
														<anamorphic>FALSE</anamorphic>
														<pixelaspectratio>square</pixelaspectratio>
														<fielddominance>none</fielddominance>
														<colordepth>24</colordepth>
													</samplecharacteristics>
												</format>
												<track TL.SQTrackShy="0" TL.SQTrackExpandedHeight="25" TL.SQTrackExpanded="0" MZ.TrackTargeted="0">
													<clipitem id="clipitem-738">
														<masterclipid>masterclip-349</masterclipid>
														<name>Picture 01.jpeg</name>
														<enabled>TRUE</enabled>
														<duration>1294705</duration>
														<rate>
															<timebase>30</timebase>
															<ntsc>TRUE</ntsc>
														</rate>
														<start>0</start>
														<end>14</end>
														<in>107886</in>
														<out>107900</out>
														<pproTicksIn>914405831539200</pproTicksIn>
														<pproTicksOut>914524490880000</pproTicksOut>
														<alphatype>none</alphatype>
														<file id="file-321"/>
														<filter>
															<effect>
																<name>Basic Motion</name>
																<effectid>basic</effectid>
																<effectcategory>motion</effectcategory>
																<effecttype>motion</effecttype>
																<mediatype>video</mediatype>
																<pproBypass>false</pproBypass>
																<parameter authoringApp="PremierePro">
																	<parameterid>scale</parameterid>
																	<name>Scale</name>
																	<valuemin>0</valuemin>
																	<valuemax>1000</valuemax>
																	<value>77</value>
																</parameter>
																<parameter authoringApp="PremierePro">
																	<parameterid>rotation</parameterid>
																	<name>Rotation</name>
																	<valuemin>-8640</valuemin>
																	<valuemax>8640</valuemax>
																	<value>0</value>
																</parameter>
																<parameter authoringApp="PremierePro">
																	<parameterid>center</parameterid>
																	<name>Center</name>
																	<value>
																		<horiz>0</horiz>
																		<vert>0</vert>
																	</value>
																</parameter>
																<parameter authoringApp="PremierePro">
																	<parameterid>centerOffset</parameterid>
																	<name>Anchor Point</name>
																	<value>
																		<horiz>0</horiz>
																		<vert>0</vert>
																	</value>
																</parameter>
																<parameter authoringApp="PremierePro">
																	<parameterid>antiflicker</parameterid>
																	<name>Anti-flicker Filter</name>
																	<valuemin>0.0</valuemin>
																	<valuemax>1.0</valuemax>
																	<value>0</value>
																</parameter>
															</effect>
														</filter>
														<logginginfo>
															<description></description>
															<scene></scene>
															<shottake></shottake>
															<lognote></lognote>
															<good></good>
															<originalvideofilename></originalvideofilename>
															<originalaudiofilename></originalaudiofilename>
														</logginginfo>
														<colorinfo>
															<lut></lut>
															<lut1></lut1>
															<asc_sop></asc_sop>
															<asc_sat></asc_sat>
															<lut2></lut2>
														</colorinfo>
														<labels>
															<label2>Lavender</label2>
														</labels>
													</clipitem>
													<clipitem id="clipitem-739">
														<masterclipid>masterclip-350</masterclipid>
														<name>Picture 02.jpg</name>
														<enabled>TRUE</enabled>
														<duration>1294705</duration>
														<rate>
															<timebase>30</timebase>
															<ntsc>TRUE</ntsc>
														</rate>
														<start>14</start>
														<end>34</end>
														<in>107892</in>
														<out>107912</out>
														<pproTicksIn>914456685542400</pproTicksIn>
														<pproTicksOut>914626198886400</pproTicksOut>
														<alphatype>none</alphatype>
														<file id="file-322"/>
														<logginginfo>
															<description></description>
															<scene></scene>
															<shottake></shottake>
															<lognote></lognote>
															<good></good>
															<originalvideofilename></originalvideofilename>
															<originalaudiofilename></originalaudiofilename>
														</logginginfo>
														<colorinfo>
															<lut></lut>
															<lut1></lut1>
															<asc_sop></asc_sop>
															<asc_sat></asc_sat>
															<lut2></lut2>
														</colorinfo>
														<labels>
															<label2>Lavender</label2>
														</labels>
													</clipitem>
													<enabled>TRUE</enabled>
													<locked>FALSE</locked>
												</track>
												<track TL.SQTrackShy="0" TL.SQTrackExpandedHeight="25" TL.SQTrackExpanded="0" MZ.TrackTargeted="0">
													<clipitem id="clipitem-740">
														<masterclipid>masterclip-157</masterclipid>
														<name>08 Zoom Out - Right Rotation / Transform Out</name>
														<enabled>TRUE</enabled>
														<duration>1294705</duration>
														<rate>
															<timebase>30</timebase>
															<ntsc>TRUE</ntsc>
														</rate>
														<start>0</start>
														<end>14</end>
														<in>0</in>
														<out>14</out>
														<pproTicksIn>0</pproTicksIn>
														<pproTicksOut>118659340800</pproTicksOut>
														<sequence id="sequence-7"/>
														<filter>
															<effect>
																<name>Opacity</name>
																<effectid>opacity</effectid>
																<effectcategory>motion</effectcategory>
																<effecttype>motion</effecttype>
																<mediatype>video</mediatype>
																<pproBypass>false</pproBypass>
																<parameter authoringApp="PremierePro">
																	<parameterid>opacity</parameterid>
																	<name>opacity</name>
																	<valuemin>0</valuemin>
																	<valuemax>100</valuemax>
																	<value>100</value>
																	<keyframe>
																		<when>0</when>
																		<value>0</value>
																	</keyframe>
																	<keyframe>
																		<when>0</when>
																		<value>100</value>
																	</keyframe>
																</parameter>
															</effect>
														</filter>
															<marker>
																<comment></comment>
																<name></name>
																<in>20</in>
																<out>-1</out>
															</marker>
														<labels>
															<label2>Iris</label2>
														</labels>
													</clipitem>
													<clipitem id="clipitem-741">
														<masterclipid>masterclip-159</masterclipid>
														<name>08 Zoom Out - Right Rotation / Transform In</name>
														<enabled>TRUE</enabled>
														<duration>1294705</duration>
														<rate>
															<timebase>30</timebase>
															<ntsc>TRUE</ntsc>
														</rate>
														<start>14</start>
														<end>26</end>
														<in>0</in>
														<out>12</out>
														<pproTicksIn>0</pproTicksIn>
														<pproTicksOut>101708006400</pproTicksOut>
														<sequence id="sequence-8"/>
														<filter>
															<effect>
																<name>Basic Motion</name>
																<effectid>basic</effectid>
																<effectcategory>motion</effectcategory>
																<effecttype>motion</effecttype>
																<mediatype>video</mediatype>
																<pproBypass>false</pproBypass>
																<parameter authoringApp="PremierePro">
																	<parameterid>scale</parameterid>
																	<name>Scale</name>
																	<valuemin>0</valuemin>
																	<valuemax>1000</valuemax>
																	<value>100</value>
																</parameter>
																<parameter authoringApp="PremierePro">
																	<parameterid>rotation</parameterid>
																	<name>Rotation</name>
																	<valuemin>-8640</valuemin>
																	<valuemax>8640</valuemax>
																	<value>0</value>
																</parameter>
																<parameter authoringApp="PremierePro">
																	<parameterid>center</parameterid>
																	<name>Center</name>
																	<value>
																		<horiz>-0.5</horiz>
																		<vert>-0.499394</vert>
																	</value>
																</parameter>
																<parameter authoringApp="PremierePro">
																	<parameterid>centerOffset</parameterid>
																	<name>Anchor Point</name>
																	<value>
																		<horiz>0</horiz>
																		<vert>-0.00060606</vert>
																	</value>
																</parameter>
																<parameter authoringApp="PremierePro">
																	<parameterid>antiflicker</parameterid>
																	<name>Anti-flicker Filter</name>
																	<valuemin>0.0</valuemin>
																	<valuemax>1.0</valuemax>
																	<value>0</value>
																</parameter>
															</effect>
														</filter>
														<labels>
															<label2>Iris</label2>
														</labels>
													</clipitem>
													<enabled>TRUE</enabled>
													<locked>FALSE</locked>
												</track>
												<track TL.SQTrackShy="0" TL.SQTrackExpandedHeight="25" TL.SQTrackExpanded="0" MZ.TrackTargeted="0">
													<enabled>TRUE</enabled>
													<locked>FALSE</locked>
												</track>
												<track TL.SQTrackShy="0" TL.SQTrackExpandedHeight="25" TL.SQTrackExpanded="0" MZ.TrackTargeted="0">
													<enabled>TRUE</enabled>
													<locked>FALSE</locked>
												</track>
												<track TL.SQTrackShy="0" TL.SQTrackExpandedHeight="25" TL.SQTrackExpanded="0" MZ.TrackTargeted="0">
													<enabled>TRUE</enabled>
													<locked>FALSE</locked>
												</track>
												<track TL.SQTrackShy="0" TL.SQTrackExpandedHeight="25" TL.SQTrackExpanded="0" MZ.TrackTargeted="0">
													<enabled>TRUE</enabled>
													<locked>FALSE</locked>
												</track>
												<track TL.SQTrackShy="0" TL.SQTrackExpandedHeight="25" TL.SQTrackExpanded="0" MZ.TrackTargeted="0">
													<enabled>TRUE</enabled>
													<locked>FALSE</locked>
												</track>
											</video>
											<audio>
												<numOutputChannels>2</numOutputChannels>
												<format>
													<samplecharacteristics>
														<depth>16</depth>
														<samplerate>48000</samplerate>
													</samplecharacteristics>
												</format>
												<outputs>
													<group>
														<index>1</index>
														<numchannels>1</numchannels>
														<downmix>0</downmix>
														<channel>
															<index>1</index>
														</channel>
													</group>
													<group>
														<index>2</index>
														<numchannels>1</numchannels>
														<downmix>0</downmix>
														<channel>
															<index>2</index>
														</channel>
													</group>
												</outputs>
												<track TL.SQTrackAudioKeyframeStyle="0" TL.SQTrackShy="0" TL.SQTrackExpandedHeight="25" TL.SQTrackExpanded="1" MZ.TrackTargeted="1" PannerCurrentValue="0.5" PannerIsInverted="true" PannerStartKeyframe="-91445760000000000,0.5,0,0,0,0,0,0" PannerName="Balance" currentExplodedTrackIndex="0" totalExplodedTrackCount="2" premiereTrackType="Stereo">
													<enabled>TRUE</enabled>
													<locked>FALSE</locked>
													<outputchannelindex>1</outputchannelindex>
												</track>
												<track TL.SQTrackAudioKeyframeStyle="0" TL.SQTrackShy="0" TL.SQTrackExpandedHeight="25" TL.SQTrackExpanded="1" MZ.TrackTargeted="1" PannerCurrentValue="0.5" PannerIsInverted="true" PannerStartKeyframe="-91445760000000000,0.5,0,0,0,0,0,0" PannerName="Balance" currentExplodedTrackIndex="1" totalExplodedTrackCount="2" premiereTrackType="Stereo">
													<enabled>TRUE</enabled>
													<locked>FALSE</locked>
													<outputchannelindex>2</outputchannelindex>
												</track>
												<track TL.SQTrackAudioKeyframeStyle="0" TL.SQTrackShy="0" TL.SQTrackExpandedHeight="25" TL.SQTrackExpanded="1" MZ.TrackTargeted="1" PannerCurrentValue="0.5" PannerIsInverted="true" PannerStartKeyframe="-91445760000000000,0.5,0,0,0,0,0,0" PannerName="Balance" currentExplodedTrackIndex="0" totalExplodedTrackCount="2" premiereTrackType="Stereo">
													<enabled>TRUE</enabled>
													<locked>FALSE</locked>
													<outputchannelindex>1</outputchannelindex>
												</track>
												<track TL.SQTrackAudioKeyframeStyle="0" TL.SQTrackShy="0" TL.SQTrackExpandedHeight="25" TL.SQTrackExpanded="1" MZ.TrackTargeted="1" PannerCurrentValue="0.5" PannerIsInverted="true" PannerStartKeyframe="-91445760000000000,0.5,0,0,0,0,0,0" PannerName="Balance" currentExplodedTrackIndex="1" totalExplodedTrackCount="2" premiereTrackType="Stereo">
													<enabled>TRUE</enabled>
													<locked>FALSE</locked>
													<outputchannelindex>2</outputchannelindex>
												</track>
												<track TL.SQTrackAudioKeyframeStyle="0" TL.SQTrackShy="0" TL.SQTrackExpandedHeight="25" TL.SQTrackExpanded="1" MZ.TrackTargeted="1" PannerCurrentValue="0.5" PannerIsInverted="true" PannerStartKeyframe="-91445760000000000,0.5,0,0,0,0,0,0" PannerName="Balance" currentExplodedTrackIndex="0" totalExplodedTrackCount="2" premiereTrackType="Stereo">
													<enabled>TRUE</enabled>
													<locked>FALSE</locked>
													<outputchannelindex>1</outputchannelindex>
												</track>
												<track TL.SQTrackAudioKeyframeStyle="0" TL.SQTrackShy="0" TL.SQTrackExpandedHeight="25" TL.SQTrackExpanded="1" MZ.TrackTargeted="1" PannerCurrentValue="0.5" PannerIsInverted="true" PannerStartKeyframe="-91445760000000000,0.5,0,0,0,0,0,0" PannerName="Balance" currentExplodedTrackIndex="1" totalExplodedTrackCount="2" premiereTrackType="Stereo">
													<enabled>TRUE</enabled>
													<locked>FALSE</locked>
													<outputchannelindex>2</outputchannelindex>
												</track>
												<track TL.SQTrackAudioKeyframeStyle="0" TL.SQTrackShy="0" TL.SQTrackExpandedHeight="25" TL.SQTrackExpanded="0" MZ.TrackTargeted="0" PannerCurrentValue="0.5" PannerIsInverted="true" PannerStartKeyframe="-91445760000000000,0.5,0,0,0,0,0,0" PannerName="Balance" currentExplodedTrackIndex="0" totalExplodedTrackCount="2" premiereTrackType="Stereo">
													<enabled>TRUE</enabled>
													<locked>FALSE</locked>
													<outputchannelindex>1</outputchannelindex>
												</track>
												<track TL.SQTrackAudioKeyframeStyle="0" TL.SQTrackShy="0" TL.SQTrackExpandedHeight="25" TL.SQTrackExpanded="0" MZ.TrackTargeted="0" PannerCurrentValue="0.5" PannerIsInverted="true" PannerStartKeyframe="-91445760000000000,0.5,0,0,0,0,0,0" PannerName="Balance" currentExplodedTrackIndex="1" totalExplodedTrackCount="2" premiereTrackType="Stereo">
													<enabled>TRUE</enabled>
													<locked>FALSE</locked>
													<outputchannelindex>2</outputchannelindex>
												</track>
											</audio>
										</media>
										<timecode>
											<rate>
												<timebase>30</timebase>
												<ntsc>TRUE</ntsc>
											</rate>
											<string>00;00;00;00</string>
											<frame>0</frame>
											<displayformat>DF</displayformat>
										</timecode>
										<labels>
											<label2>Rose</label2>
										</labels>
										<logginginfo>
											<description></description>
											<scene></scene>
											<shottake></shottake>
											<lognote></lognote>
											<good></good>
											<originalvideofilename></originalvideofilename>
											<originalaudiofilename></originalaudiofilename>
										</logginginfo>
									</sequence>
									<sequence id="sequence-58" TL.SQAudioVisibleBase="0" TL.SQVideoVisibleBase="0" TL.SQVisibleBaseTime="0" TL.SQAVDividerPosition="0.504587173462" TL.SQHideShyTracks="0" TL.SQHeaderWidth="236" Monitor.ProgramZoomOut="313599686400" Monitor.ProgramZoomIn="0" TL.SQTimePerPixel="0.0023966115377377153" MZ.EditLine="194940345600" MZ.Sequence.PreviewFrameSizeHeight="1080" MZ.Sequence.PreviewFrameSizeWidth="1920" MZ.Sequence.AudioTimeDisplayFormat="200" MZ.Sequence.PreviewRenderingClassID="1297106761" MZ.Sequence.PreviewRenderingPresetCodec="1297107278" MZ.Sequence.PreviewRenderingPresetPath="EncoderPresets/SequencePreview/795454d9-d3c2-429d-9474-923ab13b7018/I-Frame Only MPEG.epr" MZ.Sequence.PreviewUseMaxRenderQuality="false" MZ.Sequence.PreviewUseMaxBitDepth="false" MZ.Sequence.EditingModeGUID="795454d9-d3c2-429d-9474-923ab13b7018" MZ.Sequence.VideoTimeDisplayFormat="102" MZ.WorkOutPoint="440734694400" MZ.WorkInPoint="0" explodedTracks="true">
										<uuid>c826e10b-4e59-49dd-963f-b7cebb3e0784</uuid>
										<duration>37</duration>
										<rate>
											<timebase>30</timebase>
											<ntsc>TRUE</ntsc>
										</rate>
										<name>09 Zoom in - left Rotation</name>
										<media>
											<video>
												<format>
													<samplecharacteristics>
														<rate>
															<timebase>30</timebase>
															<ntsc>TRUE</ntsc>
														</rate>
														<codec>
															<name>Apple ProRes 422</name>
															<appspecificdata>
																<appname>Final Cut Pro</appname>
																<appmanufacturer>Apple Inc.</appmanufacturer>
																<appversion>7.0</appversion>
																<data>
																	<qtcodec>
																		<codecname>Apple ProRes 422</codecname>
																		<codectypename>Apple ProRes 422</codectypename>
																		<codectypecode>apcn</codectypecode>
																		<codecvendorcode>appl</codecvendorcode>
																		<spatialquality>1024</spatialquality>
																		<temporalquality>0</temporalquality>
																		<keyframerate>0</keyframerate>
																		<datarate>0</datarate>
																	</qtcodec>
																</data>
															</appspecificdata>
														</codec>
														<width>1920</width>
														<height>1080</height>
														<anamorphic>FALSE</anamorphic>
														<pixelaspectratio>square</pixelaspectratio>
														<fielddominance>none</fielddominance>
														<colordepth>24</colordepth>
													</samplecharacteristics>
												</format>
												<track TL.SQTrackShy="0" TL.SQTrackExpandedHeight="25" TL.SQTrackExpanded="0" MZ.TrackTargeted="0">
													<clipitem id="clipitem-742">
														<masterclipid>masterclip-349</masterclipid>
														<name>Picture 01.jpeg</name>
														<enabled>TRUE</enabled>
														<duration>1294705</duration>
														<rate>
															<timebase>30</timebase>
															<ntsc>TRUE</ntsc>
														</rate>
														<start>0</start>
														<end>15</end>
														<in>107886</in>
														<out>107901</out>
														<pproTicksIn>914405831539200</pproTicksIn>
														<pproTicksOut>914532966547200</pproTicksOut>
														<alphatype>none</alphatype>
														<file id="file-321"/>
														<filter>
															<effect>
																<name>Basic Motion</name>
																<effectid>basic</effectid>
																<effectcategory>motion</effectcategory>
																<effecttype>motion</effecttype>
																<mediatype>video</mediatype>
																<pproBypass>false</pproBypass>
																<parameter authoringApp="PremierePro">
																	<parameterid>scale</parameterid>
																	<name>Scale</name>
																	<valuemin>0</valuemin>
																	<valuemax>1000</valuemax>
																	<value>77</value>
																</parameter>
																<parameter authoringApp="PremierePro">
																	<parameterid>rotation</parameterid>
																	<name>Rotation</name>
																	<valuemin>-8640</valuemin>
																	<valuemax>8640</valuemax>
																	<value>0</value>
																</parameter>
																<parameter authoringApp="PremierePro">
																	<parameterid>center</parameterid>
																	<name>Center</name>
																	<value>
																		<horiz>0</horiz>
																		<vert>0</vert>
																	</value>
																</parameter>
																<parameter authoringApp="PremierePro">
																	<parameterid>centerOffset</parameterid>
																	<name>Anchor Point</name>
																	<value>
																		<horiz>0</horiz>
																		<vert>0</vert>
																	</value>
																</parameter>
																<parameter authoringApp="PremierePro">
																	<parameterid>antiflicker</parameterid>
																	<name>Anti-flicker Filter</name>
																	<valuemin>0.0</valuemin>
																	<valuemax>1.0</valuemax>
																	<value>0</value>
																</parameter>
															</effect>
														</filter>
														<logginginfo>
															<description></description>
															<scene></scene>
															<shottake></shottake>
															<lognote></lognote>
															<good></good>
															<originalvideofilename></originalvideofilename>
															<originalaudiofilename></originalaudiofilename>
														</logginginfo>
														<colorinfo>
															<lut></lut>
															<lut1></lut1>
															<asc_sop></asc_sop>
															<asc_sat></asc_sat>
															<lut2></lut2>
														</colorinfo>
														<labels>
															<label2>Lavender</label2>
														</labels>
													</clipitem>
													<clipitem id="clipitem-743">
														<masterclipid>masterclip-350</masterclipid>
														<name>Picture 02.jpg</name>
														<enabled>TRUE</enabled>
														<duration>1294705</duration>
														<rate>
															<timebase>30</timebase>
															<ntsc>TRUE</ntsc>
														</rate>
														<start>15</start>
														<end>37</end>
														<in>107892</in>
														<out>107914</out>
														<pproTicksIn>914456685542400</pproTicksIn>
														<pproTicksOut>914643150220800</pproTicksOut>
														<alphatype>none</alphatype>
														<file id="file-322"/>
														<logginginfo>
															<description></description>
															<scene></scene>
															<shottake></shottake>
															<lognote></lognote>
															<good></good>
															<originalvideofilename></originalvideofilename>
															<originalaudiofilename></originalaudiofilename>
														</logginginfo>
														<colorinfo>
															<lut></lut>
															<lut1></lut1>
															<asc_sop></asc_sop>
															<asc_sat></asc_sat>
															<lut2></lut2>
														</colorinfo>
														<labels>
															<label2>Lavender</label2>
														</labels>
													</clipitem>
													<enabled>TRUE</enabled>
													<locked>FALSE</locked>
												</track>
												<track TL.SQTrackShy="0" TL.SQTrackExpandedHeight="25" TL.SQTrackExpanded="0" MZ.TrackTargeted="0">
													<clipitem id="clipitem-744">
														<masterclipid>masterclip-157</masterclipid>
														<name>09 Zoom in - left Rotation / Transsform Out</name>
														<enabled>TRUE</enabled>
														<duration>1294705</duration>
														<rate>
															<timebase>30</timebase>
															<ntsc>TRUE</ntsc>
														</rate>
														<start>0</start>
														<end>15</end>
														<in>0</in>
														<out>15</out>
														<pproTicksIn>0</pproTicksIn>
														<pproTicksOut>127135008000</pproTicksOut>
														<sequence id="sequence-7"/>
															<marker>
																<comment></comment>
																<name></name>
																<in>20</in>
																<out>-1</out>
															</marker>
														<labels>
															<label2>Iris</label2>
														</labels>
													</clipitem>
													<clipitem id="clipitem-745">
														<masterclipid>masterclip-159</masterclipid>
														<name>09 Zoom in - left Rotation / Transsform In</name>
														<enabled>TRUE</enabled>
														<duration>1294705</duration>
														<rate>
															<timebase>30</timebase>
															<ntsc>TRUE</ntsc>
														</rate>
														<start>15</start>
														<end>27</end>
														<in>0</in>
														<out>12</out>
														<pproTicksIn>0</pproTicksIn>
														<pproTicksOut>101708006400</pproTicksOut>
														<sequence id="sequence-8"/>
														<labels>
															<label2>Iris</label2>
														</labels>
													</clipitem>
													<enabled>TRUE</enabled>
													<locked>FALSE</locked>
												</track>
												<track TL.SQTrackShy="0" TL.SQTrackExpandedHeight="39" TL.SQTrackExpanded="0" MZ.TrackTargeted="0">
													<enabled>TRUE</enabled>
													<locked>FALSE</locked>
												</track>
												<track TL.SQTrackShy="0" TL.SQTrackExpandedHeight="25" TL.SQTrackExpanded="0" MZ.TrackTargeted="0">
													<enabled>TRUE</enabled>
													<locked>FALSE</locked>
												</track>
												<track TL.SQTrackShy="0" TL.SQTrackExpandedHeight="25" TL.SQTrackExpanded="0" MZ.TrackTargeted="0">
													<enabled>TRUE</enabled>
													<locked>FALSE</locked>
												</track>
												<track TL.SQTrackShy="0" TL.SQTrackExpandedHeight="25" TL.SQTrackExpanded="0" MZ.TrackTargeted="0">
													<enabled>TRUE</enabled>
													<locked>FALSE</locked>
												</track>
												<track TL.SQTrackShy="0" TL.SQTrackExpandedHeight="25" TL.SQTrackExpanded="0" MZ.TrackTargeted="0">
													<enabled>TRUE</enabled>
													<locked>FALSE</locked>
												</track>
											</video>
											<audio>
												<numOutputChannels>2</numOutputChannels>
												<format>
													<samplecharacteristics>
														<depth>16</depth>
														<samplerate>48000</samplerate>
													</samplecharacteristics>
												</format>
												<outputs>
													<group>
														<index>1</index>
														<numchannels>1</numchannels>
														<downmix>0</downmix>
														<channel>
															<index>1</index>
														</channel>
													</group>
													<group>
														<index>2</index>
														<numchannels>1</numchannels>
														<downmix>0</downmix>
														<channel>
															<index>2</index>
														</channel>
													</group>
												</outputs>
												<track TL.SQTrackAudioKeyframeStyle="0" TL.SQTrackShy="0" TL.SQTrackExpandedHeight="25" TL.SQTrackExpanded="1" MZ.TrackTargeted="1" PannerCurrentValue="0.5" PannerIsInverted="true" PannerStartKeyframe="-91445760000000000,0.5,0,0,0,0,0,0" PannerName="Balance" currentExplodedTrackIndex="0" totalExplodedTrackCount="2" premiereTrackType="Stereo">
													<enabled>TRUE</enabled>
													<locked>FALSE</locked>
													<outputchannelindex>1</outputchannelindex>
												</track>
												<track TL.SQTrackAudioKeyframeStyle="0" TL.SQTrackShy="0" TL.SQTrackExpandedHeight="25" TL.SQTrackExpanded="1" MZ.TrackTargeted="1" PannerCurrentValue="0.5" PannerIsInverted="true" PannerStartKeyframe="-91445760000000000,0.5,0,0,0,0,0,0" PannerName="Balance" currentExplodedTrackIndex="1" totalExplodedTrackCount="2" premiereTrackType="Stereo">
													<enabled>TRUE</enabled>
													<locked>FALSE</locked>
													<outputchannelindex>2</outputchannelindex>
												</track>
												<track TL.SQTrackAudioKeyframeStyle="0" TL.SQTrackShy="0" TL.SQTrackExpandedHeight="25" TL.SQTrackExpanded="1" MZ.TrackTargeted="1" PannerCurrentValue="0.5" PannerIsInverted="true" PannerStartKeyframe="-91445760000000000,0.5,0,0,0,0,0,0" PannerName="Balance" currentExplodedTrackIndex="0" totalExplodedTrackCount="2" premiereTrackType="Stereo">
													<enabled>TRUE</enabled>
													<locked>FALSE</locked>
													<outputchannelindex>1</outputchannelindex>
												</track>
												<track TL.SQTrackAudioKeyframeStyle="0" TL.SQTrackShy="0" TL.SQTrackExpandedHeight="25" TL.SQTrackExpanded="1" MZ.TrackTargeted="1" PannerCurrentValue="0.5" PannerIsInverted="true" PannerStartKeyframe="-91445760000000000,0.5,0,0,0,0,0,0" PannerName="Balance" currentExplodedTrackIndex="1" totalExplodedTrackCount="2" premiereTrackType="Stereo">
													<enabled>TRUE</enabled>
													<locked>FALSE</locked>
													<outputchannelindex>2</outputchannelindex>
												</track>
												<track TL.SQTrackAudioKeyframeStyle="0" TL.SQTrackShy="0" TL.SQTrackExpandedHeight="25" TL.SQTrackExpanded="1" MZ.TrackTargeted="1" PannerCurrentValue="0.5" PannerIsInverted="true" PannerStartKeyframe="-91445760000000000,0.5,0,0,0,0,0,0" PannerName="Balance" currentExplodedTrackIndex="0" totalExplodedTrackCount="2" premiereTrackType="Stereo">
													<enabled>TRUE</enabled>
													<locked>FALSE</locked>
													<outputchannelindex>1</outputchannelindex>
												</track>
												<track TL.SQTrackAudioKeyframeStyle="0" TL.SQTrackShy="0" TL.SQTrackExpandedHeight="25" TL.SQTrackExpanded="1" MZ.TrackTargeted="1" PannerCurrentValue="0.5" PannerIsInverted="true" PannerStartKeyframe="-91445760000000000,0.5,0,0,0,0,0,0" PannerName="Balance" currentExplodedTrackIndex="1" totalExplodedTrackCount="2" premiereTrackType="Stereo">
													<enabled>TRUE</enabled>
													<locked>FALSE</locked>
													<outputchannelindex>2</outputchannelindex>
												</track>
												<track TL.SQTrackAudioKeyframeStyle="0" TL.SQTrackShy="0" TL.SQTrackExpandedHeight="25" TL.SQTrackExpanded="0" MZ.TrackTargeted="0" PannerCurrentValue="0.5" PannerIsInverted="true" PannerStartKeyframe="-91445760000000000,0.5,0,0,0,0,0,0" PannerName="Balance" currentExplodedTrackIndex="0" totalExplodedTrackCount="2" premiereTrackType="Stereo">
													<enabled>TRUE</enabled>
													<locked>FALSE</locked>
													<outputchannelindex>1</outputchannelindex>
												</track>
												<track TL.SQTrackAudioKeyframeStyle="0" TL.SQTrackShy="0" TL.SQTrackExpandedHeight="25" TL.SQTrackExpanded="0" MZ.TrackTargeted="0" PannerCurrentValue="0.5" PannerIsInverted="true" PannerStartKeyframe="-91445760000000000,0.5,0,0,0,0,0,0" PannerName="Balance" currentExplodedTrackIndex="1" totalExplodedTrackCount="2" premiereTrackType="Stereo">
													<enabled>TRUE</enabled>
													<locked>FALSE</locked>
													<outputchannelindex>2</outputchannelindex>
												</track>
											</audio>
										</media>
										<timecode>
											<rate>
												<timebase>30</timebase>
												<ntsc>TRUE</ntsc>
											</rate>
											<string>00;00;00;00</string>
											<frame>0</frame>
											<displayformat>DF</displayformat>
										</timecode>
										<labels>
											<label2>Rose</label2>
										</labels>
										<logginginfo>
											<description></description>
											<scene></scene>
											<shottake></shottake>
											<lognote></lognote>
											<good></good>
											<originalvideofilename></originalvideofilename>
											<originalaudiofilename></originalaudiofilename>
										</logginginfo>
									</sequence>
									<sequence id="sequence-59" TL.SQAudioVisibleBase="0" TL.SQVideoVisibleBase="0" TL.SQVisibleBaseTime="0" TL.SQAVDividerPosition="0.662460565567" TL.SQHideShyTracks="0" TL.SQHeaderWidth="236" Monitor.ProgramZoomOut="237318681600" Monitor.ProgramZoomIn="0" TL.SQTimePerPixel="0.0023966017633039721" MZ.EditLine="271221350400" MZ.Sequence.PreviewFrameSizeHeight="1080" MZ.Sequence.PreviewFrameSizeWidth="1920" MZ.Sequence.AudioTimeDisplayFormat="200" MZ.Sequence.PreviewRenderingClassID="1297106761" MZ.Sequence.PreviewRenderingPresetCodec="1297107278" MZ.Sequence.PreviewRenderingPresetPath="EncoderPresets/SequencePreview/795454d9-d3c2-429d-9474-923ab13b7018/I-Frame Only MPEG.epr" MZ.Sequence.PreviewUseMaxRenderQuality="false" MZ.Sequence.PreviewUseMaxBitDepth="false" MZ.Sequence.EditingModeGUID="795454d9-d3c2-429d-9474-923ab13b7018" MZ.Sequence.VideoTimeDisplayFormat="102" MZ.WorkOutPoint="271221350400" MZ.WorkInPoint="0" explodedTracks="true">
										<uuid>43f7fd94-0a6a-40cc-93db-0213d7ae9abb</uuid>
										<duration>28</duration>
										<rate>
											<timebase>30</timebase>
											<ntsc>TRUE</ntsc>
										</rate>
										<name>10 Zoom Out - Right/Quick</name>
										<media>
											<video>
												<format>
													<samplecharacteristics>
														<rate>
															<timebase>30</timebase>
															<ntsc>TRUE</ntsc>
														</rate>
														<codec>
															<name>Apple ProRes 422</name>
															<appspecificdata>
																<appname>Final Cut Pro</appname>
																<appmanufacturer>Apple Inc.</appmanufacturer>
																<appversion>7.0</appversion>
																<data>
																	<qtcodec>
																		<codecname>Apple ProRes 422</codecname>
																		<codectypename>Apple ProRes 422</codectypename>
																		<codectypecode>apcn</codectypecode>
																		<codecvendorcode>appl</codecvendorcode>
																		<spatialquality>1024</spatialquality>
																		<temporalquality>0</temporalquality>
																		<keyframerate>0</keyframerate>
																		<datarate>0</datarate>
																	</qtcodec>
																</data>
															</appspecificdata>
														</codec>
														<width>1920</width>
														<height>1080</height>
														<anamorphic>FALSE</anamorphic>
														<pixelaspectratio>square</pixelaspectratio>
														<fielddominance>none</fielddominance>
														<colordepth>24</colordepth>
													</samplecharacteristics>
												</format>
												<track TL.SQTrackShy="0" TL.SQTrackExpandedHeight="25" TL.SQTrackExpanded="0" MZ.TrackTargeted="0">
													<clipitem id="clipitem-746">
														<masterclipid>masterclip-349</masterclipid>
														<name>Picture 01.jpeg</name>
														<enabled>TRUE</enabled>
														<duration>1294705</duration>
														<rate>
															<timebase>30</timebase>
															<ntsc>TRUE</ntsc>
														</rate>
														<start>0</start>
														<end>10</end>
														<in>107886</in>
														<out>107896</out>
														<pproTicksIn>914405831539200</pproTicksIn>
														<pproTicksOut>914490588211200</pproTicksOut>
														<alphatype>none</alphatype>
														<file id="file-321"/>
														<filter>
															<effect>
																<name>Basic Motion</name>
																<effectid>basic</effectid>
																<effectcategory>motion</effectcategory>
																<effecttype>motion</effecttype>
																<mediatype>video</mediatype>
																<pproBypass>false</pproBypass>
																<parameter authoringApp="PremierePro">
																	<parameterid>scale</parameterid>
																	<name>Scale</name>
																	<valuemin>0</valuemin>
																	<valuemax>1000</valuemax>
																	<value>77</value>
																</parameter>
																<parameter authoringApp="PremierePro">
																	<parameterid>rotation</parameterid>
																	<name>Rotation</name>
																	<valuemin>-8640</valuemin>
																	<valuemax>8640</valuemax>
																	<value>0</value>
																</parameter>
																<parameter authoringApp="PremierePro">
																	<parameterid>center</parameterid>
																	<name>Center</name>
																	<value>
																		<horiz>0</horiz>
																		<vert>0</vert>
																	</value>
																</parameter>
																<parameter authoringApp="PremierePro">
																	<parameterid>centerOffset</parameterid>
																	<name>Anchor Point</name>
																	<value>
																		<horiz>0</horiz>
																		<vert>0</vert>
																	</value>
																</parameter>
																<parameter authoringApp="PremierePro">
																	<parameterid>antiflicker</parameterid>
																	<name>Anti-flicker Filter</name>
																	<valuemin>0.0</valuemin>
																	<valuemax>1.0</valuemax>
																	<value>0</value>
																</parameter>
															</effect>
														</filter>
														<logginginfo>
															<description></description>
															<scene></scene>
															<shottake></shottake>
															<lognote></lognote>
															<good></good>
															<originalvideofilename></originalvideofilename>
															<originalaudiofilename></originalaudiofilename>
														</logginginfo>
														<colorinfo>
															<lut></lut>
															<lut1></lut1>
															<asc_sop></asc_sop>
															<asc_sat></asc_sat>
															<lut2></lut2>
														</colorinfo>
														<labels>
															<label2>Lavender</label2>
														</labels>
													</clipitem>
													<clipitem id="clipitem-747">
														<masterclipid>masterclip-350</masterclipid>
														<name>Picture 02.jpg</name>
														<enabled>TRUE</enabled>
														<duration>1294705</duration>
														<rate>
															<timebase>30</timebase>
															<ntsc>TRUE</ntsc>
														</rate>
														<start>10</start>
														<end>28</end>
														<in>107892</in>
														<out>107910</out>
														<pproTicksIn>914456685542400</pproTicksIn>
														<pproTicksOut>914609247552000</pproTicksOut>
														<alphatype>none</alphatype>
														<file id="file-322"/>
														<logginginfo>
															<description></description>
															<scene></scene>
															<shottake></shottake>
															<lognote></lognote>
															<good></good>
															<originalvideofilename></originalvideofilename>
															<originalaudiofilename></originalaudiofilename>
														</logginginfo>
														<colorinfo>
															<lut></lut>
															<lut1></lut1>
															<asc_sop></asc_sop>
															<asc_sat></asc_sat>
															<lut2></lut2>
														</colorinfo>
														<labels>
															<label2>Lavender</label2>
														</labels>
													</clipitem>
													<enabled>TRUE</enabled>
													<locked>FALSE</locked>
												</track>
												<track TL.SQTrackShy="0" TL.SQTrackExpandedHeight="25" TL.SQTrackExpanded="0" MZ.TrackTargeted="0">
													<clipitem id="clipitem-748">
														<masterclipid>masterclip-157</masterclipid>
														<name>10 Zoom Out - Right/Quick / Transform Out</name>
														<enabled>TRUE</enabled>
														<duration>1294705</duration>
														<rate>
															<timebase>30</timebase>
															<ntsc>TRUE</ntsc>
														</rate>
														<start>0</start>
														<end>10</end>
														<in>0</in>
														<out>10</out>
														<pproTicksIn>0</pproTicksIn>
														<pproTicksOut>84756672000</pproTicksOut>
														<sequence id="sequence-7"/>
														<filter>
															<effect>
																<name>Opacity</name>
																<effectid>opacity</effectid>
																<effectcategory>motion</effectcategory>
																<effecttype>motion</effecttype>
																<mediatype>video</mediatype>
																<pproBypass>false</pproBypass>
																<parameter authoringApp="PremierePro">
																	<parameterid>opacity</parameterid>
																	<name>opacity</name>
																	<valuemin>0</valuemin>
																	<valuemax>100</valuemax>
																	<value>100</value>
																	<keyframe>
																		<when>0</when>
																		<value>0</value>
																	</keyframe>
																	<keyframe>
																		<when>1</when>
																		<value>100</value>
																	</keyframe>
																</parameter>
															</effect>
														</filter>
															<marker>
																<comment></comment>
																<name></name>
																<in>20</in>
																<out>-1</out>
															</marker>
														<labels>
															<label2>Iris</label2>
														</labels>
													</clipitem>
													<clipitem id="clipitem-749">
														<masterclipid>masterclip-159</masterclipid>
														<name>10 Zoom Out - Right/Quick / Transform In</name>
														<enabled>TRUE</enabled>
														<duration>1294705</duration>
														<rate>
															<timebase>30</timebase>
															<ntsc>TRUE</ntsc>
														</rate>
														<start>10</start>
														<end>19</end>
														<in>0</in>
														<out>9</out>
														<pproTicksIn>0</pproTicksIn>
														<pproTicksOut>76281004800</pproTicksOut>
														<sequence id="sequence-8"/>
														<filter>
															<effect>
																<name>Basic Motion</name>
																<effectid>basic</effectid>
																<effectcategory>motion</effectcategory>
																<effecttype>motion</effecttype>
																<mediatype>video</mediatype>
																<pproBypass>false</pproBypass>
																<parameter authoringApp="PremierePro">
																	<parameterid>scale</parameterid>
																	<name>Scale</name>
																	<valuemin>0</valuemin>
																	<valuemax>1000</valuemax>
																	<value>100</value>
																</parameter>
																<parameter authoringApp="PremierePro">
																	<parameterid>rotation</parameterid>
																	<name>Rotation</name>
																	<valuemin>-8640</valuemin>
																	<valuemax>8640</valuemax>
																	<value>0</value>
																</parameter>
																<parameter authoringApp="PremierePro">
																	<parameterid>center</parameterid>
																	<name>Center</name>
																	<value>
																		<horiz>-0.5</horiz>
																		<vert>-0.499394</vert>
																	</value>
																</parameter>
																<parameter authoringApp="PremierePro">
																	<parameterid>centerOffset</parameterid>
																	<name>Anchor Point</name>
																	<value>
																		<horiz>0</horiz>
																		<vert>-0.00060606</vert>
																	</value>
																</parameter>
																<parameter authoringApp="PremierePro">
																	<parameterid>antiflicker</parameterid>
																	<name>Anti-flicker Filter</name>
																	<valuemin>0.0</valuemin>
																	<valuemax>1.0</valuemax>
																	<value>0</value>
																</parameter>
															</effect>
														</filter>
														<labels>
															<label2>Iris</label2>
														</labels>
													</clipitem>
													<enabled>TRUE</enabled>
													<locked>FALSE</locked>
												</track>
												<track TL.SQTrackShy="0" TL.SQTrackExpandedHeight="25" TL.SQTrackExpanded="0" MZ.TrackTargeted="0">
													<enabled>TRUE</enabled>
													<locked>FALSE</locked>
												</track>
												<track TL.SQTrackShy="0" TL.SQTrackExpandedHeight="25" TL.SQTrackExpanded="0" MZ.TrackTargeted="0">
													<enabled>TRUE</enabled>
													<locked>FALSE</locked>
												</track>
												<track TL.SQTrackShy="0" TL.SQTrackExpandedHeight="25" TL.SQTrackExpanded="0" MZ.TrackTargeted="0">
													<enabled>TRUE</enabled>
													<locked>FALSE</locked>
												</track>
												<track TL.SQTrackShy="0" TL.SQTrackExpandedHeight="25" TL.SQTrackExpanded="0" MZ.TrackTargeted="0">
													<enabled>TRUE</enabled>
													<locked>FALSE</locked>
												</track>
												<track TL.SQTrackShy="0" TL.SQTrackExpandedHeight="25" TL.SQTrackExpanded="0" MZ.TrackTargeted="0">
													<enabled>TRUE</enabled>
													<locked>FALSE</locked>
												</track>
											</video>
											<audio>
												<numOutputChannels>2</numOutputChannels>
												<format>
													<samplecharacteristics>
														<depth>16</depth>
														<samplerate>48000</samplerate>
													</samplecharacteristics>
												</format>
												<outputs>
													<group>
														<index>1</index>
														<numchannels>1</numchannels>
														<downmix>0</downmix>
														<channel>
															<index>1</index>
														</channel>
													</group>
													<group>
														<index>2</index>
														<numchannels>1</numchannels>
														<downmix>0</downmix>
														<channel>
															<index>2</index>
														</channel>
													</group>
												</outputs>
												<track TL.SQTrackAudioKeyframeStyle="0" TL.SQTrackShy="0" TL.SQTrackExpandedHeight="25" TL.SQTrackExpanded="1" MZ.TrackTargeted="1" PannerCurrentValue="0.5" PannerIsInverted="true" PannerStartKeyframe="-91445760000000000,0.5,0,0,0,0,0,0" PannerName="Balance" currentExplodedTrackIndex="0" totalExplodedTrackCount="2" premiereTrackType="Stereo">
													<enabled>TRUE</enabled>
													<locked>FALSE</locked>
													<outputchannelindex>1</outputchannelindex>
												</track>
												<track TL.SQTrackAudioKeyframeStyle="0" TL.SQTrackShy="0" TL.SQTrackExpandedHeight="25" TL.SQTrackExpanded="1" MZ.TrackTargeted="1" PannerCurrentValue="0.5" PannerIsInverted="true" PannerStartKeyframe="-91445760000000000,0.5,0,0,0,0,0,0" PannerName="Balance" currentExplodedTrackIndex="1" totalExplodedTrackCount="2" premiereTrackType="Stereo">
													<enabled>TRUE</enabled>
													<locked>FALSE</locked>
													<outputchannelindex>2</outputchannelindex>
												</track>
												<track TL.SQTrackAudioKeyframeStyle="0" TL.SQTrackShy="0" TL.SQTrackExpandedHeight="25" TL.SQTrackExpanded="1" MZ.TrackTargeted="1" PannerCurrentValue="0.5" PannerIsInverted="true" PannerStartKeyframe="-91445760000000000,0.5,0,0,0,0,0,0" PannerName="Balance" currentExplodedTrackIndex="0" totalExplodedTrackCount="2" premiereTrackType="Stereo">
													<enabled>TRUE</enabled>
													<locked>FALSE</locked>
													<outputchannelindex>1</outputchannelindex>
												</track>
												<track TL.SQTrackAudioKeyframeStyle="0" TL.SQTrackShy="0" TL.SQTrackExpandedHeight="25" TL.SQTrackExpanded="1" MZ.TrackTargeted="1" PannerCurrentValue="0.5" PannerIsInverted="true" PannerStartKeyframe="-91445760000000000,0.5,0,0,0,0,0,0" PannerName="Balance" currentExplodedTrackIndex="1" totalExplodedTrackCount="2" premiereTrackType="Stereo">
													<enabled>TRUE</enabled>
													<locked>FALSE</locked>
													<outputchannelindex>2</outputchannelindex>
												</track>
												<track TL.SQTrackAudioKeyframeStyle="0" TL.SQTrackShy="0" TL.SQTrackExpandedHeight="25" TL.SQTrackExpanded="1" MZ.TrackTargeted="1" PannerCurrentValue="0.5" PannerIsInverted="true" PannerStartKeyframe="-91445760000000000,0.5,0,0,0,0,0,0" PannerName="Balance" currentExplodedTrackIndex="0" totalExplodedTrackCount="2" premiereTrackType="Stereo">
													<enabled>TRUE</enabled>
													<locked>FALSE</locked>
													<outputchannelindex>1</outputchannelindex>
												</track>
												<track TL.SQTrackAudioKeyframeStyle="0" TL.SQTrackShy="0" TL.SQTrackExpandedHeight="25" TL.SQTrackExpanded="1" MZ.TrackTargeted="1" PannerCurrentValue="0.5" PannerIsInverted="true" PannerStartKeyframe="-91445760000000000,0.5,0,0,0,0,0,0" PannerName="Balance" currentExplodedTrackIndex="1" totalExplodedTrackCount="2" premiereTrackType="Stereo">
													<enabled>TRUE</enabled>
													<locked>FALSE</locked>
													<outputchannelindex>2</outputchannelindex>
												</track>
												<track TL.SQTrackAudioKeyframeStyle="0" TL.SQTrackShy="0" TL.SQTrackExpandedHeight="25" TL.SQTrackExpanded="0" MZ.TrackTargeted="0" PannerCurrentValue="0.5" PannerIsInverted="true" PannerStartKeyframe="-91445760000000000,0.5,0,0,0,0,0,0" PannerName="Balance" currentExplodedTrackIndex="0" totalExplodedTrackCount="2" premiereTrackType="Stereo">
													<enabled>TRUE</enabled>
													<locked>FALSE</locked>
													<outputchannelindex>1</outputchannelindex>
												</track>
												<track TL.SQTrackAudioKeyframeStyle="0" TL.SQTrackShy="0" TL.SQTrackExpandedHeight="25" TL.SQTrackExpanded="0" MZ.TrackTargeted="0" PannerCurrentValue="0.5" PannerIsInverted="true" PannerStartKeyframe="-91445760000000000,0.5,0,0,0,0,0,0" PannerName="Balance" currentExplodedTrackIndex="1" totalExplodedTrackCount="2" premiereTrackType="Stereo">
													<enabled>TRUE</enabled>
													<locked>FALSE</locked>
													<outputchannelindex>2</outputchannelindex>
												</track>
											</audio>
										</media>
										<timecode>
											<rate>
												<timebase>30</timebase>
												<ntsc>TRUE</ntsc>
											</rate>
											<string>00;00;00;00</string>
											<frame>0</frame>
											<displayformat>DF</displayformat>
										</timecode>
										<labels>
											<label2>Rose</label2>
										</labels>
										<logginginfo>
											<description></description>
											<scene></scene>
											<shottake></shottake>
											<lognote></lognote>
											<good></good>
											<originalvideofilename></originalvideofilename>
											<originalaudiofilename></originalaudiofilename>
										</logginginfo>
									</sequence>
									<sequence id="sequence-60" TL.SQAudioVisibleBase="0" TL.SQVideoVisibleBase="0" TL.SQVisibleBaseTime="0" TL.SQAVDividerPosition="0.662460565567" TL.SQHideShyTracks="0" TL.SQHeaderWidth="236" Monitor.ProgramZoomOut="254270016000" Monitor.ProgramZoomIn="0" TL.SQTimePerPixel="0.0011122222222222221" MZ.EditLine="313599686400" MZ.Sequence.PreviewFrameSizeHeight="1080" MZ.Sequence.PreviewFrameSizeWidth="1920" MZ.Sequence.AudioTimeDisplayFormat="200" MZ.Sequence.PreviewRenderingClassID="1297106761" MZ.Sequence.PreviewRenderingPresetCodec="1297107278" MZ.Sequence.PreviewRenderingPresetPath="EncoderPresets/SequencePreview/795454d9-d3c2-429d-9474-923ab13b7018/I-Frame Only MPEG.epr" MZ.Sequence.PreviewUseMaxRenderQuality="false" MZ.Sequence.PreviewUseMaxBitDepth="false" MZ.Sequence.EditingModeGUID="795454d9-d3c2-429d-9474-923ab13b7018" MZ.Sequence.VideoTimeDisplayFormat="102" MZ.WorkOutPoint="271221350400" MZ.WorkInPoint="0" explodedTracks="true">
										<uuid>dc2b50b2-b804-4cab-8996-b0f537588e64</uuid>
										<duration>30</duration>
										<rate>
											<timebase>30</timebase>
											<ntsc>TRUE</ntsc>
										</rate>
										<name>11 Zoom in Slow</name>
										<media>
											<video>
												<format>
													<samplecharacteristics>
														<rate>
															<timebase>30</timebase>
															<ntsc>TRUE</ntsc>
														</rate>
														<codec>
															<name>Apple ProRes 422</name>
															<appspecificdata>
																<appname>Final Cut Pro</appname>
																<appmanufacturer>Apple Inc.</appmanufacturer>
																<appversion>7.0</appversion>
																<data>
																	<qtcodec>
																		<codecname>Apple ProRes 422</codecname>
																		<codectypename>Apple ProRes 422</codectypename>
																		<codectypecode>apcn</codectypecode>
																		<codecvendorcode>appl</codecvendorcode>
																		<spatialquality>1024</spatialquality>
																		<temporalquality>0</temporalquality>
																		<keyframerate>0</keyframerate>
																		<datarate>0</datarate>
																	</qtcodec>
																</data>
															</appspecificdata>
														</codec>
														<width>1920</width>
														<height>1080</height>
														<anamorphic>FALSE</anamorphic>
														<pixelaspectratio>square</pixelaspectratio>
														<fielddominance>none</fielddominance>
														<colordepth>24</colordepth>
													</samplecharacteristics>
												</format>
												<track TL.SQTrackShy="0" TL.SQTrackExpandedHeight="25" TL.SQTrackExpanded="0" MZ.TrackTargeted="0">
													<clipitem id="clipitem-750">
														<masterclipid>masterclip-349</masterclipid>
														<name>Picture 01.jpeg</name>
														<enabled>TRUE</enabled>
														<duration>1294705</duration>
														<rate>
															<timebase>30</timebase>
															<ntsc>TRUE</ntsc>
														</rate>
														<start>0</start>
														<end>12</end>
														<in>107886</in>
														<out>107898</out>
														<pproTicksIn>914405831539200</pproTicksIn>
														<pproTicksOut>914507539545600</pproTicksOut>
														<alphatype>none</alphatype>
														<file id="file-321"/>
														<filter>
															<effect>
																<name>Basic Motion</name>
																<effectid>basic</effectid>
																<effectcategory>motion</effectcategory>
																<effecttype>motion</effecttype>
																<mediatype>video</mediatype>
																<pproBypass>false</pproBypass>
																<parameter authoringApp="PremierePro">
																	<parameterid>scale</parameterid>
																	<name>Scale</name>
																	<valuemin>0</valuemin>
																	<valuemax>1000</valuemax>
																	<value>77</value>
																</parameter>
																<parameter authoringApp="PremierePro">
																	<parameterid>rotation</parameterid>
																	<name>Rotation</name>
																	<valuemin>-8640</valuemin>
																	<valuemax>8640</valuemax>
																	<value>0</value>
																</parameter>
																<parameter authoringApp="PremierePro">
																	<parameterid>center</parameterid>
																	<name>Center</name>
																	<value>
																		<horiz>0</horiz>
																		<vert>0</vert>
																	</value>
																</parameter>
																<parameter authoringApp="PremierePro">
																	<parameterid>centerOffset</parameterid>
																	<name>Anchor Point</name>
																	<value>
																		<horiz>0</horiz>
																		<vert>0</vert>
																	</value>
																</parameter>
																<parameter authoringApp="PremierePro">
																	<parameterid>antiflicker</parameterid>
																	<name>Anti-flicker Filter</name>
																	<valuemin>0.0</valuemin>
																	<valuemax>1.0</valuemax>
																	<value>0</value>
																</parameter>
															</effect>
														</filter>
														<logginginfo>
															<description></description>
															<scene></scene>
															<shottake></shottake>
															<lognote></lognote>
															<good></good>
															<originalvideofilename></originalvideofilename>
															<originalaudiofilename></originalaudiofilename>
														</logginginfo>
														<colorinfo>
															<lut></lut>
															<lut1></lut1>
															<asc_sop></asc_sop>
															<asc_sat></asc_sat>
															<lut2></lut2>
														</colorinfo>
														<labels>
															<label2>Lavender</label2>
														</labels>
													</clipitem>
													<clipitem id="clipitem-751">
														<masterclipid>masterclip-350</masterclipid>
														<name>Picture 02.jpg</name>
														<enabled>TRUE</enabled>
														<duration>1294705</duration>
														<rate>
															<timebase>30</timebase>
															<ntsc>TRUE</ntsc>
														</rate>
														<start>12</start>
														<end>30</end>
														<in>107892</in>
														<out>107910</out>
														<pproTicksIn>914456685542400</pproTicksIn>
														<pproTicksOut>914609247552000</pproTicksOut>
														<alphatype>none</alphatype>
														<file id="file-322"/>
														<logginginfo>
															<description></description>
															<scene></scene>
															<shottake></shottake>
															<lognote></lognote>
															<good></good>
															<originalvideofilename></originalvideofilename>
															<originalaudiofilename></originalaudiofilename>
														</logginginfo>
														<colorinfo>
															<lut></lut>
															<lut1></lut1>
															<asc_sop></asc_sop>
															<asc_sat></asc_sat>
															<lut2></lut2>
														</colorinfo>
														<labels>
															<label2>Lavender</label2>
														</labels>
													</clipitem>
													<enabled>TRUE</enabled>
													<locked>FALSE</locked>
												</track>
												<track TL.SQTrackShy="0" TL.SQTrackExpandedHeight="25" TL.SQTrackExpanded="0" MZ.TrackTargeted="0">
													<clipitem id="clipitem-752">
														<masterclipid>masterclip-157</masterclipid>
														<name>11 Zoom in Slow / Transform Out</name>
														<enabled>TRUE</enabled>
														<duration>1294705</duration>
														<rate>
															<timebase>30</timebase>
															<ntsc>TRUE</ntsc>
														</rate>
														<start>0</start>
														<end>12</end>
														<in>0</in>
														<out>12</out>
														<pproTicksIn>0</pproTicksIn>
														<pproTicksOut>101708006400</pproTicksOut>
														<sequence id="sequence-7"/>
															<marker>
																<comment></comment>
																<name></name>
																<in>20</in>
																<out>-1</out>
															</marker>
														<labels>
															<label2>Iris</label2>
														</labels>
													</clipitem>
													<clipitem id="clipitem-753">
														<masterclipid>masterclip-159</masterclipid>
														<name>11 Zoom in Slow / Transform In</name>
														<enabled>TRUE</enabled>
														<duration>1294705</duration>
														<rate>
															<timebase>30</timebase>
															<ntsc>TRUE</ntsc>
														</rate>
														<start>12</start>
														<end>20</end>
														<in>0</in>
														<out>8</out>
														<pproTicksIn>0</pproTicksIn>
														<pproTicksOut>67805337600</pproTicksOut>
														<sequence id="sequence-8"/>
														<labels>
															<label2>Iris</label2>
														</labels>
													</clipitem>
													<enabled>TRUE</enabled>
													<locked>FALSE</locked>
												</track>
												<track TL.SQTrackShy="0" TL.SQTrackExpandedHeight="25" TL.SQTrackExpanded="0" MZ.TrackTargeted="0">
													<enabled>TRUE</enabled>
													<locked>FALSE</locked>
												</track>
												<track TL.SQTrackShy="0" TL.SQTrackExpandedHeight="25" TL.SQTrackExpanded="0" MZ.TrackTargeted="0">
													<enabled>TRUE</enabled>
													<locked>FALSE</locked>
												</track>
												<track TL.SQTrackShy="0" TL.SQTrackExpandedHeight="25" TL.SQTrackExpanded="0" MZ.TrackTargeted="0">
													<enabled>TRUE</enabled>
													<locked>FALSE</locked>
												</track>
												<track TL.SQTrackShy="0" TL.SQTrackExpandedHeight="25" TL.SQTrackExpanded="0" MZ.TrackTargeted="0">
													<enabled>TRUE</enabled>
													<locked>FALSE</locked>
												</track>
												<track TL.SQTrackShy="0" TL.SQTrackExpandedHeight="25" TL.SQTrackExpanded="0" MZ.TrackTargeted="0">
													<enabled>TRUE</enabled>
													<locked>FALSE</locked>
												</track>
											</video>
											<audio>
												<numOutputChannels>2</numOutputChannels>
												<format>
													<samplecharacteristics>
														<depth>16</depth>
														<samplerate>48000</samplerate>
													</samplecharacteristics>
												</format>
												<outputs>
													<group>
														<index>1</index>
														<numchannels>1</numchannels>
														<downmix>0</downmix>
														<channel>
															<index>1</index>
														</channel>
													</group>
													<group>
														<index>2</index>
														<numchannels>1</numchannels>
														<downmix>0</downmix>
														<channel>
															<index>2</index>
														</channel>
													</group>
												</outputs>
												<track TL.SQTrackAudioKeyframeStyle="0" TL.SQTrackShy="0" TL.SQTrackExpandedHeight="25" TL.SQTrackExpanded="1" MZ.TrackTargeted="1" PannerCurrentValue="0.5" PannerIsInverted="true" PannerStartKeyframe="-91445760000000000,0.5,0,0,0,0,0,0" PannerName="Balance" currentExplodedTrackIndex="0" totalExplodedTrackCount="2" premiereTrackType="Stereo">
													<enabled>TRUE</enabled>
													<locked>FALSE</locked>
													<outputchannelindex>1</outputchannelindex>
												</track>
												<track TL.SQTrackAudioKeyframeStyle="0" TL.SQTrackShy="0" TL.SQTrackExpandedHeight="25" TL.SQTrackExpanded="1" MZ.TrackTargeted="1" PannerCurrentValue="0.5" PannerIsInverted="true" PannerStartKeyframe="-91445760000000000,0.5,0,0,0,0,0,0" PannerName="Balance" currentExplodedTrackIndex="1" totalExplodedTrackCount="2" premiereTrackType="Stereo">
													<enabled>TRUE</enabled>
													<locked>FALSE</locked>
													<outputchannelindex>2</outputchannelindex>
												</track>
												<track TL.SQTrackAudioKeyframeStyle="0" TL.SQTrackShy="0" TL.SQTrackExpandedHeight="25" TL.SQTrackExpanded="1" MZ.TrackTargeted="1" PannerCurrentValue="0.5" PannerIsInverted="true" PannerStartKeyframe="-91445760000000000,0.5,0,0,0,0,0,0" PannerName="Balance" currentExplodedTrackIndex="0" totalExplodedTrackCount="2" premiereTrackType="Stereo">
													<enabled>TRUE</enabled>
													<locked>FALSE</locked>
													<outputchannelindex>1</outputchannelindex>
												</track>
												<track TL.SQTrackAudioKeyframeStyle="0" TL.SQTrackShy="0" TL.SQTrackExpandedHeight="25" TL.SQTrackExpanded="1" MZ.TrackTargeted="1" PannerCurrentValue="0.5" PannerIsInverted="true" PannerStartKeyframe="-91445760000000000,0.5,0,0,0,0,0,0" PannerName="Balance" currentExplodedTrackIndex="1" totalExplodedTrackCount="2" premiereTrackType="Stereo">
													<enabled>TRUE</enabled>
													<locked>FALSE</locked>
													<outputchannelindex>2</outputchannelindex>
												</track>
												<track TL.SQTrackAudioKeyframeStyle="0" TL.SQTrackShy="0" TL.SQTrackExpandedHeight="25" TL.SQTrackExpanded="1" MZ.TrackTargeted="1" PannerCurrentValue="0.5" PannerIsInverted="true" PannerStartKeyframe="-91445760000000000,0.5,0,0,0,0,0,0" PannerName="Balance" currentExplodedTrackIndex="0" totalExplodedTrackCount="2" premiereTrackType="Stereo">
													<enabled>TRUE</enabled>
													<locked>FALSE</locked>
													<outputchannelindex>1</outputchannelindex>
												</track>
												<track TL.SQTrackAudioKeyframeStyle="0" TL.SQTrackShy="0" TL.SQTrackExpandedHeight="25" TL.SQTrackExpanded="1" MZ.TrackTargeted="1" PannerCurrentValue="0.5" PannerIsInverted="true" PannerStartKeyframe="-91445760000000000,0.5,0,0,0,0,0,0" PannerName="Balance" currentExplodedTrackIndex="1" totalExplodedTrackCount="2" premiereTrackType="Stereo">
													<enabled>TRUE</enabled>
													<locked>FALSE</locked>
													<outputchannelindex>2</outputchannelindex>
												</track>
												<track TL.SQTrackAudioKeyframeStyle="0" TL.SQTrackShy="0" TL.SQTrackExpandedHeight="25" TL.SQTrackExpanded="0" MZ.TrackTargeted="0" PannerCurrentValue="0.5" PannerIsInverted="true" PannerStartKeyframe="-91445760000000000,0.5,0,0,0,0,0,0" PannerName="Balance" currentExplodedTrackIndex="0" totalExplodedTrackCount="2" premiereTrackType="Stereo">
													<enabled>TRUE</enabled>
													<locked>FALSE</locked>
													<outputchannelindex>1</outputchannelindex>
												</track>
												<track TL.SQTrackAudioKeyframeStyle="0" TL.SQTrackShy="0" TL.SQTrackExpandedHeight="25" TL.SQTrackExpanded="0" MZ.TrackTargeted="0" PannerCurrentValue="0.5" PannerIsInverted="true" PannerStartKeyframe="-91445760000000000,0.5,0,0,0,0,0,0" PannerName="Balance" currentExplodedTrackIndex="1" totalExplodedTrackCount="2" premiereTrackType="Stereo">
													<enabled>TRUE</enabled>
													<locked>FALSE</locked>
													<outputchannelindex>2</outputchannelindex>
												</track>
											</audio>
										</media>
										<timecode>
											<rate>
												<timebase>30</timebase>
												<ntsc>TRUE</ntsc>
											</rate>
											<string>00;00;00;00</string>
											<frame>0</frame>
											<displayformat>DF</displayformat>
										</timecode>
										<labels>
											<label2>Rose</label2>
										</labels>
										<logginginfo>
											<description></description>
											<scene></scene>
											<shottake></shottake>
											<lognote></lognote>
											<good></good>
											<originalvideofilename></originalvideofilename>
											<originalaudiofilename></originalaudiofilename>
										</logginginfo>
									</sequence>
									<sequence id="sequence-61" TL.SQAudioVisibleBase="0" TL.SQVideoVisibleBase="0" TL.SQVisibleBaseTime="0" TL.SQAVDividerPosition="0.662460565567" TL.SQHideShyTracks="0" TL.SQHeaderWidth="236" Monitor.ProgramZoomOut="237318681600" Monitor.ProgramZoomIn="0" TL.SQTimePerPixel="0.0011122222222222221" MZ.EditLine="271221350400" MZ.Sequence.PreviewFrameSizeHeight="1080" MZ.Sequence.PreviewFrameSizeWidth="1920" MZ.Sequence.AudioTimeDisplayFormat="200" MZ.Sequence.PreviewRenderingClassID="1297106761" MZ.Sequence.PreviewRenderingPresetCodec="1297107278" MZ.Sequence.PreviewRenderingPresetPath="EncoderPresets/SequencePreview/795454d9-d3c2-429d-9474-923ab13b7018/I-Frame Only MPEG.epr" MZ.Sequence.PreviewUseMaxRenderQuality="false" MZ.Sequence.PreviewUseMaxBitDepth="false" MZ.Sequence.EditingModeGUID="795454d9-d3c2-429d-9474-923ab13b7018" MZ.Sequence.VideoTimeDisplayFormat="102" MZ.WorkOutPoint="271221350400" MZ.WorkInPoint="0" explodedTracks="true">
										<uuid>b51bd7c2-2787-4610-94fd-6eaedc84ef52</uuid>
										<duration>28</duration>
										<rate>
											<timebase>30</timebase>
											<ntsc>TRUE</ntsc>
										</rate>
										<name>12 Zoom Out - left - Quick</name>
										<media>
											<video>
												<format>
													<samplecharacteristics>
														<rate>
															<timebase>30</timebase>
															<ntsc>TRUE</ntsc>
														</rate>
														<codec>
															<name>Apple ProRes 422</name>
															<appspecificdata>
																<appname>Final Cut Pro</appname>
																<appmanufacturer>Apple Inc.</appmanufacturer>
																<appversion>7.0</appversion>
																<data>
																	<qtcodec>
																		<codecname>Apple ProRes 422</codecname>
																		<codectypename>Apple ProRes 422</codectypename>
																		<codectypecode>apcn</codectypecode>
																		<codecvendorcode>appl</codecvendorcode>
																		<spatialquality>1024</spatialquality>
																		<temporalquality>0</temporalquality>
																		<keyframerate>0</keyframerate>
																		<datarate>0</datarate>
																	</qtcodec>
																</data>
															</appspecificdata>
														</codec>
														<width>1920</width>
														<height>1080</height>
														<anamorphic>FALSE</anamorphic>
														<pixelaspectratio>square</pixelaspectratio>
														<fielddominance>none</fielddominance>
														<colordepth>24</colordepth>
													</samplecharacteristics>
												</format>
												<track TL.SQTrackShy="0" TL.SQTrackExpandedHeight="25" TL.SQTrackExpanded="0" MZ.TrackTargeted="0">
													<clipitem id="clipitem-754">
														<masterclipid>masterclip-349</masterclipid>
														<name>Picture 01.jpeg</name>
														<enabled>TRUE</enabled>
														<duration>1294705</duration>
														<rate>
															<timebase>30</timebase>
															<ntsc>TRUE</ntsc>
														</rate>
														<start>0</start>
														<end>10</end>
														<in>107886</in>
														<out>107896</out>
														<pproTicksIn>914405831539200</pproTicksIn>
														<pproTicksOut>914490588211200</pproTicksOut>
														<alphatype>none</alphatype>
														<file id="file-321"/>
														<filter>
															<effect>
																<name>Basic Motion</name>
																<effectid>basic</effectid>
																<effectcategory>motion</effectcategory>
																<effecttype>motion</effecttype>
																<mediatype>video</mediatype>
																<pproBypass>false</pproBypass>
																<parameter authoringApp="PremierePro">
																	<parameterid>scale</parameterid>
																	<name>Scale</name>
																	<valuemin>0</valuemin>
																	<valuemax>1000</valuemax>
																	<value>77</value>
																</parameter>
																<parameter authoringApp="PremierePro">
																	<parameterid>rotation</parameterid>
																	<name>Rotation</name>
																	<valuemin>-8640</valuemin>
																	<valuemax>8640</valuemax>
																	<value>0</value>
																</parameter>
																<parameter authoringApp="PremierePro">
																	<parameterid>center</parameterid>
																	<name>Center</name>
																	<value>
																		<horiz>0</horiz>
																		<vert>0</vert>
																	</value>
																</parameter>
																<parameter authoringApp="PremierePro">
																	<parameterid>centerOffset</parameterid>
																	<name>Anchor Point</name>
																	<value>
																		<horiz>0</horiz>
																		<vert>0</vert>
																	</value>
																</parameter>
																<parameter authoringApp="PremierePro">
																	<parameterid>antiflicker</parameterid>
																	<name>Anti-flicker Filter</name>
																	<valuemin>0.0</valuemin>
																	<valuemax>1.0</valuemax>
																	<value>0</value>
																</parameter>
															</effect>
														</filter>
														<logginginfo>
															<description></description>
															<scene></scene>
															<shottake></shottake>
															<lognote></lognote>
															<good></good>
															<originalvideofilename></originalvideofilename>
															<originalaudiofilename></originalaudiofilename>
														</logginginfo>
														<colorinfo>
															<lut></lut>
															<lut1></lut1>
															<asc_sop></asc_sop>
															<asc_sat></asc_sat>
															<lut2></lut2>
														</colorinfo>
														<labels>
															<label2>Lavender</label2>
														</labels>
													</clipitem>
													<clipitem id="clipitem-755">
														<masterclipid>masterclip-350</masterclipid>
														<name>Picture 02.jpg</name>
														<enabled>TRUE</enabled>
														<duration>1294705</duration>
														<rate>
															<timebase>30</timebase>
															<ntsc>TRUE</ntsc>
														</rate>
														<start>10</start>
														<end>28</end>
														<in>107892</in>
														<out>107910</out>
														<pproTicksIn>914456685542400</pproTicksIn>
														<pproTicksOut>914609247552000</pproTicksOut>
														<alphatype>none</alphatype>
														<file id="file-322"/>
														<logginginfo>
															<description></description>
															<scene></scene>
															<shottake></shottake>
															<lognote></lognote>
															<good></good>
															<originalvideofilename></originalvideofilename>
															<originalaudiofilename></originalaudiofilename>
														</logginginfo>
														<colorinfo>
															<lut></lut>
															<lut1></lut1>
															<asc_sop></asc_sop>
															<asc_sat></asc_sat>
															<lut2></lut2>
														</colorinfo>
														<labels>
															<label2>Lavender</label2>
														</labels>
													</clipitem>
													<enabled>TRUE</enabled>
													<locked>FALSE</locked>
												</track>
												<track TL.SQTrackShy="0" TL.SQTrackExpandedHeight="25" TL.SQTrackExpanded="0" MZ.TrackTargeted="0">
													<clipitem id="clipitem-756">
														<masterclipid>masterclip-157</masterclipid>
														<name>12 Zoom Out - left - Quick / Transform Out</name>
														<enabled>TRUE</enabled>
														<duration>1294705</duration>
														<rate>
															<timebase>30</timebase>
															<ntsc>TRUE</ntsc>
														</rate>
														<start>0</start>
														<end>10</end>
														<in>0</in>
														<out>10</out>
														<pproTicksIn>0</pproTicksIn>
														<pproTicksOut>84756672000</pproTicksOut>
														<sequence id="sequence-7"/>
														<filter>
															<effect>
																<name>Opacity</name>
																<effectid>opacity</effectid>
																<effectcategory>motion</effectcategory>
																<effecttype>motion</effecttype>
																<mediatype>video</mediatype>
																<pproBypass>false</pproBypass>
																<parameter authoringApp="PremierePro">
																	<parameterid>opacity</parameterid>
																	<name>opacity</name>
																	<valuemin>0</valuemin>
																	<valuemax>100</valuemax>
																	<value>100</value>
																	<keyframe>
																		<when>0</when>
																		<value>0</value>
																	</keyframe>
																	<keyframe>
																		<when>1</when>
																		<value>100</value>
																	</keyframe>
																</parameter>
															</effect>
														</filter>
															<marker>
																<comment></comment>
																<name></name>
																<in>20</in>
																<out>-1</out>
															</marker>
														<labels>
															<label2>Iris</label2>
														</labels>
													</clipitem>
													<clipitem id="clipitem-757">
														<masterclipid>masterclip-159</masterclipid>
														<name>12 Zoom Out - left - Quick / Transform In</name>
														<enabled>TRUE</enabled>
														<duration>1294705</duration>
														<rate>
															<timebase>30</timebase>
															<ntsc>TRUE</ntsc>
														</rate>
														<start>10</start>
														<end>19</end>
														<in>0</in>
														<out>9</out>
														<pproTicksIn>0</pproTicksIn>
														<pproTicksOut>76281004800</pproTicksOut>
														<sequence id="sequence-8"/>
														<filter>
															<effect>
																<name>Basic Motion</name>
																<effectid>basic</effectid>
																<effectcategory>motion</effectcategory>
																<effecttype>motion</effecttype>
																<mediatype>video</mediatype>
																<pproBypass>false</pproBypass>
																<parameter authoringApp="PremierePro">
																	<parameterid>scale</parameterid>
																	<name>Scale</name>
																	<valuemin>0</valuemin>
																	<valuemax>1000</valuemax>
																	<value>100</value>
																</parameter>
																<parameter authoringApp="PremierePro">
																	<parameterid>rotation</parameterid>
																	<name>Rotation</name>
																	<valuemin>-8640</valuemin>
																	<valuemax>8640</valuemax>
																	<value>0</value>
																</parameter>
																<parameter authoringApp="PremierePro">
																	<parameterid>center</parameterid>
																	<name>Center</name>
																	<value>
																		<horiz>-0.5</horiz>
																		<vert>-0.499394</vert>
																	</value>
																</parameter>
																<parameter authoringApp="PremierePro">
																	<parameterid>centerOffset</parameterid>
																	<name>Anchor Point</name>
																	<value>
																		<horiz>0</horiz>
																		<vert>-0.00060606</vert>
																	</value>
																</parameter>
																<parameter authoringApp="PremierePro">
																	<parameterid>antiflicker</parameterid>
																	<name>Anti-flicker Filter</name>
																	<valuemin>0.0</valuemin>
																	<valuemax>1.0</valuemax>
																	<value>0</value>
																</parameter>
															</effect>
														</filter>
														<labels>
															<label2>Iris</label2>
														</labels>
													</clipitem>
													<enabled>TRUE</enabled>
													<locked>FALSE</locked>
												</track>
												<track TL.SQTrackShy="0" TL.SQTrackExpandedHeight="25" TL.SQTrackExpanded="0" MZ.TrackTargeted="0">
													<enabled>TRUE</enabled>
													<locked>FALSE</locked>
												</track>
												<track TL.SQTrackShy="0" TL.SQTrackExpandedHeight="25" TL.SQTrackExpanded="0" MZ.TrackTargeted="0">
													<enabled>TRUE</enabled>
													<locked>FALSE</locked>
												</track>
												<track TL.SQTrackShy="0" TL.SQTrackExpandedHeight="25" TL.SQTrackExpanded="0" MZ.TrackTargeted="0">
													<enabled>TRUE</enabled>
													<locked>FALSE</locked>
												</track>
												<track TL.SQTrackShy="0" TL.SQTrackExpandedHeight="25" TL.SQTrackExpanded="0" MZ.TrackTargeted="0">
													<enabled>TRUE</enabled>
													<locked>FALSE</locked>
												</track>
												<track TL.SQTrackShy="0" TL.SQTrackExpandedHeight="25" TL.SQTrackExpanded="0" MZ.TrackTargeted="0">
													<enabled>TRUE</enabled>
													<locked>FALSE</locked>
												</track>
											</video>
											<audio>
												<numOutputChannels>2</numOutputChannels>
												<format>
													<samplecharacteristics>
														<depth>16</depth>
														<samplerate>48000</samplerate>
													</samplecharacteristics>
												</format>
												<outputs>
													<group>
														<index>1</index>
														<numchannels>1</numchannels>
														<downmix>0</downmix>
														<channel>
															<index>1</index>
														</channel>
													</group>
													<group>
														<index>2</index>
														<numchannels>1</numchannels>
														<downmix>0</downmix>
														<channel>
															<index>2</index>
														</channel>
													</group>
												</outputs>
												<track TL.SQTrackAudioKeyframeStyle="0" TL.SQTrackShy="0" TL.SQTrackExpandedHeight="25" TL.SQTrackExpanded="1" MZ.TrackTargeted="1" PannerCurrentValue="0.5" PannerIsInverted="true" PannerStartKeyframe="-91445760000000000,0.5,0,0,0,0,0,0" PannerName="Balance" currentExplodedTrackIndex="0" totalExplodedTrackCount="2" premiereTrackType="Stereo">
													<enabled>TRUE</enabled>
													<locked>FALSE</locked>
													<outputchannelindex>1</outputchannelindex>
												</track>
												<track TL.SQTrackAudioKeyframeStyle="0" TL.SQTrackShy="0" TL.SQTrackExpandedHeight="25" TL.SQTrackExpanded="1" MZ.TrackTargeted="1" PannerCurrentValue="0.5" PannerIsInverted="true" PannerStartKeyframe="-91445760000000000,0.5,0,0,0,0,0,0" PannerName="Balance" currentExplodedTrackIndex="1" totalExplodedTrackCount="2" premiereTrackType="Stereo">
													<enabled>TRUE</enabled>
													<locked>FALSE</locked>
													<outputchannelindex>2</outputchannelindex>
												</track>
												<track TL.SQTrackAudioKeyframeStyle="0" TL.SQTrackShy="0" TL.SQTrackExpandedHeight="25" TL.SQTrackExpanded="1" MZ.TrackTargeted="1" PannerCurrentValue="0.5" PannerIsInverted="true" PannerStartKeyframe="-91445760000000000,0.5,0,0,0,0,0,0" PannerName="Balance" currentExplodedTrackIndex="0" totalExplodedTrackCount="2" premiereTrackType="Stereo">
													<enabled>TRUE</enabled>
													<locked>FALSE</locked>
													<outputchannelindex>1</outputchannelindex>
												</track>
												<track TL.SQTrackAudioKeyframeStyle="0" TL.SQTrackShy="0" TL.SQTrackExpandedHeight="25" TL.SQTrackExpanded="1" MZ.TrackTargeted="1" PannerCurrentValue="0.5" PannerIsInverted="true" PannerStartKeyframe="-91445760000000000,0.5,0,0,0,0,0,0" PannerName="Balance" currentExplodedTrackIndex="1" totalExplodedTrackCount="2" premiereTrackType="Stereo">
													<enabled>TRUE</enabled>
													<locked>FALSE</locked>
													<outputchannelindex>2</outputchannelindex>
												</track>
												<track TL.SQTrackAudioKeyframeStyle="0" TL.SQTrackShy="0" TL.SQTrackExpandedHeight="25" TL.SQTrackExpanded="1" MZ.TrackTargeted="1" PannerCurrentValue="0.5" PannerIsInverted="true" PannerStartKeyframe="-91445760000000000,0.5,0,0,0,0,0,0" PannerName="Balance" currentExplodedTrackIndex="0" totalExplodedTrackCount="2" premiereTrackType="Stereo">
													<enabled>TRUE</enabled>
													<locked>FALSE</locked>
													<outputchannelindex>1</outputchannelindex>
												</track>
												<track TL.SQTrackAudioKeyframeStyle="0" TL.SQTrackShy="0" TL.SQTrackExpandedHeight="25" TL.SQTrackExpanded="1" MZ.TrackTargeted="1" PannerCurrentValue="0.5" PannerIsInverted="true" PannerStartKeyframe="-91445760000000000,0.5,0,0,0,0,0,0" PannerName="Balance" currentExplodedTrackIndex="1" totalExplodedTrackCount="2" premiereTrackType="Stereo">
													<enabled>TRUE</enabled>
													<locked>FALSE</locked>
													<outputchannelindex>2</outputchannelindex>
												</track>
												<track TL.SQTrackAudioKeyframeStyle="0" TL.SQTrackShy="0" TL.SQTrackExpandedHeight="25" TL.SQTrackExpanded="0" MZ.TrackTargeted="0" PannerCurrentValue="0.5" PannerIsInverted="true" PannerStartKeyframe="-91445760000000000,0.5,0,0,0,0,0,0" PannerName="Balance" currentExplodedTrackIndex="0" totalExplodedTrackCount="2" premiereTrackType="Stereo">
													<enabled>TRUE</enabled>
													<locked>FALSE</locked>
													<outputchannelindex>1</outputchannelindex>
												</track>
												<track TL.SQTrackAudioKeyframeStyle="0" TL.SQTrackShy="0" TL.SQTrackExpandedHeight="25" TL.SQTrackExpanded="0" MZ.TrackTargeted="0" PannerCurrentValue="0.5" PannerIsInverted="true" PannerStartKeyframe="-91445760000000000,0.5,0,0,0,0,0,0" PannerName="Balance" currentExplodedTrackIndex="1" totalExplodedTrackCount="2" premiereTrackType="Stereo">
													<enabled>TRUE</enabled>
													<locked>FALSE</locked>
													<outputchannelindex>2</outputchannelindex>
												</track>
											</audio>
										</media>
										<timecode>
											<rate>
												<timebase>30</timebase>
												<ntsc>TRUE</ntsc>
											</rate>
											<string>00;00;00;00</string>
											<frame>0</frame>
											<displayformat>DF</displayformat>
										</timecode>
										<labels>
											<label2>Rose</label2>
										</labels>
										<logginginfo>
											<description></description>
											<scene></scene>
											<shottake></shottake>
											<lognote></lognote>
											<good></good>
											<originalvideofilename></originalvideofilename>
											<originalaudiofilename></originalaudiofilename>
										</logginginfo>
									</sequence>
								</children>
							</bin>
							<bin>
								<name>25fps Raw</name>
								<labels>
									<label2>Mango</label2>
								</labels>
								<children>
									<clip id="masterclip-347" explodedTracks="true">
										<uuid>6aa0c59f-a563-4e16-90be-1ecf1bd2000e</uuid>
										<masterclipid>masterclip-347</masterclipid>
										<ismasterclip>TRUE</ismasterclip>
										<duration>248</duration>
										<rate>
											<timebase>30</timebase>
											<ntsc>TRUE</ntsc>
										</rate>
										<name>ATM_DRONE_TRANS_A.mov</name>
										<media>
											<video>
												<track>
													<clipitem id="clipitem-758">
														<masterclipid>masterclip-347</masterclipid>
														<name>ATM_DRONE_TRANS_A.mov</name>
														<rate>
															<timebase>30</timebase>
															<ntsc>TRUE</ntsc>
														</rate>
														<alphatype>straight</alphatype>
														<file id="file-319"/>
														<link>
															<linkclipref>clipitem-758</linkclipref>
															<mediatype>video</mediatype>
															<trackindex>1</trackindex>
															<clipindex>1</clipindex>
														</link>
														<link>
															<linkclipref>clipitem-759</linkclipref>
															<mediatype>audio</mediatype>
															<trackindex>1</trackindex>
															<clipindex>1</clipindex>
															<groupindex>1</groupindex>
														</link>
														<link>
															<linkclipref>clipitem-760</linkclipref>
															<mediatype>audio</mediatype>
															<trackindex>2</trackindex>
															<clipindex>1</clipindex>
															<groupindex>1</groupindex>
														</link>
													</clipitem>
												</track>
											</video>
											<audio>
												<track>
													<clipitem id="clipitem-759">
														<masterclipid>masterclip-347</masterclipid>
														<name>ATM_DRONE_TRANS_A.mov</name>
														<rate>
															<timebase>30</timebase>
															<ntsc>TRUE</ntsc>
														</rate>
														<file id="file-319"/>
														<sourcetrack>
															<mediatype>audio</mediatype>
															<trackindex>1</trackindex>
														</sourcetrack>
														<link>
															<linkclipref>clipitem-758</linkclipref>
															<mediatype>video</mediatype>
															<trackindex>1</trackindex>
															<clipindex>1</clipindex>
														</link>
														<link>
															<linkclipref>clipitem-759</linkclipref>
															<mediatype>audio</mediatype>
															<trackindex>1</trackindex>
															<clipindex>1</clipindex>
															<groupindex>1</groupindex>
														</link>
														<link>
															<linkclipref>clipitem-760</linkclipref>
															<mediatype>audio</mediatype>
															<trackindex>2</trackindex>
															<clipindex>1</clipindex>
															<groupindex>1</groupindex>
														</link>
													</clipitem>
												</track>
												<track>
													<clipitem id="clipitem-760">
														<masterclipid>masterclip-347</masterclipid>
														<name>ATM_DRONE_TRANS_A.mov</name>
														<rate>
															<timebase>30</timebase>
															<ntsc>TRUE</ntsc>
														</rate>
														<file id="file-319"/>
														<sourcetrack>
															<mediatype>audio</mediatype>
															<trackindex>2</trackindex>
														</sourcetrack>
														<link>
															<linkclipref>clipitem-758</linkclipref>
															<mediatype>video</mediatype>
															<trackindex>1</trackindex>
															<clipindex>1</clipindex>
														</link>
														<link>
															<linkclipref>clipitem-759</linkclipref>
															<mediatype>audio</mediatype>
															<trackindex>1</trackindex>
															<clipindex>1</clipindex>
															<groupindex>1</groupindex>
														</link>
														<link>
															<linkclipref>clipitem-760</linkclipref>
															<mediatype>audio</mediatype>
															<trackindex>2</trackindex>
															<clipindex>1</clipindex>
															<groupindex>1</groupindex>
														</link>
													</clipitem>
												</track>
											</audio>
										</media>
										<logginginfo>
											<description></description>
											<scene></scene>
											<shottake></shottake>
											<lognote></lognote>
											<good></good>
											<originalvideofilename></originalvideofilename>
											<originalaudiofilename></originalaudiofilename>
										</logginginfo>
										<colorinfo>
											<lut></lut>
											<lut1></lut1>
											<asc_sop></asc_sop>
											<asc_sat></asc_sat>
											<lut2></lut2>
										</colorinfo>
										<labels>
											<label2>Iris</label2>
										</labels>
									</clip>
									<clip id="masterclip-346" explodedTracks="true">
										<uuid>d519e7c5-8db2-49b3-ac25-6ade68cdf10d</uuid>
										<masterclipid>masterclip-346</masterclipid>
										<ismasterclip>TRUE</ismasterclip>
										<duration>155</duration>
										<rate>
											<timebase>30</timebase>
											<ntsc>TRUE</ntsc>
										</rate>
										<name>ATM_DRONE_TRANS_B.mov</name>
										<media>
											<video>
												<track>
													<clipitem id="clipitem-761">
														<masterclipid>masterclip-346</masterclipid>
														<name>ATM_DRONE_TRANS_B.mov</name>
														<rate>
															<timebase>30</timebase>
															<ntsc>TRUE</ntsc>
														</rate>
														<alphatype>straight</alphatype>
														<file id="file-318"/>
														<link>
															<linkclipref>clipitem-761</linkclipref>
															<mediatype>video</mediatype>
															<trackindex>1</trackindex>
															<clipindex>1</clipindex>
														</link>
														<link>
															<linkclipref>clipitem-762</linkclipref>
															<mediatype>audio</mediatype>
															<trackindex>1</trackindex>
															<clipindex>1</clipindex>
															<groupindex>1</groupindex>
														</link>
														<link>
															<linkclipref>clipitem-763</linkclipref>
															<mediatype>audio</mediatype>
															<trackindex>2</trackindex>
															<clipindex>1</clipindex>
															<groupindex>1</groupindex>
														</link>
													</clipitem>
												</track>
											</video>
											<audio>
												<track>
													<clipitem id="clipitem-762">
														<masterclipid>masterclip-346</masterclipid>
														<name>ATM_DRONE_TRANS_B.mov</name>
														<rate>
															<timebase>30</timebase>
															<ntsc>TRUE</ntsc>
														</rate>
														<file id="file-318"/>
														<sourcetrack>
															<mediatype>audio</mediatype>
															<trackindex>1</trackindex>
														</sourcetrack>
														<link>
															<linkclipref>clipitem-761</linkclipref>
															<mediatype>video</mediatype>
															<trackindex>1</trackindex>
															<clipindex>1</clipindex>
														</link>
														<link>
															<linkclipref>clipitem-762</linkclipref>
															<mediatype>audio</mediatype>
															<trackindex>1</trackindex>
															<clipindex>1</clipindex>
															<groupindex>1</groupindex>
														</link>
														<link>
															<linkclipref>clipitem-763</linkclipref>
															<mediatype>audio</mediatype>
															<trackindex>2</trackindex>
															<clipindex>1</clipindex>
															<groupindex>1</groupindex>
														</link>
													</clipitem>
												</track>
												<track>
													<clipitem id="clipitem-763">
														<masterclipid>masterclip-346</masterclipid>
														<name>ATM_DRONE_TRANS_B.mov</name>
														<rate>
															<timebase>30</timebase>
															<ntsc>TRUE</ntsc>
														</rate>
														<file id="file-318"/>
														<sourcetrack>
															<mediatype>audio</mediatype>
															<trackindex>2</trackindex>
														</sourcetrack>
														<link>
															<linkclipref>clipitem-761</linkclipref>
															<mediatype>video</mediatype>
															<trackindex>1</trackindex>
															<clipindex>1</clipindex>
														</link>
														<link>
															<linkclipref>clipitem-762</linkclipref>
															<mediatype>audio</mediatype>
															<trackindex>1</trackindex>
															<clipindex>1</clipindex>
															<groupindex>1</groupindex>
														</link>
														<link>
															<linkclipref>clipitem-763</linkclipref>
															<mediatype>audio</mediatype>
															<trackindex>2</trackindex>
															<clipindex>1</clipindex>
															<groupindex>1</groupindex>
														</link>
													</clipitem>
												</track>
											</audio>
										</media>
										<logginginfo>
											<description></description>
											<scene></scene>
											<shottake></shottake>
											<lognote></lognote>
											<good></good>
											<originalvideofilename></originalvideofilename>
											<originalaudiofilename></originalaudiofilename>
										</logginginfo>
										<colorinfo>
											<lut></lut>
											<lut1></lut1>
											<asc_sop></asc_sop>
											<asc_sat></asc_sat>
											<lut2></lut2>
										</colorinfo>
										<labels>
											<label2>Iris</label2>
										</labels>
									</clip>
									<clip id="masterclip-345" explodedTracks="true">
										<uuid>986ef96c-2ae2-472f-856c-309f0e8936c8</uuid>
										<masterclipid>masterclip-345</masterclipid>
										<ismasterclip>TRUE</ismasterclip>
										<duration>240</duration>
										<rate>
											<timebase>30</timebase>
											<ntsc>TRUE</ntsc>
										</rate>
										<name>ATM_DRONE_TRANS_C.mov</name>
										<media>
											<video>
												<track>
													<clipitem id="clipitem-764">
														<masterclipid>masterclip-345</masterclipid>
														<name>ATM_DRONE_TRANS_C.mov</name>
														<rate>
															<timebase>30</timebase>
															<ntsc>TRUE</ntsc>
														</rate>
														<alphatype>straight</alphatype>
														<file id="file-317"/>
														<link>
															<linkclipref>clipitem-764</linkclipref>
															<mediatype>video</mediatype>
															<trackindex>1</trackindex>
															<clipindex>1</clipindex>
														</link>
														<link>
															<linkclipref>clipitem-765</linkclipref>
															<mediatype>audio</mediatype>
															<trackindex>1</trackindex>
															<clipindex>1</clipindex>
															<groupindex>1</groupindex>
														</link>
														<link>
															<linkclipref>clipitem-766</linkclipref>
															<mediatype>audio</mediatype>
															<trackindex>2</trackindex>
															<clipindex>1</clipindex>
															<groupindex>1</groupindex>
														</link>
													</clipitem>
												</track>
											</video>
											<audio>
												<track>
													<clipitem id="clipitem-765">
														<masterclipid>masterclip-345</masterclipid>
														<name>ATM_DRONE_TRANS_C.mov</name>
														<rate>
															<timebase>30</timebase>
															<ntsc>TRUE</ntsc>
														</rate>
														<file id="file-317"/>
														<sourcetrack>
															<mediatype>audio</mediatype>
															<trackindex>1</trackindex>
														</sourcetrack>
														<link>
															<linkclipref>clipitem-764</linkclipref>
															<mediatype>video</mediatype>
															<trackindex>1</trackindex>
															<clipindex>1</clipindex>
														</link>
														<link>
															<linkclipref>clipitem-765</linkclipref>
															<mediatype>audio</mediatype>
															<trackindex>1</trackindex>
															<clipindex>1</clipindex>
															<groupindex>1</groupindex>
														</link>
														<link>
															<linkclipref>clipitem-766</linkclipref>
															<mediatype>audio</mediatype>
															<trackindex>2</trackindex>
															<clipindex>1</clipindex>
															<groupindex>1</groupindex>
														</link>
													</clipitem>
												</track>
												<track>
													<clipitem id="clipitem-766">
														<masterclipid>masterclip-345</masterclipid>
														<name>ATM_DRONE_TRANS_C.mov</name>
														<rate>
															<timebase>30</timebase>
															<ntsc>TRUE</ntsc>
														</rate>
														<file id="file-317"/>
														<sourcetrack>
															<mediatype>audio</mediatype>
															<trackindex>2</trackindex>
														</sourcetrack>
														<link>
															<linkclipref>clipitem-764</linkclipref>
															<mediatype>video</mediatype>
															<trackindex>1</trackindex>
															<clipindex>1</clipindex>
														</link>
														<link>
															<linkclipref>clipitem-765</linkclipref>
															<mediatype>audio</mediatype>
															<trackindex>1</trackindex>
															<clipindex>1</clipindex>
															<groupindex>1</groupindex>
														</link>
														<link>
															<linkclipref>clipitem-766</linkclipref>
															<mediatype>audio</mediatype>
															<trackindex>2</trackindex>
															<clipindex>1</clipindex>
															<groupindex>1</groupindex>
														</link>
													</clipitem>
												</track>
											</audio>
										</media>
										<logginginfo>
											<description></description>
											<scene></scene>
											<shottake></shottake>
											<lognote></lognote>
											<good></good>
											<originalvideofilename></originalvideofilename>
											<originalaudiofilename></originalaudiofilename>
										</logginginfo>
										<colorinfo>
											<lut></lut>
											<lut1></lut1>
											<asc_sop></asc_sop>
											<asc_sat></asc_sat>
											<lut2></lut2>
										</colorinfo>
										<labels>
											<label2>Iris</label2>
										</labels>
									</clip>
									<clip id="masterclip-344" explodedTracks="true">
										<uuid>43941031-305e-4bd4-882d-116bf8755e43</uuid>
										<masterclipid>masterclip-344</masterclipid>
										<ismasterclip>TRUE</ismasterclip>
										<duration>240</duration>
										<rate>
											<timebase>30</timebase>
											<ntsc>TRUE</ntsc>
										</rate>
										<name>ATM_DRONE_TRANS_D.mov</name>
										<media>
											<video>
												<track>
													<clipitem id="clipitem-767">
														<masterclipid>masterclip-344</masterclipid>
														<name>ATM_DRONE_TRANS_D.mov</name>
														<rate>
															<timebase>30</timebase>
															<ntsc>TRUE</ntsc>
														</rate>
														<alphatype>straight</alphatype>
														<file id="file-316"/>
														<link>
															<linkclipref>clipitem-767</linkclipref>
															<mediatype>video</mediatype>
															<trackindex>1</trackindex>
															<clipindex>1</clipindex>
														</link>
														<link>
															<linkclipref>clipitem-768</linkclipref>
															<mediatype>audio</mediatype>
															<trackindex>1</trackindex>
															<clipindex>1</clipindex>
															<groupindex>1</groupindex>
														</link>
														<link>
															<linkclipref>clipitem-769</linkclipref>
															<mediatype>audio</mediatype>
															<trackindex>2</trackindex>
															<clipindex>1</clipindex>
															<groupindex>1</groupindex>
														</link>
													</clipitem>
												</track>
											</video>
											<audio>
												<track>
													<clipitem id="clipitem-768">
														<masterclipid>masterclip-344</masterclipid>
														<name>ATM_DRONE_TRANS_D.mov</name>
														<rate>
															<timebase>30</timebase>
															<ntsc>TRUE</ntsc>
														</rate>
														<file id="file-316"/>
														<sourcetrack>
															<mediatype>audio</mediatype>
															<trackindex>1</trackindex>
														</sourcetrack>
														<link>
															<linkclipref>clipitem-767</linkclipref>
															<mediatype>video</mediatype>
															<trackindex>1</trackindex>
															<clipindex>1</clipindex>
														</link>
														<link>
															<linkclipref>clipitem-768</linkclipref>
															<mediatype>audio</mediatype>
															<trackindex>1</trackindex>
															<clipindex>1</clipindex>
															<groupindex>1</groupindex>
														</link>
														<link>
															<linkclipref>clipitem-769</linkclipref>
															<mediatype>audio</mediatype>
															<trackindex>2</trackindex>
															<clipindex>1</clipindex>
															<groupindex>1</groupindex>
														</link>
													</clipitem>
												</track>
												<track>
													<clipitem id="clipitem-769">
														<masterclipid>masterclip-344</masterclipid>
														<name>ATM_DRONE_TRANS_D.mov</name>
														<rate>
															<timebase>30</timebase>
															<ntsc>TRUE</ntsc>
														</rate>
														<file id="file-316"/>
														<sourcetrack>
															<mediatype>audio</mediatype>
															<trackindex>2</trackindex>
														</sourcetrack>
														<link>
															<linkclipref>clipitem-767</linkclipref>
															<mediatype>video</mediatype>
															<trackindex>1</trackindex>
															<clipindex>1</clipindex>
														</link>
														<link>
															<linkclipref>clipitem-768</linkclipref>
															<mediatype>audio</mediatype>
															<trackindex>1</trackindex>
															<clipindex>1</clipindex>
															<groupindex>1</groupindex>
														</link>
														<link>
															<linkclipref>clipitem-769</linkclipref>
															<mediatype>audio</mediatype>
															<trackindex>2</trackindex>
															<clipindex>1</clipindex>
															<groupindex>1</groupindex>
														</link>
													</clipitem>
												</track>
											</audio>
										</media>
										<logginginfo>
											<description></description>
											<scene></scene>
											<shottake></shottake>
											<lognote></lognote>
											<good></good>
											<originalvideofilename></originalvideofilename>
											<originalaudiofilename></originalaudiofilename>
										</logginginfo>
										<colorinfo>
											<lut></lut>
											<lut1></lut1>
											<asc_sop></asc_sop>
											<asc_sat></asc_sat>
											<lut2></lut2>
										</colorinfo>
										<labels>
											<label2>Iris</label2>
										</labels>
									</clip>
									<clip id="masterclip-343" explodedTracks="true">
										<uuid>6e6b8075-ded9-4404-b408-168a58572c4d</uuid>
										<masterclipid>masterclip-343</masterclipid>
										<ismasterclip>TRUE</ismasterclip>
										<duration>240</duration>
										<rate>
											<timebase>30</timebase>
											<ntsc>TRUE</ntsc>
										</rate>
										<name>ATM_DRONE_TRANS_E..mov</name>
										<media>
											<video>
												<track>
													<clipitem id="clipitem-770">
														<masterclipid>masterclip-343</masterclipid>
														<name>ATM_DRONE_TRANS_E..mov</name>
														<rate>
															<timebase>30</timebase>
															<ntsc>TRUE</ntsc>
														</rate>
														<alphatype>straight</alphatype>
														<file id="file-315"/>
														<link>
															<linkclipref>clipitem-770</linkclipref>
															<mediatype>video</mediatype>
															<trackindex>1</trackindex>
															<clipindex>1</clipindex>
														</link>
														<link>
															<linkclipref>clipitem-771</linkclipref>
															<mediatype>audio</mediatype>
															<trackindex>1</trackindex>
															<clipindex>1</clipindex>
															<groupindex>1</groupindex>
														</link>
														<link>
															<linkclipref>clipitem-772</linkclipref>
															<mediatype>audio</mediatype>
															<trackindex>2</trackindex>
															<clipindex>1</clipindex>
															<groupindex>1</groupindex>
														</link>
													</clipitem>
												</track>
											</video>
											<audio>
												<track>
													<clipitem id="clipitem-771">
														<masterclipid>masterclip-343</masterclipid>
														<name>ATM_DRONE_TRANS_E..mov</name>
														<rate>
															<timebase>30</timebase>
															<ntsc>TRUE</ntsc>
														</rate>
														<file id="file-315"/>
														<sourcetrack>
															<mediatype>audio</mediatype>
															<trackindex>1</trackindex>
														</sourcetrack>
														<link>
															<linkclipref>clipitem-770</linkclipref>
															<mediatype>video</mediatype>
															<trackindex>1</trackindex>
															<clipindex>1</clipindex>
														</link>
														<link>
															<linkclipref>clipitem-771</linkclipref>
															<mediatype>audio</mediatype>
															<trackindex>1</trackindex>
															<clipindex>1</clipindex>
															<groupindex>1</groupindex>
														</link>
														<link>
															<linkclipref>clipitem-772</linkclipref>
															<mediatype>audio</mediatype>
															<trackindex>2</trackindex>
															<clipindex>1</clipindex>
															<groupindex>1</groupindex>
														</link>
													</clipitem>
												</track>
												<track>
													<clipitem id="clipitem-772">
														<masterclipid>masterclip-343</masterclipid>
														<name>ATM_DRONE_TRANS_E..mov</name>
														<rate>
															<timebase>30</timebase>
															<ntsc>TRUE</ntsc>
														</rate>
														<file id="file-315"/>
														<sourcetrack>
															<mediatype>audio</mediatype>
															<trackindex>2</trackindex>
														</sourcetrack>
														<link>
															<linkclipref>clipitem-770</linkclipref>
															<mediatype>video</mediatype>
															<trackindex>1</trackindex>
															<clipindex>1</clipindex>
														</link>
														<link>
															<linkclipref>clipitem-771</linkclipref>
															<mediatype>audio</mediatype>
															<trackindex>1</trackindex>
															<clipindex>1</clipindex>
															<groupindex>1</groupindex>
														</link>
														<link>
															<linkclipref>clipitem-772</linkclipref>
															<mediatype>audio</mediatype>
															<trackindex>2</trackindex>
															<clipindex>1</clipindex>
															<groupindex>1</groupindex>
														</link>
													</clipitem>
												</track>
											</audio>
										</media>
										<logginginfo>
											<description></description>
											<scene></scene>
											<shottake></shottake>
											<lognote></lognote>
											<good></good>
											<originalvideofilename></originalvideofilename>
											<originalaudiofilename></originalaudiofilename>
										</logginginfo>
										<colorinfo>
											<lut></lut>
											<lut1></lut1>
											<asc_sop></asc_sop>
											<asc_sat></asc_sat>
											<lut2></lut2>
										</colorinfo>
										<labels>
											<label2>Iris</label2>
										</labels>
									</clip>
									<clip id="masterclip-342" explodedTracks="true">
										<uuid>3626d1f0-18af-45c9-b61c-557f53639807</uuid>
										<masterclipid>masterclip-342</masterclipid>
										<ismasterclip>TRUE</ismasterclip>
										<duration>245</duration>
										<rate>
											<timebase>30</timebase>
											<ntsc>TRUE</ntsc>
										</rate>
										<name>ATM_DRONE_TRANS_F.mov</name>
										<media>
											<video>
												<track>
													<clipitem id="clipitem-773">
														<masterclipid>masterclip-342</masterclipid>
														<name>ATM_DRONE_TRANS_F.mov</name>
														<rate>
															<timebase>30</timebase>
															<ntsc>TRUE</ntsc>
														</rate>
														<alphatype>straight</alphatype>
														<file id="file-314"/>
														<link>
															<linkclipref>clipitem-773</linkclipref>
															<mediatype>video</mediatype>
															<trackindex>1</trackindex>
															<clipindex>1</clipindex>
														</link>
														<link>
															<linkclipref>clipitem-774</linkclipref>
															<mediatype>audio</mediatype>
															<trackindex>1</trackindex>
															<clipindex>1</clipindex>
															<groupindex>1</groupindex>
														</link>
														<link>
															<linkclipref>clipitem-775</linkclipref>
															<mediatype>audio</mediatype>
															<trackindex>2</trackindex>
															<clipindex>1</clipindex>
															<groupindex>1</groupindex>
														</link>
													</clipitem>
												</track>
											</video>
											<audio>
												<track>
													<clipitem id="clipitem-774">
														<masterclipid>masterclip-342</masterclipid>
														<name>ATM_DRONE_TRANS_F.mov</name>
														<rate>
															<timebase>30</timebase>
															<ntsc>TRUE</ntsc>
														</rate>
														<file id="file-314"/>
														<sourcetrack>
															<mediatype>audio</mediatype>
															<trackindex>1</trackindex>
														</sourcetrack>
														<link>
															<linkclipref>clipitem-773</linkclipref>
															<mediatype>video</mediatype>
															<trackindex>1</trackindex>
															<clipindex>1</clipindex>
														</link>
														<link>
															<linkclipref>clipitem-774</linkclipref>
															<mediatype>audio</mediatype>
															<trackindex>1</trackindex>
															<clipindex>1</clipindex>
															<groupindex>1</groupindex>
														</link>
														<link>
															<linkclipref>clipitem-775</linkclipref>
															<mediatype>audio</mediatype>
															<trackindex>2</trackindex>
															<clipindex>1</clipindex>
															<groupindex>1</groupindex>
														</link>
													</clipitem>
												</track>
												<track>
													<clipitem id="clipitem-775">
														<masterclipid>masterclip-342</masterclipid>
														<name>ATM_DRONE_TRANS_F.mov</name>
														<rate>
															<timebase>30</timebase>
															<ntsc>TRUE</ntsc>
														</rate>
														<file id="file-314"/>
														<sourcetrack>
															<mediatype>audio</mediatype>
															<trackindex>2</trackindex>
														</sourcetrack>
														<link>
															<linkclipref>clipitem-773</linkclipref>
															<mediatype>video</mediatype>
															<trackindex>1</trackindex>
															<clipindex>1</clipindex>
														</link>
														<link>
															<linkclipref>clipitem-774</linkclipref>
															<mediatype>audio</mediatype>
															<trackindex>1</trackindex>
															<clipindex>1</clipindex>
															<groupindex>1</groupindex>
														</link>
														<link>
															<linkclipref>clipitem-775</linkclipref>
															<mediatype>audio</mediatype>
															<trackindex>2</trackindex>
															<clipindex>1</clipindex>
															<groupindex>1</groupindex>
														</link>
													</clipitem>
												</track>
											</audio>
										</media>
										<logginginfo>
											<description></description>
											<scene></scene>
											<shottake></shottake>
											<lognote></lognote>
											<good></good>
											<originalvideofilename></originalvideofilename>
											<originalaudiofilename></originalaudiofilename>
										</logginginfo>
										<colorinfo>
											<lut></lut>
											<lut1></lut1>
											<asc_sop></asc_sop>
											<asc_sat></asc_sat>
											<lut2></lut2>
										</colorinfo>
										<labels>
											<label2>Iris</label2>
										</labels>
									</clip>
									<clip id="masterclip-341" explodedTracks="true">
										<uuid>1d858bec-b890-479f-ad0f-6a31259201c9</uuid>
										<masterclipid>masterclip-341</masterclipid>
										<ismasterclip>TRUE</ismasterclip>
										<duration>245</duration>
										<rate>
											<timebase>30</timebase>
											<ntsc>TRUE</ntsc>
										</rate>
										<name>ATM_DRONE_TRANS_G.mov</name>
										<media>
											<video>
												<track>
													<clipitem id="clipitem-776">
														<masterclipid>masterclip-341</masterclipid>
														<name>ATM_DRONE_TRANS_G.mov</name>
														<rate>
															<timebase>30</timebase>
															<ntsc>TRUE</ntsc>
														</rate>
														<alphatype>straight</alphatype>
														<file id="file-313"/>
														<link>
															<linkclipref>clipitem-776</linkclipref>
															<mediatype>video</mediatype>
															<trackindex>1</trackindex>
															<clipindex>1</clipindex>
														</link>
														<link>
															<linkclipref>clipitem-777</linkclipref>
															<mediatype>audio</mediatype>
															<trackindex>1</trackindex>
															<clipindex>1</clipindex>
															<groupindex>1</groupindex>
														</link>
														<link>
															<linkclipref>clipitem-778</linkclipref>
															<mediatype>audio</mediatype>
															<trackindex>2</trackindex>
															<clipindex>1</clipindex>
															<groupindex>1</groupindex>
														</link>
													</clipitem>
												</track>
											</video>
											<audio>
												<track>
													<clipitem id="clipitem-777">
														<masterclipid>masterclip-341</masterclipid>
														<name>ATM_DRONE_TRANS_G.mov</name>
														<rate>
															<timebase>30</timebase>
															<ntsc>TRUE</ntsc>
														</rate>
														<file id="file-313"/>
														<sourcetrack>
															<mediatype>audio</mediatype>
															<trackindex>1</trackindex>
														</sourcetrack>
														<link>
															<linkclipref>clipitem-776</linkclipref>
															<mediatype>video</mediatype>
															<trackindex>1</trackindex>
															<clipindex>1</clipindex>
														</link>
														<link>
															<linkclipref>clipitem-777</linkclipref>
															<mediatype>audio</mediatype>
															<trackindex>1</trackindex>
															<clipindex>1</clipindex>
															<groupindex>1</groupindex>
														</link>
														<link>
															<linkclipref>clipitem-778</linkclipref>
															<mediatype>audio</mediatype>
															<trackindex>2</trackindex>
															<clipindex>1</clipindex>
															<groupindex>1</groupindex>
														</link>
													</clipitem>
												</track>
												<track>
													<clipitem id="clipitem-778">
														<masterclipid>masterclip-341</masterclipid>
														<name>ATM_DRONE_TRANS_G.mov</name>
														<rate>
															<timebase>30</timebase>
															<ntsc>TRUE</ntsc>
														</rate>
														<file id="file-313"/>
														<sourcetrack>
															<mediatype>audio</mediatype>
															<trackindex>2</trackindex>
														</sourcetrack>
														<link>
															<linkclipref>clipitem-776</linkclipref>
															<mediatype>video</mediatype>
															<trackindex>1</trackindex>
															<clipindex>1</clipindex>
														</link>
														<link>
															<linkclipref>clipitem-777</linkclipref>
															<mediatype>audio</mediatype>
															<trackindex>1</trackindex>
															<clipindex>1</clipindex>
															<groupindex>1</groupindex>
														</link>
														<link>
															<linkclipref>clipitem-778</linkclipref>
															<mediatype>audio</mediatype>
															<trackindex>2</trackindex>
															<clipindex>1</clipindex>
															<groupindex>1</groupindex>
														</link>
													</clipitem>
												</track>
											</audio>
										</media>
										<logginginfo>
											<description></description>
											<scene></scene>
											<shottake></shottake>
											<lognote></lognote>
											<good></good>
											<originalvideofilename></originalvideofilename>
											<originalaudiofilename></originalaudiofilename>
										</logginginfo>
										<colorinfo>
											<lut></lut>
											<lut1></lut1>
											<asc_sop></asc_sop>
											<asc_sat></asc_sat>
											<lut2></lut2>
										</colorinfo>
										<labels>
											<label2>Iris</label2>
										</labels>
									</clip>
									<clip id="masterclip-340" explodedTracks="true">
										<uuid>9c61caaa-9984-4aa1-ac10-fc58aedfd5f9</uuid>
										<masterclipid>masterclip-340</masterclipid>
										<ismasterclip>TRUE</ismasterclip>
										<duration>245</duration>
										<rate>
											<timebase>30</timebase>
											<ntsc>TRUE</ntsc>
										</rate>
										<name>ATM_DRONE_TRANS_H.mov</name>
										<media>
											<video>
												<track>
													<clipitem id="clipitem-779">
														<masterclipid>masterclip-340</masterclipid>
														<name>ATM_DRONE_TRANS_H.mov</name>
														<rate>
															<timebase>30</timebase>
															<ntsc>TRUE</ntsc>
														</rate>
														<alphatype>straight</alphatype>
														<file id="file-312"/>
														<link>
															<linkclipref>clipitem-779</linkclipref>
															<mediatype>video</mediatype>
															<trackindex>1</trackindex>
															<clipindex>1</clipindex>
														</link>
														<link>
															<linkclipref>clipitem-780</linkclipref>
															<mediatype>audio</mediatype>
															<trackindex>1</trackindex>
															<clipindex>1</clipindex>
															<groupindex>1</groupindex>
														</link>
														<link>
															<linkclipref>clipitem-781</linkclipref>
															<mediatype>audio</mediatype>
															<trackindex>2</trackindex>
															<clipindex>1</clipindex>
															<groupindex>1</groupindex>
														</link>
													</clipitem>
												</track>
											</video>
											<audio>
												<track>
													<clipitem id="clipitem-780">
														<masterclipid>masterclip-340</masterclipid>
														<name>ATM_DRONE_TRANS_H.mov</name>
														<rate>
															<timebase>30</timebase>
															<ntsc>TRUE</ntsc>
														</rate>
														<file id="file-312"/>
														<sourcetrack>
															<mediatype>audio</mediatype>
															<trackindex>1</trackindex>
														</sourcetrack>
														<link>
															<linkclipref>clipitem-779</linkclipref>
															<mediatype>video</mediatype>
															<trackindex>1</trackindex>
															<clipindex>1</clipindex>
														</link>
														<link>
															<linkclipref>clipitem-780</linkclipref>
															<mediatype>audio</mediatype>
															<trackindex>1</trackindex>
															<clipindex>1</clipindex>
															<groupindex>1</groupindex>
														</link>
														<link>
															<linkclipref>clipitem-781</linkclipref>
															<mediatype>audio</mediatype>
															<trackindex>2</trackindex>
															<clipindex>1</clipindex>
															<groupindex>1</groupindex>
														</link>
													</clipitem>
												</track>
												<track>
													<clipitem id="clipitem-781">
														<masterclipid>masterclip-340</masterclipid>
														<name>ATM_DRONE_TRANS_H.mov</name>
														<rate>
															<timebase>30</timebase>
															<ntsc>TRUE</ntsc>
														</rate>
														<file id="file-312"/>
														<sourcetrack>
															<mediatype>audio</mediatype>
															<trackindex>2</trackindex>
														</sourcetrack>
														<link>
															<linkclipref>clipitem-779</linkclipref>
															<mediatype>video</mediatype>
															<trackindex>1</trackindex>
															<clipindex>1</clipindex>
														</link>
														<link>
															<linkclipref>clipitem-780</linkclipref>
															<mediatype>audio</mediatype>
															<trackindex>1</trackindex>
															<clipindex>1</clipindex>
															<groupindex>1</groupindex>
														</link>
														<link>
															<linkclipref>clipitem-781</linkclipref>
															<mediatype>audio</mediatype>
															<trackindex>2</trackindex>
															<clipindex>1</clipindex>
															<groupindex>1</groupindex>
														</link>
													</clipitem>
												</track>
											</audio>
										</media>
										<logginginfo>
											<description></description>
											<scene></scene>
											<shottake></shottake>
											<lognote></lognote>
											<good></good>
											<originalvideofilename></originalvideofilename>
											<originalaudiofilename></originalaudiofilename>
										</logginginfo>
										<colorinfo>
											<lut></lut>
											<lut1></lut1>
											<asc_sop></asc_sop>
											<asc_sat></asc_sat>
											<lut2></lut2>
										</colorinfo>
										<labels>
											<label2>Iris</label2>
										</labels>
									</clip>
									<clip id="masterclip-348" explodedTracks="true">
										<uuid>4641b99e-5a15-4083-b357-df60696a6f0a</uuid>
										<masterclipid>masterclip-348</masterclipid>
										<ismasterclip>TRUE</ismasterclip>
										<duration>245</duration>
										<rate>
											<timebase>30</timebase>
											<ntsc>TRUE</ntsc>
										</rate>
										<name>ATM_DRONE_TRANS_I.mov</name>
										<media>
											<video>
												<track>
													<clipitem id="clipitem-782">
														<masterclipid>masterclip-348</masterclipid>
														<name>ATM_DRONE_TRANS_I.mov</name>
														<rate>
															<timebase>30</timebase>
															<ntsc>TRUE</ntsc>
														</rate>
														<alphatype>straight</alphatype>
														<file id="file-320"/>
														<link>
															<linkclipref>clipitem-782</linkclipref>
															<mediatype>video</mediatype>
															<trackindex>1</trackindex>
															<clipindex>1</clipindex>
														</link>
														<link>
															<linkclipref>clipitem-783</linkclipref>
															<mediatype>audio</mediatype>
															<trackindex>1</trackindex>
															<clipindex>1</clipindex>
															<groupindex>1</groupindex>
														</link>
														<link>
															<linkclipref>clipitem-784</linkclipref>
															<mediatype>audio</mediatype>
															<trackindex>2</trackindex>
															<clipindex>1</clipindex>
															<groupindex>1</groupindex>
														</link>
													</clipitem>
												</track>
											</video>
											<audio>
												<track>
													<clipitem id="clipitem-783">
														<masterclipid>masterclip-348</masterclipid>
														<name>ATM_DRONE_TRANS_I.mov</name>
														<rate>
															<timebase>30</timebase>
															<ntsc>TRUE</ntsc>
														</rate>
														<file id="file-320"/>
														<sourcetrack>
															<mediatype>audio</mediatype>
															<trackindex>1</trackindex>
														</sourcetrack>
														<link>
															<linkclipref>clipitem-782</linkclipref>
															<mediatype>video</mediatype>
															<trackindex>1</trackindex>
															<clipindex>1</clipindex>
														</link>
														<link>
															<linkclipref>clipitem-783</linkclipref>
															<mediatype>audio</mediatype>
															<trackindex>1</trackindex>
															<clipindex>1</clipindex>
															<groupindex>1</groupindex>
														</link>
														<link>
															<linkclipref>clipitem-784</linkclipref>
															<mediatype>audio</mediatype>
															<trackindex>2</trackindex>
															<clipindex>1</clipindex>
															<groupindex>1</groupindex>
														</link>
													</clipitem>
												</track>
												<track>
													<clipitem id="clipitem-784">
														<masterclipid>masterclip-348</masterclipid>
														<name>ATM_DRONE_TRANS_I.mov</name>
														<rate>
															<timebase>30</timebase>
															<ntsc>TRUE</ntsc>
														</rate>
														<file id="file-320"/>
														<sourcetrack>
															<mediatype>audio</mediatype>
															<trackindex>2</trackindex>
														</sourcetrack>
														<link>
															<linkclipref>clipitem-782</linkclipref>
															<mediatype>video</mediatype>
															<trackindex>1</trackindex>
															<clipindex>1</clipindex>
														</link>
														<link>
															<linkclipref>clipitem-783</linkclipref>
															<mediatype>audio</mediatype>
															<trackindex>1</trackindex>
															<clipindex>1</clipindex>
															<groupindex>1</groupindex>
														</link>
														<link>
															<linkclipref>clipitem-784</linkclipref>
															<mediatype>audio</mediatype>
															<trackindex>2</trackindex>
															<clipindex>1</clipindex>
															<groupindex>1</groupindex>
														</link>
													</clipitem>
												</track>
											</audio>
										</media>
										<logginginfo>
											<description></description>
											<scene></scene>
											<shottake></shottake>
											<lognote></lognote>
											<good></good>
											<originalvideofilename></originalvideofilename>
											<originalaudiofilename></originalaudiofilename>
										</logginginfo>
										<colorinfo>
											<lut></lut>
											<lut1></lut1>
											<asc_sop></asc_sop>
											<asc_sat></asc_sat>
											<lut2></lut2>
										</colorinfo>
										<labels>
											<label2>Iris</label2>
										</labels>
									</clip>
								</children>
							</bin>
							<bin>
								<name>24fps Raw</name>
								<labels>
									<label2>Mango</label2>
								</labels>
								<children>
									<clip id="masterclip-351" explodedTracks="true">
										<uuid>e5eb70f2-8b1f-4747-af8d-81f0bdb72adb</uuid>
										<masterclipid>masterclip-351</masterclipid>
										<ismasterclip>TRUE</ismasterclip>
										<duration>199</duration>
										<rate>
											<timebase>24</timebase>
											<ntsc>TRUE</ntsc>
										</rate>
										<name>ATM_DRONE_TRANS_A [23.976].mp4</name>
										<media>
											<video>
												<track>
													<clipitem id="clipitem-785">
														<masterclipid>masterclip-351</masterclipid>
														<name>ATM_DRONE_TRANS_A [23.976].mp4</name>
														<rate>
															<timebase>24</timebase>
															<ntsc>TRUE</ntsc>
														</rate>
														<alphatype>none</alphatype>
														<pixelaspectratio>square</pixelaspectratio>
														<anamorphic>FALSE</anamorphic>
														<file id="file-323">
															<name>ATM_DRONE_TRANS_A [23.976].mp4</name>
															<pathurl>file://localhost/Volumes/T7/DRONE_08.18.2023/4_Project%20Files/Drone%202023%20Master%20Assets/02_Transitions/DRONE%20Transitions%20(24fps)/ATM_DRONE_TRANS_A%20[23.976].mp4</pathurl>
															<rate>
																<timebase>24</timebase>
																<ntsc>TRUE</ntsc>
															</rate>
															<duration>199</duration>
															<timecode>
																<rate>
																	<timebase>24</timebase>
																	<ntsc>TRUE</ntsc>
																</rate>
																<string>00:00:00:00</string>
																<frame>0</frame>
																<displayformat>NDF</displayformat>
															</timecode>
															<media>
																<video>
																	<samplecharacteristics>
																		<rate>
																			<timebase>24</timebase>
																			<ntsc>TRUE</ntsc>
																		</rate>
																		<width>1920</width>
																		<height>1080</height>
																		<anamorphic>FALSE</anamorphic>
																		<pixelaspectratio>square</pixelaspectratio>
																		<fielddominance>none</fielddominance>
																	</samplecharacteristics>
																</video>
																<audio>
																	<samplecharacteristics>
																		<depth>16</depth>
																		<samplerate>32000</samplerate>
																	</samplecharacteristics>
																	<channelcount>2</channelcount>
																</audio>
															</media>
														</file>
														<link>
															<linkclipref>clipitem-785</linkclipref>
															<mediatype>video</mediatype>
															<trackindex>1</trackindex>
															<clipindex>1</clipindex>
														</link>
														<link>
															<linkclipref>clipitem-786</linkclipref>
															<mediatype>audio</mediatype>
															<trackindex>1</trackindex>
															<clipindex>1</clipindex>
															<groupindex>1</groupindex>
														</link>
														<link>
															<linkclipref>clipitem-787</linkclipref>
															<mediatype>audio</mediatype>
															<trackindex>2</trackindex>
															<clipindex>1</clipindex>
															<groupindex>1</groupindex>
														</link>
													</clipitem>
												</track>
											</video>
											<audio>
												<track>
													<clipitem id="clipitem-786">
														<masterclipid>masterclip-351</masterclipid>
														<name>ATM_DRONE_TRANS_A [23.976].mp4</name>
														<rate>
															<timebase>24</timebase>
															<ntsc>TRUE</ntsc>
														</rate>
														<file id="file-323"/>
														<sourcetrack>
															<mediatype>audio</mediatype>
															<trackindex>1</trackindex>
														</sourcetrack>
														<link>
															<linkclipref>clipitem-785</linkclipref>
															<mediatype>video</mediatype>
															<trackindex>1</trackindex>
															<clipindex>1</clipindex>
														</link>
														<link>
															<linkclipref>clipitem-786</linkclipref>
															<mediatype>audio</mediatype>
															<trackindex>1</trackindex>
															<clipindex>1</clipindex>
															<groupindex>1</groupindex>
														</link>
														<link>
															<linkclipref>clipitem-787</linkclipref>
															<mediatype>audio</mediatype>
															<trackindex>2</trackindex>
															<clipindex>1</clipindex>
															<groupindex>1</groupindex>
														</link>
													</clipitem>
												</track>
												<track>
													<clipitem id="clipitem-787">
														<masterclipid>masterclip-351</masterclipid>
														<name>ATM_DRONE_TRANS_A [23.976].mp4</name>
														<rate>
															<timebase>24</timebase>
															<ntsc>TRUE</ntsc>
														</rate>
														<file id="file-323"/>
														<sourcetrack>
															<mediatype>audio</mediatype>
															<trackindex>2</trackindex>
														</sourcetrack>
														<link>
															<linkclipref>clipitem-785</linkclipref>
															<mediatype>video</mediatype>
															<trackindex>1</trackindex>
															<clipindex>1</clipindex>
														</link>
														<link>
															<linkclipref>clipitem-786</linkclipref>
															<mediatype>audio</mediatype>
															<trackindex>1</trackindex>
															<clipindex>1</clipindex>
															<groupindex>1</groupindex>
														</link>
														<link>
															<linkclipref>clipitem-787</linkclipref>
															<mediatype>audio</mediatype>
															<trackindex>2</trackindex>
															<clipindex>1</clipindex>
															<groupindex>1</groupindex>
														</link>
													</clipitem>
												</track>
											</audio>
										</media>
										<logginginfo>
											<description></description>
											<scene></scene>
											<shottake></shottake>
											<lognote></lognote>
											<good></good>
											<originalvideofilename></originalvideofilename>
											<originalaudiofilename></originalaudiofilename>
										</logginginfo>
										<colorinfo>
											<lut></lut>
											<lut1></lut1>
											<asc_sop></asc_sop>
											<asc_sat></asc_sat>
											<lut2></lut2>
										</colorinfo>
										<labels>
											<label2>Iris</label2>
										</labels>
									</clip>
									<clip id="masterclip-352" explodedTracks="true">
										<uuid>22b527df-1241-4b1a-9c24-16d242ed1b77</uuid>
										<masterclipid>masterclip-352</masterclipid>
										<ismasterclip>TRUE</ismasterclip>
										<duration>125</duration>
										<rate>
											<timebase>24</timebase>
											<ntsc>TRUE</ntsc>
										</rate>
										<name>ATM_DRONE_TRANS_B [23.976].mp4</name>
										<media>
											<video>
												<track>
													<clipitem id="clipitem-788">
														<masterclipid>masterclip-352</masterclipid>
														<name>ATM_DRONE_TRANS_B [23.976].mp4</name>
														<rate>
															<timebase>24</timebase>
															<ntsc>TRUE</ntsc>
														</rate>
														<alphatype>none</alphatype>
														<pixelaspectratio>square</pixelaspectratio>
														<anamorphic>FALSE</anamorphic>
														<file id="file-324">
															<name>ATM_DRONE_TRANS_B [23.976].mp4</name>
															<pathurl>file://localhost/Volumes/T7/DRONE_08.18.2023/4_Project%20Files/Drone%202023%20Master%20Assets/02_Transitions/DRONE%20Transitions%20(24fps)/ATM_DRONE_TRANS_B%20[23.976].mp4</pathurl>
															<rate>
																<timebase>24</timebase>
																<ntsc>TRUE</ntsc>
															</rate>
															<duration>125</duration>
															<timecode>
																<rate>
																	<timebase>24</timebase>
																	<ntsc>TRUE</ntsc>
																</rate>
																<string>00:00:10:08</string>
																<frame>248</frame>
																<displayformat>NDF</displayformat>
															</timecode>
															<media>
																<video>
																	<samplecharacteristics>
																		<rate>
																			<timebase>24</timebase>
																			<ntsc>TRUE</ntsc>
																		</rate>
																		<width>1920</width>
																		<height>1080</height>
																		<anamorphic>FALSE</anamorphic>
																		<pixelaspectratio>square</pixelaspectratio>
																		<fielddominance>none</fielddominance>
																	</samplecharacteristics>
																</video>
																<audio>
																	<samplecharacteristics>
																		<depth>16</depth>
																		<samplerate>32000</samplerate>
																	</samplecharacteristics>
																	<channelcount>2</channelcount>
																</audio>
															</media>
														</file>
														<link>
															<linkclipref>clipitem-788</linkclipref>
															<mediatype>video</mediatype>
															<trackindex>1</trackindex>
															<clipindex>1</clipindex>
														</link>
														<link>
															<linkclipref>clipitem-789</linkclipref>
															<mediatype>audio</mediatype>
															<trackindex>1</trackindex>
															<clipindex>1</clipindex>
															<groupindex>1</groupindex>
														</link>
														<link>
															<linkclipref>clipitem-790</linkclipref>
															<mediatype>audio</mediatype>
															<trackindex>2</trackindex>
															<clipindex>1</clipindex>
															<groupindex>1</groupindex>
														</link>
													</clipitem>
												</track>
											</video>
											<audio>
												<track>
													<clipitem id="clipitem-789">
														<masterclipid>masterclip-352</masterclipid>
														<name>ATM_DRONE_TRANS_B [23.976].mp4</name>
														<rate>
															<timebase>24</timebase>
															<ntsc>TRUE</ntsc>
														</rate>
														<file id="file-324"/>
														<sourcetrack>
															<mediatype>audio</mediatype>
															<trackindex>1</trackindex>
														</sourcetrack>
														<link>
															<linkclipref>clipitem-788</linkclipref>
															<mediatype>video</mediatype>
															<trackindex>1</trackindex>
															<clipindex>1</clipindex>
														</link>
														<link>
															<linkclipref>clipitem-789</linkclipref>
															<mediatype>audio</mediatype>
															<trackindex>1</trackindex>
															<clipindex>1</clipindex>
															<groupindex>1</groupindex>
														</link>
														<link>
															<linkclipref>clipitem-790</linkclipref>
															<mediatype>audio</mediatype>
															<trackindex>2</trackindex>
															<clipindex>1</clipindex>
															<groupindex>1</groupindex>
														</link>
													</clipitem>
												</track>
												<track>
													<clipitem id="clipitem-790">
														<masterclipid>masterclip-352</masterclipid>
														<name>ATM_DRONE_TRANS_B [23.976].mp4</name>
														<rate>
															<timebase>24</timebase>
															<ntsc>TRUE</ntsc>
														</rate>
														<file id="file-324"/>
														<sourcetrack>
															<mediatype>audio</mediatype>
															<trackindex>2</trackindex>
														</sourcetrack>
														<link>
															<linkclipref>clipitem-788</linkclipref>
															<mediatype>video</mediatype>
															<trackindex>1</trackindex>
															<clipindex>1</clipindex>
														</link>
														<link>
															<linkclipref>clipitem-789</linkclipref>
															<mediatype>audio</mediatype>
															<trackindex>1</trackindex>
															<clipindex>1</clipindex>
															<groupindex>1</groupindex>
														</link>
														<link>
															<linkclipref>clipitem-790</linkclipref>
															<mediatype>audio</mediatype>
															<trackindex>2</trackindex>
															<clipindex>1</clipindex>
															<groupindex>1</groupindex>
														</link>
													</clipitem>
												</track>
											</audio>
										</media>
										<logginginfo>
											<description></description>
											<scene></scene>
											<shottake></shottake>
											<lognote></lognote>
											<good></good>
											<originalvideofilename></originalvideofilename>
											<originalaudiofilename></originalaudiofilename>
										</logginginfo>
										<colorinfo>
											<lut></lut>
											<lut1></lut1>
											<asc_sop></asc_sop>
											<asc_sat></asc_sat>
											<lut2></lut2>
										</colorinfo>
										<labels>
											<label2>Iris</label2>
										</labels>
									</clip>
									<clip id="masterclip-353" explodedTracks="true">
										<uuid>2ea0db87-063b-4560-9c78-540e576a14b4</uuid>
										<masterclipid>masterclip-353</masterclipid>
										<ismasterclip>TRUE</ismasterclip>
										<duration>193</duration>
										<rate>
											<timebase>24</timebase>
											<ntsc>TRUE</ntsc>
										</rate>
										<name>ATM_DRONE_TRANS_C [23.976].mp4</name>
										<media>
											<video>
												<track>
													<clipitem id="clipitem-791">
														<masterclipid>masterclip-353</masterclipid>
														<name>ATM_DRONE_TRANS_C [23.976].mp4</name>
														<rate>
															<timebase>24</timebase>
															<ntsc>TRUE</ntsc>
														</rate>
														<alphatype>none</alphatype>
														<pixelaspectratio>square</pixelaspectratio>
														<anamorphic>FALSE</anamorphic>
														<file id="file-325">
															<name>ATM_DRONE_TRANS_C [23.976].mp4</name>
															<pathurl>file://localhost/Volumes/T7/DRONE_08.18.2023/4_Project%20Files/Drone%202023%20Master%20Assets/02_Transitions/DRONE%20Transitions%20(24fps)/ATM_DRONE_TRANS_C%20[23.976].mp4</pathurl>
															<rate>
																<timebase>24</timebase>
																<ntsc>TRUE</ntsc>
															</rate>
															<duration>193</duration>
															<timecode>
																<rate>
																	<timebase>24</timebase>
																	<ntsc>TRUE</ntsc>
																</rate>
																<string>00:00:16:19</string>
																<frame>403</frame>
																<displayformat>NDF</displayformat>
															</timecode>
															<media>
																<video>
																	<samplecharacteristics>
																		<rate>
																			<timebase>24</timebase>
																			<ntsc>TRUE</ntsc>
																		</rate>
																		<width>1920</width>
																		<height>1080</height>
																		<anamorphic>FALSE</anamorphic>
																		<pixelaspectratio>square</pixelaspectratio>
																		<fielddominance>none</fielddominance>
																	</samplecharacteristics>
																</video>
																<audio>
																	<samplecharacteristics>
																		<depth>16</depth>
																		<samplerate>32000</samplerate>
																	</samplecharacteristics>
																	<channelcount>2</channelcount>
																</audio>
															</media>
														</file>
														<link>
															<linkclipref>clipitem-791</linkclipref>
															<mediatype>video</mediatype>
															<trackindex>1</trackindex>
															<clipindex>1</clipindex>
														</link>
														<link>
															<linkclipref>clipitem-792</linkclipref>
															<mediatype>audio</mediatype>
															<trackindex>1</trackindex>
															<clipindex>1</clipindex>
															<groupindex>1</groupindex>
														</link>
														<link>
															<linkclipref>clipitem-793</linkclipref>
															<mediatype>audio</mediatype>
															<trackindex>2</trackindex>
															<clipindex>1</clipindex>
															<groupindex>1</groupindex>
														</link>
													</clipitem>
												</track>
											</video>
											<audio>
												<track>
													<clipitem id="clipitem-792">
														<masterclipid>masterclip-353</masterclipid>
														<name>ATM_DRONE_TRANS_C [23.976].mp4</name>
														<rate>
															<timebase>24</timebase>
															<ntsc>TRUE</ntsc>
														</rate>
														<file id="file-325"/>
														<sourcetrack>
															<mediatype>audio</mediatype>
															<trackindex>1</trackindex>
														</sourcetrack>
														<link>
															<linkclipref>clipitem-791</linkclipref>
															<mediatype>video</mediatype>
															<trackindex>1</trackindex>
															<clipindex>1</clipindex>
														</link>
														<link>
															<linkclipref>clipitem-792</linkclipref>
															<mediatype>audio</mediatype>
															<trackindex>1</trackindex>
															<clipindex>1</clipindex>
															<groupindex>1</groupindex>
														</link>
														<link>
															<linkclipref>clipitem-793</linkclipref>
															<mediatype>audio</mediatype>
															<trackindex>2</trackindex>
															<clipindex>1</clipindex>
															<groupindex>1</groupindex>
														</link>
													</clipitem>
												</track>
												<track>
													<clipitem id="clipitem-793">
														<masterclipid>masterclip-353</masterclipid>
														<name>ATM_DRONE_TRANS_C [23.976].mp4</name>
														<rate>
															<timebase>24</timebase>
															<ntsc>TRUE</ntsc>
														</rate>
														<file id="file-325"/>
														<sourcetrack>
															<mediatype>audio</mediatype>
															<trackindex>2</trackindex>
														</sourcetrack>
														<link>
															<linkclipref>clipitem-791</linkclipref>
															<mediatype>video</mediatype>
															<trackindex>1</trackindex>
															<clipindex>1</clipindex>
														</link>
														<link>
															<linkclipref>clipitem-792</linkclipref>
															<mediatype>audio</mediatype>
															<trackindex>1</trackindex>
															<clipindex>1</clipindex>
															<groupindex>1</groupindex>
														</link>
														<link>
															<linkclipref>clipitem-793</linkclipref>
															<mediatype>audio</mediatype>
															<trackindex>2</trackindex>
															<clipindex>1</clipindex>
															<groupindex>1</groupindex>
														</link>
													</clipitem>
												</track>
											</audio>
										</media>
										<logginginfo>
											<description></description>
											<scene></scene>
											<shottake></shottake>
											<lognote></lognote>
											<good></good>
											<originalvideofilename></originalvideofilename>
											<originalaudiofilename></originalaudiofilename>
										</logginginfo>
										<colorinfo>
											<lut></lut>
											<lut1></lut1>
											<asc_sop></asc_sop>
											<asc_sat></asc_sat>
											<lut2></lut2>
										</colorinfo>
										<labels>
											<label2>Iris</label2>
										</labels>
									</clip>
									<clip id="masterclip-354" explodedTracks="true">
										<uuid>c3d2584f-9f82-4787-9b7a-60afeb914311</uuid>
										<masterclipid>masterclip-354</masterclipid>
										<ismasterclip>TRUE</ismasterclip>
										<duration>193</duration>
										<rate>
											<timebase>24</timebase>
											<ntsc>TRUE</ntsc>
										</rate>
										<name>ATM_DRONE_TRANS_D [23.976].mp4</name>
										<media>
											<video>
												<track>
													<clipitem id="clipitem-794">
														<masterclipid>masterclip-354</masterclipid>
														<name>ATM_DRONE_TRANS_D [23.976].mp4</name>
														<rate>
															<timebase>24</timebase>
															<ntsc>TRUE</ntsc>
														</rate>
														<alphatype>none</alphatype>
														<pixelaspectratio>square</pixelaspectratio>
														<anamorphic>FALSE</anamorphic>
														<file id="file-326">
															<name>ATM_DRONE_TRANS_D [23.976].mp4</name>
															<pathurl>file://localhost/Volumes/T7/DRONE_08.18.2023/4_Project%20Files/Drone%202023%20Master%20Assets/02_Transitions/DRONE%20Transitions%20(24fps)/ATM_DRONE_TRANS_D%20[23.976].mp4</pathurl>
															<rate>
																<timebase>24</timebase>
																<ntsc>TRUE</ntsc>
															</rate>
															<duration>193</duration>
															<timecode>
																<rate>
																	<timebase>24</timebase>
																	<ntsc>TRUE</ntsc>
																</rate>
																<string>00:00:26:19</string>
																<frame>643</frame>
																<displayformat>NDF</displayformat>
															</timecode>
															<media>
																<video>
																	<samplecharacteristics>
																		<rate>
																			<timebase>24</timebase>
																			<ntsc>TRUE</ntsc>
																		</rate>
																		<width>1920</width>
																		<height>1080</height>
																		<anamorphic>FALSE</anamorphic>
																		<pixelaspectratio>square</pixelaspectratio>
																		<fielddominance>none</fielddominance>
																	</samplecharacteristics>
																</video>
																<audio>
																	<samplecharacteristics>
																		<depth>16</depth>
																		<samplerate>32000</samplerate>
																	</samplecharacteristics>
																	<channelcount>2</channelcount>
																</audio>
															</media>
														</file>
														<link>
															<linkclipref>clipitem-794</linkclipref>
															<mediatype>video</mediatype>
															<trackindex>1</trackindex>
															<clipindex>1</clipindex>
														</link>
														<link>
															<linkclipref>clipitem-795</linkclipref>
															<mediatype>audio</mediatype>
															<trackindex>1</trackindex>
															<clipindex>1</clipindex>
															<groupindex>1</groupindex>
														</link>
														<link>
															<linkclipref>clipitem-796</linkclipref>
															<mediatype>audio</mediatype>
															<trackindex>2</trackindex>
															<clipindex>1</clipindex>
															<groupindex>1</groupindex>
														</link>
													</clipitem>
												</track>
											</video>
											<audio>
												<track>
													<clipitem id="clipitem-795">
														<masterclipid>masterclip-354</masterclipid>
														<name>ATM_DRONE_TRANS_D [23.976].mp4</name>
														<rate>
															<timebase>24</timebase>
															<ntsc>TRUE</ntsc>
														</rate>
														<file id="file-326"/>
														<sourcetrack>
															<mediatype>audio</mediatype>
															<trackindex>1</trackindex>
														</sourcetrack>
														<link>
															<linkclipref>clipitem-794</linkclipref>
															<mediatype>video</mediatype>
															<trackindex>1</trackindex>
															<clipindex>1</clipindex>
														</link>
														<link>
															<linkclipref>clipitem-795</linkclipref>
															<mediatype>audio</mediatype>
															<trackindex>1</trackindex>
															<clipindex>1</clipindex>
															<groupindex>1</groupindex>
														</link>
														<link>
															<linkclipref>clipitem-796</linkclipref>
															<mediatype>audio</mediatype>
															<trackindex>2</trackindex>
															<clipindex>1</clipindex>
															<groupindex>1</groupindex>
														</link>
													</clipitem>
												</track>
												<track>
													<clipitem id="clipitem-796">
														<masterclipid>masterclip-354</masterclipid>
														<name>ATM_DRONE_TRANS_D [23.976].mp4</name>
														<rate>
															<timebase>24</timebase>
															<ntsc>TRUE</ntsc>
														</rate>
														<file id="file-326"/>
														<sourcetrack>
															<mediatype>audio</mediatype>
															<trackindex>2</trackindex>
														</sourcetrack>
														<link>
															<linkclipref>clipitem-794</linkclipref>
															<mediatype>video</mediatype>
															<trackindex>1</trackindex>
															<clipindex>1</clipindex>
														</link>
														<link>
															<linkclipref>clipitem-795</linkclipref>
															<mediatype>audio</mediatype>
															<trackindex>1</trackindex>
															<clipindex>1</clipindex>
															<groupindex>1</groupindex>
														</link>
														<link>
															<linkclipref>clipitem-796</linkclipref>
															<mediatype>audio</mediatype>
															<trackindex>2</trackindex>
															<clipindex>1</clipindex>
															<groupindex>1</groupindex>
														</link>
													</clipitem>
												</track>
											</audio>
										</media>
										<logginginfo>
											<description></description>
											<scene></scene>
											<shottake></shottake>
											<lognote></lognote>
											<good></good>
											<originalvideofilename></originalvideofilename>
											<originalaudiofilename></originalaudiofilename>
										</logginginfo>
										<colorinfo>
											<lut></lut>
											<lut1></lut1>
											<asc_sop></asc_sop>
											<asc_sat></asc_sat>
											<lut2></lut2>
										</colorinfo>
										<labels>
											<label2>Iris</label2>
										</labels>
									</clip>
									<clip id="masterclip-355" explodedTracks="true">
										<uuid>c5cac22d-002a-4f0f-bb49-d237e61f0962</uuid>
										<masterclipid>masterclip-355</masterclipid>
										<ismasterclip>TRUE</ismasterclip>
										<duration>193</duration>
										<rate>
											<timebase>24</timebase>
											<ntsc>TRUE</ntsc>
										</rate>
										<name>ATM_DRONE_TRANS_E [23.976].mp4</name>
										<media>
											<video>
												<track>
													<clipitem id="clipitem-797">
														<masterclipid>masterclip-355</masterclipid>
														<name>ATM_DRONE_TRANS_E [23.976].mp4</name>
														<rate>
															<timebase>24</timebase>
															<ntsc>TRUE</ntsc>
														</rate>
														<alphatype>none</alphatype>
														<pixelaspectratio>square</pixelaspectratio>
														<anamorphic>FALSE</anamorphic>
														<file id="file-327">
															<name>ATM_DRONE_TRANS_E [23.976].mp4</name>
															<pathurl>file://localhost/Volumes/T7/DRONE_08.18.2023/4_Project%20Files/Drone%202023%20Master%20Assets/02_Transitions/DRONE%20Transitions%20(24fps)/ATM_DRONE_TRANS_E%20[23.976].mp4</pathurl>
															<rate>
																<timebase>24</timebase>
																<ntsc>TRUE</ntsc>
															</rate>
															<duration>193</duration>
															<timecode>
																<rate>
																	<timebase>24</timebase>
																	<ntsc>TRUE</ntsc>
																</rate>
																<string>00:00:42:22</string>
																<frame>1030</frame>
																<displayformat>NDF</displayformat>
															</timecode>
															<media>
																<video>
																	<samplecharacteristics>
																		<rate>
																			<timebase>24</timebase>
																			<ntsc>TRUE</ntsc>
																		</rate>
																		<width>1920</width>
																		<height>1080</height>
																		<anamorphic>FALSE</anamorphic>
																		<pixelaspectratio>square</pixelaspectratio>
																		<fielddominance>none</fielddominance>
																	</samplecharacteristics>
																</video>
																<audio>
																	<samplecharacteristics>
																		<depth>16</depth>
																		<samplerate>32000</samplerate>
																	</samplecharacteristics>
																	<channelcount>2</channelcount>
																</audio>
															</media>
														</file>
														<link>
															<linkclipref>clipitem-797</linkclipref>
															<mediatype>video</mediatype>
															<trackindex>1</trackindex>
															<clipindex>1</clipindex>
														</link>
														<link>
															<linkclipref>clipitem-798</linkclipref>
															<mediatype>audio</mediatype>
															<trackindex>1</trackindex>
															<clipindex>1</clipindex>
															<groupindex>1</groupindex>
														</link>
														<link>
															<linkclipref>clipitem-799</linkclipref>
															<mediatype>audio</mediatype>
															<trackindex>2</trackindex>
															<clipindex>1</clipindex>
															<groupindex>1</groupindex>
														</link>
													</clipitem>
												</track>
											</video>
											<audio>
												<track>
													<clipitem id="clipitem-798">
														<masterclipid>masterclip-355</masterclipid>
														<name>ATM_DRONE_TRANS_E [23.976].mp4</name>
														<rate>
															<timebase>24</timebase>
															<ntsc>TRUE</ntsc>
														</rate>
														<file id="file-327"/>
														<sourcetrack>
															<mediatype>audio</mediatype>
															<trackindex>1</trackindex>
														</sourcetrack>
														<link>
															<linkclipref>clipitem-797</linkclipref>
															<mediatype>video</mediatype>
															<trackindex>1</trackindex>
															<clipindex>1</clipindex>
														</link>
														<link>
															<linkclipref>clipitem-798</linkclipref>
															<mediatype>audio</mediatype>
															<trackindex>1</trackindex>
															<clipindex>1</clipindex>
															<groupindex>1</groupindex>
														</link>
														<link>
															<linkclipref>clipitem-799</linkclipref>
															<mediatype>audio</mediatype>
															<trackindex>2</trackindex>
															<clipindex>1</clipindex>
															<groupindex>1</groupindex>
														</link>
													</clipitem>
												</track>
												<track>
													<clipitem id="clipitem-799">
														<masterclipid>masterclip-355</masterclipid>
														<name>ATM_DRONE_TRANS_E [23.976].mp4</name>
														<rate>
															<timebase>24</timebase>
															<ntsc>TRUE</ntsc>
														</rate>
														<file id="file-327"/>
														<sourcetrack>
															<mediatype>audio</mediatype>
															<trackindex>2</trackindex>
														</sourcetrack>
														<link>
															<linkclipref>clipitem-797</linkclipref>
															<mediatype>video</mediatype>
															<trackindex>1</trackindex>
															<clipindex>1</clipindex>
														</link>
														<link>
															<linkclipref>clipitem-798</linkclipref>
															<mediatype>audio</mediatype>
															<trackindex>1</trackindex>
															<clipindex>1</clipindex>
															<groupindex>1</groupindex>
														</link>
														<link>
															<linkclipref>clipitem-799</linkclipref>
															<mediatype>audio</mediatype>
															<trackindex>2</trackindex>
															<clipindex>1</clipindex>
															<groupindex>1</groupindex>
														</link>
													</clipitem>
												</track>
											</audio>
										</media>
										<logginginfo>
											<description></description>
											<scene></scene>
											<shottake></shottake>
											<lognote></lognote>
											<good></good>
											<originalvideofilename></originalvideofilename>
											<originalaudiofilename></originalaudiofilename>
										</logginginfo>
										<colorinfo>
											<lut></lut>
											<lut1></lut1>
											<asc_sop></asc_sop>
											<asc_sat></asc_sat>
											<lut2></lut2>
										</colorinfo>
										<labels>
											<label2>Iris</label2>
										</labels>
									</clip>
									<clip id="masterclip-356" explodedTracks="true">
										<uuid>26e4c672-c6db-4613-8032-5638ea5cc34c</uuid>
										<masterclipid>masterclip-356</masterclipid>
										<ismasterclip>TRUE</ismasterclip>
										<duration>197</duration>
										<rate>
											<timebase>24</timebase>
											<ntsc>TRUE</ntsc>
										</rate>
										<name>ATM_DRONE_TRANS_F [23.976].mp4</name>
										<media>
											<video>
												<track>
													<clipitem id="clipitem-800">
														<masterclipid>masterclip-356</masterclipid>
														<name>ATM_DRONE_TRANS_F [23.976].mp4</name>
														<rate>
															<timebase>24</timebase>
															<ntsc>TRUE</ntsc>
														</rate>
														<alphatype>none</alphatype>
														<pixelaspectratio>square</pixelaspectratio>
														<anamorphic>FALSE</anamorphic>
														<file id="file-328">
															<name>ATM_DRONE_TRANS_F [23.976].mp4</name>
															<pathurl>file://localhost/Volumes/T7/DRONE_08.18.2023/4_Project%20Files/Drone%202023%20Master%20Assets/02_Transitions/DRONE%20Transitions%20(24fps)/ATM_DRONE_TRANS_F%20[23.976].mp4</pathurl>
															<rate>
																<timebase>24</timebase>
																<ntsc>TRUE</ntsc>
															</rate>
															<duration>197</duration>
															<timecode>
																<rate>
																	<timebase>24</timebase>
																	<ntsc>TRUE</ntsc>
																</rate>
																<string>00:00:57:04</string>
																<frame>1372</frame>
																<displayformat>NDF</displayformat>
															</timecode>
															<media>
																<video>
																	<samplecharacteristics>
																		<rate>
																			<timebase>24</timebase>
																			<ntsc>TRUE</ntsc>
																		</rate>
																		<width>1920</width>
																		<height>1080</height>
																		<anamorphic>FALSE</anamorphic>
																		<pixelaspectratio>square</pixelaspectratio>
																		<fielddominance>none</fielddominance>
																	</samplecharacteristics>
																</video>
																<audio>
																	<samplecharacteristics>
																		<depth>16</depth>
																		<samplerate>32000</samplerate>
																	</samplecharacteristics>
																	<channelcount>2</channelcount>
																</audio>
															</media>
														</file>
														<link>
															<linkclipref>clipitem-800</linkclipref>
															<mediatype>video</mediatype>
															<trackindex>1</trackindex>
															<clipindex>1</clipindex>
														</link>
														<link>
															<linkclipref>clipitem-801</linkclipref>
															<mediatype>audio</mediatype>
															<trackindex>1</trackindex>
															<clipindex>1</clipindex>
															<groupindex>1</groupindex>
														</link>
														<link>
															<linkclipref>clipitem-802</linkclipref>
															<mediatype>audio</mediatype>
															<trackindex>2</trackindex>
															<clipindex>1</clipindex>
															<groupindex>1</groupindex>
														</link>
													</clipitem>
												</track>
											</video>
											<audio>
												<track>
													<clipitem id="clipitem-801">
														<masterclipid>masterclip-356</masterclipid>
														<name>ATM_DRONE_TRANS_F [23.976].mp4</name>
														<rate>
															<timebase>24</timebase>
															<ntsc>TRUE</ntsc>
														</rate>
														<file id="file-328"/>
														<sourcetrack>
															<mediatype>audio</mediatype>
															<trackindex>1</trackindex>
														</sourcetrack>
														<link>
															<linkclipref>clipitem-800</linkclipref>
															<mediatype>video</mediatype>
															<trackindex>1</trackindex>
															<clipindex>1</clipindex>
														</link>
														<link>
															<linkclipref>clipitem-801</linkclipref>
															<mediatype>audio</mediatype>
															<trackindex>1</trackindex>
															<clipindex>1</clipindex>
															<groupindex>1</groupindex>
														</link>
														<link>
															<linkclipref>clipitem-802</linkclipref>
															<mediatype>audio</mediatype>
															<trackindex>2</trackindex>
															<clipindex>1</clipindex>
															<groupindex>1</groupindex>
														</link>
													</clipitem>
												</track>
												<track>
													<clipitem id="clipitem-802">
														<masterclipid>masterclip-356</masterclipid>
														<name>ATM_DRONE_TRANS_F [23.976].mp4</name>
														<rate>
															<timebase>24</timebase>
															<ntsc>TRUE</ntsc>
														</rate>
														<file id="file-328"/>
														<sourcetrack>
															<mediatype>audio</mediatype>
															<trackindex>2</trackindex>
														</sourcetrack>
														<link>
															<linkclipref>clipitem-800</linkclipref>
															<mediatype>video</mediatype>
															<trackindex>1</trackindex>
															<clipindex>1</clipindex>
														</link>
														<link>
															<linkclipref>clipitem-801</linkclipref>
															<mediatype>audio</mediatype>
															<trackindex>1</trackindex>
															<clipindex>1</clipindex>
															<groupindex>1</groupindex>
														</link>
														<link>
															<linkclipref>clipitem-802</linkclipref>
															<mediatype>audio</mediatype>
															<trackindex>2</trackindex>
															<clipindex>1</clipindex>
															<groupindex>1</groupindex>
														</link>
													</clipitem>
												</track>
											</audio>
										</media>
										<logginginfo>
											<description></description>
											<scene></scene>
											<shottake></shottake>
											<lognote></lognote>
											<good></good>
											<originalvideofilename></originalvideofilename>
											<originalaudiofilename></originalaudiofilename>
										</logginginfo>
										<colorinfo>
											<lut></lut>
											<lut1></lut1>
											<asc_sop></asc_sop>
											<asc_sat></asc_sat>
											<lut2></lut2>
										</colorinfo>
										<labels>
											<label2>Iris</label2>
										</labels>
									</clip>
									<clip id="masterclip-357" explodedTracks="true">
										<uuid>f54c168e-7684-4bb5-bdc1-eee5abde5e57</uuid>
										<masterclipid>masterclip-357</masterclipid>
										<ismasterclip>TRUE</ismasterclip>
										<duration>197</duration>
										<rate>
											<timebase>24</timebase>
											<ntsc>TRUE</ntsc>
										</rate>
										<name>ATM_DRONE_TRANS_G [23.976].mp4</name>
										<media>
											<video>
												<track>
													<clipitem id="clipitem-803">
														<masterclipid>masterclip-357</masterclipid>
														<name>ATM_DRONE_TRANS_G [23.976].mp4</name>
														<rate>
															<timebase>24</timebase>
															<ntsc>TRUE</ntsc>
														</rate>
														<alphatype>none</alphatype>
														<pixelaspectratio>square</pixelaspectratio>
														<anamorphic>FALSE</anamorphic>
														<file id="file-329">
															<name>ATM_DRONE_TRANS_G [23.976].mp4</name>
															<pathurl>file://localhost/Volumes/T7/DRONE_08.18.2023/4_Project%20Files/Drone%202023%20Master%20Assets/02_Transitions/DRONE%20Transitions%20(24fps)/ATM_DRONE_TRANS_G%20[23.976].mp4</pathurl>
															<rate>
																<timebase>24</timebase>
																<ntsc>TRUE</ntsc>
															</rate>
															<duration>197</duration>
															<timecode>
																<rate>
																	<timebase>24</timebase>
																	<ntsc>TRUE</ntsc>
																</rate>
																<string>00:01:10:14</string>
																<frame>1694</frame>
																<displayformat>NDF</displayformat>
															</timecode>
															<media>
																<video>
																	<samplecharacteristics>
																		<rate>
																			<timebase>24</timebase>
																			<ntsc>TRUE</ntsc>
																		</rate>
																		<width>1920</width>
																		<height>1080</height>
																		<anamorphic>FALSE</anamorphic>
																		<pixelaspectratio>square</pixelaspectratio>
																		<fielddominance>none</fielddominance>
																	</samplecharacteristics>
																</video>
																<audio>
																	<samplecharacteristics>
																		<depth>16</depth>
																		<samplerate>32000</samplerate>
																	</samplecharacteristics>
																	<channelcount>2</channelcount>
																</audio>
															</media>
														</file>
														<link>
															<linkclipref>clipitem-803</linkclipref>
															<mediatype>video</mediatype>
															<trackindex>1</trackindex>
															<clipindex>1</clipindex>
														</link>
														<link>
															<linkclipref>clipitem-804</linkclipref>
															<mediatype>audio</mediatype>
															<trackindex>1</trackindex>
															<clipindex>1</clipindex>
															<groupindex>1</groupindex>
														</link>
														<link>
															<linkclipref>clipitem-805</linkclipref>
															<mediatype>audio</mediatype>
															<trackindex>2</trackindex>
															<clipindex>1</clipindex>
															<groupindex>1</groupindex>
														</link>
													</clipitem>
												</track>
											</video>
											<audio>
												<track>
													<clipitem id="clipitem-804">
														<masterclipid>masterclip-357</masterclipid>
														<name>ATM_DRONE_TRANS_G [23.976].mp4</name>
														<rate>
															<timebase>24</timebase>
															<ntsc>TRUE</ntsc>
														</rate>
														<file id="file-329"/>
														<sourcetrack>
															<mediatype>audio</mediatype>
															<trackindex>1</trackindex>
														</sourcetrack>
														<link>
															<linkclipref>clipitem-803</linkclipref>
															<mediatype>video</mediatype>
															<trackindex>1</trackindex>
															<clipindex>1</clipindex>
														</link>
														<link>
															<linkclipref>clipitem-804</linkclipref>
															<mediatype>audio</mediatype>
															<trackindex>1</trackindex>
															<clipindex>1</clipindex>
															<groupindex>1</groupindex>
														</link>
														<link>
															<linkclipref>clipitem-805</linkclipref>
															<mediatype>audio</mediatype>
															<trackindex>2</trackindex>
															<clipindex>1</clipindex>
															<groupindex>1</groupindex>
														</link>
													</clipitem>
												</track>
												<track>
													<clipitem id="clipitem-805">
														<masterclipid>masterclip-357</masterclipid>
														<name>ATM_DRONE_TRANS_G [23.976].mp4</name>
														<rate>
															<timebase>24</timebase>
															<ntsc>TRUE</ntsc>
														</rate>
														<file id="file-329"/>
														<sourcetrack>
															<mediatype>audio</mediatype>
															<trackindex>2</trackindex>
														</sourcetrack>
														<link>
															<linkclipref>clipitem-803</linkclipref>
															<mediatype>video</mediatype>
															<trackindex>1</trackindex>
															<clipindex>1</clipindex>
														</link>
														<link>
															<linkclipref>clipitem-804</linkclipref>
															<mediatype>audio</mediatype>
															<trackindex>1</trackindex>
															<clipindex>1</clipindex>
															<groupindex>1</groupindex>
														</link>
														<link>
															<linkclipref>clipitem-805</linkclipref>
															<mediatype>audio</mediatype>
															<trackindex>2</trackindex>
															<clipindex>1</clipindex>
															<groupindex>1</groupindex>
														</link>
													</clipitem>
												</track>
											</audio>
										</media>
										<logginginfo>
											<description></description>
											<scene></scene>
											<shottake></shottake>
											<lognote></lognote>
											<good></good>
											<originalvideofilename></originalvideofilename>
											<originalaudiofilename></originalaudiofilename>
										</logginginfo>
										<colorinfo>
											<lut></lut>
											<lut1></lut1>
											<asc_sop></asc_sop>
											<asc_sat></asc_sat>
											<lut2></lut2>
										</colorinfo>
										<labels>
											<label2>Iris</label2>
										</labels>
									</clip>
									<clip id="masterclip-358" explodedTracks="true">
										<uuid>d65aa5dd-4103-4fa5-81a5-e5e5b446ddb4</uuid>
										<masterclipid>masterclip-358</masterclipid>
										<ismasterclip>TRUE</ismasterclip>
										<duration>197</duration>
										<rate>
											<timebase>24</timebase>
											<ntsc>TRUE</ntsc>
										</rate>
										<name>ATM_DRONE_TRANS_H [23.976].mp4</name>
										<media>
											<video>
												<track>
													<clipitem id="clipitem-806">
														<masterclipid>masterclip-358</masterclipid>
														<name>ATM_DRONE_TRANS_H [23.976].mp4</name>
														<rate>
															<timebase>24</timebase>
															<ntsc>TRUE</ntsc>
														</rate>
														<alphatype>none</alphatype>
														<pixelaspectratio>square</pixelaspectratio>
														<anamorphic>FALSE</anamorphic>
														<file id="file-330">
															<name>ATM_DRONE_TRANS_H [23.976].mp4</name>
															<pathurl>file://localhost/Volumes/T7/DRONE_08.18.2023/4_Project%20Files/Drone%202023%20Master%20Assets/02_Transitions/DRONE%20Transitions%20(24fps)/ATM_DRONE_TRANS_H%20[23.976].mp4</pathurl>
															<rate>
																<timebase>24</timebase>
																<ntsc>TRUE</ntsc>
															</rate>
															<duration>197</duration>
															<timecode>
																<rate>
																	<timebase>24</timebase>
																	<ntsc>TRUE</ntsc>
																</rate>
																<string>00:01:26:03</string>
																<frame>2067</frame>
																<displayformat>NDF</displayformat>
															</timecode>
															<media>
																<video>
																	<samplecharacteristics>
																		<rate>
																			<timebase>24</timebase>
																			<ntsc>TRUE</ntsc>
																		</rate>
																		<width>1920</width>
																		<height>1080</height>
																		<anamorphic>FALSE</anamorphic>
																		<pixelaspectratio>square</pixelaspectratio>
																		<fielddominance>none</fielddominance>
																	</samplecharacteristics>
																</video>
																<audio>
																	<samplecharacteristics>
																		<depth>16</depth>
																		<samplerate>32000</samplerate>
																	</samplecharacteristics>
																	<channelcount>2</channelcount>
																</audio>
															</media>
														</file>
														<link>
															<linkclipref>clipitem-806</linkclipref>
															<mediatype>video</mediatype>
															<trackindex>1</trackindex>
															<clipindex>1</clipindex>
														</link>
														<link>
															<linkclipref>clipitem-807</linkclipref>
															<mediatype>audio</mediatype>
															<trackindex>1</trackindex>
															<clipindex>1</clipindex>
															<groupindex>1</groupindex>
														</link>
														<link>
															<linkclipref>clipitem-808</linkclipref>
															<mediatype>audio</mediatype>
															<trackindex>2</trackindex>
															<clipindex>1</clipindex>
															<groupindex>1</groupindex>
														</link>
													</clipitem>
												</track>
											</video>
											<audio>
												<track>
													<clipitem id="clipitem-807">
														<masterclipid>masterclip-358</masterclipid>
														<name>ATM_DRONE_TRANS_H [23.976].mp4</name>
														<rate>
															<timebase>24</timebase>
															<ntsc>TRUE</ntsc>
														</rate>
														<file id="file-330"/>
														<sourcetrack>
															<mediatype>audio</mediatype>
															<trackindex>1</trackindex>
														</sourcetrack>
														<link>
															<linkclipref>clipitem-806</linkclipref>
															<mediatype>video</mediatype>
															<trackindex>1</trackindex>
															<clipindex>1</clipindex>
														</link>
														<link>
															<linkclipref>clipitem-807</linkclipref>
															<mediatype>audio</mediatype>
															<trackindex>1</trackindex>
															<clipindex>1</clipindex>
															<groupindex>1</groupindex>
														</link>
														<link>
															<linkclipref>clipitem-808</linkclipref>
															<mediatype>audio</mediatype>
															<trackindex>2</trackindex>
															<clipindex>1</clipindex>
															<groupindex>1</groupindex>
														</link>
													</clipitem>
												</track>
												<track>
													<clipitem id="clipitem-808">
														<masterclipid>masterclip-358</masterclipid>
														<name>ATM_DRONE_TRANS_H [23.976].mp4</name>
														<rate>
															<timebase>24</timebase>
															<ntsc>TRUE</ntsc>
														</rate>
														<file id="file-330"/>
														<sourcetrack>
															<mediatype>audio</mediatype>
															<trackindex>2</trackindex>
														</sourcetrack>
														<link>
															<linkclipref>clipitem-806</linkclipref>
															<mediatype>video</mediatype>
															<trackindex>1</trackindex>
															<clipindex>1</clipindex>
														</link>
														<link>
															<linkclipref>clipitem-807</linkclipref>
															<mediatype>audio</mediatype>
															<trackindex>1</trackindex>
															<clipindex>1</clipindex>
															<groupindex>1</groupindex>
														</link>
														<link>
															<linkclipref>clipitem-808</linkclipref>
															<mediatype>audio</mediatype>
															<trackindex>2</trackindex>
															<clipindex>1</clipindex>
															<groupindex>1</groupindex>
														</link>
													</clipitem>
												</track>
											</audio>
										</media>
										<logginginfo>
											<description></description>
											<scene></scene>
											<shottake></shottake>
											<lognote></lognote>
											<good></good>
											<originalvideofilename></originalvideofilename>
											<originalaudiofilename></originalaudiofilename>
										</logginginfo>
										<colorinfo>
											<lut></lut>
											<lut1></lut1>
											<asc_sop></asc_sop>
											<asc_sat></asc_sat>
											<lut2></lut2>
										</colorinfo>
										<labels>
											<label2>Iris</label2>
										</labels>
									</clip>
									<clip id="masterclip-359" explodedTracks="true">
										<uuid>c56407e8-b863-4474-a396-f75e8ec194fe</uuid>
										<masterclipid>masterclip-359</masterclipid>
										<ismasterclip>TRUE</ismasterclip>
										<duration>197</duration>
										<rate>
											<timebase>24</timebase>
											<ntsc>TRUE</ntsc>
										</rate>
										<name>ATM_DRONE_TRANS_I [23.976].mp4</name>
										<media>
											<video>
												<track>
													<clipitem id="clipitem-809">
														<masterclipid>masterclip-359</masterclipid>
														<name>ATM_DRONE_TRANS_I [23.976].mp4</name>
														<rate>
															<timebase>24</timebase>
															<ntsc>TRUE</ntsc>
														</rate>
														<alphatype>none</alphatype>
														<pixelaspectratio>square</pixelaspectratio>
														<anamorphic>FALSE</anamorphic>
														<file id="file-331">
															<name>ATM_DRONE_TRANS_I [23.976].mp4</name>
															<pathurl>file://localhost/Volumes/T7/DRONE_08.18.2023/4_Project%20Files/Drone%202023%20Master%20Assets/02_Transitions/DRONE%20Transitions%20(24fps)/ATM_DRONE_TRANS_I%20[23.976].mp4</pathurl>
															<rate>
																<timebase>24</timebase>
																<ntsc>TRUE</ntsc>
															</rate>
															<duration>197</duration>
															<timecode>
																<rate>
																	<timebase>24</timebase>
																	<ntsc>TRUE</ntsc>
																</rate>
																<string>00:01:40:02</string>
																<frame>2402</frame>
																<displayformat>NDF</displayformat>
															</timecode>
															<media>
																<video>
																	<samplecharacteristics>
																		<rate>
																			<timebase>24</timebase>
																			<ntsc>TRUE</ntsc>
																		</rate>
																		<width>1920</width>
																		<height>1080</height>
																		<anamorphic>FALSE</anamorphic>
																		<pixelaspectratio>square</pixelaspectratio>
																		<fielddominance>none</fielddominance>
																	</samplecharacteristics>
																</video>
																<audio>
																	<samplecharacteristics>
																		<depth>16</depth>
																		<samplerate>32000</samplerate>
																	</samplecharacteristics>
																	<channelcount>2</channelcount>
																</audio>
															</media>
														</file>
														<link>
															<linkclipref>clipitem-809</linkclipref>
															<mediatype>video</mediatype>
															<trackindex>1</trackindex>
															<clipindex>1</clipindex>
														</link>
														<link>
															<linkclipref>clipitem-810</linkclipref>
															<mediatype>audio</mediatype>
															<trackindex>1</trackindex>
															<clipindex>1</clipindex>
															<groupindex>1</groupindex>
														</link>
														<link>
															<linkclipref>clipitem-811</linkclipref>
															<mediatype>audio</mediatype>
															<trackindex>2</trackindex>
															<clipindex>1</clipindex>
															<groupindex>1</groupindex>
														</link>
													</clipitem>
												</track>
											</video>
											<audio>
												<track>
													<clipitem id="clipitem-810">
														<masterclipid>masterclip-359</masterclipid>
														<name>ATM_DRONE_TRANS_I [23.976].mp4</name>
														<rate>
															<timebase>24</timebase>
															<ntsc>TRUE</ntsc>
														</rate>
														<file id="file-331"/>
														<sourcetrack>
															<mediatype>audio</mediatype>
															<trackindex>1</trackindex>
														</sourcetrack>
														<link>
															<linkclipref>clipitem-809</linkclipref>
															<mediatype>video</mediatype>
															<trackindex>1</trackindex>
															<clipindex>1</clipindex>
														</link>
														<link>
															<linkclipref>clipitem-810</linkclipref>
															<mediatype>audio</mediatype>
															<trackindex>1</trackindex>
															<clipindex>1</clipindex>
															<groupindex>1</groupindex>
														</link>
														<link>
															<linkclipref>clipitem-811</linkclipref>
															<mediatype>audio</mediatype>
															<trackindex>2</trackindex>
															<clipindex>1</clipindex>
															<groupindex>1</groupindex>
														</link>
													</clipitem>
												</track>
												<track>
													<clipitem id="clipitem-811">
														<masterclipid>masterclip-359</masterclipid>
														<name>ATM_DRONE_TRANS_I [23.976].mp4</name>
														<rate>
															<timebase>24</timebase>
															<ntsc>TRUE</ntsc>
														</rate>
														<file id="file-331"/>
														<sourcetrack>
															<mediatype>audio</mediatype>
															<trackindex>2</trackindex>
														</sourcetrack>
														<link>
															<linkclipref>clipitem-809</linkclipref>
															<mediatype>video</mediatype>
															<trackindex>1</trackindex>
															<clipindex>1</clipindex>
														</link>
														<link>
															<linkclipref>clipitem-810</linkclipref>
															<mediatype>audio</mediatype>
															<trackindex>1</trackindex>
															<clipindex>1</clipindex>
															<groupindex>1</groupindex>
														</link>
														<link>
															<linkclipref>clipitem-811</linkclipref>
															<mediatype>audio</mediatype>
															<trackindex>2</trackindex>
															<clipindex>1</clipindex>
															<groupindex>1</groupindex>
														</link>
													</clipitem>
												</track>
											</audio>
										</media>
										<logginginfo>
											<description></description>
											<scene></scene>
											<shottake></shottake>
											<lognote></lognote>
											<good></good>
											<originalvideofilename></originalvideofilename>
											<originalaudiofilename></originalaudiofilename>
										</logginginfo>
										<colorinfo>
											<lut></lut>
											<lut1></lut1>
											<asc_sop></asc_sop>
											<asc_sat></asc_sat>
											<lut2></lut2>
										</colorinfo>
										<labels>
											<label2>Iris</label2>
										</labels>
									</clip>
								</children>
							</bin>
						</children>
					</bin>
					<bin>
						<name>Assets</name>
						<labels>
							<label2>Forest</label2>
						</labels>
						<children>
<sequence id="sequence-7"/>
<sequence id="sequence-8"/>
							<clip id="masterclip-360" explodedTracks="true">
								<uuid>4a40327e-aa44-4207-b56f-57a828311131</uuid>
								<masterclipid>masterclip-360</masterclipid>
								<ismasterclip>TRUE</ismasterclip>
								<duration>150</duration>
								<rate>
									<timebase>30</timebase>
									<ntsc>TRUE</ntsc>
								</rate>
								<in>0</in>
								<out>149</out>
								<name>Layer</name>
								<media>
									<video>
										<track>
											<clipitem id="clipitem-812">
												<masterclipid>masterclip-360</masterclipid>
												<name>Layer</name>
												<rate>
													<timebase>30</timebase>
													<ntsc>TRUE</ntsc>
												</rate>
												<alphatype>none</alphatype>
												<pixelaspectratio>square</pixelaspectratio>
												<anamorphic>FALSE</anamorphic>
												<file id="file-332">
													<name>Black Video</name>
													<mediaSource>Slug</mediaSource>
													<rate>
														<timebase>30</timebase>
														<ntsc>TRUE</ntsc>
													</rate>
													<timecode>
														<rate>
															<timebase>30</timebase>
															<ntsc>TRUE</ntsc>
														</rate>
														<string>00;00;00;00</string>
														<frame>0</frame>
														<displayformat>DF</displayformat>
													</timecode>
													<media>
														<video>
															<samplecharacteristics>
																<rate>
																	<timebase>30</timebase>
																	<ntsc>TRUE</ntsc>
																</rate>
																<width>1920</width>
																<height>1080</height>
																<anamorphic>FALSE</anamorphic>
																<pixelaspectratio>square</pixelaspectratio>
																<fielddominance>none</fielddominance>
															</samplecharacteristics>
														</video>
													</media>
												</file>
											</clipitem>
										</track>
									</video>
								</media>
								<logginginfo>
									<description></description>
									<scene></scene>
									<shottake></shottake>
									<lognote></lognote>
									<good></good>
									<originalvideofilename></originalvideofilename>
									<originalaudiofilename></originalaudiofilename>
								</logginginfo>
								<colorinfo>
									<lut></lut>
									<lut1></lut1>
									<asc_sop></asc_sop>
									<asc_sat></asc_sat>
									<lut2></lut2>
								</colorinfo>
								<labels>
									<label2>Lavender</label2>
								</labels>
							</clip>
							<clip id="masterclip-361" explodedTracks="true">
								<uuid>786a50ae-6993-4841-961a-996be7c71806</uuid>
								<masterclipid>masterclip-361</masterclipid>
								<ismasterclip>TRUE</ismasterclip>
								<duration>150</duration>
								<rate>
									<timebase>30</timebase>
									<ntsc>TRUE</ntsc>
								</rate>
								<in>0</in>
								<out>149</out>
								<name>Lense layer</name>
								<media>
									<video>
										<track>
											<clipitem id="clipitem-813">
												<masterclipid>masterclip-361</masterclipid>
												<name>Lense layer</name>
												<rate>
													<timebase>30</timebase>
													<ntsc>TRUE</ntsc>
												</rate>
												<alphatype>none</alphatype>
												<pixelaspectratio>square</pixelaspectratio>
												<anamorphic>FALSE</anamorphic>
												<file id="file-333">
													<name>Black Video</name>
													<mediaSource>Slug</mediaSource>
													<rate>
														<timebase>30</timebase>
														<ntsc>TRUE</ntsc>
													</rate>
													<timecode>
														<rate>
															<timebase>30</timebase>
															<ntsc>TRUE</ntsc>
														</rate>
														<string>00;00;00;00</string>
														<frame>0</frame>
														<displayformat>DF</displayformat>
													</timecode>
													<media>
														<video>
															<samplecharacteristics>
																<rate>
																	<timebase>30</timebase>
																	<ntsc>TRUE</ntsc>
																</rate>
																<width>1920</width>
																<height>1080</height>
																<anamorphic>FALSE</anamorphic>
																<pixelaspectratio>square</pixelaspectratio>
																<fielddominance>none</fielddominance>
															</samplecharacteristics>
														</video>
													</media>
												</file>
											</clipitem>
										</track>
									</video>
								</media>
								<logginginfo>
									<description></description>
									<scene></scene>
									<shottake></shottake>
									<lognote></lognote>
									<good></good>
									<originalvideofilename></originalvideofilename>
									<originalaudiofilename></originalaudiofilename>
								</logginginfo>
								<colorinfo>
									<lut></lut>
									<lut1></lut1>
									<asc_sop></asc_sop>
									<asc_sat></asc_sat>
									<lut2></lut2>
								</colorinfo>
								<labels>
									<label2>Lavender</label2>
								</labels>
							</clip>
							<clip id="masterclip-362" explodedTracks="true">
								<uuid>72c9bce2-f123-459d-8073-89a5c422af16</uuid>
								<masterclipid>masterclip-362</masterclipid>
								<ismasterclip>TRUE</ismasterclip>
								<duration>150</duration>
								<rate>
									<timebase>30</timebase>
									<ntsc>TRUE</ntsc>
								</rate>
								<in>0</in>
								<out>149</out>
								<name>Offset Layer</name>
								<media>
									<video>
										<track>
											<clipitem id="clipitem-814">
												<masterclipid>masterclip-362</masterclipid>
												<name>Offset Layer</name>
												<rate>
													<timebase>30</timebase>
													<ntsc>TRUE</ntsc>
												</rate>
												<alphatype>none</alphatype>
												<pixelaspectratio>square</pixelaspectratio>
												<anamorphic>FALSE</anamorphic>
												<file id="file-334">
													<name>Black Video</name>
													<mediaSource>Slug</mediaSource>
													<rate>
														<timebase>30</timebase>
														<ntsc>TRUE</ntsc>
													</rate>
													<timecode>
														<rate>
															<timebase>30</timebase>
															<ntsc>TRUE</ntsc>
														</rate>
														<string>00;00;00;00</string>
														<frame>0</frame>
														<displayformat>DF</displayformat>
													</timecode>
													<media>
														<video>
															<samplecharacteristics>
																<rate>
																	<timebase>30</timebase>
																	<ntsc>TRUE</ntsc>
																</rate>
																<width>1920</width>
																<height>1080</height>
																<anamorphic>FALSE</anamorphic>
																<pixelaspectratio>square</pixelaspectratio>
																<fielddominance>none</fielddominance>
															</samplecharacteristics>
														</video>
													</media>
												</file>
											</clipitem>
										</track>
									</video>
								</media>
								<logginginfo>
									<description></description>
									<scene></scene>
									<shottake></shottake>
									<lognote></lognote>
									<good></good>
									<originalvideofilename></originalvideofilename>
									<originalaudiofilename></originalaudiofilename>
								</logginginfo>
								<colorinfo>
									<lut></lut>
									<lut1></lut1>
									<asc_sop></asc_sop>
									<asc_sat></asc_sat>
									<lut2></lut2>
								</colorinfo>
								<labels>
									<label2>Lavender</label2>
								</labels>
							</clip>
							<clip id="masterclip-349" explodedTracks="true">
								<uuid>6974815a-311a-40c3-98f5-70b8ce47dcd3</uuid>
								<masterclipid>masterclip-349</masterclipid>
								<ismasterclip>TRUE</ismasterclip>
								<duration>150</duration>
								<rate>
									<timebase>30</timebase>
									<ntsc>TRUE</ntsc>
								</rate>
								<in>0</in>
								<out>149</out>
								<name>Picture 01.jpeg</name>
								<media>
									<video>
										<track>
											<clipitem id="clipitem-815">
												<masterclipid>masterclip-349</masterclipid>
												<name>Picture 01.jpeg</name>
												<rate>
													<timebase>30</timebase>
													<ntsc>TRUE</ntsc>
												</rate>
												<alphatype>none</alphatype>
												<file id="file-321"/>
											</clipitem>
										</track>
									</video>
								</media>
								<logginginfo>
									<description></description>
									<scene></scene>
									<shottake></shottake>
									<lognote></lognote>
									<good></good>
									<originalvideofilename></originalvideofilename>
									<originalaudiofilename></originalaudiofilename>
								</logginginfo>
								<colorinfo>
									<lut></lut>
									<lut1></lut1>
									<asc_sop></asc_sop>
									<asc_sat></asc_sat>
									<lut2></lut2>
								</colorinfo>
								<labels>
									<label2>Lavender</label2>
								</labels>
							</clip>
							<clip id="masterclip-350" explodedTracks="true">
								<uuid>0de0cf4b-d652-4fab-86d4-e6d297a97a2e</uuid>
								<masterclipid>masterclip-350</masterclipid>
								<ismasterclip>TRUE</ismasterclip>
								<duration>150</duration>
								<rate>
									<timebase>30</timebase>
									<ntsc>TRUE</ntsc>
								</rate>
								<in>0</in>
								<out>149</out>
								<name>Picture 02.jpg</name>
								<media>
									<video>
										<track>
											<clipitem id="clipitem-816">
												<masterclipid>masterclip-350</masterclipid>
												<name>Picture 02.jpg</name>
												<rate>
													<timebase>30</timebase>
													<ntsc>TRUE</ntsc>
												</rate>
												<alphatype>none</alphatype>
												<file id="file-322"/>
											</clipitem>
										</track>
									</video>
								</media>
								<logginginfo>
									<description></description>
									<scene></scene>
									<shottake></shottake>
									<lognote></lognote>
									<good></good>
									<originalvideofilename></originalvideofilename>
									<originalaudiofilename></originalaudiofilename>
								</logginginfo>
								<colorinfo>
									<lut></lut>
									<lut1></lut1>
									<asc_sop></asc_sop>
									<asc_sat></asc_sat>
									<lut2></lut2>
								</colorinfo>
								<labels>
									<label2>Lavender</label2>
								</labels>
							</clip>
						</children>
					</bin>
					<bin>
						<name>24fps Nest</name>
						<labels>
							<label2>Mango</label2>
						</labels>
						<children>
							<sequence id="sequence-62" TL.SQAudioVisibleBase="0" TL.SQVideoVisibleBase="0" TL.SQVisibleBaseTime="0" TL.SQAVDividerPosition="0.5" TL.SQHideShyTracks="0" TL.SQHeaderWidth="236" Monitor.ProgramZoomOut="1875241368000" Monitor.ProgramZoomIn="0" TL.SQTimePerPixel="0.019860836197574491" MZ.EditLine="1684538856000" MZ.Sequence.PreviewFrameSizeHeight="1080" MZ.Sequence.PreviewFrameSizeWidth="1920" MZ.Sequence.AudioTimeDisplayFormat="200" MZ.Sequence.PreviewRenderingClassID="1297106761" MZ.Sequence.PreviewRenderingPresetCodec="1297107278" MZ.Sequence.PreviewRenderingPresetPath="EncoderPresets/SequencePreview/795454d9-d3c2-429d-9474-923ab13b7018/I-Frame Only MPEG.epr" MZ.Sequence.PreviewUseMaxRenderQuality="false" MZ.Sequence.PreviewUseMaxBitDepth="false" MZ.Sequence.EditingModeGUID="795454d9-d3c2-429d-9474-923ab13b7018" MZ.Sequence.VideoTimeDisplayFormat="110" MZ.WorkOutPoint="15239249625600" MZ.WorkInPoint="0" explodedTracks="true">
								<uuid>cdc1e31d-9713-4fe3-9c32-6a4ec261a8a9</uuid>
								<duration>177</duration>
								<rate>
									<timebase>24</timebase>
									<ntsc>TRUE</ntsc>
								</rate>
								<name>Trans H</name>
								<media>
									<video>
										<format>
											<samplecharacteristics>
												<rate>
													<timebase>24</timebase>
													<ntsc>TRUE</ntsc>
												</rate>
												<codec>
													<name>Apple ProRes 422</name>
													<appspecificdata>
														<appname>Final Cut Pro</appname>
														<appmanufacturer>Apple Inc.</appmanufacturer>
														<appversion>7.0</appversion>
														<data>
															<qtcodec>
																<codecname>Apple ProRes 422</codecname>
																<codectypename>Apple ProRes 422</codectypename>
																<codectypecode>apcn</codectypecode>
																<codecvendorcode>appl</codecvendorcode>
																<spatialquality>1024</spatialquality>
																<temporalquality>0</temporalquality>
																<keyframerate>0</keyframerate>
																<datarate>0</datarate>
															</qtcodec>
														</data>
													</appspecificdata>
												</codec>
												<width>1920</width>
												<height>1080</height>
												<anamorphic>FALSE</anamorphic>
												<pixelaspectratio>square</pixelaspectratio>
												<fielddominance>none</fielddominance>
												<colordepth>24</colordepth>
											</samplecharacteristics>
										</format>
										<track TL.SQTrackShy="0" TL.SQTrackExpandedHeight="25" TL.SQTrackExpanded="0" MZ.TrackTargeted="1">
											<clipitem id="clipitem-817">
												<masterclipid>masterclip-358</masterclipid>
												<name>ATM_DRONE_TRANS_H [23.976].mp4</name>
												<enabled>TRUE</enabled>
												<duration>197</duration>
												<rate>
													<timebase>24</timebase>
													<ntsc>TRUE</ntsc>
												</rate>
												<start>8</start>
												<end>167</end>
												<in>29</in>
												<out>188</out>
												<pproTicksIn>307242936000</pproTicksIn>
												<pproTicksOut>1991781792000</pproTicksOut>
												<alphatype>none</alphatype>
												<file id="file-330"/>
												<logginginfo>
													<description></description>
													<scene></scene>
													<shottake></shottake>
													<lognote></lognote>
													<good></good>
													<originalvideofilename></originalvideofilename>
													<originalaudiofilename></originalaudiofilename>
												</logginginfo>
												<colorinfo>
													<lut></lut>
													<lut1></lut1>
													<asc_sop></asc_sop>
													<asc_sat></asc_sat>
													<lut2></lut2>
												</colorinfo>
												<labels>
													<label2>Iris</label2>
												</labels>
											</clipitem>
											<enabled>TRUE</enabled>
											<locked>FALSE</locked>
										</track>
										<track TL.SQTrackShy="0" TL.SQTrackExpandedHeight="25" TL.SQTrackExpanded="0" MZ.TrackTargeted="0">
											<clipitem id="clipitem-818">
												<masterclipid>masterclip-157</masterclipid>
												<name>02 Zoom In - Quick / Transform Out</name>
												<enabled>TRUE</enabled>
												<duration>1035764</duration>
												<rate>
													<timebase>24</timebase>
													<ntsc>TRUE</ntsc>
												</rate>
												<start>0</start>
												<end>8</end>
												<in>0</in>
												<out>8</out>
												<pproTicksIn>0</pproTicksIn>
												<pproTicksOut>84756672000</pproTicksOut>
												<sequence id="sequence-7"/>
													<marker>
														<comment></comment>
														<name></name>
														<in>16</in>
														<out>-1</out>
													</marker>
												<labels>
													<label2>Iris</label2>
												</labels>
											</clipitem>
											<clipitem id="clipitem-819">
												<masterclipid>masterclip-159</masterclipid>
												<name>02 Zoom In - Quick / Transform In</name>
												<enabled>TRUE</enabled>
												<duration>1035764</duration>
												<rate>
													<timebase>24</timebase>
													<ntsc>TRUE</ntsc>
												</rate>
												<start>8</start>
												<end>13</end>
												<in>0</in>
												<out>7</out>
												<pproTicksIn>0</pproTicksIn>
												<pproTicksOut>74162088000</pproTicksOut>
												<sequence id="sequence-8"/>
												<labels>
													<label2>Iris</label2>
												</labels>
											</clipitem>
											<clipitem id="clipitem-820">
												<masterclipid>masterclip-157</masterclipid>
												<name>03 Zoom Out - Quick / Transform Out</name>
												<enabled>TRUE</enabled>
												<duration>1035764</duration>
												<rate>
													<timebase>24</timebase>
													<ntsc>TRUE</ntsc>
												</rate>
												<start>160</start>
												<end>167</end>
												<in>0</in>
												<out>8</out>
												<pproTicksIn>0</pproTicksIn>
												<pproTicksOut>84756672000</pproTicksOut>
												<sequence id="sequence-7"/>
													<marker>
														<comment></comment>
														<name></name>
														<in>16</in>
														<out>-1</out>
													</marker>
												<labels>
													<label2>Iris</label2>
												</labels>
											</clipitem>
											<clipitem id="clipitem-821">
												<masterclipid>masterclip-159</masterclipid>
												<name>03 Zoom Out - Quick / Transform In</name>
												<enabled>TRUE</enabled>
												<duration>1035764</duration>
												<rate>
													<timebase>24</timebase>
													<ntsc>TRUE</ntsc>
												</rate>
												<start>167</start>
												<end>175</end>
												<in>0</in>
												<out>8</out>
												<pproTicksIn>0</pproTicksIn>
												<pproTicksOut>84756672000</pproTicksOut>
												<sequence id="sequence-8"/>
												<filter>
													<effect>
														<name>Basic Motion</name>
														<effectid>basic</effectid>
														<effectcategory>motion</effectcategory>
														<effecttype>motion</effecttype>
														<mediatype>video</mediatype>
														<pproBypass>false</pproBypass>
														<parameter authoringApp="PremierePro">
															<parameterid>scale</parameterid>
															<name>Scale</name>
															<valuemin>0</valuemin>
															<valuemax>1000</valuemax>
															<value>100</value>
														</parameter>
														<parameter authoringApp="PremierePro">
															<parameterid>rotation</parameterid>
															<name>Rotation</name>
															<valuemin>-8640</valuemin>
															<valuemax>8640</valuemax>
															<value>0</value>
														</parameter>
														<parameter authoringApp="PremierePro">
															<parameterid>center</parameterid>
															<name>Center</name>
															<value>
																<horiz>-0.5</horiz>
																<vert>-0.499394</vert>
															</value>
														</parameter>
														<parameter authoringApp="PremierePro">
															<parameterid>centerOffset</parameterid>
															<name>Anchor Point</name>
															<value>
																<horiz>0</horiz>
																<vert>-0.00060606</vert>
															</value>
														</parameter>
														<parameter authoringApp="PremierePro">
															<parameterid>antiflicker</parameterid>
															<name>Anti-flicker Filter</name>
															<valuemin>0.0</valuemin>
															<valuemax>1.0</valuemax>
															<value>0</value>
														</parameter>
													</effect>
												</filter>
												<labels>
													<label2>Iris</label2>
												</labels>
											</clipitem>
											<enabled>TRUE</enabled>
											<locked>FALSE</locked>
										</track>
										<track TL.SQTrackShy="0" TL.SQTrackExpandedHeight="25" TL.SQTrackExpanded="0" MZ.TrackTargeted="0">
											<enabled>TRUE</enabled>
											<locked>FALSE</locked>
										</track>
									</video>
									<audio>
										<numOutputChannels>2</numOutputChannels>
										<format>
											<samplecharacteristics>
												<depth>16</depth>
												<samplerate>32000</samplerate>
											</samplecharacteristics>
										</format>
										<outputs>
											<group>
												<index>1</index>
												<numchannels>1</numchannels>
												<downmix>0</downmix>
												<channel>
													<index>1</index>
												</channel>
											</group>
											<group>
												<index>2</index>
												<numchannels>1</numchannels>
												<downmix>0</downmix>
												<channel>
													<index>2</index>
												</channel>
											</group>
										</outputs>
										<track TL.SQTrackAudioKeyframeStyle="0" TL.SQTrackShy="0" TL.SQTrackExpandedHeight="25" TL.SQTrackExpanded="0" MZ.TrackTargeted="1" PannerCurrentValue="0.5" PannerIsInverted="true" PannerStartKeyframe="-91445760000000000,0.5,0,0,0,0,0,0" PannerName="Balance" currentExplodedTrackIndex="0" totalExplodedTrackCount="2" premiereTrackType="Stereo">
											<clipitem id="clipitem-822" premiereChannelType="stereo">
												<masterclipid>masterclip-205</masterclipid>
												<name>ATM_DRONE_TRANS_H.mov</name>
												<enabled>TRUE</enabled>
												<duration>196</duration>
												<rate>
													<timebase>24</timebase>
													<ntsc>TRUE</ntsc>
												</rate>
												<start>0</start>
												<end>-1</end>
												<in>0</in>
												<out>172</out>
												<pproTicksIn>0</pproTicksIn>
												<pproTicksOut>1822268448000</pproTicksOut>
												<file id="file-190"/>
												<sourcetrack>
													<mediatype>audio</mediatype>
													<trackindex>1</trackindex>
												</sourcetrack>
												<filter>
													<effect>
														<name>Gain</name>
														<effectid>{61756678, 4761696e, 4b657947}</effectid>
														<effecttype>filter</effecttype>
														<mediatype>audio</mediatype>
														<parameter authoringApp="PremierePro">
															<parameterid>Gain(dB)</parameterid>
															<name>Gain(dB)</name>
															<valuemin>-96</valuemin>
															<valuemax>96</valuemax>
															<value>-9</value>
														</parameter>
													</effect>
												</filter>
												<link>
													<linkclipref>clipitem-822</linkclipref>
													<mediatype>audio</mediatype>
													<trackindex>1</trackindex>
													<clipindex>1</clipindex>
													<groupindex>1</groupindex>
												</link>
												<link>
													<linkclipref>clipitem-824</linkclipref>
													<mediatype>audio</mediatype>
													<trackindex>2</trackindex>
													<clipindex>1</clipindex>
													<groupindex>1</groupindex>
												</link>
												<logginginfo>
													<description></description>
													<scene></scene>
													<shottake></shottake>
													<lognote></lognote>
													<good></good>
													<originalvideofilename></originalvideofilename>
													<originalaudiofilename></originalaudiofilename>
												</logginginfo>
												<colorinfo>
													<lut></lut>
													<lut1></lut1>
													<asc_sop></asc_sop>
													<asc_sat></asc_sat>
													<lut2></lut2>
												</colorinfo>
												<labels>
													<label2>Iris</label2>
												</labels>
											</clipitem>
											<transitionitem>
												<start>148</start>
												<end>172</end>
												<pproTicksIn>1567998432000</pproTicksIn>
												<pproTicksOut>1822268448000</pproTicksOut>
												<alignment>center</alignment>
												<cutPointTicks>127135008000</cutPointTicks>
												<rate>
													<timebase>24</timebase>
													<ntsc>TRUE</ntsc>
												</rate>
												<effect>
													<name>Cross Fade ( 0dB)</name>
													<effectid>KGAudioTransCrossFade0dB</effectid>
													<effecttype>transition</effecttype>
													<mediatype>audio</mediatype>
													<wipecode>0</wipecode>
													<wipeaccuracy>100</wipeaccuracy>
													<startratio>0</startratio>
													<endratio>1</endratio>
													<reverse>FALSE</reverse>
												</effect>
											</transitionitem>
											<clipitem id="clipitem-823" premiereChannelType="stereo">
												<masterclipid>masterclip-205</masterclipid>
												<name>ATM_DRONE_TRANS_H.mov</name>
												<enabled>TRUE</enabled>
												<duration>196</duration>
												<rate>
													<timebase>24</timebase>
													<ntsc>TRUE</ntsc>
												</rate>
												<start>-1</start>
												<end>177</end>
												<in>167</in>
												<out>196</out>
												<pproTicksIn>1769295528000</pproTicksIn>
												<pproTicksOut>2076538464000</pproTicksOut>
												<file id="file-190"/>
												<sourcetrack>
													<mediatype>audio</mediatype>
													<trackindex>1</trackindex>
												</sourcetrack>
												<filter>
													<effect>
														<name>Gain</name>
														<effectid>{61756678, 4761696e, 4b657947}</effectid>
														<effecttype>filter</effecttype>
														<mediatype>audio</mediatype>
														<parameter authoringApp="PremierePro">
															<parameterid>Gain(dB)</parameterid>
															<name>Gain(dB)</name>
															<valuemin>-96</valuemin>
															<valuemax>96</valuemax>
															<value>-9</value>
														</parameter>
													</effect>
												</filter>
												<link>
													<linkclipref>clipitem-823</linkclipref>
													<mediatype>audio</mediatype>
													<trackindex>1</trackindex>
													<clipindex>3</clipindex>
													<groupindex>1</groupindex>
												</link>
												<link>
													<linkclipref>clipitem-825</linkclipref>
													<mediatype>audio</mediatype>
													<trackindex>2</trackindex>
													<clipindex>3</clipindex>
													<groupindex>1</groupindex>
												</link>
												<logginginfo>
													<description></description>
													<scene></scene>
													<shottake></shottake>
													<lognote></lognote>
													<good></good>
													<originalvideofilename></originalvideofilename>
													<originalaudiofilename></originalaudiofilename>
												</logginginfo>
												<colorinfo>
													<lut></lut>
													<lut1></lut1>
													<asc_sop></asc_sop>
													<asc_sat></asc_sat>
													<lut2></lut2>
												</colorinfo>
												<labels>
													<label2>Iris</label2>
												</labels>
											</clipitem>
											<enabled>TRUE</enabled>
											<locked>FALSE</locked>
											<outputchannelindex>1</outputchannelindex>
										</track>
										<track TL.SQTrackAudioKeyframeStyle="0" TL.SQTrackShy="0" TL.SQTrackExpandedHeight="25" TL.SQTrackExpanded="0" MZ.TrackTargeted="1" PannerCurrentValue="0.5" PannerIsInverted="true" PannerStartKeyframe="-91445760000000000,0.5,0,0,0,0,0,0" PannerName="Balance" currentExplodedTrackIndex="1" totalExplodedTrackCount="2" premiereTrackType="Stereo">
											<clipitem id="clipitem-824" premiereChannelType="stereo">
												<masterclipid>masterclip-205</masterclipid>
												<name>ATM_DRONE_TRANS_H.mov</name>
												<enabled>TRUE</enabled>
												<duration>196</duration>
												<rate>
													<timebase>24</timebase>
													<ntsc>TRUE</ntsc>
												</rate>
												<start>0</start>
												<end>-1</end>
												<in>0</in>
												<out>172</out>
												<pproTicksIn>0</pproTicksIn>
												<pproTicksOut>1822268448000</pproTicksOut>
												<file id="file-190"/>
												<sourcetrack>
													<mediatype>audio</mediatype>
													<trackindex>2</trackindex>
												</sourcetrack>
												<filter>
													<effect>
														<name>Gain</name>
														<effectid>{61756678, 4761696e, 4b657947}</effectid>
														<effecttype>filter</effecttype>
														<mediatype>audio</mediatype>
														<parameter authoringApp="PremierePro">
															<parameterid>Gain(dB)</parameterid>
															<name>Gain(dB)</name>
															<valuemin>-96</valuemin>
															<valuemax>96</valuemax>
															<value>-9</value>
														</parameter>
													</effect>
												</filter>
												<link>
													<linkclipref>clipitem-822</linkclipref>
													<mediatype>audio</mediatype>
													<trackindex>1</trackindex>
													<clipindex>1</clipindex>
													<groupindex>1</groupindex>
												</link>
												<link>
													<linkclipref>clipitem-824</linkclipref>
													<mediatype>audio</mediatype>
													<trackindex>2</trackindex>
													<clipindex>1</clipindex>
													<groupindex>1</groupindex>
												</link>
												<logginginfo>
													<description></description>
													<scene></scene>
													<shottake></shottake>
													<lognote></lognote>
													<good></good>
													<originalvideofilename></originalvideofilename>
													<originalaudiofilename></originalaudiofilename>
												</logginginfo>
												<colorinfo>
													<lut></lut>
													<lut1></lut1>
													<asc_sop></asc_sop>
													<asc_sat></asc_sat>
													<lut2></lut2>
												</colorinfo>
												<labels>
													<label2>Iris</label2>
												</labels>
											</clipitem>
											<transitionitem>
												<start>148</start>
												<end>172</end>
												<pproTicksIn>1567998432000</pproTicksIn>
												<pproTicksOut>1822268448000</pproTicksOut>
												<alignment>center</alignment>
												<cutPointTicks>127135008000</cutPointTicks>
												<rate>
													<timebase>24</timebase>
													<ntsc>TRUE</ntsc>
												</rate>
												<effect>
													<name>Cross Fade ( 0dB)</name>
													<effectid>KGAudioTransCrossFade0dB</effectid>
													<effecttype>transition</effecttype>
													<mediatype>audio</mediatype>
													<wipecode>0</wipecode>
													<wipeaccuracy>100</wipeaccuracy>
													<startratio>0</startratio>
													<endratio>1</endratio>
													<reverse>FALSE</reverse>
												</effect>
											</transitionitem>
											<clipitem id="clipitem-825" premiereChannelType="stereo">
												<masterclipid>masterclip-205</masterclipid>
												<name>ATM_DRONE_TRANS_H.mov</name>
												<enabled>TRUE</enabled>
												<duration>196</duration>
												<rate>
													<timebase>24</timebase>
													<ntsc>TRUE</ntsc>
												</rate>
												<start>-1</start>
												<end>177</end>
												<in>167</in>
												<out>196</out>
												<pproTicksIn>1769295528000</pproTicksIn>
												<pproTicksOut>2076538464000</pproTicksOut>
												<file id="file-190"/>
												<sourcetrack>
													<mediatype>audio</mediatype>
													<trackindex>2</trackindex>
												</sourcetrack>
												<filter>
													<effect>
														<name>Gain</name>
														<effectid>{61756678, 4761696e, 4b657947}</effectid>
														<effecttype>filter</effecttype>
														<mediatype>audio</mediatype>
														<parameter authoringApp="PremierePro">
															<parameterid>Gain(dB)</parameterid>
															<name>Gain(dB)</name>
															<valuemin>-96</valuemin>
															<valuemax>96</valuemax>
															<value>-9</value>
														</parameter>
													</effect>
												</filter>
												<link>
													<linkclipref>clipitem-823</linkclipref>
													<mediatype>audio</mediatype>
													<trackindex>1</trackindex>
													<clipindex>3</clipindex>
													<groupindex>1</groupindex>
												</link>
												<link>
													<linkclipref>clipitem-825</linkclipref>
													<mediatype>audio</mediatype>
													<trackindex>2</trackindex>
													<clipindex>3</clipindex>
													<groupindex>1</groupindex>
												</link>
												<logginginfo>
													<description></description>
													<scene></scene>
													<shottake></shottake>
													<lognote></lognote>
													<good></good>
													<originalvideofilename></originalvideofilename>
													<originalaudiofilename></originalaudiofilename>
												</logginginfo>
												<colorinfo>
													<lut></lut>
													<lut1></lut1>
													<asc_sop></asc_sop>
													<asc_sat></asc_sat>
													<lut2></lut2>
												</colorinfo>
												<labels>
													<label2>Iris</label2>
												</labels>
											</clipitem>
											<enabled>TRUE</enabled>
											<locked>FALSE</locked>
											<outputchannelindex>2</outputchannelindex>
										</track>
										<track TL.SQTrackAudioKeyframeStyle="0" TL.SQTrackShy="0" TL.SQTrackExpandedHeight="25" TL.SQTrackExpanded="0" MZ.TrackTargeted="1" PannerCurrentValue="0.5" PannerIsInverted="true" PannerStartKeyframe="-91445760000000000,0.5,0,0,0,0,0,0" PannerName="Balance" currentExplodedTrackIndex="0" totalExplodedTrackCount="2" premiereTrackType="Stereo">
											<enabled>TRUE</enabled>
											<locked>FALSE</locked>
											<outputchannelindex>1</outputchannelindex>
										</track>
										<track TL.SQTrackAudioKeyframeStyle="0" TL.SQTrackShy="0" TL.SQTrackExpandedHeight="25" TL.SQTrackExpanded="0" MZ.TrackTargeted="1" PannerCurrentValue="0.5" PannerIsInverted="true" PannerStartKeyframe="-91445760000000000,0.5,0,0,0,0,0,0" PannerName="Balance" currentExplodedTrackIndex="1" totalExplodedTrackCount="2" premiereTrackType="Stereo">
											<enabled>TRUE</enabled>
											<locked>FALSE</locked>
											<outputchannelindex>2</outputchannelindex>
										</track>
										<track TL.SQTrackAudioKeyframeStyle="0" TL.SQTrackShy="0" TL.SQTrackExpandedHeight="25" TL.SQTrackExpanded="0" MZ.TrackTargeted="1" PannerCurrentValue="0.5" PannerIsInverted="true" PannerStartKeyframe="-91445760000000000,0.5,0,0,0,0,0,0" PannerName="Balance" currentExplodedTrackIndex="0" totalExplodedTrackCount="2" premiereTrackType="Stereo">
											<enabled>TRUE</enabled>
											<locked>FALSE</locked>
											<outputchannelindex>1</outputchannelindex>
										</track>
										<track TL.SQTrackAudioKeyframeStyle="0" TL.SQTrackShy="0" TL.SQTrackExpandedHeight="25" TL.SQTrackExpanded="0" MZ.TrackTargeted="1" PannerCurrentValue="0.5" PannerIsInverted="true" PannerStartKeyframe="-91445760000000000,0.5,0,0,0,0,0,0" PannerName="Balance" currentExplodedTrackIndex="1" totalExplodedTrackCount="2" premiereTrackType="Stereo">
											<enabled>TRUE</enabled>
											<locked>FALSE</locked>
											<outputchannelindex>2</outputchannelindex>
										</track>
									</audio>
								</media>
								<timecode>
									<rate>
										<timebase>24</timebase>
										<ntsc>TRUE</ntsc>
									</rate>
									<string>00:00:00:00</string>
									<frame>0</frame>
									<displayformat>NDF</displayformat>
								</timecode>
									<marker>
										<comment></comment>
										<name></name>
										<in>187</in>
										<out>-1</out>
										<pproColor>4281828977</pproColor>
									</marker>
									<marker>
										<comment></comment>
										<name></name>
										<in>8</in>
										<out>-1</out>
										<pproColor>4281828977</pproColor>
									</marker>
								<labels>
									<label2>Tan</label2>
								</labels>
								<logginginfo>
									<description></description>
									<scene></scene>
									<shottake></shottake>
									<lognote></lognote>
									<good></good>
									<originalvideofilename></originalvideofilename>
									<originalaudiofilename></originalaudiofilename>
								</logginginfo>
							</sequence>
							<sequence id="sequence-63" TL.SQAudioVisibleBase="0" TL.SQVideoVisibleBase="0" TL.SQVisibleBaseTime="0" TL.SQAVDividerPosition="0.5" TL.SQHideShyTracks="0" TL.SQHeaderWidth="236" Monitor.ProgramZoomOut="1843457616000" Monitor.ProgramZoomIn="0" TL.SQTimePerPixel="0.005505448684168174" MZ.EditLine="317837520000" MZ.Sequence.PreviewFrameSizeHeight="1080" MZ.Sequence.PreviewFrameSizeWidth="1920" MZ.Sequence.AudioTimeDisplayFormat="200" MZ.Sequence.PreviewRenderingClassID="1297106761" MZ.Sequence.PreviewRenderingPresetCodec="1297107278" MZ.Sequence.PreviewRenderingPresetPath="EncoderPresets/SequencePreview/795454d9-d3c2-429d-9474-923ab13b7018/I-Frame Only MPEG.epr" MZ.Sequence.PreviewUseMaxRenderQuality="false" MZ.Sequence.PreviewUseMaxBitDepth="false" MZ.Sequence.EditingModeGUID="795454d9-d3c2-429d-9474-923ab13b7018" MZ.Sequence.VideoTimeDisplayFormat="110" MZ.WorkOutPoint="15239249625600" MZ.WorkInPoint="0" explodedTracks="true">
								<uuid>bf34d9f7-63f2-4c3f-9517-bfb3d11087e7</uuid>
								<duration>174</duration>
								<rate>
									<timebase>24</timebase>
									<ntsc>TRUE</ntsc>
								</rate>
								<name>Trans G</name>
								<media>
									<video>
										<format>
											<samplecharacteristics>
												<rate>
													<timebase>24</timebase>
													<ntsc>TRUE</ntsc>
												</rate>
												<codec>
													<name>Apple ProRes 422</name>
													<appspecificdata>
														<appname>Final Cut Pro</appname>
														<appmanufacturer>Apple Inc.</appmanufacturer>
														<appversion>7.0</appversion>
														<data>
															<qtcodec>
																<codecname>Apple ProRes 422</codecname>
																<codectypename>Apple ProRes 422</codectypename>
																<codectypecode>apcn</codectypecode>
																<codecvendorcode>appl</codecvendorcode>
																<spatialquality>1024</spatialquality>
																<temporalquality>0</temporalquality>
																<keyframerate>0</keyframerate>
																<datarate>0</datarate>
															</qtcodec>
														</data>
													</appspecificdata>
												</codec>
												<width>1920</width>
												<height>1080</height>
												<anamorphic>FALSE</anamorphic>
												<pixelaspectratio>square</pixelaspectratio>
												<fielddominance>none</fielddominance>
												<colordepth>24</colordepth>
											</samplecharacteristics>
										</format>
										<track TL.SQTrackShy="0" TL.SQTrackExpandedHeight="25" TL.SQTrackExpanded="0" MZ.TrackTargeted="1">
											<clipitem id="clipitem-826">
												<masterclipid>masterclip-357</masterclipid>
												<name>ATM_DRONE_TRANS_G [23.976].mp4</name>
												<enabled>TRUE</enabled>
												<duration>197</duration>
												<rate>
													<timebase>24</timebase>
													<ntsc>TRUE</ntsc>
												</rate>
												<start>8</start>
												<end>162</end>
												<in>30</in>
												<out>184</out>
												<pproTicksIn>317837520000</pproTicksIn>
												<pproTicksOut>1949403456000</pproTicksOut>
												<alphatype>none</alphatype>
												<file id="file-329"/>
												<logginginfo>
													<description></description>
													<scene></scene>
													<shottake></shottake>
													<lognote></lognote>
													<good></good>
													<originalvideofilename></originalvideofilename>
													<originalaudiofilename></originalaudiofilename>
												</logginginfo>
												<colorinfo>
													<lut></lut>
													<lut1></lut1>
													<asc_sop></asc_sop>
													<asc_sat></asc_sat>
													<lut2></lut2>
												</colorinfo>
												<labels>
													<label2>Iris</label2>
												</labels>
											</clipitem>
											<enabled>TRUE</enabled>
											<locked>FALSE</locked>
										</track>
										<track TL.SQTrackShy="0" TL.SQTrackExpandedHeight="25" TL.SQTrackExpanded="0" MZ.TrackTargeted="0">
											<clipitem id="clipitem-827">
												<masterclipid>masterclip-157</masterclipid>
												<name>02 Zoom In - Quick / Transform Out</name>
												<enabled>TRUE</enabled>
												<duration>1035764</duration>
												<rate>
													<timebase>24</timebase>
													<ntsc>TRUE</ntsc>
												</rate>
												<start>0</start>
												<end>8</end>
												<in>0</in>
												<out>8</out>
												<pproTicksIn>0</pproTicksIn>
												<pproTicksOut>84756672000</pproTicksOut>
												<sequence id="sequence-7"/>
													<marker>
														<comment></comment>
														<name></name>
														<in>16</in>
														<out>-1</out>
													</marker>
												<labels>
													<label2>Iris</label2>
												</labels>
											</clipitem>
											<clipitem id="clipitem-828">
												<masterclipid>masterclip-159</masterclipid>
												<name>02 Zoom In - Quick / Transform In</name>
												<enabled>TRUE</enabled>
												<duration>1035764</duration>
												<rate>
													<timebase>24</timebase>
													<ntsc>TRUE</ntsc>
												</rate>
												<start>8</start>
												<end>13</end>
												<in>0</in>
												<out>7</out>
												<pproTicksIn>0</pproTicksIn>
												<pproTicksOut>74162088000</pproTicksOut>
												<sequence id="sequence-8"/>
												<labels>
													<label2>Iris</label2>
												</labels>
											</clipitem>
											<clipitem id="clipitem-829">
												<masterclipid>masterclip-157</masterclipid>
												<name>03 Zoom Out - Quick / Transform Out</name>
												<enabled>TRUE</enabled>
												<duration>1035764</duration>
												<rate>
													<timebase>24</timebase>
													<ntsc>TRUE</ntsc>
												</rate>
												<start>155</start>
												<end>162</end>
												<in>0</in>
												<out>8</out>
												<pproTicksIn>0</pproTicksIn>
												<pproTicksOut>84756672000</pproTicksOut>
												<sequence id="sequence-7"/>
													<marker>
														<comment></comment>
														<name></name>
														<in>16</in>
														<out>-1</out>
													</marker>
												<labels>
													<label2>Iris</label2>
												</labels>
											</clipitem>
											<clipitem id="clipitem-830">
												<masterclipid>masterclip-159</masterclipid>
												<name>03 Zoom Out - Quick / Transform In</name>
												<enabled>TRUE</enabled>
												<duration>1035764</duration>
												<rate>
													<timebase>24</timebase>
													<ntsc>TRUE</ntsc>
												</rate>
												<start>162</start>
												<end>170</end>
												<in>0</in>
												<out>8</out>
												<pproTicksIn>0</pproTicksIn>
												<pproTicksOut>84756672000</pproTicksOut>
												<sequence id="sequence-8"/>
												<filter>
													<effect>
														<name>Basic Motion</name>
														<effectid>basic</effectid>
														<effectcategory>motion</effectcategory>
														<effecttype>motion</effecttype>
														<mediatype>video</mediatype>
														<pproBypass>false</pproBypass>
														<parameter authoringApp="PremierePro">
															<parameterid>scale</parameterid>
															<name>Scale</name>
															<valuemin>0</valuemin>
															<valuemax>1000</valuemax>
															<value>100</value>
														</parameter>
														<parameter authoringApp="PremierePro">
															<parameterid>rotation</parameterid>
															<name>Rotation</name>
															<valuemin>-8640</valuemin>
															<valuemax>8640</valuemax>
															<value>0</value>
														</parameter>
														<parameter authoringApp="PremierePro">
															<parameterid>center</parameterid>
															<name>Center</name>
															<value>
																<horiz>-0.5</horiz>
																<vert>-0.499394</vert>
															</value>
														</parameter>
														<parameter authoringApp="PremierePro">
															<parameterid>centerOffset</parameterid>
															<name>Anchor Point</name>
															<value>
																<horiz>0</horiz>
																<vert>-0.00060606</vert>
															</value>
														</parameter>
														<parameter authoringApp="PremierePro">
															<parameterid>antiflicker</parameterid>
															<name>Anti-flicker Filter</name>
															<valuemin>0.0</valuemin>
															<valuemax>1.0</valuemax>
															<value>0</value>
														</parameter>
													</effect>
												</filter>
												<labels>
													<label2>Iris</label2>
												</labels>
											</clipitem>
											<enabled>TRUE</enabled>
											<locked>FALSE</locked>
										</track>
										<track TL.SQTrackShy="0" TL.SQTrackExpandedHeight="25" TL.SQTrackExpanded="0" MZ.TrackTargeted="0">
											<enabled>TRUE</enabled>
											<locked>FALSE</locked>
										</track>
									</video>
									<audio>
										<numOutputChannels>2</numOutputChannels>
										<format>
											<samplecharacteristics>
												<depth>16</depth>
												<samplerate>32000</samplerate>
											</samplecharacteristics>
										</format>
										<outputs>
											<group>
												<index>1</index>
												<numchannels>1</numchannels>
												<downmix>0</downmix>
												<channel>
													<index>1</index>
												</channel>
											</group>
											<group>
												<index>2</index>
												<numchannels>1</numchannels>
												<downmix>0</downmix>
												<channel>
													<index>2</index>
												</channel>
											</group>
										</outputs>
										<track TL.SQTrackAudioKeyframeStyle="0" TL.SQTrackShy="0" TL.SQTrackExpandedHeight="25" TL.SQTrackExpanded="0" MZ.TrackTargeted="1" PannerCurrentValue="0.5" PannerIsInverted="true" PannerStartKeyframe="-91445760000000000,0.5,0,0,0,0,0,0" PannerName="Balance" currentExplodedTrackIndex="0" totalExplodedTrackCount="2" premiereTrackType="Stereo">
											<clipitem id="clipitem-831" premiereChannelType="stereo">
												<masterclipid>masterclip-203</masterclipid>
												<name>ATM_DRONE_TRANS_G.mov</name>
												<enabled>TRUE</enabled>
												<duration>196</duration>
												<rate>
													<timebase>24</timebase>
													<ntsc>TRUE</ntsc>
												</rate>
												<start>0</start>
												<end>-1</end>
												<in>0</in>
												<out>164</out>
												<pproTicksIn>0</pproTicksIn>
												<pproTicksOut>1737511776000</pproTicksOut>
												<file id="file-189"/>
												<sourcetrack>
													<mediatype>audio</mediatype>
													<trackindex>1</trackindex>
												</sourcetrack>
												<filter>
													<effect>
														<name>Gain</name>
														<effectid>{61756678, 4761696e, 4b657947}</effectid>
														<effecttype>filter</effecttype>
														<mediatype>audio</mediatype>
														<parameter authoringApp="PremierePro">
															<parameterid>Gain(dB)</parameterid>
															<name>Gain(dB)</name>
															<valuemin>-96</valuemin>
															<valuemax>96</valuemax>
															<value>-9</value>
														</parameter>
													</effect>
												</filter>
													<marker>
														<comment></comment>
														<name></name>
														<in>8</in>
														<out>-1</out>
													</marker>
													<marker>
														<comment></comment>
														<name></name>
														<in>8</in>
														<out>-1</out>
													</marker>
												<link>
													<linkclipref>clipitem-831</linkclipref>
													<mediatype>audio</mediatype>
													<trackindex>1</trackindex>
													<clipindex>1</clipindex>
													<groupindex>1</groupindex>
												</link>
												<link>
													<linkclipref>clipitem-833</linkclipref>
													<mediatype>audio</mediatype>
													<trackindex>2</trackindex>
													<clipindex>1</clipindex>
													<groupindex>1</groupindex>
												</link>
												<logginginfo>
													<description></description>
													<scene></scene>
													<shottake></shottake>
													<lognote></lognote>
													<good></good>
													<originalvideofilename></originalvideofilename>
													<originalaudiofilename></originalaudiofilename>
												</logginginfo>
												<colorinfo>
													<lut></lut>
													<lut1></lut1>
													<asc_sop></asc_sop>
													<asc_sat></asc_sat>
													<lut2></lut2>
												</colorinfo>
												<labels>
													<label2>Iris</label2>
												</labels>
											</clipitem>
											<transitionitem>
												<start>146</start>
												<end>164</end>
												<pproTicksIn>1546809264000</pproTicksIn>
												<pproTicksOut>1737511776000</pproTicksOut>
												<alignment>center</alignment>
												<cutPointTicks>74162088000</cutPointTicks>
												<rate>
													<timebase>24</timebase>
													<ntsc>TRUE</ntsc>
												</rate>
												<effect>
													<name>Cross Fade ( 0dB)</name>
													<effectid>KGAudioTransCrossFade0dB</effectid>
													<effecttype>transition</effecttype>
													<mediatype>audio</mediatype>
													<wipecode>0</wipecode>
													<wipeaccuracy>100</wipeaccuracy>
													<startratio>0</startratio>
													<endratio>1</endratio>
													<reverse>FALSE</reverse>
												</effect>
											</transitionitem>
											<clipitem id="clipitem-832" premiereChannelType="stereo">
												<masterclipid>masterclip-203</masterclipid>
												<name>ATM_DRONE_TRANS_G.mov</name>
												<enabled>TRUE</enabled>
												<duration>196</duration>
												<rate>
													<timebase>24</timebase>
													<ntsc>TRUE</ntsc>
												</rate>
												<start>-1</start>
												<end>174</end>
												<in>168</in>
												<out>196</out>
												<pproTicksIn>1779890112000</pproTicksIn>
												<pproTicksOut>2076538464000</pproTicksOut>
												<file id="file-189"/>
												<sourcetrack>
													<mediatype>audio</mediatype>
													<trackindex>1</trackindex>
												</sourcetrack>
												<filter>
													<effect>
														<name>Gain</name>
														<effectid>{61756678, 4761696e, 4b657947}</effectid>
														<effecttype>filter</effecttype>
														<mediatype>audio</mediatype>
														<parameter authoringApp="PremierePro">
															<parameterid>Gain(dB)</parameterid>
															<name>Gain(dB)</name>
															<valuemin>-96</valuemin>
															<valuemax>96</valuemax>
															<value>-9</value>
														</parameter>
													</effect>
												</filter>
													<marker>
														<comment></comment>
														<name></name>
														<in>8</in>
														<out>-1</out>
													</marker>
													<marker>
														<comment></comment>
														<name></name>
														<in>8</in>
														<out>-1</out>
													</marker>
												<link>
													<linkclipref>clipitem-832</linkclipref>
													<mediatype>audio</mediatype>
													<trackindex>1</trackindex>
													<clipindex>3</clipindex>
													<groupindex>1</groupindex>
												</link>
												<link>
													<linkclipref>clipitem-834</linkclipref>
													<mediatype>audio</mediatype>
													<trackindex>2</trackindex>
													<clipindex>3</clipindex>
													<groupindex>1</groupindex>
												</link>
												<logginginfo>
													<description></description>
													<scene></scene>
													<shottake></shottake>
													<lognote></lognote>
													<good></good>
													<originalvideofilename></originalvideofilename>
													<originalaudiofilename></originalaudiofilename>
												</logginginfo>
												<colorinfo>
													<lut></lut>
													<lut1></lut1>
													<asc_sop></asc_sop>
													<asc_sat></asc_sat>
													<lut2></lut2>
												</colorinfo>
												<labels>
													<label2>Iris</label2>
												</labels>
											</clipitem>
											<enabled>TRUE</enabled>
											<locked>FALSE</locked>
											<outputchannelindex>1</outputchannelindex>
										</track>
										<track TL.SQTrackAudioKeyframeStyle="0" TL.SQTrackShy="0" TL.SQTrackExpandedHeight="25" TL.SQTrackExpanded="0" MZ.TrackTargeted="1" PannerCurrentValue="0.5" PannerIsInverted="true" PannerStartKeyframe="-91445760000000000,0.5,0,0,0,0,0,0" PannerName="Balance" currentExplodedTrackIndex="1" totalExplodedTrackCount="2" premiereTrackType="Stereo">
											<clipitem id="clipitem-833" premiereChannelType="stereo">
												<masterclipid>masterclip-203</masterclipid>
												<name>ATM_DRONE_TRANS_G.mov</name>
												<enabled>TRUE</enabled>
												<duration>196</duration>
												<rate>
													<timebase>24</timebase>
													<ntsc>TRUE</ntsc>
												</rate>
												<start>0</start>
												<end>-1</end>
												<in>0</in>
												<out>164</out>
												<pproTicksIn>0</pproTicksIn>
												<pproTicksOut>1737511776000</pproTicksOut>
												<file id="file-189"/>
												<sourcetrack>
													<mediatype>audio</mediatype>
													<trackindex>2</trackindex>
												</sourcetrack>
												<filter>
													<effect>
														<name>Gain</name>
														<effectid>{61756678, 4761696e, 4b657947}</effectid>
														<effecttype>filter</effecttype>
														<mediatype>audio</mediatype>
														<parameter authoringApp="PremierePro">
															<parameterid>Gain(dB)</parameterid>
															<name>Gain(dB)</name>
															<valuemin>-96</valuemin>
															<valuemax>96</valuemax>
															<value>-9</value>
														</parameter>
													</effect>
												</filter>
													<marker>
														<comment></comment>
														<name></name>
														<in>8</in>
														<out>-1</out>
													</marker>
													<marker>
														<comment></comment>
														<name></name>
														<in>8</in>
														<out>-1</out>
													</marker>
												<link>
													<linkclipref>clipitem-831</linkclipref>
													<mediatype>audio</mediatype>
													<trackindex>1</trackindex>
													<clipindex>1</clipindex>
													<groupindex>1</groupindex>
												</link>
												<link>
													<linkclipref>clipitem-833</linkclipref>
													<mediatype>audio</mediatype>
													<trackindex>2</trackindex>
													<clipindex>1</clipindex>
													<groupindex>1</groupindex>
												</link>
												<logginginfo>
													<description></description>
													<scene></scene>
													<shottake></shottake>
													<lognote></lognote>
													<good></good>
													<originalvideofilename></originalvideofilename>
													<originalaudiofilename></originalaudiofilename>
												</logginginfo>
												<colorinfo>
													<lut></lut>
													<lut1></lut1>
													<asc_sop></asc_sop>
													<asc_sat></asc_sat>
													<lut2></lut2>
												</colorinfo>
												<labels>
													<label2>Iris</label2>
												</labels>
											</clipitem>
											<transitionitem>
												<start>146</start>
												<end>164</end>
												<pproTicksIn>1546809264000</pproTicksIn>
												<pproTicksOut>1737511776000</pproTicksOut>
												<alignment>center</alignment>
												<cutPointTicks>74162088000</cutPointTicks>
												<rate>
													<timebase>24</timebase>
													<ntsc>TRUE</ntsc>
												</rate>
												<effect>
													<name>Cross Fade ( 0dB)</name>
													<effectid>KGAudioTransCrossFade0dB</effectid>
													<effecttype>transition</effecttype>
													<mediatype>audio</mediatype>
													<wipecode>0</wipecode>
													<wipeaccuracy>100</wipeaccuracy>
													<startratio>0</startratio>
													<endratio>1</endratio>
													<reverse>FALSE</reverse>
												</effect>
											</transitionitem>
											<clipitem id="clipitem-834" premiereChannelType="stereo">
												<masterclipid>masterclip-203</masterclipid>
												<name>ATM_DRONE_TRANS_G.mov</name>
												<enabled>TRUE</enabled>
												<duration>196</duration>
												<rate>
													<timebase>24</timebase>
													<ntsc>TRUE</ntsc>
												</rate>
												<start>-1</start>
												<end>174</end>
												<in>168</in>
												<out>196</out>
												<pproTicksIn>1779890112000</pproTicksIn>
												<pproTicksOut>2076538464000</pproTicksOut>
												<file id="file-189"/>
												<sourcetrack>
													<mediatype>audio</mediatype>
													<trackindex>2</trackindex>
												</sourcetrack>
												<filter>
													<effect>
														<name>Gain</name>
														<effectid>{61756678, 4761696e, 4b657947}</effectid>
														<effecttype>filter</effecttype>
														<mediatype>audio</mediatype>
														<parameter authoringApp="PremierePro">
															<parameterid>Gain(dB)</parameterid>
															<name>Gain(dB)</name>
															<valuemin>-96</valuemin>
															<valuemax>96</valuemax>
															<value>-9</value>
														</parameter>
													</effect>
												</filter>
													<marker>
														<comment></comment>
														<name></name>
														<in>8</in>
														<out>-1</out>
													</marker>
													<marker>
														<comment></comment>
														<name></name>
														<in>8</in>
														<out>-1</out>
													</marker>
												<link>
													<linkclipref>clipitem-832</linkclipref>
													<mediatype>audio</mediatype>
													<trackindex>1</trackindex>
													<clipindex>3</clipindex>
													<groupindex>1</groupindex>
												</link>
												<link>
													<linkclipref>clipitem-834</linkclipref>
													<mediatype>audio</mediatype>
													<trackindex>2</trackindex>
													<clipindex>3</clipindex>
													<groupindex>1</groupindex>
												</link>
												<logginginfo>
													<description></description>
													<scene></scene>
													<shottake></shottake>
													<lognote></lognote>
													<good></good>
													<originalvideofilename></originalvideofilename>
													<originalaudiofilename></originalaudiofilename>
												</logginginfo>
												<colorinfo>
													<lut></lut>
													<lut1></lut1>
													<asc_sop></asc_sop>
													<asc_sat></asc_sat>
													<lut2></lut2>
												</colorinfo>
												<labels>
													<label2>Iris</label2>
												</labels>
											</clipitem>
											<enabled>TRUE</enabled>
											<locked>FALSE</locked>
											<outputchannelindex>2</outputchannelindex>
										</track>
										<track TL.SQTrackAudioKeyframeStyle="0" TL.SQTrackShy="0" TL.SQTrackExpandedHeight="25" TL.SQTrackExpanded="0" MZ.TrackTargeted="1" PannerCurrentValue="0.5" PannerIsInverted="true" PannerStartKeyframe="-91445760000000000,0.5,0,0,0,0,0,0" PannerName="Balance" currentExplodedTrackIndex="0" totalExplodedTrackCount="2" premiereTrackType="Stereo">
											<enabled>TRUE</enabled>
											<locked>FALSE</locked>
											<outputchannelindex>1</outputchannelindex>
										</track>
										<track TL.SQTrackAudioKeyframeStyle="0" TL.SQTrackShy="0" TL.SQTrackExpandedHeight="25" TL.SQTrackExpanded="0" MZ.TrackTargeted="1" PannerCurrentValue="0.5" PannerIsInverted="true" PannerStartKeyframe="-91445760000000000,0.5,0,0,0,0,0,0" PannerName="Balance" currentExplodedTrackIndex="1" totalExplodedTrackCount="2" premiereTrackType="Stereo">
											<enabled>TRUE</enabled>
											<locked>FALSE</locked>
											<outputchannelindex>2</outputchannelindex>
										</track>
										<track TL.SQTrackAudioKeyframeStyle="0" TL.SQTrackShy="0" TL.SQTrackExpandedHeight="25" TL.SQTrackExpanded="0" MZ.TrackTargeted="1" PannerCurrentValue="0.5" PannerIsInverted="true" PannerStartKeyframe="-91445760000000000,0.5,0,0,0,0,0,0" PannerName="Balance" currentExplodedTrackIndex="0" totalExplodedTrackCount="2" premiereTrackType="Stereo">
											<enabled>TRUE</enabled>
											<locked>FALSE</locked>
											<outputchannelindex>1</outputchannelindex>
										</track>
										<track TL.SQTrackAudioKeyframeStyle="0" TL.SQTrackShy="0" TL.SQTrackExpandedHeight="25" TL.SQTrackExpanded="0" MZ.TrackTargeted="1" PannerCurrentValue="0.5" PannerIsInverted="true" PannerStartKeyframe="-91445760000000000,0.5,0,0,0,0,0,0" PannerName="Balance" currentExplodedTrackIndex="1" totalExplodedTrackCount="2" premiereTrackType="Stereo">
											<enabled>TRUE</enabled>
											<locked>FALSE</locked>
											<outputchannelindex>2</outputchannelindex>
										</track>
									</audio>
								</media>
								<timecode>
									<rate>
										<timebase>24</timebase>
										<ntsc>TRUE</ntsc>
									</rate>
									<string>00:00:00:00</string>
									<frame>0</frame>
									<displayformat>NDF</displayformat>
								</timecode>
									<marker>
										<comment></comment>
										<name></name>
										<in>184</in>
										<out>-1</out>
										<pproColor>4281828977</pproColor>
									</marker>
									<marker>
										<comment></comment>
										<name></name>
										<in>8</in>
										<out>-1</out>
										<pproColor>4281828977</pproColor>
									</marker>
								<labels>
									<label2>Tan</label2>
								</labels>
								<logginginfo>
									<description></description>
									<scene></scene>
									<shottake></shottake>
									<lognote></lognote>
									<good></good>
									<originalvideofilename></originalvideofilename>
									<originalaudiofilename></originalaudiofilename>
								</logginginfo>
							</sequence>
							<sequence id="sequence-64" TL.SQAudioVisibleBase="0" TL.SQVideoVisibleBase="0" TL.SQVisibleBaseTime="0" TL.SQAVDividerPosition="0.5" TL.SQHideShyTracks="0" TL.SQHeaderWidth="236" Monitor.ProgramZoomOut="1959998040000" Monitor.ProgramZoomIn="0" TL.SQTimePerPixel="0.020162472495995371" MZ.EditLine="201297096000" MZ.Sequence.PreviewFrameSizeHeight="1080" MZ.Sequence.PreviewFrameSizeWidth="1920" MZ.Sequence.AudioTimeDisplayFormat="200" MZ.Sequence.PreviewRenderingClassID="1297106761" MZ.Sequence.PreviewRenderingPresetCodec="1297107278" MZ.Sequence.PreviewRenderingPresetPath="EncoderPresets/SequencePreview/795454d9-d3c2-429d-9474-923ab13b7018/I-Frame Only MPEG.epr" MZ.Sequence.PreviewUseMaxRenderQuality="false" MZ.Sequence.PreviewUseMaxBitDepth="false" MZ.Sequence.EditingModeGUID="795454d9-d3c2-429d-9474-923ab13b7018" MZ.Sequence.VideoTimeDisplayFormat="110" MZ.WorkOutPoint="15239249625600" MZ.WorkInPoint="0" explodedTracks="true">
								<uuid>230faf77-6e11-4858-b71c-bf427a067c14</uuid>
								<duration>185</duration>
								<rate>
									<timebase>24</timebase>
									<ntsc>TRUE</ntsc>
								</rate>
								<name>Trans E</name>
								<media>
									<video>
										<format>
											<samplecharacteristics>
												<rate>
													<timebase>24</timebase>
													<ntsc>TRUE</ntsc>
												</rate>
												<codec>
													<name>Apple ProRes 422</name>
													<appspecificdata>
														<appname>Final Cut Pro</appname>
														<appmanufacturer>Apple Inc.</appmanufacturer>
														<appversion>7.0</appversion>
														<data>
															<qtcodec>
																<codecname>Apple ProRes 422</codecname>
																<codectypename>Apple ProRes 422</codectypename>
																<codectypecode>apcn</codectypecode>
																<codecvendorcode>appl</codecvendorcode>
																<spatialquality>1024</spatialquality>
																<temporalquality>0</temporalquality>
																<keyframerate>0</keyframerate>
																<datarate>0</datarate>
															</qtcodec>
														</data>
													</appspecificdata>
												</codec>
												<width>1920</width>
												<height>1080</height>
												<anamorphic>FALSE</anamorphic>
												<pixelaspectratio>square</pixelaspectratio>
												<fielddominance>none</fielddominance>
												<colordepth>24</colordepth>
											</samplecharacteristics>
										</format>
										<track TL.SQTrackShy="0" TL.SQTrackExpandedHeight="25" TL.SQTrackExpanded="0" MZ.TrackTargeted="1">
											<clipitem id="clipitem-835">
												<masterclipid>masterclip-355</masterclipid>
												<name>ATM_DRONE_TRANS_E [23.976].mp4</name>
												<enabled>TRUE</enabled>
												<duration>193</duration>
												<rate>
													<timebase>24</timebase>
													<ntsc>TRUE</ntsc>
												</rate>
												<start>8</start>
												<end>169</end>
												<in>23</in>
												<out>184</out>
												<pproTicksIn>243675432000</pproTicksIn>
												<pproTicksOut>1949403456000</pproTicksOut>
												<alphatype>none</alphatype>
												<file id="file-327"/>
												<logginginfo>
													<description></description>
													<scene></scene>
													<shottake></shottake>
													<lognote></lognote>
													<good></good>
													<originalvideofilename></originalvideofilename>
													<originalaudiofilename></originalaudiofilename>
												</logginginfo>
												<colorinfo>
													<lut></lut>
													<lut1></lut1>
													<asc_sop></asc_sop>
													<asc_sat></asc_sat>
													<lut2></lut2>
												</colorinfo>
												<labels>
													<label2>Iris</label2>
												</labels>
											</clipitem>
											<enabled>TRUE</enabled>
											<locked>FALSE</locked>
										</track>
										<track TL.SQTrackShy="0" TL.SQTrackExpandedHeight="25" TL.SQTrackExpanded="0" MZ.TrackTargeted="0">
											<clipitem id="clipitem-836">
												<masterclipid>masterclip-157</masterclipid>
												<name>02 Zoom In - Quick / Transform Out</name>
												<enabled>TRUE</enabled>
												<duration>1035764</duration>
												<rate>
													<timebase>24</timebase>
													<ntsc>TRUE</ntsc>
												</rate>
												<start>0</start>
												<end>8</end>
												<in>0</in>
												<out>8</out>
												<pproTicksIn>0</pproTicksIn>
												<pproTicksOut>84756672000</pproTicksOut>
												<sequence id="sequence-7"/>
													<marker>
														<comment></comment>
														<name></name>
														<in>16</in>
														<out>-1</out>
													</marker>
												<labels>
													<label2>Iris</label2>
												</labels>
											</clipitem>
											<clipitem id="clipitem-837">
												<masterclipid>masterclip-159</masterclipid>
												<name>02 Zoom In - Quick / Transform In</name>
												<enabled>TRUE</enabled>
												<duration>1035764</duration>
												<rate>
													<timebase>24</timebase>
													<ntsc>TRUE</ntsc>
												</rate>
												<start>8</start>
												<end>13</end>
												<in>0</in>
												<out>7</out>
												<pproTicksIn>0</pproTicksIn>
												<pproTicksOut>74162088000</pproTicksOut>
												<sequence id="sequence-8"/>
												<labels>
													<label2>Iris</label2>
												</labels>
											</clipitem>
											<clipitem id="clipitem-838">
												<masterclipid>masterclip-157</masterclipid>
												<name>03 Zoom Out - Quick / Transform Out</name>
												<enabled>TRUE</enabled>
												<duration>1035764</duration>
												<rate>
													<timebase>24</timebase>
													<ntsc>TRUE</ntsc>
												</rate>
												<start>162</start>
												<end>169</end>
												<in>0</in>
												<out>8</out>
												<pproTicksIn>0</pproTicksIn>
												<pproTicksOut>84756672000</pproTicksOut>
												<sequence id="sequence-7"/>
													<marker>
														<comment></comment>
														<name></name>
														<in>16</in>
														<out>-1</out>
													</marker>
												<labels>
													<label2>Iris</label2>
												</labels>
											</clipitem>
											<clipitem id="clipitem-839">
												<masterclipid>masterclip-159</masterclipid>
												<name>03 Zoom Out - Quick / Transform In</name>
												<enabled>TRUE</enabled>
												<duration>1035764</duration>
												<rate>
													<timebase>24</timebase>
													<ntsc>TRUE</ntsc>
												</rate>
												<start>169</start>
												<end>177</end>
												<in>0</in>
												<out>8</out>
												<pproTicksIn>0</pproTicksIn>
												<pproTicksOut>84756672000</pproTicksOut>
												<sequence id="sequence-8"/>
												<filter>
													<effect>
														<name>Basic Motion</name>
														<effectid>basic</effectid>
														<effectcategory>motion</effectcategory>
														<effecttype>motion</effecttype>
														<mediatype>video</mediatype>
														<pproBypass>false</pproBypass>
														<parameter authoringApp="PremierePro">
															<parameterid>scale</parameterid>
															<name>Scale</name>
															<valuemin>0</valuemin>
															<valuemax>1000</valuemax>
															<value>100</value>
														</parameter>
														<parameter authoringApp="PremierePro">
															<parameterid>rotation</parameterid>
															<name>Rotation</name>
															<valuemin>-8640</valuemin>
															<valuemax>8640</valuemax>
															<value>0</value>
														</parameter>
														<parameter authoringApp="PremierePro">
															<parameterid>center</parameterid>
															<name>Center</name>
															<value>
																<horiz>-0.5</horiz>
																<vert>-0.499394</vert>
															</value>
														</parameter>
														<parameter authoringApp="PremierePro">
															<parameterid>centerOffset</parameterid>
															<name>Anchor Point</name>
															<value>
																<horiz>0</horiz>
																<vert>-0.00060606</vert>
															</value>
														</parameter>
														<parameter authoringApp="PremierePro">
															<parameterid>antiflicker</parameterid>
															<name>Anti-flicker Filter</name>
															<valuemin>0.0</valuemin>
															<valuemax>1.0</valuemax>
															<value>0</value>
														</parameter>
													</effect>
												</filter>
												<labels>
													<label2>Iris</label2>
												</labels>
											</clipitem>
											<enabled>TRUE</enabled>
											<locked>FALSE</locked>
										</track>
										<track TL.SQTrackShy="0" TL.SQTrackExpandedHeight="25" TL.SQTrackExpanded="0" MZ.TrackTargeted="0">
											<enabled>TRUE</enabled>
											<locked>FALSE</locked>
										</track>
									</video>
									<audio>
										<numOutputChannels>2</numOutputChannels>
										<format>
											<samplecharacteristics>
												<depth>16</depth>
												<samplerate>32000</samplerate>
											</samplecharacteristics>
										</format>
										<outputs>
											<group>
												<index>1</index>
												<numchannels>1</numchannels>
												<downmix>0</downmix>
												<channel>
													<index>1</index>
												</channel>
											</group>
											<group>
												<index>2</index>
												<numchannels>1</numchannels>
												<downmix>0</downmix>
												<channel>
													<index>2</index>
												</channel>
											</group>
										</outputs>
										<track TL.SQTrackAudioKeyframeStyle="0" TL.SQTrackShy="0" TL.SQTrackExpandedHeight="25" TL.SQTrackExpanded="0" MZ.TrackTargeted="1" PannerCurrentValue="0.5" PannerIsInverted="true" PannerStartKeyframe="-91445760000000000,0.5,0,0,0,0,0,0" PannerName="Balance" currentExplodedTrackIndex="0" totalExplodedTrackCount="2" premiereTrackType="Stereo">
											<clipitem id="clipitem-840" premiereChannelType="stereo">
												<masterclipid>masterclip-268</masterclipid>
												<name>ATM_DRONE_TRANS_E..mov</name>
												<enabled>TRUE</enabled>
												<duration>192</duration>
												<rate>
													<timebase>24</timebase>
													<ntsc>TRUE</ntsc>
												</rate>
												<start>0</start>
												<end>-1</end>
												<in>0</in>
												<out>164</out>
												<pproTicksIn>0</pproTicksIn>
												<pproTicksOut>1737511776000</pproTicksOut>
												<file id="file-244"/>
												<sourcetrack>
													<mediatype>audio</mediatype>
													<trackindex>1</trackindex>
												</sourcetrack>
												<filter>
													<effect>
														<name>Gain</name>
														<effectid>{61756678, 4761696e, 4b657947}</effectid>
														<effecttype>filter</effecttype>
														<mediatype>audio</mediatype>
														<parameter authoringApp="PremierePro">
															<parameterid>Gain(dB)</parameterid>
															<name>Gain(dB)</name>
															<valuemin>-96</valuemin>
															<valuemax>96</valuemax>
															<value>-9</value>
														</parameter>
													</effect>
												</filter>
												<link>
													<linkclipref>clipitem-840</linkclipref>
													<mediatype>audio</mediatype>
													<trackindex>1</trackindex>
													<clipindex>1</clipindex>
													<groupindex>1</groupindex>
												</link>
												<link>
													<linkclipref>clipitem-842</linkclipref>
													<mediatype>audio</mediatype>
													<trackindex>2</trackindex>
													<clipindex>1</clipindex>
													<groupindex>1</groupindex>
												</link>
												<logginginfo>
													<description></description>
													<scene></scene>
													<shottake></shottake>
													<lognote></lognote>
													<good></good>
													<originalvideofilename></originalvideofilename>
													<originalaudiofilename></originalaudiofilename>
												</logginginfo>
												<colorinfo>
													<lut></lut>
													<lut1></lut1>
													<asc_sop></asc_sop>
													<asc_sat></asc_sat>
													<lut2></lut2>
												</colorinfo>
												<labels>
													<label2>Iris</label2>
												</labels>
											</clipitem>
											<transitionitem>
												<start>160</start>
												<end>164</end>
												<pproTicksIn>1695133440000</pproTicksIn>
												<pproTicksOut>1737511776000</pproTicksOut>
												<alignment>center</alignment>
												<cutPointTicks>21189168000</cutPointTicks>
												<rate>
													<timebase>24</timebase>
													<ntsc>TRUE</ntsc>
												</rate>
												<effect>
													<name>Cross Fade ( 0dB)</name>
													<effectid>KGAudioTransCrossFade0dB</effectid>
													<effecttype>transition</effecttype>
													<mediatype>audio</mediatype>
													<wipecode>0</wipecode>
													<wipeaccuracy>100</wipeaccuracy>
													<startratio>0</startratio>
													<endratio>1</endratio>
													<reverse>FALSE</reverse>
												</effect>
											</transitionitem>
											<clipitem id="clipitem-841" premiereChannelType="stereo">
												<masterclipid>masterclip-268</masterclipid>
												<name>ATM_DRONE_TRANS_E..mov</name>
												<enabled>TRUE</enabled>
												<duration>192</duration>
												<rate>
													<timebase>24</timebase>
													<ntsc>TRUE</ntsc>
												</rate>
												<start>-1</start>
												<end>185</end>
												<in>167</in>
												<out>192</out>
												<pproTicksIn>1769295528000</pproTicksIn>
												<pproTicksOut>2034160128000</pproTicksOut>
												<file id="file-244"/>
												<sourcetrack>
													<mediatype>audio</mediatype>
													<trackindex>1</trackindex>
												</sourcetrack>
												<filter>
													<effect>
														<name>Gain</name>
														<effectid>{61756678, 4761696e, 4b657947}</effectid>
														<effecttype>filter</effecttype>
														<mediatype>audio</mediatype>
														<parameter authoringApp="PremierePro">
															<parameterid>Gain(dB)</parameterid>
															<name>Gain(dB)</name>
															<valuemin>-96</valuemin>
															<valuemax>96</valuemax>
															<value>-9</value>
														</parameter>
													</effect>
												</filter>
												<link>
													<linkclipref>clipitem-841</linkclipref>
													<mediatype>audio</mediatype>
													<trackindex>1</trackindex>
													<clipindex>3</clipindex>
													<groupindex>1</groupindex>
												</link>
												<link>
													<linkclipref>clipitem-843</linkclipref>
													<mediatype>audio</mediatype>
													<trackindex>2</trackindex>
													<clipindex>3</clipindex>
													<groupindex>1</groupindex>
												</link>
												<logginginfo>
													<description></description>
													<scene></scene>
													<shottake></shottake>
													<lognote></lognote>
													<good></good>
													<originalvideofilename></originalvideofilename>
													<originalaudiofilename></originalaudiofilename>
												</logginginfo>
												<colorinfo>
													<lut></lut>
													<lut1></lut1>
													<asc_sop></asc_sop>
													<asc_sat></asc_sat>
													<lut2></lut2>
												</colorinfo>
												<labels>
													<label2>Iris</label2>
												</labels>
											</clipitem>
											<enabled>TRUE</enabled>
											<locked>FALSE</locked>
											<outputchannelindex>1</outputchannelindex>
										</track>
										<track TL.SQTrackAudioKeyframeStyle="0" TL.SQTrackShy="0" TL.SQTrackExpandedHeight="25" TL.SQTrackExpanded="0" MZ.TrackTargeted="1" PannerCurrentValue="0.5" PannerIsInverted="true" PannerStartKeyframe="-91445760000000000,0.5,0,0,0,0,0,0" PannerName="Balance" currentExplodedTrackIndex="1" totalExplodedTrackCount="2" premiereTrackType="Stereo">
											<clipitem id="clipitem-842" premiereChannelType="stereo">
												<masterclipid>masterclip-268</masterclipid>
												<name>ATM_DRONE_TRANS_E..mov</name>
												<enabled>TRUE</enabled>
												<duration>192</duration>
												<rate>
													<timebase>24</timebase>
													<ntsc>TRUE</ntsc>
												</rate>
												<start>0</start>
												<end>-1</end>
												<in>0</in>
												<out>164</out>
												<pproTicksIn>0</pproTicksIn>
												<pproTicksOut>1737511776000</pproTicksOut>
												<file id="file-244"/>
												<sourcetrack>
													<mediatype>audio</mediatype>
													<trackindex>2</trackindex>
												</sourcetrack>
												<filter>
													<effect>
														<name>Gain</name>
														<effectid>{61756678, 4761696e, 4b657947}</effectid>
														<effecttype>filter</effecttype>
														<mediatype>audio</mediatype>
														<parameter authoringApp="PremierePro">
															<parameterid>Gain(dB)</parameterid>
															<name>Gain(dB)</name>
															<valuemin>-96</valuemin>
															<valuemax>96</valuemax>
															<value>-9</value>
														</parameter>
													</effect>
												</filter>
												<link>
													<linkclipref>clipitem-840</linkclipref>
													<mediatype>audio</mediatype>
													<trackindex>1</trackindex>
													<clipindex>1</clipindex>
													<groupindex>1</groupindex>
												</link>
												<link>
													<linkclipref>clipitem-842</linkclipref>
													<mediatype>audio</mediatype>
													<trackindex>2</trackindex>
													<clipindex>1</clipindex>
													<groupindex>1</groupindex>
												</link>
												<logginginfo>
													<description></description>
													<scene></scene>
													<shottake></shottake>
													<lognote></lognote>
													<good></good>
													<originalvideofilename></originalvideofilename>
													<originalaudiofilename></originalaudiofilename>
												</logginginfo>
												<colorinfo>
													<lut></lut>
													<lut1></lut1>
													<asc_sop></asc_sop>
													<asc_sat></asc_sat>
													<lut2></lut2>
												</colorinfo>
												<labels>
													<label2>Iris</label2>
												</labels>
											</clipitem>
											<transitionitem>
												<start>160</start>
												<end>164</end>
												<pproTicksIn>1695133440000</pproTicksIn>
												<pproTicksOut>1737511776000</pproTicksOut>
												<alignment>center</alignment>
												<cutPointTicks>21189168000</cutPointTicks>
												<rate>
													<timebase>24</timebase>
													<ntsc>TRUE</ntsc>
												</rate>
												<effect>
													<name>Cross Fade ( 0dB)</name>
													<effectid>KGAudioTransCrossFade0dB</effectid>
													<effecttype>transition</effecttype>
													<mediatype>audio</mediatype>
													<wipecode>0</wipecode>
													<wipeaccuracy>100</wipeaccuracy>
													<startratio>0</startratio>
													<endratio>1</endratio>
													<reverse>FALSE</reverse>
												</effect>
											</transitionitem>
											<clipitem id="clipitem-843" premiereChannelType="stereo">
												<masterclipid>masterclip-268</masterclipid>
												<name>ATM_DRONE_TRANS_E..mov</name>
												<enabled>TRUE</enabled>
												<duration>192</duration>
												<rate>
													<timebase>24</timebase>
													<ntsc>TRUE</ntsc>
												</rate>
												<start>-1</start>
												<end>185</end>
												<in>167</in>
												<out>192</out>
												<pproTicksIn>1769295528000</pproTicksIn>
												<pproTicksOut>2034160128000</pproTicksOut>
												<file id="file-244"/>
												<sourcetrack>
													<mediatype>audio</mediatype>
													<trackindex>2</trackindex>
												</sourcetrack>
												<filter>
													<effect>
														<name>Gain</name>
														<effectid>{61756678, 4761696e, 4b657947}</effectid>
														<effecttype>filter</effecttype>
														<mediatype>audio</mediatype>
														<parameter authoringApp="PremierePro">
															<parameterid>Gain(dB)</parameterid>
															<name>Gain(dB)</name>
															<valuemin>-96</valuemin>
															<valuemax>96</valuemax>
															<value>-9</value>
														</parameter>
													</effect>
												</filter>
												<link>
													<linkclipref>clipitem-841</linkclipref>
													<mediatype>audio</mediatype>
													<trackindex>1</trackindex>
													<clipindex>3</clipindex>
													<groupindex>1</groupindex>
												</link>
												<link>
													<linkclipref>clipitem-843</linkclipref>
													<mediatype>audio</mediatype>
													<trackindex>2</trackindex>
													<clipindex>3</clipindex>
													<groupindex>1</groupindex>
												</link>
												<logginginfo>
													<description></description>
													<scene></scene>
													<shottake></shottake>
													<lognote></lognote>
													<good></good>
													<originalvideofilename></originalvideofilename>
													<originalaudiofilename></originalaudiofilename>
												</logginginfo>
												<colorinfo>
													<lut></lut>
													<lut1></lut1>
													<asc_sop></asc_sop>
													<asc_sat></asc_sat>
													<lut2></lut2>
												</colorinfo>
												<labels>
													<label2>Iris</label2>
												</labels>
											</clipitem>
											<enabled>TRUE</enabled>
											<locked>FALSE</locked>
											<outputchannelindex>2</outputchannelindex>
										</track>
										<track TL.SQTrackAudioKeyframeStyle="0" TL.SQTrackShy="0" TL.SQTrackExpandedHeight="25" TL.SQTrackExpanded="0" MZ.TrackTargeted="1" PannerCurrentValue="0.5" PannerIsInverted="true" PannerStartKeyframe="-91445760000000000,0.5,0,0,0,0,0,0" PannerName="Balance" currentExplodedTrackIndex="0" totalExplodedTrackCount="2" premiereTrackType="Stereo">
											<enabled>TRUE</enabled>
											<locked>FALSE</locked>
											<outputchannelindex>1</outputchannelindex>
										</track>
										<track TL.SQTrackAudioKeyframeStyle="0" TL.SQTrackShy="0" TL.SQTrackExpandedHeight="25" TL.SQTrackExpanded="0" MZ.TrackTargeted="1" PannerCurrentValue="0.5" PannerIsInverted="true" PannerStartKeyframe="-91445760000000000,0.5,0,0,0,0,0,0" PannerName="Balance" currentExplodedTrackIndex="1" totalExplodedTrackCount="2" premiereTrackType="Stereo">
											<enabled>TRUE</enabled>
											<locked>FALSE</locked>
											<outputchannelindex>2</outputchannelindex>
										</track>
										<track TL.SQTrackAudioKeyframeStyle="0" TL.SQTrackShy="0" TL.SQTrackExpandedHeight="25" TL.SQTrackExpanded="0" MZ.TrackTargeted="1" PannerCurrentValue="0.5" PannerIsInverted="true" PannerStartKeyframe="-91445760000000000,0.5,0,0,0,0,0,0" PannerName="Balance" currentExplodedTrackIndex="0" totalExplodedTrackCount="2" premiereTrackType="Stereo">
											<enabled>TRUE</enabled>
											<locked>FALSE</locked>
											<outputchannelindex>1</outputchannelindex>
										</track>
										<track TL.SQTrackAudioKeyframeStyle="0" TL.SQTrackShy="0" TL.SQTrackExpandedHeight="25" TL.SQTrackExpanded="0" MZ.TrackTargeted="1" PannerCurrentValue="0.5" PannerIsInverted="true" PannerStartKeyframe="-91445760000000000,0.5,0,0,0,0,0,0" PannerName="Balance" currentExplodedTrackIndex="1" totalExplodedTrackCount="2" premiereTrackType="Stereo">
											<enabled>TRUE</enabled>
											<locked>FALSE</locked>
											<outputchannelindex>2</outputchannelindex>
										</track>
									</audio>
								</media>
								<timecode>
									<rate>
										<timebase>24</timebase>
										<ntsc>TRUE</ntsc>
									</rate>
									<string>00:00:00:00</string>
									<frame>0</frame>
									<displayformat>NDF</displayformat>
								</timecode>
									<marker>
										<comment></comment>
										<name></name>
										<in>8</in>
										<out>-1</out>
										<pproColor>4281828977</pproColor>
									</marker>
									<marker>
										<comment></comment>
										<name></name>
										<in>184</in>
										<out>-1</out>
										<pproColor>4281828977</pproColor>
									</marker>
								<labels>
									<label2>Tan</label2>
								</labels>
								<logginginfo>
									<description></description>
									<scene></scene>
									<shottake></shottake>
									<lognote></lognote>
									<good></good>
									<originalvideofilename></originalvideofilename>
									<originalaudiofilename></originalaudiofilename>
								</logginginfo>
							</sequence>
							<sequence id="sequence-65" TL.SQAudioVisibleBase="0" TL.SQVideoVisibleBase="0" TL.SQVisibleBaseTime="0" TL.SQAVDividerPosition="0.5" TL.SQHideShyTracks="0" TL.SQHeaderWidth="236" Monitor.ProgramZoomOut="2034160128000" Monitor.ProgramZoomIn="0" TL.SQTimePerPixel="0.0013902777777777776" MZ.EditLine="95351256000" MZ.Sequence.PreviewFrameSizeHeight="1080" MZ.Sequence.PreviewFrameSizeWidth="1920" MZ.Sequence.AudioTimeDisplayFormat="200" MZ.Sequence.PreviewRenderingClassID="1297106761" MZ.Sequence.PreviewRenderingPresetCodec="1297107278" MZ.Sequence.PreviewRenderingPresetPath="EncoderPresets/SequencePreview/795454d9-d3c2-429d-9474-923ab13b7018/I-Frame Only MPEG.epr" MZ.Sequence.PreviewUseMaxRenderQuality="false" MZ.Sequence.PreviewUseMaxBitDepth="false" MZ.Sequence.EditingModeGUID="795454d9-d3c2-429d-9474-923ab13b7018" MZ.Sequence.VideoTimeDisplayFormat="110" MZ.WorkOutPoint="2468538072000" MZ.WorkInPoint="0" explodedTracks="true">
								<uuid>9ecd3e2f-0ad2-4f51-9d62-3be422a8c6eb</uuid>
								<duration>192</duration>
								<rate>
									<timebase>24</timebase>
									<ntsc>TRUE</ntsc>
								</rate>
								<out>192</out>
								<name>Trans D</name>
								<media>
									<video>
										<format>
											<samplecharacteristics>
												<rate>
													<timebase>24</timebase>
													<ntsc>TRUE</ntsc>
												</rate>
												<codec>
													<name>Apple ProRes 422</name>
													<appspecificdata>
														<appname>Final Cut Pro</appname>
														<appmanufacturer>Apple Inc.</appmanufacturer>
														<appversion>7.0</appversion>
														<data>
															<qtcodec>
																<codecname>Apple ProRes 422</codecname>
																<codectypename>Apple ProRes 422</codectypename>
																<codectypecode>apcn</codectypecode>
																<codecvendorcode>appl</codecvendorcode>
																<spatialquality>1024</spatialquality>
																<temporalquality>0</temporalquality>
																<keyframerate>0</keyframerate>
																<datarate>0</datarate>
															</qtcodec>
														</data>
													</appspecificdata>
												</codec>
												<width>1920</width>
												<height>1080</height>
												<anamorphic>FALSE</anamorphic>
												<pixelaspectratio>square</pixelaspectratio>
												<fielddominance>none</fielddominance>
												<colordepth>24</colordepth>
											</samplecharacteristics>
										</format>
										<track TL.SQTrackShy="0" TL.SQTrackExpandedHeight="25" TL.SQTrackExpanded="0" MZ.TrackTargeted="1">
											<clipitem id="clipitem-844">
												<masterclipid>masterclip-354</masterclipid>
												<name>ATM_DRONE_TRANS_D [23.976].mp4</name>
												<enabled>TRUE</enabled>
												<duration>193</duration>
												<rate>
													<timebase>24</timebase>
													<ntsc>TRUE</ntsc>
												</rate>
												<start>8</start>
												<end>178</end>
												<in>14</in>
												<out>184</out>
												<pproTicksIn>148324176000</pproTicksIn>
												<pproTicksOut>1949403456000</pproTicksOut>
												<alphatype>none</alphatype>
												<file id="file-326"/>
												<logginginfo>
													<description></description>
													<scene></scene>
													<shottake></shottake>
													<lognote></lognote>
													<good></good>
													<originalvideofilename></originalvideofilename>
													<originalaudiofilename></originalaudiofilename>
												</logginginfo>
												<colorinfo>
													<lut></lut>
													<lut1></lut1>
													<asc_sop></asc_sop>
													<asc_sat></asc_sat>
													<lut2></lut2>
												</colorinfo>
												<labels>
													<label2>Iris</label2>
												</labels>
											</clipitem>
											<enabled>TRUE</enabled>
											<locked>FALSE</locked>
										</track>
										<track TL.SQTrackShy="0" TL.SQTrackExpandedHeight="25" TL.SQTrackExpanded="0" MZ.TrackTargeted="0">
											<clipitem id="clipitem-845">
												<masterclipid>masterclip-157</masterclipid>
												<name>02 Zoom In - Quick / Transform Out</name>
												<enabled>TRUE</enabled>
												<duration>1035764</duration>
												<rate>
													<timebase>24</timebase>
													<ntsc>TRUE</ntsc>
												</rate>
												<start>0</start>
												<end>8</end>
												<in>0</in>
												<out>8</out>
												<pproTicksIn>0</pproTicksIn>
												<pproTicksOut>84756672000</pproTicksOut>
												<sequence id="sequence-7"/>
													<marker>
														<comment></comment>
														<name></name>
														<in>16</in>
														<out>-1</out>
													</marker>
												<labels>
													<label2>Iris</label2>
												</labels>
											</clipitem>
											<clipitem id="clipitem-846">
												<masterclipid>masterclip-159</masterclipid>
												<name>02 Zoom In - Quick / Transform In</name>
												<enabled>TRUE</enabled>
												<duration>1035764</duration>
												<rate>
													<timebase>24</timebase>
													<ntsc>TRUE</ntsc>
												</rate>
												<start>8</start>
												<end>13</end>
												<in>0</in>
												<out>7</out>
												<pproTicksIn>0</pproTicksIn>
												<pproTicksOut>74162088000</pproTicksOut>
												<sequence id="sequence-8"/>
												<labels>
													<label2>Iris</label2>
												</labels>
											</clipitem>
											<clipitem id="clipitem-847">
												<masterclipid>masterclip-157</masterclipid>
												<name>03 Zoom Out - Quick / Transform Out</name>
												<enabled>TRUE</enabled>
												<duration>1035764</duration>
												<rate>
													<timebase>24</timebase>
													<ntsc>TRUE</ntsc>
												</rate>
												<start>171</start>
												<end>178</end>
												<in>0</in>
												<out>8</out>
												<pproTicksIn>0</pproTicksIn>
												<pproTicksOut>84756672000</pproTicksOut>
												<sequence id="sequence-7"/>
													<marker>
														<comment></comment>
														<name></name>
														<in>16</in>
														<out>-1</out>
													</marker>
												<labels>
													<label2>Iris</label2>
												</labels>
											</clipitem>
											<clipitem id="clipitem-848">
												<masterclipid>masterclip-159</masterclipid>
												<name>03 Zoom Out - Quick / Transform In</name>
												<enabled>TRUE</enabled>
												<duration>1035764</duration>
												<rate>
													<timebase>24</timebase>
													<ntsc>TRUE</ntsc>
												</rate>
												<start>178</start>
												<end>186</end>
												<in>0</in>
												<out>8</out>
												<pproTicksIn>0</pproTicksIn>
												<pproTicksOut>84756672000</pproTicksOut>
												<sequence id="sequence-8"/>
												<filter>
													<effect>
														<name>Basic Motion</name>
														<effectid>basic</effectid>
														<effectcategory>motion</effectcategory>
														<effecttype>motion</effecttype>
														<mediatype>video</mediatype>
														<pproBypass>false</pproBypass>
														<parameter authoringApp="PremierePro">
															<parameterid>scale</parameterid>
															<name>Scale</name>
															<valuemin>0</valuemin>
															<valuemax>1000</valuemax>
															<value>100</value>
														</parameter>
														<parameter authoringApp="PremierePro">
															<parameterid>rotation</parameterid>
															<name>Rotation</name>
															<valuemin>-8640</valuemin>
															<valuemax>8640</valuemax>
															<value>0</value>
														</parameter>
														<parameter authoringApp="PremierePro">
															<parameterid>center</parameterid>
															<name>Center</name>
															<value>
																<horiz>-0.5</horiz>
																<vert>-0.499394</vert>
															</value>
														</parameter>
														<parameter authoringApp="PremierePro">
															<parameterid>centerOffset</parameterid>
															<name>Anchor Point</name>
															<value>
																<horiz>0</horiz>
																<vert>-0.00060606</vert>
															</value>
														</parameter>
														<parameter authoringApp="PremierePro">
															<parameterid>antiflicker</parameterid>
															<name>Anti-flicker Filter</name>
															<valuemin>0.0</valuemin>
															<valuemax>1.0</valuemax>
															<value>0</value>
														</parameter>
													</effect>
												</filter>
												<labels>
													<label2>Iris</label2>
												</labels>
											</clipitem>
											<enabled>TRUE</enabled>
											<locked>FALSE</locked>
										</track>
										<track TL.SQTrackShy="0" TL.SQTrackExpandedHeight="25" TL.SQTrackExpanded="0" MZ.TrackTargeted="0">
											<enabled>TRUE</enabled>
											<locked>FALSE</locked>
										</track>
									</video>
									<audio>
										<numOutputChannels>2</numOutputChannels>
										<format>
											<samplecharacteristics>
												<depth>16</depth>
												<samplerate>32000</samplerate>
											</samplecharacteristics>
										</format>
										<outputs>
											<group>
												<index>1</index>
												<numchannels>1</numchannels>
												<downmix>0</downmix>
												<channel>
													<index>1</index>
												</channel>
											</group>
											<group>
												<index>2</index>
												<numchannels>1</numchannels>
												<downmix>0</downmix>
												<channel>
													<index>2</index>
												</channel>
											</group>
										</outputs>
										<track TL.SQTrackAudioKeyframeStyle="0" TL.SQTrackShy="0" TL.SQTrackExpandedHeight="25" TL.SQTrackExpanded="0" MZ.TrackTargeted="1" PannerCurrentValue="0.5" PannerIsInverted="true" PannerStartKeyframe="-91445760000000000,0.5,0,0,0,0,0,0" PannerName="Balance" currentExplodedTrackIndex="0" totalExplodedTrackCount="2" premiereTrackType="Stereo">
											<clipitem id="clipitem-849" premiereChannelType="stereo">
												<masterclipid>masterclip-161</masterclipid>
												<name>ATM_DRONE_TRANS_D.mov</name>
												<enabled>TRUE</enabled>
												<duration>192</duration>
												<rate>
													<timebase>24</timebase>
													<ntsc>TRUE</ntsc>
												</rate>
												<start>0</start>
												<end>171</end>
												<in>0</in>
												<out>171</out>
												<pproTicksIn>0</pproTicksIn>
												<pproTicksOut>1811673864000</pproTicksOut>
												<file id="file-153"/>
												<sourcetrack>
													<mediatype>audio</mediatype>
													<trackindex>1</trackindex>
												</sourcetrack>
												<filter>
													<effect>
														<name>Gain</name>
														<effectid>{61756678, 4761696e, 4b657947}</effectid>
														<effecttype>filter</effecttype>
														<mediatype>audio</mediatype>
														<parameter authoringApp="PremierePro">
															<parameterid>Gain(dB)</parameterid>
															<name>Gain(dB)</name>
															<valuemin>-96</valuemin>
															<valuemax>96</valuemax>
															<value>-9</value>
														</parameter>
													</effect>
												</filter>
												<link>
													<linkclipref>clipitem-849</linkclipref>
													<mediatype>audio</mediatype>
													<trackindex>1</trackindex>
													<clipindex>1</clipindex>
													<groupindex>1</groupindex>
												</link>
												<link>
													<linkclipref>clipitem-851</linkclipref>
													<mediatype>audio</mediatype>
													<trackindex>2</trackindex>
													<clipindex>1</clipindex>
													<groupindex>1</groupindex>
												</link>
												<logginginfo>
													<description></description>
													<scene></scene>
													<shottake></shottake>
													<lognote></lognote>
													<good></good>
													<originalvideofilename></originalvideofilename>
													<originalaudiofilename></originalaudiofilename>
												</logginginfo>
												<colorinfo>
													<lut></lut>
													<lut1></lut1>
													<asc_sop></asc_sop>
													<asc_sat></asc_sat>
													<lut2></lut2>
												</colorinfo>
												<labels>
													<label2>Iris</label2>
												</labels>
											</clipitem>
											<clipitem id="clipitem-850" premiereChannelType="stereo">
												<masterclipid>masterclip-161</masterclipid>
												<name>ATM_DRONE_TRANS_D.mov</name>
												<enabled>TRUE</enabled>
												<duration>192</duration>
												<rate>
													<timebase>24</timebase>
													<ntsc>TRUE</ntsc>
												</rate>
												<start>171</start>
												<end>192</end>
												<in>171</in>
												<out>192</out>
												<pproTicksIn>1811673864000</pproTicksIn>
												<pproTicksOut>2034160128000</pproTicksOut>
												<file id="file-153"/>
												<sourcetrack>
													<mediatype>audio</mediatype>
													<trackindex>1</trackindex>
												</sourcetrack>
												<filter>
													<effect>
														<name>Gain</name>
														<effectid>{61756678, 4761696e, 4b657947}</effectid>
														<effecttype>filter</effecttype>
														<mediatype>audio</mediatype>
														<parameter authoringApp="PremierePro">
															<parameterid>Gain(dB)</parameterid>
															<name>Gain(dB)</name>
															<valuemin>-96</valuemin>
															<valuemax>96</valuemax>
															<value>-9</value>
														</parameter>
													</effect>
												</filter>
												<link>
													<linkclipref>clipitem-850</linkclipref>
													<mediatype>audio</mediatype>
													<trackindex>1</trackindex>
													<clipindex>2</clipindex>
													<groupindex>1</groupindex>
												</link>
												<link>
													<linkclipref>clipitem-852</linkclipref>
													<mediatype>audio</mediatype>
													<trackindex>2</trackindex>
													<clipindex>2</clipindex>
													<groupindex>1</groupindex>
												</link>
												<logginginfo>
													<description></description>
													<scene></scene>
													<shottake></shottake>
													<lognote></lognote>
													<good></good>
													<originalvideofilename></originalvideofilename>
													<originalaudiofilename></originalaudiofilename>
												</logginginfo>
												<colorinfo>
													<lut></lut>
													<lut1></lut1>
													<asc_sop></asc_sop>
													<asc_sat></asc_sat>
													<lut2></lut2>
												</colorinfo>
												<labels>
													<label2>Iris</label2>
												</labels>
											</clipitem>
											<enabled>TRUE</enabled>
											<locked>FALSE</locked>
											<outputchannelindex>1</outputchannelindex>
										</track>
										<track TL.SQTrackAudioKeyframeStyle="0" TL.SQTrackShy="0" TL.SQTrackExpandedHeight="25" TL.SQTrackExpanded="0" MZ.TrackTargeted="1" PannerCurrentValue="0.5" PannerIsInverted="true" PannerStartKeyframe="-91445760000000000,0.5,0,0,0,0,0,0" PannerName="Balance" currentExplodedTrackIndex="1" totalExplodedTrackCount="2" premiereTrackType="Stereo">
											<clipitem id="clipitem-851" premiereChannelType="stereo">
												<masterclipid>masterclip-161</masterclipid>
												<name>ATM_DRONE_TRANS_D.mov</name>
												<enabled>TRUE</enabled>
												<duration>192</duration>
												<rate>
													<timebase>24</timebase>
													<ntsc>TRUE</ntsc>
												</rate>
												<start>0</start>
												<end>171</end>
												<in>0</in>
												<out>171</out>
												<pproTicksIn>0</pproTicksIn>
												<pproTicksOut>1811673864000</pproTicksOut>
												<file id="file-153"/>
												<sourcetrack>
													<mediatype>audio</mediatype>
													<trackindex>2</trackindex>
												</sourcetrack>
												<filter>
													<effect>
														<name>Gain</name>
														<effectid>{61756678, 4761696e, 4b657947}</effectid>
														<effecttype>filter</effecttype>
														<mediatype>audio</mediatype>
														<parameter authoringApp="PremierePro">
															<parameterid>Gain(dB)</parameterid>
															<name>Gain(dB)</name>
															<valuemin>-96</valuemin>
															<valuemax>96</valuemax>
															<value>-9</value>
														</parameter>
													</effect>
												</filter>
												<link>
													<linkclipref>clipitem-849</linkclipref>
													<mediatype>audio</mediatype>
													<trackindex>1</trackindex>
													<clipindex>1</clipindex>
													<groupindex>1</groupindex>
												</link>
												<link>
													<linkclipref>clipitem-851</linkclipref>
													<mediatype>audio</mediatype>
													<trackindex>2</trackindex>
													<clipindex>1</clipindex>
													<groupindex>1</groupindex>
												</link>
												<logginginfo>
													<description></description>
													<scene></scene>
													<shottake></shottake>
													<lognote></lognote>
													<good></good>
													<originalvideofilename></originalvideofilename>
													<originalaudiofilename></originalaudiofilename>
												</logginginfo>
												<colorinfo>
													<lut></lut>
													<lut1></lut1>
													<asc_sop></asc_sop>
													<asc_sat></asc_sat>
													<lut2></lut2>
												</colorinfo>
												<labels>
													<label2>Iris</label2>
												</labels>
											</clipitem>
											<clipitem id="clipitem-852" premiereChannelType="stereo">
												<masterclipid>masterclip-161</masterclipid>
												<name>ATM_DRONE_TRANS_D.mov</name>
												<enabled>TRUE</enabled>
												<duration>192</duration>
												<rate>
													<timebase>24</timebase>
													<ntsc>TRUE</ntsc>
												</rate>
												<start>171</start>
												<end>192</end>
												<in>171</in>
												<out>192</out>
												<pproTicksIn>1811673864000</pproTicksIn>
												<pproTicksOut>2034160128000</pproTicksOut>
												<file id="file-153"/>
												<sourcetrack>
													<mediatype>audio</mediatype>
													<trackindex>2</trackindex>
												</sourcetrack>
												<filter>
													<effect>
														<name>Gain</name>
														<effectid>{61756678, 4761696e, 4b657947}</effectid>
														<effecttype>filter</effecttype>
														<mediatype>audio</mediatype>
														<parameter authoringApp="PremierePro">
															<parameterid>Gain(dB)</parameterid>
															<name>Gain(dB)</name>
															<valuemin>-96</valuemin>
															<valuemax>96</valuemax>
															<value>-9</value>
														</parameter>
													</effect>
												</filter>
												<link>
													<linkclipref>clipitem-850</linkclipref>
													<mediatype>audio</mediatype>
													<trackindex>1</trackindex>
													<clipindex>2</clipindex>
													<groupindex>1</groupindex>
												</link>
												<link>
													<linkclipref>clipitem-852</linkclipref>
													<mediatype>audio</mediatype>
													<trackindex>2</trackindex>
													<clipindex>2</clipindex>
													<groupindex>1</groupindex>
												</link>
												<logginginfo>
													<description></description>
													<scene></scene>
													<shottake></shottake>
													<lognote></lognote>
													<good></good>
													<originalvideofilename></originalvideofilename>
													<originalaudiofilename></originalaudiofilename>
												</logginginfo>
												<colorinfo>
													<lut></lut>
													<lut1></lut1>
													<asc_sop></asc_sop>
													<asc_sat></asc_sat>
													<lut2></lut2>
												</colorinfo>
												<labels>
													<label2>Iris</label2>
												</labels>
											</clipitem>
											<enabled>TRUE</enabled>
											<locked>FALSE</locked>
											<outputchannelindex>2</outputchannelindex>
										</track>
										<track TL.SQTrackAudioKeyframeStyle="0" TL.SQTrackShy="0" TL.SQTrackExpandedHeight="25" TL.SQTrackExpanded="0" MZ.TrackTargeted="1" PannerCurrentValue="0.5" PannerIsInverted="true" PannerStartKeyframe="-91445760000000000,0.5,0,0,0,0,0,0" PannerName="Balance" currentExplodedTrackIndex="0" totalExplodedTrackCount="2" premiereTrackType="Stereo">
											<enabled>TRUE</enabled>
											<locked>FALSE</locked>
											<outputchannelindex>1</outputchannelindex>
										</track>
										<track TL.SQTrackAudioKeyframeStyle="0" TL.SQTrackShy="0" TL.SQTrackExpandedHeight="25" TL.SQTrackExpanded="0" MZ.TrackTargeted="1" PannerCurrentValue="0.5" PannerIsInverted="true" PannerStartKeyframe="-91445760000000000,0.5,0,0,0,0,0,0" PannerName="Balance" currentExplodedTrackIndex="1" totalExplodedTrackCount="2" premiereTrackType="Stereo">
											<enabled>TRUE</enabled>
											<locked>FALSE</locked>
											<outputchannelindex>2</outputchannelindex>
										</track>
										<track TL.SQTrackAudioKeyframeStyle="0" TL.SQTrackShy="0" TL.SQTrackExpandedHeight="25" TL.SQTrackExpanded="0" MZ.TrackTargeted="1" PannerCurrentValue="0.5" PannerIsInverted="true" PannerStartKeyframe="-91445760000000000,0.5,0,0,0,0,0,0" PannerName="Balance" currentExplodedTrackIndex="0" totalExplodedTrackCount="2" premiereTrackType="Stereo">
											<enabled>TRUE</enabled>
											<locked>FALSE</locked>
											<outputchannelindex>1</outputchannelindex>
										</track>
										<track TL.SQTrackAudioKeyframeStyle="0" TL.SQTrackShy="0" TL.SQTrackExpandedHeight="25" TL.SQTrackExpanded="0" MZ.TrackTargeted="1" PannerCurrentValue="0.5" PannerIsInverted="true" PannerStartKeyframe="-91445760000000000,0.5,0,0,0,0,0,0" PannerName="Balance" currentExplodedTrackIndex="1" totalExplodedTrackCount="2" premiereTrackType="Stereo">
											<enabled>TRUE</enabled>
											<locked>FALSE</locked>
											<outputchannelindex>2</outputchannelindex>
										</track>
									</audio>
								</media>
								<timecode>
									<rate>
										<timebase>24</timebase>
										<ntsc>TRUE</ntsc>
									</rate>
									<string>00:00:00:00</string>
									<frame>0</frame>
									<displayformat>NDF</displayformat>
								</timecode>
									<marker>
										<comment></comment>
										<name></name>
										<in>178</in>
										<out>-1</out>
										<pproColor>4281828977</pproColor>
									</marker>
									<marker>
										<comment></comment>
										<name></name>
										<in>9</in>
										<out>-1</out>
										<pproColor>4281828977</pproColor>
									</marker>
								<labels>
									<label2>Tan</label2>
								</labels>
								<logginginfo>
									<description></description>
									<scene></scene>
									<shottake></shottake>
									<lognote></lognote>
									<good></good>
									<originalvideofilename></originalvideofilename>
									<originalaudiofilename></originalaudiofilename>
								</logginginfo>
							</sequence>
							<sequence id="sequence-66" TL.SQAudioVisibleBase="0" TL.SQVideoVisibleBase="0" TL.SQVisibleBaseTime="645707116027" TL.SQAVDividerPosition="0.5" TL.SQHideShyTracks="0" TL.SQHeaderWidth="236" Monitor.ProgramZoomOut="1801079280000" Monitor.ProgramZoomIn="0" TL.SQTimePerPixel="0.005513064282518877" MZ.EditLine="1801079280000" MZ.Sequence.PreviewFrameSizeHeight="1080" MZ.Sequence.PreviewFrameSizeWidth="1920" MZ.Sequence.AudioTimeDisplayFormat="200" MZ.Sequence.PreviewRenderingClassID="1297106761" MZ.Sequence.PreviewRenderingPresetCodec="1297107278" MZ.Sequence.PreviewRenderingPresetPath="EncoderPresets/SequencePreview/795454d9-d3c2-429d-9474-923ab13b7018/I-Frame Only MPEG.epr" MZ.Sequence.PreviewUseMaxRenderQuality="false" MZ.Sequence.PreviewUseMaxBitDepth="false" MZ.Sequence.EditingModeGUID="795454d9-d3c2-429d-9474-923ab13b7018" MZ.Sequence.VideoTimeDisplayFormat="110" MZ.WorkOutPoint="15239249625600" MZ.WorkInPoint="0" explodedTracks="true">
								<uuid>22319199-10a4-4867-9b21-a105d77fdd73</uuid>
								<duration>170</duration>
								<rate>
									<timebase>24</timebase>
									<ntsc>TRUE</ntsc>
								</rate>
								<name>Trans C</name>
								<media>
									<video>
										<format>
											<samplecharacteristics>
												<rate>
													<timebase>24</timebase>
													<ntsc>TRUE</ntsc>
												</rate>
												<codec>
													<name>Apple ProRes 422</name>
													<appspecificdata>
														<appname>Final Cut Pro</appname>
														<appmanufacturer>Apple Inc.</appmanufacturer>
														<appversion>7.0</appversion>
														<data>
															<qtcodec>
																<codecname>Apple ProRes 422</codecname>
																<codectypename>Apple ProRes 422</codectypename>
																<codectypecode>apcn</codectypecode>
																<codecvendorcode>appl</codecvendorcode>
																<spatialquality>1024</spatialquality>
																<temporalquality>0</temporalquality>
																<keyframerate>0</keyframerate>
																<datarate>0</datarate>
															</qtcodec>
														</data>
													</appspecificdata>
												</codec>
												<width>1920</width>
												<height>1080</height>
												<anamorphic>FALSE</anamorphic>
												<pixelaspectratio>square</pixelaspectratio>
												<fielddominance>none</fielddominance>
												<colordepth>24</colordepth>
											</samplecharacteristics>
										</format>
										<track TL.SQTrackShy="0" TL.SQTrackExpandedHeight="25" TL.SQTrackExpanded="0" MZ.TrackTargeted="1">
											<clipitem id="clipitem-853">
												<masterclipid>masterclip-353</masterclipid>
												<name>ATM_DRONE_TRANS_C [23.976].mp4</name>
												<enabled>TRUE</enabled>
												<duration>193</duration>
												<rate>
													<timebase>24</timebase>
													<ntsc>TRUE</ntsc>
												</rate>
												<start>8</start>
												<end>159</end>
												<in>33</in>
												<out>184</out>
												<pproTicksIn>349621272000</pproTicksIn>
												<pproTicksOut>1949403456000</pproTicksOut>
												<alphatype>none</alphatype>
												<file id="file-325"/>
												<logginginfo>
													<description></description>
													<scene></scene>
													<shottake></shottake>
													<lognote></lognote>
													<good></good>
													<originalvideofilename></originalvideofilename>
													<originalaudiofilename></originalaudiofilename>
												</logginginfo>
												<colorinfo>
													<lut></lut>
													<lut1></lut1>
													<asc_sop></asc_sop>
													<asc_sat></asc_sat>
													<lut2></lut2>
												</colorinfo>
												<labels>
													<label2>Iris</label2>
												</labels>
											</clipitem>
											<enabled>TRUE</enabled>
											<locked>FALSE</locked>
										</track>
										<track TL.SQTrackShy="0" TL.SQTrackExpandedHeight="25" TL.SQTrackExpanded="0" MZ.TrackTargeted="0">
											<clipitem id="clipitem-854">
												<masterclipid>masterclip-157</masterclipid>
												<name>02 Zoom In - Quick / Transform Out</name>
												<enabled>TRUE</enabled>
												<duration>1035764</duration>
												<rate>
													<timebase>24</timebase>
													<ntsc>TRUE</ntsc>
												</rate>
												<start>0</start>
												<end>8</end>
												<in>0</in>
												<out>8</out>
												<pproTicksIn>0</pproTicksIn>
												<pproTicksOut>84756672000</pproTicksOut>
												<sequence id="sequence-7"/>
													<marker>
														<comment></comment>
														<name></name>
														<in>16</in>
														<out>-1</out>
													</marker>
												<labels>
													<label2>Iris</label2>
												</labels>
											</clipitem>
											<clipitem id="clipitem-855">
												<masterclipid>masterclip-159</masterclipid>
												<name>02 Zoom In - Quick / Transform In</name>
												<enabled>TRUE</enabled>
												<duration>1035764</duration>
												<rate>
													<timebase>24</timebase>
													<ntsc>TRUE</ntsc>
												</rate>
												<start>8</start>
												<end>13</end>
												<in>0</in>
												<out>7</out>
												<pproTicksIn>0</pproTicksIn>
												<pproTicksOut>74162088000</pproTicksOut>
												<sequence id="sequence-8"/>
												<labels>
													<label2>Iris</label2>
												</labels>
											</clipitem>
											<clipitem id="clipitem-856">
												<masterclipid>masterclip-157</masterclipid>
												<name>03 Zoom Out - Quick / Transform Out</name>
												<enabled>TRUE</enabled>
												<duration>1035764</duration>
												<rate>
													<timebase>24</timebase>
													<ntsc>TRUE</ntsc>
												</rate>
												<start>152</start>
												<end>159</end>
												<in>0</in>
												<out>8</out>
												<pproTicksIn>0</pproTicksIn>
												<pproTicksOut>84756672000</pproTicksOut>
												<sequence id="sequence-7"/>
													<marker>
														<comment></comment>
														<name></name>
														<in>16</in>
														<out>-1</out>
													</marker>
												<labels>
													<label2>Iris</label2>
												</labels>
											</clipitem>
											<clipitem id="clipitem-857">
												<masterclipid>masterclip-159</masterclipid>
												<name>03 Zoom Out - Quick / Transform In</name>
												<enabled>TRUE</enabled>
												<duration>1035764</duration>
												<rate>
													<timebase>24</timebase>
													<ntsc>TRUE</ntsc>
												</rate>
												<start>159</start>
												<end>167</end>
												<in>0</in>
												<out>8</out>
												<pproTicksIn>0</pproTicksIn>
												<pproTicksOut>84756672000</pproTicksOut>
												<sequence id="sequence-8"/>
												<filter>
													<effect>
														<name>Basic Motion</name>
														<effectid>basic</effectid>
														<effectcategory>motion</effectcategory>
														<effecttype>motion</effecttype>
														<mediatype>video</mediatype>
														<pproBypass>false</pproBypass>
														<parameter authoringApp="PremierePro">
															<parameterid>scale</parameterid>
															<name>Scale</name>
															<valuemin>0</valuemin>
															<valuemax>1000</valuemax>
															<value>100</value>
														</parameter>
														<parameter authoringApp="PremierePro">
															<parameterid>rotation</parameterid>
															<name>Rotation</name>
															<valuemin>-8640</valuemin>
															<valuemax>8640</valuemax>
															<value>0</value>
														</parameter>
														<parameter authoringApp="PremierePro">
															<parameterid>center</parameterid>
															<name>Center</name>
															<value>
																<horiz>-0.5</horiz>
																<vert>-0.499394</vert>
															</value>
														</parameter>
														<parameter authoringApp="PremierePro">
															<parameterid>centerOffset</parameterid>
															<name>Anchor Point</name>
															<value>
																<horiz>0</horiz>
																<vert>-0.00060606</vert>
															</value>
														</parameter>
														<parameter authoringApp="PremierePro">
															<parameterid>antiflicker</parameterid>
															<name>Anti-flicker Filter</name>
															<valuemin>0.0</valuemin>
															<valuemax>1.0</valuemax>
															<value>0</value>
														</parameter>
													</effect>
												</filter>
												<labels>
													<label2>Iris</label2>
												</labels>
											</clipitem>
											<enabled>TRUE</enabled>
											<locked>FALSE</locked>
										</track>
										<track TL.SQTrackShy="0" TL.SQTrackExpandedHeight="25" TL.SQTrackExpanded="0" MZ.TrackTargeted="0">
											<enabled>TRUE</enabled>
											<locked>FALSE</locked>
										</track>
									</video>
									<audio>
										<numOutputChannels>2</numOutputChannels>
										<format>
											<samplecharacteristics>
												<depth>16</depth>
												<samplerate>32000</samplerate>
											</samplecharacteristics>
										</format>
										<outputs>
											<group>
												<index>1</index>
												<numchannels>1</numchannels>
												<downmix>0</downmix>
												<channel>
													<index>1</index>
												</channel>
											</group>
											<group>
												<index>2</index>
												<numchannels>1</numchannels>
												<downmix>0</downmix>
												<channel>
													<index>2</index>
												</channel>
											</group>
										</outputs>
										<track TL.SQTrackAudioKeyframeStyle="0" TL.SQTrackShy="0" TL.SQTrackExpandedHeight="25" TL.SQTrackExpanded="0" MZ.TrackTargeted="1" PannerCurrentValue="0.5" PannerIsInverted="true" PannerStartKeyframe="-91445760000000000,0.5,0,0,0,0,0,0" PannerName="Balance" currentExplodedTrackIndex="0" totalExplodedTrackCount="2" premiereTrackType="Stereo">
											<clipitem id="clipitem-858" premiereChannelType="stereo">
												<masterclipid>masterclip-236</masterclipid>
												<name>ATM_DRONE_TRANS_C.mov</name>
												<enabled>TRUE</enabled>
												<duration>192</duration>
												<rate>
													<timebase>24</timebase>
													<ntsc>TRUE</ntsc>
												</rate>
												<start>0</start>
												<end>-1</end>
												<in>0</in>
												<out>156</out>
												<pproTicksIn>0</pproTicksIn>
												<pproTicksOut>1652755104000</pproTicksOut>
												<file id="file-217"/>
												<sourcetrack>
													<mediatype>audio</mediatype>
													<trackindex>1</trackindex>
												</sourcetrack>
												<filter>
													<effect>
														<name>Gain</name>
														<effectid>{61756678, 4761696e, 4b657947}</effectid>
														<effecttype>filter</effecttype>
														<mediatype>audio</mediatype>
														<parameter authoringApp="PremierePro">
															<parameterid>Gain(dB)</parameterid>
															<name>Gain(dB)</name>
															<valuemin>-96</valuemin>
															<valuemax>96</valuemax>
															<value>-9</value>
														</parameter>
													</effect>
												</filter>
												<link>
													<linkclipref>clipitem-858</linkclipref>
													<mediatype>audio</mediatype>
													<trackindex>1</trackindex>
													<clipindex>1</clipindex>
													<groupindex>1</groupindex>
												</link>
												<link>
													<linkclipref>clipitem-860</linkclipref>
													<mediatype>audio</mediatype>
													<trackindex>2</trackindex>
													<clipindex>1</clipindex>
													<groupindex>1</groupindex>
												</link>
												<logginginfo>
													<description></description>
													<scene></scene>
													<shottake></shottake>
													<lognote></lognote>
													<good></good>
													<originalvideofilename></originalvideofilename>
													<originalaudiofilename></originalaudiofilename>
												</logginginfo>
												<colorinfo>
													<lut></lut>
													<lut1></lut1>
													<asc_sop></asc_sop>
													<asc_sat></asc_sat>
													<lut2></lut2>
												</colorinfo>
												<labels>
													<label2>Iris</label2>
												</labels>
											</clipitem>
											<transitionitem>
												<start>132</start>
												<end>156</end>
												<pproTicksIn>1398485088000</pproTicksIn>
												<pproTicksOut>1652755104000</pproTicksOut>
												<alignment>center</alignment>
												<cutPointTicks>127135008000</cutPointTicks>
												<rate>
													<timebase>24</timebase>
													<ntsc>TRUE</ntsc>
												</rate>
												<effect>
													<name>Cross Fade ( 0dB)</name>
													<effectid>KGAudioTransCrossFade0dB</effectid>
													<effecttype>transition</effecttype>
													<mediatype>audio</mediatype>
													<wipecode>0</wipecode>
													<wipeaccuracy>100</wipeaccuracy>
													<startratio>0</startratio>
													<endratio>1</endratio>
													<reverse>FALSE</reverse>
												</effect>
											</transitionitem>
											<clipitem id="clipitem-859" premiereChannelType="stereo">
												<masterclipid>masterclip-236</masterclipid>
												<name>ATM_DRONE_TRANS_C.mov</name>
												<enabled>TRUE</enabled>
												<duration>192</duration>
												<rate>
													<timebase>24</timebase>
													<ntsc>TRUE</ntsc>
												</rate>
												<start>-1</start>
												<end>170</end>
												<in>154</in>
												<out>192</out>
												<pproTicksIn>1631565936000</pproTicksIn>
												<pproTicksOut>2034160128000</pproTicksOut>
												<file id="file-217"/>
												<sourcetrack>
													<mediatype>audio</mediatype>
													<trackindex>1</trackindex>
												</sourcetrack>
												<filter>
													<effect>
														<name>Gain</name>
														<effectid>{61756678, 4761696e, 4b657947}</effectid>
														<effecttype>filter</effecttype>
														<mediatype>audio</mediatype>
														<parameter authoringApp="PremierePro">
															<parameterid>Gain(dB)</parameterid>
															<name>Gain(dB)</name>
															<valuemin>-96</valuemin>
															<valuemax>96</valuemax>
															<value>-9</value>
														</parameter>
													</effect>
												</filter>
												<link>
													<linkclipref>clipitem-859</linkclipref>
													<mediatype>audio</mediatype>
													<trackindex>1</trackindex>
													<clipindex>3</clipindex>
													<groupindex>1</groupindex>
												</link>
												<link>
													<linkclipref>clipitem-861</linkclipref>
													<mediatype>audio</mediatype>
													<trackindex>2</trackindex>
													<clipindex>3</clipindex>
													<groupindex>1</groupindex>
												</link>
												<logginginfo>
													<description></description>
													<scene></scene>
													<shottake></shottake>
													<lognote></lognote>
													<good></good>
													<originalvideofilename></originalvideofilename>
													<originalaudiofilename></originalaudiofilename>
												</logginginfo>
												<colorinfo>
													<lut></lut>
													<lut1></lut1>
													<asc_sop></asc_sop>
													<asc_sat></asc_sat>
													<lut2></lut2>
												</colorinfo>
												<labels>
													<label2>Iris</label2>
												</labels>
											</clipitem>
											<enabled>TRUE</enabled>
											<locked>FALSE</locked>
											<outputchannelindex>1</outputchannelindex>
										</track>
										<track TL.SQTrackAudioKeyframeStyle="0" TL.SQTrackShy="0" TL.SQTrackExpandedHeight="25" TL.SQTrackExpanded="0" MZ.TrackTargeted="1" PannerCurrentValue="0.5" PannerIsInverted="true" PannerStartKeyframe="-91445760000000000,0.5,0,0,0,0,0,0" PannerName="Balance" currentExplodedTrackIndex="1" totalExplodedTrackCount="2" premiereTrackType="Stereo">
											<clipitem id="clipitem-860" premiereChannelType="stereo">
												<masterclipid>masterclip-236</masterclipid>
												<name>ATM_DRONE_TRANS_C.mov</name>
												<enabled>TRUE</enabled>
												<duration>192</duration>
												<rate>
													<timebase>24</timebase>
													<ntsc>TRUE</ntsc>
												</rate>
												<start>0</start>
												<end>-1</end>
												<in>0</in>
												<out>156</out>
												<pproTicksIn>0</pproTicksIn>
												<pproTicksOut>1652755104000</pproTicksOut>
												<file id="file-217"/>
												<sourcetrack>
													<mediatype>audio</mediatype>
													<trackindex>2</trackindex>
												</sourcetrack>
												<filter>
													<effect>
														<name>Gain</name>
														<effectid>{61756678, 4761696e, 4b657947}</effectid>
														<effecttype>filter</effecttype>
														<mediatype>audio</mediatype>
														<parameter authoringApp="PremierePro">
															<parameterid>Gain(dB)</parameterid>
															<name>Gain(dB)</name>
															<valuemin>-96</valuemin>
															<valuemax>96</valuemax>
															<value>-9</value>
														</parameter>
													</effect>
												</filter>
												<link>
													<linkclipref>clipitem-858</linkclipref>
													<mediatype>audio</mediatype>
													<trackindex>1</trackindex>
													<clipindex>1</clipindex>
													<groupindex>1</groupindex>
												</link>
												<link>
													<linkclipref>clipitem-860</linkclipref>
													<mediatype>audio</mediatype>
													<trackindex>2</trackindex>
													<clipindex>1</clipindex>
													<groupindex>1</groupindex>
												</link>
												<logginginfo>
													<description></description>
													<scene></scene>
													<shottake></shottake>
													<lognote></lognote>
													<good></good>
													<originalvideofilename></originalvideofilename>
													<originalaudiofilename></originalaudiofilename>
												</logginginfo>
												<colorinfo>
													<lut></lut>
													<lut1></lut1>
													<asc_sop></asc_sop>
													<asc_sat></asc_sat>
													<lut2></lut2>
												</colorinfo>
												<labels>
													<label2>Iris</label2>
												</labels>
											</clipitem>
											<transitionitem>
												<start>132</start>
												<end>156</end>
												<pproTicksIn>1398485088000</pproTicksIn>
												<pproTicksOut>1652755104000</pproTicksOut>
												<alignment>center</alignment>
												<cutPointTicks>127135008000</cutPointTicks>
												<rate>
													<timebase>24</timebase>
													<ntsc>TRUE</ntsc>
												</rate>
												<effect>
													<name>Cross Fade ( 0dB)</name>
													<effectid>KGAudioTransCrossFade0dB</effectid>
													<effecttype>transition</effecttype>
													<mediatype>audio</mediatype>
													<wipecode>0</wipecode>
													<wipeaccuracy>100</wipeaccuracy>
													<startratio>0</startratio>
													<endratio>1</endratio>
													<reverse>FALSE</reverse>
												</effect>
											</transitionitem>
											<clipitem id="clipitem-861" premiereChannelType="stereo">
												<masterclipid>masterclip-236</masterclipid>
												<name>ATM_DRONE_TRANS_C.mov</name>
												<enabled>TRUE</enabled>
												<duration>192</duration>
												<rate>
													<timebase>24</timebase>
													<ntsc>TRUE</ntsc>
												</rate>
												<start>-1</start>
												<end>170</end>
												<in>154</in>
												<out>192</out>
												<pproTicksIn>1631565936000</pproTicksIn>
												<pproTicksOut>2034160128000</pproTicksOut>
												<file id="file-217"/>
												<sourcetrack>
													<mediatype>audio</mediatype>
													<trackindex>2</trackindex>
												</sourcetrack>
												<filter>
													<effect>
														<name>Gain</name>
														<effectid>{61756678, 4761696e, 4b657947}</effectid>
														<effecttype>filter</effecttype>
														<mediatype>audio</mediatype>
														<parameter authoringApp="PremierePro">
															<parameterid>Gain(dB)</parameterid>
															<name>Gain(dB)</name>
															<valuemin>-96</valuemin>
															<valuemax>96</valuemax>
															<value>-9</value>
														</parameter>
													</effect>
												</filter>
												<link>
													<linkclipref>clipitem-859</linkclipref>
													<mediatype>audio</mediatype>
													<trackindex>1</trackindex>
													<clipindex>3</clipindex>
													<groupindex>1</groupindex>
												</link>
												<link>
													<linkclipref>clipitem-861</linkclipref>
													<mediatype>audio</mediatype>
													<trackindex>2</trackindex>
													<clipindex>3</clipindex>
													<groupindex>1</groupindex>
												</link>
												<logginginfo>
													<description></description>
													<scene></scene>
													<shottake></shottake>
													<lognote></lognote>
													<good></good>
													<originalvideofilename></originalvideofilename>
													<originalaudiofilename></originalaudiofilename>
												</logginginfo>
												<colorinfo>
													<lut></lut>
													<lut1></lut1>
													<asc_sop></asc_sop>
													<asc_sat></asc_sat>
													<lut2></lut2>
												</colorinfo>
												<labels>
													<label2>Iris</label2>
												</labels>
											</clipitem>
											<enabled>TRUE</enabled>
											<locked>FALSE</locked>
											<outputchannelindex>2</outputchannelindex>
										</track>
										<track TL.SQTrackAudioKeyframeStyle="0" TL.SQTrackShy="0" TL.SQTrackExpandedHeight="25" TL.SQTrackExpanded="0" MZ.TrackTargeted="1" PannerCurrentValue="0.5" PannerIsInverted="true" PannerStartKeyframe="-91445760000000000,0.5,0,0,0,0,0,0" PannerName="Balance" currentExplodedTrackIndex="0" totalExplodedTrackCount="2" premiereTrackType="Stereo">
											<enabled>TRUE</enabled>
											<locked>FALSE</locked>
											<outputchannelindex>1</outputchannelindex>
										</track>
										<track TL.SQTrackAudioKeyframeStyle="0" TL.SQTrackShy="0" TL.SQTrackExpandedHeight="25" TL.SQTrackExpanded="0" MZ.TrackTargeted="1" PannerCurrentValue="0.5" PannerIsInverted="true" PannerStartKeyframe="-91445760000000000,0.5,0,0,0,0,0,0" PannerName="Balance" currentExplodedTrackIndex="1" totalExplodedTrackCount="2" premiereTrackType="Stereo">
											<enabled>TRUE</enabled>
											<locked>FALSE</locked>
											<outputchannelindex>2</outputchannelindex>
										</track>
										<track TL.SQTrackAudioKeyframeStyle="0" TL.SQTrackShy="0" TL.SQTrackExpandedHeight="25" TL.SQTrackExpanded="0" MZ.TrackTargeted="1" PannerCurrentValue="0.5" PannerIsInverted="true" PannerStartKeyframe="-91445760000000000,0.5,0,0,0,0,0,0" PannerName="Balance" currentExplodedTrackIndex="0" totalExplodedTrackCount="2" premiereTrackType="Stereo">
											<enabled>TRUE</enabled>
											<locked>FALSE</locked>
											<outputchannelindex>1</outputchannelindex>
										</track>
										<track TL.SQTrackAudioKeyframeStyle="0" TL.SQTrackShy="0" TL.SQTrackExpandedHeight="25" TL.SQTrackExpanded="0" MZ.TrackTargeted="1" PannerCurrentValue="0.5" PannerIsInverted="true" PannerStartKeyframe="-91445760000000000,0.5,0,0,0,0,0,0" PannerName="Balance" currentExplodedTrackIndex="1" totalExplodedTrackCount="2" premiereTrackType="Stereo">
											<enabled>TRUE</enabled>
											<locked>FALSE</locked>
											<outputchannelindex>2</outputchannelindex>
										</track>
									</audio>
								</media>
								<timecode>
									<rate>
										<timebase>24</timebase>
										<ntsc>TRUE</ntsc>
									</rate>
									<string>00:00:00:00</string>
									<frame>0</frame>
									<displayformat>NDF</displayformat>
								</timecode>
									<marker>
										<comment></comment>
										<name></name>
										<in>8</in>
										<out>-1</out>
										<pproColor>4281828977</pproColor>
									</marker>
									<marker>
										<comment></comment>
										<name></name>
										<in>159</in>
										<out>-1</out>
										<pproColor>4281828977</pproColor>
									</marker>
								<labels>
									<label2>Tan</label2>
								</labels>
								<logginginfo>
									<description></description>
									<scene></scene>
									<shottake></shottake>
									<lognote></lognote>
									<good></good>
									<originalvideofilename></originalvideofilename>
									<originalaudiofilename></originalaudiofilename>
								</logginginfo>
							</sequence>
							<sequence id="sequence-67" TL.SQAudioVisibleBase="0" TL.SQVideoVisibleBase="0" TL.SQVisibleBaseTime="0" TL.SQAVDividerPosition="0.5" TL.SQHideShyTracks="0" TL.SQHeaderWidth="236" Monitor.ProgramZoomOut="1313728416000" Monitor.ProgramZoomIn="0" TL.SQTimePerPixel="0.14417173414131113" MZ.EditLine="296648352000" MZ.Sequence.PreviewFrameSizeHeight="1080" MZ.Sequence.PreviewFrameSizeWidth="1920" MZ.Sequence.AudioTimeDisplayFormat="200" MZ.Sequence.PreviewRenderingClassID="1297106761" MZ.Sequence.PreviewRenderingPresetCodec="1297107278" MZ.Sequence.PreviewRenderingPresetPath="EncoderPresets/SequencePreview/795454d9-d3c2-429d-9474-923ab13b7018/I-Frame Only MPEG.epr" MZ.Sequence.PreviewUseMaxRenderQuality="false" MZ.Sequence.PreviewUseMaxBitDepth="false" MZ.Sequence.EditingModeGUID="795454d9-d3c2-429d-9474-923ab13b7018" MZ.Sequence.VideoTimeDisplayFormat="110" MZ.WorkOutPoint="15239249625600" MZ.WorkInPoint="0" explodedTracks="true">
								<uuid>d6edd036-a367-4548-b6c1-d12551226fde</uuid>
								<duration>124</duration>
								<rate>
									<timebase>24</timebase>
									<ntsc>TRUE</ntsc>
								</rate>
								<out>124</out>
								<name>Trans B</name>
								<media>
									<video>
										<format>
											<samplecharacteristics>
												<rate>
													<timebase>24</timebase>
													<ntsc>TRUE</ntsc>
												</rate>
												<codec>
													<name>Apple ProRes 422</name>
													<appspecificdata>
														<appname>Final Cut Pro</appname>
														<appmanufacturer>Apple Inc.</appmanufacturer>
														<appversion>7.0</appversion>
														<data>
															<qtcodec>
																<codecname>Apple ProRes 422</codecname>
																<codectypename>Apple ProRes 422</codectypename>
																<codectypecode>apcn</codectypecode>
																<codecvendorcode>appl</codecvendorcode>
																<spatialquality>1024</spatialquality>
																<temporalquality>0</temporalquality>
																<keyframerate>0</keyframerate>
																<datarate>0</datarate>
															</qtcodec>
														</data>
													</appspecificdata>
												</codec>
												<width>1920</width>
												<height>1080</height>
												<anamorphic>FALSE</anamorphic>
												<pixelaspectratio>square</pixelaspectratio>
												<fielddominance>none</fielddominance>
												<colordepth>24</colordepth>
											</samplecharacteristics>
										</format>
										<track TL.SQTrackShy="0" TL.SQTrackExpandedHeight="25" TL.SQTrackExpanded="0" MZ.TrackTargeted="1">
											<clipitem id="clipitem-862">
												<masterclipid>masterclip-352</masterclipid>
												<name>ATM_DRONE_TRANS_B [23.976].mp4</name>
												<enabled>TRUE</enabled>
												<duration>125</duration>
												<rate>
													<timebase>24</timebase>
													<ntsc>TRUE</ntsc>
												</rate>
												<start>8</start>
												<end>115</end>
												<in>14</in>
												<out>121</out>
												<pproTicksIn>148324176000</pproTicksIn>
												<pproTicksOut>1281944664000</pproTicksOut>
												<alphatype>none</alphatype>
												<file id="file-324"/>
												<logginginfo>
													<description></description>
													<scene></scene>
													<shottake></shottake>
													<lognote></lognote>
													<good></good>
													<originalvideofilename></originalvideofilename>
													<originalaudiofilename></originalaudiofilename>
												</logginginfo>
												<colorinfo>
													<lut></lut>
													<lut1></lut1>
													<asc_sop></asc_sop>
													<asc_sat></asc_sat>
													<lut2></lut2>
												</colorinfo>
												<labels>
													<label2>Iris</label2>
												</labels>
											</clipitem>
											<enabled>TRUE</enabled>
											<locked>FALSE</locked>
										</track>
										<track TL.SQTrackShy="0" TL.SQTrackExpandedHeight="25" TL.SQTrackExpanded="0" MZ.TrackTargeted="0">
											<clipitem id="clipitem-863">
												<masterclipid>masterclip-157</masterclipid>
												<name>02 Zoom In - Quick / Transform Out</name>
												<enabled>TRUE</enabled>
												<duration>1035764</duration>
												<rate>
													<timebase>24</timebase>
													<ntsc>TRUE</ntsc>
												</rate>
												<start>0</start>
												<end>8</end>
												<in>0</in>
												<out>8</out>
												<pproTicksIn>0</pproTicksIn>
												<pproTicksOut>84756672000</pproTicksOut>
												<sequence id="sequence-7"/>
													<marker>
														<comment></comment>
														<name></name>
														<in>16</in>
														<out>-1</out>
													</marker>
												<labels>
													<label2>Iris</label2>
												</labels>
											</clipitem>
											<clipitem id="clipitem-864">
												<masterclipid>masterclip-159</masterclipid>
												<name>02 Zoom In - Quick / Transform In</name>
												<enabled>TRUE</enabled>
												<duration>1035764</duration>
												<rate>
													<timebase>24</timebase>
													<ntsc>TRUE</ntsc>
												</rate>
												<start>8</start>
												<end>13</end>
												<in>0</in>
												<out>7</out>
												<pproTicksIn>0</pproTicksIn>
												<pproTicksOut>74162088000</pproTicksOut>
												<sequence id="sequence-8"/>
												<labels>
													<label2>Iris</label2>
												</labels>
											</clipitem>
											<clipitem id="clipitem-865">
												<masterclipid>masterclip-157</masterclipid>
												<name>03 Zoom Out - Quick / Transform Out</name>
												<enabled>TRUE</enabled>
												<duration>1035764</duration>
												<rate>
													<timebase>24</timebase>
													<ntsc>TRUE</ntsc>
												</rate>
												<start>108</start>
												<end>115</end>
												<in>0</in>
												<out>8</out>
												<pproTicksIn>0</pproTicksIn>
												<pproTicksOut>84756672000</pproTicksOut>
												<sequence id="sequence-7"/>
													<marker>
														<comment></comment>
														<name></name>
														<in>16</in>
														<out>-1</out>
													</marker>
												<labels>
													<label2>Iris</label2>
												</labels>
											</clipitem>
											<clipitem id="clipitem-866">
												<masterclipid>masterclip-159</masterclipid>
												<name>03 Zoom Out - Quick / Transform In</name>
												<enabled>TRUE</enabled>
												<duration>1035764</duration>
												<rate>
													<timebase>24</timebase>
													<ntsc>TRUE</ntsc>
												</rate>
												<start>115</start>
												<end>123</end>
												<in>0</in>
												<out>8</out>
												<pproTicksIn>0</pproTicksIn>
												<pproTicksOut>84756672000</pproTicksOut>
												<sequence id="sequence-8"/>
												<filter>
													<effect>
														<name>Basic Motion</name>
														<effectid>basic</effectid>
														<effectcategory>motion</effectcategory>
														<effecttype>motion</effecttype>
														<mediatype>video</mediatype>
														<pproBypass>false</pproBypass>
														<parameter authoringApp="PremierePro">
															<parameterid>scale</parameterid>
															<name>Scale</name>
															<valuemin>0</valuemin>
															<valuemax>1000</valuemax>
															<value>100</value>
														</parameter>
														<parameter authoringApp="PremierePro">
															<parameterid>rotation</parameterid>
															<name>Rotation</name>
															<valuemin>-8640</valuemin>
															<valuemax>8640</valuemax>
															<value>0</value>
														</parameter>
														<parameter authoringApp="PremierePro">
															<parameterid>center</parameterid>
															<name>Center</name>
															<value>
																<horiz>-0.5</horiz>
																<vert>-0.499394</vert>
															</value>
														</parameter>
														<parameter authoringApp="PremierePro">
															<parameterid>centerOffset</parameterid>
															<name>Anchor Point</name>
															<value>
																<horiz>0</horiz>
																<vert>-0.00060606</vert>
															</value>
														</parameter>
														<parameter authoringApp="PremierePro">
															<parameterid>antiflicker</parameterid>
															<name>Anti-flicker Filter</name>
															<valuemin>0.0</valuemin>
															<valuemax>1.0</valuemax>
															<value>0</value>
														</parameter>
													</effect>
												</filter>
												<labels>
													<label2>Iris</label2>
												</labels>
											</clipitem>
											<enabled>TRUE</enabled>
											<locked>FALSE</locked>
										</track>
										<track TL.SQTrackShy="0" TL.SQTrackExpandedHeight="25" TL.SQTrackExpanded="0" MZ.TrackTargeted="0">
											<enabled>TRUE</enabled>
											<locked>FALSE</locked>
										</track>
									</video>
									<audio>
										<numOutputChannels>2</numOutputChannels>
										<format>
											<samplecharacteristics>
												<depth>16</depth>
												<samplerate>32000</samplerate>
											</samplecharacteristics>
										</format>
										<outputs>
											<group>
												<index>1</index>
												<numchannels>1</numchannels>
												<downmix>0</downmix>
												<channel>
													<index>1</index>
												</channel>
											</group>
											<group>
												<index>2</index>
												<numchannels>1</numchannels>
												<downmix>0</downmix>
												<channel>
													<index>2</index>
												</channel>
											</group>
										</outputs>
										<track TL.SQTrackAudioKeyframeStyle="0" TL.SQTrackShy="0" TL.SQTrackExpandedHeight="25" TL.SQTrackExpanded="0" MZ.TrackTargeted="1" PannerCurrentValue="0.5" PannerIsInverted="true" PannerStartKeyframe="-91445760000000000,0.5,0,0,0,0,0,0" PannerName="Balance" currentExplodedTrackIndex="0" totalExplodedTrackCount="2" premiereTrackType="Stereo">
											<clipitem id="clipitem-867" premiereChannelType="stereo">
												<masterclipid>masterclip-156</masterclipid>
												<name>ATM_DRONE_TRANS_B.mov</name>
												<enabled>TRUE</enabled>
												<duration>124</duration>
												<rate>
													<timebase>24</timebase>
													<ntsc>TRUE</ntsc>
												</rate>
												<start>0</start>
												<end>124</end>
												<in>0</in>
												<out>124</out>
												<pproTicksIn>0</pproTicksIn>
												<pproTicksOut>1313728416000</pproTicksOut>
												<file id="file-152"/>
												<sourcetrack>
													<mediatype>audio</mediatype>
													<trackindex>1</trackindex>
												</sourcetrack>
												<filter>
													<effect>
														<name>Gain</name>
														<effectid>{61756678, 4761696e, 4b657947}</effectid>
														<effecttype>filter</effecttype>
														<mediatype>audio</mediatype>
														<parameter authoringApp="PremierePro">
															<parameterid>Gain(dB)</parameterid>
															<name>Gain(dB)</name>
															<valuemin>-96</valuemin>
															<valuemax>96</valuemax>
															<value>-9</value>
														</parameter>
													</effect>
												</filter>
												<link>
													<linkclipref>clipitem-867</linkclipref>
													<mediatype>audio</mediatype>
													<trackindex>1</trackindex>
													<clipindex>1</clipindex>
													<groupindex>1</groupindex>
												</link>
												<link>
													<linkclipref>clipitem-868</linkclipref>
													<mediatype>audio</mediatype>
													<trackindex>2</trackindex>
													<clipindex>1</clipindex>
													<groupindex>1</groupindex>
												</link>
												<logginginfo>
													<description></description>
													<scene></scene>
													<shottake></shottake>
													<lognote></lognote>
													<good></good>
													<originalvideofilename></originalvideofilename>
													<originalaudiofilename></originalaudiofilename>
												</logginginfo>
												<colorinfo>
													<lut></lut>
													<lut1></lut1>
													<asc_sop></asc_sop>
													<asc_sat></asc_sat>
													<lut2></lut2>
												</colorinfo>
												<labels>
													<label2>Iris</label2>
												</labels>
											</clipitem>
											<enabled>TRUE</enabled>
											<locked>FALSE</locked>
											<outputchannelindex>1</outputchannelindex>
										</track>
										<track TL.SQTrackAudioKeyframeStyle="0" TL.SQTrackShy="0" TL.SQTrackExpandedHeight="25" TL.SQTrackExpanded="0" MZ.TrackTargeted="1" PannerCurrentValue="0.5" PannerIsInverted="true" PannerStartKeyframe="-91445760000000000,0.5,0,0,0,0,0,0" PannerName="Balance" currentExplodedTrackIndex="1" totalExplodedTrackCount="2" premiereTrackType="Stereo">
											<clipitem id="clipitem-868" premiereChannelType="stereo">
												<masterclipid>masterclip-156</masterclipid>
												<name>ATM_DRONE_TRANS_B.mov</name>
												<enabled>TRUE</enabled>
												<duration>124</duration>
												<rate>
													<timebase>24</timebase>
													<ntsc>TRUE</ntsc>
												</rate>
												<start>0</start>
												<end>124</end>
												<in>0</in>
												<out>124</out>
												<pproTicksIn>0</pproTicksIn>
												<pproTicksOut>1313728416000</pproTicksOut>
												<file id="file-152"/>
												<sourcetrack>
													<mediatype>audio</mediatype>
													<trackindex>2</trackindex>
												</sourcetrack>
												<filter>
													<effect>
														<name>Gain</name>
														<effectid>{61756678, 4761696e, 4b657947}</effectid>
														<effecttype>filter</effecttype>
														<mediatype>audio</mediatype>
														<parameter authoringApp="PremierePro">
															<parameterid>Gain(dB)</parameterid>
															<name>Gain(dB)</name>
															<valuemin>-96</valuemin>
															<valuemax>96</valuemax>
															<value>-9</value>
														</parameter>
													</effect>
												</filter>
												<link>
													<linkclipref>clipitem-867</linkclipref>
													<mediatype>audio</mediatype>
													<trackindex>1</trackindex>
													<clipindex>1</clipindex>
													<groupindex>1</groupindex>
												</link>
												<link>
													<linkclipref>clipitem-868</linkclipref>
													<mediatype>audio</mediatype>
													<trackindex>2</trackindex>
													<clipindex>1</clipindex>
													<groupindex>1</groupindex>
												</link>
												<logginginfo>
													<description></description>
													<scene></scene>
													<shottake></shottake>
													<lognote></lognote>
													<good></good>
													<originalvideofilename></originalvideofilename>
													<originalaudiofilename></originalaudiofilename>
												</logginginfo>
												<colorinfo>
													<lut></lut>
													<lut1></lut1>
													<asc_sop></asc_sop>
													<asc_sat></asc_sat>
													<lut2></lut2>
												</colorinfo>
												<labels>
													<label2>Iris</label2>
												</labels>
											</clipitem>
											<enabled>TRUE</enabled>
											<locked>FALSE</locked>
											<outputchannelindex>2</outputchannelindex>
										</track>
										<track TL.SQTrackAudioKeyframeStyle="0" TL.SQTrackShy="0" TL.SQTrackExpandedHeight="25" TL.SQTrackExpanded="0" MZ.TrackTargeted="1" PannerCurrentValue="0.5" PannerIsInverted="true" PannerStartKeyframe="-91445760000000000,0.5,0,0,0,0,0,0" PannerName="Balance" currentExplodedTrackIndex="0" totalExplodedTrackCount="2" premiereTrackType="Stereo">
											<enabled>TRUE</enabled>
											<locked>FALSE</locked>
											<outputchannelindex>1</outputchannelindex>
										</track>
										<track TL.SQTrackAudioKeyframeStyle="0" TL.SQTrackShy="0" TL.SQTrackExpandedHeight="25" TL.SQTrackExpanded="0" MZ.TrackTargeted="1" PannerCurrentValue="0.5" PannerIsInverted="true" PannerStartKeyframe="-91445760000000000,0.5,0,0,0,0,0,0" PannerName="Balance" currentExplodedTrackIndex="1" totalExplodedTrackCount="2" premiereTrackType="Stereo">
											<enabled>TRUE</enabled>
											<locked>FALSE</locked>
											<outputchannelindex>2</outputchannelindex>
										</track>
										<track TL.SQTrackAudioKeyframeStyle="0" TL.SQTrackShy="0" TL.SQTrackExpandedHeight="25" TL.SQTrackExpanded="0" MZ.TrackTargeted="1" PannerCurrentValue="0.5" PannerIsInverted="true" PannerStartKeyframe="-91445760000000000,0.5,0,0,0,0,0,0" PannerName="Balance" currentExplodedTrackIndex="0" totalExplodedTrackCount="2" premiereTrackType="Stereo">
											<enabled>TRUE</enabled>
											<locked>FALSE</locked>
											<outputchannelindex>1</outputchannelindex>
										</track>
										<track TL.SQTrackAudioKeyframeStyle="0" TL.SQTrackShy="0" TL.SQTrackExpandedHeight="25" TL.SQTrackExpanded="0" MZ.TrackTargeted="1" PannerCurrentValue="0.5" PannerIsInverted="true" PannerStartKeyframe="-91445760000000000,0.5,0,0,0,0,0,0" PannerName="Balance" currentExplodedTrackIndex="1" totalExplodedTrackCount="2" premiereTrackType="Stereo">
											<enabled>TRUE</enabled>
											<locked>FALSE</locked>
											<outputchannelindex>2</outputchannelindex>
										</track>
									</audio>
								</media>
								<timecode>
									<rate>
										<timebase>24</timebase>
										<ntsc>TRUE</ntsc>
									</rate>
									<string>00:00:00:00</string>
									<frame>0</frame>
									<displayformat>NDF</displayformat>
								</timecode>
									<marker>
										<comment></comment>
										<name></name>
										<in>8</in>
										<out>-1</out>
										<pproColor>4281828977</pproColor>
									</marker>
									<marker>
										<comment></comment>
										<name></name>
										<in>116</in>
										<out>-1</out>
										<pproColor>4281828977</pproColor>
									</marker>
								<labels>
									<label2>Tan</label2>
								</labels>
								<logginginfo>
									<description></description>
									<scene></scene>
									<shottake></shottake>
									<lognote></lognote>
									<good></good>
									<originalvideofilename></originalvideofilename>
									<originalaudiofilename></originalaudiofilename>
								</logginginfo>
							</sequence>
							<sequence id="sequence-68" TL.SQAudioVisibleBase="0" TL.SQVideoVisibleBase="0" TL.SQVisibleBaseTime="0" TL.SQAVDividerPosition="0.5" TL.SQHideShyTracks="0" TL.SQHeaderWidth="236" TL.SQDataTrackViewControlState="0" Monitor.ProgramZoomOut="1875241368000" Monitor.ProgramZoomIn="0" TL.SQTimePerPixel="0.0050677061055957482" MZ.EditLine="805188384000" MZ.Sequence.PreviewFrameSizeHeight="1080" MZ.Sequence.PreviewFrameSizeWidth="1920" MZ.Sequence.AudioTimeDisplayFormat="200" MZ.Sequence.PreviewRenderingClassID="1297106761" MZ.Sequence.PreviewRenderingPresetCodec="1297107278" MZ.Sequence.PreviewRenderingPresetPath="EncoderPresets/SequencePreview/795454d9-d3c2-429d-9474-923ab13b7018/I-Frame Only MPEG.epr" MZ.Sequence.PreviewUseMaxRenderQuality="false" MZ.Sequence.PreviewUseMaxBitDepth="false" MZ.Sequence.EditingModeGUID="795454d9-d3c2-429d-9474-923ab13b7018" MZ.Sequence.VideoTimeDisplayFormat="110" MZ.WorkOutPoint="15239249625600" MZ.WorkInPoint="0" explodedTracks="true">
								<uuid>2f8ee976-e579-4cf2-95f5-4721a525f9f0</uuid>
								<duration>177</duration>
								<rate>
									<timebase>24</timebase>
									<ntsc>TRUE</ntsc>
								</rate>
								<out>177</out>
								<name>Trans A</name>
								<media>
									<video>
										<format>
											<samplecharacteristics>
												<rate>
													<timebase>24</timebase>
													<ntsc>TRUE</ntsc>
												</rate>
												<codec>
													<name>Apple ProRes 422</name>
													<appspecificdata>
														<appname>Final Cut Pro</appname>
														<appmanufacturer>Apple Inc.</appmanufacturer>
														<appversion>7.0</appversion>
														<data>
															<qtcodec>
																<codecname>Apple ProRes 422</codecname>
																<codectypename>Apple ProRes 422</codectypename>
																<codectypecode>apcn</codectypecode>
																<codecvendorcode>appl</codecvendorcode>
																<spatialquality>1024</spatialquality>
																<temporalquality>0</temporalquality>
																<keyframerate>0</keyframerate>
																<datarate>0</datarate>
															</qtcodec>
														</data>
													</appspecificdata>
												</codec>
												<width>1920</width>
												<height>1080</height>
												<anamorphic>FALSE</anamorphic>
												<pixelaspectratio>square</pixelaspectratio>
												<fielddominance>none</fielddominance>
												<colordepth>24</colordepth>
											</samplecharacteristics>
										</format>
										<track TL.SQTrackShy="0" TL.SQTrackExpandedHeight="25" TL.SQTrackExpanded="0" MZ.TrackTargeted="1">
											<clipitem id="clipitem-869">
												<masterclipid>masterclip-351</masterclipid>
												<name>ATM_DRONE_TRANS_A [23.976].mp4</name>
												<enabled>TRUE</enabled>
												<duration>199</duration>
												<rate>
													<timebase>24</timebase>
													<ntsc>TRUE</ntsc>
												</rate>
												<start>8</start>
												<end>167</end>
												<in>25</in>
												<out>184</out>
												<pproTicksIn>264864600000</pproTicksIn>
												<pproTicksOut>1949403456000</pproTicksOut>
												<alphatype>none</alphatype>
												<file id="file-323"/>
												<logginginfo>
													<description></description>
													<scene></scene>
													<shottake></shottake>
													<lognote></lognote>
													<good></good>
													<originalvideofilename></originalvideofilename>
													<originalaudiofilename></originalaudiofilename>
												</logginginfo>
												<colorinfo>
													<lut></lut>
													<lut1></lut1>
													<asc_sop></asc_sop>
													<asc_sat></asc_sat>
													<lut2></lut2>
												</colorinfo>
												<labels>
													<label2>Iris</label2>
												</labels>
											</clipitem>
											<enabled>TRUE</enabled>
											<locked>FALSE</locked>
										</track>
										<track TL.SQTrackShy="0" TL.SQTrackExpandedHeight="25" TL.SQTrackExpanded="0" MZ.TrackTargeted="0">
											<clipitem id="clipitem-870">
												<masterclipid>masterclip-157</masterclipid>
												<name>02 Zoom In - Quick / Transform Out</name>
												<enabled>TRUE</enabled>
												<duration>1035764</duration>
												<rate>
													<timebase>24</timebase>
													<ntsc>TRUE</ntsc>
												</rate>
												<start>0</start>
												<end>8</end>
												<in>0</in>
												<out>8</out>
												<pproTicksIn>0</pproTicksIn>
												<pproTicksOut>84756672000</pproTicksOut>
												<sequence id="sequence-7"/>
													<marker>
														<comment></comment>
														<name></name>
														<in>16</in>
														<out>-1</out>
													</marker>
												<labels>
													<label2>Iris</label2>
												</labels>
											</clipitem>
											<clipitem id="clipitem-871">
												<masterclipid>masterclip-159</masterclipid>
												<name>02 Zoom In - Quick / Transform In</name>
												<enabled>TRUE</enabled>
												<duration>1035764</duration>
												<rate>
													<timebase>24</timebase>
													<ntsc>TRUE</ntsc>
												</rate>
												<start>8</start>
												<end>13</end>
												<in>0</in>
												<out>7</out>
												<pproTicksIn>0</pproTicksIn>
												<pproTicksOut>74162088000</pproTicksOut>
												<sequence id="sequence-8"/>
												<labels>
													<label2>Iris</label2>
												</labels>
											</clipitem>
											<clipitem id="clipitem-872">
												<masterclipid>masterclip-157</masterclipid>
												<name>03 Zoom Out - Quick / Transform Out</name>
												<enabled>TRUE</enabled>
												<duration>1035764</duration>
												<rate>
													<timebase>24</timebase>
													<ntsc>TRUE</ntsc>
												</rate>
												<start>159</start>
												<end>167</end>
												<in>0</in>
												<out>8</out>
												<pproTicksIn>0</pproTicksIn>
												<pproTicksOut>84756672000</pproTicksOut>
												<sequence id="sequence-7"/>
													<marker>
														<comment></comment>
														<name></name>
														<in>16</in>
														<out>-1</out>
													</marker>
												<labels>
													<label2>Iris</label2>
												</labels>
											</clipitem>
											<clipitem id="clipitem-873">
												<masterclipid>masterclip-159</masterclipid>
												<name>03 Zoom Out - Quick / Transform In</name>
												<enabled>TRUE</enabled>
												<duration>1035764</duration>
												<rate>
													<timebase>24</timebase>
													<ntsc>TRUE</ntsc>
												</rate>
												<start>167</start>
												<end>174</end>
												<in>0</in>
												<out>8</out>
												<pproTicksIn>0</pproTicksIn>
												<pproTicksOut>84756672000</pproTicksOut>
												<sequence id="sequence-8"/>
												<filter>
													<effect>
														<name>Basic Motion</name>
														<effectid>basic</effectid>
														<effectcategory>motion</effectcategory>
														<effecttype>motion</effecttype>
														<mediatype>video</mediatype>
														<pproBypass>false</pproBypass>
														<parameter authoringApp="PremierePro">
															<parameterid>scale</parameterid>
															<name>Scale</name>
															<valuemin>0</valuemin>
															<valuemax>1000</valuemax>
															<value>100</value>
														</parameter>
														<parameter authoringApp="PremierePro">
															<parameterid>rotation</parameterid>
															<name>Rotation</name>
															<valuemin>-8640</valuemin>
															<valuemax>8640</valuemax>
															<value>0</value>
														</parameter>
														<parameter authoringApp="PremierePro">
															<parameterid>center</parameterid>
															<name>Center</name>
															<value>
																<horiz>-0.5</horiz>
																<vert>-0.499394</vert>
															</value>
														</parameter>
														<parameter authoringApp="PremierePro">
															<parameterid>centerOffset</parameterid>
															<name>Anchor Point</name>
															<value>
																<horiz>0</horiz>
																<vert>-0.00060606</vert>
															</value>
														</parameter>
														<parameter authoringApp="PremierePro">
															<parameterid>antiflicker</parameterid>
															<name>Anti-flicker Filter</name>
															<valuemin>0.0</valuemin>
															<valuemax>1.0</valuemax>
															<value>0</value>
														</parameter>
													</effect>
												</filter>
												<labels>
													<label2>Iris</label2>
												</labels>
											</clipitem>
											<enabled>TRUE</enabled>
											<locked>FALSE</locked>
										</track>
										<track TL.SQTrackShy="0" TL.SQTrackExpandedHeight="25" TL.SQTrackExpanded="0" MZ.TrackTargeted="0">
											<enabled>TRUE</enabled>
											<locked>FALSE</locked>
										</track>
										<track TL.SQTrackShy="0" TL.SQTrackExpandedHeight="25" TL.SQTrackExpanded="0" MZ.TrackTargeted="0">
											<enabled>TRUE</enabled>
											<locked>FALSE</locked>
										</track>
									</video>
									<audio>
										<numOutputChannels>2</numOutputChannels>
										<format>
											<samplecharacteristics>
												<depth>16</depth>
												<samplerate>32000</samplerate>
											</samplecharacteristics>
										</format>
										<outputs>
											<group>
												<index>1</index>
												<numchannels>1</numchannels>
												<downmix>0</downmix>
												<channel>
													<index>1</index>
												</channel>
											</group>
											<group>
												<index>2</index>
												<numchannels>1</numchannels>
												<downmix>0</downmix>
												<channel>
													<index>2</index>
												</channel>
											</group>
										</outputs>
										<track TL.SQTrackAudioKeyframeStyle="0" TL.SQTrackShy="0" TL.SQTrackExpandedHeight="25" TL.SQTrackExpanded="0" MZ.TrackTargeted="1" PannerCurrentValue="0.5" PannerIsInverted="true" PannerStartKeyframe="-91445760000000000,0.5,0,0,0,0,0,0" PannerName="Balance" currentExplodedTrackIndex="0" totalExplodedTrackCount="2" premiereTrackType="Stereo">
											<clipitem id="clipitem-874" premiereChannelType="stereo">
												<masterclipid>masterclip-234</masterclipid>
												<name>ATM_DRONE_TRANS_A.mov</name>
												<enabled>TRUE</enabled>
												<duration>198</duration>
												<rate>
													<timebase>24</timebase>
													<ntsc>TRUE</ntsc>
												</rate>
												<start>0</start>
												<end>-1</end>
												<in>3</in>
												<out>175</out>
												<pproTicksIn>31783752000</pproTicksIn>
												<pproTicksOut>1854052200000</pproTicksOut>
												<file id="file-216"/>
												<sourcetrack>
													<mediatype>audio</mediatype>
													<trackindex>1</trackindex>
												</sourcetrack>
												<filter>
													<effect>
														<name>Gain</name>
														<effectid>{61756678, 4761696e, 4b657947}</effectid>
														<effecttype>filter</effecttype>
														<mediatype>audio</mediatype>
														<parameter authoringApp="PremierePro">
															<parameterid>Gain(dB)</parameterid>
															<name>Gain(dB)</name>
															<valuemin>-96</valuemin>
															<valuemax>96</valuemax>
															<value>-9</value>
														</parameter>
													</effect>
												</filter>
												<link>
													<linkclipref>clipitem-874</linkclipref>
													<mediatype>audio</mediatype>
													<trackindex>1</trackindex>
													<clipindex>1</clipindex>
													<groupindex>1</groupindex>
												</link>
												<link>
													<linkclipref>clipitem-876</linkclipref>
													<mediatype>audio</mediatype>
													<trackindex>2</trackindex>
													<clipindex>1</clipindex>
													<groupindex>1</groupindex>
												</link>
												<logginginfo>
													<description></description>
													<scene></scene>
													<shottake></shottake>
													<lognote></lognote>
													<good></good>
													<originalvideofilename></originalvideofilename>
													<originalaudiofilename></originalaudiofilename>
												</logginginfo>
												<colorinfo>
													<lut></lut>
													<lut1></lut1>
													<asc_sop></asc_sop>
													<asc_sat></asc_sat>
													<lut2></lut2>
												</colorinfo>
												<labels>
													<label2>Iris</label2>
												</labels>
											</clipitem>
											<transitionitem>
												<start>148</start>
												<end>172</end>
												<pproTicksIn>1567998432000</pproTicksIn>
												<pproTicksOut>1822268448000</pproTicksOut>
												<alignment>center</alignment>
												<cutPointTicks>127135008000</cutPointTicks>
												<rate>
													<timebase>24</timebase>
													<ntsc>TRUE</ntsc>
												</rate>
												<effect>
													<name>Cross Fade ( 0dB)</name>
													<effectid>KGAudioTransCrossFade0dB</effectid>
													<effecttype>transition</effecttype>
													<mediatype>audio</mediatype>
													<wipecode>0</wipecode>
													<wipeaccuracy>100</wipeaccuracy>
													<startratio>0</startratio>
													<endratio>1</endratio>
													<reverse>FALSE</reverse>
												</effect>
											</transitionitem>
											<clipitem id="clipitem-875" premiereChannelType="stereo">
												<masterclipid>masterclip-234</masterclipid>
												<name>ATM_DRONE_TRANS_A.mov</name>
												<enabled>TRUE</enabled>
												<duration>198</duration>
												<rate>
													<timebase>24</timebase>
													<ntsc>TRUE</ntsc>
												</rate>
												<start>-1</start>
												<end>177</end>
												<in>166</in>
												<out>195</out>
												<pproTicksIn>1758700944000</pproTicksIn>
												<pproTicksOut>2065943880000</pproTicksOut>
												<file id="file-216"/>
												<sourcetrack>
													<mediatype>audio</mediatype>
													<trackindex>1</trackindex>
												</sourcetrack>
												<filter>
													<effect>
														<name>Gain</name>
														<effectid>{61756678, 4761696e, 4b657947}</effectid>
														<effecttype>filter</effecttype>
														<mediatype>audio</mediatype>
														<parameter authoringApp="PremierePro">
															<parameterid>Gain(dB)</parameterid>
															<name>Gain(dB)</name>
															<valuemin>-96</valuemin>
															<valuemax>96</valuemax>
															<value>-9</value>
														</parameter>
													</effect>
												</filter>
												<link>
													<linkclipref>clipitem-875</linkclipref>
													<mediatype>audio</mediatype>
													<trackindex>1</trackindex>
													<clipindex>3</clipindex>
													<groupindex>1</groupindex>
												</link>
												<link>
													<linkclipref>clipitem-877</linkclipref>
													<mediatype>audio</mediatype>
													<trackindex>2</trackindex>
													<clipindex>3</clipindex>
													<groupindex>1</groupindex>
												</link>
												<logginginfo>
													<description></description>
													<scene></scene>
													<shottake></shottake>
													<lognote></lognote>
													<good></good>
													<originalvideofilename></originalvideofilename>
													<originalaudiofilename></originalaudiofilename>
												</logginginfo>
												<colorinfo>
													<lut></lut>
													<lut1></lut1>
													<asc_sop></asc_sop>
													<asc_sat></asc_sat>
													<lut2></lut2>
												</colorinfo>
												<labels>
													<label2>Iris</label2>
												</labels>
											</clipitem>
											<enabled>TRUE</enabled>
											<locked>FALSE</locked>
											<outputchannelindex>1</outputchannelindex>
										</track>
										<track TL.SQTrackAudioKeyframeStyle="0" TL.SQTrackShy="0" TL.SQTrackExpandedHeight="25" TL.SQTrackExpanded="0" MZ.TrackTargeted="1" PannerCurrentValue="0.5" PannerIsInverted="true" PannerStartKeyframe="-91445760000000000,0.5,0,0,0,0,0,0" PannerName="Balance" currentExplodedTrackIndex="1" totalExplodedTrackCount="2" premiereTrackType="Stereo">
											<clipitem id="clipitem-876" premiereChannelType="stereo">
												<masterclipid>masterclip-234</masterclipid>
												<name>ATM_DRONE_TRANS_A.mov</name>
												<enabled>TRUE</enabled>
												<duration>198</duration>
												<rate>
													<timebase>24</timebase>
													<ntsc>TRUE</ntsc>
												</rate>
												<start>0</start>
												<end>-1</end>
												<in>3</in>
												<out>175</out>
												<pproTicksIn>31783752000</pproTicksIn>
												<pproTicksOut>1854052200000</pproTicksOut>
												<file id="file-216"/>
												<sourcetrack>
													<mediatype>audio</mediatype>
													<trackindex>2</trackindex>
												</sourcetrack>
												<filter>
													<effect>
														<name>Gain</name>
														<effectid>{61756678, 4761696e, 4b657947}</effectid>
														<effecttype>filter</effecttype>
														<mediatype>audio</mediatype>
														<parameter authoringApp="PremierePro">
															<parameterid>Gain(dB)</parameterid>
															<name>Gain(dB)</name>
															<valuemin>-96</valuemin>
															<valuemax>96</valuemax>
															<value>-9</value>
														</parameter>
													</effect>
												</filter>
												<link>
													<linkclipref>clipitem-874</linkclipref>
													<mediatype>audio</mediatype>
													<trackindex>1</trackindex>
													<clipindex>1</clipindex>
													<groupindex>1</groupindex>
												</link>
												<link>
													<linkclipref>clipitem-876</linkclipref>
													<mediatype>audio</mediatype>
													<trackindex>2</trackindex>
													<clipindex>1</clipindex>
													<groupindex>1</groupindex>
												</link>
												<logginginfo>
													<description></description>
													<scene></scene>
													<shottake></shottake>
													<lognote></lognote>
													<good></good>
													<originalvideofilename></originalvideofilename>
													<originalaudiofilename></originalaudiofilename>
												</logginginfo>
												<colorinfo>
													<lut></lut>
													<lut1></lut1>
													<asc_sop></asc_sop>
													<asc_sat></asc_sat>
													<lut2></lut2>
												</colorinfo>
												<labels>
													<label2>Iris</label2>
												</labels>
											</clipitem>
											<transitionitem>
												<start>148</start>
												<end>172</end>
												<pproTicksIn>1567998432000</pproTicksIn>
												<pproTicksOut>1822268448000</pproTicksOut>
												<alignment>center</alignment>
												<cutPointTicks>127135008000</cutPointTicks>
												<rate>
													<timebase>24</timebase>
													<ntsc>TRUE</ntsc>
												</rate>
												<effect>
													<name>Cross Fade ( 0dB)</name>
													<effectid>KGAudioTransCrossFade0dB</effectid>
													<effecttype>transition</effecttype>
													<mediatype>audio</mediatype>
													<wipecode>0</wipecode>
													<wipeaccuracy>100</wipeaccuracy>
													<startratio>0</startratio>
													<endratio>1</endratio>
													<reverse>FALSE</reverse>
												</effect>
											</transitionitem>
											<clipitem id="clipitem-877" premiereChannelType="stereo">
												<masterclipid>masterclip-234</masterclipid>
												<name>ATM_DRONE_TRANS_A.mov</name>
												<enabled>TRUE</enabled>
												<duration>198</duration>
												<rate>
													<timebase>24</timebase>
													<ntsc>TRUE</ntsc>
												</rate>
												<start>-1</start>
												<end>177</end>
												<in>166</in>
												<out>195</out>
												<pproTicksIn>1758700944000</pproTicksIn>
												<pproTicksOut>2065943880000</pproTicksOut>
												<file id="file-216"/>
												<sourcetrack>
													<mediatype>audio</mediatype>
													<trackindex>2</trackindex>
												</sourcetrack>
												<filter>
													<effect>
														<name>Gain</name>
														<effectid>{61756678, 4761696e, 4b657947}</effectid>
														<effecttype>filter</effecttype>
														<mediatype>audio</mediatype>
														<parameter authoringApp="PremierePro">
															<parameterid>Gain(dB)</parameterid>
															<name>Gain(dB)</name>
															<valuemin>-96</valuemin>
															<valuemax>96</valuemax>
															<value>-9</value>
														</parameter>
													</effect>
												</filter>
												<link>
													<linkclipref>clipitem-875</linkclipref>
													<mediatype>audio</mediatype>
													<trackindex>1</trackindex>
													<clipindex>3</clipindex>
													<groupindex>1</groupindex>
												</link>
												<link>
													<linkclipref>clipitem-877</linkclipref>
													<mediatype>audio</mediatype>
													<trackindex>2</trackindex>
													<clipindex>3</clipindex>
													<groupindex>1</groupindex>
												</link>
												<logginginfo>
													<description></description>
													<scene></scene>
													<shottake></shottake>
													<lognote></lognote>
													<good></good>
													<originalvideofilename></originalvideofilename>
													<originalaudiofilename></originalaudiofilename>
												</logginginfo>
												<colorinfo>
													<lut></lut>
													<lut1></lut1>
													<asc_sop></asc_sop>
													<asc_sat></asc_sat>
													<lut2></lut2>
												</colorinfo>
												<labels>
													<label2>Iris</label2>
												</labels>
											</clipitem>
											<enabled>TRUE</enabled>
											<locked>FALSE</locked>
											<outputchannelindex>2</outputchannelindex>
										</track>
										<track TL.SQTrackAudioKeyframeStyle="0" TL.SQTrackShy="0" TL.SQTrackExpandedHeight="25" TL.SQTrackExpanded="0" MZ.TrackTargeted="1" PannerCurrentValue="0.5" PannerIsInverted="true" PannerStartKeyframe="-91445760000000000,0.5,0,0,0,0,0,0" PannerName="Balance" currentExplodedTrackIndex="0" totalExplodedTrackCount="2" premiereTrackType="Stereo">
											<enabled>TRUE</enabled>
											<locked>FALSE</locked>
											<outputchannelindex>1</outputchannelindex>
										</track>
										<track TL.SQTrackAudioKeyframeStyle="0" TL.SQTrackShy="0" TL.SQTrackExpandedHeight="25" TL.SQTrackExpanded="0" MZ.TrackTargeted="1" PannerCurrentValue="0.5" PannerIsInverted="true" PannerStartKeyframe="-91445760000000000,0.5,0,0,0,0,0,0" PannerName="Balance" currentExplodedTrackIndex="1" totalExplodedTrackCount="2" premiereTrackType="Stereo">
											<enabled>TRUE</enabled>
											<locked>FALSE</locked>
											<outputchannelindex>2</outputchannelindex>
										</track>
										<track TL.SQTrackAudioKeyframeStyle="0" TL.SQTrackShy="0" TL.SQTrackExpandedHeight="25" TL.SQTrackExpanded="0" MZ.TrackTargeted="1" PannerCurrentValue="0.5" PannerIsInverted="true" PannerStartKeyframe="-91445760000000000,0.5,0,0,0,0,0,0" PannerName="Balance" currentExplodedTrackIndex="0" totalExplodedTrackCount="2" premiereTrackType="Stereo">
											<enabled>TRUE</enabled>
											<locked>FALSE</locked>
											<outputchannelindex>1</outputchannelindex>
										</track>
										<track TL.SQTrackAudioKeyframeStyle="0" TL.SQTrackShy="0" TL.SQTrackExpandedHeight="25" TL.SQTrackExpanded="0" MZ.TrackTargeted="1" PannerCurrentValue="0.5" PannerIsInverted="true" PannerStartKeyframe="-91445760000000000,0.5,0,0,0,0,0,0" PannerName="Balance" currentExplodedTrackIndex="1" totalExplodedTrackCount="2" premiereTrackType="Stereo">
											<enabled>TRUE</enabled>
											<locked>FALSE</locked>
											<outputchannelindex>2</outputchannelindex>
										</track>
									</audio>
								</media>
								<timecode>
									<rate>
										<timebase>24</timebase>
										<ntsc>TRUE</ntsc>
									</rate>
									<string>00:00:00:00</string>
									<frame>0</frame>
									<displayformat>NDF</displayformat>
								</timecode>
									<marker>
										<comment></comment>
										<name></name>
										<in>8</in>
										<out>-1</out>
										<pproColor>4281828977</pproColor>
									</marker>
									<marker>
										<comment></comment>
										<name></name>
										<in>169</in>
										<out>-1</out>
										<pproColor>4281828977</pproColor>
									</marker>
								<labels>
									<label2>Tan</label2>
								</labels>
								<logginginfo>
									<description></description>
									<scene></scene>
									<shottake></shottake>
									<lognote></lognote>
									<good></good>
									<originalvideofilename></originalvideofilename>
									<originalaudiofilename></originalaudiofilename>
								</logginginfo>
							</sequence>
							<sequence id="sequence-69" TL.SQAudioVisibleBase="0" TL.SQVideoVisibleBase="0" TL.SQVisibleBaseTime="840982255882" TL.SQAVDividerPosition="0.5" TL.SQHideShyTracks="0" TL.SQHeaderWidth="236" Monitor.ProgramZoomOut="2044754712000" Monitor.ProgramZoomIn="0" TL.SQTimePerPixel="0.0080959719800698209" MZ.EditLine="2044754712000" MZ.Sequence.PreviewFrameSizeHeight="1080" MZ.Sequence.PreviewFrameSizeWidth="1920" MZ.Sequence.AudioTimeDisplayFormat="200" MZ.Sequence.PreviewRenderingClassID="1297106761" MZ.Sequence.PreviewRenderingPresetCodec="1297107278" MZ.Sequence.PreviewRenderingPresetPath="EncoderPresets/SequencePreview/795454d9-d3c2-429d-9474-923ab13b7018/I-Frame Only MPEG.epr" MZ.Sequence.PreviewUseMaxRenderQuality="false" MZ.Sequence.PreviewUseMaxBitDepth="false" MZ.Sequence.EditingModeGUID="795454d9-d3c2-429d-9474-923ab13b7018" MZ.Sequence.VideoTimeDisplayFormat="110" MZ.WorkOutPoint="15239249625600" MZ.WorkInPoint="0" explodedTracks="true">
								<uuid>deaae8d7-f89d-4648-83d3-449c5472836f</uuid>
								<duration>193</duration>
								<rate>
									<timebase>24</timebase>
									<ntsc>TRUE</ntsc>
								</rate>
								<name>Trans I</name>
								<media>
									<video>
										<format>
											<samplecharacteristics>
												<rate>
													<timebase>24</timebase>
													<ntsc>TRUE</ntsc>
												</rate>
												<codec>
													<name>Apple ProRes 422</name>
													<appspecificdata>
														<appname>Final Cut Pro</appname>
														<appmanufacturer>Apple Inc.</appmanufacturer>
														<appversion>7.0</appversion>
														<data>
															<qtcodec>
																<codecname>Apple ProRes 422</codecname>
																<codectypename>Apple ProRes 422</codectypename>
																<codectypecode>apcn</codectypecode>
																<codecvendorcode>appl</codecvendorcode>
																<spatialquality>1024</spatialquality>
																<temporalquality>0</temporalquality>
																<keyframerate>0</keyframerate>
																<datarate>0</datarate>
															</qtcodec>
														</data>
													</appspecificdata>
												</codec>
												<width>1920</width>
												<height>1080</height>
												<anamorphic>FALSE</anamorphic>
												<pixelaspectratio>square</pixelaspectratio>
												<fielddominance>none</fielddominance>
												<colordepth>24</colordepth>
											</samplecharacteristics>
										</format>
										<track TL.SQTrackShy="0" TL.SQTrackExpandedHeight="25" TL.SQTrackExpanded="0" MZ.TrackTargeted="1">
											<clipitem id="clipitem-878">
												<masterclipid>masterclip-359</masterclipid>
												<name>ATM_DRONE_TRANS_I [23.976].mp4</name>
												<enabled>TRUE</enabled>
												<duration>197</duration>
												<rate>
													<timebase>24</timebase>
													<ntsc>TRUE</ntsc>
												</rate>
												<start>8</start>
												<end>181</end>
												<in>15</in>
												<out>188</out>
												<pproTicksIn>158918760000</pproTicksIn>
												<pproTicksOut>1991781792000</pproTicksOut>
												<alphatype>none</alphatype>
												<file id="file-331"/>
												<logginginfo>
													<description></description>
													<scene></scene>
													<shottake></shottake>
													<lognote></lognote>
													<good></good>
													<originalvideofilename></originalvideofilename>
													<originalaudiofilename></originalaudiofilename>
												</logginginfo>
												<colorinfo>
													<lut></lut>
													<lut1></lut1>
													<asc_sop></asc_sop>
													<asc_sat></asc_sat>
													<lut2></lut2>
												</colorinfo>
												<labels>
													<label2>Iris</label2>
												</labels>
											</clipitem>
											<enabled>TRUE</enabled>
											<locked>FALSE</locked>
										</track>
										<track TL.SQTrackShy="0" TL.SQTrackExpandedHeight="25" TL.SQTrackExpanded="0" MZ.TrackTargeted="0">
											<clipitem id="clipitem-879">
												<masterclipid>masterclip-157</masterclipid>
												<name>02 Zoom In - Quick / Transform Out</name>
												<enabled>TRUE</enabled>
												<duration>1035764</duration>
												<rate>
													<timebase>24</timebase>
													<ntsc>TRUE</ntsc>
												</rate>
												<start>0</start>
												<end>8</end>
												<in>0</in>
												<out>8</out>
												<pproTicksIn>0</pproTicksIn>
												<pproTicksOut>84756672000</pproTicksOut>
												<sequence id="sequence-7"/>
													<marker>
														<comment></comment>
														<name></name>
														<in>16</in>
														<out>-1</out>
													</marker>
												<labels>
													<label2>Iris</label2>
												</labels>
											</clipitem>
											<clipitem id="clipitem-880">
												<masterclipid>masterclip-159</masterclipid>
												<name>02 Zoom In - Quick / Transform In</name>
												<enabled>TRUE</enabled>
												<duration>1035764</duration>
												<rate>
													<timebase>24</timebase>
													<ntsc>TRUE</ntsc>
												</rate>
												<start>8</start>
												<end>13</end>
												<in>0</in>
												<out>7</out>
												<pproTicksIn>0</pproTicksIn>
												<pproTicksOut>74162088000</pproTicksOut>
												<sequence id="sequence-8"/>
												<labels>
													<label2>Iris</label2>
												</labels>
											</clipitem>
											<clipitem id="clipitem-881">
												<masterclipid>masterclip-157</masterclipid>
												<name>12 Zoom Out - left - Quick / Transform Out</name>
												<enabled>TRUE</enabled>
												<duration>1035764</duration>
												<rate>
													<timebase>24</timebase>
													<ntsc>TRUE</ntsc>
												</rate>
												<start>173</start>
												<end>181</end>
												<in>0</in>
												<out>8</out>
												<pproTicksIn>0</pproTicksIn>
												<pproTicksOut>84756672000</pproTicksOut>
												<sequence id="sequence-7"/>
												<filter>
													<effect>
														<name>Opacity</name>
														<effectid>opacity</effectid>
														<effectcategory>motion</effectcategory>
														<effecttype>motion</effecttype>
														<mediatype>video</mediatype>
														<pproBypass>false</pproBypass>
														<parameter authoringApp="PremierePro">
															<parameterid>opacity</parameterid>
															<name>opacity</name>
															<valuemin>0</valuemin>
															<valuemax>100</valuemax>
															<value>100</value>
															<keyframe>
																<when>0</when>
																<value>0</value>
															</keyframe>
															<keyframe>
																<when>0</when>
																<value>100</value>
															</keyframe>
														</parameter>
													</effect>
												</filter>
													<marker>
														<comment></comment>
														<name></name>
														<in>16</in>
														<out>-1</out>
													</marker>
												<labels>
													<label2>Iris</label2>
												</labels>
											</clipitem>
											<clipitem id="clipitem-882">
												<masterclipid>masterclip-159</masterclipid>
												<name>12 Zoom Out - left - Quick / Transform In</name>
												<enabled>TRUE</enabled>
												<duration>1035764</duration>
												<rate>
													<timebase>24</timebase>
													<ntsc>TRUE</ntsc>
												</rate>
												<start>181</start>
												<end>189</end>
												<in>0</in>
												<out>8</out>
												<pproTicksIn>0</pproTicksIn>
												<pproTicksOut>84756672000</pproTicksOut>
												<sequence id="sequence-8"/>
												<filter>
													<effect>
														<name>Basic Motion</name>
														<effectid>basic</effectid>
														<effectcategory>motion</effectcategory>
														<effecttype>motion</effecttype>
														<mediatype>video</mediatype>
														<pproBypass>false</pproBypass>
														<parameter authoringApp="PremierePro">
															<parameterid>scale</parameterid>
															<name>Scale</name>
															<valuemin>0</valuemin>
															<valuemax>1000</valuemax>
															<value>100</value>
														</parameter>
														<parameter authoringApp="PremierePro">
															<parameterid>rotation</parameterid>
															<name>Rotation</name>
															<valuemin>-8640</valuemin>
															<valuemax>8640</valuemax>
															<value>0</value>
														</parameter>
														<parameter authoringApp="PremierePro">
															<parameterid>center</parameterid>
															<name>Center</name>
															<value>
																<horiz>-0.5</horiz>
																<vert>-0.499394</vert>
															</value>
														</parameter>
														<parameter authoringApp="PremierePro">
															<parameterid>centerOffset</parameterid>
															<name>Anchor Point</name>
															<value>
																<horiz>0</horiz>
																<vert>-0.00060606</vert>
															</value>
														</parameter>
														<parameter authoringApp="PremierePro">
															<parameterid>antiflicker</parameterid>
															<name>Anti-flicker Filter</name>
															<valuemin>0.0</valuemin>
															<valuemax>1.0</valuemax>
															<value>0</value>
														</parameter>
													</effect>
												</filter>
												<labels>
													<label2>Iris</label2>
												</labels>
											</clipitem>
											<enabled>TRUE</enabled>
											<locked>FALSE</locked>
										</track>
										<track TL.SQTrackShy="0" TL.SQTrackExpandedHeight="25" TL.SQTrackExpanded="0" MZ.TrackTargeted="0">
											<enabled>TRUE</enabled>
											<locked>FALSE</locked>
										</track>
									</video>
									<audio>
										<numOutputChannels>2</numOutputChannels>
										<format>
											<samplecharacteristics>
												<depth>16</depth>
												<samplerate>32000</samplerate>
											</samplecharacteristics>
										</format>
										<outputs>
											<group>
												<index>1</index>
												<numchannels>1</numchannels>
												<downmix>0</downmix>
												<channel>
													<index>1</index>
												</channel>
											</group>
											<group>
												<index>2</index>
												<numchannels>1</numchannels>
												<downmix>0</downmix>
												<channel>
													<index>2</index>
												</channel>
											</group>
										</outputs>
										<track TL.SQTrackAudioKeyframeStyle="0" TL.SQTrackShy="0" TL.SQTrackExpandedHeight="25" TL.SQTrackExpanded="0" MZ.TrackTargeted="1" PannerCurrentValue="0.5" PannerIsInverted="true" PannerStartKeyframe="-91445760000000000,0.5,0,0,0,0,0,0" PannerName="Balance" currentExplodedTrackIndex="0" totalExplodedTrackCount="2" premiereTrackType="Stereo">
											<clipitem id="clipitem-883" premiereChannelType="stereo">
												<masterclipid>masterclip-183</masterclipid>
												<name>ATM_DRONE_TRANS_I.mov</name>
												<enabled>TRUE</enabled>
												<duration>196</duration>
												<rate>
													<timebase>24</timebase>
													<ntsc>TRUE</ntsc>
												</rate>
												<start>0</start>
												<end>193</end>
												<in>3</in>
												<out>195</out>
												<pproTicksIn>31783752000</pproTicksIn>
												<pproTicksOut>2065943880000</pproTicksOut>
												<file id="file-172"/>
												<sourcetrack>
													<mediatype>audio</mediatype>
													<trackindex>1</trackindex>
												</sourcetrack>
												<filter>
													<effect>
														<name>Gain</name>
														<effectid>{61756678, 4761696e, 4b657947}</effectid>
														<effecttype>filter</effecttype>
														<mediatype>audio</mediatype>
														<parameter authoringApp="PremierePro">
															<parameterid>Gain(dB)</parameterid>
															<name>Gain(dB)</name>
															<valuemin>-96</valuemin>
															<valuemax>96</valuemax>
															<value>-9</value>
														</parameter>
													</effect>
												</filter>
												<link>
													<linkclipref>clipitem-883</linkclipref>
													<mediatype>audio</mediatype>
													<trackindex>1</trackindex>
													<clipindex>1</clipindex>
													<groupindex>1</groupindex>
												</link>
												<link>
													<linkclipref>clipitem-884</linkclipref>
													<mediatype>audio</mediatype>
													<trackindex>2</trackindex>
													<clipindex>1</clipindex>
													<groupindex>1</groupindex>
												</link>
												<logginginfo>
													<description></description>
													<scene></scene>
													<shottake></shottake>
													<lognote></lognote>
													<good></good>
													<originalvideofilename></originalvideofilename>
													<originalaudiofilename></originalaudiofilename>
												</logginginfo>
												<colorinfo>
													<lut></lut>
													<lut1></lut1>
													<asc_sop></asc_sop>
													<asc_sat></asc_sat>
													<lut2></lut2>
												</colorinfo>
												<labels>
													<label2>Iris</label2>
												</labels>
											</clipitem>
											<enabled>TRUE</enabled>
											<locked>FALSE</locked>
											<outputchannelindex>1</outputchannelindex>
										</track>
										<track TL.SQTrackAudioKeyframeStyle="0" TL.SQTrackShy="0" TL.SQTrackExpandedHeight="25" TL.SQTrackExpanded="0" MZ.TrackTargeted="1" PannerCurrentValue="0.5" PannerIsInverted="true" PannerStartKeyframe="-91445760000000000,0.5,0,0,0,0,0,0" PannerName="Balance" currentExplodedTrackIndex="1" totalExplodedTrackCount="2" premiereTrackType="Stereo">
											<clipitem id="clipitem-884" premiereChannelType="stereo">
												<masterclipid>masterclip-183</masterclipid>
												<name>ATM_DRONE_TRANS_I.mov</name>
												<enabled>TRUE</enabled>
												<duration>196</duration>
												<rate>
													<timebase>24</timebase>
													<ntsc>TRUE</ntsc>
												</rate>
												<start>0</start>
												<end>193</end>
												<in>3</in>
												<out>195</out>
												<pproTicksIn>31783752000</pproTicksIn>
												<pproTicksOut>2065943880000</pproTicksOut>
												<file id="file-172"/>
												<sourcetrack>
													<mediatype>audio</mediatype>
													<trackindex>2</trackindex>
												</sourcetrack>
												<filter>
													<effect>
														<name>Gain</name>
														<effectid>{61756678, 4761696e, 4b657947}</effectid>
														<effecttype>filter</effecttype>
														<mediatype>audio</mediatype>
														<parameter authoringApp="PremierePro">
															<parameterid>Gain(dB)</parameterid>
															<name>Gain(dB)</name>
															<valuemin>-96</valuemin>
															<valuemax>96</valuemax>
															<value>-9</value>
														</parameter>
													</effect>
												</filter>
												<link>
													<linkclipref>clipitem-883</linkclipref>
													<mediatype>audio</mediatype>
													<trackindex>1</trackindex>
													<clipindex>1</clipindex>
													<groupindex>1</groupindex>
												</link>
												<link>
													<linkclipref>clipitem-884</linkclipref>
													<mediatype>audio</mediatype>
													<trackindex>2</trackindex>
													<clipindex>1</clipindex>
													<groupindex>1</groupindex>
												</link>
												<logginginfo>
													<description></description>
													<scene></scene>
													<shottake></shottake>
													<lognote></lognote>
													<good></good>
													<originalvideofilename></originalvideofilename>
													<originalaudiofilename></originalaudiofilename>
												</logginginfo>
												<colorinfo>
													<lut></lut>
													<lut1></lut1>
													<asc_sop></asc_sop>
													<asc_sat></asc_sat>
													<lut2></lut2>
												</colorinfo>
												<labels>
													<label2>Iris</label2>
												</labels>
											</clipitem>
											<enabled>TRUE</enabled>
											<locked>FALSE</locked>
											<outputchannelindex>2</outputchannelindex>
										</track>
										<track TL.SQTrackAudioKeyframeStyle="0" TL.SQTrackShy="0" TL.SQTrackExpandedHeight="25" TL.SQTrackExpanded="0" MZ.TrackTargeted="1" PannerCurrentValue="0.5" PannerIsInverted="true" PannerStartKeyframe="-91445760000000000,0.5,0,0,0,0,0,0" PannerName="Balance" currentExplodedTrackIndex="0" totalExplodedTrackCount="2" premiereTrackType="Stereo">
											<enabled>TRUE</enabled>
											<locked>FALSE</locked>
											<outputchannelindex>1</outputchannelindex>
										</track>
										<track TL.SQTrackAudioKeyframeStyle="0" TL.SQTrackShy="0" TL.SQTrackExpandedHeight="25" TL.SQTrackExpanded="0" MZ.TrackTargeted="1" PannerCurrentValue="0.5" PannerIsInverted="true" PannerStartKeyframe="-91445760000000000,0.5,0,0,0,0,0,0" PannerName="Balance" currentExplodedTrackIndex="1" totalExplodedTrackCount="2" premiereTrackType="Stereo">
											<enabled>TRUE</enabled>
											<locked>FALSE</locked>
											<outputchannelindex>2</outputchannelindex>
										</track>
										<track TL.SQTrackAudioKeyframeStyle="0" TL.SQTrackShy="0" TL.SQTrackExpandedHeight="25" TL.SQTrackExpanded="0" MZ.TrackTargeted="1" PannerCurrentValue="0.5" PannerIsInverted="true" PannerStartKeyframe="-91445760000000000,0.5,0,0,0,0,0,0" PannerName="Balance" currentExplodedTrackIndex="0" totalExplodedTrackCount="2" premiereTrackType="Stereo">
											<enabled>TRUE</enabled>
											<locked>FALSE</locked>
											<outputchannelindex>1</outputchannelindex>
										</track>
										<track TL.SQTrackAudioKeyframeStyle="0" TL.SQTrackShy="0" TL.SQTrackExpandedHeight="25" TL.SQTrackExpanded="0" MZ.TrackTargeted="1" PannerCurrentValue="0.5" PannerIsInverted="true" PannerStartKeyframe="-91445760000000000,0.5,0,0,0,0,0,0" PannerName="Balance" currentExplodedTrackIndex="1" totalExplodedTrackCount="2" premiereTrackType="Stereo">
											<enabled>TRUE</enabled>
											<locked>FALSE</locked>
											<outputchannelindex>2</outputchannelindex>
										</track>
									</audio>
								</media>
								<timecode>
									<rate>
										<timebase>24</timebase>
										<ntsc>TRUE</ntsc>
									</rate>
									<string>00:00:00:00</string>
									<frame>0</frame>
									<displayformat>NDF</displayformat>
								</timecode>
									<marker>
										<comment></comment>
										<name></name>
										<in>187</in>
										<out>-1</out>
										<pproColor>4281828977</pproColor>
									</marker>
									<marker>
										<comment></comment>
										<name></name>
										<in>8</in>
										<out>-1</out>
										<pproColor>4281828977</pproColor>
									</marker>
								<labels>
									<label2>Tan</label2>
								</labels>
								<logginginfo>
									<description></description>
									<scene></scene>
									<shottake></shottake>
									<lognote></lognote>
									<good></good>
									<originalvideofilename></originalvideofilename>
									<originalaudiofilename></originalaudiofilename>
								</logginginfo>
							</sequence>
							<sequence id="sequence-70" TL.SQAudioVisibleBase="0" TL.SQVideoVisibleBase="0" TL.SQVisibleBaseTime="324068830930" TL.SQAVDividerPosition="0.5" TL.SQHideShyTracks="0" TL.SQHeaderWidth="236" Monitor.ProgramZoomOut="1981187208000" Monitor.ProgramZoomIn="0" TL.SQTimePerPixel="0.0064938170061137881" MZ.EditLine="1981187208000" MZ.Sequence.PreviewFrameSizeHeight="1080" MZ.Sequence.PreviewFrameSizeWidth="1920" MZ.Sequence.AudioTimeDisplayFormat="200" MZ.Sequence.PreviewRenderingClassID="1297106761" MZ.Sequence.PreviewRenderingPresetCodec="1297107278" MZ.Sequence.PreviewRenderingPresetPath="EncoderPresets/SequencePreview/795454d9-d3c2-429d-9474-923ab13b7018/I-Frame Only MPEG.epr" MZ.Sequence.PreviewUseMaxRenderQuality="false" MZ.Sequence.PreviewUseMaxBitDepth="false" MZ.Sequence.EditingModeGUID="795454d9-d3c2-429d-9474-923ab13b7018" MZ.Sequence.VideoTimeDisplayFormat="110" MZ.WorkOutPoint="15239249625600" MZ.WorkInPoint="0" explodedTracks="true">
								<uuid>3a3093e8-f455-4455-b288-d5062a0c4b24</uuid>
								<duration>187</duration>
								<rate>
									<timebase>24</timebase>
									<ntsc>TRUE</ntsc>
								</rate>
								<out>187</out>
								<name>Trans F</name>
								<media>
									<video>
										<format>
											<samplecharacteristics>
												<rate>
													<timebase>24</timebase>
													<ntsc>TRUE</ntsc>
												</rate>
												<codec>
													<name>Apple ProRes 422</name>
													<appspecificdata>
														<appname>Final Cut Pro</appname>
														<appmanufacturer>Apple Inc.</appmanufacturer>
														<appversion>7.0</appversion>
														<data>
															<qtcodec>
																<codecname>Apple ProRes 422</codecname>
																<codectypename>Apple ProRes 422</codectypename>
																<codectypecode>apcn</codectypecode>
																<codecvendorcode>appl</codecvendorcode>
																<spatialquality>1024</spatialquality>
																<temporalquality>0</temporalquality>
																<keyframerate>0</keyframerate>
																<datarate>0</datarate>
															</qtcodec>
														</data>
													</appspecificdata>
												</codec>
												<width>1920</width>
												<height>1080</height>
												<anamorphic>FALSE</anamorphic>
												<pixelaspectratio>square</pixelaspectratio>
												<fielddominance>none</fielddominance>
												<colordepth>24</colordepth>
											</samplecharacteristics>
										</format>
										<track TL.SQTrackShy="0" TL.SQTrackExpandedHeight="25" TL.SQTrackExpanded="0" MZ.TrackTargeted="1">
											<clipitem id="clipitem-885">
												<masterclipid>masterclip-356</masterclipid>
												<name>ATM_DRONE_TRANS_F [23.976].mp4</name>
												<enabled>TRUE</enabled>
												<duration>197</duration>
												<rate>
													<timebase>24</timebase>
													<ntsc>TRUE</ntsc>
												</rate>
												<start>8</start>
												<end>175</end>
												<in>17</in>
												<out>184</out>
												<pproTicksIn>180107928000</pproTicksIn>
												<pproTicksOut>1949403456000</pproTicksOut>
												<alphatype>none</alphatype>
												<file id="file-328"/>
												<logginginfo>
													<description></description>
													<scene></scene>
													<shottake></shottake>
													<lognote></lognote>
													<good></good>
													<originalvideofilename></originalvideofilename>
													<originalaudiofilename></originalaudiofilename>
												</logginginfo>
												<colorinfo>
													<lut></lut>
													<lut1></lut1>
													<asc_sop></asc_sop>
													<asc_sat></asc_sat>
													<lut2></lut2>
												</colorinfo>
												<labels>
													<label2>Iris</label2>
												</labels>
											</clipitem>
											<enabled>TRUE</enabled>
											<locked>FALSE</locked>
										</track>
										<track TL.SQTrackShy="0" TL.SQTrackExpandedHeight="25" TL.SQTrackExpanded="0" MZ.TrackTargeted="0">
											<clipitem id="clipitem-886">
												<masterclipid>masterclip-157</masterclipid>
												<name>02 Zoom In - Quick / Transform Out</name>
												<enabled>TRUE</enabled>
												<duration>1035764</duration>
												<rate>
													<timebase>24</timebase>
													<ntsc>TRUE</ntsc>
												</rate>
												<start>0</start>
												<end>8</end>
												<in>0</in>
												<out>8</out>
												<pproTicksIn>0</pproTicksIn>
												<pproTicksOut>84756672000</pproTicksOut>
												<sequence id="sequence-7"/>
													<marker>
														<comment></comment>
														<name></name>
														<in>16</in>
														<out>-1</out>
													</marker>
												<labels>
													<label2>Iris</label2>
												</labels>
											</clipitem>
											<clipitem id="clipitem-887">
												<masterclipid>masterclip-159</masterclipid>
												<name>02 Zoom In - Quick / Transform In</name>
												<enabled>TRUE</enabled>
												<duration>1035764</duration>
												<rate>
													<timebase>24</timebase>
													<ntsc>TRUE</ntsc>
												</rate>
												<start>8</start>
												<end>13</end>
												<in>0</in>
												<out>7</out>
												<pproTicksIn>0</pproTicksIn>
												<pproTicksOut>74162088000</pproTicksOut>
												<sequence id="sequence-8"/>
												<labels>
													<label2>Iris</label2>
												</labels>
											</clipitem>
											<clipitem id="clipitem-888">
												<masterclipid>masterclip-157</masterclipid>
												<name>03 Zoom Out - Quick / Transform Out</name>
												<enabled>TRUE</enabled>
												<duration>1035764</duration>
												<rate>
													<timebase>24</timebase>
													<ntsc>TRUE</ntsc>
												</rate>
												<start>168</start>
												<end>175</end>
												<in>0</in>
												<out>8</out>
												<pproTicksIn>0</pproTicksIn>
												<pproTicksOut>84756672000</pproTicksOut>
												<sequence id="sequence-7"/>
													<marker>
														<comment></comment>
														<name></name>
														<in>16</in>
														<out>-1</out>
													</marker>
												<labels>
													<label2>Iris</label2>
												</labels>
											</clipitem>
											<clipitem id="clipitem-889">
												<masterclipid>masterclip-159</masterclipid>
												<name>03 Zoom Out - Quick / Transform In</name>
												<enabled>TRUE</enabled>
												<duration>1035764</duration>
												<rate>
													<timebase>24</timebase>
													<ntsc>TRUE</ntsc>
												</rate>
												<start>175</start>
												<end>183</end>
												<in>0</in>
												<out>8</out>
												<pproTicksIn>0</pproTicksIn>
												<pproTicksOut>84756672000</pproTicksOut>
												<sequence id="sequence-8"/>
												<filter>
													<effect>
														<name>Basic Motion</name>
														<effectid>basic</effectid>
														<effectcategory>motion</effectcategory>
														<effecttype>motion</effecttype>
														<mediatype>video</mediatype>
														<pproBypass>false</pproBypass>
														<parameter authoringApp="PremierePro">
															<parameterid>scale</parameterid>
															<name>Scale</name>
															<valuemin>0</valuemin>
															<valuemax>1000</valuemax>
															<value>100</value>
														</parameter>
														<parameter authoringApp="PremierePro">
															<parameterid>rotation</parameterid>
															<name>Rotation</name>
															<valuemin>-8640</valuemin>
															<valuemax>8640</valuemax>
															<value>0</value>
														</parameter>
														<parameter authoringApp="PremierePro">
															<parameterid>center</parameterid>
															<name>Center</name>
															<value>
																<horiz>-0.5</horiz>
																<vert>-0.499394</vert>
															</value>
														</parameter>
														<parameter authoringApp="PremierePro">
															<parameterid>centerOffset</parameterid>
															<name>Anchor Point</name>
															<value>
																<horiz>0</horiz>
																<vert>-0.00060606</vert>
															</value>
														</parameter>
														<parameter authoringApp="PremierePro">
															<parameterid>antiflicker</parameterid>
															<name>Anti-flicker Filter</name>
															<valuemin>0.0</valuemin>
															<valuemax>1.0</valuemax>
															<value>0</value>
														</parameter>
													</effect>
												</filter>
												<labels>
													<label2>Iris</label2>
												</labels>
											</clipitem>
											<enabled>TRUE</enabled>
											<locked>FALSE</locked>
										</track>
										<track TL.SQTrackShy="0" TL.SQTrackExpandedHeight="25" TL.SQTrackExpanded="0" MZ.TrackTargeted="0">
											<enabled>TRUE</enabled>
											<locked>FALSE</locked>
										</track>
									</video>
									<audio>
										<numOutputChannels>2</numOutputChannels>
										<format>
											<samplecharacteristics>
												<depth>16</depth>
												<samplerate>32000</samplerate>
											</samplecharacteristics>
										</format>
										<outputs>
											<group>
												<index>1</index>
												<numchannels>1</numchannels>
												<downmix>0</downmix>
												<channel>
													<index>1</index>
												</channel>
											</group>
											<group>
												<index>2</index>
												<numchannels>1</numchannels>
												<downmix>0</downmix>
												<channel>
													<index>2</index>
												</channel>
											</group>
										</outputs>
										<track TL.SQTrackAudioKeyframeStyle="0" TL.SQTrackShy="0" TL.SQTrackExpandedHeight="25" TL.SQTrackExpanded="0" MZ.TrackTargeted="1" PannerCurrentValue="0.5" PannerIsInverted="true" PannerStartKeyframe="-91445760000000000,0.5,0,0,0,0,0,0" PannerName="Balance" currentExplodedTrackIndex="0" totalExplodedTrackCount="2" premiereTrackType="Stereo">
											<clipitem id="clipitem-890" premiereChannelType="stereo">
												<masterclipid>masterclip-252</masterclipid>
												<name>ATM_DRONE_TRANS_F.mov</name>
												<enabled>TRUE</enabled>
												<duration>196</duration>
												<rate>
													<timebase>24</timebase>
													<ntsc>TRUE</ntsc>
												</rate>
												<start>0</start>
												<end>-1</end>
												<in>0</in>
												<out>180</out>
												<pproTicksIn>0</pproTicksIn>
												<pproTicksOut>1907025120000</pproTicksOut>
												<file id="file-230"/>
												<sourcetrack>
													<mediatype>audio</mediatype>
													<trackindex>1</trackindex>
												</sourcetrack>
												<filter>
													<effect>
														<name>Gain</name>
														<effectid>{61756678, 4761696e, 4b657947}</effectid>
														<effecttype>filter</effecttype>
														<mediatype>audio</mediatype>
														<parameter authoringApp="PremierePro">
															<parameterid>Gain(dB)</parameterid>
															<name>Gain(dB)</name>
															<valuemin>-96</valuemin>
															<valuemax>96</valuemax>
															<value>-9</value>
														</parameter>
													</effect>
												</filter>
												<link>
													<linkclipref>clipitem-890</linkclipref>
													<mediatype>audio</mediatype>
													<trackindex>1</trackindex>
													<clipindex>1</clipindex>
													<groupindex>1</groupindex>
												</link>
												<link>
													<linkclipref>clipitem-892</linkclipref>
													<mediatype>audio</mediatype>
													<trackindex>2</trackindex>
													<clipindex>1</clipindex>
													<groupindex>1</groupindex>
												</link>
												<logginginfo>
													<description></description>
													<scene></scene>
													<shottake></shottake>
													<lognote></lognote>
													<good></good>
													<originalvideofilename></originalvideofilename>
													<originalaudiofilename></originalaudiofilename>
												</logginginfo>
												<colorinfo>
													<lut></lut>
													<lut1></lut1>
													<asc_sop></asc_sop>
													<asc_sat></asc_sat>
													<lut2></lut2>
												</colorinfo>
												<labels>
													<label2>Iris</label2>
												</labels>
											</clipitem>
											<transitionitem>
												<start>160</start>
												<end>180</end>
												<pproTicksIn>1695133440000</pproTicksIn>
												<pproTicksOut>1907025120000</pproTicksOut>
												<alignment>center</alignment>
												<cutPointTicks>63567504000</cutPointTicks>
												<rate>
													<timebase>24</timebase>
													<ntsc>TRUE</ntsc>
												</rate>
												<effect>
													<name>Cross Fade ( 0dB)</name>
													<effectid>KGAudioTransCrossFade0dB</effectid>
													<effecttype>transition</effecttype>
													<mediatype>audio</mediatype>
													<wipecode>0</wipecode>
													<wipeaccuracy>100</wipeaccuracy>
													<startratio>0</startratio>
													<endratio>1</endratio>
													<reverse>FALSE</reverse>
												</effect>
											</transitionitem>
											<clipitem id="clipitem-891" premiereChannelType="stereo">
												<masterclipid>masterclip-357</masterclipid>
												<name>ATM_DRONE_TRANS_G [23.976].mp4</name>
												<enabled>TRUE</enabled>
												<duration>197</duration>
												<rate>
													<timebase>24</timebase>
													<ntsc>TRUE</ntsc>
												</rate>
												<start>-1</start>
												<end>187</end>
												<in>171</in>
												<out>198</out>
												<pproTicksIn>1811673864000</pproTicksIn>
												<pproTicksOut>2097727632000</pproTicksOut>
												<file id="file-329"/>
												<sourcetrack>
													<mediatype>audio</mediatype>
													<trackindex>1</trackindex>
												</sourcetrack>
												<link>
													<linkclipref>clipitem-891</linkclipref>
													<mediatype>audio</mediatype>
													<trackindex>1</trackindex>
													<clipindex>3</clipindex>
													<groupindex>1</groupindex>
												</link>
												<link>
													<linkclipref>clipitem-893</linkclipref>
													<mediatype>audio</mediatype>
													<trackindex>2</trackindex>
													<clipindex>3</clipindex>
													<groupindex>1</groupindex>
												</link>
												<logginginfo>
													<description></description>
													<scene></scene>
													<shottake></shottake>
													<lognote></lognote>
													<good></good>
													<originalvideofilename></originalvideofilename>
													<originalaudiofilename></originalaudiofilename>
												</logginginfo>
												<colorinfo>
													<lut></lut>
													<lut1></lut1>
													<asc_sop></asc_sop>
													<asc_sat></asc_sat>
													<lut2></lut2>
												</colorinfo>
												<labels>
													<label2>Iris</label2>
												</labels>
											</clipitem>
											<enabled>TRUE</enabled>
											<locked>FALSE</locked>
											<outputchannelindex>1</outputchannelindex>
										</track>
										<track TL.SQTrackAudioKeyframeStyle="0" TL.SQTrackShy="0" TL.SQTrackExpandedHeight="25" TL.SQTrackExpanded="0" MZ.TrackTargeted="1" PannerCurrentValue="0.5" PannerIsInverted="true" PannerStartKeyframe="-91445760000000000,0.5,0,0,0,0,0,0" PannerName="Balance" currentExplodedTrackIndex="1" totalExplodedTrackCount="2" premiereTrackType="Stereo">
											<clipitem id="clipitem-892" premiereChannelType="stereo">
												<masterclipid>masterclip-252</masterclipid>
												<name>ATM_DRONE_TRANS_F.mov</name>
												<enabled>TRUE</enabled>
												<duration>196</duration>
												<rate>
													<timebase>24</timebase>
													<ntsc>TRUE</ntsc>
												</rate>
												<start>0</start>
												<end>-1</end>
												<in>0</in>
												<out>180</out>
												<pproTicksIn>0</pproTicksIn>
												<pproTicksOut>1907025120000</pproTicksOut>
												<file id="file-230"/>
												<sourcetrack>
													<mediatype>audio</mediatype>
													<trackindex>2</trackindex>
												</sourcetrack>
												<filter>
													<effect>
														<name>Gain</name>
														<effectid>{61756678, 4761696e, 4b657947}</effectid>
														<effecttype>filter</effecttype>
														<mediatype>audio</mediatype>
														<parameter authoringApp="PremierePro">
															<parameterid>Gain(dB)</parameterid>
															<name>Gain(dB)</name>
															<valuemin>-96</valuemin>
															<valuemax>96</valuemax>
															<value>-9</value>
														</parameter>
													</effect>
												</filter>
												<link>
													<linkclipref>clipitem-890</linkclipref>
													<mediatype>audio</mediatype>
													<trackindex>1</trackindex>
													<clipindex>1</clipindex>
													<groupindex>1</groupindex>
												</link>
												<link>
													<linkclipref>clipitem-892</linkclipref>
													<mediatype>audio</mediatype>
													<trackindex>2</trackindex>
													<clipindex>1</clipindex>
													<groupindex>1</groupindex>
												</link>
												<logginginfo>
													<description></description>
													<scene></scene>
													<shottake></shottake>
													<lognote></lognote>
													<good></good>
													<originalvideofilename></originalvideofilename>
													<originalaudiofilename></originalaudiofilename>
												</logginginfo>
												<colorinfo>
													<lut></lut>
													<lut1></lut1>
													<asc_sop></asc_sop>
													<asc_sat></asc_sat>
													<lut2></lut2>
												</colorinfo>
												<labels>
													<label2>Iris</label2>
												</labels>
											</clipitem>
											<transitionitem>
												<start>160</start>
												<end>180</end>
												<pproTicksIn>1695133440000</pproTicksIn>
												<pproTicksOut>1907025120000</pproTicksOut>
												<alignment>center</alignment>
												<cutPointTicks>63567504000</cutPointTicks>
												<rate>
													<timebase>24</timebase>
													<ntsc>TRUE</ntsc>
												</rate>
												<effect>
													<name>Cross Fade ( 0dB)</name>
													<effectid>KGAudioTransCrossFade0dB</effectid>
													<effecttype>transition</effecttype>
													<mediatype>audio</mediatype>
													<wipecode>0</wipecode>
													<wipeaccuracy>100</wipeaccuracy>
													<startratio>0</startratio>
													<endratio>1</endratio>
													<reverse>FALSE</reverse>
												</effect>
											</transitionitem>
											<clipitem id="clipitem-893" premiereChannelType="stereo">
												<masterclipid>masterclip-357</masterclipid>
												<name>ATM_DRONE_TRANS_G [23.976].mp4</name>
												<enabled>TRUE</enabled>
												<duration>197</duration>
												<rate>
													<timebase>24</timebase>
													<ntsc>TRUE</ntsc>
												</rate>
												<start>-1</start>
												<end>187</end>
												<in>171</in>
												<out>198</out>
												<pproTicksIn>1811673864000</pproTicksIn>
												<pproTicksOut>2097727632000</pproTicksOut>
												<file id="file-329"/>
												<sourcetrack>
													<mediatype>audio</mediatype>
													<trackindex>2</trackindex>
												</sourcetrack>
												<link>
													<linkclipref>clipitem-891</linkclipref>
													<mediatype>audio</mediatype>
													<trackindex>1</trackindex>
													<clipindex>3</clipindex>
													<groupindex>1</groupindex>
												</link>
												<link>
													<linkclipref>clipitem-893</linkclipref>
													<mediatype>audio</mediatype>
													<trackindex>2</trackindex>
													<clipindex>3</clipindex>
													<groupindex>1</groupindex>
												</link>
												<logginginfo>
													<description></description>
													<scene></scene>
													<shottake></shottake>
													<lognote></lognote>
													<good></good>
													<originalvideofilename></originalvideofilename>
													<originalaudiofilename></originalaudiofilename>
												</logginginfo>
												<colorinfo>
													<lut></lut>
													<lut1></lut1>
													<asc_sop></asc_sop>
													<asc_sat></asc_sat>
													<lut2></lut2>
												</colorinfo>
												<labels>
													<label2>Iris</label2>
												</labels>
											</clipitem>
											<enabled>TRUE</enabled>
											<locked>FALSE</locked>
											<outputchannelindex>2</outputchannelindex>
										</track>
										<track TL.SQTrackAudioKeyframeStyle="0" TL.SQTrackShy="0" TL.SQTrackExpandedHeight="25" TL.SQTrackExpanded="0" MZ.TrackTargeted="1" PannerCurrentValue="0.5" PannerIsInverted="true" PannerStartKeyframe="-91445760000000000,0.5,0,0,0,0,0,0" PannerName="Balance" currentExplodedTrackIndex="0" totalExplodedTrackCount="2" premiereTrackType="Stereo">
											<enabled>TRUE</enabled>
											<locked>FALSE</locked>
											<outputchannelindex>1</outputchannelindex>
										</track>
										<track TL.SQTrackAudioKeyframeStyle="0" TL.SQTrackShy="0" TL.SQTrackExpandedHeight="25" TL.SQTrackExpanded="0" MZ.TrackTargeted="1" PannerCurrentValue="0.5" PannerIsInverted="true" PannerStartKeyframe="-91445760000000000,0.5,0,0,0,0,0,0" PannerName="Balance" currentExplodedTrackIndex="1" totalExplodedTrackCount="2" premiereTrackType="Stereo">
											<enabled>TRUE</enabled>
											<locked>FALSE</locked>
											<outputchannelindex>2</outputchannelindex>
										</track>
										<track TL.SQTrackAudioKeyframeStyle="0" TL.SQTrackShy="0" TL.SQTrackExpandedHeight="25" TL.SQTrackExpanded="0" MZ.TrackTargeted="1" PannerCurrentValue="0.5" PannerIsInverted="true" PannerStartKeyframe="-91445760000000000,0.5,0,0,0,0,0,0" PannerName="Balance" currentExplodedTrackIndex="0" totalExplodedTrackCount="2" premiereTrackType="Stereo">
											<enabled>TRUE</enabled>
											<locked>FALSE</locked>
											<outputchannelindex>1</outputchannelindex>
										</track>
										<track TL.SQTrackAudioKeyframeStyle="0" TL.SQTrackShy="0" TL.SQTrackExpandedHeight="25" TL.SQTrackExpanded="0" MZ.TrackTargeted="1" PannerCurrentValue="0.5" PannerIsInverted="true" PannerStartKeyframe="-91445760000000000,0.5,0,0,0,0,0,0" PannerName="Balance" currentExplodedTrackIndex="1" totalExplodedTrackCount="2" premiereTrackType="Stereo">
											<enabled>TRUE</enabled>
											<locked>FALSE</locked>
											<outputchannelindex>2</outputchannelindex>
										</track>
									</audio>
								</media>
								<timecode>
									<rate>
										<timebase>24</timebase>
										<ntsc>TRUE</ntsc>
									</rate>
									<string>00:00:00:00</string>
									<frame>0</frame>
									<displayformat>NDF</displayformat>
								</timecode>
									<marker>
										<comment></comment>
										<name></name>
										<in>8</in>
										<out>-1</out>
										<pproColor>4281828977</pproColor>
									</marker>
									<marker>
										<comment></comment>
										<name></name>
										<in>175</in>
										<out>-1</out>
										<pproColor>4281828977</pproColor>
									</marker>
								<labels>
									<label2>Tan</label2>
								</labels>
								<logginginfo>
									<description></description>
									<scene></scene>
									<shottake></shottake>
									<lognote></lognote>
									<good></good>
									<originalvideofilename></originalvideofilename>
									<originalaudiofilename></originalaudiofilename>
								</logginginfo>
							</sequence>
						</children>
					</bin>
					<clip id="masterclip-363" explodedTracks="true">
						<uuid>22ee92d4-c0a3-4632-bb54-753295b83b87</uuid>
						<masterclipid>masterclip-363</masterclipid>
						<ismasterclip>TRUE</ismasterclip>
						<duration>240</duration>
						<rate>
							<timebase>30</timebase>
							<ntsc>FALSE</ntsc>
						</rate>
						<name>ATM_HouseAd_2023.mp4</name>
						<media>
							<video>
								<track>
									<clipitem id="clipitem-894">
										<masterclipid>masterclip-363</masterclipid>
										<name>ATM_HouseAd_2023.mp4</name>
										<rate>
											<timebase>30</timebase>
											<ntsc>FALSE</ntsc>
										</rate>
										<alphatype>none</alphatype>
										<pixelaspectratio>square</pixelaspectratio>
										<anamorphic>FALSE</anamorphic>
										<file id="file-335">
											<name>ATM_HouseAd_2023_V2.mp4</name>
											<pathurl>file://localhost/Volumes/T7/DRONE_08.18.2023/4_Project%20Files/Drone%202023%20Master%20Assets/02_Transitions/ATM_HouseAd_2023_V2.mp4</pathurl>
											<rate>
												<timebase>30</timebase>
												<ntsc>FALSE</ntsc>
											</rate>
											<duration>240</duration>
											<timecode>
												<rate>
													<timebase>30</timebase>
													<ntsc>FALSE</ntsc>
												</rate>
												<string>00:00:00:00</string>
												<frame>0</frame>
												<displayformat>NDF</displayformat>
											</timecode>
											<media>
												<video>
													<samplecharacteristics>
														<rate>
															<timebase>30</timebase>
															<ntsc>FALSE</ntsc>
														</rate>
														<width>1920</width>
														<height>1080</height>
														<anamorphic>FALSE</anamorphic>
														<pixelaspectratio>square</pixelaspectratio>
														<fielddominance>none</fielddominance>
													</samplecharacteristics>
												</video>
												<audio>
													<samplecharacteristics>
														<depth>16</depth>
														<samplerate>48000</samplerate>
													</samplecharacteristics>
													<channelcount>2</channelcount>
												</audio>
											</media>
										</file>
										<link>
											<linkclipref>clipitem-894</linkclipref>
											<mediatype>video</mediatype>
											<trackindex>1</trackindex>
											<clipindex>1</clipindex>
										</link>
										<link>
											<linkclipref>clipitem-895</linkclipref>
											<mediatype>audio</mediatype>
											<trackindex>1</trackindex>
											<clipindex>1</clipindex>
											<groupindex>1</groupindex>
										</link>
										<link>
											<linkclipref>clipitem-896</linkclipref>
											<mediatype>audio</mediatype>
											<trackindex>2</trackindex>
											<clipindex>1</clipindex>
											<groupindex>1</groupindex>
										</link>
									</clipitem>
								</track>
							</video>
							<audio>
								<track>
									<clipitem id="clipitem-895">
										<masterclipid>masterclip-363</masterclipid>
										<name>ATM_HouseAd_2023.mp4</name>
										<rate>
											<timebase>30</timebase>
											<ntsc>FALSE</ntsc>
										</rate>
										<file id="file-335"/>
										<sourcetrack>
											<mediatype>audio</mediatype>
											<trackindex>1</trackindex>
										</sourcetrack>
										<link>
											<linkclipref>clipitem-894</linkclipref>
											<mediatype>video</mediatype>
											<trackindex>1</trackindex>
											<clipindex>1</clipindex>
										</link>
										<link>
											<linkclipref>clipitem-895</linkclipref>
											<mediatype>audio</mediatype>
											<trackindex>1</trackindex>
											<clipindex>1</clipindex>
											<groupindex>1</groupindex>
										</link>
										<link>
											<linkclipref>clipitem-896</linkclipref>
											<mediatype>audio</mediatype>
											<trackindex>2</trackindex>
											<clipindex>1</clipindex>
											<groupindex>1</groupindex>
										</link>
									</clipitem>
								</track>
								<track>
									<clipitem id="clipitem-896">
										<masterclipid>masterclip-363</masterclipid>
										<name>ATM_HouseAd_2023.mp4</name>
										<rate>
											<timebase>30</timebase>
											<ntsc>FALSE</ntsc>
										</rate>
										<file id="file-335"/>
										<sourcetrack>
											<mediatype>audio</mediatype>
											<trackindex>2</trackindex>
										</sourcetrack>
										<link>
											<linkclipref>clipitem-894</linkclipref>
											<mediatype>video</mediatype>
											<trackindex>1</trackindex>
											<clipindex>1</clipindex>
										</link>
										<link>
											<linkclipref>clipitem-895</linkclipref>
											<mediatype>audio</mediatype>
											<trackindex>1</trackindex>
											<clipindex>1</clipindex>
											<groupindex>1</groupindex>
										</link>
										<link>
											<linkclipref>clipitem-896</linkclipref>
											<mediatype>audio</mediatype>
											<trackindex>2</trackindex>
											<clipindex>1</clipindex>
											<groupindex>1</groupindex>
										</link>
									</clipitem>
								</track>
							</audio>
						</media>
						<logginginfo>
							<description></description>
							<scene></scene>
							<shottake></shottake>
							<lognote></lognote>
							<good></good>
							<originalvideofilename></originalvideofilename>
							<originalaudiofilename></originalaudiofilename>
						</logginginfo>
						<colorinfo>
							<lut></lut>
							<lut1></lut1>
							<asc_sop></asc_sop>
							<asc_sat></asc_sat>
							<lut2></lut2>
						</colorinfo>
						<labels>
							<label2>Iris</label2>
						</labels>
					</clip>
					<clip id="masterclip-364" explodedTracks="true">
						<uuid>f5a54a4d-504e-40e4-9f53-1cd199c42014</uuid>
						<masterclipid>masterclip-364</masterclipid>
						<ismasterclip>TRUE</ismasterclip>
						<duration>300</duration>
						<rate>
							<timebase>30</timebase>
							<ntsc>FALSE</ntsc>
						</rate>
						<name>ATM_QR.mp4</name>
						<media>
							<video>
								<track>
									<clipitem id="clipitem-897">
										<masterclipid>masterclip-364</masterclipid>
										<name>ATM_QR.mp4</name>
										<rate>
											<timebase>30</timebase>
											<ntsc>FALSE</ntsc>
										</rate>
										<alphatype>none</alphatype>
										<pixelaspectratio>square</pixelaspectratio>
										<anamorphic>FALSE</anamorphic>
										<file id="file-336">
											<name>ATM_QR.mp4</name>
											<pathurl>file://localhost/Volumes/T7/DRONE_08.18.2023/4_Project%20Files/Drone%202023%20Master%20Assets/02_Transitions/ATM_QR.mp4</pathurl>
											<rate>
												<timebase>30</timebase>
												<ntsc>FALSE</ntsc>
											</rate>
											<duration>300</duration>
											<timecode>
												<rate>
													<timebase>30</timebase>
													<ntsc>FALSE</ntsc>
												</rate>
												<string>00:00:00:00</string>
												<frame>0</frame>
												<displayformat>NDF</displayformat>
											</timecode>
											<media>
												<video>
													<samplecharacteristics>
														<rate>
															<timebase>30</timebase>
															<ntsc>FALSE</ntsc>
														</rate>
														<width>1920</width>
														<height>1080</height>
														<anamorphic>FALSE</anamorphic>
														<pixelaspectratio>square</pixelaspectratio>
														<fielddominance>none</fielddominance>
													</samplecharacteristics>
												</video>
												<audio>
													<samplecharacteristics>
														<depth>16</depth>
														<samplerate>44100</samplerate>
													</samplecharacteristics>
													<channelcount>2</channelcount>
												</audio>
											</media>
										</file>
										<link>
											<linkclipref>clipitem-897</linkclipref>
											<mediatype>video</mediatype>
											<trackindex>1</trackindex>
											<clipindex>1</clipindex>
										</link>
										<link>
											<linkclipref>clipitem-898</linkclipref>
											<mediatype>audio</mediatype>
											<trackindex>1</trackindex>
											<clipindex>1</clipindex>
											<groupindex>1</groupindex>
										</link>
										<link>
											<linkclipref>clipitem-899</linkclipref>
											<mediatype>audio</mediatype>
											<trackindex>2</trackindex>
											<clipindex>1</clipindex>
											<groupindex>1</groupindex>
										</link>
									</clipitem>
								</track>
							</video>
							<audio>
								<track>
									<clipitem id="clipitem-898">
										<masterclipid>masterclip-364</masterclipid>
										<name>ATM_QR.mp4</name>
										<rate>
											<timebase>30</timebase>
											<ntsc>FALSE</ntsc>
										</rate>
										<file id="file-336"/>
										<sourcetrack>
											<mediatype>audio</mediatype>
											<trackindex>1</trackindex>
										</sourcetrack>
										<link>
											<linkclipref>clipitem-897</linkclipref>
											<mediatype>video</mediatype>
											<trackindex>1</trackindex>
											<clipindex>1</clipindex>
										</link>
										<link>
											<linkclipref>clipitem-898</linkclipref>
											<mediatype>audio</mediatype>
											<trackindex>1</trackindex>
											<clipindex>1</clipindex>
											<groupindex>1</groupindex>
										</link>
										<link>
											<linkclipref>clipitem-899</linkclipref>
											<mediatype>audio</mediatype>
											<trackindex>2</trackindex>
											<clipindex>1</clipindex>
											<groupindex>1</groupindex>
										</link>
									</clipitem>
								</track>
								<track>
									<clipitem id="clipitem-899">
										<masterclipid>masterclip-364</masterclipid>
										<name>ATM_QR.mp4</name>
										<rate>
											<timebase>30</timebase>
											<ntsc>FALSE</ntsc>
										</rate>
										<file id="file-336"/>
										<sourcetrack>
											<mediatype>audio</mediatype>
											<trackindex>2</trackindex>
										</sourcetrack>
										<link>
											<linkclipref>clipitem-897</linkclipref>
											<mediatype>video</mediatype>
											<trackindex>1</trackindex>
											<clipindex>1</clipindex>
										</link>
										<link>
											<linkclipref>clipitem-898</linkclipref>
											<mediatype>audio</mediatype>
											<trackindex>1</trackindex>
											<clipindex>1</clipindex>
											<groupindex>1</groupindex>
										</link>
										<link>
											<linkclipref>clipitem-899</linkclipref>
											<mediatype>audio</mediatype>
											<trackindex>2</trackindex>
											<clipindex>1</clipindex>
											<groupindex>1</groupindex>
										</link>
									</clipitem>
								</track>
							</audio>
						</media>
						<logginginfo>
							<description></description>
							<scene></scene>
							<shottake></shottake>
							<lognote></lognote>
							<good></good>
							<originalvideofilename></originalvideofilename>
							<originalaudiofilename></originalaudiofilename>
						</logginginfo>
						<colorinfo>
							<lut></lut>
							<lut1></lut1>
							<asc_sop></asc_sop>
							<asc_sat></asc_sat>
							<lut2></lut2>
						</colorinfo>
						<labels>
							<label2>Iris</label2>
						</labels>
					</clip>
					<clip id="masterclip-365" explodedTracks="true">
						<uuid>89e25605-02e0-42ee-9a3d-0c2cd5ff00cc</uuid>
						<masterclipid>masterclip-365</masterclipid>
						<ismasterclip>TRUE</ismasterclip>
						<duration>300</duration>
						<rate>
							<timebase>30</timebase>
							<ntsc>FALSE</ntsc>
						</rate>
						<name>ATM_YouAreWatching.mp4</name>
						<media>
							<video>
								<track>
									<clipitem id="clipitem-900">
										<masterclipid>masterclip-365</masterclipid>
										<name>ATM_YouAreWatching.mp4</name>
										<rate>
											<timebase>30</timebase>
											<ntsc>FALSE</ntsc>
										</rate>
										<alphatype>none</alphatype>
										<pixelaspectratio>square</pixelaspectratio>
										<anamorphic>FALSE</anamorphic>
										<file id="file-337">
											<name>ATM_YouAreWatching.mp4</name>
											<pathurl>file://localhost/Volumes/T7/DRONE_08.18.2023/4_Project%20Files/Drone%202023%20Master%20Assets/02_Transitions/ATM_YouAreWatching.mp4</pathurl>
											<rate>
												<timebase>30</timebase>
												<ntsc>FALSE</ntsc>
											</rate>
											<duration>300</duration>
											<timecode>
												<rate>
													<timebase>30</timebase>
													<ntsc>FALSE</ntsc>
												</rate>
												<string>00:00:00:00</string>
												<frame>0</frame>
												<displayformat>NDF</displayformat>
											</timecode>
											<media>
												<video>
													<samplecharacteristics>
														<rate>
															<timebase>30</timebase>
															<ntsc>FALSE</ntsc>
														</rate>
														<width>1920</width>
														<height>1080</height>
														<anamorphic>FALSE</anamorphic>
														<pixelaspectratio>square</pixelaspectratio>
														<fielddominance>none</fielddominance>
													</samplecharacteristics>
												</video>
												<audio>
													<samplecharacteristics>
														<depth>16</depth>
														<samplerate>48000</samplerate>
													</samplecharacteristics>
													<channelcount>2</channelcount>
												</audio>
											</media>
										</file>
										<link>
											<linkclipref>clipitem-900</linkclipref>
											<mediatype>video</mediatype>
											<trackindex>1</trackindex>
											<clipindex>1</clipindex>
										</link>
										<link>
											<linkclipref>clipitem-901</linkclipref>
											<mediatype>audio</mediatype>
											<trackindex>1</trackindex>
											<clipindex>1</clipindex>
											<groupindex>1</groupindex>
										</link>
										<link>
											<linkclipref>clipitem-902</linkclipref>
											<mediatype>audio</mediatype>
											<trackindex>2</trackindex>
											<clipindex>1</clipindex>
											<groupindex>1</groupindex>
										</link>
									</clipitem>
								</track>
							</video>
							<audio>
								<track>
									<clipitem id="clipitem-901">
										<masterclipid>masterclip-365</masterclipid>
										<name>ATM_YouAreWatching.mp4</name>
										<rate>
											<timebase>30</timebase>
											<ntsc>FALSE</ntsc>
										</rate>
										<file id="file-337"/>
										<sourcetrack>
											<mediatype>audio</mediatype>
											<trackindex>1</trackindex>
										</sourcetrack>
										<link>
											<linkclipref>clipitem-900</linkclipref>
											<mediatype>video</mediatype>
											<trackindex>1</trackindex>
											<clipindex>1</clipindex>
										</link>
										<link>
											<linkclipref>clipitem-901</linkclipref>
											<mediatype>audio</mediatype>
											<trackindex>1</trackindex>
											<clipindex>1</clipindex>
											<groupindex>1</groupindex>
										</link>
										<link>
											<linkclipref>clipitem-902</linkclipref>
											<mediatype>audio</mediatype>
											<trackindex>2</trackindex>
											<clipindex>1</clipindex>
											<groupindex>1</groupindex>
										</link>
									</clipitem>
								</track>
								<track>
									<clipitem id="clipitem-902">
										<masterclipid>masterclip-365</masterclipid>
										<name>ATM_YouAreWatching.mp4</name>
										<rate>
											<timebase>30</timebase>
											<ntsc>FALSE</ntsc>
										</rate>
										<file id="file-337"/>
										<sourcetrack>
											<mediatype>audio</mediatype>
											<trackindex>2</trackindex>
										</sourcetrack>
										<link>
											<linkclipref>clipitem-900</linkclipref>
											<mediatype>video</mediatype>
											<trackindex>1</trackindex>
											<clipindex>1</clipindex>
										</link>
										<link>
											<linkclipref>clipitem-901</linkclipref>
											<mediatype>audio</mediatype>
											<trackindex>1</trackindex>
											<clipindex>1</clipindex>
											<groupindex>1</groupindex>
										</link>
										<link>
											<linkclipref>clipitem-902</linkclipref>
											<mediatype>audio</mediatype>
											<trackindex>2</trackindex>
											<clipindex>1</clipindex>
											<groupindex>1</groupindex>
										</link>
									</clipitem>
								</track>
							</audio>
						</media>
						<logginginfo>
							<description></description>
							<scene></scene>
							<shottake></shottake>
							<lognote></lognote>
							<good></good>
							<originalvideofilename></originalvideofilename>
							<originalaudiofilename></originalaudiofilename>
						</logginginfo>
						<colorinfo>
							<lut></lut>
							<lut1></lut1>
							<asc_sop></asc_sop>
							<asc_sat></asc_sat>
							<lut2></lut2>
						</colorinfo>
						<labels>
							<label2>Iris</label2>
						</labels>
					</clip>
				</children>
			</bin>
			<bin>
				<name>3_Raw Files</name>
				<labels>
					<label2>Mango</label2>
				</labels>
				<children>
					<bin>
						<name>Ireland</name>
						<labels>
							<label2>Mango</label2>
						</labels>
						<children>
							<clip id="masterclip-190" explodedTracks="true">
								<uuid>95006870-934e-4291-87b6-ed1755eab133</uuid>
								<masterclipid>masterclip-190</masterclipid>
								<ismasterclip>TRUE</ismasterclip>
								<duration>564</duration>
								<rate>
									<timebase>25</timebase>
									<ntsc>FALSE</ntsc>
								</rate>
								<name>393470_Town Church Houses Mountains_By_21_Aerials_Artlist_HD.mp4</name>
								<media>
									<video>
										<track>
											<clipitem id="clipitem-903">
												<masterclipid>masterclip-190</masterclipid>
												<name>393470_Town Church Houses Mountains_By_21_Aerials_Artlist_HD.mp4</name>
												<rate>
													<timebase>25</timebase>
													<ntsc>FALSE</ntsc>
												</rate>
												<alphatype>none</alphatype>
												<file id="file-178"/>
											</clipitem>
										</track>
									</video>
								</media>
								<logginginfo>
									<description></description>
									<scene></scene>
									<shottake></shottake>
									<lognote></lognote>
									<good></good>
									<originalvideofilename></originalvideofilename>
									<originalaudiofilename></originalaudiofilename>
								</logginginfo>
								<colorinfo>
									<lut></lut>
									<lut1></lut1>
									<asc_sop></asc_sop>
									<asc_sat></asc_sat>
									<lut2></lut2>
								</colorinfo>
								<labels>
									<label2>Violet</label2>
								</labels>
							</clip>
							<clip id="masterclip-192" explodedTracks="true">
								<uuid>9c25ace2-f799-47b8-81d6-9e3618c6fb88</uuid>
								<masterclipid>masterclip-192</masterclipid>
								<ismasterclip>TRUE</ismasterclip>
								<duration>281</duration>
								<rate>
									<timebase>25</timebase>
									<ntsc>FALSE</ntsc>
								</rate>
								<name>393476_Coastal Town Houses Clouds Mountains_By_21_Aerials_Artlist_HD.mp4</name>
								<media>
									<video>
										<track>
											<clipitem id="clipitem-904">
												<masterclipid>masterclip-192</masterclipid>
												<name>393476_Coastal Town Houses Clouds Mountains_By_21_Aerials_Artlist_HD.mp4</name>
												<rate>
													<timebase>25</timebase>
													<ntsc>FALSE</ntsc>
												</rate>
												<alphatype>none</alphatype>
												<file id="file-180"/>
											</clipitem>
										</track>
									</video>
								</media>
								<logginginfo>
									<description></description>
									<scene></scene>
									<shottake></shottake>
									<lognote></lognote>
									<good></good>
									<originalvideofilename></originalvideofilename>
									<originalaudiofilename></originalaudiofilename>
								</logginginfo>
								<colorinfo>
									<lut></lut>
									<lut1></lut1>
									<asc_sop></asc_sop>
									<asc_sat></asc_sat>
									<lut2></lut2>
								</colorinfo>
								<labels>
									<label2>Violet</label2>
								</labels>
							</clip>
							<clip id="masterclip-366" explodedTracks="true">
								<uuid>d7334e8d-1115-4afb-99b5-c26cf8e25af7</uuid>
								<masterclipid>masterclip-366</masterclipid>
								<ismasterclip>TRUE</ismasterclip>
								<duration>331</duration>
								<rate>
									<timebase>25</timebase>
									<ntsc>FALSE</ntsc>
								</rate>
								<name>393460_Town Houses Roads Cars_By_21_Aerials_Artlist_HD.mp4</name>
								<media>
									<video>
										<track>
											<clipitem id="clipitem-905">
												<masterclipid>masterclip-366</masterclipid>
												<name>393460_Town Houses Roads Cars_By_21_Aerials_Artlist_HD.mp4</name>
												<rate>
													<timebase>25</timebase>
													<ntsc>FALSE</ntsc>
												</rate>
												<alphatype>none</alphatype>
												<pixelaspectratio>square</pixelaspectratio>
												<anamorphic>FALSE</anamorphic>
												<file id="file-338">
													<name>393460_Town Houses Roads Cars_By_21_Aerials_Artlist_HD.mp4</name>
													<pathurl>file://localhost/Volumes/T7/DRONE_08.18.2023/3_Raw%20Files/Ireland/393460_Town%20Houses%20Roads%20Cars_By_21_Aerials_Artlist_HD.mp4</pathurl>
													<rate>
														<timebase>25</timebase>
														<ntsc>FALSE</ntsc>
													</rate>
													<duration>331</duration>
													<timecode>
														<rate>
															<timebase>25</timebase>
															<ntsc>FALSE</ntsc>
														</rate>
														<string>00:00:00:00</string>
														<frame>0</frame>
														<displayformat>NDF</displayformat>
													</timecode>
													<media>
														<video>
															<samplecharacteristics>
																<rate>
																	<timebase>25</timebase>
																	<ntsc>FALSE</ntsc>
																</rate>
																<width>1920</width>
																<height>1080</height>
																<anamorphic>FALSE</anamorphic>
																<pixelaspectratio>square</pixelaspectratio>
																<fielddominance>none</fielddominance>
															</samplecharacteristics>
														</video>
													</media>
												</file>
											</clipitem>
										</track>
									</video>
								</media>
								<logginginfo>
									<description></description>
									<scene></scene>
									<shottake></shottake>
									<lognote></lognote>
									<good></good>
									<originalvideofilename></originalvideofilename>
									<originalaudiofilename></originalaudiofilename>
								</logginginfo>
								<colorinfo>
									<lut></lut>
									<lut1></lut1>
									<asc_sop></asc_sop>
									<asc_sat></asc_sat>
									<lut2></lut2>
								</colorinfo>
								<labels>
									<label2>Violet</label2>
								</labels>
							</clip>
							<clip id="masterclip-188" explodedTracks="true">
								<uuid>71ba732f-770f-42d3-94d9-d585f62fdb4d</uuid>
								<masterclipid>masterclip-188</masterclipid>
								<ismasterclip>TRUE</ismasterclip>
								<duration>414</duration>
								<rate>
									<timebase>25</timebase>
									<ntsc>FALSE</ntsc>
								</rate>
								<name>393462_Town Houses Roads Hills_By_21_Aerials_Artlist_HD.mp4</name>
								<media>
									<video>
										<track>
											<clipitem id="clipitem-906">
												<masterclipid>masterclip-188</masterclipid>
												<name>393462_Town Houses Roads Hills_By_21_Aerials_Artlist_HD.mp4</name>
												<rate>
													<timebase>25</timebase>
													<ntsc>FALSE</ntsc>
												</rate>
												<alphatype>none</alphatype>
												<file id="file-176"/>
											</clipitem>
										</track>
									</video>
								</media>
								<logginginfo>
									<description></description>
									<scene></scene>
									<shottake></shottake>
									<lognote></lognote>
									<good></good>
									<originalvideofilename></originalvideofilename>
									<originalaudiofilename></originalaudiofilename>
								</logginginfo>
								<colorinfo>
									<lut></lut>
									<lut1></lut1>
									<asc_sop></asc_sop>
									<asc_sat></asc_sat>
									<lut2></lut2>
								</colorinfo>
								<labels>
									<label2>Violet</label2>
								</labels>
							</clip>
							<clip id="masterclip-186" explodedTracks="true">
								<uuid>f1b8aae9-75c8-4d71-bc82-4547e319277f</uuid>
								<masterclipid>masterclip-186</masterclipid>
								<ismasterclip>TRUE</ismasterclip>
								<duration>647</duration>
								<rate>
									<timebase>25</timebase>
									<ntsc>FALSE</ntsc>
								</rate>
								<name>393466_Coastal Town Church Houses Clouds_By_21_Aerials_Artlist_HD.mp4</name>
								<media>
									<video>
										<track>
											<clipitem id="clipitem-907">
												<masterclipid>masterclip-186</masterclipid>
												<name>393466_Coastal Town Church Houses Clouds_By_21_Aerials_Artlist_HD.mp4</name>
												<rate>
													<timebase>25</timebase>
													<ntsc>FALSE</ntsc>
												</rate>
												<alphatype>none</alphatype>
												<file id="file-174"/>
											</clipitem>
										</track>
									</video>
								</media>
								<logginginfo>
									<description></description>
									<scene></scene>
									<shottake></shottake>
									<lognote></lognote>
									<good></good>
									<originalvideofilename></originalvideofilename>
									<originalaudiofilename></originalaudiofilename>
								</logginginfo>
								<colorinfo>
									<lut></lut>
									<lut1></lut1>
									<asc_sop></asc_sop>
									<asc_sat></asc_sat>
									<lut2></lut2>
								</colorinfo>
								<labels>
									<label2>Violet</label2>
								</labels>
							</clip>
							<clip id="masterclip-189" explodedTracks="true">
								<uuid>e007c881-8a5b-43e5-93e0-c50fec1835aa</uuid>
								<masterclipid>masterclip-189</masterclipid>
								<ismasterclip>TRUE</ismasterclip>
								<duration>477</duration>
								<rate>
									<timebase>25</timebase>
									<ntsc>FALSE</ntsc>
								</rate>
								<name>393467_Church Coastal Town Houses Roads_By_21_Aerials_Artlist_HD.mp4</name>
								<media>
									<video>
										<track>
											<clipitem id="clipitem-908">
												<masterclipid>masterclip-189</masterclipid>
												<name>393467_Church Coastal Town Houses Roads_By_21_Aerials_Artlist_HD.mp4</name>
												<rate>
													<timebase>25</timebase>
													<ntsc>FALSE</ntsc>
												</rate>
												<alphatype>none</alphatype>
												<file id="file-177"/>
											</clipitem>
										</track>
									</video>
								</media>
								<logginginfo>
									<description></description>
									<scene></scene>
									<shottake></shottake>
									<lognote></lognote>
									<good></good>
									<originalvideofilename></originalvideofilename>
									<originalaudiofilename></originalaudiofilename>
								</logginginfo>
								<colorinfo>
									<lut></lut>
									<lut1></lut1>
									<asc_sop></asc_sop>
									<asc_sat></asc_sat>
									<lut2></lut2>
								</colorinfo>
								<labels>
									<label2>Violet</label2>
								</labels>
							</clip>
							<clip id="masterclip-367" explodedTracks="true">
								<uuid>01d2dfd5-aa7e-45fc-8f35-7e22baf896d9</uuid>
								<masterclipid>masterclip-367</masterclipid>
								<ismasterclip>TRUE</ismasterclip>
								<duration>539</duration>
								<rate>
									<timebase>25</timebase>
									<ntsc>FALSE</ntsc>
								</rate>
								<name>393468_Coastal Town Church Houses Mountains_By_21_Aerials_Artlist_HD.mp4</name>
								<media>
									<video>
										<track>
											<clipitem id="clipitem-909">
												<masterclipid>masterclip-367</masterclipid>
												<name>393468_Coastal Town Church Houses Mountains_By_21_Aerials_Artlist_HD.mp4</name>
												<rate>
													<timebase>25</timebase>
													<ntsc>FALSE</ntsc>
												</rate>
												<alphatype>none</alphatype>
												<pixelaspectratio>square</pixelaspectratio>
												<anamorphic>FALSE</anamorphic>
												<file id="file-339">
													<name>393468_Coastal Town Church Houses Mountains_By_21_Aerials_Artlist_HD.mp4</name>
													<pathurl>file://localhost/Volumes/T7/DRONE_08.18.2023/3_Raw%20Files/Ireland/393468_Coastal%20Town%20Church%20Houses%20Mountains_By_21_Aerials_Artlist_HD.mp4</pathurl>
													<rate>
														<timebase>25</timebase>
														<ntsc>FALSE</ntsc>
													</rate>
													<duration>539</duration>
													<timecode>
														<rate>
															<timebase>25</timebase>
															<ntsc>FALSE</ntsc>
														</rate>
														<string>00:00:00:00</string>
														<frame>0</frame>
														<displayformat>NDF</displayformat>
													</timecode>
													<media>
														<video>
															<samplecharacteristics>
																<rate>
																	<timebase>25</timebase>
																	<ntsc>FALSE</ntsc>
																</rate>
																<width>1920</width>
																<height>1080</height>
																<anamorphic>FALSE</anamorphic>
																<pixelaspectratio>square</pixelaspectratio>
																<fielddominance>none</fielddominance>
															</samplecharacteristics>
														</video>
													</media>
												</file>
											</clipitem>
										</track>
									</video>
								</media>
								<logginginfo>
									<description></description>
									<scene></scene>
									<shottake></shottake>
									<lognote></lognote>
									<good></good>
									<originalvideofilename></originalvideofilename>
									<originalaudiofilename></originalaudiofilename>
								</logginginfo>
								<colorinfo>
									<lut></lut>
									<lut1></lut1>
									<asc_sop></asc_sop>
									<asc_sat></asc_sat>
									<lut2></lut2>
								</colorinfo>
								<labels>
									<label2>Violet</label2>
								</labels>
							</clip>
							<clip id="masterclip-187" explodedTracks="true">
								<uuid>2434e084-9517-4a37-a51a-daef1e0475f5</uuid>
								<masterclipid>masterclip-187</masterclipid>
								<ismasterclip>TRUE</ismasterclip>
								<duration>485</duration>
								<rate>
									<timebase>25</timebase>
									<ntsc>FALSE</ntsc>
								</rate>
								<name>393472_Coastal Town Roads Church Clouds_By_21_Aerials_Artlist_HD.mp4</name>
								<media>
									<video>
										<track>
											<clipitem id="clipitem-910">
												<masterclipid>masterclip-187</masterclipid>
												<name>393472_Coastal Town Roads Church Clouds_By_21_Aerials_Artlist_HD.mp4</name>
												<rate>
													<timebase>25</timebase>
													<ntsc>FALSE</ntsc>
												</rate>
												<alphatype>none</alphatype>
												<file id="file-175"/>
											</clipitem>
										</track>
									</video>
								</media>
								<logginginfo>
									<description></description>
									<scene></scene>
									<shottake></shottake>
									<lognote></lognote>
									<good></good>
									<originalvideofilename></originalvideofilename>
									<originalaudiofilename></originalaudiofilename>
								</logginginfo>
								<colorinfo>
									<lut></lut>
									<lut1></lut1>
									<asc_sop></asc_sop>
									<asc_sat></asc_sat>
									<lut2></lut2>
								</colorinfo>
								<labels>
									<label2>Violet</label2>
								</labels>
							</clip>
							<clip id="masterclip-191" explodedTracks="true">
								<uuid>38e57b4d-c3ee-4f3e-83c8-e3aa50882caa</uuid>
								<masterclipid>masterclip-191</masterclipid>
								<ismasterclip>TRUE</ismasterclip>
								<duration>654</duration>
								<rate>
									<timebase>25</timebase>
									<ntsc>FALSE</ntsc>
								</rate>
								<name>393485_Coastal Town Roundabout Cars Houses_By_21_Aerials_Artlist_HD.mp4</name>
								<media>
									<video>
										<track>
											<clipitem id="clipitem-911">
												<masterclipid>masterclip-191</masterclipid>
												<name>393485_Coastal Town Roundabout Cars Houses_By_21_Aerials_Artlist_HD.mp4</name>
												<rate>
													<timebase>25</timebase>
													<ntsc>FALSE</ntsc>
												</rate>
												<alphatype>none</alphatype>
												<file id="file-179"/>
											</clipitem>
										</track>
									</video>
								</media>
								<logginginfo>
									<description></description>
									<scene></scene>
									<shottake></shottake>
									<lognote></lognote>
									<good></good>
									<originalvideofilename></originalvideofilename>
									<originalaudiofilename></originalaudiofilename>
								</logginginfo>
								<colorinfo>
									<lut></lut>
									<lut1></lut1>
									<asc_sop></asc_sop>
									<asc_sat></asc_sat>
									<lut2></lut2>
								</colorinfo>
								<labels>
									<label2>Violet</label2>
								</labels>
							</clip>
							<clip id="masterclip-368" explodedTracks="true">
								<uuid>c3f61554-cfad-4918-8eac-5157e9dd8b89</uuid>
								<masterclipid>masterclip-368</masterclipid>
								<ismasterclip>TRUE</ismasterclip>
								<duration>334</duration>
								<rate>
									<timebase>25</timebase>
									<ntsc>FALSE</ntsc>
								</rate>
								<name>393486_Town Roads Houses Cars_By_21_Aerials_Artlist_HD.mp4</name>
								<media>
									<video>
										<track>
											<clipitem id="clipitem-912">
												<masterclipid>masterclip-368</masterclipid>
												<name>393486_Town Roads Houses Cars_By_21_Aerials_Artlist_HD.mp4</name>
												<rate>
													<timebase>25</timebase>
													<ntsc>FALSE</ntsc>
												</rate>
												<alphatype>none</alphatype>
												<pixelaspectratio>square</pixelaspectratio>
												<anamorphic>FALSE</anamorphic>
												<file id="file-340">
													<name>393486_Town Roads Houses Cars_By_21_Aerials_Artlist_HD.mp4</name>
													<pathurl>file://localhost/Volumes/T7/DRONE_08.18.2023/3_Raw%20Files/Ireland/393486_Town%20Roads%20Houses%20Cars_By_21_Aerials_Artlist_HD.mp4</pathurl>
													<rate>
														<timebase>25</timebase>
														<ntsc>FALSE</ntsc>
													</rate>
													<duration>334</duration>
													<timecode>
														<rate>
															<timebase>25</timebase>
															<ntsc>FALSE</ntsc>
														</rate>
														<string>00:00:00:00</string>
														<frame>0</frame>
														<displayformat>NDF</displayformat>
													</timecode>
													<media>
														<video>
															<samplecharacteristics>
																<rate>
																	<timebase>25</timebase>
																	<ntsc>FALSE</ntsc>
																</rate>
																<width>1920</width>
																<height>1080</height>
																<anamorphic>FALSE</anamorphic>
																<pixelaspectratio>square</pixelaspectratio>
																<fielddominance>none</fielddominance>
															</samplecharacteristics>
														</video>
													</media>
												</file>
											</clipitem>
										</track>
									</video>
								</media>
								<logginginfo>
									<description></description>
									<scene></scene>
									<shottake></shottake>
									<lognote></lognote>
									<good></good>
									<originalvideofilename></originalvideofilename>
									<originalaudiofilename></originalaudiofilename>
								</logginginfo>
								<colorinfo>
									<lut></lut>
									<lut1></lut1>
									<asc_sop></asc_sop>
									<asc_sat></asc_sat>
									<lut2></lut2>
								</colorinfo>
								<labels>
									<label2>Violet</label2>
								</labels>
							</clip>
							<clip id="masterclip-369" explodedTracks="true">
								<uuid>9b8db9b9-3a64-4481-b49b-b62195527a54</uuid>
								<masterclipid>masterclip-369</masterclipid>
								<ismasterclip>TRUE</ismasterclip>
								<duration>561</duration>
								<rate>
									<timebase>25</timebase>
									<ntsc>FALSE</ntsc>
								</rate>
								<name>393491_Coastal Town Houses Roads Evening_By_21_Aerials_Artlist_HD.mp4</name>
								<media>
									<video>
										<track>
											<clipitem id="clipitem-913">
												<masterclipid>masterclip-369</masterclipid>
												<name>393491_Coastal Town Houses Roads Evening_By_21_Aerials_Artlist_HD.mp4</name>
												<rate>
													<timebase>25</timebase>
													<ntsc>FALSE</ntsc>
												</rate>
												<alphatype>none</alphatype>
												<pixelaspectratio>square</pixelaspectratio>
												<anamorphic>FALSE</anamorphic>
												<file id="file-341">
													<name>393491_Coastal Town Houses Roads Evening_By_21_Aerials_Artlist_HD.mp4</name>
													<pathurl>file://localhost/Volumes/T7/DRONE_08.18.2023/3_Raw%20Files/Ireland/393491_Coastal%20Town%20Houses%20Roads%20Evening_By_21_Aerials_Artlist_HD.mp4</pathurl>
													<rate>
														<timebase>25</timebase>
														<ntsc>FALSE</ntsc>
													</rate>
													<duration>561</duration>
													<timecode>
														<rate>
															<timebase>25</timebase>
															<ntsc>FALSE</ntsc>
														</rate>
														<string>00:00:00:00</string>
														<frame>0</frame>
														<displayformat>NDF</displayformat>
													</timecode>
													<media>
														<video>
															<samplecharacteristics>
																<rate>
																	<timebase>25</timebase>
																	<ntsc>FALSE</ntsc>
																</rate>
																<width>1920</width>
																<height>1080</height>
																<anamorphic>FALSE</anamorphic>
																<pixelaspectratio>square</pixelaspectratio>
																<fielddominance>none</fielddominance>
															</samplecharacteristics>
														</video>
													</media>
												</file>
											</clipitem>
										</track>
									</video>
								</media>
								<logginginfo>
									<description></description>
									<scene></scene>
									<shottake></shottake>
									<lognote></lognote>
									<good></good>
									<originalvideofilename></originalvideofilename>
									<originalaudiofilename></originalaudiofilename>
								</logginginfo>
								<colorinfo>
									<lut></lut>
									<lut1></lut1>
									<asc_sop></asc_sop>
									<asc_sat></asc_sat>
									<lut2></lut2>
								</colorinfo>
								<labels>
									<label2>Violet</label2>
								</labels>
							</clip>
						</children>
					</bin>
					<bin>
						<name>Tajikistan</name>
						<labels>
							<label2>Mango</label2>
						</labels>
						<children>
							<clip id="masterclip-143" explodedTracks="true">
								<uuid>e303897c-5a40-4c8a-8231-87c8f90f182d</uuid>
								<masterclipid>masterclip-143</masterclipid>
								<ismasterclip>TRUE</ismasterclip>
								<duration>806</duration>
								<rate>
									<timebase>25</timebase>
									<ntsc>FALSE</ntsc>
								</rate>
								<name>640268_Desert Tajikistan Drone Sand_By_Timelab_Pro_Artlist_HD.mp4</name>
								<media>
									<video>
										<track>
											<clipitem id="clipitem-914">
												<masterclipid>masterclip-143</masterclipid>
												<name>640268_Desert Tajikistan Drone Sand_By_Timelab_Pro_Artlist_HD.mp4</name>
												<rate>
													<timebase>25</timebase>
													<ntsc>FALSE</ntsc>
												</rate>
												<alphatype>none</alphatype>
												<file id="file-142"/>
											</clipitem>
										</track>
									</video>
								</media>
								<logginginfo>
									<description></description>
									<scene></scene>
									<shottake></shottake>
									<lognote></lognote>
									<good></good>
									<originalvideofilename></originalvideofilename>
									<originalaudiofilename></originalaudiofilename>
								</logginginfo>
								<colorinfo>
									<lut></lut>
									<lut1></lut1>
									<asc_sop></asc_sop>
									<asc_sat></asc_sat>
									<lut2></lut2>
								</colorinfo>
								<labels>
									<label2>Violet</label2>
								</labels>
							</clip>
							<clip id="masterclip-370" explodedTracks="true">
								<uuid>1bb105dc-17a7-4ad2-875f-39c4a675d2fa</uuid>
								<masterclipid>masterclip-370</masterclipid>
								<ismasterclip>TRUE</ismasterclip>
								<duration>390</duration>
								<rate>
									<timebase>25</timebase>
									<ntsc>FALSE</ntsc>
								</rate>
								<name>640272_Desert Tajikistan Drone Sand_By_Timelab_Pro_Artlist_HD.mp4</name>
								<media>
									<video>
										<track>
											<clipitem id="clipitem-915">
												<masterclipid>masterclip-370</masterclipid>
												<name>640272_Desert Tajikistan Drone Sand_By_Timelab_Pro_Artlist_HD.mp4</name>
												<rate>
													<timebase>25</timebase>
													<ntsc>FALSE</ntsc>
												</rate>
												<alphatype>none</alphatype>
												<pixelaspectratio>PAL-601</pixelaspectratio>
												<anamorphic>FALSE</anamorphic>
												<file id="file-342">
													<name>640272_Desert Tajikistan Drone Sand_By_Timelab_Pro_Artlist_HD.mp4</name>
													<pathurl>file://localhost/Volumes/T7/DRONE_08.18.2023/3_Raw%20Files/Tajikistan/640272_Desert%20Tajikistan%20Drone%20Sand_By_Timelab_Pro_Artlist_HD.mp4</pathurl>
													<rate>
														<timebase>25</timebase>
														<ntsc>FALSE</ntsc>
													</rate>
													<duration>390</duration>
													<timecode>
														<rate>
															<timebase>25</timebase>
															<ntsc>FALSE</ntsc>
														</rate>
														<string>00:00:03:02</string>
														<frame>77</frame>
														<displayformat>NDF</displayformat>
													</timecode>
													<media>
														<video>
															<samplecharacteristics>
																<rate>
																	<timebase>25</timebase>
																	<ntsc>FALSE</ntsc>
																</rate>
																<width>1920</width>
																<height>1080</height>
																<anamorphic>FALSE</anamorphic>
																<pixelaspectratio>PAL-601</pixelaspectratio>
																<fielddominance>none</fielddominance>
															</samplecharacteristics>
														</video>
													</media>
												</file>
											</clipitem>
										</track>
									</video>
								</media>
								<logginginfo>
									<description></description>
									<scene></scene>
									<shottake></shottake>
									<lognote></lognote>
									<good></good>
									<originalvideofilename></originalvideofilename>
									<originalaudiofilename></originalaudiofilename>
								</logginginfo>
								<colorinfo>
									<lut></lut>
									<lut1></lut1>
									<asc_sop></asc_sop>
									<asc_sat></asc_sat>
									<lut2></lut2>
								</colorinfo>
								<labels>
									<label2>Violet</label2>
								</labels>
							</clip>
							<clip id="masterclip-142" explodedTracks="true">
								<uuid>4dc46eee-f1c1-4e0c-aef6-2f66574d4625</uuid>
								<masterclipid>masterclip-142</masterclipid>
								<ismasterclip>TRUE</ismasterclip>
								<duration>584</duration>
								<rate>
									<timebase>25</timebase>
									<ntsc>FALSE</ntsc>
								</rate>
								<name>640249_Car Driving Desert Tajikistan_By_Timelab_Pro_Artlist_HD.mp4</name>
								<media>
									<video>
										<track>
											<clipitem id="clipitem-916">
												<masterclipid>masterclip-142</masterclipid>
												<name>640249_Car Driving Desert Tajikistan_By_Timelab_Pro_Artlist_HD.mp4</name>
												<rate>
													<timebase>25</timebase>
													<ntsc>FALSE</ntsc>
												</rate>
												<alphatype>none</alphatype>
												<file id="file-141"/>
											</clipitem>
										</track>
									</video>
								</media>
								<logginginfo>
									<description></description>
									<scene></scene>
									<shottake></shottake>
									<lognote></lognote>
									<good></good>
									<originalvideofilename></originalvideofilename>
									<originalaudiofilename></originalaudiofilename>
								</logginginfo>
								<colorinfo>
									<lut></lut>
									<lut1></lut1>
									<asc_sop></asc_sop>
									<asc_sat></asc_sat>
									<lut2></lut2>
								</colorinfo>
								<labels>
									<label2>Violet</label2>
								</labels>
							</clip>
							<clip id="masterclip-141" explodedTracks="true">
								<uuid>bf531e4d-909a-4bf2-8a6b-7663204b54b5</uuid>
								<masterclipid>masterclip-141</masterclipid>
								<ismasterclip>TRUE</ismasterclip>
								<duration>350</duration>
								<rate>
									<timebase>25</timebase>
									<ntsc>FALSE</ntsc>
								</rate>
								<name>640251_Car Driving Desert Tajikistan_By_Timelab_Pro_Artlist_HD.mp4</name>
								<media>
									<video>
										<track>
											<clipitem id="clipitem-917">
												<masterclipid>masterclip-141</masterclipid>
												<name>640251_Car Driving Desert Tajikistan_By_Timelab_Pro_Artlist_HD.mp4</name>
												<rate>
													<timebase>25</timebase>
													<ntsc>FALSE</ntsc>
												</rate>
												<alphatype>none</alphatype>
												<file id="file-140"/>
											</clipitem>
										</track>
									</video>
								</media>
								<logginginfo>
									<description></description>
									<scene></scene>
									<shottake></shottake>
									<lognote></lognote>
									<good></good>
									<originalvideofilename></originalvideofilename>
									<originalaudiofilename></originalaudiofilename>
								</logginginfo>
								<colorinfo>
									<lut></lut>
									<lut1></lut1>
									<asc_sop></asc_sop>
									<asc_sat></asc_sat>
									<lut2></lut2>
								</colorinfo>
								<labels>
									<label2>Violet</label2>
								</labels>
							</clip>
							<clip id="masterclip-139" explodedTracks="true">
								<uuid>6c8c24fe-d245-4063-8fc7-01ce550433f7</uuid>
								<masterclipid>masterclip-139</masterclipid>
								<ismasterclip>TRUE</ismasterclip>
								<duration>1214</duration>
								<rate>
									<timebase>25</timebase>
									<ntsc>FALSE</ntsc>
								</rate>
								<name>640254_Car Driving Tajikistan Drone_By_Timelab_Pro_Artlist_HD.mp4</name>
								<media>
									<video>
										<track>
											<clipitem id="clipitem-918">
												<masterclipid>masterclip-139</masterclipid>
												<name>640254_Car Driving Tajikistan Drone_By_Timelab_Pro_Artlist_HD.mp4</name>
												<rate>
													<timebase>25</timebase>
													<ntsc>FALSE</ntsc>
												</rate>
												<alphatype>none</alphatype>
												<file id="file-138"/>
											</clipitem>
										</track>
									</video>
								</media>
								<logginginfo>
									<description></description>
									<scene></scene>
									<shottake></shottake>
									<lognote></lognote>
									<good></good>
									<originalvideofilename></originalvideofilename>
									<originalaudiofilename></originalaudiofilename>
								</logginginfo>
								<colorinfo>
									<lut></lut>
									<lut1></lut1>
									<asc_sop></asc_sop>
									<asc_sat></asc_sat>
									<lut2></lut2>
								</colorinfo>
								<labels>
									<label2>Violet</label2>
								</labels>
							</clip>
							<clip id="masterclip-136" explodedTracks="true">
								<uuid>0e1cfedd-4c1d-4e35-aea4-296fa8d117cf</uuid>
								<masterclipid>masterclip-136</masterclipid>
								<ismasterclip>TRUE</ismasterclip>
								<duration>589</duration>
								<rate>
									<timebase>25</timebase>
									<ntsc>FALSE</ntsc>
								</rate>
								<name>640260_Tajikistan Drone Sand Mountains_By_Timelab_Pro_Artlist_HD.mp4</name>
								<media>
									<video>
										<track>
											<clipitem id="clipitem-919">
												<masterclipid>masterclip-136</masterclipid>
												<name>640260_Tajikistan Drone Sand Mountains_By_Timelab_Pro_Artlist_HD.mp4</name>
												<rate>
													<timebase>25</timebase>
													<ntsc>FALSE</ntsc>
												</rate>
												<alphatype>none</alphatype>
												<file id="file-135"/>
											</clipitem>
										</track>
									</video>
								</media>
								<logginginfo>
									<description></description>
									<scene></scene>
									<shottake></shottake>
									<lognote></lognote>
									<good></good>
									<originalvideofilename></originalvideofilename>
									<originalaudiofilename></originalaudiofilename>
								</logginginfo>
								<colorinfo>
									<lut></lut>
									<lut1></lut1>
									<asc_sop></asc_sop>
									<asc_sat></asc_sat>
									<lut2></lut2>
								</colorinfo>
								<labels>
									<label2>Violet</label2>
								</labels>
							</clip>
							<clip id="masterclip-137" explodedTracks="true">
								<uuid>2d3c2a64-2179-4a66-bd0d-1ce17fea0d14</uuid>
								<masterclipid>masterclip-137</masterclipid>
								<ismasterclip>TRUE</ismasterclip>
								<duration>324</duration>
								<rate>
									<timebase>25</timebase>
									<ntsc>FALSE</ntsc>
								</rate>
								<name>640263_Tajikistan Drone Sand Mountains_By_Timelab_Pro_Artlist_HD.mp4</name>
								<media>
									<video>
										<track>
											<clipitem id="clipitem-920">
												<masterclipid>masterclip-137</masterclipid>
												<name>640263_Tajikistan Drone Sand Mountains_By_Timelab_Pro_Artlist_HD.mp4</name>
												<rate>
													<timebase>25</timebase>
													<ntsc>FALSE</ntsc>
												</rate>
												<alphatype>none</alphatype>
												<file id="file-136"/>
											</clipitem>
										</track>
									</video>
								</media>
								<logginginfo>
									<description></description>
									<scene></scene>
									<shottake></shottake>
									<lognote></lognote>
									<good></good>
									<originalvideofilename></originalvideofilename>
									<originalaudiofilename></originalaudiofilename>
								</logginginfo>
								<colorinfo>
									<lut></lut>
									<lut1></lut1>
									<asc_sop></asc_sop>
									<asc_sat></asc_sat>
									<lut2></lut2>
								</colorinfo>
								<labels>
									<label2>Violet</label2>
								</labels>
							</clip>
							<clip id="masterclip-132" explodedTracks="true">
								<uuid>36e3d5d4-7ab3-4678-a22a-f539b6a6ea2d</uuid>
								<masterclipid>masterclip-132</masterclipid>
								<ismasterclip>TRUE</ismasterclip>
								<duration>874</duration>
								<rate>
									<timebase>25</timebase>
									<ntsc>FALSE</ntsc>
								</rate>
								<name>640266_Tajikistan Drone Sand Mountains_By_Timelab_Pro_Artlist_HD.mp4</name>
								<media>
									<video>
										<track>
											<clipitem id="clipitem-921">
												<masterclipid>masterclip-132</masterclipid>
												<name>640266_Tajikistan Drone Sand Mountains_By_Timelab_Pro_Artlist_HD.mp4</name>
												<rate>
													<timebase>25</timebase>
													<ntsc>FALSE</ntsc>
												</rate>
												<alphatype>none</alphatype>
												<file id="file-131"/>
											</clipitem>
										</track>
									</video>
								</media>
								<logginginfo>
									<description></description>
									<scene></scene>
									<shottake></shottake>
									<lognote></lognote>
									<good></good>
									<originalvideofilename></originalvideofilename>
									<originalaudiofilename></originalaudiofilename>
								</logginginfo>
								<colorinfo>
									<lut></lut>
									<lut1></lut1>
									<asc_sop></asc_sop>
									<asc_sat></asc_sat>
									<lut2></lut2>
								</colorinfo>
								<labels>
									<label2>Violet</label2>
								</labels>
							</clip>
							<clip id="masterclip-138" explodedTracks="true">
								<uuid>08277f10-7b07-4165-8e16-0607d81da94c</uuid>
								<masterclipid>masterclip-138</masterclipid>
								<ismasterclip>TRUE</ismasterclip>
								<duration>440</duration>
								<rate>
									<timebase>25</timebase>
									<ntsc>FALSE</ntsc>
								</rate>
								<name>640267_Car Driving Desert Tajikistan_By_Timelab_Pro_Artlist_HD.mp4</name>
								<media>
									<video>
										<track>
											<clipitem id="clipitem-922">
												<masterclipid>masterclip-138</masterclipid>
												<name>640267_Car Driving Desert Tajikistan_By_Timelab_Pro_Artlist_HD.mp4</name>
												<rate>
													<timebase>25</timebase>
													<ntsc>FALSE</ntsc>
												</rate>
												<alphatype>none</alphatype>
												<file id="file-137"/>
											</clipitem>
										</track>
									</video>
								</media>
								<logginginfo>
									<description></description>
									<scene></scene>
									<shottake></shottake>
									<lognote></lognote>
									<good></good>
									<originalvideofilename></originalvideofilename>
									<originalaudiofilename></originalaudiofilename>
								</logginginfo>
								<colorinfo>
									<lut></lut>
									<lut1></lut1>
									<asc_sop></asc_sop>
									<asc_sat></asc_sat>
									<lut2></lut2>
								</colorinfo>
								<labels>
									<label2>Violet</label2>
								</labels>
							</clip>
							<clip id="masterclip-140" explodedTracks="true">
								<uuid>2576677d-33fb-45b4-b345-b3345c360ff2</uuid>
								<masterclipid>masterclip-140</masterclipid>
								<ismasterclip>TRUE</ismasterclip>
								<duration>1132</duration>
								<rate>
									<timebase>25</timebase>
									<ntsc>FALSE</ntsc>
								</rate>
								<name>640269_Desert Tajikistan Drone Sand_By_Timelab_Pro_Artlist_HD.mp4</name>
								<media>
									<video>
										<track>
											<clipitem id="clipitem-923">
												<masterclipid>masterclip-140</masterclipid>
												<name>640269_Desert Tajikistan Drone Sand_By_Timelab_Pro_Artlist_HD.mp4</name>
												<rate>
													<timebase>25</timebase>
													<ntsc>FALSE</ntsc>
												</rate>
												<alphatype>none</alphatype>
												<file id="file-139"/>
											</clipitem>
										</track>
									</video>
								</media>
								<logginginfo>
									<description></description>
									<scene></scene>
									<shottake></shottake>
									<lognote></lognote>
									<good></good>
									<originalvideofilename></originalvideofilename>
									<originalaudiofilename></originalaudiofilename>
								</logginginfo>
								<colorinfo>
									<lut></lut>
									<lut1></lut1>
									<asc_sop></asc_sop>
									<asc_sat></asc_sat>
									<lut2></lut2>
								</colorinfo>
								<labels>
									<label2>Violet</label2>
								</labels>
							</clip>
							<clip id="masterclip-134" explodedTracks="true">
								<uuid>81aa32a2-ab6d-4d56-bbca-2f43a27cc7ac</uuid>
								<masterclipid>masterclip-134</masterclipid>
								<ismasterclip>TRUE</ismasterclip>
								<duration>710</duration>
								<rate>
									<timebase>25</timebase>
									<ntsc>FALSE</ntsc>
								</rate>
								<name>640281_Car Driving Tajikistan Drone_By_Timelab_Pro_Artlist_HD.mp4</name>
								<media>
									<video>
										<track>
											<clipitem id="clipitem-924">
												<masterclipid>masterclip-134</masterclipid>
												<name>640281_Car Driving Tajikistan Drone_By_Timelab_Pro_Artlist_HD.mp4</name>
												<rate>
													<timebase>25</timebase>
													<ntsc>FALSE</ntsc>
												</rate>
												<alphatype>none</alphatype>
												<file id="file-133"/>
											</clipitem>
										</track>
									</video>
								</media>
								<logginginfo>
									<description></description>
									<scene></scene>
									<shottake></shottake>
									<lognote></lognote>
									<good></good>
									<originalvideofilename></originalvideofilename>
									<originalaudiofilename></originalaudiofilename>
								</logginginfo>
								<colorinfo>
									<lut></lut>
									<lut1></lut1>
									<asc_sop></asc_sop>
									<asc_sat></asc_sat>
									<lut2></lut2>
								</colorinfo>
								<labels>
									<label2>Violet</label2>
								</labels>
							</clip>
							<clip id="masterclip-135" explodedTracks="true">
								<uuid>2b8583ef-a125-4a0b-8718-56dfb4db4d73</uuid>
								<masterclipid>masterclip-135</masterclipid>
								<ismasterclip>TRUE</ismasterclip>
								<duration>1086</duration>
								<rate>
									<timebase>25</timebase>
									<ntsc>FALSE</ntsc>
								</rate>
								<name>640283_Car Driving Tajikistan Drone_By_Timelab_Pro_Artlist_HD.mp4</name>
								<media>
									<video>
										<track>
											<clipitem id="clipitem-925">
												<masterclipid>masterclip-135</masterclipid>
												<name>640283_Car Driving Tajikistan Drone_By_Timelab_Pro_Artlist_HD.mp4</name>
												<rate>
													<timebase>25</timebase>
													<ntsc>FALSE</ntsc>
												</rate>
												<alphatype>none</alphatype>
												<file id="file-134"/>
											</clipitem>
										</track>
									</video>
								</media>
								<logginginfo>
									<description></description>
									<scene></scene>
									<shottake></shottake>
									<lognote></lognote>
									<good></good>
									<originalvideofilename></originalvideofilename>
									<originalaudiofilename></originalaudiofilename>
								</logginginfo>
								<colorinfo>
									<lut></lut>
									<lut1></lut1>
									<asc_sop></asc_sop>
									<asc_sat></asc_sat>
									<lut2></lut2>
								</colorinfo>
								<labels>
									<label2>Violet</label2>
								</labels>
							</clip>
							<clip id="masterclip-133" explodedTracks="true">
								<uuid>28d221ac-d745-4c05-94ac-96b77ae8e1e1</uuid>
								<masterclipid>masterclip-133</masterclipid>
								<ismasterclip>TRUE</ismasterclip>
								<duration>622</duration>
								<rate>
									<timebase>25</timebase>
									<ntsc>FALSE</ntsc>
								</rate>
								<name>640286_Car Driving Tajikistan Drone_By_Timelab_Pro_Artlist_HD.mp4</name>
								<media>
									<video>
										<track>
											<clipitem id="clipitem-926">
												<masterclipid>masterclip-133</masterclipid>
												<name>640286_Car Driving Tajikistan Drone_By_Timelab_Pro_Artlist_HD.mp4</name>
												<rate>
													<timebase>25</timebase>
													<ntsc>FALSE</ntsc>
												</rate>
												<alphatype>none</alphatype>
												<file id="file-132"/>
											</clipitem>
										</track>
									</video>
								</media>
								<logginginfo>
									<description></description>
									<scene></scene>
									<shottake></shottake>
									<lognote></lognote>
									<good></good>
									<originalvideofilename></originalvideofilename>
									<originalaudiofilename></originalaudiofilename>
								</logginginfo>
								<colorinfo>
									<lut></lut>
									<lut1></lut1>
									<asc_sop></asc_sop>
									<asc_sat></asc_sat>
									<lut2></lut2>
								</colorinfo>
								<labels>
									<label2>Violet</label2>
								</labels>
							</clip>
						</children>
					</bin>
					<bin>
						<name>Dunebashing</name>
						<labels>
							<label2>Mango</label2>
						</labels>
						<children>
							<clip id="masterclip-214" explodedTracks="true">
								<uuid>7db7e8bf-4237-49f7-afac-9bd1d8195a65</uuid>
								<masterclipid>masterclip-214</masterclipid>
								<ismasterclip>TRUE</ismasterclip>
								<duration>712</duration>
								<rate>
									<timebase>59</timebase>
									<ntsc>FALSE</ntsc>
								</rate>
								<name>a-birds-eye-view-from-a-drone-of-car-drifting-among-the-sand-dunes-off-road-driving-SBV-347562128-HD.mp4</name>
								<media>
									<video>
										<track>
											<clipitem id="clipitem-927">
												<masterclipid>masterclip-214</masterclipid>
												<name>a-birds-eye-view-from-a-drone-of-car-drifting-among-the-sand-dunes-off-road-driving-SBV-347562128-HD.mp4</name>
												<rate>
													<timebase>59</timebase>
													<ntsc>FALSE</ntsc>
												</rate>
												<alphatype>none</alphatype>
												<file id="file-198"/>
											</clipitem>
										</track>
									</video>
								</media>
								<logginginfo>
									<description></description>
									<scene></scene>
									<shottake></shottake>
									<lognote></lognote>
									<good></good>
									<originalvideofilename></originalvideofilename>
									<originalaudiofilename></originalaudiofilename>
								</logginginfo>
								<colorinfo>
									<lut></lut>
									<lut1></lut1>
									<asc_sop></asc_sop>
									<asc_sat></asc_sat>
									<lut2></lut2>
								</colorinfo>
								<labels>
									<label2>Violet</label2>
								</labels>
							</clip>
							<clip id="masterclip-212" explodedTracks="true">
								<uuid>5cb67bf8-e88a-4914-b177-46e1de3c2242</uuid>
								<masterclipid>masterclip-212</masterclipid>
								<ismasterclip>TRUE</ismasterclip>
								<duration>399</duration>
								<rate>
									<timebase>59</timebase>
									<ntsc>FALSE</ntsc>
								</rate>
								<name>a-birds-eye-view-from-a-drone-of-cars-drifting-among-the-sand-dunes-off-road-drivin-SBV-347562086-HD.mp4</name>
								<media>
									<video>
										<track>
											<clipitem id="clipitem-928">
												<masterclipid>masterclip-212</masterclipid>
												<name>a-birds-eye-view-from-a-drone-of-cars-drifting-among-the-sand-dunes-off-road-drivin-SBV-347562086-HD.mp4</name>
												<rate>
													<timebase>59</timebase>
													<ntsc>FALSE</ntsc>
												</rate>
												<alphatype>none</alphatype>
												<file id="file-196"/>
											</clipitem>
										</track>
									</video>
								</media>
								<logginginfo>
									<description></description>
									<scene></scene>
									<shottake></shottake>
									<lognote></lognote>
									<good></good>
									<originalvideofilename></originalvideofilename>
									<originalaudiofilename></originalaudiofilename>
								</logginginfo>
								<colorinfo>
									<lut></lut>
									<lut1></lut1>
									<asc_sop></asc_sop>
									<asc_sat></asc_sat>
									<lut2></lut2>
								</colorinfo>
								<labels>
									<label2>Violet</label2>
								</labels>
							</clip>
							<clip id="masterclip-207" explodedTracks="true">
								<uuid>e858af35-7144-4e43-8de5-1e30a9fd1145</uuid>
								<masterclipid>masterclip-207</masterclipid>
								<ismasterclip>TRUE</ismasterclip>
								<duration>1019</duration>
								<rate>
									<timebase>59</timebase>
									<ntsc>FALSE</ntsc>
								</rate>
								<name>a-birds-eye-view-from-a-drone-of-sand-dunes-with-traces-of-cars-engaged-in-off-road-SBV-347562051-HD.mp4</name>
								<media>
									<video>
										<track>
											<clipitem id="clipitem-929">
												<masterclipid>masterclip-207</masterclipid>
												<name>a-birds-eye-view-from-a-drone-of-sand-dunes-with-traces-of-cars-engaged-in-off-road-SBV-347562051-HD.mp4</name>
												<rate>
													<timebase>59</timebase>
													<ntsc>FALSE</ntsc>
												</rate>
												<alphatype>none</alphatype>
												<file id="file-191"/>
											</clipitem>
										</track>
									</video>
								</media>
								<logginginfo>
									<description></description>
									<scene></scene>
									<shottake></shottake>
									<lognote></lognote>
									<good></good>
									<originalvideofilename></originalvideofilename>
									<originalaudiofilename></originalaudiofilename>
								</logginginfo>
								<colorinfo>
									<lut></lut>
									<lut1></lut1>
									<asc_sop></asc_sop>
									<asc_sat></asc_sat>
									<lut2></lut2>
								</colorinfo>
								<labels>
									<label2>Violet</label2>
								</labels>
							</clip>
							<clip id="masterclip-215" explodedTracks="true">
								<uuid>cce19f6a-622e-4999-9802-c02e40614676</uuid>
								<masterclipid>masterclip-215</masterclipid>
								<ismasterclip>TRUE</ismasterclip>
								<duration>836</duration>
								<rate>
									<timebase>59</timebase>
									<ntsc>FALSE</ntsc>
								</rate>
								<name>cars-driving-off-road-among-sand-dunes-in-the-desert-drone-view-SBV-347562138-HD.mp4</name>
								<media>
									<video>
										<track>
											<clipitem id="clipitem-930">
												<masterclipid>masterclip-215</masterclipid>
												<name>cars-driving-off-road-among-sand-dunes-in-the-desert-drone-view-SBV-347562138-HD.mp4</name>
												<rate>
													<timebase>59</timebase>
													<ntsc>FALSE</ntsc>
												</rate>
												<alphatype>none</alphatype>
												<file id="file-199"/>
											</clipitem>
										</track>
									</video>
								</media>
								<logginginfo>
									<description></description>
									<scene></scene>
									<shottake></shottake>
									<lognote></lognote>
									<good></good>
									<originalvideofilename></originalvideofilename>
									<originalaudiofilename></originalaudiofilename>
								</logginginfo>
								<colorinfo>
									<lut></lut>
									<lut1></lut1>
									<asc_sop></asc_sop>
									<asc_sat></asc_sat>
									<lut2></lut2>
								</colorinfo>
								<labels>
									<label2>Violet</label2>
								</labels>
							</clip>
							<clip id="masterclip-208" explodedTracks="true">
								<uuid>180e6d45-689d-4adf-9b82-6c8b4be548e2</uuid>
								<masterclipid>masterclip-208</masterclipid>
								<ismasterclip>TRUE</ismasterclip>
								<duration>501</duration>
								<rate>
									<timebase>59</timebase>
									<ntsc>FALSE</ntsc>
								</rate>
								<name>cars-driving-off-road-among-sand-dunes-in-the-desert-drone-view-SBV-347562140-HD.mp4</name>
								<media>
									<video>
										<track>
											<clipitem id="clipitem-931">
												<masterclipid>masterclip-208</masterclipid>
												<name>cars-driving-off-road-among-sand-dunes-in-the-desert-drone-view-SBV-347562140-HD.mp4</name>
												<rate>
													<timebase>59</timebase>
													<ntsc>FALSE</ntsc>
												</rate>
												<alphatype>none</alphatype>
												<file id="file-192"/>
											</clipitem>
										</track>
									</video>
								</media>
								<logginginfo>
									<description></description>
									<scene></scene>
									<shottake></shottake>
									<lognote></lognote>
									<good></good>
									<originalvideofilename></originalvideofilename>
									<originalaudiofilename></originalaudiofilename>
								</logginginfo>
								<colorinfo>
									<lut></lut>
									<lut1></lut1>
									<asc_sop></asc_sop>
									<asc_sat></asc_sat>
									<lut2></lut2>
								</colorinfo>
								<labels>
									<label2>Violet</label2>
								</labels>
							</clip>
							<clip id="masterclip-211" explodedTracks="true">
								<uuid>109d6a51-82d6-4a92-81c3-b197b3ff24ff</uuid>
								<masterclipid>masterclip-211</masterclipid>
								<ismasterclip>TRUE</ismasterclip>
								<duration>821</duration>
								<rate>
									<timebase>59</timebase>
									<ntsc>FALSE</ntsc>
								</rate>
								<name>cars-driving-off-road-among-sand-dunes-in-the-desert-drone-view-SBV-347562252-HD.mp4</name>
								<media>
									<video>
										<track>
											<clipitem id="clipitem-932">
												<masterclipid>masterclip-211</masterclipid>
												<name>cars-driving-off-road-among-sand-dunes-in-the-desert-drone-view-SBV-347562252-HD.mp4</name>
												<rate>
													<timebase>59</timebase>
													<ntsc>FALSE</ntsc>
												</rate>
												<alphatype>none</alphatype>
												<file id="file-195"/>
											</clipitem>
										</track>
									</video>
								</media>
								<logginginfo>
									<description></description>
									<scene></scene>
									<shottake></shottake>
									<lognote></lognote>
									<good></good>
									<originalvideofilename></originalvideofilename>
									<originalaudiofilename></originalaudiofilename>
								</logginginfo>
								<colorinfo>
									<lut></lut>
									<lut1></lut1>
									<asc_sop></asc_sop>
									<asc_sat></asc_sat>
									<lut2></lut2>
								</colorinfo>
								<labels>
									<label2>Violet</label2>
								</labels>
							</clip>
							<clip id="masterclip-210" explodedTracks="true">
								<uuid>9c28662a-bcc5-4dcd-a8d6-48236c9acf24</uuid>
								<masterclipid>masterclip-210</masterclipid>
								<ismasterclip>TRUE</ismasterclip>
								<duration>580</duration>
								<rate>
									<timebase>59</timebase>
									<ntsc>FALSE</ntsc>
								</rate>
								<name>the-car-drives-off-road-sand-dunes-leaving-footprints-in-the-sand-aerial-view-from--SBV-347562013-HD.mp4</name>
								<media>
									<video>
										<track>
											<clipitem id="clipitem-933">
												<masterclipid>masterclip-210</masterclipid>
												<name>the-car-drives-off-road-sand-dunes-leaving-footprints-in-the-sand-aerial-view-from--SBV-347562013-HD.mp4</name>
												<rate>
													<timebase>59</timebase>
													<ntsc>FALSE</ntsc>
												</rate>
												<alphatype>none</alphatype>
												<file id="file-194"/>
											</clipitem>
										</track>
									</video>
								</media>
								<logginginfo>
									<description></description>
									<scene></scene>
									<shottake></shottake>
									<lognote></lognote>
									<good></good>
									<originalvideofilename></originalvideofilename>
									<originalaudiofilename></originalaudiofilename>
								</logginginfo>
								<colorinfo>
									<lut></lut>
									<lut1></lut1>
									<asc_sop></asc_sop>
									<asc_sat></asc_sat>
									<lut2></lut2>
								</colorinfo>
								<labels>
									<label2>Violet</label2>
								</labels>
							</clip>
							<clip id="masterclip-213" explodedTracks="true">
								<uuid>6e291ff0-dff2-47bd-a554-4fd44995c553</uuid>
								<masterclipid>masterclip-213</masterclipid>
								<ismasterclip>TRUE</ismasterclip>
								<duration>892</duration>
								<rate>
									<timebase>59</timebase>
									<ntsc>FALSE</ntsc>
								</rate>
								<name>the-car-goes-off-road-on-the-sand-dunes-of-the-desert-drone-video-SBV-347561829-HD.mp4</name>
								<media>
									<video>
										<track>
											<clipitem id="clipitem-934">
												<masterclipid>masterclip-213</masterclipid>
												<name>the-car-goes-off-road-on-the-sand-dunes-of-the-desert-drone-video-SBV-347561829-HD.mp4</name>
												<rate>
													<timebase>59</timebase>
													<ntsc>FALSE</ntsc>
												</rate>
												<alphatype>none</alphatype>
												<file id="file-197"/>
											</clipitem>
										</track>
									</video>
								</media>
								<logginginfo>
									<description></description>
									<scene></scene>
									<shottake></shottake>
									<lognote></lognote>
									<good></good>
									<originalvideofilename></originalvideofilename>
									<originalaudiofilename></originalaudiofilename>
								</logginginfo>
								<colorinfo>
									<lut></lut>
									<lut1></lut1>
									<asc_sop></asc_sop>
									<asc_sat></asc_sat>
									<lut2></lut2>
								</colorinfo>
								<labels>
									<label2>Violet</label2>
								</labels>
							</clip>
							<clip id="masterclip-209" explodedTracks="true">
								<uuid>2e8f3456-857e-4b1d-a491-cbe0b5872af0</uuid>
								<masterclipid>masterclip-209</masterclipid>
								<ismasterclip>TRUE</ismasterclip>
								<duration>536</duration>
								<rate>
									<timebase>59</timebase>
									<ntsc>FALSE</ntsc>
								</rate>
								<name>the-car-is-driving-off-road-on-the-red-sand-dunes-of-the-desert-with-sparse-vegetat-SBV-347561899-HD.mp4</name>
								<media>
									<video>
										<track>
											<clipitem id="clipitem-935">
												<masterclipid>masterclip-209</masterclipid>
												<name>the-car-is-driving-off-road-on-the-red-sand-dunes-of-the-desert-with-sparse-vegetat-SBV-347561899-HD.mp4</name>
												<rate>
													<timebase>59</timebase>
													<ntsc>FALSE</ntsc>
												</rate>
												<alphatype>none</alphatype>
												<file id="file-193"/>
											</clipitem>
										</track>
									</video>
								</media>
								<logginginfo>
									<description></description>
									<scene></scene>
									<shottake></shottake>
									<lognote></lognote>
									<good></good>
									<originalvideofilename></originalvideofilename>
									<originalaudiofilename></originalaudiofilename>
								</logginginfo>
								<colorinfo>
									<lut></lut>
									<lut1></lut1>
									<asc_sop></asc_sop>
									<asc_sat></asc_sat>
									<lut2></lut2>
								</colorinfo>
								<labels>
									<label2>Violet</label2>
								</labels>
							</clip>
						</children>
					</bin>
					<bin>
						<name>Longboarding</name>
						<labels>
							<label2>Mango</label2>
						</labels>
						<children>
							<clip id="masterclip-371" explodedTracks="true">
								<uuid>62fcb62d-7101-4f52-8fef-6a9d6eac391d</uuid>
								<masterclipid>masterclip-371</masterclipid>
								<ismasterclip>TRUE</ismasterclip>
								<duration>230</duration>
								<rate>
									<timebase>25</timebase>
									<ntsc>FALSE</ntsc>
								</rate>
								<name>726007_Longboard Downhill Riding Road_By_Mirko_Paoloni_Artlist_HD.mp4</name>
								<media>
									<video>
										<track>
											<clipitem id="clipitem-936">
												<masterclipid>masterclip-371</masterclipid>
												<name>726007_Longboard Downhill Riding Road_By_Mirko_Paoloni_Artlist_HD.mp4</name>
												<rate>
													<timebase>25</timebase>
													<ntsc>FALSE</ntsc>
												</rate>
												<alphatype>none</alphatype>
												<pixelaspectratio>square</pixelaspectratio>
												<anamorphic>FALSE</anamorphic>
												<file id="file-343">
													<name>726007_Longboard Downhill Riding Road_By_Mirko_Paoloni_Artlist_HD.mp4</name>
													<pathurl>file://localhost/Volumes/T7/DRONE_08.18.2023/3_Raw%20Files/Longboarding/726007_Longboard%20Downhill%20Riding%20Road_By_Mirko_Paoloni_Artlist_HD.mp4</pathurl>
													<rate>
														<timebase>25</timebase>
														<ntsc>FALSE</ntsc>
													</rate>
													<duration>230</duration>
													<timecode>
														<rate>
															<timebase>25</timebase>
															<ntsc>FALSE</ntsc>
														</rate>
														<string>00:00:00:00</string>
														<frame>0</frame>
														<displayformat>NDF</displayformat>
													</timecode>
													<media>
														<video>
															<samplecharacteristics>
																<rate>
																	<timebase>25</timebase>
																	<ntsc>FALSE</ntsc>
																</rate>
																<width>1920</width>
																<height>1080</height>
																<anamorphic>FALSE</anamorphic>
																<pixelaspectratio>square</pixelaspectratio>
																<fielddominance>none</fielddominance>
															</samplecharacteristics>
														</video>
													</media>
												</file>
											</clipitem>
										</track>
									</video>
								</media>
								<logginginfo>
									<description></description>
									<scene></scene>
									<shottake></shottake>
									<lognote></lognote>
									<good></good>
									<originalvideofilename></originalvideofilename>
									<originalaudiofilename></originalaudiofilename>
								</logginginfo>
								<colorinfo>
									<lut></lut>
									<lut1></lut1>
									<asc_sop></asc_sop>
									<asc_sat></asc_sat>
									<lut2></lut2>
								</colorinfo>
								<labels>
									<label2>Violet</label2>
								</labels>
							</clip>
							<clip id="masterclip-171" explodedTracks="true">
								<uuid>63852594-5d19-43d2-836f-a63c3c46a246</uuid>
								<masterclipid>masterclip-171</masterclipid>
								<ismasterclip>TRUE</ismasterclip>
								<duration>254</duration>
								<rate>
									<timebase>25</timebase>
									<ntsc>FALSE</ntsc>
								</rate>
								<name>726008_Riding Thrilling Downhill Longboard_By_Mirko_Paoloni_Artlist_HD.mp4</name>
								<media>
									<video>
										<track>
											<clipitem id="clipitem-937">
												<masterclipid>masterclip-171</masterclipid>
												<name>726008_Riding Thrilling Downhill Longboard_By_Mirko_Paoloni_Artlist_HD.mp4</name>
												<rate>
													<timebase>25</timebase>
													<ntsc>FALSE</ntsc>
												</rate>
												<alphatype>none</alphatype>
												<file id="file-162"/>
											</clipitem>
										</track>
									</video>
								</media>
								<logginginfo>
									<description></description>
									<scene></scene>
									<shottake></shottake>
									<lognote></lognote>
									<good></good>
									<originalvideofilename></originalvideofilename>
									<originalaudiofilename></originalaudiofilename>
								</logginginfo>
								<colorinfo>
									<lut></lut>
									<lut1></lut1>
									<asc_sop></asc_sop>
									<asc_sat></asc_sat>
									<lut2></lut2>
								</colorinfo>
								<labels>
									<label2>Violet</label2>
								</labels>
							</clip>
							<clip id="masterclip-166" explodedTracks="true">
								<uuid>9b8710d2-8fa2-4a4e-95a4-5056fe120c1b</uuid>
								<masterclipid>masterclip-166</masterclipid>
								<ismasterclip>TRUE</ismasterclip>
								<duration>564</duration>
								<rate>
									<timebase>25</timebase>
									<ntsc>FALSE</ntsc>
								</rate>
								<name>726010_Longboarding   Riding Mountains Fpv Drone_By_Mirko_Paoloni_Artlist_HD.mp4</name>
								<media>
									<video>
										<track>
											<clipitem id="clipitem-938">
												<masterclipid>masterclip-166</masterclipid>
												<name>726010_Longboarding   Riding Mountains Fpv Drone_By_Mirko_Paoloni_Artlist_HD.mp4</name>
												<rate>
													<timebase>25</timebase>
													<ntsc>FALSE</ntsc>
												</rate>
												<alphatype>none</alphatype>
												<file id="file-157"/>
											</clipitem>
										</track>
									</video>
								</media>
								<logginginfo>
									<description></description>
									<scene></scene>
									<shottake></shottake>
									<lognote></lognote>
									<good></good>
									<originalvideofilename></originalvideofilename>
									<originalaudiofilename></originalaudiofilename>
								</logginginfo>
								<colorinfo>
									<lut></lut>
									<lut1></lut1>
									<asc_sop></asc_sop>
									<asc_sat></asc_sat>
									<lut2></lut2>
								</colorinfo>
								<labels>
									<label2>Violet</label2>
								</labels>
							</clip>
							<clip id="masterclip-372" explodedTracks="true">
								<uuid>c23c9060-d92f-4e16-82e8-bc5cd060e00c</uuid>
								<masterclipid>masterclip-372</masterclipid>
								<ismasterclip>TRUE</ismasterclip>
								<duration>372</duration>
								<rate>
									<timebase>25</timebase>
									<ntsc>FALSE</ntsc>
								</rate>
								<name>726013_Longboarding   Riding Mountains Fpv Drone_By_Mirko_Paoloni_Artlist_HD.mp4</name>
								<media>
									<video>
										<track>
											<clipitem id="clipitem-939">
												<masterclipid>masterclip-372</masterclipid>
												<name>726013_Longboarding   Riding Mountains Fpv Drone_By_Mirko_Paoloni_Artlist_HD.mp4</name>
												<rate>
													<timebase>25</timebase>
													<ntsc>FALSE</ntsc>
												</rate>
												<alphatype>none</alphatype>
												<pixelaspectratio>square</pixelaspectratio>
												<anamorphic>FALSE</anamorphic>
												<file id="file-344">
													<name>726013_Longboarding   Riding Mountains Fpv Drone_By_Mirko_Paoloni_Artlist_HD.mp4</name>
													<pathurl>file://localhost/Volumes/T7/DRONE_08.18.2023/3_Raw%20Files/Longboarding/726013_Longboarding%20%20%20Riding%20Mountains%20Fpv%20Drone_By_Mirko_Paoloni_Artlist_HD.mp4</pathurl>
													<rate>
														<timebase>25</timebase>
														<ntsc>FALSE</ntsc>
													</rate>
													<duration>372</duration>
													<timecode>
														<rate>
															<timebase>25</timebase>
															<ntsc>FALSE</ntsc>
														</rate>
														<string>00:00:00:00</string>
														<frame>0</frame>
														<displayformat>NDF</displayformat>
													</timecode>
													<media>
														<video>
															<samplecharacteristics>
																<rate>
																	<timebase>25</timebase>
																	<ntsc>FALSE</ntsc>
																</rate>
																<width>1920</width>
																<height>1080</height>
																<anamorphic>FALSE</anamorphic>
																<pixelaspectratio>square</pixelaspectratio>
																<fielddominance>none</fielddominance>
															</samplecharacteristics>
														</video>
													</media>
												</file>
											</clipitem>
										</track>
									</video>
								</media>
								<logginginfo>
									<description></description>
									<scene></scene>
									<shottake></shottake>
									<lognote></lognote>
									<good></good>
									<originalvideofilename></originalvideofilename>
									<originalaudiofilename></originalaudiofilename>
								</logginginfo>
								<colorinfo>
									<lut></lut>
									<lut1></lut1>
									<asc_sop></asc_sop>
									<asc_sat></asc_sat>
									<lut2></lut2>
								</colorinfo>
								<labels>
									<label2>Violet</label2>
								</labels>
							</clip>
							<clip id="masterclip-168" explodedTracks="true">
								<uuid>4f526b9a-0d3a-4da7-a5e2-7c08047ac1df</uuid>
								<masterclipid>masterclip-168</masterclipid>
								<ismasterclip>TRUE</ismasterclip>
								<duration>519</duration>
								<rate>
									<timebase>25</timebase>
									<ntsc>FALSE</ntsc>
								</rate>
								<name>726014_Longboard Hills Fast Ride  Thrilling_By_Mirko_Paoloni_Artlist_HD.mp4</name>
								<media>
									<video>
										<track>
											<clipitem id="clipitem-940">
												<masterclipid>masterclip-168</masterclipid>
												<name>726014_Longboard Hills Fast Ride  Thrilling_By_Mirko_Paoloni_Artlist_HD.mp4</name>
												<rate>
													<timebase>25</timebase>
													<ntsc>FALSE</ntsc>
												</rate>
												<alphatype>none</alphatype>
												<file id="file-159"/>
											</clipitem>
										</track>
									</video>
								</media>
								<logginginfo>
									<description></description>
									<scene></scene>
									<shottake></shottake>
									<lognote></lognote>
									<good></good>
									<originalvideofilename></originalvideofilename>
									<originalaudiofilename></originalaudiofilename>
								</logginginfo>
								<colorinfo>
									<lut></lut>
									<lut1></lut1>
									<asc_sop></asc_sop>
									<asc_sat></asc_sat>
									<lut2></lut2>
								</colorinfo>
								<labels>
									<label2>Violet</label2>
								</labels>
							</clip>
							<clip id="masterclip-165" explodedTracks="true">
								<uuid>8d909f0a-f6ee-4e1e-bb42-d0e3717052b6</uuid>
								<masterclipid>masterclip-165</masterclipid>
								<ismasterclip>TRUE</ismasterclip>
								<duration>782</duration>
								<rate>
									<timebase>25</timebase>
									<ntsc>FALSE</ntsc>
								</rate>
								<name>726016_Longboard Road Downhill Riding_By_Mirko_Paoloni_Artlist_HD.mp4</name>
								<media>
									<video>
										<track>
											<clipitem id="clipitem-941">
												<masterclipid>masterclip-165</masterclipid>
												<name>726016_Longboard Road Downhill Riding_By_Mirko_Paoloni_Artlist_HD.mp4</name>
												<rate>
													<timebase>25</timebase>
													<ntsc>FALSE</ntsc>
												</rate>
												<alphatype>none</alphatype>
												<file id="file-156"/>
											</clipitem>
										</track>
									</video>
								</media>
								<logginginfo>
									<description></description>
									<scene></scene>
									<shottake></shottake>
									<lognote></lognote>
									<good></good>
									<originalvideofilename></originalvideofilename>
									<originalaudiofilename></originalaudiofilename>
								</logginginfo>
								<colorinfo>
									<lut></lut>
									<lut1></lut1>
									<asc_sop></asc_sop>
									<asc_sat></asc_sat>
									<lut2></lut2>
								</colorinfo>
								<labels>
									<label2>Violet</label2>
								</labels>
							</clip>
							<clip id="masterclip-164" explodedTracks="true">
								<uuid>157b69e5-6fa1-424c-b288-b537d6614e78</uuid>
								<masterclipid>masterclip-164</masterclipid>
								<ismasterclip>TRUE</ismasterclip>
								<duration>301</duration>
								<rate>
									<timebase>25</timebase>
									<ntsc>FALSE</ntsc>
								</rate>
								<name>726018_Longboard Hills Fast Ride  Thrilling_By_Mirko_Paoloni_Artlist_HD.mp4</name>
								<media>
									<video>
										<track>
											<clipitem id="clipitem-942">
												<masterclipid>masterclip-164</masterclipid>
												<name>726018_Longboard Hills Fast Ride  Thrilling_By_Mirko_Paoloni_Artlist_HD.mp4</name>
												<rate>
													<timebase>25</timebase>
													<ntsc>FALSE</ntsc>
												</rate>
												<alphatype>none</alphatype>
												<file id="file-155"/>
											</clipitem>
										</track>
									</video>
								</media>
								<logginginfo>
									<description></description>
									<scene></scene>
									<shottake></shottake>
									<lognote></lognote>
									<good></good>
									<originalvideofilename></originalvideofilename>
									<originalaudiofilename></originalaudiofilename>
								</logginginfo>
								<colorinfo>
									<lut></lut>
									<lut1></lut1>
									<asc_sop></asc_sop>
									<asc_sat></asc_sat>
									<lut2></lut2>
								</colorinfo>
								<labels>
									<label2>Violet</label2>
								</labels>
							</clip>
							<clip id="masterclip-170" explodedTracks="true">
								<uuid>ed626ce5-1b87-4894-93b2-23b87df225cb</uuid>
								<masterclipid>masterclip-170</masterclipid>
								<ismasterclip>TRUE</ismasterclip>
								<duration>89</duration>
								<rate>
									<timebase>25</timebase>
									<ntsc>FALSE</ntsc>
								</rate>
								<name>726023_Riding Boardsport Downhill Longboarding  _By_Mirko_Paoloni_Artlist_HD.mp4</name>
								<media>
									<video>
										<track>
											<clipitem id="clipitem-943">
												<masterclipid>masterclip-170</masterclipid>
												<name>726023_Riding Boardsport Downhill Longboarding  _By_Mirko_Paoloni_Artlist_HD.mp4</name>
												<rate>
													<timebase>25</timebase>
													<ntsc>FALSE</ntsc>
												</rate>
												<alphatype>none</alphatype>
												<file id="file-161"/>
											</clipitem>
										</track>
									</video>
								</media>
								<logginginfo>
									<description></description>
									<scene></scene>
									<shottake></shottake>
									<lognote></lognote>
									<good></good>
									<originalvideofilename></originalvideofilename>
									<originalaudiofilename></originalaudiofilename>
								</logginginfo>
								<colorinfo>
									<lut></lut>
									<lut1></lut1>
									<asc_sop></asc_sop>
									<asc_sat></asc_sat>
									<lut2></lut2>
								</colorinfo>
								<labels>
									<label2>Violet</label2>
								</labels>
							</clip>
							<clip id="masterclip-167" explodedTracks="true">
								<uuid>58ee177e-3999-40be-9252-1e1717db5d99</uuid>
								<masterclipid>masterclip-167</masterclipid>
								<ismasterclip>TRUE</ismasterclip>
								<duration>815</duration>
								<rate>
									<timebase>25</timebase>
									<ntsc>FALSE</ntsc>
								</rate>
								<name>726024_Longboarding   Mountains Fpv Drone Downhill_By_Mirko_Paoloni_Artlist_HD.mp4</name>
								<media>
									<video>
										<track>
											<clipitem id="clipitem-944">
												<masterclipid>masterclip-167</masterclipid>
												<name>726024_Longboarding   Mountains Fpv Drone Downhill_By_Mirko_Paoloni_Artlist_HD.mp4</name>
												<rate>
													<timebase>25</timebase>
													<ntsc>FALSE</ntsc>
												</rate>
												<alphatype>none</alphatype>
												<file id="file-158"/>
											</clipitem>
										</track>
									</video>
								</media>
								<logginginfo>
									<description></description>
									<scene></scene>
									<shottake></shottake>
									<lognote></lognote>
									<good></good>
									<originalvideofilename></originalvideofilename>
									<originalaudiofilename></originalaudiofilename>
								</logginginfo>
								<colorinfo>
									<lut></lut>
									<lut1></lut1>
									<asc_sop></asc_sop>
									<asc_sat></asc_sat>
									<lut2></lut2>
								</colorinfo>
								<labels>
									<label2>Violet</label2>
								</labels>
							</clip>
							<clip id="masterclip-172" explodedTracks="true">
								<uuid>b2013962-9840-4471-8f4e-79244775b610</uuid>
								<masterclipid>masterclip-172</masterclipid>
								<ismasterclip>TRUE</ismasterclip>
								<duration>518</duration>
								<rate>
									<timebase>25</timebase>
									<ntsc>FALSE</ntsc>
								</rate>
								<name>726030_Downhill Longboarding   Hills Fpv Drone_By_Mirko_Paoloni_Artlist_HD.mp4</name>
								<media>
									<video>
										<track>
											<clipitem id="clipitem-945">
												<masterclipid>masterclip-172</masterclipid>
												<name>726030_Downhill Longboarding   Hills Fpv Drone_By_Mirko_Paoloni_Artlist_HD.mp4</name>
												<rate>
													<timebase>25</timebase>
													<ntsc>FALSE</ntsc>
												</rate>
												<alphatype>none</alphatype>
												<file id="file-163"/>
											</clipitem>
										</track>
									</video>
								</media>
								<logginginfo>
									<description></description>
									<scene></scene>
									<shottake></shottake>
									<lognote></lognote>
									<good></good>
									<originalvideofilename></originalvideofilename>
									<originalaudiofilename></originalaudiofilename>
								</logginginfo>
								<colorinfo>
									<lut></lut>
									<lut1></lut1>
									<asc_sop></asc_sop>
									<asc_sat></asc_sat>
									<lut2></lut2>
								</colorinfo>
								<labels>
									<label2>Violet</label2>
								</labels>
							</clip>
							<clip id="masterclip-169" explodedTracks="true">
								<uuid>6de31d88-c042-4b76-b8d9-829ecb3a83f2</uuid>
								<masterclipid>masterclip-169</masterclipid>
								<ismasterclip>TRUE</ismasterclip>
								<duration>842</duration>
								<rate>
									<timebase>25</timebase>
									<ntsc>FALSE</ntsc>
								</rate>
								<name>726048_Longboarding   Downhill Mountains Thrilling_By_Mirko_Paoloni_Artlist_HD.mp4</name>
								<media>
									<video>
										<track>
											<clipitem id="clipitem-946">
												<masterclipid>masterclip-169</masterclipid>
												<name>726048_Longboarding   Downhill Mountains Thrilling_By_Mirko_Paoloni_Artlist_HD.mp4</name>
												<rate>
													<timebase>25</timebase>
													<ntsc>FALSE</ntsc>
												</rate>
												<alphatype>none</alphatype>
												<file id="file-160"/>
											</clipitem>
										</track>
									</video>
								</media>
								<logginginfo>
									<description></description>
									<scene></scene>
									<shottake></shottake>
									<lognote></lognote>
									<good></good>
									<originalvideofilename></originalvideofilename>
									<originalaudiofilename></originalaudiofilename>
								</logginginfo>
								<colorinfo>
									<lut></lut>
									<lut1></lut1>
									<asc_sop></asc_sop>
									<asc_sat></asc_sat>
									<lut2></lut2>
								</colorinfo>
								<labels>
									<label2>Violet</label2>
								</labels>
							</clip>
							<clip id="masterclip-163" explodedTracks="true">
								<uuid>41fe06fe-0482-427b-a0cd-96a3584efcdc</uuid>
								<masterclipid>masterclip-163</masterclipid>
								<ismasterclip>TRUE</ismasterclip>
								<duration>493</duration>
								<rate>
									<timebase>25</timebase>
									<ntsc>FALSE</ntsc>
								</rate>
								<name>726057_Mountains Road Austria Hills_By_Mirko_Paoloni_Artlist_HD.mp4</name>
								<media>
									<video>
										<track>
											<clipitem id="clipitem-947">
												<masterclipid>masterclip-163</masterclipid>
												<name>726057_Mountains Road Austria Hills_By_Mirko_Paoloni_Artlist_HD.mp4</name>
												<rate>
													<timebase>25</timebase>
													<ntsc>FALSE</ntsc>
												</rate>
												<alphatype>none</alphatype>
												<file id="file-154"/>
											</clipitem>
										</track>
									</video>
								</media>
								<logginginfo>
									<description></description>
									<scene></scene>
									<shottake></shottake>
									<lognote></lognote>
									<good></good>
									<originalvideofilename></originalvideofilename>
									<originalaudiofilename></originalaudiofilename>
								</logginginfo>
								<colorinfo>
									<lut></lut>
									<lut1></lut1>
									<asc_sop></asc_sop>
									<asc_sat></asc_sat>
									<lut2></lut2>
								</colorinfo>
								<labels>
									<label2>Violet</label2>
								</labels>
							</clip>
						</children>
					</bin>
					<bin>
						<name>Various Files</name>
						<labels>
							<label2>Mango</label2>
						</labels>
						<children>
							<clip id="masterclip-175" explodedTracks="true">
								<uuid>7c7bf78c-7d85-48ab-9cba-93f5dc3a41cf</uuid>
								<masterclipid>masterclip-175</masterclipid>
								<ismasterclip>TRUE</ismasterclip>
								<duration>1278</duration>
								<rate>
									<timebase>25</timebase>
									<ntsc>FALSE</ntsc>
								</rate>
								<name>(Prohdigyy)_FIREWORKS with FPV Drone _ India_e7w5lkml0wE_YT.mp4</name>
								<media>
									<video>
										<track>
											<clipitem id="clipitem-948">
												<masterclipid>masterclip-175</masterclipid>
												<name>(Prohdigyy)_FIREWORKS with FPV Drone _ India_e7w5lkml0wE_YT.mp4</name>
												<rate>
													<timebase>25</timebase>
													<ntsc>FALSE</ntsc>
												</rate>
												<alphatype>none</alphatype>
												<file id="file-165"/>
												<link>
													<linkclipref>clipitem-948</linkclipref>
													<mediatype>video</mediatype>
													<trackindex>1</trackindex>
													<clipindex>1</clipindex>
												</link>
												<link>
													<linkclipref>clipitem-949</linkclipref>
													<mediatype>audio</mediatype>
													<trackindex>1</trackindex>
													<clipindex>1</clipindex>
													<groupindex>1</groupindex>
												</link>
												<link>
													<linkclipref>clipitem-950</linkclipref>
													<mediatype>audio</mediatype>
													<trackindex>2</trackindex>
													<clipindex>1</clipindex>
													<groupindex>1</groupindex>
												</link>
											</clipitem>
										</track>
									</video>
									<audio>
										<track>
											<clipitem id="clipitem-949">
												<masterclipid>masterclip-175</masterclipid>
												<name>(Prohdigyy)_FIREWORKS with FPV Drone _ India_e7w5lkml0wE_YT.mp4</name>
												<rate>
													<timebase>25</timebase>
													<ntsc>FALSE</ntsc>
												</rate>
												<file id="file-165"/>
												<sourcetrack>
													<mediatype>audio</mediatype>
													<trackindex>1</trackindex>
												</sourcetrack>
												<link>
													<linkclipref>clipitem-948</linkclipref>
													<mediatype>video</mediatype>
													<trackindex>1</trackindex>
													<clipindex>1</clipindex>
												</link>
												<link>
													<linkclipref>clipitem-949</linkclipref>
													<mediatype>audio</mediatype>
													<trackindex>1</trackindex>
													<clipindex>1</clipindex>
													<groupindex>1</groupindex>
												</link>
												<link>
													<linkclipref>clipitem-950</linkclipref>
													<mediatype>audio</mediatype>
													<trackindex>2</trackindex>
													<clipindex>1</clipindex>
													<groupindex>1</groupindex>
												</link>
											</clipitem>
										</track>
										<track>
											<clipitem id="clipitem-950">
												<masterclipid>masterclip-175</masterclipid>
												<name>(Prohdigyy)_FIREWORKS with FPV Drone _ India_e7w5lkml0wE_YT.mp4</name>
												<rate>
													<timebase>25</timebase>
													<ntsc>FALSE</ntsc>
												</rate>
												<file id="file-165"/>
												<sourcetrack>
													<mediatype>audio</mediatype>
													<trackindex>2</trackindex>
												</sourcetrack>
												<link>
													<linkclipref>clipitem-948</linkclipref>
													<mediatype>video</mediatype>
													<trackindex>1</trackindex>
													<clipindex>1</clipindex>
												</link>
												<link>
													<linkclipref>clipitem-949</linkclipref>
													<mediatype>audio</mediatype>
													<trackindex>1</trackindex>
													<clipindex>1</clipindex>
													<groupindex>1</groupindex>
												</link>
												<link>
													<linkclipref>clipitem-950</linkclipref>
													<mediatype>audio</mediatype>
													<trackindex>2</trackindex>
													<clipindex>1</clipindex>
													<groupindex>1</groupindex>
												</link>
											</clipitem>
										</track>
									</audio>
								</media>
								<logginginfo>
									<description></description>
									<scene></scene>
									<shottake></shottake>
									<lognote>https://www.youtube.com/watch?v=e7w5lkml0wE</lognote>
									<good></good>
									<originalvideofilename></originalvideofilename>
									<originalaudiofilename></originalaudiofilename>
								</logginginfo>
								<colorinfo>
									<lut></lut>
									<lut1></lut1>
									<asc_sop></asc_sop>
									<asc_sat></asc_sat>
									<lut2></lut2>
								</colorinfo>
								<labels>
									<label2>Iris</label2>
								</labels>
							</clip>
							<clip id="masterclip-195" explodedTracks="true">
								<uuid>c8751098-1c2c-4a67-b2e9-a65d1d3cccb6</uuid>
								<masterclipid>masterclip-195</masterclipid>
								<ismasterclip>TRUE</ismasterclip>
								<duration>7749</duration>
								<rate>
									<timebase>30</timebase>
									<ntsc>TRUE</ntsc>
								</rate>
								<name>(Loci)_The North (Arctic life in Lapland &amp; Lofoten) - LÓCI_inZ9KZPq1mQ_YT.mp4</name>
								<media>
									<video>
										<track>
											<clipitem id="clipitem-951">
												<masterclipid>masterclip-195</masterclipid>
												<name>(Loci)_The North (Arctic life in Lapland &amp; Lofoten) - LÓCI_inZ9KZPq1mQ_YT.mp4</name>
												<rate>
													<timebase>30</timebase>
													<ntsc>TRUE</ntsc>
												</rate>
												<alphatype>none</alphatype>
												<file id="file-182"/>
												<link>
													<linkclipref>clipitem-951</linkclipref>
													<mediatype>video</mediatype>
													<trackindex>1</trackindex>
													<clipindex>1</clipindex>
												</link>
												<link>
													<linkclipref>clipitem-952</linkclipref>
													<mediatype>audio</mediatype>
													<trackindex>1</trackindex>
													<clipindex>1</clipindex>
													<groupindex>1</groupindex>
												</link>
												<link>
													<linkclipref>clipitem-953</linkclipref>
													<mediatype>audio</mediatype>
													<trackindex>2</trackindex>
													<clipindex>1</clipindex>
													<groupindex>1</groupindex>
												</link>
											</clipitem>
										</track>
									</video>
									<audio>
										<track>
											<clipitem id="clipitem-952">
												<masterclipid>masterclip-195</masterclipid>
												<name>(Loci)_The North (Arctic life in Lapland &amp; Lofoten) - LÓCI_inZ9KZPq1mQ_YT.mp4</name>
												<rate>
													<timebase>30</timebase>
													<ntsc>TRUE</ntsc>
												</rate>
												<file id="file-182"/>
												<sourcetrack>
													<mediatype>audio</mediatype>
													<trackindex>1</trackindex>
												</sourcetrack>
												<link>
													<linkclipref>clipitem-951</linkclipref>
													<mediatype>video</mediatype>
													<trackindex>1</trackindex>
													<clipindex>1</clipindex>
												</link>
												<link>
													<linkclipref>clipitem-952</linkclipref>
													<mediatype>audio</mediatype>
													<trackindex>1</trackindex>
													<clipindex>1</clipindex>
													<groupindex>1</groupindex>
												</link>
												<link>
													<linkclipref>clipitem-953</linkclipref>
													<mediatype>audio</mediatype>
													<trackindex>2</trackindex>
													<clipindex>1</clipindex>
													<groupindex>1</groupindex>
												</link>
											</clipitem>
										</track>
										<track>
											<clipitem id="clipitem-953">
												<masterclipid>masterclip-195</masterclipid>
												<name>(Loci)_The North (Arctic life in Lapland &amp; Lofoten) - LÓCI_inZ9KZPq1mQ_YT.mp4</name>
												<rate>
													<timebase>30</timebase>
													<ntsc>TRUE</ntsc>
												</rate>
												<file id="file-182"/>
												<sourcetrack>
													<mediatype>audio</mediatype>
													<trackindex>2</trackindex>
												</sourcetrack>
												<link>
													<linkclipref>clipitem-951</linkclipref>
													<mediatype>video</mediatype>
													<trackindex>1</trackindex>
													<clipindex>1</clipindex>
												</link>
												<link>
													<linkclipref>clipitem-952</linkclipref>
													<mediatype>audio</mediatype>
													<trackindex>1</trackindex>
													<clipindex>1</clipindex>
													<groupindex>1</groupindex>
												</link>
												<link>
													<linkclipref>clipitem-953</linkclipref>
													<mediatype>audio</mediatype>
													<trackindex>2</trackindex>
													<clipindex>1</clipindex>
													<groupindex>1</groupindex>
												</link>
											</clipitem>
										</track>
									</audio>
								</media>
								<logginginfo>
									<description></description>
									<scene></scene>
									<shottake></shottake>
									<lognote>https://www.youtube.com/watch?v=inZ9KZPq1mQ</lognote>
									<good></good>
									<originalvideofilename></originalvideofilename>
									<originalaudiofilename></originalaudiofilename>
								</logginginfo>
								<colorinfo>
									<lut></lut>
									<lut1></lut1>
									<asc_sop></asc_sop>
									<asc_sat></asc_sat>
									<lut2></lut2>
								</colorinfo>
								<labels>
									<label2>Iris</label2>
								</labels>
							</clip>
							<clip id="masterclip-373" explodedTracks="true">
								<uuid>ba5bff47-8bda-4555-a170-959b163727bf</uuid>
								<masterclipid>masterclip-373</masterclipid>
								<ismasterclip>TRUE</ismasterclip>
								<duration>2701</duration>
								<rate>
									<timebase>30</timebase>
									<ntsc>TRUE</ntsc>
								</rate>
								<name>(LOUD fpv)_TAVIRA_0SeUzb1eNSg_YT.mp4</name>
								<media>
									<video>
										<track>
											<clipitem id="clipitem-954">
												<masterclipid>masterclip-373</masterclipid>
												<name>(LOUD fpv)_TAVIRA_0SeUzb1eNSg_YT.mp4</name>
												<rate>
													<timebase>30</timebase>
													<ntsc>TRUE</ntsc>
												</rate>
												<alphatype>none</alphatype>
												<pixelaspectratio>square</pixelaspectratio>
												<anamorphic>FALSE</anamorphic>
												<file id="file-345">
													<name>(LOUD fpv)_TAVIRA_0SeUzb1eNSg_YT.mp4</name>
													<pathurl>file://localhost/Volumes/T7/DRONE_08.18.2023/3_Raw%20Files/Various%20Files/(LOUD%20fpv)_TAVIRA_0SeUzb1eNSg_YT.mp4</pathurl>
													<rate>
														<timebase>30</timebase>
														<ntsc>TRUE</ntsc>
													</rate>
													<duration>2701</duration>
													<timecode>
														<rate>
															<timebase>30</timebase>
															<ntsc>TRUE</ntsc>
														</rate>
														<string>00:00:00:00</string>
														<frame>0</frame>
														<displayformat>NDF</displayformat>
													</timecode>
													<media>
														<video>
															<samplecharacteristics>
																<rate>
																	<timebase>30</timebase>
																	<ntsc>TRUE</ntsc>
																</rate>
																<width>1920</width>
																<height>1080</height>
																<anamorphic>FALSE</anamorphic>
																<pixelaspectratio>square</pixelaspectratio>
																<fielddominance>none</fielddominance>
															</samplecharacteristics>
														</video>
														<audio>
															<samplecharacteristics>
																<depth>16</depth>
																<samplerate>44100</samplerate>
															</samplecharacteristics>
															<channelcount>2</channelcount>
														</audio>
													</media>
												</file>
												<link>
													<linkclipref>clipitem-954</linkclipref>
													<mediatype>video</mediatype>
													<trackindex>1</trackindex>
													<clipindex>1</clipindex>
												</link>
												<link>
													<linkclipref>clipitem-955</linkclipref>
													<mediatype>audio</mediatype>
													<trackindex>1</trackindex>
													<clipindex>1</clipindex>
													<groupindex>1</groupindex>
												</link>
												<link>
													<linkclipref>clipitem-956</linkclipref>
													<mediatype>audio</mediatype>
													<trackindex>2</trackindex>
													<clipindex>1</clipindex>
													<groupindex>1</groupindex>
												</link>
											</clipitem>
										</track>
									</video>
									<audio>
										<track>
											<clipitem id="clipitem-955">
												<masterclipid>masterclip-373</masterclipid>
												<name>(LOUD fpv)_TAVIRA_0SeUzb1eNSg_YT.mp4</name>
												<rate>
													<timebase>30</timebase>
													<ntsc>TRUE</ntsc>
												</rate>
												<file id="file-345"/>
												<sourcetrack>
													<mediatype>audio</mediatype>
													<trackindex>1</trackindex>
												</sourcetrack>
												<link>
													<linkclipref>clipitem-954</linkclipref>
													<mediatype>video</mediatype>
													<trackindex>1</trackindex>
													<clipindex>1</clipindex>
												</link>
												<link>
													<linkclipref>clipitem-955</linkclipref>
													<mediatype>audio</mediatype>
													<trackindex>1</trackindex>
													<clipindex>1</clipindex>
													<groupindex>1</groupindex>
												</link>
												<link>
													<linkclipref>clipitem-956</linkclipref>
													<mediatype>audio</mediatype>
													<trackindex>2</trackindex>
													<clipindex>1</clipindex>
													<groupindex>1</groupindex>
												</link>
											</clipitem>
										</track>
										<track>
											<clipitem id="clipitem-956">
												<masterclipid>masterclip-373</masterclipid>
												<name>(LOUD fpv)_TAVIRA_0SeUzb1eNSg_YT.mp4</name>
												<rate>
													<timebase>30</timebase>
													<ntsc>TRUE</ntsc>
												</rate>
												<file id="file-345"/>
												<sourcetrack>
													<mediatype>audio</mediatype>
													<trackindex>2</trackindex>
												</sourcetrack>
												<link>
													<linkclipref>clipitem-954</linkclipref>
													<mediatype>video</mediatype>
													<trackindex>1</trackindex>
													<clipindex>1</clipindex>
												</link>
												<link>
													<linkclipref>clipitem-955</linkclipref>
													<mediatype>audio</mediatype>
													<trackindex>1</trackindex>
													<clipindex>1</clipindex>
													<groupindex>1</groupindex>
												</link>
												<link>
													<linkclipref>clipitem-956</linkclipref>
													<mediatype>audio</mediatype>
													<trackindex>2</trackindex>
													<clipindex>1</clipindex>
													<groupindex>1</groupindex>
												</link>
											</clipitem>
										</track>
									</audio>
								</media>
								<logginginfo>
									<description></description>
									<scene></scene>
									<shottake></shottake>
									<lognote>https://www.youtube.com/watch?v=0SeUzb1eNSg</lognote>
									<good></good>
									<originalvideofilename></originalvideofilename>
									<originalaudiofilename></originalaudiofilename>
								</logginginfo>
								<colorinfo>
									<lut></lut>
									<lut1></lut1>
									<asc_sop></asc_sop>
									<asc_sat></asc_sat>
									<lut2></lut2>
								</colorinfo>
								<labels>
									<label2>Iris</label2>
								</labels>
							</clip>
							<clip id="masterclip-244" explodedTracks="true">
								<uuid>cf0902c3-9240-4ee8-909a-ff6d0cb99308</uuid>
								<masterclipid>masterclip-244</masterclipid>
								<ismasterclip>TRUE</ismasterclip>
								<duration>4470</duration>
								<rate>
									<timebase>50</timebase>
									<ntsc>FALSE</ntsc>
								</rate>
								<name>(Tomz FPV)_Masters Of Dirt's Backyard_2TOm5fufLrM_YT.mp4</name>
								<media>
									<video>
										<track>
											<clipitem id="clipitem-957">
												<masterclipid>masterclip-244</masterclipid>
												<name>(Tomz FPV)_Masters Of Dirt's Backyard_2TOm5fufLrM_YT.mp4</name>
												<rate>
													<timebase>50</timebase>
													<ntsc>FALSE</ntsc>
												</rate>
												<alphatype>none</alphatype>
												<file id="file-223"/>
												<link>
													<linkclipref>clipitem-957</linkclipref>
													<mediatype>video</mediatype>
													<trackindex>1</trackindex>
													<clipindex>1</clipindex>
												</link>
												<link>
													<linkclipref>clipitem-958</linkclipref>
													<mediatype>audio</mediatype>
													<trackindex>1</trackindex>
													<clipindex>1</clipindex>
													<groupindex>1</groupindex>
												</link>
												<link>
													<linkclipref>clipitem-959</linkclipref>
													<mediatype>audio</mediatype>
													<trackindex>2</trackindex>
													<clipindex>1</clipindex>
													<groupindex>1</groupindex>
												</link>
											</clipitem>
										</track>
									</video>
									<audio>
										<track>
											<clipitem id="clipitem-958">
												<masterclipid>masterclip-244</masterclipid>
												<name>(Tomz FPV)_Masters Of Dirt's Backyard_2TOm5fufLrM_YT.mp4</name>
												<rate>
													<timebase>50</timebase>
													<ntsc>FALSE</ntsc>
												</rate>
												<file id="file-223"/>
												<sourcetrack>
													<mediatype>audio</mediatype>
													<trackindex>1</trackindex>
												</sourcetrack>
												<link>
													<linkclipref>clipitem-957</linkclipref>
													<mediatype>video</mediatype>
													<trackindex>1</trackindex>
													<clipindex>1</clipindex>
												</link>
												<link>
													<linkclipref>clipitem-958</linkclipref>
													<mediatype>audio</mediatype>
													<trackindex>1</trackindex>
													<clipindex>1</clipindex>
													<groupindex>1</groupindex>
												</link>
												<link>
													<linkclipref>clipitem-959</linkclipref>
													<mediatype>audio</mediatype>
													<trackindex>2</trackindex>
													<clipindex>1</clipindex>
													<groupindex>1</groupindex>
												</link>
											</clipitem>
										</track>
										<track>
											<clipitem id="clipitem-959">
												<masterclipid>masterclip-244</masterclipid>
												<name>(Tomz FPV)_Masters Of Dirt's Backyard_2TOm5fufLrM_YT.mp4</name>
												<rate>
													<timebase>50</timebase>
													<ntsc>FALSE</ntsc>
												</rate>
												<file id="file-223"/>
												<sourcetrack>
													<mediatype>audio</mediatype>
													<trackindex>2</trackindex>
												</sourcetrack>
												<link>
													<linkclipref>clipitem-957</linkclipref>
													<mediatype>video</mediatype>
													<trackindex>1</trackindex>
													<clipindex>1</clipindex>
												</link>
												<link>
													<linkclipref>clipitem-958</linkclipref>
													<mediatype>audio</mediatype>
													<trackindex>1</trackindex>
													<clipindex>1</clipindex>
													<groupindex>1</groupindex>
												</link>
												<link>
													<linkclipref>clipitem-959</linkclipref>
													<mediatype>audio</mediatype>
													<trackindex>2</trackindex>
													<clipindex>1</clipindex>
													<groupindex>1</groupindex>
												</link>
											</clipitem>
										</track>
									</audio>
								</media>
								<logginginfo>
									<description></description>
									<scene></scene>
									<shottake></shottake>
									<lognote>https://www.youtube.com/watch?v=2TOm5fufLrM</lognote>
									<good></good>
									<originalvideofilename></originalvideofilename>
									<originalaudiofilename></originalaudiofilename>
								</logginginfo>
								<colorinfo>
									<lut></lut>
									<lut1></lut1>
									<asc_sop></asc_sop>
									<asc_sat></asc_sat>
									<lut2></lut2>
								</colorinfo>
								<labels>
									<label2>Iris</label2>
								</labels>
							</clip>
							<clip id="masterclip-374" explodedTracks="true">
								<uuid>6d974d08-9c89-44cb-b1f6-1abf58edddea</uuid>
								<masterclipid>masterclip-374</masterclipid>
								<ismasterclip>TRUE</ismasterclip>
								<duration>14871</duration>
								<rate>
									<timebase>60</timebase>
									<ntsc>FALSE</ntsc>
								</rate>
								<out>14870</out>
								<name>(Loup Faillard)_FPV -  The castle (HD)_ikFII1JLNG4_YT.mp4</name>
								<media>
									<video>
										<track>
											<clipitem id="clipitem-960">
												<masterclipid>masterclip-374</masterclipid>
												<name>(Loup Faillard)_FPV -  The castle (HD)_ikFII1JLNG4_YT.mp4</name>
												<rate>
													<timebase>60</timebase>
													<ntsc>FALSE</ntsc>
												</rate>
												<alphatype>none</alphatype>
												<pixelaspectratio>square</pixelaspectratio>
												<anamorphic>FALSE</anamorphic>
												<file id="file-346">
													<name>(Loup Faillard)_FPV -  The castle (HD)_ikFII1JLNG4_YT.mp4</name>
													<pathurl>file://localhost/Volumes/T7/DRONE_08.18.2023/3_Raw%20Files/Various%20Files/(Loup%20Faillard)_FPV%20-%20%20The%20castle%20(HD)_ikFII1JLNG4_YT.mp4</pathurl>
													<rate>
														<timebase>60</timebase>
														<ntsc>FALSE</ntsc>
													</rate>
													<duration>14871</duration>
													<timecode>
														<rate>
															<timebase>60</timebase>
															<ntsc>FALSE</ntsc>
														</rate>
														<string>00:00:00:00</string>
														<frame>0</frame>
														<displayformat>NDF</displayformat>
													</timecode>
													<media>
														<video>
															<samplecharacteristics>
																<rate>
																	<timebase>60</timebase>
																	<ntsc>FALSE</ntsc>
																</rate>
																<width>1746</width>
																<height>1080</height>
																<anamorphic>FALSE</anamorphic>
																<pixelaspectratio>square</pixelaspectratio>
																<fielddominance>none</fielddominance>
															</samplecharacteristics>
														</video>
														<audio>
															<samplecharacteristics>
																<depth>16</depth>
																<samplerate>44100</samplerate>
															</samplecharacteristics>
															<channelcount>2</channelcount>
														</audio>
													</media>
												</file>
												<link>
													<linkclipref>clipitem-960</linkclipref>
													<mediatype>video</mediatype>
													<trackindex>1</trackindex>
													<clipindex>1</clipindex>
												</link>
												<link>
													<linkclipref>clipitem-961</linkclipref>
													<mediatype>audio</mediatype>
													<trackindex>1</trackindex>
													<clipindex>1</clipindex>
													<groupindex>1</groupindex>
												</link>
												<link>
													<linkclipref>clipitem-962</linkclipref>
													<mediatype>audio</mediatype>
													<trackindex>2</trackindex>
													<clipindex>1</clipindex>
													<groupindex>1</groupindex>
												</link>
											</clipitem>
										</track>
									</video>
									<audio>
										<track>
											<clipitem id="clipitem-961">
												<masterclipid>masterclip-374</masterclipid>
												<name>(Loup Faillard)_FPV -  The castle (HD)_ikFII1JLNG4_YT.mp4</name>
												<rate>
													<timebase>60</timebase>
													<ntsc>FALSE</ntsc>
												</rate>
												<file id="file-346"/>
												<sourcetrack>
													<mediatype>audio</mediatype>
													<trackindex>1</trackindex>
												</sourcetrack>
												<link>
													<linkclipref>clipitem-960</linkclipref>
													<mediatype>video</mediatype>
													<trackindex>1</trackindex>
													<clipindex>1</clipindex>
												</link>
												<link>
													<linkclipref>clipitem-961</linkclipref>
													<mediatype>audio</mediatype>
													<trackindex>1</trackindex>
													<clipindex>1</clipindex>
													<groupindex>1</groupindex>
												</link>
												<link>
													<linkclipref>clipitem-962</linkclipref>
													<mediatype>audio</mediatype>
													<trackindex>2</trackindex>
													<clipindex>1</clipindex>
													<groupindex>1</groupindex>
												</link>
											</clipitem>
										</track>
										<track>
											<clipitem id="clipitem-962">
												<masterclipid>masterclip-374</masterclipid>
												<name>(Loup Faillard)_FPV -  The castle (HD)_ikFII1JLNG4_YT.mp4</name>
												<rate>
													<timebase>60</timebase>
													<ntsc>FALSE</ntsc>
												</rate>
												<file id="file-346"/>
												<sourcetrack>
													<mediatype>audio</mediatype>
													<trackindex>2</trackindex>
												</sourcetrack>
												<link>
													<linkclipref>clipitem-960</linkclipref>
													<mediatype>video</mediatype>
													<trackindex>1</trackindex>
													<clipindex>1</clipindex>
												</link>
												<link>
													<linkclipref>clipitem-961</linkclipref>
													<mediatype>audio</mediatype>
													<trackindex>1</trackindex>
													<clipindex>1</clipindex>
													<groupindex>1</groupindex>
												</link>
												<link>
													<linkclipref>clipitem-962</linkclipref>
													<mediatype>audio</mediatype>
													<trackindex>2</trackindex>
													<clipindex>1</clipindex>
													<groupindex>1</groupindex>
												</link>
											</clipitem>
										</track>
									</audio>
								</media>
								<logginginfo>
									<description></description>
									<scene></scene>
									<shottake></shottake>
									<lognote>https://www.youtube.com/watch?v=ikFII1JLNG4</lognote>
									<good></good>
									<originalvideofilename></originalvideofilename>
									<originalaudiofilename></originalaudiofilename>
								</logginginfo>
								<colorinfo>
									<lut></lut>
									<lut1></lut1>
									<asc_sop></asc_sop>
									<asc_sat></asc_sat>
									<lut2></lut2>
								</colorinfo>
								<labels>
									<label2>Iris</label2>
								</labels>
							</clip>
							<bin>
								<name>Various Files</name>
								<labels>
									<label2>Mango</label2>
								</labels>
								<children>
									<clip id="masterclip-326" explodedTracks="true">
										<uuid>ee42d3db-cd1c-4a1d-81c0-a08be8d9188d</uuid>
										<masterclipid>masterclip-326</masterclipid>
										<ismasterclip>TRUE</ismasterclip>
										<duration>7453</duration>
										<rate>
											<timebase>60</timebase>
											<ntsc>TRUE</ntsc>
										</rate>
										<name>(LOUD fpv)_Strolling after the harvest_bcD9SOmXz5o_YT.mp4</name>
										<media>
											<video>
												<track>
													<clipitem id="clipitem-963">
														<masterclipid>masterclip-326</masterclipid>
														<name>(LOUD fpv)_Strolling after the harvest_bcD9SOmXz5o_YT.mp4</name>
														<rate>
															<timebase>60</timebase>
															<ntsc>TRUE</ntsc>
														</rate>
														<alphatype>none</alphatype>
														<file id="file-298"/>
														<link>
															<linkclipref>clipitem-963</linkclipref>
															<mediatype>video</mediatype>
															<trackindex>1</trackindex>
															<clipindex>1</clipindex>
														</link>
														<link>
															<linkclipref>clipitem-964</linkclipref>
															<mediatype>audio</mediatype>
															<trackindex>1</trackindex>
															<clipindex>1</clipindex>
															<groupindex>1</groupindex>
														</link>
														<link>
															<linkclipref>clipitem-965</linkclipref>
															<mediatype>audio</mediatype>
															<trackindex>2</trackindex>
															<clipindex>1</clipindex>
															<groupindex>1</groupindex>
														</link>
													</clipitem>
												</track>
											</video>
											<audio>
												<track>
													<clipitem id="clipitem-964">
														<masterclipid>masterclip-326</masterclipid>
														<name>(LOUD fpv)_Strolling after the harvest_bcD9SOmXz5o_YT.mp4</name>
														<rate>
															<timebase>60</timebase>
															<ntsc>TRUE</ntsc>
														</rate>
														<file id="file-298"/>
														<sourcetrack>
															<mediatype>audio</mediatype>
															<trackindex>1</trackindex>
														</sourcetrack>
														<link>
															<linkclipref>clipitem-963</linkclipref>
															<mediatype>video</mediatype>
															<trackindex>1</trackindex>
															<clipindex>1</clipindex>
														</link>
														<link>
															<linkclipref>clipitem-964</linkclipref>
															<mediatype>audio</mediatype>
															<trackindex>1</trackindex>
															<clipindex>1</clipindex>
															<groupindex>1</groupindex>
														</link>
														<link>
															<linkclipref>clipitem-965</linkclipref>
															<mediatype>audio</mediatype>
															<trackindex>2</trackindex>
															<clipindex>1</clipindex>
															<groupindex>1</groupindex>
														</link>
													</clipitem>
												</track>
												<track>
													<clipitem id="clipitem-965">
														<masterclipid>masterclip-326</masterclipid>
														<name>(LOUD fpv)_Strolling after the harvest_bcD9SOmXz5o_YT.mp4</name>
														<rate>
															<timebase>60</timebase>
															<ntsc>TRUE</ntsc>
														</rate>
														<file id="file-298"/>
														<sourcetrack>
															<mediatype>audio</mediatype>
															<trackindex>2</trackindex>
														</sourcetrack>
														<link>
															<linkclipref>clipitem-963</linkclipref>
															<mediatype>video</mediatype>
															<trackindex>1</trackindex>
															<clipindex>1</clipindex>
														</link>
														<link>
															<linkclipref>clipitem-964</linkclipref>
															<mediatype>audio</mediatype>
															<trackindex>1</trackindex>
															<clipindex>1</clipindex>
															<groupindex>1</groupindex>
														</link>
														<link>
															<linkclipref>clipitem-965</linkclipref>
															<mediatype>audio</mediatype>
															<trackindex>2</trackindex>
															<clipindex>1</clipindex>
															<groupindex>1</groupindex>
														</link>
													</clipitem>
												</track>
											</audio>
										</media>
										<logginginfo>
											<description></description>
											<scene></scene>
											<shottake></shottake>
											<lognote>https://www.youtube.com/watch?v=bcD9SOmXz5o</lognote>
											<good></good>
											<originalvideofilename></originalvideofilename>
											<originalaudiofilename></originalaudiofilename>
										</logginginfo>
										<colorinfo>
											<lut></lut>
											<lut1></lut1>
											<asc_sop></asc_sop>
											<asc_sat></asc_sat>
											<lut2></lut2>
										</colorinfo>
										<labels>
											<label2>Iris</label2>
										</labels>
									</clip>
								</children>
							</bin>
							<clip id="masterclip-325" explodedTracks="true">
								<uuid>d4e72d5e-8290-42f4-9d23-87b2877e19f0</uuid>
								<masterclipid>masterclip-325</masterclipid>
								<ismasterclip>TRUE</ismasterclip>
								<duration>3081</duration>
								<rate>
									<timebase>60</timebase>
									<ntsc>TRUE</ntsc>
								</rate>
								<name>(LOUD fpv)_SUNSET_XuOQ1_yrYoE_YT.mp4</name>
								<media>
									<video>
										<track>
											<clipitem id="clipitem-966">
												<masterclipid>masterclip-325</masterclipid>
												<name>(LOUD fpv)_SUNSET_XuOQ1_yrYoE_YT.mp4</name>
												<rate>
													<timebase>60</timebase>
													<ntsc>TRUE</ntsc>
												</rate>
												<alphatype>none</alphatype>
												<file id="file-297"/>
												<link>
													<linkclipref>clipitem-966</linkclipref>
													<mediatype>video</mediatype>
													<trackindex>1</trackindex>
													<clipindex>1</clipindex>
												</link>
												<link>
													<linkclipref>clipitem-967</linkclipref>
													<mediatype>audio</mediatype>
													<trackindex>1</trackindex>
													<clipindex>1</clipindex>
													<groupindex>1</groupindex>
												</link>
												<link>
													<linkclipref>clipitem-968</linkclipref>
													<mediatype>audio</mediatype>
													<trackindex>2</trackindex>
													<clipindex>1</clipindex>
													<groupindex>1</groupindex>
												</link>
											</clipitem>
										</track>
									</video>
									<audio>
										<track>
											<clipitem id="clipitem-967">
												<masterclipid>masterclip-325</masterclipid>
												<name>(LOUD fpv)_SUNSET_XuOQ1_yrYoE_YT.mp4</name>
												<rate>
													<timebase>60</timebase>
													<ntsc>TRUE</ntsc>
												</rate>
												<file id="file-297"/>
												<sourcetrack>
													<mediatype>audio</mediatype>
													<trackindex>1</trackindex>
												</sourcetrack>
												<link>
													<linkclipref>clipitem-966</linkclipref>
													<mediatype>video</mediatype>
													<trackindex>1</trackindex>
													<clipindex>1</clipindex>
												</link>
												<link>
													<linkclipref>clipitem-967</linkclipref>
													<mediatype>audio</mediatype>
													<trackindex>1</trackindex>
													<clipindex>1</clipindex>
													<groupindex>1</groupindex>
												</link>
												<link>
													<linkclipref>clipitem-968</linkclipref>
													<mediatype>audio</mediatype>
													<trackindex>2</trackindex>
													<clipindex>1</clipindex>
													<groupindex>1</groupindex>
												</link>
											</clipitem>
										</track>
										<track>
											<clipitem id="clipitem-968">
												<masterclipid>masterclip-325</masterclipid>
												<name>(LOUD fpv)_SUNSET_XuOQ1_yrYoE_YT.mp4</name>
												<rate>
													<timebase>60</timebase>
													<ntsc>TRUE</ntsc>
												</rate>
												<file id="file-297"/>
												<sourcetrack>
													<mediatype>audio</mediatype>
													<trackindex>2</trackindex>
												</sourcetrack>
												<link>
													<linkclipref>clipitem-966</linkclipref>
													<mediatype>video</mediatype>
													<trackindex>1</trackindex>
													<clipindex>1</clipindex>
												</link>
												<link>
													<linkclipref>clipitem-967</linkclipref>
													<mediatype>audio</mediatype>
													<trackindex>1</trackindex>
													<clipindex>1</clipindex>
													<groupindex>1</groupindex>
												</link>
												<link>
													<linkclipref>clipitem-968</linkclipref>
													<mediatype>audio</mediatype>
													<trackindex>2</trackindex>
													<clipindex>1</clipindex>
													<groupindex>1</groupindex>
												</link>
											</clipitem>
										</track>
									</audio>
								</media>
								<logginginfo>
									<description></description>
									<scene></scene>
									<shottake></shottake>
									<lognote>https://www.youtube.com/watch?v=XuOQ1_yrYoE</lognote>
									<good></good>
									<originalvideofilename></originalvideofilename>
									<originalaudiofilename></originalaudiofilename>
								</logginginfo>
								<colorinfo>
									<lut></lut>
									<lut1></lut1>
									<asc_sop></asc_sop>
									<asc_sat></asc_sat>
									<lut2></lut2>
								</colorinfo>
								<labels>
									<label2>Iris</label2>
								</labels>
							</clip>
						</children>
					</bin>
					<bin>
						<name>Hollywood Sign</name>
						<labels>
							<label2>Mango</label2>
						</labels>
						<children>
							<clip id="masterclip-226" explodedTracks="true">
								<uuid>b851fcf6-22cb-43e4-8947-b4b7fe35dade</uuid>
								<masterclipid>masterclip-226</masterclipid>
								<ismasterclip>TRUE</ismasterclip>
								<duration>375</duration>
								<rate>
									<timebase>23</timebase>
									<ntsc>FALSE</ntsc>
								</rate>
								<name>aerial-drone-shot-of-residential-los-angeles-suburban-housing-district-area-4k-SBV-347658818-HD.mp4</name>
								<media>
									<video>
										<track>
											<clipitem id="clipitem-969">
												<masterclipid>masterclip-226</masterclipid>
												<name>aerial-drone-shot-of-residential-los-angeles-suburban-housing-district-area-4k-SBV-347658818-HD.mp4</name>
												<rate>
													<timebase>23</timebase>
													<ntsc>FALSE</ntsc>
												</rate>
												<alphatype>none</alphatype>
												<file id="file-209"/>
											</clipitem>
										</track>
									</video>
								</media>
								<logginginfo>
									<description></description>
									<scene></scene>
									<shottake></shottake>
									<lognote></lognote>
									<good></good>
									<originalvideofilename></originalvideofilename>
									<originalaudiofilename></originalaudiofilename>
								</logginginfo>
								<colorinfo>
									<lut></lut>
									<lut1></lut1>
									<asc_sop></asc_sop>
									<asc_sat></asc_sat>
									<lut2></lut2>
								</colorinfo>
								<labels>
									<label2>Violet</label2>
								</labels>
							</clip>
							<clip id="masterclip-219" explodedTracks="true">
								<uuid>f44776ed-6970-46c7-89a1-c695fdd0909a</uuid>
								<masterclipid>masterclip-219</masterclipid>
								<ismasterclip>TRUE</ismasterclip>
								<duration>600</duration>
								<rate>
									<timebase>23</timebase>
									<ntsc>FALSE</ntsc>
								</rate>
								<name>amazing-high-end-residential-house-settled-on-top-of-a-grassy-area-beautiful-home-o-SBV-347760362-HD.mp4</name>
								<media>
									<video>
										<track>
											<clipitem id="clipitem-970">
												<masterclipid>masterclip-219</masterclipid>
												<name>amazing-high-end-residential-house-settled-on-top-of-a-grassy-area-beautiful-home-o-SBV-347760362-HD.mp4</name>
												<rate>
													<timebase>23</timebase>
													<ntsc>FALSE</ntsc>
												</rate>
												<alphatype>none</alphatype>
												<file id="file-202"/>
											</clipitem>
										</track>
									</video>
								</media>
								<logginginfo>
									<description></description>
									<scene></scene>
									<shottake></shottake>
									<lognote></lognote>
									<good></good>
									<originalvideofilename></originalvideofilename>
									<originalaudiofilename></originalaudiofilename>
								</logginginfo>
								<colorinfo>
									<lut></lut>
									<lut1></lut1>
									<asc_sop></asc_sop>
									<asc_sat></asc_sat>
									<lut2></lut2>
								</colorinfo>
								<labels>
									<label2>Violet</label2>
								</labels>
							</clip>
							<clip id="masterclip-218" explodedTracks="true">
								<uuid>101a1057-e785-4a90-bc46-57b97b55148c</uuid>
								<masterclipid>masterclip-218</masterclipid>
								<ismasterclip>TRUE</ismasterclip>
								<duration>429</duration>
								<rate>
									<timebase>23</timebase>
									<ntsc>FALSE</ntsc>
								</rate>
								<name>cinematic-close-up-hollywood-sign-on-beautiful-green-hills-at-sunny-summer-4k-SBV-347523891-HD.mp4</name>
								<media>
									<video>
										<track>
											<clipitem id="clipitem-971">
												<masterclipid>masterclip-218</masterclipid>
												<name>cinematic-close-up-hollywood-sign-on-beautiful-green-hills-at-sunny-summer-4k-SBV-347523891-HD.mp4</name>
												<rate>
													<timebase>23</timebase>
													<ntsc>FALSE</ntsc>
												</rate>
												<alphatype>none</alphatype>
												<file id="file-201"/>
											</clipitem>
										</track>
									</video>
								</media>
								<logginginfo>
									<description></description>
									<scene></scene>
									<shottake></shottake>
									<lognote></lognote>
									<good></good>
									<originalvideofilename></originalvideofilename>
									<originalaudiofilename></originalaudiofilename>
								</logginginfo>
								<colorinfo>
									<lut></lut>
									<lut1></lut1>
									<asc_sop></asc_sop>
									<asc_sat></asc_sat>
									<lut2></lut2>
								</colorinfo>
								<labels>
									<label2>Violet</label2>
								</labels>
							</clip>
							<clip id="masterclip-220" explodedTracks="true">
								<uuid>0269df4c-261b-415e-8385-2650ff0d5429</uuid>
								<masterclipid>masterclip-220</masterclipid>
								<ismasterclip>TRUE</ismasterclip>
								<duration>563</duration>
								<rate>
									<timebase>23</timebase>
									<ntsc>FALSE</ntsc>
								</rate>
								<name>drone-shots-of-mansions-on-hollywood-hills-in-los-feliz-area-in-los-angeles-ca-SBV-347525696-HD.mp4</name>
								<media>
									<video>
										<track>
											<clipitem id="clipitem-972">
												<masterclipid>masterclip-220</masterclipid>
												<name>drone-shots-of-mansions-on-hollywood-hills-in-los-feliz-area-in-los-angeles-ca-SBV-347525696-HD.mp4</name>
												<rate>
													<timebase>23</timebase>
													<ntsc>FALSE</ntsc>
												</rate>
												<alphatype>none</alphatype>
												<file id="file-203"/>
											</clipitem>
										</track>
									</video>
								</media>
								<logginginfo>
									<description></description>
									<scene></scene>
									<shottake></shottake>
									<lognote></lognote>
									<good></good>
									<originalvideofilename></originalvideofilename>
									<originalaudiofilename></originalaudiofilename>
								</logginginfo>
								<colorinfo>
									<lut></lut>
									<lut1></lut1>
									<asc_sop></asc_sop>
									<asc_sat></asc_sat>
									<lut2></lut2>
								</colorinfo>
								<labels>
									<label2>Violet</label2>
								</labels>
							</clip>
							<clip id="masterclip-227" explodedTracks="true">
								<uuid>9a36b9e2-33b7-4b8e-9be8-dcc46030b1ec</uuid>
								<masterclipid>masterclip-227</masterclipid>
								<ismasterclip>TRUE</ismasterclip>
								<duration>461</duration>
								<rate>
									<timebase>23</timebase>
									<ntsc>FALSE</ntsc>
								</rate>
								<name>forwards-fly-above-road-lined-by-palm-trees-and-luxurious-residencies-famous-beverl-SBV-347678063-HD.mp4</name>
								<media>
									<video>
										<track>
											<clipitem id="clipitem-973">
												<masterclipid>masterclip-227</masterclipid>
												<name>forwards-fly-above-road-lined-by-palm-trees-and-luxurious-residencies-famous-beverl-SBV-347678063-HD.mp4</name>
												<rate>
													<timebase>23</timebase>
													<ntsc>FALSE</ntsc>
												</rate>
												<alphatype>none</alphatype>
												<file id="file-210"/>
											</clipitem>
										</track>
									</video>
								</media>
								<logginginfo>
									<description></description>
									<scene></scene>
									<shottake></shottake>
									<lognote></lognote>
									<good></good>
									<originalvideofilename></originalvideofilename>
									<originalaudiofilename></originalaudiofilename>
								</logginginfo>
								<colorinfo>
									<lut></lut>
									<lut1></lut1>
									<asc_sop></asc_sop>
									<asc_sat></asc_sat>
									<lut2></lut2>
								</colorinfo>
								<labels>
									<label2>Violet</label2>
								</labels>
							</clip>
							<clip id="masterclip-223" explodedTracks="true">
								<uuid>af5a3d23-293d-4327-9db8-c830ddac917d</uuid>
								<masterclipid>masterclip-223</masterclipid>
								<ismasterclip>TRUE</ismasterclip>
								<duration>305</duration>
								<rate>
									<timebase>23</timebase>
									<ntsc>FALSE</ntsc>
								</rate>
								<name>iconic-american-landmark-travel-to-west-coast-in-california-hollywood-at-sunset-SBV-347502180-HD.mp4</name>
								<media>
									<video>
										<track>
											<clipitem id="clipitem-974">
												<masterclipid>masterclip-223</masterclipid>
												<name>iconic-american-landmark-travel-to-west-coast-in-california-hollywood-at-sunset-SBV-347502180-HD.mp4</name>
												<rate>
													<timebase>23</timebase>
													<ntsc>FALSE</ntsc>
												</rate>
												<alphatype>none</alphatype>
												<file id="file-206"/>
											</clipitem>
										</track>
									</video>
								</media>
								<logginginfo>
									<description></description>
									<scene></scene>
									<shottake></shottake>
									<lognote></lognote>
									<good></good>
									<originalvideofilename></originalvideofilename>
									<originalaudiofilename></originalaudiofilename>
								</logginginfo>
								<colorinfo>
									<lut></lut>
									<lut1></lut1>
									<asc_sop></asc_sop>
									<asc_sat></asc_sat>
									<lut2></lut2>
								</colorinfo>
								<labels>
									<label2>Violet</label2>
								</labels>
							</clip>
							<clip id="masterclip-221" explodedTracks="true">
								<uuid>46f40ad9-2142-40c0-a3bc-9ced704aa74b</uuid>
								<masterclipid>masterclip-221</masterclipid>
								<ismasterclip>TRUE</ismasterclip>
								<duration>360</duration>
								<rate>
									<timebase>23</timebase>
									<ntsc>FALSE</ntsc>
								</rate>
								<name>los-angeles-at-golden-sunset-hour-california-usa-aerial-drone-griffith-park-SBV-347440326-HD.mp4</name>
								<media>
									<video>
										<track>
											<clipitem id="clipitem-975">
												<masterclipid>masterclip-221</masterclipid>
												<name>los-angeles-at-golden-sunset-hour-california-usa-aerial-drone-griffith-park-SBV-347440326-HD.mp4</name>
												<rate>
													<timebase>23</timebase>
													<ntsc>FALSE</ntsc>
												</rate>
												<alphatype>none</alphatype>
												<file id="file-204"/>
											</clipitem>
										</track>
									</video>
								</media>
								<logginginfo>
									<description></description>
									<scene></scene>
									<shottake></shottake>
									<lognote></lognote>
									<good></good>
									<originalvideofilename></originalvideofilename>
									<originalaudiofilename></originalaudiofilename>
								</logginginfo>
								<colorinfo>
									<lut></lut>
									<lut1></lut1>
									<asc_sop></asc_sop>
									<asc_sat></asc_sat>
									<lut2></lut2>
								</colorinfo>
								<labels>
									<label2>Violet</label2>
								</labels>
							</clip>
							<clip id="masterclip-228" explodedTracks="true">
								<uuid>678d86dd-7dcb-411a-a458-390885867d73</uuid>
								<masterclipid>masterclip-228</masterclipid>
								<ismasterclip>TRUE</ismasterclip>
								<duration>293</duration>
								<rate>
									<timebase>23</timebase>
									<ntsc>FALSE</ntsc>
								</rate>
								<name>los-angeles-california-usa-aerial-drone-landmark-hollywood-sign-on-green-hills-SBV-347440328-HD.mp4</name>
								<media>
									<video>
										<track>
											<clipitem id="clipitem-976">
												<masterclipid>masterclip-228</masterclipid>
												<name>los-angeles-california-usa-aerial-drone-landmark-hollywood-sign-on-green-hills-SBV-347440328-HD.mp4</name>
												<rate>
													<timebase>23</timebase>
													<ntsc>FALSE</ntsc>
												</rate>
												<alphatype>none</alphatype>
												<file id="file-211"/>
											</clipitem>
										</track>
									</video>
								</media>
								<logginginfo>
									<description></description>
									<scene></scene>
									<shottake></shottake>
									<lognote></lognote>
									<good></good>
									<originalvideofilename></originalvideofilename>
									<originalaudiofilename></originalaudiofilename>
								</logginginfo>
								<colorinfo>
									<lut></lut>
									<lut1></lut1>
									<asc_sop></asc_sop>
									<asc_sat></asc_sat>
									<lut2></lut2>
								</colorinfo>
								<labels>
									<label2>Violet</label2>
								</labels>
							</clip>
							<clip id="masterclip-222" explodedTracks="true">
								<uuid>c0e90965-fe6f-46fa-a12f-eef461380961</uuid>
								<masterclipid>masterclip-222</masterclipid>
								<ismasterclip>TRUE</ismasterclip>
								<duration>378</duration>
								<rate>
									<timebase>23</timebase>
									<ntsc>FALSE</ntsc>
								</rate>
								<name>los-angeles-california-usa-scenic-aerial-view-of-world-famous-griffith-observatory--SBV-347584311-HD.mp4</name>
								<media>
									<video>
										<track>
											<clipitem id="clipitem-977">
												<masterclipid>masterclip-222</masterclipid>
												<name>los-angeles-california-usa-scenic-aerial-view-of-world-famous-griffith-observatory--SBV-347584311-HD.mp4</name>
												<rate>
													<timebase>23</timebase>
													<ntsc>FALSE</ntsc>
												</rate>
												<alphatype>none</alphatype>
												<file id="file-205"/>
											</clipitem>
										</track>
									</video>
								</media>
								<logginginfo>
									<description></description>
									<scene></scene>
									<shottake></shottake>
									<lognote></lognote>
									<good></good>
									<originalvideofilename></originalvideofilename>
									<originalaudiofilename></originalaudiofilename>
								</logginginfo>
								<colorinfo>
									<lut></lut>
									<lut1></lut1>
									<asc_sop></asc_sop>
									<asc_sat></asc_sat>
									<lut2></lut2>
								</colorinfo>
								<labels>
									<label2>Violet</label2>
								</labels>
							</clip>
							<clip id="masterclip-224" explodedTracks="true">
								<uuid>d7d17ec1-5b2d-421a-929c-bc713010accf</uuid>
								<masterclipid>masterclip-224</masterclipid>
								<ismasterclip>TRUE</ismasterclip>
								<duration>355</duration>
								<rate>
									<timebase>23</timebase>
									<ntsc>FALSE</ntsc>
								</rate>
								<name>los-angeles-downtown-view-cinematic-sunset-drone-flying-fast-above-palm-trees-SBV-347440314-HD.mp4</name>
								<media>
									<video>
										<track>
											<clipitem id="clipitem-978">
												<masterclipid>masterclip-224</masterclipid>
												<name>los-angeles-downtown-view-cinematic-sunset-drone-flying-fast-above-palm-trees-SBV-347440314-HD.mp4</name>
												<rate>
													<timebase>23</timebase>
													<ntsc>FALSE</ntsc>
												</rate>
												<alphatype>none</alphatype>
												<file id="file-207"/>
											</clipitem>
										</track>
									</video>
								</media>
								<logginginfo>
									<description></description>
									<scene></scene>
									<shottake></shottake>
									<lognote></lognote>
									<good></good>
									<originalvideofilename></originalvideofilename>
									<originalaudiofilename></originalaudiofilename>
								</logginginfo>
								<colorinfo>
									<lut></lut>
									<lut1></lut1>
									<asc_sop></asc_sop>
									<asc_sat></asc_sat>
									<lut2></lut2>
								</colorinfo>
								<labels>
									<label2>Violet</label2>
								</labels>
							</clip>
							<clip id="masterclip-375" explodedTracks="true">
								<uuid>282bde3e-294c-4022-af35-34c2d3b1d335</uuid>
								<masterclipid>masterclip-375</masterclipid>
								<ismasterclip>TRUE</ismasterclip>
								<duration>600</duration>
								<rate>
									<timebase>23</timebase>
									<ntsc>FALSE</ntsc>
								</rate>
								<name>los-angeles-hollywood-sign-aerial-shot-from-drone-west-coast-california-usa-SBV-347440339-HD.mp4</name>
								<media>
									<video>
										<track>
											<clipitem id="clipitem-979">
												<masterclipid>masterclip-375</masterclipid>
												<name>los-angeles-hollywood-sign-aerial-shot-from-drone-west-coast-california-usa-SBV-347440339-HD.mp4</name>
												<rate>
													<timebase>23</timebase>
													<ntsc>FALSE</ntsc>
												</rate>
												<alphatype>none</alphatype>
												<pixelaspectratio>square</pixelaspectratio>
												<anamorphic>FALSE</anamorphic>
												<file id="file-347">
													<name>los-angeles-hollywood-sign-aerial-shot-from-drone-west-coast-california-usa-SBV-347440339-HD.mp4</name>
													<pathurl>file://localhost/Volumes/T7/DRONE_08.18.2023/3_Raw%20Files/Hollywood%20Sign/los-angeles-hollywood-sign-aerial-shot-from-drone-west-coast-california-usa-SBV-347440339-HD.mp4</pathurl>
													<rate>
														<timebase>23</timebase>
														<ntsc>FALSE</ntsc>
													</rate>
													<duration>600</duration>
													<timecode>
														<rate>
															<timebase>23</timebase>
															<ntsc>FALSE</ntsc>
														</rate>
														<string>00:00:00:00</string>
														<frame>0</frame>
														<displayformat>NDF</displayformat>
													</timecode>
													<media>
														<video>
															<samplecharacteristics>
																<rate>
																	<timebase>23</timebase>
																	<ntsc>FALSE</ntsc>
																</rate>
																<width>1920</width>
																<height>1080</height>
																<anamorphic>FALSE</anamorphic>
																<pixelaspectratio>square</pixelaspectratio>
																<fielddominance>none</fielddominance>
															</samplecharacteristics>
														</video>
													</media>
												</file>
											</clipitem>
										</track>
									</video>
								</media>
								<logginginfo>
									<description></description>
									<scene></scene>
									<shottake></shottake>
									<lognote></lognote>
									<good></good>
									<originalvideofilename></originalvideofilename>
									<originalaudiofilename></originalaudiofilename>
								</logginginfo>
								<colorinfo>
									<lut></lut>
									<lut1></lut1>
									<asc_sop></asc_sop>
									<asc_sat></asc_sat>
									<lut2></lut2>
								</colorinfo>
								<labels>
									<label2>Violet</label2>
								</labels>
							</clip>
							<clip id="masterclip-225" explodedTracks="true">
								<uuid>33f2176f-0657-4c97-ab20-1e770e161d5c</uuid>
								<masterclipid>masterclip-225</masterclipid>
								<ismasterclip>TRUE</ismasterclip>
								<duration>362</duration>
								<rate>
									<timebase>23</timebase>
									<ntsc>FALSE</ntsc>
								</rate>
								<name>top-view-drone-rising-above-incredible-complex-highway-junction-in-los-angeles-with-SBV-327556319-HD.mp4</name>
								<media>
									<video>
										<track>
											<clipitem id="clipitem-980">
												<masterclipid>masterclip-225</masterclipid>
												<name>top-view-drone-rising-above-incredible-complex-highway-junction-in-los-angeles-with-SBV-327556319-HD.mp4</name>
												<rate>
													<timebase>23</timebase>
													<ntsc>FALSE</ntsc>
												</rate>
												<alphatype>none</alphatype>
												<file id="file-208"/>
												<link>
													<linkclipref>clipitem-980</linkclipref>
													<mediatype>video</mediatype>
													<trackindex>1</trackindex>
													<clipindex>1</clipindex>
												</link>
												<link>
													<linkclipref>clipitem-981</linkclipref>
													<mediatype>audio</mediatype>
													<trackindex>1</trackindex>
													<clipindex>1</clipindex>
													<groupindex>1</groupindex>
												</link>
												<link>
													<linkclipref>clipitem-982</linkclipref>
													<mediatype>audio</mediatype>
													<trackindex>2</trackindex>
													<clipindex>1</clipindex>
													<groupindex>1</groupindex>
												</link>
											</clipitem>
										</track>
									</video>
									<audio>
										<track>
											<clipitem id="clipitem-981">
												<masterclipid>masterclip-225</masterclipid>
												<name>top-view-drone-rising-above-incredible-complex-highway-junction-in-los-angeles-with-SBV-327556319-HD.mp4</name>
												<rate>
													<timebase>23</timebase>
													<ntsc>FALSE</ntsc>
												</rate>
												<file id="file-208"/>
												<sourcetrack>
													<mediatype>audio</mediatype>
													<trackindex>1</trackindex>
												</sourcetrack>
												<link>
													<linkclipref>clipitem-980</linkclipref>
													<mediatype>video</mediatype>
													<trackindex>1</trackindex>
													<clipindex>1</clipindex>
												</link>
												<link>
													<linkclipref>clipitem-981</linkclipref>
													<mediatype>audio</mediatype>
													<trackindex>1</trackindex>
													<clipindex>1</clipindex>
													<groupindex>1</groupindex>
												</link>
												<link>
													<linkclipref>clipitem-982</linkclipref>
													<mediatype>audio</mediatype>
													<trackindex>2</trackindex>
													<clipindex>1</clipindex>
													<groupindex>1</groupindex>
												</link>
											</clipitem>
										</track>
										<track>
											<clipitem id="clipitem-982">
												<masterclipid>masterclip-225</masterclipid>
												<name>top-view-drone-rising-above-incredible-complex-highway-junction-in-los-angeles-with-SBV-327556319-HD.mp4</name>
												<rate>
													<timebase>23</timebase>
													<ntsc>FALSE</ntsc>
												</rate>
												<file id="file-208"/>
												<sourcetrack>
													<mediatype>audio</mediatype>
													<trackindex>2</trackindex>
												</sourcetrack>
												<link>
													<linkclipref>clipitem-980</linkclipref>
													<mediatype>video</mediatype>
													<trackindex>1</trackindex>
													<clipindex>1</clipindex>
												</link>
												<link>
													<linkclipref>clipitem-981</linkclipref>
													<mediatype>audio</mediatype>
													<trackindex>1</trackindex>
													<clipindex>1</clipindex>
													<groupindex>1</groupindex>
												</link>
												<link>
													<linkclipref>clipitem-982</linkclipref>
													<mediatype>audio</mediatype>
													<trackindex>2</trackindex>
													<clipindex>1</clipindex>
													<groupindex>1</groupindex>
												</link>
											</clipitem>
										</track>
									</audio>
								</media>
								<logginginfo>
									<description></description>
									<scene></scene>
									<shottake></shottake>
									<lognote></lognote>
									<good></good>
									<originalvideofilename></originalvideofilename>
									<originalaudiofilename></originalaudiofilename>
								</logginginfo>
								<colorinfo>
									<lut></lut>
									<lut1></lut1>
									<asc_sop></asc_sop>
									<asc_sat></asc_sat>
									<lut2></lut2>
								</colorinfo>
								<labels>
									<label2>Iris</label2>
								</labels>
							</clip>
						</children>
					</bin>
					<bin>
						<name>Guan Yin, Thailand</name>
						<labels>
							<label2>Mango</label2>
						</labels>
						<children>
							<clip id="masterclip-146" explodedTracks="true">
								<uuid>aeaaf7f1-91ed-4a95-9287-e12c151e4d5a</uuid>
								<masterclipid>masterclip-146</masterclipid>
								<ismasterclip>TRUE</ismasterclip>
								<duration>1510</duration>
								<rate>
									<timebase>29</timebase>
									<ntsc>FALSE</ntsc>
								</rate>
								<name>aerial-view-of-statue-of-guan-yin-in-thailand-SBV-338964989-HD.mp4</name>
								<media>
									<video>
										<track>
											<clipitem id="clipitem-983">
												<masterclipid>masterclip-146</masterclipid>
												<name>aerial-view-of-statue-of-guan-yin-in-thailand-SBV-338964989-HD.mp4</name>
												<rate>
													<timebase>29</timebase>
													<ntsc>FALSE</ntsc>
												</rate>
												<alphatype>none</alphatype>
												<file id="file-144"/>
											</clipitem>
										</track>
									</video>
								</media>
								<logginginfo>
									<description></description>
									<scene></scene>
									<shottake></shottake>
									<lognote></lognote>
									<good></good>
									<originalvideofilename></originalvideofilename>
									<originalaudiofilename></originalaudiofilename>
								</logginginfo>
								<colorinfo>
									<lut></lut>
									<lut1></lut1>
									<asc_sop></asc_sop>
									<asc_sat></asc_sat>
									<lut2></lut2>
								</colorinfo>
								<labels>
									<label2>Violet</label2>
								</labels>
							</clip>
							<clip id="masterclip-147" explodedTracks="true">
								<uuid>029648d6-0af4-456b-95c6-6b16c3d402b0</uuid>
								<masterclipid>masterclip-147</masterclipid>
								<ismasterclip>TRUE</ismasterclip>
								<duration>1027</duration>
								<rate>
									<timebase>29</timebase>
									<ntsc>FALSE</ntsc>
								</rate>
								<name>aerial-view-of-statue-of-guan-yin-in-thailand-SBV-338964992-HD.mp4</name>
								<media>
									<video>
										<track>
											<clipitem id="clipitem-984">
												<masterclipid>masterclip-147</masterclipid>
												<name>aerial-view-of-statue-of-guan-yin-in-thailand-SBV-338964992-HD.mp4</name>
												<rate>
													<timebase>29</timebase>
													<ntsc>FALSE</ntsc>
												</rate>
												<alphatype>none</alphatype>
												<file id="file-145"/>
											</clipitem>
										</track>
									</video>
								</media>
								<logginginfo>
									<description></description>
									<scene></scene>
									<shottake></shottake>
									<lognote></lognote>
									<good></good>
									<originalvideofilename></originalvideofilename>
									<originalaudiofilename></originalaudiofilename>
								</logginginfo>
								<colorinfo>
									<lut></lut>
									<lut1></lut1>
									<asc_sop></asc_sop>
									<asc_sat></asc_sat>
									<lut2></lut2>
								</colorinfo>
								<labels>
									<label2>Violet</label2>
								</labels>
							</clip>
						</children>
					</bin>
					<bin>
						<name>Zeeland</name>
						<labels>
							<label2>Mango</label2>
						</labels>
						<children>
							<clip id="masterclip-239" explodedTracks="true">
								<uuid>17726235-4c21-4a82-80af-80e38e2bfd82</uuid>
								<masterclipid>masterclip-239</masterclipid>
								<ismasterclip>TRUE</ismasterclip>
								<duration>1500</duration>
								<rate>
									<timebase>29</timebase>
									<ntsc>FALSE</ntsc>
								</rate>
								<name>fpv-aerial-drone-veiw-of-the-beach-in-zeeland-the-netherlands-holland-summer-dunes--SBV-347187363-HD.mp4</name>
								<media>
									<video>
										<track>
											<clipitem id="clipitem-985">
												<masterclipid>masterclip-239</masterclipid>
												<name>fpv-aerial-drone-veiw-of-the-beach-in-zeeland-the-netherlands-holland-summer-dunes--SBV-347187363-HD.mp4</name>
												<rate>
													<timebase>29</timebase>
													<ntsc>FALSE</ntsc>
												</rate>
												<alphatype>none</alphatype>
												<file id="file-219"/>
											</clipitem>
										</track>
									</video>
								</media>
								<logginginfo>
									<description></description>
									<scene></scene>
									<shottake></shottake>
									<lognote></lognote>
									<good></good>
									<originalvideofilename></originalvideofilename>
									<originalaudiofilename></originalaudiofilename>
								</logginginfo>
								<colorinfo>
									<lut></lut>
									<lut1></lut1>
									<asc_sop></asc_sop>
									<asc_sat></asc_sat>
									<lut2></lut2>
								</colorinfo>
								<labels>
									<label2>Violet</label2>
								</labels>
							</clip>
							<clip id="masterclip-241" explodedTracks="true">
								<uuid>0f5922bf-5cff-4eee-a7e1-8db4e4ce735c</uuid>
								<masterclipid>masterclip-241</masterclipid>
								<ismasterclip>TRUE</ismasterclip>
								<duration>484</duration>
								<rate>
									<timebase>29</timebase>
									<ntsc>FALSE</ntsc>
								</rate>
								<name>fpv-aerial-drone-veiw-of-the-beach-in-zeeland-the-netherlands-holland-summer-dunes--SBV-347187365-HD.mp4</name>
								<media>
									<video>
										<track>
											<clipitem id="clipitem-986">
												<masterclipid>masterclip-241</masterclipid>
												<name>fpv-aerial-drone-veiw-of-the-beach-in-zeeland-the-netherlands-holland-summer-dunes--SBV-347187365-HD.mp4</name>
												<rate>
													<timebase>29</timebase>
													<ntsc>FALSE</ntsc>
												</rate>
												<alphatype>none</alphatype>
												<file id="file-221"/>
											</clipitem>
										</track>
									</video>
								</media>
								<logginginfo>
									<description></description>
									<scene></scene>
									<shottake></shottake>
									<lognote></lognote>
									<good></good>
									<originalvideofilename></originalvideofilename>
									<originalaudiofilename></originalaudiofilename>
								</logginginfo>
								<colorinfo>
									<lut></lut>
									<lut1></lut1>
									<asc_sop></asc_sop>
									<asc_sat></asc_sat>
									<lut2></lut2>
								</colorinfo>
								<labels>
									<label2>Violet</label2>
								</labels>
							</clip>
							<clip id="masterclip-376" explodedTracks="true">
								<uuid>51989ab8-95c6-4d0b-873e-778ab21ad23c</uuid>
								<masterclipid>masterclip-376</masterclipid>
								<ismasterclip>TRUE</ismasterclip>
								<duration>485</duration>
								<rate>
									<timebase>29</timebase>
									<ntsc>FALSE</ntsc>
								</rate>
								<name>fpv-aerial-drone-veiw-of-the-beach-in-zeeland-the-netherlands-holland-summer-dunes--SBV-347179898-HD.mp4</name>
								<media>
									<video>
										<track>
											<clipitem id="clipitem-987">
												<masterclipid>masterclip-376</masterclipid>
												<name>fpv-aerial-drone-veiw-of-the-beach-in-zeeland-the-netherlands-holland-summer-dunes--SBV-347179898-HD.mp4</name>
												<rate>
													<timebase>29</timebase>
													<ntsc>FALSE</ntsc>
												</rate>
												<alphatype>none</alphatype>
												<pixelaspectratio>square</pixelaspectratio>
												<anamorphic>FALSE</anamorphic>
												<file id="file-348">
													<name>fpv-aerial-drone-veiw-of-the-beach-in-zeeland-the-netherlands-holland-summer-dunes--SBV-347179898-HD.mp4</name>
													<pathurl>file://localhost/Volumes/T7/DRONE_08.18.2023/3_Raw%20Files/Zeeland/fpv-aerial-drone-veiw-of-the-beach-in-zeeland-the-netherlands-holland-summer-dunes--SBV-347179898-HD.mp4</pathurl>
													<rate>
														<timebase>29</timebase>
														<ntsc>FALSE</ntsc>
													</rate>
													<duration>485</duration>
													<timecode>
														<rate>
															<timebase>29</timebase>
															<ntsc>FALSE</ntsc>
														</rate>
														<string>00:00:00:00</string>
														<frame>0</frame>
														<displayformat>NDF</displayformat>
													</timecode>
													<media>
														<video>
															<samplecharacteristics>
																<rate>
																	<timebase>29</timebase>
																	<ntsc>FALSE</ntsc>
																</rate>
																<width>1920</width>
																<height>1080</height>
																<anamorphic>FALSE</anamorphic>
																<pixelaspectratio>square</pixelaspectratio>
																<fielddominance>none</fielddominance>
															</samplecharacteristics>
														</video>
													</media>
												</file>
											</clipitem>
										</track>
									</video>
								</media>
								<logginginfo>
									<description></description>
									<scene></scene>
									<shottake></shottake>
									<lognote></lognote>
									<good></good>
									<originalvideofilename></originalvideofilename>
									<originalaudiofilename></originalaudiofilename>
								</logginginfo>
								<colorinfo>
									<lut></lut>
									<lut1></lut1>
									<asc_sop></asc_sop>
									<asc_sat></asc_sat>
									<lut2></lut2>
								</colorinfo>
								<labels>
									<label2>Violet</label2>
								</labels>
							</clip>
							<clip id="masterclip-377" explodedTracks="true">
								<uuid>6abf6236-2a6f-4c52-a4ea-b7fc64c9a024</uuid>
								<masterclipid>masterclip-377</masterclipid>
								<ismasterclip>TRUE</ismasterclip>
								<duration>780</duration>
								<rate>
									<timebase>29</timebase>
									<ntsc>FALSE</ntsc>
								</rate>
								<name>fpv-aerial-drone-veiw-of-the-beach-in-zeeland-the-netherlands-holland-summer-dunes--SBV-347187357-HD.mp4</name>
								<media>
									<video>
										<track>
											<clipitem id="clipitem-988">
												<masterclipid>masterclip-377</masterclipid>
												<name>fpv-aerial-drone-veiw-of-the-beach-in-zeeland-the-netherlands-holland-summer-dunes--SBV-347187357-HD.mp4</name>
												<rate>
													<timebase>29</timebase>
													<ntsc>FALSE</ntsc>
												</rate>
												<alphatype>none</alphatype>
												<pixelaspectratio>square</pixelaspectratio>
												<anamorphic>FALSE</anamorphic>
												<file id="file-349">
													<name>fpv-aerial-drone-veiw-of-the-beach-in-zeeland-the-netherlands-holland-summer-dunes--SBV-347187357-HD.mp4</name>
													<pathurl>file://localhost/Volumes/T7/DRONE_08.18.2023/3_Raw%20Files/Zeeland/fpv-aerial-drone-veiw-of-the-beach-in-zeeland-the-netherlands-holland-summer-dunes--SBV-347187357-HD.mp4</pathurl>
													<rate>
														<timebase>29</timebase>
														<ntsc>FALSE</ntsc>
													</rate>
													<duration>780</duration>
													<timecode>
														<rate>
															<timebase>29</timebase>
															<ntsc>FALSE</ntsc>
														</rate>
														<string>00:00:00:00</string>
														<frame>0</frame>
														<displayformat>NDF</displayformat>
													</timecode>
													<media>
														<video>
															<samplecharacteristics>
																<rate>
																	<timebase>29</timebase>
																	<ntsc>FALSE</ntsc>
																</rate>
																<width>1920</width>
																<height>1080</height>
																<anamorphic>FALSE</anamorphic>
																<pixelaspectratio>square</pixelaspectratio>
																<fielddominance>none</fielddominance>
															</samplecharacteristics>
														</video>
													</media>
												</file>
											</clipitem>
										</track>
									</video>
								</media>
								<logginginfo>
									<description></description>
									<scene></scene>
									<shottake></shottake>
									<lognote></lognote>
									<good></good>
									<originalvideofilename></originalvideofilename>
									<originalaudiofilename></originalaudiofilename>
								</logginginfo>
								<colorinfo>
									<lut></lut>
									<lut1></lut1>
									<asc_sop></asc_sop>
									<asc_sat></asc_sat>
									<lut2></lut2>
								</colorinfo>
								<labels>
									<label2>Violet</label2>
								</labels>
							</clip>
							<clip id="masterclip-240" explodedTracks="true">
								<uuid>f7c94122-4f53-4635-b1e7-9da1c541cb16</uuid>
								<masterclipid>masterclip-240</masterclipid>
								<ismasterclip>TRUE</ismasterclip>
								<duration>972</duration>
								<rate>
									<timebase>29</timebase>
									<ntsc>FALSE</ntsc>
								</rate>
								<name>fpv-aerial-drone-veiw-of-the-beach-in-zeeland-the-netherlands-holland-summer-dunes--SBV-347187369-HD.mp4</name>
								<media>
									<video>
										<track>
											<clipitem id="clipitem-989">
												<masterclipid>masterclip-240</masterclipid>
												<name>fpv-aerial-drone-veiw-of-the-beach-in-zeeland-the-netherlands-holland-summer-dunes--SBV-347187369-HD.mp4</name>
												<rate>
													<timebase>29</timebase>
													<ntsc>FALSE</ntsc>
												</rate>
												<alphatype>none</alphatype>
												<file id="file-220"/>
											</clipitem>
										</track>
									</video>
								</media>
								<logginginfo>
									<description></description>
									<scene></scene>
									<shottake></shottake>
									<lognote></lognote>
									<good></good>
									<originalvideofilename></originalvideofilename>
									<originalaudiofilename></originalaudiofilename>
								</logginginfo>
								<colorinfo>
									<lut></lut>
									<lut1></lut1>
									<asc_sop></asc_sop>
									<asc_sat></asc_sat>
									<lut2></lut2>
								</colorinfo>
								<labels>
									<label2>Violet</label2>
								</labels>
							</clip>
							<clip id="masterclip-378" explodedTracks="true">
								<uuid>9c1416bb-ce73-4e1e-af80-d685c7d297f1</uuid>
								<masterclipid>masterclip-378</masterclipid>
								<ismasterclip>TRUE</ismasterclip>
								<duration>769</duration>
								<rate>
									<timebase>29</timebase>
									<ntsc>FALSE</ntsc>
								</rate>
								<name>fpv-aerial-drone-veiw-of-the-beach-in-zeeland-the-netherlands-holland-summer-dunes--SBV-347187371-HD.mp4</name>
								<media>
									<video>
										<track>
											<clipitem id="clipitem-990">
												<masterclipid>masterclip-378</masterclipid>
												<name>fpv-aerial-drone-veiw-of-the-beach-in-zeeland-the-netherlands-holland-summer-dunes--SBV-347187371-HD.mp4</name>
												<rate>
													<timebase>29</timebase>
													<ntsc>FALSE</ntsc>
												</rate>
												<alphatype>none</alphatype>
												<pixelaspectratio>square</pixelaspectratio>
												<anamorphic>FALSE</anamorphic>
												<file id="file-350">
													<name>fpv-aerial-drone-veiw-of-the-beach-in-zeeland-the-netherlands-holland-summer-dunes--SBV-347187371-HD.mp4</name>
													<pathurl>file://localhost/Volumes/T7/DRONE_08.18.2023/3_Raw%20Files/Zeeland/fpv-aerial-drone-veiw-of-the-beach-in-zeeland-the-netherlands-holland-summer-dunes--SBV-347187371-HD.mp4</pathurl>
													<rate>
														<timebase>29</timebase>
														<ntsc>FALSE</ntsc>
													</rate>
													<duration>769</duration>
													<timecode>
														<rate>
															<timebase>29</timebase>
															<ntsc>FALSE</ntsc>
														</rate>
														<string>00:00:00:00</string>
														<frame>0</frame>
														<displayformat>NDF</displayformat>
													</timecode>
													<media>
														<video>
															<samplecharacteristics>
																<rate>
																	<timebase>29</timebase>
																	<ntsc>FALSE</ntsc>
																</rate>
																<width>1920</width>
																<height>1080</height>
																<anamorphic>FALSE</anamorphic>
																<pixelaspectratio>square</pixelaspectratio>
																<fielddominance>none</fielddominance>
															</samplecharacteristics>
														</video>
													</media>
												</file>
											</clipitem>
										</track>
									</video>
								</media>
								<logginginfo>
									<description></description>
									<scene></scene>
									<shottake></shottake>
									<lognote></lognote>
									<good></good>
									<originalvideofilename></originalvideofilename>
									<originalaudiofilename></originalaudiofilename>
								</logginginfo>
								<colorinfo>
									<lut></lut>
									<lut1></lut1>
									<asc_sop></asc_sop>
									<asc_sat></asc_sat>
									<lut2></lut2>
								</colorinfo>
								<labels>
									<label2>Violet</label2>
								</labels>
							</clip>
							<clip id="masterclip-238" explodedTracks="true">
								<uuid>6d23f5ec-a936-48b6-8e26-114dae30e978</uuid>
								<masterclipid>masterclip-238</masterclipid>
								<ismasterclip>TRUE</ismasterclip>
								<duration>561</duration>
								<rate>
									<timebase>29</timebase>
									<ntsc>FALSE</ntsc>
								</rate>
								<name>fpv-aerial-drone-veiw-of-the-beach-in-zeeland-the-netherlands-holland-summer-dunes--SBV-347187359-HD.mp4</name>
								<media>
									<video>
										<track>
											<clipitem id="clipitem-991">
												<masterclipid>masterclip-238</masterclipid>
												<name>fpv-aerial-drone-veiw-of-the-beach-in-zeeland-the-netherlands-holland-summer-dunes--SBV-347187359-HD.mp4</name>
												<rate>
													<timebase>29</timebase>
													<ntsc>FALSE</ntsc>
												</rate>
												<alphatype>none</alphatype>
												<file id="file-218"/>
											</clipitem>
										</track>
									</video>
								</media>
								<logginginfo>
									<description></description>
									<scene></scene>
									<shottake></shottake>
									<lognote></lognote>
									<good></good>
									<originalvideofilename></originalvideofilename>
									<originalaudiofilename></originalaudiofilename>
								</logginginfo>
								<colorinfo>
									<lut></lut>
									<lut1></lut1>
									<asc_sop></asc_sop>
									<asc_sat></asc_sat>
									<lut2></lut2>
								</colorinfo>
								<labels>
									<label2>Violet</label2>
								</labels>
							</clip>
							<clip id="masterclip-379" explodedTracks="true">
								<uuid>e36208ca-b59f-4382-aed1-144b9b85952b</uuid>
								<masterclipid>masterclip-379</masterclipid>
								<ismasterclip>TRUE</ismasterclip>
								<duration>727</duration>
								<rate>
									<timebase>29</timebase>
									<ntsc>FALSE</ntsc>
								</rate>
								<name>fpv-aerial-drone-veiw-of-the-beach-in-zeeland-the-netherlands-holland-summer-dunes--SBV-347187366-HD.mp4</name>
								<media>
									<video>
										<track>
											<clipitem id="clipitem-992">
												<masterclipid>masterclip-379</masterclipid>
												<name>fpv-aerial-drone-veiw-of-the-beach-in-zeeland-the-netherlands-holland-summer-dunes--SBV-347187366-HD.mp4</name>
												<rate>
													<timebase>29</timebase>
													<ntsc>FALSE</ntsc>
												</rate>
												<alphatype>none</alphatype>
												<pixelaspectratio>square</pixelaspectratio>
												<anamorphic>FALSE</anamorphic>
												<file id="file-351">
													<name>fpv-aerial-drone-veiw-of-the-beach-in-zeeland-the-netherlands-holland-summer-dunes--SBV-347187366-HD.mp4</name>
													<pathurl>file://localhost/Volumes/T7/DRONE_08.18.2023/3_Raw%20Files/Zeeland/fpv-aerial-drone-veiw-of-the-beach-in-zeeland-the-netherlands-holland-summer-dunes--SBV-347187366-HD.mp4</pathurl>
													<rate>
														<timebase>29</timebase>
														<ntsc>FALSE</ntsc>
													</rate>
													<duration>727</duration>
													<timecode>
														<rate>
															<timebase>29</timebase>
															<ntsc>FALSE</ntsc>
														</rate>
														<string>00:00:00:00</string>
														<frame>0</frame>
														<displayformat>NDF</displayformat>
													</timecode>
													<media>
														<video>
															<samplecharacteristics>
																<rate>
																	<timebase>29</timebase>
																	<ntsc>FALSE</ntsc>
																</rate>
																<width>1920</width>
																<height>1080</height>
																<anamorphic>FALSE</anamorphic>
																<pixelaspectratio>square</pixelaspectratio>
																<fielddominance>none</fielddominance>
															</samplecharacteristics>
														</video>
													</media>
												</file>
											</clipitem>
										</track>
									</video>
								</media>
								<logginginfo>
									<description></description>
									<scene></scene>
									<shottake></shottake>
									<lognote></lognote>
									<good></good>
									<originalvideofilename></originalvideofilename>
									<originalaudiofilename></originalaudiofilename>
								</logginginfo>
								<colorinfo>
									<lut></lut>
									<lut1></lut1>
									<asc_sop></asc_sop>
									<asc_sat></asc_sat>
									<lut2></lut2>
								</colorinfo>
								<labels>
									<label2>Violet</label2>
								</labels>
							</clip>
						</children>
					</bin>
					<bin>
						<name>Toronto from Above</name>
						<labels>
							<label2>Mango</label2>
						</labels>
						<children>
							<clip id="masterclip-257" explodedTracks="true">
								<uuid>20c5bd34-ff84-4920-b391-bfadfd4f1025</uuid>
								<masterclipid>masterclip-257</masterclipid>
								<ismasterclip>TRUE</ismasterclip>
								<duration>695</duration>
								<rate>
									<timebase>24</timebase>
									<ntsc>TRUE</ntsc>
								</rate>
								<name>303782_Toronto City Cityscape Buldings_By_Via_Films_Artlist_HD.mp4</name>
								<media>
									<video>
										<track>
											<clipitem id="clipitem-993">
												<masterclipid>masterclip-257</masterclipid>
												<name>303782_Toronto City Cityscape Buldings_By_Via_Films_Artlist_HD.mp4</name>
												<rate>
													<timebase>24</timebase>
													<ntsc>TRUE</ntsc>
												</rate>
												<alphatype>none</alphatype>
												<file id="file-234"/>
											</clipitem>
										</track>
									</video>
								</media>
								<logginginfo>
									<description></description>
									<scene></scene>
									<shottake></shottake>
									<lognote></lognote>
									<good></good>
									<originalvideofilename></originalvideofilename>
									<originalaudiofilename></originalaudiofilename>
								</logginginfo>
								<colorinfo>
									<lut></lut>
									<lut1></lut1>
									<asc_sop></asc_sop>
									<asc_sat></asc_sat>
									<lut2></lut2>
								</colorinfo>
								<labels>
									<label2>Violet</label2>
								</labels>
							</clip>
							<clip id="masterclip-255" explodedTracks="true">
								<uuid>ac2be61d-d062-4433-bc28-4e3027137df3</uuid>
								<masterclipid>masterclip-255</masterclipid>
								<ismasterclip>TRUE</ismasterclip>
								<duration>708</duration>
								<rate>
									<timebase>24</timebase>
									<ntsc>TRUE</ntsc>
								</rate>
								<name>303779_Toronto City Cityscape Buldings_By_Via_Films_Artlist_HD.mp4</name>
								<media>
									<video>
										<track>
											<clipitem id="clipitem-994">
												<masterclipid>masterclip-255</masterclipid>
												<name>303779_Toronto City Cityscape Buldings_By_Via_Films_Artlist_HD.mp4</name>
												<rate>
													<timebase>24</timebase>
													<ntsc>TRUE</ntsc>
												</rate>
												<alphatype>none</alphatype>
												<file id="file-232"/>
											</clipitem>
										</track>
									</video>
								</media>
								<logginginfo>
									<description></description>
									<scene></scene>
									<shottake></shottake>
									<lognote></lognote>
									<good></good>
									<originalvideofilename></originalvideofilename>
									<originalaudiofilename></originalaudiofilename>
								</logginginfo>
								<colorinfo>
									<lut></lut>
									<lut1></lut1>
									<asc_sop></asc_sop>
									<asc_sat></asc_sat>
									<lut2></lut2>
								</colorinfo>
								<labels>
									<label2>Violet</label2>
								</labels>
							</clip>
							<clip id="masterclip-256" explodedTracks="true">
								<uuid>eae0cd7f-a380-4c14-a016-10302b993237</uuid>
								<masterclipid>masterclip-256</masterclipid>
								<ismasterclip>TRUE</ismasterclip>
								<duration>693</duration>
								<rate>
									<timebase>24</timebase>
									<ntsc>TRUE</ntsc>
								</rate>
								<name>303775_Toronto City Cityscape Buldings_By_Via_Films_Artlist_HD.mp4</name>
								<media>
									<video>
										<track>
											<clipitem id="clipitem-995">
												<masterclipid>masterclip-256</masterclipid>
												<name>303775_Toronto City Cityscape Buldings_By_Via_Films_Artlist_HD.mp4</name>
												<rate>
													<timebase>24</timebase>
													<ntsc>TRUE</ntsc>
												</rate>
												<alphatype>none</alphatype>
												<file id="file-233"/>
											</clipitem>
										</track>
									</video>
								</media>
								<logginginfo>
									<description></description>
									<scene></scene>
									<shottake></shottake>
									<lognote></lognote>
									<good></good>
									<originalvideofilename></originalvideofilename>
									<originalaudiofilename></originalaudiofilename>
								</logginginfo>
								<colorinfo>
									<lut></lut>
									<lut1></lut1>
									<asc_sop></asc_sop>
									<asc_sat></asc_sat>
									<lut2></lut2>
								</colorinfo>
								<labels>
									<label2>Violet</label2>
								</labels>
							</clip>
							<clip id="masterclip-254" explodedTracks="true">
								<uuid>f7cdff1f-ee5f-4db9-9b45-d2dd5ac62b24</uuid>
								<masterclipid>masterclip-254</masterclipid>
								<ismasterclip>TRUE</ismasterclip>
								<duration>701</duration>
								<rate>
									<timebase>24</timebase>
									<ntsc>TRUE</ntsc>
								</rate>
								<name>303794_Toronto City Cityscape Lake_By_Via_Films_Artlist_HD.mp4</name>
								<media>
									<video>
										<track>
											<clipitem id="clipitem-996">
												<masterclipid>masterclip-254</masterclipid>
												<name>303794_Toronto City Cityscape Lake_By_Via_Films_Artlist_HD.mp4</name>
												<rate>
													<timebase>24</timebase>
													<ntsc>TRUE</ntsc>
												</rate>
												<alphatype>none</alphatype>
												<file id="file-231"/>
											</clipitem>
										</track>
									</video>
								</media>
								<logginginfo>
									<description></description>
									<scene></scene>
									<shottake></shottake>
									<lognote></lognote>
									<good></good>
									<originalvideofilename></originalvideofilename>
									<originalaudiofilename></originalaudiofilename>
								</logginginfo>
								<colorinfo>
									<lut></lut>
									<lut1></lut1>
									<asc_sop></asc_sop>
									<asc_sat></asc_sat>
									<lut2></lut2>
								</colorinfo>
								<labels>
									<label2>Violet</label2>
								</labels>
							</clip>
							<clip id="masterclip-380" explodedTracks="true">
								<uuid>40b5bbde-9e0b-4ee3-93ad-d0c3e63d8b97</uuid>
								<masterclipid>masterclip-380</masterclipid>
								<ismasterclip>TRUE</ismasterclip>
								<duration>528</duration>
								<rate>
									<timebase>24</timebase>
									<ntsc>TRUE</ntsc>
								</rate>
								<name>303804_Toronto City Cityscape Buldings_By_Via_Films_Artlist_HD.mp4</name>
								<media>
									<video>
										<track>
											<clipitem id="clipitem-997">
												<masterclipid>masterclip-380</masterclipid>
												<name>303804_Toronto City Cityscape Buldings_By_Via_Films_Artlist_HD.mp4</name>
												<rate>
													<timebase>24</timebase>
													<ntsc>TRUE</ntsc>
												</rate>
												<alphatype>none</alphatype>
												<pixelaspectratio>square</pixelaspectratio>
												<anamorphic>FALSE</anamorphic>
												<file id="file-352">
													<name>303804_Toronto City Cityscape Buldings_By_Via_Films_Artlist_HD.mp4</name>
													<pathurl>file://localhost/Volumes/T7/DRONE_08.18.2023/3_Raw%20Files/Toronto%20from%20Above/303804_Toronto%20City%20Cityscape%20Buldings_By_Via_Films_Artlist_HD.mp4</pathurl>
													<rate>
														<timebase>24</timebase>
														<ntsc>TRUE</ntsc>
													</rate>
													<duration>528</duration>
													<timecode>
														<rate>
															<timebase>24</timebase>
															<ntsc>TRUE</ntsc>
														</rate>
														<string>02:58:45:05</string>
														<frame>257405</frame>
														<displayformat>NDF</displayformat>
													</timecode>
													<media>
														<video>
															<samplecharacteristics>
																<rate>
																	<timebase>24</timebase>
																	<ntsc>TRUE</ntsc>
																</rate>
																<width>1920</width>
																<height>1080</height>
																<anamorphic>FALSE</anamorphic>
																<pixelaspectratio>square</pixelaspectratio>
																<fielddominance>none</fielddominance>
															</samplecharacteristics>
														</video>
													</media>
												</file>
											</clipitem>
										</track>
									</video>
								</media>
								<logginginfo>
									<description></description>
									<scene></scene>
									<shottake></shottake>
									<lognote></lognote>
									<good></good>
									<originalvideofilename></originalvideofilename>
									<originalaudiofilename></originalaudiofilename>
								</logginginfo>
								<colorinfo>
									<lut></lut>
									<lut1></lut1>
									<asc_sop></asc_sop>
									<asc_sat></asc_sat>
									<lut2></lut2>
								</colorinfo>
								<labels>
									<label2>Violet</label2>
								</labels>
							</clip>
							<clip id="masterclip-258" explodedTracks="true">
								<uuid>77380427-3671-4c71-94c9-10479b2ba4b1</uuid>
								<masterclipid>masterclip-258</masterclipid>
								<ismasterclip>TRUE</ismasterclip>
								<duration>719</duration>
								<rate>
									<timebase>24</timebase>
									<ntsc>TRUE</ntsc>
								</rate>
								<name>303807_Toronto City Cityscape Buldings_By_Via_Films_Artlist_HD.mp4</name>
								<media>
									<video>
										<track>
											<clipitem id="clipitem-998">
												<masterclipid>masterclip-258</masterclipid>
												<name>303807_Toronto City Cityscape Buldings_By_Via_Films_Artlist_HD.mp4</name>
												<rate>
													<timebase>24</timebase>
													<ntsc>TRUE</ntsc>
												</rate>
												<alphatype>none</alphatype>
												<file id="file-235"/>
											</clipitem>
										</track>
									</video>
								</media>
								<logginginfo>
									<description></description>
									<scene></scene>
									<shottake></shottake>
									<lognote></lognote>
									<good></good>
									<originalvideofilename></originalvideofilename>
									<originalaudiofilename></originalaudiofilename>
								</logginginfo>
								<colorinfo>
									<lut></lut>
									<lut1></lut1>
									<asc_sop></asc_sop>
									<asc_sat></asc_sat>
									<lut2></lut2>
								</colorinfo>
								<labels>
									<label2>Violet</label2>
								</labels>
							</clip>
							<clip id="masterclip-259" explodedTracks="true">
								<uuid>8d34af46-987b-4869-a328-177d9210fe93</uuid>
								<masterclipid>masterclip-259</masterclipid>
								<ismasterclip>TRUE</ismasterclip>
								<duration>718</duration>
								<rate>
									<timebase>24</timebase>
									<ntsc>TRUE</ntsc>
								</rate>
								<name>303812_Toronto City Cityscape Buldings_By_Via_Films_Artlist_HD.mp4</name>
								<media>
									<video>
										<track>
											<clipitem id="clipitem-999">
												<masterclipid>masterclip-259</masterclipid>
												<name>303812_Toronto City Cityscape Buldings_By_Via_Films_Artlist_HD.mp4</name>
												<rate>
													<timebase>24</timebase>
													<ntsc>TRUE</ntsc>
												</rate>
												<alphatype>none</alphatype>
												<file id="file-236"/>
											</clipitem>
										</track>
									</video>
								</media>
								<logginginfo>
									<description></description>
									<scene></scene>
									<shottake></shottake>
									<lognote></lognote>
									<good></good>
									<originalvideofilename></originalvideofilename>
									<originalaudiofilename></originalaudiofilename>
								</logginginfo>
								<colorinfo>
									<lut></lut>
									<lut1></lut1>
									<asc_sop></asc_sop>
									<asc_sat></asc_sat>
									<lut2></lut2>
								</colorinfo>
								<labels>
									<label2>Violet</label2>
								</labels>
							</clip>
							<clip id="masterclip-260" explodedTracks="true">
								<uuid>29edc324-b335-4f35-aedb-a89b8d8a94c7</uuid>
								<masterclipid>masterclip-260</masterclipid>
								<ismasterclip>TRUE</ismasterclip>
								<duration>698</duration>
								<rate>
									<timebase>24</timebase>
									<ntsc>TRUE</ntsc>
								</rate>
								<name>303855_Toronto City Cityscape Lake_By_Via_Films_Artlist_HD.mp4</name>
								<media>
									<video>
										<track>
											<clipitem id="clipitem-1000">
												<masterclipid>masterclip-260</masterclipid>
												<name>303855_Toronto City Cityscape Lake_By_Via_Films_Artlist_HD.mp4</name>
												<rate>
													<timebase>24</timebase>
													<ntsc>TRUE</ntsc>
												</rate>
												<alphatype>none</alphatype>
												<file id="file-237"/>
											</clipitem>
										</track>
									</video>
								</media>
								<logginginfo>
									<description></description>
									<scene></scene>
									<shottake></shottake>
									<lognote></lognote>
									<good></good>
									<originalvideofilename></originalvideofilename>
									<originalaudiofilename></originalaudiofilename>
								</logginginfo>
								<colorinfo>
									<lut></lut>
									<lut1></lut1>
									<asc_sop></asc_sop>
									<asc_sat></asc_sat>
									<lut2></lut2>
								</colorinfo>
								<labels>
									<label2>Violet</label2>
								</labels>
							</clip>
							<clip id="masterclip-381" explodedTracks="true">
								<uuid>d4fb8e37-30ec-4d06-b474-f791db3f36be</uuid>
								<masterclipid>masterclip-381</masterclipid>
								<ismasterclip>TRUE</ismasterclip>
								<duration>715</duration>
								<rate>
									<timebase>24</timebase>
									<ntsc>TRUE</ntsc>
								</rate>
								<name>303895_Toronto City Cityscape Buldings_By_Via_Films_Artlist_HD.mp4</name>
								<media>
									<video>
										<track>
											<clipitem id="clipitem-1001">
												<masterclipid>masterclip-381</masterclipid>
												<name>303895_Toronto City Cityscape Buldings_By_Via_Films_Artlist_HD.mp4</name>
												<rate>
													<timebase>24</timebase>
													<ntsc>TRUE</ntsc>
												</rate>
												<alphatype>none</alphatype>
												<pixelaspectratio>square</pixelaspectratio>
												<anamorphic>FALSE</anamorphic>
												<file id="file-353">
													<name>303895_Toronto City Cityscape Buldings_By_Via_Films_Artlist_HD.mp4</name>
													<pathurl>file://localhost/Volumes/T7/DRONE_08.18.2023/3_Raw%20Files/Toronto%20from%20Above/303895_Toronto%20City%20Cityscape%20Buldings_By_Via_Films_Artlist_HD.mp4</pathurl>
													<rate>
														<timebase>24</timebase>
														<ntsc>TRUE</ntsc>
													</rate>
													<duration>715</duration>
													<timecode>
														<rate>
															<timebase>24</timebase>
															<ntsc>TRUE</ntsc>
														</rate>
														<string>03:35:46:22</string>
														<frame>310726</frame>
														<displayformat>NDF</displayformat>
													</timecode>
													<media>
														<video>
															<samplecharacteristics>
																<rate>
																	<timebase>24</timebase>
																	<ntsc>TRUE</ntsc>
																</rate>
																<width>1920</width>
																<height>1080</height>
																<anamorphic>FALSE</anamorphic>
																<pixelaspectratio>square</pixelaspectratio>
																<fielddominance>none</fielddominance>
															</samplecharacteristics>
														</video>
													</media>
												</file>
											</clipitem>
										</track>
									</video>
								</media>
								<logginginfo>
									<description></description>
									<scene></scene>
									<shottake></shottake>
									<lognote></lognote>
									<good></good>
									<originalvideofilename></originalvideofilename>
									<originalaudiofilename></originalaudiofilename>
								</logginginfo>
								<colorinfo>
									<lut></lut>
									<lut1></lut1>
									<asc_sop></asc_sop>
									<asc_sat></asc_sat>
									<lut2></lut2>
								</colorinfo>
								<labels>
									<label2>Violet</label2>
								</labels>
							</clip>
							<clip id="masterclip-261" explodedTracks="true">
								<uuid>5b6987d7-e58d-4b5c-b3c9-dcf6aa6fcc95</uuid>
								<masterclipid>masterclip-261</masterclipid>
								<ismasterclip>TRUE</ismasterclip>
								<duration>718</duration>
								<rate>
									<timebase>24</timebase>
									<ntsc>TRUE</ntsc>
								</rate>
								<name>303908_Toronto City Cityscape Buldings_By_Via_Films_Artlist_HD.mp4</name>
								<media>
									<video>
										<track>
											<clipitem id="clipitem-1002">
												<masterclipid>masterclip-261</masterclipid>
												<name>303908_Toronto City Cityscape Buldings_By_Via_Films_Artlist_HD.mp4</name>
												<rate>
													<timebase>24</timebase>
													<ntsc>TRUE</ntsc>
												</rate>
												<alphatype>none</alphatype>
												<file id="file-238"/>
											</clipitem>
										</track>
									</video>
								</media>
								<logginginfo>
									<description></description>
									<scene></scene>
									<shottake></shottake>
									<lognote></lognote>
									<good></good>
									<originalvideofilename></originalvideofilename>
									<originalaudiofilename></originalaudiofilename>
								</logginginfo>
								<colorinfo>
									<lut></lut>
									<lut1></lut1>
									<asc_sop></asc_sop>
									<asc_sat></asc_sat>
									<lut2></lut2>
								</colorinfo>
								<labels>
									<label2>Violet</label2>
								</labels>
							</clip>
							<clip id="masterclip-263" explodedTracks="true">
								<uuid>6c642d9f-5086-410d-9d5d-1a410940e2fb</uuid>
								<masterclipid>masterclip-263</masterclipid>
								<ismasterclip>TRUE</ismasterclip>
								<duration>717</duration>
								<rate>
									<timebase>24</timebase>
									<ntsc>TRUE</ntsc>
								</rate>
								<name>303942_Toronto City Cityscape Buldings_By_Via_Films_Artlist_HD.mp4</name>
								<media>
									<video>
										<track>
											<clipitem id="clipitem-1003">
												<masterclipid>masterclip-263</masterclipid>
												<name>303942_Toronto City Cityscape Buldings_By_Via_Films_Artlist_HD.mp4</name>
												<rate>
													<timebase>24</timebase>
													<ntsc>TRUE</ntsc>
												</rate>
												<alphatype>none</alphatype>
												<file id="file-240"/>
											</clipitem>
										</track>
									</video>
								</media>
								<logginginfo>
									<description></description>
									<scene></scene>
									<shottake></shottake>
									<lognote></lognote>
									<good></good>
									<originalvideofilename></originalvideofilename>
									<originalaudiofilename></originalaudiofilename>
								</logginginfo>
								<colorinfo>
									<lut></lut>
									<lut1></lut1>
									<asc_sop></asc_sop>
									<asc_sat></asc_sat>
									<lut2></lut2>
								</colorinfo>
								<labels>
									<label2>Violet</label2>
								</labels>
							</clip>
							<clip id="masterclip-262" explodedTracks="true">
								<uuid>60ea7ed9-fa8f-450c-bd6e-e0d4740ed243</uuid>
								<masterclipid>masterclip-262</masterclipid>
								<ismasterclip>TRUE</ismasterclip>
								<duration>690</duration>
								<rate>
									<timebase>24</timebase>
									<ntsc>TRUE</ntsc>
								</rate>
								<name>303903_Toronto City Cityscape Buldings_By_Via_Films_Artlist_HD.mp4</name>
								<media>
									<video>
										<track>
											<clipitem id="clipitem-1004">
												<masterclipid>masterclip-262</masterclipid>
												<name>303903_Toronto City Cityscape Buldings_By_Via_Films_Artlist_HD.mp4</name>
												<rate>
													<timebase>24</timebase>
													<ntsc>TRUE</ntsc>
												</rate>
												<alphatype>none</alphatype>
												<file id="file-239"/>
											</clipitem>
										</track>
									</video>
								</media>
								<logginginfo>
									<description></description>
									<scene></scene>
									<shottake></shottake>
									<lognote></lognote>
									<good></good>
									<originalvideofilename></originalvideofilename>
									<originalaudiofilename></originalaudiofilename>
								</logginginfo>
								<colorinfo>
									<lut></lut>
									<lut1></lut1>
									<asc_sop></asc_sop>
									<asc_sat></asc_sat>
									<lut2></lut2>
								</colorinfo>
								<labels>
									<label2>Violet</label2>
								</labels>
							</clip>
						</children>
					</bin>
					<bin>
						<name>Great Wall of China</name>
						<labels>
							<label2>Mango</label2>
						</labels>
						<children>
							<clip id="masterclip-283" explodedTracks="true">
								<uuid>5c0a4b6e-49d7-4c20-b191-b14db51d661c</uuid>
								<masterclipid>masterclip-283</masterclipid>
								<ismasterclip>TRUE</ismasterclip>
								<duration>480</duration>
								<rate>
									<timebase>29</timebase>
									<ntsc>FALSE</ntsc>
								</rate>
								<name>great-wall-of-china-aerial-drone-shot-drone-flies-backwards-and-upwards-SBV-347366055-HD.mp4</name>
								<media>
									<video>
										<track>
											<clipitem id="clipitem-1005">
												<masterclipid>masterclip-283</masterclipid>
												<name>great-wall-of-china-aerial-drone-shot-drone-flies-backwards-and-upwards-SBV-347366055-HD.mp4</name>
												<rate>
													<timebase>29</timebase>
													<ntsc>FALSE</ntsc>
												</rate>
												<alphatype>none</alphatype>
												<file id="file-258"/>
											</clipitem>
										</track>
									</video>
								</media>
								<logginginfo>
									<description></description>
									<scene></scene>
									<shottake></shottake>
									<lognote></lognote>
									<good></good>
									<originalvideofilename></originalvideofilename>
									<originalaudiofilename></originalaudiofilename>
								</logginginfo>
								<colorinfo>
									<lut></lut>
									<lut1></lut1>
									<asc_sop></asc_sop>
									<asc_sat></asc_sat>
									<lut2></lut2>
								</colorinfo>
								<labels>
									<label2>Violet</label2>
								</labels>
							</clip>
							<clip id="masterclip-382" explodedTracks="true">
								<uuid>9c5ba6f6-3609-454c-ac0f-576d643b61fc</uuid>
								<masterclipid>masterclip-382</masterclipid>
								<ismasterclip>TRUE</ismasterclip>
								<duration>213</duration>
								<rate>
									<timebase>23</timebase>
									<ntsc>FALSE</ntsc>
								</rate>
								<name>launching-from-great-wall-of-china-SBV-312016013-HD.mp4</name>
								<media>
									<video>
										<track>
											<clipitem id="clipitem-1006">
												<masterclipid>masterclip-382</masterclipid>
												<name>launching-from-great-wall-of-china-SBV-312016013-HD.mp4</name>
												<rate>
													<timebase>23</timebase>
													<ntsc>FALSE</ntsc>
												</rate>
												<alphatype>none</alphatype>
												<pixelaspectratio>square</pixelaspectratio>
												<anamorphic>FALSE</anamorphic>
												<file id="file-354">
													<name>launching-from-great-wall-of-china-SBV-312016013-HD.mp4</name>
													<pathurl>file://localhost/Volumes/T7/DRONE_08.18.2023/3_Raw%20Files/Great%20Wall%20of%20China/launching-from-great-wall-of-china-SBV-312016013-HD.mp4</pathurl>
													<rate>
														<timebase>23</timebase>
														<ntsc>FALSE</ntsc>
													</rate>
													<duration>213</duration>
													<timecode>
														<rate>
															<timebase>23</timebase>
															<ntsc>FALSE</ntsc>
														</rate>
														<string>00:00:00:00</string>
														<frame>0</frame>
														<displayformat>NDF</displayformat>
													</timecode>
													<media>
														<video>
															<samplecharacteristics>
																<rate>
																	<timebase>23</timebase>
																	<ntsc>FALSE</ntsc>
																</rate>
																<width>1920</width>
																<height>1080</height>
																<anamorphic>FALSE</anamorphic>
																<pixelaspectratio>square</pixelaspectratio>
																<fielddominance>none</fielddominance>
															</samplecharacteristics>
														</video>
													</media>
												</file>
											</clipitem>
										</track>
									</video>
								</media>
								<logginginfo>
									<description></description>
									<scene></scene>
									<shottake></shottake>
									<lognote></lognote>
									<good></good>
									<originalvideofilename></originalvideofilename>
									<originalaudiofilename></originalaudiofilename>
								</logginginfo>
								<colorinfo>
									<lut></lut>
									<lut1></lut1>
									<asc_sop></asc_sop>
									<asc_sat></asc_sat>
									<lut2></lut2>
								</colorinfo>
								<labels>
									<label2>Violet</label2>
								</labels>
							</clip>
							<clip id="masterclip-272" explodedTracks="true">
								<uuid>f1ce1f80-74fd-4ee9-bb88-ca72e9f25906</uuid>
								<masterclipid>masterclip-272</masterclipid>
								<ismasterclip>TRUE</ismasterclip>
								<duration>260</duration>
								<rate>
									<timebase>23</timebase>
									<ntsc>FALSE</ntsc>
								</rate>
								<name>flying-over-large-tower-on-great-wall-of-china-001-SBV-311947403-HD.mp4</name>
								<media>
									<video>
										<track>
											<clipitem id="clipitem-1007">
												<masterclipid>masterclip-272</masterclipid>
												<name>flying-over-large-tower-on-great-wall-of-china-001-SBV-311947403-HD.mp4</name>
												<rate>
													<timebase>23</timebase>
													<ntsc>FALSE</ntsc>
												</rate>
												<alphatype>none</alphatype>
												<file id="file-247"/>
											</clipitem>
										</track>
									</video>
								</media>
								<logginginfo>
									<description></description>
									<scene></scene>
									<shottake></shottake>
									<lognote></lognote>
									<good></good>
									<originalvideofilename></originalvideofilename>
									<originalaudiofilename></originalaudiofilename>
								</logginginfo>
								<colorinfo>
									<lut></lut>
									<lut1></lut1>
									<asc_sop></asc_sop>
									<asc_sat></asc_sat>
									<lut2></lut2>
								</colorinfo>
								<labels>
									<label2>Violet</label2>
								</labels>
							</clip>
							<clip id="masterclip-271" explodedTracks="true">
								<uuid>e929fbc1-5353-4fd7-8ba0-abc5c401cea0</uuid>
								<masterclipid>masterclip-271</masterclipid>
								<ismasterclip>TRUE</ismasterclip>
								<duration>183</duration>
								<rate>
									<timebase>23</timebase>
									<ntsc>FALSE</ntsc>
								</rate>
								<name>descending-over-great-wall-of-china-001-SBV-311902857-HD.mp4</name>
								<media>
									<video>
										<track>
											<clipitem id="clipitem-1008">
												<masterclipid>masterclip-271</masterclipid>
												<name>descending-over-great-wall-of-china-001-SBV-311902857-HD.mp4</name>
												<rate>
													<timebase>23</timebase>
													<ntsc>FALSE</ntsc>
												</rate>
												<alphatype>none</alphatype>
												<file id="file-246"/>
											</clipitem>
										</track>
									</video>
								</media>
								<logginginfo>
									<description></description>
									<scene></scene>
									<shottake></shottake>
									<lognote></lognote>
									<good></good>
									<originalvideofilename></originalvideofilename>
									<originalaudiofilename></originalaudiofilename>
								</logginginfo>
								<colorinfo>
									<lut></lut>
									<lut1></lut1>
									<asc_sop></asc_sop>
									<asc_sat></asc_sat>
									<lut2></lut2>
								</colorinfo>
								<labels>
									<label2>Violet</label2>
								</labels>
							</clip>
							<clip id="masterclip-275" explodedTracks="true">
								<uuid>6b1825f7-bcc3-4806-bd6e-41208abac3f8</uuid>
								<masterclipid>masterclip-275</masterclipid>
								<ismasterclip>TRUE</ismasterclip>
								<duration>511</duration>
								<rate>
									<timebase>29</timebase>
									<ntsc>FALSE</ntsc>
								</rate>
								<name>tower-of-great-wall-of-china-and-green-mountains-at-sunset-badaling-aerial-view-dro-SBV-347366067-HD.mp4</name>
								<media>
									<video>
										<track>
											<clipitem id="clipitem-1009">
												<masterclipid>masterclip-275</masterclipid>
												<name>tower-of-great-wall-of-china-and-green-mountains-at-sunset-badaling-aerial-view-dro-SBV-347366067-HD.mp4</name>
												<rate>
													<timebase>29</timebase>
													<ntsc>FALSE</ntsc>
												</rate>
												<alphatype>none</alphatype>
												<file id="file-250"/>
											</clipitem>
										</track>
									</video>
								</media>
								<logginginfo>
									<description></description>
									<scene></scene>
									<shottake></shottake>
									<lognote></lognote>
									<good></good>
									<originalvideofilename></originalvideofilename>
									<originalaudiofilename></originalaudiofilename>
								</logginginfo>
								<colorinfo>
									<lut></lut>
									<lut1></lut1>
									<asc_sop></asc_sop>
									<asc_sat></asc_sat>
									<lut2></lut2>
								</colorinfo>
								<labels>
									<label2>Violet</label2>
								</labels>
							</clip>
							<clip id="masterclip-274" explodedTracks="true">
								<uuid>384676a6-1bc0-451d-a9b2-3641a2399fb4</uuid>
								<masterclipid>masterclip-274</masterclipid>
								<ismasterclip>TRUE</ismasterclip>
								<duration>206</duration>
								<rate>
									<timebase>23</timebase>
									<ntsc>FALSE</ntsc>
								</rate>
								<name>flying-over-large-tower-on-great-wall-of-china-002-SBV-311947474-HD.mp4</name>
								<media>
									<video>
										<track>
											<clipitem id="clipitem-1010">
												<masterclipid>masterclip-274</masterclipid>
												<name>flying-over-large-tower-on-great-wall-of-china-002-SBV-311947474-HD.mp4</name>
												<rate>
													<timebase>23</timebase>
													<ntsc>FALSE</ntsc>
												</rate>
												<alphatype>none</alphatype>
												<file id="file-249"/>
											</clipitem>
										</track>
									</video>
								</media>
								<logginginfo>
									<description></description>
									<scene></scene>
									<shottake></shottake>
									<lognote></lognote>
									<good></good>
									<originalvideofilename></originalvideofilename>
									<originalaudiofilename></originalaudiofilename>
								</logginginfo>
								<colorinfo>
									<lut></lut>
									<lut1></lut1>
									<asc_sop></asc_sop>
									<asc_sat></asc_sat>
									<lut2></lut2>
								</colorinfo>
								<labels>
									<label2>Violet</label2>
								</labels>
							</clip>
							<clip id="masterclip-270" explodedTracks="true">
								<uuid>9fe6300f-f4ef-448d-b573-4839e0153a9d</uuid>
								<masterclipid>masterclip-270</masterclipid>
								<ismasterclip>TRUE</ismasterclip>
								<duration>164</duration>
								<rate>
									<timebase>23</timebase>
									<ntsc>FALSE</ntsc>
								</rate>
								<name>descending-over-great-wall-of-china-towards-sun-001-SBV-311902901-HD.mp4</name>
								<media>
									<video>
										<track>
											<clipitem id="clipitem-1011">
												<masterclipid>masterclip-270</masterclipid>
												<name>descending-over-great-wall-of-china-towards-sun-001-SBV-311902901-HD.mp4</name>
												<rate>
													<timebase>23</timebase>
													<ntsc>FALSE</ntsc>
												</rate>
												<alphatype>none</alphatype>
												<file id="file-245"/>
											</clipitem>
										</track>
									</video>
								</media>
								<logginginfo>
									<description></description>
									<scene></scene>
									<shottake></shottake>
									<lognote></lognote>
									<good></good>
									<originalvideofilename></originalvideofilename>
									<originalaudiofilename></originalaudiofilename>
								</logginginfo>
								<colorinfo>
									<lut></lut>
									<lut1></lut1>
									<asc_sop></asc_sop>
									<asc_sat></asc_sat>
									<lut2></lut2>
								</colorinfo>
								<labels>
									<label2>Violet</label2>
								</labels>
							</clip>
							<clip id="masterclip-279" explodedTracks="true">
								<uuid>13d6b976-fbc4-4a2c-b360-bd207ebc1785</uuid>
								<masterclipid>masterclip-279</masterclipid>
								<ismasterclip>TRUE</ismasterclip>
								<duration>534</duration>
								<rate>
									<timebase>23</timebase>
									<ntsc>FALSE</ntsc>
								</rate>
								<name>birds-eye-view-over-great-wall-of-china-001-SBV-311899756-HD.mp4</name>
								<media>
									<video>
										<track>
											<clipitem id="clipitem-1012">
												<masterclipid>masterclip-279</masterclipid>
												<name>birds-eye-view-over-great-wall-of-china-001-SBV-311899756-HD.mp4</name>
												<rate>
													<timebase>23</timebase>
													<ntsc>FALSE</ntsc>
												</rate>
												<alphatype>none</alphatype>
												<file id="file-254"/>
											</clipitem>
										</track>
									</video>
								</media>
								<logginginfo>
									<description></description>
									<scene></scene>
									<shottake></shottake>
									<lognote></lognote>
									<good></good>
									<originalvideofilename></originalvideofilename>
									<originalaudiofilename></originalaudiofilename>
								</logginginfo>
								<colorinfo>
									<lut></lut>
									<lut1></lut1>
									<asc_sop></asc_sop>
									<asc_sat></asc_sat>
									<lut2></lut2>
								</colorinfo>
								<labels>
									<label2>Violet</label2>
								</labels>
							</clip>
							<clip id="masterclip-277" explodedTracks="true">
								<uuid>6c403d29-def3-4467-802b-297effd501e9</uuid>
								<masterclipid>masterclip-277</masterclipid>
								<ismasterclip>TRUE</ismasterclip>
								<duration>553</duration>
								<rate>
									<timebase>23</timebase>
									<ntsc>FALSE</ntsc>
								</rate>
								<name>birds-eye-view-over-great-wall-of-china-002-SBV-311899868-HD.mp4</name>
								<media>
									<video>
										<track>
											<clipitem id="clipitem-1013">
												<masterclipid>masterclip-277</masterclipid>
												<name>birds-eye-view-over-great-wall-of-china-002-SBV-311899868-HD.mp4</name>
												<rate>
													<timebase>23</timebase>
													<ntsc>FALSE</ntsc>
												</rate>
												<alphatype>none</alphatype>
												<file id="file-252"/>
											</clipitem>
										</track>
									</video>
								</media>
								<logginginfo>
									<description></description>
									<scene></scene>
									<shottake></shottake>
									<lognote></lognote>
									<good></good>
									<originalvideofilename></originalvideofilename>
									<originalaudiofilename></originalaudiofilename>
								</logginginfo>
								<colorinfo>
									<lut></lut>
									<lut1></lut1>
									<asc_sop></asc_sop>
									<asc_sat></asc_sat>
									<lut2></lut2>
								</colorinfo>
								<labels>
									<label2>Violet</label2>
								</labels>
							</clip>
							<clip id="masterclip-273" explodedTracks="true">
								<uuid>8b2186bf-78d1-4937-bfe6-3f5f1d464d51</uuid>
								<masterclipid>masterclip-273</masterclipid>
								<ismasterclip>TRUE</ismasterclip>
								<duration>526</duration>
								<rate>
									<timebase>29</timebase>
									<ntsc>FALSE</ntsc>
								</rate>
								<name>great-wall-of-china-and-green-mountains-aerial-view-drone-flies-forward-reveal-shot-SBV-347366074-HD.mp4</name>
								<media>
									<video>
										<track>
											<clipitem id="clipitem-1014">
												<masterclipid>masterclip-273</masterclipid>
												<name>great-wall-of-china-and-green-mountains-aerial-view-drone-flies-forward-reveal-shot-SBV-347366074-HD.mp4</name>
												<rate>
													<timebase>29</timebase>
													<ntsc>FALSE</ntsc>
												</rate>
												<alphatype>none</alphatype>
												<file id="file-248"/>
											</clipitem>
										</track>
									</video>
								</media>
								<logginginfo>
									<description></description>
									<scene></scene>
									<shottake></shottake>
									<lognote></lognote>
									<good></good>
									<originalvideofilename></originalvideofilename>
									<originalaudiofilename></originalaudiofilename>
								</logginginfo>
								<colorinfo>
									<lut></lut>
									<lut1></lut1>
									<asc_sop></asc_sop>
									<asc_sat></asc_sat>
									<lut2></lut2>
								</colorinfo>
								<labels>
									<label2>Violet</label2>
								</labels>
							</clip>
							<clip id="masterclip-278" explodedTracks="true">
								<uuid>ecfa2057-2523-45b1-abd7-47d34ad7ecef</uuid>
								<masterclipid>masterclip-278</masterclipid>
								<ismasterclip>TRUE</ismasterclip>
								<duration>391</duration>
								<rate>
									<timebase>29</timebase>
									<ntsc>FALSE</ntsc>
								</rate>
								<name>great-wall-of-china-at-sunset-in-spring-badaling-aerial-view-drone-flies-forward-me-SBV-347366072-HD.mp4</name>
								<media>
									<video>
										<track>
											<clipitem id="clipitem-1015">
												<masterclipid>masterclip-278</masterclipid>
												<name>great-wall-of-china-at-sunset-in-spring-badaling-aerial-view-drone-flies-forward-me-SBV-347366072-HD.mp4</name>
												<rate>
													<timebase>29</timebase>
													<ntsc>FALSE</ntsc>
												</rate>
												<alphatype>none</alphatype>
												<file id="file-253"/>
											</clipitem>
										</track>
									</video>
								</media>
								<logginginfo>
									<description></description>
									<scene></scene>
									<shottake></shottake>
									<lognote></lognote>
									<good></good>
									<originalvideofilename></originalvideofilename>
									<originalaudiofilename></originalaudiofilename>
								</logginginfo>
								<colorinfo>
									<lut></lut>
									<lut1></lut1>
									<asc_sop></asc_sop>
									<asc_sat></asc_sat>
									<lut2></lut2>
								</colorinfo>
								<labels>
									<label2>Violet</label2>
								</labels>
							</clip>
							<clip id="masterclip-276" explodedTracks="true">
								<uuid>a491ea65-a52c-42f6-9abc-320252d86048</uuid>
								<masterclipid>masterclip-276</masterclipid>
								<ismasterclip>TRUE</ismasterclip>
								<duration>481</duration>
								<rate>
									<timebase>29</timebase>
									<ntsc>FALSE</ntsc>
								</rate>
								<name>great-wall-of-china-and-green-mountains-in-summer-sunset-aerial-view-drone-is-orbit-SBV-347366071-HD.mp4</name>
								<media>
									<video>
										<track>
											<clipitem id="clipitem-1016">
												<masterclipid>masterclip-276</masterclipid>
												<name>great-wall-of-china-and-green-mountains-in-summer-sunset-aerial-view-drone-is-orbit-SBV-347366071-HD.mp4</name>
												<rate>
													<timebase>29</timebase>
													<ntsc>FALSE</ntsc>
												</rate>
												<alphatype>none</alphatype>
												<file id="file-251"/>
											</clipitem>
										</track>
									</video>
								</media>
								<logginginfo>
									<description></description>
									<scene></scene>
									<shottake></shottake>
									<lognote></lognote>
									<good></good>
									<originalvideofilename></originalvideofilename>
									<originalaudiofilename></originalaudiofilename>
								</logginginfo>
								<colorinfo>
									<lut></lut>
									<lut1></lut1>
									<asc_sop></asc_sop>
									<asc_sat></asc_sat>
									<lut2></lut2>
								</colorinfo>
								<labels>
									<label2>Violet</label2>
								</labels>
							</clip>
							<clip id="masterclip-280" explodedTracks="true">
								<uuid>117c2c94-d171-47c5-b4de-057a15729bb1</uuid>
								<masterclipid>masterclip-280</masterclipid>
								<ismasterclip>TRUE</ismasterclip>
								<duration>801</duration>
								<rate>
									<timebase>29</timebase>
									<ntsc>FALSE</ntsc>
								</rate>
								<in>605</in>
								<name>long-epic-flight-up-mountain-ridge-of-the-great-wall-of-china-SBV-326183861-HD.mp4</name>
								<media>
									<video>
										<track>
											<clipitem id="clipitem-1017">
												<masterclipid>masterclip-280</masterclipid>
												<name>long-epic-flight-up-mountain-ridge-of-the-great-wall-of-china-SBV-326183861-HD.mp4</name>
												<rate>
													<timebase>29</timebase>
													<ntsc>FALSE</ntsc>
												</rate>
												<alphatype>none</alphatype>
												<file id="file-255"/>
											</clipitem>
										</track>
									</video>
								</media>
								<logginginfo>
									<description></description>
									<scene></scene>
									<shottake></shottake>
									<lognote></lognote>
									<good></good>
									<originalvideofilename></originalvideofilename>
									<originalaudiofilename></originalaudiofilename>
								</logginginfo>
								<colorinfo>
									<lut></lut>
									<lut1></lut1>
									<asc_sop></asc_sop>
									<asc_sat></asc_sat>
									<lut2></lut2>
								</colorinfo>
								<labels>
									<label2>Violet</label2>
								</labels>
							</clip>
							<clip id="masterclip-282" explodedTracks="true">
								<uuid>f999e569-afbc-452b-83ba-d84c36f7dec5</uuid>
								<masterclipid>masterclip-282</masterclipid>
								<ismasterclip>TRUE</ismasterclip>
								<duration>719</duration>
								<rate>
									<timebase>23</timebase>
									<ntsc>FALSE</ntsc>
								</rate>
								<name>extremely-crowded-great-wall-of-china-at-peak-season-many-people-during-high-season-SBV-334024999-HD.mp4</name>
								<media>
									<video>
										<track>
											<clipitem id="clipitem-1018">
												<masterclipid>masterclip-282</masterclipid>
												<name>extremely-crowded-great-wall-of-china-at-peak-season-many-people-during-high-season-SBV-334024999-HD.mp4</name>
												<rate>
													<timebase>23</timebase>
													<ntsc>FALSE</ntsc>
												</rate>
												<alphatype>none</alphatype>
												<file id="file-257"/>
											</clipitem>
										</track>
									</video>
								</media>
								<logginginfo>
									<description></description>
									<scene></scene>
									<shottake></shottake>
									<lognote></lognote>
									<good></good>
									<originalvideofilename></originalvideofilename>
									<originalaudiofilename></originalaudiofilename>
								</logginginfo>
								<colorinfo>
									<lut></lut>
									<lut1></lut1>
									<asc_sop></asc_sop>
									<asc_sat></asc_sat>
									<lut2></lut2>
								</colorinfo>
								<labels>
									<label2>Violet</label2>
								</labels>
							</clip>
							<clip id="masterclip-281" explodedTracks="true">
								<uuid>e7cc3d1a-72e5-4a12-a681-2158da1c0a26</uuid>
								<masterclipid>masterclip-281</masterclipid>
								<ismasterclip>TRUE</ismasterclip>
								<duration>767</duration>
								<rate>
									<timebase>29</timebase>
									<ntsc>FALSE</ntsc>
								</rate>
								<name>approaching-tower-on-great-wall-of-china-in-fog-SBV-326182816-HD.mp4</name>
								<media>
									<video>
										<track>
											<clipitem id="clipitem-1019">
												<masterclipid>masterclip-281</masterclipid>
												<name>approaching-tower-on-great-wall-of-china-in-fog-SBV-326182816-HD.mp4</name>
												<rate>
													<timebase>29</timebase>
													<ntsc>FALSE</ntsc>
												</rate>
												<alphatype>none</alphatype>
												<file id="file-256"/>
											</clipitem>
										</track>
									</video>
								</media>
								<logginginfo>
									<description></description>
									<scene></scene>
									<shottake></shottake>
									<lognote></lognote>
									<good></good>
									<originalvideofilename></originalvideofilename>
									<originalaudiofilename></originalaudiofilename>
								</logginginfo>
								<colorinfo>
									<lut></lut>
									<lut1></lut1>
									<asc_sop></asc_sop>
									<asc_sat></asc_sat>
									<lut2></lut2>
								</colorinfo>
								<labels>
									<label2>Violet</label2>
								</labels>
							</clip>
						</children>
					</bin>
					<bin>
						<name>Lagos, Nigeria</name>
						<labels>
							<label2>Mango</label2>
						</labels>
						<children>
							<clip id="masterclip-383" explodedTracks="true">
								<uuid>3090f771-5bc5-4f43-b4b7-33609eee6d8f</uuid>
								<masterclipid>masterclip-383</masterclipid>
								<ismasterclip>TRUE</ismasterclip>
								<duration>610</duration>
								<rate>
									<timebase>30</timebase>
									<ntsc>TRUE</ntsc>
								</rate>
								<name>319810_Rooftops Residential Aerial Neighborhood_By_21_Aerials_Artlist_HD.mp4</name>
								<media>
									<video>
										<track>
											<clipitem id="clipitem-1020">
												<masterclipid>masterclip-383</masterclipid>
												<name>319810_Rooftops Residential Aerial Neighborhood_By_21_Aerials_Artlist_HD.mp4</name>
												<rate>
													<timebase>30</timebase>
													<ntsc>TRUE</ntsc>
												</rate>
												<alphatype>none</alphatype>
												<pixelaspectratio>square</pixelaspectratio>
												<anamorphic>FALSE</anamorphic>
												<file id="file-355">
													<name>319810_Rooftops Residential Aerial Neighborhood_By_21_Aerials_Artlist_HD.mp4</name>
													<pathurl>file://localhost/Volumes/T7/DRONE_08.18.2023/3_Raw%20Files/Lagos,%20Portugal/319810_Rooftops%20Residential%20Aerial%20Neighborhood_By_21_Aerials_Artlist_HD.mp4</pathurl>
													<rate>
														<timebase>30</timebase>
														<ntsc>TRUE</ntsc>
													</rate>
													<duration>610</duration>
													<timecode>
														<rate>
															<timebase>30</timebase>
															<ntsc>TRUE</ntsc>
														</rate>
														<string>00:00:00:00</string>
														<frame>0</frame>
														<displayformat>NDF</displayformat>
													</timecode>
													<media>
														<video>
															<samplecharacteristics>
																<rate>
																	<timebase>30</timebase>
																	<ntsc>TRUE</ntsc>
																</rate>
																<width>1920</width>
																<height>1080</height>
																<anamorphic>FALSE</anamorphic>
																<pixelaspectratio>square</pixelaspectratio>
																<fielddominance>none</fielddominance>
															</samplecharacteristics>
														</video>
													</media>
												</file>
											</clipitem>
										</track>
									</video>
								</media>
								<logginginfo>
									<description></description>
									<scene></scene>
									<shottake></shottake>
									<lognote></lognote>
									<good></good>
									<originalvideofilename></originalvideofilename>
									<originalaudiofilename></originalaudiofilename>
								</logginginfo>
								<colorinfo>
									<lut></lut>
									<lut1></lut1>
									<asc_sop></asc_sop>
									<asc_sat></asc_sat>
									<lut2></lut2>
								</colorinfo>
								<labels>
									<label2>Violet</label2>
								</labels>
							</clip>
							<clip id="masterclip-384" explodedTracks="true">
								<uuid>870f7332-2736-40ce-a699-9a3f657706c1</uuid>
								<masterclipid>masterclip-384</masterclipid>
								<ismasterclip>TRUE</ismasterclip>
								<duration>618</duration>
								<rate>
									<timebase>30</timebase>
									<ntsc>TRUE</ntsc>
								</rate>
								<name>319793_Cliff Coast Beacon Ocean_By_21_Aerials_Artlist_HD.mp4</name>
								<media>
									<video>
										<track>
											<clipitem id="clipitem-1021">
												<masterclipid>masterclip-384</masterclipid>
												<name>319793_Cliff Coast Beacon Ocean_By_21_Aerials_Artlist_HD.mp4</name>
												<rate>
													<timebase>30</timebase>
													<ntsc>TRUE</ntsc>
												</rate>
												<alphatype>none</alphatype>
												<pixelaspectratio>square</pixelaspectratio>
												<anamorphic>FALSE</anamorphic>
												<file id="file-356">
													<name>319793_Cliff Coast Beacon Ocean_By_21_Aerials_Artlist_HD.mp4</name>
													<pathurl>file://localhost/Volumes/T7/DRONE_08.18.2023/3_Raw%20Files/Lagos,%20Portugal/319793_Cliff%20Coast%20Beacon%20Ocean_By_21_Aerials_Artlist_HD.mp4</pathurl>
													<rate>
														<timebase>30</timebase>
														<ntsc>TRUE</ntsc>
													</rate>
													<duration>618</duration>
													<timecode>
														<rate>
															<timebase>30</timebase>
															<ntsc>TRUE</ntsc>
														</rate>
														<string>00:00:00:00</string>
														<frame>0</frame>
														<displayformat>NDF</displayformat>
													</timecode>
													<media>
														<video>
															<samplecharacteristics>
																<rate>
																	<timebase>30</timebase>
																	<ntsc>TRUE</ntsc>
																</rate>
																<width>1920</width>
																<height>1080</height>
																<anamorphic>FALSE</anamorphic>
																<pixelaspectratio>square</pixelaspectratio>
																<fielddominance>none</fielddominance>
															</samplecharacteristics>
														</video>
													</media>
												</file>
											</clipitem>
										</track>
									</video>
								</media>
								<logginginfo>
									<description></description>
									<scene></scene>
									<shottake></shottake>
									<lognote></lognote>
									<good></good>
									<originalvideofilename></originalvideofilename>
									<originalaudiofilename></originalaudiofilename>
								</logginginfo>
								<colorinfo>
									<lut></lut>
									<lut1></lut1>
									<asc_sop></asc_sop>
									<asc_sat></asc_sat>
									<lut2></lut2>
								</colorinfo>
								<labels>
									<label2>Violet</label2>
								</labels>
							</clip>
							<clip id="masterclip-385" explodedTracks="true">
								<uuid>b1cf04b1-1350-4096-84e3-d4ee9befe91b</uuid>
								<masterclipid>masterclip-385</masterclipid>
								<ismasterclip>TRUE</ismasterclip>
								<duration>883</duration>
								<rate>
									<timebase>30</timebase>
									<ntsc>TRUE</ntsc>
								</rate>
								<name>319806_Road Coast Town Aerial_By_21_Aerials_Artlist_HD.mp4</name>
								<media>
									<video>
										<track>
											<clipitem id="clipitem-1022">
												<masterclipid>masterclip-385</masterclipid>
												<name>319806_Road Coast Town Aerial_By_21_Aerials_Artlist_HD.mp4</name>
												<rate>
													<timebase>30</timebase>
													<ntsc>TRUE</ntsc>
												</rate>
												<alphatype>none</alphatype>
												<pixelaspectratio>square</pixelaspectratio>
												<anamorphic>FALSE</anamorphic>
												<file id="file-357">
													<name>319806_Road Coast Town Aerial_By_21_Aerials_Artlist_HD.mp4</name>
													<pathurl>file://localhost/Volumes/T7/DRONE_08.18.2023/3_Raw%20Files/Lagos,%20Portugal/319806_Road%20Coast%20Town%20Aerial_By_21_Aerials_Artlist_HD.mp4</pathurl>
													<rate>
														<timebase>30</timebase>
														<ntsc>TRUE</ntsc>
													</rate>
													<duration>883</duration>
													<timecode>
														<rate>
															<timebase>30</timebase>
															<ntsc>TRUE</ntsc>
														</rate>
														<string>00:00:00:00</string>
														<frame>0</frame>
														<displayformat>NDF</displayformat>
													</timecode>
													<media>
														<video>
															<samplecharacteristics>
																<rate>
																	<timebase>30</timebase>
																	<ntsc>TRUE</ntsc>
																</rate>
																<width>1920</width>
																<height>1080</height>
																<anamorphic>FALSE</anamorphic>
																<pixelaspectratio>square</pixelaspectratio>
																<fielddominance>none</fielddominance>
															</samplecharacteristics>
														</video>
													</media>
												</file>
											</clipitem>
										</track>
									</video>
								</media>
								<logginginfo>
									<description></description>
									<scene></scene>
									<shottake></shottake>
									<lognote></lognote>
									<good></good>
									<originalvideofilename></originalvideofilename>
									<originalaudiofilename></originalaudiofilename>
								</logginginfo>
								<colorinfo>
									<lut></lut>
									<lut1></lut1>
									<asc_sop></asc_sop>
									<asc_sat></asc_sat>
									<lut2></lut2>
								</colorinfo>
								<labels>
									<label2>Violet</label2>
								</labels>
							</clip>
							<clip id="masterclip-386" explodedTracks="true">
								<uuid>7be2bbb2-79fe-4919-ad75-7491fe185fdb</uuid>
								<masterclipid>masterclip-386</masterclipid>
								<ismasterclip>TRUE</ismasterclip>
								<duration>431</duration>
								<rate>
									<timebase>30</timebase>
									<ntsc>TRUE</ntsc>
								</rate>
								<name>319815_Rooftops Town Buildings Coast Shore_By_21_Aerials_Artlist_HD.mp4</name>
								<media>
									<video>
										<track>
											<clipitem id="clipitem-1023">
												<masterclipid>masterclip-386</masterclipid>
												<name>319815_Rooftops Town Buildings Coast Shore_By_21_Aerials_Artlist_HD.mp4</name>
												<rate>
													<timebase>30</timebase>
													<ntsc>TRUE</ntsc>
												</rate>
												<alphatype>none</alphatype>
												<pixelaspectratio>square</pixelaspectratio>
												<anamorphic>FALSE</anamorphic>
												<file id="file-358">
													<name>319815_Rooftops Town Buildings Coast Shore_By_21_Aerials_Artlist_HD.mp4</name>
													<pathurl>file://localhost/Volumes/T7/DRONE_08.18.2023/3_Raw%20Files/Lagos,%20Portugal/319815_Rooftops%20Town%20Buildings%20Coast%20Shore_By_21_Aerials_Artlist_HD.mp4</pathurl>
													<rate>
														<timebase>30</timebase>
														<ntsc>TRUE</ntsc>
													</rate>
													<duration>431</duration>
													<timecode>
														<rate>
															<timebase>30</timebase>
															<ntsc>TRUE</ntsc>
														</rate>
														<string>00:00:00:00</string>
														<frame>0</frame>
														<displayformat>NDF</displayformat>
													</timecode>
													<media>
														<video>
															<samplecharacteristics>
																<rate>
																	<timebase>30</timebase>
																	<ntsc>TRUE</ntsc>
																</rate>
																<width>1920</width>
																<height>1080</height>
																<anamorphic>FALSE</anamorphic>
																<pixelaspectratio>square</pixelaspectratio>
																<fielddominance>none</fielddominance>
															</samplecharacteristics>
														</video>
													</media>
												</file>
											</clipitem>
										</track>
									</video>
								</media>
								<logginginfo>
									<description></description>
									<scene></scene>
									<shottake></shottake>
									<lognote></lognote>
									<good></good>
									<originalvideofilename></originalvideofilename>
									<originalaudiofilename></originalaudiofilename>
								</logginginfo>
								<colorinfo>
									<lut></lut>
									<lut1></lut1>
									<asc_sop></asc_sop>
									<asc_sat></asc_sat>
									<lut2></lut2>
								</colorinfo>
								<labels>
									<label2>Violet</label2>
								</labels>
							</clip>
							<clip id="masterclip-387" explodedTracks="true">
								<uuid>7cfb80bd-c553-4786-9116-fdb878a34fed</uuid>
								<masterclipid>masterclip-387</masterclipid>
								<ismasterclip>TRUE</ismasterclip>
								<duration>369</duration>
								<rate>
									<timebase>30</timebase>
									<ntsc>TRUE</ntsc>
								</rate>
								<name>319803_Footbridge Harbor Boats Aerial_By_21_Aerials_Artlist_HD.mp4</name>
								<media>
									<video>
										<track>
											<clipitem id="clipitem-1024">
												<masterclipid>masterclip-387</masterclipid>
												<name>319803_Footbridge Harbor Boats Aerial_By_21_Aerials_Artlist_HD.mp4</name>
												<rate>
													<timebase>30</timebase>
													<ntsc>TRUE</ntsc>
												</rate>
												<alphatype>none</alphatype>
												<pixelaspectratio>square</pixelaspectratio>
												<anamorphic>FALSE</anamorphic>
												<file id="file-359">
													<name>319803_Footbridge Harbor Boats Aerial_By_21_Aerials_Artlist_HD.mp4</name>
													<pathurl>file://localhost/Volumes/T7/DRONE_08.18.2023/3_Raw%20Files/Lagos,%20Portugal/319803_Footbridge%20Harbor%20Boats%20Aerial_By_21_Aerials_Artlist_HD.mp4</pathurl>
													<rate>
														<timebase>30</timebase>
														<ntsc>TRUE</ntsc>
													</rate>
													<duration>369</duration>
													<timecode>
														<rate>
															<timebase>30</timebase>
															<ntsc>TRUE</ntsc>
														</rate>
														<string>00:00:00:00</string>
														<frame>0</frame>
														<displayformat>NDF</displayformat>
													</timecode>
													<media>
														<video>
															<samplecharacteristics>
																<rate>
																	<timebase>30</timebase>
																	<ntsc>TRUE</ntsc>
																</rate>
																<width>1920</width>
																<height>1080</height>
																<anamorphic>FALSE</anamorphic>
																<pixelaspectratio>square</pixelaspectratio>
																<fielddominance>none</fielddominance>
															</samplecharacteristics>
														</video>
													</media>
												</file>
											</clipitem>
										</track>
									</video>
								</media>
								<logginginfo>
									<description></description>
									<scene></scene>
									<shottake></shottake>
									<lognote></lognote>
									<good></good>
									<originalvideofilename></originalvideofilename>
									<originalaudiofilename></originalaudiofilename>
								</logginginfo>
								<colorinfo>
									<lut></lut>
									<lut1></lut1>
									<asc_sop></asc_sop>
									<asc_sat></asc_sat>
									<lut2></lut2>
								</colorinfo>
								<labels>
									<label2>Violet</label2>
								</labels>
							</clip>
							<clip id="masterclip-388" explodedTracks="true">
								<uuid>706fae0e-b7a0-49e2-a74a-9b6d15c882fc</uuid>
								<masterclipid>masterclip-388</masterclipid>
								<ismasterclip>TRUE</ismasterclip>
								<duration>645</duration>
								<rate>
									<timebase>30</timebase>
									<ntsc>TRUE</ntsc>
								</rate>
								<name>319812_Town Buildings Lagos Aerial Ocean_By_21_Aerials_Artlist_HD.mp4</name>
								<media>
									<video>
										<track>
											<clipitem id="clipitem-1025">
												<masterclipid>masterclip-388</masterclipid>
												<name>319812_Town Buildings Lagos Aerial Ocean_By_21_Aerials_Artlist_HD.mp4</name>
												<rate>
													<timebase>30</timebase>
													<ntsc>TRUE</ntsc>
												</rate>
												<alphatype>none</alphatype>
												<pixelaspectratio>square</pixelaspectratio>
												<anamorphic>FALSE</anamorphic>
												<file id="file-360">
													<name>319812_Town Buildings Lagos Aerial Ocean_By_21_Aerials_Artlist_HD.mp4</name>
													<pathurl>file://localhost/Volumes/T7/DRONE_08.18.2023/3_Raw%20Files/Lagos,%20Portugal/319812_Town%20Buildings%20Lagos%20Aerial%20Ocean_By_21_Aerials_Artlist_HD.mp4</pathurl>
													<rate>
														<timebase>30</timebase>
														<ntsc>TRUE</ntsc>
													</rate>
													<duration>645</duration>
													<timecode>
														<rate>
															<timebase>30</timebase>
															<ntsc>TRUE</ntsc>
														</rate>
														<string>00:00:00:00</string>
														<frame>0</frame>
														<displayformat>NDF</displayformat>
													</timecode>
													<media>
														<video>
															<samplecharacteristics>
																<rate>
																	<timebase>30</timebase>
																	<ntsc>TRUE</ntsc>
																</rate>
																<width>1920</width>
																<height>1080</height>
																<anamorphic>FALSE</anamorphic>
																<pixelaspectratio>square</pixelaspectratio>
																<fielddominance>none</fielddominance>
															</samplecharacteristics>
														</video>
													</media>
												</file>
											</clipitem>
										</track>
									</video>
								</media>
								<logginginfo>
									<description></description>
									<scene></scene>
									<shottake></shottake>
									<lognote></lognote>
									<good></good>
									<originalvideofilename></originalvideofilename>
									<originalaudiofilename></originalaudiofilename>
								</logginginfo>
								<colorinfo>
									<lut></lut>
									<lut1></lut1>
									<asc_sop></asc_sop>
									<asc_sat></asc_sat>
									<lut2></lut2>
								</colorinfo>
								<labels>
									<label2>Violet</label2>
								</labels>
							</clip>
							<clip id="masterclip-389" explodedTracks="true">
								<uuid>e5455761-aee2-4de0-94fa-591382f370e8</uuid>
								<masterclipid>masterclip-389</masterclipid>
								<ismasterclip>TRUE</ismasterclip>
								<duration>693</duration>
								<rate>
									<timebase>30</timebase>
									<ntsc>TRUE</ntsc>
								</rate>
								<name>319818_Rooftops Town Buildings Coast Shore_By_21_Aerials_Artlist_HD.mp4</name>
								<media>
									<video>
										<track>
											<clipitem id="clipitem-1026">
												<masterclipid>masterclip-389</masterclipid>
												<name>319818_Rooftops Town Buildings Coast Shore_By_21_Aerials_Artlist_HD.mp4</name>
												<rate>
													<timebase>30</timebase>
													<ntsc>TRUE</ntsc>
												</rate>
												<alphatype>none</alphatype>
												<pixelaspectratio>square</pixelaspectratio>
												<anamorphic>FALSE</anamorphic>
												<file id="file-361">
													<name>319818_Rooftops Town Buildings Coast Shore_By_21_Aerials_Artlist_HD.mp4</name>
													<pathurl>file://localhost/Volumes/T7/DRONE_08.18.2023/3_Raw%20Files/Lagos,%20Portugal/319818_Rooftops%20Town%20Buildings%20Coast%20Shore_By_21_Aerials_Artlist_HD.mp4</pathurl>
													<rate>
														<timebase>30</timebase>
														<ntsc>TRUE</ntsc>
													</rate>
													<duration>693</duration>
													<timecode>
														<rate>
															<timebase>30</timebase>
															<ntsc>TRUE</ntsc>
														</rate>
														<string>00:00:00:00</string>
														<frame>0</frame>
														<displayformat>NDF</displayformat>
													</timecode>
													<media>
														<video>
															<samplecharacteristics>
																<rate>
																	<timebase>30</timebase>
																	<ntsc>TRUE</ntsc>
																</rate>
																<width>1920</width>
																<height>1080</height>
																<anamorphic>FALSE</anamorphic>
																<pixelaspectratio>square</pixelaspectratio>
																<fielddominance>none</fielddominance>
															</samplecharacteristics>
														</video>
													</media>
												</file>
											</clipitem>
										</track>
									</video>
								</media>
								<logginginfo>
									<description></description>
									<scene></scene>
									<shottake></shottake>
									<lognote></lognote>
									<good></good>
									<originalvideofilename></originalvideofilename>
									<originalaudiofilename></originalaudiofilename>
								</logginginfo>
								<colorinfo>
									<lut></lut>
									<lut1></lut1>
									<asc_sop></asc_sop>
									<asc_sat></asc_sat>
									<lut2></lut2>
								</colorinfo>
								<labels>
									<label2>Violet</label2>
								</labels>
							</clip>
							<clip id="masterclip-390" explodedTracks="true">
								<uuid>aee07e71-7e5e-48df-81eb-c4e9d2a52308</uuid>
								<masterclipid>masterclip-390</masterclipid>
								<ismasterclip>TRUE</ismasterclip>
								<duration>511</duration>
								<rate>
									<timebase>30</timebase>
									<ntsc>TRUE</ntsc>
								</rate>
								<name>319824_Ocean Cliff Aerial Coast_By_21_Aerials_Artlist_HD.mp4</name>
								<media>
									<video>
										<track>
											<clipitem id="clipitem-1027">
												<masterclipid>masterclip-390</masterclipid>
												<name>319824_Ocean Cliff Aerial Coast_By_21_Aerials_Artlist_HD.mp4</name>
												<rate>
													<timebase>30</timebase>
													<ntsc>TRUE</ntsc>
												</rate>
												<alphatype>none</alphatype>
												<pixelaspectratio>square</pixelaspectratio>
												<anamorphic>FALSE</anamorphic>
												<file id="file-362">
													<name>319824_Ocean Cliff Aerial Coast_By_21_Aerials_Artlist_HD.mp4</name>
													<pathurl>file://localhost/Volumes/T7/DRONE_08.18.2023/3_Raw%20Files/Lagos,%20Portugal/319824_Ocean%20Cliff%20Aerial%20Coast_By_21_Aerials_Artlist_HD.mp4</pathurl>
													<rate>
														<timebase>30</timebase>
														<ntsc>TRUE</ntsc>
													</rate>
													<duration>511</duration>
													<timecode>
														<rate>
															<timebase>30</timebase>
															<ntsc>TRUE</ntsc>
														</rate>
														<string>00:00:00:00</string>
														<frame>0</frame>
														<displayformat>NDF</displayformat>
													</timecode>
													<media>
														<video>
															<samplecharacteristics>
																<rate>
																	<timebase>30</timebase>
																	<ntsc>TRUE</ntsc>
																</rate>
																<width>1920</width>
																<height>1080</height>
																<anamorphic>FALSE</anamorphic>
																<pixelaspectratio>square</pixelaspectratio>
																<fielddominance>none</fielddominance>
															</samplecharacteristics>
														</video>
													</media>
												</file>
											</clipitem>
										</track>
									</video>
								</media>
								<logginginfo>
									<description></description>
									<scene></scene>
									<shottake></shottake>
									<lognote></lognote>
									<good></good>
									<originalvideofilename></originalvideofilename>
									<originalaudiofilename></originalaudiofilename>
								</logginginfo>
								<colorinfo>
									<lut></lut>
									<lut1></lut1>
									<asc_sop></asc_sop>
									<asc_sat></asc_sat>
									<lut2></lut2>
								</colorinfo>
								<labels>
									<label2>Violet</label2>
								</labels>
							</clip>
							<clip id="masterclip-391" explodedTracks="true">
								<uuid>172b37cf-09dd-465e-8921-1a811608a481</uuid>
								<masterclipid>masterclip-391</masterclipid>
								<ismasterclip>TRUE</ismasterclip>
								<duration>455</duration>
								<rate>
									<timebase>30</timebase>
									<ntsc>TRUE</ntsc>
								</rate>
								<name>319828_Harbor Wall Ocean Sea Waves_By_21_Aerials_Artlist_HD.mp4</name>
								<media>
									<video>
										<track>
											<clipitem id="clipitem-1028">
												<masterclipid>masterclip-391</masterclipid>
												<name>319828_Harbor Wall Ocean Sea Waves_By_21_Aerials_Artlist_HD.mp4</name>
												<rate>
													<timebase>30</timebase>
													<ntsc>TRUE</ntsc>
												</rate>
												<alphatype>none</alphatype>
												<pixelaspectratio>square</pixelaspectratio>
												<anamorphic>FALSE</anamorphic>
												<file id="file-363">
													<name>319828_Harbor Wall Ocean Sea Waves_By_21_Aerials_Artlist_HD.mp4</name>
													<pathurl>file://localhost/Volumes/T7/DRONE_08.18.2023/3_Raw%20Files/Lagos,%20Portugal/319828_Harbor%20Wall%20Ocean%20Sea%20Waves_By_21_Aerials_Artlist_HD.mp4</pathurl>
													<rate>
														<timebase>30</timebase>
														<ntsc>TRUE</ntsc>
													</rate>
													<duration>455</duration>
													<timecode>
														<rate>
															<timebase>30</timebase>
															<ntsc>TRUE</ntsc>
														</rate>
														<string>00:00:00:00</string>
														<frame>0</frame>
														<displayformat>NDF</displayformat>
													</timecode>
													<media>
														<video>
															<samplecharacteristics>
																<rate>
																	<timebase>30</timebase>
																	<ntsc>TRUE</ntsc>
																</rate>
																<width>1920</width>
																<height>1080</height>
																<anamorphic>FALSE</anamorphic>
																<pixelaspectratio>square</pixelaspectratio>
																<fielddominance>none</fielddominance>
															</samplecharacteristics>
														</video>
													</media>
												</file>
											</clipitem>
										</track>
									</video>
								</media>
								<logginginfo>
									<description></description>
									<scene></scene>
									<shottake></shottake>
									<lognote></lognote>
									<good></good>
									<originalvideofilename></originalvideofilename>
									<originalaudiofilename></originalaudiofilename>
								</logginginfo>
								<colorinfo>
									<lut></lut>
									<lut1></lut1>
									<asc_sop></asc_sop>
									<asc_sat></asc_sat>
									<lut2></lut2>
								</colorinfo>
								<labels>
									<label2>Violet</label2>
								</labels>
							</clip>
							<clip id="masterclip-392" explodedTracks="true">
								<uuid>2b83b27d-8260-4f9f-9065-d7177acce09b</uuid>
								<masterclipid>masterclip-392</masterclipid>
								<ismasterclip>TRUE</ismasterclip>
								<duration>394</duration>
								<rate>
									<timebase>30</timebase>
									<ntsc>TRUE</ntsc>
								</rate>
								<name>319830_Town Buildings Waterway Ocean Canal Lagos_By_21_Aerials_Artlist_HD.mp4</name>
								<media>
									<video>
										<track>
											<clipitem id="clipitem-1029">
												<masterclipid>masterclip-392</masterclipid>
												<name>319830_Town Buildings Waterway Ocean Canal Lagos_By_21_Aerials_Artlist_HD.mp4</name>
												<rate>
													<timebase>30</timebase>
													<ntsc>TRUE</ntsc>
												</rate>
												<alphatype>none</alphatype>
												<pixelaspectratio>square</pixelaspectratio>
												<anamorphic>FALSE</anamorphic>
												<file id="file-364">
													<name>319830_Town Buildings Waterway Ocean Canal Lagos_By_21_Aerials_Artlist_HD.mp4</name>
													<pathurl>file://localhost/Volumes/T7/DRONE_08.18.2023/3_Raw%20Files/Lagos,%20Portugal/319830_Town%20Buildings%20Waterway%20Ocean%20Canal%20Lagos_By_21_Aerials_Artlist_HD.mp4</pathurl>
													<rate>
														<timebase>30</timebase>
														<ntsc>TRUE</ntsc>
													</rate>
													<duration>394</duration>
													<timecode>
														<rate>
															<timebase>30</timebase>
															<ntsc>TRUE</ntsc>
														</rate>
														<string>00:00:00:00</string>
														<frame>0</frame>
														<displayformat>NDF</displayformat>
													</timecode>
													<media>
														<video>
															<samplecharacteristics>
																<rate>
																	<timebase>30</timebase>
																	<ntsc>TRUE</ntsc>
																</rate>
																<width>1920</width>
																<height>1080</height>
																<anamorphic>FALSE</anamorphic>
																<pixelaspectratio>square</pixelaspectratio>
																<fielddominance>none</fielddominance>
															</samplecharacteristics>
														</video>
													</media>
												</file>
											</clipitem>
										</track>
									</video>
								</media>
								<logginginfo>
									<description></description>
									<scene></scene>
									<shottake></shottake>
									<lognote></lognote>
									<good></good>
									<originalvideofilename></originalvideofilename>
									<originalaudiofilename></originalaudiofilename>
								</logginginfo>
								<colorinfo>
									<lut></lut>
									<lut1></lut1>
									<asc_sop></asc_sop>
									<asc_sat></asc_sat>
									<lut2></lut2>
								</colorinfo>
								<labels>
									<label2>Violet</label2>
								</labels>
							</clip>
							<clip id="masterclip-393" explodedTracks="true">
								<uuid>2acb8d57-ebf9-46ad-997e-d027dc494dbb</uuid>
								<masterclipid>masterclip-393</masterclipid>
								<ismasterclip>TRUE</ismasterclip>
								<duration>241</duration>
								<rate>
									<timebase>30</timebase>
									<ntsc>TRUE</ntsc>
								</rate>
								<name>319834_Road Coast Aerial Cars_By_21_Aerials_Artlist_HD.mp4</name>
								<media>
									<video>
										<track>
											<clipitem id="clipitem-1030">
												<masterclipid>masterclip-393</masterclipid>
												<name>319834_Road Coast Aerial Cars_By_21_Aerials_Artlist_HD.mp4</name>
												<rate>
													<timebase>30</timebase>
													<ntsc>TRUE</ntsc>
												</rate>
												<alphatype>none</alphatype>
												<pixelaspectratio>square</pixelaspectratio>
												<anamorphic>FALSE</anamorphic>
												<file id="file-365">
													<name>319834_Road Coast Aerial Cars_By_21_Aerials_Artlist_HD.mp4</name>
													<pathurl>file://localhost/Volumes/T7/DRONE_08.18.2023/3_Raw%20Files/Lagos,%20Portugal/319834_Road%20Coast%20Aerial%20Cars_By_21_Aerials_Artlist_HD.mp4</pathurl>
													<rate>
														<timebase>30</timebase>
														<ntsc>TRUE</ntsc>
													</rate>
													<duration>241</duration>
													<timecode>
														<rate>
															<timebase>30</timebase>
															<ntsc>TRUE</ntsc>
														</rate>
														<string>00:00:00:00</string>
														<frame>0</frame>
														<displayformat>NDF</displayformat>
													</timecode>
													<media>
														<video>
															<samplecharacteristics>
																<rate>
																	<timebase>30</timebase>
																	<ntsc>TRUE</ntsc>
																</rate>
																<width>1920</width>
																<height>1080</height>
																<anamorphic>FALSE</anamorphic>
																<pixelaspectratio>square</pixelaspectratio>
																<fielddominance>none</fielddominance>
															</samplecharacteristics>
														</video>
													</media>
												</file>
											</clipitem>
										</track>
									</video>
								</media>
								<logginginfo>
									<description></description>
									<scene></scene>
									<shottake></shottake>
									<lognote></lognote>
									<good></good>
									<originalvideofilename></originalvideofilename>
									<originalaudiofilename></originalaudiofilename>
								</logginginfo>
								<colorinfo>
									<lut></lut>
									<lut1></lut1>
									<asc_sop></asc_sop>
									<asc_sat></asc_sat>
									<lut2></lut2>
								</colorinfo>
								<labels>
									<label2>Violet</label2>
								</labels>
							</clip>
							<clip id="masterclip-299" explodedTracks="true">
								<uuid>00c7d610-7512-494a-bcdb-fba6c9e9a87d</uuid>
								<masterclipid>masterclip-299</masterclipid>
								<ismasterclip>TRUE</ismasterclip>
								<duration>731</duration>
								<rate>
									<timebase>30</timebase>
									<ntsc>TRUE</ntsc>
								</rate>
								<name>319802_Coast Ocean Cliff Aerial_By_21_Aerials_Artlist_HD.mp4</name>
								<media>
									<video>
										<track>
											<clipitem id="clipitem-1031">
												<masterclipid>masterclip-299</masterclipid>
												<name>319802_Coast Ocean Cliff Aerial_By_21_Aerials_Artlist_HD.mp4</name>
												<rate>
													<timebase>30</timebase>
													<ntsc>TRUE</ntsc>
												</rate>
												<alphatype>none</alphatype>
												<file id="file-273"/>
											</clipitem>
										</track>
									</video>
								</media>
								<logginginfo>
									<description></description>
									<scene></scene>
									<shottake></shottake>
									<lognote></lognote>
									<good></good>
									<originalvideofilename></originalvideofilename>
									<originalaudiofilename></originalaudiofilename>
								</logginginfo>
								<colorinfo>
									<lut></lut>
									<lut1></lut1>
									<asc_sop></asc_sop>
									<asc_sat></asc_sat>
									<lut2></lut2>
								</colorinfo>
								<labels>
									<label2>Violet</label2>
								</labels>
							</clip>
							<clip id="masterclip-300" explodedTracks="true">
								<uuid>1b82d7b8-f155-44bf-84fe-d9f87792d5b2</uuid>
								<masterclipid>masterclip-300</masterclipid>
								<ismasterclip>TRUE</ismasterclip>
								<duration>441</duration>
								<rate>
									<timebase>30</timebase>
									<ntsc>TRUE</ntsc>
								</rate>
								<name>319839_Cliff Coast Erosion Beach_By_21_Aerials_Artlist_HD.mp4</name>
								<media>
									<video>
										<track>
											<clipitem id="clipitem-1032">
												<masterclipid>masterclip-300</masterclipid>
												<name>319839_Cliff Coast Erosion Beach_By_21_Aerials_Artlist_HD.mp4</name>
												<rate>
													<timebase>30</timebase>
													<ntsc>TRUE</ntsc>
												</rate>
												<alphatype>none</alphatype>
												<file id="file-274"/>
											</clipitem>
										</track>
									</video>
								</media>
								<logginginfo>
									<description></description>
									<scene></scene>
									<shottake></shottake>
									<lognote></lognote>
									<good></good>
									<originalvideofilename></originalvideofilename>
									<originalaudiofilename></originalaudiofilename>
								</logginginfo>
								<colorinfo>
									<lut></lut>
									<lut1></lut1>
									<asc_sop></asc_sop>
									<asc_sat></asc_sat>
									<lut2></lut2>
								</colorinfo>
								<labels>
									<label2>Violet</label2>
								</labels>
							</clip>
							<clip id="masterclip-301" explodedTracks="true">
								<uuid>3de6cb2c-f225-453d-86f1-f0215e620e21</uuid>
								<masterclipid>masterclip-301</masterclipid>
								<ismasterclip>TRUE</ismasterclip>
								<duration>587</duration>
								<rate>
									<timebase>30</timebase>
									<ntsc>TRUE</ntsc>
								</rate>
								<name>319811_Rooftops Residential Aerial Neighborhood_By_21_Aerials_Artlist_HD.mp4</name>
								<media>
									<video>
										<track>
											<clipitem id="clipitem-1033">
												<masterclipid>masterclip-301</masterclipid>
												<name>319811_Rooftops Residential Aerial Neighborhood_By_21_Aerials_Artlist_HD.mp4</name>
												<rate>
													<timebase>30</timebase>
													<ntsc>TRUE</ntsc>
												</rate>
												<alphatype>none</alphatype>
												<file id="file-275"/>
											</clipitem>
										</track>
									</video>
								</media>
								<logginginfo>
									<description></description>
									<scene></scene>
									<shottake></shottake>
									<lognote></lognote>
									<good></good>
									<originalvideofilename></originalvideofilename>
									<originalaudiofilename></originalaudiofilename>
								</logginginfo>
								<colorinfo>
									<lut></lut>
									<lut1></lut1>
									<asc_sop></asc_sop>
									<asc_sat></asc_sat>
									<lut2></lut2>
								</colorinfo>
								<labels>
									<label2>Violet</label2>
								</labels>
							</clip>
						</children>
					</bin>
					<bin>
						<name>Lagos, Portugal</name>
						<labels>
							<label2>Mango</label2>
						</labels>
						<children>
							<clip id="masterclip-297" explodedTracks="true">
								<uuid>ebe78479-8663-478b-937f-96b6134c6da4</uuid>
								<masterclipid>masterclip-297</masterclipid>
								<ismasterclip>TRUE</ismasterclip>
								<duration>618</duration>
								<rate>
									<timebase>30</timebase>
									<ntsc>TRUE</ntsc>
								</rate>
								<name>319793_Cliff Coast Beacon Ocean_By_21_Aerials_Artlist_HD.mp4</name>
								<media>
									<video>
										<track>
											<clipitem id="clipitem-1034">
												<masterclipid>masterclip-297</masterclipid>
												<name>319793_Cliff Coast Beacon Ocean_By_21_Aerials_Artlist_HD.mp4</name>
												<rate>
													<timebase>30</timebase>
													<ntsc>TRUE</ntsc>
												</rate>
												<alphatype>none</alphatype>
												<file id="file-271"/>
											</clipitem>
										</track>
									</video>
								</media>
								<logginginfo>
									<description></description>
									<scene></scene>
									<shottake></shottake>
									<lognote></lognote>
									<good></good>
									<originalvideofilename></originalvideofilename>
									<originalaudiofilename></originalaudiofilename>
								</logginginfo>
								<colorinfo>
									<lut></lut>
									<lut1></lut1>
									<asc_sop></asc_sop>
									<asc_sat></asc_sat>
									<lut2></lut2>
								</colorinfo>
								<labels>
									<label2>Violet</label2>
								</labels>
							</clip>
							<clip id="masterclip-294" explodedTracks="true">
								<uuid>5708a60f-d1c4-4e90-8848-b3b0b1345bb6</uuid>
								<masterclipid>masterclip-294</masterclipid>
								<ismasterclip>TRUE</ismasterclip>
								<duration>369</duration>
								<rate>
									<timebase>30</timebase>
									<ntsc>TRUE</ntsc>
								</rate>
								<name>319803_Footbridge Harbor Boats Aerial_By_21_Aerials_Artlist_HD.mp4</name>
								<media>
									<video>
										<track>
											<clipitem id="clipitem-1035">
												<masterclipid>masterclip-294</masterclipid>
												<name>319803_Footbridge Harbor Boats Aerial_By_21_Aerials_Artlist_HD.mp4</name>
												<rate>
													<timebase>30</timebase>
													<ntsc>TRUE</ntsc>
												</rate>
												<alphatype>none</alphatype>
												<file id="file-268"/>
											</clipitem>
										</track>
									</video>
								</media>
								<logginginfo>
									<description></description>
									<scene></scene>
									<shottake></shottake>
									<lognote></lognote>
									<good></good>
									<originalvideofilename></originalvideofilename>
									<originalaudiofilename></originalaudiofilename>
								</logginginfo>
								<colorinfo>
									<lut></lut>
									<lut1></lut1>
									<asc_sop></asc_sop>
									<asc_sat></asc_sat>
									<lut2></lut2>
								</colorinfo>
								<labels>
									<label2>Violet</label2>
								</labels>
							</clip>
							<clip id="masterclip-293" explodedTracks="true">
								<uuid>19b0f6f8-2c1e-4a29-aa0f-354b48d9ca90</uuid>
								<masterclipid>masterclip-293</masterclipid>
								<ismasterclip>TRUE</ismasterclip>
								<duration>883</duration>
								<rate>
									<timebase>30</timebase>
									<ntsc>TRUE</ntsc>
								</rate>
								<name>319806_Road Coast Town Aerial_By_21_Aerials_Artlist_HD.mp4</name>
								<media>
									<video>
										<track>
											<clipitem id="clipitem-1036">
												<masterclipid>masterclip-293</masterclipid>
												<name>319806_Road Coast Town Aerial_By_21_Aerials_Artlist_HD.mp4</name>
												<rate>
													<timebase>30</timebase>
													<ntsc>TRUE</ntsc>
												</rate>
												<alphatype>none</alphatype>
												<file id="file-267"/>
											</clipitem>
										</track>
									</video>
								</media>
								<logginginfo>
									<description></description>
									<scene></scene>
									<shottake></shottake>
									<lognote></lognote>
									<good></good>
									<originalvideofilename></originalvideofilename>
									<originalaudiofilename></originalaudiofilename>
								</logginginfo>
								<colorinfo>
									<lut></lut>
									<lut1></lut1>
									<asc_sop></asc_sop>
									<asc_sat></asc_sat>
									<lut2></lut2>
								</colorinfo>
								<labels>
									<label2>Violet</label2>
								</labels>
							</clip>
							<clip id="masterclip-288" explodedTracks="true">
								<uuid>262f8548-13aa-433e-9a2a-c44656d18128</uuid>
								<masterclipid>masterclip-288</masterclipid>
								<ismasterclip>TRUE</ismasterclip>
								<duration>610</duration>
								<rate>
									<timebase>30</timebase>
									<ntsc>TRUE</ntsc>
								</rate>
								<name>319810_Rooftops Residential Aerial Neighborhood_By_21_Aerials_Artlist_HD.mp4</name>
								<media>
									<video>
										<track>
											<clipitem id="clipitem-1037">
												<masterclipid>masterclip-288</masterclipid>
												<name>319810_Rooftops Residential Aerial Neighborhood_By_21_Aerials_Artlist_HD.mp4</name>
												<rate>
													<timebase>30</timebase>
													<ntsc>TRUE</ntsc>
												</rate>
												<alphatype>none</alphatype>
												<file id="file-262"/>
											</clipitem>
										</track>
									</video>
								</media>
								<logginginfo>
									<description></description>
									<scene></scene>
									<shottake></shottake>
									<lognote></lognote>
									<good></good>
									<originalvideofilename></originalvideofilename>
									<originalaudiofilename></originalaudiofilename>
								</logginginfo>
								<colorinfo>
									<lut></lut>
									<lut1></lut1>
									<asc_sop></asc_sop>
									<asc_sat></asc_sat>
									<lut2></lut2>
								</colorinfo>
								<labels>
									<label2>Violet</label2>
								</labels>
							</clip>
							<clip id="masterclip-298" explodedTracks="true">
								<uuid>9cac0873-36a4-45b4-907b-0b8263fb96ad</uuid>
								<masterclipid>masterclip-298</masterclipid>
								<ismasterclip>TRUE</ismasterclip>
								<duration>645</duration>
								<rate>
									<timebase>30</timebase>
									<ntsc>TRUE</ntsc>
								</rate>
								<name>319812_Town Buildings Lagos Aerial Ocean_By_21_Aerials_Artlist_HD.mp4</name>
								<media>
									<video>
										<track>
											<clipitem id="clipitem-1038">
												<masterclipid>masterclip-298</masterclipid>
												<name>319812_Town Buildings Lagos Aerial Ocean_By_21_Aerials_Artlist_HD.mp4</name>
												<rate>
													<timebase>30</timebase>
													<ntsc>TRUE</ntsc>
												</rate>
												<alphatype>none</alphatype>
												<file id="file-272"/>
											</clipitem>
										</track>
									</video>
								</media>
								<logginginfo>
									<description></description>
									<scene></scene>
									<shottake></shottake>
									<lognote></lognote>
									<good></good>
									<originalvideofilename></originalvideofilename>
									<originalaudiofilename></originalaudiofilename>
								</logginginfo>
								<colorinfo>
									<lut></lut>
									<lut1></lut1>
									<asc_sop></asc_sop>
									<asc_sat></asc_sat>
									<lut2></lut2>
								</colorinfo>
								<labels>
									<label2>Violet</label2>
								</labels>
							</clip>
							<clip id="masterclip-289" explodedTracks="true">
								<uuid>c964dab4-4563-4799-8a32-0e5d738677f0</uuid>
								<masterclipid>masterclip-289</masterclipid>
								<ismasterclip>TRUE</ismasterclip>
								<duration>431</duration>
								<rate>
									<timebase>30</timebase>
									<ntsc>TRUE</ntsc>
								</rate>
								<name>319815_Rooftops Town Buildings Coast Shore_By_21_Aerials_Artlist_HD.mp4</name>
								<media>
									<video>
										<track>
											<clipitem id="clipitem-1039">
												<masterclipid>masterclip-289</masterclipid>
												<name>319815_Rooftops Town Buildings Coast Shore_By_21_Aerials_Artlist_HD.mp4</name>
												<rate>
													<timebase>30</timebase>
													<ntsc>TRUE</ntsc>
												</rate>
												<alphatype>none</alphatype>
												<file id="file-263"/>
											</clipitem>
										</track>
									</video>
								</media>
								<logginginfo>
									<description></description>
									<scene></scene>
									<shottake></shottake>
									<lognote></lognote>
									<good></good>
									<originalvideofilename></originalvideofilename>
									<originalaudiofilename></originalaudiofilename>
								</logginginfo>
								<colorinfo>
									<lut></lut>
									<lut1></lut1>
									<asc_sop></asc_sop>
									<asc_sat></asc_sat>
									<lut2></lut2>
								</colorinfo>
								<labels>
									<label2>Violet</label2>
								</labels>
							</clip>
							<clip id="masterclip-292" explodedTracks="true">
								<uuid>b73f195e-edba-4ac5-978e-847e8f8ee941</uuid>
								<masterclipid>masterclip-292</masterclipid>
								<ismasterclip>TRUE</ismasterclip>
								<duration>693</duration>
								<rate>
									<timebase>30</timebase>
									<ntsc>TRUE</ntsc>
								</rate>
								<name>319818_Rooftops Town Buildings Coast Shore_By_21_Aerials_Artlist_HD.mp4</name>
								<media>
									<video>
										<track>
											<clipitem id="clipitem-1040">
												<masterclipid>masterclip-292</masterclipid>
												<name>319818_Rooftops Town Buildings Coast Shore_By_21_Aerials_Artlist_HD.mp4</name>
												<rate>
													<timebase>30</timebase>
													<ntsc>TRUE</ntsc>
												</rate>
												<alphatype>none</alphatype>
												<file id="file-266"/>
											</clipitem>
										</track>
									</video>
								</media>
								<logginginfo>
									<description></description>
									<scene></scene>
									<shottake></shottake>
									<lognote></lognote>
									<good></good>
									<originalvideofilename></originalvideofilename>
									<originalaudiofilename></originalaudiofilename>
								</logginginfo>
								<colorinfo>
									<lut></lut>
									<lut1></lut1>
									<asc_sop></asc_sop>
									<asc_sat></asc_sat>
									<lut2></lut2>
								</colorinfo>
								<labels>
									<label2>Violet</label2>
								</labels>
							</clip>
							<clip id="masterclip-290" explodedTracks="true">
								<uuid>985c818a-59db-4c3d-983b-7af31e5af6b6</uuid>
								<masterclipid>masterclip-290</masterclipid>
								<ismasterclip>TRUE</ismasterclip>
								<duration>511</duration>
								<rate>
									<timebase>30</timebase>
									<ntsc>TRUE</ntsc>
								</rate>
								<name>319824_Ocean Cliff Aerial Coast_By_21_Aerials_Artlist_HD.mp4</name>
								<media>
									<video>
										<track>
											<clipitem id="clipitem-1041">
												<masterclipid>masterclip-290</masterclipid>
												<name>319824_Ocean Cliff Aerial Coast_By_21_Aerials_Artlist_HD.mp4</name>
												<rate>
													<timebase>30</timebase>
													<ntsc>TRUE</ntsc>
												</rate>
												<alphatype>none</alphatype>
												<file id="file-264"/>
											</clipitem>
										</track>
									</video>
								</media>
								<logginginfo>
									<description></description>
									<scene></scene>
									<shottake></shottake>
									<lognote></lognote>
									<good></good>
									<originalvideofilename></originalvideofilename>
									<originalaudiofilename></originalaudiofilename>
								</logginginfo>
								<colorinfo>
									<lut></lut>
									<lut1></lut1>
									<asc_sop></asc_sop>
									<asc_sat></asc_sat>
									<lut2></lut2>
								</colorinfo>
								<labels>
									<label2>Violet</label2>
								</labels>
							</clip>
							<clip id="masterclip-295" explodedTracks="true">
								<uuid>6a073442-c223-414c-824e-9048aed10682</uuid>
								<masterclipid>masterclip-295</masterclipid>
								<ismasterclip>TRUE</ismasterclip>
								<duration>455</duration>
								<rate>
									<timebase>30</timebase>
									<ntsc>TRUE</ntsc>
								</rate>
								<name>319828_Harbor Wall Ocean Sea Waves_By_21_Aerials_Artlist_HD.mp4</name>
								<media>
									<video>
										<track>
											<clipitem id="clipitem-1042">
												<masterclipid>masterclip-295</masterclipid>
												<name>319828_Harbor Wall Ocean Sea Waves_By_21_Aerials_Artlist_HD.mp4</name>
												<rate>
													<timebase>30</timebase>
													<ntsc>TRUE</ntsc>
												</rate>
												<alphatype>none</alphatype>
												<file id="file-269"/>
											</clipitem>
										</track>
									</video>
								</media>
								<logginginfo>
									<description></description>
									<scene></scene>
									<shottake></shottake>
									<lognote></lognote>
									<good></good>
									<originalvideofilename></originalvideofilename>
									<originalaudiofilename></originalaudiofilename>
								</logginginfo>
								<colorinfo>
									<lut></lut>
									<lut1></lut1>
									<asc_sop></asc_sop>
									<asc_sat></asc_sat>
									<lut2></lut2>
								</colorinfo>
								<labels>
									<label2>Violet</label2>
								</labels>
							</clip>
							<clip id="masterclip-291" explodedTracks="true">
								<uuid>36551468-5bb7-4226-8aba-2738681c2bef</uuid>
								<masterclipid>masterclip-291</masterclipid>
								<ismasterclip>TRUE</ismasterclip>
								<duration>394</duration>
								<rate>
									<timebase>30</timebase>
									<ntsc>TRUE</ntsc>
								</rate>
								<name>319830_Town Buildings Waterway Ocean Canal Lagos_By_21_Aerials_Artlist_HD.mp4</name>
								<media>
									<video>
										<track>
											<clipitem id="clipitem-1043">
												<masterclipid>masterclip-291</masterclipid>
												<name>319830_Town Buildings Waterway Ocean Canal Lagos_By_21_Aerials_Artlist_HD.mp4</name>
												<rate>
													<timebase>30</timebase>
													<ntsc>TRUE</ntsc>
												</rate>
												<alphatype>none</alphatype>
												<file id="file-265"/>
											</clipitem>
										</track>
									</video>
								</media>
								<logginginfo>
									<description></description>
									<scene></scene>
									<shottake></shottake>
									<lognote></lognote>
									<good></good>
									<originalvideofilename></originalvideofilename>
									<originalaudiofilename></originalaudiofilename>
								</logginginfo>
								<colorinfo>
									<lut></lut>
									<lut1></lut1>
									<asc_sop></asc_sop>
									<asc_sat></asc_sat>
									<lut2></lut2>
								</colorinfo>
								<labels>
									<label2>Violet</label2>
								</labels>
							</clip>
							<clip id="masterclip-296" explodedTracks="true">
								<uuid>a9f60e42-129e-4d2a-b531-ae823e682a1f</uuid>
								<masterclipid>masterclip-296</masterclipid>
								<ismasterclip>TRUE</ismasterclip>
								<duration>241</duration>
								<rate>
									<timebase>30</timebase>
									<ntsc>TRUE</ntsc>
								</rate>
								<name>319834_Road Coast Aerial Cars_By_21_Aerials_Artlist_HD.mp4</name>
								<media>
									<video>
										<track>
											<clipitem id="clipitem-1044">
												<masterclipid>masterclip-296</masterclipid>
												<name>319834_Road Coast Aerial Cars_By_21_Aerials_Artlist_HD.mp4</name>
												<rate>
													<timebase>30</timebase>
													<ntsc>TRUE</ntsc>
												</rate>
												<alphatype>none</alphatype>
												<file id="file-270"/>
											</clipitem>
										</track>
									</video>
								</media>
								<logginginfo>
									<description></description>
									<scene></scene>
									<shottake></shottake>
									<lognote></lognote>
									<good></good>
									<originalvideofilename></originalvideofilename>
									<originalaudiofilename></originalaudiofilename>
								</logginginfo>
								<colorinfo>
									<lut></lut>
									<lut1></lut1>
									<asc_sop></asc_sop>
									<asc_sat></asc_sat>
									<lut2></lut2>
								</colorinfo>
								<labels>
									<label2>Violet</label2>
								</labels>
							</clip>
						</children>
					</bin>
					<bin>
						<name>Rainbow Mountains, Peru</name>
						<labels>
							<label2>Mango</label2>
						</labels>
						<children>
							<clip id="masterclip-315" explodedTracks="true">
								<uuid>c1e8f4d4-008a-4c02-b454-60fc9c6f036c</uuid>
								<masterclipid>masterclip-315</masterclipid>
								<ismasterclip>TRUE</ismasterclip>
								<duration>580</duration>
								<rate>
									<timebase>25</timebase>
									<ntsc>FALSE</ntsc>
								</rate>
								<name>569111_Mountains Drone Summit Above_By_Jmg-visuals__Artlist_HD.mp4</name>
								<media>
									<video>
										<track>
											<clipitem id="clipitem-1045">
												<masterclipid>masterclip-315</masterclipid>
												<name>569111_Mountains Drone Summit Above_By_Jmg-visuals__Artlist_HD.mp4</name>
												<rate>
													<timebase>25</timebase>
													<ntsc>FALSE</ntsc>
												</rate>
												<alphatype>none</alphatype>
												<file id="file-288"/>
											</clipitem>
										</track>
									</video>
								</media>
								<logginginfo>
									<description></description>
									<scene></scene>
									<shottake></shottake>
									<lognote></lognote>
									<good></good>
									<originalvideofilename></originalvideofilename>
									<originalaudiofilename></originalaudiofilename>
								</logginginfo>
								<colorinfo>
									<lut></lut>
									<lut1></lut1>
									<asc_sop></asc_sop>
									<asc_sat></asc_sat>
									<lut2></lut2>
								</colorinfo>
								<labels>
									<label2>Violet</label2>
								</labels>
							</clip>
							<clip id="masterclip-318" explodedTracks="true">
								<uuid>fedd59e8-3d3a-465b-a420-70f46dd2c0b9</uuid>
								<masterclipid>masterclip-318</masterclipid>
								<ismasterclip>TRUE</ismasterclip>
								<duration>464</duration>
								<rate>
									<timebase>25</timebase>
									<ntsc>FALSE</ntsc>
								</rate>
								<name>569114_Mountains Drone Summit Above_By_Jmg-visuals__Artlist_HD.mp4</name>
								<media>
									<video>
										<track>
											<clipitem id="clipitem-1046">
												<masterclipid>masterclip-318</masterclipid>
												<name>569114_Mountains Drone Summit Above_By_Jmg-visuals__Artlist_HD.mp4</name>
												<rate>
													<timebase>25</timebase>
													<ntsc>FALSE</ntsc>
												</rate>
												<alphatype>none</alphatype>
												<file id="file-291"/>
											</clipitem>
										</track>
									</video>
								</media>
								<logginginfo>
									<description></description>
									<scene></scene>
									<shottake></shottake>
									<lognote></lognote>
									<good></good>
									<originalvideofilename></originalvideofilename>
									<originalaudiofilename></originalaudiofilename>
								</logginginfo>
								<colorinfo>
									<lut></lut>
									<lut1></lut1>
									<asc_sop></asc_sop>
									<asc_sat></asc_sat>
									<lut2></lut2>
								</colorinfo>
								<labels>
									<label2>Violet</label2>
								</labels>
							</clip>
							<clip id="masterclip-310" explodedTracks="true">
								<uuid>bdf15a9a-5525-47fd-8b28-18e986000bfc</uuid>
								<masterclipid>masterclip-310</masterclipid>
								<ismasterclip>TRUE</ismasterclip>
								<duration>269</duration>
								<rate>
									<timebase>25</timebase>
									<ntsc>FALSE</ntsc>
								</rate>
								<name>569125_Mountains Fog View Summit_By_Jmg-visuals__Artlist_HD.mp4</name>
								<media>
									<video>
										<track>
											<clipitem id="clipitem-1047">
												<masterclipid>masterclip-310</masterclipid>
												<name>569125_Mountains Fog View Summit_By_Jmg-visuals__Artlist_HD.mp4</name>
												<rate>
													<timebase>25</timebase>
													<ntsc>FALSE</ntsc>
												</rate>
												<alphatype>none</alphatype>
												<file id="file-283"/>
											</clipitem>
										</track>
									</video>
								</media>
								<logginginfo>
									<description></description>
									<scene></scene>
									<shottake></shottake>
									<lognote></lognote>
									<good></good>
									<originalvideofilename></originalvideofilename>
									<originalaudiofilename></originalaudiofilename>
								</logginginfo>
								<colorinfo>
									<lut></lut>
									<lut1></lut1>
									<asc_sop></asc_sop>
									<asc_sat></asc_sat>
									<lut2></lut2>
								</colorinfo>
								<labels>
									<label2>Violet</label2>
								</labels>
							</clip>
							<clip id="masterclip-320" explodedTracks="true">
								<uuid>460bc703-3d90-4376-ac10-2400bb89025d</uuid>
								<masterclipid>masterclip-320</masterclipid>
								<ismasterclip>TRUE</ismasterclip>
								<duration>538</duration>
								<rate>
									<timebase>25</timebase>
									<ntsc>FALSE</ntsc>
								</rate>
								<name>569131_Mountains Fog View Summit_By_Jmg-visuals__Artlist_HD.mp4</name>
								<media>
									<video>
										<track>
											<clipitem id="clipitem-1048">
												<masterclipid>masterclip-320</masterclipid>
												<name>569131_Mountains Fog View Summit_By_Jmg-visuals__Artlist_HD.mp4</name>
												<rate>
													<timebase>25</timebase>
													<ntsc>FALSE</ntsc>
												</rate>
												<alphatype>none</alphatype>
												<file id="file-293"/>
											</clipitem>
										</track>
									</video>
								</media>
								<logginginfo>
									<description></description>
									<scene></scene>
									<shottake></shottake>
									<lognote></lognote>
									<good></good>
									<originalvideofilename></originalvideofilename>
									<originalaudiofilename></originalaudiofilename>
								</logginginfo>
								<colorinfo>
									<lut></lut>
									<lut1></lut1>
									<asc_sop></asc_sop>
									<asc_sat></asc_sat>
									<lut2></lut2>
								</colorinfo>
								<labels>
									<label2>Violet</label2>
								</labels>
							</clip>
							<clip id="masterclip-311" explodedTracks="true">
								<uuid>e5b85e6d-538d-417d-9240-04d0f34a1175</uuid>
								<masterclipid>masterclip-311</masterclipid>
								<ismasterclip>TRUE</ismasterclip>
								<duration>473</duration>
								<rate>
									<timebase>25</timebase>
									<ntsc>FALSE</ntsc>
								</rate>
								<name>569136_Mountains View Summit Highland_By_Jmg-visuals__Artlist_HD.mp4</name>
								<media>
									<video>
										<track>
											<clipitem id="clipitem-1049">
												<masterclipid>masterclip-311</masterclipid>
												<name>569136_Mountains View Summit Highland_By_Jmg-visuals__Artlist_HD.mp4</name>
												<rate>
													<timebase>25</timebase>
													<ntsc>FALSE</ntsc>
												</rate>
												<alphatype>none</alphatype>
												<file id="file-284"/>
											</clipitem>
										</track>
									</video>
								</media>
								<logginginfo>
									<description></description>
									<scene></scene>
									<shottake></shottake>
									<lognote></lognote>
									<good></good>
									<originalvideofilename></originalvideofilename>
									<originalaudiofilename></originalaudiofilename>
								</logginginfo>
								<colorinfo>
									<lut></lut>
									<lut1></lut1>
									<asc_sop></asc_sop>
									<asc_sat></asc_sat>
									<lut2></lut2>
								</colorinfo>
								<labels>
									<label2>Violet</label2>
								</labels>
							</clip>
							<clip id="masterclip-394" explodedTracks="true">
								<uuid>3333835b-f3ff-4e51-9fec-fd469c5f029c</uuid>
								<masterclipid>masterclip-394</masterclipid>
								<ismasterclip>TRUE</ismasterclip>
								<duration>104</duration>
								<rate>
									<timebase>25</timebase>
									<ntsc>FALSE</ntsc>
								</rate>
								<name>569118_Mountains Snow Drone Summit_By_Jmg-visuals__Artlist_HD.mp4</name>
								<media>
									<video>
										<track>
											<clipitem id="clipitem-1050">
												<masterclipid>masterclip-394</masterclipid>
												<name>569118_Mountains Snow Drone Summit_By_Jmg-visuals__Artlist_HD.mp4</name>
												<rate>
													<timebase>25</timebase>
													<ntsc>FALSE</ntsc>
												</rate>
												<alphatype>none</alphatype>
												<pixelaspectratio>square</pixelaspectratio>
												<anamorphic>FALSE</anamorphic>
												<file id="file-366">
													<name>569118_Mountains Snow Drone Summit_By_Jmg-visuals__Artlist_HD.mp4</name>
													<pathurl>file://localhost/Volumes/T7/DRONE_08.18.2023/3_Raw%20Files/Rainbow%20Mountains,%20Peru/569118_Mountains%20Snow%20Drone%20Summit_By_Jmg-visuals__Artlist_HD.mp4</pathurl>
													<rate>
														<timebase>25</timebase>
														<ntsc>FALSE</ntsc>
													</rate>
													<duration>104</duration>
													<timecode>
														<rate>
															<timebase>25</timebase>
															<ntsc>FALSE</ntsc>
														</rate>
														<string>00:02:22:14</string>
														<frame>3564</frame>
														<displayformat>NDF</displayformat>
													</timecode>
													<media>
														<video>
															<samplecharacteristics>
																<rate>
																	<timebase>25</timebase>
																	<ntsc>FALSE</ntsc>
																</rate>
																<width>1920</width>
																<height>1080</height>
																<anamorphic>FALSE</anamorphic>
																<pixelaspectratio>square</pixelaspectratio>
																<fielddominance>none</fielddominance>
															</samplecharacteristics>
														</video>
													</media>
												</file>
											</clipitem>
										</track>
									</video>
								</media>
								<logginginfo>
									<description></description>
									<scene></scene>
									<shottake></shottake>
									<lognote></lognote>
									<good></good>
									<originalvideofilename></originalvideofilename>
									<originalaudiofilename></originalaudiofilename>
								</logginginfo>
								<colorinfo>
									<lut></lut>
									<lut1></lut1>
									<asc_sop></asc_sop>
									<asc_sat></asc_sat>
									<lut2></lut2>
								</colorinfo>
								<labels>
									<label2>Violet</label2>
								</labels>
							</clip>
							<clip id="masterclip-319" explodedTracks="true">
								<uuid>0e735d2e-0856-47b3-8186-8739ec01963a</uuid>
								<masterclipid>masterclip-319</masterclipid>
								<ismasterclip>TRUE</ismasterclip>
								<duration>198</duration>
								<rate>
									<timebase>25</timebase>
									<ntsc>FALSE</ntsc>
								</rate>
								<name>569126_Mountains Fog View Summit_By_Jmg-visuals__Artlist_HD.mp4</name>
								<media>
									<video>
										<track>
											<clipitem id="clipitem-1051">
												<masterclipid>masterclip-319</masterclipid>
												<name>569126_Mountains Fog View Summit_By_Jmg-visuals__Artlist_HD.mp4</name>
												<rate>
													<timebase>25</timebase>
													<ntsc>FALSE</ntsc>
												</rate>
												<alphatype>none</alphatype>
												<file id="file-292"/>
											</clipitem>
										</track>
									</video>
								</media>
								<logginginfo>
									<description></description>
									<scene></scene>
									<shottake></shottake>
									<lognote></lognote>
									<good></good>
									<originalvideofilename></originalvideofilename>
									<originalaudiofilename></originalaudiofilename>
								</logginginfo>
								<colorinfo>
									<lut></lut>
									<lut1></lut1>
									<asc_sop></asc_sop>
									<asc_sat></asc_sat>
									<lut2></lut2>
								</colorinfo>
								<labels>
									<label2>Violet</label2>
								</labels>
							</clip>
							<clip id="masterclip-395" explodedTracks="true">
								<uuid>58433b9d-77bc-4b4e-99fc-4ff72afa6076</uuid>
								<masterclipid>masterclip-395</masterclipid>
								<ismasterclip>TRUE</ismasterclip>
								<duration>208</duration>
								<rate>
									<timebase>25</timebase>
									<ntsc>FALSE</ntsc>
								</rate>
								<name>569128_Mountains Fog View Summit_By_Jmg-visuals__Artlist_HD.mp4</name>
								<media>
									<video>
										<track>
											<clipitem id="clipitem-1052">
												<masterclipid>masterclip-395</masterclipid>
												<name>569128_Mountains Fog View Summit_By_Jmg-visuals__Artlist_HD.mp4</name>
												<rate>
													<timebase>25</timebase>
													<ntsc>FALSE</ntsc>
												</rate>
												<alphatype>none</alphatype>
												<pixelaspectratio>square</pixelaspectratio>
												<anamorphic>FALSE</anamorphic>
												<file id="file-367">
													<name>569128_Mountains Fog View Summit_By_Jmg-visuals__Artlist_HD.mp4</name>
													<pathurl>file://localhost/Volumes/T7/DRONE_08.18.2023/3_Raw%20Files/Rainbow%20Mountains,%20Peru/569128_Mountains%20Fog%20View%20Summit_By_Jmg-visuals__Artlist_HD.mp4</pathurl>
													<rate>
														<timebase>25</timebase>
														<ntsc>FALSE</ntsc>
													</rate>
													<duration>208</duration>
													<timecode>
														<rate>
															<timebase>25</timebase>
															<ntsc>FALSE</ntsc>
														</rate>
														<string>00:06:13:18</string>
														<frame>9343</frame>
														<displayformat>NDF</displayformat>
													</timecode>
													<media>
														<video>
															<samplecharacteristics>
																<rate>
																	<timebase>25</timebase>
																	<ntsc>FALSE</ntsc>
																</rate>
																<width>1920</width>
																<height>1080</height>
																<anamorphic>FALSE</anamorphic>
																<pixelaspectratio>square</pixelaspectratio>
																<fielddominance>none</fielddominance>
															</samplecharacteristics>
														</video>
													</media>
												</file>
											</clipitem>
										</track>
									</video>
								</media>
								<logginginfo>
									<description></description>
									<scene></scene>
									<shottake></shottake>
									<lognote></lognote>
									<good></good>
									<originalvideofilename></originalvideofilename>
									<originalaudiofilename></originalaudiofilename>
								</logginginfo>
								<colorinfo>
									<lut></lut>
									<lut1></lut1>
									<asc_sop></asc_sop>
									<asc_sat></asc_sat>
									<lut2></lut2>
								</colorinfo>
								<labels>
									<label2>Violet</label2>
								</labels>
							</clip>
							<clip id="masterclip-307" explodedTracks="true">
								<uuid>b27ba6be-c592-47dc-b0f0-ebb8dc42d9ea</uuid>
								<masterclipid>masterclip-307</masterclipid>
								<ismasterclip>TRUE</ismasterclip>
								<duration>702</duration>
								<rate>
									<timebase>25</timebase>
									<ntsc>FALSE</ntsc>
								</rate>
								<name>569139_Mountains Fog View Summit_By_Jmg-visuals__Artlist_HD.mp4</name>
								<media>
									<video>
										<track>
											<clipitem id="clipitem-1053">
												<masterclipid>masterclip-307</masterclipid>
												<name>569139_Mountains Fog View Summit_By_Jmg-visuals__Artlist_HD.mp4</name>
												<rate>
													<timebase>25</timebase>
													<ntsc>FALSE</ntsc>
												</rate>
												<alphatype>none</alphatype>
												<file id="file-280"/>
											</clipitem>
										</track>
									</video>
								</media>
								<logginginfo>
									<description></description>
									<scene></scene>
									<shottake></shottake>
									<lognote></lognote>
									<good></good>
									<originalvideofilename></originalvideofilename>
									<originalaudiofilename></originalaudiofilename>
								</logginginfo>
								<colorinfo>
									<lut></lut>
									<lut1></lut1>
									<asc_sop></asc_sop>
									<asc_sat></asc_sat>
									<lut2></lut2>
								</colorinfo>
								<labels>
									<label2>Violet</label2>
								</labels>
							</clip>
							<clip id="masterclip-312" explodedTracks="true">
								<uuid>663a944f-9395-48cb-a646-a1dc8b458668</uuid>
								<masterclipid>masterclip-312</masterclipid>
								<ismasterclip>TRUE</ismasterclip>
								<duration>595</duration>
								<rate>
									<timebase>25</timebase>
									<ntsc>FALSE</ntsc>
								</rate>
								<name>569115_Mountains Drone Summit Above_By_Jmg-visuals__Artlist_HD.mp4</name>
								<media>
									<video>
										<track>
											<clipitem id="clipitem-1054">
												<masterclipid>masterclip-312</masterclipid>
												<name>569115_Mountains Drone Summit Above_By_Jmg-visuals__Artlist_HD.mp4</name>
												<rate>
													<timebase>25</timebase>
													<ntsc>FALSE</ntsc>
												</rate>
												<alphatype>none</alphatype>
												<file id="file-285"/>
											</clipitem>
										</track>
									</video>
								</media>
								<logginginfo>
									<description></description>
									<scene></scene>
									<shottake></shottake>
									<lognote></lognote>
									<good></good>
									<originalvideofilename></originalvideofilename>
									<originalaudiofilename></originalaudiofilename>
								</logginginfo>
								<colorinfo>
									<lut></lut>
									<lut1></lut1>
									<asc_sop></asc_sop>
									<asc_sat></asc_sat>
									<lut2></lut2>
								</colorinfo>
								<labels>
									<label2>Violet</label2>
								</labels>
							</clip>
							<clip id="masterclip-313" explodedTracks="true">
								<uuid>04c69d7e-d70e-45bd-a1f4-fc32ee040cee</uuid>
								<masterclipid>masterclip-313</masterclipid>
								<ismasterclip>TRUE</ismasterclip>
								<duration>859</duration>
								<rate>
									<timebase>25</timebase>
									<ntsc>FALSE</ntsc>
								</rate>
								<name>569121_Valley Ponds Scenic Above_By_Jmg-visuals__Artlist_HD.mp4</name>
								<media>
									<video>
										<track>
											<clipitem id="clipitem-1055">
												<masterclipid>masterclip-313</masterclipid>
												<name>569121_Valley Ponds Scenic Above_By_Jmg-visuals__Artlist_HD.mp4</name>
												<rate>
													<timebase>25</timebase>
													<ntsc>FALSE</ntsc>
												</rate>
												<alphatype>none</alphatype>
												<file id="file-286"/>
											</clipitem>
										</track>
									</video>
								</media>
								<logginginfo>
									<description></description>
									<scene></scene>
									<shottake></shottake>
									<lognote></lognote>
									<good></good>
									<originalvideofilename></originalvideofilename>
									<originalaudiofilename></originalaudiofilename>
								</logginginfo>
								<colorinfo>
									<lut></lut>
									<lut1></lut1>
									<asc_sop></asc_sop>
									<asc_sat></asc_sat>
									<lut2></lut2>
								</colorinfo>
								<labels>
									<label2>Violet</label2>
								</labels>
							</clip>
							<clip id="masterclip-309" explodedTracks="true">
								<uuid>3e63ec31-140a-4958-9892-6a5425ef5103</uuid>
								<masterclipid>masterclip-309</masterclipid>
								<ismasterclip>TRUE</ismasterclip>
								<duration>442</duration>
								<rate>
									<timebase>25</timebase>
									<ntsc>FALSE</ntsc>
								</rate>
								<name>569130_Mountains Fog View Summit_By_Jmg-visuals__Artlist_HD.mp4</name>
								<media>
									<video>
										<track>
											<clipitem id="clipitem-1056">
												<masterclipid>masterclip-309</masterclipid>
												<name>569130_Mountains Fog View Summit_By_Jmg-visuals__Artlist_HD.mp4</name>
												<rate>
													<timebase>25</timebase>
													<ntsc>FALSE</ntsc>
												</rate>
												<alphatype>none</alphatype>
												<file id="file-282"/>
											</clipitem>
										</track>
									</video>
								</media>
								<logginginfo>
									<description></description>
									<scene></scene>
									<shottake></shottake>
									<lognote></lognote>
									<good></good>
									<originalvideofilename></originalvideofilename>
									<originalaudiofilename></originalaudiofilename>
								</logginginfo>
								<colorinfo>
									<lut></lut>
									<lut1></lut1>
									<asc_sop></asc_sop>
									<asc_sat></asc_sat>
									<lut2></lut2>
								</colorinfo>
								<labels>
									<label2>Violet</label2>
								</labels>
							</clip>
							<clip id="masterclip-317" explodedTracks="true">
								<uuid>a7c1d41c-111d-495f-ac4b-35c7a466e9d8</uuid>
								<masterclipid>masterclip-317</masterclipid>
								<ismasterclip>TRUE</ismasterclip>
								<duration>705</duration>
								<rate>
									<timebase>25</timebase>
									<ntsc>FALSE</ntsc>
								</rate>
								<name>569127_Mountains Fog View Summit_By_Jmg-visuals__Artlist_HD.mp4</name>
								<media>
									<video>
										<track>
											<clipitem id="clipitem-1057">
												<masterclipid>masterclip-317</masterclipid>
												<name>569127_Mountains Fog View Summit_By_Jmg-visuals__Artlist_HD.mp4</name>
												<rate>
													<timebase>25</timebase>
													<ntsc>FALSE</ntsc>
												</rate>
												<alphatype>none</alphatype>
												<file id="file-290"/>
											</clipitem>
										</track>
									</video>
								</media>
								<logginginfo>
									<description></description>
									<scene></scene>
									<shottake></shottake>
									<lognote></lognote>
									<good></good>
									<originalvideofilename></originalvideofilename>
									<originalaudiofilename></originalaudiofilename>
								</logginginfo>
								<colorinfo>
									<lut></lut>
									<lut1></lut1>
									<asc_sop></asc_sop>
									<asc_sat></asc_sat>
									<lut2></lut2>
								</colorinfo>
								<labels>
									<label2>Violet</label2>
								</labels>
							</clip>
							<clip id="masterclip-308" explodedTracks="true">
								<uuid>81197977-50f6-4303-8979-e9a46b76ccba</uuid>
								<masterclipid>masterclip-308</masterclipid>
								<ismasterclip>TRUE</ismasterclip>
								<duration>392</duration>
								<rate>
									<timebase>25</timebase>
									<ntsc>FALSE</ntsc>
								</rate>
								<name>569120_Mountains Snow Drone Summit_By_Jmg-visuals__Artlist_HD.mp4</name>
								<media>
									<video>
										<track>
											<clipitem id="clipitem-1058">
												<masterclipid>masterclip-308</masterclipid>
												<name>569120_Mountains Snow Drone Summit_By_Jmg-visuals__Artlist_HD.mp4</name>
												<rate>
													<timebase>25</timebase>
													<ntsc>FALSE</ntsc>
												</rate>
												<alphatype>none</alphatype>
												<file id="file-281"/>
											</clipitem>
										</track>
									</video>
								</media>
								<logginginfo>
									<description></description>
									<scene></scene>
									<shottake></shottake>
									<lognote></lognote>
									<good></good>
									<originalvideofilename></originalvideofilename>
									<originalaudiofilename></originalaudiofilename>
								</logginginfo>
								<colorinfo>
									<lut></lut>
									<lut1></lut1>
									<asc_sop></asc_sop>
									<asc_sat></asc_sat>
									<lut2></lut2>
								</colorinfo>
								<labels>
									<label2>Violet</label2>
								</labels>
							</clip>
							<clip id="masterclip-314" explodedTracks="true">
								<uuid>93baaee9-2fef-4b9f-a922-c4d6a9fc634e</uuid>
								<masterclipid>masterclip-314</masterclipid>
								<ismasterclip>TRUE</ismasterclip>
								<duration>854</duration>
								<rate>
									<timebase>25</timebase>
									<ntsc>FALSE</ntsc>
								</rate>
								<name>569123_Valley Sheep Scenic Above_By_Jmg-visuals__Artlist_HD.mp4</name>
								<media>
									<video>
										<track>
											<clipitem id="clipitem-1059">
												<masterclipid>masterclip-314</masterclipid>
												<name>569123_Valley Sheep Scenic Above_By_Jmg-visuals__Artlist_HD.mp4</name>
												<rate>
													<timebase>25</timebase>
													<ntsc>FALSE</ntsc>
												</rate>
												<alphatype>none</alphatype>
												<file id="file-287"/>
											</clipitem>
										</track>
									</video>
								</media>
								<logginginfo>
									<description></description>
									<scene></scene>
									<shottake></shottake>
									<lognote></lognote>
									<good></good>
									<originalvideofilename></originalvideofilename>
									<originalaudiofilename></originalaudiofilename>
								</logginginfo>
								<colorinfo>
									<lut></lut>
									<lut1></lut1>
									<asc_sop></asc_sop>
									<asc_sat></asc_sat>
									<lut2></lut2>
								</colorinfo>
								<labels>
									<label2>Violet</label2>
								</labels>
							</clip>
							<clip id="masterclip-306" explodedTracks="true">
								<uuid>320c4526-aecf-4b67-a353-c842ee3493c7</uuid>
								<masterclipid>masterclip-306</masterclipid>
								<ismasterclip>TRUE</ismasterclip>
								<duration>523</duration>
								<rate>
									<timebase>25</timebase>
									<ntsc>FALSE</ntsc>
								</rate>
								<name>569133_Mountains View Summit Highland_By_Jmg-visuals__Artlist_HD.mp4</name>
								<media>
									<video>
										<track>
											<clipitem id="clipitem-1060">
												<masterclipid>masterclip-306</masterclipid>
												<name>569133_Mountains View Summit Highland_By_Jmg-visuals__Artlist_HD.mp4</name>
												<rate>
													<timebase>25</timebase>
													<ntsc>FALSE</ntsc>
												</rate>
												<alphatype>none</alphatype>
												<file id="file-279"/>
											</clipitem>
										</track>
									</video>
								</media>
								<logginginfo>
									<description></description>
									<scene></scene>
									<shottake></shottake>
									<lognote></lognote>
									<good></good>
									<originalvideofilename></originalvideofilename>
									<originalaudiofilename></originalaudiofilename>
								</logginginfo>
								<colorinfo>
									<lut></lut>
									<lut1></lut1>
									<asc_sop></asc_sop>
									<asc_sat></asc_sat>
									<lut2></lut2>
								</colorinfo>
								<labels>
									<label2>Violet</label2>
								</labels>
							</clip>
							<clip id="masterclip-316" explodedTracks="true">
								<uuid>e0d89246-9097-486b-a2eb-bf77bd1bd44b</uuid>
								<masterclipid>masterclip-316</masterclipid>
								<ismasterclip>TRUE</ismasterclip>
								<duration>866</duration>
								<rate>
									<timebase>25</timebase>
									<ntsc>FALSE</ntsc>
								</rate>
								<name>569135_Mountains View Summit Highland_By_Jmg-visuals__Artlist_HD.mp4</name>
								<media>
									<video>
										<track>
											<clipitem id="clipitem-1061">
												<masterclipid>masterclip-316</masterclipid>
												<name>569135_Mountains View Summit Highland_By_Jmg-visuals__Artlist_HD.mp4</name>
												<rate>
													<timebase>25</timebase>
													<ntsc>FALSE</ntsc>
												</rate>
												<alphatype>none</alphatype>
												<file id="file-289"/>
											</clipitem>
										</track>
									</video>
								</media>
								<logginginfo>
									<description></description>
									<scene></scene>
									<shottake></shottake>
									<lognote></lognote>
									<good></good>
									<originalvideofilename></originalvideofilename>
									<originalaudiofilename></originalaudiofilename>
								</logginginfo>
								<colorinfo>
									<lut></lut>
									<lut1></lut1>
									<asc_sop></asc_sop>
									<asc_sat></asc_sat>
									<lut2></lut2>
								</colorinfo>
								<labels>
									<label2>Violet</label2>
								</labels>
							</clip>
						</children>
					</bin>
				</children>
			</bin>
			<bin>
				<name>5_Music</name>
				<labels>
					<label2>Mango</label2>
				</labels>
				<children>
					<clip id="masterclip-242" explodedTracks="true">
						<uuid>5a5a16e6-692e-46fd-b9a6-bc62af8351e8</uuid>
						<masterclipid>masterclip-242</masterclipid>
						<ismasterclip>TRUE</ismasterclip>
						<duration>5896</duration>
						<rate>
							<timebase>30</timebase>
							<ntsc>TRUE</ntsc>
						</rate>
						<name>ES_Solar Healing - Sum Wave.mp3</name>
						<media>
							<audio>
								<track>
									<clipitem id="clipitem-1062">
										<masterclipid>masterclip-242</masterclipid>
										<name>ES_Solar Healing - Sum Wave.mp3</name>
										<rate>
											<timebase>30</timebase>
											<ntsc>TRUE</ntsc>
										</rate>
										<file id="file-222"/>
										<sourcetrack>
											<mediatype>audio</mediatype>
											<trackindex>1</trackindex>
										</sourcetrack>
										<link>
											<linkclipref>clipitem-1062</linkclipref>
											<mediatype>audio</mediatype>
											<trackindex>1</trackindex>
											<clipindex>1</clipindex>
											<groupindex>1</groupindex>
										</link>
										<link>
											<linkclipref>clipitem-1063</linkclipref>
											<mediatype>audio</mediatype>
											<trackindex>2</trackindex>
											<clipindex>1</clipindex>
											<groupindex>1</groupindex>
										</link>
									</clipitem>
								</track>
								<track>
									<clipitem id="clipitem-1063">
										<masterclipid>masterclip-242</masterclipid>
										<name>ES_Solar Healing - Sum Wave.mp3</name>
										<rate>
											<timebase>30</timebase>
											<ntsc>TRUE</ntsc>
										</rate>
										<file id="file-222"/>
										<sourcetrack>
											<mediatype>audio</mediatype>
											<trackindex>2</trackindex>
										</sourcetrack>
										<link>
											<linkclipref>clipitem-1062</linkclipref>
											<mediatype>audio</mediatype>
											<trackindex>1</trackindex>
											<clipindex>1</clipindex>
											<groupindex>1</groupindex>
										</link>
										<link>
											<linkclipref>clipitem-1063</linkclipref>
											<mediatype>audio</mediatype>
											<trackindex>2</trackindex>
											<clipindex>1</clipindex>
											<groupindex>1</groupindex>
										</link>
									</clipitem>
								</track>
							</audio>
						</media>
						<logginginfo>
							<description></description>
							<scene></scene>
							<shottake></shottake>
							<lognote></lognote>
							<good></good>
							<originalvideofilename></originalvideofilename>
							<originalaudiofilename></originalaudiofilename>
						</logginginfo>
						<colorinfo>
							<lut></lut>
							<lut1></lut1>
							<asc_sop></asc_sop>
							<asc_sat></asc_sat>
							<lut2></lut2>
						</colorinfo>
						<labels>
							<label2>Caribbean</label2>
						</labels>
					</clip>
					<clip id="masterclip-396" explodedTracks="true">
						<uuid>e3dd0e15-65fe-4884-9581-5d61de465b4c</uuid>
						<masterclipid>masterclip-396</masterclipid>
						<ismasterclip>TRUE</ismasterclip>
						<duration>4366</duration>
						<rate>
							<timebase>30</timebase>
							<ntsc>TRUE</ntsc>
						</rate>
						<name>ES_A Celtic Blessing - Bonnie Grace.mp3</name>
						<media>
							<audio>
								<track>
									<clipitem id="clipitem-1064">
										<masterclipid>masterclip-396</masterclipid>
										<name>ES_A Celtic Blessing - Bonnie Grace.mp3</name>
										<rate>
											<timebase>30</timebase>
											<ntsc>TRUE</ntsc>
										</rate>
										<file id="file-368">
											<name>ES_A Celtic Blessing - Bonnie Grace.mp3</name>
											<pathurl>file://localhost/Volumes/T7/DRONE_08.18.2023/5_Music/ES_A%20Celtic%20Blessing%20-%20Bonnie%20Grace.mp3</pathurl>
											<rate>
												<timebase>30</timebase>
												<ntsc>TRUE</ntsc>
											</rate>
											<duration>4366</duration>
											<timecode>
												<rate>
													<timebase>30</timebase>
													<ntsc>TRUE</ntsc>
												</rate>
												<string>00;00;00;00</string>
												<frame>0</frame>
												<displayformat>DF</displayformat>
											</timecode>
											<media>
												<audio>
													<samplecharacteristics>
														<depth>16</depth>
														<samplerate>48000</samplerate>
													</samplecharacteristics>
													<channelcount>2</channelcount>
												</audio>
											</media>
										</file>
										<sourcetrack>
											<mediatype>audio</mediatype>
											<trackindex>1</trackindex>
										</sourcetrack>
										<link>
											<linkclipref>clipitem-1064</linkclipref>
											<mediatype>audio</mediatype>
											<trackindex>1</trackindex>
											<clipindex>1</clipindex>
											<groupindex>1</groupindex>
										</link>
										<link>
											<linkclipref>clipitem-1065</linkclipref>
											<mediatype>audio</mediatype>
											<trackindex>2</trackindex>
											<clipindex>1</clipindex>
											<groupindex>1</groupindex>
										</link>
									</clipitem>
								</track>
								<track>
									<clipitem id="clipitem-1065">
										<masterclipid>masterclip-396</masterclipid>
										<name>ES_A Celtic Blessing - Bonnie Grace.mp3</name>
										<rate>
											<timebase>30</timebase>
											<ntsc>TRUE</ntsc>
										</rate>
										<file id="file-368"/>
										<sourcetrack>
											<mediatype>audio</mediatype>
											<trackindex>2</trackindex>
										</sourcetrack>
										<link>
											<linkclipref>clipitem-1064</linkclipref>
											<mediatype>audio</mediatype>
											<trackindex>1</trackindex>
											<clipindex>1</clipindex>
											<groupindex>1</groupindex>
										</link>
										<link>
											<linkclipref>clipitem-1065</linkclipref>
											<mediatype>audio</mediatype>
											<trackindex>2</trackindex>
											<clipindex>1</clipindex>
											<groupindex>1</groupindex>
										</link>
									</clipitem>
								</track>
							</audio>
						</media>
						<logginginfo>
							<description></description>
							<scene></scene>
							<shottake></shottake>
							<lognote></lognote>
							<good></good>
							<originalvideofilename></originalvideofilename>
							<originalaudiofilename></originalaudiofilename>
						</logginginfo>
						<colorinfo>
							<lut></lut>
							<lut1></lut1>
							<asc_sop></asc_sop>
							<asc_sat></asc_sat>
							<lut2></lut2>
						</colorinfo>
						<labels>
							<label2>Caribbean</label2>
						</labels>
					</clip>
					<clip id="masterclip-229" explodedTracks="true">
						<uuid>eb7fdd4e-2f43-465d-bdf0-709bc4a22e72</uuid>
						<masterclipid>masterclip-229</masterclipid>
						<ismasterclip>TRUE</ismasterclip>
						<duration>6740</duration>
						<rate>
							<timebase>30</timebase>
							<ntsc>TRUE</ntsc>
						</rate>
						<name>ES_Blue Gold - Far Orange.mp3</name>
						<media>
							<audio>
								<track>
									<clipitem id="clipitem-1066">
										<masterclipid>masterclip-229</masterclipid>
										<name>ES_Blue Gold - Far Orange.mp3</name>
										<rate>
											<timebase>30</timebase>
											<ntsc>TRUE</ntsc>
										</rate>
										<file id="file-212"/>
										<sourcetrack>
											<mediatype>audio</mediatype>
											<trackindex>1</trackindex>
										</sourcetrack>
										<link>
											<linkclipref>clipitem-1066</linkclipref>
											<mediatype>audio</mediatype>
											<trackindex>1</trackindex>
											<clipindex>1</clipindex>
											<groupindex>1</groupindex>
										</link>
										<link>
											<linkclipref>clipitem-1067</linkclipref>
											<mediatype>audio</mediatype>
											<trackindex>2</trackindex>
											<clipindex>1</clipindex>
											<groupindex>1</groupindex>
										</link>
									</clipitem>
								</track>
								<track>
									<clipitem id="clipitem-1067">
										<masterclipid>masterclip-229</masterclipid>
										<name>ES_Blue Gold - Far Orange.mp3</name>
										<rate>
											<timebase>30</timebase>
											<ntsc>TRUE</ntsc>
										</rate>
										<file id="file-212"/>
										<sourcetrack>
											<mediatype>audio</mediatype>
											<trackindex>2</trackindex>
										</sourcetrack>
										<link>
											<linkclipref>clipitem-1066</linkclipref>
											<mediatype>audio</mediatype>
											<trackindex>1</trackindex>
											<clipindex>1</clipindex>
											<groupindex>1</groupindex>
										</link>
										<link>
											<linkclipref>clipitem-1067</linkclipref>
											<mediatype>audio</mediatype>
											<trackindex>2</trackindex>
											<clipindex>1</clipindex>
											<groupindex>1</groupindex>
										</link>
									</clipitem>
								</track>
							</audio>
						</media>
						<logginginfo>
							<description></description>
							<scene></scene>
							<shottake></shottake>
							<lognote></lognote>
							<good></good>
							<originalvideofilename></originalvideofilename>
							<originalaudiofilename></originalaudiofilename>
						</logginginfo>
						<colorinfo>
							<lut></lut>
							<lut1></lut1>
							<asc_sop></asc_sop>
							<asc_sat></asc_sat>
							<lut2></lut2>
						</colorinfo>
						<labels>
							<label2>Caribbean</label2>
						</labels>
					</clip>
					<clip id="masterclip-177" explodedTracks="true">
						<uuid>ef769d2f-a267-44a4-8585-e0f5fc1dc710</uuid>
						<masterclipid>masterclip-177</masterclipid>
						<ismasterclip>TRUE</ismasterclip>
						<duration>5985</duration>
						<rate>
							<timebase>30</timebase>
							<ntsc>TRUE</ntsc>
						</rate>
						<name>ES_Chemistry! (Instrumental Version) - Flux Vortex.mp3</name>
						<media>
							<audio>
								<track>
									<clipitem id="clipitem-1068">
										<masterclipid>masterclip-177</masterclipid>
										<name>ES_Chemistry! (Instrumental Version) - Flux Vortex.mp3</name>
										<rate>
											<timebase>30</timebase>
											<ntsc>TRUE</ntsc>
										</rate>
										<file id="file-167"/>
										<sourcetrack>
											<mediatype>audio</mediatype>
											<trackindex>1</trackindex>
										</sourcetrack>
										<link>
											<linkclipref>clipitem-1068</linkclipref>
											<mediatype>audio</mediatype>
											<trackindex>1</trackindex>
											<clipindex>1</clipindex>
											<groupindex>1</groupindex>
										</link>
										<link>
											<linkclipref>clipitem-1069</linkclipref>
											<mediatype>audio</mediatype>
											<trackindex>2</trackindex>
											<clipindex>1</clipindex>
											<groupindex>1</groupindex>
										</link>
									</clipitem>
								</track>
								<track>
									<clipitem id="clipitem-1069">
										<masterclipid>masterclip-177</masterclipid>
										<name>ES_Chemistry! (Instrumental Version) - Flux Vortex.mp3</name>
										<rate>
											<timebase>30</timebase>
											<ntsc>TRUE</ntsc>
										</rate>
										<file id="file-167"/>
										<sourcetrack>
											<mediatype>audio</mediatype>
											<trackindex>2</trackindex>
										</sourcetrack>
										<link>
											<linkclipref>clipitem-1068</linkclipref>
											<mediatype>audio</mediatype>
											<trackindex>1</trackindex>
											<clipindex>1</clipindex>
											<groupindex>1</groupindex>
										</link>
										<link>
											<linkclipref>clipitem-1069</linkclipref>
											<mediatype>audio</mediatype>
											<trackindex>2</trackindex>
											<clipindex>1</clipindex>
											<groupindex>1</groupindex>
										</link>
									</clipitem>
								</track>
							</audio>
						</media>
						<logginginfo>
							<description></description>
							<scene></scene>
							<shottake></shottake>
							<lognote></lognote>
							<good></good>
							<originalvideofilename></originalvideofilename>
							<originalaudiofilename></originalaudiofilename>
						</logginginfo>
						<colorinfo>
							<lut></lut>
							<lut1></lut1>
							<asc_sop></asc_sop>
							<asc_sat></asc_sat>
							<lut2></lut2>
						</colorinfo>
						<labels>
							<label2>Caribbean</label2>
						</labels>
					</clip>
					<clip id="masterclip-144" explodedTracks="true">
						<uuid>10280461-2292-4402-bfa3-ebe9d8a4a583</uuid>
						<masterclipid>masterclip-144</masterclipid>
						<ismasterclip>TRUE</ismasterclip>
						<duration>5070</duration>
						<rate>
							<timebase>30</timebase>
							<ntsc>TRUE</ntsc>
						</rate>
						<name>ES_El Khalil - Rymdklang Soundtracks.mp3</name>
						<media>
							<audio>
								<track>
									<clipitem id="clipitem-1070">
										<masterclipid>masterclip-144</masterclipid>
										<name>ES_El Khalil - Rymdklang Soundtracks.mp3</name>
										<rate>
											<timebase>30</timebase>
											<ntsc>TRUE</ntsc>
										</rate>
										<file id="file-143"/>
										<sourcetrack>
											<mediatype>audio</mediatype>
											<trackindex>1</trackindex>
										</sourcetrack>
										<link>
											<linkclipref>clipitem-1070</linkclipref>
											<mediatype>audio</mediatype>
											<trackindex>1</trackindex>
											<clipindex>1</clipindex>
											<groupindex>1</groupindex>
										</link>
										<link>
											<linkclipref>clipitem-1071</linkclipref>
											<mediatype>audio</mediatype>
											<trackindex>2</trackindex>
											<clipindex>1</clipindex>
											<groupindex>1</groupindex>
										</link>
									</clipitem>
								</track>
								<track>
									<clipitem id="clipitem-1071">
										<masterclipid>masterclip-144</masterclipid>
										<name>ES_El Khalil - Rymdklang Soundtracks.mp3</name>
										<rate>
											<timebase>30</timebase>
											<ntsc>TRUE</ntsc>
										</rate>
										<file id="file-143"/>
										<sourcetrack>
											<mediatype>audio</mediatype>
											<trackindex>2</trackindex>
										</sourcetrack>
										<link>
											<linkclipref>clipitem-1070</linkclipref>
											<mediatype>audio</mediatype>
											<trackindex>1</trackindex>
											<clipindex>1</clipindex>
											<groupindex>1</groupindex>
										</link>
										<link>
											<linkclipref>clipitem-1071</linkclipref>
											<mediatype>audio</mediatype>
											<trackindex>2</trackindex>
											<clipindex>1</clipindex>
											<groupindex>1</groupindex>
										</link>
									</clipitem>
								</track>
							</audio>
						</media>
						<logginginfo>
							<description></description>
							<scene></scene>
							<shottake></shottake>
							<lognote></lognote>
							<good></good>
							<originalvideofilename></originalvideofilename>
							<originalaudiofilename></originalaudiofilename>
						</logginginfo>
						<colorinfo>
							<lut></lut>
							<lut1></lut1>
							<asc_sop></asc_sop>
							<asc_sat></asc_sat>
							<lut2></lut2>
						</colorinfo>
						<labels>
							<label2>Caribbean</label2>
						</labels>
					</clip>
					<clip id="masterclip-173" explodedTracks="true">
						<uuid>88dc171b-84db-4e3a-b3df-108619ab4050</uuid>
						<masterclipid>masterclip-173</masterclipid>
						<ismasterclip>TRUE</ismasterclip>
						<duration>4397</duration>
						<rate>
							<timebase>30</timebase>
							<ntsc>TRUE</ntsc>
						</rate>
						<name>ES_Envied - dreem.mp3</name>
						<media>
							<audio>
								<track>
									<clipitem id="clipitem-1072">
										<masterclipid>masterclip-173</masterclipid>
										<name>ES_Envied - dreem.mp3</name>
										<rate>
											<timebase>30</timebase>
											<ntsc>TRUE</ntsc>
										</rate>
										<file id="file-164"/>
										<sourcetrack>
											<mediatype>audio</mediatype>
											<trackindex>1</trackindex>
										</sourcetrack>
										<link>
											<linkclipref>clipitem-1072</linkclipref>
											<mediatype>audio</mediatype>
											<trackindex>1</trackindex>
											<clipindex>1</clipindex>
											<groupindex>1</groupindex>
										</link>
										<link>
											<linkclipref>clipitem-1073</linkclipref>
											<mediatype>audio</mediatype>
											<trackindex>2</trackindex>
											<clipindex>1</clipindex>
											<groupindex>1</groupindex>
										</link>
									</clipitem>
								</track>
								<track>
									<clipitem id="clipitem-1073">
										<masterclipid>masterclip-173</masterclipid>
										<name>ES_Envied - dreem.mp3</name>
										<rate>
											<timebase>30</timebase>
											<ntsc>TRUE</ntsc>
										</rate>
										<file id="file-164"/>
										<sourcetrack>
											<mediatype>audio</mediatype>
											<trackindex>2</trackindex>
										</sourcetrack>
										<link>
											<linkclipref>clipitem-1072</linkclipref>
											<mediatype>audio</mediatype>
											<trackindex>1</trackindex>
											<clipindex>1</clipindex>
											<groupindex>1</groupindex>
										</link>
										<link>
											<linkclipref>clipitem-1073</linkclipref>
											<mediatype>audio</mediatype>
											<trackindex>2</trackindex>
											<clipindex>1</clipindex>
											<groupindex>1</groupindex>
										</link>
									</clipitem>
								</track>
							</audio>
						</media>
						<logginginfo>
							<description></description>
							<scene></scene>
							<shottake></shottake>
							<lognote></lognote>
							<good></good>
							<originalvideofilename></originalvideofilename>
							<originalaudiofilename></originalaudiofilename>
						</logginginfo>
						<colorinfo>
							<lut></lut>
							<lut1></lut1>
							<asc_sop></asc_sop>
							<asc_sat></asc_sat>
							<lut2></lut2>
						</colorinfo>
						<labels>
							<label2>Caribbean</label2>
						</labels>
					</clip>
					<clip id="masterclip-216" explodedTracks="true">
						<uuid>9415a30d-1549-48a7-badd-f10d201705e2</uuid>
						<masterclipid>masterclip-216</masterclipid>
						<ismasterclip>TRUE</ismasterclip>
						<duration>7247</duration>
						<rate>
							<timebase>30</timebase>
							<ntsc>TRUE</ntsc>
						</rate>
						<in>4934</in>
						<name>ES_Malhana - DEX 1200.mp3</name>
						<media>
							<audio>
								<track>
									<clipitem id="clipitem-1074">
										<masterclipid>masterclip-216</masterclipid>
										<name>ES_Malhana - DEX 1200.mp3</name>
										<rate>
											<timebase>30</timebase>
											<ntsc>TRUE</ntsc>
										</rate>
										<file id="file-200"/>
										<sourcetrack>
											<mediatype>audio</mediatype>
											<trackindex>1</trackindex>
										</sourcetrack>
										<link>
											<linkclipref>clipitem-1074</linkclipref>
											<mediatype>audio</mediatype>
											<trackindex>1</trackindex>
											<clipindex>1</clipindex>
											<groupindex>1</groupindex>
										</link>
										<link>
											<linkclipref>clipitem-1075</linkclipref>
											<mediatype>audio</mediatype>
											<trackindex>2</trackindex>
											<clipindex>1</clipindex>
											<groupindex>1</groupindex>
										</link>
									</clipitem>
								</track>
								<track>
									<clipitem id="clipitem-1075">
										<masterclipid>masterclip-216</masterclipid>
										<name>ES_Malhana - DEX 1200.mp3</name>
										<rate>
											<timebase>30</timebase>
											<ntsc>TRUE</ntsc>
										</rate>
										<file id="file-200"/>
										<sourcetrack>
											<mediatype>audio</mediatype>
											<trackindex>2</trackindex>
										</sourcetrack>
										<link>
											<linkclipref>clipitem-1074</linkclipref>
											<mediatype>audio</mediatype>
											<trackindex>1</trackindex>
											<clipindex>1</clipindex>
											<groupindex>1</groupindex>
										</link>
										<link>
											<linkclipref>clipitem-1075</linkclipref>
											<mediatype>audio</mediatype>
											<trackindex>2</trackindex>
											<clipindex>1</clipindex>
											<groupindex>1</groupindex>
										</link>
									</clipitem>
								</track>
							</audio>
						</media>
						<logginginfo>
							<description></description>
							<scene></scene>
							<shottake></shottake>
							<lognote></lognote>
							<good></good>
							<originalvideofilename></originalvideofilename>
							<originalaudiofilename></originalaudiofilename>
						</logginginfo>
						<colorinfo>
							<lut></lut>
							<lut1></lut1>
							<asc_sop></asc_sop>
							<asc_sat></asc_sat>
							<lut2></lut2>
						</colorinfo>
						<labels>
							<label2>Caribbean</label2>
						</labels>
					</clip>
					<clip id="masterclip-193" explodedTracks="true">
						<uuid>75d0860a-73fb-4a73-af2d-1ae4cece8448</uuid>
						<masterclipid>masterclip-193</masterclipid>
						<ismasterclip>TRUE</ismasterclip>
						<duration>4491</duration>
						<rate>
							<timebase>30</timebase>
							<ntsc>TRUE</ntsc>
						</rate>
						<name>ES_Odd Sensibility - Jules Gaia.mp3</name>
						<media>
							<audio>
								<track>
									<clipitem id="clipitem-1076">
										<masterclipid>masterclip-193</masterclipid>
										<name>ES_Odd Sensibility - Jules Gaia.mp3</name>
										<rate>
											<timebase>30</timebase>
											<ntsc>TRUE</ntsc>
										</rate>
										<file id="file-181"/>
										<sourcetrack>
											<mediatype>audio</mediatype>
											<trackindex>1</trackindex>
										</sourcetrack>
										<link>
											<linkclipref>clipitem-1076</linkclipref>
											<mediatype>audio</mediatype>
											<trackindex>1</trackindex>
											<clipindex>1</clipindex>
											<groupindex>1</groupindex>
										</link>
										<link>
											<linkclipref>clipitem-1077</linkclipref>
											<mediatype>audio</mediatype>
											<trackindex>2</trackindex>
											<clipindex>1</clipindex>
											<groupindex>1</groupindex>
										</link>
									</clipitem>
								</track>
								<track>
									<clipitem id="clipitem-1077">
										<masterclipid>masterclip-193</masterclipid>
										<name>ES_Odd Sensibility - Jules Gaia.mp3</name>
										<rate>
											<timebase>30</timebase>
											<ntsc>TRUE</ntsc>
										</rate>
										<file id="file-181"/>
										<sourcetrack>
											<mediatype>audio</mediatype>
											<trackindex>2</trackindex>
										</sourcetrack>
										<link>
											<linkclipref>clipitem-1076</linkclipref>
											<mediatype>audio</mediatype>
											<trackindex>1</trackindex>
											<clipindex>1</clipindex>
											<groupindex>1</groupindex>
										</link>
										<link>
											<linkclipref>clipitem-1077</linkclipref>
											<mediatype>audio</mediatype>
											<trackindex>2</trackindex>
											<clipindex>1</clipindex>
											<groupindex>1</groupindex>
										</link>
									</clipitem>
								</track>
							</audio>
						</media>
						<logginginfo>
							<description></description>
							<scene></scene>
							<shottake></shottake>
							<lognote></lognote>
							<good></good>
							<originalvideofilename></originalvideofilename>
							<originalaudiofilename></originalaudiofilename>
						</logginginfo>
						<colorinfo>
							<lut></lut>
							<lut1></lut1>
							<asc_sop></asc_sop>
							<asc_sat></asc_sat>
							<lut2></lut2>
						</colorinfo>
						<labels>
							<label2>Caribbean</label2>
						</labels>
					</clip>
					<clip id="masterclip-197" explodedTracks="true">
						<uuid>567955c8-a24a-4118-99f1-e99b5fbc833b</uuid>
						<masterclipid>masterclip-197</masterclipid>
						<ismasterclip>TRUE</ismasterclip>
						<duration>7430</duration>
						<rate>
							<timebase>30</timebase>
							<ntsc>TRUE</ntsc>
						</rate>
						<name>ES_Port Said - Far Orange.mp3</name>
						<media>
							<audio>
								<track>
									<clipitem id="clipitem-1078">
										<masterclipid>masterclip-197</masterclipid>
										<name>ES_Port Said - Far Orange.mp3</name>
										<rate>
											<timebase>30</timebase>
											<ntsc>TRUE</ntsc>
										</rate>
										<file id="file-184"/>
										<sourcetrack>
											<mediatype>audio</mediatype>
											<trackindex>1</trackindex>
										</sourcetrack>
										<link>
											<linkclipref>clipitem-1078</linkclipref>
											<mediatype>audio</mediatype>
											<trackindex>1</trackindex>
											<clipindex>1</clipindex>
											<groupindex>1</groupindex>
										</link>
										<link>
											<linkclipref>clipitem-1079</linkclipref>
											<mediatype>audio</mediatype>
											<trackindex>2</trackindex>
											<clipindex>1</clipindex>
											<groupindex>1</groupindex>
										</link>
									</clipitem>
								</track>
								<track>
									<clipitem id="clipitem-1079">
										<masterclipid>masterclip-197</masterclipid>
										<name>ES_Port Said - Far Orange.mp3</name>
										<rate>
											<timebase>30</timebase>
											<ntsc>TRUE</ntsc>
										</rate>
										<file id="file-184"/>
										<sourcetrack>
											<mediatype>audio</mediatype>
											<trackindex>2</trackindex>
										</sourcetrack>
										<link>
											<linkclipref>clipitem-1078</linkclipref>
											<mediatype>audio</mediatype>
											<trackindex>1</trackindex>
											<clipindex>1</clipindex>
											<groupindex>1</groupindex>
										</link>
										<link>
											<linkclipref>clipitem-1079</linkclipref>
											<mediatype>audio</mediatype>
											<trackindex>2</trackindex>
											<clipindex>1</clipindex>
											<groupindex>1</groupindex>
										</link>
									</clipitem>
								</track>
							</audio>
						</media>
						<logginginfo>
							<description></description>
							<scene></scene>
							<shottake></shottake>
							<lognote></lognote>
							<good></good>
							<originalvideofilename></originalvideofilename>
							<originalaudiofilename></originalaudiofilename>
						</logginginfo>
						<colorinfo>
							<lut></lut>
							<lut1></lut1>
							<asc_sop></asc_sop>
							<asc_sat></asc_sat>
							<lut2></lut2>
						</colorinfo>
						<labels>
							<label2>Caribbean</label2>
						</labels>
					</clip>
					<clip id="masterclip-148" explodedTracks="true">
						<uuid>f9f4174b-65b3-41b1-bd15-530e138d12d3</uuid>
						<masterclipid>masterclip-148</masterclipid>
						<ismasterclip>TRUE</ismasterclip>
						<duration>8001</duration>
						<rate>
							<timebase>30</timebase>
							<ntsc>TRUE</ntsc>
						</rate>
						<name>ES_That Space You're In - Far Orange.mp3</name>
						<media>
							<audio>
								<track>
									<clipitem id="clipitem-1080">
										<masterclipid>masterclip-148</masterclipid>
										<name>ES_That Space You're In - Far Orange.mp3</name>
										<rate>
											<timebase>30</timebase>
											<ntsc>TRUE</ntsc>
										</rate>
										<file id="file-146"/>
										<sourcetrack>
											<mediatype>audio</mediatype>
											<trackindex>1</trackindex>
										</sourcetrack>
										<link>
											<linkclipref>clipitem-1080</linkclipref>
											<mediatype>audio</mediatype>
											<trackindex>1</trackindex>
											<clipindex>1</clipindex>
											<groupindex>1</groupindex>
										</link>
										<link>
											<linkclipref>clipitem-1081</linkclipref>
											<mediatype>audio</mediatype>
											<trackindex>2</trackindex>
											<clipindex>1</clipindex>
											<groupindex>1</groupindex>
										</link>
									</clipitem>
								</track>
								<track>
									<clipitem id="clipitem-1081">
										<masterclipid>masterclip-148</masterclipid>
										<name>ES_That Space You're In - Far Orange.mp3</name>
										<rate>
											<timebase>30</timebase>
											<ntsc>TRUE</ntsc>
										</rate>
										<file id="file-146"/>
										<sourcetrack>
											<mediatype>audio</mediatype>
											<trackindex>2</trackindex>
										</sourcetrack>
										<link>
											<linkclipref>clipitem-1080</linkclipref>
											<mediatype>audio</mediatype>
											<trackindex>1</trackindex>
											<clipindex>1</clipindex>
											<groupindex>1</groupindex>
										</link>
										<link>
											<linkclipref>clipitem-1081</linkclipref>
											<mediatype>audio</mediatype>
											<trackindex>2</trackindex>
											<clipindex>1</clipindex>
											<groupindex>1</groupindex>
										</link>
									</clipitem>
								</track>
							</audio>
						</media>
						<logginginfo>
							<description></description>
							<scene></scene>
							<shottake></shottake>
							<lognote></lognote>
							<good></good>
							<originalvideofilename></originalvideofilename>
							<originalaudiofilename></originalaudiofilename>
						</logginginfo>
						<colorinfo>
							<lut></lut>
							<lut1></lut1>
							<asc_sop></asc_sop>
							<asc_sat></asc_sat>
							<lut2></lut2>
						</colorinfo>
						<labels>
							<label2>Caribbean</label2>
						</labels>
					</clip>
					<clip id="masterclip-246" explodedTracks="true">
						<uuid>cce46c3c-49ce-43f2-bc41-8c3a5f01938c</uuid>
						<masterclipid>masterclip-246</masterclipid>
						<ismasterclip>TRUE</ismasterclip>
						<duration>4358</duration>
						<rate>
							<timebase>30</timebase>
							<ntsc>TRUE</ntsc>
						</rate>
						<name>ES_Maharajah - Ava Low.mp3</name>
						<media>
							<audio>
								<track>
									<clipitem id="clipitem-1082">
										<masterclipid>masterclip-246</masterclipid>
										<name>ES_Maharajah - Ava Low.mp3</name>
										<rate>
											<timebase>30</timebase>
											<ntsc>TRUE</ntsc>
										</rate>
										<file id="file-225"/>
										<sourcetrack>
											<mediatype>audio</mediatype>
											<trackindex>1</trackindex>
										</sourcetrack>
										<link>
											<linkclipref>clipitem-1082</linkclipref>
											<mediatype>audio</mediatype>
											<trackindex>1</trackindex>
											<clipindex>1</clipindex>
											<groupindex>1</groupindex>
										</link>
										<link>
											<linkclipref>clipitem-1083</linkclipref>
											<mediatype>audio</mediatype>
											<trackindex>2</trackindex>
											<clipindex>1</clipindex>
											<groupindex>1</groupindex>
										</link>
									</clipitem>
								</track>
								<track>
									<clipitem id="clipitem-1083">
										<masterclipid>masterclip-246</masterclipid>
										<name>ES_Maharajah - Ava Low.mp3</name>
										<rate>
											<timebase>30</timebase>
											<ntsc>TRUE</ntsc>
										</rate>
										<file id="file-225"/>
										<sourcetrack>
											<mediatype>audio</mediatype>
											<trackindex>2</trackindex>
										</sourcetrack>
										<link>
											<linkclipref>clipitem-1082</linkclipref>
											<mediatype>audio</mediatype>
											<trackindex>1</trackindex>
											<clipindex>1</clipindex>
											<groupindex>1</groupindex>
										</link>
										<link>
											<linkclipref>clipitem-1083</linkclipref>
											<mediatype>audio</mediatype>
											<trackindex>2</trackindex>
											<clipindex>1</clipindex>
											<groupindex>1</groupindex>
										</link>
									</clipitem>
								</track>
							</audio>
						</media>
						<logginginfo>
							<description></description>
							<scene></scene>
							<shottake></shottake>
							<lognote></lognote>
							<good></good>
							<originalvideofilename></originalvideofilename>
							<originalaudiofilename></originalaudiofilename>
						</logginginfo>
						<colorinfo>
							<lut></lut>
							<lut1></lut1>
							<asc_sop></asc_sop>
							<asc_sat></asc_sat>
							<lut2></lut2>
						</colorinfo>
						<labels>
							<label2>Caribbean</label2>
						</labels>
					</clip>
					<clip id="masterclip-264" explodedTracks="true">
						<uuid>5f0371ab-f3d7-42c0-922d-47179eff5b77</uuid>
						<masterclipid>masterclip-264</masterclipid>
						<ismasterclip>TRUE</ismasterclip>
						<duration>9032</duration>
						<rate>
							<timebase>30</timebase>
							<ntsc>TRUE</ntsc>
						</rate>
						<name>ES_Urban Stories - Chill Cole.mp3</name>
						<media>
							<audio>
								<track>
									<clipitem id="clipitem-1084">
										<masterclipid>masterclip-264</masterclipid>
										<name>ES_Urban Stories - Chill Cole.mp3</name>
										<rate>
											<timebase>30</timebase>
											<ntsc>TRUE</ntsc>
										</rate>
										<file id="file-241"/>
										<sourcetrack>
											<mediatype>audio</mediatype>
											<trackindex>1</trackindex>
										</sourcetrack>
										<link>
											<linkclipref>clipitem-1084</linkclipref>
											<mediatype>audio</mediatype>
											<trackindex>1</trackindex>
											<clipindex>1</clipindex>
											<groupindex>1</groupindex>
										</link>
										<link>
											<linkclipref>clipitem-1085</linkclipref>
											<mediatype>audio</mediatype>
											<trackindex>2</trackindex>
											<clipindex>1</clipindex>
											<groupindex>1</groupindex>
										</link>
									</clipitem>
								</track>
								<track>
									<clipitem id="clipitem-1085">
										<masterclipid>masterclip-264</masterclipid>
										<name>ES_Urban Stories - Chill Cole.mp3</name>
										<rate>
											<timebase>30</timebase>
											<ntsc>TRUE</ntsc>
										</rate>
										<file id="file-241"/>
										<sourcetrack>
											<mediatype>audio</mediatype>
											<trackindex>2</trackindex>
										</sourcetrack>
										<link>
											<linkclipref>clipitem-1084</linkclipref>
											<mediatype>audio</mediatype>
											<trackindex>1</trackindex>
											<clipindex>1</clipindex>
											<groupindex>1</groupindex>
										</link>
										<link>
											<linkclipref>clipitem-1085</linkclipref>
											<mediatype>audio</mediatype>
											<trackindex>2</trackindex>
											<clipindex>1</clipindex>
											<groupindex>1</groupindex>
										</link>
									</clipitem>
								</track>
							</audio>
						</media>
						<logginginfo>
							<description></description>
							<scene></scene>
							<shottake></shottake>
							<lognote></lognote>
							<good></good>
							<originalvideofilename></originalvideofilename>
							<originalaudiofilename></originalaudiofilename>
						</logginginfo>
						<colorinfo>
							<lut></lut>
							<lut1></lut1>
							<asc_sop></asc_sop>
							<asc_sat></asc_sat>
							<lut2></lut2>
						</colorinfo>
						<labels>
							<label2>Caribbean</label2>
						</labels>
					</clip>
					<clip id="masterclip-397" explodedTracks="true">
						<uuid>e12f58e8-b59a-4145-8407-7383ec840bdf</uuid>
						<masterclipid>masterclip-397</masterclipid>
						<ismasterclip>TRUE</ismasterclip>
						<duration>3846</duration>
						<rate>
							<timebase>30</timebase>
							<ntsc>TRUE</ntsc>
						</rate>
						<name>ES_Blessed Journey - Jon Bjork.mp3</name>
						<media>
							<audio>
								<track>
									<clipitem id="clipitem-1086">
										<masterclipid>masterclip-397</masterclipid>
										<name>ES_Blessed Journey - Jon Bjork.mp3</name>
										<rate>
											<timebase>30</timebase>
											<ntsc>TRUE</ntsc>
										</rate>
										<file id="file-369">
											<name>ES_Blessed Journey - Jon Bjork.mp3</name>
											<pathurl>file://localhost/Volumes/T7/DRONE_08.18.2023/5_Music/ES_Blessed%20Journey%20-%20Jon%20Bjork.mp3</pathurl>
											<rate>
												<timebase>30</timebase>
												<ntsc>TRUE</ntsc>
											</rate>
											<duration>3846</duration>
											<timecode>
												<rate>
													<timebase>30</timebase>
													<ntsc>TRUE</ntsc>
												</rate>
												<string>00;00;00;00</string>
												<frame>0</frame>
												<displayformat>DF</displayformat>
											</timecode>
											<media>
												<audio>
													<samplecharacteristics>
														<depth>16</depth>
														<samplerate>48000</samplerate>
													</samplecharacteristics>
													<channelcount>2</channelcount>
												</audio>
											</media>
										</file>
										<sourcetrack>
											<mediatype>audio</mediatype>
											<trackindex>1</trackindex>
										</sourcetrack>
										<link>
											<linkclipref>clipitem-1086</linkclipref>
											<mediatype>audio</mediatype>
											<trackindex>1</trackindex>
											<clipindex>1</clipindex>
											<groupindex>1</groupindex>
										</link>
										<link>
											<linkclipref>clipitem-1087</linkclipref>
											<mediatype>audio</mediatype>
											<trackindex>2</trackindex>
											<clipindex>1</clipindex>
											<groupindex>1</groupindex>
										</link>
									</clipitem>
								</track>
								<track>
									<clipitem id="clipitem-1087">
										<masterclipid>masterclip-397</masterclipid>
										<name>ES_Blessed Journey - Jon Bjork.mp3</name>
										<rate>
											<timebase>30</timebase>
											<ntsc>TRUE</ntsc>
										</rate>
										<file id="file-369"/>
										<sourcetrack>
											<mediatype>audio</mediatype>
											<trackindex>2</trackindex>
										</sourcetrack>
										<link>
											<linkclipref>clipitem-1086</linkclipref>
											<mediatype>audio</mediatype>
											<trackindex>1</trackindex>
											<clipindex>1</clipindex>
											<groupindex>1</groupindex>
										</link>
										<link>
											<linkclipref>clipitem-1087</linkclipref>
											<mediatype>audio</mediatype>
											<trackindex>2</trackindex>
											<clipindex>1</clipindex>
											<groupindex>1</groupindex>
										</link>
									</clipitem>
								</track>
							</audio>
						</media>
						<logginginfo>
							<description></description>
							<scene></scene>
							<shottake></shottake>
							<lognote></lognote>
							<good></good>
							<originalvideofilename></originalvideofilename>
							<originalaudiofilename></originalaudiofilename>
						</logginginfo>
						<colorinfo>
							<lut></lut>
							<lut1></lut1>
							<asc_sop></asc_sop>
							<asc_sat></asc_sat>
							<lut2></lut2>
						</colorinfo>
						<labels>
							<label2>Caribbean</label2>
						</labels>
					</clip>
					<clip id="masterclip-284" explodedTracks="true">
						<uuid>7355b372-4ca2-4354-9dc9-6b5353c85e09</uuid>
						<masterclipid>masterclip-284</masterclipid>
						<ismasterclip>TRUE</ismasterclip>
						<duration>6569</duration>
						<rate>
							<timebase>30</timebase>
							<ntsc>TRUE</ntsc>
						</rate>
						<name>ES_Succulent Chinese Meal - Jones Meadow.mp3</name>
						<media>
							<audio>
								<track>
									<clipitem id="clipitem-1088">
										<masterclipid>masterclip-284</masterclipid>
										<name>ES_Succulent Chinese Meal - Jones Meadow.mp3</name>
										<rate>
											<timebase>30</timebase>
											<ntsc>TRUE</ntsc>
										</rate>
										<file id="file-259"/>
										<sourcetrack>
											<mediatype>audio</mediatype>
											<trackindex>1</trackindex>
										</sourcetrack>
										<link>
											<linkclipref>clipitem-1088</linkclipref>
											<mediatype>audio</mediatype>
											<trackindex>1</trackindex>
											<clipindex>1</clipindex>
											<groupindex>1</groupindex>
										</link>
										<link>
											<linkclipref>clipitem-1089</linkclipref>
											<mediatype>audio</mediatype>
											<trackindex>2</trackindex>
											<clipindex>1</clipindex>
											<groupindex>1</groupindex>
										</link>
									</clipitem>
								</track>
								<track>
									<clipitem id="clipitem-1089">
										<masterclipid>masterclip-284</masterclipid>
										<name>ES_Succulent Chinese Meal - Jones Meadow.mp3</name>
										<rate>
											<timebase>30</timebase>
											<ntsc>TRUE</ntsc>
										</rate>
										<file id="file-259"/>
										<sourcetrack>
											<mediatype>audio</mediatype>
											<trackindex>2</trackindex>
										</sourcetrack>
										<link>
											<linkclipref>clipitem-1088</linkclipref>
											<mediatype>audio</mediatype>
											<trackindex>1</trackindex>
											<clipindex>1</clipindex>
											<groupindex>1</groupindex>
										</link>
										<link>
											<linkclipref>clipitem-1089</linkclipref>
											<mediatype>audio</mediatype>
											<trackindex>2</trackindex>
											<clipindex>1</clipindex>
											<groupindex>1</groupindex>
										</link>
									</clipitem>
								</track>
							</audio>
						</media>
						<logginginfo>
							<description></description>
							<scene></scene>
							<shottake></shottake>
							<lognote></lognote>
							<good></good>
							<originalvideofilename></originalvideofilename>
							<originalaudiofilename></originalaudiofilename>
						</logginginfo>
						<colorinfo>
							<lut></lut>
							<lut1></lut1>
							<asc_sop></asc_sop>
							<asc_sat></asc_sat>
							<lut2></lut2>
						</colorinfo>
						<labels>
							<label2>Caribbean</label2>
						</labels>
					</clip>
					<clip id="masterclip-398" explodedTracks="true">
						<uuid>1f158620-0e5e-412b-9b0f-855ea240e854</uuid>
						<masterclipid>masterclip-398</masterclipid>
						<ismasterclip>TRUE</ismasterclip>
						<duration>6027</duration>
						<rate>
							<timebase>30</timebase>
							<ntsc>TRUE</ntsc>
						</rate>
						<name>ES_Sipping on Martinis - Sum Wave.mp3</name>
						<media>
							<audio>
								<track>
									<clipitem id="clipitem-1090">
										<masterclipid>masterclip-398</masterclipid>
										<name>ES_Sipping on Martinis - Sum Wave.mp3</name>
										<rate>
											<timebase>30</timebase>
											<ntsc>TRUE</ntsc>
										</rate>
										<file id="file-370">
											<name>ES_Sipping on Martinis - Sum Wave.mp3</name>
											<pathurl>file://localhost/Volumes/T7/DRONE_08.18.2023/5_Music/ES_Sipping%20on%20Martinis%20-%20Sum%20Wave.mp3</pathurl>
											<rate>
												<timebase>30</timebase>
												<ntsc>TRUE</ntsc>
											</rate>
											<duration>6027</duration>
											<timecode>
												<rate>
													<timebase>30</timebase>
													<ntsc>TRUE</ntsc>
												</rate>
												<string>00;00;00;00</string>
												<frame>0</frame>
												<displayformat>DF</displayformat>
											</timecode>
											<media>
												<audio>
													<samplecharacteristics>
														<depth>16</depth>
														<samplerate>48000</samplerate>
													</samplecharacteristics>
													<channelcount>2</channelcount>
												</audio>
											</media>
										</file>
										<sourcetrack>
											<mediatype>audio</mediatype>
											<trackindex>1</trackindex>
										</sourcetrack>
										<link>
											<linkclipref>clipitem-1090</linkclipref>
											<mediatype>audio</mediatype>
											<trackindex>1</trackindex>
											<clipindex>1</clipindex>
											<groupindex>1</groupindex>
										</link>
										<link>
											<linkclipref>clipitem-1091</linkclipref>
											<mediatype>audio</mediatype>
											<trackindex>2</trackindex>
											<clipindex>1</clipindex>
											<groupindex>1</groupindex>
										</link>
									</clipitem>
								</track>
								<track>
									<clipitem id="clipitem-1091">
										<masterclipid>masterclip-398</masterclipid>
										<name>ES_Sipping on Martinis - Sum Wave.mp3</name>
										<rate>
											<timebase>30</timebase>
											<ntsc>TRUE</ntsc>
										</rate>
										<file id="file-370"/>
										<sourcetrack>
											<mediatype>audio</mediatype>
											<trackindex>2</trackindex>
										</sourcetrack>
										<link>
											<linkclipref>clipitem-1090</linkclipref>
											<mediatype>audio</mediatype>
											<trackindex>1</trackindex>
											<clipindex>1</clipindex>
											<groupindex>1</groupindex>
										</link>
										<link>
											<linkclipref>clipitem-1091</linkclipref>
											<mediatype>audio</mediatype>
											<trackindex>2</trackindex>
											<clipindex>1</clipindex>
											<groupindex>1</groupindex>
										</link>
									</clipitem>
								</track>
							</audio>
						</media>
						<logginginfo>
							<description></description>
							<scene></scene>
							<shottake></shottake>
							<lognote></lognote>
							<good></good>
							<originalvideofilename></originalvideofilename>
							<originalaudiofilename></originalaudiofilename>
						</logginginfo>
						<colorinfo>
							<lut></lut>
							<lut1></lut1>
							<asc_sop></asc_sop>
							<asc_sat></asc_sat>
							<lut2></lut2>
						</colorinfo>
						<labels>
							<label2>Caribbean</label2>
						</labels>
					</clip>
					<clip id="masterclip-321" explodedTracks="true">
						<uuid>cab31af0-0284-45b0-aaff-6cd32c9e39c9</uuid>
						<masterclipid>masterclip-321</masterclipid>
						<ismasterclip>TRUE</ismasterclip>
						<duration>6022</duration>
						<rate>
							<timebase>30</timebase>
							<ntsc>TRUE</ntsc>
						</rate>
						<name>ES_Beyond the Mountains - Experia.mp3</name>
						<media>
							<audio>
								<track>
									<clipitem id="clipitem-1092">
										<masterclipid>masterclip-321</masterclipid>
										<name>ES_Beyond the Mountains - Experia.mp3</name>
										<rate>
											<timebase>30</timebase>
											<ntsc>TRUE</ntsc>
										</rate>
										<file id="file-294"/>
										<sourcetrack>
											<mediatype>audio</mediatype>
											<trackindex>1</trackindex>
										</sourcetrack>
										<link>
											<linkclipref>clipitem-1092</linkclipref>
											<mediatype>audio</mediatype>
											<trackindex>1</trackindex>
											<clipindex>1</clipindex>
											<groupindex>1</groupindex>
										</link>
										<link>
											<linkclipref>clipitem-1093</linkclipref>
											<mediatype>audio</mediatype>
											<trackindex>2</trackindex>
											<clipindex>1</clipindex>
											<groupindex>1</groupindex>
										</link>
									</clipitem>
								</track>
								<track>
									<clipitem id="clipitem-1093">
										<masterclipid>masterclip-321</masterclipid>
										<name>ES_Beyond the Mountains - Experia.mp3</name>
										<rate>
											<timebase>30</timebase>
											<ntsc>TRUE</ntsc>
										</rate>
										<file id="file-294"/>
										<sourcetrack>
											<mediatype>audio</mediatype>
											<trackindex>2</trackindex>
										</sourcetrack>
										<link>
											<linkclipref>clipitem-1092</linkclipref>
											<mediatype>audio</mediatype>
											<trackindex>1</trackindex>
											<clipindex>1</clipindex>
											<groupindex>1</groupindex>
										</link>
										<link>
											<linkclipref>clipitem-1093</linkclipref>
											<mediatype>audio</mediatype>
											<trackindex>2</trackindex>
											<clipindex>1</clipindex>
											<groupindex>1</groupindex>
										</link>
									</clipitem>
								</track>
							</audio>
						</media>
						<logginginfo>
							<description></description>
							<scene></scene>
							<shottake></shottake>
							<lognote></lognote>
							<good></good>
							<originalvideofilename></originalvideofilename>
							<originalaudiofilename></originalaudiofilename>
						</logginginfo>
						<colorinfo>
							<lut></lut>
							<lut1></lut1>
							<asc_sop></asc_sop>
							<asc_sat></asc_sat>
							<lut2></lut2>
						</colorinfo>
						<labels>
							<label2>Caribbean</label2>
						</labels>
					</clip>
					<clip id="masterclip-328" explodedTracks="true">
						<uuid>9c68e662-ba71-42f1-8be0-5930ca702e3d</uuid>
						<masterclipid>masterclip-328</masterclipid>
						<ismasterclip>TRUE</ismasterclip>
						<duration>5573</duration>
						<rate>
							<timebase>30</timebase>
							<ntsc>TRUE</ntsc>
						</rate>
						<name>ES_Em Baixo (Instrumental Version) - Clara Mendes.mp3</name>
						<media>
							<audio>
								<track>
									<clipitem id="clipitem-1094">
										<masterclipid>masterclip-328</masterclipid>
										<name>ES_Em Baixo (Instrumental Version) - Clara Mendes.mp3</name>
										<rate>
											<timebase>30</timebase>
											<ntsc>TRUE</ntsc>
										</rate>
										<file id="file-300"/>
										<sourcetrack>
											<mediatype>audio</mediatype>
											<trackindex>1</trackindex>
										</sourcetrack>
										<link>
											<linkclipref>clipitem-1094</linkclipref>
											<mediatype>audio</mediatype>
											<trackindex>1</trackindex>
											<clipindex>1</clipindex>
											<groupindex>1</groupindex>
										</link>
										<link>
											<linkclipref>clipitem-1095</linkclipref>
											<mediatype>audio</mediatype>
											<trackindex>2</trackindex>
											<clipindex>1</clipindex>
											<groupindex>1</groupindex>
										</link>
									</clipitem>
								</track>
								<track>
									<clipitem id="clipitem-1095">
										<masterclipid>masterclip-328</masterclipid>
										<name>ES_Em Baixo (Instrumental Version) - Clara Mendes.mp3</name>
										<rate>
											<timebase>30</timebase>
											<ntsc>TRUE</ntsc>
										</rate>
										<file id="file-300"/>
										<sourcetrack>
											<mediatype>audio</mediatype>
											<trackindex>2</trackindex>
										</sourcetrack>
										<link>
											<linkclipref>clipitem-1094</linkclipref>
											<mediatype>audio</mediatype>
											<trackindex>1</trackindex>
											<clipindex>1</clipindex>
											<groupindex>1</groupindex>
										</link>
										<link>
											<linkclipref>clipitem-1095</linkclipref>
											<mediatype>audio</mediatype>
											<trackindex>2</trackindex>
											<clipindex>1</clipindex>
											<groupindex>1</groupindex>
										</link>
									</clipitem>
								</track>
							</audio>
						</media>
						<logginginfo>
							<description></description>
							<scene></scene>
							<shottake></shottake>
							<lognote></lognote>
							<good></good>
							<originalvideofilename></originalvideofilename>
							<originalaudiofilename></originalaudiofilename>
						</logginginfo>
						<colorinfo>
							<lut></lut>
							<lut1></lut1>
							<asc_sop></asc_sop>
							<asc_sat></asc_sat>
							<lut2></lut2>
						</colorinfo>
						<labels>
							<label2>Caribbean</label2>
						</labels>
					</clip>
				</children>
			</bin>
			<sequence id="sequence-71" TL.SQAudioVisibleBase="0" TL.SQVideoVisibleBase="0" TL.SQVisibleBaseTime="0" TL.SQAVDividerPosition="0.5" TL.SQHideShyTracks="0" TL.SQHeaderWidth="236" Monitor.ProgramZoomOut="516947893862400" Monitor.ProgramZoomIn="0" TL.SQTimePerPixel="3.7166427832628117" MZ.EditLine="205958712960000" MZ.Sequence.PreviewFrameSizeHeight="1080" MZ.Sequence.PreviewFrameSizeWidth="1920" MZ.Sequence.AudioTimeDisplayFormat="200" MZ.Sequence.PreviewRenderingClassID="1061109567" MZ.Sequence.PreviewRenderingPresetCodec="1634755443" MZ.Sequence.PreviewRenderingPresetPath="EncoderPresets/SequencePreview/35d109db-457b-43c1-9452-9cb7be9f121c/QuickTime.epr" MZ.Sequence.PreviewUseMaxRenderQuality="false" MZ.Sequence.PreviewUseMaxBitDepth="false" MZ.Sequence.EditingModeGUID="35d109db-457b-43c1-9452-9cb7be9f121c" MZ.Sequence.VideoTimeDisplayFormat="102" MZ.WorkOutPoint="15239249625600" MZ.WorkInPoint="0" explodedTracks="true">
				<uuid>a8ed44a8-5afd-4ea6-846b-8fe40cf1c8c1</uuid>
				<duration>60992</duration>
				<rate>
					<timebase>30</timebase>
					<ntsc>TRUE</ntsc>
				</rate>
				<name>EDL sequence</name>
				<media>
					<video>
						<format>
							<samplecharacteristics>
								<rate>
									<timebase>30</timebase>
									<ntsc>TRUE</ntsc>
								</rate>
								<codec>
									<name>Apple ProRes 422</name>
									<appspecificdata>
										<appname>Final Cut Pro</appname>
										<appmanufacturer>Apple Inc.</appmanufacturer>
										<appversion>7.0</appversion>
										<data>
											<qtcodec>
												<codecname>Apple ProRes 422</codecname>
												<codectypename>Apple ProRes 422</codectypename>
												<codectypecode>apcn</codectypecode>
												<codecvendorcode>appl</codecvendorcode>
												<spatialquality>1024</spatialquality>
												<temporalquality>0</temporalquality>
												<keyframerate>0</keyframerate>
												<datarate>0</datarate>
											</qtcodec>
										</data>
									</appspecificdata>
								</codec>
								<width>1920</width>
								<height>1080</height>
								<anamorphic>FALSE</anamorphic>
								<pixelaspectratio>square</pixelaspectratio>
								<fielddominance>none</fielddominance>
								<colordepth>24</colordepth>
							</samplecharacteristics>
						</format>
						<track TL.SQTrackShy="0" TL.SQTrackExpandedHeight="25" TL.SQTrackExpanded="0" MZ.TrackTargeted="1">
							<clipitem id="clipitem-1096">
								<masterclipid>masterclip-325</masterclipid>
								<name>(LOUD fpv)_SUNSET_XuOQ1_yrYoE_YT.mp4</name>
								<enabled>TRUE</enabled>
								<duration>1540</duration>
								<rate>
									<timebase>30</timebase>
									<ntsc>TRUE</ntsc>
								</rate>
								<start>0</start>
								<end>301</end>
								<in>0</in>
								<out>301</out>
								<pproTicksIn>0</pproTicksIn>
								<pproTicksOut>2551175827200</pproTicksOut>
								<alphatype>none</alphatype>
								<file id="file-297"/>
								<logginginfo>
									<description></description>
									<scene></scene>
									<shottake></shottake>
									<lognote>https://www.youtube.com/watch?v=XuOQ1_yrYoE</lognote>
									<good></good>
									<originalvideofilename></originalvideofilename>
									<originalaudiofilename></originalaudiofilename>
								</logginginfo>
								<colorinfo>
									<lut></lut>
									<lut1></lut1>
									<asc_sop></asc_sop>
									<asc_sat></asc_sat>
									<lut2></lut2>
								</colorinfo>
								<labels>
									<label2>Iris</label2>
								</labels>
							</clipitem>
							<clipitem id="clipitem-1097">
								<masterclipid>masterclip-325</masterclipid>
								<name>(LOUD fpv)_SUNSET_XuOQ1_yrYoE_YT.mp4</name>
								<enabled>TRUE</enabled>
								<duration>1540</duration>
								<rate>
									<timebase>30</timebase>
									<ntsc>TRUE</ntsc>
								</rate>
								<start>301</start>
								<end>957</end>
								<in>323</in>
								<out>979</out>
								<pproTicksIn>2737640505600</pproTicksIn>
								<pproTicksOut>8297678188800</pproTicksOut>
								<alphatype>none</alphatype>
								<file id="file-297"/>
								<logginginfo>
									<description></description>
									<scene></scene>
									<shottake></shottake>
									<lognote>https://www.youtube.com/watch?v=XuOQ1_yrYoE</lognote>
									<good></good>
									<originalvideofilename></originalvideofilename>
									<originalaudiofilename></originalaudiofilename>
								</logginginfo>
								<colorinfo>
									<lut></lut>
									<lut1></lut1>
									<asc_sop></asc_sop>
									<asc_sat></asc_sat>
									<lut2></lut2>
								</colorinfo>
								<labels>
									<label2>Iris</label2>
								</labels>
							</clipitem>
							<clipitem id="clipitem-1098">
								<masterclipid>masterclip-325</masterclipid>
								<name>(LOUD fpv)_SUNSET_XuOQ1_yrYoE_YT.mp4</name>
								<enabled>TRUE</enabled>
								<duration>1540</duration>
								<rate>
									<timebase>30</timebase>
									<ntsc>TRUE</ntsc>
								</rate>
								<start>957</start>
								<end>-1</end>
								<in>989</in>
								<out>1396</out>
								<pproTicksIn>8382434860800</pproTicksIn>
								<pproTicksOut>11832031411200</pproTicksOut>
								<alphatype>none</alphatype>
								<file id="file-297"/>
								<logginginfo>
									<description></description>
									<scene></scene>
									<shottake></shottake>
									<lognote>https://www.youtube.com/watch?v=XuOQ1_yrYoE</lognote>
									<good></good>
									<originalvideofilename></originalvideofilename>
									<originalaudiofilename></originalaudiofilename>
								</logginginfo>
								<colorinfo>
									<lut></lut>
									<lut1></lut1>
									<asc_sop></asc_sop>
									<asc_sat></asc_sat>
									<lut2></lut2>
								</colorinfo>
								<labels>
									<label2>Iris</label2>
								</labels>
							</clipitem>
							<transitionitem>
								<start>1349</start>
								<end>1364</end>
								<alignment>start</alignment>
								<cutPointTicks>0</cutPointTicks>
								<rate>
									<timebase>30</timebase>
									<ntsc>TRUE</ntsc>
								</rate>
								<effect>
									<name>Cross Dissolve</name>
									<effectid>Cross Dissolve</effectid>
									<effectcategory>Dissolve</effectcategory>
									<effecttype>transition</effecttype>
									<mediatype>video</mediatype>
									<wipecode>0</wipecode>
									<wipeaccuracy>100</wipeaccuracy>
									<startratio>0</startratio>
									<endratio>1</endratio>
									<reverse>FALSE</reverse>
								</effect>
							</transitionitem>
							<clipitem id="clipitem-1099">
								<masterclipid>masterclip-326</masterclipid>
								<name>(LOUD fpv)_Strolling after the harvest_bcD9SOmXz5o_YT.mp4</name>
								<enabled>TRUE</enabled>
								<duration>3726</duration>
								<rate>
									<timebase>30</timebase>
									<ntsc>TRUE</ntsc>
								</rate>
								<start>-1</start>
								<end>5043</end>
								<in>0</in>
								<out>3694</out>
								<pproTicksIn>0</pproTicksIn>
								<pproTicksOut>31309114636800</pproTicksOut>
								<alphatype>none</alphatype>
								<file id="file-298"/>
								<logginginfo>
									<description></description>
									<scene></scene>
									<shottake></shottake>
									<lognote>https://www.youtube.com/watch?v=bcD9SOmXz5o</lognote>
									<good></good>
									<originalvideofilename></originalvideofilename>
									<originalaudiofilename></originalaudiofilename>
								</logginginfo>
								<colorinfo>
									<lut></lut>
									<lut1></lut1>
									<asc_sop></asc_sop>
									<asc_sat></asc_sat>
									<lut2></lut2>
								</colorinfo>
								<labels>
									<label2>Iris</label2>
								</labels>
							</clipitem>
							<clipitem id="clipitem-1100">
								<masterclipid>masterclip-132</masterclipid>
								<name>640266_Tajikistan Drone Sand Mountains_By_Timelab_Pro_Artlist_HD.mp4</name>
								<enabled>TRUE</enabled>
								<duration>1047</duration>
								<rate>
									<timebase>30</timebase>
									<ntsc>TRUE</ntsc>
								</rate>
								<start>5436</start>
								<end>-1</end>
								<in>400</in>
								<out>841</out>
								<pproTicksIn>3390266880000</pproTicksIn>
								<pproTicksOut>7128036115200</pproTicksOut>
								<alphatype>none</alphatype>
								<file id="file-131"/>
								<filter>
									<effect>
										<name>Distort</name>
										<effectid>deformation</effectid>
										<effectcategory>motion</effectcategory>
										<effecttype>motion</effecttype>
										<mediatype>video</mediatype>
										<parameter authoringApp="PremierePro">
											<parameterid>aspect</parameterid>
											<name>Aspect</name>
											<valuemin>-10000</valuemin>
											<valuemax>10000</valuemax>
											<value>-9.40171</value>
										</parameter>
									</effect>
								</filter>
								<filter>
									<effect>
										<name>Basic Motion</name>
										<effectid>basic</effectid>
										<effectcategory>motion</effectcategory>
										<effecttype>motion</effecttype>
										<mediatype>video</mediatype>
										<parameter authoringApp="PremierePro">
											<parameterid>scale</parameterid>
											<name>Scale</name>
											<value>109.402</value>
										</parameter>
									</effect>
								</filter>
								<logginginfo>
									<description></description>
									<scene></scene>
									<shottake></shottake>
									<lognote></lognote>
									<good></good>
									<originalvideofilename></originalvideofilename>
									<originalaudiofilename></originalaudiofilename>
								</logginginfo>
								<colorinfo>
									<lut></lut>
									<lut1></lut1>
									<asc_sop></asc_sop>
									<asc_sat></asc_sat>
									<lut2></lut2>
								</colorinfo>
								<labels>
									<label2>Violet</label2>
								</labels>
							</clipitem>
							<transitionitem>
								<start>5862</start>
								<end>5877</end>
								<alignment>start</alignment>
								<cutPointTicks>0</cutPointTicks>
								<rate>
									<timebase>30</timebase>
									<ntsc>TRUE</ntsc>
								</rate>
								<effect>
									<name>Cross Dissolve</name>
									<effectid>Cross Dissolve</effectid>
									<effectcategory>Dissolve</effectcategory>
									<effecttype>transition</effecttype>
									<mediatype>video</mediatype>
									<wipecode>0</wipecode>
									<wipeaccuracy>100</wipeaccuracy>
									<startratio>0</startratio>
									<endratio>1</endratio>
									<reverse>FALSE</reverse>
								</effect>
							</transitionitem>
							<clipitem id="clipitem-1101">
								<masterclipid>masterclip-133</masterclipid>
								<name>640286_Car Driving Tajikistan Drone_By_Timelab_Pro_Artlist_HD.mp4</name>
								<enabled>TRUE</enabled>
								<duration>745</duration>
								<rate>
									<timebase>30</timebase>
									<ntsc>TRUE</ntsc>
								</rate>
								<start>-1</start>
								<end>6084</end>
								<in>0</in>
								<out>222</out>
								<pproTicksIn>0</pproTicksIn>
								<pproTicksOut>1881598118400</pproTicksOut>
								<alphatype>none</alphatype>
								<file id="file-132"/>
								<filter>
									<effect>
										<name>Distort</name>
										<effectid>deformation</effectid>
										<effectcategory>motion</effectcategory>
										<effecttype>motion</effecttype>
										<mediatype>video</mediatype>
										<parameter authoringApp="PremierePro">
											<parameterid>aspect</parameterid>
											<name>Aspect</name>
											<valuemin>-10000</valuemin>
											<valuemax>10000</valuemax>
											<value>-9.40171</value>
										</parameter>
									</effect>
								</filter>
								<filter>
									<effect>
										<name>Basic Motion</name>
										<effectid>basic</effectid>
										<effectcategory>motion</effectcategory>
										<effecttype>motion</effecttype>
										<mediatype>video</mediatype>
										<parameter authoringApp="PremierePro">
											<parameterid>scale</parameterid>
											<name>Scale</name>
											<value>109.402</value>
										</parameter>
									</effect>
								</filter>
								<logginginfo>
									<description></description>
									<scene></scene>
									<shottake></shottake>
									<lognote></lognote>
									<good></good>
									<originalvideofilename></originalvideofilename>
									<originalaudiofilename></originalaudiofilename>
								</logginginfo>
								<colorinfo>
									<lut></lut>
									<lut1></lut1>
									<asc_sop></asc_sop>
									<asc_sat></asc_sat>
									<lut2></lut2>
								</colorinfo>
								<labels>
									<label2>Violet</label2>
								</labels>
							</clipitem>
							<clipitem id="clipitem-1102">
								<masterclipid>masterclip-134</masterclipid>
								<name>640281_Car Driving Tajikistan Drone_By_Timelab_Pro_Artlist_HD.mp4</name>
								<enabled>TRUE</enabled>
								<duration>851</duration>
								<rate>
									<timebase>30</timebase>
									<ntsc>TRUE</ntsc>
								</rate>
								<start>6084</start>
								<end>6292</end>
								<in>333</in>
								<out>541</out>
								<pproTicksIn>2822397177600</pproTicksIn>
								<pproTicksOut>4585335955200</pproTicksOut>
								<alphatype>none</alphatype>
								<file id="file-133"/>
								<filter>
									<effect>
										<name>Distort</name>
										<effectid>deformation</effectid>
										<effectcategory>motion</effectcategory>
										<effecttype>motion</effecttype>
										<mediatype>video</mediatype>
										<parameter authoringApp="PremierePro">
											<parameterid>aspect</parameterid>
											<name>Aspect</name>
											<valuemin>-10000</valuemin>
											<valuemax>10000</valuemax>
											<value>-9.40171</value>
										</parameter>
									</effect>
								</filter>
								<filter>
									<effect>
										<name>Basic Motion</name>
										<effectid>basic</effectid>
										<effectcategory>motion</effectcategory>
										<effecttype>motion</effecttype>
										<mediatype>video</mediatype>
										<parameter authoringApp="PremierePro">
											<parameterid>scale</parameterid>
											<name>Scale</name>
											<value>109.402</value>
										</parameter>
									</effect>
								</filter>
								<logginginfo>
									<description></description>
									<scene></scene>
									<shottake></shottake>
									<lognote></lognote>
									<good></good>
									<originalvideofilename></originalvideofilename>
									<originalaudiofilename></originalaudiofilename>
								</logginginfo>
								<colorinfo>
									<lut></lut>
									<lut1></lut1>
									<asc_sop></asc_sop>
									<asc_sat></asc_sat>
									<lut2></lut2>
								</colorinfo>
								<labels>
									<label2>Violet</label2>
								</labels>
							</clipitem>
							<clipitem id="clipitem-1103">
								<masterclipid>masterclip-135</masterclipid>
								<name>640283_Car Driving Tajikistan Drone_By_Timelab_Pro_Artlist_HD.mp4</name>
								<enabled>TRUE</enabled>
								<duration>1301</duration>
								<rate>
									<timebase>30</timebase>
									<ntsc>TRUE</ntsc>
								</rate>
								<start>6292</start>
								<end>6731</end>
								<in>0</in>
								<out>439</out>
								<pproTicksIn>0</pproTicksIn>
								<pproTicksOut>3720817900800</pproTicksOut>
								<alphatype>none</alphatype>
								<file id="file-134"/>
								<filter>
									<effect>
										<name>Distort</name>
										<effectid>deformation</effectid>
										<effectcategory>motion</effectcategory>
										<effecttype>motion</effecttype>
										<mediatype>video</mediatype>
										<parameter authoringApp="PremierePro">
											<parameterid>aspect</parameterid>
											<name>Aspect</name>
											<valuemin>-10000</valuemin>
											<valuemax>10000</valuemax>
											<value>-9.40171</value>
										</parameter>
									</effect>
								</filter>
								<filter>
									<effect>
										<name>Basic Motion</name>
										<effectid>basic</effectid>
										<effectcategory>motion</effectcategory>
										<effecttype>motion</effecttype>
										<mediatype>video</mediatype>
										<parameter authoringApp="PremierePro">
											<parameterid>scale</parameterid>
											<name>Scale</name>
											<value>109.402</value>
										</parameter>
									</effect>
								</filter>
								<logginginfo>
									<description></description>
									<scene></scene>
									<shottake></shottake>
									<lognote></lognote>
									<good></good>
									<originalvideofilename></originalvideofilename>
									<originalaudiofilename></originalaudiofilename>
								</logginginfo>
								<colorinfo>
									<lut></lut>
									<lut1></lut1>
									<asc_sop></asc_sop>
									<asc_sat></asc_sat>
									<lut2></lut2>
								</colorinfo>
								<labels>
									<label2>Violet</label2>
								</labels>
							</clipitem>
							<clipitem id="clipitem-1104">
								<masterclipid>masterclip-136</masterclipid>
								<name>640260_Tajikistan Drone Sand Mountains_By_Timelab_Pro_Artlist_HD.mp4</name>
								<enabled>TRUE</enabled>
								<duration>706</duration>
								<rate>
									<timebase>30</timebase>
									<ntsc>TRUE</ntsc>
								</rate>
								<start>6731</start>
								<end>6943</end>
								<in>0</in>
								<out>212</out>
								<pproTicksIn>0</pproTicksIn>
								<pproTicksOut>1796841446400</pproTicksOut>
								<alphatype>none</alphatype>
								<file id="file-135"/>
								<filter>
									<effect>
										<name>Distort</name>
										<effectid>deformation</effectid>
										<effectcategory>motion</effectcategory>
										<effecttype>motion</effecttype>
										<mediatype>video</mediatype>
										<parameter authoringApp="PremierePro">
											<parameterid>aspect</parameterid>
											<name>Aspect</name>
											<valuemin>-10000</valuemin>
											<valuemax>10000</valuemax>
											<value>-9.40171</value>
										</parameter>
									</effect>
								</filter>
								<filter>
									<effect>
										<name>Basic Motion</name>
										<effectid>basic</effectid>
										<effectcategory>motion</effectcategory>
										<effecttype>motion</effecttype>
										<mediatype>video</mediatype>
										<parameter authoringApp="PremierePro">
											<parameterid>scale</parameterid>
											<name>Scale</name>
											<value>109.402</value>
										</parameter>
									</effect>
								</filter>
								<logginginfo>
									<description></description>
									<scene></scene>
									<shottake></shottake>
									<lognote></lognote>
									<good></good>
									<originalvideofilename></originalvideofilename>
									<originalaudiofilename></originalaudiofilename>
								</logginginfo>
								<colorinfo>
									<lut></lut>
									<lut1></lut1>
									<asc_sop></asc_sop>
									<asc_sat></asc_sat>
									<lut2></lut2>
								</colorinfo>
								<labels>
									<label2>Violet</label2>
								</labels>
							</clipitem>
							<clipitem id="clipitem-1105">
								<masterclipid>masterclip-137</masterclipid>
								<name>640263_Tajikistan Drone Sand Mountains_By_Timelab_Pro_Artlist_HD.mp4</name>
								<enabled>TRUE</enabled>
								<duration>388</duration>
								<rate>
									<timebase>30</timebase>
									<ntsc>TRUE</ntsc>
								</rate>
								<start>6943</start>
								<end>-1</end>
								<in>0</in>
								<out>227</out>
								<pproTicksIn>0</pproTicksIn>
								<pproTicksOut>1923976454400</pproTicksOut>
								<alphatype>none</alphatype>
								<file id="file-136"/>
								<filter>
									<effect>
										<name>Distort</name>
										<effectid>deformation</effectid>
										<effectcategory>motion</effectcategory>
										<effecttype>motion</effecttype>
										<mediatype>video</mediatype>
										<parameter authoringApp="PremierePro">
											<parameterid>aspect</parameterid>
											<name>Aspect</name>
											<valuemin>-10000</valuemin>
											<valuemax>10000</valuemax>
											<value>-9.40171</value>
										</parameter>
									</effect>
								</filter>
								<filter>
									<effect>
										<name>Basic Motion</name>
										<effectid>basic</effectid>
										<effectcategory>motion</effectcategory>
										<effecttype>motion</effecttype>
										<mediatype>video</mediatype>
										<parameter authoringApp="PremierePro">
											<parameterid>scale</parameterid>
											<name>Scale</name>
											<value>109.402</value>
										</parameter>
									</effect>
								</filter>
								<logginginfo>
									<description></description>
									<scene></scene>
									<shottake></shottake>
									<lognote></lognote>
									<good></good>
									<originalvideofilename></originalvideofilename>
									<originalaudiofilename></originalaudiofilename>
								</logginginfo>
								<colorinfo>
									<lut></lut>
									<lut1></lut1>
									<asc_sop></asc_sop>
									<asc_sat></asc_sat>
									<lut2></lut2>
								</colorinfo>
								<labels>
									<label2>Violet</label2>
								</labels>
							</clipitem>
							<transitionitem>
								<start>7155</start>
								<end>7170</end>
								<alignment>start</alignment>
								<cutPointTicks>0</cutPointTicks>
								<rate>
									<timebase>30</timebase>
									<ntsc>TRUE</ntsc>
								</rate>
								<effect>
									<name>Cross Dissolve</name>
									<effectid>Cross Dissolve</effectid>
									<effectcategory>Dissolve</effectcategory>
									<effecttype>transition</effecttype>
									<mediatype>video</mediatype>
									<wipecode>0</wipecode>
									<wipeaccuracy>100</wipeaccuracy>
									<startratio>0</startratio>
									<endratio>1</endratio>
									<reverse>FALSE</reverse>
								</effect>
							</transitionitem>
							<clipitem id="clipitem-1106">
								<masterclipid>masterclip-138</masterclipid>
								<name>640267_Car Driving Desert Tajikistan_By_Timelab_Pro_Artlist_HD.mp4</name>
								<enabled>TRUE</enabled>
								<duration>527</duration>
								<rate>
									<timebase>30</timebase>
									<ntsc>TRUE</ntsc>
								</rate>
								<start>-1</start>
								<end>7264</end>
								<in>0</in>
								<out>109</out>
								<pproTicksIn>0</pproTicksIn>
								<pproTicksOut>923847724800</pproTicksOut>
								<alphatype>none</alphatype>
								<file id="file-137"/>
								<filter>
									<effect>
										<name>Distort</name>
										<effectid>deformation</effectid>
										<effectcategory>motion</effectcategory>
										<effecttype>motion</effecttype>
										<mediatype>video</mediatype>
										<parameter authoringApp="PremierePro">
											<parameterid>aspect</parameterid>
											<name>Aspect</name>
											<valuemin>-10000</valuemin>
											<valuemax>10000</valuemax>
											<value>-9.40171</value>
										</parameter>
									</effect>
								</filter>
								<filter>
									<effect>
										<name>Basic Motion</name>
										<effectid>basic</effectid>
										<effectcategory>motion</effectcategory>
										<effecttype>motion</effecttype>
										<mediatype>video</mediatype>
										<parameter authoringApp="PremierePro">
											<parameterid>scale</parameterid>
											<name>Scale</name>
											<value>109.402</value>
										</parameter>
									</effect>
								</filter>
								<logginginfo>
									<description></description>
									<scene></scene>
									<shottake></shottake>
									<lognote></lognote>
									<good></good>
									<originalvideofilename></originalvideofilename>
									<originalaudiofilename></originalaudiofilename>
								</logginginfo>
								<colorinfo>
									<lut></lut>
									<lut1></lut1>
									<asc_sop></asc_sop>
									<asc_sat></asc_sat>
									<lut2></lut2>
								</colorinfo>
								<labels>
									<label2>Violet</label2>
								</labels>
							</clipitem>
							<clipitem id="clipitem-1107">
								<masterclipid>masterclip-139</masterclipid>
								<name>640254_Car Driving Tajikistan Drone_By_Timelab_Pro_Artlist_HD.mp4</name>
								<enabled>TRUE</enabled>
								<duration>1455</duration>
								<rate>
									<timebase>30</timebase>
									<ntsc>TRUE</ntsc>
								</rate>
								<start>7264</start>
								<end>-1</end>
								<in>0</in>
								<out>338</out>
								<pproTicksIn>0</pproTicksIn>
								<pproTicksOut>2864775513600</pproTicksOut>
								<alphatype>none</alphatype>
								<file id="file-138"/>
								<filter>
									<effect>
										<name>Distort</name>
										<effectid>deformation</effectid>
										<effectcategory>motion</effectcategory>
										<effecttype>motion</effecttype>
										<mediatype>video</mediatype>
										<parameter authoringApp="PremierePro">
											<parameterid>aspect</parameterid>
											<name>Aspect</name>
											<valuemin>-10000</valuemin>
											<valuemax>10000</valuemax>
											<value>-9.40171</value>
										</parameter>
									</effect>
								</filter>
								<filter>
									<effect>
										<name>Basic Motion</name>
										<effectid>basic</effectid>
										<effectcategory>motion</effectcategory>
										<effecttype>motion</effecttype>
										<mediatype>video</mediatype>
										<parameter authoringApp="PremierePro">
											<parameterid>scale</parameterid>
											<name>Scale</name>
											<value>109.402</value>
										</parameter>
									</effect>
								</filter>
								<logginginfo>
									<description></description>
									<scene></scene>
									<shottake></shottake>
									<lognote></lognote>
									<good></good>
									<originalvideofilename></originalvideofilename>
									<originalaudiofilename></originalaudiofilename>
								</logginginfo>
								<colorinfo>
									<lut></lut>
									<lut1></lut1>
									<asc_sop></asc_sop>
									<asc_sat></asc_sat>
									<lut2></lut2>
								</colorinfo>
								<labels>
									<label2>Violet</label2>
								</labels>
							</clipitem>
							<transitionitem>
								<start>7587</start>
								<end>7602</end>
								<alignment>center</alignment>
								<cutPointTicks>59329670400</cutPointTicks>
								<rate>
									<timebase>30</timebase>
									<ntsc>TRUE</ntsc>
								</rate>
								<effect>
									<name>Cross Dissolve</name>
									<effectid>Cross Dissolve</effectid>
									<effectcategory>Dissolve</effectcategory>
									<effecttype>transition</effecttype>
									<mediatype>video</mediatype>
									<wipecode>0</wipecode>
									<wipeaccuracy>100</wipeaccuracy>
									<startratio>0</startratio>
									<endratio>1</endratio>
									<reverse>FALSE</reverse>
								</effect>
							</transitionitem>
							<clipitem id="clipitem-1108">
								<masterclipid>masterclip-140</masterclipid>
								<name>640269_Desert Tajikistan Drone Sand_By_Timelab_Pro_Artlist_HD.mp4</name>
								<enabled>TRUE</enabled>
								<duration>1357</duration>
								<rate>
									<timebase>30</timebase>
									<ntsc>TRUE</ntsc>
								</rate>
								<start>-1</start>
								<end>8021</end>
								<in>496</in>
								<out>930</out>
								<pproTicksIn>4203930931200</pproTicksIn>
								<pproTicksOut>7882370496000</pproTicksOut>
								<alphatype>none</alphatype>
								<file id="file-139"/>
								<filter>
									<effect>
										<name>Distort</name>
										<effectid>deformation</effectid>
										<effectcategory>motion</effectcategory>
										<effecttype>motion</effecttype>
										<mediatype>video</mediatype>
										<parameter authoringApp="PremierePro">
											<parameterid>aspect</parameterid>
											<name>Aspect</name>
											<valuemin>-10000</valuemin>
											<valuemax>10000</valuemax>
											<value>-9.40171</value>
										</parameter>
									</effect>
								</filter>
								<filter>
									<effect>
										<name>Basic Motion</name>
										<effectid>basic</effectid>
										<effectcategory>motion</effectcategory>
										<effecttype>motion</effecttype>
										<mediatype>video</mediatype>
										<parameter authoringApp="PremierePro">
											<parameterid>scale</parameterid>
											<name>Scale</name>
											<value>109.402</value>
										</parameter>
									</effect>
								</filter>
								<logginginfo>
									<description></description>
									<scene></scene>
									<shottake></shottake>
									<lognote></lognote>
									<good></good>
									<originalvideofilename></originalvideofilename>
									<originalaudiofilename></originalaudiofilename>
								</logginginfo>
								<colorinfo>
									<lut></lut>
									<lut1></lut1>
									<asc_sop></asc_sop>
									<asc_sat></asc_sat>
									<lut2></lut2>
								</colorinfo>
								<labels>
									<label2>Violet</label2>
								</labels>
							</clipitem>
							<clipitem id="clipitem-1109">
								<masterclipid>masterclip-141</masterclipid>
								<name>640251_Car Driving Desert Tajikistan_By_Timelab_Pro_Artlist_HD.mp4</name>
								<enabled>TRUE</enabled>
								<duration>419</duration>
								<rate>
									<timebase>30</timebase>
									<ntsc>TRUE</ntsc>
								</rate>
								<start>8021</start>
								<end>8371</end>
								<in>0</in>
								<out>350</out>
								<pproTicksIn>0</pproTicksIn>
								<pproTicksOut>2966483520000</pproTicksOut>
								<alphatype>none</alphatype>
								<file id="file-140"/>
								<filter>
									<effect>
										<name>Distort</name>
										<effectid>deformation</effectid>
										<effectcategory>motion</effectcategory>
										<effecttype>motion</effecttype>
										<mediatype>video</mediatype>
										<parameter authoringApp="PremierePro">
											<parameterid>aspect</parameterid>
											<name>Aspect</name>
											<valuemin>-10000</valuemin>
											<valuemax>10000</valuemax>
											<value>-9.40171</value>
										</parameter>
									</effect>
								</filter>
								<filter>
									<effect>
										<name>Basic Motion</name>
										<effectid>basic</effectid>
										<effectcategory>motion</effectcategory>
										<effecttype>motion</effecttype>
										<mediatype>video</mediatype>
										<parameter authoringApp="PremierePro">
											<parameterid>scale</parameterid>
											<name>Scale</name>
											<value>109.402</value>
										</parameter>
									</effect>
								</filter>
								<logginginfo>
									<description></description>
									<scene></scene>
									<shottake></shottake>
									<lognote></lognote>
									<good></good>
									<originalvideofilename></originalvideofilename>
									<originalaudiofilename></originalaudiofilename>
								</logginginfo>
								<colorinfo>
									<lut></lut>
									<lut1></lut1>
									<asc_sop></asc_sop>
									<asc_sat></asc_sat>
									<lut2></lut2>
								</colorinfo>
								<labels>
									<label2>Violet</label2>
								</labels>
							</clipitem>
							<clipitem id="clipitem-1110">
								<masterclipid>masterclip-142</masterclipid>
								<name>640249_Car Driving Desert Tajikistan_By_Timelab_Pro_Artlist_HD.mp4</name>
								<enabled>TRUE</enabled>
								<duration>700</duration>
								<rate>
									<timebase>30</timebase>
									<ntsc>TRUE</ntsc>
								</rate>
								<start>8371</start>
								<end>8600</end>
								<in>0</in>
								<out>229</out>
								<pproTicksIn>0</pproTicksIn>
								<pproTicksOut>1940927788800</pproTicksOut>
								<alphatype>none</alphatype>
								<file id="file-141"/>
								<filter>
									<effect>
										<name>Distort</name>
										<effectid>deformation</effectid>
										<effectcategory>motion</effectcategory>
										<effecttype>motion</effecttype>
										<mediatype>video</mediatype>
										<parameter authoringApp="PremierePro">
											<parameterid>aspect</parameterid>
											<name>Aspect</name>
											<valuemin>-10000</valuemin>
											<valuemax>10000</valuemax>
											<value>-9.40171</value>
										</parameter>
									</effect>
								</filter>
								<filter>
									<effect>
										<name>Basic Motion</name>
										<effectid>basic</effectid>
										<effectcategory>motion</effectcategory>
										<effecttype>motion</effecttype>
										<mediatype>video</mediatype>
										<parameter authoringApp="PremierePro">
											<parameterid>scale</parameterid>
											<name>Scale</name>
											<value>109.402</value>
										</parameter>
									</effect>
								</filter>
								<logginginfo>
									<description></description>
									<scene></scene>
									<shottake></shottake>
									<lognote></lognote>
									<good></good>
									<originalvideofilename></originalvideofilename>
									<originalaudiofilename></originalaudiofilename>
								</logginginfo>
								<colorinfo>
									<lut></lut>
									<lut1></lut1>
									<asc_sop></asc_sop>
									<asc_sat></asc_sat>
									<lut2></lut2>
								</colorinfo>
								<labels>
									<label2>Violet</label2>
								</labels>
							</clipitem>
							<clipitem id="clipitem-1111">
								<masterclipid>masterclip-143</masterclipid>
								<name>640268_Desert Tajikistan Drone Sand_By_Timelab_Pro_Artlist_HD.mp4</name>
								<enabled>TRUE</enabled>
								<duration>966</duration>
								<rate>
									<timebase>30</timebase>
									<ntsc>TRUE</ntsc>
								</rate>
								<start>8600</start>
								<end>9192</end>
								<in>0</in>
								<out>592</out>
								<pproTicksIn>0</pproTicksIn>
								<pproTicksOut>5017594982400</pproTicksOut>
								<alphatype>none</alphatype>
								<file id="file-142"/>
								<filter>
									<effect>
										<name>Distort</name>
										<effectid>deformation</effectid>
										<effectcategory>motion</effectcategory>
										<effecttype>motion</effecttype>
										<mediatype>video</mediatype>
										<parameter authoringApp="PremierePro">
											<parameterid>aspect</parameterid>
											<name>Aspect</name>
											<valuemin>-10000</valuemin>
											<valuemax>10000</valuemax>
											<value>-9.40171</value>
										</parameter>
									</effect>
								</filter>
								<filter>
									<effect>
										<name>Basic Motion</name>
										<effectid>basic</effectid>
										<effectcategory>motion</effectcategory>
										<effecttype>motion</effecttype>
										<mediatype>video</mediatype>
										<parameter authoringApp="PremierePro">
											<parameterid>scale</parameterid>
											<name>Scale</name>
											<value>109.402</value>
										</parameter>
									</effect>
								</filter>
								<logginginfo>
									<description></description>
									<scene></scene>
									<shottake></shottake>
									<lognote></lognote>
									<good></good>
									<originalvideofilename></originalvideofilename>
									<originalaudiofilename></originalaudiofilename>
								</logginginfo>
								<colorinfo>
									<lut></lut>
									<lut1></lut1>
									<asc_sop></asc_sop>
									<asc_sat></asc_sat>
									<lut2></lut2>
								</colorinfo>
								<labels>
									<label2>Violet</label2>
								</labels>
							</clipitem>
							<clipitem id="clipitem-1112">
								<masterclipid>masterclip-146</masterclipid>
								<name>aerial-view-of-statue-of-guan-yin-in-thailand-SBV-338964989-HD.mp4</name>
								<enabled>TRUE</enabled>
								<duration>1509</duration>
								<rate>
									<timebase>30</timebase>
									<ntsc>TRUE</ntsc>
								</rate>
								<start>9717</start>
								<end>10770</end>
								<in>0</in>
								<out>1053</out>
								<pproTicksIn>0</pproTicksIn>
								<pproTicksOut>8924877561600</pproTicksOut>
								<alphatype>none</alphatype>
								<file id="file-144"/>
								<logginginfo>
									<description></description>
									<scene></scene>
									<shottake></shottake>
									<lognote></lognote>
									<good></good>
									<originalvideofilename></originalvideofilename>
									<originalaudiofilename></originalaudiofilename>
								</logginginfo>
								<colorinfo>
									<lut></lut>
									<lut1></lut1>
									<asc_sop></asc_sop>
									<asc_sat></asc_sat>
									<lut2></lut2>
								</colorinfo>
								<labels>
									<label2>Violet</label2>
								</labels>
							</clipitem>
							<clipitem id="clipitem-1113">
								<masterclipid>masterclip-147</masterclipid>
								<name>aerial-view-of-statue-of-guan-yin-in-thailand-SBV-338964992-HD.mp4</name>
								<enabled>TRUE</enabled>
								<duration>1026</duration>
								<rate>
									<timebase>30</timebase>
									<ntsc>TRUE</ntsc>
								</rate>
								<start>10770</start>
								<end>11301</end>
								<in>0</in>
								<out>531</out>
								<pproTicksIn>0</pproTicksIn>
								<pproTicksOut>4500579283200</pproTicksOut>
								<alphatype>none</alphatype>
								<file id="file-145"/>
								<logginginfo>
									<description></description>
									<scene></scene>
									<shottake></shottake>
									<lognote></lognote>
									<good></good>
									<originalvideofilename></originalvideofilename>
									<originalaudiofilename></originalaudiofilename>
								</logginginfo>
								<colorinfo>
									<lut></lut>
									<lut1></lut1>
									<asc_sop></asc_sop>
									<asc_sat></asc_sat>
									<lut2></lut2>
								</colorinfo>
								<labels>
									<label2>Violet</label2>
								</labels>
							</clipitem>
							<clipitem id="clipitem-1114">
								<masterclipid>masterclip-163</masterclipid>
								<name>726057_Mountains Road Austria Hills_By_Mirko_Paoloni_Artlist_HD.mp4</name>
								<enabled>TRUE</enabled>
								<duration>591</duration>
								<rate>
									<timebase>30</timebase>
									<ntsc>TRUE</ntsc>
								</rate>
								<start>11592</start>
								<end>11936</end>
								<in>0</in>
								<out>344</out>
								<pproTicksIn>0</pproTicksIn>
								<pproTicksOut>2915629516800</pproTicksOut>
								<alphatype>none</alphatype>
								<file id="file-154"/>
								<logginginfo>
									<description></description>
									<scene></scene>
									<shottake></shottake>
									<lognote></lognote>
									<good></good>
									<originalvideofilename></originalvideofilename>
									<originalaudiofilename></originalaudiofilename>
								</logginginfo>
								<colorinfo>
									<lut></lut>
									<lut1></lut1>
									<asc_sop></asc_sop>
									<asc_sat></asc_sat>
									<lut2></lut2>
								</colorinfo>
								<labels>
									<label2>Violet</label2>
								</labels>
							</clipitem>
							<clipitem id="clipitem-1115">
								<masterclipid>masterclip-164</masterclipid>
								<name>726018_Longboard Hills Fast Ride  Thrilling_By_Mirko_Paoloni_Artlist_HD.mp4</name>
								<enabled>TRUE</enabled>
								<duration>360</duration>
								<rate>
									<timebase>30</timebase>
									<ntsc>TRUE</ntsc>
								</rate>
								<start>11936</start>
								<end>12216</end>
								<in>0</in>
								<out>280</out>
								<pproTicksIn>0</pproTicksIn>
								<pproTicksOut>2373186816000</pproTicksOut>
								<alphatype>none</alphatype>
								<file id="file-155"/>
								<logginginfo>
									<description></description>
									<scene></scene>
									<shottake></shottake>
									<lognote></lognote>
									<good></good>
									<originalvideofilename></originalvideofilename>
									<originalaudiofilename></originalaudiofilename>
								</logginginfo>
								<colorinfo>
									<lut></lut>
									<lut1></lut1>
									<asc_sop></asc_sop>
									<asc_sat></asc_sat>
									<lut2></lut2>
								</colorinfo>
								<labels>
									<label2>Violet</label2>
								</labels>
							</clipitem>
							<clipitem id="clipitem-1116">
								<masterclipid>masterclip-165</masterclipid>
								<name>726016_Longboard Road Downhill Riding_By_Mirko_Paoloni_Artlist_HD.mp4</name>
								<enabled>TRUE</enabled>
								<duration>937</duration>
								<rate>
									<timebase>30</timebase>
									<ntsc>TRUE</ntsc>
								</rate>
								<start>12216</start>
								<end>12657</end>
								<in>0</in>
								<out>441</out>
								<pproTicksIn>0</pproTicksIn>
								<pproTicksOut>3737769235200</pproTicksOut>
								<alphatype>none</alphatype>
								<file id="file-156"/>
								<logginginfo>
									<description></description>
									<scene></scene>
									<shottake></shottake>
									<lognote></lognote>
									<good></good>
									<originalvideofilename></originalvideofilename>
									<originalaudiofilename></originalaudiofilename>
								</logginginfo>
								<colorinfo>
									<lut></lut>
									<lut1></lut1>
									<asc_sop></asc_sop>
									<asc_sat></asc_sat>
									<lut2></lut2>
								</colorinfo>
								<labels>
									<label2>Violet</label2>
								</labels>
							</clipitem>
							<clipitem id="clipitem-1117">
								<masterclipid>masterclip-166</masterclipid>
								<name>726010_Longboarding   Riding Mountains Fpv Drone_By_Mirko_Paoloni_Artlist_HD.mp4</name>
								<enabled>TRUE</enabled>
								<duration>676</duration>
								<rate>
									<timebase>30</timebase>
									<ntsc>TRUE</ntsc>
								</rate>
								<start>12657</start>
								<end>13005</end>
								<in>0</in>
								<out>348</out>
								<pproTicksIn>0</pproTicksIn>
								<pproTicksOut>2949532185600</pproTicksOut>
								<alphatype>none</alphatype>
								<file id="file-157"/>
								<logginginfo>
									<description></description>
									<scene></scene>
									<shottake></shottake>
									<lognote></lognote>
									<good></good>
									<originalvideofilename></originalvideofilename>
									<originalaudiofilename></originalaudiofilename>
								</logginginfo>
								<colorinfo>
									<lut></lut>
									<lut1></lut1>
									<asc_sop></asc_sop>
									<asc_sat></asc_sat>
									<lut2></lut2>
								</colorinfo>
								<labels>
									<label2>Violet</label2>
								</labels>
							</clipitem>
							<clipitem id="clipitem-1118">
								<masterclipid>masterclip-167</masterclipid>
								<name>726024_Longboarding   Mountains Fpv Drone Downhill_By_Mirko_Paoloni_Artlist_HD.mp4</name>
								<enabled>TRUE</enabled>
								<duration>977</duration>
								<rate>
									<timebase>30</timebase>
									<ntsc>TRUE</ntsc>
								</rate>
								<start>13005</start>
								<end>13544</end>
								<in>0</in>
								<out>539</out>
								<pproTicksIn>0</pproTicksIn>
								<pproTicksOut>4568384620800</pproTicksOut>
								<alphatype>none</alphatype>
								<file id="file-158"/>
								<logginginfo>
									<description></description>
									<scene></scene>
									<shottake></shottake>
									<lognote></lognote>
									<good></good>
									<originalvideofilename></originalvideofilename>
									<originalaudiofilename></originalaudiofilename>
								</logginginfo>
								<colorinfo>
									<lut></lut>
									<lut1></lut1>
									<asc_sop></asc_sop>
									<asc_sat></asc_sat>
									<lut2></lut2>
								</colorinfo>
								<labels>
									<label2>Violet</label2>
								</labels>
							</clipitem>
							<clipitem id="clipitem-1119">
								<masterclipid>masterclip-168</masterclipid>
								<name>726014_Longboard Hills Fast Ride  Thrilling_By_Mirko_Paoloni_Artlist_HD.mp4</name>
								<enabled>TRUE</enabled>
								<duration>622</duration>
								<rate>
									<timebase>30</timebase>
									<ntsc>TRUE</ntsc>
								</rate>
								<start>13544</start>
								<end>13992</end>
								<in>0</in>
								<out>448</out>
								<pproTicksIn>0</pproTicksIn>
								<pproTicksOut>3797098905600</pproTicksOut>
								<alphatype>none</alphatype>
								<file id="file-159"/>
								<logginginfo>
									<description></description>
									<scene></scene>
									<shottake></shottake>
									<lognote></lognote>
									<good></good>
									<originalvideofilename></originalvideofilename>
									<originalaudiofilename></originalaudiofilename>
								</logginginfo>
								<colorinfo>
									<lut></lut>
									<lut1></lut1>
									<asc_sop></asc_sop>
									<asc_sat></asc_sat>
									<lut2></lut2>
								</colorinfo>
								<labels>
									<label2>Violet</label2>
								</labels>
							</clipitem>
							<clipitem id="clipitem-1120">
								<masterclipid>masterclip-169</masterclipid>
								<name>726048_Longboarding   Downhill Mountains Thrilling_By_Mirko_Paoloni_Artlist_HD.mp4</name>
								<enabled>TRUE</enabled>
								<duration>1009</duration>
								<rate>
									<timebase>30</timebase>
									<ntsc>TRUE</ntsc>
								</rate>
								<start>13992</start>
								<end>14420</end>
								<in>0</in>
								<out>428</out>
								<pproTicksIn>0</pproTicksIn>
								<pproTicksOut>3627585561600</pproTicksOut>
								<alphatype>none</alphatype>
								<file id="file-160"/>
								<logginginfo>
									<description></description>
									<scene></scene>
									<shottake></shottake>
									<lognote></lognote>
									<good></good>
									<originalvideofilename></originalvideofilename>
									<originalaudiofilename></originalaudiofilename>
								</logginginfo>
								<colorinfo>
									<lut></lut>
									<lut1></lut1>
									<asc_sop></asc_sop>
									<asc_sat></asc_sat>
									<lut2></lut2>
								</colorinfo>
								<labels>
									<label2>Violet</label2>
								</labels>
							</clipitem>
							<clipitem id="clipitem-1121">
								<masterclipid>masterclip-170</masterclipid>
								<name>726023_Riding Boardsport Downhill Longboarding  _By_Mirko_Paoloni_Artlist_HD.mp4</name>
								<enabled>TRUE</enabled>
								<duration>106</duration>
								<rate>
									<timebase>30</timebase>
									<ntsc>TRUE</ntsc>
								</rate>
								<start>14420</start>
								<end>14509</end>
								<in>0</in>
								<out>89</out>
								<pproTicksIn>0</pproTicksIn>
								<pproTicksOut>754334380800</pproTicksOut>
								<alphatype>none</alphatype>
								<file id="file-161"/>
								<logginginfo>
									<description></description>
									<scene></scene>
									<shottake></shottake>
									<lognote></lognote>
									<good></good>
									<originalvideofilename></originalvideofilename>
									<originalaudiofilename></originalaudiofilename>
								</logginginfo>
								<colorinfo>
									<lut></lut>
									<lut1></lut1>
									<asc_sop></asc_sop>
									<asc_sat></asc_sat>
									<lut2></lut2>
								</colorinfo>
								<labels>
									<label2>Violet</label2>
								</labels>
							</clipitem>
							<clipitem id="clipitem-1122">
								<masterclipid>masterclip-171</masterclipid>
								<name>726008_Riding Thrilling Downhill Longboard_By_Mirko_Paoloni_Artlist_HD.mp4</name>
								<enabled>TRUE</enabled>
								<duration>304</duration>
								<rate>
									<timebase>30</timebase>
									<ntsc>TRUE</ntsc>
								</rate>
								<start>14509</start>
								<end>14763</end>
								<in>0</in>
								<out>254</out>
								<pproTicksIn>0</pproTicksIn>
								<pproTicksOut>2152819468800</pproTicksOut>
								<alphatype>none</alphatype>
								<file id="file-162"/>
								<logginginfo>
									<description></description>
									<scene></scene>
									<shottake></shottake>
									<lognote></lognote>
									<good></good>
									<originalvideofilename></originalvideofilename>
									<originalaudiofilename></originalaudiofilename>
								</logginginfo>
								<colorinfo>
									<lut></lut>
									<lut1></lut1>
									<asc_sop></asc_sop>
									<asc_sat></asc_sat>
									<lut2></lut2>
								</colorinfo>
								<labels>
									<label2>Violet</label2>
								</labels>
							</clipitem>
							<clipitem id="clipitem-1123">
								<masterclipid>masterclip-172</masterclipid>
								<name>726030_Downhill Longboarding   Hills Fpv Drone_By_Mirko_Paoloni_Artlist_HD.mp4</name>
								<enabled>TRUE</enabled>
								<duration>620</duration>
								<rate>
									<timebase>30</timebase>
									<ntsc>TRUE</ntsc>
								</rate>
								<start>14763</start>
								<end>15281</end>
								<in>0</in>
								<out>518</out>
								<pproTicksIn>0</pproTicksIn>
								<pproTicksOut>4390395609600</pproTicksOut>
								<alphatype>none</alphatype>
								<file id="file-163"/>
								<logginginfo>
									<description></description>
									<scene></scene>
									<shottake></shottake>
									<lognote></lognote>
									<good></good>
									<originalvideofilename></originalvideofilename>
									<originalaudiofilename></originalaudiofilename>
								</logginginfo>
								<colorinfo>
									<lut></lut>
									<lut1></lut1>
									<asc_sop></asc_sop>
									<asc_sat></asc_sat>
									<lut2></lut2>
								</colorinfo>
								<labels>
									<label2>Violet</label2>
								</labels>
							</clipitem>
							<clipitem id="clipitem-1124">
								<masterclipid>masterclip-175</masterclipid>
								<name>(Prohdigyy)_FIREWORKS with FPV Drone _ India_e7w5lkml0wE_YT.mp4</name>
								<enabled>TRUE</enabled>
								<duration>1532</duration>
								<rate>
									<timebase>30</timebase>
									<ntsc>TRUE</ntsc>
								</rate>
								<start>15896</start>
								<end>17428</end>
								<in>0</in>
								<out>1532</out>
								<pproTicksIn>0</pproTicksIn>
								<pproTicksOut>12984722150400</pproTicksOut>
								<alphatype>none</alphatype>
								<file id="file-165"/>
								<filter>
									<effect>
										<name>Basic Motion</name>
										<effectid>basic</effectid>
										<effectcategory>motion</effectcategory>
										<effecttype>motion</effecttype>
										<mediatype>video</mediatype>
										<pproBypass>false</pproBypass>
										<parameter authoringApp="PremierePro">
											<parameterid>scale</parameterid>
											<name>Scale</name>
											<valuemin>0</valuemin>
											<valuemax>1000</valuemax>
											<value>145</value>
										</parameter>
										<parameter authoringApp="PremierePro">
											<parameterid>rotation</parameterid>
											<name>Rotation</name>
											<valuemin>-8640</valuemin>
											<valuemax>8640</valuemax>
											<value>0</value>
										</parameter>
										<parameter authoringApp="PremierePro">
											<parameterid>center</parameterid>
											<name>Center</name>
											<value>
												<horiz>0</horiz>
												<vert>0.0953704</vert>
											</value>
										</parameter>
										<parameter authoringApp="PremierePro">
											<parameterid>centerOffset</parameterid>
											<name>Anchor Point</name>
											<value>
												<horiz>0</horiz>
												<vert>0</vert>
											</value>
										</parameter>
										<parameter authoringApp="PremierePro">
											<parameterid>antiflicker</parameterid>
											<name>Anti-flicker Filter</name>
											<valuemin>0.0</valuemin>
											<valuemax>1.0</valuemax>
											<value>0</value>
										</parameter>
									</effect>
								</filter>
								<logginginfo>
									<description></description>
									<scene></scene>
									<shottake></shottake>
									<lognote>https://www.youtube.com/watch?v=e7w5lkml0wE</lognote>
									<good></good>
									<originalvideofilename></originalvideofilename>
									<originalaudiofilename></originalaudiofilename>
								</logginginfo>
								<colorinfo>
									<lut></lut>
									<lut1></lut1>
									<asc_sop></asc_sop>
									<asc_sat></asc_sat>
									<lut2></lut2>
								</colorinfo>
								<labels>
									<label2>Iris</label2>
								</labels>
							</clipitem>
							<clipitem id="clipitem-1125">
								<masterclipid>masterclip-186</masterclipid>
								<name>393466_Coastal Town Church Houses Clouds_By_21_Aerials_Artlist_HD.mp4</name>
								<enabled>TRUE</enabled>
								<duration>775</duration>
								<rate>
									<timebase>30</timebase>
									<ntsc>TRUE</ntsc>
								</rate>
								<start>17956</start>
								<end>18299</end>
								<in>0</in>
								<out>343</out>
								<pproTicksIn>0</pproTicksIn>
								<pproTicksOut>2907153849600</pproTicksOut>
								<alphatype>none</alphatype>
								<file id="file-174"/>
								<logginginfo>
									<description></description>
									<scene></scene>
									<shottake></shottake>
									<lognote></lognote>
									<good></good>
									<originalvideofilename></originalvideofilename>
									<originalaudiofilename></originalaudiofilename>
								</logginginfo>
								<colorinfo>
									<lut></lut>
									<lut1></lut1>
									<asc_sop></asc_sop>
									<asc_sat></asc_sat>
									<lut2></lut2>
								</colorinfo>
								<labels>
									<label2>Violet</label2>
								</labels>
							</clipitem>
							<clipitem id="clipitem-1126">
								<masterclipid>masterclip-187</masterclipid>
								<name>393472_Coastal Town Roads Church Clouds_By_21_Aerials_Artlist_HD.mp4</name>
								<enabled>TRUE</enabled>
								<duration>581</duration>
								<rate>
									<timebase>30</timebase>
									<ntsc>TRUE</ntsc>
								</rate>
								<start>18299</start>
								<end>18646</end>
								<in>0</in>
								<out>347</out>
								<pproTicksIn>0</pproTicksIn>
								<pproTicksOut>2941056518400</pproTicksOut>
								<alphatype>none</alphatype>
								<file id="file-175"/>
								<logginginfo>
									<description></description>
									<scene></scene>
									<shottake></shottake>
									<lognote></lognote>
									<good></good>
									<originalvideofilename></originalvideofilename>
									<originalaudiofilename></originalaudiofilename>
								</logginginfo>
								<colorinfo>
									<lut></lut>
									<lut1></lut1>
									<asc_sop></asc_sop>
									<asc_sat></asc_sat>
									<lut2></lut2>
								</colorinfo>
								<labels>
									<label2>Violet</label2>
								</labels>
							</clipitem>
							<clipitem id="clipitem-1127">
								<masterclipid>masterclip-188</masterclipid>
								<name>393462_Town Houses Roads Hills_By_21_Aerials_Artlist_HD.mp4</name>
								<enabled>TRUE</enabled>
								<duration>496</duration>
								<rate>
									<timebase>30</timebase>
									<ntsc>TRUE</ntsc>
								</rate>
								<start>18646</start>
								<end>18992</end>
								<in>0</in>
								<out>346</out>
								<pproTicksIn>0</pproTicksIn>
								<pproTicksOut>2932580851200</pproTicksOut>
								<alphatype>none</alphatype>
								<file id="file-176"/>
								<logginginfo>
									<description></description>
									<scene></scene>
									<shottake></shottake>
									<lognote></lognote>
									<good></good>
									<originalvideofilename></originalvideofilename>
									<originalaudiofilename></originalaudiofilename>
								</logginginfo>
								<colorinfo>
									<lut></lut>
									<lut1></lut1>
									<asc_sop></asc_sop>
									<asc_sat></asc_sat>
									<lut2></lut2>
								</colorinfo>
								<labels>
									<label2>Violet</label2>
								</labels>
							</clipitem>
							<clipitem id="clipitem-1128">
								<masterclipid>masterclip-189</masterclipid>
								<name>393467_Church Coastal Town Houses Roads_By_21_Aerials_Artlist_HD.mp4</name>
								<enabled>TRUE</enabled>
								<duration>571</duration>
								<rate>
									<timebase>30</timebase>
									<ntsc>TRUE</ntsc>
								</rate>
								<start>18992</start>
								<end>19340</end>
								<in>0</in>
								<out>348</out>
								<pproTicksIn>0</pproTicksIn>
								<pproTicksOut>2949532185600</pproTicksOut>
								<alphatype>none</alphatype>
								<file id="file-177"/>
								<logginginfo>
									<description></description>
									<scene></scene>
									<shottake></shottake>
									<lognote></lognote>
									<good></good>
									<originalvideofilename></originalvideofilename>
									<originalaudiofilename></originalaudiofilename>
								</logginginfo>
								<colorinfo>
									<lut></lut>
									<lut1></lut1>
									<asc_sop></asc_sop>
									<asc_sat></asc_sat>
									<lut2></lut2>
								</colorinfo>
								<labels>
									<label2>Violet</label2>
								</labels>
							</clipitem>
							<clipitem id="clipitem-1129">
								<masterclipid>masterclip-190</masterclipid>
								<name>393470_Town Church Houses Mountains_By_21_Aerials_Artlist_HD.mp4</name>
								<enabled>TRUE</enabled>
								<duration>676</duration>
								<rate>
									<timebase>30</timebase>
									<ntsc>TRUE</ntsc>
								</rate>
								<start>19340</start>
								<end>19688</end>
								<in>0</in>
								<out>348</out>
								<pproTicksIn>0</pproTicksIn>
								<pproTicksOut>2949532185600</pproTicksOut>
								<alphatype>none</alphatype>
								<file id="file-178"/>
								<logginginfo>
									<description></description>
									<scene></scene>
									<shottake></shottake>
									<lognote></lognote>
									<good></good>
									<originalvideofilename></originalvideofilename>
									<originalaudiofilename></originalaudiofilename>
								</logginginfo>
								<colorinfo>
									<lut></lut>
									<lut1></lut1>
									<asc_sop></asc_sop>
									<asc_sat></asc_sat>
									<lut2></lut2>
								</colorinfo>
								<labels>
									<label2>Violet</label2>
								</labels>
							</clipitem>
							<clipitem id="clipitem-1130">
								<masterclipid>masterclip-191</masterclipid>
								<name>393485_Coastal Town Roundabout Cars Houses_By_21_Aerials_Artlist_HD.mp4</name>
								<enabled>TRUE</enabled>
								<duration>784</duration>
								<rate>
									<timebase>30</timebase>
									<ntsc>TRUE</ntsc>
								</rate>
								<start>19688</start>
								<end>20293</end>
								<in>0</in>
								<out>605</out>
								<pproTicksIn>0</pproTicksIn>
								<pproTicksOut>5127778656000</pproTicksOut>
								<alphatype>none</alphatype>
								<file id="file-179"/>
								<logginginfo>
									<description></description>
									<scene></scene>
									<shottake></shottake>
									<lognote></lognote>
									<good></good>
									<originalvideofilename></originalvideofilename>
									<originalaudiofilename></originalaudiofilename>
								</logginginfo>
								<colorinfo>
									<lut></lut>
									<lut1></lut1>
									<asc_sop></asc_sop>
									<asc_sat></asc_sat>
									<lut2></lut2>
								</colorinfo>
								<labels>
									<label2>Violet</label2>
								</labels>
							</clipitem>
							<clipitem id="clipitem-1131">
								<masterclipid>masterclip-192</masterclipid>
								<name>393476_Coastal Town Houses Clouds Mountains_By_21_Aerials_Artlist_HD.mp4</name>
								<enabled>TRUE</enabled>
								<duration>336</duration>
								<rate>
									<timebase>30</timebase>
									<ntsc>TRUE</ntsc>
								</rate>
								<start>20293</start>
								<end>20630</end>
								<in>0</in>
								<out>337</out>
								<pproTicksIn>0</pproTicksIn>
								<pproTicksOut>2856299846400</pproTicksOut>
								<alphatype>none</alphatype>
								<file id="file-180"/>
								<logginginfo>
									<description></description>
									<scene></scene>
									<shottake></shottake>
									<lognote></lognote>
									<good></good>
									<originalvideofilename></originalvideofilename>
									<originalaudiofilename></originalaudiofilename>
								</logginginfo>
								<colorinfo>
									<lut></lut>
									<lut1></lut1>
									<asc_sop></asc_sop>
									<asc_sat></asc_sat>
									<lut2></lut2>
								</colorinfo>
								<labels>
									<label2>Violet</label2>
								</labels>
							</clipitem>
							<clipitem id="clipitem-1132">
								<masterclipid>masterclip-195</masterclipid>
								<name>(Loci)_The North (Arctic life in Lapland &amp; Lofoten) - LÓCI_inZ9KZPq1mQ_YT.mp4</name>
								<enabled>TRUE</enabled>
								<duration>7749</duration>
								<rate>
									<timebase>30</timebase>
									<ntsc>TRUE</ntsc>
								</rate>
								<start>20781</start>
								<end>20904</end>
								<in>835</in>
								<out>958</out>
								<pproTicksIn>7077182112000</pproTicksIn>
								<pproTicksOut>8119689177600</pproTicksOut>
								<alphatype>none</alphatype>
								<file id="file-182"/>
								<filter>
									<effect>
										<name>Basic Motion</name>
										<effectid>basic</effectid>
										<effectcategory>motion</effectcategory>
										<effecttype>motion</effecttype>
										<mediatype>video</mediatype>
										<pproBypass>false</pproBypass>
										<parameter authoringApp="PremierePro">
											<parameterid>scale</parameterid>
											<name>Scale</name>
											<valuemin>0</valuemin>
											<valuemax>1000</valuemax>
											<value>133</value>
										</parameter>
										<parameter authoringApp="PremierePro">
											<parameterid>rotation</parameterid>
											<name>Rotation</name>
											<valuemin>-8640</valuemin>
											<valuemax>8640</valuemax>
											<value>0</value>
										</parameter>
										<parameter authoringApp="PremierePro">
											<parameterid>center</parameterid>
											<name>Center</name>
											<value>
												<horiz>0</horiz>
												<vert>0</vert>
											</value>
										</parameter>
										<parameter authoringApp="PremierePro">
											<parameterid>centerOffset</parameterid>
											<name>Anchor Point</name>
											<value>
												<horiz>0</horiz>
												<vert>0</vert>
											</value>
										</parameter>
										<parameter authoringApp="PremierePro">
											<parameterid>antiflicker</parameterid>
											<name>Anti-flicker Filter</name>
											<valuemin>0.0</valuemin>
											<valuemax>1.0</valuemax>
											<value>0</value>
										</parameter>
									</effect>
								</filter>
								<logginginfo>
									<description></description>
									<scene></scene>
									<shottake></shottake>
									<lognote>https://www.youtube.com/watch?v=inZ9KZPq1mQ</lognote>
									<good></good>
									<originalvideofilename></originalvideofilename>
									<originalaudiofilename></originalaudiofilename>
								</logginginfo>
								<colorinfo>
									<lut></lut>
									<lut1></lut1>
									<asc_sop></asc_sop>
									<asc_sat></asc_sat>
									<lut2></lut2>
								</colorinfo>
								<labels>
									<label2>Iris</label2>
								</labels>
							</clipitem>
							<clipitem id="clipitem-1133">
								<masterclipid>masterclip-195</masterclipid>
								<name>(Loci)_The North (Arctic life in Lapland &amp; Lofoten) - LÓCI_inZ9KZPq1mQ_YT.mp4</name>
								<enabled>TRUE</enabled>
								<duration>7749</duration>
								<rate>
									<timebase>30</timebase>
									<ntsc>TRUE</ntsc>
								</rate>
								<start>20904</start>
								<end>20959</end>
								<in>1744</in>
								<out>1799</out>
								<pproTicksIn>14781563596800</pproTicksIn>
								<pproTicksOut>15247725292800</pproTicksOut>
								<alphatype>none</alphatype>
								<file id="file-182"/>
								<filter>
									<effect>
										<name>Basic Motion</name>
										<effectid>basic</effectid>
										<effectcategory>motion</effectcategory>
										<effecttype>motion</effecttype>
										<mediatype>video</mediatype>
										<pproBypass>false</pproBypass>
										<parameter authoringApp="PremierePro">
											<parameterid>scale</parameterid>
											<name>Scale</name>
											<valuemin>0</valuemin>
											<valuemax>1000</valuemax>
											<value>133</value>
										</parameter>
										<parameter authoringApp="PremierePro">
											<parameterid>rotation</parameterid>
											<name>Rotation</name>
											<valuemin>-8640</valuemin>
											<valuemax>8640</valuemax>
											<value>0</value>
										</parameter>
										<parameter authoringApp="PremierePro">
											<parameterid>center</parameterid>
											<name>Center</name>
											<value>
												<horiz>0</horiz>
												<vert>0</vert>
											</value>
										</parameter>
										<parameter authoringApp="PremierePro">
											<parameterid>centerOffset</parameterid>
											<name>Anchor Point</name>
											<value>
												<horiz>0</horiz>
												<vert>0</vert>
											</value>
										</parameter>
										<parameter authoringApp="PremierePro">
											<parameterid>antiflicker</parameterid>
											<name>Anti-flicker Filter</name>
											<valuemin>0.0</valuemin>
											<valuemax>1.0</valuemax>
											<value>0</value>
										</parameter>
									</effect>
								</filter>
								<logginginfo>
									<description></description>
									<scene></scene>
									<shottake></shottake>
									<lognote>https://www.youtube.com/watch?v=inZ9KZPq1mQ</lognote>
									<good></good>
									<originalvideofilename></originalvideofilename>
									<originalaudiofilename></originalaudiofilename>
								</logginginfo>
								<colorinfo>
									<lut></lut>
									<lut1></lut1>
									<asc_sop></asc_sop>
									<asc_sat></asc_sat>
									<lut2></lut2>
								</colorinfo>
								<labels>
									<label2>Iris</label2>
								</labels>
							</clipitem>
							<clipitem id="clipitem-1134">
								<masterclipid>masterclip-195</masterclipid>
								<name>(Loci)_The North (Arctic life in Lapland &amp; Lofoten) - LÓCI_inZ9KZPq1mQ_YT.mp4</name>
								<enabled>TRUE</enabled>
								<duration>7749</duration>
								<rate>
									<timebase>30</timebase>
									<ntsc>TRUE</ntsc>
								</rate>
								<start>20959</start>
								<end>21075</end>
								<in>1926</in>
								<out>2042</out>
								<pproTicksIn>16324135027200</pproTicksIn>
								<pproTicksOut>17307312422400</pproTicksOut>
								<alphatype>none</alphatype>
								<file id="file-182"/>
								<filter>
									<effect>
										<name>Basic Motion</name>
										<effectid>basic</effectid>
										<effectcategory>motion</effectcategory>
										<effecttype>motion</effecttype>
										<mediatype>video</mediatype>
										<pproBypass>false</pproBypass>
										<parameter authoringApp="PremierePro">
											<parameterid>scale</parameterid>
											<name>Scale</name>
											<valuemin>0</valuemin>
											<valuemax>1000</valuemax>
											<value>133</value>
										</parameter>
										<parameter authoringApp="PremierePro">
											<parameterid>rotation</parameterid>
											<name>Rotation</name>
											<valuemin>-8640</valuemin>
											<valuemax>8640</valuemax>
											<value>0</value>
										</parameter>
										<parameter authoringApp="PremierePro">
											<parameterid>center</parameterid>
											<name>Center</name>
											<value>
												<horiz>0</horiz>
												<vert>0</vert>
											</value>
										</parameter>
										<parameter authoringApp="PremierePro">
											<parameterid>centerOffset</parameterid>
											<name>Anchor Point</name>
											<value>
												<horiz>0</horiz>
												<vert>0</vert>
											</value>
										</parameter>
										<parameter authoringApp="PremierePro">
											<parameterid>antiflicker</parameterid>
											<name>Anti-flicker Filter</name>
											<valuemin>0.0</valuemin>
											<valuemax>1.0</valuemax>
											<value>0</value>
										</parameter>
									</effect>
								</filter>
								<logginginfo>
									<description></description>
									<scene></scene>
									<shottake></shottake>
									<lognote>https://www.youtube.com/watch?v=inZ9KZPq1mQ</lognote>
									<good></good>
									<originalvideofilename></originalvideofilename>
									<originalaudiofilename></originalaudiofilename>
								</logginginfo>
								<colorinfo>
									<lut></lut>
									<lut1></lut1>
									<asc_sop></asc_sop>
									<asc_sat></asc_sat>
									<lut2></lut2>
								</colorinfo>
								<labels>
									<label2>Iris</label2>
								</labels>
							</clipitem>
							<clipitem id="clipitem-1135">
								<masterclipid>masterclip-195</masterclipid>
								<name>(Loci)_The North (Arctic life in Lapland &amp; Lofoten) - LÓCI_inZ9KZPq1mQ_YT.mp4</name>
								<enabled>TRUE</enabled>
								<duration>7749</duration>
								<rate>
									<timebase>30</timebase>
									<ntsc>TRUE</ntsc>
								</rate>
								<start>21075</start>
								<end>21157</end>
								<in>2042</in>
								<out>2124</out>
								<pproTicksIn>17307312422400</pproTicksIn>
								<pproTicksOut>18002317132800</pproTicksOut>
								<alphatype>none</alphatype>
								<file id="file-182"/>
								<filter>
									<effect>
										<name>Basic Motion</name>
										<effectid>basic</effectid>
										<effectcategory>motion</effectcategory>
										<effecttype>motion</effecttype>
										<mediatype>video</mediatype>
										<pproBypass>false</pproBypass>
										<parameter authoringApp="PremierePro">
											<parameterid>scale</parameterid>
											<name>Scale</name>
											<valuemin>0</valuemin>
											<valuemax>1000</valuemax>
											<value>133</value>
										</parameter>
										<parameter authoringApp="PremierePro">
											<parameterid>rotation</parameterid>
											<name>Rotation</name>
											<valuemin>-8640</valuemin>
											<valuemax>8640</valuemax>
											<value>0</value>
										</parameter>
										<parameter authoringApp="PremierePro">
											<parameterid>center</parameterid>
											<name>Center</name>
											<value>
												<horiz>0</horiz>
												<vert>0</vert>
											</value>
										</parameter>
										<parameter authoringApp="PremierePro">
											<parameterid>centerOffset</parameterid>
											<name>Anchor Point</name>
											<value>
												<horiz>0</horiz>
												<vert>0</vert>
											</value>
										</parameter>
										<parameter authoringApp="PremierePro">
											<parameterid>antiflicker</parameterid>
											<name>Anti-flicker Filter</name>
											<valuemin>0.0</valuemin>
											<valuemax>1.0</valuemax>
											<value>0</value>
										</parameter>
									</effect>
								</filter>
								<logginginfo>
									<description></description>
									<scene></scene>
									<shottake></shottake>
									<lognote>https://www.youtube.com/watch?v=inZ9KZPq1mQ</lognote>
									<good></good>
									<originalvideofilename></originalvideofilename>
									<originalaudiofilename></originalaudiofilename>
								</logginginfo>
								<colorinfo>
									<lut></lut>
									<lut1></lut1>
									<asc_sop></asc_sop>
									<asc_sat></asc_sat>
									<lut2></lut2>
								</colorinfo>
								<labels>
									<label2>Iris</label2>
								</labels>
							</clipitem>
							<clipitem id="clipitem-1136">
								<masterclipid>masterclip-195</masterclipid>
								<name>(Loci)_The North (Arctic life in Lapland &amp; Lofoten) - LÓCI_inZ9KZPq1mQ_YT.mp4</name>
								<enabled>TRUE</enabled>
								<duration>7749</duration>
								<rate>
									<timebase>30</timebase>
									<ntsc>TRUE</ntsc>
								</rate>
								<start>21157</start>
								<end>21258</end>
								<in>2124</in>
								<out>2225</out>
								<pproTicksIn>18002317132800</pproTicksIn>
								<pproTicksOut>18858359520000</pproTicksOut>
								<alphatype>none</alphatype>
								<file id="file-182"/>
								<filter>
									<effect>
										<name>Basic Motion</name>
										<effectid>basic</effectid>
										<effectcategory>motion</effectcategory>
										<effecttype>motion</effecttype>
										<mediatype>video</mediatype>
										<pproBypass>false</pproBypass>
										<parameter authoringApp="PremierePro">
											<parameterid>scale</parameterid>
											<name>Scale</name>
											<valuemin>0</valuemin>
											<valuemax>1000</valuemax>
											<value>133</value>
										</parameter>
										<parameter authoringApp="PremierePro">
											<parameterid>rotation</parameterid>
											<name>Rotation</name>
											<valuemin>-8640</valuemin>
											<valuemax>8640</valuemax>
											<value>0</value>
										</parameter>
										<parameter authoringApp="PremierePro">
											<parameterid>center</parameterid>
											<name>Center</name>
											<value>
												<horiz>0</horiz>
												<vert>0</vert>
											</value>
										</parameter>
										<parameter authoringApp="PremierePro">
											<parameterid>centerOffset</parameterid>
											<name>Anchor Point</name>
											<value>
												<horiz>0</horiz>
												<vert>0</vert>
											</value>
										</parameter>
										<parameter authoringApp="PremierePro">
											<parameterid>antiflicker</parameterid>
											<name>Anti-flicker Filter</name>
											<valuemin>0.0</valuemin>
											<valuemax>1.0</valuemax>
											<value>0</value>
										</parameter>
									</effect>
								</filter>
								<logginginfo>
									<description></description>
									<scene></scene>
									<shottake></shottake>
									<lognote>https://www.youtube.com/watch?v=inZ9KZPq1mQ</lognote>
									<good></good>
									<originalvideofilename></originalvideofilename>
									<originalaudiofilename></originalaudiofilename>
								</logginginfo>
								<colorinfo>
									<lut></lut>
									<lut1></lut1>
									<asc_sop></asc_sop>
									<asc_sat></asc_sat>
									<lut2></lut2>
								</colorinfo>
								<labels>
									<label2>Iris</label2>
								</labels>
							</clipitem>
							<clipitem id="clipitem-1137">
								<masterclipid>masterclip-195</masterclipid>
								<name>(Loci)_The North (Arctic life in Lapland &amp; Lofoten) - LÓCI_inZ9KZPq1mQ_YT.mp4</name>
								<enabled>TRUE</enabled>
								<duration>7749</duration>
								<rate>
									<timebase>30</timebase>
									<ntsc>TRUE</ntsc>
								</rate>
								<start>21258</start>
								<end>21364</end>
								<in>2362</in>
								<out>2468</out>
								<pproTicksIn>20019525926400</pproTicksIn>
								<pproTicksOut>20917946649600</pproTicksOut>
								<alphatype>none</alphatype>
								<file id="file-182"/>
								<filter>
									<effect>
										<name>Basic Motion</name>
										<effectid>basic</effectid>
										<effectcategory>motion</effectcategory>
										<effecttype>motion</effecttype>
										<mediatype>video</mediatype>
										<pproBypass>false</pproBypass>
										<parameter authoringApp="PremierePro">
											<parameterid>scale</parameterid>
											<name>Scale</name>
											<valuemin>0</valuemin>
											<valuemax>1000</valuemax>
											<value>133</value>
										</parameter>
										<parameter authoringApp="PremierePro">
											<parameterid>rotation</parameterid>
											<name>Rotation</name>
											<valuemin>-8640</valuemin>
											<valuemax>8640</valuemax>
											<value>0</value>
										</parameter>
										<parameter authoringApp="PremierePro">
											<parameterid>center</parameterid>
											<name>Center</name>
											<value>
												<horiz>0</horiz>
												<vert>0</vert>
											</value>
										</parameter>
										<parameter authoringApp="PremierePro">
											<parameterid>centerOffset</parameterid>
											<name>Anchor Point</name>
											<value>
												<horiz>0</horiz>
												<vert>0</vert>
											</value>
										</parameter>
										<parameter authoringApp="PremierePro">
											<parameterid>antiflicker</parameterid>
											<name>Anti-flicker Filter</name>
											<valuemin>0.0</valuemin>
											<valuemax>1.0</valuemax>
											<value>0</value>
										</parameter>
									</effect>
								</filter>
								<logginginfo>
									<description></description>
									<scene></scene>
									<shottake></shottake>
									<lognote>https://www.youtube.com/watch?v=inZ9KZPq1mQ</lognote>
									<good></good>
									<originalvideofilename></originalvideofilename>
									<originalaudiofilename></originalaudiofilename>
								</logginginfo>
								<colorinfo>
									<lut></lut>
									<lut1></lut1>
									<asc_sop></asc_sop>
									<asc_sat></asc_sat>
									<lut2></lut2>
								</colorinfo>
								<labels>
									<label2>Iris</label2>
								</labels>
							</clipitem>
							<clipitem id="clipitem-1138">
								<masterclipid>masterclip-195</masterclipid>
								<name>(Loci)_The North (Arctic life in Lapland &amp; Lofoten) - LÓCI_inZ9KZPq1mQ_YT.mp4</name>
								<enabled>TRUE</enabled>
								<duration>7749</duration>
								<rate>
									<timebase>30</timebase>
									<ntsc>TRUE</ntsc>
								</rate>
								<start>21364</start>
								<end>21446</end>
								<in>2678</in>
								<out>2760</out>
								<pproTicksIn>22697836761600</pproTicksIn>
								<pproTicksOut>23392841472000</pproTicksOut>
								<alphatype>none</alphatype>
								<file id="file-182"/>
								<filter>
									<effect>
										<name>Basic Motion</name>
										<effectid>basic</effectid>
										<effectcategory>motion</effectcategory>
										<effecttype>motion</effecttype>
										<mediatype>video</mediatype>
										<pproBypass>false</pproBypass>
										<parameter authoringApp="PremierePro">
											<parameterid>scale</parameterid>
											<name>Scale</name>
											<valuemin>0</valuemin>
											<valuemax>1000</valuemax>
											<value>133</value>
										</parameter>
										<parameter authoringApp="PremierePro">
											<parameterid>rotation</parameterid>
											<name>Rotation</name>
											<valuemin>-8640</valuemin>
											<valuemax>8640</valuemax>
											<value>0</value>
										</parameter>
										<parameter authoringApp="PremierePro">
											<parameterid>center</parameterid>
											<name>Center</name>
											<value>
												<horiz>0</horiz>
												<vert>0</vert>
											</value>
										</parameter>
										<parameter authoringApp="PremierePro">
											<parameterid>centerOffset</parameterid>
											<name>Anchor Point</name>
											<value>
												<horiz>0</horiz>
												<vert>0</vert>
											</value>
										</parameter>
										<parameter authoringApp="PremierePro">
											<parameterid>antiflicker</parameterid>
											<name>Anti-flicker Filter</name>
											<valuemin>0.0</valuemin>
											<valuemax>1.0</valuemax>
											<value>0</value>
										</parameter>
									</effect>
								</filter>
								<logginginfo>
									<description></description>
									<scene></scene>
									<shottake></shottake>
									<lognote>https://www.youtube.com/watch?v=inZ9KZPq1mQ</lognote>
									<good></good>
									<originalvideofilename></originalvideofilename>
									<originalaudiofilename></originalaudiofilename>
								</logginginfo>
								<colorinfo>
									<lut></lut>
									<lut1></lut1>
									<asc_sop></asc_sop>
									<asc_sat></asc_sat>
									<lut2></lut2>
								</colorinfo>
								<labels>
									<label2>Iris</label2>
								</labels>
							</clipitem>
							<clipitem id="clipitem-1139">
								<masterclipid>masterclip-195</masterclipid>
								<name>(Loci)_The North (Arctic life in Lapland &amp; Lofoten) - LÓCI_inZ9KZPq1mQ_YT.mp4</name>
								<enabled>TRUE</enabled>
								<duration>7749</duration>
								<rate>
									<timebase>30</timebase>
									<ntsc>TRUE</ntsc>
								</rate>
								<start>21446</start>
								<end>21528</end>
								<in>2760</in>
								<out>2842</out>
								<pproTicksIn>23392841472000</pproTicksIn>
								<pproTicksOut>24087846182400</pproTicksOut>
								<alphatype>none</alphatype>
								<file id="file-182"/>
								<filter>
									<effect>
										<name>Basic Motion</name>
										<effectid>basic</effectid>
										<effectcategory>motion</effectcategory>
										<effecttype>motion</effecttype>
										<mediatype>video</mediatype>
										<pproBypass>false</pproBypass>
										<parameter authoringApp="PremierePro">
											<parameterid>scale</parameterid>
											<name>Scale</name>
											<valuemin>0</valuemin>
											<valuemax>1000</valuemax>
											<value>133</value>
										</parameter>
										<parameter authoringApp="PremierePro">
											<parameterid>rotation</parameterid>
											<name>Rotation</name>
											<valuemin>-8640</valuemin>
											<valuemax>8640</valuemax>
											<value>0</value>
										</parameter>
										<parameter authoringApp="PremierePro">
											<parameterid>center</parameterid>
											<name>Center</name>
											<value>
												<horiz>0</horiz>
												<vert>0</vert>
											</value>
										</parameter>
										<parameter authoringApp="PremierePro">
											<parameterid>centerOffset</parameterid>
											<name>Anchor Point</name>
											<value>
												<horiz>0</horiz>
												<vert>0</vert>
											</value>
										</parameter>
										<parameter authoringApp="PremierePro">
											<parameterid>antiflicker</parameterid>
											<name>Anti-flicker Filter</name>
											<valuemin>0.0</valuemin>
											<valuemax>1.0</valuemax>
											<value>0</value>
										</parameter>
									</effect>
								</filter>
								<logginginfo>
									<description></description>
									<scene></scene>
									<shottake></shottake>
									<lognote>https://www.youtube.com/watch?v=inZ9KZPq1mQ</lognote>
									<good></good>
									<originalvideofilename></originalvideofilename>
									<originalaudiofilename></originalaudiofilename>
								</logginginfo>
								<colorinfo>
									<lut></lut>
									<lut1></lut1>
									<asc_sop></asc_sop>
									<asc_sat></asc_sat>
									<lut2></lut2>
								</colorinfo>
								<labels>
									<label2>Iris</label2>
								</labels>
							</clipitem>
							<clipitem id="clipitem-1140">
								<masterclipid>masterclip-195</masterclipid>
								<name>(Loci)_The North (Arctic life in Lapland &amp; Lofoten) - LÓCI_inZ9KZPq1mQ_YT.mp4</name>
								<enabled>TRUE</enabled>
								<duration>7749</duration>
								<rate>
									<timebase>30</timebase>
									<ntsc>TRUE</ntsc>
								</rate>
								<start>21528</start>
								<end>21589</end>
								<in>3330</in>
								<out>3391</out>
								<pproTicksIn>28223971776000</pproTicksIn>
								<pproTicksOut>28740987475200</pproTicksOut>
								<alphatype>none</alphatype>
								<file id="file-182"/>
								<filter>
									<effect>
										<name>Basic Motion</name>
										<effectid>basic</effectid>
										<effectcategory>motion</effectcategory>
										<effecttype>motion</effecttype>
										<mediatype>video</mediatype>
										<pproBypass>false</pproBypass>
										<parameter authoringApp="PremierePro">
											<parameterid>scale</parameterid>
											<name>Scale</name>
											<valuemin>0</valuemin>
											<valuemax>1000</valuemax>
											<value>133</value>
										</parameter>
										<parameter authoringApp="PremierePro">
											<parameterid>rotation</parameterid>
											<name>Rotation</name>
											<valuemin>-8640</valuemin>
											<valuemax>8640</valuemax>
											<value>0</value>
										</parameter>
										<parameter authoringApp="PremierePro">
											<parameterid>center</parameterid>
											<name>Center</name>
											<value>
												<horiz>0</horiz>
												<vert>0</vert>
											</value>
										</parameter>
										<parameter authoringApp="PremierePro">
											<parameterid>centerOffset</parameterid>
											<name>Anchor Point</name>
											<value>
												<horiz>0</horiz>
												<vert>0</vert>
											</value>
										</parameter>
										<parameter authoringApp="PremierePro">
											<parameterid>antiflicker</parameterid>
											<name>Anti-flicker Filter</name>
											<valuemin>0.0</valuemin>
											<valuemax>1.0</valuemax>
											<value>0</value>
										</parameter>
									</effect>
								</filter>
								<logginginfo>
									<description></description>
									<scene></scene>
									<shottake></shottake>
									<lognote>https://www.youtube.com/watch?v=inZ9KZPq1mQ</lognote>
									<good></good>
									<originalvideofilename></originalvideofilename>
									<originalaudiofilename></originalaudiofilename>
								</logginginfo>
								<colorinfo>
									<lut></lut>
									<lut1></lut1>
									<asc_sop></asc_sop>
									<asc_sat></asc_sat>
									<lut2></lut2>
								</colorinfo>
								<labels>
									<label2>Iris</label2>
								</labels>
							</clipitem>
							<clipitem id="clipitem-1141">
								<masterclipid>masterclip-195</masterclipid>
								<name>(Loci)_The North (Arctic life in Lapland &amp; Lofoten) - LÓCI_inZ9KZPq1mQ_YT.mp4</name>
								<enabled>TRUE</enabled>
								<duration>7749</duration>
								<rate>
									<timebase>30</timebase>
									<ntsc>TRUE</ntsc>
								</rate>
								<start>21589</start>
								<end>21654</end>
								<in>3580</in>
								<out>3645</out>
								<pproTicksIn>30342888576000</pproTicksIn>
								<pproTicksOut>30893806944000</pproTicksOut>
								<alphatype>none</alphatype>
								<file id="file-182"/>
								<filter>
									<effect>
										<name>Basic Motion</name>
										<effectid>basic</effectid>
										<effectcategory>motion</effectcategory>
										<effecttype>motion</effecttype>
										<mediatype>video</mediatype>
										<pproBypass>false</pproBypass>
										<parameter authoringApp="PremierePro">
											<parameterid>scale</parameterid>
											<name>Scale</name>
											<valuemin>0</valuemin>
											<valuemax>1000</valuemax>
											<value>133</value>
										</parameter>
										<parameter authoringApp="PremierePro">
											<parameterid>rotation</parameterid>
											<name>Rotation</name>
											<valuemin>-8640</valuemin>
											<valuemax>8640</valuemax>
											<value>0</value>
										</parameter>
										<parameter authoringApp="PremierePro">
											<parameterid>center</parameterid>
											<name>Center</name>
											<value>
												<horiz>0</horiz>
												<vert>0</vert>
											</value>
										</parameter>
										<parameter authoringApp="PremierePro">
											<parameterid>centerOffset</parameterid>
											<name>Anchor Point</name>
											<value>
												<horiz>0</horiz>
												<vert>0</vert>
											</value>
										</parameter>
										<parameter authoringApp="PremierePro">
											<parameterid>antiflicker</parameterid>
											<name>Anti-flicker Filter</name>
											<valuemin>0.0</valuemin>
											<valuemax>1.0</valuemax>
											<value>0</value>
										</parameter>
									</effect>
								</filter>
								<logginginfo>
									<description></description>
									<scene></scene>
									<shottake></shottake>
									<lognote>https://www.youtube.com/watch?v=inZ9KZPq1mQ</lognote>
									<good></good>
									<originalvideofilename></originalvideofilename>
									<originalaudiofilename></originalaudiofilename>
								</logginginfo>
								<colorinfo>
									<lut></lut>
									<lut1></lut1>
									<asc_sop></asc_sop>
									<asc_sat></asc_sat>
									<lut2></lut2>
								</colorinfo>
								<labels>
									<label2>Iris</label2>
								</labels>
							</clipitem>
							<clipitem id="clipitem-1142">
								<masterclipid>masterclip-195</masterclipid>
								<name>(Loci)_The North (Arctic life in Lapland &amp; Lofoten) - LÓCI_inZ9KZPq1mQ_YT.mp4</name>
								<enabled>TRUE</enabled>
								<duration>7749</duration>
								<rate>
									<timebase>30</timebase>
									<ntsc>TRUE</ntsc>
								</rate>
								<start>21654</start>
								<end>21716</end>
								<in>3692</in>
								<out>3754</out>
								<pproTicksIn>31292163302400</pproTicksIn>
								<pproTicksOut>31817654668800</pproTicksOut>
								<alphatype>none</alphatype>
								<file id="file-182"/>
								<filter>
									<effect>
										<name>Basic Motion</name>
										<effectid>basic</effectid>
										<effectcategory>motion</effectcategory>
										<effecttype>motion</effecttype>
										<mediatype>video</mediatype>
										<pproBypass>false</pproBypass>
										<parameter authoringApp="PremierePro">
											<parameterid>scale</parameterid>
											<name>Scale</name>
											<valuemin>0</valuemin>
											<valuemax>1000</valuemax>
											<value>133</value>
										</parameter>
										<parameter authoringApp="PremierePro">
											<parameterid>rotation</parameterid>
											<name>Rotation</name>
											<valuemin>-8640</valuemin>
											<valuemax>8640</valuemax>
											<value>0</value>
										</parameter>
										<parameter authoringApp="PremierePro">
											<parameterid>center</parameterid>
											<name>Center</name>
											<value>
												<horiz>0</horiz>
												<vert>0</vert>
											</value>
										</parameter>
										<parameter authoringApp="PremierePro">
											<parameterid>centerOffset</parameterid>
											<name>Anchor Point</name>
											<value>
												<horiz>0</horiz>
												<vert>0</vert>
											</value>
										</parameter>
										<parameter authoringApp="PremierePro">
											<parameterid>antiflicker</parameterid>
											<name>Anti-flicker Filter</name>
											<valuemin>0.0</valuemin>
											<valuemax>1.0</valuemax>
											<value>0</value>
										</parameter>
									</effect>
								</filter>
								<logginginfo>
									<description></description>
									<scene></scene>
									<shottake></shottake>
									<lognote>https://www.youtube.com/watch?v=inZ9KZPq1mQ</lognote>
									<good></good>
									<originalvideofilename></originalvideofilename>
									<originalaudiofilename></originalaudiofilename>
								</logginginfo>
								<colorinfo>
									<lut></lut>
									<lut1></lut1>
									<asc_sop></asc_sop>
									<asc_sat></asc_sat>
									<lut2></lut2>
								</colorinfo>
								<labels>
									<label2>Iris</label2>
								</labels>
							</clipitem>
							<clipitem id="clipitem-1143">
								<masterclipid>masterclip-195</masterclipid>
								<name>(Loci)_The North (Arctic life in Lapland &amp; Lofoten) - LÓCI_inZ9KZPq1mQ_YT.mp4</name>
								<enabled>TRUE</enabled>
								<duration>7749</duration>
								<rate>
									<timebase>30</timebase>
									<ntsc>TRUE</ntsc>
								</rate>
								<start>21716</start>
								<end>21779</end>
								<in>3754</in>
								<out>3817</out>
								<pproTicksIn>31817654668800</pproTicksIn>
								<pproTicksOut>32351621702400</pproTicksOut>
								<alphatype>none</alphatype>
								<file id="file-182"/>
								<filter>
									<effect>
										<name>Basic Motion</name>
										<effectid>basic</effectid>
										<effectcategory>motion</effectcategory>
										<effecttype>motion</effecttype>
										<mediatype>video</mediatype>
										<pproBypass>false</pproBypass>
										<parameter authoringApp="PremierePro">
											<parameterid>scale</parameterid>
											<name>Scale</name>
											<valuemin>0</valuemin>
											<valuemax>1000</valuemax>
											<value>133</value>
										</parameter>
										<parameter authoringApp="PremierePro">
											<parameterid>rotation</parameterid>
											<name>Rotation</name>
											<valuemin>-8640</valuemin>
											<valuemax>8640</valuemax>
											<value>0</value>
										</parameter>
										<parameter authoringApp="PremierePro">
											<parameterid>center</parameterid>
											<name>Center</name>
											<value>
												<horiz>0</horiz>
												<vert>0</vert>
											</value>
										</parameter>
										<parameter authoringApp="PremierePro">
											<parameterid>centerOffset</parameterid>
											<name>Anchor Point</name>
											<value>
												<horiz>0</horiz>
												<vert>0</vert>
											</value>
										</parameter>
										<parameter authoringApp="PremierePro">
											<parameterid>antiflicker</parameterid>
											<name>Anti-flicker Filter</name>
											<valuemin>0.0</valuemin>
											<valuemax>1.0</valuemax>
											<value>0</value>
										</parameter>
									</effect>
								</filter>
								<logginginfo>
									<description></description>
									<scene></scene>
									<shottake></shottake>
									<lognote>https://www.youtube.com/watch?v=inZ9KZPq1mQ</lognote>
									<good></good>
									<originalvideofilename></originalvideofilename>
									<originalaudiofilename></originalaudiofilename>
								</logginginfo>
								<colorinfo>
									<lut></lut>
									<lut1></lut1>
									<asc_sop></asc_sop>
									<asc_sat></asc_sat>
									<lut2></lut2>
								</colorinfo>
								<labels>
									<label2>Iris</label2>
								</labels>
							</clipitem>
							<clipitem id="clipitem-1144">
								<masterclipid>masterclip-195</masterclipid>
								<name>(Loci)_The North (Arctic life in Lapland &amp; Lofoten) - LÓCI_inZ9KZPq1mQ_YT.mp4</name>
								<enabled>TRUE</enabled>
								<duration>7749</duration>
								<rate>
									<timebase>30</timebase>
									<ntsc>TRUE</ntsc>
								</rate>
								<start>21779</start>
								<end>21818</end>
								<in>3859</in>
								<out>3898</out>
								<pproTicksIn>32707599724800</pproTicksIn>
								<pproTicksOut>33038150745600</pproTicksOut>
								<alphatype>none</alphatype>
								<file id="file-182"/>
								<filter>
									<effect>
										<name>Basic Motion</name>
										<effectid>basic</effectid>
										<effectcategory>motion</effectcategory>
										<effecttype>motion</effecttype>
										<mediatype>video</mediatype>
										<pproBypass>false</pproBypass>
										<parameter authoringApp="PremierePro">
											<parameterid>scale</parameterid>
											<name>Scale</name>
											<valuemin>0</valuemin>
											<valuemax>1000</valuemax>
											<value>133</value>
										</parameter>
										<parameter authoringApp="PremierePro">
											<parameterid>rotation</parameterid>
											<name>Rotation</name>
											<valuemin>-8640</valuemin>
											<valuemax>8640</valuemax>
											<value>0</value>
										</parameter>
										<parameter authoringApp="PremierePro">
											<parameterid>center</parameterid>
											<name>Center</name>
											<value>
												<horiz>0</horiz>
												<vert>0</vert>
											</value>
										</parameter>
										<parameter authoringApp="PremierePro">
											<parameterid>centerOffset</parameterid>
											<name>Anchor Point</name>
											<value>
												<horiz>0</horiz>
												<vert>0</vert>
											</value>
										</parameter>
										<parameter authoringApp="PremierePro">
											<parameterid>antiflicker</parameterid>
											<name>Anti-flicker Filter</name>
											<valuemin>0.0</valuemin>
											<valuemax>1.0</valuemax>
											<value>0</value>
										</parameter>
									</effect>
								</filter>
								<logginginfo>
									<description></description>
									<scene></scene>
									<shottake></shottake>
									<lognote>https://www.youtube.com/watch?v=inZ9KZPq1mQ</lognote>
									<good></good>
									<originalvideofilename></originalvideofilename>
									<originalaudiofilename></originalaudiofilename>
								</logginginfo>
								<colorinfo>
									<lut></lut>
									<lut1></lut1>
									<asc_sop></asc_sop>
									<asc_sat></asc_sat>
									<lut2></lut2>
								</colorinfo>
								<labels>
									<label2>Iris</label2>
								</labels>
							</clipitem>
							<clipitem id="clipitem-1145">
								<masterclipid>masterclip-195</masterclipid>
								<name>(Loci)_The North (Arctic life in Lapland &amp; Lofoten) - LÓCI_inZ9KZPq1mQ_YT.mp4</name>
								<enabled>TRUE</enabled>
								<duration>7749</duration>
								<rate>
									<timebase>30</timebase>
									<ntsc>TRUE</ntsc>
								</rate>
								<start>21818</start>
								<end>21897</end>
								<in>3898</in>
								<out>3977</out>
								<pproTicksIn>33038150745600</pproTicksIn>
								<pproTicksOut>33707728454400</pproTicksOut>
								<alphatype>none</alphatype>
								<file id="file-182"/>
								<filter>
									<effect>
										<name>Basic Motion</name>
										<effectid>basic</effectid>
										<effectcategory>motion</effectcategory>
										<effecttype>motion</effecttype>
										<mediatype>video</mediatype>
										<pproBypass>false</pproBypass>
										<parameter authoringApp="PremierePro">
											<parameterid>scale</parameterid>
											<name>Scale</name>
											<valuemin>0</valuemin>
											<valuemax>1000</valuemax>
											<value>133</value>
										</parameter>
										<parameter authoringApp="PremierePro">
											<parameterid>rotation</parameterid>
											<name>Rotation</name>
											<valuemin>-8640</valuemin>
											<valuemax>8640</valuemax>
											<value>0</value>
										</parameter>
										<parameter authoringApp="PremierePro">
											<parameterid>center</parameterid>
											<name>Center</name>
											<value>
												<horiz>0</horiz>
												<vert>0</vert>
											</value>
										</parameter>
										<parameter authoringApp="PremierePro">
											<parameterid>centerOffset</parameterid>
											<name>Anchor Point</name>
											<value>
												<horiz>0</horiz>
												<vert>0</vert>
											</value>
										</parameter>
										<parameter authoringApp="PremierePro">
											<parameterid>antiflicker</parameterid>
											<name>Anti-flicker Filter</name>
											<valuemin>0.0</valuemin>
											<valuemax>1.0</valuemax>
											<value>0</value>
										</parameter>
									</effect>
								</filter>
								<logginginfo>
									<description></description>
									<scene></scene>
									<shottake></shottake>
									<lognote>https://www.youtube.com/watch?v=inZ9KZPq1mQ</lognote>
									<good></good>
									<originalvideofilename></originalvideofilename>
									<originalaudiofilename></originalaudiofilename>
								</logginginfo>
								<colorinfo>
									<lut></lut>
									<lut1></lut1>
									<asc_sop></asc_sop>
									<asc_sat></asc_sat>
									<lut2></lut2>
								</colorinfo>
								<labels>
									<label2>Iris</label2>
								</labels>
							</clipitem>
							<clipitem id="clipitem-1146">
								<masterclipid>masterclip-195</masterclipid>
								<name>(Loci)_The North (Arctic life in Lapland &amp; Lofoten) - LÓCI_inZ9KZPq1mQ_YT.mp4</name>
								<enabled>TRUE</enabled>
								<duration>7749</duration>
								<rate>
									<timebase>30</timebase>
									<ntsc>TRUE</ntsc>
								</rate>
								<start>21897</start>
								<end>21981</end>
								<in>3977</in>
								<out>4061</out>
								<pproTicksIn>33707728454400</pproTicksIn>
								<pproTicksOut>34419684499200</pproTicksOut>
								<alphatype>none</alphatype>
								<file id="file-182"/>
								<filter>
									<effect>
										<name>Basic Motion</name>
										<effectid>basic</effectid>
										<effectcategory>motion</effectcategory>
										<effecttype>motion</effecttype>
										<mediatype>video</mediatype>
										<pproBypass>false</pproBypass>
										<parameter authoringApp="PremierePro">
											<parameterid>scale</parameterid>
											<name>Scale</name>
											<valuemin>0</valuemin>
											<valuemax>1000</valuemax>
											<value>133</value>
										</parameter>
										<parameter authoringApp="PremierePro">
											<parameterid>rotation</parameterid>
											<name>Rotation</name>
											<valuemin>-8640</valuemin>
											<valuemax>8640</valuemax>
											<value>0</value>
										</parameter>
										<parameter authoringApp="PremierePro">
											<parameterid>center</parameterid>
											<name>Center</name>
											<value>
												<horiz>0</horiz>
												<vert>0</vert>
											</value>
										</parameter>
										<parameter authoringApp="PremierePro">
											<parameterid>centerOffset</parameterid>
											<name>Anchor Point</name>
											<value>
												<horiz>0</horiz>
												<vert>0</vert>
											</value>
										</parameter>
										<parameter authoringApp="PremierePro">
											<parameterid>antiflicker</parameterid>
											<name>Anti-flicker Filter</name>
											<valuemin>0.0</valuemin>
											<valuemax>1.0</valuemax>
											<value>0</value>
										</parameter>
									</effect>
								</filter>
								<logginginfo>
									<description></description>
									<scene></scene>
									<shottake></shottake>
									<lognote>https://www.youtube.com/watch?v=inZ9KZPq1mQ</lognote>
									<good></good>
									<originalvideofilename></originalvideofilename>
									<originalaudiofilename></originalaudiofilename>
								</logginginfo>
								<colorinfo>
									<lut></lut>
									<lut1></lut1>
									<asc_sop></asc_sop>
									<asc_sat></asc_sat>
									<lut2></lut2>
								</colorinfo>
								<labels>
									<label2>Iris</label2>
								</labels>
							</clipitem>
							<clipitem id="clipitem-1147">
								<masterclipid>masterclip-195</masterclipid>
								<name>(Loci)_The North (Arctic life in Lapland &amp; Lofoten) - LÓCI_inZ9KZPq1mQ_YT.mp4</name>
								<enabled>TRUE</enabled>
								<duration>7749</duration>
								<rate>
									<timebase>30</timebase>
									<ntsc>TRUE</ntsc>
								</rate>
								<start>21981</start>
								<end>22033</end>
								<in>4138</in>
								<out>4190</out>
								<pproTicksIn>35072310873600</pproTicksIn>
								<pproTicksOut>35513045568000</pproTicksOut>
								<alphatype>none</alphatype>
								<file id="file-182"/>
								<filter>
									<effect>
										<name>Basic Motion</name>
										<effectid>basic</effectid>
										<effectcategory>motion</effectcategory>
										<effecttype>motion</effecttype>
										<mediatype>video</mediatype>
										<pproBypass>false</pproBypass>
										<parameter authoringApp="PremierePro">
											<parameterid>scale</parameterid>
											<name>Scale</name>
											<valuemin>0</valuemin>
											<valuemax>1000</valuemax>
											<value>133</value>
										</parameter>
										<parameter authoringApp="PremierePro">
											<parameterid>rotation</parameterid>
											<name>Rotation</name>
											<valuemin>-8640</valuemin>
											<valuemax>8640</valuemax>
											<value>0</value>
										</parameter>
										<parameter authoringApp="PremierePro">
											<parameterid>center</parameterid>
											<name>Center</name>
											<value>
												<horiz>0</horiz>
												<vert>0</vert>
											</value>
										</parameter>
										<parameter authoringApp="PremierePro">
											<parameterid>centerOffset</parameterid>
											<name>Anchor Point</name>
											<value>
												<horiz>0</horiz>
												<vert>0</vert>
											</value>
										</parameter>
										<parameter authoringApp="PremierePro">
											<parameterid>antiflicker</parameterid>
											<name>Anti-flicker Filter</name>
											<valuemin>0.0</valuemin>
											<valuemax>1.0</valuemax>
											<value>0</value>
										</parameter>
									</effect>
								</filter>
								<logginginfo>
									<description></description>
									<scene></scene>
									<shottake></shottake>
									<lognote>https://www.youtube.com/watch?v=inZ9KZPq1mQ</lognote>
									<good></good>
									<originalvideofilename></originalvideofilename>
									<originalaudiofilename></originalaudiofilename>
								</logginginfo>
								<colorinfo>
									<lut></lut>
									<lut1></lut1>
									<asc_sop></asc_sop>
									<asc_sat></asc_sat>
									<lut2></lut2>
								</colorinfo>
								<labels>
									<label2>Iris</label2>
								</labels>
							</clipitem>
							<clipitem id="clipitem-1148">
								<masterclipid>masterclip-195</masterclipid>
								<name>(Loci)_The North (Arctic life in Lapland &amp; Lofoten) - LÓCI_inZ9KZPq1mQ_YT.mp4</name>
								<enabled>TRUE</enabled>
								<duration>7749</duration>
								<rate>
									<timebase>30</timebase>
									<ntsc>TRUE</ntsc>
								</rate>
								<start>22033</start>
								<end>22094</end>
								<in>4322</in>
								<out>4383</out>
								<pproTicksIn>36631833638400</pproTicksIn>
								<pproTicksOut>37148849337600</pproTicksOut>
								<alphatype>none</alphatype>
								<file id="file-182"/>
								<filter>
									<effect>
										<name>Basic Motion</name>
										<effectid>basic</effectid>
										<effectcategory>motion</effectcategory>
										<effecttype>motion</effecttype>
										<mediatype>video</mediatype>
										<pproBypass>false</pproBypass>
										<parameter authoringApp="PremierePro">
											<parameterid>scale</parameterid>
											<name>Scale</name>
											<valuemin>0</valuemin>
											<valuemax>1000</valuemax>
											<value>133</value>
										</parameter>
										<parameter authoringApp="PremierePro">
											<parameterid>rotation</parameterid>
											<name>Rotation</name>
											<valuemin>-8640</valuemin>
											<valuemax>8640</valuemax>
											<value>0</value>
										</parameter>
										<parameter authoringApp="PremierePro">
											<parameterid>center</parameterid>
											<name>Center</name>
											<value>
												<horiz>0</horiz>
												<vert>0</vert>
											</value>
										</parameter>
										<parameter authoringApp="PremierePro">
											<parameterid>centerOffset</parameterid>
											<name>Anchor Point</name>
											<value>
												<horiz>0</horiz>
												<vert>0</vert>
											</value>
										</parameter>
										<parameter authoringApp="PremierePro">
											<parameterid>antiflicker</parameterid>
											<name>Anti-flicker Filter</name>
											<valuemin>0.0</valuemin>
											<valuemax>1.0</valuemax>
											<value>0</value>
										</parameter>
									</effect>
								</filter>
								<logginginfo>
									<description></description>
									<scene></scene>
									<shottake></shottake>
									<lognote>https://www.youtube.com/watch?v=inZ9KZPq1mQ</lognote>
									<good></good>
									<originalvideofilename></originalvideofilename>
									<originalaudiofilename></originalaudiofilename>
								</logginginfo>
								<colorinfo>
									<lut></lut>
									<lut1></lut1>
									<asc_sop></asc_sop>
									<asc_sat></asc_sat>
									<lut2></lut2>
								</colorinfo>
								<labels>
									<label2>Iris</label2>
								</labels>
							</clipitem>
							<clipitem id="clipitem-1149">
								<masterclipid>masterclip-195</masterclipid>
								<name>(Loci)_The North (Arctic life in Lapland &amp; Lofoten) - LÓCI_inZ9KZPq1mQ_YT.mp4</name>
								<enabled>TRUE</enabled>
								<duration>7749</duration>
								<rate>
									<timebase>30</timebase>
									<ntsc>TRUE</ntsc>
								</rate>
								<start>22094</start>
								<end>22142</end>
								<in>4546</in>
								<out>4594</out>
								<pproTicksIn>38530383091200</pproTicksIn>
								<pproTicksOut>38937215116800</pproTicksOut>
								<alphatype>none</alphatype>
								<file id="file-182"/>
								<filter>
									<effect>
										<name>Basic Motion</name>
										<effectid>basic</effectid>
										<effectcategory>motion</effectcategory>
										<effecttype>motion</effecttype>
										<mediatype>video</mediatype>
										<pproBypass>false</pproBypass>
										<parameter authoringApp="PremierePro">
											<parameterid>scale</parameterid>
											<name>Scale</name>
											<valuemin>0</valuemin>
											<valuemax>1000</valuemax>
											<value>133</value>
										</parameter>
										<parameter authoringApp="PremierePro">
											<parameterid>rotation</parameterid>
											<name>Rotation</name>
											<valuemin>-8640</valuemin>
											<valuemax>8640</valuemax>
											<value>0</value>
										</parameter>
										<parameter authoringApp="PremierePro">
											<parameterid>center</parameterid>
											<name>Center</name>
											<value>
												<horiz>0</horiz>
												<vert>0</vert>
											</value>
										</parameter>
										<parameter authoringApp="PremierePro">
											<parameterid>centerOffset</parameterid>
											<name>Anchor Point</name>
											<value>
												<horiz>0</horiz>
												<vert>0</vert>
											</value>
										</parameter>
										<parameter authoringApp="PremierePro">
											<parameterid>antiflicker</parameterid>
											<name>Anti-flicker Filter</name>
											<valuemin>0.0</valuemin>
											<valuemax>1.0</valuemax>
											<value>0</value>
										</parameter>
									</effect>
								</filter>
								<logginginfo>
									<description></description>
									<scene></scene>
									<shottake></shottake>
									<lognote>https://www.youtube.com/watch?v=inZ9KZPq1mQ</lognote>
									<good></good>
									<originalvideofilename></originalvideofilename>
									<originalaudiofilename></originalaudiofilename>
								</logginginfo>
								<colorinfo>
									<lut></lut>
									<lut1></lut1>
									<asc_sop></asc_sop>
									<asc_sat></asc_sat>
									<lut2></lut2>
								</colorinfo>
								<labels>
									<label2>Iris</label2>
								</labels>
							</clipitem>
							<clipitem id="clipitem-1150">
								<masterclipid>masterclip-195</masterclipid>
								<name>(Loci)_The North (Arctic life in Lapland &amp; Lofoten) - LÓCI_inZ9KZPq1mQ_YT.mp4</name>
								<enabled>TRUE</enabled>
								<duration>7749</duration>
								<rate>
									<timebase>30</timebase>
									<ntsc>TRUE</ntsc>
								</rate>
								<start>22142</start>
								<end>22227</end>
								<in>4594</in>
								<out>4679</out>
								<pproTicksIn>38937215116800</pproTicksIn>
								<pproTicksOut>39657646828800</pproTicksOut>
								<alphatype>none</alphatype>
								<file id="file-182"/>
								<filter>
									<effect>
										<name>Basic Motion</name>
										<effectid>basic</effectid>
										<effectcategory>motion</effectcategory>
										<effecttype>motion</effecttype>
										<mediatype>video</mediatype>
										<pproBypass>false</pproBypass>
										<parameter authoringApp="PremierePro">
											<parameterid>scale</parameterid>
											<name>Scale</name>
											<valuemin>0</valuemin>
											<valuemax>1000</valuemax>
											<value>133</value>
										</parameter>
										<parameter authoringApp="PremierePro">
											<parameterid>rotation</parameterid>
											<name>Rotation</name>
											<valuemin>-8640</valuemin>
											<valuemax>8640</valuemax>
											<value>0</value>
										</parameter>
										<parameter authoringApp="PremierePro">
											<parameterid>center</parameterid>
											<name>Center</name>
											<value>
												<horiz>0</horiz>
												<vert>0</vert>
											</value>
										</parameter>
										<parameter authoringApp="PremierePro">
											<parameterid>centerOffset</parameterid>
											<name>Anchor Point</name>
											<value>
												<horiz>0</horiz>
												<vert>0</vert>
											</value>
										</parameter>
										<parameter authoringApp="PremierePro">
											<parameterid>antiflicker</parameterid>
											<name>Anti-flicker Filter</name>
											<valuemin>0.0</valuemin>
											<valuemax>1.0</valuemax>
											<value>0</value>
										</parameter>
									</effect>
								</filter>
								<logginginfo>
									<description></description>
									<scene></scene>
									<shottake></shottake>
									<lognote>https://www.youtube.com/watch?v=inZ9KZPq1mQ</lognote>
									<good></good>
									<originalvideofilename></originalvideofilename>
									<originalaudiofilename></originalaudiofilename>
								</logginginfo>
								<colorinfo>
									<lut></lut>
									<lut1></lut1>
									<asc_sop></asc_sop>
									<asc_sat></asc_sat>
									<lut2></lut2>
								</colorinfo>
								<labels>
									<label2>Iris</label2>
								</labels>
							</clipitem>
							<clipitem id="clipitem-1151">
								<masterclipid>masterclip-195</masterclipid>
								<name>(Loci)_The North (Arctic life in Lapland &amp; Lofoten) - LÓCI_inZ9KZPq1mQ_YT.mp4</name>
								<enabled>TRUE</enabled>
								<duration>7749</duration>
								<rate>
									<timebase>30</timebase>
									<ntsc>TRUE</ntsc>
								</rate>
								<start>22227</start>
								<end>22278</end>
								<in>4961</in>
								<out>5012</out>
								<pproTicksIn>42047784979200</pproTicksIn>
								<pproTicksOut>42480044006400</pproTicksOut>
								<alphatype>none</alphatype>
								<file id="file-182"/>
								<filter>
									<effect>
										<name>Basic Motion</name>
										<effectid>basic</effectid>
										<effectcategory>motion</effectcategory>
										<effecttype>motion</effecttype>
										<mediatype>video</mediatype>
										<pproBypass>false</pproBypass>
										<parameter authoringApp="PremierePro">
											<parameterid>scale</parameterid>
											<name>Scale</name>
											<valuemin>0</valuemin>
											<valuemax>1000</valuemax>
											<value>133</value>
										</parameter>
										<parameter authoringApp="PremierePro">
											<parameterid>rotation</parameterid>
											<name>Rotation</name>
											<valuemin>-8640</valuemin>
											<valuemax>8640</valuemax>
											<value>0</value>
										</parameter>
										<parameter authoringApp="PremierePro">
											<parameterid>center</parameterid>
											<name>Center</name>
											<value>
												<horiz>0</horiz>
												<vert>0</vert>
											</value>
										</parameter>
										<parameter authoringApp="PremierePro">
											<parameterid>centerOffset</parameterid>
											<name>Anchor Point</name>
											<value>
												<horiz>0</horiz>
												<vert>0</vert>
											</value>
										</parameter>
										<parameter authoringApp="PremierePro">
											<parameterid>antiflicker</parameterid>
											<name>Anti-flicker Filter</name>
											<valuemin>0.0</valuemin>
											<valuemax>1.0</valuemax>
											<value>0</value>
										</parameter>
									</effect>
								</filter>
								<logginginfo>
									<description></description>
									<scene></scene>
									<shottake></shottake>
									<lognote>https://www.youtube.com/watch?v=inZ9KZPq1mQ</lognote>
									<good></good>
									<originalvideofilename></originalvideofilename>
									<originalaudiofilename></originalaudiofilename>
								</logginginfo>
								<colorinfo>
									<lut></lut>
									<lut1></lut1>
									<asc_sop></asc_sop>
									<asc_sat></asc_sat>
									<lut2></lut2>
								</colorinfo>
								<labels>
									<label2>Iris</label2>
								</labels>
							</clipitem>
							<clipitem id="clipitem-1152">
								<masterclipid>masterclip-195</masterclipid>
								<name>(Loci)_The North (Arctic life in Lapland &amp; Lofoten) - LÓCI_inZ9KZPq1mQ_YT.mp4</name>
								<enabled>TRUE</enabled>
								<duration>7749</duration>
								<rate>
									<timebase>30</timebase>
									<ntsc>TRUE</ntsc>
								</rate>
								<start>22278</start>
								<end>22366</end>
								<in>5012</in>
								<out>5100</out>
								<pproTicksIn>42480044006400</pproTicksIn>
								<pproTicksOut>43225902720000</pproTicksOut>
								<alphatype>none</alphatype>
								<file id="file-182"/>
								<filter>
									<effect>
										<name>Basic Motion</name>
										<effectid>basic</effectid>
										<effectcategory>motion</effectcategory>
										<effecttype>motion</effecttype>
										<mediatype>video</mediatype>
										<pproBypass>false</pproBypass>
										<parameter authoringApp="PremierePro">
											<parameterid>scale</parameterid>
											<name>Scale</name>
											<valuemin>0</valuemin>
											<valuemax>1000</valuemax>
											<value>133</value>
										</parameter>
										<parameter authoringApp="PremierePro">
											<parameterid>rotation</parameterid>
											<name>Rotation</name>
											<valuemin>-8640</valuemin>
											<valuemax>8640</valuemax>
											<value>0</value>
										</parameter>
										<parameter authoringApp="PremierePro">
											<parameterid>center</parameterid>
											<name>Center</name>
											<value>
												<horiz>0</horiz>
												<vert>0</vert>
											</value>
										</parameter>
										<parameter authoringApp="PremierePro">
											<parameterid>centerOffset</parameterid>
											<name>Anchor Point</name>
											<value>
												<horiz>0</horiz>
												<vert>0</vert>
											</value>
										</parameter>
										<parameter authoringApp="PremierePro">
											<parameterid>antiflicker</parameterid>
											<name>Anti-flicker Filter</name>
											<valuemin>0.0</valuemin>
											<valuemax>1.0</valuemax>
											<value>0</value>
										</parameter>
									</effect>
								</filter>
								<logginginfo>
									<description></description>
									<scene></scene>
									<shottake></shottake>
									<lognote>https://www.youtube.com/watch?v=inZ9KZPq1mQ</lognote>
									<good></good>
									<originalvideofilename></originalvideofilename>
									<originalaudiofilename></originalaudiofilename>
								</logginginfo>
								<colorinfo>
									<lut></lut>
									<lut1></lut1>
									<asc_sop></asc_sop>
									<asc_sat></asc_sat>
									<lut2></lut2>
								</colorinfo>
								<labels>
									<label2>Iris</label2>
								</labels>
							</clipitem>
							<clipitem id="clipitem-1153">
								<masterclipid>masterclip-195</masterclipid>
								<name>(Loci)_The North (Arctic life in Lapland &amp; Lofoten) - LÓCI_inZ9KZPq1mQ_YT.mp4</name>
								<enabled>TRUE</enabled>
								<duration>7749</duration>
								<rate>
									<timebase>30</timebase>
									<ntsc>TRUE</ntsc>
								</rate>
								<start>22366</start>
								<end>22501</end>
								<in>5143</in>
								<out>5278</out>
								<pproTicksIn>43590356409600</pproTicksIn>
								<pproTicksOut>44734571481600</pproTicksOut>
								<alphatype>none</alphatype>
								<file id="file-182"/>
								<filter>
									<effect>
										<name>Basic Motion</name>
										<effectid>basic</effectid>
										<effectcategory>motion</effectcategory>
										<effecttype>motion</effecttype>
										<mediatype>video</mediatype>
										<pproBypass>false</pproBypass>
										<parameter authoringApp="PremierePro">
											<parameterid>scale</parameterid>
											<name>Scale</name>
											<valuemin>0</valuemin>
											<valuemax>1000</valuemax>
											<value>133</value>
										</parameter>
										<parameter authoringApp="PremierePro">
											<parameterid>rotation</parameterid>
											<name>Rotation</name>
											<valuemin>-8640</valuemin>
											<valuemax>8640</valuemax>
											<value>0</value>
										</parameter>
										<parameter authoringApp="PremierePro">
											<parameterid>center</parameterid>
											<name>Center</name>
											<value>
												<horiz>0</horiz>
												<vert>0</vert>
											</value>
										</parameter>
										<parameter authoringApp="PremierePro">
											<parameterid>centerOffset</parameterid>
											<name>Anchor Point</name>
											<value>
												<horiz>0</horiz>
												<vert>0</vert>
											</value>
										</parameter>
										<parameter authoringApp="PremierePro">
											<parameterid>antiflicker</parameterid>
											<name>Anti-flicker Filter</name>
											<valuemin>0.0</valuemin>
											<valuemax>1.0</valuemax>
											<value>0</value>
										</parameter>
									</effect>
								</filter>
								<logginginfo>
									<description></description>
									<scene></scene>
									<shottake></shottake>
									<lognote>https://www.youtube.com/watch?v=inZ9KZPq1mQ</lognote>
									<good></good>
									<originalvideofilename></originalvideofilename>
									<originalaudiofilename></originalaudiofilename>
								</logginginfo>
								<colorinfo>
									<lut></lut>
									<lut1></lut1>
									<asc_sop></asc_sop>
									<asc_sat></asc_sat>
									<lut2></lut2>
								</colorinfo>
								<labels>
									<label2>Iris</label2>
								</labels>
							</clipitem>
							<clipitem id="clipitem-1154">
								<masterclipid>masterclip-195</masterclipid>
								<name>(Loci)_The North (Arctic life in Lapland &amp; Lofoten) - LÓCI_inZ9KZPq1mQ_YT.mp4</name>
								<enabled>TRUE</enabled>
								<duration>7749</duration>
								<rate>
									<timebase>30</timebase>
									<ntsc>TRUE</ntsc>
								</rate>
								<start>22501</start>
								<end>22594</end>
								<in>5278</in>
								<out>5371</out>
								<pproTicksIn>44734571481600</pproTicksIn>
								<pproTicksOut>45522808531200</pproTicksOut>
								<alphatype>none</alphatype>
								<file id="file-182"/>
								<filter>
									<effect>
										<name>Basic Motion</name>
										<effectid>basic</effectid>
										<effectcategory>motion</effectcategory>
										<effecttype>motion</effecttype>
										<mediatype>video</mediatype>
										<pproBypass>false</pproBypass>
										<parameter authoringApp="PremierePro">
											<parameterid>scale</parameterid>
											<name>Scale</name>
											<valuemin>0</valuemin>
											<valuemax>1000</valuemax>
											<value>133</value>
										</parameter>
										<parameter authoringApp="PremierePro">
											<parameterid>rotation</parameterid>
											<name>Rotation</name>
											<valuemin>-8640</valuemin>
											<valuemax>8640</valuemax>
											<value>0</value>
										</parameter>
										<parameter authoringApp="PremierePro">
											<parameterid>center</parameterid>
											<name>Center</name>
											<value>
												<horiz>0</horiz>
												<vert>0</vert>
											</value>
										</parameter>
										<parameter authoringApp="PremierePro">
											<parameterid>centerOffset</parameterid>
											<name>Anchor Point</name>
											<value>
												<horiz>0</horiz>
												<vert>0</vert>
											</value>
										</parameter>
										<parameter authoringApp="PremierePro">
											<parameterid>antiflicker</parameterid>
											<name>Anti-flicker Filter</name>
											<valuemin>0.0</valuemin>
											<valuemax>1.0</valuemax>
											<value>0</value>
										</parameter>
									</effect>
								</filter>
								<logginginfo>
									<description></description>
									<scene></scene>
									<shottake></shottake>
									<lognote>https://www.youtube.com/watch?v=inZ9KZPq1mQ</lognote>
									<good></good>
									<originalvideofilename></originalvideofilename>
									<originalaudiofilename></originalaudiofilename>
								</logginginfo>
								<colorinfo>
									<lut></lut>
									<lut1></lut1>
									<asc_sop></asc_sop>
									<asc_sat></asc_sat>
									<lut2></lut2>
								</colorinfo>
								<labels>
									<label2>Iris</label2>
								</labels>
							</clipitem>
							<clipitem id="clipitem-1155">
								<masterclipid>masterclip-195</masterclipid>
								<name>(Loci)_The North (Arctic life in Lapland &amp; Lofoten) - LÓCI_inZ9KZPq1mQ_YT.mp4</name>
								<enabled>TRUE</enabled>
								<duration>7749</duration>
								<rate>
									<timebase>30</timebase>
									<ntsc>TRUE</ntsc>
								</rate>
								<start>22594</start>
								<end>22662</end>
								<in>5371</in>
								<out>5439</out>
								<pproTicksIn>45522808531200</pproTicksIn>
								<pproTicksOut>46099153900800</pproTicksOut>
								<alphatype>none</alphatype>
								<file id="file-182"/>
								<filter>
									<effect>
										<name>Basic Motion</name>
										<effectid>basic</effectid>
										<effectcategory>motion</effectcategory>
										<effecttype>motion</effecttype>
										<mediatype>video</mediatype>
										<pproBypass>false</pproBypass>
										<parameter authoringApp="PremierePro">
											<parameterid>scale</parameterid>
											<name>Scale</name>
											<valuemin>0</valuemin>
											<valuemax>1000</valuemax>
											<value>133</value>
										</parameter>
										<parameter authoringApp="PremierePro">
											<parameterid>rotation</parameterid>
											<name>Rotation</name>
											<valuemin>-8640</valuemin>
											<valuemax>8640</valuemax>
											<value>0</value>
										</parameter>
										<parameter authoringApp="PremierePro">
											<parameterid>center</parameterid>
											<name>Center</name>
											<value>
												<horiz>0</horiz>
												<vert>0</vert>
											</value>
										</parameter>
										<parameter authoringApp="PremierePro">
											<parameterid>centerOffset</parameterid>
											<name>Anchor Point</name>
											<value>
												<horiz>0</horiz>
												<vert>0</vert>
											</value>
										</parameter>
										<parameter authoringApp="PremierePro">
											<parameterid>antiflicker</parameterid>
											<name>Anti-flicker Filter</name>
											<valuemin>0.0</valuemin>
											<valuemax>1.0</valuemax>
											<value>0</value>
										</parameter>
									</effect>
								</filter>
								<logginginfo>
									<description></description>
									<scene></scene>
									<shottake></shottake>
									<lognote>https://www.youtube.com/watch?v=inZ9KZPq1mQ</lognote>
									<good></good>
									<originalvideofilename></originalvideofilename>
									<originalaudiofilename></originalaudiofilename>
								</logginginfo>
								<colorinfo>
									<lut></lut>
									<lut1></lut1>
									<asc_sop></asc_sop>
									<asc_sat></asc_sat>
									<lut2></lut2>
								</colorinfo>
								<labels>
									<label2>Iris</label2>
								</labels>
							</clipitem>
							<clipitem id="clipitem-1156">
								<masterclipid>masterclip-195</masterclipid>
								<name>(Loci)_The North (Arctic life in Lapland &amp; Lofoten) - LÓCI_inZ9KZPq1mQ_YT.mp4</name>
								<enabled>TRUE</enabled>
								<duration>7749</duration>
								<rate>
									<timebase>30</timebase>
									<ntsc>TRUE</ntsc>
								</rate>
								<start>22662</start>
								<end>22712</end>
								<in>5598</in>
								<out>5648</out>
								<pproTicksIn>47446784985600</pproTicksIn>
								<pproTicksOut>47870568345600</pproTicksOut>
								<alphatype>none</alphatype>
								<file id="file-182"/>
								<filter>
									<effect>
										<name>Basic Motion</name>
										<effectid>basic</effectid>
										<effectcategory>motion</effectcategory>
										<effecttype>motion</effecttype>
										<mediatype>video</mediatype>
										<pproBypass>false</pproBypass>
										<parameter authoringApp="PremierePro">
											<parameterid>scale</parameterid>
											<name>Scale</name>
											<valuemin>0</valuemin>
											<valuemax>1000</valuemax>
											<value>133</value>
										</parameter>
										<parameter authoringApp="PremierePro">
											<parameterid>rotation</parameterid>
											<name>Rotation</name>
											<valuemin>-8640</valuemin>
											<valuemax>8640</valuemax>
											<value>0</value>
										</parameter>
										<parameter authoringApp="PremierePro">
											<parameterid>center</parameterid>
											<name>Center</name>
											<value>
												<horiz>0</horiz>
												<vert>0</vert>
											</value>
										</parameter>
										<parameter authoringApp="PremierePro">
											<parameterid>centerOffset</parameterid>
											<name>Anchor Point</name>
											<value>
												<horiz>0</horiz>
												<vert>0</vert>
											</value>
										</parameter>
										<parameter authoringApp="PremierePro">
											<parameterid>antiflicker</parameterid>
											<name>Anti-flicker Filter</name>
											<valuemin>0.0</valuemin>
											<valuemax>1.0</valuemax>
											<value>0</value>
										</parameter>
									</effect>
								</filter>
								<logginginfo>
									<description></description>
									<scene></scene>
									<shottake></shottake>
									<lognote>https://www.youtube.com/watch?v=inZ9KZPq1mQ</lognote>
									<good></good>
									<originalvideofilename></originalvideofilename>
									<originalaudiofilename></originalaudiofilename>
								</logginginfo>
								<colorinfo>
									<lut></lut>
									<lut1></lut1>
									<asc_sop></asc_sop>
									<asc_sat></asc_sat>
									<lut2></lut2>
								</colorinfo>
								<labels>
									<label2>Iris</label2>
								</labels>
							</clipitem>
							<clipitem id="clipitem-1157">
								<masterclipid>masterclip-195</masterclipid>
								<name>(Loci)_The North (Arctic life in Lapland &amp; Lofoten) - LÓCI_inZ9KZPq1mQ_YT.mp4</name>
								<enabled>TRUE</enabled>
								<duration>7749</duration>
								<rate>
									<timebase>30</timebase>
									<ntsc>TRUE</ntsc>
								</rate>
								<start>22712</start>
								<end>22798</end>
								<in>5762</in>
								<out>5848</out>
								<pproTicksIn>48836794406400</pproTicksIn>
								<pproTicksOut>49565701785600</pproTicksOut>
								<alphatype>none</alphatype>
								<file id="file-182"/>
								<filter>
									<effect>
										<name>Basic Motion</name>
										<effectid>basic</effectid>
										<effectcategory>motion</effectcategory>
										<effecttype>motion</effecttype>
										<mediatype>video</mediatype>
										<pproBypass>false</pproBypass>
										<parameter authoringApp="PremierePro">
											<parameterid>scale</parameterid>
											<name>Scale</name>
											<valuemin>0</valuemin>
											<valuemax>1000</valuemax>
											<value>133</value>
										</parameter>
										<parameter authoringApp="PremierePro">
											<parameterid>rotation</parameterid>
											<name>Rotation</name>
											<valuemin>-8640</valuemin>
											<valuemax>8640</valuemax>
											<value>0</value>
										</parameter>
										<parameter authoringApp="PremierePro">
											<parameterid>center</parameterid>
											<name>Center</name>
											<value>
												<horiz>0</horiz>
												<vert>0</vert>
											</value>
										</parameter>
										<parameter authoringApp="PremierePro">
											<parameterid>centerOffset</parameterid>
											<name>Anchor Point</name>
											<value>
												<horiz>0</horiz>
												<vert>0</vert>
											</value>
										</parameter>
										<parameter authoringApp="PremierePro">
											<parameterid>antiflicker</parameterid>
											<name>Anti-flicker Filter</name>
											<valuemin>0.0</valuemin>
											<valuemax>1.0</valuemax>
											<value>0</value>
										</parameter>
									</effect>
								</filter>
								<logginginfo>
									<description></description>
									<scene></scene>
									<shottake></shottake>
									<lognote>https://www.youtube.com/watch?v=inZ9KZPq1mQ</lognote>
									<good></good>
									<originalvideofilename></originalvideofilename>
									<originalaudiofilename></originalaudiofilename>
								</logginginfo>
								<colorinfo>
									<lut></lut>
									<lut1></lut1>
									<asc_sop></asc_sop>
									<asc_sat></asc_sat>
									<lut2></lut2>
								</colorinfo>
								<labels>
									<label2>Iris</label2>
								</labels>
							</clipitem>
							<clipitem id="clipitem-1158">
								<masterclipid>masterclip-195</masterclipid>
								<name>(Loci)_The North (Arctic life in Lapland &amp; Lofoten) - LÓCI_inZ9KZPq1mQ_YT.mp4</name>
								<enabled>TRUE</enabled>
								<duration>7749</duration>
								<rate>
									<timebase>30</timebase>
									<ntsc>TRUE</ntsc>
								</rate>
								<start>22798</start>
								<end>23063</end>
								<in>6030</in>
								<out>6295</out>
								<pproTicksIn>51108273216000</pproTicksIn>
								<pproTicksOut>53354325024000</pproTicksOut>
								<alphatype>none</alphatype>
								<file id="file-182"/>
								<filter>
									<effect>
										<name>Basic Motion</name>
										<effectid>basic</effectid>
										<effectcategory>motion</effectcategory>
										<effecttype>motion</effecttype>
										<mediatype>video</mediatype>
										<pproBypass>false</pproBypass>
										<parameter authoringApp="PremierePro">
											<parameterid>scale</parameterid>
											<name>Scale</name>
											<valuemin>0</valuemin>
											<valuemax>1000</valuemax>
											<value>133</value>
										</parameter>
										<parameter authoringApp="PremierePro">
											<parameterid>rotation</parameterid>
											<name>Rotation</name>
											<valuemin>-8640</valuemin>
											<valuemax>8640</valuemax>
											<value>0</value>
										</parameter>
										<parameter authoringApp="PremierePro">
											<parameterid>center</parameterid>
											<name>Center</name>
											<value>
												<horiz>0</horiz>
												<vert>0</vert>
											</value>
										</parameter>
										<parameter authoringApp="PremierePro">
											<parameterid>centerOffset</parameterid>
											<name>Anchor Point</name>
											<value>
												<horiz>0</horiz>
												<vert>0</vert>
											</value>
										</parameter>
										<parameter authoringApp="PremierePro">
											<parameterid>antiflicker</parameterid>
											<name>Anti-flicker Filter</name>
											<valuemin>0.0</valuemin>
											<valuemax>1.0</valuemax>
											<value>0</value>
										</parameter>
									</effect>
								</filter>
								<logginginfo>
									<description></description>
									<scene></scene>
									<shottake></shottake>
									<lognote>https://www.youtube.com/watch?v=inZ9KZPq1mQ</lognote>
									<good></good>
									<originalvideofilename></originalvideofilename>
									<originalaudiofilename></originalaudiofilename>
								</logginginfo>
								<colorinfo>
									<lut></lut>
									<lut1></lut1>
									<asc_sop></asc_sop>
									<asc_sat></asc_sat>
									<lut2></lut2>
								</colorinfo>
								<labels>
									<label2>Iris</label2>
								</labels>
							</clipitem>
							<clipitem id="clipitem-1159">
								<masterclipid>masterclip-195</masterclipid>
								<name>(Loci)_The North (Arctic life in Lapland &amp; Lofoten) - LÓCI_inZ9KZPq1mQ_YT.mp4</name>
								<enabled>TRUE</enabled>
								<duration>7749</duration>
								<rate>
									<timebase>30</timebase>
									<ntsc>TRUE</ntsc>
								</rate>
								<start>23063</start>
								<end>23180</end>
								<in>6413</in>
								<out>6530</out>
								<pproTicksIn>54354453753600</pproTicksIn>
								<pproTicksOut>55346106816000</pproTicksOut>
								<alphatype>none</alphatype>
								<file id="file-182"/>
								<filter>
									<effect>
										<name>Basic Motion</name>
										<effectid>basic</effectid>
										<effectcategory>motion</effectcategory>
										<effecttype>motion</effecttype>
										<mediatype>video</mediatype>
										<pproBypass>false</pproBypass>
										<parameter authoringApp="PremierePro">
											<parameterid>scale</parameterid>
											<name>Scale</name>
											<valuemin>0</valuemin>
											<valuemax>1000</valuemax>
											<value>133</value>
										</parameter>
										<parameter authoringApp="PremierePro">
											<parameterid>rotation</parameterid>
											<name>Rotation</name>
											<valuemin>-8640</valuemin>
											<valuemax>8640</valuemax>
											<value>0</value>
										</parameter>
										<parameter authoringApp="PremierePro">
											<parameterid>center</parameterid>
											<name>Center</name>
											<value>
												<horiz>0</horiz>
												<vert>0</vert>
											</value>
										</parameter>
										<parameter authoringApp="PremierePro">
											<parameterid>centerOffset</parameterid>
											<name>Anchor Point</name>
											<value>
												<horiz>0</horiz>
												<vert>0</vert>
											</value>
										</parameter>
										<parameter authoringApp="PremierePro">
											<parameterid>antiflicker</parameterid>
											<name>Anti-flicker Filter</name>
											<valuemin>0.0</valuemin>
											<valuemax>1.0</valuemax>
											<value>0</value>
										</parameter>
									</effect>
								</filter>
								<logginginfo>
									<description></description>
									<scene></scene>
									<shottake></shottake>
									<lognote>https://www.youtube.com/watch?v=inZ9KZPq1mQ</lognote>
									<good></good>
									<originalvideofilename></originalvideofilename>
									<originalaudiofilename></originalaudiofilename>
								</logginginfo>
								<colorinfo>
									<lut></lut>
									<lut1></lut1>
									<asc_sop></asc_sop>
									<asc_sat></asc_sat>
									<lut2></lut2>
								</colorinfo>
								<labels>
									<label2>Iris</label2>
								</labels>
							</clipitem>
							<clipitem id="clipitem-1160">
								<masterclipid>masterclip-195</masterclipid>
								<name>(Loci)_The North (Arctic life in Lapland &amp; Lofoten) - LÓCI_inZ9KZPq1mQ_YT.mp4</name>
								<enabled>TRUE</enabled>
								<duration>7749</duration>
								<rate>
									<timebase>30</timebase>
									<ntsc>TRUE</ntsc>
								</rate>
								<start>23180</start>
								<end>23484</end>
								<in>6530</in>
								<out>6834</out>
								<pproTicksIn>55346106816000</pproTicksIn>
								<pproTicksOut>57922709644800</pproTicksOut>
								<alphatype>none</alphatype>
								<file id="file-182"/>
								<filter>
									<effect>
										<name>Basic Motion</name>
										<effectid>basic</effectid>
										<effectcategory>motion</effectcategory>
										<effecttype>motion</effecttype>
										<mediatype>video</mediatype>
										<pproBypass>false</pproBypass>
										<parameter authoringApp="PremierePro">
											<parameterid>scale</parameterid>
											<name>Scale</name>
											<valuemin>0</valuemin>
											<valuemax>1000</valuemax>
											<value>133</value>
										</parameter>
										<parameter authoringApp="PremierePro">
											<parameterid>rotation</parameterid>
											<name>Rotation</name>
											<valuemin>-8640</valuemin>
											<valuemax>8640</valuemax>
											<value>0</value>
										</parameter>
										<parameter authoringApp="PremierePro">
											<parameterid>center</parameterid>
											<name>Center</name>
											<value>
												<horiz>0</horiz>
												<vert>0</vert>
											</value>
										</parameter>
										<parameter authoringApp="PremierePro">
											<parameterid>centerOffset</parameterid>
											<name>Anchor Point</name>
											<value>
												<horiz>0</horiz>
												<vert>0</vert>
											</value>
										</parameter>
										<parameter authoringApp="PremierePro">
											<parameterid>antiflicker</parameterid>
											<name>Anti-flicker Filter</name>
											<valuemin>0.0</valuemin>
											<valuemax>1.0</valuemax>
											<value>0</value>
										</parameter>
									</effect>
								</filter>
								<logginginfo>
									<description></description>
									<scene></scene>
									<shottake></shottake>
									<lognote>https://www.youtube.com/watch?v=inZ9KZPq1mQ</lognote>
									<good></good>
									<originalvideofilename></originalvideofilename>
									<originalaudiofilename></originalaudiofilename>
								</logginginfo>
								<colorinfo>
									<lut></lut>
									<lut1></lut1>
									<asc_sop></asc_sop>
									<asc_sat></asc_sat>
									<lut2></lut2>
								</colorinfo>
								<labels>
									<label2>Iris</label2>
								</labels>
							</clipitem>
							<clipitem id="clipitem-1161">
								<masterclipid>masterclip-195</masterclipid>
								<name>(Loci)_The North (Arctic life in Lapland &amp; Lofoten) - LÓCI_inZ9KZPq1mQ_YT.mp4</name>
								<enabled>TRUE</enabled>
								<duration>7749</duration>
								<rate>
									<timebase>30</timebase>
									<ntsc>TRUE</ntsc>
								</rate>
								<start>23484</start>
								<end>23551</end>
								<in>6996</in>
								<out>7063</out>
								<pproTicksIn>59295767731200</pproTicksIn>
								<pproTicksOut>59863637433600</pproTicksOut>
								<alphatype>none</alphatype>
								<file id="file-182"/>
								<filter>
									<effect>
										<name>Basic Motion</name>
										<effectid>basic</effectid>
										<effectcategory>motion</effectcategory>
										<effecttype>motion</effecttype>
										<mediatype>video</mediatype>
										<pproBypass>false</pproBypass>
										<parameter authoringApp="PremierePro">
											<parameterid>scale</parameterid>
											<name>Scale</name>
											<valuemin>0</valuemin>
											<valuemax>1000</valuemax>
											<value>133</value>
										</parameter>
										<parameter authoringApp="PremierePro">
											<parameterid>rotation</parameterid>
											<name>Rotation</name>
											<valuemin>-8640</valuemin>
											<valuemax>8640</valuemax>
											<value>0</value>
										</parameter>
										<parameter authoringApp="PremierePro">
											<parameterid>center</parameterid>
											<name>Center</name>
											<value>
												<horiz>0</horiz>
												<vert>0</vert>
											</value>
										</parameter>
										<parameter authoringApp="PremierePro">
											<parameterid>centerOffset</parameterid>
											<name>Anchor Point</name>
											<value>
												<horiz>0</horiz>
												<vert>0</vert>
											</value>
										</parameter>
										<parameter authoringApp="PremierePro">
											<parameterid>antiflicker</parameterid>
											<name>Anti-flicker Filter</name>
											<valuemin>0.0</valuemin>
											<valuemax>1.0</valuemax>
											<value>0</value>
										</parameter>
									</effect>
								</filter>
								<logginginfo>
									<description></description>
									<scene></scene>
									<shottake></shottake>
									<lognote>https://www.youtube.com/watch?v=inZ9KZPq1mQ</lognote>
									<good></good>
									<originalvideofilename></originalvideofilename>
									<originalaudiofilename></originalaudiofilename>
								</logginginfo>
								<colorinfo>
									<lut></lut>
									<lut1></lut1>
									<asc_sop></asc_sop>
									<asc_sat></asc_sat>
									<lut2></lut2>
								</colorinfo>
								<labels>
									<label2>Iris</label2>
								</labels>
							</clipitem>
							<clipitem id="clipitem-1162">
								<masterclipid>masterclip-195</masterclipid>
								<name>(Loci)_The North (Arctic life in Lapland &amp; Lofoten) - LÓCI_inZ9KZPq1mQ_YT.mp4</name>
								<enabled>TRUE</enabled>
								<duration>7749</duration>
								<rate>
									<timebase>30</timebase>
									<ntsc>TRUE</ntsc>
								</rate>
								<start>23551</start>
								<end>23635</end>
								<in>7063</in>
								<out>7147</out>
								<pproTicksIn>59863637433600</pproTicksIn>
								<pproTicksOut>60575593478400</pproTicksOut>
								<alphatype>none</alphatype>
								<file id="file-182"/>
								<filter>
									<effect>
										<name>Basic Motion</name>
										<effectid>basic</effectid>
										<effectcategory>motion</effectcategory>
										<effecttype>motion</effecttype>
										<mediatype>video</mediatype>
										<pproBypass>false</pproBypass>
										<parameter authoringApp="PremierePro">
											<parameterid>scale</parameterid>
											<name>Scale</name>
											<valuemin>0</valuemin>
											<valuemax>1000</valuemax>
											<value>133</value>
										</parameter>
										<parameter authoringApp="PremierePro">
											<parameterid>rotation</parameterid>
											<name>Rotation</name>
											<valuemin>-8640</valuemin>
											<valuemax>8640</valuemax>
											<value>0</value>
										</parameter>
										<parameter authoringApp="PremierePro">
											<parameterid>center</parameterid>
											<name>Center</name>
											<value>
												<horiz>0</horiz>
												<vert>0</vert>
											</value>
										</parameter>
										<parameter authoringApp="PremierePro">
											<parameterid>centerOffset</parameterid>
											<name>Anchor Point</name>
											<value>
												<horiz>0</horiz>
												<vert>0</vert>
											</value>
										</parameter>
										<parameter authoringApp="PremierePro">
											<parameterid>antiflicker</parameterid>
											<name>Anti-flicker Filter</name>
											<valuemin>0.0</valuemin>
											<valuemax>1.0</valuemax>
											<value>0</value>
										</parameter>
									</effect>
								</filter>
								<logginginfo>
									<description></description>
									<scene></scene>
									<shottake></shottake>
									<lognote>https://www.youtube.com/watch?v=inZ9KZPq1mQ</lognote>
									<good></good>
									<originalvideofilename></originalvideofilename>
									<originalaudiofilename></originalaudiofilename>
								</logginginfo>
								<colorinfo>
									<lut></lut>
									<lut1></lut1>
									<asc_sop></asc_sop>
									<asc_sat></asc_sat>
									<lut2></lut2>
								</colorinfo>
								<labels>
									<label2>Iris</label2>
								</labels>
							</clipitem>
							<clipitem id="clipitem-1163">
								<masterclipid>masterclip-195</masterclipid>
								<name>(Loci)_The North (Arctic life in Lapland &amp; Lofoten) - LÓCI_inZ9KZPq1mQ_YT.mp4</name>
								<enabled>TRUE</enabled>
								<duration>7749</duration>
								<rate>
									<timebase>30</timebase>
									<ntsc>TRUE</ntsc>
								</rate>
								<start>23635</start>
								<end>23725</end>
								<in>7147</in>
								<out>7237</out>
								<pproTicksIn>60575593478400</pproTicksIn>
								<pproTicksOut>61338403526400</pproTicksOut>
								<alphatype>none</alphatype>
								<file id="file-182"/>
								<filter>
									<effect>
										<name>Basic Motion</name>
										<effectid>basic</effectid>
										<effectcategory>motion</effectcategory>
										<effecttype>motion</effecttype>
										<mediatype>video</mediatype>
										<pproBypass>false</pproBypass>
										<parameter authoringApp="PremierePro">
											<parameterid>scale</parameterid>
											<name>Scale</name>
											<valuemin>0</valuemin>
											<valuemax>1000</valuemax>
											<value>133</value>
										</parameter>
										<parameter authoringApp="PremierePro">
											<parameterid>rotation</parameterid>
											<name>Rotation</name>
											<valuemin>-8640</valuemin>
											<valuemax>8640</valuemax>
											<value>0</value>
										</parameter>
										<parameter authoringApp="PremierePro">
											<parameterid>center</parameterid>
											<name>Center</name>
											<value>
												<horiz>0</horiz>
												<vert>0</vert>
											</value>
										</parameter>
										<parameter authoringApp="PremierePro">
											<parameterid>centerOffset</parameterid>
											<name>Anchor Point</name>
											<value>
												<horiz>0</horiz>
												<vert>0</vert>
											</value>
										</parameter>
										<parameter authoringApp="PremierePro">
											<parameterid>antiflicker</parameterid>
											<name>Anti-flicker Filter</name>
											<valuemin>0.0</valuemin>
											<valuemax>1.0</valuemax>
											<value>0</value>
										</parameter>
									</effect>
								</filter>
								<logginginfo>
									<description></description>
									<scene></scene>
									<shottake></shottake>
									<lognote>https://www.youtube.com/watch?v=inZ9KZPq1mQ</lognote>
									<good></good>
									<originalvideofilename></originalvideofilename>
									<originalaudiofilename></originalaudiofilename>
								</logginginfo>
								<colorinfo>
									<lut></lut>
									<lut1></lut1>
									<asc_sop></asc_sop>
									<asc_sat></asc_sat>
									<lut2></lut2>
								</colorinfo>
								<labels>
									<label2>Iris</label2>
								</labels>
							</clipitem>
							<clipitem id="clipitem-1164">
								<masterclipid>masterclip-207</masterclipid>
								<name>a-birds-eye-view-from-a-drone-of-sand-dunes-with-traces-of-cars-engaged-in-off-road-SBV-347562051-HD.mp4</name>
								<enabled>TRUE</enabled>
								<duration>509</duration>
								<rate>
									<timebase>30</timebase>
									<ntsc>TRUE</ntsc>
								</rate>
								<start>24300</start>
								<end>24431</end>
								<in>0</in>
								<out>131</out>
								<pproTicksIn>0</pproTicksIn>
								<pproTicksOut>1110312403200</pproTicksOut>
								<alphatype>none</alphatype>
								<file id="file-191"/>
								<logginginfo>
									<description></description>
									<scene></scene>
									<shottake></shottake>
									<lognote></lognote>
									<good></good>
									<originalvideofilename></originalvideofilename>
									<originalaudiofilename></originalaudiofilename>
								</logginginfo>
								<colorinfo>
									<lut></lut>
									<lut1></lut1>
									<asc_sop></asc_sop>
									<asc_sat></asc_sat>
									<lut2></lut2>
								</colorinfo>
								<labels>
									<label2>Violet</label2>
								</labels>
							</clipitem>
							<clipitem id="clipitem-1165">
								<masterclipid>masterclip-208</masterclipid>
								<name>cars-driving-off-road-among-sand-dunes-in-the-desert-drone-view-SBV-347562140-HD.mp4</name>
								<enabled>TRUE</enabled>
								<duration>250</duration>
								<rate>
									<timebase>30</timebase>
									<ntsc>TRUE</ntsc>
								</rate>
								<start>24431</start>
								<end>24663</end>
								<in>0</in>
								<out>232</out>
								<pproTicksIn>0</pproTicksIn>
								<pproTicksOut>1966354790400</pproTicksOut>
								<alphatype>none</alphatype>
								<file id="file-192"/>
								<logginginfo>
									<description></description>
									<scene></scene>
									<shottake></shottake>
									<lognote></lognote>
									<good></good>
									<originalvideofilename></originalvideofilename>
									<originalaudiofilename></originalaudiofilename>
								</logginginfo>
								<colorinfo>
									<lut></lut>
									<lut1></lut1>
									<asc_sop></asc_sop>
									<asc_sat></asc_sat>
									<lut2></lut2>
								</colorinfo>
								<labels>
									<label2>Violet</label2>
								</labels>
							</clipitem>
							<clipitem id="clipitem-1166">
								<masterclipid>masterclip-209</masterclipid>
								<name>the-car-is-driving-off-road-on-the-red-sand-dunes-of-the-desert-with-sparse-vegetat-SBV-347561899-HD.mp4</name>
								<enabled>TRUE</enabled>
								<duration>267</duration>
								<rate>
									<timebase>30</timebase>
									<ntsc>TRUE</ntsc>
								</rate>
								<start>24663</start>
								<end>24722</end>
								<in>0</in>
								<out>59</out>
								<pproTicksIn>0</pproTicksIn>
								<pproTicksOut>500064364800</pproTicksOut>
								<alphatype>none</alphatype>
								<file id="file-193"/>
								<logginginfo>
									<description></description>
									<scene></scene>
									<shottake></shottake>
									<lognote></lognote>
									<good></good>
									<originalvideofilename></originalvideofilename>
									<originalaudiofilename></originalaudiofilename>
								</logginginfo>
								<colorinfo>
									<lut></lut>
									<lut1></lut1>
									<asc_sop></asc_sop>
									<asc_sat></asc_sat>
									<lut2></lut2>
								</colorinfo>
								<labels>
									<label2>Violet</label2>
								</labels>
							</clipitem>
							<clipitem id="clipitem-1167">
								<masterclipid>masterclip-210</masterclipid>
								<name>the-car-drives-off-road-sand-dunes-leaving-footprints-in-the-sand-aerial-view-from--SBV-347562013-HD.mp4</name>
								<enabled>TRUE</enabled>
								<duration>289</duration>
								<rate>
									<timebase>30</timebase>
									<ntsc>TRUE</ntsc>
								</rate>
								<start>24722</start>
								<end>24903</end>
								<in>56</in>
								<out>237</out>
								<pproTicksIn>474637363200</pproTicksIn>
								<pproTicksOut>2008733126400</pproTicksOut>
								<alphatype>none</alphatype>
								<file id="file-194"/>
								<logginginfo>
									<description></description>
									<scene></scene>
									<shottake></shottake>
									<lognote></lognote>
									<good></good>
									<originalvideofilename></originalvideofilename>
									<originalaudiofilename></originalaudiofilename>
								</logginginfo>
								<colorinfo>
									<lut></lut>
									<lut1></lut1>
									<asc_sop></asc_sop>
									<asc_sat></asc_sat>
									<lut2></lut2>
								</colorinfo>
								<labels>
									<label2>Violet</label2>
								</labels>
							</clipitem>
							<clipitem id="clipitem-1168">
								<masterclipid>masterclip-211</masterclipid>
								<name>cars-driving-off-road-among-sand-dunes-in-the-desert-drone-view-SBV-347562252-HD.mp4</name>
								<enabled>TRUE</enabled>
								<duration>410</duration>
								<rate>
									<timebase>30</timebase>
									<ntsc>TRUE</ntsc>
								</rate>
								<start>24903</start>
								<end>25076</end>
								<in>0</in>
								<out>173</out>
								<pproTicksIn>0</pproTicksIn>
								<pproTicksOut>1466290425600</pproTicksOut>
								<alphatype>none</alphatype>
								<file id="file-195"/>
								<logginginfo>
									<description></description>
									<scene></scene>
									<shottake></shottake>
									<lognote></lognote>
									<good></good>
									<originalvideofilename></originalvideofilename>
									<originalaudiofilename></originalaudiofilename>
								</logginginfo>
								<colorinfo>
									<lut></lut>
									<lut1></lut1>
									<asc_sop></asc_sop>
									<asc_sat></asc_sat>
									<lut2></lut2>
								</colorinfo>
								<labels>
									<label2>Violet</label2>
								</labels>
							</clipitem>
							<clipitem id="clipitem-1169">
								<masterclipid>masterclip-212</masterclipid>
								<name>a-birds-eye-view-from-a-drone-of-cars-drifting-among-the-sand-dunes-off-road-drivin-SBV-347562086-HD.mp4</name>
								<enabled>TRUE</enabled>
								<duration>199</duration>
								<rate>
									<timebase>30</timebase>
									<ntsc>TRUE</ntsc>
								</rate>
								<start>25076</start>
								<end>25275</end>
								<in>0</in>
								<out>199</out>
								<pproTicksIn>0</pproTicksIn>
								<pproTicksOut>1686657772800</pproTicksOut>
								<alphatype>none</alphatype>
								<file id="file-196"/>
								<logginginfo>
									<description></description>
									<scene></scene>
									<shottake></shottake>
									<lognote></lognote>
									<good></good>
									<originalvideofilename></originalvideofilename>
									<originalaudiofilename></originalaudiofilename>
								</logginginfo>
								<colorinfo>
									<lut></lut>
									<lut1></lut1>
									<asc_sop></asc_sop>
									<asc_sat></asc_sat>
									<lut2></lut2>
								</colorinfo>
								<labels>
									<label2>Violet</label2>
								</labels>
							</clipitem>
							<clipitem id="clipitem-1170">
								<masterclipid>masterclip-213</masterclipid>
								<name>the-car-goes-off-road-on-the-sand-dunes-of-the-desert-drone-video-SBV-347561829-HD.mp4</name>
								<enabled>TRUE</enabled>
								<duration>445</duration>
								<rate>
									<timebase>30</timebase>
									<ntsc>TRUE</ntsc>
								</rate>
								<start>25275</start>
								<end>25607</end>
								<in>0</in>
								<out>332</out>
								<pproTicksIn>0</pproTicksIn>
								<pproTicksOut>2813921510400</pproTicksOut>
								<alphatype>none</alphatype>
								<file id="file-197"/>
								<logginginfo>
									<description></description>
									<scene></scene>
									<shottake></shottake>
									<lognote></lognote>
									<good></good>
									<originalvideofilename></originalvideofilename>
									<originalaudiofilename></originalaudiofilename>
								</logginginfo>
								<colorinfo>
									<lut></lut>
									<lut1></lut1>
									<asc_sop></asc_sop>
									<asc_sat></asc_sat>
									<lut2></lut2>
								</colorinfo>
								<labels>
									<label2>Violet</label2>
								</labels>
							</clipitem>
							<clipitem id="clipitem-1171">
								<masterclipid>masterclip-214</masterclipid>
								<name>a-birds-eye-view-from-a-drone-of-car-drifting-among-the-sand-dunes-off-road-driving-SBV-347562128-HD.mp4</name>
								<enabled>TRUE</enabled>
								<duration>355</duration>
								<rate>
									<timebase>30</timebase>
									<ntsc>TRUE</ntsc>
								</rate>
								<start>25607</start>
								<end>25844</end>
								<in>0</in>
								<out>237</out>
								<pproTicksIn>0</pproTicksIn>
								<pproTicksOut>2008733126400</pproTicksOut>
								<alphatype>none</alphatype>
								<file id="file-198"/>
								<logginginfo>
									<description></description>
									<scene></scene>
									<shottake></shottake>
									<lognote></lognote>
									<good></good>
									<originalvideofilename></originalvideofilename>
									<originalaudiofilename></originalaudiofilename>
								</logginginfo>
								<colorinfo>
									<lut></lut>
									<lut1></lut1>
									<asc_sop></asc_sop>
									<asc_sat></asc_sat>
									<lut2></lut2>
								</colorinfo>
								<labels>
									<label2>Violet</label2>
								</labels>
							</clipitem>
							<clipitem id="clipitem-1172">
								<masterclipid>masterclip-215</masterclipid>
								<name>cars-driving-off-road-among-sand-dunes-in-the-desert-drone-view-SBV-347562138-HD.mp4</name>
								<enabled>TRUE</enabled>
								<duration>417</duration>
								<rate>
									<timebase>30</timebase>
									<ntsc>TRUE</ntsc>
								</rate>
								<start>25844</start>
								<end>26137</end>
								<in>124</in>
								<out>417</out>
								<pproTicksIn>1050982732800</pproTicksIn>
								<pproTicksOut>3534353222400</pproTicksOut>
								<alphatype>none</alphatype>
								<file id="file-199"/>
								<logginginfo>
									<description></description>
									<scene></scene>
									<shottake></shottake>
									<lognote></lognote>
									<good></good>
									<originalvideofilename></originalvideofilename>
									<originalaudiofilename></originalaudiofilename>
								</logginginfo>
								<colorinfo>
									<lut></lut>
									<lut1></lut1>
									<asc_sop></asc_sop>
									<asc_sat></asc_sat>
									<lut2></lut2>
								</colorinfo>
								<labels>
									<label2>Violet</label2>
								</labels>
							</clipitem>
							<clipitem id="clipitem-1173">
								<masterclipid>masterclip-218</masterclipid>
								<name>cinematic-close-up-hollywood-sign-on-beautiful-green-hills-at-sunny-summer-4k-SBV-347523891-HD.mp4</name>
								<enabled>TRUE</enabled>
								<duration>536</duration>
								<rate>
									<timebase>30</timebase>
									<ntsc>TRUE</ntsc>
								</rate>
								<start>26755</start>
								<end>27184</end>
								<in>0</in>
								<out>429</out>
								<pproTicksIn>0</pproTicksIn>
								<pproTicksOut>3636061228800</pproTicksOut>
								<alphatype>none</alphatype>
								<file id="file-201"/>
								<logginginfo>
									<description></description>
									<scene></scene>
									<shottake></shottake>
									<lognote></lognote>
									<good></good>
									<originalvideofilename></originalvideofilename>
									<originalaudiofilename></originalaudiofilename>
								</logginginfo>
								<colorinfo>
									<lut></lut>
									<lut1></lut1>
									<asc_sop></asc_sop>
									<asc_sat></asc_sat>
									<lut2></lut2>
								</colorinfo>
								<labels>
									<label2>Violet</label2>
								</labels>
							</clipitem>
							<clipitem id="clipitem-1174">
								<masterclipid>masterclip-219</masterclipid>
								<name>amazing-high-end-residential-house-settled-on-top-of-a-grassy-area-beautiful-home-o-SBV-347760362-HD.mp4</name>
								<enabled>TRUE</enabled>
								<duration>749</duration>
								<rate>
									<timebase>30</timebase>
									<ntsc>TRUE</ntsc>
								</rate>
								<start>27184</start>
								<end>27448</end>
								<in>0</in>
								<out>264</out>
								<pproTicksIn>0</pproTicksIn>
								<pproTicksOut>2237576140800</pproTicksOut>
								<alphatype>none</alphatype>
								<file id="file-202"/>
								<logginginfo>
									<description></description>
									<scene></scene>
									<shottake></shottake>
									<lognote></lognote>
									<good></good>
									<originalvideofilename></originalvideofilename>
									<originalaudiofilename></originalaudiofilename>
								</logginginfo>
								<colorinfo>
									<lut></lut>
									<lut1></lut1>
									<asc_sop></asc_sop>
									<asc_sat></asc_sat>
									<lut2></lut2>
								</colorinfo>
								<labels>
									<label2>Violet</label2>
								</labels>
							</clipitem>
							<clipitem id="clipitem-1175">
								<masterclipid>masterclip-220</masterclipid>
								<name>drone-shots-of-mansions-on-hollywood-hills-in-los-feliz-area-in-los-angeles-ca-SBV-347525696-HD.mp4</name>
								<enabled>TRUE</enabled>
								<duration>703</duration>
								<rate>
									<timebase>30</timebase>
									<ntsc>TRUE</ntsc>
								</rate>
								<start>27448</start>
								<end>27709</end>
								<in>0</in>
								<out>261</out>
								<pproTicksIn>0</pproTicksIn>
								<pproTicksOut>2212149139200</pproTicksOut>
								<alphatype>none</alphatype>
								<file id="file-203"/>
								<logginginfo>
									<description></description>
									<scene></scene>
									<shottake></shottake>
									<lognote></lognote>
									<good></good>
									<originalvideofilename></originalvideofilename>
									<originalaudiofilename></originalaudiofilename>
								</logginginfo>
								<colorinfo>
									<lut></lut>
									<lut1></lut1>
									<asc_sop></asc_sop>
									<asc_sat></asc_sat>
									<lut2></lut2>
								</colorinfo>
								<labels>
									<label2>Violet</label2>
								</labels>
							</clipitem>
							<clipitem id="clipitem-1176">
								<masterclipid>masterclip-221</masterclipid>
								<name>los-angeles-at-golden-sunset-hour-california-usa-aerial-drone-griffith-park-SBV-347440326-HD.mp4</name>
								<enabled>TRUE</enabled>
								<duration>449</duration>
								<rate>
									<timebase>30</timebase>
									<ntsc>TRUE</ntsc>
								</rate>
								<start>27709</start>
								<end>27971</end>
								<in>0</in>
								<out>262</out>
								<pproTicksIn>0</pproTicksIn>
								<pproTicksOut>2220624806400</pproTicksOut>
								<alphatype>none</alphatype>
								<file id="file-204"/>
								<logginginfo>
									<description></description>
									<scene></scene>
									<shottake></shottake>
									<lognote></lognote>
									<good></good>
									<originalvideofilename></originalvideofilename>
									<originalaudiofilename></originalaudiofilename>
								</logginginfo>
								<colorinfo>
									<lut></lut>
									<lut1></lut1>
									<asc_sop></asc_sop>
									<asc_sat></asc_sat>
									<lut2></lut2>
								</colorinfo>
								<labels>
									<label2>Violet</label2>
								</labels>
							</clipitem>
							<clipitem id="clipitem-1177">
								<masterclipid>masterclip-222</masterclipid>
								<name>los-angeles-california-usa-scenic-aerial-view-of-world-famous-griffith-observatory--SBV-347584311-HD.mp4</name>
								<enabled>TRUE</enabled>
								<duration>472</duration>
								<rate>
									<timebase>30</timebase>
									<ntsc>TRUE</ntsc>
								</rate>
								<start>27971</start>
								<end>28232</end>
								<in>0</in>
								<out>261</out>
								<pproTicksIn>0</pproTicksIn>
								<pproTicksOut>2212149139200</pproTicksOut>
								<alphatype>none</alphatype>
								<file id="file-205"/>
								<logginginfo>
									<description></description>
									<scene></scene>
									<shottake></shottake>
									<lognote></lognote>
									<good></good>
									<originalvideofilename></originalvideofilename>
									<originalaudiofilename></originalaudiofilename>
								</logginginfo>
								<colorinfo>
									<lut></lut>
									<lut1></lut1>
									<asc_sop></asc_sop>
									<asc_sat></asc_sat>
									<lut2></lut2>
								</colorinfo>
								<labels>
									<label2>Violet</label2>
								</labels>
							</clipitem>
							<clipitem id="clipitem-1178">
								<masterclipid>masterclip-223</masterclipid>
								<name>iconic-american-landmark-travel-to-west-coast-in-california-hollywood-at-sunset-SBV-347502180-HD.mp4</name>
								<enabled>TRUE</enabled>
								<duration>381</duration>
								<rate>
									<timebase>30</timebase>
									<ntsc>TRUE</ntsc>
								</rate>
								<start>28232</start>
								<end>28494</end>
								<in>76</in>
								<out>338</out>
								<pproTicksIn>644150707200</pproTicksIn>
								<pproTicksOut>2864775513600</pproTicksOut>
								<alphatype>none</alphatype>
								<file id="file-206"/>
								<filter>
									<effect>
										<name>Time Remap</name>
										<effectid>timeremap</effectid>
										<effectcategory>motion</effectcategory>
										<effecttype>motion</effecttype>
										<mediatype>video</mediatype>
										<parameter authoringApp="PremierePro">
											<parameterid>variablespeed</parameterid>
											<name>variablespeed</name>
											<valuemin>0</valuemin>
											<valuemax>1</valuemax>
											<value>0</value>
										</parameter>
										<parameter authoringApp="PremierePro">
											<parameterid>speed</parameterid>
											<name>speed</name>
											<valuemin>-100000</valuemin>
											<valuemax>100000</valuemax>
											<value>100</value>
										</parameter>
										<parameter authoringApp="PremierePro">
											<parameterid>reverse</parameterid>
											<name>reverse</name>
											<value>TRUE</value>
										</parameter>
										<parameter authoringApp="PremierePro">
											<parameterid>frameblending</parameterid>
											<name>frameblending</name>
											<value>FALSE</value>
										</parameter>
										<parameter authoringApp="PremierePro">
											<parameterid>graphdict</parameterid>
											<name>graphdict</name>
											<valuemin>0</valuemin>
											<valuemax>381</valuemax>
											<value>0</value>
											<keyframe>
												<when>0</when>
												<value>381</value>
												<speedvirtualkf>TRUE</speedvirtualkf>
												<speedkfstart>TRUE</speedkfstart>
											</keyframe>
											<keyframe>
												<when>43</when>
												<value>338</value>
												<speedvirtualkf>TRUE</speedvirtualkf>
												<speedkfin>TRUE</speedkfin>
											</keyframe>
											<keyframe>
												<when>305</when>
												<value>76</value>
												<speedvirtualkf>TRUE</speedvirtualkf>
												<speedkfout>TRUE</speedkfout>
											</keyframe>
											<keyframe>
												<when>381</when>
												<value>1</value>
												<speedvirtualkf>TRUE</speedvirtualkf>
												<speedkfend>TRUE</speedkfend>
											</keyframe>
											<interpolation>
												<name>FCPCurve</name>
											</interpolation>
										</parameter>
									</effect>
								</filter>
								<logginginfo>
									<description></description>
									<scene></scene>
									<shottake></shottake>
									<lognote></lognote>
									<good></good>
									<originalvideofilename></originalvideofilename>
									<originalaudiofilename></originalaudiofilename>
								</logginginfo>
								<colorinfo>
									<lut></lut>
									<lut1></lut1>
									<asc_sop></asc_sop>
									<asc_sat></asc_sat>
									<lut2></lut2>
								</colorinfo>
								<labels>
									<label2>Violet</label2>
								</labels>
							</clipitem>
							<clipitem id="clipitem-1179">
								<masterclipid>masterclip-224</masterclipid>
								<name>los-angeles-downtown-view-cinematic-sunset-drone-flying-fast-above-palm-trees-SBV-347440314-HD.mp4</name>
								<enabled>TRUE</enabled>
								<duration>443</duration>
								<rate>
									<timebase>30</timebase>
									<ntsc>TRUE</ntsc>
								</rate>
								<start>28494</start>
								<end>28756</end>
								<in>29</in>
								<out>291</out>
								<pproTicksIn>245794348800</pproTicksIn>
								<pproTicksOut>2466419155200</pproTicksOut>
								<alphatype>none</alphatype>
								<file id="file-207"/>
								<logginginfo>
									<description></description>
									<scene></scene>
									<shottake></shottake>
									<lognote></lognote>
									<good></good>
									<originalvideofilename></originalvideofilename>
									<originalaudiofilename></originalaudiofilename>
								</logginginfo>
								<colorinfo>
									<lut></lut>
									<lut1></lut1>
									<asc_sop></asc_sop>
									<asc_sat></asc_sat>
									<lut2></lut2>
								</colorinfo>
								<labels>
									<label2>Violet</label2>
								</labels>
							</clipitem>
							<clipitem id="clipitem-1180">
								<masterclipid>masterclip-225</masterclipid>
								<name>top-view-drone-rising-above-incredible-complex-highway-junction-in-los-angeles-with-SBV-327556319-HD.mp4</name>
								<enabled>TRUE</enabled>
								<duration>452</duration>
								<rate>
									<timebase>30</timebase>
									<ntsc>TRUE</ntsc>
								</rate>
								<start>28756</start>
								<end>29019</end>
								<in>0</in>
								<out>263</out>
								<pproTicksIn>0</pproTicksIn>
								<pproTicksOut>2229100473600</pproTicksOut>
								<alphatype>none</alphatype>
								<file id="file-208"/>
								<logginginfo>
									<description></description>
									<scene></scene>
									<shottake></shottake>
									<lognote></lognote>
									<good></good>
									<originalvideofilename></originalvideofilename>
									<originalaudiofilename></originalaudiofilename>
								</logginginfo>
								<colorinfo>
									<lut></lut>
									<lut1></lut1>
									<asc_sop></asc_sop>
									<asc_sat></asc_sat>
									<lut2></lut2>
								</colorinfo>
								<labels>
									<label2>Iris</label2>
								</labels>
							</clipitem>
							<clipitem id="clipitem-1181">
								<masterclipid>masterclip-226</masterclipid>
								<name>aerial-drone-shot-of-residential-los-angeles-suburban-housing-district-area-4k-SBV-347658818-HD.mp4</name>
								<enabled>TRUE</enabled>
								<duration>468</duration>
								<rate>
									<timebase>30</timebase>
									<ntsc>TRUE</ntsc>
								</rate>
								<start>29019</start>
								<end>29279</end>
								<in>0</in>
								<out>260</out>
								<pproTicksIn>0</pproTicksIn>
								<pproTicksOut>2203673472000</pproTicksOut>
								<alphatype>none</alphatype>
								<file id="file-209"/>
								<logginginfo>
									<description></description>
									<scene></scene>
									<shottake></shottake>
									<lognote></lognote>
									<good></good>
									<originalvideofilename></originalvideofilename>
									<originalaudiofilename></originalaudiofilename>
								</logginginfo>
								<colorinfo>
									<lut></lut>
									<lut1></lut1>
									<asc_sop></asc_sop>
									<asc_sat></asc_sat>
									<lut2></lut2>
								</colorinfo>
								<labels>
									<label2>Violet</label2>
								</labels>
							</clipitem>
							<clipitem id="clipitem-1182">
								<masterclipid>masterclip-227</masterclipid>
								<name>forwards-fly-above-road-lined-by-palm-trees-and-luxurious-residencies-famous-beverl-SBV-347678063-HD.mp4</name>
								<enabled>TRUE</enabled>
								<duration>576</duration>
								<rate>
									<timebase>30</timebase>
									<ntsc>TRUE</ntsc>
								</rate>
								<start>29279</start>
								<end>29740</end>
								<in>0</in>
								<out>461</out>
								<pproTicksIn>0</pproTicksIn>
								<pproTicksOut>3907282579200</pproTicksOut>
								<alphatype>none</alphatype>
								<file id="file-210"/>
								<logginginfo>
									<description></description>
									<scene></scene>
									<shottake></shottake>
									<lognote></lognote>
									<good></good>
									<originalvideofilename></originalvideofilename>
									<originalaudiofilename></originalaudiofilename>
								</logginginfo>
								<colorinfo>
									<lut></lut>
									<lut1></lut1>
									<asc_sop></asc_sop>
									<asc_sat></asc_sat>
									<lut2></lut2>
								</colorinfo>
								<labels>
									<label2>Violet</label2>
								</labels>
							</clipitem>
							<clipitem id="clipitem-1183">
								<masterclipid>masterclip-228</masterclipid>
								<name>los-angeles-california-usa-aerial-drone-landmark-hollywood-sign-on-green-hills-SBV-347440328-HD.mp4</name>
								<enabled>TRUE</enabled>
								<duration>366</duration>
								<rate>
									<timebase>30</timebase>
									<ntsc>TRUE</ntsc>
								</rate>
								<start>29740</start>
								<end>30033</end>
								<in>0</in>
								<out>293</out>
								<pproTicksIn>0</pproTicksIn>
								<pproTicksOut>2483370489600</pproTicksOut>
								<alphatype>none</alphatype>
								<file id="file-211"/>
								<logginginfo>
									<description></description>
									<scene></scene>
									<shottake></shottake>
									<lognote></lognote>
									<good></good>
									<originalvideofilename></originalvideofilename>
									<originalaudiofilename></originalaudiofilename>
								</logginginfo>
								<colorinfo>
									<lut></lut>
									<lut1></lut1>
									<asc_sop></asc_sop>
									<asc_sat></asc_sat>
									<lut2></lut2>
								</colorinfo>
								<labels>
									<label2>Violet</label2>
								</labels>
							</clipitem>
							<clipitem id="clipitem-1184">
								<masterclipid>masterclip-238</masterclipid>
								<name>fpv-aerial-drone-veiw-of-the-beach-in-zeeland-the-netherlands-holland-summer-dunes--SBV-347187359-HD.mp4</name>
								<enabled>TRUE</enabled>
								<duration>560</duration>
								<rate>
									<timebase>30</timebase>
									<ntsc>TRUE</ntsc>
								</rate>
								<start>30754</start>
								<end>31307</end>
								<in>0</in>
								<out>553</out>
								<pproTicksIn>0</pproTicksIn>
								<pproTicksOut>4687043961600</pproTicksOut>
								<alphatype>none</alphatype>
								<file id="file-218"/>
								<logginginfo>
									<description></description>
									<scene></scene>
									<shottake></shottake>
									<lognote></lognote>
									<good></good>
									<originalvideofilename></originalvideofilename>
									<originalaudiofilename></originalaudiofilename>
								</logginginfo>
								<colorinfo>
									<lut></lut>
									<lut1></lut1>
									<asc_sop></asc_sop>
									<asc_sat></asc_sat>
									<lut2></lut2>
								</colorinfo>
								<labels>
									<label2>Violet</label2>
								</labels>
							</clipitem>
							<clipitem id="clipitem-1185">
								<masterclipid>masterclip-239</masterclipid>
								<name>fpv-aerial-drone-veiw-of-the-beach-in-zeeland-the-netherlands-holland-summer-dunes--SBV-347187363-HD.mp4</name>
								<enabled>TRUE</enabled>
								<duration>1499</duration>
								<rate>
									<timebase>30</timebase>
									<ntsc>TRUE</ntsc>
								</rate>
								<start>31307</start>
								<end>32592</end>
								<in>38</in>
								<out>1323</out>
								<pproTicksIn>322075353600</pproTicksIn>
								<pproTicksOut>11213307705600</pproTicksOut>
								<alphatype>none</alphatype>
								<file id="file-219"/>
								<logginginfo>
									<description></description>
									<scene></scene>
									<shottake></shottake>
									<lognote></lognote>
									<good></good>
									<originalvideofilename></originalvideofilename>
									<originalaudiofilename></originalaudiofilename>
								</logginginfo>
								<colorinfo>
									<lut></lut>
									<lut1></lut1>
									<asc_sop></asc_sop>
									<asc_sat></asc_sat>
									<lut2></lut2>
								</colorinfo>
								<labels>
									<label2>Violet</label2>
								</labels>
							</clipitem>
							<clipitem id="clipitem-1186">
								<masterclipid>masterclip-240</masterclipid>
								<name>fpv-aerial-drone-veiw-of-the-beach-in-zeeland-the-netherlands-holland-summer-dunes--SBV-347187369-HD.mp4</name>
								<enabled>TRUE</enabled>
								<duration>971</duration>
								<rate>
									<timebase>30</timebase>
									<ntsc>TRUE</ntsc>
								</rate>
								<start>32592</start>
								<end>33318</end>
								<in>0</in>
								<out>726</out>
								<pproTicksIn>0</pproTicksIn>
								<pproTicksOut>6153334387200</pproTicksOut>
								<alphatype>none</alphatype>
								<file id="file-220"/>
								<logginginfo>
									<description></description>
									<scene></scene>
									<shottake></shottake>
									<lognote></lognote>
									<good></good>
									<originalvideofilename></originalvideofilename>
									<originalaudiofilename></originalaudiofilename>
								</logginginfo>
								<colorinfo>
									<lut></lut>
									<lut1></lut1>
									<asc_sop></asc_sop>
									<asc_sat></asc_sat>
									<lut2></lut2>
								</colorinfo>
								<labels>
									<label2>Violet</label2>
								</labels>
							</clipitem>
							<clipitem id="clipitem-1187">
								<masterclipid>masterclip-241</masterclipid>
								<name>fpv-aerial-drone-veiw-of-the-beach-in-zeeland-the-netherlands-holland-summer-dunes--SBV-347187365-HD.mp4</name>
								<enabled>TRUE</enabled>
								<duration>483</duration>
								<rate>
									<timebase>30</timebase>
									<ntsc>TRUE</ntsc>
								</rate>
								<start>33318</start>
								<end>33621</end>
								<in>0</in>
								<out>303</out>
								<pproTicksIn>0</pproTicksIn>
								<pproTicksOut>2568127161600</pproTicksOut>
								<alphatype>none</alphatype>
								<file id="file-221"/>
								<logginginfo>
									<description></description>
									<scene></scene>
									<shottake></shottake>
									<lognote></lognote>
									<good></good>
									<originalvideofilename></originalvideofilename>
									<originalaudiofilename></originalaudiofilename>
								</logginginfo>
								<colorinfo>
									<lut></lut>
									<lut1></lut1>
									<asc_sop></asc_sop>
									<asc_sat></asc_sat>
									<lut2></lut2>
								</colorinfo>
								<labels>
									<label2>Violet</label2>
								</labels>
							</clipitem>
							<clipitem id="clipitem-1188">
								<masterclipid>masterclip-244</masterclipid>
								<name>(Tomz FPV)_Masters Of Dirt's Backyard_2TOm5fufLrM_YT.mp4</name>
								<enabled>TRUE</enabled>
								<duration>2679</duration>
								<rate>
									<timebase>30</timebase>
									<ntsc>TRUE</ntsc>
								</rate>
								<start>34377</start>
								<end>36687</end>
								<in>49</in>
								<out>2359</out>
								<pproTicksIn>415307692800</pproTicksIn>
								<pproTicksOut>19994098924800</pproTicksOut>
								<alphatype>none</alphatype>
								<file id="file-223"/>
								<logginginfo>
									<description></description>
									<scene></scene>
									<shottake></shottake>
									<lognote>https://www.youtube.com/watch?v=2TOm5fufLrM</lognote>
									<good></good>
									<originalvideofilename></originalvideofilename>
									<originalaudiofilename></originalaudiofilename>
								</logginginfo>
								<colorinfo>
									<lut></lut>
									<lut1></lut1>
									<asc_sop></asc_sop>
									<asc_sat></asc_sat>
									<lut2></lut2>
								</colorinfo>
								<labels>
									<label2>Iris</label2>
								</labels>
							</clipitem>
							<clipitem id="clipitem-1189">
								<masterclipid>masterclip-254</masterclipid>
								<name>303794_Toronto City Cityscape Lake_By_Via_Films_Artlist_HD.mp4</name>
								<enabled>TRUE</enabled>
								<duration>876</duration>
								<rate>
									<timebase>30</timebase>
									<ntsc>TRUE</ntsc>
								</rate>
								<start>37459</start>
								<end>38111</end>
								<in>0</in>
								<out>652</out>
								<pproTicksIn>0</pproTicksIn>
								<pproTicksOut>5526135014400</pproTicksOut>
								<alphatype>none</alphatype>
								<file id="file-231"/>
								<logginginfo>
									<description></description>
									<scene></scene>
									<shottake></shottake>
									<lognote></lognote>
									<good></good>
									<originalvideofilename></originalvideofilename>
									<originalaudiofilename></originalaudiofilename>
								</logginginfo>
								<colorinfo>
									<lut></lut>
									<lut1></lut1>
									<asc_sop></asc_sop>
									<asc_sat></asc_sat>
									<lut2></lut2>
								</colorinfo>
								<labels>
									<label2>Violet</label2>
								</labels>
							</clipitem>
							<clipitem id="clipitem-1190">
								<masterclipid>masterclip-255</masterclipid>
								<name>303779_Toronto City Cityscape Buldings_By_Via_Films_Artlist_HD.mp4</name>
								<enabled>TRUE</enabled>
								<duration>885</duration>
								<rate>
									<timebase>30</timebase>
									<ntsc>TRUE</ntsc>
								</rate>
								<start>38111</start>
								<end>38445</end>
								<in>0</in>
								<out>334</out>
								<pproTicksIn>0</pproTicksIn>
								<pproTicksOut>2830872844800</pproTicksOut>
								<alphatype>none</alphatype>
								<file id="file-232"/>
								<logginginfo>
									<description></description>
									<scene></scene>
									<shottake></shottake>
									<lognote></lognote>
									<good></good>
									<originalvideofilename></originalvideofilename>
									<originalaudiofilename></originalaudiofilename>
								</logginginfo>
								<colorinfo>
									<lut></lut>
									<lut1></lut1>
									<asc_sop></asc_sop>
									<asc_sat></asc_sat>
									<lut2></lut2>
								</colorinfo>
								<labels>
									<label2>Violet</label2>
								</labels>
							</clipitem>
							<clipitem id="clipitem-1191">
								<masterclipid>masterclip-256</masterclipid>
								<name>303775_Toronto City Cityscape Buldings_By_Via_Films_Artlist_HD.mp4</name>
								<enabled>TRUE</enabled>
								<duration>866</duration>
								<rate>
									<timebase>30</timebase>
									<ntsc>TRUE</ntsc>
								</rate>
								<start>38445</start>
								<end>39115</end>
								<in>0</in>
								<out>670</out>
								<pproTicksIn>0</pproTicksIn>
								<pproTicksOut>5678697024000</pproTicksOut>
								<alphatype>none</alphatype>
								<file id="file-233"/>
								<logginginfo>
									<description></description>
									<scene></scene>
									<shottake></shottake>
									<lognote></lognote>
									<good></good>
									<originalvideofilename></originalvideofilename>
									<originalaudiofilename></originalaudiofilename>
								</logginginfo>
								<colorinfo>
									<lut></lut>
									<lut1></lut1>
									<asc_sop></asc_sop>
									<asc_sat></asc_sat>
									<lut2></lut2>
								</colorinfo>
								<labels>
									<label2>Violet</label2>
								</labels>
							</clipitem>
							<clipitem id="clipitem-1192">
								<masterclipid>masterclip-257</masterclipid>
								<name>303782_Toronto City Cityscape Buldings_By_Via_Films_Artlist_HD.mp4</name>
								<enabled>TRUE</enabled>
								<duration>868</duration>
								<rate>
									<timebase>30</timebase>
									<ntsc>TRUE</ntsc>
								</rate>
								<start>39115</start>
								<end>39449</end>
								<in>0</in>
								<out>334</out>
								<pproTicksIn>0</pproTicksIn>
								<pproTicksOut>2830872844800</pproTicksOut>
								<alphatype>none</alphatype>
								<file id="file-234"/>
								<logginginfo>
									<description></description>
									<scene></scene>
									<shottake></shottake>
									<lognote></lognote>
									<good></good>
									<originalvideofilename></originalvideofilename>
									<originalaudiofilename></originalaudiofilename>
								</logginginfo>
								<colorinfo>
									<lut></lut>
									<lut1></lut1>
									<asc_sop></asc_sop>
									<asc_sat></asc_sat>
									<lut2></lut2>
								</colorinfo>
								<labels>
									<label2>Violet</label2>
								</labels>
							</clipitem>
							<clipitem id="clipitem-1193">
								<masterclipid>masterclip-258</masterclipid>
								<name>303807_Toronto City Cityscape Buldings_By_Via_Films_Artlist_HD.mp4</name>
								<enabled>TRUE</enabled>
								<duration>898</duration>
								<rate>
									<timebase>30</timebase>
									<ntsc>TRUE</ntsc>
								</rate>
								<start>39449</start>
								<end>40119</end>
								<in>0</in>
								<out>670</out>
								<pproTicksIn>0</pproTicksIn>
								<pproTicksOut>5678697024000</pproTicksOut>
								<alphatype>none</alphatype>
								<file id="file-235"/>
								<logginginfo>
									<description></description>
									<scene></scene>
									<shottake></shottake>
									<lognote></lognote>
									<good></good>
									<originalvideofilename></originalvideofilename>
									<originalaudiofilename></originalaudiofilename>
								</logginginfo>
								<colorinfo>
									<lut></lut>
									<lut1></lut1>
									<asc_sop></asc_sop>
									<asc_sat></asc_sat>
									<lut2></lut2>
								</colorinfo>
								<labels>
									<label2>Violet</label2>
								</labels>
							</clipitem>
							<clipitem id="clipitem-1194">
								<masterclipid>masterclip-259</masterclipid>
								<name>303812_Toronto City Cityscape Buldings_By_Via_Films_Artlist_HD.mp4</name>
								<enabled>TRUE</enabled>
								<duration>897</duration>
								<rate>
									<timebase>30</timebase>
									<ntsc>TRUE</ntsc>
								</rate>
								<start>40119</start>
								<end>40786</end>
								<in>0</in>
								<out>667</out>
								<pproTicksIn>0</pproTicksIn>
								<pproTicksOut>5653270022400</pproTicksOut>
								<alphatype>none</alphatype>
								<file id="file-236"/>
								<logginginfo>
									<description></description>
									<scene></scene>
									<shottake></shottake>
									<lognote></lognote>
									<good></good>
									<originalvideofilename></originalvideofilename>
									<originalaudiofilename></originalaudiofilename>
								</logginginfo>
								<colorinfo>
									<lut></lut>
									<lut1></lut1>
									<asc_sop></asc_sop>
									<asc_sat></asc_sat>
									<lut2></lut2>
								</colorinfo>
								<labels>
									<label2>Violet</label2>
								</labels>
							</clipitem>
							<clipitem id="clipitem-1195">
								<masterclipid>masterclip-260</masterclipid>
								<name>303855_Toronto City Cityscape Lake_By_Via_Films_Artlist_HD.mp4</name>
								<enabled>TRUE</enabled>
								<duration>872</duration>
								<rate>
									<timebase>30</timebase>
									<ntsc>TRUE</ntsc>
								</rate>
								<start>40786</start>
								<end>41457</end>
								<in>0</in>
								<out>671</out>
								<pproTicksIn>0</pproTicksIn>
								<pproTicksOut>5687172691200</pproTicksOut>
								<alphatype>none</alphatype>
								<file id="file-237"/>
								<logginginfo>
									<description></description>
									<scene></scene>
									<shottake></shottake>
									<lognote></lognote>
									<good></good>
									<originalvideofilename></originalvideofilename>
									<originalaudiofilename></originalaudiofilename>
								</logginginfo>
								<colorinfo>
									<lut></lut>
									<lut1></lut1>
									<asc_sop></asc_sop>
									<asc_sat></asc_sat>
									<lut2></lut2>
								</colorinfo>
								<labels>
									<label2>Violet</label2>
								</labels>
							</clipitem>
							<clipitem id="clipitem-1196">
								<masterclipid>masterclip-261</masterclipid>
								<name>303908_Toronto City Cityscape Buldings_By_Via_Films_Artlist_HD.mp4</name>
								<enabled>TRUE</enabled>
								<duration>897</duration>
								<rate>
									<timebase>30</timebase>
									<ntsc>TRUE</ntsc>
								</rate>
								<start>41457</start>
								<end>41791</end>
								<in>0</in>
								<out>334</out>
								<pproTicksIn>0</pproTicksIn>
								<pproTicksOut>2830872844800</pproTicksOut>
								<alphatype>none</alphatype>
								<file id="file-238"/>
								<logginginfo>
									<description></description>
									<scene></scene>
									<shottake></shottake>
									<lognote></lognote>
									<good></good>
									<originalvideofilename></originalvideofilename>
									<originalaudiofilename></originalaudiofilename>
								</logginginfo>
								<colorinfo>
									<lut></lut>
									<lut1></lut1>
									<asc_sop></asc_sop>
									<asc_sat></asc_sat>
									<lut2></lut2>
								</colorinfo>
								<labels>
									<label2>Violet</label2>
								</labels>
							</clipitem>
							<clipitem id="clipitem-1197">
								<masterclipid>masterclip-262</masterclipid>
								<name>303903_Toronto City Cityscape Buldings_By_Via_Films_Artlist_HD.mp4</name>
								<enabled>TRUE</enabled>
								<duration>862</duration>
								<rate>
									<timebase>30</timebase>
									<ntsc>TRUE</ntsc>
								</rate>
								<start>41791</start>
								<end>42131</end>
								<in>0</in>
								<out>340</out>
								<pproTicksIn>0</pproTicksIn>
								<pproTicksOut>2881726848000</pproTicksOut>
								<alphatype>none</alphatype>
								<file id="file-239"/>
								<logginginfo>
									<description></description>
									<scene></scene>
									<shottake></shottake>
									<lognote></lognote>
									<good></good>
									<originalvideofilename></originalvideofilename>
									<originalaudiofilename></originalaudiofilename>
								</logginginfo>
								<colorinfo>
									<lut></lut>
									<lut1></lut1>
									<asc_sop></asc_sop>
									<asc_sat></asc_sat>
									<lut2></lut2>
								</colorinfo>
								<labels>
									<label2>Violet</label2>
								</labels>
							</clipitem>
							<clipitem id="clipitem-1198">
								<masterclipid>masterclip-263</masterclipid>
								<name>303942_Toronto City Cityscape Buldings_By_Via_Films_Artlist_HD.mp4</name>
								<enabled>TRUE</enabled>
								<duration>896</duration>
								<rate>
									<timebase>30</timebase>
									<ntsc>TRUE</ntsc>
								</rate>
								<start>42131</start>
								<end>42791</end>
								<in>0</in>
								<out>660</out>
								<pproTicksIn>0</pproTicksIn>
								<pproTicksOut>5593940352000</pproTicksOut>
								<alphatype>none</alphatype>
								<file id="file-240"/>
								<logginginfo>
									<description></description>
									<scene></scene>
									<shottake></shottake>
									<lognote></lognote>
									<good></good>
									<originalvideofilename></originalvideofilename>
									<originalaudiofilename></originalaudiofilename>
								</logginginfo>
								<colorinfo>
									<lut></lut>
									<lut1></lut1>
									<asc_sop></asc_sop>
									<asc_sat></asc_sat>
									<lut2></lut2>
								</colorinfo>
								<labels>
									<label2>Violet</label2>
								</labels>
							</clipitem>
							<clipitem id="clipitem-1199">
								<masterclipid>masterclip-270</masterclipid>
								<name>descending-over-great-wall-of-china-towards-sun-001-SBV-311902901-HD.mp4</name>
								<enabled>TRUE</enabled>
								<duration>204</duration>
								<rate>
									<timebase>30</timebase>
									<ntsc>TRUE</ntsc>
								</rate>
								<start>43621</start>
								<end>43767</end>
								<in>0</in>
								<out>146</out>
								<pproTicksIn>0</pproTicksIn>
								<pproTicksOut>1237447411200</pproTicksOut>
								<alphatype>none</alphatype>
								<file id="file-245"/>
								<logginginfo>
									<description></description>
									<scene></scene>
									<shottake></shottake>
									<lognote></lognote>
									<good></good>
									<originalvideofilename></originalvideofilename>
									<originalaudiofilename></originalaudiofilename>
								</logginginfo>
								<colorinfo>
									<lut></lut>
									<lut1></lut1>
									<asc_sop></asc_sop>
									<asc_sat></asc_sat>
									<lut2></lut2>
								</colorinfo>
								<labels>
									<label2>Violet</label2>
								</labels>
							</clipitem>
							<clipitem id="clipitem-1200">
								<masterclipid>masterclip-271</masterclipid>
								<name>descending-over-great-wall-of-china-001-SBV-311902857-HD.mp4</name>
								<enabled>TRUE</enabled>
								<duration>228</duration>
								<rate>
									<timebase>30</timebase>
									<ntsc>TRUE</ntsc>
								</rate>
								<start>43767</start>
								<end>43913</end>
								<in>0</in>
								<out>146</out>
								<pproTicksIn>0</pproTicksIn>
								<pproTicksOut>1237447411200</pproTicksOut>
								<alphatype>none</alphatype>
								<file id="file-246"/>
								<logginginfo>
									<description></description>
									<scene></scene>
									<shottake></shottake>
									<lognote></lognote>
									<good></good>
									<originalvideofilename></originalvideofilename>
									<originalaudiofilename></originalaudiofilename>
								</logginginfo>
								<colorinfo>
									<lut></lut>
									<lut1></lut1>
									<asc_sop></asc_sop>
									<asc_sat></asc_sat>
									<lut2></lut2>
								</colorinfo>
								<labels>
									<label2>Violet</label2>
								</labels>
							</clipitem>
							<clipitem id="clipitem-1201">
								<masterclipid>masterclip-272</masterclipid>
								<name>flying-over-large-tower-on-great-wall-of-china-001-SBV-311947403-HD.mp4</name>
								<enabled>TRUE</enabled>
								<duration>324</duration>
								<rate>
									<timebase>30</timebase>
									<ntsc>TRUE</ntsc>
								</rate>
								<start>43913</start>
								<end>44132</end>
								<in>0</in>
								<out>219</out>
								<pproTicksIn>0</pproTicksIn>
								<pproTicksOut>1856171116800</pproTicksOut>
								<alphatype>none</alphatype>
								<file id="file-247"/>
								<logginginfo>
									<description></description>
									<scene></scene>
									<shottake></shottake>
									<lognote></lognote>
									<good></good>
									<originalvideofilename></originalvideofilename>
									<originalaudiofilename></originalaudiofilename>
								</logginginfo>
								<colorinfo>
									<lut></lut>
									<lut1></lut1>
									<asc_sop></asc_sop>
									<asc_sat></asc_sat>
									<lut2></lut2>
								</colorinfo>
								<labels>
									<label2>Violet</label2>
								</labels>
							</clipitem>
							<clipitem id="clipitem-1202">
								<masterclipid>masterclip-273</masterclipid>
								<name>great-wall-of-china-and-green-mountains-aerial-view-drone-flies-forward-reveal-shot-SBV-347366074-HD.mp4</name>
								<enabled>TRUE</enabled>
								<duration>526</duration>
								<rate>
									<timebase>30</timebase>
									<ntsc>TRUE</ntsc>
								</rate>
								<start>44132</start>
								<end>44647</end>
								<in>0</in>
								<out>515</out>
								<pproTicksIn>0</pproTicksIn>
								<pproTicksOut>4364968608000</pproTicksOut>
								<alphatype>none</alphatype>
								<file id="file-248"/>
								<logginginfo>
									<description></description>
									<scene></scene>
									<shottake></shottake>
									<lognote></lognote>
									<good></good>
									<originalvideofilename></originalvideofilename>
									<originalaudiofilename></originalaudiofilename>
								</logginginfo>
								<colorinfo>
									<lut></lut>
									<lut1></lut1>
									<asc_sop></asc_sop>
									<asc_sat></asc_sat>
									<lut2></lut2>
								</colorinfo>
								<labels>
									<label2>Violet</label2>
								</labels>
							</clipitem>
							<clipitem id="clipitem-1203">
								<masterclipid>masterclip-274</masterclipid>
								<name>flying-over-large-tower-on-great-wall-of-china-002-SBV-311947474-HD.mp4</name>
								<enabled>TRUE</enabled>
								<duration>257</duration>
								<rate>
									<timebase>30</timebase>
									<ntsc>TRUE</ntsc>
								</rate>
								<start>44647</start>
								<end>44792</end>
								<in>0</in>
								<out>145</out>
								<pproTicksIn>0</pproTicksIn>
								<pproTicksOut>1228971744000</pproTicksOut>
								<alphatype>none</alphatype>
								<file id="file-249"/>
								<logginginfo>
									<description></description>
									<scene></scene>
									<shottake></shottake>
									<lognote></lognote>
									<good></good>
									<originalvideofilename></originalvideofilename>
									<originalaudiofilename></originalaudiofilename>
								</logginginfo>
								<colorinfo>
									<lut></lut>
									<lut1></lut1>
									<asc_sop></asc_sop>
									<asc_sat></asc_sat>
									<lut2></lut2>
								</colorinfo>
								<labels>
									<label2>Violet</label2>
								</labels>
							</clipitem>
							<clipitem id="clipitem-1204">
								<masterclipid>masterclip-275</masterclipid>
								<name>tower-of-great-wall-of-china-and-green-mountains-at-sunset-badaling-aerial-view-dro-SBV-347366067-HD.mp4</name>
								<enabled>TRUE</enabled>
								<duration>511</duration>
								<rate>
									<timebase>30</timebase>
									<ntsc>TRUE</ntsc>
								</rate>
								<start>44792</start>
								<end>45237</end>
								<in>0</in>
								<out>445</out>
								<pproTicksIn>0</pproTicksIn>
								<pproTicksOut>3771671904000</pproTicksOut>
								<alphatype>none</alphatype>
								<file id="file-250"/>
								<logginginfo>
									<description></description>
									<scene></scene>
									<shottake></shottake>
									<lognote></lognote>
									<good></good>
									<originalvideofilename></originalvideofilename>
									<originalaudiofilename></originalaudiofilename>
								</logginginfo>
								<colorinfo>
									<lut></lut>
									<lut1></lut1>
									<asc_sop></asc_sop>
									<asc_sat></asc_sat>
									<lut2></lut2>
								</colorinfo>
								<labels>
									<label2>Violet</label2>
								</labels>
							</clipitem>
							<clipitem id="clipitem-1205">
								<masterclipid>masterclip-276</masterclipid>
								<name>great-wall-of-china-and-green-mountains-in-summer-sunset-aerial-view-drone-is-orbit-SBV-347366071-HD.mp4</name>
								<enabled>TRUE</enabled>
								<duration>481</duration>
								<rate>
									<timebase>30</timebase>
									<ntsc>TRUE</ntsc>
								</rate>
								<start>45237</start>
								<end>45673</end>
								<in>0</in>
								<out>436</out>
								<pproTicksIn>0</pproTicksIn>
								<pproTicksOut>3695390899200</pproTicksOut>
								<alphatype>none</alphatype>
								<file id="file-251"/>
								<logginginfo>
									<description></description>
									<scene></scene>
									<shottake></shottake>
									<lognote></lognote>
									<good></good>
									<originalvideofilename></originalvideofilename>
									<originalaudiofilename></originalaudiofilename>
								</logginginfo>
								<colorinfo>
									<lut></lut>
									<lut1></lut1>
									<asc_sop></asc_sop>
									<asc_sat></asc_sat>
									<lut2></lut2>
								</colorinfo>
								<labels>
									<label2>Violet</label2>
								</labels>
							</clipitem>
							<clipitem id="clipitem-1206">
								<masterclipid>masterclip-277</masterclipid>
								<name>birds-eye-view-over-great-wall-of-china-002-SBV-311899868-HD.mp4</name>
								<enabled>TRUE</enabled>
								<duration>691</duration>
								<rate>
									<timebase>30</timebase>
									<ntsc>TRUE</ntsc>
								</rate>
								<start>45673</start>
								<end>45970</end>
								<in>0</in>
								<out>297</out>
								<pproTicksIn>0</pproTicksIn>
								<pproTicksOut>2517273158400</pproTicksOut>
								<alphatype>none</alphatype>
								<file id="file-252"/>
								<logginginfo>
									<description></description>
									<scene></scene>
									<shottake></shottake>
									<lognote></lognote>
									<good></good>
									<originalvideofilename></originalvideofilename>
									<originalaudiofilename></originalaudiofilename>
								</logginginfo>
								<colorinfo>
									<lut></lut>
									<lut1></lut1>
									<asc_sop></asc_sop>
									<asc_sat></asc_sat>
									<lut2></lut2>
								</colorinfo>
								<labels>
									<label2>Violet</label2>
								</labels>
							</clipitem>
							<clipitem id="clipitem-1207">
								<masterclipid>masterclip-278</masterclipid>
								<name>great-wall-of-china-at-sunset-in-spring-badaling-aerial-view-drone-flies-forward-me-SBV-347366072-HD.mp4</name>
								<enabled>TRUE</enabled>
								<duration>391</duration>
								<rate>
									<timebase>30</timebase>
									<ntsc>TRUE</ntsc>
								</rate>
								<start>45970</start>
								<end>46334</end>
								<in>0</in>
								<out>364</out>
								<pproTicksIn>0</pproTicksIn>
								<pproTicksOut>3085142860800</pproTicksOut>
								<alphatype>none</alphatype>
								<file id="file-253"/>
								<logginginfo>
									<description></description>
									<scene></scene>
									<shottake></shottake>
									<lognote></lognote>
									<good></good>
									<originalvideofilename></originalvideofilename>
									<originalaudiofilename></originalaudiofilename>
								</logginginfo>
								<colorinfo>
									<lut></lut>
									<lut1></lut1>
									<asc_sop></asc_sop>
									<asc_sat></asc_sat>
									<lut2></lut2>
								</colorinfo>
								<labels>
									<label2>Violet</label2>
								</labels>
							</clipitem>
							<clipitem id="clipitem-1208">
								<masterclipid>masterclip-279</masterclipid>
								<name>birds-eye-view-over-great-wall-of-china-001-SBV-311899756-HD.mp4</name>
								<enabled>TRUE</enabled>
								<duration>667</duration>
								<rate>
									<timebase>30</timebase>
									<ntsc>TRUE</ntsc>
								</rate>
								<start>46334</start>
								<end>46850</end>
								<in>0</in>
								<out>516</out>
								<pproTicksIn>0</pproTicksIn>
								<pproTicksOut>4373444275200</pproTicksOut>
								<alphatype>none</alphatype>
								<file id="file-254"/>
								<logginginfo>
									<description></description>
									<scene></scene>
									<shottake></shottake>
									<lognote></lognote>
									<good></good>
									<originalvideofilename></originalvideofilename>
									<originalaudiofilename></originalaudiofilename>
								</logginginfo>
								<colorinfo>
									<lut></lut>
									<lut1></lut1>
									<asc_sop></asc_sop>
									<asc_sat></asc_sat>
									<lut2></lut2>
								</colorinfo>
								<labels>
									<label2>Violet</label2>
								</labels>
							</clipitem>
							<clipitem id="clipitem-1209">
								<masterclipid>masterclip-280</masterclipid>
								<name>long-epic-flight-up-mountain-ridge-of-the-great-wall-of-china-SBV-326183861-HD.mp4</name>
								<enabled>TRUE</enabled>
								<duration>801</duration>
								<rate>
									<timebase>30</timebase>
									<ntsc>TRUE</ntsc>
								</rate>
								<start>46850</start>
								<end>47141</end>
								<in>0</in>
								<out>291</out>
								<pproTicksIn>0</pproTicksIn>
								<pproTicksOut>2466419155200</pproTicksOut>
								<alphatype>none</alphatype>
								<file id="file-255"/>
								<logginginfo>
									<description></description>
									<scene></scene>
									<shottake></shottake>
									<lognote></lognote>
									<good></good>
									<originalvideofilename></originalvideofilename>
									<originalaudiofilename></originalaudiofilename>
								</logginginfo>
								<colorinfo>
									<lut></lut>
									<lut1></lut1>
									<asc_sop></asc_sop>
									<asc_sat></asc_sat>
									<lut2></lut2>
								</colorinfo>
								<labels>
									<label2>Violet</label2>
								</labels>
							</clipitem>
							<clipitem id="clipitem-1210">
								<masterclipid>masterclip-281</masterclipid>
								<name>approaching-tower-on-great-wall-of-china-in-fog-SBV-326182816-HD.mp4</name>
								<enabled>TRUE</enabled>
								<duration>767</duration>
								<rate>
									<timebase>30</timebase>
									<ntsc>TRUE</ntsc>
								</rate>
								<start>47141</start>
								<end>47728</end>
								<in>0</in>
								<out>587</out>
								<pproTicksIn>0</pproTicksIn>
								<pproTicksOut>4975216646400</pproTicksOut>
								<alphatype>none</alphatype>
								<file id="file-256"/>
								<logginginfo>
									<description></description>
									<scene></scene>
									<shottake></shottake>
									<lognote></lognote>
									<good></good>
									<originalvideofilename></originalvideofilename>
									<originalaudiofilename></originalaudiofilename>
								</logginginfo>
								<colorinfo>
									<lut></lut>
									<lut1></lut1>
									<asc_sop></asc_sop>
									<asc_sat></asc_sat>
									<lut2></lut2>
								</colorinfo>
								<labels>
									<label2>Violet</label2>
								</labels>
							</clipitem>
							<clipitem id="clipitem-1211">
								<masterclipid>masterclip-282</masterclipid>
								<name>extremely-crowded-great-wall-of-china-at-peak-season-many-people-during-high-season-SBV-334024999-HD.mp4</name>
								<enabled>TRUE</enabled>
								<duration>898</duration>
								<rate>
									<timebase>30</timebase>
									<ntsc>TRUE</ntsc>
								</rate>
								<start>47728</start>
								<end>48316</end>
								<in>0</in>
								<out>588</out>
								<pproTicksIn>0</pproTicksIn>
								<pproTicksOut>4983692313600</pproTicksOut>
								<alphatype>none</alphatype>
								<file id="file-257"/>
								<logginginfo>
									<description></description>
									<scene></scene>
									<shottake></shottake>
									<lognote></lognote>
									<good></good>
									<originalvideofilename></originalvideofilename>
									<originalaudiofilename></originalaudiofilename>
								</logginginfo>
								<colorinfo>
									<lut></lut>
									<lut1></lut1>
									<asc_sop></asc_sop>
									<asc_sat></asc_sat>
									<lut2></lut2>
								</colorinfo>
								<labels>
									<label2>Violet</label2>
								</labels>
							</clipitem>
							<clipitem id="clipitem-1212">
								<masterclipid>masterclip-280</masterclipid>
								<name>long-epic-flight-up-mountain-ridge-of-the-great-wall-of-china-SBV-326183861-HD.mp4</name>
								<enabled>TRUE</enabled>
								<duration>801</duration>
								<rate>
									<timebase>30</timebase>
									<ntsc>TRUE</ntsc>
								</rate>
								<start>48316</start>
								<end>48462</end>
								<in>604</in>
								<out>750</out>
								<pproTicksIn>5119302988800</pproTicksIn>
								<pproTicksOut>6356750400000</pproTicksOut>
								<alphatype>none</alphatype>
								<file id="file-255"/>
								<logginginfo>
									<description></description>
									<scene></scene>
									<shottake></shottake>
									<lognote></lognote>
									<good></good>
									<originalvideofilename></originalvideofilename>
									<originalaudiofilename></originalaudiofilename>
								</logginginfo>
								<colorinfo>
									<lut></lut>
									<lut1></lut1>
									<asc_sop></asc_sop>
									<asc_sat></asc_sat>
									<lut2></lut2>
								</colorinfo>
								<labels>
									<label2>Violet</label2>
								</labels>
							</clipitem>
							<clipitem id="clipitem-1213">
								<masterclipid>masterclip-283</masterclipid>
								<name>great-wall-of-china-aerial-drone-shot-drone-flies-backwards-and-upwards-SBV-347366055-HD.mp4</name>
								<enabled>TRUE</enabled>
								<duration>480</duration>
								<rate>
									<timebase>30</timebase>
									<ntsc>TRUE</ntsc>
								</rate>
								<start>48462</start>
								<end>48909</end>
								<in>0</in>
								<out>447</out>
								<pproTicksIn>0</pproTicksIn>
								<pproTicksOut>3788623238400</pproTicksOut>
								<alphatype>none</alphatype>
								<file id="file-258"/>
								<logginginfo>
									<description></description>
									<scene></scene>
									<shottake></shottake>
									<lognote></lognote>
									<good></good>
									<originalvideofilename></originalvideofilename>
									<originalaudiofilename></originalaudiofilename>
								</logginginfo>
								<colorinfo>
									<lut></lut>
									<lut1></lut1>
									<asc_sop></asc_sop>
									<asc_sat></asc_sat>
									<lut2></lut2>
								</colorinfo>
								<labels>
									<label2>Violet</label2>
								</labels>
							</clipitem>
							<clipitem id="clipitem-1214">
								<masterclipid>masterclip-288</masterclipid>
								<name>319810_Rooftops Residential Aerial Neighborhood_By_21_Aerials_Artlist_HD.mp4</name>
								<enabled>TRUE</enabled>
								<duration>610</duration>
								<rate>
									<timebase>30</timebase>
									<ntsc>TRUE</ntsc>
								</rate>
								<start>49613</start>
								<end>50161</end>
								<in>0</in>
								<out>548</out>
								<pproTicksIn>0</pproTicksIn>
								<pproTicksOut>4644665625600</pproTicksOut>
								<alphatype>none</alphatype>
								<file id="file-262"/>
								<logginginfo>
									<description></description>
									<scene></scene>
									<shottake></shottake>
									<lognote></lognote>
									<good></good>
									<originalvideofilename></originalvideofilename>
									<originalaudiofilename></originalaudiofilename>
								</logginginfo>
								<colorinfo>
									<lut></lut>
									<lut1></lut1>
									<asc_sop></asc_sop>
									<asc_sat></asc_sat>
									<lut2></lut2>
								</colorinfo>
								<labels>
									<label2>Violet</label2>
								</labels>
							</clipitem>
							<clipitem id="clipitem-1215">
								<masterclipid>masterclip-289</masterclipid>
								<name>319815_Rooftops Town Buildings Coast Shore_By_21_Aerials_Artlist_HD.mp4</name>
								<enabled>TRUE</enabled>
								<duration>431</duration>
								<rate>
									<timebase>30</timebase>
									<ntsc>TRUE</ntsc>
								</rate>
								<start>50161</start>
								<end>50295</end>
								<in>0</in>
								<out>134</out>
								<pproTicksIn>0</pproTicksIn>
								<pproTicksOut>1135739404800</pproTicksOut>
								<alphatype>none</alphatype>
								<file id="file-263"/>
								<logginginfo>
									<description></description>
									<scene></scene>
									<shottake></shottake>
									<lognote></lognote>
									<good></good>
									<originalvideofilename></originalvideofilename>
									<originalaudiofilename></originalaudiofilename>
								</logginginfo>
								<colorinfo>
									<lut></lut>
									<lut1></lut1>
									<asc_sop></asc_sop>
									<asc_sat></asc_sat>
									<lut2></lut2>
								</colorinfo>
								<labels>
									<label2>Violet</label2>
								</labels>
							</clipitem>
							<clipitem id="clipitem-1216">
								<masterclipid>masterclip-290</masterclipid>
								<name>319824_Ocean Cliff Aerial Coast_By_21_Aerials_Artlist_HD.mp4</name>
								<enabled>TRUE</enabled>
								<duration>511</duration>
								<rate>
									<timebase>30</timebase>
									<ntsc>TRUE</ntsc>
								</rate>
								<start>50295</start>
								<end>50709</end>
								<in>0</in>
								<out>414</out>
								<pproTicksIn>0</pproTicksIn>
								<pproTicksOut>3508926220800</pproTicksOut>
								<alphatype>none</alphatype>
								<file id="file-264"/>
								<logginginfo>
									<description></description>
									<scene></scene>
									<shottake></shottake>
									<lognote></lognote>
									<good></good>
									<originalvideofilename></originalvideofilename>
									<originalaudiofilename></originalaudiofilename>
								</logginginfo>
								<colorinfo>
									<lut></lut>
									<lut1></lut1>
									<asc_sop></asc_sop>
									<asc_sat></asc_sat>
									<lut2></lut2>
								</colorinfo>
								<labels>
									<label2>Violet</label2>
								</labels>
							</clipitem>
							<clipitem id="clipitem-1217">
								<masterclipid>masterclip-291</masterclipid>
								<name>319830_Town Buildings Waterway Ocean Canal Lagos_By_21_Aerials_Artlist_HD.mp4</name>
								<enabled>TRUE</enabled>
								<duration>394</duration>
								<rate>
									<timebase>30</timebase>
									<ntsc>TRUE</ntsc>
								</rate>
								<start>50709</start>
								<end>50981</end>
								<in>0</in>
								<out>272</out>
								<pproTicksIn>0</pproTicksIn>
								<pproTicksOut>2305381478400</pproTicksOut>
								<alphatype>none</alphatype>
								<file id="file-265"/>
								<logginginfo>
									<description></description>
									<scene></scene>
									<shottake></shottake>
									<lognote></lognote>
									<good></good>
									<originalvideofilename></originalvideofilename>
									<originalaudiofilename></originalaudiofilename>
								</logginginfo>
								<colorinfo>
									<lut></lut>
									<lut1></lut1>
									<asc_sop></asc_sop>
									<asc_sat></asc_sat>
									<lut2></lut2>
								</colorinfo>
								<labels>
									<label2>Violet</label2>
								</labels>
							</clipitem>
							<clipitem id="clipitem-1218">
								<masterclipid>masterclip-292</masterclipid>
								<name>319818_Rooftops Town Buildings Coast Shore_By_21_Aerials_Artlist_HD.mp4</name>
								<enabled>TRUE</enabled>
								<duration>693</duration>
								<rate>
									<timebase>30</timebase>
									<ntsc>TRUE</ntsc>
								</rate>
								<start>50981</start>
								<end>51255</end>
								<in>211</in>
								<out>485</out>
								<pproTicksIn>1788365779200</pproTicksIn>
								<pproTicksOut>4110698592000</pproTicksOut>
								<alphatype>none</alphatype>
								<file id="file-266"/>
								<logginginfo>
									<description></description>
									<scene></scene>
									<shottake></shottake>
									<lognote></lognote>
									<good></good>
									<originalvideofilename></originalvideofilename>
									<originalaudiofilename></originalaudiofilename>
								</logginginfo>
								<colorinfo>
									<lut></lut>
									<lut1></lut1>
									<asc_sop></asc_sop>
									<asc_sat></asc_sat>
									<lut2></lut2>
								</colorinfo>
								<labels>
									<label2>Violet</label2>
								</labels>
							</clipitem>
							<clipitem id="clipitem-1219">
								<masterclipid>masterclip-293</masterclipid>
								<name>319806_Road Coast Town Aerial_By_21_Aerials_Artlist_HD.mp4</name>
								<enabled>TRUE</enabled>
								<duration>883</duration>
								<rate>
									<timebase>30</timebase>
									<ntsc>TRUE</ntsc>
								</rate>
								<start>51255</start>
								<end>51529</end>
								<in>0</in>
								<out>274</out>
								<pproTicksIn>0</pproTicksIn>
								<pproTicksOut>2322332812800</pproTicksOut>
								<alphatype>none</alphatype>
								<file id="file-267"/>
								<logginginfo>
									<description></description>
									<scene></scene>
									<shottake></shottake>
									<lognote></lognote>
									<good></good>
									<originalvideofilename></originalvideofilename>
									<originalaudiofilename></originalaudiofilename>
								</logginginfo>
								<colorinfo>
									<lut></lut>
									<lut1></lut1>
									<asc_sop></asc_sop>
									<asc_sat></asc_sat>
									<lut2></lut2>
								</colorinfo>
								<labels>
									<label2>Violet</label2>
								</labels>
							</clipitem>
							<clipitem id="clipitem-1220">
								<masterclipid>masterclip-294</masterclipid>
								<name>319803_Footbridge Harbor Boats Aerial_By_21_Aerials_Artlist_HD.mp4</name>
								<enabled>TRUE</enabled>
								<duration>369</duration>
								<rate>
									<timebase>30</timebase>
									<ntsc>TRUE</ntsc>
								</rate>
								<start>51529</start>
								<end>51802</end>
								<in>58</in>
								<out>331</out>
								<pproTicksIn>491588697600</pproTicksIn>
								<pproTicksOut>2805445843200</pproTicksOut>
								<alphatype>none</alphatype>
								<file id="file-268"/>
								<logginginfo>
									<description></description>
									<scene></scene>
									<shottake></shottake>
									<lognote></lognote>
									<good></good>
									<originalvideofilename></originalvideofilename>
									<originalaudiofilename></originalaudiofilename>
								</logginginfo>
								<colorinfo>
									<lut></lut>
									<lut1></lut1>
									<asc_sop></asc_sop>
									<asc_sat></asc_sat>
									<lut2></lut2>
								</colorinfo>
								<labels>
									<label2>Violet</label2>
								</labels>
							</clipitem>
							<clipitem id="clipitem-1221">
								<masterclipid>masterclip-295</masterclipid>
								<name>319828_Harbor Wall Ocean Sea Waves_By_21_Aerials_Artlist_HD.mp4</name>
								<enabled>TRUE</enabled>
								<duration>455</duration>
								<rate>
									<timebase>30</timebase>
									<ntsc>TRUE</ntsc>
								</rate>
								<start>51802</start>
								<end>52077</end>
								<in>0</in>
								<out>275</out>
								<pproTicksIn>0</pproTicksIn>
								<pproTicksOut>2330808480000</pproTicksOut>
								<alphatype>none</alphatype>
								<file id="file-269"/>
								<logginginfo>
									<description></description>
									<scene></scene>
									<shottake></shottake>
									<lognote></lognote>
									<good></good>
									<originalvideofilename></originalvideofilename>
									<originalaudiofilename></originalaudiofilename>
								</logginginfo>
								<colorinfo>
									<lut></lut>
									<lut1></lut1>
									<asc_sop></asc_sop>
									<asc_sat></asc_sat>
									<lut2></lut2>
								</colorinfo>
								<labels>
									<label2>Violet</label2>
								</labels>
							</clipitem>
							<clipitem id="clipitem-1222">
								<masterclipid>masterclip-296</masterclipid>
								<name>319834_Road Coast Aerial Cars_By_21_Aerials_Artlist_HD.mp4</name>
								<enabled>TRUE</enabled>
								<duration>241</duration>
								<rate>
									<timebase>30</timebase>
									<ntsc>TRUE</ntsc>
								</rate>
								<start>52077</start>
								<end>52278</end>
								<in>0</in>
								<out>201</out>
								<pproTicksIn>0</pproTicksIn>
								<pproTicksOut>1703609107200</pproTicksOut>
								<alphatype>none</alphatype>
								<file id="file-270"/>
								<logginginfo>
									<description></description>
									<scene></scene>
									<shottake></shottake>
									<lognote></lognote>
									<good></good>
									<originalvideofilename></originalvideofilename>
									<originalaudiofilename></originalaudiofilename>
								</logginginfo>
								<colorinfo>
									<lut></lut>
									<lut1></lut1>
									<asc_sop></asc_sop>
									<asc_sat></asc_sat>
									<lut2></lut2>
								</colorinfo>
								<labels>
									<label2>Violet</label2>
								</labels>
							</clipitem>
							<clipitem id="clipitem-1223">
								<masterclipid>masterclip-291</masterclipid>
								<name>319830_Town Buildings Waterway Ocean Canal Lagos_By_21_Aerials_Artlist_HD.mp4</name>
								<enabled>TRUE</enabled>
								<duration>394</duration>
								<rate>
									<timebase>30</timebase>
									<ntsc>TRUE</ntsc>
								</rate>
								<start>52278</start>
								<end>52626</end>
								<in>0</in>
								<out>348</out>
								<pproTicksIn>0</pproTicksIn>
								<pproTicksOut>2949532185600</pproTicksOut>
								<alphatype>none</alphatype>
								<file id="file-265"/>
								<logginginfo>
									<description></description>
									<scene></scene>
									<shottake></shottake>
									<lognote></lognote>
									<good></good>
									<originalvideofilename></originalvideofilename>
									<originalaudiofilename></originalaudiofilename>
								</logginginfo>
								<colorinfo>
									<lut></lut>
									<lut1></lut1>
									<asc_sop></asc_sop>
									<asc_sat></asc_sat>
									<lut2></lut2>
								</colorinfo>
								<labels>
									<label2>Violet</label2>
								</labels>
							</clipitem>
							<clipitem id="clipitem-1224">
								<masterclipid>masterclip-297</masterclipid>
								<name>319793_Cliff Coast Beacon Ocean_By_21_Aerials_Artlist_HD.mp4</name>
								<enabled>TRUE</enabled>
								<duration>618</duration>
								<rate>
									<timebase>30</timebase>
									<ntsc>TRUE</ntsc>
								</rate>
								<start>52626</start>
								<end>52899</end>
								<in>0</in>
								<out>273</out>
								<pproTicksIn>0</pproTicksIn>
								<pproTicksOut>2313857145600</pproTicksOut>
								<alphatype>none</alphatype>
								<file id="file-271"/>
								<logginginfo>
									<description></description>
									<scene></scene>
									<shottake></shottake>
									<lognote></lognote>
									<good></good>
									<originalvideofilename></originalvideofilename>
									<originalaudiofilename></originalaudiofilename>
								</logginginfo>
								<colorinfo>
									<lut></lut>
									<lut1></lut1>
									<asc_sop></asc_sop>
									<asc_sat></asc_sat>
									<lut2></lut2>
								</colorinfo>
								<labels>
									<label2>Violet</label2>
								</labels>
							</clipitem>
							<clipitem id="clipitem-1225">
								<masterclipid>masterclip-298</masterclipid>
								<name>319812_Town Buildings Lagos Aerial Ocean_By_21_Aerials_Artlist_HD.mp4</name>
								<enabled>TRUE</enabled>
								<duration>645</duration>
								<rate>
									<timebase>30</timebase>
									<ntsc>TRUE</ntsc>
								</rate>
								<start>52899</start>
								<end>53448</end>
								<in>0</in>
								<out>549</out>
								<pproTicksIn>0</pproTicksIn>
								<pproTicksOut>4653141292800</pproTicksOut>
								<alphatype>none</alphatype>
								<file id="file-272"/>
								<logginginfo>
									<description></description>
									<scene></scene>
									<shottake></shottake>
									<lognote></lognote>
									<good></good>
									<originalvideofilename></originalvideofilename>
									<originalaudiofilename></originalaudiofilename>
								</logginginfo>
								<colorinfo>
									<lut></lut>
									<lut1></lut1>
									<asc_sop></asc_sop>
									<asc_sat></asc_sat>
									<lut2></lut2>
								</colorinfo>
								<labels>
									<label2>Violet</label2>
								</labels>
							</clipitem>
							<clipitem id="clipitem-1226">
								<masterclipid>masterclip-299</masterclipid>
								<name>319802_Coast Ocean Cliff Aerial_By_21_Aerials_Artlist_HD.mp4</name>
								<enabled>TRUE</enabled>
								<duration>731</duration>
								<rate>
									<timebase>30</timebase>
									<ntsc>TRUE</ntsc>
								</rate>
								<start>53448</start>
								<end>53993</end>
								<in>0</in>
								<out>545</out>
								<pproTicksIn>0</pproTicksIn>
								<pproTicksOut>4619238624000</pproTicksOut>
								<alphatype>none</alphatype>
								<file id="file-273"/>
								<logginginfo>
									<description></description>
									<scene></scene>
									<shottake></shottake>
									<lognote></lognote>
									<good></good>
									<originalvideofilename></originalvideofilename>
									<originalaudiofilename></originalaudiofilename>
								</logginginfo>
								<colorinfo>
									<lut></lut>
									<lut1></lut1>
									<asc_sop></asc_sop>
									<asc_sat></asc_sat>
									<lut2></lut2>
								</colorinfo>
								<labels>
									<label2>Violet</label2>
								</labels>
							</clipitem>
							<clipitem id="clipitem-1227">
								<masterclipid>masterclip-300</masterclipid>
								<name>319839_Cliff Coast Erosion Beach_By_21_Aerials_Artlist_HD.mp4</name>
								<enabled>TRUE</enabled>
								<duration>441</duration>
								<rate>
									<timebase>30</timebase>
									<ntsc>TRUE</ntsc>
								</rate>
								<start>53993</start>
								<end>54405</end>
								<in>0</in>
								<out>412</out>
								<pproTicksIn>0</pproTicksIn>
								<pproTicksOut>3491974886400</pproTicksOut>
								<alphatype>none</alphatype>
								<file id="file-274"/>
								<logginginfo>
									<description></description>
									<scene></scene>
									<shottake></shottake>
									<lognote></lognote>
									<good></good>
									<originalvideofilename></originalvideofilename>
									<originalaudiofilename></originalaudiofilename>
								</logginginfo>
								<colorinfo>
									<lut></lut>
									<lut1></lut1>
									<asc_sop></asc_sop>
									<asc_sat></asc_sat>
									<lut2></lut2>
								</colorinfo>
								<labels>
									<label2>Violet</label2>
								</labels>
							</clipitem>
							<clipitem id="clipitem-1228">
								<masterclipid>masterclip-301</masterclipid>
								<name>319811_Rooftops Residential Aerial Neighborhood_By_21_Aerials_Artlist_HD.mp4</name>
								<enabled>TRUE</enabled>
								<duration>587</duration>
								<rate>
									<timebase>30</timebase>
									<ntsc>TRUE</ntsc>
								</rate>
								<start>54405</start>
								<end>54797</end>
								<in>0</in>
								<out>392</out>
								<pproTicksIn>0</pproTicksIn>
								<pproTicksOut>3322461542400</pproTicksOut>
								<alphatype>none</alphatype>
								<file id="file-275"/>
								<logginginfo>
									<description></description>
									<scene></scene>
									<shottake></shottake>
									<lognote></lognote>
									<good></good>
									<originalvideofilename></originalvideofilename>
									<originalaudiofilename></originalaudiofilename>
								</logginginfo>
								<colorinfo>
									<lut></lut>
									<lut1></lut1>
									<asc_sop></asc_sop>
									<asc_sat></asc_sat>
									<lut2></lut2>
								</colorinfo>
								<labels>
									<label2>Violet</label2>
								</labels>
							</clipitem>
							<clipitem id="clipitem-1229">
								<masterclipid>masterclip-306</masterclipid>
								<name>569133_Mountains View Summit Highland_By_Jmg-visuals__Artlist_HD.mp4</name>
								<enabled>TRUE</enabled>
								<duration>626</duration>
								<rate>
									<timebase>30</timebase>
									<ntsc>TRUE</ntsc>
								</rate>
								<start>55500</start>
								<end>56023</end>
								<in>0</in>
								<out>523</out>
								<pproTicksIn>0</pproTicksIn>
								<pproTicksOut>4432773945600</pproTicksOut>
								<alphatype>none</alphatype>
								<file id="file-279"/>
								<logginginfo>
									<description></description>
									<scene></scene>
									<shottake></shottake>
									<lognote></lognote>
									<good></good>
									<originalvideofilename></originalvideofilename>
									<originalaudiofilename></originalaudiofilename>
								</logginginfo>
								<colorinfo>
									<lut></lut>
									<lut1></lut1>
									<asc_sop></asc_sop>
									<asc_sat></asc_sat>
									<lut2></lut2>
								</colorinfo>
								<labels>
									<label2>Violet</label2>
								</labels>
							</clipitem>
							<clipitem id="clipitem-1230">
								<masterclipid>masterclip-307</masterclipid>
								<name>569139_Mountains Fog View Summit_By_Jmg-visuals__Artlist_HD.mp4</name>
								<enabled>TRUE</enabled>
								<duration>841</duration>
								<rate>
									<timebase>30</timebase>
									<ntsc>TRUE</ntsc>
								</rate>
								<start>56023</start>
								<end>56283</end>
								<in>0</in>
								<out>260</out>
								<pproTicksIn>0</pproTicksIn>
								<pproTicksOut>2203673472000</pproTicksOut>
								<alphatype>none</alphatype>
								<file id="file-280"/>
								<logginginfo>
									<description></description>
									<scene></scene>
									<shottake></shottake>
									<lognote></lognote>
									<good></good>
									<originalvideofilename></originalvideofilename>
									<originalaudiofilename></originalaudiofilename>
								</logginginfo>
								<colorinfo>
									<lut></lut>
									<lut1></lut1>
									<asc_sop></asc_sop>
									<asc_sat></asc_sat>
									<lut2></lut2>
								</colorinfo>
								<labels>
									<label2>Violet</label2>
								</labels>
							</clipitem>
							<clipitem id="clipitem-1231">
								<masterclipid>masterclip-308</masterclipid>
								<name>569120_Mountains Snow Drone Summit_By_Jmg-visuals__Artlist_HD.mp4</name>
								<enabled>TRUE</enabled>
								<duration>469</duration>
								<rate>
									<timebase>30</timebase>
									<ntsc>TRUE</ntsc>
								</rate>
								<start>56283</start>
								<end>56540</end>
								<in>0</in>
								<out>257</out>
								<pproTicksIn>0</pproTicksIn>
								<pproTicksOut>2178246470400</pproTicksOut>
								<alphatype>none</alphatype>
								<file id="file-281"/>
								<logginginfo>
									<description></description>
									<scene></scene>
									<shottake></shottake>
									<lognote></lognote>
									<good></good>
									<originalvideofilename></originalvideofilename>
									<originalaudiofilename></originalaudiofilename>
								</logginginfo>
								<colorinfo>
									<lut></lut>
									<lut1></lut1>
									<asc_sop></asc_sop>
									<asc_sat></asc_sat>
									<lut2></lut2>
								</colorinfo>
								<labels>
									<label2>Violet</label2>
								</labels>
							</clipitem>
							<clipitem id="clipitem-1232">
								<masterclipid>masterclip-309</masterclipid>
								<name>569130_Mountains Fog View Summit_By_Jmg-visuals__Artlist_HD.mp4</name>
								<enabled>TRUE</enabled>
								<duration>529</duration>
								<rate>
									<timebase>30</timebase>
									<ntsc>TRUE</ntsc>
								</rate>
								<start>56540</start>
								<end>56802</end>
								<in>0</in>
								<out>262</out>
								<pproTicksIn>0</pproTicksIn>
								<pproTicksOut>2220624806400</pproTicksOut>
								<alphatype>none</alphatype>
								<file id="file-282"/>
								<logginginfo>
									<description></description>
									<scene></scene>
									<shottake></shottake>
									<lognote></lognote>
									<good></good>
									<originalvideofilename></originalvideofilename>
									<originalaudiofilename></originalaudiofilename>
								</logginginfo>
								<colorinfo>
									<lut></lut>
									<lut1></lut1>
									<asc_sop></asc_sop>
									<asc_sat></asc_sat>
									<lut2></lut2>
								</colorinfo>
								<labels>
									<label2>Violet</label2>
								</labels>
							</clipitem>
							<clipitem id="clipitem-1233">
								<masterclipid>masterclip-310</masterclipid>
								<name>569125_Mountains Fog View Summit_By_Jmg-visuals__Artlist_HD.mp4</name>
								<enabled>TRUE</enabled>
								<duration>322</duration>
								<rate>
									<timebase>30</timebase>
									<ntsc>TRUE</ntsc>
								</rate>
								<start>56802</start>
								<end>57071</end>
								<in>0</in>
								<out>269</out>
								<pproTicksIn>0</pproTicksIn>
								<pproTicksOut>2279954476800</pproTicksOut>
								<alphatype>none</alphatype>
								<file id="file-283"/>
								<logginginfo>
									<description></description>
									<scene></scene>
									<shottake></shottake>
									<lognote></lognote>
									<good></good>
									<originalvideofilename></originalvideofilename>
									<originalaudiofilename></originalaudiofilename>
								</logginginfo>
								<colorinfo>
									<lut></lut>
									<lut1></lut1>
									<asc_sop></asc_sop>
									<asc_sat></asc_sat>
									<lut2></lut2>
								</colorinfo>
								<labels>
									<label2>Violet</label2>
								</labels>
							</clipitem>
							<clipitem id="clipitem-1234">
								<masterclipid>masterclip-311</masterclipid>
								<name>569136_Mountains View Summit Highland_By_Jmg-visuals__Artlist_HD.mp4</name>
								<enabled>TRUE</enabled>
								<duration>567</duration>
								<rate>
									<timebase>30</timebase>
									<ntsc>TRUE</ntsc>
								</rate>
								<start>57071</start>
								<end>57330</end>
								<in>0</in>
								<out>259</out>
								<pproTicksIn>0</pproTicksIn>
								<pproTicksOut>2195197804800</pproTicksOut>
								<alphatype>none</alphatype>
								<file id="file-284"/>
								<logginginfo>
									<description></description>
									<scene></scene>
									<shottake></shottake>
									<lognote></lognote>
									<good></good>
									<originalvideofilename></originalvideofilename>
									<originalaudiofilename></originalaudiofilename>
								</logginginfo>
								<colorinfo>
									<lut></lut>
									<lut1></lut1>
									<asc_sop></asc_sop>
									<asc_sat></asc_sat>
									<lut2></lut2>
								</colorinfo>
								<labels>
									<label2>Violet</label2>
								</labels>
							</clipitem>
							<clipitem id="clipitem-1235">
								<masterclipid>masterclip-312</masterclipid>
								<name>569115_Mountains Drone Summit Above_By_Jmg-visuals__Artlist_HD.mp4</name>
								<enabled>TRUE</enabled>
								<duration>713</duration>
								<rate>
									<timebase>30</timebase>
									<ntsc>TRUE</ntsc>
								</rate>
								<start>57330</start>
								<end>57853</end>
								<in>0</in>
								<out>523</out>
								<pproTicksIn>0</pproTicksIn>
								<pproTicksOut>4432773945600</pproTicksOut>
								<alphatype>none</alphatype>
								<file id="file-285"/>
								<logginginfo>
									<description></description>
									<scene></scene>
									<shottake></shottake>
									<lognote></lognote>
									<good></good>
									<originalvideofilename></originalvideofilename>
									<originalaudiofilename></originalaudiofilename>
								</logginginfo>
								<colorinfo>
									<lut></lut>
									<lut1></lut1>
									<asc_sop></asc_sop>
									<asc_sat></asc_sat>
									<lut2></lut2>
								</colorinfo>
								<labels>
									<label2>Violet</label2>
								</labels>
							</clipitem>
							<clipitem id="clipitem-1236">
								<masterclipid>masterclip-313</masterclipid>
								<name>569121_Valley Ponds Scenic Above_By_Jmg-visuals__Artlist_HD.mp4</name>
								<enabled>TRUE</enabled>
								<duration>1029</duration>
								<rate>
									<timebase>30</timebase>
									<ntsc>TRUE</ntsc>
								</rate>
								<start>57853</start>
								<end>58377</end>
								<in>0</in>
								<out>524</out>
								<pproTicksIn>0</pproTicksIn>
								<pproTicksOut>4441249612800</pproTicksOut>
								<alphatype>none</alphatype>
								<file id="file-286"/>
								<logginginfo>
									<description></description>
									<scene></scene>
									<shottake></shottake>
									<lognote></lognote>
									<good></good>
									<originalvideofilename></originalvideofilename>
									<originalaudiofilename></originalaudiofilename>
								</logginginfo>
								<colorinfo>
									<lut></lut>
									<lut1></lut1>
									<asc_sop></asc_sop>
									<asc_sat></asc_sat>
									<lut2></lut2>
								</colorinfo>
								<labels>
									<label2>Violet</label2>
								</labels>
							</clipitem>
							<clipitem id="clipitem-1237">
								<masterclipid>masterclip-314</masterclipid>
								<name>569123_Valley Sheep Scenic Above_By_Jmg-visuals__Artlist_HD.mp4</name>
								<enabled>TRUE</enabled>
								<duration>1023</duration>
								<rate>
									<timebase>30</timebase>
									<ntsc>TRUE</ntsc>
								</rate>
								<start>58377</start>
								<end>59032</end>
								<in>0</in>
								<out>655</out>
								<pproTicksIn>0</pproTicksIn>
								<pproTicksOut>5551562016000</pproTicksOut>
								<alphatype>none</alphatype>
								<file id="file-287"/>
								<logginginfo>
									<description></description>
									<scene></scene>
									<shottake></shottake>
									<lognote></lognote>
									<good></good>
									<originalvideofilename></originalvideofilename>
									<originalaudiofilename></originalaudiofilename>
								</logginginfo>
								<colorinfo>
									<lut></lut>
									<lut1></lut1>
									<asc_sop></asc_sop>
									<asc_sat></asc_sat>
									<lut2></lut2>
								</colorinfo>
								<labels>
									<label2>Violet</label2>
								</labels>
							</clipitem>
							<clipitem id="clipitem-1238">
								<masterclipid>masterclip-315</masterclipid>
								<name>569111_Mountains Drone Summit Above_By_Jmg-visuals__Artlist_HD.mp4</name>
								<enabled>TRUE</enabled>
								<duration>695</duration>
								<rate>
									<timebase>30</timebase>
									<ntsc>TRUE</ntsc>
								</rate>
								<start>59032</start>
								<end>59426</end>
								<in>0</in>
								<out>394</out>
								<pproTicksIn>0</pproTicksIn>
								<pproTicksOut>3339412876800</pproTicksOut>
								<alphatype>none</alphatype>
								<file id="file-288"/>
								<logginginfo>
									<description></description>
									<scene></scene>
									<shottake></shottake>
									<lognote></lognote>
									<good></good>
									<originalvideofilename></originalvideofilename>
									<originalaudiofilename></originalaudiofilename>
								</logginginfo>
								<colorinfo>
									<lut></lut>
									<lut1></lut1>
									<asc_sop></asc_sop>
									<asc_sat></asc_sat>
									<lut2></lut2>
								</colorinfo>
								<labels>
									<label2>Violet</label2>
								</labels>
							</clipitem>
							<clipitem id="clipitem-1239">
								<masterclipid>masterclip-316</masterclipid>
								<name>569135_Mountains View Summit Highland_By_Jmg-visuals__Artlist_HD.mp4</name>
								<enabled>TRUE</enabled>
								<duration>1038</duration>
								<rate>
									<timebase>30</timebase>
									<ntsc>TRUE</ntsc>
								</rate>
								<start>59426</start>
								<end>60076</end>
								<in>0</in>
								<out>650</out>
								<pproTicksIn>0</pproTicksIn>
								<pproTicksOut>5509183680000</pproTicksOut>
								<alphatype>none</alphatype>
								<file id="file-289"/>
								<logginginfo>
									<description></description>
									<scene></scene>
									<shottake></shottake>
									<lognote></lognote>
									<good></good>
									<originalvideofilename></originalvideofilename>
									<originalaudiofilename></originalaudiofilename>
								</logginginfo>
								<colorinfo>
									<lut></lut>
									<lut1></lut1>
									<asc_sop></asc_sop>
									<asc_sat></asc_sat>
									<lut2></lut2>
								</colorinfo>
								<labels>
									<label2>Violet</label2>
								</labels>
							</clipitem>
							<clipitem id="clipitem-1240">
								<masterclipid>masterclip-317</masterclipid>
								<name>569127_Mountains Fog View Summit_By_Jmg-visuals__Artlist_HD.mp4</name>
								<enabled>TRUE</enabled>
								<duration>845</duration>
								<rate>
									<timebase>30</timebase>
									<ntsc>TRUE</ntsc>
								</rate>
								<start>60076</start>
								<end>60276</end>
								<in>0</in>
								<out>200</out>
								<pproTicksIn>0</pproTicksIn>
								<pproTicksOut>1695133440000</pproTicksOut>
								<alphatype>none</alphatype>
								<file id="file-290"/>
								<logginginfo>
									<description></description>
									<scene></scene>
									<shottake></shottake>
									<lognote></lognote>
									<good></good>
									<originalvideofilename></originalvideofilename>
									<originalaudiofilename></originalaudiofilename>
								</logginginfo>
								<colorinfo>
									<lut></lut>
									<lut1></lut1>
									<asc_sop></asc_sop>
									<asc_sat></asc_sat>
									<lut2></lut2>
								</colorinfo>
								<labels>
									<label2>Violet</label2>
								</labels>
							</clipitem>
							<clipitem id="clipitem-1241">
								<masterclipid>masterclip-318</masterclipid>
								<name>569114_Mountains Drone Summit Above_By_Jmg-visuals__Artlist_HD.mp4</name>
								<enabled>TRUE</enabled>
								<duration>556</duration>
								<rate>
									<timebase>30</timebase>
									<ntsc>TRUE</ntsc>
								</rate>
								<start>60276</start>
								<end>60469</end>
								<in>0</in>
								<out>193</out>
								<pproTicksIn>0</pproTicksIn>
								<pproTicksOut>1635803769600</pproTicksOut>
								<alphatype>none</alphatype>
								<file id="file-291"/>
								<logginginfo>
									<description></description>
									<scene></scene>
									<shottake></shottake>
									<lognote></lognote>
									<good></good>
									<originalvideofilename></originalvideofilename>
									<originalaudiofilename></originalaudiofilename>
								</logginginfo>
								<colorinfo>
									<lut></lut>
									<lut1></lut1>
									<asc_sop></asc_sop>
									<asc_sat></asc_sat>
									<lut2></lut2>
								</colorinfo>
								<labels>
									<label2>Violet</label2>
								</labels>
							</clipitem>
							<clipitem id="clipitem-1242">
								<masterclipid>masterclip-319</masterclipid>
								<name>569126_Mountains Fog View Summit_By_Jmg-visuals__Artlist_HD.mp4</name>
								<enabled>TRUE</enabled>
								<duration>237</duration>
								<rate>
									<timebase>30</timebase>
									<ntsc>TRUE</ntsc>
								</rate>
								<start>60469</start>
								<end>60667</end>
								<in>0</in>
								<out>198</out>
								<pproTicksIn>0</pproTicksIn>
								<pproTicksOut>1678182105600</pproTicksOut>
								<alphatype>none</alphatype>
								<file id="file-292"/>
								<logginginfo>
									<description></description>
									<scene></scene>
									<shottake></shottake>
									<lognote></lognote>
									<good></good>
									<originalvideofilename></originalvideofilename>
									<originalaudiofilename></originalaudiofilename>
								</logginginfo>
								<colorinfo>
									<lut></lut>
									<lut1></lut1>
									<asc_sop></asc_sop>
									<asc_sat></asc_sat>
									<lut2></lut2>
								</colorinfo>
								<labels>
									<label2>Violet</label2>
								</labels>
							</clipitem>
							<clipitem id="clipitem-1243">
								<masterclipid>masterclip-320</masterclipid>
								<name>569131_Mountains Fog View Summit_By_Jmg-visuals__Artlist_HD.mp4</name>
								<enabled>TRUE</enabled>
								<duration>644</duration>
								<rate>
									<timebase>30</timebase>
									<ntsc>TRUE</ntsc>
								</rate>
								<start>60667</start>
								<end>60992</end>
								<in>0</in>
								<out>325</out>
								<pproTicksIn>0</pproTicksIn>
								<pproTicksOut>2754591840000</pproTicksOut>
								<alphatype>none</alphatype>
								<file id="file-293"/>
								<logginginfo>
									<description></description>
									<scene></scene>
									<shottake></shottake>
									<lognote></lognote>
									<good></good>
									<originalvideofilename></originalvideofilename>
									<originalaudiofilename></originalaudiofilename>
								</logginginfo>
								<colorinfo>
									<lut></lut>
									<lut1></lut1>
									<asc_sop></asc_sop>
									<asc_sat></asc_sat>
									<lut2></lut2>
								</colorinfo>
								<labels>
									<label2>Violet</label2>
								</labels>
							</clipitem>
							<enabled>TRUE</enabled>
							<locked>FALSE</locked>
						</track>
						<track TL.SQTrackShy="0" TL.SQTrackExpandedHeight="25" TL.SQTrackExpanded="0" MZ.TrackTargeted="0">
							<clipitem id="clipitem-1244">
								<masterclipid>masterclip-327</masterclipid>
								<name>Loud FPV</name>
								<enabled>TRUE</enabled>
								<duration>5844</duration>
								<rate>
									<timebase>30</timebase>
									<ntsc>TRUE</ntsc>
								</rate>
								<start>0</start>
								<end>5043</end>
								<in>0</in>
								<out>5043</out>
								<pproTicksIn>0</pproTicksIn>
								<pproTicksOut>42742789689600</pproTicksOut>
								<alphatype>straight</alphatype>
								<file id="file-299"/>
								<logginginfo>
									<description></description>
									<scene></scene>
									<shottake></shottake>
									<lognote></lognote>
									<good></good>
									<originalvideofilename></originalvideofilename>
									<originalaudiofilename></originalaudiofilename>
								</logginginfo>
								<colorinfo>
									<lut></lut>
									<lut1></lut1>
									<asc_sop></asc_sop>
									<asc_sat></asc_sat>
									<lut2></lut2>
								</colorinfo>
								<labels>
									<label2>Yellow</label2>
								</labels>
							</clipitem>
							<clipitem id="clipitem-1245">
								<masterclipid>masterclip-196</masterclipid>
								<name>LÓCI</name>
								<enabled>TRUE</enabled>
								<duration>5844</duration>
								<rate>
									<timebase>30</timebase>
									<ntsc>TRUE</ntsc>
								</rate>
								<start>20781</start>
								<end>21589</end>
								<in>0</in>
								<out>808</out>
								<pproTicksIn>0</pproTicksIn>
								<pproTicksOut>6848339097600</pproTicksOut>
								<alphatype>straight</alphatype>
								<file id="file-183"/>
								<logginginfo>
									<description></description>
									<scene></scene>
									<shottake></shottake>
									<lognote></lognote>
									<good></good>
									<originalvideofilename></originalvideofilename>
									<originalaudiofilename></originalaudiofilename>
								</logginginfo>
								<colorinfo>
									<lut></lut>
									<lut1></lut1>
									<asc_sop></asc_sop>
									<asc_sat></asc_sat>
									<lut2></lut2>
								</colorinfo>
								<labels>
									<label2>Yellow</label2>
								</labels>
							</clipitem>
							<clipitem id="clipitem-1246">
								<masterclipid>masterclip-196</masterclipid>
								<name>LÓCI</name>
								<enabled>TRUE</enabled>
								<duration>5844</duration>
								<rate>
									<timebase>30</timebase>
									<ntsc>TRUE</ntsc>
								</rate>
								<start>21589</start>
								<end>21654</end>
								<in>816</in>
								<out>881</out>
								<pproTicksIn>6916144435200</pproTicksIn>
								<pproTicksOut>7467062803200</pproTicksOut>
								<alphatype>straight</alphatype>
								<file id="file-183"/>
								<logginginfo>
									<description></description>
									<scene></scene>
									<shottake></shottake>
									<lognote></lognote>
									<good></good>
									<originalvideofilename></originalvideofilename>
									<originalaudiofilename></originalaudiofilename>
								</logginginfo>
								<colorinfo>
									<lut></lut>
									<lut1></lut1>
									<asc_sop></asc_sop>
									<asc_sat></asc_sat>
									<lut2></lut2>
								</colorinfo>
								<labels>
									<label2>Yellow</label2>
								</labels>
							</clipitem>
							<clipitem id="clipitem-1247">
								<masterclipid>masterclip-196</masterclipid>
								<name>LÓCI</name>
								<enabled>TRUE</enabled>
								<duration>5844</duration>
								<rate>
									<timebase>30</timebase>
									<ntsc>TRUE</ntsc>
								</rate>
								<start>21654</start>
								<end>21779</end>
								<in>928</in>
								<out>1053</out>
								<pproTicksIn>7865419161600</pproTicksIn>
								<pproTicksOut>8924877561600</pproTicksOut>
								<alphatype>straight</alphatype>
								<file id="file-183"/>
								<logginginfo>
									<description></description>
									<scene></scene>
									<shottake></shottake>
									<lognote></lognote>
									<good></good>
									<originalvideofilename></originalvideofilename>
									<originalaudiofilename></originalaudiofilename>
								</logginginfo>
								<colorinfo>
									<lut></lut>
									<lut1></lut1>
									<asc_sop></asc_sop>
									<asc_sat></asc_sat>
									<lut2></lut2>
								</colorinfo>
								<labels>
									<label2>Yellow</label2>
								</labels>
							</clipitem>
							<clipitem id="clipitem-1248">
								<masterclipid>masterclip-196</masterclipid>
								<name>LÓCI</name>
								<enabled>TRUE</enabled>
								<duration>5844</duration>
								<rate>
									<timebase>30</timebase>
									<ntsc>TRUE</ntsc>
								</rate>
								<start>21779</start>
								<end>21981</end>
								<in>1063</in>
								<out>1265</out>
								<pproTicksIn>9009634233600</pproTicksIn>
								<pproTicksOut>10721719008000</pproTicksOut>
								<alphatype>straight</alphatype>
								<file id="file-183"/>
								<logginginfo>
									<description></description>
									<scene></scene>
									<shottake></shottake>
									<lognote></lognote>
									<good></good>
									<originalvideofilename></originalvideofilename>
									<originalaudiofilename></originalaudiofilename>
								</logginginfo>
								<colorinfo>
									<lut></lut>
									<lut1></lut1>
									<asc_sop></asc_sop>
									<asc_sat></asc_sat>
									<lut2></lut2>
								</colorinfo>
								<labels>
									<label2>Yellow</label2>
								</labels>
							</clipitem>
							<clipitem id="clipitem-1249">
								<masterclipid>masterclip-196</masterclipid>
								<name>LÓCI</name>
								<enabled>TRUE</enabled>
								<duration>5844</duration>
								<rate>
									<timebase>30</timebase>
									<ntsc>TRUE</ntsc>
								</rate>
								<start>21981</start>
								<end>22094</end>
								<in>1285</in>
								<out>1398</out>
								<pproTicksIn>10891232352000</pproTicksIn>
								<pproTicksOut>11848982745600</pproTicksOut>
								<alphatype>straight</alphatype>
								<file id="file-183"/>
								<logginginfo>
									<description></description>
									<scene></scene>
									<shottake></shottake>
									<lognote></lognote>
									<good></good>
									<originalvideofilename></originalvideofilename>
									<originalaudiofilename></originalaudiofilename>
								</logginginfo>
								<colorinfo>
									<lut></lut>
									<lut1></lut1>
									<asc_sop></asc_sop>
									<asc_sat></asc_sat>
									<lut2></lut2>
								</colorinfo>
								<labels>
									<label2>Yellow</label2>
								</labels>
							</clipitem>
							<clipitem id="clipitem-1250">
								<masterclipid>masterclip-196</masterclipid>
								<name>LÓCI</name>
								<enabled>TRUE</enabled>
								<duration>5844</duration>
								<rate>
									<timebase>30</timebase>
									<ntsc>TRUE</ntsc>
								</rate>
								<start>22094</start>
								<end>22662</end>
								<in>1430</in>
								<out>1998</out>
								<pproTicksIn>12120204096000</pproTicksIn>
								<pproTicksOut>16934383065600</pproTicksOut>
								<alphatype>straight</alphatype>
								<file id="file-183"/>
								<logginginfo>
									<description></description>
									<scene></scene>
									<shottake></shottake>
									<lognote></lognote>
									<good></good>
									<originalvideofilename></originalvideofilename>
									<originalaudiofilename></originalaudiofilename>
								</logginginfo>
								<colorinfo>
									<lut></lut>
									<lut1></lut1>
									<asc_sop></asc_sop>
									<asc_sat></asc_sat>
									<lut2></lut2>
								</colorinfo>
								<labels>
									<label2>Yellow</label2>
								</labels>
							</clipitem>
							<clipitem id="clipitem-1251">
								<masterclipid>masterclip-196</masterclipid>
								<name>LÓCI</name>
								<enabled>TRUE</enabled>
								<duration>5844</duration>
								<rate>
									<timebase>30</timebase>
									<ntsc>TRUE</ntsc>
								</rate>
								<start>22662</start>
								<end>23725</end>
								<in>2101</in>
								<out>3164</out>
								<pproTicksIn>17807376787200</pproTicksIn>
								<pproTicksOut>26817011020800</pproTicksOut>
								<alphatype>straight</alphatype>
								<file id="file-183"/>
								<logginginfo>
									<description></description>
									<scene></scene>
									<shottake></shottake>
									<lognote></lognote>
									<good></good>
									<originalvideofilename></originalvideofilename>
									<originalaudiofilename></originalaudiofilename>
								</logginginfo>
								<colorinfo>
									<lut></lut>
									<lut1></lut1>
									<asc_sop></asc_sop>
									<asc_sat></asc_sat>
									<lut2></lut2>
								</colorinfo>
								<labels>
									<label2>Yellow</label2>
								</labels>
							</clipitem>
							<clipitem id="clipitem-1252">
								<masterclipid>masterclip-245</masterclipid>
								<name>TOMZ FPV</name>
								<enabled>TRUE</enabled>
								<duration>5844</duration>
								<rate>
									<timebase>30</timebase>
									<ntsc>TRUE</ntsc>
								</rate>
								<start>34377</start>
								<end>36687</end>
								<in>0</in>
								<out>2310</out>
								<pproTicksIn>0</pproTicksIn>
								<pproTicksOut>19578791232000</pproTicksOut>
								<alphatype>straight</alphatype>
								<file id="file-224"/>
								<logginginfo>
									<description></description>
									<scene></scene>
									<shottake></shottake>
									<lognote></lognote>
									<good></good>
									<originalvideofilename></originalvideofilename>
									<originalaudiofilename></originalaudiofilename>
								</logginginfo>
								<colorinfo>
									<lut></lut>
									<lut1></lut1>
									<asc_sop></asc_sop>
									<asc_sat></asc_sat>
									<lut2></lut2>
								</colorinfo>
								<labels>
									<label2>Yellow</label2>
								</labels>
							</clipitem>
							<enabled>TRUE</enabled>
							<locked>FALSE</locked>
						</track>
						<track TL.SQTrackShy="0" TL.SQTrackExpandedHeight="25" TL.SQTrackExpanded="0" MZ.TrackTargeted="0">
							<enabled>TRUE</enabled>
							<locked>FALSE</locked>
						</track>
					</video>
					<audio>
						<numOutputChannels>2</numOutputChannels>
						<format>
							<samplecharacteristics>
								<depth>16</depth>
								<samplerate>48000</samplerate>
							</samplecharacteristics>
						</format>
						<outputs>
							<group>
								<index>1</index>
								<numchannels>1</numchannels>
								<downmix>0</downmix>
								<channel>
									<index>1</index>
								</channel>
							</group>
							<group>
								<index>2</index>
								<numchannels>1</numchannels>
								<downmix>0</downmix>
								<channel>
									<index>2</index>
								</channel>
							</group>
						</outputs>
						<track TL.SQTrackAudioKeyframeStyle="0" TL.SQTrackShy="0" TL.SQTrackExpandedHeight="25" TL.SQTrackExpanded="0" MZ.TrackTargeted="1" PannerCurrentValue="0.5" PannerIsInverted="true" PannerStartKeyframe="-91445760000000000,0.5,0,0,0,0,0,0" PannerName="Balance" currentExplodedTrackIndex="0" totalExplodedTrackCount="2" premiereTrackType="Stereo">
							<transitionitem>
								<start>0</start>
								<end>7</end>
								<pproTicksIn>0</pproTicksIn>
								<pproTicksOut>59329670400</pproTicksOut>
								<alignment>start-black</alignment>
								<cutPointTicks>0</cutPointTicks>
								<rate>
									<timebase>30</timebase>
									<ntsc>TRUE</ntsc>
								</rate>
								<effect>
									<name>Cross Fade ( 0dB)</name>
									<effectid>KGAudioTransCrossFade0dB</effectid>
									<effecttype>transition</effecttype>
									<mediatype>audio</mediatype>
									<wipecode>0</wipecode>
									<wipeaccuracy>100</wipeaccuracy>
									<startratio>0</startratio>
									<endratio>1</endratio>
									<reverse>FALSE</reverse>
								</effect>
							</transitionitem>
							<clipitem id="clipitem-1253" premiereChannelType="stereo">
								<masterclipid>masterclip-328</masterclipid>
								<name>ES_Em Baixo (Instrumental Version) - Clara Mendes.mp3</name>
								<enabled>TRUE</enabled>
								<duration>5573</duration>
								<rate>
									<timebase>30</timebase>
									<ntsc>TRUE</ntsc>
								</rate>
								<start>-1</start>
								<end>-1</end>
								<in>218</in>
								<out>5261</out>
								<pproTicksIn>1847695449600</pproTicksIn>
								<pproTicksOut>44590485139200</pproTicksOut>
								<file id="file-300"/>
								<sourcetrack>
									<mediatype>audio</mediatype>
									<trackindex>1</trackindex>
								</sourcetrack>
								<link>
									<linkclipref>clipitem-1253</linkclipref>
									<mediatype>audio</mediatype>
									<trackindex>1</trackindex>
									<clipindex>2</clipindex>
									<groupindex>1</groupindex>
								</link>
								<link>
									<linkclipref>clipitem-1267</linkclipref>
									<mediatype>audio</mediatype>
									<trackindex>2</trackindex>
									<clipindex>2</clipindex>
									<groupindex>1</groupindex>
								</link>
								<logginginfo>
									<description></description>
									<scene></scene>
									<shottake></shottake>
									<lognote></lognote>
									<good></good>
									<originalvideofilename></originalvideofilename>
									<originalaudiofilename></originalaudiofilename>
								</logginginfo>
								<colorinfo>
									<lut></lut>
									<lut1></lut1>
									<asc_sop></asc_sop>
									<asc_sat></asc_sat>
									<lut2></lut2>
								</colorinfo>
								<labels>
									<label2>Caribbean</label2>
								</labels>
							</clipitem>
							<transitionitem>
								<start>5036</start>
								<end>5043</end>
								<pproTicksIn>42683460019200</pproTicksIn>
								<pproTicksOut>42742789689600</pproTicksOut>
								<alignment>end-black</alignment>
								<cutPointTicks>59329670400</cutPointTicks>
								<rate>
									<timebase>30</timebase>
									<ntsc>TRUE</ntsc>
								</rate>
								<effect>
									<name>Cross Fade ( 0dB)</name>
									<effectid>KGAudioTransCrossFade0dB</effectid>
									<effecttype>transition</effecttype>
									<mediatype>audio</mediatype>
									<wipecode>0</wipecode>
									<wipeaccuracy>100</wipeaccuracy>
									<startratio>0</startratio>
									<endratio>1</endratio>
									<reverse>FALSE</reverse>
								</effect>
							</transitionitem>
							<clipitem id="clipitem-1254" premiereChannelType="stereo">
								<masterclipid>masterclip-144</masterclipid>
								<name>ES_El Khalil - Rymdklang Soundtracks.mp3</name>
								<enabled>TRUE</enabled>
								<duration>5070</duration>
								<rate>
									<timebase>30</timebase>
									<ntsc>TRUE</ntsc>
								</rate>
								<start>5436</start>
								<end>-1</end>
								<in>0</in>
								<out>3756</out>
								<pproTicksIn>0</pproTicksIn>
								<pproTicksOut>31834606003200</pproTicksOut>
								<file id="file-143"/>
								<sourcetrack>
									<mediatype>audio</mediatype>
									<trackindex>1</trackindex>
								</sourcetrack>
								<link>
									<linkclipref>clipitem-1254</linkclipref>
									<mediatype>audio</mediatype>
									<trackindex>1</trackindex>
									<clipindex>4</clipindex>
									<groupindex>1</groupindex>
								</link>
								<link>
									<linkclipref>clipitem-1268</linkclipref>
									<mediatype>audio</mediatype>
									<trackindex>2</trackindex>
									<clipindex>4</clipindex>
									<groupindex>1</groupindex>
								</link>
								<logginginfo>
									<description></description>
									<scene></scene>
									<shottake></shottake>
									<lognote></lognote>
									<good></good>
									<originalvideofilename></originalvideofilename>
									<originalaudiofilename></originalaudiofilename>
								</logginginfo>
								<colorinfo>
									<lut></lut>
									<lut1></lut1>
									<asc_sop></asc_sop>
									<asc_sat></asc_sat>
									<lut2></lut2>
								</colorinfo>
								<labels>
									<label2>Caribbean</label2>
								</labels>
							</clipitem>
							<transitionitem>
								<start>9185</start>
								<end>9192</end>
								<pproTicksIn>77849003232000</pproTicksIn>
								<pproTicksOut>77908332902400</pproTicksOut>
								<alignment>end-black</alignment>
								<cutPointTicks>59329670400</cutPointTicks>
								<rate>
									<timebase>30</timebase>
									<ntsc>TRUE</ntsc>
								</rate>
								<effect>
									<name>Cross Fade ( 0dB)</name>
									<effectid>KGAudioTransCrossFade0dB</effectid>
									<effecttype>transition</effecttype>
									<mediatype>audio</mediatype>
									<wipecode>0</wipecode>
									<wipeaccuracy>100</wipeaccuracy>
									<startratio>0</startratio>
									<endratio>1</endratio>
									<reverse>FALSE</reverse>
								</effect>
							</transitionitem>
							<transitionitem>
								<start>9717</start>
								<end>9724</end>
								<pproTicksIn>82358058182400</pproTicksIn>
								<pproTicksOut>82417387852800</pproTicksOut>
								<alignment>start-black</alignment>
								<cutPointTicks>0</cutPointTicks>
								<rate>
									<timebase>30</timebase>
									<ntsc>TRUE</ntsc>
								</rate>
								<effect>
									<name>Cross Fade ( 0dB)</name>
									<effectid>KGAudioTransCrossFade0dB</effectid>
									<effecttype>transition</effecttype>
									<mediatype>audio</mediatype>
									<wipecode>0</wipecode>
									<wipeaccuracy>100</wipeaccuracy>
									<startratio>0</startratio>
									<endratio>1</endratio>
									<reverse>FALSE</reverse>
								</effect>
							</transitionitem>
							<clipitem id="clipitem-1255" premiereChannelType="stereo">
								<masterclipid>masterclip-148</masterclipid>
								<name>ES_That Space You're In - Far Orange.mp3</name>
								<enabled>TRUE</enabled>
								<duration>8001</duration>
								<rate>
									<timebase>30</timebase>
									<ntsc>TRUE</ntsc>
								</rate>
								<start>-1</start>
								<end>11301</end>
								<in>488</in>
								<out>2072</out>
								<pproTicksIn>4136125593600</pproTicksIn>
								<pproTicksOut>17561582438400</pproTicksOut>
								<file id="file-146"/>
								<sourcetrack>
									<mediatype>audio</mediatype>
									<trackindex>1</trackindex>
								</sourcetrack>
								<link>
									<linkclipref>clipitem-1255</linkclipref>
									<mediatype>audio</mediatype>
									<trackindex>1</trackindex>
									<clipindex>7</clipindex>
									<groupindex>1</groupindex>
								</link>
								<link>
									<linkclipref>clipitem-1269</linkclipref>
									<mediatype>audio</mediatype>
									<trackindex>2</trackindex>
									<clipindex>7</clipindex>
									<groupindex>1</groupindex>
								</link>
								<logginginfo>
									<description></description>
									<scene></scene>
									<shottake></shottake>
									<lognote></lognote>
									<good></good>
									<originalvideofilename></originalvideofilename>
									<originalaudiofilename></originalaudiofilename>
								</logginginfo>
								<colorinfo>
									<lut></lut>
									<lut1></lut1>
									<asc_sop></asc_sop>
									<asc_sat></asc_sat>
									<lut2></lut2>
								</colorinfo>
								<labels>
									<label2>Caribbean</label2>
								</labels>
							</clipitem>
							<transitionitem>
								<start>11592</start>
								<end>11599</end>
								<pproTicksIn>98249934182400</pproTicksIn>
								<pproTicksOut>98309263852800</pproTicksOut>
								<alignment>start-black</alignment>
								<cutPointTicks>0</cutPointTicks>
								<rate>
									<timebase>30</timebase>
									<ntsc>TRUE</ntsc>
								</rate>
								<effect>
									<name>Cross Fade ( 0dB)</name>
									<effectid>KGAudioTransCrossFade0dB</effectid>
									<effecttype>transition</effecttype>
									<mediatype>audio</mediatype>
									<wipecode>0</wipecode>
									<wipeaccuracy>100</wipeaccuracy>
									<startratio>0</startratio>
									<endratio>1</endratio>
									<reverse>FALSE</reverse>
								</effect>
							</transitionitem>
							<clipitem id="clipitem-1256" premiereChannelType="stereo">
								<masterclipid>masterclip-173</masterclipid>
								<name>ES_Envied - dreem.mp3</name>
								<enabled>TRUE</enabled>
								<duration>4397</duration>
								<rate>
									<timebase>30</timebase>
									<ntsc>TRUE</ntsc>
								</rate>
								<start>-1</start>
								<end>-1</end>
								<in>347</in>
								<out>4036</out>
								<pproTicksIn>2941056518400</pproTicksIn>
								<pproTicksOut>34207792819200</pproTicksOut>
								<file id="file-164"/>
								<sourcetrack>
									<mediatype>audio</mediatype>
									<trackindex>1</trackindex>
								</sourcetrack>
								<link>
									<linkclipref>clipitem-1256</linkclipref>
									<mediatype>audio</mediatype>
									<trackindex>1</trackindex>
									<clipindex>9</clipindex>
									<groupindex>1</groupindex>
								</link>
								<link>
									<linkclipref>clipitem-1270</linkclipref>
									<mediatype>audio</mediatype>
									<trackindex>2</trackindex>
									<clipindex>9</clipindex>
									<groupindex>1</groupindex>
								</link>
								<logginginfo>
									<description></description>
									<scene></scene>
									<shottake></shottake>
									<lognote></lognote>
									<good></good>
									<originalvideofilename></originalvideofilename>
									<originalaudiofilename></originalaudiofilename>
								</logginginfo>
								<colorinfo>
									<lut></lut>
									<lut1></lut1>
									<asc_sop></asc_sop>
									<asc_sat></asc_sat>
									<lut2></lut2>
								</colorinfo>
								<labels>
									<label2>Caribbean</label2>
								</labels>
							</clipitem>
							<transitionitem>
								<start>15274</start>
								<end>15281</end>
								<pproTicksIn>129457340812800</pproTicksIn>
								<pproTicksOut>129516670483200</pproTicksOut>
								<alignment>end-black</alignment>
								<cutPointTicks>59329670400</cutPointTicks>
								<rate>
									<timebase>30</timebase>
									<ntsc>TRUE</ntsc>
								</rate>
								<effect>
									<name>Cross Fade ( 0dB)</name>
									<effectid>KGAudioTransCrossFade0dB</effectid>
									<effecttype>transition</effecttype>
									<mediatype>audio</mediatype>
									<wipecode>0</wipecode>
									<wipeaccuracy>100</wipeaccuracy>
									<startratio>0</startratio>
									<endratio>1</endratio>
									<reverse>FALSE</reverse>
								</effect>
							</transitionitem>
							<transitionitem>
								<start>15896</start>
								<end>15903</end>
								<pproTicksIn>134729205811200</pproTicksIn>
								<pproTicksOut>134788535481600</pproTicksOut>
								<alignment>start-black</alignment>
								<cutPointTicks>0</cutPointTicks>
								<rate>
									<timebase>30</timebase>
									<ntsc>TRUE</ntsc>
								</rate>
								<effect>
									<name>Cross Fade ( 0dB)</name>
									<effectid>KGAudioTransCrossFade0dB</effectid>
									<effecttype>transition</effecttype>
									<mediatype>audio</mediatype>
									<wipecode>0</wipecode>
									<wipeaccuracy>100</wipeaccuracy>
									<startratio>0</startratio>
									<endratio>1</endratio>
									<reverse>FALSE</reverse>
								</effect>
							</transitionitem>
							<clipitem id="clipitem-1257" premiereChannelType="stereo">
								<masterclipid>masterclip-177</masterclipid>
								<name>ES_Chemistry! (Instrumental Version) - Flux Vortex.mp3</name>
								<enabled>TRUE</enabled>
								<duration>5985</duration>
								<rate>
									<timebase>30</timebase>
									<ntsc>TRUE</ntsc>
								</rate>
								<start>-1</start>
								<end>17428</end>
								<in>676</in>
								<out>2208</out>
								<pproTicksIn>5729551027200</pproTicksIn>
								<pproTicksOut>18714273177600</pproTicksOut>
								<file id="file-167"/>
								<sourcetrack>
									<mediatype>audio</mediatype>
									<trackindex>1</trackindex>
								</sourcetrack>
								<link>
									<linkclipref>clipitem-1257</linkclipref>
									<mediatype>audio</mediatype>
									<trackindex>1</trackindex>
									<clipindex>12</clipindex>
									<groupindex>1</groupindex>
								</link>
								<link>
									<linkclipref>clipitem-1271</linkclipref>
									<mediatype>audio</mediatype>
									<trackindex>2</trackindex>
									<clipindex>12</clipindex>
									<groupindex>1</groupindex>
								</link>
								<logginginfo>
									<description></description>
									<scene></scene>
									<shottake></shottake>
									<lognote></lognote>
									<good></good>
									<originalvideofilename></originalvideofilename>
									<originalaudiofilename></originalaudiofilename>
								</logginginfo>
								<colorinfo>
									<lut></lut>
									<lut1></lut1>
									<asc_sop></asc_sop>
									<asc_sat></asc_sat>
									<lut2></lut2>
								</colorinfo>
								<labels>
									<label2>Caribbean</label2>
								</labels>
							</clipitem>
							<clipitem id="clipitem-1258" premiereChannelType="stereo">
								<masterclipid>masterclip-193</masterclipid>
								<name>ES_Odd Sensibility - Jules Gaia.mp3</name>
								<enabled>TRUE</enabled>
								<duration>4491</duration>
								<rate>
									<timebase>30</timebase>
									<ntsc>TRUE</ntsc>
								</rate>
								<start>17956</start>
								<end>-1</end>
								<in>0</in>
								<out>2674</out>
								<pproTicksIn>0</pproTicksIn>
								<pproTicksOut>22663934092800</pproTicksOut>
								<file id="file-181"/>
								<sourcetrack>
									<mediatype>audio</mediatype>
									<trackindex>1</trackindex>
								</sourcetrack>
								<link>
									<linkclipref>clipitem-1258</linkclipref>
									<mediatype>audio</mediatype>
									<trackindex>1</trackindex>
									<clipindex>13</clipindex>
									<groupindex>1</groupindex>
								</link>
								<link>
									<linkclipref>clipitem-1272</linkclipref>
									<mediatype>audio</mediatype>
									<trackindex>2</trackindex>
									<clipindex>13</clipindex>
									<groupindex>1</groupindex>
								</link>
								<logginginfo>
									<description></description>
									<scene></scene>
									<shottake></shottake>
									<lognote></lognote>
									<good></good>
									<originalvideofilename></originalvideofilename>
									<originalaudiofilename></originalaudiofilename>
								</logginginfo>
								<colorinfo>
									<lut></lut>
									<lut1></lut1>
									<asc_sop></asc_sop>
									<asc_sat></asc_sat>
									<lut2></lut2>
								</colorinfo>
							</clipitem>
							<transitionitem>
								<start>20617</start>
								<end>20630</end>
								<pproTicksIn>174742830662400</pproTicksIn>
								<pproTicksOut>174853014336000</pproTicksOut>
								<alignment>end-black</alignment>
								<cutPointTicks>110183673600</cutPointTicks>
								<rate>
									<timebase>30</timebase>
									<ntsc>TRUE</ntsc>
								</rate>
								<effect>
									<name>Cross Fade ( 0dB)</name>
									<effectid>KGAudioTransCrossFade0dB</effectid>
									<effecttype>transition</effecttype>
									<mediatype>audio</mediatype>
									<wipecode>0</wipecode>
									<wipeaccuracy>100</wipeaccuracy>
									<startratio>0</startratio>
									<endratio>1</endratio>
									<reverse>FALSE</reverse>
								</effect>
							</transitionitem>
							<transitionitem>
								<start>20781</start>
								<end>20788</end>
								<pproTicksIn>176132840083200</pproTicksIn>
								<pproTicksOut>176192169753600</pproTicksOut>
								<alignment>start-black</alignment>
								<cutPointTicks>0</cutPointTicks>
								<rate>
									<timebase>30</timebase>
									<ntsc>TRUE</ntsc>
								</rate>
								<effect>
									<name>Cross Fade ( 0dB)</name>
									<effectid>KGAudioTransCrossFade0dB</effectid>
									<effecttype>transition</effecttype>
									<mediatype>audio</mediatype>
									<wipecode>0</wipecode>
									<wipeaccuracy>100</wipeaccuracy>
									<startratio>0</startratio>
									<endratio>1</endratio>
									<reverse>FALSE</reverse>
								</effect>
							</transitionitem>
							<clipitem id="clipitem-1259" premiereChannelType="stereo">
								<masterclipid>masterclip-197</masterclipid>
								<name>ES_Port Said - Far Orange.mp3</name>
								<enabled>TRUE</enabled>
								<duration>7430</duration>
								<rate>
									<timebase>30</timebase>
									<ntsc>TRUE</ntsc>
								</rate>
								<start>-1</start>
								<end>-1</end>
								<in>3288</in>
								<out>6232</out>
								<pproTicksIn>27867993753600</pproTicksIn>
								<pproTicksOut>52820357990400</pproTicksOut>
								<file id="file-184"/>
								<sourcetrack>
									<mediatype>audio</mediatype>
									<trackindex>1</trackindex>
								</sourcetrack>
								<link>
									<linkclipref>clipitem-1259</linkclipref>
									<mediatype>audio</mediatype>
									<trackindex>1</trackindex>
									<clipindex>16</clipindex>
									<groupindex>1</groupindex>
								</link>
								<link>
									<linkclipref>clipitem-1273</linkclipref>
									<mediatype>audio</mediatype>
									<trackindex>2</trackindex>
									<clipindex>16</clipindex>
									<groupindex>1</groupindex>
								</link>
								<logginginfo>
									<description></description>
									<scene></scene>
									<shottake></shottake>
									<lognote></lognote>
									<good></good>
									<originalvideofilename></originalvideofilename>
									<originalaudiofilename></originalaudiofilename>
								</logginginfo>
								<colorinfo>
									<lut></lut>
									<lut1></lut1>
									<asc_sop></asc_sop>
									<asc_sat></asc_sat>
									<lut2></lut2>
								</colorinfo>
								<labels>
									<label2>Caribbean</label2>
								</labels>
							</clipitem>
							<transitionitem>
								<start>23718</start>
								<end>23725</end>
								<pproTicksIn>201025874649600</pproTicksIn>
								<pproTicksOut>201085204320000</pproTicksOut>
								<alignment>end-black</alignment>
								<cutPointTicks>59329670400</cutPointTicks>
								<rate>
									<timebase>30</timebase>
									<ntsc>TRUE</ntsc>
								</rate>
								<effect>
									<name>Cross Fade ( 0dB)</name>
									<effectid>KGAudioTransCrossFade0dB</effectid>
									<effecttype>transition</effecttype>
									<mediatype>audio</mediatype>
									<wipecode>0</wipecode>
									<wipeaccuracy>100</wipeaccuracy>
									<startratio>0</startratio>
									<endratio>1</endratio>
									<reverse>FALSE</reverse>
								</effect>
							</transitionitem>
							<transitionitem>
								<start>24300</start>
								<end>24307</end>
								<pproTicksIn>205958712960000</pproTicksIn>
								<pproTicksOut>206018042630400</pproTicksOut>
								<alignment>start-black</alignment>
								<cutPointTicks>0</cutPointTicks>
								<rate>
									<timebase>30</timebase>
									<ntsc>TRUE</ntsc>
								</rate>
								<effect>
									<name>Cross Fade ( 0dB)</name>
									<effectid>KGAudioTransCrossFade0dB</effectid>
									<effecttype>transition</effecttype>
									<mediatype>audio</mediatype>
									<wipecode>0</wipecode>
									<wipeaccuracy>100</wipeaccuracy>
									<startratio>0</startratio>
									<endratio>1</endratio>
									<reverse>FALSE</reverse>
								</effect>
							</transitionitem>
							<clipitem id="clipitem-1260" premiereChannelType="stereo">
								<masterclipid>masterclip-216</masterclipid>
								<name>ES_Malhana - DEX 1200.mp3</name>
								<enabled>TRUE</enabled>
								<duration>7247</duration>
								<rate>
									<timebase>30</timebase>
									<ntsc>TRUE</ntsc>
								</rate>
								<start>-1</start>
								<end>-1</end>
								<in>4823</in>
								<out>6666</out>
								<pproTicksIn>40878142905600</pproTicksIn>
								<pproTicksOut>56498797555200</pproTicksOut>
								<file id="file-200"/>
								<sourcetrack>
									<mediatype>audio</mediatype>
									<trackindex>1</trackindex>
								</sourcetrack>
								<link>
									<linkclipref>clipitem-1260</linkclipref>
									<mediatype>audio</mediatype>
									<trackindex>1</trackindex>
									<clipindex>19</clipindex>
									<groupindex>1</groupindex>
								</link>
								<link>
									<linkclipref>clipitem-1274</linkclipref>
									<mediatype>audio</mediatype>
									<trackindex>2</trackindex>
									<clipindex>19</clipindex>
									<groupindex>1</groupindex>
								</link>
								<logginginfo>
									<description></description>
									<scene></scene>
									<shottake></shottake>
									<lognote></lognote>
									<good></good>
									<originalvideofilename></originalvideofilename>
									<originalaudiofilename></originalaudiofilename>
								</logginginfo>
								<colorinfo>
									<lut></lut>
									<lut1></lut1>
									<asc_sop></asc_sop>
									<asc_sat></asc_sat>
									<lut2></lut2>
								</colorinfo>
								<labels>
									<label2>Caribbean</label2>
								</labels>
							</clipitem>
							<transitionitem>
								<start>26129</start>
								<end>26143</end>
								<pproTicksIn>221460708268800</pproTicksIn>
								<pproTicksOut>221579367609600</pproTicksOut>
								<alignment>end-black</alignment>
								<cutPointTicks>118659340800</cutPointTicks>
								<rate>
									<timebase>30</timebase>
									<ntsc>TRUE</ntsc>
								</rate>
								<effect>
									<name>Cross Fade ( 0dB)</name>
									<effectid>KGAudioTransCrossFade0dB</effectid>
									<effecttype>transition</effecttype>
									<mediatype>audio</mediatype>
									<wipecode>0</wipecode>
									<wipeaccuracy>100</wipeaccuracy>
									<startratio>0</startratio>
									<endratio>1</endratio>
									<reverse>FALSE</reverse>
								</effect>
							</transitionitem>
							<transitionitem>
								<start>26755</start>
								<end>26768</end>
								<pproTicksIn>226766475936000</pproTicksIn>
								<pproTicksOut>226876659609600</pproTicksOut>
								<alignment>start-black</alignment>
								<cutPointTicks>0</cutPointTicks>
								<rate>
									<timebase>30</timebase>
									<ntsc>TRUE</ntsc>
								</rate>
								<effect>
									<name>Cross Fade ( 0dB)</name>
									<effectid>KGAudioTransCrossFade0dB</effectid>
									<effecttype>transition</effecttype>
									<mediatype>audio</mediatype>
									<wipecode>0</wipecode>
									<wipeaccuracy>100</wipeaccuracy>
									<startratio>0</startratio>
									<endratio>1</endratio>
									<reverse>FALSE</reverse>
								</effect>
							</transitionitem>
							<clipitem id="clipitem-1261" premiereChannelType="stereo">
								<masterclipid>masterclip-229</masterclipid>
								<name>ES_Blue Gold - Far Orange.mp3</name>
								<enabled>TRUE</enabled>
								<duration>6740</duration>
								<rate>
									<timebase>30</timebase>
									<ntsc>TRUE</ntsc>
								</rate>
								<start>-1</start>
								<end>-1</end>
								<in>92</in>
								<out>3370</out>
								<pproTicksIn>779761382400</pproTicksIn>
								<pproTicksOut>28562998464000</pproTicksOut>
								<file id="file-212"/>
								<sourcetrack>
									<mediatype>audio</mediatype>
									<trackindex>1</trackindex>
								</sourcetrack>
								<link>
									<linkclipref>clipitem-1261</linkclipref>
									<mediatype>audio</mediatype>
									<trackindex>1</trackindex>
									<clipindex>22</clipindex>
									<groupindex>1</groupindex>
								</link>
								<link>
									<linkclipref>clipitem-1275</linkclipref>
									<mediatype>audio</mediatype>
									<trackindex>2</trackindex>
									<clipindex>22</clipindex>
									<groupindex>1</groupindex>
								</link>
								<logginginfo>
									<description></description>
									<scene></scene>
									<shottake></shottake>
									<lognote></lognote>
									<good></good>
									<originalvideofilename></originalvideofilename>
									<originalaudiofilename></originalaudiofilename>
								</logginginfo>
								<colorinfo>
									<lut></lut>
									<lut1></lut1>
									<asc_sop></asc_sop>
									<asc_sat></asc_sat>
									<lut2></lut2>
								</colorinfo>
								<labels>
									<label2>Caribbean</label2>
								</labels>
							</clipitem>
							<transitionitem>
								<start>30026</start>
								<end>30033</end>
								<pproTicksIn>254490383347200</pproTicksIn>
								<pproTicksOut>254549713017600</pproTicksOut>
								<alignment>end-black</alignment>
								<cutPointTicks>59329670400</cutPointTicks>
								<rate>
									<timebase>30</timebase>
									<ntsc>TRUE</ntsc>
								</rate>
								<effect>
									<name>Cross Fade ( 0dB)</name>
									<effectid>KGAudioTransCrossFade0dB</effectid>
									<effecttype>transition</effecttype>
									<mediatype>audio</mediatype>
									<wipecode>0</wipecode>
									<wipeaccuracy>100</wipeaccuracy>
									<startratio>0</startratio>
									<endratio>1</endratio>
									<reverse>FALSE</reverse>
								</effect>
							</transitionitem>
							<clipitem id="clipitem-1262" premiereChannelType="stereo">
								<masterclipid>masterclip-242</masterclipid>
								<name>ES_Solar Healing - Sum Wave.mp3</name>
								<enabled>TRUE</enabled>
								<duration>5896</duration>
								<rate>
									<timebase>30</timebase>
									<ntsc>TRUE</ntsc>
								</rate>
								<start>30754</start>
								<end>-1</end>
								<in>0</in>
								<out>2867</out>
								<pproTicksIn>0</pproTicksIn>
								<pproTicksOut>24299737862400</pproTicksOut>
								<file id="file-222"/>
								<sourcetrack>
									<mediatype>audio</mediatype>
									<trackindex>1</trackindex>
								</sourcetrack>
								<link>
									<linkclipref>clipitem-1262</linkclipref>
									<mediatype>audio</mediatype>
									<trackindex>1</trackindex>
									<clipindex>24</clipindex>
									<groupindex>1</groupindex>
								</link>
								<link>
									<linkclipref>clipitem-1276</linkclipref>
									<mediatype>audio</mediatype>
									<trackindex>2</trackindex>
									<clipindex>24</clipindex>
									<groupindex>1</groupindex>
								</link>
								<logginginfo>
									<description></description>
									<scene></scene>
									<shottake></shottake>
									<lognote></lognote>
									<good></good>
									<originalvideofilename></originalvideofilename>
									<originalaudiofilename></originalaudiofilename>
								</logginginfo>
								<colorinfo>
									<lut></lut>
									<lut1></lut1>
									<asc_sop></asc_sop>
									<asc_sat></asc_sat>
									<lut2></lut2>
								</colorinfo>
								<labels>
									<label2>Caribbean</label2>
								</labels>
							</clipitem>
							<transitionitem>
								<start>33552</start>
								<end>33621</end>
								<pproTicksIn>284375585894400</pproTicksIn>
								<pproTicksOut>284960406931200</pproTicksOut>
								<alignment>end-black</alignment>
								<cutPointTicks>584821036800</cutPointTicks>
								<rate>
									<timebase>30</timebase>
									<ntsc>TRUE</ntsc>
								</rate>
								<effect>
									<name>Cross Fade ( 0dB)</name>
									<effectid>KGAudioTransCrossFade0dB</effectid>
									<effecttype>transition</effecttype>
									<mediatype>audio</mediatype>
									<wipecode>0</wipecode>
									<wipeaccuracy>100</wipeaccuracy>
									<startratio>0</startratio>
									<endratio>1</endratio>
									<reverse>FALSE</reverse>
								</effect>
							</transitionitem>
							<transitionitem>
								<start>34377</start>
								<end>34384</end>
								<pproTicksIn>291368011334400</pproTicksIn>
								<pproTicksOut>291427341004800</pproTicksOut>
								<alignment>start-black</alignment>
								<cutPointTicks>0</cutPointTicks>
								<rate>
									<timebase>30</timebase>
									<ntsc>TRUE</ntsc>
								</rate>
								<effect>
									<name>Cross Fade ( 0dB)</name>
									<effectid>KGAudioTransCrossFade0dB</effectid>
									<effecttype>transition</effecttype>
									<mediatype>audio</mediatype>
									<wipecode>0</wipecode>
									<wipeaccuracy>100</wipeaccuracy>
									<startratio>0</startratio>
									<endratio>1</endratio>
									<reverse>FALSE</reverse>
								</effect>
							</transitionitem>
							<clipitem id="clipitem-1263" premiereChannelType="stereo">
								<masterclipid>masterclip-246</masterclipid>
								<name>ES_Maharajah - Ava Low.mp3</name>
								<enabled>TRUE</enabled>
								<duration>4358</duration>
								<rate>
									<timebase>30</timebase>
									<ntsc>TRUE</ntsc>
								</rate>
								<start>-1</start>
								<end>-1</end>
								<in>383</in>
								<out>2693</out>
								<pproTicksIn>3246180537600</pproTicksIn>
								<pproTicksOut>22824971769600</pproTicksOut>
								<file id="file-225"/>
								<sourcetrack>
									<mediatype>audio</mediatype>
									<trackindex>1</trackindex>
								</sourcetrack>
								<link>
									<linkclipref>clipitem-1263</linkclipref>
									<mediatype>audio</mediatype>
									<trackindex>1</trackindex>
									<clipindex>27</clipindex>
									<groupindex>1</groupindex>
								</link>
								<link>
									<linkclipref>clipitem-1277</linkclipref>
									<mediatype>audio</mediatype>
									<trackindex>2</trackindex>
									<clipindex>27</clipindex>
									<groupindex>1</groupindex>
								</link>
								<logginginfo>
									<description></description>
									<scene></scene>
									<shottake></shottake>
									<lognote></lognote>
									<good></good>
									<originalvideofilename></originalvideofilename>
									<originalaudiofilename></originalaudiofilename>
								</logginginfo>
								<colorinfo>
									<lut></lut>
									<lut1></lut1>
									<asc_sop></asc_sop>
									<asc_sat></asc_sat>
									<lut2></lut2>
								</colorinfo>
								<labels>
									<label2>Caribbean</label2>
								</labels>
							</clipitem>
							<transitionitem>
								<start>36680</start>
								<end>36687</end>
								<pproTicksIn>310887472896000</pproTicksIn>
								<pproTicksOut>310946802566400</pproTicksOut>
								<alignment>end-black</alignment>
								<cutPointTicks>59329670400</cutPointTicks>
								<rate>
									<timebase>30</timebase>
									<ntsc>TRUE</ntsc>
								</rate>
								<effect>
									<name>Cross Fade ( 0dB)</name>
									<effectid>KGAudioTransCrossFade0dB</effectid>
									<effecttype>transition</effecttype>
									<mediatype>audio</mediatype>
									<wipecode>0</wipecode>
									<wipeaccuracy>100</wipeaccuracy>
									<startratio>0</startratio>
									<endratio>1</endratio>
									<reverse>FALSE</reverse>
								</effect>
							</transitionitem>
							<transitionitem>
								<start>37459</start>
								<end>37466</end>
								<pproTicksIn>317490017644800</pproTicksIn>
								<pproTicksOut>317549347315200</pproTicksOut>
								<alignment>start-black</alignment>
								<cutPointTicks>0</cutPointTicks>
								<rate>
									<timebase>30</timebase>
									<ntsc>TRUE</ntsc>
								</rate>
								<effect>
									<name>Cross Fade ( 0dB)</name>
									<effectid>KGAudioTransCrossFade0dB</effectid>
									<effecttype>transition</effecttype>
									<mediatype>audio</mediatype>
									<wipecode>0</wipecode>
									<wipeaccuracy>100</wipeaccuracy>
									<startratio>0</startratio>
									<endratio>1</endratio>
									<reverse>FALSE</reverse>
								</effect>
							</transitionitem>
							<clipitem id="clipitem-1264" premiereChannelType="stereo">
								<masterclipid>masterclip-264</masterclipid>
								<name>ES_Urban Stories - Chill Cole.mp3</name>
								<enabled>TRUE</enabled>
								<duration>9032</duration>
								<rate>
									<timebase>30</timebase>
									<ntsc>TRUE</ntsc>
								</rate>
								<start>-1</start>
								<end>-1</end>
								<in>686</in>
								<out>6018</out>
								<pproTicksIn>5814307699200</pproTicksIn>
								<pproTicksOut>51006565209600</pproTicksOut>
								<file id="file-241"/>
								<sourcetrack>
									<mediatype>audio</mediatype>
									<trackindex>1</trackindex>
								</sourcetrack>
								<link>
									<linkclipref>clipitem-1264</linkclipref>
									<mediatype>audio</mediatype>
									<trackindex>1</trackindex>
									<clipindex>30</clipindex>
									<groupindex>1</groupindex>
								</link>
								<link>
									<linkclipref>clipitem-1278</linkclipref>
									<mediatype>audio</mediatype>
									<trackindex>2</trackindex>
									<clipindex>30</clipindex>
									<groupindex>1</groupindex>
								</link>
								<logginginfo>
									<description></description>
									<scene></scene>
									<shottake></shottake>
									<lognote></lognote>
									<good></good>
									<originalvideofilename></originalvideofilename>
									<originalaudiofilename></originalaudiofilename>
								</logginginfo>
								<colorinfo>
									<lut></lut>
									<lut1></lut1>
									<asc_sop></asc_sop>
									<asc_sat></asc_sat>
									<lut2></lut2>
								</colorinfo>
								<labels>
									<label2>Caribbean</label2>
								</labels>
							</clipitem>
							<transitionitem>
								<start>42768</start>
								<end>42791</end>
								<pproTicksIn>362487334809600</pproTicksIn>
								<pproTicksOut>362682275155200</pproTicksOut>
								<alignment>end-black</alignment>
								<cutPointTicks>194940345600</cutPointTicks>
								<rate>
									<timebase>30</timebase>
									<ntsc>TRUE</ntsc>
								</rate>
								<effect>
									<name>Cross Fade ( 0dB)</name>
									<effectid>KGAudioTransCrossFade0dB</effectid>
									<effecttype>transition</effecttype>
									<mediatype>audio</mediatype>
									<wipecode>0</wipecode>
									<wipeaccuracy>100</wipeaccuracy>
									<startratio>0</startratio>
									<endratio>1</endratio>
									<reverse>FALSE</reverse>
								</effect>
							</transitionitem>
							<transitionitem>
								<start>43621</start>
								<end>43628</end>
								<pproTicksIn>369717078931200</pproTicksIn>
								<pproTicksOut>369776408601600</pproTicksOut>
								<alignment>start-black</alignment>
								<cutPointTicks>0</cutPointTicks>
								<rate>
									<timebase>30</timebase>
									<ntsc>TRUE</ntsc>
								</rate>
								<effect>
									<name>Cross Fade ( 0dB)</name>
									<effectid>KGAudioTransCrossFade0dB</effectid>
									<effecttype>transition</effecttype>
									<mediatype>audio</mediatype>
									<wipecode>0</wipecode>
									<wipeaccuracy>100</wipeaccuracy>
									<startratio>0</startratio>
									<endratio>1</endratio>
									<reverse>FALSE</reverse>
								</effect>
							</transitionitem>
							<clipitem id="clipitem-1265" premiereChannelType="stereo">
								<masterclipid>masterclip-284</masterclipid>
								<name>ES_Succulent Chinese Meal - Jones Meadow.mp3</name>
								<enabled>TRUE</enabled>
								<duration>6569</duration>
								<rate>
									<timebase>30</timebase>
									<ntsc>TRUE</ntsc>
								</rate>
								<start>-1</start>
								<end>-1</end>
								<in>0</in>
								<out>5288</out>
								<pproTicksIn>0</pproTicksIn>
								<pproTicksOut>44819328153600</pproTicksOut>
								<file id="file-259"/>
								<sourcetrack>
									<mediatype>audio</mediatype>
									<trackindex>1</trackindex>
								</sourcetrack>
								<link>
									<linkclipref>clipitem-1265</linkclipref>
									<mediatype>audio</mediatype>
									<trackindex>1</trackindex>
									<clipindex>33</clipindex>
									<groupindex>1</groupindex>
								</link>
								<link>
									<linkclipref>clipitem-1279</linkclipref>
									<mediatype>audio</mediatype>
									<trackindex>2</trackindex>
									<clipindex>33</clipindex>
									<groupindex>1</groupindex>
								</link>
								<logginginfo>
									<description></description>
									<scene></scene>
									<shottake></shottake>
									<lognote></lognote>
									<good></good>
									<originalvideofilename></originalvideofilename>
									<originalaudiofilename></originalaudiofilename>
								</logginginfo>
								<colorinfo>
									<lut></lut>
									<lut1></lut1>
									<asc_sop></asc_sop>
									<asc_sat></asc_sat>
									<lut2></lut2>
								</colorinfo>
								<labels>
									<label2>Caribbean</label2>
								</labels>
							</clipitem>
							<transitionitem>
								<start>48870</start>
								<end>48909</end>
								<pproTicksIn>414205856064000</pproTicksIn>
								<pproTicksOut>414536407084800</pproTicksOut>
								<alignment>end-black</alignment>
								<cutPointTicks>330551020800</cutPointTicks>
								<rate>
									<timebase>30</timebase>
									<ntsc>TRUE</ntsc>
								</rate>
								<effect>
									<name>Cross Fade ( 0dB)</name>
									<effectid>KGAudioTransCrossFade0dB</effectid>
									<effecttype>transition</effecttype>
									<mediatype>audio</mediatype>
									<wipecode>0</wipecode>
									<wipeaccuracy>100</wipeaccuracy>
									<startratio>0</startratio>
									<endratio>1</endratio>
									<reverse>FALSE</reverse>
								</effect>
							</transitionitem>
							<clipitem id="clipitem-1266" premiereChannelType="stereo">
								<masterclipid>masterclip-321</masterclipid>
								<name>ES_Beyond the Mountains - Experia.mp3</name>
								<enabled>TRUE</enabled>
								<duration>6022</duration>
								<rate>
									<timebase>30</timebase>
									<ntsc>TRUE</ntsc>
								</rate>
								<start>55500</start>
								<end>-1</end>
								<in>0</in>
								<out>5492</out>
								<pproTicksIn>0</pproTicksIn>
								<pproTicksOut>46548364262400</pproTicksOut>
								<file id="file-294"/>
								<sourcetrack>
									<mediatype>audio</mediatype>
									<trackindex>1</trackindex>
								</sourcetrack>
								<link>
									<linkclipref>clipitem-1266</linkclipref>
									<mediatype>audio</mediatype>
									<trackindex>1</trackindex>
									<clipindex>35</clipindex>
									<groupindex>1</groupindex>
								</link>
								<link>
									<linkclipref>clipitem-1280</linkclipref>
									<mediatype>audio</mediatype>
									<trackindex>2</trackindex>
									<clipindex>35</clipindex>
									<groupindex>1</groupindex>
								</link>
								<logginginfo>
									<description></description>
									<scene></scene>
									<shottake></shottake>
									<lognote></lognote>
									<good></good>
									<originalvideofilename></originalvideofilename>
									<originalaudiofilename></originalaudiofilename>
								</logginginfo>
								<colorinfo>
									<lut></lut>
									<lut1></lut1>
									<asc_sop></asc_sop>
									<asc_sat></asc_sat>
									<lut2></lut2>
								</colorinfo>
								<labels>
									<label2>Caribbean</label2>
								</labels>
							</clipitem>
							<transitionitem>
								<start>60981</start>
								<end>60992</end>
								<pproTicksIn>516854661523200</pproTicksIn>
								<pproTicksOut>516947893862400</pproTicksOut>
								<alignment>end-black</alignment>
								<cutPointTicks>93232339200</cutPointTicks>
								<rate>
									<timebase>30</timebase>
									<ntsc>TRUE</ntsc>
								</rate>
								<effect>
									<name>Cross Fade ( 0dB)</name>
									<effectid>KGAudioTransCrossFade0dB</effectid>
									<effecttype>transition</effecttype>
									<mediatype>audio</mediatype>
									<wipecode>0</wipecode>
									<wipeaccuracy>100</wipeaccuracy>
									<startratio>0</startratio>
									<endratio>1</endratio>
									<reverse>FALSE</reverse>
								</effect>
							</transitionitem>
							<enabled>TRUE</enabled>
							<locked>FALSE</locked>
							<outputchannelindex>1</outputchannelindex>
						</track>
						<track TL.SQTrackAudioKeyframeStyle="0" TL.SQTrackShy="0" TL.SQTrackExpandedHeight="25" TL.SQTrackExpanded="0" MZ.TrackTargeted="1" PannerCurrentValue="0.5" PannerIsInverted="true" PannerStartKeyframe="-91445760000000000,0.5,0,0,0,0,0,0" PannerName="Balance" currentExplodedTrackIndex="1" totalExplodedTrackCount="2" premiereTrackType="Stereo">
							<transitionitem>
								<start>0</start>
								<end>7</end>
								<pproTicksIn>0</pproTicksIn>
								<pproTicksOut>59329670400</pproTicksOut>
								<alignment>start-black</alignment>
								<cutPointTicks>0</cutPointTicks>
								<rate>
									<timebase>30</timebase>
									<ntsc>TRUE</ntsc>
								</rate>
								<effect>
									<name>Cross Fade ( 0dB)</name>
									<effectid>KGAudioTransCrossFade0dB</effectid>
									<effecttype>transition</effecttype>
									<mediatype>audio</mediatype>
									<wipecode>0</wipecode>
									<wipeaccuracy>100</wipeaccuracy>
									<startratio>0</startratio>
									<endratio>1</endratio>
									<reverse>FALSE</reverse>
								</effect>
							</transitionitem>
							<clipitem id="clipitem-1267" premiereChannelType="stereo">
								<masterclipid>masterclip-328</masterclipid>
								<name>ES_Em Baixo (Instrumental Version) - Clara Mendes.mp3</name>
								<enabled>TRUE</enabled>
								<duration>5573</duration>
								<rate>
									<timebase>30</timebase>
									<ntsc>TRUE</ntsc>
								</rate>
								<start>-1</start>
								<end>-1</end>
								<in>218</in>
								<out>5261</out>
								<pproTicksIn>1847695449600</pproTicksIn>
								<pproTicksOut>44590485139200</pproTicksOut>
								<file id="file-300"/>
								<sourcetrack>
									<mediatype>audio</mediatype>
									<trackindex>2</trackindex>
								</sourcetrack>
								<link>
									<linkclipref>clipitem-1253</linkclipref>
									<mediatype>audio</mediatype>
									<trackindex>1</trackindex>
									<clipindex>2</clipindex>
									<groupindex>1</groupindex>
								</link>
								<link>
									<linkclipref>clipitem-1267</linkclipref>
									<mediatype>audio</mediatype>
									<trackindex>2</trackindex>
									<clipindex>2</clipindex>
									<groupindex>1</groupindex>
								</link>
								<logginginfo>
									<description></description>
									<scene></scene>
									<shottake></shottake>
									<lognote></lognote>
									<good></good>
									<originalvideofilename></originalvideofilename>
									<originalaudiofilename></originalaudiofilename>
								</logginginfo>
								<colorinfo>
									<lut></lut>
									<lut1></lut1>
									<asc_sop></asc_sop>
									<asc_sat></asc_sat>
									<lut2></lut2>
								</colorinfo>
								<labels>
									<label2>Caribbean</label2>
								</labels>
							</clipitem>
							<transitionitem>
								<start>5036</start>
								<end>5043</end>
								<pproTicksIn>42683460019200</pproTicksIn>
								<pproTicksOut>42742789689600</pproTicksOut>
								<alignment>end-black</alignment>
								<cutPointTicks>59329670400</cutPointTicks>
								<rate>
									<timebase>30</timebase>
									<ntsc>TRUE</ntsc>
								</rate>
								<effect>
									<name>Cross Fade ( 0dB)</name>
									<effectid>KGAudioTransCrossFade0dB</effectid>
									<effecttype>transition</effecttype>
									<mediatype>audio</mediatype>
									<wipecode>0</wipecode>
									<wipeaccuracy>100</wipeaccuracy>
									<startratio>0</startratio>
									<endratio>1</endratio>
									<reverse>FALSE</reverse>
								</effect>
							</transitionitem>
							<clipitem id="clipitem-1268" premiereChannelType="stereo">
								<masterclipid>masterclip-144</masterclipid>
								<name>ES_El Khalil - Rymdklang Soundtracks.mp3</name>
								<enabled>TRUE</enabled>
								<duration>5070</duration>
								<rate>
									<timebase>30</timebase>
									<ntsc>TRUE</ntsc>
								</rate>
								<start>5436</start>
								<end>-1</end>
								<in>0</in>
								<out>3756</out>
								<pproTicksIn>0</pproTicksIn>
								<pproTicksOut>31834606003200</pproTicksOut>
								<file id="file-143"/>
								<sourcetrack>
									<mediatype>audio</mediatype>
									<trackindex>2</trackindex>
								</sourcetrack>
								<link>
									<linkclipref>clipitem-1254</linkclipref>
									<mediatype>audio</mediatype>
									<trackindex>1</trackindex>
									<clipindex>4</clipindex>
									<groupindex>1</groupindex>
								</link>
								<link>
									<linkclipref>clipitem-1268</linkclipref>
									<mediatype>audio</mediatype>
									<trackindex>2</trackindex>
									<clipindex>4</clipindex>
									<groupindex>1</groupindex>
								</link>
								<logginginfo>
									<description></description>
									<scene></scene>
									<shottake></shottake>
									<lognote></lognote>
									<good></good>
									<originalvideofilename></originalvideofilename>
									<originalaudiofilename></originalaudiofilename>
								</logginginfo>
								<colorinfo>
									<lut></lut>
									<lut1></lut1>
									<asc_sop></asc_sop>
									<asc_sat></asc_sat>
									<lut2></lut2>
								</colorinfo>
								<labels>
									<label2>Caribbean</label2>
								</labels>
							</clipitem>
							<transitionitem>
								<start>9185</start>
								<end>9192</end>
								<pproTicksIn>77849003232000</pproTicksIn>
								<pproTicksOut>77908332902400</pproTicksOut>
								<alignment>end-black</alignment>
								<cutPointTicks>59329670400</cutPointTicks>
								<rate>
									<timebase>30</timebase>
									<ntsc>TRUE</ntsc>
								</rate>
								<effect>
									<name>Cross Fade ( 0dB)</name>
									<effectid>KGAudioTransCrossFade0dB</effectid>
									<effecttype>transition</effecttype>
									<mediatype>audio</mediatype>
									<wipecode>0</wipecode>
									<wipeaccuracy>100</wipeaccuracy>
									<startratio>0</startratio>
									<endratio>1</endratio>
									<reverse>FALSE</reverse>
								</effect>
							</transitionitem>
							<transitionitem>
								<start>9717</start>
								<end>9724</end>
								<pproTicksIn>82358058182400</pproTicksIn>
								<pproTicksOut>82417387852800</pproTicksOut>
								<alignment>start-black</alignment>
								<cutPointTicks>0</cutPointTicks>
								<rate>
									<timebase>30</timebase>
									<ntsc>TRUE</ntsc>
								</rate>
								<effect>
									<name>Cross Fade ( 0dB)</name>
									<effectid>KGAudioTransCrossFade0dB</effectid>
									<effecttype>transition</effecttype>
									<mediatype>audio</mediatype>
									<wipecode>0</wipecode>
									<wipeaccuracy>100</wipeaccuracy>
									<startratio>0</startratio>
									<endratio>1</endratio>
									<reverse>FALSE</reverse>
								</effect>
							</transitionitem>
							<clipitem id="clipitem-1269" premiereChannelType="stereo">
								<masterclipid>masterclip-148</masterclipid>
								<name>ES_That Space You're In - Far Orange.mp3</name>
								<enabled>TRUE</enabled>
								<duration>8001</duration>
								<rate>
									<timebase>30</timebase>
									<ntsc>TRUE</ntsc>
								</rate>
								<start>-1</start>
								<end>11301</end>
								<in>488</in>
								<out>2072</out>
								<pproTicksIn>4136125593600</pproTicksIn>
								<pproTicksOut>17561582438400</pproTicksOut>
								<file id="file-146"/>
								<sourcetrack>
									<mediatype>audio</mediatype>
									<trackindex>2</trackindex>
								</sourcetrack>
								<link>
									<linkclipref>clipitem-1255</linkclipref>
									<mediatype>audio</mediatype>
									<trackindex>1</trackindex>
									<clipindex>7</clipindex>
									<groupindex>1</groupindex>
								</link>
								<link>
									<linkclipref>clipitem-1269</linkclipref>
									<mediatype>audio</mediatype>
									<trackindex>2</trackindex>
									<clipindex>7</clipindex>
									<groupindex>1</groupindex>
								</link>
								<logginginfo>
									<description></description>
									<scene></scene>
									<shottake></shottake>
									<lognote></lognote>
									<good></good>
									<originalvideofilename></originalvideofilename>
									<originalaudiofilename></originalaudiofilename>
								</logginginfo>
								<colorinfo>
									<lut></lut>
									<lut1></lut1>
									<asc_sop></asc_sop>
									<asc_sat></asc_sat>
									<lut2></lut2>
								</colorinfo>
								<labels>
									<label2>Caribbean</label2>
								</labels>
							</clipitem>
							<transitionitem>
								<start>11592</start>
								<end>11599</end>
								<pproTicksIn>98249934182400</pproTicksIn>
								<pproTicksOut>98309263852800</pproTicksOut>
								<alignment>start-black</alignment>
								<cutPointTicks>0</cutPointTicks>
								<rate>
									<timebase>30</timebase>
									<ntsc>TRUE</ntsc>
								</rate>
								<effect>
									<name>Cross Fade ( 0dB)</name>
									<effectid>KGAudioTransCrossFade0dB</effectid>
									<effecttype>transition</effecttype>
									<mediatype>audio</mediatype>
									<wipecode>0</wipecode>
									<wipeaccuracy>100</wipeaccuracy>
									<startratio>0</startratio>
									<endratio>1</endratio>
									<reverse>FALSE</reverse>
								</effect>
							</transitionitem>
							<clipitem id="clipitem-1270" premiereChannelType="stereo">
								<masterclipid>masterclip-173</masterclipid>
								<name>ES_Envied - dreem.mp3</name>
								<enabled>TRUE</enabled>
								<duration>4397</duration>
								<rate>
									<timebase>30</timebase>
									<ntsc>TRUE</ntsc>
								</rate>
								<start>-1</start>
								<end>-1</end>
								<in>347</in>
								<out>4036</out>
								<pproTicksIn>2941056518400</pproTicksIn>
								<pproTicksOut>34207792819200</pproTicksOut>
								<file id="file-164"/>
								<sourcetrack>
									<mediatype>audio</mediatype>
									<trackindex>2</trackindex>
								</sourcetrack>
								<link>
									<linkclipref>clipitem-1256</linkclipref>
									<mediatype>audio</mediatype>
									<trackindex>1</trackindex>
									<clipindex>9</clipindex>
									<groupindex>1</groupindex>
								</link>
								<link>
									<linkclipref>clipitem-1270</linkclipref>
									<mediatype>audio</mediatype>
									<trackindex>2</trackindex>
									<clipindex>9</clipindex>
									<groupindex>1</groupindex>
								</link>
								<logginginfo>
									<description></description>
									<scene></scene>
									<shottake></shottake>
									<lognote></lognote>
									<good></good>
									<originalvideofilename></originalvideofilename>
									<originalaudiofilename></originalaudiofilename>
								</logginginfo>
								<colorinfo>
									<lut></lut>
									<lut1></lut1>
									<asc_sop></asc_sop>
									<asc_sat></asc_sat>
									<lut2></lut2>
								</colorinfo>
								<labels>
									<label2>Caribbean</label2>
								</labels>
							</clipitem>
							<transitionitem>
								<start>15274</start>
								<end>15281</end>
								<pproTicksIn>129457340812800</pproTicksIn>
								<pproTicksOut>129516670483200</pproTicksOut>
								<alignment>end-black</alignment>
								<cutPointTicks>59329670400</cutPointTicks>
								<rate>
									<timebase>30</timebase>
									<ntsc>TRUE</ntsc>
								</rate>
								<effect>
									<name>Cross Fade ( 0dB)</name>
									<effectid>KGAudioTransCrossFade0dB</effectid>
									<effecttype>transition</effecttype>
									<mediatype>audio</mediatype>
									<wipecode>0</wipecode>
									<wipeaccuracy>100</wipeaccuracy>
									<startratio>0</startratio>
									<endratio>1</endratio>
									<reverse>FALSE</reverse>
								</effect>
							</transitionitem>
							<transitionitem>
								<start>15896</start>
								<end>15903</end>
								<pproTicksIn>134729205811200</pproTicksIn>
								<pproTicksOut>134788535481600</pproTicksOut>
								<alignment>start-black</alignment>
								<cutPointTicks>0</cutPointTicks>
								<rate>
									<timebase>30</timebase>
									<ntsc>TRUE</ntsc>
								</rate>
								<effect>
									<name>Cross Fade ( 0dB)</name>
									<effectid>KGAudioTransCrossFade0dB</effectid>
									<effecttype>transition</effecttype>
									<mediatype>audio</mediatype>
									<wipecode>0</wipecode>
									<wipeaccuracy>100</wipeaccuracy>
									<startratio>0</startratio>
									<endratio>1</endratio>
									<reverse>FALSE</reverse>
								</effect>
							</transitionitem>
							<clipitem id="clipitem-1271" premiereChannelType="stereo">
								<masterclipid>masterclip-177</masterclipid>
								<name>ES_Chemistry! (Instrumental Version) - Flux Vortex.mp3</name>
								<enabled>TRUE</enabled>
								<duration>5985</duration>
								<rate>
									<timebase>30</timebase>
									<ntsc>TRUE</ntsc>
								</rate>
								<start>-1</start>
								<end>17428</end>
								<in>676</in>
								<out>2208</out>
								<pproTicksIn>5729551027200</pproTicksIn>
								<pproTicksOut>18714273177600</pproTicksOut>
								<file id="file-167"/>
								<sourcetrack>
									<mediatype>audio</mediatype>
									<trackindex>2</trackindex>
								</sourcetrack>
								<link>
									<linkclipref>clipitem-1257</linkclipref>
									<mediatype>audio</mediatype>
									<trackindex>1</trackindex>
									<clipindex>12</clipindex>
									<groupindex>1</groupindex>
								</link>
								<link>
									<linkclipref>clipitem-1271</linkclipref>
									<mediatype>audio</mediatype>
									<trackindex>2</trackindex>
									<clipindex>12</clipindex>
									<groupindex>1</groupindex>
								</link>
								<logginginfo>
									<description></description>
									<scene></scene>
									<shottake></shottake>
									<lognote></lognote>
									<good></good>
									<originalvideofilename></originalvideofilename>
									<originalaudiofilename></originalaudiofilename>
								</logginginfo>
								<colorinfo>
									<lut></lut>
									<lut1></lut1>
									<asc_sop></asc_sop>
									<asc_sat></asc_sat>
									<lut2></lut2>
								</colorinfo>
								<labels>
									<label2>Caribbean</label2>
								</labels>
							</clipitem>
							<clipitem id="clipitem-1272" premiereChannelType="stereo">
								<masterclipid>masterclip-193</masterclipid>
								<name>ES_Odd Sensibility - Jules Gaia.mp3</name>
								<enabled>TRUE</enabled>
								<duration>4491</duration>
								<rate>
									<timebase>30</timebase>
									<ntsc>TRUE</ntsc>
								</rate>
								<start>17956</start>
								<end>-1</end>
								<in>0</in>
								<out>2674</out>
								<pproTicksIn>0</pproTicksIn>
								<pproTicksOut>22663934092800</pproTicksOut>
								<file id="file-181"/>
								<sourcetrack>
									<mediatype>audio</mediatype>
									<trackindex>2</trackindex>
								</sourcetrack>
								<link>
									<linkclipref>clipitem-1258</linkclipref>
									<mediatype>audio</mediatype>
									<trackindex>1</trackindex>
									<clipindex>13</clipindex>
									<groupindex>1</groupindex>
								</link>
								<link>
									<linkclipref>clipitem-1272</linkclipref>
									<mediatype>audio</mediatype>
									<trackindex>2</trackindex>
									<clipindex>13</clipindex>
									<groupindex>1</groupindex>
								</link>
								<logginginfo>
									<description></description>
									<scene></scene>
									<shottake></shottake>
									<lognote></lognote>
									<good></good>
									<originalvideofilename></originalvideofilename>
									<originalaudiofilename></originalaudiofilename>
								</logginginfo>
								<colorinfo>
									<lut></lut>
									<lut1></lut1>
									<asc_sop></asc_sop>
									<asc_sat></asc_sat>
									<lut2></lut2>
								</colorinfo>
							</clipitem>
							<transitionitem>
								<start>20617</start>
								<end>20630</end>
								<pproTicksIn>174742830662400</pproTicksIn>
								<pproTicksOut>174853014336000</pproTicksOut>
								<alignment>end-black</alignment>
								<cutPointTicks>110183673600</cutPointTicks>
								<rate>
									<timebase>30</timebase>
									<ntsc>TRUE</ntsc>
								</rate>
								<effect>
									<name>Cross Fade ( 0dB)</name>
									<effectid>KGAudioTransCrossFade0dB</effectid>
									<effecttype>transition</effecttype>
									<mediatype>audio</mediatype>
									<wipecode>0</wipecode>
									<wipeaccuracy>100</wipeaccuracy>
									<startratio>0</startratio>
									<endratio>1</endratio>
									<reverse>FALSE</reverse>
								</effect>
							</transitionitem>
							<transitionitem>
								<start>20781</start>
								<end>20788</end>
								<pproTicksIn>176132840083200</pproTicksIn>
								<pproTicksOut>176192169753600</pproTicksOut>
								<alignment>start-black</alignment>
								<cutPointTicks>0</cutPointTicks>
								<rate>
									<timebase>30</timebase>
									<ntsc>TRUE</ntsc>
								</rate>
								<effect>
									<name>Cross Fade ( 0dB)</name>
									<effectid>KGAudioTransCrossFade0dB</effectid>
									<effecttype>transition</effecttype>
									<mediatype>audio</mediatype>
									<wipecode>0</wipecode>
									<wipeaccuracy>100</wipeaccuracy>
									<startratio>0</startratio>
									<endratio>1</endratio>
									<reverse>FALSE</reverse>
								</effect>
							</transitionitem>
							<clipitem id="clipitem-1273" premiereChannelType="stereo">
								<masterclipid>masterclip-197</masterclipid>
								<name>ES_Port Said - Far Orange.mp3</name>
								<enabled>TRUE</enabled>
								<duration>7430</duration>
								<rate>
									<timebase>30</timebase>
									<ntsc>TRUE</ntsc>
								</rate>
								<start>-1</start>
								<end>-1</end>
								<in>3288</in>
								<out>6232</out>
								<pproTicksIn>27867993753600</pproTicksIn>
								<pproTicksOut>52820357990400</pproTicksOut>
								<file id="file-184"/>
								<sourcetrack>
									<mediatype>audio</mediatype>
									<trackindex>2</trackindex>
								</sourcetrack>
								<link>
									<linkclipref>clipitem-1259</linkclipref>
									<mediatype>audio</mediatype>
									<trackindex>1</trackindex>
									<clipindex>16</clipindex>
									<groupindex>1</groupindex>
								</link>
								<link>
									<linkclipref>clipitem-1273</linkclipref>
									<mediatype>audio</mediatype>
									<trackindex>2</trackindex>
									<clipindex>16</clipindex>
									<groupindex>1</groupindex>
								</link>
								<logginginfo>
									<description></description>
									<scene></scene>
									<shottake></shottake>
									<lognote></lognote>
									<good></good>
									<originalvideofilename></originalvideofilename>
									<originalaudiofilename></originalaudiofilename>
								</logginginfo>
								<colorinfo>
									<lut></lut>
									<lut1></lut1>
									<asc_sop></asc_sop>
									<asc_sat></asc_sat>
									<lut2></lut2>
								</colorinfo>
								<labels>
									<label2>Caribbean</label2>
								</labels>
							</clipitem>
							<transitionitem>
								<start>23718</start>
								<end>23725</end>
								<pproTicksIn>201025874649600</pproTicksIn>
								<pproTicksOut>201085204320000</pproTicksOut>
								<alignment>end-black</alignment>
								<cutPointTicks>59329670400</cutPointTicks>
								<rate>
									<timebase>30</timebase>
									<ntsc>TRUE</ntsc>
								</rate>
								<effect>
									<name>Cross Fade ( 0dB)</name>
									<effectid>KGAudioTransCrossFade0dB</effectid>
									<effecttype>transition</effecttype>
									<mediatype>audio</mediatype>
									<wipecode>0</wipecode>
									<wipeaccuracy>100</wipeaccuracy>
									<startratio>0</startratio>
									<endratio>1</endratio>
									<reverse>FALSE</reverse>
								</effect>
							</transitionitem>
							<transitionitem>
								<start>24300</start>
								<end>24307</end>
								<pproTicksIn>205958712960000</pproTicksIn>
								<pproTicksOut>206018042630400</pproTicksOut>
								<alignment>start-black</alignment>
								<cutPointTicks>0</cutPointTicks>
								<rate>
									<timebase>30</timebase>
									<ntsc>TRUE</ntsc>
								</rate>
								<effect>
									<name>Cross Fade ( 0dB)</name>
									<effectid>KGAudioTransCrossFade0dB</effectid>
									<effecttype>transition</effecttype>
									<mediatype>audio</mediatype>
									<wipecode>0</wipecode>
									<wipeaccuracy>100</wipeaccuracy>
									<startratio>0</startratio>
									<endratio>1</endratio>
									<reverse>FALSE</reverse>
								</effect>
							</transitionitem>
							<clipitem id="clipitem-1274" premiereChannelType="stereo">
								<masterclipid>masterclip-216</masterclipid>
								<name>ES_Malhana - DEX 1200.mp3</name>
								<enabled>TRUE</enabled>
								<duration>7247</duration>
								<rate>
									<timebase>30</timebase>
									<ntsc>TRUE</ntsc>
								</rate>
								<start>-1</start>
								<end>-1</end>
								<in>4823</in>
								<out>6666</out>
								<pproTicksIn>40878142905600</pproTicksIn>
								<pproTicksOut>56498797555200</pproTicksOut>
								<file id="file-200"/>
								<sourcetrack>
									<mediatype>audio</mediatype>
									<trackindex>2</trackindex>
								</sourcetrack>
								<link>
									<linkclipref>clipitem-1260</linkclipref>
									<mediatype>audio</mediatype>
									<trackindex>1</trackindex>
									<clipindex>19</clipindex>
									<groupindex>1</groupindex>
								</link>
								<link>
									<linkclipref>clipitem-1274</linkclipref>
									<mediatype>audio</mediatype>
									<trackindex>2</trackindex>
									<clipindex>19</clipindex>
									<groupindex>1</groupindex>
								</link>
								<logginginfo>
									<description></description>
									<scene></scene>
									<shottake></shottake>
									<lognote></lognote>
									<good></good>
									<originalvideofilename></originalvideofilename>
									<originalaudiofilename></originalaudiofilename>
								</logginginfo>
								<colorinfo>
									<lut></lut>
									<lut1></lut1>
									<asc_sop></asc_sop>
									<asc_sat></asc_sat>
									<lut2></lut2>
								</colorinfo>
								<labels>
									<label2>Caribbean</label2>
								</labels>
							</clipitem>
							<transitionitem>
								<start>26129</start>
								<end>26143</end>
								<pproTicksIn>221460708268800</pproTicksIn>
								<pproTicksOut>221579367609600</pproTicksOut>
								<alignment>end-black</alignment>
								<cutPointTicks>118659340800</cutPointTicks>
								<rate>
									<timebase>30</timebase>
									<ntsc>TRUE</ntsc>
								</rate>
								<effect>
									<name>Cross Fade ( 0dB)</name>
									<effectid>KGAudioTransCrossFade0dB</effectid>
									<effecttype>transition</effecttype>
									<mediatype>audio</mediatype>
									<wipecode>0</wipecode>
									<wipeaccuracy>100</wipeaccuracy>
									<startratio>0</startratio>
									<endratio>1</endratio>
									<reverse>FALSE</reverse>
								</effect>
							</transitionitem>
							<transitionitem>
								<start>26755</start>
								<end>26768</end>
								<pproTicksIn>226766475936000</pproTicksIn>
								<pproTicksOut>226876659609600</pproTicksOut>
								<alignment>start-black</alignment>
								<cutPointTicks>0</cutPointTicks>
								<rate>
									<timebase>30</timebase>
									<ntsc>TRUE</ntsc>
								</rate>
								<effect>
									<name>Cross Fade ( 0dB)</name>
									<effectid>KGAudioTransCrossFade0dB</effectid>
									<effecttype>transition</effecttype>
									<mediatype>audio</mediatype>
									<wipecode>0</wipecode>
									<wipeaccuracy>100</wipeaccuracy>
									<startratio>0</startratio>
									<endratio>1</endratio>
									<reverse>FALSE</reverse>
								</effect>
							</transitionitem>
							<clipitem id="clipitem-1275" premiereChannelType="stereo">
								<masterclipid>masterclip-229</masterclipid>
								<name>ES_Blue Gold - Far Orange.mp3</name>
								<enabled>TRUE</enabled>
								<duration>6740</duration>
								<rate>
									<timebase>30</timebase>
									<ntsc>TRUE</ntsc>
								</rate>
								<start>-1</start>
								<end>-1</end>
								<in>92</in>
								<out>3370</out>
								<pproTicksIn>779761382400</pproTicksIn>
								<pproTicksOut>28562998464000</pproTicksOut>
								<file id="file-212"/>
								<sourcetrack>
									<mediatype>audio</mediatype>
									<trackindex>2</trackindex>
								</sourcetrack>
								<link>
									<linkclipref>clipitem-1261</linkclipref>
									<mediatype>audio</mediatype>
									<trackindex>1</trackindex>
									<clipindex>22</clipindex>
									<groupindex>1</groupindex>
								</link>
								<link>
									<linkclipref>clipitem-1275</linkclipref>
									<mediatype>audio</mediatype>
									<trackindex>2</trackindex>
									<clipindex>22</clipindex>
									<groupindex>1</groupindex>
								</link>
								<logginginfo>
									<description></description>
									<scene></scene>
									<shottake></shottake>
									<lognote></lognote>
									<good></good>
									<originalvideofilename></originalvideofilename>
									<originalaudiofilename></originalaudiofilename>
								</logginginfo>
								<colorinfo>
									<lut></lut>
									<lut1></lut1>
									<asc_sop></asc_sop>
									<asc_sat></asc_sat>
									<lut2></lut2>
								</colorinfo>
								<labels>
									<label2>Caribbean</label2>
								</labels>
							</clipitem>
							<transitionitem>
								<start>30026</start>
								<end>30033</end>
								<pproTicksIn>254490383347200</pproTicksIn>
								<pproTicksOut>254549713017600</pproTicksOut>
								<alignment>end-black</alignment>
								<cutPointTicks>59329670400</cutPointTicks>
								<rate>
									<timebase>30</timebase>
									<ntsc>TRUE</ntsc>
								</rate>
								<effect>
									<name>Cross Fade ( 0dB)</name>
									<effectid>KGAudioTransCrossFade0dB</effectid>
									<effecttype>transition</effecttype>
									<mediatype>audio</mediatype>
									<wipecode>0</wipecode>
									<wipeaccuracy>100</wipeaccuracy>
									<startratio>0</startratio>
									<endratio>1</endratio>
									<reverse>FALSE</reverse>
								</effect>
							</transitionitem>
							<clipitem id="clipitem-1276" premiereChannelType="stereo">
								<masterclipid>masterclip-242</masterclipid>
								<name>ES_Solar Healing - Sum Wave.mp3</name>
								<enabled>TRUE</enabled>
								<duration>5896</duration>
								<rate>
									<timebase>30</timebase>
									<ntsc>TRUE</ntsc>
								</rate>
								<start>30754</start>
								<end>-1</end>
								<in>0</in>
								<out>2867</out>
								<pproTicksIn>0</pproTicksIn>
								<pproTicksOut>24299737862400</pproTicksOut>
								<file id="file-222"/>
								<sourcetrack>
									<mediatype>audio</mediatype>
									<trackindex>2</trackindex>
								</sourcetrack>
								<link>
									<linkclipref>clipitem-1262</linkclipref>
									<mediatype>audio</mediatype>
									<trackindex>1</trackindex>
									<clipindex>24</clipindex>
									<groupindex>1</groupindex>
								</link>
								<link>
									<linkclipref>clipitem-1276</linkclipref>
									<mediatype>audio</mediatype>
									<trackindex>2</trackindex>
									<clipindex>24</clipindex>
									<groupindex>1</groupindex>
								</link>
								<logginginfo>
									<description></description>
									<scene></scene>
									<shottake></shottake>
									<lognote></lognote>
									<good></good>
									<originalvideofilename></originalvideofilename>
									<originalaudiofilename></originalaudiofilename>
								</logginginfo>
								<colorinfo>
									<lut></lut>
									<lut1></lut1>
									<asc_sop></asc_sop>
									<asc_sat></asc_sat>
									<lut2></lut2>
								</colorinfo>
								<labels>
									<label2>Caribbean</label2>
								</labels>
							</clipitem>
							<transitionitem>
								<start>33552</start>
								<end>33621</end>
								<pproTicksIn>284375585894400</pproTicksIn>
								<pproTicksOut>284960406931200</pproTicksOut>
								<alignment>end-black</alignment>
								<cutPointTicks>584821036800</cutPointTicks>
								<rate>
									<timebase>30</timebase>
									<ntsc>TRUE</ntsc>
								</rate>
								<effect>
									<name>Cross Fade ( 0dB)</name>
									<effectid>KGAudioTransCrossFade0dB</effectid>
									<effecttype>transition</effecttype>
									<mediatype>audio</mediatype>
									<wipecode>0</wipecode>
									<wipeaccuracy>100</wipeaccuracy>
									<startratio>0</startratio>
									<endratio>1</endratio>
									<reverse>FALSE</reverse>
								</effect>
							</transitionitem>
							<transitionitem>
								<start>34377</start>
								<end>34384</end>
								<pproTicksIn>291368011334400</pproTicksIn>
								<pproTicksOut>291427341004800</pproTicksOut>
								<alignment>start-black</alignment>
								<cutPointTicks>0</cutPointTicks>
								<rate>
									<timebase>30</timebase>
									<ntsc>TRUE</ntsc>
								</rate>
								<effect>
									<name>Cross Fade ( 0dB)</name>
									<effectid>KGAudioTransCrossFade0dB</effectid>
									<effecttype>transition</effecttype>
									<mediatype>audio</mediatype>
									<wipecode>0</wipecode>
									<wipeaccuracy>100</wipeaccuracy>
									<startratio>0</startratio>
									<endratio>1</endratio>
									<reverse>FALSE</reverse>
								</effect>
							</transitionitem>
							<clipitem id="clipitem-1277" premiereChannelType="stereo">
								<masterclipid>masterclip-246</masterclipid>
								<name>ES_Maharajah - Ava Low.mp3</name>
								<enabled>TRUE</enabled>
								<duration>4358</duration>
								<rate>
									<timebase>30</timebase>
									<ntsc>TRUE</ntsc>
								</rate>
								<start>-1</start>
								<end>-1</end>
								<in>383</in>
								<out>2693</out>
								<pproTicksIn>3246180537600</pproTicksIn>
								<pproTicksOut>22824971769600</pproTicksOut>
								<file id="file-225"/>
								<sourcetrack>
									<mediatype>audio</mediatype>
									<trackindex>2</trackindex>
								</sourcetrack>
								<link>
									<linkclipref>clipitem-1263</linkclipref>
									<mediatype>audio</mediatype>
									<trackindex>1</trackindex>
									<clipindex>27</clipindex>
									<groupindex>1</groupindex>
								</link>
								<link>
									<linkclipref>clipitem-1277</linkclipref>
									<mediatype>audio</mediatype>
									<trackindex>2</trackindex>
									<clipindex>27</clipindex>
									<groupindex>1</groupindex>
								</link>
								<logginginfo>
									<description></description>
									<scene></scene>
									<shottake></shottake>
									<lognote></lognote>
									<good></good>
									<originalvideofilename></originalvideofilename>
									<originalaudiofilename></originalaudiofilename>
								</logginginfo>
								<colorinfo>
									<lut></lut>
									<lut1></lut1>
									<asc_sop></asc_sop>
									<asc_sat></asc_sat>
									<lut2></lut2>
								</colorinfo>
								<labels>
									<label2>Caribbean</label2>
								</labels>
							</clipitem>
							<transitionitem>
								<start>36680</start>
								<end>36687</end>
								<pproTicksIn>310887472896000</pproTicksIn>
								<pproTicksOut>310946802566400</pproTicksOut>
								<alignment>end-black</alignment>
								<cutPointTicks>59329670400</cutPointTicks>
								<rate>
									<timebase>30</timebase>
									<ntsc>TRUE</ntsc>
								</rate>
								<effect>
									<name>Cross Fade ( 0dB)</name>
									<effectid>KGAudioTransCrossFade0dB</effectid>
									<effecttype>transition</effecttype>
									<mediatype>audio</mediatype>
									<wipecode>0</wipecode>
									<wipeaccuracy>100</wipeaccuracy>
									<startratio>0</startratio>
									<endratio>1</endratio>
									<reverse>FALSE</reverse>
								</effect>
							</transitionitem>
							<transitionitem>
								<start>37459</start>
								<end>37466</end>
								<pproTicksIn>317490017644800</pproTicksIn>
								<pproTicksOut>317549347315200</pproTicksOut>
								<alignment>start-black</alignment>
								<cutPointTicks>0</cutPointTicks>
								<rate>
									<timebase>30</timebase>
									<ntsc>TRUE</ntsc>
								</rate>
								<effect>
									<name>Cross Fade ( 0dB)</name>
									<effectid>KGAudioTransCrossFade0dB</effectid>
									<effecttype>transition</effecttype>
									<mediatype>audio</mediatype>
									<wipecode>0</wipecode>
									<wipeaccuracy>100</wipeaccuracy>
									<startratio>0</startratio>
									<endratio>1</endratio>
									<reverse>FALSE</reverse>
								</effect>
							</transitionitem>
							<clipitem id="clipitem-1278" premiereChannelType="stereo">
								<masterclipid>masterclip-264</masterclipid>
								<name>ES_Urban Stories - Chill Cole.mp3</name>
								<enabled>TRUE</enabled>
								<duration>9032</duration>
								<rate>
									<timebase>30</timebase>
									<ntsc>TRUE</ntsc>
								</rate>
								<start>-1</start>
								<end>-1</end>
								<in>686</in>
								<out>6018</out>
								<pproTicksIn>5814307699200</pproTicksIn>
								<pproTicksOut>51006565209600</pproTicksOut>
								<file id="file-241"/>
								<sourcetrack>
									<mediatype>audio</mediatype>
									<trackindex>2</trackindex>
								</sourcetrack>
								<link>
									<linkclipref>clipitem-1264</linkclipref>
									<mediatype>audio</mediatype>
									<trackindex>1</trackindex>
									<clipindex>30</clipindex>
									<groupindex>1</groupindex>
								</link>
								<link>
									<linkclipref>clipitem-1278</linkclipref>
									<mediatype>audio</mediatype>
									<trackindex>2</trackindex>
									<clipindex>30</clipindex>
									<groupindex>1</groupindex>
								</link>
								<logginginfo>
									<description></description>
									<scene></scene>
									<shottake></shottake>
									<lognote></lognote>
									<good></good>
									<originalvideofilename></originalvideofilename>
									<originalaudiofilename></originalaudiofilename>
								</logginginfo>
								<colorinfo>
									<lut></lut>
									<lut1></lut1>
									<asc_sop></asc_sop>
									<asc_sat></asc_sat>
									<lut2></lut2>
								</colorinfo>
								<labels>
									<label2>Caribbean</label2>
								</labels>
							</clipitem>
							<transitionitem>
								<start>42768</start>
								<end>42791</end>
								<pproTicksIn>362487334809600</pproTicksIn>
								<pproTicksOut>362682275155200</pproTicksOut>
								<alignment>end-black</alignment>
								<cutPointTicks>194940345600</cutPointTicks>
								<rate>
									<timebase>30</timebase>
									<ntsc>TRUE</ntsc>
								</rate>
								<effect>
									<name>Cross Fade ( 0dB)</name>
									<effectid>KGAudioTransCrossFade0dB</effectid>
									<effecttype>transition</effecttype>
									<mediatype>audio</mediatype>
									<wipecode>0</wipecode>
									<wipeaccuracy>100</wipeaccuracy>
									<startratio>0</startratio>
									<endratio>1</endratio>
									<reverse>FALSE</reverse>
								</effect>
							</transitionitem>
							<transitionitem>
								<start>43621</start>
								<end>43628</end>
								<pproTicksIn>369717078931200</pproTicksIn>
								<pproTicksOut>369776408601600</pproTicksOut>
								<alignment>start-black</alignment>
								<cutPointTicks>0</cutPointTicks>
								<rate>
									<timebase>30</timebase>
									<ntsc>TRUE</ntsc>
								</rate>
								<effect>
									<name>Cross Fade ( 0dB)</name>
									<effectid>KGAudioTransCrossFade0dB</effectid>
									<effecttype>transition</effecttype>
									<mediatype>audio</mediatype>
									<wipecode>0</wipecode>
									<wipeaccuracy>100</wipeaccuracy>
									<startratio>0</startratio>
									<endratio>1</endratio>
									<reverse>FALSE</reverse>
								</effect>
							</transitionitem>
							<clipitem id="clipitem-1279" premiereChannelType="stereo">
								<masterclipid>masterclip-284</masterclipid>
								<name>ES_Succulent Chinese Meal - Jones Meadow.mp3</name>
								<enabled>TRUE</enabled>
								<duration>6569</duration>
								<rate>
									<timebase>30</timebase>
									<ntsc>TRUE</ntsc>
								</rate>
								<start>-1</start>
								<end>-1</end>
								<in>0</in>
								<out>5288</out>
								<pproTicksIn>0</pproTicksIn>
								<pproTicksOut>44819328153600</pproTicksOut>
								<file id="file-259"/>
								<sourcetrack>
									<mediatype>audio</mediatype>
									<trackindex>2</trackindex>
								</sourcetrack>
								<link>
									<linkclipref>clipitem-1265</linkclipref>
									<mediatype>audio</mediatype>
									<trackindex>1</trackindex>
									<clipindex>33</clipindex>
									<groupindex>1</groupindex>
								</link>
								<link>
									<linkclipref>clipitem-1279</linkclipref>
									<mediatype>audio</mediatype>
									<trackindex>2</trackindex>
									<clipindex>33</clipindex>
									<groupindex>1</groupindex>
								</link>
								<logginginfo>
									<description></description>
									<scene></scene>
									<shottake></shottake>
									<lognote></lognote>
									<good></good>
									<originalvideofilename></originalvideofilename>
									<originalaudiofilename></originalaudiofilename>
								</logginginfo>
								<colorinfo>
									<lut></lut>
									<lut1></lut1>
									<asc_sop></asc_sop>
									<asc_sat></asc_sat>
									<lut2></lut2>
								</colorinfo>
								<labels>
									<label2>Caribbean</label2>
								</labels>
							</clipitem>
							<transitionitem>
								<start>48870</start>
								<end>48909</end>
								<pproTicksIn>414205856064000</pproTicksIn>
								<pproTicksOut>414536407084800</pproTicksOut>
								<alignment>end-black</alignment>
								<cutPointTicks>330551020800</cutPointTicks>
								<rate>
									<timebase>30</timebase>
									<ntsc>TRUE</ntsc>
								</rate>
								<effect>
									<name>Cross Fade ( 0dB)</name>
									<effectid>KGAudioTransCrossFade0dB</effectid>
									<effecttype>transition</effecttype>
									<mediatype>audio</mediatype>
									<wipecode>0</wipecode>
									<wipeaccuracy>100</wipeaccuracy>
									<startratio>0</startratio>
									<endratio>1</endratio>
									<reverse>FALSE</reverse>
								</effect>
							</transitionitem>
							<clipitem id="clipitem-1280" premiereChannelType="stereo">
								<masterclipid>masterclip-321</masterclipid>
								<name>ES_Beyond the Mountains - Experia.mp3</name>
								<enabled>TRUE</enabled>
								<duration>6022</duration>
								<rate>
									<timebase>30</timebase>
									<ntsc>TRUE</ntsc>
								</rate>
								<start>55500</start>
								<end>-1</end>
								<in>0</in>
								<out>5492</out>
								<pproTicksIn>0</pproTicksIn>
								<pproTicksOut>46548364262400</pproTicksOut>
								<file id="file-294"/>
								<sourcetrack>
									<mediatype>audio</mediatype>
									<trackindex>2</trackindex>
								</sourcetrack>
								<link>
									<linkclipref>clipitem-1266</linkclipref>
									<mediatype>audio</mediatype>
									<trackindex>1</trackindex>
									<clipindex>35</clipindex>
									<groupindex>1</groupindex>
								</link>
								<link>
									<linkclipref>clipitem-1280</linkclipref>
									<mediatype>audio</mediatype>
									<trackindex>2</trackindex>
									<clipindex>35</clipindex>
									<groupindex>1</groupindex>
								</link>
								<logginginfo>
									<description></description>
									<scene></scene>
									<shottake></shottake>
									<lognote></lognote>
									<good></good>
									<originalvideofilename></originalvideofilename>
									<originalaudiofilename></originalaudiofilename>
								</logginginfo>
								<colorinfo>
									<lut></lut>
									<lut1></lut1>
									<asc_sop></asc_sop>
									<asc_sat></asc_sat>
									<lut2></lut2>
								</colorinfo>
								<labels>
									<label2>Caribbean</label2>
								</labels>
							</clipitem>
							<transitionitem>
								<start>60981</start>
								<end>60992</end>
								<pproTicksIn>516854661523200</pproTicksIn>
								<pproTicksOut>516947893862400</pproTicksOut>
								<alignment>end-black</alignment>
								<cutPointTicks>93232339200</cutPointTicks>
								<rate>
									<timebase>30</timebase>
									<ntsc>TRUE</ntsc>
								</rate>
								<effect>
									<name>Cross Fade ( 0dB)</name>
									<effectid>KGAudioTransCrossFade0dB</effectid>
									<effecttype>transition</effecttype>
									<mediatype>audio</mediatype>
									<wipecode>0</wipecode>
									<wipeaccuracy>100</wipeaccuracy>
									<startratio>0</startratio>
									<endratio>1</endratio>
									<reverse>FALSE</reverse>
								</effect>
							</transitionitem>
							<enabled>TRUE</enabled>
							<locked>FALSE</locked>
							<outputchannelindex>2</outputchannelindex>
						</track>
						<track TL.SQTrackAudioKeyframeStyle="0" TL.SQTrackShy="0" TL.SQTrackExpandedHeight="25" TL.SQTrackExpanded="0" MZ.TrackTargeted="1" PannerCurrentValue="0.5" PannerIsInverted="true" PannerStartKeyframe="-91445760000000000,0.5,0,0,0,0,0,0" PannerName="Balance" currentExplodedTrackIndex="0" totalExplodedTrackCount="2" premiereTrackType="Stereo">
							<enabled>TRUE</enabled>
							<locked>FALSE</locked>
							<outputchannelindex>1</outputchannelindex>
						</track>
						<track TL.SQTrackAudioKeyframeStyle="0" TL.SQTrackShy="0" TL.SQTrackExpandedHeight="25" TL.SQTrackExpanded="0" MZ.TrackTargeted="1" PannerCurrentValue="0.5" PannerIsInverted="true" PannerStartKeyframe="-91445760000000000,0.5,0,0,0,0,0,0" PannerName="Balance" currentExplodedTrackIndex="1" totalExplodedTrackCount="2" premiereTrackType="Stereo">
							<enabled>TRUE</enabled>
							<locked>FALSE</locked>
							<outputchannelindex>2</outputchannelindex>
						</track>
						<track TL.SQTrackAudioKeyframeStyle="0" TL.SQTrackShy="0" TL.SQTrackExpandedHeight="25" TL.SQTrackExpanded="0" MZ.TrackTargeted="1" PannerCurrentValue="0.5" PannerIsInverted="true" PannerStartKeyframe="-91445760000000000,0.5,0,0,0,0,0,0" PannerName="Balance" currentExplodedTrackIndex="0" totalExplodedTrackCount="2" premiereTrackType="Stereo">
							<enabled>TRUE</enabled>
							<locked>FALSE</locked>
							<outputchannelindex>1</outputchannelindex>
						</track>
						<track TL.SQTrackAudioKeyframeStyle="0" TL.SQTrackShy="0" TL.SQTrackExpandedHeight="25" TL.SQTrackExpanded="0" MZ.TrackTargeted="1" PannerCurrentValue="0.5" PannerIsInverted="true" PannerStartKeyframe="-91445760000000000,0.5,0,0,0,0,0,0" PannerName="Balance" currentExplodedTrackIndex="1" totalExplodedTrackCount="2" premiereTrackType="Stereo">
							<enabled>TRUE</enabled>
							<locked>FALSE</locked>
							<outputchannelindex>2</outputchannelindex>
						</track>
					</audio>
				</media>
				<timecode>
					<rate>
						<timebase>30</timebase>
						<ntsc>TRUE</ntsc>
					</rate>
					<string>00;00;00;00</string>
					<frame>0</frame>
					<displayformat>DF</displayformat>
				</timecode>
				<labels>
					<label2>Forest</label2>
				</labels>
				<logginginfo>
					<description></description>
					<scene></scene>
					<shottake></shottake>
					<lognote></lognote>
					<good></good>
					<originalvideofilename></originalvideofilename>
					<originalaudiofilename></originalaudiofilename>
				</logginginfo>
			</sequence>
		</children>
	</project>
</xmeml>
